<svg height="922.89941" width="776.45129" xmlns="http://www.w3.org/2000/svg"><g transform="matrix(1.8844245 0 0 1.8844245 -790.20361 107.61434)"><path d="m423.47373-47.84794c-1.0759 67.807895-1.0124 135.625095 0 203.43086.9754 65.3291 4.2342 116.3096 33.5012 156.1723 35.255 48.0186 93.9884 82.67104 169.5399 116.7162 75.5514-34.04516 134.2848-68.6976 169.5398-116.7162 29.267-39.8627 32.5258-90.8432 33.5012-156.1723 1.0124-67.805765 1.0759-135.622965 0-203.43086z" fill="#ce0f25"/><g transform="matrix(.67659914 0 0 .67659914 426.63889 -20.993879)"><g fill-rule="evenodd"><path d="m595.0894 268.74869-90.32892-.39216c-55.44101 4.89297-52.18191 37.60027-50.21536 56.39822l-133.85357-40.15312 36.529 111.03412-62.09324 50.81773.43608 218.85805c117.29427-52.66258 197.53261-103.74006 256.75102-181.28404 21.63482-40.61988 38.42845-85.43813 40.52327-149.05431.67591-20.52637 4.06433-42.81337 2.25172-66.22449z" fill="#fee46e"/><g fill="#ce0f25"><path d="m328.32019 266.28495 37.23499-.0921v365.36358l-36.45068 17.11994-.78431-7.45959v-374.93192z"/><path d="m403.06684 266.2883 39.49983-.0677v320.76325l-39.49983 23.10685v-.94005z"/><path d="m521.57225 266.70408-39.49983-.067v290.30631c11.846-6.24195 32.00459-25.96962 39.49983-35.42252z"/><path d="m595.04842 267.40864-35.97043.54691v119.14501 83.11276c31.47902-61.35827 32.48405-108.00758 36.75474-188.7432z"/></g></g><path d="m443 1368.7777s-156.19471-188.3212-156.19471-666.92192c0-478.60066 0-433.49922 0-433.49922h312.38944v433.49922c0 478.60072-156.19473 666.92192-156.19473 666.92192z" fill="none"/><g fill="#fee46e" fill-rule="evenodd" stroke="#ce0f25" stroke-width="2.30473" transform="matrix(1.3016628 0 0 1.3016794 -2565.6108 -568.79776)"><path d="m2201.4845 500.70333c-4.7445 0-9.4057.2639-14.0313.71875-.2868 12.97986-10.9206 23.43752-23.9687 23.4375-5.1093-.00008-9.8347-1.63974-13.7188-4.375-2.2056-2.45229-4.4786-4.85284-6.8125-7.1875-5.4822 2.48316-10.7899 5.30529-15.875 8.4375 1.8116 1.69271 3.5803 3.41917 5.3125 5.1875.9351 1.11745 1.9518 2.14558 3 3.15625.068.0658.1188.15342.1875.21875 22.38 24.1556 37.657 54.94886 42.5 89.125-38.3346-5.42977-72.4383-23.98976-97.6562-50.96875-3.1307 5.08128-5.9862 10.36584-8.4688 15.84375 2.0007 1.9988 4.0376 3.96832 6.125 5.875 3.3757 4.13081 5.4062 9.41583 5.4063 15.15625-.0001 13.06932-10.491 23.68449-23.5 23.9375-.425 4.47328-.6251 9.00982-.625 13.59375 0 4.89355.2352 9.73331.7187 14.5 12.9652.30349 23.4062 10.93119 23.4063 23.96875-.0001 4.66188-1.3433 9.01161-3.6563 12.6875-2.694 2.39906-5.3195 4.86243-7.875 7.4063 2.5682 5.6668 5.5205 11.1335 8.7813 16.375 25.1633-26.77177 59.0893-45.19557 97.2187-50.62505-5.5898 37.99185-24.0768 71.78525-50.875 96.81255 5.093 3.1371 10.4149 5.9515 15.9063 8.4375 2.038-2.0283 4.0306-4.0928 5.9687-6.2188 4.1126-3.3169 9.3155-5.3124 15-5.3125 13.0587.0001 23.6679 10.4742 23.9375 23.4688 4.4835.4269 8.999.6562 13.5938.6562 4.8935 0 9.7333-.2665 14.5-.75 0-.0003.031.0003.031 0 .3203-12.9502 10.9108-23.375 23.9375-23.375 4.6794.0001 9.0341 1.3899 12.7188 3.7188 2.3852 2.6766 4.844 5.2811 7.375 7.8125 5.6759-2.571 11.1569-5.5156 16.4062-8.7813-26.5665-24.9688-44.9135-58.5778-50.5-96.34375 37.7562 5.58971 71.3818 23.91034 96.3438 50.46875 3.2615-5.2462 6.1822-10.7342 8.75-16.4062-2.3226-2.32558-4.7095-4.58075-7.1563-6.7813-2.7264-3.88977-4.3437-8.61826-4.3437-13.71875.0001-13.03745 10.441-23.63489 23.4062-23.9375.4548-4.62558.6875-9.31801.6875-14.0625 0-4.73391-.2347-9.4157-.6875-14.03125-12.9653-.30344-23.4062-10.93116-23.4062-23.96875.0001-5.12497 1.6243-9.8592 4.375-13.75 2.4304-2.18711 4.8158-4.43881 7.125-6.75-2.486-5.49134-5.3004-10.81321-8.4375-15.90625-1.7668 1.89537-3.5818 3.7532-5.4375 5.5625-1.0978.93785-2.1643 1.92066-3.1563 2.96875-23.9289 22.14845-54.3982 37.33603-88.1875 42.3125 5.4331-38.12885 23.8756-72.06549 50.6563-97.21875-5.2482-3.26636-10.7314-6.20943-16.4063-8.78125-2.3091 2.31661-4.5599 4.69301-6.75 7.125-3.9111 2.77508-8.6935 4.43741-13.8437 4.4375-13.0481-.00017-23.6514-10.45766-23.9375-23.4375-4.6256-.45485-9.3181-.71875-14.0625-.71875zm0 14.40625c5.4852 14.65345 19.2193 25.25893 35.5312 26.25-18.591 27.8166-29.7948 60.96631-30.7187 96.6875 35.7195-.91794 68.9048-12.07803 96.7187-30.65625 1.0096 16.28659 11.6475 29.97823 26.2813 35.46875-14.6483 5.48332-25.2839 19.1956-26.2813 35.5-27.8138-18.5782-60.9991-29.76931-96.7187-30.6875.9235 35.7122 12.1362 68.87535 30.7187 96.68755-16.1071 1.1604-29.6178 11.7696-35.0625 26.2812-5.5304-14.7738-19.4178-25.4737-35.9062-26.3125 18.5586-27.8036 29.7016-60.9561 30.625-96.65625-35.7135.92401-68.8445 12.13636-96.6563 30.71875-1.1604-16.10716-11.7698-29.6178-26.2812-35.0625 14.7805-5.53279 25.4823-19.43906 26.3125-35.9375 27.8043 18.56783 60.9271 29.73277 96.625 30.65625-.9242-35.72327-12.0746-68.8717-30.6563-96.6875 16.2943-1.00304 29.9763-11.61102 35.4688-26.25z"/><path d="m1455 387.86218c0 10.76956-9.1782 19.5-20.5 19.5s-20.5-8.73044-20.5-19.5c0-10.76955 9.1782-19.5 20.5-19.5s20.5 8.73045 20.5 19.5z" stroke-width="2.899458" transform="matrix(.775253 0 0 .81501 1089.4 186.8612)"/><path d="m1455 387.86218c0 10.76956-9.1782 19.5-20.5 19.5s-20.5-8.73044-20.5-19.5c0-10.76955 9.1782-19.5 20.5-19.5s20.5 8.73045 20.5 19.5z" stroke-width="2.899459" transform="matrix(.671389 -.387627 .407505 .705818 1010.393 804.0035)"/><path d="m1455 387.86218c0 10.76956-9.1782 19.5-20.5 19.5s-20.5-8.73044-20.5-19.5c0-10.76955 9.1782-19.5 20.5-19.5s20.5 8.73045 20.5 19.5z" stroke-width="2.899459" transform="matrix(-.671389 -.387627 .407505 -.705818 2936.607 1593.817)"/><path d="m1455 387.86218c0 10.76956-9.1782 19.5-20.5 19.5s-20.5-8.73044-20.5-19.5c0-10.76955 9.1782-19.5 20.5-19.5s20.5 8.73045 20.5 19.5z" stroke-width="2.899454" transform="matrix(-.775254 -.00000044 .00000046 -.815011 3313.6 1098.86)"/><path d="m1455 387.86218c0 10.76956-9.1782 19.5-20.5 19.5s-20.5-8.73044-20.5-19.5c0-10.76955 9.1782-19.5 20.5-19.5s20.5 8.73045 20.5 19.5z" stroke-width="2.899458" transform="matrix(-.671389 .387627 -.407505 -.705819 3392.606 481.716)"/><path d="m1455 387.86218c0 10.76956-9.1782 19.5-20.5 19.5s-20.5-8.73044-20.5-19.5c0-10.76955 9.1782-19.5 20.5-19.5s20.5 8.73045 20.5 19.5z" stroke-width="2.899457" transform="matrix(-.387628 .671389 -.705819 -.407505 3152.458 -92.24858)"/><path d="m1455 387.86218c0 10.76956-9.1782 19.5-20.5 19.5s-20.5-8.73044-20.5-19.5c0-10.76955 9.1782-19.5 20.5-19.5s20.5 8.73045 20.5 19.5z" stroke-width="2.899454" transform="matrix(-.00000044 .775254 -.815011 -.00000046 2657.502 -469.2423)"/><path d="m1455 387.86218c0 10.76956-9.1782 19.5-20.5 19.5s-20.5-8.73044-20.5-19.5c0-10.76955 9.1782-19.5 20.5-19.5s20.5 8.73045 20.5 19.5z" stroke-width="2.899458" transform="matrix(.387627 .671389 -.705819 .407505 2040.357 -548.2492)"/><path d="m1455 387.86218c0 10.76956-9.1782 19.5-20.5 19.5s-20.5-8.73044-20.5-19.5c0-10.76955 9.1782-19.5 20.5-19.5s20.5 8.73045 20.5 19.5z" stroke-width="2.899457" transform="matrix(.671389 .387628 -.407505 .705819 1466.393 -308.0995)"/><path d="m1455 387.86218c0 10.76956-9.1782 19.5-20.5 19.5s-20.5-8.73044-20.5-19.5c0-10.76955 9.1782-19.5 20.5-19.5s20.5 8.73045 20.5 19.5z" stroke-width="2.899459" transform="matrix(.387627 -.671389 .705818 .407505 1250.543 1377.968)"/><path d="m1455 387.86218c0 10.76956-9.1782 19.5-20.5 19.5s-20.5-8.73044-20.5-19.5c0-10.76955 9.1782-19.5 20.5-19.5s20.5 8.73045 20.5 19.5z" stroke-width="2.899458" transform="matrix(.00000016 -.775253 .81501 .00000016 1745.499 1754.96)"/><path d="m1455 387.86218c0 10.76956-9.1782 19.5-20.5 19.5s-20.5-8.73044-20.5-19.5c0-10.76955 9.1782-19.5 20.5-19.5s20.5 8.73045 20.5 19.5z" stroke-width="2.899459" transform="matrix(-.387627 -.671389 .705818 -.407505 2362.644 1833.966)"/></g></g><path d="m423.3577 32.60745c-1.0759 67.80789-1.0124 135.6251 0 203.43086.9754 65.3291 4.2342 116.3096 33.5012 156.1723 35.255 48.0186 93.9884 82.67104 169.5399 116.7162 75.5514-34.04516 134.2848-68.6976 169.5398-116.7162 29.267-39.8627 32.5258-90.8432 33.5012-156.1723 1.0124-67.80576 1.0759-135.62297 0-203.43086z" fill="none" stroke="#540" stroke-width="1.364342" transform="translate(0 -80)"/></g></svg>