<svg height="478.31937" width="409.64868" xmlns="http://www.w3.org/2000/svg"><path d="m1998.1752-139.51017c-1.0759 67.807888-1.0124 135.6251028 0 203.430873.9754 65.329097 4.2342 116.309597 33.5012 156.172297 35.255 48.0186 93.9884 82.67104 169.5399 116.7162 75.5514-34.04516 134.2848-68.6976 169.5398-116.7162 29.267-39.8627 32.5258-90.8432 33.5012-156.172297 1.0124-67.8057702 1.0759-135.622985 0-203.430873z" fill="#ce0f25" stroke="#800000" stroke-width="2" transform="translate(-1996.39191 140.51017)"/><g stroke-width=".909091"><g transform="matrix(1.1 0 0 1.1 -2216.513499 192.67423)"><g stroke-width=".466507" transform="matrix(1.9487171 0 0 1.9487171 1190.944 329.39578)"><g><path d="m469.89172-189.44346s-3.2133-.0251-4.49999-.77844c-1.39929-.81931-2.89764-3.71547-2.89764-3.71547s-3.5428.5752-5.17164.2223c-1.70186-.36873-4.1377-2.31533-4.1377-2.31533 1.627-.24015 2.84206-.48567 4.41754-1.76008 0 0-3.13615-.16604-4.92243-.8537-1.55516-.5987-4.09281-2.58269-4.09281-2.58269 1.45006-.35994 3.01793-.31529 4.16007-1.73258 0 0-3.07162.0277-4.46327-.48078-1.38924-.50759-3.59506-2.46162-3.59506-2.46162 1.68802-.14653 3.29361-.45961 4.379-1.82377 0 0-3.11114.10567-4.42924-.41198-1.81987-.71478-4.60418-3.09647-4.60418-3.09647 1.75084-.1319 3.49236-.28269 4.81679-1.27612l-.98441-1.99868c-1.18824-2.41294-3.67704-1.56174-5.33097-2.22681-1.62436-.65318-2.53503-2.43408-2.62364-3.43221-.15625-1.7607.74385-4.45016 4.7172-3.88855-1.97584-3.01086.0813-5.17388 2.1837-6.03988 2.01959-.83233 3.80318-.60501 5.17456 2.69044 0 0 1.84335-1.4908 2.84207-1.71177 1.39017-.30755 2.95721.15361 3.45134 1.45497.20317.53507.27725 1.65417-.0635 2.32224-.53897 1.05666-1.72616 1.78054-2.11393 3.32609-.43905 1.74986 1.17767 4.80302 1.17767 4.80302s7.63709 6.05036 11.15035 9.36419c1.86935 1.76322 5.2643 5.57903 5.2643 5.57903l.18762-.10869h7.57028l.67592 12.77279-8.23795.16055z" fill="#e4c900" stroke="#806600" stroke-width=".466507"/><path d="m728.66998 600.08634s2.14322 3.00896 3.34361 3.58245c1.14933.5491 3.34362 0 3.34362 0l-.71649-1.5524h-.95532c-2.49264-2.99521-4.62136-6.51547-3.94069-10.50851 0 0-2.83065-3.13952-4.53777-4.65718-2.2446-1.99549-8.23963-6.44841-8.23963-6.44841s-1.3723-3.32743-1.5524-5.6125c-.0797-1.0117.13035-2.08424.59708-2.98538.47913-.92508 1.88497-1.26122 2.14947-2.26888.0833-.31749-.0277-.70401-.23883-.95532-.25219-.30015-.68338-.5007-1.07474-.47766-1.47881.087-3.82128 2.26888-3.82128 2.26888s-1.46479-2.6323-2.74654-3.2242c-.54207-.25032-1.2396-.22849-1.79122 0-.52008.21542-1.0322.65502-1.19415 1.19415-.51431 1.7121 1.07473 5.25426 1.07473 5.25426s-3.44737-.87649-4.7766 0c-.50616.33376-.76689 1.06762-.71649 1.67181.0551.6602.53641 1.28569 1.07474 1.67181 1.46698 1.05221 5.25426 1.31356 5.25426 1.31356l4.41834 5.97075-4.65717 1.31356c1.77394.96561 3.16362 1.29333 8.0008 1.31357-.98506 2.0703-2.4297 2.77997-3.70187 3.70186l8.12022 1.19415c-.70602 2.03214-2.8284 2.22011-3.82128 3.10479 2.05296 1.36605 5.29625 1.83934 8.59788 2.26888-.44573 1.6659-2.55375 2.08508-4.17952 2.86596 1.18751.49093 3.27146.14572 6.68724 0z" fill="#fee46e" transform="translate(-265.2681 -795.8822)"/><path d="m463.964-201.37345c-3.57009-7.41614-9.76248-11.43664-16.38054-15.39604 3.9692 7.43686 9.25481 11.96392 16.38054 15.39604z" fill="#ffefa7"/></g><g fill="#377bc8" stroke="#2c5aa0"><path d="m453.42141-228.71466c.26597 1.26198-.26713 2.17305-1.41035 2.52075-.56821.17286-1.22517.00058-1.91053-.71256.32966-2.09628.16478-2.91927-1.28192-4.71368 3.61728.77133 3.75459 2.37308 4.6028 2.90549z"/><path d="m443.33752-229.69243c.76473 1.03851.65682 2.08856-.23976 2.8785-.4456.39266-1.11492.50793-2.03408.14266-.56811-2.04458-1.05902-2.72539-3.11897-3.75954 3.61193-.79601 4.40027.60505 5.39281.73838z"/><path d="m437.60965-222.54844c1.12808.62511 1.4678 1.62452.98223 2.71634-.24131.54269-.80162.92653-1.78937.97776-1.36884-1.62153-2.09891-2.03566-4.40244-2.11676 2.95112-2.22948 4.25183-1.28469 5.20958-1.57734z"/></g></g><g stroke-width=".466507" transform="matrix(1.9487171 0 0 1.9487171 1190.944 329.39578)"><path d="m513.50766-183.58052c-1.33427-.38955-2.96302-2.14373-4.37827-2.13573-1.4905.009-2.54136.84042-3.29124 1.95842-.35783.53347.20388 2.52939.76142 2.91265l2.56744 1.7649s-1.60714 1.84635-1.72893 2.8858c-.1058.90301.34775 1.62799.99501 2.34096.84401.92951 1.05109 1.28882 2.39589 1.48468.80306.11697 2.70345-.23377 2.70345-.23377s-.0444 1.4813.4251 2.16495c.85068 1.23901 2.2951 2.3313 3.94515 2.15698 1.28859-.13595 1.70673-.33111 2.38775-1.29018.54003-.76055.43205-2.70458 1.30892-3.50549l3.56614-3.25717c1.53965.93176 1.49878 2.32075 1.3073 3.75332 0 0 2.28884-1.44598 2.9698-2.48201.70945-1.07936.98995-3.62755.98995-3.62755 1.44914 1.30718 1.92869 2.4753 1.61809 4.03701 0 0 2.33003-1.45493 3.0798-2.48202.84399-1.15614 1.57169-3.65514 1.57169-3.65514 1.06098 1.03218 1.28488 2.50025.87996 4.29578 0 0 2.60377-1.7445 3.29978-3.15024.55024-1.11135.8799-3.05479.8799-3.05479 3.16391.22969 5.20713-1.14707 5.34641-2.57256.10799-1.10549-1.14359-2.61267-3.69106-3.05023 0 0-.9404-1.40428-1.29638-2.44286-.24469-.71388-.26288-1.52538 0-2.23436.52587-1.41828 1.75142-2.61162 3.00355-3.63084 1.72231-1.40195 5.47075-3.16534 5.47075-3.16534l-1.09677-5.49152-12.76507-1.95505-14.1101 3.47778c2.57171 1.18 8.3319 5.21446 7.86162 6.74365-.17596.57219-1.40134 1.11414-1.9872 1.88006-.43149.56409-.10234 1.46569.3218 2.04817.59343.81489 2.01126 1.00214 2.4672 1.76885.4103.68997.59677 1.30515.1073 1.95507-.96633 1.28313-4.21624 1.82212-5.79256 2.51365-2.87265 1.26025-7.73662 4.00798-7.73662 4.00798-1.51257.19713-2.96239-.32665-4.35697-.73381z" fill="#e4c900" stroke="#806600" stroke-width=".466507"/><path d="m783.74369 614.99546s3.5466-1.86583 5.42998-2.7966c2.96956-1.46756 8.16054-1.85476 9.46537-4.89934 0 0 .36901-.67607.24826-1.61366-.18076-1.40368-2.62799-2.56408-1.86192-4.09622l.62064-1.24128s2.60311 1.12023 3.35145 1.98605c.60801.70347.69545 1.87472 1.48954 2.35843.8158.49693 2.85494.24826 2.85494.24826l1.24128 3.5997s1.89002-.0156 2.60668.8689c.21.25918.24967.68396.12413.99302-.19942.49091-1.34743.61558-1.84743.79097-.97609.34239-2.48256-.76199-2.48256-.76199s.52265 2.44146.26542 3.23248c-.17747.54673-.8689 1.48954-.8689 1.48954-.54896-.93281-.90586-1.38664-3.3831-2.64082 0 0-.29861 2.08127-.96385 3.38806-.30786.60476-1.24128 1.61366-1.24128 1.61366s-.56577-1.14853-.99302-1.61366c-.80053-.87152-3.13237-1.27789-3.13237-1.27789s-.45921 2.55333-1.11468 3.91375c-.24162.50149-.65476 1.24128-.65476 1.24128s-.44707-1.17177-.8689-1.61367c-.49976-.52355-1.86192-1.11715-1.86192-1.11715l-4.80933 3.97209s-.72748 2.35003-1.85945 3.10568c-.65475.43708-1.00478.22351-1.71109-.12413-.34226-.16846-.64954-.49951-.74477-.8689-.30588-1.18652.46734-2.67494.46734-2.67494s-2.58694 1.0142-4.28861.53065c-.6479-.18411-1.45587-.6927-1.48953-1.36541-.0776-1.55117 2.17843-3.0132 2.17843-3.0132s-2.54764-.59862-3.60467-2.04935c-.34458-.47292-.58909-1.26216-.24826-1.73779.39233-.5475 1.32551-.50413 1.98605-.37239 1.2605.2514 1.83441 1.7531 3.10816 1.92523z" fill="#ffe66f" transform="translate(-265.2681 -795.8822)"/><path d="m535.01721-185.57436c-6.25039-.32088-11.13489 2.7033-16.12782 6.07203 6.40461.0294 11.31168-2.1084 16.12782-6.07203z" fill="#ffefa7"/><g fill="#377bc8" stroke="#2c5aa0" stroke-width=".466507"><path d="m506.62733-185.27348c1.17058.54134 1.58208 1.51344 1.17721 2.63769-.20123.55879-.7321.98239-1.7135 1.10533-1.48317-1.51766-2.24143-1.8776-4.54476-1.79093 2.7811-2.43826 4.14712-1.59055 5.08105-1.95209z"/><path d="m507.76823-176.49253c1.28908-.0398 2.09215.64527 2.2333 1.83183.0702.58976-.21497 1.20617-1.03756 1.75537-2.00559-.69331-2.84476-.6758-4.8657.43264 1.39565-3.42517 2.99662-3.27852 3.66996-4.01984z"/><path d="m514.67552-170.36107c1.08054-.70409 2.12271-.53622 2.86005.40409.36649.46736.44329 1.14217.026 2.03891-2.07374.45018-2.78154.90132-3.93187 2.89873-.58806-3.65155.85587-4.35843 1.04578-5.34173z"/></g></g><path d="m2249.9188-62.029605s-.4746 8.898602-4.1913 11.176653c-1.6005.981023-3.842 1.387623-5.5883.698537-1.6916-.667533-2.8736-2.481263-3.4927-4.191243-.3963-1.094691-1.0478-3.841973-1.0478-3.841973s-5.682-2.599414-8.7317-2.794149c-4.4894-.286656-13.2723 2.44488-13.2723 2.44488 1.4994-4.661623 5.5339-8.478244 9.7796-12.224458l14.6693-1.047806z" fill="#efd300" stroke="#806600" stroke-width=".909091"/><g stroke-width=".466507"><g transform="matrix(1.9487171 0 0 1.9487171 1190.944 329.39578)"><path d="m563.75526-231.2181c2.15718-.23696 6.58612-1.11631 8.07317-2.56934.69312-.67726 2.63614-2.56934 2.63614-2.56934-.41182 4.27162-2.60181 7.04054-7.24938 8.91712-3.7084 1.49738-7.98921 1.84379-12.02738 1.51138-2.5428-.20932-7.24938-1.51137-7.24938-1.51137 2.58193 2.76763 1.26975 4.72109-1.97711 6.0455 0 0 .4811-2.65054-.49427-3.02275-2.1035-.80273-4.47504.24322-6.70877 1.47167-1.64994.90739-4.14817 1.3305-5.83086 1.312-2.80325-.0308-4.35684-.0632-6.97846-.97435-1.58105-.54947-4.32378-2.64564-5.48581-2.43738-2.50853.44958-5.67679.70236-7.10404 2.64742-.49587.67576-.43506 1.73365 0 2.44378.97619 1.5934 3.16864 2.42539 5.10603 2.85106 5.76196 1.26597 10.46461 1.25759 16.1513.45375 5.86103-.82848 12.7049-2.48761 18.56461-3.48895 5.80839-.99257 13.29688-2.86805 17.6986-3.77447 7.7794-1.60198 11.26943-1.82252 17.09057-1.73732 10.19523.14928 13.53318 5.11468 13.22273 10.5339-.31894 5.56719-6.46247 8.08804-11.72245 9.6499-9.24807 2.74607-21.9464 1.1822-29.92654.99461 0 0 2.67525 2.05513 3.88888 2.99465 1.42168 1.10058 2.13222 3.40224 3.88889 3.96376 2.40941.77017 6.0947-.75677 8.64196-.89185 3.56177-.18887 9.61417.19819 9.61417.19819.92665-.86565 1.52711-1.46657 2.49013-1.72564.69053-.18618 1.77741-.19618 2.33173-.002 1.0968.38421 1.83467 1.56777 1.37473 3.7709 0 0 .76006.97647 1.91999 1.20144 1.22799.23859 2.66197.0281 3.36179.23059 1.1544.33392 3.02382 1.38691 3.02382 1.38691s-1.98151.57582-2.806 1.03658c-.56434.31539-1.31738 1.35899-1.31738 1.35899s2.71461.043 3.84848.50434c1.21454.49417 2.33659 1.89124 2.33659 1.89124s-1.63443-.10619-2.4134.34488c-.5955.34483-1.57253 1.2942-1.57253 1.2942s3.17746-.23688 4.26081.63041c.9591.76782 2.0617 2.14342 2.0617 2.14342s-1.71433-.0332-2.52592.18105c-.52797.13939-1.46002.70153-1.46002.70153s2.19646 1.0503 3.16126 2.26949c.77071.97393.96212 3.15207.96212 3.15207s-1.29343-.8892-2.08816-1.21571c-.49696-.2042-1.62288-.1712-1.62288-.1712l.51458 4.47186c.12653 1.09958 1.80713 2.29011 2.107 3.14081.37815 1.07278.28342 1.47589-.39506 2.41601-.86862 1.204-2.66271 1.44987-4.21399 1.208-.85597-.13346-2.05879-1.1243-2.05879-1.1243s-.87586 1.484-1.46618 1.93899c-.98853.7619-1.41407.66557-2.70426.62017-.98952-.0349-1.8701-.20564-2.55494-.86177-.78831-.75526-1.3345-3.01621-1.3345-3.01621l-3.04229.55169c-.66066.1198-2.66299-.80446-2.88622-1.3873-.46783-1.22146-.51317-2.45613.39506-3.44709.86236-.94091 3.24715-.98993 4.46233-1.5081 1.55697-.66391 3.05317-2.58532 3.05317-2.58532s-5.08262-3.58644-7.28064-5.81697c-1.20859-1.22647-3.28803-4.09342-3.28803-4.09342s-6.481 1.79067-8.92468 2.15444c-6.02749.89727-12.44755 0-12.44755 0-9.21323 0-15.34329-12.97952-23.72081-15.9428-2.55655-.9043-3.75997-.76274-6.43425-.21544-9.70744 1.98665-20.07043 13.271-29.68761 15.59793-3.9479.95522-12.21269 1.29267-12.21269 1.29267s-1.35328 2.67362-2.633 3.4369c-1.39172.83009-4.8859.88435-4.8859.88435s-.89365 3.19699-1.91731 4.41162c-1.06955 1.26908-4.00874 2.49894-4.00874 2.49894.43423-1.45826.69283-2.57467.0791-4.41746 0 0-1.4613 2.5509-2.88234 3.75864-1.23717 1.05148-4.25557 2.35092-4.25557 2.35092.24218-1.35999.93465-2.65113 0-4.19104 0 0-1.24229 2.5771-2.32233 3.5293-1.07816.95055-3.92964 1.98522-3.92964 1.98522.55239-1.47054.90537-2.94107 0-4.41161 0 0-1.18127 2.64234-2.24004 3.52929-1.46182 1.22459-4.97696 2.56566-4.97696 2.56566.59288-1.51697 1.16315-3.03393.72457-4.55089l-2.39085-.004c-2.88635-.005-3.0703 2.4257-4.4142 3.53224-1.31986 1.08676-3.46407 1.1112-4.49146.77257-1.81228-.59735-3.42335-2.69745-1.22331-5.78411-3.80544.40567-5.78844-1.97038-5.77891-4.08444.009-2.03099.75007-3.824 4.58811-3.60714 0 0-.49612-1.75878-.30258-2.68434.26941-1.28832 1.37502-2.40654 2.871-2.28132.6151.0515 1.75656.45226 2.27883 1.01306.82604.887 1.05379 2.17788 2.42761 3.14072 1.55542 1.09011 5.25437 1.0019 5.25437 1.0019s7.18866-3.87783 11.93038-5.44242c2.52298-.83249 9.68826-2.09074 9.68826-2.09074l.22454-17.54565c4.30578.26492 2.45402.30208 6.09536.19364 5.23047-.15576 18.97134 1.95801 18.97134 1.95801l9.78371-.66736s16.31929-2.45419 24.08298-3.22174c3.91111-.38665 7.86317-.66464 11.79062-.46025 5.91583.30786 10.9966 1.77067 16.55705 2.07112 4.67544.25263 7.86885.7282 12.54322.46024 6.67408-.38258 18.60448.0664 22.39566-5.94875.98389-1.56105.47868-3.69934-.98972-4.90159-1.9374-1.58624-3.31496-2.18359-5.8989-1.63834-1.36279.28757-3.09565 1.24173-3.26556 2.4158-.0921.63646.0233 1.43208.60582 2.18371 1.00141 1.2923 2.13304 1.68156 2.13304 1.68156s-2.89526.38777-4.21362-.57979c-1.38754-1.01833-2.63351-4.2518-2.63351-4.2518-.65235.82531-1.13199 1.72984-1.02208 2.90477.0947 1.01262-.004 1.6463 1.23276 3.18303 0 0-3.06294-.19621-4.52964-1.73938-.98579-1.03718-1.7908-4.15516-1.7908-4.15516-.86907.7868-1.39949 2.06092-1.43655 3.00036-.0535 1.35665.58766 1.95175.90981 3.37733 0 0-3.01913-.81393-4.21362-2.31915-.92691-1.16805-1.42142-4.23607-1.42142-4.23607-3.47318.7941-10.10263 1.9168-17.32206 3.33898-5.08608 1.00193-12.85355 2.54172-18.34316 3.17464-9.42758 1.08695-16.29126.52446-22.08668-1.73181-3.01591-1.17414-4.37474-2.30357-5.1522-4.96985-.44129-1.5134.20873-3.65735 1.7057-5.32653 2.08694-2.32703 5.71193-4.0689 9.76102-4.98932 0 0 10.72429-2.64146 16.97016-3.17389 10.01437-.85368 14.08651.43014 18.27167.91368 2.71977.31424 5.64611-.20125 6.50246-1.13904.72068-.78921 1.91297-1.63973.30664-3.54266 0 0 2.03532.0372 3.38666 2.33001.55193.93644-.12894 3.10052-.12894 3.10052z" fill="#fee46e"/><g fill="#e4c900"><path d="m602.57754-173.56064c.37815 1.07278 1.23218 3.42613.5537 4.36625-.86862 1.204-2.66271 1.44988-4.21399 1.20799-.85597-.13346-2.05879-1.12429-2.05879-1.12429s-.87586 1.48399-1.46618 1.93899c-.98853.76189-1.41407.93925-2.70426.89386-.98952-.0349-1.8701-.47932-2.55494-1.13546-.78831-.75526-1.3345-3.01621-1.3345-3.01621l-3.04229.55168c-.66066.11981-2.66299-.80445-2.88622-1.3873-.46783-1.22146-.51317-2.45613.39506-3.44709.86236-.9409 3.24715-.98993 4.46233-1.5081 1.55697-.66392 3.05317-2.58531 3.05317-2.58531s-5.08262-3.58644-7.28064-5.81698c-1.20859-1.22646-3.28803-4.09341-3.28803-4.09341s-6.481 1.79067-8.92468 2.15443c-6.02749.89727-8.29837 0-12.44755 0-9.21323 0-15.34329-12.97951-23.72081-15.94279-2.55655-.9043-3.75997-.76275-6.43425-.21545-9.70744 1.98666-20.07043 13.27101-29.68761 15.59793-3.9479.95523-12.21269 1.29268-12.21269 1.29268s-1.35328 2.67361-2.633 3.43689c-1.39172.83009-4.8859.88435-4.8859.88435s-.89365 3.19701-1.91731 4.41162c-1.06955 1.26909-4.00874 2.49895-4.00874 2.49895.43423-1.45826.69283-2.57468.0791-4.41745 0 0-1.4613 2.55088-2.88234 3.75863-1.23717 1.05148-4.25557 2.35092-4.25557 2.35092.24218-1.36.93465-2.65113 0-4.19105 0 0-1.24229 2.57711-2.32233 3.52931-1.07816.95055-3.92964 1.98522-3.92964 1.98522.55239-1.47054.90537-2.94107 0-4.4116 0 0-1.18127 2.64233-2.24004 3.52927-1.46182 1.2246-4.97696 2.56566-4.97696 2.56566.59288-1.51696 1.16315-3.03392.72457-4.55089l-2.39085-.004c-2.88635-.005-3.0703 2.4257-4.4142 3.53224-1.31986 1.08676-3.46407 1.11121-4.49146.77258-1.81228-.59735-3.42335-2.69745-1.22331-5.78412-3.80544.40567-5.78844-1.97037-5.77891-4.08443.009-2.03099.75007-3.82401 4.58811-3.60714 0 0-.49612-1.75878-.30258-2.68434.26941-1.28832 2.19964-.93861 2.871-2.28133.059-.11795 1.58919 1.11338 1.26429 2.67158-.22318 1.07036-1.63721 1.91353-1.88195 2.32772-.5369.90864.65305 1.92927.65305 1.92927s-2.57111-.97141-4.13186-.51055c-.56353.1664 1.47867-.0447 1.67937 2.10474.21308 2.28221-1.51492 1.8544-.59573 2.03466 1.59076.31196 4.93522.21771 4.93522.21771.0803 0-3.23256 3.88642-2.24988 3.38607.6431-.32745 1.54054-.025 2.00755.48181.41446.44982.85504 1.25523.27491 2.12348-.37848.56646.60016.27948 1.05608-.21773 2.1187-2.31056 3.35515-4.90722 6.53192-5.41075.96623-.15315 2.39796.13307 3.12081.79835.77285.71129.79834 3.04823.79834 3.04823s1.23715-1.29645 1.74185-2.03214c.80826-1.17818 2.03215-3.77399 2.03215-3.77399s1.78166 1.98582 2.46762 3.1208c.24649.40783.58061 1.30639.58061 1.30639s1.27327-1.72682 1.74185-2.68535c.55106-1.12726 1.23381-3.55627 1.23381-3.55627s1.69038 1.96688 2.24988 3.12081c.30736.63391.58062 2.03215.58062 2.03215s2.05473-2.33287 2.75792-3.70142c.54547-1.0616 1.08865-3.41111 1.08865-3.41111s2.02308 1.50116 2.68535 2.54019c.45232.70964.79834 2.39504.79834 2.39504s1.3403-2.13324 1.52412-3.26597c.20151-1.24175.14516-3.55626.14516-3.55626s3.46027 1.56077 5.0078.87092c1.74728-.77889 3.04823-4.86265 3.04823-4.86265s9.58286-.2487 14.06152-1.7494c2.93088-.98206 6.87921-3.32736 9.62632-4.74436 0 0 9.71244-6.66373 15.90959-8.86476 2.47777-.88002 5.69007-1.61374 8.30354-1.32469 3.59406.3975 6.11515 2.66443 9.14729 4.63455 4.76393 3.09535 7.99874 8.69885 13.20929 10.96298 2.92228 1.26982 7.40979 1.37599 10.59381 1.2569 5.33921-.19971 14.88738-2.67695 14.88738-2.67695s2.32878 4.08508 4.27127 6.05091c2.41755 2.4466 7.70706 6.14009 7.70706 6.14009s-1.64943 2.72182-3.01046 3.55781c-1.48763.91376-3.15888 1.20442-4.72093 1.98416-.29291.14621 1.16618-.0842 1.3973.7673.19714.72634-.28383 1.31544.45002 1.14844 1.23335-.28068 2.94204-.95787 2.94204-.95787s-.28469 1.51574.26252 2.4195c1.74331-.64858 3.72048-.39435 3.83454 2.11188.74484-.35537.44509-1.02847.82913-1.52093l.75261-2.59993s.39076 1.30017 1.83616 2.05257c.99726-2.08095 4.131-2.06912 5.07623.16269-.37489-.313-.32878-3.30733-.32878-3.30733z"/><path d="m737.87832 606.58213s1.40824 2.65145 3.21654 3.72887c.81128.48338 2.5551 1.23539 2.5551 1.23539l.35668-2.77557s1.61895-.61945 2.62641-1.16731c1.00747-.54785 3.35599-2.18868 3.35599-2.18868l.43774 2.48051s5.40814-2.65185 7.58743-4.66919c1.45641-1.34818 2.86813-2.93439 3.5019-4.8151.73017-2.16676.14591-6.85788.14591-6.85788l-14.76375.51863-3.35793 12.79209-5.66198 1.71824z" transform="translate(-265.2681 -795.8822)"/><path d="m600.90469-179.22313s1.12592-.033 1.62288.1712c.79473.32651 2.08816 1.21571 2.08816 1.21571s-.19141-2.17814-.96212-3.15207c-.9648-1.21918-3.16126-2.26949-3.16126-2.26949s.93205-.56214 1.46002-.70152c.81159-.21426 2.52592-.18106 2.52592-.18106s-1.1026-1.37559-2.0617-2.14342c-1.08335-.86729-4.26081-.63041-4.26081-.63041s.97703-.94937 1.57253-1.2942c.77897-.45107 2.4134-.34488 2.4134-.34488s-1.12205-1.39707-2.33659-1.89123c-1.13387-.46135-3.84848-.50435-3.84848-.50435s.75304-1.0436 1.31738-1.35898c.82449-.46077 2.806-1.03659 2.806-1.03659s-1.86942-1.05298-3.02382-1.3869c-.69982-.2025-2.1338.008-3.36179-.2306-1.15993-.22496-1.91999-1.20144-1.91999-1.20144.45994-2.20313-.27793-3.38668-1.37473-3.7709-.55432-.19418-1.6412-.18419-2.33173.002-.96302.25906-1.56348.85998-2.49013 1.72564 0 0-6.0524-.38706-9.61417-.1982-2.54726.13508-6.23255 1.66203-8.64196.89186-1.75667-.56153-2.46721-2.86319-3.88889-3.96377-1.21363-.93951-3.88888-2.99465-3.88888-2.99465-2.96866-3.55827-3.22179-4.04513-8.38248-5.75423-3.30595-.60202-2.5948-.29552-6.23947-.48519-3.92745-.20439-7.87951.0736-11.79062.46025-7.76369.76755-24.08298 3.22173-24.08298 3.22173l-9.78371.66736s-13.74087-2.11377-18.97134-1.95801c-3.64134.10845-1.78958.0713-6.09536-.19364l-.0378 2.95701s8.42593 1.83327 12.93579 2.2763c4.35769.42808 8.36168.31332 12.73848.18521 8.1831-.23953 16.95903-3.29854 25.09518-4.20609 6.5162-.72685 13.72165-1.781 19.6506-.86949 4.98023.76564 6.89094 2.40914 11.18644 5.04307 3.61279 2.21529 7.27663 8.17326 12.11604 8.17326 0 0 2.73656-.13932 4.52139-.3478 2.24837-.26262 3.82979-1.03952 6.08646-1.21729 3.07144-.24196 7.29571.26872 7.29571.26872 1.99016-2.31861 3.00792-2.36514 3.57968-2.07003 1.25917.64989 1.43042 2.08731.29639 3.54337 1.25193.78767 2.05215 2.0811 5.86259 1.89706-1.67766 1.22056-2.18464 1.8294-2.87445 3.3322 1.43028-.43081 2.92982-.0205 5.0706.54342-1.51459 1.18447-1.9324 2.36231-2.45597 3.40521 1.42189-.1695 2.48495.11417 5.03972.51111-1.45776.69779-2.55373 1.02947-2.79861 1.99679 1.66456.86764 1.51029.52568 3.93182 2.40261-1.53871.18281-2.47815.18501-3.07806 1.1725l2.93479 4.26878z"/><path d="m557.48058-204.78789 10.96999.56546 9.1605.11309h5.76772c6.6327-1.33707 14.35883-2.79888 17.52935-9.49978l.1131-4.97607c-.28789 2.95891-1.52848 5.27979-3.47575 7.03428-9.23152 8.31762-29.83852 5.53922-39.72562 2.69169l-6.89866-.90475z"/><path d="m571.17728-221.20833c-7.26233.59556-25.52232 5.61391-39.55518 6.78172-7.49678.62388-15.68168.21212-20.40532-2.57247-2.0815-1.22705-3.4909-2.91486-3.87315-5.17784l-.69517 2.64164 2.22454 3.47585 5.00523 2.36358 9.45431 1.80744 10.28851-.8342 5.83943-.55614 30.7265-5.83943z"/><path d="m571.16298-221.39165c.16289 2.87421.80056 4.08666 1.4527 5.24849.83126-1.81198 1.51426-3.99885 4.12382-5.81082.77354 1.99942 1.35568 4.37374 2.62424 6.37316.62029-2.26483.74038-5.02178 2.99914-6.9355.81886 1.88835 1.55386 4.19597 2.48365 5.52965-.0201-1.43708-.17314-3.15534 1.64016-4.59242 7.09128-3.78999 16.55817 3.20054 9.70033 8.01331l.0937.0469.6092-2.10877-.65606-2.62425-2.15563-1.68701-2.76483-.89037-3.56147.70292-1.54643 1.59329.46862 1.96819 2.34307 2.20249-3.79578-.28117-1.68702-1.17154-1.4527-3.09286-.89037 1.73388.0937 2.34307 1.17154 1.78074-2.85855-.6092-2.10877-1.45271-1.54643-3.65519-1.07781 1.26526-.42176 1.96818 1.07782 2.90541-2.76483-1.03095-2.06191-2.15563-.70292-3.46775-4.12381.98409c1.51902-.97896-1.4402-1.00392 5.29539-3.09289z"/><path d="m520.82057-225.42654 6.30052 3.05182 6.30052.78756 3.93783-.68912 4.33161-2.1658 3.4456-.19689.98445 1.27979.0985 2.26425 2.26425-1.87047.59067-1.57513-.68912-2.75648 4.62695 1.18135 5.90674.39378 6.10363-.98445 5.41451-2.16581 2.65804-2.75648 1.37823-4.72539s-2.91229 4.09318-5.02072 5.31607c-2.65756 1.54139-5.90793 2.39295-8.95856 2.75647-2.96521.35335-5.99037-.2633-8.95856-.59067-3.44234-.37966-8.56477-2.26425-8.56477-2.26425 1.03907 1.5095 2.09105 3.01901 2.3627 4.52851 0 0-3.23997-.71294-4.94754-.24739-1.34618.36702-3.90003 1.39506-5.20244 1.89571-2.02182.77719-5.26789-.0141-7.41876-.27013-2.22082-.26435-3.00109-1.24533-4.99802-.71437l-1.94621.51748z"/></g><path d="m515.53087-228.61752s3.23328.48514 4.85534.40461c4.82839-.2397 9.47013-1.99473 14.26255-2.62997 2.88408-.38229 5.79124-.79816 8.69915-.70807 3.77952.11709 7.44932 1.4758 11.22797 1.61844 1.99248.0752 4.17033.45794 5.96801-.40461 1.03269-.49549 2.06235-1.41429 2.32652-2.52882.28307-1.19425-1.01153-3.54035-1.01153-3.54035l.10115.10115-.50576 1.82075-2.32652 1.92191-2.73112.70807-4.55188-.40461-6.8784-.80923h-7.68761l-8.598 1.01153-8.39569 1.7196z" fill="#fff1a1"/><path d="m564.29087-222.69517c13.68697 2.01547 30.16541-6.54381 36.33532 5.12797l-.14651-.14652.0496-1.90467-2.68683-3.36981-4.10238-1.93774-7.6187-.83575-9.96291.7223-11.86758 2.34422z" fill="#fff1a1"/><path d="m444.79468-187.75261s.52172 3.72862 1.8071 4.90499c1.57842 1.44456 6.19579 1.67803 6.19579 1.67803s6.70771-3.92628 10.3263-5.29223c2.94844-1.11298 6.09693-1.60134 9.1646-2.32342.98578-.23204 2.96882-.6454 2.96882-.6454s.52861-3.35704.38723-5.03407c-.13412-1.59097-1.16171-4.64684-1.16171-4.64684l-.77447 8.13197-8.13197 1.67802-7.22841 2.71066-5.67947 3.35605-5.67947-1.29079z" fill="#e4c900"/><path d="m563.75526-231.21814c2.15718-.23696 6.58612-1.11632 8.07317-2.56935.69312-.67726 2.63614-2.56934 2.63614-2.56934-.41182 4.27162-2.60181 7.04054-7.24938 8.91712-3.7084 1.49738-7.98921 1.84379-12.02738 1.51138-2.5428-.20931-7.24938-1.51137-7.24938-1.51137 2.58193 2.76763 1.26975 4.7211-1.97711 6.0455 0 0 .4811-2.65053-.49427-3.02274-2.1035-.80273-4.47504.24321-6.70877 1.47167-1.64994.90739-4.14817 1.33049-5.83086 1.312-2.80325-.0308-4.35684-.0632-6.97846-.97436-1.58105-.54946-4.32378-2.64563-5.48581-2.43737-2.50853.44957-5.67679.70236-7.10404 2.64742-.49587.67575-.43506 1.73365 0 2.44377.97619 1.5934 3.16864 2.42539 5.10603 2.85107 5.76196 1.26596 10.46461 1.25758 16.1513.45374 5.86103-.82847 12.7049-2.4876 18.56461-3.48894 5.80839-.99257 13.29688-2.86806 17.6986-3.77448 7.7794-1.60197 11.26943-1.82251 17.09057-1.73732 10.19523.14928 13.53318 5.11469 13.22273 10.53391-.31894 5.56718-6.46247 8.08803-11.72245 9.6499-9.24807 2.74607-21.9464 1.18219-29.92654.9946 0 0 2.67525 2.05514 3.88888 2.99465 1.42168 1.10058 2.13222 3.40224 3.88889 3.96377 2.40941.77017 6.0947-.75678 8.64196-.89186 3.56177-.18886 9.61417.1982 9.61417.1982.92665-.86566 1.52711-1.46658 2.49013-1.72564.69053-.18619 1.77741-.19618 2.33173-.002 1.0968.38422 1.83467 1.56777 1.37473 3.7709 0 0 .76006.97648 1.91999 1.20144 1.22799.2386 2.66197.0281 3.36179.2306 1.1544.33392 3.02382 1.3869 3.02382 1.3869s-1.98151.57582-2.806 1.03659c-.56434.31538-1.31738 1.35898-1.31738 1.35898s2.71461.043 3.84848.50435c1.21454.49416 2.33659 1.89123 2.33659 1.89123s-1.63443-.10619-2.4134.34488c-.5955.34483-1.57253 1.2942-1.57253 1.2942s3.17746-.23688 4.26081.63041c.9591.76783 2.0617 2.14342 2.0617 2.14342s-1.71433-.0332-2.52592.18106c-.52797.13938-1.46002.70152-1.46002.70152s2.19646 1.05031 3.16126 2.26949c.77071.97393.96212 3.15207.96212 3.15207s-1.29343-.8892-2.08816-1.21571c-.49696-.2042-1.62288-.1712-1.62288-.1712l.51458 4.47186c.12653 1.09959 1.80713 2.29012 2.107 3.14081.37815 1.07278.28342 1.4759-.39506 2.41602-.86862 1.20399-2.66271 1.44987-4.21399 1.20799-.85597-.13346-2.05879-1.12429-2.05879-1.12429s-.87586 1.48399-1.46618 1.93899c-.98853.76189-1.46522.97247-2.75541.92707-.98952-.0349-1.81895-.51254-2.50379-1.16868-.78831-.75526-1.3345-3.01621-1.3345-3.01621l-3.04229.55169c-.66066.11981-2.66299-.80445-2.88622-1.3873-.46783-1.22146-.51317-2.45613.39506-3.44709.86236-.94091 3.24715-.98992 4.46233-1.5081 1.55697-.66391 3.05317-2.58532 3.05317-2.58532s-5.08262-3.58643-7.28064-5.81697c-1.20859-1.22646-3.28803-4.09342-3.28803-4.09342s-6.481 1.79068-8.92468 2.15444c-6.02749.89727-12.44755 0-12.44755 0-9.21323 0-15.34329-12.97952-23.72081-15.9428-2.55655-.9043-3.75997-.76273-6.43425-.21544-9.70744 1.98666-20.07043 13.271-29.68761 15.59793-3.9479.95522-12.21269 1.29267-12.21269 1.29267s-1.35328 2.67362-2.633 3.4369c-1.39172.83009-4.8859.88435-4.8859.88435s-.89365 3.197-1.91731 4.41162c-1.06955 1.26909-4.00874 2.49894-4.00874 2.49894.43423-1.45826.69283-2.57467.0791-4.41745 0 0-1.4613 2.55089-2.88234 3.75863-1.23717 1.05149-4.25557 2.35093-4.25557 2.35093.24218-1.36.93465-2.65114 0-4.19105 0 0-1.24229 2.5771-2.32233 3.52931-1.07816.95054-3.92964 1.98521-3.92964 1.98521.55239-1.47053.90537-2.94107 0-4.4116 0 0-1.18127 2.64234-2.24004 3.52928-1.46182 1.2246-4.97696 2.56566-4.97696 2.56566.59288-1.51697 1.16315-3.03392.72457-4.55089l-2.39085-.004c-2.88635-.005-3.0703 2.4257-4.4142 3.53224-1.31986 1.08676-3.46407 1.11121-4.49146.77257-1.81228-.59735-3.42335-2.69745-1.22331-5.78411-3.80544.40567-5.78844-1.97037-5.77891-4.08443.009-2.031.75007-3.82401 4.58811-3.60715 0 0-.49612-1.75878-.30258-2.68434.26941-1.28832 1.37502-2.40654 2.871-2.28132.6151.0515 1.75656.45227 2.27883 1.01306.82604.887 1.05379 2.17788 2.42761 3.14072 1.55542 1.09011 5.25437 1.0019 5.25437 1.0019s7.18866-3.87783 11.93038-5.44242c2.52298-.83249 9.68826-2.09073 9.68826-2.09073l.22454-17.54566c4.30578.26492 2.45402.30209 6.09536.19364 5.23047-.15576 18.97134 1.95801 18.97134 1.95801l9.78371-.66736s16.31929-2.45418 24.08298-3.22173c3.91111-.38666 7.86317-.66465 11.79062-.46025 5.91583.30786 10.9966 1.77067 16.55705 2.07111 4.67544.25263 7.86885.72821 12.54322.46024 6.67408-.38257 18.60448.0664 22.39566-5.94875.98389-1.56105.47868-3.69934-.98972-4.90158-1.9374-1.58625-3.31496-2.18359-5.8989-1.63835-1.36279.28758-3.09565 1.24174-3.26556 2.41581-.0921.63645.0233 1.19776.60582 1.94939 1.00141 1.29231 2.13304 1.91587 2.13304 1.91587s-3.36388.15347-4.68224-.81409c-1.38754-1.01833-2.16489-4.01749-2.16489-4.01749-.65235.8253-1.13199 1.72984-1.02208 2.90477.0947 1.01262-.004 1.6463 1.23276 3.18302 0 0-3.06294-.1962-4.52964-1.73938-.98579-1.03717-1.7908-4.15516-1.7908-4.15516-.86907.78681-1.39949 2.06092-1.43655 3.00036-.0535 1.35666.58766 1.95176.90981 3.37733 0 0-3.01913-.81393-4.21362-2.31914-.92691-1.16806-1.42142-4.23607-1.42142-4.23607-3.47318.79409-10.10263 1.91679-17.32206 3.33898-5.08608 1.00193-12.85355 2.54171-18.34316 3.17463-9.42758 1.08695-16.29126.52447-22.08668-1.73181-3.01591-1.17414-4.37474-2.30356-5.1522-4.96984-.44129-1.51341.20873-3.65736 1.7057-5.32654 2.08694-2.32702 5.71193-4.0689 9.76102-4.98932 0 0 10.72429-2.64146 16.97016-3.17389 10.01437-.85368 14.08651.43014 18.27167.91368 2.71977.31424 5.64611-.20125 6.50246-1.13904.72068-.78921 1.91297-1.63973.30664-3.54266 0 0 2.03532.0372 3.38666 2.33001.55193.93644-.12894 3.10052-.12894 3.10052z" fill="none" stroke="#806600" stroke-width=".466507"/><path d="m492.12482-190.68983c12.44948-.2103 22.27166-11.10341 30.72974-14.4173-17.60794 5.76181-22.12661 5.54267-24.3572 7.62135-.94342.87918-.97782 2.04965-1.84003 3.26696-.8571 1.21009-2.53883 2.46647-4.53251 3.52899z" fill="#ffefa7"/><path d="m575.07069-192.03594c-17.91177 1.16697-19.03137-13.25823-36.91527-14.99329 15.16749 8.11557 16.99057 20.4386 36.91527 14.99329z" fill="#fff1a1"/><path d="m583.00424-193.17324c1.79497 5.9957 6.28277 9.5823 11.13152 13.15543-2.12126-6.04318-5.78167-9.94846-11.13152-13.15543z" fill="#fff1a1"/><g fill="#377bc8" stroke="#2c5aa0" stroke-width=".466507"><path d="m582.90623-173.0997c1.20596-.45712 2.18826-.0706 2.70782 1.00547.25823.53484.18919 1.21048-.40993 1.99745-2.12205-.003-2.90985.28661-4.46015 1.99232.20521-3.69291 1.76677-4.07517 2.16226-4.99524z"/><path d="m589.88777-168.72004c.89979-.92394 1.95341-.98877 2.87905-.23307.46006.37559.68302 1.01712.47261 1.98355-1.92451.89407-2.51611 1.48948-3.20032 3.69055-1.37467-3.43365-.12095-4.44003-.15134-5.44103z"/><path d="m598.51861-169.35051c.62765-1.12665 1.62789-1.46405 2.71859-.97596.54211.24259.92468.80375.97364 1.79161-1.62468 1.36511-2.0405 2.09422-2.12691 4.39756-2.2227-2.95623-1.27488-4.25478-1.56532-5.21321z"/><path d="m440.98106-188.38549c1.16873.54532 1.57692 1.51882 1.16813 2.64173-.20314.5581-.73545.9799-1.71726 1.09949-1.478-1.52271-2.23502-1.88522-4.53864-1.80639 2.78939-2.42878 4.15251-1.57642 5.08767-1.93478z"/><path d="m436.15079-181.66409c1.28911.0387 2.04901.77138 2.11769 1.96435.0342.59291-.28797 1.19084-1.14244 1.68897-1.9597-.81407-2.79836-.84765-4.88302.13576 1.60149-3.33391 3.19057-3.09011 3.90777-3.78908z"/><path d="m439.99383-173.3802c1.1489-.58595 2.1675-.30892 2.80136.70405.315.50349.32012 1.18261-.18956 2.03024-2.10971.22855-2.86121.60238-4.21616 2.46704-.19892-3.69326 1.31162-4.2436 1.60436-5.20133z"/></g><path d="m473.16657-186.89459c-8.21256-.54642-13.08288 2.9419-19.78868 6.7508 8.4272.20931 13.29167-2.24035 19.78868-6.7508z" fill="#ffefa7"/></g><g transform="matrix(1.8738887 .53482666 -.53482666 1.8738887 792.15483 -42.815753)"><path d="m667.65197-206.38465c2.17417.62169 3.77229-1.46215 4.14611-1.73487 0 0-1.05996-.36458-2.0813-1.67625-.6866-.8818-1.32841-2.60306-1.60111-3.41795-1.01306-3.02681.0744-3.85147.18043-3.63081 0 0 1.83273-1.27616 2.48995-2.16562.62328-.84221.68772-2.01419.62753-3.05965-.0903-1.56812-1.28919-3.56774-1.28919-3.56774-3.00046.67188-3.63947 1.27678-4.07301 2.37774 0 0-.49091-1.48867-1.29367-2.74706-.40014-.62724-1.16362-1.51324-1.83618-2.03593-.69126-.53725-1.28635-.70266-1.28635-.70266.20494.78744-.2941 1.70266-.49785 2.35094 0 0-1.15447-2.91006-2.21231-3.77009-.81594-.66339-2.73015-1.3104-2.71744-1.31032.0129.00039-1.78756.62325-2.61197 1.27606-1.06875.84639-2.26063 3.74135-2.26063 3.74135-.19541-.65083-.6826-1.57242-.46754-2.35715 0 0-.59719.15772-1.29528.68607-.67922.514-1.45408 1.39012-1.8622 2.01215-.81885 1.24798-1.3289 2.73021-1.3289 2.73021-.38659-1.16989-.9843-1.73647-4.04211-2.42989 0 0-1.22448 1.98405-1.33488 3.55088-.0737 1.04462-.0233 2.21733.58815 3.06746.64571.89783 2.46191 2.19746 2.46191 2.19746.10878-.21929 1.18557.61929.13372 3.63283-.28315.81131-.94701 2.52417-1.64492 3.39707-1.03809 1.29844-2.10267 1.64936-2.10267 1.64936 1.14589 1.52304 1.52501 2.17194 4.12348 1.78802-4.53815 5.72474-3.32089 12.44384 2.64951 16.75942.0948-.74991.63997-2.54689 1.0516-3.29475-.0753-.0307.9917 3.19557 3.09523 4.39324.68254.38858 1.79645 3.31696 2.82963 4.04312.94251.66246 2.18864 1.31994 2.18864 1.31994s.08-2.59747 1.08788-3.28636c1.01496-.6938 2.93885-1.89078 3.56772-2.30598 1.26565-.83563 2.89684-4.50625 2.89684-4.50625l.59916 3.74834c6.74884-4.80489 7.00754-10.39212 3.12198-16.72232z" fill="#fee46e"/><path d="m644.79197-216.04285c-.28315.81131-1.55113 5.19956-2.24904 6.07246-1.03809 1.29844-2.10267 1.64936-2.10267 1.64936 1.14589 1.52304 1.52501 2.17194 4.12348 1.78802-4.53815 5.72474-3.32089 12.44384 2.64951 16.75942.0948-.74991.63997-2.54689 1.0516-3.29475-.0753-.0307.9917 3.19557 3.09523 4.39324.68254.38858 1.79645 3.31696 2.82963 4.04312.94251.66246 2.18864 1.31994 2.18864 1.31994s.08-2.59747 1.08788-3.28636c1.01496-.6938 2.93885-1.89078 3.56772-2.30598 1.26565-.83563 2.89684-4.50625 2.89684-4.50625l.59916 3.74834c6.74884-4.80489 7.00754-10.39212 3.12198-16.72232l.00004-.00001c2.17417.62169 3.77229-1.46215 4.14611-1.73487 0 0-1.05996-.36458-2.0813-1.67625-.6866-.8818-1.30091-2.61279-1.60111-3.41795l-.82243-2.2058s-.12554 2.77645-.12554 3.5395c0 .76306.98857 3.19431.98857 3.19431-1.34199-.0821-2.68399-.13187-4.02598-.75892 0 0 2.74243 4.72241 3.57358 7.10793.44911 1.289.66754 3.74338.50792 5.09901-.16916 1.43664-2.21419 4.14967-2.21419 4.14967s-.30372-3.43634-.6349-4.55041c-.47037-1.58231-2.24991-5.43432-2.24991-5.43432s.27831 4.38929-.0863 5.82516c-.41487 1.6338-1.20439 4.53062-1.20439 4.53062-.70888-4.07129-1.61871-5.7312-2.55445-7.08012 0 0 1.10265 6.67627-.0308 9.28441-.2829.65097-1.80825 1.54275-2.60843 2.30089-.88823.84155-1.04321 1.51841-1.04321 1.51841s-1.76901-2.46927-2.22409-3.02664c-1.00768-1.23418-2.63266-2.36894-3.46419-3.72805-1.22195-1.99725.3551-7.49184.3551-7.49184-1.07099.32684-1.78792 1.8997-2.55105 3.62494-.62348 1.40952-1.36388 2.92074-1.6393 3.93726 0 0-1.89691-3.12425-2.16856-4.13373-.38512-1.43113-.25667-3.01279.12698-4.44432.62262-2.3232 4.68651-7.8885 4.68651-7.8885-1.32821.7978-2.48402 1.6818-5.43849 1.66647 0 0 1.43633-3.14839 1.61996-3.84412.56324-2.13403-.0427-2.70913-.0961-4.02097z" fill="#e4c900"/><g stroke-width=".466507" transform="translate(0 -.750036)"><path d="m650.45541-210.72904c.94 2.05379 1.12508 6.59856.64531 7.98979l5.43947.56423 4.97537-.81907c-.95614-1.86027-.12607-6.26534.46147-7.85043l-3.51843 1.08663-2.03126-1.12848-2.70834 1.46702z" fill="#504416"/><g fill="#fff" stroke-width=".466507"><path d="m652.02912-201.50104c.0211-2.49124.50919-2.8128.88867-3.69136l.54687 3.41793z"/><path d="m660.44732-201.50103c-.0211-2.49124-.50919-2.8128-.88867-3.69136l-.54687 3.41793z"/></g><path d="m651.36128-202.72579c-.81165 7.08724 10.24331 7.39935 9.73553 0-2.77625.58616-5.7673.90381-9.73553 0z" fill="#e4c900"/><path d="m650.93243-203.30445-.0625.5625c-.21756 1.89969.38656 3.42232 1.40625 4.4375s2.42822 1.51 3.84375 1.53125c1.41553.0213 2.84592-.43482 3.90625-1.4375s1.69791-2.55802 1.5625-4.53125l-.0312-.5625-.5625.125c-2.74095.57871-5.6408.8861-9.53125 0l-.53125-.125zm.53749.68552c3.39744.66907 7.16626.40133 9.63488-.0715-.0319 1.40521-.39695 3.17731-1.13868 3.87872-.84429.79839-2.72676 1.48265-3.91004 1.46489-1.18328-.0178-2.97951-.96931-3.78848-1.77471-.71401-.71086-.8285-2.14342-.79768-3.49749v.00005z" fill="#806600"/><g stroke-width=".466507"><path d="m653.94747-209.46548c-.0725 4.53128.1742 9.55876 2.26875 13.65668 2.09455-4.09792 2.34125-9.08205 2.26875-13.61333-.0432-.17139-.98524-.30903-1.13007-.41285-.35601-.25521-1.02223-.90865-1.02223-.90865s-.69131.7735-1.1358 1.02224c-.37899.21208-1.2494.25591-1.2494.25591z" fill="#377bc8" stroke="#2c5aa0"/><g fill="#fff" transform="translate(-14.216157 -5.336168)"><path d="m665.98052-204.44785c.0211 2.49124.50919 2.8128.88867 3.69136l.54687-3.41793z"/><path d="m674.88423-204.44785c-.0211 2.49124-.50919 2.8128-.88867 3.69136l-.54687-3.41793z"/></g><g transform="translate(-14.132735 -5.336168)"><path d="m668.93959-212.13885s.8411.79935 1.37499.825c.53241.0256 1.44374-.6875 1.44374-.6875l-1.5125-4.05622z" fill="#ffefa7"/><g stroke-width=".466507" transform="translate(-.114747)"><g transform="translate(0 .064716)"><path d="m932.78865 583.0728c0 .91155-1.03912 1.89502-2.39674 1.89502-1.35763 0-2.21238-.73895-2.21238-1.6505s.85475-1.40598 2.21238-1.40598c1.35762 0 2.39674.24991 2.39674 1.16146z" fill="#fff" transform="matrix(1.1428571 0 0 1.1489362 -398.53239 -883.00507)"/><path d="m931.09428 582.82568c0 .52366-.42451.94816-.94816.94816-.52366 0-.94816-.4245-.94816-.94816 0-.52365.4245-.94816.94816-.94816.52365 0 .94816.42451.94816.94816z" fill="#2b2200" transform="matrix(1.1111111 0 0 1.1111111 -368.51231 -860.46502)"/><path d="m664.78125-214.6875c-.8063 0-1.50329.15935-2 .46875s-.78125.80487-.78125 1.40625.2906 1.14697.78125 1.53125 1.17862.625 2 .625c1.67295 0 2.96875-1.20119 2.96875-2.4375 0-.61815-.39009-1.05519-.9375-1.28125s-1.24004-.3125-2.03125-.3125zm0 .5c.76036 0 1.40949.10192 1.84375.28125s.625.38334.625.8125c0 .85833-1.03856 1.9375-2.46875 1.9375-.73019 0-1.30183-.19795-1.6875-.5s-.59375-.71032-.59375-1.15625.18289-.76354.5625-1 .97348-.375 1.71875-.375z" fill="#d1b948"/></g><g transform="matrix(-1 0 0 1 1340.9274 .064716)"><path d="m932.78865 583.0728c0 .91155-1.03912 1.89502-2.39674 1.89502-1.35763 0-2.21238-.73895-2.21238-1.6505s.85475-1.40598 2.21238-1.40598c1.35762 0 2.39674.24991 2.39674 1.16146z" fill="#fff" transform="matrix(1.1428571 0 0 1.1489362 -398.53239 -883.00507)"/><path d="m931.09428 582.82568c0 .52366-.42451.94816-.94816.94816-.52366 0-.94816-.4245-.94816-.94816 0-.52365.4245-.94816.94816-.94816.52365 0 .94816.42451.94816.94816z" fill="#2b2200" transform="matrix(1.1111111 0 0 1.1111111 -368.51231 -860.46502)"/><path d="m664.78125-214.6875c-.8063 0-1.50329.15935-2 .46875s-.78125.80487-.78125 1.40625.2906 1.14697.78125 1.53125 1.17862.625 2 .625c1.67295 0 2.96875-1.20119 2.96875-2.4375 0-.61815-.39009-1.05519-.9375-1.28125s-1.24004-.3125-2.03125-.3125zm0 .5c.76036 0 1.40949.10192 1.84375.28125s.625.38334.625.8125c0 .85833-1.03856 1.9375-2.46875 1.9375-.73019 0-1.30183-.19795-1.6875-.5s-.59375-.71032-.59375-1.15625.18289-.76354.5625-1 .97348-.375 1.71875-.375z" fill="#d1b948"/></g></g><path d="m661.12132-211.22485.2189 1.95048.63079.57371c-1.44936-.21083 1.91598.48806 2.6167.63557l-.22313 2.30764 1.8641 2.00012 2.39423.13649 1.8276-1.40223 1.90057 1.4682 2.03523-.11595 2.03763-2.18189.50843-1.94675 1.51085-.53215 1.13336-1.0056v-1.7699c-.97175 1.22364-1.93357 2.42423-4.7013 2.10176.30303 1.33071.21514 2.23568-.10593 2.82942-.38328.70879-1.09885.97406-1.87833.99065-.97223.0207-2.03834-.78084-2.55112-1.22052-.74162.79142-1.39038 1.41658-1.99525 1.39392-1.26413-.0474-2.10856-.55064-2.52437-1.29053-.44045-.78373-.39997-1.83295.13205-2.88698-4.92631.0974-3.63091-1.59143-4.83101-2.03546z" fill="#e4c900"/><path d="m661.05735-211.69285c-.48492 1.28768-.28378 2.45984.42441 3.20893.59079.6249 1.49213.86991 2.47398.91092-.0108.15882-.018.18577-.0207.41406-.006.49673.005 1.07182.20702 1.57341.41453 1.02745 1.24777 1.71017 2.1945 2.14274.82617.37748 1.7898.3611 2.60855.0828.50449-.17148.90215-.49664 1.21111-.78671.11015-.10341.11986-.12422.20703-.21738.32008.35606.7675.77238 1.44919 1.00409.81875.27829 1.77203.29467 2.5982-.0828.94673-.43257 1.77997-1.11529 2.1945-2.14274.20236-.50159.21294-1.07668.20703-1.57341-.002-.17707-.0126-.18155-.0207-.3209 1.04557.013 1.93276-.33325 2.48434-1.00408.65616-.79803.80426-1.95791.4244-3.17788-.60273.55855.32519 1.42846-.94682 2.82751-.40343.49066-1.11079.77492-2.17379.62109l-.88537-.38462.33725 1.00737s.0361.36293.0414.80741c.005.44448-.0502.9813-.13457 1.19041-.3009.74581-1.03279 1.28473-1.82525 1.6468-.53125.24273-1.269.2434-1.86325.0414-.56946-.19356-1.26116-.97618-1.30836-1.0604l-.51604-.92093-.33997.69435c-.0835.17049-.38624.41125-.63894.6485-.2527.23726-.5663.46295-.84881.55898-.59426.20199-1.34236.20132-1.87361-.0414-.79246-.36207-1.64611-1.1024-1.94701-1.84821-.0844-.20911-.13986-.74593-.13457-1.19041.005-.44448.15265-.83916.15265-.83916l.25792-.64295-.80854.28616c-1.00568.069-1.81013-.21154-2.24626-.67285-1.34493-.83846-.65558-1.92168-.94084-2.76014z" fill="#806600"/><g fill="#ffefa7" stroke-width=".466507" transform="translate(-.008499)"><path d="m935.11429 589.08246c0 .87094-.72045 1.57697-1.60916 1.57697-.88872 0-1.60916-.70603-1.60916-1.57697s.72044-1.57698 1.60916-1.57698c.88871 0 1.60916.70604 1.60916 1.57698z" transform="translate(-265.6543 -796.35176)"/><path d="m935.11429 589.08246c0 .87094-.72045 1.57697-1.60916 1.57697-.88872 0-1.60916-.70603-1.60916-1.57697s.72044-1.57698 1.60916-1.57698c.88871 0 1.60916.70604 1.60916 1.57698z" transform="translate(-260.64105 -796.35176)"/></g><path d="m666.85233-209.832s2.34604-.94601 3.35913-1.00061c1.07722-.0581 3.39188.81503 3.39188.81503l-.2294.90371-2.61249 1.51249-2.40623-1.23749-1.09039-.0994-.4125-.89374z" fill="#e4c900"/><path d="m663.05208-216.42826c-.68077.0986-1.43722.43559-1.78125 1.03125-.20631.3572 0 1.25 0 1.25l1.03125-.28125h1.25l2.8125.40625 2.6875-.9375s-1.66723-.18486-2.51546-.38981c-1.1454-.27675-2.31835-1.24788-3.48454-1.07894zm14.15625 0c-1.01242.0279-1.95074.83678-2.95296 1.07894-.84823.20495-2.57829.38981-2.57829.38981l2.6875.9375 2.8125-.40625h1.21875l1.03125.28125s.20631-.8928 0-1.25c-.34403-.59566-1.10048-.93263-1.78125-1.03125-.14577-.0211-.29287-.004-.4375 0z" fill="#e4c900"/><path d="m669.1689-215.78165-.50722.23808s-1.67903 1.11679-3.23687 1.11176c-.63267-.002-1.59239-.38405-2.49468-.46582-.45115-.0409-.87886.0805-1.26524.42845-.38639.34805-.67303.50386-.67359 1.22362.52653-.24596.82663-.54771 1.22146-.87987.0934-.0842.25887-.13259.57969-.10351.64162.0581 1.62828.47305 2.58784.47616 1.37393.004 2.89163-.89723 3.51825-1.15153.006.28586.10514 1.10526-.059 1.59517-.0837.24978-1.02413.95407-1.37864 1.55418-.17724.30006-.34799.60287-.4865.87987-.13851.27699-.25756.50091-.27949.80741-.0442.61797.23807 1.18005.23807 1.18005l.11388.31055.33123.0103c1.2232.0457 1.53314.39933 2.05994 1.19041l.0828.12422.12422.0517c.14818.0705.2592.12901.383.16563.1238.0366.27713.0516.4037.031.25315-.0412.28543-.10308.51757-.15527l.19668-.0414.11386-.17598c.5268-.79107.8471-1.14469 2.07028-1.19041l.32089-.0103.12422-.31054s.27197-.56208.22773-1.18006c-.0219-.30649-.20475-.41572-.34326-.69271s-.30926-.57981-.48651-.87987c-.3545-.60011-1.23107-1.62973-1.31477-1.87951-.16416-.48986-.0929-1.22641-.0866-1.51225.63091.2552 2.17931 1.28366 3.54581 1.27924.95956-.003 1.9462-.41802 2.58785-.47616.32082-.0291.48623.0193.57967.10351l1.22146.87987c-.00066-.71976-.34712-1.07959-.73351-1.42765-.38638-.34805-.60778-.23342-1.05893-.19253-.90229.0818-1.86201.46375-2.49468.46581-1.55784.005-3.38326-1.14364-3.38326-1.14364l-.50722-.23808-.17597.53827s-.31557.996.12421 2.30836c.17012.50763.96651 1.36554 1.31476 1.95508.17413.29477.33825.58335.45546.81776.11722.23441.16607.44093.16563.43476.009.11926-.0531.30589-.10352.48651-1.12464.1504-2.17348 1.00211-2.69002 1.72157-.11708.0357-.27952.0718-.26914.0725-.0175-.006-.0719-.0339-.11386-.0518-.51865-.73119-1.78723-1.71787-2.92484-1.87-.0504-.18062-.11205-.36725-.10352-.48651-.00033.006.0588-.20035.17598-.43476.11721-.23441.28133-.52299.45546-.81776.34825-.58954 1.22124-1.31972 1.39136-1.82735.4398-1.31236.12422-2.30836.12422-2.30836l-.18633-.53827v.00002l.00002.00008z" fill="#806600"/></g></g></g><path d="m665.95433-223.25977s-.49091-1.48867-1.29367-2.74706c-.40014-.62724-1.16362-1.51324-1.83618-2.03593-.69126-.53725-1.28635-.70266-1.28635-.70266.20494.78744-.2941 1.70266-.49785 2.35094 0 0-1.15447-2.91006-2.21231-3.77009-.81594-.66339-2.73015-1.3104-2.71744-1.31032.0129.00039-1.78756.62325-2.61197 1.27606-1.06875.84639-2.26063 3.74135-2.26063 3.74135-.19541-.65083-.6826-1.57242-.46754-2.35715 0 0-.59719.15772-1.29528.68607-.67922.514-1.45408 1.39012-1.8622 2.01215-.81885 1.24798-1.3289 2.73021-1.3289 2.73021.94792-.30679 2.52919-2.83462 3.4059-2.88325.74388-.0413.79251 1.9657 1.49138 1.85874.95306-.14586 1.3605-1.81917 2.21714-3.15301.75969-1.18289 1.97506-2.26447 2.71207-2.23645.74172.0282 1.96281 1.1136 2.69095 2.30651.86034 1.4095 1.6437 2.9691 2.44457 3.11227.79545.1422.86008-1.92761 1.63907-1.89202.92509.0423 2.14158 2.82007 3.06924 3.01364z" fill="#e4c900"/><path d="m667.65197-206.38462c2.17417.62169 3.77229-1.46215 4.14611-1.73487 0 0-1.05996-.36458-2.0813-1.67625-.6866-.8818-1.32841-2.60306-1.60111-3.41795-1.01306-3.02681.0744-3.85147.18043-3.63081 0 0 1.83273-1.27616 2.48995-2.16562.62328-.84221.68772-2.01419.62753-3.05965-.0903-1.56812-1.28919-3.56774-1.28919-3.56774-3.00046.67188-3.63947 1.27678-4.07301 2.37774 0 0-.49091-1.48867-1.29367-2.74706-.40014-.62724-1.16362-1.51324-1.83618-2.03593-.69126-.53725-1.28635-.70266-1.28635-.70266.20494.78744-.2941 1.70266-.49785 2.35094 0 0-1.15447-2.91006-2.21231-3.77009-.81594-.66339-2.73015-1.3104-2.71744-1.31032.0129.00039-1.78756.62325-2.61197 1.27606-1.06875.84639-2.26063 3.74135-2.26063 3.74135-.19541-.65083-.6826-1.57242-.46754-2.35715 0 0-.59719.15772-1.29528.68607-.67922.514-1.45408 1.39012-1.8622 2.01215-.81885 1.24798-1.3289 2.73021-1.3289 2.73021-.38659-1.16989-.9843-1.73647-4.04211-2.42989 0 0-1.22448 1.98405-1.33488 3.55088-.0737 1.04462-.0233 2.21733.58815 3.06746.64571.89783 2.46191 2.19746 2.46191 2.19746.10878-.21929 1.18557.61929.13372 3.63283-.28315.81131-.94701 2.52417-1.64492 3.39707-1.03809 1.29844-2.10267 1.64936-2.10267 1.64936 1.14589 1.52304 1.52501 2.17194 4.12348 1.78802-4.53815 5.72474-3.32089 12.44384 2.64951 16.75942.0948-.74991.63997-2.54689 1.0516-3.29475-.0753-.0307.9917 3.19557 3.09523 4.39324.68254.38858 1.79645 3.31696 2.82963 4.04312.94251.66246 2.18864 1.31994 2.18864 1.31994s.08-2.59747 1.08788-3.28636c1.01496-.6938 2.93885-1.89078 3.56772-2.30598 1.26565-.83563 2.89684-4.50625 2.89684-4.50625l.59916 3.74834c6.74884-4.80489 7.00754-10.39212 3.12198-16.72232z" fill="none" stroke="#806600" stroke-width=".466507"/><g fill="#806600" stroke-width=".466507" transform="translate(-14.274785 -5.336168)"><path d="m657.19992-218.43138s1.80475.59598 2.16682 1.41964c.49367 1.12301.37359 4.5578.37359 4.5578s-2.27336-1.69348-2.68984-2.61513c-.52396-1.15951.14943-3.36231.14943-3.36231z"/><path d="m683.58799-218.43138s-1.80475.59598-2.16682 1.41964c-.49367 1.12301-.37359 4.5578-.37359 4.5578s2.27336-1.69348 2.68984-2.61513c.52396-1.15951-.14943-3.36231-.14943-3.36231z"/></g><g fill="#fff1a1"><path d="m650.51276-207.51703c-3.46704.6834-6.11835 6.12464-4.62035 11.22086 1.42674-3.90775 5.30522-9.06961 4.62035-11.22086z"/><path d="m662.74034-206.29225c2.49158.19567 4.47043 4.40544 3.67244 9.85166-.58652-3.90775-3.51237-7.70041-3.67244-9.85166z"/><path d="m650.99361-199.17506s-.36334 2.00371-.00035 3.43973c.2429.9609.55598 1.95147 1.15855 2.73839.62338.8141 3.40625 1.89581 3.40625 1.89581l-.003 2.32138s2.15438-1.76373 2.42575-2.73935c.20719-.74489.63526-3.69247.63526-3.69247l-2.00446 2.74124s-3.18701-1.31382-3.93287-2.3171c-1.14744-1.54345-1.68481-4.38763-1.68481-4.38763z"/></g><path d="m647.58929-222.27668s-.13419-.75608 1.54899-1.54072c1.77409-.82701 5.4036-1.68573 6.77152-1.72428 1.63985-.0462 5.23613.84692 7.12106 1.76876 1.58511.77521 1.62073 1.60156 1.62073 1.60156-2.91393-.49181-5.82786-.17447-8.74179.73726-2.41534-1.11657-5.0664-1.68314-8.32051-.84258z" fill="#ffefa7" stroke-width=".466507"/></g></g></g><g transform="matrix(1.1 0 0 1.1 -2215.078799 81.15178)"><g stroke-width=".466507" transform="matrix(1.9487171 0 0 1.9487171 1201.6397 579.48954)"><g><path d="m469.89172-189.44346s-3.2133-.0251-4.49999-.77844c-1.39929-.81931-2.89764-3.71547-2.89764-3.71547s-3.5428.5752-5.17164.2223c-1.70186-.36873-4.1377-2.31533-4.1377-2.31533 1.627-.24015 2.84206-.48567 4.41754-1.76008 0 0-3.13615-.16604-4.92243-.8537-1.55516-.5987-4.09281-2.58269-4.09281-2.58269 1.45006-.35994 3.01793-.31529 4.16007-1.73258 0 0-3.07162.0277-4.46327-.48078-1.38924-.50759-3.59506-2.46162-3.59506-2.46162 1.68802-.14653 3.29361-.45961 4.379-1.82377 0 0-3.11114.10567-4.42924-.41198-1.81987-.71478-4.60418-3.09647-4.60418-3.09647 1.75084-.1319 3.49236-.28269 4.81679-1.27612l-.98441-1.99868c-1.18824-2.41294-3.67704-1.56174-5.33097-2.22681-1.62436-.65318-2.53503-2.43408-2.62364-3.43221-.15625-1.7607.74385-4.45016 4.7172-3.88855-1.97584-3.01086.0813-5.17388 2.1837-6.03988 2.01959-.83233 3.80318-.60501 5.17456 2.69044 0 0 1.84335-1.4908 2.84207-1.71177 1.39017-.30755 2.95721.15361 3.45134 1.45497.20317.53507.27725 1.65417-.0635 2.32224-.53897 1.05666-1.72616 1.78054-2.11393 3.32609-.43905 1.74986 1.17767 4.80302 1.17767 4.80302s7.63709 6.05036 11.15035 9.36419c1.86935 1.76322 5.2643 5.57903 5.2643 5.57903l.18762-.10869h7.57028l.67592 12.77279-8.23795.16055z" fill="#e4c900" stroke="#806600" stroke-width=".466507"/><path d="m728.66998 600.08634s2.14322 3.00896 3.34361 3.58245c1.14933.5491 3.34362 0 3.34362 0l-.71649-1.5524h-.95532c-2.49264-2.99521-4.62136-6.51547-3.94069-10.50851 0 0-2.83065-3.13952-4.53777-4.65718-2.2446-1.99549-8.23963-6.44841-8.23963-6.44841s-1.3723-3.32743-1.5524-5.6125c-.0797-1.0117.13035-2.08424.59708-2.98538.47913-.92508 1.88497-1.26122 2.14947-2.26888.0833-.31749-.0277-.70401-.23883-.95532-.25219-.30015-.68338-.5007-1.07474-.47766-1.47881.087-3.82128 2.26888-3.82128 2.26888s-1.46479-2.6323-2.74654-3.2242c-.54207-.25032-1.2396-.22849-1.79122 0-.52008.21542-1.0322.65502-1.19415 1.19415-.51431 1.7121 1.07473 5.25426 1.07473 5.25426s-3.44737-.87649-4.7766 0c-.50616.33376-.76689 1.06762-.71649 1.67181.0551.6602.53641 1.28569 1.07474 1.67181 1.46698 1.05221 5.25426 1.31356 5.25426 1.31356l4.41834 5.97075-4.65717 1.31356c1.77394.96561 3.16362 1.29333 8.0008 1.31357-.98506 2.0703-2.4297 2.77997-3.70187 3.70186l8.12022 1.19415c-.70602 2.03214-2.8284 2.22011-3.82128 3.10479 2.05296 1.36605 5.29625 1.83934 8.59788 2.26888-.44573 1.6659-2.55375 2.08508-4.17952 2.86596 1.18751.49093 3.27146.14572 6.68724 0z" fill="#fee46e" transform="translate(-265.2681 -795.8822)"/><path d="m463.964-201.37345c-3.57009-7.41614-9.76248-11.43664-16.38054-15.39604 3.9692 7.43686 9.25481 11.96392 16.38054 15.39604z" fill="#ffefa7"/></g><g fill="#377bc8" stroke="#2c5aa0"><path d="m453.42141-228.71466c.26597 1.26198-.26713 2.17305-1.41035 2.52075-.56821.17286-1.22517.00058-1.91053-.71256.32966-2.09628.16478-2.91927-1.28192-4.71368 3.61728.77133 3.75459 2.37308 4.6028 2.90549z"/><path d="m443.33752-229.69243c.76473 1.03851.65682 2.08856-.23976 2.8785-.4456.39266-1.11492.50793-2.03408.14266-.56811-2.04458-1.05902-2.72539-3.11897-3.75954 3.61193-.79601 4.40027.60505 5.39281.73838z"/><path d="m437.60965-222.54844c1.12808.62511 1.4678 1.62452.98223 2.71634-.24131.54269-.80162.92653-1.78937.97776-1.36884-1.62153-2.09891-2.03566-4.40244-2.11676 2.95112-2.22948 4.25183-1.28469 5.20958-1.57734z"/></g></g><g stroke-width=".466507" transform="matrix(1.9487171 0 0 1.9487171 1189.6397 579.48954)"><path d="m513.50766-183.58052c-1.33427-.38955-2.96302-2.14373-4.37827-2.13573-1.4905.009-2.54136.84042-3.29124 1.95842-.35783.53347.20388 2.52939.76142 2.91265l2.56744 1.7649s-1.60714 1.84635-1.72893 2.8858c-.1058.90301.34775 1.62799.99501 2.34096.84401.92951 1.05109 1.28882 2.39589 1.48468.80306.11697 2.70345-.23377 2.70345-.23377s-.0444 1.4813.4251 2.16495c.85068 1.23901 2.2951 2.3313 3.94515 2.15698 1.28859-.13595 1.70673-.33111 2.38775-1.29018.54003-.76055.43205-2.70458 1.30892-3.50549l3.56614-3.25717c1.53965.93176 1.49878 2.32075 1.3073 3.75332 0 0 2.28884-1.44598 2.9698-2.48201.70945-1.07936.98995-3.62755.98995-3.62755 1.44914 1.30718 1.92869 2.4753 1.61809 4.03701 0 0 2.33003-1.45493 3.0798-2.48202.84399-1.15614 1.57169-3.65514 1.57169-3.65514 1.06098 1.03218 1.28488 2.50025.87996 4.29578 0 0 2.60377-1.7445 3.29978-3.15024.55024-1.11135.8799-3.05479.8799-3.05479 3.16391.22969 5.20713-1.14707 5.34641-2.57256.10799-1.10549-1.14359-2.61267-3.69106-3.05023 0 0-.9404-1.40428-1.29638-2.44286-.24469-.71388-.26288-1.52538 0-2.23436.52587-1.41828 1.75142-2.61162 3.00355-3.63084 1.72231-1.40195 5.47075-3.16534 5.47075-3.16534l-1.09677-5.49152-12.76507-1.95505-14.1101 3.47778c2.57171 1.18 8.3319 5.21446 7.86162 6.74365-.17596.57219-1.40134 1.11414-1.9872 1.88006-.43149.56409-.10234 1.46569.3218 2.04817.59343.81489 2.01126 1.00214 2.4672 1.76885.4103.68997.59677 1.30515.1073 1.95507-.96633 1.28313-4.21624 1.82212-5.79256 2.51365-2.87265 1.26025-7.73662 4.00798-7.73662 4.00798-1.51257.19713-2.96239-.32665-4.35697-.73381z" fill="#e4c900" stroke="#806600" stroke-width=".466507"/><path d="m783.74369 614.99546s3.5466-1.86583 5.42998-2.7966c2.96956-1.46756 8.16054-1.85476 9.46537-4.89934 0 0 .36901-.67607.24826-1.61366-.18076-1.40368-2.62799-2.56408-1.86192-4.09622l.62064-1.24128s2.60311 1.12023 3.35145 1.98605c.60801.70347.69545 1.87472 1.48954 2.35843.8158.49693 2.85494.24826 2.85494.24826l1.24128 3.5997s1.89002-.0156 2.60668.8689c.21.25918.24967.68396.12413.99302-.19942.49091-1.34743.61558-1.84743.79097-.97609.34239-2.48256-.76199-2.48256-.76199s.52265 2.44146.26542 3.23248c-.17747.54673-.8689 1.48954-.8689 1.48954-.54896-.93281-.90586-1.38664-3.3831-2.64082 0 0-.29861 2.08127-.96385 3.38806-.30786.60476-1.24128 1.61366-1.24128 1.61366s-.56577-1.14853-.99302-1.61366c-.80053-.87152-3.13237-1.27789-3.13237-1.27789s-.45921 2.55333-1.11468 3.91375c-.24162.50149-.65476 1.24128-.65476 1.24128s-.44707-1.17177-.8689-1.61367c-.49976-.52355-1.86192-1.11715-1.86192-1.11715l-4.80933 3.97209s-.72748 2.35003-1.85945 3.10568c-.65475.43708-1.00478.22351-1.71109-.12413-.34226-.16846-.64954-.49951-.74477-.8689-.30588-1.18652.46734-2.67494.46734-2.67494s-2.58694 1.0142-4.28861.53065c-.6479-.18411-1.45587-.6927-1.48953-1.36541-.0776-1.55117 2.17843-3.0132 2.17843-3.0132s-2.54764-.59862-3.60467-2.04935c-.34458-.47292-.58909-1.26216-.24826-1.73779.39233-.5475 1.32551-.50413 1.98605-.37239 1.2605.2514 1.83441 1.7531 3.10816 1.92523z" fill="#ffe66f" transform="translate(-265.2681 -795.8822)"/><path d="m535.01721-185.57436c-6.25039-.32088-11.13489 2.7033-16.12782 6.07203 6.40461.0294 11.31168-2.1084 16.12782-6.07203z" fill="#ffefa7"/><g fill="#377bc8" stroke="#2c5aa0" stroke-width=".466507"><path d="m506.62733-185.27348c1.17058.54134 1.58208 1.51344 1.17721 2.63769-.20123.55879-.7321.98239-1.7135 1.10533-1.48317-1.51766-2.24143-1.8776-4.54476-1.79093 2.7811-2.43826 4.14712-1.59055 5.08105-1.95209z"/><path d="m507.76823-176.49253c1.28908-.0398 2.09215.64527 2.2333 1.83183.0702.58976-.21497 1.20617-1.03756 1.75537-2.00559-.69331-2.84476-.6758-4.8657.43264 1.39565-3.42517 2.99662-3.27852 3.66996-4.01984z"/><path d="m514.67552-170.36107c1.08054-.70409 2.12271-.53622 2.86005.40409.36649.46736.44329 1.14217.026 2.03891-2.07374.45018-2.78154.90132-3.93187 2.89873-.58806-3.65155.85587-4.35843 1.04578-5.34173z"/></g></g><path d="m2240.6145 188.06415s-.4746 8.89861-4.1913 11.17666c-1.6005.98102-3.842 1.38762-5.5883.69853-1.6916-.66753-2.8736-2.48126-3.4927-4.19124-.3963-1.09469-1.0478-3.84197-1.0478-3.84197s-5.682-2.59942-8.7317-2.79415c-4.4894-.28666-13.2723 2.44488-13.2723 2.44488 1.4994-4.66162 5.5339-8.47824 9.7796-12.22446l14.6693-1.0478z" fill="#efd300" stroke="#806600" stroke-width=".909091"/><g stroke-width=".513373" transform="matrix(1.6091644 0 0 1.9487171 1361.845 579.48954)"><path d="m563.75526-231.2181c2.15718-.23696 6.58612-1.11631 8.07317-2.56934.69312-.67726 2.63614-2.56934 2.63614-2.56934-.41182 4.27162-2.60181 7.04054-7.24938 8.91712-3.7084 1.49738-7.98921 1.84379-12.02738 1.51138-2.5428-.20932-7.24938-1.51137-7.24938-1.51137 2.58193 2.76763 1.26975 4.72109-1.97711 6.0455 0 0 .4811-2.65054-.49427-3.02275-2.1035-.80273-4.47504.24322-6.70877 1.47167-1.64994.90739-4.14817 1.3305-5.83086 1.312-2.80325-.0308-4.35684-.0632-6.97846-.97435-1.58105-.54947-4.32378-2.64564-5.48581-2.43738-2.50853.44958-5.67679.70236-7.10404 2.64742-.49587.67576-.43506 1.73365 0 2.44378.97619 1.5934 3.16864 2.42539 5.10603 2.85106 5.76196 1.26597 10.46461 1.25759 16.1513.45375 5.86103-.82848 12.7049-2.48761 18.56461-3.48895 5.80839-.99257 13.29688-2.86805 17.6986-3.77447 7.7794-1.60198 11.26943-1.82252 17.09057-1.73732 10.19523.14928 13.53318 5.11468 13.22273 10.5339-.31894 5.56719-6.46247 8.08804-11.72245 9.6499-9.24807 2.74607-21.9464 1.1822-29.92654.99461 0 0 2.67525 2.05513 3.88888 2.99465 1.42168 1.10058 2.13222 3.40224 3.88889 3.96376 2.40941.77017 6.0947-.75677 8.64196-.89185 3.56177-.18887 9.61417.19819 9.61417.19819.92665-.86565 1.52711-1.46657 2.49013-1.72564.69053-.18618 1.77741-.19618 2.33173-.002 1.0968.38421 1.83467 1.56777 1.37473 3.7709 0 0 .76006.97647 1.91999 1.20144 1.22799.23859 2.66197.0281 3.36179.23059 1.1544.33392 3.02382 1.38691 3.02382 1.38691s-1.98151.57582-2.806 1.03658c-.56434.31539-1.31738 1.35899-1.31738 1.35899s2.71461.043 3.84848.50434c1.21454.49417 2.33659 1.89124 2.33659 1.89124s-1.63443-.10619-2.4134.34488c-.5955.34483-1.57253 1.2942-1.57253 1.2942s3.17746-.23688 4.26081.63041c.9591.76782 2.0617 2.14342 2.0617 2.14342s-1.71433-.0332-2.52592.18105c-.52797.13939-1.46002.70153-1.46002.70153s2.19646 1.0503 3.16126 2.26949c.77071.97393.96212 3.15207.96212 3.15207s-1.29343-.8892-2.08816-1.21571c-.49696-.2042-1.62288-.1712-1.62288-.1712l.51458 4.47186c.12653 1.09958 1.80713 2.29011 2.107 3.14081.37815 1.07278.28342 1.47589-.39506 2.41601-.86862 1.204-2.66271 1.44987-4.21399 1.208-.85597-.13346-2.05879-1.1243-2.05879-1.1243s-.87586 1.484-1.46618 1.93899c-.98853.7619-1.41407.66557-2.70426.62017-.98952-.0349-1.8701-.20564-2.55494-.86177-.78831-.75526-1.3345-3.01621-1.3345-3.01621l-3.04229.55169c-.66066.1198-2.66299-.80446-2.88622-1.3873-.46783-1.22146-.51317-2.45613.39506-3.44709.86236-.94091 3.24715-.98993 4.46233-1.5081 1.55697-.66391 3.05317-2.58532 3.05317-2.58532s-5.08262-3.58644-7.28064-5.81697c-1.20859-1.22647-3.28803-4.09342-3.28803-4.09342s-6.481 1.79067-8.92468 2.15444c-6.02749.89727-12.44755 0-12.44755 0-9.21323 0-15.34329-12.97952-23.72081-15.9428-2.55655-.9043-3.75997-.76274-6.43425-.21544-9.70744 1.98665-20.07043 13.271-29.68761 15.59793-3.9479.95522-12.21269 1.29267-12.21269 1.29267s-1.35328 2.67362-2.633 3.4369c-1.39172.83009-4.8859.88435-4.8859.88435s-.89365 3.19699-1.91731 4.41162c-1.06955 1.26908-4.00874 2.49894-4.00874 2.49894.43423-1.45826.69283-2.57467.0791-4.41746 0 0-1.4613 2.5509-2.88234 3.75864-1.23717 1.05148-4.25557 2.35092-4.25557 2.35092.24218-1.35999.93465-2.65113 0-4.19104 0 0-1.24229 2.5771-2.32233 3.5293-1.07816.95055-3.92964 1.98522-3.92964 1.98522.55239-1.47054.90537-2.94107 0-4.41161 0 0-1.18127 2.64234-2.24004 3.52929-1.46182 1.22459-4.97696 2.56566-4.97696 2.56566.59288-1.51697 1.16315-3.03393.72457-4.55089l-2.39085-.004c-2.88635-.005-3.0703 2.4257-4.4142 3.53224-1.31986 1.08676-3.46407 1.1112-4.49146.77257-1.81228-.59735-3.42335-2.69745-1.22331-5.78411-3.80544.40567-5.78844-1.97038-5.77891-4.08444.009-2.03099.75007-3.824 4.58811-3.60714 0 0-.49612-1.75878-.30258-2.68434.26941-1.28832 1.37502-2.40654 2.871-2.28132.6151.0515 1.75656.45226 2.27883 1.01306.82604.887 1.05379 2.17788 2.42761 3.14072 1.55542 1.09011 5.25437 1.0019 5.25437 1.0019s7.18866-3.87783 11.93038-5.44242c2.52298-.83249 9.68826-2.09074 9.68826-2.09074l.22454-17.54565c4.30578.26492 2.45402.30208 6.09536.19364 5.23047-.15576 18.97134 1.95801 18.97134 1.95801l9.78371-.66736s16.31929-2.45419 24.08298-3.22174c3.91111-.38665 7.86317-.66464 11.79062-.46025 5.91583.30786 10.9966 1.77067 16.55705 2.07112 4.67544.25263 7.86885.7282 12.54322.46024 6.67408-.38258 18.60448.0664 22.39566-5.94875.98389-1.56105.47868-3.69934-.98972-4.90159-1.9374-1.58624-3.31496-2.18359-5.8989-1.63834-1.36279.28757-3.09565 1.24173-3.26556 2.4158-.0921.63646.0233 1.43208.60582 2.18371 1.00141 1.2923 2.13304 1.68156 2.13304 1.68156s-2.89526.38777-4.21362-.57979c-1.38754-1.01833-2.63351-4.2518-2.63351-4.2518-.65235.82531-1.13199 1.72984-1.02208 2.90477.0947 1.01262-.004 1.6463 1.23276 3.18303 0 0-3.06294-.19621-4.52964-1.73938-.98579-1.03718-1.7908-4.15516-1.7908-4.15516-.86907.7868-1.39949 2.06092-1.43655 3.00036-.0535 1.35665.58766 1.95175.90981 3.37733 0 0-3.01913-.81393-4.21362-2.31915-.92691-1.16805-1.42142-4.23607-1.42142-4.23607-3.47318.7941-10.10263 1.9168-17.32206 3.33898-5.08608 1.00193-12.85355 2.54172-18.34316 3.17464-9.42758 1.08695-16.29126.52446-22.08668-1.73181-3.01591-1.17414-4.37474-2.30357-5.1522-4.96985-.44129-1.5134.20873-3.65735 1.7057-5.32653 2.08694-2.32703 5.71193-4.0689 9.76102-4.98932 0 0 10.72429-2.64146 16.97016-3.17389 10.01437-.85368 14.08651.43014 18.27167.91368 2.71977.31424 5.64611-.20125 6.50246-1.13904.72068-.78921 1.91297-1.63973.30664-3.54266 0 0 2.03532.0372 3.38666 2.33001.55193.93644-.12894 3.10052-.12894 3.10052z" fill="#fee46e"/><g fill="#e4c900"><path d="m602.57754-173.56064c.37815 1.07278 1.23218 3.42613.5537 4.36625-.86862 1.204-2.66271 1.44988-4.21399 1.20799-.85597-.13346-2.05879-1.12429-2.05879-1.12429s-.87586 1.48399-1.46618 1.93899c-.98853.76189-1.41407.93925-2.70426.89386-.98952-.0349-1.8701-.47932-2.55494-1.13546-.78831-.75526-1.3345-3.01621-1.3345-3.01621l-3.04229.55168c-.66066.11981-2.66299-.80445-2.88622-1.3873-.46783-1.22146-.51317-2.45613.39506-3.44709.86236-.9409 3.24715-.98993 4.46233-1.5081 1.55697-.66392 3.05317-2.58531 3.05317-2.58531s-5.08262-3.58644-7.28064-5.81698c-1.20859-1.22646-3.28803-4.09341-3.28803-4.09341s-6.481 1.79067-8.92468 2.15443c-6.02749.89727-8.29837 0-12.44755 0-9.21323 0-15.34329-12.97951-23.72081-15.94279-2.55655-.9043-3.75997-.76275-6.43425-.21545-9.70744 1.98666-20.07043 13.27101-29.68761 15.59793-3.9479.95523-12.21269 1.29268-12.21269 1.29268s-1.35328 2.67361-2.633 3.43689c-1.39172.83009-4.8859.88435-4.8859.88435s-.89365 3.19701-1.91731 4.41162c-1.06955 1.26909-4.00874 2.49895-4.00874 2.49895.43423-1.45826.69283-2.57468.0791-4.41745 0 0-1.4613 2.55088-2.88234 3.75863-1.23717 1.05148-4.25557 2.35092-4.25557 2.35092.24218-1.36.93465-2.65113 0-4.19105 0 0-1.24229 2.57711-2.32233 3.52931-1.07816.95055-3.92964 1.98522-3.92964 1.98522.55239-1.47054.90537-2.94107 0-4.4116 0 0-1.18127 2.64233-2.24004 3.52927-1.46182 1.2246-4.97696 2.56566-4.97696 2.56566.59288-1.51696 1.16315-3.03392.72457-4.55089l-2.39085-.004c-2.88635-.005-3.0703 2.4257-4.4142 3.53224-1.31986 1.08676-3.46407 1.11121-4.49146.77258-1.81228-.59735-3.42335-2.69745-1.22331-5.78412-3.80544.40567-5.78844-1.97037-5.77891-4.08443.009-2.03099.75007-3.82401 4.58811-3.60714 0 0-.49612-1.75878-.30258-2.68434.26941-1.28832 2.19964-.93861 2.871-2.28133.059-.11795 1.58919 1.11338 1.26429 2.67158-.22318 1.07036-1.63721 1.91353-1.88195 2.32772-.5369.90864.65305 1.92927.65305 1.92927s-2.57111-.97141-4.13186-.51055c-.56353.1664 1.47867-.0447 1.67937 2.10474.21308 2.28221-1.51492 1.8544-.59573 2.03466 1.59076.31196 4.93522.21771 4.93522.21771.0803 0-3.23256 3.88642-2.24988 3.38607.6431-.32745 1.54054-.025 2.00755.48181.41446.44982.85504 1.25523.27491 2.12348-.37848.56646.60016.27948 1.05608-.21773 2.1187-2.31056 3.35515-4.90722 6.53192-5.41075.96623-.15315 2.39796.13307 3.12081.79835.77285.71129.79834 3.04823.79834 3.04823s1.23715-1.29645 1.74185-2.03214c.80826-1.17818 2.03215-3.77399 2.03215-3.77399s1.78166 1.98582 2.46762 3.1208c.24649.40783.58061 1.30639.58061 1.30639s1.27327-1.72682 1.74185-2.68535c.55106-1.12726 1.23381-3.55627 1.23381-3.55627s1.69038 1.96688 2.24988 3.12081c.30736.63391.58062 2.03215.58062 2.03215s2.05473-2.33287 2.75792-3.70142c.54547-1.0616 1.08865-3.41111 1.08865-3.41111s2.02308 1.50116 2.68535 2.54019c.45232.70964.79834 2.39504.79834 2.39504s1.3403-2.13324 1.52412-3.26597c.20151-1.24175.14516-3.55626.14516-3.55626s3.46027 1.56077 5.0078.87092c1.74728-.77889 3.04823-4.86265 3.04823-4.86265s9.58286-.2487 14.06152-1.7494c2.93088-.98206 6.87921-3.32736 9.62632-4.74436 0 0 9.71244-6.66373 15.90959-8.86476 2.47777-.88002 5.69007-1.61374 8.30354-1.32469 3.59406.3975 6.11515 2.66443 9.14729 4.63455 4.76393 3.09535 7.99874 8.69885 13.20929 10.96298 2.92228 1.26982 7.40979 1.37599 10.59381 1.2569 5.33921-.19971 14.88738-2.67695 14.88738-2.67695s2.32878 4.08508 4.27127 6.05091c2.41755 2.4466 7.70706 6.14009 7.70706 6.14009s-1.64943 2.72182-3.01046 3.55781c-1.48763.91376-3.15888 1.20442-4.72093 1.98416-.29291.14621 1.16618-.0842 1.3973.7673.19714.72634-.28383 1.31544.45002 1.14844 1.23335-.28068 2.94204-.95787 2.94204-.95787s-.28469 1.51574.26252 2.4195c1.74331-.64858 3.72048-.39435 3.83454 2.11188.74484-.35537.44509-1.02847.82913-1.52093l.75261-2.59993s.39076 1.30017 1.83616 2.05257c.99726-2.08095 4.131-2.06912 5.07623.16269-.37489-.313-.32878-3.30733-.32878-3.30733z"/><path d="m737.87832 606.58213s1.40824 2.65145 3.21654 3.72887c.81128.48338 2.5551 1.23539 2.5551 1.23539l.35668-2.77557s1.61895-.61945 2.62641-1.16731c1.00747-.54785 3.35599-2.18868 3.35599-2.18868l.43774 2.48051s5.40814-2.65185 7.58743-4.66919c1.45641-1.34818 2.86813-2.93439 3.5019-4.8151.73017-2.16676.14591-6.85788.14591-6.85788l-14.76375.51863-3.35793 12.79209-5.66198 1.71824z" transform="translate(-265.2681 -795.8822)"/><path d="m600.90469-179.22313s1.12592-.033 1.62288.1712c.79473.32651 2.08816 1.21571 2.08816 1.21571s-.19141-2.17814-.96212-3.15207c-.9648-1.21918-3.16126-2.26949-3.16126-2.26949s.93205-.56214 1.46002-.70152c.81159-.21426 2.52592-.18106 2.52592-.18106s-1.1026-1.37559-2.0617-2.14342c-1.08335-.86729-4.26081-.63041-4.26081-.63041s.97703-.94937 1.57253-1.2942c.77897-.45107 2.4134-.34488 2.4134-.34488s-1.12205-1.39707-2.33659-1.89123c-1.13387-.46135-3.84848-.50435-3.84848-.50435s.75304-1.0436 1.31738-1.35898c.82449-.46077 2.806-1.03659 2.806-1.03659s-1.86942-1.05298-3.02382-1.3869c-.69982-.2025-2.1338.008-3.36179-.2306-1.15993-.22496-1.91999-1.20144-1.91999-1.20144.45994-2.20313-.27793-3.38668-1.37473-3.7709-.55432-.19418-1.6412-.18419-2.33173.002-.96302.25906-1.56348.85998-2.49013 1.72564 0 0-6.0524-.38706-9.61417-.1982-2.54726.13508-6.23255 1.66203-8.64196.89186-1.75667-.56153-2.46721-2.86319-3.88889-3.96377-1.21363-.93951-3.88888-2.99465-3.88888-2.99465-2.96866-3.55827-3.22179-4.04513-8.38248-5.75423-3.30595-.60202-2.5948-.29552-6.23947-.48519-3.92745-.20439-7.87951.0736-11.79062.46025-7.76369.76755-24.08298 3.22173-24.08298 3.22173l-9.78371.66736s-13.74087-2.11377-18.97134-1.95801c-3.64134.10845-1.78958.0713-6.09536-.19364l-.0378 2.95701s8.42593 1.83327 12.93579 2.2763c4.35769.42808 8.36168.31332 12.73848.18521 8.1831-.23953 16.95903-3.29854 25.09518-4.20609 6.5162-.72685 13.72165-1.781 19.6506-.86949 4.98023.76564 6.89094 2.40914 11.18644 5.04307 3.61279 2.21529 7.27663 8.17326 12.11604 8.17326 0 0 2.73656-.13932 4.52139-.3478 2.24837-.26262 3.82979-1.03952 6.08646-1.21729 3.07144-.24196 7.29571.26872 7.29571.26872 1.99016-2.31861 3.00792-2.36514 3.57968-2.07003 1.25917.64989 1.43042 2.08731.29639 3.54337 1.25193.78767 2.05215 2.0811 5.86259 1.89706-1.67766 1.22056-2.18464 1.8294-2.87445 3.3322 1.43028-.43081 2.92982-.0205 5.0706.54342-1.51459 1.18447-1.9324 2.36231-2.45597 3.40521 1.42189-.1695 2.48495.11417 5.03972.51111-1.45776.69779-2.55373 1.02947-2.79861 1.99679 1.66456.86764 1.51029.52568 3.93182 2.40261-1.53871.18281-2.47815.18501-3.07806 1.1725l2.93479 4.26878z"/><path d="m557.48058-204.78789 10.96999.56546 9.1605.11309h5.76772c6.6327-1.33707 14.35883-2.79888 17.52935-9.49978l.1131-4.97607c-.28789 2.95891-1.52848 5.27979-3.47575 7.03428-9.23152 8.31762-29.83852 5.53922-39.72562 2.69169l-6.89866-.90475z"/><path d="m571.17728-221.20833c-7.26233.59556-25.52232 5.61391-39.55518 6.78172-7.49678.62388-15.68168.21212-20.40532-2.57247-2.0815-1.22705-3.4909-2.91486-3.87315-5.17784l-.69517 2.64164 2.22454 3.47585 5.00523 2.36358 9.45431 1.80744 10.28851-.8342 5.83943-.55614 30.7265-5.83943z"/><path d="m571.16298-221.39165c.16289 2.87421.80056 4.08666 1.4527 5.24849.83126-1.81198 1.51426-3.99885 4.12382-5.81082.77354 1.99942 1.35568 4.37374 2.62424 6.37316.62029-2.26483.74038-5.02178 2.99914-6.9355.81886 1.88835 1.55386 4.19597 2.48365 5.52965-.0201-1.43708-.17314-3.15534 1.64016-4.59242 7.09128-3.78999 16.55817 3.20054 9.70033 8.01331l.0937.0469.6092-2.10877-.65606-2.62425-2.15563-1.68701-2.76483-.89037-3.56147.70292-1.54643 1.59329.46862 1.96819 2.34307 2.20249-3.79578-.28117-1.68702-1.17154-1.4527-3.09286-.89037 1.73388.0937 2.34307 1.17154 1.78074-2.85855-.6092-2.10877-1.45271-1.54643-3.65519-1.07781 1.26526-.42176 1.96818 1.07782 2.90541-2.76483-1.03095-2.06191-2.15563-.70292-3.46775-4.12381.98409c1.51902-.97896-1.4402-1.00392 5.29539-3.09289z"/><path d="m520.82057-225.42654 6.30052 3.05182 6.30052.78756 3.93783-.68912 4.33161-2.1658 3.4456-.19689.98445 1.27979.0985 2.26425 2.26425-1.87047.59067-1.57513-.68912-2.75648 4.62695 1.18135 5.90674.39378 6.10363-.98445 5.41451-2.16581 2.65804-2.75648 1.37823-4.72539s-2.91229 4.09318-5.02072 5.31607c-2.65756 1.54139-5.90793 2.39295-8.95856 2.75647-2.96521.35335-5.99037-.2633-8.95856-.59067-3.44234-.37966-8.56477-2.26425-8.56477-2.26425 1.03907 1.5095 2.09105 3.01901 2.3627 4.52851 0 0-3.23997-.71294-4.94754-.24739-1.34618.36702-3.90003 1.39506-5.20244 1.89571-2.02182.77719-5.26789-.0141-7.41876-.27013-2.22082-.26435-3.00109-1.24533-4.99802-.71437l-1.94621.51748z"/></g><path d="m515.53087-228.61752s3.23328.48514 4.85534.40461c4.82839-.2397 9.47013-1.99473 14.26255-2.62997 2.88408-.38229 5.79124-.79816 8.69915-.70807 3.77952.11709 7.44932 1.4758 11.22797 1.61844 1.99248.0752 4.17033.45794 5.96801-.40461 1.03269-.49549 2.06235-1.41429 2.32652-2.52882.28307-1.19425-1.01153-3.54035-1.01153-3.54035l.10115.10115-.50576 1.82075-2.32652 1.92191-2.73112.70807-4.55188-.40461-6.8784-.80923h-7.68761l-8.598 1.01153-8.39569 1.7196z" fill="#fff1a1"/><path d="m564.29087-222.69517c13.68697 2.01547 30.16541-6.54381 36.33532 5.12797l-.14651-.14652.0848-1.90467-2.72205-3.36981-4.27974-1.97801-7.44134-.80585-9.96291.73267-11.86758 2.34422z" fill="#fff1a1"/><path d="m444.79468-187.75261s.52172 3.72862 1.8071 4.90499c1.57842 1.44456 6.19579 1.67803 6.19579 1.67803s6.70771-3.92628 10.3263-5.29223c2.94844-1.11298 6.09693-1.60134 9.1646-2.32342.98578-.23204 2.96882-.6454 2.96882-.6454s.52861-3.35704.38723-5.03407c-.13412-1.59097-1.16171-4.64684-1.16171-4.64684l-.77447 8.13197-8.13197 1.67802-7.22841 2.71066-5.67947 3.35605-5.67947-1.29079z" fill="#e4c900"/><path d="m563.75526-231.21814c2.15718-.23696 6.58612-1.11632 8.07317-2.56935.69312-.67726 2.63614-2.56934 2.63614-2.56934-.41182 4.27162-2.60181 7.04054-7.24938 8.91712-3.7084 1.49738-7.98921 1.84379-12.02738 1.51138-2.5428-.20931-7.24938-1.51137-7.24938-1.51137 2.58193 2.76763 1.26975 4.7211-1.97711 6.0455 0 0 .4811-2.65053-.49427-3.02274-2.1035-.80273-4.47504.24321-6.70877 1.47167-1.64994.90739-4.14817 1.33049-5.83086 1.312-2.80325-.0308-4.35684-.0632-6.97846-.97436-1.58105-.54946-4.32378-2.64563-5.48581-2.43737-2.50853.44957-5.67679.70236-7.10404 2.64742-.49587.67575-.43506 1.73365 0 2.44377.97619 1.5934 3.16864 2.42539 5.10603 2.85107 5.76196 1.26596 10.46461 1.25758 16.1513.45374 5.86103-.82847 12.7049-2.4876 18.56461-3.48894 5.80839-.99257 13.29688-2.86806 17.6986-3.77448 7.7794-1.60197 11.26943-1.82251 17.09057-1.73732 10.19523.14928 13.53318 5.11469 13.22273 10.53391-.31894 5.56718-6.46247 8.08803-11.72245 9.6499-9.24807 2.74607-21.9464 1.18219-29.92654.9946 0 0 2.67525 2.05514 3.88888 2.99465 1.42168 1.10058 2.13222 3.40224 3.88889 3.96377 2.40941.77017 6.0947-.75678 8.64196-.89186 3.56177-.18886 9.61417.1982 9.61417.1982.92665-.86566 1.52711-1.46658 2.49013-1.72564.69053-.18619 1.77741-.19618 2.33173-.002 1.0968.38422 1.83467 1.56777 1.37473 3.7709 0 0 .76006.97648 1.91999 1.20144 1.22799.2386 2.66197.0281 3.36179.2306 1.1544.33392 3.02382 1.3869 3.02382 1.3869s-1.98151.57582-2.806 1.03659c-.56434.31538-1.31738 1.35898-1.31738 1.35898s2.71461.043 3.84848.50435c1.21454.49416 2.33659 1.89123 2.33659 1.89123s-1.63443-.10619-2.4134.34488c-.5955.34483-1.57253 1.2942-1.57253 1.2942s3.17746-.23688 4.26081.63041c.9591.76783 2.0617 2.14342 2.0617 2.14342s-1.71433-.0332-2.52592.18106c-.52797.13938-1.46002.70152-1.46002.70152s2.19646 1.05031 3.16126 2.26949c.77071.97393.96212 3.15207.96212 3.15207s-1.29343-.8892-2.08816-1.21571c-.49696-.2042-1.62288-.1712-1.62288-.1712l.51458 4.47186c.12653 1.09959 1.80713 2.29012 2.107 3.14081.37815 1.07278.28342 1.4759-.39506 2.41602-.86862 1.20399-2.66271 1.44987-4.21399 1.20799-.85597-.13346-2.05879-1.12429-2.05879-1.12429s-.87586 1.48399-1.46618 1.93899c-.98853.76189-1.46522.97247-2.75541.92707-.98952-.0349-1.81895-.51254-2.50379-1.16868-.78831-.75526-1.3345-3.01621-1.3345-3.01621l-3.04229.55169c-.66066.11981-2.66299-.80445-2.88622-1.3873-.46783-1.22146-.51317-2.45613.39506-3.44709.86236-.94091 3.24715-.98992 4.46233-1.5081 1.55697-.66391 3.05317-2.58532 3.05317-2.58532s-5.08262-3.58643-7.28064-5.81697c-1.20859-1.22646-3.28803-4.09342-3.28803-4.09342s-6.481 1.79068-8.92468 2.15444c-6.02749.89727-12.44755 0-12.44755 0-9.21323 0-15.34329-12.97952-23.72081-15.9428-2.55655-.9043-3.75997-.76273-6.43425-.21544-9.70744 1.98666-20.07043 13.271-29.68761 15.59793-3.9479.95522-12.21269 1.29267-12.21269 1.29267s-1.35328 2.67362-2.633 3.4369c-1.39172.83009-4.8859.88435-4.8859.88435s-.89365 3.197-1.91731 4.41162c-1.06955 1.26909-4.00874 2.49894-4.00874 2.49894.43423-1.45826.69283-2.57467.0791-4.41745 0 0-1.4613 2.55089-2.88234 3.75863-1.23717 1.05149-4.25557 2.35093-4.25557 2.35093.24218-1.36.93465-2.65114 0-4.19105 0 0-1.24229 2.5771-2.32233 3.52931-1.07816.95054-3.92964 1.98521-3.92964 1.98521.55239-1.47053.90537-2.94107 0-4.4116 0 0-1.18127 2.64234-2.24004 3.52928-1.46182 1.2246-4.97696 2.56566-4.97696 2.56566.59288-1.51697 1.16315-3.03392.72457-4.55089l-2.39085-.004c-2.88635-.005-3.0703 2.4257-4.4142 3.53224-1.31986 1.08676-3.46407 1.11121-4.49146.77257-1.81228-.59735-3.42335-2.69745-1.22331-5.78411-3.80544.40567-5.78844-1.97037-5.77891-4.08443.009-2.031.75007-3.82401 4.58811-3.60715 0 0-.49612-1.75878-.30258-2.68434.26941-1.28832 1.37502-2.40654 2.871-2.28132.6151.0515 1.75656.45227 2.27883 1.01306.82604.887 1.05379 2.17788 2.42761 3.14072 1.55542 1.09011 5.25437 1.0019 5.25437 1.0019s7.18866-3.87783 11.93038-5.44242c2.52298-.83249 9.68826-2.09073 9.68826-2.09073l.22454-17.54566c4.30578.26492 2.45402.30209 6.09536.19364 5.23047-.15576 18.97134 1.95801 18.97134 1.95801l9.78371-.66736s16.31929-2.45418 24.08298-3.22173c3.91111-.38666 7.86317-.66465 11.79062-.46025 5.91583.30786 10.9966 1.77067 16.55705 2.07111 4.67544.25263 7.86885.72821 12.54322.46024 6.67408-.38257 18.60448.0664 22.39566-5.94875.98389-1.56105.47868-3.69934-.98972-4.90158-1.9374-1.58625-3.31496-2.18359-5.8989-1.63835-1.36279.28758-3.09565 1.24174-3.26556 2.41581-.0921.63645.0233 1.19776.60582 1.94939 1.00141 1.29231 2.13304 1.91587 2.13304 1.91587s-3.36388.15347-4.68224-.81409c-1.38754-1.01833-2.16489-4.01749-2.16489-4.01749-.65235.8253-1.13199 1.72984-1.02208 2.90477.0947 1.01262-.004 1.6463 1.23276 3.18302 0 0-3.06294-.1962-4.52964-1.73938-.98579-1.03717-1.7908-4.15516-1.7908-4.15516-.86907.78681-1.39949 2.06092-1.43655 3.00036-.0535 1.35666.58766 1.95176.90981 3.37733 0 0-3.01913-.81393-4.21362-2.31914-.92691-1.16806-1.42142-4.23607-1.42142-4.23607-3.47318.79409-10.10263 1.91679-17.32206 3.33898-5.08608 1.00193-12.85355 2.54171-18.34316 3.17463-9.42758 1.08695-16.29126.52447-22.08668-1.73181-3.01591-1.17414-4.37474-2.30356-5.1522-4.96984-.44129-1.51341.20873-3.65736 1.7057-5.32654 2.08694-2.32702 5.71193-4.0689 9.76102-4.98932 0 0 10.72429-2.64146 16.97016-3.17389 10.01437-.85368 14.08651.43014 18.27167.91368 2.71977.31424 5.64611-.20125 6.50246-1.13904.72068-.78921 1.91297-1.63973.30664-3.54266 0 0 2.03532.0372 3.38666 2.33001.55193.93644-.12894 3.10052-.12894 3.10052z" fill="none" stroke="#806600" stroke-width=".513373"/><path d="m492.12482-190.68983c12.44948-.2103 22.27166-11.10341 30.72974-14.4173-17.60794 5.76181-22.12661 5.54267-24.3572 7.62135-.94342.87918-.97782 2.04965-1.84003 3.26696-.8571 1.21009-2.53883 2.46647-4.53251 3.52899z" fill="#ffefa7"/><path d="m575.07069-192.03594c-17.91177 1.16697-19.03137-13.25823-36.91527-14.99329 15.16749 8.11557 16.99057 20.4386 36.91527 14.99329z" fill="#fff1a1"/><path d="m583.00424-193.17324c1.79497 5.9957 6.28277 9.5823 11.13152 13.15543-2.12126-6.04318-5.78167-9.94846-11.13152-13.15543z" fill="#fff1a1"/><g fill="#377bc8" stroke="#2c5aa0" stroke-width=".513373"><path d="m582.90623-173.0997c1.20596-.45712 2.18826-.0706 2.70782 1.00547.25823.53484.18919 1.21048-.40993 1.99745-2.12205-.003-2.90985.28661-4.46015 1.99232.20521-3.69291 1.76677-4.07517 2.16226-4.99524z"/><path d="m589.88777-168.72004c.89979-.92394 1.95341-.98877 2.87905-.23307.46006.37559.68302 1.01712.47261 1.98355-1.92451.89407-2.51611 1.48948-3.20032 3.69055-1.37467-3.43365-.12095-4.44003-.15134-5.44103z"/><path d="m598.51861-169.35051c.62765-1.12665 1.62789-1.46405 2.71859-.97596.54211.24259.92468.80375.97364 1.79161-1.62468 1.36511-2.0405 2.09422-2.12691 4.39756-2.2227-2.95623-1.27488-4.25478-1.56532-5.21321z"/><path d="m440.98106-188.38549c1.16873.54532 1.57692 1.51882 1.16813 2.64173-.20314.5581-.73545.9799-1.71726 1.09949-1.478-1.52271-2.23502-1.88522-4.53864-1.80639 2.78939-2.42878 4.15251-1.57642 5.08767-1.93478z"/><path d="m436.15079-181.66409c1.28911.0387 2.04901.77138 2.11769 1.96435.0342.59291-.28797 1.19084-1.14244 1.68897-1.9597-.81407-2.79836-.84765-4.88302.13576 1.60149-3.33391 3.19057-3.09011 3.90777-3.78908z"/><path d="m439.99383-173.3802c1.1489-.58595 2.1675-.30892 2.80136.70405.315.50349.32012 1.18261-.18956 2.03024-2.10971.22855-2.86121.60238-4.21616 2.46704-.19892-3.69326 1.31162-4.2436 1.60436-5.20133z"/></g><path d="m473.16657-186.89459c-8.21256-.54642-13.08288 2.9419-19.78868 6.7508 8.4272.20931 13.29167-2.24035 19.78868-6.7508z" fill="#ffefa7"/></g><g stroke-width=".466507" transform="matrix(1.8738887 .53482666 -.53482666 1.8738887 790.85053 207.27801)"><path d="m667.65197-206.38465c2.17417.62169 3.77229-1.46215 4.14611-1.73487 0 0-1.05996-.36458-2.0813-1.67625-.6866-.8818-1.32841-2.60306-1.60111-3.41795-1.01306-3.02681.0744-3.85147.18043-3.63081 0 0 1.83273-1.27616 2.48995-2.16562.62328-.84221.68772-2.01419.62753-3.05965-.0903-1.56812-1.28919-3.56774-1.28919-3.56774-3.00046.67188-3.63947 1.27678-4.07301 2.37774 0 0-.49091-1.48867-1.29367-2.74706-.40014-.62724-1.16362-1.51324-1.83618-2.03593-.69126-.53725-1.28635-.70266-1.28635-.70266.20494.78744-.2941 1.70266-.49785 2.35094 0 0-1.15447-2.91006-2.21231-3.77009-.81594-.66339-2.73015-1.3104-2.71744-1.31032.0129.00039-1.78756.62325-2.61197 1.27606-1.06875.84639-2.26063 3.74135-2.26063 3.74135-.19541-.65083-.6826-1.57242-.46754-2.35715 0 0-.59719.15772-1.29528.68607-.67922.514-1.45408 1.39012-1.8622 2.01215-.81885 1.24798-1.3289 2.73021-1.3289 2.73021-.38659-1.16989-.9843-1.73647-4.04211-2.42989 0 0-1.22448 1.98405-1.33488 3.55088-.0737 1.04462-.0233 2.21733.58815 3.06746.64571.89783 2.46191 2.19746 2.46191 2.19746.10878-.21929 1.18557.61929.13372 3.63283-.28315.81131-.94701 2.52417-1.64492 3.39707-1.03809 1.29844-2.10267 1.64936-2.10267 1.64936 1.14589 1.52304 1.52501 2.17194 4.12348 1.78802-4.53815 5.72474-3.32089 12.44384 2.64951 16.75942.0948-.74991.63997-2.54689 1.0516-3.29475-.0753-.0307.9917 3.19557 3.09523 4.39324.68254.38858 1.79645 3.31696 2.82963 4.04312.94251.66246 2.18864 1.31994 2.18864 1.31994s.08-2.59747 1.08788-3.28636c1.01496-.6938 2.93885-1.89078 3.56772-2.30598 1.26565-.83563 2.89684-4.50625 2.89684-4.50625l.59916 3.74834c6.74884-4.80489 7.00754-10.39212 3.12198-16.72232z" fill="#fee46e"/><path d="m644.79197-216.04285c-.28315.81131-1.55113 5.19956-2.24904 6.07246-1.03809 1.29844-2.10267 1.64936-2.10267 1.64936 1.14589 1.52304 1.52501 2.17194 4.12348 1.78802-4.53815 5.72474-3.32089 12.44384 2.64951 16.75942.0948-.74991.63997-2.54689 1.0516-3.29475-.0753-.0307.9917 3.19557 3.09523 4.39324.68254.38858 1.79645 3.31696 2.82963 4.04312.94251.66246 2.18864 1.31994 2.18864 1.31994s.08-2.59747 1.08788-3.28636c1.01496-.6938 2.93885-1.89078 3.56772-2.30598 1.26565-.83563 2.89684-4.50625 2.89684-4.50625l.59916 3.74834c6.74884-4.80489 7.00754-10.39212 3.12198-16.72232l.00004-.00001c2.17417.62169 3.77229-1.46215 4.14611-1.73487 0 0-1.05996-.36458-2.0813-1.67625-.6866-.8818-1.30091-2.61279-1.60111-3.41795l-.82243-2.2058s-.12554 2.77645-.12554 3.5395c0 .76306.98857 3.19431.98857 3.19431-1.34199-.0821-2.68399-.13187-4.02598-.75892 0 0 2.74243 4.72241 3.57358 7.10793.44911 1.289.66754 3.74338.50792 5.09901-.16916 1.43664-2.21419 4.14967-2.21419 4.14967s-.30372-3.43634-.6349-4.55041c-.47037-1.58231-2.24991-5.43432-2.24991-5.43432s.27831 4.38929-.0863 5.82516c-.41487 1.6338-1.20439 4.53062-1.20439 4.53062-.70888-4.07129-1.61871-5.7312-2.55445-7.08012 0 0 1.10265 6.67627-.0308 9.28441-.2829.65097-1.80825 1.54275-2.60843 2.30089-.88823.84155-1.04321 1.51841-1.04321 1.51841s-1.76901-2.46927-2.22409-3.02664c-1.00768-1.23418-2.63266-2.36894-3.46419-3.72805-1.22195-1.99725.3551-7.49184.3551-7.49184-1.07099.32684-1.78792 1.8997-2.55105 3.62494-.62348 1.40952-1.36388 2.92074-1.6393 3.93726 0 0-1.89691-3.12425-2.16856-4.13373-.38512-1.43113-.25667-3.01279.12698-4.44432.62262-2.3232 4.68651-7.8885 4.68651-7.8885-1.32821.7978-2.48402 1.6818-5.43849 1.66647 0 0 1.43633-3.14839 1.61996-3.84412.56324-2.13403-.0427-2.70913-.0961-4.02097z" fill="#e4c900"/><g stroke-width=".466507" transform="translate(0 -.750036)"><path d="m650.45541-210.72904c.94 2.05379 1.12508 6.59856.64531 7.98979l5.43947.56423 4.97537-.81907c-.95614-1.86027-.12607-6.26534.46147-7.85043l-3.51843 1.08663-2.03126-1.12848-2.70834 1.46702z" fill="#504416"/><g fill="#fff" stroke-width=".466507"><path d="m652.02912-201.50104c.0211-2.49124.50919-2.8128.88867-3.69136l.54687 3.41793z"/><path d="m660.44732-201.50103c-.0211-2.49124-.50919-2.8128-.88867-3.69136l-.54687 3.41793z"/></g><path d="m651.36128-202.72579c-.81165 7.08724 10.24331 7.39935 9.73553 0-2.77625.58616-5.7673.90381-9.73553 0z" fill="#e4c900"/><path d="m650.93243-203.30445-.0625.5625c-.21756 1.89969.38656 3.42232 1.40625 4.4375s2.42822 1.51 3.84375 1.53125c1.41553.0213 2.84592-.43482 3.90625-1.4375s1.69791-2.55802 1.5625-4.53125l-.0312-.5625-.5625.125c-2.74095.57871-5.6408.8861-9.53125 0l-.53125-.125zm.53749.68552c3.39744.66907 7.16626.40133 9.63488-.0715-.0319 1.40521-.39695 3.17731-1.13868 3.87872-.84429.79839-2.72676 1.48265-3.91004 1.46489-1.18328-.0178-2.97951-.96931-3.78848-1.77471-.71401-.71086-.8285-2.14342-.79768-3.49749v.00005z" fill="#806600"/><g stroke-width=".466507"><path d="m653.94747-209.46548c-.0725 4.53128.1742 9.55876 2.26875 13.65668 2.09455-4.09792 2.34125-9.08205 2.26875-13.61333-.0432-.17139-.98524-.30903-1.13007-.41285-.35601-.25521-1.02223-.90865-1.02223-.90865s-.69131.7735-1.1358 1.02224c-.37899.21208-1.2494.25591-1.2494.25591z" fill="#377bc8" stroke="#2c5aa0"/><g fill="#fff" transform="translate(-14.216157 -5.336168)"><path d="m665.98052-204.44785c.0211 2.49124.50919 2.8128.88867 3.69136l.54687-3.41793z"/><path d="m674.88423-204.44785c-.0211 2.49124-.50919 2.8128-.88867 3.69136l-.54687-3.41793z"/></g><g transform="translate(-14.132735 -5.336168)"><path d="m668.93959-212.13885s.8411.79935 1.37499.825c.53241.0256 1.44374-.6875 1.44374-.6875l-1.5125-4.05622z" fill="#ffefa7"/><g stroke-width=".466507" transform="translate(-.114747)"><g transform="translate(0 .064716)"><path d="m932.78865 583.0728c0 .91155-1.03912 1.89502-2.39674 1.89502-1.35763 0-2.21238-.73895-2.21238-1.6505s.85475-1.40598 2.21238-1.40598c1.35762 0 2.39674.24991 2.39674 1.16146z" fill="#fff" transform="matrix(1.1428571 0 0 1.1489362 -398.53239 -883.00507)"/><path d="m931.09428 582.82568c0 .52366-.42451.94816-.94816.94816-.52366 0-.94816-.4245-.94816-.94816 0-.52365.4245-.94816.94816-.94816.52365 0 .94816.42451.94816.94816z" fill="#2b2200" transform="matrix(1.1111111 0 0 1.1111111 -368.51231 -860.46502)"/><path d="m664.78125-214.6875c-.8063 0-1.50329.15935-2 .46875s-.78125.80487-.78125 1.40625.2906 1.14697.78125 1.53125 1.17862.625 2 .625c1.67295 0 2.96875-1.20119 2.96875-2.4375 0-.61815-.39009-1.05519-.9375-1.28125s-1.24004-.3125-2.03125-.3125zm0 .5c.76036 0 1.40949.10192 1.84375.28125s.625.38334.625.8125c0 .85833-1.03856 1.9375-2.46875 1.9375-.73019 0-1.30183-.19795-1.6875-.5s-.59375-.71032-.59375-1.15625.18289-.76354.5625-1 .97348-.375 1.71875-.375z" fill="#d1b948"/></g><g transform="matrix(-1 0 0 1 1340.9274 .064716)"><path d="m932.78865 583.0728c0 .91155-1.03912 1.89502-2.39674 1.89502-1.35763 0-2.21238-.73895-2.21238-1.6505s.85475-1.40598 2.21238-1.40598c1.35762 0 2.39674.24991 2.39674 1.16146z" fill="#fff" transform="matrix(1.1428571 0 0 1.1489362 -398.53239 -883.00507)"/><path d="m931.09428 582.82568c0 .52366-.42451.94816-.94816.94816-.52366 0-.94816-.4245-.94816-.94816 0-.52365.4245-.94816.94816-.94816.52365 0 .94816.42451.94816.94816z" fill="#2b2200" transform="matrix(1.1111111 0 0 1.1111111 -368.51231 -860.46502)"/><path d="m664.78125-214.6875c-.8063 0-1.50329.15935-2 .46875s-.78125.80487-.78125 1.40625.2906 1.14697.78125 1.53125 1.17862.625 2 .625c1.67295 0 2.96875-1.20119 2.96875-2.4375 0-.61815-.39009-1.05519-.9375-1.28125s-1.24004-.3125-2.03125-.3125zm0 .5c.76036 0 1.40949.10192 1.84375.28125s.625.38334.625.8125c0 .85833-1.03856 1.9375-2.46875 1.9375-.73019 0-1.30183-.19795-1.6875-.5s-.59375-.71032-.59375-1.15625.18289-.76354.5625-1 .97348-.375 1.71875-.375z" fill="#d1b948"/></g></g><path d="m661.12132-211.22485.2189 1.95048.63079.57371c-1.44936-.21083 1.91598.48806 2.6167.63557l-.22313 2.30764 1.8641 2.00012 2.39423.13649 1.8276-1.40223 1.90057 1.4682 2.03523-.11595 2.03763-2.18189.50843-1.94675 1.51085-.53215 1.13336-1.0056v-1.7699c-.97175 1.22364-1.93357 2.42423-4.7013 2.10176.30303 1.33071.21514 2.23568-.10593 2.82942-.38328.70879-1.09885.97406-1.87833.99065-.97223.0207-2.03834-.78084-2.55112-1.22052-.74162.79142-1.39038 1.41658-1.99525 1.39392-1.26413-.0474-2.10856-.55064-2.52437-1.29053-.44045-.78373-.39997-1.83295.13205-2.88698-4.92631.0974-3.63091-1.59143-4.83101-2.03546z" fill="#e4c900"/><path d="m661.05735-211.69285c-.48492 1.28768-.28378 2.45984.42441 3.20893.59079.6249 1.49213.86991 2.47398.91092-.0108.15882-.018.18577-.0207.41406-.006.49673.005 1.07182.20702 1.57341.41453 1.02745 1.24777 1.71017 2.1945 2.14274.82617.37748 1.7898.3611 2.60855.0828.50449-.17148.90215-.49664 1.21111-.78671.11015-.10341.11986-.12422.20703-.21738.32008.35606.7675.77238 1.44919 1.00409.81875.27829 1.77203.29467 2.5982-.0828.94673-.43257 1.77997-1.11529 2.1945-2.14274.20236-.50159.21294-1.07668.20703-1.57341-.002-.17707-.0126-.18155-.0207-.3209 1.04557.013 1.93276-.33325 2.48434-1.00408.65616-.79803.80426-1.95791.4244-3.17788-.60273.55855.32519 1.42846-.94682 2.82751-.40343.49066-1.11079.77492-2.17379.62109l-.88537-.38462.33725 1.00737s.0361.36293.0414.80741c.005.44448-.0502.9813-.13457 1.19041-.3009.74581-1.03279 1.28473-1.82525 1.6468-.53125.24273-1.269.2434-1.86325.0414-.56946-.19356-1.26116-.97618-1.30836-1.0604l-.51604-.92093-.33997.69435c-.0835.17049-.38624.41125-.63894.6485-.2527.23726-.5663.46295-.84881.55898-.59426.20199-1.34236.20132-1.87361-.0414-.79246-.36207-1.64611-1.1024-1.94701-1.84821-.0844-.20911-.13986-.74593-.13457-1.19041.005-.44448.15265-.83916.15265-.83916l.25792-.64295-.80854.28616c-1.00568.069-1.81013-.21154-2.24626-.67285-1.34493-.83846-.65558-1.92168-.94084-2.76014z" fill="#806600"/><g fill="#ffefa7" stroke-width=".466507" transform="translate(-.008499)"><path d="m935.11429 589.08246c0 .87094-.72045 1.57697-1.60916 1.57697-.88872 0-1.60916-.70603-1.60916-1.57697s.72044-1.57698 1.60916-1.57698c.88871 0 1.60916.70604 1.60916 1.57698z" transform="translate(-265.6543 -796.35176)"/><path d="m935.11429 589.08246c0 .87094-.72045 1.57697-1.60916 1.57697-.88872 0-1.60916-.70603-1.60916-1.57697s.72044-1.57698 1.60916-1.57698c.88871 0 1.60916.70604 1.60916 1.57698z" transform="translate(-260.64105 -796.35176)"/></g><path d="m666.85233-209.832s2.34604-.94601 3.35913-1.00061c1.07722-.0581 3.39188.81503 3.39188.81503l-.2294.90371-2.61249 1.51249-2.40623-1.23749-1.09039-.0994-.4125-.89374z" fill="#e4c900"/><path d="m663.05208-216.42826c-.68077.0986-1.43722.43559-1.78125 1.03125-.20631.3572 0 1.25 0 1.25l1.03125-.28125h1.25l2.8125.40625 2.6875-.9375s-1.66723-.18486-2.51546-.38981c-1.1454-.27675-2.31835-1.24788-3.48454-1.07894zm14.15625 0c-1.01242.0279-1.95074.83678-2.95296 1.07894-.84823.20495-2.57829.38981-2.57829.38981l2.6875.9375 2.8125-.40625h1.21875l1.03125.28125s.20631-.8928 0-1.25c-.34403-.59566-1.10048-.93263-1.78125-1.03125-.14577-.0211-.29287-.004-.4375 0z" fill="#e4c900"/><path d="m669.1689-215.78165-.50722.23808s-1.67903 1.11679-3.23687 1.11176c-.63267-.002-1.59239-.38405-2.49468-.46582-.45115-.0409-.87886.0805-1.26524.42845-.38639.34805-.67303.50386-.67359 1.22362.52653-.24596.82663-.54771 1.22146-.87987.0934-.0842.25887-.13259.57969-.10351.64162.0581 1.62828.47305 2.58784.47616 1.37393.004 2.89163-.89723 3.51825-1.15153.006.28586.10514 1.10526-.059 1.59517-.0837.24978-1.02413.95407-1.37864 1.55418-.17724.30006-.34799.60287-.4865.87987-.13851.27699-.25756.50091-.27949.80741-.0442.61797.23807 1.18005.23807 1.18005l.11388.31055.33123.0103c1.2232.0457 1.53314.39933 2.05994 1.19041l.0828.12422.12422.0517c.14818.0705.2592.12901.383.16563.1238.0366.27713.0516.4037.031.25315-.0412.28543-.10308.51757-.15527l.19668-.0414.11386-.17598c.5268-.79107.8471-1.14469 2.07028-1.19041l.32089-.0103.12422-.31054s.27197-.56208.22773-1.18006c-.0219-.30649-.20475-.41572-.34326-.69271s-.30926-.57981-.48651-.87987c-.3545-.60011-1.23107-1.62973-1.31477-1.87951-.16416-.48986-.0929-1.22641-.0866-1.51225.63091.2552 2.17931 1.28366 3.54581 1.27924.95956-.003 1.9462-.41802 2.58785-.47616.32082-.0291.48623.0193.57967.10351l1.22146.87987c-.00066-.71976-.34712-1.07959-.73351-1.42765-.38638-.34805-.60778-.23342-1.05893-.19253-.90229.0818-1.86201.46375-2.49468.46581-1.55784.005-3.38326-1.14364-3.38326-1.14364l-.50722-.23808-.17597.53827s-.31557.996.12421 2.30836c.17012.50763.96651 1.36554 1.31476 1.95508.17413.29477.33825.58335.45546.81776.11722.23441.16607.44093.16563.43476.009.11926-.0531.30589-.10352.48651-1.12464.1504-2.17348 1.00211-2.69002 1.72157-.11708.0357-.27952.0718-.26914.0725-.0175-.006-.0719-.0339-.11386-.0518-.51865-.73119-1.78723-1.71787-2.92484-1.87-.0504-.18062-.11205-.36725-.10352-.48651-.00033.006.0588-.20035.17598-.43476.11721-.23441.28133-.52299.45546-.81776.34825-.58954 1.22124-1.31972 1.39136-1.82735.4398-1.31236.12422-2.30836.12422-2.30836l-.18633-.53827v.00002l.00002.00008z" fill="#806600"/></g></g></g><path d="m665.95433-223.25977s-.49091-1.48867-1.29367-2.74706c-.40014-.62724-1.16362-1.51324-1.83618-2.03593-.69126-.53725-1.28635-.70266-1.28635-.70266.20494.78744-.2941 1.70266-.49785 2.35094 0 0-1.15447-2.91006-2.21231-3.77009-.81594-.66339-2.73015-1.3104-2.71744-1.31032.0129.00039-1.78756.62325-2.61197 1.27606-1.06875.84639-2.26063 3.74135-2.26063 3.74135-.19541-.65083-.6826-1.57242-.46754-2.35715 0 0-.59719.15772-1.29528.68607-.67922.514-1.45408 1.39012-1.8622 2.01215-.81885 1.24798-1.3289 2.73021-1.3289 2.73021.94792-.30679 2.52919-2.83462 3.4059-2.88325.74388-.0413.79251 1.9657 1.49138 1.85874.95306-.14586 1.3605-1.81917 2.21714-3.15301.75969-1.18289 1.97506-2.26447 2.71207-2.23645.74172.0282 1.96281 1.1136 2.69095 2.30651.86034 1.4095 1.6437 2.9691 2.44457 3.11227.79545.1422.86008-1.92761 1.63907-1.89202.92509.0423 2.14158 2.82007 3.06924 3.01364z" fill="#e4c900"/><path d="m667.65197-206.38462c2.17417.62169 3.77229-1.46215 4.14611-1.73487 0 0-1.05996-.36458-2.0813-1.67625-.6866-.8818-1.32841-2.60306-1.60111-3.41795-1.01306-3.02681.0744-3.85147.18043-3.63081 0 0 1.83273-1.27616 2.48995-2.16562.62328-.84221.68772-2.01419.62753-3.05965-.0903-1.56812-1.28919-3.56774-1.28919-3.56774-3.00046.67188-3.63947 1.27678-4.07301 2.37774 0 0-.49091-1.48867-1.29367-2.74706-.40014-.62724-1.16362-1.51324-1.83618-2.03593-.69126-.53725-1.28635-.70266-1.28635-.70266.20494.78744-.2941 1.70266-.49785 2.35094 0 0-1.15447-2.91006-2.21231-3.77009-.81594-.66339-2.73015-1.3104-2.71744-1.31032.0129.00039-1.78756.62325-2.61197 1.27606-1.06875.84639-2.26063 3.74135-2.26063 3.74135-.19541-.65083-.6826-1.57242-.46754-2.35715 0 0-.59719.15772-1.29528.68607-.67922.514-1.45408 1.39012-1.8622 2.01215-.81885 1.24798-1.3289 2.73021-1.3289 2.73021-.38659-1.16989-.9843-1.73647-4.04211-2.42989 0 0-1.22448 1.98405-1.33488 3.55088-.0737 1.04462-.0233 2.21733.58815 3.06746.64571.89783 2.46191 2.19746 2.46191 2.19746.10878-.21929 1.18557.61929.13372 3.63283-.28315.81131-.94701 2.52417-1.64492 3.39707-1.03809 1.29844-2.10267 1.64936-2.10267 1.64936 1.14589 1.52304 1.52501 2.17194 4.12348 1.78802-4.53815 5.72474-3.32089 12.44384 2.64951 16.75942.0948-.74991.63997-2.54689 1.0516-3.29475-.0753-.0307.9917 3.19557 3.09523 4.39324.68254.38858 1.79645 3.31696 2.82963 4.04312.94251.66246 2.18864 1.31994 2.18864 1.31994s.08-2.59747 1.08788-3.28636c1.01496-.6938 2.93885-1.89078 3.56772-2.30598 1.26565-.83563 2.89684-4.50625 2.89684-4.50625l.59916 3.74834c6.74884-4.80489 7.00754-10.39212 3.12198-16.72232z" fill="none" stroke="#806600" stroke-width=".466507"/><g fill="#806600" stroke-width=".466507" transform="translate(-14.274785 -5.336168)"><path d="m657.19992-218.43138s1.80475.59598 2.16682 1.41964c.49367 1.12301.37359 4.5578.37359 4.5578s-2.27336-1.69348-2.68984-2.61513c-.52396-1.15951.14943-3.36231.14943-3.36231z"/><path d="m683.58799-218.43138s-1.80475.59598-2.16682 1.41964c-.49367 1.12301-.37359 4.5578-.37359 4.5578s2.27336-1.69348 2.68984-2.61513c.52396-1.15951-.14943-3.36231-.14943-3.36231z"/></g><g fill="#fff1a1"><path d="m650.51276-207.51703c-3.46704.6834-6.11835 6.12464-4.62035 11.22086 1.42674-3.90775 5.30522-9.06961 4.62035-11.22086z"/><path d="m662.74034-206.29225c2.49158.19567 4.47043 4.40544 3.67244 9.85166-.58652-3.90775-3.51237-7.70041-3.67244-9.85166z"/><path d="m650.99361-199.17506s-.36334 2.00371-.00035 3.43973c.2429.9609.55598 1.95147 1.15855 2.73839.62338.8141 3.40625 1.89581 3.40625 1.89581l-.003 2.32138s2.15438-1.76373 2.42575-2.73935c.20719-.74489.63526-3.69247.63526-3.69247l-2.00446 2.74124s-3.18701-1.31382-3.93287-2.3171c-1.14744-1.54345-1.68481-4.38763-1.68481-4.38763z"/></g><path d="m647.58929-222.27668s-.13419-.75608 1.54899-1.54072c1.77409-.82701 5.4036-1.68573 6.77152-1.72428 1.63985-.0462 5.23613.84692 7.12106 1.76876 1.58511.77521 1.62073 1.60156 1.62073 1.60156-2.91393-.49181-5.82786-.17447-8.74179.73726-2.41534-1.11657-5.0664-1.68314-8.32051-.84258z" fill="#ffefa7" stroke-width=".466507"/></g></g></g></svg>