<svg height="284.65" viewBox="0 0 220.21379 284.65" width="220.21" xmlns="http://www.w3.org/2000/svg"><path d="m1.4169 116.23c22.18-32.13 69.45-52.3 99.723-64.5 39.18-15.79 53.69-39.42 61.08-50.32h56.58v55.53c-12.86 19.48-38.6 42.63-66.52 53-58.863 21.83-105.32 70.23-126.34 99.71-16.163-27-24.803-57.15-24.523-86.34z" fill="#fff"/><path d="m.0068923 0v123.3c-.33 33.81 11.2 68.95 32.46 98.95 20.28 28.6 47.76 50.73 77.38 62.3l.26.1.26-.1c29.62-11.57 57.1-33.7 77.38-62.3 21.26-30 32.79-65.14 32.46-98.94v-123.31zm1.4 116.23c22.18-32.13 69.45-52.3 99.723-64.5 39.18-15.79 53.69-39.42 61.08-50.32h56.58v55.53c-12.86 19.48-38.6 42.63-66.52 53-58.853 21.83-105.31 70.23-126.33 99.71-16.163-27-24.803-57.15-24.523-86.34z" fill="#008dd1"/><g fill="#fff"><path d="m124.01 212.68a75.07 75.07 0 0 0 32.89-8.21c7.56-3.77 12.89-10.11 18.4-16.23 2-2.24 5.29-6.33 6.34-9.36-21.47 13.74-46.12 27.54-74.13 34.08-2.25 3.52 4.5.47 16.5-.28z"/><path d="m204.65 134.63c-.92-1.16-5.15 8.89-5.43 9.57s-.68.77-.57-.24a48 48 0 0 0 .16-8.77c-.23-1.83.13-2.74-2.7-2.54-1.46.1-2.86-.09-4.19.55-.87.42-1.09 2-2.69 2.41-.73.2-1.83-.48-2.69-.79s-1.68.2-2.81.5c-4.43 1.17-8.37 2-13.46 2.86-10.46 1.85-20.19 6.14-29.77 10.39-10.17 4.51-18 12.18-25.15 20.67-6.69 8-11.2 17.22-15.63 26.52-2.12 4.46-4.28 8.59-9.06 11.11-5.35 2.81-10.69 5.48-16.5 7.1-1.87.52-7.25.9-6 1.94 1.61 1.32 5.16 5.8 8.24 10.87s5.76 10.08 5.81 11.62 2.94-4.42 4-5.9c4.2-6.1 8.76-11 13.56-16.64a9.26 9.26 0 0 1 3.52-2.38c5.79-1.94 11-3.23 17.37-5.29a242.08 242.08 0 0 0 34.63-14.65c5.23-2.64 10.12-5.81 15.2-8.69 6.34-3.59 11.68-7.1 16.53-12.49 1.5-1.67 2-.94 2.92.12a2.54 2.54 0 0 1 .39 2.22c-.06.61 1.13.82 1.67 1 .71.21.54-1.14.75-1.54a5 5 0 0 0 -1.29-6c-.52-.41-1.19-.71-.6-1.58 1.16-1.71 2.19-4.46 3.59-6 1.85-1.93.66-2-.79-.48a21.74 21.74 0 0 1 -5.4 2.77c-4.63 1.17-7.4.77-10.4-2.17a23.09 23.09 0 0 0 -2.68-2c-1.48-1-2.58-2.16-2.43-3.74.32-3.51 1.17-2.84-.23-5.76-.41-1.24 1.93 1.51 1.67 2.2-1.78 4.65.48 5.69 3.36 8 3.31 2.67 5.48 4 8.31 3.36 4.77-1.06 9.86-4 11.2-8.12a30.86 30.86 0 0 1 3.66-7.35c-1.47-.22-2.86-.42-3.8-.66s-1.36-.64-1.16-1.48c.26-1.09.64-.1 1.11.39s1.91.56 2.46.65a2.46 2.46 0 0 0 2-.29 7.36 7.36 0 0 0 .84-1.24c2.67-4.15 3.04-9.36 2.48-10.03z"/><path d="m187.71 134a2.27 2.27 0 0 0 1.85-.14c.59-.35.89-.74.17-1a11.29 11.29 0 0 0 -2.2.19c-.87.08-.41.67.18.95z"/><path d="m95.427 195.2c-.08 1.05.14 5.13 1.07 4a12.33 12.33 0 0 0 2.14-3.59c1.07-2 1.91-3.83 2.87-5.92a94.55 94.55 0 0 1 26.05-34.07 72.64 72.64 0 0 1 21.26-11.8c6.52-2.43 12.95-5.09 19.84-6.39 3.66-.7 14.69-2.44 14.17-3.05s-15.27-1.73-22.73-.17a129.43 129.43 0 0 0 -16.8 4.7c-9.36 3.31-15.51 6.37-22.18 11.95a82.63 82.63 0 0 0 -21.653 28.14 44.2 44.2 0 0 0 -4.04 16.2z"/></g><g fill="#008dd1"><path d="m157.57 60.33c0-.19-.11-.37-.17-.56a3.24 3.24 0 0 1 -.23-1.07c.06-2.44-1.74-4-3.51-5.28l-.1-.07-.27-.2c0-.08 0-.2.06-.28s.05-.25.07-.37a1.91 1.91 0 0 1 .14-.53 3 3 0 0 0 .14-2.15 4.88 4.88 0 0 1 -.11-.84 6.67 6.67 0 0 0 -3.16-5.34 5.73 5.73 0 0 0 -3.11-.69h-.31a8 8 0 0 0 -5.88 1.76 3 3 0 0 1 -.65.42 8.62 8.62 0 0 0 -3.4 3.93 4.36 4.36 0 0 0 -.18 2.71 1.31 1.31 0 0 0 1.6 1 2.15 2.15 0 0 0 1.51-1.28 2.85 2.85 0 0 1 1-1.12 11.84 11.84 0 0 1 4.19-1.72 2.27 2.27 0 0 1 1.81.35 4.34 4.34 0 0 1 2 3.28 1 1 0 0 1 -.4.95 7.86 7.86 0 0 1 -3.89 1.71c-.69.06-1.38.15-2.07.23-.89.1-1.77.21-2.67.28a17.91 17.91 0 0 1 -3.13 0l-1-.1a30.39 30.39 0 0 1 -5-.76 4.12 4.12 0 0 0 -.83-.11h-.2c-.93-.07-1-.1-1.13-.92l-.07-.34a6.45 6.45 0 0 1 -.21-1.65 6.61 6.61 0 0 0 -.21-1.67 1 1 0 0 0 -.49-.68 1.07 1.07 0 0 0 -.89-.05 3.76 3.76 0 0 0 -1.55.92l-1.08 1.15-.93 1a1.64 1.64 0 0 0 -.48.79c-.09.51-.37.7-1.21.88a12.89 12.89 0 0 0 -7.12 4.09l-.4.46a5 5 0 0 1 -2.38 1.84 1 1 0 0 0 -.63 1.06 2.21 2.21 0 0 0 1.59 1.93 11.6 11.6 0 0 0 3.92-.16 3.67 3.67 0 0 1 1.36-.23.46.46 0 0 1 .19.19s0 .08-.05.2-.16.21-.19.22l-.28.09c-.34.11-.68.21-1 .3a5.05 5.05 0 0 0 -2.57 1.68 1 1 0 0 0 -.25.93 1.06 1.06 0 0 0 .69.72 2 2 0 0 0 1 .08 2.63 2.63 0 0 1 .37 0h.19a7.14 7.14 0 0 0 1.82-.7 9.23 9.23 0 0 1 .95-.43l.48-.16a7.06 7.06 0 0 0 1.38-.58l.18-.11h.11c1.17.18 2 .36 2.48 1.21.37.61.76 1.21 1.15 1.81l.68 1.05a7.24 7.24 0 0 1 .37.68 6.14 6.14 0 0 0 .64 1.11 15.62 15.62 0 0 0 3.76 3.81 1.55 1.55 0 0 1 .72 1.9c-.06.27-.13.54-.2.81l-.14.53c0 .08 0 .15-.07.23a2.45 2.45 0 0 0 -.15.83 9.27 9.27 0 0 1 -.56 3c-.1.34-.21.69-.3 1a2.12 2.12 0 0 1 -.08.22 2 2 0 0 0 -.17.63 5 5 0 0 1 -1.37 2.8l-.62.73-.67.81a5.33 5.33 0 0 0 -.47.73.84.84 0 0 0 0 .8.94.94 0 0 0 .73.5 1.81 1.81 0 0 0 1.21-.27v.5l1.28.51.2-.06a.78.78 0 0 0 .57-.34c.52-.83 1-1.66 1.53-2.5.21-.36.4-.72.59-1.08a18.3 18.3 0 0 1 1-1.7 10.84 10.84 0 0 0 1.8-5.17 4.93 4.93 0 0 1 2.17-3.54h.06c1.12.1 2.09.2 2.72 1a5.42 5.42 0 0 1 1.32 2.57 9.18 9.18 0 0 0 .57 2.06 5.74 5.74 0 0 1 0 4.12 38.33 38.33 0 0 1 -2 4.86.64.64 0 0 0 0 .8c.34.37.77.16 1.14 0a.67.67 0 0 0 .71.18 1.83 1.83 0 0 0 .34-.18.79.79 0 0 0 .64.43.71.71 0 0 0 .44-.15 1 1 0 0 0 .62-.17 1.14 1.14 0 0 0 .46-1 6.32 6.32 0 0 1 .27-1.47 7.18 7.18 0 0 0 .31-1.77c0-.17.15-1 .29-1.82a39.56 39.56 0 0 0 .59-4.25c0-.69.08-1.39.16-2.07.06-.53.11-1.06.14-1.59 0-.86.1-1.73.19-2.59 0-.27 0-.29.32-.27a6.51 6.51 0 0 0 4.47-1.71 10.4 10.4 0 0 0 1-1 11.23 11.23 0 0 1 .82-.8l.1-.12a1.46 1.46 0 0 0 .18-.41l.08.23.08.15a1 1 0 0 1 .13.69c-.09.82-.17 1.65-.25 2.48l-.11 1.08a10.74 10.74 0 0 0 0 1.69 10.46 10.46 0 0 1 0 1.42 1.18 1.18 0 0 0 .6 1.25l.31.12.25-.11a.64.64 0 0 0 .29-.25c.38.16.75.28 1 0a1.37 1.37 0 0 0 .34-.74v-.07h.1a1.31 1.31 0 0 0 1-.31l.2-.33-.1-.32-.11-.35a10.93 10.93 0 0 1 -.53-4.49 21 21 0 0 1 .71-3.14c.12-.43.24-.86.35-1.29a12.59 12.59 0 0 0 .37-2.56v-.67c0-.9.09-1.83.07-2.76a12.44 12.44 0 0 0 -.08-2.91z"/><path d="m108.65 91.68-.23-.21a4.24 4.24 0 0 0 -1.43-1 7.11 7.11 0 0 1 -2.68-2c-.37-.38-.75-.78-1.17-1.14a4 4 0 0 0 -1.29-1.39 6 6 0 0 1 -.6-.5 3 3 0 0 0 -1.7-.8c-.5-.08-1-.19-1.5-.31l-.74-.16a6 6 0 0 1 -3.65-2.47c-.44-.59-.89-1.17-1.39-1.83l-1.47-1.97-.3 1.16a23.09 23.09 0 0 0 -.88 5.08c0 1.05-.38 1.54-1.2 1.69a1.83 1.83 0 0 0 -.48.18l-.16.07-.78.27a9.11 9.11 0 0 1 -1.77.5l-.85.11c-.59.07-1.18.15-1.76.24a12.7 12.7 0 0 1 -2.39.09h-1.78l-1.19-.29a19.78 19.78 0 0 1 -4.88-1.65 4.33 4.33 0 0 0 -.61-.26c-.37-.13-.6-.22-.69-.41a4.35 4.35 0 0 1 -.26-1.68v-.43-.22a2.66 2.66 0 0 1 1.91-3 16.84 16.84 0 0 1 4.54-.76 3 3 0 0 1 1.49.34 5.94 5.94 0 0 1 2.7 2.17 1.07 1.07 0 0 0 .89.44 1.1 1.1 0 0 0 1-.69 1.51 1.51 0 0 0 0-1.21c-.11-.29-.22-.71-.34-1.14a13.09 13.09 0 0 0 -.51-1.5 3.86 3.86 0 0 0 -1.22-1.57 9.26 9.26 0 0 0 -3.33-1.73 16.14 16.14 0 0 0 -4.8-.28h-.73a10 10 0 0 0 -1.94.28 6.56 6.56 0 0 0 -3.8 2.64 6.76 6.76 0 0 0 -.9 3.92 7.69 7.69 0 0 1 0 1.08 7 7 0 0 0 0 1.59c0 .23.07.48.1.46a4.17 4.17 0 0 1 -.57.28 4 4 0 0 0 -.56.28 19.66 19.66 0 0 0 -4.14 3.69 7.3 7.3 0 0 0 -1.67 3.74 16.59 16.59 0 0 0 -.14 3.41v.55a33.46 33.46 0 0 0 1.11 6.88l.26 1.13a15 15 0 0 1 .27 2.17c0 .53.08 1.06.16 1.59a1.34 1.34 0 0 1 -.19.83c-.22.42-.43.84-.63 1.27a1.16 1.16 0 0 0 -.08.93 1.11 1.11 0 0 0 .67.58 1.3 1.3 0 0 0 .83 0h.11l.05.07a1.46 1.46 0 0 0 .62.55.93.93 0 0 0 1.1.21 1.31 1.31 0 0 0 .61-.75l.06-.13a28.16 28.16 0 0 0 1.82-5l.14-.46a4 4 0 0 0 -.24-3 5.37 5.37 0 0 1 -.36-.9.28.28 0 0 1 0-.08l.15.14c.12.09.16.25.23.53 0 .09 0 .19.08.28a4 4 0 0 0 1.69 2.26 8.71 8.71 0 0 0 5 1.76c.08 0 .12 0 .25.26a.38.38 0 0 1 0 .31 10.86 10.86 0 0 0 -.41 2.75l-.07 1a5.59 5.59 0 0 0 .39 3.22 9.8 9.8 0 0 1 .83 3.08l.07.44a13.88 13.88 0 0 1 0 3.16c0 .4-.05.79-.07 1.26s0 .87.31 1.11a.66.66 0 0 0 .4.13 2.37 2.37 0 0 0 .81-.23.73.73 0 0 0 .32-.25 1.62 1.62 0 0 0 1 .06 1.79 1.79 0 0 0 1.06-.81h.22a2.72 2.72 0 0 1 .34.27c.28.25.64.56 1.05.32a.67.67 0 0 0 .29-.77 16.65 16.65 0 0 0 -1.19-3.26 10.37 10.37 0 0 1 -.45-1.22 7.88 7.88 0 0 1 -.25-3.83 5.37 5.37 0 0 0 .06-.57 1.53 1.53 0 0 1 .26-.92 3.11 3.11 0 0 0 .48-1.1 2.56 2.56 0 0 1 .29-.75 4.33 4.33 0 0 1 2.81-1.51c.3-.07.46.05.85.43a3.45 3.45 0 0 0 .67.55l.11.11.11.12a2.58 2.58 0 0 1 .77 1.28 21.68 21.68 0 0 0 1.08 3.64l.44 1a35.36 35.36 0 0 1 1.79 4.52c.06.21.38 1.24 1.07 1.24a.69.69 0 0 0 .6-.41h.13a1.26 1.26 0 0 0 .92-.19c.52-.36.52-.36 1.12-.06a1 1 0 0 0 1.08-.38 1 1 0 0 0 0-1 2.82 2.82 0 0 0 -1.69-1.2 2.53 2.53 0 0 1 -1.43-1.36 4.51 4.51 0 0 1 -.5-2.11v-2.07-2.71a6.77 6.77 0 0 1 1.79-5l.43-.45c.67-.7 1.34-1.4 2-2.09 1.16-1.16 2.2-2.43 3.21-3.66.69-.85 1.41-1.72 2.15-2.54a1.28 1.28 0 0 1 1.25-.48 1.58 1.58 0 0 1 .8.4 7.06 7.06 0 0 0 3.76 1.66 3.25 3.25 0 0 1 .75.2l.17.06a1 1 0 0 0 1.15-.2 1.14 1.14 0 0 0 .23-1.39 3.58 3.58 0 0 0 -1.14-1.4 10.35 10.35 0 0 1 -1.46-1.21c-.14-.14-.19-.24-.21-.22a.75.75 0 0 1 .31-.16 2.33 2.33 0 0 1 1.69 0 4.4 4.4 0 0 0 .68.22 6.1 6.1 0 0 0 2.36.06 1.14 1.14 0 0 0 .93-.79 1.12 1.12 0 0 0 -.38-1.08z"/><path d="m207.14 47.13v-.1a2.72 2.72 0 0 0 -.52-.81 2.22 2.22 0 0 1 -.61-1.82c.06-1.06.06-2.14 0-3.18a33.59 33.59 0 0 1 .17-4.48v-.25a29.7 29.7 0 0 0 .36-5.86 3.87 3.87 0 0 1 0-.69v-.46-.46a12.48 12.48 0 0 0 .06-1.29c0-1.07-.07-2.14-.11-3.2l-.05-1.28a5 5 0 0 0 -.25-1.36c-.79-2.44-2.49-3.78-4.35-3.41h-.21-.44a.5.5 0 0 1 0-.29 10 10 0 0 0 -2.18-5.85 2.46 2.46 0 0 0 -3.2-.95 6.69 6.69 0 0 0 -3.29 2.27 12.33 12.33 0 0 1 -1.51 1.83 12.53 12.53 0 0 0 -1.84 2.14 2.31 2.31 0 0 1 -1.53 1c-.79.18-1 .1-1.58-1a1.51 1.51 0 0 1 -.07-.43 3.8 3.8 0 0 0 -.06-.5l-.1-.41-.36-.09h-.46l-.06.07h-.07a1.38 1.38 0 0 0 -.81 1.09v.34c0 .42-.06.83-.05 1.25a5.34 5.34 0 0 0 .34 1.86 1.62 1.62 0 0 0 1.83 1.16 7.54 7.54 0 0 0 1.66-.19 5.32 5.32 0 0 1 1.38-.12 14 14 0 0 0 6-1 1.58 1.58 0 0 1 .27-.08l.21-.05c.24.09.36.28.49.58a1.39 1.39 0 0 1 -.31.68 3.53 3.53 0 0 1 -1.06.45l-.19.06a17.29 17.29 0 0 1 -3.3.58c-.49.05-1 .11-1.47.18a31.1 31.1 0 0 1 -8.74-.08l-1-.11a13.73 13.73 0 0 1 -2-.3c-.28-.07-.55-.16-.82-.25a5.46 5.46 0 0 0 -2.32-.4.36.36 0 0 1 -.08-.33 9.23 9.23 0 0 0 .14-2.44v-.91a5.63 5.63 0 0 0 -.49-2.17 1.18 1.18 0 0 0 -.83-.7 1.28 1.28 0 0 0 -1.14.27 6.66 6.66 0 0 0 -1.53 2 5.85 5.85 0 0 1 -1.77 2 1.36 1.36 0 0 1 -.76.31 7.51 7.51 0 0 0 -3.62 1.07l-.29.14-.59.31a8.16 8.16 0 0 1 -1 .49 4.32 4.32 0 0 0 -2.4 2.24 7.62 7.62 0 0 1 -3.77 3.57 6.23 6.23 0 0 0 -.82.48l-.17.11a1.1 1.1 0 0 0 0 1.94 2.43 2.43 0 0 0 1.53.42c.33 0 .66-.07 1-.12l1.65-.23 2.43-.34h.08a.17.17 0 0 1 -.11.08h-.21a2.43 2.43 0 0 0 -.41.07l-1.09.33-.4.13a2.1 2.1 0 0 0 -1.37 1.72 1 1 0 0 0 .6 1.14 3.2 3.2 0 0 0 1.57.24 17.68 17.68 0 0 0 3.08-.29 6.22 6.22 0 0 1 2.24-.1 9.24 9.24 0 0 0 2.63 0 .79.79 0 0 1 .76.22c.53.52 1 1.1 1.52 1.67a6 6 0 0 0 2.64 1.95c.19.06.23.14.24.28a5.82 5.82 0 0 0 1.8 3.42 4.65 4.65 0 0 1 1.18 3.94c-.08.73-.14 1.53-.17 2.5v.3a12.2 12.2 0 0 1 -.88 5 3.93 3.93 0 0 1 -1.5 1.85l-.19.11a4.09 4.09 0 0 0 -1.55 1.27l-.23.4.34.32a.85.85 0 0 0 .91.13l.29.27a1 1 0 0 0 1.07.09v.08l.29.23a.66.66 0 0 0 .64.1l.36.15a.88.88 0 0 0 .72 0 1 1 0 0 0 .52-.64 3.29 3.29 0 0 1 1.49-1.94 2.37 2.37 0 0 0 .79-.94l.06-.11a71.89 71.89 0 0 0 3.2-6.67l.14-.33a8.33 8.33 0 0 0 .48-1.76 8.34 8.34 0 0 1 .41-1.31l.13-.36c.27-.76.88-1.06 1.85-1.47.07 0 .19 0 .28.11a3.89 3.89 0 0 1 1.48 2.19 15.94 15.94 0 0 1 .61 4.54 28.57 28.57 0 0 1 -.72 5.84 19.44 19.44 0 0 1 -.82 2.44c-.14.37-.29.75-.42 1.13l-.13.37 1 .91.39-.47.12-.13.06.05a1.05 1.05 0 0 0 1.32.23l.34-.12.08.07a3.34 3.34 0 0 0 .36.32 1.82 1.82 0 0 0 1 .4 1.11 1.11 0 0 0 .31 0 1.62 1.62 0 0 0 .94-1 2.86 2.86 0 0 0 .1-1.52 9.31 9.31 0 0 1 .36-3.54l.08-.34a28.75 28.75 0 0 1 .89-2.93c.15-.43.29-.86.43-1.29l.14-.43a11.06 11.06 0 0 0 .8-5.36.75.75 0 0 1 0-.11.89.89 0 0 1 .06-.2 3.81 3.81 0 0 0 2.09-.79l.37-.23.35-.2a4.3 4.3 0 0 0 2.33-2.35.39.39 0 0 1 .16-.07.25.25 0 0 0 0 .07 4.08 4.08 0 0 0 -.11 1.79v.43c0 .7.12 1.4.21 2.09a22.54 22.54 0 0 1 .22 2.94 2.17 2.17 0 0 0 .13.83 1.43 1.43 0 0 1 0 .24 1.19 1.19 0 0 0 1.09 1.21 1.23 1.23 0 0 0 1.23-.89 2 2 0 0 1 .14-.28l.11-.18v.18c.17.61.33 1.19.85 1.27a.71.71 0 0 0 .72-.36l.07-.16a4.76 4.76 0 0 1 .18-.53l.05.07a1.25 1.25 0 0 0 .92.65.86.86 0 0 0 .34-.08h.13l.2-.28c.41-.38.26-.73-.1-1.5z"/><path d="m62.277 138.5a10.21 10.21 0 0 0 -1.5-.64 13.25 13.25 0 0 1 -2.61-1.34 6.48 6.48 0 0 1 -2.28-2.52 2.31 2.31 0 0 0 -1.35-1.12l-1.33-.48c-.72-.27-1.44-.53-2.18-.76a3.65 3.65 0 0 1 -1.66-1.07l-.55-.57a6.57 6.57 0 0 1 -1.4-1.76 2.45 2.45 0 0 0 -.67-.79l-.19-.17a1.44 1.44 0 0 0 -1.34-.41 1.37 1.37 0 0 0 -.95.94 5.15 5.15 0 0 0 -.31 2 2.54 2.54 0 0 1 -.49 1.54c-.07.12-.12.17-.11.17a11.63 11.63 0 0 0 -1.13.43 6.94 6.94 0 0 1 -1.53.51c-1.81.3-3.17.58-4.43.91a10.23 10.23 0 0 1 -5.19 0l-.25-.07a9 9 0 0 0 -3-.43 1.51 1.51 0 0 1 -.34-1 1.08 1.08 0 0 1 .33-.63c1.3.31 2.59.62 3.89.95a8.49 8.49 0 0 0 3.78 0 .89.89 0 0 0 .65-.52.92.92 0 0 0 -.07-.85 8.2 8.2 0 0 1 -.37-1.2 6 6 0 0 0 -.61-1.73 1.91 1.91 0 0 1 -.15-.28 1.34 1.34 0 0 0 -1.44-1 1.26 1.26 0 0 0 -1 .95 2.14 2.14 0 0 1 -.1.25.75.75 0 0 1 -.43.42 1.2 1.2 0 0 1 -.96-.23l-.39-.24a8.88 8.88 0 0 1 -2.14-1.58 14.89 14.89 0 0 0 -1.76-1.9l-.48-.46a3.23 3.23 0 0 0 -2.9-1 3 3 0 0 0 -2.14 1.92l-.09.21a8.5 8.5 0 0 0 -.92 4.07 2.82 2.82 0 0 1 -.05.63 4.82 4.82 0 0 0 -.07.7c0 .92-.26 1.57-.5 1.6a3 3 0 0 0 -2.34 1.67 16.88 16.88 0 0 0 -2.22 10.17c0 .44.06.87.09 1.31a25.29 25.29 0 0 0 .78 5.52 2 2 0 0 1 0 .63v.26a15.27 15.27 0 0 1 -1 4.26l-.25.78a2.4 2.4 0 0 1 -.21.28c-.35.45-.83 1.07-.45 1.63l.08.09a.79.79 0 0 0 .81.19.79.79 0 0 0 .21.2.64.64 0 0 0 .45.16v.11a.76.76 0 0 0 .63.44.84.84 0 0 0 .73-.38c.13-.19.28-.39.43-.61a8.06 8.06 0 0 0 1.38-2.43c.12-.46.25-.91.37-1.36s.24-.87.36-1.31l.09-.34c.38-1.41.81-3 0-4.62 0 0 .09-.11.14-.1a4.84 4.84 0 0 1 .3.47l.16.27a7.53 7.53 0 0 0 5 3.87l.81.13.57.09a.32.32 0 0 1 .18.07.18.18 0 0 1 0 .1 18.21 18.21 0 0 1 -.47 2 3.28 3.28 0 0 0 0 2l.08.28a9.75 9.75 0 0 0 .77 2 4.92 4.92 0 0 1 .51 1.71l.1.66c.08.48.15 1 .2 1.44v.52c.11 1.23.22 2.49.24 3.73a8.21 8.21 0 0 0 .53 3.1l.23.56.55-.26a2.9 2.9 0 0 0 .43-.28l.15-.11a1 1 0 0 0 1 .5 2 2 0 0 0 .76-.41l.16.22a.88.88 0 0 0 .92.2 1.09 1.09 0 0 0 .72-.9 3 3 0 0 0 -.3-1.47 21.4 21.4 0 0 1 -1.21-8.09 14.76 14.76 0 0 1 .56-3.66 3.52 3.52 0 0 1 2.52-2.48h.11c1 .59 2 1.14 2.33 2.18l.23.7a14.07 14.07 0 0 1 .79 3.18 6.42 6.42 0 0 0 1 3 3.67 3.67 0 0 1 .61 1.74 3.19 3.19 0 0 0 1.12 2.27l.16.11c.27.17.78.49 1.2.15a.69.69 0 0 0 .25-.52.74.74 0 0 0 .46-.22l.11-.13h.08a6.1 6.1 0 0 0 .59.3l.12.1a1.11 1.11 0 0 0 .82.36.92.92 0 0 0 .64-.35c.42-.5 0-1.06-.15-1.3a1.78 1.78 0 0 1 -.11-.17 3.58 3.58 0 0 0 -.3-.47 21.49 21.49 0 0 1 -2.71-5.33l-.11-.29a6.34 6.34 0 0 1 -.3-3.48c0-.11 0-.22.06-.33a4.79 4.79 0 0 0 .13-1 5.08 5.08 0 0 1 .46-2 7.47 7.47 0 0 0 .45-1.6c.29-1.62.29-1.62 1.85-2.45a11.48 11.48 0 0 0 4.38-3.53 5.13 5.13 0 0 1 .52-.61 6 6 0 0 0 .67-.81c.09-.13.16-.17.19-.17s.1 0 .19.13a5.16 5.16 0 0 0 3.92 1.5c.82 0 1.64 0 2.43-.07h1a1.43 1.43 0 0 0 .55-.11 1.13 1.13 0 0 0 .6-.46.93.93 0 0 0 -.34-1.25c-.26-.21-.52-.41-.79-.62l-.44-.32a3.58 3.58 0 0 1 -.34-.26c-.08-.08-.1-.12-.1-.13s0-.08.14-.18a.41.41 0 0 1 .3-.13 7.8 7.8 0 0 0 3.91-1.37l.49-.28a1.14 1.14 0 0 0 .58-1 1.18 1.18 0 0 0 -.59-1.04z"/><path d="m91.367 213.33c-.17.18-.34-.07-.18-.33a4.08 4.08 0 0 1 1.25-.95c12.13-6.46 22.73-15.89 33.42-24.23 6-4.69 11.68-9.93 17.69-14.64 3.43-2.69 6.33-5.57 9.64-8.36a136.36 136.36 0 0 0 13.25-13.12 10.78 10.78 0 0 1 1-1.11c.44-.4 1.51-1.94 1.87-1.54s-.42 1.14-.83 1.59c-1.67 1.82-3 3.75-4.79 5.45-6.29 6-12.68 12-19.23 17.72-5.25 4.59-10.91 9.11-16.27 13.6-7.45 6.24-15.68 12.18-23.14 17.75-4.35 3.27-13.33 7.84-13.68 8.17z"/><path d="m187.36 155.61a3.37 3.37 0 0 1 -3.69-2.1c-.49-1-1.14-1.16-2-1.79-.35-.25-.73-.39-.44-.8s.53-.3.87-.07c.6.41 1.42.84 1.67 1.44 1.22 3 3.75 2.74 6.32 2.38.84-.12 2.56-.45 2.54.22s-1.59.61-2.51.75-1.85-.12-2.76-.03z"/><path d="m193.62 138.21c-1.31 0-1.66 1-1.69 2a1.44 1.44 0 0 0 1.49 1.61c1 0 1.94-.44 2-1.72-.13-1.1-.5-1.92-1.8-1.89zm.54 2.58a.72.72 0 0 1 -1.09-.14c-.32-.41-.49-.88 0-1.31s.9-.22 1.3.14a.89.89 0 0 1 -.21 1.31z"/><path d="m176.22 165.24c-1.06-.65-1.78-2-1.52-2.75 1.05-3.27-1-2.63-2.81-2.63-1.47 0-2.95-.22-4.42-.31a7.8 7.8 0 0 0 -4.94 1.2c-1.14.76-2.13 1.69-1.58 3.25a3.11 3.11 0 0 0 3.16 2.24c2.3 0 5.21.41 6.89.49a43.43 43.43 0 0 0 4.74-.07c.4 0 .91-.12 1-.45a1 1 0 0 0 -.52-.97zm-.68.66c-1 .34-4 0-4.66 0-2.4-.28-5.38-.3-7.6-.65-.61-.1-1.29-1.09-1.43-1.83-.17-.9.82-1.84 1.4-2.17a6.64 6.64 0 0 1 2.19-.76c2.76-.49 5.89.32 8 .18 1.68-.16-.71 2.78 1.36 4.1 1.02.62 1.28.94.74 1.13z"/></g><path d="m70.257 35s-16.54 4.42-18.06 5.94-5.94 18.06-5.94 18.06-4.42-16.54-5.94-18.06-18.06-5.94-18.06-5.94 16.54-4.42 18.06-5.94 5.94-18.06 5.94-18.06 4.42 16.54 5.94 18.06 18.06 5.94 18.06 5.94z" fill="#ffdf30"/></svg>