<svg height="500" width="750.00433" xmlns="http://www.w3.org/2000/svg"><path d="m154.27457 333.36142h600.00006l2.13721 166.6797h-599.99994z" fill="#fcdd09" fill-rule="evenodd" stroke-width="1pt" transform="matrix(1 0 -.01282263 .99991779 0 0)"/><path d="m1.66659 1.66659h146.66682v496.66687h-146.66682z" fill="#0e0d02" stroke="#000" stroke-miterlimit="3.9" stroke-width="3.333179"/><g fill-rule="evenodd"><path d="m152.1373 166.68159h600.00006l2.13721 166.67971h-599.99994z" fill="#078930" stroke-width="1pt" transform="matrix(1 0 -.01282263 .99991779 0 0)"/><g fill="#fff"><path d="m150 0h600.00007l2.13723 166.6815h-599.99994z" stroke-width="1pt" transform="matrix(1 0 -.01282263 .99991779 0 0)"/><g stroke-width=".112872"><path d="m105.67491 133.10946-30.547231-23.92176-30.397544 24.15674 11.305524-39.255882-30.341783-24.2404 37.538335-.33798 11.643059-39.13677 11.89252 39.04665 37.53834.0515-30.186233 24.46894z"/><path d="m105.67491 469.39163-30.547231-23.92176-30.397544 24.15674 11.305524-39.25587-30.341783-24.2404 37.538335-.33798 11.643059-39.13677 11.89252 39.04665 37.53834.0515-30.186233 24.46894z"/><path d="m105.67491 245.20351-30.547231-23.92176-30.397544 24.15674 11.305524-39.25588-30.341783-24.2404 37.538335-.33798 11.643059-39.13677 11.89252 39.04665 37.53834.0515-30.186233 24.46894z"/><path d="m105.67491 357.29758-30.547231-23.92176-30.397544 24.15674 11.305524-39.25588-30.341783-24.2404 37.538335-.33798 11.643059-39.13677 11.89252 39.04665 37.53834.0515-30.186233 24.46894z"/></g></g></g></svg>