<svg height="600" width="900" xmlns="http://www.w3.org/2000/svg"><path d="m0 0h300v600h-300z" fill="#c00"/><path d="m300 0h300v600h-300z" fill="#fff"/><path d="m600 0h300v600h-300z" fill="#078930"/><g stroke="#000" stroke-width="10"><path d="m-82.011837 174.43788-67.197193-47.37989-66.24137 48.79378 24.29588-78.549522-66.87535-47.92117 82.21287-1.166384 24.91012-78.4107 26.51447 77.82866 82.270661-.539307-65.826031 49.267141z" transform="matrix(.49 0 0 .49 448.06785 340.45303)"/><path d="m-82.011837 174.43788-67.197193-47.37989-66.24137 48.79378 24.29588-78.549522-66.87535-47.92117 82.21287-1.166384 24.91012-78.4107 26.51447 77.82866 82.270661-.539307-65.826031 49.267141z" transform="matrix(.49 0 0 .49 596.04785 340.45303)"/><path d="m-82.011837 174.43788-67.197193-47.37989-66.24137 48.79378 24.29588-78.549522-66.87535-47.92117 82.21287-1.166384 24.91012-78.4107 26.51447 77.82866 82.270661-.539307-65.826031 49.267141z" transform="matrix(.49 0 0 .49 522.24287 182.12831)"/></g></svg>