<svg enable-background="new 0 0 1417.321 885.829" height="885.829" viewBox="0 0 1417.321 885.829" width="1417.321" xmlns="http://www.w3.org/2000/svg" xmlns:xlink="http://www.w3.org/1999/xlink"><linearGradient id="a"><stop offset=".3859" stop-color="#b07e09" stop-opacity="0"/><stop offset="1" stop-color="#b07e09"/></linearGradient><radialGradient id="b" cx="557.4688" cy="315.6768" gradientTransform="matrix(-1 0 0 1 1455.4219 0)" gradientUnits="userSpaceOnUse" r="44.441" xlink:href="#a"/><radialGradient id="c" cx="618.626" cy="230.8755" gradientTransform="matrix(-1 0 0 1 1455.4219 0)" gradientUnits="userSpaceOnUse" r="42.6067" xlink:href="#a"/><radialGradient id="d" cx="519.3687" cy="315.752" gradientUnits="userSpaceOnUse" r="44.4412" xlink:href="#a"/><radialGradient id="e" cx="580.5254" cy="230.9507" gradientUnits="userSpaceOnUse" r="42.6072" xlink:href="#a"/><radialGradient id="f" cx="710.6611" cy="441.0386" gradientUnits="userSpaceOnUse" r="492.2547"><stop offset=".3859" stop-color="#fff" stop-opacity="0"/><stop offset="1" stop-color="#fff"/></radialGradient><radialGradient id="g" cx="708.6611" cy="517.0063" gradientUnits="userSpaceOnUse" r="54.8617"><stop offset="0" stop-color="#0e2a4b" stop-opacity=".4"/><stop offset="1" stop-color="#0e2a4b"/></radialGradient><clipPath id="h"><path d="m768.161 230.311h-59.5-59.5c0 76.833-66.5 68.5-66.5 68.5v90.5h126 126v-90.5s-66.5 8.333-66.5-68.5z"/></clipPath><path d="m0 0h1417.321v885.829h-1417.321z" fill="#fff"/><path d="m896.411 328.465h-38.375l-.75-16.301 1.125-20.75 22 2.875 10.75 18.875z" fill="#f2cb27" stroke="#7a5722" stroke-miterlimit="10" stroke-width=".5"/><path d="m887.661 285.039s22.5-.5 22.5 23.75-17.75 19.25-17.75 19.25-12.5 1.5-15.25-18.5h-12.25l-2.5-15.125 13-9.376z" fill="#f2cb27" stroke="#7a5722" stroke-miterlimit="10" stroke-width=".5"/><path d="m887.661 284.963s22.5-.5 22.5 23.75-17.75 19.25-17.75 19.25-12.5 1.5-15.25-18.5h-12.25l-2.5-15.125 13-9.376z" fill="url(#b)"/><path d="m831.393 248.835-34.482.026-7.75-19.072 9-13.25 22.135 1.25 11.097 21.75z" fill="#f2cb27" stroke="#7a5722" stroke-miterlimit="10" stroke-width=".5"/><path d="m831.661 199.039s16.5.25 17.25 27.25-20 22.25-20 22.25-10.5-4-15.25-20.25l-14.764-.001-7.236-7.749 13.625-21.5z" fill="#f2cb27" stroke="#7a5722" stroke-miterlimit="10" stroke-width=".5"/><path d="m831.661 198.963s16.5.25 17.25 27.25-20 22.25-20 22.25-10.5-4-15.25-20.25l-14.764-.001-7.236-7.749 13.625-21.5z" fill="url(#c)"/><g fill="#f2cb27" stroke="#7a5722" stroke-miterlimit="10" stroke-width=".5"><path d="m520.911 328.465h38.375l.75-16.301-1.125-20.75-22 2.875-10.75 18.875z"/><path d="m585.929 248.835 34.482.026 7.75-19.072-9-13.25-22.135 1.25-11.097 21.75z"/><path d="m529.661 285.039s-22.5-.5-22.5 23.75 17.75 19.25 17.75 19.25 12.5 1.5 15.25-18.5h12.25l2.5-15.125-13-9.376z"/><path d="m585.661 199.039s-16.5.25-17.25 27.25 20 22.25 20 22.25 10.5-4 15.25-20.25l14.764-.001 7.236-7.749-13.625-21.5z"/></g><path d="m529.661 285.039s-22.5-.5-22.5 23.75 17.75 19.25 17.75 19.25 12.5 1.5 15.25-18.5h12.25l2.5-15.125-13-9.376z" fill="url(#d)"/><path d="m585.661 199.039s-16.5.25-17.25 27.25 20 22.25 20 22.25 10.5-4 15.25-20.25l14.764-.001 7.236-7.749-13.625-21.5z" fill="url(#e)"/><path d="m529.661 285.039s-22.5-.5-22.5 23.75 17.75 19.25 17.75 19.25 12.5 1.5 15.25-18.5h12.25l2.5-15.125-13-9.376z" fill="none"/><g stroke-miterlimit="10"><g stroke="#7a5722" stroke-width=".5"><g fill="#f2cb27"><path d="m811.661 251.039s-16-18.339-9.25-36.125c4.883-12.866 17.739-15.448 24.669-15.875h-116.919-1.5-1.5-116.918c6.929.427 19.785 3.009 24.668 15.875 6.75 17.786-9.25 36.125-9.25 36.125s-18.5 23.5-76 34c0 0 16.75 1.375 21 15v220.499c-.5 36.834 42.834 77.834 87.167 87.834 21.532 4.855 38.11.668 43.833 4.166 20.448 12.5 27 12.5 27 12.5s6.552 0 27-12.5c5.723-3.498 22.301.689 43.833-4.166 44.333-10 87.667-51 87.167-87.834v-220.499c4.25-13.625 21-15 21-15-57.5-10.5-76-34-76-34z"/><path d="m585.661 199.039h4.582c-2.76-.17-4.582 0-4.582 0z"/><path d="m827.08 199.039h4.581s-1.822-.17-4.581 0z"/><path d="m585.661 199.039h4.582c-2.76-.171-4.582 0-4.582 0z"/><path d="m827.08 199.039h4.581s-1.822-.171-4.581 0z"/></g><path d="m811.661 251.039s-16-18.339-9.25-36.125c4.883-12.866 17.739-15.448 24.669-15.875h-116.919-1.5-1.5-116.918c6.929.427 19.785 3.009 24.668 15.875 6.75 17.786-9.25 36.125-9.25 36.125s-18.5 23.5-76 34c0 0 16.75 1.375 21 15v220.5c-.5 36.833 42.834 77.833 87.167 87.833 21.532 4.856 38.11.669 43.833 4.167 20.448 12.5 27 12.5 27 12.5s6.552 0 27-12.5c5.723-3.498 22.301.689 43.833-4.167 44.333-10 87.667-51 87.167-87.833v-220.5c4.25-13.625 21-15 21-15-57.5-10.5-76-34-76-34z" fill="url(#f)"/></g><g stroke="#27391e"><path d="m668.161 718.039 11-13.91s-382-92.09-219.619-455.268c0 0-214.381 297.455 208.619 469.178z" fill="#aa962e" stroke-width=".75"/><path d="m448.546 265.289s-38.298-77.772 99.063-97.499c0 0-20.714 83.943-99.063 97.499z" fill="#67923d"/></g></g><g fill="#27391e"><path d="m449.296 265.153c4.886-10.667 11.245-20.609 18.163-30.079 6.959-9.457 14.715-18.32 23.047-26.594 8.39-8.214 17.372-15.835 26.929-22.653 4.783-3.403 9.69-6.626 14.719-9.647 5.043-2.996 10.188-5.819 15.455-8.39-10.337 5.521-20.293 11.734-29.723 18.66-9.431 6.923-18.377 14.504-26.679 22.742-8.357 8.182-16.069 17.017-23.134 26.341-3.537 4.659-6.892 9.458-10.042 14.391-3.162 4.923-6.144 9.973-8.735 15.229z"/><path d="m468.197 195.522c-.355 3.939-.771 7.871-1.163 11.806l-1.271 11.792-1.356 11.782c-.466 3.926-.89 7.857-1.395 11.778l-.524-.544c6.807-.516 13.607-1.105 20.418-1.562 6.809-.488 13.62-.949 20.438-1.321-6.787.75-13.582 1.413-20.378 2.048-6.794.666-13.599 1.2-20.398 1.807l-.591.053.067-.596c.44-3.929.962-7.848 1.44-11.772l1.478-11.768 1.563-11.757c.554-3.916 1.082-7.835 1.672-11.746z"/><path d="m485.897 184.853c-.62 5.729-1.321 11.446-2.053 17.16-.693 5.719-1.528 11.417-2.285 17.127l-.479-.551c3.417-.031 6.833.005 10.25.017l10.249.059c6.833.092 13.666.183 20.499.408-6.833.225-13.666.316-20.499.408l-10.249.059c-3.417.012-6.833.048-10.25.017l-.561-.005.081-.546c.849-5.697 1.62-11.405 2.532-17.092.875-5.695 1.779-11.384 2.765-17.061z"/><path d="m509.179 175.983c-.453 3.284-.946 6.561-1.49 9.828-.516 3.272-1.081 6.536-1.672 9.794l-.452-.543c2.594-.008 5.188-.063 7.782-.026l7.782.056 7.781.152c2.594.065 5.188.154 7.782.277-2.594.124-5.188.212-7.782.277l-7.781.152-7.782.056c-2.594.037-5.188-.018-7.782-.026l-.554-.001.102-.542c.614-3.254 1.252-6.504 1.941-9.745.662-3.243 1.373-6.48 2.125-9.709z"/></g><path d="m419.545 349.748s-19.569-72.791 87.931-93.791c0 0-10.958 32.875-31.315 53.667-3.459 3.534-29.421 15.333-29.421 15.333s-16.125 6.581-27.195 24.791z" fill="#67923d" stroke="#27391e" stroke-miterlimit="10"/><g fill="#27391e"><path d="m507.476 255.957c-4.008 3.599-8.012 7.199-11.973 10.847-3.98 3.626-7.94 7.275-11.867 10.958-7.861 7.358-15.674 14.766-23.28 22.383-7.655 7.566-15.126 15.319-22.253 23.377-3.561 4.03-7.02 8.154-10.239 12.459-3.201 4.303-6.3 8.761-8.319 13.766.879-2.549 2.127-4.959 3.494-7.283 1.37-2.326 2.868-4.572 4.43-6.772 3.151-4.381 6.554-8.573 10.054-12.675 7.026-8.186 14.52-15.95 22.129-23.581 7.675-7.568 15.487-14.995 23.465-22.238 7.982-7.237 16.069-14.361 24.359-21.241z"/><path d="m480.564 304.77c-4.366.319-8.735.54-13.104.738-4.369.215-8.741.319-13.111.484l-.452.017-.052-.452-.804-6.973c-.255-2.326-.546-4.647-.772-6.976l-.696-6.986c-.195-2.333-.424-4.662-.587-6.999.395 2.309.724 4.626 1.087 6.938l.979 6.952c.332 2.316.6 4.641.903 6.961l.871 6.964-.503-.434c4.373-.078 8.744-.217 13.118-.245 4.372-.043 8.746-.065 13.123.011z"/><path d="m476.238 264.671c.201 3.242.299 6.484.377 9.726.093 3.242.107 6.484.12 9.726l-.57-.493c3.342-.489 6.687-.964 10.042-1.37l5.034-.6c1.683-.162 3.361-.36 5.049-.491-1.654.361-3.318.655-4.977.985l-4.993.877c-3.33.579-6.669 1.088-10.011 1.583l-.573.084.002-.577c.013-3.242.027-6.484.12-9.726.081-3.24.179-6.482.38-9.724z"/><path d="m430.369 297.651c.866 1.944 1.704 3.899 2.51 5.866.796 1.971 1.621 3.931 2.393 5.911 1.566 3.951 3.056 7.931 4.52 11.921l-.439-.304c2.463.022 4.927.083 7.39.157 2.463.057 4.927.17 7.39.312-2.463.142-4.927.255-7.39.312-2.463.074-4.927.135-7.39.157l-.32.003-.119-.307c-1.531-3.964-3.036-7.938-4.464-11.942-.725-1.997-1.397-4.014-2.099-6.021-.691-2.01-1.35-4.032-1.982-6.065z"/></g><path d="m410.383 439.186s-36.44-70.5 71.03-124c0 0 13.47 74-71.03 124z" fill="#67923d" stroke="#27391e" stroke-miterlimit="10"/><g fill="#27391e"><path d="m481.413 315.186c-3.928 4.554-7.736 9.208-11.444 13.938-3.727 4.715-7.366 9.5-10.903 14.356-7.08 9.708-13.856 19.642-20.073 29.92-6.278 10.237-12.014 20.813-16.971 31.749-2.481 5.466-4.741 11.035-6.704 16.711-1.993 5.665-3.65 11.45-4.935 17.326 2.156-11.848 6.128-23.314 10.936-34.349 4.829-11.042 10.592-21.652 16.82-31.957 6.305-10.262 13.086-20.227 20.311-29.855 7.24-9.615 14.813-18.988 22.963-27.839z"/><path d="m452.877 331.886c.765 2.317 1.501 4.641 2.183 6.98.7 2.334 1.384 4.672 2.033 7.02l-.53-.343c4.058-.699 8.119-1.373 12.194-1.965 2.036-.308 4.081-.561 6.12-.843 2.042-.271 4.089-.51 6.141-.719-2.011.456-4.028.883-6.049 1.276-2.023.382-4.042.795-6.069 1.153-4.051.738-8.116 1.395-12.185 2.026l-.426.066-.105-.409c-.604-2.359-1.174-4.728-1.728-7.101-.573-2.368-1.09-4.751-1.579-7.141z"/><path d="m439.936 342.01c.408 1.822.771 3.651 1.152 5.478.385 1.826.716 3.661 1.076 5.491.347 1.833.722 3.66 1.039 5.497l.984 5.507-.38-.384c2.528.432 5.054.874 7.573 1.359l7.562 1.417c5.031 1.003 10.062 2.004 15.067 3.147-5.09-.677-10.154-1.496-15.218-2.313l-7.581-1.313c-2.529-.425-5.051-.892-7.57-1.371l-.328-.062-.053-.322-.909-5.52c-.315-1.837-.571-3.686-.855-5.528-.271-1.846-.571-3.686-.817-5.535-.251-1.849-.52-3.694-.742-5.548z"/><path d="m459.417 395.606c-5.526.175-11.051.204-16.575.243l-8.286-.038c-2.762-.001-5.524-.033-8.285-.091l-.275-.006-.131-.232c-2.009-3.564-4.048-7.112-5.996-10.711-.979-1.797-1.982-3.58-2.94-5.389-.959-1.809-1.936-3.606-2.871-5.429 1.101 1.727 2.161 3.478 3.238 5.218 1.078 1.74 2.111 3.506 3.169 5.258 2.125 3.498 4.158 7.048 6.222 10.582l-.405-.238c2.762.002 5.524.03 8.285.089l8.285.142c5.522.158 11.044.307 16.565.602z"/></g><path d="m438.424 546.306s-107.93 3.732-92.042-134.306c0 0 26.453 22.827 36.547 28.795 10.097 5.97 42.565 5.436 55.495 105.511z" fill="#67923d" stroke="#27391e" stroke-miterlimit="10"/><g fill="#27391e"><path d="m346.383 412c2.687 6.298 5.61 12.49 8.63 18.631 3 6.15 6.121 12.241 9.367 18.264 6.485 12.047 13.373 23.881 20.875 35.319 7.44 11.474 15.486 22.561 24.25 33.058 4.379 5.251 8.96 10.335 13.774 15.192 4.792 4.879 9.826 9.528 15.146 13.841-5.421-4.184-10.572-8.72-15.491-13.494-4.896-4.797-9.554-9.838-14.017-15.042-8.913-10.427-16.978-21.552-24.5-33.01-7.449-11.51-14.364-23.361-20.714-35.506-6.339-12.146-12.22-24.54-17.32-37.253z"/><path d="m378.827 436.539c-1.055 4.354-2.211 8.678-3.385 12.998-.568 2.165-1.198 4.313-1.804 6.466l-1.832 6.458-.145.512-.5-.183-6.478-2.363c-2.155-.799-4.325-1.558-6.469-2.39l-6.444-2.457c-2.135-.854-4.283-1.675-6.408-2.559 2.203.667 4.383 1.396 6.575 2.091l6.539 2.193c2.184.718 4.342 1.509 6.515 2.26l6.505 2.288-.645.329 1.917-6.434c.644-2.143 1.264-4.293 1.945-6.426 1.326-4.272 2.669-8.542 4.114-12.783z"/><path d="m359.16 501.707c6.266-.191 12.532-.292 18.797-.366 6.266-.103 12.532-.077 18.798-.122l-.453.305c1.304-3.294 2.683-6.557 4.021-9.837l4.055-9.822 4.133-9.791c1.408-3.251 2.792-6.512 4.234-9.75-1.223 3.326-2.504 6.629-3.761 9.942l-3.862 9.901-3.94 9.869c-1.327 3.284-2.614 6.585-3.975 9.855l-.128.307-.325-.002c-6.266-.045-12.532-.02-18.798-.122-6.265-.076-12.531-.177-18.796-.367z"/><path d="m381.999 527.805c6.066-.23 12.132-.319 18.197-.416l9.099-.055c3.033-.021 6.065-.038 9.099-.008l-.438.286c1.947-4.334 3.843-8.691 5.852-12.998 1.975-4.322 3.982-8.63 6.056-12.908-1.749 4.421-3.565 8.813-5.414 13.19-1.814 4.393-3.742 8.735-5.618 13.101l-.122.283-.316.003c-3.033.03-6.066.014-9.099-.008l-9.099-.055c-6.065-.095-12.131-.184-18.197-.415z"/></g><path d="m454.494 550.039s-103.333-52.667 9.333-150c0 0-1.334 19.334 3.333 28.667s23.5 46.333-7 82.667c.001 0-19.666 19.999-5.666 38.666z" fill="#67923d" stroke="#27391e" stroke-miterlimit="10"/><g fill="#27391e"><path d="m463.828 400.039c-2.534 6.007-4.824 12.112-6.996 18.254-2.191 6.136-4.243 12.32-6.127 18.554-3.771 12.463-7.014 25.101-9.171 37.936-2.197 12.806-3.406 25.863-2.347 38.825.543 6.465 1.716 12.907 3.91 19.023 2.153 6.113 5.42 11.902 9.947 16.612-4.644-4.595-8.082-10.333-10.406-16.443-2.309-6.134-3.576-12.616-4.217-19.123-.65-6.516-.595-13.08-.188-19.602.42-6.525 1.233-13.019 2.317-19.46 2.248-12.873 5.488-25.552 9.424-37.994 3.95-12.438 8.513-24.684 13.854-36.582z"/><path d="m465.947 425.669c-1.229 1.002-2.493 1.952-3.741 2.926l-3.804 2.836c-2.546 1.877-5.124 3.708-7.719 5.514l-.437.304-.271-.455c-1.442-2.423-2.882-4.849-4.254-7.315-1.389-2.455-2.758-4.923-4.046-7.44 1.62 2.317 3.16 4.682 4.678 7.06 1.536 2.368 3.004 4.776 4.47 7.185l-.708-.15c2.588-1.817 5.192-3.609 7.83-5.356l3.97-2.599c1.343-.839 2.669-1.7 4.032-2.51z"/><path d="m474.719 448.154c-5.009 2.05-10.064 3.972-15.119 5.896l-7.61 2.808c-2.538.933-5.071 1.878-7.625 2.768l-.343.119-.208-.285c-2.583-3.548-5.222-7.054-7.752-10.641-2.561-3.564-5.096-7.148-7.568-10.779 2.764 3.414 5.464 6.875 8.139 10.354 2.706 3.457 5.302 6.995 7.955 10.491l-.55-.166c2.533-.947 5.085-1.839 7.634-2.742l7.649-2.701c5.118-1.748 10.235-3.5 15.398-5.122z"/><path d="m477.978 471.706c-3.192 1.559-6.41 3.061-9.617 4.586l-9.661 4.486-9.696 4.411c-3.238 1.457-6.458 2.952-9.71 4.376l-.362.159-.229-.313c-3.676-5.018-7.409-9.994-11.039-15.046-3.653-5.036-7.285-10.087-10.843-15.192 3.866 4.877 7.659 9.808 11.431 14.755 3.794 4.93 7.487 9.937 11.235 14.901l-.592-.154c3.229-1.479 6.489-2.885 9.731-4.331l9.747-4.296 9.78-4.221c3.273-1.377 6.536-2.777 9.825-4.121z"/></g><path d="m611.661 683.539s6-43-3-58.5-37-41-37-41-32-30-36-34c0 0-30 108 76 133.5z" fill="#67923d" stroke="#27391e" stroke-miterlimit="10"/><g fill="#27391e"><path d="m535.661 550.039c2.346 6.008 4.829 11.96 7.372 17.885 2.521 5.934 5.109 11.838 7.781 17.704 5.336 11.733 10.896 23.368 16.922 34.76 5.964 11.42 12.369 22.617 19.455 33.374 3.543 5.376 7.28 10.629 11.314 15.649 4.014 5.03 8.322 9.854 13.156 14.128-9.871-8.357-17.845-18.704-25.109-29.35-7.241-10.702-13.656-21.933-19.7-33.338-5.963-11.451-11.545-23.097-16.737-34.911-2.589-5.911-5.104-11.853-7.531-17.831-2.396-5.99-4.73-12.005-6.923-18.07z"/><path d="m575.404 587.532c-1.969 4.063-4.026 8.08-6.102 12.086-2.062 4.014-4.22 7.975-6.326 11.965l-.161.305-.343-.051-7.15-1.049c-2.381-.362-4.768-.689-7.146-1.08l-7.135-1.156c-2.373-.422-4.751-.811-7.12-1.265 2.401.223 4.793.512 7.19.767l7.175.874c2.392.286 4.776.636 7.164.95l7.16.982-.503.254c2.182-3.949 4.31-7.927 6.536-11.852 2.212-3.932 4.443-7.855 6.761-11.73z"/><path d="m562.51 575.449c-1.318 2.973-2.704 5.911-4.119 8.834-1.396 2.933-2.842 5.841-4.311 8.736l-.216.427-.435-.21c-3.66-1.771-7.293-3.597-10.914-5.447-3.606-1.88-7.216-3.754-10.763-5.754 3.75 1.587 7.438 3.301 11.13 5.008 3.677 1.736 7.341 3.499 10.979 5.314l-.651.217c1.486-2.887 2.996-5.762 4.555-8.611 1.538-2.86 3.108-5.705 4.745-8.514z"/><path d="m594.395 606.781c-1.352 2.666-2.761 5.3-4.139 7.951l-4.233 7.899c-1.398 2.64-2.866 5.241-4.295 7.864l-4.32 7.851-.164.299-.337-.047-8.568-1.188c-2.855-.401-5.714-.776-8.565-1.216-5.706-.84-11.409-1.698-17.099-2.662 5.743.561 11.472 1.226 17.199 1.91 2.866.322 5.723.709 8.584 1.07l8.58 1.099-.5.251 4.391-7.811c1.474-2.599 2.911-5.217 4.416-7.798l4.478-7.763c1.526-2.568 3.02-5.155 4.572-7.709z"/><path d="m608.661 625.039c-1.072 3.337-2.176 6.662-3.304 9.979l-3.424 9.936-3.514 9.903c-1.155 3.307-2.399 6.582-3.594 9.875l-.112.308-.324-.006-6.464-.107-6.464-.177c-4.309-.108-8.618-.269-12.926-.466 4.312-.1 8.623-.162 12.934-.173l6.466-.03 6.465.039-.435.302c1.183-3.297 2.317-6.611 3.539-9.895l3.619-9.865 3.709-9.833c1.25-3.274 2.523-6.537 3.829-9.79z"/></g><path d="m482.661 486.039s-55.219 94.486 31.259 144.403c-.001 0 38.741-60.403-31.259-144.403z" fill="#67923d" stroke="#27391e" stroke-miterlimit="10"/><g fill="#27391e"><path d="m482.661 486.039c.456 6.194.979 12.381 1.595 18.559.589 6.181 1.244 12.354 1.982 18.518 1.468 12.326 3.146 24.629 5.317 36.847 2.104 12.227 4.661 24.382 8.012 36.323 1.675 5.968 3.583 11.876 5.88 17.635 2.283 5.757 4.965 11.389 8.472 16.521-3.695-5.006-6.483-10.624-8.925-16.336-2.398-5.743-4.395-11.646-6.166-17.607-3.515-11.938-6.072-24.129-8.256-36.364-2.093-12.256-3.788-24.575-5.095-36.934-1.293-12.359-2.31-24.749-2.816-37.162z"/><path d="m470.828 514.755c2.723 2.021 5.38 4.121 8.025 6.236 2.654 2.104 5.258 4.268 7.861 6.432l-.625-.011c2.795-2.173 5.6-4.334 8.447-6.44l4.277-3.151c1.449-1.021 2.876-2.069 4.344-3.065-1.326 1.179-2.692 2.305-4.037 3.46l-4.104 3.373c-2.74 2.244-5.523 4.433-8.315 6.609l-.318.248-.307-.26c-2.586-2.185-5.171-4.371-7.705-6.617-2.546-2.235-5.078-4.485-7.543-6.814z"/><path d="m466.105 537.327c2.09 1.451 4.14 2.955 6.211 4.432l6.146 4.517c2.058 1.494 4.067 3.051 6.103 4.573l6.086 4.596-.535-.044 6.52-3.41c2.176-1.133 4.339-2.288 6.533-3.386 4.37-2.23 8.748-4.445 13.176-6.565-4.237 2.479-8.524 4.866-12.82 7.235-2.139 1.202-4.308 2.348-6.464 3.515l-6.478 3.49-.282.151-.253-.195-6.037-4.661c-2.005-1.563-4.036-3.092-6.019-4.683l-5.977-4.739c-1.969-1.611-3.959-3.193-5.91-4.826z"/><path d="m524.612 570.039c-4.682 2.532-9.411 4.966-14.148 7.385-2.36 1.228-4.75 2.393-7.127 3.586l-7.139 3.562-.22.109-.22-.109-7.17-3.561c-2.386-1.195-4.789-2.355-7.159-3.584l-7.128-3.646c-2.36-1.248-4.735-2.466-7.082-3.741 2.446 1.071 4.864 2.201 7.297 3.301l7.251 3.396c2.423 1.119 4.813 2.306 7.221 3.458l7.208 3.481h-.439l7.179-3.48c2.396-1.153 4.777-2.337 7.19-3.456 4.808-2.279 9.623-4.538 14.486-6.701z"/></g><path d="m410.958 448.878s76.61-53.114-42.215-143.379c0 0-24.359 89.727 42.215 143.379z" fill="#67923d" stroke="#27391e" stroke-miterlimit="10"/><g fill="#27391e"><path d="m368.743 305.499c4.817 11.527 9.293 23.194 13.601 34.922 4.301 11.731 8.34 23.559 12.167 35.456 3.742 11.923 7.284 23.917 10.245 36.065 2.904 12.145 5.494 24.446 6.203 36.936-.539-6.224-1.533-12.393-2.762-18.509-1.205-6.122-2.63-12.199-4.187-18.241-3.109-12.085-6.638-24.063-10.451-35.949-3.743-11.909-7.792-23.721-11.935-35.5-2.067-5.891-4.186-11.765-6.341-17.625-2.13-5.87-4.325-11.716-6.54-17.555z"/><path d="m368.743 385.352c5.824 3.396 11.591 6.885 17.348 10.388 2.89 1.734 5.741 3.529 8.611 5.296l8.597 5.318-.63.083 6.927-7.368c2.316-2.45 4.604-4.925 6.946-7.35l6.997-7.303c2.359-2.409 4.693-4.842 7.074-7.231-2.215 2.543-4.478 5.042-6.715 7.565l-6.793 7.494c-2.254 2.507-4.563 4.963-6.843 7.446l-6.863 7.428-.28.304-.35-.221-8.549-5.395c-2.846-1.805-5.709-3.581-8.535-5.417-5.672-3.638-11.336-7.291-16.942-11.037z"/><path d="m364.682 333.991c2.849.642 5.667 1.383 8.48 2.143 2.817.746 5.612 1.567 8.406 2.39l-.583.246c1.408-2.675 2.827-5.345 4.308-7.981l2.23-3.951c.777-1.299 1.523-2.615 2.327-3.9-.6 1.392-1.259 2.753-1.885 4.131l-1.982 4.081c-1.327 2.718-2.716 5.403-4.117 8.082l-.191.365-.393-.12c-2.787-.847-5.573-1.696-8.337-2.62-2.768-.909-5.53-1.838-8.263-2.866z"/><path d="m365.316 361.759c4.578 1.346 9.125 2.785 13.664 4.245 4.545 1.443 9.054 2.993 13.582 4.484l-.558.179 4.521-6.218c1.518-2.065 3.007-4.15 4.548-6.199l4.61-6.154c1.566-2.03 3.106-4.079 4.699-6.09-1.403 2.147-2.86 4.256-4.291 6.384l-4.379 6.32c-1.456 2.11-2.963 4.183-4.441 6.275l-4.468 6.256-.214.299-.345-.121c-4.5-1.574-9.021-3.089-13.505-4.711-4.489-1.603-8.971-3.229-13.423-4.949z"/></g><path d="m417.099 343.878s-86.879-54.902 10.198-137.689c0 0-2.006 18.731 1.517 28.03 3.522 9.3 39.471 27.951-11.715 109.659z" fill="#67923d" stroke="#27391e" stroke-miterlimit="10"/><g fill="#27391e"><path d="m427.297 206.188c-3.933 4.387-6.697 9.669-8.732 15.146-2.062 5.484-3.451 11.202-4.465 16.969-2.006 11.552-2.662 23.308-2.652 35.035-.047 11.735.623 23.468 1.637 35.165.503 5.85 1.121 11.691 1.839 17.521.69 5.833 1.499 11.653 2.421 17.457-2.241-11.542-3.83-23.206-5.027-34.906-1.174-11.704-1.838-23.466-1.869-35.239.074-11.763.716-23.576 2.898-35.171 1.112-5.784 2.592-11.52 4.764-17.007 2.198-5.45 5.082-10.732 9.186-14.97z"/><path d="m390.527 249.23c3.536 3.294 7.017 6.642 10.475 10.013 3.484 3.345 6.876 6.781 10.313 10.173l-.69.01c2.023-2.202 4.083-4.371 6.141-6.541l6.173-6.51c4.158-4.3 8.312-8.604 12.567-12.813-3.921 4.522-7.944 8.949-11.963 13.379l-6.092 6.586c-2.031 2.196-4.058 4.394-6.126 6.555l-.346.362-.344-.352c-3.379-3.45-6.802-6.855-10.134-10.352-3.359-3.469-6.694-6.962-9.974-10.51z"/><path d="m381.425 279.988c5.415 5.419 10.761 10.904 16.089 16.405 5.344 5.486 10.603 11.054 15.908 16.577l-.741.033 7.836-9.838 7.863-9.816 7.926-9.767c2.669-3.234 5.315-6.487 8.011-9.699-2.512 3.358-5.075 6.677-7.614 10.014l-7.7 9.946-7.763 9.896-7.789 9.875-.353.447-.389-.414c-5.241-5.584-10.53-11.123-15.733-16.744-5.217-5.605-10.419-11.227-15.551-16.915z"/></g><path d="m544.251 637.024s-28.091-57.485-58.591-69.485-47.236-11-47.236-11-24.264-1-51.764-14.5c.001 0-6.818 119.97 157.591 94.985z" fill="#67923d" stroke="#27391e" stroke-miterlimit="10"/><g fill="#27391e"><path d="m386.661 542.039c5.334 5.616 10.892 11.014 16.543 16.305 5.638 5.306 11.393 10.486 17.271 15.52 11.752 10.069 23.925 19.663 36.721 28.357 12.753 8.74 26.131 16.631 40.278 22.877 7.071 3.115 14.346 5.795 21.823 7.765 7.462 2.003 15.144 3.294 22.892 3.484-7.751-.027-15.481-1.157-23.014-3.011-7.533-1.879-14.87-4.49-22.008-7.532-14.276-6.128-27.703-14.059-40.535-22.758-12.786-8.789-24.995-18.394-36.66-28.604-11.651-10.224-22.851-20.973-33.311-32.403z"/><path d="m423.668 554.511c.094 1.883.142 3.766.208 5.648.071 1.883.086 3.766.131 5.648.031 1.883.093 3.766.093 5.648l.038 5.648.003.466-.474.005c-2.605.022-5.211.037-7.816.006l-7.816-.053c-5.21-.094-10.421-.187-15.632-.424 5.21-.237 10.421-.33 15.632-.424l7.816-.053c2.605-.031 5.21-.017 7.816.006l-.47.471.038-5.648c0-1.883.062-3.766.093-5.648.045-1.883.06-3.766.131-5.648.067-1.882.115-3.765.209-5.648z"/><path d="m409.438 606.087c3.479-.8 6.978-1.49 10.478-2.166 3.499-.686 7.011-1.295 10.523-1.902 3.516-.586 7.032-1.168 10.562-1.675l5.294-.757c1.771-.216 3.536-.466 5.312-.652-1.738.41-3.487.756-5.23 1.136l-5.248 1.031c-3.499.686-7.011 1.295-10.523 1.901-3.516.584-7.032 1.168-10.562 1.674-3.527.517-7.058 1.018-10.606 1.41z"/><path d="m447.398 557.089c.491 3.424.873 6.856 1.239 10.291.377 3.433.675 6.872.974 10.313.274 3.441.547 6.883.742 10.331l.29 5.173c.061 1.728.155 3.452.185 5.182-.256-1.711-.447-3.428-.673-5.141l-.567-5.149c-.376-3.434-.675-6.873-.972-10.313-.273-3.441-.546-6.883-.741-10.332-.207-3.448-.396-6.897-.477-10.355z"/><path d="m444.202 630.442c6.269-2.232 12.56-4.394 18.862-6.522 6.291-2.164 12.621-4.208 18.933-6.308l-.328.403c.416-4.148.879-8.292 1.345-12.435l1.391-12.431c.987-8.28 1.967-16.562 3.087-24.828-.662 8.315-1.465 16.616-2.26 24.917l-1.282 12.442c-.425 4.147-.853 8.295-1.328 12.437l-.036.312-.292.093c-6.336 2.025-12.654 4.106-19.011 6.067-6.345 1.996-12.701 3.96-19.081 5.853z"/></g><path d="m627.161 692.039s-27.823-8.151-37.333 0c-6.994 5.995-20.511 9.204-31.849 10.903-10.411 1.561-26.801 2.373-39.557-2.743-16.401-6.578-40.97-22.483-67.595-60.827 0 0 96.334-8.666 129 3.334s47.334 49.333 47.334 49.333z" fill="#67923d" stroke="#27391e" stroke-miterlimit="10"/><g fill="#27391e"><path d="m450.827 639.372 176.333 52.667-22.179-6.112-22.126-6.302c-14.739-4.241-29.441-8.608-44.145-12.971-14.681-4.439-29.364-8.867-44.013-13.412l-21.959-6.858z"/><path d="m477.19 671.375c4.144-2.874 8.363-5.628 12.578-8.389l6.37-4.065c2.123-1.356 4.246-2.712 6.395-4.025l-.112.713c-2.519-3.065-5.083-6.094-7.55-9.201-2.496-3.085-4.966-6.192-7.378-9.347 2.686 2.926 5.315 5.898 7.917 8.894 2.631 2.972 5.166 6.024 7.745 9.039l.354.413-.466.3c-2.117 1.365-4.26 2.689-6.404 4.012l-6.429 3.972c-4.317 2.597-8.631 5.2-13.02 7.684z"/><path d="m502.789 692.148c6.446-4.353 12.965-8.592 19.482-12.831l9.819-6.293c3.277-2.092 6.541-4.203 9.841-6.258l-.125.701c-3.882-5.166-7.826-10.284-11.656-15.489-3.861-5.182-7.698-10.382-11.47-15.632 4.065 5.026 8.065 10.102 12.041 15.196 4.007 5.07 7.899 10.229 11.854 15.338l.32.415-.446.288c-3.267 2.107-6.569 4.157-9.859 6.229l-9.882 6.193c-6.617 4.085-13.232 8.171-19.919 12.143z"/><path d="m538.994 704.071 10.002-6.662 10.06-6.574c3.345-2.203 6.731-4.343 10.096-6.515l10.11-6.493-.157.683-6.179-10.128c-2.053-3.38-4.135-6.742-6.156-10.142-4.077-6.778-8.139-13.564-12.108-20.409 4.32 6.628 8.547 13.313 12.76 20.008 2.124 3.337 4.187 6.711 6.278 10.066l6.255 10.081.26.419-.417.264-10.158 6.419c-3.391 2.132-6.762 4.296-10.172 6.396l-10.209 6.338z"/></g><path d="m749.161 718.039-11-13.91s382-92.09 219.619-455.268c-.001 0 214.381 297.455-208.619 469.178z" fill="#aa962e" stroke="#27391e" stroke-miterlimit="10" stroke-width=".75"/><path d="m968.775 265.289s38.298-77.772-99.063-97.499c0 0 20.715 83.943 99.063 97.499z" fill="#67923d" stroke="#27391e" stroke-miterlimit="10"/><g fill="#27391e"><path d="m968.025 265.153c-2.591-5.256-5.573-10.306-8.734-15.23-3.15-4.933-6.506-9.732-10.043-14.391-7.065-9.324-14.776-18.159-23.134-26.341-8.302-8.237-17.249-15.819-26.679-22.742-9.431-6.925-19.387-13.138-29.724-18.66 5.268 2.571 10.412 5.394 15.455 8.39 5.028 3.021 9.937 6.244 14.72 9.647 9.558 6.818 18.538 14.439 26.929 22.653 8.332 8.274 16.088 17.138 23.047 26.594 6.918 9.47 13.278 19.413 18.163 30.08z"/><path d="m949.124 195.522c.59 3.911 1.119 7.829 1.672 11.744l1.563 11.757 1.478 11.768c.479 3.924 1 7.843 1.44 11.772l.067.596-.591-.053c-6.799-.606-13.604-1.141-20.398-1.807-6.797-.635-13.591-1.297-20.378-2.048 6.818.373 13.629.833 20.438 1.321 6.811.457 13.611 1.046 20.418 1.562l-.523.544c-.505-3.921-.929-7.852-1.395-11.778l-1.357-11.782-1.271-11.792c-.391-3.933-.808-7.865-1.163-11.804z"/><path d="m931.424 184.853c.986 5.677 1.891 11.366 2.765 17.06.913 5.688 1.684 11.396 2.532 17.092l.081.546-.561.005c-3.416.031-6.833-.005-10.249-.017l-10.249-.059c-6.833-.092-13.665-.183-20.498-.408 6.833-.225 13.665-.316 20.498-.408l10.249-.059c3.416-.012 6.833-.048 10.249-.017l-.479.551c-.757-5.709-1.592-11.408-2.285-17.127-.732-5.713-1.434-11.43-2.053-17.159z"/><path d="m908.144 175.983c.752 3.229 1.463 6.465 2.124 9.711.688 3.24 1.327 6.49 1.941 9.745l.102.542-.554.001c-2.594.008-5.188.063-7.782.026l-7.781-.056-7.781-.152c-2.595-.065-5.188-.154-7.782-.277 2.594-.124 5.188-.212 7.782-.277l7.781-.152 7.781-.056c2.595-.037 5.188.018 7.782.026l-.452.543c-.59-3.259-1.156-6.522-1.672-9.794-.543-3.269-1.036-6.545-1.489-9.83z"/></g><path d="m997.776 349.748s19.569-72.791-87.931-93.791c0 0 10.958 32.875 31.314 53.667 3.46 3.534 29.422 15.333 29.422 15.333s16.126 6.581 27.195 24.791z" fill="#67923d" stroke="#27391e" stroke-miterlimit="10"/><g fill="#27391e"><path d="m909.846 255.957c8.291 6.88 16.377 14.004 24.359 21.242 7.979 7.243 15.79 14.669 23.465 22.238 7.609 7.631 15.104 15.396 22.129 23.581 3.5 4.102 6.903 8.293 10.055 12.675 1.561 2.2 3.06 4.447 4.429 6.772 1.367 2.323 2.615 4.733 3.494 7.283-2.019-5.005-5.118-9.463-8.319-13.766-3.219-4.306-6.678-8.43-10.238-12.46-7.127-8.059-14.598-15.811-22.253-23.377-7.605-7.617-15.419-15.025-23.28-22.383-3.927-3.682-7.886-7.331-11.866-10.958-3.963-3.648-7.967-7.248-11.975-10.847z"/><path d="m936.758 304.77c4.377-.076 8.751-.054 13.125-.009 4.374.028 8.744.167 13.117.245l-.504.434.871-6.964c.303-2.32.571-4.645.902-6.961l.979-6.952c.362-2.313.691-4.629 1.087-6.938-.163 2.337-.393 4.666-.588 6.999l-.695 6.986c-.227 2.329-.518 4.65-.772 6.976l-.804 6.973-.053.452-.451-.017c-4.37-.165-8.742-.269-13.111-.484-4.369-.2-8.737-.421-13.103-.74z"/><path d="m941.083 264.671c.201 3.242.299 6.484.377 9.726.094 3.242.107 6.484.121 9.726l.002.577-.572-.084c-3.342-.496-6.682-1.005-10.011-1.583l-4.993-.877c-1.658-.33-3.322-.625-4.977-.985 1.688.131 3.366.33 5.05.491l5.033.6c3.355.406 6.699.881 10.042 1.37l-.57.493c.014-3.242.027-6.484.121-9.726.078-3.244.176-6.486.377-9.728z"/><path d="m986.952 297.651c-.632 2.033-1.291 4.055-1.981 6.065-.701 2.006-1.374 4.023-2.1 6.021-1.428 4.003-2.933 7.978-4.464 11.942l-.118.307-.32-.003c-2.464-.022-4.927-.083-7.391-.157-2.463-.057-4.926-.17-7.39-.312 2.464-.142 4.927-.255 7.39-.312 2.464-.074 4.927-.135 7.391-.157l-.438.304c1.463-3.99 2.953-7.97 4.52-11.921.771-1.98 1.597-3.94 2.392-5.911.805-1.966 1.644-3.921 2.509-5.866z"/></g><path d="m1006.938 439.186s36.44-70.5-71.029-124c0 0-13.471 74 71.029 124z" fill="#67923d" stroke="#27391e" stroke-miterlimit="10"/><g fill="#27391e"><path d="m935.909 315.186c8.149 8.852 15.723 18.225 22.963 27.839 7.225 9.628 14.006 19.594 20.311 29.855 6.228 10.305 11.991 20.915 16.82 31.957 4.808 11.035 8.78 22.501 10.936 34.349-1.284-5.876-2.941-11.661-4.935-17.326-1.963-5.676-4.223-11.245-6.704-16.711-4.957-10.937-10.692-21.512-16.97-31.749-6.217-10.278-12.994-20.211-20.074-29.92-3.537-4.857-7.176-9.641-10.902-14.356-3.708-4.731-7.517-9.384-11.445-13.938z"/><path d="m964.444 331.886c-.488 2.39-1.006 4.773-1.578 7.141-.554 2.373-1.124 4.742-1.729 7.101l-.104.409-.426-.066c-4.068-.631-8.134-1.288-12.185-2.026-2.027-.357-4.046-.771-6.069-1.153-2.022-.394-4.038-.82-6.05-1.276 2.052.209 4.099.448 6.141.719 2.04.283 4.085.536 6.12.843 4.075.592 8.138 1.266 12.195 1.965l-.53.343c.648-2.348 1.333-4.686 2.032-7.02.682-2.339 1.419-4.663 2.183-6.98z"/><path d="m977.386 342.01c-.223 1.854-.491 3.699-.741 5.548-.246 1.85-.547 3.689-.817 5.535-.283 1.843-.539 3.691-.854 5.528l-.909 5.52-.053.322-.328.062c-2.52.479-5.041.946-7.57 1.371l-7.581 1.313c-5.064.817-10.128 1.636-15.218 2.313 5.006-1.144 10.037-2.144 15.067-3.147l7.563-1.417c2.519-.485 5.045-.928 7.572-1.359l-.38.384.983-5.507c.316-1.837.691-3.665 1.039-5.497.36-1.83.69-3.665 1.076-5.491.38-1.826.743-3.656 1.151-5.478z"/><path d="m957.904 395.606c5.521-.295 11.044-.444 16.566-.603l8.284-.142c2.762-.059 5.523-.087 8.286-.089l-.405.238c2.063-3.533 4.097-7.083 6.221-10.582 1.058-1.752 2.092-3.518 3.169-5.258s2.137-3.491 3.238-5.218c-.935 1.822-1.912 3.62-2.871 5.429-.958 1.809-1.961 3.592-2.939 5.389-1.949 3.599-3.987 7.146-5.996 10.711l-.131.232-.275.006c-2.762.058-5.523.09-8.285.091l-8.286.038c-5.525-.038-11.049-.067-16.576-.242z"/></g><path d="m978.897 546.306s107.93 3.732 92.041-134.306c0 0-26.452 22.827-36.547 28.795-10.095 5.97-42.564 5.436-55.494 105.511z" fill="#67923d" stroke="#27391e" stroke-miterlimit="10"/><g fill="#27391e"><path d="m1070.938 412c-5.1 12.712-10.98 25.107-17.32 37.254-6.35 12.145-13.265 23.996-20.714 35.506-7.522 11.458-15.587 22.583-24.5 33.01-4.463 5.204-9.119 10.245-14.017 15.042-4.918 4.774-10.069 9.311-15.49 13.494 5.319-4.313 10.354-8.962 15.146-13.841 4.814-4.857 9.396-9.941 13.774-15.192 8.765-10.497 16.811-21.584 24.251-33.058 7.502-11.438 14.389-23.271 20.874-35.319 3.245-6.023 6.365-12.114 9.366-18.264 3.02-6.141 5.944-12.334 8.63-18.632z"/><path d="m1038.494 436.539c1.444 4.241 2.788 8.511 4.113 12.786.682 2.132 1.302 4.283 1.945 6.426l1.918 6.434-.645-.329 6.505-2.288c2.172-.751 4.33-1.542 6.515-2.26l6.538-2.193c2.192-.695 4.373-1.424 6.575-2.091-2.125.883-4.272 1.704-6.408 2.559l-6.443 2.457c-2.144.832-4.313 1.591-6.469 2.39l-6.478 2.363-.5.183-.146-.512-1.832-6.458c-.605-2.154-1.235-4.301-1.804-6.466-1.173-4.323-2.329-8.647-3.384-13.001z"/><path d="m1058.162 501.707c-6.266.191-12.532.292-18.798.366-6.266.103-12.532.077-18.798.122l-.324.002-.128-.307c-1.361-3.271-2.647-6.571-3.976-9.855l-3.939-9.869-3.863-9.901c-1.257-3.313-2.537-6.616-3.761-9.942 1.441 3.238 2.826 6.499 4.234 9.75l4.133 9.791 4.056 9.822c1.338 3.28 2.717 6.543 4.021 9.837l-.452-.305c6.266.045 12.532.02 18.798.122 6.265.075 12.531.176 18.797.367z"/><path d="m1035.322 527.805c-6.065.23-12.132.319-18.197.416l-9.099.055c-3.033.021-6.065.038-9.099.008l-.316-.003-.122-.283c-1.876-4.365-3.804-8.708-5.618-13.101-1.848-4.378-3.664-8.77-5.413-13.19 2.074 4.278 4.081 8.586 6.057 12.908 2.009 4.307 3.904 8.664 5.851 12.998l-.438-.286c3.033-.03 6.065-.014 9.099.008l9.099.055c6.064.096 12.131.185 18.196.415z"/></g><path d="m962.827 550.039s103.333-52.667-9.333-150c0 0 1.334 19.334-3.333 28.667s-23.5 46.333 7 82.667c0 0 19.666 19.999 5.666 38.666z" fill="#67923d" stroke="#27391e" stroke-miterlimit="10"/><g fill="#27391e"><path d="m953.494 400.039c5.34 11.898 9.903 24.144 13.855 36.582 3.936 12.442 7.175 25.121 9.423 37.994 1.085 6.442 1.897 12.935 2.317 19.46.406 6.521.462 13.086-.188 19.602-.641 6.507-1.908 12.989-4.217 19.123-2.324 6.11-5.763 11.849-10.406 16.443 4.527-4.711 7.794-10.499 9.947-16.612 2.193-6.116 3.366-12.559 3.91-19.023 1.059-12.961-.15-26.019-2.348-38.825-2.157-12.834-5.4-25.472-9.17-37.936-1.885-6.234-3.937-12.418-6.128-18.554-2.171-6.142-4.461-12.247-6.995-18.254z"/><path d="m951.374 425.669c1.363.81 2.689 1.671 4.032 2.509l3.97 2.599c2.638 1.747 5.242 3.539 7.829 5.356l-.707.15c1.466-2.409 2.934-4.817 4.47-7.185 1.519-2.377 3.059-4.743 4.679-7.06-1.288 2.517-2.656 4.985-4.046 7.44-1.372 2.466-2.813 4.892-4.255 7.315l-.271.455-.437-.304c-2.596-1.807-5.174-3.637-7.719-5.514l-3.805-2.836c-1.247-.973-2.511-1.923-3.74-2.925z"/><path d="m942.603 448.154c5.163 1.623 10.28 3.375 15.397 5.123l7.649 2.701c2.548.903 5.101 1.795 7.633 2.742l-.55.166c2.652-3.496 5.249-7.034 7.954-10.491 2.676-3.479 5.376-6.94 8.14-10.354-2.472 3.631-5.007 7.214-7.567 10.779-2.53 3.587-5.17 7.093-7.753 10.641l-.208.285-.343-.119c-2.553-.889-5.087-1.834-7.624-2.768l-7.61-2.808c-5.054-1.926-10.11-3.847-15.118-5.897z"/><path d="m939.344 471.706c3.288 1.344 6.552 2.744 9.825 4.121l9.78 4.221 9.747 4.296c3.242 1.446 6.503 2.852 9.73 4.331l-.591.154c3.748-4.964 7.44-9.971 11.234-14.901 3.772-4.947 7.565-9.878 11.432-14.755-3.559 5.105-7.19 10.157-10.843 15.192-3.631 5.052-7.363 10.028-11.04 15.046l-.229.313-.363-.159c-3.252-1.424-6.473-2.92-9.71-4.376l-9.695-4.411-9.662-4.486c-3.205-1.525-6.423-3.027-9.615-4.586z"/></g><path d="m805.661 683.539s-6-43 3-58.5 37-41 37-41 32-30 36-34c0 0 30 108-76 133.5z" fill="#67923d" stroke="#27391e" stroke-miterlimit="10"/><g fill="#27391e"><path d="m881.661 550.039c-2.194 6.065-4.528 12.08-6.923 18.07-2.427 5.979-4.941 11.92-7.531 17.831-5.191 11.814-10.773 23.46-16.736 34.911-6.045 11.405-12.459 22.636-19.7 33.338-7.265 10.646-15.239 20.992-25.109 29.35 4.835-4.274 9.143-9.098 13.156-14.128 4.034-5.021 7.771-10.273 11.313-15.649 7.086-10.757 13.491-21.954 19.455-33.374 6.026-11.392 11.586-23.026 16.923-34.76 2.671-5.866 5.26-11.771 7.78-17.704 2.543-5.925 5.026-11.878 7.372-17.885z"/><path d="m841.918 587.532c2.318 3.875 4.549 7.798 6.76 11.73 2.227 3.925 4.354 7.902 6.537 11.852l-.504-.254 7.159-.982c2.389-.314 4.772-.664 7.164-.95l7.175-.874c2.397-.255 4.789-.544 7.19-.767-2.368.454-4.746.843-7.119 1.265l-7.135 1.156c-2.378.391-4.765.718-7.146 1.08l-7.15 1.049-.343.051-.161-.305c-2.105-3.99-4.264-7.951-6.325-11.965-2.076-4.006-4.132-8.023-6.102-12.086z"/><path d="m854.812 575.449c1.637 2.81 3.207 5.654 4.747 8.514 1.559 2.85 3.068 5.725 4.555 8.611l-.651-.217c3.638-1.815 7.303-3.578 10.979-5.314 3.691-1.707 7.379-3.421 11.13-5.008-3.548 2-7.157 3.874-10.764 5.754-3.621 1.851-7.254 3.676-10.914 5.447l-.435.21-.217-.427c-1.47-2.896-2.914-5.804-4.312-8.736-1.414-2.923-2.8-5.862-4.118-8.834z"/><path d="m822.927 606.781c1.552 2.555 3.047 5.142 4.572 7.711l4.478 7.763c1.505 2.581 2.941 5.199 4.416 7.798l4.391 7.811-.5-.251 8.58-1.099c2.861-.361 5.718-.748 8.584-1.07 5.727-.685 11.456-1.35 17.199-1.91-5.689.964-11.393 1.822-17.099 2.662-2.851.439-5.709.814-8.564 1.216l-8.569 1.188-.336.047-.164-.299-4.32-7.851c-1.429-2.623-2.896-5.225-4.295-7.864l-4.233-7.899c-1.379-2.653-2.789-5.287-4.14-7.953z"/><path d="m808.661 625.039c1.306 3.253 2.579 6.517 3.828 9.79l3.71 9.833 3.619 9.865c1.222 3.283 2.355 6.598 3.538 9.895l-.435-.302 6.465-.039 6.466.03c4.311.011 8.622.073 12.934.173-4.309.197-8.617.357-12.926.466l-6.464.177-6.465.107-.323.006-.111-.308c-1.195-3.293-2.438-6.568-3.595-9.875l-3.514-9.903-3.423-9.936c-1.127-3.317-2.232-6.643-3.304-9.979z"/></g><path d="m934.661 486.039s55.219 94.486-31.259 144.403c0 0-38.741-60.403 31.259-144.403z" fill="#67923d" stroke="#27391e" stroke-miterlimit="10"/><g fill="#27391e"><path d="m934.661 486.039c-.506 12.413-1.523 24.803-2.816 37.162-1.307 12.358-3.002 24.678-5.095 36.934-2.185 12.235-4.741 24.427-8.256 36.364-1.771 5.962-3.769 11.864-6.166 17.607-2.443 5.712-5.23 11.33-8.926 16.336 3.507-5.133 6.189-10.765 8.472-16.521 2.297-5.759 4.205-11.667 5.881-17.635 3.35-11.941 5.908-24.097 8.012-36.323 2.17-12.218 3.849-24.521 5.317-36.847.738-6.163 1.393-12.337 1.981-18.518.617-6.178 1.14-12.365 1.596-18.559z"/><path d="m946.493 514.755c-2.465 2.329-4.996 4.579-7.541 6.813-2.534 2.246-5.119 4.433-7.705 6.617l-.307.26-.318-.248c-2.792-2.177-5.575-4.365-8.315-6.609l-4.104-3.373c-1.345-1.155-2.712-2.281-4.037-3.46 1.468.996 2.896 2.045 4.345 3.065l4.276 3.151c2.848 2.106 5.652 4.268 8.447 6.44l-.625.011c2.603-2.164 5.206-4.328 7.86-6.432 2.644-2.114 5.301-4.213 8.024-6.235z"/><path d="m951.217 537.327c-1.951 1.634-3.941 3.216-5.911 4.825l-5.976 4.739c-1.984 1.591-4.015 3.12-6.02 4.683l-6.037 4.661-.254.195-.281-.151-6.478-3.49c-2.157-1.167-4.326-2.313-6.465-3.515-4.295-2.369-8.582-4.756-12.819-7.235 4.428 2.12 8.806 4.335 13.176 6.565 2.193 1.098 4.357 2.253 6.533 3.386l6.52 3.41-.535.044 6.086-4.596c2.036-1.522 4.046-3.079 6.104-4.573l6.146-4.517c2.071-1.476 4.121-2.98 6.211-4.431z"/><path d="m892.71 570.039c4.863 2.163 9.678 4.423 14.485 6.699 2.413 1.119 4.795 2.303 7.19 3.456l7.179 3.48h-.44l7.209-3.481c2.407-1.152 4.798-2.339 7.221-3.458l7.251-3.396c2.434-1.1 4.852-2.229 7.298-3.301-2.347 1.275-4.722 2.493-7.082 3.741l-7.128 3.646c-2.37 1.229-4.772 2.389-7.159 3.584l-7.17 3.561-.221.109-.22-.109-7.139-3.562c-2.376-1.193-4.767-2.358-7.126-3.586-4.737-2.418-9.466-4.851-14.148-7.383z"/></g><path d="m1006.363 448.878s-76.609-53.114 42.216-143.379c0 0 24.359 89.727-42.216 143.379z" fill="#67923d" stroke="#27391e" stroke-miterlimit="10"/><g fill="#27391e"><path d="m1048.579 305.499c-2.215 5.84-4.41 11.686-6.539 17.556-2.155 5.86-4.274 11.734-6.342 17.625-4.143 11.778-8.192 23.59-11.935 35.5-3.813 11.886-7.342 23.864-10.451 35.949-1.557 6.042-2.981 12.119-4.187 18.241-1.229 6.116-2.225 12.285-2.763 18.509.709-12.49 3.3-24.792 6.203-36.936 2.961-12.147 6.503-24.143 10.245-36.065 3.826-11.897 7.865-23.725 12.167-35.456 4.308-11.73 8.786-23.397 13.602-34.923z"/><path d="m1048.579 385.352c-5.605 3.746-11.27 7.399-16.942 11.038-2.826 1.836-5.689 3.612-8.535 5.417l-8.549 5.395-.35.221-.28-.304-6.862-7.428c-2.281-2.482-4.59-4.938-6.844-7.446l-6.793-7.494c-2.237-2.522-4.5-5.021-6.716-7.565 2.381 2.389 4.715 4.822 7.074 7.231l6.997 7.303c2.343 2.425 4.631 4.9 6.946 7.35l6.928 7.368-.63-.083 8.597-5.318c2.869-1.767 5.722-3.562 8.61-5.296 5.758-3.504 11.525-6.993 17.349-10.389z"/><path d="m1052.64 333.991c-2.732 1.028-5.495 1.957-8.264 2.867-2.764.924-5.55 1.772-8.337 2.62l-.393.12-.191-.365c-1.4-2.679-2.789-5.364-4.116-8.082l-1.981-4.081c-.627-1.378-1.286-2.739-1.886-4.131.805 1.285 1.55 2.601 2.327 3.9l2.23 3.951c1.481 2.636 2.9 5.306 4.309 7.981l-.584-.246c2.794-.822 5.589-1.644 8.406-2.39 2.813-.761 5.631-1.502 8.48-2.144z"/><path d="m1052.005 361.759c-4.451 1.72-8.934 3.346-13.424 4.951-4.483 1.622-9.004 3.137-13.505 4.711l-.345.121-.214-.299-4.468-6.256c-1.479-2.093-2.985-4.166-4.441-6.275l-4.38-6.32c-1.43-2.128-2.887-4.237-4.29-6.384 1.593 2.011 3.133 4.06 4.699 6.09l4.61 6.154c1.541 2.048 3.03 4.133 4.548 6.199l4.521 6.218-.558-.179c4.528-1.491 9.037-3.041 13.582-4.484 4.541-1.462 9.087-2.901 13.665-4.247z"/></g><path d="m1000.223 343.878s86.879-54.902-10.198-137.689c0 0 2.007 18.731-1.517 28.03-3.523 9.3-39.471 27.951 11.715 109.659z" fill="#67923d" stroke="#27391e" stroke-miterlimit="10"/><g fill="#27391e"><path d="m990.024 206.188c4.104 4.237 6.987 9.519 9.187 14.971 2.172 5.487 3.651 11.223 4.764 17.007 2.182 11.595 2.824 23.408 2.898 35.171-.031 11.773-.695 23.535-1.87 35.239-1.196 11.7-2.785 23.364-5.026 34.906.923-5.804 1.73-11.624 2.422-17.457.718-5.83 1.336-11.671 1.839-17.521 1.014-11.697 1.684-23.43 1.637-35.165.01-11.727-.646-23.483-2.652-35.035-1.015-5.767-2.403-11.485-4.465-16.969-2.036-5.478-4.801-10.76-8.734-15.147z"/><path d="m1026.795 249.23c-3.28 3.548-6.615 7.042-9.974 10.512-3.332 3.497-6.755 6.902-10.135 10.352l-.344.352-.347-.362c-2.066-2.162-4.095-4.36-6.125-6.555l-6.093-6.586c-4.019-4.431-8.042-8.857-11.963-13.379 4.256 4.209 8.409 8.513 12.567 12.813l6.174 6.51c2.058 2.17 4.118 4.338 6.141 6.541l-.69-.01c3.437-3.392 6.829-6.828 10.313-10.173 3.459-3.373 6.941-6.721 10.476-10.015z"/><path d="m1035.896 279.988c-5.132 5.688-10.334 11.31-15.552 16.915-5.203 5.621-10.492 11.16-15.733 16.744l-.389.414-.353-.447-7.789-9.875-7.763-9.896-7.7-9.946c-2.539-3.337-5.102-6.655-7.614-10.014 2.696 3.212 5.342 6.465 8.011 9.699l7.926 9.767 7.863 9.816 7.836 9.838-.741-.033c5.306-5.523 10.564-11.091 15.908-16.577 5.33-5.501 10.675-10.986 16.09-16.405z"/></g><path d="m873.07 637.024s28.091-57.485 58.591-69.485 47.236-11 47.236-11 24.264-1 51.764-14.5c0 0 6.818 119.97-157.591 94.985z" fill="#67923d" stroke="#27391e" stroke-miterlimit="10"/><g fill="#27391e"><path d="m1030.661 542.039c-10.461 11.431-21.661 22.18-33.313 32.402-11.664 10.211-23.873 19.815-36.659 28.604-12.832 8.699-26.26 16.63-40.535 22.758-7.138 3.042-14.475 5.653-22.008 7.532-7.532 1.854-15.263 2.983-23.014 3.011 7.749-.19 15.43-1.481 22.892-3.484 7.478-1.97 14.753-4.649 21.824-7.765 14.147-6.246 27.524-14.137 40.277-22.877 12.797-8.694 24.97-18.288 36.722-28.357 5.879-5.033 11.634-10.214 17.271-15.52 5.652-5.291 11.209-10.688 16.543-16.304z"/><path d="m993.653 554.511c.094 1.883.142 3.766.208 5.648.07 1.883.085 3.766.131 5.648.031 1.883.093 3.766.094 5.648l.038 5.648-.471-.471c2.605-.022 5.211-.037 7.816-.006l7.816.053c5.21.094 10.421.187 15.632.424-5.211.237-10.422.33-15.632.424l-7.816.053c-2.605.031-5.211.017-7.816-.006l-.474-.005.003-.466.038-5.648c.001-1.883.063-3.766.094-5.648.046-1.883.061-3.766.131-5.648.067-1.882.115-3.765.208-5.648z"/><path d="m1007.884 606.087c-3.549-.393-7.079-.894-10.606-1.41-3.529-.506-7.045-1.09-10.562-1.674-3.513-.606-7.024-1.216-10.523-1.901l-5.247-1.031c-1.743-.38-3.492-.726-5.23-1.136 1.776.187 3.541.437 5.313.652l5.294.757c3.529.507 7.046 1.089 10.562 1.675 3.512.607 7.024 1.217 10.522 1.902 3.499.676 6.997 1.367 10.477 2.166z"/><path d="m969.923 557.089c-.08 3.458-.27 6.906-.476 10.354-.194 3.449-.468 6.891-.741 10.332-.297 3.44-.596 6.88-.972 10.313l-.567 5.149c-.226 1.713-.417 3.43-.673 5.141.03-1.729.124-3.454.185-5.182l.289-5.173c.195-3.448.468-6.89.743-10.331.298-3.44.597-6.88.974-10.313.365-3.433.747-6.866 1.238-10.29z"/><path d="m973.119 630.442c-6.379-1.893-12.735-3.856-19.081-5.853-6.356-1.961-12.675-4.042-19.011-6.067l-.292-.093-.036-.312c-.475-4.142-.902-8.289-1.328-12.437l-1.282-12.442c-.795-8.301-1.598-16.602-2.26-24.917 1.12 8.267 2.1 16.548 3.087 24.828l1.391 12.431c.466 4.143.93 8.286 1.346 12.435l-.328-.403c6.312 2.1 12.642 4.144 18.933 6.308 6.301 2.128 12.593 4.289 18.861 6.522z"/></g><path d="m790.161 692.039s27.822-8.151 37.333 0c6.994 5.995 20.511 9.204 31.849 10.903 10.411 1.561 26.801 2.373 39.557-2.743 16.402-6.578 40.97-22.483 67.595-60.827 0 0-96.333-8.666-129 3.334s-47.334 49.333-47.334 49.333z" fill="#67923d" stroke="#27391e" stroke-miterlimit="10"/><g fill="#27391e"><path d="m966.494 639.372-21.911 7.012-21.96 6.858c-14.647 4.545-29.331 8.973-44.012 13.412-14.704 4.362-29.406 8.73-44.146 12.971l-22.126 6.302-22.179 6.112z"/><path d="m940.131 671.375c-4.389-2.484-8.702-5.088-13.02-7.686l-6.429-3.972c-2.144-1.322-4.287-2.646-6.404-4.012l-.466-.3.354-.413c2.58-3.015 5.114-6.067 7.745-9.039 2.604-2.995 5.232-5.968 7.918-8.894-2.413 3.154-4.883 6.262-7.378 9.347-2.468 3.108-5.031 6.136-7.551 9.201l-.112-.713c2.149 1.313 4.272 2.669 6.395 4.025l6.37 4.065c4.216 2.764 8.434 5.517 12.578 8.391z"/><path d="m914.533 692.148c-6.688-3.972-13.303-8.058-19.919-12.143l-9.882-6.193c-3.29-2.071-6.593-4.121-9.859-6.229l-.446-.288.32-.415c3.955-5.109 7.848-10.268 11.854-15.338 3.976-5.095 7.976-10.17 12.041-15.196-3.771 5.25-7.608 10.45-11.47 15.632-3.83 5.205-7.774 10.323-11.656 15.489l-.126-.701c3.301 2.055 6.564 4.166 9.842 6.258l9.818 6.293c6.518 4.239 13.037 8.478 19.483 12.831z"/><path d="m878.328 704.071-10.266-6.249-10.21-6.338c-3.41-2.101-6.781-4.265-10.172-6.396l-10.158-6.419-.417-.264.26-.419 6.256-10.081c2.092-3.355 4.154-6.729 6.278-10.066 4.213-6.694 8.439-13.38 12.76-20.008-3.969 6.845-8.031 13.631-12.108 20.409-2.021 3.399-4.103 6.762-6.156 10.142l-6.178 10.128-.157-.683 10.11 6.493c3.365 2.172 6.751 4.312 10.097 6.515l10.059 6.574z"/></g><path d="m711.155 476.23v-2.653h2.83l1.238-3.538 3.006 1.415 5.308 4.776 1.768 4.422h-4.245l-2.831-3.006-4.068-1.062z" fill="#82a53c" stroke="#507e3a" stroke-miterlimit="10" stroke-width=".5"/><path d="m708.661 422.039h-126v68.334s-.247 69.666 82.291 73.399c12.51.565 29.987 12.462 38.196 19.942 4.014 3.657 3.264 4.241 5.514 4.658 2.25-.417 1.5-1.001 5.514-4.658 8.209-7.48 25.686-19.377 38.196-19.942 82.538-3.733 82.291-73.399 82.291-73.399v-68.334z" fill="#42469c"/><path d="m598.659 400.551c0 .254-.24.453-.719.595-.546.165-1.153.678-1.819 1.539-1.31 1.707-2.126 2.778-2.448 3.212-.756 1.033-1.419 2.018-1.988 2.954v3.976c0 .532.101.895.303 1.089.165.15.546.296 1.146.438.449.097.647.281.595.55-.03.172-.12.266-.27.281-.015.007-.168-.004-.46-.034-1.49-.127-2.954-.135-4.391-.022-.449.083-.696-.007-.741-.27-.045-.247.086-.408.393-.483.614-.165 1.013-.365 1.196-.601s.275-.657.275-1.264v-3.066c-1.018-1.992-2.707-4.376-5.065-7.154-.606-.711-1.22-1.13-1.842-1.258-.367-.075-.55-.184-.55-.326 0-.344.161-.498.483-.46 1.355.165 3.006.097 4.953-.202.27-.045.438-.06.505-.045.12.038.18.165.18.382 0 .165-.191.318-.573.46-.651.247-.977.513-.977.797 0 .142.079.322.236.539.951 1.273 2.194 3.1 3.729 5.48.09.135.161.202.213.202.06 0 .135-.067.225-.202.33-.494.893-1.303 1.69-2.426s1.391-1.98 1.78-2.572c.195-.285.292-.532.292-.741 0-.397-.341-.708-1.022-.932-.367-.127-.535-.303-.505-.528.03-.262.281-.363.752-.303 1.475.18 2.789.195 3.942.045.321-.035.482.081.482.35z"/><path d="m616.942 407.638c0 2.164-.801 3.998-2.403 5.503-1.572 1.482-3.463 2.224-5.671 2.224-2.321 0-4.249-.696-5.784-2.089-1.572-1.438-2.358-3.294-2.358-5.57 0-2.201.797-4.05 2.392-5.548 1.572-1.467 3.489-2.201 5.75-2.201 2.306 0 4.223.715 5.75 2.145 1.549 1.452 2.324 3.297 2.324 5.536zm-2.28.382c0-2.179-.595-3.901-1.786-5.166-1.146-1.213-2.658-1.819-4.537-1.819-1.557 0-2.836.575-3.835 1.724-1 1.149-1.5 2.645-1.5 4.487 0 2.208.58 3.946 1.741 5.211 1.13 1.228 2.666 1.842 4.604 1.842 1.565 0 2.841-.577 3.83-1.729s1.483-2.671 1.483-4.55z"/><path d="m636.741 404.37c0 1.422-.58 2.545-1.741 3.369-1.108.771-2.549 1.157-4.324 1.157-.142 0-.38-.011-.713-.034-.333-.022-.518-.034-.556-.034-.075 0-.112.116-.112.348v4.021c0 .352.073.58.219.685s.541.213 1.185.326c.412.075.618.221.618.438 0 .187-.034.303-.101.348s-.254.06-.562.045c-1.355-.06-2.834-.03-4.436.09-.322.022-.483-.108-.483-.393 0-.195.161-.307.483-.337.734-.075 1.101-.476 1.101-1.202v-10.759c0-.711-.416-1.149-1.247-1.314-.412-.083-.618-.213-.618-.393 0-.232.056-.371.168-.416.075-.03.247-.022.517.022.344.067.842.101 1.494.101.33 0 .923-.017 1.78-.05.857-.034 1.548-.051 2.072-.051 1.602 0 2.868.337 3.796 1.011.973.704 1.46 1.712 1.46 3.022zm-2.178.247c0-1.31-.307-2.228-.921-2.751-.577-.494-1.55-.741-2.92-.741-.562 0-.939.077-1.134.23s-.292.484-.292.994v5.379c0 .209.498.314 1.494.314 1.161 0 2.08-.296 2.757-.887.677-.592 1.016-1.438 1.016-2.538z"/><path d="m655.406 407.638c0 2.164-.801 3.998-2.403 5.503-1.572 1.482-3.463 2.224-5.671 2.224-2.321 0-4.249-.696-5.784-2.089-1.572-1.438-2.358-3.294-2.358-5.57 0-2.201.797-4.05 2.392-5.548 1.572-1.467 3.489-2.201 5.75-2.201 2.306 0 4.223.715 5.75 2.145 1.549 1.452 2.324 3.297 2.324 5.536zm-2.28.382c0-2.179-.595-3.901-1.786-5.166-1.146-1.213-2.658-1.819-4.537-1.819-1.557 0-2.835.575-3.835 1.724-.999 1.149-1.499 2.645-1.499 4.487 0 2.208.58 3.946 1.741 5.211 1.13 1.228 2.666 1.842 4.604 1.842 1.565 0 2.841-.577 3.83-1.729s1.482-2.671 1.482-4.55z"/><path d="m675.329 400.484c0 .187-.202.341-.606.46-.898.254-1.348.775-1.348 1.561v8.075c0 1.7.022 3.07.067 4.11.015.397-.079.622-.281.674-.337.083-.622-.094-.854-.528-.375-.711-1.842-2.463-4.402-5.256-2.141-2.329-4.215-4.503-6.222-6.525-.067-.067-.135-.086-.202-.056-.075.038-.112.124-.112.258v9.209c0 .988.498 1.576 1.494 1.763.412.083.618.229.618.438 0 .285-.232.416-.696.393-1.782-.075-3.167-.075-4.155 0-.322.022-.483-.108-.483-.393 0-.157.161-.27.483-.337.577-.135.962-.318 1.157-.55s.292-.625.292-1.179v-9.939c0-.434-.09-.768-.27-1-.172-.209-.505-.427-1-.651-.367-.172-.543-.348-.528-.528.022-.202.191-.281.505-.236.973.135 1.815.165 2.527.09.367-.038.696.101.988.416l9.411 10.029c.127.142.213.213.258.213.06 0 .09-.101.09-.303v-8.12c0-.951-.498-1.512-1.494-1.685-.352-.06-.528-.165-.528-.314 0-.314.161-.453.483-.416 1.228.135 2.598.12 4.11-.045.262-.03.431-.034.505-.011.13.039.193.166.193.383z"/><path d="m693.477 407.379c0 2.605-.86 4.582-2.582 5.93-1.61 1.243-3.849 1.864-6.716 1.864-.24 0-.782-.022-1.628-.067s-1.498-.067-1.954-.067c-.614 0-1.295.03-2.044.09-.322.03-.483-.101-.483-.393 0-.195.161-.307.483-.337.734-.075 1.101-.476 1.101-1.202v-10.759c0-.404-.083-.678-.247-.82-.135-.112-.431-.217-.887-.314-.382-.075-.614-.139-.696-.191s-.131-.165-.146-.337c-.022-.18.056-.296.236-.348.038-.007.202-.022.494-.045 1.61-.105 3.744-.157 6.401-.157 2.583 0 4.661.622 6.233 1.864 1.624 1.287 2.435 3.051 2.435 5.289zm-2.347.304c0-4.342-2.231-6.514-6.693-6.514h-1.572c-.824.075-1.235.303-1.235.685v10.422c0 .734.195 1.224.584 1.471s1.168.371 2.336.371c4.387 0 6.58-2.145 6.58-6.435z"/><path d="m709.649 415.061c.008.172-.138.258-.438.258-2.688 0-5.226-2.302-7.614-6.907-.921.045-1.411.067-1.472.067v4.717c0 .352.087.586.259.702s.554.219 1.146.309c.412.067.617.213.617.438 0 .187-.033.303-.101.348s-.255.06-.562.045c-1.355-.06-2.834-.03-4.436.09-.322.022-.483-.108-.483-.393 0-.195.161-.307.483-.337.733-.075 1.1-.476 1.1-1.202v-10.759c0-.711-.415-1.149-1.246-1.314-.412-.083-.617-.213-.617-.393 0-.277.138-.416.415-.416.082 0 .172.007.27.022.307.045.774.067 1.403.067.21 0 .738-.011 1.584-.034s1.632-.034 2.358-.034c1.497 0 2.681.281 3.549.842.974.622 1.46 1.539 1.46 2.751 0 2.074-1.198 3.444-3.594 4.11.764 1.737 1.662 3.227 2.695 4.47 1.056 1.273 2.007 1.977 2.853 2.111.233.042.356.188.371.442zm-4.514-10.86c0-1.108-.285-1.898-.854-2.37s-1.479-.708-2.729-.708c-.562 0-.939.077-1.134.23s-.293.484-.293.994v5.29c1.813-.06 3.115-.378 3.908-.955.735-.531 1.102-1.358 1.102-2.481z"/><path d="m722.844 412.231c-.209.891-.348 1.79-.415 2.695-.008.142-.235.202-.685.18-1.168-.06-2.658-.09-4.471-.09-1.991 0-3.705.038-5.143.112-.322.015-.483-.116-.483-.393 0-.195.161-.307.483-.337.449-.052.737-.139.864-.258.157-.15.235-.464.235-.943v-10.343c0-.696-.063-1.136-.19-1.319-.127-.184-.479-.365-1.056-.545-.307-.097-.419-.281-.337-.55.037-.142.098-.221.18-.236.075-.022.273-.007.595.045.479.075 1.73.112 3.752.112 2.014 0 3.747-.045 5.199-.135.486-.03.73.004.73.101 0 .038-.008.075-.023.112-.156.734-.225 1.576-.201 2.527.007.232-.102.348-.326.348-.21 0-.355-.101-.438-.303-.21-.524-.394-.88-.551-1.067-.239-.285-.584-.464-1.033-.539-.359-.067-1.625-.101-3.796-.101-.247 0-.404.041-.472.124-.037.045-.057.157-.057.337v4.694c0 .187.109.281.326.281.688-.015 1.677-.063 2.965-.146.225-.022.39-.131.494-.326.082-.15.168-.46.258-.932.068-.322.244-.438.528-.348.255.045.363.161.325.348-.209 1.018-.276 2.343-.201 3.976.007.18-.116.288-.371.326-.225.03-.355-.094-.393-.371-.075-.577-.171-.957-.287-1.14s-.335-.293-.656-.331c-.614-.075-1.543-.112-2.785-.112-.135 0-.203.052-.203.157v4.896c0 .696.404 1.123 1.213 1.28.203.038.902.056 2.101.056 1.864 0 3.028-.651 3.493-1.954.111-.307.295-.408.55-.303.241.059.335.198.282.415zm-3.02-16.857c0 .142-.082.341-.247.595-.891 1.085-1.85 2.074-2.875 2.965-.157.135-.359.127-.606-.022-.172-.105-.217-.209-.135-.314.441-.591.85-1.34 1.224-2.246.353-.846.573-1.318.663-1.415.202-.217.386-.326.55-.326.3 0 .618.097.955.292.314.186.471.344.471.471z"/><path d="m750.776 414.668c0 .187-.039.303-.118.348-.078.045-.278.06-.601.045-1.954-.083-3.471-.083-4.549 0-.336.022-.505-.108-.505-.393 0-.157.169-.27.505-.337.667-.15 1.067-.273 1.202-.371.165-.127.239-.412.225-.854l-.394-9.591c-.007-.195-.06-.292-.156-.292-.075 0-.146.067-.214.202-1.333 2.68-2.269 4.586-2.808 5.716-1.086 2.253-1.854 3.964-2.303 5.132-.201.546-.307.827-.314.842-.074.135-.183.225-.325.27-.075.022-.139.034-.19.034-.15 0-.285-.221-.404-.663-.473-1.692-2.097-5.447-4.875-11.264-.082-.172-.172-.258-.27-.258-.119 0-.183.116-.19.348-.104 2.224-.229 5.185-.37 8.883-.045.988.452 1.576 1.493 1.763.412.075.618.221.618.438 0 .187-.04.303-.118.348-.079.045-.275.06-.59.045-1.722-.067-3.059-.067-4.009 0-.338.022-.506-.108-.506-.393 0-.157.168-.27.506-.337.599-.127.991-.326 1.179-.595.149-.209.232-.588.247-1.134l.393-9.939c.016-.434-.07-.768-.258-1-.165-.202-.498-.419-1-.651-.359-.165-.527-.341-.505-.528.015-.202.176-.281.483-.236 1.145.165 2.148.195 3.01.09.329-.038.554-.03.674.022.119.052.225.184.314.393l4.694 10.748c.061.15.113.225.158.225s.111-.101.201-.303c.3-.644 1.974-4.114 5.021-10.411.188-.382.423-.573.708-.573.695 0 1.669-.101 2.92-.303.284-.045.46-.06.527-.045.127.038.191.176.191.416 0 .18-.199.333-.596.46-.936.292-1.396.644-1.381 1.056l.415 10.927c.015.434.124.741.325.921.165.157.469.277.91.359.42.085.63.23.63.44z"/><path d="m759.535 400.506c0 .187-.202.341-.606.46-.906.27-1.359.622-1.359 1.056v10.927c0 .704.416 1.13 1.247 1.28.412.075.618.221.618.438 0 .187-.036.303-.107.348s-.264.06-.578.045c-1.977-.083-3.504-.083-4.582 0-.277.022-.438-.03-.482-.157-.016-.052-.023-.131-.023-.236 0-.15.169-.262.506-.337.629-.142.992-.243 1.09-.303.239-.15.359-.457.359-.921v-11.016c0-.622-.42-1.003-1.258-1.146-.353-.06-.528-.168-.528-.326 0-.217.028-.35.084-.399.057-.048.189-.062.399-.039 1.459.157 2.968.142 4.525-.045.292-.038.464-.049.517-.034.119.039.178.173.178.405z"/><path d="m783.659 414.814c-.045.202-.094.322-.146.359-.045.03-.149.022-.314-.022-1.07-.195-2.636-.217-4.694-.067-.39.03-.603-.045-.64-.225-.038-.209.086-.371.37-.483.809-.33 1.213-.636 1.213-.921 0-.112-.045-.273-.135-.483-.554-1.325-1.015-2.392-1.382-3.201-.531.03-1.467.045-2.807.045-1.108 0-2.052-.03-2.83-.09-.263.644-.629 1.542-1.102 2.695-.104.262-.156.498-.156.708 0 .419.228.726.685.921.704.299 1.048.528 1.033.685-.015.254-.251.355-.708.303-1.407-.15-2.71-.105-3.908.135-.314.067-.49-.045-.527-.337-.03-.195.213-.404.73-.629.554-.232 1.021-.768 1.403-1.606 1.46-3.167 2.403-5.249 2.83-6.244 1.033-2.388 1.763-4.339 2.19-5.851.06-.232.355-.449.887-.651.127-.045.288.172.482.651 1.617 3.893 3.43 8.056 5.436 12.488.322.704.865 1.172 1.629 1.404.345.098.498.236.461.416zm-6.098-5.918c-.494-1.123-1.266-2.864-2.313-5.222-.06-.127-.127-.191-.202-.191s-.139.063-.19.191l-2.146 5.177c.801.06 1.699.09 2.695.09.614-.001 1.332-.016 2.156-.045z"/><path d="m799.167 415.061c.008.172-.138.258-.438.258-2.688 0-5.226-2.302-7.614-6.907-.921.045-1.411.067-1.472.067v4.717c0 .352.087.586.259.702s.554.219 1.146.309c.412.067.617.213.617.438 0 .187-.033.303-.101.348s-.255.06-.562.045c-1.355-.06-2.834-.03-4.436.09-.322.022-.483-.108-.483-.393 0-.195.161-.307.483-.337.733-.075 1.1-.476 1.1-1.202v-10.759c0-.711-.415-1.149-1.246-1.314-.412-.083-.617-.213-.617-.393 0-.277.138-.416.415-.416.082 0 .172.007.27.022.307.045.774.067 1.403.067.21 0 .738-.011 1.584-.034s1.632-.034 2.358-.034c1.497 0 2.681.281 3.549.842.974.622 1.46 1.539 1.46 2.751 0 2.074-1.198 3.444-3.594 4.11.764 1.737 1.662 3.227 2.695 4.47 1.056 1.273 2.007 1.977 2.853 2.111.233.042.356.188.371.442zm-4.514-10.86c0-1.108-.285-1.898-.854-2.37s-1.479-.708-2.729-.708c-.562 0-.939.077-1.134.23s-.293.484-.293.994v5.29c1.813-.06 3.115-.378 3.908-.955.735-.531 1.102-1.358 1.102-2.481z"/><path d="m815.126 411.377c-.097.996-.258 1.801-.482 2.415-.149.397-.727.752-1.729 1.067-1.093.337-2.351.505-3.773.505-2.351 0-4.309-.7-5.874-2.1-1.587-1.422-2.381-3.246-2.381-5.469 0-2.269.82-4.155 2.46-5.66 1.58-1.453 3.489-2.179 5.728-2.179 1.587 0 2.92.191 3.998.573.958.337 1.456.651 1.494.943.082.569.123 1.494.123 2.774 0 .209-.191.333-.572.371-.293.03-.473-.06-.539-.27-.397-1.28-.927-2.167-1.59-2.662-.662-.494-1.656-.741-2.981-.741-1.662 0-3.018.55-4.065 1.651-1.138 1.198-1.707 2.837-1.707 4.919 0 2.066.599 3.736 1.797 5.009 1.168 1.25 2.662 1.875 4.48 1.875 1.184 0 2.115-.254 2.797-.764.651-.487 1.183-1.284 1.595-2.392.12-.322.39-.438.809-.348.297.068.435.229.412.483z"/><path d="m834.286 407.638c0 2.164-.802 3.998-2.404 5.503-1.572 1.482-3.462 2.224-5.671 2.224-2.321 0-4.249-.696-5.784-2.089-1.572-1.438-2.357-3.294-2.357-5.57 0-2.201.797-4.05 2.392-5.548 1.572-1.467 3.489-2.201 5.75-2.201 2.306 0 4.223.715 5.75 2.145 1.549 1.452 2.324 3.297 2.324 5.536zm-2.28.382c0-2.179-.595-3.901-1.786-5.166-1.145-1.213-2.657-1.819-4.537-1.819-1.557 0-2.835.575-3.835 1.724-.999 1.149-1.499 2.645-1.499 4.487 0 2.208.58 3.946 1.74 5.211 1.131 1.228 2.666 1.842 4.605 1.842 1.564 0 2.841-.577 3.829-1.729s1.483-2.671 1.483-4.55z"/><ellipse cx="708.661" cy="517.006" fill="url(#g)" rx="56.693" ry="52.967"/><path d="m679.314 480.83 8.137-5.13h3.892v-2.123l4.068 2.653 1.946 3.539 7.429 1.061-1.239 4.067 1.239 2.124h4.246l1.768 2.476 2.3-1.238-1.945-5.66 6.367.707v2.831l3.361 3.36-4.422 4.245.176 7.253-2.476 5.13 3.892 4.953h-1.592l-3.361-2.654-4.246-.708-4.952 4.953.708 4.422 3.89 1.062 1.063-3.185 3.359 1.062-.175 2.123-.752 1.459h3.05l1.725 2.52v2.256l1.327.663h2.122v1.459l6.237.797 2.652 2.785 3.848 7.43 3.051 1.327v1.989l-2.387 1.593-11.411 8.093h-2.387l-1.195 4.908-2.123 5.97v4.776l-2.918-4.378.399-6.102 1.724-3.449-1.327-5.175-.928-6.103-3.582-2.122v-3.98l5.837-4.909 1.327-1.46.531-2.122-2.389-1.327-.398-1.193-1.725-.93-1.193.531-1.459-.398-2.695-.929-1.418-1.193-2.388-1.062-4.246-2.52-2.653-4.113-2.255-2.255-2.256-.796 1.327 3.582.531 1.725-.663.132-1.328-2.256-2.255-2.653-1.857-2.122-1.725-3.715 1.725-2.653.929-2.653-1.46-2.919.663-5.572 1.46-1.725-.796-3.715-2.123-2.918-3.184-.664-4.422.664v-1.46" fill="#82a53c" stroke="#507e3a" stroke-miterlimit="10" stroke-width=".5"/><path d="m768.161 230.311h-59.5-59.5c0 76.833-66.5 68.5-66.5 68.5v90.5h126 126v-90.5s-66.5 8.333-66.5-68.5z" fill="#e2206f"/><g clip-path="url(#h)"><ellipse cx="708.661" cy="389.31" fill="#fff" rx="123.307" ry="121.452"/><ellipse cx="708.661" cy="389.31" fill="#fbd707" rx="120.473" ry="118.66"/><ellipse cx="708.661" cy="389.31" fill="#f05b7b" rx="114.094" ry="112.377"/><ellipse cx="708.661" cy="389.31" fill="#5f69b1" rx="111.26" ry="109.586"/><ellipse cx="708.661" cy="389.31" fill="#659ed5" rx="109.133" ry="107.492"/><ellipse cx="708.661" cy="389.31" fill="#5f69b1" rx="106.299" ry="104.7"/><ellipse cx="708.661" cy="389.31" fill="#e2206f" rx="96.377" ry="94.928"/></g><g stroke-miterlimit="10"><g stroke-width=".15"><path d="m717.5 451.339s4.095-4.068 7.56-4.62c0 0-4.26 1.392-7.064 4.909z" fill="#aa962e" stroke="#706127"/><g stroke="#000"><path d="m698.358 457.732-.207.34.433.001z"/><path d="m699.58 458.547.423-.097-.213.418z"/></g></g><path d="m698.165 455.805-.288-.21.081.413z" stroke="#000" stroke-width=".25"/><g stroke-width=".15"><path d="m698.888 456.37s-.597-.023-.854-.204c-.258-.181.22-.36.22-.36.636.201 2.247.116 2.247.116.317.002.688-2.625.688-2.625s1.356.22 1.353.697c0 0-.689 2.214-1.845 2.287l-.595 2.105s-.479.369-.583-.004l.483-1.005-1.165.662s-.616.098-.455-.499l.897-.367.144-.78z" fill="#fd0" stroke="#6c5924"/><path d="m705.819 446.247s8.531-15.015 33.89-16.537c0 0-13.862 14.556-21.972 19.563-8.112 5.006-11.918-3.026-11.918-3.026z" fill="#fff" stroke="#8e8e8e"/></g></g><path d="m737.818 430.891c-3.251 2.773-6.583 5.446-9.864 8.182l-9.958 8.066c1.589-1.428 3.224-2.804 4.869-4.167l4.932-4.092c3.337-2.667 6.635-5.383 10.021-7.989z" fill="#8e8e8e"/><path d="m716.634 445.25s-1.786-.341-3.099 1.286c0 0-3.778 1.506-11.129-.454-3.543-.945-5.802-.149-7.646.402 0 0-4.351 1.181-5.848-1.969 0 0-5.591 0-8.741 3.544 0 0-.236.775 0 1.214 0 0 5.404-1.467 11.524 2.198 0 0 6.51 10.29 21.63 0 0 0 3.308-1.732 5.106-2.009 0 0 .138.268.332-.734.313-1.589.209-3.111-2.129-3.478z" fill="#fff" stroke="#8e8e8e" stroke-miterlimit="10" stroke-width=".15"/><path d="m677.613 429.276s5.538 12.876 27.833 21.386l.006-.002c1.456.483 3.914-.728 3.914-.728l1.507-.588s-10.371-17.128-33.26-20.068z" fill="#fff" stroke="#8e8e8e" stroke-miterlimit="10" stroke-width=".15"/><path d="m679.228 430.26c2.856.524 5.625 1.463 8.295 2.604 2.67 1.145 5.244 2.519 7.682 4.104 2.423 1.608 4.702 3.43 6.803 5.437 2.105 2.004 4.01 4.214 5.687 6.582-3.509-4.617-7.76-8.668-12.627-11.81-2.41-1.601-4.959-2.994-7.61-4.161-2.658-1.145-5.396-2.137-8.23-2.756z" fill="#8e8e8e"/><g stroke-miterlimit="10"><path d="m718.433 449.461s-.041-.7.395-.949l1.39.871z" fill="#fd0" stroke="#6c5924" stroke-width=".15"/><ellipse cx="716.366" cy="447.621" rx=".493" ry=".48" stroke="#fff" stroke-width=".25"/><g stroke-width=".15"><g stroke="#000"><path d="m695.559 457.878-.294.266.414.126z"/><path d="m696.497 459.008.434.03-.325.338z"/><path d="m695.926 455.977-.215-.285-.041.42z"/></g><path d="m696.458 456.725s-.564-.192-.759-.44c-.195-.247.314-.282.314-.282.551.374 2.118.754 2.118.754.305.093 1.412-2.318 1.412-2.318s1.236.6 1.097 1.056c0 0-1.296 1.923-2.423 1.663l-1.173 1.847s-.564.216-.558-.171l.751-.825-1.305.302s-.619-.083-.293-.608l.965-.095.36-.707z" fill="#fd0" stroke="#6c5924"/></g><g fill="#67923d" stroke="#3c5125" stroke-width=".1"><path d="m720.511 449.2s-.215.768 1.183.492c1.397-.275-1.103-.492-1.103-.492"/><path d="m720.713 448.712s-.692-.545-.122-1.092c.572-.546.122 1.092.122 1.092z"/><path d="m721.489 448.513s.658.592 1.485 0c.826-.593-1.485 0-1.485 0z"/><path d="m721.812 447.88s-.492-.472.196-.984c.69-.511-.196.984-.196.984z"/><path d="m723.033 447.335s-.372-.557.119-.773c.491-.217-.119.773-.119.773z"/><path d="m723.81 447.23s.443.386.837.105-.837-.105-.837-.105z"/></g></g></svg>