<svg height="450" viewBox="0 0 238.12501 119.0625" width="900" xmlns="http://www.w3.org/2000/svg" xmlns:xlink="http://www.w3.org/1999/xlink"><radialGradient id="a" cx="302.5" cy="467.86172" gradientTransform="matrix(1 0 0 2.47171 0 -688.55788)" gradientUnits="userSpaceOnUse" r="16.174145"><stop offset="0" stop-color="#fdfdfd"/><stop offset=".5" stop-color="#f0f0f0"/><stop offset="1" stop-color="#b8b8b8"/></radialGradient><radialGradient id="b" cx="279.77298" cy="70.165413" gradientTransform="matrix(1 0 0 1.64194 0 -45.041831)" gradientUnits="userSpaceOnUse" r="32.646557"><stop offset="0" stop-color="#ffec4a"/><stop offset="1" stop-color="#e1d81d"/></radialGradient><g transform="matrix(.75 0 0 .75 -38.419267 -42.097707)"><path d="m51.225689 56.130276h317.5v158.75h-317.5z" fill="#fff"/><path d="m51.225689 56.130276h105.83334v158.75h-105.83334z" fill="#d32e12"/><path d="m262.89233 56.130276h105.83334v158.75h-105.83334z" fill="#79abde"/></g><ellipse cx="119.062501" cy="59.531253" fill="#ffcc2a" rx="29.269529" ry="44.152342"/><ellipse cx="119.062501" cy="59.531253" fill="#fff" rx="19.232153" ry="32.546714"/><g transform="matrix(.75 0 0 .75 -38.419267 -42.097707)"><g fill="#fcbf49" stroke="#843511" stroke-width="1.5"><g transform="matrix(.06888 0 0 .06822 209.975686 108.277764)"><g id="c"><g id="d"><g id="e"><g id="f"><path d="m-8 0 6 159.5s0 3 2 3 2-3 2-3l6-159.5"/><path d="m-4 0 4 109.5 4-109.5" fill="#843511" stroke="none"/><path d="m-4.5 53.5c-5 21.5 6 36 .5 55s3 32 4 40-5 11.5-3 13 8-3.5 8.5-14.5-7-15.75-.5-39-4-31 3-52" transform="matrix(.9799247 .19936793 -.19936793 .9799247 0 0)"/><path d="m-1 58c-3 21 7 32.5 1 51 8-14-2-28 3-50" fill="#843511" stroke="none" transform="matrix(.9799247 .19936793 -.19936793 .9799247 0 0)"/></g><use height="1" transform="scale(-1)" width="1" xlink:href="#f"/></g><use height="1" transform="rotate(90)" width="1" xlink:href="#e"/></g><use height="1" transform="matrix(.70710678 .70710678 -.70710678 .70710678 0 0)" width="1" xlink:href="#d"/></g><use height="1" transform="matrix(.92387953 .38268343 -.38268343 .92387953 0 0)" width="1" xlink:href="#c"/><circle r="65" stroke-width="1"/></g><path d="m-181.31509-2409.2161h517.3382v226.27657h-517.3382z" fill="#fff" stroke="none" transform="matrix(.05114 0 0 .05066 206.019554 230.750492)"/></g><g stroke-linecap="round" stroke-linejoin="bevel" stroke-width=".621565"><g><g fill="#935c35" fill-rule="evenodd" stroke="#803c1d" stroke-width="2.34922"><path d="m283.34995 594.31458 25.77115 18.14871-1.9216-72.40974-23.8424-19.81413z" transform="matrix(.06751 .04564 .04564 -.06751 176.813986 154.699611)"/><g transform="matrix(-.06751058 -.04563926 .04563926 -.06751058 214.33097 180.079543)"><path d="m266.9305 534.49807-14.01544 10.19305"/><path d="m266.68064 544.44627-14.01544 10.19305m13.62823.88192-14.01544 10.19305m14.01544.63706-14.01544 10.19305m14.01544-.63706-14.01544 10.19305m14.01544 0-14.01544 10.19305"/></g></g><g fill="#935c35" fill-rule="evenodd" stroke="#803c1d" stroke-width="2.34922" transform="matrix(.06751 .04564 .04564 -.06751 176.813986 154.699611)"><path d="m272.40459 594.68656-25.77115 18.14871 1.9216-72.40974 23.8424-19.81413z"/><path d="m266.9305 534.49807-14.01544 10.19305"/><path d="m266.68064 544.44627-14.01544 10.19305m13.62823.88192-14.01544 10.19305m14.01544.63706-14.01544 10.19305m14.01544-.63706-14.01544 10.19305m14.01544 0-14.01544 10.19305"/></g><g fill="url(#b)" stroke="#e5c94e" stroke-width="2.47748" transform="matrix(.06434 .0428 .0428 -.06434 178.34033 154.359124)"><path d="m278.38513 16.807786s-4.77633 23.448347-12.34217 49.96237c-7.56584 26.514031-17.92118 56.093734-17.92118 56.093734 6.52585-15.4688 15.53362-17.62175 25.88464-25.627557l5.14412-.09914.17944-.0035 5.14413-.09915c9.54895 10.947707 19.75703 10.473287 26.95728 26.297717 0 0-10.50681-28.175625-18.76838-54.806757-8.26157-26.631124-14.27788-51.717761-14.27788-51.717761z" fill-rule="evenodd" stroke-width="2.47748"/><path d="m278.66389 25.968884.65239 71.16229" fill-rule="evenodd" stroke-width="2.47748"/><rect height="3.123498" opacity=".9" ry="1.561749" stroke-width="2.47749" transform="matrix(.999814 -.0192864 .01628786 .99987184 0 0)" width="14.983953" x="270.20807" y="102.49609"/><path d="m274.38605 100.3424-1.6402 15.02972 13.87718-.26746-2.09583-14.80803z" fill-rule="evenodd" stroke-width="2.47748"/></g><g fill-rule="evenodd"><path d="m156.29323 400.6976h128.96359v2.0091856h-128.96359z" fill="#935c35" stroke="#803c1d" stroke-width=".621567" transform="matrix(-.17253 .25514 .25445 .17354 148.301433 16.40415)"/><path d="m401.6655 182.58874v-23.93509" fill="#e20909" stroke="#a85c35" stroke-width=".621565" transform="matrix(.25515808 .17250609 -.17250609 .25515808 148.303254 16.403805)"/></g></g><g><g fill="#935c35" fill-rule="evenodd" stroke="#803c1d" stroke-width="2.34922"><path d="m283.34995 594.31458 25.77115 18.14871-1.9216-72.40974-23.8424-19.81413z" transform="matrix(-.06751058 .04563926 -.04563926 -.06751058 243.134041 154.702815)"/><g transform="matrix(.06751 -.04564 -.04564 -.06751 205.622078 180.083824)"><path d="m266.9305 534.49807-14.01544 10.19305"/><path d="m266.68064 544.44627-14.01544 10.19305m13.62823.88192-14.01544 10.19305m14.01544.63706-14.01544 10.19305m14.01544-.63706-14.01544 10.19305m14.01544 0-14.01544 10.19305"/></g></g><g fill="#935c35" fill-rule="evenodd" stroke="#803c1d" stroke-width="2.34922" transform="matrix(-.06751058 .04563926 -.04563926 -.06751058 243.134041 154.702815)"><path d="m272.40459 594.68656-25.77115 18.14871 1.9216-72.40974 23.8424-19.81413z"/><path d="m266.9305 534.49807-14.01544 10.19305"/><path d="m266.68064 544.44627-14.01544 10.19305m13.62823.88192-14.01544 10.19305m14.01544.63706-14.01544 10.19305m14.01544-.63706-14.01544 10.19305m14.01544 0-14.01544 10.19305"/></g><g fill="url(#b)" stroke="#e5c94e" stroke-width="2.47748" transform="matrix(-.06433851 .04279262 -.04279262 -.06433851 241.604613 154.364984)"><path d="m278.38513 16.807786s-4.77633 23.448347-12.34217 49.96237c-7.56584 26.514031-17.92118 56.093734-17.92118 56.093734 6.52585-15.4688 15.53362-17.62175 25.88464-25.627557l5.14412-.09914.17944-.0035 5.14413-.09915c9.54895 10.947707 19.75703 10.473287 26.95728 26.297717 0 0-10.50681-28.175625-18.76838-54.806757-8.26157-26.631124-14.27788-51.717761-14.27788-51.717761z" fill-rule="evenodd" stroke-width="2.47748"/><path d="m278.66389 25.968884.65239 71.16229" fill-rule="evenodd" stroke-width="2.47748"/><rect height="3.123498" opacity=".9" ry="1.561749" stroke-width="2.47749" transform="matrix(.999814 -.0192864 .01628786 .99987184 0 0)" width="14.983953" x="270.20807" y="102.49609"/><path d="m274.38605 100.3424-1.6402 15.02972 13.87718-.26746-2.09583-14.80803z" fill-rule="evenodd" stroke-width="2.47748"/></g><g fill-rule="evenodd"><path d="m156.29323 400.6976h128.96359v2.0091856h-128.96359z" fill="#935c35" stroke="#803c1d" stroke-width=".621567" transform="matrix(.17253 .25514 -.25445 .17354 271.649943 16.404494)"/><path d="m401.6655 182.58874v-23.93509" fill="#e20909" stroke="#a85c35" stroke-width=".621565" transform="matrix(-.25516 .1725 .1725 .25516 271.649943 16.404494)"/></g></g></g><g stroke="#000" stroke-width="2.87697"><path d="m402.87921 638.084-16.08826.14294.67997 605.63766c3.02648 7.182 13.32892 7.3756 15.93314 0l-.52623-605.78117z" fill="#935c35" stroke="#803c1d" stroke-width="2.18941" transform="matrix(.0668 0 0 .0664 183.589739 82.459496)"/><g fill="url(#a)" stroke="#8d8c8e" stroke-linecap="round" stroke-linejoin="round" stroke-width="1.57034" transform="matrix(.12775 -.00076 .00121 .11651 170.695301 65.996078)"><path d="m303.41079 428.4458-.005.53557-15.47118 50.17023s2.78205.19114 6.16472 3.72077c3.38269 3.53007 3.67365 7.35733 3.67365 7.35733h9.45423s.26395-3.82726 3.64663-7.35733c3.38267-3.53007 7.04915-3.52561 7.04915-3.52561l-14.51719-50.36644.005-.53557-.002.25421.002-.25316z"/><path d="m303.27372 442.86992-.45007 47.35878"/><rect height="2.941721" ry="1.470861" width="13.530716" x="295.80334" y="490.22702"/><path d="m298.07002 493.16136-1.70176 14.12271h12.53361l-1.67475-13.98176z"/></g></g></g></svg>