<svg height="1642.0366" width="2718.6931" xmlns="http://www.w3.org/2000/svg" xmlns:xlink="http://www.w3.org/1999/xlink"><radialGradient id="a" cx="351.24557" cy="400.81931" gradientTransform="matrix(1 0 0 1.1721394 0 -68.996814)" gradientUnits="userSpaceOnUse" r="321.6326" spreadMethod="pad"><stop offset="0" stop-color="#f7c400"/><stop offset="1" stop-color="#efbc00"/></radialGradient><g fill-rule="evenodd"><path d="m-.00000636.0000114h906.23107432v1642.03660739h-906.23107432z" fill="#d40000"/><path d="m906.23099222.0000114h906.23107432v1641.9152644h-906.23107432z" fill="#fff"/><path d="m1812.46214228.0000114h906.23107432v1642.03660739h-906.23107432z" fill="#fbe710"/></g><g transform="matrix(1.0906965 0 0 1.0906965 991.14849 929.46642)"><path d="m336.99215 771.44106-6.0323-5.49697c0-1.66818.375-2.83635.375-4.50453-1.20415-.83219-3.73712-2.96419-4.79521-3.59698-1.31827-.78751-2.73134-1.68925-3.14017-2.00377-5.35265-4.65978-2.3677-6.24182-.53854-9.32185 4.56563.23446 4.53981-.11882 11.52835-.3694 1.75 2.4746-2.9853-6.56598-4.32678-9.50051-5.62575-12.30638-12.7683-26.00335-26.93296-46.93941l-5.37445-7.94371c-1.1431 20.18732-4.45728 49.57661-22.66489 60.41927-1.69224.9578-3.02216 1.4958-4.79253 1.93837-1.26924.31731-1.70822.36145-3.64643.36602-1.63776 0-2.49492-.0567-3.33862-.23679-6.0589-1.29222-11.80861-5.57851-17.83721-13.29718l-1.21092-1.55048-3.26282-1.44589c-22.77692-10.09364-48.41421-20.31731-59.48502-23.72135-3.85923-1.18674-5.35571-1.51876-12.06075-2.67647-13.77393-2.37825-39.64003-7.2779-44.31085-8.39356-2.45448-.58621-8.87619-4.19832-13.98904-7.86859-11.576979-8.31064-19.925082-19.00232-22.650713-29.00968-.972593-3.57095-1.339052-6.99299-1.084567-10.12803.574134-7.07272 3.771862-11.075 9.130428-17.20205 9.434692-10.80183 20.256982-13.74312 30.914522-9.66873 13.59412 6.88755 26.17856 22.10288 26.89008 30.95755 9.55753-18.50314 9.78595-32.10327 6.10407-44.17146-2.47527-7.6127-6.61335-14.59237-13.26116-22.36751-1.9352-2.26332-6.39284-6.82458-8.94944-9.15741l-1.86864-1.70505-.80226.724c-5.9883 5.40473-12.60582 9.31417-19.85456 11.72939-3.3531 1.11736-6.23706 1.78231-9.92682 2.28879-2.14914.29514-8.038705.40917-10.376519.201-9.711624-.86475-19.109574-4.57508-27.416575-10.82399-.807942-.60779-1.649266-1.15344-1.869615-1.21268-.220349-.0587-.660718-.17506-.978587-.25757-.5714-.14842-.577116-.15568-.503315-.64297.07167-.47309.03877-.52418-.824256-1.27939-4.069963-3.56131-7.735014-7.55942-11.398576-12.43432-8.329874-11.08405-15.337378-25.34429-21.001136-42.7371-.990676-3.0423-1.001601-3.09151-1.273851-5.73954-.445608-4.33402-.540494-6.39316-.541528-11.75188-.000993-3.91997.05776-5.74323.25713-8.01273 1.664178-18.94288 8.23334-34.92896 22.879938-55.67839 3.011621-4.26651 8.027266-10.99229 16.14039-21.64382 4.579959-6.01292 9.876234-13.15273 12.680031-17.09369 5.346129-7.51448 6.192692-8.80033 20.090199-30.51492 18.13742-28.33937 23.02052-36.47238 28.62482-47.67532 8.05391-16.0998 11.73089-28.70371 12.44752-42.66752.15001-2.9229.0841-8.05109-.12581-9.78925l-.5856-3.70828c-1.6365 1.42268-4.89829 5.22013-6.53077 6.64738-1.19147 9.90382-2.79764 13.93508-11.24879 17.85467-8.95812-2.83403-18.00673-7.00223-24.988851-11.5108-8.953936-5.782-16.082181-12.71544-21.668541-21.0763-7.799611-11.67343-12.431251-25.82324-14.310986-43.72065-.5445-5.18425-.944251-12.42148-.945076-17.11028v-2.4203l.984511-1.31885c.541478-.72539 1.788458-2.15587 2.771052-3.17879 8.216758-7.50411 11.973691-9.60104 20.226515-14.73712 2.049156 2.04675 4.628699 3.56312 6.677909 5.60983l69.307117-50.00853 67.71611-48.771203.85895-1.666484c5.55986-10.786617 14.87718-21.657235 26.4995-30.917235 9.32802-7.431978 20.50025-14.183702 32.4513-19.611208 4.43535-2.014215 7.24236-1.819545 8.79466-3.095679 7.56049 25.635185 24.67352 52.098406 49.8868 56.758074 1.76296.29415 4.84332.206272 6.555-.186988 2.60365-.59814 5.4877-1.682886 8.56244-3.220536 21.0765-12.490493 32.72713-30.679912 37.79551-52.118681.34147-1.48049.64089-2.504.73258-2.504.20982 0 6.45283 2.56454 8.89052 3.652069 8.3164 3.710323 16.31053 8.028031 23.25605 12.56086 16.08795 12.176061 27.70495 24.090212 36.27964 39.937134-2.38257.521256 32.43015 22.375557 69.63274 49.229797l68.75785 49.63202c2.05427-2.04945 3.755-3.215 5.80928-5.26443l2.43111.2027c5.5462 3.48229 7.77673 4.99946 11.48487 7.81162 4.69138 3.55783 8.25985 6.95621 10.58879 10.0844l.93016 1.24947-.0905 3.69173c-.46344 18.82578-2.86117 32.73363-7.78537 45.1572-7.31369 18.4525-20.59784 32.2002-39.90008 41.2922-6.15378 2.77294-9.85531 3.19653-15.6367 5.11766-13.61592-7.80054-5.91805-6.48696-10.41021-17.49251-3.34758-3.68607-4.71257-4.14938-6.60622-5.96704-.19586.33829-.18559 11.76383-.0142 14.17509.3668 5.16079 1.00953 9.50384 2.09494 14.15566 3.37765 14.47587 10.3359 29.31129 24.41864 52.06242 1.37989 2.22923 4.29534 6.8566 6.47875 10.28292 17.64987 31.45602 39.60993 59.69977 60.97399 87.74718 11.69809 17.75405 17.20612 32.20864 18.83314 49.42291.11461 1.21189.24375 4.27675.28719 6.81077.0845 4.92003-.0328 7.88628-.50679 12.82023-.27248 2.83791-.28569 2.90302-1.14568 5.60892-4.25269 13.38157-9.89551 26.00049-15.97107 35.71558-4.87529 7.79611-10.13838 14.2184-15.94363 19.45574-1.59302 1.43704-1.62224 1.47373-1.50465 1.88369.0656.23003.0965.44177.0676.4706-.0288.0288-.46344.15875-.96585.28858-.76714.19822-1.19171.43948-2.64954 1.50524-8.67975 6.34544-17.30662 9.72722-27.20751 10.66564-2.48401.2354-8.29473.0974-10.78592-.25628-9.18881-1.30434-17.58605-4.80322-25.17312-10.48879-1.3647-1.02261-3.08413-2.45072-4.14021-3.43864l-.82694-.77359-.98859.88284c-4.27432 3.81719-8.83019 8.58989-12.0892 12.66445-6.06441 7.58198-10.0931 15.32501-11.98687 23.03831-3.94531 12.65939-.11736 28.7749 6.93515 41.02455 7.52697-31.32315 39.65925-40.00874 55.29831-24.15309 9.894 10.72429 13.16164 18.3641 10.78458 29.60012-1.21208 4.53015-3.82484 9.78131-7.04328 14.15568-3.69432 5.02112-8.65531 9.95069-14.30877 14.21809-5.27103 3.97873-12.68114 8.26035-15.39237 8.89378-5.30964 1.24032-30.92857 6.10766-43.16685 8.20111-8.57009 1.46597-9.40523 1.65703-14.68989 3.3602-11.74368 3.78479-36.13388 13.55057-57.73493 23.11705l-3.58264 1.58666-1.06021 1.394c-4.22074 5.54968-8.8022 9.64302-13.14162 11.74134-2.74212 1.32591-4.73188 1.85287-7.41171 1.96292-2.94519.12088-5.32067-.41026-8.21298-1.83607-2.074-1.02252-3.73938-2.22527-5.71985-4.13072-5.08865-4.89618-9.0511-11.39063-12.69916-20.81385-3.6478-9.42254-4.6852-22.64056-5.18299-32.89813-.0846-1.74383-.7283-3.24646-1.49287-1.13785-.0347-.0388-6.28663 9.71071-9.56751 14.92002-5.47832 8.69814-11.10137 18.22634-14.7377 24.9728-3.33815 6.50006-8.49256 16.10329-11.28473 22.75599 3.48008.16655 8.09047-.0704 11.34175.48371 1.13395 3.52857 2.12015 4.57514.1566 6.98108-.96346 1.13633-1.84654 1.84741-4.23132 3.40723-1.1752.76862-2.45221 1.60952-2.83782 1.86867l-2.45111 1.7211v6.1978l-5.56156 4.519-7.31156 6.26899-6.41375.01-6.41377.01-6.9073-6.37199z" fill="url(#a)" transform="translate(-13.480593 -501.06249)"/><g stroke-width=".745891"><g fill="none" stroke="#000" transform="matrix(2.6813577 0 0 2.6813577 -2.961455 -468.9937)"><path d="m110.44733 32.565975c11.30186 4.440747 22.25293 4.361127 32.87175 0"/><path d="m150.66563 42.534552c-16.72702 7.306923-32.37738 6.322389-47.28497-.382437"/><path d="m127.0625 18.856074c-4.01807.312096-16.17246-6.065566-19.46027-21.639534-14.768911 5.7666437-29.991046 17.768063-28.097869 35.155038s27.410859 14.757209 31.112409 1.742248-11.902512-22.542509-17.687506-6.444283c9.698786-8.641049 14.832506-1.347093 13.162786 5.210272s-19.847943 13.101632-21.389531-3.564923 18.419751-27.2591105 21.115311-26.8740303c5.16444 17.1570323 18.33442 19.6904723 21.24467 19.5809103"/><path d="m127.0625 25.635144c-3.1559.163279-17.33634-3.108049-23.17876-18.736691-11.216023 5.157586-12.751708 12.958556-10.865902 20.96904"/><path d="m28.486434 52.627426c-4.695889 2.831071-7.781306 5.304258-9.186531 7.40407.101067 15.721614 4.127781 29.443369 23.446221 35.375 3.927623-1.563668 3.179233-4.062539 3.702035-6.307171-15.364116-9.771974-20.513514-21.215447-15.767926-34.2781z"/><path d="m30.819996 54.941366 51.547303-37.190809"/><path d="m79.781317 25.952387-50.609524 37.908665"/><path d="m46.623353 88.874955 47.603977-41.398978.29086-2.714687"/><path d="m41.678745 85.578549 47.700929-41.205072"/><path d="m49.241087 86.257221c1.771164 14.995409-6.70223 25.854159-18.808903 44.986239s-25.7428632 27.99127-23.0748405 49.25218c15.1013885 48.92907 54.3980735 19.0827 41.6898375 2.71469-4.684089-4.83965-18.526951 1.95943-6.980624 12.7978-2.438517 6.679-11.197808 9.45453-22.299215 6.59282"/><path d="m53.507024 83.542534s-1.231734 28.658026-6.786718 38.199526c-16.482028 28.3103-7.176287 34.3814-14.736872 35.09702s-9.033284-4.61403-.581719-20.16625c0 0-16.23392 19.85851-14.930779 31.99453s6.592811 16.48203 6.592811 16.48203c1.464309 1.47406-.550125 5.62782-3.490312 3.1025l-6.204999-5.81719c1.987023 4.0667 4.241173 9.83141 9.307499 11.82828s8.076058-.39471 10.858748.38781 5.817187 5.04157 5.817187 5.04157"/><path d="m48.77907 245.95591c16.763497-8.07007 26.698373-23.42245 1.919573-50.32025"/><path d="m55.908915 246.50436c13.570344-6.98591 25.113384-29.26817-5.210272-50.8687 29.226656 13.71914 30.040952 41.96264 10.326444 52.45037"/><path d="m46.768067 201.6686c11.76825 10.34389 12.36341 20.03054 6.5814 29.34206 1.38734-2.22966-9.50333-19.40537-20.2204-9.56509-10.71706 9.84028.1851 21.12152 8.97718 25.1959 1.5384.41956 15.12215 2.97037 18.92151 3.56493s17.87892 6.40959 26.273061 10.1786c11.85283 16.37143 20.674342-7.39491 19.584532-18.71195 5.21328 8.1227 10.59356 16.19769 14.0582 24.82"/><path d="m127.25305 266.93411c-3.66756-19.20992-16.37023-32.85977-29.342052-46.34399 4.632622 17.12287 6.125702 32.75578-10.55766 39.76259"/><path d="m94.208958 256.17078c-7.75715-3.63902-16.890018-7.06876-28.848448-10.96625"/></g><g transform="matrix(2.6813577 0 0 2.6813577 10.729127 -478.81178)"><path d="m99.765976 209.28412h43.893084v14.49569h-43.893084z" fill="none" stroke="#000" stroke-width=".745891"/><g transform="matrix(.29078772 0 0 .29078772 -1.082181 159.45582)"><path d="m381.41138 191.53692v17.12036h7.1997v-27.87964h-5.63964c-.0537 1.04007-.31394 1.93342-.78064 2.68006-.46673.74668-1.07993 1.34666-1.8396 1.79992-.7597.45331-1.61297.77985-2.55982.97962-.94686.19981-1.96676.2997-3.05969.29968v5z"/><path d="m408.44507 196.09747c1.33381.00001 2.43407.3534 3.30078 1.06018.86668.70679 1.30003 1.68681 1.30005 2.94006-.00002 1.33301-.4468 2.31955-1.34033 2.95959-.89357.64006-1.99343.96009-3.29956.96009-1.30698 0-2.41375-.32674-3.32032-.98023-.90658-.65347-1.35987-1.63329-1.35986-2.93945-.00001-1.2801.45999-2.26683 1.38-2.96021.92-.69334 2.03307-1.04002 3.33924-1.04003zm-11.51978 4.36035c0 1.54623.32674 2.87944.98023 3.99963.65348 1.1202 1.5336 2.01355 2.64038 2.68005 1.10676.66651 2.33337 1.14645 3.67981 1.43982 1.34642.29338 2.75288.44007 4.21936.44007 1.44041 0 2.83385-.16012 4.1803-.48035 1.34641-.32023 2.5663-.82682 3.65966-1.51977 1.09333-.69295 1.96002-1.59282 2.6001-2.69959.64003-1.10676.96006-2.39338.96008-3.85986-.00002-1.73339-.46653-3.18684-1.39953-4.36035-.93305-1.17349-2.21295-1.92016-3.83972-2.23999v-.0806c1.25323-.2661 2.25319-.94583 2.99987-2.03919.74665-1.09332 1.11998-2.29347 1.12-3.60046-.00002-1.33299-.2934-2.49286-.88013-3.47961-.58677-.98671-1.38023-1.79339-2.38037-2.42005-1.00018-.6266-2.10024-1.0866-3.30017-1.38-1.19997-.29335-2.42657-.44004-3.67981-.44007-1.22641.00003-2.4463.14672-3.65967.44007-1.21338.2934-2.32666.7534-3.33984 1.38-1.01319.62666-1.82658 1.43334-2.44019 2.42005-.61361.98675-.92041 2.1332-.92041 3.43933 0 1.38674.36682 2.60011 1.10047 3.64013.73364 1.04006 1.75353 1.71999 3.05969 2.0398v.0806c-1.57308.26694-2.8597 1.02703-3.85986 2.28027-1.00017 1.25327-1.50025 2.69329-1.50025 4.32007zm11.48072-15.04029c1.19953.00003 2.21271.26675 3.03955.80018.8268.53346 1.24021 1.33323 1.24023 2.39929-.00002 1.09377-.42665 1.91387-1.27991 2.46032-.85328.54649-1.85324.81972-2.99987.81971-1.20037.00001-2.20725-.26-3.02063-.78003-.81341-.52-1.22011-1.35334-1.2201-2.5-.00001-1.09292.39998-1.8994 1.19995-2.41944.79996-.51999 1.81355-.78 3.04078-.78003z"/><path d="m444.64014 208.65728v-5.7605h-13.23975c.79996-.79996 1.51325-1.41987 2.13989-1.85974.62662-.43985 1.5397-1.04634 2.73926-1.81946l.15991-.0806c.16031-.1066.41381-.26651.7605-.47974 1.25324-.7731 2.2532-1.41967 2.99988-1.9397.74664-.52 1.44-1.12669 2.08008-1.82007.64003-.69334 1.14683-1.50673 1.52038-2.44018.37351-.93341.56028-1.9999.56031-3.19946-.00003-1.44041-.27346-2.72052-.82032-3.84034-.54689-1.11976-1.30698-2.04648-2.28027-2.78015-.97333-.73361-2.08661-1.287-3.33984-1.66015-1.25327-.3731-2.58669-.55967-4.00025-.5597-1.65366.00003-3.16041.25333-4.52026.75989-1.35987.50662-2.51974 1.23335-3.47962 2.18018-.95988.94688-1.69983 2.08681-2.21984 3.4198-.52003 1.33303-.78004 2.78647-.78003 4.36035-.00001.0261.0134.17254.0403.43945v.44068h6.35986c.0268-1.70734.38675-3.07433 1.07971-4.10096.69295-1.02659 1.87967-1.53989 3.56019-1.53991 1.09292.00002 1.96613.31333 2.61962.93994.65347.62665.98021 1.47341.98023 2.54028-.00002.87974-.30662 1.67299-.9198 2.37976-.61322.7068-1.51999 1.46018-2.72034 2.26013-.42644.26694-.95989.6002-1.60034.99976-1.25327.72023-2.31324 1.37371-3.17993 1.96045-.86671.58676-1.70004 1.22682-2.5 1.92017-1.38672 1.17351-2.45341 2.56694-3.20007 4.18029-.74667 1.61337-1.13302 3.3132-1.15906 5.09949z"/><path d="m447.1145 200.01714c.10661 1.6268.46 3.02023 1.06018 4.1803.60018 1.16008 1.40015 2.09331 2.3999 2.79968.99976.70639 2.15963 1.21969 3.47962 1.53992 1.31998.32023 2.76651.48035 4.3396.48035 3.38703 0 6.14052-.89335 8.2605-2.68006 2.11993-1.78669 3.1799-4.33328 3.17993-7.63977-.00003-2.88003-.84007-5.11351-2.52014-6.70044-1.68012-1.58689-3.96018-2.38035-6.84021-2.38037-2.2396.00002-4.05275.66693-5.43946 2.00074h-.0806l1.04004-5.08057h12.36084v-5.75928h-17.6001l-2.71973 15.75928h6.15967c.50618-.79996 1.11266-1.35314 1.81946-1.65955.70677-.30638 1.58019-.45958 2.62024-.45959 1.35985.00001 2.43325.41993 3.22021 1.25976.78693.83986 1.18041 1.95314 1.18042 3.33985-.00001 1.33301-.44008 2.41293-1.32019 3.23974-.88014.82683-1.98711 1.24024-3.32092 1.24024-1.1198 0-2.1397-.32002-3.05969-.96008-.92001-.64005-1.39344-1.4801-1.42029-2.52015z"/></g></g></g><g transform="matrix(1.7218245 0 0 1.7218245 301.04327 -326.76182)"><path d="m-2.4994584-18.11274-.209196.577826-3.2364928-1.17174c.047946-.146347.1217107-.27705.2212939-.39211.1621958-.190614.3727265-.359952.6315929-.508014.2588643-.14806.6105393-.300298 1.055026-.456715.6901814-.243759 1.1749461-.459259 1.4542955-.6465.2793422-.187238.4601288-.394418.5423601-.621543.086254-.238253.073838-.470046-.037247-.695382-.1110936-.225328-.3035797-.387572-.5774587-.486733-.2894728-.104795-.5524881-.101794-.7890466.009-.236564.110806-.4115823.319445-.5250554.625919l-.594931-.287168c.2091784-.445604.4955566-.739224.8591355-.880861.3635739-.141629.7780509-.128203 1.2434322.04028.4698273.170102.7945243.43499.974092.794666.1795583.359682.1996079.73213.060149 1.117344-.070946.195951-.1807582.374049-.3294372.534294-.1486879.160249-.3538828.31137-.6155854.453363-.2617102.141997-.6746563.317386-1.2388396.526169-.4703621.172234-.7763049.293807-.9178291.364718-.1415275.07091-.2654414.148829-.371742.233752z"/><path d="m-1.6115485-18.436771.6043162.125211c-.034597.291527-.0007153.521022.10164369.688486.10235615.167465.26337639.284757.48306118.351878.18797415.05743.3658837.06474.5337292.02193.16784059-.04281.31902755-.122288.45356133-.238422.13452796-.116134.26973412-.287158.40561886-.51307.13587814-.225912.24256904-.465695.32007314-.719351.0083-.02718.019623-.06829.033969-.123336-.1818106.157406-.39710235.264341-.64587582.320806-.2487795.05647-.49659781.04699-.74345567-.02844-.41219076-.125937-.71529571-.381975-.90931577-.768115-.19402274-.386136-.21630094-.8238-.0668344-1.312994.15431553-.505041.42743262-.86607.81935995-1.08309.39192309-.217011.81209812-.257013 1.26051845-.120008.323859.09896.5933372.276625.8084353.533006.2150897.25639.3429756.567226.3836581.932509.040673.365289-.032403.853676-.2192304 1.465163-.1944475.636402-.418351 1.12204-.6717112 1.456915-.2533675.334874-.5465947.559138-.87969816.672791-.33310908.113653-.68310873.11443-1.05000002.0023-.38954252-.119019-.67470932-.324383-.85548552-.616093-.1807781-.291711-.2362239-.64108-.1663376-1.04811zm3.1752639-1.432992c.1072512-.351037.098942-.658147-.024929-.921332-.1238784-.263179-.3171725-.434904-.57988272-.515176-.27177592-.08303-.54235104-.04437-.81172616.11599-.26938009.160366-.45804244.417199-.56598759.770501-.0968775.317071-.0799023.603924.0509256.860561.13082401.256641.33665286.427862.61748717.513665.28309389.0865.54607282.05851.7889375-.08395.242858-.142463.4179163-.389215.5251753-.740257z"/><path d="m6.3405905-15.077933.1017457-.464992c-.3136346.31439-.6971627.421977-1.1505854.322763-.2938025-.06429-.5461739-.204355-.7571152-.420202-.2109434-.215847-.3523173-.483742-.4241223-.803686-.071806-.319943-.066454-.668455.016057-1.04554.080485-.367827.2148085-.68812.4029718-.960878.1881612-.272753.4223158-.462114.7024645-.568085.2801453-.105963.5717459-.125791.8748027-.05948.2220829.0486.4096273.138725.5626338.270379.1530001.13166.2674151.284569.3432452.458728l.3993898-1.825267.6211461.135914-1.1131285 5.087151zm-1.5720539-2.271187c-.1032655.471933-.080985.846492.066842 1.123677.1478244.277186.3570706.445391.6277393.504616.2729781.05973.5293195-.0011.769025-.182625.2397-.181481.4096649-.501247.5098952-.959299.1103477-.504318.094177-.895721-.048513-1.17421-.142696-.278484-.3563158-.448858-.6408603-.511123-.2776095-.06074-.5343306.0019-.770164.18783-.2358371.185966-.4071585.52301-.5139648 1.011134z"/><path d="m10.653319-15.553294.639539.184929c-.163803.364728-.401656.63009-.71356.796085-.311909.165994-.6841699.214428-1.1167826.1453-.5448627-.08706-.9500823-.323884-1.2156599-.710458-.2655792-.386574-.3499787-.882691-.2531986-1.488354.1001419-.626705.339218-1.087321.7172291-1.38185.3780085-.294523.8242438-.400682 1.338707-.318479.498089.07959.87789.31415 1.139404.703669.261506.389524.343125.891792.244854 1.506805-.006.03742-.01612.09335-.03041.167808l-2.7780912-.443915c-.042008.412968.023674.744818.1970474.99555.1733705.250734.4155638.400949.7265809.450646.2315052.03699.4388202.0078.6219459-.08767.18312-.09544.343918-.268797.482396-.520061zm-1.9099393-1.351994 2.0800603.332377c.02201-.317836-.01995-.565556-.125862-.74316-.16225-.275332-.403557-.438596-.7239234-.489791-.2899714-.04633-.5492627.01176-.777875.174274-.2286157.16252-.3794156.40462-.4523999.7263z"/><path d="m13.93974-16.448492c.05028-.862899.321335-1.524943.813151-1.986135.491814-.461182 1.104159-.670422 1.837037-.62772.479912.02797.905863.167843 1.277855.419613.371982.25178.647091.588644.825325 1.010593.178224.421956.252184.892985.221881 1.413088-.03073.527199-.164597.99264-.401609 1.396324-.237022.403686-.556804.701139-.959346.89236-.402551.191221-.829597.273674-1.28114.247361-.489374-.02852-.919847-.17221-1.291419-.431078-.371576-.258867-.644739-.598582-.81949-1.019148-.174753-.420562-.248834-.858981-.222245-1.315258zm.708615.05197c-.03651.626492.103175 1.129817.419054 1.509975.315875.38016.727955.585049 1.236243.614669.517738.03017.954477-.127033 1.310219-.471614.355734-.344578.553097-.85139.59209-1.520437.02466-.423174-.02533-.796734-.149965-1.120681-.124642-.323941-.319607-.580819-.584897-.770635-.265297-.189808-.569342-.294702-.912135-.314683-.487011-.02838-.915797.114467-1.28636.428526-.370566.314068-.578649.862361-.624249 1.64488z"/><path d="m23.323853-15.538604.692912.158309c-.131526.569128-.381526 1.006529-.75 1.312204-.368482.305676-.823801.464692-1.365958.477049-.561102.01279-1.020043-.09104-1.376824-.311494-.356784-.220451-.631854-.545213-.82521-.974286-.193358-.429071-.295702-.892196-.307034-1.389375-.01236-.542157.08044-1.017428.2784-1.425814.197956-.408378.485723-.721688.863301-.939933.377576-.218234.796013-.332588 1.255313-.343062.520849-.01187.96186.110731 1.323034.367793.361166.257072.61707.624316.767712 1.101733l-.67465.175267c-.129381-.376046-.310863-.647868-.544447-.815466-.233591-.16759-.524397-.24742-.872418-.239493-.400112.0091-.732337.112631-.996677.310519-.264343.197897-.447283.459667-.548822.785311-.101541.325651-.148398.660119-.140573 1.003405.01009.442727.08341.827752.219972 1.155078.136555.327328.342827.569567.618816.726719.275985.157154.572602.232114.889851.224883.385901-.0088.710081-.127515.972541-.356159.262452-.228643.436039-.563038.520761-1.003188z"/><path d="m26.224529-13.9286-.43288-4.572537-1.708071.161703-.05792-.611794 4.109271-.389023.05792.611793-1.715143.162372.43288 4.572537z"/><path d="m31.851222-19.945556.679849-.112687.491989 2.968206c.08558.516314.09513.936007.02866 1.259079-.06648.323076-.236371.605083-.509687.846021-.273325.24094-.657627.402457-1.152909.484552-.48127.07977-.888675.06208-1.222216-.05306-.333544-.115144-.591772-.318987-.774685-.611528-.182915-.292539-.319485-.710982-.409712-1.25533l-.491989-2.968207.679849-.112687.491408 2.964703c.07396.446225.169935.768179.287918.965861.117981.197685.287502.337016.508564.417995.221059.08098.477604.09727.769638.04886.499955-.08287.837451-.255231 1.012491-.517087.175033-.261854.209112-.715184.102237-1.359991z"/><path d="m34.482862-15.1503-1.208682-5.065299 1.900351-.453461c.386979-.09234.709599-.115149.967861-.06844.258258.04672.479033.160809.662327.342268.183289.18147.302692.388527.35821.621171.05166.216529.04157.434401-.03028.653616-.07186.219223-.212397.415877-.421618.589964.327793.01673.599873.113712.81624.290934.216361.177228.35972.413261.43008.7081.05661.237259.05914.469769.0076.697533-.05156.227767-.137857.414521-.258891.560263-.121042.145745-.285969.273355-.494782.38283-.208821.109476-.474471.20269-.796952.27964zm-.0305-3.096854 1.095293-.261359c.297144-.0709.505541-.141323.625193-.211266.158361-.09135.266716-.206065.325066-.344157.05835-.138084.06636-.295811.02404-.473182-.04013-.168147-.115753-.306525-.226877-.415134-.111129-.108599-.247188-.168648-.408179-.180147-.160994-.01149-.423463.02619-.787407.113027l-1.012371.241572zm.55817 2.339159 1.261142-.300934c.216522-.05167.366626-.096.450313-.133017.147733-.06447.265733-.141316.354001-.230548.08826-.08923.151092-.203433.188489-.342609.03739-.139173.03685-.289381-.0016-.450625-.04507-.188881-.13261-.341459-.262606-.457736-.130002-.11627-.287538-.18215-.472609-.197639-.185076-.01548-.438855.01525-.761337.0922l-1.171307.279498z"/><path d="m39.240383-16.320418-1.540468-4.974446 2.205587-.683018c.443378-.137299.794272-.197 1.052683-.179106.258407.01791.491633.118597.69968.302073.20804.183487.354444.412087.439212.685801.109279.352898.08716.685746-.06636.998545-.153522.312806-.45878.575914-.915773.789325.200102.02976.358006.07135.473714.124761.24692.116905.497324.281071.751212.492498l1.284537 1.085938-.827944.256394-.978776-.831074c-.284755-.239055-.513858-.418494-.68731-.538317-.173457-.119818-.319194-.196162-.43721-.229032-.118019-.03286-.231779-.04598-.34128-.03934-.07956.0073-.204163.0372-.373822.08973l-.763472.23643.684068 2.20898zm-.202319-2.982894 1.414968-.438182c.300863-.09317.526493-.197127.676891-.311879.150394-.114745.248512-.254209.294356-.418393.04584-.164176.04389-.326572-.0058-.487189-.07286-.235257-.218149-.402225-.435874-.500904-.217729-.09867-.510957-.09091-.879684.02327l-1.57445.48757z"/><path d="m44.252907-17.919002-1.845058-4.869695 3.521062-1.33408.217732.574664-2.876641 1.089918.565096 1.491469 2.693944-1.020697.216474.571342-2.693944 1.020697.628024 1.657556 2.98958-1.132709.217732.574663z"/></g><g fill="none" stroke="#000" stroke-width=".745891" transform="matrix(2.6813577 0 0 2.6813577 -2.961455 -468.9937)"><path d="m225.52086 52.627426c4.69588 2.831071 7.7813 5.304258 9.18653 7.40407-.10107 15.721614-4.12778 29.443369-23.44622 35.375-3.92763-1.563668-3.17924-4.062539-3.70204-6.307171 15.36412-9.771974 20.51352-21.215447 15.76793-34.2781z"/><path d="m223.18729 54.941366-51.96686-37.4239"/><path d="m174.22597 25.952387 50.60953 37.908665"/><path d="m207.38394 88.874955-47.60398-41.398978-.29086-2.714687"/><path d="m212.32855 85.578549-47.70093-41.205072"/><path d="m204.7662 86.257221c-1.77116 14.995409 6.70223 25.854159 18.80891 44.986239 12.10667 19.13208 25.74286 27.99127 23.07484 49.25218-15.10139 48.92907-54.39808 19.0827-41.68984 2.71469 4.68409-4.83965 18.52695 1.95943 6.98062 12.7978 2.43852 6.679 11.19781 9.45453 22.29922 6.59282"/><path d="m200.50027 83.542534s1.23173 28.658026 6.78671 38.199526c16.48203 28.3103 7.17629 34.3814 14.73688 35.09702 7.56058.71562 9.03328-4.61403.58172-20.16625 0 0 16.23392 19.85851 14.93077 31.99453-1.30314 12.13602-6.59281 16.48203-6.59281 16.48203-1.46431 1.47406.55013 5.62782 3.49031 3.1025l6.205-5.81719c-1.98702 4.0667-4.24117 9.83141-9.3075 11.82828-5.06632 1.99687-8.07605-.39471-10.85874.38781s-5.81719 5.04157-5.81719 5.04157"/><path d="m205.22822 245.95591c-16.7635-8.07007-26.69837-23.42245-1.91957-50.32025"/><path d="m198.09837 246.50436c-13.57034-6.98591-25.11338-29.26817 5.21028-50.8687-29.22666 13.71914-30.04096 41.96264-10.32645 52.45037"/><path d="m207.23922 201.6686c-11.76825 10.34389-12.36341 20.03054-6.5814 29.34206-1.38734-2.22966 9.50333-19.40537 20.2204-9.56509 10.71706 9.84028-.1851 21.12152-8.97718 25.1959-1.5384.41956-15.12215 2.97037-18.92151 3.56493s-17.87892 6.40959-26.27306 10.1786c-11.85283 16.37143-20.67434-7.39491-19.58453-18.71195-5.21328 8.1227-10.59356 16.19769-14.0582 24.82"/><path d="m126.75424 266.93411c3.66756-19.20992 16.37023-32.85977 29.34205-46.34399-4.63262 17.12287-6.1257 32.75578 10.55766 39.76259"/><path d="m159.79833 256.17078c7.75715-3.63902 16.93664-7.06876 28.89507-10.96625"/><path d="m116.5 266.5h20.9375c1.15352 3.25705-1.69628 3.98568-3.5 5.375h-14.5c-1.8304-1.34903-5.00336-1.99992-2.9375-5.375z"/><path d="m119.625 272.0625h14.375v1.9375l-5.1875 4.4375h-4.3125l-4.875-4.5z"/></g><g transform="matrix(1.3407451 -1.0321269 1.0321269 1.3407451 61.432897 -467.5711)"><path d="m-47.609375 108.61918v-11.453129h1.515625v10.101559h5.640625v1.35157z"/><path d="m-38.382812 108.61918v-11.453129h1.515625v11.453129z"/><path d="m-34.265625 108.61918v-11.453129h4.296875c.874994.000011 1.576816.115896 2.105469.347656.528637.231782.9427.588552 1.242187 1.070312.29947.481781.44921.985687.449219 1.511721-.000009.48959-.132822.95053-.398437 1.38281-.265634.4323-.666675.78126-1.203125 1.04688.692699.20313 1.225251.54948 1.597656 1.03906.372386.48959.558584 1.06771.558594 1.73437-.00001.53646-.113291 1.03516-.339844 1.4961-.226572.46094-.50652.8164-.839844 1.0664-.333342.25-.75131.43881-1.253906.56641-.502611.1276-1.118496.19141-1.847656.19141zm1.515625-6.64063h2.476563c.671869.00001 1.153639-.0443 1.445312-.13281.38541-.11458.675774-.30468.871094-.57031.195305-.26562.292961-.59895.292969-1-.000008-.380204-.09115-.714839-.273438-1.003911-.182299-.289052-.442715-.486969-.78125-.59375-.338548-.10676-.919277-.160146-1.742187-.160156h-2.289063zm0 5.28906h2.851563c.489577 0 .833326-.0182 1.03125-.0547.348951-.0625.640617-.16667.875-.3125.234367-.14584.427075-.35808.578125-.63672.151033-.27865.226554-.60026.226562-.96485-.000008-.42708-.109383-.79817-.328125-1.11328-.218758-.3151-.522143-.53645-.910156-.66406-.388028-.1276-.946621-.1914-1.675781-.19141h-2.648438z"/><path d="m-23.484375 108.61918v-11.453129h8.28125v1.351562h-6.765625v3.507817h6.335937v1.34375h-6.335937v3.89843h7.03125v1.35157z"/><path d="m-12.804688 108.61918v-11.453129h5.0781255c1.020826.000011 1.7968669.102876 2.328125.308593.5312408.20574.9557195.569021 1.2734375 1.089844.3176981.520843.4765521 1.096363.4765625 1.726562-.0000104.81251-.263031 1.4974-.7890625 2.05469-.5260508.5573-1.33855.91146-2.4375 1.0625.4010341.19271.7057213.38282.9140625.57031.4426998.40625.8619702.91407 1.2578125 1.52344l1.9921875 3.11719h-1.90625l-1.515625-2.38282c-.4427158-.68749-.8072988-1.21353-1.09375-1.57812-.2864649-.36458-.542975-.61979-.7695312-.76563-.2265684-.14583-.4570369-.24739-.6914063-.30468-.1718802-.0365-.4531299-.0547-.84375-.0547h-1.757813v5.08594zm1.515625-6.39844h3.257813c.6927016 0 1.2343677-.0716 1.625-.21485.390617-.14322.6874917-.37238.890625-.6875.2031162-.31509.3046786-.65754.3046875-1.02734-.0000089-.541657-.1966232-.986969-.5898437-1.335937-.3932371-.348948-1.0143302-.523427-1.8632813-.523437h-3.6250005z"/><path d="m1.6484375 108.61918v-10.101567h-3.7734375v-1.351562h9.078125v1.351562h-3.7890625v10.101567z"/><path d="m7.2578125 108.61918 4.3984375-11.453129h1.632813l4.687499 11.453129h-1.726562l-1.335937-3.46875h-4.789063l-1.2578125 3.46875zm3.3046875-4.70313h3.882813l-1.195313-3.17187c-.364589-.963537-.635422-1.755203-.8125-2.375004-.145838.734384-.351567 1.46355-.617187 2.187504z"/><path d="m19.203125 108.61918v-11.453129h3.945312c.890619.000011 1.570306.0547 2.039063.164062.656242.151053 1.216137.42449 1.679687.820313.604158.510426 1.05598 1.162769 1.355469 1.957034.299469.79428.449208 1.70183.449219 2.72265-.000011.8698-.101573 1.64063-.304688 2.3125-.203135.67188-.463551 1.22787-.78125 1.66797-.317717.44011-.665373.78646-1.042968 1.03906-.377613.25261-.833341.44402-1.367188.57422-.533861.13021-1.147141.19532-1.839844.19532zm1.515625-1.35157h2.445312c.755203 0 1.34765-.0703 1.777344-.21093.42968-.14063.772128-.33854 1.027344-.59375.359367-.35938.639314-.84245.839844-1.44922.200512-.60677.300772-1.34245.300781-2.20703-.000009-1.19791-.196624-2.11849-.589844-2.76172-.393237-.643223-.871101-1.074212-1.433594-1.292972-.406256-.15624-1.059901-.234365-1.960937-.234375h-2.40625z"/></g><g transform="matrix(1.3516746 1.0177717 -1.0177717 1.3516746 638.28165 -450.49191)"><path d="m-47.289062 108.61918v-11.453129h1.515625v11.453129z"/><path d="m-37.75 104.12699v-1.34375l4.851563-.008v4.25c-.744803.59375-1.513031 1.04036-2.304688 1.33984-.791675.29948-1.604174.44922-2.4375.44922-1.125006 0-2.14714-.24089-3.066406-.72266-.919274-.48177-1.613284-1.17838-2.082031-2.08984-.468752-.91146-.703126-1.92968-.703125-3.05469-.000001-1.11458.233071-2.15494.699218-3.121093.466144-.966136 1.136716-1.683583 2.011719-2.152344.874996-.468738 1.882807-.703113 3.023438-.703125.828117.000012 1.576814.134126 2.246093.402344.669262.26824 1.194001.641938 1.574219 1.121094.380198.479176.66926 1.104175.867188 1.875004l-1.367188.375c-.171885-.58333-.385426-1.041662-.640625-1.375004-.255217-.333324-.6198-.600251-1.09375-.800782-.473966-.20051-1.000007-.300771-1.578125-.300781-.692714.00001-1.291672.105479-1.796875.316406-.505213.210948-.912764.488291-1.222656.832032-.309899.343758-.550785.721359-.722656 1.132809-.29167.70834-.437503 1.47657-.4375 2.30469-.000003 1.02084.175778 1.875.527343 2.5625.351559.6875.863278 1.19792 1.535157 1.53125.671869.33334 1.38541.5 2.140625.5.656242 0 1.296867-.1263 1.921875-.37891.62499-.2526 1.098948-.52213 1.421875-.80859v-2.13281z"/><path d="m-23.15625 97.166051h1.515625v6.617189c-.00001 1.15104-.130218 2.06511-.390625 2.74219-.260426.67708-.730478 1.22786-1.410156 1.65234-.679696.42448-1.571622.63672-2.675781.63672-1.072922 0-1.950525-.1849-2.632813-.55469-.682294-.36979-1.169273-.90495-1.460937-1.60547-.291669-.70052-.437502-1.65755-.4375-2.87109v-6.617189h1.515625v6.609379c-.000003.99479.09245 1.72786.277343 2.19921.184893.47136.502601.83464.953125 1.08985.450517.25521 1.001297.38281 1.652344.38281 1.114577 0 1.908847-.2526 2.382813-.75781.473949-.50521.710928-1.47656.710937-2.91406z"/><path d="m-20.367187 108.61918 4.398437-11.453129h1.632812l4.6875005 11.453129h-1.7265625l-1.335938-3.46875h-4.789062l-1.257812 3.46875zm3.304687-4.70313h3.882812l-1.195312-3.17187c-.364589-.963537-.635422-1.755203-.8125-2.375004-.145838.734384-.351567 1.46355-.617188 2.187504z"/><path d="m-8.484375 108.61918v-11.453129h1.515625v10.101559h5.640625v1.35157z"/><path d="m.484375 108.61918v-11.453129h3.9453125c.8906189.000011 1.5703057.0547 2.0390625.164062.6562421.151053 1.2161374.42449 1.6796875.820313.6041572.510426 1.0559796 1.162769 1.3554688 1.957034.2994686.79428.449208 1.70183.4492187 2.72265-.0000107.8698-.1015731 1.64063-.3046875 2.3125-.2031352.67188-.4635516 1.22787-.78125 1.66797-.3177176.44011-.6653735.78646-1.0429688 1.03906-.3776123.25261-.833341.44402-1.3671875.57422-.5338608.13021-1.1471414.19532-1.8398437.19532zm1.515625-1.35157h2.4453125c.7552024 0 1.3476497-.0703 1.7773437-.21093.4296801-.14063.7721277-.33854 1.0273438-.59375.3593666-.35938.6393143-.84245.8398438-1.44922.2005117-.60677.3007721-1.34245.3007812-2.20703-.0000091-1.19791-.1966235-2.11849-.5898438-2.76172-.3932373-.643223-.8711014-1.074212-1.4335937-1.292972-.4062567-.15624-1.0599019-.234365-1.9609375-.234375h-2.40625z"/><path d="m10.789063 108.61918 4.398437-11.453129h1.632812l4.6875 11.453129h-1.726562l-1.335938-3.46875h-4.789062l-1.257812 3.46875zm3.304687-4.70313h3.882812l-1.195312-3.17187c-.364589-.963537-.635422-1.755203-.8125-2.375004-.145838.734384-.351567 1.46355-.617187 2.187504z"/><path d="m22.734375 108.61918v-11.453129h3.945312c.890619.000011 1.570306.0547 2.039063.164062.656242.151053 1.216137.42449 1.679687.820313.604158.510426 1.05598 1.162769 1.355469 1.957034.299469.79428.449208 1.70183.449219 2.72265-.000011.8698-.101573 1.64063-.304688 2.3125-.203135.67188-.463551 1.22787-.78125 1.66797-.317717.44011-.665373.78646-1.042968 1.03906-.377613.25261-.833341.44402-1.367188.57422-.533861.13021-1.147141.19532-1.839844.19532zm1.515625-1.35157h2.445312c.755203 0 1.34765-.0703 1.777344-.21093.42968-.14063.772128-.33854 1.027344-.59375.359367-.35938.639314-.84245.839844-1.44922.200512-.60677.300772-1.34245.300781-2.20703-.000009-1.19791-.196624-2.11849-.589844-2.76172-.393237-.643223-.871101-1.074212-1.433594-1.292972-.406256-.15624-1.059901-.234365-1.960937-.234375h-2.40625z"/></g><g stroke-width=".745891"><g fill="none" stroke="#000" transform="matrix(-2.6813577 0 0 2.6813577 677.45883 -468.9937)"><path d="m127.0625 18.856074c-4.01807.312096-16.17246-6.065566-19.46027-21.639534-14.768911 5.7666437-29.991046 17.768063-28.097869 35.155038s27.410859 14.757209 31.112409 1.742248-11.902512-22.542509-17.687506-6.444283c9.698786-8.641049 14.832506-1.347093 13.162786 5.210272s-19.847943 13.101632-21.389531-3.564923 18.419751-27.2591105 21.115311-26.8740303c5.16444 17.1570323 18.33442 19.6904723 21.24467 19.5809103"/><path d="m127.0625 25.635144c-3.1559.163279-17.33634-3.108049-23.17876-18.736691-11.216023 5.157586-12.751708 12.958556-10.865902 20.96904"/></g><g stroke="#1a1a1a" transform="matrix(2.6813577 0 0 2.6813577 -717.10288 -582.34047)"><path d="m421.5 171.375c0 20.77971-16.84529 37.625-37.625 37.625s-37.625-16.84529-37.625-37.625 16.84529-37.625 37.625-37.625 37.625 16.84529 37.625 37.625z" fill="#c39232" stroke-width=".400709" transform="matrix(1.8614269 0 0 1.8614269 -321.18023 -151.12703)"/><path d="m421.5 171.375c0 20.77971-16.84529 37.625-37.625 37.625s-37.625-16.84529-37.625-37.625 16.84529-37.625 37.625-37.625 37.625 16.84529 37.625 37.625z" fill="#d40000" stroke-width=".426413" transform="matrix(1.7492197 0 0 1.7492197 -278.10669 -131.89752)"/><path d="m421.5 171.375c0 20.77971-16.84529 37.625-37.625 37.625s-37.625-16.84529-37.625-37.625 16.84529-37.625 37.625-37.625 37.625 16.84529 37.625 37.625z" fill="#c39232" stroke-width=".451997" transform="matrix(1.6502134 0 0 1.6502134 -240.10065 -114.93032)"/><path d="m421.5 171.375c0 20.77971-16.84529 37.625-37.625 37.625s-37.625-16.84529-37.625-37.625 16.84529-37.625 37.625-37.625 37.625 16.84529 37.625 37.625z" fill="#fff" stroke-width=".487063" transform="matrix(1.5314058 0 0 1.5314058 -194.49338 -94.569664)"/></g><g stroke-width=".745891"><g transform="matrix(2.6813577 0 0 2.6813577 -716.228983 -582.34047)"><g stroke="#37792d" stroke-width=".745891"><g stroke-width=".745891"><g transform="translate(1.875 3.75)"><path d="m347.32974 168.48175s-1.91125-2.685-2.4275-3.92375c-.51625-1.1875-1.29-4.4925-1.91-5.99s-1.085-4.13-4.0275-5.6275c-.775-.36125-1.755-2.58125-1.755-2.58125s.2575 7.125 1.08375 8.6225 2.58125 3.30375 4.4925 5.06c1.91 1.85875 4.18125 5.525 4.595 5.9375l-.0513-1.4975z" fill="#30a947" fill-rule="evenodd"/><path d="m337.51849 151.288c.51625 1.39375 5.06 12.0825 7.9 15.38625" fill="none"/></g><path d="m358.99849 196.20925s-2.1175-2.89125-2.995-3.51125c-.7225-.51625-.0512-.93-1.4975-1.70375-1.13625-.56875-2.42625-.775-3.30375-1.39375-.87875-.62-4.90625-4.08-8.1075-2.5825 0 0 .62.465 1.705.67125 1.08375.20625 2.1675 1.4975 2.7875 2.1175.62.61875 2.375 2.7875 3.4075 3.61375 1.03375.775 2.5825.67125 3.09875.775.51625.1025 1.1875.7225 1.4975.92875.30875.155 3.4075 1.085 3.4075 1.085z" fill="#30a947" fill-rule="evenodd"/><path d="m344.12849 187.0705c1.49625.15375 4.07875 1.23875 5.98875 2.9425 1.91125 1.70375 5.73125 4.285 6.91875 4.905" fill="none"/><path d="m367.5026 202.72162s-6.76296-6.93884-8.33195-6.15413c-1.61824.77056-1.05066 1.0403-2.13797 2.01804-1.12207.91313-2.59483.0594-3.30499.28588-.7098.22523-4.72494.73754-5.21093 3.17565 0 0-.8377-4.0007 2.29256-5.35774 3.09396-1.42079 5.41596-2.95676 7.1091-1.9331 1.65804.96024 7.05072 4.44377 8.34451 6.48158z" fill="#30a947" fill-rule="evenodd"/><g transform="matrix(.65221869 -.75803086 .75803086 .65221869 29.38576 382.396)"><path d="m357.86992 138.84009s1.99566-2.46038 2.33561-2.94049c.4061-.51189 1.80188-2.53101 2.34097-3.10484.53867-.57267 2.37885-2.75976 3.17456-4.94303 0 0-4.48323 1.44465-5.45511 4.7172-.97304 3.27212-1.30092 4.47108-1.9894 5.15545-.63989.70075-.40663 1.11571-.40663 1.11571z" fill="#30a947" fill-rule="evenodd"/><path d="m365.09872 128.50433c-.71489.45389-3.99033 4.31576-5.44886 7.41227" fill="none"/></g><g transform="matrix(.6338302 -.77347222 .77347222 .6338302 -9.689407 373.83629)"><path d="m380.08204 155.10978s2.08952-6.53607 2.45398-8.01048c.2712-1.22792 1.55321-4.68301 1.19927-6.17605-.20185-.85145-1.5061-5.72094-1.5061-5.72094s-1.68705 5.39058-1.94457 6.20104c-.23021.76856-.78352 6.19014-.58948 7.64478.17905 1.38371-.18885 3.94717-.29514 4.61005-.0616.69044.68204 1.4516.68204 1.4516z" fill="#30a947" fill-rule="evenodd"/><path d="m382.3054 136.15985c-.28138 1.34207-.11116 9.8196-1.91434 14.71266" fill="none"/></g><g transform="translate(-.707107 -.176777)"><path d="m353.72571 148.10086s1.80965-1.04474 2.09258-1.82103c.26495-.72697 1.64257-3.30218 2.78548-3.87547 1.1261-.52354 4.14985-2.93916 4.38739-3.29162.22119-.30388.75931-.27273-.28347 1.38011-1.0416 1.65328-1.26314 3.1664-2.15481 4.10533-.86151 1.0058-3.01937 2.85626-5.19527 3.54798-2.19304.73869-1.82624.48789-1.82624.48789z" fill="#30a947" fill-rule="evenodd"/><path d="m352.79303 149.90426s2.79443-2.38877 4.61616-2.71466c1.80492-.27613 6.1865-1.59152 7.34301-2.65478 1.24051-1.1404 1.93445-2.59177 1.93445-2.59177s-2.81831-1.46622-4.12889-.73585c-1.29347.68339-4.06104 3.30148-5.15635 4.49613-1.09413 1.1951-4.22797 3.46016-4.22797 3.46016z" fill="#30a947" fill-rule="evenodd"/><g fill="none"><path d="m366.16929 142.30395c-.65197-.018-3.61735.87948-5.02189 2.01731"/><path d="m362.86254 139.61533c-.49427.75382-5.86284 7.04053-7.55329 7.90786"/></g></g><g transform="translate(-24.306796 -12.28598)"><path d="m380.08204 155.10978s1.3678-1.82489 1.77462-2.48453c.43372-.70326 2.98287-5.62237 4.12309-6.19244 1.21141-.58785 2.5792-2.41274 3.24988-2.90965.65396-.56744 1.92611-1.05614 3.34954-.90669 0 0-1.66489.7326-1.92306 1.54412-.23021.76856-1.27508 3.64148-2.1829 4.72056-.90717 1.07802-3.13204 3.40676-4.82383 4.18298-1.70263.89143-3.56734 2.04565-3.56734 2.04565z" fill="#30a947" fill-rule="evenodd"/><path d="m392.05451 142.779c-.76421.25565-2.73657.79862-5.06098 4.76515-2.32481 3.96482-5.77325 6.50823-5.77325 6.50823" fill="none"/></g><path d="m353.87223 146.34088s-.83179-1.78792-.75249-2.30849c.0613-.47124 1.07975-4.1672 1.03249-5.9978-.0966-1.84858-.41656-4.43848-.41656-4.43848s-.051-1.667-.29411-1.7556c-.33941-.1237-1.04223 1.04903-1.19215 1.76338-.14993.71435-1.4853 4.07526-.97055 6.1308.49676 2.10486 1.08893 6.05787 2.20472 7.67257z" fill="#30a947" fill-rule="evenodd"/></g><g stroke-width="1.053131" transform="matrix(.69282977 .14703391 -.14703391 .69282977 134.4776 -47.828825)"><path d="m361.37349 196.77675s-2.065-4.69875-2.375-6.35125c-.31-1.70375-1.91-4.07875-1.085-7.435.67125-2.9425 1.705-4.18125 1.705-4.18125s.92875-2.995 1.0325-3.615c0 0 .5675 1.1875.5675 3.20125 0 .41375.8775 4.54375.31 6.50625-.31 1.135-1.0325 2.3225-1.6525 3.61375-.4125.93-.36125 2.375-.0512 3.04625.36125.98125 2.375 5.835 2.375 5.835l-.82625-.62z" fill="#30a947" fill-rule="evenodd"/><path d="m360.75349 176.4855c-.20625.67125-1.6 8.0025-1.39375 10.3775" fill="none"/></g><g stroke-width=".745891"><path d="m348.36083 166.82192s1.78386-1.51265 2.59583-1.72952c2.31966-.53371 3.93766-.61924 4.66471-1.22908 1.54873-1.28725 1.6184-2.53333 3.05734-4.16872 1.18004-1.36458 2.49793-2.65557 2.87256-2.92646 0 0-5.19668 1.24263-8.24278 3.61121-3.04721 2.368-2.1774 1.59868-4.94766 6.44257z" fill="#30a947" fill-rule="evenodd"/><path d="m347.46491 172.76424s.34998-5.12055.84182-6.72832c.51562-1.65318.19973-4.49938 2.48734-7.09011 1.9595-2.29549 3.44989-2.91344 3.44989-2.91344s2.21197-2.22257 2.59146-2.72372c0 0-.048 1.31526-.98207 3.09929-.19191.36655-1.33012 4.43243-2.74315 5.90784-.80108.86173-1.99196 1.57865-3.14015 2.43503-.79681.63258-1.42164 1.93651-1.4583 2.675-.13509 1.03687-.60237 6.27097-.60237 6.27097l-.44442-.93252z" fill="#30a947" fill-rule="evenodd"/><path d="m359.8009 157.77486c-.65788.58821-8.35401 5.82602-9.36703 6.86887" fill="none"/><path d="m356.32731 154.50015c-.49407.49901-5.12927 6.34748-6.04814 8.54722" fill="none"/><path d="m359.41099 191.09675s.87875-2.1675 1.4975-2.73625c1.8075-1.54875 3.20125-2.375 3.5625-3.2525.775-1.85875.25875-2.995.775-5.11125.4125-1.75625.98125-3.51125 1.1875-3.925 0 0-4.0275 3.51125-5.6275 7.0225-1.60125 3.51125-1.1875 2.42625-1.395 8.0025z" fill="#30a947" fill-rule="evenodd"/><path d="m384.12862 210.57089s-.65381-1.61425-2.40873-3.10808c-.57621-.48273-2.48252-.81564-4.029-3.19821-1.43182-2.39815-.87137-4.70688-1.24869-5.44907-.30514-.72906-1.46695-3.5583-2.14372-4.28384 0 0 .64059-.61942 3.81278 3.15718.46155.4983 1.50814.66353 2.40479 2.3627.94086 1.67083 2.58231 5.67086 2.61846 6.83034.0351 1.16018.3403 2.07473.3403 2.07473z" fill="#30a947" fill-rule="evenodd"/><g transform="matrix(.24920737 .96845015 .96845015 -.24920737 92.709497 -99.013972)"><path d="m375.21099 208.70425s-4.69875-1.4975-5.42125-1.39375c-.7225.1025-3.92375 1.08375-5.7825.98125-5.215-.25875-5.525-2.8925-6.50625-3.40875-.82625-.36125-4.1825-1.3425-4.905-1.4975 0 0 7.9-.98 11.41125 0 3.51 1.03375 4.38875 1.91125 4.80125 2.32375.41375.41375.41375.41375.41375.41375s-1.13625-.82625-.41375-.41375c.67125.41375 2.685 1.085 3.305 1.085 0 0 2.27125 1.80625 3.0975 1.91z" fill="#30a947" fill-rule="evenodd"/><path d="m371.64849 207.103c-1.08375-.1025-4.905-.36125-7.38375-1.1875-2.53-.82625-6.19625-2.22-9.91375-2.3225" fill="none"/></g><g transform="matrix(.20148342 .97949193 .97949193 -.20148342 90.323037 -122.13674)"><path d="m373.30099 207.20675s-4.1825-4.95625-5.00875-9.5c-.8775-4.59625.41375-8.15875.98125-9.03625 0 0 .51625-.155.2575 1.4975-.2575 1.6525.465 4.80125 1.085 5.525.62.7225 2.73625 4.23375 2.73625 5.1625.0513.87875.155 2.375.155 2.995 0 .56875.0513 1.70375 1.23875 2.94375 1.1875 1.23875 1.91125 1.755 1.91125 1.755s-2.47875-.98125-3.35625-1.3425z" fill="#30a947" fill-rule="evenodd"/><path d="m369.27349 191.09675c-.36125 1.44625.1025 4.6475 1.9625 9.03625 1.80625 4.38875 1.70375 6.19625 2.7875 6.8675" fill="none"/></g><g fill="#30a947" fill-rule="evenodd"><path d="m397.41349 216.60424c-2.375-1.90999-3.92375-4.90499-7.28-4.80249-3.40875.10375-8.675-.82625-10.84375-1.39375-5.4725-1.39375-7.79625-4.23375-10.2225-6.60875-1.9625-2.01375-2.5825-2.685-3.66625-3.7175-1.085-.98125-4.0275-2.375-5.31875-4.07875-1.39375-1.91125-4.07875-8.15875-5.26625-9.50125-.7225-.82625-3.61375-6.91875-4.13-7.6925-.5175-.82625-3.35625-6.61-3.305-10.0175.10375-3.4075-.62123-4.86309-.88875-8.2725s6.6275-12.76125 6.6275-12.76125c.10375-.72375 4.83375-8.5225 4.6275-9.60625l.31.36125c.20625 1.135-4.3175 8.52125-4.4725 9.245 0 0-6.94313 9.22687-6.57625 12.76125s.9925 4.865.88875 8.2725 2.78875 9.19125 3.305 10.0175c.46375.77375 3.4075 6.86625 4.07875 7.6925 1.23875 1.3425 3.92375 7.59 5.3175 9.50125 1.24 1.70375 4.69875 3.0975 5.78375 4.07875 1.135 1.0325 1.39375 1.0325 3.20125 3.2525 1.80625 2.16875 6.91875 5.7825 9.13875 5.99 2.16875.20625 5.4725 1.08375 8.88125.98 3.4075-.1025 6.66 1.395 15.025 6.60999 0 0-2.63375 1.29-5.215-.31z"/><path d="m378.41224 209.2205s-4.13-5.11125-4.1825-7.53875c-.155-2.375-.61875-10.275-.51625-10.79125 0 0 1.39375 4.38875 2.01375 5.57625.56875 1.24 2.5825 3.615 2.47875 5.16375-.10375 1.4975-.7225 4.595-.31 5.4725.51625.98125.82625 2.22125.82625 2.22125z"/><path d="m381.97474 210.873s-3.45875.36125-4.07875.7225c-2.58125 1.75625-7.84875 2.32375-6.50625 2.32375-2.7875 0-4.49125-1.70375-5.3175-1.8075-.775-.1025-3.77-.62-4.75-.4125 0 0-.2075-.87875 4.69875-1.60125.67125-.1025 1.3425-.8775 3.2525-.77375 1.91.0512 6.2475.77375 7.22875 1.39375.98125.5675 3.76875-.10375 3.76875-.10375z"/><path d="m370.97724 205.08925s-1.08375-3.975-2.065-5.7825c-1.0325-1.8075-2.2725-4.13-5.00875-4.905-1.08375-.31-1.39375-1.1875-1.39375-1.1875s-.10375.5675.31 1.54875c.4125 1.0325.20625 1.6525.2575 2.22.155.62 1.0325 1.9625 1.91 2.53 1.085.67125 5.73125 5.57625 5.99 5.57625z"/><path d="m357.19099 190.7355s-1.445-.51625-2.065-.46375c-.5675.0512-2.47875-1.18875-3.305-2.22125-.46375-.5675-2.6325-2.99375-5.11125-4.905-2.53-1.91-5.835-4.75-6.145-6.0925-.30875-1.39375-.98-5.37-2.375-6.14375 0 0 .67125-.155 1.1875.20625.56875.36125 2.78875 1.0325 3.82125 2.6325.98125 1.60125 5.00875 8.00375 5.62875 8.77875.46375.5675 1.0325 1.85875 1.29 2.58125.20625.67125 3.7175 3.8725 4.28625 4.13.51625.25875 1.29.3625 2.1675.41375z"/><path d="m378.92849 210.20175s-1.70375-.36125-3.92375.2575c-.7225.2075-2.065 1.60125-4.905 1.55-2.78875-.155-4.38875-1.91125-5.215-2.01375-.775-.155-3.77-.775-4.75-.62 0 0-.155-.8775 4.75-1.39375.67125-.10375 1.39375-.87875 3.30375-.67125 1.91125.155 6.145 1.0325 7.12625 1.65125.98125.62 1.91.87875 1.91.87875z"/><path d="m375.21099 208.70425s-4.69875-1.4975-5.42125-1.39375c-.7225.1025-3.92375 1.08375-5.7825.98125-5.215-.25875-5.525-2.8925-6.50625-3.40875-.82625-.36125-4.1825-1.3425-4.905-1.4975 0 0 7.9-.98 11.41125 0 3.51 1.03375 4.38875 1.91125 4.80125 2.32375.41375.41375.41375.41375.41375.41375s-1.13625-.82625-.41375-.41375c.67125.41375 2.685 1.085 3.305 1.085 0 0 2.27125 1.80625 3.0975 1.91z"/></g><path d="m371.64849 207.103c-1.08375-.1025-4.905-.36125-7.38375-1.1875-2.53-.82625-6.19625-2.22-9.91375-2.3225" fill="none"/><path d="m365.34974 177.7755c-.31.82625-4.69875 9.03625-5.1125 10.43" fill="none"/><path d="m361.37349 196.77675s-2.065-4.69875-2.375-6.35125c-.31-1.70375-1.91-4.07875-1.085-7.435.67125-2.9425 1.705-4.18125 1.705-4.18125s.92875-2.995 1.0325-3.615c0 0 .5675 1.1875.5675 3.20125 0 .41375.8775 4.54375.31 6.50625-.31 1.135-1.0325 2.3225-1.6525 3.61375-.4125.93-.36125 2.375-.0512 3.04625.36125.98125 2.375 5.835 2.375 5.835l-.82625-.62z" fill="#30a947" fill-rule="evenodd"/><path d="m360.75349 176.4855c-.20625.67125-1.6 8.0025-1.39375 10.3775" fill="none"/><path d="m339.22349 171.47675c.7225.62 4.23375 5.42125 5.3175 7.69375 1.08375 2.3225 4.38875 4.69875 4.905 5.52375" fill="none"/><g transform="matrix(.99178755 -.12789628 .12789628 .99178755 -17.710159 46.733413)"><path d="m353.42224 183.24925s2.11625-2.2725 2.89125-2.89125c.7225-.56875 1.4975-3.46 1.755-6.61.2075-3.04625 3.66625-7.28 3.66625-7.28s-.1025-.98125-.82625-.20625c-.77375.82625-5.73125 7.1775-6.45375 9.81-.775 2.63375-1.085 6.81625-1.0325 7.1775z" fill="#30a947" fill-rule="evenodd"/><path d="m359.82474 168.2755c-.67125.92875-3.77 6.7125-4.07875 8.52" fill="none"/><path d="m347.22599 170.59925s3.97625 3.04625 4.23375 7.28c.20625 4.23375.465 6.45375-.1025 8.00375 0 0-4.44125-5.1125-5.37-7.7975-.87875-2.685 1.23875-7.48625 1.23875-7.48625z" fill="#30a947" fill-rule="evenodd"/><path d="m347.32974 171.1155s-.41375 2.6325.51625 4.49125" fill="none"/><path d="m349.44599 171.63175s1.1875 3.35625 1.75625 3.76875c.5675.41375 2.065 2.375 1.85875 4.9575-.2075 2.53 0 4.595-1.1875 5.42125 0 0-3.7175-3.305-4.08-7.3325-.36125-3.975 1.6525-6.815 1.6525-6.815z" fill="#30a947" fill-rule="evenodd"/><path d="m349.44599 172.458c-.20625.92875 0 9.035 1.70375 12.44375" fill="none"/></g><path d="m353.11423 132.43565c-.088.84736-1.0162 8.97194-.40496 11.668" fill="none"/><path d="m357.86992 138.84009s1.99566-2.46038 2.33561-2.94049c.4061-.51189 1.80188-2.53101 2.34097-3.10484.53867-.57267 2.37885-2.75976 3.17456-4.94303 0 0-4.48323 1.44465-5.45511 4.7172-.97304 3.27212-1.30092 4.47108-1.9894 5.15545-.63989.70075-.40663 1.11571-.40663 1.11571z" fill="#30a947" fill-rule="evenodd"/><g fill="none"><path d="m365.09872 128.50433c-.71489.45389-3.99033 4.31576-5.44886 7.41227"/><path d="m363.90349 195.17675c.5675 1.4975-1.3425-1.70375 0 0s3.92375 3.92375 4.75 6.71125"/><path d="m374.17849 193.4205c.0513.465 2.065 6.97125 2.16875 8.26125.1025 1.29125.20625 4.23375 1.29125 5.62875"/></g><path d="m373.30099 207.20675s-4.1825-4.95625-5.00875-9.5c-.8775-4.59625.41375-8.15875.98125-9.03625 0 0 .51625-.155.2575 1.4975-.2575 1.6525.465 4.80125 1.085 5.525.62.7225 2.73625 4.23375 2.73625 5.1625.0513.87875.155 2.375.155 2.995 0 .56875.0513 1.70375 1.23875 2.94375 1.1875 1.23875 1.91125 1.755 1.91125 1.755s-2.47875-.98125-3.35625-1.3425z" fill="#30a947" fill-rule="evenodd"/><path d="m369.27349 191.09675c-.36125 1.44625.1025 4.6475 1.9625 9.03625 1.80625 4.38875 1.70375 6.19625 2.7875 6.8675" fill="none"/><path d="m378.36099 211.23425c-1.0325.155-5.88625 1.70375-7.9 1.08375-2.01375-.61875-5.31875-1.6-8.3125-.92875" fill="none"/><g transform="matrix(.85114502 .52493062 -.52493062 .85114502 135.95368 -159.20859)"><path d="m346.91599 161.253s.20625-2.27125.20625-3.04625c0-.82625-.4125-6.35125.25875-7.435.7225-1.13625.92875-3.4075 1.23875-4.1825.25875-.82625 1.085-1.91 2.375-2.53 0 0-1.0325 1.4975-.82625 2.32375.2075.775.82625 3.76875.62 5.16375-.20625 1.39375-.8775 4.54375-1.91 6.0925-.98125 1.6525-1.9625 3.61375-1.9625 3.61375z" fill="#30a947" fill-rule="evenodd"/><path d="m346.91599 161.253s-1.6525-6.66-2.11625-8.10625c-.41375-1.1875-1.13625-4.80125-2.22125-5.88625-.61875-.61875-4.285-4.07875-4.285-4.07875s1.39375 5.47375 1.6 6.29875c.2075.775 2.5825 5.68 3.51125 6.81625.87875 1.08375 1.91125 3.45875 2.16875 4.07875.31.62 1.3425.8775 1.3425.8775z" fill="#30a947" fill-rule="evenodd"/><g fill="none"><path d="m350.63349 144.473c-.51625.61875-1.91 2.11625-1.80625 6.7125.1025 4.595-1.4975 8.57-1.4975 8.57"/><path d="m338.86099 143.95675c.465 1.29 5.06 8.41625 6.09375 13.5275"/></g></g><g transform="matrix(.99817602 -.06037079 .06037079 .99817602 -25.79308 -9.043049)"><path d="m361.37349 196.77675s-2.065-4.69875-2.375-6.35125c-.31-1.70375-1.91-4.07875-1.085-7.435.67125-2.9425 1.705-4.18125 1.705-4.18125s.92875-2.995 1.0325-3.615c0 0 .5675 1.1875.5675 3.20125 0 .41375.8775 4.54375.31 6.50625-.31 1.135-1.0325 2.3225-1.6525 3.61375-.4125.93-.36125 2.375-.0512 3.04625.36125.98125 2.375 5.835 2.375 5.835l-.82625-.62z" fill="#30a947" fill-rule="evenodd"/><path d="m360.75349 176.4855c-.20625.67125-1.6 8.0025-1.39375 10.3775" fill="none"/></g><g transform="matrix(.99178755 -.12789628 .12789628 .99178755 -17.710159 46.733413)"><path d="m352.59599 166.158s-2.2725 4.69875-1.75625 9.65625c.5175 4.95625 1.75625 8.41625 2.01375 8.72625 0 0 2.94375-4.1825 2.2725-7.1775-.62-3.04625-1.54875-5.16375-1.9625-6.2475-.465-1.13625-.5675-4.9575-.5675-4.9575z" fill="#30a947" fill-rule="evenodd"/><path d="m352.64724 167.088c-.51625.8775-.8775 6.19625-.31 7.59.62 1.39375 1.085 4.905.93 6.29875" fill="none"/></g></g></g><g stroke="#37792d" stroke-width=".745891" transform="matrix(-1 0 0 1 786.09821 0)"><g stroke-width=".745891"><g transform="translate(1.875 3.75)"><path d="m347.32974 168.48175s-1.91125-2.685-2.4275-3.92375c-.51625-1.1875-1.29-4.4925-1.91-5.99s-1.085-4.13-4.0275-5.6275c-.775-.36125-1.755-2.58125-1.755-2.58125s.2575 7.125 1.08375 8.6225 2.58125 3.30375 4.4925 5.06c1.91 1.85875 4.18125 5.525 4.595 5.9375l-.0513-1.4975z" fill="#30a947" fill-rule="evenodd"/><path d="m337.51849 151.288c.51625 1.39375 5.06 12.0825 7.9 15.38625" fill="none"/></g><path d="m358.99849 196.20925s-2.1175-2.89125-2.995-3.51125c-.7225-.51625-.0512-.93-1.4975-1.70375-1.13625-.56875-2.42625-.775-3.30375-1.39375-.87875-.62-4.90625-4.08-8.1075-2.5825 0 0 .62.465 1.705.67125 1.08375.20625 2.1675 1.4975 2.7875 2.1175.62.61875 2.375 2.7875 3.4075 3.61375 1.03375.775 2.5825.67125 3.09875.775.51625.1025 1.1875.7225 1.4975.92875.30875.155 3.4075 1.085 3.4075 1.085z" fill="#30a947" fill-rule="evenodd"/><path d="m344.12849 187.0705c1.49625.15375 4.07875 1.23875 5.98875 2.9425 1.91125 1.70375 5.73125 4.285 6.91875 4.905" fill="none"/><path d="m367.5026 202.72162s-6.76296-6.93884-8.33195-6.15413c-1.61824.77056-1.05066 1.0403-2.13797 2.01804-1.12207.91313-2.59483.0594-3.30499.28588-.7098.22523-4.72494.73754-5.21093 3.17565 0 0-.8377-4.0007 2.29256-5.35774 3.09396-1.42079 5.41596-2.95676 7.1091-1.9331 1.65804.96024 7.05072 4.44377 8.34451 6.48158z" fill="#30a947" fill-rule="evenodd"/><g transform="matrix(.65221869 -.75803086 .75803086 .65221869 29.38576 382.396)"><path d="m357.86992 138.84009s1.99566-2.46038 2.33561-2.94049c.4061-.51189 1.80188-2.53101 2.34097-3.10484.53867-.57267 2.37885-2.75976 3.17456-4.94303 0 0-4.48323 1.44465-5.45511 4.7172-.97304 3.27212-1.30092 4.47108-1.9894 5.15545-.63989.70075-.40663 1.11571-.40663 1.11571z" fill="#30a947" fill-rule="evenodd"/><path d="m365.09872 128.50433c-.71489.45389-3.99033 4.31576-5.44886 7.41227" fill="none"/></g><g transform="matrix(.6338302 -.77347222 .77347222 .6338302 -9.689407 373.83629)"><path d="m380.08204 155.10978s2.08952-6.53607 2.45398-8.01048c.2712-1.22792 1.55321-4.68301 1.19927-6.17605-.20185-.85145-1.5061-5.72094-1.5061-5.72094s-1.68705 5.39058-1.94457 6.20104c-.23021.76856-.78352 6.19014-.58948 7.64478.17905 1.38371-.18885 3.94717-.29514 4.61005-.0616.69044.68204 1.4516.68204 1.4516z" fill="#30a947" fill-rule="evenodd"/><path d="m382.3054 136.15985c-.28138 1.34207-.11116 9.8196-1.91434 14.71266" fill="none"/></g><g transform="translate(-.707107 -.176777)"><path d="m353.72571 148.10086s1.80965-1.04474 2.09258-1.82103c.26495-.72697 1.64257-3.30218 2.78548-3.87547 1.1261-.52354 4.14985-2.93916 4.38739-3.29162.22119-.30388.75931-.27273-.28347 1.38011-1.0416 1.65328-1.26314 3.1664-2.15481 4.10533-.86151 1.0058-3.01937 2.85626-5.19527 3.54798-2.19304.73869-1.82624.48789-1.82624.48789z" fill="#30a947" fill-rule="evenodd"/><path d="m352.79303 149.90426s2.79443-2.38877 4.61616-2.71466c1.80492-.27613 6.1865-1.59152 7.34301-2.65478 1.24051-1.1404 1.93445-2.59177 1.93445-2.59177s-2.81831-1.46622-4.12889-.73585c-1.29347.68339-4.06104 3.30148-5.15635 4.49613-1.09413 1.1951-4.22797 3.46016-4.22797 3.46016z" fill="#30a947" fill-rule="evenodd"/><g fill="none"><path d="m366.16929 142.30395c-.65197-.018-3.61735.87948-5.02189 2.01731"/><path d="m362.86254 139.61533c-.49427.75382-5.86284 7.04053-7.55329 7.90786"/></g></g><g transform="translate(-24.306796 -12.28598)"><path d="m380.08204 155.10978s1.3678-1.82489 1.77462-2.48453c.43372-.70326 2.98287-5.62237 4.12309-6.19244 1.21141-.58785 2.5792-2.41274 3.24988-2.90965.65396-.56744 1.92611-1.05614 3.34954-.90669 0 0-1.66489.7326-1.92306 1.54412-.23021.76856-1.27508 3.64148-2.1829 4.72056-.90717 1.07802-3.13204 3.40676-4.82383 4.18298-1.70263.89143-3.56734 2.04565-3.56734 2.04565z" fill="#30a947" fill-rule="evenodd"/><path d="m392.05451 142.779c-.76421.25565-2.73657.79862-5.06098 4.76515-2.32481 3.96482-5.77325 6.50823-5.77325 6.50823" fill="none"/></g><path d="m353.87223 146.34088s-.83179-1.78792-.75249-2.30849c.0613-.47124 1.07975-4.1672 1.03249-5.9978-.0966-1.84858-.41656-4.43848-.41656-4.43848s-.051-1.667-.29411-1.7556c-.33941-.1237-1.04223 1.04903-1.19215 1.76338-.14993.71435-1.4853 4.07526-.97055 6.1308.49676 2.10486 1.08893 6.05787 2.20472 7.67257z" fill="#30a947" fill-rule="evenodd"/></g><g stroke-width="1.053131" transform="matrix(.69282977 .14703391 -.14703391 .69282977 134.4776 -47.828825)"><path d="m361.37349 196.77675s-2.065-4.69875-2.375-6.35125c-.31-1.70375-1.91-4.07875-1.085-7.435.67125-2.9425 1.705-4.18125 1.705-4.18125s.92875-2.995 1.0325-3.615c0 0 .5675 1.1875.5675 3.20125 0 .41375.8775 4.54375.31 6.50625-.31 1.135-1.0325 2.3225-1.6525 3.61375-.4125.93-.36125 2.375-.0512 3.04625.36125.98125 2.375 5.835 2.375 5.835l-.82625-.62z" fill="#30a947" fill-rule="evenodd"/><path d="m360.75349 176.4855c-.20625.67125-1.6 8.0025-1.39375 10.3775" fill="none"/></g><g stroke-width=".745891"><path d="m348.36083 166.82192s1.78386-1.51265 2.59583-1.72952c2.31966-.53371 3.93766-.61924 4.66471-1.22908 1.54873-1.28725 1.6184-2.53333 3.05734-4.16872 1.18004-1.36458 2.49793-2.65557 2.87256-2.92646 0 0-5.19668 1.24263-8.24278 3.61121-3.04721 2.368-2.1774 1.59868-4.94766 6.44257z" fill="#30a947" fill-rule="evenodd"/><path d="m347.46491 172.76424s.34998-5.12055.84182-6.72832c.51562-1.65318.19973-4.49938 2.48734-7.09011 1.9595-2.29549 3.44989-2.91344 3.44989-2.91344s2.21197-2.22257 2.59146-2.72372c0 0-.048 1.31526-.98207 3.09929-.19191.36655-1.33012 4.43243-2.74315 5.90784-.80108.86173-1.99196 1.57865-3.14015 2.43503-.79681.63258-1.42164 1.93651-1.4583 2.675-.13509 1.03687-.60237 6.27097-.60237 6.27097l-.44442-.93252z" fill="#30a947" fill-rule="evenodd"/><path d="m359.8009 157.77486c-.65788.58821-8.35401 5.82602-9.36703 6.86887" fill="none"/><path d="m356.32731 154.50015c-.49407.49901-5.12927 6.34748-6.04814 8.54722" fill="none"/><path d="m359.41099 191.09675s.87875-2.1675 1.4975-2.73625c1.8075-1.54875 3.20125-2.375 3.5625-3.2525.775-1.85875.25875-2.995.775-5.11125.4125-1.75625.98125-3.51125 1.1875-3.925 0 0-4.0275 3.51125-5.6275 7.0225-1.60125 3.51125-1.1875 2.42625-1.395 8.0025z" fill="#30a947" fill-rule="evenodd"/><path d="m384.12862 210.57089s-.65381-1.61425-2.40873-3.10808c-.57621-.48273-2.48252-.81564-4.029-3.19821-1.43182-2.39815-.87137-4.70688-1.24869-5.44907-.30514-.72906-1.46695-3.5583-2.14372-4.28384 0 0 .64059-.61942 3.81278 3.15718.46155.4983 1.50814.66353 2.40479 2.3627.94086 1.67083 2.58231 5.67086 2.61846 6.83034.0351 1.16018.3403 2.07473.3403 2.07473z" fill="#30a947" fill-rule="evenodd"/><g transform="matrix(.24920737 .96845015 .96845015 -.24920737 92.709497 -99.013972)"><path d="m375.21099 208.70425s-4.69875-1.4975-5.42125-1.39375c-.7225.1025-3.92375 1.08375-5.7825.98125-5.215-.25875-5.525-2.8925-6.50625-3.40875-.82625-.36125-4.1825-1.3425-4.905-1.4975 0 0 7.9-.98 11.41125 0 3.51 1.03375 4.38875 1.91125 4.80125 2.32375.41375.41375.41375.41375.41375.41375s-1.13625-.82625-.41375-.41375c.67125.41375 2.685 1.085 3.305 1.085 0 0 2.27125 1.80625 3.0975 1.91z" fill="#30a947" fill-rule="evenodd"/><path d="m371.64849 207.103c-1.08375-.1025-4.905-.36125-7.38375-1.1875-2.53-.82625-6.19625-2.22-9.91375-2.3225" fill="none"/></g><g transform="matrix(.20148342 .97949193 .97949193 -.20148342 90.323037 -122.13674)"><path d="m373.30099 207.20675s-4.1825-4.95625-5.00875-9.5c-.8775-4.59625.41375-8.15875.98125-9.03625 0 0 .51625-.155.2575 1.4975-.2575 1.6525.465 4.80125 1.085 5.525.62.7225 2.73625 4.23375 2.73625 5.1625.0513.87875.155 2.375.155 2.995 0 .56875.0513 1.70375 1.23875 2.94375 1.1875 1.23875 1.91125 1.755 1.91125 1.755s-2.47875-.98125-3.35625-1.3425z" fill="#30a947" fill-rule="evenodd"/><path d="m369.27349 191.09675c-.36125 1.44625.1025 4.6475 1.9625 9.03625 1.80625 4.38875 1.70375 6.19625 2.7875 6.8675" fill="none"/></g><g fill="#30a947" fill-rule="evenodd"><path d="m397.41349 216.60424c-2.375-1.90999-3.92375-4.90499-7.28-4.80249-3.40875.10375-8.675-.82625-10.84375-1.39375-5.4725-1.39375-7.79625-4.23375-10.2225-6.60875-1.9625-2.01375-2.5825-2.685-3.66625-3.7175-1.085-.98125-4.0275-2.375-5.31875-4.07875-1.39375-1.91125-4.07875-8.15875-5.26625-9.50125-.7225-.82625-3.61375-6.91875-4.13-7.6925-.5175-.82625-3.35625-6.61-3.305-10.0175.10375-3.4075-.62123-4.86309-.88875-8.2725s6.6275-12.76125 6.6275-12.76125c.10375-.72375 4.83375-8.5225 4.6275-9.60625l.31.36125c.20625 1.135-4.3175 8.52125-4.4725 9.245 0 0-6.94313 9.22687-6.57625 12.76125s.9925 4.865.88875 8.2725 2.78875 9.19125 3.305 10.0175c.46375.77375 3.4075 6.86625 4.07875 7.6925 1.23875 1.3425 3.92375 7.59 5.3175 9.50125 1.24 1.70375 4.69875 3.0975 5.78375 4.07875 1.135 1.0325 1.39375 1.0325 3.20125 3.2525 1.80625 2.16875 6.91875 5.7825 9.13875 5.99 2.16875.20625 5.4725 1.08375 8.88125.98 3.4075-.1025 6.66 1.395 15.025 6.60999 0 0-2.63375 1.29-5.215-.31z"/><path d="m378.41224 209.2205s-4.13-5.11125-4.1825-7.53875c-.155-2.375-.61875-10.275-.51625-10.79125 0 0 1.39375 4.38875 2.01375 5.57625.56875 1.24 2.5825 3.615 2.47875 5.16375-.10375 1.4975-.7225 4.595-.31 5.4725.51625.98125.82625 2.22125.82625 2.22125z"/><path d="m381.97474 210.873s-3.45875.36125-4.07875.7225c-2.58125 1.75625-7.84875 2.32375-6.50625 2.32375-2.7875 0-4.49125-1.70375-5.3175-1.8075-.775-.1025-3.77-.62-4.75-.4125 0 0-.2075-.87875 4.69875-1.60125.67125-.1025 1.3425-.8775 3.2525-.77375 1.91.0512 6.2475.77375 7.22875 1.39375.98125.5675 3.76875-.10375 3.76875-.10375z"/><path d="m370.97724 205.08925s-1.08375-3.975-2.065-5.7825c-1.0325-1.8075-2.2725-4.13-5.00875-4.905-1.08375-.31-1.39375-1.1875-1.39375-1.1875s-.10375.5675.31 1.54875c.4125 1.0325.20625 1.6525.2575 2.22.155.62 1.0325 1.9625 1.91 2.53 1.085.67125 5.73125 5.57625 5.99 5.57625z"/><path d="m357.19099 190.7355s-1.445-.51625-2.065-.46375c-.5675.0512-2.47875-1.18875-3.305-2.22125-.46375-.5675-2.6325-2.99375-5.11125-4.905-2.53-1.91-5.835-4.75-6.145-6.0925-.30875-1.39375-.98-5.37-2.375-6.14375 0 0 .67125-.155 1.1875.20625.56875.36125 2.78875 1.0325 3.82125 2.6325.98125 1.60125 5.00875 8.00375 5.62875 8.77875.46375.5675 1.0325 1.85875 1.29 2.58125.20625.67125 3.7175 3.8725 4.28625 4.13.51625.25875 1.29.3625 2.1675.41375z"/><path d="m378.92849 210.20175s-1.70375-.36125-3.92375.2575c-.7225.2075-2.065 1.60125-4.905 1.55-2.78875-.155-4.38875-1.91125-5.215-2.01375-.775-.155-3.77-.775-4.75-.62 0 0-.155-.8775 4.75-1.39375.67125-.10375 1.39375-.87875 3.30375-.67125 1.91125.155 6.145 1.0325 7.12625 1.65125.98125.62 1.91.87875 1.91.87875z"/><path d="m375.21099 208.70425s-4.69875-1.4975-5.42125-1.39375c-.7225.1025-3.92375 1.08375-5.7825.98125-5.215-.25875-5.525-2.8925-6.50625-3.40875-.82625-.36125-4.1825-1.3425-4.905-1.4975 0 0 7.9-.98 11.41125 0 3.51 1.03375 4.38875 1.91125 4.80125 2.32375.41375.41375.41375.41375.41375.41375s-1.13625-.82625-.41375-.41375c.67125.41375 2.685 1.085 3.305 1.085 0 0 2.27125 1.80625 3.0975 1.91z"/></g><path d="m371.64849 207.103c-1.08375-.1025-4.905-.36125-7.38375-1.1875-2.53-.82625-6.19625-2.22-9.91375-2.3225" fill="none"/><path d="m365.34974 177.7755c-.31.82625-4.69875 9.03625-5.1125 10.43" fill="none"/><path d="m361.37349 196.77675s-2.065-4.69875-2.375-6.35125c-.31-1.70375-1.91-4.07875-1.085-7.435.67125-2.9425 1.705-4.18125 1.705-4.18125s.92875-2.995 1.0325-3.615c0 0 .5675 1.1875.5675 3.20125 0 .41375.8775 4.54375.31 6.50625-.31 1.135-1.0325 2.3225-1.6525 3.61375-.4125.93-.36125 2.375-.0512 3.04625.36125.98125 2.375 5.835 2.375 5.835l-.82625-.62z" fill="#30a947" fill-rule="evenodd"/><path d="m360.75349 176.4855c-.20625.67125-1.6 8.0025-1.39375 10.3775" fill="none"/><path d="m339.22349 171.47675c.7225.62 4.23375 5.42125 5.3175 7.69375 1.08375 2.3225 4.38875 4.69875 4.905 5.52375" fill="none"/><g transform="matrix(.99178755 -.12789628 .12789628 .99178755 -17.710159 46.733413)"><path d="m353.42224 183.24925s2.11625-2.2725 2.89125-2.89125c.7225-.56875 1.4975-3.46 1.755-6.61.2075-3.04625 3.66625-7.28 3.66625-7.28s-.1025-.98125-.82625-.20625c-.77375.82625-5.73125 7.1775-6.45375 9.81-.775 2.63375-1.085 6.81625-1.0325 7.1775z" fill="#30a947" fill-rule="evenodd"/><path d="m359.82474 168.2755c-.67125.92875-3.77 6.7125-4.07875 8.52" fill="none"/><path d="m347.22599 170.59925s3.97625 3.04625 4.23375 7.28c.20625 4.23375.465 6.45375-.1025 8.00375 0 0-4.44125-5.1125-5.37-7.7975-.87875-2.685 1.23875-7.48625 1.23875-7.48625z" fill="#30a947" fill-rule="evenodd"/><path d="m347.32974 171.1155s-.41375 2.6325.51625 4.49125" fill="none"/><path d="m349.44599 171.63175s1.1875 3.35625 1.75625 3.76875c.5675.41375 2.065 2.375 1.85875 4.9575-.2075 2.53 0 4.595-1.1875 5.42125 0 0-3.7175-3.305-4.08-7.3325-.36125-3.975 1.6525-6.815 1.6525-6.815z" fill="#30a947" fill-rule="evenodd"/><path d="m349.44599 172.458c-.20625.92875 0 9.035 1.70375 12.44375" fill="none"/></g><path d="m353.11423 132.43565c-.088.84736-1.0162 8.97194-.40496 11.668" fill="none"/><path d="m357.86992 138.84009s1.99566-2.46038 2.33561-2.94049c.4061-.51189 1.80188-2.53101 2.34097-3.10484.53867-.57267 2.37885-2.75976 3.17456-4.94303 0 0-4.48323 1.44465-5.45511 4.7172-.97304 3.27212-1.30092 4.47108-1.9894 5.15545-.63989.70075-.40663 1.11571-.40663 1.11571z" fill="#30a947" fill-rule="evenodd"/><g fill="none"><path d="m365.09872 128.50433c-.71489.45389-3.99033 4.31576-5.44886 7.41227"/><path d="m363.90349 195.17675c.5675 1.4975-1.3425-1.70375 0 0s3.92375 3.92375 4.75 6.71125"/><path d="m374.17849 193.4205c.0513.465 2.065 6.97125 2.16875 8.26125.1025 1.29125.20625 4.23375 1.29125 5.62875"/></g><path d="m373.30099 207.20675s-4.1825-4.95625-5.00875-9.5c-.8775-4.59625.41375-8.15875.98125-9.03625 0 0 .51625-.155.2575 1.4975-.2575 1.6525.465 4.80125 1.085 5.525.62.7225 2.73625 4.23375 2.73625 5.1625.0513.87875.155 2.375.155 2.995 0 .56875.0513 1.70375 1.23875 2.94375 1.1875 1.23875 1.91125 1.755 1.91125 1.755s-2.47875-.98125-3.35625-1.3425z" fill="#30a947" fill-rule="evenodd"/><path d="m369.27349 191.09675c-.36125 1.44625.1025 4.6475 1.9625 9.03625 1.80625 4.38875 1.70375 6.19625 2.7875 6.8675" fill="none"/><path d="m378.36099 211.23425c-1.0325.155-5.88625 1.70375-7.9 1.08375-2.01375-.61875-5.31875-1.6-8.3125-.92875" fill="none"/><g transform="matrix(.85114502 .52493062 -.52493062 .85114502 135.95368 -159.20859)"><path d="m346.91599 161.253s.20625-2.27125.20625-3.04625c0-.82625-.4125-6.35125.25875-7.435.7225-1.13625.92875-3.4075 1.23875-4.1825.25875-.82625 1.085-1.91 2.375-2.53 0 0-1.0325 1.4975-.82625 2.32375.2075.775.82625 3.76875.62 5.16375-.20625 1.39375-.8775 4.54375-1.91 6.0925-.98125 1.6525-1.9625 3.61375-1.9625 3.61375z" fill="#30a947" fill-rule="evenodd"/><path d="m346.91599 161.253s-1.6525-6.66-2.11625-8.10625c-.41375-1.1875-1.13625-4.80125-2.22125-5.88625-.61875-.61875-4.285-4.07875-4.285-4.07875s1.39375 5.47375 1.6 6.29875c.2075.775 2.5825 5.68 3.51125 6.81625.87875 1.08375 1.91125 3.45875 2.16875 4.07875.31.62 1.3425.8775 1.3425.8775z" fill="#30a947" fill-rule="evenodd"/><g fill="none"><path d="m350.63349 144.473c-.51625.61875-1.91 2.11625-1.80625 6.7125.1025 4.595-1.4975 8.57-1.4975 8.57"/><path d="m338.86099 143.95675c.465 1.29 5.06 8.41625 6.09375 13.5275"/></g></g><g transform="matrix(.99817602 -.06037079 .06037079 .99817602 -25.79308 -9.043049)"><path d="m361.37349 196.77675s-2.065-4.69875-2.375-6.35125c-.31-1.70375-1.91-4.07875-1.085-7.435.67125-2.9425 1.705-4.18125 1.705-4.18125s.92875-2.995 1.0325-3.615c0 0 .5675 1.1875.5675 3.20125 0 .41375.8775 4.54375.31 6.50625-.31 1.135-1.0325 2.3225-1.6525 3.61375-.4125.93-.36125 2.375-.0512 3.04625.36125.98125 2.375 5.835 2.375 5.835l-.82625-.62z" fill="#30a947" fill-rule="evenodd"/><path d="m360.75349 176.4855c-.20625.67125-1.6 8.0025-1.39375 10.3775" fill="none"/></g><g transform="matrix(.99178755 -.12789628 .12789628 .99178755 -17.710159 46.733413)"><path d="m352.59599 166.158s-2.2725 4.69875-1.75625 9.65625c.5175 4.95625 1.75625 8.41625 2.01375 8.72625 0 0 2.94375-4.1825 2.2725-7.1775-.62-3.04625-1.54875-5.16375-1.9625-6.2475-.465-1.13625-.5675-4.9575-.5675-4.9575z" fill="#30a947" fill-rule="evenodd"/><path d="m352.64724 167.088c-.51625.8775-.8775 6.19625-.31 7.59.62 1.39375 1.085 4.905.93 6.29875" fill="none"/></g></g></g><g fill="#d40000" fill-rule="evenodd" stroke="#500" stroke-width=".87229" transform="matrix(.85509449 0 0 .85509449 57.006079 30.924064)"><g stroke-width="3.102685" transform="matrix(.2656019 -.12966883 -.13514883 -.23160747 276.10395 291.41397)"><path d="m432.315 71.0078c1.147.8919 11.215 7.6897 12.66 8.5394 1.487.8919 2.082.8919 3.271.5947 1.147-.2974 24.769-3.2291 27.997-4.1211 3.271-.892 12.108-.5947 13.892-.892 1.743-.2973 4.717 1.1893 5.609 1.4866.892.2974 2.039 10.9189 2.039 10.9189s-2.337 1.1893-3.527 1.784c-1.189.5524-18.863 5.5654-22.431 5.3104-3.526-.2973-25.066 1.7417-27.742 1.7417-2.634 0-2.932-.2973-4.716-1.1893-2.932-1.4444-21.837-13.8499-24.174-16.4836-1.274-1.4444-2.676-2.6767-1.19-4.7587 1.488-2.0391 3.23-8.5388 3.23-10.3235 0-1.7417.594-3.5264 2.082-3.8237 1.486-.2974 5.31.5946 7.094.8927 1.742.2973 2.932-.2981 2.932-.2981l.892-3.2284s2.931.5524 2.676 3.8238c-.297 3.2284-.594 10.0262-.594 10.0262z"/><path d="m430.233 57.1578s4.121 3.8238-2.082 4.4184"/><path d="m432.315 71.0078s-8.795-6.0757-10.919-7.3925c-2.677-1.6142-1.487-1.9115 2.209-1.1471"/></g><g stroke-width="3.066988" transform="matrix(.26245028 .03871973 .04450257 -.3016475 256.57807 215.06378)"><path d="m557.388 71.0078c-1.189.8919-12.405 8.5394-13.85 9.4313-1.487.8921-2.081.8921-3.271.5948-1.147-.2974-23.579-4.1211-26.85-5.0131-3.229-.892-12.066-.5947-13.85-.892s-4.715 1.1893-5.608 1.4866c-.892.2974 2.932 7.0952 2.932 7.0952s-2.635 5.013-1.445 5.6077c1.19.5524 18.863 5.5654 22.432 5.3104 3.526-.2973 22.687 2.9317 25.363 2.9317 2.634 0 2.931-.2973 4.715-1.19 2.932-1.4867 24.174-15.0392 26.553-17.6729 1.232-1.4444 2.635-2.6767 1.19-4.7587-1.487-2.0391-3.271-8.5388-3.271-10.3235 0-1.7417-.595-3.5264-2.039-3.8237-1.488-.2974-5.311.5946-7.095.8927-1.785.2973-2.932-.2981-2.932-.2981l-.892-3.2284s-2.974.5524-2.677 3.8238c.298 3.2284.595 10.0262.595 10.0262z"/><path d="m559.47 57.1578s-4.163 3.8238 2.039 4.4184"/><path d="m557.388 71.0078s8.794-6.0757 10.919-7.3925c2.676-1.6142 1.486-1.9115-2.21-1.1471"/></g><g stroke-width=".87229"><path d="m392.82529 209.40397s2.16029-.57877 2.45637-.97397c.29641-.39521.59283-.87542.87528-1.36946.29675-.49403 1.0873-1.08705 1.76486-1.46824.69185-.39524 2.85182-1.56703 3.24692-1.86345.38115-.29641.48018 0 .97398 0 .49446 0 1.46844.57877 1.86388 1.76466.39511 1.17183 1.66583 4.50352 1.86355 4.99752.19739.4943-2.85182 1.76492-3.92482 2.06134-1.073.29641-3.23296.29641-3.92448-.0988-.6779-.39544-4.99782-2.16013-5.29424-2.16013-.29641 0 .0987-.88947.0987-.88947z"/><path d="m394.51888 209.68594s-2.14601-.57877-2.44242-.97398c-.29641-.3952-.59283-.87541-.88957-1.36945-.28213-.49403-1.07267-1.08706-1.76452-1.46824-.67757-.39524-2.83753-1.56704-3.23297-1.86345-.39511-.29641-.4938 0-.97398 0-.49413 0-1.46811.57877-1.86355 1.76466-.39543 1.17183-1.66582 4.50352-1.86354 4.99752-.19772.4943 2.83785 1.76492 3.92481 2.06134 1.07267.29641 3.23297.29641 3.91053-.0988.69185-.39544 5.01178-2.16013 5.29424-2.16013.29641 0-.099-.88947-.099-.88947z"/><path d="m391.22244 207.06214c.57887-.0988.53667-.39521 1.58109-.56472.50842-.0707.69185.32473 1.05872.56472-.15519-.18357-.63503-.46592-.46556-.5364 1.15774-.5507 1.80706.0141 2.18821.57876.70581 1.05875 1.51064 1.93417 1.65187 2.89412.0565.39524.014.6352-.3107 1.1716-.29641.46592-.77626.88947-1.21423.63543-.0987-.0564.21201-.39521.21201-.63543-.29642 1.21423-1.51065 2.16013-2.5132 2.75295-1.03047.59303-1.84926-.81876-2.68234-1.36925.93177-.31066 1.72265-.55065 2.75279-.83301 0 .28236-.0987.23999-.0987.53637.0708-.47995.0987-.56472.18343-1.04469.0851-.50806.24026-1.28468.0286-1.90585-.21201-.63517-.39544-1.11514-.6779-1.62346-.31037-.53641-1.1152-.38115-1.69407-.62114z"/></g></g></g><g transform="matrix(2.6813577 0 0 2.6813577 -712.355719 -582.34047)"><g fill-rule="evenodd" stroke="#504416" stroke-width=".745891"><path d="m-173.20494-376.71631h43.524258v2.268351h-43.524258z" fill="#ad7b10" transform="matrix(0 -1 -1 0 0 0)"/><path d="m-173.20494-409.59131h43.524258v2.268351h-43.524258z" fill="#ad7b10" transform="matrix(0 -1 -1 0 0 0)"/><path d="m365.83939 177.64108h51.530407v3.270369h-51.530407z" fill="#a57b29"/><path d="m368.88098 174.94682h46.124786v2.517478h-46.124786z" fill="#dea539"/><g transform="scale(1 -1)"><path d="m371.85706-174.91708h40.200165v2.268351h-40.200165z" fill="#dea539"/><path d="m365.83939-126.0441h51.530407v3.270369h-51.530407z" fill="#a57b29"/><path d="m368.88098-128.73836h46.124786v2.517478h-46.124786z" fill="#dea539"/></g><path d="m371.85706 128.7681h40.200165v2.268351h-40.200165z" fill="#dea539"/></g><path d="m401.625 163.30063 4.125 9.32437h-27l4.625-9.20168z" fill="#de8787" stroke="#c83737" stroke-width=".745891"/><path d="m402.125 132.875-5.875-.125-4 17.625 4.25 12.875 2.5.125-5.5-13.625z" fill="#87decd"/><path d="m380.625 131.15611h24.25l-8.875 19.50756 9.75 21.96133h-27l10.75-22.08402z" fill="none" stroke="#333" stroke-width=".745891"/></g></g></g></g></svg>