<svg fill="#b82826" height="270" viewBox="0 0 238 153" width="420" xmlns="http://www.w3.org/2000/svg" xmlns:xlink="http://www.w3.org/1999/xlink"><radialGradient id="a" cx="337.5776" cy="482.9673" gradientUnits="userSpaceOnUse" r="208.5679"><stop offset="0" stop-color="#fff"/><stop offset="1" stop-color="#b0dbcf"/></radialGradient><radialGradient id="b" cx="333.1226" cy="369.2905" gradientUnits="userSpaceOnUse" r="24.9416"><stop offset=".1273" stop-color="#fcb117" stop-opacity="0"/><stop offset=".1273" stop-color="#fcbc14" stop-opacity="0"/><stop offset=".1273" stop-color="#fcc311" stop-opacity="0"/><stop offset=".2505" stop-color="#fcc013" stop-opacity=".2563"/><stop offset=".3649" stop-color="#fbb817" stop-opacity=".4942"/><stop offset=".4755" stop-color="#faab1c" stop-opacity=".7241"/><stop offset=".5697" stop-color="#f99b1f" stop-opacity=".92"/><stop offset=".8423" stop-color="#fcca12" stop-opacity=".9707"/><stop offset="1" stop-color="#fee600"/></radialGradient><linearGradient id="c"><stop offset=".5443" stop-color="#fff" stop-opacity="0"/><stop offset="1" stop-color="#fff" stop-opacity=".32"/></linearGradient><radialGradient id="d" cx="85.1558" cy="394.9829" gradientUnits="userSpaceOnUse" r="86.8953" xlink:href="#c"/><linearGradient id="e"><stop offset=".5443" stop-color="#1f344c" stop-opacity="0"/><stop offset="1" stop-color="#1f344c"/></linearGradient><radialGradient id="f" cx="335.1255" cy="649.2427" gradientUnits="userSpaceOnUse" r="94.0932" xlink:href="#e"/><radialGradient id="g" cx="334.1255" cy="48.7622" gradientUnits="userSpaceOnUse" r="103.2337" xlink:href="#e"/><radialGradient id="h" cx="27.8755" cy="108.3691" gradientUnits="userSpaceOnUse" r="89.5084" xlink:href="#e"/><radialGradient id="i" cx="-68.3687" cy="108.3691" gradientTransform="matrix(-1 0 0 1 570.251 0)" gradientUnits="userSpaceOnUse" r="89.5084" xlink:href="#e"/><radialGradient id="j" cx="165.1606" cy="560.606" gradientUnits="userSpaceOnUse" r="170.4095" xlink:href="#c"/><radialGradient id="k" cx="-11.0884" cy="394.9829" gradientTransform="matrix(-1 0 0 1 570.251 0)" gradientUnits="userSpaceOnUse" r="86.8953" xlink:href="#c"/><radialGradient id="l" cx="101.6313" cy="140.8926" gradientTransform="matrix(-1 0 0 1 570.251 0)" gradientUnits="userSpaceOnUse" r="122.4001" xlink:href="#c"/><radialGradient id="m" cx="46.7612" cy="242.5811" gradientTransform="matrix(-1 0 0 1 570.251 0)" gradientUnits="userSpaceOnUse" r="152.6152" xlink:href="#c"/><radialGradient id="n" cx="68.9165" cy="560.6069" gradientTransform="matrix(-1 0 0 1 570.251 0)" gradientUnits="userSpaceOnUse" r="170.4089" xlink:href="#c"/><radialGradient id="o" cx="143.0063" cy="242.5801" gradientUnits="userSpaceOnUse" r="140.7213" xlink:href="#c"/><radialGradient id="p" cx="197.8755" cy="140.8926" gradientUnits="userSpaceOnUse" r="122.4001" xlink:href="#c"/><radialGradient id="q" cx="-148.2573" cy="394.9829" gradientTransform="matrix(-1 0 0 1 432.251 0)" gradientUnits="userSpaceOnUse" r="86.8953" xlink:href="#c"/><radialGradient id="r" cx="-205.5376" cy="108.3691" gradientTransform="matrix(-1 0 0 1 432.251 0)" gradientUnits="userSpaceOnUse" r="89.5084" xlink:href="#e"/><radialGradient id="s" cx="-68.2524" cy="560.606" gradientTransform="matrix(-1 0 0 1 432.251 0)" gradientUnits="userSpaceOnUse" r="170.4095" xlink:href="#c"/><radialGradient id="t" cx="-90.4077" cy="242.5801" gradientTransform="matrix(-1 0 0 1 432.251 0)" gradientUnits="userSpaceOnUse" r="140.7213" xlink:href="#c"/><radialGradient id="u" cx="-35.5376" cy="140.8926" gradientTransform="matrix(-1 0 0 1 432.251 0)" gradientUnits="userSpaceOnUse" r="122.4001" xlink:href="#c"/><path d="m0 0h238v153h-238z"/><path d="m0 9h238v9h-238z" fill="#324f7c"/><path d="m0 27h238v9h-238z" fill="#324f7c"/><path d="m0 45h238v9h-238z" fill="#324f7c"/><path d="m0 63h238v9h-238z" fill="#324f7c"/><path d="m0 81h238v9h-238z" fill="#324f7c"/><path d="m0 99h238v9h-238z" fill="#324f7c"/><path d="m0 117h238v9h-238z" fill="#324f7c"/><path d="m0 135h238v9h-238z" fill="#324f7c"/><path d="m0 0h105v72h-105z" fill="#fff"/><g transform="matrix(.08147968 0 0 .08147968 25.347059 8)"><g><path d="m108.125 325.191h454l24.667 61.666-48.183 130.667-175.15 123.219h-68l-133.334-83.886-73.763-130z" fill="url(#a)"/><path d="m124.014 325.191h422.856l-24.745-111.667 92.872-74.75-3.293-34.584-148.246 11.334-127.333-76.667-131.333 62.667-144 5.333-9.333 34.667 86 56.666z" fill="#b82826"/></g><g><path d="m519.455 551.583-147.5-17.5s55-85.5 79-133.5c0 0 12-3.5 17.5 0 0 0 51.5 97 79 116z" fill="#8ca13c" stroke="#507e3a" stroke-miterlimit="10" stroke-width=".5"/><path d="m468.392 409.583s49.563 91.5 65.563 103.5-25.137 29.584-25.137 29.584l-54.146 1.229s-1.717-53.813 7.033-49.313 2.75-34 2.75-34 2.168-11.5 6.584-8-6.584-36.5-6.584-36.5z" fill="#507e3a"/><path d="m471.039 382.166h-6.875v-6.875h-6.25v6.875h-6.875v6.25h6.875v15.667h6.25v-15.667h6.875z" fill="#f8ec14" stroke="#bf9b42" stroke-miterlimit="10" stroke-width=".5"/><path d="m513.342 508.382s-16.093-20.654-58.93 32.444c-2.087 2.587-15.953 4.002-18.168 6.949l58.372-.967 25.142-19.454z" fill="#898734"/><path d="m125.455 492.083s34.5-12 67-87c0 0 12.5-10.5 24 0 0 0 39.5 87 63 102l-11.5 27-121 13z" fill="#8ca13c" stroke="#507e3a" stroke-miterlimit="10" stroke-width=".5"/><path d="m216.246 413.083s40.237 79.833 49.89 89.25-12.347 27.083-12.347 27.083-48.167 3.5-54 .417 0-43.331 0-43.331 9.241-11.42 14.454-5.086 0-30.333 0-30.333-2.539-16.999 2.004-15.333-.001-22.667-.001-22.667z" fill="#507e3a"/><path d="m152.695 500.547s16.093-20.654 58.93 32.444c2.086 2.587 15.953 4.002 18.168 6.949l-58.373-.967-25.142-19.454z" fill="#898734"/><path d="m326.512 387.079s-7.224.753-9.391-3.788c0 0-9.118-7.042-3.376-16.539.068-.111.137-.224.209-.336 0 0-.334-10.5 7-11 0 0 4.501-8.999 16.834-8.666 0 0 17.333-5.166 28.833 2.5 0 0 28.167-8 42.667 9.333 0 0-12.834 8.666-18.334 9.833s-5.334 11.168-26 12.334-14.499 1.666-20.666 1.166-17.776 5.163-17.776 5.163z" fill="#bbbda2"/><path d="m326.915 394.58s-.626-18.164-2.626-22.997h17s-1.97 2.999-2.818 23.416z" fill="url(#b)"/><path d="m440.455 539.638c-33.5-31.5-97.5-143.556-97.5-143.556-13.5-4-22 0-22 0-61.5 134-104.709 143.556-104.709 143.556z" fill="#8ca13c" stroke="#507e3a" stroke-miterlimit="10" stroke-width=".5"/><path d="m343.788 402.416s60.005 106.013 84.338 131.013l-62.799-3.596-64.872-.417s14.668-40.667 23-50c8.333-9.333 9.334 11 9.334 11s7.665-34.667 2.999-44 13.334-7.666 13.334-7.666-11.75-26.559-8.417-27.559 3.083-8.775 3.083-8.775z" fill="#507e3a"/><path d="m160.455 539.638s263.242-17.384 342.871 10.03l-28.371 44.914-103 38.5-77-3-67-31z" fill="#898734"/><g fill="#203e1f"><path d="m238.121 537.288s8.004.035 8.338-6.186c.143-2.672 4.805-3.763 4.246-7.964-1.23-9.235-5.746-7.114-5.746-7.114s-2.254-14.441-10.004-10.191-7.333 6.75-7.333 6.75-8.917-.5-9.417 3.25.491 9.573 2.25 9.75c2.585.26 1.385 3.002 1.671 5.52.286 2.519 2.056 4.813 2.056 4.813s11.106 3.327 13.939 1.372z"/><path d="m174.205 485.583s8.75-3.75 8.75-7.75-4.25-12.5-7.25-13.25-12 1.75-13 3.5-5.5 5.613-4.25 6.932-4.25-.432-4 2.818 5.5 8.25 8.25 7.75 11.5 0 11.5 0z"/><path d="m203.455 489.083s-5.186.5-6.843 1-8.657-3.75-10.407-1 0 3.5 0 3.5-5 7.25-3.5 9.75-4.562 6-.281 8 3.198 9.5 7.364 7.5 14.667 1.25 17.167-3c0 0 13.5-4.5 3.75-12.5s-5.5-7.75-5.5-7.75.25-4.25-1.75-5.5z"/><path d="m505.288 466.971s-2.833-.944-4.833 0-5.333-2.889-5.333-2.889-3.5 1.243-3.667 3.038-7.834 2.795-8.167 4.795 2.5 7.334 2.5 7.334 4.834-.666 4.334 1 1.333 5.333 1.333 5.333 6.667 1.501 9 .667 4.833-5.167 4.833-5.167 5.413-1.67 2.834-9.333-2.834-4.778-2.834-4.778z"/><path d="m466.955 488.916s-6.334-5.834-8.167-3.5-3.333.334-3.333.334-1.667 6.583 0 10.958-2.833.374-3.5 1.208-5.833 10.834 0 15.834c0 0-1.899 8.5 2.717 7.333s5.033-3.167 5.033-3.167 5.249 8.221 11.583 3.277 5.667-8.943 5.667-8.943 6.833-10.166 6-12 2.334-5.667 4.167-6.167-7.334-4-7.334-4-6.332-5.103-8.166-5.218-4.667 4.051-4.667 4.051z"/><path d="m299.121 499.25s-7.5-.501-9.166 1.166-10.5-5.833-10.5-5.833-4.334 4.983-3.834 6.075-12.499 4.758-8.832 14.425c0 0-1.168 11.667 5.666 11s6.334-2.944 6.334-2.944 3.666 4.999 12.166 2.972 6.834-10.36 6.834-10.36-6.001-3.655-4.168-5.161c1.834-1.506 5.167-1.839 5.5-5.006.334-3.168 0-6.334 0-6.334z"/></g><path d="m213.455 385.333h-6.875v-6.875h-6.25v6.875h-6.875v6.25h6.875v15.667h6.25v-15.667h6.875z" fill="#f8ec14" stroke="#bf9b42" stroke-miterlimit="10" stroke-width=".5"/><path d="m333.33 521.583s9.875 3.5 11.875 0 6-4.75 6-4.75 1.5-5 0-7.75 4.5-8.5 4.5-8.5-.5-10-1.25-11.5-8-3.5-8-3.5-8.566 5.741-9.75 4.25c-3.375-4.25-16.41-1.192-15.837-1.085 0 0-2.413 2.085-2.163 4.335s-4.75 3.084-4.75 3.084-1.5 2.416 0 3.166-.666 2.75-.666 2.75 1.416 9 6.166 9 .334 6.333.334 6.333 6.166 7.834 13.541 4.167z" fill="#203e1f"/><path d="m328.35 549.333s1.854-2 1.854-4.25 0-25 0-25l-4.25-9.75 5.936 6.75 8.814-6.75-7.375 9.75v24.5l3.625 4.75-5.064-1.917z" fill="#6d7531"/><path d="m387.122 529.416s13.91-6.447 12.666-11c-1.458-5.333-7.5-5.333-7.5-5.333s7.542-3.875 8.834-6.833c.895-2.049-1.334-6.167-1.334-6.167s-8.252-7.184-12.666-9c-3.27-1.346-13 4.833-13 4.833s-4.268 1.234-4.834 3.167c-1.208 4.125 4.334 7.167 4.334 7.167s-6.001-1.334-6.334 1.666 1.5 6-1 6 .667 6 .667 6 6.333.945 4.333 3.223.949 6.019 4.999 4.157c3.68-1.691 6.168 2.537 6.168 2.537z" fill="#203e1f"/><path d="m379.288 513.083 2.774 5.084v31.749l-4.274 3.167h5.5l2.334 3.333.833-3.5-1.5-2.666-.167-31.334 2.334-2-2.834-.333z" fill="#6d7531"/><path d="m433.051 537.752s-13.271-.906-8.271-14.129c0 0-2.807-18.285 8.271-16.041 2.675.542 4.576 2.869 6.112 2.75 2.715-.21 4.483-2.153 5.44-.638 1.453 2.302 3.902 5.48 7.018 6.888 5.166 2.333-.834 4.778-.834 6.556s4.397 2.611 3.834 6.694c-.508 3.677-4.834 4.916-4.834 4.916s-1.521 6.35-6.666 4.89-10.07-1.886-10.07-1.886z" fill="#203e1f"/><g fill="#6d7531"><path d="m429.788 566.416 2.667-3 .667-28.667-1.667-7.166 3.667 4.167 8-5.167-6.667 7.621-.667 28.712 4.667 3.5-5.667-2z"/><path d="m279.455 518.416 1.666 4.722-.833 26.195-5.999 2.917 6.832-.667 6.668 3.333-4-4.833.166-25.667 3.834-7.5-4.168 2.667z"/><path d="m227.621 529.416 5.167 4 .5 25.167-2.5 4.5 5.5-3.667 5.833.667-5.666-2.667-.167-23.212 12.333-11.954-11.833 7.583-2.333-6.695-1.131 6.278-5.703-.5"/><path d="m190.621 504.36 3.334 4.556v25.288l-4.167 2.879 5-2.167 8.647 2.407-6.823-3.119v-24.454l3.343-5.39-4.334 2.556z"/><path d="m162.705 477.833 5.5 2.5v17.5l-2.75 4.5 4.25-2.5 4.25 2.5-3.5-5.625.125-15.25 5.125-2.625-4.75.625z"/><path d="m493.956 479.25 1.833 6.166v22.834l-2.5 2.112 4.333-1.112 4.5 3.833-3.5-5.691v-21.642l2.334-1.667-3.251-.667z"/><path d="m461.705 505.583 4.25 4v28.125l-3.375 4.625 5.125-1.375 4.75 1.375-4-2.695.5-27.68 5.25-10.5.875-4.75-1.875 4.25-4.813 6.434z"/></g></g><g><path d="m100.792 424.191s24.667 20.334 27 30-39.43 0-39.43 0z" fill="#131d2d" stroke="#131d2d" stroke-miterlimit="10" stroke-width=".25"/><path d="m109.959 358.191s-2.333-13.501 13.167-14.167c15.5-.667-22-6-22-6z" fill="#131d2d"/><path d="m90.459 325.191s-20 4.545-38 17.606c0 0-3.334 3.395-2.667 9.061 0 0 11.667 27.167 10.833 40.333s-14 47.5-14 47.5-3.167 10.334 10.167 15.5c0 0 24.833 8.333 38.083 9.583 0 0 1-14.5 10.75-25.5s17.5-37.5 17.5-37.5 2-10.875 0-15.875-15.685-43.678-15.685-43.678z" fill="#324f7c" stroke="#131d2d" stroke-miterlimit="10" stroke-width=".25"/><path d="m90.459 325.191s-20 4.545-38 17.606c0 0-3.334 3.395-2.667 9.061 0 0 11.667 27.167 10.833 40.333s-14 47.5-14 47.5-3.167 10.334 10.167 15.5c0 0 24.833 8.333 38.083 9.583 0 0 1-14.5 10.75-25.5s17.5-37.5 17.5-37.5 2-10.875 0-15.875-15.685-43.678-15.685-43.678z" fill="url(#d)"/><g stroke-miterlimit="10"><path d="m57.46 339.406s-1.335 3.118-1.085 6.868 4 9.25 4 9.25 9 13.25 7.75 29.5-13.396 55-13.396 55-4.202 10.748 10.222 17.749" fill="none" stroke="#ecb735" stroke-width="2"/><path d="m95.875 333.215s19.073 44.07 19.083 58.476c.015 21.166-12.083 40.333-21.083 51.083s1.094 21.084 1.094 21.084" fill="none" stroke="#ecb735" stroke-width="2"/><path d="m422.53 590.137s-23.331-5.888-31.883 3.386c-6.571 7.128-14.104 14.383-20.188 17.751-14 7.75-37.334 9.917-37.334 9.917s-23.333-2.167-37.333-9.917c-6.084-3.368-13.616-10.623-20.188-17.751-8.551-9.273-31.883-3.386-31.883-3.386l-13.596 12.387 7.333 24c13.666 27.333 95.667 66.667 95.667 66.667s82.001-39.334 95.667-66.667l7.333-24z" fill="#324f7c" stroke="#131d2d" stroke-width=".25"/></g><path d="m422.53 590.137s-23.331-5.888-31.883 3.386c-6.571 7.128-14.104 14.383-20.188 17.751-14 7.75-37.334 9.917-37.334 9.917s-23.333-2.167-37.333-9.917c-6.084-3.368-13.616-10.623-20.188-17.751-8.551-9.273-31.883-3.386-31.883-3.386l-13.596 12.387 7.333 24c13.666 27.333 95.667 66.667 95.667 66.667s82.001-39.334 95.667-66.667l7.333-24z" fill="url(#f)"/><g fill="none" stroke="#ecb735" stroke-miterlimit="10" stroke-width="2"><path d="m249.875 630.774s31.75 32 83.25 51.75"/><path d="m415.919 630.774s-31.75 32-83.25 51.75"/><path d="m276.136 606.774s16.739 21.25 56.989 21.75"/><path d="m390.116 606.774s-16.74 21.25-56.99 21.75"/></g><path d="m395.625 19.274c-42.75-20.75-62.5-19.25-62.5-19.25s-19.75-1.5-62.5 19.25-35.25 29.5-35.25 29.5l39.5 48.75s-2.25-11.25 14.75-24.75 43.5-10 43.5-10 26.5-3.5 43.5 10 14.75 24.75 14.75 24.75l39.5-48.75s7.5-8.75-35.25-29.5z" fill="#324f7c"/><path d="m395.625 19.274c-42.75-20.75-62.5-19.25-62.5-19.25s-19.75-1.5-62.5 19.25-35.25 29.5-35.25 29.5l39.5 48.75s-2.25-11.25 14.75-24.75 43.5-10 43.5-10 26.5-3.5 43.5 10 14.75 24.75 14.75 24.75l39.5-48.75s7.5-8.75-35.25-29.5z" fill="url(#g)"/><g stroke-miterlimit="10"><g fill="none" stroke="#ecb735" stroke-width="2"><path d="m241.375 53.689s19.705-33.665 91.853-45.415"/><path d="m424.977 53.689s-19.705-33.665-91.852-45.415"/><path d="m268.625 95.274s-.295-39.25 64.603-40"/><path d="m397.727 95.328s.295-39.25-64.602-40"/></g><path d="m110.792 130.19c-23-11.5-36-4-36-4 1.833 13.667 25 31.333 25 31.333l-18.333 47c-5 2-9.667 0-9.667 0-71-37.667-71.667-101.75-71.667-101.75 20.25-17.375 45.685-25.686 59.75-29.5 14.75-4 50.75-10.75 59-8.5s12.75 8.5 12.75 8.5z" fill="#324f7c" stroke="#131d2d" stroke-width=".25"/></g><path d="m110.792 130.19c-23-11.5-36-4-36-4 1.833 13.667 25 31.333 25 31.333l-18.333 47c-5 2-9.667 0-9.667 0-71-37.667-71.667-101.75-71.667-101.75 20.25-17.375 45.685-25.686 59.75-29.5 14.75-4 50.75-10.75 59-8.5s12.75 8.5 12.75 8.5z" fill="url(#h)"/><path d="m124.12 74.845s-3.327-3.655-9.661-5.655c0 0-34.057 2.007-63 12.333-33.167 11.834-43.897 23.5-43.897 23.5s-1.751 11.242 13.813 41.001c13.25 25.333 44.528 48.405 53.75 49.75" fill="none" stroke="#ecb735" stroke-miterlimit="10" stroke-width="2"/><path d="m555.704 130.19c23-11.5 36-4 36-4-1.834 13.667-25 31.333-25 31.333l18.332 47c5 2 9.668 0 9.668 0 71-37.667 71.666-101.75 71.666-101.75-20.25-17.375-45.686-25.686-59.75-29.5-14.75-4-50.75-10.75-59-8.5s-12.75 8.5-12.75 8.5z" fill="#324f7c" stroke="#131d2d" stroke-miterlimit="10" stroke-width=".25"/><path d="m555.704 130.19c23-11.5 36-4 36-4-1.834 13.667-25 31.333-25 31.333l18.332 47c5 2 9.668 0 9.668 0 71-37.667 71.666-101.75 71.666-101.75-20.25-17.375-45.686-25.686-59.75-29.5-14.75-4-50.75-10.75-59-8.5s-12.75 8.5-12.75 8.5z" fill="url(#i)"/><g stroke="#131d2d" stroke-miterlimit="10" stroke-width=".25"><g fill="#131d2d"><path d="m162.125 451.524s6.833 3.001 4.333 10.667-12.333 14-12.333 14l-8.667-10.334z"/><path d="m119.625 78.024s3.625-4.625 12-4.75v18.625z"/><path d="m254.125 45.024s-8.345 6.833-19.256 2.833v21.333l18.089-14.5z"/><path d="m286.459 591.027c-8.927-8.472-13.606-7.96-13.606-7.96l-7.04 6.458 9.393 4.22 1.231 2.238 1.785-.883 1.965.883z"/></g><path d="m97.792 445.857s53 .334 64.333 5.667c0 0-4 2.25-6.25 8.75s-.75 13.75-.75 13.75 5.5 45 57.25 84.25 74.083 32.753 74.083 32.753 4.292 1.747.792 11.247-26.5 30.75-26.5 30.75-3 2.25-15.75 0-66.625-20.25-93.625-48-49.75-70.25-49.75-70.25-13.75-20.75-13.25-39.5 9.417-29.417 9.417-29.417z" fill="#324f7c"/></g><path d="m97.792 445.857s52.999.334 64.333 5.667c0 0-4 2.25-6.25 8.75s-.75 13.75-.75 13.75 5.5 45 57.25 84.25 74.084 32.753 74.084 32.753 4.291 1.747.791 11.247-26.5 30.75-26.5 30.75-3 2.25-15.75 0-66.625-20.25-93.625-48-49.75-70.25-49.75-70.25-13.75-20.75-13.25-39.5 9.417-29.417 9.417-29.417z" fill="url(#j)"/><path d="m565.704 424.192s-24.666 20.334-27 30 39.43 0 39.43 0z" fill="#131d2d" stroke="#131d2d" stroke-miterlimit="10" stroke-width=".25"/><path d="m556.536 358.192s2.334-13.502-13.166-14.168 22-6 22-6z" fill="#131d2d"/><path d="m576.036 325.191s20 4.545 38 17.606c0 0 3.334 3.395 2.668 9.061 0 0-11.668 27.168-10.834 40.334s14 47.5 14 47.5 3.168 10.334-10.166 15.5c0 0-24.834 8.332-38.084 9.582 0 0-1-14.5-10.75-25.5s-17.5-37.5-17.5-37.5-2-10.875 0-15.875 15.686-43.678 15.686-43.678z" fill="#324f7c" stroke="#131d2d" stroke-miterlimit="10" stroke-width=".25"/><path d="m576.036 325.191s20 4.545 38 17.606c0 0 3.334 3.395 2.668 9.061 0 0-11.668 27.168-10.834 40.334s14 47.5 14 47.5 3.168 10.334-10.166 15.5c0 0-24.834 8.332-38.084 9.582 0 0-1-14.5-10.75-25.5s-17.5-37.5-17.5-37.5-2-10.875 0-15.875 15.686-43.678 15.686-43.678z" fill="url(#k)"/><g stroke="#131d2d" stroke-miterlimit="10" stroke-width=".25"><g fill="#131d2d"><path d="m504.37 451.524s-6.834 3.002-4.334 10.668 12.334 14 12.334 14l8.666-10.334z"/><path d="m577.963 186.39 33.74-5.2s-.334 4.5-6.834 8-17.75 12.208-17.75 12.208-1.041 1.125-2.084 3.125"/><path d="m546.87 78.024s-3.625-4.625-12-4.75v18.625z"/><path d="m412.37 45.024s8.346 6.833 19.256 2.833v21.333l-18.089-14.5z"/></g><path d="m412.37 45.024s-19 44.5-22.5 58c0 0 11.5 24.5 73.5 40s102-12 102-12-5-35-18.5-53c0 0-18.5 18-69.25 6.5s-65.25-39.5-65.25-39.5z" fill="#324f7c"/><path d="m611.704 181.19s2.666-8.333-26.668-29.667c0 0-66.666-15-91.332 78.333-24.667 93.332 37 119 37 119s34.666-3 54.332-22c0 0-34.666-30.333-31.666-79.333s58.334-66.333 58.334-66.333z" fill="#324f7c"/><path d="m380.036 591.028c8.928-8.473 13.607-7.961 13.607-7.961l7.039 6.459-9.393 4.219-1.23 2.238-1.785-.883-1.965.883z" fill="#131d2d"/><path d="m568.704 445.858s-53 .334-64.334 5.666c0 0 4 2.25 6.25 8.75s.75 13.75.75 13.75-5.5 45-57.25 84.25-74.084 32.754-74.084 32.754-4.291 1.746-.791 11.246 26.5 30.75 26.5 30.75 3 2.25 15.75 0 66.625-20.25 93.625-48 49.75-70.25 49.75-70.25 13.75-20.75 13.25-39.5-9.416-29.416-9.416-29.416z" fill="#324f7c"/></g><path d="m412.37 45.024s-19 44.5-22.5 58c0 0 11.5 24.5 73.5 40s102-12 102-12-5-35-18.5-53c0 0-18.5 18-69.25 6.5s-65.25-39.5-65.25-39.5z" fill="url(#l)"/><path d="m611.704 181.19s2.666-8.333-26.668-29.667c0 0-66.666-15-91.332 78.333-24.667 93.332 37 119 37 119s34.666-3 54.332-22c0 0-34.666-30.333-31.666-79.333s58.334-66.333 58.334-66.333z" fill="url(#m)"/><path d="m568.704 445.858s-53 .334-64.334 5.666c0 0 4 2.25 6.25 8.75s.75 13.75.75 13.75-5.5 45-57.25 84.25-74.084 32.754-74.084 32.754-4.291 1.746-.791 11.246 26.5 30.75 26.5 30.75 3 2.25 15.75 0 66.625-20.25 93.625-48 49.75-70.25 49.75-70.25 13.75-20.75 13.25-39.5-9.416-29.416-9.416-29.416z" fill="url(#n)"/><g stroke-miterlimit="10"><path d="m105.459 120.636s-12.833-7.388-37.611 0c0 0-3.926 13.221 18.12 34.138" fill="none" stroke="#ecb735" stroke-width="2"/><g stroke="#131d2d" stroke-width=".25"><path d="m88.532 186.39-33.74-5.2s.333 4.5 6.833 8 17.75 12.208 17.75 12.208 1.042 1.125 2.083 3.125" fill="#131d2d"/><g fill="#324f7c"><path d="m54.792 181.19s-2.667-8.333 26.667-29.667c0 0 66.667-15 91.333 78.333s-37 119-37 119-34.667-2.999-54.333-22c0 0 34.667-30.333 31.667-79.333s-58.334-66.333-58.334-66.333z"/><path d="m254.125 45.024s19 44.5 22.5 58c0 0-11.5 24.5-73.5 40s-102-12-102-12 5-35 18.5-53c0 0 18.5 18 69.25 6.5s65.25-39.5 65.25-39.5z"/></g></g><g fill="none" stroke="#ecb735" stroke-width="2"><path d="m102.435 123.652s82.691 49.205 172.024-26.128"/><path d="m115.693 85.774s23.164 14.184 59.932 10.619c55-5.333 82.151-42.704 82.151-42.704"/><path d="m58.63 173.524s45.204 13.388 59.829 55.5c18.667 53.75-29.082 104.191-29.082 104.191"/></g></g><path d="m54.792 181.19s-2.667-8.333 26.667-29.667c0 0 66.667-15 91.333 78.333 24.667 93.333-37 119-37 119s-34.667-2.999-54.333-21.999c0 0 34.667-30.334 31.667-79.334s-58.334-66.333-58.334-66.333z" fill="url(#o)"/><path d="m254.125 45.024s19 44.5 22.5 58c0 0-11.5 24.5-73.5 40s-102-12-102-12 5-35 18.5-53c0 0 18.5 18 69.25 6.5s65.25-39.5 65.25-39.5z" fill="url(#p)"/><g stroke-miterlimit="10"><g fill="none" stroke="#ecb735" stroke-width="2"><path d="m77.104 154.774s66.614-8.611 89.021 82.083c19.25 77.917-35.954 111.25-35.954 111.25"/><path d="m150.84 448.852s-6.38 3.839-7.047 15.922 7.216 33.749 12.441 43.083 41.082 60.894 87.487 82.28c27.837 12.829 38.436 14.004 42.46 12.891"/><path d="m108.125 445.857s-9.666 11-10.999 28 22 55.667 22 55.667 18.333 32.667 45 56 74.667 40 74.667 40 14.666 5 26.666 3"/></g><path d="m564.873 424.191s-24.666 20.334-27 30 39.43 0 39.43 0z" fill="#131d2d" stroke="#131d2d" stroke-width=".25"/></g><path d="m555.706 358.191s2.333-13.501-13.167-14.167 22-6 22-6z" fill="#131d2d"/><path d="m575.205 325.191s20 4.545 38 17.606c0 0 3.334 3.395 2.668 9.061 0 0-11.668 27.167-10.834 40.333s14 47.5 14 47.5 3.168 10.334-10.166 15.5c0 0-24.834 8.333-38.084 9.583 0 0-1-14.5-10.75-25.5s-17.5-37.5-17.5-37.5-2-10.875 0-15.875 15.686-43.678 15.686-43.678z" fill="#324f7c" stroke="#131d2d" stroke-miterlimit="10" stroke-width=".25"/><path d="m575.205 325.191s20 4.545 38 17.606c0 0 3.334 3.395 2.668 9.061 0 0-11.668 27.167-10.834 40.333s14 47.5 14 47.5 3.168 10.334-10.166 15.5c0 0-24.834 8.333-38.084 9.583 0 0-1-14.5-10.75-25.5s-17.5-37.5-17.5-37.5-2-10.875 0-15.875 15.686-43.678 15.686-43.678z" fill="url(#q)"/><g stroke-miterlimit="10"><path d="m608.205 339.407s1.334 3.117 1.084 6.867-4 9.25-4 9.25-9 13.25-7.75 29.5 13.396 55 13.396 55 4.201 10.748-10.223 17.749" fill="none" stroke="#ecb735" stroke-width="2"/><path d="m569.789 333.215s-19.072 44.069-19.083 58.476c-.015 21.166 12.083 40.333 21.083 51.083s-1.094 21.084-1.094 21.084" fill="none" stroke="#ecb735" stroke-width="2"/><path d="m554.873 130.19c23-11.5 36-4 36-4-1.834 13.667-25 31.333-25 31.333l18.332 47c5 2 9.668 0 9.668 0 71-37.667 71.666-101.75 71.666-101.75-20.25-17.375-45.686-25.686-59.75-29.5-14.75-4-50.75-10.75-59-8.5s-12.75 8.5-12.75 8.5z" fill="#324f7c" stroke="#131d2d" stroke-width=".25"/></g><path d="m554.873 130.19c23-11.5 36-4 36-4-1.834 13.667-25 31.333-25 31.333l18.332 47c5 2 9.668 0 9.668 0 71-37.667 71.666-101.75 71.666-101.75-20.25-17.375-45.686-25.686-59.75-29.5-14.75-4-50.75-10.75-59-8.5s-12.75 8.5-12.75 8.5z" fill="url(#r)"/><g stroke-miterlimit="10"><path d="m541.544 74.845s3.328-3.655 9.661-5.655c0 0 34.056 2.007 62.999 12.333 33.168 11.833 43.898 23.499 43.898 23.499s1.75 11.242-13.814 41.001c-13.25 25.333-44.527 48.405-53.75 49.75" fill="none" stroke="#ecb735" stroke-width="2"/><g stroke="#131d2d" stroke-width=".25"><g fill="#131d2d"><path d="m503.539 451.524s-6.833 3.001-4.333 10.667 12.333 14 12.333 14l8.667-10.334z"/><path d="m546.039 78.024s-3.625-4.625-12-4.75v18.625z"/><path d="m411.539 45.024s8.346 6.833 19.256 2.833v21.333l-18.089-14.5z"/><path d="m379.206 591.027c8.927-8.472 13.606-7.96 13.606-7.96l7.039 6.458-9.393 4.22-1.23 2.238-1.785-.883-1.965.883z"/></g><path d="m567.873 445.857s-53 .334-64.334 5.667c0 0 4 2.25 6.25 8.75s.75 13.75.75 13.75-5.5 45-57.25 84.25-74.083 32.753-74.083 32.753-4.292 1.747-.792 11.247 26.5 30.75 26.5 30.75 3 2.25 15.75 0 66.625-20.25 93.625-48 49.75-70.25 49.75-70.25 13.75-20.75 13.25-39.5-9.416-29.417-9.416-29.417z" fill="#324f7c"/></g></g><path d="m567.873 445.857s-53 .334-64.334 5.667c0 0 4 2.25 6.25 8.75s.75 13.75.75 13.75-5.5 45-57.25 84.25-74.084 32.753-74.084 32.753-4.291 1.747-.791 11.247 26.5 30.75 26.5 30.75 3 2.25 15.75 0 66.625-20.25 93.625-48 49.75-70.25 49.75-70.25 13.75-20.75 13.25-39.5-9.416-29.417-9.416-29.417z" fill="url(#s)"/><g stroke-miterlimit="10"><path d="m560.206 120.636s12.833-7.388 37.61 0c0 0 3.926 13.221-18.119 34.138" fill="none" stroke="#ecb735" stroke-width="2"/><g stroke="#131d2d" stroke-width=".25"><path d="m577.132 186.39 33.74-5.2s-.334 4.5-6.834 8-17.75 12.208-17.75 12.208-1.041 1.125-2.084 3.125" fill="#131d2d"/><g fill="#324f7c"><path d="m610.873 181.19s2.666-8.333-26.668-29.667c0 0-66.666-15-91.332 78.333-24.667 93.333 37 119 37 119s34.666-2.999 54.332-21.999c0 0-34.666-30.334-31.666-79.334s58.334-66.333 58.334-66.333z"/><path d="m411.539 45.024s-19 44.5-22.5 58c0 0 11.5 24.5 73.5 40s102-12 102-12-5-35-18.5-53c0 0-18.5 18-69.25 6.5s-65.25-39.5-65.25-39.5z"/></g></g><g fill="none" stroke="#ecb735" stroke-width="2"><path d="m563.23 123.652s-82.691 49.205-172.024-26.128"/><path d="m549.971 85.774s-23.164 14.184-59.933 10.619c-55-5.333-82.15-42.704-82.15-42.704"/><path d="m607.035 173.524s-45.205 13.388-59.829 55.5c-18.667 53.75 29.081 104.191 29.081 104.191"/></g></g><path d="m610.873 181.19s2.666-8.333-26.668-29.667c0 0-66.666-15-91.332 78.333-24.667 93.333 37 119 37 119s34.666-2.999 54.332-21.999c0 0-34.666-30.334-31.666-79.334s58.334-66.333 58.334-66.333z" fill="url(#t)"/><path d="m411.539 45.024s-19 44.5-22.5 58c0 0 11.5 24.5 73.5 40s102-12 102-12-5-35-18.5-53c0 0-18.5 18-69.25 6.5s-65.25-39.5-65.25-39.5z" fill="url(#u)"/><g fill="none" stroke="#ecb735" stroke-miterlimit="10" stroke-width="2"><path d="m588.56 154.774s-66.614-8.611-89.021 82.083c-19.25 77.917 35.954 111.25 35.954 111.25"/><path d="m514.825 448.852s6.38 3.839 7.048 15.922c.666 12.083-7.217 33.749-12.441 43.083-5.226 9.334-41.082 60.894-87.487 82.28-27.666 12.751-38.305 13.989-42.385 12.911"/><path d="m557.541 445.857s9.666 11 10.998 28c1.334 17-22 55.667-22 55.667s-18.332 32.667-45 56c-26.666 23.333-74.666 40-74.666 40s-14.666 5-26.666 3"/></g></g><g stroke="#7c431c" stroke-miterlimit="10"><path d="m11.043 122.668s7.422-.008 10.021-11.397l3.943 1.19-2.628 8.704s-5.401 6.279-11.336 1.503z" fill="#ecb735" stroke-width=".5"/><path d="m19.628 94.234s6.177 4.114 2.039 15.037l3.943 1.191 2.627-8.702c.001 0-1.023-8.219-8.609-7.526z" fill="#ecb735" stroke-width=".5"/><path d="m61.151 98.135c.685-1.794-1.09-3.787-5.523-3.216-.185-.049-29.927 8.089-35.531 8.078-2.027-.004-3.829 2.632-4.692 5.535-.887 2.895-.845 6.088.846 7.207 4.673 3.093 24.944 26.329 25.125 26.39 3.375 2.932 5.957 2.251 6.38.38.16-.708 4.785 3.64 4.577-1.811-.062-1.631 4.235 2.539 4.083-3.558-.014-.565 5.029 2.112 4.028-4.417-.393-2.562 5.449-.209 3.529-6.246-.176-.556 2.028-.26 2.695-2.47.676-2.238-1.333-3.183-.878-3.549 4.939-3.965-1.228-5.239.517-7.154 4.446-4.884-1.235-5.445-.911-5.909 3.501-4.992-2.387-3.897-1.432-5.222 3.188-4.423-3.07-3.361-2.813-4.038z" fill="#fcd30b" stroke-width=".25"/><path d="m61.151 98.135c.685-1.794-1.09-3.787-5.523-3.216-.185-.049-29.927 8.089-35.531 8.078-2.027-.004-3.829 2.632-4.692 5.535-.887 2.895-.845 6.088.846 7.207 4.673 3.093 24.944 26.329 25.125 26.39 3.375 2.932 5.957 2.251 6.38.38.16-.708 4.785 3.64 4.577-1.811-.062-1.631 4.235 2.539 4.083-3.558-.014-.565 5.029 2.112 4.028-4.417-.393-2.562 5.449-.209 3.529-6.246-.176-.556 2.028-.26 2.695-2.47.676-2.238-1.333-3.183-.878-3.549 4.939-3.965-1.228-5.239.517-7.154 4.446-4.884-1.235-5.445-.911-5.909 3.501-4.992-2.387-3.897-1.432-5.222 3.188-4.423-3.07-3.361-2.813-4.038z" fill="#ecb735" stroke-width=".5"/></g><g fill="#7c431c"><path d="m47.754 142.509c-.612-.965-1.286-1.887-1.965-2.802-.686-.912-1.382-1.814-2.111-2.691-1.431-1.776-2.958-3.471-4.481-5.176 1.672 1.56 3.217 3.254 4.675 5.018 1.427 1.786 2.808 3.628 3.882 5.651z"/><path d="m52.332 140.699c-.737-1.01-1.515-1.986-2.302-2.953-.792-.963-1.598-1.915-2.44-2.833-1.663-1.859-3.446-3.604-5.318-5.26 2.005 1.497 3.814 3.246 5.503 5.092 1.661 1.87 3.233 3.83 4.557 5.954z"/><path d="m56.414 137.141c-.815-1.01-1.707-1.953-2.605-2.885-.908-.924-1.854-1.81-2.829-2.663-1.902-1.762-3.964-3.336-6.029-4.91 2.19 1.398 4.229 3.023 6.196 4.724.959.878 1.89 1.787 2.781 2.734.895.942 1.747 1.931 2.486 3z"/><path d="m60.442 132.725c-.405-.493-.895-.905-1.382-1.313-.484-.412-.983-.807-1.492-1.189-1.018-.765-2.069-1.484-3.135-2.181-2.095-1.45-4.292-2.746-6.446-4.113 2.264 1.181 4.436 2.526 6.585 3.906 1.054.722 2.093 1.467 3.097 2.257.997.791 2.002 1.609 2.773 2.633z"/><path d="m63.971 126.479c-1.125-.512-2.264-.987-3.399-1.472l-3.417-1.429c-2.274-.96-4.567-1.878-6.834-2.864 2.342.792 4.642 1.699 6.93 2.634 2.272.968 4.548 1.944 6.72 3.131z"/><path d="m61.098 98.078c-2.015 1.09-4.184 1.86-6.361 2.557-2.19.662-4.414 1.218-6.67 1.592 2.212-.577 4.422-1.143 6.597-1.831 1.092-.326 2.172-.693 3.247-1.073 1.072-.385 2.143-.78 3.187-1.245z"/><path d="m63.91 102.118c-2.278 1.037-4.672 1.8-7.091 2.438-2.428.603-4.903 1.059-7.402 1.197 2.476-.344 4.927-.81 7.34-1.438 1.21-.299 2.408-.646 3.601-1.01 1.191-.37 2.379-.754 3.552-1.187z"/><path d="m65.341 107.342c-1.208.481-2.464.833-3.731 1.123-1.266.296-2.545.538-3.83.738-2.579.328-5.176.553-7.774.505 2.591-.167 5.18-.337 7.739-.752 1.284-.171 2.562-.385 3.83-.652 1.264-.28 2.528-.572 3.766-.962z"/><path d="m66.251 113.249c-1.209.426-2.499.551-3.768.66-1.274.102-2.551.148-3.829.166-2.554-.04-5.107-.122-7.646-.391 2.551.054 5.098.19 7.646.141 1.273.01 2.547-.007 3.818-.082.635-.037 1.27-.09 1.901-.165.631-.071 1.268-.142 1.878-.329z"/><path d="m65.804 120.408c-2.465-.212-4.901-.658-7.331-1.109-2.423-.486-4.841-1.004-7.23-1.64 2.434.434 4.851.937 7.278 1.395l3.636.7c1.214.224 2.426.458 3.647.654z"/><path d="m34.296 128.958c1.891-1.63 3.475-3.586 4.827-5.669 1.338-2.097 2.386-4.378 3.084-6.762.728-2.375 1.101-4.857 1.128-7.344.023-2.488-.284-4.977-.833-7.41.644 2.41 1.012 4.906.999 7.411 0 2.502-.345 5.01-1.055 7.415-.732 2.398-1.814 4.686-3.184 6.78-1.368 2.092-3.011 4.022-4.966 5.579z"/></g><g stroke="#7c431c" stroke-miterlimit="10"><path d="m319.217 6.274s2.153 7.103 13.807 6.298v4.119h-9.091s-7.573-3.356-4.716-10.417z" fill="#ecb735" stroke-width=".5"/><path d="m348.918 6.274s-2.153 7.103-13.806 6.298v4.119h9.089c.001 0 7.575-3.356 4.717-10.417z" fill="#ecb735" stroke-width=".5"/><path d="m357.186 47.152c1.914.136 3.311-2.139 1.481-6.217-.007-.191-16.394-26.312-18.003-31.68-.582-1.942-3.627-2.905-6.654-2.892-3.029-.013-6.073.95-6.655 2.892-1.61 5.368-17.996 31.489-18.002 31.68-1.831 4.079-.434 6.354 1.48 6.217.725-.051-2.102 5.633 3.056 3.859 1.544-.531-1.206 4.789 4.586 2.88.537-.176-.568 5.424 5.392 2.58 2.338-1.117 1.775 5.155 6.999 1.573.482-.33.836 1.866 3.145 1.866 2.338 0 2.662-2.196 3.143-1.866 5.225 3.582 4.661-2.69 6.998-1.573 5.961 2.845 4.855-2.756 5.395-2.58 5.79 1.909 3.041-3.411 4.584-2.88 5.158 1.775 2.332-3.91 3.055-3.859z" fill="#fcd30b" stroke-width=".25"/><path d="m357.186 47.152c1.914.136 3.311-2.139 1.481-6.217-.007-.191-16.394-26.312-18.003-31.68-.582-1.942-3.627-2.905-6.654-2.892-3.029-.013-6.073.95-6.655 2.892-1.61 5.368-17.996 31.489-18.002 31.68-1.831 4.079-.434 6.354 1.48 6.217.725-.051-2.102 5.633 3.056 3.859 1.544-.531-1.206 4.789 4.586 2.88.537-.176-.568 5.424 5.392 2.58 2.338-1.117 1.775 5.155 6.999 1.573.482-.33.836 1.866 3.145 1.866 2.338 0 2.662-2.196 3.143-1.866 5.225 3.582 4.661-2.69 6.998-1.573 5.961 2.845 4.855-2.756 5.395-2.58 5.79 1.909 3.041-3.411 4.584-2.88 5.158 1.775 2.332-3.91 3.055-3.859z" fill="#ecb735" stroke-width=".5"/></g><g fill="#7c431c"><path d="m310.833 47.152c.747-.865 1.435-1.776 2.114-2.691.674-.919 1.337-1.847 1.966-2.798 1.287-1.883 2.468-3.835 3.66-5.786-1.01 2.052-2.185 4.021-3.453 5.926-1.296 1.882-2.661 3.736-4.287 5.349z"/><path d="m313.889 51.011c.753-.997 1.464-2.024 2.162-3.058.694-1.037 1.372-2.083 2.008-3.156 1.299-2.128 2.453-4.34 3.498-6.611-.854 2.353-2.005 4.59-3.284 6.74-1.311 2.133-2.733 4.204-4.384 6.085z"/><path d="m318.475 53.891c.731-1.073 1.376-2.198 2.009-3.328.623-1.136 1.196-2.298 1.732-3.478 1.137-2.33 2.047-4.759 2.957-7.191-.706 2.501-1.671 4.923-2.731 7.296-.563 1.172-1.165 2.327-1.814 3.453-.643 1.13-1.343 2.232-2.153 3.248z"/><path d="m323.867 56.471c.355-.53.608-1.119.858-1.703.254-.583.488-1.175.707-1.772.438-1.195.824-2.41 1.182-3.631.783-2.425 1.389-4.902 2.075-7.36-.476 2.508-1.136 4.977-1.836 7.433-.387 1.218-.8 2.428-1.266 3.618-.47 1.182-.962 2.381-1.72 3.415z"/><path d="m330.866 58.044c.165-1.225.291-2.453.427-3.68l.38-3.684c.263-2.455.479-4.915.768-7.37-.082 2.471-.285 4.935-.52 7.396-.27 2.455-.546 4.917-1.055 7.338z"/><path d="m357.225 47.085c-1.626-1.613-2.99-3.468-4.287-5.351-1.267-1.905-2.441-3.874-3.451-5.925 1.191 1.951 2.372 3.903 3.658 5.786.629.951 1.292 1.879 1.966 2.798.681.916 1.367 1.827 2.114 2.692z"/><path d="m354.17 50.944c-1.651-1.881-3.074-3.952-4.384-6.084-1.279-2.15-2.431-4.388-3.285-6.74 1.045 2.271 2.199 4.482 3.499 6.611.637 1.072 1.314 2.119 2.008 3.155.698 1.034 1.409 2.061 2.162 3.058z"/><path d="m349.583 53.825c-.811-1.017-1.51-2.118-2.153-3.247-.649-1.127-1.25-2.281-1.813-3.454-1.06-2.374-2.025-4.795-2.73-7.297.91 2.432 1.82 4.861 2.957 7.191.535 1.179 1.109 2.341 1.731 3.478.632 1.13 1.277 2.256 2.008 3.329z"/><path d="m344.191 56.403c-.757-1.034-1.249-2.232-1.72-3.416-.467-1.19-.879-2.4-1.266-3.618-.7-2.456-1.359-4.924-1.836-7.433.686 2.458 1.292 4.935 2.074 7.36.359 1.222.744 2.437 1.182 3.631.219.598.453 1.189.707 1.772.251.585.503 1.174.859 1.704z"/><path d="m337.208 58.044c-.51-2.421-.786-4.882-1.057-7.338-.234-2.46-.438-4.924-.52-7.396.289 2.456.506 4.915.768 7.37l.381 3.684c.137 1.227.262 2.455.428 3.68z"/><path d="m319.916 30.353c2.107 1.338 4.437 2.29 6.823 2.983 2.394.675 4.88 1.019 7.363.998 2.484.011 4.969-.35 7.357-1.042 2.389-.697 4.682-1.71 6.853-2.938-2.121 1.313-4.403 2.387-6.806 3.098-2.396.724-4.896 1.117-7.403 1.133-2.508-.007-5.01-.382-7.411-1.088-2.398-.708-4.72-1.724-6.776-3.144z"/></g><g stroke="#7c431c" stroke-miterlimit="10"><path d="m318.333 630.372s2.153 7.103 13.808 6.299v4.118h-9.092s-7.572-3.356-4.716-10.417z" fill="#ecb735" stroke-width=".5"/><path d="m348.036 630.372s-2.154 7.103-13.807 6.299v4.118h9.09s7.574-3.356 4.717-10.417z" fill="#ecb735" stroke-width=".5"/><path d="m356.303 671.25c1.914.136 3.311-2.139 1.48-6.218-.006-.19-16.393-26.312-18.002-31.68-.582-1.942-3.627-2.905-6.654-2.892-3.029-.014-6.074.949-6.656 2.892-1.61 5.368-17.996 31.489-18.002 31.68-1.831 4.079-.434 6.354 1.48 6.218.725-.052-2.102 5.633 3.056 3.858 1.544-.531-1.206 4.788 4.586 2.88.537-.176-.568 5.424 5.392 2.58 2.338-1.117 1.775 5.154 6.999 1.572.482-.33.836 1.867 3.145 1.867 2.338 0 2.662-2.197 3.143-1.867 5.225 3.582 4.66-2.689 6.998-1.572 5.961 2.844 4.855-2.756 5.395-2.58 5.789 1.908 3.041-3.411 4.584-2.88 5.158 1.775 2.334-3.909 3.056-3.858z" fill="#fcd30b" stroke-width=".25"/><path d="m356.303 671.25c1.914.136 3.311-2.139 1.48-6.218-.006-.19-16.393-26.312-18.002-31.68-.582-1.942-3.627-2.905-6.654-2.892-3.029-.014-6.074.949-6.656 2.892-1.61 5.368-17.996 31.489-18.002 31.68-1.831 4.079-.434 6.354 1.48 6.218.725-.052-2.102 5.633 3.056 3.858 1.544-.531-1.206 4.788 4.586 2.88.537-.176-.568 5.424 5.392 2.58 2.338-1.117 1.775 5.154 6.999 1.572.482-.33.836 1.867 3.145 1.867 2.338 0 2.662-2.197 3.143-1.867 5.225 3.582 4.66-2.689 6.998-1.572 5.961 2.844 4.855-2.756 5.395-2.58 5.789 1.908 3.041-3.411 4.584-2.88 5.158 1.775 2.334-3.909 3.056-3.858z" fill="#ecb735" stroke-width=".5"/></g><g fill="#7c431c"><path d="m309.95 671.25c.747-.865 1.435-1.777 2.114-2.691.674-.92 1.337-1.848 1.966-2.799 1.287-1.883 2.468-3.835 3.66-5.786-1.01 2.052-2.185 4.021-3.453 5.926-1.296 1.882-2.661 3.737-4.287 5.35z"/><path d="m313.006 675.109c.753-.997 1.464-2.024 2.162-3.058.694-1.037 1.372-2.084 2.008-3.156 1.299-2.128 2.453-4.34 3.498-6.611-.854 2.354-2.005 4.591-3.284 6.74-1.311 2.133-2.733 4.204-4.384 6.085z"/><path d="m317.592 677.989c.731-1.072 1.376-2.198 2.009-3.328.623-1.137 1.196-2.299 1.732-3.478 1.137-2.33 2.048-4.759 2.957-7.19-.706 2.501-1.671 4.922-2.731 7.296-.563 1.173-1.165 2.327-1.814 3.453-.643 1.13-1.343 2.23-2.153 3.247z"/><path d="m322.984 680.569c.356-.531.608-1.119.858-1.703.254-.583.488-1.175.707-1.771.438-1.195.824-2.41 1.182-3.632.783-2.425 1.389-4.902 2.075-7.36-.476 2.508-1.136 4.977-1.836 7.433-.387 1.218-.8 2.428-1.266 3.618-.471 1.182-.963 2.38-1.72 3.415z"/><path d="m329.983 682.141c.164-1.225.291-2.453.426-3.68l.381-3.684c.262-2.455.479-4.914.768-7.37-.082 2.472-.285 4.935-.52 7.396-.27 2.455-.547 4.917-1.055 7.338z"/><path d="m356.342 671.182c-1.627-1.613-2.99-3.467-4.287-5.35-1.268-1.906-2.441-3.874-3.451-5.926 1.191 1.951 2.371 3.902 3.658 5.786.629.951 1.291 1.879 1.965 2.798.682.917 1.367 1.828 2.115 2.692z"/><path d="m353.288 675.042c-1.652-1.881-3.074-3.952-4.385-6.084-1.279-2.15-2.43-4.388-3.285-6.74 1.045 2.271 2.199 4.482 3.5 6.611.637 1.072 1.314 2.119 2.008 3.155.697 1.034 1.408 2.06 2.162 3.058z"/><path d="m348.7 677.922c-.811-1.017-1.51-2.118-2.154-3.247-.648-1.127-1.25-2.281-1.813-3.454-1.061-2.373-2.025-4.795-2.73-7.297.91 2.432 1.82 4.861 2.957 7.191.535 1.18 1.109 2.342 1.73 3.479.633 1.129 1.279 2.256 2.01 3.328z"/><path d="m343.307 680.5c-.756-1.034-1.248-2.232-1.719-3.416-.467-1.189-.879-2.4-1.266-3.617-.701-2.457-1.359-4.925-1.836-7.434.686 2.459 1.291 4.936 2.074 7.36.359 1.222.744 2.437 1.182 3.632.219.598.453 1.189.707 1.771.251.585.503 1.174.858 1.704z"/><path d="m336.325 682.141c-.51-2.421-.787-4.882-1.057-7.338-.234-2.461-.438-4.924-.52-7.396.289 2.456.506 4.915.768 7.37l.381 3.684c.137 1.227.262 2.456.428 3.68z"/><path d="m319.033 654.45c2.107 1.339 4.437 2.291 6.823 2.983 2.394.675 4.879 1.019 7.364.998 2.484.011 4.969-.35 7.357-1.042 2.389-.697 4.682-1.711 6.852-2.939-2.121 1.313-4.402 2.387-6.805 3.098-2.396.725-4.896 1.117-7.404 1.133-2.508-.007-5.009-.382-7.411-1.088-2.398-.707-4.721-1.721-6.776-3.143z"/></g><g stroke="#7c431c" stroke-miterlimit="10"><path d="m137.639 545.224s6.184 4.104 14.657-3.937l2.623 3.175-7.009 5.789c-.001 0-7.977 2.237-10.271-5.027z" fill="#ecb735" stroke-width=".5"/><path d="m160.539 526.308s2.863 6.848-6.633 13.648l2.623 3.176 7.008-5.789s3.702-7.41-2.998-11.035z" fill="#ecb735" stroke-width=".5"/><path d="m192.946 552.561c1.563-1.114 1.19-3.757-2.817-5.737-.126-.143-29.396-9.846-34.055-12.96-1.685-1.127-4.646.069-6.972 2.009-2.344 1.918-4.078 4.599-3.29 6.467 2.177 5.165 6.179 35.738 6.295 35.89 1.187 4.311 3.712 5.175 5.101 3.852.526-.502 1.967 5.681 4.813 1.028.853-1.394 2.12 4.46 5.37-.7.302-.478 3.016 4.544 5.8-1.444 1.092-2.351 4.651 2.844 6.397-3.245.161-.562 1.833.908 3.613-.563 1.802-1.488.653-3.39 1.234-3.441 6.309-.564 1.881-5.042 4.395-5.669 6.406-1.604 1.988-5.217 2.515-5.424 5.68-2.217.172-4.566 1.701-5.141 5.108-1.918-.69-4.501-.1-4.922z" fill="#fcd30b" stroke-width=".25"/><path d="m192.946 552.561c1.563-1.114 1.19-3.757-2.817-5.737-.126-.143-29.396-9.846-34.055-12.96-1.685-1.127-4.646.069-6.972 2.009-2.344 1.918-4.078 4.599-3.29 6.467 2.177 5.165 6.179 35.738 6.295 35.89 1.187 4.311 3.712 5.175 5.101 3.852.526-.502 1.967 5.681 4.813 1.028.853-1.394 2.12 4.46 5.37-.7.302-.478 3.016 4.544 5.8-1.444 1.092-2.351 4.651 2.844 6.397-3.245.161-.562 1.833.908 3.613-.563 1.802-1.488.653-3.39 1.234-3.441 6.309-.564 1.881-5.042 4.395-5.669 6.406-1.604 1.988-5.217 2.515-5.424 5.68-2.217.172-4.566 1.701-5.141 5.108-1.918-.69-4.501-.1-4.922z" fill="#ecb735" stroke-width=".5"/></g><g fill="#7c431c"><path d="m157.208 582.081c.025-1.143-.025-2.283-.084-3.422-.065-1.138-.145-2.275-.267-3.409-.207-2.271-.54-4.529-.863-6.792.528 2.226.875 4.491 1.112 6.768.2 2.276.328 4.575.102 6.855z"/><path d="m162.021 583.109c-.054-1.249-.161-2.493-.28-3.734-.126-1.24-.269-2.479-.462-3.712-.355-2.468-.871-4.91-1.514-7.325.843 2.356 1.376 4.816 1.76 7.289.35 2.477.571 4.98.496 7.482z"/><path d="m167.392 582.409c-.12-1.293-.339-2.571-.57-3.845-.244-1.273-.542-2.534-.879-3.784-.608-2.521-1.452-4.974-2.299-7.428 1.049 2.378 1.846 4.859 2.541 7.364.312 1.263.583 2.536.801 3.817.221 1.281.383 2.576.406 3.876z"/><path d="m173.192 580.964c-.063-.635-.244-1.25-.423-1.859-.175-.611-.372-1.217-.583-1.816-.423-1.201-.9-2.383-1.401-3.553-.941-2.368-2.051-4.664-3.088-6.996 1.23 2.237 2.293 4.561 3.318 6.9.478 1.185.93 2.38 1.329 3.595.389 1.212.773 2.45.848 3.729z"/><path d="m179.589 577.719c-.653-1.049-1.338-2.076-2.015-3.108l-2.052-3.082c-1.361-2.061-2.761-4.094-4.102-6.171 1.511 1.957 2.923 3.985 4.31 6.032 1.355 2.065 2.709 4.139 3.859 6.329z"/><path d="m192.933 552.484c-2.281-.208-4.514-.77-6.712-1.396-2.19-.662-4.35-1.431-6.435-2.37 2.161.745 4.314 1.498 6.506 2.131 1.09.334 2.192.627 3.298.906 1.106.273 2.217.537 3.343.729z"/><path d="m193.035 557.405c-2.471-.398-4.887-1.089-7.254-1.899-2.355-.844-4.669-1.832-6.825-3.104 2.25 1.088 4.551 2.055 6.908 2.869 1.173.423 2.363.796 3.558 1.154 1.196.352 2.397.692 3.613.98z"/><path d="m191.333 562.547c-1.272-.269-2.513-.672-3.728-1.133-1.218-.455-2.417-.962-3.598-1.508-2.329-1.155-4.615-2.407-6.752-3.887 2.25 1.296 4.499 2.589 6.86 3.661 1.164.568 2.346 1.1 3.55 1.579 1.207.469 2.421.927 3.668 1.288z"/><path d="m188.818 567.968c-1.243-.314-2.385-.926-3.502-1.538-1.117-.621-2.206-1.291-3.279-1.983-2.104-1.448-4.185-2.931-6.149-4.562 2.094 1.458 4.139 2.982 6.287 4.354 1.054.714 2.125 1.405 3.223 2.047.549.321 1.107.629 1.674.916.565.291 1.135.584 1.746.766z"/><path d="m184.479 573.681c-1.935-1.543-3.715-3.264-5.488-4.985-1.748-1.748-3.473-3.518-5.11-5.371 1.786 1.71 3.52 3.468 5.286 5.193l2.639 2.598c.886.859 1.765 1.726 2.673 2.565z"/><path d="m153.512 563.342c2.477-.31 4.879-1.06 7.16-2.045 2.276-1.004 4.412-2.322 6.313-3.919 1.921-1.574 3.608-3.434 5.008-5.489 1.397-2.059 2.521-4.3 3.412-6.63-.799 2.363-1.875 4.645-3.274 6.723-1.386 2.083-3.063 3.979-4.987 5.588-1.938 1.591-4.106 2.896-6.407 3.88-2.298.982-4.736 1.679-7.225 1.892z"/></g><g stroke="#7c431c" stroke-miterlimit="10"><path d="m130.896 226.513s2.153 7.103 13.807 6.298v4.119h-9.091c-.001 0-7.573-3.355-4.716-10.417z" fill="#ecb735" stroke-width=".5"/><path d="m160.598 226.513s-2.154 7.103-13.806 6.298v4.119h9.089s7.573-3.355 4.717-10.417z" fill="#ecb735" stroke-width=".5"/><path d="m168.864 267.392c1.915.136 3.311-2.139 1.482-6.217-.006-.191-16.394-26.312-18.003-31.68-.582-1.942-3.626-2.905-6.655-2.892-3.028-.013-6.073.95-6.655 2.892-1.61 5.368-17.996 31.489-18.002 31.68-1.831 4.079-.434 6.354 1.48 6.217.725-.051-2.102 5.633 3.056 3.859 1.544-.531-1.206 4.789 4.586 2.88.537-.176-.568 5.424 5.392 2.58 2.339-1.117 1.775 5.155 6.999 1.573.481-.33.835 1.866 3.144 1.866 2.338 0 2.662-2.196 3.144-1.866 5.224 3.582 4.661-2.69 6.998-1.573 5.96 2.845 4.855-2.756 5.394-2.58 5.791 1.909 3.041-3.411 4.585-2.88 5.158 1.774 2.333-3.911 3.055-3.859z" fill="#fcd30b" stroke-width=".25"/><path d="m168.864 267.392c1.915.136 3.311-2.139 1.482-6.217-.006-.191-16.394-26.312-18.003-31.68-.582-1.942-3.626-2.905-6.655-2.892-3.028-.013-6.073.95-6.655 2.892-1.61 5.368-17.996 31.489-18.002 31.68-1.831 4.079-.434 6.354 1.48 6.217.725-.051-2.102 5.633 3.056 3.859 1.544-.531-1.206 4.789 4.586 2.88.537-.176-.568 5.424 5.392 2.58 2.339-1.117 1.775 5.155 6.999 1.573.481-.33.835 1.866 3.144 1.866 2.338 0 2.662-2.196 3.144-1.866 5.224 3.582 4.661-2.69 6.998-1.573 5.96 2.845 4.855-2.756 5.394-2.58 5.791 1.909 3.041-3.411 4.585-2.88 5.158 1.774 2.333-3.911 3.055-3.859z" fill="#ecb735" stroke-width=".5"/></g><g fill="#7c431c"><path d="m122.512 267.392c.747-.865 1.435-1.776 2.114-2.691.674-.919 1.337-1.847 1.966-2.798 1.287-1.883 2.468-3.835 3.66-5.786-1.01 2.052-2.185 4.021-3.453 5.926-1.296 1.881-2.661 3.735-4.287 5.349z"/><path d="m125.568 271.25c.753-.997 1.464-2.024 2.162-3.058.694-1.037 1.372-2.083 2.008-3.156 1.299-2.128 2.453-4.34 3.498-6.611-.854 2.353-2.005 4.59-3.284 6.74-1.311 2.133-2.733 4.205-4.384 6.085z"/><path d="m130.154 274.13c.731-1.073 1.376-2.198 2.009-3.328.623-1.136 1.196-2.298 1.732-3.478 1.137-2.33 2.047-4.759 2.957-7.191-.706 2.501-1.671 4.923-2.731 7.296-.563 1.172-1.165 2.327-1.814 3.453-.643 1.131-1.343 2.232-2.153 3.248z"/><path d="m135.546 276.71c.355-.53.608-1.119.858-1.703.254-.583.489-1.175.708-1.772.438-1.195.823-2.41 1.182-3.631.783-2.425 1.389-4.902 2.075-7.36-.476 2.508-1.136 4.977-1.836 7.433-.387 1.218-.799 2.428-1.266 3.618-.472 1.183-.964 2.381-1.721 3.415z"/><path d="m142.545 278.283c.165-1.225.291-2.453.426-3.68l.38-3.684c.262-2.455.479-4.915.767-7.37-.082 2.471-.285 4.935-.519 7.396-.269 2.455-.546 4.917-1.054 7.338z"/><path d="m168.904 267.324c-1.626-1.613-2.991-3.468-4.287-5.351-1.267-1.905-2.442-3.874-3.452-5.925 1.191 1.951 2.373 3.903 3.659 5.786.628.951 1.292 1.879 1.965 2.798.681.916 1.368 1.827 2.115 2.692z"/><path d="m165.849 271.183c-1.651-1.881-3.073-3.952-4.383-6.084-1.279-2.15-2.431-4.388-3.285-6.74 1.045 2.271 2.199 4.482 3.499 6.611.636 1.072 1.314 2.119 2.008 3.155.697 1.034 1.407 2.061 2.161 3.058z"/><path d="m161.261 274.064c-.81-1.017-1.51-2.118-2.153-3.247-.649-1.127-1.25-2.281-1.813-3.454-1.06-2.374-2.025-4.795-2.73-7.297.91 2.432 1.82 4.861 2.957 7.191.536 1.179 1.109 2.341 1.732 3.478.631 1.13 1.276 2.256 2.007 3.329z"/><path d="m155.87 276.642c-.757-1.034-1.25-2.232-1.72-3.416-.466-1.19-.879-2.4-1.265-3.618-.7-2.456-1.36-4.924-1.836-7.433.686 2.458 1.292 4.935 2.075 7.36.358 1.222.743 2.437 1.181 3.631.219.598.453 1.189.708 1.772.249.585.501 1.174.857 1.704z"/><path d="m148.886 278.283c-.509-2.421-.786-4.882-1.057-7.338-.234-2.46-.438-4.924-.519-7.396.289 2.456.505 4.915.768 7.37l.381 3.684c.136 1.227.262 2.456.427 3.68z"/><path d="m131.595 250.592c2.107 1.338 4.437 2.29 6.822 2.983 2.394.675 4.88 1.019 7.364.998 2.483.011 4.968-.35 7.357-1.042 2.388-.697 4.682-1.71 6.853-2.938-2.121 1.313-4.404 2.387-6.806 3.098-2.396.724-4.896 1.117-7.403 1.133-2.508-.007-5.01-.382-7.411-1.088-2.398-.708-4.721-1.723-6.776-3.144z"/></g><g stroke="#7c431c" stroke-miterlimit="10"><path d="m654.621 122.668s-7.422-.008-10.02-11.397l-3.943 1.19 2.627 8.704s5.402 6.279 11.336 1.503z" fill="#ecb735" stroke-width=".5"/><path d="m646.037 94.234s-6.178 4.114-2.039 15.037l-3.943 1.191-2.627-8.702c-.001 0 1.023-8.219 8.609-7.526z" fill="#ecb735" stroke-width=".5"/><path d="m604.513 98.135c-.684-1.794 1.09-3.787 5.523-3.216.186-.049 29.928 8.089 35.531 8.078 2.027-.004 3.828 2.632 4.691 5.535.887 2.895.846 6.088-.846 7.207-4.672 3.093-24.943 26.329-25.123 26.39-3.377 2.932-5.957 2.251-6.381.38-.16-.708-4.785 3.64-4.576-1.811.061-1.631-4.236 2.539-4.084-3.558.014-.565-5.029 2.112-4.027-4.417.393-2.562-5.449-.209-3.529-6.246.178-.556-2.027-.26-2.695-2.47-.676-2.238 1.334-3.183.879-3.549-4.939-3.965 1.229-5.239-.518-7.154-4.445-4.884 1.236-5.445.912-5.909-3.502-4.992 2.387-3.897 1.432-5.222-3.191-4.423 3.069-3.361 2.811-4.038z" fill="#fcd30b" stroke-width=".25"/><path d="m604.513 98.135c-.684-1.794 1.09-3.787 5.523-3.216.186-.049 29.928 8.089 35.531 8.078 2.027-.004 3.828 2.632 4.691 5.535.887 2.895.846 6.088-.846 7.207-4.672 3.093-24.943 26.329-25.123 26.39-3.377 2.932-5.957 2.251-6.381.38-.16-.708-4.785 3.64-4.576-1.811.061-1.631-4.236 2.539-4.084-3.558.014-.565-5.029 2.112-4.027-4.417.393-2.562-5.449-.209-3.529-6.246.178-.556-2.027-.26-2.695-2.47-.676-2.238 1.334-3.183.879-3.549-4.939-3.965 1.229-5.239-.518-7.154-4.445-4.884 1.236-5.445.912-5.909-3.502-4.992 2.387-3.897 1.432-5.222-3.191-4.423 3.069-3.361 2.811-4.038z" fill="#ecb735" stroke-width=".5"/></g><g fill="#7c431c"><path d="m617.91 142.509c1.074-2.023 2.455-3.866 3.883-5.65 1.459-1.764 3.002-3.458 4.676-5.018-1.523 1.705-3.051 3.399-4.482 5.176-.729.876-1.426 1.779-2.111 2.691-.679.915-1.353 1.836-1.966 2.801z"/><path d="m613.333 140.699c1.322-2.124 2.895-4.084 4.557-5.955 1.689-1.846 3.498-3.595 5.504-5.092-1.873 1.656-3.656 3.4-5.318 5.259-.842.919-1.648 1.87-2.441 2.834-.788.967-1.565 1.944-2.302 2.954z"/><path d="m609.25 137.141c.74-1.069 1.592-2.058 2.486-3 .891-.947 1.822-1.856 2.781-2.734 1.967-1.701 4.006-3.325 6.195-4.724-2.064 1.574-4.127 3.148-6.029 4.91-.973.854-1.92 1.739-2.828 2.663-.898.932-1.789 1.875-2.605 2.885z"/><path d="m605.222 132.725c.771-1.024 1.777-1.842 2.773-2.634 1.004-.79 2.043-1.535 3.098-2.257 2.148-1.38 4.32-2.725 6.584-3.906-2.154 1.367-4.35 2.663-6.445 4.113-1.066.696-2.117 1.416-3.135 2.181-.51.382-1.008.778-1.492 1.189-.486.408-.979.82-1.383 1.314z"/><path d="m601.693 126.479c2.172-1.187 4.447-2.163 6.721-3.131 2.287-.935 4.588-1.842 6.93-2.634-2.268.986-4.559 1.904-6.834 2.864l-3.416 1.429c-1.136.485-2.276.96-3.401 1.472z"/><path d="m604.566 98.078c1.045.465 2.115.859 3.188 1.246 1.076.38 2.154.747 3.248 1.073 2.174.688 4.385 1.254 6.596 1.831-2.256-.374-4.48-.93-6.67-1.592-2.178-.698-4.346-1.468-6.362-2.558z"/><path d="m601.755 102.118c1.172.433 2.359.816 3.551 1.186 1.193.365 2.391.711 3.602 1.01 2.414.628 4.865 1.094 7.34 1.438-2.498-.138-4.973-.594-7.4-1.197-2.421-.637-4.815-1.4-7.093-2.437z"/><path d="m600.324 107.342c1.238.39 2.502.682 3.766.961 1.268.267 2.547.481 3.83.652 2.559.415 5.148.584 7.738.752-2.598.048-5.195-.177-7.773-.505-1.285-.2-2.564-.442-3.83-.738-1.268-.289-2.524-.64-3.731-1.122z"/><path d="m599.414 113.249c.609.187 1.246.259 1.877.329.633.075 1.266.128 1.902.165 1.27.074 2.543.092 3.816.082 2.549.049 5.094-.087 7.646-.141-2.539.269-5.094.351-7.646.391-1.277-.018-2.555-.063-3.828-.166-1.269-.109-2.558-.234-3.767-.66z"/><path d="m599.861 120.408c1.219-.196 2.432-.43 3.646-.654l3.637-.7c2.426-.458 4.842-.962 7.277-1.396-2.391.636-4.807 1.154-7.23 1.641-2.43.451-4.865.897-7.33 1.109z"/><path d="m631.369 128.958c-1.955-1.557-3.598-3.487-4.967-5.579-1.371-2.094-2.451-4.381-3.184-6.78-.711-2.405-1.057-4.913-1.057-7.415-.012-2.505.355-5 1-7.411-.549 2.433-.855 4.921-.832 7.41.025 2.487.398 4.97 1.127 7.344.699 2.384 1.746 4.665 3.084 6.762 1.354 2.084 2.938 4.04 4.829 5.669z"/></g><g stroke="#7c431c" stroke-miterlimit="10"><path d="m528.026 545.224s-6.184 4.104-14.657-3.937l-2.622 3.175 7.009 5.789c-.001 0 7.976 2.237 10.27-5.027z" fill="#ecb735" stroke-width=".5"/><path d="m505.125 526.308s-2.862 6.848 6.633 13.648l-2.622 3.176-7.008-5.789s-3.703-7.41 2.997-11.035z" fill="#ecb735" stroke-width=".5"/><path d="m472.718 552.561c-1.563-1.114-1.189-3.757 2.817-5.737.126-.143 29.396-9.846 34.056-12.96 1.685-1.127 4.646.069 6.972 2.009 2.344 1.918 4.077 4.599 3.29 6.467-2.178 5.165-6.18 35.738-6.296 35.89-1.187 4.311-3.712 5.175-5.101 3.852-.525-.502-1.967 5.681-4.813 1.028-.853-1.394-2.12 4.46-5.37-.7-.302-.478-3.016 4.544-5.801-1.444-1.092-2.351-4.65 2.844-6.396-3.245-.162-.562-1.833.908-3.613-.563-1.803-1.488-.653-3.39-1.234-3.441-6.309-.564-1.881-5.042-4.395-5.669-6.406-1.604-1.988-5.217-2.516-5.424-5.68-2.217-.172-4.566-1.701-5.141-5.107-1.918.691-4.501.101-4.922z" fill="#fcd30b" stroke-width=".25"/><path d="m472.718 552.561c-1.563-1.114-1.189-3.757 2.817-5.737.126-.143 29.396-9.846 34.056-12.96 1.685-1.127 4.646.069 6.972 2.009 2.344 1.918 4.077 4.599 3.29 6.467-2.178 5.165-6.18 35.738-6.296 35.89-1.187 4.311-3.712 5.175-5.101 3.852-.525-.502-1.967 5.681-4.813 1.028-.853-1.394-2.12 4.46-5.37-.7-.302-.478-3.016 4.544-5.801-1.444-1.092-2.351-4.65 2.844-6.396-3.245-.162-.562-1.833.908-3.613-.563-1.803-1.488-.653-3.39-1.234-3.441-6.309-.564-1.881-5.042-4.395-5.669-6.406-1.604-1.988-5.217-2.516-5.424-5.68-2.217-.172-4.566-1.701-5.141-5.107-1.918.691-4.501.101-4.922z" fill="#ecb735" stroke-width=".5"/></g><g fill="#7c431c"><path d="m508.457 582.081c-.227-2.279-.098-4.578.102-6.855.236-2.276.584-4.542 1.112-6.768-.323 2.264-.656 4.521-.863 6.792-.122 1.134-.201 2.271-.267 3.409-.059 1.138-.11 2.279-.084 3.422z"/><path d="m503.643 583.109c-.075-2.502.147-5.005.495-7.482.385-2.473.918-4.933 1.761-7.289-.644 2.415-1.159 4.857-1.514 7.325-.193 1.232-.335 2.471-.462 3.712-.119 1.241-.226 2.485-.28 3.734z"/><path d="m498.273 582.409c.023-1.3.185-2.595.407-3.875.218-1.281.489-2.555.801-3.816.694-2.506 1.492-4.987 2.541-7.365-.847 2.454-1.691 4.907-2.3 7.428-.338 1.25-.635 2.512-.879 3.783-.23 1.273-.451 2.552-.57 3.845z"/><path d="m492.472 580.964c.075-1.279.459-2.518.85-3.729.398-1.215.852-2.41 1.328-3.595 1.025-2.34 2.088-4.663 3.318-6.9-1.037 2.332-2.146 4.628-3.088 6.996-.502 1.171-.979 2.352-1.402 3.553-.211.6-.407 1.205-.582 1.816-.18.609-.359 1.225-.424 1.859z"/><path d="m486.076 577.719c1.149-2.19 2.504-4.265 3.859-6.329 1.387-2.046 2.799-4.075 4.31-6.032-1.341 2.077-2.741 4.11-4.103 6.171l-2.053 3.082c-.675 1.032-1.361 2.059-2.013 3.108z"/><path d="m472.732 552.484c1.126-.191 2.236-.456 3.344-.729 1.105-.279 2.207-.572 3.297-.906 2.191-.633 4.346-1.386 6.506-2.131-2.085.938-4.244 1.708-6.435 2.37-2.198.626-4.431 1.188-6.712 1.396z"/><path d="m472.629 557.405c1.216-.289 2.417-.628 3.614-.98 1.194-.357 2.385-.731 3.557-1.154 2.357-.814 4.658-1.781 6.908-2.869-2.155 1.272-4.47 2.261-6.824 3.104-2.368.81-4.784 1.5-7.255 1.899z"/><path d="m474.332 562.547c1.247-.361 2.461-.819 3.668-1.287 1.204-.479 2.387-1.011 3.551-1.578 2.359-1.073 4.609-2.366 6.859-3.662-2.137 1.479-4.424 2.731-6.752 3.887-1.182.546-2.38 1.053-3.598 1.508-1.215.46-2.457.864-3.728 1.132z"/><path d="m476.847 567.968c.611-.183 1.181-.476 1.745-.767.567-.287 1.125-.595 1.675-.916 1.098-.642 2.168-1.333 3.223-2.047 2.148-1.371 4.193-2.895 6.287-4.354-1.965 1.631-4.045 3.113-6.148 4.562-1.074.692-2.162 1.362-3.279 1.983-1.118.613-2.261 1.225-3.503 1.539z"/><path d="m481.186 573.681c.907-.839 1.786-1.706 2.673-2.565l2.639-2.598c1.767-1.726 3.5-3.484 5.286-5.193-1.637 1.854-3.362 3.623-5.11 5.371-1.772 1.721-3.553 3.442-5.488 4.985z"/><path d="m512.153 563.342c-2.489-.213-4.927-.91-7.226-1.893-2.301-.984-4.469-2.289-6.406-3.88-1.924-1.609-3.602-3.505-4.987-5.588-1.399-2.078-2.476-4.359-3.274-6.723.892 2.329 2.015 4.571 3.412 6.63 1.4 2.056 3.087 3.915 5.008 5.488 1.902 1.598 4.038 2.916 6.314 3.92 2.279.987 4.681 1.737 7.159 2.046z"/></g><g stroke="#7c431c" stroke-miterlimit="10"><path d="m534.769 226.513s-2.153 7.103-13.807 6.298v4.119h9.091s7.573-3.355 4.716-10.417z" fill="#ecb735" stroke-width=".5"/><path d="m505.067 226.513s2.153 7.103 13.806 6.298v4.119h-9.089s-7.574-3.355-4.717-10.417z" fill="#ecb735" stroke-width=".5"/><path d="m496.8 267.391c-1.915.137-3.311-2.139-1.482-6.217.007-.191 16.395-26.312 18.004-31.68.581-1.942 3.626-2.905 6.654-2.892 3.028-.013 6.072.95 6.654 2.892 1.611 5.368 17.996 31.488 18.002 31.68 1.831 4.078.434 6.354-1.479 6.217-.725-.051 2.102 5.634-3.056 3.859-1.545-.531 1.205 4.789-4.586 2.88-.537-.177.567 5.425-5.393 2.579-2.339-1.116-1.775 5.156-6.999 1.574-.481-.33-.835 1.865-3.144 1.865-2.338 0-2.662-2.195-3.144-1.865-5.224 3.582-4.661-2.69-6.998-1.574-5.96 2.846-4.855-2.756-5.394-2.579-5.791 1.909-3.041-3.411-4.585-2.88-5.157 1.775-2.331-3.91-3.054-3.859z" fill="#fcd30b" stroke-width=".25"/><path d="m496.8 267.391c-1.915.137-3.311-2.139-1.482-6.217.007-.191 16.395-26.312 18.004-31.68.581-1.942 3.626-2.905 6.654-2.892 3.028-.013 6.072.95 6.654 2.892 1.611 5.368 17.996 31.488 18.002 31.68 1.831 4.078.434 6.354-1.479 6.217-.725-.051 2.102 5.634-3.056 3.859-1.545-.531 1.205 4.789-4.586 2.88-.537-.177.567 5.425-5.393 2.579-2.339-1.116-1.775 5.156-6.999 1.574-.481-.33-.835 1.865-3.144 1.865-2.338 0-2.662-2.195-3.144-1.865-5.224 3.582-4.661-2.69-6.998-1.574-5.96 2.846-4.855-2.756-5.394-2.579-5.791 1.909-3.041-3.411-4.585-2.88-5.157 1.775-2.331-3.91-3.054-3.859z" fill="#ecb735" stroke-width=".5"/></g><g fill="#7c431c"><path d="m543.153 267.391c-1.626-1.613-2.991-3.467-4.288-5.35-1.267-1.905-2.441-3.874-3.451-5.926 1.191 1.951 2.372 3.902 3.659 5.786.628.951 1.291 1.879 1.966 2.798.679.916 1.367 1.828 2.114 2.692z"/><path d="m540.097 271.25c-1.651-1.881-3.074-3.952-4.384-6.084-1.278-2.15-2.431-4.388-3.284-6.74 1.045 2.271 2.199 4.482 3.498 6.611.637 1.072 1.314 2.119 2.008 3.155.697 1.035 1.408 2.061 2.162 3.058z"/><path d="m535.511 274.13c-.811-1.017-1.51-2.118-2.154-3.247-.648-1.127-1.25-2.281-1.813-3.453-1.06-2.374-2.025-4.796-2.731-7.297.91 2.432 1.82 4.861 2.957 7.191.536 1.179 1.109 2.341 1.732 3.478.632 1.13 1.278 2.255 2.009 3.328z"/><path d="m530.119 276.709c-.758-1.034-1.25-2.232-1.721-3.416-.466-1.189-.879-2.399-1.266-3.617-.699-2.456-1.359-4.924-1.836-7.433.687 2.458 1.293 4.935 2.075 7.36.358 1.222.743 2.436 1.182 3.631.219.598.453 1.189.708 1.772.25.584.502 1.173.858 1.703z"/><path d="m523.12 278.284c-.509-2.422-.785-4.883-1.055-7.339-.234-2.46-.438-4.924-.519-7.396.288 2.455.504 4.915.767 7.37l.38 3.685c.137 1.227.262 2.455.427 3.68z"/><path d="m496.761 267.325c.746-.865 1.434-1.776 2.113-2.691.674-.92 1.338-1.848 1.965-2.799 1.287-1.884 2.469-3.835 3.66-5.786-1.01 2.052-2.186 4.021-3.452 5.926-1.296 1.882-2.661 3.736-4.286 5.35z"/><path d="m499.816 271.183c.754-.997 1.464-2.024 2.162-3.058.693-1.036 1.371-2.083 2.008-3.155 1.299-2.129 2.453-4.341 3.498-6.611-.854 2.353-2.006 4.59-3.285 6.74-1.31 2.132-2.733 4.203-4.383 6.084z"/><path d="m504.404 274.064c.73-1.073 1.375-2.198 2.008-3.328.623-1.137 1.197-2.299 1.732-3.478 1.137-2.331 2.047-4.76 2.957-7.191-.706 2.501-1.672 4.923-2.73 7.297-.564 1.172-1.165 2.326-1.814 3.453-.643 1.129-1.344 2.23-2.153 3.247z"/><path d="m509.794 276.642c.355-.53.608-1.119.858-1.702.255-.583.488-1.175.708-1.772.438-1.195.822-2.409 1.181-3.632.782-2.425 1.389-4.901 2.075-7.359-.477 2.509-1.137 4.977-1.836 7.433-.387 1.218-.8 2.427-1.266 3.617-.47 1.183-.962 2.381-1.72 3.415z"/><path d="m516.779 278.284c.164-1.225.291-2.453.427-3.68l.381-3.684c.263-2.456.479-4.916.768-7.371-.081 2.472-.284 4.936-.519 7.396-.272 2.456-.548 4.917-1.057 7.339z"/><path d="m534.07 250.592c-2.056 1.421-4.379 2.436-6.776 3.142-2.401.706-4.903 1.081-7.411 1.089-2.508-.016-5.008-.409-7.402-1.133-2.402-.711-4.686-1.785-6.807-3.098 2.172 1.229 4.465 2.241 6.854 2.938 2.389.692 4.873 1.053 7.356 1.042 2.483.021 4.97-.322 7.364-.998 2.384-.692 4.714-1.643 6.822-2.982z"/></g><g><g stroke="#7c431c" stroke-miterlimit="10" stroke-width=".25"><g fill="#faf4b2"><path d="m276.889 194.196s-9.5-4.833-9.333 14.333c0 0-17.333-14-23.167-13s-15.833 18.333-15.833 18.333-4 12.5 3 22.5c0 0 2.333-7.167 1.035-8.916-.618-.5-2.201-.917-2.201-.917s-2.417-4.5 3.083-14.5 11.917-9.667 11.917-9.667 4.5.457 12 12.645 15.833 5.522 15.833 5.522l8.167-14.167z"/><path d="m391.257 216.706s9.578 11.61 6.131 30.324 14 19.333 14 19.333 12.668 28.333 11.334 31.333-2.667 2.667-2.667 2.667-1.166 6.167-1.333 7-3.5 2.167-3.5 2.167l.833 3.5-7.167-.667s-1.167-3 3-5.833 3.834-8.667 3.834-8.667 2.832-2.666-9.834-25.333c0 0-11.166-5.5-17.333-12.667s2.702-43.157 2.702-43.157z"/><path d="m285.381 132.923s-1.076-5.477 2.424-10.977c0 0 4.875 4.125 5.75 10.25s-1.625 3.625-1.625 3.625z"/><path d="m403.055 286.696c-1-7.5 1.5-10 1.5-10s-16.5-13.167-15.5-23.5c0 0 14.167-25.667-1.5-41.167s-29-13.333-29-13.333l-48.667-14.667s6.333-45.333-16.833-51.833h-5.5s-30.667 10.333-34.667 10.333-2 4-2 4l.667 1.667s-8.667 6.167 3.5 4.167c0 0-2.333 5.5 2 4s6-5.667 6-5.667 9.871 6.636 17.938 4.134l1.229 6.866s-19.667 24.667-4.167 41.333c0 0-4.166 11.667-3.833 13.667 0 0-19.167-4.833-27.833-5.5s-30.167 16.833-30.167 16.833-7.667 5.583-4.834 10.75c0 0 4.054-2.389 5.583-3.667 1.306-1.091-.569-3.288.5-3.917 0 0 10.083-10.083 23.917-13 0 0 4.349-.333 7.174 1.333 0 0 15.159 9.333 18.492 11 0 0 28.5 18.333 78 14 0 0 22.833 15 25.333 18.167s9.5 6 9.5 6 14.666 10.667 16 12 5.334 26.5 5.334 26.5-6.5 2-8.5 7.667c0 0-2.416 3.333 7.166 2 0 0-1.048-1.078-.249-3.333.234-.662 1.83.338 2.5-1.083.667-1.417 2.894-3.829 3.749-4.417.001.001-1.832-13.833-2.832-21.333z"/></g><path d="m285.225 134.363-1.836-5.188s10.667-1.562 15.167 1.23 9.769 11.648 9.769 11.648 5.227 18.31 5.562 22.144 0 13.167 0 13.167l-4.671.922s-1.993-26.962-7.993-34.859-8.172-9.713-8.172-9.713z" fill="#cba868"/><path d="m287.785 134.483s-1.076-5.477 2.424-10.977c0 0 4.875 4.125 5.75 10.25s-1.625 3.625-1.625 3.625z" fill="#faf4b2"/></g><path d="m358.055 200.446s35.621 6.888 32 29.22-7.25 23.28-7.25 23.28h-4.75s5.25-19.625 1.5-27.938 4.5 0 4.5 0-1-14.82-18.75-16.566c0 0-5.75.773-5.25 8.264s-2 8.303-2 8.303-4.379 17.831 1.75 25.881c0 0-8.25-3.194-12.5-12.444 0 0-32.5-.75-44.25-6.5s-15.25-20-15.25-20-1.5-5 4.25-14.5c1.357-2.243-3.439-5.229-3.667-9.35-.76-13.775 1.094-33.233 1.094-33.233l6.495 28.685 13.077 2.899z" fill="#d8d0a5"/><path d="m385.675 210.248s12.047-3.385 21.38-.885 52.667 38.667 52.667 38.667-14.5 4.333-23 2.333-17.334-18.667-17.334-18.667-6-.333-15.5-10.5c-4.573-4.895-13.175-5.829-16.499-7.333-3.581-1.62-1.714-3.615-1.714-3.615z" fill="#cba868" stroke="#7c431c" stroke-miterlimit="10" stroke-width=".25"/><path d="m260.174 140.863s3.381 3.833 2.881 9.833l2.248 1.313s2.106-5.516-2.228-11.987z" fill="#7c431c"/><path d="m276.556 170.907s11.1 6.364 33.966 5.827v1.958s-14.088 2.44-34.944-5.694z" fill="#7c431c"/><path d="m263.51 150.962s-9.077 13.169 12.067 22.035" fill="none" stroke="#7c431c" stroke-miterlimit="10"/><path d="m265.303 152.01s-4.472 11.482 12.125 17.198" fill="none" stroke="#7c431c" stroke-miterlimit="10"/><path d="m276.918 140.495s-1.137 1.495 0 2.932l3.387-1.23z" fill="#795421"/><g stroke-miterlimit="10"><path d="m274.805 139.696s4 1.375 5.5 2.5c0 0-4.083 1.342-5.5 2.213" fill="none" stroke="#a46d38" stroke-width=".5"/><g stroke-width=".25"><path d="m354.161 199.333c-2.605-1.804-46.772-11.237-46.772-11.237s-13.667 1.057-16.167 26.912c0 0 .26 1.7 3 3.566 0 0 4.442 3.567 14.709 7.388l-.032-.011s-7.349 11.747-9.347 16.246c0 0 4.169 1.832 6.169 2.166 0 0 7.217-12.582 9.192-16.374l-.083-.028c7.301 2.254 16.717 4.395 28.559 5.736 0 0 3.5 1.5 6.333-2.5s6.142-22.754 6.142-22.754.902-7.306-1.703-9.11z" fill="#d69829" stroke="#7c431c"/><path d="m348.888 212.53s-3.268 14-4.717 15.167-33.45-6-46.95-14.167c0 0-.917-1 0-3s5.833-13.5 9.333-18 42.333 11.375 42.333 11.375v8.625z" fill="#966834" stroke="#7c431c"/><path d="m324.063 144.409s-9.008 4.037-11.008 4.037 3 4.5 3 4.5-3 4 0 7.75 1.764 5.5 1.764 5.5l2.486 4.75 7.75 1.5 6.675-4.5z" fill="#eec382" stroke="#966834"/></g></g><path d="m322.055 146.946-3.109 2.25 3.109 3.5s-2.719 3.713-3.109 5.731h3.734v1.894l-2.5 2.575 2.5 1.425v2.875l6.5-4.426-4.375-15.824z" fill="#d4ab7a"/><g stroke-miterlimit="10" stroke-width=".25"><path d="m348.388 180.483.937-4.31 1.23-5.661-7.875-31.1-10.207-1.293.082-.424c-.75-3.875-5.375-16.875-5.375-16.875 4.625-1.875 13.25-8.625 13.25-8.625l-1.459-3.5c-5.084 1-19.416 9.5-19.416 9.5-2.5 7.25 4.508 26.213 4.508 26.213s4.993 26.836 6.492 30.645v5.429l-25.667 14.38s-6.167 2.061-6.167 13.58c0 11.087-11.093 31.92-11.093 31.92s-9.201 7.555-10.201 10.527l10.201-3.694 7.426-1.833.5-5.667s3.147-6.174 7.888-13.333c4.261-6.435 11.904-12.167 9.279-18.833 0 0 30.5 3.167 41.5-5s-5.833-22.046-5.833-22.046z" fill="#a39b7c" stroke="#6d4a28"/><path d="m340.43 112.196s6.5.25 10.125-.875.875-4.625.875-4.625l-2.625-1.375-.25 2.5-1.688.868s-3.688 1.743-4.438 0-3.459.007-3.459.007z" fill="#e1aa83" stroke="#a15733"/><path d="m344.18 105.321s-2.514 2.315-1.344 3.375c1.469 1.331 5.491-1.088 5.491-1.088s-.772-3.787-4.147-2.287z" fill="#e4922b" stroke="#c25d28"/><path d="m352.429 106.94s.376-2.494 1.876-2.744 1.875 6.625 1.875 6.625-1.127 6.125-3.751 4.875 0-8.756 0-8.756z" fill="#e4922b" stroke="#c25d28"/><g stroke="#7f6644"><path d="m356.18 109.446s26.125 10.875 45.875 32.75c0 0-18.48-15.557-46.428-29.341z" fill="#c6b095"/><g fill="#f2eba1"><path d="m331.671 139.008s-7.656 4.008-8.053 5.598 4.943 20.423 4.943 20.423l1.938 12.266 18.365.989.215-5.839-4.909-28.037-4.175-5.401h-8.324z"/><path d="m308.011 191.53s-3.79.914-3.456 2.124 10.167 9.543 10.167 9.543 1.834 10.123 1.167 11.812 12.666 2.855 17 3.522 22.739-6.5 22.739-6.5 5.543-13.317.89-21.654-8.129-9.893-8.129-9.893l-14.666-1.62z"/></g></g></g><path d="m321.222 215.008s18.667 5.522 32.667-7.312c0 0 .999-12.333-.834-15.167l-.788 7.833-2.712-1.645v2.645l-2.166-2.645-.5 3.478-2.718-1.833-.548 2.833-3.568-1.833-.166 2.997-4-1.83 1.803 9.167-3.613-3.823-.023 4.99-2.6-2.5-.955 2.167-4.611-2.333-1.826 3.167-2.841-.833v2.477z" fill="#d8cf95"/><g stroke-miterlimit="10" stroke-width=".25"><path d="m348.388 180.483s-5.665.12-7.499 0-1.622-2.198-1.622-2.198l9.813-.989z" fill="#b6b272" stroke="#7f6644"/><path d="m336.741 174.971s14.025 1.994 17.42-1.974 0-5.801 0-5.801h-5.272l-12.646 2.011z" fill="#a39b7c" stroke="#6d4a28"/><path d="m343.055 137.696s21.75 3.75 26.75 44c0 0-4 10-13.375 5s-3.375-15-3.375-15-17.25-10.25-18.25-21.75 8.25-12.25 8.25-12.25z" fill="#eec382" stroke="#966834"/></g><path d="m345.318 139.696s20.177 11.967 22.237 40.732c0 0-2.198 7.395-8.75 4.902s-2.369-8.652-2.369-8.652 5.369-2.959 4.119-6.221-15.237-13.836-15.237-13.836l13.987 9.294v-3.146l-15.134-11.824 12.009 7.481v-3.481c0 .001-13.349-9.749-10.862-15.249z" fill="#d4ab7a"/><path d="m339.943 199.188c1.387.843 3.314-.329 3.518-4.102.066-.146-2.156-26.123-1.293-30.781.313-1.685-1.604-3.585-3.885-4.746-2.273-1.18-4.936-1.633-6.121-.397-3.287 3.413-25.704 16.721-25.782 16.861-2.954 2.359-2.783 4.61-1.292 5.248.563.24-3.759 3.422.806 4.083 1.365.196-2.757 3.134 2.335 3.938.472.074-2.524 3.858 3.059 4.023 2.189.064-.66 4.563 4.655 3.889.487-.063-.094 1.725 1.642 2.618 1.759.904 2.852-.622 3.084-.189 2.544 4.713 4.545-.22 5.872 1.523 3.381 4.442 4.717-.194 5.052.146 3.617 3.673 3.605-1.391 4.559-.395 3.193 3.331 3.265-2.037 3.791-1.719z" fill="#ecb735" stroke="#7c431c" stroke-miterlimit="10" stroke-width=".25"/><g fill="#7c431c"><path d="m305.088 181.271c.894-.368 1.76-.792 2.624-1.22.861-.433 1.718-.874 2.557-1.348 1.696-.917 3.339-1.926 4.998-2.919-1.544 1.166-3.188 2.193-4.877 3.138-1.705.913-3.45 1.78-5.302 2.349z"/><path d="m305.894 185.354c.949-.465 1.877-.967 2.8-1.477.921-.514 1.835-1.039 2.727-1.6 1.8-1.097 3.522-2.312 5.196-3.603-1.541 1.451-3.272 2.69-5.065 3.815-1.811 1.096-3.683 2.104-5.658 2.865z"/><path d="m308.229 189.293c.962-.528 1.878-1.133 2.783-1.748.902-.621 1.79-1.261 2.649-1.939 1.74-1.33 3.383-2.781 5.016-4.249-1.488 1.617-3.133 3.088-4.863 4.446-1.75 1.327-3.577 2.586-5.585 3.49z"/><path d="m311.288 193.316c.923-.558 1.708-1.306 2.503-2.027.785-.735 1.553-1.489 2.295-2.268 1.509-1.536 2.943-3.144 4.419-4.719-1.318 1.71-2.747 3.332-4.24 4.893-.76.767-1.529 1.528-2.346 2.237-.82.698-1.66 1.403-2.631 1.884z"/><path d="m315.942 197.205c.591-.861 1.156-1.739 1.73-2.611l1.706-2.625c1.148-1.744 2.262-3.509 3.441-5.235-1.002 1.835-2.106 3.61-3.231 5.371-1.154 1.741-2.315 3.485-3.646 5.1z"/><path d="m339.996 199.152c-.613-1.838-.924-3.761-1.172-5.678-.213-1.923-.336-3.858-.285-5.792.158 1.927.291 3.85.533 5.762.104.958.242 1.912.391 2.864.154.952.314 1.903.533 2.844z"/><path d="m336.21 200.874c-.531-2.05-.801-4.158-.965-6.268-.129-2.112-.129-4.242.154-6.34-.076 2.113-.063 4.221.094 6.323.064 1.052.168 2.101.287 3.148.124 1.047.255 2.094.43 3.137z"/><path d="m331.644 201.266c-.432-2.159-.471-4.377-.41-6.572.098-2.197.338-4.39.785-6.541-.242 2.183-.467 4.362-.536 6.551-.052 1.093-.056 2.188-.036 3.283.026 1.093.068 2.189.197 3.279z"/><path d="m326.596 201.121c-.176-1.07-.09-2.163.001-3.236.101-1.077.271-2.145.453-3.21.401-2.123.888-4.228 1.512-6.295-.423 2.117-.896 4.219-1.267 6.34-.201 1.057-.367 2.12-.508 3.187-.123 1.065-.275 2.139-.191 3.214z"/><path d="m320.708 199.655c.539-2.022 1.281-3.981 2.025-5.933.777-1.94 1.577-3.871 2.485-5.755-.717 1.964-1.503 3.897-2.253 5.846l-1.142 2.915c-.373.975-.758 1.945-1.115 2.927z"/></g><g stroke-miterlimit="10"><path d="m339.58 136.563-.274 2.445-2.511-.02.651-2.425z" fill="#e1aa83" stroke="#a15733" stroke-width=".25"/><path d="m332.555 125.821s-1.768 6.925-.571 14.837c0 0 5.361.614 10.821-8.462l.818-.931c.001 0-6.943-5.756-11.068-5.444z" fill="#e1aa83" stroke="#a15733" stroke-width=".25"/><g fill="none" stroke="#6d4a28" stroke-width=".5"><path d="m336.243 129.696c.379.177 2.537.958 2.688 1.333"/><path d="m332.388 128.28 2.057.581"/></g></g><path d="m332.272 133.776s2.751-.834 4.085 3.583-.802.338-.802.338-1.7-2.337-3.283-2.42 0-1.501 0-1.501z" fill="#8e572b"/><ellipse cx="337.446" cy="131.03" fill="#6d4a28" rx=".651" ry=".625"/><ellipse cx="333.139" cy="129.175" fill="#6d4a28" rx=".583" ry=".521"/><g fill="#a39b7c" stroke="#6d4a28" stroke-miterlimit="10" stroke-width=".25"><path d="m345.152 126.946s4.605-3.625 1.98-8.25-5.601-4.625-5.601-4.625-3.593.317-1.649 3.5c0 0 3.664 4.042 5.27 9.375z"/><path d="m333.18 123.946s2.625-4.625 7.25-4.125 5.27 10.875 5.27 10.875z"/><path d="m332.555 125.821.625-1.875s6.789.875 12.52 7.25l-1.02 1s-6.125-5.875-12.125-6.375z"/></g><path d="m331.569 135.196s0 4.813.415 5.462c0 0 2.884.009 4.665-1.744 0 0-1.517-1.139-3.656-1.438 0 .002-.973-1.592-1.424-2.28z" fill="#8e572b"/><path d="m333.93 133.713-.791-.475 1.519-1.833" fill="none" stroke="#a15733" stroke-miterlimit="10" stroke-width=".25"/></g></g></svg>