<svg enable-background="new 0 0 600 375" viewBox="0 0 600 375" xmlns="http://www.w3.org/2000/svg"><g transform="matrix(2.6458334 0 0 2.6458334 68.346382 -756.474939)"><g transform="matrix(.37795276 0 0 .37795275 -12.533377 156.04183)"><path d="m-35.2 718.6 300-187.5-300-187.5z"/><path d="m-35.2 718.6 300-187.5 300 187.5z" fill="#ff0"/><path d="m-35.2 343.6h600l-300 187.5z" fill="#fff"/><path d="m564.8 343.6-300 187.5 300 187.5z" fill="#e72000"/></g><ellipse cx="87.7" cy="356.8" fill="#2ec8ff" rx="36.1" ry="35.4"/><ellipse cx="87.7" cy="356.8" fill="none" rx="36.1" ry="35.4" stroke="#000" stroke-linejoin="bevel" stroke-width=".9"/></g><path d="m356.5 223.6c1.1 1 2.1 2 3.2 2.9 1.3 1.1 1.6 2.5 1.4 4-.2 1.6-.7 3.3-1 4.9v.1c-1.3 2.7-2.5 5.3-3.9 8-.3.6-1 1.1-1.6 1.5-1.5 1-3.1 1.8-4.7 2.7-1.7.9-3.7 1-5.5 1.3-5.4.8-10.9.4-16.3.3-3.5-.1-7-.6-10.3-1.6-3.2-.9-6.4-1.6-9.3-3.1-.5-.3-.8-.2-1.3.2-1.4 1.4-3.4 1.9-5.3 2.4-2.3.6-4.6 1.1-7 1.6-.7.2-1.4.2-2.1.3-2.9.1-5.9.1-8.7-.8-1.2-.4-2.3-1-3.5-1.5-.4-.2-.6-.2-.9.1-1.7 1.6-3.7 2.6-5.9 3.2s-4.4.9-6.6 1.2c-4.6.6-9.2.3-13.8.2-2.9-.1-5.8-.3-8.5-1.5-1.6-.7-3.2-1.5-4.4-2.9-.5-.5-1.1-1-1.6-1.5-1.3-1.4-2.6-2.7-3.8-4.1-2.2-2.7-3.3-5.7-3.4-9.1-.1-1.4-.3-2.8-.4-4.2s-.2-2.7-.1-4.1c.2-2.1.6-4.2 1-6.2.5-2.2 1.3-4.2 2.6-6-1.8-1.9-2.3-4.1-1.9-6.5.3-2.1.6-4.2 1-6.3.3-2 1-3.9 1.9-5.8 1.1-2.3 2.3-4.5 4.1-6.4 1.3-1.3 2.4-2.6 3.6-4.1-.8-1.1-.5-2.3.5-3.4-2-.1-3.1-1.3-3.8-2.8-.8-1.6-.2-3.1.8-4.4-1.7-.3-2.5-1.3-2.8-2.7-.3-2 .5-3.4 2.5-4.3-1.4-.7-2.2-1.6-2.3-3-.2-1.5.7-2.4 2-3.1-1.5-.6-2.4-1.6-2.8-3-.3-1.1.2-2.1 1.1-2.8.8-.6 1.6-1 2.6-1.2-.7-.4-1.3-.8-1.8-1.2-1.5-1.2-1.6-2.9-.2-4.2.5-.5.9-1.1 1.3-1.6-.8-.9-1.4-1.9-1.6-3.2-.1-.7 0-1.4.6-1.9.5-.5.9-1 1.4-1.6-1.1-1.6-1.2-3.8 0-5 1-.9 2.4-1.8 3.5-1-.6-2-.3-3.7 1.7-4.9 2.2-1.2 4.1-.5 5.8.9.3-.8.5-1.7.8-2.4 1.1-2.5 4-2.1 5.5-.7.7-1.4 1.8-2.1 3.4-2.2 1.5 0 2.9.3 3.7 1.7 1.5-2.6 4.6-2.8 7.3-.5.8-.7 1.8-1.4 3-1.2 1.2.1 2.1.8 2.8 1.6 2.3-.9 3.5-.5 4 1.3 1.5-1 3.3-1.1 5-1.3 2.4-.3 4.9-.5 7.3-.7 2.1-.1 4.2-.2 6.2-.2 2.8 0 5.5.1 8.3.3 2.4.1 4.9.4 7.3.7 3 .5 4.5 2.6 5.4 5 .1.3.2.7.4 1.3.3-.6.4-1 .6-1.4 1.9-3.4 4.6-6 8.4-7.5 1.7-.7 3.4-1 5.1-.9 3.1.1 6.3.2 9.4.6 2.2.3 4.4 1.2 6.6 1.8 1.1.3 2.1.8 3.2 1.1.7.2 1.2.6 1.6 1.2 1 1.6 2.1 3.1 3 4.7 1.1 1.9 1.6 4 1.8 6.1.1 1 .3 2 .2 3-.2 1.9-.4 3.9-.7 5.8-.1 1-.4 1.9-.6 2.9-.1.5-.3.9-.5 1.4 1.3.8 1.8 2.1 1.8 3.6 0 1.4-.6 2.7-1.1 4-.1.2-.2.4-.3.5.5 0 1 0 1.5-.1 1.5-.3 2.7 1.6 2.2 2.8-.7 1.4-1.4 2.9-2.1 4.3.3 0 .7 0 1.1.1.7.1 1.1.5 1.1 1.2 0 .5 0 1.1-.2 1.5-.7 1.6-1.3 3.2-2.6 4.5-.1.1-.1.1-.1.1.6.5 1.2.9 1.6 1.4.6.9.4 1.9.3 2.9-.3 1.8-1.3 3.4-2.3 4.9-1.2 1.8-2.7 3.3-4.7 4.3-.2.1-.4.3-.6.5.3.2.5.4.7.6 1 .9 2.2 1.8 3.1 2.9 1.1 1.4 2 3 2.8 4.5 1 1.8 1.4 3.8 1.3 5.8-.2 2.9-.6 5.8-.8 8.7-.2 3-1.3 5.8-2.1 8.6-.6 2.1-1.9 3.8-3.5 5.3-.6.2-.9.5-1.1.8zm-66.8 6.8c.5-.1.8.2.8.6v2.1c-.2 2.5-2.1 3.9-4.8 3.6-.8-.1-1.6-.6-1.9-1.4-.3-.9-.5-1.8-.7-2.7-.8 0-1.8-.1-2.7-.1-.1 0-.3.2-.4.3-.9 1.4-1.2 3-1.2 4.7 0 1.9.3 3.8.8 5.6.3 1.1 1.1 1.9 2.1 2.5 2.3 1.4 5 1.6 7.5 2 2 .3 4.1 0 6.1-.6.2-.1.3-.2.4-.3 1-1.7 1.9-3.3 2.9-5 1-1.8 2.1-3.5 3.1-5.3.9-1.6.8-3.4.3-5.1-.1-.4-.5-.9-.8-1.2-1.1-1.2-2.6-1.4-4.2-1.1-1.8.2-3.6.5-5.4.9-.7 0-1.3.3-1.9.5-.2 0-.5.1-.8.1v.8c-.1.9-.3 1.8-1.1 2.5-.7.6-1.3.7-2 0-.4-.4-.7-1-1-1.5-.1 0-.4.1-.7.1 0 .5-.1 1 0 1.5.2.9.7 1.6 1.6 1.9.9.4 1.8.2 2.5-.4 1.5-1.2 1.8-2.7 1.3-4.4 0-.1.1-.3.2-.6zm-13.5-19.5c-1 .6-2 1.2-3 1.8-1.6.8-3.2 1.7-5 1.8-3 0-5.9.3-8.9-.2-1.9-.3-3.9-.7-5.5-1.9-2-1.5-3.7-3.2-5-5.2-.8-1.2-1.5-2.6-1.7-4-.5-3.1-.3-6.3.4-9.4.5-2.4 1.7-4.5 2.8-6.6 1-1.9 2.4-3.5 3.8-5.1 1.9-2.1 4.5-3 7.2-3.8 2.1-.6 4.3-1.3 6.6-1.1.4 0 .9.1.8.6 0 .2-.5.5-.8.6-.7.2-1.4.2-2.1.3-1.2.2-2.3.4-3.5.7-2.9.7-5.6 1.5-7.5 3.8-1.1 1.3-2.2 2.5-3.1 4-1 1.8-1.9 3.6-2.6 5.6-1 2.8-1.1 5.7-1 8.6 0 .8.2 1.6.4 2.3.7 2.7 2.7 4.6 4.7 6.5 1.2 1.1 2.6 2.1 4.3 2.4 1 .2 1.9.5 2.9.5 2.3.1 4.6.2 6.9.2.7 0 1.4-.2 2-.4 2.5-.7 4.5-2.2 6.6-3.6.2-.1.3-.3.3-.5.3-1.1.5-2.3.7-3.5-1.3 1.3-2.6 2.4-4.2 3.3-2.4 1.2-4.9 2.2-7.6 2.7-1.6.3-3.1.1-4.5-.6-2.9-1.4-5.3-3.4-7.4-5.7-.5-.6-1.1-1.2-1.4-2-.7-1.7-1.1-3.4-.9-5.2.3-3.1 1.3-6 3.4-8.4 1.5-1.7 3.3-3.3 5-4.9 1.5-1.4 3.2-2.6 5.2-3.5s4-1.4 6.2-1c.9.2 1.9.2 3 .4-.4-2.2.6-4 1.5-5.9-.5.1-1 .2-1.5.2-1.1 0-2.2 0-3.2 0-2.8.2-5.6.5-8.4.8-.8.1-1.6.2-2.4.4-2.4.6-4.6 1.6-6.7 2.9-2.2 1.3-4.5 2.5-6.5 4-2.2 1.7-4.2 3.6-5.9 5.8-.7.9-1.4 1.7-1.9 2.7-1.4 2.4-2.6 5-3.1 7.8-.4 1.9-.6 3.9-1 5.8-.3 1.3-.2 2.6.2 4 .3 1 .8 1.7 1.8 2 1.2.4 2.5.7 3.7 1.1.3.1.7.4.8.7 0 .3-.3.7-.6.8-.5.1-1 .1-1.5 0-1-.2-1.9-.5-2.9-.8-.6 1.5-1.3 2.9-1.8 4.4-1.3 3.9-1.6 7.8-1.2 11.9.1 1.1.3 2.2.3 3.3.1 3.1 1.2 5.9 3.1 8.4 1.6 2.1 3.6 4 5.6 5.8 1.1 1 2.4 1.9 3.9 2.4 2.6.9 5.4 1.2 8.2 1.2 4.4 0 8.9.4 13.3-.2 2.1-.3 4.1-.7 6.1-1.2 1-.3 2-.9 3-1.4.8-.5 1.6-1.1 2.3-1.6-.3-.8-.7-1.4-.9-2-.3-1.5-.5-3-.8-4.5-.3-1.8 0-3.6.6-5.3.2-.5.5-1 .7-1.6.1-.2.1-.5 0-.6-1.2-1.2-1.4-2.7-1.2-4.3.2-1.9 1-3.5 2.5-4.8.9-.7 1.9-1.3 2.9-2-3.4-2.7-6.1-5.5-6.5-9.7zm51.5-7.7v.6c-.4 2-.8 4.1-1.2 6.1-.1.4-.2.9-.2 1.3.1 1.5.2 3.1.2 4.6.1 1.7.4 3.5 1.7 4.8 2.2 2.2 4.8 3.7 8.2 3.8 1.4.1 2.9 0 4.3.2 2.2.2 4.3.3 6.5.1 2.3-.2 4.5-.6 6.5-1.6 2.8-1.4 4.5-3.6 5.4-6.3.9-2.8 1.7-5.6 2.1-8.5.4-3.1.5-6.3.6-9.4 0-.7-.1-1.6-.4-2.2-.7-1.5-1.5-3-2.4-4.5-1-1.7-2.4-3.1-4.2-4.1-1.3-.7-2.6-1.5-3.9-2.2s-2.6-1.3-4.2-1.1c-.4 0-.9.1-1.3.1-1.4.1-2.8.2-4.1.9-.9.5-1.8.9-2.8 1.3-2.4.8-4.4 2.3-6.5 3.6-.6.3-1.2.7-1.6 1.3-1 1.2-1.8 2.5-2.7 3.8-.7 1.2-1.5 2.3-1.6 3.7-.1 1.1.4 2.3 2.1 1.9 1.3-.3 1.9-1.2 2.3-2.2.2-.5.4-.9.7-1.4.8-1.1 1.6-2.3 2.4-3.4 1.6-2.1 3.8-3.6 6.2-4.7 3-1.3 6-1.3 8.8.8.6.4 1 .9 1.6 1.4 2.1 1.6 3.4 3.8 4.2 6.1s.9 4.8 1 7.3c.1 1.9.1 3.8.3 5.7.3 3 0 5.9-1.4 8.6-.3.6-.9.7-1.4.2-.1-.1-.4-.3-.5-.2-.8.2-1.4 0-1.9-.7s-.6-1.4-.3-2.1c-1 .3-1.6.2-2.1-.5-.6-.7-.5-1.9.2-2.7-.8-.4-1.4-.9-1.4-1.9s.7-1.4 1.5-1.8c-1-1.2-.9-1.7-.2-2.5s1.6-.9 2.7-.8c.1-.8.5-1.3 1.2-1.3.6-.1 1.2.2 1.9.3-.2-1.6-.4-3.4-.6-5.1-.3-2.2-1.4-4.2-2.8-5.9-1-1.2-2.4-2.1-3.6-3.1-.5-.4-1.1-.7-1.7-.8-1.1-.4-2.3-.1-3.4.2-.4.1-.6.3-.3.7.6.9.7 1.9-.1 2.8 1.1 1.4.6 2.8-1 3.4.1 1.4-.1 2.7-.9 3.9-.2.3-.2.8-.1 1.1.2.8.5 1.5.8 2.3.5 1.4.3 2.7-.8 3.9-.3.3-.6.6-1.1.3-.4-.3-.1-.7.2-1s.5-.7.7-1.1c.4-1-.1-1.9-.5-2.8-.6-1.4-.8-2.8.3-4.1.1-.1.1-.3.3-.6-1.2.7-2.2.5-3.2.1-.1-.1-.3-.1-.4-.1-1.1.4-2.1.1-3-.3-.7.9-1.2 1.9-2 2.6-1 .4-2.1.7-3.1 1.2zm-8.1-56.6c-.1-.9-.2-1.7-.2-2.4 0-1 .1-2.1.1-3.1 0-2.1.3-4.2 1.1-6.2.1-.3.2-.7.1-1-.2-1.3-.3-2.6-.7-3.9-.5-1.8-1.7-3.2-3.7-3.5-2.6-.4-5.2-.7-7.9-.9-2.8-.2-5.7-.2-8.5-.3-1.1 0-2.3.1-3.4.1-.7 0-1.4.1-2.2.2-1.2.2-2.5.4-3.7.6-1.9.2-3.7.3-5.6.6-1.2.2-2.4.5-3 1.5-.8 1.1-1.4 2.3-1.9 3.6-1 2.8-.8 5.8-1 8.8-.1 1.2.1 2.4.1 3.5 0 1.5.2 3 1 4.4.3.5.5 1 .7 1.5.6 1.8 1.7 3.3 3.1 4.5.5.5 1.2.9 1.7 1.3 1 .7 2 1.4 3.1 2.2.9-1.3 1.7-2.6 2.5-3.8.7-1 1.4-2 2-3 .2-.4.5-.8.6-1.2.2-.7.5-1.1 1-1 .6.1.9.6.7 1.3-.2.9-.5 1.7-.7 2.6-.2 1.1-.4 2.2-.6 3.2.1 0 .1.1.2.1 1.1-.8 2.2-1.7 3.3-2.4 2.2-1.4 4.3-2.8 6.6-4 3.7-1.8 7.7-2.7 11.9-3.1 1.3 0 2.2-.1 3.3-.2zm-37.5 53.2c-.1.2-.3.4-.4.7-.9 1.6-2 3.2-2.7 4.9-.6 1.4-.8 3-1 4.5-.3 2.9 1.4 5.1 3.3 7.1.9.9 1.9 1.7 2.9 2.5 1.5 1.2 3.3 1.7 5.2 2.1 2.5.5 5 1.2 7.6 1.7 1.8.4 3.6.5 5.4.7.8.1 1.6.1 2.4.1h4.6c1.6 0 3.3 0 4.9-.2 1.4-.2 2.7-.8 4.1-1 1.7-.3 3.3-.9 4.8-1.7.9-.5 1.7-1.2 2.7-1.2-1.9-5.9-1.2-11.6.4-17.3-.6-.6-1.1-1.2-1.7-1.8-.8.5-1.6 1.1-2.5 1.6 0 0-.1.1-.1.2-.9 2.7-3.3 3.8-5.9 4.6-1.1.3-2.3.4-3.4.4-2.1 0-4.2-.2-6.2-.2-2.3 0-4.6-.1-6.7-.8-1.6-.5-3.2-.9-4.7-1.5-.8-.3-1.4-.5-2.1 0-.1 0-.2.1-.3.1-1.3.4-2.5 1-3.9.9-.7 0-1.1-.5-.9-1 .1-.3.3-.6.5-.7 1.1-.9 1.7-2.1 2.2-3.4-2.9-.8-5.6-1.5-8.5-1.3zm46.9-33.9c1.4-2.5 2.6-5 5.3-6.7-.4-.3-.7-.5-1-.7-1.8-1.6-3.9-2.6-6.3-3.1-1.8-.4-3.7-.6-5.6-.8-1.8-.1-3.7 0-5.5.1-1.3.1-2.5.3-3.8.4-1.7.1-3.4.4-5 1.3-1.5.8-2.9 1.7-4.4 2.5-2.9 1.6-5.5 3.5-7.6 6.1-.1.1-.2.3-.2.5.1 1.3.3 2.6.5 3.8.3 1.6.6 3.1.8 4.7.1.4-.1.9-.4 1.3s-.8.6-1.3 1c.5.6.9 1.2 1.2 1.7.5-.1.8-.2 1.1-.2 1.1-.2 2.2-.4 3.3-.4 1.6-.1 3.3-.2 4.9 0 .8.1 1.8.5 2.2 1 .6.7 1.1.5 1.7.3 1.5-.5 3.1-.6 4.7-.5 1.2.1 2.4.5 3.6.5 2.8.2 5.4 1 7.4 2.8 1.3 1.2 2.5 2.5 3.6 3.9 1 1.2 1.8 2.6 2.6 3.9 1-.6 2-1.2 3.1-1.9-1-.7-1.9-1.3-2.8-1.9-.3-.2-.6-.5-.9-.7-1.9-2-2.6-4.5-2.7-7-.1-2.4.2-4.8.3-7.1-.1.2-.3.6-.6.9-.7.9-1.4 1.7-2.2 2.6-.1.1-.4.1-.7.2-.1-.3-.3-.6-.2-.9s.4-.6.7-.9c1.7-1.8 2.9-3.9 3.1-6.4.3-2.3-.3-4.1-2.6-5.4-2-1.1-4.2-1.6-6.5-1.7-2.7 0-5.4.5-8 1.4-1.3.5-2.5 1-3.6 2-.8.7-1.8 1.4-2.7 2-.4.3-.8.7-1.2.2s.1-.8.4-1.1c.5-.4 1.1-.8 1.6-1.2 1.1-.7 2.2-1.6 3.5-2.2 4-1.7 8.2-2.2 12.5-1.8 2.2.2 4.2 1 6 2.3 1.2.8 1.8 2 1.8 3.3-.1.7-.1 1.3-.1 1.9zm33.8 1.1c-.1-.1-.1-.1-.2-.2-.7.2-1.5.3-2.2.6-1.1.4-2.2 1-3.3 1.4-.5.2-1 .3-1.4-.2-.3-.4-.2-.9.3-1.1 1.3-.5 2.1-1.6 3.2-2.3 1.7-1 2.5-2.6 3.2-4.2.4-1.2.3-1.3-1-1.3-.2 0-.5 0-.7.1-2 .4-3.9 1.3-5.5 2.5-.3.3-.7.4-1 .2-.4-.3-.5-.8-.2-1.2s.7-.7 1.1-.9c1-.5 2-1 3-1.4.2-.1.4-.2.4-.4.4-.8.8-1.7 1.2-2.5.5-1.1.7-2.3.4-3.5-.3-.9-1.2-1.5-2.1-1.2-1.5.4-2.9.9-4.3 1.5-1.1.5-2 1.3-3 1.9-1.4.9-2.8 1.6-4.6 1.4-.6-.1-1.2 0-1.8.2-2.6.6-5.1 1.4-7.3 2.8-1.4.9-2.8 1.9-3.8 3-1.5 1.7-2.5 3.7-3.1 5.8s-.9 4.2-1.1 6.3c-.2 2.9-.1 5.7 1.4 8.4.3.5.7 1.1 1.2 1.4.9.7 1.9 1.2 2.9 1.9.6.4 1.2.3 1.9 0 2.7-1 5.1-2.5 8-2.7.2-.6.5-1.2.6-1.7.3-1 .6-2.1.8-3.1.1-.6-.3-.8-.9-.6-.6.3-1.2.8-1.8 1.2-.3.2-.7.5-1 .1-.1-.2 0-.7.1-.9.8-.8 1.7-1.3 2.8-1.5 1-.1 1.8.5 1.8 1.4 0 .6-.1 1.1-.2 1.7-.3 1.1-.7 2.2-1.1 3.3h2.9c.1-.3.1-.7.3-1 .7-1.5 1.2-3.1 1.3-4.8.1-1.2.1-2.4-.6-3.5-.8-1.3-2.1-2.3-3.7-2.8-1.1-.3-2.3-.4-3.3.3-1.9 1.4-3.2 3.2-3.8 5.4-.1.2-.3.4-.5.6-.2-.2-.5-.4-.5-.6 0-.4.1-.8.3-1.2.7-1.7 1.9-3 3.2-4.4.9-1 2.1-1.4 3.5-1.4 2.6 0 5.2 2.2 6.2 4.1.1.2.2.4.2.6 0 1.3-.1 2.6-.1 3.9v.5c.3-.2.5-.4.8-.6 1.9-1.4 4.1-2.4 5.7-4.2 1-1.1 2.3-2.1 3.2-3.3 1-1.2 1.5-2.6 2.2-3.8zm-41.5-20.6c1.5.1 2.9.1 4.3.4 3.4.8 6.8 1.6 9.8 3.6 1.6 1.1 3.4 2 5.2 3 .8.4 1.5.9 1.7 1.8 1.5-.2 3-.5 4.5-.7.5-.1 1 0 1.4-.2 1-.6 2-1.3 3-1.9 2.4-1.6 5-2.7 7.8-3 .2-.7.3-1.4.5-2.1.6-2.3 1.3-4.5 1.2-6.9-.1-1.8-.3-3.6-.7-5.3-.6-3-2.1-5.7-4.1-8.1-.2-.2-.4-.4-.6-.5-1.1-.5-2.2-.9-3.3-1.3-3.8-1.5-7.8-2.1-11.9-2.1-.6 0-1.1 0-1.7-.1-2-.2-4-.1-5.9.5-2.8.9-4.9 2.7-6.6 4.9-1.1 1.5-1.8 3.2-2.6 4.9-1 1.9-1.8 4-1.8 6.1-.3 2.3-.2 4.7-.2 7zm-28.4 8.9c-.3.5-.6 1.1-1.1 1.8-1.2 1.6-2.5 3.3-3.7 4.9-.5.7-1.1 1.4-1.8 2-1.7 1.6-3.5 3.2-5.2 4.9-.5.5-1.1 1-1.5 1.5-1.4 1.8-2.4 3.8-3.2 5.9-.3.6-.7 1.2-.8 1.8-.3 1.8-.5 3.8.4 5.5 1.2 2.2 2.5 4.3 3.9 6.5.3.5.7 1 1.2 1.3 2.3 1.4 4.6 2.8 7.1 3.9 2.2 1 4.7 1.5 7.1 2.3 1.5.5 2.8.1 3.8-.8 1.1-1 2.3-2 3.2-3.1 1.4-1.7 2.1-3.7 2.4-5.8.3-1.7-.1-3-1.4-4.1-1.2-1-2.6-1.9-4.4-2.2-1.4-.2-2.4.1-3.4.9-.6.5-1.1 1-1.7 1.6-.4.3-.8.5-1.2.2-.5-.3-.5-.8-.2-1.2.4-.5.9-1 1.4-1.5s1.1-.8 1.8-1.3c-1.3-.9-2-2.1-2.6-3.4-.1-.2-.3-.4-.5-.5-.4-.3-1-.4-1.4-.7s-.6-.3-1.1-.2c-.8.2-1.6.3-2.5.4-.9 0-1.5-.5-1.8-1.2s-.5-1.5-.1-2.2c.5-1 1.2-1.9 1.9-2.8.8-1.1 1.7-2.1 2.1-3.4.1-.2.2-.4.3-.7.4 1.2.4 2.2-.4 3.2-.9 1.1-1.7 2.2-2.5 3.2-.7.9-.6 1.8.2 2.6.4.4 1.3.3 2.1-.1.9-.5 1.7-.4 2.4.3s.9.7 1.7.2c.3-.2.7-.5.9-.6-.3-3.3-.7-6.4-.9-9.6-.2-3.3-.3-6.5-.5-9.5zm-37.5-15c-1.1-.6-2-1.3-2.4-2.5-.2-.8-.1-1 .7-1h.5c1.2.3 2.2-.2 3.3-.6.2-.1.4-.3.6-.5.4-.6.6-1.2 1.1-1.7.4-.5.9-1.1 1.5-1.4 1.2-.6 2.4-.4 3.5.4 1.1-1.2 2.5-1.3 3.9-.9.9.2 1.5.7 1.6 1.6.1.7.2 1.4.3 2.1h7.6c.3-1.7.6-3.4 1-5.1-1 0-1.4-.7-1.6-1.5-2 .9-3 .6-4.6-1.1-.1.3-.2.6-.4.8-.8 1.2-2.2 2-3.8.9-.9-.6-1.8-1.3-2.8-1.9-.6 1.1-1.7 2-3.2 2.3-1.6.4-2.6-.6-3.6-1.7-.3 1.5-1.2 2.5-2.6 3-2 .8-3.7-.2-3.9-1.9 0-.1 0-.1-.1-.2-.1 0-.2 0-.2.1.7 1.6.7 3.1-.4 4.5-1.2 1.5-2.7 1.8-4.6 1.1.4 1.8.2 3.4-1.8 4.3 1.3.9 1.9 2 1.5 3.5-.4 1.4-1.5 2.2-2.8 2.9 2 1.6 2.4 4.8 0 6.5 1.4.8 2.2 1.9 2 3.4-.1 1.5-1.1 2.6-2.5 3.3 1.6.3 2.9 1.5 3 2.9.1.8-.2 1.6-.4 2.4-.3.9-1 1.4-2.1 1.6 2.4.9 3.2 4.2.5 5.8 3.4 1.1 4.9 4.3 2.4 6.7.5.4 1.1.7 1.6 1.1.6-.4 1.1-.8 1.7-1.1 1.5-.8 2.9-1.6 4.4-2.3 1.9-.9 3.8-1.9 6-2.2 1.7-.2 3.4-.2 5.2-.4 2.1-.2 4.3-.4 6.4-.6 1.2-.1 2.4-.3 3.5.6.7-1.2 1.4-2.5 2.2-3.8-2.2 0-4.3.1-6.4 0-1.5-.1-3-.2-4.4-.5-2-.3-3.8-1.3-5.5-2.3-.3.9-1 1.6-2 1.8s-1.9-.1-2.6-.8c-.9 1.4-1.7 2-3.2 2.1-.8.1-1.7 0-2.5-.1-.3 0-.7-.2-1-.4.1-.3.2-.7.5-.9.7-.7 1.3-1.5 1.5-2.4.6-2.6.9-5.2.8-7.9 0-.2 0-.4-.1-.5-.4-.5-.5-1.1-.4-1.8.1-2.1 2.3-3.5 4.3-2.7-.2-3.3-.6-5.8.6-9.5-.3-.1-.6-.1-.9-.2-1.1-.2-1.6-.9-1.3-1.9.1-.3.2-.8.4-1.4zm57 85.6c.2.5.4 1 .6 1.5.5 1.3.5 2.6.5 4 0 .2.1.5.2.6 1.7.8 3.5 1.6 5.5 1.5 1.2 0 2.4-.1 3.6-.1h8c.5 0 1.1.1 1.6.1 1.1 0 2.4.2 3.4-.1 2.1-.7 3.6-2.3 4-4.4.1-.6.1-1.3.3-1.9.1-.2.4-.5.7-.6.2 0 .5.3.7.5.1.2.2.5.1.8-.1.9-.3 1.8-.4 2.7 0 .2 0 .5.1.7.9 1.4 1.9 2.8 2.9 4.2 1.7 2.4 3.5 4.8 5.3 7.3.6.8 1.2 1.6 1.8 2.4 0 0 .1-.1.3-.1 1.9-1 3.3-2.3 4.2-4.2.6-1.3 1.2-2.6 1.8-3.9 1.2-2.3 1.8-4.8 1.7-7.4 0-.4-.1-.8-.4-1.1-1.2-1.2-2.4-2.3-3.6-3.4-.4-.4-.7-.3-1.1-.1-1.5.5-3.1 1-4.6 1.3-2.1.4-4.2.5-6.4.3-1.6-.2-3.2-.1-4.7-.2-.1 0-.2 0-.4 0-.8-.1-1.5-.2-2.3-.2-2.3-.2-4.4-.9-6.2-2.1-1.2-.8-2.2-1.8-3.2-2.6-.4.3-.7.6-1.1.9-.6.3-1.2.6-1.8.9-.9.4-1.7 1-2.7 1.2-2.8.4-5.5 1.3-8.4 1.5zm-34.9-82.7c0-.9 0-2 0-3.1s0-2.2 0-3.4c-1.9-.1-3.8-.2-5.7-.1-1.4 0-2.9.2-4.2.6-2.1.8-4 1.8-5.9 2.8-.9.5-1.8 1.2-2.4 2-1.4 1.8-2.1 4-2 6.2 0 2.3.1 4.6.3 6.9.1 1.7.4 3.4.7 5 .4 2.8 2 5 4.5 6.6 2.3 1.5 5 2.1 7.8 2.2 2 .1 4.1 0 6.1 0 1.3 0 2.3-.2 3.2-1.2.9-1.1 2-2 3.1-3.1-1.3 0-2.1-.5-2.3-1.7-1 .9-1.5 1-2.3.7-1.1-.4-1.3-1.3-1.4-2.3-1.1.8-2.1 1-3 .6-.8-.4-1.1-1.3-.9-2.3-1.8.2-2.6-.4-2.7-2.2-1.2.1-2.4-.3-2.7-1.1-.5-1.3.6-2 1.5-2.8-.9-.5-1.5-1.3-1.4-2.3 0-1 .7-1.7 1.8-1.9-.7-.7-1.4-1.5-.7-2.3.8-1.1 2.1-1.5 3.5-.7-.3-1 .1-1.7.8-2.1.8-.5 1.7-.5 2.4 0 .5-.2 1.1-.6 1.9-1zm1.2 53.8c-1.3 1.3-3.5 1.9-5.6 1.9-2 0-3.7-.6-5.4-1.5-.7-.4-1.4-1-1.8-1.6-.9-1.6-1.3-3.4-.8-5.3.8-3.3 3.7-5.5 7.1-6.1.7-.1 1.4-.1 2.1-.2-.3-.9-.5-1.7-.8-2.6-.9-.2-1.9-.4-2.8-.5-1.4-.1-2.8-.3-4.1.3-1.4.6-2.7 1.3-4 2.1-1 .6-2 1.4-2.9 2.2-1.2 1.1-2.4 2.3-3.5 3.5-1.3 1.3-2.3 2.9-2.9 4.6-.4 1.1-.7 2.2-.9 3.4-.4 2.1-.1 4.3 1.3 6 1.3 1.6 3 3.1 4.6 4.4 1 .8 2.1 1.5 3.3 1.9 1.7.6 3.5.5 5.2-.1 1.9-.6 3.7-1.4 5.4-2.3 1-.5 2-1.2 2.9-1.9.8-.7 1.6-1.5 2.4-2.2.4-.4.8-.8 1.1-1.2.6-.9 1.2-1.8 1.7-2.7-.4-.6-1-1.3-1.6-2.1zm58.3 50.9c-.2-.5-.4-.9-.6-1.3-.5-1-1.1-2-1.6-3.1-.9-1.9-1.7-3.9-2.6-5.9-.3-.7-.7-1.4-1-2.1-.2-.5-.4-.6-.9-.6-4 .1-7.9.1-11.9.1-.9 0-1.8-.2-2.7-.4s-1.8-.6-2.7-1c-1.1 3.3-2.1 6.6-4.4 9.3 5.7 3.2 18.6 5.6 28.4 5zm-42.3-23.1c-1.6-.4-3.1-.9-4.6-1.2-2-.4-4-1.1-5.8-1.9-.2-.1-.5 0-.6.1-.9.7-1.9 1.3-2.8 2-.5.4-.9.8-1.2 1.3-.7 1-.8 2.2-.8 3.4 0 1.4.9 2.1 2.2 2.3 1.4.2 2.8.1 4.1-.5 2.4-1 4.7-2.1 7.4-2.4 1.4-.1 2.8-.6 4.1-.8 1.1-.1 2.2-.1 3.3.2 1.9.7 3.3 1.8 3.8 3.7.5 2 .6 4-.4 5.8-1.5 2.8-3.1 5.5-4.7 8.2-.2.4-.5.7-.9 1.3 2.5-.4 4.8-.8 6.9-1.9.4-.2.9-.5 1.2-.9.6-.7 1.2-1.4 1.7-2.1 1.8-2.4 2.9-5.1 3.6-8 .5-1.8.8-3.7 0-5.6-.3-.7-.5-1.4-.7-2.1-3.1 0-6.2 0-9.4 0 3.8 1.5 4.2 2.7 5.7 6 .2.4.2.9.2 1.3 0 2.1-.2 4.3-.8 6.3-.6 1.8-1.7 3.2-2.9 4.6-.1.1-.4.1-.7.2 0-.2-.2-.4-.1-.6.2-.4.4-.9.7-1.3 1.3-1.7 2.3-3.5 2.5-5.7.2-1.8.5-3.6-.3-5.4-1-2.2-2.5-3.8-4.9-4.6-3.3-1.1-6.6-1.3-10-.5-2.8.6-5.3 1.8-7.9 2.9-.3.1-.6.3-.8.3-.3 0-.5-.2-.8-.3.1-.2.2-.6.4-.6 1.5-.6 3-1.3 4.5-1.8 2.9-.9 5.7-1.7 8.8-1.7zm45.9-69.1s-.1-.1-.2-.1c-2.5-1.5-4.9-3-7.4-4.4-1.3-.7-2.8-1.3-4.3-1.8-2.5-.9-5.1-1.3-7.8-1.1-1.6.1-3.2.2-4.7.4-2.7.3-5.3.7-7.8 1.7-2.8 1.1-5.5 2.5-7.9 4.2-1.8 1.2-3.6 2.4-5.3 3.7-.3.2-.6.5-.7.7-.1 1.2 0 2.5 0 3.7 0 .2.1.4.2.6-.1-.1-.2-.2-.2-.3.9-.7 1.7-1.4 2.6-2 2.3-1.5 4.5-3.1 6.9-4.4 2-1.2 4.2-2.3 6.6-2.7.6-.1 1.2-.1 1.7-.1 2.3-.2 4.5-.4 6.8-.6.8-.1 1.5.1 2.3.1 2.4.2 4.7.4 7 1.1 2.6.8 4.9 2.3 6.8 3.8 1.9-.9 3.7-1.7 5.4-2.5zm-13 36.7c-.2-.3-.5-.5-.6-.7-.6-1.8-2.1-3.1-3.3-4.5-.4-.4-.8-.9-1.2-1.2-2.6-1.9-5.6-2.8-8.8-2.8-2.1 0-4.1.7-5.7 2.1-.4.3-.9.5-1.5.8.2 4-1.5 7.5-4.5 10.7 1.6.2 3.1.4 4.7.5.3 0 .7-.2.8-.4.8-1.5 1.6-2.9 2.4-4.5 1-2 2.6-3.5 4.8-4.3 1.7-.7 3.5-.8 5.1.4 1.2.9 2.3 1.9 3.5 2.9 1.1.9 2.3 1.8 3.1 3.1.3-.8.8-1.4 1.2-2.1zm-45.2 2c-.4.3-.7.7-1.1.8-.5.2-.7.5-.7.9-.1.9 1.1 1.9 2.2 1.9 2.2 0 4.4.3 6.5.9 2.2.6 4.4 1.1 6.5 1.8 2.2.7 4.5 1.2 6.9 1.3.7 0 1.4.1 2.1.1 1.1.1 2.3.3 3.4.2 1.7-.1 3.3-.2 4.9-.5 2-.4 3.9-.9 5.9-1.3.2 0 .4-.2.5-.4 0-.1-.2-.3-.3-.4-.3-.3-.6-.5-.8-.8-.8-.9-1.8-1.3-3-1.2-1.3.1-2.7.3-4 .5-1 .2-2.2-.1-3 .7-.1 0-.2 0-.3 0-2.3.1-4.6 0-6.8-.8-.6-.2-1.2-.2-1.7.2-1.6 1.3-3.5 1.3-5.4.7-.5-.2-1-.5-1.5-.6-1.6-.5-3.3-.8-4.8-1.4-1.9-.8-3.7-1.8-5.5-2.6zm67.2-11.3c1.2.6 2.3 1.3 3.5 1.9 1.1.6 1.1.5 2-.2.1-.1.3-.2.5-.3 2.2-1.4 4-3.1 5.2-5.3.7-1.2 1-2.5.9-3.9-.1-.8-.4-1.1-1.2-1.1-.7 0-1.1.3-1.6.7-2.2 1.8-4.4 3.5-6.7 5.1-.4.3-.9.4-1.4.6-.1.1-.3.2-.3.3-.3.7-.6 1.5-.9 2.2zm-73-35.6c-.7 1.4-.9 2.8-.7 4.3.1 1.2.6 2.4 1.8 3.1 1.9 1.1 2.8 3.2 2.2 5.1.4.6.7 1 1.1 1.5.7-.6 1.5-.8 2.4-.4.8.4 1.6.9 1.3 2h.2c1-1.2 2-2.5 2.9-3.5-2.2-1.8-4.8-2.9-6.3-5.1s-2.5-4.6-3.8-7c-.3 0-.7 0-1.1 0zm-1.4 38.2c-.3-.3-.4-.5-.6-.5-1.4 0-2.9 0-4.2.7-2.5 1.3-4.2 3.1-4.5 5.9-.2 1.4.6 4.1 2.3 5.1 2 1.1 4.2 1.4 6.4 1.2 1.8-.2 3.3-1 4.2-2.5.2-.3.3-.8.6-1 .4-.4 1-.7 1.5-1.1-.5-.4-1-.8-1.6-1.2-.1.2-.2.4-.3.7-.7 1.5-1.6 2.9-3.6 3.2-.8.1-1.7.1-2.5-.1-1.3-.2-2.5-.6-3.3-1.7-.6-.8-.9-1.6-.8-2.6.3-2 1.7-3.2 3.2-4.5.8-1 1.7-1.5 3.2-1.6zm-23.8-16.5c.3.1.5.1.7.1 1.6.2 3.3-.3 3.9-1.9.3-.9.7-.9 1.3-.2 1 1.2 2.4 1 3.1-.3.2-.4.2-.7-.2-1-1.5-1.3-2.3-2.8-2.6-4.7-.2-.9-.4-1.8-.6-2.8-.9 1.3-2.1 1-3.3.6 0 .4 0 .8-.1 1.1-.2 1.7-.5 3.4-.7 5.1 0 1.5-.3 2.8-1.5 4zm19.2-15.6c.3.9.6 1.8 1 2.7.6-.2 1.5-.4 2.2.2s.8 1.4.7 2.2c1.8-.3 2.6.6 2.8 2 .5-.2.8-.5 1.3-.5.7-.1.9-.5.9-1-.1-1.4-.5-2.8-1.9-3.5-1.8-.9-2.2-2.4-2.3-4.1-.1-1.5.1-3 .8-4.6-1.5 1.2-1.7 1.3-2.9.8-.1 1.3-.8 2.1-2.1 2.2.3.7.8 1.4.9 2.1-.2.6-.6 1.4-1.4 1.5zm25 50.1c1.2.4 2.2.8 3.3 1.1 2.4.6 4.9.9 7.4 1 2.7.1 5.4.3 8 .1 1.8-.2 3.3-.8 4.7-1.9.7-.5 1-1.3 1.2-2.2-1.8.5-3.5 1.2-5.3 1.4-2.4.4-4.8.6-7.2.7-2.3.1-4.6-.1-6.9-.4-1.2-.1-2.3-.6-3.5-.9-.4-.1-.8-.2-1.1-.1-.2 0-.3.4-.4.6 0 .3 0 .4-.2.6zm-30.7-66.5s.1 0 0 0c-.9-.9-1.5-1.9-1.3-3.2 0-.1-.1-.2-.2-.3-1.1-.8-2.4-.7-3.2.4-.5.6-.8 1.3-1.3 1.9-.3.4-.6.7-1 .9-1.2.6-2.5.9-3.9.8.2.9.9 1.4 1.7 1.7.9.4 1 .4.5 1.3-.1.2-.2.3-.2.5-.4 1.2-.6 1.7 1.1 1.9.1 0 .2 0 .3.1 1.7-3.1 4.7-4.4 7.5-6zm41.3 47.5c1-1.2 2.2-2 3.6-2.6 1.9-.7 3.8-1 5.8-.7 2.7.4 5.2 1.3 7.4 2.8 1.2.8 2.2 1.8 3.1 2.9 1 1.2 2.1 2.4 2.6 3.9.2-.3.4-.6.5-.8-.6-1-1.2-1.9-1.8-2.8-.8-1.1-1.6-2.2-2.5-3.3-.4-.5-1.1-.9-1.6-1.4-1.3-1.3-3-2-4.8-2.3-.9-.1-1.7-.1-2.6-.3-2.3-.4-4.5-.5-6.8 0-1.1.3-2.2.4-2.8 1.4-.2.3-.6.5-.9.8-.2.1-.4.2-.5.2.5 1 .9 1.6 1.3 2.2zm29.6 50.5c1 2 2 4 3.1 5.9 1 1.6 2.1 3.2 3.2 4.8.4.5.7 1.1 1 1.6 1.1-.2 2.3-.4 3.6-.6-4-3.7-6.1-8.3-8.9-12.6-.6.3-1.2.5-2 .9zm3.2-1.7c2.7 4.5 5.2 9.2 9.2 13 .6-.2 1.1-.5 1.9-.8-4-4.1-6.5-9-9.8-13.4-.4.4-.9.8-1.3 1.2zm14.9-25.8c-1.8.2-2.7.7-3.3 2.3-.9 2-.4 3.9.9 5.6.3.5 1.1.7 1.7 1 .2.1.6-.1.6-.2.2-.9.5-1.7.6-2.6 0-.9-.2-1.9-.2-2.8-.2-1.1-.3-2.2-.3-3.3zm-108.5-76.5c0 .1 0 .3.1.6.2.9.9 1.5 1.8 2 .5.3 1 .6 1.7.4 1.2-.5 2.2-1.2 2.2-2.5 0-.8-.5-1.7-.9-2.4-.2-.4-.7-.7-1.1-.9-2-.6-3.8.7-3.8 2.8zm87.2 103.8c2 4.3 4 8.6 6.1 12.9.8 0 1.7-.1 2.9-.2-3.1-4.1-5.2-8.4-7.4-12.7-.4 0-.9 0-1.6 0zm-85.8-59.3c-.2-1.5-1.4-2.9-3.3-3-.5 0-1.1.1-1.4.3-1.1.8-1.4 2.3-.8 3.4.7 1.3 1.9 1.9 3.3 1.7 1.2-.1 2.3-1.2 2.2-2.4zm-5.4-17.8c1.4 0 2.5-.6 3-1.7.6-1.3-.6-2.9-1.5-3-1.1 0-2.1.1-3 .7-1 .6-1.3 1.3-1.1 2.1.3 1.2 1.3 1.9 2.6 1.9zm4.1-15.8c.2-1.2-1.6-2.4-3-2.5-1-.1-2.3 1.2-2.3 2.1 0 1.4 1.3 3 2.5 3 1.3 0 2.7-1.4 2.8-2.6zm-2.4 22.6c.4-.1 1-.2 1.3-.5.8-.6.9-1.6.7-2.4s-.8-1.5-1.7-1.6c-.7-.1-1.4-.1-2.1 0-.9.1-1.6.6-1.7 1.4s.1 1.6.8 2.1c.8.6 1.7.9 2.7 1zm-1.6 6.5c1-.1 1.9-.3 2.7-1 1-1 .8-2.4-.6-3-.5-.2-1-.4-1.5-.5-.9-.2-1.7-.1-2.4.6-.7.8-.7 1.7-.3 2.6.5.9 1.1 1.4 2.1 1.3zm20.2-46.8c-1.3 0-2.5.9-2.5 2.1 0 1 1.3 2.5 2.4 2.5 1.2 0 2.8-1.2 2.8-2.1 0-1.4-1.3-2.5-2.7-2.5zm9.4 2.3c-.1 0-.1 0 0 0 0-.2 0-.4 0-.7 0-1.2-.3-1.6-1.6-1.8-.5-.1-1.1-.1-1.7 0-.7.1-1.2.7-1.3 1.4-.1 1.5.8 2.4 2 3 1.4.7 2.5.1 2.5-1.4.1-.2.1-.4.1-.5zm-27.1 11.6c.9 0 2.5-1.3 1.7-2.8-.3-.6-.8-1-1.2-1.5-.6-.7-1.4-.7-2.1-.2-.2.2-.4.4-.6.6-.7.8-.7 1.7-.3 2.6.4.8 1.1 1.3 2.5 1.3zm.2 10.7c-.1-.2-.1-.3-.1-.5-.2-1.5-1.8-2.6-3-1.8-.7.4-1.2 1-1.6 1.7-.2.2-.1.8.1 1.1.5.8 1.3 1.4 2.3 1.7.9.2 1.7-.1 2-.9.2-.5.3-.9.3-1.3zm9.1-20.7c0 .4 0 .6.1.7.4 1.5 1.6 1.8 2.7 1.1 1.8-1.3 1.9-2.7.1-4.3-.3-.2-1.1-.3-1.5-.1-1 .6-1.5 1.6-1.4 2.6zm13.4 4.5c-.9 0-1.6.3-2 1s-.2 1.4.2 2c.2.3.4.5.7.7.2.1.5.2.8.1.7-.2 1.4-.4 2-.6.2-.1.5-.3.5-.4.6-1.5-.5-2.8-2.2-2.8zm-10.1 21.4c-1.2-.4-2.1 0-2.8.9-1.2 1.4-.6 3.1 1.2 3.5.2 0 .5.1.5 0 .5-.6 1.4-1 1.2-2 0-.8 0-1.6-.1-2.4zm20.7-28.8c-.5-.3-.9-.6-1.4-.8-.3-.1-.7-.2-1-.1-.9.2-1.7.9-1.7 1.6-.1.8.6 1.9 1.4 2.2s2-.3 2.3-1.1c.1-.6.2-1.2.4-1.8zm28.5 54.2c-1.4-1.4-6.8-.5-8.6 0 2.4.1 4.6.8 6.5 2.1.8-.7 1.5-1.4 2.1-2.1zm7.4 11.2c-.5.6-1 1.1-1.4 1.6-.1.1-.1.3-.1.3.6.8 1.2 1.7 1.8 2.5.5-.5 1-1 1.5-1.5.3-.3.3-.5 0-.8-.5-.6-1.1-1.3-1.8-2.1zm-34.2-61.1c.8-1.1 1.5-2.1 2.2-3.2-.1-.2-.4-.4-.5-.7-.2-.3-.5-.4-.9-.3-.9.3-1.5.8-1.7 1.6-.1 1-.1 1.9.9 2.6zm39.6 66.3c.4-.4.8-.7 1.1-1.1.2-.2.3-.5.2-.7-.5-.8-1.1-1.6-1.6-2.5-.5.6-1 1.1-1.4 1.7.5.9 1.1 1.7 1.7 2.6zm-46.9-1c.7.2 1.5.3 2.2.5.2-.9.3-1.7.6-2.5.1-.3 0-.5-.3-.6-.5-.1-1.1-.3-1.6-.4-.3 1.1-.6 2-.9 3zm1.1-5.9c-.6-.3-1.1-.5-1.7-.8-.5.7-1 1.4-1.6 2.2.9.3 1.7.6 2.5.9.4-.8.6-1.5.8-2.3zm50.3 7.7c.5-.6.9-1.2 1.3-1.8-.6-.6-1.2-1.2-1.8-1.9-.3.4-.6.7-.8 1.1-.1.2-.1.5 0 .7.4.6.9 1.2 1.3 1.9zm-44.8-6c-.8-.2-1.5-.5-2.3-.7-.2.7-.3 1.4-.5 2 .8.2 1.5.3 2.3.4.1 0 .4-.1.4-.2.1-.5.6-1 .1-1.5zm36.1-.8c.6.9 1.2 1.8 1.8 2.6.4-.4.6-.8.9-1.2s.3-.6-.1-1c-.3-.3-.6-.7-1-1.2-.4.2-.9.5-1.6.8zm-41.1-.7c-.2.8-.4 1.5-.6 2.2.7.2 1.4.4 2.1.5.2-.7.4-1.4.6-2.1-.7-.2-1.3-.4-2.1-.6zm-3.5-36.3c.5 0 1.2-.7 1.2-1.1 0-.5-.9-1.4-1.5-1.5-.5 0-1.1.6-1.1 1.1 0 .7.8 1.5 1.4 1.5zm2.7 3.7c-.8 0-1.3.5-1.3 1.3 0 .6.5 1.1 1.1 1.1s1.5-.8 1.5-1.3c-.1-.5-.8-1.1-1.3-1.1zm-1.5 37.8c.3-.8.6-1.6.9-2.5-.4-.1-.8-.2-1.1-.3-.4-.1-.8-.1-1.2-.2-.2 1.5.2 2.3 1.4 3zm49.7 4.2c.5-.4.9-.7 1.4-1-.4-.7-.9-1.3-1.3-2-.6.6-1 1.1-1.5 1.6.5.5 1 .9 1.4 1.4zm-45.3-12.3c-1.4.2-1.2 1.4-1.8 2.3.7.2 1.3.4 1.9.7.2-1.1.8-2.1-.1-3zm15.7 17.6c1.4-.5 2.6-.9 3.5-2-.8-.2-1.6-.4-2.3-.6-.4.9-.8 1.7-1.2 2.6zm-15.8-11.2c-.2.9-.3 1.7-.5 2.6 1.4-.2 2.1-1.1 2.9-2.1-.8-.1-1.5-.3-2.4-.5zm37.3 3.5c-.6-.9-1.1-1.6-1.7-2.5-.4 1-.8 1.9-1.3 2.9 1.2-.1 2.1-.2 3-.4zm-41.6-49.4c-.7 0-1.5.5-1.5.9 0 .5.7 1.2 1.3 1.2s1.3-.6 1.2-1.2c0-.4-.5-.9-1-.9zm66.5 49.1c.7-1.1 0-1.8-.7-2.8-.4.5-.8.8-1.1 1.3-.1.1-.1.3-.1.5.3.6 1.1 1.1 1.9 1zm-62.6-34.5c.7 0 1.3-.5 1.3-1 0-.6-.8-1.3-1.2-1.2-.5.2-1 .7-1.3 1.1-.2.4.6 1.1 1.2 1.1zm-30.4 20.6c.9-.6 1.9-1.2 2.8-1.8-.9-.8-1.5-.8-2.3-.2-.7.6-.9 1.3-.5 2zm26-26.4c0-.6-.5-1.1-1-1.1-.6 0-1.1.6-1.1 1.2s.5 1.1 1.1 1.1c.5-.1 1-.6 1-1.2zm11 7.1c0 .5.6 1 1.1 1 .6 0 1.3-.5 1.3-1.1 0-.5-.6-1-1.1-1-.8 0-1.4.5-1.3 1.1zm-1.6-1c0-.6-.4-1-1-1-.5 0-1.1.5-1.1 1 0 .6.5 1.2 1 1.2.5.1 1.1-.5 1.1-1.2zm53.2 36.2c.5.1.9.3 1.3.4.8.1 1.3-.4 1-1.1-.2-.5-.4-1-.7-1.6-.6.8-1.1 1.6-1.6 2.3zm-58-52.2c0-.6-.3-1-.7-1-.5 0-1.2.5-1.2 1s.5 1.3 1 1.3c.4.1.9-.6.9-1.3zm63 46.7c.4.3.7.5 1 .7.4.2.9.5 1.4.1s.2-.9 0-1.3c-.1-.2-.2-.4-.4-.6-.6.3-1.2.7-2 1.1zm-50 38.4c-.6.3-1 .5-1.4.7-.8.3-.9.8-.4 1.4.4.4.7.5 1.1 0s.6-1.2.7-2.1zm32.8-37.6c.3-.3.5-.6.8-.9-.8-.7-1.6-1.4-2.5-2.2 0 .3-.1.6 0 .7.5.8 1.1 1.6 1.7 2.4zm15.6 3.8c.3.5-.4 1.2.5 1.5.4.1 1.2.1 1.2-.1.1-.4 0-1 0-1.4-.6 0-1.1 0-1.7 0zm-59-52.8c-.8 0-1.2.5-1.2 1.1 0 .4.3.8.6 1.1.1.1.4.1.6 0 .1 0 .2-.3.1-.5 0-.5 0-1.1-.1-1.7zm61.5 50.1c.1.4.1.9.2 1.2.2.3.5.5.9.7.1 0 .4-.3.6-.5.3-.3 0-.5-.1-.8-.3-.6-1-.5-1.6-.6zm-15.7 5.7c-.2-.4-.4-.7-.6-1.1-.4.2-.9.5-1.3.7.3.5.5.9.8 1.4.4-.3.7-.7 1.1-1zm-8.6-4h2.3c-.3-.6-.6-1.1-.9-1.7-.5.6-.9 1.1-1.4 1.7zm35.8 11.4c-.6-.2-1.6.1-1.7.6-.1.3.2.7.4 1.2.5-.7.9-1.2 1.3-1.8zm.4 9.7c.1.6.2 1.1.8 1.3.3.1.7-.2 1.1-.3 0-.1 0-.1-.1-.2-.5-.3-1.1-.5-1.8-.8zm-2.1-6.6c-.6.2-1 .6-.9 1.1.1.3.3.5.5.8.1 0 .1-.1.2-.1.1-.5.2-1.1.2-1.8zm-72.2-22.3c-.1.5-.3.9-.4 1.3.5.1.9.2 1.5.4-.4-.7-.7-1.2-1.1-1.7zm47.6 10.5c.3-.7.6-1.5.9-2.3-.3.2-.5.6-.7.8-.7.5-.6 1-.2 1.5zm24.8 15.4c-.5.5-.5 1-.1 1.4.2.2.5.2.7.3 0-.1 0-.1.1-.2-.2-.5-.4-1-.7-1.5zm-75.5-27.3c-.6.4-1.1.7-1.6 1 .5.2.8.3 1.2.5.1-.5.2-.9.4-1.5zm79.6 19.4c-.6-.5-.9-.4-1.2.3.3-.2.7-.2 1.2-.3z"/><path d="m255.8 233.4c.8-.1 1.5-.2 2.2-.2.2-1.1.3-2.2.5-3.3 0-.1 0-.2.1-.3s.3-.2.5-.3c.1.1.3.3.3.4 0 .7-.1 1.3-.2 2 0 .4-.1.8-.2 1.3.7-.2 1.4-.4 2-.7.1-.1.3-.3.3-.5.2-.8.2-1.7.4-2.5 0-.2.3-.3.5-.5.1.2.3.4.3.6-.1.8-.2 1.5-.4 2.5.7-.4 1.2-.6 1.7-.9.4-.2.8-.5 1.2-.6s.9-.2 1.2 0 .5.7.4 1c-.4 1.1-.9 2.3-1.5 3.3-1.7 3.1-6.6 5.4-11.4 4.2-1.8-.5-3.7-.8-5.2-2.1-1.7-1.5-2.9-3.2-3-5.5 0-.3.2-.8.5-1 .4-.3.7 0 1 .3 0 .1.2.1.3.1.5 0 .8.3.9.7.1.3.4.6.5.9.4-1.1.8-2.2 1.2-3.3 0-.1.1-.3.2-.3.2-.2.5-.3.7-.4 0 .2.1.5.1.7-.3.9-.7 1.7-.9 2.6-.4 1.2-.2 1.4 1.1 1.6.2 0 .4.1.5.1.2-1 .4-2 .6-2.9.1-.4.2-.7.4-1 .1-.2.4-.2.6-.3.1.2.2.4.1.6-.3 1.2-.6 2.4-1 3.7h2.4c0-1.5.4-2.9 1-4.2.1-.1.4-.2.6-.2.1.2.2.4.2.5-.2.9-.4 1.8-.6 2.7 0 .3 0 .7-.1 1.2zm-7.3.9c.8.9 1.5 1.8 2.7 2.3 1.4.6 2.9.9 4.4 1.1 3.1.3 5.6-.5 7.4-2.8.5-.6.9-1.3 1.3-2-.1 0-.1-.1-.2-.1-4.9 2-10.1 2.8-15.6 1.5z"/><path d="m358.1 204.6c-.1 2.3-.3 4.1-.4 6 0 .5.1.9.1 1.4 0 2.2-.2 4.3-1.2 6.3-.1.3-.2.6-.4.9-.1.2-.4.3-.7.4-.1-.2-.3-.4-.4-.6 0-.1 0-.4.1-.5 1.3-2.3 1.3-4.8 1.3-7.3 0-1.9.2-3.8.2-5.7 0-1.3-.2-2.6-.3-3.9-.1-1-.3-2-.5-3-.2-.8-.4-1.5-.8-2.2-1-1.8-2.2-3.7-3.3-5.5-.2-.4-.6-.7-1-.9-1.3-.7-2.6-1.5-4-2-1.7-.6-3.4-.4-5.2 0-2 .6-4.1 1.1-5.7 2.5s-3.1 3-4.5 4.5c-.6.7-1.1 1.4-1.7 2.1-.2.2-.6.2-.9.3 0-.3-.1-.6.1-.9 1.2-2 2.8-3.7 4.4-5.4 2-2.1 4.6-3.2 7.4-4.1 1.1-.3 2.3-.6 3.5-.7 1.8-.1 3.3.6 4.8 1.3.7.3 1.4.8 2.1 1.2 1.6.9 2.6 2.4 3.4 3.9.5.9.9 1.8 1.4 2.6.8 1.4 1.1 3 1.4 4.6.5 1.8.6 3.4.8 4.7z"/><path d="m351.4 203.8c-.2-.4-.4-.6-.4-.8s.3-.3.5-.5c.2.2.4.4.4.6 0 .1-.3.3-.5.7z"/><path d="m351.2 220.5c-.3.2-.5.4-.6.4-.2 0-.4-.3-.5-.4 0-.1.3-.4.4-.4.2 0 .4.2.7.4z"/><path d="m348.3 203.9c.2.3.4.4.4.6 0 .1-.3.4-.4.4-.2 0-.4-.2-.5-.4 0-.2.3-.4.5-.6z"/><path d="m347.2 207.9c-.4.2-.5.4-.7.4-.1 0-.4-.2-.4-.4 0-.1.2-.4.4-.4.1 0 .3.2.7.4z"/><path d="m346 212.8c-.2-.3-.5-.4-.5-.6 0-.1.3-.4.4-.4.2 0 .4.2.5.4 0 .1-.2.3-.4.6z"/><path d="m347.7 217.2c-.3.2-.5.4-.6.4-.2 0-.3-.3-.5-.4.2-.1.3-.4.5-.4.2-.1.4.2.6.4z"/><path d="m299.7 133.1c-1.2 0-2.5-.1-3.6 0-2.1.3-3.9 1.4-5.5 2.7-1.5 1.2-2.7 2.6-3.8 4.1-1.3 1.7-1.2 3.7-.8 5.6.4 1.6.9 3.1 1.3 4.7.1.4.4.7.5 1.1.1.2 0 .5.1.8-.3 0-.7 0-.9-.1-.4-.5-.7-1-.8-1.6-.5-1.7-1-3.5-1.3-5.2-.4-2-.3-4 .9-5.7 1.4-2 3-3.7 5.1-5.1 1.6-1 3.2-1.9 5-2.1 2.1-.2 4.1-.1 6.2-.1 1.1 0 2.2.2 3.3.4 1.2.2 2.2.7 3 1.6.5.6 1.2 1.1 1.9 1.6 1.6 1.1 2.1 2.7 2.3 4.5.1.9 0 1.8 0 2.7 0 .2-.3.4-.5.7-.2-.2-.4-.4-.5-.7-.1-1.3-.1-2.6-.3-3.8-.2-1.1-.8-2-1.7-2.7-1.2-.8-2.2-1.9-3.5-2.5-1-.5-2.2-.7-3.3-.8-1.1-.3-2.1-.2-3.1-.1z"/><path d="m298.8 135.4c1.5.1 2.9.2 4.4.4 2.8.4 6 4.4 5.7 6.9-.1.4 0 .9 0 1.3 0 .2-.3.4-.5.6-.2-.2-.5-.4-.5-.6-.1-.7-.1-1.4-.2-2.1-.1-.4-.1-.9-.4-1.3-1.5-2.5-3.5-4.2-6.8-4.2-1.7 0-3.3 0-5 .1-1.3.1-2.5.6-3.4 1.5-.3.3-.7.6-1.1.8-1.7 1.4-2.5 3.1-2.4 5.2 0 1.3.1 2.6.3 3.8.1 1 .8 1.8 1.5 2.5.3.3.6.6.2.9-.4.4-.7.1-1-.2-1.3-1-1.9-2.4-2-3.9-.1-1.8-.1-3.6.1-5.3.1-.9.7-1.9 1.3-2.6 1.6-1.9 3.5-3.5 6.2-3.8 1.1-.1 2.2 0 3.3 0 .3.1.3.1.3 0z"/><path d="m292 146c.2-.3.3-.5.4-.6.3-.3.6-.6 1-.9.8-.6.7-1.5.8-2.3 0-.1-.1-.3-.2-.4-.3-.3-.6-.6-.8-.9-.1-.2 0-.5 0-.8.3 0 .7 0 .8.1.6 1 1.6 1.1 2.7 1.1 1.6 0 3.3.1 4.9.1.2 0 .4-.1.6-.3.3-.2.6-.5.9-.6.2-.1.5.1.8.1-.1.3-.1.6-.2.7-.3.4-.7.7-1 1.1-.5.6-.4 1.8.2 2.4.4.3.8.6 1.1 1 .2.3.3.8.2 1-.3.4-.8.2-1-.2-.7-1.2-1.9-1.1-3.1-1.2-1.7-.1-3.4-.3-5.1-.5-.2 0-.5 0-.7.2-.3.3-.5.7-.9.9-.2.2-.5.3-.7.3-.4.2-.5-.1-.7-.3zm9.4-1.3c-.1-.5-.2-.8-.2-1.1-.2-1.1-.2-1.1-1.4-1.1-1.5 0-3 0-4.5 0 0 .5-.1 1.1-.2 1.7 2.1.2 4.1.3 6.3.5z"/><path d="m308 218.2c-.2-.2-.5-.3-.6-.5s0-.5.2-.7c.3-.3.7-.5 1-.7 2.1-1.5 3.7-3.4 5.3-5.4.5-.6 1-1.1 1.5-1.6.2-.2.6-.2.9-.2 0 .3.1.7 0 .9-1.3 1.6-2.6 3.2-4 4.7-1 1.1-2.1 2-3.2 3-.4.1-.7.2-1.1.5z"/><path d="m297.4 217.6c-.2-.1-.4-.2-.5-.3-.1-.2-.1-.4 0-.5.1-.2.3-.3.5-.4 1.6-1 3.2-2 4.8-3 .7-.5 1.4-.9 2.1-1.4.3-.3.6-.6.9-.9.1-.1.2-.3.4-.4.3-.1.7-.1 1-.2 0 .3.2.8.1 1-.4.5-.8 1-1.3 1.4s-1.2.7-1.7 1.1c-1.7 1.1-3.4 2.1-5.1 3.2-.4.1-.8.2-1.2.4z"/><path d="m288.8 214.1c-.2-.1-.5-.3-.5-.5s.2-.5.4-.6c1-.4 2.1-.6 3-1 1.6-.8 3.2-1.6 4.8-2.5l.6-.3c.4-.2.8-.4 1.1.1s-.1.8-.4 1c-.5.3-1 .7-1.6.9-1.8.9-3.7 1.7-5.6 2.5-.5.2-1.1.3-1.8.4z"/><path d="m321.4 209.5c.1.3.4.5.3.8 0 .3-.2.7-.4 1-1.2 1.7-2.4 3.4-3.6 5.1-.1.1-.2.2-.3.3-.2.1-.6.2-.7.1s-.2-.5-.1-.7c.2-.5.5-.9.8-1.4 1-1.5 1.9-2.9 2.9-4.4.2-.3.5-.5.7-.8z"/><path d="m337.5 142c.1 1.2.3 2.6.4 3.9 0 .3.2.5.1.8 0 .2-.2.5-.3.7-.3-.1-.7-.2-.8-.4-.2-.7-.4-1.3-.4-2-.1-1.2 0-2.3 0-3.5-.3-.1-.5-.2-.9-.3-.1.4-.1.7-.2 1-.2 1.2-.2 2.5.4 3.7.1.2.2.5.2.8 0 .2-.2.6-.4.6s-.6-.1-.7-.3c-.6-1.3-1-2.7-.8-4.1.1-.6.1-1.2.2-1.8-1.2-.5-2.4-.9-3.6-1.5-.1.6-.3 1.3-.5 2.1-.1.6-.1 1.2-.2 1.8-.1.3-.4.5-.5.7-.2-.2-.5-.4-.5-.7-.1-2 .1-3.9 1.3-5.6.8-1.1 1.7-2 2.8-2.8 1.5-1.1 3.2-2 5.1-2.4 3.6-.7 7.3-.7 10.6 1 1.8.9 3.1 2.3 3.5 4.3.2.7.4 1.5.6 2.2v.2c-.3 1.9-.5 3.9-.8 5.8-.1.4-.3.7-.8.6s-.5-.5-.4-.9c.2-1.4.4-2.9.6-4.4-1.6.5-3 1.3-4.6 1.2-.3 1.4-.5 2.8-.8 4.1-.1.4-.3.8-.8.6-.5-.1-.4-.5-.3-.9.3-1.2.5-2.5.8-3.8-.3 0-.6 0-.8 0-.3 1.3-.5 2.6-.8 4-.1.4-.3.7-.7.6-.5-.1-.5-.4-.4-.8.3-1.2.5-2.5.8-3.7-2.2-.3-4.2-.6-6.4-.8zm13.1-5.5c-.4.3-.6.4-.8.5-2.2 1.3-4.1.6-4.7-1.7-.1-.4 0-.9-.1-1.4 0-.2-.2-.4-.4-.4-1.1-.1-2.2-.1-3.4-.1-.5 0-.9.1-1 .7-.3 1.3-2 2.5-3.2 2.4-1-.1-1.9-.4-3.1-.7-.8.8-1.7 1.7-2.6 2.6 1.3.9 2.7 1.2 4.1 1.6 2.2.6 4.3 1.4 6.7 1.3.6 0 1.3.1 2 .1 2.5.3 4.9 0 7.1-1.1.1-.1.3-.3.3-.4-.3-1.1-.6-2.2-.9-3.4zm-4.2-2.7c-.3.9.1 2.2.9 2.6.6.3 1.7-.1 2.4-.9-1.2-.6-2.2-1.1-3.3-1.7zm-10.9 1.1c2 .6 3.3.1 3.5-1.4-1.1.4-2.2.9-3.5 1.4z"/><path d="m325.3 140.3c-.2-4.5 2.2-7.6 6.1-10 2.9-1.8 6.1-2.4 9.5-2.3 2.5.1 5.2.3 7.5 1.5 2.1 1.1 4.1 2.4 5.3 4.4.6.9 1.3 1.8 1.8 2.8.8 1.8 1.3 3.7 1.2 5.7v1.6c0 .3-.1.7-.4.9-.1.1-.5.2-.7.1-.1 0-.3-.4-.3-.5.3-2.3.2-4.5-.6-6.7-.2-.6-.5-1.2-.8-1.7-1.4-2.2-3-4.1-5.5-5.3-.6-.3-1.2-.4-1.7-.7-2.2-1-4.5-1.2-6.8-1.1-4 .1-7.7 1.5-10.6 4.3-2.1 2.1-3.1 4.7-2.6 7.6.1.5 0 1.1-.1 1.6 0 .2-.3.4-.4.4-.2 0-.5-.2-.5-.4-.3-.5-.4-1.4-.4-2.2z"/><path d="m298.6 183.8c-1.3 0-1.8.3-2.2 1.5-.1.3-.2.6-.4.8s-.6.4-.9.3c-.2-.1-.5-.4-.6-.7-.1-.9.3-1.7.8-2.4 1-1.4 2.4-1.7 4.1-1.3.6.1.8.5.8 1s-.4.7-.9.7c-.2.1-.5.1-.7.1z"/><path d="m291.7 234.9c.2.2.4.5.4.7s-.3.4-.5.6c-.2-.2-.5-.4-.6-.6 0-.2.3-.5.4-.7z"/><path d="m293.6 231.7c-.4.3-.6.6-.8.6s-.6-.3-.6-.5.3-.6.5-.6c.2-.1.5.2.9.5z"/><path d="m282.5 235.8c-.4.3-.6.6-.8.6s-.6-.4-.6-.6.3-.4.5-.6c.3.1.6.3.9.6z"/><path d="m285.2 238.6c.2.2.5.5.4.7 0 .2-.4.4-.5.6-.2-.2-.5-.4-.6-.6 0-.2.3-.5.4-.7z"/><path d="m290.1 238.3c-.4.3-.6.6-.8.6s-.4-.3-.7-.5c.2-.2.4-.5.6-.5.2-.1.5.2.9.4z"/></svg>