<svg height="1154.882" width="971.563" xmlns="http://www.w3.org/2000/svg" xmlns:xlink="http://www.w3.org/1999/xlink"><clipPath id="a"><path d="m0 923.906h777.25v-923.906h-777.25z"/></clipPath><g clip-path="url(#a)" transform="matrix(1.25 0 0 -1.25 0 1154.8825)"><path d="m0 0c-2.027-127.778-1.908-255.575 0-383.35 1.838-123.108 7.979-219.176 63.13-294.295 66.436-90.487 177.114-155.787 319.485-219.943 142.371 64.156 253.05 129.456 319.485 219.943 55.15 75.119 61.292 171.187 63.131 294.295 1.907 127.774 2.027 255.571 0 383.35z" fill="#1353b4" transform="translate(5.9565 904.9365)"/><path d="m0 0c-2.027-127.779-1.908-255.575 0-383.35 1.838-123.107 7.979-219.177 63.13-294.295 66.436-90.487 177.114-155.787 319.485-219.942 142.371 64.155 253.05 129.455 319.485 219.942 55.15 75.118 61.292 171.188 63.131 294.295 1.907 127.775 2.027 255.571 0 383.35z" fill="none" stroke="#540" stroke-width="2.571" transform="translate(5.9565 903.0796)"/></g><g transform="matrix(2.4754103 0 0 2.4754103 -53.346105 34.797034)"><use height="357.71" transform="translate(107.10059 -197.53384)" width="331.395" xlink:href="#b"/><use height="357.71" transform="translate(-107.09602 -197.53384)" width="331.395" xlink:href="#b"/><g id="b"><g transform="matrix(1.544499 0 0 1.544499 -546.22018 -911.43994)"><g fill="#ffe24b" fill-rule="evenodd" stroke-width="1.3" transform="translate(-20.41842 559.63855)"><path d="m502.0459 263.91545c.574-5.39646.2684-15.5749-2.5708-20.19983-.9594-1.56279-3.3097-3.38275-5.1418-3.30542-1.8055.0762-4.29.60986-5.1418 2.20361-.7808 1.46083-1.2877 4.59767-1.1018 6.24359.2582 2.28612 2.9382 6.97812 2.9382 6.97812s-9.6038-1.92736-12.8545-4.40724c-3.2162-2.45361-6.6875-7.10482-7.7126-11.01809-.3517-1.34254-1.7247-5.68443.009-10.89262 1.0064-3.02315 4.0336-7.06875 6.3762-9.08505 6.1173-5.2652 17.9963-3.73456 20.4255-2.42577 3.2127 1.73091 7.1281 5.41194 8.4472 8.81447 1.024 2.64119 3.1525 10.43714 3.6727 13.22171 1.0616 5.68278 1.3699 7.82674 1.8364 13.58897.3202 3.9551 1.2029 7.50631.3672 11.38536-.4502 2.08989-1.0125 6.88623-2.2337 10.04454-1.2278 3.17525-3.1176 4.71065-4.7444 6.11532-3.3233 2.86953-13.9563 4.40725-13.9563 4.40725s5.8421-7.36967 7.3454-10.65082c1.7852-3.89624 3.5866-6.7564 4.0399-11.0181z"/><path d="m528.08801 263.91545c-.574-5.39646-.2684-15.5749 2.5708-20.19983.9594-1.56279 3.3097-3.38275 5.1418-3.30542 1.8055.0762 4.29.60986 5.1418 2.20361.7808 1.46083 1.2877 4.59767 1.1018 6.24359-.2582 2.28612-2.9382 6.97812-2.9382 6.97812s9.6038-1.92736 12.8545-4.40724c3.2162-2.45361 6.6875-7.10482 7.7126-11.01809.3517-1.34254 1.7247-5.68443-.009-10.89262-1.0064-3.02315-4.0336-7.06875-6.3762-9.08505-6.1173-5.2652-17.9963-3.73456-20.4255-2.42577-3.2127 1.73091-7.1281 5.41194-8.4472 8.81447-1.024 2.64119-3.1525 10.43714-3.6727 13.22171-1.0616 5.68278-1.3699 7.82674-1.8364 13.58897-.3202 3.9551-1.2029 7.50631-.3672 11.38536.4502 2.08989 1.0125 6.88623 2.2337 10.04454 1.2278 3.17525 3.1176 4.71065 4.7444 6.11532 3.3233 2.86953 13.9563 4.40725 13.9563 4.40725s-5.8421-7.36967-7.3454-10.65082c-1.7852-3.89624-3.5866-6.7564-4.0399-11.0181z"/></g><path d="m517.54706 844.61882-2.80137-.0446-8.97216-2.81983-10.7666-9.48485-7.94677 7.56225-5.3833 2.56347-6.15233 2.05078-4.08412.27769s7.23206-4.86811 9.72798-7.60551c1.78505-1.95775 3.60515-5.05182 4.77556-7.42864 2.01675-4.09553 5.12929-14.32667 5.23761-14.39691l2.29241-.3439 4.42181.35374s3.11254 10.23114 5.12929 14.32667c1.17041 2.37682 2.99051 5.47089 4.77556 7.42864 2.49592 2.7374 9.74643 7.56096 9.74643 7.56096z" fill="#ddad00" fill-rule="evenodd"/><path d="m518.98386 815.22346s5.46203-2.30385 7.08927-4.15578c1.73525-1.97487 2.89854-5.49092 3.42241-8.06711.39458-1.9404-.56822-6.05815-1.46675-7.82265-1.35792-2.66665-3.02118-4.2082-5.86699-5.13361-1.95279-.63501-4.92025-.71602-6.84481 0-1.99803.74336-4.79405 2.47971-6.11144 4.15578-1.98632 2.52713-3.15688 5.4315-3.91133 8.55603-.46476 1.92479-1.50797 7.79863-1.46675 9.77831.0367 1.76124.24446 7.33373.24446 7.33373l3.66687 6.11144.0913-.27832-.27391-10.13469v-4.24562l1.91738-6.57385 3.14997-4.24561 3.69779-.54782 3.56083 1.78042 1.50651 3.83474-.27391 4.65648z" fill="#ddad00" fill-rule="evenodd"/><path d="m470.32717 815.21194s-5.46203-2.30385-7.08927-4.15578c-1.73525-1.97487-2.89854-5.49092-3.42241-8.06711-.39458-1.9404.56822-6.05815 1.46675-7.82265 1.35792-2.66665 3.02118-4.2082 5.86699-5.13361 1.95279-.63501 4.92025-.71602 6.84481 0 1.99803.74336 4.79405 2.47971 6.11144 4.15578 1.98632 2.52713 3.15688 5.4315 3.91133 8.55603.46476 1.92479 1.50797 7.79863 1.46675 9.77831-.0367 1.76124-.24446 7.33373-.24446 7.33373l-3.66687 6.11144-.0913-.27832.27391-10.13469v-4.24562l-1.91738-6.57385-3.14997-4.24561-3.69779-.54782-3.56083 1.78042-1.50651 3.83474.27391 4.65648z" fill="#ddad00" fill-rule="evenodd"/><g fill="none" stroke="#540" stroke-width="1.3" transform="translate(-20.41842 559.63855)"><path d="m502.0459 263.91545c.574-5.39646.2684-15.5749-2.5708-20.19983-.9594-1.56279-3.3097-3.38275-5.1418-3.30542-1.8055.0762-4.29.60986-5.1418 2.20361-.7808 1.46083-1.2877 4.59767-1.1018 6.24359.2582 2.28612 2.9382 6.97812 2.9382 6.97812s-9.6038-1.92736-12.8545-4.40724c-3.2162-2.45361-6.6875-7.10482-7.7126-11.01809-.3517-1.34254-1.7247-5.68443.009-10.89262 1.0064-3.02315 4.0336-7.06875 6.3762-9.08505 6.1173-5.2652 17.9963-3.73456 20.4255-2.42577 3.2127 1.73091 7.1281 5.41194 8.4472 8.81447 1.024 2.64119 3.1525 10.43714 3.6727 13.22171 1.0616 5.68278 1.3699 7.82674 1.8364 13.58897.3202 3.9551 1.2029 7.50631.3672 11.38536-.4502 2.08989-1.0125 6.88623-2.2337 10.04454-1.2278 3.17525-3.1176 4.71065-4.7444 6.11532-3.3233 2.86953-13.9563 4.40725-13.9563 4.40725s5.8421-7.36967 7.3454-10.65082c1.7852-3.89624 3.5866-6.7564 4.0399-11.0181z"/><path d="m528.08801 263.91545c-.574-5.39646-.2684-15.5749 2.5708-20.19983.9594-1.56279 3.3097-3.38275 5.1418-3.30542 1.8055.0762 4.29.60986 5.1418 2.20361.7808 1.46083 1.2877 4.59767 1.1018 6.24359-.2582 2.28612-2.9382 6.97812-2.9382 6.97812s9.6038-1.92736 12.8545-4.40724c3.2162-2.45361 6.6875-7.10482 7.7126-11.01809.3517-1.34254 1.7247-5.68443-.009-10.89262-1.0064-3.02315-4.0336-7.06875-6.3762-9.08505-6.1173-5.2652-17.9963-3.73456-20.4255-2.42577-3.2127 1.73091-7.1281 5.41194-8.4472 8.81447-1.024 2.64119-3.1525 10.43714-3.6727 13.22171-1.0616 5.68278-1.3699 7.82674-1.8364 13.58897-.3202 3.9551-1.2029 7.50631-.3672 11.38536.4502 2.08989 1.0125 6.88623 2.2337 10.04454 1.2278 3.17525 3.1176 4.71065 4.7444 6.11532 3.3233 2.86953 13.9563 4.40725 13.9563 4.40725s-5.8421-7.36967-7.3454-10.65082c-1.7852-3.89624-3.5866-6.7564-4.0399-11.0181z"/></g><path d="m455.61301 801.25465s.47536-3.76408.89556-5.5972c.51681-2.25464 1.65434-5.3763 3.35833-6.94055 1.80107-1.65338 4.52965-2.95197 6.94054-3.35833 2.12047-.35741 5.07955-.30279 7.16443.22389 1.60176.40464 3.51555 1.60179 4.92554 2.46277 1.06629.65111 3.35833 2.46278 3.35833 2.46278s-4.16597-6.60661-6.94054-8.28388c-2.70584-1.63572-7.13812-2.32138-10.29887-2.23888-2.29667.06-4.80369 1.19045-6.71665 2.46278-2.27105 1.51049-4.70926 4.58552-5.59721 7.16443-.63413 1.84171-.55613 4.626 0 6.49276.59571 1.99964 2.91054 5.14943 2.91054 5.14943z" fill="#fff2ac" fill-rule="evenodd"/><path d="m513.82401 785.13468s5.68852-.93856 8.05999-.44777c2.94145.60875 6.807 2.37861 8.95554 4.47777 1.84824 1.80576 4.02999 7.6122 4.02999 7.6122s.18074-6.09356-.67167-8.50776c-.51482-1.45807-1.73242-3.25237-2.91055-4.25388-1.80858-1.53744-4.79092-3.32484-7.16443-3.35832-1.24635-.0176-4.09965-.0809-5.78967.69266-2.87788 1.31723-4.5092 3.7851-4.5092 3.7851z" fill="#fff2ac" fill-rule="evenodd"/></g><g transform="matrix(1.544499 0 0 1.544499 -546.220172 -911.43994)"><g stroke-width="1.3" transform="translate(-15.41843 9.63855)"><path d="m510 854s8.58079-7.03775 10-15c1.27665-7.16228-4.4103-15.5515-4.84132-18.92499-1.72367-13.49216 1.92936-31.46657 2.25863-32.93573 1.30797-5.83607 2.95399-8.33308 3.83033-10.24414.63083-1.37567 2.43333-4.1112 4.23574-6.76319 1.03432-1.52175 3.33777-4.35506 4.51118-7.23688 1.24372-3.0544 1.32896-6.16333 1.34698-7.82303.0307-2.8265-.50296-5.23079-1.25324-7.53217-.71305-2.18762-3.03665-5.76776-6.40372-7.82555-3.63004-2.21837-6.56481-4.00185-7.68157-4.70812-3.68897-2.33303-5.95948-10.0062-6.00301-10.0062-.0434 0-2.31409 7.67317-6.00305 10.0062-1.11676.70627-3.91757 2.48975-7.54761 4.70812-3.36709 2.05779-5.69067 5.63793-6.40372 7.82555-.75028 2.30138-1.28395 4.70567-1.25324 7.53217.018 1.6597.10326 4.76863 1.34698 7.82303 1.1734 2.88182 3.47686 5.71513 4.51118 7.23688 1.80241 2.65199 3.60491 5.38752 4.23574 6.76319.87634 1.91106 2.52236 4.40807 3.83033 10.24414.32927 1.46916 3.9823 19.44357 2.25863 32.93573-.43102 3.37349-6.25189 11.76271-4.97524 18.92499 1.41921 7.96225 10 15 10 15z" fill="#ffe24b" fill-rule="evenodd"/><path d="m510 854-.0108-127.95534" fill="none" stroke="#9e7500"/></g><path d="m494.84211 863.37821 6.99614-7.80339 2.69082-5.11256-.53817-6.99613-1.88357-7.26522-2.95991-6.45797v-10.49421l1.07633-10.4942 1.34541-11.57054 2.95991-9.14879 4.84348-6.72706 4.03623-6.99613 1.61449-3.76715.80725-6.72706-1.07633-6.45797-3.40685-5.45931-6.54919-4.49673s3.88019 4.36223 6.4255 8.4648c1.36661 2.20273 1.34965 4.90514 1.37788 5.52747.12071 2.66118-.0818 3.89476-.80725 6.45798-.67117 2.37126-2.09366 4.97104-3.49806 6.99613-1.57353 2.26898-4.38725 4.81004-5.65073 7.26522-1.81147 3.52004-3.0338 8.75658-3.76715 12.64686-.90035 4.77615-1.02418 11.29529-1.34541 16.14493-.32585 4.91938-1.1972 11.4993-.80725 16.41401.24795 3.12496 1.5999 7.5066 2.15266 10.22513.38233 1.88033 1.37033 4.28568 1.61449 6.18889.23625 1.84157.25266 4.34949 0 6.18889-.28519 2.07624-1.08341 4.79008-1.88357 6.72705-.88312 2.13779-3.76715 6.72706-3.76715 6.72706z" fill="#ddad00" fill-rule="evenodd"/><path d="m485.42423 851.53859s.16406-4.17623.53817-5.91981c.5195-2.42118 1.81972-5.48537 2.69082-7.80338.82791-2.20308 2.47146-4.96296 2.9599-7.26522 1.07274-5.05636.83937-12.06114.53817-17.22126-.22353-3.82939-1.34418-8.84907-1.88358-12.64686-.42382-2.98401-1.2165-7.62932-2.15266-10.4942-.99855-3.05582-2.63382-6.95705-4.30531-9.70318-1.42022-2.33331-3.34386-4.62924-5.11256-6.71084-1.36803-1.61005-5.11256-4.84348-5.11256-4.84348l.52033.19614.61759 2.8821 2.47037 4.11728 2.47037 4.52901 4.11728 6.38179 2.67624 6.79351 1.44104 7.20524 1.23519 9.88148.61759 9.88147v9.26389l-2.2645 4.73487-2.67624 7.20524-.82345 5.97006z" fill="#ddad00" fill-rule="evenodd"/><path d="m494.58157 863.63855s8.58079-7.03775 10-15c1.27665-7.16228-4.4103-15.5515-4.84132-18.92499-1.72367-13.49216 1.92936-31.46657 2.25863-32.93573 1.30797-5.83607 2.95399-8.33308 3.83033-10.24414.63083-1.37567 2.43333-4.1112 4.23574-6.76319 1.03432-1.52175 3.33777-4.35506 4.51118-7.23688 1.24372-3.0544 1.32896-6.16333 1.34698-7.82303.0307-2.8265-.50296-5.23079-1.25324-7.53217-.71305-2.18762-3.03665-5.76776-6.40372-7.82555-3.63004-2.21837-6.56481-4.00185-7.68157-4.70812-3.68897-2.33303-6.00301-10.0062-6.00301-10.0062s-2.31409 7.67317-6.00305 10.0062c-1.11676.70627-3.91757 2.48975-7.54761 4.70812-3.36709 2.05779-5.69067 5.63793-6.40372 7.82555-.75028 2.30138-1.28395 4.70567-1.25324 7.53217.018 1.6597.10326 4.76863 1.34698 7.82303 1.1734 2.88182 3.47686 5.71513 4.51118 7.23688 1.80241 2.65199 3.60491 5.38752 4.23574 6.76319.87634 1.91106 2.52236 4.40807 3.83033 10.24414.32927 1.46916 3.9823 19.44357 2.25863 32.93573-.43102 3.37349-6.25189 11.76271-4.97524 18.92499 1.41921 7.96225 10 15 10 15z" fill="none" stroke="#540" stroke-width="1.3"/><path d="m489.82436 781.88416.73547-33.09624s-4.11865 3.08898-5.88378 4.41283c-1.32385.99289-3.58743 1.87537-4.41283 3.30963-1.88381 3.27342-2.71082 6.87906-1.1032 10.2966.95085 2.02135 4.36691 4.61167 5.88377 6.25152 2.04471 2.2105 4.78057 8.82566 4.78057 8.82566z" fill="#fff2ac" fill-rule="evenodd"/><path d="m498.28229 776.73586v-23.90284s1.31182 2.51989 2.20641 3.30962c.73974.65303 2.20914.81009 2.94189 1.47095 1.06815.96336 2.29399 2.63423 2.57415 4.04509.37094 1.86796-.18379 4.58372-1.10321 6.25151-.79178 1.43625-3.05477 2.37009-4.04509 3.67737-1.04271 1.37643-2.57415 5.1483-2.57415 5.1483z" fill="#fff2ac" fill-rule="evenodd"/><path d="m492.26781 853.22495c-.30737-3.18642-.23704-10.66435-.23704-10.66435s-2.71962 4.02223-3.17448 5.84169c-.24081.96324-.48167 3.0463-.23261 4.00744.56982 2.19902 4.28213 6.71229 4.28213 6.71229s-.49668-4.43201-.638-5.89707z" fill="#fff2ac" fill-rule="evenodd"/></g><g transform="matrix(1.544499 0 0 1.544499 -546.220126 -911.43994)"><path d="m513.85885 820.35686-4.1277-5.71831h-30.1496l-4.1434 5.71831 4.1434 5.6925h30.1496z" fill="#ffe24b" fill-rule="evenodd"/><path d="m477.69652 817.99066 34.196.18484-2.52619-3.57363-29.88299-.0616-1.78682 3.45041z" fill="#fff2ac" fill-rule="evenodd"/><path d="m511.75052 822.80242-34.196-.18484 2.52619 3.57363 29.88299.0616 1.78682-3.45041z" fill="#ddad00" fill-rule="evenodd"/><path d="m1104.2203 376.98337-4.1277-5.71831h-30.1496l-4.1434 5.71831 4.1434 5.6925h30.1496z" fill="none" stroke="#540" stroke-width="1.3" transform="translate(-590.36145 443.37349)"/></g></g></g></svg>