<svg clip-rule="evenodd" fill-rule="evenodd" height="167.89781mm" image-rendering="optimizeQuality" shape-rendering="geometricPrecision" text-rendering="geometricPrecision" viewBox="0 0 14482989 16789782" width="144.8299mm" xmlns="http://www.w3.org/2000/svg"><g transform="matrix(1.084412 0 0 1.084412 -17469608.3 16630150.37)"><g clip-rule="nonzero" image-rendering="auto" shape-rendering="auto" text-rendering="auto"><g transform="matrix(26458.334 0 0 26458.334 61970 118580)"><g fill-rule="nonzero"><path d="m858.89258-576.12695c-33.87436 214.24001-67.03274 429.26853-244.39258 485.306638 76.11715-9.452148 158.88587 27.657048 244.39258 83.9316401zm.0547 0v569.2382781c85.50669-56.2745921 168.27542-93.3837881 244.39252-83.9316401-177.3598-56.038108-210.51818-271.066628-244.39253-485.306638z" fill="#fff"/><path d="m859.23144-64.802301.11645-30.663554 105.9061-.425665c67.53531-.271442 103.61821-.105272 105.47851.02731 1.5856.113006 6.2073.494433 7.623.691895l9.5088 1.92434-9.5009.534047c-60.5477.715833-124.96967 24.250724-209.64788 79.380069-1.33187.867107-9.62293 6.1583954-9.67848 6.1583954-.0556 0 .20789-22.8422444.20789-46.2301904z" fill="#009b3a"/><path d="m856.1882-555.60938c-4.14496 19.84016-7.49733 44.55732-10.8527 64.18501-5.82899 34.10602-16.4701 85.29997-16.4701 85.29997l-2.54986 11.50917s-17.61167 69.65373-28.66705 99.93288c-.99719 2.73117-3.92519 11.27024-3.92519 11.36204s15.92168.16601 32.80019.16601h30.6875l1.60172-57.59375c-.49312-38.05384-.17971-76.79369-.23337-108.73242l.14775-51.26953.0916-27.54492c-.01-15.14976-.42368-34.88624-1.02267-35.92371z" fill="#fedf00"/><path d="m859.69959-565.62567-.79067 37.06512c1.11782 27.81122.55464 55.64427.41339 83.46855-.4706 21.25892.28814 42.80732-.14561 64.06704v45.73287l-1.01928 52.14365h33.25078 30.77539l-.27929-.66992c-.88711-2.12974-3.75732-14.26949-6.11919-21.34591-5.34626-16.01799-10.08917-30.60613-14.79903-48.20487-3.41794-15.39142-5.88222-24.92854-9.25653-39.34072-6.76438-29.86229-13.70419-65.11596-20.23155-103.93076-.63812-5.19971-1.8329-10.84647-2.61062-15.44532-.87834-5.29485-2.26483-15.14-3.3495-21.8789s-2.06769-14.1528-2.45113-16.47461z" fill="#009b3a"/><path d="m819.80078-95.007812-87.48743-1.145009-82.65015.03906-7.28316.741929c-2.89521.374994-11.26361 1.830938-11.4913 2.264231-.20485.389851 6.91094.547554 9.69238.599707 7.29003.13669 13.9343.560715 20.97592 1.304135 31.34625 3.30938 64.46973 13.151499 101.13989 29.89829 16.59886 7.580486 35.81858 17.517417 52.5709 27.31215 5.43919 3.305858 2.67071 1.50044 9.95703 5.869141 9.37929 5.624595 17.9719 11.133924 27.33959 17.191791 2.60279 1.6831686 5.27245 3.4612709 5.93247 3.4197396-.16202-1.4363691.21911-45.1380366.21911-45.1380366l-1.3469-42.353226h-18.7832-18.78516z" fill="#fedf00"/></g><path d="m858.89258-576.12695c-33.87436 214.24001-67.03274 429.26853-244.39258 485.306638 76.11715-9.452148 158.88587 27.657048 244.39258 83.9316401zm.0547 0v569.2382781c85.50669-56.2745921 168.27542-93.3837881 244.39252-83.9316401-177.3598-56.038108-210.51818-271.066628-244.39253-485.306638z" fill="none" stroke="#000" stroke-linecap="round" stroke-linejoin="round" stroke-width="2"/></g><g stroke="#000" stroke-linecap="round" stroke-linejoin="round"><path d="m21072155-7333082.7h3430810" fill="#f8c300" fill-rule="nonzero" stroke-width="60996.960436"/><g fill="none" stroke-width="52916.667969"><path d="m22771050-2436599.8h-5392590c-349486-12252.70000000019-587583 64034.89999999991-822924 94179.1000000001"/><path d="m22811503-2436599.8h5392590c349486-12252.70000000019 594325 74629.6000000001 829666 104773.79999999981"/></g></g><g transform="translate(-3663735.4 -7224625.2)"><path d="m24330762 5916152c-94058-42852.79999999982-219481-75284.29999999981-227722-106020.70000000019-5022-18730.29999999981-9225-992024.2000000002-9341-2244450.6l-211-2277138.6 94526-188541.8999999999c198320-395569.25 449423-1000782.74 645706-1556298.48l96677-273611.18999999994 1518773 3927.47999999998 1518774 3927.20999999996 120067 331325.81c212021 585074.72 384423 1002249.3599999999 591664 1431690.07l129427 268196.80000000005v2299855.7c0 2082951.6999999997-2299 2300737.9-24377 2309209.9-24730 9489.79999999981-4236091 4804-4452602-4795.90000000037-117141-47673.79999999981 64020 4086.5-1361 2724.40000000037z" fill="#fff" fill-rule="nonzero"/><path d="m24330762 5916152c-87208-46615-189135-73486.20000000019-229972-117614.90000000039-3969-265703.2999999998-6993-1173269.7999999998-7091-2232856.4l-211-2277138.6 94526-188541.8999999999c198320-395569.25 449423-1000782.74 645706-1556298.48l104850-273611.18999999994 1510600 3927.47999999998 1518774 3927.20999999996 120067 331325.81c212021 585074.72 384423 1002249.3599999999 591664 1431690.07l129427 268196.80000000005v2299855.7c0 1435737.4999999995-9001 2203271.9999999995-9001 2203271.9999999995s-78777 38316.40000000038-222793 109262.09999999961c-882491 5472.5-4014051 2859.29999999981-4200235-5395.90000000037z" fill="none" stroke="#000" stroke-linecap="round" stroke-linejoin="round" stroke-width="52916.667969"/></g><g fill-rule="evenodd" transform="translate(2445367.6 -10762827)"><g fill-rule="nonzero"><g fill="#fedf00" stroke="#000" stroke-linecap="square" stroke-width="60996.960436"><g transform="translate(3590647 2274944.8)"><path d="m15645635 757091.2h364210v592610h-364210z"/><path d="m17857455 757091.2h-364210v592610h364210z"/></g><path d="m19983658 3032036h717070v592610h-717070z"/><path d="m19159956 3452760h2364473.5v518420.96999999974h-2364473.5z"/><g transform="translate(3590647 2274944.8)"><path d="m15516316 1023021.2v193484.5l-233010 182155.6000000001v239039.8999999999h520760v-614680z"/><path d="m15210736 1612091.2h665900v85370h-665900z"/><path d="m17982505 1023021.2v193484.5l233010 182155.6000000001v239039.8999999999h-520760v-614680z"/><path d="m-18292354 1612091.2h665900v85370h-665900z" transform="scale(-1 1)"/></g><path d="m20422471.44687 3297966h459714.66000000015v652018.94h-459714.66000000015z"/><path d="m20422471.44687 3670076h459714.66000000015v279908.93999999994h-459714.66000000015z"/><path d="m19802198.44687 3297966h459714.66000000015v652018.94h-459714.66000000015z"/><path d="m19802198.44687 3670076h459714.66000000015v279908.93999999994h-459714.66000000015z"/><path d="m19720978.9 3888598.6h1242426.8000000007v82233.875h-1242426.8000000007z"/></g><path d="m18701135.8 4026890.4h3282112.5v4472293h-3282112.5z" fill="#009b3a"/></g><path d="m18701135.8 4026890.4h3282112.5v4472293h-3282112.5z" fill="none" stroke="#000" stroke-linecap="round" stroke-linejoin="round" stroke-width="79375"/><path d="m20341624 4695535.4-229289 229185h160507v297966.2999999998l-160507 160455.7000000002v650606h-650038l-160455 160455h-297966v-160455l-229185 229288 229185 229289v-160507h297966l160455 160507h650038v650606.0999999996l160456 160455v297966.9000000004h-160456l229289 229185 229288-229185h-160507v-297966.9000000004l160507-160455v-650916.0999999996l-229288 229185.09999999963-228979-228875.09999999963h569l-229185-229289 229185-229288h-569l228979-228875 229288 229185v-650916l-160455-160455.7000000002v-297966.2999999998h160455zm229546 1338213 229185 229288-229185 229289h650917l160455-160456h297967v160456l229184-229289-229184-229288v160507h-297967l-160455-160507z" fill="#fedf00" fill-rule="nonzero"/><path d="m18677746 4001675.2h3328890v4500569.999999999h-3328890z" fill="none"/></g></g><g style="clip-rule:evenodd;fill-rule:evenodd;image-rendering:optimizeQuality;shape-rendering:geometricPrecision;text-rendering:geometricPrecision;stroke:#000;stroke-width:2645.833496" transform="scale(.88415164 1.1310277)"><path d="m23490050-1393456-152849-394500.3000000001h56511l102527 286591.30000000005q12378 34444.80000000005 20721 64583.89999999991 9149-32291.89999999991 21258-64583.89999999991l106564-286591.30000000005h53282l-154464 394500.3000000001z"/><path d="m23746502-1393456v-394500.3000000001h285245v46554.30000000005h-233040v120825.80000000005h218240v46285.19999999995h-218240v134280.69999999995h242190v46554.30000000005z"/><path d="m24113015-1393456v-394500.3000000001h53551l207207 309733.90000000014v-309733.8999999999h50053v394500.3000000001h-53551l-207207-310002.90000000014v310002.8999999999z"/><path d="m24612196-1393456v-347946h-129976v-46554.30000000005h312694v46554.30000000005h-130513v347946z"/><path d="m24961487-1393456-152849-394500.3000000001h56511l102527 286591.30000000005q12379 34444.80000000005 20721 64583.89999999991 9149-32291.89999999991 21259-64583.89999999991l106563-286591.30000000005h53282l-154463 394500.3000000001z"/><path d="m25217670-1393456v-394500.3000000001h174915q52743 0 80192 10764 27448 10494.89999999991 43863 37404.89999999991 16415 26910 16415 59471.10000000009 0 41979.5-27179 70773.19999999995-27179 28793.69999999996-83959 36597.6000000001 20720 9956.60000000009 31484 19644.19999999995 22874 20989.80000000005 43325 52474.5l68621 107370.80000000005h-65660l-52206-82075.3999999999q-22873-35521.19999999996-37674-54358.19999999995-14800-18837-26641-26371.80000000005-11571-7534.69999999995-23680-10494.80000000005-8881-1883.69999999995-29063-1883.69999999995h-60548v175183.8999999999zm52205-220392.69999999995h112215q35790 0 55973-7265.69999999995 20182-7534.80000000005 30677-23680.80000000005 10495-16415.10000000009 10495-35521.1000000001 0-27986.39999999991-20452-46016.10000000009-20182-18029.69999999995-64045-18029.69999999995h-124863z"/><path d="m25624011-1393456v-394500.3000000001h52205v394500.3000000001z"/><path d="m25750218-1520202 49246-4305.60000000009q3498 29601 16146 48707.10000000009 12916 18837 39826 30677.30000000005 26910 11571.30000000005 60548 11571.30000000005 29870 0 52743-8880.30000000005 22874-8880.19999999995 33907-24218.89999999991 11302-15607.80000000005 11302-33906.6000000001 0-18567.89999999991-10764-32292-10764-13993.19999999995-35521-23411.69999999996-15877-6189.30000000005-70235-19106-54358-13185.89999999991-76155-24757.19999999996-28256-14800.5-42249-36597.6000000001-13724-22066.19999999995-13724-49245.19999999995 0-29870.1000000001 16953-55703.69999999995 16954-26102.69999999996 49515-39557.69999999996 32561-13454.89999999991 72387-13454.89999999991 43864 0 77232 14262.19999999995 33638 13993.19999999995 51667 41441.39999999991 18030 27448.19999999996 19375 62162.10000000009l-50052 3767.30000000005q-4037-37404.80000000005-27448-56510.89999999991-23143-19106.10000000009-68621-19106.10000000009-47361 0-69158 17491.5-21528 17222.39999999991-21528 41710.5 0 21258.80000000005 15338 34982.89999999991 15070 13724.10000000009 78577 28255.5 63777 14262.30000000005 87458 25026.30000000005 34445 15876.89999999991 50860 40364.89999999991 16415 24219 16415 55972.80000000005 0 31484.69999999996-18030 59471-18030 27717.30000000005-51936 43325.1000000001-33638 15338.69999999995-75886 15338.69999999995-53551 0-89880-15607.80000000005-36059-15607.80000000005-56780-46823.39999999991-20451-31484.6000000001-21528-71042.30000000005z"/><path d="m26401709-1393456-152849-394500.3000000001h56511l102527 286591.30000000005q12379 34444.80000000005 20721 64583.89999999991 9149-32291.89999999991 21259-64583.89999999991l106563-286591.30000000005h53282l-154463 394500.3000000001z"/><path d="m26658161-1393456v-394500.3000000001h285246v46554.30000000005h-233041v120825.80000000005h218240v46285.19999999995h-218240v134280.69999999995h242190v46554.30000000005z"/><path d="m27024675-1393456v-394500.3000000001h53551l207207 309733.90000000014v-309733.8999999999h50052v394500.3000000001h-53551l-207206-310002.90000000014v310002.8999999999z"/><path d="m27523855-1393456v-347946h-129975v-46554.30000000005h312694v46554.30000000005h-130514v347946z"/><path d="m27769274-1393456v-394500.3000000001h52205v394500.3000000001z"/><path d="m27895482-1520202 49245-4305.60000000009q3498 29601 16146 48707.10000000009 12917 18837 39827 30677.30000000005 26910 11571.30000000005 60547 11571.30000000005 29870 0 52744-8880.30000000005 22873-8880.19999999995 33906-24218.89999999991 11302-15607.80000000005 11302-33906.6000000001 0-18567.89999999991-10764-32292-10764-13993.19999999995-35521-23411.69999999996-15877-6189.30000000005-70235-19106-54358-13185.89999999991-76155-24757.19999999996-28255-14800.5-42249-36597.6000000001-13724-22066.19999999995-13724-49245.19999999995 0-29870.1000000001 16954-55703.69999999995 16953-26102.69999999996 49514-39557.69999999996 32561-13454.89999999991 72388-13454.89999999991 43863 0 77231 14262.19999999995 33638 13993.19999999995 51667 41441.39999999991 18030 27448.19999999996 19376 62162.10000000009l-50053 3767.30000000005q-4036-37404.80000000005-27448-56510.89999999991-23143-19106.10000000009-68620-19106.10000000009-47362 0-69159 17491.5-21528 17222.39999999991-21528 41710.5 0 21258.80000000005 15339 34982.89999999991 15069 13724.10000000009 78577 28255.5 63776 14262.30000000005 87457 25026.30000000005 34445 15876.89999999991 50860 40364.89999999991 16415 24219 16415 55972.80000000005 0 31484.69999999996-18030 59471-18029 27717.30000000005-51936 43325.1000000001-33637 15338.69999999995-75886 15338.69999999995-53551 0-89879-15607.80000000005-36060-15607.80000000005-56780-46823.39999999991-20452-31484.6000000001-21528-71042.30000000005z"/></g></g></svg>