<svg fill-rule="evenodd" height="885.47467" viewBox="0 0 19897.13 24990.063" width="705.01642" xmlns="http://www.w3.org/2000/svg"><g transform="translate(-1053.9351 -1340.935)"><path d="m1414 12893 761-1789-685-1636 1217-1065-38-2207 1522-761 609-1865 1903-76 951-1408 1979 342 1522-1065 1522 1065 1941-456 913 1522 2017 38 495 1903 1674 799-152 1978 1293 1256-723 1674 800 1865-1751 1218 723 1179-3843 1827-8866-76-4643-990 305-2054z" fill="#e0dd15"/><g fill="#373435" fill-rule="nonzero"><path d="m1832 13224 8 43h-1-1-1-1-1-1-1-1-1-1-1-1-1-1l-1-1-1-1-1-1-1-1-1-1-1-1-1-1-1-1-1-1-1-1-1-1-1-1v-1-1-1-1-1-1-1-1-1-1-1-1-1-1-1-1-1-1-1-1l1-1 1-1 1-1 1-1 1-1 1-1 1-1 1-1 1-1 1-1 1-1 1-1h1 1 1 1 1 1zm7950-1509-7941 1552-8-43 7941-1552zm0 0-8-43h1 1 1 1 1 1 1 1 1 1 1 1 1 1l1 1 1 1 1 1 1 1 1 1 1 1 1 1 1 1 1 1 1 1 1 1 1 1v1 1 1 1 1 1 1 1 1 1 1 1 1 1 1 1 1 1 1 1l-1 1-1 1-1 1-1 1-1 1-1 1-1 1-1 1-1 1-1 1-1 1-1 1h-1-1-1-1-1-1z"/><path d="m2879 14105 15 42h-1-1-1-1-1-1-1-1-1-1-1-1-1-1-1-1-1l-1-1-1-1-1-1-1-1-1-1-1-1-1-1-1-1-1-1-1-1-1-1-1-1-1-1v-1-1-1-1-1-1-1-1-1-1-1-1-1-1-1-1-1-1-1l1-1 1-1 1-1 1-1 1-1 1-1 1-1 1-1 1-1 1-1 1-1 1-1 1-1h1 1zm6880-2386-6865 2427-15-42 6865-2427zm0 0-15-42h1 1 1 1 1 1 1 1 1 1 1 1 1 1 1 1 1l1 1 1 1 1 1 1 1 1 1 1 1 1 1 1 1 1 1 1 1 1 1 1 1 1 1v1 1 1 1 1 1 1 1 1 1 1 1 1 1 1 1 1 1 1l-1 1-1 1-1 1-1 1-1 1-1 1-1 1-1 1-1 1-1 1-1 1-1 1-1 1h-1-1z"/><path d="m2711 13959 14 42h-1-1-1-1-1-1-1-1-1-1-1-1-1-1-1-1-1l-1-1-1-1-1-1-1-1-1-1-1-1-1-1-1-1-1-1-1-1-1-1-1-1v-1-1-1-1-1-1-1-1-1-1-1-1-1-1-1-1-1-1-1-1l1-1 1-1 1-1 1-1 1-1 1-1 1-1 1-1 1-1 1-1 1-1 1-1 1-1h1 1zm7095-2411-7081 2453-14-42 7081-2453zm0 0-14-42h1 1 1 1 1 1 1 1 1 1 1 1 1 1 1 1 1l1 1 1 1 1 1 1 1 1 1 1 1 1 1 1 1 1 1 1 1 1 1 1 1v1 1 1 1 1 1 1 1 1 1 1 1 1 1 1 1 1 1 1 1l-1 1-1 1-1 1-1 1-1 1-1 1-1 1-1 1-1 1-1 1-1 1-1 1-1 1h-1-1z"/><path d="m2456 13706 12 42h-1-1-1-1-1-1-1-1-1-1-1-1-1-1-1l-1-1-1-1-1-1-1-1-1-1-1-1-1-1-1-1-1-1-1-1-1-1-1-1-1-1v-1-1-1-1-1-1-1-1-1-1-1-1-1-1-1-1-1-1-1l1-1 1-1 1-1 1-1 1-1 1-1 1-1 1-1 1-1 1-1 1-1 1-1 1-1h1 1 1 1zm7276-1981-7264 2024-12-42 7264-2024zm0 0-12-42h1 1 1 1 1 1 1 1 1 1 1 1 1 1 1l1 1 1 1 1 1 1 1 1 1 1 1 1 1 1 1 1 1 1 1 1 1 1 1 1 1v1 1 1 1 1 1 1 1 1 1 1 1 1 1 1 1 1 1 1l-1 1-1 1-1 1-1 1-1 1-1 1-1 1-1 1-1 1-1 1-1 1-1 1-1 1h-1-1-1-1z"/><path d="m2190 13473 10 43h-1-1-1-1-1-1-1-1-1-1-1-1-1-1-1l-1-1-1-1-1-1-1-1-1-1-1-1-1-1-1-1-1-1-1-1-1-1-1-1v-1-1-1-1-1-1-1-1-1-1-1-1-1-1-1-1-1-1-1-1l1-1 1-1 1-1 1-1 1-1 1-1 1-1 1-1 1-1 1-1 1-1 1-1h1 1 1 1 1zm7490-1739-7480 1782-10-43 7480-1782zm0 0-10-43h1 1 1 1 1 1 1 1 1 1 1 1 1 1 1l1 1 1 1 1 1 1 1 1 1 1 1 1 1 1 1 1 1 1 1 1 1 1 1v1 1 1 1 1 1 1 1 1 1 1 1 1 1 1 1 1 1 1 1l-1 1-1 1-1 1-1 1-1 1-1 1-1 1-1 1-1 1-1 1-1 1-1 1h-1-1-1-1-1z"/><path d="m1583 12605h-1-1-1-1-1-1-1-1-1-1-1-1l-1-1-1-1-1-1-1-1-1-1-1-1-1-1-1-1-1-1-1-1-1-1-1-1-1-1v-1-1-1-1-1-1-1-1-1-1-1-1-1-1-1-1-1-1-1l1-1 1-1 1-1 1-1 1-1 1-1 1-1 1-1 1-1 1-1 1-1 1-1 1-1h1 1 1 1 1 1 1l5 44zm8096-1012 5 44-8101 968-5-44zm0 0h1 1 1 1 1 1 1 1 1 1 1 1l1 1 1 1 1 1 1 1 1 1 1 1 1 1 1 1 1 1 1 1 1 1 1 1 1 1v1 1 1 1 1 1 1 1 1 1 1 1 1 1 1 1 1 1 1l-1 1-1 1-1 1-1 1-1 1-1 1-1 1-1 1-1 1-1 1-1 1-1 1-1 1h-1-1-1-1-1-1-1l-5-44z"/><path d="m2111 11372h-1-1-1-1-1-1-1-1-1-1l-1-1-1-1-1-1-1-1-1-1-1-1-1-1-1-1-1-1-1-1-1-1-1-1-1-1v-1-1-1-1-1-1-1-1-1-1-1-1-1-1-1-1-1-1-1l1-1 1-1 1-1 1-1 1-1 1-1 1-1 1-1 1-1 1-1 1-1 1-1 1-1h1 1 1 1 1 1 1 1 1l1 44zm7592-270 1 44-7593 226-1-44zm0 0h1 1 1 1 1 1 1 1 1 1l1 1 1 1 1 1 1 1 1 1 1 1 1 1 1 1 1 1 1 1 1 1 1 1 1 1v1 1 1 1 1 1 1 1 1 1 1 1 1 1 1 1 1 1 1l-1 1-1 1-1 1-1 1-1 1-1 1-1 1-1 1-1 1-1 1-1 1-1 1-1 1h-1-1-1-1-1-1-1-1-1l-1-44z"/><path d="m1983 11667h-1-1-1-1-1-1-1-1-1-1-1l-1-1-1-1-1-1-1-1-1-1-1-1-1-1-1-1-1-1-1-1-1-1-1-1v-1-1-1-1-1-1-1-1-1-1-1-1-1-1-1-1-1-1-1l1-1 1-1 1-1 1-1 1-1 1-1 1-1 1-1 1-1 1-1 1-1 1-1 1-1h1 1 1 1 1 1 1 1 1l2 44zm7664-319 2 44-7665 275-2-44zm0 0h1 1 1 1 1 1 1 1 1 1 1l1 1 1 1 1 1 1 1 1 1 1 1 1 1 1 1 1 1 1 1 1 1 1 1v1 1 1 1 1 1 1 1 1 1 1 1 1 1 1 1 1 1 1l-1 1-1 1-1 1-1 1-1 1-1 1-1 1-1 1-1 1-1 1-1 1-1 1-1 1h-1-1-1-1-1-1-1-1-1l-2-44z"/><path d="m1861 11961h-1-1-1-1-1-1-1-1-1-1-1l-1-1-1-1-1-1-1-1-1-1-1-1-1-1-1-1-1-1-1-1-1-1-1-1-1-1v-1-1-1-1-1-1-1-1-1-1-1-1-1-1-1-1-1-1-1l1-1 1-1 1-1 1-1 1-1 1-1 1-1 1-1 1-1 1-1 1-1 1-1 1-1h1 1 1 1 1 1 1 1l3 44zm7885-531 3 44-7887 487-3-44zm0 0h1 1 1 1 1 1 1 1 1 1 1l1 1 1 1 1 1 1 1 1 1 1 1 1 1 1 1 1 1 1 1 1 1 1 1 1 1v1 1 1 1 1 1 1 1 1 1 1 1 1 1 1 1 1 1 1l-1 1-1 1-1 1-1 1-1 1-1 1-1 1-1 1-1 1-1 1-1 1-1 1-1 1h-1-1-1-1-1-1-1-1l-3-44z"/><path d="m1734 12247h-1-1-1-1-1-1-1-1-1-1-1l-1-1-1-1-1-1-1-1-1-1-1-1-1-1-1-1-1-1-1-1-1-1-1-1-1-1v-1-1-1-1-1-1-1-1-1-1-1-1-1-1-1-1-1-1-1l1-1 1-1 1-1 1-1 1-1 1-1 1-1 1-1 1-1 1-1 1-1 1-1 1-1h1 1 1 1 1 1 1 1l4 44zm7894-705 4 44-7898 661-4-44zm0 0h1 1 1 1 1 1 1 1 1 1 1l1 1 1 1 1 1 1 1 1 1 1 1 1 1 1 1 1 1 1 1 1 1 1 1 1 1v1 1 1 1 1 1 1 1 1 1 1 1 1 1 1 1 1 1 1l-1 1-1 1-1 1-1 1-1 1-1 1-1 1-1 1-1 1-1 1-1 1-1 1-1 1h-1-1-1-1-1-1-1-1l-4-44z"/><path d="m17572 16516h1l1 1 1 1 1 1 1 1 1 1 1 1 1 1 1 1 1 1 1 1 1 1 1 1 1 1v1 1 1 1 1 1 1 1 1 1 1 1 1 1 1 1 1 1 1l-1 1-1 1-1 1-1 1-1 1-1 1-1 1-1 1-1 1-1 1-1 1-1 1-1 1h-1-1-1-1-1-1-1-1-1-1-1-1-1-1-1-1-1-1l18-40zm-7180-3160 18-40 7163 3200-18 40zm0 0h-1l-1-1-1-1-1-1-1-1-1-1-1-1-1-1-1-1-1-1-1-1-1-1-1-1-1-1v-1-1-1-1-1-1-1-1-1-1-1-1-1-1-1-1-1-1-1l1-1 1-1 1-1 1-1 1-1 1-1 1-1 1-1 1-1 1-1 1-1 1-1 1-1h1 1 1 1 1 1 1 1 1 1 1 1 1 1 1 1 1 1l-18 40z"/><path d="m18052 16286 1 1 1 1 1 1 1 1 1 1 1 1 1 1 1 1 1 1 1 1v1 1 1 1 1 1 1 1 1 1 1 1 1 1 1 1 1 1 1 1l-1 1-1 1-1 1-1 1-1 1-1 1-1 1-1 1-1 1-1 1-1 1-1 1h-1-1-1-1-1-1-1-1-1-1-1-1-1-1-1-1-1-1-1-1l-1-1-1-1 24-37zm-5888-3737 24-37 5865 3774-24 37zm0 0-1-1-1-1-1-1-1-1-1-1-1-1-1-1-1-1-1-1-1-1v-1-1-1-1-1-1-1-1-1-1-1-1-1-1-1-1-1-1-1-1l1-1 1-1 1-1 1-1 1-1 1-1 1-1 1-1 1-1 1-1 1-1 1-1h1 1 1 1 1 1 1 1 1 1 1 1 1 1 1 1 1 1 1 1l1 1 1 1-24 37z"/><path d="m18448 16068 1 1 1 1 1 1 1 1 1 1 1 1 1 1 1 1 1 1 1 1 1 1v1 1 1 1 1 1 1 1 1 1 1 1 1 1 1 1 1 1 1 1l-1 1-1 1-1 1-1 1-1 1-1 1-1 1-1 1-1 1-1 1-1 1-1 1-1 1h-1-1-1-1-1-1-1-1-1-1-1-1-1-1-1-1-1-1-1l-1-1 22-38zm-6247-3532 22-38 6225 3571-22 38zm0 0-1-1-1-1-1-1-1-1-1-1-1-1-1-1-1-1-1-1-1-1-1-1v-1-1-1-1-1-1-1-1-1-1-1-1-1-1-1-1-1-1-1-1l1-1 1-1 1-1 1-1 1-1 1-1 1-1 1-1 1-1 1-1 1-1 1-1 1-1h1 1 1 1 1 1 1 1 1 1 1 1 1 1 1 1 1 1 1l1 1-22 38z"/><path d="m18917 15866 1 1 1 1 1 1 1 1 1 1 1 1 1 1 1 1 1 1 1 1 1 1 1 1 1 1v1 1 1 1 1 1 1 1 1 1 1 1 1 1 1 1 1 1 1l-1 1-1 1-1 1-1 1-1 1-1 1-1 1-1 1-1 1-1 1-1 1-1 1h-1-1-1-1-1-1-1-1-1-1-1-1-1-1-1-1-1-1-1-1l20-39zm-6666-3310 20-39 6646 3349-20 39zm0 0-1-1-1-1-1-1-1-1-1-1-1-1-1-1-1-1-1-1-1-1-1-1-1-1-1-1v-1-1-1-1-1-1-1-1-1-1-1-1-1-1-1-1-1-1-1l1-1 1-1 1-1 1-1 1-1 1-1 1-1 1-1 1-1 1-1 1-1 1-1h1 1 1 1 1 1 1 1 1 1 1 1 1 1 1 1 1 1 1 1l-20 39z"/><path d="m19770 15147 13-42h1 1 1l1 1 1 1 1 1 1 1 1 1 1 1 1 1 1 1 1 1 1 1 1 1 1 1 1 1v1 1 1 1 1 1 1 1 1 1 1 1 1 1 1 1 1 1 1l-1 1-1 1-1 1-1 1-1 1-1 1-1 1-1 1-1 1-1 1-1 1-1 1-1 1h-1-1-1-1-1-1-1-1-1-1-1-1-1-1-1-1zm-7698-2398 7711 2356-13 42-7711-2356zm0 0-13 42h-1-1-1l-1-1-1-1-1-1-1-1-1-1-1-1-1-1-1-1-1-1-1-1-1-1-1-1-1-1v-1-1-1-1-1-1-1-1-1-1-1-1-1-1-1-1-1-1-1l1-1 1-1 1-1 1-1 1-1 1-1 1-1 1-1 1-1 1-1 1-1 1-1 1-1h1 1 1 1 1 1 1 1 1 1 1 1 1 1 1 1z"/><path d="m19447 14423 14-42h1 1 1l1 1 1 1 1 1 1 1 1 1 1 1 1 1 1 1 1 1 1 1 1 1 1 1v1 1 1 1 1 1 1 1 1 1 1 1 1 1 1 1 1 1 1 1l-1 1-1 1-1 1-1 1-1 1-1 1-1 1-1 1-1 1-1 1-1 1-1 1h-1-1-1-1-1-1-1-1-1-1-1-1-1-1-1-1-1zm-7024-2433 7038 2391-14 42-7038-2391zm0 0-14 42h-1-1-1l-1-1-1-1-1-1-1-1-1-1-1-1-1-1-1-1-1-1-1-1-1-1-1-1v-1-1-1-1-1-1-1-1-1-1-1-1-1-1-1-1-1-1-1-1l1-1 1-1 1-1 1-1 1-1 1-1 1-1 1-1 1-1 1-1 1-1 1-1h1 1 1 1 1 1 1 1 1 1 1 1 1 1 1 1 1z"/><path d="m19648 14742 13-42h1 1 1l1 1 1 1 1 1 1 1 1 1 1 1 1 1 1 1 1 1 1 1 1 1 1 1 1 1v1 1 1 1 1 1 1 1 1 1 1 1 1 1 1 1 1 1 1l-1 1-1 1-1 1-1 1-1 1-1 1-1 1-1 1-1 1-1 1-1 1-1 1-1 1h-1-1-1-1-1-1-1-1-1-1-1-1-1-1-1-1zm-7268-2285 7281 2243-13 42-7281-2243zm0 0-13 42h-1-1-1l-1-1-1-1-1-1-1-1-1-1-1-1-1-1-1-1-1-1-1-1-1-1-1-1-1-1v-1-1-1-1-1-1-1-1-1-1-1-1-1-1-1-1-1-1-1l1-1 1-1 1-1 1-1 1-1 1-1 1-1 1-1 1-1 1-1 1-1 1-1 1-1h1 1 1 1 1 1 1 1 1 1 1 1 1 1 1 1z"/><path d="m3021 16228 21 39-1 1h-1-1-1-1-1-1-1-1-1-1-1-1-1-1-1-1-1-1-1l-1-1-1-1-1-1-1-1-1-1-1-1-1-1-1-1-1-1-1-1-1-1-1-1-1-1v-1-1-1-1-1-1-1-1-1-1-1-1-1-1-1-1-1-1-1l1-1 1-1 1-1 1-1 1-1 1-1 1-1 1-1 1-1 1-1 1-1 1-1zm7222-3834-7201 3873-21-39 7201-3873zm0 0-21-39 1-1h1 1 1 1 1 1 1 1 1 1 1 1 1 1 1 1 1 1 1l1 1 1 1 1 1 1 1 1 1 1 1 1 1 1 1 1 1 1 1 1 1 1 1 1 1v1 1 1 1 1 1 1 1 1 1 1 1 1 1 1 1 1 1 1l-1 1-1 1-1 1-1 1-1 1-1 1-1 1-1 1-1 1-1 1-1 1-1 1z"/><path d="m5287 16648 29 33-1 1-1 1-1 1-1 1-1 1h-1-1-1-1-1-1-1-1-1-1-1-1-1-1-1-1-1-1-1l-1-1-1-1-1-1-1-1-1-1-1-1-1-1-1-1-1-1-1-1-1-1-1-1-1-1v-1-1-1-1-1-1-1-1-1-1-1-1-1-1-1-1-1-1-1l1-1 1-1 1-1 1-1 1-1 1-1 1-1 1-1zm4937-4244-4908 4278-29-33 4908-4278zm0 0-29-33 1-1 1-1 1-1 1-1 1-1h1 1 1 1 1 1 1 1 1 1 1 1 1 1 1 1 1 1 1l1 1 1 1 1 1 1 1 1 1 1 1 1 1 1 1 1 1 1 1 1 1 1 1 1 1v1 1 1 1 1 1 1 1 1 1 1 1 1 1 1 1 1 1 1l-1 1-1 1-1 1-1 1-1 1-1 1-1 1-1 1z"/><path d="m4626 16559 26 35-1 1-1 1-1 1-1 1h-1-1-1-1-1-1-1-1-1-1-1-1-1-1-1-1-1-1-1l-1-1-1-1-1-1-1-1-1-1-1-1-1-1-1-1-1-1-1-1-1-1-1-1v-1-1-1-1-1-1-1-1-1-1-1-1-1-1-1-1-1-1-1-1l1-1 1-1 1-1 1-1 1-1 1-1 1-1 1-1 1-1zm5611-4132-5584 4167-26-35 5584-4167zm0 0-26-35 1-1 1-1 1-1 1-1h1 1 1 1 1 1 1 1 1 1 1 1 1 1 1 1 1 1 1l1 1 1 1 1 1 1 1 1 1 1 1 1 1 1 1 1 1 1 1 1 1 1 1v1 1 1 1 1 1 1 1 1 1 1 1 1 1 1 1 1 1 1 1l-1 1-1 1-1 1-1 1-1 1-1 1-1 1-1 1-1 1z"/><path d="m4044 16472 24 37-1 1-1 1-1 1h-1-1-1-1-1-1-1-1-1-1-1-1-1-1-1-1-1-1-1l-1-1-1-1-1-1-1-1-1-1-1-1-1-1-1-1-1-1-1-1-1-1-1-1v-1-1-1-1-1-1-1-1-1-1-1-1-1-1-1-1-1-1-1-1l1-1 1-1 1-1 1-1 1-1 1-1 1-1 1-1 1-1 1-1zm6153-4054-6129 4091-24-37 6129-4091zm0 0-24-37 1-1 1-1 1-1h1 1 1 1 1 1 1 1 1 1 1 1 1 1 1 1 1 1 1l1 1 1 1 1 1 1 1 1 1 1 1 1 1 1 1 1 1 1 1 1 1 1 1v1 1 1 1 1 1 1 1 1 1 1 1 1 1 1 1 1 1 1 1l-1 1-1 1-1 1-1 1-1 1-1 1-1 1-1 1-1 1-1 1z"/><path d="m3405 16373 22 38-1 1-1 1h-1-1-1-1-1-1-1-1-1-1-1-1-1-1-1-1-1-1-1l-1-1-1-1-1-1-1-1-1-1-1-1-1-1-1-1-1-1-1-1-1-1-1-1v-1-1-1-1-1-1-1-1-1-1-1-1-1-1-1-1-1-1-1-1l1-1 1-1 1-1 1-1 1-1 1-1 1-1 1-1 1-1 1-1 1-1zm6746-3931-6723 3969-22-38 6723-3969zm0 0-22-38 1-1 1-1h1 1 1 1 1 1 1 1 1 1 1 1 1 1 1 1 1 1 1l1 1 1 1 1 1 1 1 1 1 1 1 1 1 1 1 1 1 1 1 1 1 1 1v1 1 1 1 1 1 1 1 1 1 1 1 1 1 1 1 1 1 1 1l-1 1-1 1-1 1-1 1-1 1-1 1-1 1-1 1-1 1-1 1-1 1z"/><path d="m2689 15722h-1-1-1-1-1-1-1-1-1-1-1-1-1-1-1-1-1-1-1l-1-1-1-1-1-1-1-1-1-1-1-1-1-1-1-1-1-1-1-1-1-1-1-1v-1-1-1-1-1-1-1-1-1-1-1-1-1-1-1-1-1-1-1-1l1-1 1-1 1-1 1-1 1-1 1-1 1-1 1-1 1-1 1-1 1-1 1-1h1l18 40zm7418-3413 18 40-7437 3373-18-40zm0 0h1 1 1 1 1 1 1 1 1 1 1 1 1 1 1 1 1 1 1l1 1 1 1 1 1 1 1 1 1 1 1 1 1 1 1 1 1 1 1 1 1 1 1v1 1 1 1 1 1 1 1 1 1 1 1 1 1 1 1 1 1 1 1l-1 1-1 1-1 1-1 1-1 1-1 1-1 1-1 1-1 1-1 1-1 1-1 1h-1l-18-40z"/><path d="m2825 14505h-1-1-1-1-1-1-1-1-1-1-1-1-1-1-1-1-1l-1-1-1-1-1-1-1-1-1-1-1-1-1-1-1-1-1-1-1-1-1-1-1-1-1-1v-1-1-1-1-1-1-1-1-1-1-1-1-1-1-1-1-1-1-1l1-1 1-1 1-1 1-1 1-1 1-1 1-1 1-1 1-1 1-1 1-1 1-1 1-1h1 1l16 41zm7238-2792 16 41-7254 2750-16-41zm0 0h1 1 1 1 1 1 1 1 1 1 1 1 1 1 1 1 1l1 1 1 1 1 1 1 1 1 1 1 1 1 1 1 1 1 1 1 1 1 1 1 1 1 1v1 1 1 1 1 1 1 1 1 1 1 1 1 1 1 1 1 1 1l-1 1-1 1-1 1-1 1-1 1-1 1-1 1-1 1-1 1-1 1-1 1-1 1-1 1h-1-1l-16-41z"/><path d="m2800 14766h-1-1-1-1-1-1-1-1-1-1-1-1-1-1-1-1-1l-1-1-1-1-1-1-1-1-1-1-1-1-1-1-1-1-1-1-1-1-1-1-1-1-1-1v-1-1-1-1-1-1-1-1-1-1-1-1-1-1-1-1-1-1-1l1-1 1-1 1-1 1-1 1-1 1-1 1-1 1-1 1-1 1-1 1-1 1-1 1-1h1 1l15 41zm7126-2733 15 41-7142 2691-15-41zm0 0h1 1 1 1 1 1 1 1 1 1 1 1 1 1 1 1 1l1 1 1 1 1 1 1 1 1 1 1 1 1 1 1 1 1 1 1 1 1 1 1 1 1 1v1 1 1 1 1 1 1 1 1 1 1 1 1 1 1 1 1 1 1l-1 1-1 1-1 1-1 1-1 1-1 1-1 1-1 1-1 1-1 1-1 1-1 1-1 1h-1-1l-15-41z"/><path d="m2763 15058h-1-1-1-1-1-1-1-1-1-1-1-1-1-1-1-1-1-1l-1-1-1-1-1-1-1-1-1-1-1-1-1-1-1-1-1-1-1-1-1-1-1-1v-1-1-1-1-1-1-1-1-1-1-1-1-1-1-1-1-1-1-1-1l1-1 1-1 1-1 1-1 1-1 1-1 1-1 1-1 1-1 1-1 1-1 1-1h1 1l16 41zm7272-2951 16 41-7288 2910-16-41zm0 0h1 1 1 1 1 1 1 1 1 1 1 1 1 1 1 1 1 1l1 1 1 1 1 1 1 1 1 1 1 1 1 1 1 1 1 1 1 1 1 1 1 1v1 1 1 1 1 1 1 1 1 1 1 1 1 1 1 1 1 1 1 1l-1 1-1 1-1 1-1 1-1 1-1 1-1 1-1 1-1 1-1 1-1 1-1 1h-1-1l-16-41z"/><path d="m2731 15341h-1-1-1-1-1-1-1-1-1-1-1-1-1-1-1-1-1-1l-1-1-1-1-1-1-1-1-1-1-1-1-1-1-1-1-1-1-1-1-1-1-1-1v-1-1-1-1-1-1-1-1-1-1-1-1-1-1-1-1-1-1-1-1l1-1 1-1 1-1 1-1 1-1 1-1 1-1 1-1 1-1 1-1 1-1 1-1 1-1h1l16 41zm7283-2987 16 41-7300 2946-16-41zm0 0h1 1 1 1 1 1 1 1 1 1 1 1 1 1 1 1 1 1l1 1 1 1 1 1 1 1 1 1 1 1 1 1 1 1 1 1 1 1 1 1 1 1v1 1 1 1 1 1 1 1 1 1 1 1 1 1 1 1 1 1 1 1l-1 1-1 1-1 1-1 1-1 1-1 1-1 1-1 1-1 1-1 1-1 1-1 1-1 1h-1l-16-41z"/><path d="m20428 13317h1 1 1 1 1l1 1 1 1 1 1 1 1 1 1 1 1 1 1 1 1 1 1 1 1 1 1 1 1 1 1v1 1 1 1 1 1 1 1 1 1 1 1 1 1 1 1 1 1 1l-1 1-1 1-1 1-1 1-1 1-1 1-1 1-1 1-1 1-1 1-1 1-1 1-1 1h-1-1-1-1-1-1-1-1-1-1-1-1-1-1l9-43zm-7938-1659 9-43 7928 1702-9 43zm0 0h-1-1-1-1-1l-1-1-1-1-1-1-1-1-1-1-1-1-1-1-1-1-1-1-1-1-1-1-1-1-1-1v-1-1-1-1-1-1-1-1-1-1-1-1-1-1-1-1-1-1-1l1-1 1-1 1-1 1-1 1-1 1-1 1-1 1-1 1-1 1-1 1-1 1-1 1-1h1 1 1 1 1 1 1 1 1 1 1 1 1 1l-9 43z"/><path d="m19525 14247h1 1l1 1 1 1 1 1 1 1 1 1 1 1 1 1 1 1 1 1 1 1 1 1 1 1 1 1v1 1 1 1 1 1 1 1 1 1 1 1 1 1 1 1 1 1 1l-1 1-1 1-1 1-1 1-1 1-1 1-1 1-1 1-1 1-1 1-1 1-1 1-1 1h-1-1-1-1-1-1-1-1-1-1-1-1-1-1-1-1-1l15-42zm-7143-2532 15-42 7128 2574-15 42zm0 0h-1-1l-1-1-1-1-1-1-1-1-1-1-1-1-1-1-1-1-1-1-1-1-1-1-1-1-1-1v-1-1-1-1-1-1-1-1-1-1-1-1-1-1-1-1-1-1-1l1-1 1-1 1-1 1-1 1-1 1-1 1-1 1-1 1-1 1-1 1-1 1-1 1-1h1 1 1 1 1 1 1 1 1 1 1 1 1 1 1 1 1l-15 42z"/><path d="m19483 13990h1 1l1 1 1 1 1 1 1 1 1 1 1 1 1 1 1 1 1 1 1 1 1 1 1 1 1 1v1 1 1 1 1 1 1 1 1 1 1 1 1 1 1 1 1 1 1l-1 1-1 1-1 1-1 1-1 1-1 1-1 1-1 1-1 1-1 1-1 1-1 1-1 1h-1-1-1-1-1-1-1-1-1-1-1-1-1-1-1-1-1l15-42zm-6911-2407 15-42 6897 2449-15 42zm0 0h-1-1l-1-1-1-1-1-1-1-1-1-1-1-1-1-1-1-1-1-1-1-1-1-1-1-1-1-1v-1-1-1-1-1-1-1-1-1-1-1-1-1-1-1-1-1-1-1l1-1 1-1 1-1 1-1 1-1 1-1 1-1 1-1 1-1 1-1 1-1 1-1 1-1h1 1 1 1 1 1 1 1 1 1 1 1 1 1 1 1 1l-15 42z"/><path d="m19791 13757h1 1 1 1l1 1 1 1 1 1 1 1 1 1 1 1 1 1 1 1 1 1 1 1 1 1 1 1v1 1 1 1 1 1 1 1 1 1 1 1 1 1 1 1 1 1 1 1l-1 1-1 1-1 1-1 1-1 1-1 1-1 1-1 1-1 1-1 1-1 1-1 1h-1-1-1-1-1-1-1-1-1-1-1-1-1-1-1-1l12-42zm-7369-2076 12-42 7356 2118-12 42zm0 0h-1-1-1-1l-1-1-1-1-1-1-1-1-1-1-1-1-1-1-1-1-1-1-1-1-1-1-1-1v-1-1-1-1-1-1-1-1-1-1-1-1-1-1-1-1-1-1-1-1l1-1 1-1 1-1 1-1 1-1 1-1 1-1 1-1 1-1 1-1 1-1 1-1h1 1 1 1 1 1 1 1 1 1 1 1 1 1 1 1l-12 42z"/><path d="m20123 13531h1 1 1 1l1 1 1 1 1 1 1 1 1 1 1 1 1 1 1 1 1 1 1 1 1 1 1 1 1 1v1 1 1 1 1 1 1 1 1 1 1 1 1 1 1 1 1 1 1l-1 1-1 1-1 1-1 1-1 1-1 1-1 1-1 1-1 1-1 1-1 1-1 1-1 1h-1-1-1-1-1-1-1-1-1-1-1-1-1-1-1l11-43zm-7596-1866 11-43 7585 1908-11 43zm0 0h-1-1-1-1l-1-1-1-1-1-1-1-1-1-1-1-1-1-1-1-1-1-1-1-1-1-1-1-1-1-1v-1-1-1-1-1-1-1-1-1-1-1-1-1-1-1-1-1-1-1l1-1 1-1 1-1 1-1 1-1 1-1 1-1 1-1 1-1 1-1 1-1 1-1 1-1h1 1 1 1 1 1 1 1 1 1 1 1 1 1 1l-11 43z"/><path d="m20795 12730 6-43h1 1 1 1 1 1 1l1 1 1 1 1 1 1 1 1 1 1 1 1 1 1 1 1 1 1 1 1 1 1 1v1 1 1 1 1 1 1 1 1 1 1 1 1 1 1 1 1 1 1 1l-1 1-1 1-1 1-1 1-1 1-1 1-1 1-1 1-1 1-1 1-1 1-1 1h-1-1-1-1-1-1-1-1-1-1-1-1-1zm-8173-1139 8179 1095-6 43-8180-1095 6-43zm0 0-6 43h-1-1-1-1-1-1-1l-1-1-1-1-1-1-1-1-1-1-1-1-1-1-1-1-1-1-1-1-1-1-1-1v-1-1-1-1-1-1-1-1-1-1-1-1-1-1-1-1-1-1-1-1l1-1 1-1 1-1 1-1 1-1 1-1 1-1 1-1 1-1 1-1 1-1 1-1h1 1 1 1 1 1 1 1 1 1 1 1 1z"/><path d="m20227 11457 2-44h1 1 1 1 1 1 1 1 1l1 1 1 1 1 1 1 1 1 1 1 1 1 1 1 1 1 1 1 1 1 1 1 1v1 1 1 1 1 1 1 1 1 1 1 1 1 1 1 1 1 1 1 1l-1 1-1 1-1 1-1 1-1 1-1 1-1 1-1 1-1 1-1 1-1 1-1 1h-1-1-1-1-1-1-1-1-1-1zm-7539-383 7541 339-2 44-7541-339zm0 0-2 44h-1-1-1-1-1-1-1-1-1l-1-1-1-1-1-1-1-1-1-1-1-1-1-1-1-1-1-1-1-1-1-1-1-1v-1-1-1-1-1-1-1-1-1-1-1-1-1-1-1-1-1-1-1-1l1-1 1-1 1-1 1-1 1-1 1-1 1-1 1-1 1-1 1-1 1-1 1-1h1 1 1 1 1 1 1 1 1 1z"/><path d="m20368 11728 3-44h1 1 1 1 1 1 1 1l1 1 1 1 1 1 1 1 1 1 1 1 1 1 1 1 1 1 1 1 1 1 1 1 1 1v1 1 1 1 1 1 1 1 1 1 1 1 1 1 1 1 1 1 1l-1 1-1 1-1 1-1 1-1 1-1 1-1 1-1 1-1 1-1 1-1 1-1 1-1 1h-1-1-1-1-1-1-1-1-1-1-1zm-7610-460 7613 417-3 44-7613-417zm0 0-3 44h-1-1-1-1-1-1-1-1l-1-1-1-1-1-1-1-1-1-1-1-1-1-1-1-1-1-1-1-1-1-1-1-1-1-1v-1-1-1-1-1-1-1-1-1-1-1-1-1-1-1-1-1-1-1l1-1 1-1 1-1 1-1 1-1 1-1 1-1 1-1 1-1 1-1 1-1 1-1 1-1h1 1 1 1 1 1 1 1 1 1 1z"/><path d="m20463 12065 4-44h1 1 1 1 1 1 1 1l1 1 1 1 1 1 1 1 1 1 1 1 1 1 1 1 1 1 1 1 1 1 1 1v1 1 1 1 1 1 1 1 1 1 1 1 1 1 1 1 1 1 1 1l-1 1-1 1-1 1-1 1-1 1-1 1-1 1-1 1-1 1-1 1-1 1-1 1h-1-1-1-1-1-1-1-1-1-1-1zm-7739-728 7743 684-4 44-7743-684zm0 0-4 44h-1-1-1-1-1-1-1-1l-1-1-1-1-1-1-1-1-1-1-1-1-1-1-1-1-1-1-1-1-1-1-1-1v-1-1-1-1-1-1-1-1-1-1-1-1-1-1-1-1-1-1-1-1l1-1 1-1 1-1 1-1 1-1 1-1 1-1 1-1 1-1 1-1 1-1 1-1h1 1 1 1 1 1 1 1 1 1 1z"/><path d="m20643 12434 5-43h1 1 1 1 1 1 1l1 1 1 1 1 1 1 1 1 1 1 1 1 1 1 1 1 1 1 1 1 1 1 1 1 1v1 1 1 1 1 1 1 1 1 1 1 1 1 1 1 1 1 1 1l-1 1-1 1-1 1-1 1-1 1-1 1-1 1-1 1-1 1-1 1-1 1-1 1-1 1h-1-1-1-1-1-1-1-1-1-1-1-1zm-7879-982 7884 939-5 43-7884-939zm0 0-5 43h-1-1-1-1-1-1-1l-1-1-1-1-1-1-1-1-1-1-1-1-1-1-1-1-1-1-1-1-1-1-1-1-1-1v-1-1-1-1-1-1-1-1-1-1-1-1-1-1-1-1-1-1-1l1-1 1-1 1-1 1-1 1-1 1-1 1-1 1-1 1-1 1-1 1-1 1-1 1-1h1 1 1 1 1 1 1 1 1 1 1 1z"/></g><path d="m10548 9682c-205 81-324 200-357 357" fill="none" stroke="#373435" stroke-linecap="round" stroke-linejoin="round" stroke-width="44.130001"/><g fill="#373435" fill-rule="nonzero"><path d="m10853 1603-44 2v-1-1-1-1-1-1-1-1-1-1l1-1 1-1 1-1 1-1 1-1 1-1 1-1 1-1 1-1 1-1 1-1 1-1 1-1h1 1 1 1 1 1 1 1 1 1 1 1 1 1 1 1 1 1 1l1 1 1 1 1 1 1 1 1 1 1 1 1 1 1 1 1 1 1 1 1 1 1 1 1 1v1 1 1 1 1 1 1 1 1zm283 8156-328-8155 44-2 328 8155zm0 0 44-2v1 1 1 1 1 1 1 1 1 1l-1 1-1 1-1 1-1 1-1 1-1 1-1 1-1 1-1 1-1 1-1 1-1 1-1 1h-1-1-1-1-1-1-1-1-1-1-1-1-1-1-1-1-1-1-1l-1-1-1-1-1-1-1-1-1-1-1-1-1-1-1-1-1-1-1-1-1-1-1-1-1-1v-1-1-1-1-1-1-1-1-1z"/><path d="m9663 2421-43 9v-1-1-1-1-1-1-1-1-1-1-1-1-1-1l1-1 1-1 1-1 1-1 1-1 1-1 1-1 1-1 1-1 1-1 1-1 1-1 1-1h1 1 1 1 1 1 1 1 1 1 1 1 1 1 1 1 1 1 1l1 1 1 1 1 1 1 1 1 1 1 1 1 1 1 1 1 1 1 1 1 1 1 1 1 1v1 1 1 1 1zm1472 7263-1515-7254 43-9 1515 7254zm0 0 43-9v1 1 1 1 1 1 1 1 1 1 1 1 1 1l-1 1-1 1-1 1-1 1-1 1-1 1-1 1-1 1-1 1-1 1-1 1-1 1-1 1h-1-1-1-1-1-1-1-1-1-1-1-1-1-1-1-1-1-1-1l-1-1-1-1-1-1-1-1-1-1-1-1-1-1-1-1-1-1-1-1-1-1-1-1-1-1v-1-1-1-1-1z"/><path d="m9899 2274-44 7v-1-1-1-1-1-1-1-1-1-1-1-1-1l1-1 1-1 1-1 1-1 1-1 1-1 1-1 1-1 1-1 1-1 1-1 1-1 1-1h1 1 1 1 1 1 1 1 1 1 1 1 1 1 1 1 1 1 1l1 1 1 1 1 1 1 1 1 1 1 1 1 1 1 1 1 1 1 1 1 1 1 1 1 1v1 1 1 1 1 1zm1236 7462-1280-7455 44-7 1280 7455zm0 0 44-7v1 1 1 1 1 1 1 1 1 1 1 1 1l-1 1-1 1-1 1-1 1-1 1-1 1-1 1-1 1-1 1-1 1-1 1-1 1-1 1h-1-1-1-1-1-1-1-1-1-1-1-1-1-1-1-1-1-1-1l-1-1-1-1-1-1-1-1-1-1-1-1-1-1-1-1-1-1-1-1-1-1-1-1-1-1v-1-1-1-1-1-1z"/><path d="m10139 2117-44 6v-1-1-1-1-1-1-1-1-1-1-1-1l1-1 1-1 1-1 1-1 1-1 1-1 1-1 1-1 1-1 1-1 1-1 1-1 1-1h1 1 1 1 1 1 1 1 1 1 1 1 1 1 1 1 1 1 1l1 1 1 1 1 1 1 1 1 1 1 1 1 1 1 1 1 1 1 1 1 1 1 1 1 1v1 1 1 1 1 1 1zm970 7618-1014-7613 44-6 1014 7613zm0 0 44-6v1 1 1 1 1 1 1 1 1 1 1 1l-1 1-1 1-1 1-1 1-1 1-1 1-1 1-1 1-1 1-1 1-1 1-1 1-1 1h-1-1-1-1-1-1-1-1-1-1-1-1-1-1-1-1-1-1-1l-1-1-1-1-1-1-1-1-1-1-1-1-1-1-1-1-1-1-1-1-1-1-1-1-1-1v-1-1-1-1-1-1-1z"/><path d="m10368 1947-44 4v-1-1-1-1-1-1-1-1-1-1-1-1l1-1 1-1 1-1 1-1 1-1 1-1 1-1 1-1 1-1 1-1 1-1 1-1 1-1h1 1 1 1 1 1 1 1 1 1 1 1 1 1 1 1 1 1 1l1 1 1 1 1 1 1 1 1 1 1 1 1 1 1 1 1 1 1 1 1 1 1 1v1 1 1 1 1 1 1 1zm767 7761-811-7757 44-4 811 7757zm0 0 44-4v1 1 1 1 1 1 1 1 1 1 1 1l-1 1-1 1-1 1-1 1-1 1-1 1-1 1-1 1-1 1-1 1-1 1-1 1-1 1h-1-1-1-1-1-1-1-1-1-1-1-1-1-1-1-1-1-1-1l-1-1-1-1-1-1-1-1-1-1-1-1-1-1-1-1-1-1-1-1-1-1-1-1v-1-1-1-1-1-1-1-1z"/><path d="m10620 1767-44 3v-1-1-1-1-1-1-1-1-1-1-1l1-1 1-1 1-1 1-1 1-1 1-1 1-1 1-1 1-1 1-1 1-1 1-1 1-1h1 1 1 1 1 1 1 1 1 1 1 1 1 1 1 1 1 1 1l1 1 1 1 1 1 1 1 1 1 1 1 1 1 1 1 1 1 1 1 1 1 1 1 1 1v1 1 1 1 1 1 1 1zm513 7888-558-7885 44-3 558 7885zm0 0 44-3v1 1 1 1 1 1 1 1 1 1 1l-1 1-1 1-1 1-1 1-1 1-1 1-1 1-1 1-1 1-1 1-1 1-1 1-1 1h-1-1-1-1-1-1-1-1-1-1-1-1-1-1-1-1-1-1-1l-1-1-1-1-1-1-1-1-1-1-1-1-1-1-1-1-1-1-1-1-1-1-1-1-1-1v-1-1-1-1-1-1-1-1z"/></g><g fill="none" stroke="#373435" stroke-linecap="round" stroke-linejoin="round" stroke-width="44.130001"><path d="m11381 1532-131 8155"/><path d="m12590 2353-1340 7255"/><path d="m12351 2206-1101 7454"/><path d="m12107 2048-831 7612"/><path d="m11874 1877-624 7757"/><path d="m11618 1696-368 7885"/></g><g fill="#373435" fill-rule="nonzero"><path d="m4697 3977-33 30-1-1-1-1-1-1-1-1-1-1v-1-1-1-1-1-1-1-1-1-1-1-1-1-1-1-1-1-1-1-1l1-1 1-1 1-1 1-1 1-1 1-1 1-1 1-1 1-1 1-1 1-1 1-1h1 1 1 1 1 1 1 1 1 1 1 1 1 1 1 1 1 1 1 1l1 1 1 1 1 1 1 1 1 1 1 1 1 1zm5505 6189-5538-6159 33-30 5538 6159zm0 0 33-30 1 1 1 1 1 1 1 1 1 1v1 1 1 1 1 1 1 1 1 1 1 1 1 1 1 1 1 1 1 1l-1 1-1 1-1 1-1 1-1 1-1 1-1 1-1 1-1 1-1 1-1 1-1 1h-1-1-1-1-1-1-1-1-1-1-1-1-1-1-1-1-1-1-1-1l-1-1-1-1-1-1-1-1-1-1-1-1-1-1z"/><path d="m4227 5422-28 34-1-1-1-1-1-1-1-1-1-1-1-1-1-1-1-1v-1-1-1-1-1-1-1-1-1-1-1-1-1-1-1-1-1-1-1-1l1-1 1-1 1-1 1-1 1-1 1-1 1-1 1-1 1-1 1-1 1-1 1-1h1 1 1 1 1 1 1 1 1 1 1 1 1 1 1 1 1 1 1 1l1 1 1 1 1 1 1 1zm5794 4817-5822-4783 28-34 5822 4783zm0 0 28-34 1 1 1 1 1 1 1 1 1 1 1 1 1 1 1 1v1 1 1 1 1 1 1 1 1 1 1 1 1 1 1 1 1 1 1 1l-1 1-1 1-1 1-1 1-1 1-1 1-1 1-1 1-1 1-1 1-1 1-1 1h-1-1-1-1-1-1-1-1-1-1-1-1-1-1-1-1-1-1-1-1l-1-1-1-1-1-1-1-1z"/><path d="m4378 5108-29 33-1-1-1-1-1-1-1-1-1-1-1-1-1-1v-1-1-1-1-1-1-1-1-1-1-1-1-1-1-1-1-1-1-1-1l1-1 1-1 1-1 1-1 1-1 1-1 1-1 1-1 1-1 1-1 1-1 1-1h1 1 1 1 1 1 1 1 1 1 1 1 1 1 1 1 1 1 1 1l1 1 1 1 1 1 1 1 1 1zm5697 5122-5727-5089 29-33 5727 5089zm0 0 29-33 1 1 1 1 1 1 1 1 1 1 1 1 1 1v1 1 1 1 1 1 1 1 1 1 1 1 1 1 1 1 1 1 1 1l-1 1-1 1-1 1-1 1-1 1-1 1-1 1-1 1-1 1-1 1-1 1-1 1h-1-1-1-1-1-1-1-1-1-1-1-1-1-1-1-1-1-1-1-1l-1-1-1-1-1-1-1-1-1-1z"/><path d="m4483 4663-31 32-1-1-1-1-1-1-1-1-1-1-1-1v-1-1-1-1-1-1-1-1-1-1-1-1-1-1-1-1-1-1-1-1l1-1 1-1 1-1 1-1 1-1 1-1 1-1 1-1 1-1 1-1 1-1 1-1 1-1h1 1 1 1 1 1 1 1 1 1 1 1 1 1 1 1 1 1 1l1 1 1 1 1 1 1 1 1 1 1 1zm5633 5517-5664-5485 31-32 5664 5485zm0 0 31-32 1 1 1 1 1 1 1 1 1 1 1 1v1 1 1 1 1 1 1 1 1 1 1 1 1 1 1 1 1 1 1 1l-1 1-1 1-1 1-1 1-1 1-1 1-1 1-1 1-1 1-1 1-1 1-1 1-1 1h-1-1-1-1-1-1-1-1-1-1-1-1-1-1-1-1-1-1-1l-1-1-1-1-1-1-1-1-1-1-1-1z"/><path d="m4602 4319-32 31-1-1-1-1-1-1-1-1-1-1-1-1v-1-1-1-1-1-1-1-1-1-1-1-1-1-1-1-1-1-1-1-1l1-1 1-1 1-1 1-1 1-1 1-1 1-1 1-1 1-1 1-1 1-1 1-1h1 1 1 1 1 1 1 1 1 1 1 1 1 1 1 1 1 1 1 1l1 1 1 1 1 1 1 1 1 1 1 1zm5531 5767-5563-5736 32-31 5563 5736zm0 0 32-31 1 1 1 1 1 1 1 1 1 1 1 1v1 1 1 1 1 1 1 1 1 1 1 1 1 1 1 1 1 1 1 1l-1 1-1 1-1 1-1 1-1 1-1 1-1 1-1 1-1 1-1 1-1 1-1 1h-1-1-1-1-1-1-1-1-1-1-1-1-1-1-1-1-1-1-1-1l-1-1-1-1-1-1-1-1-1-1-1-1z"/><path d="m5139 3586-1-1-1-1-1-1-1-1v-1-1-1-1-1-1-1-1-1-1-1-1-1-1-1-1-1-1-1l1-1 1-1 1-1 1-1 1-1 1-1 1-1 1-1 1-1 1-1 1-1 1-1 1-1h1 1 1 1 1 1 1 1 1 1 1 1 1 1 1 1 1 1 1 1l1 1 1 1 1 1 1 1 1 1 1 1 1 1 1 1-35 27zm5120 6439-35 27-5085-6466 35-27zm0 0 1 1 1 1 1 1 1 1v1 1 1 1 1 1 1 1 1 1 1 1 1 1 1 1 1 1 1l-1 1-1 1-1 1-1 1-1 1-1 1-1 1-1 1-1 1-1 1-1 1-1 1-1 1h-1-1-1-1-1-1-1-1-1-1-1-1-1-1-1-1-1-1-1-1l-1-1-1-1-1-1-1-1-1-1-1-1-1-1-1-1 35-27z"/><path d="m6684 3517-1-1v-1-1-1-1-1-1-1-1-1-1-1-1-1-1-1-1-1-1-1-1l1-1 1-1 1-1 1-1 1-1 1-1 1-1 1-1 1-1 1-1 1-1 1-1h1 1 1 1 1 1 1 1 1 1 1 1 1 1 1 1 1 1 1 1l1 1 1 1 1 1 1 1 1 1 1 1 1 1 1 1 1 1 1 1 1 1-38 22zm3802 6422-38 22-3764-6444 38-22zm0 0 1 1v1 1 1 1 1 1 1 1 1 1 1 1 1 1 1 1 1 1 1 1l-1 1-1 1-1 1-1 1-1 1-1 1-1 1-1 1-1 1-1 1-1 1-1 1h-1-1-1-1-1-1-1-1-1-1-1-1-1-1-1-1-1-1-1-1l-1-1-1-1-1-1-1-1-1-1-1-1-1-1-1-1-1-1-1-1-1-1 38-22z"/><path d="m6392 3528-1-1-1-1v-1-1-1-1-1-1-1-1-1-1-1-1-1-1-1-1-1-1-1l1-1 1-1 1-1 1-1 1-1 1-1 1-1 1-1 1-1 1-1 1-1 1-1 1-1h1 1 1 1 1 1 1 1 1 1 1 1 1 1 1 1 1 1 1l1 1 1 1 1 1 1 1 1 1 1 1 1 1 1 1 1 1 1 1 1 1-38 23zm3944 6465-38 23-3906-6488 38-23zm0 0 1 1 1 1v1 1 1 1 1 1 1 1 1 1 1 1 1 1 1 1 1 1 1l-1 1-1 1-1 1-1 1-1 1-1 1-1 1-1 1-1 1-1 1-1 1-1 1-1 1h-1-1-1-1-1-1-1-1-1-1-1-1-1-1-1-1-1-1-1l-1-1-1-1-1-1-1-1-1-1-1-1-1-1-1-1-1-1-1-1-1-1 38-23z"/><path d="m6085 3546-1-1-1-1v-1-1-1-1-1-1-1-1-1-1-1-1-1-1-1-1-1-1-1-1l1-1 1-1 1-1 1-1 1-1 1-1 1-1 1-1 1-1 1-1 1-1 1-1h1 1 1 1 1 1 1 1 1 1 1 1 1 1 1 1 1 1 1 1l1 1 1 1 1 1 1 1 1 1 1 1 1 1 1 1 1 1 1 1-37 24zm4179 6443-37 24-4141-6467 37-24zm0 0 1 1 1 1v1 1 1 1 1 1 1 1 1 1 1 1 1 1 1 1 1 1 1 1l-1 1-1 1-1 1-1 1-1 1-1 1-1 1-1 1-1 1-1 1-1 1-1 1h-1-1-1-1-1-1-1-1-1-1-1-1-1-1-1-1-1-1-1-1l-1-1-1-1-1-1-1-1-1-1-1-1-1-1-1-1-1-1-1-1 37-24z"/><path d="m5777 3558-1-1-1-1-1-1v-1-1-1-1-1-1-1-1-1-1-1-1-1-1-1-1-1-1-1l1-1 1-1 1-1 1-1 1-1 1-1 1-1 1-1 1-1 1-1 1-1 1-1 1-1h1 1 1 1 1 1 1 1 1 1 1 1 1 1 1 1 1 1 1l1 1 1 1 1 1 1 1 1 1 1 1 1 1 1 1 1 1 1 1-36 25zm4449 6426-36 25-4412-6451 36-25zm0 0 1 1 1 1 1 1v1 1 1 1 1 1 1 1 1 1 1 1 1 1 1 1 1 1 1l-1 1-1 1-1 1-1 1-1 1-1 1-1 1-1 1-1 1-1 1-1 1-1 1-1 1h-1-1-1-1-1-1-1-1-1-1-1-1-1-1-1-1-1-1-1l-1-1-1-1-1-1-1-1-1-1-1-1-1-1-1-1-1-1-1-1 36-25z"/><path d="m5488 3570-1-1-1-1-1-1v-1-1-1-1-1-1-1-1-1-1-1-1-1-1-1-1-1-1-1-1l1-1 1-1 1-1 1-1 1-1 1-1 1-1 1-1 1-1 1-1 1-1 1-1h1 1 1 1 1 1 1 1 1 1 1 1 1 1 1 1 1 1 1 1l1 1 1 1 1 1 1 1 1 1 1 1 1 1 1 1 1 1-36 26zm4703 6373-36 26-4668-6399 36-26zm0 0 1 1 1 1 1 1v1 1 1 1 1 1 1 1 1 1 1 1 1 1 1 1 1 1 1 1l-1 1-1 1-1 1-1 1-1 1-1 1-1 1-1 1-1 1-1 1-1 1-1 1h-1-1-1-1-1-1-1-1-1-1-1-1-1-1-1-1-1-1-1-1l-1-1-1-1-1-1-1-1-1-1-1-1-1-1-1-1-1-1 36-26z"/><path d="m1682 9876-5 44h-1-1-1-1-1-1-1l-1-1-1-1-1-1-1-1-1-1-1-1-1-1-1-1-1-1-1-1-1-1-1-1-1-1v-1-1-1-1-1-1-1-1-1-1-1-1-1-1-1-1-1-1-1l1-1 1-1 1-1 1-1 1-1 1-1 1-1 1-1 1-1 1-1 1-1 1-1 1-1h1 1 1 1 1 1 1 1 1 1 1 1zm8281 1091-8286-1048 5-44 8286 1048zm0 0 5-44h1 1 1 1 1 1 1l1 1 1 1 1 1 1 1 1 1 1 1 1 1 1 1 1 1 1 1 1 1 1 1 1 1v1 1 1 1 1 1 1 1 1 1 1 1 1 1 1 1 1 1 1l-1 1-1 1-1 1-1 1-1 1-1 1-1 1-1 1-1 1-1 1-1 1-1 1-1 1h-1-1-1-1-1-1-1-1-1-1-1-1z"/><path d="m2193 11078 1 44h-1-1-1-1-1-1-1-1-1-1l-1-1-1-1-1-1-1-1-1-1-1-1-1-1-1-1-1-1-1-1-1-1-1-1-1-1v-1-1-1-1-1-1-1-1-1-1-1-1-1-1-1-1-1-1-1l1-1 1-1 1-1 1-1 1-1 1-1 1-1 1-1 1-1 1-1 1-1 1-1 1-1h1 1 1 1 1 1 1 1 1zm7746-114-7745 158-1-44 7745-158zm0 0-1-44h1 1 1 1 1 1 1 1 1 1l1 1 1 1 1 1 1 1 1 1 1 1 1 1 1 1 1 1 1 1 1 1 1 1 1 1v1 1 1 1 1 1 1 1 1 1 1 1 1 1 1 1 1 1 1l-1 1-1 1-1 1-1 1-1 1-1 1-1 1-1 1-1 1-1 1-1 1-1 1-1 1h-1-1-1-1-1-1-1-1-1z"/><path d="m2067 10786-1 44h-1-1-1-1-1-1-1-1-1l-1-1-1-1-1-1-1-1-1-1-1-1-1-1-1-1-1-1-1-1-1-1-1-1-1-1v-1-1-1-1-1-1-1-1-1-1-1-1-1-1-1-1-1-1-1l1-1 1-1 1-1 1-1 1-1 1-1 1-1 1-1 1-1 1-1 1-1 1-1 1-1h1 1 1 1 1 1 1 1 1 1zm7867 203-7868-159 1-44 7868 159zm0 0 1-44h1 1 1 1 1 1 1 1 1l1 1 1 1 1 1 1 1 1 1 1 1 1 1 1 1 1 1 1 1 1 1 1 1 1 1v1 1 1 1 1 1 1 1 1 1 1 1 1 1 1 1 1 1 1l-1 1-1 1-1 1-1 1-1 1-1 1-1 1-1 1-1 1-1 1-1 1-1 1-1 1h-1-1-1-1-1-1-1-1-1-1z"/><path d="m1939 10479-2 44h-1-1-1-1-1-1-1-1-1l-1-1-1-1-1-1-1-1-1-1-1-1-1-1-1-1-1-1-1-1-1-1-1-1v-1-1-1-1-1-1-1-1-1-1-1-1-1-1-1-1-1-1-1-1l1-1 1-1 1-1 1-1 1-1 1-1 1-1 1-1 1-1 1-1 1-1 1-1h1 1 1 1 1 1 1 1 1 1zm7973 481-7975-437 2-44 7975 437zm0 0 2-44h1 1 1 1 1 1 1 1 1l1 1 1 1 1 1 1 1 1 1 1 1 1 1 1 1 1 1 1 1 1 1 1 1v1 1 1 1 1 1 1 1 1 1 1 1 1 1 1 1 1 1 1 1l-1 1-1 1-1 1-1 1-1 1-1 1-1 1-1 1-1 1-1 1-1 1-1 1h-1-1-1-1-1-1-1-1-1-1z"/><path d="m1816 10194-4 44h-1-1-1-1-1-1-1-1l-1-1-1-1-1-1-1-1-1-1-1-1-1-1-1-1-1-1-1-1-1-1-1-1v-1-1-1-1-1-1-1-1-1-1-1-1-1-1-1-1-1-1-1-1l1-1 1-1 1-1 1-1 1-1 1-1 1-1 1-1 1-1 1-1 1-1 1-1h1 1 1 1 1 1 1 1 1 1 1zm8041 758-8045-714 4-44 8045 714zm0 0 4-44h1 1 1 1 1 1 1 1l1 1 1 1 1 1 1 1 1 1 1 1 1 1 1 1 1 1 1 1 1 1 1 1v1 1 1 1 1 1 1 1 1 1 1 1 1 1 1 1 1 1 1 1l-1 1-1 1-1 1-1 1-1 1-1 1-1 1-1 1-1 1-1 1-1 1-1 1h-1-1-1-1-1-1-1-1-1-1-1z"/><path d="m1782 9258h-1-1-1-1-1-1l-1-1-1-1-1-1-1-1-1-1-1-1-1-1-1-1-1-1-1-1-1-1-1-1v-1-1-1-1-1-1-1-1-1-1-1-1-1-1-1-1-1-1-1-1l1-1 1-1 1-1 1-1 1-1 1-1 1-1 1-1 1-1 1-1 1-1 1-1h1 1 1 1 1 1 1 1 1 1 1 1 1 1l-9 43zm8131 1565-9 43-8123-1608 9-43zm0 0h1 1 1 1 1 1l1 1 1 1 1 1 1 1 1 1 1 1 1 1 1 1 1 1 1 1 1 1 1 1v1 1 1 1 1 1 1 1 1 1 1 1 1 1 1 1 1 1 1 1l-1 1-1 1-1 1-1 1-1 1-1 1-1 1-1 1-1 1-1 1-1 1-1 1h-1-1-1-1-1-1-1-1-1-1-1-1-1-1l9-43z"/><path d="m2710 8428h-1-1-1l-1-1-1-1-1-1-1-1-1-1-1-1-1-1-1-1-1-1-1-1-1-1-1-1-1-1v-1-1-1-1-1-1-1-1-1-1-1-1-1-1-1-1-1-1-1l1-1 1-1 1-1 1-1 1-1 1-1 1-1 1-1 1-1 1-1 1-1 1-1 1-1h1 1 1 1 1 1 1 1 1 1 1 1 1 1 1 1l-14 42zm7259 2312-14 42-7245-2354 14-42zm0 0h1 1 1l1 1 1 1 1 1 1 1 1 1 1 1 1 1 1 1 1 1 1 1 1 1 1 1 1 1v1 1 1 1 1 1 1 1 1 1 1 1 1 1 1 1 1 1 1l-1 1-1 1-1 1-1 1-1 1-1 1-1 1-1 1-1 1-1 1-1 1-1 1-1 1h-1-1-1-1-1-1-1-1-1-1-1-1-1-1-1-1l14-42z"/><path d="m2504 8615h-1-1-1-1l-1-1-1-1-1-1-1-1-1-1-1-1-1-1-1-1-1-1-1-1-1-1-1-1v-1-1-1-1-1-1-1-1-1-1-1-1-1-1-1-1-1-1-1l1-1 1-1 1-1 1-1 1-1 1-1 1-1 1-1 1-1 1-1 1-1 1-1 1-1h1 1 1 1 1 1 1 1 1 1 1 1 1 1 1 1l-13 42zm7390 2178-13 42-7377-2220 13-42zm0 0h1 1 1 1l1 1 1 1 1 1 1 1 1 1 1 1 1 1 1 1 1 1 1 1 1 1 1 1v1 1 1 1 1 1 1 1 1 1 1 1 1 1 1 1 1 1 1l-1 1-1 1-1 1-1 1-1 1-1 1-1 1-1 1-1 1-1 1-1 1-1 1-1 1h-1-1-1-1-1-1-1-1-1-1-1-1-1-1-1-1l13-42z"/><path d="m2266 8820h-1-1-1-1l-1-1-1-1-1-1-1-1-1-1-1-1-1-1-1-1-1-1-1-1-1-1-1-1-1-1v-1-1-1-1-1-1-1-1-1-1-1-1-1-1-1-1-1-1-1l1-1 1-1 1-1 1-1 1-1 1-1 1-1 1-1 1-1 1-1 1-1 1-1 1-1h1 1 1 1 1 1 1 1 1 1 1 1 1 1 1l-11 43zm7596 1994-11 43-7584-2037 11-43zm0 0h1 1 1 1l1 1 1 1 1 1 1 1 1 1 1 1 1 1 1 1 1 1 1 1 1 1 1 1 1 1v1 1 1 1 1 1 1 1 1 1 1 1 1 1 1 1 1 1 1l-1 1-1 1-1 1-1 1-1 1-1 1-1 1-1 1-1 1-1 1-1 1-1 1-1 1h-1-1-1-1-1-1-1-1-1-1-1-1-1-1-1l11-43z"/><path d="m2040 9021h-1-1-1-1-1l-1-1-1-1-1-1-1-1-1-1-1-1-1-1-1-1-1-1-1-1-1-1-1-1v-1-1-1-1-1-1-1-1-1-1-1-1-1-1-1-1-1-1-1-1l1-1 1-1 1-1 1-1 1-1 1-1 1-1 1-1 1-1 1-1 1-1 1-1h1 1 1 1 1 1 1 1 1 1 1 1 1 1 1l-10 43zm7769 1785-10 43-7759-1827 10-43zm0 0h1 1 1 1 1l1 1 1 1 1 1 1 1 1 1 1 1 1 1 1 1 1 1 1 1 1 1 1 1v1 1 1 1 1 1 1 1 1 1 1 1 1 1 1 1 1 1 1 1l-1 1-1 1-1 1-1 1-1 1-1 1-1 1-1 1-1 1-1 1-1 1-1 1h-1-1-1-1-1-1-1-1-1-1-1-1-1-1-1l10-43z"/><path d="m2713 6733-20 39-1-1-1-1-1-1-1-1-1-1-1-1-1-1-1-1-1-1-1-1-1-1-1-1v-1-1-1-1-1-1-1-1-1-1-1-1-1-1-1-1-1-1-1l1-1 1-1 1-1 1-1 1-1 1-1 1-1 1-1 1-1 1-1 1-1 1-1 1-1h1 1 1 1 1 1 1 1 1 1 1 1 1 1 1 1 1 1 1l1 1zm7370 3928-7390-3889 20-39 7390 3889zm0 0 20-39 1 1 1 1 1 1 1 1 1 1 1 1 1 1 1 1 1 1 1 1 1 1 1 1v1 1 1 1 1 1 1 1 1 1 1 1 1 1 1 1 1 1 1l-1 1-1 1-1 1-1 1-1 1-1 1-1 1-1 1-1 1-1 1-1 1-1 1-1 1h-1-1-1-1-1-1-1-1-1-1-1-1-1-1-1-1-1-1-1l-1-1z"/><path d="m2736 8077-14 42h-1-1-1l-1-1-1-1-1-1-1-1-1-1-1-1-1-1-1-1-1-1-1-1-1-1-1-1v-1-1-1-1-1-1-1-1-1-1-1-1-1-1-1-1-1-1-1-1l1-1 1-1 1-1 1-1 1-1 1-1 1-1 1-1 1-1 1-1 1-1 1-1h1 1 1 1 1 1 1 1 1 1 1 1 1 1 1 1 1zm7326 2572-7340-2531 14-42 7340 2531zm0 0 14-42h1 1 1l1 1 1 1 1 1 1 1 1 1 1 1 1 1 1 1 1 1 1 1 1 1 1 1v1 1 1 1 1 1 1 1 1 1 1 1 1 1 1 1 1 1 1 1l-1 1-1 1-1 1-1 1-1 1-1 1-1 1-1 1-1 1-1 1-1 1-1 1h-1-1-1-1-1-1-1-1-1-1-1-1-1-1-1-1-1z"/><path d="m2729 7747-16 41h-1-1l-1-1-1-1-1-1-1-1-1-1-1-1-1-1-1-1-1-1-1-1-1-1-1-1v-1-1-1-1-1-1-1-1-1-1-1-1-1-1-1-1-1-1-1-1l1-1 1-1 1-1 1-1 1-1 1-1 1-1 1-1 1-1 1-1 1-1 1-1h1 1 1 1 1 1 1 1 1 1 1 1 1 1 1 1 1 1zm7319 2925-7335-2884 16-41 7335 2884zm0 0 16-41h1 1l1 1 1 1 1 1 1 1 1 1 1 1 1 1 1 1 1 1 1 1 1 1 1 1v1 1 1 1 1 1 1 1 1 1 1 1 1 1 1 1 1 1 1 1l-1 1-1 1-1 1-1 1-1 1-1 1-1 1-1 1-1 1-1 1-1 1-1 1h-1-1-1-1-1-1-1-1-1-1-1-1-1-1-1-1-1-1z"/><path d="m2725 7427-17 41h-1l-1-1-1-1-1-1-1-1-1-1-1-1-1-1-1-1-1-1-1-1-1-1-1-1-1-1v-1-1-1-1-1-1-1-1-1-1-1-1-1-1-1-1-1-1-1l1-1 1-1 1-1 1-1 1-1 1-1 1-1 1-1 1-1 1-1 1-1 1-1 1-1h1 1 1 1 1 1 1 1 1 1 1 1 1 1 1 1 1 1zm7312 3209-7330-3168 17-41 7330 3168zm0 0 17-41h1l1 1 1 1 1 1 1 1 1 1 1 1 1 1 1 1 1 1 1 1 1 1 1 1 1 1v1 1 1 1 1 1 1 1 1 1 1 1 1 1 1 1 1 1 1l-1 1-1 1-1 1-1 1-1 1-1 1-1 1-1 1-1 1-1 1-1 1-1 1-1 1h-1-1-1-1-1-1-1-1-1-1-1-1-1-1-1-1-1-1z"/><path d="m2732 7098-19 40-1-1-1-1-1-1-1-1-1-1-1-1-1-1-1-1-1-1-1-1-1-1-1-1-1-1v-1-1-1-1-1-1-1-1-1-1-1-1-1-1-1-1-1-1-1l1-1 1-1 1-1 1-1 1-1 1-1 1-1 1-1 1-1 1-1 1-1 1-1 1-1h1 1 1 1 1 1 1 1 1 1 1 1 1 1 1 1 1 1 1zm7258 3512-7277-3472 19-40 7277 3472zm0 0 19-40 1 1 1 1 1 1 1 1 1 1 1 1 1 1 1 1 1 1 1 1 1 1 1 1 1 1v1 1 1 1 1 1 1 1 1 1 1 1 1 1 1 1 1 1 1l-1 1-1 1-1 1-1 1-1 1-1 1-1 1-1 1-1 1-1 1-1 1-1 1-1 1h-1-1-1-1-1-1-1-1-1-1-1-1-1-1-1-1-1-1-1z"/><path d="m3013 6059-1-1-1-1-1-1-1-1-1-1-1-1-1-1-1-1-1-1-1-1v-1-1-1-1-1-1-1-1-1-1-1-1-1-1-1-1-1-1-1-1l1-1 1-1 1-1 1-1 1-1 1-1 1-1 1-1 1-1 1-1 1-1 1-1 1-1h1 1 1 1 1 1 1 1 1 1 1 1 1 1 1 1 1 1 1l1 1 1 1-24 37zm7075 4449-24 37-7051-4486 24-37zm0 0 1 1 1 1 1 1 1 1 1 1 1 1 1 1 1 1 1 1 1 1v1 1 1 1 1 1 1 1 1 1 1 1 1 1 1 1 1 1 1 1l-1 1-1 1-1 1-1 1-1 1-1 1-1 1-1 1-1 1-1 1-1 1-1 1-1 1h-1-1-1-1-1-1-1-1-1-1-1-1-1-1-1-1-1-1-1l-1-1-1-1 24-37z"/><path d="m3884 5610-1-1-1-1-1-1-1-1-1-1-1-1-1-1-1-1-1-1v-1-1-1-1-1-1-1-1-1-1-1-1-1-1-1-1-1-1-1l1-1 1-1 1-1 1-1 1-1 1-1 1-1 1-1 1-1 1-1 1-1 1-1 1-1h1 1 1 1 1 1 1 1 1 1 1 1 1 1 1 1 1 1 1l1 1 1 1 1 1 1 1-27 35zm6354 4837-27 35-6327-4872 27-35zm0 0 1 1 1 1 1 1 1 1 1 1 1 1 1 1 1 1 1 1v1 1 1 1 1 1 1 1 1 1 1 1 1 1 1 1 1 1 1l-1 1-1 1-1 1-1 1-1 1-1 1-1 1-1 1-1 1-1 1-1 1-1 1-1 1h-1-1-1-1-1-1-1-1-1-1-1-1-1-1-1-1-1-1-1l-1-1-1-1-1-1-1-1 27-35z"/><path d="m3576 5776-1-1-1-1-1-1-1-1-1-1-1-1-1-1-1-1-1-1v-1-1-1-1-1-1-1-1-1-1-1-1-1-1-1-1-1-1-1-1l1-1 1-1 1-1 1-1 1-1 1-1 1-1 1-1 1-1 1-1 1-1 1-1h1 1 1 1 1 1 1 1 1 1 1 1 1 1 1 1 1 1 1 1l1 1 1 1 1 1-26 36zm6467 4706-26 36-6441-4742 26-36zm0 0 1 1 1 1 1 1 1 1 1 1 1 1 1 1 1 1 1 1v1 1 1 1 1 1 1 1 1 1 1 1 1 1 1 1 1 1 1 1l-1 1-1 1-1 1-1 1-1 1-1 1-1 1-1 1-1 1-1 1-1 1-1 1h-1-1-1-1-1-1-1-1-1-1-1-1-1-1-1-1-1-1-1-1l-1-1-1-1-1-1 26-36z"/><path d="m3286 5929-1-1-1-1-1-1-1-1-1-1-1-1-1-1-1-1-1-1-1-1v-1-1-1-1-1-1-1-1-1-1-1-1-1-1-1-1-1-1-1l1-1 1-1 1-1 1-1 1-1 1-1 1-1 1-1 1-1 1-1 1-1 1-1 1-1h1 1 1 1 1 1 1 1 1 1 1 1 1 1 1 1 1 1 1l1 1 1 1 1 1-25 36zm6710 4525-25 36-6686-4562 25-36zm0 0 1 1 1 1 1 1 1 1 1 1 1 1 1 1 1 1 1 1 1 1v1 1 1 1 1 1 1 1 1 1 1 1 1 1 1 1 1 1 1l-1 1-1 1-1 1-1 1-1 1-1 1-1 1-1 1-1 1-1 1-1 1-1 1-1 1h-1-1-1-1-1-1-1-1-1-1-1-1-1-1-1-1-1-1-1l-1-1-1-1-1-1 25-36z"/><path d="m7512 2372-41 17v-1-1-1-1-1-1-1-1-1-1-1-1-1-1-1-1-1-1l1-1 1-1 1-1 1-1 1-1 1-1 1-1 1-1 1-1 1-1 1-1 1-1 1-1h1 1 1 1 1 1 1 1 1 1 1 1 1 1 1 1 1 1 1l1 1 1 1 1 1 1 1 1 1 1 1 1 1 1 1 1 1 1 1 1 1 1 1 1 1v1zm3165 7656-3206-7639 41-17 3206 7639zm0 0 41-17v1 1 1 1 1 1 1 1 1 1 1 1 1 1 1 1 1 1l-1 1-1 1-1 1-1 1-1 1-1 1-1 1-1 1-1 1-1 1-1 1-1 1-1 1h-1-1-1-1-1-1-1-1-1-1-1-1-1-1-1-1-1-1-1l-1-1-1-1-1-1-1-1-1-1-1-1-1-1-1-1-1-1-1-1-1-1-1-1-1-1v-1z"/><path d="m6945 3206-39 21-1-1v-1-1-1-1-1-1-1-1-1-1-1-1-1-1-1-1-1-1-1l1-1 1-1 1-1 1-1 1-1 1-1 1-1 1-1 1-1 1-1 1-1 1-1 1-1h1 1 1 1 1 1 1 1 1 1 1 1 1 1 1 1 1 1 1l1 1 1 1 1 1 1 1 1 1 1 1 1 1 1 1 1 1 1 1 1 1 1 1zm3699 6808-3738-6787 39-21 3738 6787zm0 0 39-21 1 1v1 1 1 1 1 1 1 1 1 1 1 1 1 1 1 1 1 1 1l-1 1-1 1-1 1-1 1-1 1-1 1-1 1-1 1-1 1-1 1-1 1-1 1-1 1h-1-1-1-1-1-1-1-1-1-1-1-1-1-1-1-1-1-1-1l-1-1-1-1-1-1-1-1-1-1-1-1-1-1-1-1-1-1-1-1-1-1-1-1z"/><path d="m7135 2920-39 20v-1-1-1-1-1-1-1-1-1-1-1-1-1-1-1-1-1-1-1l1-1 1-1 1-1 1-1 1-1 1-1 1-1 1-1 1-1 1-1 1-1 1-1 1-1h1 1 1 1 1 1 1 1 1 1 1 1 1 1 1 1 1 1 1l1 1 1 1 1 1 1 1 1 1 1 1 1 1 1 1 1 1 1 1 1 1 1 1 1 1zm3523 7060-3563-7041 39-20 3563 7041zm0 0 39-20v1 1 1 1 1 1 1 1 1 1 1 1 1 1 1 1 1 1 1l-1 1-1 1-1 1-1 1-1 1-1 1-1 1-1 1-1 1-1 1-1 1-1 1-1 1h-1-1-1-1-1-1-1-1-1-1-1-1-1-1-1-1-1-1-1l-1-1-1-1-1-1-1-1-1-1-1-1-1-1-1-1-1-1-1-1-1-1-1-1-1-1z"/><path d="m7315 2623-40 18v-1-1-1-1-1-1-1-1-1-1-1-1-1-1-1-1-1-1-1l1-1 1-1 1-1 1-1 1-1 1-1 1-1 1-1 1-1 1-1 1-1 1-1 1-1h1 1 1 1 1 1 1 1 1 1 1 1 1 1 1 1 1 1 1l1 1 1 1 1 1 1 1 1 1 1 1 1 1 1 1 1 1 1 1 1 1 1 1 1 1zm3323 7307-3363-7288 40-18 3363 7288zm0 0 40-18v1 1 1 1 1 1 1 1 1 1 1 1 1 1 1 1 1 1 1l-1 1-1 1-1 1-1 1-1 1-1 1-1 1-1 1-1 1-1 1-1 1-1 1-1 1h-1-1-1-1-1-1-1-1-1-1-1-1-1-1-1-1-1-1-1l-1-1-1-1-1-1-1-1-1-1-1-1-1-1-1-1-1-1-1-1-1-1-1-1-1-1z"/><path d="m8000 2183v-1-1-1-1-1-1-1-1-1-1-1-1-1-1-1-1-1l1-1 1-1 1-1 1-1 1-1 1-1 1-1 1-1 1-1 1-1 1-1 1-1 1-1h1 1 1 1 1 1 1 1 1 1 1 1 1 1 1 1 1 1 1l1 1 1 1 1 1 1 1 1 1 1 1 1 1 1 1 1 1 1 1 1 1 1 1 1 1v1 1l-42 15zm2778 7729-42 15-2737-7744 42-15zm0 0v1 1 1 1 1 1 1 1 1 1 1 1 1 1 1 1 1l-1 1-1 1-1 1-1 1-1 1-1 1-1 1-1 1-1 1-1 1-1 1-1 1-1 1h-1-1-1-1-1-1-1-1-1-1-1-1-1-1-1-1-1-1-1l-1-1-1-1-1-1-1-1-1-1-1-1-1-1-1-1-1-1-1-1-1-1-1-1-1-1v-1-1l42-15z"/><path d="m9371 2414v-1-1-1-1-1-1-1-1-1-1-1-1-1-1l1-1 1-1 1-1 1-1 1-1 1-1 1-1 1-1 1-1 1-1 1-1 1-1 1-1h1 1 1 1 1 1 1 1 1 1 1 1 1 1 1 1 1 1 1l1 1 1 1 1 1 1 1 1 1 1 1 1 1 1 1 1 1 1 1 1 1 1 1 1 1v1 1 1 1 1l-43 9zm1596 7437-43 9-1553-7446 43-9zm0 0v1 1 1 1 1 1 1 1 1 1 1 1 1 1l-1 1-1 1-1 1-1 1-1 1-1 1-1 1-1 1-1 1-1 1-1 1-1 1-1 1h-1-1-1-1-1-1-1-1-1-1-1-1-1-1-1-1-1-1-1l-1-1-1-1-1-1-1-1-1-1-1-1-1-1-1-1-1-1-1-1-1-1-1-1-1-1v-1-1-1-1-1l43-9z"/><path d="m9073 2384v-1-1-1-1-1-1-1-1-1-1-1-1-1-1l1-1 1-1 1-1 1-1 1-1 1-1 1-1 1-1 1-1 1-1 1-1 1-1 1-1h1 1 1 1 1 1 1 1 1 1 1 1 1 1 1 1 1 1 1l1 1 1 1 1 1 1 1 1 1 1 1 1 1 1 1 1 1 1 1 1 1 1 1 1 1v1 1 1 1 1l-43 10zm1721 7497-43 10-1678-7506 43-10zm0 0v1 1 1 1 1 1 1 1 1 1 1 1 1 1l-1 1-1 1-1 1-1 1-1 1-1 1-1 1-1 1-1 1-1 1-1 1-1 1-1 1h-1-1-1-1-1-1-1-1-1-1-1-1-1-1-1-1-1-1-1l-1-1-1-1-1-1-1-1-1-1-1-1-1-1-1-1-1-1-1-1-1-1-1-1-1-1v-1-1-1-1-1l43-10z"/><path d="m8732 2311v-1-1-1-1-1-1-1-1-1-1-1-1-1-1-1l1-1 1-1 1-1 1-1 1-1 1-1 1-1 1-1 1-1 1-1 1-1 1-1 1-1h1 1 1 1 1 1 1 1 1 1 1 1 1 1 1 1 1 1 1l1 1 1 1 1 1 1 1 1 1 1 1 1 1 1 1 1 1 1 1 1 1 1 1 1 1v1 1 1 1l-43 11zm2028 7554-43 11-1986-7565 43-11zm0 0v1 1 1 1 1 1 1 1 1 1 1 1 1 1 1l-1 1-1 1-1 1-1 1-1 1-1 1-1 1-1 1-1 1-1 1-1 1-1 1-1 1h-1-1-1-1-1-1-1-1-1-1-1-1-1-1-1-1-1-1-1l-1-1-1-1-1-1-1-1-1-1-1-1-1-1-1-1-1-1-1-1-1-1-1-1-1-1v-1-1-1-1l43-11z"/><path d="m8452 2264v-1-1-1-1-1-1-1-1-1-1-1-1-1-1-1-1l1-1 1-1 1-1 1-1 1-1 1-1 1-1 1-1 1-1 1-1 1-1 1-1 1-1h1 1 1 1 1 1 1 1 1 1 1 1 1 1 1 1 1 1 1l1 1 1 1 1 1 1 1 1 1 1 1 1 1 1 1 1 1 1 1 1 1 1 1 1 1v1 1 1l-42 13zm2290 7550-42 13-2247-7562 42-13zm0 0v1 1 1 1 1 1 1 1 1 1 1 1 1 1 1 1l-1 1-1 1-1 1-1 1-1 1-1 1-1 1-1 1-1 1-1 1-1 1-1 1-1 1h-1-1-1-1-1-1-1-1-1-1-1-1-1-1-1-1-1-1-1l-1-1-1-1-1-1-1-1-1-1-1-1-1-1-1-1-1-1-1-1-1-1-1-1-1-1v-1-1-1l42-13z"/><path d="m20135 11099h1 1 1 1 1 1 1 1 1l1 1 1 1 1 1 1 1 1 1 1 1 1 1 1 1 1 1 1 1 1 1 1 1 1 1v1 1 1 1 1 1 1 1 1 1 1 1 1 1 1 1 1 1 1l-1 1-1 1-1 1-1 1-1 1-1 1-1 1-1 1-1 1-1 1-1 1-1 1-1 1h-1-1-1-1-1-1-1-1-1-1l1-44zm-7747-170 1-44 7745 214-1 44zm0 0h-1-1-1-1-1-1-1-1-1l-1-1-1-1-1-1-1-1-1-1-1-1-1-1-1-1-1-1-1-1-1-1-1-1-1-1v-1-1-1-1-1-1-1-1-1-1-1-1-1-1-1-1-1-1-1l1-1 1-1 1-1 1-1 1-1 1-1 1-1 1-1 1-1 1-1 1-1 1-1 1-1h1 1 1 1 1 1 1 1 1 1l-1 44z"/><path d="m20659 9862h1 1 1 1 1 1 1 1 1 1 1 1l1 1 1 1 1 1 1 1 1 1 1 1 1 1 1 1 1 1 1 1 1 1 1 1 1 1v1 1 1 1 1 1 1 1 1 1 1 1 1 1 1 1 1 1 1l-1 1-1 1-1 1-1 1-1 1-1 1-1 1-1 1-1 1-1 1-1 1-1 1-1 1h-1-1-1-1-1-1-1l-5-44zm-8294 1071-5-44 8299-1027 5 44zm0 0h-1-1-1-1-1-1-1-1-1-1-1-1l-1-1-1-1-1-1-1-1-1-1-1-1-1-1-1-1-1-1-1-1-1-1-1-1-1-1v-1-1-1-1-1-1-1-1-1-1-1-1-1-1-1-1-1-1-1l1-1 1-1 1-1 1-1 1-1 1-1 1-1 1-1 1-1 1-1 1-1 1-1 1-1h1 1 1 1 1 1 1l5 44z"/><path d="m20261 10809h1 1 1 1 1 1 1 1 1 1l1 1 1 1 1 1 1 1 1 1 1 1 1 1 1 1 1 1 1 1 1 1 1 1 1 1v1 1 1 1 1 1 1 1 1 1 1 1 1 1 1 1 1 1 1l-1 1-1 1-1 1-1 1-1 1-1 1-1 1-1 1-1 1-1 1-1 1-1 1-1 1h-1-1-1-1-1-1-1-1-1l-1-44zm-7867 146-1-44 7868-102 1 44zm0 0h-1-1-1-1-1-1-1-1-1-1l-1-1-1-1-1-1-1-1-1-1-1-1-1-1-1-1-1-1-1-1-1-1-1-1-1-1v-1-1-1-1-1-1-1-1-1-1-1-1-1-1-1-1-1-1-1l1-1 1-1 1-1 1-1 1-1 1-1 1-1 1-1 1-1 1-1 1-1 1-1 1-1h1 1 1 1 1 1 1 1 1l1 44z"/><path d="m20389 10502h1 1 1 1 1 1 1 1 1 1 1l1 1 1 1 1 1 1 1 1 1 1 1 1 1 1 1 1 1 1 1 1 1 1 1v1 1 1 1 1 1 1 1 1 1 1 1 1 1 1 1 1 1 1 1l-1 1-1 1-1 1-1 1-1 1-1 1-1 1-1 1-1 1-1 1-1 1-1 1h-1-1-1-1-1-1-1-1-1zm-7973 424-2-44 7975-380 2 44zm0 0h-1-1-1-1-1-1-1-1-1-1-1l-1-1-1-1-1-1-1-1-1-1-1-1-1-1-1-1-1-1-1-1-1-1-1-1v-1-1-1-1-1-1-1-1-1-1-1-1-1-1-1-1-1-1-1-1l1-1 1-1 1-1 1-1 1-1 1-1 1-1 1-1 1-1 1-1 1-1 1-1h1 1 1 1 1 1 1 1 1z"/><path d="m20512 10218h1 1 1 1 1 1 1 1 1 1 1l1 1 1 1 1 1 1 1 1 1 1 1 1 1 1 1 1 1 1 1 1 1 1 1 1 1v1 1 1 1 1 1 1 1 1 1 1 1 1 1 1 1 1 1 1l-1 1-1 1-1 1-1 1-1 1-1 1-1 1-1 1-1 1-1 1-1 1-1 1-1 1h-1-1-1-1-1-1-1-1l-4-44zm-8042 700-4-44 8045-656 4 44zm0 0h-1-1-1-1-1-1-1-1-1-1-1l-1-1-1-1-1-1-1-1-1-1-1-1-1-1-1-1-1-1-1-1-1-1-1-1-1-1v-1-1-1-1-1-1-1-1-1-1-1-1-1-1-1-1-1-1-1l1-1 1-1 1-1 1-1 1-1 1-1 1-1 1-1 1-1 1-1 1-1 1-1 1-1h1 1 1 1 1 1 1 1l4 44z"/><path d="m20605 9263-8-43h1 1 1 1 1 1 1 1 1 1 1 1 1 1l1 1 1 1 1 1 1 1 1 1 1 1 1 1 1 1 1 1 1 1 1 1 1 1v1 1 1 1 1 1 1 1 1 1 1 1 1 1 1 1 1 1 1 1l-1 1-1 1-1 1-1 1-1 1-1 1-1 1-1 1-1 1-1 1-1 1-1 1h-1-1-1-1-1-1zm-8190 1526 8182-1569 8 43-8182 1569zm0 0 8 43h-1-1-1-1-1-1-1-1-1-1-1-1-1-1l-1-1-1-1-1-1-1-1-1-1-1-1-1-1-1-1-1-1-1-1-1-1-1-1v-1-1-1-1-1-1-1-1-1-1-1-1-1-1-1-1-1-1-1-1l1-1 1-1 1-1 1-1 1-1 1-1 1-1 1-1 1-1 1-1 1-1 1-1h1 1 1 1 1 1z"/><path d="m19560 8235-15-41h1 1 1 1 1 1 1 1 1 1 1 1 1 1 1 1 1l1 1 1 1 1 1 1 1 1 1 1 1 1 1 1 1 1 1 1 1 1 1 1 1 1 1v1 1 1 1 1 1 1 1 1 1 1 1 1 1 1 1 1 1 1l-1 1-1 1-1 1-1 1-1 1-1 1-1 1-1 1-1 1-1 1-1 1-1 1-1 1h-1-1zm-7122 2551 7107-2592 15 41-7107 2592zm0 0 15 41h-1-1-1-1-1-1-1-1-1-1-1-1-1-1-1-1-1l-1-1-1-1-1-1-1-1-1-1-1-1-1-1-1-1-1-1-1-1-1-1-1-1-1-1v-1-1-1-1-1-1-1-1-1-1-1-1-1-1-1-1-1-1-1l1-1 1-1 1-1 1-1 1-1 1-1 1-1 1-1 1-1 1-1 1-1 1-1 1-1h1 1z"/><path d="m19838 8503-13-42h1 1 1 1 1 1 1 1 1 1 1 1 1 1 1 1l1 1 1 1 1 1 1 1 1 1 1 1 1 1 1 1 1 1 1 1 1 1 1 1 1 1v1 1 1 1 1 1 1 1 1 1 1 1 1 1 1 1 1 1 1l-1 1-1 1-1 1-1 1-1 1-1 1-1 1-1 1-1 1-1 1-1 1-1 1-1 1h-1-1-1zm-7404 2257 7391-2299 13 42-7391 2299zm0 0 13 42h-1-1-1-1-1-1-1-1-1-1-1-1-1-1-1-1l-1-1-1-1-1-1-1-1-1-1-1-1-1-1-1-1-1-1-1-1-1-1-1-1-1-1v-1-1-1-1-1-1-1-1-1-1-1-1-1-1-1-1-1-1-1l1-1 1-1 1-1 1-1 1-1 1-1 1-1 1-1 1-1 1-1 1-1 1-1 1-1h1 1 1z"/><path d="m20081 8762-12-42h1 1 1 1 1 1 1 1 1 1 1 1 1 1 1l1 1 1 1 1 1 1 1 1 1 1 1 1 1 1 1 1 1 1 1 1 1 1 1 1 1v1 1 1 1 1 1 1 1 1 1 1 1 1 1 1 1 1 1 1l-1 1-1 1-1 1-1 1-1 1-1 1-1 1-1 1-1 1-1 1-1 1-1 1-1 1h-1-1-1-1zm-7616 2019 7604-2061 12 42-7604 2061zm0 0 12 42h-1-1-1-1-1-1-1-1-1-1-1-1-1-1-1l-1-1-1-1-1-1-1-1-1-1-1-1-1-1-1-1-1-1-1-1-1-1-1-1-1-1v-1-1-1-1-1-1-1-1-1-1-1-1-1-1-1-1-1-1-1l1-1 1-1 1-1 1-1 1-1 1-1 1-1 1-1 1-1 1-1 1-1 1-1 1-1h1 1 1 1z"/><path d="m20354 9010-10-43h1 1 1 1 1 1 1 1 1 1 1 1 1 1 1l1 1 1 1 1 1 1 1 1 1 1 1 1 1 1 1 1 1 1 1 1 1 1 1v1 1 1 1 1 1 1 1 1 1 1 1 1 1 1 1 1 1 1 1l-1 1-1 1-1 1-1 1-1 1-1 1-1 1-1 1-1 1-1 1-1 1-1 1h-1-1-1-1-1zm-7834 1762 7825-1804 10 43-7825 1804zm0 0 10 43h-1-1-1-1-1-1-1-1-1-1-1-1-1-1-1l-1-1-1-1-1-1-1-1-1-1-1-1-1-1-1-1-1-1-1-1-1-1-1-1v-1-1-1-1-1-1-1-1-1-1-1-1-1-1-1-1-1-1-1-1l1-1 1-1 1-1 1-1 1-1 1-1 1-1 1-1 1-1 1-1 1-1 1-1h1 1 1 1 1z"/><path d="m19660 6643 1-1h1 1 1 1 1 1 1 1 1 1 1 1 1 1 1 1 1 1 1l1 1 1 1 1 1 1 1 1 1 1 1 1 1 1 1 1 1 1 1 1 1 1 1 1 1v1 1 1 1 1 1 1 1 1 1 1 1 1 1 1 1 1 1 1l-1 1-1 1-1 1-1 1-1 1-1 1-1 1-1 1-1 1-1 1-1 1-1 1-21-39zm-7254 3926-21-39 7274-3887 21 39zm0 0-1 1h-1-1-1-1-1-1-1-1-1-1-1-1-1-1-1-1-1-1-1l-1-1-1-1-1-1-1-1-1-1-1-1-1-1-1-1-1-1-1-1-1-1-1-1-1-1v-1-1-1-1-1-1-1-1-1-1-1-1-1-1-1-1-1-1-1l1-1 1-1 1-1 1-1 1-1 1-1 1-1 1-1 1-1 1-1 1-1 1-1 21 39z"/><path d="m19568 7817h1 1 1 1 1 1 1 1 1 1 1 1 1 1 1 1 1 1l1 1 1 1 1 1 1 1 1 1 1 1 1 1 1 1 1 1 1 1 1 1 1 1v1 1 1 1 1 1 1 1 1 1 1 1 1 1 1 1 1 1 1 1l-1 1-1 1-1 1-1 1-1 1-1 1-1 1-1 1-1 1-1 1-1 1-1 1h-1-1l-16-41zm-7094 2881-16-41 7110-2840 16 41zm0 0h-1-1-1-1-1-1-1-1-1-1-1-1-1-1-1-1-1-1l-1-1-1-1-1-1-1-1-1-1-1-1-1-1-1-1-1-1-1-1-1-1-1-1v-1-1-1-1-1-1-1-1-1-1-1-1-1-1-1-1-1-1-1-1l1-1 1-1 1-1 1-1 1-1 1-1 1-1 1-1 1-1 1-1 1-1 1-1h1 1l16 41z"/><path d="m19599 7439h1 1 1 1 1 1 1 1 1 1 1 1 1 1 1 1 1 1l1 1 1 1 1 1 1 1 1 1 1 1 1 1 1 1 1 1 1 1 1 1 1 1 1 1v1 1 1 1 1 1 1 1 1 1 1 1 1 1 1 1 1 1 1l-1 1-1 1-1 1-1 1-1 1-1 1-1 1-1 1-1 1-1 1-1 1-1 1-1 1h-1l-17-41zm-7149 3105-17-41 7166-3065 17 41zm0 0h-1-1-1-1-1-1-1-1-1-1-1-1-1-1-1-1-1-1l-1-1-1-1-1-1-1-1-1-1-1-1-1-1-1-1-1-1-1-1-1-1-1-1-1-1v-1-1-1-1-1-1-1-1-1-1-1-1-1-1-1-1-1-1-1l1-1 1-1 1-1 1-1 1-1 1-1 1-1 1-1 1-1 1-1 1-1 1-1 1-1h1l17 41z"/><path d="m19617 7048h1 1 1 1 1 1 1 1 1 1 1 1 1 1 1 1 1 1 1l1 1 1 1 1 1 1 1 1 1 1 1 1 1 1 1 1 1 1 1 1 1 1 1 1 1v1 1 1 1 1 1 1 1 1 1 1 1 1 1 1 1 1 1 1l-1 1-1 1-1 1-1 1-1 1-1 1-1 1-1 1-1 1-1 1-1 1-1 1-1 1-19-40zm-7120 3470-19-40 7139-3431 19 40zm0 0h-1-1-1-1-1-1-1-1-1-1-1-1-1-1-1-1-1-1-1l-1-1-1-1-1-1-1-1-1-1-1-1-1-1-1-1-1-1-1-1-1-1-1-1-1-1v-1-1-1-1-1-1-1-1-1-1-1-1-1-1-1-1-1-1-1l1-1 1-1 1-1 1-1 1-1 1-1 1-1 1-1 1-1 1-1 1-1 1-1 1-1 19 40z"/><path d="m19351 6101-23-37 1-1 1-1h1 1 1 1 1 1 1 1 1 1 1 1 1 1 1 1 1 1 1l1 1 1 1 1 1 1 1 1 1 1 1 1 1 1 1 1 1 1 1 1 1 1 1 1 1v1 1 1 1 1 1 1 1 1 1 1 1 1 1 1 1 1 1 1l-1 1-1 1-1 1-1 1-1 1-1 1-1 1-1 1-1 1-1 1-1 1zm-6954 4316 6931-4354 23 37-6931 4354zm0 0 23 37-1 1-1 1h-1-1-1-1-1-1-1-1-1-1-1-1-1-1-1-1-1-1-1l-1-1-1-1-1-1-1-1-1-1-1-1-1-1-1-1-1-1-1-1-1-1-1-1-1-1v-1-1-1-1-1-1-1-1-1-1-1-1-1-1-1-1-1-1-1l1-1 1-1 1-1 1-1 1-1 1-1 1-1 1-1 1-1 1-1 1-1z"/><path d="m18041 5461-29-33 1-1 1-1 1-1 1-1 1-1h1 1 1 1 1 1 1 1 1 1 1 1 1 1 1 1 1 1 1l1 1 1 1 1 1 1 1 1 1 1 1 1 1 1 1 1 1 1 1 1 1 1 1 1 1v1 1 1 1 1 1 1 1 1 1 1 1 1 1 1 1 1 1 1l-1 1-1 1-1 1-1 1-1 1-1 1-1 1-1 1zm-5704 4852 5675-4885 29 33-5675 4885zm0 0 29 33-1 1-1 1-1 1-1 1-1 1h-1-1-1-1-1-1-1-1-1-1-1-1-1-1-1-1-1-1-1l-1-1-1-1-1-1-1-1-1-1-1-1-1-1-1-1-1-1-1-1-1-1-1-1-1-1v-1-1-1-1-1-1-1-1-1-1-1-1-1-1-1-1-1-1-1l1-1 1-1 1-1 1-1 1-1 1-1 1-1 1-1z"/><path d="m18383 5635-27-34 1-1 1-1 1-1 1-1h1 1 1 1 1 1 1 1 1 1 1 1 1 1 1 1 1 1 1 1l1 1 1 1 1 1 1 1 1 1 1 1 1 1 1 1 1 1 1 1 1 1 1 1v1 1 1 1 1 1 1 1 1 1 1 1 1 1 1 1 1 1 1 1l-1 1-1 1-1 1-1 1-1 1-1 1-1 1-1 1zm-5980 4748 5953-4783 27 34-5953 4783zm0 0 27 34-1 1-1 1-1 1-1 1h-1-1-1-1-1-1-1-1-1-1-1-1-1-1-1-1-1-1-1-1l-1-1-1-1-1-1-1-1-1-1-1-1-1-1-1-1-1-1-1-1-1-1-1-1v-1-1-1-1-1-1-1-1-1-1-1-1-1-1-1-1-1-1-1-1l1-1 1-1 1-1 1-1 1-1 1-1 1-1 1-1z"/><path d="m18712 5789-26-35 1-1 1-1 1-1h1 1 1 1 1 1 1 1 1 1 1 1 1 1 1 1 1 1 1 1l1 1 1 1 1 1 1 1 1 1 1 1 1 1 1 1 1 1 1 1 1 1 1 1v1 1 1 1 1 1 1 1 1 1 1 1 1 1 1 1 1 1 1 1l-1 1-1 1-1 1-1 1-1 1-1 1-1 1-1 1-1 1zm-6272 4603 6246-4638 26 35-6246 4638zm0 0 26 35-1 1-1 1-1 1h-1-1-1-1-1-1-1-1-1-1-1-1-1-1-1-1-1-1-1-1l-1-1-1-1-1-1-1-1-1-1-1-1-1-1-1-1-1-1-1-1-1-1-1-1v-1-1-1-1-1-1-1-1-1-1-1-1-1-1-1-1-1-1-1-1l1-1 1-1 1-1 1-1 1-1 1-1 1-1 1-1 1-1z"/><path d="m19024 5945-25-36 1-1 1-1 1-1h1 1 1 1 1 1 1 1 1 1 1 1 1 1 1 1 1 1 1l1 1 1 1 1 1 1 1 1 1 1 1 1 1 1 1 1 1 1 1 1 1 1 1 1 1v1 1 1 1 1 1 1 1 1 1 1 1 1 1 1 1 1 1 1l-1 1-1 1-1 1-1 1-1 1-1 1-1 1-1 1-1 1-1 1zm-6538 4419 6513-4455 25 36-6513 4455zm0 0 25 36-1 1-1 1-1 1h-1-1-1-1-1-1-1-1-1-1-1-1-1-1-1-1-1-1-1l-1-1-1-1-1-1-1-1-1-1-1-1-1-1-1-1-1-1-1-1-1-1-1-1-1-1v-1-1-1-1-1-1-1-1-1-1-1-1-1-1-1-1-1-1-1l1-1 1-1 1-1 1-1 1-1 1-1 1-1 1-1 1-1 1-1z"/><path d="m17632 3941 1-1 1-1 1-1 1-1 1-1 1-1 1-1h1 1 1 1 1 1 1 1 1 1 1 1 1 1 1 1 1 1 1 1l1 1 1 1 1 1 1 1 1 1 1 1 1 1 1 1 1 1 1 1 1 1 1 1v1 1 1 1 1 1 1 1 1 1 1 1 1 1 1 1 1 1 1 1l-1 1-1 1-1 1-1 1-1 1-33-30zm-5604 6242-33-30 5637-6212 33 30zm0 0-1 1-1 1-1 1-1 1-1 1-1 1-1 1h-1-1-1-1-1-1-1-1-1-1-1-1-1-1-1-1-1-1-1-1l-1-1-1-1-1-1-1-1-1-1-1-1-1-1-1-1-1-1-1-1-1-1-1-1v-1-1-1-1-1-1-1-1-1-1-1-1-1-1-1-1-1-1-1-1l1-1 1-1 1-1 1-1 1-1 33 30z"/><path d="m17923 5074 1-1 1-1 1-1 1-1 1-1h1 1 1 1 1 1 1 1 1 1 1 1 1 1 1 1 1 1 1 1l1 1 1 1 1 1 1 1 1 1 1 1 1 1 1 1 1 1 1 1 1 1 1 1v1 1 1 1 1 1 1 1 1 1 1 1 1 1 1 1 1 1 1 1l-1 1-1 1-1 1-1 1-1 1-1 1-1 1-30-33zm-5708 5222-30-33 5738-5189 30 33zm0 0-1 1-1 1-1 1-1 1-1 1h-1-1-1-1-1-1-1-1-1-1-1-1-1-1-1-1-1-1-1-1l-1-1-1-1-1-1-1-1-1-1-1-1-1-1-1-1-1-1-1-1-1-1-1-1v-1-1-1-1-1-1-1-1-1-1-1-1-1-1-1-1-1-1-1-1l1-1 1-1 1-1 1-1 1-1 1-1 1-1 30 33z"/><path d="m17863 4815 1-1 1-1 1-1 1-1 1-1h1 1 1 1 1 1 1 1 1 1 1 1 1 1 1 1 1 1 1 1l1 1 1 1 1 1 1 1 1 1 1 1 1 1 1 1 1 1 1 1 1 1 1 1v1 1 1 1 1 1 1 1 1 1 1 1 1 1 1 1 1 1 1 1l-1 1-1 1-1 1-1 1-1 1-1 1-1 1-30-33zm-5799 5365-30-33 5828-5332 30 33zm0 0-1 1-1 1-1 1-1 1-1 1h-1-1-1-1-1-1-1-1-1-1-1-1-1-1-1-1-1-1-1-1l-1-1-1-1-1-1-1-1-1-1-1-1-1-1-1-1-1-1-1-1-1-1-1-1v-1-1-1-1-1-1-1-1-1-1-1-1-1-1-1-1-1-1-1-1l1-1 1-1 1-1 1-1 1-1 1-1 1-1 30 33z"/><path d="m17787 4534 1-1 1-1 1-1 1-1 1-1 1-1h1 1 1 1 1 1 1 1 1 1 1 1 1 1 1 1 1 1 1l1 1 1 1 1 1 1 1 1 1 1 1 1 1 1 1 1 1 1 1 1 1 1 1 1 1v1 1 1 1 1 1 1 1 1 1 1 1 1 1 1 1 1 1 1 1l-1 1-1 1-1 1-1 1-1 1-1 1-31-32zm-5725 5609-31-32 5756-5577 31 32zm0 0-1 1-1 1-1 1-1 1-1 1-1 1h-1-1-1-1-1-1-1-1-1-1-1-1-1-1-1-1-1-1-1l-1-1-1-1-1-1-1-1-1-1-1-1-1-1-1-1-1-1-1-1-1-1-1-1-1-1v-1-1-1-1-1-1-1-1-1-1-1-1-1-1-1-1-1-1-1-1l1-1 1-1 1-1 1-1 1-1 1-1 31 32z"/><path d="m17711 4256 1-1 1-1 1-1 1-1 1-1 1-1h1 1 1 1 1 1 1 1 1 1 1 1 1 1 1 1 1 1 1 1l1 1 1 1 1 1 1 1 1 1 1 1 1 1 1 1 1 1 1 1 1 1 1 1v1 1 1 1 1 1 1 1 1 1 1 1 1 1 1 1 1 1 1 1l-1 1-1 1-1 1-1 1-1 1-1 1-32-31zm-5614 5846-32-31 5645-5815 32 31zm0 0-1 1-1 1-1 1-1 1-1 1-1 1h-1-1-1-1-1-1-1-1-1-1-1-1-1-1-1-1-1-1-1-1l-1-1-1-1-1-1-1-1-1-1-1-1-1-1-1-1-1-1-1-1-1-1-1-1v-1-1-1-1-1-1-1-1-1-1-1-1-1-1-1-1-1-1-1-1l1-1 1-1 1-1 1-1 1-1 1-1 32 31z"/><path d="m14812 2372v-1l1-1 1-1 1-1 1-1 1-1 1-1 1-1 1-1 1-1 1-1 1-1 1-1 1-1h1 1 1 1 1 1 1 1 1 1 1 1 1 1 1 1 1 1 1l1 1 1 1 1 1 1 1 1 1 1 1 1 1 1 1 1 1 1 1 1 1 1 1 1 1v1 1 1 1 1 1 1 1 1 1 1 1 1 1 1 1 1 1l-41-17zm-3225 7759-41-17 3266-7742 41 17zm0 0v1l-1 1-1 1-1 1-1 1-1 1-1 1-1 1-1 1-1 1-1 1-1 1-1 1-1 1h-1-1-1-1-1-1-1-1-1-1-1-1-1-1-1-1-1-1-1l-1-1-1-1-1-1-1-1-1-1-1-1-1-1-1-1-1-1-1-1-1-1-1-1-1-1v-1-1-1-1-1-1-1-1-1-1-1-1-1-1-1-1-1-1l41 17z"/><path d="m15337 3249 1-1 1-1 1-1 1-1 1-1 1-1 1-1 1-1 1-1 1-1 1-1 1-1h1 1 1 1 1 1 1 1 1 1 1 1 1 1 1 1 1 1 1l1 1 1 1 1 1 1 1 1 1 1 1 1 1 1 1 1 1 1 1 1 1 1 1 1 1v1 1 1 1 1 1 1 1 1 1 1 1 1 1 1 1 1 1 1 1l-39-20zm-3533 6939-39-20 3572-6919 39 20zm0 0-1 1-1 1-1 1-1 1-1 1-1 1-1 1-1 1-1 1-1 1-1 1-1 1h-1-1-1-1-1-1-1-1-1-1-1-1-1-1-1-1-1-1-1l-1-1-1-1-1-1-1-1-1-1-1-1-1-1-1-1-1-1-1-1-1-1-1-1-1-1v-1-1-1-1-1-1-1-1-1-1-1-1-1-1-1-1-1-1-1-1l39 20z"/><path d="m15171 2951 1-1 1-1 1-1 1-1 1-1 1-1 1-1 1-1 1-1 1-1 1-1 1-1h1 1 1 1 1 1 1 1 1 1 1 1 1 1 1 1 1 1 1 1l1 1 1 1 1 1 1 1 1 1 1 1 1 1 1 1 1 1 1 1 1 1 1 1 1 1v1 1 1 1 1 1 1 1 1 1 1 1 1 1 1 1 1 1 1l-39-20zm-3513 7138-39-20 3553-7118 39 20zm0 0-1 1-1 1-1 1-1 1-1 1-1 1-1 1-1 1-1 1-1 1-1 1-1 1h-1-1-1-1-1-1-1-1-1-1-1-1-1-1-1-1-1-1-1-1l-1-1-1-1-1-1-1-1-1-1-1-1-1-1-1-1-1-1-1-1-1-1-1-1-1-1v-1-1-1-1-1-1-1-1-1-1-1-1-1-1-1-1-1-1-1l39 20z"/><path d="m14993 2642v-1l1-1 1-1 1-1 1-1 1-1 1-1 1-1 1-1 1-1 1-1 1-1 1-1h1 1 1 1 1 1 1 1 1 1 1 1 1 1 1 1 1 1 1l1 1 1 1 1 1 1 1 1 1 1 1 1 1 1 1 1 1 1 1 1 1 1 1 1 1v1 1 1 1 1 1 1 1 1 1 1 1 1 1 1 1 1 1 1l-40-18zm-3315 7396-40-18 3355-7377 40 18zm0 0v1l-1 1-1 1-1 1-1 1-1 1-1 1-1 1-1 1-1 1-1 1-1 1-1 1h-1-1-1-1-1-1-1-1-1-1-1-1-1-1-1-1-1-1-1l-1-1-1-1-1-1-1-1-1-1-1-1-1-1-1-1-1-1-1-1-1-1-1-1-1-1v-1-1-1-1-1-1-1-1-1-1-1-1-1-1-1-1-1-1-1l40 18z"/><path d="m17144 3556-35-27 1-1 1-1 1-1 1-1 1-1 1-1 1-1 1-1h1 1 1 1 1 1 1 1 1 1 1 1 1 1 1 1 1 1 1 1l1 1 1 1 1 1 1 1 1 1 1 1 1 1 1 1 1 1 1 1 1 1 1 1 1 1v1 1 1 1 1 1 1 1 1 1 1 1 1 1 1 1 1 1 1l-1 1-1 1-1 1-1 1zm-5173 6485 5138-6512 35 27-5138 6512zm0 0 35 27-1 1-1 1-1 1-1 1-1 1-1 1-1 1-1 1h-1-1-1-1-1-1-1-1-1-1-1-1-1-1-1-1-1-1-1-1l-1-1-1-1-1-1-1-1-1-1-1-1-1-1-1-1-1-1-1-1-1-1-1-1-1-1v-1-1-1-1-1-1-1-1-1-1-1-1-1-1-1-1-1-1-1l1-1 1-1 1-1 1-1z"/><path d="m15547 3520-39-21 1-1 1-1 1-1 1-1 1-1 1-1 1-1 1-1 1-1 1-1 1-1 1-1h1 1 1 1 1 1 1 1 1 1 1 1 1 1 1 1 1 1 1l1 1 1 1 1 1 1 1 1 1 1 1 1 1 1 1 1 1 1 1 1 1 1 1 1 1v1 1 1 1 1 1 1 1 1 1 1 1 1 1 1 1 1 1 1l-1 1zm-3527 6462 3488-6483 39 21-3488 6483zm0 0 39 21-1 1-1 1-1 1-1 1-1 1-1 1-1 1-1 1-1 1-1 1-1 1-1 1h-1-1-1-1-1-1-1-1-1-1-1-1-1-1-1-1-1-1-1l-1-1-1-1-1-1-1-1-1-1-1-1-1-1-1-1-1-1-1-1-1-1-1-1-1-1v-1-1-1-1-1-1-1-1-1-1-1-1-1-1-1-1-1-1-1l1-1z"/><path d="m15862 3531-38-22 1-1 1-1 1-1 1-1 1-1 1-1 1-1 1-1 1-1 1-1 1-1h1 1 1 1 1 1 1 1 1 1 1 1 1 1 1 1 1 1 1l1 1 1 1 1 1 1 1 1 1 1 1 1 1 1 1 1 1 1 1 1 1 1 1 1 1v1 1 1 1 1 1 1 1 1 1 1 1 1 1 1 1 1 1 1 1l-1 1zm-3875 6492 3837-6514 38 22-3837 6514zm0 0 38 22-1 1-1 1-1 1-1 1-1 1-1 1-1 1-1 1-1 1-1 1-1 1h-1-1-1-1-1-1-1-1-1-1-1-1-1-1-1-1-1-1-1l-1-1-1-1-1-1-1-1-1-1-1-1-1-1-1-1-1-1-1-1-1-1-1-1-1-1v-1-1-1-1-1-1-1-1-1-1-1-1-1-1-1-1-1-1-1-1l1-1z"/><path d="m16165 3536-37-24 1-1 1-1 1-1 1-1 1-1 1-1 1-1 1-1 1-1 1-1h1 1 1 1 1 1 1 1 1 1 1 1 1 1 1 1 1 1 1 1l1 1 1 1 1 1 1 1 1 1 1 1 1 1 1 1 1 1 1 1 1 1 1 1v1 1 1 1 1 1 1 1 1 1 1 1 1 1 1 1 1 1 1 1l-1 1-1 1zm-4198 6469 4161-6493 37 24-4161 6493zm0 0 37 24-1 1-1 1-1 1-1 1-1 1-1 1-1 1-1 1-1 1-1 1h-1-1-1-1-1-1-1-1-1-1-1-1-1-1-1-1-1-1-1-1l-1-1-1-1-1-1-1-1-1-1-1-1-1-1-1-1-1-1-1-1-1-1-1-1v-1-1-1-1-1-1-1-1-1-1-1-1-1-1-1-1-1-1-1-1l1-1 1-1z"/><path d="m16479 3538-36-25 1-1 1-1 1-1 1-1 1-1 1-1 1-1 1-1 1-1 1-1h1 1 1 1 1 1 1 1 1 1 1 1 1 1 1 1 1 1 1l1 1 1 1 1 1 1 1 1 1 1 1 1 1 1 1 1 1 1 1 1 1 1 1 1 1v1 1 1 1 1 1 1 1 1 1 1 1 1 1 1 1 1 1 1l-1 1-1 1-1 1zm-4475 6463 4439-6487 36 25-4439 6487zm0 0 36 25-1 1-1 1-1 1-1 1-1 1-1 1-1 1-1 1-1 1-1 1h-1-1-1-1-1-1-1-1-1-1-1-1-1-1-1-1-1-1-1l-1-1-1-1-1-1-1-1-1-1-1-1-1-1-1-1-1-1-1-1-1-1-1-1-1-1v-1-1-1-1-1-1-1-1-1-1-1-1-1-1-1-1-1-1-1l1-1 1-1 1-1z"/><path d="m16782 3547-36-26 1-1 1-1 1-1 1-1 1-1 1-1 1-1 1-1 1-1h1 1 1 1 1 1 1 1 1 1 1 1 1 1 1 1 1 1 1 1l1 1 1 1 1 1 1 1 1 1 1 1 1 1 1 1 1 1 1 1 1 1 1 1v1 1 1 1 1 1 1 1 1 1 1 1 1 1 1 1 1 1 1 1l-1 1-1 1-1 1zm-4743 6412 4707-6438 36 26-4707 6438zm0 0 36 26-1 1-1 1-1 1-1 1-1 1-1 1-1 1-1 1-1 1h-1-1-1-1-1-1-1-1-1-1-1-1-1-1-1-1-1-1-1-1l-1-1-1-1-1-1-1-1-1-1-1-1-1-1-1-1-1-1-1-1-1-1-1-1v-1-1-1-1-1-1-1-1-1-1-1-1-1-1-1-1-1-1-1-1l1-1 1-1 1-1z"/></g><g stroke="#373435" stroke-linecap="round" stroke-linejoin="round" stroke-width="44.130001"><g fill="none"><path d="m14318 2063-2699 7748"/><path d="m13920 2151-2314 7612"/><path d="m13598 2231-2005 7565"/><path d="m13309 2296-1723 7494"/><path d="m13010 2372-1424 7411"/><path d="m12769 2422-1347 7297"/></g><path d="m1488 9469 40 98 11103 1759-78-110z" fill="#373435"/></g><path d="m16343 20345h44v1 1 1 1 1 1 1 1 1 1l-1 1-1 1-1 1-1 1-1 1-1 1-1 1-1 1-1 1-1 1-1 1-1 1h-1-1-1-1-1-1-1-1-1-1-1-1-1-1-1-1-1-1-1-1l-1-1-1-1-1-1-1-1-1-1-1-1-1-1-1-1-1-1-1-1-1-1-1-1v-1-1-1-1-1-1-1-1-1zm-172-907 26-36 24 19 22 21 20 23 18 25 16 26 15 27 13 29 12 30 10 31 9 31 8 32 7 33 6 33 5 34 4 34 3 34 2 34 2 34 1 34 1 34v34 33l-1 32-1 32-1 31-1 30-1 29-1 28-1 26-1 25v23 22h-44v-22-24l1-25 1-26 1-28 1-29 1-30 1-31 1-31v-32-33-33l-1-33-1-33-2-34-2-33-3-33-4-33-5-33-6-32-6-31-8-31-9-30-10-29-11-27-12-26-13-25-15-23-16-22-17-20-19-18-21-17zm26-36-26 36-1-1-1-1-1-1-1-1-1-1-1-1-1-1-1-1-1-1v-1-1-1-1-1-1-1-1-1-1-1-1-1-1-1-1-1-1-1-1l1-1 1-1 1-1 1-1 1-1 1-1 1-1 1-1 1-1 1-1 1-1 1-1h1 1 1 1 1 1 1 1 1 1 1 1 1 1 1 1 1 1 1 1l1 1 1 1 1 1z" fill="#373435" fill-rule="nonzero"/><g stroke="#373435" stroke-linecap="round" stroke-linejoin="round" stroke-width="44.130001"><path d="m17154 18033c164 933-519 1743-519 2647" fill="none"/><path d="m17660 21615c-91 670 214 997 611 1501-713-406-1277-797-1693-1508l723-98 358 104z" fill="#0d9847"/><g fill="#373435"><path d="m19904 15404-123 61-10851-3184 118-65z"/><path d="m2581 16132 31-119 10224-4880-42 128z"/><path d="m11156 1363-83 57 158 11243 95-96z"/><path d="m7655 2086-47 64 4176 10516 55-123z"/><path d="m14621 1974 58 98-4220 10638-55-123z"/><path d="m4800 3569-33 102 7201 8621 13-134z"/><path d="m17548 3532 29 111-7302 8694-13-134z"/><path d="m2669 6197 1 105 9688 5734-32-131z"/><path d="m19716 6234-6 108-9825 5738 32-131z"/><path d="m20858 9471-43 98-11203 1801 78-109z"/><path d="m1415 12891 86 77 11085-1733-109-80z"/><path d="m20929 13008-93 80-11179-1808 108-80z"/></g></g><path d="m11146 8155c1713 0 3101 1377 3101 3075s-1389 3075-3101 3075c-1713 0-3101-1377-3101-3075s1389-3075 3101-3075z" fill="#fff212"/><path d="m14270 11230h-44l-4-157-12-155-20-153-27-150-34-148-41-145-48-142-55-139-62-135-68-132-74-128-80-124-86-120-91-115-97-111-102-106-107-101-112-96-116-91-121-85-125-79-129-74-133-67-136-61-140-55-143-48-146-41-149-34-152-27-154-19-156-12-159-4v-44l161 4 159 12 156 20 154 27 151 35 148 42 145 49 142 55 138 62 135 68 131 75 127 81 122 86 118 92 113 97 108 103 103 108 98 112 93 117 87 121 81 126 75 130 69 134 63 137 56 141 49 144 42 147 35 150 27 153 20 155 12 157 4 159zm-3124 3097v-44l159-4 156-12 154-19 152-27 149-34 146-41 143-48 140-55 136-61 133-67 129-74 125-79 121-85 116-91 112-96 107-101 102-106 97-111 91-115 86-120 80-124 74-128 68-132 62-135 55-139 48-142 41-145 34-148 27-150 20-153 12-155 4-157h44l-4 159-12 157-20 155-27 153-35 150-42 147-49 144-56 141-63 137-69 134-75 130-81 126-87 121-93 117-98 112-103 108-108 103-113 97-118 92-122 86-127 81-131 75-135 68-138 62-142 55-145 49-148 42-151 35-154 27-156 20-159 12-161 4zm-3124-3097h44l4 157 12 155 20 153 27 150 34 148 41 145 48 142 55 139 62 135 68 132 74 128 80 124 86 120 91 115 97 111 102 106 107 101 112 96 116 91 121 85 125 79 129 74 133 67 136 61 140 55 143 48 146 41 149 34 152 27 154 19 156 12 159 4v44l-161-4-159-12-156-20-154-27-151-35-148-42-145-49-142-55-138-62-135-68-131-75-127-81-122-86-118-92-113-97-108-103-103-108-98-112-93-117-87-121-81-126-75-130-69-134-63-137-56-141-49-144-42-147-35-150-27-153-20-155-12-157-4-159zm3124-3097v44l-159 4-156 12-154 19-152 27-149 34-146 41-143 48-140 55-136 61-133 67-129 74-125 79-121 85-116 91-112 96-107 101-102 106-97 111-91 115-86 120-80 124-74 128-68 132-62 135-55 139-48 142-41 145-34 148-27 150-20 153-12 155-4 157h-44l4-159 12-157 20-155 27-153 35-150 42-147 49-144 56-141 63-137 69-134 75-130 81-126 87-121 93-117 98-112 103-108 108-103 113-97 118-92 122-86 127-81 131-75 135-68 138-62 142-55 145-49 148-42 151-35 154-27 156-20 159-12 161-4z" fill="#373435" fill-rule="nonzero"/><g stroke="#373435" stroke-linecap="round" stroke-linejoin="round"><path d="m16978 11265c243 0 513 26 809 79 431 295 469 735-13 958-495 30-557-99-730-444-237-81-473-84-710-7 221-209 423-378 644-586z" fill="#e4c3b2" stroke-width="44.130001"/><path d="m17483 11708c77 12-43 211 29 292 263 292 533-325 143-498-398-57-714 154-532 502" fill="none" stroke-width="44.110001"/><path d="m17346 11503c-61-120-286-100-478-109" fill="none" stroke-width="44.110001"/><path d="m5414 11317c-243 0-513 26-809 79-431 295-469 735 13 958 495 30 557-99 730-444 237-81 473-84 710-7-221-209-423-378-644-586z" fill="#e4c3b2" stroke-width="44.130001"/><path d="m4909 11760c-77 12 43 211-29 292-263 292-533-325-143-498 398-57 714 154 532 502" fill="none" stroke-width="44.110001"/><path d="m5047 11556c61-120 286-100 478-109" fill="none" stroke-width="44.110001"/><g stroke-width="44.130001"><path d="m13990 11907 603 13c0-540 161-916 558-1256l568 251c-236 796 139 624 447 131l972 263c-1064 705-1240 1284-1301 2471 383 593 1222 995 618 1919l-26 1051c430 455 38 1143-499 1787-166 1137 594 2333 1498 2707l1025-1446c1380 588 672 2265-1163 1748l-887 92-1998 1078-1472-394c-84-250-920-1034-920-394 89 111 216 331 78 437-558 429-1238 431-1783 0-164-129-120-243 23-358 92-705-590-82-749 230l-66 401-815 473-53-1025c-222 340-447 599-953 361l-835 7-499-421c-933-682-1742-38-2648-545-723-404-387-1403 144-1557s561 157 652 351c160 345 398 636 776 829 924-539 1222-1517 1350-2528-531-398-1071-941-721-1780l53-1104c-649-835 31-1503 552-1761-55-987-298-2222-1301-2668l927-210c425 368 911 880 453-171l552-210c564 256 683 651 683 1235l514-7c-94-1594 921-2011 2110-1117l1391 48c1043-1154 2319-248 2141 1069z" fill="#e4c3b2"/><path d="m8043 20238 314 86 799 29h1342l629 629 685-572 2255-57 372-172 142-543-85-7004h-6682v7033l58 371z" fill="#ed3237"/></g></g><path d="m7836 12663-21 1487 4654 6232 1585-11c580-183 498-479 485-1043l-5011-6665z" fill="#fefefe"/><path d="m11327 16769 172 594-448-368-447 368 172-594-449-367 554 1 170-596 171 596 554-1z" fill="#24468e"/><g stroke="#373435" stroke-linecap="round" stroke-linejoin="round" stroke-width="44.130001"><path d="m7929 12775v6938c38 397 309 570 774 556h1868l587 598 614-572h2055c403 12 611-182 640-563l-53-6985-6485 27zm-228-227v7326c40 424 331 608 828 593h1999l628 715 657-686h2199c431 13 654-194 685-600l-57-7376-6938 29z" fill="#d2d3d5"/><path d="m9424 23564c-24 566 38 1187 426 1665 820 1012 2532 1403 3524 781 243-152 178-294 297-641 335-277 462-431 500-869-194-905-876-1133-1617-751l-841 158c60 573 561 628 1078 593 362 0 933 172 723 645-1180 426-2936 140-3208-1264l-881-316z" fill="#fff212"/><path d="m13466 25164c240-169 524-195 519-626-5-430-526-744-1039-790" fill="none"/></g><path d="m10278 25363 353-455 93 72-293 378 230 179-60 77zm398 296 271-514 381 201-46 87-277-146-60 114 258 136-46 86-258-136-74 140 287 151-46 87-391-206zm798 143 32-93 239 81-75 219c-31 15-71 23-121 25s-98-5-143-20c-57-20-104-49-138-87-35-39-55-84-61-136s0-105 18-158c19-57 49-104 88-140s86-58 140-66c41-6 88 0 141 17 68 23 117 56 145 97 29 42 40 90 34 144l-117-17c1-30-6-56-22-79s-40-40-72-51c-48-17-92-14-131 7s-69 62-90 122c-22 65-24 119-7 162 18 43 50 72 97 88 23 8 48 11 75 10 26-1 50-5 71-13l24-70-127-43zm274 321 99-572 424 73-17 97-309-53-22 127 287 50-17 96-287-50-27 156 320 55-17 97-435-75z" fill="#373435" fill-rule="nonzero"/><g stroke="#373435" stroke-linecap="round" stroke-linejoin="round" stroke-width="44.130001"><g fill="#0d9847"><path d="m2982 11528c274 412 486 496 539 1027-532-89-639-577-539-1027z"/><path d="m3285 12529c-34 482-442 660-855 698 144-540 285-646 855-698z"/><path d="m3925 11855c-64 769-47 996 556 1385 131-689-313-808-556-1385z"/><path d="m3797 12897c28 485-26 615 362 922 41-557 87-568-362-922z"/><path d="m3824 13852c-845-741-1332-363-1670 533 166-185 267-381 566-480 299-100 649 14 1103-53z"/><path d="m4001 14800c-39-632-538-737-1098-612 245 491 873 363 1098 612z"/><path d="m5412 13222c198-433 525-450 924-396-169 326-515 619-924 396z"/><path d="m3436 14998c-528-769-944-445-1624-138 636 138 957 309 1624 138z"/><path d="m2581 15834c-624-542-603-724-1505-566 479 561 731 620 1505 566z"/><path d="m2640 16032c-809 135-1108 371-1315 1159l-53 132c654-471 972-390 1367-1291z"/><path d="m3653 16045c-244-434-144-449 217-751 96 385 124 488-217 751z"/><path d="m5520 14446c80-442-163-621-421-943 0 410-41 857 421 943z"/><path d="m6045 14096c0-526-225-594-618-869 0 511 187 639 618 869z"/><path d="m5480 15004c-98-522-262-461-740-557 389 370 40 403 740 557z"/><path d="m4836 15755c476-133 815-206 684-764-424 297-618 142-684 764z"/><path d="m3587 16084c87 783-135 615 421 1086-72-653 98-739-421-1086z"/><path d="m3883 17322c-778-60-639-335-1348 171-92 66-92 66-92 66 549-30 1026 281 1440-237z"/><path d="m4573 17651c-579 273-605 735-552 1317 532-369 527-709 552-1317z"/><path d="m3999 19104c-236-710-937-973-1609-1057 492 690 684 1096 1609 1057z"/><path d="m6032 18968c0-609-413-820-881-1096 155 723 96 895 881 1096z"/><path d="m6019 18968c-66 561-88 984-670 1251-39-590-113-1027 670-1251z"/><path d="m4058 19527c-624 109-1681 492-1681 1311 498 41 635-212 957-304 152-407 312-480 601-635 146-93 139-212 123-372z"/><path d="m4415 19591c498 392 360 1001 986 1221 57-745-205-1221-986-1221z"/><path d="m2729 15963c294 203 344 419 779 491 0-551-299-691-779-491z"/><path d="m5533 16572c-474 169-859 793-894 1281 418-249 956-690 894-1281z"/><path d="m5296 17730c-217-266-271-317-343-654-21-203-66-507 106-676 392 321 337 879 237 1330z"/><path d="m7728 24196-263-92 26 1054 224-171z"/></g><path d="m11064 23892c-474-542-1158-1001-1617-609s-346 630-992 972-1406-327-1925-924c102-467 256-1041 861-881 600 2006 898 172 2341 152 814 65 1290 624 1332 1291z" fill="#fff212"/><g fill="none"><path d="m6921 23707c404-14 952-176 1259-384"/><path d="m7235 23670-329-441c435-35 628-262 467-770"/></g></g><path d="m8132 24030 83-51c20 27 41 43 64 49s48 2 75-11c29-14 48-31 56-50 9-19 9-37 1-54-5-11-13-18-22-22-10-5-24-6-42-4-12 1-39 7-81 16-54 12-95 13-123 5-39-11-68-34-85-70-11-23-15-47-12-73s15-50 34-72 46-41 80-58c56-27 104-36 144-25s71 36 92 77l-88 48c-15-21-31-33-49-37s-39 0-64 13c-26 13-44 28-53 46-6 12-6 23-1 35 5 11 14 17 27 21 16 4 48 1 97-11 49-11 86-16 113-15 26 1 50 8 71 21s39 34 52 62c12 25 17 53 14 82s-15 56-36 79-50 45-89 64c-56 27-106 36-149 24-43-11-79-40-109-87zm188-444 75-66 176 202c28 32 47 52 57 60 17 13 35 18 55 17s41-11 62-29c21-19 34-37 37-55s0-35-8-49c-9-15-26-37-52-66l-180-207 75-66 171 196c39 45 65 78 77 100s18 44 18 66-6 45-18 69-33 48-62 74c-36 31-66 50-92 58s-50 10-72 6-41-12-57-23c-24-17-54-47-90-88l-173-199zm272-265 114-162c23-32 41-55 54-69 14-14 29-24 46-31 17-6 36-9 56-7s39 8 56 21c19 13 33 31 42 52s11 44 7 67c24-20 50-30 77-31s52 7 75 23c18 13 33 30 45 51 11 21 17 42 17 64s-6 45-19 68c-8 15-30 48-66 101l-97 138-406-284zm125-35 94 66 38-54c22-32 36-52 40-60 8-15 11-30 9-43-2-14-10-25-23-34s-25-13-38-11-25 9-36 21c-7 7-23 30-50 69l-33 47zm161 113 108 76 53-76c21-30 33-49 37-58 6-14 8-27 5-41s-12-26-26-36c-12-9-25-13-37-13-13 0-25 4-37 13-12 8-31 31-57 69z" fill="#373435" fill-rule="nonzero"/><g stroke="#373435" stroke-linecap="round" stroke-linejoin="round" stroke-width="44.130001"><g fill="#0d9847"><path d="m7078 22579c303-823 177-1479-112-2412l-105 198c-394 690-505 1274 0 1949l217 266z"/><path d="m6532 22116c-749-638-1427-612-2298-340 601 640 992 735 1864 616l210-105 223-171z"/><path d="m4731 24052c599-313 1065-734 1354-1356l131-421c-802 301-1252 998-1486 1778z"/><path d="m6124 23643c388-415 892-926 595-1520-854-211-671 1006-595 1520z"/></g><g fill="none"><path d="m6532 13536c97 417 90 516-217 823-327 357-583 860-118 1185 201 16 240-41 302-158-261 11-285-168-188-308 32-46 110-82 165-71 427 68 371 501 95 734-253 113-373 113-601-40"/><path d="m6447 18396c-258-468-488-972-378-1320s372-433 595-142l7 72c-288-111-308 302-33 362 79 17 142-2 187-26 341-183 197-539-85-777-311-100-630-34-825 253"/><path d="m6753 15495 3 1070"/></g><path d="m7301 15586c-343 540-752 572-1331 427-205-257-153-335-499-345v380l-171-3c-8-264-516-365-572 3 16 343 441 372 572 122l158 7v405c351-12 365-65 496-372 631-35 910-7 1315 514 0 0-47-43-10-237 38-194 124-258 391-303-388-92-432-219-349-597z" fill="#e4c3b2"/><g fill="none"><path d="m15872 13536c-97 417-90 516 217 823 327 357 583 860 118 1185-201 16-240-41-302-158 261 11 285-168 188-308-32-46-110-82-165-71-427 68-371 501-95 734 253 113 373 113 601-40"/><path d="m15938 18518c258-468 508-1094 398-1442s-372-433-595-142l-7 72c288-111 308 302 33 362-79 17-142-2-187-26-341-183-197-539 85-777 311-100 630-34 825 253"/><path d="m15652 15495-4 1070"/></g><path d="m15103 15586c343 540 752 572 1331 427 205-257 153-335 499-345v380l171-3c8-264 516-365 572 3-16 343-441 372-572 122l-158 7v405c-351-12-365-65-496-372-631-35-910-7-1315 514 0 0 47-43 10-237-38-194-124-258-391-303 388-92 432-219 349-597z" fill="#e4c3b2"/><path d="m6505 13925c592 48 777-265 920-777-673-41-994 33-920 777z" fill="#0d9847"/><path d="m6308 14385c785-536 1154 22 1315 698-389-65-546-313-776-527-230-213-295-158-539-171z" fill="#0d9847"/><path d="m10905 23793-1104-705c-747-151-565 1230 177 757l894 237 33-290z" fill="#e4c3b2"/><g fill="none"><path d="m9788 23095c357 148 472 518 184 751"/><path d="m9637 23095c166 155 297 371 163 526-31 36-91 67-150 67-160-64-149-94-92-250-97 1-126 54-154 87-34 40-51 102-37 169"/><path d="m15478 20451c-79-101-105-169-184-270-156 564-469 1023-940 1376-473 183-268 678 85 468 101-60 12 412-112 369-349-18-442-399-592-678-188 136-331 274-289 454"/><path d="m12947 22123c-190-337-405-681-835-606-169 81-233 217-191 415 51 147 68 181-13 316-465 384-1037 407-1354-72l-26-79c-7-139 82-194 59-369-125-305-361-347-598-171-363 269-420 571-460 1014"/><path d="m14361 21557c368 248 361 441 309 816"/></g><path d="m15189 21972c-217-789 78-1488 644-2054 252 794 34 1573-644 2054z" fill="#0d9847"/><path d="m14558 22828c55-470 144-790 618-948 434 338-8 904-263 1198z" fill="#0d9847"/><path d="m16720 23512-552 487 184 435c-1929 22-2487-1043-3076-1264s-1014 66-1428 407c-249 205-603 316-515-148 251-1314 1651-1637 2652-1063s1487 1344 2734 1146z" fill="#fff212"/><path d="m11443 23756 1104-705c747-151 565 1230-177 757l-894 237-33-290z" fill="#e4c3b2"/><g fill="none"><path d="m12560 23058c-357 148-472 518-184 751"/><path d="m12712 23058c-166 155-297 371-163 526 31 36 91 67 150 67 160-64 149-94 92-250 97 1 126 54 154 87 34 40 51 102 37 169"/></g></g><path d="m11167 23578c189 0 342 171 342 382s-153 382-342 382-342-171-342-382 153-382 342-382z" fill="#e4c3b2"/><path d="m11531 23960h-44v-19l-1-18-2-18-3-18-4-18-4-17-5-17-6-16-6-16-7-16-8-15-8-15-9-14-10-14-10-13-11-12-11-12-12-11-12-11-13-10-13-9-13-9-14-8-14-7-14-6-15-6-15-5-15-4-16-3-16-2-16-1h-16v-44l19 1 19 2 18 3 18 4 18 5 17 6 17 6 17 7 16 8 16 9 15 10 15 11 14 11 14 12 13 13 13 13 12 14 11 15 11 15 10 16 9 16 9 17 8 17 7 18 6 18 6 19 5 19 4 19 3 20 2 20 1 20v21zm-364 404v-44h16l16-1 16-2 16-3 15-4 15-5 15-6 14-6 14-7 14-8 13-9 13-9 13-10 12-11 12-11 11-12 11-12 10-13 10-14 9-14 8-15 8-15 7-16 6-16 6-16 5-17 4-17 4-18 3-18 2-18 1-18v-19h44v21l-1 20-2 20-3 20-4 19-5 19-6 19-6 18-7 18-8 17-9 17-9 16-10 16-11 15-11 15-12 14-13 13-13 13-14 12-14 11-15 11-15 10-16 9-16 8-17 7-17 6-17 6-18 5-18 4-18 3-19 2-19 1zm-364-404h44v19l1 18 2 18 3 18 4 18 4 17 5 17 6 16 6 16 7 16 8 15 8 15 9 14 10 14 10 13 11 12 11 12 12 11 12 11 13 10 13 9 13 9 14 8 14 7 14 6 15 6 15 5 15 4 16 3 16 2 16 1h16v44l-19-1-19-2-18-3-18-4-18-5-17-6-17-6-17-7-16-8-16-9-15-10-15-11-14-11-14-12-13-13-13-13-12-14-11-15-11-15-10-16-9-16-9-17-8-17-7-18-6-18-6-19-5-19-4-19-3-20-2-20-1-20v-21zm364-404v44h-16l-16 1-16 2-16 3-15 4-15 5-15 6-14 6-14 7-14 8-13 9-13 9-13 10-12 11-12 11-11 12-11 12-10 13-10 14-9 14-8 15-8 15-7 16-6 16-6 16-5 17-4 17-4 18-3 18-2 18-1 18v19h-44v-21l1-20 2-20 3-20 4-19 5-19 6-19 6-18 7-18 8-17 9-17 9-16 10-16 11-15 11-15 12-14 13-13 13-13 14-12 14-11 15-11 15-10 16-9 16-8 17-7 17-6 17-6 18-5 18-4 18-3 19-2 19-1z" fill="#373435" fill-rule="nonzero"/><g stroke="#373435" stroke-linecap="round" stroke-linejoin="round" stroke-width="44.130001"><g fill="none"><path d="m13861 22287-145-184-72 98"/><path d="m18692 20167c614 783-86 1218-782 1218-984-112-1807-1174-1952-1972-11 1051 455 1780 1410 2150"/><path d="m4224 20270c-249-399-587 319-57 357 611-184 263-811-228-736-1241 691-477 1963 628 1751 1469-289 1957-1506 2070-2816-257 1290-883 2503-2356 2559-655-49-1071-875-271-1226"/><path d="m4481 20217c119 367 410 657 796 901"/><path d="m4160 20635c331 118 623 340 907 582"/><path d="m8892 22779c-24-250-10-510 43-779l-343-243c-112 233-127 445-355 600-202 122-454-80-230-300 347 40 303-454-7-406-349 161-424 433-293 784"/><path d="m8164 21692c-507-398-904-905-1221-1494"/></g><path d="m6052 18995s243 198 283 395c39 198 39 198 39 198 134 314 362 393 618 593 121-647-168-1333-940-1185z" fill="#0d9847"/><path d="m6039 18968c118-670 825-604 1242-1106-41 736-515 1106-1242 1106z" fill="#0d9847"/><path d="m6919 10767c413 1 763 462 924 1160" fill="none"/><path d="m14589 11934c183-529 445-929 799-1172" fill="none"/><g fill="#ecbfaa"><path d="m10905 11505c-324 677-694 1010-1313 411 192 788 1071 728 1306 143z"/><path d="m11458 11519c324 677 719 1002 1338 404-192 788-1071 728-1306 143z"/><path d="m11465 10451c207-406 508-367 935-386-10-46-41-103-75-138-138-141-310-213-511-252h-1303c-214 38-378 101-462 209-30 39-64 108-55 163 354-30 708 89 896 400 89 491 52 940-25 1340l171 111 300 7 171-121c-108-444-147-889-43-1333z"/><path d="m11908 12152c31-263-423-659-632-257l-161-4c-200-311-666-126-646 250 19 359 444 431 614 164l221 4c132 223 553 276 603-157z"/></g></g><path d="m11189 11877c105 0 191 102 191 229 0 126-85 229-191 229-105 0-191-102-191-229 0-126 85-229 191-229z" fill="#ecbfaa"/><path d="m11402 12105h-44v-11l-1-11-1-11-2-10-2-10-2-10-3-10-3-9-4-9-4-9-4-9-5-8-5-8-5-8-5-7-6-7-6-7-6-6-6-6-7-6-7-5-7-5-7-4-7-4-8-4-8-3-8-3-8-2-8-2-8-1-8-1h-9v-44h11l11 1 11 2 11 2 10 3 10 3 10 4 10 5 10 5 9 6 9 6 9 7 8 7 8 8 8 8 7 8 7 9 7 9 6 9 6 10 5 10 5 10 5 11 4 11 4 11 3 12 3 12 2 12 2 12 1 12 1 13v13zm-213 251v-44h9l8-1 8-1 8-2 8-2 8-3 8-3 8-4 7-4 7-4 7-5 7-5 7-6 6-6 6-6 6-7 6-7 5-7 5-8 5-8 5-8 4-9 4-9 4-9 3-9 3-10 2-10 2-10 2-10 1-11 1-11v-11h44v13l-1 13-1 12-2 12-2 12-3 12-3 12-4 11-4 11-5 11-5 10-5 10-6 10-6 9-7 9-7 9-7 8-8 8-8 8-8 7-9 7-9 6-9 6-10 5-10 5-10 4-10 3-10 3-11 2-11 2-11 1h-11zm-213-251h44v11l1 11 1 11 2 10 2 10 2 10 3 10 3 9 4 9 4 9 4 9 5 8 5 8 5 8 5 7 6 7 6 7 6 6 6 6 7 6 7 5 7 5 7 4 7 4 8 4 8 3 8 3 8 2 8 2 8 1 8 1h9v44h-11l-11-1-11-2-11-2-10-3-10-3-10-4-10-5-10-5-9-6-9-6-9-7-8-7-8-8-8-8-7-8-7-9-7-9-6-9-6-10-5-10-5-10-5-11-4-11-4-11-3-12-3-12-2-12-2-12-1-12-1-13v-13zm213-251v44h-9l-8 1-8 1-8 2-8 2-8 3-8 3-8 4-7 4-7 4-7 5-7 5-7 6-6 6-6 6-6 7-6 7-5 7-5 8-5 8-5 8-4 9-4 9-4 9-3 9-3 10-2 10-2 10-2 10-1 11-1 11v11h-44v-13l1-13 1-12 2-12 2-12 3-12 3-12 4-11 4-11 5-11 5-10 5-10 6-10 6-9 7-9 7-9 7-8 8-8 8-8 8-7 9-7 9-6 9-6 10-5 10-5 10-4 10-3 10-3 11-2 11-2 11-1h11z" fill="#373435" fill-rule="nonzero"/><ellipse cx="10852" cy="12079" fill="none" rx="125" ry="130" stroke="#373435" stroke-linecap="round" stroke-linejoin="round" stroke-width="44.130001"/><path d="m11687 12084h-44v-6-6l-1-6-1-6-1-6-2-6-2-5-2-5-2-5-3-5-3-5-3-5-3-5-3-4-4-4-4-4-4-4-4-4-4-3-4-3-5-3-5-3-5-3-5-2-5-2-5-2-5-2-5-1-6-1-6-1h-6-6v-44h8l8 1 8 1 8 1 8 2 8 2 7 3 7 3 7 3 7 4 7 4 6 4 6 5 6 5 6 5 5 5 5 6 5 6 5 6 4 6 4 7 4 7 3 7 3 7 3 7 2 7 2 8 2 8 1 8 1 8 1 8v8zm-158 161v-44h6 6l6-1 6-1 5-1 5-2 5-2 5-2 5-2 5-3 5-3 5-3 4-3 4-3 4-4 4-4 4-4 4-4 3-4 3-5 3-5 3-5 3-5 2-5 2-5 2-5 2-6 1-6 1-6 1-6v-6-6h44v8l-1 8-1 8-1 8-2 8-2 8-2 7-3 7-3 7-3 7-4 7-4 7-4 6-5 6-5 6-5 6-5 5-6 5-6 5-6 5-6 4-7 4-7 4-7 3-7 3-7 3-8 2-8 2-8 1-8 1-8 1h-8zm-158-161h44v6 6l1 6 1 6 1 6 2 6 2 5 2 5 2 5 3 5 3 5 3 5 3 5 3 4 4 4 4 4 4 4 4 4 4 3 4 3 5 3 5 3 5 3 5 2 5 2 5 2 5 2 5 1 6 1 6 1h6 6v44h-8l-8-1-8-1-8-1-8-2-8-2-7-3-7-3-7-3-7-4-7-4-6-4-6-5-6-5-6-5-5-5-5-6-5-6-5-6-4-6-4-7-4-7-3-7-3-7-3-7-2-7-2-8-2-8-1-8-1-8-1-8v-8zm158-161v44h-6-6l-6 1-6 1-5 1-5 2-5 2-5 2-5 2-5 3-5 3-5 3-4 3-4 3-4 4-4 4-4 4-4 4-3 4-3 5-3 5-3 5-3 5-2 5-2 5-2 5-2 6-1 6-1 6-1 6v6 6h-44v-8l1-8 1-8 1-8 2-8 2-8 2-7 3-7 3-7 3-7 4-7 4-7 4-6 5-6 5-6 5-6 5-5 6-5 6-5 6-5 6-4 7-4 7-4 7-3 7-3 7-3 8-2 8-2 8-1 8-1 8-1h8z" fill="#373435" fill-rule="nonzero"/><g stroke="#373435" stroke-linecap="round" stroke-linejoin="round"><g stroke-width="44.130001"><path d="m10794 10304 98-136h523l117 154" fill="none"/><path d="m10894 10161 193-486h171l157 486" fill="none"/><path d="m11000 10830c-291-150-626-274-1003-386 370 105 423 890-2 1222 325-163 666-273 1005-379 34-107 52-265 0-457z" fill="#ecbfaa"/><path d="m9394 11091c175 422 548 152 471-229-130-327-464-357-646-97-242 347-193 718 164 915 523 289 1051-215 871-940l-414 61" fill="none"/><path d="m9244 10726c136-357 886-490 1006 11" fill="none"/><path d="m8760 11448-400 71c31-594 150-947 692-1179 252-108 543-79 849 64-784-16-982 486-1142 1044z" fill="#9f8c81"/><g fill="none"><path d="m8781 11362c14-287-76-295-328-422"/><path d="m8888 11076c-22-234-126-270-328-372"/><path d="m9010 10819c-18-196-73-220-236-322"/><path d="m9167 10642c58-140 2-212-114-295"/><path d="m9399 10487c20-99 6-143-61-218"/></g><path d="m11372 10837c291-150 626-274 1003-386-370 105-423 890 2 1222-325-163-666-273-1005-379-34-107-52-265 0-457z" fill="#ecbfaa"/><path d="m12978 11098c-175 422-548 152-471-229 130-327 464-357 646-97 242 347 193 718-164 915-523 289-1051-215-871-940l414 61" fill="none"/><path d="m13128 10733c-136-357-886-490-1006 11" fill="none"/><path d="m13596 11459 400 71c-31-594-150-947-692-1179-252-108-543-79-849 64 784-16 982 486 1142 1044z" fill="#9f8c81"/><g fill="none"><path d="m13574 11373c-14-287 76-295 328-422"/><path d="m13467 11087c22-234 126-270 328-372"/><path d="m13346 10830c18-196 73-220 236-322"/><path d="m13189 10653c-58-140-2-212 114-295"/><path d="m12957 10497c-20-99-6-143 61-218"/></g><path d="m11679 9327 21 277c-170 45-255 56-400 164 127-36 254-53 396-50-6 84 12 161 20 245 61-72 56-153 70-245 111-8 210 25 321 32-113-63-190-112-314-139l25-232z" fill="#373435"/><g fill="none"><path d="m10870 9689c-205 81-338 257-371 415"/><path d="m11762 9697c205 81 324 200 357 357"/><path d="m11441 9704c205 81 338 257 371 415"/></g><g fill="#0d9847"><path d="m17792 13207c-8-240 20-426-112-645s-391-312-592-494c-83 316-33 559 191 737 224 179 349 217 513 402z"/><path d="m16681 13872c-263-278-434-390-802-250-241 170-344 333-480 593 230-186 350-178 644-184 277 0 388-30 638-158z"/><path d="m17075 13490c173-362 403-181 756-230-116 324-271 454-572 573l-184-342z"/><path d="m18916 14557c46-138 71-145 171-369s49-435-158-698c0 195-86 187-197 421s-19 392 184 645z"/></g></g><g fill="#0d9847"><path d="m18937 14583c-704 334-651 629-588 1370 322-457 961-676 588-1370z" stroke-width="44.110001"/><g stroke-width="44.130001"><path d="m19047 14478c687-438 827 451 881 909-301-287-803-438-881-909z"/><path d="m19487 16822c696 392 956-330 979-869-272 396-758 365-979 869z"/><path d="m19441 15162c-605 815-623 902 13 1593 242-798 277-789-13-1593z"/><path d="m20099 15584c-121 267-49 496-78 688-31 204-170 368-540 537-41-702-20-893 618-1225z"/></g><path d="m18215 16558c-507-444-362-797 29-1351 271 737-64 831-29 1351z" stroke-width="44.119999"/><g stroke-width="44.130001"><path d="m18968 16018c-285-423-216-570 13-1067 113 181 228 306 276 514 22 313-43 358-289 553z"/><path d="m18925 14626c47-254 96-438 306-504s311-49 477-96c-58 255-111 363-343 486-146 38-293 76-440 114z"/><path d="m16171 19413c-148-925-658-1505-1463-2117 172 1427 418 1540 1463 2117z"/><path d="m16178 19416c-4-881-21-880 470-1633 167 740 128 1209-470 1633z"/><path d="m16174 19416c-717-658-1344 330-1295 1001 265-251 610-742 1295-1001z"/><path d="m17377 19100c-548 693-494 950-184 1699 447-691 582-824 184-1699z"/><path d="m17561 18814c51-458 100-588 539-741v619c-204 141-294 90-539 122z"/><path d="m17384 19097c239-15 466 7 703 43-32 176-98 378-158 547-194-167-339-415-546-589z"/><path d="m16457 21438c-420 180-677 319-1052 849 649-20 918-268 1052-849z"/><path d="m17667 21622c208 36 422 37 648-23 271 370 442 500 871 655-610 148-1208-24-1518-632z"/><path d="m16582 21589c-269 442-254 934-33 1317 161-450 313-907 33-1317z"/><path d="m17141 23219c-251 727-393 518 53 1175l13 105 66-198c175-525 166-527-131-1083z"/><path d="m17414 23113c254 657 603 965 1173 1189-187-862-336-995-1173-1189z"/><path d="m15918 22432c65 485 256 638 684 882-42-587-152-696-684-882z"/><path d="m16707 13088c-199 747-66 940 546 1449 173-692-16-1053-546-1449z"/></g></g><path d="m18050 17937c119 1369-156 1934-999 3016l828 357c875-997 1241-1842 1342-3159 52-668-620-1680-1171-672v457z" fill="#fff212" stroke-width="44.130001"/></g><path d="m18144 20622-420-262 195-311 71 44-142 227 93 58 132-211 71 44-132 211 114 71 147-235 71 44-200 319zm93-438 34-92c32 9 59 9 80 0 22-9 39-28 52-55 14-29 19-54 13-74-5-21-16-35-32-43-11-5-21-6-31-4-10 3-22 10-35 23-9 9-27 30-55 62-35 42-67 69-93 80-38 15-74 15-110-3-23-11-41-28-54-50-13-23-19-48-18-78 2-29 11-61 27-95 27-56 60-92 98-108s78-15 120 3l-40 92c-25-7-45-7-61 1s-30 24-43 50-17 49-14 69c2 13 9 22 21 28 11 5 22 5 34 0 15-7 38-29 70-68s58-66 79-81c21-16 44-25 69-27s51 3 80 17c25 12 46 31 61 56s22 53 20 84-12 66-31 105c-27 56-62 93-102 111-41 18-87 17-140-1zm395-474-387-141-50 138-79-29 135-370 79 29-50 138 387 141-34 94zm167-683-19 107-118 23-34 195 104 60-18 105-454-276 18-104 522-109zm-225 147-193 35 169 98 23-133zm-255-225 10-183c2-41 7-72 14-94 10-29 27-53 49-72 23-20 50-34 83-43 32-9 71-12 118-10 41 2 76 9 105 21 35 14 63 33 84 58 16 18 28 42 36 72 6 22 8 52 6 89l-10 188zm89-95 327 17 4-74c1-28 1-48-2-61-3-16-9-30-18-41s-25-21-46-29c-22-8-52-13-90-15s-68 0-88 6c-21 6-37 14-49 26s-21 27-26 45c-4 14-7 41-9 82l-2 45zm186-344c-50 3-93-3-128-16-26-10-49-24-70-43-21-18-37-39-48-62-15-30-23-65-25-106-4-73 16-132 59-178s105-71 185-76c80-4 143 14 191 55 47 41 73 98 77 170 4 74-16 133-58 179-43 46-103 71-182 75zm-9-103c56-3 98-18 125-46 28-27 40-61 38-101s-18-72-48-96-74-35-131-31c-57 3-98 18-125 44s-39 60-37 101 18 74 48 97c30 24 73 34 130 31z" fill="#373435" fill-rule="nonzero"/><path d="m18436 10776c155 1782-884 3024-1378 4338-493 1314-475 2226 214 3166 484 41 766-138 1121-443-721-839-612-1714-257-2559 498-1041 1142-1962 1142-3145l-842-1358z" fill="#fff212" stroke="#373435" stroke-linecap="round" stroke-linejoin="round" stroke-width="44.130001"/><path d="m17176 17269-44-177c-10-40-15-71-14-94 1-30 10-58 26-83s38-47 66-65 65-33 110-44c39-10 75-13 106-11 38 3 70 13 98 30 21 13 39 32 55 59 12 20 23 48 32 83l46 183-481 120zm57-117 318-79-18-72c-7-27-13-46-19-58-8-15-18-26-30-34s-30-13-53-14-53 3-91 12c-37 9-65 20-83 31-18 12-32 25-40 39-8 15-12 32-11 51 0 14 5 41 15 81l11 44zm77-623c-50-6-91-19-123-38-24-14-44-32-62-54-17-22-30-45-36-69-9-32-11-68-6-108 9-72 38-128 89-166 50-38 115-52 195-42 79 10 139 39 178 88s55 109 46 181c-9 73-38 129-88 166-50 38-114 52-192 42zm9-103c56 7 99-1 131-23s50-53 55-93c5-39-5-74-31-103-25-29-66-47-124-54-56-7-100 0-131 22-31 21-49 52-54 93s5 76 30 104 66 46 122 53zm591-1254-459-186 60-149c23-56 40-92 51-107 17-24 41-40 72-48 30-8 64-5 100 10 28 11 50 26 65 44s25 37 30 57 5 39 2 57c-5 24-15 57-32 99l-24 60 173 70-37 93zm-344-247 130 53 20-51c15-37 22-62 23-76 0-14-3-27-11-38-7-11-18-19-31-25-17-7-32-7-47-2s-27 15-35 29c-7 10-17 32-30 66l-18 45zm749-638-48 98-120-10-87 178 83 86-47 95-361-391 46-95 532 39zm-257 80-195-19 136 141zm336-225-445-217 92-189c23-48 44-80 63-98 18-18 41-28 68-31s53 2 80 15c33 16 56 40 69 70 12 30 12 66-2 108 21-14 41-24 61-30s52-11 97-16l113-12-52 107-129 18c-46 6-75 11-89 15-13 4-24 10-32 18s-17 22-27 43l-9 18 186 91zm-213-215 32-66c21-43 32-71 34-84 2-12-1-24-7-34s-16-19-29-25c-15-7-29-9-42-6s-24 12-34 25c-5 7-16 28-33 65l-34 70zm660-750-43 100-120-4-77 182 88 82-41 98-381-371 41-97 533 11zm-252 93-196-9 143 133zm-351-12-75-82 42-98 57 125-23 55z" fill="#373435" fill-rule="nonzero"/><g stroke="#373435" stroke-linecap="round" stroke-linejoin="round"><g stroke-width="44.130001"><g fill="none"><path d="m5332 19564c-425-560-854-1111-181-1689"/><path d="m5086 19218c-215-253-435-397-703-583"/><path d="m4902 15821c-176-10-355-79-473-198-115-115-247-545-368-593-158-63-499-194-618-26"/><path d="m4001 14800c67 98 137 177 79 309-37 83-135 133-224 178"/><path d="m4810 18573c-111-260-143-571-210-843-84-337-268-432-605-566"/><path d="m4244 17289c-63 0-117-26-184-26-59 0-135 38-191 59"/><path d="m4757 14451c-269 96-592-438-592-645"/><path d="m4297 14135c-164-88-245-242-486-290"/><path d="m4757 14438c-368-68 442-1232 661-1225"/><path d="m4580 17619c-27-189-45-616 7-797"/><path d="m3797 12897c-180 39-148-292-335-329"/><path d="m4428 19587c-325 23-452-441-414-672"/><path d="m4218 19528c-132-15-48-26-184-7"/><path d="m2831 16025c-61-4-226-154-276-214"/><path d="m16651 22603c168 191 532 476 785 527"/><path d="m17134 23248c0-47 11-93 20-138 11-52 3-62-20-109"/><path d="m17381 19107c-73-256-79-413-214-510"/><path d="m17575 18810c-113 60-75 118-224 168"/><path d="m18396 17092c375-394 261-346 1091-283"/><path d="m18962 16028c69 121-137 764-210 757"/><path d="m18403 17082c0-284-74-313-181-527"/></g><path d="m17751 9475c-2365-1258-2814 2624-851 1478 312-182 539-380 748-684 179-261 72-486-283-309l-642 329c-378 157-684 230-385-257 445-515 919-288 1413-557z" fill="#fff212"/><path d="m16312 10032c-218 245-183 731 57 904 0 0-72-179-79-218-43-242-51-452 21-686z" fill="#373435"/><path d="m18457 10869c-121-995-338-1350-1235-1608" fill="none"/></g><g stroke-width="88.269997"><path d="m11483 6345c-524-408-1099-619-1770-529-268-227-570-315-914-229-308-261-674-392-1056-200-305-174-681-228-1014-100-803-84-1427 171-2156 500l-443 272c502 133 695-46 1142-64 444 283 1410-3 1549 43 379 125 785 94 1192 86 508 432 868 265 1463 364 266 44 505 207 721 357h250l257-7 307-100 264-179 207-214z" fill="#eabd0b"/><path d="m8036 7710c583-117 803-192 1321 107 427 337 933 464 1470 615 42 375 14 521 257 829 244-105 287-209 428-429 12 167 70 331 175 490l125 54c385-220 186-553 578-725 209 90 564 68 964-32 338 117 680 140 1028 29 199 185 552 292 832 261l82-118-228-100s-410-180-471-229c-61-48-402-264-402-264-148-175-261-333-487-389-276-415-473-278-842-345 77-67 119-170 130-272 155-62 221-116 326-245 202 113 495 30 693-180 223 62 339 38 431-124 147 53 310 42 433-131 70 25 367 45 425-150 133 81 272-12 364-114 231 136 384 49 593-49 208 101 328 79 548 7 310 226 452 21 701 85 376 97 1159-28 828-179-592-37-1136-54-1692-350-686-365-1432-500-2199-565l-1242-36c-1109-21-1282 418-1942 1244-475 513-871 429-1549 322-887-141-1383 63-1677 986z" fill="#eabd0b"/><path d="m10884 7331c446-128 543-319 771-715 240-493 497-868 949-1036 1171-433 3055-9 4280 509 204 86 675 237 978 231" fill="none"/></g></g><path d="m12993 7192c-228-41-407-79-592 82-206 234-390 214-685 214 343-189 527-290 443-700 256 0 280-89 357-322 39-116 31-54 15 38-36 199-79 320-293 369 0 219-26 399-214 536 167-47 278-148 426-264 148-117 425-126 544 46z" fill="#373435"/><path d="m11180 8146c172 107 250 198 286 357 35 159 28 229 57 350" fill="none" stroke="#373435" stroke-linecap="round" stroke-linejoin="round" stroke-width="88.269997"/><path d="m12393 7667c-207 259-179 418-136 743" fill="none" stroke="#373435" stroke-linecap="round" stroke-linejoin="round" stroke-width="88.269997"/><g fill="#373435"><path d="m12502 7526c158-84 266-79 443-72s-216 44-389 125l-39 21-15-75z"/><path d="m13146 7890c193-64 364-87 567-61 202 25-226-101-559-35z"/><path d="m14178 8182 21 136-21 72-50 29-150-36-207-57-18-64 25-25h75l64 43 50 25 64 39s50 46 86 25 39-57 39-57l-14-46 35-82z"/><path d="m9110 6977-68 25c-225 11-329 150-396 332-24 36 71 18 160-47 123-89 269-181 304-310z"/></g><g stroke="#373435" stroke-linecap="round" stroke-linejoin="round"><path d="m11019 9198c-13 145 8 225-80 340-166 76-265 116-441 166 191 33 287 1 443-61-35 63-34 117-7 166 52-39 83-99 118-163 135 29 233 21 311-7-89-42-179-73-282-95 6-106 52-217 79-318l-139-29z" fill="#373435" stroke-width="44.130001"/><g fill="none" stroke-width="88.269997"><path d="m13332 6952c-430-298-782-735-817-1322"/><path d="m14010 6759c-660-259-999-791-964-1286"/><path d="m14442 6638c-498-406-864-814-867-1229"/><path d="m14878 6502c-480-393-788-770-678-1086"/><path d="m15306 6355c-374-257-566-548-578-872"/><path d="m15670 6252c-204-164-382-366-357-654"/><path d="m16259 6195c-194-114-319-260-343-450"/><path d="m16803 6198c-95-45-155-118-184-211"/></g></g><g fill="#373435"><g stroke="#373435" stroke-linecap="round" stroke-linejoin="round" stroke-width="44.130001"><path d="m9679 5794c48 104 66 197 52 282l54-29c26-93 2-240-105-254z"/><path d="m8784 5580c48 104 66 197 52 282l54-29c26-93 2-240-105-254z"/><path d="m7727 5383c48 104 66 197 52 282l54-29c26-93 2-240-105-254z"/><path d="m6728 5290c48 104 66 197 52 282l54-29c26-93 2-240-105-254z"/></g><g fill-rule="nonzero"><path d="m11841 23303-220-327 106-71c40-27 67-43 82-48 22-8 45-8 69 0s44 25 62 51c13 20 21 39 23 58s0 36-6 51-14 28-24 39c-14 14-35 31-65 51l-43 29 83 123-66 45zm-117-316 63 93 36-24c26-18 42-31 49-40 6-9 10-19 10-30s-3-21-10-30c-8-12-18-19-30-22s-24-2-36 3c-9 4-25 14-49 30l-32 21z"/><path d="m12146 23101-148-365 155-63c39-16 69-24 89-25s39 5 57 18c17 12 30 29 39 51 11 27 12 53 3 78-9 24-28 45-59 63 20 3 37 8 52 15s37 21 66 42l73 53-88 36-85-58c-30-21-51-33-61-38s-19-7-28-6c-9 0-22 4-39 11l-15 6 62 153-74 30zm-11-241 55-22c35-14 57-25 64-31 8-7 12-15 15-24 2-9 1-20-4-30-5-12-12-21-22-26s-21-6-34-3c-6 2-24 8-54 20l-58 23 37 93z"/><path d="m12456 22766c-8-39-9-73-3-103 5-21 13-42 25-60 12-19 26-34 42-45 22-15 48-26 80-33 57-12 106-4 148 24s69 73 82 136c13 62 7 115-20 157-26 42-68 70-124 82-57 12-107 4-148-23-41-28-68-72-82-134zm80-20c9 44 26 75 51 93s53 24 84 17 54-23 69-50 18-62 8-107c-9-44-26-75-50-93s-52-23-84-16-56 23-71 49-18 61-8 106z"/><path d="m13145 22760 10-66 169 27-25 155c-19 13-45 23-78 31-33 7-66 8-98 3-41-6-75-21-102-42-28-22-46-50-57-84-10-34-12-70-6-107 6-41 21-75 43-104s51-49 86-61c27-9 59-10 96-5 48 8 84 24 108 48 24 25 37 55 39 92l-80 2c-2-20-10-37-24-50-13-14-31-22-54-26-34-5-63 1-87 20s-39 49-46 92c-7 46-3 82 14 109 17 26 42 42 75 47 17 3 34 2 51-2 18-4 33-9 46-17l8-49-90-14z"/><path d="m13362 22954 141-368 156 60c39 15 67 29 82 43s25 31 29 52 2 42-6 64c-11 28-27 47-51 59-23 12-52 14-86 6 12 16 22 31 28 46s13 41 19 76l17 89-89-34-23-101c-8-36-14-59-18-69s-10-18-16-24c-7-6-19-12-36-18l-15-6-59 154-74-29zm156-184 55 21c36 14 58 21 68 21s19-2 27-8c8-5 14-14 18-25 5-12 5-24 2-34-4-10-11-18-22-25-6-3-24-10-54-22l-58-22-36 93z"/><path d="m14138 22968-186-103-42 77 173 96-32 58-173-96-52 94 192 106-32 58-262-145 191-344 256 141z"/><path d="m14250 22962 123 77c28 17 48 33 60 46 16 18 26 39 31 62 5 24 4 48-2 74s-19 55-38 86c-17 28-35 49-55 65-24 19-48 31-73 37-19 4-40 3-64-3-18-5-39-15-64-30l-127-79 209-334zm32 99-138 221 50 31c19 12 33 19 43 22 13 4 25 5 36 3s24-9 38-21 29-31 45-57 26-47 30-64 4-31 1-44-11-25-21-35c-8-8-26-21-53-38l-30-19z"/><path d="m14443 23552-67-42 209-334 67 42z"/><path d="m14812 23770-75-43 15-95-136-79-73 61-73-42 330-265 73 42-60 420zm-49-208 26-154-119 100z"/><path d="m15073 23755 173-216 109 48-160 360-67-30 126-283-198 251-70-31 55-315-126 283-67-30 160-360 109 49z"/><path d="m15366 23591 77 19-52 207c-8 33-13 54-13 65-1 17 4 31 14 44s26 22 47 27c22 6 40 5 53-1s23-16 28-28c6-12 12-34 20-64l53-211 77 19-50 201c-11 46-22 78-31 96s-21 32-35 42-32 17-53 20-46 1-76-7c-37-9-63-20-80-33s-29-28-37-44-11-32-11-48c0-23 6-56 17-99l51-204z"/><path d="m15659 24070 14-394 167 6c42 1 73 6 91 14 19 8 34 21 44 39 11 18 16 39 15 63-1 30-11 54-29 72-18 19-44 30-79 34 17 11 31 22 41 35 11 12 25 34 43 66l45 78-95-3-54-88c-19-31-33-51-40-59s-15-14-23-17-22-5-40-6l-16-1-6 164-79-3zm87-224 59 2c38 1 62 1 72-2s17-8 23-16 9-18 9-29c1-13-3-24-9-32-7-8-17-14-29-17-6-1-26-2-58-3l-62-2-3 100z"/></g></g></g></svg>