<svg height="663" width="900" xmlns="http://www.w3.org/2000/svg" xmlns:xlink="http://www.w3.org/1999/xlink"><clipPath id="a"><path d="m0 0h900v663h-900z"/></clipPath><g clip-path="url(#a)"><path d="m0 0h900v663h-900z" fill="#e0e0e0"/></g><g fill="#fefee4"><path d="m457.5 454.2 1.1 2v1.4l-2.3-.9-12.6-.4-1.7.5-.8 1.8-1.1.7-113 1.1.1-1 .1-1.2.4-1.7.9-1.6 1.4-1h3.4l1.3-.6.7-1.5.6-1.9.3-2.2-1.1-2.2-1.9-1.8-4.7-3.5-1.9-.2-2.2 3.7-1.3.6-1.1.8-1-.3.1-2-.8-6-.8-1.6.4-1 1.7-3.9 1.6-2 2.4-2.4 2.7-1.1 2.6.7 3 .4 3.6.1 2.3-1.8 1.9-2 2.6-.4 1.7-.9 1.4-1.6v-2.2l-1.8-2-8.1-5.1-2.8-2.1-1.4-1.6-.5-6.6-.6-2.2-.3-.7 2.2-.3 6.5.1 1.1-2.4v-5.1l1-4.1 1.7-3.6 1.9-3 2.4-2 9.4-5.3 3.6-1.1 3.2-.4 7.1-2.1 2.6-.5 1.3-.8.9 3.4.6 5.3-.5 1.3-.2 1.8 1 2.4.2 2.3-.3 2.2-2.1 1.1-4.2-.1-3.7-.7-1.7.3-1 11.9.1 3.2 1.3 2.8 2.5 2 2.5.9 4.9-.2 2.6.3 2 1.2 1.9 1.6 1.2 1.3v.5l.1 1.3.6 2.9 1.6 2.9 1.9 2.5 2.1 1.8 2 1.2 2.3.9 1.2 1.7.4 1.8 1.7 1 2 .6 1.6.2 1-.7 1.2-2.4 1.4-1.7 3.1-2.6 4.7 1.3.9.9.4 1.7 1 1.3 1.7 1.7 2.6.3 1.8-.8 1.6-1 2.8-2.3 2-2.5 2.7-1.4 1.8-.2h1.5l2.7.6 1.1 1.4.5 1.1 3.2 1.6-.1 1.1v4.1l-1 1.6-1 2.7-.6 2.6-1.4 1.9-1.6 2.5.6 2 2.6 1.1 1.9 1.6 1.6 1 1.4.5 1.4.8 4.3 1.7 3.8-.2.5 1 .3 1.6 1.6.9z"/><path d="m464.8 398.8.4.6 3.4 5.1-3.7 3.8-1.9 2.3-1.3 1.3-1.6 1.1-2.1 1.1-2.3.9-2.7 2-4.3 5-2.2.9-1.5-.3-1.7.8-2.1 2.7-3.2-1.6-.5-1.1-1.1-1.4-2.7-.6h-1.5l-1.8.2-2.7 1.4-2 2.5-2.8 2.3-1.6 1-1.8.8-2.6-.3-1.7-1.7-1-1.3-.4-1.7-.9-.9-4.7-1.3-3.1 2.6-1.4 1.7-1.2 2.4-1 .7-1.6-.2-2-.6-1.7-1-.4-1.8-1.2-1.7-2.3-.9-2-1.2-2.1-1.8-1.9-2.5-1.6-2.9-.6-2.9-.1-1.3v-.5l-1.2-1.3-1.9-1.6-2-1.2-2.6-.3-4.9.2-2.5-.9-2.5-2-1.3-2.8-.1-3.2 1-11.9 1.7-.3 3.7.7 4.2.1 2.1-1.1.3-2.2-.2-2.3-1-2.4.2-1.8.5-1.3-.6-5.3-.9-3.4 1.6.2 3.9-.6 8.7-3.2 3.3-1.8 2.1-1.4.2-.5 3.8 2.7 3.5 5.1 1.2.1 1.7-1.1 3.6.2 3.7-.1 2.8-2 2.6-.5 2.4 1.2 8.5 9.4 2.1 1.7 2.4 2.5 2.4 2.1 2.5.8 2.4 1.1 1.8 1.5 1.7 1.7 6.8 3.3 1.6 1.4 1.2 2 2.7 3.1z"/><path d="m375.4 363.3-1 2.6.3 1.1-2.6.5-7.1 2.1-3.2.4-3.6 1.1-9.4 5.3-2.4 2-1.9 3-1.7 3.6-1 4.1v5.1l-1.1 2.4-6.5-.1-2.2.3-.6-.3-1.8-2.1-5.8-8.8.1-.5-1.2-2.9-2.8-1-6 .1-2.9-.5-2.5-1.4-.9-1.8 1.8-1.9.8.1 1.2.4h1l.5-.9 3.9-4.8.1-1.4-1-1.2-1.7-1.3-2-2.5.2-.9.9-1.9.2-.7.2-1.2.3-1v-1l-.5-1.3h-.3l-1.3.1-.4-.1-.2-.2-.5-1.1-1.7-1.1-.7-.9-.3-1.2.2-1.2.9-1.8.2-.6 1-1.6 2.1.5 5.6 3.3 1.1.2.5-1 .2-1 .8-2.5v-.6l-1.3-1.6-1.1-2-.6-2.2-.1-1.6-.7-2.7-1.3-1.6-3.8-3.1-.5-1.8.6-2.4 1.2-2.1 3.1-1.8.1-2-.4-.8 7.7-6.9 4.4-7.9-.8-2.3-1.2-2.6-1.1-3.3.3-3 1.5-2 1.5-1.6 2.7-1.7 2.5-2 2.9-4.4 3.9-2.5 2.9-2.3 1.4-1.3 2-1.6 1.2-.2 1.3.1 1.9 1.4.4 2.5-1.4 2.3-1 2.6.4 2.2 3 .4 4.4-.2 2.2.6-.8 1.6-2.5 2.1-1.4 2.7.7 1.6 1.4.3 3.2-.7 2.5-.8 1.7-.3 4.7-1.6.6.1.4 1.3 1.2 2.5 1.3 2 1.1-.4 1.3-2.1 2.3-1.6 1.2 1.9-1.4 4.3-2.3 3.8-6.7 4.4-2.3 2.6-3.4 1.7-3.2.3-.9 1.9.5 1.8.9 1.1 1.4 11.3v6.3l-2.5 3-4 2.3-1.5 1.8 2.6 2.3 1.8 2.6-2.1 2.6-2 1.7-.9.6.1 2.2 1 3.5 2.7 1 3.1.4 4.4 4 2.3 1.3 3.2-.8 4.3-2.1 3.1.2z"/><path d="m381.5 365.8-3.9.6-1.6-.2-1.3.8-.3-1.1 1-2.6.6-2.7-3.1-.2-4.3 2.1-3.2.8-2.3-1.3-4.4-4-3.1-.4-2.7-1-1-3.5-.1-2.2.9-.6 2-1.7 2.1-2.6-1.8-2.6-2.6-2.3 1.5-1.8 4-2.3 2.5-3v-6.3l-1.4-11.3-.9-1.1-.5-1.8.9-1.9 3.2-.3 3.4-1.7 2.3-2.6 6.7-4.4 2.3-3.8 1.4-4.3-1.2-1.9-2.3 1.6-1.3 2.1-1.1.4-1.3-2-1.2-2.5-.4-1.3 1.2-.8.8-.3 1.8-1.3 3.1-1.1 6.3-1.6 3-.1 6.1.7 1.7-.7 1.2-.9h4.9l2.2 1.1 1.5 2.6 1.9.3 1.2-.9.5.5.9 1v2.2l.4 2.1 2.5.9 3.4.9 3.5 1.6 2.3 2.8.9 3.6.7 5.2-1.2 1.6-4 1.8-3 .5-2.3-1.4-2.7-1.2-2.7-.2-3.7.1-2 1.7-1.3 2.3-1.4 3-1 3.9-2.3 3.5-1.2 2.4 1.9 1.9 3.3 1.1 3.3-1.6 4-3 3.6-2.1 3.8-.8 3.9-.3 1.9.2.9.9-.3 2v1.9l1.8 1.8.4 1.9v2l-.5 1.7-1.1 1.3-2.3 1.8-2.7 2.9-1.1 1.9-2.4.2-2.8 1.7-1.5 1.6-2.1.9-.6 2.6-1.3 3.4-3.6 2.9-1.5 1.6-1.4 1.8-.2.5-2.1 1.4-3.3 1.8-8.7 3.2z"/><path d="m253.1 240.2v-1.5l-.5-.8 1.2.2 1.2-.3 1-1.7-.1-1.8-1.2-3.5.4-2.9 2.2-.9 16.4-1 1.4-.9-3.6-25.4 1.5-3.8.5-2.4.5-5.7-.7-2.4-2.1-1.6 2-2 2.7 1 4.5 3.3 2.7.3 2.2-.4 2.1-.1 2.5 1.5 1.8 1.7.5.9.3 1.5.7 1.6 1.1-.4 1.8-1.9 1.1-.6.8-.2 2.5.2.8.3.7.5.7.3.7-.1 3.5-1.4.2.3.7 1 2.1 2.8 4.1 4.2 3.5 1.7 9.4 2.1 2.3 1.4 1 2.2 1.7 1.4 2.2.5 1.9.9.8 1 .3 2.3v1.9l.5 4.7 2.6 4.7.7 2.2 2.2 1.4 2.7 1.4 2.6.1 2.4-.6 3 .6 1.9 1.2-1 2.9-4.4 6-3.1 5.3-2.1 2.4-3.5.9-3.2-.2-4.5-.7-2.2.5-1.3 2.8v3.9l1 5v1.5l-.2 2.2-.2.7-3.5-.6-1.5-.2-2.5.5-3.1 3.1-2.8.5-3.4-.2-3.1-.7-2.6-1.3-2.3-1.8-3.2-2-3.2.1-2 2.1-1.6.5-2.1-1.4-2.4-.8-2.2.1-2.4.4-1.8-.3-1.5-1.8-1.4-2.5-1.6-1-8.2 1.7-2.4 2-.4 2.2-.9 1.4-5.6 3-2 2-1 1.9-.7 4.8-1.3 1.9-.9.8-.7-.6-1.5-2.1-1.3-3-1.1-11.1 1-5.8-1.5-6.5z"/><path d="m259.3 281.1-1.3-.5-.9-.1.3-3.7.9-.8 1.3-1.9.7-4.8 1-1.9 2-2 5.6-3 .9-1.4.4-2.2 2.4-2 8.2-1.7 1.6 1 1.4 2.5 1.5 1.8 1.8.3 2.4-.4 2.2-.1 2.4.8 2.1 1.4 1.6-.5 2-2.1 3.2-.1 3.2 2 2.3 1.8 2.6 1.3 3.1.7 3.4.2 2.8-.5 3.1-3.1 2.5-.5 1.5.2 3.5.6-.7 2.1-1.3 6.8-.1 3.2 1.1 1.1 2.9 2.4 3.4 3.9-2.9 4.4-2.5 2-2.7 1.7-1.5 1.6-1.5 2-.3 3 1.1 3.3 1.2 2.6.8 2.3-4.4 7.9-7.7 6.9-.6-1.3-1.8-1.3-2.1-.1-1.7.8-2.3 2-.8.5-1.4.7-.9.6-.5-.2-1.8-1.8-1.1-.5-2-.5-4.1-2.4-1.5-.5-1.1-.1-.7-.3-1.3-1-.1-.3-.3-.8-.2-.3-1.4-.7-4.1-7-.7.7-1-.9-.6-1-.7-.7-1.5-.2-2.4.4-1.2.1-.8-.5.1-.5-.8-4.7.6-9.8-.9-1-3.1.6-2.7.8-1 .9-.7 2.7-.8.6-.9-.1-.8-.7-.5.3-.2.2-.7-.5 1.1-1.5v-1l-2.6-4.6-1-2.5-.3-.7z"/><path d="m208.1 372.7-2.5-.2-.5-.3-.5.1-.4-1 .4-1.7.1-1.4-.7-2.9-.7-.5-.9-.4-.5-.5.2-1.4.7.1.9.6 1.6-.1-.6-1.6.1-1.9.9-1.5 1.6-.6-.5-1.3-.3-.4-.5-.4 2.1-3.4.4-.3.4.1.3-.1.4-2.2.4-1.1h.8l1.1.8.5-1.4.3-1.9.5-1 1.8-.4 1.6-1.1 1.2-1.5.5-1.5-.6-7.6 1-2.4 3.4-.8 1.5-.9.9-2.1 1.3-4.1 3.5-5.5 1.1-.9 3.8-2.2 1.2-.5.6.1.5.1 1.3 1.6.8.6.8.1.7.2.8.9 1.3-1 .3-.9-.2-2.3.2-1.4.9-2.4.2-1.1.4-1.9 1.4-1.5.3-1.2-.6-2.8.1-1.1 1.2-.6v-.7l-.4-.1.5-.7.2-.7-.2-.9-.1-1.1.5-.6.6-.5.3-.7-.6-1 .5-.8.6-1.4.3-1.4-.5-.6-1.3-.5-.8-.9-.1-1 1.6-.7.2-.8.1-.7.3-.4h2.8l1.8.8.9-.2.3-1.5.6-.7 1.2-.3 1.4-.2.9.1 1.3.5.7.4.3.7 1 2.5 2.6 4.6v1l-1.1 1.5.7.5.2-.2.5-.3.8.7.9.1.8-.6.7-2.7 1-.9 2.7-.8 3.1-.6.9 1-.6 9.8.8 4.7-.1.5.8.5 1.2-.1 2.4-.4 1.5.2.7.7.6 1 1 .9.7-.7 4.1 7 1.4.7.2.3.3.8.1.3 1.3 1 .7.3 1.1.1 1.5.5 4.1 2.4 2 .5 1.1.5 1.8 1.8.5.2.9-.6 1.4-.7.8-.5 2.3-2 1.7-.8 2.1.1 1.8 1.3.6 1.3.4.8-.1 2-3.1 1.8-1.2 2.1-.6 2.4.5 1.8 3.8 3.1 1.3 1.6.7 2.7.1 1.6.6 2.2 1.1 2 1.3 1.6v.6l-.8 2.5-.2 1-.5 1-1.1-.2-5.6-3.3-2.1-.5-1 1.6-.2.6-.9 1.8-.2 1.2-1.2 1-1.9 1.1-3.6.3-3.5-.8-1.2-.7-1-.7-1.3-2-.4-1.8-1.1-.1-2.8 1-3 .5-5.1-2.6-2.9.6-1.7 1.3-.3 5.3 1.3 1.8 2.4 2.1 1.1 2.2 2.1 1.2 3.7.3 1.9 1.7.8 3 .2 1.9-1.7 1.2-2.4.3-6.1-3.2-2.8.8-2 1.5-2.8-.3-1.9-1.8v-2.9l-.8-2.6-5.8-3-1.6.4-.9-.5-2.5-.1-8.3 1.4-.2 1.1.5 2.5-.8 1.7-1.4 1.3-1.9 1.2-2.9.4-1.6.8-1.3 1.3-.9 1.6-.3 2.3-1.5 3 .4 1.2 1.1.9.9 1.7.2 1.4-1 .2-6.3.3-1.8.5-2.1 1-1.9 1.3-1.4.6-1.9-.1-2.2-.4-1.5-.8-1.4-1.1-1.9-1.1-2.2-1-1.7-.5-1.2-.5-.4-1.2.3-1.4-.5-.9-1.8-.9-1.6-1.2-.3-1-.4-.9z"/><path d="m179.3 284.4-1.7.1-2.2-1.9.1-.1 1-1.2 2.1-6.6.2-1.3-1.3-4.6.3-5.8-.8-2.8-1.8-2.4-3-2.4-1.2-1.8-2.7-5.8-2.9-2.7-.6-.9v-1.3l.5-.9.7-.8 1.2-3.4 1.7-.7 6.4.3 1.2-.3.7-.9-.3-.9-2.1-1.2-.7-1 .5-1.5 1.5-1.8 1.8-1.6 1.5-1.1 1-.1.9.2h1l1-.6 1.9-2.2 1.6-2.4 1.7-4.2 1-1.9 1.7-1.5.8-.4 2.7-.7.9-.6 1.5-1.7 1.2-.5 1.1-.3 1.5-1 1.3-1.2.6-.9-.8-.6-1.3-.1-.6-.4 1.4-1.6.3-.3.4-.1.3.1.4.3.6.8.5 2.1.3.6.9.3 2.4.5.5.3v1.1l-.7.4-1 .1-.7.3-2.1 1.9-.8.5-1.3 1.2 1.3 1 2.3.6 2 .1 2-.2 1.6.3 3.4 1.4 4.1 1.1 1.9.8 7.4 5.9 4.6 2.8 8.1 6.4.8.2 1.3-.2.6.2 1.6 1.7.9.6.7.1 2.2-.1 4.3.7.5.8v1.5l-.8 7.5 1.5 6.5-1 5.8 1.1 11.1 1.3 3 1.5 2.1.7.6-.3 3.7-1.4.2-1.2.3-.6.7-.3 1.5-.9.2-1.8-.8h-2.8l-.3.4-.1.7-.2.8-1.6.7.1 1 .8.9 1.3.5.5.6-.3 1.4-.6 1.4-.5.8.6 1-.3.7-.6.5-.5.6.1 1.1.2.9-.2.7-.5.7.4.1v.7l-1.2.6-.1 1.1.6 2.8-.3 1.2-1.4 1.5-.4 1.9-3.1-1.1-6.2-3.2-3.9-1.1-7.6-.3-4.9.8-2.4-.3-3-.7-3.6-.2-3.1.7-1.5 1.7-.7 2.4-2.4 3.6-.5 1.9.1.8.1.8-.5 1.1-1.3 1.2-2.3 1.5-3.3 1.1-2.3-.7-4.3-3.2-1.9-2.8-.2-3.9-.9-4.3-1.6-2.4-.3-1.6.5-2 .1-3.8-.3-1.9.9-1.5 1.4-1.1-.2-1.7-2-.9-1.6-1.5z"/><path d="m329.6 394.4 1.8 2.1.6.3.3.7.6 2.2.5 6.6 1.4 1.6 2.8 2.1 8.1 5.1 1.8 2v2.2l-1.4 1.6-1.7.9-2.6.4-1.9 2-2.3 1.8-3.6-.1-3-.4-2.6-.7-2.7 1.1-2.4 2.4-1.6 2-1.7 3.9-.4 1-2-.7-4.4-.1-1-1 .9-2.1 1-1.6 1.5-2.3.2-1.2-.2-3.4.2-1.1 1-1.9.2-1.1.2-3.6-.2-1-.5-1-1.3-1.6-.3-.8 1.7-1.6.4-.5.1-1v-1.5l-2-1.5-1.4-.8h-1.1l-.5 1-.7.7-1.3-.4-1.7-1.1-1.4-.4-1.3.5-1.9.4-1.9-.6-1.8-1.7-2.7-1.5-2.4-.2-1.4.4-1.2.6-3.2 2.8-2.3 1.3-2.3.7-2.3 1.3-2 2.1-1.7.6-1.6-.8-2.1 1.7-2.6.9-2.1-2-.7-2.4.1-3.7-.6-.7-1.9-.6-2.3-.3-1.5-1-1.3-1.5-3.3-.9-.7-1.2 2.2-5.9.6-1.3-.4-.8-1.8-.9-3.2-1.3-6.2-1.2-3.7-1.8-4.2-2.8-.2-1.4-.9-1.7-1.1-.9-.4-1.2 1.5-3 .3-2.3.9-1.6 1.3-1.3 1.6-.8 2.9-.4 1.9-1.2 1.4-1.3.8-1.7-.5-2.5.2-1.1 8.3-1.4 2.5.1.9.5 1.6-.4 5.8 3 .8 2.6v2.9l1.9 1.8 2.8.3 2-1.5 2.8-.8 6.1 3.2 2.4-.3 1.7-1.2-.2-1.9-.8-3-1.9-1.7-3.7-.3-2.1-1.2-1.1-2.2-2.4-2.1-1.3-1.8.3-5.3 1.7-1.3 2.9-.6 5.1 2.6 3-.5 2.8-1 1.1.1.4 1.8 1.3 2 1 .7 1.2.7 3.5.8 3.6-.3 1.9-1.1 1.2-1 .3 1.2.7.9 1.7 1.1.5 1.1.2.2.4.1 1.3-.1h.3l.5 1.3v1l-.3 1-.2 1.2-.2.7-.9 1.9-.2.9 2 2.5 1.7 1.3 1 1.2-.1 1.4-3.9 4.8-.5.9h-1l-1.2-.4-.8-.1-1.8 1.9.9 1.8 2.5 1.4 2.9.5 6-.1 2.8 1 1.2 2.9-.1.5z"/><path d="m136.1 350.8-.6-.7-.8-.4.4-1.1.2-1.6 1-2 3.6-2 3-.2 1-1.1-2.5-4.8 8.8-7.3.4-.4.1-.7-.2-1.1.4-1.6v-.8l.2-.7 1.1-.7 1.5-.1 1 .8.8 1.1.9.8 2.9-.6-.9-4.3-3.6-8.7.8-2.5 1.7-2 1.9-1.9 1.4-1.9.7-1.4-.1-.4-.5-.3-.9-1.4-2.1-4.7-1.7-1.7-4.3-3.3-.9-1.7.6-5.3.4-.3.6.2 1.1-.2 2.9-1.1 3.3-.8 3.4-.3 2.9.6 2.9 1.8 1.3.4 2.1-.3 1.9-.7 1.2-.8 2.2 1.9 1.7-.1 1.5.9 1.6 1.5 2 .9.2 1.7-1.4 1.1-.9 1.5.3 1.9-.1 3.8-.5 2 .3 1.6 1.6 2.4.9 4.3.2 3.9 1.9 2.8 4.3 3.2 2.3.7 3.3-1.1 2.3-1.5 1.3-1.2.5-1.1-.1-.8-.1-.8.5-1.9 2.4-3.6.7-2.4 1.5-1.7 3.1-.7 3.6.2 3 .7 2.4.3 4.9-.8 7.6.3 3.9 1.1 6.2 3.2 3.1 1.1-.2 1.1-.9 2.4-.2 1.4.2 2.3-.3.9-1.3 1-.8-.9-.7-.2-.8-.1-.8-.6-1.3-1.6-.5-.1-.6-.1-1.2.5-3.8 2.2-1.1.9-3.5 5.5-1.3 4.1-.9 2.1-1.5.9-3.4.8-1 2.4.6 7.6-.5 1.5-1.2 1.5-1.6 1.1-1.8.4-.5 1-.3 1.9-.5 1.4-1.1-.8h-.8l-.4 1.1-.4 2.2-.3.1-.4-.1-.4.3-2.1 3.4.5.4.3.4.5 1.3-1.6.6-.9 1.5-.1 1.9.6 1.6-1.6.1-.9-.6-.7-.1-.2 1.4-1.5.6-1.5.1-1.3-.8-1.6-.9-2.5-.6-2.2.4-1.3 1-1.6.6-2.5.2-2.6-.1-2.5-.3-1.9.6-2.7 2.5-3.1 6.8-.5 1.6-.8 3.5-1.1 2.2-1.5 2-2.1 1.2-2 .3-3.5-1.5-1.9.6-1.2.8-1.7.7-1.7.5-1.9-.2-1.9-1.9-.4-2.5.5-1.7 2.7-6.5.7-3 .4-3.2v-2.3l.3-2 .8-2.1.5-1.9-.7-1.2-1.9-.2-1.3-.5v-1.9l.5-2.4v-1.9l-.9-1-1.4-.7-1.5-.2-3 2.2-1.8.2-2.1-.1-2.4.5-2.4.3z"/><path d="m276.9 570.7-3.4 4.9-1.3 1.4-2.4.2-1-1.3-.2-2.1.1-2-.5-.7-1 .4-1.2.7-.9.3-1.1-.5-1.7-1.7-1.3-.5-15.7-1.3-6 .8-1.7-.3-1.1-.8-.6-.8-.8-.8-1.3-.4-.4.2-.9 1.2-.5.3-.6-.1-1.4-.8-.7-.1-4.9.6-1.4.5-1 .7-1.6 1.7-.9.6-1.9.6-6.6.2h-.2l.1-.6v-1.6l-.3-2-3-3.1-5.7-4.7-.9-2.7.3-1.4 1.1-3.2.8-1.7 2.2-.1 3 .7 2.3.1 4.3-1.3 3.3-1.8 1.1-1.4 1.8-4 3.2-4.4.7-1.8-.2-1.7-.7-1.8-.7-3.5-.4-1.4-.8-1.5v-1.7l.5-.6.4-.8 2.9-3.7 1.1-2.4.7-2.2 1-1.1.9-.7.4-.4.1-1.7-.4-2.8.1-8.9.2-1.2.3-.9.2-1.8-.1-.7 5.4-1.4 4.2-.6 4 .5 3.1 1.4 1.9 1.2 1.2.4 2.1-.2 4.9-1.8 3 .2 2.2 1 1.9 1.3 3.7 3.3 2-.7 2.7-1.6 2-.7 1.9-.4 3.3-1.3 7-6.1 4.1-2.6 1.8-.6 1.3-.6.4-.5 2.4-.4 2.5.1 1.6 2 .7 1.6 1.1 1h2.2l1.4-.4 1.4-.9.1.4h.1l.5.1.4.2.3.5v.6l-.2.5-.3.4-.6 1.6-1.3 2.5-.3 1 .4 1.9 3 5.4.2 1 .2 2.2.3 1 .4.6 1.4 1.3.3.5.3 2 .8 1.3 3.5 3.1 1.2.6 1.7.3 2.4.1.4.4-.4 1-1 .9-1.1.5-1.3.1-.9.3-.8.7-.7.9-.7 1.5-.5 2.1v2.1l.8 1.7.9.4 1 .1.9.2.3.7.3 1.1.6.3h.9l1 .3 1 .6.6.3.3.6.1 1.3-.3 1.4-.8.9-2 1.6-1.3 2.1v2l.36826 1.21238c.071.008-.99521.12144-2.26919.23066l-2.31632.19858-1.09965-.55288-1.09965-.55289-.0949-.75921-.0949-.7592-1.45421.10585c-1.82433.1328-2.91157.13359-4.41944.004l-1.1871-.10263-.22263.78652c-.12244.4326-.25022.87886-.28395.99171-.0337.11283-.52366.50565-1.08874.87292-.79343.51567-1.1126.82206-1.40132 1.34518-.29681.53776-.53199.758-1.14069 1.06822-.7343.37423-.77052.418-.85486 1.03334-.0484.35342-.0876.74169-.087.86284.00055.12116.51715.79907 1.14793 1.50649l1.14687 1.28623.093 1.24419c.0813 1.0879.0465 1.43321-.27786 2.74877-.20397.82751-.41554 1.55472-.47013 1.61602-.16976.19052-2.46638-1.39289-3.82934-2.64015-1.08255-.99066-2.85273-2.39316-3.51316-2.78344-.0891-.0526-.4457-.0323-.79235.0455-.61372.13753-.64667.12772-1.25312-.37357-.34255-.28315-.9493-.90552-1.34833-1.38305-.6854-.82026-.74933-.96391-1.15663-2.59881-.23712-.95182-.67461-2.50858-.9722-3.45948l-.54108-1.72892-1.2013-.29683-1.20131-.29683-1.6357.7704-1.6357.77039-1.57297-.0922c-.86512-.0508-2.09614-.21368-2.73558-.3621-.91336-.21202-1.42654-.25195-2.39364-.18621-.84619.0575-1.59444.018-2.39364-.12629-.63943-.11549-1.20878-.21005-1.2652-.21015-.0563-.0001-.10258.27425-.10258.60968 0 .4487.17789.98178.67328 2.01748.3703.7742.78577 1.54023.92326 1.70228s.76119.54914 1.38599.86021l1.13601.56556-.0811.64437c-.0446.3544-.11286.90285-.1517 1.21879-.0728.59254-.12102.63212-.94498.77641-.22567.0396-.7633.1406-1.1947.22464l-.78436.15278-.62002 1.13743c-.341.62559-.78412 1.58192-.98469 2.12521-.38235 1.03562-.45733 1.10421-1.49147 1.36461l-.56153.14139-.0872.92332c-.14309 1.51506-.17159 1.44178.86831 2.23235.52659.40034.95746.73557.95746.74493 0 .009-.24623.59314-.54718 1.29726l-.54718 1.28024.83762 1.41526.83763 1.41528.56442-.48232c.31044-.26526.78697-.66567 1.05898-.88977l.49456-.40748 2.24104 1.51803c1.23255.83491 2.25471 1.52942 2.27145 1.54336.094.0782-.85879 2.05469-.85879 2.05469z"/><path d="m279.7 570.3v2l-.2 2.4.4 2.1 1.8 1h2.2l2.3.6 2 2.4 1.3 5 1 2.3 1.7 1.5 1.8.1 3.5-1 1.9.4 1.5 1.6 1.3 2.4 1.8 4.7 4.9 9.8 10 13.5 2.3 1.7 2.4.2 1.9-1.6 2.4-5.3 3.1-3-3.6-4.6-3.6-3.3-.5-1-.2-1.7.2-1.6.5-1.7.9-1.5 1.2-1.1-1.1-.8-.3-1-.1-.9-.5-.8-.9-.5-.5.1-.6-.1-.8-.9-.7-2.1.4-2.2 1.7-3.4 3.4-3.9.7-1-.3-1-2.4-3.9-.4-2.6.9-4.6.1-2.6-.6-1.9-2.3-3.4-.5-2.1v-8.7l-.63174-3.38762c.071.008-.99521.12144-2.26919.23066l-2.31632.19858-1.09965-.55288-1.09965-.55289-.0949-.75921-.0949-.7592-1.45421.10585c-1.82433.1328-2.91157.13359-4.41944.004l-1.1871-.10263-.22263.78652c-.12244.4326-.25022.87886-.28395.99171-.0337.11283-.52366.50565-1.08874.87292-.79343.51567-1.1126.82206-1.40132 1.34518-.29681.53776-.53199.758-1.14069 1.06822-.7343.37423-.77052.418-.85486 1.03334-.0484.35342-.0876.74169-.087.86284.00055.12116.51715.79907 1.14793 1.50649l1.14687 1.28623.093 1.24419c.0813 1.0879.0465 1.43321-.27786 2.74877-.20397.82751-.41554 1.55472-.47013 1.61602-.16976.19052-2.46638-1.39289-3.82934-2.64015-1.08255-.99066-2.85273-2.39316-3.51316-2.78344-.0891-.0526-.4457-.0323-.79235.0455-.61372.13753-.64667.12772-1.25312-.37357-.34255-.28315-.9493-.90552-1.34833-1.38305-.6854-.82026-.74933-.96391-1.15663-2.59881-.23712-.95182-.67461-2.50858-.9722-3.45948l-.54108-1.72892-1.2013-.29683-1.20131-.29683-1.6357.7704-1.6357.77039-1.57297-.0922c-.86512-.0508-2.09614-.21368-2.73558-.3621-.91336-.21202-1.42654-.25195-2.39364-.18621-.84619.0575-1.59444.018-2.39364-.12629-.63943-.11549-1.20878-.21005-1.2652-.21015-.0563-.0001-.10258.27425-.10258.60968 0 .4487.17789.98178.67328 2.01748.3703.7742.78577 1.54023.92326 1.70228s.76119.54914 1.38599.86021l1.13601.56556-.0811.64437c-.0446.3544-.11286.90285-.1517 1.21879-.0728.59254-.12102.63212-.94498.77641-.22567.0396-.7633.1406-1.1947.22464l-.78436.15278-.62002 1.13743c-.341.62559-.78412 1.58192-.98469 2.12521-.38235 1.03562-.45733 1.10421-1.49147 1.36461l-.56153.14139-.0872.92332c-.14309 1.51506-.17159 1.44178.86831 2.23235.52659.40034.95746.73557.95746.74493 0 .009-.24623.59314-.54718 1.29726l-.54718 1.28024.83762 1.41526.83763 1.41528.56442-.48232c.31044-.26526.78697-.66567 1.05898-.88977l.49456-.40748 2.24104 1.51803c1.23255.83491 2.25471 1.52942 2.27145 1.54336.094.0782-.85879 2.05469-.85879 2.05469z"/><path d="m327.3 458.2-.1 1.2-.1 1h-2.2l-.1-1-8.6-.2.1.6-.2.7.6 2 1.1 1.8.6 1.9-.6 2.4-1.3 1.4-1.6 1.3-1.4 1.5-.7 2.2-1.1 4.7-1.7 2.7-.4 2.4-.5.9-1.1 1.1-.3.6.3 1.1-1.4.9-1.4.4h-2.2l-1.1-1-.7-1.6-1.6-2-2.5-.1-2.4.4-.2-.7-1.3-.7-.8-1-.3-1.4-.9-1.1-1.3-.3-3.9-.2-2.9.3-1 1.3-1.2-.6.2-2.1.8-2.1-.6-1.1-1.3-.9.9-2 3.2-1.2-1-5 1.4-3.9.6-1.1.4-1.7.3-2 1.3-2.5.7-2.7-.8-2.1-.2-2.1.9-2.1.7-3.3-.3-2.4-3.8-1.3-3.9-.5-5.5.9-3 .8-2.2.8.4-1 .9-4.9.7-1.7 1.3-2 4.1-5 3.1-2.4 4.1-1.2 2.6 1.1 1.5 1.4 3.2-.5 4.1-1.3 3.8.3 2.6 1.3 4.1.9 3.7 1.3 3.3 1.5.9.4-1 1.6-.9 2.1 1 1 4.4.1 2 .7.8 1.6.8 6-.1 2 1 .3 1.1-.8 1.3-.6 2.2-3.7 1.9.2 4.7 3.5 1.9 1.8 1.1 2.2-.3 2.2-.6 1.9-.7 1.5-1.3.6h-3.4l-1.4 1-.9 1.6z"/><path d="m265.8 442.2 1.8.3 2.1-1 2.2-.8 3-.8 5.5-.9 3.9.5 3.8 1.3.3 2.4-.7 3.3-.9 2.1.2 2.1.8 2.1-.7 2.7-1.3 2.5-.3 2-.4 1.7-.6 1.1-1.4 3.9 1 5-3.2 1.2-.9 2 1.3.9.6 1.1-.8 2.1-.2 2.1 1.2.6 1-1.3 2.9-.3 3.9.2 1.3.3.9 1.1.3 1.4.8 1 1.3.7.2.7-.4.5-1.3.6-1.8.6-4.1 2.6-7 6.1-3.3 1.3-1.9.4-2 .7-2.7 1.6-2 .7-3.7-3.3-1.9-1.3-2.2-1-3-.2-4.9 1.8-2.1.2-1.2-.4-1.9-1.2-3.1-1.4-4-.5-4.2.6-5.4 1.4-1.9-2.2-1.1-.8-3.8-.5-1.6-.5-1.2-1.2-.4-1.3.1-1.1.4-.9.9-.8 2-.4 5.7.1 1.4-.8-.4-2.1-.8-2.2-1.6-1.6-.9-1.5v-.9l.4-2.1.7-.8h1.1l1.2.2 1.7-1.3 1.5-.2.6-.9-.4-1.3.3-1.5 1.1-2.5 1-.7.5-.2.6-.1.8-.4 2.9-3 .7-2.8-.4-.9-.9-.9-.5-1.1.4-.8 1.1-.5.9-.6.6-.9.6-1.2.6-.8 1.9-.3 1.1-1.1 2.2-3.6 1.1-.6 1.7-.2 1.9-1.1 1-2 2.8 2 3.4-.6 2.2-1.4z"/><path d="m59.2 454.8-8.8-.7h-1l-.2-.9.3-1.6 1.5-1 9.9-1.3 1.7-.5 1.7-.7 2.4-1.5 1-1.4.6-4.2 1-2.4 3.1-3.1 1.2-2.2.2-1.6-.6-10.7.4-1.8 1.5-1.3 2.2-1.1.8-.9-.1-1.3-.5-2.3v-8.5l-1-3.6-3.5-2.8-1.1-.2-1.1.1-.9-.2-.7-1.1v-1.2l.5-1.1.8-1 .5-1.1.9-4 .2-2.2-.1-1.8-.8-2-1.2-1.4-1.5-1-2-.9-1-.3-.9-.1-1.7.4-.4-.4-2.6-1.5-.6-.3-.6-1.1v-.5l.6-.2 1.4-.2.4.1 1.3.9.6.2.5-.1.7-.8.4-.2 3.4-.6.4-.2.4-.4.5-.3h.6l.7.3.5.4.6.3.7-.1.7-.6 2-2.8 3.9-3.2 2.6-3 1.6-1.3 3-.9 3.3-2 1.5-.7 1.6-.1 3.9.1 1.8-.2 1.2.1 1-.3 1-.6.9-.7 2.2-.9 2.1.2 2.2.5h2l4.3-1.5h2.1l2 1.7 1.7-.6 2.8-.5 1.5-.8.7-1.1.7-1.2 1.5.3 1.7.7 5.1 2.9 1.2 1.6 1.5 6.1.2 3-1.1 5.1-.2 4.5.2 1.8.6 1.1v1.2l-1.2 1-1.6.5-1 1-.4 1.4-.3 1.7 1.4.6h2.8l2.5.5 1.3.9-.6 2.7-.1 1.9.6 3 1.2 2.8 1.7 2.1 1.3 2.3.3 2-.3 2.9-1 2.5-.8 1.5-1.4 1.9-2.1 1.8-1.5.5-1.1-.1-.9-.5-1.1-2.4-1.1-.6-7 5-1.4 1.2-1.2 2.4-.2 2.3-.4 2.3-2.5 4.8-.7 2.3.6 1.7.6 1.5.6.5 1.2.1 6.3 4.4 1.2 1.4 1.4 2.3 1.7 2.1.9 2 .3 1.9-.1 1.5-.3 1.3-.6 1.1-2.1.3-1.8 1-1.4 1.3-2.6.5-2.3 1.1-.7 1.8.3 2.3.6 2-.7 1.6-1.4 1.6-1.2 2.7-.5.5-.7-.8-1.4-.5-8.6.1-4.4-.8-2 .2-4.4 3.6-5.3 2.1-2.6.1-5.2 1.3-1.8.8-2.9.1-1.6-1.5-4.1-4.6-1.3-2.1-1.1-2.7-1.3-2.1-9.8-9z"/><path d="m129.9 354.2-1.7-.7-1.5-.3.7-1.3 1.1-.9 1-.3 2.1.3 1-.1 2-1 .1-.2.8.4.6.7 1.8.9 2.4-.3 2.4-.5 2.1.1 1.8-.2 3-2.2 1.5.2 1.4.7.9 1v1.9l-.5 2.4v1.9l1.3.5 1.9.2.7 1.2-.5 1.9-.8 2.1-.3 2v2.3l-.4 3.2-.7 3-2.7 6.5-.5 1.7.4 2.5 1.9 1.9 1.9.2 1.7-.5 1.7-.7 1.2-.8 1.9-.6 3.5 1.5 2-.3 2.1-1.2 1.5-2 1.1-2.2.8-3.5.5-1.6 3.1-6.8 2.7-2.5 1.9-.6 2.5.3 2.6.1 2.5-.2 1.6-.6 1.3-1 2.2-.4 2.5.6 1.6.9 1.3.8 1.5-.1 1.5-.6.5.5.9.4.7.5.7 2.9-.1 1.4-.4 1.7.4 1 .5-.1-.6 1.8-.8 3 .5 7-3.3 10 .4 3.4.7 3.2 1 3.3 1.7 2.8 1.8 2 2 1.6.9 1.1 1.1 4.9.5 3.9 1.9 1.9 2.2.2-.1 2.9-3.2 13.5.6 3.5 1.7 2.4 2.8-.1 2.9-.6.5.4.7.4 2.7 4.4 2.1 2.7 2.2 2 1.9 1.5 5.9 5.7 1.7 1.2 2.3-.1 1.6-.3-2.9 3-.8.4-.6.1-.5.2-1 .7-1.1 2.5-.3 1.5.4 1.3-.6.9-1.5.2-1.7 1.3-1.2-.2h-1.1l-.7.8-.4 2.1-4.2.1-1.7.7-1.2 1.4-1.2 1.9-3.5 3.5-.2 1.9-.4 1.8-1.4.9-3.3 1.1-1.5.9-1.8.1-2.1-2.2-5.8-1-2.2-.8-1.4-.8-1.3-1.3-2.3-2.6-.9-.5-1.2.1-2.9 1.4-4.2 1.4-2.5 1.2-1 .8-5.4 2.9-1.6.1-.9-1-.6-1.1-.9-.8-5.9-1.8-2.6-.2-1.5-.7-1.2-1.7-2.5-6.5-2.1-2.4-2.5-.9-2.1-.2h-2.4l-2.6.9-2.8 1.8-1.8 1.7-.8 1.1-5.2 3.9-2 .1-2.2-1.2-2.8-1-1.7-.7-1.1-1.8-2.8-3.5-.6-1.4.5-.5 1.2-2.7 1.4-1.6.7-1.6-.6-2-.3-2.3.7-1.8 2.3-1.1 2.6-.5 1.4-1.3 1.8-1 2.1-.3.6-1.1.3-1.3.1-1.5-.3-1.9-.9-2-1.7-2.1-1.4-2.3-1.2-1.4-6.3-4.4-1.2-.1-.6-.5-.6-1.5-.6-1.7.7-2.3 2.5-4.8.4-2.3.2-2.3 1.2-2.4 1.4-1.2 7-5 1.1.6 1.1 2.4.9.5 1.1.1 1.5-.5 2.1-1.8 1.4-1.9.8-1.5 1-2.5.3-2.9-.3-2-1.3-2.3-1.7-2.1-1.2-2.8-.6-3 .1-1.9.6-2.7-1.3-.9-2.5-.5h-2.8l-1.4-.6.3-1.7.4-1.4 1-1 1.6-.5 1.2-1v-1.2l-.6-1.1-.2-1.8.2-4.5 1.1-5.1-.2-3-1.5-6.1-1.2-1.6-5.1-2.9z"/><path d="m315.8 426.2-.2 1.2-1.5 2.3-.9-.4-3.3-1.5-3.7-1.3-4.1-.9-2.6-1.3-3.8-.3-4.1 1.3-3.2.5-1.5-1.4-2.6-1.1-4.1 1.2-3.1 2.4-4.1 5-1.3 2-.7 1.7-.9 4.9-.4 1-2.1 1-1.8-.3-2 .2-2.2 1.4-3.4.6-2.8-2-1 2-1.9 1.1-1.7.2-1.1.6-2.2 3.6-1.1 1.1-1.9.3-.6.8-.6 1.2-.6.9-.9.6-1.1.5-.4.8.5 1.1.9.9.4.9-.7 2.8-1.6.3-2.3.1-1.7-1.2-5.9-5.7-1.9-1.5-2.2-2-2.1-2.7-2.7-4.4-.7-.4-.5-.4-2.9.6-2.8.1-1.7-2.4-.6-3.5 3.2-13.5.1-2.9-2.2-.2-1.9-1.9-.5-3.9-1.1-4.9-.9-1.1-2-1.6-1.8-2-1.7-2.8-1-3.3-.7-3.2-.4-3.4 3.3-10-.5-7 .8-3 .6-1.8.5.3 2.5.2.4.9.3 1 1.6 1.2 1.8.9.5.9-.3 1.4.4 1.2 1.2.5 1.7.5 2.2 1 1.9 1.1 1.4 1.1 1.5.8 2.2.4 1.9.1 1.4-.6 1.9-1.3 2.1-1 1.8-.5 6.3-.3 1-.2 4.2 2.8 3.7 1.8 6.2 1.2 3.2 1.3 1.8.9.4.8-.6 1.3-2.2 5.9.7 1.2 3.3.9 1.3 1.5 1.5 1 2.3.3 1.9.6.6.7-.1 3.7.7 2.4 2.1 2 2.6-.9 2.1-1.7 1.6.8 1.7-.6 2-2.1 2.3-1.3 2.3-.7 2.3-1.3 3.2-2.8 1.2-.6 1.4-.4 2.4.2 2.7 1.5 1.8 1.7 1.9.6 1.9-.4 1.3-.5 1.4.4 1.7 1.1 1.3.4.7-.7.5-1h1.1l1.4.8 2 1.5v1.5l-.1 1-.4.5-1.7 1.6.3.8 1.3 1.6.5 1 .2 1-.2 3.6-.2 1.1-1 1.9-.2 1.1z"/><path d="m210.9 569.6v1.6l-.1.6-1.9.6-3.7 2.4-2.2.6-1.5.8-.4 1.6-.6 1.5h-3.2l-.9.3-1.5.7-.1.3v.5l-.2.5-.6.2-.6-.2-1.1-.6-5.7-1.7-1.7.2-1.8 1.4-2.9 4.1-1.8 1-3.8.5-1.7.6-1.3 1.2.4.1 1.2.4-3 3.2-.6.9v.9l.3 2.5-.3 1.2-1.3 2.6-.6.8-2.7-1.2-1.6-.4-.3 1.6.1 1.7-.4.9-1.4-.6-.6-1.1-.9-3.4-.9-1.5-2.4-.6-3.6.2-3.2-.3-1.4-2.1.2-1.9 1-2.6.2-1.8-.3-.5-.6-.3-.7-.2h-1.9l-.3.2-.1.4-.3.7-.5 1.4v1.4l-.4 1-1.4.5-1.2-.5-1.4-2.1-1.2-1-1.3 1.4-1.1.6-1.3.2h-1.4l.1.2-.4.6-.6.7-.9.6-.8.3v-.1-.4l-.5-.5-1.4-.6-.5-.4-.2-.8-.2-1.1-.3-.6-1.2-1.1-.6-.7-.3-.6-.5-.3-1-.2-1 .2-.4.3.2.5.6.5-1.6.3-1.3-2.2-1.3.4-.3-.8-.2-.4-.9-.8v-.8l1 .1.8-.1 1.6-.6-.9-1.7-.5-2.3-.8-1.6-1.9.7-.7-2.1-1.4-1.3-2-.6-2.3-.2-.9-.2-.3-.5-.5-.5-1.1-.2-.8.5-.5.9-.6.7-.8-.4-3-2.7-.1-1.2 1.4-4.2-.1-.6-1.1-2.4-1.2-1.5-.4-1 2.1-.1.4-1.4-.7-1.8-1.1-1.6-1.2-.8-1.3-.6-1.1-1-.5-1.8-1 .8-1.2.5-1.1-.1-.8-1.2 1.4-.7-.7-.2-.6-.2-.6-.2h-.9l.9-.9 2.4-.8-.2-.8-2.5-1.7-.6-1 .6-1.9-2.6.1v-1.1l.9-1.8-.3-2.1-.3.7-.5.6-.5.5-.7.3-1.3-.1-.1-.5.4-.6.3-.5v-5.6l-.8-1.6 2.6-2v-2l.5-1.7.9-1.6.3-1.3-.7-3.5.1-1.7-.7-2-1.6-1.9-.4-4.3-2.1-1.1-1.5-1.6 1-2.2 1.2-2.2 1 .6 2.2.3 3-1.1 2.9-.6 1.9-.6 1.6.6 1.3.2 1.1-1.8 1.6-3.1.6-1.9.5-1.9-.2-3.8-.9-3.2.7-2.2.2-2.2-1.7-1.4-1.5.3-1.6-.7-2.6-.6-2.8-1.1-1.1-1.6 5.3-2.1 4.4-3.6 2-.2 4.4.8 8.6-.1 1.4.5.7.8.6 1.4 2.8 3.5 1.1 1.8 1.7.7 2.8 1 2.2 1.2 2-.1 5.2-3.9.8-1.1 1.8-1.7 2.8-1.8 2.6-.9h2.4l2.1.2 2.5.9 2.1 2.4 2.5 6.5 1.2 1.7 1.5.7 2.6.2 5.9 1.8.9.8.6 1.1.9 1 1.6-.1 5.4-2.9 1-.8 2.5-1.2 4.2-1.4 2.9-1.4 1.2-.1.9.5 2.3 2.6 1.3 1.3 1.4.8 2.2.8 5.8 1 2.1 2.2 1.8-.1 1.5-.9 3.3-1.1 1.4-.9.4-1.8.2-1.9 3.5-3.5 1.2-1.9 1.2-1.4 1.7-.7 4.2-.1v.9l.9 1.5 1.6 1.6.8 2.2.4 2.1-1.4.8-5.7-.1-2 .4-.9.8-.4.9-.1 1.1.4 1.3 1.2 1.2 1.6.5 3.8.5 1.1.8 1.9 2.2.1.7-.2 1.8-.3.9-.2 1.2-.1 8.9.4 2.8-.1 1.7-.4.4-.9.7-1 1.1-.7 2.2-1.1 2.4-2.9 3.7-.4.8-.5.6v1.7l.8 1.5.4 1.4.7 3.5.7 1.8.2 1.7-.7 1.8-3.2 4.4-1.8 4-1.1 1.4-3.3 1.8-4.3 1.3-2.3-.1-3-.7-2.2.1-.8 1.7-1.1 3.2-.3 1.4.9 2.7 5.7 4.7 3 3.1z"/><path d="m90.6 527v2l-2.6 2-1.6-1-1.7-.2-.7 1.4-.9.1-4.9-2.9-1.6.4-4.6-.7-1.7-.1-.8.5-.5.7-.6.6-1.2.3-1.1.1-.5-.1-.5-.3-.5-.2-.4.3-.3.6-.5.3-2-.1-1.7-.4-1.4-.7-1.1-.9-.3-.7-.3-.9-.4-.8-.6-.4h-1l-.7-.1-1.4-.5-.1-1.8-1.2-2.6-1.8-2.3-1.7-1 .5-1.5.8-5.2.4-.8 2.4-3.7 1.3-5.4-.3-.9-.7-.7.1-1.6.7-1.6 1-1-1.6-.6-.1-.8-.5-1.7v-.9l.9-5.5.5-1.5.7-.7.8-.4.7-.5.1-1v-.9l1.4-5.9-.4-1.2-1.2-2.2-1.8-7.1-1.4-2.8-2.2.5.6-2.6-1-5.3h1l8.8.7 2.9 1.6 9.8 9 1.3 2.1 1.1 2.7 1.3 2.1 4.1 4.6 1.6 1.5 2.9-.1 1.8-.8 5.2-1.3 2.6-.1 1.1 1.6 2.8 1.1 2.6.6 1.6.7 1.5-.3 1.7 1.4-.2 2.2-.7 2.2.9 3.2.2 3.8-.5 1.9-.6 1.9-1.6 3.1-1.1 1.8-1.3-.2-1.6-.6-1.9.6-2.9.6-3 1.1-2.2-.3-1-.6-1.2 2.2-1 2.2 1.5 1.6 2.1 1.1.4 4.3 1.6 1.9.7 2-.1 1.7.7 3.5-.3 1.3-.9 1.6z"/><path d="m589 360.1.4 3-.4 1.8-.6-.2-1.3.6-9 7.3-3.4 5.5-2.6-.3-10.2-2.6-4.8-3.5-3.1-4.1-1-3.2.7-2.5v-2.6l-.1-1 .9-.1 1.9-2 1.5-3.8-.9-9.7.7-1.4-5.4-5.3-.8-2.2-.5-3-2.7-6.9 1-3.9-.6-2.5-1.5-3-3.4-2.8-4.2-2.6-.9-3.1-.1-.6 1.1.1 16.5 3.9 4.9-.2 18.2-9.4-2.8 8.5 1.1 4.2 4.1 2.3 3.8 2.6-.2 3.5-3 4.1-.7 4.2 3.2 2.2 6.7 2.1 1.5 1.6 3.2 2.4 2.3 2.7 4.3 4.1.3 2.7-2.2.6-2.9 1.4-3.2 1-3.1 2-2.2 4.4z"/><path d="m641.6 447.4-3.8 8.1-.3.9-49-10.1.2-.8 1-2.8 1.3-2.8v-1.4l.9-1 1.7-.5 1.1-1.2.7-1.6.5-1.5 1-1.4 1.5-1.2 1-1.1 1.1-1.5.1-1.4-1.5-1.6-2.7-1.1-2.9.2-1.9.4-1.7.8-1.7.3-1.9-.5-1.7-.1-1.2-1.1-.2-2.1 1.3-1.5.3-1.6-.6-1.6.9-1.4 1.2-1.5.4-3.5.1-1.6.6-1.4.5-1.5-1.7-2.3-.8-2.2 2.3-5 1.4-1.7 1.9-1.7 1.9-4 3.3-2.8 1.6-.8 4.1.5 1.6-.1 1.3-.5.3-1.6-.1-1 .8.2 1.5.1.9-.7.4-2.7 1.6-.5 5.4 1 1.7-.1 1.9 1.5 3.2 1.5 6.2-.2 3 1 11 7.6 2.2.4 8.1.1-.6 7 .5 2.6.4 7.1.7 2.4 2.1 3.9 1.1 3 .5 2.1-1.1 2.8-2.5 1.7-.6 1.9 1 4.4.9 1.6.5 1.8-.5 1.6.2 1.1v1.1l-3.8 4.3-1.2 1.8-.6 2.7-.1 2.8-1 1.4-1.7-.5-1.6-1.9-1.2-1.7-1.3-.6z"/><path d="m589.7 442.7-1 2.8-.2.8-5.2-1.1-13.5-2.8-.3 1.6.4 1 .2.9-.8 1.5-1.2 1.3-5.1 3.6-1.8-2.1-1.9-1.6h-1.9l-1.9 2.5-.5 1.5-.2 2.3-.5 1.1-1.2.9-2.6 1.3-1 1.2-.2.2-.3.3-.4.1-.3.1-3.9-.1-2.1.2-1.4.6-.9 1.7-.8 2.5-1 2.3-1.7 1.1-4.8-4.7.3-.7.7-.8.4-.8-.5-.7-1-.1-.7.2-.4-.1-.2-1.1h-.6l-.3-3.3 1-1.8.5-1.6-.6-1.9-1.8-1.6-1.7-1.7-1.2-2.5-2.2-3.7-1.1-2.5.7-.7 1.5-1.9.8-3.1 1.2-2.2 2.7-1.3 3.5-3.1 3.8-2.3 2.9-2.7 2.9-1.2 3 1.1.1-1.9-.3-2.8 1.6-3.6-1.8-3.1-1.1-1-3.5-1.6-1-.8-1.9-1-7.6-1.8-1.8.3-.2-.1-2.3 1.6-4.5-2.5-4.7-1.8-3.1-2.2-5.6-8.6 1.4-3.9 2.8-3.7 2.5-1.5 5.8-8 5.1-.4 5.3-1.7 3.9-3.9 1.8-2.8 2-2.8 2.1-2.3 2.9-1.1 5.6-.6 3.9.3h.9l.1 1v2.6l-.7 2.5 1 3.2 3.1 4.1 4.8 3.5 10.2 2.6 2.6.3 3.4-5.5 9-7.3 1.3-.6.6.2 1.3.3 2.2 1 1 3.4 3.3 2.3 4.7 1 2.4 4 .9 4 .2 1.6.1 1-.3 1.6-1.3.5-1.6.1-4.1-.5-1.6.8-3.3 2.8-1.9 4-1.9 1.7-1.4 1.7-2.3 5 .8 2.2 1.7 2.3-.5 1.5-.6 1.4-.1 1.6-.4 3.5-1.2 1.5-.9 1.4.6 1.6-.3 1.6-1.3 1.5.2 2.1 1.2 1.1 1.7.1 1.9.5 1.7-.3 1.7-.8 1.9-.4 2.9-.2 2.7 1.1 1.5 1.6-.1 1.4-1.1 1.5-1 1.1-1.5 1.2-1 1.4-.5 1.5-.7 1.6-1.1 1.2-1.7.5-.9 1v1.4z"/></g><g fill="#c12737"><path d="m489.4 340.3 3-.7 1.4-1.3.4 1.2 1 .9.9.8.5.5.6 4.6.3 1.2.3.6.8 1 1.8 1.8.8 2 2.8 3.3 1.4 1.3 1.2.9.8.4.6.5 2.1 2.8.6 1.2.2 1.5-.2 2.9.5.9-5 .8-6.5-2.1-4.1-2.1-2.9-.7-5.2 1.6-6.6 4.5-3.5 3.5-1.2 2.5-8.1 13.2-2.9 9.6-.4-.6-7.6-3.7-2.7-3.1-1.2-2-1.6-1.4-6.8-3.3-1.7-1.7-1.8-1.5-2.4-1.1-2.5-.8-2.4-2.1-2.4-2.5-2.1-1.7-8.5-9.4-2.4-1.2-2.6.5-2.8 2-3.7.1-3.6-.2-1.7 1.1-1.2-.1-3.5-5.1-3.8-2.7 1.4-1.8 1.5-1.6 3.6-2.9 1.3-3.4.6-2.6 2.1-.9 1.5-1.6 2.8-1.7 2.4-.2 4.9 5.3 1.7 1.2 3 .4h.8l2.1.8 1.7 1.3h1.3l3.5-3.5 2.1-.6 2-.8 2.6-1.9 2.4-.8 1.9-1.1 1.5-2.5 1.5-1.6 2.4-1 1.9-.2 1.4.2h1.1l1.3-.2 1.7 1.3 1.9 5.9 1.1 1.4h1.8l2.1-1.3 2.1-.9 2.6-.8 2-.2 2.5 1.8 1.7-.6 2.8-1.4 4.3-.7h4.1l2-.3z"/><path d="m530.4 454.5-1 1.8.3 3.3-11.5-.2-.5-.8-.5-.2-.6.2-.6.8-2.1.3-2.3 2.5-1.7.2.6-1.4-1 .1-.5-.3-.7-1.4-.8-.6-.8-.1-13.8-1.1-2.8.4-.9 1.6-24.8-.3-2.5-.4-3.3-1.3v-1.4l-1.1-2-2 .4-1.6-.9-.3-1.6-.5-1-3.8.2-4.3-1.7-1.4-.8-1.4-.5-1.6-1-1.9-1.6-2.6-1.1-.6-2 1.6-2.5 1.4-1.9.6-2.6 1-2.7 1-1.6v-4.1l.1-1.1 2.1-2.7 1.7-.8 1.5.3 2.2-.9 4.3-5 2.7-2 2.3-.9 2.1-1.1 1.6-1.1 1.3-1.3 1.9-2.3 3.7-3.8 1.2.6 1.8 2.6 1 2.7 2.7.6 3.3-.1 2 2.7 1.8 3 1.9 1.3 3.2.7 2.4 1.6 3.5 3.9 2.3 1.4 2.9-.9 3 .6 1.1 2.2v2.8l1.4.7 2.1 1.4 1.8 2.9 1.6 1.1 2.5 2.8 6 2.9 2.7-1 1.5-2 1.1 2.5 2.2 3.7 1.2 2.5 1.7 1.7 1.8 1.6.6 1.9z"/><path d="m518.1 372.6 1 .7 1 .3-5.8 8-2.5 1.5-2.8 3.7-1.4 3.9 5.6 8.6 3.1 2.2 4.7 1.8 4.5 2.5 2.3-1.6.2.1 1.8-.3 7.6 1.8 1.9 1 1 .8 3.5 1.6 1.1 1 1.8 3.1-1.6 3.6.3 2.8-.1 1.9-3-1.1-2.9 1.2-2.9 2.7-3.8 2.3-3.5 3.1-2.7 1.3-1.2 2.2-.8 3.1-1.5 1.9-.7.7-1.5 2-2.7 1-6-2.9-2.5-2.8-1.6-1.1-1.8-2.9-2.1-1.4-1.4-.7v-2.8l-1.1-2.2-3-.6-2.9.9-2.3-1.4-3.5-3.9-2.4-1.6-3.2-.7-1.9-1.3-1.8-3-2-2.7-3.3.1-2.7-.6-1-2.7-1.8-2.6-1.2-.6-3.4-5.1 2.9-9.6 8.1-13.2 1.2-2.5 3.5-3.5 6.6-4.5 5.2-1.6 2.9.7 4.1 2.1 6.5 2.1 5-.8 1.7.8 1.5-.1 1.3-.4 1 .1.7 2.6z"/></g><g fill="#fefee4"><path d="m556.4 356.2-1.9 2-.9.1h-.9l-3.9-.3-5.6.6-2.9 1.1-2.1 2.3-2 2.8-1.8 2.8-3.9 3.9-5.3 1.7-5.1.4-1-.3-1-.7-.7-1-.7-2.6-1-.1-1.3.4-1.5.1-1.7-.8-.5-.9.2-2.9-.2-1.5-.6-1.2-2.1-2.8-.6-.5-.8-.4-1.2-.9-1.4-1.3-2.8-3.3-.8-2-1.8-1.8-.8-1-.3-.6-.3-1.2-.6-4.6-.5-.5-.9-.8-1-.9-.4-1.2v-2.2l-.2-.8-.5-.9-.6-.4-.8-.2-.7-.4-.7-1.1-.1-1.8.1-.3.1-2.3-.1-2.3-1-1-.8-.4-.1-.9.5-2.1v-.5l-.1-1.2.1-.5.5-.4.7-.1h.6l.3-.1 2-3.7 1-3.4-.7-2.8-1.3-.9 2.4-.3 2-.5 2.4-3.2 3.3-.1 3.8 4 3.1 2 3.2-.4 2.9-1.4.9-2.3v-1.9l2.4-1.3 3.9-2.6 3.3-3-.1-2.4-.5-3.6 1.5-2.4 3.8-.5 2.4.3 1.2.2 2.6 3 1.9 5.1v7.3l.2 1.8.1.6.9 3.1 4.2 2.6 3.4 2.8 1.5 3 .6 2.5-1 3.9 2.7 6.9.5 3 .8 2.2 5.4 5.3-.7 1.4.9 9.7z"/><path d="m422.8 319.4-4 2-.9.7-1.9-.2-3.9.3-3.8.8-3.6 2.1-4 3-3.3 1.6-3.3-1.1-1.9-1.9 1.2-2.4 2.3-3.5 1-3.9 1.4-3 1.3-2.3 2-1.7 3.7-.1 2.7.2 2.7 1.2 2.3 1.4 3-.5 4-1.8 1.2-1.6-.7-5.2-.9-3.6-2.3-2.8-3.5-1.6-3.4-.9-2.5-.9-.4-2.1v-2.2l-.9-1-.5-.5-.9-1.4-1.4-3.3.3-3.8 2-3.7 8-7.4 12.9-3.2 2.7 2.4 1.1.4 1.3.1 1.7.8.3 2.3-.3 3 .9 5.8.7 1.9 1.1.9 3.3.8.8 1.7v3.1l-.6 1.2-.8 2.3-.4 2.3-.7 2.4-2.2 1.2h-1.5l-3 .5-2 .7-1.3.7-.2 1.6 3.9 13.4.3 1.8-2.9 1.2z"/><path d="m507.9 299.7 5.1 3.1 3 .7v1.9l-.9 2.3-2.9 1.4-3.2.4-3.1-2-3.8-4-3.3.1-2.4 3.2-2 .5-2.4.3 1.3.9.7 2.8-1 3.4-2 3.7-.3.1h-.6l-.7.1-.5.4-.1.5.1 1.2v.5l-.5 2.1.1.9.8.4 1 1 .1 2.3-.1 2.3-.1.3-2.5.6-6.7-3.4-1.4-.2-2.4-2.9-2.9-1.5-1.3-.2-.1-1.6.3-1.9 1.8-4.4.1-2.6-.8-2.8-1.3-2.2-4.5-1.1-1.1-.4-1.3.3-1.5.6-2.2 2.1-2 .7-7.6.5-.5-.6.3-.6 1.8-2.7.6-1.5-.4-2-1.3-1.2-1.7-2.2-1.4.8-2.3 1.4-2.7.9-1.7-.4-.6-2.1.4-2.5 1.1-1.9-.1-2.1-1.3-2.4-1.6-1.9-1-.8v-3.1l-.8-1.7-3.3-.8-1.1-.9-.7-1.9-.9-5.8.3-3-.3-2.3-1.7-.8-1.3-.1-1.1-.4-2.7-2.4 6.7-2.7 3.8.2 4.1 2.1 2.7.5.6-.4 1.7.9 2.6 1.8 2.4 1.3 2.6-.2 3.6.1 3.4.8h1.8l1.1 1.5 1.3 2 3.1 1.1 5 1.2 4.9 2.4 4.6 3.5 2.1 3.6-.1 1.1.4.3.7.2.7.6.3 1.3-.6.9-1.1 1.1-.6 1.1 1 1.1 1.2.2.6-.9.2-1.3v-1.1l.4-.6.8-.5 1-.1.9.5.2.5 1.7.1 4.4-.2 4.3 2.3 6.6 8.3z"/><path d="m341.3 148.3-3.5-4.8-5.5-5 5.7-6.3 2.2-1.9 8.1-4.6 5.5-1.4 7.6 1.7 23.4 11.1 3.2.7 1.5-.2 2-.9 4.5 5.8 3.1 1.7 8.5 6.2 6 3.2-.1 1.7-.8 4 .2 4.1 5.6 10.1 3.2 3.7 3.6 3.4.6.6 1 1.5v2.8l-2.4 1.6-3.7 1-4.1 2.2-3.5 2.9-1.1 4.3.1 2.2-4.3 1.1-3.1.3-5.3 1.2-2.4-.6-2.9-.3-3.6.2-2.2-.5-3.3-13.3-3-8.9-.8-1.1-2-4.4.1-3.4.7-3.2-1.9-1.8-3-.9-1.7-2.6-.6-5.4-1.6-.8-2.3-.7-4.3-4.4-3.3-1.6h-3.4l-2.4 1.4-1.7 1.6-1 1.6-1.5.3-1.7-.5-1.6.6-1.2 1h-1.5l-2.2-.7-1-.8.1-2.2z"/><path d="m330.4 253v-3.9l1.3-2.8 2.2-.5 4.5.7 3.2.2 3.5-.9 2.1-2.4 3.1-5.3 4.4-6 1-2.9-1.9-1.2-3-.6-2.4.6-2.6-.1-2.7-1.4-2.2-1.4 1-.6 3.8-.8 2.6-.9 2.4-1.2 1.9-1.8.8-.9.8-1 1.8-1.2 3.9-1.3 1.1.9 1.3 1.4 5.3.3 8.8 3.1 2.9.4h2.8l1.8.6 5-2 2.1.6.7 1.3.1 1.7.4 1.9 1.2 2.6-2.7 3.8-1.1 3.2.1.9.5 1.4.2.8-.3.9-.5.3-.7.1-.7.5-.5 2.3-.1.1-.3.3-1.4.6-.4.2-.4 3.2 2 1.6-3.2-.1-4.1-1.8-3.4-.8-9.5 4-3.9 2.3-4.8 5.2-2.8.8-4.7.9-3.5.4-3.7-.6-5.3.2-4.7-.4-2.1-.5z"/><path d="m416.1 207.7-.4 10.1.3 2.5 1.6 2.1 2.3 2.5.7 1.8 2.3.1 2.5 1.8 1.6 3.1.9 2.7.1 3-.7 2.1-1.3 1.8-.2 1.2-3.6 1.9-5.1.6-1.8-3.1-2.3-1.3-2.5 1.5-1 1.7-1.7 4.4-2.4.6-1.8-.7-1.6-.3-1.3 1.4-1.2 1.9-1.3.9-6-.3-1.2.3-1.3-2.2-2.6-1.4-2-1.6.4-3.2.4-.2 1.4-.6.3-.3.1-.1.5-2.3.7-.5.7-.1.5-.3.3-.9-.2-.8-.5-1.4-.1-.9 1.1-3.2 2.7-3.8-1.2-2.6-.4-1.9-.1-1.7-.7-1.3-2.1-.6-5 2-1.8-.6h-2.8l-2.9-.4-8.8-3.1-5.3-.3-1.3-1.4-1.1-.9-3.9 1.3-1.8 1.2-.8 1-.8.9-1.9 1.8-2.4 1.2-2.6.9-3.8.8-1 .6-.7-2.2-2.6-4.7-.5-4.7v-1.9l-.3-2.3-.8-1-1.9-.9-2.2-.5-1.7-1.4-1-2.2-2.3-1.4-9.4-2.1-3.5-1.7-4.1-4.2-2.1-2.8-.7-1-.2-.3 3.5-1.3-2.8-9.6-.5-5.5 1.6-3.9 1.8-2.9 3.9-13.2-.2-.2-.1-.2-.3-.2-.6.1 2.6-4.3 14.8-8.2 1.7-1.9 5.5 5 3.5 4.8 1 2.6-.1 2.2 1 .8 2.2.7h1.5l1.2-1 1.6-.6 1.7.5 1.5-.3 1-1.6 1.7-1.6 2.4-1.4h3.4l3.3 1.6 4.3 4.4 2.3.7 1.6.8.6 5.4 1.7 2.6 3 .9 1.9 1.8-.7 3.2-.1 3.4 2 4.4.8 1.1 3 8.9 3.3 13.3 2.2.5 3.6-.2 2.9.3 2.4.6 5.3-1.2 3.1-.3 4.3-1.1z"/><path d="m329 271.3 1.3-6.8.7-2.1.2-.7.2-2.2v-1.5l2.1.5 4.7.4 5.3-.2 3.7.6 3.5-.4 4.7-.9 2.8-.8 4.8-5.2 3.9-2.3 9.5-4 3.4.8 4.1 1.8 3.2.1 2.6 1.4 1.3 2.2 1.2-.3 6 .3 1.3-.9 1.2-1.9 1.3-1.4 1.6.3 1.8.7 2.4-.6 1.7-4.4 1-1.7 2.5-1.5 2.3 1.3 1.8 3.1 5.1-.6 3.6-1.9.7.7 4.1 3.3 1.8 2.6 1.9 2.1 1.3.8 1.5-.5h.8l.4.8.2.9.6.2.7-.3.5-.5h.8l1.6 1.9 1.6.8 4.6.1.9.2-2.9 4.6-1.2 3.9-1 .7-.6.4-2.7-.5-4.1-2.1-3.8-.2-6.7 2.7-12.9 3.2-8 7.4-2 3.7-.3 3.8 1.4 3.3.9 1.4-1.2.9-1.9-.3-1.5-2.6-2.2-1.1h-4.9l-1.2.9-1.7.7-6.1-.7-3 .1-6.3 1.6-3.1 1.1-1.8 1.3-.8.3-1.2.8-.6-.1-4.7 1.6-1.7.3-2.5.8-3.2.7-1.4-.3-.7-1.6 1.4-2.7 2.5-2.1.8-1.6-2.2-.6-4.4.2-3-.4-.4-2.2 1-2.6 1.4-2.3-.4-2.5-1.9-1.4-1.3-.1-1.2.2-2 1.6-1.4 1.3-2.9 2.3-3.9 2.5-3.4-3.9-2.9-2.4-1.1-1.1.1-3.2z"/><path d="m533.3 168.1 1-3.4 4.9-3.8 1.7.6 3.9 1.8 2.8 2.1 5.8 6.2 1.4 3.3.7 4.7 2.3 3.4 2.7 2.3 2.7 3.3 3.9 2 6.6.4 4.3 1.1-.2 2.8-1.8 2.8-.5 3.1 1.9 3.6.4.8-.8 1.7-3.6 2.1-2.8 3.6.4 3.4 1.4 2.6-.4 4.1-2.4 5.1-1 3.9 1.2 3.8-.8 2.9-2.9 3.8-2.1 4.8-.6 8.9.7 2.7 1.7 3.4.6 1.7 1.4 3.5 1.7 2.6 2.3 1.5 4.4 2.5 3.9 2.8-2.3 8.1.5 1.4.7 1.7 1.3 3.7v3.9l-1 4.4-18.2 9.4-4.9.2-16.5-3.9-1.1-.1-.2-1.8v-7.3l-1.9-5.1-2.6-3-1.2-.2-.3-6.3-2.5-5.4-4.6-5.1-3.7-5.9-2.2-5.5-.5-2.9.6-1.4 1.6-.5 6.8 4.1 2.8-.7 1.2-1.9.5-3.8-.7-6.1.7-6.3 2-5.9.6-5.4-1.1-5.6-1.5-5.2-1.2-7.1-1.9-1.7-1.7-3-2.5-11-.1-5.8 1.2-3.3 2.3-1.8 2.2-.8 2-3.4 1.1-6.7z"/><path d="m449.6 253.6-2-3.4.2-3.1 3.4-3.3 5.7-2.1 5.5-1h4.2l3.5.5.3-2.7-.7-4.4.4-2.5 1.7-3 .5-2.8-2.6-5.6-3.6-4.3-1.9-4.1 2.6-3.2 1.1-4-1.4-4.5-.1-2.4 1.4-1.7 1.6-2.9 1.7-4.4-.9-3.4-3.5-5.7 4.1-.3 4.4-1.2 4.5-.7 5.1-.1 7.6-3 2.4.4 7.1-3.6 12.9-2.9 14.1-7.2 5.3-5h1.6l.4.9.9 1.8 1.3 1.6.8.6-4.9 3.8-1 3.4.5 5.5-1.1 6.7-2 3.4-2.2.8-2.3 1.8-1.2 3.3.1 5.8 2.5 11 1.7 3 1.9 1.7 1.2 7.1 1.5 5.2 1.1 5.6-.6 5.4-2 5.9-.7 6.3.7 6.1-.5 3.8-1.2 1.9-2.8.7-6.8-4.1-1.6.5-.6 1.4.5 2.9 2.2 5.5 3.7 5.9 4.6 5.1 2.5 5.4.3 6.3-2.4-.3-3.8.5-1.5 2.4.5 3.6.1 2.4-3.3 3-3.9 2.6-2.4 1.3-3-.7-5.1-3.1-6.6-8.3-4.3-2.3-4.4.2-1.7-.1-.2-.5-.9-.5-1 .1-.8.5-.4.6v1.1l-.2 1.3-.6.9-1.2-.2-1-1.1.6-1.1 1.1-1.1.6-.9-.3-1.3-.7-.6-.7-.2-.4-.3.1-1.1-2.1-3.6-4.6-3.5-4.9-2.4-5-1.2-3.1-1.1-1.3-2-1.1-1.5h-1.8l-3.4-.8-3.6-.1-2.6.2-2.4-1.3-2.6-1.8-1.7-.9 1-.7 1.2-3.9 2.9-4.6z"/><path d="m430.6 246.5-4.1-3.3-.7-.7.2-1.2 1.3-1.8.7-2.1-.1-3-.9-2.7-1.6-3.1-2.5-1.8-2.3-.1-.7-1.8-2.3-2.5-1.6-2.1-.3-2.5.4-10.1-3.9-8-.1-2.2 1.1-4.3 3.5-2.9 4.1-2.2 3.7-1 2.4-1.6v-2.8l-1-1.5-.6-.6 5-9.8 4.1-3.2 4-.5 8.1-4.2 1.2 2.2 1.2 5 3.8 4.1 5.5 2.5 5.1 1.2 3 1.1.4.6 3.5 5.7.9 3.4-1.7 4.4-1.6 2.9-1.4 1.7.1 2.4 1.4 4.5-1.1 4-2.6 3.2 1.9 4.1 3.6 4.3 2.6 5.6-.5 2.8-1.7 3-.4 2.5.7 4.4-.3 2.7-3.5-.5h-4.2l-5.5 1-5.7 2.1-3.4 3.3-.2 3.1 2 3.4.2 2-.9-.2-4.6-.1-1.6-.8-1.6-1.9h-.8l-.5.5-.7.3-.6-.2-.2-.9-.4-.8h-.8l-1.5.5-1.3-.8-1.9-2.1z"/><path d="m516.3 51.4 5.4-5.3 2.9-2.2 3.4-.9 25.2-.2.9.5 2.3 6.1 1 1.3 2.8.1 3.6-1.6 6.2-3.8 6.3-1.1 6.9 1.6 13.4 5.5 25.2 8.7.2 2.3-.9 1.4-1.4 1.1-1.2 1.6-.1 2.9 2.8 5.9.7 3.1-6.7 18.8.6 5.2 3 4.9 1.4 1.3-2.2 2.6-2 1-1.8.1-3.1 8.1-2.3 2.4-2 3.3-6.9 8-2.9.8-4.3-1-5.1-.1-4.6.8-3.8-.9-3.9-.4-7.1 3.4-18.6 1.7-6.3.1-1.8-.7-2.7-2.8-1.4-4.3-.9-10.9-1.3-1.2-1.6-1.3-2.3-2.6-2.5-4.6-7.3-7.1-.1-2.4-1-2.9-2.5-4.5-6.3-8.7-3.1-2-4.8-6.4-5.9-4.3-2.1-2.3z"/><path d="m534.2 156-5.3 5-14.1 7.2-12.9 2.9-7.1 3.6-2.4-.4-7.6 3-5.1.1-4.5.7-4.4 1.2-4.1.3-.4-.6-3-1.1-5.1-1.2-5.5-2.5-3.8-4.1-1.2-5-1.2-2.2-8.1 4.2-4 .5-4.1 3.2-5 9.8-3.6-3.4-3.2-3.7-5.6-10.1-.2-4.1.8-4 .1-1.7-6-3.2-8.5-6.2-3.1-1.7-4.5-5.8 4.9-2.2.8-.7.4-1.1 1.8-25 .8-2.7 3-1.4 4.8-.2 8.2.7 7.1-.4 7-1.3 34.6-22.3 4.3-2.1 19.1-4.6 3.8-1.6 3.5-2.2.1-.1 2.1 2.3 5.9 4.3 4.8 6.4 3.1 2 6.3 8.7 2.5 4.5 1 2.9.1 2.4 7.3 7.1 2.5 4.6 2.3 2.6 1.6 1.3 1.3 1.2.9 10.9 1.4 4.3 2.7 2.8 1.8.7.9 1.5.7 3.6-.7 4.5-1.3 4-2.7 2.6-3.2 1.2-1.2.1z"/><path d="m648.5 170.5.9-1.1.6-1.2.3.6 1.6 1.4 3.3 2.2 1.1 1.3 1.1 1.2 1.9.7.7 1-.6 1.9-1 2.1-.4 1.6 1.4 2.5 2.6.9 13.3-.4 1 .2.3.7v.9.6.4l-.4.4.1.7 1.2 1.1 2 .9 1.7.1 3.8-.3 4.6 1.4 5.4 3.2 4.1 4.3.5 4.6 1.9 3.1 3.3 2.4 10.9 5 1.8.6 4.2.5 1.7.5 1.5 1 1.9 2.2-2.7 1.1-1.9-1-1.7-1.4-1.8-.6-.5.6-.5 1.1-1 3.5-.7.2-2.2-.9-5.4-1.3-8-3.2-2.1-.4-1.3 4.1.1 24.8-1.9.7-9.1 5-1.9 1.7-1.9 1.2-2.7-.1-1.9 2.1-2.3 1.9-2.9-.3-2.6-1-3.4 1.2-2.7-.7-2.4 1.5-2.4.6-1.6-.4 1.4-.3.8-1.6-1.1-3-3.9-4-3.5-4.6-2.7-2.8-3-2.7-2.1-2.8-13.1-4.2-4.5-3.9-1.1-3.6-6.2-5.9-3.4-4.6-2.8-6.4-3.3-3.9-1.9-1.4-.1-2.8-.3-3.4-.4-1.8 2.8-2.2 1.6-1.1 1.1-.4 1.2-.4 2.2-1.1 1.5-1.3 1.2-1.4 1.8-1 2.6-.3 2-1.6.5-1.5.7-1.4 1.5-1.9 4.4-1.7 4.6-.2 1.7-1.2 1.2-2.3 1.2-1.6 4.5-.2 2.3-1.1 1.7-1.6z"/><path d="m601.4 197.7-2.9 1.4-4.3.6-3.6-1.6-4.4-1.3-3.4-.1-1.7 2.4-2 3.7-1.7 1.6-1.9-3.6.5-3.1 1.8-2.8.2-2.8-4.3-1.1-6.6-.4-3.9-2-2.7-3.3-2.7-2.3-2.3-3.4-.7-4.7-1.4-3.3-5.8-6.2-2.8-2.1-3.9-1.8-1.7-.6-.8-.6-1.3-1.6-.9-1.8-.4-.9 1.2-.1 3.2-1.2 2.7-2.6 1.3-4 .7-4.5-.7-3.6-.9-1.5 6.3-.1 18.6-1.7 7.1-3.4 3.9.4 3.8.9 4.6-.8 5.1.1 4.3 1 2.9-.8 6.9-8 2-3.3 2.3-2.4 3.1-8.1 1.8-.1 2-1 2.2-2.6 14.4 13 4.2 5.7.3.6-.1.8-1 1.3-.3.9-.5 3.1-.5 1.3-2.4 3.7-.4 1.2.4 1.1 1.3 1.9.6.7.6.5.6.5.4.9-.1.7-.9 1.6.1.9.9 1.1 1.3.6 1 .9.2 1.8.8 1.8 1.7 1.1 1.7.9 1.1 1.2v.9l-.9 1.8.1 1.1.6.7 2.1 1.4.8.9.8 1.9.9 1.1-.6 1.2-.9 1.1-1.7 1.6-2.3 1.1-4.5.2-1.2 1.6-1.2 2.3-1.7 1.2-4.6.2-4.4 1.7-1.5 1.9-.7 1.4-.5 1.5-2 1.6-2.6.3-1.8 1-1.2 1.4-1.5 1.3-2.2 1.1-1.2.4-1.1.4-1.6 1.1-2.8 2.2z"/><path d="m741.1 411.4-7.2-5.8-7.7-5-2.9-4.3.4-8.8-.7-1.6 1.6-1.1 2.2-3.8 1.1-4.4 1.5-3.7 1-5v-5.2l2.6-16.8.1-3.1-2.8-1-3.6-.7-4.3-2.3-2.3-5.3 1.1-4.4.7-4.5-1.9-10.2v-5.5l2-4.5 2.3-4 2.1-9.3.9-2.3.7-3.3-1.1-3.1-.5-2.5.5-1.8 3.6-6.6 23 19.4 2.8 1.6 3.3.9 23 2 1.7-.2 1.7-1.2 1.2-1.7 1.1-2 1.7-2.5.6-1.4.5-.5.8-.1.7.3.8.1 1.1-.7 1.7-1.9.9-.5 9.7.8 4.1 1.1 2.6 3.1.5 2 .4.5 1.1 1.1 1 .9 1.9 1.1.9 1.1.6 1.4.4 1.3.7 6.1.5 1.3.8 1.6.6.8 1.3 1.4.4.8v.4l-.4 1.1v.5l.2 2.2-.7 1.1-1.4.4-6 .5-.5-.1-1.1-.5-.3-.1-.6.3-.7 1-.5.4-5.7 1.2-1.5 1.3-.3 2.9 1.9 3.6 26.7 37.4 5.3 4.4-.9.5-2.7 9.4-1.5 2.7-3.8 4.3-1.1 2.9v1.7 1.2l-.3.9-1.4 1.4-5.4 3-7.3 6-13.6 13.9-2.7 1.4-3.6-.3-4.2-1.7-2.6-1.2-1.2-.2-1 .7-1.7-.5-1.9.3-3.9 1.6-1.9.2-4.5-.3-1.5.5-1.9.9-4.6 1-1.7.9-2 .6-2.1-3.9-1.7.1.1-.6.3-1.5.2-.7-9.4-.7-2-.4-1.6-.9-.6 1.4-1.05.55z"/><path d="m723.7 387.5-.4 8.8 2.9 4.3 7.7 5 7.2 5.8 1.15 1.25-1.25.45-1.3 1-.8 1.2-.1.9.9 2.1-1.6 1-2.2 1-2.1 1.3-.8 2 .6 1.7.9 1.4.2 1.3-1.7 1.5-.7-.8-.7-.3-.7.3-.7.8-.6-1.1-1.2-1.3-1.1-.6-.5 1.3.2.8 1 .9.2 1-.2.8-1.2 2.4-3.3-1.6-1.7-.5h-1.8l-.9.2-.5.3-.6.2h-.8l.1-.5-.8-1.2-.9-.7-1.1 1.6-1 1-.5 1.2 1.9 3.1.4 3.5.5 1.8-1-.4-2-1h-1.1l-.4.6-.7 1.8-.6.4-3.3.8-.5.2.1 1.5.3-.1.7-.6.9.2.1.5-.1 1.2v.5l.3.2 1 .4h.2l.2 1.2v1.2l.1 1.1.7 1.1 1.1 1.2-.1 1.6-.3.5-.8-.7-.7-1-.2-.5-1.1-.4-3.1-.3-.3.1-1.1.5-.7.1-.1-.3-.6-1-.3-.2-.5-.2-.5-.5-.7-.5-2.2-.3-.4-.2-.5.2-.6.9-.6 1.2-.9 1.3-.3.3-.1 1v1.1l.4 1 .8.3.5.6.1 1.2-.2 1.2-.4.5h-1.8l-1.4-.2-3-1.7-22.6.5-6.3 1.2-12.5 4.4 1.2-4.3-1.6-.4.4-.5.1-.4.1-.4.1-.4v-.4l-.2-.2-.2-.1-11.1-2.3.3-.9 3.8-8.1 1.4-1.3 1.3.6 1.2 1.7 1.6 1.9 1.7.5 1-1.4.1-2.8.6-2.7 1.2-1.8 3.8-4.3v-1.1l-.2-1.1.5-1.6-.5-1.8-.9-1.6-1-4.4.6-1.9 2.5-1.7 1.1-2.8-.5-2.1-1.1-3-2.1-3.9-.7-2.4-.4-7.1-.5-2.6.6-7 1.1-1.6 3-2.5 3.5-1.5 9.2-2.3 2.3-2-.5-2.5.8-2.9 2.4-2.6 1.3-1 4.4-2.7 6-4.7 2.3.1 2.1 1 3.3.5 2.8.2 1.2.7 1.3 1.1 2 .3 1.1 1.1.7 1.6 1.2 1.4 1.2.5 3.3.2 1.4-.1.7.9.3 1.8 1.1 1.6 1.5 1.5 1.3.7.8.6v1.6l.4.8 1.2-.5 1 .2.8.5h1l1.6 1.1 1 1.1z"/><path d="m656 260.2-.5.8v1.1l.4 1.7-1 1.3-1.9.5-1.7.9-1.8 1.3-2.1 1.1-2.4-.4-2.7-.2-3-.8-3.2-1.4-2.4-.4-2.2-1.4-2.7-.3-.9 1.1.3 2.2-.6 3.1-2.1 2.5-.8 1.5 2.6 2.6 2.8 5.1 2 16.7 2.8 10.5v2.4l-5.4 4.5-4.2 2.8-10.7.1-7.7 3.9-3.2-.3-2.8.9-2.7 3.5-5.7 5.3-1 1.1-6.7-2.1-3.2-2.2.7-4.2 3-4.1.2-3.5-3.8-2.6-4.1-2.3-1.1-4.2 2.8-8.5 1-4.4v-3.9l-1.3-3.7-.7-1.7-.5-1.4 2.3-8.1-3.9-2.8-4.4-2.5-2.3-1.5-1.7-2.6-1.4-3.5-.6-1.7-1.7-3.4-.7-2.7.6-8.9 2.1-4.8 2.9-3.8.8-2.9-1.2-3.8 1-3.9 2.4-5.1.4-4.1-1.4-2.6-.4-3.4 2.8-3.6 3.6-2.1.8-1.7-.4-.8 1.7-1.6 2-3.7 1.7-2.4 3.4.1 4.4 1.3 3.6 1.6 4.3-.6 2.9-1.4 4.8-1.7.4 1.8.3 3.4.1 2.8 1.9 1.4 3.3 3.9 2.8 6.4 3.4 4.6 6.2 5.9 1.1 3.6 4.5 3.9 13.1 4.2 2.1 2.8 3 2.7 2.7 2.8 3.5 4.6 3.9 4 1.1 3-.8 1.6-1.65.35z"/><path d="m726.2 278.3-2 .2-4.1 1-3.2.5-1.3.5-.3 1.3-.2 1.5-.9.9-.8 1.4-.4 1.9-1.1 1.6-1.5 1-1.5-.2-.8-.2-.6-.1-1.4-.4-1.6-.8-1.8-.1-1.5.4-1.3.4-1.2 1.6-1.2 2.3-1.6 1.9-1.9.6-2.2.2-2.2.4-1.5.7-1 1.1-1.5 3.6-.3 2 .1 1.9-.7.4-.8-.2-.6-.1-.5 1.4-.2 2.3-1.8 2-.7 1.4-1.9.4v1.1l-.7.7-1.2.7-.3 1.3.1 1.3-.8.8-1 .9-.8 1.7-1 .9h-1.4l-1.2.2-.6.9-1.6 1.2-2.3-1.3-4.6-9.6-1.3-1.7-11.6-7.4-2.3.7-7.7 5.1-2 .9-1 .3v-2.4l-2.8-10.5-2-16.7-2.8-5.1-2.6-2.6.8-1.5 2.1-2.5.6-3.1-.3-2.2.9-1.1 2.7.3 2.2 1.4 2.4.4 3.2 1.4 3 .8 2.7.2 2.4.4 2.1-1.1 1.8-1.3 1.7-.9 1.9-.5 1-1.3-.4-1.7v-1.1l.5-.8 1.15-.45 1.85.35 2.4-.6 2.4-1.5 2.7.7 3.4-1.2 2.6 1 2.9.3 2.3-1.9 1.9-2.1 2.7.1 1.9-1.2 1.9-1.7 9.1-5 1.9-.7v1.8l.3 2 .9 1.6 2.9 1.6 7.1.6 3 1.5 19.2 16.1-3.6 6.6z"/><path d="m722 384.8-1.6-1.1h-1l-.8-.5-1-.2-1.2.5-.4-.8v-1.6l-.8-.6-1.3-.7-1.5-1.5-1.1-1.6-.3-1.8-.7-.9-1.4.1-3.3-.2-1.2-.5-1.2-1.4-.7-1.6-1.1-1.1-2-.3-1.3-1.1-1.2-.7-2.8-.2-3.3-.5-2.1-1-2.3-.1-6 4.7-4.4 2.7-1.3 1-2.4 2.6-.8 2.9.5 2.5-2.3 2-9.2 2.3-3.5 1.5-3 2.5-1.1 1.6-8.1-.1-2.2-.4-11-7.6-3-1-6.2.2-3.2-1.5-1.9-1.5-1.7.1-5.4-1-1.6.5-.4 2.7-.9.7-1.5-.1-.8-.2-.2-1.6-.9-4-2.4-4-4.7-1-3.3-2.3-1-3.4-2.2-1-1.3-.3.4-1.8-.4-3 .5-3.7 2.2-4.4 3.1-2 3.2-1 2.9-1.4 2.2-.6-.3-2.7-4.3-4.1-2.3-2.7-3.2-2.4-1.5-1.6 1-1.1 5.7-5.3 2.7-3.5 2.8-.9 3.2.3 7.7-3.9 10.7-.1 4.2-2.8 5.4-4.5 1-.3 2-.9 7.7-5.1 2.3-.7 11.6 7.4 1.3 1.7 4.6 9.6 2.3 1.3 1.6-1.2.6-.9 1.2-.2h1.4l1-.9.8-1.7 1-.9.8-.8-.1-1.3.3-1.3 1.2-.7.7-.7v-1.1l1.9-.4.7-1.4 1.8-2 .2-2.3.5-1.4.6.1.8.2.7-.4-.1-1.9.3-2 1.5-3.6 1-1.1 1.5-.7 2.2-.4 2.2-.2 1.9-.6 1.6-1.9 1.2-2.3 1.2-1.6 1.3-.4 1.5-.4 1.8.1 1.6.8 1.4.4.6.1.8.2 1.5.2 1.5-1 1.1-1.6.4-1.9.8-1.4.9-.9.2-1.5.3-1.3 1.3-.5 3.2-.5 4.1-1 2-.2.7-.2-.5 1.8.5 2.5 1.1 3.1-.7 3.3-.9 2.3-2.1 9.3-2.3 4-2 4.5v5.5l1.9 10.2-.7 4.5-1.1 4.4 2.3 5.3 4.3 2.3 3.6.7 2.8 1-.1 3.1-2.6 16.8v5.2l-1 5-1.5 3.7-1.1 4.4-2.2 3.8-1.6 1.1z"/><path d="m481 327.7 6.7 3.4 2.5-.6.1 1.8.7 1.1.7.4.8.2.6.4.5.9.2.8v2.2l-1.4 1.3-3 .7-2.6 1.1-2 .3h-4.1l-4.3.7-2.8 1.4-1.7.6-2.5-1.8-2 .2-2.6.8-2.1.9-2.1 1.3h-1.8l-1.1-1.4-1.9-5.9-1.7-1.3-1.3.2h-1.1l-1.4-.2-1.9.2-2.4 1-1.5 1.6-1.5 2.5-1.9 1.1-2.4.8-2.6 1.9-2 .8-2.1.6-3.5 3.5h-1.3l-1.7-1.3-2.1-.8h-.8l-3-.4-1.7-1.2-4.9-5.3 1.1-1.9 2.7-2.9 2.3-1.8 1.1-1.3.5-1.7v-2l-.4-1.9-1.8-1.8v-1.9l.3-2-.9-.9.9-.7 4-2 6.2-1.8 2.9-1.2-.3-1.8-3.9-13.4.2-1.6 1.3-.7 2-.7 3-.5h1.5l2.2-1.2.7-2.4.4-2.3.8-2.3.6-1.2 1 .8 1.6 1.9 1.3 2.4.1 2.1-1.1 1.9-.4 2.5.6 2.1 1.7.4 2.7-.9 2.3-1.4 1.4-.8 1.7 2.2 1.3 1.2.4 2-.6 1.5-1.8 2.7-.3.6.5.6 7.6-.5 2-.7 2.2-2.1 1.5-.6 1.3-.3 1.1.4 4.5 1.1 1.3 2.2.8 2.8-.1 2.6-1.8 4.4-.3 1.9.1 1.6 1.3.2 2.9 1.5 2.4 2.9z"/></g><g fill="none"><g stroke="#fefee4" stroke-width="1.5"><g stroke="#fefee4"><path d="m742.25 412.65-1.15-1.25-7.2-5.8-7.7-5-2.9-4.3.4-8.8-.7-1.6"/><path d="m730.5 271.5-3.6 6.6"/><path d="m652.9 391.7 1.1-1.6 3-2.5 3.5-1.5 9.2-2.3 2.3-2-.5-2.5.8-2.9 2.4-2.6 1.3-1 4.4-2.7 6-4.7 2.3.1 2.1 1 3.3.5 2.8.2 1.2.7 1.3 1.1 2 .3 1.1 1.1.7 1.6 1.2 1.4 1.2.5 3.3.2 1.4-.1.7.9.3 1.8 1.1 1.6 1.5 1.5 1.3.7.8.6v1.6l.4.8 1.2-.5 1 .2.8.5h1l1.6 1.1 1 1.1"/><path d="m726.9 278.1-.5 1.8.5 2.5 1.1 3.1-.7 3.3-.9 2.3-2.1 9.3-2.3 4-2 4.5v5.5l1.9 10.2-.7 4.5-1.1 4.4 2.3 5.3 4.3 2.3 3.6.7 2.8 1-.1 3.1-2.6 16.8v5.2l-1 5-1.5 3.7-1.1 4.4-2.2 3.8-1.6 1.1"/><path d="m726.9 278.1-.7.2-2 .2-4.1 1-3.2.5-1.3.5-.3 1.3-.2 1.5-.9.9-.8 1.4-.4 1.9-1.1 1.6-1.5 1-1.5-.2-.8-.2-.6-.1-1.4-.4-1.6-.8-1.8-.1-1.5.4-1.3.4-1.2 1.6-1.2 2.3-1.6 1.9-1.9.6-2.2.2-2.2.4-1.5.7-1 1.1-1.5 3.6-.3 2 .1 1.9-.7.4-.8-.2-.6-.1-.5 1.4-.2 2.3-1.8 2-.7 1.4-1.9.4v1.1l-.7.7-1.2.7-.3 1.3.1 1.3-.8.8-1 .9-.8 1.7-1 .9h-1.4l-1.2.2-.6.9-1.6 1.2-2.3-1.3-4.6-9.6-1.3-1.7-11.6-7.4-2.3.7-7.7 5.1-2 .9-1 .3"/><path d="m657.15 259.75-1.15.45-.5.8v1.1l.4 1.7-1 1.3-1.9.5-1.7.9-1.8 1.3-2.1 1.1-2.4-.4-2.7-.2-3-.8-3.2-1.4-2.4-.4-2.2-1.4-2.7-.3-.9 1.1.3 2.2-.6 3.1-2.1 2.5-.8 1.5 2.6 2.6 2.8 5.1 2 16.7 2.8 10.5v2.4"/><path d="m634.9 311.7-5.4 4.5-4.2 2.8-10.7.1-7.7 3.9-3.2-.3-2.8.9-2.7 3.5-5.7 5.3-1 1.1"/><path d="m620.2 108.6-2.2 2.6-2 1-1.8.1-3.1 8.1-2.3 2.4-2 3.3-6.9 8-2.9.8-4.3-1-5.1-.1-4.6.8-3.8-.9-3.9-.4-7.1 3.4-18.6 1.7-6.3.1"/><path d="m543.3 138.5-1.8-.7-2.7-2.8-1.4-4.3-.9-10.9-1.3-1.2-1.6-1.3-2.3-2.6-2.5-4.6-7.3-7.1-.1-2.4-1-2.9-2.5-4.5-6.3-8.7-3.1-2-4.8-6.4-5.9-4.3-2.1-2.3"/><path d="m543.3 138.5.9 1.5.7 3.6-.7 4.5-1.3 4-2.7 2.6-3.2 1.2-1.2.1"/><path d="m650 168.2-.6 1.2-.9 1.1-1.7 1.6-2.3 1.1-4.5.2-1.2 1.6-1.2 2.3-1.7 1.2-4.6.2-4.4 1.7-1.5 1.9-.7 1.4-.5 1.5-2 1.6-2.6.3-1.8 1-1.2 1.4-1.5 1.3-2.2 1.1-1.2.4-1.1.4-1.6 1.1-2.8 2.2"/><path d="m539.2 160.9-4.9 3.8-1 3.4.5 5.5-1.1 6.7-2 3.4-2.2.8-2.3 1.8-1.2 3.3.1 5.8 2.5 11 1.7 3 1.9 1.7 1.2 7.1 1.5 5.2 1.1 5.6-.6 5.4-2 5.9-.7 6.3.7 6.1-.5 3.8-1.2 1.9-2.8.7-6.8-4.1-1.6.5-.6 1.4.5 2.9 2.2 5.5 3.7 5.9 4.6 5.1 2.5 5.4.3 6.3"/><path d="m449.8 255.6-.2-2-2-3.4.2-3.1 3.4-3.3 5.7-2.1 5.5-1h4.2l3.5.5.3-2.7-.7-4.4.4-2.5 1.7-3 .5-2.8-2.6-5.6-3.6-4.3-1.9-4.1 2.6-3.2 1.1-4-1.4-4.5-.1-2.4 1.4-1.7 1.6-2.9 1.7-4.4-.9-3.4-3.5-5.7"/><path d="m332.3 138.5 5.5 5 3.5 4.8 1 2.6-.1 2.2 1 .8 2.2.7h1.5l1.2-1 1.6-.6 1.7.5 1.5-.3 1-1.6 1.7-1.6 2.4-1.4h3.4l3.3 1.6 4.3 4.4 2.3.7 1.6.8.6 5.4 1.7 2.6 3 .9 1.9 1.8-.7 3.2-.1 3.4 2 4.4.8 1.1 3 8.9 3.3 13.3 2.2.5 3.6-.2 2.9.3 2.4.6 5.3-1.2 3.1-.3 4.3-1.1"/><path d="m340.9 225.1 1-.6 3.8-.8 2.6-.9 2.4-1.2 1.9-1.8.8-.9.8-1 1.8-1.2 3.9-1.3 1.1.9 1.3 1.4 5.3.3 8.8 3.1 2.9.4h2.8l1.8.6 5-2 2.1.6.7 1.3.1 1.7.4 1.9 1.2 2.6-2.7 3.8-1.1 3.2.1.9.5 1.4.2.8-.3.9-.5.3-.7.1-.7.5-.5 2.3-.1.1-.3.3-1.4.6-.4.2-.4 3.2 2 1.6-3.2-.1-4.1-1.8-3.4-.8-9.5 4-3.9 2.3-4.8 5.2-2.8.8-4.7.9-3.5.4-3.7-.6-5.3.2-4.7-.4-2.1-.5"/><path d="m387.1 248.4 2.6 1.4 1.3 2.2 1.2-.3 6 .3 1.3-.9 1.2-1.9 1.3-1.4 1.6.3 1.8.7 2.4-.6 1.7-4.4 1-1.7 2.5-1.5 2.3 1.3 1.8 3.1 5.1-.6 3.6-1.9"/><path d="m516 303.5v1.9l-.9 2.3-2.9 1.4-3.2.4-3.1-2-3.8-4-3.3.1-2.4 3.2-2 .5-2.4.3 1.3.9.7 2.8-1 3.4-2 3.7-.3.1h-.6l-.7.1-.5.4-.1.5.1 1.2v.5l-.5 2.1.1.9.8.4 1 1 .1 2.3-.1 2.3-.1.3"/><path d="m440.4 288.3v-3.1l-.8-1.7-3.3-.8-1.1-.9-.7-1.9-.9-5.8.3-3-.3-2.3-1.7-.8-1.3-.1-1.1-.4-2.7-2.4"/></g><path d="m465.2 399.4 2.9-9.6 8.1-13.2 1.2-2.5 3.5-3.5 6.6-4.5 5.2-1.6 2.9.7 4.1 2.1 6.5 2.1 5-.8" stroke="#c12737"/><path d="m522.3 439-1.5 2-2.7 1-6-2.9-2.5-2.8-1.6-1.1-1.8-2.9-2.1-1.4-1.4-.7v-2.8l-1.1-2.2-3-.6-2.9.9-2.3-1.4-3.5-3.9-2.4-1.6-3.2-.7-1.9-1.3-1.8-3-2-2.7-3.3.1-2.7-.6-1-2.7-1.8-2.6-1.2-.6" stroke="#c12737"/><g stroke="#fefee4"><path d="m605 382.5.1 1-.3 1.6-1.3.5-1.6.1-4.1-.5-1.6.8-3.3 2.8-1.9 4-1.9 1.7-1.4 1.7-2.3 5 .8 2.2 1.7 2.3-.5 1.5-.6 1.4-.1 1.6-.4 3.5-1.2 1.5-.9 1.4.6 1.6-.3 1.6-1.3 1.5.2 2.1 1.2 1.1 1.7.1 1.9.5 1.7-.3 1.7-.8 1.9-.4 2.9-.2 2.7 1.1 1.5 1.6-.1 1.4-1.1 1.5-1 1.1-1.5 1.2-1 1.4-.5 1.5-.7 1.6-1.1 1.2-1.7.5-.9 1v1.4l-1.3 2.8-1 2.8-.2.8"/><path d="m553.6 358.3.1 1v2.6l-.7 2.5 1 3.2 3.1 4.1 4.8 3.5 10.2 2.6 2.6.3 3.4-5.5 9-7.3 1.3-.6"/><path d="m332 396.8 2.2-.3 6.5.1 1.1-2.4v-5.1l1-4.1 1.7-3.6 1.9-3 2.4-2 9.4-5.3 3.6-1.1 3.2-.4 7.1-2.1 2.6-.5 1.3-.8.9 3.4.6 5.3-.5 1.3-.2 1.8 1 2.4.2 2.3-.3 2.2-2.1 1.1-4.2-.1-3.7-.7-1.7.3-1 11.9.1 3.2 1.3 2.8 2.5 2 2.5.9 4.9-.2 2.6.3 2 1.2 1.9 1.6 1.2 1.3v.5l.1 1.3.6 2.9 1.6 2.9 1.9 2.5 2.1 1.8 2 1.2 2.3.9 1.2 1.7.4 1.8 1.7 1 2 .6 1.6.2 1-.7 1.2-2.4 1.4-1.7 3.1-2.6 4.7 1.3.9.9.4 1.7 1 1.3 1.7 1.7 2.6.3 1.8-.8 1.6-1 2.8-2.3 2-2.5 2.7-1.4 1.8-.2h1.5l2.7.6 1.1 1.4.5 1.1 3.2 1.6"/><path d="m395.8 358.9-.2.5-2.1 1.4-3.3 1.8-8.7 3.2-3.9.6-1.6-.2-1.3.8-.3-1.1 1-2.6.6-2.7-3.1-.2-4.3 2.1-3.2.8-2.3-1.3-4.4-4-3.1-.4-2.7-1-1-3.5-.1-2.2.9-.6 2-1.7 2.1-2.6-1.8-2.6-2.6-2.3 1.5-1.8 4-2.3 2.5-3v-6.3l-1.4-11.3-.9-1.1-.5-1.8.9-1.9 3.2-.3 3.4-1.7 2.3-2.6 6.7-4.4 2.3-3.8 1.4-4.3-1.2-1.9-2.3 1.6-1.3 2.1-1.1.4-1.3-2-1.2-2.5-.4-1.3"/><path d="m308.1 351.6-1.2 1-1.9 1.1-3.6.3-3.5-.8-1.2-.7-1-.7-1.3-2-.4-1.8-1.1-.1-2.8 1-3 .5-5.1-2.6-2.9.6-1.7 1.3-.3 5.3 1.3 1.8 2.4 2.1 1.1 2.2 2.1 1.2 3.7.3 1.9 1.7.8 3 .2 1.9-1.7 1.2-2.4.3-6.1-3.2-2.8.8-2 1.5-2.8-.3-1.9-1.8v-2.9l-.8-2.6-5.8-3-1.6.4-.9-.5-2.5-.1-8.3 1.4-.2 1.1.5 2.5-.8 1.7-1.4 1.3-1.9 1.2-2.9.4-1.6.8-1.3 1.3-.9 1.6-.3 2.3-1.5 3 .4 1.2 1.1.9.9 1.7.2 1.4"/><path d="m201.9 363.9.2-1.4.7.1.9.6 1.6-.1-.6-1.6.1-1.9.9-1.5 1.6-.6-.5-1.3-.3-.4-.5-.4 2.1-3.4.4-.3.4.1.3-.1.4-2.2.4-1.1h.8l1.1.8.5-1.4.3-1.9.5-1 1.8-.4 1.6-1.1 1.2-1.5.5-1.5-.6-7.6 1-2.4 3.4-.8 1.5-.9.9-2.1 1.3-4.1 3.5-5.5 1.1-.9 3.8-2.2 1.2-.5.6.1.5.1 1.3 1.6.8.6.8.1.7.2.8.9 1.3-1 .3-.9-.2-2.3.2-1.4.9-2.4.2-1.1"/><path d="m88 531 2.6-2v-2l.5-1.7.9-1.6.3-1.3-.7-3.5.1-1.7-.7-2-1.6-1.9-.4-4.3-2.1-1.1-1.5-1.6 1-2.2 1.2-2.2 1 .6 2.2.3 3-1.1 2.9-.6 1.9-.6 1.6.6 1.3.2 1.1-1.8 1.6-3.1.6-1.9.5-1.9-.2-3.8-.9-3.2.7-2.2.2-2.2-1.7-1.4-1.5.3-1.6-.7-2.6-.6-2.8-1.1-1.1-1.6"/><path d="m257.4 276.8.9-.8 1.3-1.9.7-4.8 1-1.9 2-2 5.6-3 .9-1.4.4-2.2 2.4-2 8.2-1.7 1.6 1 1.4 2.5 1.5 1.8 1.8.3 2.4-.4 2.2-.1 2.4.8 2.1 1.4 1.6-.5 2-2.1 3.2-.1 3.2 2 2.3 1.8 2.6 1.3 3.1.7 3.4.2 2.8-.5 3.1-3.1 2.5-.5 1.5.2 3.5.6"/><path d="m252.6 237.9.5.8v1.5l-.8 7.5 1.5 6.5-1 5.8 1.1 11.1 1.3 3 1.5 2.1.7.6-.3 3.7-1.4.2-1.2.3-.6.7-.3 1.5-.9.2-1.8-.8h-2.8l-.3.4-.1.7-.2.8-1.6.7.1 1 .8.9 1.3.5.5.6-.3 1.4-.6 1.4-.5.8.6 1-.3.7-.6.5-.5.6.1 1.1.2.9-.2.7-.5.7.4.1v.7l-1.2.6-.1 1.1.6 2.8-.3 1.2-1.4 1.5-.4 1.9-3.1-1.1-6.2-3.2-3.9-1.1-7.6-.3-4.9.8-2.4-.3-3-.7-3.6-.2-3.1.7-1.5 1.7-.7 2.4-2.4 3.6-.5 1.9.1.8.1.8-.5 1.1-1.3 1.2-2.3 1.5-3.3 1.1-2.3-.7-4.3-3.2-1.9-2.8-.2-3.9-.9-4.3-1.6-2.4-.3-1.6.5-2 .1-3.8-.3-1.9.9-1.5 1.4-1.1-.2-1.7-2-.9-1.6-1.5-1.5-.9-1.7.1-2.2-1.9.1-.1"/><path d="m230.6 495.3 5.4-1.4 4.2-.6 4 .5 3.1 1.4 1.9 1.2 1.2.4 2.1-.2 4.9-1.8 3 .2 2.2 1 1.9 1.3 3.7 3.3 2-.7 2.7-1.6 2-.7 1.9-.4 3.3-1.3 7-6.1 4.1-2.6 1.8-.6 1.3-.6.4-.5 2.4-.4 2.5.1 1.6 2 .7 1.6 1.1 1h2.2l1.4-.4 1.4-.9"/><path d="m120.6 472.2.5-.5 1.2-2.7 1.4-1.6.7-1.6-.6-2-.3-2.3.7-1.8 2.3-1.1 2.6-.5 1.4-1.3 1.8-1 2.1-.3.6-1.1.3-1.3.1-1.5-.3-1.9-.9-2-1.7-2.1-1.4-2.3-1.2-1.4-6.3-4.4-1.2-.1-.6-.5-.6-1.5-.6-1.7.7-2.3 2.5-4.8.4-2.3.2-2.3 1.2-2.4 1.4-1.2 7-5 1.1.6 1.1 2.4.9.5 1.1.1 1.5-.5 2.1-1.8 1.4-1.9.8-1.5 1-2.5.3-2.9-.3-2-1.3-2.3-1.7-2.1-1.2-2.8-.6-3 .1-1.9.6-2.7-1.3-.9-2.5-.5h-2.8l-1.4-.6.3-1.7.4-1.4 1-1 1.6-.5 1.2-1v-1.2l-.6-1.1-.2-1.8.2-4.5 1.1-5.1-.2-3-1.5-6.1-1.2-1.6-5.1-2.9-1.7-.7-1.5-.3"/><path d="m269.7 441.5 2.2-.8 3-.8 5.5-.9 3.9.5 3.8 1.3.3 2.4-.7 3.3-.9 2.1.2 2.1.8 2.1-.7 2.7-1.3 2.5-.3 2-.4 1.7-.6 1.1-1.4 3.9 1 5-3.2 1.2-.9 2 1.3.9.6 1.1-.8 2.1-.2 2.1 1.2.6 1-1.3 2.9-.3 3.9.2 1.3.3.9 1.1.3 1.4.8 1 1.3.7.2.7"/><path d="m315.9 319.6-.6-1.3-1.8-1.3-2.1-.1-1.7.8-2.3 2-.8.5-1.4.7-.9.6-.5-.2-1.8-1.8-1.1-.5-2-.5-4.1-2.4-1.5-.5-1.1-.1-.7-.3-1.3-1-.1-.3-.3-.8-.2-.3-1.4-.7-4.1-7-.7.7-1-.9-.6-1-.7-.7-1.5-.2-2.4.4-1.2.1-.8-.5.1-.5-.8-4.7.6-9.8-.9-1-3.1.6-2.7.8-1 .9-.7 2.7-.8.6-.9-.1-.8-.7-.5.3-.2.2-.7-.5 1.1-1.5v-1l-2.6-4.6-1-2.5-.3-.7-.7-.4-1.3-.5-.9-.1"/><path d="m204.6 372.3.5-.1-.6 1.8-.8 3 .5 7-3.3 10 .4 3.4.7 3.2 1 3.3 1.7 2.8 1.8 2 2 1.6.9 1.1 1.1 4.9.5 3.9 1.9 1.9 2.2.2-.1 2.9-3.2 13.5.6 3.5 1.7 2.4 2.8-.1 2.9-.6.5.4.7.4 2.7 4.4 2.1 2.7 2.2 2 1.9 1.5 5.9 5.7 1.7 1.2 2.3-.1 1.6-.3"/><path d="m320.56842 544.89144c-.0292.0292-1.09537.14238-2.36935.2516l-2.31632.19858-1.09965-.55288-1.09965-.55289-.0949-.75921-.0949-.7592-1.45421.10585c-1.82433.1328-2.91157.13359-4.41944.004l-1.1871-.10263-.22263.78652c-.12244.4326-.25022.87886-.28395.99171-.0337.11283-.52366.50565-1.08874.87292-.79343.51567-1.1126.82206-1.40132 1.34518-.29681.53776-.53199.758-1.14069 1.06822-.7343.37423-.77052.418-.85486 1.03334-.0484.35342-.0876.74169-.087.86284.00055.12116.51715.79907 1.14793 1.50649l1.14687 1.28623.093 1.24419c.0813 1.0879.0465 1.43321-.27786 2.74877-.20397.82751-.41554 1.55472-.47013 1.61602-.16976.19052-2.46638-1.39289-3.82934-2.64015-1.08255-.99066-2.85273-2.39316-3.51316-2.78344-.0891-.0526-.4457-.0323-.79235.0455-.61372.13753-.64667.12772-1.25312-.37357-.34255-.28315-.9493-.90552-1.34833-1.38305-.6854-.82026-.74933-.96391-1.15663-2.59881-.23712-.95182-.67461-2.50858-.9722-3.45948l-.54108-1.72892-1.2013-.29683-1.20131-.29683-1.6357.7704-1.6357.77039-1.57297-.0922c-.86512-.0508-2.09614-.21368-2.73558-.3621-.91336-.21202-1.42654-.25195-2.39364-.18621-.84619.0575-1.59444.018-2.39364-.12629-.63943-.11549-1.20878-.21005-1.2652-.21015-.0563-.0001-.10258.27425-.10258.60968 0 .4487.17789.98178.67328 2.01748.3703.7742.78577 1.54023.92326 1.70228s.76119.54914 1.38599.86021l1.13601.56556-.0811.64437c-.0446.3544-.11286.90285-.1517 1.21879-.0728.59254-.12102.63212-.94498.77641-.22567.0396-.7633.1406-1.1947.22464l-.78436.15278-.62002 1.13743c-.341.62559-.78412 1.58192-.98469 2.12521-.38235 1.03562-.45733 1.10421-1.49147 1.36461l-.56153.14139-.0872.92332c-.14309 1.51506-.17159 1.44178.86831 2.23235.52659.40034.95746.73557.95746.74493 0 .009-.24623.59314-.54718 1.29726l-.54718 1.28024.83762 1.41526.83763 1.41528.56442-.48232c.31044-.26526.78697-.66567 1.05898-.88977l.49456-.40748 2.24104 1.51803c1.23255.83491 2.25471 1.52942 2.27145 1.54336.094.0782-.71399 1.85657-.71399 1.85657l-.0896.31569"/></g></g><g stroke-linecap="round"><g clip-path="url(#a)" stroke="#808080" stroke-width="2.5"><path d="m308.1 351.6.3 1.2.7.9 1.7 1.1.5 1.1.2.2.4.1 1.3-.1h.3l.5 1.3v1l-.3 1-.2 1.2-.2.7-.9 1.9-.2.9 2 2.5 1.7 1.3 1 1.2-.1 1.4-3.9 4.8-.5.9h-1l-1.2-.4-.8-.1-1.8 1.9.9 1.8 2.5 1.4 2.9.5 6-.1 2.8 1 1.2 2.9-.1.5 5.8 8.8 1.8 2.1.6.3"/><path d="m241.3 381.8 4.2 2.8 3.7 1.8 6.2 1.2 3.2 1.3 1.8.9.4.8-.6 1.3-2.2 5.9.7 1.2 3.3.9 1.3 1.5 1.5 1 2.3.3 1.9.6.6.7-.1 3.7.7 2.4 2.1 2 2.6-.9 2.1-1.7 1.6.8 1.7-.6 2-2.1 2.3-1.3 2.3-.7 2.3-1.3 3.2-2.8 1.2-.6 1.4-.4 2.4.2 2.7 1.5 1.8 1.7 1.9.6 1.9-.4 1.3-.5 1.4.4 1.7 1.1 1.3.4.7-.7.5-1h1.1l1.4.8 2 1.5v1.5l-.1 1-.4.5-1.7 1.6.3.8 1.3 1.6.5 1 .2 1-.2 3.6-.2 1.1-1 1.9-.2 1.1.2 3.4-.2 1.2-1.5 2.3"/><path d="m269.7 441.5-2.1 1-1.8-.3-2 .2-2.2 1.4-3.4.6-2.8-2-1 2-1.9 1.1-1.7.2-1.1.6-2.2 3.6-1.1 1.1-1.9.3-.6.8-.6 1.2-.6.9-.9.6-1.1.5-.4.8.5 1.1.9.9.4.9-.7 2.8"/><path d="m308.1 351.6.2-1.2.9-1.8.2-.6 1-1.6 2.1.5 5.6 3.3 1.1.2.5-1 .2-1 .8-2.5v-.6l-1.3-1.6-1.1-2-.6-2.2-.1-1.6-.7-2.7-1.3-1.6-3.8-3.1-.5-1.8.6-2.4 1.2-2.1 3.1-1.8.1-2-.4-.8"/><path d="m205.1 372.2.5.3 2.5.2.4.9.3 1 1.6 1.2 1.8.9.5.9-.3 1.4.4 1.2 1.2.5 1.7.5 2.2 1 1.9 1.1 1.4 1.1 1.5.8 2.2.4 1.9.1 1.4-.6 1.9-1.3 2.1-1 1.8-.5 6.3-.3 1-.2"/><path d="m553.6 358.3.9-.1 1.9-2 1.5-3.8-.9-9.7.7-1.4-5.4-5.3-.8-2.2-.5-3-2.7-6.9 1-3.9-.6-2.5-1.5-3-3.4-2.8-4.2-2.6-.9-3.1-.1-.6"/><path d="m520.1 373.6-1-.3-1-.7-.7-1-.7-2.6-1-.1-1.3.4-1.5.1-1.7-.8"/><path d="m468.6 404.5-3.4-5.1"/><path d="m493.8 338.3v-2.2l-.2-.8-.5-.9-.6-.4-.8-.2-.7-.4-.7-1.1-.1-1.8"/><path d="m417.9 322.1.9.9-.3 2v1.9l1.8 1.8.4 1.9v2l-.5 1.7-1.1 1.3-2.3 1.8-2.7 2.9-1.1 1.9"/><path d="m490.2 330.5-2.5.6-6.7-3.4-1.4-.2-2.4-2.9-2.9-1.5-1.3-.2-.1-1.6.3-1.9 1.8-4.4.1-2.6-.8-2.8-1.3-2.2-4.5-1.1-1.1-.4-1.3.3-1.5.6-2.2 2.1-2 .7-7.6.5-.5-.6.3-.6 1.8-2.7.6-1.5-.4-2-1.3-1.2-1.7-2.2-1.4.8-2.3 1.4-2.7.9-1.7-.4-.6-2.1.4-2.5 1.1-1.9-.1-2.1-1.3-2.4-1.6-1.9-1-.8"/><path d="m591.5 333.5 1.5 1.6 3.2 2.4 2.3 2.7 4.3 4.1.3 2.7-2.2.6-2.9 1.4-3.2 1-3.1 2-2.2 4.4-.5 3.7.4 3-.4 1.8"/><path d="m579.3 299.8-2.8 8.5 1.1 4.2 4.1 2.3 3.8 2.6-.2 3.5-3 4.1-.7 4.2 3.2 2.2 6.7 2.1"/><path d="m511.2 368.6-.5-.9.2-2.9-.2-1.5-.6-1.2-2.1-2.8-.6-.5-.8-.4-1.2-.9-1.4-1.3-2.8-3.3-.8-2-1.8-1.8-.8-1-.3-.6-.3-1.2-.6-4.6-.5-.5-.9-.8-1-.9-.4-1.2"/><path d="m395.8 358.9 3.8 2.7 3.5 5.1 1.2.1 1.7-1.1 3.6.2 3.7-.1 2.8-2 2.6-.5 2.4 1.2 8.5 9.4 2.1 1.7 2.4 2.5 2.4 2.1 2.5.8 2.4 1.1 1.8 1.5 1.7 1.7 6.8 3.3 1.6 1.4 1.2 2 2.7 3.1 7.6 3.7.4.6"/><path d="m413 342.2-2.4.2-2.8 1.7-1.5 1.6-2.1.9-.6 2.6-1.3 3.4-3.6 2.9-1.5 1.6-1.4 1.8"/><path d="m413 342.2 4.9 5.3 1.7 1.2 3 .4h.8l2.1.8 1.7 1.3h1.3l3.5-3.5 2.1-.6 2-.8 2.6-1.9 2.4-.8 1.9-1.1 1.5-2.5 1.5-1.6 2.4-1 1.9-.2 1.4.2h1.1l1.3-.2 1.7 1.3 1.9 5.9 1.1 1.5 1.8-.1 2.1-1.3 2.1-.9 2.6-.8 2-.2 2.5 1.8 1.7-.6 2.8-1.4 4.3-.7h4.1l2-.3 2.6-1.1 3-.7 1.4-1.3"/><path d="m405.9 287.9.5.5.9 1v2.2l.4 2.1 2.5.9 3.4.9 3.5 1.6 2.3 2.8.9 3.6.7 5.2-1.2 1.6-4 1.8-3 .5-2.3-1.4-2.7-1.2-2.7-.2-3.7.1-2 1.7-1.3 2.3-1.4 3-1 3.9-2.3 3.5-1.2 2.4 1.9 1.9 3.3 1.1 3.3-1.6 4-3 3.6-2.1 3.8-.8 3.9-.3 1.9.2"/><path d="m417.9 322.1.9-.7 4-2 6.2-1.8 2.9-1.2-.3-1.8-3.9-13.4.2-1.6 1.3-.7 2-.7 3-.5h1.5l2.2-1.2.7-2.4.4-2.3.8-2.3.6-1.2"/><path d="m336.3 281.9-2.9 4.4-2.5 2-2.7 1.7-1.5 1.6-1.5 2-.3 3 1.1 3.3 1.2 2.6.8 2.3-4.4 7.9-7.7 6.9"/><path d="m369 290.9-.6-.1-4.7 1.6-1.7.3-2.5.8-3.2.7-1.4-.3-.7-1.6 1.4-2.7 2.5-2.1.8-1.6-2.2-.6-4.4.2-3-.4-.4-2.2 1-2.6 1.4-2.3-.4-2.5-1.9-1.4-1.3-.1-1.2.2-2 1.6-1.4 1.3-2.9 2.3-3.9 2.5"/><path d="m405.9 287.9-1.2.9-1.9-.3-1.5-2.6-2.2-1.1h-4.9l-1.2.9-1.7.7-6.1-.6h-3l-6.3 1.6-3.1 1.1-1.8 1.3-.8.3-1.2.8"/><path d="m426.8 265.1 6.7-2.7 3.8.2 4.1 2.1 2.7.5.6-.4"/><path d="m426.8 265.1-12.9 3.2-8 7.4-2 3.7-.3 3.8 1.4 3.3.9 1.4"/><path d="m336.3 281.9-3.4-3.9-2.9-2.4-1.1-1.1.1-3.2 1.3-6.8.7-2.1"/><path d="m532.7 288 1.2.2 2.6 3 1.9 5.1v7.3l.2 1.8"/><path d="m579.3 299.8-18.2 9.4-4.9.2-16.5-3.9-1.1-.1"/><path d="m577.4 204.4.4.8-.8 1.7-3.6 2.1-2.8 3.6.4 3.4 1.4 2.6-.4 4.1-2.4 5.1-1 3.9 1.2 3.8-.8 2.9-2.9 3.8-2.1 4.8-.6 8.9.7 2.7 1.7 3.4.6 1.7 1.4 3.5 1.7 2.6 2.3 1.5 4.4 2.5 3.9 2.8-2.3 8.1.5 1.4.7 1.7 1.3 3.7v3.9l-1 4.4"/><path d="m532.7 288-2.4-.3-3.8.5-1.5 2.4.5 3.6.1 2.4-3.3 3-3.9 2.6-2.4 1.3"/><path d="m444.7 264.8 1.7.9 2.6 1.8 2.4 1.3 2.6-.2 3.6.1 3.4.8h1.8l1.1 1.5 1.3 2 3.1 1.1 5 1.2 4.9 2.4 4.6 3.5 2.1 3.6-.1 1.1.4.3.7.2.7.6.3 1.3-.6.9-1.1 1.1-.6 1.1 1 1.1 1.2.2.6-.9.2-1.3v-1.1l.4-.6.8-.5 1-.1.9.5.2.5 1.7.1 4.4-.2 4.3 2.3 6.6 8.3 5.1 3.1 3 .7"/><path d="m449.8 255.6-2.9 4.6-1.2 3.9-1 .7"/><path d="m425.8 242.5.7.7 4.1 3.3 1.8 2.6 1.9 2.1 1.3.8 1.5-.5h.8l.4.8.2.9.6.2.7-.3.5-.5h.8l1.6 1.9 1.6.8 4.6.1.9.2"/><path d="m412.2 199.7-.1-2.2 1.1-4.3 3.5-2.9 4.1-2.2 3.7-1 2.4-1.6v-2.8l-1-1.5-.6-.6"/><path d="m332 396.8.3.7.6 2.2.5 6.6 1.4 1.6 2.8 2.1 8.1 5.1 1.8 2v2.2l-1.4 1.6-1.7.9-2.6.4-1.9 2-2.3 1.8-3.6-.1-3-.4-2.6-.7-2.7 1.1-2.4 2.4-1.6 2-1.7 3.9-.4 1"/><path d="m314.1 429.7-1 1.6-.9 2.1 1 1 4.4.1 2 .7"/><path d="m269.7 441.5.4-1 .9-4.9.7-1.7 1.3-2 4.1-5 3.1-2.4 4.1-1.2 2.6 1.1 1.5 1.4 3.2-.5 4.1-1.3 3.8.3 2.6 1.3 4.1.9 3.7 1.3 3.3 1.5.9.4"/><path d="m319.6 435.2.8 1.6.8 6-.1 2 1 .3 1.1-.8 1.3-.6 2.2-3.7 1.9.2 4.7 3.5 1.9 1.8 1.1 2.2-.3 2.2-.6 1.9-.7 1.5-1.3.6h-3.4l-1.4 1-.9 1.6-.4 1.7-.1 1.2-.1 1"/><path d="m227.4 476.6v.9l.9 1.5 1.6 1.6.8 2.2.4 2.1-1.4.8-5.7-.1-2 .4-.9.8-.4.9-.1 1.1.4 1.3 1.2 1.2 1.6.5 3.8.5 1.1.8 1.9 2.2"/><path d="m230.6 495.3.1.7-.2 1.8-.3.9-.2 1.2-.1 8.9.4 2.8-.1 1.7-.4.4-.9.7-1 1.1-.7 2.2-1.1 2.4-2.9 3.7-.4.8-.5.6v1.7l.8 1.5.4 1.4.7 3.5.7 1.8.2 1.7-.7 1.8-3.2 4.4-1.8 4-1.1 1.4-3.3 1.8-4.3 1.3-2.3-.1-3-.7-2.2.1-.8 1.7-1.1 3.2-.3 1.4.9 2.7 5.7 4.7 3 3.1.3 2v1.6l-.1.6"/><path d="m441.2 426.1 2.1-2.7 1.7-.8 1.5.3 2.2-.9 4.3-5 2.7-2 2.3-.9 2.1-1.1 1.6-1.1 1.3-1.3 1.9-2.3 3.7-3.8"/><path d="m441.2 426.1-.1 1.1v4.1l-1 1.6-1 2.7-.6 2.6-1.4 1.9-1.6 2.5.6 2 2.6 1.1 1.9 1.6 1.6 1 1.4.5 1.4.8 4.3 1.7 3.8-.2.5 1 .3 1.6 1.6.9 2-.4 1.1 2v1.4"/><path d="m605 382.5.8.2 1.5.1.9-.7.4-2.7 1.6-.5 5.4 1 1.7-.1 1.9 1.5 3.2 1.5 6.2-.2 3 1 11 7.6 2.2.4 8.1.1"/><path d="m652.9 391.7-.6 7 .5 2.6.4 7.1.7 2.4 2.1 3.9 1.1 3 .5 2.1-1.1 2.8-2.5 1.7-.6 1.9 1 4.4.9 1.6.5 1.8-.5 1.6.2 1.1v1.1l-3.8 4.3-1.2 1.8-.6 2.7-.1 2.8-1 1.4-1.7-.5-1.6-1.9-1.2-1.7-1.3-.6-1.4 1.3-3.8 8.1-.3.9"/><path d="m520.1 373.6 5.1-.4 5.3-1.7 3.9-3.9 1.8-2.8 2-2.8 2.1-2.3 2.9-1.1 5.6-.6 3.9.3h.9"/><path d="m520.1 373.6-5.8 8-2.5 1.5-2.8 3.7-1.4 3.9 5.6 8.6 3.1 2.2 4.7 1.8 4.5 2.5 2.3-1.6.2.1 1.8-.3 7.6 1.8 1.9 1 1 .8 3.5 1.6 1.1 1 1.8 3.1-1.6 3.6.3 2.8-.1 1.9-3-1.1-2.9 1.2-2.9 2.7-3.8 2.3-3.5 3-2.7 1.4-1.2 2.2-.8 3.1-1.5 1.9-.7.7"/><path d="m605 382.5-.2-1.6-.9-4-2.4-4-4.7-1-3.3-2.3-1-3.4-2.2-1-1.3-.3"/><path d="m522.3 439 1.1 2.5 2.2 3.7 1.2 2.5 1.7 1.7 1.8 1.6.6 1.9-.5 1.6-1 1.8.3 3.3"/><path d="m120.6 472.2-.7-.8-1.4-.5-8.6.1-4.4-.8-2 .2-4.4 3.6-5.3 2.1"/><path d="m93.8 476.1-2.6.1-5.2 1.3-1.8.8-2.9.1-1.6-1.5-4.1-4.6-1.3-2.1-1.1-2.7-1.3-2.1-9.8-9-2.9-1.6-8.8-.7h-1"/><path d="m577.4 204.4 1.7-1.6 2-3.7 1.7-2.4 3.4.1 4.4 1.3 3.6 1.6 4.3-.6 2.9-1.4 4.8-1.7"/><path d="m577.4 204.4-1.9-3.6.5-3.1 1.8-2.8.2-2.8-4.3-1.1-6.6-.4-3.9-2-2.7-3.3-2.7-2.3-2.3-3.4-.7-4.7-1.4-3.3-5.8-6.2-2.8-2.1-3.9-1.8-1.7-.6"/><path d="m539.2 160.9-.8-.6-1.3-1.6-.9-1.8-.4-.9"/><path d="m425.8 242.5.2-1.2 1.3-1.8.7-2.1-.1-3-.9-2.7-1.6-3.1-2.5-1.7-2.3-.2-.7-1.8-2.3-2.5-1.6-2.1-.3-2.5.4-10.1-3.9-8"/><path d="m657.4 259.7 1.4-.3.8-1.6-1.1-3-3.9-4-3.5-4.6-2.7-2.8-3-2.7-2.1-2.8-13.1-4.2-4.5-3.9-1.1-3.6-6.2-5.9-3.4-4.6-2.8-6.4-3.3-3.9-1.9-1.4-.1-2.8-.3-3.4-.4-1.8"/><path d="m657.4 259.7 1.6.4 2.4-.6 2.4-1.5 2.7.7 3.4-1.2 2.6 1 2.9.3 2.3-1.9 1.9-2.1 2.7.1 1.9-1.2 1.9-1.7 9.1-5 1.9-.7"/><path d="m535.8 156h-1.6l-5.3 5-14.1 7.2-12.9 2.9-7.1 3.6-2.4-.4-7.6 3-5.1.1-4.5.7-4.4 1.2-4.1.3"/><path d="m425.3 180.6 5-9.8 4.1-3.2 4-.5 8.1-4.2 1.2 2.2 1.2 5 3.8 4.1 5.5 2.5 5.1 1.2 3 1.1.4.6"/><path d="m425.3 180.6-3.6-3.4-3.2-3.7-5.6-10.1-.2-4.1.8-4 .1-1.7-6-3.2-8.5-6.2-3.1-1.7-4.5-5.8"/><path d="m227.4 476.6.4-2.1.7-.8h1.1l1.2.2 1.7-1.3 1.5-.2.6-.9-.4-1.3.3-1.5 1.1-2.5 1-.7.5-.2.6-.1.8-.4 2.9-3"/><path d="m205.1 372.2-.5.1-.4-1 .4-1.7.1-1.4-.7-2.9-.7-.5-.9-.4-.5-.5"/><path d="m227.4 476.6-4.2.1-1.7.7-1.2 1.4-1.2 1.9-3.5 3.5-.2 1.9-.4 1.8-1.4.9-3.3 1.1-1.5.9-1.8.1-2.1-2.2-5.8-1-2.2-.8-1.4-.8-1.3-1.3-2.3-2.6-.9-.5-1.2.1-2.9 1.4-4.2 1.4-2.5 1.2-1 .8-5.4 2.9-1.6.1-.9-1-.6-1.1-.9-.8-5.9-1.8-2.6-.2-1.5-.7-1.2-1.7-2.5-6.5-2.1-2.4-2.5-.9-2.1-.2h-2.4l-2.6.9-2.8 1.8-1.8 1.7-.8 1.1-5.2 3.9-2 .1-2.2-1.2-2.8-1-1.7-.7-1.1-1.8-2.8-3.5-.6-1.4"/><path d="m201.9 363.9-1.5.6-1.5.1-1.3-.8-1.6-.9-2.5-.6-2.2.4-1.3 1-1.6.6-2.5.2-2.6-.1-2.5-.2-1.9.5-2.7 2.5-3.1 6.8-.5 1.6-.8 3.5-1.1 2.2-1.5 2-2.1 1.2-2 .3-3.5-1.5-1.9.6-1.2.8-1.7.7-1.7.5-1.9-.2-1.9-1.9-.4-2.5.5-1.7 2.7-6.5.7-3 .4-3.2v-2.3l.3-2 .8-2.1.5-1.9-.7-1.2-1.9-.2-1.3-.5v-1.9l.5-2.4v-1.9l-.9-1-1.4-.7-1.5-.2-3 2.2-1.8.2-2.1-.1-2.4.5-2.4.3-1.8-.9-.6-.7-.8-.4"/><path d="m331.4 258v1.5l-.2 2.2-.2.7"/><path d="m331.4 258-1-5v-3.9l1.3-2.8 2.2-.5 4.5.7 3.2.2 3.5-.9 2.1-2.4 3.1-5.3 4.4-6 1-2.9-1.9-1.2-3-.6-2.4.6-2.6-.1-2.7-1.4-2.2-1.4"/><path d="m340.9 225.1-.7-2.2-2.6-4.7-.5-4.7v-1.9l-.3-2.3-.8-1-1.9-.9-2.2-.5-1.7-1.4-1-2.2-2.3-1.4-9.4-2.1-3.5-1.7-4.1-4.2-2.1-2.8-.7-1-.2-.3"/></g><g clip-path="url(#a)" stroke="#0978ab" stroke-width=".5"><path d="m884.4 316.3 4.8 4.3 2 1.1 1 1 .8 1.3.6 2.3.8.9 1.1.5 1.2.5 3.3.3.9.3.3.5 1 1.9 4.1 6"/><path d="m650.6-12.1-1.2 6.1-.8 2.2 7.8 2.4 1.2 1.4 10.4 3.6 2.3 1.2 2 1.3 1.1 1.1 1.5 3.1.5 1.7.3 1.6-.3 1.5-.9 1.1-1.1.9-1 1.2-.4.8-.1.9-.2 2.7-.3.7-.7 1.4-.4 1.6-.3 3.5-.5 1.6-1.3 2.6-.9 1.3-1.1.6v2l-.1.5-.7 1.4-.2 2.8-.3.7.9 1.6-.1 4.3.1 1.4.4.8 1.4 1.9.3 1.1.5.7 1.2.8 1.5.3 2.6-1 1.6.3 8.4 4 1.9 2.2.7 3.2.3 3.2.8 3.2 2.7 5.7.1.7.1 2 .2 1.2.5 1 3.3 4.9.8.7 2.5 1.5 1.5 1.2 3.7 4.1 2.9 2.4 1.3 1.4.9 1.5 1.1 2.6 4.1 6.7 17.1 15.7 1.4.9 2 .9 2 .7h1.2l1.9-1 2 .4 1.8 1.3 1.4 1.7 4.6 8.4 1.7 4.5 1.2 4.7.2 2-.2 6.6.3 1 1.5 2.1.3 1.1-.1 2.4.2 1.1.6 1 .8.6 2.3 1 1 .6.4.7.2.9.4.8.7.3 10.5 12.8 1.1 1.7 1.3 1.5 2.5.9h1l2.1-.1 1 .1 1.1.6 2.4 1.7 2.3 1 6 4.3 2.1.6 4.2.6 1.8.9.7 1.1.7 2.1.6 1 1.1.7 3.7 1.4 1.7-.7 2.1 1.1 1.7 2.1 1.3 4.5 1.5 1.4 1.8 1 1.6 1.2.6 1.3.6 1.9.7 1.6 1.2.7 2.2.4 2.3 1.1 6.9 4.7 2.3 2.2 1.4 3.1.9 24.1-.5 5.3.2 2.2.9 4 .2 2.2.9 1.5 3.7 2.7 1.4 3.2 2.4.8.6.9.2 1 .9 2.2.3 1.4.5.7.1.5-.2.7-.9.9-.3.6-.4 1.9v.7l.4.9 3.5 2.1.8.5.6-.1.4.3.1 1.4-.7 1.9-1.3 1.1-1 1.1.4 2.2.7 1 1.9 1.6.7.8 1.3 3.2.8 1 .8-2.1 1.3-2.4 1.6-2.2 1.8-1.6.5.3.4.3.2.3.2.4.4 1.2v2.8l.3 1h4.1l.1.3.5.2h.6l.3-.9.1-.5.3-.8.4-.7.5-.4.9-.3.9.3.7.9.3 1.5v2.6l.4 2.9 1 2.3 2.3 1 2.1.4 3.6 2.2 2.2.9"/><path d="m179.9 96.8 1.9-4.6.6-2.4.2-2.9.9-1.3.1-1.7.3-1.2.6-1.1 1.1-1 1.2-.9 2.6-1.3 1.1-.8.8-1.1.3-1.4v-1.6l-.1-1.4-1-2.7-.1-1.4.7-1.2.6-.4 2-.2 1-.4.5-.2.5-.4.8-.7 3.1-4.1.9-.6 1.1-.3 2.7-.5 1.2-.4 1.1-.7.8-1 .2-.6.2-1.3.2-.6 1.1-1.8.8-1.9.2-1.9-.1-4.1-.5-1-2.3-1.2-.5-.6-.6-1.8-1.5-1.1-1.4-.9-.7-1.1.3-1.1.9-1.1.2-1-.2-1.2-1.2-2.9-.3-2.3.1-4-.2-1.1"/><path d="m-107.8 232.2 6.3-3.4 1.3-.9 1.2-1.4 1.1-1.5.7-1.4.5-1.7.4-.5 3.2-1.6.7-.5 1.8-.9h1.6l3.5 1.1 2.1.4 2-.3 3.9-1.3 7-1.1 4.5-1.5 4.2-.7h5.7l1.1.3 3.7 1.6 4 .8 2.1-.1 2-.5 1.5-.9 2.9-2.3 8-3.7 4.8-3.7 5.5-2.3 1.8-1.1 1.5-1.3 2.2-3.1 1.9-1.9.8-1.2.4-1.3.2-3.7.4-1.8 3.4-6.2 1.1-1.3 2-.9 2 .3 1.9 1.2 2.6 2.3 1.1.6 1.1.4 3.2.6.8-.1.6.2 1.4.5.8.1.6-.1.7-.2 2-1.1 5.1-3.7 3-1.4 1.2-1.2 6.5-7.7 2.4-2 2.8-1.5 4.6-1.2 1.4-.6 1.3-.7 1.1-.8 1.2-1.2 2.9-4.1 1.1-1.1 1.4-.6 1.4-.4 4.4-.1 3.6.4h.9l1.5-.3 3.1-1.1 7.3-1.3.8.1 2.3 1.2h.8l.5-.6.3-.8.3-1.8.9-1.4 2.4-2.4 1-1.3 2-4 1.2-1.3 1.5-.8 14.5-3.6 3.4-1.4 1.7-.5 2.1-.2 1.8.2 1.8-.1 6.8-3.3 1-.3h2.7l1.7-.5 5.8-3 1.8-.5.9-.1.5.1 1 .2.5.1.5-.2 5.9-3 2.4-.6 2 .5.6.6.9 1.4.5.7 1.1.7 1 .3 2.3.2.4-1.6 1.7-4.4 1.3-1.8 4.7-1.6 2.2-2.1 1.1-2.8-.7-2.7 1.3-1.6 1.8-.8 2.3-.3h2.5l2.3-.9 2.2-3.9 3.3-1.6.9-1.7 1.2-4.5"/><path d="m202 22.3-.9-.6-2.7-1.5-3.9-1.5-3.7-1.1-3.2-1.1-3.4-1.8-4.1-1.8-3-2-1.8-3.2-1.4-3.2-1.2-2.3-.8-1-2.3-1.9"/><path d="m176.7 27.2-3.7.5-3.2 1.1-2.3 2.1-.8 3.7-.3 3.2-.8 1.3-1.4.9-2 1.9-.9 1.9-.8 2.4-.8 2.5-1.4 2.3-1.6.8-1.6-.1-1.3.4-.5 2.6-.2 1.6-.7.6-.9-.2-.9-.6-1.8.9-2.8.9-3.2.8-2.5.2-1.6 1.1-1.3 2.5-.1 2.7 2.1 1.7v.7l-.1 1.2-.2 1.1-.2.9-5 2.9-2.2 3.9-.8 5.2-.3 6.7.5-.2.6-.3.5-.2.6-.4v6.8l-2.9 6.2-4 5.9-3.1 5.5-3.4.5-1.8 2.4-1.2 3.3-1.4 3.4-.9 1.1-1.4 1.4-1.5 1.5-1.2 1.7-.6 1.6-.4 1.9-.4 2-.8 1.8"/><path d="m215.6-7.9-1.4 1.7-.9 1.6-1.1 1.7-2.2 1.8-4.3 2.4-2.1 1.4 1.5.9 6.6.9h1.5l1.9-.3 1.8.1 1.4.8 1.3 3.8-1.7 3.6-3 3.4-2.1 2.8-1.4-.5-1.4-.1-1.4-.2-1.4-.3-.3 1.1-.5 1.2-.6 1.2-.2 1-.8-1.5-.9-.6-1.1-.2-1.1-.5"/><path d="m317 458.1-.9 2.4.6 1.9 1.1 1.9.6 1.9-.6 2.3-1.3 1.5-1.6 1.3-1.4 1.5-.7 2.2-1.1 4.7-1.7 2.7-.4 2.4-.5.9-1.1 1.1-.3.6.4 1.5h.1l.5.1.4.2.3.5v.6l-.2.5-.3.4-.6 1.6-1.3 2.5-.3 1 .4 1.9 3 5.4.2 1 .2 2.2.3 1 .4.6 1.4 1.3.3.5.3 2 .8 1.3 3.5 3.1 1.2.6 1.7.3 2.4.1.4.4-.4 1-1 .9-1.1.5-1.3.1-.9.3-.8.7-.7.9-.7 1.5-.5 2.1v2.1l.8 1.7.9.4 1 .1.9.2.3.7.3 1.1.6.3.9-.1 1 .4 1 .6.6.3.3.6.1 1.3-.3 1.4-.8.8-2 1.7-1.3 2.1v2l1 4.6v8.7l.5 2.1 2.3 3.4.6 1.9-.1 2.6-.9 4.6.4 2.6 2.4 3.9.3 1-.7 1-3.4 3.9-1.7 3.4-.4 2.1.7 2.2.8.9.6.1.5-.1.9.5.5.8.1.9.3.9 1.1.9-1.2 1.1-.9 1.5-.5 1.7-.2 1.6.2 1.7.5 1 3.6 3.3 5 6.4.1 1.4-.4 3.3.1.8.5 1.7v2.7l-.5 1.8-1.2.7-1.4.7-1 1.3-.2 2 .8 1.5 1.4 1.1 1.8.4 1.6.8-.2 2-1.2 1.9-3.1 1.7-1.2 1.9-1.7 3.6-2.2 2.2-.4.8-.2 5.1-.4 1.6-.9 1.5.9.5.7.7.8.6 1.3.2 2.6.1 2.5.6 2.6 1.4.6 1.6.1 2.1 1.6 4.8.6.4.6.1.6.3.2.9.1 1.7"/><path d="m112.1 430.2 2.1-1 1.8-1.2 1.6-1.7 1.3-2.3 1.9.3 2-.9 1.6-1.4 1.2-2.4 1.4-1.3 7-4.9 1.1.6 1.1 2.4.9.5 1.1.1 1.1.4 1.1.5 2.1 1.7 1-.3 1-.9 1.1-.8 3.8-1.2 1.7-.7.7-1.2.6-1.8 1.3-1.8 1.6-1.4 1.3-.9 7.2-2.9 1-.1 2.1-.5 1-.1 1.3.2 1.7.9.8.3 1.4.3.7-.2 1.3-.8.2-.2.3-.9.2-.3.4-.3.8-.3.5-.4 1.3-1.5.9-1.6.6-1.8.9-5.2.7-2 2-1.7 2.9-5.4.6-.6 1.2-.4.9-.4.9-.7.4-.4.4-.6.7-.8.7-1.1.9-2.3.5-.8.3-.4.7-1.1.4-.6.7-.3.6.4.5.4.5-.1.4-.7.1-.8.1-.9.1-1.1 1.4-3.2.3-1.1 1.4-1.3.4-1.1.2-1.6.7.1.9.6 1.6-.1-.6-1.6.1-1.9.9-1.5 1.6-.6-.5-1.3-.3-.4-.5-.4 2.1-3.4.4-.3.4.1.3-.1.4-2.2.4-1.1h.8l1.1.8.5-1.4.3-1.9.5-1 1.8-.4 1.6-1.1 1.2-1.5.5-1.5-.6-7.6 1-2.4 3.4-.8 1.5-.9.9-2.1 1.3-4.1 3.5-5.5 1.1-.9 3.8-2.3 1.2-.4h.6l.5.2 1.3 1.6.8.5.8.1.7.3.8.9 1.3-1 .3-.9-.2-2.3.2-1.4.9-2.4.6-3.1 1.4-1.4.3-1.2-.6-2.8.1-1.1 1.2-.6v-.7l-.4-.1.5-.7.2-.7-.2-.9-.1-1.1.5-.6.6-.5.3-.7-.6-1 .5-.8.6-1.4.3-1.4-.5-.6-1.3-.5-.8-.9-.1-1 1.6-.7.2-.8.1-.7.3-.4h2.8l1.8.7.9-.1.3-1.5.6-.7 1.2-.3 1.4-.2.9.1 1.3.5.7.4.3.7 1 2.5 2.6 4.6v1l-1.1 1.5.7.5.2-.2.5-.3.8.7.9.1.8-.6.7-2.7 1-.9 2.7-.8 3.1-.6.9 1-.6 9.8.8 4.7-.1.5.8.5 1.2-.1 2.4-.4 1.5.2.7.7.6 1 1 .9.7-.7 4.1 7 1.4.7.2.3.3.8.1.3 1.3 1 .7.3 1.1.1 1.5.5 4.1 2.4 2 .5 1.1.5 1.8 1.8.5.2.9-.6 1.4-.7.8-.5 2.3-2 1.7-.8 2.1.1 1.8 1.3 1 2.1-.1 2-3.1 1.8-1.2 2.1-.6 2.4.5 1.8 3.8 3 1.3 1.7.7 2.7v-.7l.1 2.3.6 2.2 1.1 2 1.3 1.6v.6l-.8 2.5-.2 1-.5 1-1.1-.2-5.6-3.4-2.1-.4-1 1.6-.2.6-.9 1.8-.2 1.2.3 1.2.7.9 1.7 1.1.5 1 .2.3.4.1 1.3-.2.3.1.5 1.3v1l-.3 1-.2 1.2-.2.7-.9 1.9-.2.9 2 2.5 1.7 1.3 1 1.2-.1 1.4-3.9 4.8-.5.9h-1l-1.2-.4-.8-.1-1.8 1.9.9 1.8 2.5 1.4 2.9.5 6-.1 2.8 1 1.2 2.9-.2 1.3-.9 2.5-.3 1.4.2.3.4.3.3.5-.3 1-.5.6-1.5.9-.7.6-1.3 2.3-1.7 5.5-.4 2 .1 3.3-.1 1-.4.5-1.7 1.6.3.8 1.3 1.6.5 1 .2 1-.2 3.6-.2 1.1-1 1.9-.2 1.1.2 3.4-.2 1.2-2.5 3.9-.9 2.1 1 1 4.4.1 2 .7.8 1.6.8 6-.1 2-.9 2.1-2.6 1.9-.6 2 .4 6.1-.4 1.2"/><path d="m73.7 444.8 3.4.3 3.5 1.2 3.5.5 3.3-2 1.4-3.4.4-.4 1.3-.8.3-.5.4-.9 2.3-3.6 3.9-2.6.8-.2 1.2-.1 1.7-.4 1.5-.7 1.4-.2 1.3 1.3 1.4-1.1 1.6-.3 1.8-.1 2-.6"/><path d="m566.4 495.9-4.9 2.4-2.5.8-3.2.3-1.1-.4-2.8-1.4h-.5l-.3 1.4-1.3 3.6-.5 1-1.2 1-.8-.2-.8-.5-1.3-.3-4.1 2.1-.7-.4-.9-.3-1.8-.1-1.9.2-.9.9-.6 1.6-1.3.1-1.7-.2-1.2 1-.4-1.8.9-1.8.7-2.1-1.6-4 .1-1.5-.2-1.5-1.6-1.3-1.6.4-4.9.5-1 .9-.8 2.1-2.7 2.9.1.9-4.4 5.8-1.8 1.9-2 1.4-1.5.6-.6-.3.3-1 .7-.9.9-.8.8-.4-1-.6-.8.1-.6.3-.6.2-.9-.2-3-1.3-2-.4-1.9-.1-1.9.6-1.7 1.4-.3.8-.9 1.2-.2.7-.4.4-.2.4.1.6.5.5.5.3h.2l-.4 1-.6.9-.4.9.7 1.7 1 4 .2.6.2.7v1l-.3.5-1.4.9-.3.3.2 1.7 1.1.9 1.7.6 1.8 1v.7h-2.1l3.5 4.8.5 2.1-2.6 1.5.5.9.2.3.7-.5h.7l-.3 1.9-1.3.7-1.3.4-1.2 1.8-2.9 1.4-1.3.8 1 1.6 4.7 4 .6.4.7.6.6 1.1.3 1 .4 3.5 1.1 5-.1 1 .5.8-1.1 4.2.2 2h-.7l-1.3.1-.7-.1 1.8 2.5.6 1.4 1.6 1 .8.7 1.2 3.4.2.4.2.3.4.1 1.1-.1.3.3v.6l-.1.7.4 2.6-.7 1.7-2.4 3.3.3.2.3.6.3.7-.1.6-.6.2-.5-.3-.4-.4-.3-.2h-2.3l-1.1.2-1 .5-.3-1.9-.9.4-2.2 2.8-.9-.9-1.9-2.4-1.3-.9-1.8-.3-1.3.4-1.1.5-1.3.2-.1-.4.1-.8-.2-.7-.8-.3-.9.1-.8.1-1.5.6-1.3.8-1.1 1-.9.6-.7-.3h-.7l-1.1 2-1.5 1-2 .4h-1.9l-.7.5-1.5 1.9-.6.4-.7.2-1.1.5-1.2.7-.8.7.6.8.2.7-.2.5-.9.2-.8.4-.2 1v.9l-.4.5v.7l3.5 4.5.6 1.5-.3 1.8-.5 1.8-.2 1.5.5 1.4.6.7.4.9-.1 1.9h-.7l-.8-.7-.2.4.4 1.1.6 1.3 1 1.2 3.5 2.7 5.2 5.9 2 .7-.3 2.3.8 6.4-1.2 2.5 2.1 1.8 5.4 1.9 2 1.9"/><path d="m394.5 185.6h-.2l-2.2 4.4-.3.8-.1 1.4-.4 2.2-.9 1.5-1.2 1.3-1 1.6-.5 1.4-.2 1 .1 1.1.4.7 1.3 1.2.3.5.6 2.1 2.6 3 .9 1.6.1.7-.1 2.5.1.8.2.7.3.5 1.4 5.2.1 1.5-1.1 3-4 5.7-1.1 3.2.1.9.5 1.4.2.8-.3.9-.5.3-.7.1-.7.5-.5 2.3-.1.1-.3.3-1.4.6-.4.2-.4 3.1 2 1.7 2.6 1.4 1.3 2.2 1.2-.3 6 .3 1.3-.9 1.2-1.9 1.3-1.4 1.6.3 1.8.6 4.1-.6 1.7.7h1.2l5.6-1.7 1.8.1 4.8 1.3 5.1-.3 1.7.3 1 .6 1.9 2.1 1.3.8 1.5-.5h.8l.4.8.2.9.6.2.7-.3.5-.5h.8l1.6 1.9 1.6.8 4.6.1 2.8.6 1.1 1.5.6 2 1.3 2.2 1.4-1.1h1.4l1.6.1 1.8-.4.8-.7 1.5-2.4 1.1-1 1.3.9 1.8.1 4.1-.4 1.8.9 4.8 6.1.7.5 1.2.2.7.7.3.7.5 3.2v3.4l.3 1 .8.2.9.1.7.5.5 1.4.9 6.6-.7 2.5-.1 1.1.4.3.7.2.7.6.3 1.3-.6.9-1.1 1.1-.6 1.1 1 1.1 1.2.2.6-.9.2-1.3v-1.1l.4-.6.8-.5 1-.1.9.5.3.7 1.4 5.6.1 1-.3.4-.9 1.1-.3.6.3.1.5.5.4.6.3.5.5 4.2-.6 1.6-2.1.2v.6l3 2.1.7 2.8-1 3.4-2 3.6-.3.2h-.6l-.7.1-.5.4-.1.5.1 1.2v.5l-.5 2.1.1.9.8.4 1 1 .1 2.3-.2 2.6.1 1.8.7 1.1.7.4.8.2.6.4.5.9.2.8v2.2l.4 1.2 1 .9.9.8.5.5.6 4.6.3 1.2.3.5.8 1.1 1.8 1.8.8 2 2.8 3.3 1.4 1.3 1.2.9.8.4.6.5 2.1 2.8.6 1.2.2 1.5-.2 2.9.5.9 1.7.8 1.5-.1 1.3-.4 1 .1.7 2.6.7 1 1 .7 1 .3.4.3-.1 1.5.4.3 1.5.1.5.2.4.3.9 2.5-.1 5.6 1.3 2.4-1.3.6-2.6.3-.9.5.9 1.3 2.1 2.3.4 1 .1.9.5 1.7.1.9-2.2 2.3-.5.8 1.4 1.7 2.3 1.9 2.4 1.3 1.8-.3 7.6 1.8 1.9 1 1 .8 3.5 1.6 1.1 1 2.3 3.9.2.6.2 1.6.4.6.5.3 1.6.2.5.2.7 1.1.5 1.5-.3 1.1-1.5-.2-1.4 1.4-.6-.8-.2 2.7 2.1 3.8 4.8 6.2 1.8 4.8.7.8 1.4.4 1.7 1 1.5 1.2.5.9 1 .7.1 1.3-.4 3.2 1 2.9.3 1.6-1 .8-1 .6-.3 1.4.3 2.9-.2.8-.3.6-.2.5.3.5.9.9.3.7-.1.5v.3 1.3l-.6 2.6-.1 1.4-.1.3-.3.1-.3.1-.4.2-.1.5.4.7v.5.8l.1 3.3.1.7.4.6 2.3 2.5 1 .5h1.7l-1.2 1.9-.5 1.3-.6.2-.6-.1-.5.2-.6 1.5.1 1.2 1 4.8 2 2.8.2 2.3"/><path d="m391.7 152-.1 1.1-.6 2v1l.2 1.1.9 2.2.2 1.3v4.2l.1.6.3.3.2.2.1.3v1.9l.7 6.5-.1 3.5-.5 2.2-.1 1.3.3 1.1.9 1.5.3 1.3"/><path d="m502.6 697.6-1.1-1.8-1.4-2.9-.3-4.5-1.1-2.4-2-1.8-2.1-1.1-2.4-1-1.9-1.8-1.1-1.8-3.6-5.1-1.3-2.3-.4-2.8.8-2.3 1.5-2.1.6-1.3 1-4.7-.4-2.8-1.6-2.9-1-1.1"/><path d="m45.6 233.8 3-1.8 1.1-.3 1.3.1 2.1 1 1.1.3 2.6-.7 1.5-1.5 1-1.8 1.4-1.6 3.6-1.1 8.4.7 3.7-.3 2.1-1 2.1-1.4 3.7-3.5 1.6-.6 6.3-.5.4-.4 1.2-1.3.5-.4 1.3-.3 3.1.3 6.7-.1 1.9-.5 1-.7 1.5-1.6.9-.5 1.1-.1 2.5.1.9-.4 3.6-3.9.8-1.4.9-3.4.8-1.5 2.9-1.3 1.9-1.5 3.1-3.4 1.8-3.9 1.1-1.8 1.5-.7 2.4-.1 1.9-.3 1.7-.7 1.3-1 1.7-2.8 1.2-1.5 1.5-.6.5-1.2 2.3-9.4-.4-6.1.6-2.6h1.3l1.8.6 1.8-.9.7-2.1v-2l.6-1.6 2.5-.6 8.6-.7 4.3-1 3-1.7 1.5-2.5v-3.7l-.4-1.5v-.9l.4-1.2.9-1 2.2-2.1.8-1.4 1.9-.5.4-.9.2-1.4.3-.7.4-.5 2.6-4.6.6-2.6-.7-2.5-.4.4-.4.2-.3.2-.3.6h-.6l-.8-1.5-2.2-3.3-.5-1.8-1-.8-2.1-.4-1.6-1.2.6-2.9.4-.1 1.3.2.4-.1.1-.4-.1-1.1v-.5l.8-2.3.6-.9 1-.3.8-.9-.3-4.2.5-2-.5-.6-.1-.6-.4-1.7"/><path d="m-51.8 288.3 3.9-5.1.3-.2 1 .2 5-.7 1.6-.5 3.4-3.6 1-.6 2.4-.6 1.8-1.5.9-2.1v-2.1l-.8-1.6-2.7-3.8-.6-1.9 1.4-8 1.1-1.4 1.8-1.4 2.3-1 7.4-1.4.8-.4.5-.5.5-.3 1.3-.2 3.5.2h1.7l.4-.2.6-.9.4-.2.3-.5 2.8-2.4 2.8-1.5 1.4-1 1.5-3.6 2.3-2.2 2.7-1.8 2.2-1 5.1-1.2 2.5.1 2.1 1.1 2.1-.8 2.3.6 2.4 1 2.4.6 5.2-.4 2.4-.7 1-1.4.7-2.1h1.7l3.1 1.8 1.5.3 4.1.6 1.9.5"/><path d="m23 586.8 1.3-1.9 1.5-1.7.5.1.7.2.6-.3.2-1.4.6.6.9 1.8.2.4 1 .1.8.3.4.5.2.9.4.7.9-.8.7-1.1.1-.6 1 .1.7.5.6.3 1.1-.1 1 1.5.3.6.7-.7 1.3.8 2 .2.8 1 2-.8 5.4-.9 1.6-1.1h.6l.2.6.4 1.7.2.5v.3l-.1.8.1.3.2.1.8-.2.3.1 3.4 2.9 1 .4 2.2.4 1 .5.1.4.3 1.4.2.4.6.5.4.2.3.4.1.9h.6l.9-.6.5.7.8 2.7.9.9 1.1.8.5.9-.6 1.6.4 1.3-.1 1.9-.6 1.8-1 1.4-.5-.5-1.5-1v2l.9.4 1.3-.3h1.1l.6.7-.4.7-.8.6-.7.8v.2l-.3 1.8-.3.8-2.7 3.7v.8l1.3.4v.7l-3.4 4.1-1.5 2.7-.6 2.7-.3 3.2-.9 3.1-1.9 1.8-3.1-.2 1.4 1.5.6 1.6v1.7l-1.3 4.5-1 2.3-1.5 1.4-2.3-.4-.1 2.7 6 4 1.6 3.1-.9-.4-1-.2-1-.1h-1.1v.7l.6.3 1.4 1.1-2.4 1.6.5 3.9-2.6.8-.6.5 1 1.1 1.5 1.1.6.2.2 1.2-.8 1.1-1.3.4-1.6-.7-.4.3-.1.3-.2.8 1.8.8 2.4.7 1.4 1.3"/><path d="m-10.5 618.5.3-1.3 1.4-2.5.3-1-.4-2.6v-1.2l.4-1.5 2.8-4 1.9-2.1 1.1-.9.3-.4.4-1 .7-.9 1.4-.5 2.7-.1 1.2-.4 1.1-.9 1.3 1.2 1.7-.7 3.3-2.6 4-1.9 6.3-4.8 1.3-1.6"/><path d="m63.4 530.8.5-.3.3-.6.4-.4.5.3.5.3.5.1 1.1-.1 1.2-.3.6-.6.5-.7.8-.5 1.7.1 4.6.7 1.6-.5 4.9 3 .9-.1.7-1.4 1.7.1 1.6 1.1.8 1.6v5.6l-.3.5-.4.6.1.5 1.3.1.7-.3.5-.5.5-.6.3-.7.3 2.1-.9 1.8v1.1l2.6-.1-.6 1.9.6 1 2.5 1.7.2.8-2.4.8-.9.8.9.1.6.2.6.2.7.2-1.4.7.8 1.2 1.1.1 1.2-.5 1-.8.5 1.8 1.1 1 1.3.6 1.2.8 1.1 1.6.7 1.8-.4 1.4-2.1.1.4 1 1.2 1.5 1.1 2.4.1.6-1.4 4.2.1 1.2 3 2.7.8.3.6-.6.5-.9.8-.5 1.1.2.5.5.3.5.9.2 2.3.2 2 .6 1.4 1.3.7 2.1 1.9-.7.8 1.6.5 2.3.9 1.7-1.6.6-.8.1-1-.1v.8l.9.8.2.4.3.8 1.3-.4 1.3 2.2 1.6-.3-.6-.5-.2-.5.4-.4 1-.1 1 .2.5.3.3.6.6.7 1.2 1 .3.7.2 1.1.2.8.5.4 1.4.6.5.5v.4.1l.8-.3.9-.6.6-.7.4-.6-.1-.2h1.4l1.3-.2 1.1-.6 1.3-1.4 1.2 1 1.4 2.1 1.2.5 1.4-.5.4-1v-1.4l.5-1.4.3-.7.1-.4.3-.2h1.9l.7.2.6.3.3.5-.2 1.8-1 2.6-.2 1.9 1.4 2.1 3.2.3 3.6-.2 2.4.6.9 1.5.9 3.4.6 1.1 1.4.6.4-.9-.1-1.7.3-1.6 1.6.4 4 1.7 4.4 6 .8.6.7.4.6.7.3 1.1v1.1l.1.8.3.7.6.9 2.8 2.6.7 1.4.5 3.3 1 1.7.2.7-.1.8-.5 1.1-.2 1-.1.3-.2.6-.2.7-.1.8.3.9.4.5.4.3.3.4.3 1.7-.4 1.1-.4 1.1-.3 1.7.2.7.4.9.5.8.3.4 1.2.5.2-.4.1-.7.6-.8 1.9-1 1.5-.4 1-.1h.7l.6-.1.5-.5 2.8 2.4 2.6 1.8 4.1.9 2.1 1 1.1.2.7.5.4 1 .2 1.2.4.8.7.2 3-.2 1.6.6-1.2 3.4 1.4 1.6-.4.2h-.1l-.1.1-.2.3 2.1-.2 1.6-.7 1.2.1.7 1.5v2.6l-.8.2-1.1-1.2-.9-1.6-1 2.4-.3 2.3.7 1.6 3.6.9 1.6.6 1.5.9.8 1.1-.3 1.4-1 .5h-1.5l-1.3.2-2.5 1.1-2.1 1.3-.8 1.8 1.6 2.5 1.6 1.4 3 3.6 1.9 1.6v.7l-.9.1-.3.3-.3.4-.5.6.4.2v.1l.2.4 1.2-.1 1.4.7 1.1 1.2.5 1.4-.2 2.2-.7.4-1-.5-1.2-.3-.6.6-2.6 4.2-1.9 1.5-.3.9 1.6.4-.8.9-1.4.4h-3l-1.7.6-1 1.4-1 3.7"/><path d="m53.9 495.2-1 1-.7 1.6-.1 1.6.7.7.3.9-1.3 5.4-2.4 3.7-.4.8-.8 5.2-.5 1.5 1.7 1 1.8 2.3 1.2 2.6.1 1.7 1.4.6.7.1h1l.6.4.4.8.3.9.3.7 1.1.9 1.4.7 1.7.4 2 .1"/><path d="m59.3 490.3-1.4 2.2-.7.6-1.1.5-.9.3-.8.4-.5.9"/><path d="m822 660.9.4 1.5.4.6v.6l-.8 1.4-.5.3h-.6l-.6.2-.3.6v1"/><path d="m842.9 576.7-.4 1 .2 1 .4 1.1.2 1-.4 1.1-1.7 1.7-.7 1-1.2 6.2-1.2.9-.7.8-8.3 29.9-.9 8.8-.2.7-1 2-.4 2.8-.5 1-.6.9-.7 1.3 1.3.4 2.5-1.1 1.6.7-.7.7-.8.5-.9.2-1-.1.9 2-.8 3.8 1.3 1.9-1.1 1.3-.4 1.7.2 1.8.6 1.6 2.2-.9.4 1.6-1.1 1.9-1.9-.2-1.4-.4-1.8.8-1.4 1.6-.5 1.9"/><path d="m856.6 549.7h-2.3l-1.4.2-1 .8-2.9 5.4-.7 2.1-.2 2.3-.5 2.1-3 5.9-.2 2v2l-.2 2.1-1.3 2.1"/><path d="m622.6 618.9-1.3 1.4-1 2.4-.1 2.2 1.4 1 2.1.9 1.6 2.2.5 2.6-1.1 2-4.8.1-2.4.4-.1 1.2 1 1.7.7 2.2.5 2.2.2 1.9-.1 1-.9 2.2-.3 1.1v1.2l.5 2.1.2 1.2 1 1.5 2.4.5h2.7l2.2.4 1.5 1.4-1.1.6-6.6.4-1.7.8-.4 1 1.4 1.4 2.1.7 2.5.1 2.5-.5 1.7-1 1.1 1.5-.2 1.4-1.2.6-1.6-.7-1.2 1.5-.3 1.3-3 1.4-1.3.5-.3 1-.1 1.3-1.6 3.8.8 2.6 2.8 4.8-3.9.1-1.5 1.5.4 6.5"/><path d="m775.4 449-.6-.8-.5-.8-.2-.8v-.9l1.1-4.1.5-1.2.9-.9 1.6-.9 2.8-1.2 1.1-.7.8-1.5v-.8l-.4-.5-.1-.7.9-1.3.7-.6 1.7-1.1 1-1.1.2-.9.2-2.2 3-7.8.4-3.4-2.6-1.2-1.2-.2-1 .7-1.7-.6-1.9.4-3.9 1.6-1.9.2-4.5-.3-1.5.4-1.9 1-4.6 1-1.7.9-2 .6-2.1-3.9-1.7.1.1-.6.3-1.5.2-.7-9.4-.7-2-.4-1.6-.9-.6 1.4-1 .6-1.3.4-1.3 1-.8 1.2-.1.8.9 2.2-1.6 1-2.2 1-2.1 1.3-.8 2 .6 1.7.9 1.4.2 1.3-1.7 1.5-.7-.8-.7-.3-.7.3-.7.8-.6-1.1-1.2-1.3-1.1-.6-.5 1.2.2.9 1 .9.2 1-.2.8-1.2 2.4-3.3-1.6-1.7-.5-1.8-.1-.9.2-.5.4-.6.2h-.8l.1-.5-.8-1.2-.9-.7-1.1 1.6-1 1-.5 1.2 1.9 3.1.4 3.5.5 1.8-1-.4-2-1h-1.1l-.4.5-.7 1.9-.6.4-3.3.8-.5.2.1 1.5.3-.1.7-.6.9.2.1.5-.1 1.2v.5l.3.2 1 .4h.2l.2 1.2v1.2l.1 1.1.7 1.1 1.1 1.2-.1 1.6-.3.5-.8-.7-.7-1-.2-.5-1.1-.4-3.1-.3-.3.1-1.1.5-.7.1-.1-.3-.6-1-.3-.2-.5-.2-.5-.5-.7-.5-2.2-.3-.4-.2-.5.2-.6.9-.6 1.2-.9 1.3-.3.3-.1 1v1.1l.4 1 .8.3.5.6.1 1.2-.2 1.2-.4.5h-1.8l-1.3-.6-1.5 1.4.4 1.4 1.1 1.2.6.9-.7 1.9-1.5.9-1.6-.2-1-1.2-.6-.7-.5-1.6-.5-.9-1-.5-.7.6-.8 1.7-1.3 1.3-.5.9.2.9.9.7.7.3.5.6.2 1.5-.2 1.8-1 1.5-5.6 4.5-1.5.8-1.2-.2-1.6 2.1.1 3.2 1 3.6 1.2 3-2.2 1.3-2 1.5-.3-.3-.7-.7-.3-.4-1.1 1.3-.7.6-.6.2-.3.4-1 1.8-.4.6.5 1 .2 1.1v2.4l-.4.8-.9.4-2.2.6-1.6-.9-1.6-.1-1.4-.2-.9-1.6-2.3 1.8-.3 3-.5 2.3-3-.1v2.8l-1.9 2.8-1 2.9 2.9 3.4 3 1 .2.6-1.9 1.2-3-.3h-1.9l-1.3 1 .1 1.3 2.6 1.5.8 1.3-.6 1.5-1.3.5-1.6-.2-1.3-.4-2.3-1.1-1.1-.1-1.4.5-.4.4-.7 1.2-.3.5-3.2 2.4-.5 1.6-.3 1.7-.7 1.3.1 3.5-.5 7.2 1 2.6 1.2.9 1.2.2.8.7.3 2.1-.5 2-1.1.3-1.5-.3-1.8.3.6 1v.7l-.4.6-.2 1 .2.7 1.2 2.4.7 2-.1.8-.7.6-1.3 1.4-.8 1.6-.2 1.4.5 4.1-.1 1.2-2.1 7.9.1 1.9.6 1.1.7.8.6 1 .5 1.5.2 1.9-.3 1.7-1 1.3-1.8.2-1.7-.9-2.6-2.8-1.5 2.9.1 2.9 1.6 2.2 3.1.3 4.1-1 2 .3.8 2.2-.7 1.4-1.6.4-1.8-.3-1.4-.9-1.8 1.2-2.4.1-5-.5-.3.6-.4 2.9v.6l.2.3.8.7.9.7 1.1.4 2.5-.5 1.5.1.8 1.1-.4 1.1-1.2.9-1.6.6-4.2.8v1.5l.7 1.6-.8 1.2"/><path d="m746.6 493.8 2.3-1.4 2.2-2.1 5.7-7.8.6-1.6.2-2.1-.3-2-.5-1v-1.1l1.5-1.9 1.2-1 1.8-1.1 1.9-1 1.6-.4.5-.3.3-.9.3-3 .3-.5.5-.3.5-.6.5-.3 1.2-.7.4-.4.3-.9.3-2.1.4-.8 1-1.2 2.8-4-.5-1.2.5-.8.9-.9.4-1.4"/></g></g></g><g clip-path="url(#a)" fill="#c8ebff" stroke="#0978ab"><path d="m484.8 669.6.8 1.8c58.32243 59.77854 24.10849 32.00838-3.7-1l-.4-2.6m0 0 .1-2.8.5-2.8 1.4 3.5 2.4-5.3.3-2-.2-2.3-.9-3.1-.3-1.9 2.4 1.2 1.8 2.3 1.1 3 .2 3.3-1 2.2-3.7 3.7-.8 2.8"/><path d="m200.5 18.4.6 1.2 1 2.7-1.1-.1-2-.4h-1.1l-.3.1-.4.3-.3.1h-.3l-.5-.3-.2.1-.3.2-.2.5-.3.9-.9.2-1.3-.6-1.2-1.1-.6-1-.6-.2-1.8-.7-.9-.2-1.1-.1-1.1.1-.7.6-.2.4.2.3.2.2.2.5v.4l-.1.3-.5.6-.2.2-.3.2-.3.2-.1.3.1.4.4.5.1.3-.3.9-.6.3-.8.2-.6.5v.7l.2.9-.1.8-.7.5-.6-.2-1.4-1.2-.6-.4-.4-.1h-.4l-.3-.1-.3-.3-.1-.4v-.4l.9-2.9.1-.8-2.9.6-1.1-.1.4-1.1.9-.9 1.2-.7 4.6-2.3 1-.7.1-.7-.3-.3-1.2-.5-.5-.2-.3-.4-1.4-1.7-.5-.5-.7-.2h-.8l-.8.3-1.4.8-.8.2-1-.1-.2-.5.7-1.3.3-.8.2-.7-.1-.8-.3-1.6-.2-2.9-.4-1.4-.9-2-1.7-2.4-.7-1.3 1.4.3 1.1.6 3.3 2.6.4.5.3.7.1.6-.1 1.5.2.6.4.6.6.2h.6l.7.3.4.5.7 1.3.5.6 3.2 1.6 1.3.9.8.3.8.2.5-.2.3-.5.4-1.7.4-.4.5-.1.8.6 1.7 2.6 1 1.1 1.8.7 1 1 4.7 1.2z"/></g><g clip-path="url(#a)" fill="none" stroke="#646464" stroke-width="4"><path d="m877 666.4.2-6.5-.3-2.7 7.7.6 1.4-.2.9-.7.9-.9 1-.7 1.1-.2 3.1-.1 1.1.1 1.1.6.9.6 1 .5h3.53397"/><path d="m839 367.6-.2-1.1-1.1-1.8-.2-1.1.6-1.3.8-.2 1 .1.8-.2.7-.8.8-1.5.7-.7 1-.1 1 .4.8-.2v-1.7l-.2-1.3-.6-.5-1-.2-1-.5-1.1-.8-.7-.9-.5-1-3.4-9.5-1-5.7-.1-2.3.9-1.8 2.4-1.1 1.4-.2 2.3.1 1.3-.1.2-.3.8-1.1.6-.4.7.2.6.6.5.1.5-1 .5-1.3.7-.3.9.2h1.2l.3.2.2.6.3.4h.7l.6-.4.9-.8.5-.3 3.5-1 .4.1.9.5h.5l.6-.3 1.2-.8.7-.2 3.5 1 .9-.6 1.4-2.2.3-.8.2-.8.3-.7.5-.6 1.1-.4 1.1.7 1-.3.9-.7 1.6-1.9 1.2-.8.9-.2 2 .1 1.1-.2 2.3-.1 1.2-1.5 4.8 4.3 2.1 1.1 1 1.1.7 1.2.7 2.3.8.9 1.1.5 1.2.5 3.3.4.8.2.4.5 1 1.9"/><path d="m838.1 368-2.7 9.4-1.4 2.7-3.8 4.3-1.1 2.9-.1 1.8.1 1.1-.4.9-1.3 1.4-5.4 3-7.3 6-13.6 14-2.8 1.3-3.5-.3-4.2-1.7-2.6-1.2-1.2-.2-1 .7-1.7-.5-1.9.4-4 1.5-1.9.2-4.4-.3-1.6.5-1.9.9-4.6 1-1.7.9-1.9.7-2.1-4-1.8.1.2-.6.2-1.5.2-.6-9.4-.8-1.9-.4-1.6-.9-.6 1.4-1 .6-1.3.4-1.3 1-.8 1.2-.1.9.9 2.1-1.6 1.1-2.3 1-2 1.3-.9 1.9.6 1.7 1 1.4.2 1.3-1.8 1.5-.7-.8-.7-.3-.7.3-.7.8-.6-1.1-1.2-1.3-1.1-.6-.5 1.3.3.8.9 1 .3 1-.2.7-1.3 2.4-3.3-1.6-1.6-.4-1.9-.1-.9.2-.5.3-.5.2h-.9l.1-.5-.7-1.2-1-.7-1 1.6-1 1-.5 1.2 1.8 3.1.4 3.5.5 1.8-1-.4-2-.9-1.1-.1-.4.6-.7 1.8-.6.4-3.3.8-.5.2.1 1.5.4-.1.6-.6 1 .3.1.4-.2 1.2.1.5.3.2.9.4h.2l.2 1.3v1.1l.2 1.1.6 1.1 1.2 1.2-.2 1.6-.3.5-.7-.7-.7-1-.3-.5-1-.4-3.1-.3-.4.1-1.1.5-.6.1-.2-.3-.5-1-.3-.2-.5-.2-.5-.5-.7-.5-2.2-.3-.5-.2-.4.2-.7.9-.6 1.2-.8 1.3-.4.3-.1 1 .1 1.1.3 1 .8.4.6.5.1 1.2-.2 1.2-.5.5h-1.8l-1.3-.2-3.1-1.7"/><path d="m649.3 671.6-4.8-8.2-1.4-3.2 1.1-3.1 1.6-3.2.6-3.3v-1.6l.6-1 2.3-2 1.2-2.1-.1-1.6-1.2-3.7.1-2 .8-1 1.1-.6 1-1.1.5-1.3.1-2.9 1-5.2-.7-2.4-1.8-1.6-2.9-1-.1-.1v-.1-.1l.6-1.2.3-1-.2-1-.6-.9-5.4-2-1.8-.3-4.1.2-2.2.4-1.5.7-.5.8-.3 2.1-.4.8-.8.7-4.6 1.6-1.8.4-1.9-.2-.4-1.4.8-1.2-.7-1.6v-1.4l4.2-.9 1.5-.6 1.3-.9.4-1.1-.9-1.1h-1.4l-2.5.4-1.1-.4-1-.7-.7-.7-.3-.2v-.7l.5-2.9.2-.6 5.1.5 2.4-.1 1.7-1.2 1.4.9 1.9.3 1.6-.4.7-1.4-.9-2.1-2-.4-4 1-3.1-.3-1.6-2.1-.1-3 1.4-2.9 2.7 2.8 1.7.9 1.8-.2 1-1.2.3-1.8-.2-1.9-.5-1.5-.7-1-.7-.8-.5-1.1-.2-1.9 2.2-7.9v-1.2l-.4-4.1.2-1.4.8-1.5 1.3-1.4.7-.7v-.8l-.7-2-1.2-2.4-.1-.7.2-1 .3-.6.1-.6-.6-1 1.7-.4 1.6.3 1.1-.3.4-2-.3-2.1-.8-.7-1.1-.2-1.3-.8-.9-2.7.5-7.2-.2-3.4.7-1.4.3-1.7.5-1.5 2.5-1.9-2.1-1.7-.9-.5-4.4.8h-1.4l.9-2.1-1.1-1.6-1.7-1.5-1.1-1.9.1-.9.4-1-.1-1.2-1-1-1-.2-.9.3-.9.4-1.2.3-.9-.1-2.7-1-.3.2-.2.7-.4.6-.8.1-.3-.4-5.1-9.5-1.6-1.7-5.3-3.4-.8-1-1.2-2.3-.8-.9-.9-.6-3.1-1-.9-.6-.6-.7-.7-.4-2.3-.3-1.2-.3-1.1-.6-.9-.7-1-2.1v-2.2l1-4 .5-4.2.8-1.8 1.4-1.8 2-1.4.9-.8.2-1.1-.5-2-.1-1 2.2-10.3.4-.9.8-.9.9-.5.7-.7.3-1.3.2-3.6-.3-3.2-1.5-2.4-3.3-1.3-1.9.1-3.4.9-1.8.2-1.9-.5-2-1.1-1.7-1.6-.7-1.7"/><path d="m331.1 613.2 1.3 1.7.1 1.4-.4 3.3.2.8.5 1.7v2.7l-.6 1.8-1.1.7-1.4.7-1 1.3-.2 2 .8 1.5 1.4 1.1 1.7.4 1.6.9-.1 1.9-1.2 1.9-3.2 1.7-1.1 1.9-1.8 3.6-2.1 2.2-.4.8-.2 5.2-.4 1.6-1 1.4 1 .6.6.6.8.6 1.4.2 2.6.1 2.5.6 2.5 1.4.7 1.6.1 2.1 1.5 4.8.6.4.7.1.6.3.2.9.1 1.7"/><path d="m331.1 613.2-3.1 3-2.5 5.2-1.9 1.6-2.4-.2-2.2-1.7-10-13.5-5-9.7-1.8-4.8-1.2-2.4-1.6-1.6-1.9-.4-3.4 1-1.8-.1-1.8-1.5-.9-2.3-1.3-4.9-2-2.5-2.3-.5-2.3-.1-1.7-1-.4-2.1.2-2.4-.1-1.9-1.2-.8-1.5 1.1-3.4 4.9-1.4 1.4-2.4.2-1-1.3-.2-2.1.1-2-.4-.7-1.1.4-1.1.7-.9.3-1.1-.5-1.8-1.7-1.2-.5-15.7-1.3-6 .8-1.7-.3-1.1-.8-.7-.8-.7-.7-1.4-.5-.3.2-.9 1.2-.6.3-.6-.1-1.3-.8-.7-.1-4.9.6-1.5.5-1 .7-1.6 1.7-.8.7-1.9.5-6.7.2-2 .6-3.8 2.4-2.1.6-1.5.8-.4 1.7-.7 1.4h-3.2l-.8.3-1.5.7-.1.3-.1.6-.2.4-.6.2-.6-.2-1-.6-5.7-1.7-1.7.2-1.8 1.4-2.9 4.1-1.8 1-3.8.5-1.7.6-1.4 1.2.5.1 1.1.4-3 3.2-.5 1v.9l.3 2.4-.3 1.2-1.3 2.6-.7.8-2.7-1.1-1.5-.5-.3 1.6v1.7l-.3.9-1.4-.6-.7-1.1-.8-3.4-.9-1.5-2.4-.6-3.6.2-3.3-.3-1.4-2.1.2-1.9 1-2.6.2-1.8-.2-.5-.6-.3-.8-.2h-1.8l-.3.2-.1.4-.3.7-.5 1.4v1.4l-.4 1.1-1.5.4-1.1-.4-1.5-2.2-1.1-1-1.3 1.4-1.2.6-1.2.2h-1.5l.1.2-.3.6-.7.7-.8.6-.8.3-.1-.1v-.3l-.5-.6-1.3-.6-.5-.4-.3-.8-.1-1.1-.4-.6-1.1-1.1-.6-.7-.3-.6-.5-.3-1.1-.2-1 .2-.3.3.2.5.5.5-1.5.3-1.3-2.2-1.3.4-.3-.8-.2-.4-.9-.8v-.7h1l.8-.1 1.6-.6-.9-1.7-.5-2.3-.8-1.5-2 .6-.6-2.1-1.4-1.3-2-.6-2.4-.2-.8-.2-.3-.5-.5-.5-1.1-.2-.8.5-.5.9-.6.7-.9-.3-2.9-2.8-.1-1.2 1.4-4.1-.2-.7-1.1-2.4-1.1-1.5-.4-1 2.1-.1.4-1.3-.7-1.9-1.2-1.6-1.2-.8-1.3-.6-1.1-1-.5-1.8-1 .8-1.1.6-1.1-.2-.8-1.2 1.3-.6-.6-.2-.6-.3-.7-.2h-.8l.9-.9 2.3-.8-.1-.8-2.6-1.7-.6-1 .7-1.9-2.7.2.1-1.2.8-1.8-.2-2.1-.3.7-.5.6-.6.6-.7.2-1.2-.1-.1-.5.4-.6.2-.5v-5.6l-.7-1.5-1.7-1.1-1.6-.2-.7 1.4-.9.1-5-2.9-1.6.4-4.6-.7-1.7-.1-.7.5-.5.7-.7.7-1.1.2-1.2.1-.5-.1-.4-.3-.5-.2-.4.4-.4.5-.5.3h-2l-1.7-.5-1.3-.7-1.1-.9-.3-.6-.3-1-.5-.8-.6-.3-.9-.1-.7-.1-1.4-.5-.1-1.8-1.2-2.6-1.8-2.3-1.8-1 .6-1.5.8-5.2.4-.8 2.3-3.7 1.4-5.4-.3-.9-.8-.7.2-1.6.7-1.6.9-.9-1.5-.6-.1-.9-.5-1.7-.1-.9 1-5.5.5-1.5.7-.7.8-.4.7-.5.1-1v-.9l1.4-5.9-.4-1.2-1.2-2.2-1.9-7.1-1.3-2.8-2.3.5.6-2.6-1.1-6.2.3-1.6 1.4-1 10-1.3 1.7-.5 1.7-.7 2.3-1.5 1.1-1.4.6-4.2.9-2.3 3.2-3.2 1.2-2.2.2-1.6-.7-10.6.5-1.9 1.5-1.3 2.2-1.1.8-.9-.1-1.3-.6-2.3v-8.5l-.9-3.6-3.5-2.8-1.2-.2-1 .1-.9-.2-.8-1.1v-1.2l.6-1.1.7-1 .6-1.1.8-3.9.2-2.3-.1-1.8-.7-2-1.2-1.4-1.6-1-1.9-.9-1.1-.3h-.8l-1.8.3-.4-.4-2.5-1.5-.6-.3-.6-1.1v-.5l.6-.2 1.4-.2.4.2 1.2.8.6.2.5-.1.8-.8.3-.2 3.5-.6.4-.2.4-.4.4-.3h.7l.7.3.5.4.6.3.7-.1.7-.6 2-2.8 3.9-3.2 2.6-3 1.5-1.3 3.1-.9 3.3-2 1.5-.7 1.5-.1 4 .1 1.8-.2 1.1.1 1.1-.3.9-.5 1-.8 2.1-.9 2.2.2 2.1.5h2.1l4.3-1.5h2.1l1.9 1.7 1.7-.6 2.9-.5 1.4-.8.8-1.1 1.4-2.5 1-.9 1.1-.3 2 .3 1-.1 2-1 .5-1.3.2-1.6 1.1-2 3.6-2 3-.2 1-1-2.6-4.9 8.9-7.3.3-.4.2-.6-.2-1.2.4-1.6-.1-.8.3-.7 1.1-.7 1.5-.1.9.8.8 1.1.9.8 3-.6-.9-4.3-3.7-8.7.8-2.5 1.7-2 1.9-1.9 1.5-1.9.6-1.4v-.4l-.6-.3-.8-1.3-2.1-4.8-1.7-1.7-4.4-3.3-.8-1.7.6-5.3.3-.3.7.2 1.1-.2 2.9-1.1 3.3-.8 3.3-.3 3 .7 2.8 1.7 1.4.4 2.1-.3 1.8-.6 1.4-1 1-1.2 2.1-6.6.1-1.3-1.3-4.6.4-5.8-.8-2.8-1.9-2.3-2.9-2.5-1.3-1.8-2.6-5.8-2.9-2.7-.6-.9v-1.3l.5-.9.6-.8 1.3-3.4 1.7-.7 6.4.3 1.1-.3.7-.9-.2-.9-2.1-1.2-.7-.9.4-1.6 1.5-1.8 1.8-1.6 1.5-1 1-.2 1 .2h.9l1.1-.6 1.9-2.2 1.5-2.4 1.7-4.2 1.1-1.8 1.6-1.6.9-.4 2.6-.7 1-.6 1.5-1.7 1.2-.4 1.1-.4 1.5-1 1.3-1.2.5-.9-.7-.6-1.3-.1-.6-.4 1.4-1.6.3-.3.3-.1.4.1.4.3.6.8.5 2.1.3.6.9.4 2.4.4.5.3-.1 1.1-.7.4-.9.1-.8.3-2 2-.9.5-1.2 1.2 1.2 1 2.4.6h1.9l2-.2 1.6.3 3.5 1.4 4.1 1.1 1.8.8 7.5 5.9 4.5 2.8 8.2 6.4.7.2 1.3-.2.7.2 1.6 1.7.9.6.7.1h2.2l5.4.8 1.3-.3 1-1.7-.2-1.8-1.1-3.5.3-2.9 2.2-.9 16.5-1 1.3-.9-3.5-25.4 1.5-3.8.5-2.4.4-5.6-.6-2.5-2.1-1.6 2-1.9 2.7.9 4.4 3.4 2.8.2 2.2-.4 2.1-.1 2.5 1.5 1.8 1.7.5.9.2 1.5.7 1.6 1.2-.4 1.7-1.9 1.2-.6.8-.2 2.4.2.9.3.7.5.7.3.7-.1 7-2.7-2.8-9.6-.5-5.5 1.6-3.9 1.8-2.9 3.9-13.2-.2-.2-.2-.2-.3-.2-.5.1 2.6-4.3 14.8-8.2 7.3-8.2 2.3-1.9 8.1-4.6 5.4-1.4 7.6 1.7 23.4 11.1 3.2.7 1.6-.2 6.8-3.1.9-.7.4-1.1 1.8-25 .8-2.7 3-1.3 4.8-.3 8.2.7 7-.4 7-1.3 34.7-22.3 4.2-2 19.1-4.7 3.8-1.6 3.6-2.2 20.7-18.2 5.3-5.3 3-2.2 3.3-.9 25.2-.2.9.5 2.3 6.2 1 1.2 2.8.1 3.7-1.6 6.2-3.8 6.2-1.1 7 1.6 13.4 5.5 25.1 8.7"/><path d="m47.7 517.6-2.7-1-2.2-1.5-1.2-.4h-1l-2.8.7-5.6.6-12.8 2.8-7.2 3.8-1.5 1.2-1.2 1.7-.4 1.8.4 5.6-1.1.9-4.7-1.6-1.2.9-.3 2.5-.7 2.2-1.2 2-1.9 1.8-8.9.1"/><path d="m621.8 60.1-.5-5.1v-2.5l.8-1.1 13.2 3.3h3.4l3.2-.6 6.5-2.3 3.1-.1 15.5 5.4 1.4-.1 2.7-.6 2.9-1.2 2.9-1 15.3-.5 2.7-.6 2.5-1.2 8.4-7.7 6.5-6.1 8-7.4 6.8-6.2 2.7-1.6 3.4-.8 7.3-.3 9.7-.3 9.6-.3 9.7-.4 9.6-.3 9.7-.3 9.7-.4 9.6-.3 9.7-.3 9.7-.3 9.6-.4 9.7-.3 9.6-.3 9.7-.3 9.6-.4 9.7-.3 9.7-.3 4.9-.2.6-1.3v-3.8l.2-1.9.2-1"/><path d="m51.2-11.5-1.9 9.9-.1.5-.1.5-.1.5-.1.5v.1.1h-.1v.1h-.1-.1v-.1h-.1-.1-15.7-13.4-6.3-6.8-7.3"/><path d="m621.8 60.1.3 2.3-.9 1.4-1.4 1.1-1.2 1.6-.2 2.9 2.9 5.9.7 3.1-6.7 18.8.6 5.2 3 4.9 15.7 14.3 4.3 5.7.3.6-.1.9-1 1.2-.4.9-.5 3.2-.5 1.2-2.4 3.7-.4 1.2.5 1.1 1.2 1.9.6.7.7.5.5.6.4.8-.1.7-.8 1.6v.9l.9 1.1 1.3.6 1.1.9.2 1.8.8 1.8 1.6 1.1 1.8.9 1.1 1.2-.1.9-.8 1.8.1 1.1.6.8 2.1 1.3.8.9.8 1.9 1.2 1.7 1.5 1.4 3.4 2.2 1 1.3 1.1 1.2 2 .7.7 1-.6 1.9-1 2.1-.5 1.6 1.4 2.5 2.7.9 13.2-.4 1 .2.3.7v.9l.1.6-.1.4-.3.4.1.7 1.2 1.1 1.9 1h1.8l3.8-.3 4.6 1.4 5.4 3.2 4 4.3.6 4.6 1.8 3.1 3.3 2.4 10.9 5.1 1.8.5 4.2.6 1.7.4 1.6 1.1 1.9 2.1-2.7 1.1-2-1-1.6-1.4-1.8-.5-.6.5-.4 1.1-1 3.5-.7.2-2.3-.9-5.3-1.3-8-3.2-2.1-.4-1.4 4.1.1 8.7v9.6l.1 8.3.3 2 .9 1.6 2.8 1.6 7.2.6 3 1.5 5.7 4.8 6 5 10 8.4 8.1 6.9 5.5 4.7 6.9 5.8 2.8 1.5 3.3.9 10.2.9 12.7 1.1 1.8-.2 1.7-1.1 1.2-1.8 1-2 1.7-2.5.7-1.4.4-.5.9-.1.7.3.7.2 1.2-.8 1.6-1.9 1-.5 9.7.8 4 1.1 2.6 3.1.6 2 .4.5 1 1.1 1.1.9 1.8 1.1.9 1.1.7 1.4.3 1.3.8 6.1.5 1.3.8 1.6.6.8 1.2 1.4.4.8v.4l-.3 1.1v.5l.2 2.2-.7 1.1-1.5.4-5.9.5-.5-.1-1.1-.5-.3-.1-.6.3-.8 1.1-.4.3-5.8 1.2-1.5 1.3-.2 2.9 1.9 3.6 4.3 6 7.5 10.5 7 9.8 7.9 11.1 5.2 4.5"/><path d="m690.1 459.7-12.9.3-9.7.2-6.2 1.2-12.5 4.4 1.2-4.3-1.6-.4.3-.4.2-.5v-.4l.2-.4-.1-.4-.1-.2-.2-.1-19.9-4.1-22.8-4.7-12.3-2.5-10.3-2.2"/><path d="m690.1 459.7-2.5 6.3-.3 2 .2 1.1.9 2.1.1 1.1-1.5 3-.2 1.1-.2 2.4-.3 1-1.3 1.9-5.4 5.2-1.5 3.4.8 9.2v4l-1.5 5.7-1.4 10.5.1 2.3.8 1.6 7.5 5 9.6 6.4 14.2 9.6 14.3 9.7 10.6 7.1 1.3 3.4.1 8.3.2 11.2.1 7.9.8 4.8-.1 1.2-.3 1 .1 2.1-.2 1-.6 1.3-1.8 2.8-.4 1.3.3 2.1 1 2.5 1.5 1.5 1.7-.9 1.2 2.9.7 10.4 1.4 4 2.4 3.8 8 8.5 6.2 6.6 2.1 3.6.8 2.5.5 2.7.2 12.8"/><path d="m583.4 445.2-13.6-2.8-.2 1.6.3 1 .3.9-.8 1.5-1.3 1.3-5 3.6-1.8-2.1-1.9-1.5h-1.9l-1.9 2.4-.5 1.5-.2 2.3-.6 1.1-1.2.9-2.6 1.3-.9 1.2-.3.2-.3.3-.3.1-.3.2-3.9-.2-2.1.2-1.5.6-.9 1.7-.7 2.5-1 2.3-1.8 1.1-4.8-4.7.3-.7.8-.8.4-.8-.6-.7-.9-.1-.7.3-.5-.1-.1-1.2-12.1-.2-.5-.8-.6-.2-.6.3-.5.7-2.2.3-2.2 2.5-1.8.2.7-1.3h-1l-.5-.3-.7-1.4-.8-.5-.8-.2-13.8-1.1-2.9.4-.9 1.6-12-.1-12.7-.2-2.5-.4-5.6-2.2-12.6-.4-1.8.5-.7 1.8-1.2.7-15.5.1-21.9.3-22.5.2-24.2.2-19.5.2-11.6.1v-1l-8.6-.2.1.6-.3.7.6 2 1.1 1.8.6 1.9-.5 2.4-1.4 1.5-1.6 1.2-1.3 1.5-.8 2.2-1.1 4.7-1.6 2.8-.4 2.3-.6 1-1 1-.3.6.3 1.5h.2l.4.1.5.2.3.5v.6l-.2.5-.3.4-.6 1.7-1.4 2.4-.3 1 .5 1.9 3 5.4.2 1 .2 2.2.2 1 .5.6 1.4 1.3.3.5.3 2 .7 1.3 3.6 3.1 1.2.7 1.6.2 2.5.1.3.4-.4 1-.9 1-1.1.4-1.3.1-1 .3-.7.7-.7.9-.7 1.5-.5 2.1v2.1l.8 1.7.9.4 1 .1.8.2.4.7.2 1.1.7.3h.9l.9.3 1 .7.7.3.3.5.1 1.3-.4 1.4-.7.9-2 1.6-1.3 2.1-.1 2 1.1 4.6v8.7l.4 2.1 2.3 3.5.7 1.8-.2 2.6-.9 4.6.4 2.6 2.4 3.9.3 1-.6 1-3.5 3.9-1.7 3.4-.3 2.2.7 2.1.8.9.5.1.6-.1.8.5.6.8.1.9.3 1 1.1.8-1.3 1.1-.9 1.5-.4 1.7-.2 1.6.2 1.7.5 1 3.6 3.3 3.6 4.7"/></g>







</svg>