<svg height="500" viewBox="0 0 439.99998 499.99998" width="440" xmlns="http://www.w3.org/2000/svg"><path d="m431.99996 5.00002c.35367 252.63012-43.16605 385.38859-211.99998 491.99989-168.833922-106.61132-212.353643-239.36979-211.99998-491.99991 141.33332.00001 282.66664.00001 423.99996.00002z" fill="#fff" fill-rule="evenodd" stroke="#000" stroke-width="1.5"/><path d="m94.004748 204.2742c5.768932 4.30538 7.857032-3.64717 6.890662-5.758 3.4248 1.299 8.5718-.61939 7.84015-5.12995 4.59225 3.15824 10.44057 2.08997 9.98765-1.96693l3.98883 12.57875c1.01845 3.21166 4.34353 3.86693 7.08394-.15234l22.8514-33.51539c-7.73193-5.82215-14.29957-12.0809-20.41391-18.50964l2.13279-3.12302-13.10147-13.71085 4.03708-2.97067c-4.65175-5.70604-7.82973-11.74804-10.81634-17.8241l4.41795-1.5996c-3.98668-11.40305-5.28345-21.442003-7.92162-33.15104 5.65815 4.975668 9.65255.336987 10.05531-2.367607 3.88688 4.558153 8.86656 2.028389 10.58237-1.320236 3.16277 3.024537 5.94085 5.200085 10.05555-.796997-.71901 8.42963-1.01207 19.30397-2.73855 27.7336-.62055 3.02988 1.2826 4.83859 3.96091 6.70308 9.43204 6.56606 17.98768 15.13478 26.50763 24.75569l-4.26559 15.1581c4.06042-6.19527 8.05644-12.39054 13.10147-18.58581l-2.1328-2.1328c4.23578-4.1475 8.72322-7.79167 14.16787-9.52142l-2.36131-2.51365c5.8512-2.81014 12.50915-4.14126 19.57604-4.72263l-.30469-2.81834c5.5076-.27309 11.04911-.24096 16.7577 1.29492l3.65622-6.3984c-4.96102-3.33269-12.88323-5.67867-20.87095-3.65622-4.30426 1.08982-10.16891-1.394623-7.23262-8.228813 7.33645-.301874 6.07878-5.002458 2.32181-6.578878 0 0-1.01081-3.503711-1.26917-5.33477-1.84916-1.71392-5.21515-2.686793-5.16954-5.527283.0326-2.03158.50339-3.37694 1.75193-5.40818-.90355-1.06813-1.77563-.0847-3.12302 1.29493-3.07237-3.94561-3.15275-8.45865-.22852-8.30269l5.71285.30468 17.51941-7.31244c.37199-2.92326 2.76386-5.92103 8.45502-7.38862 9.08826-2.34361 19.77-4.67122 27.04083-4.7988 7.71151-.13531 17.55311.81733 19.57604 7.31245 4.75481-6.12008 15.41799-4.33047 18.28112 3.65623 2.33877 6.52399-.54558 13.09038-8.2265 14.01553 4.38635 4.72563 9.01195 10.7059 11.04484 18.96666l-3.12302.83789c2.87025 9.27207 4.88555 18.943104 4.72262 29.630664l-2.666.76171-14.32021 44.33173-3.35154-.45704-9.14056 23.46078 10.43548 28.64043c23.82997 25.86175 32.41088 41.41269 45.62663 60.8609l-9.36907 2.28514c5.88703 10.05462 12.46052 20.10924 16.45301 30.16386l-4.57028.99023c4.07408 9.26184 7.66481 18.56762 9.52142 28.03105l-4.11326.38086 1.90429 17.51941-9.14056-2.74217 1.67576 7.31245c.99711 4.35101-3.91875 5.00537-10.20696 4.87497-14.5425-.30157-32.04527-.0877-46.05948 1.97565.38134-.38134 2.60538-6.57664-5.56092-6.95976 4.7082-1.91115 4.61409-7.25787-.97675-8.60762 7.46271-.73687 4.69228-9.50495.2908-9.94261l28.23621 2.3587c2.84005.23724 4.66139-3.24186 1.98045-5.56051l-11.27335-9.74992-3.35154 3.58005-15.99599-14.39639-2.36131 2.97069-14.6249-14.92959-3.04685 3.19919c-7.66031-8.91124-17.07092-27.75599-23.23227-41.7419l3.35154 20.56627-9.44524 19.65221-4.03709-1.44725-7.54095 19.57603-4.03709-2.20897-6.55073 21.40415-5.71286-2.43749-.15233 6.39842c-.046 1.93356-.76247 4.73096-6.01753 4.79882-15.50543.20023-31.54922-2.11614-46.63958 1.12328 2.36058-2.07921 2.26672-6.42977-2.53442-7.96703 4.3283-5.68969-.1925-7.7971-2.55331-8.72237 6.04163-1.83248 4.64708-6.97715 1.24708-9.69684l26.3339 1.49745c4.46561.25393 5.2862-.49469 5.17965-3.12302l-.45703-11.27336-3.80857-.30469 2.05663-22.62289-3.7324-.60937c2.28865-8.09916 5.26447-16.24046 9.82611-24.14631l-4.11326-1.37109c6.50337-13.53828 13.64638-26.31925 22.16587-35.03882 1.93158-1.97694 6.29972-4.42426 10.05461-4.57028l13.71085-.5332-9.44525-23.23226 13.40616-15.53896-32.90603 22.85141-1.90428-3.80858c-4.47929 4.66042-9.66701 8.89579-15.1581 12.94914l-2.1328-4.57028c-5.60234 4.6867-11.43481 8.33785-17.44323 11.19719l-.38087-4.49411-16.75769 9.06438c-3.69043 1.99619-9.29659 3.53849-12.64443-1.75193z" fill="#0085ca" fill-rule="evenodd"/><g stroke="#000" stroke-linejoin="round"><g fill="none" stroke-width="1.25"><path d="m120.71952 76.134007c1.21695 5.904958 10.87172 4.178344 10.79832-.831301"/><path d="m110.86757 79.28903c2.28288 5.216904 11.00114 2.248041 9.72503-2.84398"/><path d="m132.00454 74.992066c-.89695 3.288983 7.69611 6.035775 9.63875.06621"/><path d="m108.54434 192.40283c2.89179 4.77122 10.71082 2.73831 10.02383-1.70872"/><path d="m100.5261 198.17564c2.76841 3.36542 10.64484-1.0095 8.03229-5.52069"/><path d="m93.362332 204.11091c3.445304 4.23763 10.484268-.7392 7.148808-5.81467"/></g><g fill="#fff" fill-rule="evenodd"><path d="m235.5257 64.56359c-4.26192-.46176-7.57873-1.50138-10.83451-2.50027-1.91899-.58875-3.7618 1.9589-3.33373 3.55593.85639 3.19495 7.38199 2.50289 8.50093 2.22247 2.53092-.63427 4.159-1.91343 5.66731-3.27813z" stroke-linecap="round" stroke-width="1.25"/><path d="m200.68351 79.460838-.67187.03921 6.81397-.23452c-1.35202 2.25486-1.57161 8.62578-1.27175 11.68828-2.2555-1.8447-4.47643-8.862509-4.87035-11.492969z"/><g stroke-linecap="round"><path d="m210.85146 79.212936 3.1719 5.075024 3.50035-5.05611z"/><path d="m217.52371 79.23185 3.61088 5.05611 3.1112-5.05611z"/><path d="m214.69178 90.701125-6.2027.06061c-1.1804-2.375975-.928-6.19133.0892-7.973941 1.08055 2.99307 3.37065 6.157105 6.11349 7.913335z"/><path d="m217.69042 86.1215-2.66695 4.55605 6.08344-.220687z"/><path d="m224.66339 85.87147-3.26795 4.59733 6.40717-.40244z"/><path d="m228.08045 84.56577 2.44468-3.61151c-1.25223-.889604-4.56942-1.67761-6.49533-1.72241z"/></g></g><g fill="none" stroke-width="1.25"><path d="m260.13789 350.06153c6.38949 1.79118 7.71962-8.81341.92856-9.94006"/><path d="m261.40902 358.78899c5.10659.42493 5.42396-8.87397-1.07738-8.47251"/><path d="m266.06435 366.38296c5.19927-1.4519.62985-10.06506-5.4033-6.69442"/><path d="m124.51098 336.23094c5.96193 1.26564 7.64273-7.73533 1.75204-9.4382"/><path d="m93.843114 204.75981c-3.243978-4.96527-7.752645-4.29594-12.638192-4.48333 4.83874-8.19862 14.158578-5.80099 19.690488-1.4363-2.238176-3.9562-1.274261-9.29931-12.633369-11.54429 6.001704-4.79243 14.513219-2.95388 20.365529 5.55039-.1587-7.22609-1.45339-10.73409-6.8702-15.31104 10.44801-.92015 14.07658 4.40924 16.15588 11.07622l4.79879 15.38661c1.00316 3.21647 4.34353 3.86693 7.08394-.15234l22.8514-33.51539c-7.73193-5.82215-14.29957-12.0809-20.41391-18.50964l2.13279-3.12302-13.10147-13.71085 4.03708-2.97067c-4.65175-5.70604-7.82973-11.74804-10.81634-17.8241l4.41795-1.5996c-3.98668-11.40305-5.66451-22.872763-8.30268-34.5818-.7787-3.456132-4.35616-6.045034-7.96957-7.967037 7.35977-2.980508 14.5799-1.399948 18.06937 6.820499 1.39518-6.364584-3.91273-12.287727-5.26379-14.099994 12.00643-1.37858 15.12362 8.038558 16.18273 12.989449 2.61823-4.928601 1.68316-8.91381-.78742-14.65662 8.13761 1.749679 11.9029 6.565267 10.84297 13.859623-.71901 8.42963-1.01207 19.30397-2.73855 27.7336-.62055 3.02988 1.2826 4.83859 3.96091 6.70308 9.43204 6.56606 17.98768 15.13478 26.50763 24.75569l-4.26559 15.1581c4.06042-6.19527 8.05644-12.39054 13.10147-18.58581l-2.1328-2.1328c4.23578-4.1475 8.72322-7.79167 14.16787-9.52142l-2.36131-2.51365c5.8512-2.81014 12.50915-4.14126 19.57604-4.72263l-.30469-2.81834c5.5076-.27309 11.04911-.24096 16.7577 1.29492l3.65622-6.3984c-4.96102-3.33269-12.88323-5.678676-20.87095-3.65622-1.31859.33386-2.78362.33229-4.0972-.027-.87951-.24057-1.69113-.641514-2.34544-1.209521-.69538-.603659-1.21309-1.396013-1.44579-2.385093-.0942-.400418-.1417-.83308-.13537-1.298516.008-.595606.10437-1.244884.30371-1.948951.047-.166019.20514-1.524335 1.36376-1.890775 1.85956-.588131 4.91992-.301218 5.04542-.59331l-15.0924 1.124369c-8.79337.655097-10.56317-1.128821-12.54475-4.34468-1.56247-2.5357-.37025-6.241877 2.7381-7.869122.63979 5.689242 3.56244 5.689242 8.2232 5.683221 4.44637-.0057 13.02038-.371917 13.02038-.371917s-.55467-2.587872-.8956-4.526066c-.0738-.419547-.15115-.482898-.19715-.808725-.53933-.273113-1.28729-.04337-1.90575-.37212-1.73938-.924584-3.41832-2.736114-3.38467-4.831539.0326-2.03158.50339-3.37694 1.75193-5.40818-.90355-1.06813-1.77563-.0847-3.12302 1.29493-3.07237-3.94561-3.15275-8.45865-.22852-8.30269l5.71285.30468 17.51941-7.31244c.37199-2.92326 2.76386-5.92103 8.45502-7.38862 9.08826-2.34361 19.77-4.67122 27.04083-4.7988 7.71151-.13531 17.55311.81733 19.57604 7.31245 4.75481-6.12008 15.41799-4.33047 18.28112 3.65623 2.33877 6.52399-.54558 13.09038-8.2265 14.01553 4.38635 4.72563 9.01195 10.7059 11.04484 18.96666l-3.12302.83789c2.87025 9.27207 4.88555 18.943105 4.72262 29.630665l-2.666.76171-14.32021 44.33173-3.35154-.45704-9.14056 23.46078 10.43548 28.64043c23.82997 25.86175 32.41088 41.41269 45.62663 60.8609l-9.36907 2.28514c5.88703 10.05462 12.46052 20.10924 16.45301 30.16386l-4.57028.99023c4.07408 9.26184 7.66481 18.56762 9.52142 28.03105l-4.11326.38086 1.90429 17.51941-9.14056-2.74217 1.67576 7.31245c.99711 4.35101-3.91875 5.00537-10.20696 4.87497-14.5425-.30157-31.12732-.0877-45.14153 1.97565-4.12691.60763-7.28379 3.36162-10.51549 11.9764-6.00276-10.46089-.94122-15.16025 4.03662-18.93616-2.06823-.10222-7.46915.25398-12.77045 6.78378-2.16866-14.60665 8.48692-14.58881 11.46972-15.3914-3.94727-2.83788-7.05763-2.61676-15.37638 1.95045-2.2062-5.25976 5.31337-13.01937 13.66928-12.27104l30.55809 2.73668c2.83858.25421 4.66139-3.24186 1.98045-5.56051l-11.27335-9.74992-3.35154 3.58005-15.99599-14.39639-2.36131 2.97069-14.6249-14.92959-3.04685 3.19919c-7.66031-8.91124-17.07092-27.75599-23.23227-41.7419l3.35154 20.56627-9.44524 19.65221-4.03709-1.44725-7.54095 19.57603-4.03709-2.20897-6.55073 21.40415-5.71286-2.43749-.15233 6.39842c-.046 1.93356-.76247 4.73096-6.01753 4.79882-15.50543.20023-31.54922-2.11614-46.63958 1.12328-3.53331.75849-5.42544 7.37991-7.02424 10.97294-6.58943-9.8847-3.08289-16.21073 4.48982-19.04796-9.28778-.14573-10.31083 4.27195-13.96351 7.63192-2.15578-9.86086 1.92989-15.76397 10.92422-16.2463-5.06841-3.75271-8.29778-1.16955-14.75879 2.22955.78607-8.27001 6.09642-12.75815 13.25202-12.30437l29.57373 1.87543c4.46386.28308 5.2862-.49469 5.17965-3.12302l-.45703-11.27336-3.80857-.30469 2.05663-22.62289-3.7324-.60937c2.28865-8.09916 5.26447-16.24046 9.82611-24.14631l-4.11326-1.37109c6.50337-13.53828 13.64638-26.31925 22.16587-35.03882 1.93158-1.97694 6.29972-4.42426 10.05461-4.57028l13.71085-.5332-9.44525-23.23226 13.40616-15.53896-32.90603 22.85141-1.90428-3.80858c-4.47929 4.66042-9.66701 8.89579-15.1581 12.94914l-2.1328-4.57028c-5.60234 4.6867-11.43481 8.33785-17.44323 11.19719l-.38087-4.49411-16.75769 9.06438c-3.69043 1.99619-9.22014 3.48933-12.64443-1.75193z" stroke-linecap="round"/><path d="m127.5843 345.58651c4.25536-.96627 2.75913-9.10362-2.97009-8.84127"/><path d="m129.92895 353.71394c4.58472-1.44495 2.07028-8.74486-2.76572-7.93595"/></g></g></svg>