<svg enable-background="new 0 0 328.6 438.4" viewBox="0 0 328.6 438.4" xmlns="http://www.w3.org/2000/svg" xmlns:xlink="http://www.w3.org/1999/xlink"><linearGradient id="a" gradientTransform="matrix(1 0 0 -1 0 438.1)" gradientUnits="userSpaceOnUse" x1="164.1674" x2="164.1674" y1="383.3912" y2="363.8409"><stop offset="0" stop-color="#7e5827"/><stop offset="1" stop-color="#010101"/></linearGradient><path d="m0 0v326.4c0 23.4 13.7 45.8 36.7 55.9l127.6 56.1 127.6-56.2c23-10.1 36.6-32.5 36.7-55.9v-326.3z" fill="#d4af35"/><path d="m4.3 4.2v320c0 23 13.3 43.6 35.7 53.5l124.3 54.9 124.3-54.9c22.4-9.9 35.7-30.5 35.7-53.5v-320z" fill="#205aa9"/><g clip-rule="evenodd" fill-rule="evenodd"><g stroke="#010101" stroke-miterlimit="1.8939" stroke-width=".6881" transform="matrix(.68808975 0 0 .68808975 -4.603856 -12.085824)"><path d="m247.72 69.53c-29.9-.2-46.3 22-47 46.1-.7 26 12.1 39.8 30.3 44.5.6-2.3.7-4.8.8-8.4-26.9-6.8-15.9-59.3 13.7-59.2 26.1.1 41.9 49.2 13.1 59.4.1 3.7.4 6.3 1.3 8.6 19.6-4.4 32.2-19.2 32.4-44.7 0-23.7-17.5-46.1-44.6-46.3z" fill="#d5af31"/><path d="m247.02 73.43c23.8 0 42.3 19.8 42.3 43.8s-19.2 41.9-43 41.9-42.3-15.4-42.3-42.4c0-24 19.2-43.3 43-43.3z" fill="#fed500"/></g><path d="m150.52 105.31c4.6-3.2 5.4-6.1 5.7-11.1 5.1 4.1 11.6 3.4 15.8.7.5 5.7 2.1 8.2 6.5 10.1-.7 5.1-26.7 5.4-28 .3z" fill="#fff"/><path d="m230.62 184.21c0-.8 0-6.1 1.2-6.1 2.9.1 1.3 20.4 1.5 23.9s-.3 4.5-3 4.5c-6 .1-2.4-17.7-3.7-28-.2-1.8 1.5-1.2 1.9-.9 1.4 1.1.9 18.3 1.4 18.4.8.2.8-9.2.7-11.8z" fill="#fff"/><path d="m197.22 104.81 8.6-10.9c-10.2-24.5-1.4-66.1 26.2-52.8 45.3 24.2 24.8 131.2 26.1 168.4 1.3 36.4 4.2 76.1 12.4 104.9-2.4-1-7.2-.3-8.2-.3.7 9.3 4.3 18.2 5.7 24.5-10.5-.1-19.9-14-24-24.4l-3.7 3.4-.6-4.2 4.2-3.9c-9-20.4-15.5-33.1-19.7-107.4 8.2-12.2 10.6-26.5 8.2-51.8-2-21.7-6.4-46.4-35.2-45.5z" fill="#d4af35" stroke="#010101"/><path d="m241.12 167.41c-1.5.2-.4-10.2-.8-19.4l-3.1.5c.5 21.2-2.3 34.7 4.1 33.8 5.6-.8 3.9-7.9 4.4-35.2l-3.2.6c-.4 10.6.9 19.3-1.4 19.7z" fill="#fff" stroke="#010101"/><path d="m108.62 145.61c-40 42.3-24.3 15.3-41.4 32.6-5.1 5.2-1.5 11 4.4 15.6 6.9 5.5 10 .2 12.7-5 3.2-1.7 4.5-3.9 5.3-7.1 5.7-3.4 10.4-5.3 17.4-10.9-.2 8.3-4.1 79.7-5.3 88.4 2.4 23.2 9.5 44.4 21.5 66.6l5.8 6c.3 9.6 1 18.5 1.2 21.2 1.6 17.3-17.6 12.5-18 33.8 26.1-2.7 17.8-7 32.4-15.8 11.1-6.7.8-10.4 4.4-27.8 8 4.1 20.3 4.8 25.7 4.2.2 5.7-6.6 13.9 3.4 19.2 6.2 3.3 8.1 18.6 29.2 15.2.6-17.2-16.8-11.3-17.5-37.7 7.6-1.6 37.3-18.1 54.5-34.3-10.3-21.9-14.8-33.3-19.8-107.5 9.9-16.6 10.2-31.5 8.8-51.8-9.6-77.6-59.3-24-60.1-58 19.8-7 9-40.7-8.9-40.7-20.4-.1-27.7 36-9.3 40.6-.5 30.4-32.1-15.6-46.4 53.2z" fill="#010101"/><g fill="#fff" stroke="#010101"><path d="m220.82 113.71c2 2.7 3.4 4.5 5.2 7.7 7 .6 2.1-19.5-2.8-43l-1.5 4c3.3 18.8 5 26.8 2.7 27.3-1.3.3-2.4-13.1-4.3-24.2l-2.2 6.8c3.1 18.4 2.9 21.4 2.9 21.4z" stroke-linejoin="round"/><path d="m224.82 75.21c6.1 22.2 9.4 35.7 13.8 33 7.9-5-.1-27.3-10.2-41.7l-1.4 3.1c3.3 7.1 10.9 26 8.6 27.2-1.1.6-5.3-14.6-9.5-25z" stroke-linejoin="round"/><path d="m243.52 228.01c-5.3.7-5.9-12.3-6.6-40.5l2.7-.5c.5 7.1-.4 22 1.6 21.8 2.3-.2 1.4-9.3 1.1-22.3l3-.7c.4 27.3 3.4 41.5-1.8 42.2z"/><path d="m232.12 235.71c-1.3 0-1.2-14.9-2-20.9l-2.8.4c2.8 35.5 2.5 41.2 6.5 41 5.1-.3 3.5-5.6 1-41.9l-2.8.2c.5 7.2 2.1 21.2.1 21.2z"/><path d="m235.22 280.71 4.9 16c2.7-1.4 2.6-4.9-3.8-36.4l-3.1.6c2.1 10.6 4.4 19.1 2 19.8z"/><path d="m229.32 191.91c.8-1.9 1.8-6 2.8-8.8 1.5 18.9 1.8 26.8-2.2 27.5-4.4.7-3.7-4.5-4.3-10.4l1.9-4.3c.7 1.7.3 5.6 1.4 5.1 1.4-.7.7-7.3.4-9.1z"/></g><path d="m129.72 147.11s0 1.4 1.8 1.6c-.4 12.7 2 22.1-.2 28.9-3.7 11.6-7.2 23.3-12.5 88.9-.5 5.9 5.7 7.5 7.7 8.6 1.9 16.6 4.1 11.9 4 16.1-.1 2.3-2.1-2-1.5 38.6l-5-5.2c-11.5-20.2-18.7-43.9-21-65.1 3.1-39 4.2-66.2 5.3-89.7 6.2-3.9 11.7-8.1 16.5-12.2 2.4-4.7 3.9-7.1 4.9-10.5z" fill="#9b1b2c"/><g stroke="#010101" stroke-miterlimit="1.798" stroke-width=".0785"><path d="m151.42 303.41c2 13.4-14.5 21.4-21.1 16.1-.7-11.9.5-22.9.5-22.9 11.8-3.1-1 1.9-2.6-21.2 7.7 2.4 13.4 2.4 22.5 2.4 2.6 11.5-7.6 17.2.7 25.6z" fill="#fed8ae"/><path d="m130.32 321.71s.3 15.7.3 16.6c6.9 5 14.9-.1 17.1-3.5.1-8.7 3.7-15.2 2.9-20.5-2.6 4.2-12.1 12-20.3 7.4z" fill="#fff"/><path d="m147.72 336.81c-4.4 5.4-11.2 6.4-17.1 3.7.4 5.4.9 11.2.9 16.1 4 2.1 12.9-1.7 15-4.8.1-5.4 1.3-9.6 1.2-15z" fill="#fed8ae"/><path d="m146.72 354.01c-3 2.3-5.9 5.6-15.4 4.7-2.6 11.4-16.3 11.2-17.7 26 21.9-1 18.3-9.5 29.3-14.9 8.3-4 4.6-8.4 3.8-15.8z" fill="#fff"/><path d="m188.42 275.71c-5.2 1.5-11.2 2.1-22.4 2-1.4 15.1 4.8 12.6 3.5 18.2-3.9 16.4 13.6 19.4 19.7 11.1 1.1-6.3.7-13-.8-31.3zm-3.7 16.3c.6 1.7-4 10.6-7.2.7 1.7.8 5.7.1 7.2-.7z" fill="#fed8ae"/><path d="m169.82 308.11c-.3 5.6-.5 8.5.3 14.4 1.6 12.8 14.5 11 19.3 5.7l-.3-19.2c-2 4.2-14.3 6.8-19.3-.9z" fill="#fff"/><path d="m175.72 345.41c-1.3-4.9-2-7.2-2.7-13.9 5.5 3.5 10.2 3.4 16.4-1.2.3 5.5-1 15.2-1 15.2-3.7 3.2-8.2 2.7-12.7-.1z" fill="#fed8ae"/></g><g fill="#fff"><path d="m188.62 347.41c2.3 23.6 18.3 20.2 17.3 32.5-18.4 2.7-20.7-11.4-27-14.8-9.5-5.1-2.8-10.3-3.1-17.6 5.1 3.1 8.9 2.5 12.8-.1z" stroke="#010101" stroke-miterlimit="1.798" stroke-width=".0785"/><path d="m148.92 112.41c-1.2 1.1-2.6 1.6-5.5 1.7.1 5.7-.7 13.1-2.2 17.6.6 2.8-.3 4.6-2.1 14.4-.5 2.4-1.5 2.9-6.3 2.6.3 7.5.5 16.7.6 23.2 22.8 0 13.5 4.5 41.1 4.6-.7-4-1.2-9.2-1.4-15-2.8.8-5.5 2.5-9.3 2.5-11.2 0-21.3-8-21.3-19.4 0-11.5 8.8-20.4 20.1-20.4 4 0 7.3 1.3 7.3 1.3-5.9-3.9-11.9-8.6-21-13.1z"/><path d="m174.92 178.31 1.2 5.2c-23.6 4-18.6-5.5-43.5-5.3l.8-4.2c19.4 0 17.1 4.3 41.5 4.3z"/><path d="m132.12 179.81-1.5 6.6c6.7-1 14.5 6.8 21.6 12.9 6.7 5.7 24.3 3 27.9-3.9-1.8-3-3.1-8-3.7-10.1-28.5 3.8-14.9-5.1-44.3-5.5z"/><path d="m166.02 203.61c-5.7.8-9.6-.7-13.6-2.1-2.5 18.8-3.1 29.2-4.1 55.1-.1 3.2 18.8 2.6 18.7 0-.2-18.1-.2-35.4-1-53z"/><path d="m138.82 190.81s-8.3-6.1-9.1-1.3c-3.6 18.6-5.6 34.1-7.9 61.1-.5 2.3 10.6 6 10.8 3.6 2.4-34.5 6.2-63.4 6.2-63.4z"/><path d="m146.82 262.61c-2.8 1.5-8.8 1.4-12.9-1.1-.3 3.9-.3 6.6-.5 12-1.1 2.8 13.2 3.3 13.5 1.7 0-4-.1-8.2-.1-12.6z"/><path d="m167.62 203.61c3.4-.4 8.1-2.2 10.5-4.2 0 0 5.9 39.6 6.8 56.9.3 2.6-15.5 3.6-16 .3-.6-17.2-1.3-53-1.3-53z"/><path d="m179.32 198.31 1.3-1.7c2.8 6.4 7.3 11.6 11 14.7 0 0 3.1 25.1 4.9 41.6.4 2.1-9.6 5.3-10.1 3.2-1.4-16.9-7.1-57.8-7.1-57.8z"/><path d="m132.12 261.01c-6.5-.6-9-3.9-10.7-7.6-.6 6-1 10.4-1 14.9 0 2.4 11.4 8 11.4 5.1.1-5.2.1-7.6.3-12.4z"/><path d="m167.02 262.81c-1.7 3.8-16.7 4.1-18.5-.5-.1 4.3 0 8.3.4 12.2.2 2.7 18.6 2.3 18.5.3-.1-4.4-.2-7-.4-12z"/><path d="m169.12 263.11c1.8 2.7 16.8 1.8 16.9-.8.9 4.6.8 6 1.5 10.9 1 1.4-12.9 4-17.9 2-.5-4.3-.3-7.6-.5-12.1z"/><path d="m187.52 261.51c2.3 1.4 9.5-2.8 9.6-5.5.6 3.2 1.4 8 1.6 11.3-2 2.2-5.4 5.5-9.6 5.7-.6-4.4-1-7.1-1.6-11.5z"/><path d="m151.02 200.41c-1.9-1.4-5.6-6.4-10.9-8.9-2.4 18.9-4.3 40-5.6 63.1-.2 2.5 12 4.6 12.1 1.2 1-23 2.2-39.8 4.4-55.4z"/><g transform="matrix(.60937788 0 0 .62637748 16.082678 -8.818002)"><path d="m239.25 232.16c2.9 0 5.7-2.9 5-8-.6-4.8-3.3-8.9-5-9.3-1.9.5-4.4 4.7-5 9.3-.5 5.1 2.1 8 5 8z"/><path d="m226.85 244.46c0-2.9-2.9-5.6-8-4.9-4.9.6-9 3.3-9.4 4.9.5 1.9 4.7 4.4 9.4 4.9 5.1.6 8-2 8-4.9z"/><path d="m239.25 256.76c-2.9 0-5.6 2.9-5 8 .6 4.8 3.3 8.9 5 9.3 1.9-.5 4.4-4.7 5-9.3.6-5.1-2.1-8-5-8z"/><path d="m251.65 244.46c-.1 2.9 2.4 5.6 6.7 4.9l.9-9.9c-.1.1-7.2-1.8-7.6 5z"/><path d="m230.45 235.76c2.1-2 2-6-2.2-9.1-3.9-3-8.7-4-10.2-3.1-1 1.7.2 6.4 3.1 10.1 3.4 4 7.3 4.1 9.3 2.1z"/><path d="m230.45 253.16c-2.1-2-6-1.9-9.2 2.2-3 3.9-4 8.7-3.1 10.1 1.7 1 6.5-.2 10.2-3.1 4-3.3 4.2-7.2 2.1-9.2z"/><path d="m248.55 253.66c-1.7 2.3-1.9 6 2.2 9.1 2.3 1.7 4.9 2.8 6.9 3.2l.1-10.2c0 .1-4.6-8.2-9.2-2.1z"/><path d="m248.05 235.76c2.1 2 6 1.9 9.2-2.2 3-3.9 4-8.7 3.1-10.1-1.7-1-6.5.2-10.2 3.1-4 3.2-4.2 7.1-2.1 9.2z"/><path d="m227.95 217.46c2.1-.9 4.2-1.3 4.8 1.4.5 2.5-.6 5.3-1.7 6-1.5.3-4.1-1-5.5-3-1.4-2.4.3-3.6 2.4-4.4z"/><path d="m212.05 255.66c-.9-2.1-1.3-4.2 1.4-4.7 2.5-.5 5.4.6 6 1.7.3 1.5-1 4.1-3.1 5.4-2.2 1.4-3.5-.3-4.3-2.4z"/><path d="m250.75 271.96c-2.1.9-4.2 1.2-4.8-1.4-.5-2.5.6-5.3 1.7-6 1.5-.3 4.1 1 5.5 3 1.4 2.4-.3 3.6-2.4 4.4z"/><path d="m212.05 233.26c.9-2.1 2.1-3.9 4.4-2.4 2.2 1.4 3.4 4.2 3.1 5.4-.8 1.3-3.6 2.2-6 1.7-2.8-.6-2.4-2.6-1.5-4.7z"/><path d="m228.35 271.46c-2.1-.9-3.9-2.1-2.4-4.4 1.4-2.1 4.2-3.3 5.5-3 1.3.8 2.2 3.6 1.7 6-.6 2.7-2.7 2.3-4.8 1.4z"/><path d="m250.55 217.46c2.1.9 3.9 2.1 2.4 4.4-1.4 2.1-4.2 3.3-5.5 3-1.3-.8-2.2-3.6-1.7-6 .6-2.7 2.7-2.3 4.8-1.4z"/></g></g><path d="m114.92 283.93c-6.9 5.1-8.4 1.4-2.8-3.8 5.6-5.1 9-7.1 17.6-6 12.8-12 27.8-25.4 39.6-38.3 1.3-1.5 1.5-4.7 1.9-5.8.9 1.4 11.2 4.3 12.5 1.8.2 2.9 11.1 4.6 12.7 3.7-1.7 5.5-3.2 8.2-6.1 13.4-15.2 12.3-44.3 33.5-50.5 34.7-2.9 7.4-5.3 9.6-7.8 9.3-4.8-.5-9.6-10-17.1-9z" fill="#fed8ae" stroke="#010101" stroke-miterlimit="1.2372" stroke-width=".054" transform="matrix(.68808975 0 0 .68808975 -7.126852 -15.29691)"/><path d="m174.12 160.71c.4 25.6 9.9 52.7 30.6 54 11.5.7 29.9-16.9 28.3-53.3-1.5-34.3-9.5-54.4-29.2-55.6-21.9-1.3-31.7 30.9-29.7 54.9zm29.4-48.1c12 0 21.7 21.2 21.7 47.4s-9.7 47.4-21.7 47.4-21.7-21.2-21.7-47.4 9.7-47.4 21.7-47.4z" fill="#fed500"/><path d="m164.12 62.01c10.4 0 12 8.1 10.9 17.4-1.1 8.7-4.1 15.4-10.8 15.2-6-.2-9.8-6.5-11.2-15.2-1.5-9.5 1.2-17.4 11.1-17.4z" fill="#fed8ae" stroke="#010101" stroke-miterlimit="1.798" stroke-width=".0785"/><g fill="#010101"><path d="m166.32 73.91c1.4-1.3 2.5-1.8 3.1-2.3 1.9-1.2 3.4-.3 4 .2.1.6-1.6.2-2.1.3-1.8.3-2.9 1.3-5 1.8z"/><path d="m159.02 72.61c1.2.6 2.3 1.4 3.8.9-2.1-1.7-6.6-2.9-8.5-1.4 2.5.4 2.6-.1 4.7.5z"/></g></g><g fill="#010101"><path d="m167.41 87.25c-.8 1.5-4.5 2-6.1.1.7-1.2 2.1-1.6 3.2-1.2 1.3-.3 2.2.1 2.9 1.1z"/><path d="m163.02 75.01c-.1-.2-.1-.5 0-.7s.3-.2.4-.1c0 0 0 0 .1.1.8 1.2 0 4.7-.3 6v.1c-.1.4-.1.7-.1 1s.1.5.3.7c.1.2.2.4.1.7-.1.2-.9-.7-.9-1.2 0-.4 0-.9.1-1.4v-.2c.2-1.1.9-4.3.3-5z"/><path d="m170.22 76.71c-.3 0-.6 0-.9-.1-.2 0-.3-.1-.5-.2-.1-.1-.3-.1-.4-.2-.5-.3-.8-.7-.9-1.1 0-.1.1-.2.2-.3s.2-.2.3-.3c.5-.5 1.4-.7 2.3-.6h.3.5c.2 0 .3.1.5.1.7.2 1.2.5 1.5 1 0 .1-.1.1-.1.2-.1.1-.2.2-.3.3-.6.6-1.5 1.1-2.5 1.2zm-1.1.4c.3.1.7.2 1.1.2 1.1-.1 2.1-.6 2.8-1.3.1-.1.2-.3.3-.4s.2-.3.2-.4v-.2c-.3-.7-1-1.2-1.9-1.5-.2 0-.4-.1-.6-.1s-.4 0-.6-.1c-.1 0-.2 0-.3 0-1.1 0-2 .2-2.7.7-.1.1-.3.2-.4.4-.1.1-.2.3-.3.5v.1.2c.1.5.5 1.1 1.2 1.5.2.1.3.2.5.3.4 0 .5.1.7.1zm1.2-3.8c-.1 0-.1 0 0 0z"/><path clip-rule="evenodd" d="m170.02 73.61c-.9 0-1.5.7-1.5 1.6s.7 1.6 1.5 1.6 1.5-.7 1.5-1.6-.7-1.6-1.5-1.6z" fill-rule="evenodd"/><path d="m158.52 76.71c.3 0 .7 0 1-.1.2 0 .3-.1.5-.2s.3-.1.4-.2c.5-.3.8-.7.9-1-.1-.1-.1-.2-.2-.3s-.2-.2-.3-.3c-.5-.4-1.4-.6-2.4-.6-.1 0-.2 0-.3 0-.2 0-.4 0-.6 0s-.4.1-.5.1c-.7.2-1.3.5-1.5 1 0 .1.1.1.1.2.1.1.2.2.3.3.7.5 1.6 1 2.6 1.1zm1.1.4c-.3.1-.7.1-1.1.1-1.1-.1-2.2-.6-2.8-1.2-.1-.1-.2-.3-.3-.4s-.2-.3-.2-.4v-.2c.3-.7 1-1.2 1.9-1.4.2 0 .4-.1.6-.1s.4 0 .6-.1h.3c1.1 0 2.1.2 2.7.7.1.1.3.2.4.4.1.1.2.3.3.4v.1.2c-.1.5-.6 1.1-1.2 1.5-.2.1-.3.2-.5.3-.3 0-.5 0-.7.1z"/></g><path d="m152.22 277.81h12.1c-.1 18.1 4.3 12.2 4 29.1-.5 23.9 3.2 23 6 38.7-8.6 1.1-17.4-.8-25.6-4.1-.5-16.4 7.9-31.8 2.4-41.4-4.4-8 2.4-5.3 1.1-22.3z" fill="#9b1b2c"/><path d="m189.82 342.41c9.5-1.8 40.9-21.6 53-33.3-14.4-33.4-14.8-50-19.1-105.1-11.4 14.5-22.1 13.7-30.8 8.1 0 0 4.2 37.6 7 54 .7 4.2-10 8.8-10 8.8.3 18.1 2.9 9.4-.1 67.5z" fill="#9b1b2c"/><path clip-rule="evenodd" d="m202.12 104.61 8.7-8.4c-17.5-55.5 28.6-78.4 44.8-2 5.5 26.1.2 61.5-.3 105.5-.4 37.3 5.3 83.1 11.7 110.6l-3.4.1c-12.4-63.8-16.2-88.9-14.6-153.4 1.2-47-4-84.3-22.3-95.4-5.1-3.1-9.2 15.1-11.3 29.2-1.7 11.3 2.2 14.9 3.3 20.7-4.1-3.7-8.7-6.1-16.6-6.9z" fill="#fff" fill-rule="evenodd" stroke="#010101"/><path d="m168.82 144.11c0 3.8-2.9 6.8-6.4 6.8-3.6 0-6.4-3-6.4-6.8s2.9-6.8 6.4-6.8 6.4 3.1 6.4 6.8z" fill="#fff"/><path d="m149.02 106.31c1.5 1.1 1.7 3.4.7 5.3 2.4 1.5 15.8 8 27 17.8 3.6-10.2 8.9-19.2 18-23.3-5-.1-12.4 1.1-16.1-.3-1.5 4.1-27.6 3.2-29.6.5z" fill="#9b1b2c"/><path d="m115.82 126.01c4.8-11 11.4-20 23.7-20-3.6 2-2.2 7.1 2.5 7.9.1 5.5-.5 12.2-1.8 16.3-1.1-1.5-6.5-2.8-8.4-.4-.3-2.4-6.9-3.6-8.9-1-1-2.4-4.1-3.5-7.1-2.8z" fill="#9b1b2c"/><g fill="#fff"><path d="m135.92 130.71 1.2.2c1.7.3 2.9 2 2.6 3.8l-1.7 9.5c-.3 1.8-2 2.9-3.7 2.6l-1.2-.2c-1.7-.3-2.9-2-2.6-3.8l1.7-9.5c.3-1.8 1.9-3 3.7-2.6z"/><path d="m126.92 129.51 1.3.3c1.7.4 2.8 2.1 2.4 3.8l-2.1 8.8c-.4 1.7-2.1 2.8-3.9 2.5l-1.3-.3c-1.7-.4-2.8-2.1-2.4-3.8l2.1-8.8c.4-1.7 2.2-2.8 3.9-2.5z"/><path d="m118.32 127.81.8.2c1.7.4 2.7 2.2 2.3 3.9l-2.3 8.8c-.4 1.7-2.2 2.8-3.9 2.3l-.8-.2c-1.7-.4-2.7-2.2-2.3-3.9l2.3-8.8c.4-1.7 2.1-2.8 3.9-2.3z"/></g><g stroke="#010101"><g fill="#fed8ae" stroke-miterlimit="1.798" stroke-width=".0785"><path d="m73.72 181.51c.1 1-1.3 3-3 4.5-1.8 1.4-3.3 1.8-3.4.8s1.3-3 3-4.5 3.3-1.9 3.4-.8z"/><path d="m77.02 183.11c.2 1.1-1.4 3.6-3.6 5.5-2.2 2-4.1 2.7-4.3 1.6s1.4-3.6 3.6-5.5c2.2-2 4.1-2.7 4.3-1.6z"/><path d="m79.02 186.61c.1 1.1-1.2 3.2-3.1 4.8-1.8 1.6-3.4 2-3.6.9-.1-1.1 1.2-3.2 3.1-4.8 1.9-1.5 3.5-2 3.6-.9z"/><path d="m82.32 188.71c.1 1-1.2 3-3 4.5s-3.3 1.9-3.5 1c-.1-1 1.2-3 3-4.5s3.4-1.9 3.5-1z"/></g><path d="m127.82 96.41 7 8.4c-8.4 2.2-18.7 6.2-26.2 40.8-7.1 7.6-13.1 13.5-19.7 19.5-4.9 4-7.6 6.9-13.5 6.4-6.5 4.5-11.7 8.6-10.5 13.5l-4.7 1.8-6.6-11.3 6.7-5c-4.8-3.7-7.5-11.9-7.7-18.1-9.6-9.5-11.7-14.5-13.3-27.7-8.5-6.8-13.1-21.6-13.3-39.6 11.6 8.3 20.8 19 23.1 33.2 8 6.9 12.5 11.8 14.5 27.3 5.7 3.9 7.3 8.8 8.5 16.7l1.9-1.4c-23.7-139.8 74.1-155.2 53.8-64.5z" fill="#d4af35"/><g clip-rule="evenodd" fill-rule="evenodd"><g fill="#fff" stroke-linejoin="round"><path d="m101.12 124.91c-.8 10.1-.5 28.9-.5 28.9 3.3-3.5 5.5-5.4 7.8-8.1.4-1.7.8-3.4 1.3-5.8-.2-5.1-.1-10.3-.5-14l-2.8-.4c-.4 7.6 1.1 16.7-1.2 15.9-1.8-.6-1.3-16.2-1.3-16.2s-1.9-.3-2.8-.3z"/><path d="m95.02 107.91c4.8.6 6.2-8.9 12.7-32.6l-1.8-3.8c-7 17.3-8.2 27.1-9.7 23.7-1.2-2.9 5.7-18.6 7.7-26.5l-1.7-3.2c-6.1 7.1-18.5 41.1-7.2 42.4z"/><path d="m106.62 121.61c5 1.5 9.7-19 9.7-28.5l-2.8-7.4c-1.4 13.6-3 24.4-4.9 23.6-2.5-1 1.9-12.5 3.1-26.7l-1.7-3.8c-7 31.6-12.3 40.2-3.4 42.8z"/></g><path d="m95.12 286.23-7.2-12.3 32.7-23.4 6.3 10.8c-6.4 5.2-5.3 3.6-11.2 2.6-3.2 2.4-18.3 10.3-17 21z" fill="#fed500" stroke-miterlimit="1.8939" stroke-width=".6881" transform="matrix(.68808975 0 0 .68808975 -4.753201 -12.200666)"/></g></g><path d="m149.12 109.21c0 2.1-2.3 3.8-5.1 3.8s-5.1-1.7-5.1-3.8 2.3-3.8 5.1-3.8 5.1 1.7 5.1 3.8z" fill="#fed500"/><g stroke="#010101"><g fill="#fff"><path d="m130.82 105.81-7.9-7.1c16.4-81.1-63.4-72.1-45.6 59.4l.9-.6 5.9 10.3c-2.8-75.7 10.8-104.9 21.3-106.6 4.5-.8 12.6 26.7 13 31.2 1.5 16.6-6 21.5-5.7 37.5 3.5-10 6.7-18.5 18.1-24.1z"/><g clip-rule="evenodd" fill-rule="evenodd" stroke-linejoin="round"><path d="m89.62 109.41c-2 22.7-4 31.7 2.4 32.5 5.8.8 4.5-4 6-30l-2.8-1c-1.5 12.9-1.4 19.1-3.5 18.4-1.6-.5.6-12.5.7-19z"/><path d="m87.22 144.31c-.3 6.5-.7 13.8-.3 22.3 4.9-4.2 6.5-5.8 10.4-9.6 0-4.6 0-6.8-.5-11.5l-3.2-.3c-.2 4.3.9 15.3-1.5 15.9-1.8.4-1.3-4.9-1.7-16.4z"/></g></g><path d="m76.22 196.21c2.1-.1 3.9.6 8.2-7.3 3-1.7 4.6-4 5.3-7.3 5.7-3.5 8.8-4.4 17.5-11.1-2.4 47.8-2.3 81.31-3.2 88.91 1 13.9 3.5 28.19 3.5 28.19l-13.7 31.5c-1-1.1-2.1-2.2-3.2-4.1-5.1 9.6-10.6 19.3-23.9 24.2l3.5-25.9c-2.5-.1-4.3.6-6.2 1.2 11.5-44.3 13.6-81.6 12.2-118.3z" fill="#d4af35"/><g fill="#fff"><g clip-rule="evenodd" fill-rule="evenodd"><path d="m89.82 186.21c-1.5 40.4-3.6 39.6 2 40.1 6.6.6 4.1-5.9 6.6-46l-3.1 2.2c-1.5 18.6-.4 22.5-2.3 23.3-1.7.7-.8-5.1-.4-21.8z"/><path d="m90.62 248.51c1.5-.1 1.1-4.8 1.8-17l3 .1c-1 26.2-1.9 38.1-6.9 37.5-5.5-.7-2.5-16.2-.8-38l2.7.2c-1.1 13.3-1.5 17.3.2 17.2z"/><path d="m98.42 290.51c1.5-1.1 4-18.2 4-18.2l1.6 7.5c-3.4 18.2-8.2 32.6-11.6 29.8-2.2-1.8 1.4-13.3 6.2-50.6l2.3 1.2c-.1 9.2-5.5 32.6-2.5 30.3z"/><path d="m81.52 306.01c1.7 1 5.4-17.4 7.9-31.7l2.6.4c-2 17.5-6.8 43.9-15.3 53.8-5.5 6.3-1-26.7 7.2-54.9l2.9.4c-3.9 20.3-7.2 30.9-5.3 32z"/></g><path d="m79.42 201.51c1.8 1.3 3.7 2.1 5.1 1.8-2.9 37.9-2.9 68.9-13.4 106.9l-3.8.3c8.2-32.8 11.6-65.9 12.1-109z"/><path d="m102.52 235.71c-2.1-.3-1.4-2.6-.9-17.6l-2-.7c-1.8 33.4-1.8 38 1.2 38.5.5 0 1.5-16.2 1.7-20.2z"/><path d="m104.62 196.61c-2.1 0-1.2-7.7-.8-20l-2.3 1.6c-1.3 29.8-2.5 35.1 1.5 35.4 1 .1.8-2.3 1.6-17z"/></g><path d="m78.32 198.21c6.5-3.4 4.4-4.9 7.3-7.4 1.1 9.3 1.2 14.6-7.3 7.4z" fill="#fed500"/><path clip-rule="evenodd" d="m238.92 112.41-3.5 1.3c.4 17.2.4 29.8 5.8 29.5 6-.4 4.8-3.8 3-32.4l-2.9.8c.2 6.9 1.2 17.8-.8 17.6-1.2-.1-1.2-9.9-1.6-16.8z" fill="#fff" fill-rule="evenodd"/><g stroke-width=".6881"><g fill="#96995f"><path d="m197.52 115.51c-6.1 3.4-13.2 17.2-14.5 36.1l15.9 1.6z"/><path d="m209.42 115.11-1.7 38.1 16.3-1.5c-1.5-19.5-7.7-31.1-14.6-36.6z"/><path d="m207.72 161.51 1.4 43.3c8.6-5.6 14.9-21.4 15.2-41.9z"/><path d="m182.62 163.01c1 20.5 6.4 35 14.6 41.2l1.7-42.7z"/></g><path d="m182.92 152.51 16.7 1.4-1.3-38.9c2.7-2.3 7.1-2.2 10.3-.3l-1.5 39.2 17.2-1.4c.1 2.7.2 7.2 0 9.3l-17.3-1.1 1.3 44.3c-3.5 2.6-8.5 1.1-10.5-.5l1.7-43.9-17 1.4c.2-8.9.3-7.9.4-9.5z" fill="#fed500"/></g><path d="m156.12 92.21c5.1 5.8 12 5.6 15.9 0 .4 6.2 1.1 9.7 5.8 13-4.8 2.8-24.6 2.4-29.5 0 4.9-.7 7.5-3.7 7.8-13z" fill="#fed8ae" stroke-miterlimit="1.798" stroke-width=".0785"/></g><path d="m147.12 74.31c2.2-26.5 31.6-25.4 34.1-.7l-3.9.1c1-18.9-27.8-19.1-26.2.5z" fill="url(#a)"/><g fill="#fff"><path d="m123.02 253.91c2.2 3.1 4.5 5 9.1 5.3.4-.8.2-1.3 0-2.1-5.4-.1-6.7-2-9.1-3.2z"/><path d="m196.42 255.41c-2.2 3.1-4.2 4.5-8.9 4.8-.2-.5-.4-1.2-.4-2 5.5-.1 6.9-1.5 9.3-2.8z"/><path d="m134.32 257.11c3.3 2.3 8 3.4 12.3 1.4 0 .9.1 1.4-.1 2.3-3.1 1.6-9.1 1.1-12.3-1.4-.2-1.1 0-1.7.1-2.3z"/><path d="m148.52 258.91c3.3 3.1 13.4 2.3 18.4.2.2.8.3 1.5 0 2.3-4.6 3.4-14.9 3.6-18.4-.6-.3-1.3-.1-1.3 0-1.9z"/><path d="m169.22 259.31c4.8 2 12.4 1.6 15.9-.8.3.6.8 1 .4 2.4-3.8 2.5-10.7 3.5-16.1.7-.3-.6-.4-1.4-.2-2.3z"/></g><g clip-rule="evenodd" fill-rule="evenodd"><path d="m158.62 73.71c-.9 0-1.5.7-1.5 1.6s.7 1.6 1.5 1.6 1.5-.7 1.5-1.6-.7-1.6-1.5-1.6z" fill="#010101"/><g stroke="#010101"><g fill="#fff"><path d="m244.62 249.11c-1.5-.1-1.1-4.8-1.8-17l-3 .1c1 26.2 1.7 37.1 6.7 36.5 5.5-.7 2.7-15.3 1-37.1l-2.7.2c1 13.4 1.5 17.4-.2 17.3z"/><path d="m252.82 304.91c-1.7 1-5.4-17.4-7.9-31.7l-2.6.4c2 17.5 6.8 43.9 15.3 53.8 5.5 6.3 1-26.7-7.2-54.9l-2.9.4c4 20.3 7.3 30.8 5.3 32z"/><path d="m232.52 125.31c.8 10.1.5 28.9.5 28.9-.2-3.4-1.7-16.7-3.4-23.1 0-2.7-.1-5.4-.1-5.4s2.2-.4 3-.4z" stroke-linejoin="round"/></g><path d="m39.02 100.41c10.5 9.4 7.7 31.9 11.4 21.7 16.7 13.5 8 35.9 14 26.4 3.7 3.3 5.9 9.5 6.1 15.2l-8 5.7c-5.9-4.1-7.9-15.7-8.7-24.1-.2 7.5-12.2-3.4-12.8-25.2-4.9 1.5-9.2-9.4-9.8-13.3 8 6.1-4.3-6.2-3.2-18.3-.1.1 7.8 9 11 11.9z" fill="#fed500"/></g></g></svg>