<svg height="300" width="230" xmlns="http://www.w3.org/2000/svg"><g stroke="#000"><path d="m6.5240531 6.5v129.6875c0 123.40725 91.2692519 146.78841 108.4999969 157.3125 17.23075-10.52409 108.5-33.90525 108.5-157.3125v-129.6875c-72.33333 0-144.666664 0-216.9999969 0z" fill="#dd4538" stroke-width="3"/><path d="m6.5240531 6.5v129.6875c0 123.40725 91.2692519 146.78841 108.4999969 157.3125 17.23075-10.52409 108.5-33.90525 108.5-157.3125v-129.6875c-72.33333 0-144.666664 0-216.9999969 0z" fill="none" stroke-width="3"/><path d="m57.48845 159.85694c-23.648267-.0183-30.504094-9.74426-52.012503-10.55053v-14.47318c0-4.37818.1299309-12.04693.3585168-16.12337 21.1572522.87247 28.1715862 10.45068 51.6539862 10.46937 25.581193.0204 32.416247-10.63534 57.99697-10.60464 25.08334.0303 30.92243 10.58604 55.98376 10.60464 23.23131-.0669 30.5494-9.63848 51.62641-10.52348.23059 4.09326.35852 11.77982.35852 16.17748v14.44612c-21.40107.82386-28.599 10.51023-51.98493 10.57759-25.06133-.0187-30.90042-10.60161-55.98376-10.63169-25.580723-.0303-32.415777 10.65198-57.99697 10.63169z" fill="#f5f5f5"/><path d="m6.5240531 6.5v129.6875c0 123.40725 91.2692499 146.78841 108.4999969 157.3125 17.23075-10.52409 108.5-33.90525 108.5-157.3125v-129.6875c-72.33333 0-144.666664 0-216.9999969 0z" fill="none" stroke-width="3"/><path d="m77.1803 161.375-6.71875 13.09375h2.96875c.0562 10.30669.0312 20.73611.0312 31.09375h-11.40625v7.625h.34375v.34375h2.75v45.3125h99.3125c0-15.10417 0-30.20833 0-45.3125h3.53125v-7.625h-.34375v-.34375h-11.375c0-11.61553 0-22.16072 0-32.40625l3-.6875-6.21875-11 .0312-.0937h-11.25l-6.75 13.09375h2.96875c.0562 10.30669.0312 20.73611.0312 31.09375h-14.125c0-11.61553 0-22.16072 0-32.40625l3-.6875-6.21875-10.96875.0312-.125h-11.25l-6.75 13.09375h3v31.09375h-14.125c0-11.63235 0-22.17233 0-32.4375l3-.65625-6.21875-10.96875.0312-.125z" stroke-linecap="round" stroke-linejoin="round" stroke-width=".5"/></g><path d="m73.44531 173.26325v3.46818h13.28367l.12159-3.46818h-4.29201z" fill="#fee79b"/><g stroke="#000"><g stroke-width=".5"><g fill="#fee79b"><path d="m82.554604 171.24168h9.085292v40.640751h-9.085292z" stroke-linecap="round" stroke-linejoin="round"/><path d="m82.54539 171.22911v1.625l.5625-.125v-1.5z"/><path d="m83.10789 171.22911v1.5l6.96875-1.5z"/><path d="m83.10789 176.97911-.5625.125v4.28125l.5625-.125z"/></g><g fill="#ccab6a"><path d="m91.63914 175.16661-8.53125 1.8125v4.28125l8.53125-1.8125z"/><path d="m88.60789 171.54161-6.0625 1.28125v4.28125l6.0625-1.28125z"/><path d="m90.07664 171.22911-1.46875.3125v4.28125l3.03125-.65625v-3.9375z"/></g><path d="m83.10789 185.51036-.5625.125v4.28125l.5625-.125z" fill="#fee79b"/><g fill="#ccab6a"><path d="m91.63914 183.69786-8.53125 1.8125v4.28125l8.53125-1.8125z"/><path d="m88.60789 180.07286-6.0625 1.28125v4.28125l6.0625-1.28125z"/><path d="m91.63914 179.41661-3.03125.65625v4.28125l3.03125-.65625z"/></g><path d="m83.10789 194.07286-.5625.125v4.25l.5625-.125z" fill="#fee79b"/><g fill="#ccab6a"><path d="m91.63914 192.26036-8.53125 1.8125v4.25l8.53125-1.8125z"/><path d="m88.60789 188.63536-6.0625 1.28125v4.25l6.0625-1.28125z"/><path d="m91.63914 187.97911-3.03125.65625v4.25l3.03125-.65625z"/></g><path d="m83.10789 202.60411-.5625.125v4.28125l.5625-.125z" fill="#fee79b"/><g fill="#ccab6a"><path d="m91.63914 200.79161-8.53125 1.8125v4.28125l8.53125-1.84375z"/><path d="m88.60789 197.16661-6.0625 1.28125v4.25l6.0625-1.28125z"/><path d="m91.63914 196.51036-3.03125.65625v4.25l3.03125-.65625z"/></g><g fill="#fee79b"><path d="m83.10789 211.13536-.5625.125v.625h.5625z"/><path d="m91.63914 209.32286-8.53125 1.8125v.75h8.53125z"/><path d="m88.60789 205.69786-6.0625 1.28125v4.28125l6.0625-1.28125z"/><path d="m91.63914 205.04161-3.03125.65625v4.28125l3.03125-.65625z"/><path d="m73.45164 173.26036v2.90625h8.25v-2.90625z"/><path d="m81.70164 173.26036v2.90625h5.03125v-2.90625z"/><path d="m73.45164 180.41661v4.28125h8.25v-4.28125z"/><path d="m81.70164 180.41661v4.28125h5.03125v-4.28125z"/><path d="m73.45164 176.16661v4.25h2.75v-4.25z"/><path d="m76.20164 176.16661v4.25h10.53125v-4.25z"/><path d="m73.45164 188.97911v4.25h8.25v-4.25z"/><path d="m81.70164 188.97911v4.25h5.03125v-4.25z"/><path d="m73.45164 184.69786v4.28125h2.75v-4.28125z"/><path d="m76.20164 184.69786v4.28125h10.53125v-4.28125z"/><path d="m73.45164 197.51036v4.25h8.25v-4.25z"/><path d="m81.70164 197.51036v4.25h5.03125v-4.25z"/><path d="m73.45164 193.22911v4.28125h2.75v-4.28125z"/><path d="m76.20164 193.22911v4.28125h10.53125v-4.28125z"/><path d="m73.45164 206.04161v4.28125h8.25v-4.28125z"/><path d="m81.70164 206.04161v4.28125h5.03125v-4.28125z"/><path d="m73.45164 201.76036v4.28125h2.75v-4.28125z"/><path d="m76.20164 201.76036v4.28125h10.53125v-4.28125z"/><path d="m73.45164 210.32286v1.5625h2.75v-1.5625z"/><path d="m76.20164 210.32286v1.5625h10.53125v-1.5625z"/></g></g><g stroke-linecap="round" stroke-linejoin="round"><path d="m88.3755 161.36974 6.261 11.09586-8.91451 2-7.73591-13.09586z" fill="#ccab6a"/><path d="m77.19496 161.36974-6.73661 13.09586h15.26364l2.73661-13.09586z" fill="#fee79b"/></g></g><path d="m75.861046 183.39128h3.17148v7.714492h-3.17148z"/><path d="m81.144127 183.39128h3.17148v7.714492h-3.17148z"/><path d="m138.05055 173.26325v3.46818h18.20303v-3.46818h-9.08959z" fill="#fee79b"/><g stroke="#000"><g stroke-width=".5"><g fill="#fee79b"><path d="m147.19104 171.24168h9.085292v40.640751h-9.085292z" stroke-linecap="round" stroke-linejoin="round"/><path d="m147.18182 171.22911v1.625l.5625-.125v-1.5z"/><path d="m147.74432 171.22911v1.5l6.96875-1.5z"/><path d="m147.74432 176.97911-.5625.125v4.28125l.5625-.125z"/></g><g fill="#ccab6a"><path d="m156.27557 175.16661-8.53125 1.8125v4.28125l8.53125-1.8125z"/><path d="m153.24432 171.54161-6.0625 1.28125v4.28125l6.0625-1.28125z"/><path d="m154.71307 171.22911-1.46875.3125v4.28125l3.03125-.65625v-3.9375z"/></g><path d="m147.74432 185.51036-.5625.125v4.28125l.5625-.125z" fill="#fee79b"/><g fill="#ccab6a"><path d="m156.27557 183.69786-8.53125 1.8125v4.28125l8.53125-1.8125z"/><path d="m153.24432 180.07286-6.0625 1.28125v4.28125l6.0625-1.28125z"/><path d="m156.27557 179.41661-3.03125.65625v4.28125l3.03125-.65625z"/></g><path d="m147.74432 194.07286-.5625.125v4.25l.5625-.125z" fill="#fee79b"/><g fill="#ccab6a"><path d="m156.27557 192.26036-8.53125 1.8125v4.25l8.53125-1.8125z"/><path d="m153.24432 188.63536-6.0625 1.28125v4.25l6.0625-1.28125z"/><path d="m156.27557 187.97911-3.03125.65625v4.25l3.03125-.65625z"/></g><path d="m147.74432 202.60411-.5625.125v4.28125l.5625-.125z" fill="#fee79b"/><g fill="#ccab6a"><path d="m156.27557 200.79161-8.53125 1.8125v4.28125l8.53125-1.84375z"/><path d="m153.24432 197.16661-6.0625 1.28125v4.25l6.0625-1.28125z"/><path d="m156.27557 196.51036-3.03125.65625v4.25l3.03125-.65625z"/></g><g fill="#fee79b"><path d="m147.74432 211.13536-.5625.125v.625h.5625z"/><path d="m156.27557 209.32286-8.53125 1.8125v.75h8.53125z"/><path d="m153.24432 205.69786-6.0625 1.28125v4.28125l6.0625-1.28125z"/><path d="m156.27557 205.04161-3.03125.65625v4.28125l3.03125-.65625z"/><path d="m138.08807 173.26036v2.90625h8.25v-2.90625z"/><path d="m146.33807 173.26036v2.90625h5.03125v-2.90625z"/><path d="m138.08807 180.41661v4.28125h8.25v-4.28125z"/><path d="m146.33807 180.41661v4.28125h5.03125v-4.28125z"/><path d="m138.08807 176.16661v4.25h2.75v-4.25z"/><path d="m140.83807 176.16661v4.25h10.53125v-4.25z"/><path d="m138.08807 188.97911v4.25h8.25v-4.25z"/><path d="m146.33807 188.97911v4.25h5.03125v-4.25z"/><path d="m138.08807 184.69786v4.28125h2.75v-4.28125z"/><path d="m140.83807 184.69786v4.28125h10.53125v-4.28125z"/><path d="m138.08807 197.51036v4.25h8.25v-4.25z"/><path d="m146.33807 197.51036v4.25h5.03125v-4.25z"/><path d="m138.08807 193.22911v4.28125h2.75v-4.28125z"/><path d="m140.83807 193.22911v4.28125h10.53125v-4.28125z"/><path d="m138.08807 206.04161v4.28125h8.25v-4.28125z"/><path d="m146.33807 206.04161v4.28125h5.03125v-4.28125z"/><path d="m138.08807 201.76036v4.28125h2.75v-4.28125z"/><path d="m140.83807 201.76036v4.28125h10.53125v-4.28125z"/><path d="m138.08807 210.32286v1.5625h2.75v-1.5625z"/><path d="m140.83807 210.32286v1.5625h10.53125v-1.5625z"/></g></g><g stroke-linecap="round" stroke-linejoin="round"><path d="m153.01193 161.36974 6.261 11.09586-8.91451 2-7.73591-13.09586z" fill="#ccab6a"/><path d="m141.83139 161.36974-6.73661 13.09586h15.26364l2.73661-13.09586z" fill="#fee79b"/></g></g><path d="m140.49747 183.39128h3.17148v7.714492h-3.17148z"/><path d="m145.78055 183.39128h3.17148v7.714492h-3.17148z"/><g stroke="#000"><g stroke-width=".5"><g fill="#fee79b"><path d="m114.87283 171.24168h9.085292v40.640751h-9.085292z" stroke-linecap="round" stroke-linejoin="round"/><path d="m114.86362 171.22911v1.625l.5625-.125v-1.5z"/><path d="m115.42612 171.22911v1.5l6.96875-1.5z"/><path d="m115.42612 176.97911-.5625.125v4.28125l.5625-.125z"/></g><g fill="#ccab6a"><path d="m123.95737 175.16661-8.53125 1.8125v4.28125l8.53125-1.8125z"/><path d="m120.92612 171.54161-6.0625 1.28125v4.28125l6.0625-1.28125z"/><path d="m122.39487 171.22911-1.46875.3125v4.28125l3.03125-.65625v-3.9375z"/></g><path d="m115.42612 185.51036-.5625.125v4.28125l.5625-.125z" fill="#fee79b"/><g fill="#ccab6a"><path d="m123.95737 183.69786-8.53125 1.8125v4.28125l8.53125-1.8125z"/><path d="m120.92612 180.07286-6.0625 1.28125v4.28125l6.0625-1.28125z"/><path d="m123.95737 179.41661-3.03125.65625v4.28125l3.03125-.65625z"/></g><path d="m115.42612 194.07286-.5625.125v4.25l.5625-.125z" fill="#fee79b"/><g fill="#ccab6a"><path d="m123.95737 192.26036-8.53125 1.8125v4.25l8.53125-1.8125z"/><path d="m120.92612 188.63536-6.0625 1.28125v4.25l6.0625-1.28125z"/><path d="m123.95737 187.97911-3.03125.65625v4.25l3.03125-.65625z"/></g><path d="m115.42612 202.60411-.5625.125v4.28125l.5625-.125z" fill="#fee79b"/><g fill="#ccab6a"><path d="m123.95737 200.79161-8.53125 1.8125v4.28125l8.53125-1.84375z"/><path d="m120.92612 197.16661-6.0625 1.28125v4.25l6.0625-1.28125z"/><path d="m123.95737 196.51036-3.03125.65625v4.25l3.03125-.65625z"/></g><g fill="#fee79b"><path d="m115.42612 211.13536-.5625.125v.625h.5625z"/><path d="m123.95737 209.32286-8.53125 1.8125v.75h8.53125z"/><path d="m120.92612 205.69786-6.0625 1.28125v4.28125l6.0625-1.28125z"/><path d="m123.95737 205.04161-3.03125.65625v4.28125l3.03125-.65625z"/><path d="m105.76987 173.26036v2.90625h8.25v-2.90625z"/><path d="m114.01987 173.26036v2.90625h5.03125v-2.90625z"/><path d="m105.76987 180.41661v4.28125h8.25v-4.28125z"/><path d="m114.01987 180.41661v4.28125h5.03125v-4.28125z"/><path d="m105.76987 176.16661v4.25h2.75v-4.25z"/><path d="m108.51987 176.16661v4.25h10.53125v-4.25z"/><path d="m105.76987 188.97911v4.25h8.25v-4.25z"/><path d="m114.01987 188.97911v4.25h5.03125v-4.25z"/><path d="m105.76987 184.69786v4.28125h2.75v-4.28125z"/><path d="m108.51987 184.69786v4.28125h10.53125v-4.28125z"/><path d="m105.76987 197.51036v4.25h8.25v-4.25z"/><path d="m114.01987 197.51036v4.25h5.03125v-4.25z"/><path d="m105.76987 193.22911v4.28125h2.75v-4.28125z"/><path d="m108.51987 193.22911v4.28125h10.53125v-4.28125z"/><path d="m105.76987 206.04161v4.28125h8.25v-4.28125z"/><path d="m114.01987 206.04161v4.28125h5.03125v-4.28125z"/><path d="m105.76987 201.76036v4.28125h2.75v-4.28125z"/><path d="m108.51987 201.76036v4.28125h10.53125v-4.28125z"/><path d="m105.76987 210.32286v1.5625h2.75v-1.5625z"/><path d="m108.51987 210.32286v1.5625h10.53125v-1.5625z"/></g></g><g stroke-linecap="round" stroke-linejoin="round"><path d="m120.69373 161.36974 6.261 11.09586-8.91451 2-7.73591-13.09586z" fill="#ccab6a"/><path d="m109.51319 161.36974-6.73661 13.09586h15.26364l2.73661-13.09586z" fill="#fee79b"/></g></g><path d="m108.17928 183.39128h3.17148v7.714492h-3.17148z"/><path d="m113.46236 183.39128h3.17148v7.714492h-3.17148z"/><g stroke="#000"><g fill="#fee79b"><g stroke-width=".5"><path d="m65.153732 211.8882h5.517704v4.269569h-5.517704z"/><path d="m70.671432 211.8882h11.035415v4.269569h-11.035415z"/><path d="m81.706833 211.8882h11.035415v4.269569h-11.035415z"/><path d="m92.742294 211.8882h11.035415v4.269569h-11.035415z"/><path d="m103.77763 211.8882h11.035415v4.269569h-11.035415z"/><g transform="scale(-1 1)"><path d="m-164.4724 211.8882h5.517704v4.269569h-5.517704z"/><path d="m-158.9547 211.8882h11.035415v4.269569h-11.035415z"/><path d="m-147.91924 211.8882h11.035415v4.269569h-11.035415z"/><path d="m-136.8839 211.8882h11.035415v4.269569h-11.035415z"/><path d="m-125.84843 211.8882h11.035415v4.269569h-11.035415z"/></g><path d="m65.153732 207.61864h11.035415v4.269569h-11.035415z"/><path d="m76.189133 207.61864h11.035415v4.269569h-11.035415z"/><path d="m87.224533 207.61864h11.035415v4.269569h-11.035415z"/><path d="m98.259926 207.61864h11.035415v4.269569h-11.035415z"/><path d="m109.29539 207.61864h11.035415v4.269569h-11.035415z"/><g transform="scale(-1 1)"><path d="m-164.4724 207.61864h11.035415v4.269569h-11.035415z"/><path d="m-153.437 207.61864h11.035415v4.269569h-11.035415z"/><path d="m-142.40154 207.61864h11.035415v4.269569h-11.035415z"/><path d="m-131.36613 207.61864h11.035415v4.269569h-11.035415z"/></g><path d="m62.39519 205.9209v3.5759 4.04233h5.5582v-4.04233h5.5582v4.04233h5.5582v-4.04233h5.55819v4.04233h5.5582v-4.04233h5.59707v4.04233h5.51933v-4.04233h5.55819v4.04233h5.59707v-4.04233h5.5582v4.04233h5.48046v-4.04233h5.63593v4.04233h5.51933v-4.04233h5.5582v4.04233h5.55819v-4.04233h5.5582v4.04233h5.59706v-4.04233h5.5582v4.04233h5.51933v-7.61823z"/></g><path d="m62.04715 205.57286v3.5759 4.04233h5.5582v-4.04233h5.5582v4.04233h5.5582v-4.04233h5.55819v4.04233h5.5582v-4.04233h5.59707v4.04233h5.51933v-4.04233h5.55819v4.04233h5.59707v-4.04233h5.5582v4.04233h5.48046v-4.04233h5.63593v4.04233h5.51933v-4.04233h5.5582v4.04233h5.55819v-4.04233h5.5582v4.04233h5.59706v-4.04233h5.5582v4.04233h5.51933v-7.61823z"/></g><g stroke-width=".5"><g fill="#fee79b"><path d="m65.153732 220.42732h5.517704v4.269569h-5.517704z"/><path d="m70.671432 220.42732h11.035415v4.269569h-11.035415z"/><path d="m81.706833 220.42732h11.035415v4.269569h-11.035415z"/><path d="m92.742294 220.42732h11.035415v4.269569h-11.035415z"/><path d="m103.77763 220.42732h11.035415v4.269569h-11.035415z"/><g transform="scale(-1 1)"><path d="m-164.4724 220.42732h5.517704v4.269569h-5.517704z"/><path d="m-158.9547 220.42732h11.035415v4.269569h-11.035415z"/><path d="m-147.91924 220.42732h11.035415v4.269569h-11.035415z"/><path d="m-136.8839 220.42732h11.035415v4.269569h-11.035415z"/><path d="m-125.84843 220.42732h11.035415v4.269569h-11.035415z"/></g><path d="m65.153732 216.15776h11.035415v4.269569h-11.035415z"/><path d="m76.189133 216.15776h11.035415v4.269569h-11.035415z"/><path d="m87.224533 216.15776h11.035415v4.269569h-11.035415z"/><path d="m98.259926 216.15776h11.035415v4.269569h-11.035415z"/><path d="m109.29539 216.15776h11.035415v4.269569h-11.035415z"/><g transform="scale(-1 1)"><path d="m-164.4724 216.15776h11.035415v4.269569h-11.035415z"/><path d="m-153.437 216.15776h11.035415v4.269569h-11.035415z"/><path d="m-142.40154 216.15776h11.035415v4.269569h-11.035415z"/><path d="m-131.36613 216.15776h11.035415v4.269569h-11.035415z"/></g><path d="m65.153732 228.96645h5.517704v4.269569h-5.517704z"/><path d="m70.671432 228.96645h11.035415v4.269569h-11.035415z"/></g><path d="m81.706833 228.96645h11.035415v4.269569h-11.035415z" fill="#ffd200"/><path d="m92.742294 228.96645h11.035415v4.269569h-11.035415z" fill="#ffd200"/><path d="m103.77763 228.96645h11.035415v4.269569h-11.035415z" fill="#fee79b"/><g transform="scale(-1 1)"><path d="m-164.4724 228.96645h5.517704v4.269569h-5.517704z" fill="#fee79b"/><path d="m-158.9547 228.96645h11.035415v4.269569h-11.035415z" fill="#fee79b"/><g fill="#ffd200"><path d="m-147.91924 228.96645h11.035415v4.269569h-11.035415z"/><path d="m-136.8839 228.96645h11.035415v4.269569h-11.035415z"/></g></g><g fill="#fee79b"><path d="m-125.84843 228.96645h11.035415v4.269569h-11.035415z" transform="scale(-1 1)"/><path d="m65.153732 224.69688h11.035415v4.269569h-11.035415z"/><path d="m76.189133 224.69688h11.035415v4.269569h-11.035415z"/><path d="m87.224533 224.69688h11.035415v4.269569h-11.035415z"/><path d="m98.259926 224.69688h11.035415v4.269569h-11.035415z"/><path d="m109.29539 224.69688h11.035415v4.269569h-11.035415z"/><g transform="scale(-1 1)"><path d="m-164.4724 224.69688h11.035415v4.269569h-11.035415z"/><path d="m-153.437 224.69688h11.035415v4.269569h-11.035415z"/><path d="m-142.40154 224.69688h11.035415v4.269569h-11.035415z"/><path d="m-131.36613 224.69688h11.035415v4.269569h-11.035415z"/></g><path d="m65.153732 237.50557h5.517704v4.269569h-5.517704z"/><path d="m70.671432 237.50557h11.035415v4.269569h-11.035415z"/></g><path d="m81.706833 237.50557h11.035415v4.269569h-11.035415z" fill="#ffd200"/><path d="m92.742294 237.50557h11.035415v4.269569h-11.035415z" fill="#ffd200"/><path d="m103.77763 237.50557h11.035415v4.269569h-11.035415z" fill="#fee79b"/><g transform="scale(-1 1)"><path d="m-164.4724 237.50557h5.517704v4.269569h-5.517704z" fill="#fee79b"/><path d="m-158.9547 237.50557h11.035415v4.269569h-11.035415z" fill="#fee79b"/><path d="m-147.91924 237.50557h11.035415v4.269569h-11.035415z" fill="#ffd200"/><path d="m-136.8839 237.50557h11.035415v4.269569h-11.035415z" fill="#ffd200"/><path d="m-125.84843 237.50557h11.035415v4.269569h-11.035415z" fill="#fee79b"/></g><path d="m65.153732 233.23601h11.035415v4.269569h-11.035415z" fill="#fee79b"/><g fill="#ffd200"><path d="m76.189133 233.23601h11.035415v4.269569h-11.035415z"/><path d="m87.224533 233.23601h11.035415v4.269569h-11.035415z"/><path d="m98.259926 233.23601h11.035415v4.269569h-11.035415z"/></g><path d="m109.29539 233.23601h11.035415v4.269569h-11.035415z" fill="#fee79b"/><g transform="scale(-1 1)"><path d="m-164.4724 233.23601h11.035415v4.269569h-11.035415z" fill="#fee79b"/><g fill="#ffd200"><path d="m-153.437 233.23601h11.035415v4.269569h-11.035415z"/><path d="m-142.40154 233.23601h11.035415v4.269569h-11.035415z"/><path d="m-131.36613 233.23601h11.035415v4.269569h-11.035415z"/></g></g><path d="m65.153671 246.04469h5.517704v4.269569h-5.517704z" fill="#fee79b"/><path d="m70.671371 246.04469h11.035415v4.269569h-11.035415z" fill="#fee79b"/><path d="m81.706772 246.04469h11.035415v4.269569h-11.035415z" fill="#ffd200"/><path d="m92.742233 246.04469h11.035415v4.269569h-11.035415z" fill="#ffd200"/><path d="m103.77757 246.04469h11.035415v4.269569h-11.035415z" fill="#fee79b"/><g transform="scale(-1 1)"><path d="m-164.47234 246.04469h5.517704v4.269569h-5.517704z" fill="#fee79b"/><path d="m-158.95464 246.04469h11.035415v4.269569h-11.035415z" fill="#fee79b"/><path d="m-147.91917 246.04469h11.035415v4.269569h-11.035415z" fill="#ffd200"/><path d="m-136.88383 246.04469h11.035415v4.269569h-11.035415z" fill="#ffd200"/><path d="m-125.84837 246.04469h11.035415v4.269569h-11.035415z" fill="#fee79b"/></g><path d="m65.153671 241.77513h11.035415v4.269569h-11.035415z" fill="#fee79b"/><g fill="#ffd200"><path d="m76.189072 241.77513h11.035415v4.269569h-11.035415z"/><path d="m87.224472 241.77513h11.035415v4.269569h-11.035415z"/><path d="m98.259865 241.77513h11.035415v4.269569h-11.035415z"/></g><path d="m109.29533 241.77513h11.035415v4.269569h-11.035415z" fill="#fee79b"/><g transform="scale(-1 1)"><path d="m-164.47234 241.77513h11.035415v4.269569h-11.035415z" fill="#fee79b"/><g fill="#ffd200"><path d="m-153.43694 241.77513h11.035415v4.269569h-11.035415z"/><path d="m-142.40147 241.77513h11.035415v4.269569h-11.035415z"/><path d="m-131.36607 241.77513h11.035415v4.269569h-11.035415z"/></g></g><path d="m65.153671 254.58382h5.517704v4.269569h-5.517704z" fill="#fee79b"/><path d="m70.671371 254.58382h11.035415v4.269569h-11.035415z" fill="#fee79b"/><path d="m81.706772 254.58382h11.035415v4.269569h-11.035415z" fill="#ffd200"/><path d="m92.742233 254.58382h11.035415v4.269569h-11.035415z" fill="#ffd200"/><path d="m103.77757 254.58382h11.035415v4.269569h-11.035415z" fill="#fee79b"/><g transform="scale(-1 1)"><path d="m-164.47234 254.58382h5.517704v4.269569h-5.517704z" fill="#fee79b"/><path d="m-158.95464 254.58382h11.035415v4.269569h-11.035415z" fill="#fee79b"/><path d="m-147.91917 254.58382h11.035415v4.269569h-11.035415z" fill="#ffd200"/><path d="m-136.88383 254.58382h11.035415v4.269569h-11.035415z" fill="#ffd200"/><path d="m-125.84837 254.58382h11.035415v4.269569h-11.035415z" fill="#fee79b"/></g><path d="m65.153671 250.31425h11.035415v4.269569h-11.035415z" fill="#fee79b"/><g fill="#ffd200"><path d="m76.189072 250.31425h11.035415v4.269569h-11.035415z"/><path d="m87.224472 250.31425h11.035415v4.269569h-11.035415z"/><path d="m98.259865 250.31425h11.035415v4.269569h-11.035415z"/></g><path d="m109.29533 250.31425h11.035415v4.269569h-11.035415z" fill="#fee79b"/><g transform="scale(-1 1)"><path d="m-164.47234 250.31425h11.035415v4.269569h-11.035415z" fill="#fee79b"/><g fill="#ffd200"><path d="m-153.43694 250.31425h11.035415v4.269569h-11.035415z"/><path d="m-142.40147 250.31425h11.035415v4.269569h-11.035415z"/><path d="m-131.36607 250.31425h11.035415v4.269569h-11.035415z"/></g></g></g></g><path d="m111.54275 225.55107v33.30231h-9.38548v-22.79556c0-5.80221 4.20531-10.50675 9.38548-10.50675z"/><g stroke="#000"><path d="m92.14868 221.6676c-7.16682 0-12.62837 6.42888-12.62837 13.79919v22.78958h9.2831v-22.78958c0-2.42697 1.51954-4.01431 3.34527-4.01431 1.82572 0 3.34525 1.58734 3.34525 4.01431v22.78958h9.28311v-22.78958c0-7.37031-5.46156-13.79919-12.62836-13.79919z" fill="#fee79b"/><g stroke-width=".5"><path d="m92.13542 227.59788c-4.05982 0-7.17379 3.5997-7.17379 7.85341v22.80508a.54940664.54940664 0 0 0 .56636.56635h13.21486a.54940664.54940664 0 0 0 .56635-.56635v-22.80508c0-4.25371-3.11397-7.85341-7.17378-7.85341z" fill="#29569f"/><g fill="none"><path d="m85.66262 234.20669h13.00162" stroke-linecap="round" stroke-linejoin="round"/><path d="m85.54015 236.58278h13.18583"/><path d="m86.569 231.82884h11.14873"/><path d="m92.17206 228.64459v12.56615" stroke-linecap="round" stroke-linejoin="round"/></g></g></g><path d="m92.13347 227.60788c-4.05982 0-7.17179 3.59124-7.17179 7.84495v22.80991a.54940664.54940664 0 0 0 .5696.5696h1.08742v-21.72249c0-4.25371 3.11197-7.84495 7.17179-7.84495 1.46858 0 2.817.46602 3.93542 1.26865-1.29849-1.77921-3.28927-2.92567-5.59244-2.92567z"/><g stroke="#000"><g stroke-linecap="round" stroke-linejoin="round"><path d="m88.08585 229.86707v11.34367" fill="none" stroke-width=".5"/><path d="m96.25824 229.92371v11.28703" fill="none" stroke-width=".5"/><path d="m92.17317 218.91383c-1.47735-.00083-4.30426 1.05719-4.30426 1.05719l1.77457 8.72181c.7711-.34471 1.59264-.49084 2.49194-.49084.91938 0 1.78271.16915 2.56746.52859l1.73681-8.75956s-2.8027-1.05555-4.26652-1.05719zm-8.7218 3.70016s-2.63402 1.45624-3.58689 2.56746c-.96146 1.12168-2.00111 3.96446-2.00111 3.96446l7.81565 4.34203c.1654-.55971.394-1.09358.71737-1.58579.0229-.0453.0519-.0685.0755-.1132.53494-1.01038 1.24747-1.87037 2.15213-2.49195l-5.17267-6.68295zm17.40586 0-5.21043 6.68295c1.04485.71791 1.91528 1.72493 2.45419 2.94502.0156.0262.0226.0492.0377.0755.0427.10028.0746.19936.1132.30205.14339.28426.28694.56176.37757.86841l7.77789-4.34203s-1.03966-2.84278-2.0011-3.96446c-.9529-1.11123-3.54914-2.56746-3.54914-2.56746zm-23.10714 11.89338s-1.20139 2.72949-1.28372 4.191c-.0829 1.47505.79289 4.37978.79289 4.37978l8.26873-1.20821v-5.36146zm28.77065 0-7.77789 2.00111v5.36146l8.30649 1.20821s.87571-2.90473.79289-4.37978c-.0823-1.46151-1.32149-4.191-1.32149-4.191z" fill="#fee79b"/></g><path d="m74.407311 225.55108c5.180161 0 9.385474 4.70454 9.385474 10.50675v22.79556h-9.385474z" fill="#fee79b"/><path d="m77.360961 246.71308h6.512378" fill="none" stroke-width=".5"/></g><path d="m77.773566 246.71308a.73483769 1.1140363 0 0 1 -1.469666 0 .73483769 1.1140363 0 1 1 1.469666 0z"/><path d="m77.360961 253.84135h6.512378" fill="none" stroke="#000" stroke-width=".5"/><path d="m77.773566 253.84133a.73483769 1.1140363 0 0 1 -1.469666 0 .73483769 1.1140363 0 1 1 1.469666 0z"/><path d="m77.360961 239.58483h6.512378" fill="none" stroke="#000" stroke-width=".5"/><path d="m77.773566 239.58483a.73483769 1.1140363 0 0 1 -1.469666 0 .73483769 1.1140363 0 1 1 1.469666 0z"/><path d="m109.88574 225.55108v33.30231h-9.38547v-22.79556c0-5.80221 4.20531-10.50675 9.38547-10.50675z" fill="#fee79b" stroke="#000"/><path d="m106.9384 246.71308c-6.64006 0-6.51237 0-6.51237 0" fill="none" stroke="#000" stroke-width=".5"/><path d="m106.52581 246.71308a.73483769 1.1140363 0 0 0 1.46966 0 .73483769 1.1140363 0 1 0 -1.46966 0z"/><path d="m106.9384 253.84135c-6.64006 0-6.51237 0-6.51237 0" fill="none" stroke="#000" stroke-width=".5"/><path d="m106.52581 253.84133a.73483769 1.1140363 0 0 0 1.46966 0 .73483769 1.1140363 0 1 0 -1.46966 0z"/><path d="m106.9384 239.58483c-6.64006 0-6.51237 0-6.51237 0" fill="none" stroke="#000" stroke-width=".5"/><path d="m106.52581 239.58483a.73483769 1.1140363 0 0 0 1.46966 0 .73483769 1.1140363 0 1 0 -1.46966 0z"/><path d="m155.54275 225.55107v33.30231h-9.38547v-22.79556c0-5.80221 4.2053-10.50675 9.38547-10.50675z"/><g stroke="#000"><path d="m136.14868 221.6676c-7.16682 0-12.62836 6.42888-12.62836 13.79919v22.78958h9.28309v-22.78958c0-2.42697 1.51954-4.01431 3.34527-4.01431 1.82572 0 3.34526 1.58734 3.34526 4.01431v22.78958h9.2831v-22.78958c0-7.37031-5.46155-13.79919-12.62836-13.79919z" fill="#fee79b" stroke-width=".5"/><path d="m136.13542 227.59788c-4.05982 0-7.17378 3.5997-7.17378 7.85341v22.80508a.54940664.54940664 0 0 0 .56635.56635h13.21486a.54940664.54940664 0 0 0 .56636-.56635v-22.80508c0-4.25371-3.11397-7.85341-7.17379-7.85341z" fill="#29569f"/><g fill="none" stroke-width=".5"><path d="m129.66262 234.20669h13.00163" stroke-linecap="round" stroke-linejoin="round"/><path d="m129.54015 236.58278h13.18584"/><path d="m130.569 231.82884h11.14873"/><path d="m136.17206 228.64459v12.56615" stroke-linecap="round" stroke-linejoin="round"/></g></g><path d="m136.13347 227.60788c-4.05982 0-7.17178 3.59124-7.17178 7.84495v22.80991a.54940664.54940664 0 0 0 .5696.5696h1.08742v-21.72249c0-4.25371 3.11196-7.84495 7.17178-7.84495 1.46859 0 2.817.46602 3.93543 1.26865-1.29849-1.77921-3.28928-2.92567-5.59245-2.92567z"/><g stroke="#000"><g stroke-linecap="round" stroke-linejoin="round"><path d="m132.08586 229.86707v11.34367" fill="none" stroke-width=".5"/><path d="m140.25824 229.92371v11.28703" fill="none" stroke-width=".5"/><path d="m136.17318 218.91383c-1.47736-.00083-4.30427 1.05719-4.30427 1.05719l1.77457 8.72181c.7711-.34471 1.59264-.49084 2.49194-.49084.91938 0 1.78271.16915 2.56746.52859l1.73682-8.75956s-2.8027-1.05555-4.26652-1.05719zm-8.72181 3.70016s-2.63401 1.45624-3.58689 2.56746c-.96145 1.12168-2.00111 3.96446-2.00111 3.96446l7.81565 4.34203c.1654-.55971.394-1.09358.71737-1.58579.0229-.0453.0519-.0685.0755-.1132.53494-1.01038 1.24747-1.87037 2.15213-2.49195l-5.17267-6.68295zm17.40587 0-5.21044 6.68295c1.04485.71791 1.91528 1.72493 2.45419 2.94502.0156.0262.0226.0492.0377.0755.0427.10028.0746.19936.11321.30205.14339.28426.28693.56176.37756.86841l7.7779-4.34203s-1.03967-2.84278-2.00111-3.96446c-.95289-1.11123-3.54914-2.56746-3.54914-2.56746zm-23.10714 11.89338s-1.2014 2.72949-1.28373 4.191c-.0829 1.47505.79289 4.37978.79289 4.37978l8.26873-1.20821v-5.36146zm28.77065 0-7.7779 2.00111v5.36146l8.30649 1.20821s.87571-2.90473.7929-4.37978c-.0823-1.46151-1.32149-4.191-1.32149-4.191z" fill="#fee79b"/></g><path d="m118.40731 225.55108c5.18016 0 9.38547 4.70454 9.38547 10.50675v22.79556h-9.38547z" fill="#fee79b"/><path d="m121.36096 246.71308h6.51238" fill="none" stroke-width=".5"/></g><path d="m121.77357 246.71308a.73483769 1.1140363 0 0 1 -1.46967 0 .73483769 1.1140363 0 1 1 1.46967 0z"/><path d="m121.36096 253.84135h6.51238" fill="none" stroke="#000" stroke-width=".5"/><path d="m121.77357 253.84133a.73483769 1.1140363 0 0 1 -1.46967 0 .73483769 1.1140363 0 1 1 1.46967 0z"/><path d="m121.36096 239.58483h6.51238" fill="none" stroke="#000" stroke-width=".5"/><path d="m121.77357 239.58483a.73483769 1.1140363 0 0 1 -1.46967 0 .73483769 1.1140363 0 1 1 1.46967 0z"/><path d="m153.88574 225.55108v33.30231h-9.38547v-22.79556c0-5.80221 4.20531-10.50675 9.38547-10.50675z" fill="#fee79b" stroke="#000"/><path d="m150.9384 246.71308c-6.64006 0-6.51237 0-6.51237 0" fill="none" stroke="#000" stroke-width=".5"/><path d="m150.52581 246.71308a.73483769 1.1140363 0 0 0 1.46966 0 .73483769 1.1140363 0 1 0 -1.46966 0z"/><path d="m150.9384 253.84135c-6.64006 0-6.51237 0-6.51237 0" fill="none" stroke="#000" stroke-width=".5"/><path d="m150.52581 253.84133a.73483769 1.1140363 0 0 0 1.46966 0 .73483769 1.1140363 0 1 0 -1.46966 0z"/><path d="m150.9384 239.58483c-6.64006 0-6.51237 0-6.51237 0" fill="none" stroke="#000" stroke-width=".5"/><path d="m150.52581 239.58483a.73483769 1.1140363 0 0 0 1.46966 0 .73483769 1.1140363 0 1 0 -1.46966 0z"/><g stroke="#000" stroke-width=".5"><path d="m115.6803 14.875s-5.10786 6.849662-8.15625 10.78125h-.21875-.0312v.3125c-.83576 1.073937-1.4104 1.793036-1.71875 2.125h-.65625v-2.4375h-2.375v5.96875h1.59375l-.28125 2.96875h.34375l-.0312.5h-.0937v4.28125h-.0312v-2.6875l-.21875 2.6875-.375 4.28125-.375 4.25-.375 4.28125-.34375 4.25-.375 4.28125-.28125 3.09375h-2.8125v-4.5h-4.71875v4.5h-4.6875v-4.5h-4.6875v4.5h-4.71875v-4.5h-4.6875v4.5h-4.71875v-4.5h-4.6875v12h4.6875.6875l-.28125 1.4375h.125c-.0171.08409-.0453.165917-.0625.25-.28901 1.41721-.58659 2.83267-.875 4.25-.29044 1.42733-.58501 2.85383-.875 4.28125-.28958 1.42539-.55446 2.8558-.84375 4.28125-.28767 1.41748-.58745 2.8325-.875 4.25-.28958 1.42751-.58538 2.85375-.875 4.28125-.28759 1.41749-.58721 2.83255-.875 4.25-.28941 1.42542-.55397 2.8559-.84375 4.28125h-2v4.28125 4.28125h11.5625 11.53125 11.5625 11.53125 11.5625 11.53125 11.5625 11.53125 11.5625v-4.28125-4.28125h-1.5c-.29009-1.42529-.55413-2.85587-.84375-4.28125-.288-1.41741-.5873-2.83253-.875-4.25-.28973-1.42748-.58541-2.85374-.875-4.28125-.28756-1.4175-.58742-2.8325-.875-4.25-.2892-1.42547-.55437-2.85582-.84375-4.28125-.28979-1.42746-.58485-2.85386-.875-4.28125-.28811-1.41739-.58638-2.83271-.875-4.25-.0171-.08409-.0454-.16591-.0625-.25h.0625l-.28125-1.4375h.78125 4.6875v-12h-4.6875v4.5h-4.6875v-4.5h-4.71875v4.5h-4.6875v-4.5h-4.6875v4.5h-4.71875v-4.5h-4.6875v4.5h-2.875l-.28125-3.09375-.375-4.28125-.34375-4.25-.375-4.28125-.375-4.25-.375-4.28125-.375-4.28125-.0312-.5h.40625l-.28125-2.96875h2.3125v-5.96875h-2.375v2.4375h-.65625c-.30986-.335212-.889-1.056423-1.71875-2.125v-.3125h-.0312-.21875c-3.04172-3.931789-8.09375-10.78125-8.09375-10.78125z" stroke-linecap="round" stroke-linejoin="round"/><g fill="#fee79b"><path d="m115.66716 14.88316s-9.68247 13.03155-10.34765 13.48286l10.34765.43879 10.32414-.43879c-.66518-.45131-10.32414-13.48286-10.32414-13.48286z" stroke-linecap="round" stroke-linejoin="round"/><path d="m104.02694 36.68607-.21875 2.6875h.21875z"/><path d="m104.04043 35.103031h11.035415v4.269569h-11.035415z"/><path d="m126.12069 35.09232v4.28125h.625l-.375-4.28125z"/><path d="m-126.11123 35.103031h11.035415v4.269569h-11.035415z" transform="scale(-1 1)"/><path d="m104.52694 30.87357-.375 4.21875h5.40625v-4.21875z"/><path d="m109.55819 30.833469h11.035415v4.269569h-11.035415z"/><path d="m120.58944 30.87357v4.21875h5.78125l-.375-4.21875z"/><path d="m103.43319 43.65482-.375 4.25h.96875v-4.25z"/><path d="m104.04043 43.642155h11.035415v4.269569h-11.035415z"/><path d="m126.12069 43.65482v4.25h1.375l-.375-4.25z"/><path d="m-126.11123 43.642155h11.035415v4.269569h-11.035415z" transform="scale(-1 1)"/><path d="m103.80819 39.37357-.375 4.28125h6.125v-4.28125z"/><path d="m109.55819 39.372593h11.035415v4.269569h-11.035415z"/><path d="m120.58944 39.37357v4.28125h6.53125l-.375-4.28125z"/><path d="m102.68319 52.18607-.34375 4.25h1.6875v-4.25z"/><path d="m104.04043 52.181278h11.035415v4.269569h-11.035415z"/><path d="m126.12069 52.18607v4.25h2.09375l-.34375-4.25z"/><path d="m-126.11123 52.181278h11.035415v4.269569h-11.035415z" transform="scale(-1 1)"/><path d="m103.05819 47.90482-.375 4.28125h6.875v-4.28125z"/><path d="m109.55819 47.911716h11.035415v4.269569h-11.035415z"/><path d="m120.58944 47.90482v4.28125h7.28125l-.375-4.28125z"/><path d="m101.96444 60.71732-.375 4.28125h2.4375v-4.28125z"/><path d="m104.04037 60.720402h11.035415v4.269569h-11.035415z"/><path d="m126.12069 60.71732v4.28125h2.84375l-.375-4.28125z"/><path d="m-126.11117 60.720402h11.035415v4.269569h-11.035415z" transform="scale(-1 1)"/><path d="m102.33944 56.43607-.375 4.28125h7.59375v-4.28125z"/><path d="m109.55813 56.45084h11.035415v4.269569h-11.035415z"/><path d="m120.58944 56.43607v4.28125h8l-.375-4.28125z"/><path d="m101.24569 69.24857-.375 4.21875h3.15625v-4.21875z"/><path d="m104.04037 69.259529h11.035415v4.269569h-11.035415z"/><path d="m126.12069 69.24857v4.21875h3.59375l-.375-4.21875z"/><path d="m-126.11117 69.259529h11.035415v4.269569h-11.035415z" transform="scale(-1 1)"/><path d="m101.58944 64.99857-.34375 4.25h8.3125v-4.25z"/><path d="m109.55813 64.989967h11.035415v4.269569h-11.035415z"/><path d="m120.58944 64.99857v4.25h8.75l-.375-4.25z"/></g></g><path d="m109.63892 40.041382h3.111856v7.620335h-3.111856z"/><path d="m118.56757 40.041382h3.111856v7.620335h-3.111856z"/><path d="m104.15005 31.39612-.30432 3.20972h22.89367l-.30431-3.20972h-10.58071-10.81481z" fill="#fee79b"/><g stroke="#000"><path d="m102.52907 25.64462v5.99446h26.25387v-5.99446h-2.37815v2.45556h-2.37815v-2.45556h-.0235-2.37815v2.45556h-2.37815v-2.45556h-2.4017v2.45556h-2.37816v-2.45556h-2.37815-.0235v2.45556h-2.37816v-2.45556h-2.37815-.0235v2.45556h-2.37816v-2.45556z" fill="#fee79b" stroke-linecap="round" stroke-linejoin="round"/><g stroke-width=".5"><g fill="#fee79b"><path d="m71.8855 69.16501c-.26187 1.28096-.52 2.56267-.78125 3.84375h9.28125v-3.84375z"/><path d="m80.387268 68.730316h11.545636v4.269569h-11.545636z"/><path d="m91.932922 68.730316h11.545636v4.269569h-11.545636z"/><path d="m103.47845 68.730316h11.545636v4.269569h-11.545636z"/><path d="m149.66675 69.16501v3.84375h9.75c-.2609-1.28115-.51981-2.56271-.78125-3.84375z"/><g transform="scale(-1 1)"><path d="m-149.66095 68.730316h11.545636v4.269569h-11.545636z"/><path d="m-138.11542 68.730316h11.545636v4.269569h-11.545636z"/><path d="m-126.5697 68.730316h11.545636v4.269569h-11.545636z"/></g><path d="m70.22925 77.25876c-.29044 1.42733-.58501 2.85383-.875 4.28125h11.03125v-4.28125z"/><path d="m80.387268 77.269501h11.545636v4.269569h-11.545636z"/><path d="m91.932922 77.269501h11.545636v4.269569h-11.545636z"/></g><path d="m103.47845 77.269501h11.545636v4.269569h-11.545636z" fill="#ffd200"/><g fill="#fee79b"><path d="m149.66675 77.25876v4.28125h11.5c-.28979-1.42746-.58485-2.85386-.875-4.28125z"/><g transform="scale(-1 1)"><path d="m-149.66095 77.269501h11.545636v4.269569h-11.545636z"/><path d="m-138.11542 77.269501h11.545636v4.269569h-11.545636z"/></g></g><path d="m-126.5697 77.269501h11.545636v4.269569h-11.545636z" fill="#ffd200" transform="scale(-1 1)"/><g fill="#fee79b"><path d="m71.10425 73.00876c-.28901 1.41721-.58659 2.83267-.875 4.25h4.375v-4.25z"/><path d="m74.614441 72.999908h11.545636v4.269569h-11.545636z"/><path d="m86.160034 72.999908h11.545636v4.269569h-11.545636z"/><path d="m97.705688 72.999908h11.545636v4.269569h-11.545636z"/><path d="m109.25134 72.999908h11.545636v4.269569h-11.545636z"/><path d="m155.448 73.00876v4.25h4.84375c-.28811-1.41739-.58638-2.83271-.875-4.25z"/><g transform="scale(-1 1)"><path d="m-155.43384 72.999908h11.545636v4.269569h-11.545636z"/><path d="m-143.88818 72.999908h11.545636v4.269569h-11.545636z"/><path d="m-132.34253 72.999908h11.545636v4.269569h-11.545636z"/></g><path d="m68.5105 85.82126c-.28767 1.41748-.58745 2.8325-.875 4.25h1.21875v-4.25z"/><path d="m68.841614 85.808563h11.545636v4.269569h-11.545636z"/><path d="m80.387268 85.808563h11.545636v4.269569h-11.545636z"/><path d="m91.932922 85.808563h11.545636v4.269569h-11.545636z"/></g><path d="m103.47845 85.808563h11.545636v4.269569h-11.545636z" fill="#ffd200"/><g fill="#fee79b"><path d="m161.198 85.82126v4.25h1.6875c-.28756-1.4175-.58742-2.8325-.875-4.25z"/><g transform="scale(-1 1)"><path d="m-161.20667 85.808563h11.545636v4.269569h-11.545636z"/><path d="m-149.66095 85.808563h11.545636v4.269569h-11.545636z"/><path d="m-138.11542 85.808563h11.545636v4.269569h-11.545636z"/></g></g><path d="m-126.5697 85.808563h11.545636v4.269569h-11.545636z" fill="#ffd200" transform="scale(-1 1)"/><g fill="#fee79b"><path d="m69.35425 81.54001c-.28958 1.42539-.55446 2.8558-.84375 4.28125h6.09375v-4.28125z"/><path d="m74.614441 81.539032h11.545636v4.269569h-11.545636z"/><path d="m86.160034 81.539032h11.545636v4.269569h-11.545636z"/></g><path d="m97.705688 81.539032h11.545636v4.269569h-11.545636z" fill="#ffd200"/><path d="m109.25134 81.539032h11.545636v4.269569h-11.545636z" fill="#ffd200"/><g fill="#fee79b"><path d="m155.448 81.54001v4.28125h6.5625c-.2892-1.42547-.55437-2.85582-.84375-4.28125z"/><g transform="scale(-1 1)"><path d="m-155.43384 81.539032h11.545636v4.269569h-11.545636z"/><path d="m-143.88818 81.539032h11.545636v4.269569h-11.545636z"/></g></g><path d="m-132.34253 81.539032h11.545636v4.269569h-11.545636z" fill="#ffd200" transform="scale(-1 1)"/><g fill="#fee79b"><path d="m66.7605 94.35251c-.28759 1.41749-.58721 2.83255-.875 4.25h2.96875v-4.25z"/><path d="m68.841614 94.347748h11.545636v4.269569h-11.545636z"/><path d="m80.387268 94.347748h11.545636v4.269569h-11.545636z"/><path d="m91.932922 94.347748h11.545636v4.269569h-11.545636z"/></g><path d="m103.47845 94.347748h11.545636v4.269569h-11.545636z" fill="#ffd200"/><g fill="#fee79b"><path d="m161.198 94.35251v4.25h3.4375c-.288-1.41741-.5873-2.83253-.875-4.25z"/><g transform="scale(-1 1)"><path d="m-161.20667 94.347748h11.545636v4.269569h-11.545636z"/><path d="m-149.66095 94.347748h11.545636v4.269569h-11.545636z"/><path d="m-138.11542 94.347748h11.545636v4.269569h-11.545636z"/></g></g><path d="m-126.5697 94.347748h11.545636v4.269569h-11.545636z" fill="#ffd200" transform="scale(-1 1)"/><g fill="#fee79b"><path d="m67.6355 90.07126c-.28958 1.42751-.58538 2.85375-.875 4.28125h7.84375v-4.28125z"/><path d="m74.614441 90.078156h11.545636v4.269569h-11.545636z"/><path d="m86.160034 90.078156h11.545636v4.269569h-11.545636z"/></g><path d="m97.705688 90.078156h11.545636v4.269569h-11.545636z" fill="#ffd200"/><path d="m109.25134 90.078156h11.545636v4.269569h-11.545636z" fill="#ffd200"/><g fill="#fee79b"><path d="m155.448 90.07126v4.28125h8.3125c-.28973-1.42748-.58541-2.85374-.875-4.28125z"/><g transform="scale(-1 1)"><path d="m-155.43384 90.078156h11.545636v4.269569h-11.545636z"/><path d="m-143.88818 90.078156h11.545636v4.269569h-11.545636z"/></g></g><path d="m-132.34253 90.078156h11.545636v4.269569h-11.545636z" fill="#ffd200" transform="scale(-1 1)"/><g fill="#fee79b"><path d="m63.068729 102.88681h5.772814v4.269569h-5.772814z"/><path d="m68.841553 102.88681h11.545636v4.269569h-11.545636z"/><path d="m80.387207 102.88681h11.545636v4.269569h-11.545636z"/><path d="m91.932861 102.88681h11.545636v4.269569h-11.545636z"/></g><path d="m103.47839 102.88681h11.545636v4.269569h-11.545636z" fill="#ffd200"/><g transform="scale(-1 1)"><g fill="#fee79b"><path d="m-166.97937 102.88681h5.772814v4.269569h-5.772814z"/><path d="m-161.2066 102.88681h11.545636v4.269569h-11.545636z"/><path d="m-149.66089 102.88681h11.545636v4.269569h-11.545636z"/><path d="m-138.11536 102.88681h11.545636v4.269569h-11.545636z"/></g><path d="m-126.56964 102.88681h11.545636v4.269569h-11.545636z" fill="#ffd200"/></g><g fill="#fee79b"><path d="m65.8855 98.60251c-.28941 1.42542-.55397 2.8559-.84375 4.28125h9.5625v-4.28125z"/><path d="m74.61438 98.617279h11.545636v4.269569h-11.545636z"/><path d="m86.159973 98.617279h11.545636v4.269569h-11.545636z"/></g><path d="m97.705627 98.617279h11.545636v4.269569h-11.545636z" fill="#ffd200"/><path d="m109.25128 98.617279h11.545636v4.269569h-11.545636z" fill="#ffd200"/><g fill="#fee79b"><path d="m155.448 98.60251v4.28125h10.03125c-.29009-1.42529-.55413-2.85587-.84375-4.28125z"/><g transform="scale(-1 1)"><path d="m-155.43378 98.617279h11.545636v4.269569h-11.545636z"/><path d="m-143.88812 98.617279h11.545636v4.269569h-11.545636z"/></g></g><path d="m-132.34247 98.617279h11.545636v4.269569h-11.545636z" fill="#ffd200" transform="scale(-1 1)"/><g fill="#fee79b"><path d="m63.068729 107.1564h11.545636v4.269569h-11.545636z"/><path d="m74.61438 107.1564h11.545636v4.269569h-11.545636z"/><path d="m86.159973 107.1564h11.545636v4.269569h-11.545636z"/></g><path d="m97.705627 107.1564h11.545636v4.269569h-11.545636z" fill="#ffd200"/><path d="m109.25128 107.1564h11.545636v4.269569h-11.545636z" fill="#ffd200"/><g transform="scale(-1 1)"><g fill="#fee79b"><path d="m-166.97937 107.1564h11.545636v4.269569h-11.545636z"/><path d="m-155.43378 107.1564h11.545636v4.269569h-11.545636z"/><path d="m-143.88812 107.1564h11.545636v4.269569h-11.545636z"/></g><path d="m-132.34247 107.1564h11.545636v4.269569h-11.545636z" fill="#ffd200"/></g></g></g><path d="m71.86988 68.82625-.8125 3.92454h88.375l-.8125-3.92454h-14.46875-14.4375-14.46875-14.4375-14.46875z" fill="#fee79b"/><path d="m65.96444 59.30249v12.00342h4.6875 4.71875 4.6875 4.71875 4.6875 4.6875 4.71875 4.6875 4.6875 4.71875 4.6875 4.6875 4.71875 4.6875 4.6875 4.71875 4.6875 4.6875 4.71875 4.6875 4.6875c0-5.33448 0-6.66895 0-12.00342h-4.6875v4.50318h-4.6875v-4.50318h-4.71875v4.50318h-4.6875v-4.50318h-4.6875v4.50318h-4.71875v-4.50318h-4.6875v4.50318h-4.6875v-4.50318h-4.71875v4.50318h-4.6875v-4.50318h-4.6875v4.50318h-4.71875v-4.50318h-4.6875v4.50318h-4.6875v-4.50318h-4.71875v4.50318h-4.6875v-4.50318h-4.6875v4.50318h-4.71875v-4.50318h-4.6875v4.50318h-4.71875v-4.50318z" fill="#fee79b" stroke="#000" stroke-linecap="round" stroke-linejoin="round"/><path d="m82.052063 74.934204h6.481015v16.773773h-6.481015z"/><path d="m142.05206 74.934204h6.481015v16.773773h-6.481015z"/><path d="m133.71677 78.12937v33.30231h-9.38547v-22.79556c0-5.80221 4.2053-10.50675 9.38547-10.50675z"/><g stroke="#000"><path d="m114.3227 74.2459c-7.16682 0-12.62836 6.42888-12.62836 13.79919v22.78958h9.28309v-22.78958c0-2.42697 1.51954-4.01431 3.34527-4.01431 1.82572 0 3.34526 1.58734 3.34526 4.01431v22.78958h9.2831v-22.78958c0-7.37031-5.46155-13.79919-12.62836-13.79919z" fill="#fee79b"/><path d="m114.30944 80.17618c-4.05982 0-7.17378 3.5997-7.17378 7.85341v22.80508a.54940664.54940664 0 0 0 .56635.56635h13.21486a.54940664.54940664 0 0 0 .56636-.56635v-22.80508c0-4.25371-3.11397-7.85341-7.17379-7.85341z" fill="#29569f"/><g fill="none" stroke-width=".5"><path d="m107.83664 86.78499h13.00163" stroke-linecap="round" stroke-linejoin="round"/><path d="m107.71417 89.16108h13.18584"/><path d="m108.74302 84.40714h11.14873"/><path d="m114.34608 81.22289v12.56615" stroke-linecap="round" stroke-linejoin="round"/></g></g><path d="m114.30749 80.18618c-4.05982 0-7.17178 3.59124-7.17178 7.84495v22.80991a.54940664.54940664 0 0 0 .5696.5696h1.08742v-21.72249c0-4.25371 3.11196-7.84495 7.17178-7.84495 1.46859 0 2.817.46602 3.93543 1.26865-1.29849-1.77921-3.28928-2.92567-5.59245-2.92567z"/><g stroke="#000"><g stroke-linecap="round" stroke-linejoin="round"><path d="m110.25988 82.44537v11.34367" fill="none" stroke-width=".5"/><path d="m118.43226 82.50201v11.28703" fill="none" stroke-width=".5"/><path d="m114.3472 71.49213c-1.47736-.00083-4.30427 1.05719-4.30427 1.05719l1.77457 8.72181c.7711-.34471 1.59264-.49084 2.49194-.49084.91938 0 1.78271.16915 2.56746.52859l1.73682-8.75956s-2.8027-1.05555-4.26652-1.05719zm-8.72181 3.70016s-2.63401 1.45624-3.58689 2.56746c-.96145 1.12168-2.00111 3.96446-2.00111 3.96446l7.81565 4.34203c.1654-.55971.394-1.09358.71737-1.58579.0229-.0453.0519-.0685.0755-.1132.53494-1.01038 1.24747-1.87037 2.15213-2.49195l-5.17267-6.68295zm17.40587 0-5.21044 6.68295c1.04485.71791 1.91528 1.72493 2.45419 2.94502.0156.0262.0226.0492.0377.0755.0427.10028.0746.19936.11321.30205.14339.28426.28693.56176.37756.86841l7.7779-4.34203s-1.03967-2.84278-2.00111-3.96446c-.95289-1.11123-3.54914-2.56746-3.54914-2.56746zm-23.10714 11.89338s-1.2014 2.72949-1.28373 4.191c-.0829 1.47505.79289 4.37978.79289 4.37978l8.26873-1.20821v-5.36146zm28.77065 0-7.7779 2.00111v5.36146l8.30649 1.20821s.87571-2.90473.7929-4.37978c-.0823-1.46151-1.32149-4.191-1.32149-4.191z" fill="#fee79b"/></g><path d="m96.581331 78.129377c5.180159 0 9.385469 4.704545 9.385469 10.506751v22.795562h-9.385469z" fill="#fee79b"/><path d="m99.534981 99.291382h6.512379" fill="none" stroke-width=".5"/></g><path d="m99.947586 99.291382a.73483769 1.1140363 0 0 1 -1.469666 0 .73483769 1.1140363 0 1 1 1.469666 0z"/><path d="m99.534981 106.41965h6.512379" fill="none" stroke="#000" stroke-width=".5"/><path d="m99.947586 106.41963a.73483769 1.1140363 0 0 1 -1.469666 0 .73483769 1.1140363 0 1 1 1.469666 0z"/><path d="m99.534981 92.163129h6.512379" fill="none" stroke="#000" stroke-width=".5"/><path d="m99.947586 92.163129a.73483769 1.1140363 0 0 1 -1.469666 0 .73483769 1.1140363 0 1 1 1.469666 0z"/><path d="m132.05974 78.129377v33.302313h-9.38547v-22.795562c0-5.802206 4.20531-10.506751 9.38547-10.506751z" fill="#fee79b" stroke="#000"/><path d="m129.1124 99.291382c-6.64006 0-6.51237 0-6.51237 0" fill="none" stroke="#000" stroke-width=".5"/><path d="m128.69981 99.291382a.73483769 1.1140363 0 0 0 1.46966 0 .73483769 1.1140363 0 1 0 -1.46966 0z"/><path d="m129.1124 106.41965c-6.64006 0-6.51237 0-6.51237 0" fill="none" stroke="#000" stroke-width=".5"/><path d="m128.69981 106.41963a.73483769 1.1140363 0 0 0 1.46966 0 .73483769 1.1140363 0 1 0 -1.46966 0z"/><path d="m129.1124 92.163129c-6.64006 0-6.51237 0-6.51237 0" fill="none" stroke="#000" stroke-width=".5"/><path d="m128.69981 92.163129a.73483769 1.1140363 0 0 0 1.46966 0 .73483769 1.1140363 0 1 0 -1.46966 0z"/><g fill="none" stroke="#000"><path d="m115.6875 14.875-10.1249 13.2186h-.65625v-2.4375h-2.375v5.96875h1.59375l-.28125 2.96875h.34375l-.0312.5h-.125v1.59375l-2.34375 27.125h-2.8125v-4.5h-4.71875v4.5h-4.6875v-4.5h-4.6875v4.5h-4.71875v-4.5h-4.6875v4.5h-4.71875v-4.5h-4.6875v12h5.375l-6.3125 31.5625h-1.96875v8.5625h103.9375v-8.5625h-.0312-1.46875l-6.34375-31.5625h5.46875v-12h-4.6875v4.5h-4.6875v-4.5h-4.71875v4.5h-4.6875v-4.5h-4.6875v4.5h-4.71875v-4.5h-4.6875v4.5h-2.875l-2.5-28.71875-.0312-.5h.40625l-.28125-2.96875h2.3125v-5.96875h-2.375v2.4375h-.65625z" stroke-linecap="round" stroke-linejoin="round"/><path d="m77.1875 161.375-6.71875 13.09375h2.96875v31.09375h-11.375v7.625h.34375v.34375h2.75v45.3125h99.3125v-45.3125h3.53125v-7.625h-.34375v-.34375h-11.375v-32.40625l3-.6875-6.21875-11 .0312-.0937h-11.25l-6.75 13.09375h2.96875l.0312 31.09375h-14.125v-32.40625l3-.6875-6.21865-10.9688.0312-.125h-11.28125l-6.71875 13.09375h3v31.09375h-14.125v-32.4375l2.96875-.65625h.03125l-6.2187-10.96875.03125-.125z" stroke-linecap="round" stroke-linejoin="round"/><path d="m151.36932 174.2388v31.33406"/><path d="m119.05112 174.2388v31.33406"/><path d="m86.873515 174.43327v31.33406"/></g></svg>