<svg height="204.27728" viewBox="0 0 180.15308 204.27728" width="180.15308" xmlns="http://www.w3.org/2000/svg"><ellipse cx="90.076538" cy="98.721554" fill="#1c3481" rx="90.076538" ry="90.898682"/><g fill="#f1bc00" transform="translate(-5.502724 -5.924156)"><ellipse cx="95.908852" cy="25.133654" rx="17.962311" ry="18.209497" stroke="#1c3481" stroke-width="2"/><path d="m71.532045 206.43935-4.122087-32.2921.0437-.67003.33501-.20392.553496-.0874 1.019598.32045 2.563559.67002 2.884004.87394 3.4375.81568 4.631886.81567 5.942796.43697 5.933801.40626 5.520522.1236 5.47933-.61797 5.52053-.49438 4.0374-.78276 4.94375-1.23594 5.27334-1.44193.87077-.19549.43697.13109.37871.16023.36414.39327-4.12208 32.56885-3.26272.99047-4.26491.68146-5.10855.82396-3.62542.57677-4.28459.32959h-4.119792l-4.943755.16479-5.85011-.65917-6.097298-.74156-5.602922-.82396z" stroke="#1c3481"/><path d="m42.997881 41.133474-7.10805-.05826-3.670551 3.554026-4.602755 4.544491-3.67055 5.36017-3.320975 5.59322-3.495763 6.933263-2.388771 5.36017-1.922669 5.709745-1.340043 4.369704-.990466 5.418432-.9322032 5.768008-.2913136 5.185382-.2330508 6.059315.4078389 11.4195.9322037 5.59322 1.106991 5.18538 1.631356 6.05932 2.097458 4.8358 2.330508 5.30191.932204 1.80615 1.573093 1.45656 1.922669.75742 1.573094.23305 1.51483.40784.873941.23305.466102.34958.582627.99046.757415 1.57309 1.398305 2.15572 1.514831 2.44704 2.097457 2.38877 2.447034 2.5053 2.854873 2.73834 3.728813 3.55403 2.913136 2.38877 2.213983 1.57309 1.165254.23305 1.165255-.0583 1.106991-.34957.873941-.46611.815678-.81567.815678-1.22352.349576-1.57309.174788-2.56356-.233051-1.107-.174788-1.74788-.582627-1.51483-.699152-1.34004-.932204-1.04873-1.398305-1.28178-2.039195-1.28178-1.573093-1.28178-1.340042-1.3983-.932204-1.10699-.582627-2.27225-.582627-2.79661.233051-1.45657.116525-2.03919.699153-1.51483-5.476695-12.29344-3.612288-13.28389-.407839-13.63348.699152-9.438554 4.020127-13.51695 6.350636-9.788135 4.71928-6.292373 6.933262-6.583687 3.903602-3.554025-.407839-3.903602v-5.185344l3.262712-1.048729 2.913136-1.51483 1.864406-1.573094.64089-1.398305.349576-1.573093-.174788-1.864407-.64089-2.330508-1.048728-1.631356-.990466-.757415-1.340043-.524365-1.922669-.116525-1.28178.407839-2.15572.990466-1.980933.990466-3.961864 2.15572-1.980932 1.165255-3.787076 2.330508-2.447034 1.631356-1.398305 1.340042z"/><path d="m155.73623 161.73729-2.38877 2.9714-2.79661 2.91313-3.26271 2.44704-1.68962.99046-1.98093.17479-1.45657-.4661-1.34005-.93221-1.10699-.99046-.52436-1.04873-.34958-1.16525-.0583-1.74789.34958-2.15572.81567-2.03919.99047-1.74788 1.22352-1.5731 1.63135-1.68961 1.63136-.87394 1.22352-.81568 1.04872-1.16526.99047-1.22351.29131-1.63136.29132-2.73835-.23305-1.8644-.93221-2.33051.17479-1.92267 3.20445-5.30191 3.78708-8.50635 3.14618-11.94386 1.16526-17.478814-3.37924-14.449153-6.93326-12.526483-8.85593-10.545551-8.66207-6.717526.24719-4.861359.0824-5.355735-3.29584-1.565523-2.80146-1.483126-1.64792-1.235939-1.1098-1.590644-.0583-1.281779.23305-1.689619.81568-1.747881.99047-1.340043 1.04873-1.048729 1.04873-.699152 1.45656-.08739 2.30138.349576 2.18485.64089 2.65096 1.136123 4.02012 2.272246 2.9714 1.922669 3.64142 3.058792 2.73835 2.330509h8.09852l3.55402 3.583157 2.85487 3.757945 2.86926 3.863869 2.88386 4.366983 2.51308 3.790212 2.38948 5.685319 2.47187 5.808912 1.64792 4.119796 1.27714 4.078598 1.02995 4.078598.82396 4.119796.32958 4.820161.1236 4.160994.25524 8.277041-1.19866 16.3714-2.18763 9.17508-2.0599 6.67407-2.76026 6.67407-1.85391 1.35953-1.19474.94755-1.60672.28839-1.60672.24719-1.52432.49437-3.29584 5.47933z"/></g><ellipse cx="90.570915" cy="19.456688" fill="#fff" rx="13.269736" ry="13.269735" stroke="#1c3481" stroke-width="1.992013"/><g fill="#009847" transform="translate(-5.502724 -5.924156)"><path d="m56.980932 37.870762-2.447034 2.213983-3.262711 1.165255-2.680085 1.165254-2.56356.932203-3.495762 1.514831-2.79661 2.213983-1.048729 2.213983.116525 1.048729 1.900617-.404157 1.936304-.782761 2.0187-.782761 2.307086-1.153543 2.0187-.823959 2.059898-1.235939 1.936304-1.194741 1.318335-.988751 1.112345-1.277136.865157-1.400731z"/><path d="m30.9375 67.118644 2.039195-1.806144 2.388771-2.039195 2.330509-1.980932 2.213983-2.505297 1.806144-1.980932 1.864407-1.864407 2.15572-2.330509 1.689619-2.505296-1.864407.524364-2.097458.990466-2.272246 1.223517-3.320974 1.92267-2.155721 1.689618-2.097457 2.796611-1.456568 2.330508-.990466 2.330509-.699153 2.15572z"/><path d="m25.402542 74.226695 1.28178-2.330509 1.165254-2.680085.582627-2.913135 1.165255-4.194915.116525-1.747882 1.398305-3.845339 1.165254-1.747881.474835-1.495088.576772-2.389482-1.277137.659168-1.771512 1.524324-1.895106 1.647919-1.895107 2.595471-.988751 2.677867-.288385 1.977502-.370782 2.966253-.123594 3.872608.164792 2.719066z"/><path d="m41.77473 158.69744 1.483127 2.0599 2.719065 2.80146.247188 1.48312-1.400731.41198-1.318335-.90635-1.565522-1.89511-1.235939-1.48313.164792-1.31833.164792-.74156z"/><path d="m146.93856 164.65042 1.16525.46611 1.34005-.87395.99046-1.16525.93221-1.10699.23305-1.22352-.23305-1.10699-.93221-.11653-.87394.99047-1.04873.9322-.99046 1.16526-.52437 1.34004z"/><path d="m152.06167 156.39035 1.73031-.94755.86516-1.07115.70036-.28838.65917-.1648.28839-1.11234 1.27713-1.40073 2.1011-1.56552 3.29583-2.1011 3.41944-1.40073 3.37823-1.19474 2.10109-2.63667.94756-1.9363.78276-1.02995.98875-1.85391.45318-1.35953-1.02995.20599-1.15355.82395-1.8951 1.44193-2.76026 1.44193-2.1423 1.56552-3.13104 2.0187-1.93631 1.56553-1.48312 1.56552-1.77152 1.85391-1.23593 1.64792-.0412-2.38949-.20599-4.24339.0824-3.17224.0824-3.25464-1.11235.74157-.65916 1.11234-.98875 2.0187-.94756 2.76026-.45317 2.67787v2.0187l-.1648 3.58422-.0412 2.0187z"/><path d="m40.60911 155.73623.291314-.99047.233051-1.3983-.174788-1.86441-.174789-2.33051-.291313-2.27224-.174788-1.51483-.524365-1.98094-.524364-1.3983-.757415-1.98093-.873941-1.51483-.699153-1.04873-.524364-.0583-.233051.99047.349576 1.28178.174789 1.04873.116525 1.98093.407839 1.98093-.407839 1.92267v2.09746 1.51483l-1.456568-1.16525-.932203-1.39831-1.340043-1.68962-1.631356-1.34004-1.398305-1.10699-2.505296-1.28178-1.165254-.87394-1.806145-1.10699-1.223516-.99047-1.806145-1.34004-1.456567-1.51483-1.165255-1.16526-.815678-.81567v2.09745l.815678 1.51483.932204 1.86441.524364 1.10699 1.106992.99047.582627 1.51483 1.456568.99047 1.864406.4661 1.28178.64089 1.398305.4661 1.165254.58263 1.340043.87394 1.340042 1.16525 1.223517.99047 1.514831 1.28178 1.165254 1.10699.64089 1.3983.87394.29132h.64089l1.048729.69915.407839 1.10699.407839.58263.582627.23305z"/><path d="m134.81992 37.987288 2.3305 1.747881 2.91314 1.048729 3.37924 1.165254 2.79661 1.165254 2.44703.932204 2.44703 1.747881 2.21399 2.213983.69915 1.980933.11653 1.281779-2.33051-.932203-2.33051-.815678-2.56356-1.165254-2.68009-.815678-2.44703-1.28178-2.09746-1.398305-1.3983-1.165254-1.74788-1.631356-1.51483-1.980933-.39744-.984982-.26779-.865157.16479-.350183z"/><path d="m159.02412 49.770034.94755 1.071147 2.1423 1.853909 1.27713 1.071146 2.0187 2.142294 1.11235 1.977502.70036 2.513076.53558 2.471877.20599 2.0187.0824 2.513076-.12359 3.213441.0824 1.565522-.37079 1.771512-.57677-1.565522-.49437-1.277137-.78276-.988751-.61797-1.071147-.0412-1.112345s-.53557-1.689116-.53557-1.853908-.1236-1.359533-.1236-1.359533l-.32958-1.277136s-.45318-.700366-.49438-.865157c-.0412-.164792-.65917-1.153543-.65917-1.153543l-.28838-1.071147-.0824-1.153543-.24718-.782761-.32959-.782761-.41198-.741564-.24719-.865157-.32958-.782761-.37078-.700365-.45318-.782762-.12359-.617969-.49438-.906355-.32958-.700365-.45318-1.029949z"/><path d="m144.22934 49.319385 1.5731.786547 2.12659.786546 1.77701.815678 3.17532 1.92267 1.83527 1.019597 1.9518 1.573094 1.42744 1.485699.96133 1.136123 1.19439 1.747881.81568 1.252648.61176 1.543962.64089 2.068326.23305 1.106992.0874 1.194385-1.3983-.407838-1.34005-1.194386-1.45656-1.048729-1.95181-1.806144-.9322-1.07786-1.57309-1.340043-1.80615-2.068326-1.3983-1.573093-1.39831-1.485699-1.25264-1.543962-1.39831-1.369174-.87394-.815678-.78655-.786546-.61176-1.048729z"/><path d="m179.5407 120.46573-.32958 1.15354-1.15354 1.11235-.86516 1.02995-.78276.98875-.78276.94755-.86516.98875-.70036 1.11235-.49438 1.11234-.37078.78276-.32959 1.27714-.45317 1.11235-.16479 1.31833-.0412 1.27714.28838.41198.37078-.1236.49438-.65916.37078-.65917.74157-.78276.70036-.70037.41198-.78276.57677-1.15354.57677-.82396.78276-.90636.53558-.98875.28838-.94755.37079-1.31834.53557-1.35953.32958-.94755.24719-1.02995.0412-.86516z"/><path d="m159.5185 143.78378-.74157-1.97751-.32958-3.17224.41198-2.0187.0412-1.48313.12359-2.26588v-1.64792l-.0824-1.64792.1648-.98875.49437-.98875.65917-1.40073 1.27714-1.60672v2.80146l.0824 3.62542v3.04865l.16479 3.50182-.45317 2.80147-.94756 1.9775-.70036 1.44193z"/><path d="m164.17387 139.91117-.1236-4.28459.20599-4.20219.57677-1.23594.70037-1.02995.94755-.78276.82396-1.07115.78276-.78276 1.02995-.86516.86516-.74156.74156-.61797 1.31834-.82396.98875-.94755.37078-.32958-.0412 1.44192-.16479 1.52433-1.02995 2.43068-.82396 1.85391-.74156 1.60672-1.31834 1.81271-1.19474 1.60672-.98875 1.52432-.98875 1.40073-.90636 1.11235z"/><path d="m33.823524 143.66018.370782-2.22469.0412-3.29583-.164792-4.44938.0824-2.96626-.494376-3.29583-.906355-1.85391-1.112345-1.11235-.576771 1.81271.0412 1.81271-.0824 4.2022.123594 3.50182.20599 2.18349.164791 1.97751.947553 1.9363.947554 1.60672.411979.45318z"/><path d="m20.712394 134.49947.116526-1.92267-.05826-1.71875-.611759-1.45657-1.106991-1.8644-1.951801-2.47617-1.223517-1.63136-1.165254-1.60222-1.048729-1.98093-.378708.87394.116526 1.28178.524364 1.83527.786547 1.83528.699152 1.4857 1.543962 2.38877 1.194386 1.60222 1.048729 1.39831.932203 1.13612z"/><path d="m28.548729 140.03443.174788-2.44704.02913-2.27224.20392-2.68009-.407839-2.12659-1.747881-2.18485-1.660488-1.74788-1.631356-1.42744-1.922669-1.34004-1.048729-1.16525-.64089 1.13612.20392 1.63136 1.281779 2.59269 1.28178 2.09746 1.165254 2.24311 1.252649 2.09746.582627 1.25265.786546 1.22351.84481 1.22352z"/><path d="m35.51264 66.331614-1.81271 1.936304-2.842659 2.22469-1.441928 1.60672-1.647919 2.183492-1.318334 1.524324-1.400731 2.183492-1.112345 2.059898-.823959 1.771512-.906355 1.647919-.659168 1.565522-.659167-2.389481v-3.913807l-.123594-2.389481.247188-3.254639-.288386-3.089847-1.81271 3.295837-1.153543 2.925055-.988751 3.295837-1.483126 4.490577-.988751 3.501827-.20599 3.62542-.164792 4.0374.0824 3.460629.0412.659167h-.823959l-.659168-.288386-.700365.576772-.700365.947553-.370782 1.40073.123594 2.55427.0824 4.77897-.123594 4.86136.535574.86515 1.235938.82396.700366.65917.782761.82396.782761 1.48313 1.071147 1.56552.823959 1.60672.61797 1.11234.576771-1.11234-.123594-.98875-.0824-1.44193v-1.60672l-.329583-.90636-.41198-1.07114v-1.02995l.164792-.61797.617969.28838.329584 1.07115.865157 2.0599.659167 1.31833.906355 1.02995 1.400731 1.02995 1.60672 1.52433.453178-2.67787.0824-1.93631.0412-1.23593-.0412-1.56553.20599-.98875.247187-1.11234 1.112345.16479-.617969 1.81271-.123594 2.84266-.123594 1.27713.20599 1.89511.700365 1.60672.906355 2.1011.906355 1.52432.329584-2.55427.247188-3.50183.164792-2.71906.247187-3.21344.329584-3.50183.20599-2.63667.865157-3.04865 1.318335-2.92505-1.689117-.0824-1.277136-.78276-1.235939-1.936305.535573-1.606721.82396-1.936304 1.112344-1.977502 1.689117-4.078598.659167-2.142293.741563-2.059898.41198-2.43068-.453178-2.925055-1.441928 1.895106-.865157 1.277137-1.730315 1.771512-1.60672 1.647918-1.359533 1.071147-.617969-.164792-.700365-.329583.288385-.700366.741564-.906355 1.81271-2.224689 1.60672-1.771513 1.153543-1.19474 1.565523-1.853909 1.689116-2.389481 1.60672-3.460629.823959-2.389481.659168-2.966253.20599-1.400731z"/><path d="m165.52436 126.45922 1.07787-2.18486 1.07786-1.89353.4661-2.15572-.0874-2.9714-.26218-1.51483-.32044-1.34005.17478-1.01959.5535-.43697.52436-.11653.11653.96134-.20392 1.45656.0874 1.4857-.0583 2.21399.23305 2.03919.4661 1.25265.67003.58263.69915.0583.4661-.9322.81568-1.39831 1.75233-2.22211 1.31833-1.40073.98876-2.0599.16479-.90636.65916-1.07114.49438.32958-.32958 1.40073-1.15355 2.38948-.74156 2.22469-.16479 1.48313v1.64792l1.23594-.24719 1.40073-1.48313 1.07114-1.40073 1.40074-1.81271 1.31833-1.23594.74156-1.40073.65917-1.48312-.0955-6.38521.0583-2.09746v-1.9518l-.4661-1.07786-.20392-1.68962-.49524-.640891-.9322-.582627-.84481.349576-.37871.43697-.55349-.844809.23305-1.631356.0583-1.223517.23305-1.106991.23305-1.106992-.4661-3.320974-.34957-4.544492-.99047-3.379237-1.9518-5.185382-1.86441-4.165784-1.04873-1.51483-.58262-1.194386v1.340043l-.26219 3.350106.32045 3.175317.0291 2.330509-.0874 2.709216-.52437.349576-.64089-.553496-.64089-1.398305-.78654-1.106991-.93221-1.456568-1.96947-3.289485-2.22469-2.307085-1.64792-1.81271-2.14229-1.895107-1.97751-2.224689-2.14229-1.483127-.74156-.741563-.0824 1.40073-.0824 2.22469 1.15354 3.048649 1.48313 2.801461 1.31833 2.059898 1.9775 3.048649 2.30709 2.142294 2.55427 2.307086 1.56552 1.565522.49438 1.235939-.32958.988751-.65917.576771-.98875-.988751-2.0599-2.059898-1.73032-1.565522-1.48312-2.636669-.90636-1.812711-.65916 1.153543.0824 2.142294.0824 1.647919.0824 1.895106.57677 1.81271 1.48313 2.554273 1.40073 2.883857 1.15354 1.647919 1.15355 2.719065.0824 1.730314-.82396 1.400732-.90635.82396-1.56552-.24719-.74157-.57677.41198 2.22469.49438 2.0599.82396.82396.0824.98875-.0412 5.56172.24718 4.53178-.12359 3.83141.16479 2.84266.74156 1.15354z"/></g><g transform="translate(-5.502724 -5.924156)"><path d="m16.371822 113.991.903072-.46611.699153-.84481.291313-3.69968.116526-1.57309-.05826-1.07786-.02913-.87394.23305-1.04873.611759-.90307.728284-.84481.203919-.5535.291314.11653.378707.14565.378708-.0583.553496-.26218.43697.67002.08739.84481.233051.52436.291314.75742v.78655l.05826 1.71875.145657 1.54396.02913.78654.05826 1.31092.320445.67002.64089.11652.02913.69915.407839.58263.757416.34958.640889-.49523.08739-.72829.262183-.4661.349576-.0874.145657-.96134.05826-1.3983-.05826-.93221v-1.51483l.203919-1.16525.670021-.69915.524365-.72829-.990466-.26218-.436971.37871v-.69916l-.05826-.9322-.20392-.67002-.786546.52436-.20392.78655-.320445.72828-.466102.20392-.291313-.72828-.495233-.69915-.786547-.43697-1.07786-.58263.43697-.52436.378708-.69916.174788-.844806-.08739-1.106992.116526-2.184851.05826-.961335.378708-.611759.728284-1.310911 1.281779-.844809-.699152-.407839-1.194386.05826h-.43697l.116525-.757416.05826-1.223517-.611758-1.398305-.466102.873941-.174788 1.019598-.116526.990466-.670021.02913-.466102-.349576-.553495-.466102-.524365-.64089-.757415-.553496-.961335-.116525.378708.553496.495233.961335.291314 1.048728.05826 1.369174-.349576 1.777013-.407839 1.631356-.116525 1.689618.23305 1.456574.903072 1.4857-1.543961 1.34004-.64089-.17479-.64089-.49523-.320445-.67002-.407839-1.04873-.262182-.67002-.378708 1.10699-.116525 1.0196.02913 1.28178-.466102.67002-.320444-.34958s0-.26218-.116526-.37871c-.116525-.11652-.466102-.49523-.466102-.49523l-.757415-.0583-.582627.26218-.291314.49523.407839.11653.378708-.0874.233051.23305.116525 1.107.582627 1.68962.320445 3.14618.02913 1.60223.349576 1.16525.728284.5535.524364.34957z" fill="#fffffe"/><path d="m176.82164 114.20364 1.15354-.82396.98875-.41198.0824-1.31833.0824-1.89511.49438-1.73031.32958-1.89511 1.07115-1.56552.16479-1.40073-.34116-.44543-.0874-.4661-.49523.61176-.23305.4661-.84481.52436-.64089-.0874.11653-.81568-.17479-.78655-.5535-.75741-.67002-.78655-.0874 1.04873.0583.69915-.26218.75742-.23305.49523-.87394-.4661-1.07786-.11652-.40784-.32045-.37871-1.07786.43697-.32044.52436-.49524.14566-.78654-.11652-1.281784v-1.660487l-.17479-1.747881-.17479-.990466-.14566-1.252649.11653-.699152.40784-.495233.20392-.699153v-.495233l-.37871-.961335-.5535-.43697.0874.873941-.23305.611758-.58263.407839-.49523.466102-.43697.116525-.14566-.582627-.40784-.786547-.4661-.553495-.58263-.670021.0291-.757416-.55349.611759-.29132.932203-.0583 1.136123-.20392 1.07786-.34958.320445-.49523-.553496-.64089-.495233-.81568.05826-.34957.233051.61176.320445.49523.495233.61176 1.747881.69915 2.884004.23305 1.806144.40784 1.689625.32044.9322-.29131.72828-.40784.46611-.58262.64089-.34958.40783-.37871.37871-.40784-.55349-.4661-.84481-.5535-.78655-.72828-.61176-.64089-.17479.29131.90308.0291.90307v.72828l-.11653.34958-.69915.0291-.40784-.34958-.96134-.72828-.43697-.67002-.3787.29131-.0874.96134.20392.78654.72829.67002.55349.58263.67002 1.22352.17479 1.28178-.17479 1.45657.37871 1.3983 1.29324 2.43748.65917.53558.74156-.0824.57677-.49437.45318-.78276.24719-1.02995.32958-1.68912v-1.56552l.20599-1.31834v-2.14229l.0824-1.02995.94755-1.27714.53557-.37078.61797-.12359.74156.45318.45318.37078.57677.65916.45318 1.60672-.0412 1.31834-.0412 1.9363.20599 2.1835.16479 1.40073.74156 1.07114.70037.65917z" fill="#fffffe"/><ellipse cx="96.284737" cy="104.75283" fill="#f1bc00" rx="65.681648" ry="65.485641" stroke="#000" stroke-width="1.522532"/></g><ellipse cx="90.63076" cy="98.307834" fill="#1c3481" rx="45.245007" ry="45.536324"/><path d="m29.927521 114.58277 19.651426.12359 4.614171-4.16099h74.691902l4.20219 4.20219h18.08591l-46.99628-41.638348-1.71875-1.07786-1.28178-.43697-1.747894-.116526-1.3983.116526-1.98093.233051-1.718753.699152-1.252648.990466-.903072.990466 2.845583 3.759256 2.0187 2.513075.12359.762163-1.09174.102995-5.458732-7.086049-1.380132-1.998101-1.00935-1.235939-1.524324-.865157-1.318335-.494376h-1.153543l-1.483126-.0824-1.318335.329584-1.153543.494376-1.483126.823959-6.138496 5.685318-5.561725 4.943755z" fill="#fff" stroke="#1c3481"/></svg>