<svg enable-background="new -534 888 623.622 925" height="925" viewBox="-534 888 623.622 925" width="623.622" xmlns="http://www.w3.org/2000/svg"><g stroke="#000" stroke-linecap="round" stroke-linejoin="round" stroke-width="4"><path d="m-222.664 1796c-42.336 0-51.611-10.23-90.802-26.082l-109.646-44.679c-35.958-17.255-103.044-35.149-96.093-58.826 4.173-8.915 10.756-28.896 14.111-38.534 9.139-25.55 8.652-30.213 21.6-34.828 18.133-4.056 36.676.828 63.829 26.285 22.684 17.887 22.712 3.893 22.712 3.893.948-3.356-8.921-16.729-21.546-10.979 0 0-5.224 3.377-3.26 5.148 18.004 16.237 24.157 9.075 24.157 9.075l-6.489 19.468c142.333 62.381 181.903 58.67 181.903 58.67s48.689 4.389 181.903-58.67l-6.489-19.468s4.525 9.026 25.929-10.676c4.469-4.114-9.029-4.798-9.029-4.798-15.375.75-18 9.625-17.549 12.229 0 0 .028 13.994 22.712-3.893 27.152-25.457 45.696-30.341 63.829-26.285 12.948 4.615 12.461 9.278 21.6 34.828 3.355 9.639 9.938 29.62 14.111 38.534 6.951 23.677-42.694 34.418-96.093 58.826l-119.791 49.963c-35.019 16.313-31.445 20.799-81.609 20.799z" fill="#e8e18f"/><g fill="none"><path d="m-452.572 1613.646s-49.436-22.959 48.479 32.295"/><path d="m8.194 1613.646s49.436-22.959-48.479 32.295"/></g></g><path d="m-465.413 1682.092c-.204 2.756.309 5.115 1.538 7.077s3.16 3.51 5.793 4.645c.721.311 1.519.568 2.393.774l-.711 1.65c-3.019-.488-5.601-1.194-7.748-2.119-3.354-1.445-6-3.558-7.935-6.337-1.936-2.779-2.887-6.044-2.854-9.793-4.033-2.849-6.672-6.563-7.918-11.141-1.246-4.579-.851-9.23 1.185-13.956 2.361-5.482 6.165-9.249 11.41-11.298 5.245-2.05 10.699-1.854 16.362.585 5.645 2.432 9.514 6.258 11.606 11.479s1.961 10.563-.394 16.028c-2.051 4.762-5.268 8.283-9.651 10.564-4.381 2.283-8.74 2.896-13.076 1.842zm10.603-37.867c-3.247-1.398-6.48-.792-9.701 1.819-2.699 2.194-5.175 5.907-7.428 11.137-2.704 6.277-3.599 11.408-2.686 15.394.642 2.778 2.325 4.755 5.048 5.928 2.742 1.181 5.326 1.064 7.752-.35 3.5-2.02 6.536-6.015 9.108-11.985 2.533-5.879 3.672-10.435 3.417-13.667-.3-4.064-2.138-6.824-5.51-8.276z"/><path d="m-431.536 1652.808 18.938 8.158-.431 1.001-.947-.408c-1.425-.614-2.468-.887-3.128-.818s-1.216.315-1.667.741c-.451.427-1.126 1.686-2.028 3.777l-7.738 17.964c-1.415 3.283-2.103 5.563-2.065 6.841s.473 2.514 1.307 3.706c.833 1.193 2.115 2.162 3.847 2.908 1.984.854 3.867 1.137 5.65.846 1.782-.29 3.358-1.07 4.729-2.341 1.37-1.27 2.895-3.853 4.573-7.749l6.445-14.961c.707-1.641 1.041-2.887 1.001-3.738s-.263-1.524-.669-2.021c-.633-.764-1.689-1.465-3.167-2.102l.431-1.001 12.688 5.466-.432 1.001-.757-.327c-1.028-.442-1.974-.604-2.838-.484s-1.628.528-2.292 1.226c-.483.477-1.047 1.463-1.692 2.96l-6.002 13.933c-1.857 4.312-3.481 7.3-4.873 8.967s-3.534 2.829-6.425 3.486c-2.892.657-6.241.167-10.046-1.473-3.174-1.367-5.444-2.848-6.811-4.441-1.866-2.172-2.896-4.37-3.093-6.593-.197-2.224.361-4.859 1.674-7.907l7.738-17.964c.909-2.11 1.357-3.473 1.344-4.088s-.243-1.2-.688-1.756c-.445-.555-1.447-1.157-3.006-1.808z"/><path d="m-371.219 1678.18c5.937 2.302 9.951 6.051 12.042 11.25 2.091 5.198 1.963 10.521-.384 15.968-2.004 4.653-5.13 8.161-9.376 10.523-5.628 3.135-11.733 3.285-18.316.449-6.601-2.844-10.742-7.279-12.422-13.306-1.327-4.763-.945-9.57 1.145-14.422 2.346-5.447 6.155-9.189 11.427-11.227 5.271-2.037 10.566-1.782 15.884.765zm-.421 1.872c-3.355-1.445-6.646-.831-9.871 1.842-2.637 2.2-5.09 5.934-7.358 11.199-2.696 6.259-3.589 11.359-2.678 15.301.631 2.753 2.328 4.724 5.087 5.912 1.857.801 3.603 1.018 5.236.652 2.084-.471 4.114-1.783 6.089-3.937 1.975-2.153 3.841-5.268 5.597-9.344 2.09-4.852 3.203-8.676 3.338-11.473.135-2.796-.282-4.991-1.252-6.585-.971-1.594-2.367-2.783-4.188-3.567z"/><path d="m-321.562 1702.683-6.491 15.069 1.055.454c1.623.699 3.054 1.026 4.292.982s2.461-.489 3.671-1.337c1.209-.848 2.346-2.207 3.409-4.08l.947.407-7.937 18.425-.947-.408c1.157-3.629 1.212-6.326.166-8.092s-2.534-3.064-4.464-3.896l-1.055-.454-4.836 11.228c-.809 1.876-1.21 3.093-1.204 3.65.005.559.234 1.144.687 1.756.453.611 1.193 1.14 2.221 1.582l1.217.524-.431 1.001-19.181-8.263.431-1.001 1.217.524c1.064.458 2.002.638 2.815.539.578-.051 1.125-.328 1.642-.833.385-.347.974-1.44 1.766-3.28l10.396-24.132c.808-1.876 1.213-3.091 1.217-3.646.003-.555-.221-1.138-.673-1.75-.453-.612-1.193-1.139-2.221-1.582l-1.218-.524.431-1.001 30.95 13.332-4.533 10.524-1.109-.478c.812-2.58.956-4.688.431-6.325-.524-1.638-1.665-3.123-3.42-4.457-.966-.736-2.91-1.734-5.831-2.993z"/><path d="m-294.403 1742.991-12.959-5.582-3.081 2.906c-1.018.973-1.694 1.848-2.028 2.623-.443 1.028-.354 1.964.266 2.809.363.498 1.469 1.231 3.318 2.199l-.431 1.001-12.201-5.256.431-1.001c1.401.369 2.719.289 3.951-.238s3.073-1.921 5.522-4.181l25.731-23.621.514.222.27 35.783c.035 3.394.299 5.635.792 6.725.372.823 1.098 1.521 2.178 2.093l-.431 1.001-17.748-7.646.431-1.001.73.314c1.424.614 2.511.847 3.259.698.521-.117.898-.446 1.131-.987.14-.325.229-.682.269-1.071.033-.178.054-.971.062-2.379zm-.058-2.398-.022-14.988-11.07 10.21z"/><path d="m-235.649 1735.073-3.426 10.254-1.006-.336c.194-2.564.101-4.485-.28-5.762-.381-1.276-1.102-2.434-2.163-3.472-.596-.571-1.779-1.153-3.548-1.744l-2.822-.943-9.765 29.225c-.647 1.938-.945 3.184-.892 3.74.052.556.33 1.119.833 1.69.502.572 1.294 1.038 2.374 1.399l1.257.42-.345 1.034-19.837-6.628.345-1.034 1.257.42c1.099.367 2.049.468 2.851.301.571-.1 1.103-.419 1.593-.959.354-.378.849-1.518 1.484-3.417l9.764-29.225-2.738-.915c-2.552-.853-4.586-.932-6.102-.237-2.125.968-3.868 2.776-5.23 5.427l-1.062-.354 3.426-10.254z"/><path d="m-217.404 1763.867-14.108-.224-1.741 3.861c-.57 1.287-.862 2.354-.875 3.197-.018 1.119.421 1.951 1.316 2.496.525.322 1.827.579 3.906.769l-.018 1.09-13.284-.21.017-1.09c1.437-.193 2.625-.769 3.563-1.727.938-.957 2.109-2.946 3.512-5.969l14.79-31.644.56.009 13.884 32.981c1.325 3.124 2.424 5.096 3.294 5.915.658.619 1.595.987 2.811 1.104l-.018 1.09-19.322-.306.018-1.09.795.013c1.551.024 2.645-.174 3.28-.596.437-.308.66-.756.669-1.345.006-.354-.047-.718-.159-1.093-.037-.178-.32-.919-.849-2.224zm-.967-2.195-5.732-13.85-6.344 13.658z"/><path d="m-177.325 1725.701 6.328 15.139 1.06-.443c1.631-.682 2.86-1.482 3.688-2.403.829-.921 1.358-2.11 1.589-3.57.231-1.458.042-3.221-.566-5.286l.952-.398 7.737 18.509-.951.397c-1.806-3.353-3.708-5.267-5.705-5.74-1.997-.475-3.965-.307-5.903.504l-1.06.443 4.715 11.278c.788 1.885 1.384 3.02 1.79 3.403s.985.625 1.74.725c.754.1 1.648-.066 2.681-.498l1.223-.511.42 1.005-19.27 8.056-.42-1.006 1.223-.511c1.069-.447 1.85-.997 2.344-1.65.365-.45.545-1.037.542-1.759.018-.519-.36-1.701-1.132-3.55l-10.134-24.243c-.788-1.885-1.38-3.021-1.776-3.408-.396-.388-.972-.632-1.727-.731-.755-.1-1.648.066-2.681.498l-1.223.512-.42-1.006 31.092-12.997 4.419 10.572-1.114.466c-1.292-2.376-2.708-3.944-4.25-4.705-1.542-.76-3.402-.972-5.582-.636-1.201.183-3.269.888-6.204 2.114z"/><path d="m-143.674 1711.55 6.334 14.976.733-.31c2.333-.986 3.714-2.435 4.144-4.344.429-1.908.185-4.353-.735-7.333l1.031-.437 8.148 19.263-1.031.437c-1.104-2.006-2.289-3.531-3.551-4.575-1.263-1.044-2.453-1.602-3.57-1.673-1.118-.07-2.554.265-4.308 1.007l4.384 10.364c.857 2.025 1.467 3.229 1.83 3.607.363.38.841.615 1.434.705.592.091 1.413-.086 2.462-.53l2.198-.93c3.436-1.453 5.853-3.413 7.251-5.882 1.398-2.467 1.86-5.52 1.388-9.158l1.004-.425 3.291 12.394-31.797 13.449-.425-1.004 1.221-.517c1.067-.451 1.846-1.004 2.336-1.659.363-.452.541-1.039.534-1.762.015-.518-.367-1.699-1.147-3.545l-10.236-24.2c-.704-1.663-1.182-2.666-1.433-3.008-.449-.557-.99-.903-1.624-1.041-.901-.215-1.949-.07-3.143.435l-1.221.516-.424-1.004 30.793-13.024 4.602 10.879-1.031.437c-1.649-2.438-3.193-4.033-4.633-4.789-1.439-.756-3.142-1.038-5.107-.847-1.151.104-3.119.744-5.904 1.922z"/><path d="m-99.485 1713.93 4.382 10.3c.846 1.988 1.5 3.188 1.963 3.599s1.067.641 1.812.686c.745.047 1.958-.288 3.639-1.004l.427 1.003-18.812 8.004-.427-1.003c1.698-.723 2.783-1.37 3.254-1.944.471-.573.721-1.166.75-1.775s-.38-1.908-1.226-3.896l-10.149-23.854c-.846-1.987-1.5-3.188-1.963-3.599s-1.067-.64-1.812-.686c-.746-.046-1.958.289-3.639 1.004l-.427-1.003 17.077-7.266c4.445-1.892 7.829-2.968 10.15-3.23 2.322-.262 4.485.157 6.489 1.257 2.005 1.101 3.48 2.762 4.425 4.984 1.153 2.71 1.131 5.366-.067 7.968-.771 1.651-2.157 3.233-4.159 4.747l14.13 8.682c1.84 1.116 3.09 1.77 3.747 1.959.979.245 1.968.188 2.967-.174l.427 1.003-11.575 4.925-18.973-11.712zm-7.67-18.026 6.851 16.101 1.545-.657c2.512-1.068 4.293-2.099 5.344-3.09s1.677-2.239 1.88-3.745c.202-1.505-.107-3.225-.93-5.158-1.192-2.801-2.727-4.592-4.606-5.371-1.879-.78-4.273-.551-7.183.687z"/><path d="m-81.401 1682.605 18.963-8.098.428 1.003-.948.404c-1.427.609-2.343 1.177-2.749 1.702s-.609 1.099-.611 1.719.444 1.978 1.339 4.072l7.681 17.989c1.404 3.287 2.581 5.357 3.533 6.21.952.854 2.147 1.39 3.585 1.608s3.025-.042 4.759-.783c1.986-.848 3.489-2.018 4.507-3.51 1.018-1.491 1.539-3.172 1.563-5.04s-.796-4.753-2.462-8.653l-6.397-14.981c-.702-1.644-1.375-2.744-2.019-3.303-.644-.558-1.286-.859-1.925-.907-.99-.068-2.226.214-3.707.846l-.428-1.002 12.706-5.426.428 1.003-.759.323c-1.029.44-1.798 1.015-2.308 1.723-.509.709-.739 1.544-.691 2.505.012.679.338 1.768.978 3.267l5.958 13.951c1.844 4.317 2.89 7.554 3.138 9.711.249 2.158-.386 4.511-1.902 7.059-1.518 2.549-4.181 4.637-7.992 6.264-3.179 1.357-5.816 1.981-7.913 1.873-2.86-.145-5.163-.913-6.909-2.303s-3.271-3.61-4.575-6.663l-7.681-17.988c-.902-2.113-1.582-3.377-2.036-3.791-.455-.414-1.037-.651-1.746-.712s-1.836.25-3.382.932z"/><path d="m-28.856 1660.15 27.867 15.019-6.759-15.788c-.943-2.202-1.896-3.557-2.861-4.063-1.314-.676-2.984-.559-5.009.351l-.429-1.002 12.132-5.194.429 1.002c-1.468.864-2.4 1.567-2.797 2.111s-.592 1.236-.585 2.076c.007.842.382 2.128 1.124 3.861l13.089 30.573-.921.395-37.922-19.942 9.994 23.343c.904 2.112 1.998 3.332 3.281 3.659s2.547.223 3.793-.311l.866-.371.429 1.002-13.026 5.577-.429-1.002c2.014-.884 3.244-1.902 3.691-3.055s.252-2.703-.582-4.653l-11.095-25.916-1.203-.639c-1.194-.643-2.154-.989-2.881-1.041s-1.658.144-2.793.587l-.429-1.002z"/><path d="m32.317 1633.931 4.262 9.935-.975.419c-1.561-2.044-2.908-3.417-4.042-4.116-1.133-.7-2.442-1.084-3.924-1.153-.826-.03-2.095.322-3.81 1.058l-2.734 1.173 12.148 28.316c.806 1.878 1.413 3.006 1.821 3.386.409.381.991.617 1.747.709.755.093 1.657-.085 2.704-.534l1.218-.522.43 1.001-19.221 8.246-.43-1.002 1.218-.522c1.064-.456 1.841-1.014 2.328-1.672.361-.453.545-1.045.553-1.775.012-.519-.376-1.698-1.166-3.539l-12.148-28.316-2.653 1.138c-2.473 1.062-4.044 2.355-4.714 3.882-.943 2.136-1.042 4.646-.295 7.531l-1.029.441-4.262-9.936z"/><path d="m74.498 902.173v556.51c0 148.649-297.162 196.948-297.162 196.948s-297.162-48.299-297.162-196.948v-556.51z" fill="#fff"/><path d="m74.498 1458.683c0 148.649-297.162 196.948-297.162 196.948s-297.163-48.299-297.163-196.948c0 0 0-11.972 6.047-18.779 0 0-3.275 24.724 15.72 43.425 0 0-14.901-26.38-.328-52.305 0 0-5.404 33.357 15.392 52.512 0 0-11.462-27.247 1.474-57.631 0 0-6.386 49.705 16.211 59.612 0 0 6.222-28.568-2.784-46.897 0 0 15.556 6.275 14.737 47.723 0 0 4.912-6.11 6.222-35.999 0 0 .655 34.182 12.445 42.109 0 0 3.602-3.468-1.31-18.99s2.129-20.972 3.275-20.641c0 0-2.584 17.174 11.808 30.054 0 0-6.24-26.916 2.438-30.549 0 0-1.801 22.788 16.211 27.907 0 0 1.31-6.605-2.62-14.036 0 0-3.439-8.813-.819-15.553 0 0 5.731 20.672 13.591 24.14 0 0-4.749-12.116-.327-24.14 0 0 .982 17.204 16.375 24.305 0 0-10.141-13.319-6.135-27.961l98.98 4.843 51.253 2.445 153.76-10.867 26.527-22.788s10.48 14.531-6.059 37.485c0 0 16.375-2.972 21.615-28.568 0 0 6.714 14.201-2.456 29.889 0 0 18.176-18.165 20.796-38.806 0 0 7.041 19.981-10.152 41.448 0 0 15.392-5.119 21.942-27.907 0 0 5.24 13.726-9.661 33.119 0 0 27.837-14.789 27.019-45.339 0 0 11.626 16.843-1.637 39.962 0 0 14.246-12.715 15.556-31.705 0 0 7.86 8.587-.655 32.201 0 0 17.357-16.348 19.977-34.017 0 0 3.766 16.348-11.135 36.99 0 0 10.152-2.477 19.814-22.623 0 0 2.62 7.926-6.222 22.458 0 0 9.497-1.651 15.884-19.816 0 0 1.146 10.899-1.637 20.641 0 0 7.369-4.789 9.006-25.43 0 0 4.115 6.77 4.186 15.192.072 8.419.001 2.887.001 2.887z" fill="#2f8f22"/><g stroke="#000"><path d="m-78.525 1136.975s-10.326 1.755-23.59-2.285-18.624-2.4-22.74 0c0 0 5.382-10.657-7.718-19.073 0 0 4.257 10.761-1.637 15.787 0 0-2.62 2.466-5.731-1.25 0 0-4.585-4.706-9.416-8.339 0 0 11.135-3.881 9.088-15.192s-8.106-12.798-11.381-14.201c0 0 1.146 5.119 0 8.587 0 0-12.117-6.77 4.339-16.348s13.427-15.192 10.48-20.063-9.252-10.238-12.363-12.137c0 0 3.275 5.119 2.702 9.495s-8.024 7.183-6.55-.495-.082-6.358-.246-14.532c0 0 14.656 4.954 20.387-9.33 0 0 5.649-14.779-12.854-22.128 0 0 4.503 6.027 2.292 10.568 0 0-3.93 7.431-8.597 1.404s-7.614-7.183-7.123-14.284c0 0 16.784 2.312 12.199-15.935 0 0-2.702 12.137-24.48-4.211 0 0 14.164-14.532 8.679-26.256 0 0-1.719-5.367-17.112-2.229 0 0 13.346-8.422 7.696-15.605 0 0-2.866-4.789-15.311 1.486 0 0 4.831-8.339-7.369-17.339 0 0-8.187 4.293-12.527 8.257 0 0-8.351-10.568-13.673-14.779 0 0-9.661 3.715-12.117 14.779 0 0-4.503-5.367-14.737-7.844 0 0-4.912 9.082 1.474 17.009 0 0-4.749-.165-13.427-3.963 0 0-9.907-4.706-8.433 3.798s2.211 10.403 4.176 14.366c0 0-22.231-5.163-21.287 6.853.655 8.339 3.766 15.522 10.644 21.55 0 0-12.445 16.265-23.089 4.046 0 0-3.684 3.963 4.257 14.366 0 0 7.942 8.752 1.392 14.284 0 0-8.761 7.018-13.018-6.605 0 0-14.164 14.119 2.538 24.935 0 0 10.726 6.11 21.697-3.303 0 0-3.357 27.082-13.837 21.88 0 0-6.304-4.624 4.994-10.156 0 0-16.293-2.064-18.913 13.706 0 0-2.011 12.547 12.199 17.091 0 0 10.971 3.963-.409 12.467 0 0-8.024 6.11-2.784 15.192 0 0 6.304 9.99-9.661 10.981 0 0-8.679-.083-11.79-1.239 0 0-3.501 6.511-1.055 13.948 0 0-7.952-5.925-26.046.632s-16.702 1.933-18.176 3.915-4.994 8.669-4.994 8.669 9.497 11.559 9.661 11.312c.164-.248-1.801 13.21-1.801 13.21l4.667 2.229 37.253-16.596 37.826-19.712 30.412 1.865 19.286 4.593 25.333 1.846 18.142-9.678h26.282l28.906 14.404 32.991 19.684 17.194 3.016 13.247-.706v-26.72z" fill="#d40000" stroke-linejoin="round" stroke-width="2.1841"/><path d="m-378.586 1168.217s14.41 7.348 20.428-1.569c0 0 7.86-14.986-9.395-20.187 0 0 9.395-11.27-.675-21.673 0 0-5.281-5.573-14.492-1.486 0 0-3.807-7.926-12.772-7.679 0 0-7.86-.124-10.562 8.546 0 0-10.807-4.459-16.825 1.982 0 0-9.948 11.146 3.93 19.94l9.989.908 9.825-4.541 10.971 3.137c-.001-.001-2.826 11.104 9.578 22.622z" fill="#d40000" stroke-linejoin="round" stroke-width="2.1841"/><path d="m-56.923 1141.863c17.359-1.636 23.489 13.015 23.489 13.015 9.099 21.348-10.224 32.742-10.224 32.742 1.474 4.789 1.637 11.064 1.637 11.064 27.182 3.303 22.429 33.852 22.429 33.852l-9.001-7.431c-15.72-6.11-31.931 7.266-43.557 29.724s-6.059 33.026-4.094 59.613c1.965 26.586 45.195 42.439 45.195 42.439s-20.469 52.677-33.732 86.529c-13.264 33.852-40.937 19.816-48.961 12.685s-10.03-3.169-14.082 0c-4.053 3.169 18.176 20.507-22.27 36.855s-47.487 28.898-54.201 33.026-34.715 1.321-37.498-2.147c-2.784-3.468-1.146-3.468-11.626-9.908s-28.165-12.055-47.487-21.467-18.831-21.467-18.667-23.944 6.714-22.623-15.917-6.605-41.886-7.628-41.886-7.628c-4.421-5.812-23.252-56.278-23.252-56.278-5.076-18.825-15.065-40.787-15.065-40.787.491-.165-.982 2.312 15.72-7.266s24.184-25.513 29.966-41.283.164-42.769-1.965-48.218-14.574-30.433-29.983-35.668-25.746 7.761-25.746 7.761-4.754-30.549 22.429-33.852c0 0 .164-6.275 1.637-11.064 0 0-19.322-11.394-10.224-32.742 0 0 6.13-14.65 23.489-13.015l-4.2 7.942s-4.371 43.595 59.441 14.366 61.897-34.678 98.249-16.348l26.527-.495s38.317-17.726 50.598-10.102c12.281 7.625 56.493 32.394 56.493 32.394s42.738 16.028 51.09-13.536z" fill="#64b4d1" stroke-width="1.6374"/></g><path d="m-248.916 1330.871s-2.219-13.38-4.548-22.047c0 0-4.737-13.598 3.344-23.146l10.018-11.53s6.227-8.378 13.935-9.514c0 0 7.708-.229 8.445-1.797.737-1.569 9.17-15.446 29.229 0 0 0 6.386-10.238 16.211-11.972 0 0 10.614-3.22 15.746 4.706 0 0 11.927-9.043 22.162 5.51 0 0 14.164-7.967 24.48 7.876 0 0 14.001-6.828 22.597 7.727 8.597 14.555 6.877 20.5 6.877 20.5l6.38 23.119 22.603 27.907-52.563 19.816h-23.58l-47.16 12.633-83.758 6.44-23.334-27.494z" fill="#fff" stroke="#00247d" stroke-miterlimit="10" stroke-width="2.1833"/><g stroke="#000"><path d="m-319.712 1470.078s-12.527.743-18.913 3.963-11.299 6.688-18.667 11.394c0 0-3.439 4.582-17.93 1.796 0 0-25.054-6.007-25.054 13.561 0 0-29.966 2.477-17.685 28.733 0 0 8.351 20.559 25.545 5.945 0 0-11.053 15.853 10.316 22.045 0 0 15.229 3.715 19.65-11.89 0 0 2.456-6.192-3.439-13.871 0 0 7.369-1.486 12.527-9.412 0 0-15.72 19.868 1.474 27.025 0 0 21.608 5.423 22.84-17.117 0 0-1.764-10.403 6.611-14.119 0 0 17.218-3.963 25.077-23.16 0 0-24.758-13.186-22.352-24.893z" fill="#d40000" stroke-linejoin="round" stroke-width="2.1841"/><path d="m-370.3 1272.514s-19.322-8.9-28.492 0c0 0-12.772-7.91-26.2 0 0 0-12.772 8.347-21.615 17.541 0 0-6.222 5.329-3.93 22.123 0 0 3.275 11.84 1.31 17.785 0 0-4.257-.843-12.772 9.247 0 0-10.807 12.515-20.305 1.469 0 0 2.947 15.375 20.796 12.898 0 0-8.679 6.77-1.146 24.274 0 0 5.567 12.385-3.275 27.907 0 0 15.556-6.275 14.901-24.605 0 0-1.31-12.385 3.275-21.137 0 0-4.585 7.958 6.059 24.935 0 0 8.187 12.22 1.474 24.935 0 0 15.392-5.615 13.919-24.274-1.474-18.66-10.807-10.899-4.749-28.072 0 0 1.474 8.796 6.059 13.232 4.585 4.437 10.48 11.868 8.024 24.252 0 0 9.17-11.394 7.041-23.118s-4.421-15.271-4.421-15.271l28.984-16.434 14.41-26.091z" fill="#d40000" stroke-linejoin="round" stroke-width="2.1841"/><g fill="none" stroke-miterlimit="10" stroke-width="2.1833"><path d="m-414.349 1346.146s-11.954-.826-13.919-10.073"/><path d="m-449.227 1329.963s4.165-.165 7.931 3.633c0 0 2.876 4.293 6.97 3.798"/></g></g><path d="m-396.664 1310.973s-6.222 0-9.661-2.972c0 0-3.602-2.477-5.731 1.486 0 0-3.275 5.615 2.784 8.092 0 0 7.532 3.798-4.421 11.394 0 0 14.246-5.119 8.515-12.055 0 0-6.222-4.459-3.93-6.11 0 0 .655-1.321 3.111.33s7.368.991 9.333-.165z"/><path d="m-201.349 1342.521-47.884-165.355-1.752.471 42.31 167.361z" fill="#784421" stroke="#000" stroke-width="1.6374"/><path d="m-368.1 1528.03s-11.299-6.349-20.632 1.082c0 0 .954-4.128 8.091-5.945 0 0 3.862-10.899 14.67-9.908 0 0-4.421 5.284-10.316 9.743 0 .001 6.222.643 8.187 5.028z"/><path d="m-407.891 1554.295s-17.931-11.27-8.228-30.219c0 0 2.825-5.449 8.228-4.335 0 0 11.176 3.468 2.456 18.949 0 0-4.421 10.032-2.456 15.605z" fill="#64b4d1" stroke="#00247d" stroke-miterlimit="2.613" stroke-width="1.6375"/><path d="m-371.539 1572.129s-25.545-11.642-17.685-31.458c0 0 2.428-6.688 8.091-6.193 0 0 9.851.495 7.88 13.623.001.002-2.952 12.882 1.714 24.028z" fill="#64b4d1" stroke="#00247d" stroke-miterlimit="2.613" stroke-width="1.6375"/><path d="m-376.942 1498.178s-7.676 5.67-10.797 9.468c0 0-3.122-3.881-7.215-6.234 0 0 4.713-.62 7.215 1.5 0-.001 3.919-3.799 10.797-4.734z"/><path d="m-354.222 1567.175s20.018-5.078 16.334-25.76c0 0-1.965-9.041-10.439-7.802 0 0-10.212 2.607-3.562 15.755 0-.001 3.93 9.386-2.333 17.807z" fill="#64b4d1" stroke="#00247d" stroke-miterlimit="2.613" stroke-width="1.6375"/><path d="m-263.778 1129.621s12.894 3.953 19.897 6.808c0 0 18.667 8.422 42.37 0 0 0 16.029-6.348 18.168-6.808l-12.273 18.697-.614 9.66 7.679 11.271s-4.609 1.857-18.364-6.564c0 0-15.229-11.765-33.405 0 0 0-9.948 6.738-18.299 6.565l11.79-13.166-4.544-11.854z" fill="#f5ce00" stroke="#000" stroke-miterlimit="2.613" stroke-width="2.1833"/><path d="m-346.485 1542.467s.737-.991-.123-1.424c0 0-.86-.371-1.474.836 0 0-2.088 3.313-.32 7.848 0 0 1.671 3.144.859 6.426 0 0-.109.929.627 1.053 0 0 .706-.248.844-.929 0 0 .999-3.204-.721-6.339.002 0-2.087-4.87.308-7.471z" fill="#fff"/><g stroke="#000"><path d="m-69.202 1168.217s-14.41 7.348-20.428-1.569c0 0-7.86-14.986 9.395-20.187 0 0-9.395-11.27.675-21.673 0 0 5.281-5.573 14.492-1.486 0 0 3.807-7.926 12.772-7.679 0 0 7.86-.124 10.562 8.546 0 0 10.807-4.459 16.825 1.982 0 0 9.948 11.146-3.93 19.94l-9.989.908-9.825-4.541-10.971 3.137c.001-.001 2.826 11.104-9.578 22.622z" fill="#d40000" stroke-linejoin="round" stroke-width="2.1841"/><path d="m-183.335 1156.575s-.363 2.973-3.311 3.303c0 0-3.075.99-4.868-2.838 0 0-.207-.866-.256-1.291-.206-1.791-.817-6.936 4.751-11.146 0 0 9.088-7.431 26.445 1.569 0 0 13.755 6.605 23.252 12.22 0 0 24.562 13.21 27.51 14.201 0 0 10.807 5.449 27.346 6.11 0 0 22.597 1.651 32.177-14.201 0 0 7.287-12.055 0-19.733 0 0-2.947-3.468-7.792-2.829-2.034.268-4.281 1.203-6.454 3.737 0 0-3.521 5.119.573 8.917 0 0 5.322 3.261 7.205-3.633 0 0 .082-.495.246.124.105.399 1.31 5.656-1.515 10.114 0 0-13.632 20.629-51.131-.749l-49.452-27.736s-24.808-12.715-39.627 7.183c0 0-11.954 16.513 3.439 27.329 0 0 11.462 6.853 18.667-4.046 0 0 5.977-10.734-3.439-15.44 0 0-8.269-3.881-11.544 4.376s6.386 10.403 7.287 4.541c0 .001.245-1.403.491-.082z" fill="#f5ce00" stroke-miterlimit="2.613" stroke-width="2.1833"/><path d="m-379.36 1241.7s0-25.76 0-30.962c0-2.432.017-4.459 3.702-7.431 3.684-2.972 7.614-7.679 13.264 5.697 0 0 11.053-11.642 14.737-13.376 0 0 6.386-5.449 10.807 2.477 0 0 5.895-8.917 10.562-11.146 0 0 11.053-7.183 11.544 14.366l8.597-7.926s6.632-5.449 14.001 1.982c0 0 12.527 12.137 14.246 15.605 0 0 2.764 3.757 2.979 9.681 0 0-.031 6.667 3.408 10.382 0 0 3.928 3.468 7.736 4.211 0 0 8.966.248 12.159 8.669 0 0 1.474-1.458 5.895 38.903v73.552l-49.616 59.2-79.582-22.788-31.685-13.128-7.123-23.284 30.703-19.816 16.702-45.081-5.404-31.705z" fill="#e4cb5e" stroke-miterlimit="2.613" stroke-width="1.6375"/><path d="m-160.083 1280.754 3.766-5.615 9.006-6.935s13.755 36.097 14.41 43.974v11.201s20.632 5.264 24.235 36.969l-17.03 31.375-26.691-14.862-7.696-5.615z" fill="#784421" stroke-width="1.6374"/></g><path d="m-412.865 1528.596s.983-1.3.307-1.858c0 0-.43-.619-1.597.867 0 0-5.424 6.065-1.105 15.388 0 0 .491 1.331 1.351.898 0 0 .737-.371.061-1.486.001.001-3.868-7.678.983-13.809z" fill="#fff"/><g stroke="#000"><path d="m-332.403 1522.507s.819-2.807-1.146-5.78c0 0-1.31-2.147-.819-4.954" fill="none" stroke-miterlimit="10" stroke-width="2.1833"/><path d="m-314.743 1201.326s.074 7.743 2.285 13.44 9.674 15.551 10.165 20.876" fill="none" stroke-miterlimit="10" stroke-width="1.6375"/><path d="m-127.579 1470.077s12.527.743 18.913 3.963 11.299 6.688 18.667 11.394c0 0 3.439 4.582 17.93 1.796 0 0 25.054-6.007 25.054 13.561 0 0 29.966 2.477 17.685 28.733 0 0-8.351 20.559-25.545 5.945 0 0 11.053 15.853-10.316 22.045 0 0-15.229 3.715-19.65-11.89 0 0-2.456-6.192 3.439-13.871 0 0-7.369-1.486-12.527-9.413 0 0 15.72 19.868-1.474 27.025 0 0-21.608 5.423-22.84-17.117 0 0 1.764-10.403-6.611-14.119 0 0-17.218-3.963-25.077-23.16.001.002 24.758-13.185 22.352-24.892z" fill="#d40000" stroke-linejoin="round" stroke-width="2.1841"/><g fill="none" stroke-miterlimit="10" stroke-width="1.6375"><path d="m-324.625 1235.632 20.443 165.007"/><path d="m-319.902 1235.276 22.925 153.804"/><path d="m-315.605 1234.561 26.406 152.538"/></g><path d="m-266.52 1371.494-47.883-165.355-1.753.471 42.311 167.361z" fill="#784421" stroke-width="1.6374"/><g fill="none" stroke-miterlimit="10" stroke-width="1.6375"><path d="m-300.955 1228.502 48.354 122.185"/><path d="m-304.182 1230.478 46.669 127.64"/></g></g><path d="m-380.79 1560.405s-5.613-5.381-4.831-15.027c0 0 .328-2.064-.703-2.349 0 0-1.099-.459-1.262 1.936 0 0-1.556 10.073 5.24 15.853 0 0 .463.578 1.214.413 0-.001.806-.179.342-.826z" fill="#fff"/><g stroke="#000"><path d="m-298.774 1226.844 49.858 111.458" fill="none" stroke-miterlimit="10" stroke-width="1.6375"/><path d="m-312.41 1233.77 30.58 150.109" fill="none" stroke-miterlimit="10" stroke-width="1.6375"/><path d="m-62.263 1344.998c-21.84-12.393-26.63-39.887-26.63-39.887-5.281-27.371 5.404-49.044 5.404-49.044 14.123-29.848 38.325-35.4 38.325-35.4s-23.71 16.451-30.342 38.62c0 0-5.158 18.701-2.211 37.155s1.842 13.747 6.386 27.99z" fill="#f5ce00" stroke-miterlimit="2.613" stroke-width="2.1833"/><path d="m-156.316 1275.139-91.772 28.977-5.003 40.881c-21.779 31.547-66.035 37.147-66.035 37.147l34.431 36.659 66.155 13.871 34.715-26.751 31.44-29.063c-3.275-15.522-1.474-38.558-1.474-38.558 0-3.881 1.474-12.963 1.474-12.963s-5.405-37.319-3.931-50.2z" fill="#784421" stroke-width=".9998"/><g fill="none" stroke-miterlimit="10" stroke-width="1.6375"><path d="m-251.835 1334.725s60.444-18.874 96.485-34.028"/><path d="m-280.847 1369.18s75.406-13.622 128.461-43.841l19.486-13.161"/><path d="m-132.9 1323.379-20.96 14.924s-84.331 38.888-148.542 39.928"/><path d="m-153.877 1365.936s-64.828 33.383-101.999 33.878"/></g><path d="m-76.571 1272.514s19.322-8.9 28.492 0c0 0 12.772-7.91 26.2 0 0 0 12.772 8.347 21.615 17.541 0 0 6.222 5.329 3.93 22.123 0 0-3.275 11.84-1.31 17.785 0 0 4.257-.843 12.772 9.247 0 0 10.807 12.515 20.305 1.469 0 0-2.947 15.375-20.796 12.898 0 0 8.679 6.77 1.146 24.274 0 0-5.567 12.385 3.275 27.907 0 0-15.556-6.275-14.901-24.605 0 0 1.31-12.385-3.275-21.137 0 0 4.585 7.958-6.059 24.935 0 0-8.187 12.22-1.474 24.935 0 0-15.392-5.614-13.919-24.274 1.474-18.66 10.807-10.899 4.749-28.072 0 0-1.474 8.796-6.059 13.232s-10.48 11.868-8.024 24.252c0 0-9.17-11.394-7.041-23.118s4.421-15.271 4.421-15.271l-28.984-16.434-14.41-26.091z" fill="#d40000" stroke-linejoin="round" stroke-width="2.1841"/></g><path d="m-404.887 1376.943s2.702-12.801 14.983-7.763c0 0 4.176-20.97 26.527-21.713 22.352-.743 23.58 21.797 23.58 23.284 0 0 6.565-9.678 17.528-8.555 0 0 18.901-1.114 11.862 29.233l3.575 3.807s14.439-33.898 44.16-24.98c0 0 28.984 8.834 10.071 36.907 0 0 14.304 18.577 26.433 16.843s22.937-5.449 34.972-26.751c12.036-21.302 40.037-24.522 47.16-23.284s12.749 5.864 13.912 10.899c0 0 14.826-49.483 68.126-41.708l21.369 10.746 8.106 3.715-12.082 34.1-29.434 66.532-22.346 6.869-23.334-13.376-8.106 4.345-.662 19.929-30.778 22.155-21.369 8.807-23.58 16.1-5.486 14.392s-13.023-5.486-27.721 0l-4.864-11.915-13.755-13.128-53.433-25.205-9.654-31.135-9.753-4.345-10.917 12.507-15.965 1.86-23.825-16.1z" fill="#fff" stroke="#00247d" stroke-miterlimit="10" stroke-width="2.1833"/><g stroke="#000"><g stroke-miterlimit="2.613"><g stroke-width="2.1833"><path d="m-172.2 1134.695s-20.394-.908-19.654 20.229" fill="none"/><path d="m-38.049 1359.233c-35.493-10.899-45.195-49.044-45.195-49.044-7.246-28.609 4.421-53.626 4.421-53.626 16.211-38.071 43.639-38.063 43.639-38.063 13.755-.372 15.404 11.394 15.404 11.394 1.298 8.339-4.556 11.353-4.556 11.353-9.416 5.119-15.351-1.816-15.351-1.816-3.93-5.119-.901-9.66-.901-9.66 2.415-3.385 7.041-1.899 7.041-1.899 3.664 1.135 3.275 5.718 3.275 5.718.02.124.102.124.102.124.164-.041.102-.103.102-.103s.819-5.615-4.667-6.193c0 0-10.685-2.312-23.211 13.293 0 0-16.496 21.054-16.457 48.301 0 0-2.088 51.15 51.212 64.401 0 0-5.772 8.298-15.966 38.269 0 0-11.544 38.517-22.563 59.343 0 0-14.649 29.704-47.317 17.567 0 0-19.452-8.546-19.404-22.664 0 0-1.351-12.88 10.316-13.871 0 0 11.421-.867 11.299 8.917 0 0 .307 10.589-12.158 8.174 0 0-4.36-.929-3.562-5.202 0 0 .696-3.839 5.956-2.167 0 0 .164.021.184-.062 0 0 .061-.093-.123-.144 0 0-2.034-.908-4.183-.157 0 0-1.927.643-2.08 3.646 0 0-.123 2.415 2.456 3.777 0 0 3.132 1.115 5.588.867 0 0 3.304 6.668 10.78 8.929 10.406 3.147 18.977.117 24.222-4.068 5.705-4.551 9.395-12.509 10.5-14.459 1.105-1.951 10.685-23.407 17.89-46.484 0 0 6.304-19.898 11.34-30.302z" fill="#f5ce00"/><path d="m-138.202 1456.206s6.632-.899 6.632 5.016c0 0-.405 8.638-10.93 6.75 0 0-10.378-2.271-6.693-13.871 0 0 2.456-8.174 12.281-6.997 0 0 9.518.433 13.693 13.438 0 0 3.193 10.964-2.272 20.373-6.1 10.502-21.533 17.401-28.984 20.456 0 0-29.843 11.724-38.747 18.433 0 0-13.653 10.135-7.614 19.568 0 0 2.333 3.592 5.834 3.592 0 0 3.991.186 4.667-3.901 0 0 .02-.083-.041-.186 0 0-.061 0-.082.103 0 0-.287 2.498-2.456 3.426 0 0-2.907 1.466-5.956-1.115 0 0-3.234-3.096-.532-7.906 0 0 3.541-5.924 11.79-2.415 0 0 7.266 3.592 4.278 11.312 0 0-2.661 7.103-11.421 7.085 0 0-6.598-.219-10.815-4.641-6.583-6.903-6.94-20.346-1.139-27.297 0 0 5.486-7.39 16.498-11.89 6.379-2.607 18.422-7.844 30.949-12.756 8.806-3.454 16.868-7.588 22.106-13.789 0 0 4.667-5.202 6.018-14.119 0 0 1.29-6.688-2.784-8.153 0 0-2.067-.929-4.339-.619 0 0-.061.003-.077.041-.002 0-.094.101.136.062z" fill="#f5ce00"/><path d="m-137.649 1456.165s7.328-1.321 11.913 7.39c0 0 2.702 5.614 3.138 8.861" fill="none"/><path d="m-120.212 1441.271s-7.338 1.273-3.559 11.654c3.562 9.784 10.176 12.994 12.141 14.356" fill="none"/><path d="m-263.786 1156.575s.363 2.973 3.311 3.303c0 0 3.075.99 4.868-2.838 0 0 .207-.866.256-1.291.206-1.791.817-6.936-4.751-11.147 0 0-9.088-7.431-26.445 1.569 0 0-13.755 6.605-23.252 12.22 0 0-24.562 13.21-27.51 14.201 0 0-10.807 5.449-27.346 6.11 0 0-22.597 1.651-32.177-14.201 0 0-7.287-12.055 0-19.733 0 0 2.947-3.468 7.792-2.829 2.034.268 4.281 1.203 6.454 3.737 0 0 3.521 5.119-.573 8.917 0 0-5.322 3.261-7.205-3.633 0 0-.082-.495-.246.124-.105.399-1.31 5.656 1.515 10.114 0 0 13.632 20.629 51.131-.749l49.452-27.736s24.808-12.715 39.627 7.183c0 0 11.954 16.513-3.439 27.329 0 0-11.462 6.853-18.667-4.046 0 0-5.977-10.734 3.439-15.44 0 0 8.269-3.881 11.544 4.376s-6.386 10.403-7.287 4.541c0 .001-.246-1.402-.491-.081z" fill="#f5ce00"/><path d="m-384.858 1344.998c21.84-12.393 26.63-39.887 26.63-39.887 5.281-27.371-5.404-49.044-5.404-49.044-14.123-29.848-38.325-35.4-38.325-35.4s23.71 16.451 30.342 38.62c0 0 5.158 18.701 2.211 37.155s-1.842 13.747-6.386 27.99z" fill="#f5ce00"/><path d="m-274.921 1134.695s20.394-.908 19.654 20.229" fill="none"/><path d="m-409.073 1359.232c35.493-10.899 45.195-49.044 45.195-49.044 7.246-28.609-4.421-53.626-4.421-53.626-16.211-38.071-43.639-38.063-43.639-38.063-13.755-.371-15.404 11.394-15.404 11.394-1.298 8.339 4.556 11.353 4.556 11.353 9.416 5.119 15.351-1.817 15.351-1.817 3.93-5.119.901-9.66.901-9.66-2.415-3.385-7.041-1.899-7.041-1.899-3.664 1.135-3.275 5.718-3.275 5.718-.02.124-.102.124-.102.124-.164-.041-.102-.103-.102-.103s-.819-5.615 4.667-6.193c0 0 10.685-2.312 23.211 13.293 0 0 16.496 21.054 16.457 48.301 0 0 2.088 51.149-51.212 64.401 0 0 5.772 8.298 15.966 38.269 0 0 11.544 38.517 22.563 59.343 0 0 14.649 29.705 47.317 17.568 0 0 19.452-8.546 19.404-22.664 0 0 1.351-12.88-10.316-13.871 0 0-11.422-.867-11.299 8.917 0 0-.307 10.589 12.158 8.174 0 0 4.36-.929 3.562-5.202 0 0-.696-3.839-5.956-2.167 0 0-.164.021-.184-.062 0 0-.061-.093.123-.144 0 0 2.034-.908 4.183-.157 0 0 1.927.642 2.08 3.646 0 0 .123 2.415-2.456 3.777 0 0-3.132 1.115-5.588.867 0 0-3.304 6.668-10.78 8.928-10.406 3.147-18.977.117-24.222-4.067-5.705-4.552-9.395-12.509-10.5-14.459-1.105-1.951-10.685-23.407-17.89-46.484 0 0-6.304-19.898-11.34-30.302z" fill="#f5ce00"/><path d="m-308.92 1456.206s-6.632-.899-6.632 5.016c0 0 .405 8.638 10.93 6.75 0 0 10.378-2.271 6.693-13.871 0 0-2.456-8.174-12.281-6.997 0 0-9.518.433-13.693 13.438 0 0-3.193 10.964 2.272 20.373 6.1 10.502 21.533 17.401 28.984 20.456 0 0 29.843 11.724 38.747 18.433 0 0 13.653 10.135 7.614 19.568 0 0-2.333 3.592-5.834 3.592 0 0-3.991.186-4.667-3.901 0 0-.02-.083.041-.186 0 0 .061 0 .082.103 0 0 .287 2.498 2.456 3.427 0 0 2.907 1.466 5.956-1.115 0 0 3.234-3.096.532-7.906 0 0-3.541-5.924-11.79-2.415 0 0-7.266 3.592-4.278 11.312 0 0 2.661 7.103 11.421 7.085 0 0 6.598-.219 10.815-4.641 6.583-6.903 6.94-20.346 1.139-27.297 0 0-5.486-7.39-16.498-11.89-6.379-2.607-18.422-7.844-30.949-12.756-8.806-3.454-16.868-7.588-22.106-13.789 0 0-4.667-5.202-6.018-14.119 0 0-1.29-6.688 2.784-8.153 0 0 2.067-.929 4.339-.619 0 0 .061.003.077.041.003-.001.095.1-.136.061z" fill="#f5ce00"/><g fill="none"><path d="m-309.472 1456.164s-7.328-1.321-11.913 7.39c0 0-2.702 5.615-3.138 8.862"/><path d="m-326.909 1441.27s7.338 1.273 3.559 11.654c-3.562 9.784-10.176 12.994-12.141 14.356"/><path d="m-241.302 1153.732s17.742-11.11 35.861 1.192"/></g></g><g fill="none" stroke-width="1.6375"><path d="m-342.253 1262.259s2.456-9.908-8.842-27.247c0 0-7.369-15.853-11.299-26.008"/><path d="m-336.85 1198.106s6.398 15.584 8.597 22.561c0 0 7.936 19.547 9.617 23.51"/></g></g><g fill="none" stroke-miterlimit="10" stroke-width="1.6375"><path d="m-333.656 1273.158s6.67 7.183 5.914 19.32"/><path d="m-355.763 1265.479s7.369 3.55 6.883 23.118c0 0-.742 14.284 10.311 21.467"/><path d="m-356.763 1315.101s23.064-2.518 24.334 11.683c0 0 .491 13.623 8.351 15.11 0 0 11.772 1.115 14.106 12.013"/><path d="m-349.499 1330.871s4.053 6.069 7.983 8.669"/><path d="m-319.902 1315.886s5.858 8.876 6.963 14.078"/><path d="m-294.52 1209.004s5.404 7.348 10.644 10.816"/><path d="m-272.906 1252.516s11.462 5.614 9.497 34.512c0 0-1.475 16.948 3.274 26.195"/></g><path d="m-326.902 1232.907.737 2.725s20.55.867 31.644-13.128l-1.187-2.683c0-.001-17.93-.909-31.194 13.086z" fill="#784421" stroke-width="1.6374"/><path d="m-252.867 1343.161s71.074-21.19 98.468-33.542" fill="none" stroke-miterlimit="10" stroke-width="1.6375"/><path d="m-261.32 1209.747 35.153-13.375.83 2.353-35.162 13.353z" fill="#784421" stroke-width=".9998"/></g><g fill="none" stroke-miterlimit="10"><g stroke="#000" stroke-width="1.6375"><path d="m-257.513 1210.945 23.334 114.394"/><path d="m-253.465 1209.407 26.726 113.868"/><path d="m-248.916 1207.68 29.229 113.036"/><path d="m-237.457 1203.328 39.848 84.849"/><path d="m-232.185 1201.326 42.491 84.352"/><path d="m-228.283 1199.844 45.964 83.506"/><path d="m-235.757 1326.248 18.035-5.945"/><path d="m-249.412 1314.929s52.866-15.443 92.876-31.579"/><path d="m-250.12 1320.716s67.001-17.727 93.584-30.661"/><path d="m-229.676 1375.209 3.509 10.734 9.591-3.068-3.275-10.638"/><path d="m-202.613 1367.497 3.508 10.733 9.592-3.068-3.275-10.638"/><path d="m-248.089 1304.116-.827-14.522 87.851-26.674 4.749 12.219"/><path d="m-211.662 1278.283 4.788 12.82"/><path d="m-180.95 1268.957 5.598 12.193"/><path d="m-173.666 1266.746 5.232 11.537"/><path d="m-166.712 1264.634 5.501 12.051"/><path d="m-161.065 1262.92 9.661-5.45 4.094 10.734"/><path d="m-156.316 1260.241 4.919 11.11"/></g><g stroke="#00247d" stroke-width="2.1833"><path d="m-374.184 1427.473s-17.194-17.412 0-34.467c0 0-18.667-9.128-15.72-23.827"/><path d="m-343.481 1441.27s-17.808 2.427-12.527-32.25c0 0-7.369 13.747-9.908 20.812-1.9 5.287-.644 13.825 6.895 18.439 3.013 1.844 18.978 6.004 24.136-4.573"/><path d="m-363.377 1388.213s-7.246 6.688-2.088 18.949"/><path d="m-355.885 1389.823s.86 11.89 6.755 18.577"/><path d="m-350.794 1385.117s-.056 13.995 10.014 22.664"/><path d="m-345.787 1380.287s.095 15.729 11.762 25.389"/><path d="m-287.848 1403.323s5.895-12.88 18.299-12.261c0 0-6.018 2.725-5.895 8.752 0 0-.737 9.949 9.948 10.94 0 0 8.597 1.115 12.895-3.592"/><path d="m-258.496 1462.151s-30.58-14.366-27.387-35.049c0 0 1.228-12.632 13.577-18.577"/><path d="m-278.76 1421.652s-2.702 8.917 3.316 15.11"/><path d="m-271.882 1415.584s-3.684 9.784 2.456 17.091"/><path d="m-264.518 1410.834s-4.417 8.093.864 15.4"/><path d="m-292.392 1464.254s16.702 14.492 29.72 14.616"/><path d="m-297.673 1468.839s15.609 12.633 25.367 14.49"/><path d="m-303.568 1472.416s19.293 16.982 31.262 18.22"/><path d="m-225.091 1506.241s-18.967 10.22-4.264 21.025"/><path d="m-237.127 1494.971s21.492-11.27 30.826-15.481"/><path d="m-229.389 1500.792s31.071-18.949 40.282-23.036"/><path d="m-213.424 1502.03s26.527-17.71 40.773-25.389"/><path d="m-195.862 1501.411s18.299-14.366 35.984-24.77"/><path d="m-153.615 1458.683s-8.965-13.128-38.44 0c0 0 10.807-9.807 32.177-17.412"/><path d="m-130.124 1384.869s2.417 10.651-.163 17.091"/><path d="m-177.931 1436.514s6.141-9.041 21.738-13.5c0 0 4.204 10.527 16.334 8.174 0 0 18.299-3.592 12.772-23.655 0 0-3.807-14.986-24.706-16.472"/><path d="m-89.63 1365.936s21.246 3.824 20.878 21.163c0 0 1.719 26.008-25.668 31.086"/><path d="m-71.765 1376.616s5.838-12.677 18.856-17.879"/><path d="m-68.73 1351.306s5.803 9.303 9.768 10.658"/><path d="m-71.765 1358.737s5.468 6.684 7.311 7.801"/><path d="m-73.541 1365.177s2.881 4.255 5.432 5.595"/><path d="m-182.844 1264.634s4.135-6.71 14.41-3.861"/><path d="m-126.473 1314.929s6.509-27.157 29.229-17.125"/><path d="m-106.455 1295.58s2.333-12.52-3.316-18.895"/><path d="m-121.929 1294.708s2.894 5.179.418 9.409"/></g></g><path d="m-75.752 1572.129s25.545-11.642 17.685-31.458c0 0-2.428-6.688-8.091-6.192 0 0-9.851.495-7.88 13.623 0 0 2.953 12.88-1.714 24.027z" fill="#64b4d1" stroke="#00247d" stroke-miterlimit="2.613" stroke-width="1.6375"/><path d="m-66.5 1560.404s5.613-5.381 4.831-15.027c0 0-.327-2.064.703-2.349 0 0 1.099-.459 1.262 1.936 0 0 1.556 10.073-5.24 15.853 0 0-.463.578-1.214.413-.001 0-.806-.178-.342-.826z" fill="#fff"/><path d="m-39.4 1554.294s17.93-11.27 8.228-30.219c0 0-2.825-5.449-8.228-4.335 0 0-11.176 3.468-2.456 18.949 0 0 4.421 10.032 2.456 15.605z" fill="#64b4d1" stroke="#00247d" stroke-miterlimit="2.613" stroke-width="1.6375"/><path d="m-34.917 1528.596s-.982-1.3-.307-1.858c0 0 .43-.619 1.597.867 0 0 5.424 6.065 1.105 15.389 0 0-.491 1.331-1.351.898 0 0-.737-.372-.061-1.486-.001-.001 3.868-7.68-.983-13.81z" fill="#fff"/><path d="m-93.068 1567.175s-20.018-5.078-16.334-25.76c0 0 1.965-9.041 10.439-7.802 0 0 10.212 2.607 3.562 15.755-.001-.002-3.931 9.385 2.333 17.807z" fill="#64b4d1" stroke="#00247d" stroke-miterlimit="2.613" stroke-width="1.6375"/><path d="m-100.806 1542.467s-.737-.991.123-1.424c0 0 .86-.372 1.474.836 0 0 2.088 3.313.32 7.848 0 0-1.671 3.144-.859 6.426 0 0 .109.929-.627 1.053 0 0-.706-.248-.844-.929 0 0-.999-3.204.721-6.339-.001-.001 2.087-4.87-.308-7.471z" fill="#fff"/><path d="m-78.7 1528.029s11.299-6.349 20.632 1.082c0 0-.954-4.128-8.091-5.945 0 0-3.862-10.899-14.67-9.908 0 0 4.421 5.284 10.316 9.743.001.001-6.222.644-8.187 5.028z"/><path d="m-70.348 1498.177s7.676 5.67 10.797 9.468c0 0 3.122-3.881 7.215-6.234 0 0-4.713-.62-7.215 1.5 0 0-3.92-3.798-10.797-4.734z"/><g fill="none" stroke="#000" stroke-miterlimit="10" stroke-width="2.1833"><path d="m-114.888 1522.506s-.819-2.807 1.146-5.78c0 0 1.31-2.147.819-4.954"/><path d="m-32.522 1346.146s11.954-.826 13.919-10.073"/><path d="m2.356 1329.963s-4.165-.165-7.931 3.633c0 0-2.876 4.293-6.97 3.798"/></g><path d="m-50.207 1310.973s6.222 0 9.661-2.972c0 0 3.602-2.477 5.731 1.486 0 0 3.275 5.615-2.784 8.091 0 0-7.532 3.798 4.421 11.394 0 0-14.246-5.119-8.515-12.055 0 0 6.222-4.458 3.93-6.11 0 0-.655-1.321-3.111.33-2.456 1.652-7.368.992-9.333-.164z"/><path d="m-41.744 1160.598s2.811-3.825 1.661-15.301c-1.15-11.475 8.815-12.795 12.647-9.497 0 0 3.96 3.429.319 10.707-2.104 4.204-5.459 9.64-14.627 14.091z" fill="#64b4d1" stroke="#00247d" stroke-miterlimit="2.613" stroke-width="1.6375"/><path d="m-37.997 1152.03s3.735-4.015 1.953-12.735c0 0-.013-.86.482-.918 0 0 .906-.229 1.06.631 0 0 2.004 9.293-2.21 14.342 0 0-.771.746-1.285 0 0 0-.57-.534 0-1.32z" fill="#fff"/><path d="m-44.926 1156.425s-.295-4.626-8.29-12.487-1.422-15.104 3.474-15.044c0 0 5.073.078 6.9 7.808 1.055 4.465 1.948 10.637-2.084 19.723z" fill="#64b4d1" stroke="#00247d" stroke-miterlimit="2.613" stroke-width="1.6375"/><path d="m-46.17 1146.364s.143-5.666-7.097-11.581c0 0-.59-.689-.251-1.055 0 0 .536-.771 1.234-.173 0 0 7.796 6.237 7.984 13.049 0 0-.085 1.102-.98.83-.001-.001-.795-.065-.89-1.07z" fill="#fff"/><path d="m-55.784 1152.948s-2.089-3.769-11.964-7.272c-9.875-3.504-7.208-12.128-3.052-13.974 0 0 4.313-1.898 8.929 3.883 2.667 3.339 5.877 8.175 6.087 17.363z" fill="#64b4d1" stroke="#00247d" stroke-miterlimit="2.613" stroke-width="1.6375"/><path d="m-60.11 1146.02s-2.245-5.196-11.286-7.472c0 0-.823-.373-.67-.849 0 0 .163-.927 1.046-.683 0 0 9.679 2.33 12.705 8.424 0 0 .384 1.035-.541 1.17 0-.001-.747.28-1.254-.59z" fill="#fff"/><path d="m-49.596 1156.72s-4.605 1.293-15.179-3.808c-10.574-5.102-15.205 3.777-13.352 8.526 0 0 1.936 4.915 10.12 4.053 4.728-.498 11.057-1.738 18.411-8.771z" fill="#64b4d1" stroke="#00247d" stroke-miterlimit="2.613" stroke-width="1.6375"/><path d="m-74.185 1160.09s4.794 2.958 13.494-.407c0 0 .887-.171 1.032.308 0 0 .394.854-.469 1.165 0 0-9.254 3.69-15.198.448 0 0-.904-.626-.222-1.271 0-.001.453-.663 1.363-.243z" fill="#fff"/><path d="m-65.067 1123.301s5.281 2.56 4.053 8.752" fill="none" stroke="#000" stroke-miterlimit="2.613" stroke-width="2.1833"/><path d="m-41.733 1124.168s2.066 6.539-.216 10.061" fill="none" stroke="#000" stroke-miterlimit="10" stroke-width="2.1833"/><path d="m-406.044 1160.598s-2.811-3.825-1.661-15.301c1.15-11.475-8.815-12.795-12.647-9.497 0 0-3.96 3.429-.319 10.707 2.103 4.204 5.459 9.64 14.627 14.091z" fill="#64b4d1" stroke="#00247d" stroke-miterlimit="2.613" stroke-width="1.6375"/><path d="m-409.791 1152.03s-3.735-4.015-1.953-12.735c0 0 .013-.86-.482-.918 0 0-.906-.229-1.06.631 0 0-2.004 9.293 2.21 14.342 0 0 .771.746 1.285 0 0 0 .57-.534 0-1.32z" fill="#fff"/><path d="m-402.862 1156.425s.295-4.626 8.29-12.487 1.422-15.104-3.474-15.044c0 0-5.073.078-6.9 7.808-1.055 4.465-1.949 10.637 2.084 19.723z" fill="#64b4d1" stroke="#00247d" stroke-miterlimit="2.613" stroke-width="1.6375"/><path d="m-401.618 1146.364s-.143-5.666 7.097-11.581c0 0 .59-.689.251-1.055 0 0-.536-.771-1.234-.173 0 0-7.796 6.237-7.984 13.049 0 0 .085 1.102.98.83.001-.001.795-.065.89-1.07z" fill="#fff"/><path d="m-392.004 1152.948s2.089-3.769 11.964-7.272c9.875-3.504 7.208-12.128 3.052-13.974 0 0-4.313-1.898-8.929 3.883-2.668 3.339-5.877 8.175-6.087 17.363z" fill="#64b4d1" stroke="#00247d" stroke-miterlimit="2.613" stroke-width="1.6375"/><path d="m-387.678 1146.02s2.245-5.196 11.286-7.472c0 0 .823-.373.67-.849 0 0-.163-.927-1.046-.683 0 0-9.679 2.33-12.705 8.424 0 0-.384 1.035.541 1.17 0-.001.747.28 1.254-.59z" fill="#fff"/><path d="m-398.193 1156.72s4.605 1.293 15.179-3.808c10.574-5.102 15.205 3.777 13.352 8.526 0 0-1.936 4.915-10.12 4.053-4.727-.498-11.056-1.738-18.411-8.771z" fill="#64b4d1" stroke="#00247d" stroke-miterlimit="2.613" stroke-width="1.6375"/><path d="m-373.603 1160.09s-4.794 2.958-13.494-.407c0 0-.887-.171-1.032.308 0 0-.394.854.469 1.165 0 0 9.254 3.69 15.198.448 0 0 .904-.626.222-1.271 0-.001-.453-.663-1.363-.243z" fill="#fff"/><path d="m-382.721 1123.301s-5.281 2.56-4.053 8.752" fill="none" stroke="#000" stroke-miterlimit="2.613" stroke-width="2.1833"/><path d="m-406.055 1124.168s-2.066 6.539.216 10.061" fill="none" stroke="#000" stroke-miterlimit="10" stroke-width="2.1833"/><path d="m-176.826 1064.101s3.345 9.551 1.904 18.206c-1.29 7.74.47 9.742 3.268 11.273 2.421 1.325 8.03-.993 8.706-7.062 0 0 6.632 12.942-6.263 21.674 0 0-9.272 5.697-17.132-1.92-2.769-2.683-3.991-10.094-2.64-16.967 0 0 2.029-9.32-1.351-18.887 0 0 5.281 5.635 3.93 16.871 0 0-2.702 20.16 12.22 19.169 0 0 10.316-.124 10.623-12.633 0 0-3.869 4.458-8.658 2.972-3.392-1.052-6.509-4.335-5.956-9.509.578-5.427 2.086-14.889 1.349-23.187z"/><path d="m-193.733 1097.21s-.819 15.935-15.392 19.816c0 0 2.047-2.89-1.228-10.816 0 0-3.193-4.624-2.947-11.807 0 0-4.639 3.629.655 13.211 3.193 5.78.409 12.715-.573 12.963-.984.247 24.07-3.303 19.485-23.367z"/><path d="m-212.646 1081.358s-3.521-3.963-3.766-13.128c-.246-9.165-1.965-11.394-3.193-12.467 0 0 1.801 7.926 1.31 12.798-.491 4.871.327 7.679.982 9.99 0 0-7.942 1.238-12.936-10.321-4.774-11.048-9.579-10.156-11.954-10.073 0 0 2.769.306 8.351 10.403 5.574 10.081 7.124 12.137 21.206 12.798z"/><path d="m-249.817 1057.414s4.585 10.981 4.749 16.761c0 0-10.644-3.55-13.509-12.798 0 0-11.381 3.881-7.205 17.009 0 0-9.825-3.468-14.246-11.477 0 0 5.486 4.128 10.562 5.945 0 0-.573-10.568 12.691-14.531 0 0 1.975 9.468 8.597 11.724-.002-.001-.493-5.946-1.639-12.633z"/><path d="m-232.296 1038.589s3.684 5.367 11.217 5.615c3.602.118 7.474-.694 11.217-5.615 0 0-.491 9.33-11.217 9.412 0 0-11.217.413-11.217-9.412z"/><path d="m-278.698 1102.371s5.588 5.078 6.755 6.75c0 0 3.93 3.839 7.304-1.126 0 0 4.302-7.941 9.583-7.729 0 0-3.746 2.601-7.955 10.109 0 0-1.133 2.771-4.265 3.081-1.467.145-3.316.619-6.117-2.306-.001-.001-2.419-2.958-5.305-8.779z"/><path d="m-221.079 1001.186c-11.217-.005-1.76 8.669-1.76 8.669.246 13.747-10.786 17.978-18.299 13.995-7.512-3.983-1.637-13.995-1.637-13.995s-8.474 5.573-3.07 13.623 19.568 4.458 24.767-2.972c5.199 7.431 19.363 11.023 24.767 2.972 5.404-8.05-3.07-13.623-3.07-13.623s5.875 10.012-1.637 13.995-18.545-.248-18.299-13.995c-.002.001 9.455-8.674-1.762-8.669z"/><path d="m-214.284 986.324s3.93 6.688 3.07 16.843c.001.001 3.562-10.155-3.07-16.843z"/><path d="m-248.671 1002.053s-.86-7.307-7.983-7.926c0 0 6.018 4.335 7.983 7.926z"/><path d="m-193.406 1002.053s.86-7.307 7.983-7.926c0 0-6.018 4.335-7.983 7.926z"/><path d="m-259.969 1013.2s5.649 1.734 9.088-2.477c0 0-6.509 1.733-9.088 2.477z"/><path d="m-278.268 968.366s6.57-.743 13.141 9.041c0 0-6.509 3.468-8.106 5.573 0 0 0-3.22 3.193-6.069 0 .001-1.228-4.953-8.228-8.545z"/><path d="m-168.229 968.366s-6.57-.743-13.141 9.041c0 0 6.509 3.468 8.106 5.573 0 0 0-3.22-3.193-6.069-.001.001 1.228-4.953 8.228-8.545z"/><path d="m-218.95 975.667s5.895 1.617 13.264-2.47c0 0 9.088-4.83 14.86 0 0 0-5.035-2.242-14.737 2.47-.001 0-9.703 5.319-13.387 0z"/><path d="m-212.81 981.618s5.035-8.83 20.387-7.078c0 0-4.176 12.28-20.387 7.078z" fill="#fff"/><ellipse cx="-202.221" cy="978.879" fill="#784421" rx="3.036" ry="3.847"/><ellipse cx="-202.221" cy="978.879" rx="1.803" ry="2.36"/><path d="m-245.723 962.793s9.702.619 15.597 4.335c0 0 6.263 3.715 13.386-1.61 0 0 7.747-4.459 12.716-10.651 0 0-11.856 8.174-16.277 9.413 0 0-4.053-3.096-5.649-7.555 0 0 .614-3.344 7-9.536 0 0-8.597 2.601-10.316 9.908 0 0 1.597 4.459 4.912 7.926 0 0-1.597.743-5.772-1.858 0 0-9.088-3.097-15.597-.372z"/><path d="m-221.079 1021.064c-8.392 7.245 0 6.502 0 6.502s8.392.743 0-6.502z"/><path d="m-225.935 975.667s-5.895 1.617-13.264-2.47c0 0-9.088-4.83-14.86 0 0 0 5.035-2.242 14.737 2.47.001 0 9.703 5.319 13.387 0z"/><path d="m-232.076 981.618s-5.035-8.83-20.387-7.078c.001 0 4.176 12.28 20.387 7.078z" fill="#fff"/><ellipse cx="-242.665" cy="978.879" fill="#784421" rx="3.036" ry="3.847"/><ellipse cx="-242.665" cy="978.879" rx="1.803" ry="2.36"/><path d="m75.449 902.173v556.51c0 148.649-297.162 196.948-297.162 196.948s-297.162-48.299-297.162-196.948v-556.51z" fill="none" stroke="#000" stroke-width="5.2566"/></svg>