<svg clip-rule="evenodd" fill-rule="evenodd" height="398.29999" image-rendering="optimizeQuality" shape-rendering="geometricPrecision" text-rendering="geometricPrecision" viewBox="0 0 94 116" width="325.20001" xmlns="http://www.w3.org/2000/svg"><g fill-rule="evenodd" transform="matrix(1.031945 0 0 1.031945 -1.500309 -.759073)"><path d="m1.5456 85.8432c0 4.9639 7.8263 14.1892 13.6747 14.1891l17.1833.0005c7.7202-.0001 13.547 6.7962 13.5475 12.5275 1.0417.0002 1.0841.0002 2.1903.0004-.0002-5.7954 3.7002-12.5495 13.5683-12.5497l16.9286.0003c6.1457-.0002 13.8018-9.2039 13.802-14.1682-.0003-28.2936-.0006-56.4593-.0002-84.6467l-90.8949-.0213z" fill="#00923f"/><path d="m15.2203 99.5972v.8702l-.593-.0283-.601-.0834-.6039-.1341-.6067-.1825-.6078-.2284-.6086-.2683-.6044-.3093-.6034-.3462-.5971-.3803-.5927-.4122-.5829-.4416-.5747-.4684-.5647-.4912-.5513-.5149-.5378-.5343-.5207-.5495-.5036-.566-.4846-.5779-.4639-.5876-.4397-.5947-.4171-.601-.391-.6033-.3614-.6046-.3334-.602-.3001-.5984-.2686-.5925-.2335-.5857-.1949-.5747-.1562-.5632-.1159-.5489-.0701-.5342-.026-.5166h.872l.0192.4382.0633.4658.1021.4909.1426.512.1813.5305.2165.5447.2516.5583.2865.5678.3164.5746.3478.5774.3738.5793.4001.5772.4261.5743.4469.567.4676.5575.4866.5454.5037.5325.5172.5139.5309.4943.5409.4742.5509.448.5591.421.5619.3918.5665.3599.566.3256.5668.2889.561.2513.5566.2078.5489.1655.5391.1205.5262.073zm17.1833.8707-17.1833-.0005v-.8702l17.1833.0005zm13.5475 11.6573v.8702l-.4343-.4351-.017-.5146-.0487-.5177-.078-.5244-.1116-.5264-.1396-.5287-.17-.5293-.2-.5269-.2273-.5247-.2556-.5196-.2817-.5145-.3084-.5064-.3348-.4984-.3586-.4874-.3834-.4751-.4074-.4627-.429-.4474-.4516-.4306-.4736-.4141-.4931-.3945-.5117-.3732-.5332-.3526-.5488-.3284-.5688-.3031-.583-.2779-.6016-.2495-.6159-.2199-.6297-.1921-.6445-.1577-.6583-.1271-.6699-.0915-.6824-.0563-.696-.0197v-.8702l.7402.0197.7302.0597.7175.0985.7027.1339.6887.1713.6739.2023.6569.2369.639.2667.6238.2949.603.3235.5862.349.5638.373.5459.3972.5237.4183.5008.4379.4788.458.4564.4746.4312.4901.4072.5057.3824.5182.3552.5292.329.5404.3021.5487.2726.557.2443.5623.2136.5679.1836.5703.1532.5729.1186.5742.0882.5722.0521.5723.017.5658zm0 .8702h-.4342l-.0001-.4351zm1.756-.4347h.8686l-.4343.4351-.1007.0017-.0947-.0017-.0894-.0001h-.0842l-.0795.0017-.0751-.0017h-.0712l-.0676.0017h-.0644l-.0616-.0017-.0591-.0001h-.057l-.0553.0017h-.054-.0531-.0524-.0523-.0525-.0531-.054l-.0553-.0017-.057-.0001-.0591.0017h-.0616-.0643l-.0676-.0017-.0712.0017h-.0752l-.0795-.0017-.0842-.0001-.0893.0017-.0948-.0017v-.8702l.0948-.0017.0893.0017.0842.0001.0795-.0017h.0752l.0712.0017.0676-.0017h.0643.0616l.0591.0017.057.0001.0553-.0017h.054.0531.0525.0523.0524.0531.054l.0553.0017h.057l.0591.0001.0616-.0017h.0644l.0676.0017h.0712l.0751-.0017.0795.0017h.0842l.0894.0001.0947-.0017.1007.0017zm.8686 0v.4351h-.4343zm13.134-12.9848v.8702l-.8884.0196-.8527.056-.8158.0927-.7793.1264-.7466.1586-.7112.1912-.6776.2206-.6447.2484-.6122.2751-.5817.302-.5485.3239-.519.3481-.4899.3706-.4598.3885-.4316.4099-.4022.425-.375.4436-.3483.4575-.3203.4716-.296.4844-.2691.4957-.2423.5056-.2196.5142-.1938.5212-.1686.5286-.1454.5312-.1225.534-.0988.5372-.0752.5355-.054.5358-.033.5331-.0109.5288h-.8686l.0109-.563.033-.5671.0574-.57.082-.5731.1056-.5712.1295-.5716.1556-.5686.1822-.5628.2074-.5588.2332-.5516.2627-.5432.2895-.5333.3166-.5218.3475-.5092.3755-.4951.4056-.4776.4364-.4626.4656-.4407.4972-.4225.5275-.398.5598-.3753.5927-.3513.6227-.3224.6564-.2955.6889-.2656.722-.2342.7554-.2014.7876-.1688.8235-.1332.8566-.0963.8903-.0594zm16.9286.8705-16.9286-.0003v-.8702l16.9286.0003zm13.3677-14.6033h.8686l-.0239.5149-.0687.534-.1138.5487-.1534.5628-.1917.5742-.228.5852-.2646.5919-.2977.5977-.3274.6012-.3589.6038-.3853.6024-.4134.6001-.438.5954-.4611.5867-.4825.5769-.5021.5649-.522.5503-.5365.5316-.5545.514-.5658.4919-.5804.4675-.5902.4407-.5981.4114-.6076.3795-.614.3455-.6187.3086-.6214.2678-.6246.228-.6256.182-.6254.1339-.6232.0815-.6178.0283v-.8702l.5428-.0249.5518-.0745.5606-.1203.5678-.165.5734-.2074.5772-.2508.5777-.2882.5766-.3249.5736-.3591.5709-.391.5628-.4201.5532-.4471.5454-.4715.5307-.4934.5195-.5146.5014-.5299.4851-.5443.4655-.5565.4441-.5661.421-.5716.3964-.5763.3715-.5784.3419-.5766.3138-.5738.2807-.5671.2476-.5577.2144-.5442.1781-.53.1398-.5116.1-.4907.0619-.4656zm.4341-84.2116v-.8702l.4343.4351v2.6425l-.0001 2.6424v2.6424l.0017 2.6422-.0017 2.6423-.0001 2.6423.0017 2.6423v2.6424l-.0017 2.6425.0017 2.6426v2.6427l-.0017 2.643.0017 2.6431v2.6433l-.0017 2.6436v2.6439l.0001 2.6442.0017 2.6446v2.6449l-.0017 2.6453v2.6457 2.6462l.0001 2.6466.0017 2.6471v2.6477l-.0017 2.6483.0001 2.6488.0017 2.6494v2.6501l-.0017 2.6507.0001 2.6514v2.6522h-.8686v-2.6522l-.0001-2.6514-.0017-2.6507v-2.6501l.0017-2.6494-.0001-2.6488-.0017-2.6483v-2.6477l.0017-2.6471-.0001-2.6466v-2.6462-2.6457l-.0017-2.6453v-2.6449l.0017-2.6446-.0001-2.6442v-2.6439l-.0017-2.6436v-2.6433l.0017-2.6431-.0017-2.643v-2.6427l.0017-2.6426-.0017-2.6425v-2.6424l.0017-2.6423.0001-2.6423-.0017-2.6423.0017-2.6422v-2.6424l.0001-2.6424v-2.6425zm0-.8702.4343.0001v.435zm-91.3292.4138.4343-.4351 90.8949.0213v.8702l-90.8949-.0213zm0 0v-.4352l.4343.0001zm.8707 84.6681h-.8703l-.0004-84.6681h.8686l.0004 84.6681z" fill="#71625b" fill-rule="nonzero"/><path d="m81.8218 99.2884c4.3545-1.5976 10.6327-8.8514 10.6331-13.8221l-.0004-3.4242-32.3283-34.34 32.3286-34.5433.0002-11.9957h-14.987l-30.506 32.4631-30.506-32.4634h-14.9109l-.0001 11.996 31.9994 34.5429-31.9995 34.3404.0004 3.703c-.0002 4.9201 6.455 11.6409 10.5564 13.5426l34.86-37.3322z" fill="#28166f"/><path d="m92.0262 85.4663h.8574l-.0182.5044-.0568.513-.0923.5219-.1246.5257-.157.5333-.1863.5361-.214.539-.2404.5406-.2651.5406-.2884.5408-.3101.5381-.3305.5337-.3491.5314-.3665.5225-.3821.5172-.3966.5072-.4091.4971-.4205.4859-.4319.4714-.4384.4589-.4469.4431-.4522.4242-.4558.4074-.4599.3874-.4606.3658-.4598.3428-.4609.3184-.4571.2927-.4535.2652-.4502.2381-.4436.2062-.4355.1762-.2958-.8084.3917-.156.4032-.1894.4132-.2179.4233-.2484.4303-.2757.4339-.3016.4396-.326.4404-.349.4397-.3704.439-.3906.4354-.4108.4301-.4263.425-.4419.4151-.458.4071-.4691.3957-.4803.383-.4902.3687-.497.3531-.5057.3357-.5078.3169-.5135.2967-.5145.275-.514.2517-.5136.2268-.5102.2006-.5054.1729-.4991.1436-.4895.1144-.4819.0823-.4679.05-.4558zm.741-3.7189.116.2947.0004 3.4242h-.8574l-.0004-3.4242zm0 0 .1159.1231.0001.1716zm-32.9537-34.34h.6254l32.3283 34.34-.6254.5894-32.3283-34.34zm0 .5894-.2766-.2938.2766-.2956zm33.07-34.838-.116.2947-32.3286 34.5433-.6254-.5894 32.3286-34.5433zm0 0v.1707l-.116.124zm-.4285-12.4269.4287.4312-.0002 11.9957h-.8574l.0002-11.9957zm0 0h.4287v.4312zm-15.2997.1365.3127-.1365h14.987v.8624h-14.987zm0 0 .1282-.1365h.1845zm-30.506 33.0525v-.5894l30.506-32.4631.6254.5894-30.506 32.4631zm.6254 0-.3127.3327-.3127-.3327zm-30.8187-33.1893.3127.1365 30.506 32.4634-.6254.5894-30.506-32.4634zm0 0h.1844l.1283.1365zm-15.3396.4312.4287-.4312h14.9109v.8624h-14.9109zm0 0v-.4311l.4287-.0001zm.1142 12.289-.1143-.293.0001-11.996h.8574l-.0001 11.996zm0 0-.1143-.1233v-.1697zm32.6282 34.5429h-.6288l-31.9994-34.5429.6288-.586 31.9994 34.5429zm0-.586.2722.2938-.2722.2922zm-32.7426 34.6334.1143-.293 31.9995-34.3404.6288.586-31.9995 34.3404zm0 0v-.1703l.1143-.1227zm.8578 3.703h-.8574l-.0004-3.703h.8574zm9.815 13.2496.6254.586-.4926.0977-.4079-.2006-.4184-.2276-.4257-.2518-.4347-.2781-.4401-.2997-.446-.3219-.4484-.343-.4509-.3626-.4519-.3813-.4494-.3985-.4471-.4146-.4447-.4279-.4376-.4449-.4304-.4557-.4199-.467-.4111-.4787-.3991-.4875-.3856-.4952-.3703-.5017-.3551-.5085-.3349-.5141-.315-.517-.2932-.5185-.2715-.5223-.2449-.5214-.2201-.5228-.1903-.5194-.1606-.5183-.1291-.516-.0944-.5107-.0583-.5077-.0186-.4983h.8574l.0186.4343.0515.4437.0844.4569.1157.4654.147.4745.1769.4824.2033.4856.2315.4912.2547.4919.2798.4949.3014.4934.3215.4907.3383.4883.3569.4847.372.4784.3857.4707.3977.4619.4099.4534.4168.4423.4242.4281.4279.4177.4337.4012.436.3851.4349.3677.4341.3492.4316.3294.4258.3085.4201.2863.4111.2611.4021.2384.3882.2108.3743.1838zm.6254.586-.2125.2275-.2801-.1298zm34.86-37.9182v.586l-34.86 37.3322-.6254-.586 34.86-37.3322zm-.6254 0 .3127-.3348.3127.3348zm35.3207 38.0301-.4606-.1112-34.8601-37.3329.6254-.586 34.8601 37.3329zm0 0-.2657.0974-.1949-.2086z" fill="#71625b" fill-rule="nonzero"/><path d="m25.5879 46.2987c.5818.506 1.1131 1.2143 1.442 1.872-.1265.0759.0506.1771.0759.3036 1.5684.253 2.8333 1.2649 3.9717 2.4033 1.5685.0506 3.2381-.2024 4.3765.8348 1.5179.7842 2.9092 1.8973 4.6548 2.125 2.555.2277 5.2872.1518 7.7917-.0506 1.0625-.0506 1.9479.2277 2.9598.2783.4553.0759.8601.3289 1.2902.4553 1.9985.6831 4.4524.6831 6.6786.4807 2.2767.2024 4.5282.4807 6.6532.9866.5566.4807 1.2396.5313 1.8215.936.3541.253.7336.5566.9107.9866.5059.4048.9613.9108 1.5432 1.1637.5059.2024.43.8601.9613 1.0625.936.9866 1.9479 1.948 3.2634 2.0997.6324.2783 1.366.2783 2.0997.3289.7842-.0506 1.6696.1771 2.2515-.4301.3288-.1517.5565-.4553.7589-.7083.5565-.683.253-1.8214.3036-2.7321-.8096-1.6191-2.6057-2.8334-4.2247-3.6682-.9361-.2024-1.4926-.8095-2.5551-.8095-2.2009-.2277-4.4777-.5819-6.7798-.3036-1.4926.0506-2.9345.4048-4.503.3036l-6.8809-.0506c-.9108-.2277-1.948-.2783-2.8334-.7084-1.5178-.6577-2.8839-1.2901-4.5536-1.7455-.7589-.2277-1.4925-.5818-1.9479-1.3155-.2783-.6577-.2277-1.5684.3289-2.0997.7336-.3542 1.3155-1.1131 2.2009-1.1131.8854-.3541 2.1503-.1771 3.1875-.1771 1.4167.3289 2.7827.759 4.0729 1.4673 1.3155.2024 2.6057.9613 3.997.4554 1.9986 0 3.82-.506 5.8438-.3795 2.378-.4554 4.6548.1265 7.0328.1518 5.6161 1.1637 12.8512 3.4405 13.9643 10.1949.8348 5.8185-5.5655 11.0298-11.2575 9.1325.3542 1.5938 1.0372 3.0357 1.6191 4.6042.43.2783.6071.8348.8601 1.2902.5818.8348 1.2649 1.7202 2.2009 2.0744 1.0625.6577 2.5045.253 3.4658 1.1384.7842 2.0744 1.3913 4.25 2.555 6.2485.1265 1.0372-2.6815 4.7307-3.1875 6.2485h-11.9405c-1.0878-1.4925.9866-5.186.7337-4.7306.8601-1.1384 2.0491-1.9986 3.3392-2.3527-.43-.3542-.683-1.1384-1.3407-1.0625-1.695-1.3155-3.7947-1.8215-5.3378-3.4405-.1771.2277-.4807.4553-.4807.6324-1.4673 1.7456-.8095 4.5283-2.7321 6.0462-2.4539.8854-2.9346 3.4152-4.4018 4.7306h-22.0343c-.1518-1.366-.2783-3.314 1.3408-4.9836.4553-.5818 1.1889-.7083 1.7202-1.189.3289-.3036.7589-.3289 1.1637-.4301.0506-.1264.2024-.3035.0253-.43-.9866-.8095-1.5938-2.0238-2.4792-2.9851-.683-.3542-.9613-1.2143-1.6696-1.4926-.7084 1.0372-1.3661 2.0744-1.4926 3.3393l-.8348 1.0119c-1.2649.1771-2.5045 1.0625-3.6429 1.7708-2.378 1.3661-2.6562 3.8453-3.3393 5.5655-.3035.2277-.6577.0759-1.0878.0759h-12.8006c.0506-1.619.7336-3.314 1.1131-3.744.0759-.7843.8854-1.1384 1.3914-1.6444 1.2649-.5565 2.4032-1.3408 3.8199-1.5178.8095-2.0492 3.1622-3.2381 4.0476-5.262.4807-2.0997.8349-4.1741 1.6697-6.122-1.1131-.4807-2.0238-1.4167-3.0357-2.125-1.0372-1.2143-2.8334-2.0997-3.3646-3.6429l-.6072-1.2143c-.8095-.5312-1.8214-.7842-2.4538-1.619-1.2649.0506-2.3274-.5819-3.4658-.7842-.253.1264-.4807-.0253-.759.1011-.8601.0759-1.8973.1518-2.6562-.2276-.4048.1518-.5819-.3036-.8854-.4554-1.1384-1.0878-.6325-2.4792-.759-3.9717.1012-.4554.3795-.8854.7843-1.1637.8854-.5313 2.1503.2024 2.9092-.4554-.9613-.253-1.7961.3036-2.808.1771-.8349 0-1.5685-.3542-2.0997-1.0372-.6325-.7842.4047-1.6443-.2783-2.378-.5819-.0759-.7337-.7083-1.0119-1.189-.0253-.8854.1265-1.7202.936-2.2515.6577-.177 1.2649-.4553 1.9732-.4047.5566-.3542 1.0878-.7337 1.7708-.8096 2.378.1265 3.6429-2.6562 6.2486-1.9479 1.2396.1518 2.6056.2024 3.8958.1265.4301-.2783.8854-.6324 1.4167-.6577.3289-.2024.8095-.1012 1.2143-.0759.6324.2277 1.4419.2024 1.872.8854zm29.8766 25.9554c-.3289 1.2143-.1012 2.5804.2276 3.7441-.177 1.3155.5313 2.5044.8855 3.6681-.9614 1.0119-1.9733 2.1503-3.3393 2.8587-.8349.1012-1.8215.3541-2.6057.6577-.1265-1.619.4048-3.4152-1.0372-4.2753-.7336-1.1637-1.4926-2.3527-1.9479-3.6682-.2024-.43-.4301-.8601-.5566-1.3154 3.1622-.1518 5.7426-1.3914 8.3736-1.6697z" fill="#71625b"/><path d="m27.7469 81.0459c0 .0759 0 .1265-.0759.2024-.4301-.0759-1.0625.1771-1.3661-.2024v-.5565c.1012.0505.1012-.1012.1265-.1771zm-.4807-1.9732c.7084.6577 1.5938.8601 2.4286 1.2902.2277 0 .4554.0253.6831.1265-.0253.1011-.1771.1517-.2783.177-1.1384.0506-2.2515-.0759-3.061-.8348-.0253-.2024-.1771-.7336.1265-.8601.0758-.0253.1011 0 .1011.1012zm33.3424-.4807.9613.0759c-.6577.4301-1.5685.3289-2.4033.4048v-.5313c.1518.0759.1771-.1265.2783-.1771.4048.0759.936-.2023 1.1637.2277zm-16.4182-.936-1.3661 1.3408c-.1771-.0253-.43.0759-.5059-.1518v-.3795c.2276-.0759.3541-.2023.6071-.2276v-.1265c.506-.0253.7842-.5566 1.2649-.6072zm-16.2411-.3289c.5059.1771 1.1131.1518 1.619.3289 1.0625.5566 2.4792 1.1637 3.567 1.9732-1.4167-.4553-3.2128-1.2143-4.8319-.9866-.2782-.0759-.5565-.2783-.7336-.5312-.0253-.253-.0759-.6831 0-1.0119.1771 0 .2783.1265.3795.2276zm35.012.253c-1.189.0759-2.5298-.1771-3.7947-.1518-.253-.1012-.43-.2782-.6324-.4806l.0253-.3289c1.6949-.1518 2.9345.7083 4.4018.9613zm10.3973-1.6949c-.2024.3541-.43.4553-.7842.7083-.7589.253-1.1131.9107-2.0491.6577-.1012.0253-.1518 0-.2277-.0758.506-.4048 1.2143-.8349 1.7961-.9361.5313.1518.6578-.3794 1.2649-.3541zm-28.814-.253c.0506.1518-.1265.2783-.2024.3795-.4807.2529-.9866.7842-1.442 1.1131-.5059 0-.6577.3035-1.1131.3794h-.5818c-.1771-.1771-.1771-.43-.4301-.5312.3036-.2783.7589.0253 1.1384-.1265.9613-.1012 1.872-.5819 2.631-1.2143zm-14.192.5818c.6324-.0253.9613.759 1.6443.759.506.5818 1.0878.8348 1.695 1.2143v.1265c-1.7962-1.1637-3.8453-1.3914-5.7173-2.2515.0506-.2024.0506-.4048.1518-.5566.8854-.0759 1.6696.0506 2.2262.7083zm12.3452-1.2901c-.6577.5565-1.8467.0253-2.4033.6324-.2276-.0506-.2023.2024-.3541.253-.4301 0-.8348 0-1.1384-.253-.2024.0506-.3542-.1265-.4301-.2783.4554 0 .8854-.1012 1.3408-.2782.9866-.0759 1.9985-.1265 2.9851-.253zm30.2814-.8349c0 .0253.0253.0506.0505.0759-.4806.1771-1.0625.2783-1.5178.5819-.6072.1518-1.0372.6324-1.5685.8854-.5312.253-1.1131-.0506-1.6696-.1012v-.1265c.8854-.3289 1.872-.683 2.7574-1.1131.6831-.0253 1.2902-.1518 1.948-.2024zm-12.4465.2277c.7336.1012 1.5432.2277 2.2262.4807.2277.3794.9613.2277 1.3661.6324-1.9986-.8348-4.073.3036-5.945-.683-.1012-.1771-.1012-.5819.2277-.7084.7336.0506 1.442.0759 2.125.2783zm-29.2947-.4806c.9107.5818 1.7708 1.4672 2.6309 2.0238-1.6949-.6072-3.6428-1.5179-5.439-1.8215-.0253-.4806.3542-.5059.4048-.9613.1265-.2024.4048 0 .5565.0506.6578.2024 1.2143.5313 1.8468.7084zm28.5105-1.3155c1.0878.253 2.2009.8854 3.3393 1.189-1.442.0506-2.6563-.6325-4.1742-.4301-.2529-.1771-.6324-.1012-.8095-.4806.0506-.2024-.0506-.3289.0759-.4301.5819-.0506 1.0119.2277 1.5685.1518zm-28.0552.2277c.6325.3035 1.189.6577 1.8721.8854l-.0506.0253c1.1131.8854 2.3021 1.8214 3.4658 2.5803-.1518.6831-.6325 1.4167-1.1384 2.0239-.3289.6071-.4301 1.2901-.5819 1.9732-.1771.0759-.2024.2782-.2783.43-1.9985.506-4.3765 2.5298-5.7678 3.9212-.2277.5818-.7084 1.0625-1.0119 1.5937-.0253.6325-.3795 1.0878-.4301 1.695l-10.7768.0506c-.1012-.6831.2783-1.0372.683-1.6191.7843-.9107 1.7962-1.2143 2.7575-1.6949.5312-.2277 1.1637-.1771 1.6949-.3542 1.2902-1.8467 2.7828-3.4152 4.3006-5.186.1012-.4048.3795-.7084.5313-1.0625.3794-1.7962.8601-3.7441 1.4672-5.4896-.1517-.7337.759-.3036 1.1131-.3542.6831.253 1.442.3795 2.1503.5819zm40.451-.6325c-.3541.3795-1.0372-.0253-1.4419.506-.8602.4806-1.7203.936-2.5298 1.5937-.6577.1771-1.0878-.2277-1.6444-.43.5313-.3036 1.3914-.3289 1.7456-.8349 1.2396-.4553 2.5298-.8095 3.8705-.9613zm-29.4465-.4047c-.5565.5565-1.7455.4806-2.3274 1.0119-1.0119.2782-1.366 1.4925-2.3779 1.872-.506.0253-1.1637.1771-1.5179-.3036-.1771-.0506-.4807-.0759-.4807-.253.5566.0506 1.1131-.177 1.6444-.3794.253-.2783.6577-.4301 1.0119-.5819v-.1265c.6071-.3035 1.1131-.5565 1.8467-.683.7337-.1771 1.442-.4301 2.2009-.5565zm28.4093-1.012c-.6577.3289-1.5178.2783-2.1503.759-1.189.2024-1.8467 1.3661-3.0104 1.5684-.1012-.2276-.4807-.0506-.6577-.177-.2024-.1012-.506-.2024-.5313-.4554 1.2649.253 1.8214-1.0878 2.9092-1.2649 1.189-.0759 2.2768-.4301 3.4405-.5818zm-29.5983-.6577c-.3794.1771-.683.3036-1.1637.3542-1.3154.7336-2.6309 1.7455-3.8452 2.7068-.6577.3036-1.4167.1771-1.8973-.3288-.1012-.0253-.1012-.1265-.1012-.2024.2783.0759.4553-.1012.6577-.1771 1.2143-.6324 2.1503-1.4673 3.4911-1.9985.8854-.0759 1.9226-.3036 2.8586-.3542zm27.9034-.9107c-2.3527-.1518-3.2128 2.8333-5.6667 2.2009-.3036-.1518-.7589-.0506-1.0119-.253.5059-.3289 1.3914-.0759 1.8214-.7589 1.5432-.6578 3.0863-1.2396 4.8572-1.2649zm-31.1415-.4807c-.3035.1771-.7336.2277-.9107.5566-.1012.0253-.253-.0253-.3289.0253-.8348.6071-1.2648 1.7708-2.2514 2.3021-.7084.3035-1.4673 0-2.1503-.2024 0-.1012.0505-.1771.1264-.1771.4301-.2024 1.189-.4554 1.6697-.8095.3795-.2277.8601-.6831 1.2396-.9107.7842-.4554 1.6443-.8855 2.6309-1.0625.2024.0759-.0253.177-.0253.2782zm-5.7678-2.5044c-.4048.8854-.7337 1.7708-1.0878 2.6815-.1518.506-.3542.9613-.7843 1.3408-.1012.0506-.2529 0-.3035.1518-.4048.2024-.506-.3542-.9108-.2024.8096-.7842 1.2902-1.6443 2.2009-2.5045-.0506-.43.3542-.683.4301-1.0625.2024-.0506.253-.3288.3542-.4553zm-2.1503-1.442c-.1771.7336-.4048 1.5432-.6072 2.2768-.2277-.0253-.3289.2277-.5565.1265-.5566.5565-.6831 1.3408-1.2396 1.9479-.1265-.0506-.2024.0506-.253.1012-.5312.0506-1.1637.0506-1.3914-.506.506-.0759.6578-.4806 1.1131-.7336.8854-.936 1.7456-1.9985 2.6563-3.1875.2024-.2783.3289-.6071.5565-.8601-.1518.253-.0253.683-.2782.8348zm33.2664 1.7455c1.8467.1265 3.7947 0 5.3125.9614.1771.2276.4807.1517.6831.3541-1.8721-.2024-3.82.1012-5.6414.253-.8095-.3542-1.5432-.8854-2.3274-1.2396-.253-.1265-1.9732-3.4658-1.8214-3.1875 1.4925 1.6443 1.7708 2.2262 3.7946 2.8586zm-35.8215-3.7946c-.1771 1.0119-.9866 1.7961-1.3914 2.7321-.3035.4554-.4553.9613-.8854 1.3661-.2024.0253-.3795.1265-.6071.0759-.1012-.1265-.3795-.0506-.5313-.1518-.1265-.1771-.2783-.3794-.4301-.5312.759-.3036 1.3408-.759 2.0745-1.189.8095-.6831 1.1637-1.5432 1.6443-2.3021zm12.1429-.1518c.683.5313 1.0372 1.3914 1.7708 1.7961.4301.3542.5313 1.0372.4048 1.5685-.1518.4301-.5313.7842-.4807 1.2902-.2024-.0253-.2024-.2783-.3794-.3795l-.1265-1.1131h.0253c.0253-1.2396-1.0878-2.0997-1.3408-3.1622zm27.878-.9866c.1771.8348.3542 1.8467.7084 2.6815-.3542-.3288-.6578-.7336-1.0625-.9866-1.189-.7842-.9867-2.1756-1.5179-3.2634l-.0506-.3035c.6324.5565 1.6444.8095 1.9226 1.872zm-16.3929-2.0744c.3795.6577.759 1.4419 1.1637 2.2262.0506.5312.1771 1.1131.3795 1.5937 0 1.3408 1.0119 2.2262 1.2902 3.5164.0759.5819-.0253 1.0878-.2277 1.5432-.0759-.5819-.3036-1.189-.5819-1.7203-.0758-.7083-.8348-1.1637-1.2395-1.7202-.4554-.6072-.4048-1.4167-.506-2.1503-.1518-1.1131-.0759-2.1503-.3542-3.2887zm-6.8809.0253c.0759.7589.4806 1.2396.8854 1.9732.7083 1.6443 1.0625 3.4911.5818 5.3378-.1771.6325-.3794 1.2143-.4553 1.8214-.1518-1.0878.1012-2.3779-.2277-3.4151-.3036-2.1756-1.0119-4.1742-1.0625-6.3245.2783.0253.1518.4301.2783.6072zm19.8839.1771c.5313 1.4166 1.0625 2.9092 2.0491 4.1235-.8854-.5566-1.5684-1.0625-2.4791-1.6444-.4807-1.2143-1.2902-2.2262-2.0238-3.4152-.0759-.1011-.2783-.0505-.3289-.2276 1.1131-.0253 2.0238.4047 2.7827 1.1637zm-4.7559-1.1384c.4047.2529 1.4419.6324 1.366 1.3407.0253.8855.4807 1.6191.6072 2.4033.1012.3542.4048.6831.5565.9866.2277.0759.3795.4301.6325.4301 0 .3036.3542.1265.3289.4301.2529.1517.4553.4553.7336.4806-.0253.3795.3795.4554.5059.7589-1.1637-.6324-2.2768-1.4672-3.4151-2.2515-.2783-.5312-.9867-1.0625-1.0373-1.7708-.4047-.6324-.6324-1.3155-.8601-2.0238 0-.0253-1.0372-.9107-1.0119-1.0625.6578-.1771 1.0625.253 1.5938.2783zm-3.6935-.2024c.4301.2024.8348.5059 1.2649.7589.5818.2277.0759.9866.4554 1.3155-.2783 1.2902.4806 2.6057.4806 3.8705 0 .3542.0253.8855-.1012 1.2902-.43-.9866-.7336-2.1503-1.4672-3.0104-.3289-1.1637-.4554-2.4033-.8602-3.4911-.2529-.4553-.8095-.5312-.9866-1.0119.4807-.0759.7337.3289 1.2143.2783zm-2.6056-.253c.9107.4807.936 1.6697 1.2901 2.4792l.506 1.9479c.3289.7589.8348 1.2902 1.1637 2.0744.0506.8348-.1518 1.6697.2024 2.5045l-.1771-.0253c-.1771-.5819-.4807-1.1384-.6072-1.7709-.1518-.2782-.5059-.6324-.7336-.9107-.8095-1.189-1.5938-2.3274-1.6191-3.8199-.3794-1.0625-.936-1.9479-1.6696-2.8081l-.3795-.1517c.8096-.1265 1.3408.3288 2.0239.4806zm-34.329 2.0997c-.5313.1265-1.0625.5819-1.6949.4301.936-.8348 1.6949-1.7709 2.3526-2.8334l.3795-.6071c-.0253 1.1384-.4048 2.1503-1.0372 3.0104zm21.2753-3.4405c1.2143.2277 2.5551.2277 3.82.1265.7589-.253 1.7202-.1265 2.5298-.1012.8095.0759 1.6443.1012 2.3526.4301.4048 0 .6325.5059 1.0373.4806.683.7337.7083 1.7962.6071 2.8081-.9107 1.8467 1.1384 3.0104.4301 4.8824-.3795-.5312-.2277-1.5178-.8602-1.9479 0-.253-.2276-.5059-.4553-.683-.759-1.1637.0506-2.5045-.0759-3.8453-.4554-.4806-.4554-1.3913-1.4167-1.2143-1.1131 1.012-.7842 2.9599-.4553 4.2248.177.43.177 1.0625.3794 1.5937-.1012.4301-.1012.9107-.3288 1.3155.0253.7336-.3795 1.442-.2024 2.125-.1518-1.0625-.0506-2.3274-.0759-3.5164-1.0372-1.872-1.695-3.3899-2.7322-5.1607-.4806-.6324-.5565-.3795-1.0119-.4554-1.8973 2.4539 1.0878 4.8572.1518 7.564-.2024-.936-.4553-1.9226-.8854-2.7827-.5819-.506-.4554-1.2902-.8348-1.9226-.1518-.6325.0506-1.4926-.3289-2.0238-.0253-.3795-.3795-.5566-.683-.7843l-.4554-.1265c-.3795.2024-.4301.5566-.6577.8349-.1518 1.0625-.3036 2.2515.2782 3.1875h-.1265c-.3035-.2024-.2276-.5313-.5059-.8096-.3795-1.1889-.3036-2.6056-.7589-3.8958-.0506-.506-.6831-.3036-.8096-.7589.6831.2024 1.3408.43 2.0744.4553zm-14.0402-.5059c-.177.5818-.4047 1.0625-.6324 1.619-.506 1.1384-1.5938 2.0997-2.3274 3.1622l-1.4167 1.3661c-.4047.2024-.9866.1771-1.366.0506-.3036-.2277-.6831-.3542-.8602-.6071.8349-.2024 1.6444-.3795 2.378-.8602.936-.7842 1.8468-1.7708 2.6057-2.6815.3289-.7842.9613-1.2649 1.4167-1.9732.0758-.0253.1264-.1012.2023-.0759zm9.8661-.7084c.4807.3542 1.1131.759 1.2902 1.3914.2024.9866-.43 1.8214-.7083 2.7069 0 .936.6324 1.619.7083 2.5297-.1518 1.4673-.8095 2.7069-1.4673 3.9465-.1517 1.5178-1.7708 2.0997-2.4032 3.3899h-.1265c.3794-1.3408 1.8467-2.0744 2.0744-3.4658.2277-1.1131.4806-2.2262.6577-3.3899 0-.3542-.3035-.6072-.3541-.936-.2024-.1265-.4554-.253-.7337-.1518-.5312.2277-.936.6324-1.3155 1.0878-.0505-.4807.4048-.7842.4807-1.2396.506-.4301.5819-1.0372 1.1131-1.442.253-.5818.2277-1.2648.5313-1.8214.0505-.8601.1264-1.8467.0758-2.6057zm-1.2143-.8601c.0759.2783.4807.3542.4048.7337.2024.2276-.0506.5818-.0759.8095-.9866 1.2143-1.619 2.8586-2.3021 4.25-.0253.7589-.6324 1.442-.9107 2.1756-.1518.2783-.4554.5059-.7336.5312.7083-1.8214 1.2396-3.7946 2.0997-5.6666.1771-.6325.5312-1.4167.1771-2.0744-.3289-.1012-.4554-.3542-.7337-.5313-.1771.8601-.7083 1.5685-.8095 2.5804-.3289 1.189-.9613 2.2262-1.4926 3.2887-.2529.7336-.7083 1.2901-1.2142 1.8973h-.1518c.4553-.8854.683-1.872 1.0878-2.7828.1265-.5818.3288-1.0119.4806-1.6443.0253-.253-.0253-.506-.1265-.7336-.6324-.1518-.6071.8348-1.2143.683-.177-.4554.2277-.683.2277-1.1131.4301-1.0119.759-2.0744 1.3408-2.9851.8348-.6578 2.125-.3036 2.9851 0zm-19.8333-.4047c.2276.2023.3541.4047.5818.7589.3542.3542.3289.936.506 1.3661-.0759.683-.2783 1.366-.8602 1.7961 0 .2277-.2023.4554-.3794.5313-.5819.1517-1.1384.3541-1.7456.3794-.4806.0759-1.1131-.2277-1.6443-.2277v-.1265l1.5684-.1011c.6578-.5566 1.7203-.5566 1.9986-1.5685.1011-.7842.43-1.9479-.506-2.4539-.4807-.43-.9866-.7842-1.619-.8601-.0759-.0759-.0759-.1518-.0506-.2024.7589.1771 1.4925.3289 2.1503.7084zm2.4032-.9361c.1012.2024.253.3795.4301.5566.1265.8095.2024 1.619-.1518 2.4033-.3036.4047-.7083 1.0372-1.1131 1.4419l-.0759-.0759c.1518-.8854.6831-1.6949.4807-2.6562-.3542-.4301-.4048-1.0372-.8854-1.3155-.5566-.4806-1.3155-.6577-2.0239-.9107-.0758.2024-.4047.0506-.5818.1012v-.1771c.1518.0253.4048.0253.4807-.1265.8095.1012 1.5178-.4553 2.2514 0 .2024.0506.3795.1771.6072.2024zm11.9152-.4047c.3289.5059.3542 1.3661.1518 1.9226.0759.4048-.2782.6324-.2276 1.0372-.3289.3036-.3542.8601-.6578 1.2396-.3795-.0506-.1012-.506-.2277-.7336-.5818 1.1637-1.5178 2.1503-2.0744 3.314-.1771.1517-.253.43-.5059.43-.1265-.7589.7083-1.2649.683-2.0491.253-.0759.1771-.5818.4301-.8095.0253-.7842.6324-1.2902.683-2.0997.4301-.7843.253-1.8468.3036-2.7575-.2277-.2024-.1012-.5312-.3289-.7336h.1771zm-9.0059-1.3914c.2529.4048.4047.9107.8095 1.2902.0253.4048.2024.9613.3289 1.2649h.1771c-.2024 1.0119.2276 2.125-.2024 3.0357-.1771.3795-.1265.9107-.4807 1.1637l-.1265-.1771c.3795-1.0372.1518-2.3274-.1265-3.3646 0-.1771-.177-.2277-.3288-.2783-.5566.5313-.9107 1.189-1.2396 1.8215-.1265.1012-.3289 0-.4301.1518.0759-.3289.2277-.4301.3289-.7084.0253-.43.0759-.8601.3036-1.2143.0759-.936.177-2.0491.1265-2.8839l.3035-.4301c.1012.2024.3795.2024.5566.3289zm6.4003-.1265c0 .9866-.7589 1.6444-.8095 2.6057l-.5566 1.1637c-1.4167 1.0372-1.9732 2.8586-3.2381 4.0982-.3036.4554-.8854.9613-1.4167 1.0625.8096-.6324 1.3661-1.5938 1.8468-2.4539.3288-1.2396.43-2.6056.8348-3.7946.5312-.4301.9866-.9866 1.3155-1.5685.1012-.0506.1771.0506.2024.1265l-.0759 1.1384c.1517-.0253.2276.2024.3541.0759.253-.253.2024-.5819.3795-.8095-.0506-.6831-.0253-1.4673.4301-1.9985.3541-.1265.7336-.0759.7336.3541zm-13.1295-.2024.0759.1265c-1.2396.7084-2.5045 1.2902-3.7441 2.1756 0-.1518-.1518-.5059.1265-.5818 1.2396-.4554 1.8467-2.4033 3.4405-1.9479zm9.8408-2.0238c-.0253.2783-.1265.5313-.1012.8348-.1771.4048-.506.5566-.6324.9361-.2277.2782-.4807.4047-.7843.5818-.0759-.7842.7843-1.3408.3542-2.0744-.2024-.2783-.3036-.5565-.5313-.7589.0759-.3289.5313-.1771.8349-.253.3794.1012.8095.3036.8601.7336zm1.3661.1265c-.0253.3542.0506.6325.2023.9107-.3541.7337-.2023 1.9227-1.0878 2.4286h-.5818c-.2024-.1771-.3542-.3289-.4048-.6324.4048-.9108 1.0119-1.7709 1.0878-2.8587-.0759-.3288-.1265-.6324-.2529-.9613.7336-.0253.683.7084 1.0372 1.1131zm-.4301-2.1503c.5818.6577 1.3408 1.2396 1.3661 2.125-.0506.0253-.1265-.0253-.1771.0506.2024.0253.1518.253.2024.3542 1.0119.4047 2.2009.2783 2.9598 1.2143.7589.2529 1.2902 1.1384 2.0238 1.5178 1.1384.1012 2.378-.0253 3.4658.253 1.0878.8095 2.3021 1.3661 3.4911 2.0491l2.4539.7084c2.6815.2782 5.439.0252 8.1205-.0759 1.7203-.0506 3.4405.5312 5.0342 1.0119 1.7456.3794 3.7947.2782 5.6414.177 1.1384.1012 2.378.2024 3.4405.3795.8348.1518 1.695.253 2.4792.4301v.1265c2.0744.177 2.4033 2.125 4.1741 2.9092.1771.1771.1771.5818.4807.5818.7336.8349 1.619 1.4167 2.4285 2.1503l2.4286.8349c1.2649.2782 2.7828.1771 4.0729.1012.4048-.3289.8855-.5819 1.3408-.6578.1518-.6324.936-.6577 1.0119-1.3408.8601-.6324.7084-3.2381.4048-3.9717-.0759-.5059-.6577-.8095-.6577-1.3408-1.2143-1.3407-2.5045-2.3274-4.073-3.2128-.7336-.3288-1.2143-.5312-2.0997-.8854-1.8467-.2783-3.744-.4806-5.6414-.6324-2.5044-.1012-4.6547.3541-7.0833.4047h-6.628l-2.2515-.43c-.4807-.2024-.5566-.2783-1.0119-.5313-1.442-.5059-2.7828-1.2396-4.3259-1.5178-.1771-.1518-.3795-.3036-.5819-.4048.1265-.4301.6831-.3036.8855-.7336.3794.0506.6071-.2277.936-.2277l2.1756.0253c1.3408.3036 2.6056.7842 3.8199 1.4166 1.5685.2277 3.0863.9361 4.756.4807 2.7574-.3542 5.5402-.3795 8.3229-.4807 1.7456.1518 3.5417.1771 5.2366.4554 4.3006 1.0625 9.5879 2.9598 11.0551 7.6146 1.4167 4.9584-3.8705 9.5625-8.8542 8.2976-1.2142-.1011-2.2515-.5312-3.3645-.9107.0758 1.1384.9107 2.125 1.3407 3.2634.3795 1.7962 1.1131 3.2128 1.7962 4.9584.7336.8095 1.2901 1.9226 2.1756 2.6562.177.8855 1.2143.5819 1.6949 1.2143.8601.3795 1.8973.506 2.8586.7084 0 .6324.3036 1.1131.3542 1.7202.3542 1.2902 1.0878 2.4286 1.6444 3.7694-.5313 1.366-1.9733 2.555-2.3274 4.0982l-9.5372.0506c.0252-1.2396.4806-2.378 1.5431-3.1116 1.189-.6072 2.3527-1.2649 3.7947-1.2902.1012-.0506.0253-.1518.0506-.2277-.2783-.3289-.6072-.6577-.7337-1.0625-.5312-.6071-1.2396-1.2396-1.6696-1.9226-2.0997-.9107-3.8706-2.2515-5.8185-3.4152-.4806-.3289-.6324-.8348-1.0372-1.2143-1.1131-.8601-2.2009-1.6949-3.2128-2.8333-1.6443-1.0372-3.6935-1.9227-5.5149-2.4033-3.7188-.2024-6.2485.4047-9.3348 1.4672-1.3661.3542-2.8081.3542-3.9718.1518-.3794-.5059-.4553-1.1384-.7083-1.6949.0759-.4554-.4807-.5566-.7336-.8854-1.2396-.3542-2.5045-1.4167-3.5417-2.378.3289.2024.2277.936.683 1.0625.5566.7842 1.3914 1.2649 2.0997 1.7455.3036.0253.5566.1265.7337.3795.0253 1.4673.8095 2.5298 1.0372 3.9717.8854 1.3408 1.0878 3.061 2.2262 4.4777.3288.2783.4553 1.0372.8601 1.3661l.5059.4806.0506 5.3126c.1265.43.1012.8854.4048 1.2648.3289-.0506.5059-.4553.7083-.7083.3289-.7336.5819-.7336 1.0625-1.3914.8096-.5059 1.8215-1.0878 2.631-.9613.5059.0759.7336-.4553 1.2143-.5059.6071-.6325 1.3661-1.695 2.2768-1.948.5059-.4806.8348-.6071 1.4419-1.2142-.2276-1.3155-1.0625-2.5804-1.2648-4.0224.0758-1.5937-.8855-3.2128 0-4.6294-.1265-.3289.3035-.2024.4553-.3036.9613.1012 1.9226.1265 2.8081.4553 1.2648.1518 2.2009.8602 3.3392 1.2649.7084.5819 1.3914 1.3914 2.2262 2.0238.0506.3289.5313.4554.506.6831-.506.4047-.4048 1.1131-1.0372 1.3913-.7842 1.2396-1.2396 2.631-1.6444 4.0224 0 .5059-.2276.936-.2782 1.3914-.5313.8854-1.4926 1.0625-1.6697 1.2142-1.4925 1.1131-1.6949 2.8081-3.1369 3.8706h-19.4539c.936-3.567 2.7827-3.1622 3.997-3.7947.1771-.4806.253-1.2143.5313-1.6443.2024-.4554-.1265-.6325-.4807-.7589-1.0878-1.189-2.0491-2.7069-3.2887-3.82-.4553-.8348-1.3661-1.2143-2.0744-1.7455-1.6696-.8096-3.3899-1.7456-4.7054-3.2887-.2276-.0506-.2782-.3542-.43-.5313-1.9226-1.2143-4.0982-1.6949-6.1221-2.6056-1.8214-1.2143-3.1369-2.6816-4.7812-4.1236l-1.1637-2.4032c-.9107-.6072-2.0997-.8349-2.6816-1.8468-.9866-.4553-2.1756-.0759-3.061-.7336-.0253-.0506-.0506-.1012-.1012-.1518.2783-.1518.5313-.2783.8601-.3036.2783-.4806.6831-.7336 1.1131-.9613.1012-.0759.0759-.2277.0759-.3289-.2023-.1264-.3541-.4553-.683-.3541-1.7202 2.125-.936.7336-3.1369 1.8973-.8095-.0253-1.7203.2783-2.4286-.1265-.4048 0-.3542-.3794-.5312-.6324.2276-.5566-.1012-1.189 0-1.8468.1264 0 .2276.0253.3288-.0253-.1012-.0758-.2276-.0505-.3288-.1011-.0759-.3036.1012-.506.3288-.7084.3289.2277-.1012 1.1131.6325.8601.2529.3036.5565-.0253.8348-.0253.3795 0 .9107.0759.9613-.4047.3542-.1012.8601-.4048.936-.8348.1265-.4301.253-.8602.2024-1.3914-.1771-.3542-.4807-.4554-.6577-.8854-.2783.0506-.5566-.0506-.8096-.1265-1.189-.1265-2.2009.2277-3.3393.2024l-.43-.1771c.2783-.8601.1518-.9613.0253-1.5938.4553-.253.8095-.683 1.1131-1.0878 0-.0253.1265-1.1131.1012-1.3661.5312-.3288.683-.3794 1.1637-.6071 1.3407-.253 2.2262.4554 3.4404.4807.7337.177 1.3914.4806 2.2009.4806.1518.1518.4301.0506.5819.253h.5059c-.1011-.3289-.1517-.7842-.1264-1.2143-.2277-.3036-.7337-.4048-.9867-.5059-1.0625.2023-2.2008.2023-3.3392.2023.2023-.1012.1517-.5565.5059-.5818.3036-.1771.4554-.6072.8348-.5819.506-.4553 1.3408-.2276 1.9985-.3541 1.3914.2276 2.8587.1012 4.3512.1771.4554-.2783.8855-.5566 1.442-.6072.3542-.3795.8095.1012 1.2649 0zm-15.0268 2.9092c0 .506-.0759.9361-.4807 1.2649-.3288.1012-.7842.4048-1.1131.0506h.0253c-.0253-.253-.1265-.5312-.1265-.8854.2024-.4301.8349-.4048 1.1131-.6071.253-.0506.4048.0506.5819.177zm2.7321 4.9584c-.3288.1012-.2782-.253-.4806-.3795-.1771.3036.0506.7843-.2024 1.1131-.3289-.1771-.4807-.6071-.6577-.9107-.3542.1518-.2024.5819-.3795.9107-.1771-.0759-.3795-.2277-.4048-.43-.1012-.2277-.3035-.4554-.3035-.759l2.5297-.1012c.0253.1771 0 .4048-.1012.5566zm1.5685 1.0372c-.3289.683-.9107 1.4926-1.8214 1.4926v-.6831c.4553-.5818 1.0878-.8095 1.8214-.8095z" fill="#fff500"/><g fill="#e77817"><path d="m29.7279 114.838-.2447-.113-.1469.059z"/><path d="m65.5327 114.838.2447-.113.1469.059z"/></g></g></svg>