<svg height="715.62024" width="630.43652" xmlns="http://www.w3.org/2000/svg"><g transform="translate(-12.8023 -159.385)"><path d="m91.310503 94.473448c.20428 120.744732-.41112 241.502832.31223 362.239102 3.84688 108.35657 86.787307 207.32615 192.699857 230.20965 97.98283 23.86995 207.6723-19.0271 262.97739-103.62122 33.12209-47.31073 45.3201-105.86015 42.58894-162.85245 0-108.65836 0-217.31672 0-325.975082-166.19277 0-332.38555 0-498.578417 0z" fill="none"/><path d="m93.421365 161.26738c.19992 120.34903-.40235 240.7114.30556 361.052 3.764798 108.00147 84.935375 206.6467 188.587865 229.4552 95.892 23.7917 203.24081-18.9647 257.36576-103.28162 32.41531-47.15568 44.35304-105.51323 41.68015-162.31876 0-108.30227 0-216.60454 0-324.90682-162.6464 0-325.29283 0-487.939335 0z" fill="none"/><g stroke="#000"><g fill-rule="evenodd"><path d="m78.585495 160.38451c.20418 120.74701-.4109 241.51843.31248 362.25694 3.84679 108.35868 86.772275 207.30803 192.681655 230.19193 97.97993 23.8703 207.68868-19.0311 262.99202-103.62701 33.12099-47.3116 45.32351-105.85341 42.5925-162.8468-.0001-108.6606 0-217.31468 0-325.97506-166.18784 0-332.3909 0-498.578655 0z" fill="#eac102" stroke-width="2"/><path d="m79.086795 161.18186c.20347 120.34377-.40949 240.70089.31098 361.03624 3.83154 107.99676 86.441355 206.63768 191.931725 229.44518 97.59228 23.7907 206.84451-18.9639 261.92917-103.27711 32.99008-47.15362 45.13947-105.50861 42.41915-162.31167 0-108.29755 0-216.5951 0-324.89264-165.53036 0-331.06065 0-496.591025 0z" fill="#f8d80e"/><path d="m120.32682 203.79915c.16947 103.25963-.34103 206.53073.25902 309.78315 3.1911 92.66541 71.99258 177.30318 159.85011 196.87292 81.2796 20.41336 172.2702-16.27177 218.14738-88.6158 27.48578-40.66185 38.81053-93.30296 35.32873-139.26974 0-92.92352 0-185.84702 0-278.77053-137.86175 0-275.72342 0-413.58524 0z" fill="#da000c" stroke-width="1.9"/><path d="m120.44232 202.99157c.0635 38.70675.0333 77.41662 0 116.125v116.1875c.0392 25.81497.1 51.6244.25 77.4375.55984 16.257 3.15278 32.26391 7.5 47.71875h397.9375c4.57389-16.51504 7.2592-33.43315 8.15625-50.03125v-24.84375c-.074-1.29026-.15302-2.56344-.25-3.84375-.00001-92.91312 0-185.83691 0-278.75z" fill="#fff" stroke-width="1.6"/></g><g stroke-width="2"><g stroke-dashoffset="1"><path d="m210.1938 426.8605h233.77629v99.52182h-233.77629z"/><g stroke-linecap="square"><path d="m275.58739 511.83788h-76.84294l-17.03329 12.89287v13.66624h93.87623" fill="#da000c"/><path d="m378.57672 511.83788h76.84239l17.03326 12.89287v13.66624h-93.87565" fill="#da000c"/><path d="m181.71116 524.73075h290.74121" fill="#ed1c24"/></g></g><g fill="#da000c"><path d="m273.1167 518.50957-19.2388 10.67597v15.90272h73.20413 73.20365v-15.90272l-19.23833-10.67597h-53.96532z" fill-rule="evenodd"/><path d="m253.85785 529.15477h146.44835" fill-rule="evenodd"/><path d="m243.42907 454.6699c11.06351 0 20.09908 10.60697 20.09908 23.68354v33.43577h14.44397v-126.68195h-79.22767v126.68195h24.58607v-33.43577c0-12.56732 8.88004-23.68354 20.09855-23.68354z" stroke-dashoffset="1" stroke-linecap="square"/></g><path d="m227.32028 299.40289h36.432663v76.823845h-36.432663z" stroke-dashoffset="1"/><path d="m218.35172 271.50009v79.81753h11.94328v-21.92051c0-8.20897 5.03937-14.92579 12.08927-15.33599.22775-.0146.44593 0 .67635 0 7.36826 0 13.3375 6.8638 13.3375 15.33599v21.92051h11.3708v-79.81753z" fill="#da000c" fill-rule="evenodd"/><path d="m262.17551 364.32595h-31.88051v-13.00833h-23.37576v13.00833h-15.85776v-13.00833h-9.46523v23.60578h80.57926m-71.11403-.0838h68.78198v10.26763h-68.78198z" fill="#da000c" fill-rule="evenodd"/><path d="m297.19141 250.51715h57.685066v120.47377h-57.685066z" stroke-dashoffset="1"/><path d="m293.15363 250.57866v100.8091h18.31631v-29.90227c0-6.89889 3.84014-16.47781 15.61209-16.47781 11.77143 0 15.61216 9.57892 15.61216 16.47781v29.90227h18.31628v-100.8091h-33.92844zm31.10089 11.30761h2.82751 2.82756v29.07163h-2.82756-2.82751zm-16.22624 6.78622h5.71624v25.23874h-5.71624zm32.39131 0h5.71624v25.23874h-5.71624z" fill="#da000c" fill-rule="evenodd"/><g stroke-dashoffset="1"><g fill="#da000c"><g stroke-linecap="square"><path d="m286.94608 236.08007v14.35663h40.13595 40.136v-14.35663h-40.136z"/><path d="m279.38593 219.39632v16.68375h47.6961 47.69617v-16.68375h-11.98547v9.18924h-13.52203v-9.18924h-15.42763v9.18924h-6.76104-6.76099v-9.18924h-15.42763v9.18924h-13.52202v-9.18924z"/><path d="m214.04928 260.68476v10.81533h57.53085v-10.81533z"/><path d="m206.67364 239.96928v20.71548h69.02443v-20.71548h-10.63331v10.53682h-12.84626v-10.53682h-19.60731v10.53682h-12.84568v-10.53682z"/><path d="m410.73503 454.6699c-11.0635 0-20.09907 10.60697-20.09907 23.68354v33.43577h-14.44405v-126.68195h79.2272v126.68195h-24.58553v-33.43577c0-12.56732-8.8801-23.68354-20.09855-23.68354z"/></g><path d="m261.68422 385.10726v10.3932h65.39781 65.3978v-10.3932h-65.3978z" stroke-linecap="round"/></g><path d="m-428.32016 299.40289h36.432663v76.823845h-36.432663z" transform="scale(-1 1)"/></g><g fill="#da000c"><g fill-rule="evenodd"><path d="m435.81238 271.50009v79.81753h-11.94385v-21.92051c0-8.20897-5.03887-14.92579-12.08875-15.33599-.22769-.0146-.44595 0-.67629 0-7.36826 0-13.33756 6.8638-13.33756 15.33599v21.92051h-11.37081v-79.81753z"/><path d="m391.988 364.32595h31.88053v-13.00833h23.37581v13.00833h15.8583v-13.00833h9.46518v23.60578h-80.57982m71.11464-.0838h-68.78207v10.26763h68.78207z"/><path d="m256.33643 351.31762v33.78964h70.7456 70.74506v-33.78964h-13.39867v13.00833h-17.82507v-13.00833h-23.90916v13.00833h-15.61216-15.61209v-13.00833h-23.90926v13.00833h-17.82447v-13.00833z"/></g><g stroke-dashoffset="1" stroke-linecap="square"><path d="m440.11484 260.68476v10.81533h-57.53087v-10.81533z"/><path d="m447.49048 239.96928v20.71548h-69.0245v-20.71548h10.63336v10.53682h12.84627v-10.53682h19.60723v10.53682h12.84576v-10.53682z"/></g></g><g fill="#f8d80e" transform="translate(-.396951 -203.746)"><path d="m288.00613 860.92149v15.68604h9.82666v-7.87354h13.3667v7.87354h10.55909v-15.68604zm0 21.60645v15.74707h33.75245v-15.74707h-10.55909v7.87353h-13.3667v-7.87353z" stroke-dashoffset="1" stroke-width="2"/><g fill-rule="evenodd" stroke-width="1.024" transform="matrix(1.95312 0 0 1.95312 -172.504 416.463)"><path d="m273.29688 150.03125c-1.34177.39513-3.03997 1.25309-5.125 2.40625-2.08504 1.15316-4.46995 2.60401-6.71875 4.09375-1.6672 1.10445-3.0598 2.2073-4.4375 3.28125-.48062.37465-1.14314.76616-1.5625 1.125-.49019.41944-.82607.81979-1.21875 1.21875-.25679.2609-.59888.52432-.8125.78125-.5403.64982-1.0625 1.21528-1.0625 2.40625 0 .21619.006.43298.0312.65625.77484-.92888 1.88738-1.57486 3.125-1.71875.006.00015.0275.00017.0312 0 .0315.00009.0934-.00062.125 0 .004-.00007.0253-.00009.0312 0 .12206-.01.21933 0 .34375 0 .12441 0 .22168-.01.34375 0 .18759.0147.35356.0591.53125.0937.0683-.063.12149-.12616.1875-.1875.22719-.21114.34986-.35832.625-.59375.54971-.47037 1.45603-1.06566 2.15625-1.59375 1.13281-.85434 2.15926-1.67431 3.5-2.5625 2.16948-1.4372 4.48036-2.83779 6.46875-3.9375 1.98838-1.09971 3.75337-1.89229 4.4375-2.09375l-1-3.375z"/><g stroke-linecap="round"><path d="m260.40041 157.3913v3.9119"/><path d="m262.81691 155.68544v3.88277"/><path d="m265.23339 154.17984v3.85813"/><path d="m267.64986 152.69367v3.98131"/></g></g><path d="m321.73776 794.68896h9.746537v113.50589h-9.746537z" stroke-dashoffset="1" stroke-width="2"/><path d="m326.61088 766.86632 20.75195 12.08496-20.75195 12.02392-20.75195-12.02392zm-27.771 7.75146h-5.43213v8.66699h5.43213l27.771 16.11329 27.771-16.11329h5.43213v-8.66699h-5.43213l-27.771-16.11328z" stroke-dashoffset="1" stroke-width="2"/><g fill-rule="evenodd" stroke-width="1.024" transform="matrix(1.95312 0 0 1.95312 -172.504 416.463)"><path d="m238.89063 150.15625-1.1875 3.3125c3.84059 1.38796 9.28994 4.08623 13.65625 6.71875 2.18315 1.31626 4.0937 2.61029 5.40625 3.6875.65627.53861 1.16027 1.03845 1.4375 1.375.0341.0414.0742.0917.0937.125.003.006-.003.0252 0 .0312.022.0461.0487.0946.0625.125-.0253.22369-.0654.46484-.125.625-.005.0128-.0257.0508-.0312.0625-.003.006.003.026 0 .0312-.003.005-.0281.0266-.0312.0312-.0207.0267-.0405.0676-.0625.0937-.005.005-.0265.0262-.0312.0312-.005.005-.0259.0263-.0312.0312-.0115.01-.0493.022-.0625.0312-.0213.0135-.0672.0504-.0937.0625-.14286.058-.37638.0937-.75.0937-.22157 0-.40077-.0327-.53125-.0625-.0502-.0126-.11654-.0153-.15625-.0312-.0127-.005-.0508-.0254-.0625-.0312-.0339-.0179-.0669-.0424-.0937-.0625-.008-.008-.0268-.0274-.0312-.0312-.003-.003-.0286-.0273-.0312-.0312-.008-.0134-.0237-.0517-.0312-.0625-.002.0001-.0288-.00004-.0312 0-.003.00019-.028-.00074-.0312 0-.007-.00023-.0233.00004-.0312 0-.0164.00012-.0484 0-.0625 0-.0969 0-.18682-.01-.28125 0-1.14744.11588-2.11966.93411-2.4375 2.0625.00031.003-.00009.0286 0 .0312l.0312.0312c.0157.0143.0467.0458.0625.0625.80273.96876 2.18 1.625 3.71875 1.625 1.61838 0 3.02965-.67766 3.8125-1.6875.78284-1.00984.96875-2.15809.96875-3.09375 0-1.09112-.48992-1.72453-1-2.34375-.51009-.61922-1.17229-1.21574-1.9375-1.84375-1.53042-1.25603-3.53496-2.59558-5.8125-3.96875-4.55511-2.74634-10.08076-5.51323-14.28125-7.03125z"/><g stroke-linecap="round"><path d="m254.04985 158.03521-.31238 3.33948"/><path d="m256.8319 159.73914-.86199 3.26968"/><path d="m259.80442 162.01152-1.8089 2.53732"/><path d="m260.71528 168.18078-2.61016-1.40046"/><path d="m261.52792 165.42898-2.99541.28045"/><path d="m257.66497 169.7646-.2051-2.63232"/><path d="m256.56809 166.75559-2.473 1.8222"/><path d="m244.67669 152.9368v3.11504"/><path d="m250.96338 156.24386v3.53419"/><path d="m247.82004 154.59318v3.31892"/></g></g><g stroke-dashoffset="1" stroke-width="2"><path d="m326.21414 737.3253c-4.53064.69582-7.9956 4.81863-7.9956 9.64356v21.54541c0 5.30742 4.21574 9.70461 9.39941 9.70459.135 0 .23252.006.36621 0 .13369.006.23121 0 .36621 0 3.68528.00002 6.88307-2.24014 8.42285-5.43213l-3.35693-2.01416c-.83496 2.06939-2.79396 3.47904-5.06592 3.479-.0878 0-.1724-.00051-.24414 0-.0224-.00037-.0899.00026-.12207 0-.0344.003-.0922-.00049-.12207 0-.0717-.00051-.15633 0-.24414 0-3.02928.00004-5.49316-2.49635-5.49316-5.7373v-21.54541c0-3.24094 2.46386-5.67627 5.49316-5.67627.086 0 .17164.00054.24414 0 .0299.00052.0884-.003.12207 0 .0321-.00028.0997.00039.12207 0 .0725.00054.15817 0 .24414 0 .85199 0 1.66008.20029 2.38037.54931.005.00018.0568-.00056.061 0 .15953-.0289.32262-.0796.42724-.12207.0491-.0315.15188-.10234.18311-.12207.0102-.0108.051-.0502.061-.061.006.00006.0538-.00031.061 0 .0105-.01.0511-.0512.061-.061.013-.0127.0566-.056.061-.061.0367-.0502.0867-.1375.12207-.18311-.00012-.006.00078-.0542 0-.061 0 0 .061-.061.061-.061.008-.0172.045-.0896.061-.12207.11649-.31281.19467-.78381.24414-1.2207-.0269-.0593-.0791-.15403-.12207-.24414.00039-.003.00012-.0472 0-.061-.0415-.0634-.12478-.1733-.1831-.24414-.39662-.48148-1.07737-1.10291-1.89209-1.83105-.006.001-.0557-.00032-.061 0-.0583-.0133-.18555-.0487-.24414-.061-.008-.00049-.0536-.0001-.061 0-.0315.00047-.1037.00072-.12208 0-.012.0002-.0533.00018-.061 0-.0346.00043-.0985-.00074-.12207 0-.0633.003-.18734.004-.24414 0-.2384-.0187-.4284 0-.67139 0-.15187 0-.23099.00092-.36621 0-.13521.00092-.21433 0-.36621 0-.24299 0-.43299-.0187-.67139 0-.0568.004-.18086.003-.24414 0-.0235-.00074-.0875.00043-.12207 0-.0155.00035-.0505-.001-.061 0-.0245.00096-.10143.002-.12207 0-.007-.0001-.0529-.00049-.061 0-.0358.005-.0864-.005-.12207 0zm11.29151 7.6294c-.099.14724-.19756.34129-.30518.48828-.81229 1.04781-1.97523 1.92201-3.35693 2.50244v14.77051l3.90625 2.2583v-18.00537c0-.68385-.0502-1.36682-.18311-2.01416-.006-.002-.0556.00048-.061 0z"/><path d="m321.73776 804.508h9.746537v97.774155h-9.746537z"/></g></g><path d="m273.78355 395.53645v122.9373h25.2618s0-25.44825 0-46.02197c0-21.67786 12.58059-31.88222 28.45785-31.88222 15.2605 0 28.45782 10.20436 28.45782 31.88222v46.02197h25.26188v-122.9373h-53.7197z" fill="#da000c" fill-rule="evenodd" stroke-linejoin="round"/><g transform="translate(.402033)"><g fill="#f8d80e" fill-rule="evenodd" stroke="#000" stroke-width="2"><path d="m55.766867 620.4301c-12.492834 7.05634-25.018697 14.12276-37.511532 21.17909-2.03652 1.14891-6.061568 4.58176-4.505668 9.9425 14.724425 50.71239 41.277796 78.17008 68.316488 102.58633 27.474485 24.81516 58.812745 38.91396 80.366455 48.27822 1.45601-4.88222 3.80009-9.77968 6.0773-14.43334.0149-.0329-.0149-.0883 0-.11749.20687-.42411.4224-.77136.62849-1.18931.15732-.33202.2651-.61858.41927-.93803.022-.0454.0834-.0744.10461-.1199.0401-.0783.0661-.15531.10541-.23364.0716-.15143.13765-.33201.20924-.4785.10934-.21961.20687-.49481.31464-.70947.3516-.71215.7103-1.3207 1.04775-2.01119.56242-1.15657 1.07372-2.33572 1.57163-3.43294 4.44667-8.88576 15.2373-9.44754 23.36605-9.58387 10.03313-1.50502 19.3709 7.00448 29.23332 2.3698 9.49666-.35353 14.10222-12.40571 4.08641-17.28045-13.27551-6.94902-28.42469-7.05247-42.22643-12.30092-44.17878-13.24525-86.0827-41.13978-112.533817-84.01938-7.416881-11.75424-13.774205-24.37836-19.069616-37.50751z"/><path d="m235.464 766.20918c-5.00201 4.02746-10.54362 6.82899-16.41405 6.82899-4.39475 0-11.42226-3.48708-15.59834-3.48708s-11.54261-1.30426-19.92387 1.15644c-3.81424 1.33206-8.19562 2.89255-10.28877 7.06262-1.32386 2.59462 1.62433 3.89247 2.86245 5.62338 9.77512 9.16484 21.97612 14.14677 34.01901 18.13013 6.07416 1.94422 12.23325 3.54895 18.42854 4.91497 5.36463-6.88206 6.20316-16.48745 6.67591-25.25959.22653-4.98702.23597-9.97523.23912-14.96986z"/><path d="m64.987424 616.87985c-2.790865.1553-5.804337 1.32567-9.220557 3.55025.124279.30806.275311.60603.419252.94818.03304.0783.0708.14771.104626.2361.113268.26513.189566.54794.313855.82696.06292.15023.147091.327.210023.47723.05978.13004.04248.32574.104614.46209 3.155068 7.06517 9.228429 18.76386 15.507099 30.53324.125852.21084.187992.50501.314637.71459.194289.36614.434203.70197.628492 1.06306.114061.18812.305202.41032.419263.59465.04012.077.06451.16288.104615.23485.0708.11615.139229.23608.210033.35097.228893.37245.501066.69945.733107 1.06559 6.10247 9.88947 12.947494 19.02898 20.537427 27.34027l15.71633-17.87376c-24.022867-28.37933-32.279837-51.2881-46.102816-50.52427z"/><path d="m599.47012 620.4301c12.49284 7.05634 25.0187 14.12276 37.51154 21.17909 2.03652 1.14891 6.06156 4.58176 4.50565 9.9425-14.72442 50.71239-41.27778 78.17008-68.31647 102.58633-27.47448 24.81516-58.81275 38.91396-80.36647 48.27822-1.456-4.88222-3.80007-9.77968-6.07729-14.43334-.0149-.0329.0149-.0883 0-.11749-.20687-.42411-.42241-.77136-.6285-1.18931-.15732-.33202-.26509-.61858-.41926-.93803-.022-.0454-.0834-.0744-.1054-.1199-.0393-.0783-.0645-.15531-.10462-.23364-.0716-.15143-.13765-.33201-.20924-.4785-.10934-.21961-.20687-.49481-.31463-.70947-.35162-.71215-.71031-1.3207-1.04776-2.01119-.56242-1.15657-1.07372-2.33572-1.57163-3.43294-4.44746-8.88576-15.2373-9.44754-23.36606-9.58387-10.03312-1.50502-19.37089 7.00448-29.23331 2.3698-9.49745-.35353-14.10223-12.40571-4.08641-17.28045 13.27472-6.94902 28.42469-7.05247 42.22643-12.30092 44.17878-13.24525 86.08271-41.13978 112.53382-84.01938 7.41687-11.75424 13.77341-24.37836 19.06961-37.50751z"/><path d="m419.7722 766.20918c5.00279 4.02746 10.54521 6.82899 16.41483 6.82899 4.39476 0 11.42227-3.48708 15.59835-3.48708 4.17607 0 11.54182-1.30426 19.92388 1.15644 3.81345 1.33206 8.19561 2.89255 10.28797 7.06262 1.32464 2.59462-1.62354 3.89247-2.86166 5.62338-9.77512 9.16484-21.97611 14.14677-34.01901 18.13013-6.07415 1.94422-12.23326 3.54895-18.42854 4.91497-5.36464-6.88206-6.20316-16.48745-6.6759-25.25959-.22654-4.98702-.23599-9.97523-.23992-14.96986z"/><path d="m327.6185 874.00475c-30.22051 0-171.33397-8.3606-171.33397-45.83905 0-12.76299 11.84466-41.13607 16.54068-48.40948 30.78136 37.33449 135.86919 35.36367 154.79329 35.36367 20.32976 0 124.01192 1.97082 154.79327-35.36367 4.69603 7.27341 16.5407 35.64649 16.5407 48.40948 0 37.47845-141.46508 45.83905-171.33397 45.83905z"/><path d="m590.24956 616.87985c2.79087.1553 5.80434 1.32567 9.22056 3.55025-.12427.30806-.27531.60603-.41926.94818-.033.0783-.0708.14771-.10461.2361-.11327.26513-.18958.54794-.31464.82696-.0621.15023-.14631.327-.20924.47723-.0598.13004-.0425.32574-.10462.46209-3.15506 7.06517-9.22842 18.76386-15.50788 30.53324-.12507.21084-.18722.50501-.31385.71459-.1943.36614-.43422.70197-.6285 1.06306-.11405.18812-.30521.41032-.41926.59465-.0401.077-.0645.16288-.10462.23485-.0708.11615-.13923.23608-.21002.35097-.22969.37245-.50185.69945-.73311 1.06559-6.10247 9.88947-12.9475 19.02898-20.53665 27.34027l-15.71711-17.87376c24.02286-28.37933 32.27984-51.2881 46.10281-50.52427z"/></g><g stroke="none"><path d="m52.179952 633.80797 4.098209 8.72288-21.481349 23.97939 29.68719-6.51217 4.097416 8.72162-31.95497 19.14261-2.681527-5.70541 26.401546-15.81835-30.602795 6.87578-2.762548-5.88216 22.257724-24.63844-26.400764 15.81708-2.613091-5.55644zm23.504492 51.32598c-2.286651-3.03135-4.999655-4.48579-8.141346-4.40752-3.129107.072-6.349463 1.71327-9.661057 4.90497-3.299009 3.18412-5.233271 6.52101-5.80198 10.00688-.568721 3.49849.29025 6.7508 2.576119 9.77205 2.275642 3.00989 4.983922 4.46686 8.125614 4.37848 3.140909-.0884 6.361254-1.71453 9.661057-4.90623 3.310812-3.18411 5.245073-6.52101 5.801198-9.9993.578938-3.48334-.273735-6.72555-2.559605-9.74933m3.977068-3.83937c3.487795 4.61078 4.941436 9.49429 4.360924 14.65176-.567135 5.14484-3.098434 9.87557-7.593082 14.21113-4.493866 4.33555-9.041218 6.4238-13.639699 6.2685-4.586679-.17675-8.62353-2.55916-12.110543-7.17627-3.498022-4.62214-4.963465-9.50565-4.395538-14.64923.567146-5.14484 3.104721-9.89198 7.611171-14.23891 4.506451-4.34818 9.053802-6.42885 13.640492-6.25966 4.586679.16792 8.628253 2.56547 12.126275 7.19268m10.521602 14.91184 4.957169 4.54387-3.979424 35.71471 17.058271-23.72059 4.51826 4.14492-22.800487 31.70618-4.918623-4.51238 3.903126-35.78033-17.058286 23.72436-4.480489-4.10703zm22.304126 20.29531 24.08423 16.71475-2.77672 5.09812-9.45811-6.56267-16.15841 29.70254-5.10584-3.54402 16.1584-29.69362-9.52025-6.60813zm25.98701 17.36748 5.36149 3.14501-16.6689 36.2513-5.36149-3.13621zm29.60067 28.73033-5.25136-2.5592c.70086-2.18041.63243-4.1916-.2061-6.0412-.82357-1.83195-2.32204-3.29393-4.497-4.37097-1.79976-.88871-3.45319-1.14253-4.96111-.75745-1.50713.38507-2.53364 1.2802-3.07877 2.68925-.5514 1.41653-.50185 2.83307.14788 4.24961.65682 1.39769 2.40937 3.34699 5.25766 5.86957 4.33497 3.79904 6.92998 6.87577 7.78422 9.23796.8692 2.3698.73942 5.01481-.39015 7.91872-1.36632 3.5237-3.63568 5.78363-6.80963 6.78234-3.15191.97974-6.67746.51125-10.57666-1.42161-4.10922-2.03271-6.87805-4.73453-8.30495-8.10304-1.41353-3.36331-1.38757-7.18761.0763-11.46381l5.35362 2.64501c-.78896 2.50106-.71581 4.76995.22025 6.82658.951 2.07174 2.67837 3.7143 5.18371 4.95667 1.88942.93937 3.63411 1.18811 5.23406.74623 1.61568-.43306 2.71536-1.40531 3.2998-2.91527.23048-.5845.317-1.34463.26115-2.25993-.0346-.92667-.20923-1.794-.52388-2.59583-.52152-1.31923-2.12147-3.13982-4.79907-5.44908-.57264-.51125-1.00685-.88122-1.30418-1.12996-3.27777-2.93786-5.35284-5.62832-6.22597-8.07645-.86605-2.46831-.73154-5.16505.40511-8.10291 1.20822-3.11349 3.30688-5.0906 6.29676-5.93907 3.01189-.8434 6.37698-.35354 10.09605 1.48857 3.61444 1.78651 6.07651 4.27995 7.38699 7.50077 1.3325 3.19797 1.30733 6.62449-.0747 10.2745"/><path d="m189.67583 801.95284 5.53768 2.72842-14.45225 37.45198-5.53848-2.7347zm19.53686 8.25074 6.23619 1.54659 10.6451 33.93577 5.80906-29.84643 5.684 1.40905-7.76377 39.90118-6.18821-1.53389-10.74107-33.95983-5.80906 29.84897-5.6368-1.4001zm70.26254 24.3241-5.69736-.5972c.0684-2.32061-.54983-4.20683-1.85403-5.66881-1.28845-1.46198-3.11415-2.32436-5.47711-2.58567-1.9555-.2172-3.59635.12498-4.92414 1.0189-1.327.89258-2.05697 2.10836-2.18912 3.63102-.13372 1.54793.30206 2.87732 1.30813 3.98576 1.00763 1.09722 3.21091 2.35096 6.60982 3.74852 5.16563 2.09085 8.47801 4.10712 9.93873 6.05135 1.47646 1.9469 2.07821 4.49968 1.80447 7.67252-.33116 3.82671-1.86897 6.76336-4.61264 8.81746-2.72637 2.04541-6.20788 2.83067-10.44452 2.35724-4.46476-.48225-7.8385-2.08324-10.12122-4.79133-2.26699-2.70182-3.29193-6.33792-3.0764-10.92222l5.81693.6401c-.0653 2.64501.63006 4.78746 2.08528 6.41237 1.47095 1.63374 3.56724 2.59583 6.2881 2.89763 2.05304.22843 3.77963-.15037 5.18057-1.12756 1.41667-.97973 2.1962-2.2864 2.33779-3.91759.0558-.64518-.0684-1.39769-.37364-2.24604-.28633-.87628-.68984-1.62491-1.20901-2.28145-.86055-1.07944-2.88132-2.24737-6.06235-3.51113-.68355-.28029-1.20035-.48225-1.5504-.6123-3.92121-1.6451-6.63342-3.47959-8.13583-5.49586-1.50163-2.04527-2.11439-4.6562-1.83908-7.84281.29262-3.37987 1.74469-5.99842 4.35542-7.84801 2.62884-1.87232 5.96324-2.57685 10.00482-2.13497 3.92672.43935 6.95435 1.95439 9.08212 4.54647 2.14584 2.57684 3.06381 5.84298 2.75467 9.80361m19.94276-10.87931 6.03796.23858-1.27666 40.83053-6.03718-.24113zm57.27807 12.6582-5.96637.12243c-.49793-2.40763-1.56771-4.2762-3.21092-5.59423-1.6267-1.33835-3.65062-1.97083-6.07336-1.92164-3.61837.0744-6.40295 1.48858-8.3553 4.25228-1.95314 2.7359-2.8892 6.56006-2.80818 11.48279.0787 4.82408 1.14766 8.60547 3.20698 11.33375 2.05854 2.72962 4.83132 4.06034 8.31755 3.98843 2.96313-.067 5.34418-1.14894 7.14313-3.25744 1.81627-2.10716 2.75312-4.90494 2.81054-8.37571l-9.89546.20076-.092-5.62832 15.44495-.31824.36105 22.04024-3.97786.0858-1.09181-5.13859c-1.30811 2.08324-2.91121 3.66271-4.80928 4.75859-1.89807 1.09709-4.05022 1.66274-6.45645 1.71834-4.99256.10225-9.07582-1.78277-12.25055-5.65491-3.159-3.89127-4.79041-9.04241-4.89582-15.45853-.10697-6.54001 1.37026-11.79849 4.4333-15.75912 3.06225-3.97066 7.20449-6.00578 12.42597-6.11818 4.35385-.0897 7.91795 1.03279 10.69073 3.35448 2.77277 2.33197 4.4561 5.62337 5.04919 9.88701m18.25549-13.63285 6.35261-.73113 19.50304 28.47787-2.74368-30.41073 5.79099-.65908 3.66635 40.63992-6.30384.72337-19.59979-28.46264 2.7421 30.40192-5.74063.65908zm47.18519-6.81015 5.9302-1.2929 6.88906 40.097-5.93098 1.29918zm35.88797-3.18419.27611 18.72853 10.11571-4.12344zm-5.23405-5.17762 6.37463-2.59836 24.79059 33.31973-6.05134 2.46323-6.22912-8.68888-13.23381 5.40364.20138 11.14315-5.91291 2.42287.0606-43.46538"/><path d="m527.68157 742.79785-5.29777 3.0365c-1.27902-2.02389-2.90414-3.22457-4.87615-3.60456-1.96415-.41168-4.09978.0543-6.40532 1.37109-3.07955 1.77007-4.93514 4.31403-5.56757 7.64713-.61748 3.32173.0425 7.12838 1.9791 11.42985 1.95077 4.33301 4.34047 7.25951 7.16831 8.76707 2.82784 1.50997 5.73041 1.40518 8.7077-.29793 2.36452-1.35986 3.96054-3.26626 4.78805-5.70677.83458-2.4758.75671-5.04756-.23284-7.7431l5.25373-3.01244c1.72345 4.19293 1.87998 8.35927.4696 12.48404-1.40331 4.10699-4.08248 7.29359-8.03751 9.56248-4.59769 2.63993-8.99245 3.01739-13.18426 1.12997-4.17686-1.89384-7.60881-5.82801-10.29427-11.78834-2.71535-6.0325-3.49174-11.50938-2.32678-16.43331 1.16418-4.92138 4.1399-8.75183 8.92716-11.49535 3.88189-2.23093 7.4979-2.93291 10.84884-2.09459 3.36587.82949 6.0592 3.07179 8.07998 6.74826m10.23607-14.71991 4.25553 18.10981 8.94053-6.76216zm-6.18349-3.60454 5.63365-4.25728 31.15736 25.61315-5.34812 4.04016-7.89671-6.7508-11.69522 8.84018 2.56905 10.7645-5.22461 3.95555zm15.86658-12.37667 4.54342-4.45297 20.12367 26.18 13.48158-13.22004 3.59006 4.67518-18.02501 17.66918zm25.12175-18.09597 8.63689 8.43376 5.10899-6.67251c1.59523-2.07562 2.39599-3.89114 2.40229-5.42513.0165-1.54788-.73627-3.06671-2.25913-4.55525-1.49848-1.45444-2.93246-2.09076-4.30036-1.88243-1.38049.19064-2.79873 1.23475-4.25552 3.13362zm-7.89278 1.27138 9.0129-11.76434c1.45599-1.90643 2.61309-3.22578 3.47048-3.98078.85504-.77898 1.74076-1.3585 2.65716-1.72967 1.75018-.76385 3.53499-.88758 5.35519-.37877 1.80762.48734 3.59084 1.59711 5.34889 3.30785 1.44893 1.41657 2.51871 2.98844 3.21013 4.72064.67884 1.71073.95651 3.51364.83381 5.39104-.092 1.28147-.42792 2.55411-1.00843 3.82674-.58052 1.26002-1.57792 2.81925-2.99146 4.66888l-5.36542 6.99826 10.77332 10.52325-3.93537 5.14358zm17.27065-22.73958 13.46822-25.02731 4.5332 3.11973-10.39418 19.3118 8.07999 5.54885 9.59106-17.83084 4.32317 2.97203-9.59106 17.82326 9.33856 6.40864 10.7387-19.95568 4.63781 3.17906-13.81275 25.6712z"/></g></g></g></g></g></svg>