<svg height="653" viewBox="-1 -1 300.59091 329.53016" width="595" xmlns="http://www.w3.org/2000/svg"><path d="m299.59093 163.82661c0 91.09722-67.2896 164.94612-150.2955 164.94612-83.00587 0-150.29543-73.8489-150.29543-164.94612 0-91.097199 67.28956-164.9460932 150.29543-164.9460932 83.0059 0 150.2955 73.8488942 150.2955 164.9460932z" fill="#d5d6d8"/><path d="m141.79079 11.005197 4.40087-12.0912502c2.02635-.12918 4.12592-.0387 6.20823 0l4.40087 12.0912502z" fill="#fff"/><path d="m149.30932 318.41624c41.23001 0 78.31794-19.48486 104.05625-50.53261l-208.140245-208.119606c25.74582-31.02986 62.844085-50.5269872 104.087095-50.5269872 41.23371 0 78.32464 19.4883672 104.04985 50.5450772l-208.116445 208.105426c25.73993 31.04087 62.830385 50.5287 104.063495 50.5287z" fill="#deb308"/><path d="m170.64208 133.06485v3.88384h-42.8174v-3.88384h18.5244v-55.099744l-16.5125-4.340072 9.2055-25.392599-8.5253 1.04929 18.7166-50.4145082 18.7167 50.4145082-8.5254-1.04929 9.2053 25.392599-16.5122 4.340072v55.099744z" fill="#32b457"/><path d="m166.61378 85.096536-17.3804 5.95246-17.3804-5.95246" fill="none" stroke="#32b457" stroke-width="1.515584"/><path d="m166.61378 80.488886-17.3804 5.95247-17.3804-5.95247" fill="none" stroke="#32b457" stroke-width="1.515584"/><path d="m77.568913 126.55794-8.667009 41.45927 8.667009 42.49472h-20.678019l8.71411-42.49472-8.71411-41.45927z"/><path d="m59.037734 123.42652c0 1.86045-1.50819 3.36866-3.36865 3.36866-1.86045 0-3.36864-1.50821-3.36864-3.36866 0-1.86044 1.50819-3.36865 3.36864-3.36865 1.86046 0 3.36865 1.50821 3.36865 3.36865z"/><path d="m82.479763 123.42652c0 1.86045-1.50821 3.36866-3.36865 3.36866-1.86045 0-3.36868-1.50821-3.36868-3.36866 0-1.86044 1.50823-3.36865 3.36868-3.36865 1.86044 0 3.36865 1.50821 3.36865 3.36865z"/><path d="m59.037734 213.68661c0 1.86047-1.50819 3.36866-3.36865 3.36866-1.86045 0-3.36864-1.50819-3.36864-3.36866 0-1.86044 1.50819-3.36863 3.36864-3.36863 1.86046 0 3.36865 1.50819 3.36865 3.36863z"/><path d="m82.479763 213.68661c0 1.86047-1.50821 3.36866-3.36865 3.36866-1.86045 0-3.36868-1.50819-3.36868-3.36866 0-1.86044 1.50823-3.36863 3.36868-3.36863 1.86044 0 3.36865 1.50819 3.36865 3.36863z"/><path d="m25.232035 158.3565 41.459269 8.66624 42.493966-8.667v20.678l-42.493966-8.71332-41.459269 8.71332z"/><path d="m25.469655 180.25593c0 1.86068-1.50836 3.36905-3.36904 3.36905-1.86066 0-3.36902-1.50837-3.36902-3.36905 0-1.86065 1.50836-3.36902 3.36902-3.36902 1.86068 0 3.36904 1.50837 3.36904 3.36902z"/><path d="m25.469655 156.81393c0 1.86067-1.50836 3.36903-3.36904 3.36903-1.86066 0-3.36902-1.50836-3.36902-3.36903s1.50836-3.36903 3.36902-3.36903c1.86068 0 3.36904 1.50836 3.36904 3.36903z"/><path d="m115.72899 180.25593c0 1.86068-1.50836 3.36905-3.36903 3.36905-1.86065 0-3.36904-1.50837-3.36904-3.36905 0-1.86065 1.50839-3.36902 3.36904-3.36902 1.86067 0 3.36903 1.50837 3.36903 3.36902z"/><path d="m115.72861 156.81354c0 1.86045-1.5082 3.36865-3.36865 3.36865-1.86046 0-3.36865-1.5082-3.36865-3.36865s1.50819-3.36865 3.36865-3.36865c1.86045 0 3.36865 1.5082 3.36865 3.36865z"/><path d="m225.90453 121.25431h14.11454v93.46104h-14.11454z"/><path d="m186.23128 160.92756h93.46104v14.11453h-93.46104z"/><path d="m220.85001 127.35789h24.22357v11.06275h-24.22357z"/><path d="m220.85001 197.549h24.22357v11.06273h-24.22357z"/><path d="m192.33486 155.87305h11.06275v24.22357h-11.06275z"/><path d="m262.526 155.87305h11.06273v24.22357h-11.06273z"/><path d="m123.99766 264.39319h51.01955v44.94148s-.26743 2.77812-3.77104 2.77812h-10.41069s-10.11038-2.62157-16.31675-10.86085c-6.20638-8.23928-19.41996-8.52017-20.52107-8.52017z" fill="#00aeef"/><g fill="none" stroke="#deb308" stroke-width="1.515584"><path d="m133.86301 271.95299v26.95447"/><path d="m144.27503 271.95299v33.4445"/><path d="m154.68706 272.01614v39.43289"/><path d="m165.09907 271.95299v41.43051"/></g><g fill="#00aeef"><path d="m126.24791 259.94304s-9.05083 0-14.52111-5.43398c-5.47028-5.434-5.37082-14.82-5.37082-14.82h85.96501s.0996 9.386-5.37083 14.82c-5.4703 5.43398-14.52112 5.43398-14.52112 5.43398z"/><path d="m99.799362 225.51936h99.543358v10.5312h-99.543358z"/></g></svg>