<svg height="580" viewBox="0 0 500 580" width="500" xmlns="http://www.w3.org/2000/svg" xmlns:xlink="http://www.w3.org/1999/xlink"><clipPath id="a"><path d="m500 330v-330h-500v330c0 138.071 111.929 250 250 250s250-111.929 250-250z"/></clipPath><g clip-path="url(#a)" stroke="#111" stroke-width="4"><path d="m250 290h250v290h-250z" fill="#0a66aa"/><path d="m0 290h250v290h-250z" fill="#cc3026"/><path d="m250 0h250v290h-250z" fill="#cc3026"/><path d="m0 0h250v145h-250z" fill="#0a66aa"/><path d="m0 145h250v145h-250z" fill="#fafafa"/></g><g clip-path="url(#a)"><path d="m278.38 102.315 17.223-67.036 8.706-17.186.052 19.263-14.517 67.681z" fill="#fafafa"/><path d="m303.321 22.257.04 15-14.281 66.571-4.057-.963 15.611-66.265-1.363-.324-15.612 66.26-4.057-.963 16.941-65.944 6.778-13.377m1.977-8.329-3.761 7.425-6.778 13.382-.1.194-.055.212-16.939 65.944-.507 1.973 1.982.471 3.478.825 1.943.462 4.057.963 1.989.472.428-2 14.282-66.576.045-.21v-.214l-.04-15-.023-8.323z" fill="#111"/><path d="m273.508 131.869 6.213-26.171 7.4 1.757-6.213 26.17-4.032.523z" fill="#fdda2a"/><path d="m280.463 106.9 5.454 1.3-5.817 24.523-2.972.386-2.482-1.681 5.822-24.526m-1.484-2.407-.462 1.946-5.822 24.525-.319 1.344 1.144.774 2.475 1.681.627.424.751-.1 2.972-.386 1.37-.177.319-1.344 5.822-24.526.462-1.946-1.946-.462-5.454-1.294-1.946-.462z" fill="#111"/><path d="m291.545 114.268a3.047 3.047 0 0 1 -.7-.082 3.007 3.007 0 0 1 -1.887-1.373 3.081 3.081 0 0 1 .335-3.646 1.986 1.986 0 0 0 -1.093-.871l-9.9-2.348c-.027 0-.13-.009-.232-.009a2 2 0 0 0 -1.059.311 3.072 3.072 0 0 1 -2.942 3.869 3.034 3.034 0 0 1 -2.586-1.455 3.057 3.057 0 0 1 -.363-2.307c.013-.054.027-.108.043-.162-.041 0-.124 0-.124 0a4 4 0 0 1 -.923-.108 4.089 4.089 0 1 1 1.89-7.957 3.985 3.985 0 0 1 .983.373c.01-.055.022-.109.034-.163a3.039 3.039 0 0 1 3.663-2.275 3 3 0 0 1 1.885 1.372 3.077 3.077 0 0 1 -.336 3.648 1.959 1.959 0 0 0 1.1.87l9.9 2.348c.028 0 .13.008.233.008a1.991 1.991 0 0 0 1.059-.311 3.072 3.072 0 0 1 2.942-3.868 3.034 3.034 0 0 1 2.586 1.455 3.048 3.048 0 0 1 .363 2.307c-.013.054-.027.108-.043.162h.124a3.992 3.992 0 0 1 .922.108 4.089 4.089 0 0 1 -1.889 7.957 4.016 4.016 0 0 1 -.983-.373c-.01.055-.022.108-.034.163a3.042 3.042 0 0 1 -2.968 2.357z" fill="#fdda2a"/><path d="m275.986 96.985a2.038 2.038 0 0 1 1.975 2.53 2.062 2.062 0 0 1 -.924 1.282 3.012 3.012 0 0 0 1.985 2.112l9.978 2.368a2.916 2.916 0 0 0 .463.036 3.027 3.027 0 0 0 2.26-1.03 2.067 2.067 0 0 1 1.742-3.149 2.035 2.035 0 0 1 .805 3.905.994.994 0 0 0 .515.546 3.055 3.055 0 0 1 1.709-.53 3 3 0 0 1 .692.082 3.09 3.09 0 0 1 -1.428 6.012 3.026 3.026 0 0 1 -1.942-1.48h-.037a.99.99 0 0 0 -.668.256 2.03 2.03 0 0 1 .426 1.755 2.038 2.038 0 1 1 -3.042-2.224 3.008 3.008 0 0 0 -1.986-2.112l-9.975-2.368a2.93 2.93 0 0 0 -.464-.037 3.028 3.028 0 0 0 -2.26 1.031 2.068 2.068 0 0 1 -1.742 3.149 2.036 2.036 0 0 1 -.805-3.906 1 1 0 0 0 -.515-.545 3.055 3.055 0 0 1 -1.709.53 3 3 0 0 1 -.692-.082 3.09 3.09 0 0 1 1.428-6.012 3.024 3.024 0 0 1 1.942 1.479h.037a.99.99 0 0 0 .668-.256 2.03 2.03 0 0 1 -.422-1.754 2.056 2.056 0 0 1 1.991-1.588m0-2a4.029 4.029 0 0 0 -3.6 2.211l-.148-.038a5.1 5.1 0 0 0 -5.492 7.619 5.006 5.006 0 0 0 3.14 2.285l.151.034a4.037 4.037 0 0 0 7.969.9 4.1 4.1 0 0 0 .111-1.053h.051l9.784 2.323.048.02a4.1 4.1 0 0 0 -.374.989 4.037 4.037 0 0 0 7.523 2.781c.049.013.1.026.149.037a5.056 5.056 0 0 0 6.1-3.783 5.079 5.079 0 0 0 -3.745-6.12l-.151-.034a4.037 4.037 0 0 0 -7.969-.9 4.1 4.1 0 0 0 -.111 1.052c-.017 0-.034 0-.051 0l-9.784-2.323-.048-.02a4.1 4.1 0 0 0 .374-.989 4.043 4.043 0 0 0 -.482-3.058 4 4 0 0 0 -2.509-1.825 4.054 4.054 0 0 0 -.93-.109z" fill="#111"/><path d="m391.178 278.743c-6.174 0-9.807-6.054-12.46-10.474l-.232-.385a1 1 0 0 1 -.137-.611c.783-8.2 1.259-23.541-4.358-34.1a1 1 0 0 1 -.115-.528l.85-14.651a1 1 0 0 1 1.507-.8l7.23 4.289a1 1 0 0 1 .474.679 113.9 113.9 0 0 1 1.53 16.958c.054 1.376.112 2.812.183 4.323.316-4.492.244-8.35.172-12.131-.057-3.084-.118-6.274.029-9.764a1 1 0 0 1 .485-.817 16.221 16.221 0 0 0 1.713-1.237c1.464-1.157 2.978-2.354 5.553-2.354a1 1 0 0 1 .962.729c2.174 7.75.7 14.957-.715 21.926a67.049 67.049 0 0 0 -1.8 13.316 1 1 0 0 1 -.757.97 22.355 22.355 0 0 0 -5.945 2.332 23.316 23.316 0 0 1 5.189-.772 10.653 10.653 0 0 1 1.4.089 1 1 0 0 1 .756.529l1.794 3.44a1 1 0 0 1 -.643 1.432 22.108 22.108 0 0 1 -3.229.473 10.83 10.83 0 0 0 -4.464 1.025c.137-.033.273-.065.408-.1a24.122 24.122 0 0 1 6.267-.9c.614 0 1.243.024 1.92.074a1 1 0 0 1 .9.77l.882 3.779a1 1 0 0 1 -.9 1.225 21.623 21.623 0 0 0 -5.67 1.151 18.03 18.03 0 0 1 3.321-.355 9.944 9.944 0 0 1 3.858.732 1 1 0 0 1 .606 1.082c-.362 2.269-2.042 4.325-3.523 6.14-.6.729-1.158 1.418-1.578 2.049a1 1 0 0 1 -.759.444c-.237.017-.473.026-.7.026z" fill="#fafafa"/><path d="m375.723 218.054 7.23 4.289c1.837 9.948 1.126 17.709 2.4 31.372 2.537-14 1.051-21.467 1.5-32.126 2.25-1.348 3.6-3.45 6.752-3.45 3.45 12.3-2.548 23.112-2.548 34.971-3.6.9-7.358 2.548-9.152 4.948 2.37-.131 5.552-1.418 8.637-1.418a9.761 9.761 0 0 1 1.269.08l1.794 3.44c-3.6.9-8.26-.149-10.054 4.055 3.733-.687 5.667-1.589 9.28-1.589.569 0 1.18.022 1.846.071l.881 3.78a19.481 19.481 0 0 0 -11.258 4.193c3.2-.31 6.106-1.4 8.976-1.4a8.968 8.968 0 0 1 3.477.658c-.457 2.856-3.45 5.542-4.947 7.793-.213.016-.422.023-.629.023-5.777 0-9.222-6.028-11.835-10.374 1.049-10.976.64-25.059-4.47-34.664l.849-14.651m0-2a2 2 0 0 0 -2 1.884l-.85 14.651a2.005 2.005 0 0 0 .231 1.055c5.7 10.712 4.867 27.02 4.245 33.534a2 2 0 0 0 .277 1.221l.23.384c2.776 4.625 6.579 10.96 13.319 10.96.255 0 .514-.009.776-.029a2 2 0 0 0 1.518-.887c.393-.591.941-1.261 1.52-1.971 1.562-1.912 3.332-4.079 3.737-6.613a2 2 0 0 0 -1.213-2.165c-.176-.073-.353-.14-.532-.2a2.023 2.023 0 0 0 .18-.211 2 2 0 0 0 .338-1.641l-.881-3.78a2.75 2.75 0 0 1 -1.247-3.008l-1.794-3.44a2 2 0 0 0 -1.392-1.038 2 2 0 0 0 .865-1.647 65.389 65.389 0 0 1 1.774-13.116c1.444-7.086 2.938-14.413.7-22.4a2 2 0 0 0 -1.926-1.46 9.4 9.4 0 0 0 -6.175 2.571 15.562 15.562 0 0 1 -1.605 1.164 2 2 0 0 0 -.971 1.632l-.007.184a2 2 0 0 0 -.87-1.067l-7.23-4.289a1.993 1.993 0 0 0 -1.021-.28z" fill="#111"/><path d="m393.708 185.818a1 1 0 0 1 -.58-.185l-7.315-5.213a1 1 0 0 1 -.419-.863l.467-9.577a1 1 0 0 1 1-.951.991.991 0 0 1 .539.159l7.846 5.021a1 1 0 0 1 .456.943l-1 9.768a1 1 0 0 1 -.995.9z" fill="#fafafa"/><path d="m386.86 170.029 7.846 5.022-1 9.767-7.315-5.213.467-9.576m0-2a2 2 0 0 0 -2 1.9l-.468 9.576a2 2 0 0 0 .837 1.726l7.315 5.213a2 2 0 0 0 3.151-1.426l1-9.767a2 2 0 0 0 -.912-1.888l-7.846-5.021a1.994 1.994 0 0 0 -1.078-.316z" fill="#111"/><path d="m383.994 221.241a.988.988 0 0 1 -.421-.093l-7.124-3.3c-1.067-.477-1.079-2.108-1.092-3.835 0-.409-.005-.834-.031-1.032a1 1 0 0 1 .977-1.128 87.105 87.105 0 0 0 13.978-1.192c.825-.133 1.531-.245 2.164-.319a.923.923 0 0 1 .118-.007 1 1 0 0 1 .958.716l.955 3.226a1 1 0 0 1 -.447 1.143l-9.522 5.681a1.008 1.008 0 0 1 -.513.14z" fill="#fafafa"/><path d="m392.561 211.333.956 3.228-9.523 5.68-7.124-3.3c-.69-.308-.435-3.185-.552-4.087a99.883 99.883 0 0 0 16.243-1.519m0-2a2.068 2.068 0 0 0 -.234.014c-.664.078-1.379.193-2.207.326a86.261 86.261 0 0 1 -13.833 1.179 2 2 0 0 0 -1.955 2.256c.018.138.021.584.024.91.014 1.968.028 4 1.7 4.748l7.1 3.289a2 2 0 0 0 1.865-.1l9.523-5.68a2 2 0 0 0 .894-2.286l-.956-3.227a2 2 0 0 0 -1.916-1.433z" fill="#111"/><path d="m330.411 277.966a1 1 0 0 1 -.985-.827c-.861-4.913-.132-8.313 2.165-10.1a1 1 0 0 1 .614-.211 12.728 12.728 0 0 1 2.824.3 2.9 2.9 0 0 1 -1.075-1.56 2.282 2.282 0 0 1 .415-1.948 4.654 4.654 0 0 1 3.139-1.739c.11-.008.224-.012.338-.012 1.729 0 3.3.953 6.152 2.683l.328.2a16.426 16.426 0 0 0 -5.754-3.671 1 1 0 0 1 -.427-1.485 5.027 5.027 0 0 1 4.225-2.473c2.351 0 4.724 1.69 6.748 3.473-1.493-2.622-3.257-3.947-5.27-3.947-.106 0-.21 0-.316.01h-.063a1 1 0 0 1 -.994-.905l-3.143-32.854a1 1 0 0 1 1.487-.965c1.013.573 3.437 2.364 4.041 3.954a1.011 1.011 0 0 1 .064.3l.224 3.953.029-5.388a1 1 0 0 1 .537-.882l10.659-5.563a1.011 1.011 0 0 1 .462-.114 1 1 0 0 1 .825.434c3.434 4.99 2.55 13.46 1.2 19.687-2.193 10.4-2.547 19.4-1.049 26.757a1 1 0 0 1 -.159.772c-4.683 6.712-18.733 12.121-27.241 12.121z" fill="#fafafa"/><path d="m356.836 219.19c3.3 4.8 2.251 13.356 1.051 18.908-1.805 8.557-2.856 18.314-1.051 27.168-4.533 6.5-18.293 11.7-26.425 11.7-.446-2.548-.9-7.039 1.794-9.141 3.759 0 6.466 1.5 8.865 4.5-.127-5.043-5.563-4.725-6.147-7.007-.329-1.264 1.582-2.368 2.654-2.442.09-.007.18-.01.269-.01 1.937 0 3.821 1.537 8.925 4.5-.753-3.748-4.65-5.85-7.8-7.209a4.05 4.05 0 0 1 3.4-2.04c3.468 0 7.392 4.591 9.519 6.4-2.219-6.7-5.121-8.876-8.042-8.877-.126 0-.251 0-.377.012l-3.144-32.852c1.051.594 3.143 2.24 3.6 3.439l1.5 26.425h.605l.149-27.911 10.659-5.563m0-2a1.987 1.987 0 0 0 -.924.227l-10.659 5.563a1.994 1.994 0 0 0 -.725.643 15.078 15.078 0 0 0 -3.215-2.564 2 2 0 0 0 -2.976 1.931l3.143 32.859a2 2 0 0 0 .06.332 6.167 6.167 0 0 0 -4.218 2.845 2 2 0 0 0 -.2 1.892 5.712 5.712 0 0 0 -3.56 2.117 3.3 3.3 0 0 0 -.569 2.789v.021c-.259-.013-.521-.02-.788-.02a2 2 0 0 0 -1.229.423c-2.611 2.035-3.464 5.757-2.535 11.063a2 2 0 0 0 1.97 1.655c8.928 0 23.132-5.484 28.065-12.555a2 2 0 0 0 .32-1.544c-1.471-7.216-1.119-16.084 1.048-26.356 1.385-6.41 2.275-15.171-1.36-20.455a2 2 0 0 0 -1.649-.866z" fill="#111"/><path d="m345.137 223.491a1 1 0 0 1 -.49-.128l-4.82-2.707a1 1 0 0 1 -.51-.92l.16-3.3a1 1 0 0 1 .894-.947c.1-.01.209-.016.326-.016a11.8 11.8 0 0 1 1.181.094 16.387 16.387 0 0 0 1.885.135 7.388 7.388 0 0 0 1.662-.173 60.564 60.564 0 0 0 5.888-1.816 18.064 18.064 0 0 1 4.44-1.24 1.757 1.757 0 0 1 .4.04 1 1 0 0 1 .786.989l-.033 2.538a1 1 0 0 1 -.485.845l-10.765 6.465a1.006 1.006 0 0 1 -.519.141z" fill="#fafafa"/><path d="m355.753 213.472a.813.813 0 0 1 .181.017l-.032 2.537-10.766 6.466-4.82-2.708.16-3.3a2.155 2.155 0 0 1 .222-.011c.679 0 1.785.229 3.064.229a8.5 8.5 0 0 0 1.884-.2c3.981-.92 8.742-3.032 10.107-3.032m0-2a17.7 17.7 0 0 0 -4.769 1.3 59.824 59.824 0 0 1 -5.788 1.787 6.435 6.435 0 0 1 -1.434.146 15.855 15.855 0 0 1 -1.773-.128 11.744 11.744 0 0 0 -1.291-.1c-.155 0-.3.008-.43.021a2 2 0 0 0 -1.79 1.893l-.159 3.3a2 2 0 0 0 1.018 1.84l4.82 2.707a2 2 0 0 0 2.009-.029l10.766-6.465a2 2 0 0 0 .97-1.69l.031-2.537a2 2 0 0 0 -1.57-1.979 2.847 2.847 0 0 0 -.61-.063z" fill="#111"/><path d="m339.828 215.8a1 1 0 0 1 -.563-.174 6.473 6.473 0 0 1 -3.125-5.141l-.252-10.485a1 1 0 0 1 .6-.942l.389-.171a11.186 11.186 0 0 1 4.333-1.219 1 1 0 0 1 1 .934l.707 10.721a3.353 3.353 0 0 1 .358.4 87.267 87.267 0 0 0 -.671-11.239 1.007 1.007 0 0 1 .982-1.209.99.99 0 0 1 .154.013l11 1.767a.963.963 0 0 1 .242.071l1.921.839a1 1 0 0 1 .59 1.053l-1.569 11.328a1 1 0 0 1 -.735.829l-9.319 2.46a1.015 1.015 0 0 1 -.233.033z" fill="#fafafa"/><path d="m343.582 198.28 11 1.767 1.921.839-1.57 11.327-9.317 2.46-5.784.123a5.558 5.558 0 0 1 -2.689-4.338l-.253-10.478a11.747 11.747 0 0 1 4.324-1.308l.747 11.305a.1.1 0 0 1 .074-.034c.416 0 1.586 2.355 1.959 2.355.054 0 .091-.049.107-.163.593-4.126-.373-13.195-.516-13.855m0-2a2 2 0 0 1 -2.371.392 12.14 12.14 0 0 0 -4.734 1.3l-.383.168a2 2 0 0 0 -1.206 1.884l.252 10.478a7.444 7.444 0 0 0 3.562 5.943 2 2 0 0 0 1.127.347h.042l5.784-.123a2.055 2.055 0 0 0 .468-.066l9.318-2.46a2 2 0 0 0 1.47-1.659l1.57-11.328a2 2 0 0 0 -1.181-2.107l-1.92-.839a2.039 2.039 0 0 0 -.484-.142l-11-1.766a1.993 1.993 0 0 0 -.317-.026z" fill="#111"/><path d="m374.845 198.279a1 1 0 0 1 -1-.949l-.449-8.875a1 1 0 0 1 .484-.907l10.6-6.383a1 1 0 0 1 1.034 0 1.026 1.026 0 0 1 .251.217 1 1 0 0 1 .548-.557.978.978 0 0 1 .381-.076 1 1 0 0 1 .641.232l6.392 5.333a1 1 0 0 1 .329 1.014l-2.029 8a1 1 0 0 1 -.968.754.929.929 0 0 1 -.117-.007l-6.02-.7-9.793 2.863a1 1 0 0 1 -.284.041z" fill="#fafafa"/><path d="m386.69 181.75 6.392 5.333-2.028 8-6.222-.724-9.987 2.92-.449-8.874 10.6-6.384-.606 9.864 1.4-.342zm0-2a2.007 2.007 0 0 0 -.763.151 2.042 2.042 0 0 0 -.371.2 1.969 1.969 0 0 0 -.564-.082 2 2 0 0 0 -1.032.287l-10.6 6.383a2 2 0 0 0 -.965 1.814l.448 8.875a2 2 0 0 0 2.559 1.819l9.6-2.806 5.819.676a2.033 2.033 0 0 0 .232.014 2 2 0 0 0 1.937-1.509l2.028-8a2 2 0 0 0 -.657-2.027l-6.391-5.333a2 2 0 0 0 -1.282-.464z" fill="#111"/><path d="m374.887 212.188a1 1 0 0 1 -.992-.877l-1.359-11.062a1 1 0 0 1 .2-.728c.115-.15 2.918-3.7 12.214-4.078h.04a1 1 0 0 1 1 .962l.035.9-.018-.707a1 1 0 0 1 1-1.026.937.937 0 0 1 .2.022l5.27 1.1a1 1 0 0 1 .793.905l.825 11.035a1 1 0 0 1 -.685 1.024l-7.241 2.381a1.007 1.007 0 0 1 -.3.05z" fill="#fafafa"/><path d="m384.986 196.442.478 12.446 1.812-1.376-.276-10.944 5.27 1.1.83 11.032-7.242 2.38-10.968.106-1.359-11.062s2.527-3.324 11.458-3.685m0-2h-.081c-9.595.387-12.652 4.056-12.969 4.473a2 2 0 0 0 -.393 1.454l1.359 11.062a2 2 0 0 0 1.985 1.756h.019l10.968-.106a2.014 2.014 0 0 0 .606-.1l7.241-2.38a2 2 0 0 0 1.37-2.05l-.825-11.035a2 2 0 0 0 -1.586-1.809l-5.27-1.1a2.028 2.028 0 0 0 -.409-.042 2 2 0 0 1 -2.015-.126z" fill="#111"/><path d="m374.4 186.349a1 1 0 0 1 -1-.991l-.074-7.325a1 1 0 0 1 .389-.8l10.51-8.122a1 1 0 0 1 .611-.209 1.011 1.011 0 0 1 .456.11 1 1 0 0 1 .543.924l-.339 10.15a1 1 0 0 1 -.534.853l-10.1 5.3a.991.991 0 0 1 -.462.11z" fill="#fafafa"/><path d="m384.832 169.9-.339 10.149-10.1 5.3-.074-7.326 10.51-8.121m0-2a2 2 0 0 0 -1.224.417l-10.51 8.122a2 2 0 0 0 -.777 1.6l.074 7.325a2 2 0 0 0 2.929 1.751l10.1-5.3a2 2 0 0 0 1.07-1.7l.339-10.149a2 2 0 0 0 -2-2.067z" fill="#111"/><path d="m373.621 177a.98.98 0 0 1 -.333-.057 1 1 0 0 1 -.622-.648l-2.516-8.144a1 1 0 0 1 .8-1.283l14.65-2.268 9.782-2.745a1.051 1.051 0 0 1 .27-.037 1 1 0 0 1 1 1.071l-.636 9.035a1 1 0 0 1 -1.348.866l-9.316-3.493-11.167 7.526a1 1 0 0 1 -.564.177z" fill="#fafafa"/><path d="m395.651 162.82-.637 9.035-9.8-3.673-11.593 7.818-2.516-8.143 14.7-2.272 9.842-2.761m0-2a1.993 1.993 0 0 0 -.54.075l-9.726 2.727-14.581 2.25a2 2 0 0 0 -1.606 2.567l2.516 8.143a2 2 0 0 0 3.029 1.068l10.739-7.238 8.834 3.312a2 2 0 0 0 2.7-1.732l.637-9.035a2 2 0 0 0 -2-2.141z" fill="#111"/><path d="m353.257 198.789c-1.194-.091-2.617-.343-4.125-.608a44.622 44.622 0 0 0 -7.556-.887 14.193 14.193 0 0 0 -3.617.414 1 1 0 0 1 -1.254-.987l.212-10.5a1 1 0 0 1 .577-.886l2.2-1.026-1.461.482a1 1 0 0 1 -1.31-1.029l.68-8.409a1 1 0 0 1 .5-.788l3.564-2.049-2.893.734a.988.988 0 0 1 -.247.03 1 1 0 0 1 -1-1.1l.446-4.5a1 1 0 0 1 1-.9 1.064 1.064 0 0 1 .148.011l8.982 1.345 10.8-.495a1 1 0 0 1 .969 1.244l-1.645 6.529a1 1 0 0 1 -1.311.7l-8.844-3.208.01.226 9.789 4.707a1 1 0 0 1 .533 1.157l-2.1 7.952a1 1 0 0 1 -1.529.572l-6.338-4.309 6.382 5.766a1.006 1.006 0 0 1 .279.426l.116.35a.868.868 0 0 1 .03.114l.075.362a1.018 1.018 0 0 1 .011.335l-1 7.368a1 1 0 0 1 -.99.866c-.031-.006-.058-.007-.083-.009zm-10.3-15.492a1 1 0 0 1 .46.848l-.019 3.028 1.027-11.3-.76 6.509a1 1 0 0 1 -.68.833l-.1.034a.789.789 0 0 1 .074.051z" fill="#fafafa"/><path d="m338.968 167.778 9.077 1.359 10.851-.5-1.646 6.53-10.245-3.716.1 2.314 10.33 4.969-2.1 7.952-9.151-6.222.159 2.2 7.8 7.049.117.351.075.361-1 7.368c-2.966-.226-7.5-1.5-11.759-1.5a15.256 15.256 0 0 0 -3.869.447l.212-10.5 4.5-2.1-.064 10.5 1.5-1.381 1.943-21.392-2.124 1.858-1 8.546-4.756 1.571.679-8.408 6.7-3.854.053-1.03-6.827 1.731.446-4.5m0-2a2 2 0 0 0 -1.99 1.8l-.446 4.5a2 2 0 0 0 .686 1.713c.036.031.073.061.112.089a2 2 0 0 0 -.727 1.387l-.679 8.408a2 2 0 0 0 .393 1.361 1.99 1.99 0 0 0 -.4 1.159l-.213 10.5a2 2 0 0 0 2.508 1.975 13.154 13.154 0 0 1 3.361-.381 43.969 43.969 0 0 1 7.382.871c1.533.271 2.981.526 4.224.621.052 0 .1.006.154.006a2 2 0 0 0 1.98-1.732l1-7.368a1.971 1.971 0 0 0 -.023-.672l-.074-.361a2.018 2.018 0 0 0 -.061-.228l-.117-.351a1.982 1.982 0 0 0 -.219-.454 2.055 2.055 0 0 0 .211-.066 2 2 0 0 0 1.233-1.362l2.1-7.952a2 2 0 0 0 -1.066-2.314l-.057-.027a2 2 0 0 0 .948-1.249l1.646-6.529a2 2 0 0 0 -1.939-2.489h-.092l-10.656.49-8.884-1.33a2.1 2.1 0 0 0 -.3-.022z" fill="#111"/><path d="m416.418 136.365a1 1 0 0 1 -.878-.518l-2.909-5.3a1 1 0 0 1 .714-1.468l12.465-2.06a1 1 0 0 1 1.105.652l.913 2.569a1 1 0 0 1 -.526 1.244l-10.469 4.788a.991.991 0 0 1 -.415.093z" fill="#fafafa"/><path d="m425.972 128.008.913 2.569-10.468 4.788-2.909-5.3 12.464-2.06m0-2a2.025 2.025 0 0 0 -.328.027l-12.464 2.059a2 2 0 0 0 -1.427 2.936l2.909 5.3a2 2 0 0 0 2.585.856l10.468-4.788a2 2 0 0 0 1.053-2.488l-.913-2.57a2 2 0 0 0 -1.883-1.33z" fill="#111"/><path d="m410.194 129.146a1 1 0 0 1 -.95-.691l-.944-2.909a1 1 0 0 1 .717-1.281l17.048-4.107a1.053 1.053 0 0 1 .235-.027 1 1 0 0 1 1 1.033l-.158 4.8a1 1 0 0 1 -.862.957l-15.946 2.22a.927.927 0 0 1 -.14.005z" fill="#fafafa"/><path d="m426.3 121.131-.158 4.8-15.942 2.215-.945-2.909 17.049-4.106m0-2a1.957 1.957 0 0 0 -.468.056l-17.049 4.106a2 2 0 0 0 -1.434 2.562l.945 2.909a2 2 0 0 0 2.177 1.363l15.947-2.219a2 2 0 0 0 1.723-1.915l.158-4.8a2 2 0 0 0 -2-2.066z" fill="#111"/><path d="m410.468 123.742a1 1 0 0 1 -.62-1.784l14.3-11.317a1 1 0 0 1 .621-.216.979.979 0 0 1 .324.054 1 1 0 0 1 .646.708l1.531 6.226a1 1 0 0 1 -.588 1.162l-10.011 4.154a1.063 1.063 0 0 1 -.224.063l-5.821.937a.956.956 0 0 1 -.158.013z" fill="#fafafa"/><path d="m424.769 111.424 1.531 6.227-10.011 4.149-5.821.938 14.3-11.318m0-2a2 2 0 0 0 -1.242.432l-14.3 11.318a2 2 0 0 0 1.559 3.543l5.822-.938a2.062 2.062 0 0 0 .448-.127l10.01-4.153a2 2 0 0 0 1.176-2.325l-1.531-6.227a2 2 0 0 0 -1.941-1.523z" fill="#111"/><path d="m406.442 124.624a.97.97 0 0 1 -.151-.012.994.994 0 0 1 -.7-.472l-1.284-2.134a1 1 0 0 1 .092-1.159l13.387-15.9a1 1 0 0 1 .684-.353h.081a1 1 0 0 1 .65.24l4.2 3.6a1 1 0 0 1 .013 1.509l-16.308 14.438a1 1 0 0 1 -.664.243z" fill="#fafafa"/><path d="m418.546 105.587 4.2 3.6-16.307 14.439-1.285-2.134 13.388-15.9m0-2c-.054 0-.109 0-.163.006a2 2 0 0 0 -1.367.706l-13.388 15.9a2 2 0 0 0 -.183 2.319l1.284 2.134a2 2 0 0 0 1.411.945 1.934 1.934 0 0 0 .3.024 2 2 0 0 0 1.326-.5l16.307-14.439a2 2 0 0 0 -.025-3.017l-4.2-3.6a2 2 0 0 0 -1.3-.48z" fill="#111"/><path d="m405.7 118.651a1 1 0 0 1 -.765-.382l-11.372-14.484a.969.969 0 0 1 -.131-.222c-1.084-2.515.1-7.969 2.54-11.672 1.812-2.755 4.019-4.21 6.381-4.21a5.76 5.76 0 0 1 .813.057 1 1 0 0 1 .674.411l12.462 17.533a1 1 0 0 1 -.057 1.229l-9.761 11.389a.994.994 0 0 1 -.758.349z" fill="#fafafa"/><path d="m402.358 88.68a4.662 4.662 0 0 1 .671.049l12.461 17.532-9.764 11.39-11.372-14.483c-1.487-3.452 2.166-14.487 8-14.488m0-2c-2.716 0-5.212 1.613-7.218 4.662-2.342 3.559-4.011 9.395-2.623 12.617a1.973 1.973 0 0 0 .264.444l11.372 14.484a2 2 0 0 0 1.53.764h.043a2 2 0 0 0 1.518-.7l9.765-11.39a2 2 0 0 0 .111-2.461l-12.457-17.53a2 2 0 0 0 -1.346-.821 6.69 6.69 0 0 0 -.955-.069z" fill="#111"/><path d="m332.187 118.108a.986.986 0 0 1 -.334-.057l-12.3-4.357a1 1 0 0 1 -.624-1.229l5.8-19.353a1.011 1.011 0 0 1 .249-.418 5.453 5.453 0 0 1 3.968-1.711c2.173 0 4.608 1.261 6.855 3.551 2.826 2.878 4.764 6.79 4.714 9.514a1 1 0 0 1 -.129.472c-.8 1.414-1.553 2.991-2.284 4.516-1.5 3.121-3.047 6.349-5.158 8.735a1 1 0 0 1 -.757.337z" fill="#fafafa"/><path d="m328.938 91.984c4.931 0 10.65 7.685 10.569 12.045-2.415 4.288-4.278 9.642-7.32 13.079l-12.3-4.356 5.8-19.353a4.48 4.48 0 0 1 3.26-1.415m0-2a6.5 6.5 0 0 0 -4.678 2.005 2 2 0 0 0 -.5.837l-5.8 19.352a2 2 0 0 0 1.248 2.46l12.3 4.355a2 2 0 0 0 2.165-.559c2.2-2.49 3.783-5.781 5.31-8.964.759-1.581 1.475-3.074 2.256-4.459a2.006 2.006 0 0 0 .257-.945c.064-3.484-2.465-7.65-5-10.232-2.437-2.483-5.125-3.85-7.569-3.85z" fill="#111"/><path d="m329.53 126.29a1 1 0 0 1 -.38-.075c-2.155-.885-11.2-7.752-13.1-9.656a1 1 0 0 1 .125-1.521l.161-.115a5.451 5.451 0 0 1 2.917-1.318 2.169 2.169 0 0 1 .745.129l12.853 4.628a1 1 0 0 1 .556 1.387l-2.982 5.987a1 1 0 0 1 -.895.554z" fill="#fafafa"/><path d="m319.254 114.606a1.182 1.182 0 0 1 .4.067l12.857 4.629-2.983 5.988c-1.911-.785-10.766-7.432-12.772-9.438a5.235 5.235 0 0 1 2.5-1.246m0-2a6.316 6.316 0 0 0 -3.5 1.508l-.156.112a2 2 0 0 0 -.249 3.04c1.992 1.993 11.133 8.932 13.425 9.874a2 2 0 0 0 2.551-.958l2.983-5.988a2 2 0 0 0 -1.112-2.773l-12.857-4.629a3.143 3.143 0 0 0 -1.08-.186z" fill="#111"/><path d="m322.077 133.456a.973.973 0 0 1 -.331-.057 1 1 0 0 1 -.648-.741l-1.452-7.032-4.105-6.874a1 1 0 0 1 1.429-1.334l3.119 2.167a.908.908 0 0 1 .113.092l8.016 7.516a1 1 0 0 1 -.045 1.5l-5.457 4.534a1 1 0 0 1 -.639.229z" fill="#fafafa"/><path d="m316.4 118.239 3.118 2.167 8.016 7.517-5.457 4.533-1.486-7.2-4.191-7.019m0-2a2 2 0 0 0 -1.718 3.026l4.018 6.729 1.418 6.867a2 2 0 0 0 3.237 1.141l5.457-4.533a2 2 0 0 0 .09-3l-8.016-7.516a2 2 0 0 0 -.226-.184l-3.119-2.167a2 2 0 0 0 -1.141-.358z" fill="#111"/><path d="m314.952 134.264a1 1 0 0 1 -.962-.731l-1.974-7.06a.932.932 0 0 1 -.032-.164l-.732-6.9a1 1 0 0 1 .523-.987l2.485-1.327a1 1 0 0 1 1.375.454l3.439 7.272a1.011 1.011 0 0 1 .077.239l1.391 7.208a1 1 0 0 1 -.809 1.174l-4.607.808a1.031 1.031 0 0 1 -.174.014z" fill="#fafafa"/><path d="m314.73 117.975 3.44 7.273 1.391 7.208-4.608.807-1.975-7.06-.732-6.9 2.484-1.327m0-2a2.006 2.006 0 0 0 -.942.236l-2.485 1.327a2 2 0 0 0 -1.046 1.975l.733 6.9a1.917 1.917 0 0 0 .062.328l1.975 7.06a2 2 0 0 0 1.924 1.462 1.946 1.946 0 0 0 .347-.031l4.608-.806a2 2 0 0 0 1.619-2.349l-1.391-7.209a1.982 1.982 0 0 0 -.156-.476l-3.44-7.273a2 2 0 0 0 -1.18-1.044 2.022 2.022 0 0 0 -.628-.1z" fill="#111"/><path d="m311.857 133.1a.994.994 0 0 1 -.264-.036l-3.94-1.083a1 1 0 0 1 -.734-1l.453-11.065a1 1 0 0 1 1-.959.98.98 0 0 1 .208.022l1.728.367a1 1 0 0 1 .781.831l1.759 11.78a1 1 0 0 1 -.99 1.148z" fill="#fafafa"/><path d="m308.371 119.948 1.727.368 1.759 11.78-3.939-1.083zm0-2a2 2 0 0 0 -2 1.918l-.452 11.065a2 2 0 0 0 1.468 2.01l3.939 1.083a2 2 0 0 0 2.508-2.224l-1.759-11.779a2 2 0 0 0 -1.561-1.661l-1.728-.368a1.954 1.954 0 0 0 -.416-.044z" fill="#111"/><path d="m301.639 134.8a1 1 0 0 1 -.444-.147l-10.327-6.413-7.668 1.17a.948.948 0 0 1 -.15.012 1 1 0 0 1 -.978-1.212l1.582-7.3a1 1 0 0 1 1.568-.6l.27.2-.862-3.51a.991.991 0 0 1 -.021-.368l.384-2.951-3.445-1.384a.976.976 0 0 1 -.217-.12l-2.85-2.084a1 1 0 0 1 -.385-1.028l.765-3.4a1 1 0 0 1 .63-.719 1.014 1.014 0 0 1 .346-.061 1 1 0 0 1 .6.2l2.639 1.981 3.679.094a1.041 1.041 0 0 1 .307.057l3.382 1.191a1 1 0 0 1 .606.6l1.567 4.221a10.17 10.17 0 0 0 4.65 1.1c.368 0 .743-.012 1.141-.023.473-.015.978-.031 1.538-.031a33.025 33.025 0 0 1 7.323.876 1 1 0 0 1 .786.9c.493 6.047.344 14.178-3.16 18.579a1 1 0 0 1 -.783.377c-.027 0-2.473-.207-2.473-.207z" fill="#fafafa"/><path d="m279.837 105.889 2.9 2.173 4 .1 3.384 1.191 1.71 4.608a11.443 11.443 0 0 0 5.445 1.369c.805 0 1.644-.054 2.678-.054a32.35 32.35 0 0 1 7.111.854c.446 5.46.427 13.641-2.945 17.875l-2.391-.2-10.64-6.608-8.029 1.225 1.583-7.3 2.489 1.818-1.525-6.18.484-3.72-4.163-1.672-2.85-2.084.766-3.4m0-2a2 2 0 0 0 -1.95 1.56l-.766 3.4a2 2 0 0 0 .771 2.054l2.85 2.083a1.949 1.949 0 0 0 .435.242l2.725 1.094-.284 2.184a1.989 1.989 0 0 0 .042.737l.48 1.945a2.027 2.027 0 0 0 -.213.068 2 2 0 0 0 -1.244 1.446l-1.59 7.303a2 2 0 0 0 1.954 2.424 1.929 1.929 0 0 0 .3-.023l7.3-1.113 10.013 6.218a1.994 1.994 0 0 0 .887.294l2.391.2c.057 0 .113.007.169.007a2 2 0 0 0 1.564-.754c3.708-4.656 3.882-13.057 3.374-19.284a2 2 0 0 0 -1.571-1.792 33.919 33.919 0 0 0 -7.533-.9c-.573 0-1.087.016-1.569.031-.388.012-.752.023-1.11.023a8.668 8.668 0 0 1 -3.86-.848l-1.42-3.825a2 2 0 0 0 -1.211-1.191l-3.384-1.19a1.972 1.972 0 0 0 -.613-.113l-3.359-.086-2.385-1.79a2 2 0 0 0 -1.2-.4z" fill="#111"/><path d="m274.81 126.067a1 1 0 0 1 -.606-.2l-1.807-1.375a1 1 0 0 1 .467-1.786l3.418-.479a.929.929 0 0 1 .139-.01 1 1 0 0 1 1 .964l.045 1.229a1 1 0 0 1 -.646.972l-1.656.625a1 1 0 0 1 -.354.06z" fill="#fafafa"/><path d="m276.421 123.213.045 1.229-1.656.626-1.81-1.376 3.418-.479m0-2a2 2 0 0 0 -.278.019l-3.418.479a2 2 0 0 0 -.933 3.572l1.807 1.376a2 2 0 0 0 1.918.28l1.656-.626a2 2 0 0 0 1.292-1.945l-.046-1.229a2 2 0 0 0 -2-1.926z" fill="#111"/><path d="m272.253 122.767a1 1 0 0 1 -.9-.66l-.743-2.054a1 1 0 0 1 .872-1.338s8.062-.552 8.084-.552a1 1 0 0 1 1 1.084l-.154 1.83a1 1 0 0 1 -.692.869l-3.011.961a1.006 1.006 0 0 1 -.3.047z" fill="#fafafa"/><path d="m279.57 119.163-.154 1.831-3.011.96-4.108-.186-.743-2.055zm0-2c-.045 0-.091 0-.137.005l-8.015.55a2 2 0 0 0 -1.744 2.675l.743 2.055a2 2 0 0 0 1.79 1.318l4.107.186h.091a2.026 2.026 0 0 0 .608-.094l3.011-.961a2 2 0 0 0 1.385-1.737l.154-1.831a2 2 0 0 0 -1.993-2.168z" fill="#111"/><path d="m271.054 119.445a1 1 0 0 1 -1-1v-3.675a1 1 0 0 1 1-1l8.43.091a1 1 0 0 1 .982.875l.274 2.176a1 1 0 0 1 -.683 1.076l-3.779 1.227a1 1 0 0 1 -.271.048z" fill="#fafafa"/><path d="m271.055 114.77 8.42.092.274 2.175-3.779 1.226-4.916.183v-3.676m0-2a2 2 0 0 0 -2 2v3.676a2 2 0 0 0 2 2h.074l4.916-.182a2.012 2.012 0 0 0 .544-.1l3.779-1.227a2 2 0 0 0 1.367-2.153l-.275-2.175a2 2 0 0 0 -1.963-1.749l-8.419-.092z" fill="#111"/><path d="m271.852 114.336a1 1 0 0 1 -.649-1.707l1.875-1.864a1 1 0 0 1 .705-.291l4.783.25a1 1 0 0 1 .944 1.083l-.166 1.978a1 1 0 0 1 -1 .916c-.015-.001-6.492-.365-6.492-.365z" fill="#fafafa"/><path d="m273.783 111.473 4.731.25-.167 1.978-6.439-.363zm0-2a2 2 0 0 0 -1.41.582l-1.873 1.865a2 2 0 0 0 1.3 3.415l6.439.363q.057 0 .114 0a2 2 0 0 0 1.991-1.832l.167-1.978a2 2 0 0 0 -1.888-2.165l-4.731-.25q-.052 0-.1 0z" fill="#111"/><path d="m355.031 199.28a1 1 0 0 1 -.875-1.484c.532-1.122 2.834-12.8 4.21-19.783.941-4.772 1.684-8.54 1.98-9.733a1 1 0 0 1 .97-.759h.039c.519.021.946.036 1.324.036a6.765 6.765 0 0 0 2.4-.391.987.987 0 0 1 .308-.049 1 1 0 0 1 .985 1.169l-.083.488c-1.039 6.082-4.2 24.592-10.591 30.254a1 1 0 0 1 -.667.252z" fill="#fafafa"/><path d="m365.383 168.118c-.883 5.142-4.038 24.569-10.352 30.162.85-1.486 5.468-26.467 6.285-29.758.535.021.974.036 1.363.036a7.707 7.707 0 0 0 2.7-.44m0-2a2 2 0 0 0 -.615.1 5.745 5.745 0 0 1 -2.088.343c-.366 0-.78-.015-1.284-.035h-.079a2 2 0 0 0 -1.941 1.517c-.3 1.217-1.047 5-1.991 9.785-1.336 6.777-3.567 18.093-4.135 19.549a2 2 0 0 0 3.108 2.4c6.656-5.895 9.86-24.666 10.914-30.834l.083-.486a2 2 0 0 0 -1.972-2.339z" fill="#111"/><path d="m348.3 167.887a1 1 0 0 1 -1-1.056l.947-17.12-2.89 16.889a1 1 0 0 1 -.984.831h-.042c-3.393-.14-5.765-1.835-7.857-3.33-.324-.231-.643-.459-.96-.677a1 1 0 0 1 -.428-.934l.786-7.124a1 1 0 0 1 1.218-.865l2.558.586-2.611-1.258a1 1 0 0 1 -.564-.956l.446-8.111a1 1 0 0 1 1-.946.936.936 0 0 1 .158.013l.971.155-.622-.166a1 1 0 0 1 -.688-1.291c.423-1.233.814-2.614 1.227-4.076 1.346-4.757 2.87-10.149 6.384-13.423a1 1 0 0 1 .681-.268 1.063 1.063 0 0 1 .225.025 79.8 79.8 0 0 0 17.887 2.09 73.836 73.836 0 0 0 22.03-3.376 1 1 0 0 1 1.223.572l5.838 14.153a1 1 0 0 1 -.46 1.267l-1.131.593 1-.408a.99.99 0 0 1 .378-.074 1 1 0 0 1 .952.694l2.336 7.283a1 1 0 0 1 -.475 1.185l-.077.042a.985.985 0 0 1 .247-.032 1 1 0 0 1 .949.685l2.846 8.557a1 1 0 0 1 -.538 1.226l-10.235 4.619a.982.982 0 0 1 -.411.089 1 1 0 0 1 -.982-.812l-2.323-12.182 1.7 12.346a1 1 0 0 1 -.781 1.114 147.006 147.006 0 0 1 -16.987 2.492c-.031 0-.1 0-.1 0a.952.952 0 0 1 -.105.016c-7.287.71-15.494.962-20.308.962z" fill="#fafafa"/><path d="m386.467 124.451 5.84 14.153-4.969 2.6.159 1.645 5.521-2.25 2.336 7.283-5.9 3.206.032 1.9 6.514-3.216 2.845 8.557-10.234 4.619-4.958-25.99-1.614-2.336 3.981 28.814a146.486 146.486 0 0 1 -16.87 2.474l-.053-.478-.159.5c-6.628.645-14.665.956-20.215.956h-.423l1.518-27.434-.573-1.486-4.873 28.463c-3.6-.149-5.988-2.251-8.292-3.833l.786-7.123 5.563 1.274.616-1.136-5.574-2.686.446-8.112 6.359 1.02.1-1.466-5.691-1.518c1.805-5.255 2.994-13.037 7.347-17.093a80.5 80.5 0 0 0 18.112 2.116 74.489 74.489 0 0 0 22.327-3.422m0-2a2.027 2.027 0 0 0 -.6.091 72.828 72.828 0 0 1 -21.731 3.331 78.813 78.813 0 0 1 -17.663-2.065 2 2 0 0 0 -1.812.486c-3.718 3.464-5.283 9-6.664 13.882-.409 1.449-.8 2.817-1.211 4.025a2.005 2.005 0 0 0 -.075 1.015l-.053.041a2 2 0 0 0 -.742 1.448l-.446 8.111a2 2 0 0 0 .224 1.034 2 2 0 0 0 -.82 1.4l-.786 7.124a2 2 0 0 0 .856 1.868c.313.215.628.44.947.668 2.1 1.5 4.705 3.362 8.394 3.514h.084a2 2 0 0 0 1.928-1.473 2 2 0 0 0 1.993 1.93h.43c4.839 0 13.087-.253 20.409-.965l.111-.014.093-.007a147.808 147.808 0 0 0 17.1-2.509 1.994 1.994 0 0 0 1.154-.722c.031.018.063.036.095.052a2 2 0 0 0 1.745.049l10.234-4.619a2 2 0 0 0 1.075-2.454l-2.845-8.557a2 2 0 0 0 -.582-.875 2 2 0 0 0 -.059-.994l-2.336-7.283a2 2 0 0 0 -.662-.957 1.985 1.985 0 0 0 -.105-1.191l-5.839-14.152a2 2 0 0 0 -1.848-1.238z" fill="#111"/><path d="m365.585 69.316c-2.708 0-6.112-1.45-7.355-4.628-2.73-2.347-7.475-9.884-7.5-13.522a1.019 1.019 0 0 1 .112-.465 5.264 5.264 0 0 1 2.4-2.037c.061-.174.134-.443.182-.623a3.848 3.848 0 0 1 .62-1.5c.13-.427.361-1.727.549-2.789.569-3.207 1.018-5.547 1.63-6.446a16.792 16.792 0 0 1 4.857-4.332 9.335 9.335 0 0 0 1.729-1.306 1 1 0 0 1 1.094-.323c4.951 1.641 8.7 4.727 11.789 9.712a62.828 62.828 0 0 1 3.808 7.33 1 1 0 0 1 .091.416c0 5.346-3.064 9.489-6.027 13.495-.483.653-.964 1.3-1.431 1.959-.389.545-.693 1.06-.986 1.559a6.542 6.542 0 0 1 -2.225 2.611 5.965 5.965 0 0 1 -3.336.89z" fill="#fafafa"/><path d="m363.588 32.293c5.109 1.694 8.531 4.9 11.254 9.29a62.18 62.18 0 0 1 3.748 7.217c0 5.86-4 10.288-7.273 14.874-1.221 1.709-1.656 3.164-2.9 3.885a5.083 5.083 0 0 1 -2.834.756c-2.556 0-5.546-1.4-6.509-4.227-2.612-2.046-7.324-9.713-7.347-12.931a4.441 4.441 0 0 1 2.134-1.667c.436-.159.584-2.049 1-2.357s1.264-7.909 2.187-9.268c2.049-2.994 5.542-4.332 6.54-5.574m0-2a2 2 0 0 0 -1.56.747 10.753 10.753 0 0 1 -1.5 1.1 17.634 17.634 0 0 0 -5.13 4.6c-.73 1.074-1.163 3.3-1.791 6.839-.153.867-.356 2.011-.479 2.516a5.273 5.273 0 0 0 -.671 1.689c-.014.053-.03.112-.046.174a5.955 5.955 0 0 0 -2.46 2.288 1.994 1.994 0 0 0 -.221.93c.027 3.854 4.718 11.422 7.663 14.109 1.482 3.454 5.214 5.035 8.192 5.035a7.042 7.042 0 0 0 3.9-1.062 7.515 7.515 0 0 0 2.523-2.932c.282-.48.574-.977.937-1.484.464-.652.943-1.3 1.422-1.947 3.059-4.136 6.223-8.413 6.223-14.09a2 2 0 0 0 -.181-.831 65 65 0 0 0 -3.873-7.452c-3.219-5.186-7.135-8.406-12.318-10.124a1.986 1.986 0 0 0 -.629-.1z" fill="#111"/><path d="m356.643 79.4a.947.947 0 0 1 -.159-.013l-.6-.095c-2.8-.433-6.255-.969-7.862-4.286-1.675-1.172-2.7-4.16-2.318-6.9a5.708 5.708 0 0 1 4.525-5.088.984.984 0 0 1 .215-.024 1 1 0 0 1 .948 1.322 13.841 13.841 0 0 0 -.52 3.517c.506 1.442 3.806 3.766 5.215 4.758a10.318 10.318 0 0 1 1.124.846 8.974 8.974 0 0 1 1.743 3.189c.127.335.236.631.341.843a1.283 1.283 0 0 1 -.052 1.267 1.218 1.218 0 0 1 -1.062.515 4.149 4.149 0 0 1 -.516-.046 3.489 3.489 0 0 0 -.373-.038 1 1 0 0 1 -.649.233z" fill="#fafafa"/><path d="m350.44 63.987a12.8 12.8 0 0 0 -.53 4.126c.81 2.319 6.067 5.5 6.589 6.023 1 .988 1.486 2.951 1.9 3.772.1.266-.007.336-.22.336-.233 0-.587-.084-.909-.084a.738.738 0 0 0 -.624.236c-2.973-.477-6.422-.788-7.842-4.082-2.563-1.387-3.794-9.125 1.639-10.327m0-2a1.994 1.994 0 0 0 -.433.047 6.665 6.665 0 0 0 -5.3 5.925c-.375 2.676.478 6.106 2.522 7.707 1.877 3.585 5.681 4.174 8.494 4.61l.6.095a2.009 2.009 0 0 0 1.2-.181 4.838 4.838 0 0 0 .647.054 2.184 2.184 0 0 0 2.08-3.07 1.649 1.649 0 0 0 -.072-.161c-.071-.142-.187-.45-.3-.748a9.764 9.764 0 0 0 -1.98-3.551 10.144 10.144 0 0 0 -1.248-.947c-2.794-1.968-4.409-3.374-4.8-4.183a15.5 15.5 0 0 1 .481-2.956 2 2 0 0 0 -1.894-2.641z" fill="#111"/><path d="m355.234 71.648c-.9 0-3.091-.175-4.064-1.8a.911.911 0 0 1 -.051-.1 4.841 4.841 0 0 1 .654-4.407 3.561 3.561 0 0 1 2.785-1.905 2.06 2.06 0 0 1 1.3.461.993.993 0 0 1 .378.782v5.97a1 1 0 0 1 -1.002.999z" fill="#fafafa"/><path d="m354.558 64.435a1.063 1.063 0 0 1 .676.243v5.971c-1.1 0-2.584-.278-3.2-1.317-.816-1.786 1.009-4.9 2.529-4.9m0-2a4.518 4.518 0 0 0 -3.627 2.367 5.833 5.833 0 0 0 -.722 5.361 2.013 2.013 0 0 0 .1.2c.87 1.456 2.665 2.291 4.922 2.291a2 2 0 0 0 2-2v-5.973a2 2 0 0 0 -.755-1.565 3.056 3.056 0 0 0 -1.921-.678z" fill="#111"/><path d="m364.163 79.676c-3.174 0-4.975-1.45-5.355-4.311a4.219 4.219 0 0 0 -.676-.837 3.653 3.653 0 0 1 -1.04-1.572l-.061-.238c-.4-1.575-1.152-4.507-.387-6.465a1 1 0 0 1 .663-.6.979.979 0 0 1 .268-.037 1 1 0 0 1 .609.207l.434.333c2.6 2 4.309 3.317 6.8 3.317a11.81 11.81 0 0 0 3.582-.661 19.011 19.011 0 0 1 1.9-1.7 28.818 28.818 0 0 0 3.834-3.608 1.294 1.294 0 0 1 1.026-.52c.92 0 1.409.881 1.975 1.9.165.3.331.6.5.849a1 1 0 0 1 -.256 1.372l-.56.393c-2.522 1.766-6.313 4.417-7.058 7.352l.317 3.094a1 1 0 0 1 -.931 1.1c-.574.037-1.268.144-2 .258a24.03 24.03 0 0 1 -3.584.374z" fill="#fafafa"/><path d="m375.755 63.987c.481 0 1.057 1.43 1.642 2.307-2.673 1.886-7.266 4.881-8.053 8.5l.333 3.261c-1.521.1-3.63.624-5.514.624-2.176 0-4.054-.7-4.381-3.575-.355-.942-1.531-1.619-1.719-2.384-.322-1.276-1.176-4.338-.488-6.1 2.948 2.263 4.863 3.857 7.847 3.857a13.116 13.116 0 0 0 4.177-.807c.543-.854 4.1-3.272 5.912-5.535a.313.313 0 0 1 .244-.144m0-2a2.307 2.307 0 0 0 -1.818.911 28.15 28.15 0 0 1 -3.681 3.447c-.842.7-1.411 1.182-1.811 1.593a10.451 10.451 0 0 1 -3.023.535c-2.064 0-3.467-1.01-6.2-3.11l-.433-.334a2 2 0 0 0 -3.082.86c-.88 2.259-.079 5.4.352 7.079l.061.238a4.553 4.553 0 0 0 1.282 2.01c.14.148.336.355.442.5.329 2.014 1.614 4.963 6.315 4.963a24.7 24.7 0 0 0 3.726-.38c.713-.11 1.387-.214 1.916-.248a2 2 0 0 0 1.861-2.2l-.3-2.907c.763-2.524 4.408-5.074 6.617-6.619l.563-.395a2 2 0 0 0 .511-2.743c-.137-.2-.3-.5-.456-.781-.629-1.133-1.341-2.417-2.849-2.417z" fill="#111"/><path d="m374.192 79.12a6.432 6.432 0 0 1 -2.211-.418 1 1 0 0 1 -.581-.563c-2.347-5.81.5-7.549 2.784-8.947 2.04-1.248 3.514-2.149 2.444-5.729a1 1 0 0 1 .958-1.286.977.977 0 0 1 .108.006c3 .328 4.994 1.453 5.923 3.343 1.186 2.416.246 5.505-1.029 7.59a.982.982 0 0 1 -.278.3 13.47 13.47 0 0 0 -2.021 1.979c-1.571 1.744-3.352 3.725-6.097 3.725z" fill="#fafafa"/><path d="m377.586 63.177c7.415.81 5.878 6.589 4.148 9.418-2.281 1.606-4.107 5.525-7.541 5.525a5.388 5.388 0 0 1 -1.865-.356c-3.927-9.717 7.931-5.646 5.258-14.587m0-2a2 2 0 0 0 -1.916 2.573c.85 2.842.014 3.354-2.007 4.589-2.331 1.425-5.854 3.578-3.189 10.174a2 2 0 0 0 1.164 1.128 7.416 7.416 0 0 0 2.556.479c3.19 0 5.215-2.252 6.841-4.062a12.925 12.925 0 0 1 1.851-1.828 2 2 0 0 0 .555-.592c1.414-2.312 2.439-5.773 1.074-8.552-.749-1.526-2.521-3.44-6.711-3.9a2 2 0 0 0 -.218-.012z" fill="#111"/><path d="m388.116 111.575a1.017 1.017 0 0 1 -.243-.03c-8.93-2.24-14.43-6.638-16.349-13.072a1.084 1.084 0 0 1 -.034-.16l-.174-1.334c-.741-5.644-1.276-9.723.959-17.312a1 1 0 0 1 .753-.7c1.986-.418 3.376-1.778 4.986-3.352a18.935 18.935 0 0 1 5.317-4.026.994.994 0 0 1 .418-.092.969.969 0 0 1 .186.018c5.989 1.131 17.676 9.325 20.193 13.467a1 1 0 0 1 -.649 1.5c-8.363 1.754-10.425 9.826-12.42 17.63a61.676 61.676 0 0 1 -2.01 6.823 1 1 0 0 1 -.933.64z" fill="#fafafa"/><path d="m383.749 72.5c5.6 1.059 17.148 9.092 19.525 13-11.78 2.47-11.95 16.784-15.158 25.069-6.722-1.686-13.444-5.048-15.633-12.388-.818-6.379-1.592-10.281.752-18.238 4.212-.886 5.937-5.34 10.514-7.448m0-2a2.007 2.007 0 0 0 -.837.183 19.739 19.739 0 0 0 -5.6 4.22c-1.56 1.526-2.792 2.731-4.491 3.088a2 2 0 0 0 -1.507 1.392c-2.3 7.794-1.748 11.962-.99 17.731l.173 1.326a2.031 2.031 0 0 0 .067.317c2.027 6.8 7.768 11.425 17.063 13.757a2 2 0 0 0 2.352-1.217 62.346 62.346 0 0 0 2.047-6.936c1.919-7.509 3.9-15.273 11.656-16.9a2 2 0 0 0 1.3-2.995c-2.6-4.288-14.68-12.764-20.863-13.932a1.934 1.934 0 0 0 -.371-.035z" fill="#111"/><path d="m366.825 126.021a1 1 0 0 1 -1-.938c-.936-15.108-2-32.233-.707-44.354a1 1 0 0 1 .993-.894h.076c.172.013.331.018.478.018a6.031 6.031 0 0 0 1.279-.147 4.86 4.86 0 0 1 .98-.125 3.04 3.04 0 0 1 1.407.358 1 1 0 0 1 .549.946c-.661 12.508-.012 26.213 16.16 30.5a1 1 0 0 1 .743.966 50.438 50.438 0 0 1 -1.432 8.787c-.12.536-.226 1.014-.309 1.41a1 1 0 0 1 -.621.727c-6.358 2.435-10.823 2.543-16 2.669-.832.02-1.684.04-2.568.072z" fill="#fafafa"/><path d="m368.926 80.584a2.044 2.044 0 0 1 .958.251c-.622 11.78-.476 26.912 16.9 31.521 0 2.7-1.242 7.718-1.72 9.99-7.209 2.761-11.923 2.453-18.24 2.676-.955-15.416-1.985-32.211-.711-44.187.2.015.382.022.553.022 1.1 0 1.66-.273 2.258-.273m0-2a5.819 5.819 0 0 0 -1.174.144 5.01 5.01 0 0 1 -1.084.129c-.124 0-.257 0-.4-.016q-.077-.006-.153-.006a2 2 0 0 0 -1.987 1.788c-1.3 12.21-.235 29.377.7 44.523a2 2 0 0 0 2 1.876h.072c.88-.031 1.729-.052 2.558-.072 5.263-.128 9.808-.239 16.326-2.735a2 2 0 0 0 1.242-1.456c.082-.391.188-.865.3-1.395a50.017 50.017 0 0 0 1.458-9.007 2 2 0 0 0 -1.487-1.933c-15.447-4.1-16.087-16.811-15.418-29.483a2 2 0 0 0 -1.1-1.891 4.05 4.05 0 0 0 -1.858-.465z" fill="#111"/><path d="m359.359 126.349a61.475 61.475 0 0 1 -9.04-.879c-1.685-.25-3.277-.486-4.84-.63a1 1 0 0 1 -.856-.679 22.079 22.079 0 0 1 -.879-8.922 1 1 0 0 1 .36-.721c7.275-6.05 11.877-11.961 14.065-18.067.584-5.467 1-10.3 1.149-16.088a1 1 0 0 1 1.614-.764c.021.016.054.043.189.043a3.365 3.365 0 0 0 .56-.071 5.424 5.424 0 0 1 .923-.1 2.474 2.474 0 0 1 1.068.224 1 1 0 0 1 .57.791c.553 4.777.36 12.537.154 20.753-.218 8.781-.445 17.86.25 23.654a1 1 0 0 1 -.83 1.105 26.91 26.91 0 0 1 -4.457.351z" fill="#fafafa"/><path d="m360.318 80.389a1.252 1.252 0 0 0 .8.252c.477 0 .99-.17 1.484-.17a1.488 1.488 0 0 1 .645.131c1.136 9.82-.945 33.145.4 44.409a26.051 26.051 0 0 1 -4.294.337c-4.8 0-9.461-1.1-13.786-1.5a21.207 21.207 0 0 1 -.828-8.557c6.306-5.244 11.859-11.4 14.407-18.611.594-5.552 1.019-10.447 1.167-16.286m0-2a2 2 0 0 0 -2 1.949c-.145 5.706-.557 10.493-1.132 15.887-2.142 5.893-6.633 11.628-13.722 17.524a2 2 0 0 0 -.719 1.443 23.181 23.181 0 0 0 .929 9.286 2 2 0 0 0 1.712 1.357c1.534.142 3.112.376 4.782.623a62.045 62.045 0 0 0 9.189.89 27.834 27.834 0 0 0 4.623-.364 2 2 0 0 0 1.657-2.21c-.685-5.722-.46-14.763-.242-23.507.206-8.253.4-16.049-.161-20.895a2 2 0 0 0 -1.141-1.583 3.5 3.5 0 0 0 -1.49-.318 6.237 6.237 0 0 0 -1.092.115c-.077.013-.17.029-.249.04a2 2 0 0 0 -.945-.237z" fill="#111"/><path d="m343.821 113.9a1 1 0 0 1 -1-.922c-.983-12.78-6.859-19.636-18.492-21.579a1 1 0 0 1 -.735-1.421c3.23-6.684 11.623-17.032 21.5-18.142a1.032 1.032 0 0 1 .111-.006 1 1 0 0 1 .834.448c.291.441.567.911.851 1.4 1.692 2.888 3.442 5.874 10.707 5.874a1 1 0 0 1 1 .9c1.134 11.645-2.025 26.514-14.293 33.322a1 1 0 0 1 -.483.126z" fill="#fafafa"/><path d="m345.212 72.83c2.036 3.076 3.3 7.719 12.393 7.719 1.237 12.7-2.639 26.166-13.784 32.352-1.021-13.237-7.193-20.463-19.321-22.488 2.836-5.868 10.872-16.477 20.715-17.583m0-2a1.882 1.882 0 0 0 -.224.013c-10.286 1.157-18.968 11.816-22.291 18.7a2 2 0 0 0 1.471 2.843c11.258 1.879 16.7 8.254 17.659 20.668a2 2 0 0 0 2.965 1.595c12.691-7.044 15.969-22.334 14.8-34.294a2 2 0 0 0 -1.991-1.806c-6.694 0-8.224-2.614-9.845-5.38-.279-.478-.569-.972-.881-1.443a2 2 0 0 0 -1.667-.9z" fill="#111"/><path d="m375.625 62.706a1 1 0 0 1 -.811-1.586c2.177-3.011 4.8-7.238 5.025-9.245l.032-.275c.165-1.422.392-3.369-.445-4.436a1 1 0 0 1 .651-1.608 3.142 3.142 0 0 1 2.967 1.222 4.309 4.309 0 0 0 .664.584 1 1 0 0 1 .457.816c.01.053.027.122.043.189a1.868 1.868 0 0 1 .078.762 6.621 6.621 0 0 0 .328 2.062 8.146 8.146 0 0 1 .386 2.779c-.3 2.744-1.937 4.085-4.216 5.68l-4.628 2.9a1 1 0 0 1 -.531.156z" fill="#fdda2a"/><path d="m380.546 46.523c1.256 0 1.684 1.073 2.619 1.679-.018.116.152.658.135.763-.217 1.327.865 3.5.707 4.892-.256 2.336-1.654 3.475-3.8 4.974l-4.586 2.875c1.438-1.988 4.913-7.1 5.208-9.719.18-1.585.535-3.967-.621-5.44a2.465 2.465 0 0 1 .334-.024m0-2a4.457 4.457 0 0 0 -.6.042 2 2 0 0 0 -1.3 3.217c.584.743.377 2.525.239 3.7l-.032.275c-.163 1.451-2.153 5.057-4.841 8.773a2 2 0 0 0 2.683 2.866l4.586-2.874.084-.056c2.416-1.69 4.291-3.234 4.638-6.394a8.861 8.861 0 0 0 -.412-3.128 7.587 7.587 0 0 1 -.309-1.66 2.787 2.787 0 0 0 -.092-1.147c-.008-.033-.016-.067-.023-.1a2 2 0 0 0 -.907-1.519 3.758 3.758 0 0 1 -.5-.451 4.36 4.36 0 0 0 -3.206-1.549z" fill="#111"/><path d="m381.228 45.255a.947.947 0 0 1 -.218-.025l-1.709-.381a.994.994 0 0 1 -.624-.437 46.5 46.5 0 0 0 -7.551-9.333 30.011 30.011 0 0 0 -6.352-4.87 1 1 0 0 1 -.546-.892 11.685 11.685 0 0 0 -.089-1.2c-.122-1.139-.248-2.318.759-2.791a4.082 4.082 0 0 1 1.7-.353c2.289 0 5.3 1.687 8.482 4.754 2.228 2.154 7.333 7.5 6.986 10.916l.156 3.571a1 1 0 0 1 -1 1.044z" fill="#fdda2a"/><path d="m366.6 25.969c2.078 0 4.891 1.68 7.788 4.474 3.536 3.419 7 7.771 6.678 10.16l.159 3.652-1.709-.382a47.415 47.415 0 0 0 -7.708-9.523 31.013 31.013 0 0 0 -6.582-5.032c0-1.3-.446-2.835.095-3.09a3.062 3.062 0 0 1 1.279-.259m0-2a5.064 5.064 0 0 0 -2.106.438c-1.675.789-1.48 2.609-1.351 3.814.041.381.083.775.083 1.1a2 2 0 0 0 1.093 1.782 29.292 29.292 0 0 1 6.126 4.713 45.517 45.517 0 0 1 7.387 9.139 2 2 0 0 0 1.248.873l1.709.382a1.961 1.961 0 0 0 .436.048 2 2 0 0 0 2-2.087l-.153-3.507c.3-3.712-4.418-8.876-7.292-11.656-2.385-2.3-5.91-5.036-9.179-5.036z" fill="#111"/><path d="m352.188 63.257a7.448 7.448 0 0 1 -4.019-1.286c-3.515-2.508-5.613-9.382-3.006-13.563a1.038 1.038 0 0 1 .195-.228c1.621-1.4 1.784-3.626 1.955-5.986a14.416 14.416 0 0 1 1.07-5.341 16.8 16.8 0 0 1 14.4-11.74h.064a1 1 0 0 1 1 1.091l-.329 3.62a1 1 0 0 1 -.472.761c-7.526 4.635-7.623 5.991-7.815 8.694a19.071 19.071 0 0 1 -2.042 7.734 13.423 13.423 0 0 1 -1.95 2.869c-1.217 1.462-1.72 2.067-.5 4.1l.209.353a23.7 23.7 0 0 0 3.66 5.022 1 1 0 0 1 .13.145 2.179 2.179 0 0 1 .351 2.377 3.043 3.043 0 0 1 -2.901 1.378z" fill="#fdda2a"/><path d="m362.85 26.111-.329 3.621c-12.521 7.707-5.638 7.219-10.235 16.848-1.677 3.5-4.736 4.026-2.411 7.912a26.19 26.19 0 0 0 4.053 5.6c.942 1.271-.08 2.162-1.741 2.162a6.47 6.47 0 0 1 -3.468-1.12c-3.153-2.251-4.958-8.589-2.707-12.2 3.3-2.845 1.5-8.1 3.3-11.71a15.923 15.923 0 0 1 13.538-11.113m0-2c-.042 0-.085 0-.127 0a17.819 17.819 0 0 0 -15.271 12.367 15.368 15.368 0 0 0 -1.137 5.64c-.162 2.24-.3 4.175-1.609 5.3a1.986 1.986 0 0 0 -.391.457c-2.922 4.685-.659 12.1 3.242 14.885l.062.042a8.457 8.457 0 0 0 4.568 1.45 3.99 3.99 0 0 0 3.789-1.93 3.2 3.2 0 0 0 -.441-3.423 2.026 2.026 0 0 0 -.26-.288 22.9 22.9 0 0 1 -3.47-4.79l-.214-.36c-.851-1.423-.756-1.538.416-2.945a14.3 14.3 0 0 0 2.083-3.076 19.961 19.961 0 0 0 2.138-8.1c.173-2.436.252-3.548 7.341-7.913a2 2 0 0 0 .944-1.522l.329-3.621a2 2 0 0 0 -1.992-2.181z" fill="#111"/><path d="m363.588 55.532a.968.968 0 0 1 -.945-.977c-.095-.828.446-1.72 1.243-.52.254.372.446 1.497-.298 1.497zm2.235 0a.967.967 0 0 0 .945-.977c.1-.828-.446-1.72-1.242-.52-.255.372-.446 1.497.297 1.497zm5.271 1.953c-2.208 1.763-2.3.319-4.416-.106a1.266 1.266 0 0 0 -1.6.807c-.637-.52-.882-.775-1.391-.722-1.54.138-2.729 2.081-4.756 1.072a1.642 1.642 0 0 0 1.55 1.657c1.507.244 3.673-1.136 4.9-.308 1.656-2.368 3.312 2.41 6.009-1.349.299-.456-.147-.605-.296-1.051zm-3.822-11.385c-.5.135-.531 1.4-.382 2.378.446.064 5.956.648 8.1-1.051-.902.004-2.255-2.796-7.718-1.327zm3.759-3.684c-1.455-.106-3.78.266-4.374 1.1l3.907.414 3.588.107a5.785 5.785 0 0 0 -3.121-1.617zm-8.377 18.3c.956 1.327 1.624 1.985 2.219 1.964 1.592-.053 1.688-.966 3.015-1.933-1.088.582-4.332 1.053-5.234-.023zm-5.712-17.752a2.9 2.9 0 0 0 -.711 1.943c.7-.159.913-.69 1.752-.87 1.4-.3 2.686.021 3.917-.2a3.326 3.326 0 0 0 -4.958-.865zm-.582 3.489a3.256 3.256 0 0 0 -1.126 1.519 10.5 10.5 0 0 0 5.946.759c.732-.13 1.157-.982 2.219-.713-1.051-2.511-4.693-2.724-7.039-1.557z" fill="#111"/><path d="m390.55 170.4c15.921 85.078 62.25 101.765 62.25 101.765s37.158-32.312 21.236-117.386z" fill="#fdda2a" stroke="#111" stroke-width="2"/><path d="m450.378 259.231a75.5 75.5 0 0 1 -17.713-14.315c-10.327-11.063-22.77-31.339-30.513-65.343l64.381-12.049c5.077 34.5.81 57.906-4.818 71.955a75.5 75.5 0 0 1 -11.337 19.752z" fill="#cc3026" stroke="#111" stroke-width="2"/><g fill="#111"><circle cx="451.475" cy="265.094" r="1.062"/><circle cx="403.04" cy="199.632" r="1.062"/><circle cx="428.277" cy="246.754" r="1.062"/><circle cx="412.945" cy="223.7" r="1.062"/><circle cx="420.746" cy="170.395" r="1.062"/><circle cx="396.788" cy="174.879" r="1.062"/><circle cx="472.958" cy="186.546" r="1.062"/><circle cx="466.471" cy="239.606" r="1.062"/><circle cx="472.428" cy="212.568" r="1.062"/><circle cx="445.878" cy="165.692" r="1.062"/><circle cx="469.836" cy="161.208" r="1.062"/></g><path d="m460.332 205.922a69.742 69.742 0 0 1 -12.823 4.1l-2.311.432-1.644-8.784.412-.077a69.7 69.7 0 0 1 13.439-.812 16.282 16.282 0 0 1 -2.039-10.879 69.813 69.813 0 0 1 -12.825 4.1l-.412.077-.1-.558a68.8 68.8 0 0 1 -.792-13.383 16.527 16.527 0 0 1 -10.938 2.047 68.915 68.915 0 0 1 4.106 12.763l.1.558-.422.079a69.6 69.6 0 0 1 -13.43.81 16.283 16.283 0 0 1 2.037 10.88 69.547 69.547 0 0 1 12.814-4.1l.421-.079 1.644 8.784-2.311.432a69.778 69.778 0 0 1 -13.439.813 16.309 16.309 0 0 1 2.038 10.889 69.74 69.74 0 0 1 12.822-4.113l2.311-.432.734 3.927.1.558a68.8 68.8 0 0 1 .791 13.383 16.527 16.527 0 0 1 10.938-2.047 72.571 72.571 0 0 1 -3.954-12l-.982-5.249 2.311-.432a69.794 69.794 0 0 1 13.441-.8 16.309 16.309 0 0 1 -2.037-10.887z" fill="#fafafa" stroke="#111" stroke-width="2"/><path d="m429.906 169.761a1 1 0 0 1 -.992-.882l-.938-7.91-1.908-2.089.02 3.935a1 1 0 0 1 -.833.992l-5.4.913a1.062 1.062 0 0 1 -.167.013 1 1 0 0 1 -.89-1.456l1.451-2.831-.723-3.4a1.01 1.01 0 0 1 0-.417l1.074-5.029-5.255-13.738a1 1 0 0 1 .54-1.276l13.6-5.818a.982.982 0 0 1 .394-.081 1 1 0 0 1 1 .983l.145 8.765.639 1.212c2.209 4.206 4.494 8.554 8.14 11.812a1 1 0 0 1 .33.837l-.627 6.848a1 1 0 0 1 -.369.688l-1.518 1.221a1.007 1.007 0 0 1 -.929.174l-.052.278a1 1 0 0 1 -.486.686l-1.719.988a1 1 0 0 1 -.5.133.988.988 0 0 1 -.366-.07l-.019-.008-.384 3.529a1 1 0 0 1 -.947.89z" fill="#fafafa"/><path d="m429.876 131.687.148 9c2.548 4.8 4.916 9.767 9.109 13.515l-.626 6.848-1.518 1.221-.595-2.994-.743 4.045-1.72.987-.955-3.079-.807 7.421-2.262.106-.976-8.228-3.875-4.246.032 6.534-5.4.913 1.613-3.148-.8-3.747 1.136-5.319-5.361-14.014 13.6-5.818m0-2a2 2 0 0 0 -.786.161l-13.6 5.818a2 2 0 0 0 -1.081 2.553l5.149 13.461-1.012 4.74a2 2 0 0 0 0 .833l.648 3.053-1.289 2.515a2 2 0 0 0 1.78 2.912 1.978 1.978 0 0 0 .333-.028l5.4-.913a2 2 0 0 0 1.667-1.982v-.869l.837 7.055a2 2 0 0 0 1.985 1.764h.095l2.262-.106a2 2 0 0 0 1.894-1.782l.286-2.625a1.969 1.969 0 0 0 .484-.2l1.72-.987a2.841 2.841 0 0 1 1.6-1.227l1.518-1.221a2 2 0 0 0 .739-1.376l.626-6.848a2 2 0 0 0 -.659-1.673c-3.511-3.138-5.653-7.216-7.922-11.533q-.262-.5-.528-1l-.141-8.523a2 2 0 0 0 -2-1.967z" fill="#111"/><g stroke="#111" stroke-width="3"><path d="m464 580-22-152h-144l-22 152h74v-104a20 20 0 0 1 40 0v104z" fill="#fafafa"/><path d="m340 580v-104a30 30 0 0 1 60 0v104" fill="none"/><g fill="#fafafa"><path d="m340 332h60v90h-60z"/><path d="m446 402-2 16h-14v-16h-12v16h-12v-16h-12v16h-48v-16h-12v16h-12v-16h-12v16h-14l-2-16h-12l4 32h168l4-32z"/><path d="m399 310-2.667 16h-16.333v-16h-20v16h-16.333l-2.667-16h-15l4 24h80l4-24z"/></g></g><g fill="#111"><path d="m353 352h10v20h-10z"/><path d="m310 456h16v24h-16z"/><path d="m377 352h10v20h-10z" transform="matrix(-1 0 0 -1 764 724)"/><path d="m414 456h16v24h-16z" transform="matrix(-1 0 0 -1 844 936)"/></g><path d="m249.5 580-248.5-289.5h62.5l186 214.5z" fill="#fafafa" stroke="#111" stroke-width="3"/><path d="m88 420 7.875 21.36 22.436-3.86-14.561 17.5 14.561 17.5-22.436-3.86-7.875 21.36-7.875-21.36-22.436 3.86 14.561-17.5-14.561-17.5 22.436 3.86z" fill="#fdda2a" stroke="#111" stroke-width="3"/><g fill="#fafafa"><path d="m188.494 310a34.909 34.909 0 0 0 -25.988 11.559 25.278 25.278 0 1 1 0 46.882 35 35 0 1 0 25.988-58.441z" stroke="#111" stroke-miterlimit="10" stroke-width="3"/><g id="b"><path d="m70 8.446-1.8 3.676c-5.356 10.955-16.519 24.15-28.372 27.231l-2.484.647 1.237 2.252a8.929 8.929 0 0 0 5.133 3.868 16.036 16.036 0 0 1 -2.959 2.027l-2.559 1.5 2.349 1.811a5.856 5.856 0 0 0 3.5.816 17.063 17.063 0 0 0 4.518-.639c-3.721 3.942-10.726 3.942-15.993 3.942h-2.134l.142 2.133c.241 3.611 3.127 6.349 7.573 7.385a6.853 6.853 0 0 1 -3.577 1.964l-2.667.506 1.274 2.4c1.161 2.184 4.1 3.437 8.068 3.437a20.479 20.479 0 0 0 2.861-.206l-.7.605c-3.7 3.21-9.288 8.06-13.644 8.567l-2.58.3.951 2.418c.926 2.353 4.025 3.8 6.922 4.429l-.365.26c-.414.3-.847.6-1.294.945l-1.99 1.511 1.917 1.609c1.977 1.66 5.23 1.908 6.994 1.908a18.15 18.15 0 0 0 3.14-.278 52.137 52.137 0 0 1 -9.8 5.435l-2.614 1.173 2 2.049c1.756 1.8 4.859 2.83 8.515 2.83a20.4 20.4 0 0 0 5.974-.911c-.351.309-.7.616-1.039.928l-1.725 1.582 1.831 1.457a9.625 9.625 0 0 0 5.887 1.682 14.239 14.239 0 0 0 5.883-1.184 11.789 11.789 0 0 0 3.792-3.178c.1.395.217.787.341 1.172v5.236a175.006 175.006 0 0 1 -1.318 24.094c-.163 1.493-.34 3.12-.532 4.957l-.23 2.208h19.148l-.231-2.208c-.192-1.837-.369-3.464-.532-4.957a175.006 175.006 0 0 1 -1.318-24.094v-5.236c.124-.385.238-.777.341-1.172a11.789 11.789 0 0 0 3.792 3.178 14.239 14.239 0 0 0 5.883 1.184 9.625 9.625 0 0 0 5.887-1.682l1.831-1.457-1.727-1.582c-.34-.312-.688-.619-1.039-.928a20.4 20.4 0 0 0 5.975.911c3.654 0 6.758-1.031 8.514-2.829l2-2.05-2.614-1.173a52.137 52.137 0 0 1 -9.8-5.435 18.15 18.15 0 0 0 3.14.278c1.764 0 5.017-.248 6.994-1.908l1.917-1.609-1.987-1.514c-.447-.34-.88-.649-1.294-.945l-.365-.26c2.9-.628 6-2.076 6.922-4.429l.952-2.418-2.581-.3c-4.356-.507-9.946-5.357-13.644-8.567l-.7-.605a20.479 20.479 0 0 0 2.861.206c3.967 0 6.907-1.253 8.068-3.437l1.274-2.4-2.667-.506a6.853 6.853 0 0 1 -3.577-1.964c4.446-1.036 7.332-3.774 7.573-7.385l.142-2.133h-2.138c-5.267 0-12.272 0-15.993-3.942a17.063 17.063 0 0 0 4.518.639 5.856 5.856 0 0 0 3.5-.816l2.349-1.81-2.559-1.5a16.036 16.036 0 0 1 -2.959-2.027 8.929 8.929 0 0 0 5.133-3.868l1.241-2.25-2.487-.647c-11.853-3.081-23.016-16.276-28.369-27.231z" fill="#111"/><path d="m30 84.351c6.084-.709 13.359-8.048 17.114-11.076 3.921 1.781 8.412 1.823 13.276.256-2.206 7.159-13.276 15.219-18.617 18.314l3.719.776c-1.815 1.428-8.506 1.68-10.879-.312 2.028-1.542 3.744-2.409 4.836-4.514-3.421.484-8.585-1.249-9.449-3.444zm40 34.129c-2.451-1.317-4.535-2.859-5.493-4.739 0 14.373-.635 17.531-1.861 29.259h14.708c-1.226-11.728-1.861-14.886-1.861-29.259-.958 1.88-3.042 3.422-5.493 4.739zm21.919-24.606c-3.817 1.324-9.51.283-13.876-3.514a12.45 12.45 0 0 1 -8.043 8.663 12.45 12.45 0 0 1 -8.043-8.663c-4.366 3.8-10.059 4.838-13.876 3.514-2.93 3.556-8.031 6.358-13.6 8.856 3.625 3.715 15.919 3.197 20.619-4.73-1.437 5.909-4.59 8-7.253 10.445 2.373 1.889 7.476 1.339 9.637.27 2.619-1.294 4.346-4.333 5.961-6.573.1 5.66 2.875 11.8 6.552 12.651 3.677-.848 6.453-6.991 6.552-12.651 1.615 2.24 3.342 5.279 5.961 6.573 2.161 1.07 7.264 1.619 9.637-.27-2.66-2.439-5.813-4.533-7.247-10.445 4.7 7.924 17 8.442 20.624 4.727-5.574-2.495-10.675-5.297-13.605-8.853zm.967-20.6c-3.921 1.781-8.412 1.823-13.276.256 2.206 7.16 13.276 15.22 18.617 18.315l-3.719.776c1.815 1.428 8.506 1.68 10.879-.312-2.028-1.542-3.744-2.409-4.836-4.514 3.421.484 8.585-1.249 9.449-3.444-6.084-.709-13.359-8.051-17.114-11.076zm-22.886 5.862c-4.248-.985-6.058-2.626-7.354-5.417-2.685 6.99-8.713 13.4-15.532 17.318 5.259 1.317 10.451 1.778 15.889-6 1.008 6.292 3.621 9.039 7 10.727 3.376-1.688 5.989-4.435 7-10.727 5.438 7.778 10.63 7.317 15.889 6-6.825-3.917-12.853-10.328-15.538-17.318-1.296 2.791-3.106 4.432-7.354 5.417zm-29.058-15.636c-.1 2.79-3.265 5.009-5.995 5.527 2.509 4.719 20.936 3.219 26.232-11.976-.51 7.785-5.118 11.762-10.767 14.519 4.491 1.182 10.053.237 13.251-2.982 0 4.1 4.166 6.956 6.337 7.668 2.171-.712 6.337-3.571 6.337-7.668 3.2 3.219 8.76 4.164 13.251 2.982-5.649-2.757-10.257-6.734-10.767-14.519 5.3 15.2 23.723 16.7 26.232 11.976-2.73-.518-5.9-2.737-5.995-5.527 4.368-.326 8.129-2.322 8.368-5.92-6.139 0-15.131-.011-18.908-6.528-4.234 3.962-8.351 1.074-11.693-1.083-1.9 4.315-3.817 5.709-6.825 7.611-3.008-1.9-4.921-3.3-6.825-7.611-3.342 2.157-7.459 5.045-11.693 1.083-3.777 6.516-12.769 6.528-18.908 6.528.239 3.594 4 5.59 8.368 5.92zm5.515-18.9c-.041 2.37-1.8 3.589-4.691 5.279 1.215.936 13.1 1.405 20.334-12.775-.3 6.236-3.587 8.667-7.253 12.775 2.618 1.968 8.056-2.442 10.083-4.209 0 3.23 2.362 6.989 5.07 9.274 2.708-2.285 5.07-6.044 5.07-9.274 2.027 1.767 7.465 6.177 10.083 4.209-3.666-4.114-6.953-6.545-7.253-12.779 7.235 14.18 19.119 13.711 20.334 12.775-2.886-1.69-4.65-2.909-4.691-5.279 2.173-.033 5.053-1.358 6.123-3.3-11.906-3.102-23.677-16.046-29.666-28.296-5.989 12.25-17.76 25.194-29.666 28.289 1.066 1.947 3.95 3.272 6.123 3.305z"/></g><use x="110" xlink:href="#b"/></g><g fill="#0a66aa"><use xlink:href="#b" y="145"/><use x="110" xlink:href="#b" y="145"/></g></g><path d="m497 330v-327h-494v327c0 136.414 110.586 247 247 247s247-110.586 247-247z" fill="none" stroke="#111" stroke-width="6"/></svg>