<svg enable-background="new 0 0 334.847 454" height="454" viewBox="0 0 334.847 454" width="334.847" xmlns="http://www.w3.org/2000/svg" xmlns:xlink="http://www.w3.org/1999/xlink"><linearGradient id="a" gradientUnits="userSpaceOnUse" x1="5.5913" x2="329.1846" y1="227.7705" y2="227.7705"><stop offset="0" stop-color="#448d46"/><stop offset=".3515" stop-color="#70ba70"/><stop offset=".6727" stop-color="#70ba70"/><stop offset="1" stop-color="#448d46"/></linearGradient><linearGradient id="b" gradientUnits="userSpaceOnUse" x1="122.0015" x2="212.7744" y1="228.8486" y2="228.8486"><stop offset="0" stop-color="#a38876"/><stop offset=".2061" stop-color="#ead8cf"/><stop offset=".497" stop-color="#fff"/><stop offset=".7636" stop-color="#ead8cf"/><stop offset="1" stop-color="#a38876"/></linearGradient><path d="m167.395 449.321c17.824-15.596 65.427-20.609 100.239-41.498s61.551-65.171 61.551-85.78 0-250.654 0-250.654c-25.066-2.507-70.461-40.662-85.779-65.17-18.104 5.57-43.675 8.912-74.868 8.912h-2.3c-31.192 0-56.764-3.342-74.867-8.912-15.318 24.509-60.714 62.663-85.78 65.17v250.654s26.738 64.892 61.551 85.78 82.35 25.902 100.174 41.498z" fill="url(#a)"/><path d="m167.395 449.321c17.824-15.596 65.427-20.609 100.239-41.498s61.551-65.171 61.551-85.78 0-250.654 0-250.654c-25.066-2.507-70.461-40.662-85.779-65.17-18.104 5.57-43.675 8.912-74.868 8.912h-2.3c-31.192 0-56.764-3.342-74.867-8.912-15.318 24.509-60.714 62.663-85.78 65.17v250.654s26.738 64.892 61.551 85.78 82.35 25.902 100.174 41.498z" fill="none" stroke="#000" stroke-width="5"/><path d="m211.657 221.265h66.944v7.675h-66.944z" fill="#bacad3" stroke="#000" stroke-linecap="round" stroke-linejoin="round"/><path d="m212.013 223.044h66.372v1.506h-66.372z" fill="#fff"/><path d="m61.165 221.265h60.836v7.675h-60.836z" fill="#bacad3" stroke="#000" stroke-linecap="round" stroke-linejoin="round"/><path d="m61.488 223.044h60.316v1.506h-60.316z" fill="#fff"/><path d="m167.389 328.581-45.388-33.204v-133.056l45.388-33.205 45.385 33.205v133.056z" fill="url(#b)" stroke="#000" stroke-linecap="round" stroke-linejoin="round"/><path d="m125.963 293.141v-128.724l41.859-32.248 42.239 30.73v55.195s-2.276-2.782-2.276-7.588 0-43.434 0-43.434l-39.962-29.213-39.583 31.363v119.999s-2.277 3.92-2.277 3.92z" fill="#fff"/><path d="m207.785 227.455v61.956l-39.583 31.363-32.129-23.487c-1.014-.5-2.581-1.198-4.373-1.73-2.11-.627-4.332-.101-5.557.309l42.059 30.6 41.859-32.247v-70.683c.001-.001-2.276 1.517-2.276 3.919z" fill="#a38876"/><path d="m151.248 113.428h32.281v7.494h-32.281z" fill="#bfa218" stroke="#7d4e00" stroke-linecap="round" stroke-linejoin="round" stroke-width="1.5"/><path d="m167.06 115.445s-16.717.384-26.036-6.053c-10.008-6.913-13.161-11.528-12.104-21.423s2.402-9.223 1.153-12.682-2.69-5.668-.672-8.646 2.69-3.843.672-6.917-1.921-4.899-.96-6.629-.865-3.555.576-6.245 2.114-2.786 2.114-2.786-1.729 4.42-.288 6.821 2.018 4.611 1.537 5.764-.385 1.152 1.345 2.978 1.729 5.188 1.537 7.109-1.057 2.018.384 3.555 3.65 4.804 3.458 5.957 3.074-2.69 1.153-6.629-3.65-4.9-2.594-8.743 3.65-3.747 1.537-7.494-3.554-5.188-1.345-8.55 3.65-5.86 3.65-5.86-.288 4.708-.672 5.86-.288 2.209 1.633 4.611 3.362 5.572 1.921 8.166-1.057 4.227 1.825 7.109 2.594 3.843 2.594 3.843 3.747-2.018 2.786-6.245-3.65-7.109-3.555-9.799 4.227-4.803 3.17-8.07-1.922-5.092-.769-6.725 1.922-3.458 2.114-4.707c0 0 1.633 2.498 1.441 4.323s-.672 4.227 1.729 6.917 1.345 5.957 1.153 7.782 2.401 3.843 2.113 8.935-.672 5.956-.672 5.956 3.074-.48 3.362-7.301-.48-6.437 1.153-10.087 2.979-4.803 1.538-8.935-2.018-4.707-.289-7.397 2.594-8.07 2.594-8.07 2.209 3.555 1.633 5.572-2.209 4.036.192 7.206 3.363 7.397 3.17 10.664-1.441 5.668.672 8.262 3.362 4.419 3.267 7.013-.576 4.708-.576 4.708 4.323-6.437 4.131-11.144-2.594-5.573-1.825-10.376 3.554-4.804 3.746-8.166-.384-6.629-.384-6.629 3.844 4.419 3.747 8.743-1.921 6.821-.288 10.856 3.458 6.052 2.978 10.375-2.594 8.935-2.594 8.935 3.556-4.611 5.765-7.494 1.729-4.804.769-7.686-2.307-4.899.191-7.877 2.114-7.014 2.114-7.014 2.497 4.228 1.633 6.821-2.017 5.284-.672 7.397 3.171 5.284 2.113 8.839-2.497 4.708-2.306 6.917.576 3.362.576 3.362 2.114-2.786 3.747-4.803 1.921-3.555 1.633-6.149-.769-4.227.961-6.629 2.306-3.075 2.306-5.188-1.249-5.38-1.249-5.38 3.939 4.227 3.555 7.494-2.21 5.956-1.249 9.319 1.346 6.532.961 9.511-2.23 5.371-.769 10.664c.857 3.105-.672 14.891-7.109 21.04s-9.99 11.144-31.125 11.144z" fill="#ed1c24" stroke="#981b1e" stroke-linecap="round" stroke-linejoin="round" stroke-width="1.5"/><g fill="#f7966b"><path d="m171.472 105.461s-1.861-1.269-.338-4.822 1.522-7.614 1.354-7.868.93 2.284 1.692 4.907.254 5.583.254 5.583.255-3.215 2.2-5.753 3.384-7.275 3.384-7.275.507 4.061-.339 6.768-2.199 5.752-2.199 5.752 5.16-5.922 7.275-9.729 4.483-4.822 4.483-9.221.085-4.738.085-4.738 2.116 8.883-.592 13.959-3.977 5.753-4.484 7.783-1.185 4.653-1.185 4.653 3.553-5.33 6.176-8.037 4.061-5.415 4.399-7.36.254-5.922.254-5.922 3.046 6.599 2.792 9.56-1.861 7.106-1.861 7.106 5.499-6.768 6.599-10.49-1.438-5.837-.762-9.39 2.115-5.33 2.538-9.052.084-5.076 0-7.783.169-5.415.169-5.415-1.607.931-1.522 6.514-1.606 7.868-3.807 9.137-3.384.593-2.284 3.723 2.538 4.822 2.538 8.46-.339 5.245-.339 5.245-3.046-7.107-3.638-9.306-2.623-4.737-2.538-7.36-.677-6.26 1.607-8.798 3.215-3.807 1.607-6.853-2.707-4.822-2.453-7.022 1.522-5.161 1.522-5.161-2.539 2.622-2.369 5.922 3.046 7.699.339 11.506-6.853 6.345-8.037 8.967-5.414 8.714-5.414 8.714-1.27-2.453.169-5.33 1.692-3.977 1.692-6.345-.339-4.314-.339-4.314-2.453 5.414-5.668 8.291-3.723 5.33-3.469 8.629 1.015 5.922 1.015 5.922-5.752-2.792-4.991-9.052 4.23-9.983 4.399-14.297-2.453-9.729-1.269-13.367 1.523-6.26.592-8.291-1.438-3.638-1.438-3.638 1.269 7.698-.677 11.336.676 9.137-.846 13.621-3.807 4.569-4.568 8.545-1.438 5.753-.761 9.983.931 6.514.931 6.514-5.33-5.837-5.499-9.644-.592-5.415.762-7.699 3.045-3.469 3.722-5.837.761-3.807.761-3.807-2.622 4.399-5.076 7.022-5.33 6.514-4.23 11.083 3.553 7.19 3.553 7.19-5.076-2.708-6.007-5.33-.423-5.837-.423-5.837-2.961 2.961-1.438 8.46 2.454 4.822 6.684 7.783 5.668 4.568 6.43 6.514 1.354 3.723 1.354 3.723 1.776-2.031.507-4.992-4.822-6.176-4.822-6.176 6.006.761 7.106 3.892-.677 3.808 1.185 6.261 3.553 2.283 3.553 2.283z"/><path d="m167.834 30.337s-2.623 3.723-1.776 6.261 1.015 6.176 1.015 6.176-2.369-4.061-2.369-6.768 2.707-4.907 3.13-5.669z"/><path d="m152.184 56.986s2.453 4.822 1.354 9.813-1.522 5.33-4.653 8.968-4.653 2.792-4.484 6.345.846 5.499.846 5.499-3.976-4.822-1.354-10.321 4.738-5.499 6.514-8.122 3.553-3.13 1.777-12.182z"/><path d="m144.993 55.463s-1.776 3.638-1.1 5.753 2.961 3.214 3.045 5.752-1.185 4.23-1.185 4.23.508-3.891-1.354-6.345-2.961-4.484-2.284-6.43 1.1-2.792.931-4.653-1.607-4.991-1.607-4.991 3.638 3.131 3.554 6.684z"/><path d="m153.283 37.189s-1.016 2.453.338 3.976 3.385 4.23 3.3 6.768-1.607 2.792-.846 4.568 1.946 5.668 1.946 5.668-4.314-2.961-3.722-6.937 1.353-4.23.253-6.599-3.469-4.144-1.269-7.444z"/><path d="m153.114 44.803s.846 2.538-.338 4.738-1.523 2.03-1.438 3.892.169 2.792.169 2.792-2.369-1.861-1.692-4.061 2.284-2.792 2.623-4.314.676-3.047.676-3.047z"/><path d="m130.188 48.78s.847 3.045 1.016 4.314-.592 2.284-.592 3.299.761 3.976.761 3.976-2.368-3.722-1.776-6.006.759-3.806.591-5.583z"/><path d="m132.218 56.14s0 2.538 1.1 3.807 1.946 2.961 1.269 6.091-.846 3.299-.084 5.668 1.354 1.946.761 5.415-.677 5.33 0 6.514 1.692 2.538 1.692 2.538-4.23-1.945-3.553-6.429.254-6.514-.507-7.699-1.777-4.822-.508-7.021.762-4.061.254-5.076-.424-3.808-.424-3.808z"/><path d="m140.762 84.48s-1.861 4.484.169 8.122 3.892 6.091 3.892 6.091-6.176-2.623-6.091-7.275 2.03-6.938 2.03-6.938z"/><path d="m133.063 86.511s-1.861 4.738 4.399 11.336 10.913 9.56 10.913 9.56-9.644-4.061-13.62-9.729-1.692-11.167-1.692-11.167z"/><path d="m182.893 37.359s1.777 3.131.508 6.007-4.062 3.553-2.623 7.021 1.1 5.922.423 7.868-.761 2.708-.761 2.708.591-2.623-.17-5.668-2.453-5.33-1.522-8.291 2.961-3.384 3.384-5.076.761-4.569.761-4.569z"/><path d="m183.484 46.834s-.001 4.399 1.1 7.106 2.201 5.16.678 9.221-2.2 5.668-2.2 5.668 2.116-8.122 1.27-10.914-1.607-7.021-1.607-8.544.759-2.537.759-2.537z"/></g><g stroke="#000"><path d="m81.089 368.51s7.59 3.796 18.38 4.763 17.71.372 17.71.372l-1.339 23.068s-10.79.744-22.175-.818-17.637-5.581-17.637-5.581 7.144-1.116 14.883-6.995c-8.557-6.549-9.822-14.809-9.822-14.809z" fill="#fff"/><path d="m101.149 384.93 16.031-11.285 2.084 22.994-10.084 9.863z" fill="#bacad3" stroke-linecap="round" stroke-linejoin="round"/><path d="m257.158 368.51s-7.59 3.796-18.38 4.763-17.71.372-17.71.372l1.339 23.068s10.79.744 22.175-.818c11.387-1.563 17.637-5.581 17.637-5.581s-7.144-1.116-14.883-6.995c8.558-6.549 9.822-14.809 9.822-14.809z" fill="#fff"/><path d="m237.099 384.93-16.031-11.285-2.084 22.994 10.084 9.863z" fill="#bacad3" stroke-linecap="round" stroke-linejoin="round"/><path d="m171.594 395.479c34.643 0 57.475 11.022 57.475 11.022l8.03-21.572s-26.139-12.282-65.819-12.282h-4.311c-39.681 0-65.819 12.282-65.819 12.282l8.03 21.572s22.832-11.022 57.474-11.022z" fill="#fff"/></g><path d="m106.063 76.455s-22.022 17.298-36.402 37.607-16.659 43.052-16.665 64.458c0 0-.011 43.784-.015 63.315-.005 19.531 5.769 49.655 28.263 74.816 22.494 25.162 55.304 36.732 81.554 36.738" fill="none" stroke="#9a6104" stroke-linecap="round" stroke-linejoin="round" stroke-width="4"/><path d="m122.367 66.05s-2.509 5.266-7.777 8.274-10.535 3.885-10.535 3.885.879-5.016 6.774-9.153 11.538-3.006 11.538-3.006z" fill="#e9c31e" stroke="#9a6104" stroke-linecap="round" stroke-linejoin="round"/><path d="m119.56 67.419s-5.095 2.266-8.23 4.522c-3.135 2.257-5.268 4.514-5.268 4.514s.675-3.295 5.567-6.555c4.892-3.259 7.931-2.481 7.931-2.481z" fill="#ffeb95"/><path d="m105.118 60.071s1.901 5.515.252 11.353c-1.648 5.838-4.791 10.155-4.791 10.155s-2.888-4.194-1.583-11.276c1.304-7.082 6.122-10.232 6.122-10.232z" fill="#e9c31e" stroke="#9a6104" stroke-linecap="round" stroke-linejoin="round"/><path d="m104.075 63.016s-2.046 5.187-2.701 8.994-.594 6.911-.594 6.911-1.828-2.824-.623-8.577c1.205-5.754 3.918-7.328 3.918-7.328z" fill="#ffeb95"/><path d="m122.628 82.479s-5.118 2.8-11.15 2.154c-6.031-.645-10.815-3.018-10.815-3.018s3.649-3.551 10.851-3.454 11.114 4.318 11.114 4.318z" fill="#e9c31e" stroke="#9a6104" stroke-linecap="round" stroke-linejoin="round"/><path d="m119.551 81.946s-5.457-1.146-9.32-1.152-6.913.575-6.913.575 2.477-2.276 8.351-2.054c5.874.221 7.882 2.631 7.882 2.631z" fill="#ffeb95"/><path d="m95.984 67.358s1.901 5.515.252 11.353c-1.648 5.838-4.791 10.155-4.791 10.155s-2.888-4.193-1.583-11.276 6.122-10.232 6.122-10.232z" fill="#e9c31e" stroke="#9a6104" stroke-linecap="round" stroke-linejoin="round"/><path d="m94.942 70.302s-2.046 5.187-2.701 8.994-.594 6.911-.594 6.911-1.828-2.823-.623-8.577 3.918-7.328 3.918-7.328z" fill="#ffeb95"/><path d="m113.495 89.766s-5.118 2.801-11.15 2.155c-6.032-.645-10.815-3.018-10.815-3.018s3.649-3.551 10.851-3.454c7.201.097 11.114 4.317 11.114 4.317z" fill="#e9c31e" stroke="#9a6104" stroke-linecap="round" stroke-linejoin="round"/><path d="m110.417 89.233s-5.456-1.146-9.319-1.153-6.913.575-6.913.575 2.477-2.276 8.351-2.054 7.881 2.632 7.881 2.632z" fill="#ffeb95"/><path d="m83.93 76.654s2.746 5.146 2.036 11.172c-.709 6.024-3.133 10.782-3.133 10.782s-3.512-3.687-3.338-10.887c.173-7.2 4.435-11.067 4.435-11.067z" fill="#e9c31e" stroke="#9a6104" stroke-linecap="round" stroke-linejoin="round"/><path d="m83.363 79.725s-1.205 5.445-1.252 9.308c-.047 3.862.501 6.918.501 6.918s-2.25-2.5-1.965-8.372 2.716-7.854 2.716-7.854z" fill="#ffeb95"/><path d="m104.749 96.026s-4.613 3.571-10.672 3.883c-6.058.313-11.156-1.278-11.156-1.278s3.045-4.081 10.172-5.119c7.127-1.037 11.656 2.514 11.656 2.514z" fill="#e9c31e" stroke="#9a6104" stroke-linecap="round" stroke-linejoin="round"/><path d="m101.625 95.984s-5.569-.273-9.385.329-6.736 1.656-6.736 1.656 2.088-2.638 7.923-3.343c5.836-.707 8.198 1.358 8.198 1.358z" fill="#ffeb95"/><path d="m75.594 85.68s2.745 5.146 2.035 11.172c-.709 6.024-3.133 10.782-3.133 10.782s-3.512-3.687-3.338-10.887 4.436-11.067 4.436-11.067z" fill="#e9c31e" stroke="#9a6104" stroke-linecap="round" stroke-linejoin="round"/><path d="m75.027 88.75s-1.204 5.445-1.252 9.308c-.047 3.862.501 6.918.501 6.918s-2.249-2.5-1.965-8.372c.285-5.871 2.716-7.854 2.716-7.854z" fill="#ffeb95"/><path d="m96.413 105.052s-4.613 3.571-10.672 3.883c-6.058.313-11.155-1.278-11.155-1.278s3.045-4.082 10.172-5.119 11.655 2.514 11.655 2.514z" fill="#e9c31e" stroke="#9a6104" stroke-linecap="round" stroke-linejoin="round"/><path d="m93.29 105.01s-5.569-.273-9.385.329-6.736 1.656-6.736 1.656 2.088-2.638 7.923-3.343c5.835-.707 8.198 1.358 8.198 1.358z" fill="#ffeb95"/><path d="m65.912 95.545s3.272 4.829 3.201 10.895-1.981 11.052-1.981 11.052-3.881-3.296-4.466-10.474 3.246-11.473 3.246-11.473z" fill="#e9c31e" stroke="#9a6104" stroke-linecap="round" stroke-linejoin="round"/><path d="m65.672 98.658s-.625 5.541-.266 9.387c.36 3.846 1.226 6.827 1.226 6.827s-2.499-2.25-2.834-8.119c-.336-5.867 1.874-8.095 1.874-8.095z" fill="#ffeb95"/><path d="m88.654 112.619s-4.212 4.037-10.204 4.984c-5.992.949-11.228-.097-11.228-.097s2.598-4.378 9.576-6.161c6.979-1.782 11.856 1.274 11.856 1.274z" fill="#e9c31e" stroke="#9a6104" stroke-linecap="round" stroke-linejoin="round"/><path d="m85.544 112.905s-5.567.314-9.298 1.314c-3.732 1-6.524 2.356-6.524 2.356s1.798-2.843 7.527-4.158c5.728-1.316 8.295.488 8.295.488z" fill="#ffeb95"/><path d="m56.579 107.237s4.223 4.917 4.91 11.622c.688 6.706-.789 12.451-.789 12.451s-4.7-3.147-6.253-10.998c-1.553-7.85 2.132-13.075 2.132-13.075z" fill="#e9c31e" stroke="#9a6104" stroke-linecap="round" stroke-linejoin="round"/><path d="m56.708 110.704s.01 6.196.894 10.396c.883 4.2 2.217 7.381 2.217 7.381s-3.044-2.168-4.156-8.604c-1.112-6.435 1.045-9.173 1.045-9.173z" fill="#ffeb95"/><path d="m82.142 120.151s-3.32 5.566-9.458 8.351c-6.139 2.786-12.056 3.212-12.056 3.212s1.491-5.458 8.439-9.426c6.948-3.97 13.075-2.137 13.075-2.137z" fill="#e9c31e" stroke="#9a6104" stroke-linecap="round" stroke-linejoin="round"/><path d="m78.894 121.376s-5.87 1.98-9.571 4.153c-3.702 2.173-6.293 4.449-6.293 4.449s1.087-3.576 6.834-6.676c5.748-3.101 9.03-1.926 9.03-1.926z" fill="#ffeb95"/><path d="m48.323 123.007s4.921 4.218 6.618 10.741c1.699 6.523 1.11 12.427 1.11 12.427s-5.124-2.397-7.851-9.921c-2.726-7.523.123-13.247.123-13.247z" fill="#e9c31e" stroke="#9a6104" stroke-linecap="round" stroke-linejoin="round"/><path d="m48.977 126.414s.951 6.123 2.462 10.14 3.312 6.959 3.312 6.959-3.338-1.68-5.414-7.873c-2.077-6.193-.36-9.226-.36-9.226z" fill="#ffeb95"/><path d="m75.55 131.891s-2.436 6.005-8.081 9.689c-5.645 3.686-11.428 5.006-11.428 5.006s.644-5.621 6.91-10.599c6.264-4.978 12.599-4.096 12.599-4.096z" fill="#e9c31e" stroke="#9a6104" stroke-linecap="round" stroke-linejoin="round"/><path d="m72.526 133.594s-5.501 2.848-8.83 5.558-5.544 5.353-5.544 5.353.531-3.7 5.741-7.636c5.211-3.938 8.633-3.275 8.633-3.275z" fill="#ffeb95"/><path d="m44.289 137.406s5.346 3.831 7.681 10.828c2.336 6.995 2.32 13.712 2.32 13.712s-5.373-1.754-8.838-9.684-1.163-14.856-1.163-14.856z" fill="#e9c31e" stroke="#9a6104" stroke-linecap="round" stroke-linejoin="round"/><path d="m45.275 141.102s1.547 6.684 3.454 10.908c1.905 4.224 3.997 7.191 3.997 7.191s-3.512-1.277-6.195-7.833c-2.683-6.558-1.256-10.266-1.256-10.266z" fill="#ffeb95"/><path d="m72.466 142.414s-1.861 7.167-7.167 12.316c-5.306 5.15-10.981 7.678-10.981 7.678s.102-6.41 5.906-13.121c5.802-6.71 12.242-6.873 12.242-6.873z" fill="#e9c31e" stroke="#9a6104" stroke-linecap="round" stroke-linejoin="round"/><path d="m69.598 144.87s-5.243 4.187-8.319 7.825c-3.078 3.639-5.044 7-5.044 7s.173-4.238 5.019-9.592c4.846-5.355 8.344-5.233 8.344-5.233z" fill="#ffeb95"/><path d="m41.1 152.842s5.627 3.581 8.523 10.361c2.897 6.779 3.432 13.36 3.432 13.36s-5.483-1.546-9.58-9.204c-4.095-7.657-2.375-14.517-2.375-14.517z" fill="#e9c31e" stroke="#9a6104" stroke-linecap="round" stroke-linejoin="round"/><path d="m42.384 156.432s2.087 6.499 4.329 10.575c2.24 4.078 4.563 6.917 4.563 6.917s-3.595-1.137-6.8-7.476c-3.206-6.338-2.092-10.016-2.092-10.016z" fill="#ffeb95"/><path d="m69.513 156.844s-1.261 7.081-6.11 12.296c-4.85 5.217-10.281 7.875-10.281 7.875s-.426-6.283 4.79-13.044c5.214-6.762 11.601-7.127 11.601-7.127z" fill="#e9c31e" stroke="#9a6104" stroke-linecap="round" stroke-linejoin="round"/><path d="m66.864 159.342s-4.866 4.271-7.624 7.934c-2.759 3.664-4.437 7.02-4.437 7.02s-.176-4.159 4.2-9.559c4.375-5.402 7.861-5.395 7.861-5.395z" fill="#ffeb95"/><path d="m39.452 169.346s5.876 3.156 9.264 9.705c3.388 6.547 4.406 13.071 4.406 13.071s-5.583-1.138-10.231-8.474c-4.648-7.335-3.439-14.302-3.439-14.302z" fill="#e9c31e" stroke="#9a6104" stroke-linecap="round" stroke-linejoin="round"/><path d="m40.998 172.83s2.56 6.328 5.095 10.228c2.535 3.902 5.061 6.563 5.061 6.563s-3.669-.869-7.333-6.955c-3.664-6.085-2.823-9.836-2.823-9.836z" fill="#ffeb95"/><path d="m68.083 171.244s-.736 7.154-5.188 12.712c-4.452 5.56-9.673 8.61-9.673 8.61s-.888-6.234 3.817-13.361c4.702-7.126 11.044-7.961 11.044-7.961z" fill="#e9c31e" stroke="#9a6104" stroke-linecap="round" stroke-linejoin="round"/><path d="m65.625 173.93s-4.538 4.618-7.019 8.474c-2.482 3.857-3.908 7.328-3.908 7.328s-.481-4.134 3.484-9.842c3.966-5.71 7.443-5.96 7.443-5.96z" fill="#ffeb95"/><path d="m39.25 185.179s5.875 3.157 9.263 9.705c3.388 6.547 4.406 13.071 4.406 13.071s-5.583-1.139-10.23-8.474c-4.648-7.335-3.439-14.302-3.439-14.302z" fill="#e9c31e" stroke="#9a6104" stroke-linecap="round" stroke-linejoin="round"/><path d="m40.795 188.664s2.56 6.328 5.095 10.228c2.535 3.902 5.061 6.563 5.061 6.563s-3.669-.87-7.333-6.955c-3.663-6.085-2.823-9.836-2.823-9.836z" fill="#ffeb95"/><path d="m67.881 187.077s-.736 7.154-5.189 12.712c-4.452 5.56-9.673 8.61-9.673 8.61s-.888-6.234 3.817-13.361c4.703-7.126 11.045-7.961 11.045-7.961z" fill="#e9c31e" stroke="#9a6104" stroke-linecap="round" stroke-linejoin="round"/><path d="m65.423 189.764s-4.538 4.618-7.019 8.474c-2.482 3.857-3.908 7.328-3.908 7.328s-.481-4.134 3.484-9.842c3.966-5.71 7.443-5.96 7.443-5.96z" fill="#ffeb95"/><path d="m38.729 201.248s5.988 2.938 9.614 9.357c3.627 6.418 4.885 12.9 4.885 12.9s-5.621-.933-10.536-8.091c-4.915-7.159-3.963-14.166-3.963-14.166z" fill="#e9c31e" stroke="#9a6104" stroke-linecap="round" stroke-linejoin="round"/><path d="m40.401 204.673s2.792 6.229 5.469 10.033c2.677 3.806 5.299 6.372 5.299 6.372s-3.699-.734-7.584-6.68c-3.885-5.945-3.184-9.725-3.184-9.725z" fill="#ffeb95"/><path d="m67.411 202.09s-.472 7.176-4.717 12.895c-4.244 5.72-9.35 8.961-9.35 8.961s-1.117-6.197 3.322-13.493c4.437-7.296 10.745-8.363 10.745-8.363z" fill="#e9c31e" stroke="#9a6104" stroke-linecap="round" stroke-linejoin="round"/><path d="m65.054 204.864s-4.365 4.782-6.702 8.727c-2.338 3.946-3.635 7.467-3.635 7.467s-.634-4.114 3.119-9.964c3.752-5.851 7.218-6.23 7.218-6.23z" fill="#ffeb95"/><path d="m38.825 216.586s5.988 2.938 9.614 9.356c3.627 6.419 4.885 12.901 4.885 12.901s-5.621-.933-10.536-8.091-3.963-14.166-3.963-14.166z" fill="#e9c31e" stroke="#9a6104" stroke-linecap="round" stroke-linejoin="round"/><path d="m40.497 220.012s2.792 6.229 5.469 10.032c2.677 3.807 5.299 6.372 5.299 6.372s-3.698-.733-7.584-6.68c-3.886-5.945-3.184-9.724-3.184-9.724z" fill="#ffeb95"/><path d="m67.506 217.428s-.472 7.178-4.717 12.896c-4.244 5.72-9.349 8.96-9.349 8.96s-1.117-6.197 3.321-13.492c4.437-7.296 10.745-8.364 10.745-8.364z" fill="#e9c31e" stroke="#9a6104" stroke-linecap="round" stroke-linejoin="round"/><path d="m65.149 220.203s-4.365 4.782-6.702 8.727c-2.338 3.946-3.635 7.468-3.635 7.468s-.634-4.115 3.119-9.965c3.753-5.852 7.218-6.23 7.218-6.23z" fill="#ffeb95"/><path d="m38.783 232.031s6.049 2.812 9.81 9.151c3.762 6.341 5.156 12.795 5.156 12.795s-5.64-.813-10.705-7.866-4.261-14.08-4.261-14.08z" fill="#e9c31e" stroke="#9a6104" stroke-linecap="round" stroke-linejoin="round"/><path d="m40.527 235.421s2.922 6.168 5.679 9.915c2.757 3.748 5.433 6.258 5.433 6.258s-3.713-.655-7.723-6.518-3.389-9.655-3.389-9.655z" fill="#ffeb95"/><path d="m67.476 232.269s-.32 7.185-4.443 12.991c-4.123 5.808-9.159 9.155-9.159 9.155s-1.247-6.173 3.037-13.56c4.281-7.387 10.565-8.586 10.565-8.586z" fill="#e9c31e" stroke="#9a6104" stroke-linecap="round" stroke-linejoin="round"/><path d="m65.178 235.092s-4.263 4.872-6.517 8.866-3.476 7.543-3.476 7.543-.721-4.101 2.908-10.028c3.628-5.93 7.085-6.381 7.085-6.381z" fill="#ffeb95"/><path d="m39.012 249.356s6.366 1.988 10.931 7.777c4.565 5.79 6.799 12.003 6.799 12.003s-5.698-.063-11.649-6.386c-5.952-6.322-6.081-13.394-6.081-13.394z" fill="#e9c31e" stroke="#9a6104" stroke-linecap="round" stroke-linejoin="round"/><path d="m41.188 252.486s3.709 5.729 6.937 9.079c3.227 3.353 6.21 5.487 6.21 5.487s-3.768-.16-8.515-5.443c-4.748-5.282-4.632-9.123-4.632-9.123z" fill="#ffeb95"/><path d="m67.484 245.807s.63 7.164-2.691 13.464c-3.32 6.301-7.871 10.284-7.871 10.284s-2.05-5.955 1.221-13.843 9.341-9.905 9.341-9.905z" fill="#e9c31e" stroke="#9a6104" stroke-linecap="round" stroke-linejoin="round"/><path d="m65.579 248.908s-3.583 5.392-5.291 9.648-2.451 7.936-2.451 7.936-1.255-3.97 1.56-10.323c2.815-6.357 6.182-7.261 6.182-7.261z" fill="#ffeb95"/><path d="m41.059 267.123s6.688 1.406 12.264 7.259c5.576 5.854 8.91 12.469 8.91 12.469s-5.679.649-12.729-5.62c-7.052-6.272-8.445-14.108-8.445-14.108z" fill="#e9c31e" stroke="#9a6104" stroke-linecap="round" stroke-linejoin="round"/><path d="m43.783 270.325s4.714 5.893 8.524 9.206c3.809 3.314 7.159 5.31 7.159 5.31s-3.776.297-9.443-4.971c-5.668-5.266-6.24-9.545-6.24-9.545z" fill="#ffeb95"/><path d="m68.748 259.592s1.907 7.875-.269 15.29c-2.177 7.414-5.991 12.411-5.991 12.411s-3.104-6.354-1.26-15.523c1.842-9.171 7.52-12.178 7.52-12.178z" fill="#e9c31e" stroke="#9a6104" stroke-linecap="round" stroke-linejoin="round"/><path d="m67.407 263.277s-2.6 6.438-3.538 11.379-1.02 9.12-1.02 9.12-1.958-4.25-.293-11.658c1.663-7.413 4.851-8.841 4.851-8.841z" fill="#ffeb95"/><path d="m47.363 287.602s6.828.296 13.283 5.162c6.456 4.866 10.823 10.851 10.823 10.851s-5.498 1.565-13.476-3.471c-7.979-5.04-10.63-12.542-10.63-12.542z" fill="#e9c31e" stroke="#9a6104" stroke-linecap="round" stroke-linejoin="round"/><path d="m50.572 290.316s5.612 5.045 9.911 7.693c4.298 2.649 7.928 4.071 7.928 4.071s-3.677.908-10.127-3.364c-6.45-4.271-7.712-8.4-7.712-8.4z" fill="#ffeb95"/><path d="m73.453 275.657s3.166 7.458 2.227 15.129-3.887 13.222-3.887 13.222-4.099-5.764-3.774-15.109c.323-9.35 5.434-13.242 5.434-13.242z" fill="#e9c31e" stroke="#9a6104" stroke-linecap="round" stroke-linejoin="round"/><path d="m72.731 279.512s-1.516 6.775-1.636 11.804.48 9.164.48 9.164-2.625-3.874-2.189-11.455c.433-7.586 3.345-9.513 3.345-9.513z" fill="#ffeb95"/><path d="m56.771 305.211s6.815-.51 13.799 3.563c6.984 4.071 12.026 9.5 12.026 9.5s-5.275 2.202-13.791-1.859c-8.517-4.064-12.034-11.204-12.034-11.204z" fill="#e9c31e" stroke="#9a6104" stroke-linecap="round" stroke-linejoin="round"/><path d="m60.278 307.528s6.167 4.351 10.748 6.474c4.581 2.125 8.353 3.109 8.353 3.109s-3.544 1.335-10.453-2.148c-6.908-3.483-8.648-7.435-8.648-7.435z" fill="#ffeb95"/><path d="m81.273 290.277s4.021 7.033 3.993 14.761c-.029 7.728-2.303 13.588-2.303 13.588s-4.749-5.241-5.527-14.561c-.78-9.322 3.837-13.788 3.837-13.788z" fill="#e9c31e" stroke="#9a6104" stroke-linecap="round" stroke-linejoin="round"/><path d="m81.011 294.189s-.708 6.907-.234 11.914 1.557 9.043 1.557 9.043-3.063-3.536-3.523-11.115c-.466-7.584 2.2-9.842 2.2-9.842z" fill="#ffeb95"/><path d="m66.675 322.049s6.574-1.872 14.234.71c7.661 2.583 13.693 6.884 13.693 6.884s-4.724 3.22-13.883.957c-9.161-2.267-14.044-8.551-14.044-8.551z" fill="#e9c31e" stroke="#9a6104" stroke-linecap="round" stroke-linejoin="round"/><path d="m70.578 323.612s6.917 3.02 11.831 4.176c4.915 1.16 8.808 1.365 8.808 1.365s-3.203 2.021-10.672 0c-7.468-2.019-9.967-5.541-9.967-5.541z" fill="#ffeb95"/><path d="m87.669 302.487s5.355 6.078 6.884 13.653c1.527 7.576.479 13.774.479 13.774s-5.707-4.178-8.346-13.149c-2.641-8.974.983-14.278.983-14.278z" fill="#e9c31e" stroke="#9a6104" stroke-linecap="round" stroke-linejoin="round"/><path d="m88.199 306.372s.698 6.907 2.169 11.717c1.472 4.809 3.346 8.544 3.346 8.544s-3.712-2.847-5.69-10.178c-1.981-7.335.175-10.083.175-10.083z" fill="#ffeb95"/><path d="m78.271 333.762s6.32-2.604 14.223-.904c7.904 1.698 14.384 5.289 14.384 5.289s-4.329 3.732-13.685 2.522c-9.36-1.216-14.922-6.907-14.922-6.907z" fill="#e9c31e" stroke="#9a6104" stroke-linecap="round" stroke-linejoin="round"/><path d="m82.325 334.874s7.214 2.217 12.228 2.81c5.015.597 8.906.359 8.906.359s-2.954 2.371-10.604 1.208c-7.648-1.161-10.53-4.377-10.53-4.377z" fill="#ffeb95"/><path d="m96.915 311.95s6.009 5.434 8.385 12.786c2.376 7.354 2.037 13.632 2.037 13.632s-6.144-3.505-9.781-12.121c-3.641-8.618-.641-14.297-.641-14.297z" fill="#e9c31e" stroke="#9a6104" stroke-linecap="round" stroke-linejoin="round"/><path d="m97.881 315.749s1.476 6.785 3.482 11.397c2.007 4.61 4.292 8.109 4.292 8.109s-4.01-2.408-6.806-9.468c-2.799-7.062-.968-10.038-.968-10.038z" fill="#ffeb95"/><path d="m94.196 345.132s5.876-3.494 13.942-2.96c8.066.533 14.999 3.146 14.999 3.146s-3.741 4.322-13.174 4.482c-9.438.155-15.767-4.668-15.767-4.668z" fill="#e9c31e" stroke="#9a6104" stroke-linecap="round" stroke-linejoin="round"/><path d="m98.369 345.644s7.459 1.146 12.506 1.005c5.048-.137 8.864-.937 8.864-.937s-2.578 2.774-10.315 2.734c-7.736-.04-11.055-2.802-11.055-2.802z" fill="#ffeb95"/><path d="m109.478 320.845s6.734 4.504 10.152 11.435c3.417 6.932 3.993 13.191 3.993 13.191s-6.587-2.576-11.437-10.572c-4.853-8-2.708-14.054-2.708-14.054z" fill="#e9c31e" stroke="#9a6104" stroke-linecap="round" stroke-linejoin="round"/><path d="m110.985 324.464s2.445 6.498 5.1 10.771c2.655 4.269 5.423 7.4 5.423 7.4s-4.317-1.802-8.108-8.381c-3.794-6.582-2.415-9.79-2.415-9.79z" fill="#ffeb95"/><path d="m109.724 354.236s5.392-4.203 13.461-4.682c8.07-.48 15.275 1.243 15.275 1.243s-3.17 4.757-12.51 6.096c-9.343 1.336-16.226-2.657-16.226-2.657z" fill="#e9c31e" stroke="#9a6104" stroke-linecap="round" stroke-linejoin="round"/><path d="m113.928 354.221s7.545.204 12.533-.567c4.991-.768 8.677-2.039 8.677-2.039s-2.21 3.075-9.892 4.004c-7.68.927-11.318-1.398-11.318-1.398z" fill="#ffeb95"/><path d="m121.847 328.228s7.245 3.625 11.503 10.073c4.258 6.449 5.612 12.587 5.612 12.587s-6.858-1.729-12.669-9.057c-5.816-7.328-4.446-13.603-4.446-13.603z" fill="#e9c31e" stroke="#9a6104" stroke-linecap="round" stroke-linejoin="round"/><path d="m123.795 331.629s3.239 6.141 6.407 10.048c3.168 3.904 6.307 6.665 6.307 6.665s-4.509-1.247-9.093-7.3c-4.588-6.058-3.621-9.413-3.621-9.413z" fill="#ffeb95"/><g stroke-linecap="round" stroke-linejoin="round"><path d="m106.063 76.455s-22.022 17.298-36.402 37.607-16.659 43.052-16.665 64.458c0 0-.011 43.784-.015 63.315-.005 19.531 5.769 49.655 28.263 74.816 22.494 25.162 55.304 36.732 81.554 36.738" fill="none" stroke="#e9c31e" stroke-width="2"/><path d="m217.571 76.566s-2.835.367-4.325-2.157c-1.492-2.524.733-4.474.733-4.474s-2.395-1.979-1-4.137c1.394-2.159 3.808-1.354 3.808-1.354s-1.654-2.658.73-3.757c2.382-1.1 2.859-.159 2.859-.159s-.073-2.55 3.805-1.441c3.876 1.108 5.326 3.879 4.904 5.454-.421 1.575-1.5 4.543-4.22 7.214-2.716 2.672-5.367 4.5-7.294 4.811z" fill="#ccdde7" stroke="#808285"/><path d="m236.892 84.793s-2.299-3.538-5.578-4.991c-4.3 2.854-5.95 2.166-9.469.645-3.519-1.522-7.31-3.294-7.31-3.294s2.537-.606 3.609-1.203c1.073-.596 2.641-.664 2.641-.664s-.33-.352-1.01-1.578c-.681-1.226-1.3-2.22-1.3-2.22s.258-.142 1.642-.176c1.385-.034 2.878.006 2.878.006s-1.079-1.339-1.453-2.134c-.373-.795-.873-2.055-.873-2.055s2.267.347 3.185.438c.919.091 1.946.857 1.946.857s-.408-2.179-.556-2.565-.702-1.75-.702-1.75 1.855 1.176 2.496 1.488c.642.313 1.562 1.005 1.562 1.005s-.277-1.583.239-2.338.086-2.856-.228-3.418c-.311-.562-.117-.937-.117-.937s5.746 10.713 5.824 13.143-1.129 4.722-1.129 4.722 1.644 1.168 3.314 3.266c1.725 2.159 2.629 3.578 2.629 3.578z" fill="#00ab4e" stroke="#005a24"/></g><g fill="#fff"><path d="m214.33 71.128c-.964-.276-.918 2.456-.006 3.396.911.94 1.97 1.244 2.71.775.743-.467.28-1.601.28-1.601s-1.276.208-1.635-1.04c-.357-1.247-1.018-1.435-1.349-1.53z"/><path d="m216.238 69.956c-.174-.1-1.911.062-2.616-1.606-.703-1.667.304-3.061 1.12-2.791.818.269.979 1.459 1.913 1.941.935.483 1.799 1.337 1.44 1.593-.359.254-1.365 1.147-1.857.863z"/><path d="m217.923 64.531c-.21-.115-1.541-2.127-.938-2.5.604-.371.817.579 1.668.731.85.155 1.334.217 1.491.903.155.688-.99 1.545-2.221.866z"/><path d="m223.275 62.49c-.371-.187-1.725-1.602-1.491-2.286.231-.686.976-1.045 1.746-.359s1.359 1.247 1.267 1.578c-.094.33-.365 1.648-1.522 1.067z"/></g><g stroke-linecap="round" stroke-linejoin="round"><g stroke="#808285"><g fill="none"><path d="m218.086 68.875c-.561.287-1.101.915-1.347 1.481-.23.53-.035.949.08 1.448"/><path d="m218.147 66.783c.198-.944.671-1.597 1.777-1.709"/><path d="m221.29 63.425c.343-.393.403-.914.985-.949.308-.018.688.13.904.344"/><path d="m220.355 60.439c.283.705.806 2.047 1.598 2.173"/><path d="m216.586 64.369c.251.347.893.449 1.244.646.352.196.48.359.687.729"/><path d="m213.961 70.165c.567-.306 1.17-.146 1.752-.074.458.057.643-.026.922.48"/></g><path d="m230.129 85.722s-2.923.379-4.459-2.224c-1.538-2.603.756-4.612.756-4.612s-2.468-2.04-1.03-4.265c1.436-2.226 3.925-1.397 3.925-1.397s-1.705-2.739.753-3.873c2.456-1.134 2.949-.164 2.949-.164s-.076-2.629 3.921-1.486 5.492 4 5.057 5.624c-.434 1.623-1.547 4.683-4.35 7.437-2.802 2.754-5.535 4.639-7.522 4.96z" fill="#ccdde7"/></g><path d="m250.049 94.202s-2.371-3.647-5.752-5.146c-4.432 2.943-6.134 2.233-9.762.666-3.627-1.569-7.536-3.396-7.536-3.396s2.615-.625 3.722-1.24c1.106-.614 2.722-.684 2.722-.684s-.34-.363-1.041-1.627-1.34-2.289-1.34-2.289.266-.146 1.692-.181c1.428-.035 2.967.006 2.967.006s-1.112-1.38-1.498-2.2c-.385-.82-.9-2.119-.9-2.119s2.337.357 3.284.451 2.007.883 2.007.883-.422-2.246-.573-2.644c-.152-.398-.725-1.804-.725-1.804s1.913 1.212 2.573 1.534c.662.323 1.611 1.036 1.611 1.036s-.287-1.632.245-2.41c.532-.779.089-2.945-.233-3.524-.321-.579-.121-.966-.121-.966s5.924 11.045 6.005 13.549c.081 2.506-1.164 4.869-1.164 4.869s1.694 1.204 3.417 3.366c1.778 2.226 2.711 3.688 2.711 3.688z" fill="#00ab4e" stroke="#005a24"/></g><g fill="#fff"><path d="m226.788 80.115c-.994-.284-.947 2.532-.007 3.501.939.969 2.031 1.282 2.794.799.766-.482.289-1.65.289-1.65s-1.315.213-1.686-1.073c-.367-1.285-1.049-1.479-1.39-1.577z"/><path d="m228.755 78.907c-.179-.103-1.971.063-2.697-1.656-.725-1.719.313-3.155 1.155-2.877.844.277 1.009 1.504 1.972 2.001.964.498 1.854 1.378 1.485 1.642-.37.262-1.408 1.182-1.915.89z"/><path d="m230.491 73.314c-.216-.119-1.588-2.193-.967-2.577.623-.383.842.596 1.719.754.877.16 1.376.224 1.538.931.16.708-1.02 1.592-2.29.892z"/><path d="m236.01 71.209c-.383-.193-1.777-1.652-1.537-2.357.238-.707 1.006-1.077 1.8-.371.795.707 1.402 1.286 1.306 1.627s-.377 1.701-1.569 1.101z"/></g><g stroke-linecap="round" stroke-linejoin="round"><g stroke="#808285"><g fill="none"><path d="m230.659 77.793c-.577.295-1.134.943-1.388 1.526-.237.546-.036.978.082 1.493"/><path d="m230.724 75.635c.204-.973.691-1.646 1.832-1.762"/><path d="m233.963 72.174c.354-.405.416-.943 1.016-.979.317-.018.71.134.934.355"/><path d="m233 69.095c.291.726.83 2.11 1.646 2.24"/><path d="m229.113 73.146c.259.358.92.463 1.283.666.362.202.495.37.707.752"/><path d="m226.406 79.122c.586-.315 1.207-.15 1.807-.077.473.059.663-.026.951.495"/></g><path d="m240.933 94.711s-2.943.146-4.27-2.57c-1.326-2.716 1.12-4.538 1.12-4.538s-2.299-2.229-.689-4.334c1.608-2.104 4.023-1.081 4.023-1.081s-1.483-2.866 1.058-3.801c2.538-.936 2.953.07 2.953.07s.132-2.626 4.026-1.17 5.157 4.422 4.596 6.006c-.563 1.584-1.913 4.546-4.926 7.069-3.011 2.524-5.885 4.186-7.891 4.349z" fill="#ccdde7"/></g><path d="m260.117 104.744s-2.074-3.823-5.325-5.585c-4.651 2.583-6.292 1.74-9.784-.111-3.491-1.852-7.243-3.982-7.243-3.982s2.657-.417 3.809-.941c1.15-.525 2.767-.467 2.767-.467s-.31-.389-.908-1.704c-.6-1.315-1.153-2.388-1.153-2.388s.275-.124 1.7-.046c1.426.078 2.957.241 2.957.241s-.998-1.464-1.318-2.312c-.319-.848-.729-2.184-.729-2.184s2.301.542 3.237.71c.938.168 1.931 1.04 1.931 1.04s-.241-2.273-.362-2.681c-.119-.409-.578-1.855-.578-1.855s1.811 1.36 2.443 1.733c.634.374 1.523 1.161 1.523 1.161s-.157-1.65.436-2.383c.593-.734.322-2.929.047-3.532-.273-.603-.045-.973-.045-.973s5.03 11.479 4.912 13.983-1.546 4.761-1.546 4.761 1.593 1.334 3.14 3.626c1.595 2.36 2.409 3.892 2.409 3.892z" fill="#00ab4e" stroke="#005a24"/></g><g fill="#fff"><path d="m238.047 88.857c-.969-.362-1.145 2.449-.284 3.49.859 1.041 1.923 1.439 2.722 1.018.802-.42.419-1.623.419-1.623s-1.328.109-1.596-1.203c-.265-1.31-.929-1.557-1.261-1.682z"/><path d="m240.103 87.81c-.17-.118-1.969-.094-2.557-1.865-.586-1.771.562-3.12 1.379-2.777.819.343.887 1.58 1.808 2.151.922.573 1.739 1.521 1.35 1.755-.391.232-1.497 1.067-1.98.736z"/><path d="m242.278 82.372c-.206-.136-1.41-2.312-.761-2.645.651-.333.792.661 1.654.887.86.229 1.353.332 1.459 1.05.104.719-1.142 1.505-2.352.708z"/><path d="m247.945 80.71c-.366-.223-1.641-1.787-1.346-2.471.294-.686 1.088-.994 1.823-.227.736.768 1.296 1.393 1.173 1.725-.122.332-.508 1.665-1.65.973z"/></g><g stroke-linecap="round" stroke-linejoin="round"><g stroke="#808285"><g fill="none"><path d="m242.09 86.85c-.6.249-1.206.85-1.505 1.412-.279.526-.113.972-.035 1.495"/><path d="m242.325 84.703c.28-.954.819-1.585 1.966-1.611"/><path d="m245.828 81.51c.385-.376.49-.907 1.091-.895.317.007.696.189.901.428"/><path d="m245.112 78.365c.233.747.66 2.169 1.465 2.364"/><path d="m240.918 82.095c.229.377.88.534 1.225.765.346.229.465.408.646.806"/><path d="m237.745 87.837c.608-.268 1.215-.054 1.808.067.465.096.662.026.907.569"/></g><path d="m251.635 106.536s-3.09-.287-4.064-3.316c-.977-3.029 1.847-4.562 1.847-4.562s-2.063-2.667-.071-4.62 4.354-.524 4.354-.524-1.116-3.209 1.671-3.804c2.785-.595 3.067.515 3.067.515s.53-2.717 4.371-.617c3.839 2.099 4.713 5.379 3.891 6.946-.823 1.566-2.675 4.452-6.191 6.629-3.516 2.181-6.76 3.484-8.875 3.353z" fill="#ccdde7"/></g><path d="m270.126 119.861s-1.59-4.294-4.714-6.617c-5.232 1.996-6.816.873-10.179-1.579-3.361-2.451-6.953-5.233-6.953-5.233s2.831-.036 4.11-.411c1.277-.375 2.953-.072 2.953-.072s-.265-.452-.692-1.913c-.427-1.46-.846-2.66-.846-2.66s.306-.088 1.78.206c1.475.295 3.045.694 3.045.694s-.82-1.675-1.027-2.606c-.206-.931-.435-2.385-.435-2.385s2.317.909 3.268 1.225c.952.316 1.856 1.372 1.856 1.372s.089-2.405.023-2.849c-.063-.443-.324-2.02-.324-2.02s1.684 1.688 2.287 2.172c.604.485 1.413 1.437 1.413 1.437s.084-1.743.811-2.418c.728-.676.774-3.004.576-3.674-.194-.669.101-1.02.101-1.02s3.524 12.715 3.025 15.307c-.496 2.592-2.322 4.73-2.322 4.73s1.461 1.629 2.729 4.249c1.311 2.698 1.93 4.417 1.93 4.417z" fill="#00ab4e" stroke="#005a24"/></g><g fill="#fff"><path d="m249.504 100.005c-.955-.522-1.561 2.381-.818 3.594.74 1.213 1.788 1.788 2.685 1.468.896-.318.679-1.629.679-1.629s-1.401-.085-1.483-1.492c-.082-1.404-.737-1.761-1.063-1.941z"/><path d="m251.803 99.22c-.159-.147-2.038-.392-2.386-2.325-.346-1.933 1.053-3.168 1.853-2.687.803.479.688 1.777 1.562 2.511.875.735 1.585 1.846 1.145 2.03-.442.184-1.72.889-2.174.471z"/><path d="m254.883 93.878c-.193-.172-1.124-2.62-.397-2.87.729-.249.727.808 1.592 1.173.862.367 1.361.548 1.363 1.312-.001.764-1.418 1.398-2.558.385z"/><path d="m261.038 92.995c-.349-.287-1.444-2.107-1.032-2.776.407-.671 1.281-.873 1.933.037.653.911 1.143 1.646.965 1.973-.179.327-.781 1.657-1.866.766z"/></g><g stroke-linecap="round" stroke-linejoin="round"><g stroke="#808285"><g fill="none"><path d="m254.017 98.517c-.661.17-1.384.706-1.78 1.246-.368.506-.263.996-.259 1.553"/><path d="m254.583 96.315c.435-.952 1.092-1.53 2.29-1.385"/><path d="m258.711 93.512c.458-.334.647-.872 1.271-.77.33.054.698.302.876.581"/><path d="m258.438 90.126c.13.813.361 2.36 1.172 2.682"/><path d="m253.507 93.387c.183.427.837.688 1.162.98.326.291.423.495.553.937"/><path d="m249.341 98.896c.675-.188 1.274.125 1.874.339.472.17.687.127.861.729"/></g><path d="m260.569 120.119s-3.155-.771-3.701-4.056c-.546-3.286 2.611-4.439 2.611-4.439s-1.729-3.078.634-4.794c2.36-1.716 4.588.125 4.588.125s-.664-3.493 2.313-3.682c2.975-.189 3.097 1.003 3.097 1.003s.965-2.732 4.62.031c3.652 2.761 4.056 6.291 2.965 7.787-1.093 1.496-3.451 4.199-7.426 5.915-3.973 1.717-7.532 2.57-9.701 2.11z" fill="#ccdde7"/></g><path d="m277.673 136.747s-.988-4.689-3.867-7.573c-5.723 1.265-7.19-.141-10.297-3.194-3.104-3.052-6.396-6.483-6.396-6.483s2.937.396 4.318.204c1.379-.192 3.068.378 3.068.378s-.205-.508-.424-2.086c-.219-1.577-.469-2.884-.469-2.884s.331-.045 1.813.486c1.48.531 3.045 1.185 3.045 1.185s-.592-1.86-.664-2.855c-.07-.996-.084-2.535-.084-2.535s2.26 1.295 3.195 1.768c.937.473 1.711 1.705 1.711 1.705s.46-2.476.461-2.945c.002-.469-.026-2.141-.026-2.141s1.485 2.005 2.035 2.599c.552.595 1.243 1.704 1.243 1.704s.354-1.792 1.209-2.379c.857-.589 1.262-2.992 1.16-3.715-.1-.722.26-1.041.26-1.041s1.701 13.704.789 16.31c-.912 2.607-3.13 4.541-3.13 4.541s1.264 1.91 2.176 4.816c.942 2.994 1.319 4.868 1.319 4.868z" fill="#00ab4e" stroke="#005a24"/></g><g fill="#fff"><path d="m259.363 113.031c-.91-.687-1.979 2.226-1.397 3.595.581 1.369 1.577 2.125 2.554 1.932.978-.192.953-1.582.953-1.582s-1.438-.303-1.309-1.771c.133-1.468-.491-1.938-.801-2.174z"/><path d="m261.863 112.57c-.142-.177-2.05-.718-2.114-2.773-.062-2.055 1.575-3.118 2.33-2.498.757.619.439 1.945 1.231 2.839.794.895 1.359 2.154.874 2.278-.483.123-1.914.656-2.321.154z"/><path d="m265.87 107.512c-.175-.208-.762-2.884.028-3.032.793-.146.629.947 1.467 1.458.838.512 1.326.776 1.212 1.567-.116.791-1.681 1.23-2.707.007z"/><path d="m272.378 107.541c-.317-.35-1.173-2.403-.645-3.032.526-.632 1.462-.708 1.996.334.537 1.042.931 1.878.696 2.19-.233.312-1.06 1.597-2.047.508z"/></g><g stroke-linecap="round" stroke-linejoin="round"><g stroke="#808285"><g fill="none"><path d="m264.263 112.181c-.71.075-1.54.519-2.033 1.018-.459.467-.425.99-.506 1.567"/><path d="m265.187 109.989c.595-.919 1.364-1.417 2.583-1.083"/><path d="m269.891 107.719c.524-.276.803-.803 1.433-.602.333.107.676.42.817.736"/><path d="m270.124 104.172c.011.862.014 2.499.803 2.957"/><path d="m264.521 106.793c.124.47.761.84 1.053 1.192.294.352.363.578.43 1.055"/><path d="m259.364 111.858c.727-.091 1.3.325 1.888.639.462.249.691.237.779.887"/></g><path d="m267.66 135.212s-2.958-1.341-2.888-4.669c.07-3.33 3.387-3.88 3.387-3.88s-1.13-3.345 1.509-4.594c2.637-1.25 4.485.97 4.485.97s-.007-3.556 2.953-3.191c2.958.364 2.858 1.558 2.858 1.558s1.452-2.507 4.534.884c3.079 3.389 2.823 6.932 1.475 8.201-1.35 1.268-4.167 3.489-8.391 4.44-4.221.954-7.875 1.134-9.922.281z" fill="#ccdde7"/></g><path d="m281.396 154.714s-.104-4.791-2.401-8.157c-5.857.186-7.04-1.467-9.529-5.042-2.486-3.573-5.088-7.553-5.088-7.553s2.813.932 4.206.999c1.391.066 2.945.938 2.945.938s-.107-.538-.031-2.128c.077-1.59.072-2.92.072-2.92s.334.017 1.691.812c1.357.796 2.774 1.727 2.774 1.727s-.238-1.937-.125-2.929c.114-.991.386-2.507.386-2.507s1.981 1.691 2.813 2.328c.833.638 1.366 1.992 1.366 1.992s.91-2.348.997-2.809c.089-.461.37-2.109.37-2.109s1.089 2.245 1.52 2.93c.433.687.907 1.904.907 1.904s.68-1.695 1.628-2.114c.951-.42 1.793-2.707 1.826-3.437.036-.728.448-.975.448-.975s-.86 13.782-2.238 16.175c-1.379 2.394-3.915 3.884-3.915 3.884s.889 2.111 1.248 5.135c.373 3.117.397 5.028.397 5.028z" fill="#00ab4e" stroke="#005a24"/></g><g fill="#fff"><path d="m267.785 128.023c-.769-.843-2.357 1.822-2.038 3.275.318 1.453 1.157 2.379 2.152 2.371.997-.009 1.229-1.379 1.229-1.379s-1.357-.563-.959-1.983c.402-1.417-.124-1.994-.384-2.284z"/><path d="m270.327 128.033c-.106-.201-1.882-1.084-1.565-3.116.318-2.03 2.124-2.773 2.751-2.024.63.749.072 1.993.686 3.018.615 1.026.938 2.369.438 2.4-.498.031-2.004.291-2.31-.278z"/><path d="m275.199 123.803c-.134-.237-.216-2.976.588-2.975.807.003.443 1.047 1.173 1.704.729.658 1.159 1.008.901 1.764-.26.756-1.88.898-2.662-.493z"/><path d="m281.59 125.033c-.247-.402-.709-2.578-.073-3.099.634-.524 1.567-.425 1.9.697.335 1.124.567 2.018.279 2.282-.287.263-1.338 1.373-2.106.12z"/></g><g stroke-linecap="round" stroke-linejoin="round"><g stroke="#808285"><g fill="none"><path d="m272.757 128.094c-.712-.057-1.609.226-2.187.625-.537.375-.601.895-.787 1.446"/><path d="m274.069 126.11c.755-.793 1.603-1.14 2.739-.587"/><path d="m279.112 124.749c.566-.175.938-.641 1.52-.327.307.167.586.538.667.875"/><path d="m279.997 121.306c-.148.85-.448 2.458.242 3.055"/><path d="m274.006 122.846c.035.485.592.966.814 1.366.224.4.25.636.227 1.116"/><path d="m268.002 126.871c.731.044 1.218.559 1.737.977.408.33.636.36.603 1.015"/></g><path d="m271.607 152.669s-2.676-1.841-2.019-5.105c.656-3.266 4.018-3.222 4.018-3.222s-.522-3.492 2.295-4.256c2.816-.766 4.244 1.746 4.244 1.746s.621-3.501 3.471-2.621c2.847.88 2.538 2.038 2.538 2.038s1.871-2.212 4.307 1.67c2.434 3.879 1.558 7.321.006 8.333-1.552 1.01-4.717 2.699-9.043 2.892-4.323.193-7.952-.274-9.817-1.475z" fill="#ccdde7"/></g><path d="m281.689 174.289s.741-4.734-.927-8.453c-5.797-.851-6.67-2.686-8.489-6.644-1.818-3.956-3.677-8.332-3.677-8.332s2.604 1.413 3.964 1.724c1.357.311 2.733 1.444 2.733 1.444s-.01-.548.345-2.101c.357-1.552.586-2.862.586-2.862s.326.076 1.522 1.098c1.195 1.022 2.427 2.189 2.427 2.189s.106-1.949.394-2.905c.287-.956.822-2.4.822-2.4s1.651 2.014 2.358 2.788.993 2.201.993 2.201 1.31-2.15 1.478-2.589.735-2.011.735-2.011.677 2.402.979 3.152c.305.752.557 2.034.557 2.034s.968-1.548 1.977-1.794c1.01-.246 2.241-2.348 2.403-3.061.163-.71.612-.88.612-.88s-3.277 13.415-5.056 15.527c-1.779 2.113-4.539 3.133-4.539 3.133s.503 2.234.323 5.275c-.183 3.134-.496 5.02-.496 5.02z" fill="#00ab4e" stroke="#005a24"/></g><g fill="#fff"><path d="m272.998 145.615c-.608-.965-2.643 1.377-2.583 2.865.057 1.486.719 2.546 1.699 2.713.983.167 1.454-1.141 1.454-1.141s-1.236-.794-.595-2.121c.646-1.324.23-1.985.025-2.316z"/><path d="m275.498 146.073c-.069-.216-1.66-1.399-.991-3.344.672-1.942 2.581-2.354 3.065-1.507.488.848-.28 1.975.143 3.091.425 1.119.506 2.497.009 2.439-.497-.056-2.025-.066-2.226-.679z"/><path d="m281.04 142.768c-.089-.257.313-2.967 1.104-2.825.794.146.252 1.109.854 1.884.602.776.963 1.197.576 1.896-.39.697-2.009.552-2.534-.955z"/><path d="m287.114 145.105c-.173-.439-.243-2.663.475-3.063.716-.404 1.617-.142 1.747 1.021.132 1.166.203 2.087-.128 2.295-.328.209-1.559 1.117-2.094-.253z"/></g><g stroke-linecap="round" stroke-linejoin="round"><g stroke="#808285"><g fill="none"><path d="m277.88 146.561c-.69-.182-1.624-.062-2.263.229-.595.274-.749.774-1.03 1.285"/><path d="m279.521 144.84c.883-.647 1.779-.839 2.8-.095"/><path d="m284.726 144.389c.588-.072 1.036-.466 1.553-.054.272.219.482.632.503.979"/><path d="m286.204 141.156c-.296.81-.876 2.341-.301 3.049"/><path d="m280.035 141.616c-.052.484.412 1.056.561 1.489.148.433.134.669.026 1.138"/><path d="m273.415 144.519c.712.172 1.101.765 1.538 1.268.343.396.562.466.413 1.105"/></g><path d="m273.059 172.268s-2.676-1.841-2.019-5.105c.656-3.266 4.018-3.222 4.018-3.222s-.522-3.492 2.295-4.256c2.816-.766 4.244 1.746 4.244 1.746s.621-3.501 3.471-2.621c2.847.88 2.538 2.038 2.538 2.038s1.871-2.212 4.307 1.67c2.434 3.879 1.558 7.321.006 8.333-1.552 1.01-4.717 2.699-9.043 2.892-4.324.193-7.953-.274-9.817-1.475z" fill="#ccdde7"/></g><path d="m283.141 193.887s.741-4.734-.927-8.453c-5.797-.851-6.67-2.686-8.489-6.644-1.818-3.956-3.677-8.332-3.677-8.332s2.604 1.413 3.964 1.724c1.357.311 2.733 1.444 2.733 1.444s-.01-.548.345-2.101c.357-1.552.586-2.862.586-2.862s.326.076 1.522 1.098c1.195 1.022 2.427 2.189 2.427 2.189s.106-1.949.394-2.905c.287-.956.822-2.4.822-2.4s1.651 2.014 2.358 2.788.993 2.201.993 2.201 1.31-2.15 1.478-2.589.735-2.011.735-2.011.677 2.402.979 3.152c.305.752.557 2.034.557 2.034s.968-1.548 1.977-1.794c1.01-.246 2.241-2.348 2.403-3.061.163-.71.612-.88.612-.88s-3.277 13.415-5.056 15.527c-1.779 2.113-4.539 3.133-4.539 3.133s.503 2.234.323 5.275c-.183 3.134-.496 5.02-.496 5.02z" fill="#00ab4e" stroke="#005a24"/></g><g fill="#fff"><path d="m274.449 165.213c-.608-.965-2.643 1.377-2.583 2.865.057 1.486.719 2.546 1.699 2.713.983.167 1.454-1.141 1.454-1.141s-1.236-.794-.595-2.121c.646-1.323.23-1.985.025-2.316z"/><path d="m276.949 165.671c-.069-.216-1.66-1.399-.991-3.344.672-1.942 2.581-2.354 3.065-1.507.488.848-.28 1.975.143 3.091.425 1.119.506 2.497.009 2.439-.497-.055-2.025-.065-2.226-.679z"/><path d="m282.491 162.366c-.089-.257.313-2.967 1.104-2.825.794.146.252 1.109.854 1.884.602.776.963 1.197.576 1.896-.39.698-2.008.553-2.534-.955z"/><path d="m288.565 164.704c-.173-.439-.243-2.663.475-3.063.716-.404 1.617-.142 1.747 1.021.132 1.166.203 2.087-.128 2.295-.328.209-1.558 1.116-2.094-.253z"/></g><g stroke-linecap="round" stroke-linejoin="round"><g stroke="#808285"><g fill="none"><path d="m279.331 166.16c-.69-.182-1.624-.062-2.263.229-.595.274-.749.774-1.03 1.285"/><path d="m280.973 164.438c.883-.647 1.779-.839 2.8-.095"/><path d="m286.177 163.988c.588-.072 1.036-.466 1.553-.054.272.219.482.632.503.979"/><path d="m287.655 160.755c-.296.81-.876 2.341-.301 3.049"/><path d="m281.486 161.214c-.052.484.412 1.056.561 1.489.148.433.134.669.026 1.138"/><path d="m274.866 164.118c.712.172 1.101.765 1.538 1.268.343.396.562.466.413 1.105"/></g><path d="m272.812 191.352s-2.71-1.866-2.045-5.172c.665-3.308 4.07-3.264 4.07-3.264s-.529-3.537 2.325-4.312c2.853-.775 4.299 1.769 4.299 1.769s.63-3.547 3.517-2.655c2.884.891 2.571 2.064 2.571 2.064s1.896-2.241 4.363 1.692c2.465 3.929 1.577 7.417.006 8.441-1.572 1.023-4.778 2.734-9.161 2.93-4.38.196-8.057-.277-9.945-1.493z" fill="#ccdde7"/></g><path d="m283.025 213.253s.751-4.796-.938-8.563c-5.873-.862-6.757-2.721-8.601-6.73-1.842-4.008-3.725-8.441-3.725-8.441s2.638 1.432 4.016 1.747c1.375.315 2.77 1.463 2.77 1.463s-.01-.556.349-2.128c.362-1.572.594-2.9.594-2.9s.33.077 1.542 1.112c1.211 1.036 2.459 2.218 2.459 2.218s.107-1.974.398-2.943c.291-.968.833-2.431.833-2.431s1.673 2.041 2.39 2.824c.716.785 1.006 2.23 1.006 2.23s1.327-2.178 1.497-2.623.745-2.037.745-2.037.686 2.434.992 3.194c.309.762.563 2.061.563 2.061s.98-1.569 2.003-1.817c1.022-.25 2.271-2.379 2.435-3.101.165-.72.62-.892.62-.892s-3.32 13.59-5.122 15.729c-1.802 2.141-4.598 3.174-4.598 3.174s.509 2.264.327 5.344c-.185 3.175-.502 5.085-.502 5.085z" fill="#00ab4e" stroke="#005a24"/></g><g fill="#fff"><path d="m274.221 184.205c-.616-.978-2.677 1.396-2.617 2.902.058 1.505.729 2.579 1.722 2.748.996.169 1.474-1.155 1.474-1.155s-1.253-.805-.603-2.148c.653-1.342.232-2.011.024-2.347z"/><path d="m276.753 184.669c-.07-.219-1.682-1.417-1.004-3.387.681-1.968 2.615-2.385 3.105-1.527.495.858-.284 2 .145 3.131.431 1.134.513 2.53.009 2.471-.504-.056-2.051-.066-2.255-.688z"/><path d="m282.367 181.321c-.09-.26.317-3.006 1.118-2.862.805.147.256 1.124.866 1.909.609.786.976 1.212.583 1.92-.395.707-2.034.56-2.567-.967z"/><path d="m288.521 183.689c-.176-.445-.247-2.698.48-3.104.726-.41 1.639-.144 1.77 1.035.134 1.181.206 2.114-.129 2.325-.332.211-1.579 1.131-2.121-.256z"/></g><g stroke-linecap="round" stroke-linejoin="round"><g stroke="#808285"><g fill="none"><path d="m279.166 185.164c-.699-.185-1.645-.062-2.292.232-.603.278-.759.785-1.044 1.302"/><path d="m280.829 183.42c.895-.656 1.803-.85 2.837-.096"/><path d="m286.102 182.963c.596-.073 1.05-.472 1.573-.055.275.221.488.64.509.991"/><path d="m287.6 179.688c-.3.82-.888 2.371-.305 3.089"/><path d="m281.35 180.154c-.053.49.418 1.069.568 1.508.15.438.135.678.026 1.153"/><path d="m274.643 183.095c.722.174 1.115.775 1.559 1.284.348.401.569.472.419 1.12"/></g><path d="m273.537 212.644s-2.71-1.866-2.045-5.172c.665-3.308 4.07-3.264 4.07-3.264s-.529-3.537 2.325-4.312c2.853-.775 4.299 1.769 4.299 1.769s.63-3.547 3.517-2.655c2.884.891 2.571 2.064 2.571 2.064s1.896-2.241 4.363 1.692c2.465 3.929 1.577 7.417.006 8.441-1.572 1.023-4.778 2.734-9.161 2.93-4.379.196-8.056-.276-9.945-1.493z" fill="#ccdde7"/></g><path d="m283.751 234.545s.751-4.796-.938-8.563c-5.873-.861-6.757-2.721-8.601-6.73-1.842-4.008-3.725-8.441-3.725-8.441s2.638 1.432 4.016 1.747c1.375.315 2.77 1.463 2.77 1.463s-.01-.556.349-2.128c.362-1.572.594-2.9.594-2.9s.33.077 1.542 1.112c1.211 1.036 2.459 2.218 2.459 2.218s.107-1.974.398-2.943c.291-.968.833-2.431.833-2.431s1.673 2.041 2.39 2.824c.716.785 1.006 2.23 1.006 2.23s1.327-2.178 1.497-2.623.745-2.037.745-2.037.686 2.434.992 3.194c.309.762.563 2.061.563 2.061s.98-1.569 2.003-1.817c1.022-.25 2.271-2.379 2.435-3.101.165-.72.62-.892.62-.892s-3.32 13.59-5.122 15.729c-1.802 2.141-4.598 3.174-4.598 3.174s.509 2.264.327 5.344c-.185 3.176-.502 5.086-.502 5.086z" fill="#00ab4e" stroke="#005a24"/></g><g fill="#fff"><path d="m274.946 205.498c-.616-.978-2.677 1.396-2.617 2.902.058 1.505.729 2.579 1.722 2.748.996.169 1.474-1.155 1.474-1.155s-1.253-.805-.603-2.148c.653-1.342.232-2.012.024-2.347z"/><path d="m277.479 205.961c-.07-.219-1.682-1.417-1.004-3.387.681-1.968 2.615-2.385 3.105-1.527.495.858-.284 2 .145 3.131.431 1.134.513 2.53.009 2.471-.505-.056-2.051-.066-2.255-.688z"/><path d="m283.093 202.613c-.09-.26.317-3.006 1.118-2.862.805.147.256 1.124.866 1.909.609.786.976 1.212.583 1.92-.395.708-2.034.561-2.567-.967z"/><path d="m289.247 204.981c-.176-.445-.247-2.698.48-3.104.726-.41 1.639-.144 1.77 1.035.134 1.181.206 2.114-.129 2.325-.333.212-1.579 1.132-2.121-.256z"/></g><g stroke-linecap="round" stroke-linejoin="round"><g stroke="#808285"><g fill="none"><path d="m279.892 206.456c-.699-.185-1.645-.062-2.292.232-.603.278-.759.785-1.044 1.302"/><path d="m281.555 204.712c.895-.656 1.803-.85 2.837-.096"/><path d="m286.827 204.256c.596-.073 1.05-.472 1.573-.055.275.221.488.64.509.991"/><path d="m288.325 200.981c-.3.82-.888 2.371-.305 3.089"/><path d="m282.075 201.446c-.053.49.418 1.069.568 1.508.15.438.135.678.026 1.153"/><path d="m275.368 204.388c.722.174 1.115.775 1.559 1.284.348.401.569.472.419 1.12"/></g><path d="m273.767 233.111s-2.49-2.149-1.469-5.364c1.021-3.216 4.401-2.801 4.401-2.801s-.14-3.574 2.782-4.033c2.92-.459 4.08 2.228 4.08 2.228s1.013-3.458 3.785-2.255c2.77 1.201 2.331 2.333 2.331 2.333s2.128-2.021 4.152 2.158c2.021 4.174.759 7.544-.915 8.391-1.674.846-5.048 2.196-9.426 1.913-4.374-.284-7.977-1.155-9.721-2.57z" fill="#ccdde7"/></g><path d="m281.531 255.995s1.269-4.685 0-8.614c-5.743-1.496-6.419-3.441-7.814-7.627-1.395-4.185-2.782-8.797-2.782-8.797s2.466 1.711 3.801 2.174c1.333.464 2.594 1.757 2.594 1.757s.051-.554.579-2.077c.531-1.523.906-2.817.906-2.817s.319.111 1.411 1.272c1.091 1.162 2.202 2.473 2.202 2.473s.322-1.95.718-2.882c.395-.931 1.093-2.325 1.093-2.325s1.44 2.21 2.067 3.066c.626.857.757 2.326.757 2.326s1.557-2.021 1.774-2.443c.217-.423.963-1.943.963-1.943s.416 2.494.638 3.283c.224.791.335 2.109.335 2.109s1.146-1.452 2.189-1.589c1.044-.136 2.517-2.117 2.758-2.816.243-.697.714-.818.714-.818s-4.782 13.146-6.807 15.076c-2.024 1.931-4.916 2.653-4.916 2.653s.259 2.306-.258 5.348c-.529 3.136-1.054 5-1.054 5z" fill="#00ab4e" stroke="#005a24"/></g><g fill="#fff"><path d="m275.946 226.161c-.506-1.039-2.813 1.095-2.918 2.6-.106 1.503.443 2.644 1.412 2.919.972.277 1.591-.987 1.591-.987s-1.158-.937-.365-2.201c.796-1.263.45-1.974.28-2.331z"/><path d="m278.413 226.898c-.046-.226-1.518-1.592-.629-3.477.892-1.882 2.86-2.086 3.254-1.179.398.907-.501 1.957-.198 3.129.305 1.173.234 2.57-.261 2.457-.494-.11-2.031-.289-2.166-.93z"/><path d="m284.358 224.182c-.061-.268.644-2.952 1.424-2.723.784.235.132 1.146.653 1.992.52.849.837 1.313.37 1.972-.47.661-2.082.336-2.447-1.241z"/><path d="m290.218 227.208c-.126-.462.049-2.709.816-3.032.766-.328 1.645.035 1.646 1.221.004 1.188-.026 2.124-.382 2.298-.354.172-1.693.951-2.08-.487z"/></g><g stroke-linecap="round" stroke-linejoin="round"><g stroke="#808285"><g fill="none"><path d="m280.758 227.653c-.675-.261-1.628-.241-2.304-.019-.629.21-.84.697-1.18 1.18"/><path d="m282.601 226.102c.961-.555 1.885-.648 2.831.214"/><path d="m287.892 226.223c.601-.008 1.095-.354 1.57.117.249.25.415.689.397 1.041"/><path d="m289.738 223.131c-.388.782-1.142 2.26-.64 3.037"/><path d="m283.475 222.912c-.106.481.299 1.107.4 1.561.102.451.061.688-.1 1.148"/><path d="m276.486 225.104c.699.251 1.024.892 1.41 1.445.302.437.514.532.294 1.159"/></g><path d="m271.601 254.041s-2.29-2.361-.987-5.473c1.303-3.113 4.633-2.4 4.633-2.4s.177-3.571 3.128-3.771c2.95-.199 3.867 2.58 3.867 2.58s1.315-3.354 3.97-1.91c2.652 1.44 2.115 2.529 2.115 2.529s2.3-1.823 3.945 2.518c1.645 4.337.088 7.581-1.654 8.276-1.742.693-5.223 1.741-9.559 1.07-4.333-.667-7.845-1.855-9.458-3.419z" fill="#ccdde7"/></g><path d="m277.309 277.523s1.68-4.554.765-8.58c-5.59-2-6.091-3.997-7.11-8.29-1.017-4.291-1.992-9.008-1.992-9.008s2.306 1.923 3.594 2.502c1.287.58 2.429 1.979 2.429 1.979s.099-.546.761-2.018c.664-1.47 1.151-2.726 1.151-2.726s.309.14 1.294 1.393c.983 1.254 1.975 2.659 1.975 2.659s.493-1.915.97-2.808c.476-.893 1.294-2.22 1.294-2.22s1.239 2.329 1.788 3.237c.547.911.548 2.384.548 2.384s1.729-1.873 1.983-2.275 1.132-1.852 1.132-1.852.193 2.521.345 3.328c.152.808.146 2.131.146 2.131s1.27-1.346 2.321-1.39c1.052-.042 2.694-1.886 2.997-2.561.304-.673.783-.753.783-.753s-5.928 12.671-8.115 14.414c-2.188 1.744-5.132 2.207-5.132 2.207s.053 2.32-.73 5.304c-.806 3.078-1.492 4.888-1.492 4.888z" fill="#00ab4e" stroke="#005a24"/></g><g fill="#fff"><path d="m274.389 247.313c-.412-1.08-2.899.841-3.137 2.33-.24 1.488.207 2.673 1.146 3.033.944.361 1.673-.843 1.673-.843s-1.07-1.035-.169-2.225c.906-1.185.624-1.926.487-2.295z"/><path d="m276.779 248.265c-.025-.229-1.369-1.72-.317-3.519 1.054-1.796 3.033-1.823 3.346-.886.316.939-.673 1.904-.475 3.1.199 1.195.005 2.58-.478 2.424-.483-.155-1.997-.469-2.076-1.119z"/><path d="m282.943 246.087c-.037-.273.901-2.885 1.659-2.587.76.304.029 1.152.474 2.042.442.892.719 1.381.193 1.997s-2.104.149-2.326-1.452z"/><path d="m288.512 249.619c-.085-.471.288-2.693 1.081-2.948.792-.259 1.635.181 1.532 1.362-.102 1.184-.214 2.113-.584 2.254-.368.142-1.77.799-2.029-.668z"/></g><g stroke-linecap="round" stroke-linejoin="round"><g stroke="#808285"><g fill="none"><path d="m279.049 249.226c-.649-.32-1.6-.385-2.293-.224-.646.154-.898.62-1.279 1.07"/><path d="m281.022 247.843c1.006-.468 1.935-.479 2.8.463"/><path d="m286.281 248.432c.599.046 1.122-.256 1.554.256.226.271.353.724.304 1.072"/><path d="m288.395 245.516c-.455.745-1.336 2.149-.906 2.969"/><path d="m282.175 244.742c-.148.471.199 1.13.261 1.591.062.458-.002.691-.201 1.135"/><path d="m275.02 246.307c.675.313.941.979 1.276 1.565.263.462.466.575.19 1.181"/></g><path d="m268.731 274.4s-1.643-2.938.466-5.67c2.107-2.734 5.211-1.152 5.211-1.152s1.116-3.483 4.086-2.902c2.968.58 3.143 3.569 3.143 3.569s2.185-2.969 4.427-.843c2.243 2.123 1.425 3.058 1.425 3.058s2.754-1.196 3.236 3.528c.482 4.72-1.911 7.517-3.816 7.744-1.904.228-5.621.345-9.729-1.46-4.108-1.802-7.267-3.901-8.449-5.872z" fill="#ccdde7"/></g><path d="m268.186 299.115s2.86-4.059 3.017-8.279c-4.998-3.45-4.967-5.557-4.845-10.068.126-4.509.405-9.428.405-9.428s1.771 2.507 2.893 3.419c1.12.913 1.879 2.596 1.879 2.596s.242-.514 1.284-1.793c1.044-1.278 1.857-2.391 1.857-2.391s.268.219.91 1.717c.643 1.499 1.252 3.149 1.252 3.149s.992-1.764 1.698-2.521c.705-.757 1.864-1.854 1.864-1.854s.611 2.629.914 3.671c.301 1.045-.086 2.501-.086 2.501s2.203-1.396 2.56-1.727c.357-.33 1.606-1.531 1.606-1.531s-.473 2.542-.536 3.38c-.063.839-.416 2.145-.416 2.145s1.609-.995 2.66-.762c1.051.236 3.16-1.154 3.638-1.741.477-.585.972-.538.972-.538s-9.197 10.963-11.819 12.109c-2.622 1.148-5.654.829-5.654.829s-.559 2.308-2.119 5.05c-1.607 2.83-2.763 4.438-2.763 4.438z" fill="#00ab4e" stroke="#005a24"/></g><g fill="#fff"><path d="m273.26 268.483c-.123-1.176-3.088.068-3.714 1.478-.631 1.407-.5 2.696.333 3.3.839.606 1.876-.392 1.876-.392s-.785-1.306.419-2.244c1.208-.933 1.125-1.74 1.086-2.142z"/><path d="m275.371 270.055c.035-.232-.899-2.061.614-3.562 1.515-1.497 3.479-1.003 3.54.006.065 1.013-1.167 1.706-1.286 2.939-.117 1.233-.674 2.552-1.11 2.27-.437-.28-1.851-.99-1.758-1.653z"/><path d="m282.039 269.526c.034-.279 1.651-2.614 2.321-2.12.671.501-.274 1.147-.07 2.144.203.997.347 1.554-.334 2.024-.684.471-2.12-.406-1.917-2.048z"/><path d="m286.612 274.485c.04-.487.994-2.586 1.845-2.629.852-.049 1.568.609 1.156 1.75-.413 1.143-.769 2.031-1.171 2.073-.401.044-1.961.324-1.83-1.194z"/></g><g stroke-linecap="round" stroke-linejoin="round"><g stroke="#808285"><g fill="none"><path d="m277.362 271.603c-.559-.487-1.48-.802-2.208-.825-.679-.018-1.052.376-1.546.721"/><path d="m279.677 270.756c1.118-.197 2.038.037 2.646 1.195"/><path d="m284.72 272.723c.58.204 1.177.043 1.469.663.151.327.158.808.018 1.14"/><path d="m287.577 270.398c-.646.616-1.888 1.772-1.678 2.695"/><path d="m281.633 267.995c-.271.426-.101 1.169-.16 1.642-.061.468-.186.682-.499 1.067"/><path d="m274.148 267.656c.585.486.673 1.216.85 1.883.138.525.309.691-.123 1.218"/></g><path d="m260.034 293.431s-1.484-3.154.892-5.823c2.375-2.673 5.466-.813 5.466-.813s1.406-3.518 4.432-2.702c3.023.813 2.987 3.914 2.987 3.914s2.472-2.908 4.635-.551c2.163 2.356 1.25 3.263 1.25 3.263s2.932-1.037 3.087 3.879c.157 4.909-2.518 7.626-4.502 7.723s-5.832-.05-9.945-2.212c-4.111-2.161-7.224-4.557-8.302-6.678z" fill="#ccdde7"/></g><path d="m257.682 318.921s3.248-3.985 3.715-8.334c-4.912-3.926-4.728-6.1-4.275-10.751.457-4.648 1.101-9.709 1.101-9.709s1.649 2.718 2.741 3.741c1.091 1.023 1.753 2.816 1.753 2.816s.287-.513 1.456-1.759c1.171-1.244 2.092-2.335 2.092-2.335s.261.245.816 1.84c.555 1.594 1.064 3.343 1.064 3.343s1.153-1.75 1.938-2.48c.783-.73 2.06-1.779 2.06-1.779s.441 2.76.679 3.857c.234 1.101-.271 2.577-.271 2.577s2.377-1.281 2.77-1.598c.393-.315 1.771-1.466 1.771-1.466s-.673 2.592-.799 3.453c-.125.861-.585 2.185-.585 2.185s1.734-.912 2.804-.595c1.068.321 3.348-.963 3.883-1.535.535-.57 1.043-.485 1.043-.485s-10.294 10.659-13.085 11.653c-2.793.996-5.901.447-5.901.447s-.744 2.343-2.555 5.063c-1.866 2.808-3.176 4.385-3.176 4.385z" fill="#00ab4e" stroke="#005a24"/></g><g fill="#fff"><path d="m265.14 287.646c-.041-1.224-3.194-.153-3.943 1.258-.753 1.407-.711 2.749.105 3.432.823.688 1.967-.269 1.967-.269s-.717-1.405.595-2.287c1.315-.876 1.288-1.717 1.276-2.134z"/><path d="m267.207 289.422c.054-.238-.779-2.193.893-3.635 1.674-1.437 3.667-.784 3.656.263-.005 1.051-1.328 1.678-1.541 2.942-.21 1.267-.881 2.588-1.312 2.265-.43-.32-1.839-1.156-1.696-1.835z"/><path d="m274.134 289.359c.056-.287 1.896-2.581 2.552-2.022.656.566-.367 1.165-.229 2.208.138 1.046.246 1.631-.491 2.068-.739.437-2.161-.574-1.832-2.254z"/><path d="m278.499 294.813c.076-.501 1.214-2.6 2.096-2.583.884.012 1.576.743 1.067 1.892-.509 1.15-.94 2.043-1.359 2.057-.417.014-2.049.191-1.804-1.366z"/></g><g stroke-linecap="round" stroke-linejoin="round"><g stroke="#808285"><g fill="none"><path d="m269.153 291.165c-.543-.544-1.472-.936-2.223-1.013-.699-.066-1.113.313-1.648.633"/><path d="m271.604 290.458c1.169-.123 2.103.186 2.646 1.426"/><path d="m276.672 292.854c.584.253 1.212.129 1.47.791.132.35.104.846-.065 1.179"/><path d="m279.791 290.66c-.713.59-2.078 1.694-1.928 2.663"/><path d="m273.825 287.748c-.311.419-.188 1.199-.284 1.684-.097.479-.241.69-.593 1.066"/><path d="m266.118 286.856c.569.544.606 1.305.742 2.006.104.553.269.736-.216 1.249"/></g><path d="m247.075 309.801s-.789-3.396 2.094-5.507c2.883-2.115 5.515.351 5.515.351s2.112-3.144 4.899-1.712c2.786 1.429 2.101 4.453 2.101 4.453s3.026-2.325 4.647.434c1.621 2.758.538 3.452.538 3.452s3.084-.399 2.204 4.44c-.875 4.833-4.061 6.928-6.021 6.606-1.96-.321-5.691-1.271-9.26-4.248-3.566-2.973-6.107-5.969-6.717-8.269z" fill="#ccdde7"/></g><path d="m239.43 334.23s4.012-3.215 5.38-7.369c-3.979-4.868-3.343-6.955-1.926-11.408 1.422-4.449 3.112-9.263 3.112-9.263s1.043 3.003 1.896 4.233c.853 1.229 1.124 3.121 1.124 3.121s.388-.441 1.792-1.414c1.406-.972 2.535-1.845 2.535-1.845s.203.294.412 1.97c.209 1.675.34 3.492.34 3.492s1.495-1.47 2.415-2.02c.919-.55 2.387-1.308 2.387-1.308s-.147 2.791-.146 3.914c-.001 1.125-.805 2.463-.805 2.463s2.593-.754 3.043-.981c.45-.226 2.039-1.062 2.039-1.062s-1.202 2.394-1.506 3.209c-.303.815-1.03 2.014-1.03 2.014s1.888-.528 2.866.006c.978.538 3.476-.239 4.119-.687.643-.445 1.121-.256 1.121-.256s-12.301 8.264-15.238 8.65c-2.939.388-5.863-.801-5.863-.801s-1.22 2.135-3.56 4.414c-2.414 2.354-4.025 3.621-4.025 3.621z" fill="#00ab4e" stroke="#005a24"/></g><g fill="#fff"><path d="m253.28 305.216c.217-1.205-3.091-.819-4.119.403-1.031 1.218-1.271 2.538-.616 3.377.66.845 1.979.15 1.979.15s-.406-1.524 1.061-2.111c1.47-.581 1.621-1.409 1.695-1.819z"/><path d="m254.93 307.386c.103-.222-.302-2.309 1.635-3.367 1.938-1.054 3.75.002 3.521 1.023-.226 1.026-1.65 1.362-2.124 2.554-.471 1.194-1.404 2.346-1.758 1.939-.354-.403-1.556-1.515-1.274-2.149z"/><path d="m261.716 308.777c.114-.27 2.395-2.127 2.919-1.442.523.691-.604 1.062-.687 2.11-.085 1.052-.102 1.646-.914 1.92-.814.272-1.992-1.014-1.318-2.588z"/><path d="m264.841 315.024c.179-.474 1.731-2.287 2.59-2.086.862.196 1.386 1.057.647 2.073-.738 1.018-1.348 1.8-1.761 1.726-.411-.072-2.043-.241-1.476-1.713z"/></g><g stroke-linecap="round" stroke-linejoin="round"><g stroke="#808285"><g fill="none"><path d="m256.468 309.498c-.417-.646-1.243-1.224-1.961-1.456-.67-.212-1.154.072-1.745.272"/><path d="m259.013 309.32c1.168.125 2.017.623 2.288 1.949"/><path d="m263.465 312.727c.518.37 1.157.38 1.271 1.082.056.369-.076.849-.311 1.139"/><path d="m266.975 311.235c-.821.427-2.388 1.221-2.443 2.199"/><path d="m261.752 307.137c-.392.345-.436 1.133-.631 1.587-.195.448-.381.624-.804.918"/><path d="m254.403 304.648c.442.651.319 1.403.305 2.117-.015.563.108.776-.473 1.176"/></g><path d="m231.381 323.886s.254-3.64 3.787-4.866c3.535-1.23 5.41 2.045 5.41 2.045s3.08-2.496 5.429-.207c2.349 2.286.733 5.102.733 5.102s3.742-1.396 4.518 1.862c.773 3.258-.522 3.619-.522 3.619s3.207.548.84 5.12c-2.361 4.567-6.192 5.684-8.056 4.76-1.862-.924-5.304-3.021-7.959-7.096-2.655-4.072-4.278-7.851-4.18-10.339z" fill="#ccdde7"/></g><path d="m216.223 345.979s5.003-1.984 7.648-5.721c-2.486-6.093-1.208-7.986 1.579-12.006 2.789-4.015 5.96-8.312 5.96-8.312s.121 3.325.596 4.818c.476 1.492.166 3.469.166 3.469s.523-.322 2.228-.864c1.706-.541 3.104-1.067 3.104-1.067s.113.357-.192 2.098-.734 3.6-.734 3.6 1.948-1.012 3.037-1.279 2.791-.574 2.791-.574-1.006 2.746-1.349 3.871c-.348 1.125-1.563 2.217-1.563 2.217s2.826.043 3.347-.047c.521-.087 2.366-.436 2.366-.436s-1.938 2.026-2.493 2.749c-.553.723-1.649 1.697-1.649 1.697s2.051.053 2.866.888c.813.838 3.551.828 4.333.578.779-.248 1.2.089 1.2.089s-14.848 4.487-17.906 3.973c-3.061-.517-5.621-2.604-5.621-2.604s-1.876 1.761-4.918 3.322c-3.139 1.614-5.141 2.386-5.141 2.386z" fill="#00ab4e" stroke="#005a24"/></g><g fill="#fff"><path d="m238.999 321.205c.587-1.139-2.841-1.77-4.246-.862-1.405.9-2.052 2.148-1.654 3.189.401 1.048 1.935.759 1.935.759s.063-1.65 1.71-1.787c1.649-.129 2.055-.912 2.255-1.299z"/><path d="m239.982 323.883c.171-.19.408-2.402 2.67-2.866 2.265-.459 3.753 1.154 3.209 2.105-.542.958-2.07.855-2.91 1.902-.839 1.051-2.126 1.916-2.355 1.4-.23-.511-1.09-1.993-.614-2.541z"/><path d="m246.345 327.361c.197-.235 3.05-1.393 3.364-.546.312.853-.931.876-1.336 1.9-.408 1.026-.607 1.616-1.505 1.64-.897.022-1.68-1.627-.523-2.994z"/><path d="m247.552 334.571c.324-.418 2.435-1.756 3.232-1.291.803.462 1.062 1.483.01 2.273-1.051.791-1.901 1.388-2.291 1.186-.39-.198-1.97-.868-.951-2.168z"/></g><g stroke-linecap="round" stroke-linejoin="round"><g stroke="#808285"><g fill="none"><path d="m240.872 326.469c-.219-.773-.868-1.605-1.515-2.06-.604-.417-1.177-.282-1.83-.264"/><path d="m243.474 327.074c1.13.483 1.826 1.243 1.689 2.653"/><path d="m246.881 331.85c.404.529 1.041.736.938 1.474-.057.387-.337.825-.66 1.044"/><path d="m250.852 331.437c-.954.175-2.765.487-3.121 1.449"/><path d="m246.886 325.73c-.498.225-.784 1-1.12 1.394-.333.389-.572.508-1.086.672"/><path d="m240.297 320.982c.242.787-.112 1.502-.346 2.213-.188.558-.13.81-.835 1.03"/></g><path d="m211.932 334.738s1.443-3.635 5.451-3.741 4.863 3.849 4.863 3.849 3.955-1.55 5.611 1.55-.908 5.451-.908 5.451 4.275-.213 4.008 3.367-1.71 3.527-1.71 3.527 3.1 1.603-.802 5.504-8.177 3.795-9.78 2.245-4.436-4.811-5.825-9.834-1.817-9.406-.908-11.918z" fill="#ccdde7"/></g><path d="m189.265 352.382s5.756-.399 9.673-3.357c-.56-7.035 1.359-8.554 5.516-11.751s8.793-6.555 8.793-6.555-.959 3.437-.959 5.115-.96 3.598-.96 3.598.641-.16 2.559-.16 3.517-.08 3.517-.08 0 .4-.879 2.079-1.918 3.437-1.918 3.437 2.317-.399 3.517-.319 3.038.319 3.038.319-1.92 2.479-2.639 3.518-2.317 1.759-2.317 1.759 2.877.959 3.437 1.039 2.559.32 2.559.32-2.638 1.438-3.438 1.998-2.238 1.199-2.238 1.199 2.078.719 2.638 1.838 3.358 1.999 4.237 1.999 1.199.479 1.199.479-16.627-.24-19.585-1.759-4.897-4.483-4.897-4.483-2.487 1.188-6.106 1.797c-3.727.627-6.023.769-6.023.769z" fill="#00ab4e" stroke="#005a24"/></g><g fill="#fff"><path d="m220.587 334.473c.97-.97-2.328-2.728-4.058-2.262s-2.795 1.53-2.728 2.728 1.729 1.396 1.729 1.396.6-1.663 2.329-1.264 2.395-.265 2.728-.598z"/><path d="m220.721 337.532c.235-.141 1.197-2.327 3.658-2.062s3.458 2.394 2.594 3.192-2.395.2-3.592.998-2.794 1.264-2.86.665-.465-2.394.2-2.793z"/><path d="m226.09 343.147c.277-.174 3.567-.431 3.611.538s-1.233.593-1.981 1.508c-.749.915-1.145 1.452-2.069 1.184-.926-.269-1.19-2.207.439-3.23z"/><path d="m224.978 350.903c.47-.32 3.061-.999 3.726-.267s.6 1.862-.731 2.328-2.395.798-2.728.466-1.731-1.529-.267-2.527z"/></g><g stroke-linecap="round" stroke-linejoin="round"><g fill="none" stroke="#808285"><path d="m220.787 340.459c.029-.861-.365-1.922-.878-2.594-.479-.627-1.109-.672-1.783-.865"/><path d="m223.248 341.923c.998.864 1.464 1.862.864 3.26"/><path d="m225.177 347.909c.242.67.826 1.088.48 1.808-.183.38-.612.736-1.013.854"/><path d="m229.368 348.774c-1.028-.132-2.982-.396-3.659.466"/><path d="m227.173 341.657c-.582.069-1.13.77-1.599 1.06-.468.29-.749.335-1.328.337"/><path d="m221.984 334.672c-.012.88-.604 1.495-1.074 2.142-.372.51-.396.787-1.188.785"/></g><g stroke="#000"><path d="m165.45 353.003s-.854 2.329-5.047 6.91-6.988 6.135-6.988 6.135.621-.776-3.184-1.01-6.911-.621-7.221-1.708 1.01-1.631 2.252-2.097 6.677-2.64 10.56-5.202 5.901-4.271 5.901-4.271 3.339.7 3.727 1.243z" fill="#ccdde7"/><path d="m144.874 352.692s1.242 3.184 9.783 2.873 11.647-1.553 11.647-1.553-8.153-4.736-14.054-4.659-7.376 3.339-7.376 3.339z" fill="#839097"/><path d="m166.382 346.015s-9.162-9.783-16.228-9.783-9.938 3.494-7.998 6.833 2.174 4.892 2.096 6.444-.31 3.028.622 3.184 4.193-2.406 9.007-1.242 12.423 2.563 12.423 2.563z" fill="#ccdde7"/><path d="m172.506 353.003s.854 2.329 5.047 6.91 6.988 6.135 6.988 6.135-.621-.776 3.184-1.01 6.91-.621 7.221-1.708-1.01-1.631-2.252-2.097-6.678-2.64-10.56-5.202-5.901-4.271-5.901-4.271-3.339.7-3.727 1.243z" fill="#ccdde7"/><path d="m193.083 352.692s-1.242 3.184-9.783 2.873c-8.542-.311-11.648-1.553-11.648-1.553s8.154-4.736 14.054-4.659c5.901.078 7.377 3.339 7.377 3.339z" fill="#839097"/><g fill="#ccdde7"><path d="m171.575 346.015s9.163-9.783 16.228-9.783 9.938 3.494 7.997 6.833c-1.94 3.339-2.174 4.892-2.096 6.444s.311 3.028-.621 3.184-4.193-2.406-9.008-1.242c-4.813 1.164-12.423 2.563-12.423 2.563z"/><path d="m172.978 353.165c0 1.565-1.269 2.835-2.834 2.835h-2.331c-1.565 0-2.834-1.27-2.834-2.835v-6.83c0-1.565 1.269-2.835 2.834-2.835h2.331c1.565 0 2.834 1.27 2.834 2.835z"/></g></g></g><g fill="#fff"><path d="m163.154 344.745s-7.198-6.565-12.023-6.724-9.018 1.819-7.277 3.243 1.819 1.503 3.48 2.769 1.819 1.661 1.028 2.294-2.689 2.769.158 2.689 6.803-1.107 8.701-.791 5.537 2.849 5.537 2.849l-3.322-3.323 3.797.396-4.271-2.531c-.001-.001 3.48-1.425 4.192-.871z"/><path d="m171.459 345.615s-4.746-2.294-4.904.079-1.107 5.775.554 6.329 2.927.158 3.164-.633-2.453-5.063 1.186-5.775z"/><path d="m193.134 339.287s-3.085-2.61-7.989-.949-9.809 6.645-9.809 6.645l4.746-1.424s-3.243 3.322-3.639 3.48 3.797-.396 3.797-.396l-4.588 3.798s9.176-3.481 11.628-3.481 4.509.554 4.271-1.266-2.61-3.164-1.424-3.639 4.431.396 3.007-2.768z"/><path d="m158.803 357.323s-4.113 5.063-5.379 5.695-6.724 1.028-7.119.237 1.424-.87 2.531-1.503 8.701-5.063 8.701-5.063 2.769-.157 1.266.634z"/><path d="m178.737 356.611s10.837 4.271 11.391 5.221-2.848 1.661-3.955 1.187-3.718-1.107-4.351-1.898-5.3-3.007-3.085-4.51z"/></g><path d="m224.386 274.976s3.11-.164 3.766.818.656 2.293 3.931 2.293 5.239-1.146 7.859-.982 3.438.654 3.438.654l-1.965.982h2.62l-2.947 1.802s2.619.164 4.748.164 6.714-.328 6.714-.328-5.73 2.292-7.859 3.438-5.731 1.474-5.731 1.474l3.766.655s-3.111.328-7.041.164-7.205-1.802-9.497-4.749-3.603-5.894-1.802-6.385z"/><path d="m202.936 252.87s5.076 3.275 5.567 5.076 1.965 2.292 1.965 2.292 4.257 2.948 9.006 6.878 6.059 2.946 6.059 4.748.164 2.947-.327 3.438-.492 1.966-2.293 1.311-2.783-1.474-2.947-.982-1.147 3.603-6.714 5.076-10.314.328-10.643-.982.491-2.293.491-2.293 4.257 0 7.204-1.965 3.111-4.258 3.111-4.258l-6.714-6.713s-1.801-2.129-2.783-2.129-2.784.819-4.094-1.801-.982-3.438-.982-3.438z" fill="#725120" stroke="#4a3613" stroke-linecap="round" stroke-linejoin="round"/><path d="m93.203 177.669 106.785 80.768s1.069-.355 2.494-1.959 1.425-4.988 1.425-4.988-53.524-50.664-67.774-62.242-29.926-16.566-42.93-11.579z" fill="#bacad3" stroke="#000" stroke-linecap="round" stroke-linejoin="round"/><path d="m198.679 252.87-87.275-71.064s-3.602-1.801-8.678-.819l-4.257-2.947s9.438-2.279 20.14 2.128c8.35 3.438 14.9 8.187 25.872 18.175s53.708 50.433 53.708 50.433z" fill="#fff"/><path d="m198.679 252.87-83.792-68.158c-2.957-2.243-6.934-4.079-12.162-3.726" fill="none" stroke="#000" stroke-linecap="round" stroke-linejoin="round"/><path d="m209.08 261.037 11.338 9.891s.12 2.051-.845 2.051-1.327.844-1.327.844-1.084 2.775-3.738 3.619-5.187.603-5.187.603 5.596-3.632 6.199-4.838.435-3.243.435-3.243l-6.875-6.995c0-.001-1.447-.967 0-1.932z" fill="#bb7d2b"/><path d="m228.689 172.262s-6.784 11.362-10.345 13.566-7.46 7.292-8.817 10.005-2.714 6.444-7.462 9.327-9.157 6.275-11.531 10.514-3.563 8.819-9.497 12.549-9.496 4.748-11.701 7.631-5.257 13.059-11.532 20.011-8.31 4.578-9.157 9.496-1.696 12.21-1.696 12.21l-23.572-25.606s.339-2.035 1.018-2.035 24.589-7.293 29.168-13.906 4.409-11.193 8.988-14.075 13.228-5.257 17.297-9.327 3.731-8.479 7.292-11.701 8.649-4.24 12.719-7.971 5.257-8.309 8.648-10.005 5.258-1.866 7.801-3.562 7.292-5.596 8.648-6.104 3.731-1.017 3.731-1.017z" fill="#bacad3" stroke="#000" stroke-linecap="round" stroke-linejoin="round"/><g fill="#fff"><path d="m224.28 175.483s-4.069 5.936-7.461 7.631-5.936 1.526-5.936 1.526 1.525-1.018 5.087-3.222 8.31-5.935 8.31-5.935z"/><path d="m201.218 198.546s-2.374 2.713-5.257 3.731-5.767 3.222-5.767 3.222-2.543-3.73 1.866-5.766 6.614-1.696 8.31-4.579 1.188 1.866.848 3.392z"/><path d="m186.295 210.417s-3.732 7.971-5.767 9.327-4.917 2.544-4.917 2.544-10.175 5.935-12.889 10.344-5.766 11.023-10.175 12.041-5.852 4.915-9.835 7.292c-3.089 1.843-6.097 3.057-6.097 3.057s6.097-8.653 13.559-13.571 8.987-10.005 10.344-12.888 8.649-8.14 12.041-9.327 7.63-3.731 8.987-5.087 4.749-3.732 4.749-3.732z"/><path d="m156.598 249.867s-3.893 7.786-9.307 12.781c-1.5 1.384-.509 7.462-1.018 8.14s-2.035-1.187-4.409-4.239-5.935-6.274-5.935-6.274 2.374 2.374 6.613-.17 5.888-6.36 5.888-6.36-1.069 3.531-2.193 5.139c-1.384 1.98-3.797 4.349-3.142 3.6 1.188-1.359 9.754-8.772 13.503-12.617z"/></g><g stroke-linecap="round" stroke-linejoin="round"><g stroke="#000"><g fill="none"><path d="m212.919 185.319s-3.053 2.543-5.088 5.257-4.409 8.479-9.157 10.854-5.935.847-8.987 6.104-3.392 11.362-8.31 13.228-11.192 3.052-15.093 8.479-4.409 8.818-9.327 14.754-18.145 14.923-18.145 14.923"/><path d="m131.351 251.456s5.426-.678 10.005-3.392"/><path d="m135.929 255.525s7.971-2.374 12.888-8.648"/></g><path d="m143.051 262.479s5.087-3.052 8.988-7.631 4.918-6.444 4.918-6.444" fill="#bacad3"/></g><path d="m129.104 267.208s-.381.042-2.52.236-10.403 4.861-11.764 11.181 3.986 11.861 7.778 12.833 8.75-1.652 8.944-5.25-4.472-3.305-4.472-3.305-1.944-.292-2.722-1.848 2.625-4.083 5.153-5.542c2.457-1.418 3.167-4.296 3.205-4.456z" fill="#725120" stroke="#4a3613"/><path d="m138.542 268.223s-1.944-1.848-3.5-3.986-4.472-3.111-6.125-1.167c-1.05 1.235-.844 2.587-.554 3.41.975.948 2.92 2.883 4.342 4.578.001-.005.004-.016.004-.016s2.917 1.458 4.861.098.972-2.917.972-2.917z" fill="#e9c31e" stroke="#9a6104"/></g><path d="m127.481 268.555c1.163.179 2.99 1.771 1.107 2.547s-9.967 3.767-10.631 8.195 2.437 9.302 6.423 9.08 4.873-1.439 4.873-1.439-1.551 3.212-5.205 3.212-8.527-3.986-8.306-10.521 10.3-11.295 11.739-11.074z" fill="#bb7d2b"/><g stroke-linecap="round" stroke-linejoin="round"><path d="m125.045 278.854s-3.765 1.883-3.765 0" fill="none" stroke="#4a3613"/><path d="m125.267 282.064s-.997-.997-1.772 0-.443 1.994-.443 1.994-1.882-2.104-.886-2.658" fill="none" stroke="#4a3613"/><g fill="#fff" stroke="#9a6104"><circle cx="130.138" cy="263.922" r=".827"/><circle cx="131.836" cy="265.62" r=".827"/><circle cx="133.396" cy="267.207" r=".827"/><circle cx="134.955" cy="268.822" r=".827"/><circle cx="136.435" cy="270.302" r=".827"/></g></g><path d="m124.144 394.918.199-.05c.723-.183 1.147-.3 1.275-.352s.182-.12.159-.206c-.016-.062-.278-.42-.788-1.075-.51-.654-.965-1.213-1.363-1.674l-2.082.603-2.183.668c-.077.565-.158 1.223-.243 1.972-.086.749-.122 1.147-.11 1.196.05.196.442.2 1.18.014l.243-.062.222-.055c.162-.041.267.031.313.217.042.162.059.263.053.301-.006.039-.053.07-.142.092l-.265.066-1.712.394c-.472.118-.968.252-1.486.399-.52.147-.894.266-1.121.355l-.133.034c-.133.033-.213-.004-.24-.111-.042-.168-.052-.302-.03-.402s.165-.185.431-.252l.993-.349c.108-.065.182-.15.219-.25.037-.101.099-.357.183-.77l.892-4.854.503-2.667.477-2.68.331-1.764c.066-.355.119-.567.157-.636.037-.068.137-.123.299-.164.178-.044.3-.055.368-.032.068.021.189.128.362.319.513.538 1.111 1.205 1.798 2 .618.708 1.772 2.052 3.463 4.032l1.925 2.223 1.083 1.219c.285.32.472.519.562.594.09.076.174.116.254.123.08.006.275-.011.588-.051.311-.039.577-.086.799-.143.221-.055.354-.072.397-.053.044.021.091.128.14.318.051.203.002.323-.145.36l-.398.101-3.604.812-3.669.926c-.222.056-.359-.026-.415-.248-.034-.135-.036-.233-.004-.293s.118-.108.265-.145zm-3.931-7.846c-.159.55-.293 1.155-.4 1.816s-.229 1.687-.363 3.08l.938-.198c1.209-.305 2.163-.591 2.864-.86l-1.481-1.86z"/><path d="m146.312 379.497-1.203 1.232c-.65.698-1.094 1.186-1.33 1.463-.315.366-.757.925-1.323 1.674l.359.255 2.004 1.42c.137.096.617.449 1.443 1.06 1.41 1.039 2.403 1.792 2.979 2.26.329.26.646.505.948.737.302.231.512.377.628.438s.354.063.716.011l.835-.121c.104-.016.167.042.186.17.053.36.004.552-.146.573l-.158.022-4.114.464-2.891.498-.202.028c-.12.018-.189-.035-.207-.16-.057-.39-.003-.596.16-.62l.289-.042.267-.039c.579-.084.864-.156.854-.219l-.086-.118-4.672-3.362c-.798-.563-1.404-.961-1.819-1.19l.231 1.748c.109.755.226 1.524.347 2.308.122.785.23 1.222.327 1.308.097.087.254.127.474.12.22-.006.642-.055 1.267-.146.104-.016.175-.001.212.043.036.045.069.171.101.38.03.209-.015.321-.134.339l-.089.012c-.168-.001-.316.002-.445.008-.128.006-.268.02-.417.041l-.492.071-1.677.244-1.32.191c-.597.088-1.101.161-1.51.221-.411.06-.788.113-1.13.164l-.451.199c-.104.016-.169-.011-.194-.076-.024-.067-.049-.184-.073-.35-.036-.248.04-.386.227-.413l.345-.05.367-.054c.431-.063.697-.123.799-.183.102-.059.141-.171.117-.333l.035-.234-1.155-7.947-.213-1.461-.12-.825-.029-.206c-.048-.325-.118-.499-.212-.525-.094-.024-.245-.03-.454-.019-.208.01-.496.042-.865.096l-.22.033-.199.028c-.117.017-.187-.045-.207-.188-.027-.189-.034-.309-.019-.359s.062-.082.137-.093l.18-.026c.182-.014.796-.083 1.842-.21s1.884-.235 2.515-.328l.854-.124 1.147-.166.81-.118.271-.039c.09-.013.147.065.172.235.034.231-.01.361-.129.392l-.867.127c-.197.028-.391.06-.58.094-.189.033-.302.088-.338.164-.035.075-.049.192-.041.352.007.159.054.532.14 1.122l.281 1.937.184 1.26.101.696.301-.295c1.567-1.698 2.736-2.996 3.505-3.894.732-.841 1.236-1.468 1.511-1.883l.115-.151.036-.063c-.003-.025-.073-.034-.208-.027-.136.007-.381.036-.737.087l-.334.05c-.104.015-.209.029-.312.045-.094-.011-.15-.09-.171-.236-.038-.255.011-.394.146-.413l.18-.026.629-.092.719-.104 1.729-.251 1.304-.189c.299-.044.474-.057.521-.039.048.017.088.132.119.345.022.154.004.241-.054.262l-.857.125c-.437.063-.705.115-.808.155-.102.04-.232.143-.393.307z"/><path d="m181.782 390.089.204.019c.741.069 1.182.101 1.319.095s.21-.053.22-.142c.005-.063-.123-.488-.385-1.275-.263-.789-.504-1.467-.726-2.034l-2.163-.127-2.281-.1c-.262.507-.558 1.1-.888 1.776-.331.678-.498 1.041-.504 1.091-.018.201.351.336 1.107.408l.25.023.227.021c.167.016.241.119.223.31-.016.167-.032.268-.051.302s-.072.048-.163.038l-.273-.025-1.744-.201c-.485-.046-.996-.086-1.534-.121-.539-.034-.931-.047-1.176-.038l-.136-.013c-.137-.013-.199-.075-.188-.186.016-.172.051-.301.104-.389.055-.089.218-.119.49-.094l1.053.003c.124-.026.221-.08.289-.163.069-.082.212-.304.43-.663l2.462-4.278 1.365-2.346 1.345-2.366.9-1.552c.182-.313.303-.495.36-.547.059-.052.171-.069.338-.055.182.018.3.048.357.092.057.043.135.186.235.423.303.679.645 1.507 1.026 2.486.345.873.984 2.526 1.917 4.958l1.071 2.737.613 1.511c.161.396.271.646.331.747.059.102.125.168.198.201.073.031.264.082.57.148s.573.11.801.133c.227.021.358.049.393.083.035.035.043.15.024.347-.02.208-.104.305-.257.292l-.408-.039-3.668-.439-3.769-.354c-.227-.021-.33-.145-.309-.371.013-.14.044-.232.095-.278.053-.047.155-.063.306-.048zm-1.084-8.709c-.334.465-.662.99-.984 1.577s-.78 1.514-1.371 2.782l.95.127c1.24.116 2.235.165 2.985.146l-.773-2.249z"/><path d="m201.097 381.059.077.166c.094.288.51 1.073 1.248 2.362.736 1.288 1.304 2.216 1.703 2.789l.498-.451 1.427-1.401c.28-.272.525-.507.732-.708.211-.199.728-.649 1.544-1.352l.178-.201c.017-.11-.1-.189-.35-.234l-.65-.113-.342-.06-.48-.086c-.25-.044-.357-.182-.317-.411.04-.242.151-.351.332-.318l.139.022 2.816.632 2.35.277.102.02c.159.027.219.182.172.465-.027.152-.09.241-.187.265l-1.471-.259-.378-.066-.138-.024c-.204-.022-.352.023-.443.135l-.295.295-1.306 1.297c-1.051 1.111-2.392 2.465-4.018 4.057-1.51 1.482-2.662 2.553-3.453 3.213-.926.775-.961.729-1.706.984-.746.253-1.717.112-2.629-.046-.754-.133-1.359-.375-1.819-.728-.457-.35-.65-.731-.583-1.143.057-.337.283-.574.679-.711.4-.136.92-.146 1.557-.034.367.065.646.144.841.245.196.099.5.307.918.624.206.165.435.269.688.313.411.071.72.04.93-.096.211-.139.065.114.892-.745l.929-.935c-1.171-1.736-2.031-3.047-2.591-3.93-.668-1.056-1.548-2.482-2.634-4.284-.289-.526-.534-.853-.737-.979-.201-.125-.713-.259-1.534-.403-.296-.052-.429-.178-.396-.374.045-.279.172-.399.377-.362l.233.067 4.876.966c.593.103 1.234.209 1.92.313.688.107 1.226.179 1.618.22l.692.076c.251.044.359.165.325.364-.044.277-.169.396-.377.36l-.239-.043-.819-.145c-.389-.066-.634-.104-.738-.109-.106-.006-.162.03-.177.104z"/><path d="m215.021 395.552.198.051c.722.185 1.151.286 1.288.302s.217-.021.24-.106c.015-.061-.045-.502-.18-1.321s-.267-1.526-.396-2.122l-2.116-.465-2.237-.457c-.338.46-.723.999-1.155 1.615-.433.617-.656.95-.669.999-.05.194.293.387 1.029.575l.242.063.222.058c.161.041.219.154.171.341-.042.161-.074.258-.099.289-.023.03-.079.035-.168.012l-.265-.068-1.69-.473c-.471-.121-.97-.241-1.496-.359-.526-.119-.912-.193-1.154-.224l-.134-.034c-.132-.034-.185-.104-.156-.213.043-.166.098-.288.164-.367.068-.078.234-.083.499-.015l1.039.168c.127-.006.231-.045.313-.115.08-.07.257-.267.527-.588l3.104-3.838 1.717-2.102 1.699-2.127 1.134-1.391c.229-.28.376-.44.442-.482.065-.042.179-.042.342-.001.176.046.289.095.339.147.049.051.104.203.165.454.192.718.4 1.59.623 2.616.204.916.575 2.649 1.114 5.197l.627 2.872.37 1.588c.096.418.166.682.208.79.043.109.098.187.165.229.066.044.247.122.539.236.293.114.549.2.771.258.221.056.346.104.375.144.028.039.019.155-.031.346-.051.202-.151.285-.299.247l-.397-.102-3.553-1.011-3.666-.941c-.222-.057-.304-.196-.246-.416.034-.135.08-.222.137-.26.054-.037.157-.037.304.001zm.299-8.772c-.403.407-.81.875-1.221 1.403-.41.529-1.008 1.373-1.791 2.531l.918.275c1.207.311 2.183.516 2.927.614l-.412-2.342z"/><path d="m169.522 389.652c-.033-.063-.069-.276-.111-.643-.041-.366-.067-.708-.076-1.024l.027-.571.021-1.615c-.004-.102-.157-.147-.461-.139-.091.003-.173.068-.245.197l-.475.889c-.332.606-.548.986-.649 1.142-.103.155-.271.351-.507.586-.324.339-.734.614-1.229.826-.182.078-.364.128-.547.179.176-.881.141-1.149.141-1.149-.732-.215-1.091.322-1.091.322s.069.045-.167.978c-.776-.015-1.534-.283-2.273-.827-.7-.511-1.198-1.126-1.493-1.846-.296-.72-.462-1.688-.499-2.903-.07-2.316.187-3.994.771-5.031.585-1.039 1.583-1.579 2.996-1.623 1.23-.037 2.245.332 3.044 1.105.251.246.531.592.842 1.039s.539.839.686 1.177c.099.225.159.351.183.375s.081.035.173.032c.304-.009.452-.096.447-.261l-.012-.398-.039-.531-.021-.685-.044-.682-.042-.646c-.008-.228-.006-.434.004-.618.009-.184.028-.295.059-.334l.021-.059c-.078-.047-.132-.078-.163-.089-.107-.061-.192-.09-.253-.088-.015.014-.045.03-.09.05-.045.021-.104.064-.179.129-.444.395-.742.594-.895.598l-.206-.031-1.106-.384c-.86-.291-1.86-.42-2.999-.385-2.265.068-4.151.779-5.661 2.13-1.51 1.352-2.235 2.977-2.178 4.876.051 1.684.745 3.148 2.083 4.395 1.339 1.245 3.038 2.008 5.101 2.287l.639.02.752-.023c.042-.001.078-.009.12-.011-.499 1.283-2.45.818-3.566 1.339-1.14.532-.971 1.374-.971 1.374l.3.353s.187-1.057.903-.952c.386.058 2.183 1.076 3.489-.301.487-.513.805-1.241 1.012-1.954.221-.044.444-.086.644-.149.557-.179 1.239-.505 2.046-.979.231.119.433.246.604.38.25.233.426.387.527.459.101.074.174.109.22.108.076-.003.17-.04.282-.113.111-.073.167-.136.165-.187z"/></svg>