<svg height="800" viewBox="15 5 60 80" width="600" xmlns="http://www.w3.org/2000/svg" xmlns:xlink="http://www.w3.org/1999/xlink"><clipPath id="a"><path id="b" d="m20 27v11c10-4 10 9 0 5 0 25 22 23 25 37 10 0 25-19 25-35v-35z" fill="none"/></clipPath><use stroke="#fee600" stroke-width="2" xlink:href="#b"/><g clip-path="url(#a)"><path d="m0 0h90v90h-90z" fill="#002395"/><path id="c" d="m43 44s2.5-1 4 0 2.5 1 4 0 2.5-1 4 0 2.5 1 4 0 2.5-1 4 0 2.5 1 4 0 2.5-1 4 0" fill="none" stroke="#fee600" stroke-width="1.5"/><use xlink:href="#c" y="6"/><use xlink:href="#c" y="12"/><use xlink:href="#c" y="18"/><use xlink:href="#c" y="24"/><g stroke="#002395" stroke-width="3"><use xlink:href="#b"/><path d="m45 0v90"/></g><path d="m0 0h45v90h-45z" fill="#fee600"/><path id="d" d="m31 31 4.1459 1.3471v4.3592l2.5623-3.5267 4.1459 1.3471-2.5623-3.5267 2.5623-3.5267-4.1459 1.3471-2.5623-3.5267v4.3592z" fill="none" stroke="#002395" stroke-width=".5"/><use xlink:href="#d" y="14"/><use xlink:href="#d" y="28"/><g fill="#fee600"><path d="m54.4 33.9c-.9 0-.9 1.1 0 1.1h1.4c1 0 .4 1.4-.1 2 1.1 1 .7 2 1.3 2 .8 0 .2-1 1.3-2-.3-.6-1.1-2-.1-2h1.4c.7 0 .7-1.1 0-1.1z"/><path d="m56.4 34c0-3-1.4-5.6-1.4-8 0-1.4 1-2.4 2-3 1 .6 2 1.6 2 3 0 2.4-1.4 5-1.4 8z"/><path id="e" d="m56.2 34c0-2.2-1.2-4.8-2.8-4.8-2.6 0-3.6 3.2-.4 4.8-.6-1-.4-2 .8-2 .4 0 1.4.6 2 2z"/><use transform="matrix(-1 0 0 1 114 0)" xlink:href="#e"/></g></g><use stroke="#002395" stroke-width=".5" xlink:href="#b"/></svg>