<svg height="717.78552" width="600.68433" xmlns="http://www.w3.org/2000/svg" xmlns:xlink="http://www.w3.org/1999/xlink"><g transform="translate(.342144 -.368803)"><path d="m284.3271 656.22329c-48.45434-61.41574-155.49436-2.35403-203.97898-112.90306-2.602999-5.99664-3.313727-9.55832-2.666535-16.41988v-369.68689h444.636905v369.68689c.6472 6.86156-.06353 10.42324-2.66653 16.41988-48.48462 110.54903-155.52462 51.48732-203.97897 112.90306z" fill="#0071bc" fill-rule="evenodd" stroke="#000" stroke-width="3"/><g transform="translate(-1.57246)"><g stroke="#000"><path d="m492.44404 568.1909v-31.64007c-6.04897-29.94169-50.92104-20.26701-64.59463-14.66285-1.21535-1.85122-2.40321-3.36585-2.63971-3.36585-.28253 0-.3381 1.55185-.16198 4.52626 1.2447 21.02471 1.66086 26.95507 1.94275 27.68387.23116.59776 1.41119 1.19379 4.06678 2.05412 8.10237 1.77684 12.40431 6.95399 16.96454 13.07912.50126.30981 11.54268 1.41518 21.09195 2.11159 9.29812.6781 22.22757.80399 23.3303.21381z" fill="#eac102"/><path d="m522.35085 535.05485c-9.91858.20213-16.26149-2.38015-29.56864 2.02661v31.36156c8.51475-1.54339 10.84206-2.02405 15.50573-3.03775-.2338.91959 10.71722-15.42468 14.06291-30.35042z" fill="#eac102"/><path d="m316.25996 588.15415v-190.23324h42.10754v55.84936h50.84431c.38695 6.37529-.10328 12.77471 0 19.15766l-50.84431.42105v58.51822h-24.22016v49.86909z" fill="#ed1c24"/><path d="m399.25 397.625c29.90919 36.19584-7.42503 88.56639 41.09375 118.53125l25.0625 4.21875c4.17145 5.36205 8.99356 10.17563 14.40625 14.28125 2.79317 3.16108 22.68064 3.2424 27.78125 3.21875l14.75-.09375-.34375-1.4375c.58215-2.78261.67525-5.59164.3125-9.4375v-129.28125z" fill="#feb27f" fill-rule="evenodd"/><path d="m382.54527 398.28967 78.03433.11287c-.12967 1.42519-.3064 2.83927-.69924 4.20794-5.27154 1.02657-20.45672 1.13401-21.82036 8.313.69252 6.5872 25.78377-2.57703 25.69227 4.95253-1.96957 0-30.59119 6.33259-31.69863 7.01338-1.0514.64631.45439 5.08992 2.30026 6.78805 6.05551 3.87068 27.31099-6.24109 27.84585-.11739-9.62204 4.28998-17.74371 10.89798-28.35666 12.59715-6.75272.44534-14.29943-5.05753-19.78923.41149 7.0877 6.56636 18.61511 2.81091 26.30452 9.36135 7.77379 9.06495 3.67625 21.59312 8.06406 31.94079 4.78403 8.88273 15.95899 7.84841 24.54538 10.29983.23057 7.75754-2.64262 16.50859-6.08969 23.50429-1.67953 3.84802-5.65286 5.76729-9.26279 7.62686-9.23241-.41498-20.20205 2.82676-29.09303-.34189-2.54582-1.15603-4.81324-3.3864-7.31233-7.19297-10.07484-10.38185-19.83393-20.07351-26.49734-33.275l-3.71431-30.72168c1.22024-11.76806-1.55446-23.45764-3.70117-34.94693z" fill="#030303"/><path d="m431.73785 477.38619c-.69354-5.87544-1.40193-11.91741-3.052-17.61599-5.05196-.21223-20.14986-4.05765-19.49799 3.37137 1.19019 9.00516 10.03763 13.03414 16.02376 18.75842 3.18465 3.87302 6.09014-1.15328 6.52623-4.5138z" fill="#feb27f"/><g fill="#eac102"><path d="m427.5 550.46875c-.32512.02754-.61477.08447-.875.1875-19.8902 10.71612-42.13818 23.06217-64.71875 21.1875-8.83533-.84193-13.44155-1.76285-21.71875-4.40625-11.42423 8.76029-18.99553 14.26961-23.78125 17.71875v1.9375c6.98642-3.04174 18.96203-7.65002 32.21875-9.0625 37.04057 10.2531 73.86993-23.61592 99.46875-12.40625-4.0121-7.74484-15.71692-15.5694-20.59375-15.15625z"/><path d="m352.53125 569.25c-6.50549.13814-16.6785 9.62045-25.96875 17.25-3.41095 2.80121-6.92629 5.01301-10.15625 6.96875v22.84375c5.49426 1.32697 12.22967 1.41958 19.15625-.09375 10.7139-2.34079 19.83229-7.83736 22.65625-13.78125v-28.375c-1.13843-3.47998-3.14187-4.86655-5.6875-4.8125z" stroke-linecap="round"/><path d="m348.10311 588.87876v22.44452z"/><path d="m353.92333 585.07382v22.44452z"/><path d="m342.2829 591.81179v22.44452z"/><path d="m336.46269 593.81179v22.44452z"/><path d="m330.64248 594.80222v22.44452z"/><path d="m324.82227 594.80222v22.44452z"/><path d="m319.00206 594.80222v22.44452z"/><path d="m337.375 563.375c-3.45126-.04764-7.09442.31267-10.8125 1.125s-7.16148 2.01277-10.15625 3.46875v26.34375c5.49426 1.32697 12.22967 1.41958 19.15625-.09375 14.87233-3.24933 24.92622-12.55245 22.4375-20.75-1.86654-6.14817-10.27123-9.95082-20.625-10.09375z" stroke-linecap="round"/></g><g fill-rule="evenodd"><path d="m493.50025 444.96522c2.16462-6.53397-5.49781-8.61691-7.98178-3.5918l-4.38998-1.99544c8.98932-10.15513 18.68348-10.70078 28.73439-5.98633 3.35981.77655 3.21675 5.3372-4.78906 6.38542-5.20798-1.68411.68241 9.79189-11.57357 5.18815z" stroke-width="1.885317"/><path d="m475.10028 423.18491c13.0697-.329 24.46154-7.08595 41.56441 5.4511 3.04034-7.21244-20.88612-20.04708-41.56441-5.4511z" stroke-width="3.218893"/></g></g><path d="m516.02325 490.42173c-3.37702-2.66935-4.17928-4.22887-2.60806-5.06979.70522-.37738 1.26272-.11237 3.55739 1.69089 2.86245 2.24953 3.58758 3.41907 2.74742 4.4314-.7762.93527-1.41047.75468-3.69675-1.0525z" fill="#030303"/><g stroke="#000"><path d="m503.02084 496.94868c4.33866 5.95887 11.16645 4.94078 18.92475 3.08332" fill="none" stroke-linecap="round" stroke-width="3"/><path d="m515.69938 512.92369c2.45109-.9051 4.85695-1.7107 7.11463-2.1903" fill="none"/><path d="m418.9375 554.78125c-4.11704 2.18737-8.32316 4.38042-12.59375 6.40625 3.24668 11.80937 18.51312 25.59365 27.0625 28.125 9.41568-6.7796-4.1677-24.86377-14.46875-34.53125z" fill="#ed1c24"/><path d="m407.71875 560.53125c-4.38342 2.11735-8.82912 4.08316-13.34375 5.78125 3.31712 11.78225 18.51105 25.4773 27.03125 28 9.17842-6.60876-3.50188-23.95507-13.6875-33.78125z" fill="#e3e4e5"/><path d="m395.90625 565.71875c-4.55495 1.78065-9.15611 3.31203-13.8125 4.40625 2.56542 12.03565 18.49974 26.57817 27.3125 29.1875 9.12243-6.56844-3.34741-23.73669-13.5-33.59375z" fill="#0071bc"/><path d="m492.65607 568.1035v16.03997" fill="none"/></g></g><path d="m77.687008 250.12661v114.70911h184.945072c3.81574-9.82568 11.40086-17.7773 20.97342-22.07868v-156.31384l-45.77575 50.26253-17.31557-15.39455-12.13143 11.15776c-8.91162-20.10972-13.51674-41.86185-23.35497-61.59134-9.00297 8.3436-16.81616 17.94753-25.98652 26.10494-2.71408-4.79939.00758-10.64359-2.42102-15.55244-19.11693 16.83476-35.28954 36.66037-54.02565 53.89407-2.17342-2.49441-2.47879-5.98595-4.539414-8.53937-7.08774 7.49765-13.781543 15.39591-20.368168 23.34181z" fill="#861c61" fill-rule="evenodd" stroke="#000"/><path d="m158.74931 353.73059h46.06721 46.06726l11.5798 8.34138c4.85545.31521 7.2294-7.27575 15.79961-13.60867 3.35406-2.23157 3.85469-2.69398 3.64231-3.36418h-46.37862l-.42105-27.50973-38.84246-39.58019 38.54958-44.01558-10.886-9.52458-61.4518 66.63373 33.67904 32.52293-.20577 21.47342h-34.44466l-12.49446 12.82862-12.21804-12.82862h-60.163201v8.63147h57.426391l13.39179 11.8784z" fill="#f60" stroke="#000"/><path d="m522.31306 252.37017-205.91849.21052v90.16991c9.57257 4.30138 17.15769 12.25299 20.97343 22.07868h184.94506z" fill="#008f4c" fill-rule="evenodd" stroke="#000"/><path d="m522.31306 270.7035-205.91849.21052" fill="#008f4c" fill-rule="evenodd" stroke="#000"/><path d="m522.31306 289.03683-205.91849.21052" fill="#008f4c" fill-rule="evenodd" stroke="#000"/><path d="m522.31306 307.37017-205.91849.21052" fill="#008f4c" fill-rule="evenodd" stroke="#000"/><path d="m522.31306 325.7035-205.91849.21052" fill="#008f4c" fill-rule="evenodd" stroke="#000"/><path d="m522.31306 344.03684-205.91849.21052" fill="#008f4c" fill-rule="evenodd" stroke="#000"/><path d="m521.61598 363.95443c.76125-.47024-.10809-129.72416-.86147-130.47755-10.81944-2.4901-21.03847 4.60161-27.43338 10.54155 3.56896-16.6789-7.84433-24.55477-23.15319-29.5592-30.10034-4.21313-51.02829-3.69569-63.97588 27.75667-7.25022 29.89203-4.47261 75.57556 9.43092 103.14753 3.94959 5.24859 13.66324 16.77938 20.59974 17.553 21.07834 1.194 57.12355 3.95603 85.39326 1.038z" fill="#ed1c24" stroke="#000"/><path d="m491.97811 251.06246c-1.50541-4.66058 15.57025-45.28797 29.47538-59.10559" stroke="#000"/><path d="m514.79821 200.87035c4.67282-12.38695-45.99674-39.21728-46.72843-29.28621 1.24562 16.73749 38.20778 45.16208 46.72843 29.28621z" fill="#008f4c" stroke="#000"/><g stroke-width="2.37503"><g id="a" stroke-width="2.877521" transform="matrix(.34752132 0 0 .34752132 18.850733 -1.591154)"><path d="m38.926872 108.72097a94.07328 94.07328 0 0 1 188.146558 0h-94.07328z" stroke="#000" stroke-width="2.877521" transform="translate(0 -7.56911)"/><path d="m38.926872 108.72097a94.07328 94.07328 0 0 1 188.146558 0h-94.07328z" fill="#e3e4e5" stroke="#000" stroke-width="3.553545" transform="matrix(.8097608 0 0 .8097608 25.301838 13.589478)"/><path d="m38.926872 108.72097a94.07328 94.07328 0 0 1 188.146558 0h-94.07328z" stroke="#000" stroke-width="6.248587" transform="matrix(.4605075 0 0 .4605075 71.752574 52.433769)"/></g><g stroke-width="2.37503" transform="matrix(.4210474 0 0 .4210474 11.598037 -9.212269)"><use height="2400" transform="translate(159.41803)" width="1500" xlink:href="#a"/><use height="2400" transform="translate(318.83606)" width="1500" xlink:href="#a"/><use height="2400" transform="translate(478.25409)" width="1500" xlink:href="#a"/><use height="2400" transform="translate(637.67212)" width="1500" xlink:href="#a"/><use height="2400" transform="translate(797.09015)" width="1500" xlink:href="#a"/><use height="2400" transform="translate(956.50818)" width="1500" xlink:href="#a"/><use height="2400" transform="translate(1115.9262)" width="1500" xlink:href="#a"/></g></g><path d="m77.687008 475.78171v51.1178c-.647192 6.86152.054862 10.42413 2.657862 16.42085 3.130184 7.13705 6.505152 13.56686 10.091979 19.36818 1.225783 1.20639 2.482475 2.38073 3.776269 3.48678.794024.67881 1.607189 1.33169 2.434181 1.94734.826991.61566 1.673857 1.1903 2.539442 1.72369.865589.5333 1.748049 1.01539 2.657859 1.44735.90981.43187 1.84294.80715 2.8026 1.11838.95966.31124 1.94535.56534 2.96049.73684 1.01514.17149 2.05529.26374 3.13154.27633 1.13228-.01006 2.21963-.09663 3.24996-.26315 1.03033-.16661 2.00506-.41381 2.93417-.7237.92912-.30989 1.81606-.67852 2.64471-1.11839.82864-.43995 1.60001-.94327 2.32891-1.49998.72891-.55679 1.40955-1.16853 2.03945-1.82894.62991-.66042 1.20518-1.36769 1.73682-2.11838.53164-.75077 1.0264-1.55366 1.46051-2.38157.43411-.8279.8074-1.68709 1.14472-2.57891.33733-.89182.62714-1.80748.86841-2.74995.24128-.94251.44613-1.9148.5921-2.8947.14597-.97999.23808-1.96953.28947-2.97365.0514-1.00419.0556-2.02431.01316-3.03945-.04244-1.01515-.12761-2.02659-.26315-3.03942-.13554-1.01291-.32473-2.0289-.55263-3.02628-.2279-.99746-.49626-1.97862-.81578-2.94733-.31952-.96874-.68168-1.9153-1.09209-2.84207-.68381-1.41758-1.42094-2.72089-2.23681-3.90787-.40794-.5935-.83843-1.16213-1.28946-1.69732-.45103-.53528-.92019-1.03649-1.42104-1.51316-.50084-.47667-1.03471-.92445-1.59208-1.34209-.55738-.41764-1.14251-.81283-1.76314-1.17102-.62062-.35827-1.28306-.68841-1.97366-.98685-.69059-.29844-1.4169-.56441-2.18418-.8026-1.76063-.68685-3.43768-1.19401-5.03941-1.55261-1.60173-.35869-3.12055-.56551-4.57889-.63157-1.45835-.06611-2.85369.00652-4.18416.19734-1.330478.19082-2.597624.4957-3.815744.90791-1.218119.41212-2.378673.92845-3.499956 1.52629-1.121283.59776-2.209998 1.27843-3.24996 2.02629-1.039962.74783-2.038964 1.55876-3.01312 2.42103-.974156.86222-1.918199 1.78259-2.84207 2.72363-.039162-1.0842-.030181-2.15324.013158-3.19731.043338-1.04416.127796-2.07467.249997-3.07891.1222-1.00432.276253-1.98271.473678-2.94733.197425-.96471.42834-1.90364.69736-2.82894.269019-.92529.570906-1.83753.907883-2.72362.336977-.88618.717111-1.75809 1.118407-2.60524.401296-.84723.827472-1.6652 1.289458-2.47365.461986-.80854.954628-1.59838 1.473666-2.36839 1.038075-1.54011 2.18969-3.00716 3.434168-4.39468 1.244477-1.38756 2.578149-2.6974 3.99995-3.93419 1.421801-1.23678 2.929905-2.399 4.499945-3.48677 1.57004-1.08786 3.20547-2.09871 4.89468-3.03946 1.02989-.55524 2.00733-1.04441 2.94733-1.47367.93999-.42925 1.84211-.80293 2.72365-1.11838.88154-.31554 1.73754-.57562 2.59207-.78947.85453-.21393 1.70679-.38862 2.56576-.51317.85896-.12454 1.7367-.20265 2.63154-.24997.89485-.04737 1.81411-.05718 2.77629-.0395 1.92435.03533 4.01232.18568 6.39465.40791 2.15231.17251 4.25416.43339 6.31571.76315 2.06155.32968 4.08008.72866 6.05256 1.21051 1.97248.48176 3.9043 1.04218 5.7894 1.67101 1.8851.62884 3.72684 1.32125 5.52625 2.0921 1.79941.77077 3.54768 1.61859 5.26309 2.52629 1.71542.90765 3.39315 1.88149 5.02625 2.92101 1.63311 1.03944 3.22378 2.14953 4.77626 3.31575 1.55249 1.16618 3.06586 2.38313 4.53942 3.67099s2.90626 2.63495 4.30258 4.03944c1.39631 1.40441 2.75813 2.86557 4.07889 4.38151 1.32077 1.51593 2.60831 3.08808 3.85522 4.71046s2.4568 3.30249 3.63153 5.02626c1.17474 1.72376 2.31676 3.49566 3.42101 5.31572s2.16187 3.68071 3.19733 5.59206c1.03546 1.91126 2.04476 3.87085 3.01312 5.86835.96836 1.9974 1.89965 4.03982 2.8026 6.11832.69557 1.33847 1.47291 2.65622 2.31576 3.93418.84285 1.27792 1.75923 2.51635 2.73681 3.71048.97757 1.19409 2.01864 2.33399 3.11838 3.42101 1.09974 1.08694 2.25114 2.12242 3.46048 3.07891 1.20934.95645 2.46989 1.84196 3.77627 2.64468 1.30639.80273 2.66171 1.51902 4.05258 2.14474 1.39087.62563 2.81347 1.15354 4.27627 1.57892 1.46279.4253 2.96462.74568 4.48678.94736 1.09959-.00977 2.15443-.09246 3.15786-.25002 1.00343-.15755 1.96044-.39094 2.86838-.6842.90795-.29326 1.76578-.649 2.57892-1.06576.81314-.41683 1.57044-.89278 2.28944-1.42103.71901-.52829 1.40074-1.10929 2.02629-1.73682.62555-.62761 1.20406-1.29834 1.73682-2.01315.53277-.71482 1.01985-1.47325 1.46051-2.26313.44067-.78989.83497-1.60765 1.1842-2.46048.34923-.85291.6494-1.74099.90788-2.64472.25848-.90374.47632-1.83379.64473-2.77626.16841-.94252.28942-1.89931.36842-2.86839.079-.96912.11498-1.95059.10526-2.93419-.00972-.98361-.07328-1.96133-.17105-2.94734s-.2359-1.97109-.42105-2.94733-.41236-1.95349-.6842-2.90784c-.27185-.95443-.58949-1.89538-.94736-2.81575-.62849-1.45733-1.30535-2.82321-2.06576-4.09208-.3802-.63443-.78508-1.24764-1.21051-1.8289-.42544-.5813-.86325-1.13384-1.34209-1.65787-.47884-.52408-.98588-1.0109-1.5263-1.47367-.54041-.46286-1.12666-.89195-1.73682-1.28946-.61016-.39759-1.24611-.76386-1.93418-1.09211-.68808-.32825-1.42319-.62673-2.19735-.88155-.91618-.38399-1.81129-.71902-2.68417-1.01316-.87289-.29415-1.72094-.54092-2.5526-.74997-.83167-.2091-1.64167-.38438-2.43418-.51318-.79252-.12879-1.57347-.20989-2.32892-.26315s-1.49005-.07015-2.2105-.05263c-.72045.01751-1.41771.06126-2.10524.14475-1.37506.16695-2.69148.46598-3.94732.86842-1.25584.40235-2.45199.9135-3.60522 1.51311-1.15322.59962-2.26169 1.2807-3.3289 2.03947-1.06721.75869-2.09427 1.59388-3.09207 2.47366-.9978.87969-1.96285 1.8137-2.90786 2.77626-.04647-1.28677-.04294-2.54591.02632-3.77625.06925-1.23039.20267-2.44406.38157-3.6184.17891-1.17434.40172-2.31546.6842-3.43415.28249-1.11872.62001-2.21285.99999-3.27629s.8049-2.09665 1.2763-3.10523c.4714-1.00857.99587-1.99328 1.55261-2.94733.55675-.95405 1.15345-1.8764 1.78946-2.77626.63601-.89994 1.30393-1.77223 2.01313-2.61841s1.4605-1.66772 2.23681-2.46047c.77632-.79283 1.58368-1.56285 2.42103-2.30263s1.69976-1.44436 2.59207-2.13155 1.80877-1.35194 2.74996-1.9868c1.88239-1.26987 3.85321-2.43685 5.89467-3.49995 2.04146-1.06319 4.15064-2.02208 6.30255-2.88157 2.48795-.47654 4.91077-.82744 7.26307-1.05261 2.3523-.22518 4.64074-.3184 6.86834-.30261 2.22759.0157 4.39924.14846 6.51307.39473 2.11384.24619 4.17312.59953 6.18414 1.06576 2.01101.46622 3.96236 1.03464 5.8815 1.7105 1.91914.67587 3.80646 1.45379 5.64467 2.32894 1.83821.87506 3.63961 1.85711 5.40783 2.92102 1.66026.99885 3.28707 2.08052 4.89467 3.2368v-27.30231z" fill="#008f4c" stroke="#000" stroke-linecap="round"/><path d="m163.4821 475.83108c2.33416-28.4258 4.87203-56.72932 13.94878-81.10956" fill="none" stroke="#000"/><path d="m165.05485 457.80086c2.13173-22.22259 5.22399-43.86889 12.37603-63.07934-20.01651 8.54683-51.68185 20.78205-56.31173 54.76184-4.9237 9.88847 29.29047 5.54499 43.9357 8.3175z" fill="#ed1c24" fill-rule="evenodd" stroke="#000"/><path d="m77.680431 33.379307v98.604043h83.604229c.22135-39.43634 62.28648-69.722822 138.72196-69.722822 76.43547.000004 138.50058 30.286486 138.72196 69.722822h83.59105v-98.604043z" fill="#e3e4e5" fill-rule="evenodd" stroke="#000" stroke-width="3"/><path d="m283.6055 157.4304v185.32664c-9.57256 4.30137-17.15768 12.25299-20.97342 22.07868h-210.984222v32.7759h212.694722c4.14884 8.06718 10.95761 14.54431 19.26292 18.27609v238.23388h32.78907v-238.23388c8.30531-3.73178 15.11408-10.20891 19.26292-18.27609h212.69474v-32.7759h-210.98424c-3.81574-9.82569-11.40085-17.77731-20.97342-22.07868v-185.32664z" fill="#e3e4e5" stroke="#000" stroke-width="3"/><path d="m53.238592 712.65434v-677.455767" fill-rule="evenodd" stroke="#000" stroke-linecap="round" stroke-width="11"/><path d="m-562.55933 354.73627h50.080734v49.170174h-50.080734z" stroke="#000" stroke-width="3" transform="scale(-1 1)"/><path d="m543.75591 712.65434v-677.455767" fill-rule="evenodd" stroke="#000" stroke-linecap="round" stroke-width="11"/><path d="m37.440754 354.73627h50.080734v49.170174h-50.080734z" stroke="#000" stroke-width="3"/><g stroke="#000" stroke-width="7.125089" transform="matrix(.4210474 0 0 .4210474 -2.061144 -9.212269)"><path d="m764.0919 1629.1948a46.687725 74.456245 0 1 1 -93.37545 0 46.687725 74.456245 0 1 1 93.37545 0z" stroke-width="7.391437" transform="matrix(1.0019296 0 0 .9274394 -1.384276 112.72261)"/><path d="m764.0919 1629.1948a46.687725 74.456245 0 1 1 -93.37545 0 46.687725 74.456245 0 1 1 93.37545 0z" fill="#e3e4e5" stroke-width="12.861579" transform="matrix(.6055824 0 0 .5067791 282.95686 777.92041)"/></g><g id="b" stroke-width="7.125089" transform="matrix(.4210474 0 0 .4210474 -2.308083 -9.212269)"><path d="m632.12326 1617.6252c1.17379 10.9909-12.31901 15.825-21.0395 13.7193-16.86587-4.0725-22.99265-24.0474-17.43663-38.999 8.41446-22.644 35.96583-30.3838 56.95859-21.154 28.46423 12.5148 37.85934 47.9451 24.87128 74.9181-16.52206 34.3123-59.95121 45.3765-92.87768 28.5886-8.73073-4.4514-16.5494-10.6292-22.95688-18.0401" fill="none" stroke="#000" stroke-width="7.125089" transform="matrix(-1 0 0 1 1240.8554 0)"/><path d="m631.65748 1626.1433a17.698614 17.698614 0 1 1 -35.39723 0 17.698614 17.698614 0 1 1 35.39723 0z" stroke="#000" stroke-width="7.125089"/></g><use height="2400" stroke-width="3" transform="matrix(-1 0 0 1 600.00007 -.513928)" width="1500" xlink:href="#b"/><g stroke="#000"><path d="m3.1578559 33.377459h593.6843441" fill-rule="evenodd" stroke-linecap="round" stroke-width="7"/><g fill="none" stroke-width="3"><path d="m283.60551 157.42398-205.918498-.21052v207.61582h184.945068c3.81574-9.82569 11.40086-17.7773 20.97343-22.07868z"/><path d="m522.31306 157.21346-205.91849.21052v185.32662c9.57257 4.30138 17.15769 12.25299 20.97343 22.07868h184.94506z"/><path d="m283.6055 654.12159v-238.23388c-8.30531-3.73178-15.11408-10.20891-19.26292-18.27609h-186.655572v129.28789c-.647192 6.86152.054862 10.42417 2.657862 16.42085 48.48462 110.54903 155.52997 51.49073 203.98431 112.90647"/><path d="m522.3125 397.625h-186.65625c-1.03721 2.0168-2.24223 3.91876-3.59375 5.71875s-2.83927 3.48417-4.46875 5.03125-3.41017 2.96069-5.28125 4.21875-3.82992 2.34831-5.90625 3.28125v238.25l-.71875 2.09375c48.45435-61.41574 155.48411-2.35724 203.96875-112.90625 2.603-5.99664 3.30346-9.54467 2.65625-16.40625z"/></g></g></g></svg>