<svg height="540" viewBox="-2 -2 50 54" width="500" xmlns="http://www.w3.org/2000/svg" xmlns:xlink="http://www.w3.org/1999/xlink"><clipPath id="a"><path id="b" d="m0 25c0 10 7 20 23 25 16-5 23-15 23-25v-25h-46z"/></clipPath><g clip-path="url(#a)"><use fill="#009" xlink:href="#b"/><path d="m1 42.5h44v-9.5c-22 3-22-3-44 0z" fill="#090"/><path d="m1 36.5c22-3.5 22 3.5 44 0" fill="none" stroke="#009" stroke-width=".4"/><g fill="#fff"><path d="m17 27h-17v-9h46v9h-17v-5c0-4-12-4-12 0z"/><path d="m0 28.5h46m-46-12h46" stroke="#fff"/><path id="c" d="m.5 14h3v2.5h-3zm6 0h3v2.5h-3zm6 0h3v2.5h-3zm6 0h3v2.5h-3z"/><use x="24" xlink:href="#c"/></g><g stroke="#009"><path d="m7.5 21v3"/><path d="m11 20v3"/><path d="m35 20v3"/><path d="m38.5 21v3"/></g><g id="d"><path id="e" d="m23 3-1.4225 4 1.4225 4 1.4225-4zm-4 4 4 1.4225 4-1.4225-4-1.4225z" fill="#fc0"/><use transform="matrix(.70710678 .70710678 -.70710678 .70710678 11.686292 -14.213203)" xlink:href="#e"/></g><use transform="translate(9 2.5)" xlink:href="#d"/><use transform="translate(-9 2.5)" xlink:href="#d"/><use fill="none" stroke="#fff" stroke-width="2.4" xlink:href="#b"/></g><use fill="none" stroke="#fc0" stroke-width=".8" xlink:href="#b"/></svg>