<svg height="307.048pt" viewBox="0 0 288 307.048" width="288pt" xmlns="http://www.w3.org/2000/svg" xmlns:xlink="http://www.w3.org/1999/xlink"><clipPath id="a"><path d="m0 0h13.9589v94.7646h-13.9589z" transform="translate(132.395 212.315)"/></clipPath><clipPath id="b"><path d="m0 0h17.6968v93.8593h-17.6968z" transform="translate(124.113 210.324)"/></clipPath><clipPath id="c"><path d="m0 0h20.9668v93.4131h-20.9668z" transform="translate(117.088 208.745)"/></clipPath><clipPath id="d"><path d="m0 0h25.6729v92.9795h-25.6729z" transform="translate(110.355 206.284)"/></clipPath><clipPath id="e"><path d="m0 0h30.5186v90.4277h-30.5186z" transform="translate(102.374 205.36)"/></clipPath><clipPath id="f"><path d="m0 0h12.9556v93.2275h-12.9556z" transform="translate(142.597 214.142)"/></clipPath><clipPath id="g"><path d="m0 0h14.626v94.6992h-14.626z" transform="translate(150.194 212.307)"/></clipPath><clipPath id="h"><path d="m0 0h18.3516v93.7715h-18.3516z" transform="translate(154.731 210.289)"/></clipPath><clipPath id="i"><path d="m0 0h21.6211v93.292h-21.6211z" transform="translate(158.469 208.688)"/></clipPath><clipPath id="j"><path d="m0 0h26.3223v92.8223h-26.3223z" transform="translate(160.483 206.209)"/></clipPath><clipPath id="k"><path d="m0 0h31.1602v90.2295h-31.1602z" transform="translate(163.604 205.273)"/></clipPath><clipPath id="l"><path d="m0 0h5.08296v5.18556h-5.08296z" transform="translate(95.8301 52.417)"/></clipPath><clipPath id="m"><path d="m0 0h5.08346v5.18546h-5.08346z" transform="translate(95.0337 56.4708)"/></clipPath><clipPath id="n"><path d="m0 0h5.08296v5.18546h-5.08296z" transform="translate(99.7388 55.4571)"/></clipPath><clipPath id="o"><path d="m0 0h5.08296v5.18546h-5.08296z" transform="translate(99.7388 49.4493)"/></clipPath><clipPath id="p"><path d="m0 0h5.08346v5.18546h-5.08346z" transform="translate(95.4678 56.1085)"/></clipPath><clipPath id="q"><path d="m0 0h5.08346v5.18596h-5.08346z" transform="translate(99.521 54.733)"/></clipPath><clipPath id="r"><path d="m0 0h5.5689v5.5689h-5.5689z" transform="translate(133.885 49.249)"/></clipPath><clipPath id="s"><path d="m0 0h121.024v170.82h-121.024z" transform="translate(168.582 3.6548)"/></clipPath><clipPath id="t"><path d="m0 0h128.116v166.264h-128.116z" transform="translate(-1.8657 11.4595)"/></clipPath><clipPath id="u"><path d="m0 0h58.1943v65.7222h-58.1943z" transform="translate(118.783 123.519)"/></clipPath><clipPath id="v"><path d="m0 0h58.7734v66.3013h-58.7734z" transform="translate(118.494 123.23)"/></clipPath><clipPath id="w"><path d="m0 0h92.5986v71.332h-92.5986z" transform="translate(172.057 161.339)"/></clipPath><clipPath id="x"><path d="m0 0h93.7574v72.0654h-93.7574z" transform="translate(32.2827 159.892)"/></clipPath><clipPath id="y"><path d="m0 0h41.5459v45.6006h-41.5459z" transform="translate(180.309 200.822)"/></clipPath><clipPath id="z"><path d="m0 0h41.5469v44.2988h-41.5469z" transform="translate(79.2627 200.243)"/></clipPath><g clip-path="url(#a)"><path d="m8.9785 0s-8.9785 92.084-8.899 92.6699c.2061 1.5156 10.4161-1.3809 10.4161-1.3809l2.8842-91.2002z" fill="#fff" stroke="#161413" stroke-width=".579062" transform="translate(132.685 212.605)"/></g><g clip-path="url(#b)"><path d="m13.5977 0s-13.5977 91.5342-13.1104 91.9804c1.4219 1.2998 8.4532-.5048 8.4532-.5048l8.1772-90.4248z" fill="#fff" stroke="#161413" stroke-width=".579062" transform="translate(124.402 210.614)"/></g><g clip-path="url(#c)"><path d="m17.6113 0s-17.6113 90.9707-17.2509 91.4482c1.0449 1.3858 7.3422-.2803 7.3422-.2803l12.6851-90.624z" fill="#fff" stroke="#161413" stroke-width=".579062" transform="translate(117.378 209.035)"/></g><g clip-path="url(#d)"><path d="m21.7378 0s-21.7378 90.8682-21.3599 91.6348c.3775.7656 6.9639-.7549 6.9639-.7549l17.752-89.9004z" fill="#fff" stroke="#161413" stroke-width=".579062" transform="translate(110.645 206.574)"/></g><g clip-path="url(#e)"><path d="m27.5079.0059s-27.5079 88.6308-26.9761 89.2363c.5322.6064 8.2773-.1182 8.2773-.1182l21.1304-89.124z" fill="#fff" stroke="#161413" stroke-width=".579062" transform="translate(102.664 205.65)"/></g><g clip-path="url(#f)"><path d="m3.0816 0s-3.0816 91.2011-2.8643 91.7793c.2173.58 9.8428.8691 11.002 0 1.1572-.8682-3.7325-91.7793-3.7325-91.7793z" fill="#fff" stroke="#161413" stroke-width=".579062" transform="translate(142.886 214.431)"/></g><g clip-path="url(#g)"><path d="m4.4013 0s9.6456 92.0176 9.5704 92.6025c-.1963 1.5176-10.4268-1.3047-10.4268-1.3047l-3.5449-91.1777z" fill="#fff" stroke="#161413" stroke-width=".579062" transform="translate(150.483 212.596)"/></g><g clip-path="url(#h)"><path d="m3.5127 0s14.2598 91.4336 13.7773 91.8828c-1.4131 1.3096-8.458-.4433-8.458-.4433l-8.832-90.3633z" fill="#fff" stroke="#161413" stroke-width=".579062" transform="translate(155.02 210.579)"/></g><g clip-path="url(#i)"><path d="m2.7734 0s18.2686 90.8408 17.9131 91.3213c-1.0352 1.3916-7.3447-.2285-7.3447-.2285l-13.3418-90.5283z" fill="#fff" stroke="#161413" stroke-width=".579062" transform="translate(158.759 208.978)"/></g><g clip-path="url(#j)"><path d="m3.3487 0s22.3945 90.709 22.0234 91.4756c-.3711.7676-6.9707-.7041-6.9707-.7041l-18.4014-89.7676z" fill="#fff" stroke="#161413" stroke-width=".579062" transform="translate(160.772 206.498)"/></g><g clip-path="url(#k)"><path d="m2.2139 0s28.3672 88.4307 27.8389 89.04c-.5274.6104-8.2764-.0586-8.2764-.0586l-21.7764-88.9697z" fill="#fff" stroke="#161413" stroke-width=".579062" transform="translate(163.894 205.563)"/></g><path d="m0 36.1914 6.1245 2.2012 5.4575 2.0039 5.5459 1.5156 6.7622 1.6397 7.958 1.3174 9.1191.1523 7.4043-.9258 6.6631-1.289 5.8877-1.7862 5.4434-1.6738 5.7275-1.708-11.292-37.0606s-8.3974 5.501-23.1631 5.501c-14.7651 0-26.3466-6.0791-26.3466-6.0791z" fill="#161413" transform="translate(112.414 226.591)"/><path d="m58.0009 60.5762.292 1.1006-3.0439 1.2089.0889.9004-2.8428 1.1172.167.8877-4.0215 1.5254-.1416 1.0332-4.8057 1.3906.17 1.0606-4.9981-.0371.0664-1.0459-4.666-1.2764-.0752-1.1689-3.8735-.7276.1689-1.1093-3.3403-.7168.1074-.7959-3.0991-1.1895.2651-1.2549-3.0718-1.2441 4.753-13.8057c-5.791-2.0254-5.8335-.3808-6.4131 1.6455-.5786 2.0274 1.7378 3.4737.8696 4.3418-.8696.8701-3.7646-.8681-3.7646-.8681.29 3.4755-.5787 6.0791-.5787 6.0791l-8.3964-.8672-7.8169-5.791s.2885-4.3428 2.6054-4.6319c2.3164-.289 4.0533-3.7646 4.0533-3.7646l-2.3164-.8682c-1.4473-.2891-1.7369-1.7373-.5787-1.7373s1.7369-.29.8682-3.7637c-.8682-3.4746 4.0532-10.1328 4.0532-10.1328l-1.4467-3.7646s2.3154-.5791 4.9218-.5791c2.605 0 5.7627-7.7315 1.7368-9.5547-3.8364-1.7373-6.2973 2.0273-4.9218 4.3437.9467 1.5948 2.7505.7246 3.6191 0-.0727 1.8096-1.4482 3.6192-3.9092 3.6192-2.4604 0-4.3344-2.6084-4.4873-5.7178-.2173-4.415 3.6192-8.3252 5.356-9.7715 1.7378-1.4492 3.185-4.6343 3.185-4.6343h28.3726l.2617-.0112h28.3721s1.4482 3.1865 3.1846 4.6348c1.7382 1.4463 5.4921 4.915 4.9609 9.2636-.3447 2.8291-1.7295 4.4795-4.2363 4.4883-3.4444.0108-3.1846-2.6054-3.1846-2.6054s1.9258 1.4824 3.04 0c1.6221-2.1622-1.1582-5.9356-4.9218-3.6211-3.7647 2.3164-.8692 9.5546 1.7363 9.5546s4.9219.5801 4.9219.5801l-1.4463 3.7637s4.9209 6.6592 4.0517 10.1328c-.8681 3.4746-.289 3.7647.8692 3.7647s.8691 1.4482-.5782 1.7373l-2.3164.8681s1.7364 3.4756 4.0528 3.7647c2.3164.289 2.6054 4.6308 2.6054 4.6308l-7.8164 5.792-8.3964.8682s-.8692-2.6065-.5801-6.0801c0 0-2.8946 1.7383-3.7627.8692-.8682-.8692 1.4463-2.3165.8681-4.3438-.5791-2.0254-.7998-3.8496-6.5918-1.8223l4.9317 13.9825z" fill="#161413" transform="translate(106.913 149.275)"/><g fill="#fcce15" stroke="#161413" stroke-width=".579062"><path d="m9.8447 6.9488-7.5283 1.1582-2.3164-4.6328s1.1582-3.4742 4.0537-1.7369c2.896 1.7369 5.791 5.2115 5.791 5.2115z" transform="translate(131.522 15.8149)"/><path d="m8.107 7.5278s-5.2119 2.6055-6.6587-.2896c-1.4483-2.8955-.8696-4.3427.2886-5.7905 1.1582-1.4477 4.0537.2896 4.0537.2896z" transform="translate(129.785 10.314)"/><path d="m.29 5.501c-.29 1.4472 4.9219 2.0263 6.3696.8686 1.4483-1.1582.8687-6.3696-.8686-5.7905-1.7368.5791-5.2115 3.4741-5.501 4.9219z" transform="translate(130.364 5.3921)"/><path d="m0 .8687s6.6587-.8687 8.1079 1.4477c0 0-1.4492 3.4742-2.896 2.8951-1.4483-.5791-4.3433-1.4478-4.3433-1.4478z" transform="translate(137.313 4.5234)"/><path d="m5.2119 6.0801s-2.6074.8681-3.1855-.5791c-.5791-1.4478-2.0264-5.501.291-5.2115 2.3144.2891 2.8945 5.7906 2.8945 5.7906z" transform="translate(143.104 6.5503)"/><path d="m6.9488 2.0263s.5781 4.6324-2.8955 5.7906c-3.4742 1.1582-4.0533-.2891-4.0533-.2891s2.316-.5796 3.7642-2.0273c1.4463-1.4473 0-2.6055.8682-4.0533.8691-1.4472 1.7373-.8681 2.3164.5791z" transform="translate(142.814 12.6304)"/></g><path d="m33.4209 24.7236-9.4141-8.3628 3.499-11.0049s4.7764 2.3159 8.5401.2896l-3.4014-2.1719s2.6778-2.0264 4.2695-1.4473c1.5928.5791 2.752 2.751 2.752 2.751l2.0264-.5796-2.461-3.2573s3.3291-.9404 4.7774-.0723c1.4472.8687 1.3027 2.751 1.3027 2.751l2.1709.1445-1.085-3.185s3.4014.1445 4.5586 1.0137c1.1582.8686.8692 3.0395.8692 3.0395l1.8818.7241-.2168-2.6782s3.2803 1.4595 3.9942 2.793c.7099 1.333.3398 2.6435.3398 2.6435l1.3838 1.585.8691-2.3164s2.7989 2.5166 2.0938 3.6953c-.6465 1.082-1.1289 1.7803-1.1289 1.7803l.7734 1.9072 2.3145-1.4473s.9414 1.0127 1.3593 3.691c.212 1.3647-2.0527 1.811-2.0527 1.811l-.1064 2.1767 2.7675-.9082s.6397 1.9151.1104 4.2124c-.3106 1.3501-3.1475 1.7022-3.3809 1.7559l-.5791 2.0269 3.5078-.4483s-.3945 3.251-1.5878 4.1655c-1.1954.9146-2.7149.3765-2.7149.3765l-1.6748 1.9624 3.4024.0747s-1.3086 2.479-2.4952 3.0235c-1.1865.5449-2.9922-.4082-2.9922-.4082l-2.2246 1.5712 3.336 1.2554s-2.044 2.3213-3.4268 2.4317c-1.3818.1098-2.7939-1.5616-2.7939-1.5616l-2.9307 1.0191 3.291 1.8325s-1.9892 1.3589-3.7246 1.2114c-1.7373-.1479-2.459-1.7153-2.459-1.7153l-1.4443.2319 1.5156 1.9868s-3.5478.2178-3.3711.2027c.1778-.0147-1.6933 16.0849.8369 28.9677 2.6065 10.1333 8.6856 17.0821 12.4493 19.688h-56.7471s10.1333-6.3696 13.897-19.688c3.7646-13.3183 3.185-30.1113 1.4482-35.3222-1.7368-5.2119-6.6016-10.5357-6.6016-10.5357l16.7349.691z" fill="#161413" transform="translate(118.783 29.5679)"/><g fill="#fcce15" stroke="#161413" stroke-width=".579062"><path d="m12.0156 15.9238s-1.4472 6.0801 6.0801 8.1069c7.5273 2.0264 12.1602-4.7773 12.1602-10.5678 0-5.7906-4.0879-10.2593-8.8301-12.0157-3.9087-1.4472-8.9761-.7231-12.4507 1.3028-3.4736 2.0268-8.3218 5.7797-8.6856 15.0561-.2895 7.3828 3.3306 12.8833 6.2247 16.0689 2.8959 3.184 6.3701 7.5273 15.0571 11.8706 3.1836 1.1582 5.5-1.1582 4.9199-4.3433-.5781-3.1851-.2891-2.6059-1.1572-4.0532-.8682-1.4483-8.9751-5.5015-11.5806-8.9756-2.6064-3.4746-7.8179-6.9482-5.5015-14.7656 2.3165-7.8174 4.6324-6.6592 6.6587-7.5279 2.0269-.8686 8.6861 0 9.8443 5.2115 1.1582 5.2119.8681 9.2651-4.0537 9.5542-4.9219.2895-5.5005-.5786-8.6856-4.9219z" transform="translate(123.85 -.3984)"/><path d="m6.6591 12.0127s-2.1718-.8691-3.1845-2.7505c-1.0137-1.8823-1.1582-4.0537.4341-4.9219.7241-.1455 1.3027.8682 2.0268 1.3028.9697.5815 2.1719-.2901 1.7368-2.0269-.248-.9927-1.1572-2.4609-2.1714-2.895-1.6831-.7212-3.8681-.3574-4.6318 2.3154-.8691 3.0406.4341 5.646 1.4473 6.6597 1.0136 1.0132 4.3427 2.3164 4.3427 2.3164z" transform="translate(135.576 8.1455)"/><path d="m1.1582 3.4737s2.1724 1.8823 3.1851.29c1.0127-1.5928-.2896-3.7637 1.3037-3.185 1.5918.5795 2.8945 3.3295 1.7363 5.5014-1.1582 2.1709-7.3833 2.461-6.2251-2.6064z" transform="translate(138.76 11.3276)"/></g><g clip-path="url(#l)"><path d="m2.2515 0c-1.2432 0-2.2515 1.0313-2.2515 2.3033 0 1.2719 1.0083 2.3032 2.2515 2.3032 1.2441 0 2.2524-1.0313 2.2524-2.3032 0-1.272-1.0083-2.3033-2.2524-2.3033z" fill="#fcce15" stroke="#161413" stroke-width=".579062" transform="translate(96.1196 52.7065)"/></g><g clip-path="url(#m)"><path d="m2.252 0c-1.2432 0-2.252 1.0312-2.252 2.3032s1.0088 2.3032 2.252 2.3032c1.2441 0 2.2524-1.0312 2.2524-2.3032s-1.0083-2.3032-2.2524-2.3032z" fill="#fcce15" stroke="#161413" stroke-width=".579062" transform="translate(95.3232 56.7603)"/></g><g clip-path="url(#n)"><path d="m2.252 0c-1.2437 0-2.252 1.0312-2.252 2.3032s1.0083 2.3032 2.252 2.3032c1.2436 0 2.2519-1.0312 2.2519-2.3032s-1.0083-2.3032-2.2519-2.3032z" fill="#fcce15" stroke="#161413" stroke-width=".579062" transform="translate(100.028 55.7466)"/></g><g clip-path="url(#o)"><path d="m2.252 0c-1.2437 0-2.252 1.0312-2.252 2.3032s1.0083 2.3032 2.252 2.3032c1.2436 0 2.2519-1.0312 2.2519-2.3032s-1.0083-2.3032-2.2519-2.3032z" fill="#ced0d1" stroke="#161413" stroke-width=".579062" transform="translate(100.028 49.7388)"/></g><g clip-path="url(#p)"><path d="m2.2524 0c-1.2436 0-2.2524 1.0312-2.2524 2.3032 0 1.2724 1.0088 2.3032 2.2524 2.3032 1.2437 0 2.252-1.0308 2.252-2.3032 0-1.272-1.0083-2.3032-2.252-2.3032z" fill="#fcce15" stroke="#161413" stroke-width=".579062" transform="translate(95.7573 56.398)"/></g><g clip-path="url(#q)"><path d="m2.2525 0c-1.2437 0-2.2525 1.0312-2.2525 2.3037 0 1.2719 1.0088 2.3032 2.2525 2.3032 1.2441 0 2.2519-1.0313 2.2519-2.3032 0-1.2725-1.0078-2.3037-2.2519-2.3037z" fill="#fcce15" stroke="#161413" stroke-width=".579062" transform="translate(99.8105 55.0225)"/></g><path d="m0 1.5923.434-1.5923 12.1602 2.461 9.9878 12.7387-.1445 4.4878-3.9087-.8686-9.2642-11.2915z" fill="#fcce15" transform="translate(121.534 41.728)"/><g clip-path="url(#r)"><path d="m2.7847 5.5689c1.5381 0 2.7842-1.2461 2.7842-2.7847 0-1.5376-1.2461-2.7842-2.7842-2.7842s-2.7847 1.2466-2.7847 2.7842c0 1.5386 1.2466 2.7847 2.7847 2.7847z" fill="#161413" transform="translate(133.885 49.249)"/></g><path d="m15.9238 26.2022s-1.7368-6.3692 1.4483-9.2647c3.1841-2.8945 8.2509-4.4878 11.436-3.04 3.1841 1.4472 5.9346 6.8042 10.5674 12.5947 4.6323 5.79 9.2651 14.4766 13.0288 15.9238 3.7637 1.4478 8.1074.8692 8.9746-6.3691.8682-7.2383 2.3174-12.1611-1.1572-18.5303-3.4746-6.3696-11.8706-13.3183-17.3711-14.7656-10.4551-2.751-21.7149-.2901-30.4004 8.396-2.0273 2.0268-7.8179 3.7637-10.1338 4.0532-2.3164.29-.2895 1.4482.7236 2.0269 1.0137.5786-1.4482 1.0136-.1445 1.7368 1.3027.7241 5.2114.5796 7.5274-1.7368 2.3164-2.3164 5.5009-6.3697 10.4228-7.9615 4.9219-1.5927 6.6631-2.2441 12.4502-1.8823 4.6318.2896 11.0015 5.5015 12.6743 7.0869 3.7608 3.5659 5.2759 9.1992 4.8418 9.5611-.4346.3613-4.0996-.8789-6.8042-6.0801-1.8823-3.6192-3.7637-6.9492-6.9487-8.6856-3.8125-2.08-7.8169-2.0268-12.0147-1.0136-4.1987 1.0136-8.1074 1.8818-10.7129 5.2114-2.6064 3.3296-1.0131 13.3183 1.5923 12.7388z" fill="#fcce15" stroke="#161413" stroke-width=".579062" transform="translate(90.6992 34.7788)"/><path d="m2.6055 1.4478s11.292-1.4478 16.792 2.895c5.501 4.3433 7.2383 11.002 4.6328 16.5034-2.6055 5.5015-10.4238 9.2652-14.4766 9.2652-2.3154 0-2.2734-4.9575-1.7373-8.9756.5791-4.3428-1.4482-7.2383-4.0537-10.1333-3.4648-3.8496-3.7627-6.0801-1.1572-9.5547z" fill="#ce1127" transform="translate(151.211 37.2397)"/><path d="m1.0127 1.0137c1.0137-1.0137 3.9082-.145 5.3564 1.8823 1.4483 2.0269 1.4483 4.3423.4346 5.0664-1.0137.7242-3.4746 0-4.9219-2.1718-1.4477-2.1714-1.8818-3.7637-.8691-4.7769z" fill="#ce1127" transform="translate(143.104 51.2817)"/><g clip-path="url(#s)"><path d="m0 117.548s8.6865 2.606 16.2139 1.448c7.5273-1.158 13.6074-10.133 14.1875-17.082.5781-6.9492.8672-9.8442-1.1592-11.582-1.3906-1.1909-4.9219 3.4746-6.6592-1.7368-1.7363-5.2109 2.3155-23.7407 20.8467-43.4282 18.5283-19.6885 45.7451-34.7442 72.3823-43.4297 5.212-1.7373 5.212 6.9482-2.897 12.1601 0 0 6.949 1.1583-9.264 19.1084 0 0 6.369 4.0538-9.2652 19.6885 0 0 7.2382 6.0801-4.9219 17.0821 0 0 7.5273 1.1582 6.3691 6.3696-1.1572 5.2109-8.3955 11.291-8.3955 11.291s6.9483-.2891 6.9483 4.3433c0 4.6328-7.8164 10.7127-7.8164 10.7127s6.0791 1.158 6.0791 4.053-4.6329 6.949-10.4229 9.265c0 0 6.6602 2.895 5.79 5.79-1.9775 6.592-9.2646 8.107-9.2646 8.107s4.0537 1.737 4.0537 4.633c0 2.895-5.2109 6.948-12.1602 8.106 0 0 7.8741 5.445 5.212 8.107-4.9219 4.922-12.1602 2.895-12.1602 2.895s5.9316 7.095-1.1582 8.107c-4.0537.58-9.8437-1.737-9.8437-1.737s.5781 11.001-14.1875 2.317c0 0 4.6328 8.395-8.3965 2.894-13.1202-5.541-19.6875-21.425-19.6875-21.425l-6.9493.58z" fill="#161413" transform="translate(168.582 3.6548)"/><g fill="#fff"><path d="m36.6689 18.9893c.6611-1.145 1.5967-1.4146 2.2324-2.4834.5166-.8726 1.7295-1.6431 2.8731-2.2842.6123-.3428 1.0136-1.207 1.4414-1.7412 1.2969-1.6294 2.4404-3.3452 3.9775-4.6626 4.0528-3.4746 10.1328-7.8179 11.5811-6.6597 1.4482 1.1582.8681 6.6597-2.6065 11.0025-3.4746 4.3427-20.2675 20.8457-20.2675 20.8457l.58-5.791c-2.3154 7.5283-8.6855 19.1093-8.6855 19.1093s4.6318-6.0801 7.2383-4.0537c2.6054 2.0274-3.1846 11.0025-3.1846 11.0025 1.1572-1.7378 3.7646-5.2115 5.5-1.7378 1.7383 3.4746-3.4736 8.1069-3.4736 8.1069 2.3164-1.7363 3.7636-2.6055 5.2119-.2891 1.4482 2.316-4.6328 7.5274-4.6328 7.5274s3.4736-1.1582 4.6328 1.1582c1.1572 2.3164-4.3438 6.0801-4.3438 6.0801 1.1573-.2896 2.8955-.2896 3.1846 1.7378.2891 2.0263-3.4736 4.9218-3.4736 4.9218 2.8945-1.4482 2.6054 1.1573 2.0263 2.6055-.58 1.4478-4.3427 2.895-4.3427 2.895 2.8955-.5786 4.0537 2.606 2.0273 4.3433-2.0273 1.7368-5.79 1.4477-5.79 1.4477s4.0517 3.7637 1.4463 5.211c-2.6055 1.4477-6.0811-1.7368-6.0811-1.7368 2.8965 3.4746 3.4756 5.5005.5811 5.7895-2.8956.29-6.0811-2.8945-6.0811-2.8945s1.6006 4.1895.2891 5.5015c-.5791.579-1.7364.579-4.6309-.87-1.2959-.647-2.752-1.881-2.752-1.881s2.461 4.198-.1445 4.488c-4.0283.447-7.2383-4.054-7.2383-4.054l.2891 1.738s.291 4.053-1.1572 3.763c-1.4483-.289-2.8955-1.158-2.6055-3.184.2891-2.027.5791-8.9756.5791-8.9756s3.7637-1.3028 5.5.1445c0 0 1.3047-1.4473 4.1992-.5796 0 0-.4345-2.3154 3.4737-1.8814 0 0 .29-2.0263 2.8945-1.7368 0 0-.8682-2.0268 2.3174-2.1718 0 0-1.0137-2.316 1.8828-2.8951 0 0-1.1592-2.8955 1.1572-2.6054 0 0-2.1728-1.8824 1.0127-2.751 0 0-1.8809-1.4478.5791-3.3291 0 0-2.46-2.0269.5791-3.3301 0 0-1.7363-1.4473.2891-3.7637 0 0-2.3145-.8686-.1436-2.8955 0 0-2.4619-1.0127-.5791-2.895 0 0 .5791-5.5015-3.7637-4.9219 0 0-1.3916.9161-2.0273-.1445-.4336-.7241 0-1.5923 0-1.5923s-1.0596.8447-1.4473-.5796c-.4345-1.5923-.1455-3.185 1.5918-3.4746 0 0-1.7373-3.0395.4356-4.1977 0 0-.5801-3.3296.8681-3.3296 0 0-.4345-3.1851.8682-3.1851 0 0-1.1582-2.6055 1.1582-3.7637 0 0-.7246-1.8818 1.3037-2.4609 0 0-.1465-2.1719 1.5918-2.4609 0 0-.289-2.8955 2.0264-2.606 0 0-1.0137-2.7505 1.5918-3.3296 0 0-.4336-2.4609 2.1719-2.7505 0 0-.1446-2.0268 1.8828-2.3159 0 0 .4336-2.6059 2.4599-2.0273z" transform="translate(177.847 31.4492)"/><path d="m1.0147 1.5923c1.0127 1.5923 3.3291 5.2114 9.5537 11.8701 2.3662 2.5332 5.5009 5.3565 7.542 6.9395 5.5839 4.332-.5928 2.3262-6.8174-3.8985-4.4903-4.4902-8.252-9.4106-9.5547-11.5815-1.3027-2.1714-1.7383-4.9219-.7236-3.3296z" transform="translate(185.374 140.891)"/><path d="m1.5937 1.1582c.8682 1.1572 5.6445 7.0928 13.0274 13.0283 2.5703 2.0664 5.2119 4.3428 7.1845 5.5322 10.1035 6.0908 1.9453 4.1875-7.1845-3.2158-9.8633-7.9975-12.8213-12.1133-13.462-13.3184-1.1591-2.1718-.4345-3.1845.4346-2.0263z" transform="translate(192.468 139.009)"/><path d="m1.3028 1.5923c1.3027 1.5918 4.4873 4.4878 10.2783 8.6856 2.9726 2.1552 11.3359 7.2861 13.0439 8.0976 8.2364 3.9175 4.9063 3.4839 1.167 1.9644-2.2744-.9238-8.2754-4.4165-11.459-6.5874-10.8603-7.4038-11.2919-8.3965-13.0302-10.4234-.8682-1.0136-1.3028-3.3291 0-1.7368z" transform="translate(199.127 135.39)"/><path d="m2.3173 1.1582c1.3018 1.1582 4.1153 3.851 12.4825 7.1782 6.3349 2.521 8.4209 2.7187 10.9472 3.2358 7.1153 1.4566 2.8897 2.1006-1.1367 1.3741-2.751-.4961-7.6728-1.9444-10.1592-2.9874-9.7588-4.0947-12.8486-6.4292-13.6504-7.6152-.8007-1.1855.2129-2.3437 1.5166-1.1855z" transform="translate(207.089 132.639)"/><path d="m.1436 41.1123s13.5888-13.3496 23.9502-21.7363c15.1591-12.269 29.3945-18.7602 29.3945-18.7602s-1.2305-.6158-3.6904.1074c-2.46.7246-13.0283 5.6465-27.7959 18.3852-10.0938 8.709-20.2412 18.2539-21.2793 20.1226-.7227 1.3027-.5791 1.8813-.5791 1.8813z" transform="translate(218.382 24.7905)"/><path d="m2.3144 34.1651c1.3047-.7242 9.1211-7.6729 16.6494-13.753 10.3614-8.3706 21.8584-15.6347 23.0176-16.6474 1.1573-1.0137 1.8819-3.7647 1.8819-3.7647s-11.002 5.9356-23.0176 16.0694c-7.3975 6.2382-17.9512 15.3447-19.3985 16.9375-1.4472 1.5922-.4355 1.8818.8672 1.1582z" transform="translate(218.671 41.5825)"/><path d="m2.0264 25.9126c2.0263-.8691 14.9111-9.9887 20.7012-14.0419 5.79-4.0538 11.581-7.8174 13.8974-9.8438 2.3164-2.0269-2.0264-1.1582-2.0264-1.1582s-8.831 7.0928-14.622 11.1465c-5.7901 4.0537-16.2129 11.2915-17.3721 12.0156-1.3037.8154-2.6045 2.7505-.5781 1.8818z" transform="translate(218.815 60.4023)"/><path d="m1.3027 20.7012c.8682 0 7.6299-1.7554 15.9239-6.9488 2.8847-1.8061 5.7031-3.5512 8.0781-5.375 4.4775-3.4389 7.5635-6.602 7.8457-7.0747.4356-.7236-.5781-1.3027-2.6045.145-.9131.6514-2.9892 2.9332-6.3769 5.565-2.2979 1.7842-5.3164 3.6514-8.5342 5.5815-8.4746 5.0845-11.7656 5.5459-13.3184 6.2251-2.3164 1.0132-1.8808 1.8819-1.0137 1.8819z" transform="translate(221.565 75.8921)"/><path d="m1.5918 12.4492c1.5918.4351 10.8574-1.1577 16.6465-3.1841 5.792-2.0268 10.9082-6.0337 11.873-7.0937 1.4463-1.5928 0-2.1714-2.1718-.2901-2.5449 2.2056-5.502 4.1988-12.3047 6.3701-5.8447 1.8653-11.4375 2.3164-13.1738 2.6055-1.7383.2896-2.461 1.1582-.8692 1.5923z" transform="translate(221.132 93.2637)"/><path d="m1.8808 7.8169c1.8828.435 10.5684 1.0136 17.2276-.4341 6.6601-1.4473 10.7119-3.6192 12.1601-4.4878 1.4483-.8682 2.6055-2.895-.1435-1.7368-2.751 1.1582-4.9219 2.6054-11.5811 4.0532-6.6601 1.4473-16.0693 1.3027-17.8066.8686-1.7373-.434-1.7373 1.3028.1435 1.7369z" transform="translate(219.105 106.727)"/><path d="m2.0263 2.7505c1.0137.4336 4.5948 1.1352 12.9805 1.4946 7.8086.3345 11.6387-1.1733 12.9365-1.6235 1.2989-.4502 4.628-2.6216 1.4444-2.043-3.1866.5796-6.6602 2.0269-14.4756 1.9404-6.9502-.0761-11.7276-1.2163-13.3203-1.3608-1.5918-.145-.5791 1.1582.4345 1.5923z" transform="translate(216.934 119.9)"/><path d="m26.458 8.4004c-2.8604-.0039-7.8233.0337-14.4151-1.9326-6.9668-2.0776-10.7412-4.8755-10.7412-4.8755s-1.3017-1.5923.7246-1.0137c2.0274.5796 4.6328 3.0406 11.6963 4.7657 6.6826 1.6318 10.7422 1.7495 14.5059 1.0244 3.1308-.6016 1.0898 2.0366-1.7705 2.0317z" transform="translate(212.88 126.849)"/><path d="m3.5313 17.3452c1.7519-1.3384 3.9307-3.0913 11.4883-7.2729 9.4463-5.2271 12.9131-6.6011 15.7148-7.8745 2.8008-1.274 10.1787-2.1978 5.5742-.5718-4.6045 1.6269-10.4619 3.8198-20.5293 9.4443-4.9218 2.75-12.2802 7.2476-13.3349 8.1167-2.4444 2.0171.0176-1.0234 1.0869-1.8418z" transform="translate(238.502 11.9829)"/></g></g><g clip-path="url(#t)"><path d="m128.116 109.773s-8.507 3.143-16.092 2.456-14.213-9.266-15.2242-16.1646c-1.0113-6.8989-1.4805-9.7705.4336-11.6303 1.3134-1.2764 5.1296 3.1606 6.5376-2.149 1.409-5.31-3.7915-23.5508-23.5127-42.0454-19.7217-18.4941-47.8223-31.8227-74.9483-38.831-5.31-1.4087-4.7685 7.2602 3.647 11.9565 0 0-6.8628 1.5889 10.4385 18.4937 0 0-6.1045 4.4419 10.4741 19.0717 0 0-6.8447 6.5196 5.978 16.7417 0 0-7.4414 1.6255-5.9599 6.7544 1.4809 5.1294 9.0835 10.7461 9.0835 10.7461s-6.9527.1446-6.6646 4.7676c.2891 4.6235 8.4707 10.2046 8.4707 10.2046s-5.9966 1.535-5.8154 4.425c.1802 2.889 5.0566 6.646 10.9795 8.596 0 0-6.4654 3.306-5.4175 6.141 2.3843 6.455 9.7519 7.513 9.7519 7.513s-3.937 1.986-3.7563 4.876c.1802 2.889 5.6348 6.61 12.6416 7.333 0 0-7.5181 5.926-4.6963 8.416 5.2192 4.606 12.3174 2.131 12.3174 2.131s-5.4785 7.451 1.6616 8.02c4.0811.325 9.7168-2.349 9.7168-2.349s.1074 11.017 14.3032 1.428c0 0-4.1001 8.668 8.5602 2.365 12.75-6.347 18.314-22.611 18.314-22.611l6.971.145z" fill="#161413" transform="translate(-1.8657 11.4595)"/><g fill="#fff"><path d="m24.5474 17.6635c-.7334-1.1015-1.6841-1.3115-2.3828-2.3393-.5713-.8384-1.8301-1.5318-3.0117-2.1006-.6319-.3037-1.0869-1.1406-1.5459-1.6475-1.397-1.5454-2.6445-3.1865-4.2608-4.4062-4.2627-3.2139-10.601-7.1699-11.9736-5.9243-1.3726 1.2461-.4517 6.7006 3.2861 10.8183 3.7388 4.1182 21.5279 19.5425 21.5279 19.5425l-.939-5.7437c2.7808 7.3687 9.8604 18.5298 9.8604 18.5298s-5.003-5.7793-7.4771-3.5942c-2.4751 2.1855 3.8643 10.7822 3.8643 10.7822-1.2637-1.6616-4.0816-4.9663-5.5987-1.3906-1.5166 3.5757 3.9732 7.874 3.9732 7.874-2.4204-1.5893-3.919-2.3657-5.2193.0366-1.3003 2.4014 5.0923 7.2242 5.0923 7.2242s-3.5395-.9395-4.5503 1.4443c-1.0117 2.3838 4.7129 5.7974 4.7129 5.7974-1.1733-.2168-2.9077-.1089-3.0703 1.9326-.1621 2.0405 3.7744 4.6958 3.7744 4.6958-2.98-1.2647-2.5283 1.3178-1.8598 2.7265.6679 1.4092 4.5146 2.6192 4.5146 2.6192-2.9253-.3975-3.8833 2.853-1.7515 4.4609 2.1304 1.607 5.8692 1.084 5.8692 1.084s-3.8106 4.0088-1.1201 5.2915c2.6909 1.2822 5.9604-2.1128 5.9604-2.1128-2.6733 3.648-3.125 5.7066-.2173 5.815 2.9077.1079 5.8882-3.2686 5.8882-3.2686s-1.3364 4.2825.0537 5.5085c.6143.541 1.7705.469 4.5694-1.156 1.2514-.7265 2.6274-2.0498 2.6274-2.0498s-2.1938 4.3438.4248 4.4698c4.0483.196 6.9717-4.4966 6.9717-4.4966l-.1812 1.7519s-.0361 4.0637 1.3907 3.6837c1.4262-.378 2.8169-1.337 2.4018-3.341-.4155-2.0043-1.1372-8.9213-1.1372-8.9213s-3.8384-1.0654-5.4819.4873c0 0-1.3902-1.3633-4.2256-.3164 0 0 .2886-2.3384-3.585-1.6611 0 0-.4155-2.0044-2.998-1.5537 0 0 .7407-2.0767-2.4468-2.0225 0 0 .8667-2.375-2.0591-2.772 0 0 .9756-2.9624-1.3178-2.5288 0 0 2.0498-2.0136-1.1836-2.6816 0 0 1.788-1.5625-.7852-3.2876 0 0 2.3296-2.1758-.7856-3.2866 0 0 1.6435-1.5532-.5235-3.7388 0 0 2.2578-1.0107-.0361-2.8984 0 0 2.3931-1.1646.3979-2.9258 0 0-.9218-5.4541 3.4493-5.147 0 0 1.4443.8276 2.0136-.2705.3882-.75-.0991-1.5898-.0991-1.5898s1.1094.7778 1.4087-.668c.3335-1.6162-.0547-3.188-1.8062-3.3682 0 0 1.5445-3.143-.6953-4.1626 0 0 .3706-3.3598-1.0742-3.2695 0 0 .2344-3.2051-1.0654-3.124 0 0 .9931-2.6734-1.3906-3.6851 0 0 .6049-1.9223-1.4537-2.374 0 0 .0088-2.1763-1.7431-2.3569 0 0 .1089-2.9078-2.1856-2.4746 0 0 .8409-2.8086-1.7968-3.2237 0 0 .2807-2.4834-2.3379-2.6098 0 0 .0175-2.0313-2.0235-2.1944 0 0-.5952-2.5737-2.582-1.8696z" transform="translate(51.4472 35.8062)"/><path d="m21.1934 1.6528c-.9117 1.6524-2.9976 5.4082-8.795 12.4429-2.205 2.6748-5.1567 5.6895-7.0952 7.3955-5.3032 4.6719.7378 2.2842 6.5615-4.3154 4.2022-4.7617 7.6495-9.9068 8.814-12.1548 1.1655-2.2485 1.4273-5.021.5147-3.3682z" transform="translate(88.6118 141.929)"/><path d="m28.7207 1.2099c-.7944 1.21-5.1919 7.4317-12.1909 13.8155-2.4365 2.2226-4.9307 4.6591-6.8257 5.9707-9.7041 6.707-1.6802 4.2988 6.9702-3.6582 9.3467-8.5987 12.0401-12.8892 12.6065-14.1328 1.0205-2.2388.2343-3.2051-.5601-1.9952z" transform="translate(73.2827 140.539)"/><path d="m30.2065 1.6709c-1.2016 1.6704-4.1997 4.7583-9.7168 9.3096-2.8325 2.3374-10.8593 7.9785-12.5127 8.8945-7.977 4.4248-4.6811 3.7832-1.0439 2.0342 2.2134-1.0645 7.9849-4.9248 11.0278-7.2901 10.376-8.0654 10.7466-9.0835 12.3535-11.2148.8037-1.0654 1.0928-3.4043-.1079-1.7334z" transform="translate(65.2417 137.296)"/><path d="m29.7456 1.2369c-1.228 1.2373-3.8677 4.1001-12.0108 7.9433-6.1674 2.9107-8.2363 3.2388-10.7241 3.9116-7.0107 1.8975-2.7549 2.2759 1.2198 1.3003 2.7138-.6674 7.5361-2.4184 9.9531-3.6152 9.4834-4.6943 12.4233-7.2173 13.1484-8.4507.7251-1.2339-.3584-2.3262-1.5864-1.0893z" transform="translate(56.5459 135.111)"/><path d="m55.7661 37.7832s-14.3945-12.4771-25.2597-20.2012c-15.8946-11.2998-30.5064-16.8906-30.5064-16.8906s1.189-.6914 3.69-.1231c2.5014.5699 13.3554 4.8228 28.8872 16.6163 10.6172 8.0615 21.3413 16.9565 22.4931 18.7563.8042 1.2554.6958 1.8423.6958 1.8423z" transform="translate(17.1899 31.3716)"/><path d="m43.5967 31.5073c-1.3462-.6411-9.5811-7.0889-17.4732-12.6875-10.8647-7.708-22.792-14.2412-24.0107-15.1802-1.2188-.9389-2.1128-3.6396-2.1128-3.6396s11.3506 5.2383 23.9741 14.6025c7.7715 5.7652 18.873 14.1958 20.417 15.6949 1.5444 1.4995.5508 1.8515-.7944 1.2099z" transform="translate(27.5171 47.6255)"/><path d="m38.458 23.5605c-2.0767-.7407-15.5039-9.0396-21.5361-12.7241-6.0318-3.6841-12.0464-7.0796-14.4839-8.958-2.438-1.8784 1.9502-1.2823 1.9502-1.2823s9.2563 6.5289 15.288 10.2139c6.0318 3.6841 16.8858 10.2583 18.0865 10.9082 1.354.7329 2.7724 2.583.6953 1.8423z" transform="translate(33.4585 66.1104)"/><path d="m33.4746 18.711c-.8671.0542-7.7241-1.2754-16.3266-5.9419-2.9917-1.6226-5.9126-3.1885-8.396-4.8604-4.6836-3.1538-7.961-6.1176-8.273-6.5722-.479-.6949.4966-1.3365 2.6099-.0176.9517.5932 3.1645 2.7407 6.7109 5.1567 2.4048 1.6377 5.5342 3.3125 8.8653 5.0391 8.7749 4.5454 12.0888 4.8008 13.6806 5.3818 2.375.8672 1.9952 1.7608 1.1289 1.8145z" transform="translate(37.0605 81.3442)"/><path d="m30.6474 10.6469c-1.5625.5327-10.9087-.479-16.8139-2.1406-5.9058-1.6611-11.2613-5.3413-12.2896-6.3394-1.5439-1.499-.1362-2.1669 2.1489-.4248 2.6768 2.043 5.752 3.8477 12.6783 5.5909 5.9487 1.4965 11.5581 1.5981 13.31 1.7788 1.7525.1806 2.5283 1.0024.9663 1.5351z" transform="translate(40.6006 98.502)"/><path d="m32.4175 5.8071c-1.8506.5508-10.4839 1.6699-17.2202.6411-6.7363-1.0298-10.9175-2.9443-12.4165-3.7212-1.499-.7763-2.7808-2.727.0361-1.7426 2.8179.9843 5.0752 2.2934 11.812 3.3232 6.7359 1.0298 16.1177.2983 17.8247-.2427 1.7071-.542 1.8155 1.1914-.0361 1.7422z" transform="translate(41.1147 112.047)"/><path d="m30.6577 1.8608c-.9844.4956-4.5156 1.419-12.8618 2.3008-7.7734.8213-11.689-.4453-13.0137-.8139-1.3232-.3687-4.7822-2.3282-1.5669-1.9483 3.2139.3789 6.7715 1.6069 14.5669 1.0337 6.9322-.5098 11.6289-1.9448 13.209-2.1894 1.5806-.2437.6509 1.1201-.3335 1.6171z" transform="translate(45.4033 123.959)"/><path d="m5.0572 10.0347c2.8545-.1831 7.8086-.4546 14.2651-2.8277 6.8247-2.5078 10.4155-5.5361 10.4155-5.5361s1.2012-1.6709-.7856-.9663c-1.9863.7036-4.4336 3.3232-11.376 5.4853-6.5674 2.0454-10.6123 2.4146-14.4136 1.9273-3.1626-.4053-.9609 2.1011 1.8946 1.9175z" transform="translate(51.4516 129.629)"/><path d="m38.3911 14.9814c-1.832-1.2266-4.1148-2.8398-11.9194-6.543-9.753-4.6269-13.2989-5.7827-16.1739-6.8794-2.876-1.0962-10.2978-1.559-5.6001-.2221 4.6978 1.3364 10.6822 3.1591 21.0782 8.1455 5.0834 2.438 12.7094 6.4673 13.8154 7.2695 2.5649 1.8604-.0811-1.0205-1.2002-1.7705z" transform="translate(8.8213 19.1353)"/></g></g><g clip-path="url(#u)"><path d="m29.5322 65.7222c5.501 0 28.6621-10.1338 28.6621-33.0059v-32.7163h-58.1943v32.7163c0 22.8721 24.0307 33.0059 29.5322 33.0059z" fill="#fcce15" transform="translate(118.783 123.519)"/></g><path d="m20.2671 0 37.6382 36.479c0 3.6202-3.0411 12.9571-6.9493 15.9248l-50.956-48.6401v-3.7637z" fill="#161413" transform="translate(118.783 123.519)"/><path d="m39.5937 58.3394-39.5937-38.6519v-19.6875l51.1738 48.7847c-2.3164 3.04-7.2383 7.3838-11.5801 9.5547z" fill="#ce1127" transform="translate(118.783 127.283)"/><path d="m11.7114 5.3725 4.7812-3.0019-2.1259 5.229 5.5908.7739-4.9883 2.6406 3.7861 4.1856-5.6435-1.3018.334 5.7569-3.4659-4.4551-3.4663 4.457.3306-5.7588-5.6406 1.3018 3.7861-4.1856-4.9897-2.6396 5.5913-.7749-2.1255-5.229 4.7798 3.0019 1.7343-5.3725z" fill="#fcce15" transform="translate(137.105 144.51)"/><g clip-path="url(#v)"><path d="m29.5322 65.7222c5.501 0 28.6621-10.1338 28.6621-33.0059v-32.7163h-58.1943v32.7163c0 22.8721 24.0307 33.0059 29.5322 33.0059z" fill="none" stroke="#161413" stroke-width=".579062" transform="translate(118.783 123.519)"/></g><g fill="#fff"><path d="m35.7554 15.5517c5.9355 0 11.8711-3.9091 16.3594-7.8173 4.247-3.6983 7.2383-6.9483 11.2187-7.3819 2.0166-.2207 3.334-.0283 4.126.4336.8701.5068.5068 2.0986 1.9141 3.459 1.705 1.5342 2.79 4.3574 2.2119 4.5029-.2168.3614-1.7373-1.4482-5.2832-.1455-3.3321 1.2246-7.5274 5.791-11.4375 8.1084-3.9082 2.3154-8.9746 7.8164-19.1094 7.8164-10.1323 0-15.5459-4.997-19.1079-7.8164-3.4746-2.7519-7.9619-7.3838-11.436-8.1084-3.4747-.7226-4.7046 1.0137-4.9942.2891-.2173-.7227.1441-2.6778 1.5742-4.6768 1.1231-1.5713 1.4654-3.0664 2.2617-3.5732.7725-.4922 1.6646-.3623 3.1851-.4346 4.3403-.207 7.7896 3.9766 12.1602 7.5274 4.6318 3.7646 10.4233 7.8173 16.3569 7.8173z" transform="translate(112.269 174.993)"/><g stroke="#161413" stroke-width=".579062"><path d="m7.5273 2.3174s4.6329-2.3174 12.7393 0c8.1069 2.3154 14.4766 6.9483 20.8457 15.0547 0 0 2.3164 8.1065-1.1572 11.5811-3.4746 3.4736-8.6865 4.0527-13.3194-2.8965-3.6328-5.4512-8.1059-8.1065-15.0551-10.4219-6.9488-2.3164-11.5806 0-11.5806 0s8.6856-9.2637 20.2666-6.9492c0 0-4.6318-4.6309-12.7393-6.3682z" transform="translate(37.7158 207.482)"/><path d="m35.9024 2.3154s-4.6328-2.3154-12.7403 0c-8.1064 2.3174-14.4765 6.9493-20.8457 15.0557 0 0-2.3164 8.1064 1.1582 11.582 3.4747 3.4737 8.6856 4.0518 13.3184-2.8955 3.6328-5.4511 8.1065-8.1074 15.0547-10.4238 6.9492-2.3164 11.582 0 11.582 0s-8.6865-9.2637-20.2676-6.9473c0 0 4.6329-4.6347 12.7403-6.3711z" transform="translate(216.644 205.166)"/><path d="m168.722 7.6944c-2.317-2.3887-5.564.1396-9.967-3.211-2.627-2.0009-4.052-4.4834-6.102-3.7383-3.184 1.1592-10.423 10.712-25.188 17.6612-14.767 6.9482-28.9533 10.7129-46.3253 10.7129-17.3711 0-22.8726-2.0274-37.3491-8.1074-14.4761-6.0792-27.2154-19.1075-29.8208-18.2403-2.0523.6836-1.0162 2.0322-3.7222 3.5488-3.4927 1.961-9.669.3604-10.2476 4.4141 3.4737-2.2451 10.2061 9.627 13.5352 12.2315 7.6201 5.9628 31.1245 22.2128 67.6045 22.2128 36.4803 0 58.7743-12.875 68.6183-19.8242 9.844-6.9482 13.897-18.457 18.964-17.6601z" transform="translate(67.4648 211.949)"/></g></g><g fill="#161413"><path d="m4.4873.8965-.1299-.0674c-.0464.0615-.1499.1885-.3237.1006-.1543-.0781-.3823-.458-.7539-.6475-.5581-.2822-1.2974-.2207-1.6553.4844-.3115.6143-.0532 1.0879.3506 1.7061.6406.9941.6328 1.2539.4536 1.6083-.1694.334-.5962.5616-1.0918.3106-.8364-.4248-.7441-1.3897-.7143-1.7402l-.1426-.0723-.48 1.4072.1362.0703c.0503-.0996.1651-.1748.2959-.1074.1856.0928.3824.459.8531.6963.8867.4492 1.6093.0684 1.8764-.458.6441-1.2705-1.3628-2.4434-.8916-3.3731.1948-.3837.6084-.416.9185-.2587.6504.33.7641 1.0878.6113 1.6503l.1553.0782z" transform="translate(119.558 178.488)"/><path d="m3.7695 5.211-1.3906-1.0889.0806-.1035c.2021.1572.3862.293.5439.0908.0684-.0869.1392-.3223.166-.4248l.1865-.6992-1.4282-1.1201-.7514.4414c-.0831.0498-.1592.1142-.2066.1728-.1792.2295.0767.4307.1914.5215l-.081.1026-1.0801-.8477.082-.1016c.0913.0625.1924.1241.3721.0967.2324-.0361.7134-.3027 1.0054-.4609l3.2334-1.7901.1088.0869-1.0703 4.1622c-.1372.5341-.1079.6543.1187.8603zm-.3144-2.5078.5434-1.9971-1.8037 1.0088z" transform="translate(126.179 184.169)"/><path d="m3.7539 6.251-.9419-.5957-.2485-2.6846-.335-.1953-.731 1.1504c-.2485.3926-.2607.541.1924.8623l-.0703.1104-1.6196-1.0284.0703-.1103c.4922.2715.5937.1621.8721-.2744l1.6059-2.5332c.2744-.4326.2198-.5401-.1636-.8418l.0704-.1104 1.6142 1.0235c.52.3291 1.4068 1.0634.8355 1.9658-.4971.7822-1.3457.4414-1.6807.3115l.2656 2.2422c.0288.2393.1021.4326.3345.5977zm-1.3882-3.6914c.4946.3057 1.3789.8486 1.9097.0137.4927-.7793-.2617-1.2823-.5015-1.4336-.31-.1973-.3887-.1885-.4961-.0186z" transform="translate(134.008 188.695)"/><path d="m4.7636 4.8525-1.7578-.1465.0108-.1299c.2558.0205.4834.0323.5039-.2226.0088-.1094-.0616-.3457-.0948-.4453l-.2285-.6856-1.8076-.1474-.3818.7802c-.042.0869-.0703.1817-.0772.2569-.0234.289.2998.3173.4453.3281l-.0107.1318-1.3652-.1123.0107-.1308c.1108.0029.2295-.002.3643-.1231.1718-.1592.4287-.6455.5839-.9385l1.7129-3.2675.1368.0117 1.3945 4.0576c.1787.5225.2695.6055.5713.6523zm-1.6396-1.9199-.6445-1.9619-.9483 1.832z" transform="translate(143.422 192.731)"/><path d="m5.917.1202c-.2861.1884-.3486.3212-.3281.6054.083 1.3701.1738 2.9483.3399 4.335l-.0948.041c-.5127-.5605-1.6172-1.6602-2.1943-2.2295l.208 3.1065-.0947.0419c-.75-.8261-2.2022-2.332-2.7207-2.8584-.4346-.4355-.6035-.58-.9795-.4531l-.0528-.1201 1.5498-.6846.0528.1202c-.2793.1396-.3877.2324-.3154.3964.039.0899.124.1807.1914.2471l1.9619 1.9775-.1104-2.082-.4375-.4267c-.4404-.4336-.5527-.4288-.8906-.2872l-.0527-.121 1.6894-.7452.0527.1192c-.1962.0869-.4824.2295-.3808.457.0478.1074.1846.2119.3877.418l1.7881 1.7881-.1553-2.4932c-.0088-.1553-.042-.3682-.1006-.5-.1094-.2471-.3408-.1748-.5654-.0996l-.0537-.1201 1.2529-.5528z" transform="translate(152.318 189.936)"/><path d="m4.8828 2.167-1.3799 1.1143-.082-.1035c.1992-.1612.374-.3106.2139-.5108-.0703-.0869-.2852-.208-.3789-.2578l-.6406-.3408-1.419 1.1435.2627.833c.0313.0928.0742.1817.123.2403.1827.2275.4385.0224.5518-.0684l.082.1026-1.0713.8642-.082-.1025c.0811-.0762.1651-.1602.1787-.3418.0166-.2363-.1357-.7666-.2236-1.0879l-1.0176-3.5635.1094-.0879 3.8242 1.9873c.4912.2549.6152.2539.8672.0782zm-2.5215-.2597-1.8281-.9815.5772 1.9902z" transform="translate(163.303 185.586)"/><path d="m2.2002.9941 1.5196-.9941.0722.1104c-.3291.2568-.4394.3525-.5859 1.0302l-.3897 1.8125 2.3008.5655c.6524.1718.999.2578 1.3223.0302l.0713.1104-1.7686 1.1572-.0732-.1103c.3008-.212.3955-.2813.3115-.4102-.1172-.1797-1.0654-.4131-1.3916-.4814l-1.0137-.2071-.0713.2207.71 1.085c.2656.4062.3955.4541.8633.1816l.0722.1104-1.6357 1.0693-.0732-.1103c.4375-.3184.4511-.4522.1386-.9268l-1.6425-2.5137c-.2959-.4521-.4502-.4091-.8653-.1796l-.0713-.1104 1.6475-1.0781.0732.1094c-.4345.3261-.4736.4423-.1933.872l.7783 1.1895c.541-2.0371.6084-2.3018.4785-2.499-.1015-.1583-.2207-.0967-.5127.0781z" transform="translate(169.485 178.558)"/></g><g stroke="#161413"><g fill="#ce1127" stroke-width=".579062"><path d="m3.7851 3.6866c3.46-3.6866 9.8408.6328 9.5195 6.4199-.3193 5.789-9.0127 7.1914-10.455 6.0254-1.4414-1.166-2.8496-8.4112.9355-12.4453z" transform="translate(215.997 166.682)"/><path d="m10.7578.8858s-3.1797-.8858-6.0879 1.7041c-2.9102 2.5908-.5918 2.3125-2.6309 4.6191-2.039 2.3057-.0762 6.0283 4.0176 6.6797 3.7598.5996 5.2109.3184 5.5098-1.707 0 0-1.419-5.2198-1.4121-6.666.0087-1.4483.6035-4.6299.6035-4.6299z" transform="translate(207.28 170.632)"/><path d="m1.75 5.1631s-1.75 2.3066.8438 4.6377c2.5937 2.3301 1.415 6.0879 4.8906 6.1055 3.4736.0185 7.833-3.1426 7.2773-7.4883-.5556-4.3467-.5439-6.6611-2.2763-7.54-1.7325-.878-3.1992 2.5888-4.9395 3.4482-1.7431.8594-5.7959.8369-5.7959.8369z" transform="translate(217.382 178.52)"/><path d="m7.2569 2.0186s-7.2569 3.4365-3.2217 6.6426c4.0371 3.205 5.7695 4.084 7.5166 2.3564 1.7471-1.7285 1.4648-3.1777 1.4648-3.1777l-4.3007-7.8399z" transform="translate(210.118 185.419)"/><path d="m11.583 3.2422s-5.502.2598-8.0977-1.4912-3.4853 2.0078-.0312 5.79c3.4551 3.7823 4.043 2.0479 5.5019.0293 1.4571-2.0195 3.4864-2.2978 3.4864-2.2978s.8818-2.6016-.8594-2.0303z" transform="translate(206.096 181.303)"/></g><path d="m18.6738 3.5596s-6.5302 3.0049-11.1562 1.6055c-4.625-1.4004-4.1895-1.9063-4.1895-1.9063l.3018-1.9502-.5889 1.6612-.2011-2.9698-.1592 2.7491-1.5069-2.3956s-.2177-.1455-.2187.2872c-.0029.4365.5039.3662.8623 1.0927.3594.7246.8623 1.378.8623 1.378l-1.9551-.083s-.7246.2138-.1455.3623c.5781.1474 2.1006-.2793 2.1006-.2793s-1.3789.5722-.874.791c.5049.2207 1.0888-.6446 1.0888-.6446s-.4375.5049-.1484.7959c.2881.2901.5811-.288.5811-.288s2.9599 1.4648 4.4775 1.7627c1.5176.2968 6.5127.3964 10.8691-1.9688z" fill="#161413" stroke-width=".46325" transform="translate(200.095 180.557)"/><g stroke-width=".579062"><g fill="#fcce15"><path d="m4.3417.2314c-2.9628-.2314-4.3417 2.9512-3.625 5.167.545 1.6846 1.5401 3.165 2.9834 4.4551.9649.8633 1.1368 2.1894 1.4297 3.4248.5391 2.2666-1.2431 3.7226-2.5254 5.1933 1.6563-.3457 3.71-.2392 3.9756-2.3261.3907-3.0664-1.0947-5.792-1.7783-8.7158-.5166-2.21-.166-4.418-.9619-6.6465-.0391-.1114.3076-.3584.5019-.5518z" transform="translate(232.714 175.547)"/><path d="m6.3848.7188c1.79-.7188 4.1055.3974 4.3398 2.3096.0489-.0469.0967-.0957.1455-.1446.0391.2422.0225.4922.0665.7383.165.9063-.8389 1.625-.6006 2.5791.248.9824.665 1.8643 1.0547 2.7881.1728.4121.1562.9678.0087 1.4062-.6513 1.917-1.1718 3.9141-2.5195 5.42-.9951 1.1142-2.9639 1.3388-4.374 1.1972-1.6397-.167-2.7481-1.8584-3.832-3.0566-.4268-.4717-.6739-1.8623.0839-1.9365 2.3672-.2334 4.6836-1.1006 6.8838-4.3907.6328-.9443 1.3096-1.9072.7471-2.7539-.8711-1.3173-2.96-.708-4.1426-1.8808-.3379-.334.1953-.6856.3506-.9131.4072-.6025 1.0606-1.0703 1.7881-1.3623z" transform="translate(207.294 199.169)"/><g clip-path="url(#w)"><path d="m10.7119 8.124s-10.7119 6.0791-9.5547 16.6494c1.0029 9.1456 9.9873 9.9873 13.0283 7.0918 1.7793-1.6943 4.0537-6.6591.291-8.3964-3.7646-1.7364-6.6601 1.7373-4.0547 4.3427 2.6055 2.6065 3.1856 0 3.1856 0s-1.4473 5.792-6.0801 2.3174c-3.293-2.4697-3.7646-13.8965 5.2109-15.6348 2.9581-.5732 6.4014 1.7227 9.6758 1.1641 2.5557-.4355 3.4414-3.2871 2.8135-5.624-.6143-2.2842-.626-4.6006-2.0215-6.6182-.8408-1.2148-1.7041-2.2812-2.8574-3.1728-.3135-.2432-.9033-.0811-1.3848-.0811.792 3.2276 2.586 5.9922 3.3418 9.2949.3194 1.3995.3203 2.9463-1.0254 4.0235 1.4952-3.3106-.0302-6.6885-1.292-9.7901-.2646-.6562-1.5546-2.1611-2.0664-1.1533-.6923 1.3701.0411 3.3916-.8964 4.3848-1.4737 1.5605-3.9522 1.0722-6.3135 1.2021z" transform="translate(172.347 197.621)"/><path d="m1.1103.6446c2.086.4091 6.1367 2.0293 8.2012.7304 2.1894-1.375 4.9971-1.2578 6.9727-.1406 2.3437 1.3262 4.8525.3672 7.0869 1.2314.0986.0391.1279.5489-.0157.751-.7822 1.0957-2.667.6797-2.7929 1.0274-1.6602 4.5839-5.3252 10.3662-10.7256 9.4726-.1758-.0303.2578-1.1631.8584-1.416 2.915-1.2275 6.583-2.7871 6.2187-6.4326-.1396-1.3945-1.1865-2.6572-2.3007-3.3076-1.4854-.8653-3.251.1953-4.7725.8047-1.8721.7509-3.6494 2.3203-5.8086 1.7998-1.0859-.2627-4.0322-1.2364-3.7051-2.1748.1885-.5362.4395-1.8135 1.0723-1.6934" transform="translate(240.867 182.662)"/><path d="m0 3.5137c.3828.583.6406 1.3467 1.206 1.6494 1.2334.6621 2.8281.7744 3.8945-.0547.9073-.706 1.7452-.8603 2.7168-1.0146.2442 2.2744-2.456.9873-3.6904 1.5957-1.082.5351.3721 2.6679 1.1201 2.9375 2.0537.7392 3.5596.0166 5.0459-1.4785-.2119.2138 3.9717-1.5684 2.0518-4.7276-.711-1.1719-3.6924-2.4209-4.7529-1.9482-.8819.3935-1.8536.5556-2.7569 1.1787-1.4228.9844-3.1885 1.706-4.8349 1.8623z" transform="translate(245.451 185.003)"/><path d="m10.9492 16.7559c.9648.3828 1.5693-.4873 1.8779-.9649 1.7891-2.7666-.7851-4.6826-2.4131-6.8847-1.7841-2.4141.9053-4.9776.3672-7.459-.1338-.6211-1.1347-1.4473-1.7656-1.0469-2.7441 1.7471-3.0264 5.3369-2.0147 8.2109.4942 1.4083 1.0821 3.0049 2.7891 3.5118-1.6924-.2246-4.1201-.5371-4.3418-2.6055.5342.418 1.2129.3398 1.3906-.3057.2618-.956-.0517-2.0771-.4287-2.7724-.6816-1.2539-2.3066-1.9346-3.8047-.8994-2.6054 1.7959-1.0547 5.4121.9278 7.0263 1.3115 1.0674 3.2666.8428 4.7383 1.7061 1.4169.832 2.7714 1.7754 3.8369 3.0635.4843-.5899 1.33-.7725 1.1572-1.7373" transform="translate(231.897 161.628)"/><path d="m.8779 20.0635c-.8779-3.6318 3.5625-5.3359 5.3858-7.6533 1.6767-2.1318 2.5205-6.4414-.3662-8.3779-.6572-.4414.5166-.5752.5146-1.0596 2.2002.208 2.9746-2.6436 4.6748-2.8848.6114-.0879-.207 1.4531-.4375 2.085-1.4951 4.0937 1.5811 9.0547-1.331 12.4326-1.9571 2.2695-3.7705 4.334-5.918 6.4912-.7725.7735-2.2119.2481-2.5225-1.0332z" transform="translate(237.882 165.278)"/><path d="m2.1699 1.0127c.4707 1.0127.4912 2.0801.6299 3.1797.413 3.2959 2.7597 5.7197 3.3457 8.9961.7119 3.9804-.4483 9.3105-5.1329 9.539 1.2813-2.2607 3.6172-4.249 2.8233-7.2197-.6035-2.2559-.0684-4.5762-1.1563-6.6406-.999-1.8965-2.6796-3.4619-2.6367-5.5342.0274-1.2168.5674-3.333 2.3965-2.8242.0352.0097.3447.5693-.2695.5039z" transform="translate(236.043 176.793)"/><path d="m2.709.209c-2.2061-.209-2.1416 2.4629-1.7832 3.8828.6982 2.7695 1.9873 5.1484 2.4707 7.9941.2129 1.2647-.042 2.5156-.7734 3.5508-.4903.6934-1.1485 1.2324-1.7344 1.8555-.3447.3652-.8887 1.0986-.6817 1.248 2.1836 1.5762 5.084-.374 6.3653-2.4912.8691-1.4336 1.0879-3.0146 1.2724-4.6133.2442-2.123-.5546-4.1523-1.4531-6.0312-.2597-.5391-.2353-1.7237-.6982-2.1602-1.1289-1.0625-1.6729-2.5264-3.4278-3.0566-.0185-.0059-.0869.1592-.1357.2558" transform="translate(231.957 184.039)"/><path d="m0 14.1514c1.7617-.2656 3.7285-.2432 5.0088-1.6455 1.2832-1.4082 1.2441-3.3447 1.6738-5.1856.3086-1.3252.4873-2.7802-.249-3.9765-.4824-.7832-.6143-1.5781-1.0772-2.3662-.372-.6338-.8984-.9776-1.3828-.5088-1.2607 1.2217.2657 5.9228.5137 7.6025-.3867-.7773-.9619-4.9072-1.6191-4.9853-.9346-.1075-1.1114 1.6767-.8907 2.6484.6465 2.8564 1.0596 6.0596-1.2539 8.1279" transform="translate(228.587 190.507)"/><path d="m14.4766 1.0391c.8427 1.4443-.1553 3.3506-.4346 4.9229 0-.0489 0-.0967 0-.1455.0234 1.0576-.5986 1.913-1.2285 2.6923-.253.3125-.5772.751-1.0879.7764-1.7022.085-3.3418-.0098-5.0606-.3184-1.6621-.2959-3.1914-.7089-4.7539-1.2148-.3115-.1006-.4218-.6699-.6552-1.0361-.3155-.4942-.875-.8311-1.0459-1.3545-.21-.6475.0517-1.5069.6806-1.9756.8135-.6074 1.7481-1.0049 2.7129-.7022.5684.1768.8604.753.5147 1.1885-.1114.1377-.0567.5049-.3545.4981.3154-.0196.6162-.1299.8467-.3164 1.5185-1.2344 2.8242-3.1758 4.9257-2.5205.5362.1669 1.0069.7158.8555 1.3818-.1904.8496-.8262 1.4248-1.7061 1.5986 2.6465.1885 3.5118-2.6377 5.1153-4.1484.3877-.3653.7051-.1319.7871.3896.0088.0616.2109.3262-.1113.2842z" transform="translate(216.137 196.381)"/><path d="m.5068 6.3047c-.5068 1.086.8447 1.7842 1.8935 2.1387 2.8565.9717 5.794 1.543 8.8155 1.2988 3.9697-.3213 8.0234-.9385 11.2695-3.6123.6748-.5576 1.4121-.9971 1.8545-1.7383.3437-.5771.7539-1.2285.6758-1.8379-.0254-.2021-.4151-.4629-.624-.7373-2.0752 2.0254-4.126 4.2608-6.9717 5.1358-2.5274.7763-5.1983.6894-7.6485-.3574 1.3838-.9024 2.5391-2.3692 4.3418-2.462-.498.5899-1.6904 1.4131-.6923 1.9737 1.5732.8867 3.3193.1601 4.8544-.3496 1.6202-.5371 3.667-1.752 3.3672-3.795-2.6347-1.0136-5.5-1.9619-8.1953-1.2373-1.9365.5215-3.1416 2.0498-4.915 2.7793 0 0-7.5196 1.7139-8.0254 2.8008z" transform="translate(187.981 189.524)"/><path d="m.1435 3.8467c1.0518 2.1865 4.044 2.3418 5.8438 1.1631 1.4502-.9522 2.4306-2.6807 2.3916-4.3438-.0137-.666-1.2373-.2256-1.835-.0459-2.2646.6875-4.6133.9268-6.5439 2.3584z" transform="translate(205.28 211.525)"/><path d="m4.2432 0c2.7305.2305 4.2783 3.4873 3.4268 5.919-.2539.7304-.8897 1.1572-1.6895 1.1758.1084.5683-.1006 1.1337-.374 1.5332-1.1406 1.6562-3.7129 1.4043-4.9121.1386-.3701-.3925-.6944-1.0449-.4707-1.6601.4658-1.2852 1.8096-1.9551 3.1513-1.75.6895-1.6729-1.0107-4.4942 1.1592-5.211-.0976-.0488-.1933-.0966-.291-.1455z" transform="translate(201.181 207.12)"/><path d="m8.4209 20.6064c-1.461.1201-2.8057-.4844-4.1114-1.2568-.1318-.0791-.3554-.1641-.3037-.4092-1.0674-.0723-1.789-.956-2.2402-1.7773-.4551-.8321-.8057-1.7735-.874-2.7139-.1143-1.5449-.8916-2.9326-.7735-4.4805.1436-1.8984.3379-3.8476 1.6494-5.2881 1.4405-1.5849 3.1035-2.9423 5.1534-3.6289 3.1425-1.0517 6.5195-.9492 9.4892.4678.3379.1621.6231 1.0693.1504 1.2539-1.0166.3975-2.4209-.0654-2.7109-1.3476.2256.0576.1533.3173.2402.4619.2422.4092-.625.4375-.584.6816.2149 1.3262 1.6084 1.7744 2.7725 2.2608.5976.248.6719 1.2226.1377 1.3935-1.2608.4004-2.7217.3926-3.8203-.5156-.3897-.3213-.4825-.9561-.8243-1.3418-.374-.4199-.8652-.8477-1.541-.7695.3672-.0069.793.1318.9375.3408.5606.8056-.0508 1.7138.4082 2.5293.3955.7031 1.3184.3008 1.9629.6435.4092.2178.4414.8282.1192 1.0528-.627.4336-1.3809.7744-2.0977.4414-.1396-.0645-.2471-.3994-.1719-.6651-.1435.4414-.6367.3369-.8349.8243-.1446.3593-.8223.6962-1.3194.5595-.2549-.0703-.2744-.6064-.2187-.7763.2236-.6749 1.0654-1.085 1.2929-1.7872.4229-1.2968-.58-2.5146-1.832-2.8027-.6992-.1601-1.4453-.2012-2.1543.0733 1.044.3056 2.0254 1.4433 1.2266 2.3984-.5772.6914-1.7949.5469-2.4736-.0059-.2237-.1826-.3643-.7509-.543-.8427-1.3672-.7002-2.5459.5019-3.083 1.8007-.4444 1.0723.0234 2.2002.0947 3.3096.9385-1.1269 2.8105-1.1699 4.1855-.8213.3594.0918.5635.5029.7002.836.5616 1.3789.4727 3.2021-.9931 4.0078-.9619.5293-2.0528.1113-2.3711-.8614-.2246-.6904.664-1.3925 1.374-1.2793-.1719-.0293-.3457.0391-.4101.1582-.1651.3038-.2754.7276.0068.962.3535.2929.8711.2431 1.2461-.003.4306-.2822.6924-.7949.3974-1.2187-.5478-.791-1.5234-1.4766-2.5166-.8692-.2421.1495-.4746.4454-.5459.6973-1.0742 3.7793 2.5069 7.2051 5.8038 8.3076z" transform="translate(197.076 197.009)"/></g><g clip-path="url(#x)"><path d="m15.1451 8.124s11.8701 6.6582 10.4228 18.2393c-1.1411 9.1299-12.1602 7.2383-13.897 5.501-1.7368-1.7364-4.0532-6.6582-.2895-8.3955 3.7637-1.7383 6.6587 1.7373 4.0532 4.3427-2.6055 2.6055-3.1851 0-3.1851 0s1.4483 5.7901 6.0801 2.3164c3.2925-2.4707 3.7637-13.8974-5.2114-15.6357-2.958-.5723-6.4019 1.7246-9.6753 1.166-2.5547-.4355-3.4429-3.2881-2.8144-5.624.6147-2.2842.6254-4.6006 2.0219-6.6191.8404-1.2139 1.7036-2.2823 2.8579-3.1729.3135-.2422.9029-.0801 1.3853-.0801-.7915 3.2266-2.5874 5.9932-3.3418 9.2949-.3198 1.3975-.3213 2.9454 1.0254 4.0225-1.4961-3.3115.0303-6.6875 1.29-9.79.2671-.6563 1.5562-2.1602 2.0669-1.1524.6929 1.3701-.0405 3.3916.897 4.3828 1.4736 1.5625 3.9526 1.0723 6.314 1.2041z" transform="translate(98.7353 196.174)"/><path d="m22.3897.6446c-2.0874.4082-6.1377 2.0273-8.2022.7285-2.1889-1.3731-4.9975-1.2559-6.9736-.1397-2.3423 1.3252-4.852.3662-7.0849 1.2325-.0987.039-.129.5478.0146.749.7822 1.0967 2.6675.6806 2.7925 1.0283 1.6592 4.585 5.3252 10.3672 10.7265 9.4717.1763-.0293-.2583-1.1631-.8593-1.4151-2.9156-1.2275-6.5825-2.7861-6.2188-6.4336.1397-1.3925 1.1875-2.6562 2.3018-3.3056 1.4848-.8672 3.251.1953 4.7715.8027 1.873.751 3.6508 2.3223 5.8095 1.7998 1.0845-.2627 4.0318-1.2353 3.7046-2.1728-.1875-.5371-.4389-1.8135-1.0722-1.6953" transform="translate(32.5722 181.215)"/><path d="m14.2637 3.5156c-.3828.5811-.6406 1.3447-1.2061 1.6475-1.2334.6621-2.8271.7763-3.894-.0528-.9077-.708-1.7451-.8603-2.7173-1.0166-.2451 2.2744 2.4556.9873 3.6904 1.5977 1.0821.5342-.3715 2.667-1.1206 2.9375-2.0532.7373-3.5581.0166-5.0454-1.4785.2124.2119-3.9707-1.5684-2.0517-4.7276.7114-1.1728 3.6919-2.4228 4.7529-1.9482.8818.3926 1.8535.5547 2.7563 1.1787 1.4234.9844 3.1905 1.7061 4.8355 1.8623z" transform="translate(37.2236 183.555)"/><path d="m3.6665 16.7558c-.9643.3818-1.5703-.4873-1.8789-.9639-1.7876-2.7675.7862-4.6826 2.4136-6.8847 1.7847-2.4141-.9048-4.9776-.3672-7.46.1348-.6201 1.1353-1.4472 1.7657-1.0478 2.7441 1.747 3.0258 5.3369 2.0156 8.2129-.4942 1.4072-1.0821 3.0039-2.7906 3.5117 1.6939-.2246 4.1197-.5371 4.3423-2.6065-.5332.419-1.2124.3409-1.3896-.3047-.2627-.958.0508-2.0781.4282-2.7734.6807-1.2539 2.3057-1.9336 3.8052-.8984 2.6055 1.7949 1.0542 5.4121-.9278 7.0254-1.312 1.0673-3.2661.8437-4.7392 1.707-1.4165.8301-2.771 1.7754-3.8355 3.0615-.4853-.5889-1.332-.7705-1.1582-1.7373" transform="translate(50.4267 160.181)"/><path d="m11.3516 20.0625c.8774-3.6318-3.5625-5.3349-5.3848-7.6523-1.6777-2.1338-2.521-6.4424.3643-8.3779.6592-.4424-.5152-.5752-.5127-1.0596-2.2007.2061-2.9766-2.6436-4.6758-2.8867-.6108-.086.2075 1.4541.438 2.0849 1.4951 4.0957-1.5806 9.0567 1.3306 12.4327 1.9575 2.2705 3.7705 4.3349 5.9194 6.4912.771.7744 2.2109.248 2.521-1.0323z" transform="translate(46.8271 163.832)"/><path d="m4.6861 1.0117c-.4702 1.0137-.4912 2.0821-.6294 3.1807-.4131 3.2959-2.7603 5.7197-3.3452 8.9951-.7115 3.9805.4482 9.3115 5.1328 9.5391-1.2823-2.2598-3.6182-4.2481-2.8242-7.2168.603-2.2569.0693-4.5781 1.1567-6.6436.999-1.8965 2.6797-3.4599 2.6357-5.5322-.0258-1.2178-.5669-3.334-2.3955-2.8262-.0346.0098-.3457.5713.2691.5039z" transform="translate(54.0395 175.345)"/><path d="m5.3803.211c2.2061-.211 2.1421 2.4629 1.7832 3.8828-.6997 2.7685-1.9877 5.1484-2.4692 7.9941-.2143 1.2647.041 2.5156.773 3.5498.4897.6944 1.1469 1.2325 1.7348 1.8565.3433.3642.8863 1.0967.6807 1.2461-2.1841 1.5781-5.0845-.3721-6.3667-2.4893-.8667-1.4336-1.0869-3.0146-1.271-4.6133-.2451-2.124.5537-4.1523 1.4541-6.0322.2598-.541.2334-1.7236.6968-2.1611 1.1294-1.0625 1.6743-2.5244 3.4287-3.0547.0185-.0059.0859.1572.1347.2539" transform="translate(56.8921 182.59)"/><path d="m7.1699 14.1523c-1.7622-.2666-3.728-.2441-5.0078-1.6455-1.2851-1.4082-1.2456-3.3457-1.6748-5.1865-.3086-1.3232-.4873-2.7793.2486-3.9746.4824-.7852.6137-1.5781 1.0771-2.3672.3721-.6338.8984-.9785 1.3823-.5088 1.2603 1.2217-.2646 5.9229-.5132 7.6035.3863-.7793.9615-4.9092 1.6192-4.9863.9341-.1084 1.1123 1.6758.8916 2.6494-.648 2.8565-1.0606 6.0576 1.2539 8.127" transform="translate(61.1821 189.059)"/><path d="m.8443 1.04c-.8443 1.4424.1543 3.3477.4335 4.9219 0-.0489 0-.0967 0-.1455-.0239 1.0556.5997 1.9111 1.23 2.6923.252.3125.5752.7491 1.0869.7764 1.7022.083 3.3404-.0117 5.0601-.3183 1.6616-.2979 3.1914-.71 4.7534-1.2149.3125-.1035.4219-.6709.6558-1.0381.3154-.4941.875-.8291 1.0449-1.3535.2109-.6465-.0508-1.5068-.6797-1.9766-.8135-.6054-1.748-1.0039-2.7124-.7021-.5683.1777-.8598.7539-.5146 1.1885.1113.1396.0566.5058.354.498-.3155-.0176-.6162-.1279-.8467-.3164-1.5191-1.2344-2.8242-3.1748-4.9253-2.5185-.5361.166-1.0064.7158-.856 1.3808.1914.8496.8272 1.4239 1.7061 1.5996-2.646.1875-3.5117-2.6377-5.1143-4.1484-.3877-.3652-.705-.1338-.7871.3896-.0097.0606-.2114.3243.1114.2852z" transform="translate(65.4819 194.935)"/><path d="m24.5878 6.3056c.5069 1.087-.8457 1.7833-1.8925 2.1397-2.8589.9707-5.7954 1.541-8.8169 1.2988-3.9698-.3213-8.0225-.9404-11.2696-3.6142-.6748-.5557-1.4121-.9951-1.854-1.7383-.3437-.5762-.7548-1.2285-.6767-1.8369.0259-.2032.414-.4639.6235-.7373 2.0757 2.0244 4.1275 4.2597 6.9722 5.1347 2.5273.7784 5.1992.6905 7.6499-.3574-1.3848-.9004-2.5415-2.3691-4.3433-2.4599.4986.5888 1.6914 1.4121.6939 1.9726-1.5752.8867-3.3203.1592-4.855-.3486-1.6201-.5391-3.668-1.7539-3.3667-3.7949 2.6348-1.0157 5.4995-1.9639 8.1943-1.2374 1.937.5206 3.1411 2.0489 4.9151 2.7774 0 0 7.519 1.7158 8.0258 2.8017z" transform="translate(83.8638 188.076)"/><path d="m8.2749 3.8477c-1.0512 2.1855-4.0444 2.3418-5.8437 1.1621-1.4512-.9512-2.4312-2.6816-2.3921-4.3437.0151-.6661 1.2378-.2266 1.835-.045 2.2646.6866 4.6132.9258 6.5454 2.3565z" transform="translate(83.2397 210.078)"/><path d="m4.2783 0c-2.7295.2315-4.2783 3.4854-3.4272 5.918.2558.7315.8901 1.1572 1.6894 1.1748-.1079.5684.1006 1.1358.376 1.5332 1.1392 1.6572 3.7119 1.4063 4.9111.1387.3687-.3916.6949-1.043.4708-1.6592-.4673-1.2842-1.8106-1.9541-3.1514-1.749-.689-1.6729 1.0107-4.4951-1.1582-5.2129.0971-.0469.1924-.0947.2895-.1436z" transform="translate(87.2363 205.673)"/><path d="m8.6123 20.6064c1.4609.1202 2.8056-.4843 4.1098-1.2578.1319-.0791.3565-.164.3047-.4082 1.0664-.0722 1.7896-.956 2.2398-1.7803.456-.831.8042-1.7714.874-2.7128.1147-1.543.8916-2.9327.7744-4.4805-.1445-1.8965-.3389-3.8467-1.6499-5.2881-1.4409-1.583-3.1045-2.9414-5.1533-3.626-3.1441-1.0527-6.5181-.9511-9.4893.4668-.3393.1612-.6225 1.0674-.1509 1.252 1.0166.3984 2.4205-.0655 2.712-1.3477-.2281.0586-.1543.3174-.2403.4639-.2422.4092.624.4355.584.6797-.2163 1.3271-1.6099 1.7754-2.7734 2.2607-.5982.25-.6719 1.2246-.1368 1.3936 1.2608.4023 2.7208.3925 3.8199-.5137.3896-.3213.4819-.9561.8247-1.3438.373-.4199.8642-.8466 1.541-.7675-.3677-.0069-.7935.1318-.9395.3408-.559.8057.0528 1.7119-.4077 2.5283-.394.7031-1.3174.3018-1.9624.6426-.4092.2178-.4424.8281-.1186 1.0527.6264.4356 1.3818.7764 2.0971.4424.1397-.0654.2471-.3994.1729-.666.1431.4433.6357.3379.8325.8252.1455.3594.8237.6953 1.3208.5586.2549-.0684.2754-.6055.2193-.7744-.2242-.6748-1.0645-1.085-1.2935-1.7871-.4229-1.2979.5801-2.5147 1.8325-2.8038.6987-.1611 1.4458-.2011 2.1543.0733-1.0444.3047-2.0249 1.4443-1.227 2.3994.5781.6904 1.7963.5459 2.4741-.0068.2226-.1817.3642-.75.5425-.8428 1.3676-.6992 2.5459.5029 3.0835 1.8017.4443 1.0723-.0249 2.1993-.0957 3.3077-.9375-1.127-2.8091-1.17-4.1861-.8194-.3584.0909-.5625.502-.6987.835-.561 1.3789-.4732 3.2031.9927 4.0088.9624.5273 2.0532.1103 2.3706-.8633.2246-.6885-.6626-1.3906-1.3736-1.2773.1709-.0313.3457.0371.4097.1562.165.3057.2769.7285-.0059.9629-.354.2939-.8715.2422-1.2456-.002-.4316-.2841-.6933-.7949-.3989-1.2197.5484-.791 1.523-1.4765 2.5171-.8691.2437.1494.4731.4453.5449.6982 1.0762 3.7783-2.5053 7.2041-5.8017 8.3076z" transform="translate(82.8301 195.563)"/></g></g><g fill="#ce1127"><path d="m9.8413 3.6875c-3.46-3.6875-9.8413.6318-9.5205 6.4209.3203 5.788 9.0137 7.1904 10.4551 6.0244 1.4419-1.166 2.8506-8.4121-.9346-12.4453z" transform="translate(69.8081 169.577)"/><path d="m.8086.8857s3.1796-.8857 6.0888 1.7041c2.9092 2.5908.5913 2.3145 2.6309 4.6191 2.0386 2.3057.0752 6.0293-4.0181 6.6817-3.7607.5986-5.2099.3164-5.5102-1.708 0 0 1.4199-5.2207 1.4126-6.667-.0078-1.4483-.604-4.6299-.604-4.6299z" transform="translate(80.584 173.527)"/><path d="m13.5679 5.1641s1.7495 2.3066-.8442 4.6357c-2.5938 2.3301-1.4151 6.0889-4.8892 6.1075-3.4746.0175-7.8345-3.1436-7.2788-7.4903.5566-4.3447.5439-6.6611 2.2764-7.54 1.7324-.877 3.1987 2.5908 4.9404 3.4492 1.7417.8604 5.7954.8379 5.7954.8379z" transform="translate(66.7314 181.416)"/><path d="m6.042 2.0186s7.2564 3.4365 3.2202 6.6426c-4.0366 3.206-5.7695 4.083-7.5161 2.3564-1.7461-1.7285-1.4638-3.1777-1.4638-3.1777l4.3012-7.8399z" transform="translate(76.0146 188.315)"/><path d="m1.7397 3.2421s5.5025.2608 8.0992-1.4902c2.5962-1.7519 3.4848 2.0078.0307 5.79-3.4546 3.7833-4.0429 2.0489-5.5014.0293-1.458-2.0185-3.4864-2.2978-3.4864-2.2978s-.8818-2.6016.8579-2.0313z" transform="translate(80.0117 184.198)"/></g></g><path d="m0 3.5596s6.5307 3.0049 11.1552 1.6045c4.625-1.3994 4.188-1.9043 4.188-1.9043l-.2993-1.9521.5879 1.6611.2012-2.9688.1596 2.75 1.5074-2.3974s.2158-.1455.2187.289c.002.4336-.5049.3643-.8633 1.0899-.3579.7256-.8613 1.3808-.8613 1.3808l1.9541-.083s.7246.2119.1465.3614c-.5781.1484-2.1006-.2784-2.1006-.2784s1.3789.5704.8735.7911c-.5053.2187-1.0893-.6455-1.0893-.6455s.4365.5039.1489.7949c-.2876.29-.581-.2862-.581-.2862s-2.96 1.4639-4.4776 1.7618c-1.5195.2978-6.5132.3964-10.8686-1.9688z" fill="#161413" stroke-width=".46325" transform="translate(80.6631 183.453)"/><g fill="none" stroke-width=".579062"><path d="m9.8467 0c1.3027.7969 2.9648.9971-1.4473 5.7187-4.126 4.4151-8.3994 9.0616-8.1074 10.5674.4346 2.2432 2.2441 1.1573 2.2441 1.1573" transform="translate(225.037 218.846)"/><path d="m.9409 0s-.8686 1.2314-.9409 2.6777c.2168 3.836 10.0615 6.2969 8.4688 13.6084-.3614 1.0137-2.606 1.5205-2.606 1.5205" transform="translate(67.1025 221.163)"/></g></g><g fill="#161413"><path d="m2.3813 0 1.8335.8418c.7779.3564.9029 1.1455.5781 1.8584-.1557.3428-.4731.7783-1.0542.8379.2095.2636.5816.7246.1739 1.6211-.3814.8379-1.1958 1.3183-2.1187.8955l-1.7939-.8233zm-.4453 2.4746 1.0161.4648c.5396.2481.9634.1954 1.2544-.4453.2227-.4892.1109-.8759-.5161-1.1621l-1.021-.4678zm-1.0972 2.4111 1.2012.5498c.586.2696 1.0508.0342 1.3159-.5488.3355-.7373-.1152-1.1182-.5737-1.3291l-1.1079-.5078z" transform="translate(100.113 235.78)"/><path d="m3.1221 6.5899-3.1221-1.2959 2.1924-5.294 3.0811 1.2774-.2627.6347-2.5098-1.041-.6714 1.6221 2.315.959-.2632.6357-2.3145-.9609-.7329 1.7705 2.5503 1.0576z" transform="translate(104.268 237.591)"/><path d="m.5791 5.5762-.5791-.2188 2.0356-5.3574 1.9849.7529c.7051.2676 1.2944.8418.8633 1.9756-.3008.79-.7334.959-1.0855 1.0566.1968.2198.3911.4473.1314 1.2022l-.333.9834c-.1075.3017-.1201.4238.0112.6201l-.0454.1182-.7114-.2696c.041-.3603.3325-1.1816.4082-1.3818.1679-.4404.292-.9824-.4014-1.2441l-1.4053-.5352zm1.1094-2.9161 1.3447.5108c.4248.1601.9238.1972 1.2246-.5938.3149-.8291-.1436-1.08-.4307-1.1894l-1.4467-.5489z" transform="translate(108.362 239.213)"/><path d="m3.7544 2.4883c.2559-.8477-.2119-1.3047-.7036-1.4746-.3696-.1289-1.0381-.2149-1.3188.6074-.1568.4609.0527.7012.2817.8652l1.1216.7852c.5078.3603.7881.9297.4946 1.79-.437 1.2832-1.5171 1.3067-2.2627 1.0489-.8066-.2784-1.0195-.6885-1.1386-.9746-.2286-.544-.147-1.0215.0258-1.5284l.5518.1914c-.335.9815.2104 1.4903.769 1.6827.4239.1464 1.1861.2587 1.4512-.5196.1934-.5664.0425-.8203-.6011-1.2783l-.8042-.5644c-.2568-.1827-.8149-.6524-.4926-1.5958.2881-.8466 1.0141-1.5234 2.0698-1.1591 1.522.5254 1.2871 1.7109 1.1084 2.3154z" transform="translate(112.922 240.795)"/><path d="m1.561 3.708-.9502 1.4551-.6108-.1875 3.3403-4.9756.6724.2061-.104 5.9707-.647-.1992.0586-1.7286zm1.7481-.1826.0971-2.6113-.0122-.0029-1.4467 2.1962z" transform="translate(116.579 242.549)"/><path d="m.1836 0 3.5874.9922-.1836.665-1.4956-.415-1.3511 4.8828-.5967-.166 1.3511-4.8809-1.4951-.414z" transform="translate(122.122 243.271)"/><path d="m4.6489.8399-.8535 3.6191c-.2695 1.1416-1.0708 1.9688-2.2998 1.6768-1.2041-.2862-1.4956-1.374-1.2495-2.4141l.8779-3.7217.605.1455-.8281 3.5108c-.2861 1.2119.2275 1.6865.7705 1.8164.5552.1308 1.2549-.0391 1.5405-1.251l.8321-3.5264z" transform="translate(125.227 244.403)"/><path d="m1.2055 2.498 1.0997.1983c.5844.1064.9829-.0489 1.1093-.7393.0962-.5264-.1059-.8731-.7846-.9941l-1.1065-.2002zm-.1718-2.498 1.9848.3593c.8428.1504 1.1563.8828 1.0152 1.6514-.0669.3701-.2696.8691-.8189 1.0703.2681.2002.7422.5557.565 1.5215-.1656.9023-.8394 1.5684-1.8384 1.3877l-1.9414-.3506zm-.3047 5.0966 1.3003.2364c.6347.1142 1.0283-.2295 1.1435-.8565.1455-.7929-.3847-1.0527-.8808-1.1416l-1.2002-.2148z" transform="translate(131.309 245.764)"/><path d="m3.353 6.166-3.353-.4639.7832-5.7021 3.3095.458-.0942.6816-2.6948-.372-.2403 1.747 2.4869.3438-.0943.6826-2.4863-.3418-.2617 1.9053 2.7392.3769z" transform="translate(135.755 246.488)"/><path d="m.6177 5.7871-.6177-.0537.5014-5.7334 2.1143.1875c.752.0664 1.4756.4619 1.3691 1.6748-.0751.8467-.4453 1.1289-.7573 1.3174.249.1592.4976.3252.4527 1.126l-.0528 1.0419c-.02.3204 0 .4424.1807.5948l-.0117.1289-.7583-.0674c-.0586-.3604-.001-1.2315.0175-1.4482.0416-.4698.0127-1.0284-.726-1.0948l-1.4976-.1318zm.2724-3.1221 1.4341.128c.4517.04.9424-.0606 1.0166-.9082.0772-.8848-.4321-1.002-.7383-1.0303l-1.5415-.1367z" transform="translate(140.196 247.046)"/><path d="m3.7334.0977-.1016 3.7226c-.0322 1.1729-.6455 2.1475-1.9004 2.1133-1.2305-.0342-1.7314-1.0381-1.7021-2.1084l.1045-3.8252.6181.0176-.0986 3.6084c-.0352 1.247.5615 1.6054 1.1152 1.6211.5674.0156 1.2119-.295 1.2471-1.5401l.0996-3.6259z" transform="translate(144.992 247.429)"/><path d="m2.8594 1.8438c-.0616-.8867-.6563-1.1465-1.1729-1.1279-.3887.0136-1.04.1709-1.0127 1.0429.0166.4854.2959.6367.5674.7061l1.3174.331c.5976.1563 1.0586.5879 1.0898 1.4981.043 1.3574-.9512 1.7676-1.7344 1.7939-.8476.0283-1.1894-.2793-1.4003-.5039-.4034-.4258-.4961-.9033-.5137-1.4375l.5801-.0195c.0341 1.0381.7197 1.3174 1.3056 1.2978.4453-.0156 1.1924-.1845 1.1651-1.0068-.0186-.5986-.2491-.7832-1.0069-.9814l-.9453-.2383c-.3027-.0781-.9863-.3184-1.0195-1.3174-.0293-.8936.4082-1.7881 1.5166-1.8242 1.5967-.0567 1.7969 1.1367 1.8428 1.7656z" transform="translate(149.592 247.265)"/><path d="m2.8047 3.9952.5977 1.6201.6748-.0606-2.1563-5.5547-.7011.0616-1.2198 5.8564.6377-.0556.333-1.7041zm-1.7031-.5362.5107-2.5752.0127-.0009.8965 2.4492z" transform="translate(153.91 247.177)"/><path d="m2.9864.085.6132-.085.7832 5.6719-.6132.084-.3653-2.6465-2.372.3281.3642 2.6445-.6133.085-.7832-5.6699.6143-.085.3223 2.3467 2.373-.3281z" transform="translate(157.965 246.459)"/><path d="m.7978 4.2304-.1719 1.7256-.6259.1133.6611-5.9453.6914-.124 2.668 5.3437-.666.1211-.7471-1.5605zm1.4649-.9629-1.1192-2.3613-.0127.001-.2685 2.6123z" transform="translate(163.084 245.935)"/><path d="m0 .6485 1.9717-.4541c.835-.1944 1.416.3564 1.5908 1.1211.0831.3662.0957.9062-.331 1.3095.3262.0811.9033.2178 1.125 1.1797.2051.8985-.1524 1.7784-1.1445 2.0069l-1.9268.4443zm1.1495 2.2334 1.0918-.251c.581-.1338.8847-.4346.7275-1.1211-.1201-.5234-.4443-.7607-1.1172-.6064l-1.0976.2529zm.5918 2.5859 1.2919-.2969c.6299-.1464.8555-.6191.7129-1.2412-.1796-.791-.7714-.8183-1.2636-.7041l-1.1924.2754z" transform="translate(168.101 244.536)"/><path d="m4.7246 5.5351-3.2822.8545-1.4424-5.5449 3.2402-.8447.1738.665-2.6396.6865.4414 1.6993 2.4336-.6338.1728.665-2.4345.6338.4814 1.8525 2.6826-.6982z" transform="translate(172.288 243.388)"/><path d="m2.1953 6.1299-.5977.1709-1.5976-5.5156 2.0429-.5792c.7256-.206 1.543-.0966 1.8819 1.0704.2363.8144-.0098 1.208-.2334 1.4961.291.0595.583.125.83.8867l.3262.9883c.0957.3056.1592.4101.3819.4902l.0361.1211-.7334.208c-.1846-.3125-.4453-1.1445-.5049-1.3525-.1318-.4532-.3574-.961-1.0723-.7598l-1.4453.4101zm-.8711-3.002 1.3847-.3935c.4366-.1231.8584-.3926.6231-1.2061-.2481-.8515-.7656-.7812-1.0615-.6973l-1.4883.4229z" transform="translate(176.376 242.363)"/><path d="m1.3223 2.999 1.0683-.336c.5684-.1787.8497-.5009.6387-1.1748-.1621-.5107-.5029-.7216-1.1631-.5146l-1.0742.3379zm-1.3223-2.1358 1.9297-.6064c.8203-.2568 1.4395.2451 1.6748.9932.1123.3584.167.8945-.2266 1.3291.334.0547.919.1484 1.2149 1.0879.2754.8769-.0107 1.7812-.9834 2.0859l-1.8877.5937zm2.1162 4.6631 1.2647-.3974c.6172-.1944.8056-.6817.6142-1.292-.2431-.7705-.8349-.752-1.3164-.6016l-1.166.3672z" transform="translate(180.694 241.014)"/><path d="m.7344 4.2626.083 1.7315-.6064.2051-.211-5.9737.668-.2255 3.4248 4.8867-.6435.2177-.9678-1.4326zm1.3125-1.1669-1.456-2.169-.0127.0049.1162 2.6201z" transform="translate(185.993 239.961)"/><path d="m2.5586 6.4414-.584.211-1.9746-5.3887.5839-.2119.9581 2.6103 1.1386-3.3701.8057-.292-1.002 2.8291 3.0245 2.542-.7588.2754-2.5-2.1543-.3848 1.0566z" transform="translate(188.722 237.966)"/><path d="m0 1.3486 3.4854-1.3486.2471.6406-1.4522.5625 1.8194 4.7148-.5791.2256-1.8194-4.7158-1.4521.5615z" transform="translate(192.335 236.555)"/><path d="m2.7363 5.3271-.5752.2314-2.1611-5.3251.5752-.2334z" transform="translate(196.391 236.073)"/></g><g stroke-width=".579062"><g stroke="#161413"><path d="m19.6884 11.8701s.2891-3.04-3.7636-5.5c-4.0537-2.4619-13.8975-5.9355-15.9248-6.3701" fill="none" transform="translate(200.43 227.025)"/><path d="m0 1.7374c1.5205.3613 2.5342-.3614 2.0274-1.7374" fill="none" transform="translate(215.123 229.848)"/><g fill="#fcce15"><g clip-path="url(#y)"><path d="m39.5195 37.7832s1.4473-1.7353 1.4473-3.6181c0-3.4864-1.4473-4.3438-5.2109-5.7911-3.7647-1.4472-11.003-2.6045-13.6084-4.6318-2.6055-2.0273-12.4492-22.0039-12.4492-22.0039-2.6055-1.7383-8.2227-1.5928-9.1202 2.8945-.5781 2.8955 17.8067 21.4248 17.8067 21.4248s-4.9219-.8691-3.6211 3.0411l5.6465 1.5927 9.1211 9.9873s-.4346 4.3428 2.75 3.7647c2.6865-.4883 3.04-2.8955 3.04-2.8955s1.7373 1.1582 3.6191-.2891c1.8809-1.4482.5791-3.4756.5791-3.4756z" transform="translate(180.599 201.112)"/><path d="m9.2646 9.6992s.0098-.9258-.5791-3.1836c-.8691-3.3301-6.2246-5.3565-8.6855-6.5156" transform="translate(206.655 232.961)"/><path d="m0 1.5918c1.4795.4306 3.1123.6513 4.1788-.627.2441-.2939.3281-.6719.5966-.9648" transform="translate(210.348 240.272)"/><path d="m0 1.8818c2.6787 1.5196 3.667.0879 4.0537-1.8818" transform="translate(208.465 236.796)"/><path d="m0 1.0137c1.8086.9404 2.9668.7968 2.6044-1.0137-.0478 0-.0957 0-.1445 0" transform="translate(205.28 233.901)"/><path d="m0 2.2451c2.4609.7237 2.8994-1.0469 2.9677-2.0996-.08 1.2422 2.2627.5117 3.1846-.1455" transform="translate(201.009 229.558)"/><path d="m0 2.2158c2.6797.6524 3.0869-.8876 4.0537-2.1699-.1416-.0459-.1816.0098-.1455.1446" transform="translate(215.702 237.041)"/><path d="m0 2.0264c.9326.0654 1.8183-.1777 2.7314-.376.6963-.1494.419-1.0527.4522-1.6504v.1446" transform="translate(213.821 234.77)"/><path d="m0 1.4473c1.5449.1728 3.7774.5879 4.3438-1.4473v.1445" transform="translate(209.332 232.454)"/><path d="m0 1.4473c1.377.5058 2.9688.0732 2.4619-1.4473" transform="translate(207.161 230.717)"/><path d="m0 1.7364c1.3759.5068 2.2304-.545 2.1709-1.7364" transform="translate(218.742 233.178)"/><path d="m0 1.8828c1.9541.7959 2.8213-.3633 2.3164-1.8828" transform="translate(216.861 231.151)"/><path d="m0 1.5918c1.5196.2177 2.5332-.3614 2.0274-1.5918v.1455" transform="translate(211.794 228.834)"/><path d="m0 1.1592c2.1006.6503 2.8252.0712 2.752-1.1592" transform="translate(208.318 228.255)"/><path d="m0 1.1572c1.5205.2178 2.0986-.2168 1.7363-1.1572" transform="translate(206.004 227.387)"/><path d="m0 1.1572c.8008.5879 2.8213.5069 2.8945-1.1572-.0488 0 .4825 0 .4336 0" transform="translate(198.766 224.058)"/><path d="m0 1.0146c2.457.9981 3.9804.0713 3.7627-1.0146" transform="translate(195.726 220.438)"/><path d="m7.3819 0c-1.0303 1.8623-3.6241 2.1504-5.211.8682-.1816-.1465-.5078.5762-.8642.5391-.4805-.0528-.9893-.087-1.3067-.5391" transform="translate(189.79 216.241)"/><path d="m0 1.4483c2.0986 1.374 3.2568.6523 3.6191-1.4483" transform="translate(190.514 211.752)"/><path d="m0 2.1709c2.4951 1.0879 4.5596-.2178 4.4873-2.1709" transform="translate(186.894 206.976)"/><path d="m0 0c.5323.0625.6719.6113.9395.9307 2.5078 2.9853 3.9736 4.4003 6.2988 7.6113 1.2578 1.7353 2.9502 4.5166 4.2422 6.1592 1.9248 2.4472 2.9951 5.3925 5.6016 7.1582.0644.0439-.0489-.0469-.1455-.1446v.1446c-.3418-.0225-.7002.0908-1.0118-.1446" transform="translate(182.552 204.659)"/><path d="m0 .8682c.8203.3623 1.333-.3701 1.8818-.8682" transform="translate(182.262 206.541)"/><path d="m0 .1904c.7959.7393 2.0439.7471 2.751-.1455-.1426-.0449-.1817.0107-.1456.1455" transform="translate(183.855 209.826)"/><path d="m0 .2891c.7275.3145 1.4541.1885 2.0273-.2891" transform="translate(186.606 213.49)"/><path d="m0 0c.6416.3076 1.3282.3212 2.0264.291" transform="translate(192.686 220.293)"/><path d="m0 0c.5107.1074.9238.4619 1.4463.1436" transform="translate(195.871 224.058)"/><path d="m0 .7246c1.5947.4698 4.8496.6514 4.7773-.7246" transform="translate(200.213 226.373)"/></g><g clip-path="url(#z)"><path d="m1.4478 37.7842s-1.4478-1.7373-1.4478-3.6191c0-3.4864 1.4478-4.3428 5.2115-5.7901 3.7636-1.4482 11.0019-2.6074 13.6074-4.6328 2.6064-2.0273 12.4497-22.0039 12.4497-22.0039 2.6064-1.7383 8.2226-1.5947 9.1206 2.8955.5786 2.8945-17.8057 21.4248-17.8057 21.4248s4.9219-.8691 3.6192 3.0391l-5.646 1.5937-9.1206 9.9873s-.5786 3.041-2.75 2.8955c-2.7256-.1816-3.0401-2.0273-3.0401-2.0273s-1.7373 1.1592-3.6191-.2891c-1.8823-1.4463-.5791-3.4736-.5791-3.4736z" transform="translate(79.5522 200.533)"/><path d="m.0097 9.6983s-.0097-.9258.5786-3.1846c.8692-3.3291 6.2251-5.3564 8.6861-6.5137" transform="translate(85.1885 232.381)"/><path d="m4.7769 1.5937c-1.4815.4297-3.1123.6504-4.1802-.6289-.2437-.2929-.3272-.6699-.5967-.9648" transform="translate(85.9946 239.692)"/><path d="m4.0532 1.8808c-2.6777 1.5205-3.667.0879-4.0532-1.8808" transform="translate(88.6001 236.218)"/><path d="m2.9678 1.0136c-1.8096.9405-2.9678.7959-2.6065-1.0136h.1455" transform="translate(92.8706 233.323)"/><path d="m6.1529 2.2441c-2.461.7227-2.8994-1.0478-2.9678-2.1006.0811 1.2432-2.2642.5137-3.1851-.1435" transform="translate(93.956 228.98)"/><path d="m4.0532 2.2158c-2.6777.6524-3.0864-.8886-4.0532-2.1709.1426-.0449.1816.0108.1445.1455" transform="translate(81.3618 236.462)"/><path d="m3.4277 2.0274c-.934.0654-1.8193-.1787-2.7319-.376-.6958-.1504-.4204-1.0527-.4531-1.6514v.1455" transform="translate(83.8696 234.191)"/><path d="m4.3432 1.4483c-1.5439.1728-3.7773.5878-4.3432-1.4483v.1455" transform="translate(87.4419 231.875)"/><path d="m2.9677 1.4483c-1.375.5068-2.9677.0712-2.4609-1.4483" transform="translate(90.9883 230.137)"/><path d="m2.23 1.7383c-1.3755.5049-2.23-.5459-2.1719-1.7383" transform="translate(80.1455 232.598)"/><path d="m2.8222 1.8818c-1.9541.7959-2.8222-.3613-2.3154-1.8818" transform="translate(81.4346 230.572)"/><path d="m2.5337 1.5927c-1.52.2168-2.5337-.3623-2.0269-1.5927v.1455" transform="translate(86.7905 228.255)"/><path d="m2.8222 1.1582c-2.0986.6513-2.8222.0732-2.75-1.1582" transform="translate(89.9756 227.676)"/><path d="m2.0986 1.1572c-1.5195.2168-2.0986-.2168-1.7368-1.1572" transform="translate(93.0156 226.809)"/><path d="m3.3784 1.1572c-.8008.586-2.8232.5069-2.895-1.1572h-.4341" transform="translate(98.9741 223.479)"/><path d="m3.9805 1.0117c-2.4571 1-3.9805.0732-3.7632-1.0117" transform="translate(101.412 219.86)"/><path d="m0 0c1.0308 1.8633 3.6245 2.1504 5.2114.8692.1817-.1465.5083.5762.8643.539.4795-.0517.9907-.0869 1.3071-.539" transform="translate(103.945 215.661)"/><path d="m3.6192 1.4483c-2.0996 1.375-3.2568.6514-3.6192-1.4483" transform="translate(106.985 211.173)"/><path d="m4.5605 2.1729c-2.4936 1.0879-4.5605-.2178-4.4878-2.1729" transform="translate(109.663 206.395)"/><path d="m17.1465 0c-.5327.0615-.6734.6103-.9404.9297-2.5088 2.9863-3.9732 4.3994-6.2979 7.6113-1.2578 1.7353-2.9507 4.5166-4.2422 6.1582-1.9253 2.4492-2.9956 5.3926-5.6015 7.1601-.0645.044.0478-.0488.1445-.1445v.1445c.3418-.0224.7021.0899 1.0137-.1445" transform="translate(101.42 204.081)"/><path d="m1.8823.8682c-.8203.3603-1.332-.3711-1.8823-.8682" transform="translate(116.974 205.962)"/><path d="m2.751.1894c-.7969.7403-2.044.7471-2.751-.1445.1426-.0449.1816.0107.1445.1445" transform="translate(114.513 209.247)"/><path d="m2.0264.2901c-.7276.3125-1.4556.1885-2.0264-.2901" transform="translate(112.486 212.911)"/><path d="m2.0264 0c-.6421.3086-1.3291.3222-2.0264.289" transform="translate(106.406 219.714)"/><path d="m1.4472 0c-.5127.1084-.9253.4619-1.4472.1445" transform="translate(103.801 223.479)"/><path d="m4.8492.7227c-1.5938.4726-4.8492.6513-4.7769-.7227" transform="translate(96.0556 225.795)"/></g></g></g><g fill="none" stroke-linecap="round"><g stroke="#161413" stroke-linejoin="round"><path d="m0 9.1196s2.6055-3.9082 5.2119-5.0664c0 0-1.1592-3.6191 0-4.0532" transform="translate(153.237 38.1089)"/><path d="m0 12.8837s2.1709-4.0532 6.0791-5.9345l1.5927-6.9492" transform="translate(156.567 38.398)"/><path d="m0 16.9375s5.9346-4.9218 7.8164-5.3559c-.1435-3.0405 2.8955-11.5816 2.8955-11.5816" transform="translate(158.449 39.9902)"/><path d="m0 13.6075s7.0947-4.0533 10.4229-3.4747c1.3047-4.4868 7.2383-10.1328 7.2383-10.1328" transform="translate(158.303 47.3735)"/><path d="m0 0 12.0146 1.4478" transform="translate(158.159 63.0078)"/></g><g stroke="#fff"><path d="m1.3037 0-1.3037 5.9356" transform="translate(125.442 230.5)"/><path d="m1.1582 0-1.1582 5.2129" transform="translate(129.641 231.947)"/><path d="m.8686 0-.8686 5.0674" transform="translate(133.838 233.25)"/><path d="m.2896 0-.2896 5.2129" transform="translate(139.195 233.539)"/><path d="m.291 0-.291 5.3555" transform="translate(145.13 234.408)"/><path d="m0 0 .291 5.2109" transform="translate(151.355 234.698)"/><path d="m0 0 .5791 4.9219" transform="translate(157.145 234.841)"/><path d="m0 0 .58 4.3428" transform="translate(162.501 234.263)"/><path d="m0 0 1.0137 5.2109" transform="translate(166.266 233.106)"/><path d="m0 0 1.1582 5.212" transform="translate(170.319 231.657)"/><path d="m1.3755 0-1.3755 5.5742" transform="translate(119.362 256.049)"/><path d="m1.1582 0-1.1582 6.2246" transform="translate(124.535 257.136)"/><path d="m1.0132 0-1.0132 6.5147" transform="translate(130.075 258.15)"/><path d="m.7237 0-.7237 7.0927" transform="translate(136.589 259.018)"/><path d="m.4346 0-.4346 7.6738" transform="translate(144.262 259.596)"/><path d="m0 0 .2911 7.3838" transform="translate(152.368 259.886)"/><path d="m0 0 .9414 7.2383" transform="translate(159.534 259.307)"/><path d="m0 0 1.0137 6.5156" transform="translate(165.976 258.873)"/><path d="m0 0 1.1573 5.9336" transform="translate(171.044 257.861)"/><path d="m0 0 1.1582 5.2109" transform="translate(176.544 256.702)"/></g></g></g></svg>