<svg enable-background="new 0 0 325.2 382.8" viewBox="0 0 325.2 382.8" xmlns="http://www.w3.org/2000/svg" xmlns:xlink="http://www.w3.org/1999/xlink"><clipPath id="a"><path d="m195.5-282.2h24.2v46.6h-24.2z"/></clipPath><path d="m143.1 246.8 23.6-13.9v-133.3l-23.7 20.8z" fill="#9a9c9e"/><path d="m166.7 233v-133.4l23.7 20.8v103.4z" fill="#ffec00"/><path d="m129.9 261.3v-91.6l23.7 21v49zm23.3 49.9 12.8 12.5s16.3-19.8 27.1-25.8c10.7-5.9 11.9-8.7 34.7-11.8v-18s-20.6 0-45.2 16.9c-24.4 16.8-29 26.1-29.4 26.2z" fill="#004193"/><path d="m106.3 283.2 23.6-21.9v-91.6l-23.7 20.8z" fill="#9a9c9e"/><path d="m132.3 293.7 14.7 11.3s15-18 35-30.2c20.9-12.8 45.8-14.4 45.8-14.4l-.2-16.9s-30.2 1.3-53.6 15.3c-23.2 13.8-32.8 23-41.7 34.9z" fill="#9a9c9e"/><path d="m275.5 173.4c-2.8-40-44.7-51.8-44.7-51.8s-11.9-49.7-65.5-49.7c-54.4 0-64.7 48.9-64.7 48.9s-44.7 13.9-44.7 57c-.1 49.6 49.4 60.2 49.4 60.2l1 .2v-47.7l23.7-20.8 23.7 21v41.7c1.3-.7 2.6-1.4 3.9-2.1 9.4-4.7 16.2-11.5 21-18.9 6.1-8.6 9.8-18.8 10.5-29.7.2-2 .2-3.8.2-5 0-.4-.1-.9-.1-1.3-1.4-25.8-20.3-47.3-46-55l23.7-20.8 23.7 20.8v62.1l14.1-12.9v50.6c-4.8 1-9.8 2.2-15 3.8-15.7 4.5-28.8 10.9-37.1 16.3-2.2 1.5-4.4 2.9-6.4 4.4-13.3 9-26.3 20.7-37.8 35.8-1.3 1.6-1.9 2.5-1.9 2.5l19 7.5c30-40.9 73.3-53.2 98.3-54.2 27.2-.8 54.2-27.7 51.7-62.9z" fill="#009360"/><path d="m213.3 221.3c4.7 0 8.7-1.4 13.3-2.1.6-.1 1.1-.1 1.6 0v-28.9l-23.7-20.8v52.6c2.9-.5 5.8-.8 8.8-.8z" fill="#e30007"/><path d="m190.4 223.8c4.9-1.5 9.6-2.6 14.1-3.5v-50.6l-14.1 12.9z" fill="#9a9c9e"/><g fill="#004193"><path d="m23.6 97.6c0-.2.1-.3.1-.5 0-.8-.2-1.5-.6-2.1-.1-.1-.2-.2-.4-.4-5.5-4.7-10.9-9.3-16.4-14-.1-.1-.2-.2-.3-.3-.3-.2-.7-.3-1-.4s-.8 0-1.5 0c-.3 0-.5.1-.7.1 2.1-2.2 4.3-4.4 6.5-6.5 2.1-2 4-3.3 5.7-4s3.2-.9 4.5-.7 2.4.8 3.3 1.7c1 1 1.5 2.2 1.5 3.5s-.2 2.5-.6 3.6-1 2.1-1.8 3.1-1.4 1.6-1.7 2c-.3.3-.6.5-1 .8-.3.2-.7.4-1 .6.1-.1.2-.2.2-.3.1-.2.3-.3.4-.5 1.2-1.5 1.9-3 2.2-4.3s.2-2.4-.2-3.1c-.4-.8-.8-1.3-1.2-1.7-.9-.8-1.9-1.3-3.3-1.2-1.3 0-2.4.4-3.3 1s-1.4 1-1.6 1.2c-.1.1-.3.3-.6.5-.2.2-.5.5-.9.9-.2.2-.4.5-.6.7 5.4 4.8 10.8 9.7 16.2 14.5.1.1.3.2.4.4.6.4 1.4.5 2.3.4.2 0 .4-.1.6-.1-1.6 1.4-3.4 3.2-5.2 5.1z"/><path d="m43.6 79.6c.1-.2.1-.3.2-.5.2-.7.1-1.3 0-1.7-.2-.5-.3-.8-.5-1-4.7-5.4-9.3-10.7-14-16.1-.1-.1-.1-.2-.2-.3l-.1-.1c-.3-.2-.6-.4-.9-.5s-.8-.2-1.5-.2c-.2 0-.4 0-.6 0 4.4-3.4 8.9-6.6 13.4-9.7 1 1.4 2.1 2.8 3.1 4.1-.1-.1-.3-.1-.4-.2-.7-.2-1.3-.3-1.8-.3-.5.1-1.1.3-1.8.6-.5.3-.9.6-1.4 1-1.4 1-2.8 2-4.1 3 1.7 2 3.4 4 5 6.1 1.9-1.4 3.8-2.8 5.8-4.1.9 1.1 1.7 2.2 2.6 3.3-.1 0-.2-.1-.3-.1s-.2 0-.2-.1c-.6-.1-1.1 0-1.6.1s-1.1.4-1.7.9c-.2.1-.4.3-.5.4-.7.5-1.5 1.1-2.2 1.6 2.1 2.6 4.3 5.1 6.4 7.7l.6-.3c1.4-.7 2.6-1.4 3.6-2.1 1.4-1 2.5-2 3.3-3s1.4-2.2 1.8-3.4c.5 1.7 1 3.4 1.5 5.2-4.6 3-9.1 6.3-13.5 9.7z"/><path d="m66 64.4c.1-.2.2-.3.2-.5.3-.8.3-1.5 0-2.2-.1-.1-.2-.3-.3-.4-3.8-6-7.6-11.9-11.3-17.9-.1-.1-.3-.2-.4-.4-.3-.3-.5-.5-.8-.6-.2-.1-.7-.2-1.4-.4-.2 0-.4-.1-.5-.1 2.7-1.5 5.3-3 8.1-4.4 1.6-.8 3-1.4 4.4-1.7 1.3-.3 2.5-.3 3.7-.1 1.1.2 2.1.6 2.9 1.2s1.4 1.3 1.8 2.1c.5 1 .7 2 .6 3.1s-.4 2.1-1 2.8c-.6.8-1.2 1.5-1.8 2-.5.4-.9.8-1.4 1.1 1.4.5 2.7 1.1 4.1 1.6 1.5.6 3.3 1.3 5.6 2 2.3.8 4 1.3 5.2 1.6s2.3.4 3.6.5c-1.3.6-2.6 1.1-3.9 1.7-.3.1-.6.3-1 .4-.3.1-.6.2-.9.2-.4 0-.6 0-.7 0s-.4-.1-.8-.1c-.3-.1-.6-.1-1-.2-.9-.2-2-.6-3.2-1.1-1.3-.5-3.7-1.6-7.3-3.1-.7-.3-1.3-.6-2-.8-.4-.2-.7-.3-1.1-.5s-.9-.4-1.3-.6c.1-.1.2-.1.2-.2.1 0 .1-.1.2-.1.2-.1.3-.3.5-.4.2-.2.4-.3.6-.5.3-.2.6-.5.8-.7 1.2-1.1 1.9-2.3 2.3-3.5.3-1.2.2-2.3-.3-3.3-.4-.8-1.1-1.4-1.9-1.7-.9-.4-1.8-.4-2.8-.2s-2.3.7-3.9 1.6c-.3.1-.5.3-.8.4-.1.1-.2.1-.3.2 3.6 6 7.3 12.1 10.9 18.1.3.4.6.7.9 1 .4.2.8.4 1.4.5h.5c-2.2 1.3-4.3 2.4-6.4 3.6z"/><path d="m92.8 51.7c.1-.1.2-.3.3-.4.4-.7.6-1.5.4-2.2 0-.2-.1-.3-.1-.5-2.7-6.5-5.4-13-8.2-19.5 0-.1-.1-.2-.1-.3s-.1-.1-.1-.2c-.2-.3-.4-.5-.7-.7s-.7-.4-1.3-.5c-.2 0-.4-.1-.5-.1 2.2-.9 4.5-1.7 6.8-2.5.6-.2 1.2-.4 1.8-.6 2.9-1 5.3-1.3 7.1-.9 1.8.3 3 1 3.6 1.9s.9 1.5 1 1.9c.6 1.8 0 3.4-1.7 4.9-.1.1-.3.2-.4.3.6-.1 1.4-.1 2.5-.1 1.1.1 2.2.5 3.4 1.5 1.1.9 1.9 2.1 2.3 3.5.6 2 .4 3.8-.4 5.5s-2 3-3.4 3.9-3.7 1.9-6.9 3c-1.8.7-3.6 1.4-5.4 2.1zm-.5-16.4h.3c.1 0 .1 0 .2-.1.1 0 .3-.1.4-.1 2.1-.7 3.6-1.6 4.4-2.7.9-1.1 1.1-2.2.7-3.4-.1-.3-.5-1-1.2-1.9-.7-1-1.7-1.3-3.1-1.1-1.4.3-2.2.5-2.5.6s-.6.2-.9.3-.6.2-.8.3-.4.2-.6.3c1 2.5 2.1 5.2 3.1 7.8zm4.5 11.5h.4c.2 0 .4-.1.6-.1.9-.1 1.7-.3 2.5-.6 1.5-.5 2.7-1.2 3.5-2.1s1.2-1.8 1.3-2.5c0-.8 0-1.4 0-1.8-.1-.4-.1-.7-.2-1-.3-1-1-1.9-1.9-2.5s-1.8-.9-2.7-.8-1.7.2-2.2.3c-.6.1-1.5.4-2.7.8-.8.3-1.5.6-2.3.9 1.3 3.2 2.5 6.3 3.7 9.4z"/><path d="m118.2 43.9c.2-.1.3-.3.5-.4.7-.7 1.1-1.2 1.3-1.5s.3-.6.4-.8.1-.4.1-.5c1.2-7.4 2.7-14.7 4.6-22.1 0-.1 0-.1.1-.2.1-.3.1-.6 0-.9-.1-.4-.4-.8-.9-1.3-.1-.1-.3-.2-.4-.3 2.2-.4 4.4-.7 6.6-1 4.8 7.3 9.3 14.7 13.3 22.3.1.1.2.2.3.4s.3.4.6.7.9.6 1.8 1.1c.2.1.4.2.6.2-2.8.2-5.6.5-8.3.8.1-.1.3-.2.4-.3.5-.5.8-1.1.7-1.7 0-.1-.1-.3-.1-.5 0-.1-.1-.1-.1-.2-1.3-2.4-2.6-4.8-4-7.2-3.4.4-6.8 1-10.1 1.6-.5 2.7-.9 5.3-1.3 8 0 .2-.1.3 0 .5.1.7.5 1.3 1.2 1.7.2.1.3.1.5.2-2.9.3-5.3.8-7.8 1.4zm7.7-14.8c2.7-.5 5.4-.9 8-1.3-1.8-3.1-3.7-6.2-5.7-9.3-.8 3.5-1.6 7-2.3 10.6z"/><path d="m151.8 12.7c3.4-.2 6.8-.2 10.2-.2 5.8 0 10.3 1.4 13.4 3.9 3 2.5 4.3 5.7 3.9 9.5-.1.7-.1 1.2-.2 1.5s-.4 1.5-1 3.5-2.3 3.8-5.1 5.5c-2.7 1.7-6.4 2.4-11 2.4-2.9 0-5.9.1-8.8.2.1-.1.2-.2.3-.3.5-.5.9-1.2 1-1.9 0-.1.1-.3.1-.4-.3-7-.5-13.9-.8-20.9 0-.2 0-.3 0-.5-.1-.4-.3-.7-.5-.9s-.6-.6-1.1-1c-.1-.2-.2-.3-.4-.4zm6.9 23c.1 0 .3 0 .4.1h.4c.5 0 1 .1 1.5.1 4 0 7-.6 9.2-1.8 2.1-1.2 3.5-2.7 4-4.6s.8-3.1.8-3.9c.2-2.6-.6-4.8-2.3-6.6s-3.8-2.9-6.1-3.2-3.9-.4-4.9-.4c-.6 0-1.2 0-1.8.1s-1.1.2-1.6.3c.1 6.6.2 13.2.4 19.9z"/><path d="m185 40.1c.2-.1.4-.2.6-.2.9-.4 1.5-.7 1.7-1 .3-.2.5-.5.6-.7.2-.2.3-.3.3-.4 3.9-6.5 8.1-12.8 12.6-19.1 0-.1.1-.1.1-.2.2-.3.3-.5.3-.8.1-.4-.1-.9-.4-1.6-.1-.1-.2-.3-.3-.4 2.2.4 4.4.8 6.5 1.2 1.8 8.4 3.2 16.9 4.1 25.3 0 .1.1.3.1.4.1.2.2.5.3.8.2.4.6.9 1.3 1.6.2.1.3.3.5.4-2.7-.7-5.4-1.4-8.2-2 .2-.1.3-.1.5-.2.7-.3 1.1-.8 1.3-1.4 0-.1 0-.3.1-.5 0-.1 0-.2 0-.2-.3-2.7-.7-5.4-1.1-8.1-3.3-.7-6.7-1.4-10.1-1.9-1.5 2.3-2.9 4.7-4.3 7-.1.1-.2.3-.2.5-.2.7 0 1.3.5 2 .1.1.3.2.4.4-2.2-.3-4.7-.6-7.2-.9zm12.7-11.2c2.7.5 5.3 1 8 1.5-.5-3.5-1.1-7.1-1.8-10.6-2.2 3-4.2 6-6.2 9.1z"/><path d="m220.2 47.6c.2 0 .3-.1.5-.1.8-.3 1.4-.8 1.8-1.4.1-.2.2-.3.2-.5 2.4-6.6 4.7-13.2 7.1-19.8 0-.1.1-.2.1-.3v-.1c.2-.5 0-1.2-.5-2.2-.1-.2-.2-.3-.2-.5 1.7.5 3.3 1.1 5 1.6 3.3 8.1 6 16.2 8.1 24.3 2.5-5.1 5-10.2 7.4-15.3 0 0 0-.1.1-.1.1-.1.1-.2.2-.3.1-.4.1-.7.1-1s-.2-.7-.4-1.2c-.1-.2-.1-.3-.2-.5 2.1.9 4.2 1.8 6.3 2.8-.2.1-.3.1-.5.2-.6.2-1 .4-1.3.5-.3.2-.5.4-.7.7-.1.2-.2.3-.2.5-3.7 7.4-7.5 14.8-11.2 22.2 0-.1-.1-.1-.1-.2s-.1-.1-.1-.2c-1.2-1.4-2.1-3.4-2.9-5.9-.1-.3-.2-.6-.3-1 0-.1-.1-.2-.1-.3-1.7-6.3-3.8-12.7-6.3-19-2.1 5.4-4.1 10.8-6.2 16.2-.1.3-.2.6-.2.9s.1.6.2.9.2.6.4.9c.1.1.2.3.3.4-2.1-.8-4.2-1.5-6.4-2.2z"/><path d="m250.2 59.8h.6c1-.1 1.7-.1 2-.3.3-.1.6-.3.9-.4.2-.1.4-.2.5-.3 6.2-4.6 12.7-9.1 19.4-13.2.1 0 .1-.1.2-.1.3-.2.5-.4.6-.7.2-.3.3-.8.2-1.6 0-.2-.1-.3-.1-.5 2 1.1 3.9 2.3 5.8 3.5-1.5 8.6-3.3 17-5.6 25.2 0 .1 0 .3-.1.5v.9s.2 1.1.6 2c.1.2.2.4.3.6-2.4-1.7-4.7-3.4-7.2-5h.6c.8 0 1.4-.3 1.8-.8.1-.1.1-.2.3-.5 0-.1 0-.1.1-.2.7-2.6 1.4-5.3 2-8-3-1.9-6-3.7-9-5.5-2.3 1.6-4.6 3.3-6.8 5-.2.1-.3.2-.4.4-.4.6-.5 1.2-.3 2 .1.2.2.3.2.5-2-1.1-4.3-2.3-6.6-3.5zm16.5-5.9c2.4 1.4 4.8 2.9 7.2 4.4.8-3.5 1.6-7 2.2-10.6-3.2 2-6.3 4.1-9.4 6.2z"/><path d="m281.5 79.9c.2 0 .4 0 .6.1.9 0 1.6-.2 2.2-.6.1-.1.3-.2.4-.3 4.8-5.3 9.6-10.6 14.4-15.9.1-.1.2-.2.3-.3l.1-.1c.4-.4.5-1.2.3-2.3 0-.2 0-.4-.1-.5 1.4 1.1 2.8 2.3 4.2 3.4.2 8.9-.2 17.6-1.2 26.1 4.4-3.8 8.7-7.7 13.1-11.5l.1-.1c.1-.1.2-.2.3-.2.2-.3.4-.6.4-.9.1-.3.1-.7.1-1.3 0-.2 0-.3 0-.5 1.7 1.7 3.5 3.4 5.1 5.1-.2 0-.4 0-.6 0-.7-.1-1.1-.1-1.5 0-.3 0-.6.2-1 .4-.1.1-.3.2-.4.3-6.5 5.5-12.9 11-19.4 16.5 0-.1 0-.1-.1-.2 0-.1 0-.1-.1-.2-.6-1.8-.8-4.1-.6-6.8 0-.3.1-.7.1-1 0-.1 0-.2 0-.3.7-6.7 1-13.5.9-20.4-4 4.3-8.1 8.6-12.1 12.9-.2.2-.4.5-.5.8s-.2.6-.2.9 0 .6.1 1c0 .2.1.3.1.5-1.3-1.7-3.1-3.2-5-4.6z"/><path d="m40.5 326.6c.2 0 .4.1.5.1.9.1 1.6-.1 2.1-.5.1-.1.2-.2.3-.3 4.3-5.1 8.5-10.2 12.8-15.3l.3-.3c.2-.3.3-.6.4-.9s.1-.7 0-1.3c0-.2 0-.3 0-.5 1.9 1.6 3.7 3.1 5.7 4.6 1.8 1.4 3.1 2.7 3.8 4s1.1 2.5 1.1 3.6c0 1.2-.3 2.2-1 3.2-.7 1.1-1.7 1.8-2.9 2.1s-2.3.4-3.4.2-2.1-.6-3.1-1.1c-1-.6-1.7-1-2-1.3-.3-.2-.6-.5-.8-.8s-.4-.6-.6-.9c.1.1.2.1.3.2.2.1.3.2.5.3 1.6.9 3 1.3 4.2 1.4 1.3 0 2.2-.2 2.9-.7s1.1-.9 1.4-1.3c.7-.9.9-1.9.8-3s-.5-2-1.1-2.6-1-1-1.1-1.1-.3-.2-.5-.4-.5-.4-.8-.6c-.2-.1-.4-.3-.6-.4-4.2 5.2-8.4 10.5-12.6 15.7-.1.1-.2.3-.3.4-.3.6-.3 1.3-.1 2.2.1.2.2.4.2.5-2.3-1.8-4.4-3.5-6.4-5.2z"/><path d="m76.7 322.1c1.9 1.2 3.9 2.4 5.9 3.5-.2 0-.3 0-.5.1-.5.1-.8.2-1.1.3s-.5.3-.8.6c-.1.1-.2.3-.2.4-2.4 4.1-4.7 8.1-7.1 12.2-.1.2-.2.3-.3.5-.8 1.3-.9 2.8-.3 4.3s1.8 2.8 3.7 3.8c.8.4 1.9.8 3.1 1.1s2.4.3 3.6-.2c1.2-.4 2-1.3 2.6-2.5.1-.2.2-.4.3-.6 2-4.1 4-8.3 6-12.4 0-.1.1-.1.1-.2s.1-.1.1-.2c.2-.6.2-1.3-.1-2-.1-.1-.1-.3-.2-.4 1.9 1 3.9 1.9 5.8 2.8-.1 0-.3.1-.4.1-.4.1-.8.3-1.1.5s-.5.4-.7.7c-.1.1-.1.3-.2.4-2.8 6.1-5.6 12.1-8.3 18.2 0 .1-.1.2-.1.3s0 .1-.1.2c-.1.3-.1.6 0 1s.3.8.6 1.3c.1.1.2.3.3.4-1.9-.8-3.8-1.7-5.6-2.6.3-.6.6-1.2.9-1.9-.8.3-1.8.4-2.8.3-1.1-.1-2.1-.3-3-.6s-1.7-.6-2.2-.9-.8-.4-.9-.5c-.7-.4-1.8-1.2-3.3-2.3-1.5-1.2-2.4-2.7-2.7-4.5s.2-3.9 1.7-6.3c2.4-4 4.9-7.9 7.3-11.9.1-.1.2-.3.3-.4.2-.6.2-1.3-.1-2.1-.1-.1-.1-.3-.2-.5z"/><path d="m102.2 340.4c1-1.3 2.1-2.6 3.1-3.8 5.7 2.2 11.6 4.1 17.5 5.7-.9 1.5-1.8 2.9-2.8 4.4-.2-.8-.6-1.4-1.1-1.9s-1.4-.9-2.5-1.3c-.4-.1-.7-.2-1-.3s-.6-.2-.8-.3-.3-.1-.5-.2c-2 6.2-4 12.4-6 18.6 0 .2-.1.3-.1.5 0 .5 0 .8.1 1.1s.3.6.7 1c.1.1.3.3.4.4-2.5-.8-4.9-1.6-7.3-2.4.2 0 .3-.1.5-.1.7-.3 1.3-.7 1.7-1.3 0-.1.1-.2.1-.3v-.1c2.1-6.1 4.2-12.3 6.3-18.4-.1-.1-.3-.2-.4-.3-.3-.1-.7-.2-1-.3-1.6-.6-2.8-.9-3.8-1-1.1-.1-2.1 0-3.1.3z"/><path d="m124.2 368.4c.2-.1.4-.1.5-.2.8-.3 1.3-.8 1.6-1.4 0-.2.1-.3.1-.5 1.4-6.5 2.8-13 4.2-19.5 0-.2 0-.3 0-.5 0-.4 0-.7-.1-.9s-.3-.6-.5-1.1c-.1-.1-.2-.3-.2-.4 2.4.5 4.7 1 7.1 1.4 1.4.2 2.6.6 3.5 1.1 1 .5 1.8 1.1 2.4 1.8s1.1 1.5 1.4 2.4.3 1.7.2 2.5c-.1 1-.5 1.9-1.2 2.8-.6.8-1.4 1.4-2.2 1.7s-1.7.5-2.4.6c-.5 0-1.1.1-1.6.1.7 1.2 1.4 2.3 2.1 3.5.8 1.2 1.8 2.8 3.3 4.5 1.5 1.8 2.6 3 3.5 3.8s1.8 1.5 2.9 2.1c-1.5-.1-3-.3-4.5-.5-.4 0-.7-.1-1.1-.1-.3 0-.6-.1-.9-.3s-.5-.3-.6-.4-.3-.2-.6-.5c-.2-.2-.5-.4-.7-.6-.6-.6-1.3-1.5-2-2.5-.7-1.1-2-3.2-3.7-6.4-.3-.6-.6-1.2-.9-1.8-.2-.3-.3-.6-.5-1s-.3-.8-.5-1.2h.3s.1 0 .2 0h.6.7s.7 0 1-.1c1.5-.2 2.7-.6 3.6-1.4s1.4-1.7 1.6-2.7c.1-.8 0-1.6-.4-2.3s-.9-1.3-1.7-1.7c-.7-.4-1.8-.7-3.3-1-.2 0-.5-.1-.7-.1-.1 0-.2 0-.3-.1-1.3 6.5-2.5 13-3.8 19.5-.1.5-.1.9.1 1.3.1.4.4.8.8 1.2.1.1.3.2.4.4-2.8-.5-5.3-1-7.7-1.5z"/><path d="m152.5 372.6c.2-.1.4-.2.6-.2.9-.4 1.5-.8 1.8-1 .2-.2.4-.5.6-.7s.3-.3.3-.4c3.4-6.4 6.4-12.9 9.2-19.5 0-.1 0-.1.1-.2.1-.3.1-.6.1-.8 0-.3-.2-.8-.5-1.4-.1-.1-.2-.2-.3-.4h5.3c3.1 7.5 6.5 14.9 10.3 22.1.1.1.1.2.3.4.1.2.3.4.6.7s.9.6 1.8 1c.2.1.4.2.6.2-3 .3-5.9.4-8.9.6.2-.1.3-.2.5-.3.6-.5.9-1 .9-1.6 0-.1 0-.3-.1-.5 0-.1-.1-.1-.1-.2-1.1-2.4-2.2-4.8-3.3-7.2-3.3.1-6.5.1-9.8 0-1 2.4-2.1 4.8-3.2 7.2-.1.1-.1.3-.1.5-.1.7.2 1.3.8 1.8.2.1.3.2.5.3-2.7-.1-5.4-.2-8-.4zm11.2-11.9h7.5c-1.3-3.1-2.6-6.3-3.8-9.5-1.1 3.2-2.4 6.3-3.7 9.5z"/><path d="m189.4 380.1c.1-.1.2-.2.3-.3.2-.2.4-.4.6-.7.5-.6.9-1.1 1.2-1.5.3-.5.5-1.1.7-1.7.2-.7.3-1.4.4-2.1 0-.7 0-1.5-.1-2.4-1-7.4-2-14.9-3-22.3-.1-.2-.1-.3-.2-.5-.1-.4-.3-.7-.4-.9s-.4-.4-.8-.8c-.1-.1-.2-.2-.3-.3 2-.2 3.9-.5 5.9-.8-.1.1-.2.3-.3.4-.4.7-.6 1.3-.6 2v.2.2c1.3 8.4 2.6 16.8 3.9 25.2.1.9-.2 1.9-1.1 2.9s-2 1.8-3.3 2.3c-1.1.6-2.2.9-2.9 1.1z"/><path d="m205.5 369.1c.2-.1.3-.3.5-.4.8-.7 1.3-1.1 1.4-1.4.2-.3.3-.6.4-.8s.2-.4.2-.5c1.5-7.1 2.7-14.2 3.6-21.3 0-.1 0-.1 0-.2 0-.3 0-.6-.1-.8-.1-.3-.4-.7-.9-1.2-.1-.1-.2-.2-.4-.3 1.7-.5 3.5-1 5.2-1.5 5 6.4 10.4 12.5 16.1 18.5.1.1.2.2.4.3s.4.3.8.5 1 .3 2.1.5h.7c-2.8 1.1-5.7 2.1-8.5 3 .1-.1.2-.3.4-.4.5-.6.6-1.2.4-1.8 0-.1-.1-.2-.2-.4-.1-.1-.1-.1-.2-.2-1.7-2-3.5-4-5.1-6-3.1 1-6.3 1.9-9.5 2.7-.3 2.6-.7 5.2-1.1 7.8-.1.2-.1.3 0 .5.1.7.5 1.2 1.2 1.5.2.1.3.1.5.2-2.6.6-5.2 1.2-7.9 1.7zm7.7-14.4c2.4-.6 4.9-1.3 7.3-2.1-2.1-2.7-4.2-5.4-6.2-8.1-.3 3.3-.7 6.8-1.1 10.2z"/><path d="m229.5 335.8c1.8-.7 3.6-1.5 5.4-2.3 3.6 2.4 7.3 4.7 11.1 6.9.5-3.3 1-6.7 1.4-10 0-.1 0-.2 0-.2 0-.3 0-.6-.2-.9s-.6-.6-1.3-.8c-.2 0-.3-.1-.5-.1 1.8-1 3.6-1.9 5.4-3-.5 5.6-1.2 11.3-2.2 17 1.3 2.6 2.6 5.1 3.9 7.7.1.2.2.3.3.4.4.5 1 .9 2 1h.5c-2.4 1.2-4.8 2.4-7.2 3.5.1-.1.2-.3.3-.4.4-.7.6-1.4.4-2.2 0-.1 0-.3-.1-.4-1.3-2.7-2.5-5.3-3.8-8-4-2.2-7.9-4.6-11.7-7 0 0-.1 0-.1-.1-.2-.1-.3-.1-.5-.2-.3-.1-.6-.3-1-.4-.1 0-.2-.1-.3-.1-.3-.1-.5-.1-.8-.2s-.6-.2-1-.2c.3.1.2.1 0 0z"/><path d="m266.4 345.4c.1-.2.2-.4.4-.5.5-.9.8-1.5.9-1.9.1-.3.1-.6.1-.9s0-.4 0-.5c-.9-7.2-2-14.4-3.5-21.4 0-.1 0-.1 0-.2-.1-.3-.2-.5-.4-.8s-.6-.6-1.3-.8c-.1 0-.3-.1-.4-.1 1.5-1.1 3-2.1 4.6-3.2 6.9 4.2 14.2 8.2 21.7 11.7.1 0 .3.1.4.1.2 0 .5.1.9.1s1.1 0 2.2-.3c.2-.1.5-.1.7-.2-2.4 2.1-4.8 4-7.3 6 .1-.2.1-.3.2-.5.3-.8.2-1.4-.1-1.8-.1-.1-.2-.2-.4-.3-.1 0-.1-.1-.2-.1-2.3-1.3-4.7-2.5-6.9-3.8-2.7 2.1-5.5 4.1-8.3 6 .5 2.6 1 5.1 1.5 7.7 0 .2.1.3.2.5.3.6.9.9 1.7 1h.6c-2.6 1.3-4.9 2.8-7.3 4.2zm2.7-16.4c2.2-1.5 4.3-3 6.4-4.6-2.9-1.8-5.8-3.6-8.7-5.5.8 3.4 1.6 6.8 2.3 10.1z"/></g><g clip-path="url(#a)" transform="matrix(1.0068994 0 0 .92141432 -10.499754 -438.52673)"><path d="m213.6 660.1v54.9c7.4-1.6 14.2-2.5 20.2-2.7 1.1-.1 2.3-.1 3.3-.1l.3-28.2z" fill="#e20010"/></g><path d="m248.6 218.2c6.5-2-9.1-2.8-20.4-2.4l-23.8 4.5c-2.6.5-5.2 1.1-8 1.8 1.4 3.4 2.6 7 4.4 10.3 1.4 2.5 2.4 3.7 5.3 3.9 2.8.2 5.9-.3 8.6-.5 7.5-.6 16-1.9 22.9-5.2 3.2-1.5 4.6-3.6 3.6-7-2.3-8.1-8.3-.5 7.4-5.4z" fill="#009360"/></svg>