<svg height="263.773pt" viewBox="0 0 288 263.773" width="288pt" xmlns="http://www.w3.org/2000/svg" xmlns:xlink="http://www.w3.org/1999/xlink"><clipPath id="a"><path d="m0 0h302.5v267.495h-302.5z" transform="translate(-6.5557 -3.441)"/></clipPath><clipPath id="b"><path d="m0 0h192.261v258.389h-192.261z" transform="translate(-1.4448 3.6416)"/></clipPath><clipPath id="c"><path d="m0 0h205.408v265.592h-205.408z" transform="translate(90.5361 -2.1763)"/></clipPath><g clip-path="url(#a)"><path d="m76.711 25.4262 40.25-23.6855 34.522 31.3301s-11.024 24.0776-11.024 46.9951c0 0-.87 25.5281 7.542 50.1861 0 0-5.801 4.061-22.046.29 0 0-.341 20.27-16.826 26.109 0 0-26.2222 6.864-34.5215 24.367 0 0-2.3833-12.772-27.2686-21.466 0 0-21.8115-6.717-21.7568-27.849 0 0-10.1533 3.48-25.2383-3.192 0 0 24.2495-39.9617-.3438-97.865l33.9947-30.646z" fill="#161413" transform="translate(67.6142 45.9204)"/><path d="m0 25.3203 28.2256-25.3203 41.5312 24.419 39.8252-24.0034 29.055 26.5649s-19.249 42.3384-3.321 93.8085c0 0-5.81 3.113-20.961-3.528 0 0 2.49 23.867-16.1875 28.848 0 0-20.962 6.642-29.6792 19.509 0 0-3.7359-9.132-21.3765-14.943 0 0-29.0557-7.109-22.207-32.791 0 0-7.6792 6.018-23.8672 1.038 0 0 21.2212-35.127-1.0376-93.6017z" fill="#217844" transform="translate(73.9961 52.5429)"/><path d="m58.17 1.7915c8.6406.6318 9.1679 8.3247 9.1679 8.3247.3155 1.897 2.002 1.2647 2.002 1.2647-.7373-2.8452.6318-6.4283.6318-6.4283 10.96 7.5874 7.4824 13.6998 7.4824 13.6998l2.002 2.3178c-.1055-4.7417 2.4238-7.4814 2.4238-7.4814 7.7334 7.9297 4.1094 14.1206 4.1094 14.1206-.7383.9487-.21 1.7915-.21 1.7915.5274 1.0537 2.002 3.4775 2.002 3.4775.1055-1.5805 2.2129-2.5288 2.2129-2.5288 1.2637-.5268 3.372-1.897 3.372-1.897 3.1612 10.5381-1.206 13.8252-1.206 13.8252-.5273 1.0538.5732 4.4053.5732 4.4053l4.8487-1.8965c.8427 11.17-6.4287 12.1182-6.4287 12.1182-2.6348.7373-1.4756 2.8457-1.4756 2.8457l8.1142-.7383c-3.1621 8.1143-11.4863 8.7471-11.4863 8.7471-.7383.2099-1.0537 1.791-1.0537 1.791l6.8496 2.4238c-4.0039 7.166-13.5937 5.0586-13.5937 5.0586l-2.4239 2.4239c5.0586 1.3691 5.585 4.0039 5.585 4.0039-3.793 3.1611-10.2217.7373-10.2217.7373-2.2129-.5264-5.4795 2.0029-5.4795 2.0029 2.9502 3.583 4.1094 7.0605 4.1094 7.0605-7.0606.7373-12.0137-4.3212-12.0137-4.3212-1.791-1.6856-6.4277.4218-6.4277.4218.5273 1.791 3.3721 5.9014 3.3721 5.9014-7.1656 1.1592-11.065-5.585-11.065-5.585-2.3184-2.9511-4.8472-2.2129-4.8472-2.2129 2.2129 7.0606 1.4751 8.4297 1.4751 8.4297-8.3252-2.4228-7.9033-9.2734-7.9033-9.2734-.2109-3.4775-5.9009-5.374-5.9009-5.374.9483 8.2187-.5273 9.1679-.5273 9.1679-6.8496-5.163-5.374-13.2773-5.374-13.2773.3193-1.0752-.3164-1.4756-.3164-1.4756-.8853-.9219-1.2647.21-1.2647.21-2.4238 4.4267-3.8989 4.6377-3.8989 4.6377-6.4282-7.377-2.3184-14.9639-2.3184-14.9639.9483-2.8447-1.2641-3.6885-1.2641-3.6885-2.7403 3.794-4.6372 4.3203-4.6372 4.3203-3.7935-10.1162 1.581-13.0664 1.581-13.0664 1.0542-.7383 1.1587-1.581 1.1587-1.581.4214-1.6866-1.1587-.3164-1.1587-.3164l-4.8476 3.2666-1.3697-3.583c-2.5293-6.6387 7.271-9.5889 7.271-9.5889.8428-1.3701-.6323-.9487-.6323-.9487-5.269 1.4751-6.6387 3.6879-6.6387 3.6879l-.1054-.4208c-.5269-10.959 7.9033-12.0137 7.9033-12.0137 3.2666-.4214 3.6885-1.791 3.6885-1.791-2.3184 0-5.2691-1.0542-5.2691-1.0542-1.0537-.211-2.5293 0-2.5293 0 3.3721-9.6949 11.8028-6.3228 11.8028-6.3228 4.2153-.5268 3.1611-2.5293 3.1611-2.5293-4.6367-2.4233-7.9038-2.3183-7.9038-2.3183.6323-.4214 1.2651-1.7915 1.2651-1.7915 2.1074-5.2691 8.6406-3.2667 8.6406-3.2667s0 0 2.3189 1.0538c2.3184 1.0537 5.1636-.6324 5.1636-.6324-.1055-.7373-6.4287-3.7934-6.4287-3.7934 7.102-8.6367 16.3339-.4219 16.3339-.4219.9483.7378 3.3721-.3159 3.3721-.3159-4.7422-3.0557-1.686-8.4302-1.686-8.4302l4.8476 1.5806c7.166 2.4238 7.4825 6.0068 7.4825 6.0068.4482 1.9634 3.7929 1.1587 3.7929 1.1587-1.3701-2.0024-.2099-6.9546-.2099-6.9546zm23.9199 63.8604s.9482-.9493 0-2.003c0 0-4.5967-5.1943-1.4356-12.6767 0 0 .6944-.7266 1.752.5586 1.0986 1.334 1.0537 1.3701 1.0537 1.3701l.666.6504s-3.7021-5.5537-3.2998-10.5567c0 0 1.3701-1.0537 4.5313 1.1592 0 0 1.2646-2.1074-1.792-3.3721 0 0-6.6377-2.8447-7.7979-7.7978 0 0-.4209-1.4751 5.7959-.6323 0 0 .8438-2.4239-1.791-2.5293 0 0-6.8496 1.0537-10.0117-5.1636l4.7422-1.4756s.4218-1.4751-1.6856-1.0537c0 0-6.7441 2.9512-12.2236-1.5806 0 0-.8428-1.1591 1.0527-2.1074 1.8965-.9482 1.8965-.9482 1.8965-.9482s2.0029-.8433-.1045-1.2647c0 0-.7666-.4297-2.1074.8428 0 0-2.8457 2.3184-5.9014 2.2129 0 0-1.3701-.3159-2.8457.5268 0 0-1.2646-.7373.1055-2.9502l1.3701-2.4238s.8428-1.1592-1.8965-.7378c0 0-3.478 5.0581-9.2739 7.482 0 0-1.8965 1.2641-1.0537-1.1592 0 0 .3164-1.1592 0-2.8452 0 0-.211-1.2652-.1055-2.5293 0 0-3.2236 9.2173-10.0107 8.3252 0 0-.4214-.3164-.211-1.6861.211-1.3701.211-1.3701.211-1.3701l.2104-1.5806s.3955-1.248-.9482-.3164l-1.897 1.4756s.9483 6.1118-2.5288 10.6436c0 0-3.3726-.8428-4.1099-4.6367 0 0-1.2646.6323-.3164 2.5293 0 0 4.1128 5.0566-.7373 11.8022 0 0-.5268 1.0537-1.4756-.4214-.9482-1.4751-.9482-1.4751-.9482-1.4751s-2.0024-3.0561-3.0562-.7378c0 0-.5459 1.0767 1.1402 2.2359 0 0 4.4453 2.7168 3.4966 9.8828 0 0-2.5288 1.2637-6.7442-.8438 0 0-.4551 3.5889 1.6861 4.8477 0 0 8.3247 3.0557 8.2192 10.1162 0 0-1.5806 1.2656-6.4277-.6318 0 0 0 .9482 2.7397 1.4755 0 0 6.9551.9473 10.3272 6.5333 0 0-1.2647.9482-3.4776 1.2646 0 0-2.5469.1484-2.1074 1.0537 0 0 .2104.9483 1.897 0 0 0 6.7217-2.6572 11.8784 3.1611 0 0-.8135.6329-2.6055 1.5811-1.7915.9492-1.7915.9492-1.7915.9492l-1.1587.7373.4214.3164s8.1148-2.5293 14.5425-1.2646c0 0 .7075.2256.3159 1.1582 0 0-.7983 2.208-3.6885 3.7949 0 0 .1133.4629 1.6861.4209 0 0 3.8994-7.377 10.644-6.5342 0 0 2.4229-.1045 1.0537 2.4248 0 0-2.2617 3.6553-.6328 3.2657 0 0 1.2471.0595 1.3701-2.1075 0 0-.3154-2.8447 5.585-6.0068 0 0 1.498-.752 1.6865.3164 0 0 .5264 3.0557-.5273 5.2686 0 0 1.3701.6328 2.3183-1.8965 0 0-1.6855-4.9522 4.1094-9.4834 0 0 1.0518-.9414 1.2647-.3164.3242.9463.3164.9482.3164.9482l1.1591 3.0557s.4209 1.1592.9483.6318c0 0 .3047.1611.1054-2.4228 0 0-1.1591-7.587 2.2129-10.2217 0 0 .9287-.5821 2.3184 2.2119 0 0 .9482 2.2139 1.8965 2.5303z" fill="#161413" transform="translate(93.0893 88.3315)"/><path d="m118.532 239.632 86.077 23.037-8.094 4.359s-.467.467-2.49-.078-2.023-.545-2.023-.545-74.56-20.314-77.284-19.457c0 0-22.9592 14.865-54.0124-16.111 0 0 13.7368-.155 22.6479.779 0 0 .4668-.234.0777-.623-.3892-.389-.3892-.389-.3892-.389l-.7783-1.012s.1172-.506-1.4785-.545c-1.8692-.046-1.8677.078-1.8677.078s-34.6338 3.269-49.1094-29.73c0 0 1.4009-.233 2.7237.312 0 0 3.5024 1.245 7.7832 2.178 0 0 10.1171 2.18 13.1528 4.359 0 0 1.7119.856 1.4785.078-.2334-.779-.2334-.779-.2334-.779s-1.0117-4.28-7.7827-5.836c0 0-31.5205-4.047-34.8672-42.651 0 0 17.356 11.285 19.457 13.62 0 0 1.1675-2.335-2.4126-5.058-3.58-2.724-3.58-2.724-3.58-2.724s-25.3716-17.2-17.4336-45.841l1.5049-4.903s.1557-.623 1.1674.622c1.0118 1.246 1.0118 1.246 1.0118 1.246 5.8051 7.663 5.685 7.778 8.7685 13.075 0 0 .5449.622.7007-.156 0 0-21.2471-32.5317-.4673-57.1254 0 0 3.5801 9.6509 4.6699 17.122 0 0 1.7901-.1552.9336-4.0468-.8559-3.8916-.8559-3.8916-.8559-3.8916s-4.0469-18.0557-.7784-27.3174c0 0 3.8916-13.7754 15.7994-24.9829 0 0 1.8159 4.8515-1.4009 24.438 0 0 .0776 1.4008.9336.1557 0 0 .4673-.5449.6225-2.1015.1558-1.5562.1558-1.5562.1558-1.5562s5.0591-37.0464 37.2017-39.3032c0 0 1.5566-.4409.7006 1.0117 0 0-2.8798 5.915-2.5683 8.1978 0 0 18.1338-17.5372 35.9566-13.4898 0 0-9.651 17.978-28.5631 25.6831 0 0 1.7901 1.0117 9.8062.1558 0 0-7.3936 23.27-30.586 27.3174 0 0-3.8916 14.3979-6.5376 17.7446 0 0-8.7167 10.8179-9.1059 11.5962 0 0-.0776.623.7002.3115.7783-.3115.7783-.3115.7783-.3115l2.2573-1.3228s2.4126 12.2188-8.4834 31.5983c0 0-.1557.856.856-.234 0 0 2.5684-2.724 3.6582-2.724 0 0 3.1909 14.632.0776 34.4l.3116.155s1.2451-2.49 1.6342-2.723c0 0 18.1338 19.768 10.8179 45.684 0 0-.5444 1.09.3115 1.324 0 0 1.7124.856 2.2569 1.168 0 0 1.3232.466 1.0117-.545 0 0-1.1675-4.904-.6226-10.352 0 0 .7783-5.37 0-9.339 0 0-.3891-1.168 0-1.245 0 0-.0776-.934 1.7901 1.245 1.8681 2.179 1.8681 2.179 1.8681 2.179s15.9546 16.577 18.6787 41.249c0 0 1.6343 1.557 3.8135 1.4 0 0 .7783.235.0776-1.011 0 0-2.1791-4.826-3.1909-8.872 0 0-1.2451-5.215-2.4126-7.627 0 0-1.1674-1.635.3116-1.245 1.4785.388 1.4785.388 1.4785.388s29.9634 7.705 33.3884 39.537z" fill="#161413" transform="translate(-6.5557 -3.441)"/><path d="m58.7344 7.0049c-.8829-2.2832-.8819-3.7881-.8819-3.7881-.0517-1.2969.2588-1.2969.2588-1.2969 6.0186 1.4009 5.3965 8.1978 5.3965 8.1978.8037.5269 1.8164 1.1416 1.8164 1.1416.9336.7783 3.1123 1.6084 3.1123 1.6084s0 0 .6748.2075c.6738.2075-.1045-4.5659-.1045-4.5659s0 0-.0517-.9341c-.0508-.9336.208-.8818.208-.8818 5.8623 2.9575 4.0468 8.3535 4.0468 8.3535-.3115 1.5044.4151 1.9717.4151 1.9717.4668.415 3.7881 4.0468 3.7881 4.0468s0 0 .4668.6226.5703.2598.5703.2598c.2597-6.4859 1.1416-7.2642 1.1416-7.2642.3115-1.0381.9863.2598.9863.2598 4.8252 6.3301 1.2969 10.3769 1.2969 10.3769-.7783.8819.2597 2.3868.2597 2.3868.6768 1.3608 1.5479 3.2822 1.5479 3.2822.7178 1.8706 1.9277 2.8403 1.9277 2.8403 1.9727-4.4101 4.1514-4.7217 4.1514-4.7217.5195-.0517.5186 1.6602.5186 1.6602s0 0 .2597 3.3203c.2598 3.3208-2.6465 4.8257-2.6465 4.8257l.1563 3.165c.208 3.6328.5703 5.5.5703 5.5.5703 0 2.3867-1.7129 2.3867-1.7129 1.3496-1.0888 2.3867-.415 2.3867-.415.1553 7.1601-4.5136 7.6269-4.5136 7.6269-2.5948.3116-2.8535 2.1797-2.8535 2.1797l-.8829 4.3584c.4668-.1045 5.1368-1.0371 5.1368-1.0371s0 0 1.0898-.208.7266.4668.7266.4668c-2.2315 4.5654-7.0049 4.3584-7.0049 4.3584-3.2158.4668-4.877 5.3447-4.877 5.3447.2071.3633.9336.4141.9336.4141 1.6084-.1035 4.5664.7783 4.5664.7783s0 0 .8301.208.3106.6231.3106.6231c-.9854 3.372-9.7022 2.4902-9.7022 2.4902l-1.8164 1.3486s0 0-1.7637 1.2452c-1.7636 1.2451-2.4902 2.6982-2.4902 2.6982 5.1367.1045 5.7598 2.0752 5.7598 2.0752-1.6602 1.3496-4.9297.3115-4.9297.3115-1.2451-.3633-4.2032-.7265-4.2032-.7265-1.1933.9853-3.58 1.7119-3.58 1.7119s0 0-1.7119.623c-1.712.6231-1.4014.8819-1.4014.8819 3.7363 3.6318 3.9433 5.6035 3.9433 5.6035-6.33.5713-8.3525-4.5655-8.3525-4.5655-3.3721-.0517-8.458.9346-8.458.9346s0 0-.9858.0508c-.9859.0517-.3633.8828-.3633.8828l1.9199 3.7354s0 0 .3115.415c.3111.415-.0522.5195-.0522.5195-2.2827.3106-4.9287-3.4775-4.9287-3.4775s0 0-1.3492-1.6074c-1.3491-1.6084-2.854-1.6612-2.854-1.6612l-4.3061-1.0371s0 0-.8301-.3115c-.8306-.3105-.1558 1.1416-.1558 1.1416 2.6983 4.9297 2.0757 6.4854 2.0757 6.4854-4.5141-.8292-4.9809-8.2491-4.9809-8.2491 0-.7783-.9341-1.1426-.9341-1.1426-1.7642-1.0888-7.8867-5.1357-7.8867-5.1357 1.1411 6.2774.7265 8.1973.7265 8.1973-.0517.623-.3632.4668-.3632.4668-4.4624-3.4239-2.4385-9.0274-2.4385-9.0274.9858-1.7129-.5191-2.8535-.5191-2.8535-1.7641-1.6601-2.646-2.543-2.646-2.543-.7783-1.3496-1.2456-1.0898-1.2456-1.0898-.8818 6.2266-2.8535 5.9678-2.8535 5.9678-3.6841-4.0469-1.6601-9.9102-1.6601-9.9102 1.8159-3.5801-1.9717-8.8213-1.9717-8.8213-2.335 5.293-4.0469 4.3584-4.0469 4.3584-.8301-2.0752-.104-4.9287-.104-4.9287.207-1.8154 1.9717-2.6982 1.9717-2.6982 1.6084-1.1416 1.6601-3.8916 1.6601-3.8916l-.311-5.8623c-4.2549 6.5371-6.5376 5.0839-6.5376 5.0839-2.4907-3.165 1.6602-5.6035 1.6602-5.6035.6225-.4668 4.4624-2.8535 4.4624-2.8535 1.9716-1.1933 1.9712-3.7353 1.9712-3.7353s0 0 .1557-1.0381c.1558-1.0381-1.6601.104-1.6601.104-1.2452.7265-4.981 2.0234-4.981 2.0234s0 0-1.0381.2598c-1.0376.2593-.7261-.4155-.7261-.4155.9942-6.0547 8.6128-6.6929 8.6128-6.6929 1.8164-.4673 2.6465-2.1792 2.6465-2.1792.3633-1.3496 1.2969-2.2315 1.2969-2.2315.415-.7265 0-1.5043 0-1.5043-4.6699 2.0234-7.9385.2592-7.9385.2592 1.6084-4.9292 8.1978-2.8535 8.1978-2.8535 1.8681.3115 3.165-1.0893 3.165-1.0893.4668-.3633 1.6607-1.92 1.6607-1.92s0 0 .934-.934c.9336-.9341 1.5562-1.92 1.5562-1.92-7.5752-.2075-7.9902-2.1269-7.9902-2.1269 1.2973-3.5801 6.4853-1.8682 6.4853-1.8682 1.6602.5191 4.6182 1.4531 4.6182 1.4531 1.7124.3111 3.3203-1.038 3.3203-1.038.415-.4668 1.6606-.8819 1.6606-.8819.5191-.1035 1.4009-.7783 1.4009-.7783.7783-.3115-1.1416-.9858-1.1416-.9858-1.1934-.5708-5.2402-2.8018-5.2402-2.8018-.6226-.208-.4156-.3115-.4156-.3115 2.9576-3.9434 8.4058-.3628 8.4058-.3628s0 0 2.3345 1.1411c2.3349 1.1411 3.5801.7266 3.5801.7266 1.2973-.3111 3.269-.2598 3.269-.2598 1.5044-.0518 2.5425-.7778 2.5425-.7778-5.6553-4.2032-3.6836-7.0567-3.6836-7.0567 1.6084.7266 4.6694 1.7124 4.6694 1.7124 4.3589 1.2451 4.6177 4.7735 4.6177 4.7735.207.7783 1.2451 1.5044 1.2451 1.5044 2.542-.104 6.7969.6225 6.7969.6225.1562-.6225-.207-1.6079-.207-1.6079zm-3.753 3.5801s-5.7846-2.3272-7.2466.0664c0 0-1.3964 3.9228-5.6513 5.186 0 0-2.3936-1.9946.9975-6.3828 0 0-5.2529-.5322-6.8481 4.0552 0 0-1.2632 4.9199-4.4546 4.6543 0 0-.0664-1.5957.2661-3.125s.3325-1.5293.3325-1.5293.1997-.9966.1328-1.5952c0 0-7.5791 2.7256-8.0449 5.9834 0 0 1.9947 3.125-.4653 7.1806 0 0-2.127.3326-2.5928-5.7177 0 0-3.6562 2.3266-3.7231 5.1855 0 0-.1328 1.1304.7314 1.7285 0 0 2.6592 1.3965.3325 8.5767 0 0-1.1967-.1987-2.2602-2.1939l-1.9946-3.1914s-.5987 1.5293-1.1304 2.5264c0 0-1.9946 3.5903-.0664 5.7842 0 0 3.9888 2.7925 3.1909 7.5786 0 0-2.3267 1.3301-6.2495-3.8555l-.2656 6.25s-.2662 4.3213 2.9917 4.919c0 0 5.6508 1.4629 6.1162 6.7158 0 0-2.3267.9971-7.2466-3.3906 0 0 0 1.0625.7314 2.4589 0 0 .9976 1.3975.9976 3.1915 0 0 .0659 1.7958 2.1938 2.0615 0 0 3.3243-.0664 5.1856 1.0635 0 0 2.9917.8652 3.5903 2.6601 0 0-.1333 1.2627-6.6484.7969l3.3906 4.1894s.665 1.5284 2.7261.7305c0 0 3.5234-3.1904 9.3076.2002 0 0 .7979.1992.1992.5986-.5981.3985-.5981.3985-.5981.3985s-3.3242 1.5957-6.0503 1.9941c0 0 2.9922 3.5908 5.8511 3.1914 0 0 5.9165-2.9258 10.2382-1.4629 0 0 .731.1992-.1997.7979 0 0-2.3935 2.1279-5.0527 2.6601 0 0 2.2607.8643 3.6567 1.3291 1.396.4649 1.396.4649 1.396.4649s1.5293.334 2.8594.0674c0 0 1.7944-6.7159 7.7783-6.4493 0 0 .9317-.1337.4658.5987-.4658.7304-.4658.7304-.4658.7304s-1.9941 3.0586-2.5927 4.2559c0 0 4.1884.665 6.7148-1.1973 0 0 .8643-5.5175 3.9228-6.3818 0 0 1.0635.7305-.1328 3.3897 0 0-.9316 1.9287-.3994 2.8593 0 0 2.46-.333 6.4492-3.0586 0 0 .8643-1.2617.1329-2.2597 0 0-1.3301-2.6592.997-4.92l1.1309-1.2636s.5976-.5313.7969.4658c0 0 .666 2.2607.333 5.1855l4.4541-3.2578s.2002-2.3935-.0664-3.8564c0 0-.5977-3.3233.2002-4.7197 0 0 .7978-2.0616 1.5293-.6651 0 0 1.6611 2.5264 1.7949 4.2549 0 0 .4648.3984.8642-.1992.3985-.5987.3985-.5987.3985-.5987s1.2636-2.1269 1.9287-2.9248c0 0 .8642-1.4628-.3994-3.125-1.2637-1.6621-1.2637-1.6621-1.2637-1.6621s-1.1309-.7978-.8643-5.8506c0 0-.0664-1.3964.8643-.5322 0 0 1.0293.836 1.5293 1.5957 0 0 1.5967 2.5264 2.1279 2.8584 0 0 .5313-1.5293.7305-2.6592 0 0 .2002-1.5957.4658-1.9941 0 0-3.2773-3.8477-4.1885-8.3105 0 0-.331-1.2627 1.1973-.1993 1.5283 1.0635 1.5283 1.0635 1.5283 1.0635l2.9258 2.3262s.665-4.7207-1.2637-8.5098c0 0-7.0478-3.0576-8.7754-6.3154 0 0 .9307-1.1968 3.3243-.1997 0 0 2.3271.9966 2.9248.9306 0 0-.9307-2.5927-1.4629-3.9223 0 0-.5977-.5318-.6641-1.5957 0 0-.665-2.1939-2.1279-2.1275s-1.4629.0664-1.4629.0664l-2.9912.2657s-1.9727.311-3.125-1.396c0 0-.5635-.8296 0-.9971.665-.1968.665-.1992.665-.1992l4.3311-1.0684-3.666-4.0512s-1.1973-.2657-2.5928.1328c-1.3965.3989-1.3965.3989-1.3965.3989s-3.4902 1.5205-5.9834-.0659c0 0-.8633-.5147-.0664-1.064 0 0 1.9277-2.2607 5.9834-2.4599 0 0-.8643-1.1968-4.0557-2.1275 0 0-3.2636-1.2944-4.9199-.2661-1.2422.7715-1.8799 1.2778-1.8799 1.2778s-2.0429 1.7144-4.3691 1.3819c0 0-.9971.0659-.2656-1.1304 0 0 .9951-1.9287 2.3261-3.2578z" fill="#ffec00" transform="translate(95.3208 90.6269)"/><path d="m.0206.3042c.0039-.1894.0117-.3042.0117-.3042s-.0323.2315-.0117.3042z" fill="#161413" transform="translate(150.468 120.306)"/><path d="m47.5523 15.9541s-.836-4.9932-5.9141-5.7588l2.1787-3.5801s-2.1015-2.0235-3.2685-2.1792l-2.335 3.2685s-.8564-1.9453-.7783-3.9692c0 0 .2334-2.1011-.9336-3.7353 0 0-3.2695 3.2685-3.4248 3.58-.0537.107-.0781.1094-.0898.0708-.0049.3662.0136 1.0279.1679 1.7969.2334 1.1675.2334 1.1675.2334 1.1675l1.5567 6.8486.2334 1.4014s-.4668.8555-1.168.3887c0 0-.9336-1.3233-2.7236.4668 0 0-1.4014-2.335-2.1016-3.8135 0 0 .0781-1.0894-.7783-.7779-.856.3111-.856.3111-.856.3111s-2.1792.1557-1.9458.6225c.2339.4673.2339.4673.2339.4673s.2334 1.9453.2334 2.1016c0 0 .4668 1.6338-.856 1.167 0 0-1.0898-1.167-1.8681.3115 0 0-1.1675.9336-2.2569-1.2451l-.3891-1.168s-3.4243 2.8018-10.1177 1.7129l-.0781.8555s2.3349 4.8252-1.7119 5.8369c0 0-4.981.9346-4.0469-7.3936 0 0-1.1416.752-2.0239 2.8799 0 0-2.7237 6.2266 2.1792 9.3399 0 0 5.8374 2.5673 10.1958-5.8379 0 0 .6225-2.0235 2.5678-1.0117 0 0 2.024 1.4794 3.814.8564 0 0 1.0117-.8564 1.7119-.2334 0 0 1.2915.8564 3.0586-.3115 0 0 2.2339-1.0117 3.6343-.7783 0 0 .6846.1103 1.5654.2158.0703.0088.1475.0156.2197.0234l-1.1621 1.3174-2.4902-.6221-1.3232 1.2451 1.3232 1.4786s1.0117 0 1.3232-.3116l1.167-.9336s1.4786.6221 1.0118 1.4004c0 0-6.4595 4.9034-11.2852-.7783 0 0-1.3228 5.4483 1.0117 7.1602 0 0 1.7588 1.4013 5.0044.623l19.5112-9.4951s2.4405-1.0322 1.7901-4.9814zm-11.4404 4.748s-1.5567 1.0898-2.5684 1.3232c0 0-.0791-1.7607-1.8272-2.1689.8741.0986 1.8799.1816 2.6055.1455 0 0 2.4131.3887 4.4365-2.0234l.7002.622s-1.7119.8565-3.3466 2.1016zm3.1914-9.3394s-.7784-1.0117-.7012-2.8017c0 0 2.1015 1.1675 2.0244 1.8677z" fill="#161413" transform="translate(117.502 116.959)"/><path d="m33.4141 2.0239 1.7129-1.79s.3887-.2339.5449 2.4902c0 0 0 1.7901.7783 4.4361 0 0 3.1123 7.0044-1.2461 9.1841 0 0-.5058.1943-2.2959-.3897 0 0-1.9843-.9726-2.9961.4668 0 0-.7783 1.0127-2.4902-.5439 0 0-3.1133 2.3349-4.3584 1.3222 0 0-.9731-.622-2.335-.0771 0 0-2.3349 1.4004-3.6967-1.0508 0 0-2.1402.3496-2.7627.3496 0 0-3.0357 7.2383-7.9385 7.5498 0 0-6.3306-.4404-3.71-8.0166 0 0 .2603 1.6358.9859 2.8018 0 0 3.3467 5.8759 7.9384-1.167v-3.0352s4.2027.6221 7.316-1.4785c0 0 2.0234 3.3457 3.6577 2.1006 0 0 1.2451-1.6729 1.9848-.583 0 0 1.9454 1.0508 1.9068-1.2842-.0357-2.1074-.1558-2.1016-.1558-2.1016l-.0776-.8564s1.6806-.9551 1.9453.8564c.2334 1.5957.3896 1.8682.3896 1.8682s1.2452 3.8135 3.2686.7002c0 0 0-.8564.8555 0 0 0 1.1679 1.5566 2.2578.0781l.9336-1.2461zm11.4414 15.3321-2.1016 1.0117c-1.4013.7002-8.4052 4.5918-8.4052 4.5918s0 0-1.8682.9336c-1.8682.9346-5.6812 2.4912-5.6812 2.4912s0 0-2.4907.7002c-2.4902.7002-3.1133-.6231-3.1133-.6231-1.0893-.8554-1.0893-1.9453-1.0893-1.9453l.0776-1.5566c.1558-.7002.8565.0781.8565.0781 4.3813 2.374 10.4287-.9345 10.4287-.9345 3.3467-2.6456 11.3633-6.3819 11.3633-6.3819.0771-1.0117-2.0235-.7002-2.0235-.7002-2.1015.1553-1.9463-2.8799-1.9463-2.8799.4414-3.8134 3.5801-2.1787 3.5801-2.1787 4.8252 2.8018 2.4131 7.3936 2.4131 7.3936zm-3.1914-5.2149s0-.7783-.9336-.8554c0 0-1.168 1.79.0781 2.1006l.8555-.6221zm-10.2734 7.1602c.0781-.5449-.6221-.7002-.6221-.7002l-.1563.623c.3897.7002.7784.0772.7784.0772zm-4.2022.2334s.2334.7783.5449.4668c.3106-.3106.3106-.3106.3106-.3106s-.7002-.8564-.8555-.1562zm13.2305-13.6196.7002-1.4009c-.3106-1.3233-1.3223-.2334-1.3223-.2334l-.4678 1.2451z" fill="#ffec00" transform="translate(118.332 119.293)"/><path d="m1.1675 6.5376s3.269-3.7358 3.9692-6.5376l-4.125 4.5918s-1.0117.5449.1558 1.9458z" fill="#217844" transform="translate(28.5444 116.881)"/><g clip-path="url(#b)" fill="#217844"><path d="m0 14.7094s10.6626-14.5542 28.7187-14.7094c0 0-10.5068 14.3462-24.3603 19.8462 0 0-.4668-.8565 1.1675-3.6582 0 0 1.6343-2.5684.3115-2.335l-5.2148.9341z" transform="translate(70.8828 3.6416)"/><path d="m0 19.2231s16.188-6.5371 24.5933-17.1997c0 0 4.4365-1.8677 11.9077-2.0234 0 0-9.0278 22.6479-36.501 19.2231z" transform="translate(44.1103 30.4922)"/><path d="m0 23.8154s6.4077-20.5205 28.0181-23.8154c0 0-4.5142 15.8769-28.0181 23.8154z" transform="translate(42.7871 22.0088)"/><path d="m26.6948 0s-22.8814 5.7593-26.6948 32.3764c0 0 1.4008-.7006 2.3349-2.4907 0 0 3.3462-8.7944 15.0982-16.2656 0 0 9.3393-6.2266 9.2617-13.6201z" transform="translate(38.5845 9.4785)"/><path d="m14.3985 0s-14.3985 14.8648-8.25 37.3569c0 0 .5449-3.58 1.3232-5.0585 0 0 8.3277-15.5655 6.9268-32.2984z" transform="translate(15.7807 32.8271)"/><path d="m13.8535 0s-12.1416 9.7285-13.8535 27.084c0 0 1.7119-.7002 2.4126-1.7119 0 0 .7006-.4673.7783.5444.0776 1.0117.0776 1.0117.0776 1.0117s.0781 2.024.6226 1.5567c.5449-.4668.5449-.4668.5449-.4668s10.8184-9.4175 9.4175-28.0181z" transform="translate(25.2759 46.8359)"/><path d="m0 0v2.4907l4.0474-2.3349z" transform="translate(43.0981 54.0737)"/><path d="m1.9458 29.289s17.5371-13.4643 19.7163-29.0298c0 0-2.8276-.2592-9.6767 5.1109 0 0-4.6695 11.0771-11.5181 16.8364 0 0-.4673.0781-.1558 1.6343.3111 1.5566.3111 1.5566.3111 1.5566s.8564 3.1133 1.3232 3.8916z" transform="translate(29.686 57.0835)"/><path d="m12.1411 0s-12.1411 17.9004 3.4243 43.3501l.3116-1.6343s-3.3467-7.394-2.0235-15.7216c0 0 3.9693-14.7872-1.7124-25.9942z" transform="translate(.4487 74.2314)"/><path d="m11.4404 0s-11.4404 17.4331-6.771 31.6757l1.0117-1.79s1.3233.2334 2.2573 1.5566c0 0 .7784.9336 1.6343 1.4009 0 0 9.7285-10.3511 1.8677-32.8432z" transform="translate(13.9131 80.1465)"/><path d="m16.9663 0s.2334 20.0019-13.542 32.2207c0 0-3.4243-1.7901-1.4009-4.2026 0 0 3.7359-3.7359 4.2808-8.7168 0 0 .7002-10.5845 3.3467-13.542 0 0 2.3344-3.6578 7.3154-5.7593z" transform="translate(24.1084 86.9951)"/><path d="m1.8677 9.0283s1.5566-6.0703 1.5566-9.0283l-2.8799 6.7715s-.5444 1.0117.1558 1.5567c.7007.5449.7007.5449.7007.5449z" transform="translate(35.5493 149.568)"/><path d="m1.2452 37.5903.3891.3897s9.6509-13.542 5.2925-37.98c0 0-4.981 3.7358-6.9268 11.7519 0 0 2.9576 11.6744 1.2452 25.8384z" transform="translate(31.2685 116.803)"/><path d="m13.4644 33.544 2.1792 1.8681s4.2026-17.8232-7.8609-34.0888c0 0-1.0117-1.3233-1.4785.1552 0 0-6.3042 14.9434 5.3701 36.7354z" transform="translate(13.7573 115.636)"/><path d="m5.8628 0s-5.8628 26.2016 17.1997 41.56c0 0 .623-.7002-.3111-2.5683 0 0-2.5683-5.9151-3.7358-9.9619-1.1675-4.0469-1.1675-4.0469-1.1675-4.0469s-4.5137-18.4453-11.9853-24.9829z" transform="translate(-1.4448 115.792)"/><path d="m3.2168 0s13.8535 18.3672 7.3159 39.6143l-1.4009-.2334s-1.3056-8.0107-3.3725-13.2568c-2.0235-5.1368-2.231-5.5782-2.231-5.5782s-3.5283-6.9267-2.1792-13.1523z" transform="translate(39.8037 147.935)"/><path d="m4.8252 0s-4.8252 18.2891 12.6084 31.8311l-.4673-1.3233s-1.0117-1.7119 1.4009-1.0888l1.79.5449s1.0117.4668.7007-.7783c-.3115-1.2461-.3115-1.2461-.3115-1.2461s-3.4243-19.4571-15.7212-27.9395z" transform="translate(24.1084 155.873)"/><path d="m0 0s1.7124 6.1484 2.1792 8.7168c0 0 4.8252 16.1103 27.6289 23.5039l-6.771-8.3272s-1.8677-2.4902-2.646-4.5918c0 0-5.6035-11.4404-20.3911-19.3017z" transform="translate(9.6323 160.542)"/><path d="m.5449 0s15.7994 18.7569 16.1104 35.4121c0 0-1.8677-2.8799-8.0161-10.1953 0 0-8.6392-9.5732-8.1719-17.1221 0 0 .4668-4.1767.0776-8.0947z" transform="translate(58.5859 175.952)"/><path d="m0 0s5.7592 20.0019 24.5937 26.3056c0 0-1.4009-4.5136-1.3232-5.2148l1.79-.3106s-6.4595-9.7285-10.0395-12.7646c0 0-5.2925-5.292-15.021-8.0156z" transform="translate(46.6006 191.129)"/><path d="m40.2368 21.5586s-25.2939 3.1513-40.2368-21.4414c0 0 10.1953-.1172 21.1689 8.2099 0 0 15.021 10.7402 19.0679 13.2315z" transform="translate(30.4126 200.546)"/><path d="m34.3999 24.0488s-3.7358-17.9785-34.3999-24.0488c0 0 2.0235 15.4873 34.3999 24.0488z" transform="translate(74.1518 216.423)"/><path d="m26.6949 29.8857s-4.2027-22.3369-26.6949-29.8857c0 0 1.7119 10.0391 6.771 15.9541 0 0 8.1719 2.335 19.9239 13.9316z" transform="translate(80.9228 200.624)"/><path d="m40.3926 14.8653s-19.0679 7.2383-40.3926-12.0635c0 0 13.3863-2.8018 30.9756 7.627 0 0 .9336.9345 5.9146 2.4912 0 0 2.5683.5449 3.5024 1.9453z" transform="translate(62.2441 227.863)"/><path d="m1.79.7012 77.9839 20.5459s-1.6348 1.9462-3.9697 1.1679l-74.5591-19.9238s-1.2451.1553-.7778-1.0899c0 0 .0776-1.4013 1.3227-.7001z" transform="translate(111.042 238.837)"/></g><g clip-path="url(#c)"><path d="m165.477 53.2793-1.495-1.0357s-1.958-35.3276-35.674-43.6132l3.798 11.7378-.346.4604s-17.261-20.8286-35.3279-17.4917c0 0 1.3663 15.1577 20.8139 25.2847l-.561.3769s-2.417-1.0361-4.718-.6904c0 0 2.877 18.8721 30.955 29.5742v.5752s-1.957-.6904-1.265.6904c0 0 8.744 26.21 25.892 36.1333 0 0 .831 1.4151-.205 1.6451 0 0-8.854-7.5752-12.937-9.5923 0 0-3.43 20.836 16.363 40.398 0 0-.689 2.532-2.185 3.798 0 0-3.798-12.198-10.012-14.384 0 0-7.365 23.936 4.373 45.225 0 0-1.611 1.611-2.532 2.186 0 0-.691-2.764-.691-4.374 0 0-1.15-8.974-4.718-10.472 0 0-14.268 15.419-12.312 44.419 0 0-1.036 1.036-2.417.806 0 0 1.15-9.32-2.187-18.066 0 0-10.011 12.427-10.931 14.154 0 0-8.667 10.531-9.206 26.122 0 0-1.381-.001-1.956.345 0 0-1.381.576-2.302-.23 0 0 4.833-6.559 6.214-18.297 0 0-22.095 4.028-34.4075 36.248 0 0-.6309 3.544-2.8769 3.682l-58.2276 13.81s-23.4756 5.523-24.396 6.329c0 0 6.6743 4.717 8.4004 6.559l78.02-19.678s35.3396 13.934 54.5456-14.5c0 0-2.991-.23-3.221-.345 0 0-5.869-1.612-6.56-1.612 0 0 16.687-2.646 24.511-6.789 0 0 13.012-7.094 16.11-18.296 0 0-5.409-2.761-22.095 2.417 0 0-.689-.23.231-1.611.921-1.381.921-1.381.921-1.381l.805-1.496s11.047 2.647 28.769-14.039c0 0 10.472-8.631 11.507-23.475 0 0 .863-3.306.173-5.493 0 0-4.776 5.263-7.193 6.298 0 0-7.94 3.682-12.083 7.824 0 0-.69-1.495.116-2.761 0 0 .46-.575.46-1.151v-.344s7.135-.921 14.04-10.127c0 0 14.039-18.068 8.86-40.391 0 0-5.446 3.918-11.984 12.167 0 0-1.134-1.925-.904-3.537 0 0 21.979-21.519 2.762-52.7041 0 0-5.408 4.9487-6.56 14.3847 0 0-1.611.8052-.69-1.4961 0 0 14.039-33.372-13.233-57.5376 0 0-2.301 10.127-.231 23.3604z" fill="#161413" transform="translate(90.5361 -2.1763)"/><g fill="#217844"><path d="m27.707 17.9785s-14.0088-17.9785-27.707-15.4101c0 0 3.2685 13.6977 23.9717 21.4028l-1.9463-6.3823s1.1679-.4668 3.0351 0c0 0 1.7129.623 2.6465.3896z" transform="translate(191.438 2.3183)"/><path d="m0 0s22.3369 5.6812 27.4736 34.9449l-.4502-.1675s-4.7041-11.397-23.0722-23.0713c0 0-2.7832-2.6782-3.9512-11.7061z" transform="translate(223.97 11.8134)"/><path d="m28.0957 25.7612s-.0781-1.5566-.623-3.8916c0 0-.7002-2.1792 1.0898-1.7124 0 0-7.8603-16.9663-28.5625-20.1572 0 0 2.7744 12.1303 28.0957 25.7612z" transform="translate(218.211 24.9663)"/><path d="m0 0s11.4414 2.0235 13.4648 3.8135c0 0 13.9307 14.5542 25.294 19.457 0 0 1.2451.0782.5449 2.1016 0 0-28.1738-2.8018-39.3037-25.3721z" transform="translate(207.003 30.1806)"/><path d="m1.6348 1.1675s.2334-1.1675-1.6348-1.0894c0 0 .9717 1.1748 1.6348 1.0894z" transform="translate(244.906 59.2104)"/><path d="m15.6426 30.2749s1.79-4.9033-.6221-9.417c0 0-5.8369-16.7329-14.6318-20.8579 0 0-.3887 10.7402 1.2451 14.4756 0 0 1.79 4.7475 5.1367 8.5615l3.9697 5.292s.3887-2.4902 1.0889-2.8794c0 0 .3115.1558 2.2568 3.1128 0 0 .9346 1.79 1.5567 1.7124z" transform="translate(249.42 50.9609)"/><path d="m11.251 41.3267s5.1367-27.6289-10.585-41.3267c0 0-.666 3.5908 0 8.0161 0 0 .1563 1.7901.3116 3.814 0 0 0 5.9927 4.5136 14.6314 0 0 3.7364 6.9267 5.7598 14.8652z" transform="translate(257.782 34.539)"/><path d="m21.247 27.7847s1.6348-2.7242.545-4.3584c0 0-8.8721-11.752-11.752-17.9004 0 0-2.4121-1.7901-3.8916-2.8794 0 0-1.9717-1.9585-6.1484-2.6465 0 0 4.8261 17.2778 21.247 27.7847z" transform="translate(237.668 60.6113)"/><path d="m3.9785 0s15.4102 9.8843 7.7832 32.7656c0 0-.2392.3165-.9394-1.707 0 0-.5391-1.0947-1.3955-.0049-.8565 1.0894-.8565 1.0894-.8565 1.0894l-.8554 1.0893s-7.7149-14.0293-3.7364-33.2324z" transform="translate(259.061 84.8935)"/><path d="m3.2696 0s12.2187 23.1923-3.2696 40.3925c0 0 4.125-5.2925 2.335-22.0254 0 0-2.2568-13.542.9346-18.3671z" transform="translate(273.001 80.1465)"/><path d="m14.5108 30.1196s-4.67-10.2734-4.67-22.6479c0 0-1.6347-2.4908-3.6582-3.5801 0 0-3.0351-1.9458-4.9023-3.8916 0 0-1.2803 15.8183 13.2305 30.1196z" transform="translate(248.14 91.8203)"/><path d="m13.4112 0s9.6504 16.6548-5.0586 35.3335c0 0-1.7627-1.8926-3.6299-.7256 0 0-.5254.4424-.8369-.4912 0 0-3.8858-19.333 9.5254-34.1167z" transform="translate(255.077 122.173)"/><path d="m20.0605 0s3.0606 28.001-18.9785 40.5938c0 0-1.082.4434-1.0234-1.6797l.2343-.7783s6.4834-3.2412 10.0391-22.1807c0 0 1.3232-10.5068 9.7285-15.9551z" transform="translate(264.226 122.484)"/><path d="m8.1865 35.0225s-8.1865-12.6631-4.5918-35.0225c0 0 5.1367 2.9575 6.1484 14.2422 0 0-3.3466 12.5303-1.5566 20.7803z" transform="translate(247.304 121.239)"/><path d="m0 19.626 76.0059-18.4365s2.3789-1.1895 2.8545 1.3086l-76.4815 19.3877z" transform="translate(97.0864 238.656)"/><path d="m0 29.0225s7.9697-8.5635 19.2695-13.3213c0 0 5.9463-8.4453 5.9463-15.7012 0 0-19.3867 9.7539-25.2158 29.0225z" transform="translate(181.538 200.951)"/><path d="m0 15.2256s17.6524 6.3564 38.0625-10.586c0 0-9.872-4.6396-23.3135 3.6875 0 0-7.4931 5.4707-14.749 6.8985z" transform="translate(187.127 227.832)"/><path d="m0 1.3086 3.9258-.9512-3.2119-.3574z" transform="translate(210.441 227.119)"/><path d="m0 17.4844v1.0713s5.5908.3564 9.9922-.1201c0 0 21.8857-.5938 32.8281-17.3653 0 0 .1192-.7148-1.4277-.4765 0 0-13.7979-.5938-28.7842 13.4414 0 0-4.6387 4.9951-12.6084 3.4492z" transform="translate(213.89 204.877)"/><path d="m0 22.0039s1.125-8.5518 19.8642-17.2461c0 0 9.3975-4.7578 12.6084-2.0225 0 0-3.5068 9.2305-17.1279 17.0088 0 0-10.2324 5.9385-15.3447 2.2598z" transform="translate(179.396 216.772)"/><path d="m16.8213 14.2735s-11.7754 12.9658-14.2734 17.1289c0 0-2.5479-12.1719 14.3916-31.4024 0 0 .833 5.1153.3574 8.5645 0 0-.9512 4.2822-.4756 5.709z" transform="translate(209.916 181.801)"/><path d="m25.8115 0s-14.0361.4746-25.8115 22.2422c0 0 3.0283-.3067 0 4.5205l1.4072.1728s19.7657-6.0009 24.4043-26.9355z" transform="translate(215.199 193.22)"/><path d="m11.1513 0s-11.1513 13.4776-8.4453 37.4678c0 0 .4756.4756.9512.2373 0 0 1.4277-9.7529 6.0664-17.0088 0 0 7.9707-12.4892 1.4277-20.6963z" transform="translate(234.022 152.897)"/><path d="m17.6045 0s-15.2959 8.709-17.6045 27.5947c0 0 3.4502-1.1894 3.331.4756-.1191 1.666 0 .2383 0 .2383l-.1191 1.4277s15.583-9.6348 14.3926-29.7363z" transform="translate(242.437 161.699)"/><path d="m31.1631 0s-7.0176 3.6865-8.6827 4.8769c0 0-6.0664 3.6885-12.1328 14.5118 0 0-4.2822 7.8505-10.3476 11.2998 0 0 4.5185 2.1406 19.1494-9.5157 0 0 12.3701-9.7539 12.0137-21.1728z" transform="translate(246.125 165.624)"/></g></g></g></svg>