<svg height="580" viewBox="0 0 500 580" width="500" xmlns="http://www.w3.org/2000/svg" xmlns:xlink="http://www.w3.org/1999/xlink"><clipPath id="a"><path d="m500 330v-330h-500v330c0 138.071 111.929 250 250 250s250-111.929 250-250z"/></clipPath><g clip-path="url(#a)" stroke="#111" stroke-width="4"><path d="m0 145h250v145h-250z" fill="#0a66aa"/><path d="m0 290h250v145h-250z" fill="#fdda2a" stroke-linecap="round" stroke-linejoin="round"/><path d="m0 0h250v145h-250z" fill="#cc3026"/><path d="m0 435h250v145h-250z" fill="#cc3026"/><path d="m250 290h250v290h-250z" fill="#0a66aa"/><path d="m250 0h250v290h-250z" fill="#cc3026"/></g><g clip-path="url(#a)"><g stroke="#111" stroke-width="3"><path d="m464 580-22-152h-144l-22 152h74v-104a20 20 0 0 1 40 0v104z" fill="#fafafa"/><path d="m340 580v-104a30 30 0 0 1 60 0v104" fill="none"/><g fill="#fafafa"><path d="m340 332h60v90h-60z"/><path d="m446 402-2 16h-14v-16h-12v16h-12v-16h-12v16h-48v-16h-12v16h-12v-16h-12v16h-14l-2-16h-12l4 32h168l4-32z"/><path d="m399 310-2.667 16h-16.333v-16h-20v16h-16.333l-2.667-16h-15l4 24h80l4-24z"/></g></g><g fill="#111"><path d="m353 352h10v20h-10z"/><path d="m310 456h16v24h-16z"/><path d="m377 352h10v20h-10z" transform="matrix(-1 0 0 -1 764 724)"/><path d="m414 456h16v24h-16z" transform="matrix(-1 0 0 -1 844 936)"/></g><path d="m332.143 247.665c-1.458 0-7.9-2.962-9.6-3.939l-16.5.531a5.142 5.142 0 0 1 -2.905.806 6.06 6.06 0 0 1 -5.315-2.789 5.472 5.472 0 0 1 -1.183.123c-2.7 0-5.622-1.649-5.706-4.706 0-2.9 3.059-7.384 6.5-8.34a5.7 5.7 0 0 1 1.565-.192 12.069 12.069 0 0 1 4.188.826 11.646 11.646 0 0 1 5.583-1.957h.2a6.237 6.237 0 0 1 3.26 1 2.82 2.82 0 0 0 1.195.479 15.789 15.789 0 0 0 3.759-1.344 23.749 23.749 0 0 1 6.4-2.12c3.85-3.91 7.469-7.075 10.671-9.876 5.284-4.622 9.1-7.962 9.052-10.536-.069-2.7-1.812-4.727-3.829-7.077-2.841-3.307-6.376-7.423-5.748-14.8 1.208-13.122 13.768-21.376 36.325-23.876l22.294-3.09.695 33.813-4.623.117c-4.32 0-10.81 0-14.756 2.424-1.153.713-6.848 4.538-5.507 9.836.137.579.543.713 2.289.766 1.494.046 3.352.1 4.444 1.66l.157.225.021.274c.464 6.048-5.156 9.165-10.115 11.915l-.384.213a5.224 5.224 0 0 1 2.1 2.948c.244.793.522 1.692 2.526 3.671l.94.928-1.148.653a6.551 6.551 0 0 1 -3.276.871 6.823 6.823 0 0 1 -1.8-.244 11.658 11.658 0 0 0 .949.705l1.439.961-1.553.766a7.508 7.508 0 0 1 -3.306.7 8.842 8.842 0 0 1 -3.948-.916 5.648 5.648 0 0 0 2.145 2.61l1.824 1.175-2.079.624a12.883 12.883 0 0 1 -3.683.573 7.6 7.6 0 0 1 -7.684-5.267 21.459 21.459 0 0 0 -7.63 6.731 9.529 9.529 0 0 1 .94 5.259c-.009.314-.019.624-.019.932v.289l-.155.245a3.842 3.842 0 0 1 -3.131 1.6 3.374 3.374 0 0 1 -.588-.051l-.265-.048-.2-.174a4.606 4.606 0 0 0 -1.837-.856l-.223-.078a2.717 2.717 0 0 0 -1.672 1.576 2.108 2.108 0 0 0 -.25 1.534 1.152 1.152 0 0 1 .246 1.274 1.127 1.127 0 0 1 -1.089.643z" fill="#fdda2a"/><path d="m391.362 157.925.651 31.693-3.628.092c-4.371 0-11.068 0-15.254 2.572-2.233 1.378-7.348 5.421-5.953 10.932.651 2.756 5.209.368 6.883 2.756.465 6.063-6.046 8.911-11.348 11.943 4.744 3.215 1.209 2.939 5.767 7.441a5.589 5.589 0 0 1 -2.78.74 7.464 7.464 0 0 1 -6.124-3.828c-.125-.223-.256-.449-.4-.679q.191.354.4.679c1.272 2.271 1.838 4.2 4.718 6.119a6.573 6.573 0 0 1 -2.865.6c-2.37 0-4.948-1.037-5.785-3.264.372 3.124 1.3 5.42 3.441 6.8a11.86 11.86 0 0 1 -3.4.532 6.69 6.69 0 0 1 -7.021-5.676 22.526 22.526 0 0 0 -9.488 8.084c1.488 2.3 1.116 4.318 1.116 6.247a2.861 2.861 0 0 1 -2.286 1.138 2.335 2.335 0 0 1 -.411-.036 6.79 6.79 0 0 0 -2.6-1.194c-2.325.184-3.72 3.675-2.79 4.777.167.191.13.274-.062.274-1.194 0-8.371-3.236-9.333-3.949l-17.114.552a4.047 4.047 0 0 1 -2.562.795c-2.12 0-4.438-1.2-4.694-3.092a3.473 3.473 0 0 1 -1.8.427c-2.049 0-4.638-1.207-4.707-3.734 0-2.481 2.791-6.523 5.767-7.349a4.733 4.733 0 0 1 1.3-.156 10.179 10.179 0 0 1 4.283.982 11.063 11.063 0 0 1 5.488-2.112h.2c2.183 0 3.1 1.473 4.455 1.473 1.953 0 7.348-3.4 10.6-3.49 10.79-11.024 20.371-16.628 20.278-21.4-.186-7.257-10.6-9.738-9.581-21.772 1.3-14.147 16.371-20.853 35.439-22.966l21.208-2.94m1.953-2.29-2.228.309-21.181 2.936c-23.068 2.562-35.927 11.126-37.182 24.768-.664 7.807 3.022 12.1 5.984 15.548 1.971 2.3 3.528 4.109 3.588 6.458.041 2.1-4.015 5.644-8.711 9.752-3.146 2.752-6.694 5.855-10.477 9.676a26.5 26.5 0 0 0 -6.332 2.155 18.99 18.99 0 0 1 -3.369 1.261 4.66 4.66 0 0 1 -.7-.352 7.289 7.289 0 0 0 -3.748-1.121c-.078 0-.157 0-.236 0a12.266 12.266 0 0 0 -5.652 1.846 13.226 13.226 0 0 0 -4.079-.716 6.694 6.694 0 0 0 -1.856.235c-3.872 1.075-7.209 6-7.209 9.27v.055c.1 3.688 3.531 5.679 6.706 5.679q.343 0 .669-.032a7.309 7.309 0 0 0 5.829 2.7 6.246 6.246 0 0 0 3.209-.815l15.968-.514c2.149 1.165 8.141 3.931 9.832 3.931a2.1 2.1 0 0 0 1.773-3.326 2.56 2.56 0 0 1 .557-1.258 1.655 1.655 0 0 1 .426-.383c1.084.375 1.139.408 1.409.637l.41.347.528.095a4.4 4.4 0 0 0 .765.067 4.82 4.82 0 0 0 3.976-2.069l.31-.489v-.58c0-.3.01-.6.02-.9a10.97 10.97 0 0 0 -.772-5.18 20.776 20.776 0 0 1 5.959-5.432 8.679 8.679 0 0 0 8.186 4.857 13.856 13.856 0 0 0 3.971-.616l4.158-1.247-3.513-2.262a10.635 10.635 0 0 0 1.124.059 8.533 8.533 0 0 0 3.751-.806l3.1-1.533-1.06-.708a7.693 7.693 0 0 0 2.245-.846l2.3-1.305-1.88-1.856c-1.825-1.8-2.052-2.541-2.272-3.255a5.638 5.638 0 0 0 -1.357-2.452c4.794-2.678 10.284-6.085 9.8-12.407l-.042-.546-.314-.449c-1.38-1.967-3.7-2.038-5.232-2.086a8.959 8.959 0 0 1 -1.373-.106c-1.077-4.574 4.043-8 5.087-8.646 3.7-2.274 10.022-2.274 14.2-2.274h.051l3.627-.092 1.99-.051-.041-1.99-.651-31.693-.046-2.249z" fill="#111"/><path d="m309.938 237.87a6.2 6.2 0 0 0 -2.745 4.944c-.081 2.632 3.391 5.343 6.621 5.263 4.2-.079 9.2-2.312 8.962-7.814" fill="#fdda2a" stroke="#111" stroke-width="2"/><path d="m312.256 251.25a7.885 7.885 0 0 1 -2.4-8.479l.078-.2.149-.147a9.25 9.25 0 0 1 2.2-1.475 8.646 8.646 0 0 0 1.412-.867l1.241-1.037.374 1.572c.1.411.543.772 1.059 1.19a5.982 5.982 0 0 1 1.447 1.5l.187.306-.052.355a9.982 9.982 0 0 1 -4.563 7.346l-.588.357z" fill="#fafafa"/><path d="m314.336 240.853c.309 1.3 1.93 1.83 2.625 2.973a9.056 9.056 0 0 1 -4.092 6.633 6.95 6.95 0 0 1 -2.084-7.319c1-.991 2.548-1.449 3.551-2.287m1.188-3.633-2.47 2.1a8.134 8.134 0 0 1 -1.243.754 10.061 10.061 0 0 0 -2.431 1.645l-.3.295-.155.389a8.96 8.96 0 0 0 2.716 9.639l1.086.842 1.176-.712a10.961 10.961 0 0 0 5.035-8.057l.1-.711-.373-.614a6.915 6.915 0 0 0 -1.665-1.756 4.105 4.105 0 0 1 -.724-.671l-.749-3.143z" fill="#111"/><path d="m333.154 250.739a29.564 29.564 0 0 0 -3.631-6.5l-.481-.691.6-.592a18.057 18.057 0 0 1 2.949-2.135 11.531 11.531 0 0 0 1.584-1.094l.992-1.962.789 2.1a5.5 5.5 0 0 0 1.3 1.461c.221.2.441.4.644.6l.138.137.076.176c1.256 2.9-.758 6.657-3.4 8.877l-1.035.87z" fill="#fafafa"/><path d="m335.03 240.236a9.25 9.25 0 0 0 2.169 2.4c1.041 2.4-.781 5.742-3.124 7.713a30.583 30.583 0 0 0 -3.731-6.685c1.388-1.371 4.338-2.742 4.686-3.428m.2-4.83-1.877 3.71c-.262.2-.851.575-1.3.855a18.706 18.706 0 0 0 -3.121 2.27l-1.2 1.184.962 1.382a28.689 28.689 0 0 1 3.532 6.324l1.058 2.491 2.071-1.742c2.922-2.459 5.122-6.7 3.671-10.04l-.154-.356-.276-.272c-.212-.209-.441-.418-.672-.629a6.273 6.273 0 0 1 -1.049-1.1l-1.651-4.078z" fill="#111"/><path d="m299.579 247.269a6.473 6.473 0 0 1 -1.06-7.559l.087-.141.127-.1a4.639 4.639 0 0 1 2.92-1.089 3.87 3.87 0 0 1 3.546 2.253l.143.3-.061.323c-.4 2.12-1.822 3.532-3.079 4.777-.419.415-.814.808-1.134 1.191l-.714.858z" fill="#fafafa"/><path d="m301.653 239.375a2.875 2.875 0 0 1 2.646 1.688c-.465 2.48-2.7 3.95-4 5.512a5.5 5.5 0 0 1 -.93-6.339 3.62 3.62 0 0 1 2.284-.861m0-2a5.636 5.636 0 0 0 -3.555 1.317l-.255.21-.174.282a7.515 7.515 0 0 0 1.189 8.777l1.548 1.609 1.429-1.714c.289-.346.668-.722 1.069-1.119a10.152 10.152 0 0 0 3.361-5.306l.121-.645-.285-.592a4.854 4.854 0 0 0 -4.448-2.819z" fill="#111"/><path d="m292.58 244.645a7.1 7.1 0 0 1 -1.055-5.279 3.366 3.366 0 0 1 1.71-2.222l.106-.055.115-.028a4.122 4.122 0 0 1 .99-.123 3.266 3.266 0 0 1 3.3 2.64l.08.4-.22.34a15.264 15.264 0 0 1 -1.893 2.33 6.318 6.318 0 0 0 -1.373 1.832l-.725 1.737z" fill="#fafafa"/><path d="m294.446 237.937a2.264 2.264 0 0 1 2.319 1.84c-1.3 2.021-2.7 2.756-3.349 4.317-1.209-1.837-1.674-5.052.279-6.063a3.171 3.171 0 0 1 .751-.094m0-2a5.14 5.14 0 0 0 -1.23.153l-.23.056-.21.109a4.341 4.341 0 0 0 -2.218 2.858 8.139 8.139 0 0 0 1.188 6.081l2.068 3.143 1.448-3.473a5.6 5.6 0 0 1 1.179-1.532 16.443 16.443 0 0 0 2.005-2.472l.441-.683-.162-.8a4.246 4.246 0 0 0 -4.278-3.443z" fill="#111"/><path d="m388.152 178.906c-2.448-2.8-4.142-5.009-5.5-6.785-3.976-5.188-5.464-7.129-16.372-11.88l-2.427-1.057 2.52-.812a24.511 24.511 0 0 1 7.539-1.306c5.8 0 9.75 2.7 13.574 5.316 3.461 2.366 7.04 4.811 12.145 5.411l.407.048 8.261 10.282-19.819 1.151z" fill="#fdda2a"/><path d="m373.907 158.066c10.6 0 14.509 9.417 25.6 10.72l6.79 8.451-17.393 1.011c-9.488-10.84-7.256-12.4-22.231-18.924a23.559 23.559 0 0 1 7.232-1.258m0-2a25.467 25.467 0 0 0 -7.845 1.354l-5.042 1.622 4.856 2.115c10.671 4.648 12.116 6.533 15.978 11.572 1.371 1.788 3.077 4.014 5.547 6.836l.644.736.977-.056 17.393-1.011 3.873-.225-2.429-3.024-6.79-8.452-.513-.638-.813-.1c-4.86-.57-8.181-2.84-11.7-5.243-3.949-2.7-8.033-5.49-14.139-5.49z" fill="#111"/><path d="m415.134 269.144a7.6 7.6 0 0 1 -1.134-.084c-2.672-.453-5.533-1.241-6.783-4.657a7.339 7.339 0 0 1 -4.217 1.197c-2.783 0-5.88-1.3-7.151-4.1a4.749 4.749 0 0 1 -2.346.561 6.522 6.522 0 0 1 -4.6-1.923 6.778 6.778 0 0 1 -1.8-5.052v-.107l.026-.1c1.448-5.943 7.916-6.575 9.2-6.643h.014c.956 0 3.641.122 5.155 1.432a12.768 12.768 0 0 1 5.207-1.156 14.229 14.229 0 0 1 4.565.815 15.545 15.545 0 0 1 4.557-1.785c4.769-7.007 5.71-15.868 2.159-20.778l-.034-.047-.028-.051c-1.577-2.819-6.85-3.837-12.432-4.913-7.1-1.37-15.149-2.923-19.485-8.562-6.713-8.584-3.524-17.647-.709-25.642 1.707-4.85 3.319-9.429 2.479-13.244-1.585-7.26-10.908-14.248-19.926-21.006-3.71-2.781-7.549-5.658-10.914-8.585-9.848-8.583-19.194-24.628-13.122-41.605l.07-.193 12.725-13.703 48.226.851-.01.993a64.95 64.95 0 0 1 -2.061 13.974 61.733 61.733 0 0 0 -1.939 12.586c-.271 12.4 5.715 21.378 17.6 34.586 6.472 7.119 10 15.585 8.378 20.124a4.649 4.649 0 0 1 -3.027 2.977c.772 4.7-.579 9.235-1.887 13.631-1.208 4.058-2.35 7.892-1.92 11.785.916 2.985 8.584 12.323 15.367 12.323a6.479 6.479 0 0 0 5.038-2.407l.562-.636.719.453c3.918 2.47 2.417 8.167 1.424 11.937-.165.628-.325 1.235-.437 1.747a9.955 9.955 0 0 1 4.009 2.685 8.4 8.4 0 0 0 1.355 1.138 9.629 9.629 0 0 0 3.7.531h2.382l-.614 1.4a6.422 6.422 0 0 1 -2.958 3.361c.518.087.979.154 1.35.209l1.9.278-1.321 1.4c-1.44 1.525-3.028 3.019-5.257 3.471a6.943 6.943 0 0 0 2.763.722h1.587l-.685 1.432c-1.535 3.21-7.066 3.556-9.373 3.556a19.94 19.94 0 0 1 -2.218-.115c-.483 1.347-.832 2.367-1.107 3.174a14.667 14.667 0 0 1 -1.7 3.9c2.5 3.95 3.3 7.271 2.372 9.879-.731 2.054-2.491 3.527-5.235 4.377a11.362 11.362 0 0 1 -3.48.569 8.165 8.165 0 0 1 -5.939-2.358 10.744 10.744 0 0 1 -9.04 5.398z" fill="#fdda2a"/><path d="m357.039 90.22 46.787.827c-.093 9.646-3.814 17.363-4 26.549-.279 12.77 5.953 22.048 17.859 35.276 8.185 9 11.72 20.67 4.93 21.68 2.047 9-4.65 17.547-3.627 26.366.941 3.361 9.1 13.124 16.352 13.124a7.5 7.5 0 0 0 5.786-2.744c4.371 2.756.558 10.932.372 13.688 2.6 0 4.65 3.124 6.046 3.859a9.894 9.894 0 0 0 4.169.646h.853c-.889 2.031-2.342 3.34-4.6 3.34a11.743 11.743 0 0 1 -5.725-1.962c2.232 2.48 6.976 3.215 9.487 3.582-1.781 1.885-3.431 3.3-5.932 3.3a10.5 10.5 0 0 1 -4.114-1c2.233 1.011 5.395 3.583 8.279 3.583-1.129 2.36-5.382 2.989-8.47 2.989a14.773 14.773 0 0 1 -2.878-.233c-2.14 5.879-1.954 6.247-3.349 8.176 3.907 5.879 4.558 11.3-1.953 13.32a10.381 10.381 0 0 1 -3.185.523 6.653 6.653 0 0 1 -6.21-3.463c-.934 3.94-5.274 6.5-8.783 6.5a6.572 6.572 0 0 1 -.983-.072c-3.256-.551-5.767-1.562-6.419-5.7-.755 1.455-2.674 2.228-4.732 2.228-3.013 0-6.322-1.657-6.708-5.259-.14 1.1-1.345 1.723-2.79 1.723a5.4 5.4 0 0 1 -5.4-5.949c1.209-4.961 6.511-5.787 8.278-5.879 1.3 0 4.093.275 4.93 1.745.651-.643 3.163-1.47 5.395-1.47a13.172 13.172 0 0 1 4.651.919s3.255-1.929 5.023-1.929c5.4-7.625 6.139-17.179 2.418-22.323-3.906-6.982-24.37-3.675-32-13.6-10.418-13.321 4.279-27.927 1.953-38.492-2.325-10.656-19.44-19.934-31.16-30.132-11.069-9.645-18.324-25.17-12.836-40.512zm-.858-2.015-.608.655-12.273 13.229-.279.3-.138.386a34.833 34.833 0 0 0 .21 23.741 46.592 46.592 0 0 0 13.195 18.953c3.394 2.953 7.247 5.841 10.974 8.634 8.87 6.648 18.042 13.522 19.546 20.417.78 3.54-.786 7.989-2.444 12.7-2.9 8.238-6.187 17.575.87 26.6 4.556 5.926 12.8 7.517 20.078 8.92 5.347 1.032 10.4 2.006 11.749 4.42l.057.1.068.094c3.2 4.429 2.324 12.758-1.947 19.284a16.841 16.841 0 0 0 -4.057 1.607 15.149 15.149 0 0 0 -4.468-.73 14.366 14.366 0 0 0 -5.083 1 10.182 10.182 0 0 0 -5.242-1.274h-.051-.052c-4.071.212-8.866 2.268-10.118 7.4l-.05.207-.006.212a7.692 7.692 0 0 0 2.083 5.777 7.446 7.446 0 0 0 5.312 2.227 6.3 6.3 0 0 0 1.9-.279 9.448 9.448 0 0 0 11.36 3.028c1.541 2.87 4.357 3.77 7.059 4.227a8.656 8.656 0 0 0 1.317.1 11.965 11.965 0 0 0 9.279-4.864 9.433 9.433 0 0 0 5.714 1.824 12.4 12.4 0 0 0 3.8-.619c3.039-.943 5.017-2.625 5.858-4.991.991-2.787.273-6.217-2.136-10.211a18.258 18.258 0 0 0 1.466-3.585c.228-.669.5-1.451.842-2.43.481.032 1 .05 1.537.05 3.1 0 8.557-.536 10.274-4.127l1.369-2.862h-2.784a16.712 16.712 0 0 0 2.832-2.506l2.642-2.8-2.862-.418a8.911 8.911 0 0 0 1.435-2.318l1.227-2.8h-3.438-.474a8.159 8.159 0 0 1 -3.237-.416 9.46 9.46 0 0 1 -1.136-.981 12.955 12.955 0 0 0 -3.512-2.6c.071-.277.147-.566.222-.852 1-3.806 2.682-10.177-1.858-13.039l-1.437-.905-1.126 1.271a5.53 5.53 0 0 1 -4.289 2.07c-5.918 0-13.409-8.613-14.384-11.528-.378-3.661.727-7.37 1.895-11.294 1.27-4.266 2.579-8.66 2.029-13.289a5.654 5.654 0 0 0 2.869-3.267c1.967-5.515-2.83-14.808-8.584-21.137-11.705-13-17.6-21.82-17.339-33.887a60.986 60.986 0 0 1 1.914-12.388 65.706 65.706 0 0 0 2.086-14.185l.019-1.984-1.984-.035-46.787-.827-.893-.016z" fill="#111"/><path d="m430.453 269.9c-.977-3.252-1.834-6.314-1.571-8.039l.034-.228.132-.191a4.086 4.086 0 0 1 3.374-1.834 4.229 4.229 0 0 1 3.231 1.572l.214.251.024.328c.289 4.193.2 5.823-3.571 9.344l-1.182 1.105z" fill="#fafafa"/><path d="m432.422 260.6a3.243 3.243 0 0 1 2.471 1.22c.279 4.042.186 5.329-3.256 8.544-.651-2.2-2.046-6.523-1.767-8.36a3.107 3.107 0 0 1 2.552-1.4m0-2a5.077 5.077 0 0 0 -4.2 2.265l-.263.381-.07.458c-.293 1.929.59 5.11 1.6 8.475l.224.751.917 3.106 2.37-2.211c3.955-3.695 4.2-5.61 3.885-10.142l-.045-.658-.428-.5a5.219 5.219 0 0 0 -3.993-1.923z" fill="#111"/><path d="m398.97 270.374c-1.555-1.407-2.06-4.258-2.014-6.457.023-1.124.233-3.868 1.673-5.066l.129-.108.156-.058a7.574 7.574 0 0 1 2.732-.522 7.423 7.423 0 0 1 1.226.1l.838.137v.849a9.563 9.563 0 0 0 .324.944 7.616 7.616 0 0 1 .695 2.992l-.022.29-.174.231a48.32 48.32 0 0 0 -2.84 4.447c-.415.706-.815 1.385-1.2 2.008l-.634 1.011z" fill="#fafafa"/><path d="m401.646 259.163a6.536 6.536 0 0 1 1.063.089c0 .643 1.117 2.664 1.024 3.858-1.581 2.113-2.884 4.594-4.093 6.523-2.232-2.021-2.139-8.544-.372-10.013a6.615 6.615 0 0 1 2.378-.457m0-2a8.557 8.557 0 0 0 -3.088.587l-.312.118-.257.214c-1.692 1.408-2 4.245-2.033 5.811-.025 1.174.071 5.166 2.342 7.222l1.769 1.6 1.268-2.022c.394-.629.8-1.315 1.218-2.028a47.551 47.551 0 0 1 2.781-4.358l.348-.465.045-.578a8.47 8.47 0 0 0 -.757-3.421c-.091-.244-.212-.567-.261-.733v-1.558l-1.675-.275a8.506 8.506 0 0 0 -1.388-.116z" fill="#111"/><path d="m389.356 266.026c-1.285-1.269-1.609-3.744-1.484-5.636.065-.968.357-3.327 1.678-4.325l.155-.117.188-.051a8.062 8.062 0 0 1 2.117-.272 11.094 11.094 0 0 1 1.125.06l.9.088v.907c.012.1.141.5.235.785a7.119 7.119 0 0 1 .5 2.614l-.027.3-.187.234c-.859 1.074-1.645 2.255-2.405 3.4-.443.667-.87 1.308-1.284 1.886l-.682.955z" fill="#fafafa"/><path d="m392.01 256.625c.345 0 .686.021 1.026.055 0 .551.837 2.3.744 3.307-1.395 1.745-2.6 3.766-3.72 5.328-1.768-1.745-1.489-7.257.093-8.451a7.02 7.02 0 0 1 1.857-.239m0-2a9.049 9.049 0 0 0 -2.377.307l-.375.1-.31.235c-1.592 1.2-1.982 3.683-2.073 5.055-.068 1.025-.141 4.518 1.779 6.415l1.669 1.648 1.364-1.908c.427-.6.852-1.237 1.3-1.913.748-1.126 1.522-2.289 2.353-3.329l.375-.469.055-.6a7.958 7.958 0 0 0 -.55-3.013c-.065-.2-.15-.464-.186-.6v-1.687l-1.8-.178a12.208 12.208 0 0 0 -1.222-.065z" fill="#111"/><path d="m410.9 271.77a8.04 8.04 0 0 1 -2.024-8.805c.536-1.162 1.769-2.574 4.587-2.691l.536-.022.316.436a11.577 11.577 0 0 0 1.083 1.252 7.617 7.617 0 0 1 1.524 2.034l.132.282-.052.307a9.987 9.987 0 0 1 -4.97 7.325l-.607.333z" fill="#fafafa"/><path d="m413.5 261.273c.931 1.286 1.954 1.929 2.512 3.124a9.068 9.068 0 0 1 -4.465 6.614 7.04 7.04 0 0 1 -1.767-7.625c.465-1.01 1.488-2.021 3.72-2.113m.991-2.042-1.073.044c-3.5.144-4.921 2.114-5.455 3.275a8.981 8.981 0 0 0 2.281 9.978l1.051.9 1.214-.667a11.11 11.11 0 0 0 5.475-8.035l.1-.614-.264-.565a8.512 8.512 0 0 0 -1.706-2.3 11.139 11.139 0 0 1 -1-1.151l-.63-.87z" fill="#111"/><path d="m309.232 69.3a2.5 2.5 0 0 1 -1.674-.619 2.942 2.942 0 0 1 -1-2.126 3.014 3.014 0 0 1 1.393-2.971 7.005 7.005 0 0 0 .3-3.416l-.288-2.509 1.927 1.628c.082.069.222.157.4.272 1.071.7 3.062 2.013 3.307 4.131a5.53 5.53 0 0 1 -.792 4.1 4.237 4.237 0 0 1 -2.981 1.467 5.4 5.4 0 0 1 -.592.043z" fill="#fafafa"/><path d="m309.239 60.052c.54.456 3.119 1.715 3.355 3.755s-.008 4.134-2.89 4.458a4.129 4.129 0 0 1 -.472.035 1.5 1.5 0 0 1 -1.029-.382 1.969 1.969 0 0 1 -.658-1.476 2.133 2.133 0 0 1 1.206-2.2 8.147 8.147 0 0 0 .488-4.188m-2.588-4.8.6 5.034a6.549 6.549 0 0 1 -.151 2.7 4.309 4.309 0 0 0 -.189 6.468 3.507 3.507 0 0 0 2.32.855 6.066 6.066 0 0 0 .695-.047 5.194 5.194 0 0 0 3.651-1.837 6.435 6.435 0 0 0 1-4.839c-.3-2.584-2.631-4.117-3.752-4.854-.132-.087-.244-.158-.32-.216l-3.858-3.259z" fill="#111"/><path d="m307.186 77.612a5.2 5.2 0 0 1 -4.025-1.588 6.532 6.532 0 0 1 -1.436-4.525c-.193-3.064.21-5.113 1.228-6.262a2.978 2.978 0 0 1 2.113-1.012 13.228 13.228 0 0 0 1.356-.145 4.466 4.466 0 0 1 .654-.068 2.219 2.219 0 0 1 1.591.793 12.383 12.383 0 0 0 3.715 1.97 3.881 3.881 0 0 1 2.959 3.675c0 .15.013.317.026.5.122 1.708.374 5.263-6.407 6.5a9.969 9.969 0 0 1 -1.774.162z" fill="#fdda2a"/><path d="m307.076 65.012c.3 0 .475.118.908.523a13.175 13.175 0 0 0 4.152 2.209 2.869 2.869 0 0 1 2.2 2.715c.014 1.569 1.049 4.8-5.559 6a9.008 9.008 0 0 1 -1.6.155c-4.918 0-4.458-5.111-4.458-5.111-.212-3.257.221-6.16 2.394-6.279 1.145-.062 1.624-.21 1.955-.21m0-2a5.155 5.155 0 0 0 -.805.079 11.931 11.931 0 0 1 -1.26.134 3.963 3.963 0 0 0 -2.806 1.348c-1.2 1.349-1.681 3.615-1.482 6.927a7.451 7.451 0 0 0 1.7 5.2 6.181 6.181 0 0 0 4.762 1.913 10.94 10.94 0 0 0 1.954-.188c6.791-1.232 7.429-4.681 7.226-7.547-.011-.158-.023-.3-.024-.436a4.881 4.881 0 0 0 -3.714-4.635 11.651 11.651 0 0 1 -3.278-1.732 3.193 3.193 0 0 0 -2.273-1.062z" fill="#111"/><path d="m332.583 117.414c-1.718-1.921-1.421-6.715-.5-9.507l-.247.028a11.451 11.451 0 0 1 -1.264.093 3.9 3.9 0 0 1 -2.576-.867 16.178 16.178 0 0 0 -5.071 5.139l-.658 1.2-.944-.994c-2.076-2.186-2.466-6.179-1.225-9.307-.072.032-.143.065-.213.1-1.989.888-4.713 2.1-7.381 2.1a7.276 7.276 0 0 1 -2.979-.6l-2.016-.9 2.008-.921c1.725-.792 4.642-3.438 4.657-4.225l-.014-.116.015-.105c.105-.9-4.128-2.4-5.721-2.968-.716-.254-1.4-.5-1.989-.729-1.933-.626-4.575-2.5-6.906-4.145a30.709 30.709 0 0 0 -3.469-2.266 4.946 4.946 0 0 1 -2.47.618 13.758 13.758 0 0 1 -4.166-.909 13.677 13.677 0 0 0 -2.95-.749c-.133.011-.278.017-.435.017a7.205 7.205 0 0 1 -4.167-1.29 6.786 6.786 0 0 1 -3.159-4.52 6.926 6.926 0 0 1 .96-5.468c.22-.3.558-.749.972-1.219a7.432 7.432 0 0 1 -1.393-4.237 5.761 5.761 0 0 1 1.221-4.449c.208-.278.4-.556.594-.828a8.148 8.148 0 0 1 4.283-3.633 8.686 8.686 0 0 1 2.765-.489 8.543 8.543 0 0 1 2.753.494 5.576 5.576 0 0 1 5.062-2.787 5.755 5.755 0 0 1 3.2.927l.2.129a31.443 31.443 0 0 1 4.226 3.143c2.2 2.258 1.646 4.292 1.242 5.777a3.189 3.189 0 0 0 -.191 1.72c1.1 3.045 5.677 4.456 9.019 5.487.468.144.913.282 1.326.415a103.889 103.889 0 0 1 10.678 3.474c2.951.958 8.573 2.423 13.534 3.716l2.437.636 23.5 6.285 4.715 7.607-9.802 16.809-.273.132a2.053 2.053 0 0 1 -.926.17c-3.357 0-17.843-4.2-19.2-4.6-.873.312-4.364 3.892-5.395 6.332l-.614 1.454z" fill="#fdda2a"/><path d="m295.961 59.971a4.783 4.783 0 0 1 2.649.761 33.479 33.479 0 0 1 4.257 3.137c2.857 2.933.11 5.154.827 7.139 1.433 3.972 7.435 5.362 10.976 6.513a103.683 103.683 0 0 1 10.621 3.454c3.541 1.151 10.563 2.943 16.084 4.388l23.106 6.181 4.19 6.76-9.338 16.033a1.229 1.229 0 0 1 -.489.069c-3.012 0-16.673-3.892-19.017-4.589a.4.4 0 0 0 -.143-.024c-1.229 0-5.257 4.355-6.356 6.955-1.677-1.877-.945-8.159.32-9.851a4.7 4.7 0 0 0 -.686-.048c-.826 0-1.621.179-2.389.179a2.954 2.954 0 0 1 -2.388-1.066c-1.863.726-4.931 3.655-6.136 5.857-2.217-2.333-2.327-7.487.26-10.361a.775.775 0 0 0 -.174-.018c-1.439 0-5.691 2.958-9.63 2.958a6.237 6.237 0 0 1 -2.57-.514c1.528-.7 5.411-3.709 5.234-5.238.244-2.094-5.277-3.539-8.337-4.744-3.423-1.113-9.5-6.533-10.853-6.533a.353.353 0 0 0 -.123.019 3.833 3.833 0 0 1 -2.235.651c-2.314 0-4.938-1.524-7.13-1.662a3.844 3.844 0 0 1 -.423.021 6.156 6.156 0 0 1 -3.6-1.118c-3.119-1.716-3.651-6.305-1.965-8.561a10.651 10.651 0 0 1 2.166-2.311l-.961.109c-1.079-.912-1.256-2.442-1.434-3.972a4.788 4.788 0 0 1 1.028-3.732c1.265-1.692 2.049-3.33 4.392-4.11a7.648 7.648 0 0 1 2.448-.439 9.221 9.221 0 0 1 3.436.809c.129-1.823 2.226-3.1 4.381-3.1m0-2a6.745 6.745 0 0 0 -5.513 2.609 8.83 8.83 0 0 0 -2.3-.316 9.659 9.659 0 0 0 -3.08.541 9.085 9.085 0 0 0 -4.783 4.005c-.186.265-.376.535-.579.806a6.76 6.76 0 0 0 -1.412 5.159 9.757 9.757 0 0 0 1.116 4.089c-.2.255-.373.482-.5.658a8.241 8.241 0 0 0 2.438 11.416 8.234 8.234 0 0 0 4.727 1.46c.149 0 .293 0 .431-.014a13.9 13.9 0 0 1 2.644.7 14.474 14.474 0 0 0 4.478.959 6.048 6.048 0 0 0 2.462-.5c.712.414 1.947 1.287 2.9 1.962 2.366 1.674 5.045 3.569 7.17 4.28.6.235 1.266.47 1.969.72 1.4.495 4.2 1.488 5 2.206a13.258 13.258 0 0 1 -4.017 3.357l-4.013 1.843 4.033 1.8a8.229 8.229 0 0 0 3.385.688 16.315 16.315 0 0 0 6.052-1.436 9.687 9.687 0 0 0 2.033 8.235l1.888 1.987 1.316-2.405a15.664 15.664 0 0 1 4.168-4.42 5.014 5.014 0 0 0 2.6.669h.184c-.672 3.062-.654 7.114 1.08 9.055l2.1 2.355 1.23-2.909a18.578 18.578 0 0 1 4.635-5.632c2.829.821 15.725 4.511 19.038 4.511a3.027 3.027 0 0 0 1.364-.271l.547-.266.306-.526 9.344-16.037.6-1.039-.633-1.022-4.19-6.76-.418-.674-.765-.2-23.106-6.18-2.407-.628c-4.931-1.285-10.517-2.74-13.519-3.712a106.787 106.787 0 0 0 -10.76-3.5c-.394-.127-.816-.258-1.258-.394-3.141-.968-7.443-2.294-8.373-4.87a4.16 4.16 0 0 1 .216-1.118 6.215 6.215 0 0 0 -1.492-6.738 30.51 30.51 0 0 0 -4.385-3.276l-.2-.131a6.753 6.753 0 0 0 -3.755-1.1z" fill="#111"/><path d="m301.081 64.868a3.927 3.927 0 0 1 -3.711-2.652l-.2-.25.49-1.456.026-.055a8.3 8.3 0 0 0 .339-4.148l-.288-2.505 1.927 1.624c.044.036.124.093.228.168 4.9 3.526 4.5 6.49 3.3 8.355l-.073.115-.1.092a2.86 2.86 0 0 1 -1.943.712z" fill="#fafafa"/><path d="m299.022 56.189c.54.456 5.681 3.561 3.336 7.222a1.874 1.874 0 0 1 -1.276.458 2.878 2.878 0 0 1 -2.783-2.111v.015l.3-.886a9.862 9.862 0 0 0 .429-4.7m-2.589-4.8.6 5.036a7.5 7.5 0 0 1 -.246 3.6l-.053.11-.038.114c-.342 1.013-.536 1.589-.3 2.2a4.267 4.267 0 0 0 1.6 2.333l.952 1.326.218-.646a4.978 4.978 0 0 0 1.922.409 3.849 3.849 0 0 0 2.609-.967l.2-.182.148-.231c1.168-1.825 2.26-5.512-3.561-9.706-.082-.059-.148-.106-.192-.14l-3.857-3.259z" fill="#111"/><path d="m273.376 82.691c-.127-1.087 2.129-3.635 2.151-3.662 1.273-1.429 3.273-3.129 5.567-3.129a4.59 4.59 0 0 1 2.462.725l.06.038.055.046a3.3 3.3 0 0 1 1.114 3.04 4.487 4.487 0 0 1 -2.232 3.375l-.156.075-.169.02c-.261.029-.653.041-1.112.041-.438 0-.945-.01-1.452-.02s-.986-.019-1.413-.019c-.366 0-.679.006-.887.029l-3.873.435z" fill="#fafafa"/><path d="m281.093 76.9a3.583 3.583 0 0 1 1.932.573c1.619 1.368.473 4.08-.91 4.752-.234.026-.585.035-1 .035-.867 0-2-.039-2.869-.039a9.814 9.814 0 0 0 -1 .035l-2.883.324c-.05-.431 3.182-5.68 6.724-5.68m0-2c-2.662 0-4.9 1.884-6.307 3.464-.777.872-2.566 3.051-2.4 4.447l.229 1.98 1.981-.223.653-.074 2.23-.251c.061-.007.258-.022.774-.022.422 0 .908.009 1.395.019.514.01 1.028.02 1.474.02a11.28 11.28 0 0 0 1.221-.048l.342-.038.309-.151a5.456 5.456 0 0 0 2.788-4.151 4.331 4.331 0 0 0 -1.462-3.927l-.109-.092-.121-.075a5.567 5.567 0 0 0 -2.993-.878z" fill="#111"/><path d="m283.467 69.53a4.435 4.435 0 0 1 -3.331-1.474 20.726 20.726 0 0 0 -4.357-2.83l-1.753-.691 1.554-1.064a9.738 9.738 0 0 1 5.457-1.875 7.992 7.992 0 0 1 2.578.431 4.371 4.371 0 0 1 3.251 2.819c.231.851.2 2.194-1.259 3.767a2.638 2.638 0 0 1 -2.14.917z" fill="#fafafa"/><path d="m281.038 62.6a6.964 6.964 0 0 1 2.255.377c2.521.75 3.718 2.681 1.552 4.991a1.653 1.653 0 0 1 -1.379.566 3.364 3.364 0 0 1 -2.583-1.153 21.725 21.725 0 0 0 -4.738-3.082 8.742 8.742 0 0 1 4.893-1.7m0-2a10.7 10.7 0 0 0 -6.023 2.049l-3.108 2.13 3.5 1.381a19.7 19.7 0 0 1 4 2.6 5.5 5.5 0 0 0 4.052 1.773 3.62 3.62 0 0 0 2.9-1.266 4.891 4.891 0 0 0 1.465-4.68 5.408 5.408 0 0 0 -3.931-3.517 8.985 8.985 0 0 0 -2.863-.471z" fill="#111"/><path d="m292.021 165.32a9.866 9.866 0 0 1 -9.379-6.2 1.386 1.386 0 0 1 -.082-.233 2.946 2.946 0 0 1 -.4.028 8.193 8.193 0 0 1 -3.67-1.425l-.312-.177a10.57 10.57 0 0 1 -4.633-7.407 8.968 8.968 0 0 1 2.032-7.3 7.669 7.669 0 0 1 2.451-2.1 7.287 7.287 0 0 1 -.167-5.9c.72-1.8 2.812-4.878 8.734-5.247 2.83.083 4.331 1.795 5.537 3.169a5.509 5.509 0 0 0 2.14 1.809 6.721 6.721 0 0 0 1.987.3c3.552 0 7.048-2.666 9.6-4.613l.614-.465c2.962-2.1 5.845-4 8.635-5.827 3.762-2.471 7.316-4.8 10.885-7.5 8.03-5.91 20.552-15.909 20.678-16.009l1-.8 9.607 20.99-.436.487c-2.948 3.292-4.613 5.454-5.387 6.993a8.649 8.649 0 0 0 -.3 3.365c.118 2.563.252 5.468-5.064 9.425l-1.625 1.21.028-2.026c.007-.462.023-.892.036-1.3.094-2.589.128-3.529-2.511-4.413 1.142 3.746.861 8.4-3.206 11.392l-1.594 1.173v-1.98c0-3.144-.964-4.807-3.253-5.383 1.719 4.234-.316 8.279-3.433 10.633l-1.714 1.295.113-2.145a4.346 4.346 0 0 0 -.9-3.158 2.151 2.151 0 0 0 -1.65-.658 6.207 6.207 0 0 0 -2.679.772c-.41.272-.948.606-1.539.971a25.056 25.056 0 0 0 -4.267 3.014 13.961 13.961 0 0 1 -.582 4.364 4.914 4.914 0 0 1 -3.149 3.477 8.175 8.175 0 0 1 -3.177.511c-1.48 0-4.215-.256-5.888-1.975a15.147 15.147 0 0 1 -1.249-1.675 3.676 3.676 0 0 1 -1.942.83l-1.9.194c.209 3.177-.42 4.523-2.433 7.151a6.18 6.18 0 0 1 -4.4 2.311c-.399.032-.784.052-1.156.052z" fill="#fdda2a"/><path d="m347.294 101 8.8 19.23c-3.05 3.4-4.762 5.641-5.565 7.271-1.5 4.279 2.185 7-5.036 12.376.057-4.134.861-5.763-5.124-7.22 1.867 3.938 1.916 9.092-2.149 12.084 0-4.644-2.132-6.492-6.034-6.613 2.882 4.352.9 8.68-2.255 11.063.123-2.344-.876-4.868-3.549-4.868a7.185 7.185 0 0 0 -3.182.906c-1.818 1.216-6.417 3.746-6.311 4.767a12.646 12.646 0 0 1 -.539 4.182c-.322 1.58-1.348 2.223-2.621 2.845a7.446 7.446 0 0 1 -2.738.409c-1.778 0-3.929-.395-5.171-1.672a26.018 26.018 0 0 1 -1.709-2.407c-.909.608-1.337 1.167-2.3 1.265l-2.887.292c.371 3.574 0 4.644-2.144 7.44a5.225 5.225 0 0 1 -3.69 1.921c-.371.033-.728.048-1.073.048a8.945 8.945 0 0 1 -8.47-5.616 6.921 6.921 0 0 1 0-2.182s-.523 1.214-.912 1.33a1.69 1.69 0 0 1 -.479.066 8.636 8.636 0 0 1 -3.491-1.472c-4.166-2.674-5.817-9.214-2.339-13.178a7.679 7.679 0 0 1 3.155-2.383c-2.189-2.358-2.028-9.956 7.172-10.529 3.9.121 4.807 4.157 7.318 4.935a7.68 7.68 0 0 0 2.284.342c4.2 0 8.141-3.26 10.816-5.28 6.792-4.815 13.209-8.56 19.521-13.327 8.129-5.982 20.7-16.025 20.7-16.025m.753-3.162-2 1.6c-.126.1-12.633 10.088-20.637 15.978-3.563 2.69-7.1 5.016-10.853 7.478-2.8 1.836-5.687 3.735-8.639 5.827l-.025.018-.024.018-.614.467c-2.44 1.861-5.781 4.409-9 4.409a5.611 5.611 0 0 1 -1.692-.253 5.174 5.174 0 0 1 -1.683-1.512c-1.263-1.44-2.993-3.412-6.165-3.511h-.093l-.093.006c-6.472.4-8.793 3.853-9.6 5.874a8.605 8.605 0 0 0 -.159 5.88 8.7 8.7 0 0 0 -1.987 1.883 9.959 9.959 0 0 0 -2.227 8.05 11.565 11.565 0 0 0 5.034 8.079l.048.03.049.028.308.175a9.532 9.532 0 0 0 3.913 1.548 10.766 10.766 0 0 0 10.114 6.41c.407 0 .826-.019 1.247-.055a7.183 7.183 0 0 0 5.1-2.7c1.95-2.548 2.714-4.04 2.675-6.861l.969-.1a4.283 4.283 0 0 0 1.567-.463 10.007 10.007 0 0 0 .806 1.011c1.929 1.981 4.966 2.277 6.605 2.277a9.672 9.672 0 0 0 3.616-.612 5.976 5.976 0 0 0 3.674-4.109 15.527 15.527 0 0 0 .629-4.24 36.014 36.014 0 0 1 3.78-2.554c.56-.347 1.092-.675 1.515-.954a5.086 5.086 0 0 1 2.177-.64 1.151 1.151 0 0 1 .925.346 3.471 3.471 0 0 1 .627 2.418l-.225 4.289 3.427-2.589a10.54 10.54 0 0 0 4.389-9.272 5.852 5.852 0 0 1 .695 3.224v3.959l3.189-2.347a10.042 10.042 0 0 0 4.107-7.282c-.008.25-.015.51-.018.78l-.056 4.051 3.25-2.419c5.742-4.274 5.588-7.6 5.466-10.273a7.9 7.9 0 0 1 .224-2.934 38.422 38.422 0 0 1 5.206-6.71l.874-.975-.545-1.192-8.8-19.23-1.066-2.329zm-4.486 39.419c-.012-.26-.032-.521-.059-.781a4.889 4.889 0 0 1 .059.781z" fill="#111"/><path d="m282.938 134.234a3.416 3.416 0 0 1 -1.452-.3l-.245-.115-.153-.221c-.15-.215-.281-.432-.413-.649a4.564 4.564 0 0 0 -.928-1.2c-.949-.821-1.39-1.261-1.652-1.522-.3-.3-.3-.3-1.2-.749l-2.067-1.037 1.284-.969a8.264 8.264 0 0 1 4.9-1.531 6.494 6.494 0 0 1 6.531 4.408l.087.262-.061.272c-.464 2.072-2.767 3.354-4.635 3.354z" fill="#fafafa"/><path d="m281.015 126.937a5.533 5.533 0 0 1 5.583 3.724 3.867 3.867 0 0 1 -3.659 2.573 2.435 2.435 0 0 1 -1.03-.208 8.827 8.827 0 0 0 -1.507-2.036c-2.671-2.31-1.121-1.435-3.686-2.723a7.331 7.331 0 0 1 4.3-1.33m0-2a9.281 9.281 0 0 0 -5.5 1.734l-2.567 1.939 2.874 1.444.636.318c.373.185.695.346.773.4.037.033.087.087.162.162.272.271.728.726 1.7 1.57a3.728 3.728 0 0 1 .725.964c.142.234.285.468.447.7l.308.443.489.229a4.412 4.412 0 0 0 1.876.4c2.252 0 5.037-1.581 5.61-4.135l.122-.543-.176-.527a7.457 7.457 0 0 0 -7.48-5.092z" fill="#111"/><path d="m308.883 162.16 1-.1-1 .1a28.13 28.13 0 0 1 -.139-5.653 4.49 4.49 0 0 1 1.323-5.03 1.888 1.888 0 0 1 1.48-.769 2.018 2.018 0 0 1 1.29.509c2.471 1.637 2.877 5.164 2 7.676l-.028.083-.044.076c-1.379 2.452-3.449 3.871-4.782 4.007l-.994.1z" fill="#fafafa"/><path d="m311.547 151.7a1.091 1.091 0 0 1 .692.313c2.083 1.337 2.4 4.4 1.651 6.54-1.231 2.189-3.05 3.405-4.012 3.5a26.683 26.683 0 0 1 -.1-5.665 3.533 3.533 0 0 1 1.02-4.23.968.968 0 0 1 .751-.46m0-2a2.877 2.877 0 0 0 -2.2 1.075 5.517 5.517 0 0 0 -1.621 5.827 31.022 31.022 0 0 0 .166 5.66l.2 1.984 1.985-.2c1.883-.19 4.167-2.045 5.554-4.511l.086-.153.058-.166c1-2.855.51-6.885-2.347-8.812a2.993 2.993 0 0 0 -1.883-.7z" fill="#111"/><path d="m287.357 170.834c-1.377-.778-4.393-4.888-4-8.461.172-1.591 1.09-3.706 4.481-4.745a2.313 2.313 0 0 1 .8-.139 3.28 3.28 0 0 1 2.5 1.387 5.728 5.728 0 0 1 1.338 4.211l-.014.066-.022.065a4.779 4.779 0 0 1 -1.321 1.782 3.315 3.315 0 0 0 -.826 1.015l-.02.056-.026.055a16.573 16.573 0 0 0 -1.4 3.787l.2 1.926z" fill="#fafafa"/><path d="m288.637 158.489c1.675 0 3.146 2.962 2.854 4.4-.376 1.07-1.766 1.726-2.141 2.8a14.975 14.975 0 0 0 -1.5 4.28c-1.55-.876-7.261-9.068.277-11.379a1.427 1.427 0 0 1 .51-.095m0-2a3.442 3.442 0 0 0 -1.147.2c-4.074 1.27-4.964 4.038-5.132 5.579-.439 4.04 2.915 8.538 4.508 9.438l3.373 1.905-.383-3.684a18.557 18.557 0 0 1 1.288-3.357l.053-.109.04-.114a4.571 4.571 0 0 1 .582-.63 5.667 5.667 0 0 0 1.559-2.166l.045-.129.027-.134a6.717 6.717 0 0 0 -1.543-5.044 4.3 4.3 0 0 0 -3.27-1.753z" fill="#111"/><path d="m269.764 155.285 1-.1-1 .083c-.534-5.162 1.994-7.2 3.634-7.971a5.257 5.257 0 0 1 3.136-1.212c.9 0 3.075.375 3.915 3.855a2.907 2.907 0 0 1 -.325 2.566 5.121 5.121 0 0 1 -3.6 2.068l-.1.011-.1-.012a5.566 5.566 0 0 0 -.575-.03 8.655 8.655 0 0 0 -4.429 1.473l-1.379.922z" fill="#fafafa"/><path d="m276.533 147.083c1.3 0 2.423.938 2.943 3.09.693 1.993-1.606 3.258-3.05 3.4a6.322 6.322 0 0 0 -.684-.036 9.581 9.581 0 0 0 -4.983 1.642c-.106-1.021-.58-5.36 3.16-7.027a4.357 4.357 0 0 1 2.614-1.073m0-2a6.186 6.186 0 0 0 -3.658 1.353c-1.892.921-4.7 3.259-4.107 8.935l.343 3.3 2.76-1.826a7.561 7.561 0 0 1 3.871-1.3 4.483 4.483 0 0 1 .468.024l.209.023.209-.021a6.085 6.085 0 0 0 4.336-2.525 3.989 3.989 0 0 0 .435-3.425c-.715-2.841-2.529-4.534-4.866-4.534z" fill="#111"/><g stroke="#111" stroke-width="2"><path d="m422.793 174.552c4.344 7.027 9.122 7.888 15.894 8.367 14.467 1.023 22.316-6.819 23.752-15.838 1.016-5.389.95-18.34 8.8-20.736s8.08-8.252 8.08-8.252c-4.848 2.476-8.106 1.773-8.106 1.773 7.131-6.092 7.336-19 7.336-19a14.386 14.386 0 0 1 -8.541 5.19s1.422-7.889-10.959-24.193c3.592-4.315 3.654-6.672 10.189-10.7a16.013 16.013 0 0 0 7.772-14.215c-2 2-6.248 2.556-6.248 2.556-.708-19.326 7.326-22.36 5.248-31.624s-7.157-9.023-9.234-12.936-1.232-6.149-1.232-6.149c-10.927 5.031-13.082 14.693-10.85 23.318s10.773 8.145 10.158 20.523c-.5 10.148-2.262 15.9-9.822 24.177-13.7-17.2-13.387-23.914-14.755-32.695-1.415-9.078 6.185-10.568 2.261-23.185s-13.467-13.5-13.467-13.5c2.078 5.75-6.079 12.777-6.958 21.851s12.189 11.694 12.651 17.763 4 19.246 4 19.246a10.247 10.247 0 0 1 -8.08-.639c2.308 10.142 11 8.385 14.929 12.5.963 1.01 2.329 2.455 3.886 4.234-.115.11-.217.211-.335.322-12.608 11.862-13.453 20.2-13.453 20.2-4.694-.4-8.357-7.183-8.357-7.183-1.308 18.926 10.717 25.1 10.717 25.1a18.313 18.313 0 0 1 -8.744-.467c1.231 4.632 7.219 6.668 14.439 9.744 6.926 2.952 10.533 11.11 9.373 16.344-1.076 4.858-5.159 9.229-13.144 8.839s-10.132-7.582-13.108-11.41m29.345-16.009s-7.157 0-12.62-10.3c-5.274-9.944 1.569-22.489 9.94-30.244 3.939 5.128 8.032 11.6 9.914 18.345 3.388 12.131-7.232 22.193-7.232 22.193z" fill="#fdda2a"/><g fill="none" stroke-linecap="round"><path d="m433.865 29.166c.718 2.636 1.231 6.819-2.668 12.82s.41 12 .41 12"/><path d="m438.379 33.166c.616 4.637 1.026 10.366-1.334 13.639"/><path d="m458.284 34.348c-.308 4.91.1 10.093 2.976 12.457s5.848 2.819 6.361 7.91"/><path d="m462.909 30.2c-1.136 4.15.608 12.152 5.122 14.97"/></g></g><path d="m362.372 63.348a7.736 7.736 0 0 1 -2.74-.334l-.54-.223-.071-.579a12.688 12.688 0 0 1 .391-4.748l.8-3.113 1.111 3.015a14.013 14.013 0 0 0 2.536 4.322l1.359 1.593-2.093.057c-.247.006-.5.01-.753.01z" fill="#fafafa"/><path d="m360.381 57.712a15 15 0 0 0 2.713 4.625c-.236.007-.481.011-.727.011a7.458 7.458 0 0 1 -2.354-.259 11.711 11.711 0 0 1 .368-4.377m-.347-6.721-1.591 6.226a13.671 13.671 0 0 0 -.415 5.116l.143 1.159 1.079.446a8.431 8.431 0 0 0 3.117.41c.264 0 .527 0 .782-.011l4.18-.114-2.713-3.183a13.059 13.059 0 0 1 -2.359-4.019z" fill="#111"/><path d="m359.2 54.679a11.611 11.611 0 0 1 -3.093-3.605l-.229-.423.187-.443a5.163 5.163 0 0 1 1.832-1.817c.272-.2.549-.4.8-.61l1.909-1.563-.283 2.451a11.933 11.933 0 0 0 .448 4.931l.922 3.03z" fill="#fafafa"/><path d="m359.331 48.555a12.886 12.886 0 0 0 .485 5.335 10.513 10.513 0 0 1 -2.83-3.292c.258-.612 1.447-1.309 2.345-2.043m2.551-4.672-3.818 3.124c-.24.2-.5.389-.761.578a5.9 5.9 0 0 0 -2.16 2.234l-.374.886.458.845a12.575 12.575 0 0 0 3.357 3.916l4.991 3.9-1.846-6.061a10.922 10.922 0 0 1 -.411-4.523l.564-4.9z" fill="#111"/><g stroke="#111"><g stroke-width="2"><path d="m330.977 50.866s-.256 10.25 12.747 10.356 23.633-7.32 34.645 4.72 5.508-13.442-16.679-10.482c-23.275 3.102-26.957-1.108-30.713-4.594z" fill="#fafafa"/><path d="m361.222 30.78s-6.9 2.272-10.809 2.57-6.537 4.23-2.471 6.323c0 0 1.762-.988 2.023.055.286 1.144-1.57.483-2.12.979-1.064.959 2.38 7.6 4.261 9.3s2.171 1.421 4.182-.134 13.942-2.873 18.077.927a2.71 2.71 0 0 0 3.047-.118s-5.683 6.036-.491 12.788c0 0-2.245-1.529-4.293-.727s-5.063-1.271-10.611-.419-6.606 2.529-2.878 5.372 6.347 2.04 7.934 1.383 2.468.221 1.744 2.424-3.9 8.145-12.511 4.967-17.354 13.876-27.359 4.362c0 0 3.611 11.573 14.173 9.043a28.68 28.68 0 0 0 -15.12 12.255c-5.659 9.246-16.484 9.73-21.461 8.351 0 0 5.774 8.434 20.55 3.769 0 0 4.252-3 6.868-2.827a26.669 26.669 0 0 0 -7.526 6.443c-3.789 4.872-11.885 4.115-13.864 4.345 0 0 8.212 10.013 29.1-5.166 0 0-3.408 9.187-11.861 14.619 0 0 16.35-.129 23.247-9.373 0 0-1.3 11.654-12.8 15.452 0 0 14.674 6.424 23.567-12.141 0 0 2.4 14.707 13.828 17.387 0 0-4.575-7.357-3.811-13.924 0 0 .967 13.952 24.743 10.527 0 0-2.921-7.443-.826-12.449 0 0 1.042 5.355 9.043 5.29a9.791 9.791 0 0 1 -3.272-10.034c1.555-6.488-.164-7.646-.255-14.57 0 0 1.763 12.154 9.54 9.686 0 0-4.305-4.871-1.006-14.319s-2.52-13.452-4.08-18.3c0 0 6.478 9.628 13.82 2.487 0 0-6.428-2.272-7.543-6.619s-6.381-6.448-7.086-7.024a25.48 25.48 0 0 0 -.217-13.948c-2.329-7.114-2.472-7.207-1.909-11.474a17.911 17.911 0 0 0 -9.111-5.687s7.344-1.069 6.5-10.022-8.39-10.041-15.866-5.351c0 0-4.079-5.139-13.652-4.141s-11.025 5.212-11.438 7.663z" fill="#fdda2a"/><g fill="none" stroke-linecap="round"><path d="m391.148 38.417a5.174 5.174 0 0 1 1.21-5.313c1.685-2.092 2.144-3.432-.218-6.991"/><path d="m357.541 39.8s9.732-5.908 15 .688c0 0-3.943-4.546-4.917-7"/></g></g><path d="m0 87h249.5v29h-249.5z" fill="#fafafa" stroke-width="3"/><path d="m0 29h249.5v29h-249.5z" fill="#fafafa" stroke-width="3"/><g fill="#199441" stroke-linecap="round" stroke-linejoin="round" stroke-width="2"><path d="m222.89 376.362a9.755 9.755 0 0 0 -9.288-4.834c3.661-2.479.689-8.324.689-8.324a84.527 84.527 0 0 0 -10.766 2.842c-4.688 1.687-7.981 7.924-7.981 7.924.967-3.219 5.985-7.226 5.985-7.226 1.382-4.16-2.358-8.2-4.718-6.008s-7.36 1.169-11.4 1.454c-2.746.194-4.154 3.776-4.776 6.059 1.3-8.7-8.25-9.187-8.25-9.187s2.3 7.983-.375 11.528-4.026 13.218-2.01 16.41a44.014 44.014 0 0 0 -38 21.86v-32.86h-8v32.86a44.014 44.014 0 0 0 -38-21.86c2.016-3.192.664-12.864-2.006-16.41s-.375-11.528-.375-11.528-9.547.484-8.25 9.187c-.622-2.283-2.03-5.865-4.776-6.059-4.044-.285-9.045.742-11.4-1.454s-6.1 1.848-4.718 6.008c0 0 5.018 4.007 5.985 7.226 0 0-3.293-6.237-7.981-7.924a84.527 84.527 0 0 0 -10.77-2.846s-2.972 5.845.689 8.324a9.755 9.755 0 0 0 -9.288 4.834c-3.343 5.64-10.2 6.153-10.2 6.153s2.728 5.279 7.091 7.32 2.275 5.244 8.925 7.961c0 0-5.566 4.418-6.254 8.59a19.971 19.971 0 0 0 20.381-5.738c-1.69 1.777-8.832 9.529-8.022 12.809.918 3.716 4.064-1.052 9-.232s10.711-.008 12.952-4.084c0 0-2.1 4.926-.7 7.128 0 0 4.081-.66 6.3-3.4s7.581-2.212 8.05-8.693a11.664 11.664 0 0 1 5.367-9.172 36.04 36.04 0 0 1 36 36v3h12v-3a36.04 36.04 0 0 1 36-36 11.664 11.664 0 0 1 5.359 9.178c.469 6.481 5.829 5.954 8.05 8.693s6.3 3.4 6.3 3.4c1.4-2.2-.7-7.128-.7-7.128 2.241 4.076 8.012 4.9 12.952 4.084s8.086 3.948 9 .232c.81-3.28-6.332-11.032-8.022-12.809a19.971 19.971 0 0 0 20.381 5.738c-.688-4.172-6.254-8.59-6.254-8.59 6.65-2.717 4.561-5.92 8.925-7.961s7.091-7.32 7.091-7.32-6.849-.517-10.192-6.155z"/><path d="m220.333 385c-6.666 2.667-24.5-2.669-35.166 2.665"/><path d="m35.667 385c6.666 2.667 24.5-2.669 35.166 2.665"/></g></g><path d="m169 359.5a11.013 11.013 0 0 0 -11-11 10.9 10.9 0 0 0 -1.177.063 11 11 0 0 0 -10-17.5 11 11 0 0 0 -10-17.5 11 11 0 1 0 -17.646 0 10.9 10.9 0 0 0 -1.177-.063 11 11 0 0 0 -8.823 17.563 10.9 10.9 0 0 0 -1.177-.063 11 11 0 0 0 -8.823 17.563 10.9 10.9 0 0 0 -1.177-.063 11 11 0 0 0 0 22 11.16 11.16 0 0 0 1.177-.062 11 11 0 1 0 18.823 11.143 11 11 0 0 0 20 0 11 11 0 1 0 18.823-11.143 11.16 11.16 0 0 0 1.177.062 11.013 11.013 0 0 0 11-11z" fill="#111"/><path d="m128 386a9 9 0 0 1 -9-9 9 9 0 0 1 9-9 9 9 0 0 1 9 9 9 9 0 0 1 -9 9zm9-79a9 9 0 0 0 -9-9 9 9 0 0 0 -9 9 9 9 0 0 0 9 9 9 9 0 0 0 9-9zm-20 70a9 9 0 0 0 -9-9 9 9 0 0 0 -9 9 9 9 0 0 0 9 9 9 9 0 0 0 9-9zm40 0a9 9 0 0 0 -9-9 9 9 0 0 0 -9 9 9 9 0 0 0 9 9 9 9 0 0 0 9-9zm-20-35a9 9 0 0 0 -9-9 9 9 0 0 0 -9 9 9 9 0 0 0 9 9 9 9 0 0 0 9-9zm-20 0a9 9 0 0 0 -9-9 9 9 0 0 0 -9 9 9 9 0 0 0 9 9 9 9 0 0 0 9-9zm40 0a9 9 0 0 0 -9-9 9 9 0 0 0 -9 9 9 9 0 0 0 9 9 9 9 0 0 0 9-9zm-30 17.5a9 9 0 0 0 -9-9 9 9 0 0 0 -9 9 9 9 0 0 0 9 9 9 9 0 0 0 9-9zm-20 0a9 9 0 0 0 -9-9 9 9 0 0 0 -9 9 9 9 0 0 0 9 9 9 9 0 0 0 9-9zm40 0a9 9 0 0 0 -9-9 9 9 0 0 0 -9 9 9 9 0 0 0 9 9 9 9 0 0 0 9-9zm-20-35a9 9 0 0 0 -9-9 9 9 0 0 0 -9 9 9 9 0 0 0 9 9 9 9 0 0 0 9-9zm20 0a9 9 0 0 0 -9-9 9 9 0 0 0 -9 9 9 9 0 0 0 9 9 9 9 0 0 0 9-9zm20 35a9 9 0 0 0 -9-9 9 9 0 0 0 -9 9 9 9 0 0 0 9 9 9 9 0 0 0 9-9z" fill="#cc3026"/><g stroke="#111"><g stroke-width="2"><path d="m109.149 269.105-.518-.251-.482.319a5.711 5.711 0 0 0 -2.242 4.391l-.069 1.345 1.31-.312a3.573 3.573 0 0 1 3.611 1.68l1.595 1.818c.172-3.076-.112-7.518-3.2-8.99zm11.163.84-.493.2c.092-.186.229-.45.229-.45a6.213 6.213 0 0 0 .518-2.631 8.246 8.246 0 0 0 -.6-3.023l-.322-.8-.851.192c-2.356.541-6.668 2.909-6.049 8.055l.232 1.922 1.447-1.277a6.507 6.507 0 0 1 4.588-1.886 1.769 1.769 0 0 1 .414.049c-1.013.436-5.576 2.583-5.576 6.341 0 .137 0 .287.01.424l.163 1.736 1.424-.987a9.037 9.037 0 0 1 5.485-1.736l.873.091.219-.85a5.511 5.511 0 0 0 -1.252-4.86l-.462-.5zm37.655-1.413-.551-.4-.587.358a5.013 5.013 0 0 0 -2.392 4.169l.069 1.254 1.218-.332c1.816-.5 3.667 1.482 3.69 1.5l.978 1.055.668-1.273c.159-.3 1.4-2.99-3.093-6.332zm-39-5.446.619-.045.254-.564a5.289 5.289 0 0 0 -.15-4.355l-.309-.6-.668.059a6.611 6.611 0 0 0 -6.082 6.836v2.023l1.62-1.208a10.032 10.032 0 0 1 4.716-2.147zm-44.542-1.977.219-.195c.137-.127 1.333-1.31.645-4.023l-.218-.85-.877.091c-2.907.29-5.977 1.968-5.84 4.977l.045 1.173zm-9.382 9.328 1.277-.778a17.26 17.26 0 0 1 5.563-2.436l.564-.105.209-.518a4.651 4.651 0 0 0 -.219-4.445l-.391-.541-.655.137c-3.529.759-7.186 4.068-6.612 7.217zm4.2-.3c.769.9 1.92 3.078.76 4.9l-.333.528-.609-.056c-.76-.068-2.921.759-4.716 3.078l-1.08 1.413-.668-1.645c-1.978-4.859 3.6-7.572 5.426-8.468l.714-.332zm39.626-28.08c-.516 4.011-9.06 20.343-10.216 22.576s-.048 3.67 4.07 2.6 7.465.387 4.827 1.189-2.752 4.7-2.411 7.13 1.035 2.555-6.935-2.431-19.439.4-21.32 1.657-7.752 4.016-5.917 1.323-.837-6.409-.837-6.409c1.152-3.237 6.7-2.425 6.7-2.425-.922-.562-3.838-.056-3.838-.056 1.566-2.072.414-5.746.414-5.746a8.236 8.236 0 0 1 4.328-.034 3.222 3.222 0 0 0 -2.109-.884c1.979-1.886.4-5.1.4-5.1 2.2-.734 3.83.828 5.034 2.078s6.995 4.48 8.915 5.4 2.152.8 4.159-2.7a207.362 207.362 0 0 0 8.945-20.344zm29.834 1.031c.559 3.553 3.481 21.332 8.6 23.128 2.583.9 4.122-2.1 7.918-.484 1.619.689 2.827 1.7.935 2.392s-3.269 3.56-2.667 5.881-.075 2.87-2.438 1.216-7.152-5.171-11.624-4.956-10.644 2.88-12.665 5.265-4.9 4.234-3.935.28a7.185 7.185 0 0 0 -1.964-6.644c.3-.476 2.7-1.248 2.7-1.248a5.051 5.051 0 0 0 -2.517.714c.666-1.655-.452-6.1-.452-6.1.409-.387 2.489-.313 2.489-.313a6.691 6.691 0 0 0 -2.46-.238s2.007-2.9.076-4.8 3.364-.681 4.827.582a44.751 44.751 0 0 0 10.081 5.371c2.426.674 1.373-1.35.733-4.574s-3.618-15.47-3.618-15.47z" fill="#fdda2a" stroke-miterlimit="10"/><path d="m126.529 174.384c-.359-10.5 19.438-5.845 31.48-3.095s35.436 7.737 44.21 6.017c0 0-.345 8.424-33.889 8.94 0 0 17.948.458 27.81-3.5 0 0 6.079 8.883-20.183 11s-49.199-12.657-49.428-19.362z" fill="#fafafa"/><path d="m230 209.2s-75.336 27.158-107.841-3.476c0 0 30.57 15.358 32.366 2.723 0 0-16.125-7.933-19.108-10.768 0 0 35.316 23.717 46.577 7.73 0 0-27.68-10.623-32.6-15.407 0 0 46.6 28.555 62.927 11.714 0 0-33.326-9.794-63.774-28.017s-50.4-22.674-56.334-13.4 1.421 23.8 6.858 27.28c0 0-14.808-5.146-18.825-14.576-1.208-2.836-2.188-5.479-3.35-7.823 3.181-.719 6.853-3.476 6.853-3.476-4 0-8.731-.963-10.875-2.373-3.41-2.242-5.229-3.662-12.23-4.239-14.106-1.163-17.964 9.477-17.964 9.477l6.863 16.083s3.345 4.056 5.6 15.7 7.45 24.908 30.043 36.541c4.224 2.175 13.651 4.284 9.219 17.158a15.694 15.694 0 0 0 10.047-4.9s2.867 6.878 9.977 8.024c0 0-1.376-13.18 6.078-13.18s9 8.929 9.262 12.6c0 0 5.606-2 7.4-5.641 0 0 7.761 6.563 12.348 5.646 0 0-9.747-13.638.574-13.638 0 0 53.785 10.946 52.223-4.255a60.546 60.546 0 0 1 -16.353.8s33.354 1.77 31.813-14.077c0 0-18.2 6.534-24.106 6.475.005.003 33.924-5.385 36.332-18.705z" fill="#fafafa" stroke-miterlimit="20"/><path d="m49.544 180.649c3.621 5.069.091-18.3-9.714-18.471s-11.429 8.757-8.553 12.8c0 0 7.368-7.189 11.987-1.8 0 0-5.946 2.109-5.206 6.04 0 .002 8.471-2.791 11.486 1.431z" fill="#fdda2a"/><circle cx="60.125" cy="166.782" fill="#fafafa" r="2.999"/></g><g fill="#fafafa" stroke-width="3"><path d="m0 507.5h249.5v36.25h-249.5z"/><path d="m0 435h249.5v36.25h-249.5z"/></g></g></g><path d="m497 330v-327h-494v327c0 136.414 110.586 247 247 247s247-110.586 247-247z" fill="none" stroke="#111" stroke-width="6"/></svg>