<svg height="450" viewBox="0 0 327.99714 360.00129" width="410" xmlns="http://www.w3.org/2000/svg"><path d="m212.002 828.446h-6.378v-4.252h6.378c1.174.001 2.126-.952 2.126-2.126 0-1.173-.952-2.125-2.126-2.125h-6.378l4.252-4.252h2.126c3.469.012 6.378 2.856 6.378 6.377 0 1.634-.615 3.124-1.625 4.253 1.01 1.128 1.625 2.618 1.625 4.251 0 3.522-2.909 6.366-6.378 6.378h-6.378v-4.252h6.378c1.174 0 2.126-.952 2.126-2.126s-.952-2.126-2.126-2.126zm-165.3426-2.126c0-5.869 4.7602-10.63 10.6299-10.63s10.6299 4.761 10.6299 10.63c0 5.87-4.7602 10.63-10.6299 10.63s-10.6299-4.76-10.6299-10.63zm10.6299 14.882c8.2177 0 14.8819-6.664 14.8819-14.882 0-8.217-6.6642-14.882-14.8819-14.882-8.2176 0-14.8819 6.665-14.8819 14.882 0 8.218 6.6643 14.882 14.8819 14.882zm-4.2508-21.26h4.2508c3.5218 0 6.378 2.856 6.378 6.378s-2.9092 6.366-6.378 6.378h-4.2508v-4.252h4.2508c1.1739 0 2.126-.952 2.126-2.126s-.9521-2.126-2.126-2.126h-4.2508zm36.1395-4.251h4.2519v21.259h-4.2519l-8.504-13.347v13.347h-4.2519v-21.259h4.2519l8.504 13.347zm-63.7784 0h12.7559v4.252h-8.504v4.251h8.504v4.252h-8.504v4.252h8.504v4.252h-12.7559zm72.2812 0h4.2522v21.259h-4.2522zm17.0082 21.259c4.696 0 8.504-3.808 8.504-8.504v-4.251c0-4.696-3.808-8.504-8.504-8.504h-8.504v21.259zm0-17.007c2.348 0 4.252 1.904 4.252 4.252v4.251c0 2.348-1.904 4.252-4.252 4.252h-4.252v-12.755zm73.928 6.377c0 5.87-4.76 10.63-10.63 10.63-5.869 0-10.63-4.76-10.63-10.63 0-5.869 4.761-10.63 10.63-10.63 5.87 0 10.63 4.761 10.63 10.63zm-10.63-14.882c-8.217 0-14.881 6.665-14.881 14.882 0 8.218 6.664 14.882 14.881 14.882 8.218 0 14.882-6.664 14.882-14.882 0-8.217-6.664-14.882-14.882-14.882zm-169.59531 4.252h4.25201v17.008h8.5039v4.252h-12.75591zm192.98031.001v21.259h-4.252v-17.007zm-48.896 12.755c-1.174 0-2.126.952-2.126 2.126v2.126h8.504v4.252h-12.756c0-2.126 0-4.252 0-6.378.012-3.469 2.856-6.378 6.378-6.378 1.173.001 2.126-.952 2.126-2.126 0-1.173-.953-2.125-2.126-2.125h-6.378l4.252-4.252h2.126c3.468.012 6.378 2.856 6.378 6.377 0 3.522-2.857 6.378-6.378 6.378z" fill="#800080" fill-opacity=".501961" transform="matrix(.76194991 0 0 .76194991 77.604236 -449.61381)"/><g stroke="#000"><g fill="#c93" fill-rule="evenodd" stroke-width=".800003" transform="translate(24.315284 55.690909)"><path d="m187.83614 270.70481c-31.73476 14.67635-77.55253 1.95202-96.869584 33.20734l11.631644-3.25017c12.29985-20.54911 60.75215-13.94444 85.23794-29.95717z"/><path d="m91.530426 270.70481c31.734754 14.67635 77.552524 1.95202 96.869594 33.20734l-11.63085-3.25017c-12.30065-20.54911-60.75296-13.94444-85.238744-29.95717z"/></g><g transform="translate(-128.00046)"><path d="m325.94307 325.42569c13.06121-6.11249 25.11814-17.70431 38.57119-28.01471 10.4641-8.0191 22.21441-14.4852 30.19609-22.00416 6.85236-6.45654 13.97948-12.29824 18.78983-20.79122m-45.33515 58.07302c-10.04519 6.02568-19.48351 10.23553-29.6832 14.396m30.71854-33.8811c66.37086-53.18939 22.2399-85.67438 38.38244-125.13517m-.67695 66.7643c3.11478-11.6213 23.3716-14.3984 28.95129-23.96812" fill="none" stroke-width="1.200004"/><g stroke-width=".800003"><g fill="#c93" fill-rule="evenodd"><path d="m410.18788 260.2813c6.18974.50652 12.3094-2.23076 18.5302-6.34743-7.43852.56307-13.95081 2.15192-18.5302 6.34743z"/><path d="m434.87596 212.70345c4.55948 3.14982 10.47366 3.70811 17.06639 3.22309-5.98825-2.86072-11.70651-4.49974-17.06639-3.22309z"/><path d="m368.42466 312.63446c5.98426-1.66132 10.78267-6.34345 15.20038-12.35399-6.78705 3.09566-12.35081 6.83563-15.20038 12.35399z"/><path d="m431.09697 181.73882c4.32215-4.46152 6.09258-10.92682 6.86192-18.34622-4.2879 6.10372-7.19562 12.14374-6.86192 18.34622z"/><path d="m409.81914 133.11129c5.85525.56546 11.6882-1.94245 17.63583-5.7541-7.05147.43007-13.24041 1.8445-17.63583 5.7541z"/><path d="m399.39008 112.22689c-5.43234 3.30035-8.85693 9.244-11.53687 16.39182 5.82339-4.93538 10.26341-10.16465 11.53687-16.39182z"/><path d="m412.25777 167.71235c4.80318 2.74604 10.7739 2.84799 17.34752 1.87556-6.21364-2.355-12.06808-3.5313-17.34752-1.87556z"/><path d="m413.94219 242.78247c-5.12892 3.50183-11.80129 4.15091-19.24379 3.65076 6.74245-3.19123 13.18864-5.03175 19.24379-3.65076z"/><path d="m370.58454 92.944881c2.18297 7.150219 2.711 13.926919 9.89148 18.596299 5.23483 3.40388 10.86947 4.79761 16.67693 2.30801 2.70065-1.15799 5.2659-3.90801 8.41811-3.09885-2.01572-2.3319-1.84051-8.07167-3.03434-11.184062-2.64728-6.902531-7.92672-10.577988-14.63891-11.121144-6.9312-.562269-11.37122 3.261321-17.31327 4.499747z"/></g><path d="m370.60524 93.024523c11.83394 4.307014 23.35329 9.326027 34.41232 17.228057" fill="none"/><path d="m371.98304 97.995747c1.70115-.193529 3.67466-1.729814 5.96595-2.156692m-4.45993 6.916865c3.15222-.2437 7.7778-3.281229 11.77182-3.802085m-8.72234 9.126125c3.95978-.39502 10.74444-5.2882 15.57072-5.76286m-10.81055 9.73936c4.7769-.89119 11.48909-5.73658 16.34324-6.63016m-9.23284 9.44549c4.15808-1.3555 9.23045-5.68083 13.7087-6.61981m-24.39659-17.778376c1.62309 1.945643 3.21433 4.612042 3.90323 6.873065m1.58168-8.62916c2.58277 3.657935 4.3094 8.215024 5.34793 11.793321m2.02449-11.663506c2.45295 4.361967 3.31308 10.345436 4.6638 15.178086m3.21673-10.918856c1.58566 4.886008 2.0651 9.836526 2.32075 14.269376" fill="none"/><path d="m386.16003 61.309671c-3.10363 7.933889-7.42179 14.364147-4.30542 23.614511 2.27217 6.743249 6.32354 11.972512 13.27386 13.852849 3.23344.874464 7.46958.230164 9.71547 3.180879-.15291-3.508206 4.06172-8.514473 5.19501-12.141348 2.5127-8.04061.39264-15.057825-5.22209-20.288681-5.7987-5.402882-12.47027-5.124137-18.65683-8.21821z" fill="#c93" fill-rule="evenodd"/><path d="m386.1226 61.395684c7.5325 12.215418 14.28053 24.845769 18.57878 39.725996" fill="none"/><path d="m383.83928 66.812901c1.65734 1.028968 4.50771 1.051268 6.85793 2.29049m-8.87684 3.028768c2.98894 2.010949 9.27186 2.56605 13.20934 4.924236m-14.24707 1.991038c3.81881 2.445792 13.34155 2.868688 17.99102 5.856839m-16.54792 1.062418c4.89955 2.580386 14.32512 2.994522 19.29476 5.628267m-14.92961 1.914583c4.67496 1.728221 12.26639 1.447883 16.93259 3.775008m-9.23762-33.138842c.0757 2.887005-.38706 6.395215-1.36984 8.903127m7.51498-6.594319c-.27875 5.095465-1.95679 10.389238-3.55838 14.321937m10.05554-8.993918c-.89119 5.633045-4.35241 11.588639-6.56167 16.863298m10.59392-7.485508c-2.03644 5.488098-5.10741 10.252255-8.01274 14.394411" fill="none"/><path d="m417.4727 86.892125c-7.46321 5.128118-15.09765 8.208653-17.87395 18.204465-2.0237 7.2872-1.5785 14.30362 3.41423 20.10391 2.32155 2.69746 6.43265 4.65823 6.64847 8.59332 1.95759-3.1777 8.65146-5.06759 11.81164-7.58187 7.00686-5.57411 9.32762-13.01104 7.5086-20.96245-1.87794-8.211044-7.91318-11.945435-11.50899-18.357375z" fill="#c93" fill-rule="evenodd"/><path d="m417.38748 86.944688c-.66023 15.239412-2.25784 30.374482-7.3533 46.028822" fill="none"/><path d="m412.14786 90.348567c.8442 1.893876 3.33858 3.613337 4.667 6.10532m-9.61592-2.629763c1.43036 3.551216 6.62617 7.787346 8.68252 12.210636m-13.72065-6.747227c1.90105 4.429667 10.02528 10.481627 12.33329 15.883707m-15.19082-8.93578c2.77072 5.19183 10.81452 11.17849 13.61631 16.46031m-14.27575-7.22189c3.08133 4.30861 9.92652 8.59093 12.64389 13.42199m11.64121-34.661592c-1.65575 2.583571-4.1557 5.394917-6.51627 7.014032m10.54454-1.318866c-3.28442 4.317366-7.91876 7.972116-11.67306 10.476846m14.21044-1.91379c-4.14455 4.42329-10.74126 7.5978-15.83115 10.92045m13.78436-.26521c-5.0652 3.61175-10.60825 5.97152-15.63523 7.88213" fill="none"/><path d="m442.72862 142.45245c-7.32145-1.51239-13.52074-4.29826-21.062-.23654-5.49766 2.96108-9.42159 7.23783-10.02209 13.52791-.27875 2.92524.90393 6.49477-1.31727 8.87287 3.01204-.65067 7.96574 2.25545 11.26927 2.70064 7.32623.98596 13.08352-1.88432 16.77888-7.51338 3.81643-5.81383 2.59074-11.54324 4.35321-17.3515z" fill="#c93" fill-rule="evenodd"/><path d="m442.64898 142.43254c-9.45425 8.31935-19.38236 16.02228-31.61928 21.93726" fill="none"/><path d="m437.62519 141.25783c-.6451 1.58566-.24291 4.05455-.96765 6.27017m-3.9311-7.23065c-1.29816 2.88223-.84978 8.3982-2.30881 12.1533m-3.82598-12.03065c-1.55142 3.6651-.5113 11.96454-2.40916 16.42766m-3.36326-14.15708c-1.50761 4.61921-.47466 12.83343-2.01811 17.52113m-3.86103-12.63194c-.80437 4.29905.55909 10.82408-.76535 15.20516m27.30032-12.88441c-2.48561.49139-5.58845.60926-7.90283.12902m6.81413 5.52633c-4.44957.5121-9.27585-.15769-12.91387-.96207m9.2647 7.36923c-5.00468.0613-10.66719-2.05316-15.55638-3.18486m8.03981 8.05813c-5.04768-.95172-9.62229-2.90453-13.63463-4.80557" fill="none"/><path d="m449.19472 267.22605c-7.49507-3.96695-13.36545-8.96446-22.86509-6.92802-6.92563 1.48452-12.55469 4.89955-15.19959 11.55997-1.23046 3.09805-1.07277 7.36047-4.24489 9.24797 3.48671.2453 7.96176 4.97919 11.4198 6.5099 7.66709 3.39432 14.84598 2.09059 20.65344-2.87028 5.9986-5.12334 6.47724-11.7519 10.23633-17.51954z" fill="#c93" fill-rule="evenodd"/><path d="m449.11428 267.17826c-12.9314 6.06789-26.18455 11.31308-41.38573 13.88072" fill="none"/><path d="m444.01483 264.30798c-1.20498 1.52275-1.54903 4.33887-3.03992 6.52344m-1.99183-9.12055c-2.32633 2.72852-3.58546 8.87844-6.36336 12.50531m-.35759-14.31397c-2.85037 3.49945-4.34524 12.86928-7.82558 17.1293m.81951-16.485c-3.10522 4.5539-4.58098 13.82736-7.74673 18.44498m-.20468-14.98057c-2.23793 4.42727-2.81931 11.96614-5.64897 16.31775m33.81579-5.38775c-2.86311-.25167-6.28053-1.10622-8.64986-2.36217m5.67207 8.1768c-5.00786-.85057-10.05236-3.10921-13.76047-5.13688m7.75709 10.96027c-5.46978-1.51877-10.96823-5.61473-15.93468-8.39581m6.20487 11.32263c-5.19661-2.63454-9.56017-6.20965-13.32881-9.5514" fill="none"/><path d="m439.77312 285.1207c-4.48939-7.19481-7.05544-14.46449-16.29306-17.47415-6.73449-2.19492-13.31686-2.06829-18.94991 2.36297-2.61941 2.06112-4.62319 5.82578-8.31458 5.8648 2.89179 1.96316 4.38427 8.30422 6.60547 11.36485 4.92583 6.78546 11.78775 9.2639 19.30192 7.89088 7.75948-1.41842 11.50263-6.9105 17.65016-10.00935z" fill="#c93" fill-rule="evenodd"/><path d="m439.72693 285.03867c-14.22955-1.24719-28.32372-3.36724-42.75874-8.78127" fill="none"/><path d="m436.75949 279.99577c-1.80707.71199-3.51857 2.97381-5.90463 4.11428m2.85754-8.8872c-3.38158 1.19064-7.55957 5.87675-11.78296 7.61851m6.87943-12.55788c-4.22259 1.59443-10.22119 8.94614-15.37002 10.88222m8.98835-13.84329c-4.97203 2.3781-10.90612 9.65654-15.96256 12.05932m7.34614-13.05802c-4.15888 2.70542-8.44758 8.93259-13.07953 11.27485m31.9474 12.32293c-2.34942-1.65574-4.87565-4.1103-6.29327-6.38565m.79801 9.91935c-3.90323-3.25097-7.13111-7.73797-9.31886-11.3537m1.20339 13.3742c-3.96775-4.06012-6.6652-10.36375-9.56336-15.2625m-.32096 12.90671c-3.16973-4.8876-5.14802-10.17182-6.72891-14.9535" fill="none"/><g fill-rule="evenodd"><g fill="#ffd300"><path d="m384.08696 149.9292c2.99851 3.11398 6.49318 5.45942 10.09696 5.69357 3.66351.10831 8.91348.27476 12.22577-1.5785 2.46889-1.38178 4.02668-4.37471 1.67168-7.12154z"/><path d="m375.04287 134.27167h-.01l-.52244 17.03771c4.05056 7.36605 12.57141 7.54046 19.14662 3.57671 4.51727-2.99612 8.63155-5.16476 11.67624-4.75859 2.26182.30025 3.28044 2.01573 1.80309 3.34256 6.61662-1.34435 11.23901-6.32513 9.74175-13.18545-1.15241-5.27944-6.30522-8.35838-12.56664-7.26729-5.04927.87844-7.63842 3.70014-11.29954 6.65006-3.34972 2.69906-7.56435 3.96456-12.16763 1.9775-3.66272-1.58168-5.45306-5.16873-5.79154-7.37321h-.0103z" stroke-linejoin="bevel"/><path d="m417.2935 187.15684c.82031 5.81542-6.03364 11.12034-15.09924 14.13318l10.57162 14.20248c8.47545-2.81692 15.01801-7.63763 15.16295-13.00547.0765-2.8201-1.39691-6.37212-2.95868-9.03772z"/></g><g fill="#005bb9"><path d="m417.2935 187.15684c.82031 5.81542-6.03364 11.12034-15.09924 14.13318l5.28581 7.10084c9.74813-3.23982 16.92701-9.14364 14.64289-15.46161l-.48979-2.21483z"/><path d="m407.13682 153.47006c6.61662-1.34435 11.23901-6.32513 9.74175-13.18545-1.15241-5.27944-6.30522-8.35838-12.56664-7.26729-5.04927.87844-7.63842 3.70014-11.29954 6.65006-3.34972 2.69906-7.56435 3.96456-12.16763 1.9775-3.66272-1.58168-5.45306-5.16873-5.79154-7.37321h-.0199l-.25963 8.4643c1.16038 2.93798 3.62608 5.72065 7.21712 6.75918 4.03066 1.22887 8.02548.12185 11.34414-2.21881 2.95948-2.2236 5.33359-4.27994 8.84499-5.15281 4.11747-.978 7.58904.34086 8.92622 3.08213 1.87954 3.58068.0773 6.92881-3.96933 8.2644z" stroke-linejoin="bevel"/></g></g></g><path d="m409.75384 132.67565c-4.43842 22.97499-24.01431 29.87275-6.45415 50.51026" fill="none" stroke-width="1.200004"/><g stroke-width=".800003"><g fill-rule="evenodd"><path d="m361.79132 329.12504c-9.22966-.50334-18.58993-2.34306-27.81242-6.26142-11.91198-4.90831-23.80486-9.20895-35.07015 5.28422v13.23085c8.72792-11.376 19.05663-14.10452 30.98693-8.18636 8.97719 4.48063 18.65284 8.19512 28.71236 8.18715 18.16783-.0135 31.02755-10.82488 36.00355-28.20505l8.28432-18.26738c-5.94126 28.58415-32.37349 34.69345-41.10459 34.21799z" fill="#ffd300"/><path d="m361.79132 329.12504c-9.22966-.50334-18.58993-2.34306-27.81242-6.26142-11.91198-4.90831-23.80486-9.20895-35.07015 5.28422v6.61502c9.9966-12.93458 21.1066-12.14852 33.02814-6.73528 10.40995 4.85415 20.31895 7.48471 29.79947 6.88023 14.3753-.90712 25.66847-9.643 32.51764-21.51596l8.13777-18.32233c-5.94125 28.58494-31.86935 34.53098-40.60045 34.05552z" fill="#005bb9"/><path d="m394.21339 313.81873c2.84718-25.94801-3.27566-43.26526-18.43941-58.93314 6.00497-5.60438 8.96764-12.3309 9.84847-21.13766 13.2197 15.61293 24.87444 31.66388 24.82507 50.98094-.0239 9.40088-6.92165 20.39221-16.23493 29.08986z" fill="#ffd300"/><path d="m382.31892 246.15369c1.78318-3.64519 2.83604-7.73319 3.30353-12.40576 13.2197 15.61293 24.87444 31.66388 24.82507 50.98094-.0223 8.91746-6.23116 19.26528-14.81811 27.72958 3.58228-6.72094 5.65933-14.45493 5.96754-22.49873.88004-15.96016-7.4194-30.16503-19.27803-43.80603z" fill="#005bb9"/><path d="m435.67079 130.554c-8.4428.94137-16.12104.11309-22.83881 7.155-4.89795 5.13449-7.63284 11.13548-6.06789 18.14234.72793 3.25893 3.26212 6.69865 1.69956 10.04997 3.02478-1.76247 9.39849-.36556 13.12492-1.04809 8.26281-1.51239 13.47216-6.63892 15.48391-14.02089 2.07784-7.62408-1.26312-13.38296-1.40169-20.27833z" fill="#c93"/></g><path d="m435.57681 130.56037c-7.2864 12.31498-15.30233 24.13059-26.44179 34.82725" fill="none"/><path d="m429.7367 131.05893c-.13938 1.94007 1.16356 4.4655 1.16037 7.11518m-6.79183-6.42867c-.38785 3.57033 2.03723 9.37222 1.78238 13.94205m-8.36714-11.65076c-.38706 4.50532 3.65794 13.10581 3.17849 18.5955m-8.61562-14.11168c-.004 5.52154 4.00279 14.03204 3.98447 19.64039m-8.61562-12.28868c.6427 4.92742 4.41214 11.49784 4.52284 16.69605m24.96205-23.52691c-2.51269 1.40567-5.82339 2.62578-8.49377 2.92125m9.30691 3.57272c-4.62638 2.11847-10.07705 3.09328-14.29008 3.50423m12.60247 4.70204c-5.38536 1.82697-12.24727 1.53469-17.92731 2.03245m11.52095 5.87754c-5.78835.74784-11.41741.24769-16.42129-.39422" fill="none"/><path d="m449.18118 176.02136c-6.90174 2.87267-13.59402 4.06251-17.53707 11.66589-2.87506 5.54384-3.7097 11.28759-.66341 16.82348 1.41762 2.57401 4.40497 4.85733 3.9096 8.07326 2.12245-2.23395 7.85186-2.6218 10.83284-4.11508 6.60945-3.3115 9.74972-8.92543 9.63264-15.65832-.12025-6.9535-4.36037-10.9977-6.1746-16.78923z" fill="#c93" fill-rule="evenodd"/><path d="m449.10313 176.05003c-3.12593 12.19869-6.99173 24.15527-13.77162 35.93426" fill="none"/><path d="m444.29119 177.90806c.35998 1.67407 2.08183 3.48751 2.7317 5.72623m-7.32065-3.76067c.55032 3.11239 4.02747 7.41861 4.93698 11.34254m-9.93687-7.78575c.78128 3.90164 6.31557 10.1742 7.26091 14.93119m-10.7524-9.80467c1.3555 4.6662 6.83563 10.87187 8.19989 15.61532m-10.30402-8.26361c1.7561 4.00597 6.55768 8.62996 7.9307 12.99511m15.30233-26.02287c-1.7768 1.80627-4.27436 3.65157-6.45813 4.55868m8.74384.72872c-3.38795 2.92842-7.7539 5.09308-11.21353 6.47804m11.80606.87128c-4.10074 2.86869-9.97032 4.311-14.64767 6.12922m11.18167 2.13041c-4.70681 2.05714-9.58645 3.02-13.9731 3.70811" fill="none"/><path d="m378.34481 220.67159c2.46968 7.36763 3.20955 14.39361 10.80178 19.04308 5.53509 3.38955 11.42856 4.67894 17.39292 1.92892 2.77391-1.27984 5.36146-4.20905 8.65942-3.45803-2.15988-2.36536-2.13917-8.33369-3.46759-11.53528-2.94594-7.09606-8.53439-10.76674-15.52373-11.14265-7.21791-.38786-11.72403 3.7105-17.8628 5.16396z" fill="#c93" fill-rule="evenodd"/><path d="m378.3687 220.75441c12.41691 4.14136 24.528 9.03135 36.24088 16.9302" fill="none"/><path d="m379.94003 225.88094c1.76247-.25008 3.76943-1.90184 6.13877-2.40995m-4.43922 7.31268c3.26769-.34166 7.98884-3.62847 12.12383-4.28153m-8.80517 9.72822c4.10313-.52245 11.01443-5.79791 16.01592-6.42708m-10.95788 10.42428c4.93777-1.06082 11.77579-6.28451 16.7948-7.34932m-9.32841 10.07386c4.28312-1.52513 9.43115-6.16266 14.05832-7.2641m-25.85084-17.78555c1.74176 1.97591 3.47078 4.70204 4.24967 7.03155m1.4009-9.01064c2.78586 3.72881 4.7084 8.41492 5.88869 12.10312m1.77521-12.17639c2.67118 4.46391 3.7336 10.65603 5.27307 15.64m3.03434-11.43652c1.78477 5.03175 2.42349 10.16226 2.81373 14.76076" fill="none"/><path d="m383.84406 193.45329c-.26441 8.47546-2.16944 15.94663 3.83872 23.58107 4.38028 5.56614 9.92413 9.11816 17.06957 8.56305 3.32344-.25803 7.08093-2.27615 10.17182-.25724-1.31409-3.23902.96764-9.34036.8211-13.11935-.32573-8.37829-4.65425-14.25185-11.6651-17.2838-7.23941-3.1323-13.40287-.6459-20.23611-1.48373z" fill="#c93" fill-rule="evenodd"/><path d="m383.83689 193.54648c11.13866 8.94294 21.68002 18.53577 30.67473 31.05701" fill="none"/><path d="m383.50319 199.38818c1.89706.41255 4.5778-.51767 7.19482-.14017m-7.31348 5.80189c3.47316.8888 9.54981-.68651 14.02965.21185m-12.69725 6.6198c4.3978 1.01941 13.46897-1.76087 18.82566-.50971m-15.16374 6.51707c5.45544.78447 14.43264-1.97033 19.9717-1.15878m-13.36225 6.7751c4.96007.0621 11.98605-2.7333 17.13886-2.10731m-19.71686-27.9956c1.03295 2.68153 1.76964 6.12683 1.68442 8.80677m4.84778-8.69129c1.43912 4.87168 1.63026 10.39482 1.44071 14.61741m6.42947-11.78854c1.0433 5.57969-.21583 12.31975-.52803 18.00297m7.43773-10.5533c-.0797 5.82498-1.36984 11.31706-2.7126 16.17121" fill="none"/><path d="m425.60569 213.80171c-7.54285 3.87456-15.00128 5.82657-18.77071 14.78067-2.74764 6.52822-3.17053 13.09864.7757 19.08052 1.83574 2.78267 5.4212 5.09307 5.15281 8.7749 2.19731-2.71896 8.63952-3.67705 11.87455-5.63623 7.17252-4.34285 10.21403-10.9746 9.47177-18.57718-.76615-7.85027-5.92772-12.03862-8.50412-18.42268z" fill="#c93" fill-rule="evenodd"/><path d="m425.52047 213.84073c-2.42827 14.07664-5.71507 27.94542-12.31258 41.87871" fill="none"/><path d="m420.2482 216.37811c.55829 1.86043 2.67038 3.7543 3.60776 6.22717m-8.6188-3.58865c.90552 3.46999 5.22687 8.02309 6.61104 12.3771m-11.94145-7.90204c1.23763 4.34126 8.06371 10.9308 9.56415 16.22298m-13.04608-10.10969c1.9552 5.1528 8.71358 11.67226 10.6871 16.91108m-12.40019-8.40855c2.34863 4.36993 8.19751 9.16276 10.14554 13.9739m14.94234-30.81012c-1.84609 2.20368-4.50293 4.51647-6.88819 5.73976m9.95121.0311c-3.56476 3.61812-8.30502 6.46212-12.09039 8.34086m13.42757-.0852c-4.37631 3.61573-10.88302 5.778-16.00636 8.25803m12.83583 1.39532c-5.13529 2.75242-10.56525 4.28313-15.46241 5.45943" fill="none"/><path d="m426.62351 306.6271c-7.13748-5.76366-12.33648-12.28471-22.84438-12.08958-7.66072.14335-14.34424 2.60427-18.53259 9.12931-1.94723 3.03434-2.66162 7.59302-6.4199 8.94055 3.65077.98198 7.42259 6.93439 10.77709 9.27585 7.43852 5.19104 15.331 5.29298 22.52502 1.22808 7.42896-4.19871 9.3093-11.13867 14.49476-16.48421z" fill="#c93" fill-rule="evenodd"/><path d="m426.54785 306.55941c-14.98695 3.76624-30.14432 6.59272-46.81648 6.17301" fill="none"/><path d="m421.72715 302.45627c-1.59443 1.36825-2.54216 4.28631-4.5778 6.29726m-.22698-10.09616c-3.03514 2.41553-5.64499 8.68491-9.34514 11.96137m2.58278-15.27286c-3.75112 3.12593-7.27764 12.76494-11.85464 16.56783m4.28232-17.33319c-4.23932 4.19154-7.72602 13.73339-12.04339 17.98067m2.88302-15.94901c-3.29238 4.23772-5.46978 12.12224-9.3746 16.15767m37.02057 1.27825c-2.98815-.86013-6.43982-2.47446-8.69526-4.29825m4.33011 9.85643c-5.14166-1.94007-10.03085-5.38297-13.54782-8.30342m5.96754 13.24359c-5.49288-2.74445-10.48322-8.23175-15.18127-12.21224m4.24489 13.30651c-4.97282-3.87297-8.86649-8.57261-12.1756-12.90113" fill="none"/><path d="m371.88508 261.82157c-6.48839 5.46022-13.32323 9.02737-14.99968 18.5963-1.2217 6.9766-.16805 13.47614 5.01423 18.42666 2.40995 2.30323 6.4207 3.7551 6.97978 7.40348 1.53549-3.13947 7.60179-5.51199 10.31836-8.14255 6.02249-5.83454 7.50781-12.97759 5.0875-20.22258-2.49915-7.48153-8.4643-10.41234-12.40019-16.06131z" fill="#c93" fill-rule="evenodd"/><path d="m371.81102 261.87891c.77332 14.263.66421 28.51565-2.65844 43.57029" fill="none"/><path d="m367.2372 265.52888c.95968 1.6884 3.44052 3.06381 4.90592 5.26511m-9.20098-1.57531c1.65654 3.18008 6.88501 6.65484 9.20497 10.58993m-13.40288-5.03812c2.17501 3.955 10.29924 8.85614 12.94255 13.68002m-14.97341-6.94394c3.05664 4.58655 11.09885 9.43354 14.19133 14.10053m-13.96355-5.42996c3.2645 3.73519 10.03483 7.10243 13.00785 11.35768m7.69098-33.36741c-1.30771 2.55968-3.38158 5.40686-5.43394 7.1319m9.70751-2.19014c-2.66799 4.32294-6.65405 8.1521-9.92493 10.82806m13.06997-3.07815c-3.45963 4.49975-9.31886 8.06052-13.75967 11.6213m12.82309-1.50443c-4.39144 3.82837-9.34275 6.5322-13.85445 8.77172" fill="none"/><g fill="#c93" fill-rule="evenodd"><path d="m376.14989 354.69316c4.0872-5.99223 8.89596-10.50472 8.07246-18.7739-.5997-6.02887-2.96505-11.13946-8.3743-14.02408-2.51588-1.34196-6.1539-1.61433-7.45525-4.49099-.54156 2.93957-4.99193 6.29089-6.62378 9.08392-3.61732 6.19292-3.19602 12.4201.4667 17.83014 3.78138 5.58845 9.37062 6.62857 13.91417 10.37491z"/><path d="m376.19767 354.62865c-3.92234-11.57112-7.11517-23.33736-7.84548-36.5037"/><path d="m379.1245 350.56852c-1.17949-1.16993-3.54007-1.73061-5.25395-3.20637m7.94265-.82269c-2.09696-2.23793-7.20438-3.89527-10.02209-6.60308m12.20108 1.06321c-2.70224-2.75719-10.52383-4.92264-13.81223-8.28829m13.93329 2.27217c-3.57352-3.07496-11.31547-5.21493-14.93757-8.34723m12.753 1.25674c-3.54962-2.32473-9.90183-3.53927-13.3304-6.36017m1.34913 29.25791c.4874-2.40915 1.54026-5.23245 2.83364-7.12632m-7.49188 4.04021c1.20179-4.1756 3.60299-8.24767 5.68163-11.20556m-10.05793 5.54624c1.81344-4.50373 5.8202-8.78606 8.65863-12.74265m-10.21721 4.19233c2.73568-4.16525 6.19212-7.5325 9.39212-10.41711"/><path d="m321.94267 302.90705c6.75918-4.30304 11.9096-9.45425 21.01024-8.25565 6.63493.87367 12.19471 3.66351 15.19082 9.73698 1.39293 2.82409 1.56655 6.85076 4.69726 8.38784-3.2653.49537-7.12154 5.29218-10.26181 6.99572-6.96465 3.7766-13.82418 3.09327-19.66987-1.13967-6.03682-4.37073-6.98934-10.57799-10.96664-15.72522z"/></g><path d="m322.01515 302.85607c12.63831 4.73549 25.51715 8.67297 40.02783 9.94006" fill="none"/><path d="m326.60011 299.76678c1.25037 1.34276 1.78795 3.96933 3.35689 5.91338m1.18586-8.74065c2.39721 2.39322 4.04898 8.08998 6.93917 11.29635m-.74624-13.5088c2.94992 3.08054 5.06679 11.79173 8.66659 15.54046m-2.01971-15.4632c3.26929 4.05375 5.36147 12.67574 8.69208 16.78445m-.94057-14.12443c2.44261 4.0004 3.56078 11.05664 6.5545 14.94155m-32.25482-2.51508c2.67675-.45395 5.83135-1.51717 7.96734-2.87904m-4.72354 8.1306c4.65266-1.18108 9.23284-3.68979 12.57142-5.88073m-6.47566 10.9101c5.03574-1.8437 9.90422-6.11807 14.37132-9.11259m-4.98636 11.13309c4.69407-2.87506 8.53359-6.57281 11.82995-10.00457" fill="none"/><g fill-rule="evenodd"><path d="m381.05899 140.78874c-4.22259 27.00644 3.35689 33.53466 19.20476 41.94241 7.50144 3.9781 28.40017 9.43593 27.6603 20.03224 3.55122-6.08621.0279-16.25563 3.5775-21.62029-2.71896-7.54603-17.70272-12.62238-24.16324-16.57579-9.3085-5.69756-14.38246-14.44777-7.80168-29.97707-2.36615 1.43992-4.23614 3.23344-6.52424 5.07714-3.35052 2.69906-7.33498 3.07337-11.9534 1.12136z" fill="#ffd300"/><path d="m429.71201 191.96957c.008-4.07287-.0279-8.07963 1.78954-10.82647-2.71896-7.54603-17.70272-12.62238-24.16324-16.57579-9.3085-5.69756-14.38246-14.44777-7.80168-29.97707-2.36615 1.43992-4.23614 3.23344-6.52424 5.07714-1.12932.90951-2.33111 1.55381-3.60458 1.93529-3.67227 18.33269 2.6226 25.44707 14.39282 32.04616 6.98138 3.96615 24.92223 9.23285 25.90739 18.31358l.004.007z" fill="#005bb9"/></g></g><path d="m361.19241 312.74198c6.2224.35679 12.44479.3321 18.66798-.098m-10.51348-8.4643c-.25724 3.333-2.14236 7.36843-.98198 15.25454" fill="none" stroke-width="1.200004"/></g><g transform="matrix(-1 0 0 1 455.99762 0)"><path d="m325.94307 325.42569c13.06121-6.11249 25.11814-17.70431 38.57119-28.01471 10.4641-8.0191 22.21441-14.4852 30.19609-22.00416 6.85236-6.45654 13.97948-12.29824 18.78983-20.79122m-45.33515 58.07302c-10.04519 6.02568-19.48351 10.23553-29.6832 14.396m30.71854-33.8811c66.37086-53.18939 22.2399-85.67438 38.38244-125.13517m-.67695 66.7643c3.11478-11.6213 23.3716-14.3984 28.95129-23.96812" fill="none" stroke-width="1.200004"/><g stroke-width=".800003"><g fill="#c93" fill-rule="evenodd"><path d="m410.18788 260.2813c6.18974.50652 12.3094-2.23076 18.5302-6.34743-7.43852.56307-13.95081 2.15192-18.5302 6.34743z"/><path d="m434.87596 212.70345c4.55948 3.14982 10.47366 3.70811 17.06639 3.22309-5.98825-2.86072-11.70651-4.49974-17.06639-3.22309z"/><path d="m368.42466 312.63446c5.98426-1.66132 10.78267-6.34345 15.20038-12.35399-6.78705 3.09566-12.35081 6.83563-15.20038 12.35399z"/><path d="m431.09697 181.73882c4.32215-4.46152 6.09258-10.92682 6.86192-18.34622-4.2879 6.10372-7.19562 12.14374-6.86192 18.34622z"/><path d="m409.81914 133.11129c5.85525.56546 11.6882-1.94245 17.63583-5.7541-7.05147.43007-13.24041 1.8445-17.63583 5.7541z"/><path d="m399.39008 112.22689c-5.43234 3.30035-8.85693 9.244-11.53687 16.39182 5.82339-4.93538 10.26341-10.16465 11.53687-16.39182z"/><path d="m412.25777 167.71235c4.80318 2.74604 10.7739 2.84799 17.34752 1.87556-6.21364-2.355-12.06808-3.5313-17.34752-1.87556z"/><path d="m413.94219 242.78247c-5.12892 3.50183-11.80129 4.15091-19.24379 3.65076 6.74245-3.19123 13.18864-5.03175 19.24379-3.65076z"/><path d="m370.58454 92.944881c2.18297 7.150219 2.711 13.926919 9.89148 18.596299 5.23483 3.40388 10.86947 4.79761 16.67693 2.30801 2.70065-1.15799 5.2659-3.90801 8.41811-3.09885-2.01572-2.3319-1.84051-8.07167-3.03434-11.184062-2.64728-6.902531-7.92672-10.577988-14.63891-11.121144-6.9312-.562269-11.37122 3.261321-17.31327 4.499747z"/></g><path d="m370.60524 93.024523c11.83394 4.307014 23.35329 9.326027 34.41232 17.228057" fill="none"/><path d="m371.98304 97.995747c1.70115-.193529 3.67466-1.729814 5.96595-2.156692m-4.45993 6.916865c3.15222-.2437 7.7778-3.281229 11.77182-3.802085m-8.72234 9.126125c3.95978-.39502 10.74444-5.2882 15.57072-5.76286m-10.81055 9.73936c4.7769-.89119 11.48909-5.73658 16.34324-6.63016m-9.23284 9.44549c4.15808-1.3555 9.23045-5.68083 13.7087-6.61981m-24.39659-17.778376c1.62309 1.945643 3.21433 4.612042 3.90323 6.873065m1.58168-8.62916c2.58277 3.657935 4.3094 8.215024 5.34793 11.793321m2.02449-11.663506c2.45295 4.361967 3.31308 10.345436 4.6638 15.178086m3.21673-10.918856c1.58566 4.886008 2.0651 9.836526 2.32075 14.269376" fill="none"/><path d="m386.16003 61.309671c-3.10363 7.933889-7.42179 14.364147-4.30542 23.614511 2.27217 6.743249 6.32354 11.972512 13.27386 13.852849 3.23344.874464 7.46958.230164 9.71547 3.180879-.15291-3.508206 4.06172-8.514473 5.19501-12.141348 2.5127-8.04061.39264-15.057825-5.22209-20.288681-5.7987-5.402882-12.47027-5.124137-18.65683-8.21821z" fill="#c93" fill-rule="evenodd"/><path d="m386.1226 61.395684c7.5325 12.215418 14.28053 24.845769 18.57878 39.725996" fill="none"/><path d="m383.83928 66.812901c1.65734 1.028968 4.50771 1.051268 6.85793 2.29049m-8.87684 3.028768c2.98894 2.010949 9.27186 2.56605 13.20934 4.924236m-14.24707 1.991038c3.81881 2.445792 13.34155 2.868688 17.99102 5.856839m-16.54792 1.062418c4.89955 2.580386 14.32512 2.994522 19.29476 5.628267m-14.92961 1.914583c4.67496 1.728221 12.26639 1.447883 16.93259 3.775008m-9.23762-33.138842c.0757 2.887005-.38706 6.395215-1.36984 8.903127m7.51498-6.594319c-.27875 5.095465-1.95679 10.389238-3.55838 14.321937m10.05554-8.993918c-.89119 5.633045-4.35241 11.588639-6.56167 16.863298m10.59392-7.485508c-2.03644 5.488098-5.10741 10.252255-8.01274 14.394411" fill="none"/><path d="m417.4727 86.892125c-7.46321 5.128118-15.09765 8.208653-17.87395 18.204465-2.0237 7.2872-1.5785 14.30362 3.41423 20.10391 2.32155 2.69746 6.43265 4.65823 6.64847 8.59332 1.95759-3.1777 8.65146-5.06759 11.81164-7.58187 7.00686-5.57411 9.32762-13.01104 7.5086-20.96245-1.87794-8.211044-7.91318-11.945435-11.50899-18.357375z" fill="#c93" fill-rule="evenodd"/><path d="m417.38748 86.944688c-.66023 15.239412-2.25784 30.374482-7.3533 46.028822" fill="none"/><path d="m412.14786 90.348567c.8442 1.893876 3.33858 3.613337 4.667 6.10532m-9.61592-2.629763c1.43036 3.551216 6.62617 7.787346 8.68252 12.210636m-13.72065-6.747227c1.90105 4.429667 10.02528 10.481627 12.33329 15.883707m-15.19082-8.93578c2.77072 5.19183 10.81452 11.17849 13.61631 16.46031m-14.27575-7.22189c3.08133 4.30861 9.92652 8.59093 12.64389 13.42199m11.64121-34.661592c-1.65575 2.583571-4.1557 5.394917-6.51627 7.014032m10.54454-1.318866c-3.28442 4.317366-7.91876 7.972116-11.67306 10.476846m14.21044-1.91379c-4.14455 4.42329-10.74126 7.5978-15.83115 10.92045m13.78436-.26521c-5.0652 3.61175-10.60825 5.97152-15.63523 7.88213" fill="none"/><path d="m442.72862 142.45245c-7.32145-1.51239-13.52074-4.29826-21.062-.23654-5.49766 2.96108-9.42159 7.23783-10.02209 13.52791-.27875 2.92524.90393 6.49477-1.31727 8.87287 3.01204-.65067 7.96574 2.25545 11.26927 2.70064 7.32623.98596 13.08352-1.88432 16.77888-7.51338 3.81643-5.81383 2.59074-11.54324 4.35321-17.3515z" fill="#c93" fill-rule="evenodd"/><path d="m442.64898 142.43254c-9.45425 8.31935-19.38236 16.02228-31.61928 21.93726" fill="none"/><path d="m437.62519 141.25783c-.6451 1.58566-.24291 4.05455-.96765 6.27017m-3.9311-7.23065c-1.29816 2.88223-.84978 8.3982-2.30881 12.1533m-3.82598-12.03065c-1.55142 3.6651-.5113 11.96454-2.40916 16.42766m-3.36326-14.15708c-1.50761 4.61921-.47466 12.83343-2.01811 17.52113m-3.86103-12.63194c-.80437 4.29905.55909 10.82408-.76535 15.20516m27.30032-12.88441c-2.48561.49139-5.58845.60926-7.90283.12902m6.81413 5.52633c-4.44957.5121-9.27585-.15769-12.91387-.96207m9.2647 7.36923c-5.00468.0613-10.66719-2.05316-15.55638-3.18486m8.03981 8.05813c-5.04768-.95172-9.62229-2.90453-13.63463-4.80557" fill="none"/><path d="m449.19472 267.22605c-7.49507-3.96695-13.36545-8.96446-22.86509-6.92802-6.92563 1.48452-12.55469 4.89955-15.19959 11.55997-1.23046 3.09805-1.07277 7.36047-4.24489 9.24797 3.48671.2453 7.96176 4.97919 11.4198 6.5099 7.66709 3.39432 14.84598 2.09059 20.65344-2.87028 5.9986-5.12334 6.47724-11.7519 10.23633-17.51954z" fill="#c93" fill-rule="evenodd"/><path d="m449.11428 267.17826c-12.9314 6.06789-26.18455 11.31308-41.38573 13.88072" fill="none"/><path d="m444.01483 264.30798c-1.20498 1.52275-1.54903 4.33887-3.03992 6.52344m-1.99183-9.12055c-2.32633 2.72852-3.58546 8.87844-6.36336 12.50531m-.35759-14.31397c-2.85037 3.49945-4.34524 12.86928-7.82558 17.1293m.81951-16.485c-3.10522 4.5539-4.58098 13.82736-7.74673 18.44498m-.20468-14.98057c-2.23793 4.42727-2.81931 11.96614-5.64897 16.31775m33.81579-5.38775c-2.86311-.25167-6.28053-1.10622-8.64986-2.36217m5.67207 8.1768c-5.00786-.85057-10.05236-3.10921-13.76047-5.13688m7.75709 10.96027c-5.46978-1.51877-10.96823-5.61473-15.93468-8.39581m6.20487 11.32263c-5.19661-2.63454-9.56017-6.20965-13.32881-9.5514" fill="none"/><path d="m439.77312 285.1207c-4.48939-7.19481-7.05544-14.46449-16.29306-17.47415-6.73449-2.19492-13.31686-2.06829-18.94991 2.36297-2.61941 2.06112-4.62319 5.82578-8.31458 5.8648 2.89179 1.96316 4.38427 8.30422 6.60547 11.36485 4.92583 6.78546 11.78775 9.2639 19.30192 7.89088 7.75948-1.41842 11.50263-6.9105 17.65016-10.00935z" fill="#c93" fill-rule="evenodd"/><path d="m439.72693 285.03867c-14.22955-1.24719-28.32372-3.36724-42.75874-8.78127" fill="none"/><path d="m436.75949 279.99577c-1.80707.71199-3.51857 2.97381-5.90463 4.11428m2.85754-8.8872c-3.38158 1.19064-7.55957 5.87675-11.78296 7.61851m6.87943-12.55788c-4.22259 1.59443-10.22119 8.94614-15.37002 10.88222m8.98835-13.84329c-4.97203 2.3781-10.90612 9.65654-15.96256 12.05932m7.34614-13.05802c-4.15888 2.70542-8.44758 8.93259-13.07953 11.27485m31.9474 12.32293c-2.34942-1.65574-4.87565-4.1103-6.29327-6.38565m.79801 9.91935c-3.90323-3.25097-7.13111-7.73797-9.31886-11.3537m1.20339 13.3742c-3.96775-4.06012-6.6652-10.36375-9.56336-15.2625m-.32096 12.90671c-3.16973-4.8876-5.14802-10.17182-6.72891-14.9535" fill="none"/><g fill-rule="evenodd"><g fill="#ffd300"><path d="m384.08696 149.9292c2.99851 3.11398 6.49318 5.45942 10.09696 5.69357 3.66351.10831 8.91348.27476 12.22577-1.5785 2.46889-1.38178 4.02668-4.37471 1.67168-7.12154z"/><path d="m375.04287 134.27167h-.01l-.52244 17.03771c4.05056 7.36605 12.57141 7.54046 19.14662 3.57671 4.51727-2.99612 8.63155-5.16476 11.67624-4.75859 2.26182.30025 3.28044 2.01573 1.80309 3.34256 6.61662-1.34435 11.23901-6.32513 9.74175-13.18545-1.15241-5.27944-6.30522-8.35838-12.56664-7.26729-5.04927.87844-7.63842 3.70014-11.29954 6.65006-3.34972 2.69906-7.56435 3.96456-12.16763 1.9775-3.66272-1.58168-5.45306-5.16873-5.79154-7.37321h-.0103z" stroke-linejoin="bevel"/><path d="m417.2935 187.15684c.82031 5.81542-6.03364 11.12034-15.09924 14.13318l10.57162 14.20248c8.47545-2.81692 15.01801-7.63763 15.16295-13.00547.0765-2.8201-1.39691-6.37212-2.95868-9.03772z"/></g><g fill="#005bb9"><path d="m417.2935 187.15684c.82031 5.81542-6.03364 11.12034-15.09924 14.13318l5.28581 7.10084c9.74813-3.23982 16.92701-9.14364 14.64289-15.46161l-.48979-2.21483z"/><path d="m407.13682 153.47006c6.61662-1.34435 11.23901-6.32513 9.74175-13.18545-1.15241-5.27944-6.30522-8.35838-12.56664-7.26729-5.04927.87844-7.63842 3.70014-11.29954 6.65006-3.34972 2.69906-7.56435 3.96456-12.16763 1.9775-3.66272-1.58168-5.45306-5.16873-5.79154-7.37321h-.0199l-.25963 8.4643c1.16038 2.93798 3.62608 5.72065 7.21712 6.75918 4.03066 1.22887 8.02548.12185 11.34414-2.21881 2.95948-2.2236 5.33359-4.27994 8.84499-5.15281 4.11747-.978 7.58904.34086 8.92622 3.08213 1.87954 3.58068.0773 6.92881-3.96933 8.2644z" stroke-linejoin="bevel"/></g></g></g><path d="m409.75384 132.67565c-4.43842 22.97499-24.01431 29.87275-6.45415 50.51026" fill="none" stroke-width="1.200004"/><g stroke-width=".800003"><g fill-rule="evenodd"><path d="m361.79132 329.12504c-9.22966-.50334-18.58993-2.34306-27.81242-6.26142-11.91198-4.90831-23.80486-9.20895-35.07015 5.28422v13.23085c8.72792-11.376 19.05663-14.10452 30.98693-8.18636 8.97719 4.48063 18.65284 8.19512 28.71236 8.18715 18.16783-.0135 31.02755-10.82488 36.00355-28.20505l8.28432-18.26738c-5.94126 28.58415-32.37349 34.69345-41.10459 34.21799z" fill="#ffd300"/><path d="m361.79132 329.12504c-9.22966-.50334-18.58993-2.34306-27.81242-6.26142-11.91198-4.90831-23.80486-9.20895-35.07015 5.28422v6.61502c9.9966-12.93458 21.1066-12.14852 33.02814-6.73528 10.40995 4.85415 20.31895 7.48471 29.79947 6.88023 14.3753-.90712 25.66847-9.643 32.51764-21.51596l8.13777-18.32233c-5.94125 28.58494-31.86935 34.53098-40.60045 34.05552z" fill="#005bb9"/><path d="m394.21339 313.81873c2.84718-25.94801-3.27566-43.26526-18.43941-58.93314 6.00497-5.60438 8.96764-12.3309 9.84847-21.13766 13.2197 15.61293 24.87444 31.66388 24.82507 50.98094-.0239 9.40088-6.92165 20.39221-16.23493 29.08986z" fill="#ffd300"/><path d="m382.31892 246.15369c1.78318-3.64519 2.83604-7.73319 3.30353-12.40576 13.2197 15.61293 24.87444 31.66388 24.82507 50.98094-.0223 8.91746-6.23116 19.26528-14.81811 27.72958 3.58228-6.72094 5.65933-14.45493 5.96754-22.49873.88004-15.96016-7.4194-30.16503-19.27803-43.80603z" fill="#005bb9"/><path d="m435.67079 130.554c-8.4428.94137-16.12104.11309-22.83881 7.155-4.89795 5.13449-7.63284 11.13548-6.06789 18.14234.72793 3.25893 3.26212 6.69865 1.69956 10.04997 3.02478-1.76247 9.39849-.36556 13.12492-1.04809 8.26281-1.51239 13.47216-6.63892 15.48391-14.02089 2.07784-7.62408-1.26312-13.38296-1.40169-20.27833z" fill="#c93"/></g><path d="m435.57681 130.56037c-7.2864 12.31498-15.30233 24.13059-26.44179 34.82725" fill="none"/><path d="m429.7367 131.05893c-.13938 1.94007 1.16356 4.4655 1.16037 7.11518m-6.79183-6.42867c-.38785 3.57033 2.03723 9.37222 1.78238 13.94205m-8.36714-11.65076c-.38706 4.50532 3.65794 13.10581 3.17849 18.5955m-8.61562-14.11168c-.004 5.52154 4.00279 14.03204 3.98447 19.64039m-8.61562-12.28868c.6427 4.92742 4.41214 11.49784 4.52284 16.69605m24.96205-23.52691c-2.51269 1.40567-5.82339 2.62578-8.49377 2.92125m9.30691 3.57272c-4.62638 2.11847-10.07705 3.09328-14.29008 3.50423m12.60247 4.70204c-5.38536 1.82697-12.24727 1.53469-17.92731 2.03245m11.52095 5.87754c-5.78835.74784-11.41741.24769-16.42129-.39422" fill="none"/><path d="m449.18118 176.02136c-6.90174 2.87267-13.59402 4.06251-17.53707 11.66589-2.87506 5.54384-3.7097 11.28759-.66341 16.82348 1.41762 2.57401 4.40497 4.85733 3.9096 8.07326 2.12245-2.23395 7.85186-2.6218 10.83284-4.11508 6.60945-3.3115 9.74972-8.92543 9.63264-15.65832-.12025-6.9535-4.36037-10.9977-6.1746-16.78923z" fill="#c93" fill-rule="evenodd"/><path d="m449.10313 176.05003c-3.12593 12.19869-6.99173 24.15527-13.77162 35.93426" fill="none"/><path d="m444.29119 177.90806c.35998 1.67407 2.08183 3.48751 2.7317 5.72623m-7.32065-3.76067c.55032 3.11239 4.02747 7.41861 4.93698 11.34254m-9.93687-7.78575c.78128 3.90164 6.31557 10.1742 7.26091 14.93119m-10.7524-9.80467c1.3555 4.6662 6.83563 10.87187 8.19989 15.61532m-10.30402-8.26361c1.7561 4.00597 6.55768 8.62996 7.9307 12.99511m15.30233-26.02287c-1.7768 1.80627-4.27436 3.65157-6.45813 4.55868m8.74384.72872c-3.38795 2.92842-7.7539 5.09308-11.21353 6.47804m11.80606.87128c-4.10074 2.86869-9.97032 4.311-14.64767 6.12922m11.18167 2.13041c-4.70681 2.05714-9.58645 3.02-13.9731 3.70811" fill="none"/><path d="m378.34481 220.67159c2.46968 7.36763 3.20955 14.39361 10.80178 19.04308 5.53509 3.38955 11.42856 4.67894 17.39292 1.92892 2.77391-1.27984 5.36146-4.20905 8.65942-3.45803-2.15988-2.36536-2.13917-8.33369-3.46759-11.53528-2.94594-7.09606-8.53439-10.76674-15.52373-11.14265-7.21791-.38786-11.72403 3.7105-17.8628 5.16396z" fill="#c93" fill-rule="evenodd"/><path d="m378.3687 220.75441c12.41691 4.14136 24.528 9.03135 36.24088 16.9302" fill="none"/><path d="m379.94003 225.88094c1.76247-.25008 3.76943-1.90184 6.13877-2.40995m-4.43922 7.31268c3.26769-.34166 7.98884-3.62847 12.12383-4.28153m-8.80517 9.72822c4.10313-.52245 11.01443-5.79791 16.01592-6.42708m-10.95788 10.42428c4.93777-1.06082 11.77579-6.28451 16.7948-7.34932m-9.32841 10.07386c4.28312-1.52513 9.43115-6.16266 14.05832-7.2641m-25.85084-17.78555c1.74176 1.97591 3.47078 4.70204 4.24967 7.03155m1.4009-9.01064c2.78586 3.72881 4.7084 8.41492 5.88869 12.10312m1.77521-12.17639c2.67118 4.46391 3.7336 10.65603 5.27307 15.64m3.03434-11.43652c1.78477 5.03175 2.42349 10.16226 2.81373 14.76076" fill="none"/><path d="m383.84406 193.45329c-.26441 8.47546-2.16944 15.94663 3.83872 23.58107 4.38028 5.56614 9.92413 9.11816 17.06957 8.56305 3.32344-.25803 7.08093-2.27615 10.17182-.25724-1.31409-3.23902.96764-9.34036.8211-13.11935-.32573-8.37829-4.65425-14.25185-11.6651-17.2838-7.23941-3.1323-13.40287-.6459-20.23611-1.48373z" fill="#c93" fill-rule="evenodd"/><path d="m383.83689 193.54648c11.13866 8.94294 21.68002 18.53577 30.67473 31.05701" fill="none"/><path d="m383.50319 199.38818c1.89706.41255 4.5778-.51767 7.19482-.14017m-7.31348 5.80189c3.47316.8888 9.54981-.68651 14.02965.21185m-12.69725 6.6198c4.3978 1.01941 13.46897-1.76087 18.82566-.50971m-15.16374 6.51707c5.45544.78447 14.43264-1.97033 19.9717-1.15878m-13.36225 6.7751c4.96007.0621 11.98605-2.7333 17.13886-2.10731m-19.71686-27.9956c1.03295 2.68153 1.76964 6.12683 1.68442 8.80677m4.84778-8.69129c1.43912 4.87168 1.63026 10.39482 1.44071 14.61741m6.42947-11.78854c1.0433 5.57969-.21583 12.31975-.52803 18.00297m7.43773-10.5533c-.0797 5.82498-1.36984 11.31706-2.7126 16.17121" fill="none"/><path d="m425.60569 213.80171c-7.54285 3.87456-15.00128 5.82657-18.77071 14.78067-2.74764 6.52822-3.17053 13.09864.7757 19.08052 1.83574 2.78267 5.4212 5.09307 5.15281 8.7749 2.19731-2.71896 8.63952-3.67705 11.87455-5.63623 7.17252-4.34285 10.21403-10.9746 9.47177-18.57718-.76615-7.85027-5.92772-12.03862-8.50412-18.42268z" fill="#c93" fill-rule="evenodd"/><path d="m425.52047 213.84073c-2.42827 14.07664-5.71507 27.94542-12.31258 41.87871" fill="none"/><path d="m420.2482 216.37811c.55829 1.86043 2.67038 3.7543 3.60776 6.22717m-8.6188-3.58865c.90552 3.46999 5.22687 8.02309 6.61104 12.3771m-11.94145-7.90204c1.23763 4.34126 8.06371 10.9308 9.56415 16.22298m-13.04608-10.10969c1.9552 5.1528 8.71358 11.67226 10.6871 16.91108m-12.40019-8.40855c2.34863 4.36993 8.19751 9.16276 10.14554 13.9739m14.94234-30.81012c-1.84609 2.20368-4.50293 4.51647-6.88819 5.73976m9.95121.0311c-3.56476 3.61812-8.30502 6.46212-12.09039 8.34086m13.42757-.0852c-4.37631 3.61573-10.88302 5.778-16.00636 8.25803m12.83583 1.39532c-5.13529 2.75242-10.56525 4.28313-15.46241 5.45943" fill="none"/><path d="m426.62351 306.6271c-7.13748-5.76366-12.33648-12.28471-22.84438-12.08958-7.66072.14335-14.34424 2.60427-18.53259 9.12931-1.94723 3.03434-2.66162 7.59302-6.4199 8.94055 3.65077.98198 7.42259 6.93439 10.77709 9.27585 7.43852 5.19104 15.331 5.29298 22.52502 1.22808 7.42896-4.19871 9.3093-11.13867 14.49476-16.48421z" fill="#c93" fill-rule="evenodd"/><path d="m426.54785 306.55941c-14.98695 3.76624-30.14432 6.59272-46.81648 6.17301" fill="none"/><path d="m421.72715 302.45627c-1.59443 1.36825-2.54216 4.28631-4.5778 6.29726m-.22698-10.09616c-3.03514 2.41553-5.64499 8.68491-9.34514 11.96137m2.58278-15.27286c-3.75112 3.12593-7.27764 12.76494-11.85464 16.56783m4.28232-17.33319c-4.23932 4.19154-7.72602 13.73339-12.04339 17.98067m2.88302-15.94901c-3.29238 4.23772-5.46978 12.12224-9.3746 16.15767m37.02057 1.27825c-2.98815-.86013-6.43982-2.47446-8.69526-4.29825m4.33011 9.85643c-5.14166-1.94007-10.03085-5.38297-13.54782-8.30342m5.96754 13.24359c-5.49288-2.74445-10.48322-8.23175-15.18127-12.21224m4.24489 13.30651c-4.97282-3.87297-8.86649-8.57261-12.1756-12.90113" fill="none"/><path d="m371.88508 261.82157c-6.48839 5.46022-13.32323 9.02737-14.99968 18.5963-1.2217 6.9766-.16805 13.47614 5.01423 18.42666 2.40995 2.30323 6.4207 3.7551 6.97978 7.40348 1.53549-3.13947 7.60179-5.51199 10.31836-8.14255 6.02249-5.83454 7.50781-12.97759 5.0875-20.22258-2.49915-7.48153-8.4643-10.41234-12.40019-16.06131z" fill="#c93" fill-rule="evenodd"/><path d="m371.81102 261.87891c.77332 14.263.66421 28.51565-2.65844 43.57029" fill="none"/><path d="m367.2372 265.52888c.95968 1.6884 3.44052 3.06381 4.90592 5.26511m-9.20098-1.57531c1.65654 3.18008 6.88501 6.65484 9.20497 10.58993m-13.40288-5.03812c2.17501 3.955 10.29924 8.85614 12.94255 13.68002m-14.97341-6.94394c3.05664 4.58655 11.09885 9.43354 14.19133 14.10053m-13.96355-5.42996c3.2645 3.73519 10.03483 7.10243 13.00785 11.35768m7.69098-33.36741c-1.30771 2.55968-3.38158 5.40686-5.43394 7.1319m9.70751-2.19014c-2.66799 4.32294-6.65405 8.1521-9.92493 10.82806m13.06997-3.07815c-3.45963 4.49975-9.31886 8.06052-13.75967 11.6213m12.82309-1.50443c-4.39144 3.82837-9.34275 6.5322-13.85445 8.77172" fill="none"/><g fill="#c93" fill-rule="evenodd"><path d="m376.14989 354.69316c4.0872-5.99223 8.89596-10.50472 8.07246-18.7739-.5997-6.02887-2.96505-11.13946-8.3743-14.02408-2.51588-1.34196-6.1539-1.61433-7.45525-4.49099-.54156 2.93957-4.99193 6.29089-6.62378 9.08392-3.61732 6.19292-3.19602 12.4201.4667 17.83014 3.78138 5.58845 9.37062 6.62857 13.91417 10.37491z"/><path d="m376.19767 354.62865c-3.92234-11.57112-7.11517-23.33736-7.84548-36.5037"/><path d="m379.1245 350.56852c-1.17949-1.16993-3.54007-1.73061-5.25395-3.20637m7.94265-.82269c-2.09696-2.23793-7.20438-3.89527-10.02209-6.60308m12.20108 1.06321c-2.70224-2.75719-10.52383-4.92264-13.81223-8.28829m13.93329 2.27217c-3.57352-3.07496-11.31547-5.21493-14.93757-8.34723m12.753 1.25674c-3.54962-2.32473-9.90183-3.53927-13.3304-6.36017m1.34913 29.25791c.4874-2.40915 1.54026-5.23245 2.83364-7.12632m-7.49188 4.04021c1.20179-4.1756 3.60299-8.24767 5.68163-11.20556m-10.05793 5.54624c1.81344-4.50373 5.8202-8.78606 8.65863-12.74265m-10.21721 4.19233c2.73568-4.16525 6.19212-7.5325 9.39212-10.41711"/><path d="m321.94267 302.90705c6.75918-4.30304 11.9096-9.45425 21.01024-8.25565 6.63493.87367 12.19471 3.66351 15.19082 9.73698 1.39293 2.82409 1.56655 6.85076 4.69726 8.38784-3.2653.49537-7.12154 5.29218-10.26181 6.99572-6.96465 3.7766-13.82418 3.09327-19.66987-1.13967-6.03682-4.37073-6.98934-10.57799-10.96664-15.72522z"/></g><path d="m322.01515 302.85607c12.63831 4.73549 25.51715 8.67297 40.02783 9.94006" fill="none"/><path d="m326.60011 299.76678c1.25037 1.34276 1.78795 3.96933 3.35689 5.91338m1.18586-8.74065c2.39721 2.39322 4.04898 8.08998 6.93917 11.29635m-.74624-13.5088c2.94992 3.08054 5.06679 11.79173 8.66659 15.54046m-2.01971-15.4632c3.26929 4.05375 5.36147 12.67574 8.69208 16.78445m-.94057-14.12443c2.44261 4.0004 3.56078 11.05664 6.5545 14.94155m-32.25482-2.51508c2.67675-.45395 5.83135-1.51717 7.96734-2.87904m-4.72354 8.1306c4.65266-1.18108 9.23284-3.68979 12.57142-5.88073m-6.47566 10.9101c5.03574-1.8437 9.90422-6.11807 14.37132-9.11259m-4.98636 11.13309c4.69407-2.87506 8.53359-6.57281 11.82995-10.00457" fill="none"/><g fill-rule="evenodd"><path d="m381.05899 140.78874c-4.22259 27.00644 3.35689 33.53466 19.20476 41.94241 7.50144 3.9781 28.40017 9.43593 27.6603 20.03224 3.55122-6.08621.0279-16.25563 3.5775-21.62029-2.71896-7.54603-17.70272-12.62238-24.16324-16.57579-9.3085-5.69756-14.38246-14.44777-7.80168-29.97707-2.36615 1.43992-4.23614 3.23344-6.52424 5.07714-3.35052 2.69906-7.33498 3.07337-11.9534 1.12136z" fill="#ffd300"/><path d="m429.71201 191.96957c.008-4.07287-.0279-8.07963 1.78954-10.82647-2.71896-7.54603-17.70272-12.62238-24.16324-16.57579-9.3085-5.69756-14.38246-14.44777-7.80168-29.97707-2.36615 1.43992-4.23614 3.23344-6.52424 5.07714-1.12932.90951-2.33111 1.55381-3.60458 1.93529-3.67227 18.33269 2.6226 25.44707 14.39282 32.04616 6.98138 3.96615 24.92223 9.23285 25.90739 18.31358l.004.007z" fill="#005bb9"/></g></g><path d="m361.19241 312.74198c6.2224.35679 12.44479.3321 18.66798-.098m-10.51348-8.4643c-.25724 3.333-2.14236 7.36843-.98198 15.25454" fill="none" stroke-width="1.200004"/></g><g fill-rule="evenodd" stroke-width=".800003"><path d="m172.35536 326.43793c-5.79393-8.88958-11.82279-8.88879-17.61671 0 1.45664 5.6434 1.45664 10.85037 0 16.49377 5.79392 8.88879 11.82278 8.88879 17.61671 0-1.45665-5.6434-1.45665-10.85037 0-16.49377z" fill="#ffd300"/><path d="m163.547 319.77114c-2.95549 0-5.91179 2.222-8.80835 6.66679 1.45664 5.6434 1.45664 10.85037 0 16.49377 2.89656 4.44399 5.85286 6.66599 8.80835 6.66679z" fill="#005bb9"/><g fill="#fff"><path d="m180.36172 105.24711-.0287-2.17103c1.68123-.72553 2.21802-2.55092 1.52912-4.175605l-3.04709-7.172516 2.56844-.868093 2.55649 7.68939c.97322 2.255444 1.45426 3.250174 4.27755 3.403084 1.84131.10035 5.3774.0199 5.83534 1.45346l-.0287 1.84131h-13.66251z"/><path d="m147.63622 105.24711.0279-2.17103c-1.68044-.72553-2.21802-2.55092-1.52912-4.175605l3.04789-7.172516-2.56844-.868093-2.55729 7.68939c-.97322 2.255444-1.45426 3.250174-4.27755 3.403084-1.84131.10035-5.3774.0199-5.83534 1.45346l.0287 1.84131h13.66331z"/><path d="m130.67496 22.96705c5.42598 0 9.82697 4.400195 9.82697 9.826173 0 5.426774-4.40099 9.826969-9.82697 9.826969s-9.82617-4.400195-9.82617-9.826969c0-5.425978 4.40019-9.826173 9.82617-9.826173z"/><path d="m197.32298 22.96705c-5.42598 0-9.82697 4.400195-9.82697 9.826173 0 5.426774 4.40099 9.826969 9.82697 9.826969s9.82617-4.400195 9.82617-9.826969c0-5.425978-4.40019-9.826173-9.82617-9.826173z"/><path d="m182.07083 36.978385.59651 17.066385c.14495 4.162066-1.96874 7.615323-4.72115 7.71169-2.75241.09557-5.10183-3.20159-5.24678-7.363657l-.58377-16.712776z"/><path d="m191.98142 34.990533.59572 17.065588c.14574 4.162863-1.96874 7.61612-4.72036 7.712486-2.75161.09557-5.10183-3.20159-5.24758-7.363656l-.58297-16.713573z"/><path d="m136.01652 34.990533-.59572 17.065588c-.14575 4.162863 1.96794 7.61612 4.72035 7.712486 2.75162.09557 5.10184-3.20159 5.24758-7.363656l.58377-16.713573z"/><path d="m145.92711 36.978385-.59652 17.066385c-.14574 4.162066 1.96874 7.615323 4.72115 7.71169 2.75162.09557 5.10184-3.20159 5.24679-7.363657l.58457-16.712776z"/><path d="m191.98062 34.990533.59572 17.065588c.14575 4.162863-1.96794 7.61612-4.72035 7.712486-2.75241.09557-5.10104-3.20159-5.24679-7.363656l-.58457-16.713573z"/><path d="m182.07083 36.978385.59572 17.066385c.14574 4.162066-1.96874 7.615323-4.72036 7.71169-2.75241.09557-5.10263-3.20159-5.24678-7.363657l-.58377-16.712776z"/><path d="m153.85861 41.932089c-6.81413.279542-13.74931-2.002188-18.50153-7.07854l3.43813-4.232151c3.70891 4.34126 9.49805 6.213633 15.0634 5.92533z"/><path d="m140.52582 28.490987c3.13151 3.978095 8.23095 5.657735 13.33279 5.360672v5.386953c-6.38168.293081-12.61283-1.866798-16.78525-6.497953z"/><path d="m174.13933 41.932089c6.81333.279542 13.74851-2.002188 18.49993-7.07854l-3.43813-4.232151c-3.70811 4.34126-9.49645 6.213633-15.0618 5.92533z"/><path d="m187.47132 28.490987c-3.13151 3.978095-8.23095 5.657735-13.33199 5.360672v5.386953c6.38088.293081 12.61283-1.866798 16.78445-6.497953z"/><path d="m163.99857.39823187c3.37521 0 6.11249 2.73727953 6.11249 6.11248783 0 2.5286187-.18796 5.0094523-.039 7.5380713.14177 2.422695.38786 5.800293 1.70991 9.375401 3.29397 5.585261 5.43394 14.619797 5.43394 24.815506 0 16.954887-5.91816 36.846953-13.21651 36.846953-7.29915 0-13.17351-23.124716-13.21811-36.846953-.0279-8.931798 1.58009-16.907898 5.2444-24.950896 1.74415-3.829962 3.59024-7.963357 3.59024-10.965047 0-2.3510178-1.72902-3.1283192-1.72902-5.8130353 0-3.3752083 2.73728-6.11248783 6.11169-6.11248783z"/><path d="m173.90518 71.26327-12.69725 12.69725m-4.12384-60.795959-1.78556 1.78636m11.05902-1.78636-14.80616 14.806954m21.46101-12.186747-22.23114 22.230341m24.61322-15.338959-24.00794 24.008737m25.41042-16.136968-24.04059 24.04139m24.44995-15.175694-22.50192 22.501122m21.72064-12.446379-19.09486 19.094855m-2.64489-6.709003 12.19073 12.191526m4.03782-60.881175 1.60637 1.60637m-10.87983-1.60637 14.8197 14.820493m-21.49605-12.222586 22.25185 22.252641m-24.56384-15.288785 24.09475 24.093953m-25.5498-16.27634 24.31217 24.311375m-24.70879-15.433733 22.80536 22.804557m-21.77639-12.501332 19.09565 19.096447"/><path d="m160.49514 9.1755254c-.53201-.6458928-1.33798-1.0568431-2.23872-1.0568431-1.29896 0-2.39881.8537572-2.76834 2.0300627-.37193-.5877545-.58696-1.2838215-.58696-2.0300627 0-1.9719244 1.49885-3.5942225 3.41901-3.7893443 1.67725.371926 3.18646 2.5764037 2.17501 4.8461874z"/><path d="m163.28896 3.8570637c.72633 0 1.31489.588551 1.31489 1.3140854 0 .7263308-.58856 1.3156781-1.31489 1.3156781s-1.31488-.5893473-1.31488-1.3156781c0-.7255344.58855-1.3140854 1.31488-1.3140854z"/><path d="m161.09484 4.9218711c1.04012-1.2495757 2.9555-1.5458422 4.42329-.9724232"/><path d="m171.7907 21.890297c.88163 0 1.59681.715977 1.59681 1.598405 0 .881632-.71518 1.597609-1.59681 1.597609-4.50692 0-10.54215 0-15.58267 0-.88242 0-1.5976-.715977-1.5976-1.597609 0-.882428.71518-1.598405 1.5976-1.598405z"/><path d="m170.24645 78.166598 6.75997 23.833522-13.00785 2.8663-13.00785-2.8663 6.76077-23.833522z"/><path d="m167.11016 78.166598 3.5783 25.225662m-6.70104-25.225662v26.697432m-3.12354-26.697432-3.5775 25.220882"/><path d="m156.41988 77.926877c0-1.0664.88163-1.932104 1.96794-1.932104h11.22229c1.08631 0 1.96794.865704 1.96794 1.932104 0 4.429662-15.15817 4.429662-15.15817 0z"/><path d="m155.52391 67.972481c1.97193.678546 2.312 4.883619.75978 9.389737-1.28939 3.744745-4.18038 6.719357-5.26589 10.566043-.74943 2.658434-.93738 6.523438.37272 9.014625-2.08183.320956-4.11747-2.206867-4.05296-4.321349-1.33479 1.314881-3.74156 1.191437-4.88999-.625186 2.56207-.588551 4.38427-2.687902 5.06679-5.155993 1.06322-3.842705.3122-8.106712 1.63027-11.935877 1.55221-4.506118 4.40895-7.610545 6.37928-6.932z"/><path d="m172.47323 67.972481c-1.97034.678546-2.3112 4.883619-.75899 9.389737 1.2894 3.744745 4.18039 6.719357 5.2651 10.566043.75102 2.658434.93818 6.523438-.37113 9.014625 2.08104.320956 4.11588-2.206867 4.05296-4.321349 1.334 1.314881 3.74076 1.191437 4.8884-.625186-2.56127-.588551-4.38347-2.687902-5.0668-5.155993-1.06241-3.842705-.3106-8.106712-1.62946-11.935877-1.55221-4.506118-4.40896-7.610545-6.38008-6.932z"/><path d="m122.63116 98.56837c-.13618 3.89527-3.40626 6.94395-7.30074 6.80776-.38466-.0135-.68651-.30901-.67217-.72076.0143-.41174.33768-.7319.72076-.67217.95649-.18158 1.70034-1.05207 1.73698-2.12245l1.96874-56.379834h.005l.36636-10.374903c.33688-4.593724.59492-10.124829 4.53797-13.218902 4.04181-3.172122 10.43463-2.825682 14.20168 1.072771 2.37889 2.460924 3.26928 5.87436 2.66082 9.120549-.55191 2.942755-2.39721 5.594021-5.43235 6.223986-2.53658.527227-5.32324-.462717-6.80537-2.778693-1.21533-1.898654-1.30612-4.265601-.26441-6.260621.68572-1.315679 2.31041-1.826181 3.62449-1.138874 1.31727.687306 1.82618 2.309604 1.13967 3.625282-.22379.430065-.0549.969238.37909 1.196216.32892.170433.89597.146541 1.20498-.07247.5559-.395022.83146-1.20418.92942-2.022098.18158-1.512393-.21981-3.028768-1.29975-4.146138-2.07068-2.142358-5.35191-2.018117-7.23623.02389-1.95998 2.12404-2.06033 5.862413-2.26023 8.562261l-.35361 10.187746h.002l-1.85326 53.087454z"/><path d="m205.36677 98.56837c.13619 3.89527 3.40547 6.94395 7.29995 6.80776.38466-.0135.6873-.30901.67217-.72076-.0143-.41174-.33768-.7319-.72076-.67217-.95649-.18158-1.70034-1.05207-1.73698-2.12245l-1.96874-56.379834h-.005l-.36636-10.374903c-.33688-4.593724-.59492-10.124829-4.53797-13.218902-4.04181-3.172122-10.43304-2.825682-14.20168 1.072771-2.37889 2.460924-3.26928 5.87436-2.66003 9.120549.55192 2.942755 2.39642 5.594021 5.43235 6.223986 2.53579.527227 5.32245-.462717 6.80458-2.778693 1.21533-1.898654 1.30612-4.265601.2652-6.260621-.68651-1.315679-2.3112-1.826181-3.62528-1.138874-1.31648.687306-1.82618 2.309604-1.13887 3.625282.22299.430065.0549.969238-.3799 1.196216-.32891.170433-.89596.146541-1.20577-.07247-.5543-.395022-.83066-1.20418-.92941-2.022098-.17999-1.512393.2206-3.028768 1.30054-4.146138 2.07068-2.142358 5.35191-2.018117 7.23623.02389 1.95998 2.12404 2.06112 5.862413 2.26102 8.562261l.35282 10.187746h-.002l1.85405 53.087454z"/><path d="m130.26003 90.654391c-.13619 3.895267-3.40548 6.944742-7.30074 6.808554-.38388-.01354-.68572-.308212-.67138-.720755.0143-.411747.33768-.731906.71996-.671379.95649-.182379 1.70035-1.052861 1.73778-2.123243l1.69636-48.576558 5.39333.187954z"/><path d="m197.73791 90.654391c.13619 3.895267 3.40547 6.944742 7.30074 6.808554.38387-.01354.68571-.308212.67217-.720755-.0151-.411747-.33768-.731906-.72075-.671379-.95729-.182379-1.70035-1.052861-1.73778-2.123243l-1.69557-48.576558-5.39412.187954z"/><path d="m137.99481 79.721201c-.13539 3.895267-3.40467 6.943945-7.30074 6.807758-.38387-.01274-.68571-.308213-.67138-.719959.0151-.412543.33768-.732702.71996-.672175.9573-.182379 1.70035-1.052065 1.73778-2.122447l1.40408-40.217382 5.39333.187954z"/><path d="m190.00312 79.721201c.1346 3.895267 3.40388 6.943945 7.29995 6.807758.38387-.01274.68571-.308213.67217-.719959-.0151-.412543-.33847-.732702-.72075-.672175-.9573-.182379-1.70035-1.052065-1.73778-2.122447l-1.40408-40.217382-5.39333.187954z"/><path d="m130.26003 90.654391c-.13619 3.895267-3.40548 6.944742-7.30074 6.808554-.38388-.01354-.68572-.308212-.67138-.720755.0143-.411747.33768-.731906.71996-.671379.95649-.182379 1.70035-1.052861 1.73778-2.123243l1.69636-48.576558 5.39333.187954z"/><path d="m139.11855 42.840002c1.111 0 2.01095.900746 2.01095 2.011745 0 1.109407-.89995 2.010153-2.01095 2.010153h-19.61252c-1.1102 0-2.01015-.900746-2.01015-2.010153 0-1.110999.89995-2.011745 2.01015-2.011745z"/><path d="m139.11855 38.818901c1.111 0 2.01095.900746 2.01095 2.010153 0 1.110999-.89995 2.010948-2.01095 2.010948h-19.61252c-1.1102 0-2.01015-.899949-2.01015-2.010948 0-1.109407.89995-2.010153 2.01015-2.010153z"/><path d="m188.87859 38.818901c-1.11021 0-2.01095.900746-2.01095 2.010153 0 1.110999.90074 2.010948 2.01095 2.010948h19.61332c1.1102 0 2.01095-.899949 2.01095-2.010948 0-1.109407-.90075-2.010153-2.01095-2.010153z"/><path d="m188.87859 42.840002c-1.11021 0-2.01095.900746-2.01095 2.011745 0 1.109407.90074 2.010153 2.01095 2.010153h19.61252c1.1102 0 2.01175-.900746 2.01175-2.010153 0-1.110999-.90155-2.011745-2.01175-2.011745z"/><path d="m117.97373 77.299302 5.59481-5.594818m.48582 9.978288.36237-.362369m.79721-.798008 5.59561-5.594818m-4.96326-12.492571 5.59482-5.594818m1.59681 10.208452 5.59482-5.594818m-6.02408 17.879524 5.59481-5.594817"/><path d="m210.02341 77.299302-5.59481-5.594818m-.48582 9.978288-.36237-.362369m-.79721-.798008-5.59482-5.594818m4.96326-12.492571-5.59561-5.594818m-1.59681 10.208452-5.59482-5.594818m6.02408 17.879524-5.59481-5.594817"/></g><path d="m215.41355 88.486548c1.24082.67536 2.62738 1.376206 4.34604.829068 1.49089-.47307 1.63106-2.261819 1.07277-3.484317-1.39213-3.042306-6.86191-4.756192-10.56206.136984 1.80309.794822 3.52016 1.63504 5.14325 2.518265z" fill="#005bb9"/><path d="m112.58359 88.486548c-1.24082.67536-2.62738 1.376206-4.34604.829068-1.49089-.47307-1.63106-2.261819-1.07277-3.484317 1.39213-3.042306 6.86271-4.756192 10.56206.136984-1.80229.794822-3.52016 1.63504-5.14325 2.518265z" fill="#005bb9"/><path d="m202.69798 99.547164c-4.1987 7.420996 4.24808 2.565256 7.00687 9.420006 3.00248 7.46081 11.08052 1.4439 13.89665 6.81014.27874-.63872 5.03016-12.6184 3.99322-10.13199-2.81692-5.36705-10.42268.71358-13.65613-6.650071z" fill="#ffd300"/><path d="m125.29916 99.547164c4.19949 7.420996-4.24808 2.565256-7.00687 9.420006-3.00248 7.46081-11.08052 1.4439-13.89665 6.81014-.27874-.63872-5.029361-12.6184-3.99243-10.13199 2.81613-5.36705 10.42269.71358 13.65614-6.650071z" fill="#ffd300"/><path d="m213.45756 100.19704c3.23344 7.36445 10.84001 1.28382 13.65613 6.65007l3.7551-8.999496c-2.77232-5.282623-9.89546.758984-13.20138-6.07426z" fill="#005bb9"/><path d="m114.53958 100.19704c-3.23344 7.36445-10.83921 1.28382-13.65613 6.65007l-3.755099-8.999496c2.772322-5.282623 9.895459.758984 13.201379-6.07426z" fill="#005bb9"/><path d="m163.99857 96.183902c19.16096 0 35.91196 3.789345 46.4788 9.654148l9.53787-16.612428c-1.83733.70642-3.29955-.03026-4.60169-.739074-12.58973-6.853154-30.82525-11.161761-51.41498-11.161761s-38.82525 4.308607-51.41498 11.161761c-1.30214.70881-2.76436 1.445494-4.60169.739074l9.53787 16.612428c10.56684-5.864803 27.31784-9.654148 46.4788-9.654148z" fill="#ffd300"/><path d="m214.81385 98.285643 5.20139-9.060021c-1.83733.70642-3.29955-.03026-4.60169-.739074-12.58973-6.853154-30.82525-11.161761-51.41498-11.161761s-38.82525 4.308607-51.41498 11.161761c-1.30214.70881-2.76436 1.445494-4.60169.739074l5.20218 9.060021c11.59263-7.004473 29.99779-11.531298 50.81449-11.531298s39.22186 4.526825 50.81528 11.531298z" fill="#005bb9"/><path d="m247.59112 221.76586.43405-116.04488h-167.618355l-.434047 116.04488c0 46.2781 37.530282 83.80918 83.809172 83.80918 46.2789 0 83.80918-37.53108 83.80918-83.80918z" fill="#fff"/></g></g><path d="m245.20745 221.51021v-112.93408h-161.99805l-.419711 112.93408c0 44.84376 36.365921 81.20888 81.208881 81.20888s81.20888-36.36512 81.20888-81.20888z" fill="#da231d" fill-rule="evenodd"/><g stroke="#000" stroke-width=".800003"><g fill="none"><path d="m127.48691 273.82036 1.99104-4.06092"/><path d="m137.87137 271.08229 5.33439-1.32285"/><path d="m123.6458 270.32968-3.59343-5.23006"/><path d="m148.83801 272.32868-2.2897-5.91737"/><path d="m151.31406 269.11833 5.87038 1.96953"/><path d="m154.81192 272.01011-2.78666 4.23215"/><path d="m164.93754 267.62186-2.2435-1.63822"/><path d="m139.66091 273.98602 4.11349-3.7997"/><path d="m117.72525 271.9687c1.08232.40298 2.28411.68093 3.69457.72792 6.45415.21663 8.51208-5.16794 14.88261-5.16794s8.42687 5.16794 14.88261 5.16794c6.45495 0 8.51129-5.16794 14.88182-5.16794 1.54266 0 2.83285.30264 3.99323.76217"/></g><g fill-rule="evenodd"><g fill="#c93"><path d="m160.38205 269.24655c-.75261-4.37232-4.17163-5.72782-8.74942-5.88471 1.87157 4.18038 4.41612 6.83643 8.74942 5.88471z"/><path d="m133.6432 268.07184c-4.13897 1.59522-4.79761 5.21333-4.05376 9.73299 3.73201-2.65525 5.83693-5.67127 4.05376-9.73299z"/><path d="m133.33499 267.88388c.56545-4.40019-2.30403-6.70103-6.63335-8.1967.55988 4.54594 2.21165 7.83274 6.63335 8.1967z"/><path d="m122.56426 270.31534c-1.43752-4.19631-5.02856-4.99113-9.5737-4.41851 2.51269 3.82996 5.44748 6.04718 9.5737 4.41851z"/><path d="m151.47414 272.92679c-4.0872-1.72504-7.07296.42289-9.67485 4.19312 4.53001.67935 8.13936-.0311 9.67485-4.19312z"/><path d="m134.36873 267.32082c1.81663-4.04738-.26361-7.08093-3.97491-9.76644-.78048 4.51328-.15131 8.13697 3.97491 9.76644z"/><path d="m126.1123 271.279c1.76007-4.07207-.36158-7.07694-4.10871-9.71069-.71837 4.52364-.0398 8.13857 4.10871 9.71069z"/><path d="m125.81842 271.98144c-3.32026-2.94196-6.83643-1.86361-10.50791.87526 4.07367 2.09378 7.72045 2.57561 10.50791-.87526z"/><path d="m137.03434 270.40534c.51846 0 .93977.4205.93977.93897s-.42131.93897-.93977.93897c-.51847 0-.93898-.4205-.93898-.93897s.42051-.93897.93898-.93897z"/><path d="m150.49774 267.89663c.51846 0 .93897.4205.93897.93897s-.42051.93897-.93897.93897c-.51847 0-.93977-.4205-.93977-.93897s.4213-.93897.93977-.93897z"/><path d="m146.27355 264.75875c.51847 0 .93897.4213.93897.93977s-.4205.93897-.93897.93897-.93897-.4205-.93897-.93897.4205-.93977.93897-.93977z"/><path d="m127.20338 273.66666c.51847 0 .93898.4205.93898.93897s-.42051.93977-.93898.93977c-.51846 0-.93977-.4213-.93977-.93977s.42131-.93897.93977-.93897z"/><path d="m151.56175 276.05033c.51846 0 .93897.4205.93897.93897s-.42051.93897-.93897.93897c-.51847 0-.93898-.4205-.93898-.93897s.42051-.93897.93898-.93897z"/><path d="m161.74312 264.48478c.51767 0 .93898.42051.93898.93898 0 .51846-.42131.93977-.93898.93977-.51846 0-.93977-.42131-.93977-.93977 0-.51847.42131-.93898.93977-.93898z"/><path d="m119.4909 263.37697c.51846 0 .93897.42051.93897.93897 0 .51847-.42051.93977-.93897.93977-.51847 0-.93977-.4213-.93977-.93977 0-.51846.4213-.93897.93977-.93897z"/><path d="m139.10342 273.54162c.51847 0 .93977.42051.93977.93897 0 .51847-.4213.93977-.93977.93977-.51846 0-.93897-.4213-.93897-.93977 0-.51846.42051-.93897.93897-.93897z"/><path d="m144.218 269.74829c.30105-4.42568-2.70144-6.54972-7.11358-7.78257.83225 4.50373 2.67914 7.68541 7.11358 7.78257z"/><path d="m144.28649 270.00315c1.34276-4.22817-1.06958-7.00527-5.06281-9.25037-.26122 4.57381.7773 8.10193 5.06281 9.25037z"/><path d="m163.08349 267.80345c-4.02349 1.86839-4.43842 5.52314-3.39432 9.98306 3.54643-2.89895 5.44509-6.04957 3.39432-9.98306z"/><path d="m162.14213 268.36651c-4.36277.80199-5.68004 4.23614-5.78517 8.81552 4.15968-1.91856 6.78626-4.49337 5.78517-8.81552z"/></g><g fill="#fff"><path d="m111.89071 127.27118h17.67405v5.68083h-17.67405z"/><path d="m141.55718 127.27118h17.67405v5.68083h-17.67405z"/><path d="m107.3145 139.2636h18.67515v5.68083h-18.67515z"/><path d="m138.66221 139.2636h18.67514v5.68083h-18.67514z"/><path d="m168.4362 159.6383h-63.08247v84.94327h24.3273v-51.04226c0-12.63832 15.60496-22.88818 34.84795-22.88818h3.90722z"/><path d="m159.88668 149.49674h8.46589v6.087h.0502v6.78069h-63.99038l-2.37093-1.52355v-11.34414h8.46589v6.087h10.81612v-6.087h8.46589v6.087h10.81533v-6.087h8.46589v6.087h10.81612v-6.087z"/><path d="m104.41237 162.36443h63.99038v6.94235h-63.99038z"/><path d="m105.35453 184.24434h24.3265m-24.3265 7.5771h24.3265m-24.3265 7.5771h24.3265m-24.3265 7.57709h24.3265m-24.3265 7.5771h24.3265m-24.3265 7.57709h24.3265m-24.3265 7.5763h24.3265m-24.3273 7.5771h24.3273m-24.3273-60.61518h24.3273m-25.26866-11.3529h63.99038m-55.91712 3.99164v7.20119m0 15.15419v-7.41782m0 22.57121v-7.41701m0 22.5712v-7.41701m0 22.5712v-7.41781m8.51448-53.03808v7.20119m0 15.1534v-7.41702m0 22.57121v-7.41781m0 22.572v-7.41781m8.7534-52.66217v6.54653"/></g></g><path d="m164.52898 164.73456c-22.47006 0-40.69284 12.89954-40.69284 28.80475v5.77719m0 7.51578v30.45094" fill="none"/><path d="m168.13674 170.65113v-5.91657h-3.60776c-22.47006 0-40.69284 12.89954-40.69284 28.80475v43.74391h5.84489v-43.74391c0-12.63832 15.60496-22.88818 34.84795-22.88818z" fill="#fff" fill-rule="evenodd"/><path d="m123.83614 213.03635h5.84489m-5.84489 6.06152h5.84489m-5.84489 6.06152h5.84489m-5.84489 6.06151h5.84489" fill="none"/><g fill="#fff" fill-rule="evenodd"><path d="m129.68103 206.97563h-7.56515v-.0709-7.50621h7.56515v7.57709zm34.84795-44.21618c-1.83414 0-3.64041.0844-5.41403.24529l1.00826 7.82877c1.44311-.11947 2.91329-.18238 4.40577-.18238h1.58965l-.0159-7.94345-1.57372.0518zm-34.84795 30.77986c0-1.92096.36317-3.78696 1.04251-5.57013l-6.97899-3.85147c-1.32762 2.96984-2.04758 6.13559-2.04758 9.4216zm3.71209-10.28411c1.30851-1.70672 2.934-3.29 4.8231-4.71876l-4.19552-6.59751c-2.65684 1.93768-4.95689 4.12623-6.82847 6.51229zm10.92842-8.36396c2.15828-1.01065 4.49895-1.86202 6.98376-2.5318l-1.99581-7.59701c-3.13868.85774-6.10055 1.97193-8.83623 3.30911z" stroke-linejoin="round"/><path d="m102.04144 240.52702h29.1934v7.90681h-29.1934z"/></g></g><path d="m163.99857 108.57613h80.78917l.41971 112.93408c0 44.84376-36.36592 81.20888-81.20888 81.20888z" fill="#00923d" fill-rule="evenodd"/><g stroke="#000" stroke-width=".800003"><path d="m208.59066 148.463c.32733 1.29417.712 2.7102.73987 3.99243-.47148-.12902-.94375-.25804-1.41523-.38706.22459 1.06162.30901 2.12324.0852 3.18407-.50493-.41573-1.01065-.52245-1.51478-.4898.15131.98994.16246 2.01493-.1346 3.11637-.49855-.51767-.99791-.65067-1.49726-.60846.0494 1.02738-.007 2.05475-.29388 3.08133-.41811-.43245-.83703-.69686-1.25435-.79243.0589.99632-.0215 2.02767-.41095 3.13549-.31697-.36715-.63395-.56625-.95092-.59731-.14256.80915-.84579 1.49248-1.1564 2.42747-.3106-.93499-1.01383-1.61832-1.15639-2.42747-.31697.0311-.63395.23016-.95092.59731-.38945-1.10782-.46989-2.13917-.41095-3.13549-.41732.0956-.83624.35998-1.25356.79243-.2875-1.02658-.34405-2.05395-.29467-3.08133-.49936-.0422-.99871.0908-1.49726.60846-.29707-1.10144-.28592-2.12643-.1338-3.11637-.50493-.0327-1.00986.0741-1.51478.4898-.2238-1.06083-.14017-2.12245.0844-3.18407-.47148.12902-.94296.25804-1.41523.38706.0279-1.28223.41254-2.69826.73987-3.99243-1.29497.32732-2.711.71119-3.99323.73907.12902-.47148.25804-.94375.38706-1.41523-1.06162.22459-2.12325.30821-3.18407.0844.41573-.50493.52245-1.00986.48979-1.51478-.98994.15211-2.01493.16326-3.11637-.1338.51847-.49856.65067-.99791.60846-1.49726-1.02737.0494-2.05395-.007-3.08133-.29468.43325-.41732.69687-.83623.79244-1.25355-.99632.0589-2.02768-.0215-3.13549-.41095.36715-.31698.56625-.63395.59811-.95092-.80996-.14256-1.49328-.8458-2.42827-1.1564.93499-.3106 1.61831-1.01384 2.42827-1.15639-.0319-.31698-.23096-.63395-.59811-.95092 1.10781-.38945 2.13917-.46989 3.13549-.41095-.0956-.41733-.35919-.83624-.79244-1.25436 1.02738-.28671 2.05396-.34325 3.08133-.29388.0422-.49935-.09-.9987-.60846-1.49726 1.10144-.29706 2.12643-.28591 3.11637-.13459.0327-.50413-.0741-1.00906-.48979-1.51478 1.06082-.2238 2.12245-.13938 3.18407.0852-.12902-.47147-.25804-.94375-.38706-1.41523 1.28223.0279 2.69826.41255 3.99323.73987-.32733-1.29497-.712-2.71099-.73987-3.99322.47227.12902.94375.25804 1.41523.38705-.22459-1.06082-.30822-2.12244-.0844-3.18406.50492.41573 1.00985.52324 1.51478.48979-.15212-.98994-.16327-2.01493.1338-3.11637.49855.51846.9979.65147 1.49726.60846-.0494-1.02738.007-2.05396.29467-3.08133.41732.43325.83624.69686 1.25356.79243-.0589-.99631.0215-2.02687.41095-3.13549.31697.36795.63395.56705.95092.59811.14256-.80995.84579-1.49328 1.15639-2.42827.31061.93499 1.01384 1.61832 1.1564 2.42827.31697-.0311.63395-.23016.95092-.59811.38945 1.10862.46988 2.13918.41095 3.13549.41732-.0956.83624-.35918 1.25435-.79243.28671 1.02737.34326 2.05395.29388 3.08133.49935.043.99871-.09 1.49726-.60846.29706 1.10144.28591 2.12643.1346 3.11637.50413.0335 1.00985-.0741 1.51478-.48979.22379 1.06162.13937 2.12324-.0852 3.18406.47148-.12901.94375-.25803 1.41523-.38705-.0279 1.28223-.41254 2.69825-.73987 3.99322 1.29497-.32732 2.711-.71199 3.99323-.73987-.12902.47148-.25804.94376-.38706 1.41523 1.06162-.22459 2.12324-.30901 3.18407-.0852-.41573.50572-.52245 1.01065-.4898 1.51478.98995-.15132 2.01493-.16247 3.11638.13459-.51847.49856-.65067.99791-.60846 1.49726 1.02737-.0494 2.05475.007 3.08133.29388-.43325.41812-.69687.83703-.79244 1.25436.99632-.0589 2.02768.0215 3.13549.41095-.36715.31697-.56625.63394-.59731.95092.80916.14255 1.49248.84579 2.42747 1.15639-.93499.3106-1.61831 1.01384-2.42747 1.1564.0311.31697.23016.63394.59731.95092-1.10781.38944-2.13917.46988-3.13549.41095.0956.41732.35919.83623.79244 1.25355-1.02658.28751-2.05396.34406-3.08133.29468-.0422.49935.09.9987.60846 1.49726-1.10145.29706-2.12643.28591-3.11638.1338-.0326.50492.0741 1.00985.4898 1.51478-1.06083.22379-2.12245.14017-3.18407-.0844.12902.47148.25804.94375.38706 1.41523-1.28223-.0279-2.69826-.41175-3.99323-.73907z" fill="#c93" fill-rule="evenodd"/><g fill="none"><path d="m200.78738 123.74704c-1.88352 3.48511-4.58177 5.90462-4.42568 10.43623.0908 2.65047 1.96635 4.80398 4.42568 4.80398s4.33489-2.15351 4.42568-4.80398c.1561-4.53161-2.54215-6.95112-4.42568-10.43623z"/><path d="m200.78738 157.5708c-1.88352-3.48511-4.58177-5.90383-4.42568-10.43623.0908-2.65047 1.96635-4.80397 4.42568-4.80397s4.33489 2.1535 4.42568 4.80397c.1561 4.5324-2.54215 6.95112-4.42568 10.43623z"/><path d="m183.8755 140.65892c3.48512 1.88352 5.90383 4.58258 10.43623 4.42568 2.65047-.0908 4.80398-1.96635 4.80398-4.42568s-2.15351-4.33409-4.80398-4.42568c-4.5324-.1561-6.95111 2.54296-10.43623 4.42568z"/><path d="m217.69926 140.65892c-3.48511 1.88352-5.90462 4.58258-10.43622 4.42568-2.65047-.0908-4.80398-1.96635-4.80398-4.42568s2.15351-4.33409 4.80398-4.42568c4.5316-.1561 6.95111 2.54296 10.43622 4.42568z"/><path d="m198.5845 142.86181 4.40497-4.40498"/><path d="m202.98947 142.86181-4.40497-4.40498"/></g><path d="m208.59066 249.5281c.32733 1.29418.712 2.7102.73987 3.99243-.47148-.12902-.94375-.25804-1.41523-.38705.22459 1.06162.30901 2.12324.0852 3.18406-.50493-.41572-1.01065-.52244-1.51478-.48979.15131.98994.16246 2.01493-.1346 3.11637-.49855-.51767-.99791-.65067-1.49726-.60846.0494 1.02738-.007 2.05475-.29388 3.08133-.41811-.43245-.83703-.69686-1.25435-.79243.0589.99631-.0215 2.02767-.41095 3.13549-.31697-.36715-.63395-.56626-.95092-.59732-.14256.80916-.84579 1.49249-1.1564 2.42748-.3106-.93499-1.01383-1.61832-1.15639-2.42748-.31697.0311-.63395.23017-.95092.59732-.38945-1.10782-.46989-2.13918-.41095-3.13549-.41732.0956-.83624.35998-1.25356.79243-.2875-1.02658-.34405-2.05395-.29467-3.08133-.49936-.0422-.99871.0908-1.49726.60846-.29707-1.10144-.28592-2.12643-.1338-3.11637-.50493-.0327-1.00986.0741-1.51478.48979-.2238-1.06082-.14017-2.12244.0844-3.18406-.47148.12901-.94296.25803-1.41523.38705.0279-1.28223.41254-2.69825.73987-3.99243-1.29497.32733-2.711.7112-3.99323.73908.12902-.47148.25804-.94376.38706-1.41523-1.06162.22459-2.12325.30821-3.18407.0844.41573-.50493.52245-1.00986.48979-1.51479-.98994.15212-2.01493.16327-3.11637-.13379.51847-.49856.65067-.99791.60846-1.49726-1.02737.0494-2.05395-.007-3.08133-.29468.43325-.41732.69687-.83623.79244-1.25356-.99632.0589-2.02768-.0215-3.13549-.41095.36715-.31697.56625-.63394.59811-.95092-.80996-.14255-1.49328-.84579-2.42827-1.15639.93499-.3106 1.61831-1.01384 2.42827-1.1564-.0319-.31697-.23096-.63394-.59811-.95092 1.10781-.38944 2.13917-.46988 3.13549-.41095-.0956-.41732-.35919-.83623-.79244-1.25435 1.02738-.28671 2.05396-.34326 3.08133-.29388.0422-.49935-.09-.9987-.60846-1.49726 1.10144-.29706 2.12643-.28591 3.11637-.13459.0327-.50413-.0741-1.00986-.48979-1.51478 1.06082-.223 2.12245-.13938 3.18407.0852-.12902-.47148-.25804-.94375-.38706-1.41523 1.28223.0279 2.69826.41254 3.99323.73987-.32733-1.29497-.712-2.711-.73987-3.99323.47227.12902.94375.25804 1.41523.38706-.22459-1.06082-.30822-2.12244-.0844-3.18407.50492.41573 1.00985.52325 1.51478.4898-.15212-.98994-.16327-2.01493.1338-3.11637.49855.51846.9979.65067 1.49726.60846-.0494-1.02738.007-2.05396.29467-3.08133.41732.43325.83624.69686 1.25356.79243-.0589-.99632.0215-2.02688.41095-3.13549.31697.36795.63395.56705.95092.59811.14256-.80995.84579-1.49328 1.15639-2.42827.31061.93499 1.01384 1.61832 1.1564 2.42827.31697-.0311.63395-.23016.95092-.59811.38945 1.10861.46988 2.13917.41095 3.13549.41732-.0956.83624-.35918 1.25435-.79243.28671 1.02737.34326 2.05395.29388 3.08133.49935.0422.99871-.09 1.49726-.60846.29706 1.10144.28591 2.12643.1346 3.11637.50413.0335 1.00985-.0741 1.51478-.4898.22379 1.06163.13937 2.12325-.0852 3.18407.47148-.12902.94375-.25804 1.41523-.38706-.0279 1.28223-.41254 2.69826-.73987 3.99323 1.29497-.32733 2.711-.71199 3.99323-.73987-.12902.47148-.25804.94375-.38706 1.41523 1.06162-.22459 2.12324-.30821 3.18407-.0852-.41573.50492-.52245 1.01065-.4898 1.51478.98995-.15132 2.01493-.16247 3.11638.13459-.51847.49856-.65067.99791-.60846 1.49726 1.02737-.0494 2.05475.007 3.08133.29388-.43325.41812-.69687.83703-.79244 1.25435.99632-.0589 2.02768.0215 3.13549.41095-.36715.31698-.56625.63395-.59731.95092.80916.14256 1.49248.8458 2.42747 1.1564-.93499.3106-1.61831 1.01384-2.42747 1.15639.0311.31698.23016.63395.59731.95092-1.10781.38945-2.13917.46989-3.13549.41095.0956.41733.35919.83624.79244 1.25356-1.02658.28751-2.05396.34405-3.08133.29468-.0422.49935.09.9987.60846 1.49726-1.10145.29706-2.12643.28591-3.11638.13379-.0326.50493.0741 1.00986.4898 1.51479-1.06083.22379-2.12245.14017-3.18407-.0844.12902.47147.25804.94375.38706 1.41523-1.28223-.0279-2.69826-.41175-3.99323-.73908z" fill="#c93" fill-rule="evenodd"/><g fill="none"><path d="m200.78738 224.81215c-1.88352 3.48511-4.58177 5.90462-4.42568 10.43623.0908 2.65047 1.96635 4.80397 4.42568 4.80397s4.33489-2.1535 4.42568-4.80397c.1561-4.53161-2.54215-6.95112-4.42568-10.43623z"/><path d="m200.78738 258.63591c-1.88352-3.48511-4.58177-5.90383-4.42568-10.43623.0908-2.65047 1.96635-4.80398 4.42568-4.80398s4.33489 2.15351 4.42568 4.80398c.1561 4.5324-2.54215 6.95112-4.42568 10.43623z"/><path d="m183.8755 241.72403c3.48512 1.88352 5.90383 4.58257 10.43623 4.42568 2.65047-.0908 4.80398-1.96635 4.80398-4.42568s-2.15351-4.33409-4.80398-4.42568c-4.5324-.1561-6.95111 2.54295-10.43623 4.42568z"/><path d="m217.69926 241.72403c-3.48511 1.88352-5.90462 4.58257-10.43622 4.42568-2.65047-.0908-4.80398-1.96635-4.80398-4.42568s2.15351-4.33409 4.80398-4.42568c4.5316-.1561 6.95111 2.54295 10.43622 4.42568z"/><path d="m198.5845 243.92691 4.40497-4.40497"/><path d="m202.98947 243.92691-4.40497-4.40497"/></g><path d="m208.59066 198.99516c.32733 1.29417.712 2.7102.73987 3.99243-.47148-.12822-.94375-.25804-1.41523-.38706.22459 1.06162.30901 2.12324.0852 3.18407-.50493-.41573-1.01065-.52245-1.51478-.4898.15131.98995.16246 2.01573-.1346 3.11717-.49855-.51846-.99791-.65146-1.49726-.60925.0494 1.02737-.007 2.05475-.29388 3.08133-.41811-.43246-.83703-.69687-1.25435-.79244.0589.99632-.0215 2.02768-.41095 3.13629-.31697-.36795-.63395-.56705-.95092-.59811-.14256.80916-.84579 1.49248-1.1564 2.42747-.3106-.93499-1.01383-1.61831-1.15639-2.42747-.31697.0311-.63395.23016-.95092.59811-.38945-1.10861-.46989-2.13997-.41095-3.13629-.41732.0956-.83624.35998-1.25356.79244-.2875-1.02658-.34405-2.05396-.29467-3.08133-.49936-.0422-.99871.0908-1.49726.60925-.29707-1.10144-.28592-2.12722-.1338-3.11717-.50493-.0327-1.00986.0741-1.51478.4898-.2238-1.06083-.14017-2.12245.0844-3.18407-.47148.12902-.94296.25884-1.41523.38706.0279-1.28223.41254-2.69826.73987-3.99243-1.29497.32812-2.711.71199-3.99323.73907.12902-.47148.25804-.94295.38706-1.41523-1.06162.22459-2.12325.30901-3.18407.0852.41573-.50493.52245-1.01065.48979-1.51478-.98994.15132-2.01493.16247-3.11637-.1338.51847-.49935.65067-.99871.60846-1.49806-1.02737.0494-2.05395-.007-3.08133-.29388.43325-.41811.69687-.83703.79244-1.25435-.99632.0589-2.02768-.0215-3.13549-.41095.36715-.31697.56625-.63395.59811-.95092-.80996-.14256-1.49328-.84579-2.42827-1.15639.93499-.31061 1.61831-1.01384 2.42827-1.1564-.0319-.31697-.23096-.63395-.59811-.95092 1.10781-.38945 2.13917-.46988 3.13549-.41095-.0956-.41732-.35919-.83544-.79244-1.25356 1.02738-.2875 2.05396-.34405 3.08133-.29467.0422-.49935-.09-.99871-.60846-1.49726 1.10144-.29707 2.12643-.28592 3.11637-.1338.0327-.50493-.0741-1.00985-.48979-1.51478 1.06082-.22379 2.12245-.14017 3.18407.0844-.12902-.47148-.25804-.94296-.38706-1.41523 1.28223.0279 2.69826.41254 3.99323.73987-.32733-1.29418-.712-2.711-.73987-3.99323.47227.12902.94375.25804 1.41523.38786-.22459-1.06163-.30822-2.12325-.0844-3.18487.50492.41573 1.00985.52325 1.51478.4898-.15212-.98995-.16327-2.01494.1338-3.11638.49855.51847.9979.65147 1.49726.60846-.0494-1.02737.007-2.05395.29467-3.08053.41732.43245.83624.69607 1.25356.79243-.0589-.99631.0215-2.02767.41095-3.13628.31697.36794.63395.56705.95092.59811.14256-.80996.84579-1.49249 1.15639-2.42748.31061.93499 1.01384 1.61752 1.1564 2.42748.31697-.0311.63395-.23017.95092-.59811.38945 1.10861.46988 2.13997.41095 3.13628.41732-.0964.83624-.35998 1.25435-.79243.28671 1.02658.34326 2.05316.29388 3.08053.49935.043.99871-.09 1.49726-.60846.29706 1.10144.28591 2.12643.1346 3.11638.50413.0335 1.00985-.0741 1.51478-.4898.22379 1.06162.13937 2.12324-.0852 3.18487.47148-.12982.94375-.25884 1.41523-.38786-.0279 1.28223-.41254 2.69826-.73987 3.99323 1.29497-.32733 2.711-.712 3.99323-.73987-.12902.47227-.25804.94375-.38706 1.41523 1.06162-.22459 2.12324-.30821 3.18407-.0844-.41573.50493-.52245 1.00985-.4898 1.51478.98995-.15212 2.01493-.16327 3.11638.1338-.51847.49855-.65067.99791-.60846 1.49726 1.02737-.0494 2.05475.007 3.08133.29467-.43325.41812-.69687.83624-.79244 1.25356.99632-.0589 2.02768.0215 3.13549.41095-.36715.31697-.56625.63395-.59731.95092.80916.14256 1.49248.84579 2.42747 1.1564-.93499.3106-1.61831 1.01383-2.42747 1.15639.0311.31697.23016.63395.59731.95092-1.10781.38945-2.13917.46989-3.13549.41095.0956.41732.35919.83624.79244 1.25435-1.02658.28671-2.05396.34326-3.08133.29388-.0422.49935.09.99871.60846 1.49806-1.10145.29627-2.12643.28512-3.11638.1338-.0326.50413.0741 1.00985.4898 1.51478-1.06083.22379-2.12245.13937-3.18407-.0852.12902.47228.25804.94375.38706 1.41523-1.28223-.0271-2.69826-.41174-3.99323-.73907z" fill="#c93" fill-rule="evenodd"/><g fill="none"><path d="m200.78738 174.27921c-1.88352 3.48511-4.58177 5.90462-4.42568 10.43622.0908 2.65047 1.96635 4.80398 4.42568 4.80398s4.33489-2.15351 4.42568-4.80398c.1561-4.5316-2.54215-6.95111-4.42568-10.43622z"/><path d="m200.78738 208.10297c-1.88352-3.48512-4.58177-5.90383-4.42568-10.43544.0908-2.65126 1.96635-4.80397 4.42568-4.80397s4.33489 2.15271 4.42568 4.80397c.1561 4.53161-2.54215 6.95032-4.42568 10.43544z"/><path d="m183.8755 191.19188c3.48512 1.88273 5.90383 4.58178 10.43623 4.42568 2.65047-.0916 4.80398-1.96635 4.80398-4.42568 0-2.46013-2.15351-4.33489-4.80398-4.42647-4.5324-.1561-6.95111 2.54295-10.43623 4.42647z"/><path d="m217.69926 191.19188c-3.48511 1.88273-5.90462 4.58178-10.43622 4.42568-2.65047-.0916-4.80398-1.96635-4.80398-4.42568 0-2.46013 2.15351-4.33489 4.80398-4.42647 4.5316-.1561 6.95111 2.54295 10.43622 4.42647z"/><path d="m198.5845 193.39397 4.40497-4.40497"/><path d="m202.98947 193.39397-4.40497-4.40497"/><path d="m245.20745 221.51021v-112.93408h-161.99805l-.419711 112.93408c0 44.84376 36.365921 81.20888 81.208881 81.20888s81.20888-36.36512 81.20888-81.20888z"/></g><g fill="#fff" fill-rule="evenodd"><path d="m147.56932 105.21446c-.18716 1.38576-.60289 3.13867-1.52275 4.52364-.83703-1.37302-1.20179-3.17372-1.45983-4.5778l2.98258.0542zm-7.87575-.88323c-.74306.92783-1.56815 3.81881 1.0648 5.40687-.009-1.65655.21185-3.49468 1.10463-4.31737zm-5.18546 0c-.74226.92783-1.26232 3.81881 1.37063 5.40687-.1792-1.65575.16326-3.49388 1.10462-4.31737z"/><path d="m146.07843 102.29082c-1.36904 0-2.47924.96445-2.47924 2.1543 0 .74305.43404 1.3985 1.09348 1.78556.92384-.65226 1.84768-.65226 2.77152 0 .65943-.38706 1.09268-1.04251 1.09268-1.78556 0-1.18985-1.1102-2.1543-2.47844-2.1543z"/><path d="m140.25265 102.29082c-1.36824 0-2.47844.96445-2.47844 2.1543 0 .74305.43325 1.3985 1.09268 1.78556.92384-.65226 1.84768-.65226 2.77152 0 .65943-.38706 1.09348-1.04251 1.09348-1.78556 0-1.18985-1.1102-2.1543-2.47924-2.1543z"/><path d="m135.2209 102.73522c-1.36904 0-2.47924.85614-2.47924 1.9106 0 .65943.43404 1.24161 1.09347 1.58486.92385-.5782 1.84769-.5782 2.77153 0 .65943-.34325 1.09268-.92543 1.09268-1.58486 0-1.05446-1.1102-1.9106-2.47844-1.9106z"/><path d="m180.42782 105.21446c.18716 1.38576.60289 3.13867 1.52275 4.52364.83703-1.37302 1.20179-3.17372 1.45983-4.5778l-2.98258.0542zm7.87575-.88323c.74306.92783 1.56815 3.81881-1.0648 5.40687.009-1.65655-.21185-3.49468-1.10463-4.31737zm5.18546 0c.74226.92783 1.26232 3.81881-1.37063 5.40687.17999-1.65575-.16247-3.49388-1.10463-4.31737z"/><path d="m181.91951 102.29082c1.36824 0 2.47844.96445 2.47844 2.1543 0 .74305-.43404 1.3985-1.09348 1.78556-.92304-.65226-1.84688-.65226-2.77072 0-.65944-.38706-1.09348-1.04251-1.09348-1.78556 0-1.18985 1.1102-2.1543 2.47924-2.1543z"/><path d="m187.74449 102.29082c1.36904 0 2.47844.96445 2.47844 2.1543 0 .74305-.43325 1.3985-1.09268 1.78556-.92384-.65226-1.84768-.65226-2.77152 0-.65943-.38706-1.09268-1.04251-1.09268-1.78556 0-1.18985 1.1094-2.1543 2.47844-2.1543z"/><path d="m192.77624 102.73522c1.36904 0 2.47924.85614 2.47924 1.9106 0 .65943-.43404 1.24161-1.09348 1.58486-.92384-.5782-1.84688-.5782-2.77072 0-.65944-.34325-1.09348-.92543-1.09348-1.58486 0-1.05446 1.1102-1.9106 2.47844-1.9106z"/></g></g></svg>