<svg height="410" viewBox="0 0 300 331" width="410" xmlns="http://www.w3.org/2000/svg"><g transform="matrix(1.4678492 0 0 1.4678465 -70.17738 -77.428892)"><path d="m40 55.5v206.4c32.515898 2.85656 64.58314 13.53093 97.425 13.6 2.18946.00461 4.37826-.02982 6.575-.125.19951.04237.40043.08294.6.125h115.4v-220h-124.20942z" fill="#fff"/><path d="m155.98265 171.5h104v104h-104z" fill="#a5ff42"/><path d="m264.47 240.62c-1.21108-.92422-3.48957-1.40431-5.32-1.69-12.31549-1.69699-19.25187-5.83061-29.2-7.74-10.23-1.9-20.64-2.97-31.01-3.84-5.55307-3.27514-6.30056-4.3383-8.09-10.25-3.60533-7.89869-4.04196-15.85212-8.168-23.52334.58-.49 1.328-2.14666 1.908-2.63666-.78.41-2.35 1.25-3.14 1.66.34-1.8-.29-3.07-1.87-3.78 1.99232 3.25892-2.57305 5.4429-6.11 7.21-.5416 5.66109.59285 4.46739 5.63 4.62 4.805 14.86146 4.67551 31.62513 14.74 44.35-2.16865 7.90185-5.35464 7.39192-5.44 15.67.96-.08 1.93-.16 2.89-.23.16-1.14.32-2.27.49-3.4 2.20053-3.08251 1.82219-6.39545 5.77-6.58-.89171 6.94954-1.14338 11.74703 2.71 17.8 1.64184-5.10681-3.01107-15.16523 2.59-15.44 9.30696 4.75369 20.10109 2.79666 30.21 2.75 4.16344 1.50974 7.22011 4.29053 8.78424 8.4111.78546 2.47074-.53757 4.96735-.42023 7.53424.21.02 1.84599.32466 2.04599.34466-.28362-3.06485 1.32439-5.15638 2.29-8.23 1.6-.12 3.21-.23 4.82-.33-.03 3.67-.14 7.34-.12 11.02 1.31 1.27 2.63 2.53 3.94 3.8 0-3.37-.04-6.74.14-10.11 1.72-4.1 3.62-8.16 4.79-12.46 1.82576-6.90567-2.22665-14.4563 5.14-14.93z" fill="#fff" transform="translate(-4.941207 -6.57309)"/><path d="m40 171.5v90.39408c34.683624 3.04701 68.8521 14.99528 104 13.47246v-103.86654z" fill="#fede3c"/><path d="m140.56164 190.94215a14.106544 14.106544 0 1 1 -28.21308 0 14.106544 14.106544 0 1 1 28.21308 0z" fill="#fff" transform="translate(8.775 3.028857)"/><path d="m144 231.7764c-34.88795.41441-69.752915 4.81564-104 11.44954v10.4452c33.413079 2.17966 69.74875 15.17708 104 13.33269z" fill="#0071bc"/><path d="m88.786092 186.40509c-16.351525 1.89332-32.338368 5.57039-48.786092 6.95509v36.38242c26.100571.25387 52.078305 1.67511 78.1381-.45195-1.11483-1.74756-2.47071-3.40472-3.16369-5.37325-.8537-4.19817-.45698-8.59721-1.58185-12.75519-1.2253-5.4536-6.05119-8.95375-8.36118-13.88508-2.02877-3.51521-3.19884-8.37626-7.457263-9.84259-2.915744-.83173-5.845798-1.09205-8.788025-1.02945z" fill="#f60"/><g transform="matrix(.80347656 0 0 .80367064 -.326405 -9.044798)"><path d="m310.125 97.8125c-4.59192.07966-9.17813 1.640623-12.71875 4.5625-5.5875 4.5375-11.20001 9.13125-17.5625 12.53125-4.675 2.025-9.88126 2.99375-14.96875 2.84375-5.875-.3375-9.06876-5.95-13.03125-9.5-7.475.0375-15.01251-.625-22.4375.1875-8.73648 10.98265-21.78862 19.22923-34.84375 24.375v14.15625c.07149 9.52412.02603 19.06728 0 28.59375v12.875c.03764 7.09915.15185 14.18744.40625 21.28125h28.34375c.33241-.03697.66796-.05187 1-.09375 6.475-1.65 12.85-3.73124 19.3125-5.40625 13.45-4.4625 28.08126-.91251 41.46875-5.8125 13.13161-4.99326 25.78801-11.18086 38.90625-16.25v-78.59375c-2.45644-1.823-4.95728-3.572392-7.6875-4.9375-1.98828-.574219-4.10027-.848709-6.1875-.8125z" fill="#4093f5"/><path d="m194.5625 80.3125v42.8125c13.70208-2.18652 22.29128-14.37452 32.4375-22.65625 8.6.2875 17.1625-1.556247 25.75-.71875 5.075 1.5375 8.81249 5.6375 13.25 8.375 4.875.2 10.09999.09375 14.1875-2.96875 6.85-4.9125 13.225-10.618747 20.875-14.34375 4.9625-1.175 10.16251-2.012503 15.25-1.0625 2.85442.621527 5.33218 2.050805 7.6875 3.71875v-13.15625z" fill="#fede3c"/><path d="m324 182.15625c-13.11823 5.06915-25.77463 11.25674-38.90625 16.25-13.3875 4.9-28.01875 1.35001-41.46875 5.8125-6.4625 1.675-12.8375 3.75625-19.3125 5.40625.26051.03858.52049.05945.78125.09375h98.90625z" fill="#0071bc"/></g><g transform="translate(.783054 -7.826782)"><path d="m39.216946 63.326782h103.54614v103.54614h-103.54614z" fill="#f60"/><path d="m109.5 89.53125-3.90625.90625 1.25 5.25-5.09375 1.1875.90625 3.90625 5.09375-1.21875 1.78125 7.46875c-3.15988 1.4966-4.96948 4.76319-4.15625 7.875.28071 1.07414.86584 1.99497 1.625 2.75l-7.84375 11.25c-5.773142 5.36409-12.071691 10.66907-11.6875 12.71875.407278 2.17283 1.642158 8.834 4.6875 8.84375l1.8125 11.4375-7.6875 11.28125 9.125-2.1875 6.625 41.84375 8.90625-.125-12.0625-68.40625 16.46875-24.03125 26.46197 10.03145 30.21875 81.34375 10.1875-.09375-22.53125-58.6875 8.125-1.4375-11.46875-7.28125-4.78125-12.46875c2.13357-1.95304-.62205-7.7995-1.53125-9.75-.81437-1.74706-7.88419-2.46342-15.125-3.34375l-14.71197-4.8127c.18428-.89367.17731-1.80111-.0625-2.71875-.7481-2.86259-3.50583-4.74843-6.65625-4.84375l-1.8125-7.5625 5.09375-1.21875-.90625-3.875-5.09375 1.1875z" fill="#fff" fill-rule="evenodd" transform="scale(.8)"/></g></g></svg>