<svg enable-background="new 0 0 364.949 521.214" height="521.214" viewBox="0 0 364.949 521.214" width="364.949" xmlns="http://www.w3.org/2000/svg" xmlns:xlink="http://www.w3.org/1999/xlink"><radialGradient id="a" cx="183.3525" cy="278.8306" gradientUnits="userSpaceOnUse" r="166.2702"><stop offset=".3152" stop-color="#fff"/><stop offset="1" stop-color="#71cfeb"/></radialGradient><g stroke="#000"><path d="m341.656 332.085c0-24.358 0-209.725 0-232.019s20.229-33.44 20.229-33.44l-53.67-62.753h-249.726l-53.67 62.754s20.229 11.146 20.229 33.44 0 207.66 0 232.019 19.817 69.772 73.074 95.781 79.699 28.016 85.065 52.373h.329c5.357-24.313 31.716-26.36 84.779-52.235-4.521 2.293-7.558 3.664-7.558 3.664s.118.439.36 1.211c.229.742.478 1.485.748 2.231 1.69 4.757 5.41 13.608 11.786 21.15.133.187.264.365.396.548-17.246 12.81-45.92 26.671-90.762 26.671h-.021c-44.841 0-73.516-13.861-90.762-26.671.131-.181.261-.359.393-.543 6.38-7.546 10.101-16.403 11.791-21.16.27-.743.517-1.483.745-2.222.243-.774.362-1.216.362-1.216s-19.964-9.003-33.86-19.572c-12.88-9.797-24.662-23.879-24.662-23.879s.392 5.09 1.762 15.463 3.523 19.377 3.523 19.377-11.744-1.958-18.79-2.545-15.658-3.132-15.658-3.132 16.245 20.159 30.337 29.554c2.57 1.713 5.375 3.498 8.242 5.271l-12.134 11.679s28.082 27.003 63.569 41.197 74.833 12.806 74.833 12.806h.638s39.346 1.389 74.833-12.806 63.569-41.197 63.569-41.197l-12.134-11.68c2.867-1.772 5.673-3.558 8.242-5.271 14.093-9.395 30.337-29.554 30.337-29.554s-8.611 2.545-15.658 3.132c-7.045.587-18.789 2.545-18.789 2.545s2.152-9.004 3.523-19.377c1.369-10.373 1.762-15.463 1.762-15.463s-11.781 14.082-24.662 23.879c-3.669 2.791-7.761 5.47-11.796 7.904 42.607-26.542 58.856-65.859 58.856-87.914z" fill="#fff" stroke-width="4"/><g stroke-width="2"><g fill="#fd0"><path d="m105.774 431.668s-19.964-9.003-33.86-19.572c-12.88-9.797-24.662-23.879-24.662-23.879s.392 5.09 1.762 15.463 3.523 19.377 3.523 19.377-11.744-1.958-18.79-2.545-15.658-3.132-15.658-3.132 16.245 20.159 30.337 29.554 35.23 20.942 35.23 20.942 17.421-19.178 22.118-36.208z"/><path d="m72.109 437.343s9.2-.586 17.42-1.761 16.245-3.914 16.245-3.914-3.719 13.896-13.114 24.856c.001.001-15.853-10.961-20.551-19.181z"/><path d="m260.738 431.668s19.964-9.003 33.86-19.572c12.881-9.797 24.662-23.879 24.662-23.879s-.393 5.09-1.762 15.463c-1.371 10.373-3.523 19.377-3.523 19.377s11.744-1.958 18.789-2.545c7.047-.587 15.658-3.132 15.658-3.132s-16.244 20.159-30.337 29.554-35.23 20.942-35.23 20.942-17.419-19.178-22.117-36.208z"/><path d="m294.403 437.343s-9.199-.586-17.42-1.761-16.245-3.914-16.245-3.914 3.72 13.896 13.114 24.856c.001.001 15.854-10.961 20.551-19.181z"/><path d="m183.575 517.887s39.346 1.389 74.833-12.806 63.569-41.197 63.569-41.197l-27.574-26.541c-7.361 8.638-37.384 46.137-111.137 46.137h-.021c-73.753 0-103.775-37.499-111.137-46.137l-27.574 26.541s28.082 27.003 63.569 41.197 74.833 12.806 74.833 12.806z"/></g><path d="m341.656 332.085c0-24.358 0-209.725 0-232.019" fill="#fff"/><path d="m105.774 431.668s-19.964-9.003-33.86-19.572c-12.88-9.797-24.662-23.879-24.662-23.879s.392 5.09 1.762 15.463 3.523 19.377 3.523 19.377-11.744-1.958-18.79-2.545-15.658-3.132-15.658-3.132 16.245 20.159 30.337 29.554 35.23 20.942 35.23 20.942 17.421-19.178 22.118-36.208z" fill="#fd0"/><path d="m72.109 437.343s9.2-.586 17.42-1.761 16.245-3.914 16.245-3.914-3.719 13.896-13.114 24.856c.001.001-15.853-10.961-20.551-19.181z" fill="#bd9806"/><path d="m260.738 431.668s19.964-9.003 33.86-19.572c12.881-9.797 24.662-23.879 24.662-23.879s-.393 5.09-1.762 15.463c-1.371 10.373-3.523 19.377-3.523 19.377s11.744-1.958 18.789-2.545c7.047-.587 15.658-3.132 15.658-3.132s-16.244 20.159-30.337 29.554-35.23 20.942-35.23 20.942-17.419-19.178-22.117-36.208z" fill="#fd0"/><path d="m294.403 437.343s-9.199-.586-17.42-1.761-16.245-3.914-16.245-3.914 3.72 13.896 13.114 24.856c.001.001 15.854-10.961 20.551-19.181z" fill="#bd9806"/><path d="m183.575 517.887s39.346 1.389 74.833-12.806 63.569-41.197 63.569-41.197l-27.574-26.541c-7.361 8.638-37.384 46.137-111.137 46.137h-.021c-73.753 0-103.775-37.499-111.137-46.137l-27.574 26.541s28.082 27.003 63.569 41.197 74.833 12.806 74.833 12.806z" fill="#fd0"/><path d="m183.517 480.24c5.367-24.357 31.808-26.364 85.065-52.373s73.074-71.423 73.074-95.781 0-209.725 0-232.019 20.229-33.44 20.229-33.44l-53.67-62.753h-249.726l-53.67 62.753s20.229 11.146 20.229 33.44 0 207.66 0 232.019 19.817 69.772 73.074 95.781 79.699 28.016 85.065 52.373z" fill="#fff"/></g></g><circle cx="183.352" cy="277.313" fill="#0db14b" r="86.924"/><circle cx="183.352" cy="277.313" fill="none" r="86.924" stroke="#000" stroke-width=".7"/><circle cx="183.169" cy="284.596" fill="#0db14b" r="79.044"/><ellipse cx="183.176" cy="285.935" fill="#1cb24d" rx="78.053" ry="77.55"/><ellipse cx="183.182" cy="287.274" fill="#26b34e" rx="77.061" ry="76.056"/><ellipse cx="183.188" cy="288.613" fill="#2db450" rx="76.069" ry="74.563"/><ellipse cx="183.194" cy="289.952" fill="#34b452" rx="75.077" ry="73.069"/><ellipse cx="183.2" cy="291.291" fill="#3ab555" rx="74.086" ry="71.575"/><ellipse cx="183.206" cy="292.631" fill="#3fb657" rx="73.094" ry="70.082"/><ellipse cx="183.212" cy="293.97" fill="#44b759" rx="72.102" ry="68.587"/><ellipse cx="183.219" cy="295.309" fill="#49b85c" rx="71.111" ry="67.093"/><ellipse cx="183.225" cy="296.648" fill="#4db85e" rx="70.119" ry="65.6"/><ellipse cx="183.231" cy="297.987" fill="#51b961" rx="69.127" ry="64.106"/><ellipse cx="183.237" cy="299.326" fill="#54ba64" rx="68.135" ry="62.612"/><ellipse cx="183.243" cy="300.665" fill="#58bb66" rx="67.144" ry="61.118"/><ellipse cx="183.249" cy="302.004" fill="#5bbc69" rx="66.152" ry="59.625"/><ellipse cx="183.255" cy="303.344" fill="#5fbd6c" rx="65.16" ry="58.131"/><ellipse cx="183.261" cy="304.683" fill="#62be6f" rx="64.168" ry="56.637"/><ellipse cx="183.267" cy="306.022" fill="#65bf72" rx="63.177" ry="55.144"/><ellipse cx="183.273" cy="307.361" fill="#68c075" rx="62.186" ry="53.649"/><ellipse cx="183.28" cy="308.7" fill="#6cc178" rx="61.194" ry="52.155"/><ellipse cx="183.286" cy="310.039" fill="#6fc27b" rx="60.202" ry="50.662"/><ellipse cx="183.292" cy="311.378" fill="#72c27d" rx="59.21" ry="49.168"/><ellipse cx="183.298" cy="312.717" fill="#74c380" rx="58.219" ry="47.674"/><ellipse cx="183.304" cy="314.057" fill="#77c483" rx="57.227" ry="46.18"/><ellipse cx="183.31" cy="315.396" fill="#7ac586" rx="56.235" ry="44.686"/><ellipse cx="183.316" cy="316.735" fill="#7dc688" rx="55.243" ry="43.192"/><ellipse cx="183.322" cy="318.074" fill="#80c78b" rx="54.252" ry="41.698"/><ellipse cx="183.329" cy="319.413" fill="#82c88d" rx="53.26" ry="40.205"/><ellipse cx="183.334" cy="320.752" fill="#85c990" rx="52.268" ry="38.712"/><ellipse cx="183.341" cy="322.091" fill="#88ca93" rx="51.277" ry="37.218"/><ellipse cx="183.347" cy="323.43" fill="#8bcb95" rx="50.285" ry="35.724"/><ellipse cx="183.353" cy="324.77" fill="#8dcc98" rx="49.293" ry="34.23"/><ellipse cx="183.359" cy="326.109" fill="#90cd9a" rx="48.301" ry="32.736"/><ellipse cx="183.365" cy="327.448" fill="#93cf9d" rx="47.31" ry="31.242"/><path d="m182.638 96.765h-148.094v142.88 92.855c0 54.495 61.101 87.524 94.542 99.909s50.368 20.643 54.083 28.486h.366c3.715-7.844 20.643-16.102 54.083-28.486 33.441-12.385 94.542-45.414 94.542-99.909 0-21.896 0-56.67 0-92.855 0-68.884 0-142.88 0-142.88zm87.638 180.548c0 48.006-38.917 86.924-86.924 86.924s-86.924-38.918-86.924-86.924c0-13.495 3.076-26.271 8.563-37.667 13.938-28.942 43.438-48.972 77.646-49.248.238-.001.475-.009.714-.009 34.512 0 64.327 20.113 78.361 49.256 5.489 11.397 8.564 24.173 8.564 37.668z" fill="url(#a)"/><g fill="none" stroke="#000" stroke-width="2"><path d="m183.352 190.389c34.512 0 64.327 20.113 78.361 49.256h70.447c0-68.884 0-142.88 0-142.88h-149.522v93.633c.238-.002.475-.009.714-.009z"/><path d="m261.713 239.646c5.488 11.396 8.563 24.172 8.563 37.667 0 48.006-38.917 86.924-86.924 86.924s-86.924-38.918-86.924-86.924c0-13.495 3.076-26.271 8.563-37.667h-70.447v92.855c0 54.495 61.101 87.524 94.542 99.909s50.368 20.643 54.083 28.486h.366c3.715-7.844 20.643-16.102 54.083-28.486 33.441-12.385 94.542-45.414 94.542-99.909 0-21.896 0-56.67 0-92.855z"/><path d="m182.638 190.398v-93.633h-148.094v142.88h70.447c13.938-28.941 43.439-48.971 77.647-49.247z"/><path d="m183.536 460.896c3.715-7.844 20.643-16.102 54.083-28.486 33.441-12.385 94.542-45.414 94.542-99.909 0-63.578 0-235.735 0-235.735h-297.617v235.735c0 54.495 61.101 87.524 94.542 99.909s50.368 20.643 54.083 28.486z"/></g><path d="m273.054 176.89s8.786 2.828 12.321-.202 4.747-6.867 4.747-6.867 10.705 3.131 13.129-1.919-4.04-9.594-4.04-9.594 8.584-5.049 6.06-14.341-11.412-7.474-11.412-7.474 5.354-6.463-.908-11.311-11.312 1.313-11.312 1.313 1.818-12.22-8.786-12.22h-2.926c-10.604 0-8.786 12.22-8.786 12.22s-5.05-6.161-11.312-1.313-.908 11.311-.908 11.311-8.888-1.818-11.412 7.474 6.06 14.341 6.06 14.341-6.464 4.544-4.04 9.594 13.129 1.919 13.129 1.919 1.212 3.837 4.747 6.867 12.321.202 12.321.202z" fill="#00904c"/><path d="m333.716 89.334c3.715-16.101 16.101-24.358 16.101-24.358l-45.825-54.083h-241.471l-45.825 54.083s12.386 8.257 16.101 24.358z" fill="#fd0" stroke="#000" stroke-width="2"/><path d="m172.376 129.345-5.518 18.963.115-.084 15.773-11.474.029-.022 16.055 10.705-.01-.032-5.986-18.374.004-.002 15.672-11.322.033-.02-19.23.149h-.045l-6.704-18.796-.028.088-6.427 18.752-.011.031-19.284.065.095.071z" fill="#fff" stroke="#000" stroke-width="2"/><g fill="#00904c"><path d="m137.051 393.022c2.545-11.628-2.567-21.337-6.048-26.3 1.874 3.679 3.56 10.777 1.106 23.753-.875-.491-1.741-.999-2.596-1.524 2.183-17.329-8.172-30.087-8.172-30.087s6.006 9.493 3.051 26.69c-.862-.617-1.721-1.248-2.574-1.901.089-1.689.192-4.553.263-9.394.148-10.213-6.661-20.576-6.661-20.576s2.813 7.993 3.553 14.803c.561 5.158-.831 9.716-1.539 11.625-1.678-1.422-3.354-2.917-5.038-4.48.604-2.392 1.395-6.442 1.395-11.289 0-7.846-3.997-16.875-3.997-16.875s.592 4.441 1.036 12.582c.314 5.769-1.374 9.892-2.387 11.811-1.393-1.364-2.802-2.779-4.229-4.237.603-2.027 1.454-5.569 1.731-10.091.444-7.254-3.256-19.243-3.256-19.243s1.628 8.586 1.036 15.69c-.472 5.667-2.166 9.067-2.833 10.215-1.082-1.13-2.183-2.29-3.298-3.47.553-1.281 1.93-4.979 2.282-10.74.444-7.253-3.997-18.8-3.997-18.8s1.48 8.29 1.48 16.135c0 6.407-2.072 9.259-2.833 10.089-2.052-2.313-3.984-4.723-5.801-7.201 1.176-2.099 3.229-6.302 3.749-10.881.74-6.513-3.701-18.651-3.701-18.651s1.185 7.105 1.037 16.875c-.099 6.501-2.029 8.733-3.312 9.505-1.387-2.038-2.702-4.111-3.946-6.203.758-1.231 2.879-5.083 3.508-10.571.771-6.723-2.311-17.509-2.311-17.509s.49 7.354.28 14.497c-.16 5.446-2.636 8.403-3.806 9.504-1.42-2.592-2.738-5.194-3.959-7.78 1.005-1.005 3.236-3.811 3.774-9.357.701-7.214-2.171-23.111-2.171-23.111s.35 3.292.21 14.427c-.107 8.516-2.667 12.23-3.867 13.512-1.096-2.521-2.103-5.008-3.025-7.432.888-.962 2.414-3.028 3.042-6.359.91-4.832-.49-24.792-.49-24.792s-.28 9.104-1.261 17.788c-.694 6.15-2.123 8.254-2.9 8.963-1.174-3.342-2.182-6.517-3.042-9.44.373-.612 1.065-1.842 2.23-4.213 1.961-3.992.35-26.543.35-26.543s-.14 7.073-.771 14.077c-.528 5.862-2.473 10.681-3.094 12.1-1.201-4.497-1.991-8.114-2.454-10.431.6-1.367 2.48-5.885 3.588-11.193 1.331-6.374 2.241-19.609 2.241-19.609s-2.731 6.934-3.292 13.447-3.065 14.512-3.065 14.512-2.188-.574-5.269-7.718-3.992-17.791-3.992-17.791-.491 8.335 1.19 15.969c1.676 7.611 8.361 12.783 8.401 12.813.379 3.325.904 6.606 1.56 9.841-.931-.724-2.661-2.289-5.548-5.637-4.832-5.603-8.194-19.049-8.194-19.049s1.891 12.396 5.323 19.189c2.655 5.256 7.435 8.824 9.468 10.175.767 3.137 1.648 6.227 2.642 9.262-1.198-.751-3.348-2.445-6.717-6.272-5.673-6.443-9.945-17.648-9.945-17.648s2.171 10.085 8.194 19.26c4.498 6.852 8.485 9.014 10.218 9.671.917 2.465 1.899 4.893 2.943 7.28-1.223-.563-3.673-2.042-8.189-5.956-7.354-6.373-12.676-17.999-12.676-17.999s3.082 12.256 11.346 20.38c5.825 5.727 9.761 7.515 11.583 8.075 1.268 2.652 2.607 5.25 4.005 7.792-1.583-.545-4.996-1.939-9.986-5.151-7.073-4.552-14.847-15.828-14.847-15.828s7.494 14.007 14.427 19.049c5.079 3.693 10.259 5.316 12.673 5.923 1.25 2.128 2.541 4.211 3.862 6.25-.887-.355-3.029-1.212-8.249-3.3-8.881-3.553-20.872-17.171-20.872-17.171s12.434 17.171 19.391 20.724c6.184 3.158 11.539 3.975 12.655 4.118 1.313 1.896 2.65 3.748 4.005 5.557-2.659-.623-7.178-1.855-12.664-4.05-8.882-3.553-18.355-13.767-18.355-13.767s8.29 12.582 18.207 17.171c6.543 3.027 12.49 4.118 15.791 4.512.759.959 1.521 1.905 2.288 2.835-4.305-.951-11.607-2.638-17.634-4.387-9.178-2.664-15.247-9.918-15.247-9.918 2.369 6.365 13.322 13.026 21.315 15.69 5.775 1.925 12.708 3.309 16.112 3.929 1.203 1.354 2.407 2.669 3.61 3.948-2.915-.051-8.216-.361-15.725-1.659-11.99-2.072-21.611-11.25-21.611-11.25s5.329 11.251 23.092 15.544c11.772 2.845 17.105 2.894 19.365 2.604 1.193 1.171 2.377 2.301 3.55 3.391-2.351.28-6.245.512-12.553.37-13.174-.296-27.533-7.993-27.533-7.993s10.954 10.065 23.388 11.842c8.821 1.26 17.488.732 21.783.319 1.063.909 2.111 1.783 3.139 2.615-17.866 4.903-41.205-3.379-41.205-3.379s20.662 14.375 45.987 7.07c.825.605 1.632 1.182 2.418 1.727-18.71 7.982-43.077.233-43.077.233s25.468 13.133 47.564 2.679c1.711 1.027 3.277 1.866 4.659 2.495 18.784 8.555 46.85 6.51 46.85 6.51v-4.836c-21.008.248-35.757-2.559-48.132-8.37z"/><path d="m313.378 301.788s-5.836 18.633-20.369 25.041c1.321-2.894 2.554-5.849 3.689-8.858 12.109-3.521 16.979-28.695 16.979-28.695s-5.078 19.256-15.356 24.14c1.02-3.03 1.938-6.111 2.732-9.243 12.18-2.25 12.4-31.174 12.4-31.174s-.903 21.772-11.384 26.817c.762-3.548 1.367-7.154 1.798-10.813.013.006.023.015.036.021 9.55-5.598 6.915-29.966 6.915-29.966s-.438 9.879-1.316 14.379c-.816 4.183-4.758 11.44-5.31 12.443.016-.183.037-.363.053-.546 0 0-.037.229-.111.652-.002.002-.011.019-.011.019s-1.921-.329-4.336-5.488-2.305-21.185-2.305-21.185-3.859 23.732 6.104 29.5c-.518 2.521-1.362 6.28-2.616 10.866-6.26-5.875-5.793-24.23-5.793-24.23s-4.936 19.252 4.647 28.246c-.924 3.112-2.017 6.499-3.293 10.058-8.103-5.013-5.929-26.744-5.929-26.744s-6.518 21.304 4.509 30.569c-1.184 3.08-2.505 6.258-3.972 9.474-8.578-6.697-5.183-28.131-5.183-28.131s-8.249 18.341 3.465 31.774c-1.644 3.369-3.452 6.756-5.437 10.095-9.329-5.42-4.169-29.506-4.169-29.506s-10.025 20.006 2.019 32.99c-2.033 3.177-4.234 6.288-6.617 9.274-8.303-9.079-2.219-31.85-2.219-31.85s-9.096 22.796-.722 35.359c-.677.77-1.363 1.531-2.066 2.278-1.636 1.738-3.231 3.422-4.796 5.053-8.462-6.32.768-31.753.768-31.753s-13.156 20.334-3.47 34.546c-2.475 2.535-4.883 4.926-7.262 7.181-9.034-9.071-1.406-28.39-1.406-28.39s-10.916 17.94-1.891 31.436c-2.735 2.462-5.461 4.733-8.229 6.817-6.452-9.097 3.378-30.91 3.378-30.91s-14.227 18.711-7.305 33.722c-2.575 1.738-5.219 3.313-7.964 4.736-5.35-13.665 6.745-30.778 6.745-30.778s-15.652 12.938-11.527 33.048c-11.824 5.105-25.89 7.563-45.368 7.324v4.836s27.51 2.045 46.295-6.51c.917-.418 1.916-.929 2.984-1.523 28.188 7.644 48.388-3.936 48.388-3.936s-19.406 6.557-42.874.499c2.205-1.501 4.582-3.259 7.075-5.247 26.084 4.223 47.003-11.374 47.003-11.374s-13.441 7.837-42.482 7.617c2.299-1.986 4.666-4.147 7.069-6.474 23.326.776 42.08-16.053 42.08-16.053s-16.081 11.261-38.037 12.017c2.077-2.14 4.166-4.397 6.247-6.763 21.477-1.273 38.084-22.187 38.084-22.187s-16.35 17.1-34.963 18.546c1.877-2.247 3.738-4.577 5.567-6.994 17.23-1.05 29.173-19.126 32.543-24.872-2.889 4.816-12.35 18.187-29.556 20.81 2.084-2.917 4.11-5.947 6.061-9.075 17.061-2.897 26.939-26.809 26.939-26.809s-8.467 17.069-24.438 22.668c1.767-3.026 3.452-6.141 5.04-9.334 14.765-2.689 22.47-29.44 22.47-29.44z"/><path d="m306.863 332.969c.648-1.08.972-1.737.972-1.737s-.332.646-.972 1.737z"/></g><path d="m271.587 129.725s2.68 2.828 2.982 5.656 0 5.958 0 5.958 2.12-3.232 4.241-4.545 4.848-1.515 4.848-1.515-6.464 5.756-7.069 9.493-.909 6.262-.909 6.262 3.636-4.949 7.776-6.06 5.555-1.111 5.555-1.111-7.271 3.636-9.998 7.776-2.424 11.311-2.424 11.311 2.625-5.514 8.584-6.422 8.08-.041 8.08-.041-6.867.404-11.008 6.16-5.555 7.776-5.555 14.038 0 10.302 0 12.019 1.414 6.16 5.757 6.16 6.362-1.615 8.988 1.01 2.828 4.747 2.828 4.747-5.252-2.828-7.878-2.727-5.757.101-8.483 1.212-5.15 1.111-5.15 1.111h-2.725s-2.424 0-5.15-1.111-5.857-1.111-8.483-1.212-7.878 2.727-7.878 2.727.202-2.121 2.828-4.747 4.646-1.01 8.988-1.01 5.757-4.443 5.757-6.16 0-5.757 0-12.019-1.414-8.281-5.555-14.038-11.008-6.16-11.008-6.16 2.121-.868 8.08.041 8.584 6.422 8.584 6.422.303-7.17-2.424-11.311-9.998-7.776-9.998-7.776 1.414 0 5.555 1.111 7.776 6.06 7.776 6.06-.304-2.525-.909-6.262-7.069-9.493-7.069-9.493 2.727.202 4.848 1.515 4.241 4.545 4.241 4.545-.303-3.131 0-5.958 2.982-5.656 2.982-5.656z" fill="#6d593b" stroke="#000" stroke-linecap="round" stroke-width=".7"/><path d="m121.45 116.411s-1.682 6.003-8.885 8.965-11.686 5.763-11.686 5.763 2.321.08 5.283.32 4.803-.32 4.803-.32-6.244.88-9.285 5.203-4.322 5.123-10.005 5.123-11.687 1.041-11.687 1.041.8-.88-1.201-2.881-5.443-8.806-3.202-13.448 5.684-8.244 10.806-9.205 10.646-1.281 11.926-4.883c1.921 4.803-4.723 8.004-4.723 8.004s7.125-3.521 12.007-4.322 6.403-.561 6.403-.561-3.762 1.041-5.843 3.442c0 0 3.282.641 7.124.48s8.165-2.721 8.165-2.721z" fill="#ed1a3b" stroke="#000" stroke-linecap="round" stroke-linejoin="round" stroke-width=".7"/><path d="m101.717 122.204s-.288 3.459-3.915 5.838c-3.627 2.378-5.782 4.382-5.782 4.382s1.277-.202 2.922-.382c1.645-.181 2.593-.681 2.593-.681s-3.322 1.139-4.53 3.823c-1.208 2.683-1.823 3.256-4.931 3.854-3.108.599-6.281 1.8-6.281 1.8s.344-.566-.96-1.449c-1.305-.884-3.903-4.242-3.167-7.017s2.24-5.106 4.939-6.171c2.701-1.065 5.687-1.822 6.008-3.926 1.556 2.424-1.74 4.875-1.74 4.875s3.525-2.676 6.111-3.628 3.443-.981 3.443-.981-1.947.966-2.833 2.498c0 0 1.863.004 3.946-.487s4.177-2.348 4.177-2.348z" fill="#f7941e"/><path d="m92.137 127.05s.304 2.135-1.565 4.076c-1.869 1.94-2.898 3.452-2.898 3.452s.746-.299 1.718-.635c.971-.336 1.475-.77 1.475-.77s-1.854 1.147-2.215 2.941c-.361 1.791-.656 2.222-2.455 3.013s-4.398 1.808-4.398 1.808.004-1.023-.908-1.378c-.913-.356-1.677-1.883-1.614-3.665.064-1.781.351-2.768 1.838-3.786 1.489-1.018 3.192-1.888 3.097-3.207 1.277 1.254-.382 3.193-.382 3.193s1.766-2.107 3.201-3.04 1.95-1.068 1.95-1.068-1.046.853-1.372 1.903c0 0 1.129-.254 2.324-.839 1.192-.586 2.204-1.998 2.204-1.998z" fill="#ffc20e"/><path d="m96.353 219.524-3.84-56.028 3.84-4.234v-1.871h-4.136l-12.407-13.589h-.591l-12.407 13.588h-4.136v1.871l3.84 4.234-3.84 56.028h-1.871v2.659h10.241v-1.441l8.567-8.612 8.37 8.416v1.638h10.241v-2.659zm-25.593-23.254.905-13.503 6.262 6.295zm8.903-5.462 7.75 7.792h-15.498zm-6.848-10.376h13.691l-6.844 6.884zm1.618-3.052 5.082-5.086 5.082 5.086zm6.822-6.827 4.958-4.962.713 10.637zm-1.74-1.742-6.197-6.202h12.395zm-1.741 1.742-5.671 5.675.713-10.637zm8.789 31.099-6.949 6.986-6.948-6.986zm-5.165-12.59 5.984-6.019.865 12.905zm-1.883-39.451 5.81 7.484h-11.62zm-10.283 69.465 1.091-16.287 7.554 7.596zm19.487-16.1 1.064 15.888-8.434-8.48z"/><path d="m76.923 470.555 1.885 2.959c-1.626 1.195-3.199 1.787-4.718 1.776-1.519-.012-2.987-.592-4.404-1.741-1.753-1.423-2.683-3.222-2.789-5.398s.728-4.358 2.502-6.545c1.876-2.313 3.901-3.649 6.074-4.009 2.173-.358 4.184.212 6.033 1.712 1.615 1.31 2.519 2.877 2.713 4.699.118 1.082-.124 2.3-.726 3.656l-3.177-1.478c.428-.847.564-1.68.407-2.499-.157-.818-.59-1.516-1.298-2.09-.979-.794-2.072-1.068-3.282-.823-1.209.244-2.485 1.195-3.829 2.851-1.425 1.758-2.14 3.252-2.145 4.485-.004 1.232.474 2.238 1.435 3.018.708.575 1.51.832 2.405.772s1.866-.508 2.914-1.345z"/><path d="m79.404 480.24 9.933-14.886 2.855 1.905-9.934 14.886z"/><path d="m86.957 485.292 8.663-15.659 2.922 1.616.304 13.825 5.785-10.457 2.791 1.544-8.663 15.659-3.014-1.667-.348-13.529-5.649 10.212z"/><path d="m107.289 496.045 5.814-13.684-4.643-1.973 1.184-2.786 12.434 5.283-1.184 2.786-4.632-1.968-5.815 13.684z"/><path d="m131.244 504.873-3.551-1.155-.154-4.325-6.462-2.103-2.592 3.432-3.463-1.127 11.834-14.969 3.452 1.123zm-3.82-8.689-.173-7.039-4.238 5.604z"/><path d="m134.1 505.548 3.796-17.488 3.354.729-1.686 7.766 8.463-6.295 4.51.979-7.734 5.453 4.278 12.108-4.34-.941-2.786-9.199-3.354 2.333-1.147 5.284z"/><path d="m153.969 491.406 3.409.407-1.15 9.624c-.183 1.527-.259 2.521-.229 2.984.059.745.336 1.37.833 1.876.496.506 1.22.816 2.172.93.967.115 1.721-.005 2.263-.362.541-.357.897-.834 1.07-1.428.172-.594.342-1.594.51-3l1.175-9.83 3.409.407-1.116 9.333c-.255 2.134-.527 3.63-.817 4.488-.289.858-.718 1.562-1.285 2.108-.568.547-1.288.95-2.16 1.211s-1.976.311-3.312.151c-1.612-.192-2.811-.535-3.597-1.026s-1.384-1.079-1.792-1.764c-.409-.684-.649-1.378-.72-2.083-.101-1.045-.033-2.562.205-4.549z"/><path d="m182.101 511.347-.625-17.885 3.337-.116 7.371 11.7-.417-11.943 3.188-.111.624 17.885-3.441.12-7.258-11.424.408 11.663z"/><path d="m201.248 510.642-2.223-17.757 12.508-1.565.377 3.004-9.103 1.14.493 3.937 8.469-1.061.375 2.992-8.47 1.06.604 4.833 9.424-1.18.375 2.992z"/><path d="m224.062 500.602-.67-2.94 7.215-1.641 1.582 6.951c-.539.874-1.412 1.733-2.619 2.58-1.207.846-2.492 1.424-3.857 1.734-1.734.395-3.332.355-4.795-.117s-2.682-1.348-3.654-2.624c-.973-1.277-1.648-2.753-2.029-4.427-.412-1.817-.418-3.515-.016-5.092s1.215-2.901 2.438-3.973c.932-.82 2.189-1.411 3.771-1.771 2.059-.468 3.77-.379 5.133.267s2.395 1.731 3.09 3.259l-3.176 1.411c-.428-.804-1.021-1.381-1.777-1.73-.758-.349-1.619-.414-2.584-.194-1.463.333-2.514 1.085-3.156 2.258-.641 1.172-.742 2.719-.307 4.639.473 2.071 1.262 3.525 2.373 4.361 1.109.837 2.373 1.095 3.791.771.701-.159 1.371-.464 2.01-.914.639-.449 1.164-.938 1.574-1.466l-.504-2.214z"/><path d="m237.599 503.819-5.764-16.942 11.934-4.059.977 2.865-8.686 2.954 1.277 3.756 8.08-2.748.973 2.854-8.082 2.748 1.57 4.611 8.99-3.059.971 2.854z"/><path d="m253.587 498.168-7.49-16.252 6.561-3.024c1.65-.76 2.916-1.167 3.799-1.22.883-.052 1.721.191 2.514.73s1.41 1.289 1.854 2.25c.563 1.22.686 2.384.371 3.492s-1.102 2.078-2.361 2.909c.863.104 1.631.302 2.297.595.668.293 1.664.899 2.99 1.82l3.348 2.302-3.729 1.719-3.885-2.498c-1.383-.895-2.297-1.438-2.744-1.632-.445-.192-.861-.274-1.248-.244s-.938.21-1.654.54l-.631.292 3.127 6.784zm-1.205-10.815 2.307-1.063c1.494-.689 2.398-1.187 2.709-1.491s.496-.668.557-1.09c.061-.423-.021-.878-.246-1.365-.252-.547-.594-.925-1.025-1.133-.434-.209-.922-.241-1.469-.097-.27.08-1.037.41-2.301.993l-2.434 1.121z"/><path d="m271.256 489.667-8.723-15.626 2.996-1.673 8.725 15.625z"/><path d="m278.921 485.292-9.947-14.876 2.854-1.908 4.418 6.606 1.348-10.461 3.836-2.565-1.447 9.353 11.684 5.33-3.691 2.469-8.553-4.384-.652 4.033 3.006 4.495z"/><path d="m283.438 461.527 2.584-2.26 6.381 7.296c1.012 1.157 1.701 1.88 2.064 2.167.592.455 1.242.667 1.951.637.707-.029 1.422-.36 2.145-.991.732-.642 1.148-1.283 1.244-1.924.098-.642-.018-1.225-.344-1.75-.326-.526-.955-1.322-1.889-2.388l-6.516-7.452 2.584-2.26 6.188 7.075c1.414 1.617 2.344 2.821 2.787 3.61.445.79.68 1.579.707 2.367.025.787-.156 1.593-.547 2.415-.389.821-1.09 1.676-2.104 2.562-1.223 1.068-2.279 1.73-3.17 1.985-.891.256-1.727.306-2.51.152-.781-.154-1.459-.441-2.029-.86-.844-.624-1.926-1.689-3.244-3.196z"/><path d="m65.701 67.958v-33.644h7.631c2.892 0 4.776.168 5.654.505 1.35.505 2.479 1.603 3.39 3.293.91 1.691 1.366 3.875 1.366 6.552 0 2.065-.263 3.802-.787 5.209-.525 1.408-1.192 2.513-2 3.316-.809.803-1.631 1.335-2.466 1.595-1.135.321-2.779.482-4.932.482h-3.101v12.691h-4.755zm4.755-27.953v9.547h2.603c1.874 0 3.127-.176 3.759-.528s1.127-.902 1.486-1.652.538-1.622.538-2.616c0-1.224-.251-2.233-.755-3.029-.503-.795-1.141-1.292-1.912-1.492-.568-.153-1.708-.229-3.422-.229h-2.297z"/><path d="m106.441 67.958h-5.173l-2.056-7.642h-9.414l-1.943 7.642h-5.045l9.173-33.644h5.028zm-8.755-13.311-3.245-12.484-3.181 12.484z"/><path d="m108.963 67.958v-33.644h7.631c2.892 0 4.776.168 5.654.505 1.35.505 2.479 1.603 3.39 3.293.91 1.691 1.366 3.875 1.366 6.552 0 2.065-.263 3.802-.787 5.209-.525 1.408-1.192 2.513-2 3.316-.809.803-1.631 1.335-2.466 1.595-1.135.321-2.779.482-4.932.482h-3.101v12.691h-4.755zm4.755-27.953v9.547h2.603c1.874 0 3.127-.176 3.759-.528s1.127-.902 1.486-1.652.538-1.622.538-2.616c0-1.224-.251-2.233-.755-3.029-.503-.795-1.141-1.292-1.912-1.492-.568-.153-1.708-.229-3.422-.229h-2.297z"/><path d="m130.875 34.314h4.755v18.222c0 2.892.059 4.766.177 5.623.203 1.377.688 2.482 1.454 3.316s1.813 1.251 3.141 1.251c1.35 0 2.367-.394 3.052-1.182s1.098-1.756 1.237-2.903.209-3.052.209-5.714v-18.613h4.755v17.671c0 4.039-.128 6.893-.385 8.56-.257 1.668-.731 3.075-1.422 4.223s-1.614 2.062-2.771 2.743c-1.157.68-2.667 1.021-4.53 1.021-2.249 0-3.955-.371-5.117-1.113s-2.08-1.706-2.755-2.892-1.119-2.429-1.333-3.729c-.311-1.928-.466-4.773-.466-8.537v-17.947z"/><path d="m175.903 67.958h-5.173l-2.056-7.642h-9.414l-1.943 7.642h-5.044l9.173-33.644h5.028zm-8.755-13.311-3.245-12.484-3.181 12.484z"/><path d="m195.502 34.314h9.413c1.864 0 3.254.111 4.17.333.915.222 1.734.685 2.457 1.388.723.704 1.326 1.641 1.807 2.811.482 1.171.725 2.483.725 3.936 0 1.576-.299 3.022-.893 4.337-.594 1.316-1.4 2.303-2.418 2.96 1.436.597 2.539 1.614 3.311 3.052.77 1.438 1.156 3.129 1.156 5.072 0 1.53-.25 3.018-.748 4.463-.498 1.446-1.178 2.602-2.039 3.466-.863.864-1.926 1.396-3.189 1.595-.793.123-2.704.199-5.734.229h-8.017v-33.642zm4.755 5.6v7.78h3.117c1.852 0 3.004-.038 3.453-.115.814-.138 1.454-.539 1.92-1.205.466-.665.699-1.541.699-2.627 0-1.04-.201-1.885-.604-2.536-.4-.65-.998-1.044-1.791-1.182-.471-.076-1.826-.115-4.064-.115zm0 13.379v8.996h4.402c1.713 0 2.8-.069 3.261-.207.706-.184 1.282-.631 1.727-1.343.444-.711.667-1.664.667-2.857 0-1.01-.172-1.866-.514-2.57-.344-.704-.838-1.216-1.486-1.538s-2.054-.482-4.217-.482h-3.84z"/><path d="m240.481 67.958h-5.172l-2.057-7.642h-9.414l-1.943 7.642h-5.045l9.174-33.644h5.027zm-8.753-13.311-3.246-12.484-3.18 12.484z"/><path d="m243.021 67.958v-33.644h10.008c2.518 0 4.346.302 5.486.906 1.141.605 2.053 1.68 2.738 3.225.686 1.545 1.029 3.313 1.029 5.301 0 2.524-.52 4.609-1.559 6.253-1.039 1.645-2.592 2.682-4.658 3.11 1.027.857 1.877 1.798 2.545 2.823.67 1.025 1.572 2.846 2.707 5.462l2.877 6.563h-5.688l-3.438-7.321c-1.221-2.616-2.057-4.265-2.506-4.946-.451-.68-.928-1.147-1.43-1.399-.504-.253-1.303-.379-2.395-.379h-.963v14.045h-4.753zm4.755-19.416h3.518c2.281 0 3.705-.138 4.273-.413.566-.275 1.012-.75 1.332-1.423.322-.673.482-1.515.482-2.524 0-1.132-.211-2.046-.635-2.742-.422-.696-1.02-1.136-1.791-1.32-.385-.076-1.541-.115-3.469-.115h-3.711v8.537z"/><path d="m288.001 67.958h-5.172l-2.057-7.642h-9.414l-1.943 7.642h-5.045l9.174-33.644h5.027zm-8.754-13.311-3.246-12.484-3.18 12.484z"/><path d="m293.384 67.958v-27.953h-6.988v-5.691h18.715v5.691h-6.973v27.952h-4.754z"/><path d="m174.871 392.65c-13.948-5.394-21.015 13.764-13.948 19.528s12.646 1.674 12.646 1.674-.186 8.554-4.463 9.112-5.021.372-5.021-1.674c0 0 4.463-2.046 1.116-3.72s-6.881.186-7.253 5.394c0 0-1.303-1.301-3.162-.743s-1.116 3.348-1.116 3.348-3.162-1.674-6.695 0-4.649 5.207-4.649 5.207 6.324-1.674 10.601-.744 10.786 2.975 18.412-2.418 6.324-7.439 9.485-13.019c-.001 0 7.995-16.552-5.953-21.945zm-3.348 17.985c-3.051 0-5.524-2.474-5.524-5.524s2.474-5.524 5.524-5.524 5.524 2.474 5.524 5.524-2.473 5.524-5.524 5.524z" fill="#fff" stroke="#000" stroke-width=".7"/><path d="m185.69 414.595c3.16 5.579 1.859 7.626 9.484 13.019s14.135 3.348 18.412 2.418 10.602.744 10.602.744-1.117-3.533-4.65-5.207-6.695 0-6.695 0 .744-2.79-1.115-3.348-3.162.743-3.162.743c-.373-5.208-3.906-7.067-7.254-5.394s1.117 3.72 1.117 3.72c0 2.046-.744 2.232-5.021 1.674-4.279-.559-4.465-9.112-4.465-9.112s5.58 4.091 12.646-1.674c7.068-5.765 0-24.922-13.947-19.528-13.949 5.393-5.952 21.945-5.952 21.945zm3.774-9.484c0-3.051 2.475-5.524 5.525-5.524s5.523 2.474 5.523 5.524-2.473 5.524-5.523 5.524-5.525-2.473-5.525-5.524z" fill="#fff" stroke="#000" stroke-width=".7"/><path d="m174.414 400.843s-2.433-1.217-8.167 3.649-9.327 10.021-13.034 9.848-4.229-1.796-4.229-1.796 3.475.986 4.055-1.795-3.244-4.634-5.734-3.244-3.708 3.476-3.708 3.476-.348-3.186-2.665-3.128-1.448 2.78-1.448 2.78-2.027-1.622-6.719-.521-7.125 5.445-7.125 5.445 4.229-2.316 7.936-.753 8.515 7.646 17.32 6.43 13.844-11.18 17.204-13.555 6.545-3.013 8.457-.521c0 0 1.564-3.825-2.143-6.315z" fill="#00904c"/><path d="m192.099 400.843s2.432-1.217 8.168 3.649c5.734 4.866 9.326 10.021 13.033 9.848s4.229-1.796 4.229-1.796-3.475.986-4.055-1.795 3.244-4.634 5.734-3.244 3.707 3.476 3.707 3.476.348-3.186 2.664-3.128c2.318.058 1.449 2.78 1.449 2.78s2.027-1.622 6.719-.521 7.125 5.445 7.125 5.445-4.229-2.316-7.936-.753-8.516 7.646-17.32 6.43-13.844-11.18-17.203-13.555c-3.361-2.375-6.547-3.013-8.457-.521 0 0-1.564-3.825 2.143-6.315z" fill="#00904c"/><g stroke="#000"><circle cx="183.352" cy="277.313" fill="none" r="86.924" stroke-width="3"/><g stroke-linecap="round" stroke-linejoin="round" stroke-width=".7"><path d="m290.168 192.288s1.355-3.745 5.737-3.825 11.633 6.853 7.888 12.589-10.278 3.187-13.625 3.267l1.992-2.151s-2.549-.319-6.932.797-12.511 2.152-16.096 3.666-4.541 2.549-4.541 2.549-.001.717.637.797 1.195.797 1.195.797-1.594.717.159 1.514 4.702 1.753 7.331 3.825 2.63 2.31 5.259 2.39 3.824-.398 3.824-.398 4.223 3.505 9.162 1.991 6.375-1.992 6.375-1.992-1.832-1.991-5.338-1.991-4.701.08-4.701.08 5.179-.478 9.083-.398 10.198-1.593 13.386-9.88-7.49-16.334-7.012-20.796 2.229-7.171 4.939-9.163 4.303-2.311 4.303-2.311-5.258-2.47-9.242 2.231-3.427 8.685-3.427 8.685-2.787-2.789-7.409-.159-2.947 7.886-2.947 7.886z" fill="#dcddde"/><path d="m283.235 207.585s3.665 1.913 2.948 5.339-3.187 5.18-3.187 5.18" fill="none"/><circle cx="274.87" cy="209.736" fill="#fff" r="1.352"/></g></g><path d="m287.979 208.261c.238-.875.237-1.192 5.961-1.352s9.379-.159 11.605-4.928.16-8.823-2.94-12.798c0 0 8.343 6.33 4.292 14.546-2.782 5.644-10.81 5.087-13.274 4.849s-5.644-.317-5.644-.317z" fill="#fff"/><path d="m146.515 242.322c4.79-.845 11.905-6.833 15.075-9.651s8.172-6.27 12.188-5.143c3.157.886 6.002 1.379 7.077 1.55-.127-.052-.195-.078-.195-.078s-.19-.571 0-1.901-.951-4.373-2.852-8.936-4.943-9.125-8.175-9.315-15.589-6.844-19.202-6.844-7.034 3.422-10.266 10.266 1.676 28.521 1.676 28.521.108-.105-.086.049c.534.911 1.797 2.005 4.76 1.482z" fill="#b08453"/><path d="m241.306 303.905c-19.011-.381-29.468 9.506-36.883 10.457-7.175.92-15.037-3.133-15.541-3.397-.135 2.015-.51 8.876.324 13.286.986 5.213 5.848 7.89 11.412 13.877s4.579 16.837 1.127 20.57c-3.451 3.733-12.962 2.113-18.738-2.536s-11.342-17.893-13.737-29.164 10.497-30.645 10.778-35.787-4.227-6.058-6.692-3.733-5.636 2.677-7.749 3.452-5.213 6.833-6.129 9.51-2.818 10.145-4.649 11.482-3.663-.211-4.72-1.057c-.291-.232-.573-.374-.833-.466-.245.479-3.512 7.271-1.315 24.114 1.385 10.618 6.761 20.247 10.774 26.182 7.806 2.301 16.066 3.542 24.618 3.542 37.955 0 70.222-24.328 82.073-58.239-6.248-.937-14.768-1.906-24.12-2.093z"/><path d="m154.828 311.921c1.832-1.338 3.733-8.806 4.649-11.482s4.016-8.734 6.129-9.51 5.283-1.128 7.749-3.452 6.974-1.409 6.692 3.733-13.174 24.516-10.778 35.787 7.961 24.515 13.737 29.164 15.287 6.27 18.738 2.536c3.452-3.733 4.438-14.583-1.127-20.57s-10.426-8.664-11.412-13.877c-.834-4.41-.459-11.271-.324-13.286-.017-.009-.049-.025-.049-.025s-.949-3.422-1.141-8.555c-.189-5.133 2.662-16.35 6.465-21.483 3.802-5.134 2.091-10.646 2.091-10.646s.019-.079.044-.201c-.697-1.389-1.609-3.297-2.226-4.837-.845-2.113-2.606-2.888-5.001-1.62-2.396 1.268-6.341 6.763-9.511 8.172s-3.17-3.1-10.144-3.663c-5.634-.455-8.002 4.373-8.705 6.246.224.174.372.276.372.276s-1.711 5.323-2.281 9.696-9.506 14.638-12.168 19.2 2.662 6.845 2.662 6.845-.006.012-.016.03c.261.092.543.233.833.466 1.059.845 2.891 2.394 4.722 1.056z" fill="#ed1a3b"/><path d="m180.854 229.079c-1.075-.171-3.919-.664-7.077-1.55-4.015-1.127-9.017 2.325-12.188 5.143-2.733 2.429-8.393 7.205-12.972 9.021-.733.291-1.441.513-2.103.63-2.963.523-4.226-.571-4.76-1.482-1.205.952-5.758 4.681-9.194 9.262-3.992 5.323-3.232 10.646-3.232 10.646s3.232-1.141 9.505-4.373 12.738-1.901 12.738-1.901.068.045.175.116c.869.583 4.893 3.344 5.909 5.207 1.141 2.091 1.711 8.556.761 10.456-.76 1.52 1.395 3.402 2.29 4.097.703-1.873 3.071-6.701 8.705-6.246 6.974.563 6.974 5.072 10.144 3.663s7.115-6.904 9.511-8.172c2.395-1.268 4.156-.493 5.001 1.62.616 1.54 1.528 3.448 2.226 4.837.241-1.138 1.496-7.621 1.668-20.33.177-13.194-15.194-19.866-17.107-20.644z" fill="#00a0d8"/><path d="m165.031 255.087c1.891-1.386.854-4.166-1.226-4.417s-9.423 1.267-9.423 1.267 4.551-.468 7.639-.594 4.711-1.919 3.766-3.116-2.378-3.921-8.523-3.029c-6.52.946-5.264.812-8.226 1.883s-3.667.496-3.171-.396c.444-.799.396 0 2.676-1.586 1.444-1.004.097-2.481.076-3.406-.733.291-1.441.513-2.103.63-2.963.523-4.226-.571-4.76-1.482-1.205.952-5.758 4.681-9.194 9.262-3.992 5.323-3.232 10.646-3.232 10.646s3.232-1.141 9.505-4.373 12.738-1.901 12.738-1.901.068.045.175.116h2.446c2.267 0 8.947 1.882 10.837.496z" fill="#bea860"/><path d="m165.031 255.087c1.891-1.386.063-3.143-2.017-3.395s-8.633.244-8.633.244 3.15-1.315 6.238-1.441 6.112-1.071 5.167-2.269-5.356-1.89-11.72-.189-12.477 2.583-15.439 3.655-2.142-1.134-.441-3.781 5.797-3.277 8.444-3.655c1.741-.249 2.008-1.64 1.987-2.564-.733.291-1.441.513-2.103.63-2.963.523-4.226-.571-4.76-1.482-1.205.952-5.758 4.681-9.194 9.262-3.992 5.323-3.232 10.646-3.232 10.646s3.232-1.141 9.505-4.373 12.738-1.901 12.738-1.901.068.045.175.116h2.446c2.269.001 8.949 1.883 10.839.497z" fill="#ffe17f"/><g stroke="#000"><circle cx="172.467" cy="241.61" fill="#bd9806" r="4.901" stroke-width=".7"/><g fill="none"><path d="m241.306 303.905c-19.011-.381-29.468 9.506-36.883 10.457-7.175.92-15.037-3.133-15.541-3.397-.017-.009-.049-.025-.049-.025s-.949-3.422-1.141-8.555c-.189-5.133 2.662-16.35 6.465-21.483 3.802-5.134 2.091-10.646 2.091-10.646s.019-.079.044-.201c.241-1.138 1.496-7.621 1.668-20.33.178-13.194-15.193-19.866-17.105-20.645-.127-.052-.195-.078-.195-.078s-.19-.571 0-1.901-.951-4.373-2.852-8.936-4.943-9.125-8.175-9.315-15.589-6.844-19.202-6.844-7.034 3.422-10.266 10.266c-3.209 6.795 1.605 28.206 1.673 28.506-.018.013-.041.03-.083.063-1.205.952-5.758 4.681-9.194 9.262-3.992 5.323-3.232 10.646-3.232 10.646s3.232-1.141 9.505-4.373 12.738-1.901 12.738-1.901.068.045.175.116c.869.583 4.893 3.344 5.909 5.207 1.141 2.091 1.711 8.556.761 10.456-.76 1.52 1.395 3.402 2.29 4.097.224.174.372.276.372.276s-1.711 5.323-2.281 9.696-9.506 14.638-12.168 19.2 2.662 6.845 2.662 6.845-.006.012-.016.03c-.245.479-3.512 7.271-1.315 24.114 1.385 10.618 6.761 20.247 10.774 26.182 7.806 2.301 16.066 3.542 24.618 3.542 37.955 0 70.222-24.328 82.073-58.239-6.248-.936-14.768-1.905-24.12-2.092z" stroke-width="1.5"/><g stroke-width=".7"><path d="m146.515 242.322c4.79-.845 11.905-6.833 15.075-9.651s8.172-6.27 12.188-5.143c3.157.886 6.002 1.379 7.077 1.55-.127-.052-.195-.078-.195-.078s-.19-.571 0-1.901-.951-4.373-2.852-8.936-4.943-9.125-8.175-9.315-15.589-6.844-19.202-6.844-7.034 3.422-10.266 10.266 1.676 28.521 1.676 28.521.108-.105-.086.049c.534.911 1.797 2.005 4.76 1.482z"/><path d="m154.828 311.921c1.832-1.338 3.733-8.806 4.649-11.482s4.016-8.734 6.129-9.51 5.283-1.128 7.749-3.452 6.974-1.409 6.692 3.733-13.174 24.516-10.778 35.787 7.961 24.515 13.737 29.164 15.287 6.27 18.738 2.536c3.452-3.733 4.438-14.583-1.127-20.57s-10.426-8.664-11.412-13.877c-.834-4.41-.459-11.271-.324-13.286-.017-.009-.049-.025-.049-.025s-.949-3.422-1.141-8.555c-.189-5.133 2.662-16.35 6.465-21.483 3.802-5.134 2.091-10.646 2.091-10.646s.019-.079.044-.201c-.697-1.389-1.609-3.297-2.226-4.837-.845-2.113-2.606-2.888-5.001-1.62-2.396 1.268-6.341 6.763-9.511 8.172s-3.17-3.1-10.144-3.663c-5.634-.455-8.002 4.373-8.705 6.246.224.174.372.276.372.276s-1.711 5.323-2.281 9.696-9.506 14.638-12.168 19.2 2.662 6.845 2.662 6.845-.006.012-.016.03c.261.092.543.233.833.466 1.059.845 2.891 2.394 4.722 1.056z"/></g></g></g><path d="m144.53 239.777s-3.944-16.678-3.606-22.424 4.958-13.183 8.226-13.634 5.071 1.464 10.367 3.718 9.24 2.254 8.226 2.705-5.973.337-8.113-.789-4.976-5.402-10.046-2.022-6.31 9.127-4.62 15.1 2.383 10.136 1.369 13.403.563 5.07-1.803 3.943z" fill="#e1c09f"/><path d="m155.009 241.017s9.015-12.057 16.001-12.508 17.805 2.817 19.945 10.592 2.703 10.818-2.705 6.761c-5.409-4.057-9.916-10.705-15.775-10.254s-5.634 1.69-8.564 4.282-8.677 1.577-8.902 1.127z" fill="#53bee1"/><path d="m181.715 250.482c4.087-2.155 7.326 2.254 6.085 6.085s-1.353 5.634-4.62 7.324c-3.268 1.69-6.311 1.465-5.747.226s-1.915-10.367 4.282-13.635z" fill="#53bee1"/><g fill="#f27179"><path d="m171.856 271.466c-.04-.236-4.908-1.636-7.053 1.354s-1.58 7.165-4.232 13.315-12.188 16.589-11.341 17.887 1.128 2.426 2.877.959 7.391-15.8 8.746-17.661 1.58-13.204 6.997-12.978 4.232-1.521 4.006-2.876z"/><path d="m192.282 265.203c-.624-.561-3.725.451-5.981 3.272s-5.247 5.53-4.288 6.771 2.482 1.807 3.272.564 3.442-3.611 5.417-2.878 4.909-4.738 1.58-7.729z"/><path d="m181.458 306.166c-.226.057-6.667 26.294 3.714 33.629s16.759 9.141 15.122 3.555-13.372-5.642-16.363-15.347c-2.99-9.706-2.473-21.837-2.473-21.837z"/></g><path d="m140.398 255.424s7.878-3.102 16.811-4.032c4.991-.52 5.623-.397 5.623-.397" fill="none" stroke="#000" stroke-linecap="round" stroke-linejoin="round" stroke-width=".7"/><ellipse cx="172.438" cy="243.55" fill="#fd0" rx="3.787" ry="2.498"/><circle cx="172.53" cy="241.673" r="1.782" stroke="#000" stroke-width=".7"/><ellipse cx="147.257" cy="246.458" rx="1.782" ry=".963" transform="matrix(.9425 -.3343 .3343 .9425 -73.9094 63.3964)"/><circle cx="174.176" cy="239.822" fill="#fff" r="1.582"/></svg>