<svg height="595.70532" viewBox="0 0 571.83594 476.56426" width="714.79492" xmlns="http://www.w3.org/2000/svg" xmlns:xlink="http://www.w3.org/1999/xlink"><clipPath id="a"><path d="m-11.25 527.5h616.25v-538.75h-616.25zm0 0"/></clipPath><g clip-path="url(#a)" clip-rule="evenodd" transform="translate(-10.273438 -20.664062)"><path d="m294.28906 20.664062c104.89844 0 190.45313 85.550778 190.45313 190.449218 0 21.95703-3.76172 43.0625-10.64844 62.71484l-50.3125-38.99218-63.71875 86.4375-65.69141-100.26563-60.26562 104.21875-67.66406-97.30469-47.67188 57.02344c-9.60937-22.72265-14.93359-47.67578-14.93359-73.83203 0-104.89844 85.55468-190.449218 190.45312-190.449218zm-22.27734 44.375c-2.44922.539063-4.67188 1.023438-7.1211 1.5625l4.83985-5.449218-3.69531-6.292969 6.6914 2.921875 4.84766-5.453125-.71875 7.257813 6.67969 2.929687c-2.3711.515625-4.7461 1.039063-7.1211 1.554687l-.71094 7.261719zm-10.90235 22.203126c4.73438 10.449218 15.26563 17.738282 27.44532 17.738282 16.58593 0 30.11718-13.531251 30.11718-30.113282 0-13.425782-8.86328-24.84375-21.03125-28.714844 6.5625 5.054687 10.80469 12.980468 10.80469 21.871094 0 15.1875-12.39453 27.582031-27.58594 27.582031-7.73046 0-14.73046-3.207031-19.75-8.363281zm-16.41406 49.597652c11.01563-.46484 36.32422 26.60547 35.75781 31.8125-3.10546 9.72657-5.48828 22.47657-5.42187 27.00782-.0234 8.73828 2.40625 13.16015 2.09375 16.27343-4.45313 8.34766-6.77344 15.3125-10.15234 25.58203-1.9961 1.20313-7.12891 1.30469-8.60938.28907.64063-2.03125 1.28125-2.06641 4.07422-3.16016 4.15625-6.76953 6.53125-14.07422 8.76953-21.23047.0742-8.96094-4.57422-12.08594-5.61328-21.5625-1.57031 7.14063-.10938 14.82422-1.33594 17.42578-1.9375 7.76172-7.01562 16.15625-9.23828 24.82813-2.33203 1.09765-6.35156.9375-8.88672-.17969 2.14453-3.59766 3.39063-2.5 6.3125-4.53125 2.80469-7.59375 4.82422-14.49219 6.84375-20.55859 1.91797-9.04688-1.97656-15.64063-4.10937-23.40625-2.83985.90625-6.40625 1.80078-9.39063 1.87109-4.24609.0898-8.21875-2.08203-12.39844-2.83203.89844 9.02734 4.49219 13.36719 4.5 20.18359-4.70703 10.58203-6.15625 26.7461-7.1289 29.31641-2.35938.91406-4.47266 1.19531-6.0586.5625-.42968.75-.85937 1.50391-1.57812 2.10937-4.39844.4336-7.37891 1.25782-8.3125-.59375 3.20312-4.92187.20312-1.39453 5.09375-4.48437.63672-16.875 1.23047-35.16016 1.09375-52.80859-.25781-1.23829-1.8125-2.91016-4.39063-2.98829-1.48437.71485-2.19921 1.75782-4.45703 1.70313-8.75781-1.13672-12.5-11.59375-12.6289-14.1875-.0117-4.46875 2.55468-12.45703 1.37109-24.74219-1.61328-.91797-2.44922-2.36328-4.83203-2.89453-3.30859.0195-6.0625-.0352-8.01172-1.83203 2.06641-7.10937 6.15234-6.81641 12.84375-7.01562.80078-.64454 1.60547-1.28907 2.41016-1.9336 2.0664.2461 3.11718 1.5 4.02343 2.89453 2.62891.26953 3.37891.39844 6.00782.66406-.2461 1.44532-.63672 2.75-1.59766 4.19922-.0586 3.76172-.49609 7.6875-2.48047 11.06641.0625 6.63281-1.30469 14.71094 4.5 15.60547 7.53125-.74219 24.17969-23.53516 30.9375-22.45313zm-18.33594 53.85547c2.80469-.0391 6.03125 8.99219 6.25782 13.77344-.48438 8.16797-3.33985 16.6875-4.125 23.57031-1.15625.4375-2.83203 1.58594-3.61719 2.23438-1.57031-5.69922-.11719-14.92969-.30859-20.15625 1.80468-1.91407 1.66015-12.96875 1.79296-19.42188zm126.33985-53.85547c11.01562-.46484 36.32422 26.60547 35.75781 31.8125-3.10547 9.72657-5.49219 22.47657-5.42578 27.00782-.0234 8.73828 2.40234 13.16015 2.09375 16.27343-4.45703 8.34766-6.77344 15.3125-10.14844 25.58203-2.0039 1.20313-7.13281 1.30469-8.60937.28907.63281-2.03125 1.28125-2.06641 4.0664-3.16016 4.16016-6.76953 6.53516-14.07422 8.77735-21.23047.0703-8.96094-4.58203-12.08594-5.61719-21.5625-1.57031 7.14063-.10938 14.82422-1.33203 17.42578-1.94141 7.76172-7.01953 16.15625-9.23828 24.82813-2.33594 1.09765-6.35938.9375-8.88672-.17969 2.13672-3.59766 3.38281-2.5 6.30859-4.53125 2.80469-7.59375 4.82813-14.49219 6.83985-20.55859 1.92578-9.04688-1.96875-15.64063-4.10157-23.40625-2.83984.90625-6.41015 1.80078-9.39453 1.87109-4.25.0898-8.21875-2.08203-12.40234-2.83203.89844 9.02734 4.49219 13.36719 4.50781 20.18359-4.71484 10.58203-6.16016 26.7461-7.12891 29.31641-2.35937.91406-4.47656 1.19531-6.0664.5625-.42969.75-.85938 1.50391-1.57422 2.10937-4.39844.4336-7.37891 1.25782-8.30859-.59375 3.20312-4.92187.19921-1.39453 5.08984-4.48437.64062-16.875 1.23047-35.16016 1.09375-52.80859-.25391-1.23829-1.8125-2.91016-4.38672-2.98829-1.48828.71485-2.20703 1.75782-4.46094 1.70313-8.7539-1.13672-12.5-11.59375-12.63281-14.1875-.0117-4.46875 2.55859-12.45703 1.37109-24.74219-1.60546-.91797-2.44531-2.36328-4.82421-2.89453-3.31641.0195-6.0625-.0352-8.01563-1.83203 2.07031-7.10937 6.15625-6.81641 12.83984-7.01562.80469-.64454 1.61329-1.28907 2.41407-1.9336 2.0625.2461 3.11328 1.5 4.02343 2.89453 2.625.26953 3.37891.39844 6.00391.66406-.24219 1.44532-.62891 2.75-1.59766 4.19922-.0508 3.76172-.49609 7.6875-2.47656 11.06641.0664 6.63281-1.30469 14.71094 4.50391 15.60547 7.52734-.74219 24.17969-23.53516 30.9375-22.45313zm-18.34375 53.85547c2.80859-.0391 6.03515 8.99219 6.26562 13.77344-.48828 8.16797-3.33984 16.6875-4.13281 23.57031-1.15234.4375-2.82422 1.58594-3.61719 2.23438-1.5625-5.69922-.11718-14.92969-.30859-20.15625 1.80859-1.91407 1.66016-12.96875 1.79297-19.42188" fill="#004226" fill-rule="evenodd"/><path d="m236.9375 59.21875c116.53437.275 196.36875 69.34375 196.90312 82.1625-.30625 5.98125-6.6375 6.90312-6.75312 9.34062.0188 2.84063 2.1375 4.31563 5.25312 3.85625 4.7875.53438 21.92813-33.04999 30.89063-53.38437-62.9625-51.790625-135.76875-82.878125-222.85938-83.94375l.003-.02812c-.87813-.0031-1.75313 0-2.62813 0h-1.61875c-.875 0-1.74687-.0031-2.625 0v.02812c-87.08424 1.065625-159.89674 32.153125-222.85299 83.94375 8.959375 20.33438 26.1 53.91875 30.8875 53.38437 3.115625.45938 5.2375-1.01562 5.25625-3.85625-.11875-2.4375-6.45-3.35937-6.75625-9.34062.5375-12.81875 80.36563-81.8875 196.9-82.1625zm0 0" fill="none" stroke="#004226" stroke-miterlimit="10" stroke-width="4" transform="matrix(1.25 0 0 -1.25 0 516.25)"/><path d="m42.659375 154.6 53.534375.14375c6.54375.0125 12.14688-8.60625 11.975-20.85313-.21875-15.88437-7.08125-27.21874-14.0875-38.17812" fill="none" stroke="#004226" stroke-miterlimit="10" stroke-width="4" transform="matrix(1.25 0 0 -1.25 0 516.25)"/><path d="m60.015625 327.75391c2.4375-1.88672 5.28125-1.86329 7.921875-1.58594 12.53125 1.3164 13.890625 9.93359 14.265625 18.83984.367187 8.54297-9.070313 10.8125-5.8125 17.08594 2.46875 4.74609 8.339844 4.44922 10.742187 4.57812 7.039063.38282 12.414063 7.61719 18.843748 6.33985 2.28125-.45313 4.28125-1.76172 6.16797-1.9375 2.97266-.27735 5.54688 2.24609 5.10156 6.33984-.20703 1.92188-2.79296 3.10938-2.46093 7.04297.14062 1.70703 1.14843 3.56641 2.64062 4.40625 1.69141.94922 7.20703-.99609 5.8125.35156-1.57422 1.51953-4.01172 7.14453-5.10937 6.86328-46.308598-23.78906-68.269535-45.58593-68.152348-59.16796.04297-4.52735 6.460938-6.38282 10.039063-9.15625" fill="#004226" fill-rule="evenodd"/><path d="m431.73125 154.6-53.5375.14375c-6.54063.0125-12.14375-8.60625-11.975-20.85313.22187-15.88437 7.0875-27.21874 14.09062-38.17812" fill="none" stroke="#004226" stroke-miterlimit="10" stroke-width="4" transform="matrix(1.25 0 0 -1.25 0 516.25)"/><path d="m532.97266 327.75391c-2.4336-1.88672-5.28125-1.86329-7.92579-1.58594-12.53125 1.3164-13.88281 9.93359-14.26562 18.83984-.35938 8.54297 9.07031 10.8125 5.8125 17.08594-2.46094 4.74609-8.33594 4.44922-10.74219 4.57812-7.03906.38282-12.41015 7.61719-18.84375 6.33985-2.28125-.45313-4.27734-1.76172-6.16406-1.9375-2.97266-.27735-5.54688 2.24609-5.10547 6.33984.20703 1.92188 2.79297 3.10938 2.46484 7.04297-.14062 1.70703-1.15234 3.56641-2.64062 4.40625-1.69141.94922-7.20703-.99609-5.8125.35156 1.57422 1.51953 4.00781 7.14453 5.10937 6.86328 46.3086-23.78906 68.26954-45.58593 68.14844-59.16796-.0391-4.52735-6.45312-6.38282-10.03515-9.15625" fill="#004226" fill-rule="evenodd"/><g fill="none" stroke="#004226" stroke-miterlimit="10"><path d="m36.2375 51.70625c10.89375-1.44375 18.528125-8.484375 27.196875-9.303125 7.109375-.678125 12.95625 1.784375 19.184375 0 2.575-.575 5.425-5.571875 5.15-9.021875-.29375-3.709375-2.95625-7.0125-6.86875-7.44375-5.3-.2375-14.85 4.859375-22.903125 5.871875-7.91875.990625-18.18125-.43125-26.625.284375" stroke-width="2.0001" transform="matrix(1.25 0 0 -1.25 0 516.25)"/><path d="m37.075 51.765625c3.48125-1.14375 4.8875-6.45 3.11875-11.803125-1.759375-5.35625-6.034375-8.7875-9.51875-7.64375-3.484375 1.146875-4.8875 6.45-3.125 11.80625 1.7625 5.35 6.040625 8.784375 9.525 7.640625zm0 0" stroke-width="2.0001" transform="matrix(1.25 0 0 -1.25 0 516.25)"/><path d="m31.940625 84.628125c-7.03125-8.321875-13.975-19.934375-14.3125-34.640625-.271875-11.7875 6.55625-17.11875 14.3125-17.034375" stroke-width="4" transform="matrix(1.25 0 0 -1.25 0 516.25)"/></g><path d="m36.347656 456.26953c1.878906-2.81641 3.410156 4.74219 7.160156 4.83203 3.226563.0781 7.515626-2.17187 7.875.17969 1.171876 7.83594-4.042968 14.64844-12.167968 15.20703-6.800782.47266-9.972656-9.55859-2.867188-20.21875m53.339844-13.96484c.492188 6.91797-7.988281 9.2539-7.390625 15.9414.222656 2.48047 5.75 3.14063 7.972656 4.78125-5.96875.65235-12.972656.1211-18.550781-1.15625 5.175781-2.60937 6.753906-5.16797 6.8125-7.82812.132812-6.625-2.675781-9.96485-5.507812-9.85547-3.085938.125-4.511719 4.56641-8.117188 4.20703-5.941406-.59766-6.273438-7.375-11.882812-12.32031-3.265626-2.875-10.617188-2.69922-11.015626-6.95703-.359374-3.83594 2.761719-5.01563 2.753907-7.39063-.01172-2.4375-.496094-2.82422-2.460938-3.1875-4.878906-.89062-13.59375 13.41016-19.566406 25.07031 3.753906-10.98437 9.445313-25.78125 17.101563-33.61718 16.433593 12.03906 33.03125 22.97656 49.851562 32.3125" fill="#004226" fill-rule="evenodd"/><g fill="none" stroke="#004226" stroke-miterlimit="10"><path d="m437.79375 51.70625c-10.89375-1.44375-18.53125-8.484375-27.2-9.303125-7.10938-.678125-12.95625 1.784375-19.18438 0-2.57187-.575-5.425-5.571875-5.15312-9.021875.29375-3.709375 2.95937-7.0125 6.87187-7.44375 5.29688-.2375 14.84688 4.859375 22.90625 5.871875 7.91875.990625 18.18125-.43125 26.625.284375" stroke-width="2.0001" transform="matrix(1.25 0 0 -1.25 0 516.25)"/><path d="m436.95312 51.765625c-3.48125-1.14375-4.88437-6.45-3.12187-11.803125 1.7625-5.35625 6.04062-8.7875 9.51875-7.64375 3.4875 1.146875 4.8875 6.45 3.125 11.80625-1.75938 5.35-6.0375 8.784375-9.52188 7.640625zm0 0" stroke-width="2.0001" transform="matrix(1.25 0 0 -1.25 0 516.25)"/><path d="m442.0875 84.628125c7.03437-8.321875 13.975-19.934375 14.31562-34.640625.26875-11.7875-6.55625-17.11875-14.31562-17.034375" stroke-width="4" transform="matrix(1.25 0 0 -1.25 0 516.25)"/></g><g fill="#004226" fill-rule="evenodd"><path d="m556.1875 456.26953c-1.88281-2.81641-3.41016 4.74219-7.16016 4.83203-3.22656.0781-7.51953-2.17187-7.87109.17969-1.17578 7.83594 4.04297 14.64844 12.16797 15.20703 6.79687.47266 9.97265-9.55859 2.86328-20.21875m-53.33594-13.96484c-.49219 6.91797 7.98438 9.2539 7.38672 15.9414-.21875 2.48047-5.74609 3.14063-7.96875 4.78125 5.96875.65235 12.96875.1211 18.55078-1.15625-5.17969-2.60937-6.75781-5.16797-6.8125-7.82812-.13672-6.625 2.67188-9.96485 5.50781-9.85547 3.08204.125 4.51172 4.56641 8.11719 4.20703 5.9375-.59766 6.26953-7.375 11.88281-12.32031 3.26172-2.875 10.60938-2.69922 11.01172-6.95703.36328-3.83594-2.76172-5.01563-2.7539-7.39063.008-2.4375.5-2.82422 2.46484-3.1875 4.875-.89062 13.59375 13.41016 19.56641 25.07031-3.75782-10.98437-9.44532-25.78125-17.10547-33.61718-16.4336 12.03906-33.02735 22.97656-49.84766 32.3125m-95.58594-1.75 3.57422-3.57813 3.57813 3.57813-3.57813 3.58203m-10.8789-2.57031 3.57812-3.57813 3.57813 3.57813-3.57813 3.58203m-115.53515 33.875 3.57812-3.57813 3.57813 3.57813-3.57813 3.57812m-75.23437-9.27734 3.57812-3.57813 3.58203 3.57813-3.58203 3.57422m-12.41016-3.73438 3.57813-3.57812 3.57812 3.57812-3.57812 3.57422m.85937.97266 3.57813-3.57813 3.57812 3.57813-3.57812 3.57812m-141.019531-91.26562 3.578125-3.57813 3.582031 3.57813-3.582031 3.57812m-8.824219-7.64844 3.582031-3.57812 3.574219 3.57812-3.574219 3.57422m-31.933594-17.34765 3.578126-3.58203 3.578124 3.58203-3.578124 3.57812m495.914062 3.92969c1.21875-2.45313 2.01562-4.43359 6.21484-7.10547 4.62891-2.94141 10.51172 2.53125 15.47266 2.92188.55469 2.27734 1.14453 4.94531-.37891 6.59765-11.12109 7.39453-22.11328 14.79297-33.23437 22.19531.38672 4.99219-.16016 10.44532-2.79297 12.6875-1.625 1.40625-5.64063 1.875-4.3125-3.04687 2.98437-2.43359 2.89844-5.09375 2.16016-7.86328-2.60157 2.08984-9.39844 7.28906-12.5586 4.3125-2.24219-2.10938-2.42578-10.52344.25391-12.5586 2.60156-1.98437 9.25781-2.39062 14.20312.37891 3.30078-1.98828 7.35938-5.24219 10.66016-7.23047-5.66797-2.26562-14.51172-.28906-17-1.90625-.76953-.49609-.67578-1.51562.25-3.03906 4.86719-6.34375 8.96875-11.92578 13.82812-18.26563 1.14454 0 2.56641-.75 3.42969 0 .83594.71875.25 2.19532.375 3.29297-3.59375 5.11719-8.07422 9.72657-11.66797 14.84375 4.0625.30078 8.3711.33985 12.42969.63672.85156-.2539 1.39844 1.01563.89063 2.78906 4.90625-3.50781 10.82421-7.52734 15.73046-11.03906-2.07421-1.73047-4.3164-2.11328-5.71093-1.14062-1.89844-.0469-3.46875 1.49218-4.69532 4.82422-1.79687-.30079-4.125-.75391-3.54687-2.28516zm-25.5 21.94531c1.44531-1.02734 4.16406-1.34375 5.32812 0 1.0586 1.22266-.38281 2.27735-1.69921 3.21485-1.44922 1.03125-3.73438 2.82421-4.89844 1.48046-1.0586-1.22656-.0469-3.7539 1.26953-4.69531"/><path d="m303.59375 463.10937-.26563 10.85938c-13.35156-.0195-25.65625-.23828-39.01562-.25781-2.44531 4.36718-7.96094 8.46875-11.39063 8.86328-2.13671.26953-5.73828-1.56641-1.90234-4.92578 3.83203-.36719 5.23828-2.62891 6.16406-5.34375-3.32422 1.83203-15.99218-.0195-15.82031-5.6836.15234-4.89453 6.95313-8.21484 10.16016-8.0039 4.76172.30859 11.42578 2.02343 12.14843 8.33593l10.98047.0391-.17968-15.86719c-.0352-3.01953 5.73046-2.51563 5.91406-.0391l.13672 16.0664 17.44922-.0391-.13672-4.33203c.65625-5.00391 5.73828-3.21875 5.75781.32812zm-51.125.71485c1.78125-.0547 4.21484 1.19531 4.4375 2.95703.19922 1.60937-2.14453 1.65625-3.76172 1.70312-1.77734.0547-4.11328.30079-4.33203-1.46093-.19922-1.60938 2.04297-3.15235 3.65625-3.19922m67.86328 1.01953c50.87109-2.65625 101.10938-15.21875 151.99219-36.35938-.87891-2.63281-1.66406-4.89843-2.54297-7.53906.90234-2.19531 2.30469-3.5625 4.79297-3.11719 1.28125 2.39844 2.09765 5.125 3.375 7.52344 2.39844-1.11719 5.26172-2.57031 7.66015-3.6875 1.29688-7.19531 3.9375-12.60547 9.11719-14.15625 5.11328-1.52344 8.94922.83203 10.31641 3.35938 3.04687 5.66406-1.75781 11.85937-5.57031 13.01953-5-.25781-1.62891-3.94531-1.23438-4.3125 2.44922-1.56641 2.46484-3.14844 2.00391-4.14453-.5-1.09766-2.77344-1.2461-4.22266-.55469-5.01953 2.37109-2.76953 11.95312-6.33203 13.75-53.35547 27.42578-109.77344 39.91406-167.91406 45.57422-2.58985-2.85547-3.07032-5.97266-1.44141-9.35547m-104.17578-12.14063c5.75391 1.39844 7.89062 5.02344 13.30469 10.54297 1.20312.39063 3.03125.71875 4.22656 1.15235.92187.20312-1.30469 6.6914-2.05078 6.59765l-26.23047-5.14453c-1.83203-2.30078-2.91016-.60937-7.82031-1.71875-2.26563-.51562-4.08594-1.30469-5.09375-3.08594-1.4961 1.45313-4.04688 2.05469-7.42969 1.27344-3.40625-.78906-5.88281-3.24219-7.55859-5.53906-1.13282 1.1875-2.4961 1.94922-5.41797 1.52344-46.05078-14.99219-85.49219-36.53125-120.566409-61.96875-.976562-.88282-.488281-2.17969 0-3.61719l9.101563-21.55469c.480468-1.24219 4.773437.42969 4.402344 1.17969l-7.664063 17.24609c-.296875 1.33985-.08594 3.1836 1.472656 4.15235 3.59375 2.23437 8.507813 5.4414 12.101563 7.67968l2.480468-7.375c.613282-.73437 4.558594 1.36719 4.34375 2.08594l-2.632812 8.38281c30.08984 19.89454 62.22656 35.39844 97.00391 46.94922l1.02734-8.39453c-.0352-1.03515 5.95312-.52734 5.71484.51563l-.73828 10.33984c2.89844 1.71484 5.45313 1.83594 7.80469 1.57422l.65625-8.26953c-.0391-1.02735 5.40625-.0508 5.57031.91797l-.51953 8.18359c.19531 1.44922 6.5 3.47266 7.51563 2.46484l.60546-7.51562c.004-.86719 5.27344-.32031 5.23047.5l-.68359 7.72656 18.98437 3.94922c-.80078-3.60547-4.36718-7.5-8.05468-7.91797-2.42188-.27344-3.14063.90235-5.30078 1.0625-.92579.0625-1.61329-1.75-.50391-2.375 1.91406-.91015 4.80469-1.92187 6.71875-1.52344m-167.1875-76.05468c.894531-1.92188 5.359375-.26172 4.550781 1.76953-1.808593 4.07812-2.535156 9.57031-7.71875 15.53125-1.617187 1.40234-3.425781 2.6289-5.847656 2.18359-10.847656-1.99219-10.851563-9.70312-8.253906-15.00781 1.644531-3.35938 1.769531-3.85156 3.265625-5.74219 1.476562-1.85937 5.785156-.24219 4.089844 2.52344-.960938 1.75-.921876 1.52344-1.875 3.27344-3.296876 3.97265-1.574219 6.63672 3.582031 7.61718 3.660156 1.50782 5.488281-5.78906 8.207031-12.14843"/></g></g></svg>