<svg height="645.309" viewBox="0 0 127.756 170.738" width="482.857" xmlns="http://www.w3.org/2000/svg" xmlns:xlink="http://www.w3.org/1999/xlink"><defs><linearGradient id="a" gradientUnits="userSpaceOnUse"><stop offset="0" stop-color="#fff500"/><stop offset="1" stop-color="#dfd600"/></linearGradient><linearGradient id="b" x1="12.481695" x2="22.984437" xlink:href="#a" y1="140.826876" y2="141.198931"/><linearGradient id="c" gradientUnits="userSpaceOnUse" x1="12.481695" x2="115.275217" y1="153.52417" y2="153.52417"><stop offset="0" stop-color="#fff500"/><stop offset=".5" stop-color="#fff970"/><stop offset="1" stop-color="#fff500"/></linearGradient><path id="d" d="m56.472 160.098c4.383-2.168 8.311-1.737 11.812 1.134-3.338.902-5.869 3.529-11.812-1.134z"/><path id="e" d="m58.669 160.098c2.533-1.07 4.915-.788 7.134.402-2.148.165-4.26.764-7.134-.402z"/><path id="f" d="m68.846 161.431c1.787-6.2-.61-8.4-3.052-11.51-1.028 3.365-1.839 6.753 3.052 11.51z"/><path id="g" d="m67.471 158.543c-1.949-3.152-1.352-4.236-1.417-5.859 1.243 1.42 1.811 3.306 1.417 5.859z"/><path id="h" d="m87.691 85.862-1.445 4.449 1.445 1.99-6.124-1.99 3.785 2.75 2.339-.76-3.785 5.209 3.785-2.75v-2.459l3.785 5.209-1.446-4.449-2.339-.76 6.124-1.99h-4.678l-1.445 1.99z"/><path id="i" d="m111.385 156.252c.395-5.362 3.184-8.246 5.197-5.646 4.282-1.159 5.804 3.204 4.087 5.268 2.227 1.138 1.717 4.647-2.599 5.15l-3.945-.472z"/><path id="j" d="m111.739 153.275c-.776 1.808-1.089 3.8-1.199 5.874l.002 1.705c1.457-.841 5.649 1.283 7.244.17-2.735-.59-1.86-1.726.095-3.024-6.504 1.861-.021-2.258 0-3.402-5.906 4.217-3.723 1.058-3.457-.603-1.035 1.288-2.331 3.396-2.685-.72z"/><path id="k" d="m111.786 155.756c-.373 1.443-.742 2.958-.028 3.794.583.682 2.092.77 3.217 1.167-.373-.903-.165-1.273.213-1.488-.449-.457-1.297-.647-1.063-1.559-1.007-.014-1.202-.499-1.016-1.205-.441.25-.882.23-1.323-.709z"/><path id="l" d="m34.65 117.302c0-1.697-1.389-3.086-3.086-3.086a3.1 3.1 0 0 0 -3.088 3.086v11.041a3.1 3.1 0 0 0 3.088 3.088 3.1 3.1 0 0 0 3.086-3.088zm-1.488 0v11.041c0 .898-.7 1.598-1.598 1.598s-1.598-.7-1.598-1.598v-11.041c0-.898.7-1.596 1.598-1.596s1.598.698 1.598 1.596z"/><linearGradient id="m" gradientTransform="matrix(-.26054282 0 0 .26054282 127.56938 2.300145)" x1="47.189" x2="87.5" xlink:href="#a" y1="531.679" y2="533.107"/></defs><g stroke="#aca600" stroke-miterlimit="2.2"><g fill-rule="evenodd"><path d="m.45008847 131.32957 6.88614673 9.86962-6.88614673 9.86962h21.38379153c2.765922 0 5.008936 2.24224 5.008936 5.00842v-5.00842h.656828v-.0279h-.656828v-4.27707-10.98397c0-2.1612-3.056428-4.45007-5.008415-4.45007z" fill="url(#b)" opacity=".981" stroke-width=".468977"/><path d="m127.30623 131.32799-6.88615 9.86962 6.88615 9.86962h-21.38379c-2.76593 0-5.00894 2.24224-5.00894 5.00842v-5.00842h-.65683v-.0279h.65683v-4.27707-10.98397c0-2.1612 3.05643-4.45007 5.00842-4.45007z" fill="url(#m)" opacity=".981" stroke-width=".468977"/><path d="m12.716158 152.72647c7.480994 6.34364 14.128906 4.16246 14.128906 2.8636m0 0-.002-19.81178c-5.74393 4.57308-11.478013-.27376-12.694155-.27376-.82028 0-1.391423.47267-1.391423 1.25652l-.04037 15.96542m102.323294 0c-7.481 6.34364-14.12891 4.16246-14.12891 2.8636m0 0 .002-19.81178c5.74393 4.57308 11.47801-.27376 12.69416-.27376.82028 0 1.39142.47267 1.39142 1.25652l.0404 15.96542" fill="#ccc400" opacity=".981" stroke-linecap="round" stroke-width=".476"/></g><path d="m12.756568 136.76058-.04012 15.96529c4.256228 11.44747 29.178712 17.9329 51.162012 17.4238 21.983301.5091 46.90578-5.97633 51.16201-17.4238l-.0401-15.96529c-10.80627 17.24716-46.386774 17.28572-51.12188 17.28572-4.735105 0-40.315614-.0386-51.121888-17.28572z" fill="url(#c)" stroke-width=".468977"/></g><path d="m61.223 166.045c0-.028.268-1.818.595-3.978l.595-4.016c0-.049.161-.089.359-.089h.359l.574 3.762.629 4.06c.052.279.031.298-.323.298h-.378l-.075-.677c-.131-1.189-.114-1.164-.777-1.164l-.592.027a59.55 59.55 0 0 0 -.136.893l-.128.866-.352.034c-.193.019-.352.011-.352-.017zm1.918-3.508-.195-1.353-.169-1.022c-.037.037-.363 2.308-.363 2.529 0 .093.139.144.392.144.37 0 .389-.017.334-.298zm1.547-.514v-4.06h.325.325v1.624 1.624h.595.595v-1.624-1.624h.325.325v4.06 4.06h-.325-.325v-1.732-1.732h-.595-.595v1.732 1.732h-.325-.325zm4.356.027.028-4.033.819-.031c.986-.038 1.323.157 1.518.876.178.655.15 2.016-.05 2.496-.159.381-.155.427.072.859.202.384.239.628.238 1.539-.002 1.146-.135 1.711-.492 2.094-.192.206-.333.234-1.19.234h-.972zm1.801 2.479c.22-.265.266-1.074.085-1.508-.159-.381-.195-.403-.661-.403h-.493v1.029 1.029h.474c.266 0 .527-.064.595-.146zm-.093-3.483c.185-.223.191-1.281.008-1.501-.088-.106-.311-.175-.565-.175h-.42v.92.92h.42c.243 0 .477-.069.556-.165zm-12.344.868v-4.06h.305.305l.589 2.511.589 2.511.029-2.511.029-2.511h.323.323v4.067 4.067l-.348-.034-.348-.034-.553-2.328-.618-2.49c-.036-.089-.069.97-.074 2.355l-.008 2.517h-.271-.271zm13.858.016v-4.044l.828-.07c1.55-.131 1.445-.177 1.445.634v.704l-.568.002c-1.05.003-1.056.008-1.056 1.001v.869l.758-.064.758-.064v.686.686l-.758.076-.758.076v1.087 1.087l.866-.072.866-.072v.691.691l-.731.069-1.191.07-.46.001v-4.044zm-14.979 3.584-.134-.92-.072-.568h-.623-.623l-.072.514c-.171 1.223-.169 1.218-.506 1.218-.254 0-.312-.046-.308-.244.003-.134.261-1.924.575-3.979l.57-3.735.342-.034c.282-.028.352.01.4.217.032.138.301 1.858.599 3.823l.597 3.816c.05.216.014.244-.313.244s-.375-.036-.431-.352zm-.434-3.086c-.03-.104-.113-.652-.184-1.218s-.164-1.066-.205-1.112-.136.392-.21.974l-.193 1.302c-.053.223-.02.244.394.244.379 0 .443-.031.398-.189zm18.337-.718v-4.047l.244-.065c.134-.036.565-.066.958-.067.807-.002.956.099 1.18.797.175.543.173 2.158-.002 2.743-.075.251-.249.562-.387.691-.236.222-.241.253-.085.554.091.176.329.951.529 1.724.387 1.494.379 1.562-.18 1.482-.221-.031-.289-.183-.593-1.315-.44-1.639-.557-1.914-.81-1.914-.19 0-.203.108-.203 1.667 0 1.42-.025 1.676-.171 1.732-.492.189-.478.305-.478-3.982zm1.292-.823c.48-.138.545-.255.547-.995.002-.893-.041-.956-.66-.956h-.53v1.029c0 1.118-.006 1.108.643.922zm-22.323 4.687c-.174-.045-.191-.274-.203-2.721l-.013-2.672-.268 2.598-.341 2.676c-.04.043-.18.049-.312.015-.292-.076-.287-.051-.573-3.178l-.263-2.544c-.022-.06-.045 1.2-.049 2.799-.008 2.605-.026 2.901-.18 2.842-.094-.036-.216-.066-.271-.066s-.099-1.67-.099-4.07v-4.07l.46.076.476.091c.009.008.128 1.157.265 2.554.28 2.852.314 2.856.578.059.247-2.625.228-2.544.599-2.544.695 0 .654-.265.654 4.18l-.135 4.036a2.53 2.53 0 0 1 -.325-.062zm24.749-.193c-.304-.213-.573-.913-.674-1.759-.074-.618-.061-.703.123-.802.312-.167.514-.033.514.341 0 .684.431 1.143.832.887.288-.183.463-1.141.291-1.59-.037-.097-.327-.343-.644-.546s-.65-.511-.74-.684c-.625-1.208-.264-3.775.56-3.991.39-.103.686-.052.92.156.244.218.513 1.122.513 1.724 0 .443-.016.468-.311.468-.277 0-.318-.045-.378-.419-.119-.742-.669-.873-.938-.223-.225.544-.029.958.673 1.423.822.544 1.008 1.019 1.008 2.576 0 .842-.051 1.27-.198 1.65-.324.84-.993 1.18-1.551.789zm-28.502-1.058c-.075-.491-.193-.929-.262-.973s-.351-.081-.627-.082l-.502-.002-.075.623c-.125 1.045-.155 1.11-.503 1.11-.204 0-.313-.056-.313-.16 0-.181 1.058-7.235 1.141-7.609.041-.186.131-.244.375-.244s.334.059.377.244c.031.134.301 1.876.599 3.871l.597 3.871c.048.215.012.244-.308.244h-.362zm-.527-3.682c-.096-.7-.205-1.272-.243-1.272s-.128.475-.202 1.056l-.186 1.238c-.042.145.032.19.358.217l.429.034c.01 0-.061-.572-.157-1.272zm31.049 4.522c0-.029.268-1.875.595-4.1l.595-4.115c0-.037.171-.068.379-.068s.379.054.379.12.27 1.826.599 3.912l.568 3.824c-.017.018-.175.048-.351.067-.306.034-.323.013-.405-.506-.215-1.355-.136-1.225-.711-1.163-.282.03-.569.1-.639.155s-.161.466-.203.914c-.068.73-.104.824-.341.914-.292.111-.467.129-.467.047zm1.945-3.546c-.008-.245-.406-2.628-.421-2.517l-.171 1.191c-.219 1.514-.227 1.462.218 1.462.233 0 .377-.052.375-.135zm-38.063 2.675c-.473-.502-.767-1.468-.911-2.996-.203-2.155.172-4.192.883-4.79.381-.32.415-.325.902-.121.408.171.662.576.885 1.416.255.957.167 1.23-.401 1.244-.033.001-.122-.239-.198-.534s-.204-.59-.285-.658c-.256-.213-.624-.072-.858.327-.2.341-.222.56-.222 2.165 0 1.6.024 1.839.233 2.29.289.624.598.755.967.408.211-.199.261-.353.261-.809 0-.539-.014-.566-.325-.628-.32-.064-.325-.075-.325-.754v-.689l.514.085.704.091c.171.006.189.156.189 1.582 0 1.733-.064 1.976-.654 2.472-.485.408-.911.377-1.36-.1zm40.021-.097c-.358-.58-.436-1.402-.437-4.623l-.001-2.992.244-.065c.134-.036.28-.066.325-.067s.084 1.326.087 2.949c.007 3.147.076 3.681.487 3.74.123.018.317-.073.433-.201.197-.218.213-.441.244-3.469l.108-3.238c.041-.001.188-.032.326-.069l.25-.067-.041 3.506c-.044 3.793-.089 4.126-.624 4.661-.234.234-.408.306-.739.306-.376 0-.463-.049-.662-.372zm-41.96-.163c-.183-.074-.303-.466-.749-2.456l-.614-2.584c-.046-.119-.086.909-.09 2.286l-.007 2.502-.271-.052-.271-.052v-4.047l.189-4.046a.69.69 0 0 1 .312.081c.067.044.384 1.249.704 2.677l.581 2.598.029-2.517c.031-2.644.028-2.633.503-2.451.152.058.171.522.171 4.114 0 4.277.016 4.151-.489 3.946zm44.688-3.973.028-4.099.298-.034.298-.034v1.589c0 1.407.02 1.581.172 1.523.094-.036.362-.096.595-.134l.424-.068v-1.599c0-1.701.009-1.73.55-1.73.201 0 .208.129.208 4.009v4.009l-.28.106c-.154.059-.324.079-.379.045s-.099-.831-.099-1.772v-1.71l-.568.128-.568.128-.03 1.805c-.024 1.457-.059 1.805-.181 1.805-.083 0-.229.03-.323.066-.156.06-.17-.319-.144-4.033zm-47.633 3.447c-.072-.046-.194-.493-.271-.993l-.139-.909-.541-.14-.61-.142c-.038-.001-.101.229-.141.512-.153 1.093-.191 1.218-.371 1.216-.527-.005-.527.025.098-4.051l.591-3.85h.291c.16 0 .324.052.363.116.078.126 1.236 7.686 1.239 8.086.002.25-.243.325-.509.157zm-.799-4.687-.232-1.351c-.023-.023-.105.408-.181.957l-.195 1.289c-.057.299-.064.295.681.398.079.011.056-.406-.073-1.293zm52.736.185v-4.047l.457-.116c.251-.064.474-.098.495-.077s.151 1.093.289 2.382l.296 2.39c.026.026.105-.574.176-1.332l.252-2.596.123-1.217.39-.108.471-.109c.045 0 .081 1.826.081 4.059l-.099 4.06c-.055 0-.176.03-.271.066-.153.059-.172-.232-.18-2.788l-.052-2.745c-.024.06-.163 1.367-.308 2.906l-.3 2.833c-.019.019-.169.069-.333.11-.26.065-.299.043-.305-.181-.004-.14-.12-1.327-.257-2.637l-.249-2.382-.013 2.721-.013 2.721-.244.065a2.15 2.15 0 0 1 -.325.067c-.045.001-.081-1.82-.081-4.045zm-56.387 3.393c-.701-.653-1.028-1.982-1.04-4.218-.013-2.391.333-3.692 1.049-3.944.606-.213 1.27.637 1.5 1.921.112.627.109.757-.022.84-.338.214-.481.106-.615-.467-.137-.584-.464-.98-.727-.879-.082.031-.232.26-.335.509-.232.564-.271 3.181-.06 4.04.142.577.48 1.054.699.986.203-.064.504-.754.504-1.156v-.372l.335.318c.315.299.331.352.269.894-.073.637-.302 1.261-.571 1.558-.233.258-.695.245-.987-.027zm59.795-.673 1.139-7.993c0-.076.662-.348.706-.29.05.066 1.246 7.694 1.211 7.728-.021.021-.188.068-.372.105l-.334.067-.075-.7c-.104-.975-.138-1.013-.751-.841-.276.077-.545.22-.597.318s-.13.531-.172.963c-.079.801-.204.994-.642.994-.137 0-.161-.075-.113-.352zm1.818-3.426c.046-.045-.006-.663-.116-1.373l-.199-1.291-.125.866-.198 1.45-.073.584.314-.078c.173-.043.351-.114.397-.159zm-63.719 3.534c-.12-.091-.369-.994-.769-2.788l-.591-2.653-.01 2.508-.01 2.508-.298-.08-.298-.08-.028-3.991.055-4.075c.046-.046.204-.024.352.05.247.123.315.349.865 2.888l.597 2.755.029-2.568.126-2.568c.447 0 .44-.066.44 4.18 0 4.252-.001 4.264-.461 3.913zm-2.701-.971c-.325-.11-.364-.2-.465-1.059l-.121-.778c-.05-.177-1.081-.6-1.192-.489-.03.03-.106.405-.17.834l-.116.779-.329-.066c-.181-.036-.34-.077-.354-.092s.238-1.682.559-3.707l.585-3.83c.001-.109.092-.131.345-.08.189.038.355.081.368.095.051.054 1.247 8.331 1.215 8.41-.018.045-.165.038-.326-.017zm-.844-3.63a51.56 51.56 0 0 0 -.185-1.435l-.185-1.353-.186 1.137c-.244 1.487-.243 1.506.041 1.621.307.123.514.136.515.03zm68.858-.295v-4.057l.749-.228c1.419-.431 1.661-.208 1.722 1.583.041 1.196-.069 1.771-.443 2.327-.239.355-.241.375-.06.747.242.499.853 2.803.758 2.859a2.29 2.29 0 0 1 -.399.113l-.326.07-.308-1.113c-.423-1.528-.553-1.816-.822-1.816-.214 0-.222.058-.222 1.681v1.681l-.278.106-.325.106c-.026 0-.047-1.826-.047-4.057zm1.717-1.421c.131-.288.167-1.212.058-1.497-.077-.201-.174-.209-.719-.057l-.406.113v1.017 1.017l.472-.161c.305-.104.516-.256.595-.432zm1.696 3.599-.682-7.371c.016-.009.161-.073.322-.142.287-.123.293-.117.351.33l.233 2.512.198 2.082c.013.014.137-1.192.276-2.68l.372-2.804c.066-.055.245-.131.397-.169l.277-.07.245 2.469.272 2.496c.015.015.111-1.056.212-2.381.241-3.136.229-3.074.572-3.16.154-.039.293-.056.307-.038.037.045-.693 8.125-.748 8.274-.041.112-.593.31-.657.236-.015-.018-.134-1.104-.264-2.414l-.313-2.578c-.042-.108-.19 1.037-.329 2.544l-.296 2.906c-.024.091-.188.22-.364.286-.318.12-.32.118-.381-.328zm-76.196.072c-.176-.046-.189-.334-.189-4.113v-4.064l.274.069c.151.038.543.187.87.332.516.228.627.333.825.781.327.739.475 2.121.324 3.03-.19 1.147-.495 1.413-1.347 1.176l-.298-.083v1.473c0 1.53.003 1.52-.46 1.399zm1.375-4.391c.184-.848.096-1.468-.257-1.822-.571-.571-.658-.464-.658.812 0 1.213-.003 1.208.62 1.24.168.009.258-.061.294-.231zm-2.431 3.768c-.239-.13-.32-.351-.679-1.869-.383-1.621-.604-2.197-.842-2.197-.059 0-.102.679-.102 1.624 0 1.7-.034 1.807-.468 1.489-.169-.124-.182-.472-.156-4.159l.029-4.024.92.451c.839.411.944.498 1.184.982.216.435.271.739.307 1.678.057 1.474-.117 2.024-.707 2.24-.016.006.05.198.146.428.171.409.803 3.052.803 3.358 0 .19-.083.189-.434-.002zm-.432-5.92c0-.734-.148-1.029-.641-1.281l-.492-.221c-.032 0-.058.459-.058 1.02v1.02l.46.159c.412.142.474.141.595-.012.074-.094.135-.402.135-.684zm80.876 5.346c0-.104.248-2.065.552-4.358l.785-4.355c.128-.103.286-.188.351-.189.071-.001.358 1.432.721 3.597l.603 3.6-.233.187c-.374.299-.479.229-.562-.377-.137-.997-.141-1-.757-.612l-.567.364c-.016.014-.082.459-.147.989-.089.732-.17 1.009-.335 1.153-.12.104-.261.189-.314.189s-.096-.085-.096-.189zm1.549-3.952.304-.243-.201-1.245-.201-1.245-.137 1.083-.198 1.489c-.07.469.011.499.433.162zm-86.025 2.442-1.056-.594v-4.059-4.059l1.11.596 1.11.596.032.725.032.725-.817-.449-.817-.449.002.896.002.896.729.385.729.385.032.671c.018.369-.007.67-.054.668s-.391-.167-.763-.367l-.677-.365.001 1.098.001 1.098.811.426.811.426v.684c0 .376-.036.679-.081.673s-.556-.279-1.137-.606zm87.836-4.317.003-4.106.267-.195.267-.195v1.521c0 .836.041 1.521.09 1.521s.318-.177.595-.393l.505-.393v-1.602-1.602l.298-.234.298-.234.03 4.043.03 4.043-.3.242-.3.242-.054-1.727-.054-1.727-.568.443-.568.443v1.753c0 1.73-.004 1.756-.271 2.007l-.271.254.003-4.106zm-91.083 2.089-.838-.565-.001-4.033.066-4.033c.145 0 1.439.986 1.699 1.295.571.679.792 2.855.357 3.519-.157.24-.152.298.07.781.324.706.356 2.847.051 3.315-.106.161-.276.292-.379.29s-.564-.257-1.025-.568zm.958-1.225c.039-.154.043-.556.009-.893-.056-.559-.106-.653-.566-1.073-.277-.253-.548-.46-.602-.46s-.098.46-.098 1.023v1.023l.46.326c.569.403.707.412.797.055zm-.109-3.57c.038-.152.044-.506.012-.785-.049-.432-.127-.568-.528-.914-.259-.223-.507-.406-.552-.406s-.081.403-.081.896v.896l.455.295c.56.363.606.364.693.018z"/><path d="m31.611.467-28.632 19.471v71.544c4.213 43.275 56.664 59.201 60.9 61.587 4.236-2.386 56.686-18.313 60.9-61.587v-71.544l-28.632-19.471h-32.269z" fill="#74bd2a" stroke="#4f811d" stroke-width=".794"/><path d="m34.531 9.956-22.064 15.004v65.938c1.864 17.786 13.506 30.123 26.309 38.879 6.442 4.406 13.032 7.737 18.278 10.093 2.623 1.178 4.904 2.111 6.726 2.849.04.016.059.022.098.038l.098-.038c1.821-.738 4.102-1.671 6.726-2.849 5.247-2.356 11.836-5.687 18.278-10.093 12.803-8.755 24.445-21.093 26.309-38.879v-65.938l-22.064-15.004h-29.347z" fill="#03428b" stroke="#4f811d" stroke-width=".794"/><g transform="translate(-23.812 -63.837)"><use fill="#e9c31e" height="100%" stroke="#9a6104" stroke-width=".5" width="100%" xlink:href="#d"/><use fill="#ffeb95" height="100%" width="100%" xlink:href="#e"/><use fill="#e9c31e" height="100%" stroke="#9a6104" stroke-width=".5" width="100%" xlink:href="#f"/><use fill="#ffeb95" height="100%" width="100%" xlink:href="#g"/></g><g transform="matrix(.98402831 .17801206 -.17801206 .98402831 -.552539 -77.196161)"><use fill="#e9c31e" height="100%" stroke="#9a6104" stroke-width=".5" width="100%" x=".697" xlink:href="#d" y="-.114"/><use fill="#ffeb95" height="100%" width="100%" x=".697" xlink:href="#e" y="-.114"/></g><g transform="matrix(.942135 .166367 -.17043 .919673 .855559 -66.862601)"><use fill="#e9c31e" height="100%" stroke="#9a6104" stroke-width=".5" width="100%" x=".801" xlink:href="#f"/><use fill="#ffeb95" height="100%" width="100%" x=".801" xlink:href="#g"/></g><g transform="matrix(.94629995 .32328998 -.32328998 .94629995 20.929989 -85.819144)"><use fill="#e9c31e" height="100%" stroke="#9a6104" stroke-width=".5" width="100%" x=".697" xlink:href="#d" y="-.114"/><use fill="#ffeb95" height="100%" width="100%" x=".697" xlink:href="#e" y="-.114"/></g><g transform="matrix(.828786 .268465 -.28314 .785831 21.569952 -57.859723)"><use fill="#e9c31e" height="100%" stroke="#9a6104" stroke-width=".5" width="100%" x=".801" xlink:href="#f"/><use fill="#ffeb95" height="100%" width="100%" x=".801" xlink:href="#g"/></g><g transform="matrix(.887458 .387648 -.368664 .933158 29.289498 -93.225954)"><use fill="#e9c31e" height="100%" stroke="#9a6104" stroke-width=".5" width="100%" x=".697" xlink:href="#d" y="-.114"/><use fill="#ffeb95" height="100%" width="100%" x=".697" xlink:href="#e" y="-.114"/></g><g transform="matrix(.809751 .321346 -.33322 .765939 27.948619 -63.831767)"><use fill="#e9c31e" height="100%" stroke="#9a6104" stroke-width=".5" width="100%" x=".801" xlink:href="#f"/><use fill="#ffeb95" height="100%" width="100%" x=".801" xlink:href="#g"/></g><g transform="matrix(.793361 .555366 -.545786 .841911 61.302435 -95.678261)"><use fill="#e9c31e" height="100%" stroke="#9a6104" stroke-width=".5" width="100%" x=".697" xlink:href="#d" y="-.114"/><use fill="#ffeb95" height="100%" width="100%" x=".697" xlink:href="#e" y="-.114"/></g><g transform="matrix(.699101 .499408 -.524201 .622608 63.225399 -60.126693)"><use fill="#e9c31e" height="100%" stroke="#9a6104" stroke-width=".5" width="100%" x=".801" xlink:href="#f"/><use fill="#ffeb95" height="100%" width="100%" x=".801" xlink:href="#g"/></g><g transform="matrix(.651522 .7165 -.717851 .70099 97.03425 -89.973739)"><use fill="#e9c31e" height="100%" stroke="#9a6104" stroke-width=".5" width="100%" x=".697" xlink:href="#d" y="-.114"/><use fill="#ffeb95" height="100%" width="100%" x=".697" xlink:href="#e" y="-.114"/></g><g transform="matrix(.464075 .849993 -.862977 .511827 132.44817 -75.465833)"><use fill="#e9c31e" height="100%" stroke="#9a6104" stroke-width=".5" width="100%" x=".697" xlink:href="#d" y="-.114"/><use fill="#ffeb95" height="100%" width="100%" x=".697" xlink:href="#e" y="-.114"/></g><g transform="matrix(.278604 .927487 -.95005 .322647 159.88859 -56.841321)"><use fill="#e9c31e" height="100%" stroke="#9a6104" stroke-width=".5" width="100%" x=".697" xlink:href="#d" y="-.114"/><use fill="#ffeb95" height="100%" width="100%" x=".697" xlink:href="#e" y="-.114"/></g><g transform="matrix(.111546 .961983 -.991923 .150947 179.98785 -38.377766)"><use fill="#e9c31e" height="100%" stroke="#9a6104" stroke-width=".5" width="100%" x=".697" xlink:href="#d" y="-.114"/><use fill="#ffeb95" height="100%" width="100%" x=".697" xlink:href="#e" y="-.114"/></g><g transform="matrix(.001277 .968427 -1.00266 .037012 192.51282 -26.412303)"><use fill="#e9c31e" height="100%" stroke="#9a6104" stroke-width=".5" width="100%" x=".697" xlink:href="#d" y="-.114"/><use fill="#ffeb95" height="100%" width="100%" x=".697" xlink:href="#e" y="-.114"/></g><g transform="matrix(-.082394 .865682 -.886471 -.052146 184.08497 -10.110891)"><use fill="#e9c31e" height="100%" stroke="#9a6104" stroke-width=".5" width="100%" x=".697" xlink:href="#d" y="-.114"/><use fill="#ffeb95" height="100%" width="100%" x=".697" xlink:href="#e" y="-.114"/></g><g transform="matrix(-.216427 .842232 -.867484 -.189792 195.3081 9.422414)"><use fill="#e9c31e" height="100%" stroke="#9a6104" stroke-width=".5" width="100%" x=".697" xlink:href="#d" y="-.114"/><use fill="#ffeb95" height="100%" width="100%" x=".697" xlink:href="#e" y="-.114"/></g><g transform="matrix(-.682194 .631093 -.614121 -.738005 190.70432 110.15394)"><path d="m57.488 159.937c4.383-2.168 8.813-1.564 12.314 1.307-3.338.902-6.371 3.356-12.314-1.307z" fill="#e9c31e" stroke="#9a6104" stroke-width=".5"/><use fill="#ffeb95" height="100%" width="100%" x="1.518" xlink:href="#e" y=".013"/></g><g transform="matrix(.450699 .634348 -.546127 .473648 83.08697 -52.37209)"><use fill="#e9c31e" height="100%" stroke="#9a6104" stroke-width=".5" width="100%" x=".801" xlink:href="#f"/><use fill="#ffeb95" height="100%" width="100%" x=".801" xlink:href="#g"/></g><g transform="matrix(.456618 .697556 -.680606 .417175 104.11092 -54.338103)"><use fill="#e9c31e" height="100%" stroke="#9a6104" stroke-width=".5" width="100%" x=".801" xlink:href="#f"/><use fill="#ffeb95" height="100%" width="100%" x=".801" xlink:href="#g"/></g><g transform="matrix(.314579 .74609 -.775857 .258066 130.6927 -39.282368)"><use fill="#e9c31e" height="100%" stroke="#9a6104" stroke-width=".5" width="100%" x=".801" xlink:href="#f"/><use fill="#ffeb95" height="100%" width="100%" x=".801" xlink:href="#g"/></g><g transform="matrix(.198979 .784868 -.805811 .138637 146.63302 -28.722033)"><use fill="#e9c31e" height="100%" stroke="#9a6104" stroke-width=".5" width="100%" x=".801" xlink:href="#f"/><use fill="#ffeb95" height="100%" width="100%" x=".801" xlink:href="#g"/></g><g transform="matrix(.03828 .808793 -.817267 -.025028 163.9339 -9.857085)"><use fill="#e9c31e" height="100%" stroke="#9a6104" stroke-width=".5" width="100%" x=".801" xlink:href="#f"/><use fill="#ffeb95" height="100%" width="100%" x=".801" xlink:href="#g"/></g><g transform="matrix(-.075794 .806143 -.805634 -.139665 175.76449 4.290045)"><use fill="#e9c31e" height="100%" stroke="#9a6104" stroke-width=".5" width="100%" x=".472" xlink:href="#f" y="-.379"/><use fill="#ffeb95" height="100%" width="100%" x=".471" xlink:href="#g" y="-.379"/></g><path d="m44.33 34.469c-18.984 10.326-21.568 29.854-16.877 42.133 1.191 3.118 2.466 7.204 6.199 11.746s9.917 9.537 20.91 14.598l.361-.785c-10.909-5.022-16.97-9.941-20.604-14.361s-4.851-8.346-6.059-11.506c-4.545-11.895-2.129-30.941 16.482-41.064z" fill="#e9c31e" stroke="#9a6104" stroke-width=".5"/><g transform="matrix(-.146146 -.776224 .768933 -.157562 -24.954139 146.0994)"><use fill="#fff" height="100%" stroke="#b9b9b9" stroke-width=".265" width="100%" xlink:href="#i"/><path d="m111.758 159.55 6.312 1.474c1.092-.707 2.62-3.981-.787-4.048 2.065-1.603.697-4.178-1.717-3.212-.968-2.857-3.185-.996-3.782-.042z" fill="#b9b9b9"/><use fill="#00923f" height="100%" stroke="#00682d" stroke-width=".3" width="100%" xlink:href="#j"/><use fill="#00ac4a" height="100%" width="100%" xlink:href="#k"/></g><g transform="matrix(-.106034 -.926661 .919536 -.125708 -44.934508 164.00127)"><use fill="#fff" height="100%" stroke="#b9b9b9" stroke-width=".265" width="100%" xlink:href="#i"/><path d="m111.758 159.55 6.312 1.474c1.092-.707 2.289-4.597.614-5.103.677-.761-.198-3.518-2.669-2.717-.571-2.413-3.679-.883-4.276.071z" fill="#b9b9b9"/><use fill="#00923f" height="100%" stroke="#00682d" stroke-width=".3" width="100%" xlink:href="#j"/><use fill="#00ac4a" height="100%" width="100%" xlink:href="#k"/></g><g transform="matrix(.0468 -.931533 .927718 .026226 -56.944224 147.18556)"><use fill="#fff" height="100%" stroke="#b9b9b9" stroke-width=".265" width="100%" xlink:href="#i"/><path d="m111.739 153.275c.411-1.381 2.694-.935 3.989 1.207 1.942-2.361 4.253.688 2.431 3.016 2.358.999.933 2.9-.089 3.526l-6.312-1.474z" fill="#b9b9b9"/><use fill="#00923f" height="100%" stroke="#00682d" stroke-width=".3" width="100%" xlink:href="#j"/><use fill="#00ac4a" height="100%" width="100%" xlink:href="#k"/></g><g transform="matrix(.29607 -.88447 .88634 .275228 -73.645248 110.28719)"><use fill="#fff" height="100%" stroke="#b9b9b9" stroke-width=".265" width="100%" xlink:href="#i"/><path d="m111.758 159.55 6.312 1.474c2.717-.983 2.514-3.994.387-4.499 1.359-2.572-1.15-4.451-2.442-3.32-.571-2.413-3.634-.436-4.231.518z" fill="#b9b9b9"/><use fill="#00923f" height="100%" stroke="#00682d" stroke-width=".3" width="100%" xlink:href="#j"/><use fill="#00ac4a" height="100%" width="100%" xlink:href="#k"/></g><g transform="matrix(.425992 -.829744 .834733 .405671 -77.41538 91.93966)"><use fill="#fff" height="100%" stroke="#b9b9b9" stroke-width=".265" width="100%" xlink:href="#i"/><path d="m111.758 159.55 6.312 1.474c2.617-.91 2.289-4.597.614-5.103.677-.761-.198-3.518-2.669-2.717-.571-2.413-3.679-.883-4.276.071z" fill="#b9b9b9"/><use fill="#00923f" height="100%" stroke="#00682d" stroke-width=".3" width="100%" xlink:href="#j"/><use fill="#00ac4a" height="100%" width="100%" xlink:href="#k"/></g><g transform="matrix(.744487 -.561858 .575189 .728359 -73.473161 19.402287)"><use fill="#fff" height="100%" stroke="#b9b9b9" stroke-width=".265" width="100%" xlink:href="#i"/><path d="m111.758 159.55 6.312 1.474c2.319-.718 2.416-3.949.741-4.454 1.403-1.76-.325-4.167-2.797-3.365-.571-2.413-3.679-.883-4.276.071z" fill="#b9b9b9"/><use fill="#00923f" height="100%" stroke="#00682d" stroke-width=".3" width="100%" xlink:href="#j"/><use fill="#00ac4a" height="100%" width="100%" xlink:href="#k"/></g><g transform="matrix(.831573 -.477107 .486691 .79684 -71.103253 7.808631)"><use fill="#fff" height="100%" stroke="#b9b9b9" stroke-width=".265" width="100%" xlink:href="#i"/><path d="m112.273 159.204 5.797 1.82c1.092-.707 2.289-4.597.614-5.103.677-.761-.198-3.518-2.669-2.717-.571-2.413-3.679-.883-4.276.071z" fill="#b9b9b9"/><use fill="#00923f" height="100%" stroke="#00682d" stroke-width=".3" width="100%" xlink:href="#j"/><use fill="#00ac4a" height="100%" width="100%" xlink:href="#k"/></g><path d="m93.626 86.696c-1.672-4.723-.284-8.2 2.483-6.709 3.363-2.544 6.358.63 5.613 3.016 2.405.163 3.276 3.346-.364 5.342l-3.679 1.028z" fill="#fff" stroke="#b9b9b9" stroke-width=".25"/><path d="m95.625 88.65 5.481-.201c.702-1 .549-4.861-1.127-4.685.314-.895-1.502-2.933-3.393-1.352-1.416-1.854-3.597.581-3.767 1.612z" fill="#b9b9b9"/><g transform="matrix(.887349 -.362984 .377075 .854188 -64.129917 -6.341503)"><use fill="#00923f" height="100%" stroke="#00682d" stroke-width=".3" width="100%" xlink:href="#j"/><use fill="#00ac4a" height="100%" width="100%" xlink:href="#k"/></g><use fill="#fff" height="100%" stroke="#b9b9b9" stroke-width=".265" transform="translate(-23.812 -63.837)" width="100%" x="-.801" xlink:href="#i"/><path d="m87.268 89.462c.411-1.381 2.792-1.858 4.087.283 1.636-1.323 4.473 1.22 3.189 2.858 2.522 1.424-.065 3.956-1.087 4.583-6.754-.367-7.28-4.343-6.189-7.725z" fill="#b9b9b9"/><path d="m87.126 89.438c-.776 1.808-1.089 3.8-1.199 5.874l-13.115 6.019.467 1.067 12.65-5.381c1.457-.841 5.649 1.283 7.244.17-2.735-.59-1.86-1.726.095-3.024-6.504 1.861-.021-2.258 0-3.402-5.906 4.217-3.723 1.058-3.457-.603-1.035 1.288-2.331 3.396-2.685-.72z" fill="#00923f" stroke="#00682d" stroke-width=".3"/><use fill="#00ac4a" height="100%" transform="translate(-23.812 -63.837)" width="100%" x="-.801" xlink:href="#k"/><path d="m57.545 102.348c-12.092-13.377-26.836-44.383 6.334-68.614 6.033 17.179 13.192 33.203 25.925 43.507-6.655 3.709-14.008 11.736-22.126 24.485z" fill="#ccdde7" stroke="#808285" stroke-width=".423"/><path d="m57.733 101.455c-10.648-13.646-23.65-40.684 5.166-64.232l.978 1.349c4.183 15.737 10.121 28.702 21.069 38.641l-.092.096c-5.681 3.571-10.556 11.026-16.882 22.73-.194.298-.511.604-.897.916-.654.017-9.341.5-9.341.5" fill="#d9e6ed"/><path d="m57.827 101.008c-9.926-13.781-22.057-38.834 4.582-62.041a41.36 41.36 0 0 0 1.028.789c3.346 15.486 8.719 27.438 19.08 37.443l-.057.099c-5.328 3.545-9.126 10.934-14.751 22.533-.155.239-.495.486-.937.739-.981.025-8.945.438-8.945.438" fill="#dfeaf0"/><path d="m57.921 100.561c-9.204-13.915-20.464-36.985 3.998-59.85l1.077.229c2.51 15.236 7.317 26.174 17.092 36.245-.008.034-.015.067-.022.101-4.974 3.521-7.695 10.842-12.619 22.337-.116.18-.479.368-.977.561-1.308.034-8.549.377-8.549.377" fill="#e5eef3"/><path d="m58.015 100.114c-8.482-14.05-18.871-35.135 3.413-57.658l1.127-.332c1.673 14.985 5.915 24.911 15.103 35.047l.013.103c-4.621 3.496-6.265 10.75-10.487 22.142-.078.119-.463.248-1.017.383z" fill="#ecf2f6"/><path d="m58.108 99.668c-7.76-14.185-17.278-33.286 2.829-55.468l1.177-.892c.837 14.735 4.513 23.647 13.114 33.849l.049.106c-4.267 3.47-4.834 10.657-8.355 21.945-.039.06-.447.13-1.057.206l-7.756.254" fill="#f4f8fa"/><path d="m58.202 99.221c-7.039-14.32-15.685-31.436 2.245-53.277l1.226-1.452c0 14.484 3.11 22.384 11.125 32.652l.084.107c-3.914 3.445-3.404 10.565-6.224 21.749l-8.457.221" fill="#fff"/><path d="m45.998 100.559c4.114 6.143 12.597 5.696 15.426 5.74.751.701.46 2.132.365 3.426h2.09 2.09c-.096-1.294-.386-2.725.365-3.426 2.829-.044 11.312.403 15.426-5.74-4.272 2.843-5.286-1.473-11.056 2.126-3.856-1.985-4.949-1.893-6.825-1.984-1.876.092-2.97-.001-6.825 1.984-5.77-3.598-6.784.718-11.056-2.126z" fill="#da251d" stroke="#a01b15" stroke-width=".423"/><path d="m49.352 102.597c3.238.087 5.817-.501 7.323 1.158-2.218.43-4.543.472-7.323-1.158zm8.15 1.11c7.461-4.308 11.359-.882 12.791-.374-7.993-1.338-8.869-.242-12.791.374zm6.839 5.788h.803c-.034-1.581.181-3.012 1.335-3.874-1.659.674-1.892 2.279-2.138 3.874zm3.012-3.851c5.393.357 9.167-1.744 12.896-3.915-4.135 1.959-8.384 3.462-12.896 3.915zm3.686-2.055c2.74-1.022 5.147-1.131 7.654-1.512-2.551.504-3.26-1.164-7.654 1.512z" fill="#e7534c"/><path d="m25.374 93.454c.132 3.792 3.765 6.508 7.276 9.26 2.341 1.904 3.843 6.889 6.426 8.788 3.307 1.288 33.146 1.407 52.35 1.039 5.582-2.937 4.832-11.061 9.603-15.457-2.399-.44-3.379 2.765-7.016 2.339-1.833 10.32-22.332 9.071-30.135 9.555-8.196.508-31.822-3.455-32.139-11.893-3.773-1.21-4.326-2.421-6.365-3.631z" fill="#e9c31e" stroke="#9a6104" stroke-width=".423"/><g fill-rule="evenodd" transform="translate(-23.812 -63.837)"><path d="m87.691 84.899-1.662 5.114h-5.378l4.351 3.161-1.662 5.115 4.351-3.161 4.351 3.161-1.662-5.115 4.351-3.161h-5.378z" fill="#9a6104" opacity=".981"/><path d="m87.691 85.862-1.445 4.449h-4.678l3.785 2.75-1.446 4.449 3.785-2.75 3.785 2.75-1.446-4.449 3.785-2.75h-4.678z" fill="#e9c31e" opacity=".981"/><g fill="#ffe96b"><use height="100%" opacity=".981" width="100%" xlink:href="#h"/><use height="100%" opacity=".981" width="100%" xlink:href="#h"/></g></g><path d="m26.549 95.499c1.16 1.338 2.138 2.753 4.495 3.578-.092-.441-.487-.882-.142-1.323-1.627-.152-2.925-1.425-4.353-2.255zm9.031 7.83c17.988 13.255 53.589 5.279 54.692 2.777-9.737 3.396-36.074 7.186-54.692-2.777zm59.088-2.63c-.622 3.822-1.167 6.573-4.597 11.22 5.754-3.948 5.861-10.216 8.853-13.263-1.5 1.027-2.921 2.739-4.256 2.044z" fill="#ffeb95"/><path d="m53.262 83.06c1.491 3.384 19.611 2.767 19.985-.047-7.793-2.287-5.602-5.309-5.788-7.347-.146-1.602-1.556-3.039-1.65-4.63-.089-1.504 1.154-3.074 1.059-4.654s-1.312-2.966-1.527-4.59c-.173-1.304.692-2.661.393-4.198s-.925-3.281-.923-4.914c.002-1.305.661-2.959.45-4.063-.875-4.578-2.107-9.921-1.417-14.552-1.614 4.106-2.437 7.19-1.576 13.76.213 1.622-.563 3.9-.615 5.444-.058 1.717.018 3.729.059 4.956s-.938 3.13-1.082 4.134c-.203 1.417.943 2.449.832 3.952 0 0-1.036 2.04-1.226 3.83s1.216 6.083-.361 7.959c-1.438 1.711-2.897 3.531-6.615 4.961z" fill="#e9c31e" stroke="#9a6104" stroke-width=".265"/><path d="m64.02 79.135-.638.01c-.097.501-1.426 3.876-3.789 6.04l1.89.095c-1.047 6.462 2.846 8.186 1.228 9.213-1.036.541-3.81-.419-4.819.047 3.008 1.134.404 5.252 6.142 5.575 2.389.191 4.431-3.459 4.351-5.701-.133-3.691-4.352-4.459-3.169-9.134l2.74-.331c-1.462-.538-4.116-5.679-3.936-5.815zm-2.307 17.366c.505 0 .915.41.915.915 0 .243-.096.476-.268.647s-.404.268-.647.268-.476-.096-.648-.268-.268-.405-.268-.648.097-.476.268-.647.405-.268.647-.268z"/><path d="m61.928 85.325h1.169c-.645 3.396-.126 5.562.317 6.615-1.195-1.291-2.091-2.345-1.487-6.615zm2.456 3.241c-.679 1.979 1.669 4.16 1.637 6.214-.032 2.106-1.692 3.709-3.274 4.143 1.057.383 3.896-.229 4.844-3.475.753-2.578-2.051-4.672-3.207-6.882zm-4.98 6.4c.935.293 1.231.736 1.417 1.205 2.212.181 3.108-1.24 2.977-2.362-.027.752-1.913 1.864-4.394 1.158zm1.188-10.175c1.493-1.441 2.238-3.28 3.09-5.061-.381 1.699-.359 3.505-1.336 5.045zm4.276-2.99c.138 1.476-1.043 2.022-.601 2.94l1.303-.05c.73-1.249-.088-1.251-.702-2.89z" fill="#242424"/><path d="m63.701 79.141c.22-.884.214-2.097.238-3.215.05-2.317-1.262-3.774-1.087-6.662.135-2.214.988-3.234.898-4.488-.126-1.758-.611-2.552-.512-5.017.108-2.67.729-4.412.795-6.676.118-4.009-1.269-6.32-1.276-9.993-.007-3.744.414-5.063.811-8.022" fill="none" stroke="#9a6104" stroke-width=".365"/><path d="m55.483 83.06c1.308.791 2.354.795 3.402.803 1.559-1.523 3.415-3.495 3.917-6.251.563-2.347-.83-4.916-.893-7.429-.046-1.824 1.074-3.186 1.087-4.888.01-1.306-1.045-2.362-.912-3.81.42-1.401.889-2.416.697-5.336-.157-2.391.042-4.928.12-7.39-.239 2.402-.823 4.843-.483 7.385.244 1.823-.151 3.593-.78 5.255-.299 1.163.719 2.331.772 3.844.048 1.377-1.102 3.176-1.362 4.739-.44 2.654 1.092 4.814.71 7.359-.311 2.066-1.999 4.053-6.274 5.72zm8.905-27.747c.663 1.537.918 1.875.935 2.84.029 1.566-.584 2.034-.509 3.855.055 1.349 1.077 2.045 1.006 4.242-.061 1.909-.987 3.032-.835 4.677.214 2.301 1.411 3.156 1.636 4.978.19 1.534-.667 2.931.32 4.153 1.2 1.487 2.124 1.559 4.424 3.23l-3.04.735c-1.647-1.304-2.308-2.083-3.185-3.727-.697-1.308-.482-2.909-.366-4.283.164-1.945-.939-3.093-1.028-5.098-.079-1.779.682-3.004.824-4.652.154-1.79-.407-2.731-.52-4.168-.109-1.388.75-2.525.713-3.856-.027-.98.001-1.641-.377-2.926zm-1.04-14.321c-.205 2.916.634 5.794 1.136 8.653.133-2.939-.622-5.824-1.136-8.653z" fill="#ffeb95"/><g fill="#fff"><path d="m98.362 27.325.668.444-1.123 1.9q-.267.452-.322.603-.084.244-.002.482.086.237.366.423.284.189.501.163.218-.028.353-.188.136-.16.382-.576l1.147-1.941.668.444-1.089 1.842q-.373.632-.582.857-.208.225-.461.307-.251.084-.558.029-.306-.057-.699-.317-.474-.315-.652-.593-.175-.279-.208-.558-.032-.281.043-.514.113-.345.461-.934z"/><path d="m306.5957 74.003906-9.52539 13.416016 3.04297.904297 2.07813-3.072266 5.68164 1.689453.33593 3.789063 3.1211.929687-1.69922-16.753906zm.54688 3.957032.48047 6.171874-3.87696-1.152343zm31.03125 7.449218-5.96875 14.308594 2.72851 1.28906 2.49024-5.974607.55273.255859c.6274.292284 1.0628.561665 1.30469.808594.24441.23937.43425.565288.57031.978516.13607.405669.32175 1.330225.5586 2.771484l.67382 4.037114 3.26172 1.52539-.48437-3.5625c-.18646-1.41859-.38184-2.437369-.58594-3.054691-.19905-.614803-.51861-1.242813-.95703-1.882813 1.25984.372914 2.33377.351862 3.2207-.06641.88693-.423307 1.5554-1.172708 2.00391-2.246094.35275-.846614.46999-1.689675.35156-2.53125-.11842-.841574-.45405-1.543579-1.00586-2.105468-.54173-.566929-1.53473-1.188006-2.97851-1.863282zm1.71875 3.699219 2.1289.998047c1.10615.516535 1.76214.842453 1.96875.978516.41071.284724.67177.63226.78516 1.042968.12347.408189.0844.854678-.11719 1.335938-.18141.430866-.42224.744304-.72461.943359-.30488.199055-.64466.281369-1.01757.246094-.37544-.03528-1.21573-.35842-2.52344-.970703l-2.01953-.945313zm21.8125 8.212891-12.11719 10.818354 2.77344 1.60547 2.67578-2.50195 5.18164 2.99414-.47266 3.77539 2.84571 1.64453 1.8789-16.736325zm-.29492 3.984374-.83985 6.13086-3.5332-2.04492z" stroke-width="3.77953" transform="scale(.26458341)"/><path d="m91.459 28.101 1.726-3.713.707.369-1.726 3.713z"/><path d="m82.777 24.399 1.278-3.912.725.266.657 3.166.853-2.612.692.254-1.278 3.912-.748-.274-.655-3.097-.833 2.551z"/><path d="m75.959 18.286.771.177-.449 2.191q-.107.522-.11.683-.001.26.152.454.157.192.48.266.328.076.523-.027.196-.105.272-.304.076-.199.175-.679l.459-2.238.771.177-.435 2.125q-.149.728-.273 1.015-.124.286-.336.454-.209.169-.516.228-.306.057-.759-.048-.547-.126-.803-.324-.253-.2-.374-.45-.12-.253-.124-.499-.004-.365.135-1.044z"/><path d="m232.6875 64.115234-4.78125.06836.20313 15.644531 2.97851-.04687-.0762-5.898438 1.94336-.03125c1.34803-.02016 2.37734-.108838 3.08789-.267578.52157-.128504 1.03235-.381813 1.53125-.759765.50646-.382992.91828-.904296 1.23828-1.564453.32252-.660158.47606-1.471641.46094-2.431641-.0176-1.244724-.31501-2.253801-.89453-3.027344-.57953-.781102-1.29345-1.282174-2.14258-1.503906-.55433-.146142-1.73718-.206837-3.54883-.181641zm-.32617 2.654297c1.07338-.01512 1.78869.0087 2.14648.07422.48378.08567.88703.31238 1.20703.677734.31748.365355.48016.832895.49024 1.402344.008.461102-.1.867947-.32422 1.220703-.21669.352756-.52295.612431-.91602.78125-.39559.168819-1.17934.263612-2.35351.28125l-1.63281.02148-.0566-4.441407zm43.37109.351563-7.94922 14.523437 3.125.515625 1.72071-3.316406 5.83203.960938.75976 3.722656 3.20508.529297-3.58008-16.421875zm.9961 3.859375 1.16796 6.064453-3.97851-.652344z" stroke-width="3.77953" transform="scale(.26458341)"/><path d="m67.95 21.305.383-4.085.785.083-.318 3.391 1.951.205-.065.694z"/><path d="m64.16 16.952.788.037-.093 2.24q-.022.533.001.692.04.256.223.42.185.161.515.177.335.016.512-.12.177-.139.22-.349.043-.21.064-.701l.095-2.288.788.037-.09 2.172q-.031.745-.107 1.049-.077.305-.258.508-.179.204-.472.317-.293.111-.756.089-.559-.026-.843-.175-.282-.152-.44-.377-.159-.228-.202-.47-.062-.359-.034-1.053z"/><path d="m56.722 21.365-.27-4.129 2.889-.212.046.699-2.102.155.06.915 1.956-.144.046.696-1.956.144.074 1.124 2.177-.16.046.696z"/><path d="m52.82 21.865-.496-4.106.782-.106.22 1.823 1.36-2.038 1.052-.143-1.266 1.797 1.841 2.298-1.012.137-1.298-1.783-.551.772.15 1.241z"/><path d="m49.802 22.448-.746-4.063.774-.16.746 4.063z"/><path d="m45.79 22.029.73-.264q.156.382.403.517.249.135.599.047.371-.093.521-.304.152-.215.102-.438-.032-.143-.134-.222-.101-.082-.314-.107-.146-.016-.654-.022-.653-.008-.955-.182-.424-.245-.531-.723-.069-.308.035-.615.106-.311.383-.528.28-.218.718-.328.716-.179 1.15.063.437.242.579.792l-.76.228q-.119-.298-.312-.392-.191-.097-.515-.016-.334.084-.491.277-.101.124-.066.281.032.143.169.216.174.093.765.093.591 0 .892.084.303.081.511.304.211.22.296.602.077.346-.037.694-.114.348-.413.579-.299.229-.795.353-.721.18-1.186-.075-.465-.258-.691-.915z"/><path d="m42.5 24.455-1.117-3.967.735-.233 2.278 2.164-.746-2.649.702-.222 1.117 3.967-.758.24-2.237-2.109.728 2.587z"/><path d="m41.038 24.998-1.273-3.913.746-.272 1.273 3.913z"/><path d="m38.586 25.97-2.718-3.32.797-.329 1.97 2.474-.158-3.223.78-.322.114 4.395z"/><g stroke-width="3.77953" transform="scale(.26458341)"><path d="m130.92969 88.427734c-1.14607-.05532-2.33567.219117-3.57031.822266-1.09103.531653-1.97373 1.189034-2.64649 1.972656-.50898.584567-.90391 1.292938-1.18359 2.126953-.27465.831496-.40657 1.68483-.39649 2.556641.0176 1.181732.34274 2.495107.97266 3.941406l.002.0039c.98268 2.260154 2.34345 3.748684 4.08203 4.466794 1.73607.71055 3.60068.58002 5.59375-.39258 1.9704-.96252 3.26411-2.37705 3.87891-4.244135.61228-1.874645.41967-3.959041-.57813-6.251953-1.00535-2.313071-2.38497-3.828765-4.13867-4.546876-.65575-.270236-1.32798-.421889-2.01562-.455078zm-.8418 2.824219c.53354-.01764 1.05548.09323 1.56445.330078 1.02552.471181 1.89158 1.520722 2.59961 3.148438.71559 1.647873.90739 3.054089.57227 4.220703-.3326 1.156538-1.03876 1.998778-2.11719 2.525388-1.07842.52662-2.1482.54824-3.20898.0645-1.06331-.49134-1.94602-1.54227-2.64649-3.152348v.0039c-.71055-1.635275-.899-3.024599-.5664-4.166016.32756-1.148976 1.04979-1.99481 2.16601-2.539062.55811-.272126 1.10318-.417909 1.63672-.435547z"/><path d="m116.85742 95.691406c-.18551-.0043-.37157.0081-.56054.03711-.75339.105826-1.82455.553955-3.2129 1.347656l-5.52148 3.152348 6.99805 13.77734 2.61523-1.50781-2.91992-5.75.53125-.30078c.6022-.34268 1.06974-.54084 1.40234-.59375.33008-.058.69148-.0161 1.08203.125.39056.13354 1.19315.54454 2.41016 1.23242l3.42188 1.91601 3.13671-1.79297-2.95117-1.77929c-1.17165-.71307-2.0502-1.17229-2.63476-1.37891-.57953-.20913-1.24246-.32775-1.98828-.35547 1.05322-.82645 1.69592-1.73853 1.92773-2.73633.22929-1.00535.0807-2.025519-.44336-3.058589-.41323-.816378-.96945-1.431909-1.66992-1.847657-.52536-.311811-1.06651-.473572-1.62305-.486328zm-.83984 3.029297c.21039-.0025.41063.03517.59961.113281.38047.146142.68754.452394.92187.916016.21166.41323.29952.80759.26172 1.18555-.0378.37543-.18496.70967-.43945 1.00195s-1.01164.79751-2.27149 1.51562l-1.9414 1.10743-1.78125-3.4961 2.04883-1.167966c1.0633-.607244 1.71016-.956166 1.93945-1.046875.23181-.08315.45171-.126386.66211-.128906z"/><path d="m103.54688 103.66406c-.42835-.0214-.85127.0351-1.26954.16992-.54677.17134-1.59215.76028-3.136715 1.76563l-4.074219 2.6543 7.728514 13.33007 2.53711-1.65625-2.91406-5.02539 1.6543-1.07812c1.15149-.74835 1.99373-1.38272 2.52539-1.9043.38551-.39307.70229-.88777.94922-1.48242.24692-.60472.34947-1.27679.30664-2.01758-.0428-.74079-.30169-1.52094-.7754-2.33984-.6148-1.06079-1.35865-1.76695-2.23046-2.11719-.43843-.17764-.87244-.27741-1.30078-.29883zm-.84571 3.13086c.2274-.0126.45418.0154.67969.0859.45102.1411.8174.45372 1.09961.9375.23181.39559.33574.80521.31055 1.22852-.0151.41826-.1512.80765-.40821 1.16796-.25701.3578-.8864.86303-1.88672 1.51563l-1.39062.90625-2.191408-3.7832 1.224608-.79688c.91465-.59716 1.54127-.96355 1.87891-1.09961.22929-.0958.45619-.14951.68359-.16211z"/></g></g><g fill-rule="evenodd" transform="translate(-23.812 -63.837)"><path d="m61.625 66.063c-1.697 0-3.086 1.389-3.086 3.086a3.1 3.1 0 0 0 3.086 3.088h11.041a3.1 3.1 0 0 0 3.088-3.088 3.1 3.1 0 0 0 -3.088-3.086zm0 1.488h11.041c.898 0 1.598.7 1.598 1.598s-.7 1.598-1.598 1.598h-11.041c-.898 0-1.596-.7-1.596-1.598s.698-1.598 1.596-1.598zm27.025-1.488c-1.697 0-3.086 1.389-3.086 3.086a3.1 3.1 0 0 0 3.086 3.088h11.041a3.1 3.1 0 0 0 3.088-3.088 3.1 3.1 0 0 0 -3.088-3.086zm0 1.488h11.041c.898 0 1.598.7 1.598 1.598s-.7 1.598-1.598 1.598h-11.041c-.898 0-1.596-.7-1.596-1.598s.698-1.598 1.596-1.598z" opacity=".98"/><rect height="2.172" opacity=".98" ry="1.086" width="17.271999" x="71.655998" y="67.978996"/><rect height="2.172" opacity=".98" ry="1.086" width="17.271999" x="99.654999" y="67.978996"/><path d="m38.591 78.158c-1.389.976-1.727 2.91-.752 4.299a3.1 3.1 0 0 0 4.3.753l9.035-6.346a3.1 3.1 0 0 0 .752-4.302 3.1 3.1 0 0 0 -4.301-.751zm.855 1.218 9.035-6.346c.735-.516 1.71-.345 2.226.389s.345 1.71-.389 2.226l-9.035 6.346c-.735.516-1.708.344-2.224-.39s-.347-1.709.388-2.225z" opacity=".98"/><rect height="2.172" opacity=".98" ry="1.086" transform="matrix(.69549903 -.71852703 .71852703 .69549903 -.801 0)" width="14.065" x="-42.924999" y="84.564003"/><rect height="2.172" opacity=".98" ry="1.086" transform="matrix(.89485638 -.44635419 .44635419 .89485638 -.801 -.000001)" width="14.065" x="10.904" y="87.718002"/><path d="m34.65 90.371c0-1.697-1.389-3.086-3.086-3.086a3.1 3.1 0 0 0 -3.088 3.086v11.041a3.1 3.1 0 0 0 3.088 3.088 3.1 3.1 0 0 0 3.086-3.088zm-1.488 0v11.041c0 .898-.7 1.598-1.598 1.598s-1.598-.7-1.598-1.598v-11.041c0-.898.7-1.596 1.598-1.596s1.598.698 1.598 1.596z" opacity=".98"/><rect height="2.172" opacity=".98" ry="1.086" transform="matrix(0 1 -1 0 -.801 0)" width="17.271999" x="100.778" y="-33.523998"/><use height="100%" opacity=".98" width="100%" xlink:href="#l"/><rect height="2.172" opacity=".98" ry="1.086" transform="matrix(0 1 -1 0 -.801 0)" width="17.271999" x="127.709" y="-33.523998"/><use height="100%" opacity=".98" width="100%" xlink:href="#l" y="28.065001"/><rect height="2.172" opacity=".98" ry="1.086" transform="matrix(.30019 .95388 -.95388 .30019 -.801 0)" width="17.271999" x="158.62199" y="15.176"/><path d="m38.843 170.638c-.909-1.433-2.825-1.863-4.259-.954a3.1 3.1 0 0 0 -.955 4.26l5.912 9.325a3.1 3.1 0 0 0 4.261.954 3.1 3.1 0 0 0 .953-4.26zm-1.257.797 5.912 9.325c.481.758.264 1.724-.494 2.205s-1.724.264-2.205-.494l-5.912-9.325c-.481-.758-.263-1.722.495-2.203s1.723-.266 2.204.492z" opacity=".98"/><rect height="2.172" opacity=".98" ry="1.086" transform="matrix(.71146229 .70272428 -.70272428 .71146229 -.801 0)" width="17.271999" x="158.287" y="97.872002"/><path d="m56.328 190.697c-1.358-1.018-3.302-.739-4.32.62a3.1 3.1 0 0 0 .619 4.321l8.837 6.619a3.1 3.1 0 0 0 4.323-.62 3.1 3.1 0 0 0 -.621-4.321zm-.892 1.191 8.837 6.619c.718.538.859 1.518.321 2.237s-1.518.859-2.237.321l-8.837-6.619c-.718-.538-.857-1.517-.319-2.235s1.516-.86 2.235-.322z" opacity=".98"/><rect height="2.172" opacity=".98" ry="1.086" transform="matrix(.87068216 .49184609 -.49184609 .87068216 -.801 0)" width="17.271999" x="152.909" y="141.89101"/><path d="m77.365 204.78c-1.585-.608-3.379.191-3.987 1.775a3.1 3.1 0 0 0 1.774 3.989l10.308 3.956a3.1 3.1 0 0 0 3.989-1.776 3.1 3.1 0 0 0 -1.777-3.988zm-.533 1.389 10.308 3.956c.838.322 1.241 1.226.919 2.064s-1.226 1.241-2.064.919l-10.308-3.956c-.838-.322-1.239-1.225-.917-2.063s1.224-1.241 2.062-.92z" opacity=".98"/><rect height="2.172" opacity=".98" ry="1.086" transform="matrix(.91940329 -.39331613 .39331613 .91940329 -.801 -.000001)" width="17.271999" x="-3.945" y="228.479"/><path d="m98.653 203.755c-1.476.837-1.999 2.73-1.162 4.207a3.1 3.1 0 0 0 4.208 1.164l9.604-5.446a3.1 3.1 0 0 0 1.163-4.209 3.1 3.1 0 0 0 -4.208-1.161zm.734 1.295 9.604-5.446c.781-.443 1.735-.179 2.178.602s.179 1.735-.602 2.178l-9.604 5.446c-.781.443-1.733.178-2.176-.603s-.181-1.734.6-2.177z" opacity=".98"/><rect height="2.172" opacity=".98" ry="1.086" transform="matrix(.82694335 -.56228524 .56228524 .82694335 -.801 -.000001)" width="17.271999" x="-21.777" y="227.30299"/><path d="m121.121 189.823c-1.176 1.224-1.137 3.187.087 4.363a3.1 3.1 0 0 0 4.365-.085l7.651-7.961a3.1 3.1 0 0 0 -.087-4.366 3.1 3.1 0 0 0 -4.365.088zm1.073 1.031 7.651-7.961c.622-.647 1.612-.667 2.259-.045s.667 1.612.045 2.259l-7.651 7.961c-.622.647-1.61.665-2.258.043s-.668-1.61-.046-2.258z" opacity=".98"/><rect height="2.172" opacity=".98" ry="1.086" transform="matrix(.5612311 -.82765914 .82765914 .5612311 -.801 0)" width="17.271999" x="-78.402" y="211.12399"/><path d="m137.55 169.402c-.384 1.653.654 3.32 2.307 3.704a3.1 3.1 0 0 0 3.706-2.307l2.5-10.754a3.1 3.1 0 0 0 -2.309-3.707 3.1 3.1 0 0 0 -3.705 2.309zm1.45.337 2.5-10.754c.203-.874 1.044-1.398 1.918-1.194s1.398 1.044 1.194 1.918l-2.5 10.754c-.203.874-1.043 1.396-1.917 1.193s-1.398-1.042-1.195-1.916z" opacity=".98"/><use height="100%" opacity=".98" width="100%" x="112.212" xlink:href="#l" y="-12.19"/><rect height="2.172" opacity=".98" ry="1.086" transform="matrix(0 1 -1 0 -.801 0)" width="17.271999" x="115.519" y="-145.73599"/><use height="100%" opacity=".98" width="100%" x="112.212" xlink:href="#l" y="14.741"/><g transform="matrix(0 1 -1 0 -.801 0)"><rect height="2.172" opacity=".98" ry="1.086" width="17.271999" x="142.45" y="-145.73599"/><rect height="2.172" opacity=".98" ry="1.086" width="17.271999" x="86.037003" y="-145.73599"/></g><path d="m127.617 71.67a3.09 3.09 0 0 1 .959 4.257 3.1 3.1 0 0 1 -4.259.961l-8.482-5.286c-1.44-.898-1.867-2.826-.96-4.26s2.819-1.856 4.259-.958zm-.795 1.258-8.482-5.286c-.759-.48-1.724-.262-2.204.497s-.262 1.724.497 2.204l8.482 5.286c.759.48 1.723.261 2.203-.498s.264-1.723-.495-2.203zm7.735 10.835c-1.397-.964-1.727-2.91-.752-4.299a3.1 3.1 0 0 1 4.3-.753l7.004 4.834c1.397.964 1.728 2.913.752 4.302s-2.904 1.715-4.301.751zm.855-1.218 7.004 4.834c.739.51 1.71.345 2.226-.389a1.58 1.58 0 0 0 -.389-2.226l-7.004-4.834a1.58 1.58 0 0 0 -2.224.39c-.516.735-.347 1.709.388 2.225z" opacity=".98"/><rect height="1.869" opacity=".98" ry=".904" transform="matrix(.844116 .536161 .536161 -.844116 -.801 0)" width="11.738" x="147.51801" y="4.298"/></g><g fill="#fff" transform="scale(.26458341)"><path d="m290.48047 492.52148c-.56005-.24858-1.02907-.53332-1.62305-.75195-.97336-.35827-1.99444-.66587-3.06836-.88281-1.07392-.21695-2.20052-.34375-3.38672-.34375-1.18619 0-2.31349.1268-3.38672.34375-1.07322.21694-2.09396.52454-3.0664.88281-1.94489.71654-3.69965 1.63867-5.31445 2.4668-1.61481.82811-3.08896 1.56402-4.51172 2.09179-1.42276.52778-2.79487.84766-4.20703.84766-1.41217 0-2.78428-.31988-4.20704-.84766-1.42275-.52777-2.89495-1.26368-4.50976-2.09179-1.61481-.82813-3.37152-1.75026-5.31641-2.4668-.97244-.35827-1.99122-.66587-3.06445-.88281-1.07323-.21695-2.20053-.34375-3.38672-.34375s-2.3128.1268-3.38672.34375c-1.07392.21694-2.09499.52454-3.06836.88281-1.94673.71654-3.70355 1.63867-5.31836 2.4668-1.61481.82811-3.08896 1.56402-4.51172 2.09179-1.42275.52778-2.79486.84766-4.20703.84766-1.41216 0-2.78427-.31988-4.20703-.84766-1.42276-.52777-2.89496-1.26368-4.50976-2.09179-1.61481-.82813-3.37153-1.75026-5.31641-2.4668-.97244-.35827-1.99122-.66587-3.06445-.88281-1.07323-.21695-2.20053-.34375-3.38672-.34375s-2.3128.1268-3.38672.34375c-1.07392.21694-2.09499.52454-3.06836.88281-.59398.21863-1.063.50337-1.62305.75195 8.25007 4.50505 16.12229 8.44559 23.6211 11.99805.51045.14739.99501.3316 1.53125.43945 1.08123.21747 2.21575.34375 3.41015.34375 1.19441 0 2.33088-.12628 3.41211-.34375s2.10864-.52567 3.08789-.88476c1.9585-.71819 3.72406-1.64303 5.3418-2.47266 1.61774-.82962 3.08759-1.56253 4.5-2.08789s2.7662-.84375 4.15039-.84375 2.73787.31839 4.14844.84375c1.41056.52536 2.87835 1.25827 4.49609 2.08789 1.61775.82963 3.3833 1.75447 5.3418 2.47266.97925.35909 2.00666.66729 3.08789.88476s2.21575.34375 3.41016.34375c1.1944 0 2.33087-.12628 3.4121-.34375.53687-.10798 1.02218-.29184 1.53321-.43945 7.49879-3.55218 15.36952-7.49307 23.61914-11.99805z"/><path d="m303.28711 485.21875c-.1312.005-.26072.0781-.39258.0781-1.41217 0-2.78427-.31803-4.20703-.84376-1.42276-.52572-2.89691-1.25782-4.51172-2.08593-1.61481-.82813-3.37163-1.7522-5.31836-2.46875-.97336-.35828-1.99444-.66391-3.06836-.88086s-2.20052-.34571-3.38672-.3457c-1.18619 0-2.31359.12686-3.38672.34374-1.07312.21689-2.09333.52429-3.0664.88282-1.94615.71694-3.69965 1.64062-5.31445 2.46875-1.61481.82811-3.08896 1.56021-4.51172 2.08593-1.42276.52573-2.79487.84375-4.20703.84376-1.41217 0-2.78428-.31803-4.20704-.84376-1.42275-.52572-2.89495-1.25782-4.50976-2.08593-1.61481-.82813-3.37152-1.7522-5.31641-2.46875-.97244-.35828-1.99122-.66391-3.06445-.88086s-2.20053-.34571-3.38672-.3457c-1.18619 0-2.3137.12686-3.38867.34374-1.07497.21689-2.09724.52429-3.07031.88282-1.94615.71694-3.69965 1.64062-5.31446 2.46875-1.61481.82811-3.08896 1.56021-4.51172 2.08593-1.42275.52573-2.79486.84375-4.20703.84376-1.41216 0-2.78427-.31803-4.20703-.84376-1.42276-.52572-2.89496-1.25782-4.50976-2.08593-1.61481-.82813-3.37026-1.75181-5.31641-2.46875-.97308-.35853-1.99133-.66593-3.06445-.88282-1.07313-.21688-2.20053-.34374-3.38672-.34374s-2.3137.12686-3.38867.34374c-1.07497.21689-2.09724.52429-3.07032.88282-1.94615.71694-3.69964 1.64062-5.31445 2.46875-1.61481.82811-3.08896 1.56021-4.51172 2.08593-1.42276.52573-2.79486.84375-4.20703.84376-.13185 0-.26138-.0727-.39258-.0781 3.31042 1.96499 6.58104 3.798 9.84766 5.61523.78558-.38117 1.66417-.73297 2.38672-1.10351 1.61774-.82965 3.08759-1.56253 4.5-2.08789 1.41241-.52537 2.7662-.84375 4.15039-.84375s2.73592.31838 4.14648.84375c1.41057.52536 2.88031 1.25824 4.49805 2.08789 1.61774.82962 3.3833 1.75454 5.3418 2.4707.97925.35808 2.00666.66415 3.08789.88086s2.21575.34375 3.41015.34375c1.19441 0 2.33088-.12704 3.41211-.34375s2.10864-.52278 3.08789-.88086c1.9585-.71616 3.72406-1.64108 5.3418-2.4707 1.61774-.82965 3.08759-1.56253 4.5-2.08789 1.41241-.52537 2.7662-.84375 4.15039-.84375s2.73787.31838 4.14844.84375c1.41056.52536 2.87835 1.25824 4.49609 2.08789 1.61775.8296 3.38579 1.75211 5.34375 2.46875.97898.35832 2.00722.66394 3.08789.88086s2.2138.3457 3.40821.3457c1.1944 0 2.32948-.12878 3.41015-.3457s2.10696-.52254 3.08594-.88086c1.95796-.71664 3.72796-1.63915 5.3457-2.46875 1.61775-.82965 3.08553-1.56253 4.4961-2.08789 1.41056-.52537 2.76424-.84375 4.14843-.84375 1.3842 0 2.73799.31838 4.15039.84375 1.41241.52536 2.88226 1.25824 4.5 2.08789.72277.37065 1.60089.72223 2.38672 1.10351 3.26653-1.81725 6.5373-3.65018 9.84766-5.61523z"/><path d="m329.54297 467.93555c-.88919-.31508-1.80532-.60051-2.77735-.79688-1.07392-.21695-2.20052-.3457-3.38671-.3457s-2.3136.12882-3.38672.3457c-1.07313.21688-2.09333.52237-3.06641.88086-1.94615.71702-3.70745 1.64066-5.32226 2.46875-1.61481.82813-3.08495 1.56207-4.50586 2.08984-1.42092.52778-2.79096.84961-4.20313.84961s-2.78427-.32183-4.20703-.84961c-1.42276-.52777-2.89691-1.26171-4.51172-2.08984-1.61481-.82811-3.37163-1.7522-5.31836-2.46875-.97336-.35827-1.99444-.66391-3.06836-.88086s-2.20052-.3457-3.38672-.3457c-1.18619 0-2.31359.12882-3.38672.3457-1.07312.21688-2.09333.52237-3.0664.88086-1.94615.71702-3.69965 1.64066-5.31445 2.46875-1.61481.82813-3.08896 1.56207-4.51172 2.08984-1.42276.52778-2.79487.84961-4.20703.84961-1.41217 0-2.78428-.32183-4.20704-.84961-1.42275-.52777-2.89495-1.26171-4.50976-2.08984-1.61481-.82809-3.3683-1.75173-5.31445-2.46875-.97308-.35849-1.99328-.66398-3.06641-.88086s-2.20053-.3457-3.38672-.3457-2.3137.12882-3.38867.3457-2.09724.52237-3.07031.88086c-1.94615.71702-3.69965 1.64066-5.31446 2.46875-1.61481.82813-3.08896 1.56207-4.51172 2.08984-1.42275.52778-2.79486.84961-4.20703.84961-1.41216 0-2.78427-.32183-4.20703-.84961-1.42276-.52777-2.89496-1.26171-4.50976-2.08984-1.61481-.82809-3.37026-1.75173-5.31641-2.46875-.97308-.35849-1.99133-.66398-3.06445-.88086-1.07313-.21688-2.20053-.3457-3.38672-.3457s-2.3137.12882-3.38867.3457-2.09724.52237-3.07032.88086c-1.94615.71702-3.69964 1.64066-5.31445 2.46875-1.61481.82813-3.08896 1.56207-4.51172 2.08984-1.42276.52778-2.79486.84961-4.20703.84961s-2.78221-.32183-4.20312-.84961c-1.42092-.52777-2.89301-1.26171-4.50782-2.08984-1.6148-.82811-3.37163-1.7522-5.31836-2.46875-.97336-.35827-1.99444-.66391-3.06836-.88086s-2.20052-.3457-3.38671-.3457c-1.1862 0-2.3136.12882-3.38672.3457-.97182.19641-1.88613.48142-2.77539.79688 2.30429 1.65907 4.53001 3.40531 6.8789 5.01172 2.29688 1.57094 4.61831 2.94823 6.92969 4.44726.34769.1746.64449.28148 1.00586.4668 1.61774.82962 3.38124 1.75258 5.33789 2.46875.97833.35808 2.00345.66415 3.08398.88086 1.08054.21671 2.21575.34375 3.41016.34375s2.32949-.12683 3.41016-.34375 2.10695-.5245 3.08593-.88282c1.95797-.71659 3.72796-1.63715 5.34571-2.46679 1.61774-.82963 3.08759-1.56441 4.5-2.0918s2.7662-.84765 4.15039-.84765 2.73592.32026 4.14648.84765c1.41057.52739 2.88031 1.26217 4.49805 2.0918 1.61774.82962 3.3833 1.75258 5.3418 2.46875.97925.35808 2.00666.66415 3.08789.88086s2.21575.34375 3.41015.34375c1.19441 0 2.33088-.12704 3.41211-.34375s2.10864-.52278 3.08789-.88086c1.9585-.71617 3.72406-1.63913 5.3418-2.46875 1.61774-.82963 3.08759-1.56441 4.5-2.0918s2.7662-.84765 4.15039-.84765 2.73787.32026 4.14844.84765c1.41056.52739 2.87835 1.26217 4.49609 2.0918 1.61775.82962 3.3833 1.75258 5.3418 2.46875.97925.35808 2.00666.66415 3.08789.88086s2.21575.34375 3.41016.34375c1.1944 0 2.32948-.12683 3.41015-.34375s2.10696-.5245 3.08594-.88282c1.95796-.71659 3.72796-1.63715 5.3457-2.46679 1.61775-.82963 3.08553-1.56441 4.4961-2.0918 1.41056-.52739 2.76424-.84765 4.14843-.84765 1.3842 0 2.73799.32026 4.15039.84765 1.41241.52739 2.88226 1.26217 4.5 2.0918 1.61775.82962 3.3833 1.75258 5.3418 2.46875.97925.35808 2.00666.66415 3.08789.88086s2.2177.34375 3.41211.34375 2.32754-.12683 3.4082-.34375c1.08067-.21692 2.10891-.5245 3.08789-.88282 1.95797-.71659 3.7182-1.63715 5.33594-2.46679.36137-.18532.65817-.2922 1.00586-.4668 2.31142-1.49909 4.63271-2.87625 6.92969-4.44726 2.34955-1.60669 4.57592-3.3523 6.88086-5.01172z"/><path d="m339.51367 460.63477c-1.37861-.52143-2.80044-1.21712-4.36133-2.01758-1.6148-.82813-3.37611-1.75178-5.32226-2.46875-.97308-.35851-1.99328-.66398-3.06641-.88086-1.07312-.21689-2.19857-.34375-3.38476-.34375s-2.3136.12686-3.38672.34375c-1.07313.21688-2.09333.52235-3.06641.88086-1.94615.71697-3.70745 1.64062-5.32226 2.46875-1.61481.82811-3.08495 1.56215-4.50586 2.08789-1.42092.52573-2.79096.84375-4.20313.84375s-2.78427-.31802-4.20703-.84375c-1.42276-.52574-2.89691-1.25978-4.51172-2.08789-1.61481-.82813-3.37163-1.75221-5.31836-2.46875-.97336-.35827-1.99444-.66392-3.06836-.88086-1.07392-.21695-2.20052-.34375-3.38672-.34375-1.18619 0-2.31359.12686-3.38672.34375-1.07312.21688-2.09333.52235-3.0664.88086-1.94615.71697-3.69965 1.64062-5.31445 2.46875-1.61481.82811-3.08896 1.56215-4.51172 2.08789-1.42276.52573-2.79487.84375-4.20703.84375-1.41217 0-2.78428-.31802-4.20704-.84375-1.42275-.52574-2.89495-1.25978-4.50976-2.08789-1.61481-.82813-3.37152-1.75221-5.31641-2.46875-.97244-.35827-1.99122-.66392-3.06445-.88086-1.07323-.21695-2.20053-.34375-3.38672-.34375s-2.3137.12686-3.38867.34375c-1.07497.21688-2.09724.52235-3.07031.88086-1.94615.71697-3.69965 1.64062-5.31446 2.46875-1.61481.82811-3.08896 1.56215-4.51172 2.08789-1.42275.52573-2.79486.84375-4.20703.84375-1.41216 0-2.78427-.31802-4.20703-.84375-1.42276-.52574-2.89496-1.25978-4.50976-2.08789-1.61481-.82813-3.37026-1.75178-5.31641-2.46875-.97308-.35851-1.99133-.66398-3.06445-.88086-1.07313-.21689-2.20053-.34375-3.38672-.34375s-2.3137.12686-3.38867.34375c-1.07497.21688-2.09724.52235-3.07032.88086-1.94615.71697-3.69964 1.64062-5.31445 2.46875-1.61481.82811-3.08896 1.56215-4.51172 2.08789-1.42276.52573-2.79486.84375-4.20703.84375s-2.78221-.31802-4.20312-.84375c-1.42092-.52574-2.89301-1.25978-4.50782-2.08789-1.6148-.82813-3.37163-1.75221-5.31836-2.46875-.97336-.35827-1.99444-.66392-3.06836-.88086-1.07392-.21695-2.20052-.34375-3.38671-.34375-1.1862 0-2.3136.12686-3.38672.34375-1.07313.21688-2.09138.52235-3.06446.88086-1.94615.71697-3.70746 1.64062-5.32226 2.46875-1.56089.80046-2.98272 1.49615-4.36133 2.01758 2.39201 1.86782 4.91094 3.59881 7.36523 5.40234.0357-.0183.0816-.0364.11719-.0547 1.61775-.82962 3.08955-1.56253 4.50195-2.08789 1.41241-.52536 2.7662-.84375 4.1504-.84375 1.38419 0 2.73798.31839 4.15039.84375s2.88421 1.25827 4.50195 2.08789c1.61774.82963 3.38124 1.75258 5.33789 2.46875.97833.35809 2.00345.66415 3.08398.88086 1.08054.21671 2.21575.34375 3.41016.34375s2.32893-.12704 3.41016-.34375 2.10864-.52277 3.08789-.88086c1.9585-.71617 3.726-1.63912 5.34375-2.46875 1.61774-.82962 3.08759-1.56253 4.5-2.08789s2.7662-.84375 4.15039-.84375 2.73592.31839 4.14648.84375c1.41057.52536 2.88031 1.25827 4.49805 2.08789 1.61774.82963 3.3833 1.75258 5.3418 2.46875.97925.35809 2.00666.66415 3.08789.88086s2.21575.34375 3.41015.34375c1.19441 0 2.33088-.12704 3.41211-.34375s2.10864-.52277 3.08789-.88086c1.9585-.71617 3.72406-1.63912 5.3418-2.46875 1.61774-.82962 3.08759-1.56253 4.5-2.08789s2.7662-.84375 4.15039-.84375 2.73787.31839 4.14844.84375c1.41056.52536 2.87835 1.25827 4.49609 2.08789 1.61775.82965 3.38579 1.75012 5.34375 2.4668.97898.35832 2.00722.66589 3.08789.88281s2.2138.34375 3.40821.34375c1.1944 0 2.33087-.12704 3.4121-.34375 1.08124-.21671 2.10865-.52277 3.0879-.88086 1.95849-.71617 3.72405-1.63912 5.34179-2.46875 1.61775-.82962 3.08553-1.56253 4.4961-2.08789 1.41056-.52536 2.76424-.84375 4.14843-.84375 1.3842 0 2.73799.31839 4.15039.84375 1.41241.52536 2.88226 1.25827 4.5 2.08789 1.61775.82965 3.38775 1.75012 5.34571 2.4668.97898.35832 2.00527.66589 3.08594.88281 1.08066.21692 2.21575.34375 3.41015.34375 1.19441 0 2.32767-.12704 3.4082-.34375 1.08054-.21671 2.10762-.52277 3.08594-.88086 1.95665-.71617 3.72015-1.63912 5.33789-2.46875 1.61775-.82962 3.08955-1.56253 4.50196-2.08789 1.4124-.52536 2.76619-.84375 4.15039-.84375 1.38419 0 2.73798.31839 4.15039.84375s2.88225 1.25827 4.5 2.08789c.0361.0185.0829.0361.11914.0547 2.45454-1.80359 4.97298-3.5344 7.36523-5.40234z"/><path d="m358.57422 444.07812c-.2173.073-.45717.11498-.66992.19336-1.94615.71702-3.70746 1.64843-5.32227 2.47657-1.61481.82811-3.0869 1.56021-4.50781 2.08593-1.42091.52573-2.79096.84375-4.20313.84375-1.41216 0-2.78427-.31802-4.20703-.84375-1.42276-.52572-2.89691-1.25782-4.51172-2.08593-1.6148-.82814-3.37163-1.75409-5.31836-2.47266-.97336-.35929-1.99443-.66706-3.06836-.88477-1.07392-.2177-2.20052-.3457-3.38671-.3457s-2.3136.12687-3.38672.34375c-1.07313.21688-2.09333.52433-3.06641.88281-1.94615.71702-3.70745 1.64843-5.32226 2.47657-1.61481.82811-3.08495 1.56021-4.50586 2.08593-1.42092.52573-2.79096.84375-4.20313.84375s-2.78427-.31802-4.20703-.84375c-1.42276-.52572-2.89691-1.25782-4.51172-2.08593-1.61481-.82814-3.3683-1.75955-5.31445-2.47657-.97308-.35848-1.99534-.66593-3.07031-.88281-1.07498-.21688-2.20249-.34375-3.38868-.34375s-2.31359.12687-3.38672.34375c-1.07312.21688-2.09333.52433-3.0664.88281-1.94615.71702-3.69965 1.64843-5.31445 2.47657-1.61481.82811-3.08896 1.56021-4.51172 2.08593-1.42276.52573-2.79487.84375-4.20703.84375-1.41217 0-2.78428-.31802-4.20704-.84375-1.42275-.52572-2.89495-1.25782-4.50976-2.08593-1.61481-.82814-3.3683-1.75955-5.31445-2.47657-.97308-.35848-1.99328-.66593-3.06641-.88281s-2.20053-.34375-3.38672-.34375-2.3137.12687-3.38867.34375-2.09724.52433-3.07031.88281c-1.94615.71702-3.69965 1.64843-5.31446 2.47657-1.61481.82811-3.08896 1.56021-4.51172 2.08593-1.42275.52573-2.79486.84375-4.20703.84375-1.41216 0-2.78427-.31802-4.20703-.84375-1.42276-.52572-2.89496-1.25782-4.50976-2.08593-1.61481-.82814-3.37026-1.75955-5.31641-2.47657-.97308-.35848-1.99133-.66593-3.06445-.88281-1.07313-.21688-2.20053-.34375-3.38672-.34375s-2.3137.12687-3.38867.34375-2.09724.52433-3.07032.88281c-1.94615.71702-3.69964 1.64843-5.31445 2.47657-1.61481.82811-3.08896 1.56021-4.51172 2.08593-1.42276.52573-2.79486.84375-4.20703.84375s-2.78221-.31802-4.20312-.84375c-1.42092-.52572-2.89301-1.25782-4.50782-2.08593-1.6148-.82814-3.37163-1.75409-5.31836-2.47266-.97336-.35929-1.99444-.66706-3.06836-.88477-1.07392-.2177-2.20052-.3457-3.38671-.3457-1.1862 0-2.3136.12687-3.38672.34375-1.07313.21688-2.09138.52433-3.06446.88281-1.94615.71702-3.70746 1.64843-5.32226 2.47657-1.61481.82811-3.08896 1.56021-4.51172 2.08593-1.42276.52573-2.79486.84375-4.20703.84375s-2.78221-.31802-4.20313-.84375c-1.42091-.52572-2.893-1.25782-4.50781-2.08593-1.61481-.82814-3.37611-1.75955-5.32227-2.47657-.21263-.0783-.45275-.12038-.66992-.19336 4.98603 4.72837 10.17336 9.27907 15.58008 13.63868.86481-.0467 1.73005-.0949 2.5332-.25586 1.08123-.21671 2.10865-.52278 3.0879-.88086 1.95849-.71616 3.72405-1.63913 5.34179-2.46875 1.61775-.82965 3.08955-1.56441 4.50195-2.0918 1.41241-.52738 2.7662-.84765 4.1504-.84765 1.38419 0 2.73798.32027 4.15039.84765 1.41241.52739 2.88421 1.26215 4.50195 2.0918 1.61774.82962 3.38124 1.75259 5.33789 2.46875.97833.35808 2.00345.66415 3.08398.88086 1.08054.21671 2.21575.3457 3.41016.3457s2.32949-.12878 3.41016-.3457 2.10695-.52254 3.08593-.88086c1.95797-.71664 3.72796-1.63915 5.34571-2.46875 1.61774-.82965 3.08759-1.56441 4.5-2.0918 1.41241-.52738 2.7662-.84765 4.15039-.84765s2.73592.32027 4.14648.84765c1.41057.52739 2.88031 1.26215 4.49805 2.0918 1.61774.8296 3.38579 1.75211 5.34375 2.46875.97898.35832 2.00722.66394 3.08789.88086s2.2138.3457 3.4082.3457c1.19441 0 2.32949-.12878 3.41016-.3457s2.10696-.52254 3.08594-.88086c1.95796-.71664 3.72796-1.63915 5.3457-2.46875 1.61774-.82965 3.08759-1.56441 4.5-2.0918 1.41241-.52738 2.7662-.84765 4.15039-.84765s2.73787.32027 4.14844.84765c1.41056.52739 2.87835 1.26215 4.49609 2.0918 1.61775.8296 3.38579 1.75211 5.34375 2.46875.97898.35832 2.00722.66394 3.08789.88086s2.2138.3457 3.40821.3457c1.1944 0 2.33087-.12899 3.4121-.3457 1.08124-.21671 2.10865-.52278 3.0879-.88086 1.95849-.71616 3.72405-1.63913 5.34179-2.46875 1.61775-.82965 3.08553-1.56441 4.4961-2.0918 1.41056-.52738 2.76424-.84765 4.14843-.84765 1.3842 0 2.73799.32027 4.15039.84765 1.41241.52739 2.88226 1.26215 4.5 2.0918 1.61775.82962 3.3833 1.75259 5.3418 2.46875.97925.35808 2.00666.66415 3.08789.88086s2.2177.3457 3.41211.3457 2.32754-.12878 3.4082-.3457c1.08067-.21692 2.10891-.52254 3.08789-.88086 1.95797-.71664 3.7182-1.63915 5.33594-2.46875 1.61775-.82965 3.08955-1.56441 4.50196-2.0918 1.4124-.52738 2.76619-.84765 4.15039-.84765 1.38419 0 2.73798.32027 4.15039.84765 1.41241.52739 2.88225 1.26215 4.5 2.0918 1.61774.8296 3.37993 1.75211 5.33789 2.46875.97898.35832 2.00733.66394 3.08984.88086.80448.16121 1.67142.21105 2.53711.25781 5.40693-4.35963 10.59383-8.91199 15.58008-13.64063z"/><path d="m370.32812 432.26172c-.83298-.28743-1.68088-.55935-2.58593-.74219-1.07392-.21695-2.20053-.3457-3.38672-.3457s-2.31359.12686-3.38672.34375c-1.07313.21688-2.09138.5243-3.06445.88281-1.94615.71698-3.70746 1.64066-5.32227 2.46875-1.61481.82813-3.0869 1.56207-4.50781 2.08984-1.42091.52778-2.79096.84961-4.20313.84961-1.41216 0-2.78427-.32183-4.20703-.84961-1.42276-.52777-2.89691-1.26171-4.51172-2.08984-1.6148-.82811-3.37163-1.7522-5.31836-2.46875-.97336-.35827-1.99443-.66391-3.06836-.88086-1.07392-.21695-2.20052-.3457-3.38671-.3457s-2.3136.12686-3.38672.34375c-1.07313.21688-2.09333.5243-3.06641.88281-1.94615.71698-3.70745 1.64066-5.32226 2.46875-1.61481.82813-3.08495 1.56207-4.50586 2.08984-1.42092.52778-2.79096.84961-4.20313.84961s-2.78427-.32183-4.20703-.84961c-1.42276-.52777-2.89691-1.26171-4.51172-2.08984-1.61481-.82809-3.3683-1.75177-5.31445-2.46875-.97308-.35851-1.99534-.66593-3.07031-.88281-1.07498-.21689-2.20249-.34375-3.38868-.34375s-2.31359.12686-3.38672.34375c-1.07312.21688-2.09333.5243-3.0664.88281-1.94615.71698-3.69965 1.64066-5.31445 2.46875-1.61481.82813-3.08896 1.56207-4.51172 2.08984-1.42276.52778-2.79487.84961-4.20703.84961-1.41217 0-2.78428-.32183-4.20704-.84961-1.42275-.52777-2.89495-1.26171-4.50976-2.08984-1.61481-.82809-3.3683-1.75177-5.31445-2.46875-.97308-.35851-1.99328-.66593-3.06641-.88281-1.07313-.21689-2.20053-.34375-3.38672-.34375s-2.3137.12686-3.38867.34375c-1.07497.21688-2.09724.5243-3.07031.88281-1.94615.71698-3.69965 1.64066-5.31446 2.46875-1.61481.82813-3.08896 1.56207-4.51172 2.08984-1.42275.52778-2.79486.84961-4.20703.84961-1.41216 0-2.78427-.32183-4.20703-.84961-1.42276-.52777-2.89496-1.26171-4.50976-2.08984-1.61481-.82811-3.37153-1.7522-5.31641-2.46875-.97244-.35827-1.99122-.66391-3.06445-.88086s-2.20053-.3457-3.38672-.3457-2.3137.12686-3.38867.34375c-1.07497.21688-2.09724.5243-3.07032.88281-1.94615.71698-3.69964 1.64066-5.31445 2.46875-1.61481.82813-3.08896 1.56207-4.51172 2.08984-1.42276.52778-2.79486.84961-4.20703.84961s-2.78221-.32183-4.20312-.84961c-1.42092-.52777-2.89301-1.26171-4.50782-2.08984-1.6148-.82811-3.37163-1.7522-5.31836-2.46875-.97336-.35827-1.99444-.66391-3.06836-.88086s-2.20052-.3457-3.38671-.3457c-1.1862 0-2.3136.12686-3.38672.34375-1.07313.21688-2.09138.5243-3.06446.88281-1.94615.71698-3.70746 1.64066-5.32226 2.46875-1.61481.82813-3.08896 1.56207-4.51172 2.08984-1.42276.52778-2.79486.84961-4.20703.84961s-2.78221-.32183-4.20313-.84961c-1.42091-.52777-2.893-1.26171-4.50781-2.08984-1.6148-.82811-3.37163-1.7522-5.31836-2.46875-.97336-.35827-1.99444-.66391-3.06836-.88086s-2.20052-.3457-3.38672-.3457c-1.18619 0-2.31359.12686-3.38672.34375-.90485.18287-1.75099.45638-2.58398.74414 2.2757 2.51473 4.75598 4.86846 7.16211 7.2832.97967.12366 1.95206.22507 2.95898.59961 1.41241.52536 2.88226 1.25825 4.5 2.08789 1.61774.82961 3.37994 1.75993 5.33789 2.47656.97898.35832 2.00527.6659 3.08594.88282s2.21575.34375 3.41016.34375 2.33155-.12683 3.41406-.34375 2.11086-.5245 3.08984-.88282c1.95797-.71663 3.7182-1.64695 5.33594-2.47656 1.61775-.82964 3.08955-1.56253 4.50195-2.08789 1.41241-.52536 2.7662-.8418 4.1504-.8418 1.38419 0 2.73798.31644 4.15039.8418s2.88421 1.25825 4.50195 2.08789c1.61774.82963 3.38124 1.75642 5.33789 2.47461.97833.3591 2.00345.66534 3.08398.88281 1.08054.21747 2.21575.34571 3.41016.34571s2.32949-.12683 3.41016-.34375 2.10695-.5245 3.08593-.88282c1.95797-.71663 3.72796-1.64695 5.34571-2.47656 1.61774-.82964 3.08759-1.56253 4.5-2.08789s2.7662-.8418 4.15039-.8418 2.73592.31644 4.14648.8418c1.41057.52536 2.88031 1.25825 4.49805 2.08789 1.61774.82963 3.3833 1.75642 5.3418 2.47461.97925.3591 2.00666.66534 3.08789.88281s2.21575.34571 3.41015.34571c1.19441 0 2.33088-.12824 3.41211-.34571s2.10864-.52371 3.08789-.88281c1.9585-.71819 3.72406-1.64498 5.3418-2.47461 1.61774-.82964 3.08759-1.56253 4.5-2.08789s2.7662-.8418 4.15039-.8418 2.73787.31644 4.14844.8418c1.41056.52536 2.87835 1.25825 4.49609 2.08789 1.61775.82961 3.38579 1.75993 5.34375 2.47656.97898.35832 2.00722.6659 3.08789.88282s2.2138.34375 3.40821.34375c1.1944 0 2.32948-.12683 3.41015-.34375s2.10696-.5245 3.08594-.88282c1.95796-.71663 3.72796-1.64695 5.3457-2.47656 1.61775-.82964 3.08553-1.56253 4.4961-2.08789 1.41056-.52536 2.76424-.8418 4.14843-.8418 1.3842 0 2.73799.31644 4.15039.8418 1.41241.52536 2.88226 1.25825 4.5 2.08789 1.61775.82963 3.3833 1.75642 5.3418 2.47461.97925.3591 2.00666.66534 3.08789.88281s2.2177.34571 3.41211.34571 2.32754-.12683 3.4082-.34375c1.08067-.21692 2.10891-.5245 3.08789-.88282 1.95797-.71663 3.7182-1.64695 5.33594-2.47656 1.61775-.82964 3.08955-1.56253 4.50196-2.08789 1.4124-.52536 2.76619-.8418 4.15039-.8418 1.38419 0 2.73798.31644 4.15039.8418s2.88225 1.25825 4.5 2.08789c1.61774.82963 3.3833 1.75642 5.34179 2.47461.97925.3591 2.00862.66534 3.08985.88281s2.21575.34571 3.41015.34571c1.19441 0 2.32754-.12683 3.40821-.34375s2.10891-.5245 3.08789-.88282c1.95796-.71663 3.71819-1.64695 5.33593-2.47656 1.61775-.82964 3.08955-1.56253 4.50196-2.08789 1.00693-.37454 1.97932-.47595 2.95898-.59961 2.40641-2.41507 4.88812-4.76808 7.16406-7.2832z"/><path d="m377.625 423.68945c-.50766-.2497-.96027-.41662-1.49609-.6914-1.61481-.82814-3.37163-1.75221-5.31836-2.46875-.97337-.35827-1.99444-.66392-3.06836-.88086-1.07392-.21695-2.20053-.34375-3.38672-.34375s-2.3128.1268-3.38672.34375c-1.07392.21694-2.09499.52259-3.06836.88086-1.94673.71654-3.70355 1.64061-5.31836 2.46875-1.61481.82811-3.0869 1.5602-4.50781 2.08593-1.42091.52574-2.79096.84571-4.20313.84571-1.41216 0-2.78427-.31997-4.20703-.84571-1.42276-.52573-2.89691-1.25782-4.51172-2.08593-1.6148-.82814-3.37163-1.75221-5.31836-2.46875-.97336-.35827-1.99443-.66392-3.06836-.88086-1.07392-.21695-2.20052-.34375-3.38671-.34375-1.1862 0-2.3128.1268-3.38672.34375-1.07392.21694-2.095.52259-3.06836.88086-1.94673.71654-3.70551 1.64061-5.32031 2.46875-1.61481.82811-3.08495 1.5602-4.50586 2.08593-1.42092.52574-2.79096.84571-4.20313.84571s-2.78427-.31997-4.20703-.84571c-1.42276-.52573-2.89691-1.25782-4.51172-2.08593-1.61481-.82814-3.37163-1.75221-5.31836-2.46875-.97336-.35827-1.99444-.66392-3.06836-.88086-1.07392-.21695-2.20052-.34375-3.38672-.34375-1.18619 0-2.31349.1268-3.38672.34375-1.07322.21694-2.09396.52259-3.0664.88086-1.94489.71654-3.69965 1.64061-5.31445 2.46875-1.61481.82811-3.08896 1.5602-4.51172 2.08593-1.42276.52574-2.79487.84571-4.20703.84571-1.41217 0-2.78428-.31997-4.20704-.84571-1.42275-.52573-2.89495-1.25782-4.50976-2.08593-1.61481-.82814-3.37152-1.75221-5.31641-2.46875-.97244-.35827-1.99122-.66392-3.06445-.88086-1.07323-.21695-2.20053-.34375-3.38672-.34375s-2.3128.1268-3.38672.34375c-1.07392.21694-2.09499.52259-3.06836.88086-1.94673.71654-3.70355 1.64061-5.31836 2.46875-1.61481.82811-3.08896 1.5602-4.51172 2.08593-1.42275.52574-2.79486.84571-4.20703.84571-1.41216 0-2.78427-.31997-4.20703-.84571-1.42276-.52573-2.89496-1.25782-4.50976-2.08593-1.61481-.82814-3.37153-1.75221-5.31641-2.46875-.97244-.35827-1.99122-.66392-3.06445-.88086-1.07323-.21695-2.20053-.34375-3.38672-.34375s-2.3128.1268-3.38672.34375c-1.07392.21694-2.09499.52259-3.06836.88086-1.94673.71654-3.70355 1.64061-5.31836 2.46875-1.61481.82811-3.08896 1.5602-4.51172 2.08593-1.42276.52574-2.79486.84571-4.20703.84571s-2.78221-.31997-4.20312-.84571c-1.42092-.52573-2.89301-1.25782-4.50782-2.08593-1.6148-.82814-3.37163-1.75221-5.31836-2.46875-.97336-.35827-1.99444-.66392-3.06836-.88086-1.07392-.21695-2.20052-.34375-3.38671-.34375-1.1862 0-2.3128.1268-3.38672.34375-1.07392.21694-2.095.52259-3.06836.88086-1.94673.71654-3.70355 1.64061-5.31836 2.46875-1.61481.82811-3.08896 1.5602-4.51172 2.08593-1.42276.52574-2.79486.84571-4.20703.84571s-2.78221-.31997-4.20313-.84571c-1.42091-.52573-2.893-1.25782-4.50781-2.08593-1.6148-.82814-3.37163-1.75221-5.31836-2.46875-.97336-.35827-1.99444-.66392-3.06836-.88086-1.07392-.21695-2.20052-.34375-3.38672-.34375-1.18619 0-2.3128.1268-3.38672.34375-1.07392.21694-2.09499.52259-3.06835.88086-1.94674.71654-3.70551 1.64061-5.32032 2.46875-.53543.27458-.98683.44186-1.49414.6914 1.72942 2.14922 3.50961 4.26062 5.33594 6.33985 1.32183-.66877 2.59636-1.31245 3.7832-1.75391 1.41241-.52537 2.76621-.84375 4.15039-.84375 1.38421 0 2.73799.31838 4.15039.84375 1.41241.52537 2.88226 1.25827 4.5 2.08789 1.61774.82963 3.38319 1.75258 5.33985 2.46875.97832.35809 2.00344.66415 3.08398.88086s2.21575.34375 3.41016.34375 2.32892-.12704 3.41015-.34375 2.10865-.52277 3.0879-.88086c1.95849-.71617 3.72405-1.63912 5.34179-2.46875 1.61775-.82962 3.08955-1.56252 4.50195-2.08789 1.41241-.52537 2.7662-.84375 4.1504-.84375 1.38419 0 2.73798.31838 4.15039.84375s2.88421 1.25827 4.50195 2.08789c1.61774.82963 3.38124 1.75258 5.33789 2.46875.97833.35809 2.00345.66415 3.08398.88086 1.08054.21671 2.21575.34375 3.41016.34375s2.32893-.12704 3.41016-.34375 2.10864-.52277 3.08789-.88086c1.9585-.71617 3.726-1.63912 5.34375-2.46875 1.61774-.82962 3.08759-1.56252 4.5-2.08789s2.7662-.84375 4.15039-.84375 2.73592.31838 4.14648.84375c1.41057.52537 2.88031 1.25827 4.49805 2.08789 1.61774.82963 3.3833 1.75258 5.3418 2.46875.97925.35809 2.00666.66415 3.08789.88086s2.21575.34375 3.41015.34375c1.19441 0 2.33088-.12704 3.41211-.34375s2.10864-.52277 3.08789-.88086c1.9585-.71617 3.72406-1.63912 5.3418-2.46875 1.61774-.82962 3.08759-1.56252 4.5-2.08789s2.7662-.84375 4.15039-.84375 2.73787.31838 4.14844.84375c1.41056.52537 2.87835 1.25827 4.49609 2.08789 1.61775.82963 3.3833 1.75258 5.3418 2.46875.97925.35809 2.00666.66415 3.08789.88086s2.21575.34375 3.41016.34375c1.1944 0 2.33087-.12704 3.4121-.34375 1.08124-.21671 2.10865-.52277 3.0879-.88086 1.95849-.71617 3.72405-1.63912 5.34179-2.46875 1.61775-.82962 3.08553-1.56252 4.4961-2.08789 1.41056-.52537 2.76424-.84375 4.14843-.84375 1.3842 0 2.73799.31838 4.15039.84375 1.41241.52537 2.88226 1.25827 4.5 2.08789 1.61775.82963 3.3833 1.75258 5.3418 2.46875.97925.35809 2.00666.66415 3.08789.88086s2.2177.34375 3.41211.34375 2.32767-.12704 3.4082-.34375c1.08054-.21671 2.10762-.52277 3.08594-.88086 1.95665-.71617 3.72015-1.63912 5.33789-2.46875 1.61775-.82962 3.08955-1.56252 4.50196-2.08789 1.4124-.52537 2.76619-.84375 4.15039-.84375 1.38419 0 2.73798.31838 4.15039.84375s2.88225 1.25827 4.5 2.08789c1.61774.82963 3.3833 1.75258 5.34179 2.46875.97925.35809 2.00862.66415 3.08985.88086s2.21575.34375 3.41015.34375c1.19441 0 2.32767-.12704 3.40821-.34375 1.08053-.21671 2.10761-.52277 3.08593-.88086 1.95666-.71617 3.72015-1.63912 5.33789-2.46875 1.61775-.82962 3.08955-1.56252 4.50196-2.08789s2.76619-.84375 4.15039-.84375c1.38419 0 2.73798.31838 4.15039.84375 1.18684.44146 2.46137 1.08514 3.7832 1.75391 1.82631-2.07928 3.60654-4.19056 5.33594-6.33985z"/></g></svg>