<svg enable-background="new -176.966 -215.01 408.272 494.945" height="600" viewBox="-176.966 -215.01 500 599.99999" width="500" xmlns="http://www.w3.org/2000/svg"><path d="m-172.96598-211.00998v345.3744a245.99999 246.69601 0 0 0 491.99996 0v-345.3744z" fill="#fff" stroke="#000" stroke-width="8.00004"/><g stroke-width="4"><path d="m120.87213-189.3121a22.051837 22.127499 0 0 0 -22.05326 22.12661 22.051837 22.127499 0 0 0 2.47092 10.16138c-8.36526 4.21436-16.12053 8.74903-23.25864 13.65995a22.051837 22.127499 0 0 0 -17.67129-8.93097 22.051837 22.127499 0 0 0 -22.05094 22.1266 22.051837 22.127499 0 0 0 7.65802 16.7476c-5.25543 6.84634-9.81083 14.23294-13.641 22.244999a22.051837 22.127499 0 0 0 -10.37188-2.611727 22.051837 22.127499 0 0 0 -22.05326 22.128917 22.051837 22.127499 0 0 0 19.88542 22.019812c-.23444 1.463095-.46716 2.92852-.67095 4.422543-28.48328 208.809686-22.23608 261.456626-49.91597 379.007756 23.22542-7.88351 42.72488-68.12503 64.07059-102.41476l31.28915 127.08345 33.5241-131.56867c20.53519 36.82906 32.01715 97.28049 61.83566 109.89012-17.5283-106.15591-34.10626-223.70878-43.95382-348.358774-2.92561-37.032289 4.41253-48.688363 16.38955-69.523184 12.30638-21.407752 80.07499-44.749572 89.39759 13.455659 7.59694 47.431091-44.26557 45.961126-58.10842 17.943183l-25.32933 20.183476c20.40346 16.527765 29.39707 42.768469 75.98334 33.24678a22.051837 22.127499 0 0 0 21.21341 16.102211 22.051837 22.127499 0 0 0 22.05094-22.128928 22.051837 22.127499 0 0 0 -5.8534-14.980907c4.6061-7.170272 8.45023-16.233543 11.49628-26.298412a22.051837 22.127499 0 0 0 7.23001 1.248999 22.051837 22.127499 0 0 0 22.05095-22.12661 22.051837 22.127499 0 0 0 -22.05095-22.128928 22.051837 22.127499 0 0 0 -1.01798.03708c-.49309-9.054332-2.35033-17.878565-5.88118-26.247335a22.051837 22.127499 0 0 0 10.51764-18.84162 22.051837 22.127499 0 0 0 -22.05095-22.1266 22.051837 22.127499 0 0 0 -16.16283 7.11552c-7.20139-5.37534-15.18427-9.93315-23.58717-13.65066a22.051837 22.127499 0 0 0 1.02261-6.64889 22.051837 22.127499 0 0 0 -22.05094-22.12661 22.051837 22.127499 0 0 0 -21.54658 17.47656c-3.96231-.40995-7.89332-.64808-11.75772-.69646-5.29639-.0663-10.45988.22754-15.42711.85201a22.051837 22.127499 0 0 0 -21.62061-17.87123z" fill="#f00" stroke="#0b0000" stroke-linecap="round"/><g stroke="#000"><path d="m64.55905 358.46006s-.98816-200.09938-2.23458-299.767724c-.28682-22.935258 1.03109-45.121847 2.23498-68.027081.98964-18.829158-4.5946-40.141113 8.19493-69.522173 6.54009-15.024358 13.56259-24.091862 23.83981-32.892222 11.6583-9.98297 27.03892-17.14571 40.97469-20.9314 11.04975-3.0017 30.42732-5.6226 41.71967-3.73776 12.7382 2.12617 24.12243 5.00089 35.01472 11.96081 9.63775 6.15831 18.21753 16.93071 23.83981 26.911807 4.98458 8.849005 8.33615 18.990721 8.19494 29.154463.93701 32.164707-19.24931 43.655788-34.26973 44.056178-16.07027.428375-19.34577-4.655067-28.30977-7.62454" fill="none"/><g fill="#f00" stroke-linecap="round"><path d="m-12.343102-12.732811h154.19331v72.757988h-154.19331z"/><path d="m-29.724457 5.377012h188.95602v36.538342h-188.95602z"/></g></g></g></svg>