<svg height="500" viewBox="0 0 400 500" width="400" xmlns="http://www.w3.org/2000/svg"><path d="m400 0h-400v417.3c-.2 10 1.2 18.2 5.5 24.2 4.5 6.3 12 9.8 23.7 9.8.9 0 1.8 0 2.7-.1h122.5c32.5.4 42.6 22.8 47 48.8 4.4-26.3 13.1-47.6 45.7-48.8h125.6c11.1-1.3 18.2-5.9 22.3-12.5 3.6-5.7 5-12.9 4.9-21.2z"/><path d="m396.8 3.2v414.4c.1 8.3-1.4 14.7-4.4 19.5-3.9 6.2-10.6 9.9-19.8 11h-125.6c-28.8 1-40.1 17.1-45.7 37-5.6-19.1-17.4-36.6-46.9-37l-125.2.1c-10.1 0-17-2.8-21.1-8.4-3.5-4.9-5.1-12-4.9-22.4v-414.3z" fill="#d20000"/><path d="m163.9 306.1.1 19 3.9 4.8h65.4l3.9-4.8.1-19h-20.7v4.1h-11.7l-4.3 5.1-4.3-5.1h-11.7v-4.2zm120.1 0v29.2c.5 2.7 1.6 5.1 4.5 6.2v2l25.7 18.2v4.3l22.3 16.5.2 18.2h-272.3l.2-18.2 22.3-16.5v-4.3l25.7-18.2v-2c2.9-1.1 3.9-3.5 4.5-6.2v-29.3h-2.8v-32.1h1.7c-2.2-1.6-4-3.8-5.2-6.2l-.4 1.9c-.6 4.3-.3 8.7.7 12.9.9 3.9 0 6.6-4.5 6.6-2.9 2.9-5.6 2.3-8 .2-2.5.4-4.9-1.3-5.4-3.8-2.2-.9-2.5-3.9.7-6.9s3-7 2.8-10.9c-.7-1.8 0-3.7 1.5-4.8-1.8-3.4-.4-7.7 3-9.4 2.2-1.1 4.9-1 7 .3h1.5c1.9-5.9 7-10.3 13.1-11.3v-.2h.1c-3.1-7.1.2-16.1 10.2-19.9h4.8l2.8-4.1v-171h3.5l10.4-9.4 10.4 9.3h3.7v7.5h5.3v-7.3h8.3v-11.4h11l7.1-6.1 7 6.2h11v11.4h8.3v7.3h5.3v-7.5h3.7l10.4-9.3 10.4 9.3h3.5v171l2.9 4.3h4.7c10.1 3.8 13.3 12.8 10.2 19.9h.2v.2c6.1 1 11.2 5.3 13.1 11.3h1.5c3.2-2.1 7.6-1.2 9.7 2 1.4 2.1 1.5 4.9.3 7.1 1.5 1.1 2.2 3 1.5 4.8-.2 3.9-.3 7.7 2.8 10.9s2.9 6 .7 6.9c-.5 2.5-2.9 4.1-5.4 3.8-2.4 2.1-5.2 2.6-8-.2-4.5 0-5.4-2.6-4.5-6.6 1.1-4.2 1.3-8.6.7-12.9l-.4-1.9c-1.2 2.5-3 4.6-5.2 6.2h1.6v31.9h-2.4z"/><path d="m141.7 233.1 5.6-1.6c2.3-1.4 5.2-1.4 7.6-.2h2.5c1.1-.7 2.6-.8 3.6-1.5s1.6-1.4 2.5-.6v2.4c.9.5 2 .4 2.8-.1 1.8-.2 3.3-1.2 4.2-2.7.8-.9 2.1-1 3-.2l.2.2-.4 2.3c2.8.7 5.3 1.1 5.3-1.3 1.8-1.6 3.5-2.6 4.8 0 1.1 1.1 2.2 1.9 4.2 0 .6-.6 1.5-.6 2.1 0 .4 1.3 1.5 1.3 3.3 0 .8 1.5 1.8 2.5 4.2 0 1.2-.6 2.6-.6 3.9 0 1.8 1.2 4.3 3.5 3.6 0 .3-1.3 1.4-2.2 2.6 0 1 1.1 2.1 2.1 3.1.2.6-.7 1.7-.8 2.4-.2.1.1.3.3.3.4.9 1.6 2 2 2.7.2.9-2.3 1.8-2.2 2.7.2.9.3 1.9.4 2.8.3 1.3-.8 2.6-1.4 3.9.2l2-.2-.2-1.7h2.2l1.3 2.1c.9.7 1.3.8 1.5.1.8-1 1.6-1 2.5.2 2.1.7 3.1.1 2.9-1.6l2.5-.5 3.5 1.8c.4.8 1.4 1.2 2.3.8.3-.1.5-.4.7-.7l.4-2c1.1-.8 2.1-1.2 3.2.8l1.6 1.1c1.1 1 2 1 2.6.1l.6-1.1h2.5l2 2 3.2.2 3.4-.3 1.4 3.5-1 1.1-4.3-.7c-1.6 3.2-3.3 2.9-4.9-.8h-2.1l-1.3 2.7-1.3-2.5-1.8-.1-.6 1.9-1.3-1.5-1.6.5-1 2.2-1.4-2.4-2-.6-.5 2.2-1.3-1.8h-2.2l-.6 3-1.7-3-1.8-.1c-.2 1.1-1 1.1-2.4.1-1.6-1.4-2.4-.6-3 .5-2.4 1.9-3.3.2-4.5-.7-.9.9-1.7.9-2.3 0l-.9.4c-1.2-1.1-2-.8-2.2.7-.9.6-2 .5-2.7-.3-.7-1.1-1.3-1.2-2-.2-.3 1.1-1.2 1.2-2.9.4l-.9 1.6-2.2-2.1-1.9-.2-1.2 1.5-2.1-1.2c-.4 2.5-1.8 2.4-4.1-.5-.7-1.1-1.5-1.1-2.2-.2l-.5 2-1.3-1.6-1.5-.1-1 1.8-.8.2-1.2-1.8c-1.7-1.6-2.4-.8-2.5.9l1.8 4c-1.8-.4-3-1.9-3.7-4.4h-1.2c-2.1 1.4-3.1.4-4-1.1s-1.6-.9-2.5-.2c-1 2.3-3.1 2.1-6.2-.5-.8-1.6-1.6-1-2.4-.2l-.6 1.6c-3.1.7-5.1.3-5.9-1.6-.5-.4-1.3-.3-1.7.2l-1 1.5c-.5 1.1-1.4 1.2-2.8.5l-2.2-2.4c-.2-.5-.8-.6-1.3-.4-.1.1-.2.2-.3.3-1.6.8-2.6.2-3.1-1.6-.3-.8-1.3-1.2-2.1-.9-.3.1-.6.4-.7.6l-5.9 2.1c-1.4.2-1.6-.4-.8-1.4" fill="#a15a41"/><path d="m171.6 189.2c1.3-1.9 3.4-2.8 4.6-1.9s1.2 3.2 0 5-3.4 2.8-4.6 1.9-1.3-3.1 0-5m57.9 0c-1.3-1.9-3.4-2.8-4.6-1.9s-1.2 3.1 0 5 3.4 2.8 4.6 1.9 1.2-3.1 0-5" fill="#009aff"/><path d="m200.6 159.7c1.4 0 2.7-.9 3.2-2.2h-6.4c.5 1.3 1.8 2.2 3.2 2.2m0-16.7c1.4 0 2.7.9 3.2 2.2h-6.4c.5-1.3 1.8-2.2 3.2-2.2m3.8 50.5c-.5-1.5-1.7-6.2-3.8-6.3-2.1.1-3.3 4.8-3.8 6.3-.6 2.1-.8 4.7 1.1 6.3 1.6 1.4 4 1.4 5.6 0 1.7-1.6 1.6-4.2.9-6.3" fill="#d20000"/><path d="m208.2 266.6c-.3 2.2-.8 4.3-1.4 6.5v.1h68.2c4.8 0 9.2-2.5 11.6-6.6zm-82.2 6.6h68.2l.1-.1c1.4-2 2.6-4.2 3.4-6.5h-83.3c2.4 4.1 6.8 6.6 11.6 6.6m161.3-19.2c-2.1-4.6-6.6-7.6-11.6-7.9-2.1 2.4-4.9 4.1-8 5h-60.4c.3.9.5 1.9.7 2.9zm-90.7 0c-.5-1-1.1-2-1.8-2.9h-61.7c-3.1-.9-5.8-2.6-7.9-5-5 .3-9.5 3.3-11.6 7.9z" fill="#008e1f"/><path d="m245.1 46.8h-3l3-2.8zm2.3 0h3l-3-2.8zm2.5 41.2-3.7-10.8-3.7 10.8zm-7.5-28.8 3.7 10.8 3.7-10.8zm8.8 19.9v-10.9l-3.1 5.5zm-10.1-10.9v10.9l3.1-5.5zm11.4-12.1h-12.7c-.8 0-1.4.7-1.4 1.4v32.3c0 .8.6 1.4 1.4 1.4h12.7c.8 0 1.4-.7 1.4-1.4v-32.3c.1-.8-.6-1.4-1.4-1.4zm-17.3 43.8v84.9l.2.2c1.7-1.3 4.2-1 5.6.7.1.1.2.3.3.5v-74.3c0-.9.7-1.7 1.6-1.8h5.1c.9.1 1.6.8 1.6 1.8v88.4c2.2-.4 4.2 1.1 4.6 3.3.2 1.5-.4 3-1.6 3.9 1.5 2.1 3 4.2 4.4 6.3v-113.9zm9.4 96.7 1.6 2.1v-85.2h-1.6zm-9.4-146.2h21.9v46.5h-21.9zm-127.3 209.5c0 1.9-1.5 3.4-3.3 3.4-1.9 0-3.3-1.5-3.3-3.4s1.5-3.4 3.3-3.4c1.8.1 3.3 1.6 3.3 3.4zm192.1 0c0 1.9-1.5 3.4-3.4 3.4s-3.4-1.5-3.4-3.4 1.5-3.4 3.4-3.4c1.9.1 3.4 1.6 3.4 3.4zm-96.4-126.4c0 1.6-1.3 2.9-2.9 2.9s-2.9-1.3-2.9-2.9 1.3-2.9 2.9-2.9 2.9 1.3 2.9 2.9m-45-45.5-3.7-10.8-3.7 10.8zm-7.3-28.8 3.7 10.8 3.7-10.8zm8.6 19.9v-11l-3.1 5.5zm-10-11v10.9l3.1-5.5zm119.1 220 5.1-4.7h-10.1zm0 3.6-5.1 4.7h10.1zm3.3-1.8 4.7 5.1v-10.1zm-6.6 0-4.7 5.1v-10.1zm-133.6-1.8-5.1-4.7h10.1zm0 3.6 5.1 4.7h-10.1zm-3.3-1.8-4.7 5.1v-10.1zm6.6 0 4.7 5.1v-10.1zm67-16.1h-4.3c5.1-6.6 5.6-15.7 1.2-22.8h4.1c.3.6 5.7 12.5-1 22.8m2.8-102.2h-9.2c-11.6 13.5-20.6 30.7-28.2 50.9h20.1l3.4-3c.9-.7 1.2-1.3.9-1.8l-3.1-4.4c-.8-.6-1-1.8-.4-2.6 1.3-1.6 3.9-2.2 6.6-2.2-2.3-1.4-1.9-4.4 1.8-3.5l1.7-.6c-2.2-.6-4.1-2-5.3-4-1.8-3.2-1.1-6.3.3-10.1.8-2.1 1.9-4 3.3-5.7-3.1-2-4-6.1-2-9.1 2-3.1 6.1-4 9.1-2 3.1 2 4 6.1 2 9.1-.6.9-1.4 1.7-2.4 2.3 1.3 1.6 2.4 3.5 3.2 5.5 1.4 3.7 2.1 6.9.3 10.1-1.2 2-3.1 3.4-5.3 4l1.7.6c3.7-.9 4.1 2.1 1.8 3.5 2.7.1 5.3.6 6.6 2.2.6.8.4 2-.4 2.6l-3 4.4c-.3.5 0 1.1.9 1.8l3.5 3h20.1c-7.4-20.2-16.4-37.4-28-51m88.3 93.8c-.3 2.9-.4 5.7 1.5 8.1.4-3.3.5-6.3-1.5-8.1m-.3 12.8c-.3 2.9-.4 5.7 1.5 8.2.4-3.4.5-6.4-1.5-8.2m7.5 0c-.3 2.9-.3 5.7 1.5 8.2.4-3.4.5-6.4-1.5-8.2m-3.7-5.9c-.3 2.9-.4 5.6 1.5 8.2.4-3.4.5-6.4-1.5-8.2m2.2-6.7c-.3 2.9-.3 5.7 1.5 8.2.4-3.4.5-6.4-1.5-8.2m-90.6-8.1c.1 1.8.1 3.6 0 5.4h81.1v-5.4zm-10.5 0h-86.8v5.4h87.2c.2-1.7.1-3.6-.4-5.4m-90.3 20.7c-2 1.8-1.8 4.8-1.5 8.2 1.9-2.5 1.7-5.3 1.5-8.2m-3.8-5.9c-2 1.8-1.8 4.8-1.5 8.2 1.9-2.5 1.8-5.3 1.5-8.2m3.5-6.8c-2 1.8-1.8 4.8-1.5 8.1 1.9-2.4 1.8-5.2 1.5-8.1m-5.6.1c-2 1.8-1.8 4.8-1.5 8.1 1.9-2.4 1.8-5.2 1.5-8.1m-1.6 12.6c-2 1.8-1.8 4.8-1.5 8.2 1.9-2.5 1.8-5.3 1.5-8.2m99.5 27-2.9 2.8 3.7 3.8 3-2.7zm-.8-15.9v-11h-12.1l3.4 4h5.9v5.6l-8.9 7.3v12.2h8l2.9-3.3-2.6-2.5-1.1 1.6h-2.7v-7.4zm-22.4-3-1.4 1.4 2.2 2.3 1.4-1.4zm-1.7 9-7.6-7-1.9 1.5 7.3 6.6h10.4v-4.1zm7.3-17.1h-11.2v6.3l7.9-3.9 8.8 8.7 3-2.2zm-16 4.7.1-4.7h-11.5l-.1-.1v6.1l1.5.1v-4.2h7.7c1 .3 1.1 1.1.4 2.3l-9.6 9.6v4.5h9.8l-4.8-4.1.1-3.2m-8.2 11.8v-24h-2.7v26.1h35.6v-2h-32.9m50.4-22.9v11l2.9-1.4v-5.6h5.9l3.4-4zm8.8 20.7.1 4.1h-2.5l-8.8-8.2-2.3 1.8 10.9 10.9 6.9-.5v-12.9zm13.5-12.5-2.2 2.3 1.4 1.4 2.2-2.3zm9.4 2-7.6 6.9-8.3-2.9v4.1h10.4l7.4-6.6zm-13.1-10.2-15.8 16.4 1.9 1.5 15.6-15.5 7.9 3.9v-6.3zm25.9 6v-6.1l-.2.1h-11.5l.1 4.7 6.4 6.3.1 3.2-4.8 4.1h9.9v-4.5l-9.6-9.6c-.6-1.3-.5-2 .4-2.3h7.7v4.2m4.6-7.3v24h-32.9v2h35.6v-26zm-93 48.8v-18.7h-3.1v23.9h5.6c-1.7-1.2-2.6-3.1-2.5-5.2m-1.7 8.1 4.1 4.3h3.4v-4.3zm-4.3-1.1v-27.5h-1.6l.2 28c.6 3.2 2.8 6 5.7 7.4v7.9h1.6v-8.4c-3-1.4-5.2-4.1-5.9-7.4m-5.1.2v-28.2h-24.9v28.6c.1 2.5-.7 5.1-2.1 7.1h29.9c-1.7-2.1-2.7-4.7-2.9-7.5m-29.7 10.9h34.8v7.2h-34.8zm128.9-36.8v18.7c.1 2-.8 4-2.4 5.2h5.6v-23.9zm-5.9 26.8v4.3h3.4l4.1-4.3zm11.9-28.6v27.5c-.7 3.2-2.9 6-5.9 7.4v8.4h1.7v-7.9c3-1.4 5.1-4.2 5.7-7.4l.1-28zm30.1 28.1v-28.6h-24.9v28.2c-.3 2.7-1.3 5.4-2.9 7.6h29.9c-1.5-2.1-2.2-4.6-2.1-7.2m-30.1 10.5h34.9v7.2h-34.9zm38 3.2v6.8h-42.2l-4.6-4.6-.5-8.1c-6.2.3-9.6-2.2-8.8-9h-63.9c.8 6.7-2.6 9.3-8.8 8.9l-.5 8.1-4.6 4.6h-42.3v-6.9l-18.8 13.8h213.7m-239.7 24h266v13.2h-266zm246.8-14.8v7h-227.7v-7l-15.8 11.8h259.3zm-224.6-6.5h221.4v10.7h-221.4zm113.7-266c0 1.6-1.3 2.9-2.9 2.9s-2.9-1.3-2.9-2.9 1.3-2.9 2.9-2.9 2.9 1.4 2.9 2.9m15.8 17.5c0 1.6-1.3 2.9-2.9 2.9s-2.9-1.3-2.9-2.9 1.3-2.9 2.9-2.9 2.9 1.3 2.9 2.9m-32.3 0c0 1.6-1.3 2.9-2.9 2.9s-2.9-1.3-2.9-2.9 1.3-2.9 2.9-2.9 2.9 1.3 2.9 2.9m14.3-.7v-11.2h-1.4v11.2h-10.4v1.4h10.4v11.2h1.4v-11.2h9.9v-1.4zm-.9-28.1c-14 0-26.1 6.4-31.6 15.4v79.8c1.5-1.6 2.9-3.2 4.4-4.8-.7-2.1.5-4.4 2.6-5 .8-.3 1.7-.3 2.5 0 .8-.8 1.7-1.6 2.5-2.3-.3-1.5.1-3 1.2-4-.6-1-.2-2.8.7-3v-2.8c-3.7-3-4.2-8.4-1.2-12.1.6-.7 1.2-1.3 2-1.8-1.2-5.1 5.4-9.6 10.6-7.3l2.5-.5c-2.3-2.2-2.3-5.9-.1-8.2.2-.3.5-.5.8-.7v-10.8h-8.4c-1.8 2.7-5.4 3.4-8.1 1.6s-3.4-5.4-1.6-8.1 5.4-3.4 8.1-1.6c.6.4 1.2 1 1.6 1.6h8.4v-9.3c-2.7-1.8-3.3-5.4-1.5-8.1s5.4-3.3 8.1-1.5 3.3 5.4 1.5 8.1c-.4.6-.9 1.1-1.6 1.6v9.3h7.8c1.8-2.7 5.4-3.4 8.1-1.6s3.4 5.4 1.6 8.1-5.4 3.4-8.1 1.6c-.6-.4-1.1-.9-1.6-1.6h-7.7v10.7h.1c2.6 1.8 3.3 5.4 1.6 8-.3.4-.6.7-.9 1.1l2.2.5c5.2-2.2 11.9 2.2 10.6 7.3 4 2.6 5.1 7.9 2.5 11.9-.5.8-1.1 1.4-1.8 2v2.8c.9.2 1.3 2 .7 3 1 1 1.5 2.5 1.2 3.9.9.8 1.7 1.6 2.6 2.4 2.1-.7 4.3.5 5 2.5.3.8.3 1.7 0 2.5 1.4 1.5 2.9 3 4.3 4.6v-79.7c-5.4-9-17.5-15.3-31.5-15.3zm-15.7 74.5h31.6v2h-31.6zm11.2-18.7c2.5-2.5 6.6-2.5 9.1 0 0-3.8-9.1-3.7-9.1 0m-9.1 2.5 5.7-3.1c-1.7-1.8-6.2-.2-5.7 3.1m-2.2 11.5v-6.5c-2.4.6-3.1 5.5 0 6.5m7.9 1.3v-8.6c-3.2.8-4.2 7.2 0 8.6m15.9-8.7v8.6c4.3-1.3 3.3-7.7 0-8.6m7.9 1v6.5c3.2-1.1 2.5-5.9 0-6.5m-7.9-8.2 5.7 3.1c.6-3.3-3.9-5-5.7-3.1m-52.6-97.5v2.8h3zm-5.4 2.9h3v-2.8zm4.3 66.7v85.3l1.6-2.1v-83.3zm84.3 73.5c-.3-.3-.8-.5-1.3-.5-.4 0-.7.1-1.1.3l2.4 2.8c.7-.7.7-1.9 0-2.6zm-75.8-.6c-.5 0-1 .2-1.3.5-.7.7-.7 1.9 0 2.6l2.4-2.8c-.3-.2-.7-.4-1.1-.3zm-3.5 3.7v2.3l.9-1.1c-.3-.4-.6-.7-.9-1.2m-15.8-90.1v114c1.5-2.1 3-4.3 4.5-6.4-1.8-1.3-2.2-3.8-.9-5.6.7-1 1.9-1.6 3.1-1.7h.7v-88.4c0-.9.7-1.7 1.6-1.8h5.1c.9.1 1.6.8 1.6 1.8v74.5c.1-.2.2-.4.4-.6 1.4-1.7 3.8-2 5.6-.7l.1-.1v-85h.1-21.8zm96.5 91.2.8 1v-2c-.2.4-.4.7-.8 1m-89.9 11.6c-.8 0-1.5.7-1.5 1.5 0 .5.3 1 .7 1.3l1.7-2.4c-.1-.2-.4-.4-.9-.4m101.1.7c-.3-.5-.8-.7-1.3-.7-.4 0-.7.1-1 .4l1.7 2.4c.7-.4 1-1.3.6-2 .1-.1.1-.1 0-.1zm-49.2-167.9v4.4l3.2-2.5zm-7 1.9 3.2 2.5v-4.4zm23.7 36.6 4.1 2v-6.4zm-41.5-4.4v6.4l4.1-2zm-8.1 19.3v1.6c6.7-5.8 14.9-9.5 23.6-10.6l-3.6-3.5v-3.7l-15-15.5h-5.9v28.4c4.4-2.8 9.1-5.1 14-6.8l.1-1.7-5.7 2.5c-1.5.8-2.4.3-2.5-1.4v-13c.4-1.1 1-1.4 2.4-.9l10.4 10.1v5c-6.3 2.4-12.3 5.6-17.8 9.5m42.8-32.5-2.3 2.2 4.3 4.5 2.1-2.3zm5.4-5.8-2.7 2.8 5.7 5 2.7-2.8v-5.1h-5.7m-34.5.1h-5.7v5.1l2.7 2.8 5.7-5zm9.5 1-10.2 9.1 3.3 3.4 10.3-9zm1-12.4h-8.4v8.5l2.4 2.8 2.9-2.2-1.5-1.9c0-1.2.3-2.2 2.1-1.7l8.7 9 4.3-3.8m33.4 150c-.8 0-1.5.7-1.5 1.6s.7 1.6 1.6 1.6 1.6-.7 1.6-1.6c0-.8-.8-1.5-1.7-1.6m-74.2 0c-.9.1-1.6.8-1.6 1.6 0 .9.7 1.6 1.6 1.6s1.6-.7 1.6-1.6-.7-1.6-1.6-1.6m38.6 7.6c0 .8-.7 1.5-1.5 1.5s-1.5-.7-1.5-1.5.7-1.5 1.5-1.5 1.5.7 1.5 1.5zm7.2 5.2c0 .8-.7 1.5-1.5 1.5s-1.5-.7-1.5-1.5.7-1.5 1.5-1.5 1.5.7 1.5 1.5m-16-1.5c-.9 0-1.6.7-1.6 1.6s.7 1.5 1.6 1.5c.8 0 1.5-.7 1.5-1.6 0-.8-.6-1.4-1.5-1.5m-10.3-34.4c-.9 0-1.6.7-1.6 1.6s.7 1.6 1.6 1.6 1.6-.7 1.6-1.6-.7-1.6-1.6-1.6m35.1-.2c-.9-.1-1.6.7-1.6 1.5s.7 1.6 1.6 1.6 1.6-.7 1.6-1.6c0-.8-.7-1.4-1.6-1.5m-17.3.8c-.9 0-1.6.8-1.5 1.6s.8 1.6 1.6 1.5c.9 0 1.6-.7 1.5-1.6.1-.7-.7-1.5-1.6-1.5zm-29.2 22c.8.3 1.4.8 1.9 1.5l1.3-2.5c-1 .6-2.1.9-3.2 1m-14.3 23.1h6.2l1.6-3.7c-2.1 2.1-4.8 3.4-7.8 3.7m-5.3-11.9v-.4c-2.9 4.1-5.7 8.2-8.3 12.3h7.1c-1.8-3.5-2.4-7 2.1-10.1.8-1.7-.7-1.2-.9-1.8m18-2.9c-1.7 0-3.3-1-4-2.7-1.9 1.4-4.6 1-6-.9-.8-1.1-1-2.4-.7-3.7-2 2.5-3.9 5.1-5.7 7.7 1.2 0 2.4.6 3 1.6.5.8 1.3.4 1.8-.1l1.6-1.8c1.3-1.4 2.9-1.2 4.2.5.2 1.1-.3 2.4 1.6 2.7.9-.6 2.1-.8 3.2-.6l1.3-2.7zm-1.5-9c-2.1-1.4-2.6-4.3-1.8-7.5-1.9 2.2-3.7 4.4-5.4 6.6 2.1-1.2 4.7-.4 5.9 1.6.1.2.2.3.2.5.6-.4 1.2-.7 1.9-.8-.2 0-.5-.2-.8-.4m10.3-19.3c-.1-.3-.1-.7-.1-1 0-.1 0-.2 0-.4-1.3 1.4-2.6 2.7-4 4.1 2.4-1.1 5.2.1 6.3 2.5.3.6.4 1.3.4 2 .9-1.4 1.7-2.7 2.6-4.1-2.3.7-4.6-.8-5.2-3.1zm5.8-7.7c-.6.6-1.3 1.8-2 2.5h.4c2.2 0 4 1.6 4.3 3.7 1.3-1.9 2.7-4.3 4.1-6.2zm23.2 50.8c-4.5-2.7-10.1-2.7-14.6 0zm27.8-4.8 2.1 4.8h6.2c-3.2-.6-6.1-2.3-8.3-4.8m21.8 4.8c-2.7-4.1-5.4-8.2-8.3-12.3v.4c-.1.6-1.6 0-.8 1.9 4.4 3.1 3.8 6.5 2.1 10.1h7m-15.6-22.2c.6 2.3-.7 4.7-3 5.3-1.3.4-2.6.1-3.7-.6-.7 1.6-2.3 2.6-4.1 2.6l1.3 2.7c1.1-.2 2.2 0 3.2.6 1.9-.4 1.4-1.6 1.6-2.7 1.3-1.7 2.9-1.9 4.2-.5l1.6 1.8c.5.5 1.3.9 1.8.1.6-1 1.8-1.6 3-1.6-2-2.5-3.9-5.1-5.9-7.6m-15.5-2.1 1.3 2.5c.5-.7 1.1-1.2 1.9-1.5-1.1 0-2.2-.4-3.2-1m8.1-7.2c.9 3.2.3 6.1-1.8 7.5-.3.2-.5.3-.8.4.7.1 1.3.4 1.9.8.9-2.2 3.5-3.3 5.7-2.3.2.1.3.1.5.2-1.8-2.2-3.6-4.4-5.5-6.6m-12-13.1c0 .5-.1.9-.2 1.3-.7 2.3-3.1 3.6-5.4 2.9 1 1.4 1.9 2.9 2.8 4.4 0-.7.1-1.4.4-2 1.1-2.4 3.9-3.5 6.3-2.5-1.2-1.3-2.5-2.7-3.9-4.1m-5.9-6.4h-6.8c1.4 1.8 2.8 4.2 4.2 6.2.2-2.2 2.1-3.9 4.3-3.9-.5-.6-1.1-1.7-1.7-2.3m7.5-92.1-5.7-2.5.1 1.7c4.9 1.7 9.6 4 13.9 6.8v-28.3h-5.8l-15 15.5v3.8l-3.5 3.4c8.7 1.1 16.9 4.8 23.6 10.6v-1.6c-5.5-4-11.5-7.2-17.9-9.6v-5l10.3-10.1c1.4-.5 2.1-.2 2.4.9v13c0 1.7-.9 2.2-2.4 1.4m-9.8-40.4h-7.4l-5 3.7 3.8 3.9 1.9-1.6 3 3.2-8.4 7.4v18.9c-.2 1-1.2 1.6-2.2 1.4-.7-.2-1.2-.7-1.4-1.4v-16.8l-5.8 4.9v11.4l7.9 6.9 6.2-6.3-.2-18.3 7.7-6.8v-10.5m-70.4 11.1h21.9v46.5h-21.9zm-26.8 226.8v25.9h28.9v-25.9zm138-.1v26h28.9v-26zm-40.4-79.5c-2 .4-4-1.6-4.6-4.2s.7-5.3 2.7-5.6c2-.4 4 1.6 4.6 4.2s-.7 5.2-2.7 5.6m-23.6-4.2c-.5 2.6-2.6 4.6-4.6 4.2s-3.2-3-2.7-5.6 2.6-4.6 4.6-4.2h-.1c2.1.4 3.3 3 2.8 5.6m-29.9-137.3h-12.7c-.8 0-1.4.7-1.4 1.4v32.3c0 .8.6 1.4 1.4 1.4h12.7c.8 0 1.4-.7 1.4-1.4v-32.2c.1-.8-.6-1.5-1.4-1.5zm119.2 243.3h-21.7v-18.7h21.7zm-159.7-18.7h21.7v18.7h-21.7zm185.4 84.8h-211.1c-1.6 1.9-1.6 4.8 0 6.7h211.1c1.7-1.9 1.7-4.8 0-6.7m21.5 30h-254c-1.6-2.5-1.6-5.7 0-8.3h254c1.2 2.7 1.5 5.9 0 8.3" fill="#ffd700"/></svg>