<svg height="715" viewBox="0 0 132.29167 189.17709" width="500.00003" xmlns="http://www.w3.org/2000/svg"><g transform="translate(-42.191573 -34.682883)"><path d="m166.50498 135.82367v-41.682525h-58.16756-58.167573v41.682525c0 49.82738 27.66507 74.7411 58.167573 87.67705 30.50249-12.93595 58.16756-37.84967 58.16756-87.67705z"/><g stroke="#000" stroke-width=".443765" transform="matrix(1.1898339 0 0 1.1950721 -8.077693 -6.971529)"><g fill="#fc0"><path d="m52.107414 74.81817 2.665987 7.279661s19.311196-7.240845 43.068077-7.240845c23.756882 0 43.068072 7.240845 43.068072 7.240845l2.66599-7.279661s-20.04358-9.783339-45.734062-9.783339c-25.69048 0-45.734064 9.783339-45.734064 9.783339z"/><path d="m53.309435 72.817193-1.681749-4.614152c-1.554066-4.263828 2.016254-6.175341 2.016254-6.175341l-11.092566-16.092847 1.864268 19.456344s3.962985-.834199 5.51705 3.42963l1.68175 4.614151z"/><path d="m98.743514 64.679226v-4.911077c0-4.53821 4.009036-5.111532 4.009036-5.111532l-4.91107-18.918407-4.911079 18.918407s4.009045.573322 4.009045 5.111532v4.911077z"/><path d="m64.588097 69.174422-1.368149-4.716656c-1.264275-4.35855 2.426332-6.02603 2.426332-6.02603l-9.987022-16.801313.553715 19.53761s4.010052-.566232 5.274327 3.792318l1.368149 4.716656z"/><path d="m75.639528 66.756641-.832768-4.839956c-.769541-4.472489 3.08422-5.717317 3.08422-5.717317l-8.04793-17.81167-1.631977 19.477204s4.048204-.114791 4.817745 4.357698l.832768 4.839956z"/><path d="m87.386751 65.181603-.505923-4.884948c-.46751-4.514065 3.461135-5.497334 3.461135-5.497334l-6.833851-18.311833-2.936041 19.323677s4.046777.157274 4.514288 4.671339l.505922 4.884948z"/><path d="m142.37351 72.817192 1.68175-4.614151c1.55407-4.263829-2.01625-6.175342-2.01625-6.175342l11.09256-16.092846-1.86427 19.456344s-3.96298-.834199-5.51705 3.429629l-1.68175 4.614151z"/><path d="m131.09485 69.174422 1.36815-4.716656c1.26428-4.35855-2.42633-6.02603-2.42633-6.02603l9.98702-16.801313-.55371 19.53761s-4.01005-.566232-5.27433 3.792318l-1.36815 4.716656z"/><path d="m120.04342 66.756641.83277-4.839956c.76954-4.472489-3.08422-5.717317-3.08422-5.717317l8.04793-17.811669 1.63198 19.477203s-4.04821-.114791-4.81775 4.357698l-.83276 4.839956z"/><path d="m108.2962 65.181603.50592-4.884948c.46751-4.514065-3.46114-5.497334-3.46114-5.497334l6.83385-18.311833 2.93605 19.323677s-4.04678.157274-4.51429 4.671339l-.50592 4.884948z"/><path d="m51.269733 72.875136c-.53656.231455-.7842.85397-.55293 1.390613.23145.536565.85396.783688 1.39061.552421 0 0 20.27981-8.724532 45.734065-8.724532 25.454252 0 45.734062 8.724532 45.734062 8.724532.53665.231267 1.15916-.01585 1.39061-.552421.23127-.536643-.0164-1.159158-.55293-1.390613 0 0-20.64489-8.89868-46.571742-8.89868-25.926855 0-46.571745 8.89868-46.571745 8.89868zm4.34754 11.164179c-.5361.233042-1.15971-.01318-1.39268-.549323-.23304-.536104.0127-1.1592.54881-1.392161-.00001 0 19.07348-8.299235 43.068075-8.299235 23.994592 0 43.068082 8.299235 43.068082 8.299235.53613.232961.78184.856057.5488 1.392161-.23296.536141-.85658.782365-1.39268.549323 0 0-18.70489-8.123537-42.224202-8.123537-23.519315 0-42.224205 8.123537-42.224205 8.123537z"/></g><path d="m126.04316 69.414846-12.64118 5.492925-10.02946-8.679267-10.600398 7.691458-11.491395-6.653726-9.944682 9.677131-13.185125-4.327837-4.710517 5.84247 7.22052 1.397146 8.978867-10.4403 12.641184 5.492925 10.029458-8.679267 10.600398 7.691458 11.4914-6.653726 9.94468 9.677131 13.18512-4.327837 4.71052 5.84247-7.22052 1.397146z" fill="none" stroke-linejoin="bevel"/></g><g stroke-width=".529167"><path d="m166.50498 134.82141v-40.680265h-116.335133v40.680265z" fill="#fc0" stroke="#000"/><path d="m107.74725 103.61614a-4.1813617 6.3783479 0 0 1 4.18115 6.37842-4.1813617 6.3783479 0 0 1 -3.14452 6.17895c-.45174-.77419-1.01647-2.00377-1.01647-3.34863 0-1.10978.27894-1.80611.59945-2.61586.32048-.80975.68161-1.73278.68161-3.04581 0-1.58335-1.06335-2.78132-1.90015-3.48092a-4.1813617 6.3783479 0 0 1 .59893-.0661zm-1.03663.19947c.45171.77395 1.01596 2.00293 1.01596 3.3476 0 1.10979-.27946 1.80818-.59996 2.61793-.32049.80976-.68161 1.73071-.68161 3.04374 0 1.58371 1.06378 2.78216 1.90066 3.48196a-4.1813617 6.3783479 0 0 1 -.59842.0662-4.1813617 6.3783479 0 0 1 -4.18165-6.37843-4.1813617 6.3783479 0 0 1 3.14502-6.17895z"/><path d="m88.554446 103.61614a4.1813617 6.3783479 0 0 0 -4.18115 6.37842 4.1813617 6.3783479 0 0 0 3.14452 6.17895c.45174-.77419 1.01647-2.00377 1.01647-3.34863 0-1.10978-.27894-1.80611-.59945-2.61586-.32048-.80975-.68161-1.73278-.68161-3.04581 0-1.58335 1.06335-2.78132 1.90015-3.48092a4.1813617 6.3783479 0 0 0 -.59893-.0661zm1.03663.19947c-.45171.77395-1.01596 2.00293-1.01596 3.3476 0 1.10979.27946 1.80818.59996 2.61793.32049.80976.68161 1.73071.68161 3.04374 0 1.58371-1.06378 2.78216-1.90066 3.48196a4.1813617 6.3783479 0 0 0 .59842.0662 4.1813617 6.3783479 0 0 0 4.18165-6.37843 4.1813617 6.3783479 0 0 0 -3.14502-6.17895z"/><path d="m69.362148 103.61614a4.1813617 6.3783479 0 0 0 -4.18115 6.37842 4.1813617 6.3783479 0 0 0 3.14452 6.17895c.45174-.77419 1.01647-2.00377 1.01647-3.34863 0-1.10978-.27894-1.80611-.59945-2.61586-.32048-.80975-.68161-1.73278-.68161-3.04581 0-1.58335 1.06335-2.78132 1.90015-3.48092a4.1813617 6.3783479 0 0 0 -.59893-.0661zm1.03663.19947c-.45171.77395-1.01596 2.00293-1.01596 3.3476 0 1.10979.27946 1.80818.59996 2.61793.32049.80976.68161 1.73071.68161 3.04374 0 1.58371-1.06378 2.78216-1.90066 3.48196a4.1813617 6.3783479 0 0 0 .59842.0662 4.1813617 6.3783479 0 0 0 4.18165-6.37843 4.1813617 6.3783479 0 0 0 -3.14502-6.17895z"/></g><path d="m30.154297 260.53516v2.38476c.760299-.80442 1.534657-1.52527 2.263672-2.13476a15.803572 24.107142 0 0 0 -2.263672-.25zm3.917969.7539c-1.707251 2.92517-3.839844 7.57013-3.839844 12.65235 0 4.19448 1.056236 6.83402 2.267578 9.89453 1.211301 3.06047 2.576172 6.54127 2.576172 11.5039 0 4.60718-2.3824 8.34088-4.921875 11.02735v2.38281a15.803572 24.107142 0 0 0 15.804687-24.10742 15.803572 24.107142 0 0 0 -11.886718-23.35352z" stroke-width="2" transform="matrix(.26458333 0 0 .26458333 42.191573 34.682883)"/><g stroke-width=".529167"><path d="m98.150598 118.35721a4.1813617 6.3783479 0 0 0 -4.18115 6.37842 4.1813617 6.3783479 0 0 0 3.14452 6.17895c.45174-.77419 1.01647-2.00377 1.01647-3.34863 0-1.10978-.27894-1.80611-.59945-2.61586-.32048-.80975-.68161-1.73278-.68161-3.04581 0-1.58335 1.06335-2.78132 1.90015-3.48092a4.1813617 6.3783479 0 0 0 -.59893-.0661zm1.03663.19947c-.45171.77395-1.01596 2.00293-1.01596 3.3476 0 1.10979.27946 1.80818.59996 2.61793.32049.80976.68161 1.73071.68161 3.04374 0 1.58371-1.06378 2.78216-1.90066 3.48196a4.1813617 6.3783479 0 0 0 .59842.0662 4.1813617 6.3783479 0 0 0 4.181652-6.37843 4.1813617 6.3783479 0 0 0 -3.145022-6.17895z"/><path d="m78.958296 118.35721a4.1813617 6.3783479 0 0 0 -4.18115 6.37842 4.1813617 6.3783479 0 0 0 3.14452 6.17895c.45174-.77419 1.01647-2.00377 1.01647-3.34863 0-1.10978-.27894-1.80611-.59945-2.61586-.32048-.80975-.68161-1.73278-.68161-3.04581 0-1.58335 1.06335-2.78132 1.90015-3.48092a4.1813617 6.3783479 0 0 0 -.59893-.0661zm1.03663.19947c-.45171.77395-1.01596 2.00293-1.01596 3.3476 0 1.10979.27946 1.80818.59996 2.61793.32049.80976.68161 1.73071.68161 3.04374 0 1.58371-1.06378 2.78216-1.90066 3.48196a4.1813617 6.3783479 0 0 0 .59842.0662 4.1813617 6.3783479 0 0 0 4.18165-6.37843 4.1813617 6.3783479 0 0 0 -3.14502-6.17895z"/><path d="m59.765999 118.35721a4.1813617 6.3783479 0 0 0 -4.18115 6.37842 4.1813617 6.3783479 0 0 0 3.14452 6.17895c.45174-.77419 1.01647-2.00377 1.01647-3.34863 0-1.10978-.27894-1.80611-.59945-2.61586-.32048-.80975-.68161-1.73278-.68161-3.04581 0-1.58335 1.06335-2.78132 1.90015-3.48092a4.1813617 6.3783479 0 0 0 -.59893-.0661zm1.03663.19947c-.45171.77395-1.01596 2.00293-1.01596 3.3476 0 1.10979.27946 1.80818.59996 2.61793.32049.80976.68161 1.73071.68161 3.04374 0 1.58371-1.06378 2.78216-1.90066 3.48196a4.1813617 6.3783479 0 0 0 .59842.0662 4.1813617 6.3783479 0 0 0 4.18165-6.37843 4.1813617 6.3783479 0 0 0 -3.14502-6.17895z"/></g><path d="m50.861328 224.72461a15.803572 24.107142 0 0 0 -.240234 4.20312 15.803572 24.107142 0 0 0 11.884765 23.35352c1.707372-2.92611 3.841797-7.57335 3.841797-12.65625 0-4.19448-1.054282-6.82628-2.265625-9.88672-.602414-1.52208-1.242773-3.15116-1.734375-5.01367zm16.650391 0c.364753 1.14253.800211 2.24033 1.257812 3.39648 1.211301 3.06048 2.576172 6.54128 2.576172 11.50391 0 5.98564-4.020594 10.51524-7.183594 13.16016a15.803572 24.107142 0 0 0 2.261719.25 15.803572 24.107142 0 0 0 15.804688-24.10743 15.803572 24.107142 0 0 0 -.244141-4.20312z" stroke-width="2" transform="matrix(.26458333 0 0 .26458333 42.191573 34.682883)"/><g stroke-width=".529167"><path d="m74.84071 94.141269a4.1813617 6.3783479 0 0 0 -.06356 1.112075 4.1813617 6.3783479 0 0 0 3.14451 6.178956c.451742-.7742 1.016476-2.003786 1.016476-3.348637 0-1.109789-.278946-1.806119-.599447-2.615861-.159391-.402717-.328819-.833744-.458889-1.326533zm4.405415 0c.09651.302294.211723.592754.332797.898652.32049.809752.681612 1.730713.681612 3.043742 0 1.583701-1.063782 2.782157-1.90066 3.481957a4.1813617 6.3783479 0 0 0 .598414.0662 4.1813617 6.3783479 0 0 0 4.181657-6.378426 4.1813617 6.3783479 0 0 0 -.0646-1.112075z"/><path d="m94.033013 94.141269a4.1813617 6.3783479 0 0 0 -.06356 1.112075 4.1813617 6.3783479 0 0 0 3.14451 6.178956c.451742-.7742 1.016476-2.003786 1.016476-3.348637 0-1.109789-.278946-1.806119-.599447-2.615861-.159389-.402717-.328817-.833744-.458887-1.326533zm4.405415 0c.09651.302294.211723.592754.332797.898652.32049.809752.681612 1.730713.681612 3.043742 0 1.583701-1.063782 2.782157-1.90066 3.481957a4.1813617 6.3783479 0 0 0 .598414.0662 4.1813617 6.3783479 0 0 0 4.181659-6.378426 4.1813617 6.3783479 0 0 0 -.0646-1.112075z"/><path d="m152.78861 94.141269a4.1813617 6.3783479 0 0 0 -.0636 1.112075 4.1813617 6.3783479 0 0 0 3.14451 6.178956c.45174-.7742 1.01647-2.003786 1.01647-3.348637 0-1.109789-.27894-1.806119-.59944-2.615861-.15939-.402717-.32882-.833744-.45889-1.326533zm4.40541 0c.0965.302294.21173.592754.3328.898652.32049.809752.68161 1.730713.68161 3.043742 0 1.583701-1.06378 2.782157-1.90066 3.481957a4.1813617 6.3783479 0 0 0 .59842.0662 4.1813617 6.3783479 0 0 0 4.18165-6.378426 4.1813617 6.3783479 0 0 0 -.0646-1.112075z"/><path d="m128.11988 103.61614a-4.1813617 6.3783479 0 0 0 -4.18115 6.37842-4.1813617 6.3783479 0 0 0 3.14452 6.17895c.45174-.77419 1.01647-2.00377 1.01647-3.34863 0-1.10978-.27894-1.80611-.59945-2.61586-.32048-.80975-.68161-1.73278-.68161-3.04581 0-1.58335 1.06335-2.78132 1.90015-3.48092a-4.1813617 6.3783479 0 0 0 -.59893-.0661zm1.03663.19947c-.45171.77395-1.01596 2.00293-1.01596 3.3476 0 1.10979.27946 1.80818.59996 2.61793.32049.80976.68161 1.73071.68161 3.04374 0 1.58371-1.06378 2.78216-1.90066 3.48196a-4.1813617 6.3783479 0 0 0 .59842.0662-4.1813617 6.3783479 0 0 0 4.18165-6.37843-4.1813617 6.3783479 0 0 0 -3.14502-6.17895z"/><path d="m147.31218 103.61614a-4.1813617 6.3783479 0 0 0 -4.18115 6.37842-4.1813617 6.3783479 0 0 0 3.14452 6.17895c.45174-.77419 1.01647-2.00377 1.01647-3.34863 0-1.10978-.27894-1.80611-.59945-2.61586-.32048-.80975-.68161-1.73278-.68161-3.04581 0-1.58335 1.06335-2.78132 1.90015-3.48092a-4.1813617 6.3783479 0 0 0 -.59893-.0661zm1.03663.19947c-.45171.77395-1.01596 2.00293-1.01596 3.3476 0 1.10979.27946 1.80818.59996 2.61793.32049.80976.68161 1.73071.68161 3.04374 0 1.58371-1.06378 2.78216-1.90066 3.48196a-4.1813617 6.3783479 0 0 0 .59842.0662-4.1813617 6.3783479 0 0 0 4.18165-6.37843-4.1813617 6.3783479 0 0 0 -3.14502-6.17895z"/><path d="m118.52373 118.35721a-4.1813617 6.3783479 0 0 0 -4.18115 6.37842-4.1813617 6.3783479 0 0 0 3.14452 6.17895c.45174-.77419 1.01647-2.00377 1.01647-3.34863 0-1.10978-.27894-1.80611-.59945-2.61586-.32048-.80975-.68161-1.73278-.68161-3.04581 0-1.58335 1.06335-2.78132 1.90015-3.48092a-4.1813617 6.3783479 0 0 0 -.59893-.0661zm1.03663.19947c-.45171.77395-1.01596 2.00293-1.01596 3.3476 0 1.10979.27946 1.80818.59996 2.61793.32049.80976.68161 1.73071.68161 3.04374 0 1.58371-1.06378 2.78216-1.90066 3.48196a-4.1813617 6.3783479 0 0 0 .59842.0662-4.1813617 6.3783479 0 0 0 4.18165-6.37843-4.1813617 6.3783479 0 0 0 -3.14502-6.17895z"/><path d="m137.71603 118.35721a-4.1813617 6.3783479 0 0 0 -4.18115 6.37842-4.1813617 6.3783479 0 0 0 3.14452 6.17895c.45174-.77419 1.01647-2.00377 1.01647-3.34863 0-1.10978-.27894-1.80611-.59945-2.61586-.32048-.80975-.68161-1.73278-.68161-3.04581 0-1.58335 1.06335-2.78132 1.90015-3.48092a-4.1813617 6.3783479 0 0 0 -.59893-.0661zm1.03663.19947c-.45171.77395-1.01596 2.00293-1.01596 3.3476 0 1.10979.27946 1.80818.59996 2.61793.32049.80976.68161 1.73071.68161 3.04374 0 1.58371-1.06378 2.78216-1.90066 3.48196a-4.1813617 6.3783479 0 0 0 .59842.0662-4.1813617 6.3783479 0 0 0 4.18165-6.37843-4.1813617 6.3783479 0 0 0 -3.14502-6.17895z"/><path d="m156.90833 118.35721a-4.1813617 6.3783479 0 0 0 -4.18115 6.37842-4.1813617 6.3783479 0 0 0 3.14452 6.17895c.45174-.77419 1.01647-2.00377 1.01647-3.34863 0-1.10978-.27894-1.80611-.59945-2.61586-.32048-.80975-.68161-1.73278-.68161-3.04581 0-1.58335 1.06335-2.78132 1.90015-3.48092a-4.1813617 6.3783479 0 0 0 -.59893-.0661zm1.03663.19947c-.45171.77395-1.01596 2.00293-1.01596 3.3476 0 1.10979.27946 1.80818.59996 2.61793.32049.80976.68161 1.73071.68161 3.04374 0 1.58371-1.06378 2.78216-1.90066 3.48196a-4.1813617 6.3783479 0 0 0 .59842.0662-4.1813617 6.3783479 0 0 0 4.18165-6.37843-4.1813617 6.3783479 0 0 0 -3.14502-6.17895z"/><path d="m133.59653 94.141269a4.1813617 6.3783479 0 0 0 -.0636 1.112075 4.1813617 6.3783479 0 0 0 3.14451 6.178956c.45174-.7742 1.01647-2.003786 1.01647-3.348637 0-1.109789-.27894-1.806119-.59944-2.615861-.15939-.402717-.32882-.833744-.45889-1.326533zm4.40541 0c.0965.302294.21173.592754.3328.898652.32049.809752.68161 1.730713.68161 3.043742 0 1.583701-1.06378 2.782157-1.90066 3.481957a4.1813617 6.3783479 0 0 0 .59842.0662 4.1813617 6.3783479 0 0 0 4.18165-6.378426 4.1813617 6.3783479 0 0 0 -.0646-1.112075z"/><path d="m114.40423 94.141269a4.1813617 6.3783479 0 0 0 -.0636 1.112075 4.1813617 6.3783479 0 0 0 3.14451 6.178956c.45174-.7742 1.01647-2.003786 1.01647-3.348637 0-1.109789-.27894-1.806119-.59944-2.615861-.15939-.402717-.32882-.833744-.45889-1.326533zm4.40541 0c.0965.302294.21173.592754.3328.898652.32049.809752.68161 1.730713.68161 3.043742 0 1.583701-1.06378 2.782157-1.90066 3.481957a4.1813617 6.3783479 0 0 0 .59842.0662 4.1813617 6.3783479 0 0 0 4.18165-6.378426 4.1813617 6.3783479 0 0 0 -.0646-1.112075z"/></g><path d="m469.84375 260.53516a15.803572 24.107142 0 0 0 -15.80273 24.10742 15.803572 24.107142 0 0 0 11.88476 23.35351c1.70737-2.92607 3.8418-7.57331 3.8418-12.65625 0-4.19444-1.05425-6.82624-2.26563-9.88672-1.21126-3.06047-2.57617-6.54908-2.57617-11.51171 0-4.60607 2.38108-8.33789 4.91992-11.02344v-2.38281a15.803572 24.107142 0 0 0 -.00195 0zm.00195 45.83007c-.76043.80463-1.53463 1.52514-2.26367 2.13477a15.803572 24.107142 0 0 0 2.26172.25 15.803572 24.107142 0 0 0 .00195 0z" stroke-width="2" transform="matrix(.26458333 0 0 .26458333 42.191573 34.682883)"/><path d="m166.50498 135.82367v-41.682525h-58.16756-58.167573v41.682525c0 49.82738 27.66507 74.7411 58.167573 87.67705 30.50249-12.93595 58.16756-37.84967 58.16756-87.67705z" fill="none" stroke="#000" stroke-width=".661458"/><g fill="#fff"><path d="m-40.188007 177.34366h16.056587v16.056587h-16.056587z" transform="matrix(.70710678 -.70710678 .70710678 .70710678 0 0)"/><path d="m-73.062157 210.2178h16.056587v16.056587h-16.056587z" transform="matrix(.70710678 -.70710678 .70710678 .70710678 0 0)"/><path d="m210.2178 24.131432h16.056587v16.056587h-16.056587z" transform="matrix(.70710678 .70710678 -.70710678 .70710678 0 0)"/><path d="m177.34366 57.005569h16.056587v16.056587h-16.056587z" transform="matrix(.70710678 .70710678 -.70710678 .70710678 0 0)"/><path d="m321.5332 456.70312-70.5332 70.53321 9.89844 9.89844 70.5332-70.53321zm-82.43164 82.43165-90.4375 90.4375a7.0000063 7.0000063 0 0 0 0 9.89843 7.0000063 7.0000063 0 0 0 9.89844 0l90.4375-90.4375z" transform="matrix(.26458333 0 0 .26458333 42.191573 34.682883)"/><path d="m130.1789 158.10878c3.0909-2.32131 5.03006-2.59568 8.62657.60849 3.59652 3.20417 6.17372 6.90837 7.92409 10.93086.65363-3.20382-.82288-6.43641-3.0136-9.61823-2.19072-3.18183-5.29017-6.50317-8.56557-9.77858-3.2754-3.27539-6.59674-6.37485-9.77857-8.56556-3.18183-2.19072-6.41441-3.66723-9.61823-3.01361 4.02249 1.75038 7.72668 4.32757 10.93085 7.92409 3.20417 3.59651 2.92981 5.53568.6085 8.62658z"/><path d="m89.410929 155.51893 45.738291 45.7383a1.852085 1.852085 0 0 1 0 2.61896 1.852085 1.852085 0 0 1 -2.61896 0l-45.738293-45.7383z"/><path d="m86.495927 158.10878c-3.0909-2.32131-5.03006-2.59568-8.62657.60849-3.59652 3.20417-6.17372 6.90837-7.92409 10.93086-.65363-3.20382.82288-6.43641 3.0136-9.61823 2.19072-3.18183 5.29017-6.50317 8.56557-9.77858 3.2754-3.27539 6.59674-6.37485 9.77857-8.56556 3.18183-2.19072 6.41441-3.66723 9.618233-3.01361-4.022493 1.75038-7.726683 4.32757-10.930853 7.92409-3.20417 3.59651-2.92981 5.53568-.6085 8.62658z"/></g></g></svg>