<svg height="103.63193mm" viewBox="0 0 120.06111 103.63192" width="120.06111mm" xmlns="http://www.w3.org/2000/svg" xmlns:xlink="http://www.w3.org/1999/xlink"><linearGradient id="a" gradientUnits="userSpaceOnUse" x1="2787.8" x2="18194" y1="9221.2002" y2="9221.2002"><stop offset="0" stop-color="#b2b3b3"/><stop offset=".12941" stop-color="#c9caca"/><stop offset=".6" stop-color="#d9dada"/><stop offset=".76078" stop-color="#ebecec"/><stop offset="1" stop-color="#9d9e9e"/></linearGradient><g fill="#edc102" stroke="#000" stroke-width=".392651" transform="matrix(-.17925774 .27083808 .34158663 .15791325 -585.512212 229.196241)"><g stroke-width="1.68281" transform="matrix(.96369281 .26701344 -.26701344 .96369281 -221.864013 222.141565)"><path d="m-961.55528 1230.5358c-4.63354 8.4108-19.14298 23.6405-8.76056 28.8374 11.12302-2.3068 3.65671-17.4359 8.76056-28.8374z"/><path d="m-992.27711 1236.7467c4.35329 8.5837 8.78158 29.1381 18.94837 23.5941 4.36767-10.4232-12.38267-12.9224-18.94837-23.5941z"/><path d="m-945.14631 1167.9231c.0583-9.4002-5.29574-28.9256 6.5579-29.3137 8.77417 6.6098-5.42846 17.0527-6.5579 29.3137z"/><path d="m-969.4606 1149.81c8.1626-5.877 22.35896-22.4036 28.66638-13.2968-1.29864 11.0869-17.48909 6.4622-28.66638 13.2968z"/></g><g stroke-width="1.79883" transform="matrix(.98088729 .19457677 -.19457677 .98088729 -296.243198 148.776097)"><path d="m-960.2355 1235.1557c-4.95324 9.0235-20.44446 25.3712-9.38746 30.9278 11.8594-2.4888 3.92775-18.6975 9.38746-30.9278z"/><path d="m-992.99093 1241.858c4.62502 9.196 9.30919 31.2252 20.15501 25.2672 4.67336-11.1805-13.17553-13.836-20.15501-25.2672z"/><path d="m-925.94731 1135.4622c1.61024-10.0118-.7842-31.6472 11.70452-30.2428 8.10771 8.3918-8.50017 17.3457-11.70452 30.2428z"/><path d="m-948.4481 1112.4241c9.52434-5.0129 27.12814-20.453 32.23871-9.7777-3.18824 11.6196-19.39669 4.2065-32.23871 9.7777z"/></g><g stroke-width="1.90016" transform="matrix(.99915667 .04106033 -.04106033 .99915667 -465.726406 -6.716566)"><path d="m-962.59282 1242.125c-5.23225 9.5317-21.59608 26.8003-9.91624 32.6699 12.52743-2.629 4.14899-19.7507 9.91624-32.6699z"/><path d="m-997.19335 1249.2048c4.88551 9.7139 9.83358 32.984 21.29034 26.6904 4.9366-11.8102-13.91774-14.6153-21.29034-26.6904z"/><path d="m-895.61971 1115.4128c4.93265-9.6735 9.74369-32.4121 21.7109-27.0854 5.28157 11.0611-14.23153 14.9769-21.7109 27.0854z"/><path d="m-910.3609 1084.971c11.14977-2.1216 33.81152-12.3192 35.34966.1272-7.03843 10.815-20.71093-1.7805-35.34966-.1272z"/></g><g stroke-width="1.98873" transform="translate(-512.54901 -27.391356)"><path d="m-962.15894 1247.9847c-5.47615 9.9761-22.60278 28.0497-10.37849 34.1929 13.11139-2.7515 4.3424-20.6714 10.37849-34.1929z"/><path d="m-998.37232 1255.3946c5.11324 10.1668 10.29191 34.5217 22.28272 27.9346 5.16674-12.3608-14.56644-15.2966-22.28272-27.9346z"/><path d="m-868.82246 1087.7398c5.99753-9.7025 13.03401-33.0712 25.01555-26.5116 4.51087 11.9993-16.14989 14.475-25.01555 26.5116z"/><path d="m-881.45077 1054.6988c11.79526-1.2936 36.29387-10.0744 36.78442 3.0626-8.29126 10.7212-21.39931-3.5775-36.78442-3.0626z"/></g><g stroke-width="2.19423"><g transform="matrix(.98917347 -.14675098 .14675098 .98917347 -698.448289 -139.98515)"><path d="m-965.46755 1248.5637c-6.042 11.0069-24.93835 30.948-11.4509 37.726 14.4662-3.0359 4.7911-22.8074 11.4509-37.726z"/><path d="m-1005.4229 1256.7392c5.6416 11.2173 11.3554 38.0887 24.58525 30.8211 5.7006-13.638-16.07165-16.8772-24.58525-30.8211z"/><path d="m-834.33138 1084.6494c9.53957-8.4538 24.73735-31.0948 35.12472-20.4449.72563 14.1255-21.79381 10.396-35.12472 20.4449z"/><path d="m-836.54738 1045.6901c12.81632 2.2564 41.4724.4739 37.59701 14.57-12.28823 8.8292-21.27185-10.3824-37.59701-14.57z"/></g><path d="m-1482.1741 1118.6482c-6.1998 10.9187-25.3813 30.5857-11.993 37.5572 14.5086-2.8273 5.1191-22.7361 11.993-37.5572z"/><path d="m-1476.3661 1108.5242c6.4546-10.785 13.8218-36.6519 27.1615-29.597 5.1857 13.1624-17.5807 16.1965-27.1615 29.597z"/></g></g><g fill-rule="evenodd" stroke="#000" transform="translate(-45.355668 -92.000852)"><path d="m65.587168 144.50949.58839-9.85998-9.225291-6.74447.126414 2.36197.08113 3.50052-.07173 3.51579.08113 3.57695-.07173 3.50052.05056 3.50051-.01059 3.48523-.02587 3.45466.0047 3.76038c.03833 30.67467 19.043194 25.84235 31.447434 24.32186-6.243992-4.12306-7.85015-1.51208-13.128975-5.15131-4.931091-3.39902-7.496103-12.00619-7.876782-18.664z" fill="url(#a)" stroke-width=".431231"/><path d="m88.561909 182.88352c-12.710122.34974-32.315415.24371-31.639436-22.99975l.255978-8.80176c.113605.0268-6.679348-3.82181-6.679348-3.82181l-4.540408-2.54499-.138876 13.42367c-.298358 28.839 33.454589 32.23906 42.742131 24.74464z" fill="#fff" stroke-width=".431361"/><g stroke-width=".924396"><path d="m65.587168 144.5311.58839-9.85998-9.225291-6.74446.126414 2.36197.08113 3.50051-.07173 3.5158.08113 3.57695-.07173 3.50051.05056 3.50052-.01059 3.48522-.02587 3.45466.0047 3.76039c.03833 30.67467 19.043194 25.84235 31.447434 24.32186-6.243992-4.12306-7.85015-1.51208-13.128975-5.15131-4.931091-3.39902-7.496103-12.0062-7.876782-18.664z" fill="url(#a)"/><path d="m88.561909 182.90513c-12.710122.34975-31.204088.37548-31.333711-22.87746l-.04975-8.92405c.113605.0268-6.679348-3.8218-6.679348-3.8218l-4.540408-2.54499-.138876 13.42367c-.298358 28.839 33.454589 32.23906 42.742131 24.74463z" fill="#fff"/><path d="m145.18523 144.5309-.58839-9.85998 9.22529-6.74447-.12641 2.36197-.0811 3.50052.0717 3.51579-.0811 3.57695.0717 3.50052-.0505 3.50051.0106 3.48523.0259 3.45466-.005 3.76038c-.0383 30.67467-19.04319 25.84235-31.44743 24.32186 6.24399-4.12306 7.85014-1.51208 13.12897-5.15131 4.93109-3.39902 7.4961-12.00619 7.87678-18.664z" fill="url(#a)"/><path d="m122.21049 182.90493c12.71012.34974 31.20409.37547 31.33371-22.87746l.0498-8.92405c-.11361.0268 6.67935-3.82181 6.67935-3.82181l4.5404-2.54499.13888 13.42367c.29836 28.839-33.45459 32.23906-42.74213 24.74464z" fill="#fff"/></g></g><g transform="translate(-45.355668 -92.000852)"><path d="m93.022196 173.50561v241.61077c0 34.89507 31.722124 63.17873 70.859434 63.17873h35.71602c15.5633 0 34.23104 21.12218 35.94546 33.33547 1.71442-12.21329 19.92327-33.33547 35.48657-33.33547h35.71602c39.1373 0 70.85943-28.28366 70.85943-63.17873v-241.61077z" fill="#5dafef" transform="matrix(.29366305 0 0 .2251193 36.343291 79.791954)"/><g fill="#fff" transform="matrix(31.75000008 0 0 31.75000008 661.43289 945.234608)"><g fill="#cf142b" stroke="#000" stroke-linecap="round" stroke-width="1.32977" transform="matrix(.02188577 .00062106 -.00062106 .02188577 45.2156 -44.844239)"><path d="m-2924.5066 942.50407s1.5491 1.28441 2.3305 1.91814c.6449.52305 1.3002 1.03338 1.9462 1.55507.6819.55066 2.0372 1.66248 2.0372 1.66248l1.5211 1.30316.9548.72526.5279.44691 1.6053 1.32539 1.4016 1.07727 2.2323 1.84489-1.9602-1.57263-.2721-.27226.2721.27226 1.9602 1.57263 1.1608.99766 1.2739 33.31807-16.3933-8.6973-.034-7.21731-.061-1.66296-.05-1.8188-.014-1.70844-.03-.88075-.043-.95736-.022-1.00194-.013-.69422-.033-1.02361-.015-.77115-.031-.9357-.031-.93569-.013-.77447-.039-.86044.039.86044-.039-.86044-.012-.9364-.042-.8045-.03-1.2699-.021-.92795-.044-1.38918-.015-.71035-.034-1.13756-.014-.69481-.027-.8811-.055-1.33141z"/><path d="m-2754.5282 937.68021s-1.4738 1.37019-2.218 2.04722c-.6143.55878-1.2395 1.10545-1.8549 1.66294-.6496.58843-1.9397 1.77533-1.9397 1.77533l-1.4447 1.38732-.9121.77824-.5018.47612-1.5275 1.4143-1.3382 1.15502-2.1241 1.96851 1.8678-1.68125.2563-.28726-.2563.28726-1.8678 1.68125-1.1024 1.06189.6176 33.33672 15.8737-9.61299-.3756-7.2076-.034-1.66372-.053-1.81874-.083-1.70648-.02-.881-.012-.95823-.035-1.00157-.026-.69382-.025-1.02386-.029-.77078-.022-.93594-.022-.93594-.031-.77396-.01-.86125.01.86125-.01-.86125-.041-.93558v-.80559l-.042-1.26959-.032-.92763-.035-1.38944-.025-.71004-.031-1.13767-.025-.69448-.023-.88123-.02-1.33241z"/></g><g fill="#fff" fill-rule="evenodd" transform="matrix(.00158674 0 0 .00158674 .165202 3.006826)"><path d="m1189.3114-1236.1162 72.6375-1.0447 13.8484-68.6233 34.0026 68.9115 73.0726 1.9222-51.6229 43.6344 31.3124 69.811-65.9073-41.9442-53.7202 41.2235 10.8902-69.5571z"/><path d="m3054.3634-1231.5307-72.6375-1.0446-13.8484-68.6234-34.0026 68.9115-73.0726 1.9222 51.6229 43.6344-31.3124 69.811 65.9073-41.9442 53.7202 41.2235-10.8902-69.557z"/><path d="m-12164.287-18021.073-39.719 21.504-33.509-36.51 7.713 51.255-38.828 23.398 44.486 10.172 9.512 50.971 19.78-44.969 44.707 8.104-32.262-37.964z"/><path d="m-10119.402-18021.066 39.717 21.503 33.509-36.508-7.713 51.253 38.827 23.397-44.485 10.174-9.512 50.967-19.779-44.967-44.706 8.104 32.261-37.963z"/></g></g><g stroke-width=".264583" transform="translate(590.85257 338.614624)"><text x="-142.19212" y="34.713886"><tspan stroke-width=".264583" x="-142.19212" y="34.713886"/></text><text transform="matrix(.9990495 .04359016 -.04359016 .9990495 0 0)" x="-150.91364" y="55.623936"><tspan stroke-width=".264583" x="-150.91364" y="55.623936"/></text></g><path d="m64.62101 119.71917h81.774826v24.790318h-81.774826z" fill="#5dafef" stroke="#000" stroke-linecap="square" stroke-linejoin="bevel" stroke-width="1.51509"/><g fill-rule="evenodd" transform="matrix(.39644635 0 0 .39886001 -737.960073 161.181751)"><path d="m2126.4405 70.005776.223-109.630643.064-.316338-102.5276-.20625c5.8764 21.489998-12.5448 70.392658 7.4494 91.382847 27.6603 25.190779 64.6183 9.674558 94.7914 18.77038z" fill="#fff"/><g fill="#002a8f" stroke="#000" stroke-miterlimit="10.433" stroke-width=".75443"><path d="m2022.4176-36.612292-.1215 4.604872.082 2.524174.056 4.349061-.1019 5.703519.087 5.285567.047 5.5829044-1.1698 6.8653979 51.6418-38.3074813-50.508-.494971z"/><path d="m2126.5042-40.025561v39.28304286l-79.5596 61.47963714c-2.7413-1.233833-11.7993-5.910221-15.2953-9.501727-2.0539-2.286933-2.9925-3.796565-3.9391-5.122149-.9465-1.325584-1.5858-2.317026-1.9573-3.123256-.3715-.806226-1.1375-1.781322-1.4662-2.510181s-.2995-1.173154-.7322-2.381613c0 0 102.9497-78.27138 102.9497-78.123754z"/><path d="m2101.1779 66.732779.6307.03319 1.3593.08957 2.2574.366584 2.6573.678169 2.256.901971 3.3288 1.421934 2.3518 1.358012 2.5412 1.681849 3.9452 3.229966 3.9986 4.248465.013-44.771213-33.0018 30.737314 3.0789.02467 3.4568.0061z"/></g></g><path d="m131.89183 167.64712 13.07198 3.0424.0268-.11373.0268-.11373-.44408-.25575-.44409-.25575-.20174-.6239-.20175-.6239-.0563-.80618-.0563-.80618-.16337-.23849-.16338-.23849-.57232-.37168-.57231-.37168-.32932-.19849-.32931-.19849-.29574-.0815-.29572-.0815-.60782-1.16796-.60781-1.16796-.85117-.90481-.85116-.9048-1.13651-.77537-1.1365-.77536-.68118-.30832-.68119-.30831-.1859-.37052-.18591-.37052-1.35229-.83289-1.35229-.8329.0247-.27501.0246-.27502-.0199-.0115-.0199-.0115-.86765-.31677-.86764-.31676-1.31145-.56614-1.31145-.56614-.0366-.01-.0366-.01.10161-.1017.10161-.10169.87297.20571.87297.2057.12707-.18661.12707-.18661-.17197-.20089-.17197-.20088-.27483-.0648-.27482-.0647.0179-.0762.0179-.0762.23198-.0981.23199-.0981-.029-.21346-.029-.21346-.27368-.0645-.27368-.0645-.50805.19438-.50803.19438-.64825-.15275-.64824-.15276-.11662.17126-.11662.17126-.0398.16881-.0398.1688.18847.0444.18846.0444-.0861.13677-.0861.13677-.39925-.12106-.39926-.12105-1.6867-.48239-1.68671-.48239-.71019-.009-.71018-.009-.85083.0508-.85083.0508-.22262.34128-.22263.34127-.29949.36917-.29949.36916-.40194-.0549-.40193-.0549-.20018.25848-.20017.25848-1.08397-.24626-1.08397-.24627-2.01864-.45344-2.01865-.45346-.4005.47101-.40051.47099-.0873.35635-.0873.35635.74643 1.36173.74643 1.36173.14435 1.77234.14436 1.77234.22964.58503.22966.58503.24955.3729.24956.3729 3.58987.85186 3.58987.85185 13.07199 3.0424zm-19.6011-5.07652-.34515-.25096-.35068-.57262-.35068-.5726-.17251-.79503-.17251-.79504.0302-.68334.0302-.68334-.27562-1.19626-.27564-1.19626-.061-.56357-.061-.56358.0121-.0512.0121-.0512 2.45984.62456 2.45984.62456 2.99366 1.42498 2.99365 1.42497.79038.3781.79038.3781.45001.22302.45.22302 2.48994 1.16329 2.48995 1.16329 2.14959 1.00811 2.14959 1.00812.62932.26181.62933.2618 2.39344.77307 2.39344.77306 1.72508.4103 1.72508.4103.39531.002.3953.002.0559.68002.0559.68002.15013.65234.15015.65234-.12208.0755-.12209.0755-6.0137-1.38331-6.01371-1.38332-9.38417-2.18109-9.38417-2.18109zm29.08412 5.91722.69942.12692.0814-.5083.0815-.50829-.39943-.1352-.39944-.1352-.4123-.019-.4123-.0189-.0935.39663-.0935.39664.12432.13891.12432.1389zm-13.29161-4.88548.077-.077.18115-.40909.18115-.40909-.70161-.31811-.70162-.31811-.0433.03-.0433.0299-.19388.46507-.19388.46505.57774.285.57775.28501.10292.0243.10292.0243zm-1.72294-1.20598.16205-.35444.0347-.14724.0347-.14723-.64573-.29584-.64573-.29584-.10782.0695-.10782.0695-.17766.4055-.17768.40551.5799.28606.57989.28606.15459.0364.15458.0364zm-1.96396-.73098.13431-.24984.0638-.2628.0638-.26281-.42017-.21623-.4202-.21623-.24957-.12199-.24957-.12198-.0988.18368-.0988.18369-.14762.30558-.1476.30558.42102.2174.42102.21739.29718.14423.29719.14425zm-1.82469-1.16004.24349-.45403-.27746-.18768-.27745-.18768-.49755-.19164-.49754-.19162-.0938.30908-.0938.30907-.0559.1928-.0559.1928.55822.29695.55822.29695.12296.0345.12295.0345zm13.50275 4.45438-1.63448-.52826-2.04439-.92135-2.0444-.92137-2.14908-1.01027-2.14908-1.01027-.73581-.34311-.7358-.34311-1.13275-.52473-1.13274-.52473-1.35559-.64538-1.3556-.64538-1.30217-.60548-1.30218-.60548-1.11541-.52369-1.11541-.52369-2.25102-.53043-2.25102-.53043-.0656-.33008-.0656-.33008.056-.0177.056-.0177 2.84069.74119 2.84069.74119 1.63587.78889 1.63588.78889 1.35804.635 1.35804.635 2.94068 1.38318 2.94068 1.38318 2.14977 1.00738 2.14977 1.00738 1.07799.49047 1.078.49046 2.57267.81224 2.57267.81224 1.3161.41062 1.31611.41063.16487.23584.16487.23584.28277.13294.28277.13293-2.60918-.65728-2.60918-.65728zm1.53653-.65568-1.51776-.49039-.49152-.18014-.49152-.18014.32084-1.36155.32084-1.36155-.71418-.16829-.71418-.16829-.31042 1.31735-.31042 1.31734-.19357-.11161-.19357-.11162-1.9235-.90118-1.92351-.90119-.56531-.2669-.56529-.26691-.19484-.10623-.19484-.10623.43285-1.83694.43286-1.83694-.71418-.16829-.71418-.16829-.40524 1.71974-.40524 1.71974-.30325-.1793-.30326-.1793-1.81528-.82731-1.81528-.82732-.1529-.0901-.15291-.0901.26947-.77777.26947-.77777.028-.0123.028-.0123 1.46292.45649 1.46292.4565.26506-.00092.26507-.00093.6123-.83151.6123-.83152.12529-.0899.12529-.0899 1.00325.4076 1.00326.4076.63818.22422.63818.22423-.0236.26247-.0236.26248 1.12455.66384 1.12455.66385.2711.15948.27109.15948.10829.38427.10829.38427.78948.36086.78949.36085.98785.60645.98784.60646.82404.76846.82403.76846.35445.54074.35445.54073.34381.6778.34382.67781-.6362-.14897-.6362-.14896-1.51776-.49039zm.0159-1.56848.0334-.47264-.17056-.27573-.17057-.27572-.65193-.25009-.65193-.25009-.0734.0454-.0735.0454-.13334.56586-.13334.56585.31222.14131.31221.1413.68367.24586.68366.24586zm-4.2501-1.30362.15526-.34528.14811-.33041.14811-.3304-.31925-.14301-.31924-.14301-.63713-.22869-.63712-.22869-.19442-.10801-.19442-.10801-.0879.37293-.0879.37294.0772.29262.0772.29262.15511.18776.1551.18775.51795.20128.51795.20127.18504.10082.18504.10081zm-3.25575-3.4648.0613-.2602-.103-.24365-.10299-.24365-.44158-.21508-.44158-.21507-.1098.0367-.0419.06-.0421.39697-.0827.48777.13786.0815.5526.18751.5526.1875zm-20.30944-3.03939.10823-.15893.0468.011.0468.011-.0577.24509-.0577.24508-.0973-.0972-.0973-.0972zm-.18157-.9282.26322-.30493-.0856.36722-.0856.36722-.1005.0622-.10051.0622-.077-.12442-.077-.12442.26322-.30493zm9.43185 2.1138-1.81066-.84691-.42811-.18262-.42812-.18261.0245-.1039.0245-.1039.11662-.17125.11661-.17126.31502.0723.31503.0723.13963-.0594.13964-.0594.29069-.37174.2907-.37174.17591-.36638.1759-.36637.18838.0444.18838.0444.64743-.0348.64743-.0348.72474-.00005.72473-.00005 1.13539.37046 1.13539.37046.8804.25442.8804.25443.42171-.26087.42171-.26087-.0863-.17425-.0862-.17424.34534.0682.34534.0682.48701-.21759.487-.21759.0897.0211.0897.0211-.41438.26877-.41439.26878.26801.11936.268.11936-.43394-.0852-.43394-.0852-.38776.23986-.38775.23986-.0251.10653-.0251.10654.13799.0809.13799.0809.30318.14511.30317.1451-.5932.81912-.59321.81913-1.79094-.48604-1.79094-.48604-.12745.23689-.12746.23689-.1662.69725-.16619.69724-.42782-.18392-.42782-.18389-1.81066-.84691zm.34175-1.58351.22113-.005.11395-.48357.11395-.48357-.57009-.0544-.57008-.0544-.16193-.0382-.16193-.0381-.0678.28784-.0678.28783.0279.20531.0279.20531.43688.0884.43688.0884zm5.48534.71957.14901-.37321-.11301-.11894-.11301-.11894-.56496-.13503-.56498-.13503-.0947.40173-.0947.40173.35444.16204.35444.16205.26918.0634.26919.0634zm-3.87717-.59568.34295.0281.0241-.45674.0241-.45674-.0147-.0318-.0147-.0318-.63514-.0724-.63515-.0724-.10828.45954-.10829.45954.39105.0733.39104.0733zm2.05159.36833.10262-.0635.0935-.39677.0935-.39677-.65466-.15426-.65466-.15426-.0982.4166-.0982.4166.40687.0959.40687.0959.14984.10204.14984.10203z" stroke="#000" stroke-width=".12229"/><g fill="#fff" stroke="#fff" stroke-linecap="square" stroke-linejoin="bevel"><g stroke-width=".102831"><path d="m112.33784 162.49077c-.24045-.17168-.37871-.34146-.66286-.81398-.31877-.53008-.37703-.68034-.51938-1.33952-.12811-.59322-.15526-.88291-.13509-1.44119.0229-.6346-.00033-.81258-.25325-1.93883-.15316-.68206-.30103-1.46713-.32859-1.74462l-.12809-.61709 2.47368.72007 2.39571.6075 3.74878 1.7849c2.06183.9817 4.00916 1.91348 4.3274 2.07062 1.15986.57272 9.48508 4.45316 10.21203 4.75989.41286.1742 1.82343.66261 3.1494 1.09048 2.08913.67412 2.62968.82842 4.1542 1.18584 1.26303.2962 1.84416.41058 2.0805.40979l.32793-.00093.0457.60506c.0251.33277.11182.90448.1927 1.27044.10251.46387.12522.67888.075.70994-.0813.0503-15.15046-3.39807-24.98274-5.71701l-5.86911-1.38443-.30383-.21692zm29.79525 6.20807c.0106-.007.0622-.26817.11471-.5813l.0954-.56934-.24862-.0924c-.43245-.16069-.67783-.21382-1.10933-.24018l-.4197-.0257-.1093.46382c-.10353.43938-.10276.47215.015.62167.11891.15099.15721.16385.8834.29658.41752.0763.76782.13337.77846.12679zm-13.98184-5.01734c.0985-.13562.48833-.98252.46762-1.01599-.0101-.0164-.34641-.17818-.74731-.35962-.69486-.31449-.73409-.32628-.83957-.25233-.11091.0778-.50235.97348-.45728 1.04635.0481.0777 1.00637.53734 1.25592.60238.19606.0511.27197.0462.32062-.0208zm-1.76981-1.09236c.0735-.15224.18008-.41331.23691-.58013l.10333-.30331-.70571-.32287-.70572-.32288-.15341.0884c-.11061.0637-.20137.20205-.32526.49568-.0945.224-.17786.43163-.18522.46139-.017.0679 1.06105.61808 1.37111.69981l.2304.0608zm-1.92815-.81801c.0663-.12788.15872-.39478.20546-.5931l.085-.36059-.71486-.35712c-.53513-.26734-.72913-.34283-.77167-.30025-.0657.0658-.55849 1.05443-.53918 1.08174.0311.0441 1.33876.6868 1.46958.72235.12705.0347.16026.0105.2657-.19303zm-1.8073-1.20408c.14958-.27787.26565-.52415.25793-.54729-.0347-.1038-.65036-.44487-1.14855-.63623l-.54616-.20978-.17567.56897c-.0966.31293-.16887.5794-.16052.59215.0386.0591 1.17927.6529 1.33044.69261.1696.0447.1721.042.44255-.46042z"/><path d="m138.27894 164.43331c-1.57246-.51451-2.72975-.90677-2.88588-.97815l-.15541-.071.31955-1.35609.31955-1.35609-.8067-.19009-.80669-.19009-.3074 1.30451-.3074 1.30452-.14082-.0877c-.0774-.0483-1.28272-.62465-2.67838-1.28092s-2.59095-1.21899-2.65619-1.2505l-.11864-.0573.38388-1.591c.21114-.87505.36224-1.43224.33583-1.23818-.0264.19404-.0271.38668-.001.42808.0442.0715.8069.36325 1.1934.45655l.1806.0435.0727-.30833c.0615-.26088.0537-.35133-.0503-.58778-.11265-.256-.15629-.29566-.51995-.47243-.47088-.22888-.8572.66862-.96747.73686-.0642.0397.18524-.91481.21278-1.03165l.0354-.1502-.8067-.1901-.8067-.19009-.39984 1.69685c-.23926 1.01537-.34506 1.73516-.3762 1.72783-.0286-.007-.19177-.0992-.2701-.15259-.0783-.0534-1.02368-.50071-2.10075-.994s-1.97218-.92006-1.98913-.94837c-.0318-.0532.38549-1.44917.44878-1.48832.0195-.0121.61645.22592 1.28679.43649 1.41841.44552 1.75665.52831 2.03868.49897.19512-.0203.2558-.0555.81931-.85888.54385-.77538.73327-.95556.7895-.98933.0896-.0538.14729.0779.99215.4229.53033.21658 1.23817.49047 1.57298.60865l.60875.21488-.0139.20947c-.008.11519-.0138.23284-.0137.26141.00015.0286.62576.42033 1.39027.87055.76451.45023 1.41803.77066 1.43358.81483.0156.0442.0544.30686.10495.48099l.092.31661.78881.35568c.49352.22254.86129.29163 1.81351.99123.4275.31409.74507.39875.99486.58753s.4551.44719.78913.76075c.42311.39718.67188.51042.93778.85821.26589.34779.54891.93013.79594 1.40951.1705.33086.41327.71375.4274.75745.0334.10328-.82805-.16251-1.999-.54567zm-.60304-1.17933c.009-.0383.0289-.28989.0444-.55919.0253-.44195.0114-.51707-.14261-.77138l-.17066-.28175-.70651-.26657c-.53209-.20075-.72908-.25535-.79791-.22111-.068.0338-.13071.21231-.24499.69731l-.15362.65189.35973.15558c.35322.15276 1.42936.55723 1.67232.62853.068.0198.13092.005.13989-.0333zm-4.12001-1.9985c.4252-.95811.42326-.86297.0213-1.04215-.18997-.0847-.61379-.24864-.9418-.36436-.32801-.11571-.71158-.27457-.85237-.35301-.1408-.0784-.26396-.1445-.27371-.1468-.01-.002-.0697.21624-.13315.48564-.10525.44669-.10634.51598-.0124.78694.15233.43934.37036.63439.94833.84837.26736.099.55585.22042.64109.26986.31153.18071.30532.1857.60274-.48449z"/><path d="m121.31402 157.05543c-.14632-.0644-1.17085-.53872-2.27672-1.05412-1.10588-.51539-2.12555-.9823-2.26594-1.03757-.26895-.10588-.28518-.15206-.13273-.37744.0791-.11692.11742-.12297.38287-.0604.38193.09.52211.0296.8571-.36946l.27103-.32285.0343.30005.0343.30004.48421.0932c.26632.0512.59703.091.73491.0884l.2507-.005.13341-.56617.13341-.56617-.50306-.0457c-.27669-.0251-.60986-.0691-.74038-.0977-.21684-.0478-.60518.63149-.57523.50439.028-.1189.31042-.89359.46007-.85832.0963.0227.60429.0887.98409.0673.37979-.0213.99334-.039 1.36344-.0391l.67291-.00024 1.12096.36216c.61653.19919 1.5286.48262 2.02682.62986l.90585.26771.50532-.27292.0769-.003-.0388-.0193-.0381.0222.0486.0248s-.0807.0827-.097.22046c-.0183.15462.006.17816.37346.36645.21616.11067.47599.20738.48361.21902.008.0116-.29716.34841-.5835.74428l-.50385.86112-.924-.36422c-.47802-.18842-1.30899-.33442-1.80003-.47079l-.89278-.24793-.15485.27038c-.10179.17774-.20792.49565-.30978.92789-.0852.36163-.0656.7897-.0877.78086-.0221-.009-.26746-.20811-.41377-.27249zm-.33898-2.30975c.38551.0324.43713.0231.46009-.0824.0476-.21791.0583-.90946.0155-.97874-.0387-.0625-.64612-.15866-1.24826-.19761l-.18799-.0122-.12395.52601-.12394.52601.38717.0912c.21294.0502.58256.10765.8214.1277zm3.99789.55282.1659-.41601-.12115-.16039c-.1104-.14616-.1793-.17411-.77695-.31521l-.65581-.15478-.0984.48952-.0984.48952.29083.13647c.15994.0751.4792.18382.70944.2417l.41861.10524zm-1.86659-.19937c.10079-.0556.1435-.15325.23284-.53237l.1094-.46427-.72325-.17043-.72324-.17042-.11799.50071-.11799.50071.45877.10905c.25234.0599.49062.14211.52953.1826.10349.10767.21241.12143.35192.0445z"/><path d="m138.03632 165.4629c-.59128-.1635-1.63903-.48321-2.32834-.71043-1.65832-.54663-2.95079-1.1287-13.3255-6.00114-.90147-.42337-2.99556-1.40523-4.65353-2.1819l-3.01448-1.41214-2.18449-.51501-2.18449-.51501-.0468-.21582c-.0257-.1187-.0944-.29574-.0699-.31085.0244-.0151 1.36328.36751 2.89266.76769l2.7807.72762 1.50306.72656c1.76185.85165 12.90115 6.08762 15.17366 7.13229l1.56303.71853 3.22478 1.01811c1.77363.55996 3.54011 1.11613 3.92552 1.23592.65457.20346.70823.22991.8143.40138l.25515.20801-1.69592-.40044c-.856-.20212-2.03809-.5098-2.62938-.6733z"/></g><g stroke-width=".009089"><path d="m109.49455 154.38806-.0481-.0779.15931-.18446.16742-.22769.007.0539c-.00093.0122-.04.12448-.0662.23541l-.0472.20179-.0623.0384-.0623.0384z"/><path d="m109.82245 155.11534-.0362-.0369.0419-.0613c.023-.0337.0544-.0794.0697-.10147l.0414-.0618-.0459.16061c-.0178.0764-.0329.13872-.0335.13837-.00093-.00045-.0175-.0172-.0373-.0375z"/></g></g><path d="m65.10148 135.14778c14.5982-9.04719 12.686253-.99723 19.304645-2.03449 3.309196-.51863 6.412369-2.98165 9.925576-2.94472 3.513207.0369 7.436449 2.57383 10.889069 2.70062 6.90525.25358 13.63707-4.60321 20.18387-2.24072 2.84394 1.02627 2.46319 2.65923 5.86649 2.07578 3.40331-.58345 6.45504-3.40166 15.00694.65745l.11777 11.14779h-81.77483c.02811-2.98275.158314-6.6136.480474-9.36171z" fill="#00923f" stroke="#00923f" stroke-linecap="round" stroke-linejoin="round" stroke-width=".880793"/><path d="m92.673058 130.95872c.000019-.002.0018-.0101.004-.0182.0069-.0258.0067-.0263-.01378-.0285l-.01783-.002.339976-.12534c.186987-.0689.340887-.12503.341999-.12464.0021.00074-.64877.30204-.652391.30202-.0011 0-.002-.002-.002-.003z" fill="#009c53" stroke="#009c53" stroke-linecap="square" stroke-linejoin="bevel" stroke-width=".004862"/><path d="m105.80365 163.68317v.62259c6.84468 3.22467 2.10262 5.50164-.214 9.95317 7.12128-3.16046 10.84986.11634 17.93834 2.2235l-18.09301 10.68782 8.05423-2.14074 8.2988-.55098 11.30884 2.07937c-3.33397-4.29346-9.22799-2.87214-14.52866-3.22696 4.63726-3.20404 10.90616-6.28712 16.94054-6.86058 3.96586-.37692 10.4138 2.20481 11.95148-.54937-10.40722.0756-15.00005-1.54858-24.64077 3.6744 5.48653-5.98086 14.69165-15.7054 23.38192-7.47109 1.49355-5.77858-13.14121-4.74249-16.18618-5.43377-4.4492-1.01007-3.59703-3.36215-7.92105-4.44028-4.51073-1.12468-7.28634 1.04804-11.01944.35451-1.7319-.32176-2.60795-.47145-5.09809-.82398m24.63681 8.47574c-7.84449 7.47838-11.9809 2.04982-21.96483 1.86778 5.8447-11.01283 13.65426-7.43083 21.96483-1.86778z"/><g stroke-linecap="square" stroke-linejoin="bevel"><g fill="#0071bc"><path d="m120.17436 173.91179c-3.10083-.74767-7.76334-1.62392-9.36915-1.76079l-2.00971-.1713 1.07023-1.58976c4.66869-6.93513 8.45868-8.41259 11.42406-7.47013 2.37254.75404 8.28129 5.23564 8.28129 5.23564l1.39077 1.30926-1.63921 1.71684c-.54264.56834-1.88186 1.33981-2.8654 1.83019-1.55701.77629-2.04724.89976-3.79099.95479-1.1015.0348-2.22285.0101-2.49189-.0547z" stroke="#000" stroke-width=".924397"/><path d="m106.06688 180.38385v-6.27865l.76432-.26829c2.68774-.94346 5.01664-1.04549 7.79403-.34146.6843.17346 2.73047.86596 4.54704 1.5389 1.81658.67293 3.46429 1.25579 3.66158 1.29525.19729.0395.67094.1293.69525.17106.0371.0638-17.1274 10.05366-17.47497 10.17457-.0737.0256.0127-2.34123.0127-6.29138z" stroke="#0071bc" stroke-width=".462198"/><g stroke="#000"><path d="m106.06708 189.52349.0155-2.36165 3.80608-1.09753 3.82136-1.00582 4.03557-.25948 4.03556-.25948 4.69522.86509c2.58236.4758 6.66179 1.35403 6.68771 1.37995.0259.0259-1.00159.11754-1.5921.20359-.72424.10554-3.50133.18135-8.53333.23302l-7.45969.0766-1.12782.39175c-2.25258.78244-4.29322 1.80519-5.87022 3.64691l-2.58584 2.05026z" stroke-width=".462198"/><path d="m105.96998 168.96686v-6.24513l.34394.17225c1.63258.81761 6.28814.51525 6.59261 1.4065.12073.35342-.38671.85013-.48864 1.24482-.19327.74841-3.66669 4.09342-4.93165 5.80309-.35457.47923-.84078 1.16519-1.08046 1.52436l-.4358.65305z" stroke-width=".11555"/><path d="m126.05496 176.41557c3.26831-3.2108 5.31032-7.32223 7.95543-8.16315 0 0 5.32931.42148 7.8573 1.29163 1.22077.42019 1.8963.80059 3.33652 1.8788l1.07659.806.004.89944c.002.49469-.0803 1.29383-.18365 1.77586l-.18796.87641-5.90832-.0375c-5.01165-.0318-6.17079.009-7.63776.26959-2.06092.36598-5.26223 1.39828-7.30529 2.3557-.81195.38049-2.04269 1.12166-2.10087 1.1186-.0582-.003 1.61935-1.62297 3.0937-3.07137z" stroke-width=".653647"/><path d="m131.92193 185.81584c-.53976-.55091-2.47019-1.65938-3.83363-2.05011-1.71471-.49141-4.73886-.70838-8.38044-.60126-1.42266.0418-3.89214.13377-4.15021.0498-.44293-.14416.69599-.31769 1.89025-.96808 3.04901-1.66048 6.59916-3.1534 9.87821-4.15402 3.38292-1.03232 7.83514-1.73596 9.79187-1.54751.6019.058 2.57173.26085 4.3774.45084 1.80569.19 3.65957.31025 4.11975.26723l.8367-.0782-.38166.63368c-.2099.34853-.81545 1.09154-1.34564 1.65115-2.42583 2.56034-5.49134 4.88372-9.96948 6.12629-2.36363.65585-2.47684.58387-2.83312.22024z" stroke-width=".692132"/></g></g><path d="m126.21335 154.06674c0-.00093.42103-.23889.42603-.25329.009-.0321-.54381.24368-.56571.22868-.0169-.0118.0854-.0964.35606-.26404.0914-.0565.16624-.10506.16624-.10788 0-.003-.54193-.28117-.57773-.35577s.0516-.11171.0527-.11275c.00093-.00092.52749.21397.68467.24527l.28578.057.1537-.0685c.0845-.0377.30114-.13435.48136-.2148.18021-.0805.32893-.145.33048-.14344.001.001-.17237.11607-.38651.25449s-.38952.25431-.38973.25754c-.00024.003.0177.0142.0397.0242.0221.0101 1.01709.43714 1.01078.43744-.006.00036-.76633-.12612-.82965-.16965l-.48504-.10251-.3481.0456c-.41387.0542-.40465.24946-.40465.24243z" fill="#fff" stroke="#fff" stroke-width=".028887"/></g><g fill="#ecc002" stroke-width=".093153"><path d="m86.882893 150.06037.0252-1.98479-.274166-.27416c-.349324-.34933-.76333-.36671-1.08452-.0456l-.228651.22865v2.05737 2.05736l.768512-.0271.768512-.0271z"/><path d="m88.848127 151.92476c.376213-.58628.571317-1.15675.571317-1.67052 0-.34647-.05138-.46815-.304357-.72114-.306382-.30639-.940357-.5154-1.563286-.5154-.271086 0-.274882.007-.274882.51235 0 .50463.0044.51233.273397.51233.454318 0 .751293.15662.751293.39623 0 .11799-.146716.52067-.326043.89485-.179316.37418-.326032.71286-.326032.75265 0 .0573.429135.19528.851954.27391.03312.007.189074-.18971.346639-.43526z"/><path d="m84.412466 152.21759c.140896-.0308.256178-.1043.256178-.1634s-.149136-.41862-.331411-.79897c-.412279-.86027-.383343-1.09256.14666-1.17731l.371053-.0593v-.51244-.51244l-.481395.0638c-.691726.0918-1.071405.27771-1.286126.6299-.322709.52931-.235714 1.0842.328023 2.09225.29045.51937.369523.59999.540532.55112.110178-.0315.315602-.0824.456486-.11324z"/><path d="m82.954154 153.83257c1.153262-.36432 2.124128-.47084 3.712137-.40732 1.380306.0552 2.501409.25088 3.264595.56976.834295.34858-.04577-.44837-1.023787-.92715-.815437-.39917-1.928288-.56158-3.209936-.46842-1.814304.13186-2.633283.38627-3.361549 1.04421-.363263.32819-.485422.56229-.245329.47016.06766-.026.456442-.15254.863869-.28124z"/><path d="m83.000121 154.89425c2.27244-.57509 5.506516-.40548 7.265544.38105.35664.15947.676257.26212.710254.22813.034-.034.02255-.17627-.02542-.31617-.131368-.38313-1.411718-.98364-2.616978-1.22739-1.998515-.40421-4.552659-.18745-6.081342.51608-.74281.34187-1.024734.60107-1.028144.9453-.0022.20822-.000375.20799.533557-.0696.294598-.15317.853724-.359 1.242502-.45738z"/><path d="m87.318222 156.16973c.207844-.29674.18628-.86953-.04126-1.09711-.102432-.10243-.228232-.1863-.279459-.1863-.05127 0-.176994.0838-.279459.1863-.358873.35887-.156309 1.30415.279459 1.30415.09671 0 .240995-.0932.320751-.20704z"/><path d="m85.548312 156.16973c.207845-.29674.186281-.86953-.04126-1.09711-.102432-.10243-.228221-.1863-.279459-.1863-.05127 0-.176994.0838-.279459.1863-.358873.35887-.15631 1.30415.279459 1.30415.09671 0 .240995-.0932.32075-.20704z"/><path d="m88.715516 156.26292c.292848-.41811.08747-1.09711-.331918-1.09711-.364826 0-.514996.79377-.213247 1.1272.210122.23218.367543.22349.545165-.03z"/><path d="m84.032523 156.31573c.305656-.27661.172814-1.14998-.174914-1.14998-.434042 0-.646826.67062-.348103 1.09711.1731.24713.294763.25943.523017.0528z"/><path d="m89.881926 156.56916c.204225-.3816.05798-1.12395-.221477-1.12395-.212872 0-.359566.26603-.359566.65208 0 .57504.36652.87271.581043.47187z"/><path d="m82.786951 156.6376c.137177-.13718.146727-.7667.0154-1.01217-.22162-.41411-.555639-.0893-.555639.54028 0 .35599.127175.58367.326031.58367.05633 0 .152778-.0503.214259-.11178z"/><path d="m90.926013 156.65074c.02388-.6491-.255738-.976-.478612-.55955-.252668.47211.03048 1.31645.338233 1.00868.07075-.0707.133898-.27283.140379-.44913z"/><path d="m81.874056 156.54665c0-.61412-.37322-.84882-.548817-.34512-.105402.30229-.05611.69013.115238.90676.141908.17944.433579-.19838.433579-.56164z"/><path d="m93.241582 165.50981c-.389317-.54674-.914512-.79385-2.577017-1.21253-.211773-.0534-.436572-.15906-.499538-.23493-.216317-.26065.150566-.25851 1.346298.008.640577.14269 1.187579.23654 1.215558.20856.02795-.0279-.198163-.54933-.502531-1.15855-.304379-.60921-.598691-1.27534-.654044-1.48027-.05534-.20494-.146573-1.06428-.202728-1.90964-.06755-1.01731-.14709-1.60777-.235208-1.74623-.175322-.27552-1.049456-.70761-1.806085-.89277-2.844164-.696-7.181519-.26959-8.177624.80394-.164045.17678-.204159.40932-.292497 1.69533-.139652 2.03302-.145164 2.05648-.791154 3.36372-.313698.63481-.548499 1.15357-.521785 1.1528.02674-.00075.383926-.10584.793806-.23357.996964-.3106 2.004886-.48918 3.353505-.59417 1.128508-.0878 1.630169-.058 1.630169.097 0 .16213-.499901.27213-1.852316.40759-1.850524.18536-3.482926.52006-4.121544.84506-.276445.14068-.703686.78372-.52041.78326.06227-.00018.551766-.0854 1.087678-.18946 4.188185-.81313 9.448425-.67899 12.579376.3208.938618.29971.984157.29766.748091-.0339z"/><path d="m97.027489 169.10365c-.273352-.41721-1.123732-1.19096-2.158599-1.96409-1.270624-.94925-1.215029-.92058-2.334713-1.2037-2.088789-.52813-4.228608-.80085-6.292169-.80193-2.623722-.001-6.85684.5429-7.768041.99879-.738112.36929-3.267512 2.53787-3.046189 2.61164.0527.0176.424282-.13274.825768-.33401 2.049874-1.0276 4.649831-1.5178 8.787703-1.65684 4.981342-.16738 9.380936.69883 11.550967 2.27418.281791.20457.528496.35646.548245.33755.0198-.0189-.03114-.13663-.112972-.26159z"/><path d="m89.559173 176.08631c3.280659-.48661 5.595987-1.46505 6.987779-2.953.767016-.82 1.066444-1.90539.752449-2.72757-.186908-.4894-.866378-1.15593-1.509903-1.48115-.680273-.34378-2.924426-1.00614-3.371967-.99525-.0351.00085.250621.15437.634877.34114.829388.40315 1.715679 1.24099 2.051668 1.93956.137496.28589.238475.69067.261448 1.04811.03147.48947-.0022.66367-.212004 1.09217-.520541 1.06396-2.121972 2.09951-3.565267 2.30546-.421036.0601-.793795.081-.828364.0463-.108483-.10848.150214-.33218.459181-.39711.594775-.12498 1.783267-.75116 2.089505-1.1009.961569-1.09812-.386918-2.2159-3.376797-2.79907-.548422-.10695-2.712786-.33476-3.180726-.33476-.01815 0-.03301.18234-.03301.40521 0 .31412.06799.4939.302751.79976.657311.85666.721928.97183.721928 1.28657 0 .39171-.231676.90394-.506877 1.12066-.290813.22902-.487457.57247-.557927.97444-.127781.72889-.815855.63764-.917703-.12168-.04082-.30449-.149973-.49081-.489262-.83528-.3584-.36386-.445253-.51924-.484399-.86656-.06645-.58979.02002-.85117.430983-1.30147.458796-.5028.568973-.72165.568973-1.13014v-.33282l-.675355.0531c-3.881957.30524-6.307418 1.35188-5.997196 2.58792.142579.56807.786731 1.02988 2.091584 1.49951.43634.15704.810683.33793.831863.40198.0593.17915-.762571.14614-1.582518-.0636-.892849-.22835-1.621708-.63977-2.364717-1.33482-1.673309-1.56529-1.080845-3.40984 1.508032-4.69503.482826-.23967.866532-.44713.85268-.46098-.03741-.0374-2.052207.39764-2.659425.57416-1.295137.37651-2.330554 1.06088-2.662098 1.75955-.209594.44168-.191869 1.30115.03653 1.77303.653548 1.35005 2.919134 2.61091 6.20437 3.45291 2.166972.55538 3.359722.6978 5.440898.64969.999065-.0231 2.23567-.10419 2.748015-.18015z"/></g><g stroke="#000" stroke-linecap="round" stroke-linejoin="round"><path d="m84.57321 176.45397c-2.720267-.17916-5.699397-.8058-7.225011-1.51973-1.471758-.68872-2.497459-1.59397-3.013061-2.65919-.30318-.62637-.305919-.63918-.258356-1.2095.06766-.81093.247805-1.70767.413522-2.05811.265189-.56081.803235-1.12976 2.075278-2.19449 2.899341-2.42682 3.359073-3.41484 3.706009-7.96459.150974-1.98003.230587-2.62473.402498-3.25973.320827-1.18504 1.052998-2.19668 1.958445-2.70598.242029-.13613.440048-.27392.440048-.30619 0-.0322-.144614-.38045-.321366-.77373-.39736-.88415-.50538-1.40919-.396678-1.92824.0648-.30958.147651-.44486.458544-.74897.399362-.39066.780724-.5706 1.374574-.64853.397602-.0522.631544-.23965.631544-.50608 0-.20425.364155-.65267.650105-.80054.354131-.18312.716448-.21042 1.058642-.0798.364958.13939.813545.59567.87903.89411.02443.11108.05622.2411.07075.28892.01452.0479.151018.10628.303224.12986.961822.14913 1.644989.46744 1.989791.92713.163769.21834.179106.30427.179106 1.00295 0 .74622-.0077.77972-.309297 1.42873-.170106.36553-.309297.71507-.309297.77675 0 .0617.228441.26402.507636.44963.678139.45082 1.110145.95775 1.489482 1.74782.388833.80981.499484 1.40939.698449 3.78433.173947 2.0764.317395 3.24912.476236 3.8935.166245.67442.683837 1.71191 1.187611 2.38045.523546.6948 1.83369 1.97216 2.383542 2.32389.54116.34617 1.527154 1.33962 1.903884 1.91825 1.254044 1.92618.464958 3.96191-2.121169 5.47229-1.802784 1.05289-4.79032 1.74644-8.235893 1.91196-1.865475.0896-2.139917.0925-3.047861.0328zm4.503369-.28656c1.086269-.11813 2.431566-.40104 3.486259-.73316 2.783663-.87654 4.5451-2.30179 4.847664-3.92246.179118-.95943-.339652-1.85974-1.456607-2.52789-.610607-.36524-3.670373-1.26631-3.530269-1.03962.02366.0383.306227.2065.62799.3739.746342.38829 1.624976 1.2 1.941248 1.7934.323942.60777.433118 1.35776.270162 1.85594-.437815 1.33855-2.188844 2.50327-4.064288 2.7034-.326307.0349-.41789.0239-.394433-.047.03906-.11792.242337-.2213.96498-.49066.708703-.26416 1.468424-.75216 1.691001-1.08618.319419-.47935.165398-1.07762-.38562-1.4979-.98177-.74883-3.014447-1.27239-5.690122-1.46561l-.673177-.0486v.4034c0 .42334.01958.46247.731665 1.46117.424084.59478.321059 1.16955-.336704 1.8784-.211618.22804-.351381.46781-.42964.73699-.06381.21944-.179492.45645-.257113.52669-.131489.119-.153549.11959-.323028.009-.120311-.0789-.221488-.25538-.298856-.52152-.08098-.27853-.229464-.53033-.482606-.8183-.43513-.49502-.496028-.63394-.495434-1.13026.000528-.43278.09253-.63928.500858-1.12348.345297-.40951.517549-.79016.517549-1.14369 0-.30316.02211-.29988-1.206349-.17852-2.837463.28032-5.035165 1.05334-5.443989 1.91488-.381164.80324.166718 1.45358 1.758467 2.08733.429024.17081.843019.35297.91997.4048.136549.092.136615.0955.0022.14692-.1978.0759-1.499703-.16231-2.007042-.36723-1.00658-.40658-2.051272-1.26819-2.436111-2.00918-.174595-.33619-.207877-.48766-.207877-.94609 0-.45668.03334-.60977.204346-.9374.367323-.70389 1.153317-1.35956 2.351832-1.96187.520421-.26153.787524-.44842.640885-.44842-.185928 0-2.504963.54137-2.911564.67969-.969216.32973-1.936815.94649-2.271318 1.44775-.368908.55285-.356167 1.57217.02784 2.22745.680922 1.1619 2.592442 2.25202 5.376303 3.06607 1.208582.35342 2.930004.71269 3.838608.80114.819178.0798 3.604348.0357 4.60184-.0727zm8.114493-6.82888c0-.26735-1.074354-1.29337-2.401596-2.29353-1.034636-.77967-1.321004-.91632-2.510762-1.1981-1.94742-.46121-3.403775-.65756-5.312621-.71626-2.830357-.087-7.379264.44536-8.514769.99659-.557641.27069-2.71624 2.03855-2.979251 2.43995-.108262.16516-.107822.17868.0044.17868.067 0 .485257-.16714.929575-.37141 1.715063-.78849 3.439268-1.19492 6.193247-1.45985 1.297646-.12485 5.714217-.12532 6.84092-.00088 3.094247.34211 5.360306 1.00256 6.924967 2.01829.722797.46923.825647.51984.825647.40638zm-3.907571-3.80326c-.26772-.46179-.797382-.74915-2.067775-1.12184-.910365-.26707-1.115195-.36124-1.042316-.47917.04643-.0752.325273-.0385 1.514909.19934.978788.19566 1.06344.20331 1.06344.0962 0-.0422-.24369-.59097-.541534-1.21944-.297844-.62848-.573881-1.28985-.613412-1.46972-.0395-.17987-.126065-.96323-.192299-1.74078-.06623-.77756-.158664-1.53048-.205402-1.67316-.09396-.28676-.570448-.61917-1.254396-.87507-1.682595-.62954-5.099936-.68585-7.283576-.12001-.795214.20606-1.475113.57714-1.613347.88054-.09176.20147-.193761 1.02764-.269369 2.18258-.07592 1.16032-.197382 1.60402-.7663 2.79998-.287799.60503-.511102 1.11078-.496216 1.1239.01485.0131.393542-.0843.841468-.21654.447926-.13221 1.217527-.30964 1.710222-.39428 1.074002-.18451 3.188262-.28846 3.188262-.15675 0 .14937-.331522.222-1.877479.41128-1.687282.2066-3.084367.46949-3.680715.69261-.252184.0944-.493541.25459-.658477.43715-.30428.33681-.347068.5726-.0966.53246.09-.0144.61142-.10672 1.158576-.20497 1.999407-.3592 2.976523-.43512 5.627761-.43729 1.978536-.002 2.678536.0244 3.493235.13027 1.200309.15586 2.476313.41597 3.238521.6602.300198.0962.637727.17814.75006.1821l.204247.008-.131466-.22677zm-11.565436-8.49729c.250633-.27695.211168-1.02115-.05963-1.12508-.311102-.11938-.530334.61625-.32074 1.07624.100342.22032.212246.23467.380416.0489zm9.138963-.004c.132171-.24695.09165-.84264-.07019-1.03377l-.145549-.17182-.14555.17182c-.102871.12141-.145549.2776-.145549.53241 0 .42668.0977.64213.291099.64213.07724 0 .174332-.0634.215766-.14077zm-8.114537-.32136c.09396-.0688.142832-.21637.162537-.49125.03466-.48383-.08945-.75684-.34402-.75684-.147871 0-.197305.0553-.278414.31167-.110672.34976-.06414.75234.106723.92317.136648.13665.182121.13835.353218.0132zm7.17659-.17112c.185851-.48882-.0044-1.14493-.319188-1.09931-.207867.0301-.375047.47498-.309605.8238.09451.50406.478017.67208.628793.27551zm-5.762881-.36107c.109363-.24.101552-.48929-.02464-.79142-.0801-.19174-.148784-.25238-.285818-.25238-.45137 0-.663957.84356-.303444 1.20407.152822.15282.204181.16694.355848.0978.09748-.0445.213621-.16057.25807-.2581zm4.536882.13595c.312763-.26844.17936-1.05497-.194851-1.1489-.236198-.0593-.38145.0573-.469788.37729-.0867.3138.0187.71516.225911.86025.158664.11114.220508.0987.438728-.0887zm-3.151404-.13432c.225668-.28689.207625-.82122-.03752-1.11262-.237738-.28253-.33282-.28101-.577049.009-.171746.20412-.192222.28105-.16432.61747.05292.6377.459853.89156.778942.48592zm1.781231.028c.368709-.5725.01672-1.55011-.465233-1.29217-.362108.1938-.460106.86081-.187568 1.27675.155386.23715.504677.24541.652801.0154zm-5.569636-.81399c.837056-.42416 1.868985-.66254 3.315823-.76594 1.813401-.12959 3.620707.091 5.010795.61169.824898.30895.92525.3181.92525.0843 0-.50192-1.480108-1.20379-3.088778-1.46471-.774288-.12558-2.554903-.14096-3.359755-.0291-1.869899.26008-3.376193.97665-3.376193 1.60612 0 .18113.154275.16971.572858-.0424zm2.48989-1.8287c.608164-.10166 1.021389-.11691 2.243625-.0826 1.579272.0443 2.441589.17365 3.301728.49519.231456.0865.441941.13621.467742.11041.162317-.16232-1.02217-.96144-1.848785-1.24728-1.373573-.475-4.020026-.34387-5.307924.263-.473617.22317-1.237903.87751-1.164221.99673.02641.0428.346166-.0249.803158-.16986.417571-.13251 1.094675-.29703 1.504677-.36559zm.244273-1.34015c.102432-.0389.186214-.11915.186214-.17824 0-.0591-.117141-.37387-.260314-.69952-.143185-.32563-.277952-.70067-.299483-.8334-.04434-.27311.04302-.34763.505215-.43107l.272912-.0493v-.54338-.54339l-.309297.0436c-1.045396.14732-1.600231.5214-1.693245 1.14164-.05974.3987.15159 1.06074.559963 1.75374l.294191.49925.27882-.0445c.153351-.0245.362615-.0765.465024-.11539zm4.279769-.13261c.5393-.81495.79638-1.67814.640466-2.15055-.172087-.52143-.866476-.90162-1.702091-.93192-.415953-.0151-.48255.0568-.48255.52075 0 .4267.04335.48118.434426.54535.693025.11376.722786.24482.283255 1.24703-.16443.37491-.28155.72701-.260282.78245.03829.0999.452998.24142.749698.2559.102431.005.215425-.0852.337078-.26901zm-1.910277-.067c.02002-.0177.04687-.92477.05974-2.01561l.02332-1.98337-.261162-.2293c-.443987-.38982-.794664-.39598-1.196072-.021l-.226824.21188v2.03278c0 1.11803.02024 2.05301.045 2.07773.04841.0484 1.495732-.0196 1.556124-.0732z" stroke-width=".137529"/><path d="m139.47159 141.99995c-2.05729-.30205-4.41023-.93909-8.06644-2.18394-3.42163-1.16498-4.26913-1.38822-5.27495-1.38945-.92725-.00084-1.46112.16086-5.31062 1.61153-3.77264 1.4217-5.45312 1.62524-8.78451 1.7326-2.61732.0843-1.41514-.14198 1.54506-.48955 5.04559-.59242 7.26469-1.45889 11.19038-4.36933 1.1482-.85125 1.23701-.95468.82693-.96315-1.29229-.0268-3.18352-.51997-5.92188-1.54472-4.63869-1.73584-5.16356-1.86268-7.76853-1.87746-2.21946-.0126-4.68599.34012-4.68599.67007 0 .13801 2.89322 1.26371 5.04108 1.96143.61326.1992 2.27024.59029 3.68216.86909 1.41197.27877 2.64552.5691 2.74127.64515.60596.48135-3.12108.33452-5.49219-.21636-1.78164-.41394-4.83177-1.43051-9.64758-3.21544-4.629136-1.71574-5.162179-1.858-6.983026-1.86374-1.776121-.006-2.28372.13464-4.855991 1.34149-.875427.41074-2.087428.94558-2.693332 1.18852-.605888.24295-1.053603.50345-.994915.57888.167315.21505 6.048072 2.8259 8.229776 3.65373 2.209136.83826 3.984178 1.15504 8.124428 1.44993 3.26767.23273 3.58658.27897 3.71171.53797.18706.38721-.33184.48359-2.60914.48466-2.37861.00084-4.77984-.17848-6.751589-.50502-1.352365-.22395-5.133567-1.66157-8.868333-3.37176l-2.205166-1.00977-3.032099-.0959c-3.404013-.10755-3.707958-.16597-7.749336-1.48834-4.80301-1.57155-6.06213-1.6256-8.09173-.34729l-.973328.61303 1.653881.16604c2.387497.23966 2.891566.37984 5.238614 1.45678 6.660571 3.05622 7.383853 3.30552 12.264888 4.22695 1.54131.29097 2.802389.56543 2.802389.6099 0 .12756-2.966953-.0968-5.307819-.40144-3.375813-.43929-5.146127-1.01764-10.495867-3.42886-1.162298-.52387-2.444059-1.02595-2.848337-1.11571-.404278-.0899-1.783983-.17042-3.066022-.17922-2.317195-.0158-3.770388 1.46885-3.671352.72501l.212902-1.59911.526629-.1759c.289637-.0968 1.096095-.58619 1.792123-1.08766 3.305871-2.38183 7.211497-4.37427 8.573837-4.37388.225352.00007.916988.19073 1.536948.42369.930614.34973 5.919972 2.55264 7.041445 3.10897.246063.12204.41121.0756.784651-.22112.498999-.39636 5.810969-2.56191 7.892438-3.2175.674191-.21236 1.445673-.38609 1.714404-.38609.669176 0 2.274536.52243 6.764369 2.20134l3.82415 1.42996 2.11476-.64922c5.58291-1.71398 12.54604-3.42 13.9587-3.42.80183 0 8.45663 3.03922 9.36073 3.71651l.62036.46476 2.12088-1.19835c1.16645-.65908 2.65902-1.41922 3.3168-1.68921l1.19596-.49086 2.61847 1.05257c1.44017.57894 3.53135 1.48776 4.64706 2.01963 2.02193.96387 2.02837.96871 1.95404 1.47449-.0582.39645-.14015.48798-.37474.41849-.16507-.0489-2.08376-.87332-4.26374-1.83208-2.17999-.95872-4.21917-1.78373-4.53152-1.83335-1.11144-.17658-3.54168 1.12553-9.70547 5.20012l-3.41621 2.25832 1.80397.0907c1.57826.0795 2.15804.19372 4.63354.91362 5.22191 1.51859 7.90263 1.96174 12.65254 2.09153 3.12893.0855 3.16991.0909 3.16991.41386 0 .17998-.14475.37203-.32157.42683-.7057.21859-5.63732.22034-7.12086.002zm-12.8281-6.6843c.72635-.21572 3.4126-1.9646 3.2798-2.13531-.12619-.16201-4.63744-2.24179-6.96601-3.21138-1.98836-.82794-1.90269-.82204-4.14668-.28526-1.77884.4255-6.33101 1.73547-6.50394 1.87164-.0835.0657.31412.16563.88345.22214 1.56093.15491 3.15459.64206 6.85803 2.09636 3.88059 1.52389 5.28512 1.83092 6.59535 1.44181zm-40.555284-.0994c0-.0794-.351449-.32269-.780995-.54093-1.361313-.69165-7.343875-3.39436-8.700841-3.93075-1.282525-.50695-1.315905-.51175-1.994636-.28649-.839785.27872-3.224627 1.52275-3.224627 1.68208 0 .063.435922.15536.968731.20511 1.135255.10602 2.764215.53887 5.525236 1.46829 3.176967 1.06944 5.162726 1.48332 7.334264 1.52863.480079.009.872868-.0467.872868-.12594zm2.169939-1.72941c.488152-.14733 1.667425-.63109 2.620614-1.07502 2.535017-1.18063 2.898108-1.31744 4.213874-1.58779l1.194471-.24541-.73506-.25593c-.404278-.14076-.978858-.25123-1.276843-.24551-.298055.006-2.405818.74224-4.685259 1.63715-3.998484 1.56984-4.127418 1.6338-3.684774 1.8284.628879.27647 1.305027.26041 2.352977-.056z" stroke-width=".491341"/></g></g><path d="m18.338585 26.446531a.86536914.66338373 0 0 0 -.864929.66349v54.39137c0 8.25756 9.763647 14.88602 21.673714 14.88602h10.4887c1.89373 0 4.28502 1.06948 6.19216 2.52731 1.90714 1.457829 3.30557 3.307459 3.50675 4.406109a.86536914.66338373 0 0 0 1.7138 0c.20265-1.10672 1.5714-2.95354 3.44481-4.410069 1.8734-1.45652 4.22558-2.52335 6.11931-2.52335h10.48871c11.91006 0 21.67371-6.62846 21.67371-14.88602v-54.39137a.86536914.66338373 0 0 0 -.86493-.66349zm.865504 1.32654h81.840791v53.72832c0 7.45356-8.86697 13.55904-19.94327 13.55904h-10.48871c-2.67663 0-5.28321 1.31074-7.3519 2.91908-1.30748 1.01653-2.36424 2.149399-3.07485 3.262039-.72476-1.11538-1.80546-2.248739-3.13623-3.265989-2.10234-1.60704-4.73722-2.91513-7.41385-2.91513h-10.4887c-11.076305 0-19.943281-6.10548-19.943281-13.55904z"/><path d="m59.729092 53.216305h.910324v48.16954h-.910324z"/><g transform="translate(-69.849997 -59.845137)"><g stroke-width=".103274"><path d="m129.88051 66.921091 3.83885 10.730538 12.42133.001-10.04881 6.632029 3.83798 10.730933-10.04935-6.631524-10.04945 6.631535 3.83808-10.730735-10.04892-6.632241h12.42123z" fill="#fff" fill-rule="evenodd"/><path d="m129.8751 82.422694.005-15.501603-3.83895 10.730538z" fill="#ecc002"/><path d="m129.8804 88.383644v-21.462553m-6.21126 17.363354 22.47155-6.632225m-10.04881 6.632225-22.47177-6.632324m20.09914 0-13.88841 17.363356" fill="none"/><path d="m119.83106 95.015183 10.04924-6.631539-.005-5.96095z" fill="#ecc002"/><path d="m119.83106 95.015183 10.04404-12.592489-6.20607 1.861751z" fill="#fff"/><path d="m113.62011 77.652121 16.25499 4.770573-6.20607 1.861751z" fill="#ecc002"/><g fill="#fff"><path d="m113.62011 77.652121h12.42145l3.83354 4.770769z"/><path d="m129.8751 82.422694 3.84426-4.770868-3.83917-10.730539z"/><path d="m139.92986 95.015183-10.05466-12.592489.005 5.96095z"/></g><path d="m129.8751 82.422694 16.26559-4.770474h-12.42133z" fill="#ecc002"/><path d="m139.92986 95.015183-10.05466-12.592489 6.21657 1.861751z" fill="#ecc002"/><path d="m146.14069 77.652121-10.04881 6.632324-6.21678-1.861751z" fill="#fff"/></g><path d="m129.8804 66.921091-3.83884 10.730538-12.42134.001 10.04881 6.632034-3.83808 10.730932 10.04956-6.631536 10.04935 6.631536-3.83809-10.730834 10.04892-6.632127h-12.42133z" fill="none" stroke="#000" stroke-width=".728822"/></g></svg>