<svg height="600" width="491" xmlns="http://www.w3.org/2000/svg"><g fill-rule="evenodd" transform="matrix(8.82239822 0 0 8.81352368 -706.874367 -928.827292)"><path d="m135.672 163.887v-.1959-.0417h.001c.0001-9.6287.0263-19.3992.0524-29.1929.0253-9.5127.0507-19.0503.0511-29.0699h-55.6538c.0002 9.6076.0129 19.2532.0256 28.8877.0127 9.6939.0255 19.3768.0255 28.9988h.001v.1426c0 1.1564.1175 2.1423.3584 2.9658.2365.809.5922 1.4632 1.0724 1.9706.4786.5056 1.0938.8781 1.8511 1.125.7718.2517 1.6916.3735 2.7649.3735h15.274l.0161-.0011h.0011c.0197-.0012.0491-.0028.0876-.0046.0227-.001.0524-.0021.0889-.0031.1451-.0042.2896-.0025.433.0047l.0045.0002c.2335.012.4643.0383.6912.0775.2255.0389.4528.0917.6802.1568 1.1426.3269 2.2155.9572 3.082 1.699l.0005.0004c.1051.09.2061.1807.3027.2716.0973.0916.1921.1853.2841.2805.3525.3649.6578.748.9032 1.1313.0298-.0461.0603-.0922.0917-.1384.1178-.1731.2497-.349.3945-.526.7286-.8897 1.739-1.7222 2.9196-2.2699.3133-.1453.6337-.269.9589-.369.325-.0999.6576-.1771.9956-.2295.0909-.0141.1672-.0248.229-.0323.1721-.0207.3471-.0348.5248-.0419v-.0081h.2657.0012 14.6966.2657v.0001l.0629-.0013.009-.0002c.2791-.0071.5508-.0231.8148-.0484.2546-.0243.5082-.0588.7606-.1035 1.2416-.2198 2.2572-.6761 3.0087-1.3896l-.0004-.0005.0004-.0004.0042-.0031c.1451-.1381.2798-.2849.4036-.4403.1232-.1546.239-.3223.3471-.5031.5299-.8873.8228-2.0376.8471-3.4714z" fill="#fe0000" fill-rule="nonzero"/><path d="m112.366 110.544c-1.8162-.1479-3.6729.009-5.4487-.0332-.3234.4931-.3832.613-.7067 1.1061-2.6084.0214-2.3921 1.9968-1.3082 3.4625.4545-.6829.5372-1.4371 1.0446-1.2808-.6214 3.8227-2.5265 5.8102-4.7413 6.4751-.1244-.5425-.0605-.8237-.1849-1.3661-.5971.4685-1.1942.713-1.7913 1.1815-2.3769-2.0177-.1642-3.8123-.0214-6.0406.1219-1.9008-1.9225-2.4416-3.4874-2.2063-6.7333 1.6591-10.5606 9.8955-10.6438 17.547-.0332 3.0481-.1166 6.4435-.0129 9.7099.1688 5.3193.1965 10.2664-1.3874 13.6735.7435-.075 1.1346-.2896 1.7055-.7258.1707 1.4745.0971 3.4713.1815 5.3778.056 1.2628.1601 2.486.5264 3.4918.8526 1.6101 1.7865 2.3532 4.3545 2.1981-.7528-1.1158-2.1699-2.1659-1.9553-3.8152.5546.6315 2.2149 1.4879 3.3448 1.4072-1.9454-2.3008-1.3921-4.4302-1.4272-6.9312 3.3624-4.0854 6.4371-9.0779 9.9718-12.1688.7264.3443.5557 4.1264.34 5.2536-1.0146.2186-1.9915.1013-3.006.3199-1.3135.2604-1.4274 1.5092-1.0985 2.9042.4277-.3943.9285-.7295 1.3476-.8606-.9992 1.0381-1.5682 2.7564-.127 3.7739.2749-1.3259.5512-1.66 1.1544-1.2932-.9979 1.2615-.9995 2.3557 1.191 3.0818-.04-1.6096.5592-1.9036 1.1221-2.2628.4376-.2793.8385-.5833.9952-1.6714.678-.4299 1.2463-.4683 1.6542.0656-.1324 1.2165-.109 2.2615-.2328 3.3253-.1495 1.284-.2971 2.4783-1.3552 3.4939h2.3911c.1395.7913-.5072 1.4544-1.0953 2.2949 1.162.1685 2.4763-.1845 3.0701-.58 1.1725 1.8324 2.009 1.9399 3.2625.0656 1.4239.4986 2.2303.1866 3.289.1866-.4411-.6339-.8822-1.2677-1.3233-1.9015.9263.0874 1.2367.0917 2.4734-.0405-1.9104-1.7156-1.3973-4.1833-1.5003-6.8161.5437-.5744 1.0041-.5371 1.6074.0373.4777 1.7399 2.4077 1.4521 1.9348 3.4796 1.0494-.2604 1.5155-.6345 1.6953-1.0857.1807-.4534.1082-.8447-.102-1.2586-.1254-.247-.2205-.4993.054-.7317.2773.0295.6202.7054.851 1.4516 1.3541-.9253 1.2709-2.0477.1954-2.8809-.3567-.2872-.5094-.4997-.2442-.651.5704-.0148.903.234 1.3732.7587.5966-1.3185.403-2.2993-1.3808-2.9475-.8963-.3254-1.9305-.1344-2.8732-.2382-.0442-1.6392.0624-3.5024.0183-5.1416.9785.4696 2.3926 1.7211 4.9864 5.0894 1.4164 1.8446 3.0305 4.0903 4.9385 6.9099.4967 3.1252.1998 5.5686-1.2571 7.0159 1.4749-.2385 2.8031-.7066 3.7704-1.6755.1978 1.5648-.5525 2.9576-2.099 4.2429 3.3897-.1018 4.235-1.5812 4.8215-3.8215.2288-.9883.1223-2.2125.1427-3.4875s.0095-3.1382.151-4.0911c.6074.0321.5446.0741 1.2022.1855-1.5073-3.2455-1.0112-6.8435-1.1478-10.5588.0866-2.4306-.0004-6.2666-.0134-9.8512-.0157-4.369.0509-7.7224-1.9109-11.8517-1.4606-3.0742-3.0731-4.7931-4.5034-5.9262-.8689-.6883-1.6745-1.1771-2.6954-1.5853-1.3487-.5394-2.1755-.7772-3.3721-.5295-1.5229.5792-2.0993 2.075-1.4375 3.5022.6739 1.4532 1.725 3.2586-.3746 4.8116-.6099-.7052-.7679-1.1864-1.3778-1.8916-.1017.8059-.0184 1.6224-.418 1.8579-.841.0718-1.4394-.3341-1.8156-.7423-1.5551-1.3506-2.4138-4.3337-2.3452-7.33.4785-.6613.5827-.8055 1.0611-1.4668z" fill="#1f1a17"/><path d="m104.86 114.068c.1571-.7682 1.0017-1.3551 1.7055-.9641-.2549-1.2711-2.3508-.9674-1.7055.9641z" fill="#fcef01"/><path d="m100.791 123.117c-1.1801-.8197-1.6076-1.7515-1.7105-2.5714-1.471-1.0386-1.7573-2.06-1.5069-3.1485.3445-1.4974 1.588-2.9534 1.1649-3.8733-1.0164-1.556-3.3211-.8695-4.4048-.4694-1.9512.7205-3.3892 2.0665-4.8385 3.9618-2.1911 2.8651-3.6873 6.717-3.7982 11.0701 1.7846-4.6703 3.9062-8.2139 7.4963-8.784-2.4711 2.6535-4.957 6.1386-4.6092 10.1927 1.45-2.8734 2.97-5.6652 5.3183-6.5787-1.3669 2.0778-2.0819 4.6223-2.4312 7.4287.9758-2.2321 2.2196-4.0078 3.8741-4.8946-.7551 1.6898-1.2461 3.2677-1.2662 4.9577.7431-1.402 1.7067-2.4091 2.8754-3.1121-.4803 1.2287-.6881 2.5614-.7728 3.9023.6685-1.0467 1.5903-2.293 2.2568-2.8342.3148 1.1408.5213 1.8511 1.0992 2.8613.1696-1.0618.4735-1.4572 1-1.9873-.0948-2.074-.0407-4.3361.2533-6.1211z" fill="#fcef01"/><path d="m101.454 130.096h13.744v10.059h-13.744z" fill="#1f1a17"/><path d="m101.454 140.463h13.7443v5.9541c-2.9562 7.147-11.1618 7.097-13.7443 0 0-1.9847 0-3.9694 0-5.9541z" fill="#007225"/><path d="m101.454 130.065h13.7443v7.2333c-1.7082-1.7198-3.316-3.259-4.3943-3.9189-.7923-.485-1.852-.294-2.5155.3396-.7016-.6184-1.6499-.7608-2.4689-.3359-.5373.2788-1.1077.7906-1.8878 1.5474-.6537.6342-1.6461 1.5386-2.4778 2.3678z" fill="#008fc9"/><path d="m101.454 137.734c1.3874-1.153 2.6137-2.4425 3.6116-3.2718 1.7847-1.595 2.4969-.8254 3.0134-.3714.1079.0948.224.1736.3287.2717.4064.3807.8684.8359 1.0217.9397-.5127-.5158-.7115-.7546-1.0371-1.0756.1338-.3201.7888-.6783 1.0984-.7266.4718-.0737.9939.0583 1.3325.299.7186.5033 1.4571 1.194 1.7378 1.5173.7687.7295 1.6169 1.5886 2.6373 2.4177v2.4179h-13.7443c0-.806 0-1.6119 0-2.4179z" fill="#fff"/><path d="m109.431 143.08.0277.0921.0258.0949c.0603.2483.0977.495.1196.7493l.0076.1194.0049.1226c.0051.2653-.0102.5184-.0583.7796l-.0175.0826-.0192.0803c-.1164.4389-.3589.8562-.4248 1.3042-.0288.2716.0074.6047.1233.8473.1429.2649.6314-.1836.7638-.2922.108-.0909.2144-.1838.3209-.2765.2761-.2388.5606-.4704.8925-.6278.4599-.2028.9244-.3562 1.4244-.424l.0982-.0106c.4639-.0362.9063.0075 1.3238.2228l.0651.0375.2199.1405-.0373.249-.0134.0667c-.1004.3955-.3261.7138-.6115 1.0015-.4034.3834-.8721.6551-1.384.8724l-.0778.0356-.0839.0358c-.4199.166-.8433.2415-1.3035.2393-.2454-.0037-.4898-.0223-.7353-.0202-.104.0032-.2045.0091-.3071.0271-.221.0575-.2039.2387-.1943.4182v1.7719h-2.3134v-1.8502l.0041-.0531c.0011-.0303.0013-.0601-.0003-.0904-.0063-.0648-.015-.1096-.0648-.1521-.0967-.0747-.2048-.1139-.327-.1211l-.0307-.0004c-.3542.0005-.7084.0151-1.0627.0106l-.0752-.0017c-.2332-.0081-.4621-.028-.6922-.0664l-.0793-.0148c-.3996-.0837-.7643-.2339-1.1209-.4223-.4205-.2337-.7913-.5044-1.0621-.9058l-.0435-.0713c-.1231-.2232-.1961-.4457-.2359-.6968l-.0099-.0825-.0223-.2677.2333-.1322c.4282-.2055.8884-.2078 1.3516-.1486.1647.0254.3259.0582.4876.0984.5519.1493 1.0509.3713 1.4959.7226.2399.1922.4758.3888.7276.5659.166.112.3352.2173.5294.2736.1439.0313.2293.0217.3067-.1105.0481-.1092.0642-.2151.0805-.3315.019-.3223-.0823-.5963-.178-.901-.0339-.1059-.0684-.2118-.1022-.3177-.1574-.5007-.2466-.9749-.2449-1.5011l.0032-.1326c.0139-.3083.0469-.6071.1161-.9082l.0252-.096.0273-.0926.0296-.089c.1315-.3567.3526-.6571.6344-.9164l.0512-.0442.0519-.0419.0521-.0396.0522-.0373.2248-.1518.2192.1584c.4066.3156.651.7393.8118 1.22zm-1.0369-1.0131c.4644.3219.9138 1.0274.9236 2.3195.0083 1.0083-.4707 1.4937-.5262 2.1418-.0274.3202.0569 1.1342.4303 1.2042.6799.0752 1.3405-.9679 2.1018-1.3055 1.2171-.5516 2.151-.5144 2.6786-.1583-.0656.5403-.6252 1.2687-1.8422 1.7702-.8388.3966-1.4442.2638-1.9813.2639-.5574.0002-1.076.0573-1.0123.7526v1.4655c-.5703 0-.9147 0-1.485 0 0-.5258 0-1.0143 0-1.5401.0248-.2611-.1494-.4185-.2548-.513-.154-.1382-.3646-.2168-.5762-.2142-.8686-.002-1.5449.0909-2.3827-.2157-1.1872-.5104-1.6557-1.0535-1.7072-1.8397.5981-.3686 1.7949-.1338 2.6316.3068.4791.2396 1.4068 1.2885 2.0592 1.2205.5107-.0531.5455-.7711.4968-1.1603-.075-.597-.4776-1.2591-.4776-2.1787-.0098-1.4268.4333-1.9977.9236-2.3195z" fill="#1f1a17"/><path d="m108.394 142.029c.4644.3219.9138 1.0647.9236 2.3568.0083 1.0083-.3954 1.531-.4509 2.1791-.0274.3202.0193 1.0595.3927 1.1296.6799.0752 1.3028-.9306 2.0641-1.2682 1.2171-.5516 2.1887-.5144 2.7162-.1583-.0656.5403-.6628 1.2687-1.8798 1.7702-.8388.3966-1.4442.2638-1.9813.2639-.5574.0002-1.0383.0573-.9746.7526v1.4655c-.5703 0-.9524 0-1.5227 0 0-.5258 0-1.0143 0-1.5401.0248-.2611-.1494-.4185-.2548-.513-.154-.1382-.3646-.2168-.5762-.2142-.8686-.002-1.5449.0909-2.3827-.2157-1.1872-.5104-1.6934-1.0535-1.7448-1.8397.5981-.3686 1.8325-.1338 2.6692.3068.7166.312 1.4068 1.2885 2.0592 1.2205.5107-.0531.5079-.7711.4591-1.1603-.0749-.597-.4775-1.2591-.4775-2.1787-.0099-1.4268.4709-2.035.9612-2.3568z" fill="#fcef01"/><path d="m100.709 129.701c.075 2.4541.0371 4.9827.1121 7.4368-.5145.5524-1.0291.9182-1.5437 1.4706.752-3.8128-.2703-7.1514 1.4316-8.9074z" fill="#f0be33"/><g fill="#fcef01"><path d="m98.4726 129.433c.0643.8819.4902 1.1796.6543 2.0574-.0326.8066-.2283 5.5295-.2497 7.2933-.198.4636-.6408.8903-1.4684 1.5453.329-1.6681.1727-3.3847.12-5.2709-.0678-2.4252-.0135-4.8225.9438-5.6251z"/><path d="m97.3053 130.556c-1.6035 1.7154-1.6402 3.9524-1.5199 6.2308-.0848 1.9749.2453 3.6284-.2657 5.3372.5104-.3707 1.0865-.8489 1.4805-1.3925.1519-3.5162.1532-6.6593.3051-10.1755z"/><path d="m95.9218 128.848c-2.03 1.735-2.522 5.6288-2.3922 8.4061-.0915 2.4073.0417 4.7868-.5098 6.8698.492-.5506 1.4042-1.1631 1.8962-1.7138.164-4.2862.1033-9.5331 1.0058-13.5621z"/><path d="m94.1078 127.039c-2.5599 2.7377-3.2391 7.4376-3.1092 10.2149-.0916 2.4073.2675 6.7646-.284 8.8477.419-.4719 1.1098-1.0135 1.6229-1.5109.3163-.3067.2522-.5136.2784-.9783.0963-1.699.2086-3.9752.2516-6.3104.167-3.9356.4214-8.0812 1.2403-10.263z"/><path d="m92.1307 125.053c-1.5249 1.5306-2.5779 3.4811-3.133 5.5264-.6291 2.318-.6505 4.7261-.5815 6.2015-.0916 2.4073.4173 9.5465-.4777 11.672.4303-.4645 1.339-1.1219 1.8895-1.6582.1136-.1812.2166-.6829.2388-1.2407.0889-2.234.1756-6.4108.2182-8.7249.167-3.9357.7373-9.6464 1.8457-11.7761z"/><path d="m91.5331 120.657c-2.291.9332-5.2795 5.9185-5.4213 8.3323-.6291 2.318-.4998 6.7041-.4309 8.1796-.0915 2.4072.4569 11.8448-.5896 13.8475.492-.5507 1.5611-1.3926 2.0531-1.9432.2822-.2994.4346-.9539.4621-1.592.1192-2.7652.1665-8.0763.2068-10.2642-.0189-2.0279-.1145-5.3468.0547-8.2546.0502-.8652.1981-1.6858.4051-2.5233.7207-2.9156 1.9946-5.1099 3.26-5.7821z"/><path d="m100.546 138.589c.0106.594-.0164 1.2999-.0058 1.894-.4648.5362-1.317 1.6842-1.6121 1.6626 0 0 .0455-1.9433-.0313-2.0521.1729-.2295 1.6492-1.5045 1.6492-1.5045z"/><path d="m98.1991 141.08c.0088.4916.0617 1.1131.0705 1.6047-.3846.4438-1.1275 1.4312-1.3717 1.4133 0 0 .0752-1.6456.0117-1.7356.1431-.19 1.2895-1.2824 1.2895-1.2824z"/><path d="m96.2814 142.795c.0088.5762-.0136 1.6779-.0048 2.2541-.3846.5201-1.1276 1.6027-1.3718 1.5818 0 0 .0753-2.3766.0117-2.4821.1432-.2226 1.3649-1.3538 1.3649-1.3538z"/><path d="m94.3355 144.477c.0088.6503-.0137 2.5587-.0049 3.2091-.3846.5871-.9229 1.6611-1.3718 1.7481 0 0-.0139-3.595.0117-3.6905.1432-.2513 1.365-1.2667 1.365-1.2667z"/><path d="m92.1524 145.918c.0109.882-.0168 3.8437-.006 4.7257-.4751.7963-1.1402 1.8799-1.6947 1.9979 0 0-.0173-4.8759.0144-5.0056.1769-.3408 1.6863-1.718 1.6863-1.718z"/><path d="m88.1895 149.517c-.0109 1.3463-.0208 6.3894-.0317 7.7358.0713 1.0115 1.1473 2.4391 2.359 2.458 0 0-.6624-.9784-.6602-1.831.0066-3.208.0173-9.7156-.0066-9.8645-.3064.3021-1.6605 1.5017-1.6605 1.5017z"/><path d="m85.9583 151.324c-.0108 1.3852.3181 6.6483.3073 8.0336.0713 1.0407 1.2949 3.1479 2.7522 3.2063 0 0-1.2816-1.2143-1.2794-3.0083-.0001-1.0317-.0209-2.045-.05-3.4164-.0639-3.0167-.0554-6.1808-.0695-6.2857-.3064.3109-1.6606 1.4705-1.6606 1.4705z"/><path d="m106.312 123.012c.3581.0039 1.3861 1.5496 1.681 2.2469.0864.2045.0796.3751.0883.5917.0458 1.1397.0751 2.3259-.0064 3.276-.5851.9694-2.7644.6645-2.8954-.4257-.0071-.7831-.0896-1.4769-.0966-2.179-.0044-.4363.0123-.8759.0184-1.3422.0132-1.0063.3073-1.7435 1.2107-2.1677z"/><path d="m104.206 122.155c.4716.1048.5606 1.3723.5453 1.7456.0427.5663-.4013.6626-.5232 1.4775-.0738.4937-.0896 1.3933.0109 1.8766.0968.4646.3405.539.4527.8656.1455.424.201 1.468-.0241 1.472-1.0105.1329-1.5135-.1589-1.6764-.698-.1615-.3898-.1945-2.2511-.1581-3.4489.0202-.6677.0856-1.0382.3428-1.6389.3308-.7724.7096-1.5347 1.0301-1.6515z"/><path d="m102.172 123.205c.3453.0947.4841.5518.321 1.0246-.167.4043-.2339.4323-.2964.6476-.1178.3753-.0911.9137-.0862 1.4119s.0259 1.0681.1227 1.4314c.0734.3286.1154.3669.2471.7905.1905.3014.1648.8851-.0284 1.0681-.0892.0845-.2816.0685-.3917.0411-.3688-.0921-.7093-.5287-.8658-1.3455-.0295-.6574-.0915-1.2951-.1104-1.914-.023-.7562-.0224-1.7212.1042-2.4514.1701-.5119.473-.7575.9839-.7043z"/><path d="m106.358 119.254c.3215.3571.4564 1.5125.3575 2.3997-.4043.8526-1.0131 1.2526-1.5842 1.5131-.0419-.7536-.0085-1.5445-.0504-2.2981.0221-.2761 1.0328-1.55 1.2771-1.6147z"/><path d="m108.433 124.543c.7916 0 1.1177-1.0311 1.12-2.2144.0027-1.428-.4789-3.0743-1.1576-3.7315-.7466.6446-1.185 2.322-1.1568 3.7315.024 1.2052.3892 2.2144 1.1944 2.2144z"/><path d="m110.475 123.087c-.3648.004-1.4251 1.5288-1.6968 2.1808-.07.1678-.0631.312-.0701.4892-.0472 1.1696-.0789 2.4784.004 3.4446.5851.9694 2.7644.6645 2.8954-.4257.0071-.7831.0896-1.4769.0967-2.179.0044-.4363-.0124-.8759-.0185-1.3422-.0132-1.0063-.3515-1.7654-1.2107-2.1677z"/><path d="m112.581 122.23c-.4716.1048-.5605 1.3723-.5453 1.7456-.0427.5663.4013.6627.5232 1.4776.0738.4936.0897 1.3932-.0109 1.8765-.0968.4646-.3405.539-.4526.8656-.1456.424-.2011 1.4681.024 1.472 1.0106.1329 1.5136-.1589 1.6764-.698.158-.3811.1929-2.1691.1605-3.3681-.0201-.7423-.0952-1.1442-.3851-1.8123-.321-.7397-.6825-1.4467-.9902-1.5589z"/><path d="m114.614 123.28c-.3453.0947-.4841.5518-.321 1.0246.167.4043.2339.4323.2964.6476.1178.3753.0911.9138.0862 1.4119-.0049.4982-.0259 1.0681-.1227 1.4314-.0734.3286-.1154.3669-.2471.7905-.1904.3014-.1648.8851.0284 1.0681.0892.0845.2816.0685.3918.0411.3687-.0921.7092-.5287.8657-1.3455.0296-.6573.0915-1.2951.1104-1.914.023-.7562.0224-1.7212-.1042-2.4514-.1701-.5119-.473-.7575-.9839-.7043z"/><path d="m110.429 119.329c-.3215.3571-.4564 1.5125-.3575 2.3997.4043.8526 1.0131 1.2526 1.5842 1.5131.0419-.7536.0085-1.5445.0504-2.2981-.0221-.2761-1.0328-1.55-1.2771-1.6147z"/><path d="m115.991 123.219c1.18-.8198 1.6075-1.7515 1.7104-2.5714 1.471-1.0386 1.7573-2.0601 1.5069-3.1485-.3445-1.4975-1.5089-3.0672-1.0859-3.9872 1.0165-1.556 3.1081-.9769 4.3258-.3555 1.9512.7205 3.3892 2.0665 4.8386 3.9618 2.191 2.8651 3.6873 6.717 3.7981 11.0701-1.7846-4.6703-3.9062-8.2139-7.4963-8.784 2.4711 2.6534 4.9571 6.1386 4.6092 10.1926-1.45-2.8733-2.97-5.6651-5.3183-6.5786 1.367 2.0778 2.082 4.6223 2.4312 7.4287-.9758-2.2321-2.2195-4.0079-3.8741-4.8946.7552 1.6898 1.2461 3.2677 1.2663 4.9577-.7432-1.4021-1.7068-2.4091-2.8755-3.1121.4803 1.2287.6881 2.5614.7728 3.9023-.6685-1.0468-1.5902-2.293-2.2567-2.8342-.3149 1.1408-.5213 1.8511-1.0993 2.8613-.1696-1.0618-.4734-1.4572-1-1.9873.0948-2.074.0407-4.3361-.2532-6.1211z"/><path d="m116.073 129.803c-.075 2.454-.0371 4.9827-.1121 7.4367.5146.5524 1.0291.9183 1.5437 1.4707-.7519-3.8128.2703-7.1514-1.4316-8.9074z"/><path d="m118.31 129.535c-.0642.8819-.4902 1.1796-.6543 2.0574.0326.8065.2283 5.5295.2497 7.2933.5146.5524.9538.9929 1.4684 1.5453-.329-1.6681-.1726-3.3847-.1199-5.271.0677-2.4251.0134-4.8224-.9439-5.625z"/><path d="m119.477 130.658c1.6035 1.7154 1.6402 3.9524 1.5199 6.2309.0849 1.9748-.2453 3.4417.2657 5.1506-.4558-.4517-1.0246-.9408-1.4804-1.3925-.152-3.5163-.1533-6.4727-.3052-9.989z"/><path d="m120.86 128.95c2.03 1.7351 2.522 5.6288 2.3921 8.4062.0916 2.4073-.0417 4.7494.5098 6.8324-.4919-.5506-1.4042-1.1631-1.8962-1.7137-.164-4.2862-.1033-9.4958-1.0057-13.5249z"/><path d="m122.674 127.141c2.5599 2.7378 3.239 7.4376 3.1091 10.215.0916 2.4073-.2675 6.7646.284 8.8476-.419-.4718-1.1097-1.0134-1.6229-1.5108-.3162-.3067-.2521-.5136-.2784-.9784-.0962-1.6989-.2086-3.9751-.2515-6.3103-.1671-3.9356-.4214-8.0812-1.2403-10.2631z"/><path d="m124.651 125.156c1.5249 1.5306 2.578 3.481 3.133 5.5264.6291 2.318.6506 4.7261.5816 6.2015.0916 2.4073-.5375 9.5789.4776 11.672-.4303-.4645-1.3267-1.138-1.8894-1.6583-.2507-.1918-.2167-.6828-.2388-1.2406-.0889-2.234-.1757-6.4108-.2183-8.725-.167-3.9356-.7373-9.6463-1.8457-11.776z"/><path d="m125.249 120.759c2.291.9331 5.2795 5.9185 5.4213 8.3322.6291 2.3181.4999 6.7042.4309 8.1796.0916 2.4073-.4569 11.8449.5896 13.8475-.4919-.5506-1.5611-1.3925-2.0531-1.9431-.2821-.2995-.4346-.9539-.4621-1.592-.1191-2.7652-.1665-8.0764-.2067-10.2642.0188-2.028.1144-5.3468-.0548-8.2546-.0502-.8652-.1981-1.6858-.4051-2.5234-.7206-2.9155-1.9945-5.1098-3.26-5.782z"/><path d="m116.237 138.691c-.0107.594.0164 1.2999.0058 1.8939.4647.5363 1.3169 1.6842 1.612 1.6627 0 0-.0454-1.9433.0314-2.0521-.173-.2295-1.6492-1.5045-1.6492-1.5045z"/><path d="m118.583 141.182c-.0088.4915-.0617 1.1131-.0705 1.6047.3846.4438 1.1275 1.4311 1.3718 1.4133 0 0-.0753-1.6456-.0117-1.7356-.1432-.19-1.2896-1.2824-1.2896-1.2824z"/><path d="m120.501 142.898c-.0088.5761.0136 1.6778.0048 2.254.3847.5202 1.1276 1.6028 1.3718 1.5819 0 0-.0753-2.3766-.0117-2.4821-.1431-.2227-1.3649-1.3538-1.3649-1.3538z"/><path d="m122.447 144.579c-.0088.6503.0136 2.5587.0048 3.209.3846.5872.9229 1.6612 1.3718 1.7482 0 0 .014-3.595-.0117-3.6906-.1432-.2512-1.3649-1.2666-1.3649-1.2666z"/><path d="m124.63 146.02c-.0109.882.0169 3.8436.006 4.7257.4752.7963 1.1402 1.8799 1.6948 1.9979 0 0 .0172-4.876-.0145-5.0056-.1769-.3408-1.6863-1.718-1.6863-1.718z"/><path d="m128.593 149.62c.0109 1.3464.0208 6.3895.0317 7.7359-.0713 1.0115-1.1473 2.4391-2.3589 2.4579 0 0 .6623-.9783.6601-1.831-.0066-3.2079-.0173-9.7156.0066-9.8644.3064.3021 1.6605 1.5016 1.6605 1.5016z"/><path d="m130.824 151.426c.0109 1.3852-.3181 6.6483-.3073 8.0336-.0712 1.0407-1.2949 3.1479-2.7522 3.2062 0 0 1.2816-1.2143 1.2794-3.0082.0002-1.0317.0209-2.045.05-3.4164.064-3.0167.0554-6.1808.0696-6.2857.3064.3108 1.6605 1.4705 1.6605 1.4705z"/><path d="m105.347 151.449c.0074.7979.0141 3.0027.0214 3.8006.0301.8528-.4376 2.0749-1.7575 1.9702 0 0 .6775-.5856.7194-1.7106-.0045-1.901.1012-4.6377.1174-4.726.2076.1791.8993.6658.8993.6658z"/><path d="m106.989 152.228c.0078.9261-.0227 4.1854-.0148 5.1116-.0515.6957-.6507 1.7974-1.9119 1.8104 0 0 .6848-1.1394.7295-2.0602.1419-2.061.0702-5.3084.0875-5.4108.2214.2078 1.1097.549 1.1097.549z"/><path d="m111.463 151.451c-.0073.7978-.0141 3.0773-.0214 3.8752-.03.8528.4377 2.0749 1.7575 1.9702 0 0-.6775-.5856-.7194-1.7106.0046-1.901-.1012-4.7124-.1173-4.8006-.2077.179-.8994.6658-.8994.6658z"/><path d="m109.859 152.267c-.0078.926-.015 4.2229-.0228 5.149.0515.6957.6507 1.7974 1.9118 1.8104 0 0-.6847-1.1394-.7294-2.0601-.1419-2.0611-.0703-5.3832-.0876-5.4856-.2214.2078-1.072.5863-1.072.5863z"/><path d="m107.617 152.27c.3877.0427 1.2545.0324 1.6481 0v4.0826c0 .594.234 1.5107.2281 2.093-.003.3015-.0477.6033-.1528.9049-.2616.6222-.5066.8591-.8798 1.0079-.3966-.1637-.5935-.3857-.8812-1.0079-.1326-.2907-.1696-.5862-.1861-.8865-.0334-.6062.2237-1.5037.2237-2.1114 0-1.5102 0-2.5725 0-4.0826z"/><path d="m99.7056 153.942c-1.037-.4043-1.1258-1.3136-.339-1.9704.2921.1484.5203.3429.6553.6046-.5328.3264-.6382.7817-.3163 1.3658z"/><path d="m98.8997 150.807c-.0764-.4946-.117-.855-.0151-1.0972 0 0 .4555-.5187.7532-.5448.4823-.0296.8025.5495.7757 1.0524-.1705.2789-.2869.3874-.5874.5374-.2305.0875-.5288.1672-.9264.0522z"/><path d="m99.8713 147.538c-.3955.177-1.3102.1098-1.52.2441-.0226.112-.009 1.0546-.009 1.0546.0739.1967.2592.1611.8571.2662.519-.4329.7391-.9979.6719-1.5649z"/><path d="m96.9564 149.294c-.3957-.6786.1895-1.4156.9906-1.5661.1435.215.0365.6238.0271.8566-.4959.0202-1.0108.1821-1.0177.7095z"/><path d="m97.6735 151.957c-.6702-.6065-.1227-1.5405.6227-1.7548.1795.0306.2862.4649.2843.6359-.4387.4983-.9298.3454-.907 1.1189z"/><path d="m100.064 152.158c-.1789-.479-.0628-.6704-.0634-.9595 0 0 .6536-.5782.9513-.6043.3677.1295.6921.5809.626.9741-.1706.2789-.287.3875-.5875.5374-.2305.0875-.5288.1673-.9264.0523z"/><path d="m100.892 150.271c-.0514-.5358.3058-1.1113 1.1796-1.3837.3677.1295.771.62.7048 1.0133-.0894.6217-1.2775.3065-1.8844.3704z"/><path d="m101.386 147.521c-.2227-.1207-.471-.119-.7128-.0079-.1089.1159-.2415.1301-.3287.3042-.0932.4314-.3557.4591-.3292.758-.0261.1802.2225.5186.2225.5186.0739.1967.4206.0174.8795.0309.0635-.2559.5479-.4201.5549-.795.0235-.4288-.2693-.5063-.2862-.8088z"/><path d="m117.064 153.948c1.0369-.4043 1.1258-1.3136.3389-1.9704-.292.1484-.3955.2886-.6082.7258.5328.3265.5911.6605.2693 1.2446z"/><path d="m117.907 150.776c.0764-.4946.117-.8551.0151-1.0972 0 0-.4555-.5187-.7532-.5449-.4823-.0295-.8025.5496-.7757 1.0524.1705.279.2869.3875.5874.5374.2305.0875.5288.1673.9264.0523z"/><path d="m116.924 147.664c.5248-.1588 1.3215-.0475 1.5313.0868.0226.1119.009 1.0545.009 1.0545-.0739.1968-.4284.4081-.8571.2663-.519-.4329-.7504-.8406-.6832-1.4076z"/><path d="m120.039 149.337c.3957-.6786-.1896-1.4156-.9906-1.5661-.1435.215-.0365.6238-.0271.8566.4959.0202 1.0108.1821 1.0177.7095z"/><path d="m119.049 151.925c.8114-.6345.3204-1.4846-.6228-1.6802-.1794.0306-.1152.4467-.1133.6178.4387.56.7137.2364.7361 1.0624z"/><path d="m116.667 152.164c.1788-.4789.3169-.6144.214-.9221 0 0-.7289-.6528-1.0266-.6789-.3677.1294-.6921.3383-.626.9741.1706.2789.287.3874.5875.5374.2305.0875.4535.2046.8511.0895z"/><path d="m115.915 150.24c.0514-.5359-.3058-1.1113-1.1796-1.3837-.3677.1295-.771.62-.7048 1.0132.0894.6218 1.2775.3065 1.8844.3705z"/><path d="m116.134 147.482c.2358.2509.6914.683.6579 1.0622.0261.1802-.2225.5185-.2225.5185-.0739.1968-.4206.0175-.8795.031-.0635-.256-.5479-.4202-.5549-.795-.0316-.5772.4072-1.0886.999-.8167z"/><path d="m107.363 110.941c.4431.0911.8393.1476 1.2001.1822.9974.0957 1.724.0242 2.4235.0549-.2559.4787-.5262.7217-.8647 1.0266.3746.3385.5639.5735.6732 1.0398.0476 4.9127 3.7478 9.7007 5.4527 6.7688.8855.6255.5046 2.1739-.9266 2.7356-.5582.219-1.5995.312-2.0321-.1456-1.2268-1.2969-1.5788-2.6216-3.0032-4.3143-.2462.4472-.5863.9326-.8514 1.2669-.5526-.7779-.7532-1.4648-1.0732-2.1816-.3106.696-.7006 1.5199-1.2514 2.2121-.311-.3652-.5242-.8092-.7861-1.3552-.5365.8064-1.0779 1.635-1.6761 2.4547-.4765.6531-.9026 1.2434-1.456 1.855-.3927.4341-.9561.4864-1.5331.327-.6455-.1783-1.1205-.6608-1.565-1.2319-.6054-.7778-.3641-1.4692.186-1.8362.2352.8074.7986 1.0839 1.4934.9679 1.8461-.308 4.6199-3.3869 4.6293-6.639.298-.2696.6605-.422.9368-.4573-.0672-.2277-.0758-.2862-.0446-.4674-.5881-.3708-.5724-.8237-.5077-1.2069.1744.0406.3562.047.5305.0303.1144.3424.3505.548.7772.7293.5605-.2843.913-.6434 1.0057-1.0366-.6437.0468-1.4861.1355-1.7303-.244.0102-.2032-.0172-.3319-.0069-.5351z"/></g><path d="m108.058 111.985c.1309 0 .237.1052.237.235 0 .1297-.1061.2349-.237.2349s-.2371-.1052-.2371-.2349c0-.1298.1062-.235.2371-.235z" fill="#008fc9"/></g></svg>