<svg height="600.00006" width="542.99994" xmlns="http://www.w3.org/2000/svg"><g fill-rule="evenodd" transform="matrix(4.43017194 0 0 4.42987501 -208.232841 -365.143048)"><g stroke-width=".3528"><g stroke="#1f1a17"><path d="m57.2001 136.553-.561-2.02-.3366-3.59 1.0097-2.132 1.2341-8.302-.2243 6.956.5609-.785 1.5707-9.424-.6732 8.863.8976-2.02 2.2438-10.209-1.5707 9.312 1.0097-1.683 2.6926-9.985-1.9072 9.087 1.0097-1.795 3.2535-9.536-2.356 8.975 4.3754-10.882-2.8047 9.2.8975-1.122 4.0389-9.985-2.8048 8.863 5.3851-10.21-3.1346 8.639 4.8175-9.312-2.6005 7.61 4.7321-7.834-3.0291 6.395 5.9461-6.507-5.1608 6.507 6.6193-6.058-5.4974 5.833 7.629-5.16-6.6193 5.312 6.2827-3.181-6.3949 3.927 6.7315-2.356-6.8369 3.563 5.715-1.768-6.904 3.518 5.3333-1.499-7.068 3.029 5.4973-.897-6.1731 2.173-1.4106 1.352 5.6765-1.618-7.068 3.254-1.2341 1.346 5.9461-2.468-5.9855 3.082-.9636 1.01 4.4809-1.736-5.8339 3.702-.7854 1.122 5.0486-2.58-5.5107 3.715-.4027.951 3.6696-2.31-5.0025 4.045 3.0953-1.465-4.6266 4.046 3.3925-2.139-3.8145 3.927-1.2341 1.458-1.4585 1.122z" fill="#e77817"/><g fill="#f8c300"><path d="m57.308 130.477c.3954 0 .718.6988.718 1.5556s-.3226 1.5556-.718 1.5556-.718-.6988-.718-1.5556.3226-1.5556.718-1.5556z"/><path d="m62.0859 133.519c-.1087-.4059-.9145-.5447-1.7937-.3091s-1.5076.7587-1.3989 1.1645.9145.5446 1.7937.309c.8792-.2355 1.5076-.7587 1.3989-1.1644z"/><path d="m60.1907 130.507c.3848.2221.3061 1.0833-.1753 1.917-.4813.8337-1.1877 1.3324-1.5725 1.1103-.3847-.2222-.306-1.0833.1753-1.917.4814-.8337 1.1878-1.3325 1.5725-1.1103z"/><path d="m59.1191 127.027c.3955 0 .718.6989.718 1.5556 0 .8568-.3225 1.5557-.718 1.5557-.3954 0-.718-.6989-.718-1.5557 0-.8567.3226-1.5556.718-1.5556z"/><path d="m63.9545 130.098c-.1087-.4058-.9144-.5446-1.7937-.309-.8792.2356-1.5076.7587-1.3988 1.1645.1087.4057.9144.5446 1.7937.309.8792-.2356 1.5075-.7587 1.3988-1.1645z"/><path d="m62.0018 127.23c.3848.2221.3061 1.0833-.1753 1.917-.4812.8337-1.1877 1.3325-1.5724 1.1103-.3848-.2222-.3061-1.0833.1752-1.917.4814-.8337 1.1878-1.3325 1.5725-1.1103z"/><path d="m61.487 123.802c.3949.0207.6804.7354.6356 1.5911-.0449.8556-.4036 1.5366-.7984 1.5159-.3949-.0207-.6805-.7354-.6356-1.591.0448-.8557.4035-1.5367.7984-1.516z"/><path d="m65.6285 126.749c-.2055-.3664-1.0206-.3019-1.8144.1435s-1.2736 1.1075-1.068 1.4739c.2055.3663 1.0206.3019 1.8144-.1435.7938-.4455 1.2736-1.1076 1.068-1.4739z"/><path d="m64.3552 124.155c.3726.242.2489 1.0979-.2754 1.9053-.5243.8073-1.2558 1.2684-1.6285 1.0264-.3726-.2419-.2489-1.0977.2754-1.9051s1.2558-1.2685 1.6285-1.0266z"/><path d="m63.461 120.91c.3702 0 .6722.6542.6722 1.4562 0 .8021-.302 1.4563-.6722 1.4563-.3701 0-.6721-.6542-.6721-1.4563 0-.802.302-1.4562.6721-1.4562z"/><path d="m67.4771 123.462c-.2102-.3323-.9689-.2322-1.6892.2231-.7202.4552-1.1364 1.0977-.9262 1.4301.2101.3325.9689.2323 1.6892-.223.7202-.4553 1.1363-1.0977.9262-1.4302z"/><path d="m66.1597 121.1c.3601.2079.2864 1.0141-.1642 1.7945s-1.1118 1.2473-1.4721 1.0393c-.3601-.2079-.2864-1.0141.1642-1.7945.4505-.7804 1.1118-1.2473 1.4721-1.0393z"/><path d="m65.6742 118.048c.3389 0 .6154.5991.6154 1.3335 0 .7345-.2765 1.3335-.6154 1.3335-.339 0-.6155-.599-.6155-1.3335 0-.7344.2765-1.3335.6155-1.3335z"/><path d="m69.3516 120.385c-.1924-.3044-.8872-.2127-1.5468.2043-.6595.4169-1.0405 1.0051-.8481 1.3095s.8873.2127 1.5468-.2042 1.0405-1.0052.8481-1.3096z"/><path d="m68.1452 118.222c.3298.1904.2623.9285-.1502 1.6432-.4126.7146-1.0182 1.1422-1.348.9518-.3298-.1905-.2623-.9286.1503-1.6433.4126-.7146 1.0181-1.1421 1.3479-.9517z"/><path d="m68.3753 115.189c.3109.0599.4585.6583.3287 1.3319-.1299.6737-.4894 1.1743-.8003 1.1143-.311-.0599-.4587-.6582-.3288-1.3319s.4894-1.1743.8004-1.1143z"/><path d="m71.3351 117.983c-.1226-.3133-.7762-.352-1.4549-.0863-.6787.2658-1.1322.738-1.0095 1.0513.1226.3132.7762.352 1.4549.0862s1.1322-.738 1.0095-1.0512z"/><path d="m70.6111 115.786c.2688.2329.0764.8981-.4284 1.4807-.5049.5825-1.1359.8676-1.4047.6346-.2689-.233-.0765-.8982.4284-1.4807.5048-.5826 1.1359-.8676 1.4047-.6346z"/><path d="m70.9771 113.128c.2658.0741.3519.6042.1915 1.1802s-.508.9854-.7739.9114-.3519-.6042-.1914-1.1802c.1603-.576.508-.9854.7738-.9114z"/><path d="m73.3508 115.764c-.0844-.2807-.6494-.3605-1.2577-.1776s-1.0356.5611-.9511.8418c.0844.2808.6494.3605 1.2576.1776.6083-.1829 1.0356-.561.9512-.8418z"/><path d="m72.8771 113.804c.2171.2214.0029.7855-.4767 1.2559-.4797.4703-1.0479.6734-1.265.452s-.0029-.7856.4767-1.2559 1.0479-.6734 1.265-.452z"/><path d="m73.1555 111.744c.2192.061.2901.498.1579.9728-.1323.4748-.4188.8123-.6379.7512-.2192-.061-.2901-.498-.1578-.9728.1321-.4747.4187-.8122.6378-.7512z"/><path d="m75.1121 113.917c-.0696-.2314-.5353-.2972-1.0367-.1465-.5014.1508-.8536.4625-.784.6939s.5353.2972 1.0367.1464c.5014-.1507.8536-.4625.784-.6938z"/><path d="m74.7216 112.301c.179.1825.0024.6476-.3929 1.0352-.3954.3877-.8638.5551-1.0427.3726-.1789-.1824-.0024-.6475.3929-1.0352.3954-.3876.8638-.555 1.0427-.3726z"/><path d="m75.4083 110.084c.2078.0925.2137.5352.0131.9854s-.5336.7418-.7414.6493c-.2078-.0926-.2137-.5353-.013-.9855.2005-.4501.5336-.7418.7413-.6492z"/><path d="m77.0242 112.521c-.0348-.2391-.4858-.3727-1.0039-.2972-.5181.0754-.9123.332-.8775.5711s.4858.3726 1.0039.2972.9123-.3319.8775-.5711z"/><path d="m76.8754 110.866c.1502.2068-.0927.6409-.5408.9662-.448.3254-.936.4221-1.0862.2153-.1501-.2068.0929-.6408.5409-.9662.4481-.3254.936-.422 1.0861-.2153z"/></g><path d="m84.8183 203.97 1.5633 3.9983c.3948-1.4237.8059-2.933 1.3925-4.8808-.6389.2419-1.1919.7915-1.866.9465-.337.0775-.7936.128-1.074-.0691z" fill="#fff"/><path d="m87.7745 203.087c-.639.2418-1.1923.7918-1.8664.9468-.3647.0839-.8694.1361-1.1394-.1229-.3483-.3341-.1424-1.3346-.5788-1.1286l-7.0892 3.3466c-1.3846-.5334-4.6231-.562-4.2534-1.9988 3.819-3.9606 2.6963-2.7889 5.7474-7.6066-2.284.6779-8.4151 2.2831-10.191 2.3036-2.9143.0337-5.4892-4.2781-5.6816-7.1864-.3785-5.7188 1.997-10.5519 3.1846-16.5386.2556-1.2886 1.9968 1.7117 2.0926 3.0219.159 2.1732-.9433 4.2561-1.3278 6.4009-.3421 1.9084-1.1805 3.8433-.8512 5.7539.3278 1.9013 1.3976 3.7059 2.7238 5.107.8099.8557 2.134 1.1096 3.3026 1.2598.9363.1203 2.0024.0409 2.7918-.4767 2.0696-1.3571 3.0014-3.0446 5.2665-5.0705 1.1856.6302 2.7054 1.8436 3.0593 2.8317-.2201 2.8808-1.968 6.0659-3.5933 7.5161 2.7257-.8386 3.8369-3.1756 6.0264-4.324.3376-.1771.7549.337.9192.681.3513.7353-.4191 2.213.3953 2.0345 2.9442-.6452 6.1-2.8233 8.9336-1.7962-.4548 2.3997-.3221 3.7349-.7498 4.6492-2.1012-.6148-4.1963-1.3793-6.2823-2.3017-.3182.9933-.5937 1.8838-.8389 2.698z" fill="#da251d"/><path d="m80.1403 209.683-1.7262-2.2156-1.2881-1.3397-.0028-.0089 7.0667-3.336c.4364-.206.2305.7945.5788 1.1286.0206.0196.0423.0376.0653.0538l-.0157.0051 1.1135 2.8479c-.7153.4874-1.3354.9898-2.2361 1.4478-.9765.4966-2.3889 1.0735-3.4269 1.4099-.0808.0045-.1285.0071-.1285.0071zm4.7037-5.711c.0055.0038.0111.0075.0168.0111-.0057-.0036-.0113-.0073-.0168-.0111zm.0176.0115c.0064.0041.0131.008.0197.0118-.0066-.0038-.0133-.0077-.0197-.0118zm.0341.0197c.0192.0103.0391.0198.0595.0283-.0204-.0085-.0402-.0179-.0595-.0283zm.0869.0392c.0057.0022.0116.0042.0174.0063-.0058-.0021-.0116-.0041-.0174-.0063z" fill="#fff"/><path d="m85.9318 206.818.4496 1.1502c-.173.6592-.3657 1.3124-.5482 1.9389l-2.3694 1.2186c-.9156.4709-2.3856-.2877-3.2977-1.417 1.0459-.3306 2.5205-.9296 3.5296-1.4428.9006-.4579 1.521-.9605 2.2361-1.4479z" fill="#28166f"/><path d="m86.374 197.905.5372-2.1641c.6395.3376 1.6058.361 1.9186 1.013.3547.7392.0374 1.6197-.0646 2.455-.6913.2521-1.3778.4811-2.0533.6291-.7725.1693-.1192-1.1515-.3496-1.9154z" fill="#28166f"/><path d="m86.8959 195.725c-.2047-.0767-.3913-.1356-.614-.2302-.2227-.0947-.4572-.1864-.7214-.3377-.8796-.5038-1.6287-.8674-2.5939-1.2432h-.0083c.002.0054.0041.0107.006.016-.2201 2.8808-1.968 6.0659-3.5933 7.5161 2.7257-.8386 3.8369-3.1756 6.0264-4.324.3376-.1771.7549.337.9192.681.0181.0377.0333.0774.0459.1188l.0115-.0173.5079-2.0462z" fill="#fff"/><path d="m66.0791 174.794c-.6715-1.0818-1.1185-1.8305-1.4696-3.0522-.4036-1.4044-.7895-2.7388-1.0174-4.1826-.2035 1.782-.4911 2.8939-1.3565 4.5217-2.7367 5.1479-3.8669 8.3249-3.7304 14.3.0282 1.2346-.3504 2.2027.1695 2.6565 1.524 1.3303 3.6739 3.6992 4.6913 5.2.0012-.0075.0023-.0148.0035-.0223-.3651-.8847-.595-1.7814-.6474-2.5741-.3785-5.7188 1.997-10.5519 3.1846-16.5386.0338-.1705.0938-.2652.1724-.2994z" fill="#fff"/><path d="m58.4432 188.806c-.7768-.2785-1.8532-1.5144-2.3556-2.3556-1.9869-3.3271.1322-10.3896 1.4807-13.5278.5842-1.3593 1.7609-3.6676 2.2883-4.7111.5273-1.0435.8254-.9662.8749-1.548.1947-2.2898-2.6851-2.7414-4.1727-3.3651-1.8576-.7788-2.7682-2.2105-4.3747-3.2305-.7212-.4579-1.2095-.3245-1.8844-.6057-2.1274-.8862-2.658-1.2758-3.0286-3.7016-.3101-2.0291.0963-4.3922 2.3555-4.7785 2.9308-.5011 5.7582.1534 8.5474 1.0769 1.6664.5516 2.6867.7035 4.8056 1.8054 2.1189 1.1018 6.7564 1.6265 8.3183 1.8962 1.562.2696.7787.1242 1.0769 0 .323-.1345.9423-.878 1.4133-1.1442.2581-.1458.6171-.0539.6731-.4038.0559-.3498-.3247-.8036-.4039-1.2787-.0791-.4751-.3095-.9908-.0673-1.548.7985-1.8364 3.1129-2.3488 4.9131-2.0863.581.0847 2.2436.4397 2.4902 1.0768.2035.5258-.4415 2.3002-.0673 2.5575.2482.1707 2.5554-.867 2.894-1.0095.6399-.2694 1.5287-2.3643 2.019-.9423.4904 1.4221.7737 5.2502 0 6.7976-.7737 1.5473-2.642.4173-3.567.3365-.9249-.0809-1.3528-.4594-1.8171-.8077-.4644-.3482-.6569-.6373-.875-1.2114s-.2173-1.6642-.4038-2.1537c-.1864-.4894-.3666-.5836-.673-.673-.6878-.2005-1.1117.1273-1.0095.7403.1016.61.615 2.435.673 3.0959.0934 1.0657-.9852.5513-1.0769 1.2115-.0657.4738.4391 1.3747.4039 1.9517-.0353.5771-.1722 1.0887-.6058 1.3461-2.5736 1.528-13.4337-3.3403-15.8833-4.1728-2.8724-.9761-3.8647-1.6282-4.913-1.8844-1.7384-.4249-1.548 1.9347-1.0096 3.0286.3901.7924 1.0894 1.1943 2.0191 1.7498 1.8267 1.0915 3.8806 1.1011 4.9804 3.1632.5451 1.0223.9955 3.1148 1.0768 4.3074.0005.0073.001.0146.0015.0218-.2025 1.6275-.5033 2.7072-1.3241 4.251-2.7367 5.1479-3.8669 8.3249-3.7304 14.3.0245 1.0714-.2574 1.942.0075 2.4501-.0225-.0079-.0455-.016-.0695-.0246z" fill="#28166f"/><path d="m47.2712 153.53c.0159-2.0213 1.0987-5.8992.6729-7.5951.6282-.7958 2.142-.8393 3.0959-1.0096 2.1452-.383 3.8961.3446 5.8553 1.1442 4.6774 1.9089 9.0097 4.5892 13.7296 6.5283 1.4497.5955 1.132.8558 1.548.4038.7572-.8229-.4625-2.9997-.4038-3.9708.0257-.4262.2468-.1459.5384-.3365.2916-.1907.9521-.3384 1.2114-.8077.2594-.4693.2589-1.0996.2019-1.7498-.0969-1.1052-.9431-2.3749-.6057-3.4997.7915-2.6393 6.3883-3.5991 7.3359-.6058.2211.6984.1683 1.4471.3366 2.894.1682 1.447.9563 4.4227.673 5.788-.0092.0442-.0209.0867-.0338.1281.0142-.1922.0087-.3554-.0335-.4646-.2466-.6371-1.9092-.9921-2.4902-1.0768-1.8002-.2625-4.1146.2499-4.9131 2.0863-.2422.5572-.0118 1.0729.0673 1.548.0792.4751.4598.9289.4039 1.2787-.056.3499-.415.258-.6731.4038-.471.2662-1.0903 1.0097-1.4133 1.1442-.2982.1242.4851.2696-1.0769 0-1.5619-.2697-5.798-.7944-8.0373-1.6554s-3.4203-1.4946-5.0866-2.0462c-2.7892-.9234-5.6166-1.578-8.5474-1.0769-1.4392.2461-2.1262 1.2944-2.3554 2.5475z" fill="#fff"/><path d="m81.4268 150.841c-.0539.7329-.3971 1.8897-.1008 2.0934.2482.1707 2.5554-.867 2.894-1.0095.6399-.2694 1.5287-2.3643 2.019-.9423.1644.4767.3053 1.2238.3911 2.0648l1.8978-.9195-1.9524-5.5199-5.7648-1.5012c.2066 1.5017.9218 4.2961.6499 5.6066-.0092.0441-.0209.0867-.0338.1281 0-.0002 0-.0004 0-.0005z" fill="#fff"/><g fill="#da251d"><path d="m47.9905 145.879c-.1317-.3619-.2658-1.0275-.3829-1.5601-.2608-1.1863-.9071-2.7529.673-3.2305 3.8698-1.1697 8.351.8436 11.7779 2.4229 3.5548 1.6383 5.5949 3.326 9.6242 2.0864 1.587-.4883 2.0728-1.3854 3.4461-1.6685.1726.7494.531 1.5107.592 2.2069.057.6502.0575 1.2805-.2019 1.7498-.2593.4693-.9198.617-1.2114.8077-.2916.1906-.5127-.0897-.5384.3365-.0587.9711 1.161 3.1479.4038 3.9708-.416.452-.0983.1917-1.548-.4038-4.7199-1.9391-9.0522-4.6194-13.7296-6.5283-1.9592-.7996-3.7101-1.5272-5.8553-1.1442-.9313.1663-2.396.2118-3.0495.9544z"/><path d="m73.0478 143.512c-.2467-1.4358-.7403-3.2311-.7403-4.3074 0-2.0333 1.9123-3.0501 3.6343-3.7016 1.5189-.5746 2.9288-.02 4.1054 1.0096.859.7515.7852 1.9891.8077 3.0286.0112.5169-.0122.8556-.0673 1.2787l-.2019 1.5479-.0465.0119c-.0237-.1193-.0522-.2346-.0882-.3484-.9476-2.9933-6.5444-2.0335-7.3359.6058-.0851.284-.0949.5773-.0603.8748z"/><path d="m80.813 140.607 6.1664 1.3566-.2861 4.9769-.1178-.333-5.7648-1.5012c.0254.1855-.0196-.1508-.0231-.1814-.1409-1.211-.127-1.933-.2484-2.5456l.0465-.0119.2019-1.5479c.0095-.0728.0177-.1433.0254-.2125z"/></g><g fill="#e77817"><path d="m52.8757 140.938c-.3485-.8268-.7055-1.6589-.9199-2.4047-.6557-2.2808-.3389-3.912-.0394-6.2262.5031 1.7979.6154 3.7549 1.5093 5.3938l2.1547 3.9505c-.8884-.3004-1.7959-.5513-2.7047-.7134z"/><path d="m56.0164 141.803c-.5946-2.4025-1.1733-4.7295-1.381-7.2104-.2417-2.8883-.0064-5.0606.5123-7.8814.0466 2.51-.1884 5.4016.4729 7.8419l1.1428 4.2166.5517-2.2068.0747-.056 1.7049-.4092-1.0703 1.7262c.5386-.3547.9187-.538 1.6157-1.064 1.7589-1.3273 2.6291-2.1921 3.8225-4.0195-.3022.9458-.339 1.8361-.9064 2.8373-1.0271 1.8127-3.6629 3.3674-4.3741 5.0441l-.7356 1.7339c-.468-.1928-.9456-.3792-1.4301-.5527z"/><path d="m57.9013 142.547c.8884-.5251 1.9576-1.7711 2.9907-3.025s1.5132.2581 1.5655.8698c.1429 1.6674-.527 2.6419-.9857 4.1168-.8502 2.7335-.5269 5.5803-.3769 6.1752.1621.6429-.502-1.3939-.6668-2.1454-.3741-1.7061-.4872-3.4738.087-5.1605l.4639-1.3626c-.5026.5605-.6212 1.107-1.0866 1.4098-.7365-.3264-1.3524-.596-1.9911-.8781z"/><path d="m57.2401 173.599-1.626-2.0202-1.7246-1.1826-.6898-.2956v.9362l.4927 2.1188.7884 2.9564v1.8231l-.2956 2.5622-.1971-2.5622-.6406-2.513-.7884-2.6115-.542-2.2173v-1.7738l.2464-.2957.8869.0493 1.2319.8869 1.4289.8377-1.2319-1.3797-1.5767-1.8724-1.8724-1.7738-1.7246-2.513-1.1826-3.9419 2.7594 4.4839 2.9564 2.4144 1.3304 1.5275s-.9362-1.8231-1.0348-2.0695c-.0985-.2464-1.2318-2.5622-1.2318-2.5622l-1.9217-4.7796 1.429 1.971 1.0347 1.626.8869 1.7246.7884 1.3797-.1478-1.4783-1.0348-4.2375-1.3304-2.9072-.197-1.1825 1.9216.3449.0986 1.6753.4927 1.7739.7391 3.0057.4435-.7392.9855-3.0549.0985-1.8724 1.8724.7884-.8376 4.1882-.7884 3.3506.0492 1.971.0986 1.1826.4927-2.8086.9855-2.8087.5913-.3449 3.7448 13.4518-1.1333-2.6608-.9855-1.5275s-1.1333-1.7246-1.1333-1.971c0-.2463-.5913-2.3158-.5913-2.3158l-.3941.9855-.2957 1.626-.1971 1.4289z"/><path d="m56.6312 175.443c-.7565-1.4546-2.1747-3.8796-2.1504-3.6179.2073 2.23.5446 3.4929 1.5947 5.5183.1724-.6618.3615-1.3012.5557-1.9004z"/><path d="m77.9844 197.694c-.4599-.6077-.9396-.9348-1.3797-1.8232-.44-.8883-.5578-1.8627-1.2318-3.4491-.674-1.5865-2.1846-4.7057-2.8086-6.0607-.6241-1.355-.6659-1.3623-.9362-2.0695l-1.9217-5.0259c.0812 2.3942.2791 4.0191 1.1333 6.307.4606 1.2338 1.56 2.5514 1.7246 3.9912l.1971 1.7246c-.705-1.3486-1.8539-3.1203-2.0695-4.6317-.3758-2.6341-2.6802-4.5365-4.4347-6.2578.5454 1.7003 1.7306 3.5165 2.1188 5.1245l.6898 2.8578-1.084-1.4289-1.3304-2.5622-.4434 2.4637 1.8231 2.5622-2.2666-.7391-.0493 1.0347.0986.9362 5.8635 2.2666-5.2723-.0492c.3121.8212.6319 1.7726.9362 2.4636.3044.6911.4769 1.1948.887 1.6753l4.5824 5.3709c-.5248-2.428-1.3752-3.4896-3.0549-5.3709-.4109-.4601-.6357-.6969-.7884-.9854s-.0604-.4607-.0986-.6899l-.1478-.8869c2.2338.6242 4.9634.3367 6.7012 1.8724l2.1188 1.8724z"/><path d="m77.4424 198.384c-2.5685-.5298-4.5389-.7395-6.5534-2.5622l-1.0348-.9362c1.7401 2.4699 3.3163 4.7394 6.7012 4.9273z"/><path d="m79.3148 195.575c-.2628-.3613-.5162-.5972-.7884-1.084-.2723-.4868-.4353-.9937-.8377-1.8231-.9459-1.9498-1.6251-3.2084-3.0549-4.8289.2792.8377.5912 1.741.8376 2.513.4447 1.3934.6815 2.5705 1.626 3.7448l1.8232 2.2666z"/><path d="m100.92 204.046c-.978-1.3969-2.1223-2.982-2.5365-3.7403-.8325-1.5242 2.8328-.542 3.7941-.542 2.4659 0 3.6553.1505 6.1099.8869-2.3502.6651-4.1357.7956-6.6027.8869.7957 1.5603 1.2386 2.0072 2.4686 2.9114-1.0784-.0975-2.1562-.2318-3.2334-.4029z"/><path d="m99.9447 203.881c-1.3734-1.3952-2.7328-2.7326-4.9116-2.6883l-2.4144.0493c.2488.3199.6085.698 1.025 1.0646 2.0946.6733 4.196 1.1957 6.301 1.5744z"/></g></g><g stroke="#1f1a17"><path d="m159.375 136.553.561-2.02.337-3.59-1.01-2.132-1.234-8.302.225 6.956-.561-.785-1.571-9.424.673 8.863-.897-2.02-2.244-10.209 1.57 9.312-1.009-1.683-2.693-9.985 1.907 9.087-1.009-1.795-3.254-9.536 2.356 8.975-4.375-10.882 2.804 9.2-.897-1.122-4.039-9.985 2.805 8.863-5.385-10.21 3.134 8.639-4.817-9.312 2.6 7.61-4.732-7.834 3.029 6.395-5.946-6.507 5.161 6.507-6.619-6.058 5.497 5.833-7.629-5.16 6.619 5.312-6.282-3.181 6.395 3.927-6.732-2.356 6.837 3.563-5.715-1.768 6.904 3.518-5.333-1.499 7.068 3.029-5.498-.897 6.173 2.173 1.411 1.352-5.676-1.618 7.068 3.254 1.234 1.346-5.946-2.468 5.985 3.082.964 1.01-4.481-1.736 5.834 3.702.785 1.122-5.049-2.58 5.511 3.715.403.951-3.67-2.31 5.003 4.045-3.095-1.465 4.626 4.046-3.392-2.139 3.814 3.927 1.234 1.458 1.459 1.122z" fill="#e77817"/><g fill="#f8c300"><path d="m159.268 130.477c-.3955 0-.718.6988-.718 1.5556s.3225 1.5556.718 1.5556c.3954 0 .7179-.6988.7179-1.5556s-.3225-1.5556-.7179-1.5556z"/><path d="m154.49 133.519c.1087-.4059.9144-.5447 1.7937-.3091.8792.2356 1.5075.7587 1.3988 1.1645s-.9144.5446-1.7937.309c-.8792-.2355-1.5076-.7587-1.3988-1.1644z"/><path d="m156.385 130.507c-.3848.2221-.306 1.0833.1753 1.917s1.1878 1.3324 1.5725 1.1103c.3848-.2222.3061-1.0833-.1753-1.917-.4813-.8337-1.1877-1.3325-1.5725-1.1103z"/><path d="m157.456 127.027c-.3954 0-.7179.6989-.7179 1.5556 0 .8568.3225 1.5557.7179 1.5557s.718-.6989.718-1.5557c0-.8567-.3226-1.5556-.718-1.5556z"/><path d="m152.621 130.098c.1088-.4058.9145-.5446 1.7937-.309s1.5076.7587 1.3989 1.1645c-.1087.4057-.9145.5446-1.7937.309s-1.5076-.7587-1.3989-1.1645z"/><path d="m154.574 127.23c-.3848.2221-.306 1.0833.1753 1.917s1.1877 1.3325 1.5725 1.1103c.3847-.2222.3061-1.0833-.1753-1.917-.4813-.8337-1.1877-1.3325-1.5725-1.1103z"/><path d="m155.089 123.802c-.3949.0207-.6804.7354-.6356 1.5911.0448.8556.4035 1.5366.7984 1.5159s.6804-.7354.6356-1.591c-.0448-.8557-.4035-1.5367-.7984-1.516z"/><path d="m150.947 126.749c.2056-.3664 1.0207-.3019 1.8145.1435s1.2735 1.1075 1.068 1.4739c-.2056.3663-1.0207.3019-1.8145-.1435-.7938-.4455-1.2736-1.1076-1.068-1.4739z"/><path d="m152.22 124.155c-.3726.242-.2489 1.0979.2753 1.9053.5243.8073 1.2559 1.2684 1.6285 1.0264.3726-.2419.2489-1.0977-.2753-1.9051-.5243-.8074-1.2559-1.2685-1.6285-1.0266z"/><path d="m153.114 120.91c-.3702 0-.6721.6542-.6721 1.4562 0 .8021.3019 1.4563.6721 1.4563s.6721-.6542.6721-1.4563c0-.802-.3019-1.4562-.6721-1.4562z"/><path d="m149.098 123.462c.2101-.3323.9689-.2322 1.6892.2231.7202.4552 1.1363 1.0977.9262 1.4301-.2101.3325-.969.2323-1.6892-.223-.7203-.4553-1.1363-1.0977-.9262-1.4302z"/><path d="m150.416 121.1c-.3601.2079-.2864 1.0141.1641 1.7945.4506.7804 1.1119 1.2473 1.4721 1.0393.3601-.2079.2864-1.0141-.1641-1.7945-.4506-.7804-1.1119-1.2473-1.4721-1.0393z"/><path d="m150.901 118.048c-.339 0-.6154.5991-.6154 1.3335 0 .7345.2764 1.3335.6154 1.3335s.6155-.599.6155-1.3335c0-.7344-.2765-1.3335-.6155-1.3335z"/><path d="m147.224 120.385c.1925-.3044.8873-.2127 1.5468.2043.6595.4169 1.0406 1.0051.8482 1.3095s-.8873.2127-1.5468-.2042c-.6596-.4169-1.0406-1.0052-.8482-1.3096z"/><path d="m148.43 118.222c-.3298.1904-.2623.9285.1503 1.6432.4126.7146 1.0181 1.1422 1.3479.9518.3299-.1905.2623-.9286-.1502-1.6433-.4126-.7146-1.0182-1.1421-1.348-.9517z"/><path d="m148.2 115.189c-.3109.0599-.4586.6583-.3287 1.3319.1298.6737.4894 1.1743.8003 1.1143.3109-.0599.4586-.6582.3287-1.3319s-.4894-1.1743-.8003-1.1143z"/><path d="m145.24 117.983c.1227-.3133.7762-.352 1.4549-.0863.6787.2658 1.1322.738 1.0096 1.0513-.1227.3132-.7763.352-1.455.0862s-1.1321-.738-1.0095-1.0512z"/><path d="m145.964 115.786c-.2689.2329-.0764.8981.4284 1.4807.5048.5825 1.1358.8676 1.4047.6346s.0764-.8982-.4285-1.4807c-.5047-.5826-1.1358-.8676-1.4046-.6346z"/><path d="m145.598 113.128c-.2658.0741-.3519.6042-.1914 1.1802.1603.576.508.9854.7739.9114.2658-.074.3518-.6042.1914-1.1802s-.508-.9854-.7739-.9114z"/><path d="m143.225 115.764c.0844-.2807.6495-.3605 1.2578-.1776.6082.1829 1.0355.5611.9511.8418-.0844.2808-.6494.3605-1.2577.1776s-1.0355-.561-.9512-.8418z"/><path d="m143.698 113.804c-.2171.2214-.003.7855.4767 1.2559.4796.4703 1.0479.6734 1.265.452.217-.2214.0029-.7856-.4768-1.2559-.4796-.4703-1.0479-.6734-1.2649-.452z"/><path d="m143.42 111.744c-.2191.061-.29.498-.1578.9728s.4188.8123.6379.7512c.2191-.061.29-.498.1578-.9728-.1322-.4747-.4188-.8122-.6379-.7512z"/><path d="m141.463 113.917c.0695-.2314.5352-.2972 1.0366-.1465.5014.1508.8536.4625.784.6939-.0695.2314-.5352.2972-1.0366.1464-.5014-.1507-.8536-.4625-.784-.6938z"/><path d="m141.854 112.301c-.1789.1825-.0024.6476.393 1.0352.3953.3877.8638.5551 1.0426.3726.179-.1824.0025-.6475-.3929-1.0352-.3953-.3876-.8638-.555-1.0427-.3726z"/><path d="m141.167 110.084c-.2078.0925-.2136.5352-.0131.9854.2006.4502.5336.7418.7415.6493.2077-.0926.2136-.5353.013-.9855-.2006-.4501-.5336-.7418-.7414-.6492z"/><path d="m139.551 112.521c.0348-.2391.4858-.3727 1.0038-.2972.5182.0754.9124.332.8775.5711-.0348.2391-.4857.3726-1.0038.2972-.5182-.0754-.9123-.3319-.8775-.5711z"/><path d="m139.7 110.866c-.1502.2068.0928.6409.5409.9662.448.3254.9359.4221 1.0861.2153s-.0928-.6408-.5409-.9662c-.448-.3254-.936-.422-1.0861-.2153z"/></g><path d="m131.757 203.97-1.5632 3.9983c-.3949-1.4237-.8059-2.933-1.3925-4.8808.6389.2419 1.1919.7915 1.866.9465.337.0775.7935.128 1.074-.0691z" fill="#fff"/><path d="m128.801 203.087c.6391.2418 1.1923.7918 1.8665.9468.3647.0839.8693.1361 1.1393-.1229.3483-.3341.1424-1.3346.5788-1.1286l7.0893 3.3466c1.3845-.5334 4.6231-.562 4.2534-1.9988-3.819-3.9606-2.6963-2.7889-5.7474-7.6066 2.284.6779 8.4151 2.2831 10.1909 2.3036 2.9143.0337 5.4892-4.2781 5.6817-7.1864.3785-5.7188-1.9971-10.5519-3.1847-16.5386-.2556-1.2886-1.9968 1.7117-2.0926 3.0219-.159 2.1732.9434 4.2561 1.3278 6.4009.3421 1.9084 1.1806 3.8433.8512 5.7539-.3277 1.9013-1.3976 3.7059-2.7238 5.107-.8099.8557-2.1339 1.1096-3.3025 1.2598-.9364.1203-2.0024.0409-2.7919-.4767-2.0696-1.3571-3.0014-3.0446-5.2665-5.0705-1.1856.6302-2.7053 1.8436-3.0592 2.8317.2201 2.8808 1.968 6.0659 3.5932 7.5161-2.7256-.8386-3.8369-3.1756-6.0263-4.324-.3377-.1771-.755.337-.9193.681-.3512.7353.4192 2.213-.3953 2.0345-2.9442-.6452-6.0999-2.8233-8.9336-1.7962.4548 2.3997.3221 3.7349.7498 4.6492 2.1012-.6148 4.1963-1.3793 6.2823-2.3017.3183.9933.5938 1.8838.8389 2.698z" fill="#da251d"/><path d="m136.435 209.683 1.7262-2.2156 1.2882-1.3397.0028-.0089-7.0668-3.336c-.4364-.206-.2305.7945-.5788 1.1286-.0205.0196-.0423.0376-.0652.0538l.0156.0051-1.1134 2.8479c.7153.4874 1.3353.9898 2.2361 1.4478.9764.4966 2.3889 1.0735 3.4268 1.4099.0808.0045.1285.0071.1285.0071zm-4.7036-5.711c-.0056.0038-.0112.0075-.0168.0111.0056-.0036.0112-.0073.0168-.0111zm-.0177.0115c-.0064.0041-.013.008-.0196.0118.0065-.0038.0132-.0077.0196-.0118zm-.0341.0197c-.0192.0103-.039.0198-.0594.0283.0204-.0085.0402-.0179.0594-.0283zm-.0868.0392c-.0058.0022-.0116.0042-.0175.0063.0058-.0021.0117-.0041.0175-.0063z" fill="#fff"/><path d="m130.644 206.818-.4497 1.1502c.173.6592.3658 1.3124.5482 1.9389l2.3694 1.2186c.9157.4709 2.3856-.2877 3.2978-1.417-1.0459-.3306-2.5205-.9296-3.5296-1.4428-.9007-.4579-1.521-.9605-2.2361-1.4479z" fill="#28166f"/><path d="m130.201 197.905-.5372-2.1641c-.6395.3376-1.6057.361-1.9185 1.013-.3547.7392-.0375 1.6197.0646 2.455.6913.2521 1.3778.4811 2.0532.6291.7726.1693.1192-1.1515.3497-1.9154z" fill="#28166f"/><path d="m129.68 195.725c.2046-.0767.3913-.1356.6139-.2302.2227-.0947.4573-.1864.7214-.3377.8797-.5038 1.6288-.8674 2.5939-1.2432h.0084c-.002.0054-.0041.0107-.006.016.2201 2.8808 1.968 6.0659 3.5932 7.5161-2.7256-.8386-3.8369-3.1756-6.0263-4.324-.3377-.1771-.755.337-.9193.681-.0181.0377-.0333.0774-.0458.1188l-.0116-.0173-.5079-2.0462z" fill="#fff"/><path d="m150.496 174.794c.6715-1.0818 1.1184-1.8305 1.4695-3.0522.4037-1.4044.7895-2.7388 1.0174-4.1826.2036 1.782.4911 2.8939 1.3566 4.5217 2.7366 5.1479 3.8668 8.3249 3.7304 14.3-.0282 1.2346.3504 2.2027-.1696 2.6565-1.524 1.3303-3.6738 3.6992-4.6913 5.2-.0011-.0075-.0023-.0148-.0035-.0223.3651-.8847.595-1.7814.6475-2.5741.3785-5.7188-1.9971-10.5519-3.1847-16.5386-.0338-.1705-.0938-.2652-.1723-.2994z" fill="#fff"/><path d="m158.132 188.806c.7769-.2785 1.8532-1.5144 2.3556-2.3556 1.9869-3.3271-.1321-10.3896-1.4806-13.5278-.5842-1.3593-1.761-3.6676-2.2883-4.7111-.5274-1.0435-.8255-.9662-.875-1.548-.1946-2.2898 2.6852-2.7414 4.1728-3.3651 1.8575-.7788 2.7681-2.2105 4.3746-3.2305.7212-.4579 1.2096-.3245 1.8845-.6057 2.1273-.8862 2.658-1.2758 3.0286-3.7016.31-2.0291-.0963-4.3922-2.3556-4.7785-2.9307-.5011-5.7581.1534-8.5474 1.0769-1.6663.5516-2.6867.7035-4.8056 1.8054-2.1189 1.1018-6.7563 1.6265-8.3183 1.8962-1.562.2696-.7786.1242-1.0768 0-.323-.1345-.9424-.878-1.4134-1.1442-.258-.1458-.617-.0539-.673-.4038-.056-.3498.3246-.8036.4038-1.2787s.3095-.9908.0673-1.548c-.7984-1.8364-3.1129-2.3488-4.913-2.0863-.5811.0847-2.2436.4397-2.4902 1.0768-.2035.5258.4414 2.3002.0673 2.5575-.2483.1707-2.5554-.867-2.894-1.0095-.6399-.2694-1.5287-2.3643-2.0191-.9423-.4903 1.4221-.7737 5.2502 0 6.7976.7737 1.5473 2.6421.4173 3.567.3365.925-.0809 1.3528-.4594 1.8172-.8077.4643-.3482.6568-.6373.8749-1.2114s.2174-1.6642.4038-2.1537c.1865-.4894.3666-.5836.6731-.673.6877-.2005 1.1116.1273 1.0095.7403-.1017.61-.6151 2.435-.673 3.0959-.0935 1.0657.9852.5513 1.0768 1.2115.0658.4738-.4391 1.3747-.4038 1.9517.0353.5771.1722 1.0887.6057 1.3461 2.5736 1.528 13.4337-3.3403 15.8833-4.1728 2.8725-.9761 3.8648-1.6282 4.9131-1.8844 1.7384-.4249 1.548 1.9347 1.0095 3.0286-.3901.7924-1.0894 1.1943-2.019 1.7498-1.8268 1.0915-3.8806 1.1011-4.9804 3.1632-.5452 1.0223-.9956 3.1148-1.0768 4.3074-.0005.0073-.0011.0146-.0016.0218.2025 1.6275.5034 2.7072 1.3242 4.251 2.7366 5.1479 3.8668 8.3249 3.7304 14.3-.0245 1.0714.2574 1.942-.0076 2.4501.0225-.0079.0456-.016.0695-.0246z" fill="#28166f"/><path d="m169.304 153.53c-.016-2.0213-1.0987-5.8992-.6729-7.5951-.6283-.7958-2.1421-.8393-3.0959-1.0096-2.1453-.383-3.8962.3446-5.8553 1.1442-4.6774 1.9089-9.0098 4.5892-13.7297 6.5283-1.4496.5955-1.132.8558-1.5479.4038-.7572-.8229.4624-2.9997.4038-3.9708-.0258-.4262-.2468-.1459-.5384-.3365-.2917-.1907-.9521-.3384-1.2115-.8077-.2593-.4693-.2589-1.0996-.2019-1.7498.0969-1.1052.9431-2.3749.6057-3.4997-.7914-2.6393-6.3882-3.5991-7.3359-.6058-.2211.6984-.1683 1.4471-.3365 2.894-.1682 1.447-.9564 4.4227-.673 5.788.0091.0442.0209.0867.0338.1281-.0142-.1922-.0088-.3554.0335-.4646.2466-.6371 1.9091-.9921 2.4902-1.0768 1.8001-.2625 4.1146.2499 4.913 2.0863.2422.5572.0119 1.0729-.0673 1.548s-.4598.9289-.4038 1.2787c.056.3499.415.258.673.4038.471.2662 1.0904 1.0097 1.4134 1.1442.2982.1242-.4852.2696 1.0768 0 1.562-.2697 5.798-.7944 8.0373-1.6554 2.2394-.861 3.4203-1.4946 5.0866-2.0462 2.7893-.9234 5.6167-1.578 8.5474-1.0769 1.4392.2461 2.1263 1.2944 2.3555 2.5475z" fill="#fff"/><path d="m135.149 150.841c.054.7329.3971 1.8897.1009 2.0934-.2483.1707-2.5554-.867-2.894-1.0095-.6399-.2694-1.5287-2.3643-2.0191-.9423-.1644.4767-.3053 1.2238-.3911 2.0648l-1.8977-.9195 1.9523-5.5199 5.7648-1.5012c-.2065 1.5017-.9217 4.2961-.6498 5.6066.0091.0441.0209.0867.0338.1281 0-.0002 0-.0004-.0001-.0005z" fill="#fff"/><g fill="#da251d"><path d="m168.585 145.879c.1316-.3619.2658-1.0275.3829-1.5601.2608-1.1863.9071-2.7529-.673-3.2305-3.8699-1.1697-8.3511.8436-11.7779 2.4229-3.5548 1.6383-5.5949 3.326-9.6242 2.0864-1.587-.4883-2.0728-1.3854-3.4462-1.6685-.1725.7494-.5309 1.5107-.592 2.2069-.057.6502-.0574 1.2805.2019 1.7498.2594.4693.9198.617 1.2115.8077.2916.1906.5126-.0897.5384.3365.0586.9711-1.161 3.1479-.4038 3.9708.4159.452.0983.1917 1.5479-.4038 4.7199-1.9391 9.0523-4.6194 13.7297-6.5283 1.9591-.7996 3.71-1.5272 5.8553-1.1442.9312.1663 2.3959.2118 3.0495.9544z"/><path d="m143.528 143.512c.2468-1.4358.7404-3.2311.7404-4.3074 0-2.0333-1.9124-3.0501-3.6343-3.7016-1.5189-.5746-2.9288-.02-4.1055 1.0096-.859.7515-.7851 1.9891-.8076 3.0286-.0112.5169.0122.8556.0673 1.2787l.2019 1.5479.0465.0119c.0236-.1193.0521-.2346.0881-.3484.9477-2.9933 6.5445-2.0335 7.3359.6058.0852.284.0949.5773.0603.8748z"/><path d="m135.762 140.607-6.1664 1.3566.286 4.9769.1178-.333 5.7648-1.5012c-.0254.1855.0197-.1508.0232-.1814.1408-1.211.127-1.933.2483-2.5456l-.0464-.0119-.2019-1.5479c-.0095-.0728-.0178-.1433-.0254-.2125z"/></g><g fill="#e77817"><path d="m163.7 140.938c.3484-.8268.7054-1.6589.9199-2.4047.6557-2.2808.3389-3.912.0394-6.2262-.5032 1.7979-.6154 3.7549-1.5094 5.3938l-2.1546 3.9505c.8884-.3004 1.7958-.5513 2.7047-.7134z"/><path d="m160.559 141.803c.5945-2.4025 1.1733-4.7295 1.3809-7.2104.2417-2.8883.0065-5.0606-.5123-7.8814-.0465 2.51.1885 5.4016-.4729 7.8419l-1.1428 4.2166-.5517-2.2068-.0746-.056-1.7049-.4092 1.0702 1.7262c-.5385-.3547-.9186-.538-1.6157-1.064-1.7588-1.3273-2.629-2.1921-3.8224-4.0195.3021.9458.339 1.8361.9063 2.8373 1.0272 1.8127 3.663 3.3674 4.3742 5.0441l.7356 1.7339c.468-.1928.9455-.3792 1.4301-.5527z"/><path d="m158.674 142.547c-.8883-.5251-1.9575-1.7711-2.9906-3.025s-1.5132.2581-1.5656.8698c-.1428 1.6674.527 2.6419.9857 4.1168.8503 2.7335.5269 5.5803.3769 6.1752-.1621.6429.502-1.3939.6668-2.1454.3742-1.7061.4872-3.4738-.0869-5.1605l-.4639-1.3626c.5025.5605.6212 1.107 1.0866 1.4098.7365-.3264 1.3523-.596 1.991-.8781z"/><path d="m159.335 173.599 1.6261-2.0202 1.7245-1.1826.6899-.2956v.9362l-.4928 2.1188-.7884 2.9564v1.8231l.2957 2.5622.1971-2.5622.6405-2.513.7884-2.6115.542-2.2173v-1.7738l-.2463-.2957-.887.0493-1.2318.8869-1.4289.8377 1.2318-1.3797 1.5768-1.8724 1.8724-1.7738 1.7245-2.513 1.1826-3.9419-2.7593 4.4839-2.9564 2.4144-1.3304 1.5275s.9362-1.8231 1.0347-2.0695c.0986-.2464 1.2319-2.5622 1.2319-2.5622l1.9216-4.7796-1.4289 1.971-1.0348 1.626-.8869 1.7246-.7884 1.3797.1479-1.4783 1.0347-4.2375 1.3304-2.9072.1971-1.1825-1.9217.3449-.0985 1.6753-.4928 1.7739-.7391 3.0057-.4434-.7392-.9855-3.0549-.0986-1.8724-1.8724.7884.8377 4.1882.7884 3.3506-.0493 1.971-.0985 1.1826-.4928-2.8086-.9855-2.8087-.5912-.3449-3.7448 13.4518 1.1332-2.6608.9855-1.5275s1.1333-1.7246 1.1333-1.971c0-.2463.5913-2.3158.5913-2.3158l.3942.9855.2956 1.626.1971 1.4289z"/><path d="m159.944 175.443c.7566-1.4546 2.1747-3.8796 2.1504-3.6179-.2072 2.23-.5446 3.4929-1.5947 5.5183-.1723-.6618-.3614-1.3012-.5557-1.9004z"/><path d="m138.591 197.694c.4598-.6077.9396-.9348 1.3796-1.8232.4401-.8883.5579-1.8627 1.2319-3.4491.674-1.5865 2.1845-4.7057 2.8086-6.0607.624-1.355.6659-1.3623.9362-2.0695l1.9217-5.0259c-.0813 2.3942-.2792 4.0191-1.1333 6.307-.4606 1.2338-1.56 2.5514-1.7246 3.9912l-.1971 1.7246c.7049-1.3486 1.8539-3.1203 2.0695-4.6317.3758-2.6341 2.6801-4.5365 4.4346-6.2578-.5454 1.7003-1.7306 3.5165-2.1187 5.1245l-.6899 2.8578 1.084-1.4289 1.3304-2.5622.4435 2.4637-1.8231 2.5622 2.2666-.7391.0492 1.0347-.0985.9362-5.8636 2.2666 5.2723-.0492c-.3121.8212-.6318 1.7726-.9362 2.4636-.3044.6911-.4768 1.1948-.8869 1.6753l-4.5825 5.3709c.5249-2.428 1.3752-3.4896 3.055-5.3709.4109-.4601.6357-.6969.7884-.9854s.0604-.4607.0985-.6899l.1478-.8869c-2.2337.6242-4.9633.3367-6.7012 1.8724l-2.1188 1.8724z"/><path d="m139.133 198.384c2.5685-.5298 4.5389-.7395 6.5534-2.5622l1.0347-.9362c-1.7401 2.4699-3.3162 4.7394-6.7012 4.9273z"/><path d="m137.261 195.575c.2627-.3613.5161-.5972.7884-1.084.2722-.4868.4352-.9937.8376-1.8231.9459-1.9498 1.6252-3.2084 3.055-4.8289-.2793.8377-.5913 1.741-.8377 2.513-.4446 1.3934-.6815 2.5705-1.626 3.7448l-1.8231 2.2666z"/><path d="m115.655 204.046c.9781-1.3969 2.1223-2.982 2.5365-3.7403.8326-1.5242-2.8328-.542-3.794-.542-2.4659 0-3.6554.1505-6.11.8869 2.3502.6651 4.1358.7956 6.6027.8869-.7957 1.5603-1.2386 2.0072-2.4686 2.9114 1.0785-.0975 2.1563-.2318 3.2334-.4029z"/><path d="m116.631 203.881c1.3735-1.3952 2.7328-2.7326 4.9117-2.6883l2.4144.0493c-.2488.3199-.6085.698-1.025 1.0646-2.0947.6733-4.196 1.1957-6.3011 1.5744z"/></g></g><g fill="#da251d" stroke="#f8c300"><path d="m99.728 88.6212h6.025l3.644 3.6755-3.641 3.6283h-5.9596l3.6196-3.6194z"/><path d="m105.745 101.942v-5.9955l3.676-3.6734 3.628 3.6556v5.9453l-3.619-3.6193z"/><path d="m119.067 88.6212h-5.996l-3.674 3.6755 3.641 3.6283h5.96l-3.619-3.6194z"/><path d="m105.745 82.6038v5.9958l3.676 3.6735 3.628-3.6409v-5.9601l-3.619 3.6194z"/></g><g stroke="#1f1a17"><path d="m83.8777 129.56c-.0012 11.5181.0046 29.1742.0074 37.0532h49.7157c.0027-7.879.0084-25.5351.0072-37.0532z" fill="#fff"/><path d="m83.8851 160.505c.0008 2.3366.0012 9.9263.0012 10.1267 0 3.7425 1.9134 5.9127 5.6628 5.9127.13-.0015 12.2398 0 13.6922 0 1.2809 0 3.6123.359 4.834 3.1953l.6676 1.5494.6674-1.5494c1.2219-2.8363 3.5533-3.1953 4.8343-3.1953 1.4524 0 13.5619-.0015 13.684 0 3.7574 0 5.671-2.1702 5.671-5.9127 0-.2004.0004-7.7901.0012-10.1267z" fill="#28166f"/><path d="m133.608 132.613h-49.7306c.0006-5.86.003-13.1839.0086-13.7656v-.6958h48.8306.8827v.6958c0 .5817.008 7.9056.0087 13.7656z" fill="#da251d"/><path d="m132.717 118.152h-48.8306v.6959c-.0199 2.0639 0 50.5639 0 51.7839 0 3.7425 1.9134 5.9127 5.6628 5.9127.13-.0015 12.2398 0 13.6922 0 1.2809 0 3.6123.359 4.834 3.1953l.6676 1.5494.6675-1.5494c1.2218-2.8363 3.5532-3.1953 4.8342-3.1953 1.4524 0 13.5619-.0015 13.684 0 3.7574 0 5.671-2.1702 5.671-5.9127 0-1.22.0197-49.72 0-51.7839v-.6959z" fill="none"/><path d="m118.251 134.446h-19.3672v.276c-.0079.8186 0 20.0546 0 20.5385 0 1.4844.7589 2.3451 2.246 2.3451.0515-.0006 4.8545 0 5.4305 0 .5081 0 1.4328.1424 1.9173 1.2673l.2648.6146.2647-.6146c.4846-1.1249 1.4093-1.2673 1.9174-1.2673.576 0 5.3789-.0006 5.4273 0 1.4903 0 2.2492-.8607 2.2492-2.3451 0-.4839.0079-19.7199 0-20.5385v-.276z" fill="#fff"/><g fill="#1f1a17"><path d="m106.936 145.397c-.0156.2964-.2303.5343-.501.5575v-2.9047l.5674-.5432v-.6965l-.5674.5431v-.3397l.5674-.5432v-.6965l-.5674.5431v-.3398l.5674-.5431v-.6966l-.6108.5847-.6107-.5847v.6966l.5673.5431v.3397l-.5673-.543v.6965l.5673.5431v.3398l-.5673-.5431v.6965l.5673.5432v2.9047c-.2704-.0232-.4852-.2612-.5008-.5575-.0861.0046-.0835.0724-.0835.0724l.6277 1.8263.6278-1.8263s.0026-.0678-.0834-.0724z"/><path d="m111.638 145.397c-.0155.2964-.2302.5343-.5009.5575v-2.9047l.5673-.5432v-.6965l-.5673.5431v-.3397l.5673-.5432v-.6965l-.5673.5431v-.3398l.5673-.5431v-.6966l-.6108.5847-.6105-.5847v.6966l.5672.5431v.3397l-.5672-.543v.6965l.5672.5431v.3398l-.5672-.5431v.6965l.5672.5432v2.9047c-.2705-.0232-.4852-.2612-.5008-.5575-.0862.0046-.0837.0724-.0837.0724l.6278 1.8263.6278-1.8263s.0026-.0678-.0834-.0724z"/><path d="m109.287 145.397c-.0154.2964-.2301.5343-.5008.5575v-2.9047l.5672-.5432v-.6965l-.5672.5431v-.3397l.5672-.5432v-.6965l-.5672.5431v-.3398l.5672-.5431v-.6966l-.6106.5847-.6107-.5847v.6966l.5674.5431v.3397l-.5674-.543v.6965l.5674.5431v.3398l-.5674-.5431v.6965l.5674.5432v2.9047c-.2705-.0232-.4853-.2612-.5008-.5575-.0862.0046-.0837.0724-.0837.0724l.6278 1.8263.6277-1.8263s.0025-.0678-.0835-.0724z"/><path d="m114.949 148.38c-1.4427-1.0303-2.1157-.4586-2.6566.0009-.1815.1542-.353.2999-.5297.358-.1951.0643-.4219.0341-.6846-.0007-.206-.0273-.419-.0556-.646-.0419-.4091.0249-.7175.2456-.8529.3616-.7258-.567-1.6241-.2933-2.2273-.1045-.2334.073-.4349.1362-.5627.1342-.4582-.0068-.7576.0386-.9366.0657l-.1668.0199c-.0143-.0028-.0602-.0369-.0972-.0642-.1371-.1016-.3665-.2717-.8539-.3769-.0855-.0186-.1969-.1128-.2568-.1635l-.0552-.0448c-.0795-.0577-.1431-.0701-.1976-.0668-.0076-.0236-.0177-.0562-.0207-.0663-.0006-.0019-.0009-.0031-.0009-.0033 0-.0475.0294-.1389.0468-.1847.0358-.0938-.0134-.1639-.0464-.1706-.1358-.0275-.2963.0661-.4374.1662-.0047-.0061-.0097-.0122-.0158-.0173-.0296-.0255-.0633-.0605-.0707-.0736-.0121-.0296-.0366-.0532-.0675-.0641-.031-.0109-.0871-.1272-.116-.112-.0764.0404-.0887.2509-.1022.3021-.0093.0348-.024.1125-.0019.1837-.2083.0587-.3056.1932-.3911.3138-.0831.1173-.1549.2185-.3332.26-.1302.0302-.3016.0593-.3054.1526-.0081.1966.1499.2517.2289.2497.0335-.0008.0425.0768.1013.1338s.146.0165.2015.0426c.1949.0919.4523.0679.6211.0522 0 0 .0756-.0047.1045-.0065.0815.0831.1951.3384.2706.5664.0412.1244.1376.1909.2309.2551.0994.0685.2022.1393.271.2963.0133.0304.0417.0629.0799.096-.0495.0464-.2273.2154-.3687.374l-.0851.0969c-.1417.1623-.4365.5-.5414.5415-.0684.0271-.1487.0408-.2133.0519-.0366-.0582-.5421.3154.1277.3154.2603 0 .4151-.0084.5709-.1817.1233-.1372.4015-.3929.5821-.4963l.1634-.0845c.1307-.0637.2542-.124.3668-.2454.0081-.0087.0139-.0187.0187-.0291.0129.0055.0251.0107.0361.0154.0055.0323.0108.0648.0108.0648.0221.137.0495.3078.0876.4186.0527.1536.29.2697.5494.3849l.0588.0264c.0123.0056.0144.0067.0189.052.0042.042.0153.1538.1349.1796.019.0041.1157.0183.1633-.1032.001-.0026.0506-.1707.0506-.3156 0-.0863-.0175-.1643-.0732-.1944l-.1201-.0567c-.0738-.0329-.2406-.108-.2733-.1544.0072-.0267.0562-.2075.0562-.2075.0222-.0765.0439-.153.0618-.2242.3226.0282.6933-.1285 1.1208-.3106.2122-.0903.4396-.1864.6761-.2653.0045.0901.0432.2264.1981.3854.1021.1048.2227.1983.3197.2735.0646.0501.1491.1162.1729.1474-.0001.0022-.0003.0065-.0003.0065-.0042.0656-.0067.1053-.0478.1711-.0753.1208-.3076.3503-.3802.3627-.0001 0-.0838.0083-.0838.0083-.1449.0121-.3639.0306-.3795.212l.0427.1175c.0716.0721.1966.0662.3549.0589l.1163-.0039c.1524 0 .3081-.1569.5465-.4153.0885-.0958.1721-.1864.2341-.236.0946-.0754.2438-.1944.0864-.4306-.051-.0764-.0751-.191-.0882-.2867.3444.3129.847.2981 1.2295.286.1324-.0042.2574-.0081.3492.003.0498.0156.1852.1442.5262.664 0 0 .0244.036.0468.0689-.0391.029-.0913.0717-.1183.1468-.0065.0179-.0096.0357-.0096.0529 0 .0311.0102.0603.0303.0842.0566.0676.1458.0561.2403.044.0452-.0058.1016-.013.1324-.0078.0675.0116.1465-.0265.1877-.0904.0126-.0196.0168-.2064-.029-.268-.4415-.5945-.5877-.9126-.658-1.0654-.0439-.0955-.0703-.153-.1459-.168-.5959-.1185-.6505-.3864-.6505-.5928 0-.0243.0008-.0478.0015-.0701l.0001-.0953c-.0084-.1228-.0316-.2631-.0481-.3534.8362-.341 1.3194-.0864 1.7852.1637.3442.1847.7002.3758 1.1526.2554.5114-.1361.7372-.4028.9556-.6607.126-.1489.2452-.2895.4195-.4078.2302-.1562.4475-.2137.5844-.2438.1978-.0436.3278.0968.3971-.0083.0269-.0408-.1338-.1809-.174-.2095z"/></g></g></g><g stroke="#1f1a17"><g fill="#d9322b" stroke-width=".0762"><path d="m111.806 148.844c-.3847.1266-.8541-.0675-1.3603-.0368s-.8508.3957-.8508.3957c-.957-.8553-2.2749.0035-2.8011-.0043-.6485-.0095-.96.0857-1.1017.0857s-.2674-.2907-.976-.4439c-.145-.0314-.2995-.1869-.3558-.2278-.1315-.0955-.1719-.0104-.2128-.0396-.0408-.0292-.0215-.0584-.0215-.0877s-.0322-.05-.0322-.0855c0-.0987.0559-.2378.0559-.2378-.1956-.0397-.4858.3149-.6663.3483-.4169.0772-.3417.4862-.7823.5886-.0735.017-.1053.0813-.1032.1252.0021.0417.0237.0855.1139.1168.0903.0313-.0146-.1165.1225-.0459.1376.0709.2364.0335.331-.0145.0946-.0479.0658.0565.0054.0892-.1558.0844-.3641-.0206-.3303.0179.2166.2473.7853.0758.8442.1229.1419.1134.2933.551.3216.6367.066.1993.3508.2054.4982.5419.0537.1223.5992.3643.7348.4194.0252.1377.0568.3888.104.5265.0473.1377.4163.2847.5487.3459s.0441.2051.1293.2234c.0598.0129.0882-.3918.0599-.4071-.1248-.0676-.4813-.1857-.4541-.3153.0311-.1481.1388-.4561.1545-.6061.0158-.15.0978-.1744.0789-.101-.019.0736-.0146.1699-.0146.1699.5884.0737 1.4616-.6142 2.4455-.7252.0655-.0074.1067-.0621.3933.3818.3896.6035 1.244.3788 1.6587.4291.1888.0229.6251.7519.6799.8199.0674.0835-.0884.0888-.1311.2073-.0322.0892.183.0059.3049.0266.036.0062.1403-.0562.0458-.1835-.6529-.8791-.6769-1.1781-.7338-1.1894-.8717-.1733-.7277-.6756-.7403-.8599-.0127-.1843-.0633-.43-.0633-.43 1.6071-.7125 2.0542.6424 3.037.3809.7622-.2029.8403-.7136 1.3398-1.0525.426-.289.8052-.2804.8052-.2804-1.8666-1.3329-2.3385.1302-3.0814.3746zm-8.2151.1235c-.0624.0083-.0924-.1086-.1289-.1086-.0366 0-.0474.1461-.099.1482s-.0537-.0668-.1117-.0251c-.041.0295.0559-.1899.058-.2525.101.0397.2192.0376.3009.1482.0464.0628-.0059.0879-.0193.0898z"/><path d="m103.518 148.407c.0535-.0182.1123-.1193.1631-.1427 0 0-.0882-.0753-.1016-.1168-.0588.031-.1042.1945-.0615.2595z"/><path d="m103.181 152.036c-.0044.0426-.0472.0611.217.0611s.3661-.012.4844-.1436c.129-.1435.4183-.409.6102-.519s.3617-.1558.5033-.3085c0 0-.3114-.1373-.4246-.229 0 0-.2139.1985-.3743.3787-.1605.1801-.5159.6077-.67.6687s-.3428.061-.346.0916z"/><path d="m107.972 152.11c.1731 0 .5127-.4703.7078-.6259.0946-.0756.1666-.1284.0629-.284-.1039-.1557-.1132-.4093-.1227-.4948-.1384-.1283-.2705-.397-.3146-.403s-.4277.0794-.5253.1068c0 0-.0598.1557.1604.3817.2203.226.5317.397.5253.4825-.0063.0855-.0031.1496-.066.2504s-.3271.3969-.4624.4153c-.1353.0183-.3554.0092-.3649.1191-.0077.0895.2328.0519.3995.0519z"/></g><g stroke-width=".3528"><path d="m88.6134 200.389c13.2034 5.8382 26.7733 5.3683 39.9399.4488 1.9475 4.6166 2.9468 7.8376 3.5901 10.3215-1.1368 2.8687-12.641 6.1219-23.2696 6.2741-10.6287.1521-21.055-3.0211-23.6261-5.601 1.1404-3.589 1.6058-5.9503 3.3657-11.4434z" fill="#28166f"/><path d="m88.6134 200.389c13.2034 5.8382 26.7733 5.3683 39.9399.4488 1.3634 3.232 2.2618 5.7797 2.8989 7.8696-2.8574 2.6048-13.0677 5.2241-22.5784 5.3603-9.7369.1393-19.3027-2.5121-22.8162-4.9415.6733-2.3743 1.2678-4.7169 2.5558-8.7372z" fill="#fff"/><path d="m88.6134 200.389c13.2034 5.8382 26.8073 5.504 39.8381-.128.49 1.1616 1.0216 2.8112 1.4009 3.8065-4.0876 2.2041-12.7921 4.1613-20.9786 4.2784-8.659.124-17.1823-1.9594-21.4344-4.1307.3236-1.1063.7022-2.3536 1.174-3.8262z" fill="#da251d"/><g fill="#e77817"><path d="m81.5034 217.695 2.7282-3.2334 2.4251-.3032 1.394-.5576c.8968.4176 1.9464.8282 3.1187 1.2165z"/><path d="m135.797 217.695-2.7282-3.2334-2.425-.3032-1.3941-.5576c-.8968.4176-1.9463.8282-3.1187 1.2165z"/></g><path d="m114.906 97.3251h11.4878v9.0021c-2.2617 0-4.5235 0-6.7852 0v-4.4339h2.1498v2.2842h2.4856v-4.7027h-7.1883v7.6498c21.1817 3.9885 37.3088 22.9233 37.3088 45.5635 0 25.5228-20.494 46.3393-45.6214 46.3393s-45.6214-20.8165-45.6214-46.3393c0-22.8161 16.3786-41.8689 37.8033-45.6538v-7.5595h-7.1883v4.7027h2.4857v-2.2842h2.1497v4.4339c-2.2617 0-4.5235 0-6.7852 0 0-3.0007 0-6.0014 0-9.0021h11.4879c0 3.2287-.122 7.1726-.122 10.0319-17.2709 2.4339-33.7491 18.4454-33.7491 39.4724s17.7618 39.8425 39.5394 39.8425c21.7775 0 39.5393-17.898 39.5393-39.8425 0-19.9507-14.3099-36.5551-33.3423-39.4078 0-2.8593-.0341-6.8294-.0341-10.0965z" fill="#f8c300"/></g></g><path d="m114.839 108.003c18.146 2.9557 32.0793 18.8763 32.0793 37.9734 0 21.1873-17.1489 38.4675-38.1749 38.4675s-38.1749-17.2802-38.1749-38.4675c0-19.242 14.1452-35.2605 32.4926-38.0398v-.5561c-18.9431 2.8109-33.57 19.4493-33.57 39.4492 0 21.9597 17.6328 39.87 39.2523 39.87 21.6194 0 39.2523-17.9103 39.2523-39.87 0-19.8543-14.4146-36.397-33.1567-39.3868z" fill="#ef9a48"/><g fill="none" stroke="#1f1a17"><g stroke-width=".0762"><rect height="3.78" rx=".532" transform="matrix(.575431 0 .260321 .575431 107.845 184.519)" width="2.0925"/><rect height="3.78" rx=".532" transform="matrix(.575178 -.0170709 .277277 .567455 108.964 184.529)" width="2.0925"/><rect height="3.78" rx=".532" transform="matrix(.574419 -.0341268 .29399 .55898 110.082 184.506)" width="2.0925"/><rect height="3.78" rx=".532" transform="matrix(.573153 -.0511526 .310443 .550012 111.199 184.45)" width="2.0925"/><rect height="3.78" rx=".532" transform="matrix(.571384 -.0681334 .326623 .540561 112.314 184.36)" width="2.0925"/><rect height="3.78" rx=".532" transform="matrix(.569111 -.0850542 .342516 .530633 113.426 184.238)" width="2.0925"/><rect height="3.78" rx=".532" transform="matrix(.566337 -.1019 .358107 .520238 114.534 184.082)" width="2.0925"/><rect height="3.78" rx=".532" transform="matrix(.563065 -.118656 .373383 .509386 115.636 183.894)" width="2.0925"/><rect height="3.78" rx=".532" transform="matrix(.559297 -.135308 .38833 .498084 116.733 183.674)" width="2.0925"/><rect height="3.78" rx=".532" transform="matrix(.555037 -.151841 .402935 .486345 117.822 183.42)" width="2.0925"/><rect height="3.78" rx=".532" transform="matrix(.550288 -.16824 .417186 .474177 118.904 183.135)" width="2.0925"/><rect height="3.78" rx=".532" transform="matrix(.545055 -.184491 .43107 .461592 119.976 182.818)" width="2.0925"/><rect height="3.78" rx=".532" transform="matrix(.539342 -.200579 .444573 .448601 121.039 182.469)" width="2.0925"/><rect height="3.78" rx=".532" transform="matrix(.533154 -.216491 .457686 .435215 122.091 182.088)" width="2.0925"/><rect height="3.78" rx=".532" transform="matrix(.526497 -.232213 .470396 .421445 123.131 181.677)" width="2.0925"/><rect height="3.78" rx=".532" transform="matrix(.519376 -.24773 .482692 .407305 124.158 181.235)" width="2.0925"/><rect height="3.78" rx=".532" transform="matrix(.511798 -.263029 .494562 .392806 125.172 180.762)" width="2.0925"/><rect height="3.78" rx=".532" transform="matrix(.50377 -.278096 .505998 .377961 126.172 180.26)" width="2.0925"/><rect height="3.78" rx=".532" transform="matrix(.495298 -.292918 .516988 .362784 127.156 179.728)" width="2.0925"/><rect height="3.78" rx=".532" transform="matrix(.48639 -.307483 .527523 .347287 128.123 179.168)" width="2.0925"/><rect height="3.78" rx=".532" transform="matrix(.477054 -.321777 .537593 .331485 129.074 178.579)" width="2.0925"/><rect height="3.78" rx=".532" transform="matrix(.467298 -.335788 .54719 .31539 130.007 177.961)" width="2.0925"/><rect height="3.78" rx=".532" transform="matrix(.457131 -.349503 .556306 .299018 130.921 177.317)" width="2.0925"/><rect height="3.78" rx=".532" transform="matrix(.446561 -.362911 .564932 .282383 131.816 176.646)" width="2.0925"/><rect height="3.78" rx=".532" transform="matrix(.435599 -.375999 .57306 .2655 132.69 175.948)" width="2.0925"/><rect height="3.78" rx=".532" transform="matrix(.424253 -.388756 .580685 .248382 133.544 175.225)" width="2.0925"/><rect height="3.78" rx=".532" transform="matrix(.412533 -.401171 .587798 .231046 134.375 174.477)" width="2.0925"/><rect height="3.78" rx=".532" transform="matrix(.40045 -.413232 .594393 .213507 135.184 173.704)" width="2.0925"/><rect height="3.78" rx=".532" transform="matrix(.388015 -.42493 .600465 .195779 135.969 172.908)" width="2.0925"/><rect height="3.78" rx=".532" transform="matrix(.375238 -.436254 .606009 .17788 136.731 172.089)" width="2.0925"/><rect height="3.78" rx=".532" transform="matrix(.362131 -.447194 .61102 .159823 137.468 171.248)" width="2.0925"/><rect height="3.78" rx=".532" transform="matrix(.348705 -.45774 .615492 .141626 138.18 170.385)" width="2.0925"/><rect height="3.78" rx=".532" transform="matrix(.334972 -.467884 .619423 .123305 138.866 169.501)" width="2.0925"/><rect height="3.78" rx=".532" transform="matrix(.320944 -.477615 .622808 .104874 139.525 168.598)" width="2.0925"/><rect height="3.78" rx=".532" transform="matrix(.306634 -.486926 .625645 .0863519 140.157 167.675)" width="2.0925"/><rect height="3.78" rx=".532" transform="matrix(.292054 -.495809 .627931 .0677534 140.762 166.734)" width="2.0925"/><rect height="3.78" rx=".532" transform="matrix(.277216 -.504254 .629665 .0490952 141.338 165.775)" width="2.0925"/><rect height="3.78" rx=".532" transform="matrix(.262135 -.512256 .630844 .0303938 141.886 164.8)" width="2.0925"/><rect height="3.78" rx=".532" transform="matrix(.246823 -.519808 .631468 .0116656 142.404 163.809)" width="2.0925"/><rect height="3.78" rx=".532" transform="matrix(.231293 -.526901 .631536 -.0070728 142.893 162.803)" width="2.0925"/><rect height="3.78" rx=".532" transform="matrix(.21556 -.533531 .631049 -.025805 143.352 161.783)" width="2.0925"/><rect height="3.78" rx=".532" transform="matrix(.199638 -.539691 .630005 -.0445145 143.781 160.75)" width="2.0925"/><rect height="3.78" rx=".532" transform="matrix(.183539 -.545376 .628408 -.0631848 144.178 159.704)" width="2.0925"/><rect height="3.78" rx=".532" transform="matrix(.167279 -.550581 .626256 -.0817995 144.545 158.648)" width="2.0925"/><rect height="3.78" rx=".532" transform="matrix(.150872 -.555301 .623554 -.100342 144.879 157.58)" width="2.0925"/><rect height="3.78" rx=".532" transform="matrix(.134332 -.559532 .620303 -.118796 145.182 156.504)" width="2.0925"/><rect height="3.78" rx=".532" transform="matrix(.117673 -.563271 .616506 -.137146 145.453 155.418)" width="2.0925"/><rect height="3.78" rx=".532" transform="matrix(.100912 -.566514 .612166 -.155375 145.692 154.326)" width="2.0925"/><rect height="3.78" rx=".532" transform="matrix(.0840608 -.569258 .607287 -.173468 145.898 153.226)" width="2.0925"/><rect height="3.78" rx=".532" transform="matrix(.067136 -.571502 .601873 -.191407 146.072 152.121)" width="2.0925"/><rect height="3.78" rx=".532" transform="matrix(.0501522 -.573242 .59593 -.209178 146.212 151.012)" width="2.0925"/><rect height="3.78" rx=".532" transform="matrix(.0331242 -.574477 .589462 -.226765 146.32 149.898)" width="2.0925"/><rect height="3.78" rx=".532" transform="matrix(.016067 -.575207 .582476 -.244152 146.394 148.782)" width="2.0925"/><rect height="3.78" rx=".532" transform="matrix(-.00100432 -.575431 .574976 -.261325 146.436 147.664)" width="2.0925"/><rect height="3.78" rx=".532" transform="matrix(-.0180747 -.575147 .566971 -.278267 146.444 146.546)" width="2.0925"/><rect height="3.78" rx=".532" transform="matrix(-.0351292 -.574358 .558466 -.294965 146.419 145.428)" width="2.0925"/><rect height="3.78" rx=".532" transform="matrix(-.0521528 -.573063 .54947 -.311402 146.361 144.31)" width="2.0925"/><rect height="3.78" rx=".532" transform="matrix(-.0691305 -.571264 .53999 -.327566 146.27 143.196)" width="2.0925"/><rect height="3.78" rx=".532" transform="matrix(-.0860473 -.568962 .530034 -.343441 146.145 142.084)" width="2.0925"/><rect height="3.78" rx=".532" transform="matrix(-.102888 -.566158 .519612 -.359014 145.988 140.977)" width="2.0925"/><rect height="3.78" rx=".532" transform="matrix(-.119639 -.562857 .508733 -.374271 145.798 139.874)" width="2.0925"/><rect height="3.78" rx=".532" transform="matrix(-.136284 -.55906 .497406 -.389199 145.575 138.778)" width="2.0925"/><rect height="3.78" rx=".532" transform="matrix(-.152809 -.554771 .485641 -.403784 145.32 137.689)" width="2.0925"/><rect height="3.78" rx=".532" transform="matrix(-.1692 -.549993 .473448 -.418013 145.033 136.608)" width="2.0925"/><rect height="3.78" rx=".532" transform="matrix(-.185442 -.544732 .460839 -.431874 144.714 135.536)" width="2.0925"/><rect height="3.78" rx=".532" transform="matrix(-.20152 -.538991 .447824 -.445356 144.363 134.474)" width="2.0925"/><rect height="3.78" rx=".532" transform="matrix(-.217421 -.532775 .434415 -.458445 143.981 133.422)" width="2.0925"/><rect height="3.78" rx=".532" transform="matrix(-.233131 -.52609 .420624 -.471131 143.568 132.383)" width="2.0925"/><rect height="3.78" rx=".532" transform="matrix(-.248636 -.518943 .406462 -.483402 143.124 131.356)" width="2.0925"/><rect height="3.78" rx=".532" transform="matrix(-.263921 -.511338 .391942 -.495247 142.65 130.343)" width="2.0925"/><rect height="3.78" rx=".532" transform="matrix(-.278975 -.503284 .377078 -.506657 142.146 129.344)" width="2.0925"/><rect height="3.78" rx=".532" transform="matrix(-.293782 -.494786 .361881 -.51762 141.612 128.361)" width="2.0925"/><rect height="3.78" rx=".532" transform="matrix(-.308332 -.485853 .346366 -.528128 141.05 127.394)" width="2.0925"/><rect height="3.78" rx=".532" transform="matrix(-.322609 -.476492 .330546 -.538171 140.459 126.444)" width="2.0925"/><rect height="3.78" rx=".532" transform="matrix(-.336603 -.466712 .314435 -.54774 139.841 125.512)" width="2.0925"/><rect height="3.78" rx=".532" transform="matrix(-.3503 -.45652 .298047 -.556827 139.195 124.599)" width="2.0925"/><rect height="3.78" rx=".532" transform="matrix(-.36369 -.445927 .281397 -.565424 138.522 123.706)" width="2.0925"/><rect height="3.78" rx=".532" transform="matrix(-.376758 -.434942 .264499 -.573523 137.823 122.832)" width="2.0925"/><rect height="3.78" rx=".532" transform="matrix(-.389496 -.423573 .247368 -.581117 137.098 121.98)" width="2.0925"/><rect height="3.78" rx=".532" transform="matrix(-.40189 -.411832 .23002 -.5882 136.348 121.15)" width="2.0925"/><rect height="3.78" rx=".532" transform="matrix(-.413931 -.399728 .212469 -.594765 135.575 120.342)" width="2.0925"/><rect height="3.78" rx=".532" transform="matrix(-.425607 -.387273 .194731 -.600806 134.777 119.558)" width="2.0925"/><rect height="3.78" rx=".532" transform="matrix(-.436909 -.374476 .176822 -.606319 133.957 118.798)" width="2.0925"/><rect height="3.78" rx=".532" transform="matrix(-.447826 -.36135 .158757 -.611298 133.114 118.062)" width="2.0925"/><rect height="3.78" rx=".532" transform="matrix(-.458348 -.347905 .140552 -.615738 132.25 117.352)" width="2.0925"/><rect height="3.78" rx=".532" transform="matrix(-.468468 -.334155 .122223 -.619637 131.365 116.668)" width="2.0925"/><rect height="3.78" rx=".532" transform="matrix(-.478175 -.32011 .103787 -.62299 130.46 116.01)" width="2.0925"/><rect height="3.78" rx=".532" transform="matrix(-.487461 -.305783 .0852598 -.625795 129.536 115.379)" width="2.0925"/><rect height="3.78" rx=".532" transform="matrix(-.496317 -.291188 .0666573 -.628049 128.594 114.776)" width="2.0925"/><rect height="3.78" rx=".532" transform="matrix(-.504737 -.276336 .0479961 -.62975 127.635 114.201)" width="2.0925"/><rect height="3.78" rx=".532" transform="matrix(-.512713 -.26124 .0292927 -.630896 126.658 113.655)" width="2.0925"/><rect height="3.78" rx=".532" transform="matrix(-.520238 -.245915 .0105635 -.631488 125.666 113.138)" width="2.0925"/><rect height="3.78" rx=".532" transform="matrix(-.527304 -.230373 -.00817503 -.631523 124.659 112.651)" width="2.0925"/><rect height="3.78" rx=".532" transform="matrix(-.533906 -.214629 -.0269064 -.631003 123.638 112.194)" width="2.0925"/><rect height="3.78" rx=".532" transform="matrix(-.540038 -.198695 -.045614 -.629927 122.604 111.767)" width="2.0925"/><rect height="3.78" rx=".532" transform="matrix(-.545695 -.182587 -.0642815 -.628296 121.558 111.372)" width="2.0925"/><rect height="3.78" rx=".532" transform="matrix(-.550872 -.166318 -.0828924 -.626113 120.501 111.007)" width="2.0925"/><rect height="3.78" rx=".532" transform="matrix(-.555563 -.149902 -.10143 -.623378 119.433 110.674)" width="2.0925"/><rect height="3.78" rx=".532" transform="matrix(-.559766 -.133355 -.119879 -.620095 118.355 110.373)" width="2.0925"/><rect height="3.78" rx=".532" transform="matrix(-.563476 -.11669 -.138222 -.616265 117.27 110.104)" width="2.0925"/><rect height="3.78" rx=".532" transform="matrix(-.566689 -.0999226 -.156444 -.611894 116.176 109.867)" width="2.0925"/><rect height="3.78" rx=".532" transform="matrix(-.569404 -.0830671 -.174527 -.606983 115.077 109.663)" width="2.0925"/><rect height="3.78" rx=".532" transform="matrix(-.571618 -.0661384 -.192457 -.601538 113.971 109.491)" width="2.0925"/><rect height="3.78" rx=".532" transform="matrix(-.573328 -.0491516 -.210218 -.595564 112.861 109.353)" width="2.0925"/><rect height="3.78" rx=".532" transform="matrix(-.574534 -.0321214 -.227794 -.589066 111.748 109.247)" width="2.0925"/><rect height="3.78" rx=".532" transform="matrix(-.575234 -.015063 -.245169 -.582049 110.631 109.174)" width="2.0925"/><rect height="3.78" rx=".532" transform="matrix(-.575428 .00200863 -.262328 -.574519 109.513 109.135)" width="2.0925"/><rect height="3.78" rx=".532" transform="matrix(-.575115 .0190785 -.279256 -.566484 108.395 109.129)" width="2.0925"/><rect height="3.78" rx=".532" transform="matrix(-.574296 .0361316 -.295939 -.55795 107.277 109.156)" width="2.0925"/><rect height="3.78" rx=".532" transform="matrix(-.572971 .0531529 -.312361 -.548925 106.16 109.216)" width="2.0925"/><rect height="3.78" rx=".532" transform="matrix(-.571142 .0701275 -.328508 -.539417 105.045 109.309)" width="2.0925"/><rect height="3.78" rx=".532" transform="matrix(-.56881 .0870402 -.344366 -.529434 103.933 109.435)" width="2.0925"/><rect height="3.78" rx=".532" transform="matrix(-.565978 .103876 -.359921 -.518985 102.826 109.594)" width="2.0925"/><rect height="3.78" rx=".532" transform="matrix(-.562647 .120621 -.375159 -.508079 101.724 109.786)" width="2.0925"/><rect height="3.78" rx=".532" transform="matrix(-.558821 .13726 -.390066 -.496726 100.628 110.011)" width="2.0925"/><rect height="3.78" rx=".532" transform="matrix(-.554503 .153777 -.404631 -.484935 99.5397 110.268)" width="2.0925"/><rect height="3.78" rx=".532" transform="matrix(-.549697 .17016 -.418839 -.472718 98.4591 110.557)" width="2.0925"/><rect height="3.78" rx=".532" transform="matrix(-.544407 .186392 -.432678 -.460085 97.3876 110.878)" width="2.0925"/><rect height="3.78" rx=".532" transform="matrix(-.538638 .202461 -.446137 -.447046 96.326 111.231)" width="2.0925"/><rect height="3.78" rx=".532" transform="matrix(-.532395 .218351 -.459203 -.433614 95.2755 111.615)" width="2.0925"/><rect height="3.78" rx=".532" transform="matrix(-.525683 .234049 -.471864 -.419801 94.2367 112.03)" width="2.0925"/><rect height="3.78" rx=".532" transform="matrix(-.518508 .249541 -.48411 -.405617 93.2107 112.476)" width="2.0925"/><rect height="3.78" rx=".532" transform="matrix(-.510877 .264813 -.49593 -.391077 92.1984 112.952)" width="2.0925"/><rect height="3.78" rx=".532" transform="matrix(-.502796 .279853 -.507314 -.376193 91.2007 113.457)" width="2.0925"/><rect height="3.78" rx=".532" transform="matrix(-.494273 .294646 -.518251 -.360977 90.2184 113.992)" width="2.0925"/><rect height="3.78" rx=".532" transform="matrix(-.485314 .309179 -.528732 -.345444 89.2524 114.556)" width="2.0925"/><rect height="3.78" rx=".532" transform="matrix(-.475928 .32344 -.538747 -.329606 88.3036 115.149)" width="2.0925"/><rect height="3.78" rx=".532" transform="matrix(-.466123 .337417 -.548288 -.313478 87.3727 115.769)" width="2.0925"/><rect height="3.78" rx=".532" transform="matrix(-.455908 .351097 -.557346 -.297075 86.4607 116.417)" width="2.0925"/><rect height="3.78" rx=".532" transform="matrix(-.445292 .364467 -.565914 -.28041 85.5682 117.091)" width="2.0925"/><rect height="3.78" rx=".532" transform="matrix(-.434284 .377517 -.573984 -.263498 84.6962 117.792)" width="2.0925"/><rect height="3.78" rx=".532" transform="matrix(-.422893 .390234 -.581548 -.246354 83.8453 118.518)" width="2.0925"/><rect height="3.78" rx=".532" transform="matrix(-.41113 .402608 -.588601 -.228993 83.0164 119.269)" width="2.0925"/><rect height="3.78" rx=".532" transform="matrix(-.399005 .414628 -.595135 -.211431 82.2101 120.045)" width="2.0925"/><rect height="3.78" rx=".532" transform="matrix(-.386529 .426282 -.601145 -.193682 81.4272 120.843)" width="2.0925"/><rect height="3.78" rx=".532" transform="matrix(-.373713 .437561 -.606626 -.175763 80.6683 121.665)" width="2.0925"/><rect height="3.78" rx=".532" transform="matrix(-.360568 .448456 -.611574 -.15769 79.9341 122.509)" width="2.0925"/><rect height="3.78" rx=".532" transform="matrix(-.347105 .458955 -.615983 -.139477 79.2253 123.375)" width="2.0925"/><rect height="3.78" rx=".532" transform="matrix(-.333337 .46905 -.619849 -.121142 78.5425 124.261)" width="2.0925"/><rect height="3.78" rx=".532" transform="matrix(-.319275 .478733 -.62317 -.1027 77.8862 125.167)" width="2.0925"/><rect height="3.78" rx=".532" transform="matrix(-.304932 .487994 -.625943 -.0841675 77.2572 126.092)" width="2.0925"/><rect height="3.78" rx=".532" transform="matrix(-.290321 .496825 -.628164 -.0655611 76.6558 127.035)" width="2.0925"/><rect height="3.78" rx=".532" transform="matrix(-.275454 .505219 -.629833 -.0468969 76.0827 127.995)" width="2.0925"/><rect height="3.78" rx=".532" transform="matrix(-.260345 .513168 -.630947 -.0281915 75.5383 128.973)" width="2.0925"/><rect height="3.78" rx=".532" transform="matrix(-.245007 .520666 -.631505 -.00946132 75.0232 129.966)" width="2.0925"/><rect height="3.78" rx=".532" transform="matrix(-.229453 .527705 -.631508 .00927723 74.5377 130.973)" width="2.0925"/><rect height="3.78" rx=".532" transform="matrix(-.213697 .53428 -.630955 .0280076 74.0824 131.995)" width="2.0925"/><rect height="3.78" rx=".532" transform="matrix(-.197753 .540384 -.629846 .0467133 73.6575 133.03)" width="2.0925"/><rect height="3.78" rx=".532" transform="matrix(-.181634 .546013 -.628183 .065378 73.2636 134.077)" width="2.0925"/><rect height="3.78" rx=".532" transform="matrix(-.165356 .551161 -.625967 .083985 72.9008 135.135)" width="2.0925"/><rect height="3.78" rx=".532" transform="matrix(-.148933 .555824 -.6232 .102518 72.5697 136.203)" width="2.0925"/><rect height="3.78" rx=".532" transform="matrix(-.132378 .559998 -.619884 .120961 72.2703 137.281)" width="2.0925"/><rect height="3.78" rx=".532" transform="matrix(-.115707 .563678 -.616023 .139297 72.0031 138.367)" width="2.0925"/><rect height="3.78" rx=".532" transform="matrix(-.0989334 .566863 -.61162 .157511 71.7682 139.461)" width="2.0925"/><rect height="3.78" rx=".532" transform="matrix(-.0820732 .569548 -.606678 .175586 71.5659 140.561)" width="2.0925"/><rect height="3.78" rx=".532" transform="matrix(-.0651407 .571732 -.601202 .193507 71.3963 141.667)" width="2.0925"/><rect height="3.78" rx=".532" transform="matrix(-.0481509 .573413 -.595196 .211257 71.2596 142.777)" width="2.0925"/><rect height="3.78" rx=".532" transform="matrix(-.0311186 .574589 -.588667 .228821 71.1558 143.891)" width="2.0925"/><rect height="3.78" rx=".532" transform="matrix(-.014059 .57526 -.58162 .246184 71.0852 145.007)" width="2.0925"/><rect height="3.78" rx=".532" transform="matrix(.00301294 .575424 -.574061 .26333 71.0477 146.125)" width="2.0925"/><rect height="3.78" rx=".532" transform="matrix(.0200823 .575081 -.565996 .280245 71.0434 147.244)" width="2.0925"/><rect height="3.78" rx=".532" transform="matrix(.0371339 .574232 -.557433 .296912 71.0722 148.362)" width="2.0925"/><rect height="3.78" rx=".532" transform="matrix(.0541529 .572878 -.548379 .313319 71.1343 149.479)" width="2.0925"/><rect height="3.78" rx=".532" transform="matrix(.0711242 .571019 -.538843 .329449 71.2294 150.594)" width="2.0925"/><rect height="3.78" rx=".532" transform="matrix(.0880329 .568658 -.528832 .345289 71.3576 151.705)" width="2.0925"/><rect height="3.78" rx=".532" transform="matrix(.104864 .565796 -.518356 .360826 71.5187 152.812)" width="2.0925"/><rect height="3.78" rx=".532" transform="matrix(.121603 .562436 -.507424 .376045 71.7125 153.913)" width="2.0925"/><rect height="3.78" rx=".532" transform="matrix(.138235 .558581 -.496044 .390933 71.9389 155.009)" width="2.0925"/><rect height="3.78" rx=".532" transform="matrix(.154745 .554234 -.484229 .405476 72.1978 156.097)" width="2.0925"/><rect height="3.78" rx=".532" transform="matrix(.171119 .549399 -.471986 .419663 72.4888 157.177)" width="2.0925"/><rect height="3.78" rx=".532" transform="matrix(.187342 .544081 -.459329 .43348 72.8117 158.248)" width="2.0925"/><rect height="3.78" rx=".532" transform="matrix(.203401 .538284 -.446267 .446916 73.1663 159.309)" width="2.0925"/><rect height="3.78" rx=".532" transform="matrix(.21928 .532013 -.432812 .459959 73.5521 160.359)" width="2.0925"/><rect height="3.78" rx=".532" transform="matrix(.234966 .525273 -.418976 .472596 73.969 161.397)" width="2.0925"/><rect height="3.78" rx=".532" transform="matrix(.250446 .518072 -.404772 .484818 74.4165 162.422)" width="2.0925"/><rect height="3.78" rx=".532" transform="matrix(.265705 .510414 -.390211 .496612 74.8942 163.434)" width="2.0925"/><rect height="3.78" rx=".532" transform="matrix(.28073 .502307 -.375307 .50797 75.4016 164.431)" width="2.0925"/><rect height="3.78" rx=".532" transform="matrix(.295508 .493758 -.360072 .51888 75.9385 165.412)" width="2.0925"/><rect height="3.78" rx=".532" transform="matrix(.310026 .484774 -.34452 .529334 76.5042 166.377)" width="2.0925"/><rect height="3.78" rx=".532" transform="matrix(.324271 .475363 -.328665 .539321 77.0982 167.325)" width="2.0925"/><rect height="3.78" rx=".532" transform="matrix(.33823 .465534 -.312521 .548834 77.7202 168.255)" width="2.0925"/><rect height="3.78" rx=".532" transform="matrix(.351892 .455295 -.296102 .557864 78.3694 169.166)" width="2.0925"/><rect height="3.78" rx=".532" transform="matrix(.365244 .444655 -.279422 .566403 79.0454 170.057)" width="2.0925"/><rect height="3.78" rx=".532" transform="matrix(.378274 .433624 -.262495 .574443 79.7475 170.928)" width="2.0925"/><rect height="3.78" rx=".532" transform="matrix(.390972 .422211 -.245338 .581977 80.4752 171.777)" width="2.0925"/><rect height="3.78" rx=".532" transform="matrix(.403325 .410427 -.227965 .588999 81.2277 172.605)" width="2.0925"/><rect height="3.78" rx=".532" transform="matrix(.415324 .398281 -.210392 .595503 82.0045 173.41)" width="2.0925"/><rect height="3.78" rx=".532" transform="matrix(.426956 .385785 -.192633 .601482 82.8048 174.191)" width="2.0925"/><rect height="3.78" rx=".532" transform="matrix(.438213 .372949 -.174704 .606932 83.6279 174.949)" width="2.0925"/><rect height="3.78" rx=".532" transform="matrix(.449084 .359784 -.156622 .611848 84.4731 175.681)" width="2.0925"/><rect height="3.78" rx=".532" transform="matrix(.45956 .346303 -.138402 .616225 85.3397 176.389)" width="2.0925"/><rect height="3.78" rx=".532" transform="matrix(.469631 .332517 -.12006 .62006 86.2269 177.07)" width="2.0925"/><rect height="3.78" rx=".532" transform="matrix(.479289 .318439 -.101612 .623348 87.1339 177.725)" width="2.0925"/><rect height="3.78" rx=".532" transform="matrix(.488525 .30408 -.0830749 .626089 88.0599 178.352)" width="2.0925"/><rect height="3.78" rx=".532" transform="matrix(.497331 .289453 -.0644646 .628278 89.0042 178.952)" width="2.0925"/><rect height="3.78" rx=".532" transform="matrix(.505699 .274572 -.0457976 .629913 89.9658 179.523)" width="2.0925"/><rect height="3.78" rx=".532" transform="matrix(.513622 .259449 -.0270903 .630995 90.944 180.066)" width="2.0925"/><rect height="3.78" rx=".532" transform="matrix(.521093 .244098 -.00835912 .631521 91.9378 180.579)" width="2.0925"/><rect height="3.78" rx=".532" transform="matrix(.528105 .228531 .0103794 .631491 92.9464 181.063)" width="2.0925"/><rect height="3.78" rx=".532" transform="matrix(.534652 .212764 .0291088 .630905 93.969 181.516)" width="2.0925"/><rect height="3.78" rx=".532" transform="matrix(.540729 .196809 .0478126 .629764 95.0045 181.939)" width="2.0925"/><rect height="3.78" rx=".532" transform="matrix(.546329 .180681 .0664742 .628068 96.0521 182.332)" width="2.0925"/><rect height="3.78" rx=".532" transform="matrix(.551449 .164394 .0850774 .62582 97.1109 182.692)" width="2.0925"/><rect height="3.78" rx=".532" transform="matrix(.556083 .147962 .103606 .62302 98.1799 183.022)" width="2.0925"/><rect height="3.78" rx=".532" transform="matrix(.560228 .1314 .122043 .619672 99.2583 183.319)" width="2.0925"/><rect height="3.78" rx=".532" transform="matrix(.563879 .114723 .140372 .615779 100.345 183.584)" width="2.0925"/><rect height="3.78" rx=".532" transform="matrix(.567035 .0979439 .158578 .611344 101.439 183.817)" width="2.0925"/><rect height="3.78" rx=".532" transform="matrix(.569691 .081079 .176645 .60637 102.539 184.018)" width="2.0925"/><rect height="3.78" rx=".532" transform="matrix(.571845 .0641427 .194556 .600863 103.645 184.185)" width="2.0925"/><rect height="3.78" rx=".532" transform="matrix(.573496 .04715 .212296 .594827 104.756 184.32)" width="2.0925"/><rect height="3.78" rx=".532" transform="matrix(.574643 .0301158 .229848 .588267 105.87 184.422)" width="2.0925"/><rect height="3.78" rx=".532" transform="matrix(.457748 .013055 .196694 .581189 107.008 184.491)" width="2.0925"/></g><g stroke-width=".3528"><path d="m114.839 108.003c18.146 2.9557 32.0793 18.8763 32.0793 37.9734 0 21.1873-17.1489 38.4675-38.1749 38.4675s-38.1749-17.2802-38.1749-38.4675c0-19.242 14.1452-35.2605 32.4926-38.0398v-.5561c-18.9431 2.8109-33.57 19.4493-33.57 39.4492 0 21.9597 17.6328 39.87 39.2523 39.87 21.6194 0 39.2523-17.9103 39.2523-39.87 0-19.8543-14.4146-36.397-33.1567-39.3868z"/><path d="m108.641 195.013-2.666-2.666 2.666-2.665 2.665 2.665z"/><path d="m108.638 189.671-.927-.926-.762.762.617.618.436-.436"/><path d="m111.306 192.339.926.927-.763.762-.617-.617.436-.436"/><path d="m105.968 192.34-.926-.926.763-.762.617.617-.436.436"/><path d="m108.637 195.009.926.926.762-.763-.617-.617-.436.436"/><path d="m105.968 192.339-.926.927.763.762.617-.617-.436-.436"/><path d="m108.637 189.671.926-.926.762.762-.617.618-.436-.436"/><path d="m108.638 195.009-.927.926-.762-.763.617-.617.436.436"/><path d="m111.306 192.34.926-.926-.763-.762-.617.617.436.436"/><path d="m98.3372 193.046-2.0955-2.095 2.0955-2.096 2.0958 2.096z"/><path d="m98.3348 188.847-.7279-.728-.5996.599.4854.486.3429-.343"/><path d="m100.433 190.945.728.727-.6.6-.485-.485.343-.343"/><path d="m96.2363 190.945-.728-.728.5995-.599.4854.485-.3429.343"/><path d="m98.3341 193.043.728.728.5996-.599-.4854-.486-.3429.343"/><path d="m96.2363 190.945-.728.727.5995.6.4854-.485-.3429-.343"/><path d="m98.3341 188.847.728-.728.5996.599-.4854.486-.3429-.343"/><path d="m98.3348 193.043-.7279.728-.5996-.599.4854-.486.3429.343"/><path d="m100.433 190.945.728-.728-.6-.599-.485.485.343.343"/><path d="m119.481 193.046-2.095-2.095 2.095-2.096 2.096 2.096z"/><path d="m119.479 188.847-.728-.728-.6.599.486.486.343-.343"/><path d="m121.577 190.945.728.727-.6.6-.485-.485.343-.343"/><path d="m117.38 190.945-.728-.728.6-.599.485.485-.343.343"/><path d="m119.478 193.043.728.728.6-.599-.486-.486-.343.343"/><path d="m117.38 190.945-.728.727.6.6.485-.485-.343-.343"/><path d="m119.478 188.847.728-.728.6.599-.486.486-.343-.343"/><path d="m119.479 193.043-.728.728-.6-.599.486-.486.343.343"/><path d="m121.577 190.945.728-.728-.6-.599-.485.485.343.343"/><path d="m128.905 189.041-2.096-2.095 2.096-2.096 2.095 2.096z"/><path d="m128.902 184.842-.728-.728-.599.599.485.486.343-.343"/><path d="m131 186.94.728.727-.599.6-.486-.485.343-.343"/><path d="m126.804 186.94-.728-.728.599-.599.486.485-.343.343"/><path d="m128.902 189.038.728.728.599-.6-.485-.485-.343.343"/><path d="m126.804 186.94-.728.727.599.6.486-.485-.343-.343"/><path d="m128.902 184.842.728-.728.599.599-.485.486-.343-.343"/><path d="m128.902 189.038-.728.728-.599-.6.485-.485.343.343"/><path d="m131 186.94.728-.728-.599-.599-.486.485.343.343"/><path d="m88.6192 189.041-2.0955-2.095 2.0955-2.096 2.0956 2.096z"/><path d="m88.6168 184.842-.7279-.728-.5996.599.4854.486.3429-.343"/><path d="m90.7147 186.94.728.727-.5996.6-.4853-.485.3428-.343"/><path d="m86.5183 186.94-.728-.728.5995-.599.4854.485-.3429.343"/><path d="m88.6161 189.038.728.728.5995-.6-.4853-.485-.3429.343"/><path d="m86.5183 186.94-.728.727.5995.6.4854-.485-.3429-.343"/><path d="m88.6161 184.842.728-.728.5995.599-.4853.486-.3429-.343"/><path d="m88.6168 189.038-.7279.728-.5996-.6.4854-.485.3429.343"/><path d="m90.7147 186.94.728-.728-.5996-.599-.4853.485.3428.343"/><path d="m79.7842 183.053-1.7038-1.704 1.7038-1.703 1.7037 1.703z"/><path d="m79.7822 179.639-.5918-.592-.4875.487.3946.395.2788-.279"/><path d="m81.4878 181.344.5918.592-.4874.488-.3946-.395.2788-.279"/><path d="m78.0761 181.345-.5919-.592.4874-.487.3946.394-.2787.279"/><path d="m79.7816 183.05.5919.592.4874-.487-.3946-.395-.2788.279"/><path d="m78.0761 181.344-.5919.592.4874.488.3946-.395-.2787-.279"/><path d="m79.7816 179.639.5919-.592.4874.487-.3946.395-.2788-.279"/><path d="m79.7822 183.05-.5918.592-.4875-.487.3946-.395.2788.279"/><path d="m81.4878 181.345.5918-.592-.4874-.487-.3946.394.2788.279"/><path d="m137.739 183.053-1.704-1.704 1.704-1.703 1.704 1.703z"/><path d="m137.737 179.639-.592-.592-.487.487.394.395.279-.279"/><path d="m139.443 181.344.591.592-.487.488-.395-.395.279-.279"/><path d="m136.031 181.345-.592-.592.487-.487.395.394-.279.279"/><path d="m137.736 183.05.592.592.488-.487-.395-.395-.279.279"/><path d="m136.031 181.344-.592.592.487.488.395-.395-.279-.279"/><path d="m137.736 179.639.592-.592.488.487-.395.395-.279-.279"/><path d="m137.737 183.05-.592.592-.487-.487.394-.395.279.279"/><path d="m139.443 181.345.591-.592-.487-.487-.395.394.279.279"/><path d="m133.909 184.658-.485-.485.485-.485.485.485z"/><path d="m133.908 183.686-.168-.169-.139.139.112.112.08-.079"/><path d="m134.394 184.172.169.168-.139.139-.112-.112.079-.08"/><path d="m133.422 184.172-.168-.169.139-.139.112.113-.079.079"/><path d="m133.908 184.658.169.168.139-.139-.113-.112-.079.079"/><path d="m133.422 184.172-.168.168.139.139.112-.112-.079-.08"/><path d="m133.908 183.686.169-.169.139.139-.113.112-.079-.079"/><path d="m133.908 184.658-.168.168-.139-.139.112-.112.08.079"/><path d="m134.394 184.172.169-.169-.139-.139-.112.113.079.079"/><path d="m83.8713 184.658-.4852-.485.4852-.485.4853.485z"/><path d="m83.8708 183.686-.1686-.169-.1388.139.1124.112.0794-.079"/><path d="m84.3566 184.172.1686.168-.1389.139-.1124-.112.0794-.08"/><path d="m83.3849 184.172-.1686-.169.1388-.139.1124.113-.0794.079"/><path d="m83.8706 184.658.1686.168.1388-.139-.1123-.112-.0794.079"/><path d="m83.3849 184.172-.1686.168.1388.139.1124-.112-.0794-.08"/><path d="m83.8706 183.686.1686-.169.1388.139-.1123.112-.0794-.079"/><path d="m83.8708 184.658-.1686.168-.1388-.139.1124-.112.0794.079"/><path d="m84.3566 184.172.1686-.169-.1389-.139-.1124.113.0794.079"/><path d="m76.3339 177.666-.4852-.486.4852-.485.4853.485z"/><path d="m76.3334 176.693-.1686-.168-.1388.139.1124.112.0794-.079"/><path d="m76.8192 177.179.1685.169-.1388.138-.1124-.112.0794-.079"/><path d="m75.8475 177.179-.1686-.168.1388-.139.1124.112-.0794.08"/><path d="m76.3332 177.665.1686.169.1388-.139-.1124-.113-.0794.08"/><path d="m75.8475 177.179-.1686.169.1388.138.1124-.112-.0794-.079"/><path d="m76.3332 176.693.1686-.168.1388.139-.1124.112-.0794-.079"/><path d="m76.3334 177.665-.1686.169-.1388-.139.1124-.113.0794.08"/><path d="m76.8192 177.179.1685-.168-.1388-.139-.1124.112.0794.08"/><path d="m141.446 177.666-.485-.486.485-.485.486.485z"/><path d="m141.446 176.693-.169-.168-.139.139.113.112.079-.079"/><path d="m141.932 177.179.168.169-.139.138-.112-.112.079-.079"/><path d="m140.96 177.179-.169-.168.139-.139.113.112-.08.08"/><path d="m141.446 177.665.168.169.139-.139-.112-.113-.08.08"/><path d="m140.96 177.179-.169.169.139.138.113-.112-.08-.079"/><path d="m141.446 176.693.168-.168.139.139-.112.112-.08-.079"/><path d="m141.446 177.665-.169.169-.139-.139.113-.113.079.08"/><path d="m141.932 177.179.168-.168-.139-.139-.112.112.079.08"/><path d="m124.283 189.744-.485-.485.485-.486.485.486z"/><path d="m124.282 188.771-.168-.168-.139.139.112.112.08-.08"/><path d="m124.768 189.257.169.169-.139.139-.113-.113.08-.079"/><path d="m123.796 189.257-.168-.168.139-.139.112.112-.079.08"/><path d="m124.282 189.743.169.169.139-.139-.113-.113-.079.08"/><path d="m123.796 189.257-.168.169.139.139.112-.113-.079-.079"/><path d="m124.282 188.771.169-.168.139.139-.113.112-.079-.08"/><path d="m124.282 189.743-.168.169-.139-.139.112-.113.08.08"/><path d="m124.768 189.257.169-.168-.139-.139-.113.112.08.08"/><path d="m93.3158 189.744-.4852-.485.4852-.486.4853.486z"/><path d="m93.3153 188.771-.1686-.168-.1388.139.1124.112.0794-.08"/><path d="m93.8011 189.257.1685.169-.1388.139-.1124-.113.0794-.079"/><path d="m92.8294 189.257-.1686-.168.1388-.139.1124.112-.0794.08"/><path d="m93.3151 189.743.1686.169.1388-.139-.1124-.113-.0794.08"/><path d="m92.8294 189.257-.1686.169.1388.139.1124-.113-.0794-.079"/><path d="m93.3151 188.771.1686-.168.1388.139-.1124.112-.0794-.08"/><path d="m93.3153 189.743-.1686.169-.1388-.139.1124-.113.0794.08"/><path d="m93.8011 189.257.1685-.168-.1388-.139-.1124.112.0794.08"/><path d="m103.214 192.377-.485-.485.485-.485.486.485z"/><path d="m103.214 191.405-.169-.169-.139.139.113.113.079-.08"/><path d="m103.7 191.891.168.168-.139.139-.112-.112.079-.08"/><path d="m102.728 191.891-.169-.169.139-.139.113.113-.08.079"/><path d="m103.214 192.377.168.168.139-.139-.112-.112-.08.079"/><path d="m102.728 191.891-.169.168.139.139.113-.112-.08-.08"/><path d="m103.214 191.405.168-.169.139.139-.112.113-.08-.08"/><path d="m103.214 192.377-.169.168-.139-.139.113-.112.079.079"/><path d="m103.7 191.891.168-.169-.139-.139-.112.113.079.079"/><path d="m114.566 192.377-.485-.485.485-.485.485.485z"/><path d="m114.565 191.405-.168-.169-.139.139.112.113.08-.08"/><path d="m115.051 191.891.169.168-.139.139-.112-.112.079-.08"/><path d="m114.079 191.891-.168-.169.139-.139.112.113-.079.079"/><path d="m114.565 192.377.169.168.139-.139-.113-.112-.079.079"/><path d="m114.079 191.891-.168.168.139.139.112-.112-.079-.08"/><path d="m114.565 191.405.169-.169.139.139-.113.113-.079-.08"/><path d="m114.565 192.377-.168.168-.139-.139.112-.112.08.079"/><path d="m115.051 191.891.169-.169-.139-.139-.112.113.079.079"/></g></g></g></svg>