<svg height="187.65096pt" viewBox="0 0 160.73866 187.65096" width="160.73866pt" xmlns="http://www.w3.org/2000/svg"><g transform="matrix(.13286398 0 0 .13286398 -18.993298 -5.705045)"><path d="m708.14 67.02c9.4-14.65 26.4-24.28 43.9-24.06 14.2-.42 28.43 5.48 38.29 15.7 11.55 11.37 17.01 28.37 14.73 44.37-2.08 16.89-13.08 32.02-28.06 39.9-.01 10.09 0 20.18 0 30.27 72.1 3.33 143.56 19.8 209.84 48.38 5.96-3.07 12.07-5.85 18.05-8.89 2.88-12.23 7.21-24.67 15.72-34.18 5.23-6.03 13.43-9.74 21.44-8.21 9.96 1.59 17.87 8.36 25.29 14.68 11.57-5.38 23.3-10.4 34.91-15.69 6.38-3.06 14.16-4.09 20.83-1.4 6.48 2.83 8.46 10.6 8.14 17.06-.79 11.88-3.36 24.08-10.06 34.12-2.74 4.26-6.67 7.6-11.05 10.07-12.05 7.01-23.99 14.21-36.07 21.16-1.02 5.31-1.66 10.68-2.65 16 65.91 41.91 123.67 96.6 168.98 160.23 44.48 62.27 76.98 133.07 95.08 207.42 22.77 93.28 23.07 191.95.87 285.37-17.93 75.72-50.78 147.86-96.03 211.16-44.84 62.95-101.86 117.17-166.94 158.85-63.02 40.46-133.67 68.86-207.09 83.57.23 11.72-4.69 23.87-14.23 30.98-11.9 9.03-27.96 10.31-42.16 7.12-9.56-2.06-19.09-6.83-24.61-15.19-2.64-3.67-4.02-8.01-5.29-12.28-11.68.72-23.38.84-35.08.97 1.6 6.53 3.82 12.91 5.17 19.5 1.23 10.86-.55 22.35-6.21 31.82-4.75 8.01-12.78 13.71-21.58 16.49-15.62 4.93-33.27 3.82-47.82-3.86-9.57-5.06-17.34-13.43-21.58-23.38-2.65-5.87-3.77-12.24-5.33-18.43-2.55-10.58-5.16-21.15-7.63-31.75-81.38-14.78-159.64-46.39-228.28-92.55-100.15-67-179.62-164.49-224.62-276.31-30.06-74.05-45.01-154.15-44.01-234.05.69-86.47 20.25-172.76 57.06-251.02 35.95-76.83 88.38-145.81 152.52-201.29 65.45-56.72 143.24-99.2 226.45-123.29 48.72-14.23 99.27-21.95 149.97-23.67-.01-9.8 0-19.6 0-29.41-12.22-6.21-22.02-17.11-26.42-30.14-5.28-15.14-3.27-32.71 5.56-46.14m15.81 16.95c-4.77 11.16-2.08 24.99 6.6 33.49 4.71 5.02 11.22 7.99 17.95 9.17-.01 8.12.02 16.24-.01 24.36-.61 13.32.13 26.67-.47 40-.08 6.84.04 13.69-.06 20.53-100.21-.43-200.32 26.85-286.58 77.83-62.66 36.87-118.1 85.94-162.36 143.62-47.3 61.44-81.77 132.72-100.45 207.99-23.03 92.4-22.37 190.59 1.97 282.67 14.56 55.28 37.65 108.3 68.1 156.69 40.68 64.73 94.59 121.08 157.41 164.63 67.27 46.77 144.88 78.55 225.64 92.38 5.77 24.51 11.69 48.98 17.52 73.48 2.32 7.92 7.77 14.9 14.83 19.16 9.41 5.59 21.37 6.37 31.59 2.6 5.2-1.95 10-5.56 12.41-10.66 2.73-5.87 2.59-12.68.89-18.81-5.19-19.55-10.28-39.12-15.45-58.67 25.46 1.62 51 1.32 76.44-.47 3.08 11.26 6.2 22.52 9.25 33.8 2.31 8.26 10.59 13.82 18.93 14.4 7.91.52 16.67-.78 22.71-6.36 5.17-4.87 6.12-12.67 4.56-19.31-2.32-9.41-4.77-18.8-7.01-28.23 58.59-9.44 115.66-28.23 168.37-55.5 65.58-33.81 124.39-80.63 172.14-136.87 49.71-58.34 87.41-126.87 109.92-200.14 28.45-92.07 32.69-191.4 12.72-285.64-15.93-75.21-47.46-147.05-92-209.7-44.57-62.88-102.06-116.54-167.86-156.68 8.61-18.16 14.49-37.73 16.42-57.77 12.72-7.58 25.5-15.07 38.25-22.6 3.5-2.09 7.42-3.87 9.8-7.34 4-5.47 4.54-12.52 4.12-19.07-17.35 8.15-34.75 16.18-52.1 24.32-4.19-7.19-8.7-15.07-16.43-18.93-4.44-2.38-9.41.81-11.61 4.74-5.45 9.1-6.91 19.83-8.67 30.1-18.59 9.14-36.97 18.68-55.53 27.87-65.95-27.62-137.17-42.39-208.64-43.58-.03-28.32.01-56.64-.03-84.95 13.96-2.04 25.54-14.41 26.31-28.55 1.39-14.94-9.75-29.59-24.42-32.49-14.18-3.39-29.82 5.01-35.17 18.49z"/><path d="m595.22 269.16c43.71-13.15 89.14-20.51 134.76-22 6-.36 12.03.09 18.03-.44-.61 39.3-1 78.59-1.5 117.89-21.75 10.78-43.59 21.35-65.39 32.03-8.78-5.86-18.52-11.02-29.19-12.03-6.98-.69-14.41 2-18.66 7.73-6.65 8.68-7.79 20.08-8.33 30.64-16.51 7.23-32.98 14.57-49.59 21.56-9.35-7.51-20.34-13.6-32.34-15.33-8.85-1.3-18.29 1.79-24.2 8.6-8.82 9.83-11.95 23.22-14 35.92-16.18 8.13-32.31 16.38-48.49 24.53-2.07 1.24-5.05 1.93-5.47 4.72 1.87.22 3.77.26 5.59-.32 14.9-4.02 29.85-7.88 44.75-11.9.45 19.16 2.43 38.46 8.28 56.79 3.23 9.93 7.6 19.66 14.25 27.81 2.12 2.56 4.26 5.23 7.23 6.86 12.97 7.41 29.34 9.92 43.43 4.19 13.32-5.28 23.24-16.5 30.42-28.57 13.95-23.85 20.13-51.23 24.83-78.18 7.22-2.99 14.39-6.1 21.65-8.99-1.03 21.98.98 44.48 8.78 65.2 5.85 15.56 16.5 30.12 31.89 37.25 16.54 7.83 35.7 6.59 53.05 2.41v416.2c-23.42 1.03-46.94-.54-70.09-4.25-24.53-4.06-48.85-10.8-70.97-22.35-22.71-11.74-42.91-29.63-54.19-52.87-8.23-16.7-11.91-35.46-11.75-54.02 17.08 0 34.16.01 51.24 0 .01-13.83.01-27.65 0-41.48-16.66-.02-33.33 0-49.99-.01-.01-19.5-.01-39 0-58.5 16.41-.01 32.83.01 49.24-.01-.02-12.01.08-24.02-.06-36.03-40.71.09-81.42.02-122.13.04-2.61-45.53-5.52-91.05-8.27-136.57 7.81-.68 14.54-7.7 14.26-15.65.31-9.26-9.18-17.25-18.25-15.22-8.44 1.3-14.54 10.44-12.42 18.73 1.42 6.64 7.57 11.53 14.22 12.2-3.52 45.36-6.92 90.72-10.66 136.05-22.73-.09-45.45-.02-68.18-.03-.01 12.08 0 24.16 0 36.24h51.5c.01 19.5.01 39 0 58.5-17.16 0-34.32.02-51.47-.01-.06 13.83-.02 27.67-.03 41.5 15.73-.31 31.84 3.35 45.15 11.94 12.6 8.1 21.79 21.26 25.07 35.88 4.52 18.4 7.64 37.19 8.67 56.14.87 17.8.04 36.09-5.9 53.05-4.44 12.98-13.23 24.81-25.68 31.02 15.21-2.01 30.76-3.01 45.96-.36 7.55 1.4 15.31 3.64 21.26 8.73 14.72 12.66 29.45 25.31 43.89 38.29 13.22 12.45 28.18 22.96 43.84 32.11 14.28 8.08 29.46 15.08 45.7 18.09 9.3 36.83 18.49 73.68 27.83 110.5-7.12 1.26-12.27 7.67-13.02 14.7-1.24 10.64 2.1 21.1 3.24 31.61-75.6-15.09-147.72-47.15-209.7-92.98-65.29-48.13-119.36-111.37-156.65-183.4-34.78-66.82-54.88-141.19-58.75-216.41-4.6-85.7 11.61-172.5 47.57-250.46 30.4-66.3 74.7-126.17 129.1-174.74 57.58-51.57 126.56-90.38 200.64-112.54m-22.83 51.24c-71.39 27.4-136.05 71.95-187.33 128.66-50.13 55.3-87.48 122.16-107.96 193.96-25.82 89.94-25.21 187.28 1.77 276.88 26.05 87.21 77.2 166.67 145.53 226.76 56.79 50.13 125.31 87.1 198.68 106.11 1.32-3.61 3.55-6.75 5.76-9.85-6.71-27.68-13.4-55.35-20.07-83.03-18.05-4.39-34.3-13.9-49.87-23.74-12.82-8.65-26.07-17.02-36.91-28.16-14.27-13.5-28.92-26.68-44.84-38.21-7.72-5.84-18-5.21-27.15-5.29-8.72.28-17.61.44-26.01 3.02-5.26 1.35-10.67 2.37-16.11 2.2-4.27-.25-8.95-1.21-11.86-4.59-3.78-5.07-3.36-12.13-.37-17.46 6.27-11.82 16.64-20.73 26.86-29.05 4.48-3.92 7.3-9.37 9.26-14.91 4.23-12.43 4.53-25.76 4.15-38.75-.87-18.7-3.96-37.24-8.29-55.43-1.23-5.39-3.92-10.46-7.83-14.39-6.36-6.56-15.04-10.25-23.73-12.59-13.04-3.37-26.65-4.08-40.06-3.27-.02-27.68-.01-55.35 0-83.02 17.33 0 34.65 0 51.98-.01.01-6.16.01-12.32 0-18.48-17.33-.01-34.65-.01-51.98 0-.02-25.26-.01-50.51-.01-75.76 22.9-.02 45.81.02 68.71-.02 3.95-34.74 7.56-69.53 11.67-104.25-4.8-4.46-9.43-9.42-11.52-15.77-5.42-14.04-.17-31.3 12.35-39.73 12.98-9.45 32.5-7.78 43.67 3.77 7.24 7.22 10.94 17.77 9.72 27.94-.95 9.09-5.84 17.56-12.99 23.21 3.05 35.11 6.05 70.23 9.19 105.34 41 .07 82.01-.1 123 .08-.12 25.06-.01 50.12-.05 75.18-16.92.01-33.83-.01-50.75.01v19.24c16.92.01 33.84-.01 50.76.01.1 12.38-.24 24.78.17 37.16 12.8-34.92 25.1-70.04 37.65-105.06-4.6-8.44-8.82-17.09-12.76-25.85-15.63-35.08-27.15-72.27-31.62-110.48-9.08 10.25-21.74 16.93-35.05 19.77-13.04 3.06-26.91.67-39.01-4.73-15.5-7-27.04-20.64-34.29-35.74-8.03-16.81-12.21-35.34-13.17-53.9-10.24 1.97-20.4 4.5-30.71 6.06-11.19 1.48-23.12-7.76-23.17-19.29.12-9.28 6.8-17.03 14.31-21.75 14.18-7.52 28.44-14.91 42.65-22.37 1.35-.54 1.33-2.22 1.8-3.37 3.28-12.84 8.38-25.63 17.42-35.54 7.33-8.16 17.9-13.36 28.89-13.88 15.93-.98 31.46 4.95 44.82 13.21 9.19-4.37 18.42-8.67 27.57-13.13 2.46-11.6 6.59-23.35 14.88-32.13 6.59-7.17 16.15-11.25 25.83-11.68 12.66-.6 25.26 3.08 36.34 9.04 14.9-6.7 29.58-13.87 44.42-20.67.04-21.4.01-42.8.02-64.2-52.74 2.02-105.11 12.99-154.36 31.92m41.3 259.32c-.87.92-1.26 2.01-1.17 3.26.42 10.07 1.55 20.12 3.33 30.04 6.62 36.14 20.26 70.88 38.8 102.54 13.88-39.62 27.59-79.29 41.54-118.88-11.34-3.37-22.03-9.09-30.73-17.14-14.18-13.1-23.76-30.86-28.05-49.59-3.81 18.19-12.77 34.91-23.72 49.77m100.34 19.65c-15.64 46.8-31.22 93.61-46.83 140.42 2.35 3.53 4.69 7.07 7.08 10.58 14.7-50.47 29.41-100.94 44.07-151.42-1.45.13-2.89.27-4.32.42m12.16 9.26c-15.16 50.57-29.79 101.31-44.96 151.88 1.29 1.35 2.6 2.7 3.93 4.04 13.56-47.21 26.92-94.47 40.46-141.68 1.24-4.64.43-9.51.57-14.24m-33.46 165.58c1.82 2.31 3.64 4.62 5.48 6.92 9.27-34.73 18.52-69.47 27.73-104.22.74-6.32.1-12.74.3-19.1-11.23 38.78-22.34 77.6-33.51 116.4m-19.85-84.54c-4.37 12.4-8.99 24.71-13.53 37.05.4.37 1.21 1.11 1.62 1.49 3.88-12.87 8.5-25.55 11.91-38.54m53.35 24.43c-6.66 25.24-13.33 50.48-19.95 75.74 1.63 1.47 3.28 2.93 4.95 4.36 4.5-18.48 9.01-36.96 13.52-55.43 2.62-7.98 1.11-16.45 1.48-24.67m-71.54 25.99c-15.21 41.72-30.12 83.56-45.28 125.3-1.29 4.05-.43 8.39-.64 12.57-1.21.02-2.42.05-3.61.08-6.02 16.83-12.16 33.62-18.17 50.45 1.49 1.23 2.99 2.47 4.51 3.68 21.4-63.35 42.96-126.65 64.32-190.02-.28-.51-.84-1.55-1.13-2.06m4.31 21.81c-19.7 58.9-39.45 117.77-59.03 176.71 4.73 3.56 10.08 6.14 15.33 8.84 18.31-61.59 36.46-123.23 54.54-184.88-1.98-3.86-5.04-7.08-7.33-10.77-1.37 3.29-2.38 6.72-3.51 10.1m-34.44 189.88c1.77.66 3.52 1.31 5.3 2 17.17-58.89 33.98-117.88 51.05-176.8-1.29-1.65-2.6-3.29-3.91-4.92-17.53 59.89-35.04 119.79-52.44 179.72m95.25-150.54c2.12 1.51 4.26 2.99 6.44 4.44-.18-10.32-.16-20.64-.6-30.96-1.85 8.86-3.91 17.67-5.84 26.52m-31.38-15.19c-16.23 56.97-32.54 113.92-48.8 170.88 4.04 1.25 8.11 2.42 12.19 3.59 14.35-55.69 28.87-111.34 43.13-167.05-2.23-2.43-4.37-4.93-6.52-7.42m14.62 14.59c-13.7 54.19-27.37 108.38-41.04 162.58 2.67.52 5.35.99 8.04 1.45 12.65-53.19 25.29-106.39 37.95-159.58-1.64-1.5-3.29-2.99-4.95-4.45m13.57 11.38c-12.15 51.46-24.29 102.93-36.39 154.41 14.88 3.59 30.3 3.7 45.52 3.56-.19-21.68.4-43.35.25-65.04-.15-28.93.4-57.84.27-86.77-3.2-2.1-6.44-4.11-9.65-6.16m-156.73 65.99c1.74 15.57 7.88 31.07 19.03 42.31 5.22-14.09 10.32-28.22 15.51-42.31-11.51-.02-23.03-.02-34.54 0z"/><path d="m758.75 246.97c55.6 1.16 111.1 10.85 163.57 29.36-54.46 27.49-109 54.84-163.57 82.15 0-37.17 0-74.34 0-111.51m19.01 42.73c-.03 12.34.01 24.68-.01 37.02 19.91-9.73 39.8-19.51 59.59-29.49-19.7-3.6-39.58-6.31-59.58-7.53z"/><path d="m1011.63 346.57c5.01-6.83 9.73-13.88 13.93-21.24 69.48 42.79 128.9 101.76 172.14 170.97 41.8 66.58 68.42 142.61 77.29 220.72 10.56 91.39-2.7 185.51-38.92 270.13-29.82 70.05-74.99 133.47-131.29 184.71-43.08 39.29-92.67 71.43-146.17 94.64-9.36-22.43-18.41-44.99-27.65-67.46-3.46-7.53-5.49-15.86-10.49-22.57-4.7-6.34-13.24-8.95-20.78-6.83-5.23-13.42-10.48-26.84-15.67-40.27 28.31-11.65 56.07-25.85 79.32-46.01 4.4-3.51 7.48-8.97 13.1-10.73 6.98-2.09 14.23 1.86 18.9 6.89 5.82 6.88 12.24 13.82 20.76 17.3 5.43 2.31 12.22 2.02 16.89-1.85 5.46-4.65 8.92-11.28 10.67-18.16 2.51-10.1 2.19-20.66.88-30.91-1.58-11.59-4.36-23.01-8.16-34.07-3.05-7.29-5.53-15.41-3.68-23.33 2.29-10.76 6.43-21.02 10.55-31.18 3.12-7.19 5.98-14.51 9.84-21.34 7.67-14.52 14.03-29.85 17.65-45.9 2.25-10.51 3.65-21.39 1.98-32.08 17.01-.01 34.02.01 51.03-.01-.02-13.83.03-27.67-.03-41.5-16.82.03-33.64 0-50.46.01-.03-19.66.01-39.32-.03-58.98 16.84-.05 33.67-.01 50.51-.02.02-11.75.01-23.5.01-35.25-16.5 0-33 0-49.49.01-2.23-55.16-4.22-110.32-6.31-165.48 8.9-.81 16.18-9.95 13.92-18.81-1.62-8.84-11.89-14.81-20.33-11.47-8.05 2.62-12.63 12.4-9.34 20.25 2.05 5.72 7.7 9.35 13.57 10.12-2.69 55.11-5.54 110.22-8.06 165.33-53.74.15-107.49-.04-161.23.09.05 11.98 0 23.97.03 35.95 16.91.01 33.82 0 50.74.01-.01 19.5.03 39.01-.03 58.51-16.9-.01-33.81-.01-50.71 0-.08 13.95.11 27.91-.1 41.86 17.64.31 35.3.02 52.95.15-6.82 32.03-22.32 62.72-46.64 85.01-25.2 23.38-58.09 37.07-91.64 43.08-17.19 3.1-34.71 4.32-52.16 3.68-.39-51.85-.06-103.71-.17-155.56.01-88.57-.02-177.15.02-265.73 29.98-14.48 57.52-35.4 76.29-63.2 25.25-36.84 33.13-84.38 23.68-127.79 7.01-3.47 13.97-7.06 21.02-10.46-.32 10.14.16 20.94 5.68 29.8 4.7 7.77 13.59 12.53 22.61 12.66 17.92.33 35.59-5.26 50.94-14.29 20.93-12.33 38.17-30.07 52.64-49.4m6.79 23.08c-4.19 5.06-8.62 9.91-13.24 14.57-17.17 16.93-36.93 31.93-59.74 40.3-16.92 6.26-35.8 7.81-53.23 2.76.75 8.21-.02 16.45.02 24.67-1.04 37.56-4.63 75.08-11.27 112.07-5.02 27.62-11.79 54.97-21.28 81.41-8.63 24.06-19.64 47.36-33.98 68.57 17.41 73.72 34.66 147.47 52.04 221.19 20.44-13.5 36.5-33.62 44.83-56.68-15.27-.03-30.55.02-45.82-.02 0-27.16-.01-54.32 0-81.48 16.67-.02 33.33 0 50-.02 0-6.41-.01-12.82 0-19.23-16.67-.02-33.33 0-50-.01-.01-25.25 0-50.5 0-75.75 53.23.01 106.46-.03 159.7.03 3.44-44.47 6.38-88.97 9.82-133.43-5.62-4.57-10.21-10.59-12.2-17.61-3.89-12.78.41-27.69 10.9-36.07 9.74-8.3 24.32-10.05 35.9-4.73 12.83 5.65 21.1 19.9 19.72 33.85-.68 9.44-5.66 18.32-13.09 24.11 2.09 44.62 4.05 89.24 6.3 133.85h49.2v75.25c-16.42.01-32.83-.01-49.24 0-.02 6.58-.01 13.16 0 19.75 16.41.01 32.82-.01 49.24 0-.02 27.17.03 54.34-.03 81.52-15.7-.03-31.4-.02-47.11-.01-2.58 15.08-6.75 29.89-12.36 44.14-6.95 16.55-14.9 32.69-21.39 49.45-2.5 6.77-5.62 13.48-6.51 20.7 1.12 7.4 4.01 14.37 5.77 21.63 3.84 15.17 6.12 30.83 5.76 46.5-.49 16.46-4.23 34-15.81 46.38-7.41 8.6-19.23 12.3-30.32 11.69-15.57-.66-29.1-10.37-39.2-21.57-21.44 17.24-45.4 31.29-70.63 42.2.88 3.58 1.77 7.17 2.68 10.76 11.05.06 20.69 7.83 25.15 17.59 7.72 17.22 14.77 34.74 22.52 51.94 18.06-8.93 35.68-18.79 52.56-29.81 61.04-39.63 113.04-93.04 151.09-155.07 44.68-72.52 69.81-156.91 72.09-242.05 2.72-86.29-17.86-173.23-59.27-249-38.01-69.91-93.28-130.32-159.57-174.34m-172.54 154.26c-14.25 19.52-32.12 36.26-52.12 49.77 9.57 41.2 18.7 82.51 28.5 123.65 10.35-17.2 18.57-35.61 25.77-54.33 12.89-33.83 21.84-69.12 27.44-104.87 5.59-34.86 7.37-70.21 7.16-105.47-4.26 32.88-17.11 64.56-36.75 91.25m-60.37 101.95c6.88 32.91 13.77 65.82 20.65 98.73.82-1.52 1.66-3.04 2.51-4.54-8.71-37.21-17.85-74.32-26.38-111.56.43 5.89 2.16 11.58 3.22 17.37m-7.03 16.87c.07 4.09-.31 8.25.57 12.29 5.88 28.24 11.52 56.53 17.43 84.76 1.26-2.41 3.99-4.8 2.63-7.75-6.98-29.75-13.56-59.59-20.63-89.3m7.58 111.13c1.08-1.15 2.16-2.28 3.24-3.42-2.86-11.65-5.15-23.44-8.03-35.08 1.42 12.85 3.22 25.66 4.79 38.5m22.98-15c15.22 70.72 30.5 141.43 45.74 212.14 2-1.29 3.99-2.6 5.98-3.92-11.01-48.98-22.08-97.94-33.11-146.91-5.03-21.71-9.56-43.55-14.89-65.17-1.26 1.27-2.48 2.57-3.72 3.86m-9.7 13.9c14.24 67.99 28.71 135.93 42.93 203.93 1.29-.65 2.6-1.28 3.91-1.91-14.74-68.37-29.51-136.74-44.36-205.1-.84 1.02-1.67 2.04-2.48 3.08m-11.15 15.34c8.55 65.88 17.11 131.77 25.66 197.65 6.37-1.81 12.74-3.65 19.12-5.44-13.56-65.83-27.22-131.64-40.85-197.45-1.33 1.73-2.63 3.48-3.93 5.24m-9.56 31.85c6.12 56.2 12.44 112.38 18.51 168.58 1.98-.45 3.98-.89 5.97-1.34-6.55-52.37-13.33-104.71-19.94-157.07-1.19-10.52-3.1-20.98-3.59-31.57-.92 7.08-1.16 14.27-.95 21.4m-.28 91.68c.33 26.1.09 52.21.13 78.31 3.11-.21 6.24-.43 9.36-.71-3.17-25.87-5.86-51.8-9.49-77.6z"/><path d="m575.78 1008.79c10.24-10.57 25.62-15.79 40.19-13.87 13.95 1.58 26.94 9.74 34.52 21.53 6.92 10.48 9.46 23.79 6.72 36.05-3.22 14.19-13.08 26.4-25.65 33.52-3.56-13.73-6.94-27.51-10.32-41.28-1.27-4.69-6.38-8.93-11.31-6.61-5.3 1.07-6.64 7.37-5.48 11.92 2.87 13.65 5.89 27.28 8.79 40.94-12.03.83-24.32-2.92-33.64-10.6-10.1-8.14-16.72-20.52-17.7-33.47-1.26-13.92 3.87-28.34 13.88-38.13m2.74 32.25c-.84 10.88 4.69 21.62 13.52 27.87-.99-7.01-2.14-14-3.16-21-.75-9.57 4.78-19.54 13.78-23.25 4.75-2.58 10.38-1.77 15.39-.47 6.07 1.64 11.51 5.98 13.8 11.93 2.33 6.14 4.3 12.42 6.68 18.55 4.31-6.87 3.48-15.67.81-22.98-5.01-13.5-20.07-22.41-34.32-19.81-14.2 2.01-25.85 14.83-26.5 29.16z"/><path d="m825.12 1019.03c9.35-14.64 28.17-22.18 45.08-18.32 18.31 3.67 33.01 20.53 33.8 39.25 1.18 14.27-7.77 27.03-18.03 36.01-3.02 2.64-6.36 4.88-9.78 6.95-2.7-11.73-5.18-23.51-7.84-35.25-.87-4.27-4.08-8.41-8.64-8.88-4.51.89-6.83 5.82-5.98 10.09 2.3 12.41 5.09 24.73 7.5 37.13-9.86.5-20.04-2.22-27.71-8.58-16.88-13.64-20.57-40.53-8.4-58.4m7.86 22.96c-.64 9.1 4.29 17.88 11.74 22.92-1.14-5.66-2.5-11.26-3.68-16.9-1.75-8.94 3.36-18.93 12.24-21.74 9.2-2.85 21.48.81 24.86 10.58 1.93 6.7 3.24 13.57 5.13 20.3 2.94-4.95 6.5-10.22 5.72-16.28-.75-14.52-14.38-26.79-28.91-25.96-14.27.15-26.98 12.79-27.1 27.08z"/><path d="m727.92 1014.91c16.21-4.51 34.63.76 45.88 13.31 9.43 10.29 13.96 25.12 11.12 38.87-3.09 14.4-13.15 26.74-25.78 34.05-3.88-12.51-7.75-25.02-11.62-37.53-.99-3.51-3.32-6.88-6.83-8.19-2.51-1.12-5.37.34-6.92 2.36-2.08 2.9-2.17 6.77-1.22 10.11 3.49 12.36 7 24.73 10.48 37.1-15.93 1.12-32.15-6.63-41.02-19.95-7.48-10.82-9.81-24.95-6.44-37.65 4.01-15.56 16.78-28.45 32.35-32.48m-17.62 40.01c-1.99 11.47 4.52 22.79 13.67 29.34-1.61-6.61-3.65-13.11-5.31-19.7-1.93-9.63 3.85-20.38 13.49-23.17 9.42-2.58 21.79.91 25.64 10.66 2.61 7 4.69 14.19 7.22 21.23 3.31-5.12 5.58-11.22 4.56-17.39-1.45-14.57-14.92-26.76-29.61-26.43-14.41-.38-27.8 11.19-29.66 25.46z"/><path d="m773.11 1157.06c33.8-1.21 67.17-9.05 98.72-21.02 5.18 13.43 10.43 26.82 15.67 40.23-7.27 4.63-7.71 14.24-6.82 21.95.66 9.22 4.82 17.58 7.88 26.16 7.5 20.03 15.2 39.98 22.57 60.06-26.7 8.52-54.02 15.23-81.76 19.29-5.49-22.44-11.16-44.84-16.77-67.24-2.42-9.94-11.83-16.79-21.72-17.9-6.01-20.48-11.83-41.03-17.77-61.53m26.94 19.48c2.73 9.74 5.49 19.47 8.19 29.22 10.66 3.11 19.42 11.62 22.73 22.23 3.23 10.97 6.04 22.06 9.08 33.09 12.51-2.52 25.25-4.58 37.19-9.23-2.96-8.34-6-16.65-9-24.97-2.52-7.23-5.65-14.33-6.7-21.97-1.53-9.68-1.48-20.59 4.71-28.73-1.83-4.72-3.71-9.42-5.52-14.14-18.8 9.39-39.87 13.13-60.68 14.5z"/><path d="m646.02 1148.55c20.67 4.66 41.91 6.04 62.99 7.62 16.24 1.1 32.5 1.83 48.76 2.36 6.28 21.04 12.52 42.08 18.79 63.12-5.27 1.36-9.57 5.45-11.17 10.65-2.63 8.3-2.11 17.43.46 25.69 4.84 17 9.59 34.03 14.41 51.05-25.19 1.58-50.48 1.25-75.64-.72-3.71-13-7.22-26.05-10.92-39.05-3.02-9.62-12.83-14.95-22.15-16.86-8.48-34.63-17.08-69.23-25.53-103.86m27.47 24.89c5.23 21.06 10.28 42.17 15.6 63.21 6.05 2.97 11.49 7.16 15.84 12.33 4.63 5.26 6.84 12.01 8.68 18.64 11.3 1.14 22.69 1.23 34.04 1.38-1.7-9.3-4.75-18.48-4.21-28.04.01-8.96 1.82-19.36 9.8-24.74-3.46-12.58-6.8-25.19-10.39-37.72-23.16-.84-46.39-1.82-69.36-5.06z"/></g></svg>