<svg height="599.94" viewBox="0 0 599.94 599.94" width="599.94" xmlns="http://www.w3.org/2000/svg"><path d="m299.97 596.94c-79.32 0-153.9-30.89-209.99-86.98s-86.98-130.67-86.98-209.99 30.89-153.9 86.98-209.99 130.67-86.98 209.99-86.98 153.9 30.89 209.99 86.98 86.98 130.67 86.98 209.99-30.89 153.9-86.98 209.99-130.67 86.98-209.99 86.98z" fill="#ffde00"/><path d="m299.97 6c39.69 0 78.19 7.77 114.42 23.1 35 14.81 66.44 36 93.44 63s48.2 58.44 63 93.44c15.33 36.24 23.1 74.74 23.1 114.42s-7.77 78.19-23.1 114.42c-14.81 35-36 66.44-63 93.44s-58.44 48.2-93.44 63c-36.24 15.33-74.74 23.1-114.42 23.1s-78.19-7.77-114.42-23.1c-35-14.81-66.44-36-93.44-63s-48.2-58.44-63-93.44c-15.33-36.24-23.1-74.74-23.1-114.42s7.77-78.19 23.1-114.42c14.81-35 36-66.44 63-93.44s58.44-48.2 93.44-63c36.24-15.33 74.74-23.1 114.42-23.1m0-6c-165.67 0-299.97 134.3-299.97 299.97s134.3 299.97 299.97 299.97 299.97-134.3 299.97-299.97-134.3-299.97-299.97-299.97z" fill="#a37500"/><g fill="none" stroke="#a77506"><g stroke-linecap="round"><g stroke-miterlimit="10"><path d="m218.64 14.52c8.48 22.84 3.53 29.61 1.78 41.81s-.39 16.98-.39 16.98" stroke-width="4"/><path d="m242.98 9.31c8.08 25.22.47 28.12-1.27 40.33s-.41 15.97-.41 15.97" stroke-width="4"/><g stroke-width="2"><path d="m272.36 4.27-20.47 116.19"/><path d="m343.29 120.46-17.88-116.19"/><path d="m260.2 73.32-47.42 14.71"/><path d="m255.69 98.89-34.65 10.48"/><path d="m335.53 70.02 51.05 18.01"/><path d="m339.8 97.76 37.69 10.73"/></g><path d="m188.18 25.17 39.14 103.24" stroke-width="6"/><path d="m413.16 25.76-42 99.76" stroke-width="6"/><g stroke-width="3"><ellipse cx="368.65" cy="31.36" rx="11.21" ry="17.36" transform="matrix(.34660825 -.93800998 .93800998 .34660825 211.45 366.29)"/><ellipse cx="361.89" cy="58.55" rx="9.67" ry="13.93" transform="matrix(.47869186 -.87798298 .87798298 .47869186 137.25 348.25)"/></g></g><path d="m327.14 116.14s-.61-14.38-2.59-32.33c-1.92 2.18-4.73 3.56-7.86 3.56-5.78 0-10.46-4.68-10.46-10.45s4.68-10.46 10.46-10.46c2.18 0 4.2.67 5.87 1.8-3.86-26.34-10.73-53.74-22.59-53.74s-19.61 26.53-24.57 52.48c1.29-.57 2.71-.88 4.2-.88 5.78 0 10.46 4.68 10.46 10.45s-4.68 10.46-10.46 10.46c-2.75 0-5.26-1.07-7.13-2.8-2.67 17.75-3.86 31.91-3.86 31.91" stroke-linejoin="round" stroke-width="2"/><g stroke-miterlimit="10"><path d="m382.71 584.82c-8.48-22.84-3.53-29.61-1.78-41.81s.39-16.98.39-16.98" stroke-width="4"/><path d="m358.37 590.03c-8.08-25.22-.47-28.12 1.27-40.33s.41-15.97.41-15.97" stroke-width="4"/><g stroke-width="2"><path d="m328.98 595.07 20.48-116.2"/><path d="m258.06 478.87 17.87 116.2"/><path d="m341.15 526.02 47.42-14.72"/><path d="m345.65 500.45 34.65-10.48"/><path d="m265.82 529.31-51.06-18.01"/><path d="m261.55 501.58-37.69-10.74"/></g><path d="m413.16 574.17-39.13-103.25" stroke-width="6"/><path d="m188.18 573.57 42.01-99.75" stroke-width="6"/><g stroke-width="3"><ellipse cx="232.7" cy="567.98" rx="11.21" ry="17.36" transform="matrix(.34660825 -.93800998 .93800998 .34660825 -380.73 589.38)"/><ellipse cx="239.45" cy="540.79" rx="9.67" ry="13.93" transform="matrix(.47869186 -.87798298 .87798298 .47869186 -349.97 492.14)"/></g></g><path d="m270.33 483.26s14.35 103.9 32.69 103.9 30.33-103.9 30.33-103.9" stroke-linejoin="round" stroke-width="2"/></g><g stroke-miterlimit="10"><g stroke-width="3"><circle cx="421.29" cy="65.9" r="3.61"/><path d="m420.23 94.86c2.55 1.6 3.5 2.04 6.4 1.97 6.46-.17 16.98-4.9 20.68-5.17s6.39-3.22 8.07-9.39c1.69-6.17-9.5-15.09-13.24-13.2-3.74 1.88-4.51 11.49-10.58 7.69s2.24-8.68 2.31-12.87c.06-4.19-12.83-10.36-17.65-6.15s-6.31 7.91-4.93 11.36 1.71 14.98 4.37 20.87c1.19 2.64 2.02 3.31 4.56 4.91z"/><path d="m444.3 56.45c5.9 3.7 14.96 11.43 15.68 19.44s-4.1 19.3-17.53 23.52-21.04.64-24.23-1.36-9.73-7.28-11.79-21.21c-2.05-13.93 6.01-23.2 13.53-26.03 7.52-2.84 18.43 1.94 24.33 5.64z"/><circle cx="445.83" cy="81.28" r="3.61"/><ellipse cx="425.06" cy="87.15" rx="5.3" ry="6.56" transform="matrix(.53110285 -.84730736 .84730736 .53110285 125.49 401.04)"/><path d="m410.81 111.95-12.32 6 2.16 13.17 12.46-5.25z"/><path d="m461.13 97.28 2.1 16.11 15.87.39-2.26-16.19z"/></g><path d="m421.29 158.17 28.15-32.3 22.97 20.43 46.37-46.97" stroke-width="4"/><g stroke-width="3"><circle cx="452.02" cy="146.29" r="6.19"/><circle cx="439.38" cy="160.13" r="6.19"/><circle cx="178.71" cy="65.9" r="3.61"/><path d="m179.77 94.86c-2.55 1.6-3.5 2.04-6.4 1.97-6.46-.17-16.98-4.9-20.68-5.17s-6.39-3.22-8.07-9.39c-1.69-6.17 9.5-15.09 13.24-13.2 3.74 1.88 4.51 11.49 10.58 7.69s-2.24-8.68-2.31-12.87c-.06-4.19 12.83-10.36 17.65-6.15s6.31 7.91 4.93 11.36-1.71 14.98-4.37 20.87c-1.19 2.64-2.02 3.31-4.56 4.91z"/><path d="m155.7 56.45c-5.9 3.7-14.96 11.43-15.68 19.44s4.1 19.3 17.53 23.52 21.04.64 24.23-1.36 9.73-7.28 11.79-21.21c2.05-13.93-6.01-23.2-13.53-26.03-7.52-2.84-18.43 1.94-24.33 5.64z"/><circle cx="154.17" cy="81.28" r="3.61"/><ellipse cx="174.94" cy="87.15" rx="6.56" ry="5.3" transform="matrix(.84730736 -.53110285 .53110285 .84730736 -19.57 106.2)"/><path d="m189.19 111.95 12.32 6-2.16 13.17-12.46-5.25z"/><path d="m138.87 97.28-2.1 16.11-15.87.39 2.26-16.19z"/></g><path d="m178.71 158.17-28.15-32.3-22.97 20.43-46.37-46.97" stroke-width="4"/><g stroke-width="3"><circle cx="147.98" cy="146.29" r="6.19"/><circle cx="160.62" cy="160.13" r="6.19"/><circle cx="421.78" cy="535.34" r="3.61"/><path d="m420.73 506.39c2.55-1.6 3.5-2.04 6.4-1.97 6.46.17 16.98 4.9 20.68 5.17s6.39 3.22 8.07 9.39c1.69 6.17-9.5 15.09-13.24 13.2-3.74-1.88-4.51-11.49-10.58-7.69s2.24 8.68 2.31 12.87c.06 4.19-12.83 10.36-17.65 6.15s-6.31-7.91-4.93-11.36 1.71-14.98 4.37-20.87c1.19-2.64 2.02-3.31 4.56-4.91z"/><path d="m444.79 544.79c5.9-3.7 14.96-11.43 15.68-19.44s-4.1-19.3-17.53-23.52-21.04-.64-24.23 1.36-9.73 7.28-11.79 21.21c-2.05 13.93 6.01 23.2 13.53 26.03 7.52 2.84 18.43-1.94 24.33-5.64z"/><circle cx="446.32" cy="519.96" r="3.61"/><ellipse cx="425.56" cy="514.1" rx="6.56" ry="5.3" transform="matrix(.84730736 -.53110285 .53110285 .84730736 -208.04 304.47)"/><path d="m411.31 489.29-12.32-5.99 2.16-13.18 12.46 5.25z"/><path d="m461.62 503.96 2.1-16.1 15.88-.39-2.26 16.18z"/></g><path d="m421.78 443.07 28.16 32.3 26.49-25.38 50.49 44" stroke-width="4"/><g stroke-width="3"><ellipse cx="449.03" cy="450.76" rx="5.94" ry="7.64" transform="matrix(.76402129 -.64519103 .64519103 .76402129 -184.86 396.08)"/><ellipse cx="448.68" cy="430.38" rx="7.54" ry="5.56" transform="matrix(.57114344 -.82085027 .82085027 .57114344 -160.86 552.89)"/><circle cx="178.22" cy="535.34" r="3.61"/><path d="m179.27 506.39c-2.55-1.6-3.5-2.04-6.4-1.97-6.46.17-16.98 4.9-20.68 5.17s-6.39 3.22-8.07 9.39c-1.69 6.17 9.5 15.09 13.24 13.2 3.74-1.88 4.51-11.49 10.58-7.69s-2.24 8.68-2.31 12.87c-.06 4.19 12.83 10.36 17.65 6.15s6.31-7.91 4.93-11.36-1.71-14.98-4.37-20.87c-1.19-2.64-2.02-3.31-4.56-4.91z"/><path d="m155.21 544.79c-5.9-3.7-14.96-11.43-15.68-19.44s4.1-19.3 17.53-23.52 21.04-.64 24.23 1.36 9.73 7.28 11.79 21.21c2.05 13.93-6.01 23.2-13.53 26.03-7.52 2.84-18.43-1.94-24.33-5.64z"/><circle cx="153.68" cy="519.96" r="3.61"/><ellipse cx="174.44" cy="514.1" rx="5.3" ry="6.56" transform="matrix(.53110285 -.84730736 .84730736 .53110285 -353.81 388.91)"/><path d="m188.69 489.29 12.32-5.99-2.16-13.18-12.46 5.25z"/><path d="m120.59 493.84-2.1-16.11-15.88-.39 2.26 16.18z"/></g><path d="m178.22 443.07-28.15 32.3-38.46-36.78s-21.5 14.64-40.58 2.52c-16.2-10.28-30.1-45.38-30.1-45.38l26.32-12.22-4.41-13.15" stroke-width="4"/><circle cx="147.49" cy="454.95" r="6.19" stroke-width="3"/><circle cx="85.45" cy="421.15" r="13.21" stroke-width="2"/><path d="m116.79 405.6c0 5.87-2.79 11.09-7.11 14.4.62-1.99.95-4.11.95-6.3 0-11.73-9.5-21.23-21.22-21.23-1.21 0-2.4.1-3.56.3 3.28-3.27 7.8-5.3 12.81-5.3 10.01 0 18.13 8.12 18.13 18.13z" stroke-width="2"/><circle cx="160.12" cy="441.11" r="6.19" stroke-width="3"/><path d="m51.85 398.4 27.11-12.88-2.89-8.13 38.18-11.89 17.39 35.18 9.39-4.2" stroke-width="4"/></g></g><g fill="#a77506"><path d="m515.6 122.51c4.03 0 9.19 3.07 13.13 7.82 2.8 3.37 4.65 7.14 5.23 10.61.3 1.79.48 5.05-1.61 6.79-.84.7-1.96 1.06-3.31 1.06-4.03 0-9.19-3.07-13.13-7.82-2.8-3.37-4.65-7.14-5.23-10.61-.3-1.79-.48-5.05 1.61-6.79.84-.7 1.96-1.06 3.31-1.06m0-2c-1.77 0-3.35.49-4.59 1.52-4.39 3.64-2.89 12.7 3.36 20.22 4.48 5.4 10.18 8.54 14.67 8.54 1.77 0 3.35-.49 4.59-1.52 4.39-3.64 2.89-12.7-3.36-20.22-4.48-5.4-10.18-8.54-14.67-8.54z"/><path d="m502.98 129.19c-.69 5.37.09 11.02 4.92 16.86 5.03 6.05 10.98 7.88 16.6 8.36-2.63 1.75-5.75 2.7-8.95 2.7-4.99 0-9.7-2.23-12.93-6.12-5.41-6.53-5.12-15.89.36-21.8m3.05-4.89c-.97.53-1.91 1.17-2.79 1.9-7.78 6.45-8.74 18.12-2.15 26.07 3.74 4.5 9.11 6.84 14.47 6.84 4.09 0 8.18-1.36 11.55-4.15.89-.74 1.69-1.55 2.39-2.41-.34 0-.68 0-1.02 0-6.83 0-13.53-1.16-19.03-7.79-5.77-6.96-5.3-13.43-3.41-20.47z"/><path d="m502.66 200.17c3.44 0 6.24 2.8 6.24 6.24s-2.8 6.24-6.24 6.24-6.24-2.8-6.24-6.24 2.8-6.24 6.24-6.24m0-2c-4.55 0-8.24 3.69-8.24 8.24s3.69 8.24 8.24 8.24 8.24-3.69 8.24-8.24-3.69-8.24-8.24-8.24z"/></g><g fill="none" stroke="#a77506"><g stroke-miterlimit="10"><path d="m555.09 148.89-11.08 7.43 15.38 29.33-33.38 14.74 7.96 14.86" stroke-width="2"/><g stroke-width="3"><path d="m441.82 181.41 10.19-8.65s8.25 10.52 13.05 18.24 11.46 19.49 11.46 19.49l-10.94 5.84"/><path d="m534.26 201.78 2.53 6.22 8.14-2.87-3.79-6.07z"/><path d="m549.5 195.5 3.88 6.42 9.69-3.97-3.68-6.51z"/><path d="m577.92 198.17-92.63 36.76 8.25 35.18 99.94-14.16"/><path d="m518.06 222.17s6.62 20.47 8.58 35.54 1.81 31.5 1.81 31.5"/></g><g stroke-width="2"><ellipse cx="529.05" cy="299.45" rx="6.97" ry="10.23"/><ellipse cx="548.14" cy="343.52" rx="11.51" ry="8.08" transform="matrix(.12966094 -.99155839 .99155839 .12966094 136.44 842.48)"/><ellipse cx="574.91" cy="347.18" rx="15.77" ry="8.81" transform="matrix(.1813774 -.98341356 .98341356 .1813774 129.19 849.56)"/><ellipse cx="507.65" cy="288.73" rx="9.46" ry="13.86"/><path d="m583.9 216.32s-10.83 2.24-18.34 5.85-12.33 7.37-16.06 13.01c0 0 8.68-1.13 15.22.49s17.39 6.23 26.3 6.49"/><ellipse cx="568.88" cy="273.92" rx="15.26" ry="9.38"/><ellipse cx="569.25" cy="273.63" rx="7.68" ry="3.97"/></g><g stroke-width="3"><g stroke-linecap="round"><path d="m479.67 346.2 107.5 29.21"/><path d="m494.63 350.26 4.74-32.41 96.44 5.71"/><path d="m531.18 319.74-6.65 38.65"/></g><path d="m575.81 322.38v-35.64l20.87-.57"/><path d="m596.68 304.27-20.87.74"/></g><g stroke-width="2"><circle cx="480.79" cy="416.68" r="2.67"/><path d="m478.99 437.99c1.82 1.27 2.51 1.63 4.65 1.68 4.77.1 12.69-3.01 15.43-3.08s4.82-2.15 6.29-6.64-6.47-11.46-9.29-10.2-3.73 8.31-8.07 5.29 1.96-6.32 2.16-9.41c.2-3.08-9.09-8.09-12.8-5.16-3.7 2.93-4.93 5.61-4.04 8.2s.73 11.1 2.48 15.54c.79 1.99 1.37 2.51 3.19 3.78z"/><path d="m504.09 415.37c1.38 1.37 4.63 4.97 4.88 10.05.4 8.28-7.33 15.03-13.76 16.72-10.05 2.64-15.54-.28-17.81-1.86-2.28-1.58-6.92-5.71-7.94-16.05-.6-6.05 2.5-15.87 10.9-18.71 7.85-2.66 15.38 3.13 16.17 3.72"/><circle cx="498.34" cy="428.89" r="2.67"/><ellipse cx="482.82" cy="432.48" rx="3.91" ry="4.84" transform="matrix(.57114344 -.82085027 .82085027 .57114344 -147.93 581.81)"/></g><g stroke-width="4"><path d="m460.76 394.23 7.94 4.44 20.59-37.17 29.31 7.93s-5.32 12.72-9.62 20.75c-5.87 10.96-12.46 19.04-12.46 19.04" stroke-linecap="round"/><path d="m504.09 415.37s7.38-8.26 9.53-11.25c2.27-3.16 8.06-13.32 8.06-13.32l41.42 13.98s5.29-8.89 7.68-16.26 4.23-16.4 4.23-16.4" stroke-linecap="round"/><ellipse cx="532.75" cy="441.53" rx="24.28" ry="12.39" transform="matrix(.58566524 -.81055304 .81055304 .58566524 -137.15 614.75)"/></g><path d="m530.45 371.73-3.32 9.06 31.51 10.24 3.44-10.54z" stroke-linecap="round" stroke-width="2"/><path d="m6.26 339.98s14.16 4.31 20.31 5.54 19.74 1.64 19.74 1.64-3.33 8.18-15.37 12.85-20.22 5.48-20.22 5.48" stroke-width="2"/><g stroke-width="4"><path d="m114.71 319.68-111.71 7.49"/><path d="m79.85 365.5-5.55-43.11"/><path d="m96.44 320.9 4.88 38.75"/><path d="m116.71 267.67-110.45-14.44"/><path d="m27.5 325.53 1.85-69.28"/><path d="m3.97 280.45 23.53 1.66"/><path d="m3 297.66 24.5-1.11"/><path d="m3 309.51 24.93-.32"/></g></g><g stroke-linejoin="round" stroke-width="2"><path d="m115.05 314.08c.36-.02.71-.07 1.06-.14-2.62 2.07-5.67 3.25-8.92 3.25-9.77 0-17.69-10.65-17.69-23.77s7.92-23.77 17.69-23.77c5.28 0 7.1 1.93 10.34 6.87-2.38-2.11-2.27-2.07-5.21-1.87-7.56.53-13.08 9.78-12.33 20.66.76 10.89 7.5 19.3 15.06 18.77z"/><ellipse cx="49.16" cy="277.83" rx="13.42" ry="13.07"/><ellipse cx="49.16" cy="277.83" rx="7.59" ry="6.82"/></g><path d="m15.25 383.09 107.32-29.22" stroke-miterlimit="10" stroke-width="4"/><g stroke-linejoin="round" stroke-width="2"><circle cx="117" cy="173.88" r="2.65"/><path d="m116.88 152.61c-1.92-1.09-2.63-1.39-4.76-1.24-4.74.33-12.31 4.12-15.02 4.43s-4.59 2.56-5.63 7.14 7.43 10.78 10.12 9.28 2.95-8.57 7.52-5.97-1.38 6.44-1.3 9.51 9.74 7.21 13.14 3.97 4.38-6 3.27-8.49-1.71-10.94-3.85-15.18c-.96-1.9-1.58-2.37-3.5-3.46z"/><path d="m100.41 181.53c-4.44-2.53-11.33-7.93-12.11-13.78s2.41-14.29 12.14-17.8c9.73-3.52 15.42-1.12 17.82.25s7.37 5.04 9.3 15.2-3.69 17.21-9.12 19.52-13.59-.86-18.03-3.39z"/><circle cx="98.52" cy="163.36" r="2.65"/><ellipse cx="113.57" cy="158.41" rx="3.89" ry="4.82" transform="matrix(.49485213 -.8689772 .8689772 .49485213 -80.29 178.7)"/></g><g stroke-miterlimit="10" stroke-width="4"><path d="m21.07 197.99 63.57 26.49-10.34 37.65"/><path d="m118.86 260.45-21.39-4.2 5.3-22.61 15.41 1.49s2.24-9.52 11.02-25.96 17.74-27.08 17.74-27.08l6.16 4.11"/><path d="m23.82 188.35 97.61 37.3"/><path d="m98.58 180.7c-.11.16-.48.33-.47.68.11 4.95-2.15 7.35-3.73 9.6-2.68 3.82-4.64 3.66-9.47 9.4-1.83 2.18-3.81 5.17-5.34 9.27"/></g><g stroke-linejoin="round"><ellipse cx="34.59" cy="231.16" rx="13.3" ry="7.81" stroke-width="2" transform="matrix(.29787474 -.95460496 .95460496 .29787474 -196.38 195.33)"/><ellipse cx="78.91" cy="137.78" rx="17.89" ry="10.75" stroke-width="3" transform="matrix(.66809233 -.74407838 .74407838 .66809233 -76.33 104.46)"/><ellipse cx="60.18" cy="237.27" rx="9.69" ry="6.26" stroke-width="2" transform="matrix(.29787474 -.95460496 .95460496 .29787474 -184.24 224.06)"/><path d="m69.46 167.43s-3.3 4.13-8.12 5.27-8.88 0-8.88 0 2.92-6.78 6.85-11.67 7.65-9.94 7.65-9.94" stroke-width="3"/><g stroke-width="2"><path d="m37.9 178.95-3.65 9.1 27.68 10.69 3.78-9.1z"/><path d="m47.07 182.48-3.67 9.1"/><path d="m56.86 186.24-4.01 8.99"/></g></g></g><circle cx="299.97" cy="299.97" fill="#fad100" r="185.37"/><path d="m299.97 117.6c24.62 0 48.5 4.82 70.98 14.33 21.72 9.18 41.22 22.34 57.97 39.09s29.9 36.25 39.09 57.97c9.51 22.48 14.33 46.36 14.33 70.98s-4.82 48.5-14.33 70.98c-9.18 21.72-22.34 41.22-39.09 57.97s-36.25 29.9-57.97 39.09c-22.48 9.51-46.36 14.33-70.98 14.33s-48.5-4.82-70.98-14.33c-21.72-9.18-41.22-22.34-57.97-39.09s-29.9-36.25-39.09-57.97c-9.51-22.48-14.33-46.36-14.33-70.98s4.82-48.5 14.33-70.98c9.18-21.72 22.34-41.22 39.09-57.97s36.25-29.9 57.97-39.09c22.48-9.51 46.36-14.33 70.98-14.33m0-6c-104.03 0-188.37 84.34-188.37 188.37s84.34 188.37 188.37 188.37 188.37-84.34 188.37-188.37-84.34-188.37-188.37-188.37z" fill="#a37500"/><g fill="none" stroke="#a77506"><g stroke-miterlimit="10"><g stroke-width="3"><path d="m288.16 361.31-1.14 49.59"/><path d="m274.16 361.38-.48 49.21"/><path d="m166.59 371.36 6.84 34.48"/><path d="m183.96 367.24 2.8 39.77"/><path d="m203.2 364.64 1.04 43.47"/><path d="m157.91 391.61 45.85-3.65"/><path d="m228.33 362.77s.04 10.26 2.05 17.14 4.73 13.32 4.73 13.32 3.87-11.17 6.59-15.9 8.44-15.5 8.44-15.5"/><path d="m247.14 409.87s-.14-7.03 1.44-14.05 3.72-11.46 3.72-11.46 4.01 8.75 6.02 12.76 7.16 13.29 7.16 13.29"/><path d="m215.07 408.58s-1.59-3.46-1.59-10.62 2.44-13.61 2.44-13.61 5.3 8.85 8.17 13.02 9.73 12.02 9.73 12.02"/></g><g stroke-width="6"><path d="m300 333.53c9.88 0 23.82-.06 24.75 1.12s4.58 16.1 6.25 17.03 96.98 1.15 113.83 14.57 10.14 39.82-2.83 45.48-141.99 7.46-141.99 7.46-129.02-1.79-141.99-7.46-19.68-32.06-2.83-45.48 112.15-13.64 113.83-14.57 5.32-15.85 6.25-17.03 14.87-1.12 24.75-1.12z"/><path d="m318.03 341.27 2.28 8.7h-40.62l2.28-8.7z"/><path d="m300 361.31c28.73 0 114.09-.66 139.98 13.39 7.31 4.39 1.32 25.89-5.27 29.4s-94.71 6.8-134.69 6.8h-.06c-39.98 0-128.1-3.29-134.69-6.8s-12.58-25.02-5.27-29.4c25.89-14.04 111.25-13.39 139.98-13.39z"/></g><g stroke-width="3"><path d="m311.84 361.31 1.14 49.59"/><path d="m325.84 361.38.48 49.21"/><path d="m325.84 386.11h-51.68"/><path d="m433.41 371.36-6.84 34.48"/><path d="m416.04 367.24-2.8 39.77"/><path d="m396.8 364.64-1.04 43.47"/><path d="m442.09 391.61-45.85-3.65"/><path d="m371.67 362.77s-.04 10.26-2.05 17.14-4.73 13.32-4.73 13.32-3.87-11.17-6.59-15.9-8.44-15.5-8.44-15.5"/><path d="m352.86 409.87s.14-7.03-1.44-14.05-3.72-11.46-3.72-11.46-4.01 8.75-6.02 12.76-7.16 13.29-7.16 13.29"/><path d="m384.93 408.58s1.59-3.46 1.59-10.62-2.44-13.61-2.44-13.61-5.3 8.85-8.17 13.02-9.73 12.02-9.73 12.02"/></g><g stroke-width="4"><path d="m276.69 483.41s-5.38-9.63-10.72-20.75-8.65-21.08-8.65-21.08-10.01 21.93-9.11 36.43"/><path d="m211.52 461.59c-2.57-14.49 5.77-22.7 5.77-22.7s4.75 22.7 9.88 31.17"/><path d="m177.92 438.61c1.58-5.26 3.72-7.7 3.72-7.7s.39 10.13 3.72 13.47"/><path d="m316.89 485.07-16.92-51.17-16.92 51.17"/><path d="m323.25 483.41s5.38-9.63 10.72-20.75c5.32-11.08 8.65-21.08 8.65-21.08s10.01 21.93 9.11 36.43"/><path d="m388.41 461.59c2.57-14.49-5.77-22.7-5.77-22.7s-4.75 22.7-9.88 31.17"/><path d="m422.02 438.61c-1.58-5.26-3.72-7.7-3.72-7.7s-.39 10.13-3.72 13.47"/></g><path d="m134.7 217.69s-6.4 34.45-5.91 64.47 4.68 53.4 4.68 53.4" stroke-width="2"/><g stroke-width="3"><circle cx="131.05" cy="345.02" r="9.96"/><path d="m131.5 321.69h-12.89"/><path d="m129.95 306.05h-12.47"/><path d="m128.91 287.11h-10.77"/><path d="m128.78 276.63h-10.21"/><path d="m128.78 264.67h-10.21"/><path d="m129.78 250.67h-7.93"/><path d="m131.74 238.6h-5.92"/></g><g stroke-width="2"><circle cx="174.52" cy="299.61" r="4.85"/><circle cx="212.59" cy="301.23" r="4.85"/><ellipse cx="192.54" cy="322.31" rx="7.48" ry="6.42"/><path d="m193.12 275.17s-17.45-.4-23.7 3.73-5.34 5.81-8.66 9-4.23 1.47-6.04 4.7-3.22 16.92-1.81 19.44 5.24 4.09 6.55 5.82 6.84 25 34.74 25c21.75 0 32.33-26.38 34.14-28.2s4.83-1.51 6.45-4.13 1.41-16.97-1.31-20.52-5.34-2.44-8.66-4.66-9.16-6.45-13.6-8.26-11.43-1.91-18.1-1.91z"/><path d="m193.09 306.05c-3.63 0-5.54-2.48-5.54-4.09s.81-11.38-.6-13.49-6.55-2.92-10.67-2.11-12.4 7.91-13.62 9.7-1.99 12.34-1.04 14.74 4.26 2.54 5.35 4.53 2.69 7.85 8.25 12.41 12.39 5.81 17.88 5.81c13.56 0 25.36-14.55 26.78-20.63.5-2.15 4.21-1.4 5.31-3.45s2.78-12.3-2.25-16.02c-2.7-2-4.66-2.25-6.71-3.4s-2.8-2.75-5.71-3.05-7.36-.55-9.81 1.9-1.13 10.92-2 13.52c-.79 2.34-1.28 3.66-5.6 3.66z"/><path d="m465.3 217.69s6.4 34.45 5.91 64.47-4.68 53.4-4.68 53.4"/></g><g stroke-width="3"><circle cx="468.95" cy="345.02" r="9.96"/><path d="m468.5 321.69h12.89"/><path d="m470.05 306.05h12.47"/><path d="m471.09 287.11h10.77"/><path d="m471.22 276.63h10.21"/><path d="m471.22 264.67h10.21"/><path d="m470.22 250.67h7.93"/><path d="m468.26 238.6h5.92"/></g><g stroke-width="2"><circle cx="425.48" cy="299.61" r="4.85"/><circle cx="387.41" cy="301.23" r="4.85"/><ellipse cx="407.46" cy="322.31" rx="7.48" ry="6.42"/><path d="m406.88 275.17s17.45-.4 23.7 3.73 5.34 5.81 8.66 9 4.23 1.47 6.04 4.7c1.81 3.22 3.22 16.92 1.81 19.44s-5.24 4.09-6.55 5.82-6.84 25-34.74 25c-21.75 0-32.33-26.38-34.14-28.2s-4.83-1.51-6.45-4.13-1.41-16.97 1.31-20.52 5.34-2.44 8.66-4.66 9.16-6.45 13.6-8.26 11.43-1.91 18.1-1.91z"/><path d="m406.91 306.05c3.63 0 5.54-2.48 5.54-4.09s-.81-11.38.6-13.49 6.55-2.92 10.67-2.11 12.4 7.91 13.62 9.7 1.99 12.34 1.04 14.74-4.26 2.54-5.35 4.53-2.69 7.85-8.25 12.41-12.39 5.81-17.88 5.81c-13.56 0-25.36-14.55-26.78-20.63-.5-2.15-4.21-1.4-5.31-3.45s-2.78-12.3 2.25-16.02c2.7-2 4.66-2.25 6.71-3.4s2.8-2.75 5.71-3.05 7.36-.55 9.81 1.9 1.13 10.92 2 13.52c.79 2.34 1.28 3.66 5.6 3.66z"/></g></g><g stroke-linejoin="round"><g stroke-width="5"><path d="m286.66 269.65s-20.14-77.91-26.11-89.07c-4.11-7.67-8.63-8.9-10.96-9.86s-24.79-.97-53.96 4.79-45.64 16.31-45.64 16.31-4.43 20.66.71 37.51c4.51 14.78 10.26 21.64 15.74 27.25 5.49 5.62 25.76 11.5 45.34 9.45s31.77-8.63 37.8-17.26 8.49-32.32 8.49-32.32l13.42 41.77s-20.13 15.89-23.42 32.6 7.26 43.42 7.26 43.42l13.29-3.42s-6.57-25.34-3.56-35.61 10.46-22.65 21.59-25.57z"/><path d="m160.96 200.83s-1.89 16.43.59 25.29 8.63 17.96 15.36 22.69 47.51 9.81 59.56-3.9 9.57-37.58 7.45-44.08c-2.13-6.5-5.91-14.3-12.05-16.66s-63.94 5.08-70.91 16.66z"/><path d="m258.73 177.62c-5.69 2.59-5.32 5.96-5.57 9.08s4.92 29.77 4.92 29.77"/></g><g stroke-width="2"><path d="m250.66 319.49 14.95-3.29"/><path d="m247.88 305.14 16.43-1.04"/><path d="m266.92 290-17.35-4.21"/><path d="m274.15 278.02-14.52-8.16"/><path d="m271.5 258.24 11.18-3.72"/><path d="m267.31 245.18 12.25-2.3"/><path d="m263.54 233.46 12.68-2.82"/><path d="m260.16 222.94 13.12-2.82"/><path d="m256.95 210.5 12.93-2.19"/><path d="m254.93 199.35 11.55-2.31"/><path d="m253.47 190.2 10.65-.44"/></g><circle cx="276.32" cy="303.1" r="7.69" stroke-width="3"/><g stroke-width="5"><path d="m313.34 269.65s20.14-77.91 26.11-89.07c4.11-7.67 8.63-8.9 10.96-9.86s24.79-.97 53.96 4.79c29.18 5.76 45.64 16.31 45.64 16.31s4.43 20.66-.71 37.51c-4.51 14.78-10.26 21.64-15.74 27.25-5.49 5.62-25.76 11.5-45.34 9.45s-31.77-8.63-37.8-17.26-8.49-32.32-8.49-32.32l-13.42 41.77s20.13 15.89 23.42 32.6-7.26 43.42-7.26 43.42l-13.29-3.42s6.57-25.34 3.56-35.61-10.46-22.65-21.59-25.57z"/><path d="m439.04 200.83s1.89 16.43-.59 25.29-8.63 17.96-15.36 22.69-47.51 9.81-59.56-3.9-9.57-37.58-7.45-44.08c2.13-6.5 5.91-14.3 12.05-16.66s63.94 5.08 70.91 16.66z"/><path d="m341.27 177.62c5.69 2.59 5.32 5.96 5.57 9.08s-4.92 29.77-4.92 29.77"/></g><g stroke-width="2"><path d="m349.34 319.49-14.95-3.29"/><path d="m352.12 305.14-16.43-1.04"/><path d="m333.08 290 17.35-4.21"/><path d="m325.85 278.02 14.52-8.16"/><path d="m328.5 258.24-11.18-3.72"/><path d="m332.69 245.18-12.25-2.3"/><path d="m336.46 233.46-12.68-2.82"/><path d="m339.84 222.94-13.12-2.82"/><path d="m330.12 208.31 12.93 2.19"/><path d="m345.07 199.35-11.55-2.31"/><path d="m346.53 190.2-10.65-.44"/></g><circle cx="323.68" cy="303.1" r="7.69" stroke-width="3"/></g><g stroke-miterlimit="10" stroke-width="2"><path d="m286.66 269.65s7.29-1.9 12.17-1.9 14.51 1.9 14.51 1.9"/><path d="m278.73 239.82s12.85-3.98 21.24-3.98 21.3 3.98 21.3 3.98"/><path d="m269.88 207.16s13.01-4.61 30.09-4.61 30.49 4.61 30.49 4.61"/><ellipse cx="250.18" cy="140.95" rx="8.37" ry="7.5"/><circle cx="228.35" cy="149" r="6.73"/><ellipse cx="206.55" cy="156.59" rx="7.62" ry="4.76"/><ellipse cx="190.21" cy="167.75" rx="5.74" ry="3.96"/><ellipse cx="349.82" cy="140.95" rx="8.37" ry="7.5"/><circle cx="371.65" cy="149" r="6.73"/><ellipse cx="393.45" cy="156.59" rx="7.62" ry="4.76"/><ellipse cx="409.79" cy="167.75" rx="5.74" ry="3.96"/><path d="m299.8 203.05s1.38-4.64 1.5-11.88c.11-7.23.33-9.53-1.5-10.79s-3.19-1.38-3.49-4.59.62-1.35 1.31-5.55 1.15-12.01-.34-13.04-5.97 2.07-8.61 1.49-4.73-5.27-6.5-5.94-5.48-3.33-5.44-5.02 3.37-8.43 3.41-12.56-1.52-5.14-1.56-9.15.4-8.13 2.95-8.32c4.41-.34 2.77 8.09 3.9 11.99s2.6 2.77 3.11 4.52-1.02 5.36-1.41 8.05.45 4.96 2.26 5.86 6.33 2.15 7.86-.17.96-14.7.23-17.08-2.43-3.96-2.55-5.88-1.24-7.3 1.41-7.86 4.17 2.52 4.41 6.73c.17 3 1.7 1.81 2.55 3.39s-1.24 14.03.51 18.49 4.75 5.43 6.5 4.81 2.77-7.47 2.77-12.5-1.3-7.01-.9-8.88 1.75-2.32 2.21-4.47.23-8.16 3.17-7.65 3.85 3.34 3.85 8.38c0 2.21 2.15 1.47 2.21 4.13s-2.49 5.26-3.17 7.64.51 18.27-.17 19.79-11.65 3.34-11.65 3.34-.74 7.69-.51 12.67.45 7.01 2.15 7.75 1.53 8.03.85 9.22-3 1.53-3.28 3.56.45 9.02.45 9.02"/></g></g></svg>