<svg width="500" height="81" xmlns="http://www.w3.org/2000/svg">
  <path d="M490.707 62.031h1.903V75.95h-1.903zm6.206 4.754h2.248l-4.055 4.464 4.894 4.7h-2.538l-4.776-4.678zm-10.756 9.165v-1.194a4.34 4.34 0 0 1-1.388 1 3.682 3.682 0 0 1-1.538.355c-.602 0-1.162-.15-1.678-.44a2.81 2.81 0 0 1-1.15-1.173c-.259-.495-.388-1.313-.388-2.463v-5.25h1.893v5.217c0 .958.15 1.635.441 2.012.28.376.785.57 1.506.57.903 0 1.667-.42 2.302-1.259v-6.54h1.904v9.165zm-9.8-2.216c.345 0 .646.108.904.344.248.237.366.516.366.85 0 .333-.118.613-.366.839a1.288 1.288 0 0 1-.903.333c-.355 0-.656-.107-.893-.333a1.085 1.085 0 0 1-.366-.84c0-.333.119-.612.366-.849.237-.236.538-.344.893-.344m-3.173-6.949h2.054l-4.216 9.326h-.656l-4.303-9.326h2.065l2.571 5.637zm-12.822-.022c1.452 0 2.668.441 3.625 1.345.968.904 1.441 2.033 1.441 3.388 0 1.334-.484 2.42-1.462 3.302-.968.872-2.205 1.313-3.679 1.313-1.441 0-2.635-.452-3.603-1.334-.958-.882-1.442-1.99-1.442-3.324 0-1.344.484-2.463 1.463-3.356.968-.893 2.194-1.334 3.657-1.334m-.107 1.635c-.915 0-1.657.29-2.238.86-.58.571-.87 1.302-.87 2.184 0 .872.3 1.592.892 2.152.591.548 1.366.828 2.302.828.925 0 1.688-.28 2.28-.84.592-.57.882-1.28.882-2.161 0-.871-.301-1.592-.914-2.162-.624-.57-1.399-.86-2.334-.86m-13.844 1.548c0-.968.377-1.742 1.12-2.312.741-.57 1.763-.85 3.054-.85h3.947v1.409h-1.936c.366.366.624.688.775.99.15.3.215.645.215 1.032 0 .473-.14.947-.42 1.41-.29.462-.656.817-1.097 1.064-.452.247-1.183.441-2.205.592-.71.097-1.065.333-1.065.71 0 .204.13.387.398.516.27.14.753.28 1.452.43 1.162.237 1.926.441 2.26.581a2.9 2.9 0 0 1 .913.592c.452.44.678.99.678 1.656 0 .871-.398 1.57-1.205 2.087-.806.516-1.893.774-3.237.774-1.366 0-2.453-.258-3.27-.774-.818-.527-1.216-1.226-1.216-2.108 0-1.237.796-2.044 2.388-2.399-.634-.398-.946-.785-.946-1.172 0-.29.14-.56.408-.796.27-.237.635-.41 1.098-.528-1.41-.602-2.109-1.57-2.109-2.904m3.109 6.433c-.635 0-1.162.129-1.56.398-.408.247-.613.58-.613.99 0 .935.893 1.408 2.657 1.408.85 0 1.495-.118 1.958-.355.451-.236.688-.57.688-1 0-.42-.29-.764-.871-1.033-.581-.269-1.334-.408-2.26-.408m.453-8.025c-.517 0-.947.162-1.313.495-.355.334-.537.732-.537 1.194 0 .473.172.86.527 1.173.355.3.796.451 1.333.451.538 0 .98-.15 1.345-.462.355-.323.527-.71.527-1.183 0-.474-.183-.872-.538-1.194-.365-.323-.806-.474-1.344-.474m-6.755 5.379c.344 0 .645.107.903.344.248.236.366.516.366.85 0 .333-.118.613-.366.838a1.287 1.287 0 0 1-.903.334c-.355 0-.656-.108-.893-.334a1.086 1.086 0 0 1-.366-.839c0-.333.119-.613.366-.85.237-.236.538-.343.893-.343m-9.735-6.949v1.15c.84-.903 1.808-1.354 2.883-1.354.592 0 1.151.14 1.657.44.516.291.903.7 1.172 1.216.269.516.409 1.334.409 2.452v5.25h-1.915V70.71c0-.936-.14-1.603-.44-2.011-.302-.398-.797-.603-1.496-.603-.893 0-1.646.43-2.27 1.291v6.55h-1.936v-9.153Zm-9.067-.022c1.452 0 2.667.441 3.625 1.345.968.903 1.441 2.032 1.441 3.388 0 1.334-.484 2.42-1.463 3.302-.968.871-2.205 1.312-3.69 1.312-1.43 0-2.624-.452-3.592-1.334-.957-.882-1.441-1.99-1.441-3.323 0-1.345.484-2.463 1.463-3.356.968-.893 2.194-1.334 3.657-1.334m-.108 1.635c-.914 0-1.656.29-2.237.86-.58.57-.871 1.302-.871 2.184 0 .871.3 1.592.892 2.151.592.549 1.367.828 2.302.828.925 0 1.678-.28 2.28-.839.592-.57.883-1.28.883-2.162 0-.87-.312-1.591-.925-2.162-.613-.57-1.388-.86-2.324-.86m-12.896-.161 3.56-3.367v1.915h3.012v1.634h-3.012v4.475c0 1.054.452 1.57 1.355 1.57.678 0 1.388-.204 2.14-.623v1.678a4.87 4.87 0 0 1-2.376.591c-.86 0-1.582-.247-2.162-.731a2.143 2.143 0 0 1-.441-.495 2.433 2.433 0 0 1-.29-.71c-.087-.301-.13-.86-.13-1.689V68.42h-1.656zm-5.486-1.452v2.065l.097-.15c.914-1.42 1.828-2.12 2.753-2.12.71 0 1.453.344 2.227 1.033l-.99 1.592c-.666-.603-1.269-.904-1.839-.904-.602 0-1.13.28-1.581.84-.452.558-.667 1.225-.667 1.989v4.808h-1.904v-9.154zm-5.12 3.635v3.905c0 .312.108.462.333.462.226 0 .581-.161 1.065-.484v1.108c-.42.258-.763.441-1.022.527-.258.097-.527.14-.806.14-.807 0-1.28-.29-1.42-.893-.807.603-1.667.893-2.582.893-.666 0-1.226-.204-1.667-.624-.452-.43-.667-.957-.667-1.592 0-.58.215-1.097.646-1.549.44-.462 1.054-.817 1.85-1.086l2.42-.796v-.495c0-1.119-.58-1.678-1.732-1.678-1.032 0-2.043.506-3.022 1.528v-1.98c.742-.817 1.796-1.226 3.173-1.226 1.032 0 1.86.258 2.484.775.216.161.398.387.57.656.162.28.27.56.312.828.043.28.065.807.065 1.581m-1.85 3.711v-2.732l-1.27.473c-.645.248-1.097.495-1.365.742a1.21 1.21 0 0 0-.398.936c0 .377.118.689.376.925.247.247.58.366.979.366.602 0 1.162-.237 1.678-.71m-14.887-12.1h1.904v5.388c.818-.56 1.689-.85 2.614-.85 1.215 0 2.205.441 2.969 1.323.774.872 1.161 2.001 1.161 3.378 0 1.473-.462 2.657-1.387 3.528-.915.871-2.14 1.312-3.679 1.312-.624 0-1.27-.064-1.958-.193-.677-.13-1.226-.28-1.624-.474zm1.904 7.13v4.98a7.23 7.23 0 0 0 1.99.28c.839 0 1.517-.29 2.055-.86.527-.57.795-1.312.795-2.205 0-.914-.247-1.667-.752-2.237-.495-.57-1.14-.86-1.937-.86-.71 0-1.43.3-2.15.903m-10.585-2.377v1.15c.85-.903 1.818-1.355 2.883-1.355.602 0 1.15.14 1.667.441.516.29.903.7 1.172 1.216.27.516.398 1.333.398 2.452v5.249h-1.904v-5.227c0-.936-.15-1.603-.44-2.012-.302-.398-.797-.602-1.496-.602-.892 0-1.656.43-2.28 1.29v6.551h-1.925v-9.153zm-6.432 9.164v-1.194a4.31 4.31 0 0 1-1.377 1 3.692 3.692 0 0 1-1.549.355c-.602 0-1.162-.15-1.667-.44a2.749 2.749 0 0 1-1.151-1.173c-.27-.495-.398-1.313-.398-2.463v-5.25h1.904v5.217c0 .958.14 1.635.43 2.012.29.376.796.57 1.517.57.903 0 1.667-.42 2.29-1.259v-6.54h1.905v9.165zM358.394 62.03h1.904v13.92h-4.044c-1.42 0-2.55-.43-3.389-1.29-.85-.861-1.269-2.002-1.269-3.454 0-1.344.441-2.452 1.334-3.323.882-.872 2.011-1.313 3.377-1.313.646 0 1.334.13 2.087.388zm0 12.37v-5.83c-.591-.28-1.194-.43-1.796-.43-.947 0-1.7.301-2.259.893-.56.591-.839 1.398-.839 2.398 0 .947.247 1.678.731 2.184.29.312.603.516.926.624.333.107.914.16 1.764.16zm-14.822-6.163 3.56-3.367v1.915h3.012v1.634h-3.012v4.475c0 1.054.452 1.57 1.356 1.57.677 0 1.387-.204 2.14-.623v1.678a4.87 4.87 0 0 1-2.377.591c-.871 0-1.581-.247-2.162-.731a2.143 2.143 0 0 1-.441-.495 2.756 2.756 0 0 1-.301-.71c-.075-.301-.119-.86-.119-1.689V68.42h-1.656zm-7.336 7.056v-1.958a9.33 9.33 0 0 0 1.646.871c.56.226 1.033.334 1.42.334s.731-.097 1.022-.28c.28-.193.42-.42.42-.678a.868.868 0 0 0-.27-.656c-.193-.183-.58-.43-1.194-.763-1.226-.657-2.022-1.216-2.398-1.678-.377-.463-.57-.968-.57-1.517 0-.7.29-1.28.86-1.721.57-.452 1.312-.678 2.216-.678.936 0 1.893.258 2.872.753v1.786c-1.119-.646-2.033-.968-2.743-.968-.366 0-.667.075-.893.236a.663.663 0 0 0-.333.592c0 .215.097.42.3.613.194.194.56.43 1.076.7l.667.376c1.592.86 2.388 1.828 2.388 2.872 0 .752-.312 1.376-.925 1.85-.613.484-1.398.731-2.366.731-.56 0-1.076-.064-1.517-.172-.44-.118-1-.334-1.678-.645m-2.603-4.873v3.905c0 .312.108.462.334.462.226 0 .58-.161 1.065-.484v1.108c-.42.258-.764.441-1.022.527a2.27 2.27 0 0 1-.807.14c-.807 0-1.28-.29-1.42-.893-.806.603-1.667.893-2.581.893-.667 0-1.226-.204-1.667-.624-.452-.43-.667-.957-.667-1.592 0-.58.215-1.097.645-1.549.43-.462 1.043-.817 1.85-1.086l2.42-.796v-.495c0-1.119-.58-1.678-1.732-1.678-1.032 0-2.043.506-3.022 1.528v-1.98c.742-.817 1.796-1.226 3.173-1.226 1.033 0 1.86.258 2.485.775.204.161.398.387.56.656.171.28.279.56.322.828.043.28.064.807.064 1.581m-1.85 3.711v-2.732l-1.27.473c-.644.248-1.107.495-1.376.742-.258.248-.398.56-.398.936 0 .377.13.689.387.925.248.247.581.366.98.366.601 0 1.16-.237 1.677-.71m-6.206-2.614h-6.723c.043.882.355 1.581.914 2.098.57.527 1.302.785 2.195.785a5.81 5.81 0 0 0 3.442-1.108v1.764c-.581.366-1.151.635-1.732.796-.57.15-1.237.226-2.011.226-1.055 0-1.904-.205-2.56-.624a4.576 4.576 0 0 1-1.56-1.7c-.398-.699-.592-1.527-.592-2.452 0-1.398.41-2.538 1.237-3.42.829-.872 1.904-1.313 3.216-1.313 1.27 0 2.28.43 3.044 1.291.753.85 1.13 1.99 1.13 3.42zm-6.68-1.086h4.798c-.043-.732-.27-1.302-.667-1.689-.398-.398-.947-.602-1.625-.602-.666 0-1.226.204-1.656.602-.43.387-.71.957-.85 1.689m-5.163 3.302c.344 0 .646.108.893.344a1.1 1.1 0 0 1 .376.85c0 .333-.118.613-.365.839a1.288 1.288 0 0 1-.904.333c-.355 0-.656-.107-.893-.333a1.086 1.086 0 0 1-.365-.839c0-.333.118-.613.365-.85.237-.236.538-.344.893-.344m-3.065-6.948h2.033l-4.195 9.325h-.635l-2.818-6.39-2.797 6.39h-.624l-4.259-9.325h2.033l2.506 5.56 2.442-5.56h1.409l2.42 5.56zm-15.317 0h2.033l-4.206 9.325h-.624l-2.818-6.39-2.797 6.39h-.623l-4.26-9.325h2.033l2.506 5.56 2.442-5.56h1.409l2.42 5.56zm-15.317 0h2.033l-4.206 9.325h-.624l-2.818-6.39-2.796 6.39H271l-4.26-9.325h2.033l2.506 5.56 2.442-5.56h1.41l2.42 5.56zM498.58 47.82h-4.894V29.826h4.894zm-10.939-18.23c-1.14 0-2.054.872-2.054 1.969 0 1.086.914 1.957 2.054 1.957 1.13 0 2.054-.87 2.054-1.957 0-1.097-.925-1.969-2.054-1.969m-2.442 18.232h4.884v-13.22h-4.884zm-2.829-9.013c-.892-.258-2.581-.721-3.721-.721-1.474 0-3.335.807-3.335 3.087 0 2.259 1.861 3.162 3.335 3.162 1.14 0 2.775-.452 3.937-.796v3.668c-1.108.377-2.464.85-4.658.85-6.583 0-7.744-4.862-7.744-6.884 0-2.022 1.161-6.809 7.744-6.809 2.194 0 3.356.398 4.442.775zm-24.373-4.195v1.882c1.549-1.592 3.076-2.13 4.883-2.13 5.142 0 4.97 4.496 4.97 5.69v7.766h-4.884V40.96c0-.85.108-2.98-2-2.98-1.635 0-2.528 1.528-2.97 2.076v7.766h-4.882V34.613ZM445.122 47.82v-1.88c-1.28 1.323-2.69 2.119-4.894 2.119-5.131 0-4.96-4.485-4.96-5.69v-7.755h4.884v6.851c0 .86-.107 2.98 1.99 2.98 1.667 0 2.614-1.57 2.98-2.076v-7.755h4.883V47.82zm-20.093-9.97c1.829 0 2.775 1.333 2.775 3.344 0 2.033-.946 3.389-2.775 3.389-1.84 0-2.775-1.356-2.775-3.389 0-2.011.936-3.345 2.775-3.345m0-3.485c-5.281 0-7.917 2.98-7.917 6.83 0 3.862 2.636 6.863 7.917 6.863 5.27 0 7.906-3.001 7.906-6.863 0-3.85-2.635-6.83-7.906-6.83m-10.326 12.1c-2.474 1.227-4.948 1.593-7.411 1.593-6.637 0-10.627-3.743-10.627-9.25 0-6.357 5.045-9.23 10.713-9.23 3.162 0 5.744.861 7.239 1.367v4.786c-1.054-.613-3.162-1.947-5.97-1.947-3.216 0-6.217 1.947-6.217 5.11 0 2.732 2.442 4.969 5.916 4.969 3.023 0 5.238-1.28 6.357-1.947zm-38.11-6.431c0-1.678 1.14-2.797 2.722-2.797 1.635 0 2.55 1.119 2.55 2.797zm9.853 1.376c0-5.313-3.743-7.045-6.83-7.045-5.27 0-7.906 2.958-7.906 6.787 0 3.83 2.636 6.906 7.906 6.906 3.668 0 5.744-1.033 6.465-1.41v-2.893c-1.721.764-3.571 1.334-5.432 1.334-1.861 0-3.56-1.097-3.915-2.743h9.712zm-21.792-6.797v3.183c.452-1.161 2.001-3.43 4.357-3.43 1.28 0 2.054.45 2.915.956l-1.797 4.68c-.753-.689-1.387-1-2.248-1-1.248 0-2.259.58-3.227 3.13v5.69h-4.883v-13.21Zm-8.217 13.208h-4.873V34.613h4.873zm-.388-16.274c0 1.097-.914 1.968-2.043 1.968-1.14 0-2.066-.87-2.066-1.968 0-1.086.925-1.968 2.066-1.968 1.13 0 2.043.882 2.043 1.968m-17.51-1.721v6.669c1.72-1.753 3.334-2.13 4.883-2.13 3 0 4.969 1.517 4.969 5.346v8.11h-4.883v-6.86c0-.097.355-2.98-2.001-2.98-1.441 0-2.42 1.28-2.969 2.076v7.766h-4.883V29.826Zm-8.24 8.852c-.56-.29-2.055-1.333-4.001-1.333-1.27 0-1.474.699-1.474.935 0 .377.118.689 1.775 1.302 3.313 1.215 4.42 2.366 4.42 4.388 0 2.26-1.688 4.088-5.528 4.088-2.27 0-3.905-.527-5.324-1.033v-3.323c1 .559 2.441 1.387 4.13 1.387.893 0 1.84-.215 1.84-.968 0-.656-.754-1-2.948-1.904-1.463-.613-3.248-1.84-3.248-3.883 0-1.86 1.785-3.969 5.604-3.969.344 0 2.592 0 4.754 1.076zm-22.846-4.065v1.882c1.56-1.592 3.087-2.13 4.883-2.13 5.141 0 4.97 4.496 4.97 5.69v7.766h-4.884v-6.86c0-.85.108-2.98-2-2.98-1.636 0-2.528 1.528-2.97 2.076v7.766h-4.883V34.613Zm-15.317 3.237c1.828 0 2.775 1.334 2.775 3.345 0 2.033-.947 3.389-2.775 3.389-1.829 0-2.775-1.356-2.775-3.389 0-2.011.946-3.345 2.775-3.345m0-3.485c-5.27 0-7.906 2.98-7.906 6.83 0 3.862 2.635 6.863 7.906 6.863 5.27 0 7.906-3.001 7.906-6.863 0-3.85-2.636-6.83-7.906-6.83m-9.831 3.485h-4.658v4.227c0 1.119 0 2.26 1.969 2.26 1.054 0 1.968-.399 3.054-.926v3.636c-.892.43-2.86 1.01-4.636 1.01-3.635 0-5.27-1.774-5.27-4.936v-5.27h-2.227v-.818l6.55-6.39h.56v3.97h4.658zm-18.953-3.237v3.183c.441-1.161 1.99-3.43 4.356-3.43 1.28 0 2.055.45 2.915.956l-1.807 4.68c-.753-.689-1.387-1-2.248-1-1.248 0-2.248.58-3.216 3.13v5.69h-4.894v-13.21Zm-13.564 10.014c-.365.269-1.226.914-2 .914-.635 0-1.334-.409-1.334-1.355 0-1.366 1.42-1.915 3.334-2.69zm-7.636-4.862c1.226-1.173 3.108-2.42 5.474-2.42 1.99 0 2.162 1.065 2.162 2.054-.527.258-.752.312-2.86.957-3.002.904-5.25 1.807-5.25 4.378 0 1.441.872 3.324 4.11 3.324 2.387 0 3.527-.818 4.28-1.41.162.485.495 1.41 2.356 1.41 1.914 0 3.194-.527 4.162-.904v-2.441c-.247.107-.774.376-1.247.376-.527 0-.667-.505-.667-1.441v-5.11c0-2.516-1.915-4.173-6.024-4.173-2.355 0-4.657.56-6.496 1.807zm-12.714-1.194c.42-.269 1.387-.85 2.474-.85 1.301 0 2.689 1.065 2.689 3.474 0 3.012-2.001 3.356-2.69 3.356-1.215 0-2-.505-2.473-.936zm-4.884 9.25h4.884v-1.194c.559.452 1.667 1.43 4.033 1.43 2.775 0 6.271-1.882 6.271-6.754 0-3.431-1.979-6.938-6.604-6.938-1.807 0-3.109.592-3.7 1.011v-5.55h-4.884zM211.82 34.613v1.882c1.549-1.592 3.076-2.13 4.883-2.13 5.131 0 4.97 4.496 4.97 5.69v7.766h-4.884V40.96c0-.85.108-2.98-2-2.98-1.635 0-2.528 1.528-2.969 2.076v7.766h-4.883V34.613ZM198.944 47.82v-1.88c-1.28 1.323-2.7 2.119-4.894 2.119-5.131 0-4.959-4.486-4.959-5.69v-7.755h4.883v6.851c0 .86-.118 2.98 2.001 2.98 1.657 0 2.603-1.57 2.969-2.076v-7.755h4.883V47.82Zm-26.009-14.38h2.41c2.033 0 5.475.688 5.475 5.474 0 4.787-3.442 5.185-5.475 5.185h-2.41zm-5.668-3.615V47.82h9.863c.516 0 3.776.108 5.938-1.516 1.247-.925 3.517-2.926 3.517-7.153 0-3.292-1.495-5.712-3.27-7.1-1.388-1.086-3.528-2.226-8.24-2.226zm-11.542 8.024h-4.668v4.227c0 1.119 0 2.26 1.98 2.26 1.053 0 1.968-.399 3.054-.926v3.636c-.893.43-2.861 1.01-4.636 1.01-3.636 0-5.281-1.774-5.281-4.936v-5.27h-2.216v-.818l6.55-6.39h.549v3.97h4.668zm-13.875.828c-.56-.29-2.055-1.333-4.002-1.333-1.269 0-1.462.699-1.462.935 0 .377.107.689 1.774 1.302 3.302 1.215 4.41 2.366 4.41 4.388 0 2.26-1.7 4.088-5.528 4.088-2.27 0-3.905-.527-5.325-1.033v-3.323c1 .559 2.442 1.387 4.141 1.387.882 0 1.829-.215 1.829-.968 0-.656-.753-1-2.947-1.904-1.463-.613-3.238-1.84-3.238-3.883 0-1.86 1.775-3.969 5.593-3.969.334 0 2.593 0 4.755 1.076zm-18.404 5.949c-.366.269-1.216.914-2 .914-.635 0-1.335-.409-1.335-1.355 0-1.366 1.42-1.915 3.335-2.69zm-7.626-4.862c1.215-1.173 3.097-2.42 5.464-2.42 2 0 2.162 1.065 2.162 2.054-.527.258-.753.312-2.861.957-2.99.904-5.239 1.807-5.239 4.378 0 1.441.86 3.324 4.11 3.324 2.376 0 3.517-.818 4.27-1.41.16.485.494 1.41 2.355 1.41 1.915 0 3.195-.527 4.163-.904v-2.441c-.248.107-.775.376-1.248.376-.527 0-.667-.505-.667-1.441v-5.11c0-2.516-1.914-4.173-6.023-4.173-2.356 0-4.658.56-6.486 1.807zm-2.894 4.442v3.614H98.771V29.826h13.94v3.614h-8.271v3.292h7.884v3.624h-7.884v3.851zm0 0"/>
  <path fill="#ef2e31" d="M336.634 7.906c0-.968.366-1.743 1.119-2.313.742-.56 1.753-.85 3.044-.85h3.937v1.42h-1.936c.376.355.634.689.785.99.14.301.215.645.215 1.022 0 .484-.14.946-.42 1.409a3.06 3.06 0 0 1-1.097 1.065c-.451.247-1.183.44-2.194.58-.72.108-1.076.345-1.076.71 0 .215.13.388.398.527.27.13.753.27 1.452.42 1.173.247 1.926.441 2.26.58.333.14.645.334.914.592.451.441.677.99.677 1.657 0 .86-.398 1.56-1.205 2.076-.806.516-1.893.774-3.237.774-1.366 0-2.453-.258-3.27-.774-.818-.527-1.216-1.226-1.216-2.098 0-1.237.796-2.043 2.4-2.398-.646-.398-.958-.786-.958-1.162 0-.29.14-.56.409-.796.269-.236.645-.42 1.107-.527-1.409-.602-2.108-1.57-2.108-2.904m3.109 6.421c-.646 0-1.162.13-1.57.388-.41.258-.603.591-.603 1 0 .936.882 1.409 2.657 1.409.839 0 1.484-.118 1.947-.355.462-.237.688-.57.688-1 0-.42-.29-.764-.871-1.033-.581-.269-1.334-.409-2.248-.409m.44-8.013a1.91 1.91 0 0 0-1.311.495c-.355.333-.538.742-.538 1.204 0 .463.183.86.527 1.162.355.312.807.463 1.344.463.538 0 .98-.151 1.334-.474.355-.312.538-.699.538-1.172 0-.484-.183-.882-.538-1.194-.366-.323-.817-.484-1.355-.484m-11.81-1.57v1.161c.839-.893 1.796-1.344 2.871-1.344.603 0 1.151.15 1.668.451.505.29.903.7 1.172 1.216.258.505.398 1.323.398 2.442v5.227h-1.893V8.68c0-.925-.15-1.602-.452-2-.29-.398-.796-.603-1.495-.603-.893 0-1.646.43-2.27 1.291v6.529h-1.936V4.744ZM322.79.893c.312 0 .58.096.807.312a.993.993 0 0 1 .322.753c0 .29-.107.548-.322.753a1.13 1.13 0 0 1-.807.322 1.05 1.05 0 0 1-.764-.322 1.015 1.015 0 0 1-.333-.753c0-.28.108-.527.333-.743a1.05 1.05 0 0 1 .764-.322m-.936 3.85h1.893v9.154h-1.893zm-3.506 0h2.054l-4.227 9.315h-.635l-4.324-9.314h2.066l2.581 5.636zm-7.583 4.744h-6.723c.054.871.366 1.57.925 2.087.56.516 1.29.774 2.184.774 1.247 0 2.398-.376 3.452-1.119v1.775a6.368 6.368 0 0 1-1.731.796c-.57.162-1.237.237-2.012.237-1.054 0-1.904-.205-2.55-.624a4.565 4.565 0 0 1-1.57-1.689c-.387-.71-.58-1.527-.58-2.452 0-1.388.408-2.528 1.237-3.4.817-.87 1.893-1.311 3.205-1.311 1.27 0 2.28.43 3.033 1.28.753.85 1.13 1.99 1.13 3.41zm-6.68-1.086h4.819c-.054-.732-.28-1.28-.678-1.678-.409-.388-.946-.581-1.624-.581-.678 0-1.237.193-1.667.58-.43.399-.71.947-.85 1.679M298.934.893c.312 0 .58.096.806.312a.993.993 0 0 1 .323.753c0 .29-.108.548-.323.753a1.13 1.13 0 0 1-.806.322 1.05 1.05 0 0 1-.764-.322 1.015 1.015 0 0 1-.333-.753c0-.28.107-.527.333-.743a1.05 1.05 0 0 1 .764-.322m-.936 3.85h1.893v9.154h-1.893zM287.274 0h1.893v5.948c.796-.925 1.775-1.387 2.937-1.387.645 0 1.215.161 1.72.462.506.301.883.72 1.13 1.27.247.537.366 1.333.366 2.398v5.217h-1.893V8.239c0-.667-.173-1.204-.517-1.613-.333-.42-.796-.613-1.355-.613a2.38 2.38 0 0 0-1.172.3c-.366.205-.775.55-1.216 1.034v6.56h-1.893zm-2.108 11.757v1.796a8.071 8.071 0 0 1-2.775.505c-1.506 0-2.7-.42-3.582-1.269-.893-.85-1.334-1.99-1.334-3.42s.43-2.593 1.29-3.485c.872-.882 2.012-1.313 3.421-1.313.495 0 .936.043 1.323.13.398.085.882.258 1.452.505v1.925c-.957-.58-1.839-.87-2.656-.87-.86 0-1.56.279-2.098.86-.548.57-.828 1.301-.828 2.194 0 .936.301 1.678.893 2.227.591.548 1.387.828 2.398.828.721 0 1.56-.205 2.496-.613M274.926 8.4v3.883c0 .322.107.473.333.473.226 0 .581-.161 1.065-.484v1.097c-.43.269-.774.452-1.032.549-.258.096-.528.14-.818.14-.807 0-1.28-.302-1.43-.915-.807.603-1.657.893-2.571.893-.656 0-1.216-.204-1.657-.624a2.135 2.135 0 0 1-.667-1.592c0-.58.215-1.097.657-1.549.43-.451 1.043-.806 1.839-1.075l2.42-.796v-.495c0-1.097-.57-1.646-1.721-1.646-1.033 0-2.044.506-3.023 1.528v-1.98c.743-.828 1.797-1.247 3.174-1.247 1.032 0 1.86.258 2.484.785.205.161.398.387.56.656.172.28.268.549.312.828.053.28.075.796.075 1.57m-1.861 3.69v-2.72l-1.27.473c-.645.247-1.096.495-1.365.742-.27.247-.398.56-.398.925 0 .387.129.689.376.925.258.248.581.366.979.366.602 0 1.162-.237 1.678-.71m-19.63-4.184c0-.968.376-1.743 1.119-2.313.742-.56 1.764-.85 3.054-.85h3.937v1.42h-1.936c.376.355.635.689.774.99.151.301.226.645.226 1.022 0 .484-.14.946-.43 1.409-.28.462-.645.817-1.097 1.065-.441.247-1.183.44-2.194.58-.71.108-1.076.345-1.076.71 0 .215.14.388.409.527.258.13.742.27 1.441.42 1.172.247 1.925.441 2.259.58.344.14.645.334.914.592.452.441.688.99.688 1.657 0 .86-.408 1.56-1.215 2.076-.807.516-1.882.774-3.238.774-1.366 0-2.452-.258-3.259-.774-.817-.527-1.226-1.226-1.226-2.098 0-1.237.796-2.043 2.399-2.398-.635-.398-.958-.786-.958-1.162 0-.29.14-.56.41-.796.279-.236.645-.42 1.107-.527-1.398-.602-2.108-1.57-2.108-2.904m3.108 6.421c-.634 0-1.161.13-1.56.388-.408.258-.612.591-.612 1 0 .936.882 1.409 2.656 1.409.84 0 1.496-.118 1.958-.355.452-.237.689-.57.689-1 0-.42-.29-.764-.872-1.033-.58-.269-1.334-.409-2.259-.409m.441-8.013c-.505 0-.946.172-1.301.495a1.573 1.573 0 0 0-.538 1.204c0 .463.172.86.527 1.162.355.312.796.463 1.345.463.527 0 .968-.151 1.333-.474.355-.312.528-.699.528-1.172 0-.484-.173-.882-.538-1.194-.355-.323-.807-.484-1.356-.484m-11.81-1.57v1.161c.85-.893 1.807-1.344 2.883-1.344.591 0 1.15.15 1.656.451.517.29.904.7 1.173 1.216.269.505.398 1.323.398 2.442v5.227H249.4V8.68c0-.925-.15-1.602-.451-2-.302-.398-.796-.603-1.496-.603-.892 0-1.656.43-2.28 1.291v6.529h-1.925V4.744ZM239.602.893c.312 0 .57.096.796.312a.966.966 0 0 1 .334.753c0 .29-.108.548-.334.753a1.105 1.105 0 0 1-.796.322c-.3 0-.548-.107-.774-.322a1.015 1.015 0 0 1-.334-.753c0-.28.108-.527.334-.743.226-.215.473-.322.774-.322m-.935 3.85h1.882v9.154h-1.882zm-3.507 0h2.054l-4.227 9.315h-.645l-4.313-9.314h2.065l2.581 5.636zm-9.552-3.85c.312 0 .581.096.807.312a1.02 1.02 0 0 1 0 1.506 1.13 1.13 0 0 1-.806.322 1.05 1.05 0 0 1-.764-.322 1.014 1.014 0 0 1-.334-.753c0-.28.108-.527.334-.743a1.05 1.05 0 0 1 .763-.322m-.935 3.85h1.893v9.154h-1.893zm-6.433 0v2.098l.097-.15c.915-1.42 1.829-2.13 2.743-2.13.72 0 1.463.344 2.238 1.043l-1 1.592c-.657-.602-1.27-.904-1.83-.904-.612 0-1.129.28-1.58.84-.452.559-.667 1.215-.667 1.978v4.787h-1.904V4.743ZM205.527 0h1.893v5.948c.796-.925 1.764-1.387 2.936-1.387.646 0 1.216.161 1.721.462.506.301.882.72 1.13 1.27.236.537.365 1.333.365 2.398v5.217h-1.893V8.239c0-.667-.172-1.204-.516-1.613-.344-.42-.796-.613-1.355-.613a2.38 2.38 0 0 0-1.173.3c-.366.205-.774.55-1.215 1.034v6.56h-1.893zm-8.38 6.196 3.55-3.346v1.894h3.023v1.634h-3.023v4.486c0 1.043.452 1.57 1.366 1.57.678 0 1.388-.226 2.151-.656v1.7a5.025 5.025 0 0 1-2.388.58c-.86 0-1.58-.236-2.162-.72a2.388 2.388 0 0 1-.44-.495 2.687 2.687 0 0 1-.302-.72c-.075-.291-.118-.861-.118-1.69V6.379h-1.657zm-6.625 3.291h-6.712c.043.871.344 1.57.914 2.087.56.516 1.29.774 2.184.774 1.247 0 2.398-.376 3.452-1.119v1.775a6.368 6.368 0 0 1-1.731.796c-.57.162-1.237.237-2.012.237-1.054 0-1.904-.205-2.55-.624a4.655 4.655 0 0 1-1.57-1.689c-.387-.71-.58-1.527-.58-2.452 0-1.388.408-2.528 1.237-3.4.817-.87 1.893-1.311 3.205-1.311 1.27 0 2.28.43 3.033 1.28.753.85 1.13 1.99 1.13 3.41zm-6.68-1.086h4.819c-.054-.732-.28-1.28-.678-1.678-.409-.388-.946-.581-1.624-.581-.678 0-1.237.193-1.667.58-.43.399-.72.947-.85 1.679m-6.088 5.496h1.893V0h-1.893zM166.987 0h1.893v5.4c.818-.57 1.689-.85 2.625-.85 1.204 0 2.194.43 2.968 1.312.764.871 1.151 2 1.151 3.367 0 1.473-.451 2.646-1.377 3.517-.914.882-2.14 1.312-3.678 1.312-.624 0-1.27-.064-1.947-.182-.688-.13-1.226-.29-1.635-.484zm1.893 7.131v4.959c.646.183 1.312.28 1.99.28.839 0 1.517-.29 2.054-.86.528-.57.786-1.302.786-2.195 0-.914-.248-1.646-.742-2.227-.495-.57-1.14-.85-1.937-.85-.71 0-1.42.302-2.15.893m-4.884 1.27v3.883c0 .322.107.473.333.473.226 0 .581-.161 1.076-.484v1.097c-.43.269-.775.452-1.033.549-.268.096-.538.14-.817.14-.807 0-1.29-.302-1.442-.915-.795.603-1.656.893-2.56.893-.666 0-1.226-.204-1.667-.624a2.135 2.135 0 0 1-.667-1.592c0-.58.226-1.097.657-1.549.43-.451 1.043-.806 1.839-1.075l2.42-.796v-.495c0-1.097-.57-1.646-1.721-1.646-1.033 0-2.033.506-3.012 1.528v-1.98c.732-.828 1.786-1.247 3.173-1.247 1.033 0 1.85.258 2.474.785.215.161.398.387.56.656.172.28.28.549.322.828.043.28.065.796.065 1.57m-1.861 3.69V9.37l-1.27.473c-.634.247-1.096.495-1.365.742-.258.247-.398.56-.398.925 0 .387.129.689.387.925.247.248.57.366.979.366.602 0 1.161-.237 1.667-.71M149.25 4.744v1.161c.839-.893 1.796-1.344 2.872-1.344.591 0 1.15.15 1.667.451.506.29.904.7 1.162 1.216.269.505.409 1.323.409 2.442v5.227h-1.894V8.68c0-.925-.15-1.602-.451-2-.302-.398-.796-.603-1.495-.603-.893 0-1.657.43-2.27 1.291v6.529h-1.936V4.744ZM143.667.893c.312 0 .581.096.796.312a.966.966 0 0 1 .334.753c0 .29-.108.548-.334.753a1.087 1.087 0 0 1-.796.322c-.29 0-.548-.107-.774-.322a1.056 1.056 0 0 1-.333-.753c0-.28.118-.527.333-.743.226-.215.484-.322.774-.322m-.935 3.85h1.893v9.154h-1.893zm-3.12 3.658v3.883c0 .322.108.473.334.473.226 0 .58-.161 1.075-.484v1.097c-.44.269-.785.452-1.043.549-.258.096-.527.14-.807.14-.817 0-1.29-.302-1.441-.915-.796.603-1.656.893-2.56.893-.667 0-1.226-.204-1.667-.624a2.135 2.135 0 0 1-.667-1.592c0-.58.226-1.097.656-1.549.43-.451 1.043-.806 1.84-1.075l2.42-.796v-.495c0-1.097-.57-1.646-1.721-1.646-1.033 0-2.033.506-3.012 1.528v-1.98c.731-.828 1.785-1.247 3.162-1.247 1.033 0 1.861.258 2.485.785.215.161.398.387.56.656.171.28.279.549.322.828.043.28.064.796.064 1.57m-1.86 3.69V9.37l-1.27.473c-.645.247-1.097.495-1.366.742-.269.247-.398.56-.398.925 0 .387.13.689.387.925.248.248.57.366.98.366.602 0 1.15-.237 1.666-.71m-12.574-5.894 3.56-3.346v1.894h3.023v1.634h-3.022v4.486c0 1.043.452 1.57 1.355 1.57.678 0 1.398-.226 2.151-.656v1.7a4.95 4.95 0 0 1-2.377.58c-.86 0-1.581-.236-2.162-.72a1.899 1.899 0 0 1-.44-.495 2.38 2.38 0 0 1-.302-.72c-.075-.291-.118-.861-.118-1.69V6.379h-1.668zm-7.314 7.045v-1.947a9.633 9.633 0 0 0 1.635.871c.56.226 1.033.334 1.42.334s.731-.097 1.011-.28c.28-.183.43-.409.43-.667a.902.902 0 0 0-.28-.667c-.182-.172-.58-.43-1.193-.753-1.216-.656-2.012-1.204-2.388-1.667-.377-.462-.57-.968-.57-1.506 0-.71.29-1.28.86-1.731.57-.441 1.302-.667 2.205-.667.936 0 1.893.258 2.883.763V7.11c-1.13-.645-2.044-.968-2.754-.968-.365 0-.667.075-.892.226a.663.663 0 0 0-.334.591c0 .205.097.409.301.603.205.193.56.43 1.076.699l.678.365c1.592.86 2.387 1.818 2.387 2.862 0 .752-.3 1.366-.914 1.85-.613.484-1.409.72-2.366.72-.57 0-1.076-.053-1.517-.172-.44-.118-1-.333-1.678-.645m-4.076.656v-1.172c-.41.42-.86.753-1.377.978a3.692 3.692 0 0 1-1.55.355c-.601 0-1.15-.14-1.666-.43a2.874 2.874 0 0 1-1.151-1.172c-.258-.495-.387-1.323-.387-2.463v-5.25h1.893V9.96c0 .968.14 1.635.43 2.012.28.387.785.57 1.506.57.903 0 1.667-.42 2.302-1.259v-6.54h1.893v9.154zm-14.747-.656v-1.947a9.244 9.244 0 0 0 1.635.871c.56.226 1.032.334 1.409.334.398 0 .731-.097 1.022-.28.28-.183.42-.409.42-.667a.891.891 0 0 0-.27-.667c-.183-.172-.58-.43-1.194-.753-1.215-.656-2.022-1.204-2.398-1.667-.377-.462-.56-.968-.56-1.506 0-.71.28-1.28.86-1.731.57-.441 1.302-.667 2.206-.667.936 0 1.893.258 2.872.763V7.11c-1.119-.645-2.033-.968-2.754-.968-.366 0-.656.075-.882.226a.673.673 0 0 0-.344.591c0 .205.108.409.312.603.204.193.56.43 1.075.699l.678.365c1.592.86 2.388 1.818 2.388 2.862 0 .752-.312 1.366-.925 1.85s-1.398.72-2.356.72c-.57 0-1.075-.053-1.527-.172-.441-.118-.99-.333-1.667-.645M17.992 45.585s27.654-1.398 39.13-4.894c8.477-2.592 13.468-4.819 17.157-8.96 2.216-2.485 2.506-4.335 2.506-5.626 0 0 2.453 7.433 2.065 12.553 0 0 .85 12.52-10.003 24.707-10.864 12.187-31.096 17.5-49.156 7.755-5.582-3.012-10.917-8.734-10.917-8.734s8.163 5.41 17.995 5.045c10.788-.409 23.255-2.28 37.776-13.854 0 0 3.108-2.614.828-4.797-1.926-1.85-4.883.129-5.712.86-.839.742-12.757 10.154-28.46 9.175-7.907-.495-12.284-4.367-12.919-8.132-.452-2.678-.29-5.098-.29-5.098m33.925-11.918c5.926-2.399 9.97-8.906 9.304-11.95-.516-2.313-2.366-4.066-10.079-3.743-20.91.882-31.128 21.792-31.128 21.792s17.694-.344 31.903-6.099M21.853 4.227C51.67-9.369 71.29 15.855 71.29 15.855c-6.37-3.883-21.32-7.305-44.908 2.764C2.384 28.869.739 46.693.739 46.693s-6.841-29.73 21.114-42.466"/>
</svg>
