<svg height="300" viewBox="-866 0 3332.7946 3332.7946" width="300" xmlns="http://www.w3.org/2000/svg"><g stroke-width="1.924246"><ellipse cx="800.397" cy="1666.397809" fill="#dd5e2b" rx="1666.397296" ry="1666.397296"/><ellipse cx="800.397" cy="1666.397809" fill="#fff" rx="1552.866764" ry="1552.866764"/><ellipse cx="800.397" cy="1666.397809" fill="#dc5e2b" rx="1477.821158" ry="1477.821158"/></g><g fill="#1958a7"><path d="m288.54749 1116.0634h1021.7748v128.9245h-1021.7748z"/><path d="m232.74434 1460.5034h1137.2296v128.9245h-1137.2296z"/><path d="m736.89685 1189.1847h128.9245v579.19812h-128.9245z"/><path d="m800.397 113.53104c130.84875 0 257.849 15.39398 379.0765 46.18192v78.89409c-121.2275-32.71218-248.22775-50.0304-379.0765-50.0304s-257.849 17.31822-379.07652 50.0304v-78.89409c121.22752-30.78794 248.22777-46.18192 379.07652-46.18192z" stroke="#2e4d89" stroke-width="5.772739"/><path d="m800.397 1714.504c269.3945 0 486.8343 150.0912 486.8343 334.8188 0 50.0304-15.394 96.2123-42.3334 138.5458 0-7.697 1.9242-15.394 1.9242-21.1668 0-186.6518-200.1216-336.7431-446.4251-336.7431-246.30353 0-446.42514 150.0913-446.42514 336.7431 0 5.7728 1.92424 13.4698 1.92424 21.1668-26.93944-42.3335-42.33341-88.5154-42.33341-138.5458 0-184.7276 217.43983-334.8188 486.83431-334.8188z"/><path d="m938.94273 5.7732519c-5.77274 130.8487481-21.16671 592.6678581 65.42437 1073.7294481h132.773c-75.0456-457.97063-78.8941-948.65344-78.8941-1060.259724-40.4092-5.772739-78.89409-9.6212315-119.30327-13.4697241zm76.96987 1137.2295481c53.8789 269.3945 142.3942 540.7132 280.9399 760.0773 213.5914 336.7431 396.3948 173.1822 529.1678-88.5153-171.2579 100.0608-330.9704 127.0002-432.9554 0-117.3791-144.3185-194.3489-398.319-244.3793-671.562z"/><path d="m661.85127 5.7732519c5.77274 130.8487481 21.16671 592.6678581-65.42438 1073.7294481h-132.77299c75.0456-457.97063 78.8941-948.65344 78.8941-1060.259724 40.40917-5.772739 78.89409-9.6212315 119.30327-13.4697241zm-76.96986 1137.2295481c-53.87889 269.3945-142.39422 540.7132-280.93996 760.0773-213.591335 336.7431-396.394733 173.1822-529.16773-88.5153 171.257923 100.0608 330.97037 127.0002 432.95542 0 117.37902-144.3185 194.34888-398.319 244.37928-671.562z"/></g><path d="m754.21509 3142.2947c-792.789477-23.0909-1431.63925-677.3347-1431.63925-1475.8969 0-98.1366 9.62123-192.4246 28.8637-284.7884 796.63796 142.3942 1404.6998 842.8198 1404.6998 1679.867 0 26.9394 0 53.8789-1.92425 80.8183z" fill="#fff" stroke="#fff" stroke-width="5.772739"/><path d="m681.09373 3138.4462c-758.153043-61.5759-1358.51789-698.5014-1358.51789-1472.0484 0-71.1971 5.77274-142.3942 15.39397-211.6671 763.92578 136.6215 1345.04817 804.335 1345.04817 1606.7457 0 25.0152 0 51.9546-1.92425 76.9698z" fill="#0f6c26"/><path d="m2249.3545 1381.6094c19.2424 92.3638 28.8637 186.6518 28.8637 284.7884 0 798.5622-638.8498 1452.806-1431.63929 1475.8969-1.92425-26.9394-1.92425-53.8789-1.92425-80.8183 0-837.0472 608.06184-1537.4728 1404.69984-1679.867z" fill="#fff" stroke="#fff" stroke-width="5.772739"/><path d="m2262.8242 1454.7307c9.6212 69.2729 15.394 140.47 15.394 211.6671 0 773.547-600.3649 1410.4725-1358.51793 1472.0484-1.92425-25.0152-1.92425-51.9546-1.92425-76.9698 0-802.4107 581.12238-1470.1242 1345.04818-1606.7457z" fill="#0f6c26"/></svg>