<svg height="845.79999" viewBox="0 0 158.96166 223.78459" width="600.79999" xmlns="http://www.w3.org/2000/svg" xmlns:xlink="http://www.w3.org/1999/xlink"><clipPath id="a"><path d="m778.334 166.89h232.278v327.124h-232.278z"/></clipPath><g transform="translate(0 -73.215395)"><path d="m98.323721 151.09982c-1.43182-1.99703-2.33123-3.97015-3.81908-7.5234-1.303335-3.10627-1.075065-2.59915-2.99486-7.28487-.915135-2.24035-2.544467-5.76353-3.49514-7.00945-1.440702-1.8993-4.052826-3.81912-4.952241-4.18818-1.144775-.47157-2.756337-.86319-4.462899-.95955-3.047482-.16745-6.08471.25629-7.375739.60007-1.007396.26653-2.785721.87617-3.677618 1.95807-.129168.15719-.552906.69029-1.116749.95341-1.316997.62262-1.631381.57614-3.341361 1.83574-2.772736 2.0278-2.345582 5.19284-.89463 6.41212.02188.0184.05673.026.07723.0321-.03896-.80852.04169-1.52204.175645-1.48309.150359.0519 1.511097.95615 3.622943.67115 1.528184-.20845 2.503457 2.12142 2.503457 2.12142l.247408-.67797s.487296 1.46326.901464 1.79474c.07723-.0964.212551-.25425.237155-.34036.46201.57752 1.211064.95272 1.27736 1.90408-.03075.84269-.388196 1.64233-1.47624 2.65314-.410753.37864-2.843134 2.38387-5.429972 5.02883-1.3416 1.36757-2.01753 2.19865-3.376217 3.68104-.696433.76478-1.342287 1.22954-2.02778 1.26097-.103203.004-.206404.004-.307553.004-.803048-.007-1.451638-.44014-1.702461-.7641-.269277-.34377-13.417391-17.7225-19.710552-26.04417 11.412164-11.13611 30.327186-12.97527 35.049107-12.6315 1.107182.08 2.357886.95957.965708 2.76933 1.0197.4627 4.852459.11892 6.292478-1.2261 1.435919 1.34502 5.273464 1.6888 6.291114 1.2261-1.389442-1.80976-.138056-2.68936.969125-2.76933 4.681597-.33899 22.660297.50781 35.221337 12.90421-6.14212 8.11389-14.34825 18.39637-18.76125 24.79551-.17292.24808-.29457.46883-.87207.82149-.62399.38615-1.33545.52011-2.05513.48183-.962959-.0513-1.495369-.32464-1.981989-1.0074m60.430879 33.62636c.40051-42.06694-8.84582-65.62063-16.85921-77.18663 2.73719-3.61066 4.4253-5.82436 4.5408-5.94123.80921-.80714 2.18908-2.078359 5.05135-2.476809.79347-5.558485 2.86363-12.140777 2.86363-12.140777s-5.54547 3.996123-10.71983 6.230999c.3882 2.795988-.33011 4.497778-1.0402 5.518158-.0984.14763-1.38603 1.868549-3.51633 4.685039-3.46643-4.082239-7.62519-7.837099-13.58825-11.283045-1.43455-.81262-2.97161-1.598586-4.6276-2.349012.10935-2.263582-.67525-4.387739-2.15969-5.906362-.0649-1.299236-1.16459-2.94293-2.48501-3.433646l-.003-.0027c-1.37277-.365649-3.43404.272693-4.44417 1.228837-2.24307.317804-4.40002 1.489918-5.98629 3.260734-4.90372-1.044993-10.481319-1.81524-16.88041-2.211641-.757941-3.109008-2.772738-5.372588-5.256377-6.600745-.641756-1.34571-2.516449-2.707823-4.120494-2.795988h-.01983c-1.608132.08816-3.478722 1.450278-4.12116 2.795988-2.482956 1.228157-4.499118 3.491737-5.255692 6.600745-6.400462.3964-11.978739 1.166647-16.885191 2.21164-1.588329-1.770816-3.735713-2.94293-5.984247-3.260733-1.009447-.956145-3.062516-1.597904-4.443077-1.228841l-.0061.0027c-1.321783.494817-2.42008 2.13441-2.482956 3.433646-1.489911 1.518623-2.266305 3.642781-2.159687 5.906362-1.655987.750426-3.193738 1.536392-4.628972 2.349012-5.96922 3.4521-9.758921 6.68412-13.322403 11.129959-1.931416-2.55883-3.093272-4.105479-3.188271-4.246949-.707404-1.02312-1.429805-2.72012-1.040242-5.516793-5.174361-2.23966-10.7232501-6.232367-10.7232501-6.232367s2.076989 6.582293 2.867051 12.13736c2.8561161.39846 4.2482931 1.669669 5.0574921 2.477489.105935.11072 1.58491 2.04831 4.008405 5.24754-8.0461971 11.48329-17.43331344 35.23859-17.03144784 77.58234.044424 3.91889-1.63753416 40.59478 10.32070184 65.32195 1.348437 2.50348 4.926272 9.15205 11.470257 15.2901 5.416301 5.1122 11.822916 8.70236 19.055812 10.61259.221436.0567.664992.17087.885745.23033 8.986618 2.44675 16.718431 1.04568 19.833573-.76l-.45449 1.11676c-.126439.28841-.305502.74906-.399133 1.00193-1.674441 4.54767-.551541 9.25936 5.591946 9.96468 1.620449.17975 3.436363.25014 5.557775 1.24593 1.496061.7019 3.154781 1.82823 4.980263 3.72137.764093.79622 2.355834 2.84042 3.145899 4.43217v.006-.006c.788694-1.59175 2.378388-3.63595 3.145217-4.43217 1.828899-1.88973 3.491035-3.01947 4.980262-3.72137 2.124831-.99579 3.940744-1.06618 5.558458-1.24593 6.148954-.70532 7.292363-5.40471 5.604254-9.94486-.10047-.26176-.28979-.7347-.41144-1.02995-.1155-.27748-.45586-1.10856-.45586-1.10856 4.268109 2.47476 17.362239 4.39116 29.929429-3.58879 8.60798-5.45802 14.90524-11.65279 19.95317-21.59354 11.95481-24.72513 10.35692-62.12957 10.29882-65.49692"/><path d="m156.61269 191.65224c0 11.12723-1.56167 38.65243-11.06497 57.20327-1.20901 2.37089-4.93243 8.42351-11.05609 14.17472-4.91055 4.62011-11.32879 8.37634-14.74396 9.52318-3.33315 1.1229-4.65973 1.25071-4.65973 1.25071-7.81792 1.29649-12.89181-.33285-18.340929-2.83154-.43739-.92265-2.387266-5.55712-3.225169-7.548.115503-.28226.224851-.56453.302083-.78255.47431.0683 1.007406.14694 1.600626.22417.24126.0335 12.674489 1.88222 21.262649-2.14671-.86455-.6028-2.83151-2.05718-4.58318-3.32224-.0519-.32805-.10935-.65475-.17085-.97186 2.064 1.1598 4.04052 1.34912 5.55503 1.29376.12918-1.35322-.231-3.10626-.93084-5.09988 1.95806.44013 3.46027-.041 3.46027-.041s-1.29718-4.16904-4.09793-9.16026c-3.91546-6.97664-9.39669-13.33409-12.2569-17.18804.22143-.18385.43741-.36019.64243-.52012.2891.27886.52352.42443.71899.52012.14011.0704 1.18031.61236 2.11185.6315 1.09077.0225 1.71955-.17292 2.10432-.71557l.0711-.1319c.80853-.22145 1.36006-.68962 1.56031-1.34093.039-.12849.0513-.25971.0574-.3882.71011.25014 1.16117.35813 1.75577-.14694.76752-.65543-.29251-3.96879-3.90657-7.39833-2.52191-2.39754-4.91533-3.787-7.11876-4.76022-1.706559-.74975-2.701659.71352-1.876059 1.70793.990999 1.19672 1.761239 3.30858.759309 5.51475-1.193289-.38957-1.623179-.55633-1.777639-.62399-.14011-.0649-.48661-.22349-.56658-.26928-.41142-.22349-.6397-.42374-.87959-.74838-.0526-.0738-.1155-.22759-.18658-.42372l1.72706.22826c-.87685-2.68595.50644-6.07176.20777-8.99829.23716.17633.65474.60964.9247.75043.660209-2.2465.256979-5.39446-.17633-9.82047.0417-.68686.984849-1.9123 2.249219-3.11926.0772-.0697.12166-.0991.18658-.15104 1.02585 2.43308 2.70508 5.38899 5.00009 8.21642 1.91159 2.35242 5.37187 4.4841 7.14336 12.05671.006.0171.0123.0321.0198.0526.28841 1.20014.71215 2.32032 1.25685 3.44938 1.15912 2.39069 1.08189 3.7863 1.08189 3.7863l.0109-.0287c-.1237 4.77526.0827 14.65042 1.25686 20.17473 1.02448 4.84906 2.74062 7.30949 2.74062 7.30949l.27406-.23648c.44491 1.64507 1.22131 4.5381 3.10831 6.80372 0 0 1.61771-3.22929 4.55858-27.86419 3.23474-27.11171 4.86749-55.4181 4.86749-55.4181s-.006.0102-.009.0102c.30481-5.01036-.82902-10.86411-2.26289-15.15138-2.64493-6.82969-7.20214-13.43727-10.00427-16.17653-1.58491-1.54801-3.33042-2.00797-5.05065-1.80909 2.91762-3.70977 5.76143-7.32657 6.61779-8.46247 13.50487 23.95692 12.71481 51.75346 12.71481 51.98105l-.0123 2.05376 2.85612-1.54665c10.94332-6.30275 14.27853-9.17187 17.79554-12.01571.14148 2.82197.34925 8.92858.40802 12.66432 0 .16607-.0109 2.13782-.0109 5.7765m-65.568338 86.13842c-.177011-3.58263-.822183-8.3449-1.540484-12.15786.924702.82835 1.636167 1.23226 1.716132 1.23226.109348.006.552906-.48115 1.018332-1.11403 1.893142 4.8559 5.003499 12.84679 5.028099 12.91787-1.37577-1.15776-3.525887-1.99977-6.222079-.87824m5.552309 5.6453c-.1032.20503-.20503.40049-.3465.56178-.63356.75043-1.42499 1.26027-2.547892 1.34707-1.659403.11209-3.851213.28228-6.336215 1.44823-2.26904 1.06482-4.723294 2.82949-7.213766 5.93577-2.491158-3.10628-4.941991-4.87095-7.214445-5.93577-2.484323-1.16595-4.673398-1.33614-6.329385-1.44823-1.132468-.0868-1.932099-.52556-2.55745-1.34707-.124389-.16744-.237156-.35675-.343089-.56178-1.063441-2.36952 2.059218-5.76217 7.201459-2.36269-.151042-3.28261 1.06139-12.17973 1.880839-17.71772.207769.58639.433306 1.17827.699165 1.76467.596648 1.30333 1.528184 2.66271 1.707244 2.64562.153775-.0205 2.599828-1.74758 4.191569-5.13611 1.58491 3.44662 4.076071 5.20241 4.229845 5.21676.180429.0232 1.110598-1.34092 1.703829-2.63607.503698-1.10444.888478-2.22872 1.18441-3.28122.166761.25697.334204.50164.503698.72855.09295.14831.189999.29388.282263.43125.863875 5.27622 2.262887 14.53558 2.102275 17.98427 5.140876-3.39948 8.267636-.007 7.202146 2.36269m-28.554323-17.02198c.209815.26998.408698.44151.556322.45108.08953.006.975277-.50029 2.062639-1.54938-.711469 4.30983-1.24182 9.20126-1.395597 12.47498-2.695505-1.12153-4.846308-.27952-6.224815.87825.02461-.0711 2.926511-7.19126 5.001451-12.25493m-26.392596 6.48456c-.349923-.10866-1.045669-.34513-1.395594-.45585-6.013631-1.9246-11.434718-5.04112-16.085561-9.41519-6.1263-5.75186-9.51482-12.01703-10.782611-14.35785-9.0693144-18.76886-11.0656571-46.08014-11.0656571-57.20395 0-3.64483-.013669-5.661 0-5.82776 0 0 .2884139-9.58947.429887-12.41349 3.389204 2.81514 7.9040411 6.38615 18.3286261 12.2973l2.319613 1.23977-.01504-2.97231c0-.22759-.331471-28.0624 12.913693-51.39396 1.839152 2.43649 3.989952 5.14772 5.850289 7.61908-.0027 0 .584347.78392 1.110599 1.48992-1.880841-.36018-3.825927.028-5.571443 1.73186-2.799392 2.73858-7.355919 9.34615-10.000852 16.17517-1.437284 4.28795-2.566335 10.14169-2.264253 15.15137l-.0075-.01s1.634115 28.3064 4.866128 55.42152c2.938814 24.63081 4.55926 27.85941 4.55926 27.85941 1.884261-2.26493 2.660652-5.15319 3.110358-6.80304l.269963.23785s1.720231-2.46248 2.746079-7.31154c1.169378-5.51884 1.380561-15.39741 1.255491-20.17061l.0096.0294s-.07723-1.39902 1.078477-3.78972c.548122-1.13042.96844-2.24991 1.261639-3.45073.0027-.0198.01503-.0314.01844-.0519 1.774223-7.5733 5.234507-9.70361 7.141317-12.0574 2.489789-3.06459 3.966716-5.68902 4.799833-7.84257 1.066174 1.07506 1.836419 2.03463 1.875373 2.58274-.225534 2.12485-.299347 6.46406.25356 9.20469.2973-.10252.836535-.45517 1.034051-.59801-.781177 3.00785.406651 7.64847-.363591 9.5464l1.504945-.17359c-.06288.17359-.121654.30755-.169495.37453-.539237.70327-1.021066.84132-1.427715 1.00125-.151041.0629-.556326.23032-1.596528.57546-1.013548-2.21505-.243306-4.33306.752473-5.52978.826968-.99851-.17428-2.46178-1.878107-1.71135-2.204109.97323-4.595486 2.36268-7.118763 4.76364-3.616791 3.43022-4.674763 6.74221-3.904521 7.39491.539238.46133.962291.4128 1.561672.21733.0034.13191.01709.26928.06151.40392.198884.64859.747007 1.11675 1.552787 1.3382l.07381.1319c.388196.53992 1.008079.76067 2.102958.71557.52557-.0191 1.1229-.18317 2.117996-.6315.224853-.10389.494816-.28296.841323-.65202.320535.24672.660891.52285 1.013548.83177-.06493.0772-.436038.48045-.512584.56383-.136005.14489-1.336135 1.43251-1.664189 2.97232-3.119243 3.89566-6.770205 8.60736-9.385751 13.27053-2.795971 4.99053-4.095884 9.15821-4.095884 9.15821s1.498794.4825 3.456182.0396c-.695749 1.99565-1.057975 3.74802-.927435 5.09988 1.51178.0567 3.48967-.13121 5.552306-1.29035-.03554.1736-.06356.34992-.09226.52693-2.6545 1.71-4.612571 3.31747-5.655506 4.05217 8.582017 4.02757 20.404931 2.20549 21.201144 2.12826 1.18988-.12165 2.387958-.29525 3.568267-.49413.103201.36018.218704.71831.340355 1.08053-.873441 2.08383-2.595722 6.1982-2.971619 7.21858l-.07723.19889c-7.417426 3.70975-14.965392 4.16562-21.903727 1.96354" fill="#ee343f"/><path d="m14.268193 117.23563c5.054076 1.08464 8.264901 1.00604 10.151892.95478 1.295128 2.75156 2.316879 5.32816 2.236232 10.03165 2.063322-.61441 3.449346-1.41131 4.541491-2.55404 1.449587 1.92664 2.124148 2.81445 3.638661 4.82788-13.299155 23.72933-13.470016 45.96944-13.709905 52.1478-10.347357-5.88585-16.8865582-11.44093-18.1960388-12.53786 1.2384024-21.95237 4.6276057-38.51915 11.3376678-52.87021m4.224374-8.00523s1.324516 1.70793 1.378508 1.77149c-.4128.8222-.895312 1.70042-1.550053 2.61898-1.288977 1.80978-3.374851 3.11927-3.991318 3.4849 1.266423-2.70167 2.65245-5.32405 4.162863-7.87537m-10.8510551-18.636275s2.8082741 1.994303 6.8699881 3.880616c-.403233 2.18157.962973 4.91605 1.492644 5.581039.215969.26518 2.441948 3.16095 5.744355 7.48582-.192732.24193-.406651.55564-.631503.95819-7.095526-9.429539-13.4754841-17.905665-13.4754841-17.905665m33.3924381.125071c-.824236-2.45563-.0096-4.544248 1.4448-6.020497 0-1.001252.593232-1.871282 1.215166-2.208223.725818-.08953 1.816596.249459 2.551299 1.014922 2.19181.320537 4.345343 1.456429 5.524287 3.786305 5.62817-1.360746 11.97669-2.259481 20.085764-2.683219.189313-3.728212 2.359936-6.033484 5.020587-7.348439.548123-1.306753 1.677173-2.035309 2.63673-2.266315.960241.231006 2.090658.959562 2.638781 2.266315 2.660654 1.314955 4.829226 3.620227 5.021958 7.348439 8.104289.423738 14.455538 1.322473 20.084398 2.683219 1.17416-2.329876 3.32427-3.465768 5.5195-3.786305.73812-.765463 1.83027-1.098302 2.54788-1.008087.006 0 .0109 0 .0205.0062.62194.333524 1.20014 1.193984 1.20014 2.195236 1.45711 1.47625 2.27177 3.564868 1.44344 6.020498 7.58623 3.132245 14.68312 8.197276 19.75018 14.468605-.35949.47431-.73197.96503-1.12358 1.48171-5.42382-6.950669-12.89182-12.105239-21.62351-15.385786.68549-1.02654 1.66281-3.311992-.88575-5.801795-.008-.0041-.0164-.0041-.0164-.0041-3.77124.475681-4.71372 2.750882-4.94814 3.929146-6.80711-1.842576-14.868348-2.972317-23.874104-3.296955-.319167-6.209129-4.724657-7.707933-4.724657-7.707933s-.07723-1.168013-1.019701-1.56988c0 0-.01982-.0034-.01982 0-.943153.401867-1.0197 1.56988-1.0197 1.56988s-4.404119 1.498804-4.724655 7.707933c-9.005755.324638-17.069722 1.454379-23.877518 3.296955-.233736-1.178264-1.178258-3.453465-4.949506-3.929145-.0061 0-.0123 0-.01503.0068-2.551301 2.49117-1.57329 4.772521-.883013 5.799061-8.735792 3.2826-15.972789 8.24512-21.393876 15.193049-.377257-.50024-.740849-.98207-1.087356-1.4434 5.068417-6.315749 11.846141-11.162762 19.480906-14.314144m102.57552 9.050175c.53035-.66021 1.90271-3.39537 1.49879-5.577622 4.06239-1.887001 6.8741-3.883355 6.8741-3.883355s-6.66291 8.847917-13.9416 18.517346c-.0957-.17222-.49413-.86934-.5864-1.02038 3.53068-4.63447 5.93367-7.75987 6.15511-8.035989m.93973 17.227009c-3.15137-1.64848-4.34534-3.73847-5.45457-5.75055 0 0 .88096-1.16869 1.28966-1.70793 1.52203 2.41395 2.90806 4.89828 4.16491 7.45848m-30.69966 22.83128c.026-.41622 2.82399-4.32622 4.60915-6.74564 2.39412-3.24775 4.90031-6.6069 7.36208-9.89086.18589.31096.45243.64791.70531.94999-3.5751 4.75544-6.23302 8.29843-6.77841 9.04954-1.3416 1.83027-5.93982 7.34639-5.89813 6.63697m-36.920379 118.98906c.610315-.37863 1.348437-.97118 1.791993-1.33409-.699848 4.35699-3.048849 6.26721-3.048849 6.26721-.443555-.77502-1.098297-2.308-1.470772-3.49104.686862-.33147 1.655987-.82014 2.727628-1.44208m-16.411564-6.95135c1.833001-.7887 4.206604-1.63754 5.805865-2.78916.865925-.62603 1.502212-1.10581 2.301159-1.81865 1.193977 1.17963 2.776155 2.74336 4.390452 4.29342-1.666923 1.41816-3.077553 2.52876-3.90042 2.97232-4.354913 2.36746-16.844869 5.19899-16.844869 5.19899s9.575748-.72855 16.855804-3.66875c1.15502-.46542 2.974352-1.76876 5.018534-3.42475 1.29718 1.22541 2.541732 2.37225 3.555281 3.24296-3.901788 2.76522-8.573815 4.60165-14.652377 5.35891-4.756775.59597-14.942839.4586-18.608837-.96434 1.373724-1.11677 7.195307-4.83266 16.079408-8.40095m-5.546155-85.90743c5.218103 5.67126 4.461529 18.84542 3.806788 20.90054-.75179-9.85053-2.458352-15.8068-3.806788-20.90054m-4.659729-3.08918c-.420318-.99374-.95614-2.03805-1.238401-3.163-.411435-1.62934-.449706-3.78904-.180429-5.51271.725816 1.68812 1.599261 5.32203 1.41883 8.67571m3.267551 6.57751c-1.284877-4.55041-2.031881-7.29103-2.035299-11.0295 1.178944 1.3095 2.18019 6.21871 2.035299 11.0295m-20.343422-46.72396c2.640147 3.52318 5.345222 7.15023 7.925911 10.64608 1.78174 2.41599 4.582498 6.32463 4.608469 6.74768.04169.70669-4.556526-4.81011-5.894712-6.63969-.578195-.78735-3.472585-4.64335-7.305344-9.7494.192731-.29868.417584-.63834.665676-1.00467m3.115142-8.97983c-4.870913-.0964-2.73788 8.85202-7.972386 11.62409.03896-4.27976-1.386027-6.5782-2.512343-9.09466h-.01504c-.59528.0868-1.261639.22077-2.085873.3144-.553591.0636-1.175526.11004-1.895194.11209-1.075058 0-2.364719-.0991-3.958512-.38411 4.476564-3.02084 3.070034-6.43535 7.421529-10.20046 2.443316-1.74212 3.441828-.87209 3.832759-.43946.0034 0 .0096.01.01572.0157.446291.49686 4.428723 4.9714 7.169339 8.05238m84.783397-1.07848c-.86593 1.02039-1.14272 1.86787-.64244 3.38922-9.65571-6.47567-21.065819-9.75487-40.48181-9.93939l-.885745.0102c-19.759077.12438-30.847288 3.38922-40.591162 9.92914.498231-1.52135.224852-2.36883-.642439-3.38923-1.641636-1.92663-7.99904-9.05022-7.99904-9.05022 2.814426-2.77821 7.303294-5.862609 12.67927-8.221869 14.030445-6.152396 31.836921-6.180417 36.926535-6.180417.0062 0 .0123-.01025.01503-.01299.0061.0027.01093.01299.01368.01299 5.093035 0 22.898141.02802 36.929951 6.180427 5.37119 2.35926 9.85869 5.443669 12.67653 8.221879 0 0-6.35808 7.12359-7.99835 9.05022m1.36005 1.06687c2.76659-3.10764 6.97045-7.62523 7.36685-8.05649.22007-.24331.63151-.62877 1.3833-.60417.5864.0171 1.37509.28363 2.44467 1.04363.42374.3629.79007.72581 1.11061 1.0819 2.99485 3.33864 2.11799 6.39297 6.16194 9.11856-4.26266.76683-6.34853.17566-7.93958-.0554-.006.006-.006.0198-.0123.026-1.12494 2.51236-2.57111 4.82925-2.52942 9.10764l-.0417-.026c-.31097-.16676-.5946-.35266-.85773-.55838-1.88289-1.50769-2.57317-4.00227-3.21561-6.23852-.73128-2.61898-1.39217-4.89759-3.87103-4.83881m-19.03667-.12917c-6.064889-1.7715-13.530159-2.40711-16.963786-2.24992-3.056364.13806-3.495136 1.8706-3.132911 2.82128-1.668293.12166-3.529315-1.24456-3.857367-1.84872-.436038.80236-2.47407 1.98678-3.83891 1.84872.360175-.95068-.07723-2.68322-3.131545-2.82128-3.437045-.15719-10.898898.47842-16.968572 2.24992-7.320378 2.14055-14.190366 5.98223-19.344909 10.83061-.426471-.56042-.850207-1.12291-1.270524-1.67718 5.734786-5.15458 13.953212-9.84098 23.482484-11.90363 6.328017-1.36758 11.367056-1.4865 14.540292-1.44481 2.609394.0355 4.282465 1.04295 4.282465 2.67024 1.306066-.20504 2.094759-1.86445 2.25537-2.71808.206401.37932.642439 2.41941 2.25947 2.71808 0-1.62729 1.674442-2.6347 4.287254-2.67024 3.171867-.0417 8.208856.0772 14.532769 1.44481 9.34748 2.02096 17.86935 7.15297 23.61644 12.23032-.42032.55838-.84679 1.12359-1.27668 1.68811-5.14497-4.73971-12.32046-9.07825-19.47134-11.16823m-38.562024 78.01496c-1.768754-1.01628-3.081653-3.59152-3.075502-5.44571 1.200129 1.68538 2.024365 2.61282 3.075502 5.44571m17.56727 19.97173c-1.836416 1.08806-2.246483 1.63071-2.246483 1.63071s.288412-1.47693 1.813178-2.99487c.622618-.6192 1.576028-1.78107 1.973109-2.59642 0 .0205-.06424.87413-.340355 1.65326.841322-.74223 1.38671-1.34434 2.053751-2.41053-.602113 1.82071-1.315629 3.57513-3.2532 4.71785m4.203874 14.46383c-.263809-.08-.491397-.1408-.70258-.14695-.222122-.0102-.446974.0417-.645858.1408-.0704.0355-.133272.0738-.204349.11892h-.0034c-.129171-.48048-.503697-1.73323-1.338184-3.70635 1.232252 1.1065 2.653817 2.9812 3.183488 3.69405-.09705-.0328-.282946-.0957-.289098-.10047m.699165 14.56907 3.350246 3.09806c-.37863.41828-.859091.95137-1.437284 1.57604-.982793-.97802-2.215046-2.22462-3.324277-3.30789.878228-.84748 1.411315-1.36621 1.411315-1.36621m-6.405251-5.88723 5.119006 4.70896s-.523517.50917-1.383291 1.33751c-1.309481-1.276-3.305828-3.35984-4.788221-4.92288.474996-.50644.842687-.89327 1.052506-1.12359m-.734703-.87823s-.767509.82013-.831753.89121c-.0062-.3014-.02461-.92743-.03554-1.71956.215286.24947.867292.82835.867292.82835m-.818085-8.31006c.602116.86116 1.0197 3.14866 1.273942 4.97072-.02323.0267-.04921.0513-.07108.0738-.414168.42716-1.2138 1.3833-1.26779 1.4578-.03827-2.43307-.05809-5.64528.06493-6.50234m3.735715 2.44744c-.399133.39913-.809205.81672-1.187831 1.20492-.0034.003-.0061.003-.0061.009-.05878-1.07029-.24194-4.38706-.48183-5.80795 1.131784 1.46395 1.594482 4.09522 1.675812 4.59414m-3.264138-7.07848c.291148-.36496.805783-.87344 1.179626-1.21243.87071-.80647 1.024485-1.42636 1.024485-1.42636.04511.39299.115502.97323-.243308 1.64985-.334202.63013-.89668 1.07574-1.566455 1.47967-.750422.45654-1.078477.59117-1.078477.59117s.224855-.51736.684129-1.0819m-5.100549-13.38191c.603481 2.35516 3.216291 2.63127 3.203991 5.00626-1.19398-1.64301-3.497872-1.69427-3.203991-5.00626m2.849965 8.7536c-1.437284-.94315-2.525329-1.87675-2.894389-2.37771-.407333-.55428-.602798-1.30949-.578195-2.32032 0 0 .03896.39778.885745 1.37442 1.297178 1.49744 3.466433 2.11049 4.191568 3.62639.115501.25287.174278.48661.192733.68891.03212-.24946.1155-.54539.328052-.91446.416218-.71898 2.776154-2.17882 3.78082-2.75976 1.187144-.68687 1.718866-1.54732 1.718866-1.54732s-.237155 1.0853-.8092 1.87059c-.57751.79963-3.573737 2.59027-4.067867 2.9566-.767509.56794-.976643 1.06276-.976643 1.06276.0075-.0164.0075-.0321.0075-.0485-.01093.0253-.01368.0485-.01368.0485s-.305499-.70053-1.765338-1.6601m-.955455 2.267c1.373041.60212 1.630016 2.43854 1.630016 2.43854s-1.566456-1.11059-1.630016-2.43854m-.231006 10.78893c.195465-.88712.492764-1.8419.949305-2.4905.09705.68687.167444 2.25607.212552 3.69746-.112767-.11619-1.042935-1.08463-1.161857-1.20696m-3.1582-7.05388c-.360175.7723-.860457 2.45153-1.168689 3.53957h-.0062c-.06493.01-.278845.0513-.403915.0806-.546757.13739-1.560307.59051-1.95807.73813.533086-.73813 3.214926-4.44857 3.536826-4.35835m2.130983.45176c.207768.35744-.320536 3.97698-.485246 5.06845-.151041-.15104-.921284-.90489-.927435-.90899.01709-.2187.18658-1.81661 1.412681-4.15946m-2.141233-16.54971c-.490032-.31438-.785963-.75794-.913767-1.20082-.1155-.38545-.298665-1.34434-.212552-1.73937 0 0 .03212.19272.320536.53923.340358.40461 1.039519.94454 1.252071 1.37442.397767.8051.385464 1.4366.385464 1.4366s-.295932-.069-.831752-.41006m-.09568 24.90761c-.07723-.093-.539238-.56181-.616467-.65066-.07996-.0943-.330787-.11277-.485244.0601-.144208.17701-3.459599 3.25664-3.459599 3.25664l-4.550377 4.05352-2.862268 2.53834c-.408017-.41623-.356075-.33285-.468159-.46065-.423735-.46817-.340355-.80306 1.129052-2.18294.405281-.40391 7.40034-7.38808 7.40034-7.38808.725819-.82149.192732-1.09077-.637652-1.09761-2.741981-.0321-3.335213.0191-4.451962-.20435.05878-.25561.109352-.49482.141475-.71011.03554-.23442.06356-.48456.08953-.74427.08338.0219.159927.0506.237156.067.905565.21186 2.600509.72514 4.90782.31438 1.100347-.22417 1.158438-.24741 2.012061-.4996.782545-.22827 2.028465 1.06413 2.994172 2.09204.824235.87822 1.923215 2.12757 2.409828 2.64289.0827.0841.0704.18043-.02188.26518-.888478.80169-11.57004 10.57022-12.230931 11.17438-.172912.15514-.288415.16881-.507115-.0437-.479097-.48934-1.184411-1.24183-1.865123-1.928 0 0 10.562642-9.9394 10.72872-10.09523.160609-.16402.183845-.36905.106616-.45926m15.734275-.68893s6.98754 6.98962 7.40171 7.38397c1.44343 1.40176 1.55005 1.7141 1.12632 2.18431-.11278.1278-.0615.0396-.46544.46202l-2.863625-2.54107-4.556527-4.05421s-3.311974-3.07962-3.460282-3.25391c-.150359-.17633-.403234-.15719-.480462-.0629-.07996.0923-.541972.56112-.615785.65475-.0745.0847-.05604.29182.109351.4538.163345.15788 10.72462 10.09727 10.72462 10.09727-.6814.69096-1.386711 1.44208-1.867173 1.92732-.218703.21666-.334203.20094-.500964.0458-.664992-.6021-11.348606-10.37474-12.237085-11.17437-.0909-.082-.09978-.17975-.01982-.26928.491397-.50986 1.581495-1.75852 2.410514-2.63811.969126-1.02654 2.213677-2.32031 2.991439-2.09341.859774.25083.910349.27748 2.014794.50165 2.307993.41212 4.00567-.10251 4.903719-.31438.02323-.003.04169-.013.06151-.0164.02188.21187.04784.42101.07381.61032.03896.24741.0991.52694.172912.82493-1.016965.18522-1.685375.14079-4.28725.17291-.83517.006-1.360055.27612-.636286 1.09898m-1.609498-33.2238c-.559741 1.95671-1.137254 4.54357-3.011942 6.50164-.465426-1.49948-1.078477-2.04761-1.078477-2.04761.0034-.003-.830389 5.43069-2.983925 7.08736-.538553-3.68242-1.63685-4.73151-1.681955-4.98166-.115504 1.194-.551542 1.04911-.46201 3.96675-.766826-.36633-1.597211-1.76535-2.266304-3.17188-.569993-1.19399-.654741-2.69211-1.013548-3.86696-.28773 1.3703-.654742 2.22804-.539239 3.24501-2.124146-2.04761-1.905445-5.74507-2.277923-6.93905-.1155.39229-.600746 1.04021-.551539 2.14465-1.368257-1.19397-2.233498-3.05501-2.491157-4.70554-.487979.34104-.667043.62947-.975275 1.30949-1.655987-2.81034-4.852461-11.45049-5.9118-17.59265-.3055.10867-.562475.25016-.912398.4012-.224854-1.64985-1.487861-10.03577-1.658723-12.99169-.224851-5.5161.330788-8.87321 2.115264-12.1148 1.601994-2.90192 5.847556-6.76614 10.282428-10.78003-.276112.5536-.590496 1.65326-.969123 2.27792 1.264372-.48455 2.381121-2.27518 4.072647-3.2573-.09363.59049-.09363.59049-.13532 1.21927 2.571119-1.5569 3.361181-2.78916 3.938691-3.33113 1.774907.35402 2.688674 0 3.484887-.71216-.494815-.0889-1.970372-.19615-2.239649-.693 1.51383-.20299 2.636733-.64246 3.148635-1.18443-.399132.0349-1.351177-.99851-2.698929-.99851.335572.67729.335572.67729.474311 1.05319-3.934593-.16744-5.912482-3.44047-9.551143-4.00912 1.363471.68415 2.841081 2.95593 4.583181 4.31051-3.690602.73472-3.954413-2.99213-7.414011-2.19523-.205032-.34651.04579-.93086-.196147-1.07848-.528304.12165-.772978.36564-1.312214.30482-.506434-.0417-.448342-.6069.07723-.75657.481826-.13874 1.809762-.52354 2.227345-.67731-1.173474.0567-2.050333-.17428-2.994854-.16745-.651323 0-2.530798.1736-2.604611.58709-.2064 1.18578-1.211064.73129-1.351171.61374-.09363-.5406.265177-1.81661.660894-2.41667.442187-.66157.833119-1.0245 1.277358-1.30334.218702-.11892.515999 1.03679 1.729799 1.2138-.915132-1.31222-.829018-1.80089-.346506-2.15217.124385-.0923.326002-.23853.79143-.40665.671825-.2399 1.422247-.39709 1.617713-.6281 2.772736-3.27987 8.711188-3.14591 13.004591-2.29844 2.099545.62194 3.37622 1.98405 3.90179 2.80488-.993728.0314-1.578758-.22485-2.323028-.0909 4.197718 1.59311 4.756775 3.86216 6.384057 5.35071-1.152287-.20229-1.845983-.2269-2.247848.041 1.222682.93838 1.631381 1.63139 2.703706 2.64632-.947938.0451-1.229516-.12302-1.987457-.16745 1.655987 1.04294 2.407777 3.04203 3.996103 6.13601.631503 1.22541 1.902027 4.60233 2.364719 6.00135.29525-.41348.899415-.69985.899415-.69985 1.66829 2.64427 2.15216 4.1916 3.19647 7.07301 1.04567 2.88278 1.11675 7.93279 1.0197 10.3727-.1155 2.84382-.48047 6.90966-.84748 9.43842-.19204-.22759-.64243-.22759-.89804-.30482-.52694 5.53662-1.73868 9.53275-2.30732 10.55586-.793467-.39776-.177-.24398-.876847-.5488-.224855 2.3907-2.32918 9.41314-3.38852 10.70007-.172912-.73882-.764091-1.11675-1.090778-1.51452-.610318 5.23179-2.278606 6.79347-2.275191 6.81603.163345-.66773.112086-2.00865-.07996-3.38854m-32.467057-.84737c-.140106-4.12119-2.503457-10.84153-4.210019-13.6389 2.823992 10.61533 3.992684 16.03645.84747 20.13098.541972-3.97016-1.075741-10.0132-3.286003-14.95179 1.463255 8.29568 3.567581 15.53273-.308235 19.17277.563842-5.43-1.501527-12.64585-2.63263-15.1999 1.267791 8.00388 2.375655 15.73163-.207765 19.58695v-.003c-.0096-.33146-.02598-.67182-.04784-1.02174-.18658-2.45153-.523519-4.89076-1.010815-7.30401-.677295-3.50132-1.27531-5.51407-1.518613-6.27202-.03212-.0574-.183165-.55769-.183165-.55769-.0034-.0123.802365 5.56532 1.243187 12.37588.231003 3.65168 0 7.11402-1.294445 10.56475-.08612.17223-.172229.33353-.253559.46543-.712151-9.03792-1.75167-16.84632-2.957948-20.46245 0 0 1.032 8.45563 1.712711 21.40629.02666.46406.04511.91993.06493 1.36963.850207 18.60757-1.662139 24.57066-2.446049 26.34489 0 0 .167443-.34991.241939-2.73994.06288-2.00661.07997-1.86104-.154458-4.15673-.06766-.6609 1.659403-4.08224 1.414045-8.68049-.5283-10.12597-1.386026-20.51711-3.581249-30.49273-.08338-.37795-.16676-.74359-.249458-1.07848.0061.0656.07655.99647.101833 1.36143.620568 7.7667 1.290345 15.53341 1.839151 23.31037.304817 4.35425.509848 7.86035.455858 8.97094-.183164 3.73369-1.25549 5.37055-1.241819 5.93576.213917 7.25276-.509851 10.18543-1.771491 12.91444 0 0-.745638-2.58685-1.323148-5.83664.12302.18795.360175.53308.728552.64995.915132-2.36131 1.377142-6.48934.77366-10.73425-.107986-.7593 1.014915-1.71818.931534-5.13611-.129171-5.32064-.757939-10.69596-1.501527-15.97628-.234422-1.76672-.482512-3.50063-.725818-5.1252-.401866-2.72695-.82902-5.46142-1.386711-8.17061-.05809-.27748-.109351-.53309-.159925-.75795-.0027.0171.107983 1.95535.172911 2.84041.55564 7.16392 2.200692 25.45026 2.227346 26.90054.06151 3.57921-.906247 4.65701-.847471 5.30491.231004 2.58208.141473 7.36349-.231006 8.54654-.340355-1.06003-.545388-3.01606-.545388-3.01606-1.582176-11.85305-2.914892-23.7389-3.954412-35.64525-.436039-4.96936-.93632-10.57843-1.357322-15.52796-.0027-.0123-.0027-.0294-.0027-.0417-.360861-4.249-.660891-8.00728-.811933-10.42737.220069-.16334.397765-.28841.397765-.28841s.908298 9.93255 3.565531 13.42907c.708734-.65542 1.565772-4.37201 1.514515-5.61726.58708 1.96697 3.003739 4.62216 3.003739 4.62216s.827654-1.96423.72582-5.21335c.811931 1.1687 1.514515 2.07359 2.734464 2.71534.486613-1.10992 1.084626-2.39411 1.025851-5.48193.449707.56863 1.165956 1.29718 2.253318 1.93279.314384-.75112 2.098174-3.56555-1.110598-13.94713 1.277357 9.58947.518051 10.6987.263809 11.47577-.539238-.231-1.081893-.62876-1.472825-.95272-.126436-1.75305-.426469-3.96947-.98621-6.84542.474993 7.62796-.121654 10.02482-.711467 11.49629-.757939-.53309-1.817962-1.94578-3.216292-5.25777.314384 2.52193.310968 4.67205-.323953 6.99715-1.21038-1.56715-1.999076-3.03657-2.888237-5.77856-.0027 2.19387-.651324 4.63515-1.119484 5.62137-1.595843-2.31416-2.497307-11.59266-2.497307-11.59266s-.05262.22075-.867293.50985c-.859774-3.31882-.385461-10.12939.321903-13.33066 1.229519-5.64256 3.439778-12.48456 10.339839-20.61759 3.54913-4.18066 6.546721-2.2916 9.544308.97664 4.832639 5.25914 5.86601 7.58902 11.653421 8.6511.06629.0109.08065.013.02188.003.57751.10593.147624.38478-.988945.36564-6.973872-.11823-9.152011-4.73288-11.237885-7.04773-1.386026-1.53776-3.171867-2.92378-4.662463-2.05375-.562473.32394-2.455616 2.53901-.491397 7.98882.0062-1.24661.474311-2.32304.717618-2.60667.911716 3.62023 2.125513 6.52147 3.581251 8.99213.189999-.60894.315752-1.15844.444242-1.93075.686861 4.40894 4.636488 8.99761 5.205116 15.30175.404598-.68141.770242-1.13249.796214-2.74747 2.977767 5.49698 6.071039 15.36392 4.153294 20.31756.07655-5.03565-3.014676-12.26654-4.615304-14.56018 2.046917 6.46336 4.425305 14.46723 2.373604 19.27529m1.958071 23.04247-2.458352.64859c-.259026.0772-.545391.14831-.850207.21529-.395031-1.0819-.590496-2.19524-.545387-3.29627.04716-1.24593-2.788458 1.37441-4.669297 3.26756-.796896.80236-.944522.45449-.488664-.16744 1.884258-2.59643 5.619968-5.03839 6.682726-5.69518 1.80361-1.12086 2.707807-.85158 2.088607.14284-.708732 1.13726-.541971 2.96548.240574 4.88461m.642438 4.50597c-.237158-.41417-.453125-.53924-1.084628-.55154-.577511-.013-4.63034.1155-4.525772 1.0819.01368.0861.118236.22622.24809.27885.335572.1401.888478.34036.965707.2064-.08611.14011-.423735.41279-.899413.63423-.406649.18658-2.053752.65476-2.566337-.11208l-.163342-.34651c-.293198 0-1.095563-.12917-1.261638-.67729-.160612-.51396.509848-1.22953 1.206278-1.57809 2.111845-1.06002 4.380883-1.53844 6.646504-2.13236 1.837782-.48114 4.338507-.8919 5.516768-2.50347.323268-.43536.628085-1.60063.971859-2.86501-.426472.24945-1.190563.68959-2.088608.81739.07996-.42919.163342-1.84872.08885-2.60257-.451075-4.765.423735-7.62865.423735-7.62865s-1.356637.71283-1.481707.85362c-.160612-.81466-.310968-2.55746-.151042-4.5538.109352-1.3587.497548-3.61681.939735-5.55849.0062-.0868.0062-.17975-.06356-.24741l-.04101-.0444-.106618-.0191c-.14489-.006-.308235.0957-.63902.30755-.183165.11003-.414851.25356-.684129.4046.392981-.85978.470209-2.15355.559058-3.61407.08953-1.47557.186581-3.12541.639703-4.6085.249458.73265.765459 1.40585 1.298545 2.10571.757942 1.00125 1.54322 2.02847 1.759188 3.40151l.04443.26928.209815-.19205c.361544-.33966.81125-.82149 1.099665-1.36074.487979 1.84804 2.439898 4.57023 3.542978 5.94463.933584-.80304 1.045669-1.48991 1.045669-1.48991s.725819 1.27122 1.133836 2.56499c.256292.79826 1.466673 3.03861 2.050336 8.7577.50985 4.94543-.275428 7.56235-.275428 7.56235l-1.315632-1.42566s-.05536 1.37304.109352 2.96479c.127803 1.23568.525568 2.2014.525568 2.2014s-1.739368.29182-3.481469-.93428c-.58708-.32941-1.08121-.79964-1.466673-1.25823l-.429887 1.14683c-.334204.95273-.577511 2.06947.172229 2.65794.110034.0888 1.363474 1.18645 1.200812 2.27246-.05468.37726-.263809.73676-.725819 1.05797l-.04511.0314-.0062.0581c-.04784.60348-.500281.93155-.808516 1.08123.106618-.5003.05058-.82426-.02598-1.02382-.269961-.7019-.776394-.88506-1.147504-.91377-.29935-.0225-.604166.0738-.604166.0738s-.317117 3.0099-.577511 4.24831c-.231006 1.08531-.513267 2.4905-.674561 4.0508-.03895.34718-.06971.69234-.107985 1.0409-.123702 1.02585-.719666 1.12358-1.246602 1.20559-.28773.0458-.981428 0-1.282826-.0253l-.04511.0191.06971.028c.777762.21597.718985.52694.70053.62947-.08475.45926-.35744 1.0238-.07039 1.97993l-.10935.11004c-1.181676-.64995-1.178261-1.73322-1.046356-2.69279l.0096-.08-.07381-.0458c-.891894-.52421-.681392-2.31757.609634-5.05479.604167-1.28351.818083-3.3728.455858-3.62978-.76409-.27271-1.931417 1.94509-2.310728 2.41393-.417585.51259-.917867 1.07849-1.024485 1.75168-.14489.90488.745639.79896 1.365524.70669-.28978.29593-1.374409 1.54664-1.708612 1.16186-.80578-.94316-.07108.57751-1.502213.73196-.917865.0472-1.591059-.57272-1.630015-1.69563.01299-1.55211.818083-2.76932 1.839834-3.86284 2.396842-2.64495 2.197959-3.22861 2.050335-3.48627m-4.710986 24.37723c-3.512223 4.72468-7.260236 6.77845-8.697521 6.80853.500965-2.62308 1.309481-3.12953 1.309481-3.12953s1.911594-1.57944 3.812939-4.17859c1.629334-2.23078 3.578517-5.56533 5.371194-9.98041-2.1303 2.66888-5.501048 7.66625-6.793442 9.0181-2.778888 2.9074-3.969449 3.23341-6.101797 3.36463.681393-1.98951 1.442068-3.86627 4.680229-9.02631 2.612813-4.15946 4.434875-6.77503 6.380642-8.82537.01844.0472.03554.0957.05673.14353.346507.70327.35881.66841.829019 1.05661.397081.33284.930168.48115 1.508364.48115.04716 0 .095 0 .207767-.006.580927-.0519 1.060023-.2891 1.406529-.66089.340356.0376.689596-.0615 1.022434-.26383-.115504 1.0081.07108 1.77971.54539 2.3046 0 .63424.142154 1.95125 1.193977 2.91355-.02461.0314-.03076.0444-.04169.0588-.779127 1.20013-.394349 1.86308-.06629 2.25538.294564.34719 3.670781 4.09659 4.422571 4.77184.895313.80305 1.848719-.10867 1.848719-.10867l.557691-.46201s1.66829 1.68128 1.637535 1.64643c-.298667.27952-.526937.4907-.64859.58092-.632871.46202-1.353904 1.08191-2.953164 1.7961-.962292.45792-2.959319 1.17896-5.257742 2.08111l-1.102398.44492c1.558939-3.44662 1.886991-5.19625 2.059219-5.83391-.545389.81399-2.272454 3.9059-3.721358 6.51804-1.471458.6281-2.947013 1.30334-4.278365 2.02575-.340355.16266-.67456.32941-1.001247.49823l-2.022314 1.11881.369744-.20503c.107984-.51259.205033-.83176.205033-.83176s1.818646-1.81729 3.029714-3.55188c2.474067-3.54778 4.056244-7.21244 4.829219-9.67969-2.78162 4.20389-3.501287 5.37737-4.598216 6.85704m31.55329 11.9747c-.378628 2.54448-1.181678 3.52727-1.181678 3.52727-.531039-.4374-2.631264-3.06185-2.65382-5.65212.831752.5823 2.064004 1.35187 3.835498 2.12485m-5.352744-5.62506c-6.037554-4.90716-9.750026-9.08235-11.470258-10.97551l3.352982-3.10148s13.867786 13.66555 18.24525 15.43705c7.272544 2.94019 16.853063 3.66601 16.853063 3.66601s-12.494736-2.83153-16.846912-5.20104c-3.417908-1.8535-16.963109-15.07551-16.963109-15.07551l5.115585-4.71169c1.360057 1.48582 9.059752 9.51155 11.989681 12.20775.974591.89943 1.662139 1.42568 2.651081 2.13442 1.597213 1.15298 3.972865 1.99977 5.801085 2.79188 8.890239 3.56693 14.708419 7.28145 16.079409 8.39822-3.6619 1.42635-13.848649 1.56032-18.607479.96366-6.89664-.86114-11.990355-3.10559-16.200378-6.53376m31.129547-6.72308c-.37795-.51738-.66089-.90217.0554.0806.95614 1.30128.54197.73059.0957.12644 1.86511 2.51713 3.59833 3.96672 3.59833 3.96672s.93017.58846 1.43113 3.21017c-1.4407-.0328-5.18666-2.08385-8.69752-6.80306-1.09693-1.48309-1.8166-2.65656-4.59822-6.86182.76684 2.46383 2.35515 6.13601 4.82923 9.67899 1.20628 1.73528 2.99759 3.57445 2.99759 3.57445s.13395.44971.28841 1.12973c-1.92868-1.18031-4.5121-2.47066-6.43463-3.34.0936.041-.19-.0861-.0895-.0424-1.49264-2.71467-3.22586-5.78268-3.845059-6.63288.696429 1.99841 1.364849 4.02688 1.939619 5.80452-2.405029-.98689-5.992439-2.31688-7.212387-2.83904-1.363473-.57751-2.689356-1.32656-3.786288-2.3285v-.005c-.05877-.0519-.118918-.11004-.180428-.16676.686862-.69097 1.554156-1.56032 1.554156-1.56032l.551538.46201s.956823.91173 1.848719.10594c.753151-.67662 4.132791-4.4267 4.425301-4.77184.32396-.39092.63493-1.00809-.0677-2.25264 0 0-.0567-.0772-.15377-.21597.9828-.95888 1.11059-2.22395 1.11059-2.83974.477729-.52489.660889-1.29649.545389-2.30459.33694.20231.68413.30141 1.02721.26382.34651.3718.82766.59597 1.42226.6609.57409.0376 1.16459-.10252 1.63889-.43058.32191-.22417.57137-.51259.7641-.85363.0588-.10115.10935-.20845.15378-.31712.16061-.49823.2187-.9951.19888-1.49264 2.93335 3.30515 5.79356 7.6635 7.50969 10.40071 3.2409 5.15799 3.98038 7.08394 4.65973 9.07347-2.1303-.12781-3.32428-.45587-6.10316-3.36326-1.29376-1.35527-4.66588-6.35402-6.79823-9.0181 1.78242 4.3645 3.70359 7.66966 5.3213 9.90112m-8.4344-33.30992c-.61919-.99511.28637-1.26439 2.09067-.14694 1.06138.65679 4.7971 3.10216 6.68409 5.69859.4497.61988.30139.96639-.4873.16745-1.88358-1.89384-4.72397-4.51213-4.6734-3.27372.0444 1.09078-.15446 2.19523-.5283 3.26347-.38205-.08-.74905-.16677-1.07506-.26586l-2.23692-.58982c.77298-1.90409.93359-3.72343.22622-4.85317m-2.729669-12.33351c.003.0184.003.0225.003.041.15993 1.99976.44766 3.99953.29389 4.81694-.13054-.14421-.95684-.991-.95684-.991s-.095 2.74062-.54538 7.50699c-.0765.75112.003 2.17131.0916 2.60257-1.07233-.15446-1.94577-.74563-2.29569-.937.34992 1.27669.65816 2.4652.97801 2.90055.36701.49824.73197.78392 1.2261 1.0532.11892.0642.33489.16335.61988.29183.5618.25425 2.070159.73471 2.140549.75727l2.88892.75383c.50644.15446 1.18783.27954 1.72638.43674 1.34844.4046 2.99828 1.05933 3.56212 1.34297.69574.34856 1.36758 1.06413 1.21038 1.57808-.16744.54813-.97322.67729-1.26163.67729l-.16608.34651c-.51191.76684-2.15696.29867-2.5684.11209-.4743-.22144-.81124-.49413-.89736-.63424.08.13396.6281-.0663.96571-.2064.13054-.0526.23716-.19273.24604-.27885.0588-.51668-1.54048-.76751-2.50892-.95409-.0588-.009-1.08189-.14763-2.01548-.12781-.63013.0123-.84679.13738-1.07779.55155-.15105.25766-.34993.84132 2.04692 3.48627l.31437.33967c.40051.4169 1.21996 1.46942 1.40517 2.52876.0642.34035.1155.59734.1196.99441-.0431 1.12291-.7101 1.74279-1.62797 1.69563-1.43728-.15445-.69916-1.67512-1.50836-.73196-.32941.38478-1.415409-.86593-1.706549-1.16186.24945.039.574769.0765.837899.0581.17564-.013.30071-.0519.38068-.11961.1032-.08.16129-.22485.16471-.41759.009-.52216-.33147-1.10718-.84406-1.73596-.539229-.66705-.959549-1.18715-1.380559-1.80225-.60963-.89395-.85908-.91923-1.06002-.87959-.0212 0-.0506.0123-.069.0246-.39298.19957-.14762 2.34627.46202 3.62979 1.28351 2.73721 1.49469 4.53058.60279 5.05478l-.0711.0458.0109.08c.13054.95956.13669 2.04283-1.05113 2.69278l-.10731-.11004c.28774-.95613.0123-1.52066-.0711-1.97993-.0198-.10253-.0772-.4135.69916-.62947l.0745-.028-.0478-.0191c-.30207.0253-.99509.0711-1.27872.0253-.53172-.082-1.12905-.17975-1.24455-1.2056-.039-.34856-.0772-.69371-.10936-1.04089-.16676-1.56031-.44834-2.96549-.67933-4.0508-.2604-1.23842-.578202-4.24832-.578202-4.24832s-.304816-.0964-.603481-.0738c-.373161.0287-.873442.21187-1.149555.91376-.07039.19957-.130539.52352-.02598 1.02382-.304816-.14968-.759308-.47774-.800997-1.08123l-.01093-.0581-.04784-.0314c-.455859-.32121-.667043-.68071-.725136-1.05797-.160609-1.086 1.092145-2.18362 1.207648-2.27246.750422-.58846.500282-1.70521.166078-2.65794l-.355392-.95683c-2.01958 2.43512-4.615303 2.00251-4.615303 2.00251s.394346-.96572.522152-2.20139c.16471-1.59176.109349-2.9648.109349-2.9648l-1.315628 1.42566s-.530355-3.05022-.0062-7.99634c.551538-5.24409 1.976522-7.35254 2.092025-7.51246l-.0062-.006c.867291-.97596 4.576347-5.65211 5.154543-7.8248.01503.0321 1.495369 1.72638 1.096249 1.36074l.21254.19205.039-.26928c.22144-1.37304 1.00741-2.40027 1.76192-3.40151.53651-.69987 1.0491-1.37306 1.29855-2.10571.0144.0451.1032.21528.11004.19615.44971 1.48582.50028 3.02015.58366 4.49709.0909 1.45984.17086 2.75293.56521 3.6127-.27543-.15445-.50097-.29593-.68413-.40733-.32942-.20914-.5037-.31165-.64381-.30824 0 0-.0417.007-.0847.0219-.0219.006-.0636.0431-.0636.0431-.0642.0663-.0642.16266-.0581.24604.42988 1.92528.82286 4.15947.93495 5.51749m9.777349-39.60299c-.17838-3.35369.70121-6.9869 1.41883-8.67364.2727 1.72228.23101 3.88198-.17564 5.51338-.28022 1.11879-.81946 2.16857-1.24319 3.16026m-1.23226-4.4513c0 3.73573-.75041 6.47636-2.0305 11.03018-.1449-4.81353.85635-9.72069 2.0305-11.03018m-6.95063-1.04294c.96297.50985 2.35515 3.01333.69302 7.969-.1155-4.62148-.72855-5.6938-.69302-7.969m3.52317 8.58206c-1.34365 5.09237-3.04885 11.05273-3.80201 20.9019-.657469-2.05444-1.412679-15.22859 3.80201-20.9019m16.38695 22.90441c-.58982-1.47283-1.19329-3.86763-.71624-11.4956-.5577 2.87527-.85637 5.08963-.98417 6.84268-.39093.32669-.93016.72514-1.46941.95614-.25766-.77707-1.02174-1.88768.25561-11.47715-3.20604 10.38227-1.42498 13.19329-1.10581 13.94851 1.08736-.6363 1.80497-1.36416 2.24853-1.9328-.054 3.08783.53924 4.37133 1.03064 5.48195 1.21858-.64244 1.92253-1.54801 2.73105-2.71808-.0998 3.25116.72444 5.21403.72444 5.21403s2.42009-2.65656 3.00853-4.62148c-.0554 1.24592.80373 4.96321 1.51383 5.61726 2.6545-3.49515 3.56485-13.42771 3.56485-13.42771s.17701.12439.39913.28774c-.14762 2.42008-.81467 10.45675-.81467 10.46906-.42099 4.94884-.92128 10.55586-1.35595 15.52385-.0725.82218-.14626 1.63343-.21734 2.44606-.17086 1.88357-.36632 3.76443-.53923 5.64528-.15993 1.60406-.32191 3.17667-.4791 4.70486-.16949 1.62388-.34924 3.25048-.5283 4.87846-1.16869 10.55723-2.18907 17.97401-2.18907 17.97401s-.21256 1.95466-.54813 3.01469c-.36975-1.18168-.46201-5.96309-.23579-8.5438.0588-.6479-.90419-1.72706-.84268-5.30765.0219-1.44823 1.64573-19.73799 2.22324-26.90122.13532-1.61772.18043-2.82059.17428-2.83972-.0478.2269-.10389.48456-.15788.75999-.35675 1.66215-.66499 3.3448-.89599 5.02266-.17291 1.04978-.32669 2.09887-.49345 3.14864-.24468 1.62388-.48797 3.35711-.72513 5.12587-.66431 5.30425-1.37441 10.62968-1.50221 15.97561-.0834 3.41794 1.0402 4.37749.93085 5.13474-.60417 4.24628-.14216 8.37294.77639 10.73562.36632-.11481.60348-.46337.72513-.65474-.57135 3.25458-1.32178 5.84006-1.32178 5.84006-1.25822-2.72764-1.98404-5.66168-1.77149-12.91444.0123-.56521-1.05318-2.2007-1.23977-5.93576-.21118-4.30845.79348-13.21651 1.11402-17.7136.47568-6.03007.96571-11.88996 1.17825-14.56703.0417-.56794.28158-2.64426-.1483-.28227-.54197 2.98462-1.12905 5.96925-1.54321 8.97369-.29867 2.118-.48525 4.11367-.7764 6.20025-.25424 2.27793-.4914 4.6659-.69643 7.11811-.22485 2.68321-.41758 5.43341-.55906 8.19933-.24331 4.59961 1.48376 8.02095 1.41268 8.68048-.23716 2.29571-.2187 2.1515-.15446 4.15673.0711 2.39139.23716 2.74132.23716 2.74132-.78255-1.77765-3.29148-7.73732-2.44469-26.34557.0184-.44903.0417-.90422.0636-1.37032.68413-12.94793 1.71476-21.4063 1.71476-21.4063-1.20012 3.61819-2.24784 11.4259-2.95316 20.46314-.63765-1.0368-.98142-2.26153-1.2097-3.42751-.28021-1.3703-.3882-2.78299-.42032-4.17585-.0232-1.14205.006-2.2916.0834-3.42751.43604-6.80919 1.24728-12.40663 1.24728-12.40663s-1.03678 3.36051-1.70929 6.86046c-.56248 2.70645-1.06003 5.55916-1.06003 8.32917-2.58683-3.856-1.47624-11.58308-.20503-19.58694-1.1352 2.55473-3.19648 9.76921-2.63741 15.19989-3.87718-3.64209-1.7715-10.87982-.30824-19.17278-2.20889 4.93587-3.82592 10.98166-3.28395 14.95249-3.14727-4.09522-1.9731-9.51634.84406-20.13644-1.70383 2.7994-4.06241 9.52317-4.20387 13.64436-2.05376-4.80806.32531-12.81533 2.3695-19.27597-1.59926 2.29433-4.69253 9.52522-4.6153 14.56086-1.916389-4.95568 1.17347-14.82399 4.15602-20.32235.0246 1.61909.3882 2.06812.79212 2.74816.57135-6.30071 4.51962-10.88939 5.20921-15.299.12507.77024.25288 1.32248.43946 1.92869 1.4571-2.46725 2.67295-5.37258 3.58125-8.98871.24673.28158.71693 1.36006.71967 2.6053 1.97037-5.44845.069-7.66351-.48866-7.99087-1.49538-.86662-3.27917.52009-4.66246 2.05444-2.08588 2.3169-4.26539 6.93222-11.23652 7.05046-1.142719.0198-1.572609-.26039-.991679-.36565-.0601.009-.0417.006.0232-.003 5.785359-1.06618 6.819409-3.39537 11.648629-8.65245 2.99759-3.26688 5.99518-5.15799 9.54773-.9746 6.90415 8.13235 9.11169 14.97368 10.34393 20.61554.69986 3.20332 1.17553 10.01319.31781 13.33202-.81193-.2891-.86592-.50984-.86592-.50984s-.90284 9.27645-2.49731 11.58854c-.46817-.98279-1.11949-3.42544-1.11949-5.61999-.88574 2.74404-1.68264 4.21346-2.88892 5.78061-.6356-2.32305-.64175-4.47386-.32805-6.99714-1.39833 3.31198-2.45357 4.72399-3.20878 5.25708m35.62935-18.52966c-1.30606 1.09693-7.85005 6.65201-18.19262 12.53786-.24057-6.17837-.22485-28.07469-13.524-51.80538 1.51793-2.01071 2.32029-3.07074 3.76988-4.99329 1.09829 1.14 2.16447 1.76262 4.22369 2.37703-.0834-4.70349.94452-7.28009 2.23691-10.03165 1.887.0513 5.09714.12985 10.15189-.95478 6.70665 14.35106 10.102 30.91784 11.33425 52.87021" fill="#fff"/></g><path d="m0 0s-1.677 3.821 2.193 15.351c-5.639-11.745-4.88-14.924-3.636-18.925 2.41 1.704 3.377 2.85 3.9 5.527-.909-1.315-2.457-1.953-2.457-1.953" transform="matrix(.68345 0 0 -.68345 113.65796 107.107735)"/><path d="m0 0s-1.352 2.599 2.11 12.625c-6.327-9.538-3.555-16.188-3.555-16.188s3.314 1.654 4.17 5.249c-.949-1.219-2.725-1.686-2.725-1.686" transform="matrix(.68345 0 0 -.68345 111.08983 100.276585)"/><path d="m0 0c-1.032-10.104-1.86-12.175-2.93-13.932-.893.607-1.643 2.687-1.643 2.687-.32-1.831.113-4.64 1.686-6.124 2.107 2.631 3.597 8.233 2.887 17.369" transform="matrix(.68345 0 0 -.68345 126.5593 88.619865)"/><path d="m0 0c-1.6-11.309-3.39-13.894-4.648-15.82-.91.699-1.751 3.478-1.751 3.478-.437-2.037-.081-5.202 1.6-6.934 2.466 2.868 5.184 8.982 4.799 19.276" transform="matrix(.68345 0 0 -.68345 125.19137 84.000765)"/><path d="m0 0c-1.062 3.095-.818 6.113-.818 6.113-1.521-4.403-1.066-8.051.507-9.902 2.61 2.696 6.381 11.114 5.885 18.938-1.546-9.363-4.204-13.318-5.574-15.149" transform="matrix(.68345 0 0 -.68345 119.38376 91.478945)"/><path d="m0 0c-.757 3.175-.358 7.936-.358 7.936-1.948-4.264-1.695-10.069-.314-12.046 2.865 2.468 6.819 9.753 7.08 17.586-2.45-9.199-4.873-11.767-6.408-13.476" transform="matrix(.68345 0 0 -.68345 116.61401 87.075475)"/><path d="m0 0c-.16-2.344 1.889-3.809 1.889-3.809s3.295 4.712 2.008 12.882c-.681-7.617-2.371-10.243-2.371-10.243s-1.314.621-1.526 1.17" transform="matrix(.68345 0 0 -.68345 126.02627 100.140985)"/><path d="m0 0c-.056-2.068 1.799-3.297 1.799-3.297s2.738 4.245 1.318 11.401c-.338-6.724-1.934-9.222-1.934-9.222s-.976.639-1.183 1.118" transform="matrix(.68345 0 0 -.68345 128.64504 102.524865)"/><path d="m0 0c-1.077 1.756-1.898 3.831-2.926 13.935-.714-9.137.769-14.738 2.883-17.369 1.569 1.484 1.999 4.293 1.682 6.124 0 0-.753-2.08-1.639-2.69" transform="matrix(.68345 0 0 -.68345 34.430115 98.368735)"/><path d="m0 0c-1.269 1.925-3.054 4.512-4.659 15.821-.377-10.294 2.337-16.409 4.799-19.276 1.686 1.731 2.037 4.892 1.607 6.934 0 0-.836-2.78-1.747-3.479" transform="matrix(.68345 0 0 -.68345 36.975007 95.037465)"/><path d="m0 0c-1.361 1.831-4.025 5.785-5.57 15.148-.498-7.821 3.269-16.247 5.888-18.938 1.569 1.851 2.028 5.5.498 9.904 0 0 .255-3.019-.816-6.114" transform="matrix(.68345 0 0 -.68345 39.599865 91.703115)"/><path d="m0 0c-1.542 1.711-3.958 4.278-6.415 13.479.273-7.833 4.218-15.122 7.082-17.591 1.389 1.978 1.639 7.786-.311 12.048 0 0 .404-4.764-.356-7.936" transform="matrix(.68345 0 0 -.68345 42.372619 87.301215)"/><path d="m0 0s-1.69 2.626-2.376 10.243c-1.278-8.173 2.015-12.881 2.015-12.881s2.042 1.465 1.892 3.808c-.215-.551-1.531-1.17-1.531-1.17" transform="matrix(.68345 0 0 -.68345 31.915978 101.164595)"/><path d="m0 0s-1.596 2.497-1.934 9.222c-1.413-7.157 1.323-11.402 1.323-11.402s1.855 1.231 1.794 3.297c-.205-.479-1.183-1.117-1.183-1.117" transform="matrix(.68345 0 0 -.68345 29.528418 103.513065)"/><path d="m0 0s-1.548.64-2.45 1.954c.516-2.676 1.483-3.823 3.897-5.526 1.244 4 2.002 7.175-3.633 18.924 3.867-11.528 2.186-15.352 2.186-15.352" transform="matrix(.68345 0 0 -.68345 45.324231 107.333485)"/><path d="m0 0s-1.769.464-2.727 1.686c.854-3.597 4.17-5.252 4.17-5.252s2.77 6.65-3.55 16.184c3.455-10.021 2.107-12.618 2.107-12.618" transform="matrix(.68345 0 0 -.68345 47.895232 100.500005)"/><path d="m0 0c.629 5.216-2.193 9.706-2.648 11.838-.568-.62-.593-2.349-.593-2.349-1.878 1.977-2.333 5.475-2.727 6.674-.429-3.569-1.686-5.33-2.128-7.048.789.079 1.494.3 2.283.823.938-4.326 4.526-5.285 5.813-9.938" transform="matrix(.68345 0 0 -.68345 67.283597 133.767895)"/><path d="m0 0s-.029 1.718-.597 2.349c-.451-2.134-3.278-6.627-2.64-11.845 1.278 4.659 4.876 5.617 5.804 9.937.789-.516 1.495-.742 2.284-.817-.442 1.72-1.704 3.475-2.124 7.043-.394-1.192-.854-4.695-2.727-6.667" transform="matrix(.68345 0 0 -.68345 93.128031 127.499765)"/><path d="m0 0c-.534 1.751-1.483 7.654-3.737 10.2-.902-4.292 1.898-8.388 3.737-10.2" transform="matrix(.68345 0 0 -.68345 74.003136 123.976655)"/><path d="m0 0c1.01 2.426 3.151 4.784 3.07 12.527-2.315-2.316-3.296-9.585-3.07-12.527" transform="matrix(.68345 0 0 -.68345 83.763612 127.897125)"/><path d="m0 0c1.183 3.112 1.109 7.01-.207 8.686-1.042-3.334-1.094-6.297.207-8.686" transform="matrix(.68345 0 0 -.68345 80.653303 129.945285)"/><path d="m0 0c1.179 3.575.902 7.905-.624 9.782-1.015-3.624-.954-6.969.624-9.782" transform="matrix(.68345 0 0 -.68345 78.265605 123.582295)"/><path d="m0 0c-2.146-2.903-2.761-9.468-3.433-11.671.78.692 4.716 10.021 3.433 11.671" transform="matrix(.68345 0 0 -.68345 95.264698 101.869365)"/><path d="m0 0c-.036.104 3.575 6.293 1.546 9.725-2.358-.521-1.483-9.758-1.546-9.725" transform="matrix(.68345 0 0 -.68345 95.386422 94.656235)"/><path d="m0 0c.014.056 5.588 5.373 5.394 12.097-1.578-4.51-5.38-6.414-5.405-6.414.011 0-2.112 1.315-3.061 4.234-.742-6.807 3.117-9.953 3.072-9.917" transform="matrix(.68345 0 0 -.68345 88.343338 105.016515)"/><path d="m0 0c1.499 2.36 3.57 5.785 1.866 8.002-.804-2.208-1.183-4.762-1.866-8.002" transform="matrix(.68345 0 0 -.68345 95.848501 99.771245)"/><path d="m0 0c.967 2.246 3.446 6.424 2.925 11.274-2.123-1.831-3.128-8.392-2.925-11.274" transform="matrix(.68345 0 0 -.68345 83.956208 117.769355)"/><path d="m0 0c3.304 4.085 5.042 8.792 3.611 13.608-2.955-4.611-3.029-9.297-3.611-13.608" transform="matrix(.68345 0 0 -.68345 89.460163 112.872225)"/><path d="m0 0c-.906-3.248-2.362-5.389-4.776-7.833-1.014.949-2.042 2.067-3.428 4.855-.55-5.408 2.54-8.559 4.311-9.741 1.098.915 4.713 6.028 3.893 12.719" transform="matrix(.68345 0 0 -.68345 84.539942 103.097045)"/><path d="m74.663893 185.6956c-.474313-.12166-2.713977-2.20481-3.389225-3.51362.346509 2.08862 3.216994 6.20641 4.59073 7.04705.448341-.74769 2.121426-4.07268.654743-9.36736-.623988 3.20264-1.275316 4.81695-1.856248 5.83393" transform="translate(0 -73.215395)"/><path d="m0 0c-.415 2.681 2.901 5.147 1.756 9.462-3.311-3.733-2.658-7.259-1.756-9.462" transform="matrix(.68345 0 0 -.68345 61.320569 87.268135)"/><path d="m0 0c1.878-3.146 3.32-4.578 4.799-6.077-2.324 3.537-4.184 10.069-6.48 11.835-.212-.973.611-3.968 1.681-5.758" transform="matrix(.68345 0 0 -.68345 65.903372 109.004925)"/><path d="m0 0c-1.278-5.438 4.161-10.675 4.199-10.758.005-.075.009 6.461-4.199 10.758" transform="matrix(.68345 0 0 -.68345 64.79263 99.033455)"/><path d="m0 0c-.077-2.306-.043-4.44-.593-6.971-1.539.385-2.272 1.426-3.399 2.39.92-3.087 4.738-6.645 5.344-7.537.544 4.193.704 9.288-1.352 12.118" transform="matrix(.68345 0 0 -.68345 67.431497 92.041285)"/><path d="m0 0c1.513 5.446 4.582 8.565 5.635 11.727-5.466-3.867-6.602-9.821-5.635-11.727" transform="matrix(.68345 0 0 -.68345 65.79402 82.414755)"/><path d="m0 0c-.733 4.625-.433 7.724-2.705 11.805-.728-4.879 2.198-11.077 2.705-11.805" transform="matrix(.68345 0 0 -.68345 62.591307 98.766845)"/><path d="m0 0c-3.679-4.575 1.986-10.294 1.961-10.368-.023.046.462 8.669-1.961 10.368" transform="matrix(.68345 0 0 -.68345 71.902005 86.446225)"/><path d="m0 0c-5.448-4.099-2.856-7.922-1.893-10.03 1.122 3.987 1.573 5.081 1.893 10.03" transform="matrix(.68345 0 0 -.68345 73.759759 77.903435)"/><path d="m0 0c.933 2.048 3.568 5.94 2.206 12.421-.48-4.875-3.597-7.049-3.579-7.04-.009-.005-1.765.973-3.146 3.921.451-5.946 2.673-7.663 4.519-9.302" transform="matrix(.68345 0 0 -.68345 75.942627 103.035535)"/><path d="m0 0c-.394-3.062 3.171-10.058 3.316-10.614.076.509 2.037 6.34-3.316 10.614" transform="matrix(.68345 0 0 -.68345 94.921128 78.358685)"/><path d="m0 0c-.484-2.627 3.751-6.597 3.733-6.621-.005.004.563 5.028-3.733 6.621" transform="matrix(.68345 0 0 -.68345 89.886909 70.024015)"/><path d="m0 0c-1.258-5.789-3.771-7.997-3.771-7.978.007 0-2.004 1.615-3.712 3.859-.104-4.685 3.906-9.221 3.836-9.193-.025.028 4.903 3.939 3.647 13.312" transform="matrix(.68345 0 0 -.68345 94.112334 83.721855)"/><path d="m0 0c-2.193-2.381-.142-7.092 1.118-11.326 1.163 2.075 2.549 9.08-1.118 11.326" transform="matrix(.68345 0 0 -.68345 86.15425 76.336895)"/><path d="m0 0c-.023 2.081-.647 5.71-5.367 6.4-.306-2.438 3.846-3.935 5.367-6.4" transform="matrix(.68345 0 0 -.68345 87.437563 71.792505)"/><path d="m0 0c1.086-1.093 4.551-1.905 6.476-3.713-.262 2.969-3.287 4.819-6.476 3.713" transform="matrix(.68345 0 0 -.68345 83.903788 65.737615)"/><path d="m0 0c-3.325-3.596-1.296-6.615-1.287-6.59-.009.049 4.057 4.375 1.287 6.59" transform="matrix(.68345 0 0 -.68345 80.665606 74.951345)"/><path d="m0 0c-.016-.016 4.201 3.911 4.578 11.969-2.349-3.973-4.959-6.218-4.95-6.204 0 0-2.254 1.521-4.1 3.785.02-5.119 4.524-9.57 4.472-9.55" transform="matrix(.68345 0 0 -.68345 84.071643 98.518885)"/><path d="m0 0c-3.73-5.568.005-11.372-.025-11.358-.018.042 2.57 7.757.025 11.358" transform="matrix(.68345 0 0 -.68345 79.832274 83.379105)"/><path d="m0 0c1.014-1.028 4.256-2.405 6.068-4.095-.244 2.783-2.678 4.282-6.068 4.095" transform="matrix(.68345 0 0 -.68345 80.70415 56.143615)"/><path d="m0 0c-1.912 2.255-4.47 3.072-5.748 3.268 1.526-1.866 3.108-3.446 5.748-3.268" transform="matrix(.68345 0 0 -.68345 81.859591 58.352735)"/><path d="m0 0c-.135.61-1.679 2.771-4.943 3.465.893-.84 1.436-2.348 1.756-2.893-.638-.342-2.358-.516-2.944-.609 1.188-.847 3.395-1.035 6.131.037" transform="matrix(.68345 0 0 -.68345 86.451686 62.247715)"/><path d="m0 0c-.291-.187-.559-1.109.498-1.146.884-.033 1.053.959 1.053.959s-1.109.46-1.551.187" transform="matrix(.68345 0 0 -.68345 66.38404 56.715115)"/><path d="m0 0c-1.032.761-1.708 1.304-2.795 2.042-.942-.633-2.024-1.53-2.718-2.095.949-.708 1.652-1.258 2.678-2.008 1.097.811 1.595 1.206 2.835 2.061" transform="matrix(.68345 0 0 -.68345 85.813892 18.652416)"/><path d="m0 0c-.176-.31-.471-.432-.705-.352-.356.125-1.456.614-1.283.925.174.316 1.695.328 1.911.206.208-.113.246-.465.077-.779m3.832.722c1.605-.083 3.099.03 4.799-.286-4.867 2.527-11.694 2.222-13.675 1.339-1.334-.601-2.522-2.3-2.522-3.386.813.54 1.381.503 1.724.934.581.729.602 1.147 1.192 1.212-.216-.422-.347-1.032-.329-1.526.065-1.868 1.916-2.97 3.672-2.549 1.663.388 2.171 1.447 2.33 2.572.16 1.128-.216 1.785-.216 1.785s1.053.013 3.025-.095" transform="matrix(.68345 0 0 -.68345 73.362196 55.649825)"/><path d="m0 0c-1.724.056-4.298.077-5.283.096-2.437.046-4.387-.024-6.668-.053 3.945 1.641 10.152 4.104 11.813 1.367.348-.568.291-.911.138-1.41m3.503 1.269c-.014 1.109-.729 1.972-1.288 2.479-.653.587-1.994 1.184-3.15 1.323-.929.115-2.405-.056-3.568-.327-3.269-.77-5.978-1.907-7.894-2.743-.047 1.139-.185 3.973-.306 5.523.883.703 1.625 1.104 2.4 2.028-2.006.743-2.842 1.452-3.733 3.034-.827-.516-1.672-1.091-1.564-2.367.043-.471.755-8.218 1.01-10.264-1.044-.043-22.72-.94-34.553-4.118-1.38 3.375-5.32 5.498-6.724 5.826-3.906-3.297-4.508-6.739-4.629-8.062 2.666.235 4.469-.025 5.479-.972-1.812-2.269-9.277-4.33-11.313-1.803-1.783 2.263 1.109 6.676 1.747 7.438-4.916-3.447-7.127-11.876.979-11.486 3.822.318 6.583 2.038 7.338 2.564 2.376 1.649 3.156 2.253 4.166 4.133 0 0-.742 2.215-5.058 2.46.013.47 1.422 4.447 4.846.779 1.152-1.211 2.508-4.547 2.508-4.547 12.861 3.538 39.046 4.942 52.437 4.199.493 1.32.883 3.006.87 4.903" transform="matrix(.68345 0 0 -.68345 86.998583 25.341887)"/><path d="m0 0c-.78.25-1.474.471-2.403.725-.615-.888-1.26-2.057-1.681-2.809 1.183-.366 2.051-.663 3.316-1.042.502.789.806 1.277 1.228 1.93.753-.24 1.451-.47 2.349-.743.705 1.103 1.005 1.63 1.807 2.805-1.271.394-2.121.694-3.437 1.045-.408-.581-.825-1.28-1.179-1.911" transform="matrix(.68345 0 0 -.68345 48.745648 34.282855)"/><path d="m0 0c2.666.228 5.105-.421 6.237.8-1.643.487-3.33.926-3.909 1.742.715.586 1.72-.212 2.254-.643.363.352.555.506.983.903-1.715 1.411-4.409.571-5.002-.875.489-.258 1.24-.532 1.513-.87-.564-.173-1.625-.736-2.076-1.057" transform="matrix(.68345 0 0 -.68345 116.35991 27.460035)"/><path d="m0 0c-1.071-2.494-2.011-5.021-3.255-7.284.748-.304 1.747.329 2.448.76 3.286 2.006 5.644 7.546 6.931 10.848.027.113-1.916-.394-2.939-.845-1.936-.872-2.284-1.385-3.185-3.479" transform="matrix(.68345 0 0 -.68345 115.32011 30.825205)"/><path d="m0 0c.827-.817 1.438-1.452 2.319-2.32 1.226.667 1.785.99 3.147 1.681-.902.882-1.474 1.507-2.423 2.376-1.032-.512-2.25-1.258-3.043-1.737" transform="matrix(.68345 0 0 -.68345 98.342545 31.630995)"/><path d="m0 0c-.203.018-.525.036-.701.064-1.289.184-2.146.461-2.576 1.126.478.997 1.357 1.509 1.436 1.533 1.165.412 2.447-1.325 1.841-2.723m23.177 1.19c-.976-.637-2.206-1.661-3.033-2.533.644-1.147 1.659-1.925 1.296-3.504-5.493 1.888-12.719 3.822-18.37 4.516.237 2.157-.271 5.011-2.281 5.533-2.57.657-4.33-1.88-5.405-3.273-2.333-3.085-1.197-4.409 3.64-5.142-2.209-1.36-5.241-2.432-8.66-2.536-.93-.023-1.343-.028-2.687.055 2.406-1.004 4.642-1.928 8.097-2.337 2.357.559 4.62 2.78 6.113 4.431 5.569-.563 15.68-3.135 20.254-4.905.836 1.113 2.184 2.212 2.718 4.028.521 1.762-.282 4.884-1.682 5.667" transform="matrix(.68345 0 0 -.68345 96.520127 26.810005)"/><g clip-path="url(#a)" stroke-width=".516172" transform="matrix(.68345 0 0 -.68345 -531.84633 337.739735)"><path d="m0 0c1.12-.487 1.943-.872 3.149-1.388.845 1.018 1.226 1.502 2.184 2.592-1.206.52-2.015.91-3.264 1.398-.746-.807-1.548-1.905-2.069-2.602" transform="translate(857.238 446.205)"/></g></svg>