<svg height="491.52231" viewBox="0 0 498.94114 491.09021" width="500" xmlns="http://www.w3.org/2000/svg" xmlns:xlink="http://www.w3.org/1999/xlink"><g style="clip-rule:evenodd;fill-rule:evenodd;image-rendering:optimizeQuality;shape-rendering:geometricPrecision;text-rendering:geometricPrecision;stroke-width:58.6917" transform="matrix(.02553482 0 0 .02553482 25.035266 62.14151)"><path d="m5757.0775 606.74128c218 67 185 103 475 96 132-3 387 23 428 126-166 36-1279 249.00002-1336 283.00002l1346 95c-56 62-198 109-277 172-299 241-390 184-691 228-142 21-260 81-300 171 116-36 55-68 326-43 116 10 246 27 361 23 228-7 241-180 631-146l-1001.8994 682.1126 821.8994-142.1126 4533.9995-17 798.952 147.1375-716.952-398.1375-295-154c56-35 211-88 296-98 254-31 394 116 619 182 86 26 279 52 349 0-102-58-150-14-306-133-241-184-274-219-594-288-232-50-171-64-333-123 15-9-10-1 29-13l129-15c54-5 110-11 165-16 116-10 230-22 342-32 122-11 229-21 350-32l244-21c8-1 35-4 44-6 55-17-45 20 19-8l-1182-292.00002c44-40 219-108 278-136 314-149 523-45 728-102 93-26 233-85 273-143-480 69-419-43-716-43-294 0-388 113-717 6 28-44 103-64 146-83 50-21 98-43 152-67 110-48 206-91 314-139l468-206.000003c31-14 52-24.999997 81-36.999997l78-43-1350 156.9999965c32-52.9999995 193-195.9999965 243-235.9999965 406-331 823-281 885-581-145 78-45 91-320 149-434 92-244-46-694 238-66 41-264 143-350 95-10-43 485-543 539-605 41-47 66-79.99998 111-122.99998 39-35 198-208 219-247-124 34-647 366.99998-816 465.99998-77 46-197 125-274 155 38-129 56-107 102-302 85-362.99998 520-535.99998 432-769.99998l-96 122c-111 124-315 171-409 291-85 109-187 302-298 388.99998-38 29-104.9995 53-136.9995 83-7-100 263.9995-1046.99998 303.9995-1235.99998-53 54-142 192-189 263-62.9995 94-129.9995 183-191.9995 274-61 91-324 487-383 537-10-123 3-221-15-356-17-123-16-235 27-345 61-156 186-473 27-597 17 361-119 300-248 584-92 204-80 481-231 623-6-8-6-2-14-23l-178-1209c-11-43 5-6-15-42l-175 958c-10 52-19 101-28 152-9 50-20 127-44 156-72-224-209-287-264-579-22-115-4-297-34-394-28-89-130-204-199-218 197 243-34 457-15 651 7 71 28 100 51 156 60 144 97 386 37 522-93-34-702-971-819-1063 13 85 63 220 87 302 31 106 61 203 93 311 52 180 148 445 175 620.99998l-67-56c-144-134.99998-345-210.99998-487-354.99998-152-155-187-474-464-498l14 14c79 79 136 140 158 258 26 131 8 286 83 370 143 157.99998 354 257.99998 409 498.99998-197-71-1094-673.99998-1253-708.99998 158 190 805 819.99998 881 944.99998-68-7-96-24-154-34-66-12-107-4-173-21-92-24-207-51-293-84-72-28-108-64-161-111-94-85-180-145-334-138 46 32 97 39 138 87 113 132 141 330 300 400 257 114 419 65 616 323.999997l-1241-160c30 48 658 333.000003 729 367.000003 75 37 178 94 245 118-14 10 2 4-28 14-47 15-93 9-141 11-177 10-267 90-542 52-187-25-288-129-487-68l-142 72c141 1 155-18 281 32 54 21 177 80 208 107z" fill="#f4f100"/><path d="m5757.0775 606.7413c218 67 185 103 475 96 132-3 387 23 428 126-166 36-1279 249-1336 283l1346 95c-56 62-198 109-277 172-299 241-390 184-691 228-142 21-260 81-300 171 116-36 55-68 326-43 116 10 246 27 361 23 228-7 241-180 631-146l-1001.8994 682.1126 821.8994-142.1126 4533.9995-17 798.952 147.1375-716.952-398.1375-295-154c56-35 211-88 296-98 254-31 394 116 619 182 86 26 279 52 349 0-102-58-150-14-306-133-241-184-274-219-594-288-232-50-171-64-333-123 15-9-10-1 29-13l129-15c54-5 110-11 165-16 116-10 230-22 342-32 122-11 229-21 350-32l244-21c8-1 35-4 44-6 55-17-45 20 19-8l-1182-292c44-40 219-108 278-136 314-149 523-45 728-102 93-26 233-85 273-143-480 69-419-43-716-43-294 0-388 113-717 6 28-44 103-64 146-83 50-21 98-43 152-67 110-48 206-91 314-139l468-206c31-14 52-25 81-37l78-43-1350 157c32-53 193-196 243-236 406-331 823-281 885-581-145 78-45 91-320 149-434 92-244-46-694 238-66 41-264 143-350 95-10-43 485-543 539-605 41-47 66-80 111-123 39-35 198-208 219-247-124 34-647 367-816 466-77 46-197 125-274 155 38-129 56-107 102-302 85-363 520-536 432-770l-96 122c-111 124-315 171-409 291-85 109-187 302-298 389-38 29-104.9993 53-136.9993 83-7-100 263.9993-1047 303.9993-1236-53 54-142 192-189 263-62.9993 94-129.9993 183-191.9993 274-61 91-324 487-383 537-10-123 3-221-15-356-17-123-16-235 27-345 61-156 186-473 27-597 17 361-119 300-248 584-92 204-80 481-231.0002 623-6-8-6-2-14-23l-178-1209c-11-43 5-6-15-42l-175 958c-10 52-19 101-28 152-9 50-20 127-44 156-72-224-209-287-264-579-22-115-4-297-34-394-28-89-130-204-199-218 197 243-34 457-15 651 7 71 28 100 51 156 60 144 97 386 37 522-93-34-702-971-819-1063 13 85 63 220 87 302 31 106 61 203 93 311 52 180 148 445 175 621l-67-56c-144-135-345-211-487-355-152-155-187-474-464-498l14 14c79 79 136 140 158 258 26 131 8 286 83 370 143 158 354 258 409 499-197-71-1094-674-1253-709 158 190 805 820 881 945-68-7-96-24-154-34-66-12-107-4-173-21-92-24-207-51-293-84-72-28-108-64-161-111-94-85-180-145-334-138 46 32 97 39 138 87 113 132 141 330 300 400 257 114 419 65 616 324l-1241-160c30 48 658 333 729 367 75 37 178 94 245 118-14 10 2 4-28 14-47 15-93 9-141 11-177 10-267 90-542 52-187-25-288-129-487-68l-142 72c141 1 155-18 281 32 54 21 177 80 208 107z" style="clip-rule:evenodd;fill:none;stroke:#e0a00a;stroke-linecap:round;stroke-linejoin:round;image-rendering:optimizeQuality;shape-rendering:geometricPrecision;text-rendering:geometricPrecision"/></g><g fill="#e0a00a" fill-rule="evenodd" transform="matrix(2.29748985 0 0 2.29748985 -633.909286 -211.723765)"><path id="a" d="m393.845 119.84125c-1.8967.00003-3.7131.82183-4.7812 2.5312 2.1367 1.9227 6.8565 2.1318 10.062-.21875-1.3883-1.4954-3.3845-2.3125-5.2812-2.3125zm-.0312.4375c1.8462-.0335 3.5717.81446 3.8125 1.6562-2.1367 2.3504-5.5508 2.1463-7.6875.4375.9348-1.4957 2.4391-2.0677 3.875-2.0938z" fill="#e0a00a"/><use fill="#e0a00a" height="100%" transform="matrix(-1 0 0 1 769 .000001)" width="100%" xlink:href="#c"/><use fill="#e0a00a" height="100%" transform="matrix(-1 0 0 1 769 .000001)" width="100%" xlink:href="#b"/><use fill="#e0a00a" height="100%" transform="translate(18.862)" width="100%" xlink:href="#d"/><use fill="#e0a00a" height="100%" transform="matrix(-1 0 0 1 769 .000001)" width="100%" xlink:href="#e"/><path d="m380.125 129.62125c-.91341.16668-1.5625.97727-1.5625 1.9062 0 1.0614.87748 1.9062 1.9375 1.9062.62667 0 1.2025-.2968 1.5625-.8125.73952.55614 1.7646.61511 2.3125.625.0843.002.19312 0 .25 0 .54791-.01 1.573-.0689 2.3125-.625.36.5157.93583.8125 1.5625.8125 1.06 0 1.9375-.84488 1.9375-1.9062 0-.92898-.64918-1.7396-1.5625-1.9062.513.1809.84375.6765.84375 1.2188 0 .7074-.57124 1.2812-1.2812 1.2812-.6804 0-1.2413-.54015-1.2812-1.2188-.20862.41637-1.0341 1.6551-2.6562 1.7188-1.6222-.0636-2.4476-1.3024-2.6562-1.7188-.04.6786-.60085 1.2188-1.2812 1.2188-.71001 0-1.2812-.57385-1.2812-1.2812 0-.54225.33075-1.0378.84375-1.2188z" fill="#e0a00a"/><path d="m382.215 135.31125c-2.138 0-2.9829 1.9368-4.9062 3.2188 1.0687-.42633 1.9096-1.2693 3.4062-2.125 1.496-.85442 2.7717.1875 3.625.1875h.0312c.8532 0 2.129-1.0416 3.625-.1875 1.4967.8559 2.3688 1.6987 3.4375 2.125-1.9233-1.282-2.7996-3.2188-4.9375-3.2188-.4266 0-1.2716.23055-2.125.65625h-.0312c-.85334-.42642-1.6983-.65625-2.125-.65625z" fill="#e0a00a"/><path d="m381.495 137.84125c-.8439.0374-1.9596.20675-3.5625.6875 3.8473-.85434 4.6962.4375 6.4062.4375h.0312c1.71 0 2.5588-1.292 6.4062-.4375-4.2744-1.282-5.1242-.4375-6.4062-.4375h-.0312c-.80125 0-1.4372-.3124-2.8438-.25z" fill="#e0a00a"/><path d="m378.125 138.50125c-.24819.003-.51871.005-.8125.0312 4.488.42766 2.3306 3 7.0312 3h.0312c4.7007 0 2.5745-2.5724 7.0625-3-4.7007-.4266-3.2146 2.3438-7.0625 2.3438h-.0312c-3.6075 0-2.4959-2.4215-6.2188-2.375z" fill="#e0a00a"/><path d="m388.225 145.44125c0-2.1234-1.7233-3.8465-3.8463-3.8465-2.1233 0-3.8463 1.723-3.8463 3.8465.423-1.781 2.0166-3.0393 3.8463-3.0393 1.8333 0 3.424 1.2586 3.8463 3.0393z" fill="#e0a00a"/><path id="b" d="m367.105 119.80125c4.9146-4.2729 11.11-4.9147 14.53-1.7086.837 1.1207 1.3733 2.319 1.5934 3.5696.4302 2.433-.3303 5.0617-2.2367 7.7559.2151-.001.6435.2124.8568.4266 1.6967-3.244 2.2967-6.5761 1.74-9.7454-.1458-.828-.3735-1.643-.6696-2.4357-4.7007-3.8452-11.11-4.2729-15.811 2.1377z" fill="#e0a00a"/><path id="c" d="m374.795 118.52125c2.7767 0 3.4186.6417 4.7007 1.71 1.2833 1.0683 1.9233.8541 2.1367 1.0683.2124.2142 0 .8541-.4266.6399s-1.2833-.6399-2.5633-1.7086c-1.2833-1.0696-2.5633-1.0683-3.8463-1.0683-3.8463 0-5.983 3.2046-6.4094 2.9907-.4266-.2142 2.1367-3.6325 6.4094-3.6325z" fill="#e0a00a"/><use fill="#e0a00a" height="100%" transform="translate(-19.181)" width="100%" xlink:href="#a"/><circle id="d" cx="374.91501" cy="121.93124" fill="#e0a00a" r="1.923"/><path id="e" d="m369.665 123.22125c3.6327 2.7783 7.265 2.5644 9.4017 1.282 2.1367-1.282 2.1367-1.7086 1.71-1.7086-.4266 0-.8532.4266-2.5633 1.281-1.71.8559-4.273.8559-8.546-.8541z" fill="#e0a00a"/></g><g transform="translate(.005008 76.217492)"><path d="m333.81599 48.08685c-64.15305-31.006834-99.20036-31.390677-171.07993 0 52.53937 19.818346 44.78812 83.10042-26.81919 93.68564 81.95361-42.82758 5.81931-111.571203-44.319396-78.355413-34.398806 20.121112-41.330375 52.127543-25.517386 109.259233 36.484322 83.95179 91.374632 127.18134 183.623832 143.08224 86.59647-15.08901 148.50351-54.38534 180.76759-143.08224 16.76155-59.75391 14.71087-89.024439-17.83295-109.259233-51.05085-32.120692-131.39479 34.453558-52.00352 78.355413-73.25731-12.6176-74.46658-75.678587-26.81905-93.68564z" fill="#fff"/><path d="m333.81599 48.08685c-64.15305-31.006834-99.20036-31.390677-171.07993 0 52.53937 19.818346 44.78812 83.10042-26.81919 93.68564 81.95361-42.82758 5.81931-111.571203-44.319396-78.355413-34.398806 20.121112-41.330375 52.127543-25.517386 109.259233h364.391422c16.76155-59.75391 14.71087-89.024439-17.83295-109.259233-51.05085-32.120692-131.39479 34.453558-52.00352 78.355413-73.25731-12.6176-74.46658-75.678587-26.81905-93.68564z" fill="#45a2d1"/><g transform="matrix(-1.1516797 0 0 1.1516797 1395.2044 -229.1011)"><path d="m864.22601 272.24783c-6.859-16.85478 24.20425-23.87208 24.84609-5.85353 19.02932-6.3967 20.63587 23.33177 5.57717 22.43433 7.72121 17.82083-23.82505 22.95853-24.8712 4.924-19.11437 11.32887-24.94271-22.75758-5.55206-21.5048z" fill="#e27681" stroke="#373435" stroke-width=".999121"/><path d="m858.82468 284.10562c12.08256-2.91988 17.78452-10.14885 15.70153-22.63531 3.48925 13.01952 13.13283 16.5389 26.42879 14.42027-9.24777 1.95585-17.48624 5.37364-17.48521 20.72601-3.6488-6.5628-10.18661-11.6119-24.64511-12.51097z" fill="#c6274e"/><ellipse cx="878.52661" cy="280.90018" fill="#fefefe" rx="4.528604" ry="4.331708"/></g><g transform="matrix(1.1516797 0 0 1.1516797 -896.37268 -225.02025)"><path d="m864.22601 272.24783c-6.859-16.85478 24.20425-23.87208 24.84609-5.85353 19.02932-6.3967 20.63587 23.33177 5.57717 22.43433 7.72121 17.82083-23.82505 22.95853-24.8712 4.924-19.11437 11.32887-24.94271-22.75758-5.55206-21.5048z" fill="#e27681" stroke="#373435" stroke-width=".999121"/><path d="m858.82468 284.10562c12.08256-2.91988 17.78452-10.14885 15.70153-22.63531 3.48925 13.01952 13.13283 16.5389 26.42879 14.42027-9.24777 1.95585-17.48624 5.37364-17.48521 20.72601-3.6488-6.5628-10.18661-11.6119-24.64511-12.51097z" fill="#c6274e"/><ellipse cx="878.52661" cy="280.90018" fill="#fefefe" rx="4.528604" ry="4.331708"/></g><g fill-rule="evenodd"><g transform="matrix(.13064983 0 0 .13064983 87.891542 -92.1198)"><path d="m1360 1459c-71-11-145-16-228 2-330 141 618 121 228-2z" fill="#d40000"/><path d="m1223 1455 2 1382c0 20 15 36 32 36s31-16 31-36l-2-1382z" fill="#c87137"/><path d="m1223 1455 2 1382c0 20 15 36 32 36s31-16 31-36l-2-1382" fill="none" stroke="#ce9548" stroke-linecap="round" stroke-linejoin="bevel" stroke-width="3.95855"/><path d="m1269 2498v349" fill="#b82e2e" stroke="#ffbf00" stroke-linejoin="bevel" stroke-width="4.83364"/><path d="m1232 1454 1 65s22-17 44 0l3-64z" fill="#8a5b29"/><path d="m1097 1193c3 9-2 19 14 26 28 6 34-1 50-6-7 10-22 42-38 74-22 35-25 63-10 56 109 28 219 8 329 12-38-157-99-362-263-269-35 25-74 44-82 107z" fill="#f82323"/><path d="m1109 1218c14 8 34 8 51-3 35-42 71-59 102-63-28-5-59-20-100 39-17 3-35 12-53 27z" fill="#d40000"/><path d="m1163 1285c-50 32 61-22 159-9-25-28-52-52-159 9z" fill="#d40000"/><path d="m1104 1190 1 26c-3 48-43 71-69 49-23-43 37-71 68-75z" fill="#f82323"/><path d="m1061 1518-4-134c10-27 31-38 54-43 97-19 201-16 309 3 23 6 43 17 50 41-7 35 9 115-19 141 0-2 1-7 0-9-112-83-326-58-390 1z" fill="#ff2a2a"/><path d="m1268 1952 1 299" fill="#64af2c" stroke="#ffbf00" stroke-linejoin="bevel" stroke-width="5.52686"/></g><path d="m253.5601 99.142539v64.671651" fill="#ffbf00" stroke="#ffbf00" stroke-linejoin="bevel" stroke-width=".75279"/><g stroke-width=".172037"><path d="m215.74612 235.60001c2.06445-1.72037 3.61278-3.61278 4.64501-5.33315l8.42983-.34408c-1.3763 2.92464-3.44075 5.5052-6.53742 7.22557-2.92464 1.3763-4.81705.51611-6.53742-1.54834z" fill="#e68a5d"/><path d="m215.40204 235.94409.17204-.68815c1.89241-1.72037 3.44075-3.44075 4.47297-5.16112l.34408-.34408 8.42983-.17203.51611.51611c-1.54834 3.09667-3.61278 5.67723-6.88149 7.39761-3.09668 1.54833-5.33316.68815-7.05354-1.54834zm5.67724 1.20426 1.03222-.34407 2.06445-1.3763c1.20426-1.03223 2.23649-2.23649 3.09667-3.61279l.86019-1.3763-7.39761.17204-1.89241 2.58056-2.40852 2.40852-.34408-.34407c1.3763 1.72037 2.92464 2.58056 4.98909 1.89241z" fill="#7f4100"/><path d="m104.79809 238.81286s113.71695-28.9067 120.06601-34.17957c4.1289-2.92464 8.94594-5.16112 13.93503-6.8815 7.05353.34408 13.59095 1.20427 19.95633 2.06445l28.90228 34.57951-2.40852 3.09668 1.20426 1.37629-3.78482 2.58057-3.78483-1.89242c-.68815 3.61279-3.26871 4.1289-6.53742 3.44075-2.58056 2.40853-5.16112 3.44075-8.08575 1.54834l-4.81705 2.40852-9.63409-3.09667c-9.46206-3.78482-18.408-8.08576-27.00987-12.73077l-71.73958 26.32172-20.04638 7.13028s-20.667-14.9629-26.2156-25.76618z" fill="#f1bd89"/><path d="m151.92026 257.6208c27.52598-10.49428 41.63304-17.89189 70.70735-26.83783h.34408c6.53742 3.44075 13.07484 6.70946 19.95633 9.80613l7.05353 2.92463 9.46206 2.92464 4.64501-2.23649h.34407c2.7526 1.72038 5.16113.86019 7.56965-1.54833l.34407-.17204c3.26871.68815 5.5052.17204 6.19335-3.09667l.51611-.34408 3.61279 1.89241 4.47297-6.53742-28.73024-34.0634-9.46206-1.37629c-1.54834-.17204-3.26871-.34408-4.98908-.34408l-5.16112-.51611-3.61279 1.3763c-3.61278 1.54833-7.05353 3.26871-9.97817 5.50519h-.17203c-26.73426 10.20961-59.00118 18.59743-89.63663 26.27016l-29.04843 7.51437-.79539-1.20089 30.40098-7.56395c16.94227-4.78477 49.23491-12.28092 74.3183-21.02611l14.41709-4.68173 3.09667-2.06444c3.44075-2.06445 7.05354-3.61279 10.83836-4.98909h.17204c7.22557.51611 13.59095 1.20426 19.95633 2.23649l.34408.17203 28.90227 34.40748v.51611l-1.20426 4.1289-3.95686 3.09667h-.34407l-3.26871-1.72037-.17204.86018c-.86019 2.06445-2.58056 2.7526-4.47297 2.7526l-2.06445-.34407-1.89241 1.54833c-1.72037 1.03223-3.61279 1.3763-5.5052.68815l-.86018-.51611-4.64501 2.23649h-.17204l-9.80613-3.09668c-7.22557-2.75259-13.93503-6.0213-20.47245-9.29001l-6.36538-3.26871-12.38669 3.95685c-24.94542 8.77391-32.03346 13.808-54.49548 24.9484l-18.39006 9.36408-4.75829-4.53663z" fill="#7f4100"/><g fill="#e68a5d"><path d="m216.09019 228.54648 6.36539-.34407 35.78377 15.48336c.86019 0 2.06445-.51611 2.58056-1.89241.86019.86019 1.72037 1.3763 2.06445 2.06445l.51611.68815-3.95686 1.89241-9.46206-2.92464-7.05353-2.92463c-6.88149-3.09667-13.41891-6.36538-19.95633-9.80613h-.34408c-11.69854 3.61278-23.22504 7.74168-34.40747 12.38669l-52.62146 25.97252-12.49737-11.04229c29.80085-13.23117 61.74435-20.5391 92.98888-29.55341z"/><path d="m259.09954 239.38484c2.58056-.68815 5.50519-1.89241 7.22557-3.78483 1.72037 1.72038 3.26871 3.78483 4.47297 5.67724l.86018 1.72037c-.34407.34408-.86018.86019-1.54833 1.20426-3.44075 3.44075-7.91372-1.54833-11.01039-4.81704z"/><path d="m273.55067 242.65355h-.51611l-.51611.17203c-2.23649-1.72037-4.81705-6.19334-6.36538-8.08575 2.23648.34407 4.30093-1.03223 6.53742-3.78482 1.72037 1.72037 3.78482 4.98908 5.33316 7.3976l.51611 1.03223c-.51611 2.92463-2.40852 3.61278-4.98909 3.26871z"/><path d="m282.66866 240.93317-2.92464-1.3763c-3.61278-3.44074-5.5052-6.53742-8.77391-10.32224 2.58056-.34407 4.81705-2.23648 6.70946-4.30093 2.7526 4.64501 8.42983 7.3976 8.08576 13.76299l-.34408.34407z"/></g><g fill="#7f4100"><path d="m263.91658 244.89003-13.41891-11.69854.68815-.68815 13.24687 11.69854z"/><path d="m253.76638 224.58962.51611-.51611c4.30093 5.33316 12.73076 9.11798 18.408 18.58004l-.86019.34407c-5.67723-9.63409-13.41891-12.38669-18.06392-18.408z"/><path d="m262.54028 221.66499.68815-.51611c4.30094 6.53742 11.18243 8.7739 16.17152 18.06392l-.68815.51611c-5.16113-9.46205-11.69855-11.18243-16.17152-18.06392z"/></g><path d="m286.1094 237.32039c-2.92463-5.5052-6.53742-11.01039-12.04261-16.51559-4.1289-2.58056-7.22557-5.33316-9.29002-8.08576-2.92464-1.37629-5.16112-2.75259-6.8815-4.12889-2.58056-.17204-4.12889-.86019-5.67723-1.54834-3.44075 2.23649-6.70946 3.95686-10.1502 5.33316-3.95686-.51611-6.70946-1.3763-5.67724-4.1289 2.58056-2.40852 4.98909-5.67723 7.05353-9.63409.68815-1.03222 2.06445-1.54834 4.47298-2.23649 1.72037-.17203 7.91372-.17203 13.24687 0 4.81705 1.89242 18.23597 9.46206 26.6658 16.34355 25.46153 4.98909 46.10601 12.21466 72.59977 17.89189l3.61278.68815 30.19581 7.51378c-8.40654 10.89807-19.1204 22.29768-30.51623 30.63351l-16.02313-7.3526c-23.56912-10.49428-40.77286-18.92411-61.58938-24.77338z" fill="#f1bd89"/><path d="m291.44256 238.52465-5.16112-1.54834-2.23649-3.95686-1.89241-3.09667 73.11589 20.81652 22.09228 7.36059-13.23093 11.04229-15.57081-7.22045-1.54834-.86018c-19.26818-8.60187-38.19229-17.20374-55.56807-22.5369z" fill="#e68a5d"/><path d="m278.88383 225.44981-.17203-.17204c-1.3763-1.72037-2.7526-3.26871-4.30094-4.81704-4.1289-2.58056-7.22557-5.33316-9.29002-7.91372l-.17203-.17204c-2.92464-1.3763-5.16113-2.7526-6.70946-4.1289l-.34408-.17203c-2.40852-.17204-3.95686-.68815-5.50519-1.3763h-.34408c-1.72037 1.03222-3.44074 2.06445-5.16112 2.92463l-3.09667 1.3763-.68815-.51611c2.7526-2.23649 7.05353-4.30094 6.36538-7.74168 2.58056 1.20426 8.42983 3.44074 11.35447 2.58056 1.54834-.51611 2.40852 3.09667 3.78482 3.26871 0 5.16112 12.9028 12.21465 20.64449 9.80613z" fill="#e68a5d"/><path d="m222.45558 236.97631 13.41891-6.36538c2.58056.68815 4.30093 1.89241 4.30093 5.33316-2.75259 2.58056-6.0213 5.16112-10.49427 7.05353-5.33316-.51611-7.05354-2.92463-7.22557-6.02131z" fill="#f1bd89"/><path d="m221.93946 236.97631.34408-.51611 13.41891-6.19334h.34408c2.58056.68815 4.64501 2.06444 4.47297 5.67723l-.17204.34407c-2.7526 2.58056-6.02131 5.16113-10.49428 7.05354h-.17203c-5.67724-.34408-7.39761-2.92464-7.74169-6.36539zm7.74169 5.5052 2.92463-1.3763c1.89241-1.03222 3.61279-2.23649 4.98908-3.61278l2.06445-1.72038v-.86018c-.17203-1.72038-1.03222-2.58057-2.23648-3.26871l-1.54834-.51612-12.9028 6.02131v.86019c.34407 2.06445 1.72037 3.61278 4.98908 4.30093z" fill="#7f4100"/><path d="m229.68115 242.48151-1.72038-.17204c-3.26871-.68815-4.64501-2.23648-4.98908-4.30093v-.86019l4.64501-2.23648.51611 1.03222c1.20426 2.40852 3.26871 4.64501 6.70946 3.61278v.17204l-2.23649 1.3763z" fill="#e68a5d"/><path d="m231.91763 241.79336 9.63409-8.60187c3.26871-1.03222 5.16112 1.03223 6.02131 2.92464l-7.39761 10.49428c-4.30093.17203-6.53742-1.54834-8.25779-4.81705z" fill="#f1bd89"/><path d="m231.57356 241.9654.17203-.51611 9.46206-8.60187.17204-.17204c3.61278-1.03222 5.67723 1.3763 6.53742 3.26871v.51611l-7.39761 10.49428-.34408.17204c-4.47297.17204-6.88149-1.72037-8.60186-5.16112zm8.25779 4.30093 7.22557-10.1502-.68815-1.03223c-.86019-1.03222-2.06445-1.89241-3.61278-1.72037l-1.03223.17204-9.11798 8.42983 1.03222 1.72037c1.20427 1.54834 2.7526 2.23649 4.98909 2.40852z" fill="#7f4100"/><path d="m239.83135 246.26633-1.20426-.17204c-2.23649-.17203-3.78482-.86018-4.98909-2.40852l-1.03222-1.72037 2.58056-2.58056.86019 1.20426c1.03222 1.3763 2.58056 2.58056 4.47297 2.92463l1.3763-.17203z" fill="#e68a5d"/><path d="m240.34746 246.95448 7.22557-10.32224c1.54834.17204 3.09667.86019 4.30094 2.92463-.68815 3.26871-2.7526 6.53742-6.02131 9.97817-3.09667-.51611-5.33316-1.20426-5.5052-2.58056z" fill="#f1bd89"/><path d="m240.00339 247.12652v-.34408l7.22557-10.32224.34407-.17204c1.72038 0 3.44075.86019 4.64501 2.92464l.17204.34407c-.68815 3.44075-2.92464 6.8815-6.19335 10.15021l-.34407.17204c-2.92464-.34408-5.67724-1.03223-5.84927-2.7526zm5.67723 1.89241 2.06445-2.23649c1.3763-1.72037 2.40852-3.26871 3.09667-4.98908l.68815-2.23649-.86019-1.03222c-.68815-.68815-1.37629-1.03222-2.06444-1.20426l-.86019-.17204-6.8815 9.97817.34408.51611c.34407.34408 1.20426.68815 2.58056 1.03223z" fill="#7f4100"/><path d="m245.68062 249.01893-1.89241-.34407c-1.3763-.34408-2.23649-.68815-2.58056-1.03223l-.34408-.51611 2.40853-3.44075.17203.17204c1.03223 1.03222 2.23649 1.89241 3.61279 2.23648h1.20426l-.51611.68815z" fill="#e68a5d"/><path d="m285.59329 237.66446c-2.06445-4.12889-4.64501-8.25779-8.08576-12.38669l-3.61278-4.12889-2.92464-1.89242c-1.89241-1.37629-3.44074-2.75259-4.81704-4.12889l-1.54834-2.06445-2.06445-1.03222c-1.3763-.68815-2.58056-1.3763-3.44074-2.06445l-1.3763-1.03223-1.72038-.17203c-.51611-.17204-1.03222-.17204-1.3763-.34408l-2.40852-.86019-4.81705 2.7526c-1.72037.86019-3.44074 1.72038-5.16112 2.40852h-.17203c-3.61279-.34407-7.39761-1.37629-6.02131-4.645l.17204-.17204c2.40852-2.23649 4.645-5.5052 6.88149-9.46206v-.17203c.86019-1.03223 2.40852-1.72038 4.81705-2.23649 1.72037-.17204 7.91372-.17204 13.24687 0h.17204c4.30094 1.54834 15.13929 7.56964 23.39708 13.76299l3.26871 2.58056 12.73077 2.7526c18.408 4.12889 36.98803 9.63409 56.08418 14.10706l7.74168 1.89241 30.19136 7.04008-.51166.6454-30.36785-7.16936-3.78482-.86019c-24.77338-5.5052-48.51454-12.9028-72.25569-17.54781l-.17204-.17204c-7.91372-6.53742-20.30041-13.41892-25.63357-15.82744l-1.03222-.34407-3.95686-.17204h-8.2578l-.68815.17204-1.54833.34407c-1.03223.34408-1.72038.68815-2.23649 1.03223l-.51611.51611-1.54834 2.92463c-1.20426 1.89241-2.40852 3.44075-3.61278 4.81705l-1.72038 1.89241-.17203.68815c-.17204 1.3763 1.20426 2.06445 3.95686 2.58056l1.3763.17204 4.81704-2.23649c1.72038-.86018 3.44075-1.89241 5.16112-2.92463h.34408c1.54833.68815 3.09667 1.20426 5.50519 1.3763l.34408.17203c1.54833 1.3763 3.78482 2.7526 6.70946 4.1289l.17203.17204c2.06445 2.58056 5.16112 5.33316 9.29002 7.91372 4.1289 4.12889 7.22557 8.42983 9.63409 12.55872l2.23649 3.95686 5.16112 1.54834c17.37578 5.33316 37.84822 14.45114 57.11641 23.22505l15.57081 7.39268-.7555.77011-15.33142-7.47465c-20.12838-8.60186-39.05249-18.06392-62.44957-24.77338z" fill="#7f4100"/><path d="m240.34746 204.28921 4.30094 1.03223c-1.03223 2.40852-4.1289 5.84927-7.74169 3.09667 5.16113-5.5052 2.40853-2.7526 3.44075-4.1289z" fill="#ffe6d5"/><path d="m232.77782 233.19149c2.58056 3.44075 2.92463 3.44075 2.92463 3.44075.86019-.68815 1.89241-1.20426 2.06445-2.23649-.34407-.86018-.17204-1.54833-2.23648-2.40852z" fill="#fae4d4"/><path d="m240.34746 235.94409c2.40853 2.40852 3.26871 2.23649 3.78482 2.58056.68815-.68815.86019-1.20426 1.20427-1.54834.34407-.51611.34407-1.3763 0-1.89241-.68815-.68815-2.23649-1.54833-2.92464-1.03222-.68815.17204-1.20426.68815-2.06445 1.89241z" fill="#fae4d4"/><path d="m246.71284 239.72891c1.54834 1.54834 2.7526 1.54834 2.92464 1.54834.34407-.34408.86019-.86019 1.03222-1.72038-1.20426-1.54833-2.23648-1.37629-2.92463-1.37629z" fill="#ffe6d5"/><path d="m280.77624 238.86872c.51612-2.23648 3.44075-2.23648 3.44075-2.23648.68815 1.03222.68815 1.3763.68815 1.89241-.51611.51611-.86019.86019-2.06445 1.54834-.51611-.34408-1.03222-.17204-2.06445-1.20427z" fill="#fca"/></g></g><path d="m333.81599 48.08685c-64.15305-31.006834-99.20036-31.390677-171.07993 0 52.53937 19.818346 44.78812 83.10042-26.81919 93.68564 81.95361-42.82758 5.81931-111.571203-44.319396-78.355413-34.398806 20.121112-41.330375 52.127543-25.517386 109.259233 36.484322 83.95179 91.374632 127.18134 183.623832 143.08224 86.59647-15.08901 148.50351-54.38534 180.76759-143.08224 16.76155-59.75391 14.71087-89.024439-17.83295-109.259233-51.05085-32.120692-131.39479 34.453558-52.00352 78.355413-73.25731-12.6176-74.46658-75.678587-26.81905-93.68564z" fill="none" stroke="#373435" stroke-linecap="round" stroke-linejoin="round" stroke-width="2.30098"/></g><g fill-rule="evenodd" transform="matrix(.17203738 0 0 .17203738 1143.949249 55.822716)"><g transform="translate(-6555.0106 -1045.5353)"><g fill-rule="evenodd"><g transform="matrix(.8660254 .5 -.5 .8660254 335.224413 77.333759)"><path d="m745 829c-42 132-75 272-155 347-4-162 66-262 155-347z" fill="#66a72e" stroke="#0b572f" stroke-linecap="round" stroke-linejoin="round" stroke-width="7.36678"/><path d="m593 1167v-5l20-46c35-83 72-164 110-243l12-24-24 78c-29 91-59 176-109 232z" fill="#007f01"/><path d="m875 823c-69 105-130 225-225 254 29-159 119-219 225-254z" fill="#66a72e" stroke="#0b572f" stroke-linecap="round" stroke-linejoin="round" stroke-width="6.35234"/><path d="m654 1073 1-6 30-36c52-62 105-120 159-177l21-22-44 69c-46 73-94 140-155 167z" fill="#007f01"/><path d="m928 974c-112 72-222 161-325 151 97-140 209-161 325-151z" fill="#66a72e" stroke="#0b572f" stroke-linecap="round" stroke-linejoin="round" stroke-width="6.65585"/><path d="m632 1122h-23l3-5 45-22c76-38 152-72 228-104l29-12-72 48c-72 48-142 90-210 95z" fill="#007f01"/></g><ellipse cx="348.3605" cy="1349.2312" fill="#fce221" rx="46.048897" ry="46.048901" stroke="#e25d38" stroke-linecap="round" stroke-linejoin="round" stroke-width="8.22682"/><g transform="matrix(.96592583 .25881905 -.25881905 .96592583 43.842107 95.825838)"><path d="m628 1031c-36 113-64 234-134 299-3-140 57-226 134-299z" fill="#66a72e" stroke="#0b572f" stroke-linecap="round" stroke-linejoin="round" stroke-width="6.2685"/><path d="m498 1322v-4l16-40c31-72 63-141 95-209l10-21-21 68c-22 70-45 137-82 185z" fill="#007f01"/><path d="m532 1033c1 107 15 220-39 285-57-129-21-212 39-285z" fill="#66a72e" stroke="#0b572f" stroke-linecap="round" stroke-linejoin="round" stroke-width="5.48316"/><path d="m494 1312-2-4 4-40c7-68 17-134 29-199l4-25 2 70c2 73 0 142-31 190z" fill="#007f01"/><path d="m759 1096c-86 97-165 211-266 228 53-158 153-207 266-228z" fill="#66a72e" stroke="#0b572f" stroke-linecap="round" stroke-linejoin="round" stroke-width="6.58263"/><path d="m498 1320 2-6 36-32c62-56 124-108 187-159l24-19-54 64c-58 68-116 129-182 149z" fill="#007f01"/></g><ellipse cx="211.19456" cy="1468.1084" fill="#fce221" rx="46.048897" ry="46.048901" stroke="#e25d38" stroke-linecap="round" stroke-linejoin="round" stroke-width="8.22682"/></g><g transform="matrix(.96592583 -.25881905 .25881905 .96592583 -817.864141 757.294886)"><path d="m745 829c-42 132-75 272-155 347-4-162 66-262 155-347z" fill="#66a72e" stroke="#0b572f" stroke-linecap="round" stroke-linejoin="round" stroke-width="7.36678"/><path d="m593 1167v-5l20-46c35-83 72-164 110-243l12-24-24 78c-29 91-59 176-109 232z" fill="#007f01"/><path d="m875 823c-69 105-130 225-225 254 29-159 119-219 225-254z" fill="#66a72e" stroke="#0b572f" stroke-linecap="round" stroke-linejoin="round" stroke-width="6.35234"/><path d="m654 1073 1-6 30-36c52-62 105-120 159-177l21-22-44 69c-46 73-94 140-155 167z" fill="#007f01"/><path d="m928 974c-112 72-222 161-325 151 97-140 209-161 325-151z" fill="#66a72e" stroke="#0b572f" stroke-linecap="round" stroke-linejoin="round" stroke-width="6.65585"/><path d="m632 1122h-23l3-5 45-22c76-38 152-72 228-104l29-12-72 48c-72 48-142 90-210 95z" fill="#007f01"/></g><ellipse cx="53.079357" cy="1658.3776" rx="46.048897" ry="46.048901" style="fill:#fce221;fill-rule:evenodd;stroke:#e25d38;stroke-width:8.22682;stroke-linecap:round;stroke-linejoin:round"/><g transform="matrix(.8660254 -.5 .5 .8660254 -1004.120411 970.354209)"><path d="m628 1031c-36 113-64 234-134 299-3-140 57-226 134-299z" fill="#66a72e" stroke="#0b572f" stroke-linecap="round" stroke-linejoin="round" stroke-width="6.2685"/><path d="m498 1322v-4l16-40c31-72 63-141 95-209l10-21-21 68c-22 70-45 137-82 185z" fill="#007f01"/><path d="m532 1033c1 107 15 220-39 285-57-129-21-212 39-285z" fill="#66a72e" stroke="#0b572f" stroke-linecap="round" stroke-linejoin="round" stroke-width="5.48316"/><path d="m494 1312-2-4 4-40c7-68 17-134 29-199l4-25 2 70c2 73 0 142-31 190z" fill="#007f01"/><path d="m759 1096c-86 97-165 211-266 228 53-158 153-207 266-228z" fill="#66a72e" stroke="#0b572f" stroke-linecap="round" stroke-linejoin="round" stroke-width="6.58263"/><path d="m498 1320 2-6 36-32c62-56 124-108 187-159l24-19-54 64c-58 68-116 129-182 149z" fill="#007f01"/></g><ellipse cx="103.42133" cy="1828.6589" rx="46.048897" ry="46.048901" style="fill:#fce221;fill-rule:evenodd;stroke:#e25d38;stroke-width:8.22682;stroke-linecap:round;stroke-linejoin:round"/><g transform="matrix(.8660254 -.5 .5 .8660254 -1030.192212 909.196522)"><path d="m426 1235c-8 81 77 142-46 225-27-81-32-166 46-225z" fill="#66a72e" stroke="#0b572f" stroke-linecap="round" stroke-linejoin="round" stroke-width="8.22533"/><path d="m414 1250 1-1 6-5v6c2 72 61 123-23 192l-9 7 2-6c20-62 9-121 20-178z" fill="#007f01"/><path d="m327 1740c15-69 30-139 22-204-51-96-14-135-25-221 36 27 67 65 76 106 13-57 45-110 73-150 12 42 24 83 22 129 38-35 75-39 113-42-116 88-35 148-211 278l-42 124z" fill="#66a72e" stroke="#0b572f" stroke-linecap="round" stroke-linejoin="round" stroke-width="8.22533"/><path d="m350 1750 26-122c92-70 121-213 202-260l8-4h10l-10 8c-89 80-26 139-191 261-1 1-2 1-2 2l-38 113zm-21-425 18 15c24 24 43 52 49 82 0 3 4 4 6 2v1c14 44 12 100-15 180-11-88-21-170-47-251zm142-44v-1l6 20 4 20c5 22 8 43 9 64l1 7v9 1 3c1 67-21 123-89 159 28-71 47-143 59-215z" fill="#007f01"/></g><ellipse cx="23.520205" cy="2076.8242" rx="46.048897" ry="46.048901" style="fill:#fce221;fill-rule:evenodd;stroke:#e25d38;stroke-width:8.22682;stroke-linecap:round;stroke-linejoin:round"/><g transform="matrix(.8660254 -.5 .5 .8660254 -1042.930024 799.667164)"><path d="m205 1568c68 184 158 370 120 525-160-177-161-352-120-525z" fill="#66a72e" stroke="#0b572f" stroke-linecap="round" stroke-linejoin="round" stroke-width="8.22533"/><path d="m322 2084-22-26-9-12-13-42c-39-125-62-249-71-371l-2-42 1-9 48 125c48 126 88 248 72 356z" fill="#007f01"/><path d="m489 1642c-10 98-98 204-199 290-42-86 121-199 199-290z" fill="#66a72e" stroke="#0b572f" stroke-linecap="round" stroke-linejoin="round" stroke-width="8.22533"/><path d="m292 1925-3-7 194-260v1c-17 80-81 164-159 237z" fill="#007f01"/><path d="m317 1555c25 152 71 312 0 418-116-169-78-298 0-418z" fill="#66a72e" stroke="#0b572f" stroke-linecap="round" stroke-linejoin="round" stroke-width="8.22533"/><path d="m317 1965-4-5-2-59c-3-99-1-196 3-292l2-38 18 99c18 105 30 204-9 281z" fill="#007f01"/><path d="m420 1639c-25 151-40 312-108 405-23-180 32-300 108-405z" fill="#66a72e" stroke="#0b572f" stroke-linecap="round" stroke-linejoin="round" stroke-width="8.22533"/><path d="m315 2032-1-6 13-52c24-97 50-191 77-284l8-24-14 86c-16 104-35 203-78 271z" fill="#007f01"/></g><ellipse cx="249.83244" cy="2373.3396" rx="46.048897" ry="46.048901" style="fill:#fce221;fill-rule:evenodd;stroke:#e25d38;stroke-width:8.22682;stroke-linecap:round;stroke-linejoin:round"/><g transform="matrix(.8660254 -.5 .5 .8660254 -1083.107912 812.582644)"><g fill-rule="evenodd" transform="translate(0 -.000014)"><path d="m446 1951c-15 125-7 256-125 344-90-137-6-244 124-343z" fill="#66a72e"/><path d="m446 1951c-15 125-7 256-125 344-90-137-6-244 124-343" fill="none" stroke="#0b572f" stroke-linecap="round" stroke-linejoin="round" stroke-width="7.99387"/><path d="m348 2267-23 20-3-5 14-47c26-81 57-161 90-240l13-30-8 81c-8 81-22 159-83 221z" fill="#007f01"/></g><path d="m190 1953c103 88 155 263 174 436-131-23-132-283-174-436z" fill="#66a72e" stroke="#0b572f" stroke-linecap="round" stroke-linejoin="round" stroke-width="11.0608"/><path d="m357 2381-10-3-143-404c78 79 124 212 146 351z" fill="#007f01"/><path d="m371 2468c-37-121-76-93-17-211 2-79 76-120-128-371 63 157 42 316 88 520 5 21 8 50 1 72z" fill="#66a72e" stroke="#0b572f" stroke-linecap="round" stroke-linejoin="round" stroke-width="8.22533"/><path d="m251 1924 22 31c74 105 114 150 77 307z" fill="#007f01"/></g><ellipse cx="319.22049" cy="2640.5037" rx="46.048897" ry="46.048901" style="fill:#fce221;fill-rule:evenodd;stroke:#e25d38;stroke-width:8.22682;stroke-linecap:round;stroke-linejoin:round"/><g transform="matrix(.96592583 -.25881905 .25881905 .96592583 -598.440824 374.55365)"><path d="m272 2400c99 79 218 148 219 257-178-33-217-136-219-257z" fill="#66a72e" stroke="#0b572f" stroke-linecap="round" stroke-linejoin="round" stroke-width="8.22533"/><path d="m486 2652-5-1-32-34c-54-60-104-121-152-182l-18-25 66 51c69 53 130 107 140 177z" fill="#007f01"/><path d="m466 2362c55 122 61 267-24 339-91-151-69-258 25-339z" fill="#66a72e"/><path d="m466 2362c55 122 61 267-24 339-91-151-69-258 25-339" fill="none" stroke="#0b572f" stroke-linecap="round" stroke-linejoin="round" stroke-width="8.22533"/><path d="m443 2695-3-5 6-46 19-277c44 105 64 222-9 318z" fill="#05933f"/><path d="m631 2825c-111-65-130-155-171-280-19-61-79-151-138-165 13 52 26 104 50 156-44-31-90-63-137-94 56 154 145 275 312 374 19 12 40 32 52 53z" fill="#66a72e" stroke="#0b572f" stroke-linecap="round" stroke-linejoin="round" stroke-width="8.22533"/><path d="m330 2394-2-7 14 5c50 27 97 101 114 154 36 110 55 194 136 257l11 8-7 20c-136-145-139-300-258-429zm-86 61v-2l58 40c23 15 45 31 67 46 1 1 2 1 3 1h2l15 38c18 42 41 83 66 125-66-94-113-163-206-244z" fill="#007f01"/></g><ellipse cx="612.37994" cy="2858.179" fill="#fce221" rx="46.048897" ry="46.048901" stroke="#e25d38" stroke-linecap="round" stroke-linejoin="round" stroke-width="8.22682"/><g transform="matrix(.96592583 -.25881905 .25881905 .96592583 -683.01756 321.640762)"><path d="m415 2761c122 44 261 74 299 178-182 25-255-62-299-178z" fill="#66a72e" stroke="#0b572f" stroke-linecap="round" stroke-linejoin="round" stroke-width="8.3824"/><path d="m426 2769 81 28c84 29 161 61 195 125l6 14h-6l-42-22c-73-41-142-83-208-127zm-5-3-1-3 2 3z" fill="#007f01"/><path d="m641 2689c71 103 164 204 132 308-160-81-166-191-132-308z" fill="#66a72e" stroke="#0b572f" stroke-linecap="round" stroke-linejoin="round" stroke-width="8.22682"/><path d="m770 2991-5-3-20-41c-34-73-63-145-90-217l-10-28 48 67c50 70 92 138 80 208z" fill="#007f01"/><path d="m920 3085-149-128-212-227c26 94 59 185 147 254-66-35-147-53-231-66 81 70 171 125 289 125l122 53z" fill="#66a72e" stroke="#0b572f" stroke-linecap="round" stroke-linejoin="round" stroke-width="8.22533"/><path d="m568 2746 199 213 1 1 144 123-7 3-8-5c-137-85-247-192-316-311zm-79 179 47 8c61 12 119 28 168 55 2 1 4 0 5-1l1-3 23 20c-70-4-156-35-234-74z" fill="#007f01"/></g><path d="m1589 3398c-62-71-258-193-355-214-8.9544-8.1942-152-20-336-19l-195-60-28-12c101-45 210-42 318 0-71-71-138-139-120-192 85 41 189 94 254 182l107.97 69.1199 95.03 27.8801c62.5324 26.9544 215 70 323 105-83 56 10 71-64 113z" fill="#66a72e" stroke="#0b572f" stroke-linecap="round" stroke-linejoin="round" stroke-width="8.22533"/><g fill="#007f01"><path d="m1231 3178.955-209-39.955c-74-38-177-40-275-43l-47 5-19-9c81-34 189-49 311 5 3 2 7-2 5-6l-1-1 13 8c7 3 14 7 20 12 27 17 70 20 111 22-72-67-165-101-218-161l-44-63-2-1 77 36c52 39 109 56 171 141l-4-3 109 90c0 1 1 1 2 1z"/><path d="m1592 3397c-39-42-240.9401-185.6715-306.9401-197.6715-22-4-24.1498-15.94-46.1498-18.94l-7.9101-7.3885 30.8357 9.687c88 10 189.1643 71.313 329.1643 159.313z"/></g></g><path d="m-4901.0107 2241.4648c5.0001 25.9999 19.0001 75-64.9998 108-9-67.0001 28.9999-106 64.9998-108z" fill="#ee9948" stroke="#0b572f" stroke-linecap="round" stroke-linejoin="round" stroke-width="8.06354"/></g><g fill-rule="evenodd" transform="matrix(-.17203738 0 0 .17203738 -645.008101 55.822382)"><g transform="translate(-6555.0106 -1045.5353)"><g fill-rule="evenodd"><g transform="matrix(.8660254 .5 -.5 .8660254 335.224413 77.333759)"><path d="m745 829c-42 132-75 272-155 347-4-162 66-262 155-347z" fill="#66a72e" stroke="#0b572f" stroke-linecap="round" stroke-linejoin="round" stroke-width="7.36678"/><path d="m593 1167v-5l20-46c35-83 72-164 110-243l12-24-24 78c-29 91-59 176-109 232z" fill="#007f01"/><path d="m875 823c-69 105-130 225-225 254 29-159 119-219 225-254z" fill="#66a72e" stroke="#0b572f" stroke-linecap="round" stroke-linejoin="round" stroke-width="6.35234"/><path d="m654 1073 1-6 30-36c52-62 105-120 159-177l21-22-44 69c-46 73-94 140-155 167z" fill="#007f01"/><path d="m928 974c-112 72-222 161-325 151 97-140 209-161 325-151z" fill="#66a72e" stroke="#0b572f" stroke-linecap="round" stroke-linejoin="round" stroke-width="6.65585"/><path d="m632 1122h-23l3-5 45-22c76-38 152-72 228-104l29-12-72 48c-72 48-142 90-210 95z" fill="#007f01"/></g><ellipse cx="348.3605" cy="1349.2312" fill="#fce221" rx="46.048897" ry="46.048901" stroke="#e25d38" stroke-linecap="round" stroke-linejoin="round" stroke-width="8.22682"/><g transform="matrix(.96592583 .25881905 -.25881905 .96592583 43.842107 95.825838)"><path d="m628 1031c-36 113-64 234-134 299-3-140 57-226 134-299z" fill="#66a72e" stroke="#0b572f" stroke-linecap="round" stroke-linejoin="round" stroke-width="6.2685"/><path d="m498 1322v-4l16-40c31-72 63-141 95-209l10-21-21 68c-22 70-45 137-82 185z" fill="#007f01"/><path d="m532 1033c1 107 15 220-39 285-57-129-21-212 39-285z" fill="#66a72e" stroke="#0b572f" stroke-linecap="round" stroke-linejoin="round" stroke-width="5.48316"/><path d="m494 1312-2-4 4-40c7-68 17-134 29-199l4-25 2 70c2 73 0 142-31 190z" fill="#007f01"/><path d="m759 1096c-86 97-165 211-266 228 53-158 153-207 266-228z" fill="#66a72e" stroke="#0b572f" stroke-linecap="round" stroke-linejoin="round" stroke-width="6.58263"/><path d="m498 1320 2-6 36-32c62-56 124-108 187-159l24-19-54 64c-58 68-116 129-182 149z" fill="#007f01"/></g><ellipse cx="211.19456" cy="1468.1084" fill="#fce221" rx="46.048897" ry="46.048901" stroke="#e25d38" stroke-linecap="round" stroke-linejoin="round" stroke-width="8.22682"/></g><g transform="matrix(.96592583 -.25881905 .25881905 .96592583 -817.864141 757.294886)"><path d="m745 829c-42 132-75 272-155 347-4-162 66-262 155-347z" fill="#66a72e" stroke="#0b572f" stroke-linecap="round" stroke-linejoin="round" stroke-width="7.36678"/><path d="m593 1167v-5l20-46c35-83 72-164 110-243l12-24-24 78c-29 91-59 176-109 232z" fill="#007f01"/><path d="m875 823c-69 105-130 225-225 254 29-159 119-219 225-254z" fill="#66a72e" stroke="#0b572f" stroke-linecap="round" stroke-linejoin="round" stroke-width="6.35234"/><path d="m654 1073 1-6 30-36c52-62 105-120 159-177l21-22-44 69c-46 73-94 140-155 167z" fill="#007f01"/><path d="m928 974c-112 72-222 161-325 151 97-140 209-161 325-151z" fill="#66a72e" stroke="#0b572f" stroke-linecap="round" stroke-linejoin="round" stroke-width="6.65585"/><path d="m632 1122h-23l3-5 45-22c76-38 152-72 228-104l29-12-72 48c-72 48-142 90-210 95z" fill="#007f01"/></g><ellipse cx="53.079357" cy="1658.3776" rx="46.048897" ry="46.048901" style="fill:#fce221;fill-rule:evenodd;stroke:#e25d38;stroke-width:8.22682;stroke-linecap:round;stroke-linejoin:round"/><g transform="matrix(.8660254 -.5 .5 .8660254 -1004.120411 970.354209)"><path d="m628 1031c-36 113-64 234-134 299-3-140 57-226 134-299z" fill="#66a72e" stroke="#0b572f" stroke-linecap="round" stroke-linejoin="round" stroke-width="6.2685"/><path d="m498 1322v-4l16-40c31-72 63-141 95-209l10-21-21 68c-22 70-45 137-82 185z" fill="#007f01"/><path d="m532 1033c1 107 15 220-39 285-57-129-21-212 39-285z" fill="#66a72e" stroke="#0b572f" stroke-linecap="round" stroke-linejoin="round" stroke-width="5.48316"/><path d="m494 1312-2-4 4-40c7-68 17-134 29-199l4-25 2 70c2 73 0 142-31 190z" fill="#007f01"/><path d="m759 1096c-86 97-165 211-266 228 53-158 153-207 266-228z" fill="#66a72e" stroke="#0b572f" stroke-linecap="round" stroke-linejoin="round" stroke-width="6.58263"/><path d="m498 1320 2-6 36-32c62-56 124-108 187-159l24-19-54 64c-58 68-116 129-182 149z" fill="#007f01"/></g><ellipse cx="103.42133" cy="1828.6589" rx="46.048897" ry="46.048901" style="fill:#fce221;fill-rule:evenodd;stroke:#e25d38;stroke-width:8.22682;stroke-linecap:round;stroke-linejoin:round"/><g transform="matrix(.8660254 -.5 .5 .8660254 -1030.192212 909.196522)"><path d="m426 1235c-8 81 77 142-46 225-27-81-32-166 46-225z" fill="#66a72e" stroke="#0b572f" stroke-linecap="round" stroke-linejoin="round" stroke-width="8.22533"/><path d="m414 1250 1-1 6-5v6c2 72 61 123-23 192l-9 7 2-6c20-62 9-121 20-178z" fill="#007f01"/><path d="m327 1740c15-69 30-139 22-204-51-96-14-135-25-221 36 27 67 65 76 106 13-57 45-110 73-150 12 42 24 83 22 129 38-35 75-39 113-42-116 88-35 148-211 278l-42 124z" fill="#66a72e" stroke="#0b572f" stroke-linecap="round" stroke-linejoin="round" stroke-width="8.22533"/><path d="m350 1750 26-122c92-70 121-213 202-260l8-4h10l-10 8c-89 80-26 139-191 261-1 1-2 1-2 2l-38 113zm-21-425 18 15c24 24 43 52 49 82 0 3 4 4 6 2v1c14 44 12 100-15 180-11-88-21-170-47-251zm142-44v-1l6 20 4 20c5 22 8 43 9 64l1 7v9 1 3c1 67-21 123-89 159 28-71 47-143 59-215z" fill="#007f01"/></g><ellipse cx="23.520205" cy="2076.8242" rx="46.048897" ry="46.048901" style="fill:#fce221;fill-rule:evenodd;stroke:#e25d38;stroke-width:8.22682;stroke-linecap:round;stroke-linejoin:round"/><g transform="matrix(.8660254 -.5 .5 .8660254 -1042.930024 799.667164)"><path d="m205 1568c68 184 158 370 120 525-160-177-161-352-120-525z" fill="#66a72e" stroke="#0b572f" stroke-linecap="round" stroke-linejoin="round" stroke-width="8.22533"/><path d="m322 2084-22-26-9-12-13-42c-39-125-62-249-71-371l-2-42 1-9 48 125c48 126 88 248 72 356z" fill="#007f01"/><path d="m489 1642c-10 98-98 204-199 290-42-86 121-199 199-290z" fill="#66a72e" stroke="#0b572f" stroke-linecap="round" stroke-linejoin="round" stroke-width="8.22533"/><path d="m292 1925-3-7 194-260v1c-17 80-81 164-159 237z" fill="#007f01"/><path d="m317 1555c25 152 71 312 0 418-116-169-78-298 0-418z" fill="#66a72e" stroke="#0b572f" stroke-linecap="round" stroke-linejoin="round" stroke-width="8.22533"/><path d="m317 1965-4-5-2-59c-3-99-1-196 3-292l2-38 18 99c18 105 30 204-9 281z" fill="#007f01"/><path d="m420 1639c-25 151-40 312-108 405-23-180 32-300 108-405z" fill="#66a72e" stroke="#0b572f" stroke-linecap="round" stroke-linejoin="round" stroke-width="8.22533"/><path d="m315 2032-1-6 13-52c24-97 50-191 77-284l8-24-14 86c-16 104-35 203-78 271z" fill="#007f01"/></g><ellipse cx="249.83244" cy="2373.3396" rx="46.048897" ry="46.048901" style="fill:#fce221;fill-rule:evenodd;stroke:#e25d38;stroke-width:8.22682;stroke-linecap:round;stroke-linejoin:round"/><g transform="matrix(.8660254 -.5 .5 .8660254 -1083.107912 812.582644)"><g fill-rule="evenodd" transform="translate(0 -.000014)"><path d="m446 1951c-15 125-7 256-125 344-90-137-6-244 124-343z" fill="#66a72e"/><path d="m446 1951c-15 125-7 256-125 344-90-137-6-244 124-343" fill="none" stroke="#0b572f" stroke-linecap="round" stroke-linejoin="round" stroke-width="7.99387"/><path d="m348 2267-23 20-3-5 14-47c26-81 57-161 90-240l13-30-8 81c-8 81-22 159-83 221z" fill="#007f01"/></g><path d="m190 1953c103 88 155 263 174 436-131-23-132-283-174-436z" fill="#66a72e" stroke="#0b572f" stroke-linecap="round" stroke-linejoin="round" stroke-width="11.0608"/><path d="m357 2381-10-3-143-404c78 79 124 212 146 351z" fill="#007f01"/><path d="m371 2468c-37-121-76-93-17-211 2-79 76-120-128-371 63 157 42 316 88 520 5 21 8 50 1 72z" fill="#66a72e" stroke="#0b572f" stroke-linecap="round" stroke-linejoin="round" stroke-width="8.22533"/><path d="m251 1924 22 31c74 105 114 150 77 307z" fill="#007f01"/></g><ellipse cx="319.22049" cy="2640.5037" rx="46.048897" ry="46.048901" style="fill:#fce221;fill-rule:evenodd;stroke:#e25d38;stroke-width:8.22682;stroke-linecap:round;stroke-linejoin:round"/><g transform="matrix(.96592583 -.25881905 .25881905 .96592583 -598.440824 374.55365)"><path d="m272 2400c99 79 218 148 219 257-178-33-217-136-219-257z" fill="#66a72e" stroke="#0b572f" stroke-linecap="round" stroke-linejoin="round" stroke-width="8.22533"/><path d="m486 2652-5-1-32-34c-54-60-104-121-152-182l-18-25 66 51c69 53 130 107 140 177z" fill="#007f01"/><path d="m466 2362c55 122 61 267-24 339-91-151-69-258 25-339z" fill="#66a72e"/><path d="m466 2362c55 122 61 267-24 339-91-151-69-258 25-339" fill="none" stroke="#0b572f" stroke-linecap="round" stroke-linejoin="round" stroke-width="8.22533"/><path d="m443 2695-3-5 6-46 19-277c44 105 64 222-9 318z" fill="#05933f"/><path d="m631 2825c-111-65-130-155-171-280-19-61-79-151-138-165 13 52 26 104 50 156-44-31-90-63-137-94 56 154 145 275 312 374 19 12 40 32 52 53z" fill="#66a72e" stroke="#0b572f" stroke-linecap="round" stroke-linejoin="round" stroke-width="8.22533"/><path d="m330 2394-2-7 14 5c50 27 97 101 114 154 36 110 55 194 136 257l11 8-7 20c-136-145-139-300-258-429zm-86 61v-2l58 40c23 15 45 31 67 46 1 1 2 1 3 1h2l15 38c18 42 41 83 66 125-66-94-113-163-206-244z" fill="#007f01"/></g><ellipse cx="612.37994" cy="2858.179" fill="#fce221" rx="46.048897" ry="46.048901" stroke="#e25d38" stroke-linecap="round" stroke-linejoin="round" stroke-width="8.22682"/><g transform="matrix(.96592583 -.25881905 .25881905 .96592583 -683.01756 321.640762)"><path d="m415 2761c122 44 261 74 299 178-182 25-255-62-299-178z" fill="#66a72e" stroke="#0b572f" stroke-linecap="round" stroke-linejoin="round" stroke-width="8.3824"/><path d="m426 2769 81 28c84 29 161 61 195 125l6 14h-6l-42-22c-73-41-142-83-208-127zm-5-3-1-3 2 3z" fill="#007f01"/><path d="m641 2689c71 103 164 204 132 308-160-81-166-191-132-308z" fill="#66a72e" stroke="#0b572f" stroke-linecap="round" stroke-linejoin="round" stroke-width="8.22682"/><path d="m770 2991-5-3-20-41c-34-73-63-145-90-217l-10-28 48 67c50 70 92 138 80 208z" fill="#007f01"/><path d="m920 3085-149-128-212-227c26 94 59 185 147 254-66-35-147-53-231-66 81 70 171 125 289 125l122 53z" fill="#66a72e" stroke="#0b572f" stroke-linecap="round" stroke-linejoin="round" stroke-width="8.22533"/><path d="m568 2746 199 213 1 1 144 123-7 3-8-5c-137-85-247-192-316-311zm-79 179 47 8c61 12 119 28 168 55 2 1 4 0 5-1l1-3 23 20c-70-4-156-35-234-74z" fill="#007f01"/></g><path d="m1589 3398c-62-71-258-193-355-214-57.7291 3.1487-152-20-336-19l-195-60-28-12c101-45 210-42 318 0-71-71-138-139-120-192 85 41 189 94 254 182l104 85 99 12c51.1895 32.6259 215 70 323 105-83 56 10 71-64 113z" fill="#66a72e" stroke="#0b572f" stroke-linecap="round" stroke-linejoin="round" stroke-width="8.22533"/><g fill="#007f01"><path d="m1234.3729 3180.5303-212.3729-41.5303c-74-38-177-40-275-43l-47 5-19-9c81-34 189-49 311 5 3 2 7-2 5-6l-1-1 13 8c7 3 14 7 20 12 27 17 70 20 111 22-72-67-165-101-218-161l-44-63-2-1 77 36c52 39 109 56 171 141l-4-3 109 90c0 1 1 1 2 1l11.7683 8.7908z"/><path d="m1592 3397c-39-42-234.0737-172.8621-296.7314-196.8207-14.9107-5.7015-38.8957-16.649-60.8957-19.649l.9625-1.1418 36.5672 6.4178c88 10 179.0974 68.1937 319.0974 156.1937z"/></g></g><path d="m-4901.0107 2241.4648c5.0001 25.9999 19.0001 75-64.9998 108-9-67.0001 28.9999-106 64.9998-108z" fill="#ee9948" stroke="#0b572f" stroke-linecap="round" stroke-linejoin="round" stroke-width="8.06354"/></g><g transform="matrix(3.99089697 0 0 3.99089697 54.05583 -417.010414)"><path d="m40.380687 206.0821c.0496 2.37688 3.16916 4.11002 5.59557 5.34798.79229.44567 1.68363-.39615 1.78266-1.0894-3.11966-2.47592-4.30809-4.85281-4.50618-5.94221-.89132.39615-3.46627-.39614-2.87205 1.68363z" fill="#759cdb" fill-rule="evenodd" stroke-width=".049518"/><path d="m40.479717 206.23065c.0496 2.37688 3.16918 4.11003 5.59558 5.34798.79229.44566 1.68362-.39614 1.78266-1.0894-3.11966-2.47591-4.30811-4.85279-4.50618-5.9422-.89133.39614-3.46628-.39615-2.87206 1.68362z" fill="none" stroke="#6f84db" stroke-width=".231841"/><g fill-rule="evenodd"><g stroke-width=".049518"><path d="m50.284357 211.08345 1.68362.89134c1.8817-1.83218 5.6946-3.96147 5.44701-6.1898l-3.36724-.39615c.49518.84181-2.47592 4.01098-3.76339 5.69461z" fill="#759cdb"/><g fill="#e6e6e6"><path d="m40.974897 204.99269c.59423-.099.29711-.69325 1.08941-.49518.59422 1.73314 3.07013 5.05087 5.54606 6.43739.24759.14855-1.38652-.19808-1.08941.34662-2.4264-1.48554-5.74413-4.55568-5.54606-6.28883z"/><path d="m55.038107 205.48787c-.49518 1.63411-1.88169 3.91195-3.76339 5.19943l-.099.64374c2.07977-.99036 4.75376-3.51581 5.54605-6.14028z"/></g></g><g transform="matrix(.04951835 0 0 .04951835 -13.445764 54.654986)"><path d="m1261 3213c11 46 14 98 38 132l87-18c-69-71-66-98-84-140z" fill="#759cdb"/><path d="m1426 3376c28 19 31 67 40 107 11-10 20-28 58-22-9-39-13-83-44-112z" fill="#759cdb"/><path d="m1274 3210 15-8c10 28 38 100 74 136l-39 5c-31-33-36-87-50-133z" fill="#e6e6e6"/><path d="m1447 3362c-6-30 20-10 21-9 17 24 37 83 38 107-26 4-24 9-31 16 9-22-15-90-28-114z" fill="#e6e6e6"/><path d="m1261 3213c11 46 14 98 38 132l87-18c-69-71-66-98-84-140z" fill="none" stroke="#6f84db" stroke-width="4.68193"/><path d="m1426 3376c28 19 31 67 40 107 11-10 20-28 58-22-9-39-13-83-44-112z" fill="none" stroke="#6f84db" stroke-width="4.68193"/><path d="m1381 3401c43-24 99-52 104-40-2-9-10-17-16-24-2-2-4-4-5-5-10-13-17-21-33-29-22 7-42 16-59 23-105 29-76-13-80-1-10 31 16 96 89 76z" fill="#75aadb"/><path d="m1293 3356c22-6 22 17 77-5 26-8 56-28 84-28 17 4 22 21 31 31-22-13-32-6-69 12-40 24-87 41-107 20-6-5-16-24-16-30z" fill="#fff"/><path d="m1381 3401c43-24 99-52 104-40-2-9-10-17-16-24-2-2-4-4-5-5-10-13-17-21-33-29-22 7-42 16-59 23-105 29-76-13-80-1-10 31 16 96 89 76z" fill="none" stroke="#6f92db" stroke-width="4.68193"/></g><path d="m47.659887 213.06418 1.53506.84181c-.79229 3.51581-2.47592 5.74413-3.61483 7.13065l-4.70426-.69325c1.23797-.44568 5.34799-4.25858 6.78403-7.27921z" fill="#759cdb" stroke-width=".049518"/></g><path d="m47.659887 213.06418 1.53506.84181c-.79229 3.51581-2.47592 5.74413-3.61483 7.13065l-4.70426-.69325c1.23797-.44568 5.34799-4.25858 6.78403-7.27921z" fill="none" stroke="#6f84db" stroke-width=".231841"/><g fill-rule="evenodd" stroke-width=".049518"><path d="m35.973547 226.5827c1.03988-.59423 2.17881 0 3.31773.74277-.099-4.01099-.14856-5.44702.34662-6.78401l-1.63409-1.28748c-1.48556 1.18844-1.73315 5.05086-2.03026 7.32872z" fill="#759cdb"/><g fill="#e6e6e6"><path d="m47.610367 214.00504c-.2476 1.98072-3.36725 5.59556-5.34799 6.63545 2.12929 2.17881 5.9422-4.80328 6.23931-6.09075-.14855-.14856-.64373 0-.89132-.5447z"/><path d="m38.300917 219.35301c1.6341-1.48555-1.08941 5.49654-.099 7.32872-.64374-.14855-.94085-.2971-1.28748-.19807-.14855-1.8817.39615-5.64509 1.38651-7.13065z"/></g></g><path d="m35.973547 226.5827c1.03988-.59423 2.17881 0 3.31773.74277-.099-4.01099-.14856-5.44702.34662-6.78401l-1.63409-1.28748c-1.48556 1.18844-1.73315 5.05086-2.03026 7.32872z" fill="none" stroke="#6f84db" stroke-width=".231841"/><path d="m37.310537 220.0958c1.23797-1.58459 2.32736-1.83218 3.81292-1.23797 1.03989.89133 2.92158 2.52544 4.75376 1.73315-.44567 1.48554-1.78266 2.32736-4.90232 1.33699-1.83218-.59422-3.21868-1.88169-3.66436-1.83217z" fill="#75aadb" fill-rule="evenodd" stroke-width=".049518"/><path d="m37.805727 219.40253c.44567-.44566 1.48555-1.43602 2.9711.29711 1.58459 2.07977 3.2187 1.83218 4.80329 1.53507-.59423 1.43604-3.46629 1.48556-4.40715.49518-2.22832-2.1788-2.77302-2.12929-3.36724-2.32736z" fill="#fff" fill-rule="evenodd" stroke-width=".049518"/><path d="m37.310537 220.0958c1.23797-1.58459 2.32736-1.83218 3.81292-1.23797 1.03989.89133 2.92158 2.52544 4.75376 1.73315-.44567 1.48554-1.78266 2.32736-4.90232 1.33699-1.83218-.59422-3.21868-1.88169-3.66436-1.83217z" fill="none" stroke="#6f92db" stroke-width=".231841"/><path d="m50.284357 211.08345 1.68362.89134c1.8817-1.83218 5.6946-3.96147 5.44701-6.1898l-3.36724-.39615c.49518.84181-2.47592 4.01098-3.76339 5.69461z" fill="none" stroke="#6f84db" stroke-width=".231841"/><g fill-rule="evenodd"><path d="m43.054667 202.61581c8.46764 1.43604 8.12101.29711 12.57766.0496 2.27784.84182 2.17881 1.83218 1.68363 3.86243-4.65473-2.32736-6.78401.5447-9.40848-.39614-3.56533-1.28748-7.37824-.7923-7.42776.099-.29711-1.78265.64374-3.16916 2.57495-3.61483z" fill="#75aadb" stroke-width=".049518"/><path d="m41.323757 203.48867c-.69325.5447-.94897 1.54837-.89944 1.94451 1.6341-.59422 3.52169-1.2823 6.14616-.68808 3.16918 1.08941 4.20906.0496 5.99172-.24759 3.96147-.34663 4.65472.44566 4.85279 1.28748.14856-.64374.39615-1.63411-.29711-2.27785-1.78266-.49518-3.21868-.19807-4.6052.14855-2.52543.84182-4.95184.49519-7.57631-.14855-1.83218-.39615-2.67175-.16702-3.61261-.0185z" fill="#fff"/><path d="m46.322887 211.43008c.19807-.5447.44566-1.03988 1.08941-1.28747 1.13891-.34663 2.17879-.29711 3.16916-.099.84181.0496 1.28749.74277 1.73315 1.53507.0496.49518.099.94084-.24759 1.58459-.84182 1.43603-1.48556 1.0894-2.22834 1.38651-.5447-.0496-.94084-.0496-1.83217-.19808-.99037-.0496-1.73314-.74277-1.73314-.99036-.099-.59421-.099-1.23796.0496-1.93121z" fill="#75aadb"/><path d="m48.501687 210.04357c-.8418.94084-.74277 2.47981-.19807 4.36151.31849-.0863.68006.0279 1.13892.14466 1.98073-2.03026.94085-3.96147.59423-4.60522-.34663-.14854-1.23797-.14854-1.53508.099z" fill="#fff" stroke-width=".049518"/></g><g fill="none" stroke="#6f92db" stroke-width=".231841"><path d="m46.322887 211.43008c.19807-.5447.44566-1.03988 1.08941-1.28747 1.13891-.34663 2.17879-.29711 3.16916-.099.84181.0496 1.28749.74277 1.73315 1.53507.0496.49518.099.94084-.24759 1.58459-.84182 1.43603-1.48556 1.0894-2.22834 1.38651-.5447-.0496-.94084-.0496-1.83217-.19808-.99037-.0496-1.73314-.74277-1.73314-.99036-.099-.59421-.099-1.23796.0496-1.93121z"/><path d="m43.054667 202.61581c8.46764 1.43604 8.12101.29711 12.57766.0496 2.27784.84182 2.17881 1.83218 1.68363 3.86243-4.65473-2.32736-6.78401.5447-9.40848-.39614-3.56533-1.28748-7.37824-.7923-7.42776.099-.29711-1.78265.64374-3.16916 2.57495-3.61483z"/></g></g></svg>