<svg height="196.52841mm" viewBox="0 0 132.29167 196.5284" width="132.29167mm" xmlns="http://www.w3.org/2000/svg" xmlns:xlink="http://www.w3.org/1999/xlink"><radialGradient id="a" cx="127.98094" cy="156.13376" gradientTransform="matrix(1.0360086 -.00448579 .00603987 1.3949276 -3.243754 -72.390623)" gradientUnits="userSpaceOnUse" r="45.383911"><stop offset="0" stop-color="#75aadb"/><stop offset="1" stop-color="#5895f1"/></radialGradient><radialGradient id="b" cx="127.87633" cy="140.08594" gradientTransform="matrix(1.0360183 0 0 1.3802262 -2.301969 -49.644822)" gradientUnits="userSpaceOnUse" r="45.41367"><stop offset="0" stop-color="#fff"/><stop offset="1" stop-color="#f0f0f0"/></radialGradient><radialGradient id="c" cx="196.20282" cy="131.15411" gradientTransform="matrix(1 0 0 1.0644727 0 -8.182545)" gradientUnits="userSpaceOnUse" r="20.247595"><stop offset="0" stop-color="#ffff02"/><stop offset="1" stop-color="#ffd602"/></radialGradient><radialGradient id="d" cx="122.6563" cy="193.64095" gradientTransform="matrix(1 0 0 .2948979 -.198438 137.52883)" gradientUnits="userSpaceOnUse" r="13.353742"><stop offset="0" stop-color="#000002"/><stop offset="1" stop-color="#000002" stop-opacity="0"/></radialGradient><g transform="translate(-63.911098 -39.590078)"><g stroke-linecap="round" stroke-linejoin="round" transform="matrix(.99999763 0 0 .99999763 .000152 .000094)"><g><path d="m148.88736 227.25052c1.66112 1.1272 6.33701 6.98447 8.12771 8.72913.65259-.59326 2.37715-3.08327 4.82998-5.24085-3.27899-5.32334-8.17958-4.72561-10.01868-6.44607z" style="fill:#759cdb;fill-rule:evenodd;stroke:#6f84db;stroke-width:.278077;stroke-linecap:round;stroke-linejoin:round"/><path d="m158.61465 233.89465c-2.09909-2.95064-5.1717-5.71637-7.93183-8.50174l.20103-1.32508 2.24637 1.39118c2.39201 2.16282 4.92104 4.30696 6.80535 6.89286z" fill="#e6e6e6"/></g><g><path d="m111.86956 227.25079c-1.66112 1.1272-6.33701 6.98447-8.12771 8.72913-.65259-.59326-2.37715-3.08327-4.82998-5.24085 3.27899-5.32334 8.17958-4.72561 10.01868-6.44607z" style="fill:#759cdb;fill-rule:evenodd;stroke:#6f84db;stroke-width:.278077;stroke-linecap:round;stroke-linejoin:round"/><path d="m102.14227 233.89492c2.09909-2.95064 5.1717-5.71637 7.93183-8.50175l-.65502-.86726-1.80892 1.1318c-2.39201 2.16282-4.9045 4.10852-6.78881 6.69442z" fill="#e6e6e6"/></g></g><path d="m115.76503 42.695177c-.93482 3.551794.0956 6.475672 1.88228 9.23073 1.3816 2.130413 2.28936 4.400764 2.24618 6.840077-.62847.344288-1.22777.715389-1.80627 1.114741l-14.43915-9.317292 9.69371 13.872857c-.17417.233615-.34385.476431-.50723.716682-2.74947-1.20328-5.33047-1.441875-7.78994-.979675-3.4768.653381-6.428576-.05402-9.510877-1.838719 1.924164 3.153677 4.794877 4.512593 8.063527 5.233351 2.53261.558456 4.82185 1.538422 6.56886 3.29967-.19009.66366-.34708 1.334917-.46646 2.01633l-16.995883 3.348261 16.957573 3.150461c.0466.283431.10277.566029.16234.848982-2.82077 1.036825-4.82627 2.637137-6.22927 4.653965-1.98291 2.850404-4.571073 4.378645-8.049578 5.23407 3.655995.908185 6.660618-.104696 9.496498-1.840456 2.19293-1.342211 4.52988-2.224106 7.04076-2.182149.35438.610555.73637 1.192769 1.14744 1.754773l-9.5856 14.039444 14.28699-9.434156c.23862.167777.48021.340213.72554.497667-1.23858 2.671109-1.47914 5.190376-1.00338 7.579739.67255 3.37771-.0606 6.23355-1.8977 9.22797 3.24621-1.86929 4.645-4.6582 5.38689-7.83369.57484-2.460439 1.58356-4.684425 3.39648-6.381641.6845.185204 1.37262.336943 2.07548.453158l3.4465 16.511483 3.24289-16.474258c.29174-.04527.58263-.09983.87389-.157712 1.06664 2.741192 2.71499 4.68903 4.7905 6.05173 2.93403 1.92638 4.50712 4.44079 5.38764 7.82014.93483-3.55178-.10777-6.47077-1.89445-9.22582-1.38428-2.13458-2.2819-4.398042-2.234-6.844986.62435-.342541 1.21911-.712916 1.79408-1.109841l14.45133 9.312397-9.69876-13.884685c.17041-.229.34005-.464603.5001-.699961 2.75026 1.206754 5.3414 1.437212 7.80211.97478 3.47681-.653408 6.41643.05894 9.49871 1.843618-1.92415-3.15368-4.78983-4.500772-8.05848-5.221526-2.52977-.557824-4.81641-1.556661-6.56172-3.316397.18962-.662522.3351-1.331223.45426-2.01143l17.00094-3.336434-16.96262-3.162287c-.0466-.283432-.10277-.56603-.16234-.848991 2.82336-1.035864 4.82607-2.636861 6.22928-4.653953 1.9829-2.850406 4.57612-4.366828 8.05461-5.222246-3.65599-.908184-6.66565.09286-9.50154 1.828622-2.19717 1.344825-4.52706 2.216867-7.04579 2.170328-.3526-.606556-.73384-1.184357-1.14241-1.742944l9.59065-14.027618-14.29708 9.410503c-.23573-.165555-.47822-.330358-.72049-.485846 1.24048-2.670336 1.48417-5.178555 1.00841-7.567911-.67255-3.377708.0556-6.245355 1.89267-9.239795-3.2462 1.869317-4.63282 4.653311-5.37472 7.828793-.57549 2.463193-1.60179 4.694408-3.42082 6.391432-.67988-.183435-1.36537-.342654-2.06332-.458055l-3.43433-16.516366-3.25506 16.479139c-.29174.04528-.58263.09984-.87389.157718-1.06705-2.741099-2.71419-4.688492-4.7905-6.051725-2.93403-1.926388-4.49494-4.445683-5.37546-7.825046z" fill="#a16736" stroke="#3f0f00" stroke-linecap="round" stroke-linejoin="round" stroke-width=".690304"/><g fill-rule="evenodd"><g fill="#3f0f00" transform="matrix(.99999763 0 0 .99999763 .000152 .000094)"><g><path d="m145.26902 71.353166c-4.26654-3.604288-9.64609-4.144932-12.61411-1.441715l-1.11301-.360429c4.08103-3.24386 9.64609-3.604289 13.72712 1.802144"/><path d="m138.59096 70.27188c-2.41152 0-2.96803.540643-4.08104 1.441715-1.11301.901073-1.66951.720858-1.85501.901073-.1855.180214 0 .720857.371.540643.371-.180215 1.11301-.540643 2.22602-1.441716 1.11301-.901072 2.22602-.901072 3.33903-.901072 3.33903 0 5.19405 2.703217 5.56505 2.523002.37101-.180214-1.85501-3.063645-5.56505-3.063645"/><path d="m142.8575 73.335525c-2.41152-2.523002-6.86356-2.703216-8.71858.180215h.74201c1.85502-2.883431 6.30706-1.62193 6.67806-.360429v.360429"/><ellipse cx="138.21996" cy="73.155312" rx="1.669515" ry="1.62193"/><path d="m134.13892 73.51574c1.85502 1.62193 5.93606 1.802144 8.71858-.180215l-1.29851-.180214c-1.85502 1.982359-4.82304 1.802144-6.67806.360429v-.360429"/><path d="m143.043 74.236597c-3.15353 2.342788-6.30705 2.162574-8.16207 1.081287s-1.85502-1.441715-1.48402-1.441715c.37101 0 .74201.360428 2.22602 1.081286 1.48402.720858 3.71004.720858 7.42007-.720858"/></g><g><path d="m114.84485 71.353166c4.26654-3.604288 9.64609-4.144932 12.61411-1.441715l1.11301-.360429c-4.08103-3.24386-9.64609-3.604289-13.72712 1.802144"/><path d="m121.52291 70.27188c2.41152 0 2.96803.540643 4.08104 1.441715 1.11301.901073 1.66951.720858 1.85501.901073.1855.180214 0 .720857-.371.540643-.371-.180215-1.11301-.540643-2.22602-1.441716-1.11301-.901072-2.22602-.901072-3.33903-.901072-3.33903 0-5.19405 2.703217-5.56505 2.523002-.37101-.180214 1.85501-3.063645 5.56505-3.063645"/><path d="m117.25637 73.335525c2.41152-2.523002 6.86356-2.703216 8.71858.180215h-.74201c-1.85502-2.883431-6.30706-1.62193-6.67806-.360429v.360429"/><ellipse cx="-121.89391" cy="73.155312" rx="1.669515" ry="1.62193" transform="scale(-1 1)"/><path d="m125.97495 73.51574c-1.85502 1.62193-5.93606 1.802144-8.71858-.180215l1.29851-.180214c1.85502 1.982359 4.82304 1.802144 6.67806.360429v-.360429"/><path d="m117.07087 74.236597c3.15353 2.342788 6.30705 2.162574 8.16207 1.081287s1.85502-1.441715 1.48402-1.441715c-.37101 0-.74201.360428-2.22602 1.081286-1.48402.720858-3.71004.720858-7.42007-.720858"/></g></g><g transform="matrix(.99999763 0 0 .99999763 -99.999609 .000094)"><g transform="matrix(.06166368 0 0 .06166368 152.91582 23.677082)"><path d="m2165 2203c-50-86-115-164-98-284 108 36 116 150 98 283z" fill="#5e7620"/><path d="m2165 2203c-50-86-115-164-98-284 108 36 116 150 98 283" fill="none" stroke="#131814" stroke-linecap="round" stroke-linejoin="round" stroke-width="6.14095"/><path d="m2067 1951 2-25 3 1 15 38c25 65 47 132 67 200l8 26-34-55c-34-56-63-112-61-185z" fill="#2c3f18"/></g><g transform="matrix(.06166368 0 0 .06166368 152.91598 23.677082)"><g><path d="m1757 829c42 132 75 272 155 347 4-162-66-262-155-347z" fill="#5e7620" stroke="#131814" stroke-linecap="round" stroke-linejoin="round" stroke-width="7.36678"/><path d="m1908 1167-8-8c-50-56-81-141-109-231l-24-79 12 24c38 79 75 160 110 243l19 46z" fill="#2c3f18"/></g><g><path d="m1645 847c69 105 112 201 207 230-29-159-100-194-206-229z" fill="#5e7620"/><path d="m1645 847c69 105 112 201 207 230-29-159-100-194-206-229" fill="none" stroke="#131814" stroke-linecap="round" stroke-linejoin="round" stroke-width="6.35234"/><path d="m1848 1073-12-5c-62-27-109-94-155-167l-30-52 7 5c102 74 145 128 159 177l30 36z" fill="#2c3f18"/></g><g><path d="m1574 974c112 72 222 161 325 151-97-140-209-161-325-151z" fill="#5e7620" stroke="#131814" stroke-linecap="round" stroke-linejoin="round" stroke-width="6.65585"/><path d="m1654 1023-66-44 29 12c76 32 152 66 228 104l45 22 3 5h-13c-72-1-148-47-226-99z" fill="#2c3f18"/></g><g><path d="m1874 1031c36 113 64 234 133 299 4-140-56-226-133-299z" fill="#5e7620" stroke="#131814" stroke-linecap="round" stroke-linejoin="round" stroke-width="6.2685"/><path d="m2004 1322-18-21c-37-48-60-115-82-185l-21-68 10 21c32 68 64 137 95 209l16 40z" fill="#2c3f18"/></g><g><path d="m1970 1033c-1 107-15 220 39 285 56-129 21-212-39-285z" fill="#5e7620" stroke="#131814" stroke-linecap="round" stroke-linejoin="round" stroke-width="5.48316"/><path d="m2008 1312-6-8c-31-48-33-117-31-190l2-70 4 25c11 65 21 131 29 199l4 40z" fill="#2c3f18"/></g><g><path d="m1743 1096c85 97 165 211 266 228-53-158-153-207-266-228z" style="stroke-linejoin:round;stroke-linecap:round;stroke-width:6.58263;fill:#5e7620;stroke:#131814;stroke-opacity:.960784"/><path d="m2004 1320-13-3c-66-20-124-81-182-149l-55-64 25 19c63 51 125 103 187 159l36 33z" fill="#2c3f18"/></g><g><path d="m2076 1235c8 81-77 142 46 225 27-81 32-166-46-225z" fill="#5e7620" stroke="#131814" stroke-linecap="round" stroke-linejoin="round" stroke-width="8.22533"/><path d="m2113 1449-9-7c-84-69-25-120-23-192v-6l6 5 1 1 3 15c11 57 0 116 20 178z" fill="#2c3f18"/></g><g><path d="m2175 1740c-15-69-30-139-22-204 51-96 14-135 25-221-36 27-67 65-76 106-13-57-45-110-73-150-12 42-25 83-22 129-38-35-75-39-113-42 116 88 35 148 211 278l42 124z" fill="#5e7620" stroke="#131814" stroke-linecap="round" stroke-linejoin="round" stroke-width="8.22533"/><path d="m2152 1750-5-2-38-113c0-1-1-1-2-2-166-123-102-181-191-261l-10-8h10l8 4c81 47 110 190 202 260zm-52-326c2 2 6 1 6-2 6-30 25-58 49-82l18-15-11 29c-26 81-36 163-47 251-27-80-29-136-15-180zm-89-23v-1-9l1-7c1-21 4-42 9-64l4-20 6-20v1l10 67c12 72 31 144 59 215-68-36-90-92-89-159z" fill="#2c3f18"/></g><g><path d="m2297 1568c-68 184-158 370-120 525 160-177 161-352 120-525z" fill="#5e7620" stroke="#131814" stroke-linecap="round" stroke-linejoin="round" stroke-width="8.22533"/><path d="m2180 2084-4-21c-16-108 24-230 72-356l47-125 2 9-2 42c-9 122-32 246-71 371l-13 42-9 12z" fill="#2c3f18"/></g><g><path d="m2012 1642c11 98 99 204 200 290 42-86-122-199-200-290z" fill="#5e7620" stroke="#131814" stroke-linecap="round" stroke-linejoin="round" stroke-width="8.22533"/><path d="m2210 1925-32-29c-79-73-143-157-159-237v-1l194 259z" fill="#2c3f18"/></g><g><path d="m2185 1555c-25 152-71 312 0 418 116-169 78-298 0-418z" fill="#5e7620" stroke="#131814" stroke-linecap="round" stroke-linejoin="round" stroke-width="8.22533"/><path d="m2185 1965-8-14c-39-77-27-176-9-281l18-99 2 38c4 96 5 193 3 292l-2 59z" fill="#2c3f18"/></g><g><path d="m2082 1639c25 151 40 312 108 405 23-180-33-300-108-405z" fill="#5e7620" stroke="#131814" stroke-linecap="round" stroke-linejoin="round" stroke-width="8.22533"/><path d="m2187 2032-5-9c-43-68-62-167-78-271l-14-87 7 25c28 93 54 187 78 284l13 52z" fill="#2c3f18"/></g><g><path d="m2312 1953c-103 88-155 263-174 436 131-23 132-283 174-436z" fill="#5e7620" stroke="#131814" stroke-linecap="round" stroke-linejoin="round" stroke-width="11.0608"/><path d="m2145 2381 7-56c22-139 68-272 145-351l2-1-144 405z" fill="#2c3f18"/></g><g><path d="m2136 2419c36-120-5-43-77-248-19-56-16-180 39-191 21 57 62 112 68 210-15-93 52-264 107-304-63 156-40 316-85 520-5 21-8 50-1 72z" fill="#5e7620" stroke="#131814" stroke-linecap="round" stroke-linejoin="round" stroke-width="8.22533"/><path d="m2084 1989c7-2 5-8 9-5 9 185 63 212 60 363-2 8-24-35-6-11-68-82-140-256-63-347zm82 165c-9-49 69-252 87-244l4-4-13 25c-56 115-49 148-63 258-3-12 5 115-1 99-5-12-16-123-14-134z" fill="#2c3f18"/></g><g><path d="m2230 2400c-99 79-218 148-219 257 178-33 217-136 219-257z" fill="#5e7620" stroke="#131814" stroke-linecap="round" stroke-linejoin="round" stroke-width="8.22533"/><path d="m2016 2652 1-14c10-70 71-124 140-177l66-51-18 25c-48 61-98 122-152 182l-32 34z" fill="#2c3f18"/></g><g><path d="m2002 2373c-4 124-27 256 58 328 91-151 35-246-58-328z" fill="#5e7620" stroke="#131814" stroke-linecap="round" stroke-linejoin="round" stroke-width="8.22533"/><path d="m2059 2695-11-11c-48-53-50-133-46-217l4-82 7 30c17 74 32 151 43 229l6 46z" fill="#2c3f18"/></g><g><path d="m1870 2825c112-65 131-155 172-280 19-61 79-151 138-165-13 52-26 104-50 156 44-31 90-63 137-94-56 154-145 275-312 374-19 12-40 32-52 53z" fill="#5e7620" stroke="#131814" stroke-linecap="round" stroke-linejoin="round" stroke-width="8.22533"/><path d="m1906 2831-7-20 11-8c81-63 100-147 135-257 17-53 65-127 115-154l14-5-2 7-9 8c-118 129-121 284-257 429zm222-291h2c1 0 2 0 3-1 22-15 44-31 67-46l58-40-1 2-4 4c-93 82-140 150-206 244 25-42 48-83 66-125z" fill="#2c3f18"/></g><g><path d="m2087 2761c-122 44-261 74-299 178 182 25 255-62 299-178z" fill="#5e7620" stroke="#131814" stroke-linecap="round" stroke-linejoin="round" stroke-width="8.3824"/><path d="m1800 2936-11-1 5 1 6-14c34-64 111-96 195-125l81-28-26 18c-67 44-135 86-208 127z" fill="#2c3f18"/></g><g><path d="m1860 2689c-71 103-163 204-131 308 160-81 166-191 131-308z" fill="#5e7620" stroke="#131814" stroke-linecap="round" stroke-linejoin="round" stroke-width="8.22533"/><path d="m1732 2991-3-14c-12-70 30-138 80-208l48-68-10 29c-27 72-56 144-90 217l-20 41z" fill="#2c3f18"/></g><g><path d="m1582 3085 149-128 212-227c-26 94-59 185-147 254 66-35 147-53 231-66-81 70-171 125-290 125l-121 53z" fill="#5e7620" stroke="#131814" stroke-linecap="round" stroke-linejoin="round" stroke-width="8.22533"/><path d="m1597 3086-7-3 144-123v-1l200-213h-1l-12 24c-69 119-179 226-316 311zm172-82 23-20 1 3c1 1 3 2 5 1 49-27 107-43 168-55l47-8-10 5c-78 39-164 70-234 74z" fill="#2c3f18"/></g><g><path d="m877 3386c102-32 288-170 393-188 109-17 221-26 335-25l195-82 27 2c-101-45-210-42-318 0 84-44 128-125 108-184-85 42-177 86-242 174l-104 85c-107 33-235 65-352 97-1.25176 10.2645-38.29128 5.9687-62.11304-3.9164l-80.0001 123c19.66761 3.378 55.36139 9.9216 100.11314 1.9164z" fill="#5e7620" stroke="#131814" stroke-linecap="round" stroke-linejoin="round" stroke-width="8.22533"/><g fill="#2c3f18"><path d="m1271 3172c1 0 2 0 2-1l105-85v-1c57-77 105-106 174-141l62-31 5 18-59 49c-54 60-126 85-198 152 41-2 84-5 111-22 6-5 13-9 20-12l13-8-1 1c-2 4 2 8 5 6 94-37 189-44 278-15l13 6c-1-1-2 0-2 0l-19 8h-25c-98 3-201 5-275 43l-209 34z"/><path d="m896 3376-19.95923 6.2347-37.1439 4.2939-49.80548-3.8213 28.00748-38.8069 107.90113-30.9004c10-3 43-31 325-118l29-2-5 1c-127 33-253 125-378 182z"/></g></g></g><path d="m200.82131 232.35213c1.97324-.80163 4.19313-2.65153 4.9331-7.58463-4.37812-.49331-5.30308 2.89819-4.9331 7.58463z" fill="#dcac4e" stroke="#131814" stroke-linecap="round" stroke-linejoin="round" stroke-width=".513758"/></g><g transform="matrix(-.99999763 0 0 .99999763 360.11347 -.062846)"><g transform="matrix(.06166368 0 0 .06166368 152.91582 23.677082)"><path d="m2165 2203c-50-86-115-164-98-284 108 36 116 150 98 283z" fill="#5e7620"/><path d="m2165 2203c-50-86-115-164-98-284 108 36 116 150 98 283" fill="none" stroke="#131814" stroke-linecap="round" stroke-linejoin="round" stroke-width="6.14095"/><path d="m2067 1951 2-25 3 1 15 38c25 65 47 132 67 200l8 26-34-55c-34-56-63-112-61-185z" fill="#2c3f18"/></g><g transform="matrix(.06166368 0 0 .06166368 152.91598 23.677082)"><g><path d="m1757 829c42 132 75 272 155 347 4-162-66-262-155-347z" fill="#5e7620" stroke="#131814" stroke-linecap="round" stroke-linejoin="round" stroke-width="7.36678"/><path d="m1908 1167-8-8c-50-56-81-141-109-231l-24-79 12 24c38 79 75 160 110 243l19 46z" fill="#2c3f18"/></g><g><path d="m1645 847c69 105 112 201 207 230-29-159-100-194-206-229z" fill="#5e7620"/><path d="m1645 847c69 105 112 201 207 230-29-159-100-194-206-229" fill="none" stroke="#131814" stroke-linecap="round" stroke-linejoin="round" stroke-width="6.35234"/><path d="m1848 1073-12-5c-62-27-109-94-155-167l-30-52 7 5c102 74 145 128 159 177l30 36z" fill="#2c3f18"/></g><g><path d="m1574 974c112 72 222 161 325 151-97-140-209-161-325-151z" fill="#5e7620" stroke="#131814" stroke-linecap="round" stroke-linejoin="round" stroke-width="6.65585"/><path d="m1654 1023-66-44 29 12c76 32 152 66 228 104l45 22 3 5h-13c-72-1-148-47-226-99z" fill="#2c3f18"/></g><g><path d="m1874 1031c36 113 64 234 133 299 4-140-56-226-133-299z" fill="#5e7620" stroke="#131814" stroke-linecap="round" stroke-linejoin="round" stroke-width="6.2685"/><path d="m2004 1322-18-21c-37-48-60-115-82-185l-21-68 10 21c32 68 64 137 95 209l16 40z" fill="#2c3f18"/></g><g><path d="m1970 1033c-1 107-15 220 39 285 56-129 21-212-39-285z" fill="#5e7620" stroke="#131814" stroke-linecap="round" stroke-linejoin="round" stroke-width="5.48316"/><path d="m2008 1312-6-8c-31-48-33-117-31-190l2-70 4 25c11 65 21 131 29 199l4 40z" fill="#2c3f18"/></g><g><path d="m1743 1096c85 97 165 211 266 228-53-158-153-207-266-228z" style="stroke-linejoin:round;stroke-linecap:round;stroke-width:6.58263;fill:#5e7620;stroke:#131814;stroke-opacity:.960784"/><path d="m2004 1320-13-3c-66-20-124-81-182-149l-55-64 25 19c63 51 125 103 187 159l36 33z" fill="#2c3f18"/></g><g><path d="m2076 1235c8 81-77 142 46 225 27-81 32-166-46-225z" fill="#5e7620" stroke="#131814" stroke-linecap="round" stroke-linejoin="round" stroke-width="8.22533"/><path d="m2113 1449-9-7c-84-69-25-120-23-192v-6l6 5 1 1 3 15c11 57 0 116 20 178z" fill="#2c3f18"/></g><g><path d="m2175 1740c-15-69-30-139-22-204 51-96 14-135 25-221-36 27-67 65-76 106-13-57-45-110-73-150-12 42-25 83-22 129-38-35-75-39-113-42 116 88 35 148 211 278l42 124z" fill="#5e7620" stroke="#131814" stroke-linecap="round" stroke-linejoin="round" stroke-width="8.22533"/><path d="m2152 1750-5-2-38-113c0-1-1-1-2-2-166-123-102-181-191-261l-10-8h10l8 4c81 47 110 190 202 260zm-52-326c2 2 6 1 6-2 6-30 25-58 49-82l18-15-11 29c-26 81-36 163-47 251-27-80-29-136-15-180zm-89-23v-1-9l1-7c1-21 4-42 9-64l4-20 6-20v1l10 67c12 72 31 144 59 215-68-36-90-92-89-159z" fill="#2c3f18"/></g><g><path d="m2297 1568c-68 184-158 370-120 525 160-177 161-352 120-525z" fill="#5e7620" stroke="#131814" stroke-linecap="round" stroke-linejoin="round" stroke-width="8.22533"/><path d="m2180 2084-4-21c-16-108 24-230 72-356l47-125 2 9-2 42c-9 122-32 246-71 371l-13 42-9 12z" fill="#2c3f18"/></g><g><path d="m2012 1642c11 98 99 204 200 290 42-86-122-199-200-290z" fill="#5e7620" stroke="#131814" stroke-linecap="round" stroke-linejoin="round" stroke-width="8.22533"/><path d="m2210 1925-32-29c-79-73-143-157-159-237v-1l194 259z" fill="#2c3f18"/></g><g><path d="m2185 1555c-25 152-71 312 0 418 116-169 78-298 0-418z" fill="#5e7620" stroke="#131814" stroke-linecap="round" stroke-linejoin="round" stroke-width="8.22533"/><path d="m2185 1965-8-14c-39-77-27-176-9-281l18-99 2 38c4 96 5 193 3 292l-2 59z" fill="#2c3f18"/></g><g><path d="m2082 1639c25 151 40 312 108 405 23-180-33-300-108-405z" fill="#5e7620" stroke="#131814" stroke-linecap="round" stroke-linejoin="round" stroke-width="8.22533"/><path d="m2187 2032-5-9c-43-68-62-167-78-271l-14-87 7 25c28 93 54 187 78 284l13 52z" fill="#2c3f18"/></g><g><path d="m2312 1953c-103 88-155 263-174 436 131-23 132-283 174-436z" fill="#5e7620" stroke="#131814" stroke-linecap="round" stroke-linejoin="round" stroke-width="11.0608"/><path d="m2145 2381 7-56c22-139 68-272 145-351l2-1-144 405z" fill="#2c3f18"/></g><g><path d="m2136 2419c36-120-5-43-77-248-19-56-16-180 39-191 21 57 62 112 68 210-15-93 52-264 107-304-63 156-40 316-85 520-5 21-8 50-1 72z" fill="#5e7620" stroke="#131814" stroke-linecap="round" stroke-linejoin="round" stroke-width="8.22533"/><path d="m2084 1989c7-2 5-8 9-5 9 185 63 212 60 363-2 8-24-35-6-11-68-82-140-256-63-347zm82 165c-9-49 69-252 87-244l4-4-13 25c-56 115-49 148-63 258-3-12 5 115-1 99-5-12-16-123-14-134z" fill="#2c3f18"/></g><g><path d="m2230 2400c-99 79-218 148-219 257 178-33 217-136 219-257z" fill="#5e7620" stroke="#131814" stroke-linecap="round" stroke-linejoin="round" stroke-width="8.22533"/><path d="m2016 2652 1-14c10-70 71-124 140-177l66-51-18 25c-48 61-98 122-152 182l-32 34z" fill="#2c3f18"/></g><g><path d="m2002 2373c-4 124-27 256 58 328 91-151 35-246-58-328z" fill="#5e7620" stroke="#131814" stroke-linecap="round" stroke-linejoin="round" stroke-width="8.22533"/><path d="m2059 2695-11-11c-48-53-50-133-46-217l4-82 7 30c17 74 32 151 43 229l6 46z" fill="#2c3f18"/></g><g><path d="m1870 2825c112-65 131-155 172-280 19-61 79-151 138-165-13 52-26 104-50 156 44-31 90-63 137-94-56 154-145 275-312 374-19 12-40 32-52 53z" fill="#5e7620" stroke="#131814" stroke-linecap="round" stroke-linejoin="round" stroke-width="8.22533"/><path d="m1906 2831-7-20 11-8c81-63 100-147 135-257 17-53 65-127 115-154l14-5-2 7-9 8c-118 129-121 284-257 429zm222-291h2c1 0 2 0 3-1 22-15 44-31 67-46l58-40-1 2-4 4c-93 82-140 150-206 244 25-42 48-83 66-125z" fill="#2c3f18"/></g><g><path d="m2087 2761c-122 44-261 74-299 178 182 25 255-62 299-178z" fill="#5e7620" stroke="#131814" stroke-linecap="round" stroke-linejoin="round" stroke-width="8.3824"/><path d="m1800 2936-11-1 5 1 6-14c34-64 111-96 195-125l81-28-26 18c-67 44-135 86-208 127z" fill="#2c3f18"/></g><g><path d="m1860 2689c-71 103-163 204-131 308 160-81 166-191 131-308z" fill="#5e7620" stroke="#131814" stroke-linecap="round" stroke-linejoin="round" stroke-width="8.22533"/><path d="m1732 2991-3-14c-12-70 30-138 80-208l48-68-10 29c-27 72-56 144-90 217l-20 41z" fill="#2c3f18"/></g><g><path d="m1582 3085 149-128 212-227c-26 94-59 185-147 254 66-35 147-53 231-66-81 70-171 125-290 125l-121 53z" fill="#5e7620" stroke="#131814" stroke-linecap="round" stroke-linejoin="round" stroke-width="8.22533"/><path d="m1597 3086-7-3 144-123v-1l200-213h-1l-12 24c-69 119-179 226-316 311zm172-82 23-20 1 3c1 1 3 2 5 1 49-27 107-43 168-55l47-8-10 5c-78 39-164 70-234 74z" fill="#2c3f18"/></g><g><path d="m877 3386c102-32 288-170 393-188 109-17 221-26 335-25l195-82 27 2c-101-45-210-42-318 0 84-44 128-125 108-184-85 42-177 86-242 174l-104 85c-107 33-235 65-352 97-1.25176 10.2645-38.29128 5.9687-62.11304-3.9164l-80.0001 123c19.66761 3.378 55.36139 9.9216 100.11314 1.9164z" fill="#5e7620" stroke="#131814" stroke-linecap="round" stroke-linejoin="round" stroke-width="8.22533"/><g fill="#2c3f18"><path d="m1271 3172c1 0 2 0 2-1l105-85v-1c57-77 105-106 174-141l62-31 5 18-59 49c-54 60-126 85-198 152 41-2 84-5 111-22 6-5 13-9 20-12l13-8-1 1c-2 4 2 8 5 6 94-37 189-44 278-15l13 6c-1-1-2 0-2 0l-19 8h-25c-98 3-201 5-275 43l-209 34z"/><path d="m896 3376-19.95923 6.2347-37.1439 4.2939-49.80548-3.8213 28.00748-38.8069 107.90113-30.9004c10-3 43-31 325-118l29-2-5 1c-127 33-253 125-378 182z"/></g></g></g><path d="m200.82131 232.35213c1.97324-.80163 4.19313-2.65153 4.9331-7.58463-4.37812-.49331-5.30308 2.89819-4.9331 7.58463z" fill="#dcac4e" stroke="#131814" stroke-linecap="round" stroke-linejoin="round" stroke-width=".513758"/></g></g><g transform="matrix(.99999763 0 0 .99999763 -.092373 .000094)"><g fill-rule="evenodd"><path d="m177.22964 143.73628c0 34.59332-21.08899 62.6503-47.04939 62.6503-25.96041 0-47.049397-28.05698-47.049397-62.6503 0-34.65499 21.088987-62.711974 47.049397-62.711974 25.9604 0 47.04939 28.056984 47.04939 62.711974z" fill="url(#b)" stroke-width=".061664"/><path d="m83.130853 144.47625c0-34.59335 21.027317-62.650312 47.049397-62.650312 25.9604 0 46.98773 28.056962 46.98773 62.650312v.36997l-46.98773-.36997z" fill="url(#a)" stroke-width=".061664"/><g transform="matrix(1.0360183 0 0 1.0360183 -2.301969 -1.426146)"><path d="m134.19534 123.91719c-4.19376-.64973-8.56472-.94507-13.46728.11819-19.49212 8.32845 36.50344 7.14712 13.46728-.11819z" fill="#7b112a" stroke-width=".059067"/><path d="m133.02248 123.80289c-3.37432-.52277-6.89122-.76041-10.83585.0951-15.68349 6.70111 29.37089 5.75062 10.83585-.0951z" fill="#520000" stroke-width=".047526"/><g transform="matrix(.03486365 0 0 .03486365 84.25381 73.397391)"><path d="m1223 1455 2 1382c0 20 15 36 32 36s31-16 31-36l-2-1382z" fill="#5e1e13"/><path d="m1223 1455 2 1382c0 20 15 36 32 36s31-16 31-36l-2-1382" fill="none" stroke="#20110d" stroke-linecap="round" stroke-linejoin="bevel" stroke-width="3.95855"/><path d="m1240.8269 1408.6284v1438.3581" fill="none" stroke="#6d3025" stroke-linejoin="bevel" stroke-width="11.3836"/><path d="m1232 1454 1 65s22-17 44 0l3-64z" fill="#391e13"/></g><g transform="matrix(.05906707 0 0 .05906707 53.864145 37.738349)"><path d="m1097 1193c3 9-2 19 14 26 28 6 34-1 50-6-7 10-22 42-38 74-22 35-25 63-10 56 109 28 219 8 329 12-38-157-99-362-263-269-35 25-74 44-82 107z" fill="#da112a"/><path d="m1109 1218c14 8 34 8 51-3 35-42 71-59 102-63-28-5-59-20-100 39-17 3-35 12-53 27z" fill="#7b112a"/><path d="m1163 1285c-50 32 61-22 159-9-25-28-52-52-159 9z" fill="#7b112a"/><path d="m1104 1190 1 26c-3 48-43 71-69 49-23-43 37-71 68-75z" fill="#da112a"/><path d="m1061 1518-4-134c10-27 31-38 54-43 97-19 201-16 309 3 23 6 43 17 50 41-7 35 9 115-19 141 0-2 1-7 0-9-112-83-326-58-390 1z" fill="#be112a"/></g><g transform="matrix(.05976872 0 0 .05976872 52.184473 13.782842)"><path d="m1044 2481c12-10 21-21 27-31l49-2c-8 17-20 32-38 42-17 8-28 3-38-9z" fill="#d48860"/><path d="m1042 2483 1-4c11-10 20-20 26-30l2-2 49-1 3 3c-9 18-21 33-40 43-18 9-31 4-41-9zm33 7 6-2 12-8c7-6 13-13 18-21l5-8-43 1-11 15-14 14-2-2c8 10 17 15 29 11z" fill="#7f4100"/><path d="m526.80988 2424.382 49.60075-9.7572c166-27 353.58937-66.6248 520.58937-113.6248 24-17 52-30 81-40 41 2 79 7 116 12l168 201-14 18 7 8-22 15-22-11c-4 21-19 24-38 20-15 14-30 20-47 9l-28 14-56-18c-55-22-107-47-157-74l-417 153-91.23697-14.8877c-34-58-27.95315-108.7303-49.95315-168.7303z" fill="#e9a081"/><path d="m673 2609c160-61 242-104 411-156h2c38 20 76 39 116 57l41 17 55 17 27-13h2c16 10 30 5 44-9l2-1c19 4 32 1 36-18l3-2 21 11 26-38-167-198-55-8c-9-1-19-2-29-2l-30-3-21 8c-21 9-41 19-58 32h-1c-171 49-356 86-525 113l-46.19012 8.382.5429-5.3544 42.64722-8.0276c145-23 298-52 443-90l83-22 18-12c20-12 41-21 63-29h1c42 3 79 7 116 13l2 1 168 200v3l-7 24-23 18h-2l-19-10-1 5c-5 12-15 16-26 16l-12-2-11 9c-10 6-21 8-32 4l-5-3-27 13h-1l-57-18c-42-16-81-35-119-54l-37-19-72 23c-145 51-197 83-338 136l-71.72672 28.1533-5.75211-4.4978z" fill="#7f4100"/><g fill="#d48860"><path d="m637 2558 409-118 37-2 208 90c5 0 12-3 15-11 5 5 10 8 12 12l3 4-23 11-55-17-41-17c-40-18-78-37-116-57h-2c-68 21-135 45-200 72l-211 86-75.47883 29.6555-20.30504-60.6369z"/><path d="m1296 2503c15-4 32-11 42-22 10 10 19 22 26 33l5 10c-2 2-5 5-9 7-20 20-46-9-64-28z"/><path d="m1380 2522h-3l-3 1c-13-10-28-36-37-47 13 2 25-6 38-22 10 10 22 29 31 43l3 6c-3 17-14 21-29 19z"/><path d="m1433 2512-17-8c-21-20-32-38-51-60 15-2 28-13 39-25 16 27 49 43 47 80l-2 2z"/></g><g fill="#7f4100"><path d="m1324 2535-78-68 4-4 77 68z"/><path d="m1265 2417 3-3c25 31 74 53 107 108l-5 2c-33-56-78-72-105-107z"/><path d="m1316 2400 4-3c25 38 65 51 94 105l-4 3c-30-55-68-65-94-105z"/></g><path d="m1453 2491c-17-32-38-64-70-96-24-15-42-31-54-47-17-8-30-16-40-24-15-1-24-5-33-9-20 13-39 23-59 31-23-3-39-8-33-24 15-14 29-33 41-56 4-6 12-9 26-13 10-1 46-1 77 0 28 11 106 55 155 95 148 29 268 71 422 104l82.9001 19.1142-41.3126 119.8411c-21 55-88.5875 3.0447-115.5875 44.0447-137-61-237-110-358-144z" fill="#e9a081"/><path d="m1484 2498-30-9-13-23-11-18 425 121 71.5875 21.9553-35.5994 75.5197-74.9881-32.475-9-5c-112-50-222-100-323-131z" fill="#d48860"/><path d="m1411 2422-1-1c-8-10-16-19-25-28-24-15-42-31-54-46l-1-1c-17-8-30-16-39-24l-2-1c-14-1-23-4-32-8h-2c-10 6-20 12-30 17l-18 8-4-3c16-13 41-25 37-45 15 7 49 20 66 15 9-3 14 18 22 19 0 30 75 71 120 57z" fill="#d48860"/><path d="m1083 2489 78-37c15 4 25 11 25 31-16 15-35 30-61 41-31-3-41-17-42-35z" fill="#e9a081"/><path d="m1080 2489 2-3 78-36h2c15 4 27 12 26 33l-1 2c-16 15-35 30-61 41h-1c-33-2-43-17-45-37zm45 32 17-8c11-6 21-13 29-21l12-10v-5c-1-10-6-15-13-19l-9-3-75 35v5c2 12 10 21 29 25z" fill="#7f4100"/><path d="m1125 2521-10-1c-19-4-27-13-29-25v-5l27-13 3 6c7 14 19 27 39 21v1l-13 8z" fill="#d48860"/><path d="m1138 2517 56-50c19-6 30 6 35 17l-43 61c-25 1-38-9-48-28z" fill="#e9a081"/><path d="m1136 2518 1-3 55-50 1-1c21-6 33 8 38 19v3l-43 61-2 1c-26 1-40-10-50-30zm48 25 42-59-4-6c-5-6-12-11-21-10l-6 1-53 49 6 10c7 9 16 13 29 14z" fill="#7f4100"/><path d="m1184 2543-7-1c-13-1-22-5-29-14l-6-10 15-15 5 7c6 8 15 15 26 17l8-1z" fill="#d48860"/><path d="m1187 2547 42-60c9 1 18 5 25 17-4 19-16 38-35 58-18-3-31-7-32-15z" fill="#e9a081"/><path d="m1185 2548v-2l42-60 2-1c10 0 20 5 27 17l1 2c-4 20-17 40-36 59l-2 1c-17-2-33-6-34-16zm33 11 12-13c8-10 14-19 18-29l4-13-5-6c-4-4-8-6-12-7l-5-1-40 58 2 3c2 2 7 4 15 6z" fill="#7f4100"/><path d="m1218 2559-11-2c-8-2-13-4-15-6l-2-3 14-20 1 1c6 6 13 11 21 13h7l-3 4z" fill="#d48860"/><path d="m1450 2493c-12-24-27-48-47-72l-21-24-17-11c-11-8-20-16-28-24l-9-12-12-6c-8-4-15-8-20-12l-8-6-10-1c-3-1-6-1-8-2l-14-5-28 16c-10 5-20 10-30 14h-1c-21-2-43-8-35-27l1-1c14-13 27-32 40-55v-1c5-6 14-10 28-13 10-1 46-1 77 0h1c25 9 88 44 136 80l19 15 74 16c107 24 215 56 326 82l103.9001 27.1075-7.3339 3.2845-77.5662-21.392c-144-32-282-75-420-102l-1-1c-46-38-118-78-149-92l-6-2-23-1h-48l-4 1-9 2c-6 2-10 4-13 6l-3 3-9 17c-7 11-14 20-21 28l-10 11-1 4c-1 8 7 12 23 15l8 1 28-13c10-5 20-11 30-17h2c9 4 18 7 32 8l2 1c9 8 22 16 39 24l1 1c12 15 30 31 54 46 24 24 42 49 56 73l13 23 30 9c101 31 220 84 332 135l74.9881 33.475-3.2964 3.9865-74.6917-33.4615c-117-50-227-105-363-144z" fill="#7f4100"/><path d="m1187 2299 25 6c-6 14-24 34-45 18 30-32 14-16 20-24z" fill="#ffe6d5"/><path d="m1143 2467c15 20 17 20 17 20 5-4 11-7 12-13-2-5-1-9-13-14z" fill="#fae4d4"/><path d="m1187 2483c14 14 19 13 22 15 4-4 5-7 7-9 2-3 2-8 0-11-4-4-13-9-17-6-4 1-7 4-12 11z" fill="#fae4d4"/><path d="m1224 2505c9 9 16 9 17 9 2-2 5-5 6-10-7-9-13-8-17-8z" fill="#ffe6d5"/><path d="m1422 2500c3-13 20-13 20-13 4 6 4 8 4 11-3 3-5 5-12 9-3-2-6-1-12-7z" fill="#fca"/></g></g></g><g transform="matrix(1.0360183 0 0 1.0360183 1.768404 -1.232319)"><ellipse cx="122.45786" cy="194.63313" fill="url(#d)" rx="13.353742" ry="3.93799"/><g fill-rule="evenodd" stroke-linecap="round" stroke-linejoin="round" transform="matrix(.10268914 0 0 .10268914 87.395656 163.619026)"><g fill="url(#c)" stroke="#ffb702" stroke-width=".434318" transform="matrix(6.8632025 0 0 6.8380341 -909.95326 -703.47918)"><path d="m219.115 111.119c-.3073.6134-1.0007 1.2094-1.6803.5948-.0638 2.1595 3.2016 1.4385 1.6803-.5948z"/><path d="m218.739 110.082c-.3053.38-1.3732 1.2843-1.9378 1.1329 1.1437 1.9287 3.3843.1558 1.9378-1.1329z"/><path d="m217.807 108.701c-.1431.3862-.476 2.1415-1.7828 2.1041 1.6659 1.6719 4.0567-.713 1.7828-2.1041z"/><path d="m215.123 110.103c2.305 2.057 4.3952-1.6146 1.3229-2.3305.4449.8163.1546 1.8643-1.3229 2.3305z"/><path d="m213.871 109.705c3.242 1.3258 4.2097-3.0148.4912-2.9489.9233.8209.8046 2.2399-.4912 2.9489z"/><path d="m212.114 105.924c1.3075.8624 1.3426 2.7654-.192 3.7652 4.3772.9906 4.5618-4.0562.192-3.7652z"/><path d="m211.523 107.914c.1406.8683-.1475 1.4851-1.0428 1.958 5.294.015 3.0147-5.8215-1.5904-4.0919 1.3554.3759 2.2279.9895 2.6332 2.1339z"/><path d="m209.537 108.45c.3312.7022.8288 1.2358.4509 1.935 4.1456-1.0068.1727-6.9333-3.7756-3.611 1.4252.1557 2.6508.6194 3.3247 1.676z"/><path d="m209.666 111.129c3.0953-3.0823-4.0917-6.441-5.6109-2.634 2.2016-.2878 4.5804 1.0995 5.6109 2.634z"/><path d="m209.409 112.764c2.3271-5.1148-7.9929-6.2366-7.3041-1.3659 1.8122-.0135 5.7523.881 7.3041 1.3659z"/><path d="m204.361 114.158c2.0344.1574 3.9463-.0174 5.0407 1.4087 2.2286-5.8022-9.5115-7.1849-8.4997-1.2822 1.4368-.1175 1.8356-.153 3.459-.1265z"/><path d="m209.683 118.524c1.5867-7.1673-11.4401-7.1965-9.3899-1.1794 2.6433-2.4639 7.3074-.9204 9.3899 1.1794z"/><path d="m209.517 122.145c3.0793-7.0828-10.472-8.9125-10.093-2.6934 3.2724-1.9976 8.0936.342 10.093 2.6934z"/><path d="m209.165 125.783c4.0398-5.697-8.5428-11.0151-10.6875-4.6215 6.5253-.1455 9.2127 1.9409 10.6875 4.6215z"/><path d="m208.028 130.275c6.2971-5.2071-6.7902-14.0037-11.1221-7.2168 5.4574-.793 10.3855 2.1048 11.1221 7.2168z"/><path d="m195.076 124.64c6.7867-1.1814 10.7794 6.5156 10.8692 11.0605 9.1198-6.8804-5.9207-17.3678-10.8692-11.0605z"/><path d="m192.593 125.612c8.3032-.3638 10.5499 8.7295 9.928 13.9708 11.1787-4.2962-1.7457-20.1835-9.928-13.9708z"/><path d="m189.885 126.512c8.8201.0564 9.6659 10.6248 8.7523 16.3672 11.8815-1.7149 1.8141-22.9298-8.7523-16.3672z"/><path d="m185.5 127.319c9.5258.0767 8.9868 11.4908 8.0143 17.763 11.864 1.3507 6.9627-26.1138-8.0143-17.763z"/><path d="m184.456 126.436c5.8211 4.2854 6.0376 14.0193 3.9026 20.8118 12.2842.7167 9.0355-26.4389-3.9026-20.8118z"/><path d="m185.153 128.037c2.6198-.1236 5.0333 3.7369 5.3896 8.62.3563 4.8834-1.4794 8.9441-4.0991 9.0676-2.6199.1235-5.0332-3.7371-5.3895-8.6206-.3563-4.883 1.4793-8.9437 4.099-9.067zm7.1706 8.5179c-.3614-5.0967-2.556-9.3252-5.2744-10.6948-.6635-.3342-1.3583-.4982-2.0652-.4631-3.6033.1799-6.1607 5.4686-5.711 11.8092.4495 6.3411 3.7363 11.338 7.3395 11.1582 1.0175-.0507 1.9516-.5089 2.7582-1.283 2.0496-1.9673 3.2756-5.976 2.9529-10.5265z" fill="url(#c)"/><path d="m190.542 136.656c-.3562-4.8829-2.7697-8.7435-5.3895-8.6199-2.6198.1234-4.4553 4.184-4.099 9.067.3561 4.8836 2.7696 8.744 5.3895 8.6206 2.6197-.1235 4.4554-4.1841 4.099-9.0677z" fill="#584602"/></g><g stroke-width="1.98356"><g stroke="#007500"><path d="m385.95664 281.13485c2.67596-41.94997 36.98037-39.49717 61.82585-50.32451-14.75863 38.70806-31.71417 69.18244-61.82585 50.32451z" fill="#008f4c"/><g fill="none"><path d="m387.43909 280.61516c21.01169-27.839 39.49162-32.13055 59.20342-47.87581"/><path d="m428.33698 269.72901c-7.04714-3.23439-15.4711-2.48426-21.14216-9.70317-2.72744-5.44855-.0206-10.4239 1.02399-15.5449"/><path d="m434.12266 260.99684c-6.13708-2.53007-14.08741-2.26886-18.21219-7.89314-2.33082-5.1887-1.49145-8.30274-.44817-11.28481"/><path d="m438.12391 252.83907c-4.49952-1.0811-9.30719-1.26914-12.56584-5.93884-2.70685-3.0395-1.54765-5.74258-.24845-8.43266"/><path d="m441.64473 244.92062-7.6408-3.04156-1.10566-5.94703"/></g></g><path d="m385.38699 235.61406c.29237-1.61788 1.28067-2.01791 2.53252-2.94309" fill="#eac102" stroke="#000"/></g><g fill="none" stroke="#4d7e00" stroke-width=".289545" transform="matrix(6.8632025 0 0 6.8380341 -934.08428 -713.94958)"><path d="m175.219 134.473c-.1758.0845 1.4999 2.4828 1.5617 2.5899.2919.4888.7146.9083.9604 1.4126"/><path d="m177.16 135.838c-.0606.4277-.1663.8721-.1264 1.2935"/><path d="m175.839 136.997c.23-.0003.5363.228.7435.3114"/></g><g stroke-width="1.98356"><path d="m278.14945 275.00797c-8.83088-41.10069-42.37067-33.49884-68.52084-40.46338 20.29449 36.07063 41.54434 63.66346 68.52084 40.46338z" fill="#008f4c" stroke="#256101"/><g fill="none"><path d="m276.60523 274.71394c-24.87087-24.37349-43.76664-25.83136-65.56829-38.43591" stroke="#256101"/><path d="m234.58871 270.11194c6.48778-4.26351 14.92266-4.79209 19.46335-12.78918 1.89081-5.80207-1.51608-10.31654-3.30463-15.22488" stroke="#000"/><g stroke="#256101"><path d="m227.58824 262.34393c5.69165-3.42722 13.58639-4.36813 16.83338-10.55587 1.53735-5.48479.24844-8.4395-1.22097-11.23147"/><path d="m222.42711 254.88364c4.28744-1.74849 9.01001-2.66 11.54253-7.77211 2.22574-3.41423.68152-5.91422-.99928-8.38001"/><path d="m217.77386 247.58062 7.10273-4.16095.21482-6.05166"/></g></g></g><g stroke-width=".289545" transform="matrix(6.8632025 0 0 6.8380341 -934.08428 -713.94958)"><g fill="#eac102" stroke="#c18200"><path d="m186.951 142.673c-.3421 1.7437.3238 1.5672.3269 1.5607 0 0 .4108.7309 1.3903-.5026 1.2157-1.5303 3.0848-5.0257 3.5753-6.0937.046-.1001.0797-.1786.0998-.2326.2486-.6662 1.2457-3.6716 1.139-4.485-.005-.0361.1439-.8026-.4999-1.1938-.5351-.325-.9701.1933-.9936.2046-.6295.2971-2.5068 3.5631-2.5068 3.5631s-1.4079 3.2839-2.1458 5.6775c-.1758.57-.3046 1.0915-.3852 1.5018z"/><path d="m193.464 132.369c-.0613-.2148-.4087-.4343-.5971-.3803-.1298.0371-.1968.234-.173.3689.0391.2226.43.4997.5971.3803.1263-.0902.2171-.2143.173-.3689z"/><path d="m193.337 133.088c-.0741-.2544-.489-.5166-.7132-.4542-.1543.0431-.2332.2755-.2041.4354.0478.2635.5146.5942.7132.454.1498-.1058.2573-.2519.2041-.4352z"/><path d="m192.906 131.983c-.0889-.0627.1221-.0314-.3427-.2713-.0647-.0335-.0607.0226-.044.0973.0109.0494.0288.1188.0312.1337.0128.0804.009.1157.1313.1302.0925.011.2809-.0499.2242-.0899z"/><path d="m192.673 132.249c-.0475-.2311-.3819-.4422-.5746-.3659-.1327.0525-.2128.2753-.198.422.0249.2416.3991.5125.5747.3659.1327-.1107.232-.2555.1979-.422z"/><path d="m193.455 133.482c.0712-.2587.0685-.1045-.1558-.042-.1542.043-.233.2755-.2041.4352.0481.2636.1381.5423.2033.2816.068-.2721.0949-.4506.1566-.6748z"/><path d="m193.014 133.778c-.074-.2545-.4889-.5168-.7131-.4541-.1542.043-.2332.2753-.2041.4351.0478.2636.5146.5944.7132.4542.1497-.1059.2573-.252.204-.4352z"/><path d="m193.267 134.284c.0518-.2649-.0722-.2134-.2965-.1507-.1542.043-.2331.2753-.2041.4351.0481.2635.2647.5904.3523.3384.0789-.2271.1058-.4056.1483-.6228z"/><path d="m192.712 134.506c-.074-.2545-.4889-.5168-.7132-.4542-.1542.0431-.233.2753-.204.4351.0478.2635.5148.5944.7131.4542.1499-.1057.2574-.2519.2041-.4351z"/><path d="m193.085 135.033c.068-.2599-.2227-.233-.447-.1705-.1543.0431-.2331.2754-.204.4352.0478.2635.4666.514.5068.2468.0436-.2879.0893-.302.1442-.5115z"/><path d="m192.352 135.2c-.0741-.2545-.489-.5167-.7131-.4542-.1542.043-.2331.2753-.2041.4351.0478.2635.5147.5944.7132.4542.1497-.1059.2573-.2518.204-.4351z"/><path d="m192.839 135.855c.0717-.2587-.3059-.3621-.5302-.2995-.1541.0429-.233.2753-.2039.4351.0478.2636.4795.6506.5641.3973.1077-.3228.1304-.3899.17-.5329z"/><path d="m192.05 135.928c-.0741-.2545-.4889-.5167-.7132-.4542-.1541.043-.233.2755-.2039.4351.0478.2636.5147.5943.713.4542.1499-.1058.2575-.2519.2041-.4351z"/><path d="m192.369 132.943c-.0741-.2543-.489-.5166-.7132-.4541-.1543.043-.233.2754-.2039.4352.0478.2636.5146.5943.713.4542.1498-.1059.2575-.252.2041-.4353z"/><path d="m191.371 132.825c-.074-.2544.0663-.3096-.1022-.1222-.1134.1263-.321.4289-.4027.5181-.1697.1858.1024.1795.3008.0393.1498-.1059.2573-.252.2041-.4352z"/><path d="m192.041 133.636c-.074-.2546-.4889-.5168-.713-.4542-.1544.043-.2332.2753-.2041.4351.0478.2635.5146.5944.7132.4542.1496-.106.2573-.252.2039-.4351z"/><path d="m191.069 133.554c-.0741-.2545-.0751-.5271-.2087-.304-.1024.1711-.2374.3867-.3863.5854-.1533.2046.1924.2939.3909.1537.1498-.1059.2574-.252.2041-.4351z"/><path d="m191.708 134.365c-.074-.2546-.4889-.5167-.7132-.4542-.1543.0431-.2332.2753-.2041.4351.048.2635.5147.5944.7132.4542.1498-.1057.2573-.2518.2041-.4351z"/><path d="m190.709 134.248c-.0741-.2543-.12-.2816-.3442-.2191-.1217.0339.1562-.2789-.1355.2397-.1477.2626.1882-.1507-.1109.1494-.0386.0389.1882.4054.3865.2652.1499-.1058.2574-.2519.2041-.4352z"/><path d="m191.379 135.058c-.0742-.2545-.4891-.5167-.7131-.4542-.1544.043-.2332.2755-.2042.4352.0479.2635.5147.5943.7133.4542.1497-.1058.2572-.2519.204-.4352z"/><path d="m190.407 134.976c-.074-.2543-.2424-.6289-.3929-.4215-.108.1487-.2061.3879-.2975.566-.1197.2334.288.4309.4863.2907.1499-.1058.2574-.2519.2041-.4352z"/><path d="m192.59 136.558c.041-.2671-.4043-.4249-.6284-.3622-.1543.043-.2331.2753-.2042.4351.0479.2637.63.5948.7175.3428.079-.2273.0863-.2276.1151-.4157z"/><path d="m191.677 136.532c-.0741-.2543-.4889-.5165-.7132-.4541-.1542.0431-.233.2754-.2041.4353.0479.2635.5149.5942.7132.4542.1499-.106.2574-.2521.2041-.4354z"/><path d="m192.303 137.314c-.0656-.2495-.4572-.4971-.6732-.4286-.1486.0468-.2289.279-.2047.4362.0404.2593.4804.5732.6734.4288.1457-.1092.2519-.2567.2045-.4364z"/><path d="m191.375 137.261c-.0741-.2546-.4891-.5168-.7133-.4542-.1542.0429-.233.2753-.2039.4351.0478.2635.5146.5944.7131.4542.1498-.106.2574-.252.2041-.4351z"/><path d="m191.972 138.026c-.0742-.2545-.4467-.4708-.671-.4082-.1542.043-.2329.2754-.204.4352.048.2636.5177.52.716.38.0816-.0578.0724-.0627.1098-.1436.0314-.0679.0735-.1799.0492-.2634z"/><path d="m191.015 137.954c-.0741-.2545-.4889-.5168-.7132-.4542-.1542.043-.233.2753-.2039.4351.0478.2636.5146.5944.713.4542.1499-.1059.2575-.252.2041-.4351z"/><path d="m191.654 138.763c.1173-.2352-.4574-.5157-.6816-.4533-.1542.043-.233.2754-.2041.4353.048.2634.5723.5966.7039.372.1021-.1743.104-.1974.1818-.354z"/><path d="m190.713 138.683c-.074-.2545-.4889-.5167-.7131-.4542-.1543.0431-.2331.2753-.2041.4352.0478.2634.5148.5944.7131.4542.1499-.1059.2574-.2519.2041-.4352z"/><path d="m191.032 135.698c-.0741-.2543-.489-.5168-.7132-.4542-.1542.0431-.233.2754-.204.4351.0479.2635.5147.5945.7131.4542.1499-.1057.2575-.2519.2041-.4351z"/><path d="m190.034 135.579c-.074-.2543-.2184-.3443-.4427-.2818-.044.0122-.155.3083-.2299.4566-.1188.2341.2702.4006.4686.2604.1497-.1058.2573-.2519.204-.4352z"/><path d="m190.704 136.39c-.0742-.2544-.4891-.5166-.7132-.454-.1543.0428-.2331.2754-.2041.4351.0479.2635.5148.5942.7132.4542.1499-.1059.2574-.2519.2041-.4353z"/><path d="m189.732 136.309c-.0742-.2545-.3981-.506-.5001-.2614-.078.1868-.1196.2716-.1727.4361-.082.2546.2702.4005.4687.2605.1498-.106.2574-.2521.2041-.4352z"/><path d="m190.371 137.12c-.0742-.2544-.4891-.5167-.7132-.4542-.1544.043-.2332.2754-.2041.4352.0478.2636.5146.5944.7132.4542.1498-.1059.2573-.2519.2041-.4352z"/><path d="m189.372 137.002c-.074-.2546-.3365-.4833-.4195-.2291-.0587.18-.1264.2863-.1534.4293-.0501.2652.1705.3751.3688.2349.1499-.106.2574-.252.2041-.4351z"/><path d="m190.042 137.813c-.0741-.2545-.489-.5167-.713-.4542-.1544.043-.2332.2753-.2041.4351.0479.2635.5146.5944.7132.4542.1498-.1059.2573-.2521.2039-.4351z"/><path d="m189.07 137.731c-.0741-.2544-.2742-.4842-.3934-.2506-.0766.1497-.1539.3449-.1741.4733-.0419.267.1649.3526.3634.2124.1498-.1058.2574-.252.2041-.4351z"/><path d="m191.289 139.428c.0996-.2459-.3906-.454-.6147-.3914-.1543.043-.2331.2752-.2041.4351.0479.2636.5559.5492.6561.3037.0774-.19.0902-.1682.1627-.3474z"/><path d="m190.39 139.372c-.074-.2546-.4889-.5168-.7131-.4542-.1542.0429-.2331.2753-.2041.4351.048.2635.5148.5942.7131.4542.1499-.106.2576-.2521.2041-.4351z"/><path d="m190.966 140.009c.1182-.2343-.3949-.3427-.6191-.2801-.1542.0431-.2331.2755-.2041.4352.0479.2636.5127.5028.6137.2576.0844-.2046.1453-.2852.2095-.4127z"/><path d="m190.087 140.102c-.074-.2545-.4888-.5168-.7131-.4542-.1543.043-.2331.2753-.2041.4351.0478.2636.5147.5944.7132.4542.1498-.1059.2573-.252.204-.4351z"/><path d="m190.539 140.736c.0995-.246-.3007-.3397-.5247-.2771-.1543.0431-.2332.2754-.2041.4351.0478.2635.3598.4961.5055.284.1143-.1664.1506-.2628.2233-.442z"/><path d="m189.729 140.794c-.074-.2545-.489-.5167-.7132-.4542-.1543.0431-.2331.2753-.204.4351.0478.2635.5147.5945.7131.4542.1499-.1057.2574-.2518.2041-.4351z"/><path d="m190.178 141.292c.0299-.2688-.2679-.2047-.492-.142-.1543.0429-.2332.2754-.2041.4351.0479.2636.3612.4448.4769.2086.1035-.2114.1958-.2911.2192-.5017z"/><path d="m189.426 141.524c-.0741-.2545-.489-.5167-.7131-.4541-.1543.043-.2331.2754-.2042.4351.048.2637.5148.5943.7133.4542.1497-.1058.2574-.2519.204-.4352z"/><path d="m189.746 138.539c-.074-.2543-.489-.5165-.7132-.4541-.1543.043-.2331.2754-.204.4351.0478.2637.5147.5944.7131.4542.1499-.1058.2574-.2519.2041-.4352z"/><path d="m188.746 138.42c-.0741-.2543-.2406-.3867-.3594-.1525-.0833.1642-.1401.3154-.1878.5026-.0664.2604.1446.2253.3431.0853.1498-.106.2574-.2521.2041-.4354z"/><path d="m189.417 139.23c-.074-.2546-.489-.5168-.7131-.4542-.1543.0431-.2332.2753-.2041.4351.0478.2635.5147.5943.7131.4542.1499-.106.2574-.2519.2041-.4351z"/><path d="m188.444 139.15c-.0741-.2546-.2435-.3888-.3471-.145-.0916.2161-.0949.2873-.1726.4362-.1212.2323.1172.2841.3157.1439.1498-.106.2573-.2521.204-.4351z"/><path d="m189.084 139.961c-.074-.2545-.4889-.5168-.7132-.4542-.1543.043-.2331.2753-.204.4351.0478.2636.5147.5944.7131.4542.1499-.1059.2574-.252.2041-.4351z"/><path d="m188.086 139.842c-.0741-.2545-.1364-.3775-.2405-.134-.0985.2307-.1361.3752-.1794.4508-.1295.2262.0173.2585.2157.1183.1498-.1058.2576-.2518.2042-.4351z"/><path d="m188.757 140.652c-.074-.2543-.4889-.5166-.7132-.4542-.1542.0432-.233.2755-.2041.4354.0479.2635.5149.5943.7132.4542.1499-.106.2574-.252.2041-.4354z"/><path d="m187.784 140.572c-.0741-.2545.0521-.3459-.1662-.2581-.008.003-.2212.4542-.1921.6141.0478.2635-.0441.2194.1542.0792.1499-.1058.2574-.2519.2041-.4352z"/><path d="m189.806 141.984c.1368-.2201-.1856-.3805-.4097-.3179-.1543.0429-.2331.2754-.2041.4351.0479.2635.2592.465.418.2662.1267-.1587.1123-.2492.1958-.3834z"/><path d="m189.111 142.002c-.074-.2544-.4889-.5168-.7131-.4542-.1542.0431-.2332.2754-.2041.4352.0479.2636.5148.5944.7131.4541.1499-.1058.2575-.2519.2041-.4351z"/><path d="m189.427 142.549c.0204-.2699-.1336-.2524-.3579-.1899-.1542.0431-.2332.2753-.2041.4352.0479.2635.0101.4441.2085.3041.1498-.1059.3482-.4796.3535-.5494z"/><path d="m188.809 142.732c-.0742-.2544-.4891-.5166-.7131-.4542-.1544.043-.2332.2754-.2041.4353.0478.2634.5146.5942.7132.454.1498-.1058.2573-.2519.204-.4351z"/><path d="m188.975 143.223c.1026-.2442-.0162-.1965-.2402-.134-.1543.0431-.2332.2754-.2041.4351.0478.2635-.0332.4.1061.1819.0914-.1431.2887-.3652.3382-.483z"/><path d="m188.45 143.425c-.074-.2544-.4889-.5167-.7132-.4542-.1542.043-.233.2753-.2041.4352.048.2636.5149.5943.7132.4541.1499-.1058.2575-.2518.2041-.4351z"/><path d="m188.147 144.154c-.074-.2545-.4891-.5168-.7132-.4542-.1543.0429-.2331.2753-.2041.4351.0479.2636.4276.4057.626.2654.1499-.1057.3446-.0632.2913-.2463z"/><path d="m188.467 141.169c-.074-.2544-.4889-.5167-.7132-.4542-.1542.0431-.233.2755-.2041.4353.048.2636.5149.5943.7132.4542.1499-.106.2575-.252.2041-.4353z"/><path d="m188.138 141.86c-.074-.2546-.4889-.5168-.7131-.4542-.1542.043-.2331.2753-.204.4351.0478.2636.5147.5944.713.4542.1499-.106.2575-.252.2041-.4351z"/><path d="m187.815 142.595c-.0566-.2444-.4243-.4765-.6316-.4023-.1429.0512-.2249.283-.2053.4377.0323.2549.4444.5509.6317.4023.1414-.1125.2459-.2616.2052-.4377z"/><path d="m187.478 143.283c-.074-.2546-.2647-.4501-.489-.3874-.1542.0429-.109.4876-.08.6472.048.2636.1665.3154.3649.1753.1499-.106.2574-.2519.2041-.4351z"/><path d="m187.18 144.01c-.0739-.2545-.0375-.4575-.2616-.395-.1543.043.0274.0607.0564.2204.0479.2636.2737-.0158.2074.1703-.0675.1894.0513.1875-.002.004z"/></g><g fill="#008f4c"><path d="m188.021 143.207c-.1799-1.9852.0398-3.678.7196-5.4518.0885-.2305 1.7669-3.9398 1.5862-3.7916-.2401.197.8429-3.6069.8798-3.5323 0 0-1.3377 2.5914-2.2295 4.5551-.8901 1.9595-.4536.9672-1.234 3.3625-.8509 2.6116-.983 7.4802-.983 7.4802z" stroke="#007500"/><path d="m195.291 133.301c-.7396.4932-1.2987.31-2.5246 2.5635-.574 1.0551-.4882 1.8591-1.1493 2.6856-.3189.399-2.4102 3.6483-2.4259 3.8103.5071.3186 3.8354-3.1221 4.0545-4.9798.3865-3.2761 1.3895-2.8281 2.0453-4.0796z" stroke="#007500"/><path d="m186.72 145.846c-.3083-1.3322-.4959-1.9821.2245-5.3201.2745-1.3353.3312-2.9884.4422-4.5623.3626 1.9855.5413 4.0883.1874 6.0398-.1491.8232-.5942 2.4205-.8541 3.8426z" stroke="#000"/><path d="m194.956 135.052c-1.7945 3.7221-2.4657 8.0126-8.2058 10.7771l1.1896-2.4896c1.222-1.7031 2.1987-1.9022 2.983-2.4595 1.7541-1.2464 2.5951-4.1197 4.0332-5.828z" stroke="#007500"/></g><g stroke="#c18200"><path d="m0 0h.4533v15.1742h-.4533z" fill="#eac102" stroke-width=".369257" transform="matrix(-.064177 .646623 -.958347 .0752751 205.443 146.288)"/><g stroke-width=".289545"><g fill="#eac102"><path d="m207.892 146.102c-1.9555.5668-2.2509 1.0372-4.1331.1611 1.5738-.7462 2.3486-.5575 4.1331-.1611z"/><path d="m206.663 147.601c-.7682-.6121-.9814-1.4988-3.756-.9554 1.0822 1.1123 1.2742.9699 3.756.9554z"/><path d="m204.296 147.775c-.6781-.8064-.6525-1.5667-3.1871-.9143 1.119.6897.9142 1.0098 3.1871.9143z"/><path d="m202.584 147.944c-.7298-.5968-.9295-1.4606-3.5774-.9331 1.0273 1.0842 1.2108.9457 3.5774.9331z"/><path d="m200.316 148.244c-.6638-.6545-.8477-1.6756-3.3404-1.1135.9795.9281 1.1406 1.0476 3.3404 1.1135z"/><path d="m206.686 144.867c-.8004.5031-1.118 1.6729-3.8614 1.7041 1.7162-1.4341 1.4739-1.4195 3.8614-1.7041z"/><path d="m204.494 145.078c-.7059.4952-1.0103 1.653-3.3864 1.6729 1.5222-1.4139 1.3119-1.4004 3.3864-1.6729z"/><path d="m202.664 145.338c-.7694.4878-1.1259 1.6796-3.6734 1.61 1.6686-1.4117 1.4426-1.4058 3.6734-1.61z"/><path d="m200.604 145.423c-.8052.7699-1.1963 1.8362-3.6157 1.66 1.1806-1.0979 1.3682-1.2448 3.6157-1.66z"/></g><g fill="none"><path d="m209.70399 144.687-3.123.24501"/><path d="m209.631 147.306-3.03701.24001"/><path d="m210.161 145.509-3.762.29599"/><path d="m210.11501 146.38-4.25602.334"/><path d="m209.91 146.853-3.73001.294"/><path d="m209.98599 145.07201-3.89099.30499"/><path d="m210.263 145.91499-2.409.19001"/></g></g></g><ellipse cx="191.838" cy="141.61501" fill="#f1af97" rx="3.94716" ry="3.1393" stroke="#d38f64"/><g stroke="#4d7e00"><path d="m180.068 142.533c-.0128-.535-.0671-1.0695-.0718-1.6041-.001-.1582.001-.3299.0665-.4781.048-.107.1328-.1806.2097-.2654.1961-.2164.2244-.5111.2633-.7883.0448-.3222.1032-.6445.211-.9529.0366-.1068.0791-.2205.1551-.3063.0619-.0698.1407-.0984.2215-.1386.2683-.1378.2575-.507.2456-.7658-.0155-.324-.1068-.6507-.0768-.9757.0286-.3133.0948-.6265.0255-.9395-.0162-.0712-.0601-.2519-.166-.1866-.1101.0678-.1441.2966-.1708.4082-.0786.3323-.124.6696-.218.9993-.035.0141-.0575-.007-.0907-.005-.042.003-.0287.0263-.0615.0409-.1128.046-.1472-.1358-.1615-.2066-.0205-.1043-.0516-.1865-.0444-.295.007-.1056.0339-.2109.0339-.317-.0005-.0803-.0507-.1218-.0842-.1928-.0283-.0617-.0585-.1187-.0816-.1828-.0254-.0694-.0386-.1706-.0911-.2249-.0899-.0931-.2215-.1762-.3383-.2281.0614-.0459.0888-.098.0993-.1747.0124-.0898.0267-.2115-.007-.2974-.0332-.0847-.0431-.1689-.0719-.2538-.0355-.1029-.1164-.179-.1656-.2737-.0496-.0966-.1-.1899-.1524-.2842-.0469-.0846-.0595-.1736-.0912-.2635-.0544-.152-.0972-.3226-.2646-.3775-.0692.0967-.0649.1937-.0764.3091-.009.0969-.0274.1942-.0287.2918-.0632-.1861-.1294-.3721-.1824-.5624-.0378-.1344-.0781-.2636-.1381-.391-.0844-.1788-.1879-.3492-.267-.5311-.0586-.1347-.0987-.3268-.2121-.4286-.1179-.1059-.1759.0198-.1864.1343-.0265.2967.045.6154.0789.9098.039.3427.0922.691.0918 1.037-.0009.2277-.0619.4355-.1359.6492-.0682-.023-.0959-.1609-.1163-.2227-.0204-.0619-.0118-.1769-.0536-.2235-.0233-.0258-.143-.0531-.173-.0648-.0576-.0236-.1285-.0416-.1908-.0248.0009.0691-.0275.1234-.0708.1749-.076.0913-.135.1741-.1602.2947-.0264.1235-.0134.2502-.0368.374-.0222.1202-.01.1865.0238.2997.0157.0535.0282.1446-.007.1952-.0332.0487-.1092.0908-.1516.1325-.049.0488-.0947.0787-.1148.1467-.0245.0851-.0423.2185-.0288.3064.0206.1403.1265.2679.1802.3964.0406.0956.0857.1702.1525.2505.0469.0557.0934.0925.1475.1387.0675.0582.0937.0924.108.1741.0188.1078.0666.2072.08.3159-.004.0209-.002.0427.004.0631.0152.0201.0268.0417.0348.066.004.0791-.1557.1627-.2011.2155-.05.0599-.0794.1237-.0978.1985-.167.005-.3532.0107-.4922-.0974-.159-.1232-.2126-.3449-.2674-.5275-.0243-.0809-.0699-.3499-.1737-.3763-.1176-.031-.1152.2486-.1156.3076.0004.3717.1568.7112.2146 1.0718.053.3303.0969.6685.3803.8889.1234.0966.2677.1391.411.1954.1596.0632.2698.1611.3468.3171.2089.4227.1782.9138.3017 1.3611.0306.1122.0792.212.1967.2497.1282.043.2729.0326.4057.052.12.0167.2437.0465.3405.1233.0959.0753.1465.1888.1939.2978.1115.2566.2737.5125.3313.7874.0212.0997.0239.2034.065.2979.0502.114.1416.2022.229.288.008-.0345.0173-.0685.0278-.102.0704-.005.1564-.0456.1954-.1101.022-.0365.0108-.1028.0156-.1445.006-.0538.0247-.1058.01-.1601-.0131-.004-.0259-.008-.0391-.0121" fill="#769f00"/><g fill="none"><path d="m178.712 135.747c-.195.004.3299 2.8819.3416 3.0049.0621.5662.2713 1.1236.2849 1.6845"/><path d="m179.909 137.796c-.2333.3635-.5142.7237-.6535 1.1231"/><path d="m178.225 138.3c.2094.0954.3929.4302.5461.5926"/></g></g></g><path d="m263.97694 235.46362c-12.36612 6.1344-18.2774 19.3489-13.19863 29.51296 5.07809 10.16268 19.22452 13.43058 31.59064 7.29549 12.36612-6.13303 18.27671-19.34958 13.19931-29.51227-5.07877-10.16268-19.2252-13.4299-31.59132-7.29618z" fill="#ed1c24" stroke="#890000" stroke-width="1.98356"/><path d="m267.00361 241.98711c-2.92304-2.60461-9.97086-2.01039-16.16627-2.17792 3.58808-1.22879 6.27434-3.03267 11.54047-3.19336-1.36303-3.29798-.59366-7.65244-.76456-11.54123 2.17083 2.98343 4.79944 5.73916 5.71636 9.34485 3.3918-4.08435 8.67372-5.96208 13.01813-8.93389-4.95455 5.6024-9.92351 10.13123-13.34413 16.50155z" fill="#008f4c" stroke="#256101" stroke-width="1.98356"/><g stroke="#c18200" stroke-width=".289545" transform="matrix(6.8632025 0 0 6.8380341 -934.08428 -713.94958)"><path d="m0 0h.4533v15.1742h-.4533z" fill="#eac102" stroke-width=".390087" transform="matrix(.103137 .575996 -.89807 .326371 205.21 142.68)"/><g stroke-width=".289545"><g fill="#eac102"><path d="m207.506 141.852c-1.7276 1.0228-1.8903 1.5096-3.9147 1.2663 1.3163-1.0739 2.1059-1.1221 3.9147-1.2663z"/><path d="m206.711 143.482c-.891-.3192-1.3206-1.0269-3.8377.199 1.3188.6656 1.4662.4904 3.8377-.199z"/><path d="m204.49 144.276c-.8543-.5114-1.0233-1.1751-3.2831.0796 1.2465.2906 1.1319.6228 3.2831-.0796z"/><path d="m202.895 144.891c-.8505-.3164-1.2614-1.008-3.6615.1697 1.2592.6562 1.3997.4866 3.6615-.1697z"/><path d="m200.801 145.768c-.8019-.3844-1.2376-1.2161-3.4804-.0508 1.1735.5344 1.3583.5937 3.4804.0508z"/><path d="m206.037 141.114c-.638.6528-.6443 1.7499-3.2621 2.525 1.2777-1.7067 1.0494-1.628 3.2621-2.525z"/><path d="m203.994 141.895c-.5494.6202-.5462 1.7032-2.8152 2.3685 1.097-1.6364.8992-1.5675 2.8152-2.3685z"/><path d="m202.308 142.618c-.6123.6311-.6503 1.7578-3.1061 2.3923 1.2376-1.6742 1.0231-1.6075 3.1061-2.3923z"/><path d="m200.358 143.253c-.5747.8846-.6775 1.9122-3.038 2.4197.8504-1.27.9927-1.4481 3.038-2.4197z"/></g><g fill="none"><path d="m208.88 140.136-2.927 1.064"/><path d="m209.47701 142.418-2.84401 1.035"/><path d="m209.528 140.72-3.52499 1.282"/><path d="m209.705 141.48599-3.99 1.44901"/><path d="m209.63 141.951-3.498 1.26999"/><path d="m209.248 140.39101-3.647 1.32599"/><path d="m209.728 141.04401-2.25701.821"/></g></g></g><ellipse fill="#008f4c" rx="2.4175" ry="3.6081" stroke="#007500" stroke-width=".241023" transform="matrix(3.2046763 -7.5687464 7.5966043 3.1929243 419.18147 284.55387)"/><ellipse fill="#8e5214" rx="2.4175" ry="3.6081" stroke="#6b2b14" stroke-width=".241023" transform="matrix(3.2046763 -7.5687464 7.5966043 3.1929243 389.21666 289.60034)"/><g stroke-width="1.98356"><path d="m319.26003 201.49227-18.61506-23.12555 21.17504 15.93672-7.05812-33.07489 13.81426 24.54444 14.90207-23.05032-10.11705 32.2721 21.29309-16.46325-16.47443 22.88553c-6.3066-.60995-12.6132-.85476-18.9198.0752z" fill="#008f4c" stroke="#007500"/><path d="m329.0854 199.7937c-18.06121-.13334-32.87818 18.05925-33.0875 40.62408-.20933 22.56551 14.26722 40.97418 32.32843 41.10684 18.06189.13402 32.87885-18.05788 33.08818-40.62408.20933-22.56483-14.26791-40.97281-32.32911-41.10684z" fill="#fab239" stroke="#d37c16"/><path d="m378.59242 293.09457c-33.42654 38.65062-84.95958-2.67299-73.38273-32.01636 23.72403-24.65385 78.84996-11.25198 73.38273 32.01636z" fill="#008f4c" stroke="#007500"/></g><ellipse fill="#ffe265" rx="3.2861" ry="2.6133" stroke="#dcb73e" stroke-width=".241031" transform="matrix(3.9871912 -7.1899193 7.2163829 3.9725696 289.60414 278.81676)"/><ellipse fill="#8ebf00" rx=".6022" ry="2.971" stroke="#597c00" stroke-width=".241021" transform="matrix(-1.3669578 -8.101019 8.130836 -1.3619449 295.12215 303.76874)"/><g fill="#6e2e2e" stroke="#3d0000" stroke-width=".289545" transform="matrix(6.8632025 0 0 6.8380341 -934.08428 -713.94958)"><ellipse cx="172.35001" cy="142.189" rx="1.09809" ry=".996473"/><ellipse cx="170.58501" cy="143.222" rx="1.09809" ry=".996473"/><ellipse cx="169.064" cy="144.377" rx="1.09809" ry=".996473"/><ellipse cx="167.57401" cy="145.65199" rx="1.09809" ry=".996473"/><ellipse cx="166.271" cy="146.718" rx="1.09809" ry=".996473"/><ellipse cx="168.05901" cy="147.56599" rx="1.09809" ry=".996473"/><ellipse cx="168.91701" cy="146.061" rx="1.09809" ry=".996473"/><ellipse cx="172.319" cy="143.92101" rx="1.09809" ry=".996473"/><ellipse cx="173.93201" cy="144.95399" rx="1.09809" ry=".996473"/><ellipse cx="172.35001" cy="145.713" rx="1.09809" ry=".996959"/><ellipse cx="170.82899" cy="146.746" rx="1.09809" ry=".996473"/><ellipse cx="169.88499" cy="147.77901" rx="1.0976" ry=".996473"/><ellipse cx="171.95399" cy="147.84" rx="1.09809" ry=".996473"/><ellipse cx="172.493" cy="146.811" rx="1.09809" ry=".99615"/><ellipse cx="174.17999" cy="146.222" rx="1.09809" ry=".996473"/><ellipse cx="174.84599" cy="147.536" rx="1.09809" ry=".996473"/><ellipse cx="173.90199" cy="148.11301" rx="1.0976" ry=".996473"/><ellipse cx="170.02901" cy="144.946" rx="1.09809" ry=".996473"/><ellipse cx="171.271" cy="145.09" rx="1.09809" ry=".996473"/></g><ellipse fill="#8ebf00" rx=".6022" ry="2.971" stroke="#597c00" stroke-width=".241021" transform="matrix(-1.3669578 -8.101019 8.130836 -1.3619449 294.03777 295.1665)"/><g fill="#ea1c24" stroke="#890000" stroke-width="1.98356"><path d="m309.20544 298.12737c3.11041 4.58148 9.4726 5.83147 14.20683 2.7906 4.73698-3.04361 6.05197-9.22451 2.94088-13.80668-3.11246-4.58422-9.47396-5.83558-14.20957-2.79197-4.73424 3.04088-6.0506 9.22383-2.93814 13.80805z"/><path d="m341.75075 296.69822c3.1104 4.5808 9.47465 5.83284 14.2082 2.79197 4.73698-3.04361 6.04991-9.22725 2.9402-13.80736-3.11247-4.58422-9.47397-5.83695-14.21026-2.79334-4.73424 3.04087-6.04923 9.22588-2.93814 13.80873z"/><path d="m372.1616 298.57868c3.1104 4.58079 9.47602 5.83215 14.2082 2.79196 4.73698-3.04292 6.0506-9.22655 2.9402-13.80735-3.11178-4.58285-9.47328-5.83558-14.21095-2.79334-4.73218 3.04019-6.04854 9.22588-2.93745 13.80873z"/><path d="m326.62425 299.26932c3.11109 4.58148 9.47465 5.83079 14.20683 2.7906 4.73767-3.04429 6.05266-9.22656 2.94226-13.80736-3.11247-4.58422-9.47328-5.83558-14.21095-2.79129-4.73287 3.04019-6.04992 9.22383-2.93814 13.80805z"/><path d="m354.91437 299.07785c3.11109 4.58148 9.47465 5.83285 14.20752 2.79129 4.73698-3.04224 6.05128-9.22656 2.94088-13.80736-3.11178-4.58285-9.47397-5.83558-14.21095-2.79197-4.73286 3.04087-6.04785 9.22519-2.93745 13.80804z"/><path d="m304.27766 310.42899c3.11041 4.58148 9.47328 5.83353 14.20752 2.79128 4.7363-3.04224 6.04991-9.22587 2.9402-13.80735-3.11178-4.58285-9.47328-5.8349-14.21095-2.79197-4.73355 3.04087-6.04854 9.2245-2.93677 13.80804z"/><path d="m334.24241 311.48205c3.1104 4.58079 9.47259 5.83147 14.20545 2.79128 4.73767-3.04429 6.05266-9.22587 2.94226-13.80804-3.11247-4.58422-9.47397-5.83421-14.21095-2.79129-4.73286 3.04156-6.04923 9.22314-2.93676 13.80805z"/><path d="m380.25332 307.74848c3.1104 4.5808 9.47396 5.83284 14.20682 2.79128 4.73767-3.04292 6.0506-9.22655 2.9402-13.80735-3.1104-4.58285-9.47328-5.83558-14.20957-2.79266-4.73355 3.04156-6.04923 9.22588-2.93745 13.80873z"/><path d="m366.472 310.09393c3.11041 4.58216 9.4726 5.83284 14.20683 2.79128 4.7363-3.04292 6.0506-9.22519 2.94089-13.80667-3.11247-4.58422-9.47397-5.83558-14.21026-2.79197-4.73356 3.04087-6.04992 9.22382-2.93746 13.80736z"/><path d="m343.34301 314.0805c3.11109 4.58148 9.47328 5.83147 14.20752 2.7906 4.73629-3.04292 6.05128-9.22519 2.94088-13.80667-3.11246-4.58422-9.47328-5.83558-14.20957-2.79197-4.73424 3.04087-6.0506 9.22382-2.93883 13.80804z"/><path d="m313.34395 313.13001c3.11109 4.58149 9.47466 5.83079 14.20752 2.7906 4.73698-3.04292 6.05197-9.22656 2.94157-13.80735-3.11246-4.58491-9.47397-5.83422-14.21164-2.79129-4.73149 3.04019-6.04991 9.22382-2.93745 13.80804z"/></g></g></g><path d="m177.16798 144.0446c0 34.59332-21.02733 62.65031-46.98773 62.65031-26.02208 0-47.049397-28.05699-47.049397-62.65031 0-34.655 21.027317-62.711973 47.049397-62.711973 25.9604 0 46.98773 28.056973 46.98773 62.711973z" fill="none" stroke="#1d293c" stroke-width="1.00051"/></g><path d="m129.08533 222.82054c-.65259 2.72899-4.36935 6.3431-7.1161 7.2357l-3.90457-3.0853c2.73749-1.6986 5.03998-3.59806 6.86852-6.22203 1.45293.40878 3.05146.222 4.15215 2.07163z" style="fill:#759cdb;fill-rule:evenodd;stroke:#6f84db;stroke-width:.278076;stroke-linecap:round;stroke-linejoin:round"/><path d="m126.37889 222.05238c-.89531 2.72574-2.65455 5.17865-5.22551 7.37524l-1.95129-1.12448c3.09506-1.8236 4.60161-4.17671 6.15154-6.51535z" fill="#e6e6e6"/><path d="m127.91759 220.71137.27477 1.34852c-29.565302 6.10746-18.54464-11.1813-17.18986-11.29783 1.54372-.10028 2.15429-.3741 3.2931-.17284 1.92663-.10435 2.86261.18539 3.80534 1.78746.052.0884-.59537.67046-.53861.76387-2.58131 2.6637-2.07089 4.57839-.0969 5.5071 3.04437 1.43238 9.24741 1.09986 10.45224 2.06372z" style="fill:#759cdb;fill-rule:evenodd;stroke:#6f84db;stroke-width:.278076;stroke-linecap:round;stroke-linejoin:round"/><path d="m127.65448 221.45185c-4.31132-.12142-8.77498.57976-12.67551-1.75991-2.27832-2.17462-2.97043-4.69913.7174-8.18981l-1.40076-.91291c-1.05285.76775-5.20795 3.33492-2.79949 8.91654 2.01039 2.27027 4.96251 2.59562 9.32653 2.94349 1.56654-.0268 5.82424-.26146 7.23388-.52363.81362-.15133-1.1774-.26504-.40205-.47377z" fill="#e6e6e6"/><path d="m110.96332 210.78977c1.85463.068 3.81421.57073 5.57962 1.2234 2.04083.75449 3.31131 2.83197 4.47066 3.83042 1.10723.92906 6.61986 5.23004 6.64088 5.60826.11118-.66724 2.4083-1.73614 2.09948-2.90688-.67967-2.57667-4.65671-7.37726-6.62177-8.16535-5.04981-1.45903-10.91155-.22797-12.16887.41015z" style="fill:#75aadb;fill-rule:evenodd;stroke:#6f92db;stroke-width:.278076;stroke-linecap:round;stroke-linejoin:round"/><path d="m128.33019 220.16722c-3.87353-4.37259-7.76173-7.95165-11.72332-10.29917 1.26927-.0531 2.13129-.0297 2.95902.01 3.54101 2.91233 6.37265 6.06145 9.22733 9.23116z" fill="#fff"/><path d="m131.67128 222.82027c.65259 2.72899 4.36935 6.3431 7.11609 7.2357l3.90457-3.0853c-2.73749-1.6986-5.03998-3.59806-6.86851-6.22203-1.45294.40878-3.05146.22201-4.15215 2.07163z" style="fill:#759cdb;fill-rule:evenodd;stroke:#6f84db;stroke-width:.278076;stroke-linecap:round;stroke-linejoin:round"/><path d="m134.37771 222.05211c.89531 2.72574 2.65456 5.17865 5.22551 7.37524l1.9513-1.12448c-3.09507-1.8236-4.60161-4.17671-6.15155-6.51535z" fill="#e6e6e6"/><path d="m132.83902 220.7111-.27477 1.34852c29.5653 6.10747 18.54463-11.1813 17.18986-11.29783-1.54373-.10028-2.1543-.3741-3.29311-.17284-1.92662-.10435-2.86261.18539-3.80534 1.78746-.052.0884.59537.67046.53861.76387 2.58132 2.6637 2.0709 4.57839.0969 5.5071-3.04436 1.43238-9.24741 1.09986-10.45223 2.06372z" style="fill:#759cdb;fill-rule:evenodd;stroke:#6f84db;stroke-width:.278076;stroke-linecap:round;stroke-linejoin:round"/><path d="m133.10213 221.45158c4.31132-.12142 8.77497.57976 12.67551-1.75991 2.27831-2.17462 2.97043-4.69913-.7174-8.18981l1.40075-.91291c1.05285.76775 5.20795 3.33492 2.7995 8.91654-2.0104 2.27027-4.96251 2.59562-9.32654 2.94349-1.56654-.0268-5.82424-.26146-7.23387-.52363-.81362-.15133 1.17739-.26504.40205-.47377z" fill="#e6e6e6"/><path d="m149.79329 210.7895c-1.85464.068-3.81421.57073-5.57962 1.2234-2.04084.75449-3.31131 2.83197-4.47067 3.83042-1.10723.92906-6.61985 5.23004-6.64087 5.60826-.11118-.66724-2.40831-1.73614-2.09949-2.90688.67968-2.57667 4.65671-7.37726 6.62177-8.16535 5.04981-1.45903 10.91156-.22797 12.16888.41015z" style="fill:#75aadb;fill-rule:evenodd;stroke:#6f92db;stroke-width:.278076;stroke-linecap:round;stroke-linejoin:round"/><path d="m132.42642 220.16695c3.87353-4.37259 7.76173-7.95165 11.72331-10.29917-1.26927-.0531-2.13129-.0297-2.95901.01-3.54102 2.91233-6.37266 6.06145-9.22733 9.23116z" fill="#fff"/><g stroke-linecap="round" stroke-linejoin="round" transform="matrix(.99999763 0 0 .99999763 -209.09793 11.867471)"><path d="m335.27401 207.57561c.2373-.65258.53393-1.24583 1.30518-1.54246 1.36448-.41528 2.61032-.35596 3.79685-.11861 1.00854.0594 1.54249.88988 2.07641 1.83911.0594.59325.11861 1.12718-.29662 1.89843-1.00855 1.72045-1.77979 1.30517-2.66969 1.66112-.65258-.0594-1.12718-.0594-2.19505-.23731-1.18652-.0594-2.0764-.88988-2.0764-1.18651-.11861-.7119-.11861-1.48315.0594-2.31371z" fill="#75aadb" fill-rule="evenodd"/><g stroke-linecap="round" stroke-linejoin="round"><path d="m337.88435 205.91449c-1.00853 1.12719-.88989 2.97096-.2373 5.22535.38157-.10339.81475.0334 1.36449.17331 2.37304-2.43237 1.1272-4.74607.71192-5.51733-.41528-.17795-1.48316-.17795-1.83911.11861z" fill="#fff" fill-rule="evenodd" stroke-width=".059326"/><path d="m335.27401 207.57561c.2373-.65258.53393-1.24583 1.30518-1.54246 1.36448-.41528 2.61032-.35596 3.79685-.11861 1.00854.0594 1.54249.88988 2.07641 1.83911.0594.59325.11861 1.12718-.29662 1.89843-1.00855 1.72045-1.77979 1.30517-2.66969 1.66112-.65258-.0594-1.12718-.0594-2.19505-.23731-1.18652-.0594-2.0764-.88988-2.0764-1.18651-.11861-.7119-.11861-1.48315.0594-2.31371z" fill="none" stroke="#6f92db" stroke-width=".278077"/></g></g><path d="m112.68231 229.55576c-1.45321-2.29175-2.65215-3.59209-3.68506-4.89389-.72514-.91392 1.39025-.98204 3.79537-1.19242 2.29736-.0808 2.49169-.043 3.50023.96762 2.98807 2.11733 5.43908 4.90726 5.67638 5.61917.50403-.1385-5.74941 1.61199-7.33326.87406-.76094-.35453-1.60041-.71126-1.95366-1.37454z" style="fill:#75aadb;fill-rule:evenodd;stroke:#6f92db;stroke-width:.278076;stroke-linecap:round;stroke-linejoin:round"/><path d="m119.63204 230.48595c-2.25607-2.27608-4.86295-4.45648-6.2177-6.97838l-2.64582.23151c2.44093 2.97343 4.59351 4.98565 6.77992 7.11067z" fill="#fff"/><path d="m148.07429 229.55549c1.45322-2.29175 2.65215-3.59209 3.68506-4.89389.72514-.91392-1.39025-.98204-3.79537-1.19242-2.29735-.0808-2.49168-.043-3.50022.96762-2.98807 2.11733-5.43909 4.90726-5.67639 5.61917-.50403-.1385 5.74942 1.61199 7.33326.87406.76094-.35453 1.60041-.71126 1.95366-1.37454z" style="fill:#75aadb;fill-rule:evenodd;stroke:#6f92db;stroke-width:.278076;stroke-linecap:round;stroke-linejoin:round"/><path d="m141.12457 230.48568c2.25606-2.27608 4.86295-4.45648 6.21769-6.97838l2.64583.23151c-2.44094 2.97343-4.59351 4.98565-6.77993 7.11067z" fill="#fff"/></g></svg>