<svg height="920" width="550" xmlns="http://www.w3.org/2000/svg" xmlns:xlink="http://www.w3.org/1999/xlink"><g fill="#fcbf49" stroke="#000" stroke-width=".65"><g id="a" stroke="#000" stroke-width=".65" transform="matrix(1.5384615 0 0 1.5384615 275 260.00001)"><g id="b" stroke="#000" stroke-width=".65"><g id="c" stroke="#000" stroke-width=".65"><g id="d" stroke="#000" stroke-width=".65"><path d="m-8 0 6 159.5s0 3 2 3 2-3 2-3l6-159.5" fill="#eac102" stroke="#000" stroke-width=".65"/><path d="m-4 0 4 109.5 4-109.5" fill="#eac102" stroke="#000" stroke-width=".65"/><g stroke="#000" stroke-width=".65" transform="matrix(.9799247 .19936793 -.19936793 .9799247 0 0)"><path d="m-4.5 53.5c-5 21.5 6 36 .5 55s3 32 4 40-5 11.5-3 13 8-3.5 8.5-14.5-7-15.75-.5-39-4-31 3-52" fill="#eac102" stroke="#000" stroke-width=".65"/><path d="m-1 58c-3 21 7 32.5 1 51 8-14-2-28 3-50" fill="#eac102" stroke="#000" stroke-width=".65"/></g></g><use height="1170" stroke="#000" stroke-width=".65" transform="scale(-1)" width="1820" xlink:href="#d"/></g><use height="1170" stroke="#000" stroke-width=".65" transform="rotate(90)" width="1820" xlink:href="#c"/></g><use height="1170" stroke="#000" stroke-width=".65" transform="matrix(.70710678 .70710678 -.70710678 .70710678 0 0)" width="1820" xlink:href="#b"/></g><g stroke="#000" stroke-width=".65" transform="matrix(1.5384615 0 0 1.5384615 275 260.00001)"><use height="1170" transform="matrix(.92387953 .38268343 -.38268343 .92387953 0 0)" width="1820" xlink:href="#a"/><circle fill="#eac102" r="65"/></g></g><g transform="translate(-125 -123.31204)"><path d="m636.19683 510.94066a259.58701 259.58701 0 0 1 -487.86399 0" fill="none" transform="matrix(-.82033312 0 0 .82033312 722.96483 416.11844)"/><g fill="#008f4c" fill-rule="evenodd" stroke="#000" stroke-width="2.249479" transform="matrix(.46838796 0 0 .42117685 116.27189 510.33958)"><g transform="matrix(1.0017648 0 0 1 28.510665 -705.6205)"><path d="m186.15544 1247.6078c-31.18989 49.9047-67.24231 126.6164-62.81946 194.785 4.31508 66.5074 34.31908 140.0728 155.25593 244.8029 91.86473 79.4503 211.84671 85.1107 271.02755 97.2548 59.0305 12.1134 101.74626 31.1032 111.50717 44.1483.49248-9.1885 1.83275-18.3768-8.0111-27.5652-28.03886-12.3568-72.63734-25.223-136.95616-32.7412-172.88256-20.208-320.09242-140.0263-363.56898-258.5559-31.22451-85.1271-24.30783-130.0181 34.86234-261.3909 0 0-1.29729-.7378-1.29729-.7378z" stroke-width="2.249479"/><g stroke-width="2.24948" transform="matrix(.9819541 -.1891191 .1891191 .9819541 -234.22704 145.90258)"><path d="m40.53586 1436.7067c13.83665 16.0406 30.06081 23.679 42.24397 32.4852 9.41574 6.8059 16.86637 15.0151 22.3554 19.343 5.25473 4.1432 14.48098 7.176 21.28407 13.3705 10.78303 9.8182 26.78494 38.4821 26.78494 38.4821s-11.47048 12.2534-24.94419 6.9162c-41.72746-5.1695-53.99025-24.951-69.50399-60.5572-8.68361-18.4626-17.2753-31.9736-18.2202-50.0398z"/><path d="m174.23494 1547.2374 2.81591 6.2578c-50.01384-22.8019-115.62449-68.7793-137.10328-115.6129 30.54195 50.5161 80.99616 83.8235 134.28737 109.3551z"/></g><g stroke-width="2.249479"><g transform="translate(7.130267 11.408427)"><path d="m102.78679 1606.1835c18.95531 11.2611 37.7394 14.1949 52.7909 19.2208 11.63262 3.8845 31.65346 10.1918 38.54583 12.7876 6.59822 2.485 16.87621 7.1209 25.67455 11.1017 13.94541 6.3095 29.03746 23.8214 29.03746 23.8214s-21.21744 22.2597-46.55828 19.1076c-19.87028-2.4716-29.88795-7.9171-39.85593-12.7636-10.36255-5.0383-10.12109-10.76-25.04645-21.5174-16.50364-11.895-28.06417-35.3848-34.58808-51.7581z"/><path d="m103.04438 1607.0448c17.15921 16.7137 49.18745 35.3 81.32113 49.029 32.18359 13.7504 69.76834 18.151 87.87878 18.0381l4.78002 5.0441c-26.05676-2.4248-60.41666-7.1451-89.53187-19.0925-37.96184-15.5775-69.13988-35.5942-84.69551-52.0242z"/></g><path d="m144.84497 1687.4534c34.22342-1.2047 53.05973 9.4421 84.85739 16.396 29.72188 6.4999 64.48611-8.9539 83.72249 19.6434-77.45679 50.1926-133.36948 16.4204-168.57988-36.0394z"/><g transform="translate(-12.35913 2.376756)"><path d="m214.50867 1757.7848c14.75112-12.6497 141.48495-55.5304 161.72376-7.6042-30.14858 33.341-118.3916 40.7863-161.72376 7.6042z"/><path d="m216.01082 1758.7353c67.51973 13.4805 146.87383-.043 178.24649-18.5353l5.00689 3.3269c-72.33581 30.8267-142.61631 26.7699-183.25338 15.2084z"/></g><path d="m145.91379 1687.446c39.76427 26.6671 91.01113 46.548 200.77784 31.8425l1.50205 3.8021c-150.41421 12.9008-165.29839-14.6713-202.27989-35.6446z"/></g><g stroke-width="2.882134" transform="matrix(.8068278 0 0 .7550138 91.2065 435.13178)"><path d="m244.55029 1791.5283c13.38565-2.1172 29.1598-5.2224 44.57875-7.0054 15.48734-1.7912 21.55494-4.4712 33.00037-6.0493 18.72785-2.5822 40.1648-28.8655 106.17508-8.8073-25.55384 58.8679-112.75826 71.224-183.7542 21.862z"/><path d="m245.05101 1792.0036c52.47827 1.8637 82.01597 25.2451 180.31816-23.1398 8.03209-3.9534 18.75115-6.7081 24.96585-9.6533l9.01243 3.3269c-6.84225 3.054-17.88709 2.9712-24.04113 5.6867-122.75175 54.1642-119.31481 28.8417-190.25531 23.7795z"/></g><path d="m661.0015 1828.3611c.49238-9.1883 1.95788-17.545-7.63572-26.7335-2.98051 5.989-3.64924 13.229 7.63572 26.7335z" stroke-width="2.249479"/><g stroke-width="2.606433" transform="matrix(.7693588 -.3910759 .3910759 .7693588 -534.93286 490.68974)"><path d="m189.85795 1574.7967c2.46162-36.6613 20.25438 14.1478 56.1951-67.7654 10.44459-23.8044 10.36215-38.9882 17.44583-74.7245-19.5665 30.8906-52.2792 39.2254-65.56161 63.0913-13.0685 23.4815-9.73362 61.2393-8.07932 79.3986z"/><path d="m245.26783 1470.1008c-22.54902 30.3638-52.8627 66.3457-54.28633 104.122l-3.5214 1.3114c5.25022-49.683 34.62312-72.627 52.74049-97.6916z"/></g><g stroke-width="2.249479" transform="translate(35.651336 99.82374)"><path d="m29.12708 1359.4281c11.8865 16.6992 26.6325 25.3061 37.48342 34.7855 8.38619 7.3262 14.81771 15.8976 19.68038 20.5225 4.6552 4.4275 13.13569 8.034 19.10254 14.5821 9.45732 10.3785 22.47169 39.6265 22.47169 39.6265s-15.26444 14.364-27.58347 8.2049c-12.31903-6.159-28.83697-20.1429-37.00805-27.4361-8.5079-7.594-10.59796-25.9148-20.58773-39.886-11.62298-16.2556-13.97554-32.5862-13.55878-50.3994z"/><path d="m65.13596 1411.0764c24.25936 27.6324 54.1148 53.9814 82.06478 66.027l2.20232 6.3392c-45.51129-25.8001-64.69608-49.1227-84.834-71.4821z"/></g><g stroke-width="2.562391" transform="matrix(.8709632 .1100069 -.1100069 .8709632 181.05387 245.10093)"><path d="m46.33781 1311.8428c8.28336 16.2149 20.69819 25.8307 29.278 35.6344 6.63096 7.5768 11.19487 15.9478 14.97326 20.6679 3.61721 4.5187 10.99423 8.884 15.47629 15.4328 7.10417 10.3798 14.23715 37.6402 14.23715 37.6402s-10.34873 11.0157-20.90239 3.8767-25.66359-21.7152-32.09712-29.232c-6.69884-7.8267-10.08073-24.7677-17.05343-38.3404-8.11273-15.7918-7.45164-30.2951-3.91176-45.6796z"/><path d="m71.24411 1361.8832c18.04476 27.5013 41.60436 54.7069 65.88953 69.2322l.96157 5.8181c-38.45122-29.0155-52.46161-52.0391-67.54293-74.3665z"/></g><g stroke-width="2.249479" transform="matrix(.9824859 -.1863374 .1863374 .9824859 -264.23089 198.85921)"><path d="m199.65738 1188.0301c50.53826 5.3993 47.86626-43.0784 62.27657-83.5455-29.76492 22.196-87.10887 35.7655-62.27657 83.5455z"/><path d="m188.21219 1201.7635c18.76367-35.2271 48.71442-60.7097 73.74989-97.4443-28.89677 41.7852-59.92577 74.5044-76.52884 103.1286"/></g><g stroke-width="2.433302" transform="matrix(.8753361 -.3155006 .318062 .8616908 -451.60062 341.30202)"><path d="m239.54341 1626.1372c68.37386-53.1865 27.26869-98.0546 21.5297-137.826-17.37281 44.8462-66.28062 83.5202-21.5297 137.826z"/><path d="m238.54187 1639.4445c-2.78639-54.1582 11.96864-100.8236 21.52981-149.7075-9.03454 51.6182-21.86182 103.5637-17.02344 153.9849z"/></g><g stroke-width="2.873872" transform="matrix(.7597694 -.2428983 .2545412 .7250173 -327.93359 511.95738)"><path d="m163.43805 1498.7669c7.0424-17.8214 1.63607-25.0243 17.18979-40.68 16.80672-16.9169 49.0463-47.1902 65.92523-81.9375 2.43942 30.7198 2.82718 78.1514-20.96862 94.0175-18.00449 12.0048-33.70324 15.3832-62.1464 28.6z"/><path d="m157.36897 1509.603c7.13248-33.1152 72.39154-55.1057 88.68338-132.0279-13.36194 76.4798-79.52041 95.7599-86.17989 138.8004z"/></g><g stroke-width="2.808869" transform="matrix(.7563353 -.1876612 .1764939 .8041908 -213.12957 368.69)"><path d="m152.92356 1449.8149c87.12724-2.4431 78.88873-84.6397 79.61008-123.0928-15.73438 23.5345-34.97812 43.9894-49.31368 60.918-15.65314 18.4843-30.73516 39.3515-30.2964 62.1748z"/><path d="m142.77019 1464.5687 1.77019 8.4015c9.64963-51.8482 70.55256-77.365 88.15675-146.5226-25.72787 74.9409-75.37446 84.8343-89.92694 138.1211z"/></g><g stroke-width="2.483446" transform="matrix(.864975 -.3210712 .3282164 .8266985 -412.01952 493.9181)"><path d="m186.31747 1175.5562c16.65901-77.1702 69.75237-46.9858 99.1321-80.9907-15.19711 49.765-37.51255 83.745-99.1321 80.9907z"/><path d="m176.75832 1180.5972c38.88866-26.4268 76.36083-34.6586 108.69125-84.6874-25.96719 48.9474-67.29829 61.3463-110.10745 88.384z"/></g><g stroke-width="3.415787" transform="matrix(.5450192 -.2862291 .2646373 .6567586 -278.04789 698.99338)"><path d="m152.68334 1062.6398c-35.18289 65.4377-43.64243 103.2851-2.12419 146.1865 0 0 21.79969-20.4906 27.0053-58.1942 4.40286-31.8894-21.61579-70.0696-24.88111-87.9923z"/><path d="m150.55915 1065.3283c-9.87971 49.1202-10.60207 94.5525 2.47829 168.0304l2.83228-5.3769c-8.20582-43.2859-17.50989-87.6303-5.31057-162.6535z"/></g><g stroke-width="2.437765" transform="matrix(.9188108 -.0853121 .0853121 .9188108 -144.54299 348.94737)"><path d="m211.10054 1024.6649c-9.3358 41.4801 26.5695 60.4945-24.78307 113.9246-36.63562-43.5845-19.14753-54.472 24.78307-113.9246z"/><path d="m210.03835 1026.3452c-19.74014 41.6681-34.84958 83.8385-21.95069 129.0474l3.54048-5.0409c-15.29221-41.3355 2.58424-82.671 18.41021-124.0065z"/></g><g stroke-width="2.24948" transform="matrix(.9973189 .07317728 -.07317728 .9973189 366.39117 613.94006)"><path d="m-2.2845182 979.003c-13.3256908 59.3443 24.0920552 94.2107 64.0886052 111.2114 13.933836-85.284-42.775615-66.0933-64.0886052-111.2114z"/><path d="m-3.285956 979.003c2.0342082 34.912 45.946031 66.7231 67.593537 122.6176l6.008225 3.8021c-29.424014-67.6219-70.22688044-88.4955-73.601762-126.4197z"/></g><g stroke-width="2.310196" transform="matrix(1 0 0 .9481265 10.933076 95.26562)"><path d="m346.77112 1626.234c-8.84331 54.1723 22.75983 98.1925 70.42087 111.8454 15.5605-69.8336-48.82159-72.3333-70.42087-111.8454z"/><path d="m346.68372 1626.669c17.49668 42.5043 41.16423 82.0662 83.57043 125.6764l9.12108 1.1798c-47.19771-37.3392-73.10897-85.8445-92.69151-126.8562z"/></g><g stroke-width="2.520067" transform="matrix(.8458764 -.2850894 .2850894 .8458764 -20.689137 854.74664)"><path d="m179.12885 1032.2936c-5.35793 23.8994 5.80888 50.8055 17.11255 72.6781 11.28705 21.8404 11.10918 28.5467 32.37509 43.5148 40.13-44.0365-32.36121-79.8792-49.48764-116.1929z"/><path d="m179.53121 1031.8183c9.36265 55.9302 41.83749 92.8226 53.51099 130.8213l3.21863.7651c-17.50159-52.1184-41.60829-69.0185-56.72962-131.5864z"/></g><g stroke-width="2.492175" transform="matrix(.7711926 -.4665206 .4646848 .7753349 -559.24428 577.63556)"><path d="m162.43671 1247.3533c46.25002-3.0454 83.7472-25.8231 108.65028-76.9924-47.43564 21.1771-100.03048 23.3213-108.65028 76.9924z"/><path d="m147.01867 1256.2109c38.48777-30.4309 88.38562-50.6383 124.26917-86.3677-29.81859 34.0166-87.11003 57.7908-125.33127 91.4086z"/></g></g><g transform="matrix(-1.0017648 0 0 1 1182.9983 -705.6205)"><path d="m186.15544 1247.6078c-31.18989 49.9047-67.24231 126.6164-62.81946 194.785 4.31508 66.5074 34.31908 140.0728 155.25593 244.8029 91.86473 79.4503 211.84671 85.1107 271.02755 97.2548 59.0305 12.1134 101.74626 31.1032 111.50717 44.1483.49248-9.1885 1.83275-18.3768-8.0111-27.5652-28.03886-12.3568-72.63734-25.223-136.95616-32.7412-172.88256-20.208-320.09242-140.0263-363.56898-258.5559-31.22451-85.1271-24.30783-130.0181 34.86234-261.3909 0 0-1.29729-.7378-1.29729-.7378z" stroke-width="2.249479"/><g stroke-width="2.24948" transform="matrix(.9819541 -.1891191 .1891191 .9819541 -234.22704 145.90258)"><path d="m40.53586 1436.7067c13.83665 16.0406 30.06081 23.679 42.24397 32.4852 9.41574 6.8059 16.86637 15.0151 22.3554 19.343 5.25473 4.1432 14.48098 7.176 21.28407 13.3705 10.78303 9.8182 26.78494 38.4821 26.78494 38.4821s-11.47048 12.2534-24.94419 6.9162c-41.72746-5.1695-53.99025-24.951-69.50399-60.5572-8.68361-18.4626-17.2753-31.9736-18.2202-50.0398z"/><path d="m174.23494 1547.2374 2.81591 6.2578c-50.01384-22.8019-115.62449-68.7793-137.10328-115.6129 30.54195 50.5161 80.99616 83.8235 134.28737 109.3551z"/></g><g stroke-width="2.249479"><g transform="translate(7.130267 11.408427)"><path d="m102.78679 1606.1835c18.95531 11.2611 37.7394 14.1949 52.7909 19.2208 11.63262 3.8845 31.65346 10.1918 38.54583 12.7876 6.59822 2.485 16.87621 7.1209 25.67455 11.1017 13.94541 6.3095 29.03746 23.8214 29.03746 23.8214s-21.21744 22.2597-46.55828 19.1076c-19.87028-2.4716-29.88795-7.9171-39.85593-12.7636-10.36255-5.0383-10.12109-10.76-25.04645-21.5174-16.50364-11.895-28.06417-35.3848-34.58808-51.7581z"/><path d="m103.04438 1607.0448c17.15921 16.7137 49.18745 35.3 81.32113 49.029 32.18359 13.7504 69.76834 18.151 87.87878 18.0381l4.78002 5.0441c-26.05676-2.4248-60.41666-7.1451-89.53187-19.0925-37.96184-15.5775-69.13988-35.5942-84.69551-52.0242z"/></g><path d="m144.84497 1687.4534c34.22342-1.2047 53.05973 9.4421 84.85739 16.396 29.72188 6.4999 64.48611-8.9539 83.72249 19.6434-77.45679 50.1926-133.36948 16.4204-168.57988-36.0394z"/><g transform="translate(-12.35913 2.376756)"><path d="m214.50867 1757.7848c14.75112-12.6497 141.48495-55.5304 161.72376-7.6042-30.14858 33.341-118.3916 40.7863-161.72376 7.6042z"/><path d="m216.01082 1758.7353c67.51973 13.4805 146.87383-.043 178.24649-18.5353l5.00689 3.3269c-72.33581 30.8267-142.61631 26.7699-183.25338 15.2084z"/></g><path d="m145.91379 1687.446c39.76427 26.6671 91.01113 46.548 200.77784 31.8425l1.50205 3.8021c-150.41421 12.9008-165.29839-14.6713-202.27989-35.6446z"/></g><g stroke-width="2.882134" transform="matrix(.8068278 0 0 .7550138 91.2065 435.13178)"><path d="m244.55029 1791.5283c13.38565-2.1172 29.1598-5.2224 44.57875-7.0054 15.48734-1.7912 21.55494-4.4712 33.00037-6.0493 18.72785-2.5822 40.1648-28.8655 106.17508-8.8073-25.55384 58.8679-112.75826 71.224-183.7542 21.862z"/><path d="m245.05101 1792.0036c52.47827 1.8637 82.01597 25.2451 180.31816-23.1398 8.03209-3.9534 18.75115-6.7081 24.96585-9.6533l9.01243 3.3269c-6.84225 3.054-17.88709 2.9712-24.04113 5.6867-122.75175 54.1642-119.31481 28.8417-190.25531 23.7795z"/></g><path d="m661.0015 1828.3611c.49238-9.1883 1.95788-17.545-7.63572-26.7335-2.98051 5.989-3.64924 13.229 7.63572 26.7335z" stroke-width="2.249479"/><g stroke-width="2.606433" transform="matrix(.7693588 -.3910759 .3910759 .7693588 -534.93286 490.68974)"><path d="m189.85795 1574.7967c2.46162-36.6613 20.25438 14.1478 56.1951-67.7654 10.44459-23.8044 10.36215-38.9882 17.44583-74.7245-19.5665 30.8906-52.2792 39.2254-65.56161 63.0913-13.0685 23.4815-9.73362 61.2393-8.07932 79.3986z"/><path d="m245.26783 1470.1008c-22.54902 30.3638-52.8627 66.3457-54.28633 104.122l-3.5214 1.3114c5.25022-49.683 34.62312-72.627 52.74049-97.6916z"/></g><g stroke-width="2.249479" transform="translate(35.651336 99.82374)"><path d="m29.12708 1359.4281c11.8865 16.6992 26.6325 25.3061 37.48342 34.7855 8.38619 7.3262 14.81771 15.8976 19.68038 20.5225 4.6552 4.4275 13.13569 8.034 19.10254 14.5821 9.45732 10.3785 22.47169 39.6265 22.47169 39.6265s-15.26444 14.364-27.58347 8.2049c-12.31903-6.159-28.83697-20.1429-37.00805-27.4361-8.5079-7.594-10.59796-25.9148-20.58773-39.886-11.62298-16.2556-13.97554-32.5862-13.55878-50.3994z"/><path d="m65.13596 1411.0764c24.25936 27.6324 54.1148 53.9814 82.06478 66.027l2.20232 6.3392c-45.51129-25.8001-64.69608-49.1227-84.834-71.4821z"/></g><g stroke-width="2.562391" transform="matrix(.8709632 .1100069 -.1100069 .8709632 181.05387 245.10093)"><path d="m46.33781 1311.8428c8.28336 16.2149 20.69819 25.8307 29.278 35.6344 6.63096 7.5768 11.19487 15.9478 14.97326 20.6679 3.61721 4.5187 10.99423 8.884 15.47629 15.4328 7.10417 10.3798 14.23715 37.6402 14.23715 37.6402s-10.34873 11.0157-20.90239 3.8767-25.66359-21.7152-32.09712-29.232c-6.69884-7.8267-10.08073-24.7677-17.05343-38.3404-8.11273-15.7918-7.45164-30.2951-3.91176-45.6796z"/><path d="m71.24411 1361.8832c18.04476 27.5013 41.60436 54.7069 65.88953 69.2322l.96157 5.8181c-38.45122-29.0155-52.46161-52.0391-67.54293-74.3665z"/></g><g stroke-width="2.249479" transform="matrix(.9824859 -.1863374 .1863374 .9824859 -264.23089 198.85921)"><path d="m199.65738 1188.0301c50.53826 5.3993 47.86626-43.0784 62.27657-83.5455-29.76492 22.196-87.10887 35.7655-62.27657 83.5455z"/><path d="m188.21219 1201.7635c18.76367-35.2271 48.71442-60.7097 73.74989-97.4443-28.89677 41.7852-59.92577 74.5044-76.52884 103.1286"/></g><g stroke-width="2.433302" transform="matrix(.8753361 -.3155006 .318062 .8616908 -451.60062 341.30202)"><path d="m239.54341 1626.1372c68.37386-53.1865 27.26869-98.0546 21.5297-137.826-17.37281 44.8462-66.28062 83.5202-21.5297 137.826z"/><path d="m238.54187 1639.4445c-2.78639-54.1582 11.96864-100.8236 21.52981-149.7075-9.03454 51.6182-21.86182 103.5637-17.02344 153.9849z"/></g><g stroke-width="2.873872" transform="matrix(.7597694 -.2428983 .2545412 .7250173 -327.93359 511.95738)"><path d="m163.43805 1498.7669c7.0424-17.8214 1.63607-25.0243 17.18979-40.68 16.80672-16.9169 49.0463-47.1902 65.92523-81.9375 2.43942 30.7198 2.82718 78.1514-20.96862 94.0175-18.00449 12.0048-33.70324 15.3832-62.1464 28.6z"/><path d="m157.36897 1509.603c7.13248-33.1152 72.39154-55.1057 88.68338-132.0279-13.36194 76.4798-79.52041 95.7599-86.17989 138.8004z"/></g><g stroke-width="2.808869" transform="matrix(.7563353 -.1876612 .1764939 .8041908 -213.12957 368.69)"><path d="m152.92356 1449.8149c87.12724-2.4431 78.88873-84.6397 79.61008-123.0928-15.73438 23.5345-34.97812 43.9894-49.31368 60.918-15.65314 18.4843-30.73516 39.3515-30.2964 62.1748z"/><path d="m142.77019 1464.5687 1.77019 8.4015c9.64963-51.8482 70.55256-77.365 88.15675-146.5226-25.72787 74.9409-75.37446 84.8343-89.92694 138.1211z"/></g><g stroke-width="2.483446" transform="matrix(.864975 -.3210712 .3282164 .8266985 -412.01952 493.9181)"><path d="m186.31747 1175.5562c16.65901-77.1702 69.75237-46.9858 99.1321-80.9907-15.19711 49.765-37.51255 83.745-99.1321 80.9907z"/><path d="m176.75832 1180.5972c38.88866-26.4268 76.36083-34.6586 108.69125-84.6874-25.96719 48.9474-67.29829 61.3463-110.10745 88.384z"/></g><g stroke-width="3.415787" transform="matrix(.5450192 -.2862291 .2646373 .6567586 -278.04789 698.99338)"><path d="m152.68334 1062.6398c-35.18289 65.4377-43.64243 103.2851-2.12419 146.1865 0 0 21.79969-20.4906 27.0053-58.1942 4.40286-31.8894-21.61579-70.0696-24.88111-87.9923z"/><path d="m150.55915 1065.3283c-9.87971 49.1202-10.60207 94.5525 2.47829 168.0304l2.83228-5.3769c-8.20582-43.2859-17.50989-87.6303-5.31057-162.6535z"/></g><g stroke-width="2.437765" transform="matrix(.9188108 -.0853121 .0853121 .9188108 -144.54299 348.94737)"><path d="m211.10054 1024.6649c-9.3358 41.4801 26.5695 60.4945-24.78307 113.9246-36.63562-43.5845-19.14753-54.472 24.78307-113.9246z"/><path d="m210.03835 1026.3452c-19.74014 41.6681-34.84958 83.8385-21.95069 129.0474l3.54048-5.0409c-15.29221-41.3355 2.58424-82.671 18.41021-124.0065z"/></g><g stroke-width="2.24948" transform="matrix(.9973189 .07317728 -.07317728 .9973189 366.39117 613.94006)"><path d="m-2.2845182 979.003c-13.3256908 59.3443 24.0920552 94.2107 64.0886052 111.2114 13.933836-85.284-42.775615-66.0933-64.0886052-111.2114z"/><path d="m-3.285956 979.003c2.0342082 34.912 45.946031 66.7231 67.593537 122.6176l6.008225 3.8021c-29.424014-67.6219-70.22688044-88.4955-73.601762-126.4197z"/></g><g stroke-width="2.310196" transform="matrix(1 0 0 .9481265 10.933076 95.26562)"><path d="m346.77112 1626.234c-8.84331 54.1723 22.75983 98.1925 70.42087 111.8454 15.5605-69.8336-48.82159-72.3333-70.42087-111.8454z"/><path d="m346.68372 1626.669c17.49668 42.5043 41.16423 82.0662 83.57043 125.6764l9.12108 1.1798c-47.19771-37.3392-73.10897-85.8445-92.69151-126.8562z"/></g><g stroke-width="2.520067" transform="matrix(.8458764 -.2850894 .2850894 .8458764 -20.689137 854.74664)"><path d="m179.12885 1032.2936c-5.35793 23.8994 5.80888 50.8055 17.11255 72.6781 11.28705 21.8404 11.10918 28.5467 32.37509 43.5148 40.13-44.0365-32.36121-79.8792-49.48764-116.1929z"/><path d="m179.53121 1031.8183c9.36265 55.9302 41.83749 92.8226 53.51099 130.8213l3.21863.7651c-17.50159-52.1184-41.60829-69.0185-56.72962-131.5864z"/></g><g stroke-width="2.492175" transform="matrix(.7711926 -.4665206 .4646848 .7753349 -559.24428 577.63556)"><path d="m162.43671 1247.3533c46.25002-3.0454 83.7472-25.8231 108.65028-76.9924-47.43564 21.1771-100.03048 23.3213-108.65028 76.9924z"/><path d="m147.01867 1256.2109c38.48777-30.4309 88.38562-50.6383 124.26917-86.3677-29.81859 34.0166-87.11003 57.7908-125.33127 91.4086z"/></g></g></g><path d="m246.86753 823.15858-93.95378 34.19763c26.57259 73.00761 84.13746 130.59811 157.14506 157.17069 135.9076 49.4663 287.56242-21.2631 337.02874-157.17069l-93.97941-34.19763c-30.98218 85.12283-123.72885 128.37109-208.85169 97.38892-45.29191-16.48491-80.90402-52.09701-97.38892-97.38892z" fill="#eac102" stroke="#000"/><path d="m215.23505 857.02559.0911.38469-4.47984.61367-5.2577-11.12483.39201-.18527.25538.54035c.28708.60745.69016.94838 1.20922 1.02278.29613.0415.85387-.13136 1.67323-.51859l9.27069-4.38142c.89704-.42395 1.41184-.78822 1.54442-1.09282.18058-.42235.14236-.90547-.11467-1.44936l-.25537-.54034.39201-.18528 3.07451 6.50538-.39202.18527c-.35348-.76618-.67699-1.26785-.97051-1.505-.29356-.23716-.58006-.35883-.85948-.36502-.27945-.006-.84651.19267-1.70116.5966l-9.02701 4.26625c-.58627.27707-.96217.52385-1.12772.74036-.10828.15485-.156.33727-.14318.54724.0128.20996.23788.7776.67519 1.70291l.49573 1.04891c.52076 1.10188.96752 1.83693 1.34029 2.20515.37276.36821.85254.63832 1.43935.81034.58678.172 1.41197.23134 2.47555.17803z"/><path d="m221.66362 866.67712-3.03951-5.34909-2.71303.3016c-.66784.074-1.13421.18622-1.39912.33675-.21057.11965-.33873.32501-.38449.6161-.0458.29108.0967.78296.42741 1.47564l-.37698.21422-2.47214-4.35059.37698-.21422c.42997.51947.7747.81779 1.03422.89497.52288.16115 1.40322.16861 2.64102.0224l14.13223-1.60111.20264.35661-8.76023 11.33969c-.70378.91207-1.10348 1.6042-1.19909 2.07638-.0956.47216-.00024.99978.28616 1.58287l-.37698.21421-3.09741-5.45097.37698-.21421c.3398.53474.64282.85452.90905.95935.26623.1048.51142.0935.73557-.0338.29887-.16984.69375-.57393 1.18466-1.2123zm.59186-.71371 4.25183-5.51608-6.94976.76813z"/><path d="m238.59085 875.18403-5.09822 3.60858 1.67227 2.36259c.38364.54202.78417.85435 1.20159.93697.4174.0826 1.00936-.0851 1.77587-.50322l.2505.35391-4.3904 3.10758-.2505-.35391c.49924-.36296.82283-.6901.97076-.98145.14792-.29135.20301-.58877.16527-.89227-.0378-.3035-.21009-.67206-.517-1.10567l-1.67227-2.3626-4.07475 2.88416c-.65681.46489-1.06109.81326-1.21284 1.04511-.11429.1766-.15661.40755-.12695.69285.0456.3889.17665.7364.3933 1.04249l.33175.46869-.35391.2505-3.94032-5.56692.35391-.2505.32497.45913c.37914.53565.81069.81405 1.29467.8352.31238.009.85755-.26241 1.63552-.81306l8.37907-5.93079c.65679-.46489 1.06108-.81326 1.21285-1.04511.11427-.1766.15884-.40436.13372-.6833-.0411-.38251-.17216-.73001-.39331-1.04248l-.32497-.45912.35391-.2505 6.83124 9.65123-2.7624 2.1419-.23696-.33478c.48842-.59459.79666-1.1023.92473-1.52315.12803-.42085.14186-.83743.0415-1.24972-.10042-.4123-.38984-.95642-.86825-1.63236z"/><path d="m236.17749 896.28095-.3411.26768-4.20337-5.35618.3411-.26768.34727.44251c.40514.51625.84993.77299 1.33436.7702.31242-.007.84354-.30447 1.59334-.89289l8.07575-6.33761c.63302-.49678 1.01959-.8647 1.15972-1.10377.10541-.18203.13867-.41172.0998-.68907-.0647-.38617-.21284-.72676-.44434-1.02177l-.34727-.44251.3411-.26768 4.20337 5.35618-.3411.26768-.3545-.45173c-.40033-.5101-.84271-.76376-1.32712-.76098-.31727.0007-.85079.29525-1.60058.88367l-8.07575 6.33761c-.63304.49679-1.01961.86471-1.15972 1.10377-.10542.18204-.13627.4148-.0926.69829.0599.38002.20559.71754.4371 1.01255z"/><path d="m250.76165 890.98115-4.73098 4.13182 2.29717 2.63028c.59612.68258 1.09738 1.04868 1.50376 1.0983.5379.0696 1.16356-.17604 1.87699-.73686l.28522.32658-4.16609 3.63846-.28522-.32657c.51059-.59116.8123-.99987.90512-1.22614.11344-.28579.12365-.6007.0307-.94473-.093-.34404-.35795-.76615-.79476-1.26631l-2.29717-2.63028-3.94542 3.44575c-.52959.46251-.8312.76742-.90483.91471-.0736.14728-.0929.30931-.0578.4861s.19656.42994.48435.75946l1.77299 2.03009c.59098.67669 1.06717 1.12691 1.42856 1.35068.36137.22375.80368.35608 1.32693.397.68344.0462 1.55995-.0607 2.62954-.32055l.30834.35306-3.9029 1.58823-8.05551-9.22364.32658-.28522.37002.42367c.24667.28244.54817.49108.90449.62591.2586.10607.51159.11071.75899.0139.2474-.0968.66237-.39955 1.24492-.90832l7.7761-6.7913c.75906-.66293 1.16006-1.14798 1.20298-1.45515.0504-.41739-.1403-.87323-.57197-1.36752l-.37002-.42367.32658-.28522 8.05551 9.22364-2.50583 2.42186-.30063-.34423c.52168-.67346.83469-1.18799.93904-1.5436.1043-.35561.0898-.73449-.0436-1.13662-.11732-.31246-.43549-.76585-.95452-1.36016z"/><path d="m258.64171 914.75307.21569.3313-4.00913 2.09105-8.70695-8.6945.30637-.30682.42291.42231c.47543.47474.96998.65945 1.48367.55412.29274-.061.75929-.4121 1.39965-1.05337l7.24541-7.2558c.70107-.70207 1.06254-1.21885 1.08441-1.55033.0273-.45853-.17191-.90033-.59757-1.3254l-.42291-.4223.30638-.30682 5.09149 5.08421-.30637.30682c-.59155-.60172-1.06551-.9646-1.4219-1.08865-.35642-.12403-.66717-.14176-.93226-.0532-.26512.0886-.73165.46733-1.39959 1.13624l-7.05497 7.06507c-.45819.45884-.72862.81811-.81129 1.07781-.0496.18234-.0329.37015.0501.56344s.4866.65151 1.2108 1.37468l.82094.81977c.8624.86116 1.53122 1.40206 2.00647 1.6227.47524.22062 1.01806.31276 1.62848.27643.6104-.0364 1.40711-.25928 2.39015-.66877z"/><path d="m279.49307 917.44078 4.30641 3.4899-.273.33686-.23671-.19183c-.15784-.12789-.44505-.245-.86164-.35134-.41664-.10634-.85513-.12985-1.31547-.0705-.46038.0593-1.11121.2358-1.9525.52942l-6.77694 2.27612-2.50859 3.09551c-.61486.7587-.91355 1.30099-.89608 1.62688.024.44184.28493.86443.78265 1.26777l.40059.32465-.27299.33686-5.24416-4.24985.27299-.33687.43702.35416c.52198.42301 1.02012.56525 1.49441.42671.29092-.086.71676-.475 1.27751-1.16693l2.36841-2.92253.80398-7.91602c.0913-.9316.12708-1.53107.10743-1.79841-.0197-.26732-.16801-.6892-.44499-1.26564-.0722-.15906-.22364-.33206-.45428-.51898l.273-.33687 5.28058 4.27937-.273.33686-.27313-.22134c-.28529-.23118-.60191-.37715-.94986-.43792-.34798-.0607-.63017.0424-.84659.30945-.17709.21852-.31169.76307-.40379 1.63365l-.64773 6.06668 5.50588-1.84305c.82653-.27541 1.35294-.55272 1.57922-.83193.13771-.16995.21667-.35735.2369-.56221.0202-.20485-.0209-.41161-.12329-.6203-.10241-.20867-.31749-.44582-.64523-.71144z"/><path d="m300.1209 931.27253-2.35733 4.44609-.34551-.22103c.32479-1.2761.38129-2.35751.16951-3.24423-.30376-1.27939-1.08083-2.31905-2.33122-3.11896-1.70452-1.09039-3.43252-1.2452-5.18401-.46444-1.47201.66281-2.71111 1.78065-3.7173 3.35352-.81675 1.27674-1.31513 2.59947-1.49515 3.96819-.18003 1.36873-.0271 2.554.4589 3.55581.48595 1.0018 1.15012 1.77215 1.99251 2.31104.49357.31574 1.01069.55845 1.55137.72812.54066.16965 1.10276.26956 1.68632.29972l2.47549-3.86969c.42941-.67127.65943-1.14319.69005-1.41575.0306-.27256-.0263-.53154-.17072-.77696-.14443-.24541-.48647-.54073-1.0261-.88595l.23997-.37512 5.18261 3.31539-.23997.37513-.24679-.15788c-.51334-.32838-.97489-.38251-1.38465-.16238-.28741.15929-.66055.59761-1.11943 1.31495l-2.62074 4.09674c-1.01786-.0761-1.95637-.25453-2.81553-.5352-.85919-.28068-1.73958-.7094-2.64118-1.28617-2.58637-1.65454-4.02037-3.74045-4.30198-6.25773-.21121-1.88796.20312-3.6447 1.243-5.27024.75359-1.17801 1.75859-2.12563 3.01502-2.84288 1.49222-.85388 3.04507-1.25164 4.65857-1.19328 1.34684.0548 2.68825.50944 4.02423 1.36406.48698.31155.9043.63416 1.25195.96783.34762.33369.80038.8691 1.35829 1.60623.28012.37397.4827.60095.60776.68093.12502.08.2688.0908.43134.0325.1625-.0583.36099-.249.59547-.57201z"/><path d="m305.12662 935.4713-2.97331 5.53295 3.07616 1.65307c.79827.42899 1.39633.59517 1.79416.49853.52796-.12426 1.02708-.57443 1.49737-1.35053l.38194.20524-2.61829 4.8723-.38194-.20525c.26976-.73306.40825-1.22183.41546-1.4663.006-.30742-.0958-.60577-.30394-.89503-.2082-.28926-.60477-.59106-1.18971-.9054l-3.07615-1.65307-2.47961 4.61423c-.33284.61936-.50779 1.01093-.52484 1.17471-.0171.16378.022.32222.11707.47532.0951.1531.33534.3332.72073.5403l2.37421 1.27586c.7914.42529 1.39561.67903 1.81264.76123.41702.0822.8776.0503 1.38174-.0956.65595-.19739 1.43872-.606 2.34831-1.22584l.41291.22189-3.09381 2.86068-10.78718-5.79685.20524-.38194.49549.26627c.33033.17751.68598.26664 1.06695.26738.27939.008.51782-.0765.7153-.25419s.47928-.60718.8454-1.28847l4.8871-9.09427c.47705-.88774.68159-1.48292.61362-1.78553-.0998-.4084-.43877-.76792-1.01683-1.07858l-.49549-.26626.20525-.38194 10.78719 5.79684-1.49269 3.14904-.40258-.21634c.25116-.814.36298-1.40579.33543-1.77537-.0276-.36957-.17457-.71907-.44098-1.0485-.21981-.25115-.67724-.56348-1.37228-.937z"/><path d="m312.67044 938.6728 3.94089 1.75129 4.03789 14.83616 3.72149-8.3744c.39656-.89241.54407-1.49369.44254-1.80385-.13092-.41723-.48195-.75275-1.05307-1.00657l-.50332-.22367.17608-.39623 5.05462 2.24621-.17608.39623-.51403-.22842c-.614-.27284-1.13198-.28075-1.55395-.0237-.25861.15867-.56875.64494-.93041 1.45881l-5.43945 12.24034-.38553-.17133-4.37705-15.94866-3.9737 8.94198c-.39659.89241-.54767 1.49211-.45326 1.79909.13804.4204.48907.75593 1.05308 1.00657l.51403.22843-.17608.39623-5.05463-2.24622.17608-.39623.50332.22367c.62112.27602 1.14267.28551 1.56467.0285.25858-.15866.56872-.64493.9304-1.45881l4.48767-10.09854c-.20232-.67979-.37745-1.1466-.52539-1.40044-.14796-.25382-.4024-.54215-.76333-.86499-.1785-.15625-.47835-.32797-.89956-.51517z"/><path d="m332.16851 947.86889-2.11772 5.91349 3.28773 1.17739c.85318.30555 1.46929.38097 1.84834.22626.50361-.20136.93026-.72074 1.27995-1.55813l.40821.14618-1.86486 5.20741-.40821-.14619c.15778-.76503.22207-1.26895.19286-1.51177-.0402-.30484-.18475-.5848-.43362-.8399-.24889-.25509-.68592-.49458-1.31109-.71848l-3.28773-1.17738-1.76608 4.93158c-.23706.66196-.35185 1.07519-.34437 1.23968.007.1645.0696.31538.18644.45264.1168.13727.38115.27965.79304.42715l2.53751.90872c.84582.30291 1.48104.464 1.90566.48329.4246.0193.87532-.0807 1.35218-.29996.61931-.29271 1.33263-.81315 2.13997-1.56133l.44131.15804-2.63415 3.28883-11.5291-4.12875.14618-.40821.52957.18965c.35304.12643.71799.16169 1.09484.10578.27751-.0334.5007-.15262.66957-.3577.16887-.20507.38368-.67168.64445-1.39984l3.4808-9.71975c.33977-.94879.45356-1.56776.34135-1.85691-.15943-.38901-.54805-.69415-1.16587-.91542l-.52957-.18965.14619-.4082 11.5291 4.12875-1.00795 3.33596-.43027-.15409c.12736-.8423.14995-1.44414.0678-1.80552-.0822-.36136-.27953-.68512-.59195-.97128-.25471-.21568-.75349-.45654-1.49634-.72258z"/><path d="m351.81183 969.66415-4.08523-1.14325-3.17764-8.60439c-.38791-.0923-.70224-.17218-.94298-.23956-.0978-.0274-.20262-.0587-.31441-.0941-.1118-.0353-.22684-.0736-.3451-.11483l-1.24431 4.44636c-.2695.963-.33155 1.59059-.18616 1.88277.19325.41104.57576.69656 1.14755.85658l.59812.16738-.11686.41755-6.55668-1.83488.11685-.41755.57554.16106c.64702.18107 1.16866.0999 1.56494-.24352.22325-.18901.457-.71987.70123-1.5926l2.76654-9.88581c.26948-.96299.33154-1.59058.18616-1.88277-.20079-.41313-.59083-.70076-1.17013-.86289l-.57554-.16107.11685-.41755 5.57488 1.56012c1.62505.45479 2.79.90857 3.49485 1.36135.70481.45281 1.23724 1.07234 1.59727 1.8586.36.78628.41685 1.61954.17053 2.49977-.2632.94044-.79822 1.67094-1.60506 2.1915-.80688.52057-1.89356.74378-3.26007.66964l1.93133 5.27421c.44011 1.21027.87341 2.05355 1.29991 2.52986.42646.4763 1.04462.87645 1.85447 1.20043zm-8.6664-10.90707c.14294.04.26655.0766.37083.10987.10427.0332.19027.0593.25798.0783 1.45954.40845 2.64828.40039 3.5662-.0242.91791-.42458 1.51372-1.1259 1.78744-2.10395.26737-.95547.1857-1.81596-.24502-2.58146-.43074-.76549-1.1389-1.28614-2.12446-1.56197-.43637-.1221-1.04696-.2159-1.83177-.28141z"/><path d="m363.4002 955.40137c2.02322.40057 3.62419 1.51593 4.80294 3.34609 1.17871 1.83018 1.54048 3.89482 1.08532 6.19394-.46884 2.3681-1.60523 4.18592-3.40917 5.45346-1.80396 1.26754-3.76737 1.69117-5.89021 1.2709-2.14586-.42483-3.79779-1.54431-4.9558-3.35843s-1.49729-3.93206-1.01784-6.35381c.49007-2.47538 1.73288-4.32788 3.72843-5.5575 1.73232-1.06668 3.61776-1.39822 5.65633-.99465zm-.38456.79594c-1.39481-.27613-2.61613.0197-3.66396.88735-1.30484 1.07966-2.20305 2.86101-2.69464 5.34406-.50373 2.54437-.34726 4.61018.46941 6.19744.629 1.20765 1.6294 1.94727 3.00122 2.21886 1.46377.28979 2.78576-.0418 3.96598-.99481 1.18019-.953 2.01381-2.65954 2.50087-5.1196.52798-2.66698.39674-4.75965-.39372-6.27803-.63669-1.20915-1.6984-1.96091-3.18516-2.25527z"/><path d="m381.58911 958.16875-.67786 5.45414-.43028-.0535c-.009-1.06397-.15593-1.92847-.43935-2.59352-.28343-.66502-.73587-1.22116-1.35732-1.66842-.62147-.44724-1.28883-.71519-2.00208-.80385-.8063-.10019-1.50364.0631-2.09202.48987-.58838.4268-.92159.95418-.99964 1.58215-.0597.48068.0525.93944.33674 1.37625.40841.64122 1.4556 1.55863 3.14157 2.75223 1.37476.97387 2.30529 1.70555 2.79161 2.19504.4863.48951.83917 1.03918 1.05861 1.64902.21942.60984.29011 1.22876.21207 1.85673-.1484 1.19394-.73954 2.16556-1.77343 2.91486-1.03391.7493-2.27963 1.03337-3.73716.85223-.45742-.0569-.88337-.14522-1.27784-.2651-.23553-.0686-.71606-.27203-1.44161-.61019s-1.18912-.51977-1.39069-.54482c-.19382-.0241-.35417.015-.48103.11735-.12687.10232-.24009.3323-.33964.68994l-.43029-.0535.67208-5.40761.43028.0535c.0609 1.15697.22698 2.03769.49825 2.64217.27126.60448.73459 1.13638 1.38998 1.59572.65537.45934 1.40172.74104 2.23903.8451.9691.12045 1.76649-.0403 2.39218-.48208.62566-.44183.98186-1.01162 1.06859-1.70938.0482-.38764-.01-.79241-.17383-1.2143-.16407-.42189-.44974-.83134-.857-1.22836-.27346-.27016-1.03771-.86702-2.29275-1.79059-1.25506-.92355-2.13956-1.64557-2.6535-2.16607-.51395-.52048-.88451-1.07037-1.11167-1.6497-.22716-.5793-.30027-1.19458-.21933-1.84583.14068-1.1319.696-2.05287 1.66598-2.76289.96997-.70999 2.12558-.98165 3.46683-.81497.8373.10408 1.69946.41986 2.5865.94733.41006.2478.70425.38277.88258.40491.20156.0251.37378-.0145.51665-.11882.14284-.10426.27568-.33377.3985-.68853z"/><path d="m393.15902 969.90889-6.14438-.31283-1.20424 2.44975c-.29667.60289-.45275 1.05648-.46824 1.36077-.0123.24187.0919.46035.31278.65542.22084.19508.71218.33939 1.47404.43293l-.0221.43303-4.99743-.25442.022-.43304c.66916-.0833 1.10603-.21357 1.31063-.39089.41699-.35426.89655-1.09255 1.4387-2.21487l6.24758-12.77699.40963.0209 4.85197 13.48289c.3907 1.08377.75942 1.79289 1.10615 2.12735.34671.33447.84288.5377 1.48851.60968l-.022.43303-6.26142-.31878.022-.43303c.63357.00097 1.06611-.0826 1.29763-.25075.23149-.16814.3538-.38094.36692-.63842.0175-.34331-.11098-.89352-.38532-1.65063zm-.2836-.88275-2.3653-6.55062-3.08858 6.27295z"/><path d="m418.73981 958.42431.67578 5.37221-.36267.0211c-.5773-1.58638-1.33501-2.70841-2.27313-3.3661-.93814-.65765-2.03506-.95004-3.29075-.87715-1.05292.0611-1.98893.38351-2.80804.96711-.81912.58362-1.43844 1.47453-1.85798 2.67272-.41955 1.19822-.57883 2.66695-.47785 4.4062.0833 1.43509.38561 2.66573.90691 3.69192.52128 1.0262 1.26034 1.79325 2.21717 2.30115.95682.5079 2.02798.72743 3.2135.65861 1.0295-.0598 1.92534-.33285 2.6875-.81925.76214-.4864 1.57704-1.41213 2.44471-2.77722l.37625.21293c-.71359 1.45787-1.58172 2.54517-2.60438 3.26189-1.02269.71673-2.26327 1.11743-3.72174 1.2021-2.6284.1526-4.72063-.70414-6.27671-2.57022-1.16053-1.38819-1.79785-3.06501-1.91195-5.03045-.0919-1.58327.1785-3.05845.81127-4.42556.63276-1.36708 1.54998-2.45136 2.75164-3.25284 1.20166-.80144 2.53953-1.24496 4.01362-1.33056 1.1465-.0665 2.2937.14858 3.44162.64537.33753.15258.57649.22479.71689.21663.21057-.0122.38955-.097.53695-.25421.19055-.22234.31785-.52319.38193-.90256z"/><path d="m428.5621 973.16329.0498.43073-6.76361.78136-.0498-.43073.55879-.0646c.65191-.0753 1.10336-.32014 1.35434-.7345.15757-.26986.18166-.87821.0723-1.82504l-1.1781-10.1978c-.0924-.79936-.20376-1.32127-.33424-1.56574-.10002-.18504-.2784-.33352-.53512-.44543-.363-.1468-.73076-.19869-1.10328-.15567l-.55878.0646-.0498-.43073 6.76361-.78136.0498.43073-.57043.0659c-.64416.0744-1.09172.31881-1.3427.73315-.16534.27078-.19331.87957-.0839 1.82639l1.1781 10.1978c.0923.79937.20375 1.32128.33424 1.56574.10002.18505.28227.33308.54676.44409.35523.14771.71911.20004 1.09164.15701z"/><path d="m437.8338 956.45028-.0752-.42701 5.53965-.97619.0752.42701-.58859.10372c-.61553.10849-1.04329.44962-1.28327 1.02339-.11956.26701-.10272.83521.0505 1.70461l1.11855 6.34751c.27657 1.56957.33533 2.81459.17627 3.73507-.15909.92048-.63992 1.77073-1.4425 2.55076-.8026.78003-1.98867 1.30834-3.55823 1.58492-1.70806.301-3.05669.23324-4.04589-.20328-.98921-.43651-1.75659-1.12233-2.30215-2.05747-.36688-.64137-.71641-1.90457-1.04858-3.78959l-1.07788-6.11669c-.16948-.96173-.41338-1.56925-.7317-1.82255-.31831-.25327-.77369-.32772-1.36613-.22334l-.58858.10372-.0752-.42701 6.76298-1.19177.0752.42701-.60013.10576c-.64629.1139-1.072.39914-1.27712.85572-.14354.31089-.13803.90488.0165 1.78198l1.20193 6.82069c.10711.60783.28559 1.2943.53545 2.05942s.55961 1.3412.92927 1.72823c.36964.38704.85461.67442 1.4549.86216.60028.18773 1.3005.2111 2.10068.0701 1.02329-.18032 1.89955-.56479 2.62878-1.1534.72922-.58861 1.18059-1.25717 1.35412-2.00567.1735-.7485.11383-1.9537-.17902-3.6156l-1.11652-6.33597c-.1722-.97711-.3877-1.5698-.64651-1.77806-.35973-.28564-.83581-.37627-1.42823-.27189z"/><path d="m446.72721 970.54301-.10938-.41957.57833-.15077c.65014-.16949 1.05709-.49761 1.22085-.98435.10127-.29283.0386-.87394-.18806-1.74332l-2.58972-9.9336c-.2503-.96008-.51282-1.53349-.78756-1.72024-.38155-.25575-.86338-.30776-1.44549-.15602l-.57833.15077-.10938-.41957 6.25953-1.63187c2.29818-.59913 4.11438-.79408 5.44861-.58485 1.33421.20926 2.52474.82736 3.57158 1.85428 1.04682 1.02696 1.77816 2.33799 2.19402 3.9331.55775 2.13944.37371 4.09682-.5521 5.87217-1.04123 1.98306-3.05491 3.36384-6.04102 4.14233zm4.09876-2.25538c1.01528-.0386 1.84799-.14268 2.49814-.31218 1.75387-.45723 3.0485-1.45275 3.88392-2.98655.83538-1.53378.97815-3.35527.42829-5.46447-.55382-2.1243-1.5687-3.64802-3.04462-4.57118-1.47594-.92314-3.12108-1.14821-4.93543-.67522-.68039.1774-1.42669.48903-2.23891.9349z"/><path d="m471.74058 957.63134-5.80978 2.0243-.19295 2.72291c-.0478.67023-.0215 1.1492.0787 1.43692.0797.2287.25855.39182.53659.48936.27804.0975.78756.0462 1.52855-.15409l.14267.40945-4.72529 1.64643-.14267-.40945c.58853-.32916.94417-.6144 1.06692-.85573.25286-.48521.41906-1.34975.4986-2.59362l.97552-14.18915.38732-.13496 9.57262 10.66279c.77009.85683 1.37873 1.37486 1.8259 1.55412.44715.17926.98332.18066 1.60852.004l.14267.40946-5.92045 2.06285-.14266-.40945c.58728-.23772.9565-.47805 1.10765-.721.15112-.24294.18428-.48614.0995-.7296-.11311-.3246-.43932-.78593-.97861-1.38398zm-.59519-.71094-4.65822-5.17747-.49865 6.97428z"/><path d="m479.88447 960.39356-.17511-.39666.54674-.24137c.61465-.27134.96385-.66035 1.04761-1.16702.0531-.30527-.10175-.86885-.46459-1.69077l-4.14586-9.39121c-.4007-.90766-.75159-1.43168-1.05268-1.57205-.41755-.19141-.90149-.16564-1.45182.0773l-.54675.24137-.17511-.39667 5.91775-2.61246c2.1727-.95914 3.9343-1.4422 5.28482-1.44916 1.3505-.007 2.62459.4127 3.82227 1.25889 1.19766.84622 2.12936 2.02333 2.7951 3.53134.8929 2.02262 1.02444 3.98424.39464 5.88485-.7105 2.12413-2.47728 3.80932-5.30035 5.0556zm3.68505-2.88218c.99601-.20058 1.80134-.43655 2.41599-.70789 1.65811-.73199 2.77677-1.92184 3.35599-3.56955.5792-1.6477.42866-3.46856-.45162-5.46259-.8866-2.00831-2.13221-3.35001-3.73684-4.02511-1.60463-.67506-3.26459-.63399-4.97988.12323-.64323.28398-1.33005.71101-2.06047 1.2811z"/><path d="m501.09366 950.6269-.21744-.37514.51708-.2997c.58128-.33693.88585-.76179.91371-1.27458.0194-.30925-.19615-.85252-.64669-1.62983l-5.14793-8.88154c-.49755-.8584-.90364-1.34091-1.21827-1.44752-.43598-.14459-.91421-.0661-1.43467.23559l-.51707.29971-.21744-.37514 5.59659-3.2439c2.05479-1.19098 3.75301-1.86377 5.09466-2.01837 1.34165-.15456 2.65398.12323 3.93701.83337 1.28301.71018 2.33784 1.77835 3.1645 3.20452 1.10871 1.91286 1.45397 3.84833 1.03578 5.80641-.47397 2.18908-2.04588 4.05737-4.71574 5.60488zm3.34778-3.26786c.96811-.30829 1.74281-.6309 2.3241-.96783 1.56812-.90892 2.54996-2.21396 2.94553-3.91513.39555-1.70115.0468-3.49463-1.04624-5.38045-1.1009-1.89931-2.48576-3.09675-4.15458-3.59234-1.66883-.49555-3.31435-.2732-4.93655.66704-.60832.35261-1.24433.85219-1.90802 1.49873z"/><path d="m511.35411 926.86635 3.556 5.17773 2.87867-1.97703c.74703-.51304 1.16873-.96851 1.26509-1.36642.13142-.52621-.0401-1.17611-.51448-1.9497l.35741-.24547 3.13141 4.5595-.35742.24547c-.52803-.57562-.89905-.92264-1.11304-1.04105-.27073-.14578-.58233-.1924-.93483-.13987-.3525.0525-.80244.26679-1.34984.64272l-2.87867 1.97703 2.96555 4.318c.39805.5796.66597.9145.80374 1.00469.13776.0902.29647.1281.47614.1137.17966-.0144.44981-.14543.81045-.39312l2.22179-1.52589c.74059-.50863 1.24295-.92946 1.50707-1.2625.2641-.33302.44678-.75702.54803-1.27201.12505-.67348.12045-1.55647-.0138-2.64897l.38639-.26537 1.12546 4.0606-10.09466 6.93287-.24547-.35742.46368-.31844c.30912-.2123.55127-.4876.72647-.82591.13531-.24457.16923-.49532.10176-.75227-.0675-.25694-.32015-.70419-.75801-1.34175l-5.84484-8.51042c-.57055-.83074-1.00589-1.28522-1.30602-1.36344-.40875-.0984-.8836.0382-1.42457.40972l-.46367.31845-.24547-.35742 10.09465-6.93287 2.1153 2.76949-.37674.25874c-.60849-.59618-1.0833-.96669-1.42444-1.11152-.34113-.1448-.71914-.17425-1.13402-.0884-.32394.0803-.81113.34384-1.46157.79054z"/><path d="m535.85146 921.77326.35367-.17663 1.6218 4.22082-9.62781 7.66229-.27-.33927.46764-.37217c.5257-.41838.76543-.88874.71917-1.41106-.0273-.29778-.32313-.80121-.88746-1.51031l-6.38524-8.02317c-.61784-.77633-1.09019-1.19419-1.41703-1.2536-.45245-.0792-.91403.0685-1.38473.44305l-.46764.37217-.27-.33927 5.62997-4.48061.27001.33926c-.66506.51932-1.07946.94897-1.24321 1.28895-.16374.34001-.21668.64673-.15881.92017.0579.27346.38114.78002.96979 1.51967l6.2174 7.81228c.40379.50737.72999.81689.97862.92854.17551.07.36401.0747.56548.0142s.7026-.40939 1.50339-1.04671l.90777-.72244c.9536-.75893 1.56702-1.36193 1.84024-1.80903.27321-.44708.42646-.97591.45974-1.5865.0333-.61058-.0977-1.42747-.39276-2.45068z"/><path d="m542.82653 898.96556 4.03212 3.61377-.26007.25365c-1.47591-.81949-2.78365-1.17006-3.92322-1.05171-1.13956.11839-2.15957.61669-3.06001 1.49491-.75502.73642-1.25051 1.59347-1.48647 2.57115-.23595.9777-.11959 2.05647.34909 3.2363.46869 1.17987 1.31125 2.39339 2.52768 3.64057 1.0037 1.02908 2.03875 1.76021 3.10513 2.1934s2.12732.52792 3.18282.28419c1.0555-.24371 2.0083-.78014 2.85841-1.60929.73824-.72004 1.2357-1.51353 1.49238-2.38048.25666-.86692.26515-2.1002.0255-3.69985l.42371-.0859c.41686 1.56871.47409 2.95889.17169 4.17054-.30242 1.21166-.97655 2.32752-2.0224 3.34758-1.88477 1.8383-4.02635 2.56293-6.42474 2.17388-1.78641-.28748-3.36693-1.13592-4.74157-2.54531-1.10733-1.13533-1.8702-2.42658-2.28859-3.87376-.41838-1.44716-.43656-2.86723-.0545-4.26023.38202-1.39296 1.10155-2.60494 2.15859-3.63593.82214-.80185 1.82947-1.39146 3.02199-1.76885.35491-.10604.58269-.20817.68336-.30638.15101-.14726.23062-.32858.23883-.54396-.002-.29281-.10296-.60346-.30327-.93194z"/><path d="m558.57451 897.7447-4.05782 4.62443 1.17392 2.46442c.28872.60674.54758 1.01058.7766 1.21154.18204.15974.41807.21353.70808.16139.29-.0521.70804-.34792 1.25413-.88734l.32591.28598-3.30036 3.76121-.32592-.28598c.34991-.57644.5188-.99989.50668-1.27037-.0191-.54682-.30049-1.381-.84425-2.50255l-6.1434-12.8274.27052-.30829 13.5841 4.56093c1.09234.36607 1.87722.51691 2.35467.45253.47742-.0644.94466-.32737 1.40171-.78902l.32591.28598-4.13511 4.71252-.32591-.28598c.39388-.49626.59671-.88733.60851-1.17321.0118-.28587-.0792-.51383-.27299-.68388-.25839-.22671-.76957-.46738-1.53354-.72202zm-.86824-.32533-6.60475-2.20965 3.00295 6.31439z"/><path d="m571.51152 882.8031.29834-.25937 2.62468 3.68194-7.40874 9.82425-.34618-.26107.35985-.47718c.40454-.53643.51918-1.05176.34392-1.54597-.10082-.28152-.51301-.6951-1.23658-1.24077l-8.18687-6.17394c-.79217-.5974-1.35392-.88403-1.68524-.85992-.4579.0363-.86796.2946-1.23018.77489l-.35985.47717-.34619-.26107 4.33235-5.74484.34619.26107c-.51426.66897-.80821 1.18851-.88185 1.55861-.0736.37014-.0483.68036.0761.93068.12435.25034.5639.66009 1.31864 1.22926l7.97168 6.01166c.51772.39043.9109.60866 1.17953.65467.18744.0239.37114-.0186.55112-.12745.17997-.1089.57807-.57191 1.19429-1.38905l.69854-.92628c.73381-.97306 1.17716-1.71018 1.33005-2.21135.15288-.50115.16918-1.0515.0489-1.65105-.1203-.59952-.45112-1.35782-.99245-2.27489z"/><path d="m579.4128 870.79171.28004-.27903 2.86857 3.49527-6.72473 10.30453-.36311-.23697.32663-.50051c.36719-.56265.44658-1.08457.23818-1.56575-.1197-.27402-.55902-.65867-1.31795-1.15396l-8.58711-5.60394c-.8309-.54224-1.4108-.79008-1.73973-.74353-.45438.0673-.84595.35284-1.17473.85661l-.32663.5005-.36311-.23696 3.93237-6.0257.36311.23697c-.46766.70234-.72566 1.24063-.77401 1.61488-.0483.37428-.002.68207.13907.92336.14105.24133.6074.6203 1.39904 1.13692l8.36139 5.45664c.54303.35438.95012.54541 1.22125.57309.18863.0112.36903-.0437.5412-.16457.17216-.12087.53791-.60984 1.09724-1.46692l.63404-.97157c.66607-1.02063 1.05836-1.78614 1.17687-2.29653.11851-.51037.0974-1.06056-.0633-1.65056-.16072-.58998-.54225-1.32407-1.14458-2.20227z"/><path d="m584.27973 860.26315-2.96914 5.38846 1.67613 2.15455c.41237.5305.75198.86928 1.01884 1.01631.21212.11689.45419.1187.72621.005.27202-.11325.61673-.49196 1.03412-1.13613l.37976.20925-2.4149 4.38262-.37976-.20926c.21784-.63816.29178-1.08802.22182-1.34957-.13615-.52994-.59027-1.28415-1.36236-2.26263l-8.75665-11.20735.19794-.35923 14.2469 1.53493c1.14548.12276 1.94445.10139 2.39689-.0641.45244-.16546.85223-.52274 1.19939-1.07183l.37976.20925-3.0257 5.4911-.37975-.20925c.27802-.56931.39207-.99484.34215-1.27658-.0499-.28172-.18779-.48479-.41358-.60922-.30108-.16589-.85204-.29108-1.65288-.37557zm-.91787-.13112-6.92529-.73856 4.28983 5.52146z"/><path d="m580.78208 842.58702c.84449-1.88167 2.29076-3.19143 4.3388-3.92928 2.04806-.73781 4.14123-.62691 6.27951.33271 2.20243.98845 3.71878 2.50388 4.54904 4.54631.83027 2.04245.80236 4.05084-.0837 6.02518-.89567 1.99573-2.35738 3.35422-4.38515 4.07547-2.02776.72125-4.1678.57646-6.42013-.43437-2.30221-1.0332-3.82847-2.66012-4.57877-4.88076-.65061-1.92755-.55047-3.8393.3004-5.73526zm.6893.55341c-.58217 1.29723-.56808 2.55378.0423 3.76965.75921 1.51389 2.29348 2.78903 4.60282 3.82544 2.36637 1.06201 4.41459 1.37324 6.14466.9337 1.31802-.34187 2.26332-1.15072 2.83591-2.42657.61097-1.36137.58458-2.72406-.0792-4.08808-.66377-1.36399-2.13963-2.5594-4.42759-3.58623-2.48041-1.11317-4.54914-1.45502-6.2062-1.02555-1.32121.34902-2.29211 1.2149-2.91269 2.59764z"/><g transform="matrix(1.165351 0 0 1.1142494 -64.817168 -81.666642)"><path d="m236.2067 889.11916-3.39001-4.50704-2.43121.59203c-.59851.14548-1.00936.30217-1.23256.47006-.17742.13344-.26989.33516-.27739.60516-.008.27.17964.7005.56145 1.29152l-.31764.23891-2.75721-3.66573.31764-.23891c.45176.4219.80012.65273 1.0451.6925.49426.0852 1.29549-.0111 2.40371-.28906l12.66075-3.11122.226.30047-6.63592 11.33573c-.533.91166-.8153 1.58773-.84691 2.02822-.0316.44046.1169.90897.44559 1.40554l-.31764.23891-3.45458-4.59289.31764-.23892c.37157.44636.68452.70159.93885.7657.25431.0641.47591.0251.66478-.11693.25181-.18942.56348-.60307.93501-1.24094zm.45448-.7182 3.21935-5.51304-6.22839 1.5125z"/><path d="m253.73893 894.6168-3.82072 3.28397-.25907-.30143c.64915-.72794 1.08243-1.4049 1.29987-2.03089.2174-.62598.25301-1.28221.10683-1.96867-.14621-.68647-.43403-1.27952-.86348-1.77918-.48549-.56482-1.05938-.88368-1.72166-.95657-.66231-.0729-1.21341.0797-1.65331.45783-.33673.28943-.54322.66994-.61947 1.14154-.11792.68683.0275 1.9547.43631 3.80363.33295 1.50803.51365 2.57798.5421 3.20984.0284.63186-.0708 1.22234-.29761 1.77145-.22685.54909-.56023 1.01269-1.00013 1.39081-.83638.71887-1.83626 1.01405-2.99964.88554-1.1634-.12853-2.18389-.7033-3.06148-1.72433-.27541-.32043-.51005-.64286-.70391-.96728-.11755-.1917-.31836-.62584-.60241-1.3024-.28406-.67657-.48677-1.08546-.60814-1.22666-.1167-.13578-.24963-.20803-.39878-.21676-.14915-.009-.3677.0776-.65563.25898l-.25907-.30142 3.78813-3.25596.25907.30142c-.67156.82274-1.10152 1.52281-1.28987 2.10021-.18836.5774-.20165 1.22388-.0399 1.93945.16177.71557.49473 1.36663.99888 1.95319.5835.67887 1.22369 1.06113 1.92058 1.1468.69687.0856 1.2897-.0816 1.7785-.5017.27155-.23341.48163-.54382.63024-.93124s.20702-.84133.17525-1.36172c-.0191-.35185-.17005-1.22784-.45276-2.62797-.28272-1.40013-.43813-2.43516-.46623-3.10509-.0281-.66992.0592-1.27145.26203-1.8046.20277-.53313.53227-.99576.98848-1.38788.79292-.68153 1.73728-.9644 2.83308-.84861 1.09578.1158 2.04746.64348 2.85505 1.58304.50413.58656.8947 1.33211 1.1717 2.23666.12562.42084.24212.69372.3495.81863.12136.14121.26264.22044.42386.23769.16119.0173.39276-.0566.69471-.22174z"/><path d="m248.8335 910.60001-.28934.2725-4.27905-4.54339.28934-.27251.35352.37536c.41243.43792.83967.63563 1.2817.59315.28466-.032.74501-.34751 1.38103-.94653l6.85029-6.45171c.53696-.50573.85955-.87349.96777-1.1033.0812-.17488.0927-.38731.0343-.63731-.0909-.34722-.25423-.64595-.4899-.8962l-.35352-.37536.28934-.2725 4.27905 4.54339-.28934.27251-.36088-.38318c-.40754-.4327-.83232-.62781-1.27434-.58533-.28959.0268-.75239.33969-1.3884.93871l-6.85028 6.45172c-.53698.50572-.85956.87349-.96777 1.10329-.0812.17488-.0902.38992-.0269.64513.086.34201.24685.63814.48253.88838z"/><path d="m260.75227 917.18268.20309.30012-3.64025 1.98205-8.12228-7.8263.27578-.28622.39451.38014c.4435.42734.89979.58854 1.36887.4836.26731-.0607.68917-.39011 1.26558-.98833l6.52192-6.76857c.63107-.65493.95391-1.13448.96854-1.43864.0175-.4207-.17229-.82236-.56936-1.20499l-.39451-.38013.27578-.28622 4.7496 4.57653-.27578.28621c-.552-.54181-.99234-.86665-1.321-.97451-.3287-.10785-.6138-.11902-.85531-.0335-.24153.0855-.66292.44028-1.26417 1.06428l-6.35049 6.59065c-.41244.42803-.65442.76173-.72594 1.00111-.0425.16792-.0241.33978.0552.51558.0792.17579.45663.58917 1.1322 1.24012l.76582.73791c.80448.77517 1.42632 1.25998 1.86551 1.45443.43917.19443.93819.27 1.49705.22672.55885-.0433 1.28541-.26064 2.17969-.65203z"/><path d="m274.27384 914.45365c1.44875 1.21472 2.2428 2.81739 2.38216 4.80801.13932 1.99063-.48119 3.80911-1.86153 5.45543-1.42178 1.69572-3.13705 2.65471-5.14579 2.87698-2.00876.22226-3.7732-.30387-5.2933-1.57839-1.53657-1.28834-2.36975-2.91681-2.49952-4.8854-.12978-1.96859.53232-3.81994 1.9863-5.55408 1.48618-1.77254 3.30225-2.71243 5.44821-2.81967 1.86256-.0925 3.52371.47321 4.98347 1.69712zm-.66023.46977c-.99879-.83741-2.11058-1.13876-3.33538-.90405-1.52484.29159-3.03264 1.32639-4.52342 3.10442-1.5276 1.82193-2.31358 3.55074-2.35793 5.18642-.0276 1.24786.44975 2.2836 1.43207 3.10722 1.04815.87882 2.25663 1.19582 3.62545.951 1.36879-.24483 2.79168-1.24803 4.26868-3.00959 1.6012-1.90974 2.4193-3.649 2.4543-5.21777.0221-1.25246-.49916-2.32501-1.56377-3.21765z"/><path d="m275.42653 934.4504.22289-.32909.4536.30722c.50994.34537.98207.42728 1.41641.24573.26297-.10732.62538-.50193 1.08721-1.18382l5.27691-7.79136c.51002-.75304.74627-1.28065.70876-1.58285-.0546-.41751-.31012-.78088-.76668-1.09012l-.45361-.30722.22289-.32908 4.90962 3.32518c1.80255 1.22084 3.03519 2.35409 3.69794 3.39974.66271 1.04566.95689 2.23958.88254 3.58177-.0744 1.34218-.53525 2.63883-1.38259 3.88996-1.13652 1.67804-2.59622 2.73499-4.3791 3.17087-1.99578.48197-4.16474-.0702-6.50688-1.65646zm4.03241 1.4596c.6406.67605 1.21587 1.18676 1.72581 1.53213 1.37563.93169 2.84436 1.2215 4.40617.86943 1.5618-.35208 2.90292-1.35528 4.02337-3.0096 1.12846-1.66619 1.56438-3.28679 1.30776-4.86181-.25665-1.575-1.0965-2.84442-2.51957-3.80825-.53366-.36142-1.19967-.68707-1.99801-.97696z"/><path d="m299.19057 933.50987-2.8869 4.98179 2.76972 1.60503c.71876.41652 1.2618.58637 1.62914.50953.48736-.0983.9579-.49608 1.41161-1.1933l.34389.19928-2.5422 4.38695-.34389-.19928c.26872-.6637.40998-1.10743.42378-1.3312.0141-.2815-.0699-.55782-.25214-.82896s-.5367-.55932-1.06337-.86453l-2.76972-1.60503-2.40755 4.15459c-.32316.55766-.49497.91127-.51541 1.06082-.0204.14955.0106.29586.0933.43894.0826.14306.29744.31514.64444.51622l2.13771 1.23878c.71256.41292 1.25867.66317 1.63833.75075.37965.0876.80257.0719 1.26876-.0469.60678-.16155 1.33597-.51289 2.18757-1.05403l.37178.21544-2.91869 2.52993-9.71263-5.62838.19929-.34389.44613.25852c.29741.17236.62064.26448.96966.27636.25573.0158.47668-.0548.66284-.21184.18615-.15699.45697-.54219.81245-1.15562l4.74507-8.18835c.46319-.79931.6681-1.33859.61472-1.61784-.0794-.37711-.3794-.71647-.89988-1.0181l-.44613-.25853.19928-.34389 9.71263 5.62838-1.46023 2.84122-.36248-.21005c.25406-.7384.37391-1.27731.35955-1.61673-.0144-.3394-.13878-.66394-.37318-.9736-.194-.23656-.60391-.53618-1.22971-.89884z"/><path d="m317.96117 954.08342.28955.2179-2.79938 3.0567-10.22349-4.76474.1679-.36026.49657.23143c.55823.26017 1.04214.26447 1.45173.0129.23311-.14419.52514-.59277.87607-1.34573l3.97062-8.51958c.38419-.82436.53383-1.38275.44889-1.67519-.12005-.40358-.42998-.72185-.92979-.9548l-.49657-.23143.1679-.36026 5.97831 2.78624-.1679.36026c-.69802-.33321-1.21998-.49746-1.56586-.49275-.3459.005-.61918.0867-.81984.24604-.20067.15932-.48403.63169-.85007 1.4171l-3.86625 8.29563c-.2511.53876-.37161.93296-.36153 1.18259.0144.17261.0876.32919.21958.46973.13202.14054.6232.40897 1.47354.80528l.96393.44924c1.0126.47194 1.75817.72855 2.2367.76985.47851.0413.97502-.0493 1.48955-.27168.5145-.22243 1.13111-.66392 1.84984-1.32448z"/><path d="m328.15418 957.19813-5.26224-2.02841-1.74896 1.78953c-.43069.44032-.69626.79078-.79671 1.05139-.0799.20715-.0515.42723.0851.66025.13659.23301.5233.49912 1.16013.79832l-.14295.37087-4.27996-1.64978.14296-.37087c.60662.11871 1.02437.13008 1.25324.0341.46443-.18938 1.09311-.69537 1.88605-1.51796l9.09295-9.34306.35082.13523.37281 13.12994c.0306 1.0556.14906 1.7786.35548 2.169.20639.3904.58046.7092 1.12222.95641l-.14296.37086-5.36247-2.06705.14296-.37086c.55155.1819.95217.23271 1.20187.15244.24967-.0803.41702-.23069.50203-.4512.11332-.29402.15869-.80994.13611-1.54778zm.005-.8499-.18809-6.38142-4.48278 4.58096z"/><path d="m345.93792 952.57801-1.50226 4.8089-.37938-.11852c.16523-.96124.17433-1.76494.0273-2.4111-.14704-.64614-.46431-1.22168-.9518-1.72661-.48752-.50491-1.04571-.8556-1.67458-1.05207-.71092-.22207-1.36659-.18868-1.96701.10017-.60043.28887-.98712.71014-1.16008 1.26382-.1324.42382-.10609.85595.079 1.29638.26365.64508 1.05837 1.64362 2.38417 2.99562 1.08096 1.10297 1.80079 1.91493 2.1595 2.43588.35869.52096.5872 1.0744.68553 1.66031.0983.58592.061 1.15572-.11197 1.70941-.32887 1.0527-1.02077 1.83254-2.07572 2.33954-1.05497.507-2.22501.55977-3.51011.15832-.40331-.12599-.77308-.27527-1.10931-.44783-.20124-.10038-.60146-.36233-1.20067-.78585-.59921-.42353-.98768-.66305-1.16541-.71857-.17089-.0534-.32191-.0443-.45306.0273s-.27083.26052-.41904.56685l-.37938-.11851 1.48944-4.76789.37938.11851c-.13404 1.05354-.12809 1.87507.0179 2.46462.14595.58954.47699 1.145.99312 1.66636.51613.52137 1.14332.89736 1.88158 1.12799.85445.26692 1.59994.25221 2.23648-.0441.63651-.29634 1.05086-.75212 1.24306-1.36733.10676-.34178.12061-.71634.0415-1.12369-.0791-.40734-.26988-.82332-.57238-1.24795-.20254-.28835-.79441-.95154-1.77561-1.98958-.98121-1.03804-1.6611-1.83377-2.03966-2.38719-.37857-.55342-.623-1.10995-.73327-1.6696-.11028-.55963-.0757-1.12655.10364-1.70076.31177-.998.96309-1.738 1.95398-2.22001.99087-.48199 2.0776-.53828 3.26018-.16887.73824.23064 1.46434.65629 2.17829 1.27695.3294.29049.57272.46028.72995.50938.17772.0555.33952.0479.48542-.0228.14588-.0707.30318-.25603.47192-.55597z"/><path d="m362.05393 967.67798.32987.15002-2.07089 3.59046-11.0128-2.43736.0859-.38807.53491.11838c.60133.13309 1.07468.0325 1.42006-.30183.19636-.19125.38429-.69243.56381-1.50353l2.03113-9.17733c.19653-.88801.22167-1.46556.0754-1.73265-.20461-.368-.57611-.61159-1.11451-.73076l-.53491-.11839.0859-.38807 6.43986 1.42528-.0859.38807c-.75363-.17412-1.29877-.22142-1.63542-.14191-.33667.0795-.5857.21879-.74709.41777-.1614.199-.33573.72153-.52297 1.56758l-1.97774 8.9361c-.12845.58036-.16072.9913-.0968 1.23282.0514.1654.15678.30241.31611.41102s.69699.26428 1.61298.46701l1.03835.22981c1.09078.24141 1.87423.33046 2.35034.26713.4761-.0633.94121-.25928 1.39535-.58786.45412-.32857.96048-.89313 1.51907-1.69369z"/><path d="m368.67598 958.89808-.88963 5.68867 3.16274.49461c.82074.12836 1.38845.0903 1.70313-.1142.41881-.26793.71363-.80895.88445-1.62307l.39268.0614-.7834 5.00942-.39268-.0614c.0105-.71595-.0183-1.18074-.0864-1.39435-.0886-.26755-.26694-.49476-.53489-.68165-.26797-.18687-.70266-.32733-1.30407-.42139l-3.16273-.4946-.7419 4.74409c-.0996.6368-.13187 1.0286-.0968 1.17543.035.14682.11693.27198.24572.37548.12878.1035.39128.18623.78751.24819l2.44104.38174c.81366.12725 1.41332.16304 1.79895.10737.38562-.0557.77425-.22322 1.16589-.50266.50727-.37007 1.06002-.96136 1.65825-1.77388l.42452.0664-1.80605 3.4143-11.09079-1.73444.0614-.39269.50944.0797c.33962.0531.67427.0221 1.00397-.0931.24412-.0778.42456-.22355.54134-.43724.11677-.21369.22993-.67077.33948-1.37124l1.46224-9.35022c.14273-.91272.13872-1.48961-.012-1.73065-.21046-.32284-.61285-.53074-1.20719-.6237l-.50943-.0797.0614-.39268 11.09078 1.73443-.33374 3.17702-.41392-.0647c-.0302-.78031-.11338-1.32608-.24953-1.63732-.13618-.31122-.36953-.5688-.70005-.77272-.26643-.15038-.75695-.28145-1.47156-.39322z"/><path d="m386.99118 960.30441 5.06227.43656-.0342.39599-.27827-.024c-.18552-.016-.46373.0427-.83461.17601-.37092.13335-.71587.34081-1.03484.62237-.31901.28159-.7224.74996-1.21017 1.40513l-3.97503 5.20996-.31381 3.63883c-.0769.89188-.025 1.45702.15569 1.69543.24528.32305.66045.5098 1.24553.56026l.47091.0406-.0342.39599-6.16462-.53163.0342-.39599.51372.0443c.6136.0529 1.06483-.0951 1.35369-.44392.17666-.21478.30006-.72887.37021-1.54226l.29627-3.43549-3.45707-6.42234c-.40938-.75409-.69022-1.22757-.8425-1.42041-.15229-.19282-.48166-.43687-.98811-.73214-.13655-.0836-.34039-.13716-.61152-.16056l.0342-.39599 6.20743.53532-.0342.39599-.32107-.0277c-.33535-.0289-.65071.023-.94607.15562-.29537.13268-.4566.35598-.48366.66991-.0222.25687.15546.73941.53286 1.44762l2.62546 4.93817 3.23266-4.22812c.48592-.63376.74304-1.11474.77136-1.44296.0172-.19977-.0191-.38261-.10904-.54851-.0899-.16588-.22737-.30173-.41231-.40754-.18496-.10579-.47008-.1753-.85536-.20854z"/><path d="m395.95848 961.54521-.0918 5.75709 3.20076.051c.83062.0132 1.38756-.10321 1.67082-.34938.37759-.32344.5945-.90013.65072-1.73008l.39741.006-.0808 5.06967-.39741-.006c-.0889-.71049-.18195-1.16678-.27899-1.36888-.1249-.25267-.333-.45295-.62428-.60085-.29131-.14789-.74128-.22669-1.34992-.2364l-3.20077-.051-.0766 4.80114c-.0103.64445.0121 1.03695.0672 1.17749.055.14055.15353.25314.29543.33776.14189.0846.41334.13015.81433.13654l2.47039.0394c.82346.0131 1.42228-.0346 1.79646-.14325.37417-.10863.73579-.32848 1.08487-.65954.45103-.43688.9164-1.09914 1.39612-1.98678l.42963.007-1.31491 3.63184-11.22416-.179.006-.39741.51556.008c.3437.005.67082-.0717.98135-.23145.23096-.11091.38945-.28028.47545-.50811.086-.22782.13465-.69618.14596-1.40507l.1509-9.46267c.0147-.9237-.0693-1.49444-.25203-1.71224-.25321-.29052-.68056-.44058-1.28204-.45019l-.51556-.008.006-.39741 11.22416.17899.11024 3.19259-.41889-.007c-.13816-.76856-.29625-1.29751-.47427-1.58686-.17804-.28932-.44486-.51203-.80048-.66812-.28472-.11197-.78868-.17372-1.51189-.18527z"/><path d="m413.987 960.091.23078 5.0328-.39705.0182c-.17306-.95987-.43904-1.71834-.79793-2.27541-.35891-.55705-.85369-.98959-1.48434-1.29763-.63067-.30801-1.27507-.44693-1.93323-.41676-.74402.0341-1.34884.28948-1.81447.76605-.46564.47659-.68517 1.00462-.6586 1.58407.0203.44356.19268.8407.51703 1.19144.46815.51621 1.55616 1.18322 3.26404 2.00102 1.3927.66738 2.34659 1.18461 2.86168 1.5517.51506.36709.91888.80918 1.21143 1.32627.29254.51709.4521 1.06537.47868 1.64484.0505 1.10171-.33339 2.07099-1.1517 2.90786-.81833.83686-1.89995 1.28613-3.24489 1.3478-.42209.0194-.82061.005-1.19556-.042-.22341-.0256-.68904-.13508-1.39688-.32844-.70785-.19337-1.15477-.28579-1.34077-.27726-.17885.008-.31768.0683-.41649.1804-.0988.11207-.16555.33737-.2002.6759l-.39705.0182-.22881-4.98988.39705-.0182c.23389 1.03595.52012 1.80603.85868 2.31025.33855.50423.83942.9132 1.5026 1.2269.66317.3137 1.38107.45283 2.1537.4174.89424-.041 1.58986-.30947 2.08688-.80542.497-.49594.73074-1.06584.70123-1.7097-.0164-.35769-.13134-.71445-.3448-1.07029-.21347-.35582-.53488-.68161-.96424-.97736-.28885-.20182-1.07166-.62295-2.34842-1.26338-1.27678-.64042-2.18758-1.15605-2.73242-1.54687-.54484-.39081-.96467-.83037-1.25948-1.31869-.29481-.4883-.456-1.03292-.48355-1.63386-.0479-1.04447.31147-1.96245 1.07811-2.75394.76662-.79147 1.76876-1.21558 3.00639-1.27235.77262-.0354 1.60044.1166 2.48346.45605.40881.1605.69549.23696.86004.2294.186-.009.33548-.0709.44844-.18724.11295-.11628.19749-.34419.25362-.68372z"/><path d="m430.692 958.57547 5.03242-.70137.0549.39366-.27662.0386c-.18443.0257-.44259.14485-.77449.3574-.33192.21258-.62202.49162-.87032.83713-.24831.34554-.5373.89197-.86698 1.63928l-2.71543 5.96414.50415 3.61738c.12356.88662.29997 1.42602.52922 1.61822.31104.26034.75737.34998 1.339.26892l.46813-.0652.0549.39365-6.12827.85409-.0549-.39365.51068-.0712c.60999-.085 1.01695-.32972 1.2209-.73414.1244-.24872.13026-.77738.0176-1.58597l-.47598-3.41524-4.80007-5.49155c-.56699-.64403-.94618-1.0431-1.13757-1.19721-.1914-.15408-.56683-.31867-1.12631-.49379-.15174-.0511-.36238-.0579-.63191-.0204l-.0549-.39365 6.17083-.86003.0549.39366-.31918.0445c-.33337.0465-.62927.16725-.88768.36233-.25843.19511-.36589.4487-.32239.76077.0356.25536.31617.68625.84176 1.29266l3.65892 4.22977 2.21026-4.84167c.33264-.72603.47623-1.25219.43077-1.57848-.0277-.19859-.10383-.36874-.22841-.51047-.12461-.14169-.28884-.24353-.49269-.30552-.20388-.062-.49732-.0662-.88032-.0129z"/><path d="m443.84326 971.1318-.0938-.38623.53238-.12928c.59849-.14533.97653-.43979 1.13412-.88338.0973-.26683.0488-.8004-.14549-1.60071l-2.22048-9.14443c-.21461-.88381-.44639-1.41341-.69532-1.5888-.34576-.24029-.78658-.29538-1.32244-.16527l-.53238.12927-.0938-.38624 5.76224-1.3992c2.1156-.51371 3.78322-.66439 5.00287-.45207 1.21963.21236 2.30126.79722 3.24491 1.75457.94362.95737 1.59371 2.17025 1.95029 3.63864.47822 1.96947.27937 3.76065-.59653 5.37355-.98489 1.80151-2.85177 3.036-5.60066 3.7035zm3.79143-2.00397c.93113-.0198 1.69594-.10229 2.29444-.24762 1.61454-.39205 2.81646-1.28452 3.60579-2.67743.7893-1.3929.94822-3.06016.47676-5.00179-.47486-1.95553-1.38155-3.36773-2.72006-4.23659-1.33852-.86883-2.84289-1.10046-4.5131-.69491-.62633.1521-1.31515.42622-2.06645.82236z"/><path d="m459.15512 952.91032 1.73527 5.4901 3.05233-.96476c.7921-.25035 1.28354-.53712 1.47432-.8603.25579-.42633.27899-1.04202.0696-1.84709l.37898-.11979 1.52807 4.83457-.37898.11979c-.30928-.6458-.54193-1.04919-.69795-1.21018-.19846-.20014-.45925-.32425-.78238-.37234-.32314-.0481-.77492.0196-1.35533.20306l-3.05234.96476 1.44714 4.5785c.19424.61457.33972.97979.43644 1.09568.0967.11589.22576.19152.38716.22688.16138.0354.43328-.007.81568-.12826l2.35582-.74461c.78527-.2482 1.33818-.48304 1.65874-.70454.32054-.22148.59398-.54449.82032-.96903.28954-.55718.52135-1.33269.69542-2.32655l.40971-.1295-.0977 3.86131-10.70365 3.38313-.11979-.37898.49165-.1554c.32777-.10359.61364-.28032.85763-.53019.18398-.17832.2807-.38914.29016-.63248.009-.24333-.0926-.703-.30631-1.37903l-2.85219-9.02384c-.27842-.88086-.53877-1.39567-.78106-1.54442-.33216-.19543-.78503-.2025-1.35863-.0212l-.49165.1554-.11979-.37898 10.70366-3.38313 1.11516 2.99353-.39947.12626c-.37434-.68531-.69174-1.13702-.95219-1.35514-.26046-.21809-.58406-.34488-.97081-.38038-.30552-.0161-.80311.0849-1.49278.30284z"/><path d="m487.01835 952.92621.35621-.0666.3665 4.12864-10.41553 4.32887-.15255-.36702.5059-.21026c.56872-.23637.89846-.59057.98923-1.06259.0509-.26934-.083-.78756-.40185-1.55467l-3.6074-8.67962c-.34906-.83984-.66014-1.3271-.93326-1.46177-.37884-.18377-.82286-.16984-1.33207.0418l-.5059.21026-.15254-.36703 6.09061-2.53136.15254.36702c-.71696.29024-1.19041.56457-1.42036.82299-.22995.25845-.35385.51546-.37171.77104-.0179.25561.1395.78349.47207 1.58366l3.51257 8.45146c.22812.54888.43769.90384.62871 1.06486.13707.1059.30201.15755.49483.15497.1928-.003.72236-.1839 1.58868-.54395l.98203-.40815c1.03163-.42876 1.72415-.80577 2.07756-1.13103.3534-.32525.62165-.75277.80475-1.28256.18308-.52978.27341-1.28275.27098-2.25893z"/><path d="m496.19464 947.50673-5.04758 2.51548.14083 2.49829c.0344.61497.11392 1.04744.23849 1.29741.099.1987.28061.32625.54476.38264.26415.0564.72147-.0495 1.37198-.31766l.17728.35573-4.10536 2.04592-.17728-.35573c.4969-.36766.78714-.66833.87072-.90201.17356-.47057.22427-1.27598.15211-2.41624l-.7611-13.0152.3365-.1677 9.94269 8.58355c.79976.68964 1.41335 1.08999 1.84078 1.20104.4274.11106.91509.05 1.46307-.18303l.17728.35573-5.14371 2.56339-.17729-.35573c.5064-.28437.8142-.54578.92342-.78425.10919-.23845.11109-.46344.006-.67496-.14056-.28202-.49075-.6636-1.05058-1.14475zm-.62377-.57731-4.83699-4.16669.35667 6.39948z"/><path d="m516.9407 936.44089.34058-.1238 1.03475 4.01363-9.57035 5.96916-.21034-.33724.46484-.28993c.52257-.32594.79015-.72916.80275-1.20967.006-.27403-.21033-.76348-.64996-1.46834l-4.9743-7.9753c-.48132-.77169-.86769-1.20171-1.15911-1.29005-.40374-.11954-.83955-.0334-1.30744.25841l-.46484.28993-.21034-.33724 5.59637-3.49054.21035.33724c-.66005.40326-1.08243.75111-1.26717 1.04356-.18473.29248-.26507.56626-.24102.82133.0241.2551.26538.75026.72396 1.48549l4.84354 7.76566c.31457.50435.5792.82038.79392.94811.1525.0821.32366.1062.51347.0722s.68272-.29921 1.47873-.7957l.90235-.56281c.94791-.59122 1.56969-1.0761 1.86535-1.45463.29564-.37851.49059-.84405.58486-1.3966.0942-.55254.0606-1.31017-.10095-2.27288z"/><path d="m525.09098 935.14925.2269.32632-5.12424 3.56299-.2269-.32633.42334-.29436c.4939-.34342.75241-.73686.77551-1.18033.0103-.28627-.23396-.78807-.73273-1.50541l-5.37208-7.72605c-.42109-.60561-.73732-.97886-.94868-1.11976-.161-.1061-.36943-.1487-.6253-.12781-.35682.0388-.67636.15629-.95859.35252l-.42335.29436-.2269-.32633 5.12424-3.56299.2269.32633-.43216.30049c-.48802.33935-.74358.73075-.76669 1.1742-.0162.29038.22514.79423.72391 1.51155l5.37208 7.72605c.42109.60562.73732.97887.94868 1.11975.161.10612.37237.14668.63412.12168.35095-.0347.66754-.15014.94977-.34638z"/><path d="m529.29981 923.12789c.9292-.44985 1.73672-.64194 2.42258-.57627.95277.0941 1.72135.51722 2.30572 1.26935.44376.57119.68789 1.25893.73238 2.06323.0445.80432-.15519 1.57159-.599 2.30183-.44383.73026-1.31327 1.59847-2.60831 2.60463l-5.42901 4.21799-.24385-.31387.43262-.33612c.4807-.37347.70703-.79417.67902-1.26213-.0237-.29898-.28601-.77082-.7869-1.41552l-5.77337-7.43097c-.55361-.71254-.98491-1.09842-1.29391-1.15764-.41387-.0775-.83854.053-1.274.39127l-.43262.33612-.24386-.31387 4.97095-3.86209c.92745-.72056 1.72384-1.23047 2.38916-1.52974 1.00645-.45546 1.93408-.59802 2.78287-.42769.84878.17036 1.53461.59202 2.05746 1.26498.44816.57684.67378 1.22909.67685 1.95673.003.72767-.25185 1.4676-.76478 2.21978zm-4.80089 2.99541c.24-.12298.502-.27892.786-.46784.284-.1889.58717-.40858.90952-.65903.82566-.64147 1.37712-1.21276 1.65438-1.71385.27725-.50106.38336-1.02108.31832-1.56003-.065-.53894-.26672-1.02613-.60503-1.4616-.52286-.67296-1.2431-1.03386-2.16073-1.08273-.91763-.0488-1.90238.33537-2.95425 1.15259-.56552.43939-1.02616.89703-1.38192 1.37293zm4.27071 5.49687c.77463-.35698 1.48147-.78371 2.12052-1.28021 1.02358-.79526 1.62496-1.63205 1.80412-2.51036.17915-.8783.005-1.65676-.52214-2.3354-.34711-.44675-.80262-.78208-1.36653-1.00599-.56392-.22389-1.21243-.24151-1.94552-.0528-.73309.18868-1.50399.59717-2.31268 1.22546-.35063.27242-.64596.51095-.886.71557-.24004.20465-.42543.38042-.55615.52732z"/><path d="m531.70855 912.85233 3.828 4.30102 2.39124-2.12825c.62055-.55229.95181-1.0149.99381-1.38783.0591-.49365-.17137-1.06503-.69157-1.71416l.2969-.26425 3.37093 3.78747-.2969.26425c-.54625-.46294-.92348-.73598-1.13169-.81912-.26293-.10152-.55168-.10818-.86623-.02-.31456.0882-.69919.33469-1.1539.73938l-2.39124 2.12826 3.19239 3.58686c.4285.48146.71057.7553.84622.82152.13563.0662.28432.0825.44607.0488.16174-.0337.3924-.18387.69198-.4505l1.84559-1.64261c.61519-.54753 1.02378-.98789 1.22579-1.32107.20199-.33317.31949-.73974.35249-1.21971.0365-.62686-.069-1.42937-.31643-2.40755l.32098-.28568 1.48936 3.56386-8.38539 7.46317-.26424-.2969.38516-.3428c.25678-.22854.44543-.50669.56595-.83447.095-.23794.0971-.46989.006-.69583-.0908-.22594-.37194-.60371-.84329-1.13331l-6.29192-7.06941c-.61419-.69008-1.06225-1.05347-1.34418-1.09018-.38303-.0426-.79922.13612-1.24859.53605l-.38517.3428-.26424-.2969 8.38539-7.46317 2.24148 2.27609-.31295.27853c-.62179-.4724-1.09611-.75489-1.42297-.84748-.32687-.0925-.67403-.076-1.04149.0497-.2854.11022-.69825.40577-1.23855.88663z"/><path d="m557.92375 906.67068-2.72817 2.77107-8.31241-1.26445c-.24603.27032-.44943.48713-.61021.65043-.0653.0664-.13693.13654-.21484.21057-.0779.074-.15962.14938-.24511.226l3.01603 2.96933c.65322.64311 1.12927.97109 1.42815.98394.41546.0272.81412-.1532 1.19596-.54106l.39943-.40571.28323.27885-4.37863 4.4475-.28323-.27884.38435-.3904c.43209-.43888.59819-.89341.4983-1.36359-.0527-.26292-.37503-.68579-.96701-1.2686l-6.7057-6.60187c-.65321-.64309-1.12926-.97107-1.42815-.98394-.42048-.022-.82416.16343-1.21103.55637l-.38436.3904-.28323-.27885 3.72297-3.78152c1.08524-1.1023 1.96573-1.83586 2.64146-2.2007.67574-.3648 1.40884-.51738 2.1993-.45773.79046.0597 1.48423.38343 2.08131.97125.63791.62805.98688 1.38113 1.04691 2.25927.06.87816-.24258 1.84902-.9078 2.91259l5.08795.78827c1.16616.18335 2.03485.20949 2.60607.0784.57121-.13105 1.16628-.44967 1.78522-.95585zm-12.593 2.11883c.0955-.097.17963-.17991.25252-.24885.0729-.0689.13195-.12635.17717-.17229.9747-.99003 1.49516-1.9474 1.56137-2.87212.0662-.9247-.23239-1.71363-.89581-2.36679-.64812-.63807-1.37475-.95397-2.17989-.9477-.80513.006-1.53679.34371-2.19497 1.01222-.2914.296-.63732.74434-1.03776 1.34501z"/><path d="m555.08439 887.62068 2.69095 2.11043-.26676.30898c-.50682-.33349-.90226-.53298-1.18632-.59849-.45948-.10339-.88426-.0799-1.27436.0706-.39009.15047-.7817.45337-1.17483.90869l-1.34084 1.55301 8.42368 7.27284c.67757.58502 1.16356.87689 1.45797.87561.40551-.009.79312-.22824 1.16285-.65648l.32995-.38216.30085.25975-4.03657 4.6753-.30085-.25974.33697-.39029c.40248-.46617.54703-.91851.43364-1.35702-.0705-.26901-.41472-.67029-1.03268-1.20382l-8.42367-7.27284-1.14428 1.32534c-.4446.51497-.72256.91363-.83388 1.19596-.14037.37081-.15078.78285-.0312 1.23613.11956.45329.4123.91419.87823 1.3827l-.26676.30897-2.47333-2.36249z"/><path d="m568.76269 885.63992-3.38745 4.50897 1.24433 2.17094c.30608.53449.57077.88562.79407 1.05337.1775.13335.39697.16612.65842.0983.26144-.0678.62298-.36723 1.08461-.89824l.31778.23873-2.75512 3.6673-.31778-.23873c.27974-.55121.40468-.95.3748-1.19638-.0555-.49848-.37067-1.24138-.94565-2.22869l-6.50706-11.29747.22583-.3006 12.73333 3.22439c1.02387.25865 1.75177.34196 2.18369.24991.4319-.092.84068-.36489 1.22634-.81863l.31778.23873-3.45197 4.59486-.31778-.23873c.32552-.48098.48373-.85253.47464-1.11466-.009-.2621-.10813-.46414-.29707-.6061-.25193-.18925-.7359-.3737-1.45189-.55332zm-.81622-.23699-6.19053-1.56049 3.18377 5.56274z"/><path d="m576.37315 883.58369-.33448-.21471.29595-.46104c.3327-.51829.40295-.9923.21076-1.42203-.11377-.26025-.51719-.61282-1.21025-1.05771l-7.919-5.08337c-.76537-.4913-1.29865-.71448-1.59983-.66954-.41604.0648-.773.32926-1.0709.7933l-.29595.46104-.33447-.21471 3.20321-4.99005c1.17607-1.83208 2.2786-3.09227 3.30761-3.78057 1.02902-.68827 2.21533-1.01178 3.55893-.97052 1.34361.0413 2.65123.47007 3.92285 1.28633 1.70553 1.09484 2.79813 2.52806 3.27779 4.29966.531 1.9833.0325 4.1652-1.49565 6.54571zm1.35981-4.06715c.66006-.65706 1.15644-1.24473 1.48914-1.76303.89752-1.39817 1.15106-2.87358.76062-4.42625-.39045-1.55265-1.42638-2.86865-3.10781-3.94801-1.69348-1.08706-3.32433-1.48292-4.89255-1.18758-1.5682.29537-2.81654 1.16625-3.74502 2.61263-.34816.5424-.65731 1.21623-.92744 2.02147z"/></g></g><g stroke="#000"><path d="m275 227c-59.05447 73.66128-125.47516 116.89682-250 103.65625 0 383.98713 220.98482 479.59183 250 496.34375 29.01518-16.75192 250-112.35662 250-496.34375-124.52484 13.24057-190.94553-29.99497-250-103.65625z" fill="#e3e4e5"/><g transform="translate(-124.71875 -125.36218)"><path d="m397.71875 414.36218h4v120h-4z" fill="#eac102"/><path d="m402 418.36218v56c14.12629 0 20.95369 3.90344 30 11.21875 3.5795 2.89457 7.45418 6.19006 12.34375 10.1875 4.69338 3.83704 9.26445 6.68198 13.65625 8.875 11.74674 5.86567 22.18177 6.71875 30 6.71875v-50s-13.38015-.69041-20.375-7.34375c-2.16506-2.05936-5.28482-6.33851-9.625-11.15625-5.78581-6.42245-13.91772-13.83079-26-18.84375-8.13627-3.37575-17.95436-5.65625-30-5.65625z" fill="#ed1c24"/><path d="m432 424.01843v61.5625c3.5795 2.89457 7.45418 6.19006 12.34375 10.1875 4.69338 3.83704 9.26445 6.68198 13.65625 8.875v-61.78125c-5.78581-6.42245-13.91772-13.83079-26-18.84375z" fill="#e3e4e5"/><path d="m404.71875 409.36218a5 5 0 0 1 -10 0 5 5 0 1 1 10 0z" fill="#eac102"/><g fill="#eac102" stroke-linecap="round" stroke-linejoin="round" stroke-width="2" transform="matrix(.5 0 0 .5 309.71875 535.13318)"><path d="m275.7335 78.39952c6.6967 0 12.0881 5.43929 12.0881 12.19581v30.06365h-24.1768l-.0001-30.06365c0-6.75652 5.3915-12.19581 12.0888-12.19581zm-33.507-8.13721 67.0134.00022v129.38856h-67.0134z" fill-rule="evenodd"/><path d="m227.8666 63.13912 14.3596 9.12336h67.0137l14.3599-9.12336v-25.09084h-19.1467v11.40512h-19.1466v-11.40512h-19.1467v11.40512h-19.1466v-11.40512h-19.1467z"/><path d="m227.8666 63.13912h95.7333"/><path d="m242.2265 145.04849h67.0134"/><path d="m242.2265 126.84783h67.0134"/><path d="m287.9656 90.44669h21.2743"/><path d="m254.5866 90.44669v18.20067"/><path d="m254.5866 163.24875v18.20066"/><path d="m254.5866 126.84783v18.20066"/><path d="m296.8798 163.24875v18.20066"/><path d="m275.7332 120.89599v5.95184"/><path d="m296.8798 126.84783v18.20066"/><path d="m275.7332 145.04849v18.20026"/><path d="m287.9879 108.64736h21.252"/><path d="m296.8798 90.44669v18.20067"/><path d="m242.2265 163.24875h67.0134"/><path d="m242.2265 181.44925h67.0134"/><path d="m275.7332 181.44941v18.20168"/><path d="m285.0443 63.13912v9.12356"/><path d="m247.7998 63.13912v9.12356"/><path d="m303.6665 63.13912v9.12356"/><path d="m275.7332 72.24584v6.06168"/><path d="m266.4221 63.13912v9.12356"/><path d="m242.2265 90.44669h21.3778"/><path d="m242.2265 108.64736h21.21"/><path d="m180.0005 40.85124c6.6967 0 12.0882 5.43929 12.0882 12.19581v30.06365h-24.1768l-.0002-30.06365c0-6.75652 5.3916-12.19581 12.0888-12.19581zm-33.5069-8.13721 67.0133.00022v129.38856h-67.0133z" fill-rule="evenodd"/><path d="m132.1336 25.59084 14.3596 9.12336h67.0137l14.36-9.12336v-25.09084h-19.1467v11.40512h-19.1466v-11.40512h-19.1467v11.40512h-19.1466v-11.40512h-19.1467z"/><path d="m132.1336 25.59084h95.7333"/><path d="m146.4936 107.50021h67.0133"/><path d="m146.4936 89.299547h67.0133"/><path d="m192.2327 52.89841h21.2742"/><path d="m158.8536 52.89841v18.20067"/><path d="m158.8536 125.70047v18.20066"/><path d="m158.8536 89.299547v18.200663"/><path d="m201.1469 125.70047v18.20066"/><path d="m180.0003 83.34699v5.952557"/><path d="m201.1469 89.299547v18.200663"/><path d="m180.0003 107.50021v18.20026"/><path d="m192.2549 71.09908h21.252"/><path d="m201.1469 52.89841v18.20067"/><path d="m146.4936 125.70047h67.0133"/><path d="m146.4936 143.90097h67.0133"/><path d="m180.0003 143.90113v18.20168"/><path d="m189.3113 25.59084v9.12356"/><path d="m152.0669 25.59084v9.12356"/><path d="m207.9335 25.59084v9.12356"/><path d="m180.0003 34.69756v6.06168"/><path d="m170.6892 25.59084v9.12356"/><path d="m146.4936 52.89841h21.3778"/><path d="m146.4936 71.09908h21.21"/><path d="m84.2671 78.39952c6.6966 0 12.0881 5.43929 12.0881 12.19581v30.06365h-24.1768l-.0001-30.06365c0-6.75652 5.3915-12.19581 12.0888-12.19581zm-33.507-8.13721 67.0134.00022v129.38856h-67.0134z" fill-rule="evenodd"/><path d="m36.4002 63.13912 14.3596 9.12336h67.0137l14.3599-9.12336v-25.09084h-19.1467v11.40512h-19.1466v-11.40512h-19.1467v11.40512h-19.1466v-11.40512h-19.1467z"/><path d="m36.4002 63.13912h95.7333"/><path d="m50.7601 145.04849h67.0134"/><path d="m50.7601 126.84783h67.0134"/><path d="m96.4992 90.44669h21.2743"/><path d="m63.1202 90.44669v18.20067"/><path d="m63.1202 163.24875v18.20066"/><path d="m63.1202 126.84783v18.20066"/><path d="m105.4134 163.24875v18.20066"/><path d="m84.2668 120.89599v5.95184"/><path d="m105.4134 126.84783v18.20066"/><path d="m84.2668 145.04849v18.20026"/><path d="m96.5215 108.64736h21.252"/><path d="m105.4134 90.44669v18.20067"/><path d="m50.7601 163.24875h67.0134"/><path d="m50.7601 181.44925h67.0134"/><path d="m84.2668 181.44941v18.20168"/><path d="m251.8002 229.18331c10.1916 0 18.3964 8.2371 18.3964 18.46884v49.30955h-36.7927l-.0003-49.30955c-.0001-10.23174 8.2051-18.46884 18.3966-18.46884zm-143.5998 0c10.1916 0 18.3964 8.2371 18.3964 18.46884v49.30955h-36.7927l-.0003-49.30955c-.0001-10.23174 8.2051-18.46884 18.3966-18.46884zm251.2996 250.3161-.0004-86.57089-35.8999-28.85698.0004-173.1418h-287.1997l.0003 173.1418-35.9007 28.85698.0005 86.57089h150.7793v-66.35162c0-15.48406 12.8096-27.94963 28.7204-27.94963 15.9109 0 28.7201 12.46557 28.72 27.94963l-.0004 66.35162z" fill-rule="evenodd"/><path d="m93.5778 63.13912v9.12356"/><path d="m56.3334 63.13912v9.12356"/><path d="m112.2001 63.13912v9.12356"/><path d="m84.2668 72.24584v6.06168"/><path d="m74.9557 63.13912v9.12356"/><path d="m50.7601 90.44669h21.3778"/><path d="m50.7601 108.64736h21.21"/><path d="m.5004 450.64256h143.5999"/><path d="m215.9002 450.64256h143.5998"/><path d="m.5004 421.78557h143.5999"/><path d="m215.9002 421.78557h143.5998"/><path d="m.5004 392.92862h155.5665"/><path d="m203.9335 392.92862h155.5665"/><path d="m215.9002 364.07168v28.85695"/><path d="m36.4004 364.07168h287.1996"/><path d="m36.4004 335.21473h287.1996"/><path d="m36.4004 306.35778h287.1996"/><path d="m126.8027 248.64387h106.437"/><path d="m215.9002 190.92976v28.85716"/><path d="m108.2003 219.78692v9.27282"/><path d="m180.0002 219.78671v28.85695"/><path d="m251.8001 219.78671v9.35444"/><path d="m108.2003 297.0607v9.29708"/><path d="m180.0002 277.50084v28.85694"/><path d="m251.8001 297.0607v9.47418"/><path d="m144.1003 190.92976v28.85716"/><path d="m323.5997 450.64256v28.85695"/><path d="m108.2003 335.21473v28.85695"/><path d="m180.0002 335.21473v28.85695"/><path d="m251.8001 335.21473v28.85695"/><path d="m72.3004 248.64387v28.85697"/><path d="m215.9002 248.64387v28.85697"/><path d="m287.7001 248.64387v28.85697"/><path d="m72.3004 306.35778v28.85695"/><path d="m215.9002 306.35778v28.85695"/><path d="m36.4007 450.64256v28.85695"/><path d="m287.7001 306.35778v28.85695"/><path d="m251.8001 392.92862v28.85695"/><path d="m108.2003 392.92862v28.85695"/><path d="m251.8001 450.64256v28.85695"/><path d="m323.5997 392.92862v28.85695"/><path d="m126.8027 277.50084h106.437"/><path d="m72.3004 190.92976v28.85716"/><path d="m287.7001 190.92954v28.85717"/><path d="m144.1003 306.35778v28.85695"/><path d="m36.4007 392.92862v28.85695"/><path d="m108.2003 450.64256v28.85695"/><path d="m36.4004 219.78671h287.1996"/><path d="m72.3004 421.78557v28.85699"/><path d="m287.7001 421.78557v28.85699"/><path d="m144.1003 364.07168v28.85695"/><path d="m227.8667 479.5v-64.18127c0-26.4441-21.3484-47.73303-47.8665-47.73303-26.518 0-47.8664 21.28893-47.8664 47.73303v64.18127l19.1465-.00032v-64.18071c0-15.91084 12.8091-28.71999 28.7199-28.71999 15.9109 0 28.72 12.80915 28.72 28.71999v64.18071z"/><path d="m144.1003 248.64387v28.85697"/><path d="m132.1338 415.31881h19.146"/><path d="m132.23055 445.84239h22.8508"/><path d="m132.1338 460.77276h19.146"/><path d="m208.7207 415.31881h19.146"/><path d="m208.7207 438.04578h19.146"/><path d="m208.7207 460.77276h19.146"/><path d="m203.2527 398.4249 15.4492-11.22444"/><path d="m141.3312 387.22411 15.5145 11.27197"/><path d="m165.244 369.90364 5.8953 18.14392"/><path d="m188.8734 388.00989 5.8596-18.0339"/><path d="m36.4004 248.64387h53.1633"/><path d="m36.4004 277.50084h53.1633"/><path d="m270.3537 277.50084h53.2463"/><path d="m270.3537 248.64387h53.2463"/><path d="m12.4671 184.97593 23.9333 11.40476h287.1997l23.9333-11.40476v-47.61892h-59.8333v22.80946h-67.0132v-22.80946h-81.3733v22.80946h-67.0132v-22.80946h-59.8333z"/><path d="m12.4671 184.97593h335.0663"/><path d="m180.0002 196.38069v-11.40476"/><path d="m118.1669 196.38069v-11.40476"/><path d="m56.3337 196.38069v-11.40476"/><path d="m241.8335 196.38069v-11.40476"/><path d="m303.6668 196.38069v-11.40476"/><path d="m72.3004 364.07168v28.85695"/><path d="m287.7001 364.07168v28.85695"/></g><path d="m219.125 507.3125c-2.32399 0-4.53885.16229-6.65625.4375 4.10086 8.2831 8.33704 16.22393 12.65625 23.84375.87206.0975 1.74161.20875 2.59375.34375 2.75812.43694 5.42802 1.06346 8.03125 1.8125 2.60323.74902 5.11469 1.6262 7.625 2.5625 2.51031.93628 5.02067 1.93879 7.5 2.9375 2.47933.99869 4.95844 1.96997 7.46875 2.90625 2.51031.9363 5.05301 1.81346 7.65625 2.5625 2.60322.74902 5.27313 1.37557 8.03125 1.8125 2.75811.43693 5.58754.6875 8.5625.6875 2.97495 0 5.83564-.25057 8.59375-.6875 2.75812-.43693 5.42801-1.06348 8.03125-1.8125 2.60322-.74904 5.11469-1.6262 7.625-2.5625 2.51029-.93628 5.02067-1.90756 7.5-2.90625 2.47933-.99871 4.95843-2.00122 7.46875-2.9375 2.51031-.9363 5.053-1.81348 7.65625-2.5625 2.60324-.74904 5.27313-1.37556 8.03125-1.8125 2.75813-.43694 5.58755-.6875 8.5625-.6875 2.97496 0 5.83563.25056 8.59375.6875 2.75814.43694 5.42801 1.06346 8.03125 1.8125 2.60322.74902 5.11469 1.6262 7.625 2.5625 2.51031.93628 5.02067 1.93879 7.5 2.9375 2.47933.99869 4.95845 1.96997 7.46875 2.90625 2.51031.9363 5.05303 1.81346 7.65625 2.5625 2.60324.74902 5.27311 1.37557 8.03125 1.8125 2.75812.43693 5.58754.6875 8.5625.6875 2.97495 0 5.83563-.25057 8.59375-.6875s5.42803-1.06348 8.03125-1.8125c2.60324-.74904 5.14595-1.6262 7.65625-2.5625 2.51031-.93628 4.98942-1.90756 7.46875-2.90625 2.47933-.99871 4.95844-2.00122 7.46875-2.9375 2.51031-.9363 5.05302-1.81348 7.65625-2.5625 2.60323-.74904 5.27311-1.37556 8.03125-1.8125 2.75812-.43694 5.58755-.6875 8.5625-.6875 2.97498 0 5.83562.25056 8.59375.6875 2.75812.43694 5.42802 1.06346 8.03125 1.8125 2.60326.74902 5.14595 1.6262 7.65625 2.5625 2.51031.93628 4.98943 1.93879 7.46875 2.9375 2.47933.99869 4.95845 1.96997 7.46875 2.90625 2.51031.9363 5.05302 1.81346 7.65625 2.5625 2.60323.74902 5.27315 1.37557 8.03125 1.8125 2.75812.43693 5.58754.6875 8.5625.6875 2.97495 0 5.83561-.25057 8.59375-.6875 2.75811-.43693 5.42802-1.06348 8.03125-1.8125 2.60323-.74904 5.14595-1.6262 7.65625-2.5625 2.5103-.93628 4.98942-1.90756 7.46875-2.90625.97953-.39457 1.95609-.79606 2.9375-1.1875 5.42355-9.22266 10.71185-18.95088 15.8125-29.1875-1.21904.28464-2.43584.59535-3.625.9375-2.60323.74904-5.14595 1.6262-7.65625 2.5625-2.5103.93628-4.98943 1.93881-7.46875 2.9375-2.47932.99871-4.95845 1.96997-7.46875 2.90625-2.5103.9363-5.05302 1.81348-7.65625 2.5625-2.60323.74904-5.27314 1.37556-8.03125 1.8125-2.75814.43694-5.6188.6875-8.59375.6875-2.97496 0-5.80437-.25056-8.5625-.6875-2.75811-.43694-5.42802-1.06346-8.03125-1.8125-2.60323-.74902-5.14594-1.6262-7.65625-2.5625-2.5103-.93628-4.98941-1.90754-7.46875-2.90625-2.47933-.99869-4.95844-2.00122-7.46875-2.9375-2.5103-.9363-5.05301-1.81346-7.65625-2.5625-2.60322-.74902-5.27313-1.37557-8.03125-1.8125-2.75813-.43693-5.61878-.6875-8.59375-.6875-2.97495 0-5.8044.25057-8.5625.6875-2.75813.43693-5.42802 1.06348-8.03125 1.8125-2.60323.74904-5.14594 1.6262-7.65625 2.5625-2.51031.93628-4.98942 1.93881-7.46875 2.9375-2.47933.99871-4.95844 1.96997-7.46875 2.90625-2.5103.9363-5.053 1.81348-7.65625 2.5625-2.60323.74904-5.27313 1.37556-8.03125 1.8125s-5.6188.6875-8.59375.6875c-2.77663 0-5.47534-.25056-8.125-.6875-2.64968-.43694-5.24646-1.06346-7.8125-1.8125-5.13208-1.49807-10.12967-3.47132-15.1875-5.46875-2.5289-.99869-5.08086-2.00122-7.65625-2.9375-2.57536-.9363-5.20978-1.81346-7.875-2.5625-2.6652-.74902-5.35785-1.37557-8.15625-1.8125s-5.68129-.6875-8.65625-.6875c-2.97495 0-5.80437.25057-8.5625.6875-2.75812.43693-5.42802 1.06348-8.03125 1.8125-2.60323.74904-5.14594 1.6262-7.65625 2.5625-2.51032.93628-4.98942 1.93881-7.46875 2.9375-2.47933.99871-4.98971 1.96997-7.5 2.90625-2.51031.9363-5.02178 1.81348-7.625 2.5625-2.60324.74904-5.27312 1.37556-8.03125 1.8125-2.75812.43694-5.6188.6875-8.59375.6875-2.97496 0-5.80439-.25056-8.5625-.6875-2.75812-.43694-5.42803-1.06346-8.03125-1.8125-2.60324-.74902-5.14594-1.6262-7.65625-2.5625-2.51031-.93628-4.98942-1.90754-7.46875-2.90625-2.47933-.99869-4.98969-2.00122-7.5-2.9375-2.51031-.9363-5.02177-1.81346-7.625-2.5625-2.60323-.74902-5.27313-1.37557-8.03125-1.8125-2.75813-.43693-5.61879-.6875-8.59375-.6875zm19.4375 46.5c6.52952 10.14367 13.18913 19.63655 19.9375 28.5.44927.17963.8965.34628 1.34375.53125 2.26681.9375 4.51117 1.9375 6.75 2.9375s4.48319 2 6.75 2.9375 4.55553 1.8125 6.90625 2.5625 4.75941 1.375 7.25 1.8125 5.06361.6875 7.75.6875 5.25942-.25 7.75-.6875 4.89928-1.0625 7.25-1.8125 4.63944-1.625 6.90625-2.5625 4.51116-1.9375 6.75-2.9375 4.48319-2 6.75-2.9375 4.55552-1.8125 6.90625-2.5625 4.75941-1.375 7.25-1.8125 5.06361-.6875 7.75-.6875 5.25941.25 7.75.6875 4.89928 1.0625 7.25 1.8125 4.63944 1.625 6.90625 2.5625 4.51116 1.9375 6.75 2.9375 4.48319 2 6.75 2.9375 4.55553 1.8125 6.90625 2.5625 4.75941 1.375 7.25 1.8125 5.06361.6875 7.75.6875 5.25941-.25 7.75-.6875 4.89928-1.0625 7.25-1.8125 4.63944-1.625 6.90625-2.5625 4.51116-1.9375 6.75-2.9375 4.48319-2 6.75-2.9375 4.55553-1.8125 6.90625-2.5625 4.75941-1.375 7.25-1.8125 5.06361-.6875 7.75-.6875c2.6864 0 5.25941.25 7.75.6875s4.89927 1.0625 7.25 1.8125 4.63944 1.625 6.90625 2.5625 4.51117 1.9375 6.75 2.9375 4.48319 2 6.75 2.9375 4.55553 1.8125 6.90625 2.5625 4.75942 1.375 7.25 1.8125 5.06361.6875 7.75.6875 5.25941-.25 7.75-.6875c.29612-.052.58115-.13029.875-.1875 8.21301-10.10751 16.37982-21.05684 24.34375-33-1.44013.62293-2.88131 1.26699-4.3125 1.90625-2.23883 1-4.48319 2-6.75 2.9375s-4.55553 1.8125-6.90625 2.5625-4.75941 1.375-7.25 1.8125-5.06361.6875-7.75.6875-5.25941-.25-7.75-.6875-4.89928-1.0625-7.25-1.8125-4.63944-1.625-6.90625-2.5625-4.51116-1.9375-6.75-2.9375-4.48319-2-6.75-2.9375-4.55553-1.8125-6.90625-2.5625-4.75941-1.375-7.25-1.8125-5.06361-.6875-7.75-.6875-5.25942.25-7.75.6875-4.89928 1.0625-7.25 1.8125-4.63944 1.625-6.90625 2.5625-4.51116 1.9375-6.75 2.9375-4.48319 2-6.75 2.9375-4.55552 1.8125-6.90625 2.5625-4.75941 1.375-7.25 1.8125-5.06361.6875-7.75.6875c-2.5073 0-4.9511-.25-7.34375-.6875s-4.74536-1.0625-7.0625-1.8125c-4.63429-1.5-9.15153-3.5-13.71875-5.5-2.28361-1-4.58068-2-6.90625-2.9375s-4.68706-1.8125-7.09375-2.5625-4.84804-1.375-7.375-1.8125-5.12611-.6875-7.8125-.6875-5.25941.25-7.75.6875-4.89928 1.0625-7.25 1.8125-4.63944 1.625-6.90625 2.5625-4.51116 1.9375-6.75 2.9375-4.48319 2-6.75 2.9375-4.55553 1.8125-6.90625 2.5625-4.75941 1.375-7.25 1.8125-5.06361.6875-7.75.6875-5.25941-.25-7.75-.6875-4.89928-1.0625-7.25-1.8125-4.63944-1.625-6.90625-2.5625-4.51117-1.9375-6.75-2.9375-4.48319-2-6.75-2.9375-4.55553-1.8125-6.90625-2.5625-4.75941-1.375-7.25-1.8125c-2.29606-.40333-4.66459-.65185-7.125-.6875zm114.65625 46.5c-2.68639 0-5.25941.25-7.75.6875s-4.89928 1.0625-7.25 1.8125-4.63944 1.625-6.90625 2.5625-4.51116 1.9375-6.75 2.9375-4.48319 2-6.75 2.9375-4.55553 1.8125-6.90625 2.5625-4.75941 1.375-7.25 1.8125-5.06361.6875-7.75.6875-5.25941-.25-7.75-.6875c-.61251-.10759-1.20954-.24565-1.8125-.375 7.85577 8.37875 15.64843 15.97829 23.28125 22.90625.42595-.12624.85918-.24034 1.28125-.375 2.35072-.75 4.63944-1.625 6.90625-2.5625s4.51116-1.9375 6.75-2.9375 4.48319-2 6.75-2.9375 4.55552-1.8125 6.90625-2.5625 4.75941-1.375 7.25-1.8125 5.06361-.6875 7.75-.6875 5.25941.25 7.75.6875 4.89928 1.0625 7.25 1.8125 4.63944 1.625 6.90625 2.5625 4.51116 1.9375 6.75 2.9375 4.48319 2 6.75 2.9375 4.55553 1.8125 6.90625 2.5625 4.75941 1.375 7.25 1.8125 5.06361.6875 7.75.6875 5.25941-.25 7.75-.6875 4.89928-1.0625 7.25-1.8125 4.63944-1.625 6.90625-2.5625 4.51116-1.9375 6.75-2.9375 4.48319-2 6.75-2.9375 4.55553-1.8125 6.90625-2.5625 4.75941-1.375 7.25-1.8125 5.06361-.6875 7.75-.6875c2.6864 0 5.25941.25 7.75.6875s4.89927 1.0625 7.25 1.8125 4.63944 1.625 6.90625 2.5625 4.51117 1.9375 6.75 2.9375c.051.0228.10527.0397.15625.0625 5.71448-5.41369 11.49495-11.21874 17.3125-17.4375-1.29226-.31974-2.55696-.69317-3.8125-1.09375-2.35072-.75-4.63944-1.625-6.90625-2.5625s-4.51116-1.9375-6.75-2.9375-4.48319-2-6.75-2.9375-4.55553-1.8125-6.90625-2.5625-4.75941-1.375-7.25-1.8125-5.06361-.6875-7.75-.6875-5.25942.25-7.75.6875-4.89928 1.0625-7.25 1.8125-4.63944 1.625-6.90625 2.5625-4.51116 1.9375-6.75 2.9375-4.48319 2-6.75 2.9375-4.55552 1.8125-6.90625 2.5625-4.75941 1.375-7.25 1.8125-5.06361.6875-7.75.6875c-2.5073 0-4.9511-.25-7.34375-.6875s-4.74536-1.0625-7.0625-1.8125c-4.63429-1.5-9.15153-3.5-13.71875-5.5-2.28361-1-4.58068-2-6.90625-2.9375s-4.68706-1.8125-7.09375-2.5625-4.84804-1.375-7.375-1.8125-5.12611-.6875-7.8125-.6875zm-5.4375 46.53125c-2.68639 0-5.25941.25-7.75.6875s-4.89928 1.0625-7.25 1.8125-4.63944 1.625-6.90625 2.5625c-.0609.0252-.12667.0372-.1875.0625 8.8889 7.24153 17.37579 13.53202 25.28125 18.96875 1.55167.11425 3.07613.3014 4.5625.5625 2.49059.4375 4.89928 1.0625 7.25 1.8125s4.63944 1.625 6.90625 2.5625 4.51116 1.9375 6.75 2.9375 4.48319 2 6.75 2.9375 4.55553 1.8125 6.90625 2.5625 4.75941 1.375 7.25 1.8125 5.06361.6875 7.75.6875 5.25941-.25 7.75-.6875 4.89928-1.0625 7.25-1.8125 4.63944-1.625 6.90625-2.5625 4.51116-1.9375 6.75-2.9375 4.48319-2 6.75-2.9375c.98969-.40931 1.96737-.80722 2.96875-1.1875 10.31643-6.83414 21.826-15.18301 34-25.3125-.022-.007-.0405-.0242-.0625-.0312-2.35072-.75-4.75941-1.375-7.25-1.8125s-5.06361-.6875-7.75-.6875-5.25942.25-7.75.6875-4.89928 1.0625-7.25 1.8125-4.63944 1.625-6.90625 2.5625-4.51116 1.9375-6.75 2.9375-4.48319 2-6.75 2.9375-4.55552 1.8125-6.90625 2.5625-4.75941 1.375-7.25 1.8125-5.06361.6875-7.75.6875c-2.5073 0-4.9511-.25-7.34375-.6875s-4.74536-1.0625-7.0625-1.8125c-4.63429-1.5-9.15153-3.5-13.71875-5.5-2.28361-1-4.58068-2-6.90625-2.9375s-4.68706-1.8125-7.09375-2.5625-4.84804-1.375-7.375-1.8125-5.12611-.6875-7.8125-.6875z" fill="#0071bc" fill-rule="evenodd" transform="translate(0 252.36218)"/></g><path d="m275 227c-59.05447 73.66128-125.47516 116.89682-250 103.65625 0 383.98713 220.98482 479.59183 250 496.34375 29.01518-16.75192 250-112.35662 250-496.34375-124.52484 13.24057-190.94553-29.99497-250-103.65625z" fill="none" stroke-width="3"/></g></svg>