<svg height="105.50844mm" viewBox="0 0 84.866944 105.50843" width="84.866943mm" xmlns="http://www.w3.org/2000/svg"><g transform="translate(-63.911081 -73.026322)"><g fill-rule="evenodd"><path d="m136.60651 117.61527c0 22.19209-13.52888 40.19103-30.18284 40.19103-16.653964 0-30.182839-17.99894-30.182839-40.19103 0-22.231662 13.528875-40.230602 30.182839-40.230602 16.65396 0 30.18284 17.99894 30.18284 40.230602z" fill="#fff" stroke-width=".039558"/><path d="m76.240831 118.08997c0-22.19211 13.48932-40.191044 30.182839-40.191044 16.65396 0 30.14328 17.998934 30.14328 40.191044v.23734l-30.14328-.23734z" fill="#75aadb" stroke-width=".039558"/><g transform="matrix(.03955811 0 0 .03955811 56.857358 40.59563)"><g><path d="m1360 1459c-71-11-145-16-228 2-330 141 618 121 228-2z" fill="#d40000"/><path d="m1223 1455 2 1382c0 20 15 36 32 36s31-16 31-36l-2-1382z" fill="#c87137"/><path d="m1223 1455 2 1382c0 20 15 36 32 36s31-16 31-36l-2-1382" fill="none" stroke="#ce9548" stroke-linecap="round" stroke-linejoin="bevel" stroke-width="3.95855"/><path d="m1269 2498v349" fill="#b82e2e" stroke="#ffbf00" stroke-linejoin="bevel" stroke-width="4.83364"/><path d="m1232 1454 1 65s22-17 44 0l3-64z" fill="#8a5b29"/><path d="m1097 1193c3 9-2 19 14 26 28 6 34-1 50-6-7 10-22 42-38 74-22 35-25 63-10 56 109 28 219 8 329 12-38-157-99-362-263-269-35 25-74 44-82 107z" fill="#f82323"/><path d="m1109 1218c14 8 34 8 51-3 35-42 71-59 102-63-28-5-59-20-100 39-17 3-35 12-53 27z" fill="#d40000"/><path d="m1163 1285c-50 32 61-22 159-9-25-28-52-52-159 9z" fill="#d40000"/><path d="m1104 1190 1 26c-3 48-43 71-69 49-23-43 37-71 68-75z" fill="#f82323"/><path d="m1061 1518-4-134c10-27 31-38 54-43 97-19 201-16 309 3 23 6 43 17 50 41-7 35 9 115-19 141 0-2 1-7 0-9-112-83-326-58-390 1z" fill="#ff2a2a"/><path d="m1268 1952 1 299" fill="#64af2c" stroke="#ffbf00" stroke-linejoin="bevel" stroke-width="5.52686"/></g><g><path d="m2165 2203c-50-86-115-164-98-284 108 36 116 150 98 283z" fill="#66a72e"/><path d="m2165 2203c-50-86-115-164-98-284 108 36 116 150 98 283" fill="none" stroke="#0b572f" stroke-linecap="round" stroke-linejoin="round" stroke-width="6.14095"/><path d="m2067 1951 2-25 3 1 15 38c25 65 47 132 67 200l8 26-34-55c-34-56-63-112-61-185z" fill="#007f01"/><path d="m446 1951c-15 125-7 256-125 344-90-137-6-244 124-343z" fill="#66a72e"/><path d="m446 1951c-15 125-7 256-125 344-90-137-6-244 124-343" fill="none" stroke="#0b572f" stroke-linecap="round" stroke-linejoin="round" stroke-width="7.99387"/><path d="m348 2267-23 20-3-5 14-47c26-81 57-161 90-240l13-30-8 81c-8 81-22 159-83 221z" fill="#007f01"/><path d="m745 829c-42 132-75 272-155 347-4-162 66-262 155-347z" fill="#66a72e" stroke="#0b572f" stroke-linecap="round" stroke-linejoin="round" stroke-width="7.36678"/><path d="m593 1167v-5l20-46c35-83 72-164 110-243l12-24-24 78c-29 91-59 176-109 232z" fill="#007f01"/><path d="m875 823c-69 105-130 225-225 254 29-159 119-219 225-254z" fill="#66a72e" stroke="#0b572f" stroke-linecap="round" stroke-linejoin="round" stroke-width="6.35234"/><path d="m654 1073 1-6 30-36c52-62 105-120 159-177l21-22-44 69c-46 73-94 140-155 167z" fill="#007f01"/><path d="m928 974c-112 72-222 161-325 151 97-140 209-161 325-151z" fill="#66a72e" stroke="#0b572f" stroke-linecap="round" stroke-linejoin="round" stroke-width="6.65585"/><path d="m632 1122h-23l3-5 45-22c76-38 152-72 228-104l29-12-72 48c-72 48-142 90-210 95z" fill="#007f01"/><path d="m628 1031c-36 113-64 234-134 299-3-140 57-226 134-299z" fill="#66a72e" stroke="#0b572f" stroke-linecap="round" stroke-linejoin="round" stroke-width="6.2685"/><path d="m498 1322v-4l16-40c31-72 63-141 95-209l10-21-21 68c-22 70-45 137-82 185z" fill="#007f01"/><path d="m532 1033c1 107 15 220-39 285-57-129-21-212 39-285z" fill="#66a72e" stroke="#0b572f" stroke-linecap="round" stroke-linejoin="round" stroke-width="5.48316"/><path d="m494 1312-2-4 4-40c7-68 17-134 29-199l4-25 2 70c2 73 0 142-31 190z" fill="#007f01"/><path d="m759 1096c-86 97-165 211-266 228 53-158 153-207 266-228z" fill="#66a72e" stroke="#0b572f" stroke-linecap="round" stroke-linejoin="round" stroke-width="6.58263"/><path d="m498 1320 2-6 36-32c62-56 124-108 187-159l24-19-54 64c-58 68-116 129-182 149z" fill="#007f01"/><path d="m426 1235c-8 81 77 142-46 225-27-81-32-166 46-225z" fill="#66a72e" stroke="#0b572f" stroke-linecap="round" stroke-linejoin="round" stroke-width="8.22533"/><path d="m414 1250 1-1 6-5v6c2 72 61 123-23 192l-9 7 2-6c20-62 9-121 20-178z" fill="#007f01"/><path d="m327 1740c15-69 30-139 22-204-51-96-14-135-25-221 36 27 67 65 76 106 13-57 45-110 73-150 12 42 24 83 22 129 38-35 75-39 113-42-116 88-35 148-211 278l-42 124z" fill="#66a72e" stroke="#0b572f" stroke-linecap="round" stroke-linejoin="round" stroke-width="8.22533"/><path d="m350 1750 26-122c92-70 121-213 202-260l8-4h10l-10 8c-89 80-26 139-191 261-1 1-2 1-2 2l-38 113zm-21-425 18 15c24 24 43 52 49 82 0 3 4 4 6 2v1c14 44 12 100-15 180-11-88-21-170-47-251zm142-44v-1l6 20 4 20c5 22 8 43 9 64l1 7v13c1 67-21 123-89 159 28-71 47-143 59-215z" fill="#007f01"/><path d="m205 1568c68 184 158 370 120 525-160-177-161-352-120-525z" fill="#66a72e" stroke="#0b572f" stroke-linecap="round" stroke-linejoin="round" stroke-width="8.22533"/><path d="m322 2084-22-26-9-12-13-42c-39-125-62-249-71-371l-2-42 1-9 48 125c48 126 88 248 72 356z" fill="#007f01"/><path d="m489 1642c-10 98-98 204-199 290-42-86 121-199 199-290z" fill="#66a72e" stroke="#0b572f" stroke-linecap="round" stroke-linejoin="round" stroke-width="8.22533"/><path d="m292 1925-3-7 194-260v1c-17 80-81 164-159 237z" fill="#007f01"/><path d="m317 1555c25 152 71 312 0 418-116-169-78-298 0-418z" fill="#66a72e" stroke="#0b572f" stroke-linecap="round" stroke-linejoin="round" stroke-width="8.22533"/><path d="m317 1965-4-5-2-59c-3-99-1-196 3-292l2-38 18 99c18 105 30 204-9 281z" fill="#007f01"/><path d="m420 1639c-25 151-40 312-108 405-23-180 32-300 108-405z" fill="#66a72e" stroke="#0b572f" stroke-linecap="round" stroke-linejoin="round" stroke-width="8.22533"/><path d="m315 2032-1-6 13-52c24-97 50-191 77-284l8-24-14 86c-16 104-35 203-78 271z" fill="#007f01"/><path d="m190 1953c103 88 155 263 174 436-131-23-132-283-174-436z" fill="#66a72e" stroke="#0b572f" stroke-linecap="round" stroke-linejoin="round" stroke-width="11.0608"/><path d="m357 2381-10-3-143-404c78 79 124 212 146 351z" fill="#007f01"/><path d="m371 2468c-37-121-76-93-17-211 2-79 76-120-128-371 63 157 42 316 88 520 5 21 8 50 1 72z" fill="#66a72e" stroke="#0b572f" stroke-linecap="round" stroke-linejoin="round" stroke-width="8.22533"/><path d="m251 1924 22 31c74 105 114 150 77 307z" fill="#007f01"/><path d="m272 2400c99 79 218 148 219 257-178-33-217-136-219-257z" fill="#66a72e" stroke="#0b572f" stroke-linecap="round" stroke-linejoin="round" stroke-width="8.22533"/><path d="m486 2652-5-1-32-34c-54-60-104-121-152-182l-18-25 66 51c69 53 130 107 140 177z" fill="#007f01"/><path d="m466 2362c55 122 61 267-24 339-91-151-69-258 25-339z" fill="#66a72e"/><path d="m466 2362c55 122 61 267-24 339-91-151-69-258 25-339" fill="none" stroke="#0b572f" stroke-linecap="round" stroke-linejoin="round" stroke-width="8.22533"/><path d="m443 2695-3-5 6-46 19-277c44 105 64 222-9 318z" fill="#05933f"/><path d="m631 2825c-111-65-130-155-171-280-19-61-79-151-138-165 13 52 26 104 50 156-44-31-90-63-137-94 56 154 145 275 312 374 19 12 40 32 52 53z" fill="#66a72e" stroke="#0b572f" stroke-linecap="round" stroke-linejoin="round" stroke-width="8.22533"/><path d="m330 2394-2-7 14 5c50 27 97 101 114 154 36 110 55 194 136 257l11 8-7 20c-136-145-139-300-258-429zm-86 61v-2l58 40c23 15 45 31 67 46 1 1 2 1 3 1h2l15 38c18 42 41 83 66 125-66-94-113-163-206-244z" fill="#007f01"/><path d="m415 2761c122 44 261 74 299 178-182 25-255-62-299-178z" fill="#66a72e" stroke="#0b572f" stroke-linecap="round" stroke-linejoin="round" stroke-width="8.3824"/><path d="m426 2769 81 28c84 29 161 61 195 125l6 14h-6l-42-22c-73-41-142-83-208-127zm-5-3-1-3 2 3z" fill="#007f01"/><path d="m641 2689c71 103 164 204 132 308-160-81-166-191-132-308z" fill="#66a72e" stroke="#0b572f" stroke-linecap="round" stroke-linejoin="round" stroke-width="8.22533"/><path d="m770 2991-5-3-20-41c-34-73-63-145-90-217l-10-28 48 67c50 70 92 138 80 208z" fill="#007f01"/><path d="m920 3085-149-128-212-227c26 94 59 185 147 254-66-35-147-53-231-66 81 70 171 125 289 125l122 53z" fill="#66a72e" stroke="#0b572f" stroke-linecap="round" stroke-linejoin="round" stroke-width="8.22533"/><path d="m568 2746 199 213 1 1 144 123-7 3-8-5c-137-85-247-192-316-311zm-79 179 47 8c61 12 119 28 168 55 2 1 4 0 5-1l1-3 23 20c-70-4-156-35-234-74z" fill="#007f01"/><path d="m1589 3398c-62-71-258-193-355-214 16-15-152-20-336-19l-195-60-28-12c101-45 210-42 318 0-71-71-138-139-120-192 85 41 189 94 254 182l104 85 99 12c-94 2 215 70 323 105-83 56 10 71-64 113z" fill="#66a72e" stroke="#0b572f" stroke-linecap="round" stroke-linejoin="round" stroke-width="8.22533"/><g fill="#007f01"><path d="m1231 3173-209-34c-74-38-177-40-275-43l-47 5-19-9c81-34 189-49 311 5 3 2 7-2 5-6l-1-1 13 8c7 3 14 7 20 12 27 17 70 20 111 22-72-67-165-101-218-161l-44-63-2-1 77 36c52 39 109 56 171 141l-4-3 109 90c0 1 1 1 2 1z"/><path d="m1592 3397c-39-42-233-180-299-192-22-4-44-8-66-11l-4-1 36 5c88 10 192 56 332 144z"/></g><path d="m1757 829c42 132 75 272 155 347 4-162-66-262-155-347z" fill="#66a72e" stroke="#0b572f" stroke-linecap="round" stroke-linejoin="round" stroke-width="7.36678"/><path d="m1908 1167-8-8c-50-56-81-141-109-231l-24-79 12 24c38 79 75 160 110 243l19 46z" fill="#007f01"/><path d="m1645 847c69 105 112 201 207 230-29-159-100-194-206-229z" fill="#66a72e"/><path d="m1645 847c69 105 112 201 207 230-29-159-100-194-206-229" fill="none" stroke="#0b572f" stroke-linecap="round" stroke-linejoin="round" stroke-width="6.35234"/><path d="m1848 1073-12-5c-62-27-109-94-155-167l-30-52 7 5c102 74 145 128 159 177l30 36z" fill="#007f01"/><path d="m1574 974c112 72 222 161 325 151-97-140-209-161-325-151z" fill="#66a72e" stroke="#0b572f" stroke-linecap="round" stroke-linejoin="round" stroke-width="6.65585"/><path d="m1654 1023-66-44 29 12c76 32 152 66 228 104l45 22 3 5h-13c-72-1-148-47-226-99z" fill="#007f01"/><path d="m1874 1031c36 113 64 234 133 299 4-140-56-226-133-299z" fill="#66a72e" stroke="#0b572f" stroke-linecap="round" stroke-linejoin="round" stroke-width="6.2685"/><path d="m2004 1322-18-21c-37-48-60-115-82-185l-21-68 10 21c32 68 64 137 95 209l16 40z" fill="#007f01"/><path d="m1970 1033c-1 107-15 220 39 285 56-129 21-212-39-285z" fill="#66a72e" stroke="#0b572f" stroke-linecap="round" stroke-linejoin="round" stroke-width="5.48316"/><path d="m2008 1312-6-8c-31-48-33-117-31-190l2-70 4 25c11 65 21 131 29 199l4 40z" fill="#007f01"/><path d="m1743 1096c85 97 165 211 266 228-53-158-153-207-266-228z" fill="#66a72e" stroke="#0b572f" stroke-linecap="round" stroke-linejoin="round" stroke-width="6.58263"/><path d="m2004 1320-13-3c-66-20-124-81-182-149l-55-64 25 19c63 51 125 103 187 159l36 33z" fill="#007f01"/><path d="m2076 1235c8 81-77 142 46 225 27-81 32-166-46-225z" fill="#66a72e" stroke="#0b572f" stroke-linecap="round" stroke-linejoin="round" stroke-width="8.22533"/><path d="m2113 1449-9-7c-84-69-25-120-23-192v-6l6 5 1 1 3 15c11 57 0 116 20 178z" fill="#007f01"/><path d="m2175 1740c-15-69-30-139-22-204 51-96 14-135 25-221-36 27-67 65-76 106-13-57-45-110-73-150-12 42-25 83-22 129-38-35-75-39-113-42 116 88 35 148 211 278l42 124z" fill="#66a72e" stroke="#0b572f" stroke-linecap="round" stroke-linejoin="round" stroke-width="8.22533"/><path d="m2152 1750-5-2-38-113c0-1-1-1-2-2-166-123-102-181-191-261l-10-8h10l8 4c81 47 110 190 202 260zm-52-326c2 2 6 1 6-2 6-30 25-58 49-82l18-15-11 29c-26 81-36 163-47 251-27-80-29-136-15-180zm-89-23v-10l1-7c1-21 4-42 9-64l4-20 6-20v1l10 67c12 72 31 144 59 215-68-36-90-92-89-159z" fill="#007f01"/><path d="m2297 1568c-68 184-158 370-120 525 160-177 161-352 120-525z" fill="#66a72e" stroke="#0b572f" stroke-linecap="round" stroke-linejoin="round" stroke-width="8.22533"/><path d="m2180 2084-4-21c-16-108 24-230 72-356l47-125 2 9-2 42c-9 122-32 246-71 371l-13 42-9 12z" fill="#007f01"/><path d="m2012 1642c11 98 99 204 200 290 42-86-122-199-200-290z" fill="#66a72e" stroke="#0b572f" stroke-linecap="round" stroke-linejoin="round" stroke-width="8.22533"/><path d="m2210 1925-32-29c-79-73-143-157-159-237v-1l194 259z" fill="#007f01"/><path d="m2185 1555c-25 152-71 312 0 418 116-169 78-298 0-418z" fill="#66a72e" stroke="#0b572f" stroke-linecap="round" stroke-linejoin="round" stroke-width="8.22533"/><path d="m2185 1965-8-14c-39-77-27-176-9-281l18-99 2 38c4 96 5 193 3 292l-2 59z" fill="#007f01"/><path d="m2082 1639c25 151 40 312 108 405 23-180-33-300-108-405z" fill="#66a72e" stroke="#0b572f" stroke-linecap="round" stroke-linejoin="round" stroke-width="8.22533"/><path d="m2187 2032-5-9c-43-68-62-167-78-271l-14-87 7 25c28 93 54 187 78 284l13 52z" fill="#007f01"/><path d="m2312 1953c-103 88-155 263-174 436 131-23 132-283 174-436z" fill="#66a72e" stroke="#0b572f" stroke-linecap="round" stroke-linejoin="round" stroke-width="11.0608"/><path d="m2145 2381 7-56c22-139 68-272 145-351l2-1-144 405z" fill="#007f01"/><path d="m2136 2419c36-120-5-43-77-248-19-56-16-180 39-191 21 57 62 112 68 210-15-93 52-264 107-304-63 156-40 316-85 520-5 21-8 50-1 72z" fill="#66a72e" stroke="#0b572f" stroke-linecap="round" stroke-linejoin="round" stroke-width="8.22533"/><path d="m2084 1989c7-2 5-8 9-5 9 185 63 212 60 363-2 8-24-35-6-11-68-82-140-256-63-347zm82 165c-9-49 69-252 87-244l4-4-13 25c-56 115-49 148-63 258-3-12 5 115-1 99-5-12-16-123-14-134z" fill="#007f01"/><path d="m2230 2400c-99 79-218 148-219 257 178-33 217-136 219-257z" fill="#66a72e" stroke="#0b572f" stroke-linecap="round" stroke-linejoin="round" stroke-width="8.22533"/><path d="m2016 2652 1-14c10-70 71-124 140-177l66-51-18 25c-48 61-98 122-152 182l-32 34z" fill="#007f01"/><path d="m2002 2373c-4 124-27 256 58 328 91-151 35-246-58-328z" fill="#66a72e" stroke="#0b572f" stroke-linecap="round" stroke-linejoin="round" stroke-width="8.22533"/><path d="m2059 2695-11-11c-48-53-50-133-46-217l4-82 7 30c17 74 32 151 43 229l6 46z" fill="#05933f"/><path d="m1870 2825c112-65 131-155 172-280 19-61 79-151 138-165-13 52-26 104-50 156 44-31 90-63 137-94-56 154-145 275-312 374-19 12-40 32-52 53z" fill="#66a72e" stroke="#0b572f" stroke-linecap="round" stroke-linejoin="round" stroke-width="8.22533"/><path d="m1906 2831-7-20 11-8c81-63 100-147 135-257 17-53 65-127 115-154l14-5-2 7-9 8c-118 129-121 284-257 429zm222-291h2c1 0 2 0 3-1 22-15 44-31 67-46l58-40-1 2-4 4c-93 82-140 150-206 244 25-42 48-83 66-125z" fill="#007f01"/><path d="m2087 2761c-122 44-261 74-299 178 182 25 255-62 299-178z" fill="#66a72e" stroke="#0b572f" stroke-linecap="round" stroke-linejoin="round" stroke-width="8.3824"/><path d="m1800 2936-11-1 5 1 6-14c34-64 111-96 195-125l81-28-26 18c-67 44-135 86-208 127z" fill="#007f01"/><path d="m1860 2689c-71 103-163 204-131 308 160-81 166-191 131-308z" fill="#66a72e" stroke="#0b572f" stroke-linecap="round" stroke-linejoin="round" stroke-width="8.22533"/><path d="m1732 2991-3-14c-12-70 30-138 80-208l48-68-10 29c-27 72-56 144-90 217l-20 41z" fill="#007f01"/><path d="m1582 3085 149-128 212-227c-26 94-59 185-147 254 66-35 147-53 231-66-81 70-171 125-290 125l-121 53z" fill="#66a72e" stroke="#0b572f" stroke-linecap="round" stroke-linejoin="round" stroke-width="8.22533"/><path d="m1597 3086-7-3 144-123v-1l200-213h-1l-12 24c-69 119-179 226-316 311zm172-82 23-20 1 3c1 1 3 2 5 1 49-27 107-43 168-55l47-8-10 5c-78 39-164 70-234 74z" fill="#007f01"/><path d="m877 3386c102-32 288-170 393-188 109-17 221-26 335-25l195-82 27 2c-101-45-210-42-318 0 84-44 128-125 108-184-85 42-177 86-242 174l-104 85c-107 33-235 65-352 97-5 41-42 68-42 121z" fill="#66a72e" stroke="#0b572f" stroke-linecap="round" stroke-linejoin="round" stroke-width="8.22533"/><g fill="#007f01"><path d="m1271 3172c1 0 2 0 2-1l105-85v-1c57-77 105-106 174-141l62-31 5 18-59 49c-54 60-126 85-198 152 41-2 84-5 111-22 6-5 13-9 20-12l13-8-1 1c-2 4 2 8 5 6 94-37 189-44 278-15l13 6c-1-1-2 0-2 0l-19 8h-25c-98 3-201 5-275 43l-209 34z"/><path d="m896 3376 21-37 8-26c10-3 43-31 325-118l29-2-5 1c-127 33-253 125-378 182z"/></g><g fill="#ee9948" stroke="#0b572f" stroke-linecap="round" stroke-linejoin="round"><path d="m875 3384c32-13 68-43 80-123-71-8-86 47-80 123z" stroke-width="8.33162"/><path d="m1654 3287c5 26 19 75-65 108-9-67 29-106 65-108z" stroke-width="8.06354"/></g></g><g><path d="m1087 3058c1 48 64 83 113 108 16 9 34-8 36-22-63-50-87-98-91-120-18 8-70-8-58 34z" fill="#75aadb"/><path d="m1287 3159 34 18c38-37 115-80 110-125l-68-8c10 17-50 81-76 115z" fill="#75aadb"/><path d="m1099 3036c12-2 6-14 22-10 12 35 62 102 112 130 5 3-28-4-22 7-49-30-116-92-112-127z" fill="#ececec"/><path d="m1383 3046c-10 33-38 79-76 105l-2 13c42-20 96-71 112-124z" fill="#e6e6e6"/><path d="m1261 3213c11 46 14 98 38 132l87-18c-69-71-66-98-84-140z" fill="#75aadb"/><path d="m1426 3376c28 19 31 67 40 107 11-10 20-28 58-22-9-39-13-83-44-112z" fill="#75aadb"/><path d="m1274 3210 15-8c10 28 38 100 74 136l-39 5c-31-33-36-87-50-133z" fill="#ececec"/><path d="m1447 3362c-6-30 20-10 21-9 17 24 37 83 38 107-26 4-24 9-31 16 9-22-15-90-28-114z" fill="#f9f9f9"/><path d="m1381 3401c43-24 99-52 104-40-2-9-10-17-16-24l-5-5c-10-13-17-21-33-29-22 7-42 16-59 23-105 29-76-13-80-1-10 31 16 96 89 76z" fill="#75aadb"/><path d="m1293 3356c22-6 22 17 77-5 26-8 56-28 84-28 17 4 22 21 31 31-22-13-32-6-69 12-40 24-87 41-107 20-6-5-16-24-16-30z" fill="#fff"/><path d="m1234 3199 31 17c-16 71-50 116-73 144l-95-14c25-9 108-86 137-147z" fill="#75aadb"/><path d="m998 3472c21-12 44 0 67 15-2-81-3-110 7-137l-33-26c-30 24-35 102-41 148z" fill="#75aadb"/><path d="m1233 3218c-5 40-68 113-108 134 43 44 120-97 126-123-3-3-13 0-18-11z" fill="#ececec"/><path d="m1045 3326c33-30-22 111-2 148-13-3-19-6-26-4-3-38 8-114 28-144z" fill="#f9f9f9"/><path d="m1025 3341c25-32 47-37 77-25 21 18 59 51 96 35-9 30-36 47-99 27-37-12-65-38-74-37z" fill="#75aadb"/><path d="m1035 3327c9-9 30-29 60 6 32 42 65 37 97 31-12 29-70 30-89 10-45-44-56-43-68-47z" fill="#fff"/><path d="m1141 2988c171 29 164 6 254 1 46 17 44 37 34 78-94-47-137 11-190-8-72-26-149-16-150 2-6-36 13-64 52-73z" fill="#75aadb"/><path d="m1105 3005c-14 11-20 32-19 40 33-12 73-26 126-14 64 22 85 1 121-5 80-7 95 7 99 24 3-13 7-31-7-44-36-10-65-4-93 3-51 17-100 10-153-3-37-8-55-4-74-1z" fill="#fff"/><path d="m1207 3166c4-11 9-21 22-26 23-7 44-6 64-2 17 1 26 15 35 31 1 10 2 19-5 32-17 29-30 22-45 28-11-1-19-1-37-4-20-1-35-15-35-20-2-12-2-25 1-39z" fill="#75aadb"/><path d="m1251 3138c-17 19-15 52-4 90 6 2 13 5 23 1 40-41 19-80 12-93-7-3-25-3-31 2z" fill="#fff"/></g></g><g fill-rule="evenodd" transform="matrix(.03949933 0 0 .03949933 57.120411 40.653142)"><path d="m1044 2481c12-10 21-21 27-31l49-2c-8 17-20 32-38 42-17 8-28 3-38-9z" fill="#e68a5d"/><path d="m1042 2483 1-4c11-10 20-20 26-30l2-2 49-1 3 3c-9 18-21 33-40 43-18 9-31 4-41-9zm33 7 6-2 12-8c7-6 13-13 18-21l5-8-43 1-11 15-14 14-2-2c8 10 17 15 29 11z" fill="#7f4100"/><path d="m576 2419 1-3c166-27 353-68 520-115 24-17 52-30 81-40 41 2 79 7 116 12l168 201-14 18 7 8-22 15-22-11c-4 21-19 24-38 20-15 14-30 20-47 9l-28 14-56-18c-55-22-107-47-157-74l-417 153-14-21c-34-58-56-108-78-168z" fill="#f1bd89"/><path d="m673 2609c160-61 242-104 411-156h2c38 20 76 39 116 57l41 17 55 17 27-13h2c16 10 30 5 44-9l2-1c19 4 32 1 36-18l3-2 21 11 26-38-167-198-55-8c-9-1-19-2-29-2l-30-3-21 8c-21 9-41 19-58 32h-1c-171 49-356 86-525 113l-3-5c145-23 298-52 443-90l83-22 18-12c20-12 41-21 63-29h1c42 3 79 7 116 13l2 1 168 200v3l-7 24-23 18h-2l-19-10-1 5c-5 12-15 16-26 16l-12-2-11 9c-10 6-21 8-32 4l-5-3-27 13h-1l-57-18c-42-16-81-35-119-54l-37-19-72 23c-145 51-197 83-338 136z" fill="#7f4100"/><g fill="#e68a5d"><path d="m637 2558 409-118 37-2 208 90c5 0 12-3 15-11 5 5 10 8 12 12l3 4-23 11-55-17-41-17c-40-18-78-37-116-57h-2c-68 21-135 45-200 72l-211 86z"/><path d="m1296 2503c15-4 32-11 42-22 10 10 19 22 26 33l5 10c-2 2-5 5-9 7-20 20-46-9-64-28z"/><path d="m1380 2522h-3l-3 1c-13-10-28-36-37-47 13 2 25-6 38-22 10 10 22 29 31 43l3 6c-3 17-14 21-29 19z"/><path d="m1433 2512-17-8c-21-20-32-38-51-60 15-2 28-13 39-25 16 27 49 43 47 80l-2 2z"/></g><g fill="#7f4100"><path d="m1324 2535-78-68 4-4 77 68z"/><path d="m1265 2417 3-3c25 31 74 53 107 108l-5 2c-33-56-78-72-105-107z"/><path d="m1316 2400 4-3c25 38 65 51 94 105l-4 3c-30-55-68-65-94-105z"/></g><path d="m1453 2491c-17-32-38-64-70-96-24-15-42-31-54-47-17-8-30-16-40-24-15-1-24-5-33-9-20 13-39 23-59 31-23-3-39-8-33-24 15-14 29-33 41-56 4-6 12-9 26-13 10-1 46-1 77 0 28 11 106 55 155 95 148 29 268 71 422 104l21 4-19 44c-21 55-49 94-76 135-137-61-237-110-358-144z" fill="#f1bd89"/><path d="m1484 2498-30-9-13-23-11-18 425 121-18 26c-1 14-18 25-21 39l-9-5c-112-50-222-100-323-131z" fill="#e68a5d"/><path d="m1411 2422-1-1c-8-10-16-19-25-28-24-15-42-31-54-46l-1-1c-17-8-30-16-39-24l-2-1c-14-1-23-4-32-8h-2c-10 6-20 12-30 17l-18 8-4-3c16-13 41-25 37-45 15 7 49 20 66 15 9-3 14 18 22 19 0 30 75 71 120 57z" fill="#e68a5d"/><path d="m1083 2489 78-37c15 4 25 11 25 31-16 15-35 30-61 41-31-3-41-17-42-35z" fill="#f1bd89"/><path d="m1080 2489 2-3 78-36h2c15 4 27 12 26 33l-1 2c-16 15-35 30-61 41h-1c-33-2-43-17-45-37zm45 32 17-8c11-6 21-13 29-21l12-10v-5c-1-10-6-15-13-19l-9-3-75 35v5c2 12 10 21 29 25z" fill="#7f4100"/><path d="m1125 2521-10-1c-19-4-27-13-29-25v-5l27-13 3 6c7 14 19 27 39 21v1l-13 8z" fill="#e68a5d"/><path d="m1138 2517 56-50c19-6 30 6 35 17l-43 61c-25 1-38-9-48-28z" fill="#f1bd89"/><path d="m1136 2518 1-3 55-50 1-1c21-6 33 8 38 19v3l-43 61-2 1c-26 1-40-10-50-30zm48 25 42-59-4-6c-5-6-12-11-21-10l-6 1-53 49 6 10c7 9 16 13 29 14z" fill="#7f4100"/><path d="m1184 2543-7-1c-13-1-22-5-29-14l-6-10 15-15 5 7c6 8 15 15 26 17l8-1z" fill="#e68a5d"/><path d="m1187 2547 42-60c9 1 18 5 25 17-4 19-16 38-35 58-18-3-31-7-32-15z" fill="#f1bd89"/><path d="m1185 2548v-2l42-60 2-1c10 0 20 5 27 17l1 2c-4 20-17 40-36 59l-2 1c-17-2-33-6-34-16zm33 11 12-13c8-10 14-19 18-29l4-13-5-6c-4-4-8-6-12-7l-5-1-40 58 2 3c2 2 7 4 15 6z" fill="#7f4100"/><path d="m1218 2559-11-2c-8-2-13-4-15-6l-2-3 14-20 1 1c6 6 13 11 21 13h7l-3 4z" fill="#e68a5d"/><path d="m1450 2493c-12-24-27-48-47-72l-21-24-17-11c-11-8-20-16-28-24l-9-12-12-6c-8-4-15-8-20-12l-8-6-10-1c-3-1-6-1-8-2l-14-5-28 16c-10 5-20 10-30 14h-1c-21-2-43-8-35-27l1-1c14-13 27-32 40-55v-1c5-6 14-10 28-13 10-1 46-1 77 0h1c25 9 88 44 136 80l19 15 74 16c107 24 215 56 326 82l45 11-4 3-22-5c-144-32-282-75-420-102l-1-1c-46-38-118-78-149-92l-6-2-23-1h-48l-4 1-9 2c-6 2-10 4-13 6l-3 3-9 17c-7 11-14 20-21 28l-10 11-1 4c-1 8 7 12 23 15l8 1 28-13c10-5 20-11 30-17h2c9 4 18 7 32 8l2 1c9 8 22 16 39 24l1 1c12 15 30 31 54 46 24 24 42 49 56 73l13 23 30 9c101 31 220 84 332 135l-3 4c-117-50-227-105-363-144z" fill="#7f4100"/><path d="m1187 2299 25 6c-6 14-24 34-45 18 30-32 14-16 20-24z" fill="#ffe6d5"/><path d="m1143 2467c15 20 17 20 17 20 5-4 11-7 12-13-2-5-1-9-13-14z" fill="#fae4d4"/><path d="m1187 2483c14 14 19 13 22 15 4-4 5-7 7-9 2-3 2-8 0-11-4-4-13-9-17-6-4 1-7 4-12 11z" fill="#fae4d4"/><path d="m1224 2505c9 9 16 9 17 9 2-2 5-5 6-10-7-9-13-8-17-8z" fill="#ffe6d5"/><path d="m1422 2500c3-13 20-13 20-13 4 6 4 8 4 11-3 3-5 5-12 9-3-2-6-1-12-7z" fill="#fca"/></g></g><path d="m136.56695 117.81306c0 22.19209-13.48932 40.19104-30.14328 40.19104-16.693519 0-30.182839-17.99895-30.182839-40.19104 0-22.231663 13.48932-40.2306 30.182839-40.2306 16.65396 0 30.14328 17.998937 30.14328 40.2306z" fill="none" stroke="#f2ce67" stroke-width=".641776"/><path d="m107.01843 98.505978v19.581262" fill="#ffbf00" fill-rule="evenodd" stroke="#ffbf00" stroke-linejoin="bevel" stroke-width=".227929"/></g></svg>