<svg height="416.24997pt" viewBox="0 0 332.73743 416.24997" width="332.73743pt" xmlns="http://www.w3.org/2000/svg"><g fill="none" fill-rule="evenodd" stroke="#000" stroke-linejoin="bevel" stroke-width=".501" transform="matrix(1.4417683 0 0 -1.5508522 15.796708 434.69976)"><g stroke="#0b572f" stroke-linecap="round" stroke-linejoin="round" stroke-miterlimit="79.8403" stroke-width=".786"><path d="m200.439 117.806c-5.767-1.861-2.869-7.965.744-8.333 1.381-.338 2.155.488 2.868 4.107-.691 1.966-1.606 3.581-3.612 4.226z" fill="#92484c"/><path d="m185.987 219.284c1.717 0 3.113-1.952 3.113-4.356 0-2.405-1.396-4.357-3.113-4.357-1.718 0-3.114 1.952-3.114 4.357 0 2.404 1.396 4.356 3.114 4.356z" fill="#984a49"/><path d="m117.319 277.202c17.577 1.178 21.564-9.162 38.842-18.613l-.442-1.331c-1 .654-21.777 8.673-21.416 7.532l-18.314 2.214c.931 2.448 3.446 4.085 8.274 4.581-1.802 1.87-4.316 3.74-6.944 5.617z" fill="#66a72e"/></g><path d="m155.487 257.807-.682.299c-4.272 1.819-18.909 7.409-20.457 7.177l-.174-.082-17.595 2.127.167.345.018.025.559.212c4.753 1.441 10.079.68 15.808-.988-2.464 1.089-4.796 2.249-6.977 3.496l-1.582.948.059.083c.048.133.027.29-.086.408-.915.95-2.009 1.897-3.201 2.841l-2.697 2.004 1.387-.503c7.983-3.055 15.588-7.106 22.671-12.566 3.373-1.261 6.848-2.587 10.386-3.759l.1-.032 2.496-1.435z" fill="#007f01" stroke="none"/><path d="m126.65 261.809c9.763-2.38 19.899-6.022 26.89-2.605-10.603 7.68-19.034 6.322-26.89 2.605" style="fill:#66a72e;stroke:#0b572f;stroke-linecap:round;stroke-linejoin:round;stroke-miterlimit:79.8403;stroke-width:.495"/><path d="m133.608 260.27-5.863 1.511 2.373-.129c6.191-.385 12.443-.896 18.825-1.665l3.715-.485.364-.246-.918-.382c-5.107-1.778-11.653-.368-18.496 1.396z" fill="#007f01" stroke="none"/><path d="m165.996 249.952c-7.169 11.189-16.661 20.942-29.163 28.849 4.843-19.952 14.658-16.068 25.733-30.561z" style="fill:#66a72e;stroke:#0b572f;stroke-linecap:round;stroke-linejoin:round;stroke-miterlimit:79.8403;stroke-width:.832"/><path d="m162.676 248.759-1.892 2.31c-9.74 11.073-17.858 9.435-22.587 24.366l-.594 2.139 26.224-28.241z" fill="#007f01" stroke="none"/><path d="m165.704 265.908c4.039-13.071 7.141-27.075 14.83-34.509.382 16.105-6.3 26.1-14.83 34.509" style="fill:#66a72e;stroke:#0b572f;stroke-linecap:round;stroke-linejoin:round;stroke-miterlimit:79.8403;stroke-width:.704"/><path d="m180.179 232.285-.776.82c-4.853 5.595-7.728 14.055-10.417 23.028l-2.33 7.808 1.13-2.42c3.615-7.863 7.152-15.854 10.529-24.101l1.862-4.638z" fill="#007f01" stroke="none"/><path d="m153.307 266.547c6.578-10.467 12.412-22.362 21.506-25.327-2.786 15.866-11.39 21.872-21.506 25.327" style="fill:#66a72e;stroke:#0b572f;stroke-linecap:round;stroke-linejoin:round;stroke-miterlimit:79.8403;stroke-width:.607"/><path d="m174.402 241.707-1.139.449c-5.894 2.739-10.397 9.348-14.829 16.577l-4.189 6.856 1.99-2.15c5.134-5.64 10.215-11.447 15.189-17.59l2.868-3.612z" fill="#007f01" stroke="none"/><path d="m148.224 251.53c10.648-7.171 21.197-16.017 31.079-15.003-9.319 13.898-20.019 15.986-31.079 15.003" style="fill:#66a72e;stroke:#0b572f;stroke-linecap:round;stroke-linejoin:round;stroke-miterlimit:79.8403;stroke-width:.636"/><path d="m155.886 246.61-6.353 4.398 2.776-1.196c7.251-3.196 14.521-6.572 21.83-10.313l4.232-2.218.331-.462-1.265-.053c-6.903.121-14.128 4.703-21.551 9.844z" fill="#007f01" stroke="none"/><path d="m176.891 245.8c3.469-11.233 6.137-23.27 12.744-29.652.33 13.839-5.415 22.429-12.744 29.652" style="fill:#66a72e;stroke:#0b572f;stroke-linecap:round;stroke-linejoin:round;stroke-miterlimit:79.8403;stroke-width:.599"/><path d="m189.332 216.949-1.767 2.031c-3.523 4.761-5.756 11.408-7.857 18.418l-2.011 6.739.983-2.105c3.107-6.757 6.146-13.623 9.05-20.709l1.6-3.983z" fill="#007f01" stroke="none"/><path d="m186.082 245.649c-.134-10.625-1.478-21.924 3.695-28.307 5.399 12.743 1.998 21.091-3.695 28.307" style="fill:#66a72e;stroke:#0b572f;stroke-linecap:round;stroke-linejoin:round;stroke-miterlimit:79.8403;stroke-width:.524"/><path d="m189.707 217.887-.609.853c-2.972 4.727-3.135 11.593-2.961 18.877l.176 6.891.431-2.471c1.074-6.467 2.032-13.028 2.755-19.783l.382-3.921z" fill="#007f01" stroke="none"/><path d="m164.361 239.396c8.168-9.709 15.782-20.988 25.445-22.715-5.067 15.739-14.671 20.635-25.445 22.715" style="fill:#66a72e;stroke:#0b572f;stroke-linecap:round;stroke-linejoin:round;stroke-miterlimit:79.8403;stroke-width:.629"/><path d="m189.315 217.122-1.216.294c-6.378 1.951-11.89 8.038-17.418 14.762l-5.224 6.373 2.321-1.9c6.021-5.011 12.009-10.198 17.935-15.745l3.415-3.259z" fill="#007f01" stroke="none"/><path d="m196.204 225.601c.751-8.086-7.343-14.183 4.354-22.397 2.615 8.049 3.111 16.444-4.354 22.397z" style="fill:#66a72e;stroke:#0b572f;stroke-linecap:round;stroke-linejoin:round;stroke-miterlimit:79.8403;stroke-width:.786"/><path d="m199.76 204.309-.915.704c-8.033 6.812-2.381 11.867-2.199 19.05l-.021.646.606-.53.089-.093.32-1.497c1.004-5.657-.048-11.501 1.93-17.753z" fill="#007f01" stroke="none"/><path d="m205.666 175.316c-1.441 6.877-2.862 13.825-2.117 20.289 4.857 9.588 1.382 13.441 2.373 22.03-3.433-2.748-6.436-6.517-7.224-10.58-1.314 5.647-4.303 10.978-6.969 14.936-1.201-4.154-2.38-8.305-2.118-12.818-3.61 3.409-7.215 3.888-10.833 4.107 11.089-8.709 3.37-14.687 20.167-27.632l3.98-12.323z" style="fill:#66a72e;stroke:#0b572f;stroke-linecap:round;stroke-linejoin:round;stroke-miterlimit:79.8403;stroke-width:.786"/><path d="m203.413 174.393-.463.129-3.632 11.246c-.024.076-.071.142-.134.191-15.878 12.237-9.738 17.983-18.255 25.994l-.956.819.946-.089.702-.346c7.757-4.721 10.526-18.923 19.344-25.833zm-4.961 32.36.011-.017c.211-.151.56-.067.62.244.572 2.95 2.36 5.766 4.651 8.137l1.696 1.541-1.009-2.966c-2.502-8.042-3.501-16.223-4.545-24.875-2.523 7.906-2.698 13.519-1.44 17.888zm-8.491 2.28.042.162-.002.84.029.736c.138 2.04.446 4.159.86 6.325l.428 1.977.55 1.961.047-.075.916-6.619c1.179-7.146 2.964-14.293 5.679-21.439-6.551 3.594-8.618 9.239-8.559 15.857z" fill="#007f01" stroke="none"/><path d="m217.281 192.496c-6.472-18.336-15.077-36.86-11.427-52.283 15.265 17.638 15.324 34.999 11.427 52.283" style="fill:#66a72e;stroke:#0b572f;stroke-linecap:round;stroke-linejoin:round;stroke-miterlimit:79.8403;stroke-width:.786"/><path d="m206.084 141.119-.387 2.083c-1.48 10.76 2.361 22.89 6.919 35.404l4.547 12.426.167-.865-.238-4.142c-.86-12.212-3.006-24.544-6.73-36.962l-1.319-4.176-.82-1.138z" fill="#007f01" stroke="none"/><path d="m190.115 185.131c1.013-9.823 9.438-20.356 19.072-28.886 4.018 8.604-11.617 19.837-19.072 28.886" style="fill:#66a72e;stroke:#0b572f;stroke-linecap:round;stroke-linejoin:round;stroke-miterlimit:79.8403;stroke-width:.786"/><path d="m209.003 156.95-3.094 2.869c-7.479 7.282-13.599 15.609-15.133 23.531l-.02.13 18.486-25.785z" fill="#007f01" stroke="none"/><path d="m206.567 193.772c-2.373-15.182-6.775-31.01.052-41.598 11.053 16.76 7.403 29.682-.052 41.598" style="fill:#66a72e;stroke:#0b572f;stroke-linecap:round;stroke-linejoin:round;stroke-miterlimit:79.8403;stroke-width:.786"/><path d="m206.632 152.947-.817 1.452c-3.706 7.598-2.57 17.479-.816 27.865l1.695 9.919.179-3.766c.371-9.564.54-19.233.3-29.113l-.201-5.804z" fill="#007f01" stroke="none"/><path d="m196.723 185.416c2.425-15.048 3.843-31.027 10.391-40.278 2.156 17.857-3.145 29.833-10.391 40.278" style="fill:#66a72e;stroke:#0b572f;stroke-linecap:round;stroke-linejoin:round;stroke-miterlimit:79.8403;stroke-width:.786"/><path d="m206.831 146.299-.554.858c-4.035 6.848-5.854 16.636-7.437 26.96l-1.316 8.635.713-2.48c2.594-9.209 5.098-18.548 7.423-28.151l1.229-5.221z" fill="#007f01" stroke="none"/><path d="m218.775 154.142c-9.925-8.756-14.851-26.168-16.653-43.334 12.524 2.337 12.599 28.151 16.653 43.334" style="fill:#66a72e;stroke:#0b572f;stroke-linecap:round;stroke-linejoin:round;stroke-miterlimit:79.8403;stroke-width:1.057"/><path d="m202.751 111.562.72 5.608c2.118 13.842 6.434 27.015 13.879 34.861l.103.099-13.713-40.247z" fill="#007f01" stroke="none"/><path d="m201.483 102.97c3.462 11.976-1.307 17.69-6.952 29.471-2.712 6.99161-.0871 21.04334-4.38213 25.98069 18.14373-1.56547 17.01178-19.83052 13.958-27.204-1.434 9.311 5.69513 25.64231 10.90613 29.60631-6.021-15.52-3.777-31.452-8.16-51.72-.46-2.109-.699-4.932-.099-7.185z" style="fill:#66a72e;stroke:#0b572f;stroke-linecap:round;stroke-linejoin:round;stroke-miterlimit:79.8403;stroke-width:.786"/><path d="m203.737 102.919-1.772.354.457 1.795c2.339 10.706-2.277 16.563-7.537 27.542-1.03227 4.97912-.87122-.50309-1.92762 14.33576-.34349 4.82491-.74194 7.56209-1.71339 10.9995l-.61404.7818c7.15378-3.15632 11.13092-31.11553 13.22205-52.59106zm-2.207 26.691.141.122c.043.072.064.16.049.26-1.231 7.988 6.122 22.374 11.417 28.461l.392.418-1.313-2.568c-4.77234-11.46627-4.3843-23.05295-8.803-33.367-.703 1.826-1.253 3.634-1.653 5.419z" fill="#007f01" stroke="none"/><g stroke="#0b572f" stroke-linecap="round" stroke-linejoin="round" stroke-miterlimit="79.8403" stroke-width=".786"><g fill="#92484c"><path d="m147.668 46.497c-1.734-1.998-2.462-3.987-3.109-5.977l4.219.744c1.037 1.696 1.706 3.4 1.751 5.105z"/><path d="m149.323 49.113c1.689 0 3.063-1.004 3.063-2.238 0-1.235-1.374-2.239-3.063-2.239-1.69 0-3.064 1.004-3.064 2.239 0 1.234 1.374 2.238 3.064 2.238z"/></g><path d="m65.304204 21.084784c3.447117-2.422202-1.481223-3.04207 4.056294-4.469077 6.16679 3.518308 3.145796 5.332949-4.056294 4.469077z" fill="#ee9948"/><path d="m210.937 109.743c-9.491-7.84-20.882-14.786-20.95-25.627 17.001 3.303 20.702 13.56 20.95 25.627" fill="#66a72e"/></g><path d="m190.415 84.616.103 1.441c.963 6.975 6.787 12.295 13.375 17.569l6.346 5.059-1.767-2.437c-4.542-6.118-9.291-12.174-14.46-18.1l-3.051-3.407z" fill="#007f01" stroke="none"/><path d="m189.124 112.415c-.345-12.299-2.613-25.447 5.512-32.64 8.702 14.981 3.408 24.517-5.512 32.64" style="fill:#66a72e;stroke:#0b572f;stroke-linecap:round;stroke-linejoin:round;stroke-miterlimit:79.8403;stroke-width:.786"/><path d="m194.54 80.427-1.018 1.027c-4.623 5.32-4.796 13.207-4.431 21.636l.368 8.091.669-2.916c1.62-7.445 3.056-15.007 4.118-22.799l.559-4.544z" fill="#05933f" stroke="none"/><path d="m176.547 67.468c10.685 6.429 12.473 15.386 16.346 27.865 1.863 5.999 7.629 15.018 13.208 16.347-1.201-5.173-2.485-10.333-4.73-15.506 4.204 3.064 8.567 6.247 13.081 9.327-5.325-15.243-13.9-27.296-29.797-37.184-1.846-1.149-3.865-3.146-4.955-5.203z" style="fill:#66a72e;stroke:#0b572f;stroke-linecap:round;stroke-linejoin:round;stroke-miterlimit:79.8403;stroke-width:.786"/><path d="m179.941 66.907-.707 1.897 1.075.811c7.75 6.297 9.568 14.674 12.959 25.601 1.625 5.235 6.199 12.643 10.906 15.269l1.356.545-.172-.675-.817-.857c-11.316-12.846-11.613-28.211-24.6-42.591zm21.244 28.937.166-.065c.083-.005.17.018.251.077 2.102 1.532 4.243 3.093 6.421 4.655l5.594 3.924-.087-.224-.394-.352c-8.897-8.113-13.405-14.903-19.74-24.285 2.393 4.155 4.617 8.31 6.356 12.466z" fill="#007f01" stroke="none"/><path d="m197.255 73.814c-11.72-4.393-24.966-7.307-28.615-17.706 17.436-2.448 24.389 6.188 28.615 17.706" style="fill:#66a72e;stroke:#0b572f;stroke-linecap:round;stroke-linejoin:round;stroke-miterlimit:79.8403;stroke-width:.801"/><path d="m169.787 56.383-.984.109.415-.044.575 1.35c3.232 6.386 10.588 9.576 18.666 12.466l7.774 2.761-2.502-1.757c-6.388-4.38-12.956-8.63-19.885-12.619z" fill="#007f01" stroke="none"/><path d="m175.593 80.955c-6.788-10.265-15.655-20.236-12.554-30.63 15.296 8.127 15.844 19.021 12.554 30.63" style="fill:#66a72e;stroke:#0b572f;stroke-linecap:round;stroke-linejoin:round;stroke-miterlimit:79.8403;stroke-width:.786"/><path d="m163.302 50.93-.322 1.408c-1.116 6.956 2.901 13.746 7.662 20.713l4.594 6.691-.977-2.847c-2.557-7.18-5.33-14.359-8.543-21.538l-1.921-4.143z" fill="#007f01" stroke="none"/><path d="m149.004 41.601 14.253 12.766 20.206 22.546c-2.441-9.324-5.632-18.365-14.042-25.311 6.352 3.56 14.042 5.332 22.122 6.594-7.825-6.961-16.402-12.435-27.709-12.419l-11.645-5.233z" style="fill:#66a72e;stroke:#0b572f;stroke-linecap:round;stroke-linejoin:round;stroke-miterlimit:79.8403;stroke-width:.786"/><path d="m150.402 41.55-.631.21 13.748 12.314.03.03 19.042 21.248-.024-.078-1.203-2.303c-6.607-11.85-17.123-22.509-30.222-30.964zm16.466 8.108 2.165 1.959.066-.236c.104-.153.307-.238.514-.122 4.716 2.643 10.188 4.296 16.033 5.488l4.538.807-.044-.038-.913-.496c-7.453-3.865-15.708-6.974-22.359-7.362z" fill="#007f01" stroke="none"/><path d="m69.666387 16.829851c20.770329 7.440606 60.218843 16.493247 81.463613 16.046149l18.719 8.087 2.553-.203c-9.656 4.551-20.063 4.273-30.425 0 4.948 7.426 8.463 15.01 7.231 20.2-8.088-4.146-13.824-10.424-19.996-19.148l-9.995-8.507-53.483654-12.015365c9.216763.597715 7.561843-2.306704 3.933041-4.459784z" style="fill:#66a72e;stroke:#0b572f;stroke-linecap:round;stroke-linejoin:round;stroke-miterlimit:79.8403;stroke-width:.786"/><g fill="#007f01" stroke="none" stroke-miterlimit="191.388" stroke-width="0"><path d="m119.243 32.912.005.001c.082.006.16.039.223.092l9.995 8.507.066.073c5.389 7.616 10.419 13.328 16.956 17.386l2.401 1.357.03-.258-3.59-4.221c-5.12-6.029-10.485-12.233-17.4-18.873 3.905.128 8.034.443 10.632 2.185.613.411 1.236.806 1.866 1.185l1.288.734-.066-.103c-.214-.321.12-.728.477-.581 8.992 3.708 17.995 4.375 26.496 1.472l1.268-.515c-.074.006-.138-.004-.197-.03l-1.813-.784-2.385-.063c-9.322-.221-19.225-.504-26.281-4.289l-19.937-3.356z"/><path d="m71.120718 17.684574c2.173152 1.517448 1.969207 2.314942 1.195239 3.277595 15.684918 4.079111 31.151753 8.136584 47.379823 9.824044 9.35922 1.246007-22.009462-4.494929-23.457158-4.897671 17.622528 2.811965-14.995243-4.361106-25.117904-8.203968z"/></g></g><g stroke-width=".09375" transform="matrix(.22148809 0 0 .21739601 52.231874 40.325476)"><path d="m387 30c48.8-17.9 101.1-26.3 153-23.8 12 .2 23.9 2 35.8 3.2 11.5 2 23.1 3.5 34.4 6.4 68.9 15.7 132.6 50.3 186.3 95.7 56.2 47.3 102.2 105.9 138.3 169.7 53.4 94.6 85.7 200.3 99 307.8 4.2 34.2 6.7 68.6 7 103 .1 7.2.5 14.5 0 21.7-22.9-.6-45.9-.1-68.8-.6-149-1-298-2.2-447-3.1-173.6-.1-347.2-.1-520.8 0-.5-39.8 2-79.5 6.8-119 11.4-94.1 37.4-186.7 79.2-271.9 32.6-66.3 75-128.2 127.9-180 48.1-47.3 105.3-86 168.9-109.1z" fill="#74acdf" stroke="#75aadb"/><path d="m516.8 0h13.5l1 .1c-1.2.6-2.4 1.2-3.5 1.7-4 0-7.9 0-11.9-.1l-.2-1.4z" fill="#ececec" opacity=".93" stroke="#ececec"/><path d="m341.1 44.1c54-27.1 114-43.1 174.6-43.8l.2 1.4c-10.1.8-20.4.5-30.5 1.9-12.3.9-24.4 3-36.5 5.2-65.8 12.3-127.7 41.8-181 82.1-5.4 4-10.3 8.6-16.2 11.9 7.4-5.9 15-11.7 22.5-17.5 7.4-5.3 15-10.5 22.5-15.6 7.4-4.7 14.9-9.1 22.3-13.7 7.3-4.1 14.7-7.9 22.1-11.9z" fill="#fff" stroke="#fff"/><path d="m527.8 1.8c1.1-.5 2.3-1.1 3.5-1.7 47.5 1.3 94.8 11 138.8 28.7 53.8 21.4 102.8 53.9 145.3 93-10-6.9-18.3-16-28.2-23.1-55.8-44.4-121.7-77.1-192.1-90.1-22.2-4.2-44.7-6.5-67.3-6.8z" fill="#fff" stroke="#fff"/><path d="m485.4 3.6c10.1-1.4 20.4-1.1 30.5-1.9 4 .1 7.9.1 11.9.1 22.6.3 45.1 2.6 67.3 6.8 70.4 13 136.3 45.7 192.1 90.1 9.9 7.1 18.2 16.2 28.2 23.1 8.3 7.6 16.6 15.3 24.3 23.6 60.3 62.7 106.4 138.1 139.6 218.3 38.8 93.9 59.8 194.9 64.5 296.3.9 12.5.5 25 1.2 37.6v13.8c-.6 12.8-.3 25.7-1.2 38.4-4.2 90.7-21.5 180.9-52.8 266.2-28.3 77-68.2 150.1-120.7 213.3-53.2 64-120.2 117.9-197.9 149.1-40.8 16.5-84.4 26.5-128.4 28.9-5.5.1-11.1.3-16.6.7h-9.8c-9.9-.8-19.8-.4-29.6-1.7-57.3-4.9-113.3-22.9-163.6-50.8-66.1-36.5-122.4-89-167.8-149.1-59.7-79-101.3-170.9-126.5-266.4-12.6-48-21.3-97-25.8-146.3-2.8-27.4-3.7-54.8-4.3-82.3v-13.8c.6-12.6.3-25.1 1.2-37.6 6.2-132.2 39.9-264.1 105-379.8 37.8-66.8 86.1-128.4 145.5-177.4 5.9-3.3 10.8-7.9 16.2-11.9 53.3-40.3 115.2-69.8 181-82.1 12.1-2.2 24.2-4.3 36.5-5.2m-98.4 26.4c-63.6 23.1-120.8 61.8-168.9 109.1-52.9 51.8-95.3 113.7-127.9 180-41.8 85.2-67.8 177.8-79.2 271.9-4.8 39.5-7.3 79.2-6.8 119 .5 114.2 21.6 228.8 65.2 334.6 29.3 70.6 68.7 137.3 119.2 194.8 50.9 58 113.7 106.5 185.6 135.4 44.3 17.9 91.9 28 139.8 28.9 11.7.6 23.3-.3 35-.6 11.6-1.2 23.4-2 34.9-4.2 42.5-6.6 83.7-20.6 121.9-40.1 70.4-35.9 130.3-90.3 178-152.9 46.8-61.3 82.4-130.8 107.9-203.5 32.2-92.6 48.3-190.6 49.1-288.7.5-7.2.1-14.5 0-21.7-.3-34.4-2.8-68.8-7-103-13.3-107.5-45.6-213.2-99-307.8-36.1-63.8-82.1-122.4-138.3-169.7-53.7-45.4-117.4-80-186.3-95.7-11.3-2.9-22.9-4.4-34.4-6.4-11.9-1.2-23.8-3-35.8-3.2-51.9-2.5-104.2 5.9-153 23.8z" fill="#424242" stroke="#424242"/><path d="m4.2 710c173.6-.1 347.2-.1 520.8 0 149 .9 298 2.1 447 3.1 22.9.5 45.9 0 68.8.6-.8 98.1-16.9 196.1-49.1 288.7-25.5 72.7-61.1 142.2-107.9 203.5-47.7 62.6-107.6 117-178 152.9-38.2 19.5-79.4 33.5-121.9 40.1-11.5 2.2-23.3 3-34.9 4.2-11.7.3-23.3 1.2-35 .6-47.9-.9-95.5-11-139.8-28.9-71.9-28.9-134.7-77.4-185.6-135.4-50.5-57.5-89.9-124.2-119.2-194.8-43.6-105.8-64.7-220.4-65.2-334.6z" fill="#fff" stroke="#fff"/></g><g fill="none" fill-rule="evenodd" stroke="#000" stroke-linejoin="bevel" stroke-width=".501" transform="matrix(1.4883602 0 0 -1.5647088 -22.118744 436.79249)"><g stroke="#0b572f" stroke-linecap="round" stroke-linejoin="round" stroke-miterlimit="79.8403" stroke-width=".786"><path d="m34.25 117.806c5.767-1.861 2.869-7.958-.743-8.333-1.374-.338-2.148.488-2.869 4.107.69 1.966 1.607 3.581 3.612 4.226z" fill="#92484c"/><path d="m48.713 219.289c-1.718 0-3.114-1.952-3.114-4.356 0-2.405 1.396-4.357 3.114-4.357 1.717 0 3.113 1.952 3.113 4.357 0 2.404-1.396 4.356-3.113 4.356z" fill="#984a49"/><path d="m117.371 277.202c-17.579 1.178-21.565-9.162-38.842-18.613l.45-1.331c.991.654 21.767 8.673 21.407 7.532l18.314 2.223c-.931 2.439-3.447 4.076-8.273 4.572 1.8 1.87 4.315 3.74 6.944 5.617z" fill="#66a72e"/></g><path d="m79.207 257.807-.203.602 2.488 1.432.106.033c3.538 1.172 7.013 2.498 10.386 3.759 7.082 5.46 14.688 9.511 22.671 12.566l1.382.501-2.694-2.002c-1.193-.944-2.286-1.891-3.2-2.841-.113-.118-.134-.275-.086-.408l.059-.083-1.582-.948c-2.181-1.247-4.513-2.407-6.977-3.496 5.729 1.668 11.056 2.429 15.809.988l.56-.212.015-.02.165-.342-17.593-2.135-.173.082c-1.545.231-16.171-5.35-20.448-7.174z" fill="#007f01" stroke="none"/><path d="m108.038 261.809c-9.762-2.38-19.898-6.022-26.888-2.605 10.602 7.688 19.033 6.322 26.888 2.605" style="fill:#66a72e;stroke:#0b572f;stroke-linecap:round;stroke-linejoin:round;stroke-miterlimit:79.8403;stroke-width:.495"/><path d="m83.273 258.655-1.594.61.349.237 3.716.485c6.382.769 12.635 1.28 18.826 1.665l2.372.129-6.319-1.627c-6.375-1.631-12.467-2.899-17.35-1.499z" fill="#007f01" stroke="none"/><path d="m68.692 249.952c7.17 11.189 16.662 20.942 29.163 28.849-4.842-19.952-14.656-16.068-25.732-30.561z" style="fill:#66a72e;stroke:#0b572f;stroke-linecap:round;stroke-linejoin:round;stroke-miterlimit:79.8403;stroke-width:.832"/><path d="m72.011 248.759-1.15.573 26.22 28.238-.592-2.135c-4.727-14.931-12.845-13.293-22.586-24.366z" fill="#007f01" stroke="none"/><path d="m68.985 265.908c-4.041-13.064-7.14-27.075-14.829-34.509-.384 16.105 6.307 26.1 14.829 34.509" style="fill:#66a72e;stroke:#0b572f;stroke-linecap:round;stroke-linejoin:round;stroke-miterlimit:79.8403;stroke-width:.704"/><path d="m54.509 232.285.001.493 1.864 4.645c3.378 8.247 6.914 16.238 10.527 24.102l1.129 2.417-2.329-7.806c-2.69-8.972-5.563-17.436-10.417-23.031z" fill="#007f01" stroke="none"/><path d="m81.382 266.547c-6.578-10.467-12.413-22.362-21.505-25.327 2.785 15.866 11.39 21.872 21.505 25.327" style="fill:#66a72e;stroke:#0b572f;stroke-linecap:round;stroke-linejoin:round;stroke-miterlimit:79.8403;stroke-width:.607"/><path d="m60.286 241.707.108.527 2.87 3.615c4.975 6.143 10.056 11.95 15.189 17.59l1.984 2.143-4.184-6.849c-4.432-7.229-8.935-13.838-14.829-16.577z" fill="#007f01" stroke="none"/><path d="m86.465 251.53c-10.647-7.164-21.19-16.017-31.078-15.003 9.318 13.898 20.017 15.986 31.078 15.003" style="fill:#66a72e;stroke:#0b572f;stroke-linecap:round;stroke-linejoin:round;stroke-miterlimit:79.8403;stroke-width:.636"/><path d="m58.175 236.809-2.177.026.318.446 4.233 2.218c7.309 3.741 14.579 7.117 21.83 10.313l2.77 1.194-6.841-4.735c-6.919-4.772-13.662-8.986-20.133-9.462z" fill="#007f01" stroke="none"/><path d="m57.796 245.8c-3.468-11.226-6.134-23.27-12.742-29.652-.329 13.839 5.414 22.429 12.742 29.652" style="fill:#66a72e;stroke:#0b572f;stroke-linecap:round;stroke-linejoin:round;stroke-miterlimit:79.8403;stroke-width:.599"/><path d="m45.355 216.949.001.374 1.605 4c2.902 7.086 5.94 13.952 9.047 20.709l.969 2.076-1.999-6.707c-2.1-7.01-4.333-13.659-7.856-18.42z" fill="#007f01" stroke="none"/><path d="m48.606 245.649c.135-10.625 1.479-21.924-3.694-28.307-5.4 12.743-1.997 21.091 3.694 28.307" style="fill:#66a72e;stroke:#0b572f;stroke-linecap:round;stroke-linejoin:round;stroke-miterlimit:79.8403;stroke-width:.524"/><path d="m44.98 217.887-.173.442.382 3.929c.723 6.752 1.68 13.312 2.752 19.779l.431 2.475.177-6.895c.175-7.284.012-14.15-2.96-18.877z" fill="#007f01" stroke="none"/><path d="m70.329 239.396c-8.168-9.709-15.776-20.988-25.446-22.715 5.068 15.739 14.671 20.635 25.446 22.715" style="fill:#66a72e;stroke:#0b572f;stroke-linecap:round;stroke-linejoin:round;stroke-miterlimit:79.8403;stroke-width:.629"/><path d="m45.372 217.122.189.532 3.414 3.257c5.926 5.543 11.915 10.729 17.935 15.74l2.316 1.896-5.218-6.369c-5.527-6.724-11.037-12.811-17.419-14.762z" fill="#007f01" stroke="none"/><path d="m38.485 225.601c-.75-8.08 7.343-14.183-4.355-22.397-2.612 8.057-3.108 16.444 4.355 22.397z" style="fill:#66a72e;stroke:#0b572f;stroke-linecap:round;stroke-linejoin:round;stroke-miterlimit:79.8403;stroke-width:.786"/><path d="m37.368 224.087.089.092.605.53-.021-.645c.182-7.18 5.834-12.239-2.2-19.052l-.911-.699.189.523c1.977 6.252.925 12.096 1.929 17.753z" fill="#007f01" stroke="none"/><path d="m29.024 175.316c1.442 6.877 2.86 13.825 2.117 20.289-4.857 9.588-1.374 13.441-2.373 22.03 3.432-2.748 6.436-6.51 7.224-10.58 1.313 5.655 4.301 10.978 6.969 14.942 1.208-4.16 2.379-8.311 2.116-12.824 3.612 3.409 7.215 3.888 10.836 4.107-11.091-8.709-3.372-14.687-20.168-27.632l-3.981-12.323z" style="fill:#66a72e;stroke:#0b572f;stroke-linecap:round;stroke-linejoin:round;stroke-miterlimit:79.8403;stroke-width:.786"/><path d="m31.277 174.393 2.448 12.111c8.816 6.91 11.586 21.112 19.343 25.833l.701.346.947.089-.949-.813c-8.491-7.989-2.482-13.838-18.262-26-.063-.049-.11-.115-.134-.191l-3.634-11.246zm-2.017 42.263 1.694-1.538c2.291-2.369 4.079-5.183 4.652-8.138.06-.311.408-.395.619-.244l.011.017.016-.048c1.258-4.369 1.083-9.982-1.439-17.888-1.045 8.652-2.044 16.833-4.546 24.875zm13.515 4.312.045.071.543-1.933.435-2.01c.415-2.166.723-4.285.861-6.325l.027-.684-.002-.892.043-.173.011-.264c.058-6.618-2.011-12.263-8.566-15.857 2.719 7.146 4.505 14.293 5.685 21.439z" fill="#007f01" stroke="none"/><path d="m17.407 192.496c6.473-18.336 15.078-36.86 11.428-52.283-15.264 17.638-15.324 34.999-11.428 52.283" style="fill:#66a72e;stroke:#0b572f;stroke-linecap:round;stroke-linejoin:round;stroke-miterlimit:79.8403;stroke-width:.786"/><path d="m28.603 141.119-2.139 2.63-.818 1.133-1.319 4.181c-3.724 12.418-5.867 24.75-6.728 36.962l-.24 4.163.164.844 4.548-12.426c4.558-12.514 8.399-24.644 6.919-35.404z" fill="#007f01" stroke="none"/><path d="m44.574 185.131c-1.013-9.823-9.438-20.356-19.072-28.886-4.018 8.604 11.617 19.837 19.072 28.886" style="fill:#66a72e;stroke:#0b572f;stroke-linecap:round;stroke-linejoin:round;stroke-miterlimit:79.8403;stroke-width:.786"/><path d="m25.685 156.951-.237.741 18.48 25.776-.017-.118c-1.534-7.922-7.654-16.249-15.133-23.531z" fill="#007f01" stroke="none"/><path d="m28.122 193.772c2.374-15.182 6.774-31.01-.053-41.598-11.045 16.76-7.402 29.682.053 41.598" style="fill:#66a72e;stroke:#0b572f;stroke-linecap:round;stroke-linejoin:round;stroke-miterlimit:79.8403;stroke-width:.786"/><path d="m28.054 152.948-.337.548-.202 5.808c-.239 9.88-.071 19.549.3 29.113l.18 3.759 1.693-9.912c1.754-10.386 2.89-20.267-.817-27.865z" fill="#007f01" stroke="none"/><path d="m37.967 185.416c-2.425-15.048-3.845-31.027-10.393-40.278-2.155 17.857 3.147 29.833 10.393 40.278" style="fill:#66a72e;stroke:#0b572f;stroke-linecap:round;stroke-linejoin:round;stroke-miterlimit:79.8403;stroke-width:.786"/><path d="m27.855 146.299-.058.59 1.232 5.232c2.326 9.603 4.832 18.942 7.425 28.151l.705 2.455-1.311-8.61c-1.584-10.324-3.404-20.112-7.439-26.96z" fill="#007f01" stroke="none"/><path d="m15.913 154.142c9.934-8.756 14.853-26.168 16.655-43.334-12.525 2.337-12.6 28.151-16.655 43.334" style="fill:#66a72e;stroke:#0b572f;stroke-linecap:round;stroke-linejoin:round;stroke-miterlimit:79.8403;stroke-width:1.057"/><path d="m31.938 111.561-.976.315-13.71 40.237.086-.082c7.451-7.846 11.763-21.019 13.879-34.861z" fill="#007f01" stroke="none"/><path d="m33.206 102.97c-3.46 11.976 1.307 17.69 6.953 29.471 2.718 5.67-.723009 14.80598 3.571991 19.81498-15.259248.64394-14.428795-12.85627-10.374991-22.31398 1.435 9.302-8.47 26.918-13.673 30.882 6.014-15.52 3.769-31.452 8.153-51.72.459-2.109.7-4.932.099-7.185z" style="fill:#66a72e;stroke:#0b572f;stroke-linecap:round;stroke-linejoin:round;stroke-miterlimit:79.8403;stroke-width:.786"/><path d="m40.502989 150.84086c1.311977 2.08821 4.070447 1.20059 1.91613-.0154-.962852-.54349-1.383688-4.13016-1.319145-7.69066 2.143063-14.13209-11.918528-21.31519-8.542699-34.14826-.01746-1.83056-1.379037-2.59658-1.722327-2.1828-1.440554 1.73633 1.790668 28.70234 9.668041 44.03717zm-19.345989 8.03414.396-.422c5.291-6.087 12.645-20.472 11.414-28.452-.016-.1.005-.188.048-.26l.144-.125-.231-1.261c-.4-1.785-.949-3.593-1.651-5.419-3.159449 10.36821-4.081147 21.82163-8.805 33.367z" fill="#007f01" stroke="none"/><g stroke="#0b572f" stroke-linecap="round" stroke-linejoin="round" stroke-miterlimit="79.8403" stroke-width=".786"><g fill="#92484c"><path d="m87.021 46.497c1.735-1.998 2.463-3.987 3.109-5.977l-4.22.744c-1.037 1.696-1.705 3.4-1.751 5.105z"/><path d="m85.379 49.12c-1.69 0-3.064-1.004-3.064-2.238 0-1.235 1.374-2.239 3.064-2.239 1.689 0 3.063 1.004 3.063 2.239 0 1.234-1.374 2.238-3.063 2.238z"/></g><path d="m169.21217 22.95439c-2.41454-3.048758.17728-2.574567-5.51497-3.27671-.481 5.303224-1.67903 4.14071 5.51497 3.27671z" fill="#ee9948"/><path d="m23.753 109.743c9.491-7.84 20.881-14.786 20.949-25.627-17.001 3.303-20.702 13.56-20.949 25.627" fill="#66a72e"/></g><path d="m44.272 84.616-.546.125-3.052 3.407c-5.17 5.926-9.92 11.982-14.461 18.1l-1.768 2.439 6.35-5.061c6.588-5.274 12.411-10.594 13.374-17.569z" fill="#007f01" stroke="none"/><path d="m45.565 112.415c.345-12.299 2.613-25.447-5.512-32.64-8.701 14.981-3.408 24.517 5.512 32.64" style="fill:#66a72e;stroke:#0b572f;stroke-linecap:round;stroke-linejoin:round;stroke-miterlimit:79.8403;stroke-width:.786"/><path d="m40.147 80.427-.264.492.559 4.547c1.062 7.792 2.498 15.354 4.118 22.799l.667 2.91.369-8.085c.365-8.429.192-16.316-4.431-21.636z" fill="#05933f" stroke="none"/><path d="m58.143 67.468c-10.686 6.429-12.473 15.386-16.347 27.865-1.869 5.999-7.629 15.018-13.208 16.347 1.202-5.166 2.485-10.333 4.73-15.506-4.204 3.064-8.566 6.247-13.08 9.327 5.325-15.243 13.898-27.296 29.795-37.184 1.847-1.149 3.867-3.146 4.963-5.203z" style="fill:#66a72e;stroke:#0b572f;stroke-linecap:round;stroke-linejoin:round;stroke-miterlimit:79.8403;stroke-width:.786"/><path d="m29.329 110.358-.171.672 1.354-.545c4.706-2.625 9.277-10.033 10.908-15.269 3.39-10.927 5.207-19.304 12.958-25.601l1.075-.812-.705-1.896c-12.989 14.38-13.284 29.745-24.6 42.591zm-8.172-6.146-.086.223 5.593-3.924c2.179-1.562 4.319-3.123 6.422-4.655.08-.059.167-.082.25-.077l.166.065 1.433-3.804c1.739-4.156 3.963-8.311 6.357-12.466-6.334 9.39-10.843 16.179-19.741 24.286z" fill="#007f01" stroke="none"/><path d="m37.434 73.814c11.72-4.393 24.967-7.307 28.615-17.706-17.436-2.448-24.388 6.188-28.615 17.706" style="fill:#66a72e;stroke:#0b572f;stroke-linecap:round;stroke-linejoin:round;stroke-miterlimit:79.8403;stroke-width:.801"/><path d="m38.465 73.02 7.763-2.756c8.078-2.89 15.435-6.08 18.666-12.466l.575-1.35-.569-.06-4.054 2.262c-6.931 3.99-13.499 8.241-19.888 12.62zm-.387.272-.14.342h.001l.143-.344z" fill="#007f01" stroke="none"/><path d="m59.097 80.955c6.787-10.265 15.654-20.236 12.553-30.63-15.295 8.127-15.843 19.021-12.553 30.63" style="fill:#66a72e;stroke:#0b572f;stroke-linecap:round;stroke-linejoin:round;stroke-miterlimit:79.8403;stroke-width:.786"/><path d="m71.385 50.93-.492.283-1.921 4.145c-3.213 7.18-5.986 14.36-8.543 21.54l-.975 2.839 4.592-6.686c4.76-6.967 8.777-13.757 7.661-20.713z" fill="#007f01" stroke="none"/><path d="m85.685 41.601-14.253 12.766-20.206 22.546c2.441-9.324 5.633-18.365 14.042-25.311-6.351 3.56-14.042 5.332-22.121 6.594 7.823-6.961 16.4-12.435 27.709-12.419l11.645-5.233z" style="fill:#66a72e;stroke:#0b572f;stroke-linecap:round;stroke-linejoin:round;stroke-miterlimit:79.8403;stroke-width:.786"/><path d="m52.117 75.28-.021.072 19.043-21.248.03-.03 13.748-12.314-.631-.21-.739.457c-13.099 8.455-23.615 19.114-30.224 30.964zm-7.57-17.764-.043.038 4.537-.807c5.846-1.192 11.318-2.845 16.034-5.488.207-.116.409-.031.514.122l.065.237 2.167-1.96c-6.652.388-14.908 3.497-22.361 7.362z" fill="#007f01" stroke="none"/><path d="m163.35928 19.691989c-19.77 6.488-58.34828 13.433011-79.80128 13.192011l-18.718 8.079-2.553-.203c9.655 4.551 20.063 4.273 30.426 0-4.949 7.426-8.463 15.01-7.232 20.2 8.087-4.146 13.823-10.424 19.996-19.14l9.994-8.515 53.08946-10.27661c-8.05102-1.477864-4.55788-.118323-5.20118-3.336401z" style="fill:#66a72e;stroke:#0b572f;stroke-linecap:round;stroke-linejoin:round;stroke-miterlimit:79.8403;stroke-width:.786"/><g fill="#007f01" stroke="none" stroke-miterlimit="191.388" stroke-width="0"><path d="m115.412 32.831-19.936 3.356c-7.057 3.785-16.96 4.068-26.283 4.289l-2.384.063-1.814.784c-.059.026-.123.036-.191.03l1.26.515c8.501 2.903 17.505 2.236 26.499-1.472.357-.147.691.26.477.581l-.071.11 1.3-.741c.63-.379 1.253-.774 1.867-1.185 2.59-1.742 6.721-2.057 10.625-2.185-6.917 6.64-12.282 12.844-17.402 18.873l-3.592 4.223.031.256 2.401-1.357c6.536-4.058 11.567-9.77 16.957-17.379l.066-.072 9.994-8.515c.062-.053.14-.086.223-.092l.006-.001z"/><path d="m163.55941 19.864931c-6.43323 2.029444-13.32132 4.374111-20.00179 5.190719-2.18152.266664-8.46258 2.23731-10.57675 2.113896-4.3182 5.230743-10.16387 2.331454-17.88187 3.623454l-.416.063 2.786-.174c8.574-.567 15.83134-4.143988 15.99064-2.116855l29.97036-6.094059c-1.16776-1.164952-.0658-1.764949.12941-2.606155z"/></g></g><g transform="matrix(.22920802 0 0 .2282909 136.7871 164.35646)"><g fill="#fff" stroke-miterlimit="79.8403" stroke-width=".134" transform="matrix(1 0 0 -1 0 301.5)"><path d="m68.61 218.581-6.143 2.388.939 2.208c.18.39.322.675.443.862.172.271.383.473.6.609.225.142.489.226.797.24.3.015.609-.029.915-.15.519-.203.895-.533 1.12-.991.225-.451.156-1.104-.195-1.922l-.655-1.495 2.502-.983zm-2.892 2.027.647 1.509c.217.496.263.894.165 1.179-.106.285-.339.503-.683.639-.263.098-.504.119-.752.067-.231-.045-.421-.173-.562-.345-.091-.113-.218-.345-.375-.699l-.632-1.493z"/><path d="m71.012 224.017-5.797 3.079 1.434 2.441c.286.495.563.841.819 1.035.255.203.555.308.91.323.351.016.69-.06 1.006-.232.411-.218.682-.525.817-.931.128-.413.083-.894-.15-1.457.21.136.39.232.541.286.323.097.706.171 1.133.186l2.133.129-.534-.924-1.636-.082c-.466-.03-.841-.069-1.112-.114-.255-.029-.466-.081-.6-.157-.135-.068-.256-.149-.352-.248-.061-.075-.151-.202-.264-.39l-.496-.849 2.576-1.367zm-2.809 2.449.916 1.568c.197.339.316.617.354.842.037.226.007.427-.098.608-.097.18-.247.323-.436.428-.27.142-.547.165-.841.075-.285-.098-.546-.353-.787-.759l-1.021-1.748z"/><path d="m71.612 231.196c-.878.638-1.381 1.36-1.508 2.162-.136.819.074 1.571.646 2.276.366.465.826.796 1.351.999.54.202 1.088.254 1.659.142.579-.105 1.126-.353 1.659-.744.518-.382.917-.826 1.179-1.351.255-.503.338-1.037.255-1.562-.089-.533-.307-1.021-.66-1.457-.375-.472-.834-.81-1.366-.998-.541-.194-1.104-.248-1.668-.135-.57.113-1.08.338-1.547.668zm.564.675c.631-.457 1.269-.661 1.893-.601.622.061 1.133.339 1.531.827.406.503.548 1.044.436 1.636-.106.587-.503 1.135-1.181 1.622-.435.316-.854.519-1.282.608-.436.098-.85.076-1.231-.059-.4-.135-.73-.368-.985-.699-.382-.473-.54-.997-.473-1.583.067-.587.503-1.171 1.292-1.751z"/><path d="m80.158 236.18-6.54 2.668.661.645 4.654-2.027c.377-.165.706-.323 1.022-.489-.187.316-.367.631-.533.968l-2.193 4.424.623.608 2.929-6.18z"/><path d="m83.393 239.08-4.287 4.814.669.531 4.289-4.811z"/><path d="m85.22 240.581-3.785 5.19.75.486 5.827-2.183-2.981 4.076.706.451 3.778-5.182-.745-.487-5.834 2.185 2.981-4.077z"/><path d="m93.899 248.188.87.202c.181-.691.143-1.298-.104-1.824-.248-.534-.676-.953-1.292-1.261-.63-.316-1.209-.45-1.742-.399-.534.038-1.029.24-1.494.609-.466.361-.841.811-1.142 1.337-.322.585-.487 1.148-.487 1.696-.008.556.142 1.044.45 1.487.308.442.722.797 1.232 1.051.592.295 1.163.406 1.719.323.563-.09 1.059-.344 1.501-.788l-.667-.548c-.361.329-.73.525-1.09.585-.36.061-.736-.016-1.126-.21-.451-.225-.766-.519-.961-.878-.188-.361-.248-.736-.181-1.142.068-.421.204-.805.414-1.171.263-.474.563-.85.901-1.134.345-.285.721-.436 1.118-.451.406-.023.782.053 1.142.233.443.218.744.526.916.917.165.382.18.84.023 1.366z"/><path d="m96.94 246.971-2.508 5.843.819.322 2.506-5.849z"/><path d="m98.495 247.662.547 6.743.909.255 4.49-5.308-.962-.277-1.314 1.628-2.658-.759-.12-2.019zm1.057 3.004 2.156.609-1.187 1.487c-.368.45-.645.826-.841 1.132.038-.412.038-.825.007-1.262z"/><path d="m107.159 249.892-.75 6.278 2.267.232c.511.06.908.068 1.186.039.39-.039.729-.15 1.022-.34.375-.246.683-.569.908-.991.217-.412.368-.9.435-1.463.052-.466.045-.901-.023-1.275-.074-.384-.187-.707-.336-.963-.159-.263-.339-.474-.534-.638-.203-.158-.45-.301-.743-.405-.309-.106-.654-.181-1.052-.219zm.781.827 1.412.156c.428.046.766.122 1.005.227.241.104.421.24.556.398.174.21.308.496.391.841.068.337.075.751.023 1.223-.075.654-.249 1.149-.518 1.48-.271.322-.572.533-.909.607-.247.068-.63.068-1.15.015l-1.388-.156z"/><path d="m113.835 250.561.09 6.306 4.797-.051-.007-.75-3.919.051-.031-1.938 3.664-.044v-.744l-3.672.053-.029-2.147 4.07-.061-.007-.744z"/><path d="m122.59 250.185 1.238 6.202 4.717-.855-.151-.728-3.852.697-.376-1.898 3.605-.662-.143-.72-3.611.652-.421-2.109 4.003-.729-.144-.728z"/><path d="m128.634 249.067 2.058 6.007.848-.27 1.705-5.737 1.606 4.707.811-.246-2.057-6.009-.856.27-1.697 5.746-1.615-4.716z"/><path d="m136.511 246.326 2.47 5.045-1.982.887.329.668 4.776-2.11-.337-.676-1.989.879-2.463-5.047z"/><path d="m140.114 244.681 3.514 5.354 2.493-1.487c.503-.293.85-.563 1.051-.826.196-.24.294-.534.294-.878-.008-.331-.105-.647-.301-.939-.247-.383-.594-.623-1.013-.729-.436-.111-.938-.036-1.533.211.144-.211.233-.382.279-.532.091-.324.142-.677.15-1.082l.022-2.036-.938.549-.015 1.563c0 .45-.016.801-.045 1.057-.039.248-.083.444-.15.586-.061.135-.15.248-.24.339-.076.066-.211.165-.399.27l-.871.518-1.554-2.374zm2.703 2.546 1.6-.946c.346-.203.631-.331.863-.376.248-.045.459-.029.654.06.195.091.352.217.465.398.172.249.203.519.112.796-.081.278-.337.534-.75.78l-1.779 1.06z"/><path d="m145.724 241.205 4.16 4.918 3.738-2.846-.495-.585-3.049 2.334-1.276-1.508 2.861-2.186-.496-.578-2.854 2.184-1.411-1.673 3.176-2.425-.495-.587z"/><path d="m152.301 235.709 5.061 4.084 1.907-2.132c.376-.429.624-.789.728-1.09.113-.292.113-.608 0-.922-.112-.316-.299-.594-.584-.819-.361-.292-.759-.421-1.201-.397-.452.021-.911.232-1.382.645.06-.233.089-.428.082-.586-.015-.329-.076-.691-.195-1.074l-.639-1.943-.705.794.487 1.487c.129.428.233.766.285 1.022.054.246.07.45.046.593-.022.158-.067.285-.121.405-.052.084-.15.21-.301.376l-.651.735-2.253-1.809zm3.394 1.652 1.217-1.375c.263-.291.503-.496.705-.607.211-.121.429-.159.646-.129.21.023.399.105.564.24.239.189.361.43.368.721.008.285-.143.616-.467.97l-1.357 1.53z"/><path d="m156.597 230.67 5.451 3.588.503-.675-5.459-3.61zm5.66 3.995 1.375.218.616-.841-1.615.097z"/><path d="m160.734 230.528c.961.51 1.854.668 2.689.465.832-.203 1.478-.69 1.937-1.464.292-.511.435-1.037.419-1.577-.008-.547-.18-1.051-.51-1.501-.33-.466-.789-.842-1.366-1.15-.579-.316-1.18-.481-1.78-.502-.587-.024-1.128.104-1.607.397-.481.285-.871.669-1.148 1.142-.302.526-.444 1.052-.421 1.6.022.549.195 1.05.525 1.501.331.458.75.818 1.262 1.089zm.427-.751c-.697-.383-1.141-.848-1.329-1.42-.187-.57-.128-1.126.188-1.666.324-.548.789-.887 1.397-1.03.623-.142 1.306-.007 2.049.391.473.256.842.548 1.097.887.263.337.406.706.427 1.095.015.399-.074.773-.292 1.143-.3.51-.751.855-1.344 1.028-.586.173-1.322.029-2.193-.428z"/><path d="m163.332 223.799.382-.705c-.3-.157-.517-.339-.653-.541-.15-.203-.225-.466-.225-.773-.014-.315.053-.631.195-.97.128-.285.293-.525.473-.727.195-.189.391-.309.601-.353.203-.045.398-.037.593.038.188.075.338.188.436.352.096.165.142.39.135.669 0 .18-.054.57-.142 1.157-.091.591-.129 1.012-.098 1.276.029.345.135.622.307.847.165.225.383.391.668.496.316.129.647.151.983.098.339-.068.655-.24.925-.503.277-.263.502-.593.668-.991.188-.428.278-.841.27-1.239-.007-.375-.112-.714-.316-1.006-.209-.285-.495-.51-.848-.66l-.375.712c.367.196.607.444.706.752.098.307.052.683-.143 1.133-.196.466-.428.773-.697.916-.278.151-.541.166-.797.075-.218-.09-.368-.233-.444-.45-.081-.195-.059-.647.06-1.33.122-.691.174-1.163.159-1.448-.015-.406-.113-.737-.308-.991-.173-.264-.435-.459-.766-.587-.323-.119-.667-.158-1.036-.089-.362.067-.698.24-1.006.503-.301.278-.541.623-.722 1.036-.225.525-.331 1.005-.322 1.426.007.421.128.797.368 1.126.24.324.555.571.969.751z"/></g><g stroke-width=".09375"><path d="m-27.7895-342.54211c8.2-.5 8.7-13.3 14.7-15.7 15.9 4 1.3 22.9 12.5 30.6 10.7 8.9 16.4 22.3 19.6 35.5 8.8 3.6 30.1 8.8 31.3 17.4 11.1506 95.83236-.3194 198.32448 6.6 295.00001-124.441 30.1024-208.1953-70.35-221-61.3.1-30.10001 52-211.50001 63.8-240.00001 8.277191 10.14435 67.607068-155.32807 72.5-61.5z" fill="#b64838" stroke="#b64838"/><path d="m579.1105 15.5579c10-1.1 11.2 4 7.6 18 3.3 5.6 1.2 25.4-4.9 21.4-7.3335 1.5822-40.1544-4.0801-35 6.6-15.5698-11.6794-8.2144-23.0566-50.5-36.1 3.8752-14.5847 34.9749-22.6501 20.5-37.7 24.6414 4.5584 48.1547 12.6948 62.3 27.8z" fill="#824039" stroke="#824039"/><path d="m527.9105 78.4579c110.5395 17.294 49.6696-17.2786 96.5-5.9-3.25217-1.102956 36.00157 69.2369-68.8 67.3-12.4415-1.0332-76.7047-1.1045-71.4 2.3-47.1.8-94.2.3-141.3.4 14.5-8.6 17-36.7 33.7-34.9 140.0755-26.959-23.4532 36.8358 151.3-29.2z" fill="#b95240" stroke="#b95240"/><path d="m297.2105-49.3421c17.4-3.7 35-7.4 53-6.1 5.3-2.2 7.2 3 8.4 6.6-9.5-1.6-1.8 68.8-2.4 74.2-11.705 1.412-61.431-21.9517-71.9-12.8-3.9-2.2-12.7-9.5-12.6-.7-6.1-4.1-11.9-9.3-14.4-16.5 1.5-12.3-.7-25.7-5.1-37.2-3.1049-33.84633 12.9322-42.07031 45-7.5z" fill="#6c3633" stroke="#6c3633"/><path d="m-30.2895-409.94211c4.207641-11.86944 15.411208-14.75517 24.3-3.3 12.6 16.9 21.9 36.1 33.1 53.9 13.5 14.2 26 29.7 43.8 38.2 5.6 10.5 20.7 10.1 24 22 7.2 17.2 3.9 36.1 5.9 54.2 5 30.3 4.5 61.2 11.6 90.9-11.3-22.2-18.7-46.3-19.3-71.4-2.3-10.7 3.1-22-3.1-32-3.6 3-4.9 8.2-8.6 11.2-3.8-6.4-6.4-13.5-7.4-20.9.1-6.2.4-12.3.3-18.4-1.6-10.1-2.5-30.6-17.8-25.7-5.3 4.3-1.6 12.6-.9 18.5.3 9.9-2.7 19.5-3.3 29.3-1.4 20.4 8.2 39.6 7 60 .4 10 2.4 19.9 4.2 29.7 2.7 14.5-3.4 30.5 3.6 44.3 2 26.8 6.9 53.6 17.9 78.30001 2.7 6.9 5.5 14.8 2.5 22.1-3.5 1.8-6.4-3.9-9.2-5.6-10.5-26-13-54.20001-17.4-81.60001-8.1-24.5-8.1-50.4-9-75.9-5-18-6.7-36.6-7.8-55.2-4.5-7.5-10.9-14.2-12.2-23.4-1.2-8.6-4.1-17.8-12.9-21.4-3.2-13.2-8.9-26.6-19.6-35.5-11.2-7.7 3.4-26.6-12.5-30.6-6 2.4-6.5 15.2-14.7 15.7-6.5.1-12.5 3.4-19 3.3-3-5.5-5.3-11.5-8.1-17.1 8.8-17.4 15.9-36.1 24.6-53.6z" fill="#fcfdfc" stroke="#fcfdfc"/><path d="m-71.9895-334.54211c2.9-9.1 7-18.9 17.1-21.8 2.8 5.6 5.1 11.6 8.1 17.1-5 3.2-8 8.4-9.8 14-4 22.8-4.4 46.2-2.7 69.3.4 2.7-3.2 7.7-5.4 4.3-.5-21.8-.5-43.5 1.8-65.1-7.7 2.1-4 26.8-11.3 15.4-5.4-.3-10.9 4.4-11.7 9.9-11.8 28.5-7.7 59.5-7.8 89.6-4.8 6.5 3 21.4-6 22.5-1.2-24.7-2.4-49.4-2.1-74.1 1.5-4-7.5-1.9-2.1 3 .7 10.7-1.7 21.1-1.7 31.7-7.8 6.8-1.9-6.7-8-5.6-5.6 17.3-2 36.4-10.1 53-3.2 19-10.8 37.5-8.9 57.1-.1 1.8-.7 8.8-3 5.9-5.1-11.3-1.4-25-5-37.3-4.7-7.7-.2-18-5.3-25.4 8.7-38.3 16.4-77.9 36.1-112.4 5.2-22.1 29.4-31 37.8-51.1z" fill="#433131" stroke="#433131"/><path d="m56.5105-311.24211c15.3-4.9 16.2 15.6 17.8 25.7-6.2 1.9-9.2.1-16.6-2.8-1.9 6.5-1.5-1.1-2.1-4.4-.7-5.9-4.4-14.2.9-18.5z" fill="#4d3c3b" stroke="#4d3c3b"/><path d="m55.6105-292.74211c.6 3.3.2 10.9 2.1 4.4 7.4 2.9 10.4 4.7 16.6 2.8.1 6.1-.2 12.2-.3 18.4-2.1-1.9-3.4-6-6.4-5.9-.2 20.6 3.4 41.3 7.5 61.4 5.9-3.9 6.7 7.8 9.5 10.8 5.8 23.3 10 47 17.2 70 3.4 19.3 0 39.7 4 58.9 5.4 12.00001 5.3 25.80001 11.3 37.50001 6.4 6.2 1.2-10.8 3-10.9 5.9 3.8 8.9 11.2 14.3 15.8 18.6 14.8 17.5 41.8 30 59.1-5.8 0-11.6.3-17.3-.6-5.2-9.6-13.1-17.6-19-26.9 1.9-2.5.7-2.5-1.6-1.3-26.2 13.9-55.3 19.3-83.7 26.4-17 12.6-34.3 25-49.5 40-4.2-4.7-9.2-8.6-14-12.6-.7-.9-1.3-1.7-1.8-2.6 14.4-11.2 32.2-17.5 43.9-32.1 5.9-5.8 12 2.1 17.9-.1 19.7-8.8 40.6-13.5 61.9-16.2 2.9-1.4 10.4 2 7.4-3.3-4.9.6-4.8-5.2-6.9-8.2-16.5-16.1-5.1-41.5-10.5-61.50001.9-16.2-14.3-26.2-18.1-41-2.9-6-2.5-13.2-6-19-7-13.8-.9-29.8-3.6-44.3-1.8-9.8-3.8-19.7-4.2-29.7 1.2-20.4-8.4-39.6-7-60 .6-9.8 3.6-19.4 3.3-29.3z" fill="#d25c43" stroke="#d25c43"/><path d="m67.6105-273.04211c3-.1 4.3 4 6.4 5.9 1 7.4 3.6 14.5 7.4 20.9 3.7-3 5-8.2 8.6-11.2 6.2 10 .8 21.3 3.1 32 .6 25.1 8 49.2 19.3 71.4.5 1 1 2 1.6 3 2.2 26.3 3.2 52.7 9.5 78.3-3.2 14.30001 6 27.30001 13.2 38.90001 1.6 3.5.8 4.9-2.3 4.3-5.4-4.6-8.4-12-14.3-15.8-1.8.1 3.4 17.1-3 10.9-6-11.7-5.9-25.5-11.3-37.50001-4-19.2-.6-39.6-4-58.9-7.2-23-11.4-46.7-17.2-70-2.8-3-3.6-14.7-9.5-10.8-4.1-20.1-7.7-40.8-7.5-61.4z" fill="#553938" stroke="#553938"/><path d="m2.7105-270.94211c1-1.1 3-.6 2.7 1.1 5 25.8 5.9 52.2 12.4 77.7-1.8 29.6 8 58.2 10.2 87.6-4.1-.4-5.7 4.7-4.6 8 4.7 18.4 2.9 37.80001-1.1 56.20001 6.2-.6 8.4-8.3 12.5-12.3-3.5 10.2-5.2 24.1-16.8 28.8-3.5.3-4.5-3.4-5.7-5.8.3-9.9 3.5-19.8-.1-29.6-4.8-15.60001 2.7-30.60001 3.1-46.20001-2.8-17.8 3-38-6.9-54.1-2.2-37.2-10.8-74.1-5.7-111.4z" fill="#493131" stroke="#493131"/><path d="m36.6105-241.74211c.1-9.9-6.2-19.2-4.7-29 1.3 9.2 7.7 15.9 12.2 23.4 1.1 18.6 2.8 37.2 7.8 55.2.9 25.5.9 51.4 9 75.9 4.4 27.4 6.9 55.60001 17.4 81.60001-3.1 11-13.6 11.9-17.8 21.5-9.6 3.4-6.9-13.1-11.6-18-7.1-10.4-1.7-21.9 9.1-25.6 3.6-10.50001 1.1-22.20001-1.9-32.80001-5.1 8-3.7-1-4.2-6.2-.2-3.3-.2-6.5-.9-9.7-4.7.8-9.7 7.5-14.1 3.3-2.3-45.8.8-93-.3-139.6z" fill="#463333" stroke="#463333"/><path d="m-113.5895-224.34211c6.1-1.1.2 12.4 8 5.6 3.1 13.8-4.1 27.1-3.2 40.3-6.9 22-18.2 41.6-23.8 64.2-1.9-19.6 5.7-38.1 8.9-57.1 8.1-16.6 4.5-35.7 10.1-53z" fill="#6e3b35" stroke="#6e3b35"/><path d="m-93.6895-201.84211c3.3 13.8.4 29.4 2.9 43.9-2.5 4.1-2.1 18.5-8.3 13.8-.6-11.4 1.4-23.6-.6-35.2 9-1.1 1.2-16 6-22.5z" fill="#834236" stroke="#834236"/><path d="m-147.8895-164.64211c.7-2.2 1.3-4.3 2-6.4 5.1 7.4.6 17.7 5.3 25.4 3.6 12.3-.1 26 5 37.3-8.6-5.9-7.8 9.1-9 14.7 12.4.6-3.4 19.8.9 25.6 6-.3 12.1-.8 18.1.2-10.4.8-20.9 1.9-31.4 1.4 18-29.9 5.7-65.5 9.1-98.2z" fill="#863f37" stroke="#863f37"/><path d="m-166.4895-73.14211c11.2-29.2 4.7-63.8 18.6-91.5-3.4 32.7 8.9 68.3-9.1 98.2-7-.6-20.9.5-23.8-3.4 4.5-1.8 10.5-.4 14.3-3.3z" fill="#503837" stroke="#503837"/><path d="m67.1105-129.44211c3.5 5.8 3.1 13 6 19 3.8 14.8 19 24.8 18.1 41 5.4 20.00001-6 45.40001 10.5 61.50001 2.1 3 2 8.8 6.9 8.2 3 5.3-4.5 1.9-7.4 3.3-21.3 2.7-42.2 7.4-61.9 16.2-5.9 2.2-12-5.7-17.9.1-11.7 14.6-29.5 20.9-43.9 32.1.5.9 1.1 1.7 1.8 2.6-9.1-.2-12.1-13.1-22.1-10-11.9 6-20.3 19.1-34.8 20.2-26.6 2.3-53.9 1.5-79.3 10.7-8.1 1 6.6-17-8.1-12.2 13.4-6 28.1-12.5 41.2-20.8 17.2-15.7 42.9-4.7 62.1-14.8 7.4-10.2 20-8.5 30.9-10.3-4.6-11.7 6.5-24.9-1.1-36 1-7.5 4.7-14.3 8.1-20.9-2.9-3.2-8.2-2.5-11.9-3.9-4.2-5.7 10.2 1.4 13.7 2.3 5.5 4.5 3.8 13.6 8.9 18.9-4.5 13.8 0 28.1-.1 42.2.8 9.5 10.5-2.9 13.4-5.4 2.8-15 17-28.3 12.1-44.2 1.2 2.4 2.2 6.1 5.7 5.8 11.6-4.7 13.3-18.6 16.8-28.8 3.1-8.5-1.9-17.10001-1.6-25.80001 7.2-2.4 10.2 7.1 16.8 7 1.9-7.9.7-16.3 1.9-24.3.5 5.2-.9 14.2 4.2 6.2 3 10.6 5.5 22.3 1.9 32.80001-10.8 3.7-16.2 15.2-9.1 25.6 4.7 4.9 2.799735-.992573 12.399735-4.392573 4.2-9.6 13.900265 11.892573 17.000265.892573 2.8 1.7 5.7 7.4 9.2 5.6 3-7.3.2-15.2-2.5-22.1-11-24.70001-15.9-51.50001-17.9-78.30001z" fill="#603231" stroke="#603231"/><path d="m242.0105-115.94211c7.7.8 15.4 1.4 21.7 6.2-.5 1-1 2.1-1.4 3.1-3.9 8.5-9.9 17.1-8.8 26.9 2.4 10.2 3.9 20.90001 1.5 31.20001-1.6 1.9-2.9 4.1-2.8 6.7-.5.1-1.4.2-1.9.3 0-1.7-.1-5.1-.2-6.8-.6-9.1-2.3-18.40001-6.8-26.50001-5-10.1-2.4-21.2.3-31.5-.3-3.2 4.4-10.1-1.6-9.6z" fill="#fafaf7" stroke="#fafaf7"/><path d="m225.2105-101.44211c5.1-5.2 8.2-14.5 16.8-14.5 6-.5 1.3 6.4 1.6 9.6-2.7 10.3-5.3 21.4-.3 31.5.2 8.3-.8 22.30001 6.8 26.50001.1 1.7.2 5.1.2 6.8-12.9-1.1-5.9 12.5-8.3 20-5.9-1.4-3.2-13.4-2.4-18.5 10-15.4-10-28.60001-5.5-44.50001-11.6 6.5-4.2 25.50001-15.7 31.70001-6.9-4.8-1.4-16.70001-9.2-20.90001-3.5 6.1-4.2 13.30001-6.8 19.70001-1.8-2.1-3.8-8.3-6.4-3.5-2.6 6-4.2 13.1-4.4 19.8-2.4 8.6-3.8-.1-2.7-4.9-8.1 3.2-15.5 12.9-13.7 22.1 1.7 6.7 14.4-1.8 14.3 5.3-.9 7.2-3 16.4 4.4 21.1 1.4 2.2 2.3-.4 3.1-1.6 4-12 1.7-25.6 6.2-37.2 4.8 6-2.3 13.7 1.6 20 5.6 7.1 1.1 18.6 10.3 23.5 2.9-2 6.7-4.8 3.9-8.5-2-15.6 1.1-31.4-.7-47.1 14.7-4.1 3.2 14.4 8.8 22.7 1.1 13.2 2.9 27.2.3 40.2-10.6-.4-23.1 5.9-32.4-2-16.1 1.4-31.4-10.1-37.7-24.5 2.1-3.2 7.5-5.2 5-9.8 10.9-19.8 26.2-37 36.5-57.30001 5.2-11.8 19.2-15.4 26.4-25.7z" fill="#543635" stroke="#543635"/><path d="m263.7105-109.74211c18.2 8.7 29.3 25.8 44.1 38.6 18.5 7.10001 40.8 5.90001 57.5 18.60001 14.5 11.8 33.6 12 51.1 15.8 11.5.1 24.1-10.3 34.7-1.9-4.1 2.2.8 9.2-2 13.2-4.6 5.5.5 9.5 5.7 11.2-.5 4.9-3.6 8.9-5 13.5-4.9-1.8-16.4-10.8-18.7-1.8 10.9 5.8 12.2 21.4 24.6 24.5 7.5-1.4 11 5.4 14.7 10.5 6.1 8.1 22.1 4 25 15.1-23.7-1.2-47.1-1.7-70.2-7-3.6-2.1-12.7-8.7-14.6-3.2 12 11.5-10.9-2.6-15.6-1 7.2-8.8 8.2-21 14.8-30.2-4.1-19.2 16.5-25.4 26.8-36.2 2.7-1.4 7.6-7.6-1.2-4.3-10.3 6.5-22.4 11.1-34.8 9.5-7.3-3.1-15.2-9.7-23.3-6-4.1-3.3-9.1-2.2-13.9-1.7-1.4-5.5-2.3-11.2-4.8-16.3-1.2-3.6-3.1-8.8-8.4-6.6-18-1.3-35.6 2.4-53 6.1-5.3-3.6-10.9-6.5-16.6-9.1-4.9-9.70001-22.1-19.20001-12-31.50001 6.7-6.4.9-14.4-6.3-16.7.4-1 .9-2.1 1.4-3.1z" fill="#e06a4a" stroke="#e06a4a"/><path d="m262.3105-106.64211c7.2 2.3 13 10.3 6.3 16.7-10.1 12.3 7.1 21.8 12 31.50001-6.2 1.9-3.8 15.7-10.1 11.7-1.9-4.9 1.3-15.9-7-14.6-3.6 3.9-2.3 11.4-8.5 12.8 2.4-10.3.9-21.00001-1.5-31.20001-1.1-9.8 4.9-18.4 8.8-26.9z" fill="#4b3635" stroke="#4b3635"/><path d="m36.9105-102.14211c4.4 4.2 9.4-2.5 14.1-3.3.7 3.2.7 6.4.9 9.7-1.2 8 0 16.4-1.9 24.3-6.6.1-9.6-9.4-16.8-7-.3 8.7 4.7 17.30001 1.6 25.80001-4.1 4-6.3 11.7-12.5 12.3 4-18.4 5.8-37.80001 1.1-56.20001-1.1-3.3.5-8.4 4.6-8 2.9.9 5.9 1.5 8.9 2.4z" fill="#fbfbf9" stroke="#fbfbf9"/><path d="m218.4105-52.8421c11.5-6.2 4.1-25.20001 15.7-31.70001-4.5 15.9 15.5 29.10001 5.5 44.50001-.8 5.1-3.5 17.1 2.4 18.5 2.4-7.5-4.6-21.1 8.3-20 .5-.1 1.4-.2 1.9-.3 4.4 11.5 6.6 24.9 5.1 37.2 2.5 7.2 8.3 12.4 14.4 16.5 8.5 6.5 14.2 16.4 18.6 25.8-3.6-1.5-7.1-3.4-10.1-5.9-8.7-9.4-18.6-17.5-28.5-25.1-1.9 4.9-4.9 9.2-6.3 14.2-1.4-7.3-2.5-14.6-3.7-21.9-9.7-1.3-7.9 14-11.2 20.9-1.8 1.7-4.2.6-3.1-2 2.6-13 .8-27-.3-40.2-5.6-8.3 5.9-26.8-8.8-22.7 1.8 15.7-1.3 31.5.7 47.1 2.8 3.7-1 6.5-3.9 8.5-9.2-4.9-4.7-16.4-10.3-23.5-3.9-6.3 3.2-14-1.6-20-4.5 11.6-2.2 25.2-6.2 37.2-.8 1.2-1.7 3.8-3.1 1.6-7.4-4.7-5.3-13.9-4.4-21.1 1-7.5 1.7-15 2.1-22.5.2-6.7 1.8-13.8 4.4-19.8 2.6-4.8 4.6 1.4 6.4 3.5 2.6-6.4 3.3-13.60001 6.8-19.70001 7.8 4.2 2.3 16.10001 9.2 20.90001z" fill="#d55e40" stroke="#d55e40"/><path d="m243.3105-74.84211c4.5 8.1 6.2 17.40001 6.8 26.50001-7.6-4.2-6.6-18.20001-6.8-26.50001z" fill="#b66243" stroke="#b66243"/><path d="m-211.4895-68.24211c10.1-3 20.4-4.8 30.7-1.6 2.9 3.9 16.8 2.8 23.8 3.4 10.5.5 21-.6 31.4-1.4 16.1 4.70001 32.5 7.70001 48.4 12.80001 13.3 5.9 27.1 10.2 41.5 11.6 3.7 1.4 9 .7 11.9 3.9-3.4 6.6-7.1 13.4-8.1 20.9-4.7 2-9.2 9.3-14.8 6 .5-4 2.4-7.7 3.1-11.8.5-6.6-8.7-5.9-13.1-8.5-16.8-4.5-33.3-12.2-51.1-10.5-11.6.8-21-7.2-31.9-9.3-6.2-2.5-10.9 3.2-16.9 3.3-19.8.4-39.5 4.2-59.3 2.2-10.7-5.3 3.5-13.6 4.4-21.00001z" fill="#fdfcfb" stroke="#fdfcfb"/><path d="m123.5105-72.74211c3.8 22.00001 16.8 48.50001 38.8 54.30001 2.5 4.6-2.9 6.6-5 9.8 6.3 14.4 21.6 25.9 37.7 24.5 9.3 7.9 21.8 1.6 32.4 2-1.1 2.6 1.3 3.7 3.1 2 3.3-6.9 1.5-22.2 11.2-20.9 1.2 7.3 2.3 14.6 3.7 21.9 1.4-5 4.4-9.3 6.3-14.2 9.9 7.6 19.8 15.7 28.5 25.1-10-7.7-23.1-1.7-34.5-4.7-7-.8-14-6.1-21.1-4.1-12.7 7.9-28.4 3.8-42.4 3.5-6.2.8-11.4 7.6-17.8 3.1-12.5-17.3-11.4-44.3-30-59.1 3.1.6 3.9-.8 2.3-4.3-7.2-11.6-16.4-24.6-13.2-38.90001z" fill="#713c38" stroke="#713c38"/><path d="m307.8105-71.14211c26.9-2.4 56.2.2 78.6 16.50001 21.3 11.5 46 9.5 69.3 9.6 14.6 7.8 25.7 24.2 43.8 24.4-9.3 5.6-19.8 5-27.4-2.9-6.8-5.2-14-10-21-15.1-10.6-8.4-23.2 2-34.7 1.9-17.5-3.8-36.6-4-51.1-15.8-16.7-12.7-39-11.5-57.5-18.60001z" fill="#fafafb" stroke="#fafafb"/><path d="m-262.5895-31.2421c16.9-12.3 31.8-28.6 51.1-37.00001-.9 7.40001-15.1 15.70001-4.4 21.00001-7.8 9.7-19.4 24.1-27.1 36.6-11.8 10.5-24 20.8-33.1 34-4.3 5.8-.2 14.1-4.8 19.5-12.4.7-24.1 5.9-36.5 7-2 7-8.5 12.4-9.3 19.6 3.8 4.5 6 10.2 8.9 15.2 8 3.3 15.5-4.2 20.7-9.4 5.2-6.4 14.8-4.2 22.2-5.6 16.1 15.8 38.4 19.2 59.3 24.9-6.1-6.9-18.1-7.8-23.3-16.9 17.9 4.6 33.3-6.9 50.6-7.6 8.2-.7 15.4-4.9 23.3-6.8 14.7-4.8 0 13.2 8.1 12.2 25.4-9.2 52.7-8.4 79.3-10.7 14.5-1.1 22.9-14.2 34.8-20.2 10-3.1 13 9.8 22.1 10 4.8 4 9.8 7.9 14 12.6-4.8 4.3-9.1 9.2-13.9 13.5-19.7 3.1-40-4-59.8-4.7-17.8 6-38.1.8-55.8 8.1-8.3 2.9-20.5 4.8-24.6 13.4 6.6 8.9 21.7-2.4 29.6 5.5 2.5 2.2 4.5 5.6 8 6 30.1 2 58.9-8.2 88.6-10.2 4.6-1.2 8.6-4 11-8.1 10-3.7 18.7-10.6 29.8-11.1 15.9.6 17.2-17.9 27.8-25.3 9.1-5.3 8.9 12 16.8 5.9 1.2-.7 2.5-1.7 3.9-.7-2.3 3.5-5.7 6.2-7.6 10 16.6 3.5 34.8-6 50.4 1.5 2.3 1.6 9.9-.2 9.7 4.5-4.6 5.2-20.1-1.1-22.8 6.1l-.1.8c-18.4.3-36.2-3.1-53.8-7.7-7.2 6.7-16 10.5-25.6 12.1-10.3 2-18.4 9-27.1 14.4-10.3 7.6-23.8 2.6-35 7-10 5.8-22 4-32.6 7.3-1.7 4.3-6.7 11-1.2 14.4 6.5 5.7 16-4.4 21.9 1.9 4.1 2.4 9 2.5 13.3 4 6 1.3 10.5-5.6 16.6-6.1 2.4 5.1 9.8 3.1 14.4 4.8 4.8 4.1-1 6.9-3.3 10.1-19.7 2.2-39.7.6-59.5.9-8.3-4-14.5-14.1-24.7-11.5-7.9 1.1-15 6.2-23.2 5.1-2.6 1.6 2 6.4 4.9 6.3-59.3 1.9-118.6 1.2-177.9 1.5-26.13515-.92235-77.70835 4.23025-55.26401-.67984-8.50425-7.83934 4.9324-137.077908 4.59729-123.267829.16336-34.798198 20.53491-8.390605 47.66672-29.052331 15.8-10.2 35.6-11.6 48.9-25.1z" fill="#41302f" stroke="#41302f"/><path d="m-156.5895-49.4421c6-.1 10.7-5.8 16.9-3.3-4.4 7.7 1.5 16.2.9 24.2-5.1 13.2-7.3 28.4-15.1 40.2-7.2-2.5.7-14.7.4-19.9 6.6-11.3 2.2-21.5-2.5-32 0-3.1.4-6.2-.6-9.2z" fill="#4a322f" stroke="#4a322f"/><path d="m-139.6895-52.7421c10.9 2.1 20.3 10.1 31.9 9.3 17.8-1.7 34.3 6 51.1 10.5-.3 7.9-4.5 15.1-4.8 22.8-7.6 6.6-3.4 16.6.4 24 9.1 5.4 5.6-11.8-.5-13.6 7.7-4.9 5.4-14.8 11.2-21.1 1.4-2.8 3.9-8.3 6.8-3.6-.7 4.1-2.6 7.8-3.1 11.8 5.6 3.3 10.1-4 14.8-6 7.6 11.1-3.5 24.3 1.1 36-10.9 1.8-23.5.1-30.9 10.3-19.2 10.1-44.9-.9-62.1 14.8-13.1 8.3-27.8 14.8-41.2 20.8-7.9 1.9-15.1 6.1-23.3 6.8-17.3.7-32.7 12.2-50.6 7.6-2.9-7.6-11.9-10.5-14.8-18 4.1-5.8 12.9-3.3 17-9 1.2-2 3.2-1.8 5.1-1-5.9 3.9-3.8 9.5 2.8 10.6 11.3-15.7 24.1-31.2 28.2-50.5 13-11.6 20.7-27.4 18.8-45.2 3.4-8.8-3.3-3.8-6-2.2-5-1.7-11.4 2-9.6 7.5-6.8 2.1-9.8-4.4-14-7.6-6.3 1.8-4.9-5.8-2-7.4 18.8 2.7 37.4-3.2 56.3-2.2.2 2.4.6 4.8 1.1 7.1 4.7 10.5 9.1 20.7 2.5 32 .3 5.2-7.6 17.4-.4 19.9 7.8-11.8 10-27 15.1-40.2.6-8-5.3-16.5-.9-24.2z" fill="#bc4b38" stroke="#bc4b38"/><path d="m-215.8895-47.2421c19.8 2 39.5-1.8 59.3-2.2 1 3 .6 6.1.6 9.2-.5-2.3-.9-4.7-1.1-7.1-18.9-1-37.5 4.9-56.3 2.2-2.9 1.6-4.3 9.2 2 7.4 4.2 3.2 7.2 9.7 14 7.6-1.8-5.5 4.6-9.2 9.6-7.5-3.4 7-13.4 8.8-15.1 17.1-.9 8.9-4.5 17.3-8.8 25.2-8.6 9.8-13.6 27-28.1 28.7-12.1 3.9-23.4 11.4-36.3 11.9l-4.8-2.4c4.6-5.4.5-13.7 4.8-19.5 9.1-13.2 21.3-23.5 33.1-34 7.7-12.5 19.3-26.9 27.1-36.6z" fill="#aa4236" stroke="#aa4236"/><path d="m352.2105-31.4421c.6-5.4-3.1-19 6.4-17.4 2.5 5.1 3.4 10.8 4.8 16.3 4.8-.5 9.8-1.6 13.9 1.7 8.1-3.7 16 2.9 23.3 6 12.4 1.6 24.5-3 34.8-9.5 8.8-3.3 3.9 2.9 1.2 4.3-10.3 10.8-30.9 17-26.8 36.2-6.6 9.2-7.6 21.4-14.8 30.2-9.4-.8-19-1.4-28.5-.5-3 .8.8 3.3 1.8 4.6 4.7 6.2-7.3 5-11 3.2-5.6 6.7-14.4 4.5-21.5 8-1.5 0-2.9.1-4.4.2-7.1 2.7-7.8-6.7-14.1-6.2-5.2-.7-10.2-2.7-15.2-4.2 2.7-4.7 7.8-8.4 7.7-14.3 3.6-8.3-2.1-4.3-2.3-1.3-1.2 5.3-8.9.4-11.6 4.4-3.5 3.4 7 9.7-.8 9.6-1.7-.6-3.2-1.4-4.8-2.2-4.4-9.4-10.1-19.3-18.6-25.8-.1-8.8 8.7-1.5 12.6.7 6.6-1.7 13.4-9.6 6.8-15.9-11.2-10.1 5.7-20.5 13.2-26.8 3.6 1.8 10.3 2.7 9.9 7.5-6.1 5.8-15.6 13.9-10.8 23.1 6.9 4 8.8-9.3 14.7-11 5.7-6.2 13.1-1.3 12 6.2 8.3.9 11.6 14.7 20.2 9.8-2.2-6-9.1-10.4-7.7-17.5 2.1-7.3 13-10.1 9.6-19.4z" fill="#5d3431" stroke="#5d3431"/><path d="m-231.7895-45.2421c4.2 1.4-4.4 11.8-5.5 16.4-6.2 6.8-17.7 12-25.5 8.4 11.5-6.5 20.4-16.9 31-24.8z" fill="#8d3b35" stroke="#8d3b35"/><path d="m175.2105-20.5421c-1.8-9.2 5.6-18.9 13.7-22.1-1.1 4.8.3 13.5 2.7 4.9-.4 7.5-1.1 15-2.1 22.5.1-7.1-12.6 1.4-14.3-5.3z" fill="#a1483c" stroke="#a1483c"/><path d="m-187.7895-37.6421c2.7-1.6 9.4-6.6 6 2.2 1.9 17.8-5.8 33.6-18.8 45.2-4.1 19.3-16.9 34.8-28.2 50.5-6.6-1.1-8.7-6.7-2.8-10.6 11.8-11.9 21.8-27.5 19.9-45 4.3-7.9 7.9-16.3 8.8-25.2 1.7-8.3 11.7-10.1 15.1-17.1z" fill="#442f2e" stroke="#442f2e"/><path d="m449.1105-25.4421c2.8-4-2.1-11 2-13.2 7 5.1 14.2 9.9 21 15.1 3.3 9.6 17 13.9 26 10.1 6.3 2.3 6 10.7 4.2 16 4.8.7 9.7.7 14.5 1.2 2 4.3 14.1 5.6 9.2 11.7-5.7-1.8-9.3-.1-8.9 6.8-7.8 4.3-15.9 8.4-24.9 9.6 6.7 9.8 20 11.9 31 15-.8 2.1-3.5 1.6-5.3 2.1-7.4-1.5-15.5 1.8-22.5-1.4-2.9-11.1-18.9-7-25-15.1-3.7-5.1-7.2-11.9-14.7-10.5-12.4-3.1-13.7-18.7-24.6-24.5 2.3-9 13.8 0 18.7 1.8 1.4-4.6 4.5-8.6 5-13.5-5.2-1.7-10.3-5.7-5.7-11.2z" fill="#5e3433" stroke="#5e3433"/><path d="m-61.4895-10.1421c.3-7.7 4.5-14.9 4.8-22.8 4.4 2.6 13.6 1.9 13.1 8.5-2.9-4.7-5.4.8-6.8 3.6-5.8 6.3-3.5 16.2-11.2 21.1 6.1 1.8 9.6 19 .5 13.6-3.8-7.4-8-17.4-.4-24z" fill="#743e35" stroke="#743e35"/><path d="m472.1105-23.5421c7.6 7.9 18.1 8.5 27.4 2.9 9.9 1.8 19.9 2.9 29.5 5.9 7.3 4.2 15.8 4.9 23.5 8 7.6 5.3 15 10.9 23.2 15.3-2.9.5-5.7 1-8.4-.2-12.7-9.7-28.8-8.5-43.1-2.8-2.8 1.8-4.5-2.3-7.4-1.8-4.8-.5-9.7-.5-14.5-1.2 1.8-5.3 2.1-13.7-4.2-16-9 3.8-22.7-.5-26-10.1z" fill="#c55a49" stroke="#c55a49"/><path d="m-274.3895-7.1421c3 .9 12.7-2.9 12.3 1.4-10.2 12.4-24.6 22.7-30 38-8.2.1-15.1 6.4-23.5 4.9-7.6 2.9-16.2 6.2-24.3 3.1 12.1-8 24-17.2 37.1-23.7 12.8-2.6 20.9-14 28.4-23.7z" fill="#963c35" stroke="#963c35"/><path d="m126.5105.7579c2.3-1.2 3.5-1.2 1.6 1.3-6.7 15.1-23.4 19.1-33.1 31.5-13.7-5.4-26.2 5.1-39.9 4.9-9.6 0-15.2 9.4-21.1 15.8-10.6 7.4-11.9 25.9-27.8 25.3-11.1.5-19.8 7.4-29.8 11.1-3.5.5-6.9 1.2-10.4 1.8 4.5-4 9.1-7.8 13.4-11.8 4.8-4.3 9.1-9.2 13.9-13.5 15.2-15 32.5-27.4 49.5-40 28.4-7.1 57.5-12.5 83.7-26.4z" fill="#fdfcfa" stroke="#fdfcfa"/><path d="m95.0105 33.5579c9.7-12.4 26.4-16.4 33.1-31.5 5.9 9.3 13.8 17.3 19 26.9-6.3-.3-10.8-5.5-16.9-6.5-1.6 13.5 14 19 21.3 27.8 3.4 3 7.5 4.8 12.1 4.3.8.8 1.6 1.6 2.4 2.5 3 8.9-13.5 3.7-18.8 4.5-6-1.4-12.3-14.3-15.1-4.1-13.5 4.8-18-18.1-31.5-18.6-7.1 5.6 4.8 15.6 3.7 23.8-14.2-2.5-29.2-3.7-42.5-9.8-3.9-1.5-4.8 4.6-7.1 6.6-1.4-1-2.7 0-3.9.7-7.9 6.1-7.7-11.2-16.8-5.9 5.9-6.4 11.5-15.8 21.1-15.8 13.7.2 26.2-10.3 39.9-4.9z" fill="#563939" stroke="#563939"/><path d="m-239.7895 33.3579c14.5-1.7 19.5-18.9 28.1-28.7 1.9 17.5-8.1 33.1-19.9 45-1.9-.8-3.9-1-5.1 1-4.1 5.7-12.9 3.2-17 9 2.9 7.5 11.9 10.4 14.8 18-6.3-9-18.9-13.8-24-22.3 9.3 9.6 20.4-7.5 25.3-14.6 2.6-2.6 2.7-8-2.2-7.4z" fill="#733c38" stroke="#733c38"/><path d="m563.9105 17.9579c-2.7-4.2-3.4-10.1 3.4-9.6 2.7 1.2 5.5.7 8.4.2 20.1 4.8 40.1 12.4 52.7 29.9 6.66026 6.860255 6.39966 13.902045 10.09894 14.201326-8.27487 29.242542 7.3009 77.358884-3.00026 90.897874-28.9.6-61.99868-2.2992-90.99868-1.6992-14.8.1-29.9-1.4-44.6.4-5.3.5-10.5-.7-15.7-.1-2-1.4-8.1-4.4 1.7-2.9 21.3-6 41.6-16.8 64.1-17 15.2.3 29.8-7 44.9-3.4 5-.3 11.6 3.3 15.9.1 4.4-1.2 4.2-7.9 9.1-8.6 3.5 4.1 9.2 4.5 14.3 4.2-.2-4.4 1.2-9.4-1.9-13.1.4-1.3-22.5-16.9 1-3.8 5.2-8.6-53.79576-32.298143-12.09576-24.198143 8.5 2.5 7.39576-8.301857 9.79576-13.601857-9-2.8-18.6-6.2-27.8-2.4-16.8 9.3-32.1-9.9-50-3.9-.4-1.5-3.3-3.9-.9-4.9 8.3-4 18-7.2 27.1-7.3 6.1 4 10.6-2.2 7.3-7.8 3.6-14-12.8-16.7-22.8-15.6z" fill="#573735" stroke="#573735"/><path d="m487.6105 11.0579c8.7-.2 17.9 1.6 26.7-.6-5.6 4.7-5.3 14.7-14.7 13.5-7.8 1.8-16.4 4.8-22.2-2.5-7.7-7 5.9-6.6 10.2-10.4z" fill="#c74f3a" stroke="#c74f3a"/><path d="m333.7105 15.0579c3.5-.4-2.2 10.1 3.5 12.4 5 5.6 15.3 4.8 18.7 10-6.9 1.5-15.6 2.7-22.8 6-5.8 0-10.7-3.8-15.9-6.1.6-3.7 4.2-6.7 2.9-10.9.4-7.2 10.2-6.4 13.6-11.4z" fill="#ba4a3a" stroke="#ba4a3a"/><path d="m130.2105 22.4579c6.1 1 10.6 6.2 16.9 6.5 5.7.9 11.5.6 17.3.6 6.4 4.5 11.6-2.3 17.8-3.1 14 .3 29.7 4.4 42.4-3.5 7.1-2 14.1 3.3 21.1 4.1 11.4 3 24.5-3 34.5 4.7 3 2.5 6.5 4.4 10.1 5.9 1.6.8 3.1 1.6 4.8 2.2 2.2.5 4.6 1.1 7 1.6 5 1.5 10 3.5 15.2 4.2-1.7 6.8-17.8 1.5-24.7.5-27.6-9.3-55.6 16.8-82.9 3.9-15.3 1.3-30.9 1.8-46.1 4.5-4.6.5-8.7-1.3-12.1-4.3-7.3-8.8-22.9-14.3-21.3-27.8z" fill="#fdfdfb" stroke="#fdfdfb"/><path d="m307.5105 25.8579c.2-3 5.9-7 2.3 1.3.1 5.9-5 9.6-7.7 14.3-2.4-.5-4.8-1.1-7-1.6 7.8.1-2.7-6.2.8-9.6 2.7-4 10.4.9 11.6-4.4z" fill="#b54c3c" stroke="#b54c3c"/><path d="m492.2105 31.8579c9-1.2 17.1-5.3 24.9-9.6 12.3 2.4 20.4 14.2 32.6 16.8 1.9 1.5 10.6 2 7.9 5.8-5.8 1.6-11.7 2.9-17.6 4 4.2 2 8.6 3.8 13.2 4.7 17.9-6 33.2 13.2 50 3.9 9.2-3.8 22.8-1.2 31.8 1.6-2.4 5.3 5.1 28.1-3.4 25.6-22.2-6-48.9-7.9-71.5-8-8.5-5.4-15.5 4.2-24 4.8-8.4-.2-14.7 5.3-23 5 5.1-2 5.8-9 11.2-10.8 7.6-.8 25-2 19.6-13.8-11.6-.3-22.8-5.8-34.9-4.6 7.3-4.7 21.6 5 23.3-6.5-4.9.1-9.6-.8-14.4-1.8 1.8-.5 4.5 0 5.3-2.1-11-3.1-24.3-5.2-31-15z" fill="#d25b42" stroke="#d25b42"/><path d="m-239.7895 33.3579c4.9-.6 4.8 4.8 2.2 7.4-4.9 7.1-16 24.2-25.3 14.6-4-3.8-8.5-7-13.2-10.1 12.9-.5 24.2-8 36.3-11.9z" fill="#403030" stroke="#403030"/><path d="m366.5105 35.8579c9.5-.9 19.1-.3 28.5.5 4.7-1.6 27.6 12.5 15.6 1 1.9-5.5 11 1.1 14.6 3.2 23.1 5.3 46.5 5.8 70.2 7 7 3.2 15.1-.1 22.5 1.4 4.8 1 9.5 1.9 14.4 1.8-1.7 11.5-16 1.8-23.3 6.5-20.2 4.5-40.9 6.2-61.4 5.8-15.4-6.1-32.7-3-48.8-5.2-7.5-3.9-11.8-12.4-20-15.2-3.5-1-10.3 1-13.7.2-1-1.3-1.6-6.2 1.4-7z" fill="#fdfcf9" stroke="#fdfcf9"/><path d="m100.6105 38.8579c13.5.5 18 23.4 31.5 18.6 2.8-10.2 9.1 2.7 15.1 4.1 11.5 5.8 24.2 3.2 36.2 6.3-6.9-.1-14 2.6-19.2 6.9 1.4 3.8 1.5 7.8 2.8 11.6-2 2.3-7.8.5-7.8 4.1 1.5 2.4 4.3 4.2 3.8 7.4-4.7-1.5-8.7-19.7-12.3-9.3-4.5 2.4-2.2-5.3-4.4-8-1.8-7.5-10.4-11.5-17.4-10.3-8-3.3-15.9-6.7-24.6-7.6 1.1-8.2-10.8-18.2-3.7-23.8z" fill="#ba5442" stroke="#ba5442"/><path d="m384.6105 49.1579c-62.8388 6.3322-4.774-6.9732 24 13.5 4.6 10.5-14.7 37.5-19.6 32.9-8-4-16.8-18.8-17.6-11.7-4.5 11.7-18.7 9.2-25.6 17.5-17.1-5.7-20 16.4-34.8 17.9-5.9-.2-3.8 11 2.2 7.4 16.5 4.5 28.2-8.7 43.3-10.6 8.1.5 16.7 1.4 23.9-3.2 9.5.1 19 2.8 28.6 1.6 2.4-.1 5.5-.4 2.5 1.9 3.9.3 5.4 2.3 3.6 5.9-4.6 10.9-17.6 4.1-23.3 11-16.7-1.8-34.4.7-48.9 9.3-37.4 1.8-74.9.8-112.4.9-2.1-5.4-7.6-10.4-13.6-10.7 6.5 2.4 11.6-.6 16.4-4.2 12.9 5.9 27.2-1.6 40.1 4-2-8.6-13.1-3.4-17.6-9.6-8.4-9.7-22.6-5.1-32.5-10.7 1.4-8.9 10.3-29.3-1.4-38.3 8.5631-21.2183 25.3498-13.9429 47.5-19.2 7.5 4.5 22.2 13.6 28.8 18.8 14.4-5.6 33.3-28.6 47.8-33.8 5.9-3.4-10.2 16.8-10.2 11.9 17.0429-3.3323 34.3498-18.6856 48.8-2.5z" fill="#6c3936" stroke="#6c3936"/><path d="m-317.3895 49.8579c12.4-1.1 24.1-6.3 36.5-7l4.8 2.4c4.7 3.1 9.2 6.3 13.2 10.1 5.1 8.5 17.7 13.3 24 22.3 5.2 9.1 17.2 10 23.3 16.9-20.9-5.7-43.2-9.1-59.3-24.9-7.4 1.4-17-.8-22.2 5.6-5.2 5.2-12.7 12.7-20.7 9.4-2.9-5-5.1-10.7-8.9-15.2.8-7.2 7.3-12.6 9.3-19.6z" fill="#fcfcfb" stroke="#fcfcfb"/><path d="m378.8105 42.6579c8.2 2.8 12.5 11.3 20 15.2 16.1 2.2 33.4-.9 48.8 5.2 20.5.4 41.2-1.3 61.4-5.8 12.1-1.2 23.3 4.3 34.9 4.6 5.4 11.8-12 13-19.6 13.8-5.4 1.8-6.1 8.8-11.2 10.8-16.2 2.1-35.2 7.9-48.9-4-4.1-.4-2.9 4.1-1.7 6.3-13.5-2.8-27.4-12.8-42.4-14-7.3-.3-14-3.1-21.1-4.1-14.7-15.1-44.1-13-62-19.9 13.7-.9 34.1-2.6 47.6-1.6-1-3-6-3.1-5.8-6.5z" fill="#e86e4d" stroke="#e86e4d"/><path d="m209.7105 50.0579c27.3 12.9 55.3-13.2 82.9-3.9-4.4 7.5-14.4 3.1-21.3 4.7-13.4 3.1-27.4 1.1-40.6 5.1-5.5 2.6-11.6 2.5-17.5 1.7-10.9 1.6-22.5 4.8-33.3 1.2-4.3-3-9.2-1.4-13.9-1.8-.8-.9-1.6-1.7-2.4-2.5 15.2-2.7 30.8-3.2 46.1-4.5z" fill="#d86a50" stroke="#d86a50"/><path d="m317.3105 45.6579c6.3-.5 7 8.9 14.1 6.2-34.8 5.5-70.6-.1-104.7 9.1-14.7-.6-29.6 2.3-43.3 6.9-12-3.1-24.7-.5-36.2-6.3 5.3-.8 21.8 4.4 18.8-4.5 4.7.4 9.6-1.2 13.9 1.8 10.8 3.6 22.4.4 33.3-1.2 5.9.8 12 .9 17.5-1.7 13.2-4 27.2-2 40.6-5.1 6.9-1.6 16.9 2.8 21.3-4.7 6.9 1 23 6.3 24.7-.5z" fill="#763e3d" stroke="#763e3d"/><path d="m331.4105 51.8579c1.5-.1 2.9-.2 4.4-.2 0 4.9 11.3 1.5 5.4 4.9-14.5 5.2-28.6 11.4-43 17-6.6-5.2-16.5-3.1-24-7.6-10 2.7-20.3 3.7-30.6 5-5.8 1.5-3.6 9.8-7.3 13.4-8.2 11.2-20.8 14.6-33.1 18.2-1.8 14-17.4 16.6-27.9 22.2 4.3-11.9-6.1-18.9-12.3-26.9.5-3.2-2.3-5-3.8-7.4 0-3.6 5.8-1.8 7.8-4.1-1.3-3.8-1.4-7.8-2.8-11.6 5.2-4.3 12.3-7 19.2-6.9 13.7-4.6 28.6-7.5 43.3-6.9 34.1-9.2 69.9-3.6 104.7-9.1z" fill="#e16746" stroke="#e16746"/><path d="m54.7105 59.4579c2.3-2 3.2-8.1 7.1-6.6 13.3 6.1 28.3 7.3 42.5 9.8 8.7.9 16.6 4.3 24.6 7.6 2.4 2.1 11.8 1.6 9.1 5.1-16.2 9.9-35.8 2.3-53.6 6.2 2.7-7.2 18.2-.9 22.8-6.1.2-4.7-7.4-2.9-9.7-4.5-15.6-7.5-33.8 2-50.4-1.5 1.9-3.8 5.3-6.5 7.6-10z" fill="#faf9f7" stroke="#faf9f7"/><path d="m128.9105 70.2579c7-1.2 15.6 2.8 17.4 10.3 2.2 2.7-.1 10.4 4.4 8-.7 3.3-1.2 6.7-2.3 10-6.7-3.8-3.1 10.7-10 9.3-9.4-.4-16.6 4.5-26.3 4.6-2.8 1.5-12.6 5.5-12.1-.8 10.3-3.2 21.1-5.3 31.4-8.6-11.4-2.7-21.9-9.5-33.8-9.4-4.3-4.8-14.9-2.5-13.3-11.3l.1-.8c17.8-3.9 37.4 3.7 53.6-6.2 2.7-3.5-6.7-3-9.1-5.1z" fill="#884942" stroke="#884942"/><path d="m-348.4895 70.7579c7.5.6 15.5 2.8 22.6 6.1-4.6 8.3.7 20.5-8.9 25.3-5.2-2.1-8.9 7.7-13.5 4-3.8-5.6-4.3-12.8-9.3-17.9.2-6.4 5-12.7 9.1-17.5z" fill="#8a3d36" stroke="#8a3d36"/><path d="m399.0105 70.6579c7.1 1 13.8 3.8 21.1 4.1 15 1.2 28.9 11.2 42.4 14 5.2-1 .2 6.2 3.6 8.8-5.3 2-10-1.4-14.7-3.2-22.8-8.5-50.6-2.2-70.2-18.8-4.7-2.9-6.8 5.8-9.8 8.3.8-7.1 7.2-15.5 15.2-11.5 4.9 4.6 17 8.8 12.4-1.7z" fill="#873f3a" stroke="#873f3a"/><path d="m4.9105 86.7579c9.6-1.6 18.4-5.4 25.6-12.1 17.6 4.6 35.4 8 53.8 7.7-1.6 8.8 9 6.5 13.3 11.3-20.1 3-41.2-7.3-59.5 5.6-11-4.2-23.4-5.8-33.2-12.5z" fill="#e26c4a" stroke="#e26c4a"/><path d="m371.4105 83.8579c3-2.5 5.1-11.2 9.8-8.3 19.6 16.6 47.4 10.3 70.2 18.8 4.7 1.8 9.4 5.2 14.7 3.2 5.3-2.1 10.4 2.5 15.4 3.6-22.6-.1-37.1 18.9-57.2 25.8-3.7.3-8.1-.6-9.2-4.7 1.8-3.6.3-5.6-3.6-5.9 3-2.3-.1-2-2.5-1.9 2.3-.6 8.7-.2 4.8-2.5-14.2-4-27.2-12.8-42.4-12.2-8.5.9-17 2.3-25.6 1.6 6.9-8.3 21.1-5.8 25.6-17.5z" fill="#e9714c" stroke="#e9714c"/><path d="m536.1105 81.4579c8.5-.6 15.5-10.2 24-4.8 7 4.3 18.5 2.6 21.3 11.6-6.9 2.1-13.9-2.5-20.9-2.9-13.1-5.1-22.5 7.9-35 7.5-7.6 1.5-16.3.7-23 5-2.9 3.5.7 10.9-3.2 13.3-12.1-3.3-16.9 10.1-26.6 14.1-7.1 7.2-18.6 11.5-27.1 5.9-4.7-4.5-24.4 6.4-21.3-4.2 20.1-6.9 34.6-25.9 57.2-25.8-5-1.1-10.1-5.7-15.4-3.6-3.4-2.6 1.6-9.8-3.6-8.8-1.2-2.2-2.4-6.7 1.7-6.3 13.7 11.9 32.7 6.1 48.9 4 8.3.3 14.6-5.2 23-5z" fill="#4b3130" stroke="#4b3130"/><path d="m-80.3895 75.9579c19.8.7 40.1 7.8 59.8 4.7-4.3 4-8.9 7.8-13.4 11.8 3.5-.6 6.9-1.3 10.4-1.8-2.4 4.1-6.4 6.9-11 8.1-29.7 2-58.5 12.2-88.6 10.2-3.5-.4-5.5-3.8-8-6-7.9-7.9-23 3.4-29.6-5.5 4.1-8.6 16.3-10.5 24.6-13.4 17.7-7.3 38-2.1 55.8-8.1z" fill="#b74b37" stroke="#b74b37"/><path d="m560.1105 76.6579c22.6.1 46.1-1.2 68.3 4.8-7.3 7.1 10.1 7.6 4.9 16.2-10.5-3.8-21.9-4.3-32-9.2-3.3-.3-9.1-4.2-10.9.2-3-.2-6.1-.4-9-.4-2.8-9-14.3-7.3-21.3-11.6z" fill="#90463c" stroke="#90463c"/><path d="m150.7105 88.5579c3.6-10.4 7.6 7.8 12.3 9.3 6.2 8 16.6 15 12.3 26.9-11.9 4.2-26.7-.6-36 10.3-2.4 2.1-4.1 4.7-6.2 6.9-1.5-5.4-6-15 1.3-17.3 3.7-3 17.7-5.8 11-11.3-5-4.2 2.5-9.7 3-14.8 1.1-3.3 1.6-6.7 2.3-10z" fill="#fdfcfa" stroke="#fdfcfa"/><path d="m203.2105 102.5579c12.3-3.6 24.9-7 33.1-18.2 11.7 9 30.8 15.8 29.4 24.7 9.9 5.6-18.3 4.2-9.9 13.9 4.5 6.2 15.6 1 17.6 9.6-12.9-5.6-16 5.9-28.9 0-4.8 3.6-21.1 2.6-27.6.2-7.3 1.4-13.1-3.2-19.5-5.1-6.4-.6-21.9 8.3-22.1-2.9 10.5-5.6 26.1-8.2 27.9-22.2z" fill="#4a3231" stroke="#4a3231"/><path d="m-22.1895 101.1579c8.7-5.4 16.8-12.4 27.1-14.4 9.8 6.7 22.2 8.3 33.2 12.5 1.5.4 3 1 4.3 2.1 1.2 1.9 5.9 3.2 4.2 5.6-9.9 1.6-21.1 3.4-29.9-2.9-14.4-1.1-30-4-42.7 4.4-10.2 7.9-23.7 9.3-33.7 17.3-1.4 4.4 2.9 6.4 3.9 10-4.3-1.5-9.2-1.6-13.3-4-5.9-6.3-15.4 3.8-21.9-1.9-5.5-3.4-.5-10.1 1.2-14.4 10.6-3.3 22.6-1.5 32.6-7.3 11.2-4.4 24.7.6 35-7z" fill="#ba513c" stroke="#ba513c"/><path d="m590.4105 88.6579c1.8-4.4 7.6-.5 10.9-.2 10.1 4.9 21.5 5.4 32 9.2-.3 1.3-.6 2.5-1 3.8-3.1 4.4-7.1 8-12.4 8.9-4.9.7-4.7 7.4-9.1 8.6-11.9-5.4-33.6 2.1-39.7-12.4 14.6-.1 28.9 3.9 43.5 4.8-7.7-3.5-16.3-4.6-24.4-7 .9-6.1 8-11 .2-15.7z" fill="#fcfaf6" stroke="#fcfaf6"/><path d="m554.6105 89.9579c8.7-2.2 17.9 16.7 7.8 20.8-4.2 1.4-4.4 11.5-9.2 5.8-5.1-7.6-8.1-15.9-19-13.1 2.8-7.2 12.2-12.9 20.4-13.5z" fill="#46302e" stroke="#46302e"/><path d="m38.1105 99.2579c18.3-12.9 39.4-2.6 59.5-5.6 11.9-.1 22.4 6.7 33.8 9.4-10.3 3.3-21.1 5.4-31.4 8.6-11.4-.3-19.9-12.1-31.8-9.1-8.6 2.4-17.2-.8-25.8-1.2-1.3-1.1-2.8-1.7-4.3-2.1z" fill="#fdfbf9" stroke="#fdfbf9"/><path d="m-259.5895 95.2579c19.9 1 39.6 10.1 60 9.6 12.9 4.1 25.9 1.8 38.7 5.7 8.1 5.2 16.9-2.9 24.5 1.6 5.9 7.9 17.8 1.9 21.6 10.3-17.7 3.6-35.3 6.1-53 3.1-7 3.5-11.7-7.4-17.7-3.7-12.3 11.7-31.1 5.4-46.3 4.6-.5-7 8.1-7.2 12.9-9.2 1.6-6.6-9.4-7.2-13.6-5.3-6.8 2.1-29.1-4.1-21.4 8.4-11.2 2.5-24.8 5.1-33.9-3.8-3.5-4-13.5-4.3-15.1 2 3.1 4.1 7 8.3 8.2 13-16.1-.9-31.6-6.9-48.1-6.2 5.2-4.7 14.1-9 21.6-12.3 21.4-3.2 40.2-13.1 61.6-17.8z" fill="#863b35" stroke="#863b35"/><path d="m138.4105 107.8579c6.9 1.4 3.3-13.1 10-9.3-.5 5.1-8 10.6-3 14.8 6.7 5.5-7.3 8.3-11 11.3-18.2 3.3-37-1.9-55.2-.6-12.2-2.4-24.4-.2-36.5 1-11.9 2.5-22.5-7-34.3-3.3-16.6 3-33.9-3.6-50 3 .7 1.6 1.6 3.2 2.4 4.9-6.1.5-10.6 7.4-16.6 6.1-1-3.6-5.3-5.6-3.9-10 10-8 6.7-3.8 16.9-11.7 12.7-8.4 36.3-15.1 50.7-14 8.8 6.3 28.8 8.5 38.7 6.9 1.7-2.4-3-3.7-4.2-5.6 8.6.4 17.2 3.6 25.8 1.2 11.9-3 20.4 8.8 31.8 9.1-.5 6.3 9.3 2.3 12.1.8 9.7-.1 16.9-5 26.3-4.6z" fill="#dc6648" stroke="#dc6648"/><path d="m345.8105 101.3579c8.6.7 17.1-.7 25.6-1.6 15.2-.6 28.2 8.2 42.4 12.2 3.9 2.3-2.5 1.9-4.8 2.5-9.6 1.2-19.1-1.5-28.6-1.6-7.2 4.6-15.8 3.7-23.9 3.2-15.1 1.9-26.8 15.1-43.3 10.6-6 3.6-8.1-7.6-2.2-7.4 14.8-1.5 17.7-23.6 34.8-17.9z" fill="#fcfaf9" stroke="#fcfaf9"/><path d="m619.9105 110.3579c5.3-.9 9.3-4.5 12.4-8.9 3.1 3.7 1.7 8.7 1.9 13.1-5.1.3-10.8-.1-14.3-4.2z" fill="#cc6851" stroke="#cc6851"/><path d="m8.4105 121.7579c11.8-3.7 22.4 5.8 34.3 3.3 12.1-1.2 24.3-3.4 36.5-1 1.6 10-10 2.1-15 5.5-7.6 4.3-18.1 1.3-24.9 5.3 0 1.9-.6 3.3-2.7 2.3-20.1-6.9-41.1-3-61.4-2.7-4.6-1.7-12 .3-14.4-4.8-.8-1.7-1.7-3.3-2.4-4.9 16.1-6.6 33.4 0 50-3z" fill="#fdfbf9" stroke="#fdfbf9"/><path d="m79.2105 124.0579c18.2-1.3 37 3.9 55.2.6-7.3 2.3-2.8 11.9-1.3 17.3 2.1-2.2 3.8-4.8 6.2-6.9 2.5 2.8-7 6.7-2.2 7.5 2.8.8-1 1.6-2.1 1.5-35.3 1-70.7.5-106 .3 6.7-3.1 17.8 2.9 20.2-6.8 4-5.8-6.5-2-9.9-2.7 6.8-4 17.3-1 24.9-5.3 5-3.4 16.6 4.5 15-5.5z" fill="#ac5144" stroke="#ac5144"/><path d="m139.3105 135.0579c9.3-10.9 24.1-6.1 36-10.3.2 11.2 15.7 2.3 22.1 2.9 6.4 1.9 12.2 6.5 19.5 5.1 6 .3 11.5 5.3 13.6 10.7-31.9-.4-63.7.7-95.5.6 1.1.1 4.9-.7 2.1-1.5-4.8-.8 4.7-4.7 2.2-7.5z" fill="#d46648" stroke="#d46648"/><path d="m-24.7895 134.4579c20.3-.3 41.3-4.2 61.4 2.7 2.1 1 2.7-.4 2.7-2.3 3.4.7 13.9-3.1 9.9 2.7-2.4 9.7-13.5 3.7-20.2 6.8-19.1 0-38.1.7-57.1.2 2.3-3.2 8.1-6 3.3-10.1z" fill="#d7694e" stroke="#d7694e"/><path d="m-112.2895 133.9579c10.2-2.6 16.4 7.5 24.7 11.5-14.3 1.1-28.6 1.1-43-.1-2.9.1-7.5-4.7-4.9-6.3 8.2 1.1 15.3-4 23.2-5.1z" fill="#83423b" stroke="#83423b"/><path d="m499.9105 142.2579c14.7-1.8 29.8-.3 44.6-.4-14.7 1.8-29.8.3-44.6.4z" fill="#c6c783" stroke="#c6c783"/></g><g fill="#fff"><path d="m241.59999-386.49999-12.1541 6.03923-1.52436 12.85256-11.30718-7.50615-11.89282 5.10615.84693-13.54538-10.36847-7.74641 12.15411-6.03923 1.52435-12.85256 11.30718 7.50614 11.89283-5.10614-.84693 13.54538z" transform="matrix(.8793104 0 0 .9060671 39.558619 55.869489)"/><g fill-rule="evenodd"><path d="m241.59999-386.49999-12.1541 6.03923-1.52436 12.85256-11.30718-7.50615-11.89282 5.10615.84693-13.54538-10.36847-7.74641 12.15411-6.03923 1.52435-12.85256 11.30718 7.50614 11.89283-5.10614-.84693 13.54538z" transform="matrix(.8793104 0 0 .9060671 38.85975 -19.857108)"/><path d="m241.59999-386.49999-12.1541 6.03923-1.52436 12.85256-11.30718-7.50615-11.89282 5.10615.84693-13.54538-10.36847-7.74641 12.15411-6.03923 1.52435-12.85256 11.30718 7.50614 11.89283-5.10614-.84693 13.54538z" transform="matrix(.8632706 .1671846 -.1722719 .8895392 56.16631 28.402076)"/><path d="m241.59999-386.49999-12.1541 6.03923-1.52436 12.85256-11.30718-7.50615-11.89282 5.10615.84693-13.54538-10.36847-7.74641 12.15411-6.03923 1.52435-12.85256 11.30718 7.50614 11.89283-5.10614-.84693 13.54538z" transform="matrix(.8659627 .1526281 -.1572724 .8923133 111.01164 -90.539942)"/></g></g></g><g stroke="#85340a" stroke-miterlimit="79.8403" transform="matrix(1.2685628 0 0 -1.2574501 19.903165 371.468208)"><path d="m117.355 57.541-3.544 16.663-.803-1.111c-2.837-4.88-3.077-10.821-9.754-12.074 4.018 7.733 2.531 9.356 2.973 14.513l.024.076-12.367-7.26 7.314 11.022-1.811-.12c-3.544-.105-5.752.316-12.095-3.198 1.186 7.493 8.46 7.102 13.454 11.232l.015.015-16.728 3.559 15.888 3.372-.338.256c-4.881 3.234-11.158 3.445-12.27 10.361 6.346-3.515 8.568-3.093 12.097-3.192l2.208-.157-7.742 11.864 12.33-7.411-.068 1.719c-.007 3.538.45 5.745-2.884 12.179 6.886-1.292 6.932-7.569 10.047-12.539l.36-.518 3.694 17.397 3.769-17.727.587.848c3.116 4.964 3.147 11.24 10.047 12.539-3.357-6.45-2.884-8.641-2.891-12.179l-.06-1.547 12.028 7.239-7.741-11.878h.045c5.144.592 6.803-.857 14.432 3.363-1.105-6.916-7.389-7.127-12.277-10.361l-.367-.271 15.753-3.357-16.632-3.535.029-.039c4.994-4.13 12.262-3.739 13.463-11.232-6.351 3.514-8.559 3.093-12.096 3.198l-1.937.135 7.328-11.037-12.058 7.073.09-2.209c.007-3.542-.459-5.744 2.891-12.186-6.683 1.246-6.924 7.187-9.762 12.074l-1.029 1.419z" fill="#f6b40e" stroke-linecap="round" stroke-linejoin="round" stroke-width=".786"/><g fill="none"><g fill="none" stroke-width=".749"><path d="m113.181 89.184c-1.668-2.567 1.892-2.891 2.087-1.096"/><path d="m121.523 89.184c1.659-2.567-1.871-2.891-2.057-1.096"/><path d="m115.238 88.088c.735-2.027 3.574-2.178 4.228 0"/></g><g fill="none" stroke-width=".749"><path d="m104.411 97.158c6.442 5.728 15.024 2.424 10.677-7.463"/><path d="m130.302 97.158c-6.435 5.728-15.026 2.424-10.685-7.463"/></g><path d="m106.543 95.041c2.531 1.907 4.889 2.102 6.976-.09-2.298-2.043-4.934-1.396-6.976.09z" stroke-width=".344"/><path d="m109.173 96.089c.567.553 1.49.553 2.057 0 .568-.553.568-1.452 0-2.005-.567-.553-1.49-.553-2.057 0-.568.553-.568 1.452 0 2.005z" fill="#85340a" stroke-width=".186"/><path d="m104.966 95.115c6.547 4.942 7.268.924 9.83.232" fill="none" stroke-width=".749"/><path d="m106.243 94.027c2.553-1.577 5.21-1.742 8.072.082" fill="none" stroke-width=".344"/><path d="m128.183 95.041c-2.524 1.907-4.857 2.102-6.938-.09 2.276-2.043 4.91-1.396 6.938.09z" stroke-width=".344"/><path d="m125.661 96.089c-.567.553-1.49.553-2.057 0-.568-.553-.568-1.452 0-2.005.567-.553 1.49-.553 2.057 0 .568.553.568 1.452 0 2.005z" fill="#85340a" stroke-width=".186"/><g fill="none"><path d="m129.798 95.115c-6.556 4.942-7.299.924-9.837.232" stroke-width=".749"/><path d="m128.499 94.027c-2.569-1.577-5.204-1.742-8.073.082" stroke-width=".344"/><g stroke-width=".704"><path d="m112.16 82.87c3.191-1.42 6.6-1.578 10.4 0" stroke-linecap="round"/><path d="m112.265 82.974h10.189"/></g></g></g></g><g fill-rule="evenodd"><path d="m73.831298 237.04174 12.42817 6.49362 5.704731-12.17552c3.085091 9.74041 6.238824 19.48082 10.390761 29.22124l-7.538393-1.6234-10.879984 4.76843c-3.917237-8.5905-7.204723-18.09387-10.105285-26.68437z" fill="#5b103e"/><path d="m244.36206 229.93936 6.31596 13.79892 12.02068-8.11701c-2.54979 9.13164-5.33243 19.72386-8.90327 28.85549l-11.87826-6.93956-6.72343 3.38866c5.19375-12.45765 6.54685-21.60323 9.16832-30.9865z" fill="#5b103e"/><path d="m234.99001 260.784 18.94785 8.72579 4.21187-4.66728-16.21033-7.3459z" fill="#2b0000" stroke="#000" stroke-width=".228749"/><path d="m102.15122 260.37816-18.94786 8.72578-4.604533-4.26143 16.42148-6.29068z" stroke="#000" stroke-width=".228749"/><path d="m78.476581 265.14689c32.846989 90.45943 137.102249 102.29565 179.882449.18264l-15.58614-7.12268c-39.01871 88.67059-120.03768 72.49619-148.160064.91316z" fill="#5b103e"/></g><g fill-rule="evenodd" transform="matrix(.22920802 0 0 .2282909 167.95939 155.22483)"><path d="m73.026823 895.9106c27.582027 12.44233 69.951537 18.60597 76.035907 40.17595-6.08287 19.16756-12.16575 38.01995-18.24862 42.18483 3.12246-9.20596-1.23434-16.29495-10.13812-22.09677-10.02057-10.13174-36.260965-18.6565-63.132858-27.11877z" fill="#74acdf"/><path d="m89.892965 912.80281c23.966725 10.70871 50.938495 21.95879 56.773485 29.40151l-5.80637 17.25737c-.87047-14.98308-38.3845-23.91572-58.063791-35.79312z" fill="#fff"/><path d="m17.743112 1048.6297c16.958436 8.8436 29.985271 14.9701 11.891092 30.2567-14.990046 12.6639 20.970608 35.1005 84.236736 58.5872l-7.09668-27.4841 21.29006-10.2266-50.321951-19.8141c-14.099668-13.2506 10.983125-15.7863-5.161233-31.9582l-36.128579-18.5358z" fill="#74acdf"/><path d="m22.259186 1042.2381c9.571681 3.9266 12.247247 8.4151 25.160979 15.3399 7.182565 13.2946-7.244367 20.4724-7.741845 30.0408 2.743135 11.0789 44.199285 22.1577 68.38624 33.2365l-2.58061-11.505 7.09668-3.8349-52.257404-19.1749c-11.149159-9.9799 21.474544-26.2348-.645151-35.7932l-32.257665-18.5358z" fill="#fff"/><path d="m-11.628093 1050.0703c-59.28291 20.7208-7.510521 51.639-31.829605 58.164-19.504875 16.48-38.283507 23.3389-60.290942 35.154l5.657751-27.4841-16.973261-10.2265 40.118624-19.8142c11.634902-12.9767-8.668486-14.5735 4.114737-29.4015-1.11861-1.3121 26.54996-20.3259 33.372626-24.9274l4.174293 9.5874z" fill="#74acdf"/><path d="m-18.454253 1045.5962c-37.356628 14.9727-38.181824 21.4758-29.231178 47.9373 8.979852 9.4985-32.957517 25.9796-52.332009 37.0715l2.702521-15.9792-10.043011-5.1132 40.64187-15.3399c14.391974-8.8702-9.926276-34.5137 7.462401-39.6282l29.58799-17.8967z" fill="#fff"/><path d="m-90.064 894.1522c-21.98947 12.44233-57.70356 23.08011-62.55426 44.65018 4.8495 19.16755 11.63447 33.54581 16.48397 37.71068-2.48934-9.20605.98407-16.29494 8.08251-22.09676 11.50035-7.33691 16.82488-12.77585 38.477079-18.53575l26.693427-6.02645z" fill="#74acdf"/><path d="m-67.976265 916.15774c4.79843 9.1563 4.475494 11.54757 4.245545 14.06161l-23.921325 3.83504c3.856007-6.23281 10.343111-15.06675 19.67578-17.89665z" fill="#4982b9"/><path d="m-122.02664 947.47681c-1.8497 20.44672 74.471242 45.73713 105.416046 67.75139-5.370861 5.2393-4.541214 21.4755-4.890699 34.5148-34.29897-17.8733-110.159267-49.544-119.573787-79.25639-12.68849-41.20719 13.48162-13.56243 19.04844-23.0098z" fill="#74acdf"/><path d="m-95.123356 911.04441c5.830393-9.29138-42.519004 16.09369-56.874804 31.31907l6.56453 18.53575c5.73598-18.9794 50.578747-33.74092 54.677716-36.4324 6.502398.85301-3.13593-9.67817-4.367442-13.42242z" fill="#fff"/><path d="m-132.31347 952.59005c5.1239 24.95241 88.577689 48.18065 116.104211 71.58645l.000009 15.9791c-29.392424-23.8528-106.37288-51.87377-122.79065-77.3389z" fill="#fff"/><g transform="matrix(.8870857 0 0 .8788505 -86.7803 -336.3241)"><path d="m77.818183 1534.9545c12.591678-2.1962 24.296617-5.2791 44.363637 0 5.23823 14.4481 5.41116 30.1624 2.90909 46.5455-16.61012 5.1756-33.141319 11.0615-51.636367-.7273-3.40139-20.938-3.80734-38.3813 4.36364-45.8182z" fill="#74acdf"/><path d="m93.818181 1533.5c5.57576-1.4574 8.242429-1.4136 12.363639-.7273 7.8192 21.3642 5.07123 37.4447 1.45454 53.0909-3.96439 1.6114-7.56168 3.5899-15.272729 1.4546-5.932978-20.3461-8.034658-39.2554 1.45455-53.8182z" fill="#fff"/></g><path d="m64.086835 914.7202c-7.031068 4.9003-6.705081 9.80059-7.096685 14.70089l28.386742 2.55657c-4.836702-6.23281-9.583817-14.42747-21.290057-17.25746z" fill="#4982b9"/><path d="m113.11848 949.23512c2.32013 20.44672-55.377412 43.18048-94.192371 65.19468 6.736822 5.2394 4.077703 22.1147 4.516074 35.1541 36.478774-22.4674 82.815377-48.2889 107.095437-69.24565 15.91553-41.20719-10.43651-21.65575-17.41914-31.10313z" fill="#74acdf"/><g transform="matrix(.8870857 0 0 .8788505 -86.7803 -336.3241)"><path d="m211.01298 1409.9675-13.71428 33.1429c-58.80788-43.8166-125.204237-49.8348-202.2857133-2.2857l-18.2857137-38.8572c20.7386976-58.3579 249.090107-62.5207 234.285707 8z" fill="#74acdf"/><path d="m-16.727272 1417.8636c21.2362974-54.7114 179.135392-66.7553 224.727272-5.0909l-6.54546 21.0909c-12.05653-18.1616-125.314218-80.9315-210.1818121-.7272z" fill="#fff"/></g><path d="m126.02155 954.34836c-6.42706 24.95241-67.406898 46.90234-101.934207 70.30804l-.000009 11.505c36.86776-23.8528 92.249136-49.70913 112.842426-75.17426z" fill="#fff"/></g><g fill="#f6b40e" stroke="#85340a" stroke-width=".09375" transform="matrix(.4643045 0 0 .446525 83.39516 264.57109)"><path d="m0 10.7c7.5-3.3 14.7-7 22.1-10.3 2 4.2 4.4 8.3 5.5 12.9 1.2 6-7.2 10.8-11.8 7-2.7-2.3-3.8-5.8-5.5-8.8-2.7 1.2-5.4 2.5-8.1 3.7-.7-1.2-1.5-2.4-2.2-3.6v-.9m14.2-1c.9 1.8 1.6 3.7 2.8 5.3 1.3 2.3 5.7 1.6 5.8-1.2.2-2.5-1.3-4.7-2.1-7-2.3.7-4.4 1.7-6.5 2.9z"/><path d="m346.3.5c1.5.8 3.4 1.4 4 3.1 2.7 5.2 5.1 10.5 7.9 15.6 1.9-3.6 3.6-7.3 5.1-11 1.2.2 2.5.5 3.7.7v1.3c-3 5-5.1 10.5-7.6 15.8-1.5-.9-3.5-1.3-4.3-3-2.8-5-5-10.3-7.8-15.2-1.6 3.1-3 6.2-4.5 9.3-.9-.7-2.4-.9-2.9-2.1 1.7-5 4.3-9.6 6.4-14.5z"/><path d="m9.3 33.7c6.6-4.9 13.7-9 20.6-13.6 2.7 4.4 5.8 8.6 7.8 13.4 1.7 4.5-3.1 9.3-7.6 8.5-1.6-.4-2.9-1.4-4.3-2.2-.7 4.4-2.7 8.4-4.8 12.2-1-1.6-2.5-3.1-2.9-5 1.3-4.9 5.9-9.8 2.7-14.9-3 1.7-5.9 3.6-8.8 5.4-.9-1.2-1.8-2.5-2.7-3.8m14.6-3.7c2 2.6 3.5 8.6 7.8 6.9 3.6-3.1-1.1-7.3-2.7-10.2-1.7 1-3.4 2.1-5.1 3.3z"/><path d="m336.4 22.9c.8-1.3 1.6-2.5 2.4-3.8 4.5 2.9 9.1 5.5 13.5 8.6 7.6 5-1 19-8.9 15-5-2.5-9.5-5.7-14.1-8.6.9-1.1 1.2-2.9 2.7-3.5 4.5 2.5 8.6 5.8 13.4 8 3 1.2 6.1-2.4 5.5-5.4-.8-1.8-2.7-2.8-4.3-3.9-3.4-2.1-6.8-4.2-10.2-6.4z"/><path d="m324.9 41.9c2.5-2.8 7.2-1.9 9.2 1 1.4 1.7.9 4.1 1 6.1 3.9-.8 7.9-.7 11.9-.7-1 1.5-1.8 3.2-3.2 4.5-4.4.9-11-1.5-13.1 3.9 2.5 1.4 5 2.8 7.3 4.5.3 1.4-1 2.6-1.4 3.8-2.8-.8-5-2.6-7.5-4.1-3.9-2.6-8-4.9-11.9-7.7 2.6-3.7 4.7-7.9 7.7-11.3m1.9 3.9c-1.7 1.7-2.8 3.8-3.9 5.9 1.6 1 3.2 1.9 4.9 2.8 1.2-2.2 2.6-4.2 3.5-6.5.7-2.5-3-4-4.5-2.2z"/><path d="m35.3 46.3c9-2.9 17.4 8.3 13.6 16.5-2.1 4.2-6.3 7.3-10.9 8.3-8.7 1.8-16.3-8.9-12.6-16.7 1.9-4 5.8-6.8 9.9-8.1m1 4.9c-3.5 1.6-7.4 4.5-7.2 8.7 0 3.9 4 7.3 7.9 6.3 3.5-1.1 6.9-3.7 8.1-7.3 1.2-4.8-4.2-9.8-8.8-7.7z"/><path d="m308.8 72.3c-2.8-7.2 5.5-15.9 12.8-12.4-.5 1.3-1.1 2.6-1.7 3.9-2.5-.3-5.7-.2-6.8 2.5-2.2 4 1.8 7.7 4.9 9.6 2.4 1.9 6.3 1.6 8-1.2 1.3-2.1-.1-4.4-.7-6.4 1.2-.7 2.5-1.5 3.7-2.2 3.8 5 1.2 12.3-4.3 14.6-6.5 2.7-13.6-2.4-15.9-8.4z"/><path d="m42.9 84c3.8-7.7 7.8-15.4 11.9-22.9 1.1 1.3 2.7 2.4 3.3 4-2.4 5.6-6 10.7-8.4 16.4 5.9-2 11.3-5.1 17-7.4l3.3 3.9c-7.9 3.5-15.8 6.9-23.9 10.2-1-1.4-2.6-2.5-3.2-4.2z"/><path d="m73.3 79.8c1.3 1 2.8 1.7 3.6 3.2-5 6.4-10.6 12.4-15.9 18.6-1.2-1.1-2.4-2.2-3.6-3.4 5.3-6.1 10.7-12.2 15.9-18.4z"/><path d="m289.2 85.8c1.2-1.1 2.1-2.7 3.7-3.2 7.4 3 14.6 6.1 21.9 9.3-1 1.1-2 2.2-3.1 3.1-1.9-.1-3.5-1.3-5.3-1.7-2.2 1.9-4.2 4-6.3 6 .6 1.8 1.8 3.5 1.8 5.5-.9 1-1.9 1.9-3 2.8-3.4-7.2-6.4-14.6-9.7-21.8m5.7 2.2c1 2.7 2.2 5.2 3.4 7.8 1.4-1.4 2.8-2.7 4.2-4.1-2.4-1.5-4.9-2.7-7.6-3.7z"/><path d="m80.3 87.2c1.2 1 2.5 2 3.7 3-.8 6.3-1.7 12.5-2.5 18.8 4-3.5 6.4-8.6 10.4-12 1.2.7 2.2 1.5 3.3 2.3-4.7 6.8-10.3 13.1-15.4 19.6-1.3-1.1-2.5-2.1-3.8-3.2.7-6 1.8-12 2.2-18.1-3.6 3.5-6.5 7.6-9.6 11.5-1.3-.7-2.5-1.6-3.7-2.4 4.7-6.8 10.3-13 15.4-19.5z"/><path d="m271 100.4c5-3.4 9.5-7.5 14.7-10.5.5 1 1.1 2 1.6 3-1.6 1.3-3.3 2.6-5 4 3.6 5 7.6 9.8 11 14.9-1.3.6-3.1 3.4-4.4 1.4-3.5-4.5-6.8-9-10.1-13.6-1.7 1.1-3.3 2.3-5 3.3-1.6.3-2-1.6-2.8-2.5z"/><path d="m265 104.4c1.2-.2 3.1-2.1 3.9-.4 3.3 6.3 7.3 12.2 10.2 18.7-1.3.6-2.6 1.3-4.1 1.7-4.8-2.3-9.3-5.4-14.3-7.5 1.7 4.2 4.7 7.8 6.3 12-.7 1.3-2.4 1.4-3.5 2-3.3-6.6-7.7-12.8-10.7-19.6 1.4-.5 2.6-1.5 4.1-1.5 4.9 2.3 9.3 5.5 14.4 7.5-1.7-4.5-5.4-8.1-6.3-12.9z"/><path d="m97.4 105.6c7.3-2 15.5 5.1 13.5 12.7-1.6-.3-3.2-.8-4.7-1.2-.3-1.8 0-3.7-1.2-5.2-1.8-2.3-5.7-2.9-8-.8s-4.1 5-4.8 8.1c-.9 3.3 2.1 7.1 5.6 6.7 1.5-.4 2.8-1.3 4.2-1.8 1.6.6 2.3 2.4 3.3 3.6-2.2 1.4-4.5 3.2-7.3 2.9-6.2-.2-11.8-6.2-10.6-12.5.9-5.4 4.6-10.9 10-12.5z"/><path d="m117.2 114.2c1.3.7 2.6 1.3 3.8 2 .5 1.4-.7 2.5-1.1 3.8-3.1 6.2-6.1 12.5-9.2 18.8-1.3-1-3.7-1-4.1-2.8 3.4-7.3 7-14.5 10.6-21.8z"/><path d="m236.4 118c1.5-.7 3-1.5 4.6-2 6.5 5.9 12.8 12 19 18.1-1.6.6-3.1 2.2-4.9 2-1.4-1.1-2.7-2.5-4.1-3.8-2.9 1.4-5.8 2.8-8.7 4.1.1 1.9.3 3.7.3 5.6-.9 1.6-3.1 1.8-4.5 2.8-.7-9-1.4-17.9-1.7-26.8m4.7 4.7c.1 3.1.4 6.2.8 9.3 2-.9 3.9-1.9 5.8-2.9-2-2.3-4.2-4.5-6.6-6.4z"/><path d="m128.3 122.4c.9-.9 1.5-2.2 2.8-2.7 1.5.4 3.1.9 4.6 1.5.5 8.8 1.3 17.6 1.7 26.5-1.6-.4-3.3-.9-4.9-1.3-.2-2.1-.3-4.2-.5-6.3-3.1-1-6.1-2-9.2-2.9-1.2 1.5-2.5 3.1-3.7 4.7-1.6-.6-3.2-1.1-4.8-1.7 4.6-6 9.4-11.8 14-17.8m-2.6 11.3c2.1.7 4.1 1.3 6.1 2-.1-3.2-.3-6.4-.3-9.7-2.2 2.4-4.2 4.9-5.8 7.7z"/><path d="m213.6 127.6c2.6-2.8 6.7-4 10.4-3.8 2.9.3 5 2.7 6.1 5.2-1.4.5-2.7 1-4.1 1.5-1.1-.8-2-1.8-3.2-2.3-2.2-.4-4.1.9-5.9 1.9l.4 2.8c3.8 1.1 7.8.1 11.6 1.1 5.2 1.4 6.6 9 2.5 12.4-3.2 2.6-7.7 3.9-11.7 2.9-2.7-.7-4.3-3.3-5.6-5.5 1.4-.7 2.9-1.3 4.4-1.9 1.5 2 3.7 4.2 6.4 3.1 2.7-.3 5.5-3.8 2.9-6-4-1.1-8.4.4-12.2-1.5-3.5-1.8-4.6-6.9-2-9.9z"/><path d="m157.9 127.1c4.6.7 9.4.6 13.8 2.1 4.9 2.1 6.2 8 5.6 12.8-.2 5-2.8 10.9-8.3 11.8-4.6.5-9.2-.7-13.8-1 .9-8.6 1.7-17.1 2.7-25.7m4.5 4.9c-.5 5.7-1.3 11.4-1.7 17.1 3.2 0 7.7 1.7 9.9-1.6 1.7-3.4 2.1-7.6 1.3-11.4-1.4-3.8-6.2-3.6-9.5-4.1z"/><path d="m180.5 130c5.9 0 11.7-.4 17.5-.4.9 1.2.5 2.7.8 4-4.4.2-8.8.3-13.3.4 0 1.8.1 3.6.1 5.4 4.1 0 8.2-.2 12.3-.3 0 1.4.1 2.7.1 4.1-4 .1-8 .3-12 .2-.2 2.3-.2 4.5-.1 6.8 4.6-.1 9.2-.4 13.8-.1v3.8c-6.2.3-12.4.4-18.7.5-.1-8.2-.5-16.3-.5-24.4z"/></g></svg>