<svg height="1130.876" width="1175.3751" xmlns="http://www.w3.org/2000/svg"><g stroke="#000"><g fill-rule="evenodd" transform="translate(224.60754 186.3864)"><path d="m301.71843 729.49029c1.64986 70.94033 22.27678 141.8099 72.96696 197.07604 45.73286-53.56583 70.38911-121.72457 77.13529-197.31822z" fill="#ea1c24"/><path d="m402.10609 732.03934c19.68834 68.17349 57.7081 131.43854 120.81731 171.94859 30.55867-63.45831 37.01591-135.6514 24.25914-210.46571z" fill="#eac102"/><path d="m483.2919 721.05669c34.23597 62.15425 85.26986 115.4788 155.75821 141.07624 15.81402-68.63457 6.19377-140.47464-22.74554-210.63465z" fill="#ea1c24"/><path d="m547.13922 694.72329c46.89698 53.25343 108.27803 94.24532 182.63947 103.95175.5576-70.43066-24.40905-138.47628-67.87102-200.69341z" fill="#eac102"/><path d="m615.79154 651.39835c57.8065 41.15411 126.91887 67.06645 201.53421 59.55744-15.52021-68.70159-55.34803-129.25974-111.85441-179.92471z" fill="#ea1c24"/><path d="m661.20991 597.23238c63.22381 32.21804 135.3924 47.69915 208.09584 29.3131-25.44186-65.67724-73.73174-119.72933-137.06636-161.54607z" fill="#eac102"/><path d="m707.49487 533.08989c69.19813 15.71213 142.95877 13.0037 208.92423-22.6669-40.78573-57.4222-100.86668-97.96631-172.52847-122.95622z" fill="#ea1c24"/><path d="m730.28928 466.73101c70.92662 2.16049 142.80126-14.63253 200.70864-62.28307-51.03372-48.54223-117.77067-76.82157-192.89322-87.61577z" fill="#eac102"/><path d="m743.79944 389.27317c69.8768-12.34855 136.8166-43.44564 183.79007-101.90357-59.86024-37.11521-130.96167-51.19107-206.70682-46.43916z" fill="#ea1c24"/><path d="m737.68757 318.13195c66.28458-25.32998 126.14237-68.51579 161.22342-134.7967-65.79514-25.1354-138.27543-25.52236-211.75812-6.54327zm-387.91296 416.14675c-19.68834 68.17349-57.7081 131.43854-120.81731 171.94859-30.55867-63.45831-37.01591-135.6514-24.25914-210.46571z" fill="#eac102"/><path d="m275.51637 721.73458c-32.8142 62.91646-82.62271 117.38736-152.51095 144.58055-17.37016-68.25733-9.38551-140.29753 17.95141-211.09727z" fill="#ea1c24"/><path d="m204.74148 696.96265c-46.89698 53.25343-108.278032 94.24532-182.639466 103.95175-.557608-70.43066 24.409044-138.47628 67.871014-200.69341z" fill="#eac102"/><path d="m141.46747 655.10629c-56.856029 42.45756-125.361482 69.9343-200.128243 64.12342 13.95444-69.03665 52.3953357-130.48453 107.73538-182.42094z" fill="#ea1c24"/><path d="m89.551114 601.7111c-63.223814 32.21804-135.392399 47.69915-208.095844 29.3131 25.441857-65.67724 73.731742-119.72933 137.066358-161.54607z" fill="#eac102"/><path d="m47.098396 538.91304c-68.82308 17.28112-142.62623 16.25016-209.385526-17.91167 39.46984-58.33453 98.613591-100.23394 169.688798-126.84645z" fill="#ea1c24"/><path d="m18.028194 470.68967c-70.92662 2.16049-142.801264-14.63253-200.708644-62.28307 51.03372-48.54223 117.770674-76.82157 192.893224-87.61577z" fill="#eac102"/><path d="m7.5338914 395.95878c-70.1394524-10.75688-137.7688814-40.32423-186.0591014-97.69922 59.00104-38.46639 129.764123-54.15493 205.597739-51.12613z" fill="#ea1c24"/><path d="m8.2547055 321.29888c-66.2845805-25.32998-126.1423655-68.51579-161.2234155-134.7967 65.795135-25.1354 138.275425-25.52236 211.758115-6.54327z" fill="#eac102"/><path d="m27.596279 247.76093c-59.494807-38.67326-108.959558-93.45652-129.353499-165.622478 69.604312-10.771568 140.552572 4.057055 208.41775 38.030998z" fill="#ea1c24"/><path d="m57.169034 180.90656c-50.4316926-49.91891-87.77908-113.583184-93.138129-188.3837149 70.343578 3.5453066 136.819615 32.4326429 196.399825 79.4444609z" fill="#eac102"/><path d="m720.37334 241.56968c58.60028-40.01573 106.80689-95.90929 125.55504-168.520199-69.83118-9.186495-140.42402 7.251121-207.49935 42.759029z" fill="#ea1c24"/><path d="m687.16121 176.83796c49.60792-50.73763 85.90832-115.004644 90.0424-189.882866-70.27613 4.6961366-136.27047 34.667609-195.07327 82.648272z" fill="#eac102"/><path d="m638.7677 116.37173c37.62269-60.164658 59.3546-130.703244 47.39584-204.735846-67.65023 19.60187-125.71758 62.980723-172.91186 122.416519z" fill="#ea1c24"/><path d="m583.22465 70.791133c26.64796-65.7657934 35.85019-139.000255 11.26524-209.848113-63.23956 31.0088-112.92766 83.77844-149.129 150.482086z" fill="#eac102"/><path d="m106.33476 120.74022c-38.980651-59.293857-62.310476-129.3201868-52.037756-203.605516 68.078346 18.058955 127.116806 60.10658 175.650006 118.454172z" fill="#ea1c24"/><path d="m158.75896 72.374598c-26.64796-65.7657929-35.85019-139.000255-11.26524-209.848108 63.23956 31.0088 112.92766 83.778435 149.129 150.482081z" fill="#eac102"/><path d="m517.28564 34.728336c14.50605-69.46098 10.51494-143.163346-26.29777-208.498356-56.70405 41.77845-96.19687 102.555575-119.93642 174.64126727z" fill="#ea1c24"/><path d="m226.87217 34.728336c-14.50605-69.46098-10.51494-143.163346 26.29777-208.498356 56.70405 41.77845 96.19687 102.555575 119.93642 174.64126727z" fill="#ea1c24"/><path d="m445.90737 11.635011c-1.86574-70.934988-22.70826-141.741461-73.56643-196.853031-45.5696 53.70473-70.0183 121.938177-76.53438 197.552026l150.10081-.698995z" fill="#eac102"/></g><path d="m737.14285 386.94717a354.28571 354.28571 0 1 1 -708.571408 0 354.28571 354.28571 0 1 1 708.571408 0z" fill="#e6e6e6" stroke-width="2.874807" transform="matrix(1.04356 0 0 1.03732 199.294188 156.018547)"/><path d="m737.14285 386.94717a354.28571 354.28571 0 1 1 -708.571408 0 354.28571 354.28571 0 1 1 708.571408 0z" fill="#008f4c" stroke-width="2.085966" transform="matrix(.95879 0 0 .95879 231.414674 187.009295)"/><g fill-rule="evenodd" transform="translate(224.60754 186.3864)"><path d="m405.19754 6.0016724c-18.90421-36.7302824-42.45898-38.7870134-63.35816.368361m63.35816 729.2025966c-18.90421 36.73028-42.45898 38.78701-63.35816-.36836" fill="#e6e6e6" stroke-width="3"/><path d="m279.15752 45.557952 99.70812 9.206501c24.98594 5.169519 15.56036 23.659073 7.18242 24.604576l-172.27926 18.942623c-92.73434 15.515438-88.51481 99.553468.25671 112.349808l261.25415-1.66879c60.03492.98308 50.63913 49.52975-3.46031 46.72591l-257.79384 6.67513c-108.30481 8.95024-162.535096 79.65447-156.48453 170.32189 19.008132 100.29357 130.35377 196.53129 249.91317 213.49808 56.50286 18.15299 12.68495 47.27744-10.74931 56.17489 63.52232 14.85958 150.83497 13.9171 240.96034-32.27175 56.13988-33.8998 108.72759-81.60049 140.26646-145.91958-2.83169-32.31299-72.1437-83.88914-119.60431-79.90625l-255.34971-4.02967c-53.89257-14.73608-46.53406-67.79094 12.11111-73.42641l267.46085-9.3206c48.7125-10.19692 87.50313-42.5872 95.15878-105.13328-7.96294-63.83832-46.47834-101.57976-121.11119-108.47087l-306.2383 6.67514c-44.85402-4.86139-20.2249-30.13179 6.92063-30.03809l160.90489-10.01271c46.37395-6.84101 50.55893-30.662777 34.60319-54.12504-22.0233-16.812188-40.79241-18.437274-61.18861-23.574867-37.49508-3.006287-77.81656 2.654975-112.44145 12.723359z" fill="#0071bc" stroke-width="1.5"/></g></g></svg>