<svg height="236.26891mm" viewBox="0 0 200.05401 236.26891" width="200.054mm" xmlns="http://www.w3.org/2000/svg"><g stroke="#000" transform="translate(-5.134238 -15.737952)"><path d="m397.46094 61.132812-18.09766 33.972657s-50.36328 14.644531-59.98828 19.644531-6.625 18.75-6.625 18.75l18 29.25-27.25 17.75-25.5-26.5-75-24s8.5 7.75 16.25 17.5 10.5 45.5 10.5 45.5-.75 10.5-10 5.75-25 8.5-25 8.5-22.5-19.25-40.25-26.5-34 10.75-34 10.75l-32.25 74.125s29.15146 19.81321 47.75 47.875-10.43555 85.5-10.43555 85.5l-44.81445-25.875v41.625s-1.5 2.74998 1.5 13.25c3 10.49998 48.91797 28.79102 48.91797 28.79102s2.08203 58.45915-9.16797 58.70898c-11.25.24998-46.5 35.375-46.5 35.375l1 30.375s1.634737-2.12883 25.69727 3.13477c24.06252 5.26359 40.30273 27.11523 43.30273 54.11523s-23.625 37.12499-34.5 43-42.410156-35.91211-42.410156-35.91211-2.121783 4.24251 22.626953 55.86133c24.748733 51.61878 84.941403 93.51562 84.941403 93.51562s5.21398-11.84457 13.34571-22.45117 45.96289 3.18164 45.96289 3.18164 2.47493-23.68679 17.67773-30.40429c15.20279-6.71755 28.63833 22.62771 31.82031 33.58789 3.18198 10.96013-23.68945 16.9707-23.68945 16.9707s7.42496 47.72809 15.20313 51.61719c7.77818 3.88909 47.73046-16.61719 47.73046-16.61719s.35253-27.57562 9.54493-32.87891c9.19239-5.30328 34.29455 12.0206 37.83007 20.50586 3.53554 8.48531-15.55664 21.21289-15.55664 21.21289s12.72885 17.32396 14.72266 42.56055c1.99381 25.23655-40.5 31.5-40.5 31.5l27 3.75c26.99998 3.74997 40.21094 33.73633 40.21094 33.73633s13.21093-29.98636 40.21094-33.73633l27-3.75s-42.49382-6.26345-40.5-31.5c1.99381-25.23659 14.72265-42.56055 14.72265-42.56055s-19.0922-12.72758-15.55664-21.21289c3.53552-8.48526 28.6377-25.80914 37.83008-20.50586 9.19241 5.30329 9.54492 32.87891 9.54492 32.87891s39.95232 20.50628 47.73047 16.61719c7.77819-3.8891 15.20312-51.61719 15.20312-51.61719s-26.87143-6.01057-23.68945-16.9707c3.18199-10.96018 16.6175-40.30544 31.82031-33.58789 15.20281 6.7175 17.67774 30.40429 17.67774 30.40429s37.83116-13.78824 45.96289-3.18164 13.3457 22.45117 13.3457 22.45117 60.19268-41.89684 84.94141-93.51562c24.74876-51.61882 22.62695-55.86133 22.62695-55.86133s-31.53513 41.78712-42.41015 35.91211c-10.87499-5.87501-37.5-16-34.5-43s19.24022-48.85164 43.30273-54.11523c24.06251-5.2636 25.69727-3.13477 25.69727-3.13477l1-30.375s-35.25001-35.12502-46.5-35.375c-11.25003-.24983-9.16797-58.70898-9.16797-58.70898s45.91797-18.29104 48.91797-28.79102c2.99999-10.50002 1.49999-13.25 1.5-13.25v-41.625l-44.81446 25.875s-29.03407-57.43821-10.43554-85.5c18.59852-28.06179 47.75-47.875 47.75-47.875l-32.25-74.125s-16.25002-18-34-10.75c-17.75003 7.25-40.25001 26.5-40.25 26.5 0 0-15.75003-13.25-25-8.5-9.25002 4.75-10.00001-5.75-10-5.75 0 0 2.75-35.75 10.5-45.5 7.74999-9.75 16.25-17.5 16.25-17.5l-75 24-25.5 26.5-27.25-17.75 18-29.25s3.00002-13.75-6.625-18.75c-9.62499-5-59.98829-19.644531-59.98829-19.644531z" fill="#ebc704" stroke-width=".999999" transform="scale(.26458333)"/><g fill="#0071bc"><path d="m44.416324 57.133463v30.564349c-1.946647-9.804038-3.431479-15.506119-12.832292-20.559792l5.754688-12.832292s3.869531-.628385 7.077604 2.827735z" stroke-width=".227"/><path d="m44.441954 95.508764v66.614676s-3.068339-12.23698-10.807401-13.22917-7.739062-.99219-7.739062-.99219 3.626141-3.84381 7.414688-4.45184c3.788545-.60804 3.788545-.60804 3.788545-.60804v-30.30837s5.799749-5.05139 7.34323-17.025066z" stroke-width=".227"/><path d="m299.49414 738.62891c19.44392 18.74793 20.94542 20.35134 14.19727 42.10547l13.08007-4.50782c13.08148-4.50776 26.78185-.88438 39.50977 4.59571 12.72794 5.48008 21.56697 18.03251 25.2793 33.76562 3.71229 15.73315-12.56055 30.16211-12.56055 30.16211l7 11c6.9998 11.00001-.25 23.5-.25 23.5l11.64453 55.89844.0664-9.49805.0664 9.49805 11.64454-55.89844s-7.2498-12.49999-.25-23.5l7-11s-16.27284-14.42896-12.56055-30.16211c3.71233-15.73311 12.55136-28.28554 25.27929-33.76562 12.72794-5.48009 26.4283-9.10347 39.50977-4.59571l13.08203 4.50782c-6.74816-21.75413-5.24858-23.35754 14.19531-42.10547 0 0-58.30276-6.41906-76.33398 14.44072-13.54199 15.66618-19.32572 24.00952-21.45603 25.87431-2.13032-1.86479-8.26762-10.38491-21.8096-26.05109-18.03121-20.85974-76.33398-14.26394-76.33398-14.26394z" stroke-width=".857953" transform="scale(.26458333)"/><path d="m75.583822 60.055463h19.503993c-6.020943-2.345462-7.502851-3.327171-6.729518-10.446245z" stroke-width=".227"/><path d="m397.35156 125.77734-.0215 1.03516c-.22597.78168-.66395 2.11062-1.52735 4.35547-1.76776 4.59619-8.75105 9.28083-12.72851 13.16992-3.9775 3.88909-6.57422 7.78711-7.82422 17.03711s9.99999 14.4375 11.625 15.8125c1.62497 1.375 2.06252 4.0625.5625 5.0625-1.49998 1-3.8125-.75-11.3125-4.4375-17.96319-8.48321-25.39755 5.60405-26.37305 18.76367-.79549 13.34664 9.45797 17.67717 19.00391 18.47266 9.54595.7955 19.93162-14.36133 21.80664-14.86133 1.87499-.5 1.4375.4375 2.3125 10.8125s-5.8125 16.125-5.8125 16.125h8.17188 4.45312 8.17188s-6.6875-5.75-5.8125-16.125c.87499-10.375.43751-11.3125 2.3125-10.8125 1.87502.5 12.26068 15.65683 21.80664 14.86133 32.82788-4.77287 17.21886-49.09701-7.36914-37.23633-7.49999 3.6875-9.81252 5.4375-11.3125 4.4375-1.50002-1-1.06248-3.6875.5625-5.0625 1.625-1.375 12.87504-6.5625 11.625-15.8125-1.24997-9.25-3.84672-13.14802-7.82422-17.03711-3.97747-3.88909-10.96076-8.57373-12.72852-13.16992-.8634-2.24485-1.30137-3.57379-1.52734-4.35547l-.0215-1.03516s-.003.13332-.10937.5586c-.10642-.42528-.10938-.5586-.10938-.5586z" stroke-width=".857953" transform="scale(.26458333)"/><g stroke-width=".227"><path d="m165.90676 57.133463v30.564349c1.94665-9.804038 3.43148-15.506119 12.83229-20.559792l-5.75469-12.832292s-3.86953-.628385-7.0776 2.827735z"/><path d="m165.88113 95.50876v66.61468s3.06834-12.23698 10.8074-13.22917 7.73906-.99219 7.73906-.99219-3.62614-3.84381-7.41469-4.45184c-3.78854-.60804-3.78854-.60804-3.78854-.60804v-30.30837s-5.79975-5.05139-7.34323-17.02507z"/><path d="m134.73926 60.055463h-19.50399c6.02094-2.345462 7.50285-3.327171 6.72952-10.446245z"/><path d="m165.90616 175.08802c-1.00647 13.99874-1.92751 18.29625-13.19609 19.71146l.7276 1.98437s6.41615-1.05833 9.65729 1.52136l3.24115 2.57968c6.25291-4.65493 8.38423-8.23304 12.55608-15.0123-.002-.001-10.12539.92634-12.98603-10.78457z"/><path d="m44.416926 175.08802c1.00647 13.99874 1.92751 18.29625 13.19609 19.71146l-.7276 1.98437s-6.41615-1.05833-9.65729 1.52136l-3.24115 2.57968c-6.25291-4.65493-8.38423-8.23304-12.55608-15.0123.002-.001 10.12539.92634 12.98603-10.78457z"/></g></g><path d="m78.911978 227.07864s-1.058333-1.19062-1.455208-4.00182-.396875-.52917-.396875-.52917-4.861719 1.2237-5.357813-.82682c-.496093-2.05052.06615-3.43958.06615-3.43958m-.000004 0c2.678782-6.08501 9.530268-2.94434 9.591146 1.32291v13.82448s.132292-2.97656-1.256771-4.69635c-1.389062-1.71979-1.190625-1.65365-1.190625-1.65365" fill="#ed1c24" stroke-width=".264583"/><g stroke-width=".227"><path d="m105.16154 16.174723c-7.058261 13.407322-22.099256 9.841992-23.254397 17.51831-.258381 1.937867-.413411 2.945556.05168 4.444175.465087 1.498616 2.971395 4.909259 2.971395 4.909259l-4.083796 2.976615s-4.416978-6.568127-6.742417-8.118419c-2.244693-1.583911-5.839083-3.475322-7.636369-1.035039-.712544 1.023141-.417576 1.558409-.417576 1.558409 5.510338 1.983098 9.631408 7.177149 12.402944 12.655944l.511569 1.096221 11.650051-8.784915c-3.403294-3.711156-6.56766-4.563766-6.717935-10.063985 1.118374-8.308872 13.936435.06171 8.24239 4.625041-2.067057 1.44694-2.299602 1.627809-2.299602 1.627809s10.774533-1.808676 12.686563-9.353436c1.91203-7.544758 2.58382-11.007079 2.6355-14.055989z" fill="#eac102"/><path d="m105.16154 16.174723c-7.058261 13.407323-22.099254 9.841993-23.254396 17.51831-.0029.02138-.0054.03932-.0083.06046.900359-1.236459 1.95253-2.305143 3.221509-3.134177.343939-.318503.740989-.535086 1.170987-.665076.0051-.0024.0099-.0053.01498-.0078l.0011.0031c3.79553-1.12613 10.158934 4.538797 5.831686 8.006746-2.067057 1.446941-2.299602 1.62781-2.299602 1.62781s10.774536-1.808676 12.686566-9.353436c1.91203-7.544758 2.58382-11.007079 2.6355-14.055989z" fill="#ed1c24"/><path d="m46.201218 43.510906s4.640678-.38368 7.015827.127892c2.375148.511569 7.052365 2.192446 7.052365 2.192446s-4.786839-10.889147-8.733239-11.03531c-3.946404-.146161-5.590736.511572-5.883064 1.169305-.292325.657733-1.607793 2.667476-1.425088 3.617534.182703.95006 1.973199 3.928133 1.973199 3.928133z" fill="#ed1c24"/><path d="m46.201218 43.510906-1.548415.109622c-1.752185-3.510357-2.254115-6.526874.785627-8.998161 9.805576-7.287139 19.316935 9.440021 16.571232 19.896441l-.40195 1.388547c-3.726057-1.755086-6.583813-3.474117-9.062106 2.119365 0 0-9.75638-9.464056-14.945169-8.22167-5.188786 1.242385-7.161988 4.092564-7.161988 4.092564s-1.940713-4.56316-.04059-5.842087c1.8521-1.463723 5.025936-2.5043 7.458366-2.3065 4.275267.401947 7.783182 1.352007 10.742983 3.654076 2.959801 2.302065 3.544451 3.179045 3.544451 3.179045 2.026268-2.520333 3.138219-2.663031 6.394632-1.534713.977207-8.942551-3.757905-14.918009-7.659253-15.504525-4.100523-.61646-7.92094 1.895766-4.677818 7.967996z" fill="#eac102"/><path d="m31.06247 75.522192s-2.015381 2.170412-2.015381 5.632733v3.462319s-4.909262.15503-6.769614-.930174c-1.860351-1.085204-4.34082-3.720703-4.444173-4.599202-.103353-.878501-.413411-2.222087-.206705-4.185793.206705-1.963703 1.240234-3.048907 2.583821-3.513997 1.343587-.465087 10.852052 4.134114 10.852052 4.134114z" fill="#ed1c24"/><path d="m28.83545 94.15446s-.516765 6.17533-.335899 7.98401c.180869 1.80867-7.622273-4.625043-7.570596-6.795454.05168-2.170409.155029-4.392496 2.428792-4.392496s4.134115 1.085204 4.599202 1.705321c.46509.620117.878501 1.498619.878501 1.498619z" fill="#ed1c24"/><path d="m22.861933 68.556211c-2.967564-.111488-5.157219 1.903211-5.984648 3.78788-3.508938 9.227495 3.360118 13.835169 12.247314 13.694257l-.07751-1.421104c-2.321456.207431-5.81561-.105799-8.094302-2.221587-3.62689-3.367606-4.949693-9.391488 1.970646-9.793181 12.965239 3.160561 15.554412 21.05063 9.146727 30.799154 0 0-3.126422-1.44694-5.994465-3.20394-2.868042-1.756993-4.34082-4.082437-4.728393-5.761922-.541134-2.974153 2.170095-3.401968 4.056599-3.281453 1.653646.103349 3.486092 3.27215 3.486092 3.27215 1.106488-7.353583-9.877756-6.051447-10.229866-.84336-.665508 7.199445 7.900953 11.535135 15.528769 14.417725 0 0 1.808673-3.25562 2.842202-5.37435 5.052211-10.666982 2.669915-21.237557-4.444172-28.732094-2.415934-2.607805-6.065814-5.368661-9.724988-5.338175z" fill="#eac102"/><path d="m10.383421 128.1867 8.091585-5.31729 9.751998 5.86265-10.152655 5.32901z" fill="#ed1c24"/><path d="m20.859114 108.60368c-3.768073.0401-2.856017 4.11314-.75706 7.10964 2.069879 3.61574 11.57552 6.66626 11.57552 6.66626v2.99724l-5.064289-1.65365c-5.064293-1.65365-8.668722-5.37435-8.668722-5.37435l-1.563212 1.96371c-1.28174 1.61011-11.046354 8.30285-11.0463542 8.30285.0000002 0 9.7646142 6.69273 11.0463542 8.30285l1.563212 1.9637s3.604429-3.7207 8.668722-5.37434l5.064289-1.65365v2.99723s-9.505641 3.05052-11.57552 6.66626c-2.098958 2.9965-3.011013 7.06944.75706 7.10965.185315.002.381774-.006.590144-.0243 0 0 .767197-4.348 4.128947-6.10196 3.361749-1.75395 9.318279-4.12938 10.451042-4.23901 1.132761-.1097 1.077971-.0822 1.077971-.0822v-4.22972c.162886.2848.33601.66322.347782 1.2144.597609 2.49838 2.557626 4.2282 4.792472 4.2292 2.748078.00001 4.97586-2.58452 4.975923-5.77277-.000228-3.74622.167309-7.32869 0-10.01076-.000063-3.18824-2.227845-5.77278-4.975923-5.77278-2.234846.001-4.194863 1.73082-4.792472 4.2292-.01177.55119-.184896.92959-.347782 1.2144v-4.22972s.05479.0275-1.077971-.0822c-1.132763-.10963-7.089293-2.48507-10.451042-4.23902-3.36175-1.75396-4.128947-6.10195-4.128947-6.10195-.20837-.0181-.404829-.0263-.590144-.0243zm-2.771407 14.85956 2.53938 1.82728c2.452705 1.76452 6.609371 3.22486 6.896735 3.32486-.287364.1-4.444031 1.56033-6.896735 3.32486l-2.53938 1.82728-6.394959-5.15214zm24.131859.002c1.020024-.0001 1.849869 1.64253 1.860352 3.68247h.0011v1.10897.71831 1.10897h-.0011c-.01048 2.03994-.840328 3.68257-1.860352 3.68246-1.027443 0-1.860352-1.66581-1.860352-3.7207.000265-.0424.0011-.0848.0021-.12712v-.96997-.66559-.96997c-.0011-.0423-.0019-.0847-.0021-.12712 0-2.05489.832909-3.72071 1.860352-3.72071z" fill="#eac102"/><path d="m27.039843 154.61828-.654809 8.51254c-.01763.0607-4.472955.94295-6.2207-.74836-2.192941-2.12212-1.566868-2.64263-.748355-4.32642.818517-1.6838 1.566868-2.92326 3.484527-3.2039 1.917659-.28063 4.139337-.23386 4.139337-.23386z" fill="#ed1c24"/><path d="m27.880468 169.79635 4.365625 8.96276s-13.275233 1.72829-13.791406-2.87734c-.549995-4.90741.458465-4.11877 2.182813-6.08542 1.752391-1.99864 6.479789-1.33833 7.242968 0z" fill="#ed1c24"/><path d="m26.385034 163.13082-.08185 1.181s-4.162725 1.05822-6.150542-.0643c-1.987817-1.12253-3.250662-2.82972-3.274051-4.86431-.02339-2.03459.234771-4.09135 2.549083-5.94006 2.332101-1.86292 5.636046-2.362 8.676237-1.80073 9.334626 1.94226 15.11709 15.08605 11.459181 22.35709-3.452289 6.47267-11.625902 9.07122-18.287918 6.40779-3.040191-1.30962-4.747375-3.29744-5.07478-5.12155-.680667-3.77737 1.739314-7.04983 5.004622-7.67064 2.128134-.35079 5.964384.26301 5.964384.26301l.711068 1.91823c-3.633151-1.39359-10.131358-.25987-9.144661 4.05143.529166 1.98438 1.091406 2.94349 5.390885 4.06797 18.605575 3.19262 13.034321-22.14402 1.885159-22.50612-6.225466-.70576-8.471834 5.08839-5.175912 7.09414.975651.52916 2.185038 1.03913 5.549095.62705z" fill="#eac102"/><path d="m87.77552 232.5026 10.31875.92604s-3.042709 7.07761-5.291667 7.07761-4.828646.39687-5.291667-1.25677c-.46302-1.65365-1.653645-2.31511.264584-6.74688z" fill="#ea171e"/><path d="m53.304434 204.6732 6.594874 6.12716s.350793 4.34981-2.19829 5.2151c-2.549083.86528-2.946646 1.66041-5.612662.0234-2.666013-1.63702-3.718385-3.695-3.718385-4.58367s-.795129-1.96443.23386-3.60145c1.028988-1.63703 2.291836-3.08697 4.700603-3.18051z" fill="#ed1c24"/><path d="m74.351908 226.23516c2.994018-.76989 8.782948-4.64927 10.570512-4.67722l2.993416-.0468s-1.403165-5.3788-.187087-6.78197c3.199592-4.59525 9.64013.88111 8.418989 3.27406-1.54833 3.52488-5.661716 4.49811-5.659432 4.49012 8.406538 2.56022 6.104951 20.70033-1.683798 16.9783-1.590254-.93544-1.917658-2.71279-1.590254-4.67722.327406-1.96443.561266-2.29183.561266-2.29183l-1.403165-.18709s-1.498118 5.36652-.74503 7.3716c.939244 2.50072 2.496663 3.38298 4.767437 3.05859 7.294965-.40802 11.358188-9.6778 9.541523-14.68646-1.449937-3.97563-2.829716-4.98123-2.829716-4.98123-.0064.006 4.810661-3.22042 4.045801-6.85213-3.935647-10.66486-18.316725-8.50213-18.194384.0468 0 1.91766.04677 1.77734.04677 1.77734-8.597433 6.75381-12.40475 4.79815-11.318864-6.08038 11.945992-5.92291 5.565586-16.04052-4.911077-16.46381 0 0-2.712786-.18709-4.443357 2.01121-1.73057 2.19829-2.478923 4.67721-2.478923 4.67721-6.612132-.33654-12.608242-1.02768-13.786453 7.27975-.530706 14.29247 19.556139 9.16673 13.833223 1.32633m.000003.00003s-.280633 3.50791-1.543481 4.34981-4.084364 2.53575-6.688418.32741c-2.68999-2.28122-3.023144-5.70141-1.520097-8.25529.917783-1.55943 5.914815-3.04019 9.681839-.79512 3.748403 2.23397 3.926928 1.96129 3.926928 1.96129s-1.716112-7.97695 3.032437-8.12342c10.091275-.24752 6.276982 9.35347-.48142 9.64665 0 0 1.543481.23386 1.543481 5.19171-.388908 5.79644.305794 11.90086 6.501331 11.13178" fill="#eac102"/></g><path d="m131.4111 227.07864s1.05834-1.19062 1.45521-4.00182c.39688-2.8112.39688-.52917.39688-.52917s4.86172 1.2237 5.35781-.82682-.0662-3.43958-.0662-3.43958m0 0c-2.67878-6.08501-9.53026-2.94434-9.59114 1.32291v13.82448s-.13229-2.97656 1.25677-4.69635 1.19062-1.65365 1.19062-1.65365" fill="#ed1c24" stroke-width=".264583"/><g stroke-width=".227" transform="matrix(-1 0 0 1 210.32308 0)"><path d="m105.16154 16.174723c-7.058261 13.407322-22.099256 9.841992-23.254397 17.51831-.258381 1.937867-.413411 2.945556.05168 4.444175.465087 1.498616 2.971395 4.909259 2.971395 4.909259l-4.083796 2.976615s-4.416978-6.568127-6.742417-8.118419c-2.244693-1.583911-5.839083-3.475322-7.636369-1.035039-.712544 1.023141-.417576 1.558409-.417576 1.558409 5.510338 1.983098 9.631408 7.177149 12.402944 12.655944l.511569 1.096221 11.650051-8.784915c-3.403294-3.711156-6.56766-4.563766-6.717935-10.063985 1.118374-8.308872 13.936435.06171 8.24239 4.625041-2.067057 1.44694-2.299602 1.627809-2.299602 1.627809s10.774533-1.808676 12.686563-9.353436c1.91203-7.544758 2.58382-11.007079 2.6355-14.055989z" fill="#eac102"/><path d="m105.16154 16.174723c-7.058261 13.407323-22.099254 9.841993-23.254396 17.51831-.0029.02138-.0054.03932-.0083.06046.900359-1.236459 1.95253-2.305143 3.221509-3.134177.343939-.318503.740989-.535086 1.170987-.665076.0051-.0024.0099-.0053.01498-.0078l.0011.0031c3.79553-1.12613 10.158934 4.538797 5.831686 8.006746-2.067057 1.446941-2.299602 1.62781-2.299602 1.62781s10.774536-1.808676 12.686566-9.353436c1.91203-7.544758 2.58382-11.007079 2.6355-14.055989z" fill="#ed1c24"/><path d="m46.201218 43.510906s4.640678-.38368 7.015827.127892c2.375148.511569 7.052365 2.192446 7.052365 2.192446s-4.786839-10.889147-8.733239-11.03531c-3.946404-.146161-5.590736.511572-5.883064 1.169305-.292325.657733-1.607793 2.667476-1.425088 3.617534.182703.95006 1.973199 3.928133 1.973199 3.928133z" fill="#ed1c24"/><path d="m46.201218 43.510906-1.548415.109622c-1.752185-3.510357-2.254115-6.526874.785627-8.998161 9.805576-7.287139 19.316935 9.440021 16.571232 19.896441l-.40195 1.388547c-3.726057-1.755086-6.583813-3.474117-9.062106 2.119365 0 0-9.75638-9.464056-14.945169-8.22167-5.188786 1.242385-7.161988 4.092564-7.161988 4.092564s-1.940713-4.56316-.04059-5.842087c1.8521-1.463723 5.025936-2.5043 7.458366-2.3065 4.275267.401947 7.783182 1.352007 10.742983 3.654076 2.959801 2.302065 3.544451 3.179045 3.544451 3.179045 2.026268-2.520333 3.138219-2.663031 6.394632-1.534713.977207-8.942551-3.757905-14.918009-7.659253-15.504525-4.100523-.61646-7.92094 1.895766-4.677818 7.967996z" fill="#eac102"/><path d="m31.06247 75.522192s-2.015381 2.170412-2.015381 5.632733v3.462319s-4.909262.15503-6.769614-.930174c-1.860351-1.085204-4.34082-3.720703-4.444173-4.599202-.103353-.878501-.413411-2.222087-.206705-4.185793.206705-1.963703 1.240234-3.048907 2.583821-3.513997 1.343587-.465087 10.852052 4.134114 10.852052 4.134114z" fill="#ed1c24"/><path d="m28.83545 94.15446s-.516765 6.17533-.335899 7.98401c.180869 1.80867-7.622273-4.625043-7.570596-6.795454.05168-2.170409.155029-4.392496 2.428792-4.392496s4.134115 1.085204 4.599202 1.705321c.46509.620117.878501 1.498619.878501 1.498619z" fill="#ed1c24"/><path d="m22.861933 68.556211c-2.967564-.111488-5.157219 1.903211-5.984648 3.78788-3.508938 9.227495 3.360118 13.835169 12.247314 13.694257l-.07751-1.421104c-2.321456.207431-5.81561-.105799-8.094302-2.221587-3.62689-3.367606-4.949693-9.391488 1.970646-9.793181 12.965239 3.160561 15.554412 21.05063 9.146727 30.799154 0 0-3.126422-1.44694-5.994465-3.20394-2.868042-1.756993-4.34082-4.082437-4.728393-5.761922-.541134-2.974153 2.170095-3.401968 4.056599-3.281453 1.653646.103349 3.486092 3.27215 3.486092 3.27215 1.106488-7.353583-9.877756-6.051447-10.229866-.84336-.665508 7.199445 7.900953 11.535135 15.528769 14.417725 0 0 1.808673-3.25562 2.842202-5.37435 5.052211-10.666982 2.669915-21.237557-4.444172-28.732094-2.415934-2.607805-6.065814-5.368661-9.724988-5.338175z" fill="#eac102"/><path d="m10.383421 128.1867 8.091585-5.31729 9.751998 5.86265-10.152655 5.32901z" fill="#ed1c24"/><path d="m20.859114 108.60368c-3.768073.0401-2.856017 4.11314-.75706 7.10964 2.069879 3.61574 11.57552 6.66626 11.57552 6.66626v2.99724l-5.064289-1.65365c-5.064293-1.65365-8.668722-5.37435-8.668722-5.37435l-1.563212 1.96371c-1.28174 1.61011-11.046354 8.30285-11.0463542 8.30285.0000002 0 9.7646142 6.69273 11.0463542 8.30285l1.563212 1.9637s3.604429-3.7207 8.668722-5.37434l5.064289-1.65365v2.99723s-9.505641 3.05052-11.57552 6.66626c-2.098958 2.9965-3.011013 7.06944.75706 7.10965.185315.002.381774-.006.590144-.0243 0 0 .767197-4.348 4.128947-6.10196 3.361749-1.75395 9.318279-4.12938 10.451042-4.23901 1.132761-.1097 1.077971-.0822 1.077971-.0822v-4.22972c.162886.2848.33601.66322.347782 1.2144.597609 2.49838 2.557626 4.2282 4.792472 4.2292 2.748078.00001 4.97586-2.58452 4.975923-5.77277-.000228-3.74622.167309-7.32869 0-10.01076-.000063-3.18824-2.227845-5.77278-4.975923-5.77278-2.234846.001-4.194863 1.73082-4.792472 4.2292-.01177.55119-.184896.92959-.347782 1.2144v-4.22972s.05479.0275-1.077971-.0822c-1.132763-.10963-7.089293-2.48507-10.451042-4.23902-3.36175-1.75396-4.128947-6.10195-4.128947-6.10195-.20837-.0181-.404829-.0263-.590144-.0243zm-2.771407 14.85956 2.53938 1.82728c2.452705 1.76452 6.609371 3.22486 6.896735 3.32486-.287364.1-4.444031 1.56033-6.896735 3.32486l-2.53938 1.82728-6.394959-5.15214zm24.131859.002c1.020024-.0001 1.849869 1.64253 1.860352 3.68247h.0011v1.10897.71831 1.10897h-.0011c-.01048 2.03994-.840328 3.68257-1.860352 3.68246-1.027443 0-1.860352-1.66581-1.860352-3.7207.000265-.0424.0011-.0848.0021-.12712v-.96997-.66559-.96997c-.0011-.0423-.0019-.0847-.0021-.12712 0-2.05489.832909-3.72071 1.860352-3.72071z" fill="#eac102"/><path d="m27.039843 154.61828-.654809 8.51254c-.01763.0607-4.472955.94295-6.2207-.74836-2.192941-2.12212-1.566868-2.64263-.748355-4.32642.818517-1.6838 1.566868-2.92326 3.484527-3.2039 1.917659-.28063 4.139337-.23386 4.139337-.23386z" fill="#ed1c24"/><path d="m27.880468 169.79635 4.365625 8.96276s-13.275233 1.72829-13.791406-2.87734c-.549995-4.90741.458465-4.11877 2.182813-6.08542 1.752391-1.99864 6.479789-1.33833 7.242968 0z" fill="#ed1c24"/><path d="m26.385034 163.13082-.08185 1.181s-4.162725 1.05822-6.150542-.0643c-1.987817-1.12253-3.250662-2.82972-3.274051-4.86431-.02339-2.03459.234771-4.09135 2.549083-5.94006 2.332101-1.86292 5.636046-2.362 8.676237-1.80073 9.334626 1.94226 15.11709 15.08605 11.459181 22.35709-3.452289 6.47267-11.625902 9.07122-18.287918 6.40779-3.040191-1.30962-4.747375-3.29744-5.07478-5.12155-.680667-3.77737 1.739314-7.04983 5.004622-7.67064 2.128134-.35079 5.964384.26301 5.964384.26301l.711068 1.91823c-3.633151-1.39359-10.131358-.25987-9.144661 4.05143.529166 1.98438 1.091406 2.94349 5.390885 4.06797 18.605575 3.19262 13.034321-22.14402 1.885159-22.50612-6.225466-.70576-8.471834 5.08839-5.175912 7.09414.975651.52916 2.185038 1.03913 5.549095.62705z" fill="#eac102"/><path d="m87.77552 232.5026 10.31875.92604s-3.042709 7.07761-5.291667 7.07761-4.828646.39687-5.291667-1.25677c-.46302-1.65365-1.653645-2.31511.264584-6.74688z" fill="#ea171e"/><path d="m53.304434 204.6732 6.594874 6.12716s.350793 4.34981-2.19829 5.2151c-2.549083.86528-2.946646 1.66041-5.612662.0234-2.666013-1.63702-3.718385-3.695-3.718385-4.58367s-.795129-1.96443.23386-3.60145c1.028988-1.63703 2.291836-3.08697 4.700603-3.18051z" fill="#ed1c24"/><path d="m74.351908 226.23516c2.994018-.76989 8.782948-4.64927 10.570512-4.67722l2.993416-.0468s-1.403165-5.3788-.187087-6.78197c3.199592-4.59525 9.64013.88111 8.418989 3.27406-1.54833 3.52488-5.661716 4.49811-5.659432 4.49012 8.406538 2.56022 6.104951 20.70033-1.683798 16.9783-1.590254-.93544-1.917658-2.71279-1.590254-4.67722.327406-1.96443.561266-2.29183.561266-2.29183l-1.403165-.18709s-1.498118 5.36652-.74503 7.3716c.939244 2.50072 2.496663 3.38298 4.767437 3.05859 7.294965-.40802 11.358188-9.6778 9.541523-14.68646-1.449937-3.97563-2.829716-4.98123-2.829716-4.98123-.0064.006 4.810661-3.22042 4.045801-6.85213-3.935647-10.66486-18.316725-8.50213-18.194384.0468 0 1.91766.04677 1.77734.04677 1.77734-8.597433 6.75381-12.40475 4.79815-11.318864-6.08038 11.945992-5.92291 5.565586-16.04052-4.911077-16.46381 0 0-2.712786-.18709-4.443357 2.01121-1.73057 2.19829-2.478923 4.67721-2.478923 4.67721-6.612132-.33654-12.608242-1.02768-13.786453 7.27975-.530706 14.29247 19.556139 9.16673 13.833223 1.32633m.000003.00003s-.280633 3.50791-1.543481 4.34981-4.084364 2.53575-6.688418.32741c-2.68999-2.28122-3.023144-5.70141-1.520097-8.25529.917783-1.55943 5.914815-3.04019 9.681839-.79512 3.748403 2.23397 3.926928 1.96129 3.926928 1.96129s-1.716112-7.97695 3.032437-8.12342c10.091275-.24752 6.276982 9.35347-.48142 9.64665 0 0 1.543481.23386 1.543481 5.19171-.388908 5.79644.305794 11.90086 6.501331 11.13178" fill="#eac102"/></g></g><path d="m59.233138 51.021323.00018.000012c0-.213757 0-.427515 0-.641271h81.561552v97.075166c-.10579 2.54098.20233 5.10612-.16566 7.6278-.48778 3.69705-3.65202 6.48746-7.0236 6.80388-6.17662.12466-12.36083.0433-18.54042.0637-2.68942.0616-5.38244-.0957-8.06877.0532-2.85567.13948-4.9699 2.6517-6.20753 5.21271-.1492.72768-1.088188.9927-1.422528.27952-1.17192-2.60246-3.22819-5.13551-6.047134-5.48411-6.98581-.12672-13.978207-.0384-20.966591-.0633-2.674977-.13044-5.457146.41249-8.033361-.60336-2.960063-1.0431-4.981587-4.23229-5.078268-7.54539-.01799-34.25784-.0022-68.51936-.0079-102.778625z" fill="none"/><g transform="translate(-5.134238 -15.737952)"><path d="m68.262366 83.443383v84.454227c-.191871 4.36226 2.667167 7.37275 7.043771 7.66714h23.255447c3.496556.19441 5.140856 2.79385 6.587926 5.66153 1.44706-2.86768 3.09137-5.46712 6.58791-5.66153h23.25545c4.3766-.29439 7.23564-3.30489 7.04377-7.66714v-84.454227z" fill="#0071bc"/><g stroke="#000"><path d="m68.262615 146.74901v20.79356c-.19187 4.36226 2.666894 7.37285 7.043497 7.66724h23.255427c3.496561.19441 5.141161 2.79347 6.588231 5.66115 1.44706-2.86768 3.09117-5.46674 6.58771-5.66115h23.25543c4.3766-.29439 7.23588-3.30499 7.04401-7.66724v-20.79356z" fill="#008f4c" stroke-width=".227"/><path d="m400.41602 368.7793c-2.78282.0344-5.80607.39776-9.01172.76562-12.82262 1.47145-15.76415 21.2302-17.02539 25.64453-1.26124 4.41438-4.41797 26.64844-4.41797 26.64844s-9.80862.44428-14.11914 6.98438c-4.31052 6.54013-7.42383 25.43554-7.42383 25.43554s-1.47212.73595-6.9375 2.3125c-5.46538 1.57656-3.46787 1.78617-7.14649 7.14649-3.67862 5.36027-1.90429 18.31836-1.90429 18.31836s-.092.86228-4.08594.59961c-3.99393-.26279-7.28399 3.86077-9.58789 5.71875-2.3039 1.85797-3.86524 9.95898-3.86524 9.95898.00001 0-.25915.44589-2.15429.14844-1.89515-.2973-4.45903.22295-5.8711 2.89844-1.41207 2.67548-3.34574 4.60677-4.75781 6.53906-1.41207 1.93232-1.41211 6.68945-1.41211 6.68945s-.81689.5932-3.34375-.44727c-2.52686-1.04061-10.20859-1.44641-11.78515-.0801-1.57655 1.36633-9.24767 14.05281-9.54493 16.87695-.29728 2.82414-1.4848 10.40454-5.49804 14.56641-4.01325 4.16193-12.52344 9.1387-12.52344 9.1387l-6.17188-.53711-.18359 28.55859 50.68555 7.13477s26.75512 2.37695 40.28125 2.37695c13.52612 0 29.87695-1.1875 29.87695-1.1875s6.98722-17.98655 9.2168-12.04101c2.22958 5.94557-9.2168 12.04101-9.2168 12.04101s44.9393-.1243 52.50675.50635c7.56744.63061 25.47902 1.91966 29.26278 4.23193 3.78373 2.31228 14.2924 2.10179 24.80274 1.05078 10.51033-1.05105 7.35742-8.61914 7.35742-8.61914s.00076.21106 24.38476 15.97657c24.384 15.7655 30.26954 9.8789 30.26954 9.8789v-94.59179s-6.98858-4.62538-8.19727-6.41211c-1.20866-1.78678-7.21466-7.34006-14.57227-11.50196-7.3576-4.16198-18.87593-4.0131-19.61914-4.31054-.74316-.29726-1.33792-2.30486-5.64843-5.05469-4.31055-2.7498-13.34375-2.25586-13.34375-2.25586s.42104-4.20417-2.62696-12.92774c-3.048-8.72367-14.81932-7.77783-15.66015-9.03906-.84076-1.26126-.21094-6.3054-.21094-9.8789 0-3.57355-1.36665-7.25323-6.83203-14.92579-5.46535-7.67263-14.92383-7.88281-14.92383-7.88281s.52479-7.04069-.21094-15.86914c-2.41738-9.87972-17.24218-4.95898-17.24218-4.95898s-1.04029-9.06561-4.45899-28.38868c-2.56402-14.49226-8.76094-17.3396-17.10937-17.23632z" fill="#a05a2c" stroke-width=".999999" transform="scale(.26458333)"/><g fill="none" stroke-width=".264583"><path d="m79.558966 136.15137s1.586593.5002 1.809062 3.05859c.222467 2.55839.111234 4.61623.945492 5.28364"/><path d="m83.314809 131.84518s1.435587 2.14303 1.435587 3.79478.15731 2.91023.471929 3.06753"/><path d="m87.955354 127.53847s-.766664 1.65181-.255407 2.53667c.511254.88487 1.238811 1.96637 1.238811 2.30065"/><path d="m92.185587 120.18904s-.316945 1.62737-.08098 2.41391c.235964.78655.570246 1.69108.963518 1.98603"/><path d="m101.89711 137.44902c0 .55058 3.14619-1.25848 3.77543-2.12368.62923-.8652 1.14049-2.35964 1.49443-2.83157.35395-.47192.35395-.47192.35395-.47192s.62681 1.37611 1.40545 1.76543 1.30701.61179 1.89099.38932.80645-.22247.80645-.22247-.13904 2.72525.58398 3.28142 1.69633 1.14015 1.69633 1.14015"/><path d="m99.26218 137.33104s.511257 1.17982-.235963 2.71358c-.747218 1.53377-2.398967 1.1405-2.438294 1.96637-.03933.82587-1.612421 3.53946-1.612421 3.53946"/><path d="m104.74834 147.4185s.0197-.84554.4326-1.10117c1.72978-1.55559 3.02285-.64818 4.64063-2.16304.41294-.15731 1.47478-.0983 1.59276.2163.44954.7732 1.19568.14029 1.7304.2163.33373.82912 2.67871.62694 3.10686 1.02251.29495.27529.0983.45226.37361.74722.27529.29495.62923.72755 1.10116.72755s1.39612.31462 1.39612.31462"/><path d="m125.63935 153.50359s.41713-.55617.61179-1.08453c.19466-.52837.13179-.38343.91769-.47275.90084-.10238 3.96125-2.14032 4.47719-2.55839.73109-.59241 1.69632-.41713 1.89098-.61179s1.33608-.0795 1.73918.18596c.40311.26546.93403.39328 1.33713.61941.40311.22613.82588.93402.82588.93402"/><path d="m97.885497 111.61127c0 .0388 1.530327-.31377 2.726093.2072 1.29444.56396 2.91991 3.05895 2.91991 3.05895"/><path d="m100.41693 117.76951s.83426.38933 1.44605-.50055.88988-1.80756 1.66852-2.39154 2.30812-.77864 2.9199-1.33482"/><path d="m105.22783 111.45696s.0556-.33371.80645-.58398c.75083-.25028 1.25138-.0556 1.50166-.44494.25028-.38932.86207-1.52948 1.50167-1.22358"/><path d="m89.265677 150.83396s2.669627.22247 3.337033-1.00111c.667406-1.22357.937345-1.98175 1.900865-2.25704.96352-.2753 1.533766.0787 2.339975.0393.806212-.0393.904528-.45226 1.356794.0787.452263.53092.688229.76688 1.219147 1.02251"/><path d="m81.924201 153.55921s.03395-.92984.820502-1.02816c.786546-.0983.727554-.2163 1.297803-.60957.570245-.39328.963519-.60958 1.415782-.58991.452266.0197 1.33713-.45227 1.612421-.19664s1.081501.13765 1.317467.31462c.235963.17697.983181.96352.983181.96352"/><path d="m122.10766 123.88741s.22247-.44494-2.28031.52836-3.94882 1.44605-4.81089 1.22358c-.86207-.22246-3.25361.47275-3.25361.47275"/><path d="m131.81287 131.56259s-2.50278.25028-4.33815 1.22358-2.22469 2.19688-3.28141 2.53058c-1.05673.33371-1.39044 1.39044-2.14127 1.64071-.75083.25028-3.75416.25028-4.5328.9733"/><path d="m115.1555 130.86737s1.41824-.80645 2.28031-.22246c.86207.58398 1.75194-.0278 2.39154.72302.6396.75083 2.05784.6396 2.94772.91768.88987.27809 3.00333 1.69633 3.00333 1.69633"/><path d="m97.858539 130.81176s.389321.0278.639599-.75084c.250279-.77864-.05562-.77864.305895-1.47385.361513-.69522.500555-1.55728 1.585097-1.52948 1.08453.0278 1.25138.44494 2.30811-.30589s1.47386-1.30701 2.39154-1.44605c.91769-.13904.83426.0278 1.75195-.3337.91768-.36151 1.91879-.36151 1.91879-.36151"/><path d="m77.238878 142.05032s.589909.90452-.07866 1.61242c-.668565.70789-.904528 1.33713-1.573093 1.84838-.668565.51126-1.101167.4326-1.455111 1.49444"/></g><g fill="#a05a2c" stroke-width="2.41623" transform="matrix(.10230887 0 0 .08627075 27.569784 81.66133)"><path d="m760.02326 741.1914s-73.2717-10.35366-75.17436 129.86478h74.20456 74.20456c-1.90266-140.21844-73.23476-129.86478-73.23476-129.86478z" fill="#a05a2c" stroke-width="2.81627"/><g fill="none"><path d="m827.85002 813.05834-137.19788.87126" stroke-width="3.80724"/><path d="m819.94018 788.52218-122.01091.87326" stroke-width="3.59773"/><path d="m830.75487 837.59582-143.83567.86862" stroke-width="3.89232"/><path d="m805.88001 763.9851-94.45797.8771" stroke-width="3.16962"/></g><path d="m723.53391 869.40001s.68325-42.20023-.71008-74.08405c-1.45384-33.61535 19.74298-41.68444 37.53973-41.22209 17.79687.46249 35.35611 5.79224 35.16731 41.99963-.17635 33.80331-1.50774 73.68354-1.50774 73.68354z" fill="#a05a2c" fill-rule="evenodd" stroke-linecap="round" stroke-linejoin="bevel" stroke-width="2.41623"/><path d="m722.11407 824.17904h13.70498c-2.22934 1.4236-2.44493 17.74907.47123 21.0299l-14.29057-.3424c.13983.0921.27528-20.53444.11436-20.69011z" fill="#a05a2c" fill-rule="evenodd" stroke-linejoin="bevel" stroke-width="2.1421"/><path d="m734.16201 746.198v18.73018" fill="none" stroke-width="2.41623"/><path d="m749.56728 752.78003h20.86459l-4.46558 15.89915-11.72403.0962z" fill="#a05a2c" fill-rule="evenodd" stroke-linejoin="bevel" stroke-width="2.0113"/><path d="m832.85988 862.51449-147.15112.86832" fill="none" stroke-width="3.93625"/><path d="m797.29966 824.17904h-13.70498c2.22934 1.4236 2.44493 17.74907-.47123 21.0299l14.29057-.3424c-.13983.0921-.27528-20.53444-.11436-20.69011z" fill="#a05a2c" fill-rule="evenodd" stroke-linejoin="bevel" stroke-width="2.1421"/><path d="m797.46192 784.97632h-13.97397c2.56779 1.34749 2.81617 19.37313-.54279 22.47838l14.64845-.32412c-.1611.0866-.31704-22.00944-.13169-22.15673z" fill="#a05a2c" fill-rule="evenodd" stroke-linejoin="bevel" stroke-width="2.29754"/><path d="m782.6625 746.198v18.73018" fill="none" stroke-width="2.41623"/><g fill="#a05a2c" fill-rule="evenodd" stroke-linejoin="bevel"><path d="m784.76399 758.43531-11.58141 12.23801c2.37132-.59332 8.1385 8.50692 7.36154 13.12793l12.8346-12.71814c-1.43099-4.58738-4.52473-8.74607-8.61473-12.6478z" stroke-width="2.10555"/><path d="m795.93478 856.13582h-16.9027c2.92265 1.3468 3.20534 13.06551-.61794 16.16952l17.67065-.32399c-.18357.0866-.36088-15.70071-.15001-15.84786z" stroke-width="2.24502"/><path d="m721.95181 784.97632h13.97397c-2.56779 1.34749-2.81617 19.37313.54279 22.47838l-14.64845-.32412c.1611.0866.31704-22.00944.13169-22.15673z" stroke-width="2.29754"/><path d="m734.64974 758.43531 11.58141 12.23801c-2.37132-.59332-8.1385 8.50692-7.36154 13.12793l-12.8346-12.71814c1.43099-4.58738 4.52473-8.74607 8.61473-12.6478z" stroke-width="2.10555"/><path d="m723.47895 856.13582h16.9027c-2.92265 1.3468-3.20534 13.06551.61794 16.16952l-17.67065-.32399c.18357.0866.36088-15.70071.15001-15.84786z" stroke-width="2.24502"/></g><g stroke-width="2.41623"><path d="m734.59218 873.50923s.49097-37.24201-.51001-67.859c-1.04477-32.27967 14.18508-40.02849 26.97203-39.58441 12.78695.44421 25.40311 5.56208 25.26745 40.33103-.12699 32.46022-1.08313 67.17615-1.08313 67.17615l-50.64634-.0632z" fill="#000" fill-rule="evenodd" stroke-linecap="round" stroke-linejoin="bevel"/><g fill="none"><path d="m805.88001 763.9851v23.73678"/><path d="m805.88001 813.05542v23.73678"/><path d="m805.88001 861.18428v9.75355"/><path d="m821.39676 837.59058v23.73678"/><path d="m821.39676 793.09192v19.17011"/><path d="m714.04677 763.9851v23.73678"/><path d="m714.04677 813.05542v23.73678"/><path d="m714.04677 861.18428v9.75355"/><path d="m698.53002 837.59058v23.73678"/><path d="m698.53002 790.21671v22.04532"/></g></g></g><path d="m66.755649 159.09915s8.47338 1.96824 23.60127 2.74688c15.127891.77864 26.807511.44494 33.036641 1.66852s18.30032 4.86585 18.30032 4.86585.6804 5.22488-3.3035 6.29237c-3.98391 1.06748-6.37103 1.41578-6.37103 1.41578s-3.73147-8.79203-21.19529-10.34931c-17.463811-1.55728-27.727911-1.92081-36.694541-3.49391-8.96663-1.57309-7.4132-1.5141-7.4132-1.5141z" fill="#0071bc" stroke-width=".227"/><g fill-rule="evenodd" stroke-linecap="round" stroke-linejoin="round" stroke-width="2.27509"><circle cx="105.207976" cy="102.965752" fill="#0071bc" r="6.767367" stroke-width=".227"/><g fill="#eac102" stroke-width="2.27509" transform="matrix(.09977619 0 0 .09977619 -189.9856 131.21399)"><path d="m2949.8855-447.6875v26.28125h-24.7188v17.375h24.7188v54.65625h17.3437v-54.65625h24.7187v-17.375h-24.7187v-26.28125z"/><path d="m2945.9375-355.15625v49.8125c-50.9395 1.02852-59.0538 8.19547-60.0625 9.40625-.028-.0169-.125-.0625-.125-.0625v25.25.25s.134-.0794.1562-.0937c.336.37134 1.8129 1.76006 6.8126 3.4375-.1861-.76914-.4342-1.50215-.5938-2.28125-.2385-1.16453-.4463-2.34116-.625-3.53125 8.4827-2.88178 27.7825-7.25 67.0625-7.25 39.4803 0 58.6462 4.33673 67.0625 7.21875-.1797 1.20043-.3845 2.38801-.625 3.5625-.1616.7891-.405 1.53361-.5938 2.3125 5.0211-1.68587 6.4813-3.09282 6.8126-3.46875.023.0154.1562.0937.1562.0937v-.25-25-.25s-.097.0454-.125.0625c-.9759-1.21104-8.9169-8.38009-60.0625-9.40625v-49.8125z"/></g></g></g></g><g stroke="#000"><path d="m43.428536 47.704337v118.272123c-.29434 6.10904 4.09144 10.32501 10.805374 10.73727h35.675131c5.363901.27226 7.886621 3.91287 10.106489 7.92885 2.21986-4.01598 4.74209-7.65659 10.10597-7.92885h35.67512c6.71395-.41226 11.09973-4.62824 10.80538-10.73727v-118.272123zm19.699592 20.028099h73.774272v84.123694c.19187 4.34518-2.66741 7.34417-7.04401 7.6374h-23.25496c-3.49653.19365-5.14085 2.78302-6.5879 5.63948-1.447068-2.85646-3.091358-5.44583-6.587897-5.63948h-23.255491c-4.376596-.29323-7.235888-3.29222-7.044014-7.6374z" fill="#e3e4e5" stroke-width=".228498"/><g fill="#ed1c24" stroke-width=".227" transform="translate(-5.134238 -15.737952)"><path d="m68.604462 79.557236v-2.372987h1.251606v1.114147q.535369.325562 1.005626.49196.477491.166399.88987.166399.803053 0 1.295014-.434083.491961-.441318.491961-1.15032 0-.672829-.311093-1.092442-.318327-.412379-1.208198-.90434l-.716237-.390675q-1.454178-.803053-2.069129-1.555464-.61495-.745176-.61495-1.700158 0-1.316719.954982-2.148711.954983-.839227 2.459804-.839227.788584 0 1.562699.108521.781349.10852 1.548229.332797v2.170415h-1.251606v-1.02733q-.455787-.282154-.882635-.419614-.426849-.144694-.831993-.144694-.614951 0-1.049034.434083-.426848.434083-.426848 1.056269 0 .50643.311093.868166.311093.36897 1.172024.860931l.723472.419613q1.562698.897105 2.155945 1.620577.593247.730706.593247 1.736332 0 1.468647-1.092442 2.351283-1.092443.875401-2.908356.875401-.672829 0-1.439709-.108521-.759645-.108521-1.613342-.318328z"/><path d="m79.668822 70.079757v8.565905h1.070738v1.070738h-4.369769v-1.070738h1.070738v-8.565905h-1.070738v-1.070738h4.369769v1.070738z"/><path d="m90.240188 79.289552q-1.627811.694533-3.530542.694533-2.68408 0-4.188901-1.483117-1.497586-1.490352-1.497586-4.152728 0-2.676845 1.461413-4.138258 1.468647-1.468647 4.152727-1.468647.824758 0 1.700159.115755.8754.115756 1.808679.347267v2.242762h-1.157555l-.115755-1.070738q-.549839-.282154-1.106912-.419614-.549839-.144694-1.106912-.144694-1.526525 0-2.401926 1.208198-.868166 1.208197-.868166 3.327969 0 2.05466 1.005626 3.255623 1.005626 1.200963 2.720253 1.200963 1.606108 0 3.125398-.788584z"/><path d="m97.288659 74.673803v3.971859h1.070738v1.070738h-4.369769v-1.070738h1.070738v-8.565905h-1.070738v-1.070738h4.369769v1.070738h-1.070738v3.523307h4.333591v-3.523307h-1.07074v-1.070738h4.36977v1.070738h-1.07074v8.565905h1.07074v1.070738h-4.36977v-1.070738h1.07074v-3.971859z"/><path d="m110.017 79.85386-3.95739-9.774103h-.62942v-1.070738h4.10209v1.070738h-1.07074l2.64791 6.482307 2.61173-6.482307h-1.07074v-1.070738h2.87942v1.070738h-.62942l-3.8127 9.774103z"/><path d="m116.82425 76.612707-.80306 2.032955h1.07074v1.070738h-2.89389v-1.070738h.62942l3.85611-9.774102h1.67845l3.86334 9.774102h.62219v1.070738h-3.99357v-1.070738h1.07074l-.80305-2.032955zm.44131-1.114147h3.41479l-1.71463-4.304656z"/><path d="m133.58337 79.824921-5.31029-7.581983v6.402724h1.07074v1.070738h-3.61736v-1.070738h1.07074v-8.565905h-1.07074v-1.070738h2.6045l5.31752 7.647096v-6.576358h-1.07074v-1.070738h3.61736v1.070738h-1.07797v9.745164z"/><path d="m145.68849 79.289552q-1.62781.694533-3.53054.694533-2.68408 0-4.1889-1.483117-1.49759-1.490352-1.49759-4.152728 0-2.676845 1.46142-4.138258 1.46864-1.468647 4.15272-1.468647.82476 0 1.70016.115755.8754.115756 1.80868.347267v2.242762h-1.15755l-.11576-1.070738q-.54984-.282154-1.10691-.419614-.54984-.144694-1.10691-.144694-1.52653 0-2.40193 1.208198-.86816 1.208197-.86816 3.327969 0 2.05466 1.00562 3.255623 1.00563 1.200963 2.72025 1.200963 1.60611 0 3.1254-.788584z"/><path d="m149.01894 76.612707-.80305 2.032955h1.07074v1.070738h-2.89389v-1.070738h.62942l3.8561-9.774102h1.67846l3.86334 9.774102h.62218v1.070738h-3.99356v-1.070738h1.07074l-.80306-2.032955zm.44132-1.114147h3.41479l-1.71463-4.304656z"/><g transform="matrix(.99999891 0 0 1 -.164648 .544907)"><path d="m145.79165 86.975985 9.7741-3.95739v-.62942h1.07074v4.102084h-1.07074v-1.070738l-6.48231 2.647906 6.48231 2.611733v-1.070738h1.07074v2.879417h-1.07074v-.62942l-9.7741-3.812696z"/><path d="m145.92911 101.05722v-8.102882h1.07074v1.070738l8.5659.000001v-1.070738h1.07074v7.762851h-2.14148v-1.157557h1.07074v-3.306264h-3.56672v2.235529h.71624v1.070735h-2.50321v-1.070735h.71624v-2.235529h-3.84164v3.639054h1.16479v1.164797z"/><path d="m145.92911 109.78478v-8.1463h1.07074v1.07075h8.5659v-1.07075h1.07074v4.36978h-1.07074v-1.07074h-8.47909v3.68247h1.16479v1.16479z"/><path d="m155.56575 113.4625h-8.5659v1.07074h-1.07074v-4.36977h1.07074v1.07074h8.5659v-1.07074h1.07074v4.36977h-1.07074z"/><path d="m146.35596 124.03387q-.69454-1.62782-.69454-3.53055 0-2.68408 1.48312-4.1889 1.49035-1.49758 4.15273-1.49758 2.67684 0 4.13826 1.46141 1.46864 1.46865 1.46864 4.15273 0 .82476-.11575 1.70016-.11576.8754-.34727 1.80868h-2.24276v-1.15756l1.07074-.11576q.28215-.54983.41961-1.10691.14469-.54984.14469-1.10691 0-1.52652-1.20819-2.40192-1.2082-.86817-3.32797-.86817-2.05466 0-3.25563 1.00562-1.20096 1.00563-1.20096 2.72026 0 1.60611.78859 3.1254z"/><path d="m149.0328 127.36432-2.03295-.80305v1.07074h-1.07074v-2.89389h1.07074v.62942l9.7741 3.85611v1.67845l-9.7741 3.86334v.62218h-1.07074v-3.99356h1.07074v1.07074l2.03295-.80306zm1.11415.44132v3.41479l4.30465-1.71463z"/><path d="m155.47893 143.89334v-2.72025h-1.15755v-1.16479h2.31511v9.99838h-2.31511v-1.15756h1.15755v-2.72025h-8.47908v1.07074h-1.07074v-4.37701h1.07074v1.07074z"/><path d="m145.79165 154.40683 9.7741-3.95739v-.62942h1.07074v4.10208h-1.07074v-1.07074l-6.48231 2.64791 6.48231 2.61173v-1.07073h1.07074v2.87941h-1.07074v-.62942l-9.7741-3.81269z"/><path d="m145.91651 167.95858-.0127-8.10287 1.07073-.002.002 1.07074 8.56589-.0135-.002-1.07074 1.07074-.002.0122 7.76284-2.14147.003-.002-1.15755 1.07073-.002-.005-3.30626-3.56671.006.004 2.23553.71623-.001.002 1.07074-2.50321.004-.002-1.07074.71623-.001-.004-2.23552-3.84163.006.006 3.63906 1.16479-.002.002 1.16479z"/><path d="m154.36767 175.77011 1.14194-2.46896-1.05062-.48593.48897-1.05719 2.10124.97187-4.19724 9.07473-2.10124-.97186.48593-1.05062 1.05062.48593 1.14194-2.46896-7.69579-3.55945-.44949.97182-.97182-.44948 1.83743-3.97266.97182.44948-.44949.97183z"/><path d="m137.81326 177.44919 5.31513 9.10733.62294-.0901.1532 1.05972-4.05988.58692-.1532-1.05972 1.05973-.1532-3.54814-6.03676-1.65739 6.7893 1.05972-.1532.1532 1.05972-2.84979.41198-.1532-1.05972.62295-.0901 2.37501-10.21905z"/><path d="m129.17389 182.26644.002-3.5016-.8971-.00048.00056-1.07073 4.10932.002-.00056 1.07073-1.07074-.00056-.005 8.56591 1.07074.00056-.00056 1.07074-4.61575-.002q-1.7291-.00091-2.66201-.70317-.93291-.69502-.93223-1.9828.00057-1.09244.52187-1.85181.51407-.75938 1.55609-1.17844l-2.81948-3.9227-.71624-.00038.00056-1.07074 2.74919.001 2.88425 4.57385zm-.00054 1.02733-.3762-.0002q-1.22267-.00064-1.83069.57058-.60802.57846-.60862 1.72878-.00046.86816.52745 1.30252.52067.43436 1.5697.43491l.71624.00038z"/><path d="m88.056804 178.76418-.0076 8.5659 1.070737.00095-.000948 1.07073-3.371377-.003-2.988908-7.07097-3.052078 7.06561-2.987937-.003.000949-1.07074 1.070737.00095.0076-8.5659-1.070738-.00095.000949-1.07074 3.92845.003-.000949 1.07074-.897105-.0008.0084 6.80065 2.899834-6.71125 1.063503.00094 2.844464 6.78869.0061-6.87298-.933279-.00083.000949-1.07074 3.479898.003-.000949 1.07074z"/><path d="m68.473934 177.14306 8.02966 1.08686-.143622 1.06106-1.061062-.14362-1.148973 8.4885 1.061062.14362-.143622 1.06106-7.6927-1.04125.287243-2.12213 1.147094.15527-.143621 1.06106 3.276388.44348.478415-3.53448-2.215326-.29986-.09607.70976-1.061062-.14362.335764-2.48059 1.061062.14362-.09607.70977 2.215325.29986.515292-3.80692-3.606178-.48812-.156237 1.15426-1.154263-.15624z"/><path d="m62.098182 177.15711 3.089711-2.04318-.690373-1.04399.893119-.59061 2.510084 3.79576-.893119.59061-.590608-.89312-7.144956 4.72486.590608.89312-.893119.59061-4.281908-6.47512 1.786239-1.18121.638495.96553-.893119.59061 1.823701 2.75781 3.162126-2.09107-1.233094-1.86469-.597424.39507-.590608-.89312 2.087968-1.38075.590608.89312-.597424.39507z"/><path d="m64.308207 163.25918.129489 8.10185-1.070601.0171-.01711-1.0706-8.564811.13689.01711 1.0706-1.070602.0171-.124054-7.76186 2.141202-.0342.0185 1.15741-1.070602.0171.05284 3.30584 3.56626-.057-.03572-2.23524-.716145.0114-.01711-1.07061 2.502892-.04.01711 1.0706-.716145.0114.03572 2.23524 3.841144-.0614-.05815-3.6386-1.164641.0186-.01861-1.16464z"/><path d="m59.79834 159.46671 3.501602-.001-.000283-.89711 1.070738-.00033.0013 4.10931-1.070739.00034-.000338-1.07074-8.565904.003.000338 1.07074-1.070738.00034-.0015-4.61575q-.000547-1.7291.700926-2.6626.694237-.93349 1.982017-.9339 1.092442-.00035 1.852252.52031.759808.51343 1.179751 1.55509l3.920323-2.82278-.000226-.71623 1.070738-.00034.00087 2.74919-4.571428 2.8881zm-1.02733.00032-.000119-.3762q-.000387-1.22267-.572122-1.83021-.578969-.60753-1.729289-.60717-.868166.00028-1.302082.52855-.433918.52104-.433586 1.57007l.000226.71624z"/><path d="m54.731464 149.23489 8.565905-.002-.000229-1.07074 1.070738-.00022.000933 4.36976-1.070738.00023-.000228-1.07074-8.565905.002.000229 1.07074-1.070738.00023-.000933-4.36977 1.070738-.00023z"/><path d="m61.263746 145.07069 2.033056.8028-.000134-1.07073 1.070739-.00014.00036 2.89389-1.070738.00013-.000078-.62942-9.774583-3.85488-.000209-1.67846 9.77362-3.86455-.000077-.62219 1.070738-.00013.000498 3.99356-1.070738.00013-.000134-1.07073-2.032855.8033zm-1.114201-.44117-.000426-3.41479-4.304442 1.71516z"/><path d="m63.295709 135.62662-8.565905.00016.00002 1.07074-1.070738.00002-.000063-3.37138 7.068261-2.9953-7.068375-3.04568-.000057-2.98794 1.070738-.00002.00002 1.07074 8.565905-.00017-.00002-1.07073 1.070738-.00002.000074 3.92845-1.070738.00002-.000017-.89711-6.800633.0146 6.713871 2.89376.00002 1.0635-6.78611 2.85061 6.872981-.00013-.000018-.93328 1.070738-.00002.000066 3.4799-1.070738.00002z"/><path d="m54.816894 117.53833-.000167 2.72025 1.157555.00007-.000072 1.16479-2.315109-.00014.000615-9.99838 2.31511.00014-.000072 1.15756-1.157554-.00007-.000168 2.72025 8.479088.00052.000066-1.07074 1.070738.00007-.000269 4.377-1.070738-.00006.000066-1.07074z"/><path d="m64.635241 105.93292q-.000189 2.49598-1.505119 3.93558-1.50493 1.43959-4.116662 1.43939-2.611733-.00019-4.116445-1.44001-1.504713-1.43983-1.504524-3.9358.000188-2.49598 1.505118-3.93558 1.50493-1.44683 4.116663-1.44663 2.611733.0002 4.116445 1.44726 1.504712 1.43982 1.504524 3.93579zm-1.070738-.00008q.000103-1.36736-1.244206-2.19221-1.251544-.82485-3.306203-.82501-2.061895-.00015-3.306328.82451-1.244434.82467-1.244537 2.19203-.000103 1.36012 1.244206 2.18497 1.244309.82486 3.306203.82501 2.061895.00016 3.306328-.82451 1.244434-.82466 1.244537-2.18479z"/><path d="m54.818406 96.547432-.000154 2.720253 1.157555.000066-.000066 1.164789-2.315109-.00013.000566-9.998379 2.315109.000131-.000066 1.157554-1.157554-.000065-.000154 2.720253 8.479088.00048.000061-1.070738 1.070738.000061-.000248 4.377003-1.070738-.00006.00006-1.070739z"/><path d="m64.506113 86.03448-9.774133 3.957314-.000005.62942-1.070738-.000008.000032-4.102085 1.070738.000009-.000009 1.070738 6.482327-2.647856-6.482285-2.611783-.000009 1.070738-1.070738-.000008.000023-2.879418 1.070738.000009-.000005.62942 9.774072 3.812772z"/><path d="m63.29798 79.514699-8.565904.000726.000091 1.070738-1.070739.000091-.000285-3.371378 7.068064-2.995772-7.068577-3.045216-.000253-2.987938 1.070738-.000091.000091 1.070738 8.565904-.000726-.00009-1.070739 1.070738-.00009.000333 3.928451-1.070738.000091-.000076-.897105-6.800633.01505 6.714063 2.893317.00009 1.063504-6.785923 2.851054 6.872981-.000583-.000079-.933279 1.070738-.000091.000295 3.479899-1.070738.000091z"/></g></g><path d="m43.428095 47.594355v118.367375c-.294348 6.11392 4.091622 10.33331 10.805635 10.74591h35.675475c5.363945.27247 7.886425 3.91574 10.106325 7.93494 2.2199-4.0192 4.74238-7.66247 10.1063-7.93494h35.6755c6.714-.4126 11.09998-4.63199 10.80563-10.74592v-118.367365z" fill="none" stroke-width=".681183"/></g></svg>