<svg height="128.64568mm" viewBox="0 0 84.866715 128.64567" width="84.866714mm" xmlns="http://www.w3.org/2000/svg"><g transform="translate(-63.911082 -48.508914)"><g fill-rule="evenodd"><g transform="matrix(.00000286 0 0 .00000286 69.864486 76.444757)"><path d="m8554184.9-6500077.5 2412892.0999999996 298969.9000000004-1830505.5999999996-1604996.4000000004 2184656.5999999996 1069494.2000000002-1211655-2115334.500000001 1719673 1724121.7999999996-461488-2396442.7 1068329 2191914.5 338673-2417859.5999999996 301232 2422178.5999999996 1102133-2177264.200000001-498513 2389963.4000000004 1746156-1700728.1999999993-1244235 2098757.3 2200955-1039890.0999999996-1855126 1580117.7999999996 2417261-266365.5999999996-2264997 890249.5999999996 2371615 536023.4000000004-2429404 103907.29999999981 2068960 1280327.7000000002-2330551-693694.7000000002 1542101 1885887.6-1979154-1416121.9 848146 2287081.1-1413280-1985092.6 62261 2440435.8-694255-2338947.3-730365 2329331.6 100013-2439341.3-1443838 1965807.2 883418-2275393.0999999996-2000854.5 1389257.9 1571119.5-1864872.9-2341037.4000000004 662159.6000000001 2088542.4000000004-1252263.9-2427541.5-136692.40000000037 2379654.5-503951.5999999996z" fill="#e2ad52" stroke="#843511" stroke-width="70067.8"/><g fill="#ffbf00" stroke-width="1.5"><g transform="matrix(32694.067 0 0 32694.067 12803788 -5420322.9)"><g fill="#843511"><path d="m41-14c-11.5-10-26-11.5-34-4a140 50 10 0 0 1.5 26.5c-.5 0-1.5.5-2 1a80 50 10 0 1 -2.5-28.5c11-9 26-10 37 5"/><path d="m23-17c-6.5 0-8 1.5-11 4s-4.5 2-5 2.5 0 2 1 1.5 3-1.5 6-4 6-2.5 9-2.5c9 0 14 7.5 15 7s-5-8.5-15-8.5"/><path d="m34.5-8.5c-6.5-7-18.5-7.5-23.5.5h2c5-8 17-4.5 18-1v1"/><path d="m26.5-9a4.5 4.5 0 0 1 -4.5 4.5 4.5 4.5 0 0 1 -4.5-4.5 4.5 4.5 0 0 1 4.5-4.5 4.5 4.5 0 0 1 4.5 4.5"/><path d="m11-8c5 4.5 16 5 23.5-.5l-3.5-.5c-5 5.5-13 5-18 1v-1"/><path d="m35-6c-8.5 6.5-17 6-22 3s-5-4-4-4 2 1 6 3 10 2 20-2"/><path d="m10.5 9a3 3 0 1 1 -4 3c-.5 1-2.5 4-6.5 4h-1l1 1.5c1 0 4 0 6-1.5a4.5 4.5 0 1 0 4.5-7"/></g><path d="m16.5 30c-4.5-3-6.5-7.5-11.5-7.5-1 0-3 .5-5 1.5h-1l1 1.5c2 0 5-2.5 8.5-.5s5.5 4 8 5" fill="#ffbf00"/><path d="m15 30c-10-3-12-1-15-1h-1l1 2c4 0 6-3 15-1" fill="#843511"/><path d="m16.5 30c-11-1-7.5 5.5-16.5 5.5h-1l1 1.5c11 0 6-6 16.5-7" fill="#843511"/><path d="m9 46a9 9 0 0 0 -18 0 9.25 9.25 0 0 1 18 0" fill="#ffbf00"/></g><g transform="matrix(-32694.067 0 0 32694.067 12803788 -5420323.2)"><g fill="#843511"><path d="m41-14c-11.5-10-26-11.5-34-4a140 50 10 0 0 1.5 26.5c-.5 0-1.5.5-2 1a80 50 10 0 1 -2.5-28.5c11-9 26-10 37 5"/><path d="m23-17c-6.5 0-8 1.5-11 4s-4.5 2-5 2.5 0 2 1 1.5 3-1.5 6-4 6-2.5 9-2.5c9 0 14 7.5 15 7s-5-8.5-15-8.5"/><path d="m34.5-8.5c-6.5-7-18.5-7.5-23.5.5h2c5-8 17-4.5 18-1v1"/><path d="m26.5-9a4.5 4.5 0 0 1 -4.5 4.5 4.5 4.5 0 0 1 -4.5-4.5 4.5 4.5 0 0 1 4.5-4.5 4.5 4.5 0 0 1 4.5 4.5"/><path d="m11-8c5 4.5 16 5 23.5-.5l-3.5-.5c-5 5.5-13 5-18 1v-1"/><path d="m35-6c-8.5 6.5-17 6-22 3s-5-4-4-4 2 1 6 3 10 2 20-2"/><path d="m10.5 9a3 3 0 1 1 -4 3c-.5 1-2.5 4-6.5 4h-1l1 1.5c1 0 4 0 6-1.5a4.5 4.5 0 1 0 4.5-7"/></g><path d="m16.5 30c-4.5-3-6.5-7.5-11.5-7.5-1 0-3 .5-5 1.5h-1l1 1.5c2 0 5-2.5 8.5-.5s5.5 4 8 5" fill="#ffbf00"/><path d="m15 30c-10-3-12-1-15-1h-1l1 2c4 0 6-3 15-1" fill="#843511"/><path d="m16.5 30c-11-1-7.5 5.5-16.5 5.5h-1l1 1.5c11 0 6-6 16.5-7" fill="#843511"/><path d="m9 46a9 9 0 0 0 -18 0 9.25 9.25 0 0 1 18 0" fill="#ffbf00"/></g></g></g><g transform="matrix(.03955811 0 0 .03955811 56.85735 40.59563)"><path d="m2165 2203c-50-86-115-164-98-284 108 36 116 150 98 283z" fill="#acb736"/><path d="m2165 2203c-50-86-115-164-98-284 108 36 116 150 98 283" fill="none" stroke="#43784b" stroke-linecap="round" stroke-linejoin="round" stroke-width="6.14095"/><path d="m2067 1951 2-25 3 1 15 38c25 65 47 132 67 200l8 26-34-55c-34-56-63-112-61-185z" fill="#619266"/></g><g transform="matrix(.03955811 0 0 .03955811 56.85713 40.59563)"><g><path d="m1757 829c42 132 75 272 155 347 4-162-66-262-155-347z" fill="#acb736" stroke="#43784b" stroke-linecap="round" stroke-linejoin="round" stroke-width="7.36678"/><path d="m1908 1167-8-8c-50-56-81-141-109-231l-24-79 12 24c38 79 75 160 110 243l19 46z" fill="#619266"/></g><g><path d="m1645 847c69 105 112 201 207 230-29-159-100-194-206-229z" fill="#acb736"/><path d="m1645 847c69 105 112 201 207 230-29-159-100-194-206-229" fill="none" stroke="#43784b" stroke-linecap="round" stroke-linejoin="round" stroke-width="6.35234"/><path d="m1848 1073-12-5c-62-27-109-94-155-167l-30-52 7 5c102 74 145 128 159 177l30 36z" fill="#619266"/></g><g><path d="m1574 974c112 72 222 161 325 151-97-140-209-161-325-151z" fill="#acb736" stroke="#43784b" stroke-linecap="round" stroke-linejoin="round" stroke-width="6.65585"/><path d="m1654 1023-66-44 29 12c76 32 152 66 228 104l45 22 3 5h-13c-72-1-148-47-226-99z" fill="#619266"/></g></g></g><ellipse cx="132.07578" cy="84.032181" fill="#bc5d44" rx=".932157" ry=".932157" stroke="#a2472d" stroke-linecap="round" stroke-linejoin="round" stroke-width=".120061"/><g fill-rule="evenodd" transform="matrix(.03955811 0 0 .03955811 56.85713 40.59563)"><g><path d="m1874 1031c36 113 64 234 133 299 4-140-56-226-133-299z" fill="#acb736" stroke="#43784b" stroke-linecap="round" stroke-linejoin="round" stroke-width="6.2685"/><path d="m2004 1322-18-21c-37-48-60-115-82-185l-21-68 10 21c32 68 64 137 95 209l16 40z" fill="#619266"/></g><g><path d="m1970 1033c-1 107-15 220 39 285 56-129 21-212-39-285z" fill="#acb736" stroke="#43784b" stroke-linecap="round" stroke-linejoin="round" stroke-width="5.48316"/><path d="m2008 1312-6-8c-31-48-33-117-31-190l2-70 4 25c11 65 21 131 29 199l4 40z" fill="#619266"/></g><g><path d="m1743 1096c85 97 165 211 266 228-53-158-153-207-266-228z" fill="#acb736" stroke="#43784b" stroke-linecap="round" stroke-linejoin="round" stroke-width="6.58263"/><path d="m2004 1320-13-3c-66-20-124-81-182-149l-55-64 25 19c63 51 125 103 187 159l36 33z" fill="#619266"/></g></g><ellipse cx="137.01584" cy="91.050835" fill="#bc5d44" rx=".932157" ry=".932157" stroke="#a2472d" stroke-linecap="round" stroke-linejoin="round" stroke-width=".120061"/><g fill-rule="evenodd" transform="matrix(.03955811 0 0 .03955811 56.85713 40.59563)"><g><path d="m2076 1235c8 81-77 142 46 225 27-81 32-166-46-225z" fill="#acb736" stroke="#43784b" stroke-linecap="round" stroke-linejoin="round" stroke-width="8.22533"/><path d="m2113 1449-9-7c-84-69-25-120-23-192v-6l6 5 1 1 3 15c11 57 0 116 20 178z" fill="#619266"/></g><g><path d="m2175 1740c-15-69-30-139-22-204 51-96 14-135 25-221-36 27-67 65-76 106-13-57-45-110-73-150-12 42-25 83-22 129-38-35-75-39-113-42 116 88 35 148 211 278l42 124z" fill="#acb736" stroke="#43784b" stroke-linecap="round" stroke-linejoin="round" stroke-width="8.22533"/><path d="m2152 1750-5-2-38-113c0-1-1-1-2-2-166-123-102-181-191-261l-10-8h10l8 4c81 47 110 190 202 260zm-52-326c2 2 6 1 6-2 6-30 25-58 49-82l18-15-11 29c-26 81-36 163-47 251-27-80-29-136-15-180zm-89-23v-10l1-7c1-21 4-42 9-64l4-20 6-20v1l10 67c12 72 31 144 59 215-68-36-90-92-89-159z" fill="#619266"/></g></g><ellipse cx="142.25431" cy="104.75509" fill="#bc5d44" rx=".932157" ry=".932157" stroke="#a2472d" stroke-linecap="round" stroke-linejoin="round" stroke-width=".120061"/><ellipse cx="142.44141" cy="119.67541" fill="#bc5d44" rx=".932157" ry=".932157" stroke="#a2472d" stroke-linecap="round" stroke-linejoin="round" stroke-width=".120061"/><g fill-rule="evenodd" transform="matrix(.03955811 0 0 .03955811 56.85713 40.59563)"><g><path d="m2297 1568c-68 184-158 370-120 525 160-177 161-352 120-525z" fill="#acb736" stroke="#43784b" stroke-linecap="round" stroke-linejoin="round" stroke-width="8.22533"/><path d="m2180 2084-4-21c-16-108 24-230 72-356l47-125 2 9-2 42c-9 122-32 246-71 371l-13 42-9 12z" fill="#619266"/></g><g><path d="m2012 1642c11 98 99 204 200 290 42-86-122-199-200-290z" fill="#acb736" stroke="#43784b" stroke-linecap="round" stroke-linejoin="round" stroke-width="8.22533"/><path d="m2210 1925-32-29c-79-73-143-157-159-237v-1l194 259z" fill="#619266"/></g><g><path d="m2185 1555c-25 152-71 312 0 418 116-169 78-298 0-418z" fill="#acb736" stroke="#43784b" stroke-linecap="round" stroke-linejoin="round" stroke-width="8.22533"/><path d="m2185 1965-8-14c-39-77-27-176-9-281l18-99 2 38c4 96 5 193 3 292l-2 59z" fill="#619266"/></g><g><path d="m2082 1639c25 151 40 312 108 405 23-180-33-300-108-405z" fill="#acb736" stroke="#43784b" stroke-linecap="round" stroke-linejoin="round" stroke-width="8.22533"/><path d="m2187 2032-5-9c-43-68-62-167-78-271l-14-87 7 25c28 93 54 187 78 284l13 52z" fill="#619266"/></g></g><g fill-rule="evenodd" transform="matrix(.03955811 0 0 .03955811 56.85713 40.59563)"><g><path d="m2312 1953c-103 88-155 263-174 436 131-23 132-283 174-436z" fill="#acb736" stroke="#43784b" stroke-linecap="round" stroke-linejoin="round" stroke-width="11.0608"/><path d="m2145 2381 7-56c22-139 68-272 145-351l2-1-144 405z" fill="#619266"/></g><g><path d="m2136 2419c36-120-5-43-77-248-19-56-16-180 39-191 21 57 62 112 68 210-15-93 52-264 107-304-63 156-40 316-85 520-5 21-8 50-1 72z" fill="#acb736" stroke="#43784b" stroke-linecap="round" stroke-linejoin="round" stroke-width="8.22533"/><path d="m2084 1989c7-2 5-8 9-5 9 185 63 212 60 363-2 8-24-35-6-11-68-82-140-256-63-347zm82 165c-9-49 69-252 87-244l4-4-13 25c-56 115-49 148-63 258-3-12 5 115-1 99-5-12-16-123-14-134z" fill="#619266"/></g></g><ellipse cx="141.20234" cy="135.40768" fill="#bc5d44" rx=".932157" ry=".932157" stroke="#a2472d" stroke-linecap="round" stroke-linejoin="round" stroke-width=".120061"/><g fill-rule="evenodd" transform="matrix(.03955811 0 0 .03955811 56.85713 40.59563)"><g><path d="m2230 2400c-99 79-218 148-219 257 178-33 217-136 219-257z" fill="#acb736" stroke="#43784b" stroke-linecap="round" stroke-linejoin="round" stroke-width="8.22533"/><path d="m2016 2652 1-14c10-70 71-124 140-177l66-51-18 25c-48 61-98 122-152 182l-32 34z" fill="#619266"/></g><g><path d="m2002 2373c-4 124-27 256 58 328 91-151 35-246-58-328z" fill="#acb736" stroke="#43784b" stroke-linecap="round" stroke-linejoin="round" stroke-width="8.22533"/><path d="m2059 2695-11-11c-48-53-50-133-46-217l4-82 7 30c17 74 32 151 43 229l6 46z" fill="#619266"/></g><g><path d="m1870 2825c112-65 131-155 172-280 19-61 79-151 138-165-13 52-26 104-50 156 44-31 90-63 137-94-56 154-145 275-312 374-19 12-40 32-52 53z" fill="#acb736" stroke="#43784b" stroke-linecap="round" stroke-linejoin="round" stroke-width="8.22533"/><path d="m1906 2831-7-20 11-8c81-63 100-147 135-257 17-53 65-127 115-154l14-5-2 7-9 8c-118 129-121 284-257 429zm222-291h2c1 0 2 0 3-1 22-15 44-31 67-46l58-40-1 2-4 4c-93 82-140 150-206 244 25-42 48-83 66-125z" fill="#619266"/></g></g><g fill-rule="evenodd" transform="matrix(.03955811 0 0 .03955811 56.85713 40.59563)"><g><path d="m2087 2761c-122 44-261 74-299 178 182 25 255-62 299-178z" fill="#acb736" stroke="#43784b" stroke-linecap="round" stroke-linejoin="round" stroke-width="8.3824"/><path d="m1800 2936-11-1 5 1 6-14c34-64 111-96 195-125l81-28-26 18c-67 44-135 86-208 127z" fill="#619266"/></g><g><path d="m1860 2689c-71 103-163 204-131 308 160-81 166-191 131-308z" fill="#acb736" stroke="#43784b" stroke-linecap="round" stroke-linejoin="round" stroke-width="8.22533"/><path d="m1732 2991-3-14c-12-70 30-138 80-208l48-68-10 29c-27 72-56 144-90 217l-20 41z" fill="#619266"/></g><g><path d="m1582 3085 149-128 212-227c-26 94-59 185-147 254 66-35 147-53 231-66-81 70-171 125-290 125l-121 53z" fill="#acb736" stroke="#43784b" stroke-linecap="round" stroke-linejoin="round" stroke-width="8.22533"/><path d="m1597 3086-7-3 144-123v-1l200-213h-1l-12 24c-69 119-179 226-316 311zm172-82 23-20 1 3c1 1 3 2 5 1 49-27 107-43 168-55l47-8-10 5c-78 39-164 70-234 74z" fill="#619266"/></g></g><ellipse cx="124.62122" cy="161.30264" fill="#bc5d44" rx=".932157" ry=".932157" stroke="#a2472d" stroke-linecap="round" stroke-linejoin="round" stroke-width=".120061"/><g fill-rule="evenodd" transform="translate(-264.58343)"><g transform="matrix(.03955811 0 0 .03955811 321.44056 40.59563)"><path d="m877 3386c102-32 288-170 393-188 109-17 221-26 335-25l195-82 27 2c-101-45-210-42-318 0 84-44 128-125 108-184-85 42-177 86-242 174l-104 85c-107 33-235 65-352 97-5 41-42 68-42 121z" fill="#acb736" stroke="#43784b" stroke-linecap="round" stroke-linejoin="round" stroke-width="8.22533"/><g fill="#619266"><path d="m1271 3172c1 0 2 0 2-1l105-85v-1c57-77 105-106 174-141l62-31 5 18-59 49c-54 60-126 85-198 152 41-2 84-5 111-22 6-5 13-9 20-12l13-8-1 1c-2 4 2 8 5 6 94-37 189-44 278-15l13 6c-1-1-2 0-2 0l-19 8h-25c-98 3-201 5-275 43l-209 34z"/><path d="m896 3376 21-37 8-26c10-3 43-31 325-118l29-2-5 1c-127 33-253 125-378 182z"/></g></g><path d="m356.13302 174.53939c1.26586-.51425 2.68996-1.70099 3.16465-4.86564-2.80862-.31647-3.40199 1.85923-3.16465 4.86564z" fill="#dfba72" stroke="#43784b" stroke-linecap="round" stroke-linejoin="round" stroke-width=".329583"/></g><g transform="matrix(-1 0 0 1 477.27231 -.000066)"><g fill-rule="evenodd" transform="matrix(.03955811 0 0 .03955811 321.44078 40.59563)"><path d="m2165 2203c-50-86-115-164-98-284 108 36 116 150 98 283z" fill="#acb736"/><path d="m2165 2203c-50-86-115-164-98-284 108 36 116 150 98 283" fill="none" stroke="#43784b" stroke-linecap="round" stroke-linejoin="round" stroke-width="6.14095"/><path d="m2067 1951 2-25 3 1 15 38c25 65 47 132 67 200l8 26-34-55c-34-56-63-112-61-185z" fill="#619266"/></g><g fill-rule="evenodd" transform="matrix(.03955811 0 0 .03955811 321.44056 40.59563)"><g><path d="m1757 829c42 132 75 272 155 347 4-162-66-262-155-347z" fill="#acb736" stroke="#43784b" stroke-linecap="round" stroke-linejoin="round" stroke-width="7.36678"/><path d="m1908 1167-8-8c-50-56-81-141-109-231l-24-79 12 24c38 79 75 160 110 243l19 46z" fill="#619266"/></g><g><path d="m1645 847c69 105 112 201 207 230-29-159-100-194-206-229z" fill="#acb736"/><path d="m1645 847c69 105 112 201 207 230-29-159-100-194-206-229" fill="none" stroke="#43784b" stroke-linecap="round" stroke-linejoin="round" stroke-width="6.35234"/><path d="m1848 1073-12-5c-62-27-109-94-155-167l-30-52 7 5c102 74 145 128 159 177l30 36z" fill="#619266"/></g><g><path d="m1574 974c112 72 222 161 325 151-97-140-209-161-325-151z" fill="#acb736" stroke="#43784b" stroke-linecap="round" stroke-linejoin="round" stroke-width="6.65585"/><path d="m1654 1023-66-44 29 12c76 32 152 66 228 104l45 22 3 5h-13c-72-1-148-47-226-99z" fill="#619266"/></g></g><ellipse cx="396.65921" cy="84.032181" fill="#bc5d44" rx=".932157" ry=".932157" stroke="#a2472d" stroke-linecap="round" stroke-linejoin="round" stroke-width=".120061"/><g fill-rule="evenodd" transform="matrix(.03955811 0 0 .03955811 321.44056 40.59563)"><g><path d="m1874 1031c36 113 64 234 133 299 4-140-56-226-133-299z" fill="#acb736" stroke="#43784b" stroke-linecap="round" stroke-linejoin="round" stroke-width="6.2685"/><path d="m2004 1322-18-21c-37-48-60-115-82-185l-21-68 10 21c32 68 64 137 95 209l16 40z" fill="#619266"/></g><g><path d="m1970 1033c-1 107-15 220 39 285 56-129 21-212-39-285z" fill="#acb736" stroke="#43784b" stroke-linecap="round" stroke-linejoin="round" stroke-width="5.48316"/><path d="m2008 1312-6-8c-31-48-33-117-31-190l2-70 4 25c11 65 21 131 29 199l4 40z" fill="#619266"/></g><g><path d="m1743 1096c85 97 165 211 266 228-53-158-153-207-266-228z" fill="#acb736" stroke="#43784b" stroke-linecap="round" stroke-linejoin="round" stroke-width="6.58263"/><path d="m2004 1320-13-3c-66-20-124-81-182-149l-55-64 25 19c63 51 125 103 187 159l36 33z" fill="#619266"/></g></g><ellipse cx="401.59927" cy="91.050835" fill="#bc5d44" rx=".932157" ry=".932157" stroke="#a2472d" stroke-linecap="round" stroke-linejoin="round" stroke-width=".120061"/><g fill-rule="evenodd" transform="matrix(.03955811 0 0 .03955811 321.44056 40.59563)"><g><path d="m2076 1235c8 81-77 142 46 225 27-81 32-166-46-225z" fill="#acb736" stroke="#43784b" stroke-linecap="round" stroke-linejoin="round" stroke-width="8.22533"/><path d="m2113 1449-9-7c-84-69-25-120-23-192v-6l6 5 1 1 3 15c11 57 0 116 20 178z" fill="#619266"/></g><g><path d="m2175 1740c-15-69-30-139-22-204 51-96 14-135 25-221-36 27-67 65-76 106-13-57-45-110-73-150-12 42-25 83-22 129-38-35-75-39-113-42 116 88 35 148 211 278l42 124z" fill="#acb736" stroke="#43784b" stroke-linecap="round" stroke-linejoin="round" stroke-width="8.22533"/><path d="m2152 1750-5-2-38-113c0-1-1-1-2-2-166-123-102-181-191-261l-10-8h10l8 4c81 47 110 190 202 260zm-52-326c2 2 6 1 6-2 6-30 25-58 49-82l18-15-11 29c-26 81-36 163-47 251-27-80-29-136-15-180zm-89-23v-10l1-7c1-21 4-42 9-64l4-20 6-20v1l10 67c12 72 31 144 59 215-68-36-90-92-89-159z" fill="#619266"/></g></g><ellipse cx="406.83774" cy="104.75509" fill="#bc5d44" rx=".932157" ry=".932157" stroke="#a2472d" stroke-linecap="round" stroke-linejoin="round" stroke-width=".120061"/><ellipse cx="407.02484" cy="119.67541" fill="#bc5d44" rx=".932157" ry=".932157" stroke="#a2472d" stroke-linecap="round" stroke-linejoin="round" stroke-width=".120061"/><g fill-rule="evenodd" transform="matrix(.03955811 0 0 .03955811 321.44056 40.59563)"><g><path d="m2297 1568c-68 184-158 370-120 525 160-177 161-352 120-525z" fill="#acb736" stroke="#43784b" stroke-linecap="round" stroke-linejoin="round" stroke-width="8.22533"/><path d="m2180 2084-4-21c-16-108 24-230 72-356l47-125 2 9-2 42c-9 122-32 246-71 371l-13 42-9 12z" fill="#619266"/></g><g><path d="m2012 1642c11 98 99 204 200 290 42-86-122-199-200-290z" fill="#acb736" stroke="#43784b" stroke-linecap="round" stroke-linejoin="round" stroke-width="8.22533"/><path d="m2210 1925-32-29c-79-73-143-157-159-237v-1l194 259z" fill="#619266"/></g><g><path d="m2185 1555c-25 152-71 312 0 418 116-169 78-298 0-418z" fill="#acb736" stroke="#43784b" stroke-linecap="round" stroke-linejoin="round" stroke-width="8.22533"/><path d="m2185 1965-8-14c-39-77-27-176-9-281l18-99 2 38c4 96 5 193 3 292l-2 59z" fill="#619266"/></g><g><path d="m2082 1639c25 151 40 312 108 405 23-180-33-300-108-405z" fill="#acb736" stroke="#43784b" stroke-linecap="round" stroke-linejoin="round" stroke-width="8.22533"/><path d="m2187 2032-5-9c-43-68-62-167-78-271l-14-87 7 25c28 93 54 187 78 284l13 52z" fill="#619266"/></g></g><g fill-rule="evenodd" transform="matrix(.03955811 0 0 .03955811 321.44056 40.59563)"><g><path d="m2312 1953c-103 88-155 263-174 436 131-23 132-283 174-436z" fill="#acb736" stroke="#43784b" stroke-linecap="round" stroke-linejoin="round" stroke-width="11.0608"/><path d="m2145 2381 7-56c22-139 68-272 145-351l2-1-144 405z" fill="#619266"/></g><g><path d="m2136 2419c36-120-5-43-77-248-19-56-16-180 39-191 21 57 62 112 68 210-15-93 52-264 107-304-63 156-40 316-85 520-5 21-8 50-1 72z" fill="#acb736" stroke="#43784b" stroke-linecap="round" stroke-linejoin="round" stroke-width="8.22533"/><path d="m2084 1989c7-2 5-8 9-5 9 185 63 212 60 363-2 8-24-35-6-11-68-82-140-256-63-347zm82 165c-9-49 69-252 87-244l4-4-13 25c-56 115-49 148-63 258-3-12 5 115-1 99-5-12-16-123-14-134z" fill="#619266"/></g></g><ellipse cx="405.78577" cy="135.40768" fill="#bc5d44" rx=".932157" ry=".932157" stroke="#a2472d" stroke-linecap="round" stroke-linejoin="round" stroke-width=".120061"/><g fill-rule="evenodd" transform="matrix(.03955811 0 0 .03955811 321.44056 40.59563)"><g><path d="m2230 2400c-99 79-218 148-219 257 178-33 217-136 219-257z" fill="#acb736" stroke="#43784b" stroke-linecap="round" stroke-linejoin="round" stroke-width="8.22533"/><path d="m2016 2652 1-14c10-70 71-124 140-177l66-51-18 25c-48 61-98 122-152 182l-32 34z" fill="#619266"/></g><g><path d="m2002 2373c-4 124-27 256 58 328 91-151 35-246-58-328z" fill="#acb736" stroke="#43784b" stroke-linecap="round" stroke-linejoin="round" stroke-width="8.22533"/><path d="m2059 2695-11-11c-48-53-50-133-46-217l4-82 7 30c17 74 32 151 43 229l6 46z" fill="#619266"/></g><g><path d="m1870 2825c112-65 131-155 172-280 19-61 79-151 138-165-13 52-26 104-50 156 44-31 90-63 137-94-56 154-145 275-312 374-19 12-40 32-52 53z" fill="#acb736" stroke="#43784b" stroke-linecap="round" stroke-linejoin="round" stroke-width="8.22533"/><path d="m1906 2831-7-20 11-8c81-63 100-147 135-257 17-53 65-127 115-154l14-5-2 7-9 8c-118 129-121 284-257 429zm222-291h2c1 0 2 0 3-1 22-15 44-31 67-46l58-40-1 2-4 4c-93 82-140 150-206 244 25-42 48-83 66-125z" fill="#619266"/></g></g><g fill-rule="evenodd" transform="matrix(.03955811 0 0 .03955811 321.44056 40.59563)"><g><path d="m2087 2761c-122 44-261 74-299 178 182 25 255-62 299-178z" fill="#acb736" stroke="#43784b" stroke-linecap="round" stroke-linejoin="round" stroke-width="8.3824"/><path d="m1800 2936-11-1 5 1 6-14c34-64 111-96 195-125l81-28-26 18c-67 44-135 86-208 127z" fill="#619266"/></g><g><path d="m1860 2689c-71 103-163 204-131 308 160-81 166-191 131-308z" fill="#acb736" stroke="#43784b" stroke-linecap="round" stroke-linejoin="round" stroke-width="8.22533"/><path d="m1732 2991-3-14c-12-70 30-138 80-208l48-68-10 29c-27 72-56 144-90 217l-20 41z" fill="#619266"/></g><g><path d="m1582 3085 149-128 212-227c-26 94-59 185-147 254 66-35 147-53 231-66-81 70-171 125-290 125l-121 53z" fill="#acb736" stroke="#43784b" stroke-linecap="round" stroke-linejoin="round" stroke-width="8.22533"/><path d="m1597 3086-7-3 144-123v-1l200-213h-1l-12 24c-69 119-179 226-316 311zm172-82 23-20 1 3c1 1 3 2 5 1 49-27 107-43 168-55l47-8-10 5c-78 39-164 70-234 74z" fill="#619266"/></g></g><ellipse cx="389.20465" cy="161.30264" fill="#bc5d44" rx=".932157" ry=".932157" stroke="#a2472d" stroke-linecap="round" stroke-linejoin="round" stroke-width=".120061"/><g fill-rule="evenodd"><g transform="matrix(.03955811 0 0 .03955811 321.44056 40.59563)"><path d="m877 3386c102-32 288-170 393-188 109-17 221-26 335-25l195-82 27 2c-101-45-210-42-318 0 84-44 128-125 108-184-85 42-177 86-242 174l-104 85c-107 33-235 65-352 97-5 41-42 68-42 121z" fill="#acb736" stroke="#43784b" stroke-linecap="round" stroke-linejoin="round" stroke-width="8.22533"/><g fill="#619266"><path d="m1271 3172c1 0 2 0 2-1l105-85v-1c57-77 105-106 174-141l62-31 5 18-59 49c-54 60-126 85-198 152 41-2 84-5 111-22 6-5 13-9 20-12l13-8-1 1c-2 4 2 8 5 6 94-37 189-44 278-15l13 6c-1-1-2 0-2 0l-19 8h-25c-98 3-201 5-275 43l-209 34z"/><path d="m896 3376 21-37 8-26c10-3 43-31 325-118l29-2-5 1c-127 33-253 125-378 182z"/></g></g><path d="m356.13302 174.53939c1.26586-.51425 2.68996-1.70099 3.16465-4.86564-2.80862-.31647-3.40199 1.85923-3.16465 4.86564z" fill="#dfba72" stroke="#43784b" stroke-linecap="round" stroke-linejoin="round" stroke-width=".329583"/></g></g><g fill-rule="evenodd"><g transform="matrix(.03955811 0 0 .03955811 56.857358 40.59563)"><path d="m1087 3058c1 48 64 83 113 108 16 9 34-8 36-22-63-50-87-98-91-120-18 8-70-8-58 34z" fill="#445f86"/><path d="m1287 3159 34 18c38-37 115-80 110-125l-68-8c10 17-50 81-76 115z" fill="#445f86"/><path d="m1099 3036c12-2 6-14 22-10 12 35 62 102 112 130 5 3-28-4-22 7-49-30-116-92-112-127z" fill="#ececec"/><path d="m1383 3046c-10 33-38 79-76 105l-2 13c42-20 96-71 112-124z" fill="#e6e6e6"/><g fill="#5a8fd3"><path d="m1261 3213c11 46 14 98 38 132l74.6652 107.1104 109.0787-28.7275-96.7439-96.3829c-69-71-66-98-84-140z" fill="#5a8fd3"/><path d="m1274 3210 15-8c10 28 38 100 74 136 30.9908 33.2029 60.8393 65.492 86.302 94.2723l-44.969 11.9205c-22.978-28.6647-50.6947-63.6477-80.333-101.1928-31-33-36-87-50-133z" fill="#fff"/><g fill-rule="evenodd" transform="matrix(-1 0 0 1 2522 0)"><path d="m1261 3213c11 46 14 98 38 132l74.6652 107.1104 109.0787-28.7275-96.7439-96.3829c-69-71-66-98-84-140z" fill="#5a8fd3"/><path d="m1274 3210 15-8c10 28 38 100 74 136 30.9908 33.2029 60.8393 65.492 86.302 94.2723l-44.969 11.9205c-22.978-28.6647-50.6947-63.6477-80.333-101.1928-31-33-36-87-50-133z" fill="#fff"/></g></g><path d="m1141 2988c171 29 164 6 254 1 46 17 44 37 34 78-94-47-137 11-190-8-72-26-149-16-150 2-6-36 13-64 52-73z" fill="#5a8fd3"/><path d="m1105 3005c-14 11-20 32-19 40 33-12 73-26 126-14 64 22 85 1 121-5 80-7 95 7 99 24 3-13 7-31-7-44-36-10-65-4-93 3-51 17-100 10-153-3-37-8-55-4-74-1z" fill="#fff"/><path d="m1207 3166c4-11 9-21 22-26 23-7 44-6 64-2 17 1 26 15 35 31 1 10 2 19-5 32-17 29-30 22-45 28-11-1-19-1-37-4-20-1-35-15-35-20-2-12-2-25 1-39z" fill="#5a8fd3"/><path d="m1251 3138c-17 19-15 52-4 90 6 2 13 5 23 1 40-41 19-80 12-93-7-3-25-3-31 2z" fill="#fff"/></g><g stroke-width=".036146"><path d="m132.50579 118.01549c0 21.39238-11.71809 38.74272-26.14297 38.74272-14.424894 0-26.142983-17.35034-26.142983-38.74272 0-21.430524 11.718089-38.780858 26.142983-38.780858 14.42488 0 26.14297 17.350334 26.14297 38.780858z" fill="#fcfcfd"/><path d="m80.219837 118.47309c0-21.392404 11.683824-38.742732 26.142983-38.742732 14.42488 0 26.10871 17.350328 26.10871 38.742732v.22878l-26.10871-.22878z" fill="#6ca2e8"/></g></g><path d="m116.1663 127.61663c-.24036-.24816-2.18187 8.41853-1.37899 8.47468" fill="none" stroke="#1b1e2b" stroke-linecap="round" stroke-linejoin="round" stroke-width=".113842"/><path d="m110.26292 104.68672c-2.87411-.36155-5.86967-.52589-9.22954.0657-13.358558 4.63439 25.01693 3.97702 9.22954-.0657z" fill="#d40000" fill-rule="evenodd" stroke-width=".036476"/><path d="m96.02029 126.6067c.279378-.52133 2.413165 8.19054 1.433441 9.48461" fill="none" stroke="#1b1e2b" stroke-linecap="round" stroke-linejoin="round" stroke-width=".113842"/><path d="m105.47709 104.57618.0539 41.73245c0 .59449.40063 1.07009.85467 1.07009s.82796-.4756.82796-1.07009l-.0536-41.77379z" fill="#b2501c" fill-rule="evenodd" stroke-width=".028176"/><path d="m106.56586 104.76985.00022 41.92888" fill="none" stroke="#f59b45" stroke-linecap="round" stroke-linejoin="round" stroke-width=".535724"/><path d="m1232 1454 1 65s30.7561-17.3934 52.7561-.3934l1.2488-63.6066z" fill-opacity=".46988" fill-rule="evenodd" transform="matrix(.03011432 0 0 .0297245 68.404968 61.459329)"/><path d="m105.47709 104.57618.0539 41.73245c0 .59449.40063 1.07009.85467 1.07009s.82796-.4756.82796-1.07009l-.0536-41.77379" fill="none" stroke="#ad4e1a" stroke-linecap="round" stroke-linejoin="bevel" stroke-width=".111537"/><g fill-rule="evenodd" transform="matrix(.0342634 0 0 .0381326 63.43021 43.771316)"><g transform="translate(.003438 -161.55969)"><path d="m1044 2481c12-10 21-21 27-31l49-2c-8 17-20 32-38 42-17 8-28 3-38-9z" fill="#d6572e"/><path d="m1042 2483 1-4c11-10 20-20 26-30l2-2 49-1 3 3c-9 18-21 33-40 43-18 9-31 4-41-9zm33 7 6-2 12-8c7-6 13-13 18-21l5-8-43 1-11 15-14 14-2-2c8 10 17 15 29 11z" fill="#7f4100"/><path d="m576 2419 1-3c166-27 353-68 520-115 24-17 52-30 81-40 41 2 79 7 116 12l168 201-14 18 7 8-22 15-22-11c-4 21-19 24-38 20-15 14-30 20-47 9l-28 14-56-18c-55-22-107-47-157-74l-388.84746 121.992-42.15254 10.008c-34-58-56-108-78-168z" fill="#f4992b"/><path d="m931.888 2505.2822c44.78618-17.0963 93.1551-34.1416 152.112-52.2822h2c38 20 76 39 116 57l41 17 55 17 27-13h2c16 10 30 5 44-9l2-1c19 4 32 1 36-18l3-2 21 11 26-38-167-198-55-8c-9-1-19-2-29-2l-30-3-21 8c-21 9-41 19-58 32h-1c-171 49-356 86-525 113l-3-5c145-23 298-52 443-90l83-22 18-12c20-12 41-21 63-29h1c42 3 79 7 116 13l2 1 168 200v3l-7 24-23 18h-2l-19-10-1 5c-5 12-15 16-26 16l-12-2-11 9c-10 6-21 8-32 4l-5-3-27 13h-1l-57-18c-42-16-81-35-119-54l-37-19-72 23c-29.00113 10.2004-54.28197 19.6407-77.29869 28.6411z" fill="#7f4100"/><g fill="#d6572e"><path d="m932.31223 2472.7999 113.68777-32.7999 37-2 208 90c5 0 12-3 15-11 5 5 10 8 12 12l3 4-23 11-55-17-41-17c-40-18-78-37-116-57h-2c-49.0937 15.1613-97.66609 31.8863-145.34098 50.1749z"/><path d="m1296 2503c15-4 32-11 42-22 10 10 19 22 26 33l5 10c-2 2-5 5-9 7-20 20-46-9-64-28z"/><path d="m1380 2522h-3l-3 1c-13-10-28-36-37-47 13 2 25-6 38-22 10 10 22 29 31 43l3 6c-3 17-14 21-29 19z"/><path d="m1433 2512-17-8c-21-20-32-38-51-60 15-2 28-13 39-25 16 27 49 43 47 80l-2 2z"/></g><g fill="#7f4100"><path d="m1324 2535-78-68 4-4 77 68z"/><path d="m1265 2417 3-3c25 31 74 53 107 108l-5 2c-33-56-78-72-105-107z"/><path d="m1316 2400 4-3c25 38 65 51 94 105l-4 3c-30-55-68-65-94-105z"/></g><path d="m1453 2491c-17-32-38-64-70-96-24-15-42-31-54-47-17-8-30-16-40-24-15-1-24-5-33-9-20 13-39 23-59 31-23-3-39-8-33-24 15-14 29-33 41-56 4-6 12-9 26-13 10-1 46-1 77 0 28 11 106 55 155 95 42.1421 8.2576 82.014 17.5692 121.0471 27.4269l-16.1751 153.9714c-37.3938-14.3572-74.9923-27.1924-114.872-38.3983z" fill="#f4992b"/><path d="m1484 2498-30-9-13-23-11-18 130.9835 37.2918-12.0843 34.6283c-21.9882-8.0302-43.643-15.3959-64.8992-21.9201z" fill="#d6572e"/><path d="m1411 2422-1-1c-8-10-16-19-25-28-24-15-42-31-54-46l-1-1c-17-8-30-16-39-24l-2-1c-14-1-23-4-32-8h-2c-10 6-20 12-30 17l-18 8-4-3c16-13 41-25 37-45 15 7 49 20 66 15 9-3 14 18 22 19 0 30 75 71 120 57z" fill="#d6572e"/><path d="m1083 2489 78-37c15 4 25 11 25 31-16 15-35 30-61 41-31-3-41-17-42-35z" fill="#f4992b"/><path d="m1080 2489 2-3 78-36h2c15 4 27 12 26 33l-1 2c-16 15-35 30-61 41h-1c-33-2-43-17-45-37zm45 32 17-8c11-6 21-13 29-21l12-10v-5c-1-10-6-15-13-19l-9-3-75 35v5c2 12 10 21 29 25z" fill="#7f4100"/><path d="m1125 2521-10-1c-19-4-27-13-29-25v-5l27-13 3 6c7 14 19 27 39 21v1l-13 8z" fill="#d6572e"/><path d="m1138 2517 56-50c19-6 30 6 35 17l-43 61c-25 1-38-9-48-28z" fill="#f4992b"/><path d="m1136 2518 1-3 55-50 1-1c21-6 33 8 38 19v3l-43 61-2 1c-26 1-40-10-50-30zm48 25 42-59-4-6c-5-6-12-11-21-10l-6 1-53 49 6 10c7 9 16 13 29 14z" fill="#7f4100"/><path d="m1184 2543-7-1c-13-1-22-5-29-14l-6-10 15-15 5 7c6 8 15 15 26 17l8-1z" fill="#d6572e"/><path d="m1187 2547 42-60c9 1 18 5 25 17-4 19-16 38-35 58-18-3-31-7-32-15z" fill="#f4992b"/><path d="m1185 2548v-2l42-60 2-1c10 0 20 5 27 17l1 2c-4 20-17 40-36 59l-2 1c-17-2-33-6-34-16zm33 11 12-13c8-10 14-19 18-29l4-13-5-6c-4-4-8-6-12-7l-5-1-40 58 2 3c2 2 7 4 15 6z" fill="#7f4100"/><path d="m1218 2559-11-2c-8-2-13-4-15-6l-2-3 14-20 1 1c6 6 13 11 21 13h7l-3 4z" fill="#d6572e"/><path d="m1450 2493c-12-24-27-48-47-72l-21-24-17-11c-11-8-20-16-28-24l-9-12-12-6c-8-4-15-8-20-12l-8-6-10-1c-3-1-6-1-8-2l-14-5-28 16c-10 5-20 10-30 14h-1c-21-2-43-8-35-27l1-1c14-13 27-32 40-55v-1c5-6 14-10 28-13 10-1 46-1 77 0h1c25 9 88 44 136 80l19 15 74 16c107 24 215 56 326 82l45 11-4 3-22-5c-144-32-282-75-420-102l-1-1c-46-38-118-78-149-92l-6-2-23-1h-48l-4 1-9 2c-6 2-10 4-13 6l-3 3-9 17c-7 11-14 20-21 28l-10 11-1 4c-1 8 7 12 23 15l8 1 28-13c10-5 20-11 30-17h2c9 4 18 7 32 8l2 1c9 8 22 16 39 24l1 1c12 15 30 31 54 46 24 24 42 49 56 73l13 23 30 9c18.9665 5.8214 38.5678 12.4186 58.6383 19.6327l-2.1697 4.6881c-29.0405-10.4545-59.0613-20.3143-90.4686-29.3208z" fill="#7f4100"/></g><g fill="#fcca5a"><path d="m1187.0034 2137.4403 25 6c-6 14-24 34-45 18 30-32 14-16 20-24z"/><path d="m1143.0034 2305.4403c15 20 17 20 17 20 5-4 11-7 12-13-2-5-1-9-13-14z"/><path d="m1187.0034 2321.4403c14 14 19 13 22 15 4-4 5-7 7-9 2-3 2-8 0-11-4-4-13-9-17-6-4 1-7 4-12 11z"/><path d="m1224.0034 2343.4403c9 9 16 9 17 9 2-2 5-5 6-10-7-9-13-8-17-8z"/></g><path d="m1422.0034 2338.4403c3-13 20-13 20-13 4 6 4 8 4 11-3 3-5 5-12 9-3-2-6-1-12-7z" fill="#f4992b"/></g><g fill-rule="evenodd" stroke="#1b1e2b" stroke-linecap="round" stroke-linejoin="round" stroke-width=".113385"><path d="m131.31172 129.14202-15.14542-1.52539c.98002 2.01287.16313 7.72127-1.37899 8.47472 4.38117 1.1837 8.83553 2.52571 13.37578 3.07313 2.9354-6.2321 2.45388-6.8772 3.14863-10.02246z" fill="#263256"/><path d="m116.59001 130.41287c-.0432 2.37212-.75584 5.167-1.8027 5.67848 4.38117 1.1837 8.83553 2.52571 13.37578 3.07313 1.49721-3.1787 2.1055-4.90392 2.43433-6.24876-4.51001-.78839-11.46866-1.93305-14.00741-2.50285z" fill="#1b1e2b"/><path d="m81.28136 129.14176 14.73893-2.53506c-.980018 2.01286-.108676 8.73116 1.433441 9.48461-4.38117 1.1837-8.1101 1.59201-13.023738 3.07291-2.935403-6.23211-2.453882-6.8772-3.148633-10.02246z" fill="#263256"/><path d="m95.606373 129.41675c.02001 2.71059.77001 6.14819 1.847358 6.67456-4.38117 1.1837-8.1101 1.59201-13.023738 3.07291-1.427317-3.03031-2.046764-4.73968-2.386392-6.05782 4.494983-1.47976 9.585039-1.87112 13.562772-3.68965z" fill="#1b1e2b"/></g><path d="m132.47143 118.20615c0 21.39238-11.68382 38.74273-26.10871 38.74273-14.459154 0-26.142979-17.35035-26.142979-38.74273 0-21.430523 11.683825-38.780854 26.142979-38.780854 14.42489 0 26.10871 17.350331 26.10871 38.780854z" fill="none" stroke="#5a647b" stroke-opacity=".992157" stroke-width=".586424"/><g fill-rule="evenodd" stroke-width="1.00913" transform="matrix(.0342634 0 0 .0381326 61.780733 43.771316)"><path d="m1104.2635 1368.1869c3.5444 7.7575-2.3629 16.3769 16.5403 22.4104 33.0806 5.1717 40.1693-.8619 59.0725-5.1716-8.2702 8.6194-25.9919 36.2014-44.8951 63.7834-25.8086 34.7918-39.271 74.9002-57.1408 113.8156l447.5291 6.7564c-33.4827-216.8831-172.3326-350.1344-324.2271-293.8216-41.3508 21.5485-87.4273 37.9253-96.8789 92.2274z" fill="#e13925"/><path d="m1118.4409 1389.7354c16.5403 6.8955 40.1693 6.8955 60.2539-2.5858 41.3508-36.2014 83.8829-50.8544 120.5079-54.3021-33.0806-4.3097-69.7056-17.2388-118.145 33.6156-20.0846 2.5858-41.3507 10.3432-62.6168 23.2723z" fill="#f6673e"/><path d="m1182.2392 1447.4853c-59.0725 27.582 72.0684-18.9627 187.8504-7.7575-29.5362-24.1343-61.4353-44.8208-187.8504 7.7575z" fill="#ee4f2a"/><path d="m1061.7314 1648.3169-3.4926-85.3588c64.9279-65.4804 453.6247-55.1372 484.6302 13.7172.6751 30.2793.9597 64.0857-20.3724 78.5371 0-1.7239 1.1814-6.0336 0-7.7575-132.3223-71.5408-385.1525-49.9924-460.7652.862z" fill="#f4582e"/></g></g></svg>