<svg height="600" width="900" xmlns="http://www.w3.org/2000/svg"><path d="m0 0h900v600h-900z" fill="#ffce00"/><path d="m0 0h900v400h-900z" fill="#d00"/><path d="m0 0h900v200h-900z"/><path d="m420.25 500.53c-96.021 0-173.88-77.846-173.88-173.87v-225.32h347.75v225.32c0 96.03-77.84 173.87-173.87 173.87" fill="#d00"/><path d="m594.28 325.73c0 96.246-78.025 174.27-174.28 174.27-96.257 0-174.27-78.025-174.27-174.27v-225.73h348.56v225.73m-174.29 166.07c91.727 0 166.09-74.955 166.09-166.67v-216.92h-332.17v217.52c0 91.71 74.36 166.07 166.08 166.07z"/><path d="m425.64 233.18c3.204-.84814 3.3901-6.8455 2.644-9.8942-2.7111-4.9693 4.4616-9.2926 1.2188-14.969-.14875-3.5058-4.6108-5.5783-2.2188-8.9375 1.5957-6.5431-1.2893-13.614-6.4998-17.5-.0515-5.8483-.29351-13.978-6.9999-16.156-4.4772-.5258-2.6282-4.9606-4.5008-7.782-1.9899-2.5234-4.9242-3.2801-5.6561-6.6562-3.2844-5.8681-12.258-1.0286-15.094-6.8122-2.6821-5.0359-2.6991-11.088-4.2496-16.25-5.6077-1.445-7.1792 5.464-8.3434 9.3442-2.7945-1.8134 3.6093-7.6565-3.9378-5.0938 1.5872-6.6506-5.3798-3.9351-6.7811-.2501-.29118 4.8049-5.8106 2.1794-8.75 4.3436-3.8447 1.6731-3.944 7.6158-1.3436 10.281-3.4433 2.2083-10.666 1.022-10.844 6.9374-4.4814 3.6526-9.0618 6.7874-13.5 10.688-4.2671.49309-6.5198 4.4208-9.6563 6.8438-2.2808 4.6985 1.426 9.358-.0937 14.312-.91673 7.6423 9.8987 3.5482 10.691 8.1827 1.6933 5.0083 7.9021 2.0697 11.622 2.9734 5.5479-.6229 4.8338-10.165 11.219-7.7188 3.4677 1.3814 7.0227-1.105 10-1.1562 4.1742 5.2123-.35133 12.433-3.8124 16.875-5.778 6.396-12.69 13.43-12.687 22.812-2.3408 3.6818-7.0768 5.631-8.4375 10.219-1.9093 2.03-.0578 10.405-4.4694 6.1251-5.3279-2.7181-11.738-3.4152-15.219-8.8122-4.8618-1.3261-10.453-1.3265-15.469-1.2187-4.2335.87671-5.7631 5.1112-7.2498 8.4374-5.0015 5.714-9.8838 12.836-16.562 17.156-2.4547 2.8248-7.1576 4.1295-7.3125 8.4374-2.7294 5.1628.97158 10.98-.36018 16.642-.52851 5.0371-.67416 10.872 5.4535 12.171 3.0347 2.4324 6.9593 6.9511 10.906 4.8437 2.8303-7.2359 6.1997-15.389 3.719-23.094-2.4069-1.6911-3.5014-4.4424-6.4375-5.3436-1.1586-3.8707 3.5132-7.1495 5.1872-2.3437 7.0472-1.2036 8.3746-9.9408 11.594-15.344 1.717-6.5614 11.296-6.8329 13.969-.8752 3.419 4.8612 7.7909 10.06 11.438 14.344-6.4792-.007-12.545-2.6026-18.188-5.187-4.7151-1.379-7.2008 2.7684-8.8436 6.25-4.7012 2.3872-6.9062 8.4036-4.1564 13.031 1.0205 10.215 1.3642 20.57-1.1639 30.516-2.048 5.3937 2.7149 8.966 2.5552 14.052.43025 4.6563 4.7021 7.281 4.827 11.901 1.9688 4.2131 7.7026 3.7348 11.532 5.8436 5.2342 2.2569 9.9203-.92659 7.9524-6.5155-.30162-5.9748.31968-13.997-4.7332-17.985-3.9676-.99583-11.323-.80917-8.5-7.25 3.7128-1.5427 7.438-2.5749 4.9376-7.5938-2.6171-6.6117-6.0746-13.446-4.0622-20.858 2.2765-5.1326 9.8934-1.8458 12.218 1.7956 7.9535 8.3397 16.888 17.073 28.874 19.063 5.9036.28935 10.708 7.7494 16.906 4.6249 1.3944-4.3774 5.5592-3.6232 9.0563-1.6684 6.7526 2.8251 12.689 7.4946 20.006 8.9804 11.78 4.0538 24.533 3.204 36.625 1.0002 6.24-.62283 12.24 2.9946 14.812 8.4374 3.5737 4.9562 9.9834 2.9624 15 4.0008 3.197 6.153 10.779 5.0637 16.688 5.7811 8.4511 4.3765 11.815 14.254 15.406 22.469 4.5266 9.78 4.128 22.21-3.0312 30.469-2.0008 4.4663-9.4698 4.0889-8.9684 10.063-1.2016 5.1864-6.9463 10.047-6.0936 16.094 5.8281 2.2353 13.024.81417 19.051-.60325 6.3891-1.0415 13.39-5.8213 11.637-13.24-2.8799-3.6526-.9774-7.803 2.2498-10.5 1.2744-3.196 3.044-5.6684 6.75-5.2499 4.8363 1.7276 2.7317-6.0001 2.4688-8.7812-.68622-4.9353-4.5958-8.6171-5.8438-13.563-.97453-3.2612-3.7164-12.912 1.6564-7.3438 6.2513 6.2984 11.636 13.681 12.874 22.844 2.3217 7.5538.66755 15.386-1.3742 22.719-2.0459 4.0518-4.8823 7.9241-9.1249 9.7188-1.3948 2.9757-2.3632 5.9283-4.3754 8.7188-1.2402 4.1902-5.9254 8.4097-3.7186 12.688 9.4572 1.6983 20.444.17064 27.844-6.2182 3.1954-5.2999-2.534-12.565 3.0681-16.958 1.769-3.5402 4.9431-5.0998 8.8233-5.5728 5.0956-1.1135 3.2185-8.5115 2.3584-12.281-3.4869-7.1355-7.4938-14.104-8.4685-22.219-2.0075-5.1633-3.929-10.768-2.9992-16.281-2.3244-7.6888-12.474-7.6106-16.345-14.062-3.1224-4.7397-6.2936-9.622-10.656-13.531.2498-6.4297 2.6181-13.264-.00075-19.781-2.298-6.1966.26619-13.288-2.437-19.594-.57241-3.2044-2.3304-6.144-3.0622-9.125 6.8598.68885 13.853-2.957 16.406-9.3436 4.3991-4.1936 9.7818 3.1744 6 7.1875-2.5649 4.1445-7.0417 7.7521-6.6559 13.312-1.193 8.8782 4.1979 16.434 10.531 21.75 3.251 3.9405 1.6082 11.374-3.9374 8.8124.0112 5.9067 7.6693 3.144 10.469 1.0313 2.5357-4.8503 3.7959-8.116 3.0624.0937-.37567 2.9371-7.2746 6.5662-.62483 5.5938 4.7681-1.2762 5.8891-6.8402 6.9062-10.719-.70519 6.9208 3.4363 2.7514 3.4996-1.3124 1.1826-.73198.89514 8.8811-.81195 11.906-2.0062 4.2338-9.8542 7.916-12.469 2.7499-3.7867 4.4686 5.436 7.4088 9.0938 5.4376 9.0194-2.3408 14.762-11.76 15.063-20.656-.28261-4.0686-2.6702-7.457-4.2506-10.937 4.2813 2.9968 10.531 2.3167 12.312-2.9373 2.0381-7.2351-4.795 2.2449-7.6876-2.75-4.8312-7.1936 3.1485-14.166 2.4368-21.656 1.8528-6.7682-2.0313-13.136-5.9055-18.156 2.1269-8.3589 1.8753-18.614-5.4374-24.344-3.592-4.348-9.9273-3.9095-14.969-4.5-4.1582-9.0208-16.957-8.3256-24.875-4.6566-10.508 4.1197-16.275 19.313-8.8128 28.467 4.7738 2.3091 7.7936 9.8232 2.1565 12.906-5.1359 4.1265-12.037-.58918-16.594-3.4374-9.2248-7.6035-21.441-11.814-33.595-10.674-12.831 1.4273-25.992-1.5836-37.28-7.5119-3.4871-2.0024-2.1353-3.5192.0937-5.9062.53649-1.9048 1.9838-2.9369 2.6683-4.6059z"/><g fill="#fff"><path d="m425.02 233.98c-3.4123-2.8901.0223-6.6046-1.3336-9.976-4.2638-4.3514-4.8242-3.9948-1.2812.9063-2.7592 1.631-6.362-4.1305-7.7188-5.625.94631 4.9437 7.1118 6.2504 7.3436 11.719-.547 5.41-2.3546 6.3482-2.5.53125-.43066-4.4685-6.6119-4.7031-6.5312-9.4688-1.4521 2.7132 2.4124 5.8033 4.5938 7.4686 1.9347 2.6686 1.5337 9.4128-2.7187 8.8125 2.8315-4.2617.0809-8.1267-3.4688-10.375-2.9278-3.8829-.75606 4.5354.15625 7.9688-2.3452-4.7739-.0774 8.8045 3.1436 4.5288 10.536 8.9136 24.993 13.135 38.7 12.721 8.6429.28398 17.667-.53463 25.844 3.0616 9.9882 3.0293 16.909 12.331 27.738 12.944 5.863.0891 11.062-6.1062 8.0219-11.702-1.1385-4.9534-7.7784-6.8006-7.8853-12.334-1.5242-7.1704 2.6663-14.859 9-18.219 5.6715-3.7086 14.191-4.3888 20.35-1.3631 3.3082.96612 2.9059 6.1723 6.6817 5.8004 6.1648-.35 12.299 1.7978 15.406 7.4058 4.463 5.7938 1.3882 13.429 2.031 19.938 2.9512 4.531 6.4672 9.1542 5.6874 15.094-.10445 5.3003-1.8087 10.737-4.1558 15.188.0514-6.0762 3.3086-12.309.4375-18.187 2.281 7.8952-4.0645 15.617-.8128 23.375.86755 3.4904 3.52 6.7579 6.5624 7.6874-7.5417.37045-12.936-8.1387-10.984-15.271.14541-5.8846 2.7634-13.192-2.3588-17.729.30179 3.6452 1.763 9.5796.59395 14.156-2.4282 7.2863-1.8258 15.846 3.2814 21.688 5.0608 7.5779 3.9463 20.149-4.0629 25 .35544-2.2888 2.7215-5.7189 2.3431-8.8748 2.8846-8.358-3.9199-15.049-8.406-20.906-5.144-6.7257 1.1024-14.99-1.6872-22.031.15449 2.519.34274 6.6626-.78105 9.7813-2.1797 6.8176.89041 13.463 5.1206 18.53 3.3278 8.8995.15237 5.5416-2.8898 1.0354-3.1096-5.2953-9.6418-8.9915-9.4496-15.941-1.4483 3.8967 1.7379 9.1092 4.9373 11.906 3.3009 4.4661 6.583 10.688 3.7811 16.25-1.5495-4.9514-2.6389-11.752-8.0622-14.531-4.2653-3.717-7.5044-8.7166-7.2186-14.688-1.7482 4.3931 1.4773 10.48 4.5311 14.219 2.8288 3.1834 5.9604 9.8258 2.1561 12.937.31737-5.6446-3.3258-9.8446-7.375-13.125-5.2421-5.237-6.0848-13.73-4.125-20.594 4.0436-4.1551 9.6508-10.226 5.1562-16.219-1.1732-2.0395-8.1795-2.016-3.3125-3.8746 3.3306-2.7622 9.0829 7.5897 7.6876 2.4684-2.2648-5.4136-10.881-6.0978-13.062-.37515-1.6863 8.3871-11.892 12.642-19.406 8.8751-5.8917.35852 3.5952 4.8862 3.125 8.4062 2.5724 6.6458 3.3774 14.154 2.406 21.313 2.5207 6.8294 3.5544 14.758.30569 21.45 3.7806 2.6596 7.4398 6.86 9.8508 11.238 2.717 4.6438 5.9829 9.3412 11.312 11.344 2.5415 1.9592 6.7718 3.905 6.5312 7.4374-.10331 7.8438 3.2089 15.511 5.4367 23.031 1.454 7.8029 8.4485 13.874 6.781 22.438-2.5542 2.8887-8.5719-.73375-8.4708 3.115-.90212 4.5366-5.7836 7.0689-6.9979 11.416-7.5163-1.0892 6.021 4.8654.70183 5.1454-3.6718-2.8082-10.101-2.3205-13.483-2.6765 4.7144 2.4023 12.69.46196 14.658 6.6187-5.5455 6.0312-14.933 7.051-22.752 6.6933-3.1122-1.9863 1.3473-5.9274 2.0323-8.5929 1.2677-3.4234 4.6738-5.5565 4.4185-9.4105 5.402-2.1077 8.2515-7.7997 11.238-12.433 1.19 4.8817 2.5003.59025 6.8099-.51908.0451-2.1626-7.9269-1.1144-6.4348-5.2935 2.4649-6.5566-.38823-13.791-1.5232-20.406-1.3498-6.0686-4.3702-11.041-8.2261-15.688-3.7657-5.7083-9.9573-8.4998-16.312-10.344-7.8674-2.0294-15.136-6.023-20.282-11.906-3.366-2.7762-6.6756-5.695-11.219-6.4062-6.1344-.77051-9.8717-5.97-11.594-11.5-3.6534-6.7033-12.113-9.3875-19.219-9.687-3.4998.67133 5.5058.93355 7.5937 2.156 4.3438 1.4803 9.7243 4.251 10.625 9.031-3.6134.8847-8.8446 1.1506-10.625-3.1875-3.9352-3.6693 5.0906-2.7445-4.2492-3.8193-13.347 2.0431-26.925 6.2305-40.508 3.175-9.9296-1.2491-18.858-5.9032-27.43-10.637-5.9356-.94099-4.7319-4.3512.5625-2.1876 3.4974 2.0264 3.5734 1.1836 1.2812-2.25-1.7824-2.2738 1.856-12.046 1.167-4.782.25654 13.062 2.5242.94381 2.2393-4.9055-4.8296 1.3566-7.3465 5.7679-10.594 9.1249-3.8969.7767-4.9933 4.7173-6.7187 7.5625-6.1934.2046-9.9858-6.2596-16.406-5.812-8.6088-2.6555-16.225-7.5984-22.469-14.125-4.3594-4.7764-10.361-12.122-17.656-8.3753-2.9999 2.6989-4.5712 8.109-3.4686 11.719 1.3439-6.7202 1.1306 3.7962 2.1248 5.9687.2785 3.9377 5.5768 7.7847 2.8747 11.406-6.2804.62957-5.9465 9.3417-1.812 12.375-.70423 4.7103 6.239-2.409 8.5938 2.2812 2.3755 5.9451 3.1012 13.182 1.5312 19.25-4.4558-.1289-9.2425-2.171-13.375-3.3124-3.5781-1.0357-.24846-4.7836-3.2812-6.5-3.1602-3.7184-2.8726-8.9175-3.75-13.469 4.5738 2.0317 5.1506-9.5962 1.6874-2.0937-4.0766 4.3078-3.6883-3.7946-2.5627-6.7812 1.9629-9.5772 1.2407-19.611.5622-29.188-2.4068-4.4016.11777-8.5963 3.7499-11 1.8219-3.3214 5.316-7.3345 9.3438-4.125 7.5811 4.4526 16.412 3.6055 24.594 6.031 5.5665 2.0638 10.611 5.1309 14.312 9.6249.8961-2.0188-8.5042-8.1708-1.4374-6.1874 3.0077 1.1291 5.5306 5.2852 9.125 3.9374-2.4183-1.6059-5.9817-2.8656-8.5306-4.937-4.657-.84291-5.9549-3.4723-3.5314-7.8748 2.9687-5.9978-.39023-13.112 3.241-19.054 1.596-5.0648 6.4982-7.8518 10.58-10.443 2.9239-3.5003 7.316-4.6267 11.335-6.2843-4.387-.35106-10.237 2.6449-13.531 6.4686-6.41 1.7484-10.259 8.2471-11.719 14.531-.38833 5.2105.6254 10.551-2.5558 15.084-.52036 3.385-1.041 7.8853-5.0062 4.3222-3.4465-2.9133-1.3301-9.1953.12445-13.094 2.8772-6.6915-1.4086-14.444 2.5637-20.969 2.79-5.5924 3.6564-2.8828 1.9556 1.9016-1.2233 2.1349 1.237 10.516 1.5444 5.2858-1.9586-7.3641 5.1852-12.708 5.0914-19.8.7195-8.8413 8.5456-13.96 13.252-20.513 2.9418-4.5342 5.4479-10.174 4.1874-15.875 1.9009 1.0526 7.8796-1.1209 7.2812-.93745-5.0332 4.3702-1.0034 3.4777 1.7812-.71875 1.3101-3.6727 6.595-4.6728 6.7502-9.1248 2.2554-9.3712-.23834-11.617-1.4186-2.1425-.64808 7.1766-9.8039 11.22-16.019 7.6427-4.927.0368-9.3538 4.1136-14.562 2.0623-.94399-5.3292-2.4529 2.9139-5.4687 3.3124-2.1718 9.3141-5.2878.78242-9.4376 4.8438-6.314.26976 3.7956-1.4942 3.9375-5 4.0397-2.4845 4.6056-6.2177-1.4062-4.6875-4.2167 1.2007-6.5486 7.104-11.75 4.8436-4.5272 1.0559-7.376-4.6814-4.1563-7.6248.1044-3.5195-3.1918-8.4819 1.3438-10.5 1.7116-3.5994 5.5748-3.4781 8.4375-5.3124 2.8077-5.8003 10.618-6.3747 13.648-11.688.36483-5.4962 7.9321-2.7066 10.634-6.4373 3.1644-3.556 6.8569-.52537 10.562-.7813.61725-2.2147-5.7742-1.9037-6.719-5.2493-4.8875 1.4846-9.2065.82532-3.4362-3.5505 3.8464-1.6044 8.3545.81455 10.936 2.9254.2997-7.9825 4.7481-4.4495 6.2812.7813-.80224 3.4487-.86707 7.6797 1.5313 10.469-.0484-2.4866-1.5573-6.3559-.0314-9.6874 1.6743-3.843.60404-9.3968 4.7186-11.812 1.5221 3.5958 1.7337 8.8848 3.5825 12.938 1.4934 3.8002 3.5735 10.245-1.5517 12.218-2.637.884 5.4209 1.403 4.4062 2.7499 2.3238 2.1299 1.7648 5.7065 1.6258 8.5313 1.1848-4.4364.40995-11.812 2.9998-3.6562 1.7686 2.179-2.1144 10.461 1.2186 5.6876-1.0883-7.4366 1.1722-6.3199 3.4451-.85807 1.4711 4.9336 3.5742 10.295 2.0856 15.358 3.2321-1.9555.18741-9.1373-.62515-12.719-.89531-5.385 2.9611.92826 2.906 3.0625 1.0089 2.7195.24977-4.6372 2.5 2.0938 3.0257 7.8484 5.2943 15.944 5.3967 24.432.78374 9.4708-2.0673 18.746-5.6138 27.443 1.3089-.0681 4.0609-8.4062 2.3438-1.5625-.3262 1.2034-2.8242 7.3456-1.2498 4.8438 5.5863-12.533 7.0073-26.787 4.6596-40.338-2.19-10.93-6.3386-21.278-13.099-29.912-1.669-3.3865-4.8294-5.6728-7.531-8.0001-1.5972-4.6888 5.8018-1.8114 9.0625-1.7503 5.117.49548 4.06 5.9735-.875 3.9998-5.3027-.94894 3.0773 2.2347 4.9768 1.2828 3.1358.29258 7.7518 4.1793 4.4615 7.0927-4.8755-4.2808-2.1398.34018.62495 2.5938 2.6705 1.2464 7.5948 1.0569 8 4.8435-4.3846-1.4469-10.533-.61418-2.9062.21875 3.6561.34095 6.6441 6.6378 1.3126 3.375-3.8756-1.33-9.2003-1.2507-2.0938.2189 2.9818.17237 8.4842 5.9589 2.9374 6.0936-3.7604-1.8452-6.3668-3.5498-1.4062.31255 3.5166 1.7685 8.8574 2.7382 9.4688 7.5-2.6838.63981-11.885-5.2752-7.125-1.0625 3.9331 1.3377 9.4985 2.773 9.125 8.2188 1.2589 5.811-3.326 6.6162-2.2813.21875-.89179-4.5989-6.3899-3.2811-9-6.0312 1.8661 3.6706 9.4865 3.3685 7.6251 9.0312-1.2611 5.3502-8.8108-6.9543-4.0938 1.0316 3.5345 2.2611 8.1118 3.0787 9.9062 7.4059 3.5522 2.3477-2.768 13.231-1.75 8.7812 2.2665-4.1393-.67007-10.197-5.3436-10.625 1.9564 1.7067 5.8001 4.5938 4.3437 7.3436-2.485-2.5692-6.8654-2.4471-7.6875-6.5932-1.8348-1.2141 1.9352 6.2298 5.1875 5.9996 4.9652 5.763-6.1565 4.9292-5.7802-.55369-2.2067-1.1383 1.525 5.8076 4.0927 5.7725 6.3976 1.5042 7.0459 9.4784 4.9266 14.524-.26384.83348 1.6393 1.072-.0617 1.7961z"/><path d="m459.65 323.64c1.0031.0484 1.9882.3731 2.8336.91301.40502.4039.65065.9383.94423 1.4209.24958.42213.27848.93277.077 1.3791-.10878.37992-.36327.75455-.77946.82109-.43728.20862-.91748.29237-1.3983.24346-1.19-.006-2.3802.0355-3.5698.0359-.57063-.10358-1.1552-.0752-1.7217-.1657-.67485-.2541-1.3558-.48656-2.0423-.70816-.30863-.10601-.54446-.34243-.81432-.51764-.17566-.49199-.10159-1.0005.21195-1.4078.30492-.49675.83317-.80615 1.3407-1.0646.40227-.19912.853-.23559 1.2941-.21435.7312-.0507 1.4812-.12553 2.1565-.42942.46514-.18509.958-.36693 1.4676-.30581z"/><path d="m368.62 131.5c.27252-.006.61859-.0655.80155.19148.31608.54768.26643 1.2004.29844 1.8085.21566.75352-.0537 1.5443-.42439 2.202-.26956.49064-.5004 1.0189-.90599 1.4169-.3349.21455-.7424.0718-1.0934-.0181-.49895-.17171-.82379-.69872-.79839-1.2192-.0399-.62674-.10993-1.2834.14211-1.8787.13845-.34343.28028-.68948.47018-1.008.13519-.22025.35131-.36839.52229-.55557.1763-.21594.30483-.47518.53046-.64724"/><path d="m340.87 187.24c-.15825.71969-.7378 1.224-1.1479 1.8034-.36251.46703-.88217.77562-1.2466 1.2409-.40317.50305-.88636.94557-1.4619 1.2435-.64844.34611-1.3734.57515-2.1082.61054-.42174-.0555-.92439.0463-1.2521-.2943-.15006-.1257-.30012-.25139-.45018-.37708-.12428-.36166.29888-.56621.60224-.51232.47851.0882.97212.002 1.4494-.0696.38024-.0566.74147-.22166 1.1316-.19696.30332.007.63859-.0856.79118-.37153.2768-.36636.58336-.71595.79127-1.1286.60813-.42463.84375-1.2168 1.5046-1.5847.4163-.26561.91821-.37288 1.4078-.36514"/><path d="m277.41 265.2c.83506-.40485 1.6576-.86494 2.2689-1.6229 1.412-1.153 2.6729-2.5193 4.3432-3.2955 1.0502-1.1185 2.3825-1.9782 3.4239-3.1186 1.942-1.7384 3.6574-3.6886 5.2751-5.7175 1.4871-1.8913 3.139-3.6524 4.6042-5.5615.62994-1.0193 1.7064-1.8311 2.2628-2.9202.41366-1.3115 1.3957-2.3713 1.738-3.7278.76264-1.1212 1.4353-2.4001 2.7414-2.8788 1.3262-.46361 2.7561-.83301 4.0951-.20441 2.233.7157 4.4779.72731 6.7036.1933 1.5723-.26819 3.523-.59407 4.6524.79917.87184.39863.77784 1.4997 1.5854 1.9787.88714 1.2318 1.8089 2.5786 3.3901 2.8851 2.4287 1.0758 5.0504 1.657 7.3783 2.9842 2.021 1.1156 4.5754 1.4345 6.0187 3.4278 1.292.74032.95692 2.4928 1.1795 3.7429-.009 1.8151-.005 3.6787-.8275 5.3351-1.4992.4015-1.3009 1.9891-2.0664 3.09-2.2895.408 1.0473-3.0119-1.6024-1.9351-1.3457 1.5042-3.1606 2.838-5.2952 2.7871-.12752 1.6879 2.0208 1.7478 2.2859 3.3101.41512 1.0045 1.1998 1.8563 2.111 2.4175.88326.4529 2.6222.3917 2.4825 1.7509-.72666.74903-2.7346.20504-3.4447-.70802-1.5468-1.3845-3.2745-2.5982-4.7218-4.0705-.6271-.80055-1.0084-1.8468-1.8599-2.4978-1.6964-1.5296-3.3117-3.2091-4.3757-5.1999-.37975-.91991-1.2514-1.4326-1.5913-2.3966-.53305-.81703-1.0377-1.4879-1.5162-2.3287-1.4352-1.6558-3.3654-2.6352-5.4285-3.2173-1.3051-.51868-2.7834-.74173-4.1503-.79874-2.2358.0565-4.0192 1.4663-5.8942 2.491-1.3007 1.6259-2.1509 3.5162-2.9545 5.4187-1.1125 2.7125-2.2898 5.398-3.6675 7.9923-.71368.70237-1.4047 1.4766-1.8868 2.401-.76632 1.3872-2.1606 1.7222-3.0772.31803-1.0412-.80125-2.5405-.75994-3.7364-.63776-1.0258.81252-2.2738 1.5833-2.8048 2.8453-1.2496 2.219-1.6887 5.0972-.68018 7.4584.86387 1.0285 2.9174-.60381 3.5853.98775.56416.87424 1.6954 1.1713 2.1598 2.1017 1.605 2.2641 1.4696 5.2095.88184 7.7976.075 2.5473-.88804 4.9506-1.4525 7.399-.66465 1.3616-.89363 2.9253-1.6061 4.2301-.83386 1.4038-2.416.25117-3.5216-.18864-1.0986-.68374-2.2796-1.1971-3.2006-2.1014-.82701-.33724-1.433-1.0118-2.1507-1.5795-.84415-.11789-2.4858-1.3738-1.2096-2.0773 1.1269-.39966 2.1441-1.159 2.8874-2.0691 1.1146-1.8442 1.7366-4.0294 2.622-6.0338.18313-1.0717 1.1018-1.72 1.4234-2.7263.64777-.93421 1.4713-1.7502 2.482-2.303-.94173-1.508-2.9898 1.2885-3.981 2.3616-1.0428 2.1562-1.9396 4.439-2.7625 6.7044-.63899.96125-1.6736 1.6576-2.424 2.4331-.29784 2.2175-3.8724 2.1019-2.8048-.1237 2.0127-.83698-.21901-3.0508.0314-4.5354.35974-2.5807.42574-5.1987.43877-7.7891-.0498-1.825-.29335-3.6771-1.2032-5.2984-.22355-1.1651-.29884-2.5309.67842-3.3735.45983-1.3907.44521-3.0684 1.751-4.0144.0415-.32856.32223-.45394.531-.64063"/><path d="m507.16 381.17c-.8498-.0508-1.5944.35266-2.402-.0458-.97084-.23901-1.5384-1.2834-2.505-1.6202-1.0122-1.0218-1.0963-2.6616-.415-3.895.11342-1.5948.0766-3.1948-.0456-4.8314-.44277-2.4102-1.1155-4.7782-1.5634-7.1766-.68574-1.9098-1.4947-3.7738-1.9176-5.7654-.79881-1.7458-1.2228-3.6384-2.0318-5.382-.28768-.80992-1.8325-2.1737-.52705-2.7047 1.1366-.0774 2.5703-1.0632 3.4494.0372.62499.31273 1.2829.77686 1.8253 1.2652 1.022.54016 1.7842 1.415 2.2166 2.4884.51235.70673.82573 1.7771 1.8785 1.6403 1.5378.25582 1.209 2.2832 1.8038 3.4057.29983 1.4287 1.1943.33099.76537-.61863-.32442-1.5645-1.2893-3.1351-.7845-4.7319.68342-1.7305 2.703-.73412 2.603.985.79558 2.648 1.3681 5.3682 1.6765 8.1136.71387 2.016.99123 4.221 1.9028 6.1504.61689.98167.81829 2.3545 1.7854 3.109.90631 1.0944 1.2187 2.5449 2.2194 3.5744.65304 1.8405 1.0032 3.8229 1.3919 5.7472-.0663 1.1761-.73246 2.024-1.439 2.9114-1.3111.34994-2.514 1.4608-3.9336.81567-1.265.35754-2.1274-2.118-3.0168-.22792-.90942 1.5418.17009 3.4058-.84215 4.9159-.71942.73795-.74819 1.9213-1.5405 2.6273-.20565.96395-1.3575 1.3879-1.5837 2.3906-.39867 1.1909-.80593 2.3786-1.0713 3.6074-.45672.93299-3.0138-.42203-2.452.95647 1.1035.33257 2.3485.65536 2.8399 1.8203 1.3972 1.5931.12029 3.3083-1.5497 2.0057-2.9446-1.1174-6.1939-1.3485-9.2988-1.0055-1.0353.36462-5.1097-1.1285-3.6033.38298 2.5832 1.1581 5.3721-.1004 8.0374.47394 1.2727.0216 2.5946.0611 3.6257.9058 1.3681.52918 2.4971 1.4326 3.332 2.6393.32889.9189.77142 1.9754-.188 2.699-1.1978.86169-2.0268 2.2766-3.5491 2.6477-1.7307.82714-3.589 1.3566-5.4254 1.8621-2.2847.7204-4.6939.99363-7.057 1.3887-1.7837.19239-3.5775.47834-5.3567.26115-1.1243-.35239-3.862.74265-3.2308-1.3446.16551-2.5618 1.4648-4.8462 2.757-7.001.66646-1.0208 1.301-2.034 1.677-3.203.4918-.9062.17555-2.1066 1.08-2.794.47617-1.3578-.22276-3.3689 1.3268-4.1509 1.456-.29661 2.5296-1.3501 3.8272-1.9701.64702-.50323 1.2717-.90587 1.9291-1.4142 1.2765-.83443 1.5559-2.3596 2.4489-3.4938 1.0307-1.7755 2.1248-3.5147 3.1936-5.2761.4195-.71785.84998-1.3431 1.4483-1.9634 1.4539-1.5017 1.1898 1.1173 1.0021 2.1205 1.3004.34777 1.7695-.49658 2.7447-1.0793 1.0512-.38105 2.4598-.94631 2.5483-2.2297"/><path d="m411.66 229.81c.19683.18566.43344.32467.63906.50074.22681.19347.4665.37306.68509.57536.22835.24575.47152.4787.69032.73269.0936.11967.19559.23421.24585.38025.0902.17345.15399.35698.20594.54506.0701.2317.20931.43692.2753.67134.13777.40065.20107.85469.0303 1.2556-.0657.23378-.11429.47478-.19087.70401-.0526.10172-.10132.18419-.10725.009-.18454-.86861-.49659-1.7068-.87796-2.5071-.48-.98369-1.0684-1.9086-1.5958-2.8666z"/></g><path d="m381.31 138.03c-.67578.0553-.93129.80393-1.0001 1.379-.23108 1.5476.14895 3.1329-.22827 4.6661-.0275.58662-.38326 1.0576-.58297 1.5795-.12311.66388-.34341 1.3052-.45151 1.9716-.10542.61172.009 1.2325.24355 1.7991.0546.37208.27392.67712.57447.89028.17959.15482.35917.30963.53876.46445.7408.18356.7327-.71863.51123-1.1634.0446-.60834-.31409-1.161-.21934-1.7562-.0313-.62496.94436-.79258 1.0996-.18893.48749.65802.58062 1.5668.29602 2.3273-.2825.36183-.55705.75284-.72186 1.1804-.32232.57821.19513 1.5582.88396 1.0624.50849-.43445 1.0165-.91637 1.278-1.5477.31757-.70039.5834-1.5369.24374-2.2798-.10027-.54352-.27017-1.0515-.41422-1.5827-.12452-.57438-.54675-1.0146-.75482-1.5445-.33552-.32687-.43376-.76117-.60342-1.1788-.20489-.46867-.33683-.92372-.44671-1.4221-.28948-.51195-.27467-1.1092-.35782-1.6775-.005-.61382.001-1.2378.0732-1.8611.0951-.36811.13811-.74343.0385-1.1173z"/><path d="m359.69 152.75c-.60861.21268-1.2764.19807-1.8626.48633-.54438.0446-1.0815.11351-1.5798.35152-.75328.14934-1.405.56103-2.0903.88369-.74331.44619-1.1126 1.278-1.355 2.0729-.27307.62778.64034 1.0158.81981.32148.18058-.53233.48568-1.0009.79803-1.4629.25829-.40035.62269-.76079 1.0383-.99774.4355-.21318.88658-.4933 1.3935-.39785.61399.0425 1.2178-.1129 1.7666-.37787.58242-.1784 1.2111-.15787 1.808-.0934.57327.10147 1.1748.0676 1.7119.33048.6853.18957 1.2213.67068 1.717 1.1553.48788.28895.90129.7657 1.0348 1.329-.11103.54951.62372 1.1338.91138.45801.3309-.60334.16103-1.4308-.41706-1.8222-.40627-.26747-.7973-.52133-1.0753-.93354-.47463-.20555-.82103-.62987-1.3136-.80351-.4961-.17327-1.0562-.0562-1.5186-.34661-.56608-.0722-1.1493-.005-1.7085-.1057l-.0787-.0473v-.00005z"/><path d="m372.34 153.25c-.27517.27639-.68183.43691-.76697.8629-.26492.58666-.32997 1.2362-.54104 1.8406.008.29338-.18334.54787-.2817.81177-.32086.18948-.28022.55648-.49277.8137-.21853.22087-.29486.52377-.56641.68955-.29303.26426-.52927.62692-.93264.73086-.28021.16518-.58225.33068-.74399.62679-.11689.32773.0767.79537.48985.72398.43543-.0408.82675-.25322 1.205-.45803.26915-.0722.48468-.29275.69508-.44543.31689-.15827.52945-.41537.75268-.67793.17555-.2083.38408-.41069.41724-.69267.0915-.20564.17163-.39949.26493-.60114.0864-.21185.0507-.57551.22222-.79423.0478-.29075.13282-.57642.066-.87267-.0263-.74097.13646-1.4858.4565-2.1538.0608-.17072-.0915-.34852-.24402-.4043z"/><path d="m357.47 155.31c-.5499.21029-1.1279.3124-1.6775.56887-.61595.31271-1.1375.81144-1.5065 1.393-.42728.28433-.5535.83498-.83516 1.2357-.23135.46825-.59953.84019-.90151 1.2562-.437.52911.35686 1.2525.84161.77618.45313-.32423.9726-.5362 1.3064-1.0136.38676-.37215.51695-.91629.77096-1.3804.28511-.39481.65723-.83337 1.0775-1.1196.46179-.174 1.1696-.27037 1.4388.25453.19274.59334-.2716 1.1742-.73855 1.4882-.59667.22807-.58906.98757-.0442 1.2797.43968.47471 1.1218.4931 1.7016.33476.5942-.18959.9048-.88654 1.5649-.90906.37006-.0978.56711.25727.81155.45626.3029.2827.6058.56541.9087.84811.70254.0576 1.3484.36176 2.0195.51908.57473-.0402 1.2885-.14366 1.6411-.64934.39106-.57789-.34398-.84087-.80381-.65984-.40493-.0256-.85732.19337-1.2208-.0458-.45158-.22137-.90316-.44273-1.3547-.66409-.49013-.59206-.94145-1.2271-1.2048-1.955-.32991-.53976-.83722-.95725-1.3171-1.3576-.73432-.46569-1.6148-.66434-2.4779-.65627z"/><path d="m355.41 161c-.0568.20845-.10038.43686.003.6399.19446.40549.62892.60541 1.0245.76709.33644.12915.68305.23699 1.0356.3106.474.0517.93425-.10513 1.3863-.21985.24526-.0274.47233-.13567.71332-.18377.30105-.0856.63683-.24401.72952-.57078.0582-.16485-.066-.31075-.11062-.46184-.39779-.008-.78282.13441-1.1126.34957-.17743.1114-.37513.19838-.58813.19502-.29532.0359-.58897.0954-.88799.0817-.31261.0302-.58724-.14483-.87999-.22-.11668-.11765-.33124-.12976-.37547-.31535-.10619-.177-.3133-.27015-.50703-.32137-.1406-.0343-.28592-.0456-.42994-.0509z"/><path d="m345.53 162.66c-.62551.41357-1.3211.69066-2 .99995-.69995.69621-1.6152 1.1469-2.4282 1.6816-.89007.49972-1.6842 1.1519-2.3338 1.9367-.69367.60008-1.3283 1.1888-1.6994 2.0367-.60137.96122-.34136 2.1496-.50076 3.2192-.1553 1.4415-.73454 2.8932-1.8972 3.8155-.78702.76537-1.8704 1.1154-2.6699 1.8524-.57815.18491-1.1025 1.4704-.0939 1.2361 1.3626-.60601 2.6321-1.4022 3.8557-2.2469.5314-.4808.75354-1.2071 1.3332-1.6496.46126-.5855.69411-1.3172.86044-2.0318.1282-1.0078-.31078-1.9826-.29403-2.979.11837-.92744.71859-1.6736 1.3694-2.2994 1.0833-1.141 2.4448-1.9669 3.7153-2.879.73836-.40703 1.3066-1.0391 2.01-1.4903.46831-.10639 1.8729-.87074.86934-1.1855l-.0961-.0165h-.00031z"/><path d="m332.53 170.09c-.56987.0504-1.0807.37705-1.6577.38421-.30015.38157-.82202.44123-1.1477.76005-.30999.46799-.72601.82899-1.1008 1.2369-.43369.38544-.89357.74056-1.3379 1.1138-.50177.27026-.81215.79573-1.0057 1.3188-.10444.41196-.11581.94612.21352 1.2615.39356.20543.66927-.25996.87118-.52472.22548-.36494.64511-.72766 1.1021-.55985.41392.13989.73114.55248 1.1991.52169.57179.27605-.26189.80034-.48143 1.0754-.1832.41488-.62709.59758-.81679.99725-.33695.3567-.82883.99357-.33829 1.4289.5494.11497.76225-.59267 1.0771-.8965.3545-.52219.86258-.91719 1.3577-1.2967.44165-.22262.88652-.41577 1.2276-.78852.37216-.28276.82712-.42966 1.1725-.75441.39121-.23329.65214-.6199.9691-.94053.29933-.44018.5337-.9539.69688-1.454.0616-.56539.0102-1.1441-.24748-1.6568-.32951-.59973-.87748-1.1918-1.6018-1.2396l-.0758.003-.0755.0101z"/><path d="m361.78 171.97c-.37296.006-.65625.80063-.65625 1.5312 0 .78.25975 1.4722.59375 2.5312s.74625 2.5488.40625 3.7188c-.39 1.225-1.4378 2.1832-2.7188 2.9062-1.281.612-2.6972 1.0475-3.0312 1.4375-.278.39.52275.791 1.4688.625.947-.112 1.9495-.6705 3.0625-1.5625 1.059-.891 2.2112-2.0078 2.6562-3.3438.445-1.393.17225-2.9152-.21875-4.5312-.39-1.505-1.0162-3.0022-1.4062-3.2812-.0556-.0349-.10297-.0321-.15625-.0312z"/><path d="m377.53 172.41c-.24084-.009-.48825.0725-.65625.21875-.445.445-.2575 1.3762-.3125 2.1562-.057.78-.2965 1.3902-.6875 2.2812-.5.89-1.2225 1.955-1.0625 2.125.223.112 1.3912-.6565 2.2812-1.9375.836-1.337 1.5098-3.0842 1.3438-4.0312-.10375-.5575-.50484-.79709-.90625-.8125z"/><path d="m380.88 172.53c-.2471.0331-.5425.3875-.75.875-.336.835-.49575 2.0562-.71875 3.2812-.223 1.281-.571 2.512-1.125 3.125-.559.612-1.332.66925-2 .78125-.68.15-1.2362.3625-1.4062.8125-.167.39.1575 1.138.9375 1.25.725 0 2.0238-.5025 2.9688-1.5625.947-1.114 1.6165-2.7288 2.0625-4.3438.391-1.671.543-3.2942.375-3.9062-.0836-.2295-.19549-.33236-.34375-.3125z"/><path d="m402.34 185.34c-.209.0279-.4235.22425-.5625.53125-.391.612-.44075 1.7168-.71875 2.7188-.279 1.002-.7825 1.914-1.5625 3.25-.67 1.27-1.5462 2.8775-1.6562 3.4375-.168.558.443.0515 1-.5625.557-.612 1.055-1.4485 1.5-2.0625.391-.668.76525-1.1488 1.1562-1.5938.334-.502.668-1.0025 1-2.0625.279-1.003.50975-2.5195.34375-3.1875-.084-.3625-.291-.49662-.5-.46875z"/><path d="m377.84 191.09c-.2925.0626-.666.24575-1 .46875-.725.445-1.2868 1.0035-1.8438 1.5625-.56.61-1.11 1.16-2 2-.892.837-2.1208 1.943-2.3438 2.5-.167.558.7275.49125 1.5625.15625.78-.391 1.5012-1.1435 2.2812-1.8125.778-.779 1.595-1.5152 2.375-2.4062.781-.893 1.5238-1.8922 1.4688-2.2812 0-.1955-.2075-.25012-.5-.1875z"/><path d="m403.47 191.72c-.334.111-.44725 1.1672-.78125 2.2812-.334 1.17-.957 2.5605-1.625 4.0625-.67 1.57-1.4488 3.3088-1.2188 3.4688.221.11 1.4022-1.4152 2.4062-3.0312 1.059-1.615 1.889-3.3182 2-4.6562.17-1.337-.44725-2.181-.78125-2.125z"/><path d="m375.47 197.28c-.35424.0536-.907.59875-1.6875 1.2812-.947.724-2.194 1.7425-2.25 2.1875-.06.45 1.1125.4525 2.0625.0625 1.059-.39 1.791-1.1898 2.125-1.9688.332-.724.209-1.4505-.125-1.5625-.042-.0139-.0744-.008-.125 0z"/><path d="m404.62 199.41c-.20875-.0211-.50175.1655-.78125.5-.502.724-.89675 2.0175-1.3438 3.1875-.5 1.225-1.0495 2.3212-1.4375 3.1562-.38.89-.5925 1.52-.3125 1.75.2467.19838 1.0349.0352 1.4688-.5625.5-.502.6855-1.3958 1.1875-2.8438.557-1.448 1.443-3.5218 1.5-4.4688.0555-.473-.0725-.69762-.28125-.71875z"/><path d="m405.78 205.44c-.29925-.007-.6525.1585-.875.4375-.391.556-.334 1.5088-.5 2.3438-.17.835-.57025 1.552-1.4062 3-.82 1.39-2.0488 3.55-2.2188 4.5-.223.948.67375.7325 1.3438.0625.668-.611 1.053-1.623 1.5-2.625.445-1.002.9505-1.9442 1.5625-3.2812.559-1.393 1.2672-3.0628 1.1562-3.8438-.0275-.4175-.26325-.58662-.5625-.59375z"/><path d="m363.62 219.62c-.51393-.0438-1.9061.42812-3.125 1.0625-1.28.68-2.33 1.7238-2.5 2.3438-.223.613.37725.903 1.1562.625.78-.223 1.7545-1.0142 2.8125-1.9062 1.003-.891 2.0355-1.8395 1.8125-2.0625-.0346-.0279-.0828-.0563-.15625-.0625z"/><path d="m364.88 222.19c-.2785-.0421-.7485.0517-1.25.21875-.946.391-1.9345 1.0022-2.9375 1.7812-1.003.725-1.9452 1.5582-2.7812 2.2812-.77.79-1.45 1.4512-2 2.2812h-.0312c-.558.892-.9785 2.0088-1.3125 2.8438-.39.891-.69175 1.5658-.46875 1.8438.223.223 1.0292.001 1.5312-.5.39-.501.55925-1.3255.78125-1.9375.279-.724.6445-1.3072 1.3125-2.0312.669-.725 1.5832-1.6425 3.0312-2.8125 1.505-1.17 3.6068-2.6758 4.2188-3.3438.2785-.3895.18475-.58288-.0937-.625z"/><path d="m527.22 229.78c-.42488.0557-.70375.21775-.84375.46875-.279.444.0217 1.1715.96875 1.5625 1.002.445 2.7288.61425 3.8438.78125 1.225.111 1.8362.28775 2.2812.34375.39.07.62125.0575.78125-.0625-1.781-1.338-3.8635-2.4612-5.3125-2.9062-.7235-.195-1.2939-.24325-1.7188-.1875z"/><path d="m525.16 233.87c-1.338.057-2.5615.1155-3.0625.5625-.557.445-.3125 1.277.1875 1.5.502.167 1.2652-.2155 2.1562-.4375.94-.18 2.0162-.1725 2.9062-.0625.891.111 1.6262.4645 2.4062.6875.836.223 1.6445.39875 2.3125.84375.668.39 1.1262.9925 1.4062.9375.168-.111.209-.9485-.125-1.5625-.334-.612-1.0508-.9915-1.7188-1.4375-.779-.39-1.512-.73825-2.625-.90625-1.115-.166-2.5078-.125-3.8438-.125z"/><path d="m542.06 235.03c-.0773.004-.146.052-.1875.0937-.223.224 0 .64025.5 1.0312.559.445 1.5152.804 2.4062 1.25.85.44 1.5475.98375 2.4375 1.5938.836.613 1.7965 1.2435 2.1875 1.1875.277-.111.002-.91275-.5-1.4688-.445-.559-1.0625-.928-1.5625-1.375-.559-.39-1.0572-.82775-1.7812-1.2188-.668-.39-1.6425-.61425-2.3125-.78125-.58425-.168-.95552-.32548-1.1875-.3125z"/><path d="m541.31 238.53c-.86517.0109-1.1816.54725-.9375.9375.221.446 1.2265.6035 2.0625.9375.834.223 1.5455.66825 2.4375 1.2812.85.72 1.9075 1.72 2.6875 2 .725.224 1.223-.16925 1-.78125-.168-.612-1.0152-1.4452-2.4062-2.2812-1.338-.891-3.2675-1.8945-4.4375-2.0625-.14625-.021-.28265-.0328-.40625-.0312z"/><path d="m538.81 241.28c-.891.057-1.014.69625-.625 1.0312.391.389 1.332.37075 2 .59375.77.28 1.4025.6875 2.0625 1.1875.779.502 1.6328 1.151 2.4688 1.375.836.223 1.6562.0472 1.6562-.34375.055-.334-.7135-.817-1.4375-1.375-.668-.501-1.2362-1.055-2.4062-1.5-1.115-.557-2.8288-1.0238-3.7188-.96875z"/><path d="m363.03 241.47c-.20459-.00083-.416.0345-.625.0625-.835.166-1.5195.5475-2.1875.9375-.725.445-1.2512.94525-2.0312 1.7812-.84.83-1.7825 1.9912-2.5625 3.2812-.836 1.281-1.5248 2.7308-1.4688 3.3438 0 .612.6735.4385 1.0625-.0625.446-.446.55925-1.1692.78125-1.7812s.554-1.053 1.5-2c.946-.892 2.5078-2.179 3.8438-3.125 1.393-1.003 2.6088-1.609 2.7188-2 .084-.29175-.41747-.43502-1.0312-.4375z"/><path d="m408.22 243.44c-.4568.01-.83375.425-.875.96875-.111.724.2965 1.6878.6875 2.9688.445 1.281.82975 2.8785 1.2188 3.9375.3929.9827.8186 1.5921 1.0312 2.0625.22109-2.2631.20081-4.4662-.0312-6.1875-.336-2.004-.9485-3.2048-1.5625-3.5938-.167-.0977-.31648-.15956-.46875-.15625z"/><path d="m410.28 253.37c-.0438.448-.0916.89279-.15625 1.3438h.0312c.33-.28.43875-.65625.21875-1.1562-.0197-.0587-.0655-.12513-.0937-.1875z"/><path d="m413.22 245.53c-.16717.006-.3085.0553-.40625.125-.445.279-.17775.8805.15625 1.9375.223 1.004.555 2.4508.5 3.8438-.11 1.34-.4875 2.7225-.4375 3.5625.113.947.7305 1.349 1.0625 1.125.336-.222.389-1.0638.5-1.8438.111-.725.23075-1.4508.34375-2.8438.166-1.448.265-3.6112-.125-4.7812-.3765-.83475-1.0922-1.1433-1.5938-1.125z"/><path d="m417.81 248.53c-.21935.009-.43725.093-.5625.28125-.277.444-.0872 1.5132-.0312 2.9062 0 1.448-.17775 3.0992.15625 3.6562.34.5 1.11-.2075 1.5-.9375.445-.668.4375-1.498.4375-2.5 0-.947.007-2.1122-.4375-2.7812-.27812-.41688-.69692-.63972-1.0625-.625z"/><path d="m360.38 248.75c-.16978.003-.35025.0205-.53125.0625-.779.222-1.6705.831-2.5625 1.5s-1.734 1.386-2.625 2.5c-.88824 1.1646-1.6996 2.8276-1.875 3.5625-.111.836.4925.696.9375.25.446-.39.66075-1.0638 1.2188-1.8438.501-.835 1.289-1.7448 2.125-2.4688.892-.779 1.8212-1.3105 2.6562-1.8125.836-.557 1.5625-1.0088 1.5625-1.3438 0-.24975-.39691-.41427-.90625-.40625z"/><path d="m421.72 250.88c-.32634-.008-.729.4355-.9375 1.0625-.223.835-.237 1.9528-.125 2.8438.057.892.221 1.6045.5 1.4375.22-.05.62375-.98625.84375-2.1562.168-1.113.223-2.5862 0-3.0312-.0835-.1115-.17247-.15366-.28125-.15625z"/><path d="m395.44 255.19c-.24009-.0129-.5725.1755-.90625.46875-.391.39-.7675 1.0025-1.4375 2.5625-.73 1.52-1.6725 4.095-3.0625 6.375-1.449 2.227-3.303 4.2082-4.75 5.6562-1.449 1.449-2.4882 2.3362-2.6562 2.7812-.057.447.82025.447 1.6562 0 .945-.445 1.9065-1.275 3.1875-2.5 1.281-1.281 2.8515-2.8938 4.1875-4.8438 1.393-1.895 2.4258-4.1835 3.0938-5.6875.613-1.56.85775-2.3752.96875-3.1562.111-.725.1605-1.3955-.0625-1.5625-.0557-.0555-.13872-.0894-.21875-.0937z"/><path d="m395.5 263.5c-.21417.0286-.4575.352-.75.8125-.334.611-.83625 1.3912-1.2812 2.2812-.445.836-.86975 1.6715-1.5938 2.5625-.613.836-1.5725 1.7232-2.6875 2.7812-1.059 1.059-2.3892 2.2308-3.7812 3.3438-1.393 1.17-2.9452 2.208-3.7812 2.875-.7885.589-.9634.85165-1.0312 1.0625 2.8301-1.1684 5.4833-2.6569 7.5938-4.1562 2.061-1.616 3.5702-3.2288 4.9062-4.8438 1.281-1.561 2.3922-3.1822 2.7812-4.4062.391-1.225.0668-2.027-.15625-2.25-.0697-.0557-.14736-.072-.21875-.0625z"/><path d="m395.19 270.81c-.40268-.035-1.1511.62663-1.6875 1.4062-.557.78-.83625 1.8212-1.2812 2.6562-.5.947-1.1305 1.8008-1.6875 2.4688-.559.669-1.1188 1.2318-1.8438 1.8438-.78.72-1.7188 1.485-1.7188 1.875 0 .446 1.0152.446 1.9062 0 .893-.445 1.6208-1.2652 2.3438-2.1562.668-.891 1.3375-1.79 2.0625-2.625.668-.891 1.3342-1.7848 1.7812-2.8438.445-1.058.641-2.2825.25-2.5625-.0417-.0346-.0675-.0575-.125-.0625z"/><path d="m309.03 271.59c-.334.056-1.164 1.2428-2 2.4688-.779 1.225-1.4515 2.3795-1.0625 2.9375.4.6 1.7388.5475 2.9688-.0625 1.226-.613 2.263-1.7662 2.375-2.1562.167-.447-.7005-.125-1.3125-.125-.558 0-.96875-.36875-.96875-1.0938-.056-.725.278-1.9688 0-1.9688z"/><path d="m496.44 277.62c-.0417.003-.09.0104-.125.0312-.334.111-.3285.9085.0625 1.6875.334.725.98275 1.5638 1.5938 2.3438.67.779 1.4128 1.6145 1.9688 3.0625.5 1.53.98625 3.6888 1.1562 5.4688.16437 1.8225.125 3.2598.125 4.3125 0 1.225.0355 2.1165.3125 2.5625s.791.459 1.125.125.54525-.99475.65625-1.7188c.111-.78.055-1.581 0-2.75 0-1.226-.026-2.7085-.75-4.9375-.611-2.172-1.9205-5.0175-2.8125-6.6875-.945-1.672-1.5055-2.179-2.0625-2.625-.53638-.48825-.95834-.89407-1.25-.875z"/><path d="m385.66 281.97c-.2925-.007-.66975.0867-1.0312.28125-.725.391-1.3988 1.2058-1.3438 1.5938.12.33.905.17125 1.625-.21875.725-.39 1.3932-.984 1.2812-1.375-.0275-.167-.23875-.27438-.53125-.28125z"/><path d="m494.47 289.69c-.32713.007-.68325.15575-.90625.40625-.445.559-.4215 1.3828-.3125 2.7188.057 1.281.1605 2.9648-.0625 3.9688-.223 1.002-.737 1.3375-1.125 2.0625-.44.61-.81375 1.6725-.59375 2.0625.279.389 1.0625.15825 1.5625-.34375.445-.501.666-1.275 1-2.5.389-1.281.94725-2.9022 1.2812-4.4062.277-1.561.389-2.886 0-3.5-.1955-.3345-.51662-.4755-.84375-.46875z"/><path d="m338.44 291.59c-1.0922.35628.77036 1.4865 1.1118 2.0198 1.18.60554 1.8994 1.7465 3.0163 2.4345 1.0601.38048 2.0198 1.0078 2.8956 1.6308 1.3386.49896 2.8254.52462 3.8278 1.6186.99008.41149 2.1059.0483 3.134.33244 1.6826.34908 3.4771.23743 5.0302 1.0858 1.2039.43453 1.9947 1.4105 2.9764 2.1128.83498.8008 2.1296 1.1354 3.2894 1.2142 1.2052.26252 2.5371.0507 3.1884-1.1138.81138-.804 1.3595-1.8176 1.8497-2.8632.65542-1.2021 2.0222-1.8479 3.2223-2.4055.95239-.14479 2.1733-2.2216.43367-1.5609-.79812.65455-1.8445.95266-2.7068 1.5308-1.0396.51709-1.9588 1.2156-2.7126 2.1048-.86796 1.2209-2.1436 2.4017-3.7096 2.5831-1.3973-.21114-2.8013-.74015-3.6268-1.9265-.98052-.96329-2.297-1.8512-3.7723-1.5642-2.0445.10005-4.1157-.15246-6.0646-.77501-1.0581-.49373-2.233-.61894-3.2937-1.119-1.1385-.24239-1.9148-1.0525-2.9268-1.5263-1.1465-.89998-2.2391-1.8556-3.4422-2.7091-.57414-.33113-1.0217-.96781-1.7203-1.1042z"/><path d="m388.19 293.62c-.30316.048-.64525.73725-.9375 1.4688-.334.835-.514 1.6728-.625 3.3438-.16 1.61-.265 4.0825.125 5.3125.391 1.225 1.2652 1.2015 1.6562.8125.391-.445.33625-1.317.28125-2.875 0-1.504-.005-3.6975-.0625-5.3125 0-1.559-.0355-2.6068-.3125-2.7188-.0417-.021-.0817-.0381-.125-.0312z"/><path d="m496.94 295.09c-.25389-.0484-.55487.56662-.75 1.25-.223.779-.43325 1.609-.65625 2.5-.223.835-.3815 1.6112-.9375 2.7812-.5 1.12-1.34 2.565-2 3.625-.723 1.061-1.237 1.708-1.125 1.875.111.166.8795-.1165 1.4375-.5625.611-.5 1.0152-1.1445 1.4062-1.8125.445-.723.8245-1.4108 1.4375-2.4688.613-1.17 1.4388-2.6705 1.7188-4.0625.223-1.447-.1035-2.7285-.4375-3.0625-.0349-.0349-.0575-.0556-.0937-.0625z"/><path d="m392.5 295.19c-.42595-.11487-1.1275 1.0201-1.4688 2.5312-.45 1.72-.4525 3.9375-.0625 5.4375v.0312c.334 1.504 1.069 2.263 1.625 2.375.5 0 .84375-.60675.84375-1.2188 0-.613-.2715-1.1758-.4375-1.8438-.168-.67-.2445-1.495-.1875-3 .057-1.504.23475-3.7415-.15625-4.1875-.0486-.0696-.0954-.10859-.15625-.125z"/><path d="m396.81 296.56c-.24319-.0178-.6245.3225-.875.65625-.391.39-.514.71125-.625 1.1562-.166.39-.21875.91725-.21875 2.0312 0 1.13.0763 2.7212.40625 3.7812.277 1.057.77925 1.486 1.2812 1.375.389-.057.8265-.66825.9375-1.2812.055-.668-.2805-1.2578-.5625-2.0938-.277-.779-.6165-1.7308-.5625-2.8438.057-1.058.46025-2.291.40625-2.625-.042-.0972-.10644-.15031-.1875-.15625z"/><path d="m400.69 300c-.24068-.0428-.46537.4425-.5625 1.125-.057.781.0895 1.8342.3125 2.7812.34.89.735 1.6688 1.125 1.7188.334.055.71875-.67575.71875-1.3438 0-.668-.38475-1.3202-.71875-2.1562-.277-.836-.50225-1.8385-.78125-2.0625-.0346-.0279-.0594-.0564-.0937-.0625z"/><path d="m499.31 301.41c-.33164-.0286-.76925.14575-1.0625.4375-.389.334-.48275.9625-.59375 1.6875-.057.668-.12075 1.4332.15625 1.6562.23.23.76625-.21625 1.1562-.65625.391-.5.638-1.0055.75-1.5625.111-.613.152-1.3008-.125-1.4688-.0835-.0557-.1707-.0842-.28125-.0937z"/><path d="m503.19 301.44c-.41364-.0389-.56588.61562-.46875 1.25 0 .668.32225 1.3968.65625 2.3438.336 1.002.6185 2.1685.5625 4.0625 0 1.9-.39 4.4988-1 6.2188-.613 1.727-1.4388 2.6155-2.2188 3.5625-.723.947-1.4548 1.9722-1.3438 2.5312.055.445.8265.445 1.4375 0 .557-.447.97-1.301 1.75-2.75.836-1.449 2.0432-3.4628 2.6562-5.9688.613-2.508.573-5.438.125-7.5-.445-2.115-1.4128-3.4075-1.9688-3.6875-.0695-.035-.12841-.0569-.1875-.0625z"/><path d="m497.16 306.75c-.22354.0113-.59375.27688-.90625.625-.502.557-.72525 1.3148-1.2812 2.0938-.51.72-1.2938 1.4562-1.3438 1.9062-.055.502.6165.6605 1.0625.4375.557-.279.84925-.9355 1.4062-1.9375.502-1.002 1.2812-2.3968 1.2812-2.8438 0-.20812-.0846-.28804-.21875-.28125z"/><path d="m500.94 307.87c-1.393 2.174-2.9452 4.2655-4.2812 5.9375-1.336 1.615-2.5808 2.7448-2.9688 3.4688-.334.836.123 1.2305.625 1.0625.557-.111 1.1068-.8375 1.7188-1.5625.67-.723 1.3265-1.3418 1.9375-2.3438.613-.947 1.248-2.2232 1.75-3.2812s.86325-1.8418 1.0312-2.3438c.23-.55.2475-.7175.1875-.9375z"/><path d="m492.56 312.66c-.5 0-1.1035.70925-.9375 1.1562.17.33 1.0762.39 1.4062 0 .279-.447-.0238-1.1562-.46875-1.1562z"/><path d="m505.72 316.69c-.0596.0159-.10037.0591-.15625.0937-.334.279-.405 1.2598-.625 2.0938-.168.836-.49575 1.6285-1.2188 2.6875-.73 1.06-1.8262 2.5-2.1562 3.5-.277.891.1585 1.407.9375.625.836-.779 2.0162-2.7288 2.9062-4.3438.779-1.672 1.3362-2.914 1.2812-3.75-.0499-.68162-.55157-1.0172-.96875-.90625z"/><path d="m489.5 320.84c-1.951 0-5.1802 1.6208-7.4062 1.8438-5.07.559-9.5095-1.972-13.688-1.75-.502 0-.89875.721-.84375 1 .057.223.5055.29225 1.0625.40625.502.055 1.3828.50425 2.2188.78125 3.29 1.01 6.4712 1.9375 10.031 1.9375 2.227 0 8.3072-1.6522 9.5312-3.6562.279-.447-.40625-.5625-.90625-.5625z"/><path d="m313.75 324.69c-.61459.70752-.88968 1.625-1.3405 2.4313-.2629.74297-.51016 1.5157-.44034 2.3134-.096.76993-.14168 1.5531-.1871 2.3311-.0578.65669-.12622 1.3151-.22493 1.9657-.14411.67435-.29975 1.3552-.71161 1.922-.59927 1.0139-1.4336 1.8581-2.2919 2.6548-.49131.26898-.73647 1.5999.13052 1.2001.49503-.44086.96786-.89971 1.4214-1.384.47452-.48216 1.0008-.90869 1.52-1.341.43759-.98439.99041-1.9492 1.1626-3.0248.0623-1.0756.28514-2.1377.31784-3.2137.0609-.55389.0857-1.1319.10999-1.6952.24496-.93407.37962-1.9109.85733-2.766.12985-.41227.65935-1.1239.0874-1.3794-.13393-.0345-.27594-.0287-.4106-.0144z"/><path d="m492.31 324.78c-.502-.111-1.2805.359-2.0625.75-.834.445-1.6682.779-2.7812 1-1.059.168-2.4042.168-3.4062 0-1.06-.22-1.8288-.51375-2.2188-.34375-.445.166-.5625.789-.5625 1.125 0 .389.0992.389.65625.5.557.113 1.6262.3265 2.4062.4375.781.113 1.3892.11725 2.7812-.21875 1.504-.334 3.9098-1.0528 4.9688-1.7188 1.002-.727.77475-1.4202.21875-1.5312z"/><path d="m509.88 328.91c-.69478.0524-1.2922.41575-1.125 1 .223.668 1.775 1.748 3 2.75 1.281.949 2.223 1.8125 2.5 1.8125.334 0 .17225-.8245-.21875-1.4375-.34-.67-.79375-1.22-1.3438-2-.559-.725-1.235-1.7285-2.125-2.0625-.22325-.0557-.45591-.08-.6875-.0625z"/><path d="m280.53 270.08h.397c.2042.23117.26926.60004.0977.86754-.17561.49287-.72339.68108-1.0052 1.0959-.45712.55259-.8751 1.1625-1.4938 1.5504-.68159.46203-1.5336.65873-2.3483.55175-.35313-.0696-.61881-.50338-.4218-.83233.18011-.2956.5602-.34424.87423-.29751.26868.0402.54192.0251.80073-.0602.41119-.1117.81537-.28414 1.1511-.5488.2484-.27057.47195-.57378.78578-.77308.25224-.26392.44716-.57784.70765-.83397.16879-.22765.28037-.49218.45386-.71664"/><path d="m306.42 240.74c-1.671.502-2.674 1.728-2.785 2.34s.725.502 1.671.223c1.003-.223 2.117-.668 3.899-.502 1.783.168 4.289.892 5.627.947 1.336.057 1.615-.668 1.781-1.671.168-1.003.279-2.228-.39-2.507-.669-.277-2.228.502-4.066.725-1.84.27-4.12-.06-5.74.44z"/><path d="m329.32 252.55c.668-.166 1.28-.5 1.949-1.058.668-.445 1.448-1.058 1.393-1.392-.111-.224-1.059-.224-1.839 0-.779.277-1.392.779-2.005 1.279-.557.502-1.17.947-1.113 1.17.1.22.88.17 1.61 0z"/><path d="m330.43 255.95c.668-.111 1.449-.557 2.34-1.002.891-.446 1.838-.836 2.006-1.281.166-.446-.502-.947-1.115-.836-.724.056-1.447.724-2.228 1.225-.78.502-1.671.947-2.062 1.115-.445.223-.445.223-.223.39s.67.43 1.28.38z"/><path d="m330.73 175.32c.088-.3182.43609-.45673.56655-.75061.11951-.15588.11576-.414.30445-.50176.16118-.0699.19665-.24832.25776-.39386.0704-.21252.12574-.43111.22429-.63289.0692-.20697.0962-.4245.12495-.63988.0708-.17921.1232-.36368.24172-.51641.11543-.1727.37328-.22376.54093-.0968.33875.1972.47428.60883.46084.98285-.007.26765-.0805.53241-.20706.76796-.14672.12905-.33408.21293-.41185.40566-.41558.54675-.94178 1.0453-1.5984 1.2807-.16143.0534-.33084.0853-.50118.085" fill="#fff"/></svg>