<svg enable-background="new 0 0 354 250" height="600" viewBox="0 0 843.75 562.5" width="900" xmlns="http://www.w3.org/2000/svg"><g fill-rule="evenodd"><path d="m0 0h843.75v562.5h-843.75z" fill="#2042a1" stroke-width=".2791"/><path d="m0 187.5h843.75v375h-843.75z" fill="#da2d1c" stroke-width=".22788"/><path d="m0 375h843.75v187.5h-843.75z" fill="#007e3c" stroke-width=".16114"/></g><g fill="#fff" fill-rule="evenodd" stroke-width=".9375"><path d="m2539.3 493.2 109.31 333.86 351.3.79696-283.74 207.13 107.8 334.35-284.67-205.84-284.67 205.84 107.8-334.35-283.74-207.13 351.3-.79693z" transform="matrix(.072619 0 0 .072629 237.47 11.054)"/><path d="m2539.3 493.2 109.31 333.86 351.3.79696-283.74 207.13 107.8 334.35-284.67-205.84-284.67 205.84 107.8-334.35-283.74-207.13 351.3-.79693z" transform="matrix(.072619 0 0 .072629 365.53 57.664)"/><path d="m2539.3 493.2 109.31 333.86 351.3.79696-283.74 207.13 107.8 334.35-284.67-205.84-284.67 205.84 107.8-334.35-283.74-207.13 351.3-.79693z" transform="matrix(.072619 0 0 .072629 433.67 175.68)"/></g><path d="m562.5 281.25a140.62 140.62 0 0 1 -140.63 140.62 140.62 140.62 0 0 1 -140.62-140.62 140.62 140.62 0 0 1 140.62-140.63 140.62 140.62 0 0 1 140.63 140.63z" fill="#fff7ff" stroke-dashoffset="20" stroke-width="1.7774"/><path d="m2539.3 493.2 109.31 333.86 351.3.79696-283.74 207.13 107.8 334.35-284.67-205.84-284.67 205.84 107.8-334.35-283.74-207.13 351.3-.79693z" fill="#fff" fill-rule="evenodd" stroke-width=".9375" transform="matrix(.072619 0 0 .072629 410 309.88)"/><path d="m2539.3 493.2 109.31 333.86 351.3.79696-283.74 207.13 107.8 334.35-284.67-205.84-284.67 205.84 107.8-334.35-283.74-207.13 351.3-.79693z" fill="#fff" fill-rule="evenodd" stroke-width=".9375" transform="matrix(.072619 0 0 .072629 305.61 397.48)"/><g transform="matrix(2.4427 0 0 2.4427 -14.63 -25.267)"><g fill="#299c3a"><path d="m224.69 124.47c-.644 0-3.563-2.632-3.662-4.889l-1.178.139c0 1.396-.515 2.563-1.762 3.335-.039.495.337 1.079.109 1.593-1.099-.06-2.831.089-3.771-.099l-.455.218c-.386-.416-.762-.802-1.029-1.088-.653-.713-1.475-1.445-2.405-2.108l1.337-.336c-.871-4.879 19.912-7.641 15.271-1 .911.436 1.574 1.563 2.444 2.009-1.128 1.682-2.751 2.851-4.572 3.395z"/><path d="m224.69 124.47.326 1.168c-1.207.366-2.504.455-3.81.228 1.167 1.089 2.256 2.781 3.474 4.088-1.623.851-1.148 1.454-2.831 1.365.455 3.107-.653 5.889-1.147 8.641-1.683-1.544-3.236-3.157-4.127-5.156-.179.88-.861 1.623-1.02 2.563-1.534-.791-3.188-1.949-4.395-3.117.119-.762 2.761-4.85 2.949-5.611 3.028-.139 1.326-2.297-.139-3.87l.455-.218c.94.188 2.673.04 3.771.099.228-.515-.148-1.099-.109-1.593 1.247-.772 1.762-1.94 1.762-3.335l1.178-.139c.1 2.254 3.02 4.887 3.663 4.887z"/><path d="m222.16 102.94c.366.356 1.347 1.573 1.485 1.801-.198.752-.426 1.91-.822 2.593-1.346.663-.366.495-1.157 1.495.01-.109-.842.158-.931.218.198.633.268 1.435.436 2.118-2.099.317-3.78.317-6.047.624-.188-.663-.505-5.077-.663-5.75 2.325-1.189 4.414-3.03 7.699-3.099z"/><path d="m210.64 96.304c-.119-.059-.208-.109-.327-.168-.149.098-.04.158.327.168zm.009.732c0 .069.06.109.158.089-.059-.02-.117-.049-.158-.089zm-2.157-.94c-1.692-.802-3.484-2.494-1.771-5.384 1.633.98 3.127 1.831 4.275 3.266.524-1.049 2.009-1.811 2.622-2.89 1.465 1.375 3.227 3.008 3.475 5.196.475.079 1.167-.148 1.603.049.347.257-.356.95-.118 1.267.563.109 1.178-.03 1.731.049-.208 3.404-2.82 4.068-5.552 3.454-1.604-1.722-4.325-2.079-4.217-4.177 0-.079.011-.158.021-.237l-.584-.06c-.407-.087-.941-.266-1.485-.533z"/><path d="m214.4 101.11c.228.832.316 1.683.515 2.464-1.099.129-1.692-.109-2.771-.445-.02.376.148 1.307-.218 1.574-.376-1.089-.95-1.801-1.583-2.049-.089-.049-.179-.079-.277-.089-.792-.159-1.633.396-2.257 1.791-.108-.01-1.554.129-1.603.168.108-2.049.02-3.227 1.435-4.563-.584-.218-1.504-.336-2.078-.396-.179.03.178-.92.158-.93 1.079.228 2.098.376 2.939.564.366-1.178.089-2.751 0-2.9v.99h-.168v-.168-.822-.208c.544.267 1.078.445 1.484.534l.584.06c-.01.079-.021.158-.021.237-.108 2.098 2.613 2.455 4.217 4.177z"/><path d="m140.99 151.7c3.8-2.554 7.66-4.701 11.777-6.849.732-.386 1.475-.762 2.227-1.148.544-.286 1.099-.563 1.653-.841.455-.237.911-.475 1.366-.703.287-.148.574-.297.861-.445 2.643-1.355 5.028-2.979 7.294-4.721.821-.633 1.623-1.276 2.425-1.93.099.069.208.129.316.188 1.455-1.01 2.504-1.989 3.187-3.088 3.583-2.96 7.205-5.83 11.48-7.858.416-.198.831-.376 1.257-.535 1.86-.732 3.84-1.237 5.76-1.762 2.87-.792 5.622-1.672 7.71-3.563 2.099-1.89 2.475-4.364 4.028-6.215.02-.02.029-.04.05-.059.494-.574 1.108-1.059 1.762-1.524 1.365-.96 2.89-1.801 3.889-3.088 1.06-1.385 1.772-3.404 2.029-4.988.099.01.188.04.277.089l-.03.079c1 1.148 1.148 2.643.763 4.275-.317 1.346-1 2.791-1.861 4.207-.218-.02-.267 0-.059.099-.277.02-.218.049-.04.079-1.93 3.117-4.661 6.086-6.186 7.621-.02 0-.05.01-.069.01-.119.049-.119.06.01.049.02-.02.04-.04.06-.059 2.405-.347 5.314.9 7.61 2.553.931.663 1.752 1.396 2.405 2.108.268.287.644.673 1.029 1.088 1.465 1.573 3.167 3.731.139 3.87-.029-.01-.06-.01-.099 0-1.069-.069-2.9-2.079-4.414-3.583-.684-.673-1.297-1.247-1.762-1.504-5.563-3.078-9.135-1.475-13.678.653-.644.307-1.316.614-2.009.93-.229.099-.456.198-.674.297-4.819 2.059-8.828 2.643-13.004 6.503-3.623 3.325-6.77 6.552-10.719 9.104-1.178.772-2.425 1.475-3.781 2.108-1.475.683-2.9 1.415-4.305 2.167-2.286 1.228-4.513 2.524-6.809 3.851-.96.563-1.93 1.128-2.93 1.692-.712.405-1.366.851-1.969 1.336-3.662 2.86-5.75 6.858-9.66 9.382l-.079-.118c-1.514-1.534-3.078-2.949-4.107-4.603 2.298-1.927 4.574-3.62 6.88-5.154z"/><path d="m212.84 106.71c.563-.168 1.099-.406 1.623-.673-.228.96-.742 4.681-.713 6.077-.792-.089-3.751-.802-4.533-.891.861-1.416 1.544-2.86 1.861-4.207l.06.01c.603-.029 1.167-.148 1.702-.316z"/><path d="m214.01 128.64c-.485.049-1.792.871-2.851 1.633l-.089-.168c.01-.011.029-.011.039-.021-2.612-2.929-4.721-4.73-7.759-5.354 1.86-.445 2.741.307 4.127.94.851.387 2.633 2.88 1.999-.494l.119-.119c1.514 1.504 3.345 3.513 4.415 3.583z"/><path d="m200.05 127.42c-.05-.02-.109-.05-.168-.06.059.03.108.069.168.1zm3.306-2.692c3.038.624 5.146 2.425 7.759 5.354-.01.01-.029.01-.039.021-1.297.613-2.158 1.811-3.107 2.593 0-.03.01-.05.01-.079-.574.02-1.139-.03-1.683-.129-4.859-.871-8.393-5.879-12.619-4.79l-.376.119c-.416-.753-1.089-1.802-1.791-2.316l-.03-.069c.218-.099.445-.198.674-.297.692-.316 1.365-.624 2.009-.93l.148.307c1.455.02 3.771.198 5.572.366.059.05.108.109.168.159l-.01-.525c1.236-.061 2.324.018 3.315.216z"/><path d="m206.04 133.74.248-1.257c.544.099 1.108.148 1.683.129 0 .029-.01.049-.01.079-.277 1.989-.159 4.098.336 5.978-.485.198-1-.218-1.445-.129.377 1.277-.118 2.801.119 4.098-2.771-.594-5.889-.851-7.977-3.068l.584-.712c-.139-.535.039-1.851 0-1.812l.831-.831c-.119-.693-.04-2.554.139-3.909l1.346.118c0 .03.01.05.01.079l.644-.079c.978.842 2.295 1.316 3.492 1.316z"/><path d="m200.55 132.31c-.179 1.355-.258 3.216-.139 3.909l-.831.831c.039-.039-.139 1.276 0 1.812l-.584.712c-.238.713-.812 1.307-1.099 2.079-2.999-2.989-12.906-9.857-4.444-13.539-.049-.09-.099-.198-.158-.297l.376-.119c4.227-1.089 7.76 3.919 12.619 4.79l-.248 1.257c-1.197 0-2.514-.475-3.493-1.316l-.644.079c0-.029-.01-.049-.01-.079z"/><path d="m203.36 110.15c.277.02.515.128.673.336l.109.158c-.653.465-1.268.95-1.762 1.524-.021.02-.03.04-.05.059l-.109-.089c-.405-.01-.563-.248-.494-.663l.089-.129c-.465-.287-1.059-1.059-1.247-1.682h-.158c-.337 1.039-1.197 2.247-.831 4.077-.653-4.582-10.738-.277-9.699-8.501 1.128.04 2.267-.772 3.404-.722.168-1.663 1.049-3.108 1.02-4.85 1.168.752 2.643.564 3.731 1.099-.268-.931 0-2-.238-2.949 5.761.089 7.858 6.967 4.098 10.53.455.96 1 1.603 1.494 1.494z"/></g><path d="m171.35 84.922v-.01c-.732-.653-1.504-1.069-2.256-1.287v-.01c-.069-.218-.148-.416-.237-.594.692-2.088-1.871-9.788 9.62-3.553 1.692.91 6.403-3.059 7.917-.871 1.287 1.871-.445 4.711-1.97 5.453 4.454 1.9 12.114 5.305 12.361 9.947l-.059.316c-7.482-1.217-15.717-6.661-24.188-.653h-.822c-.01-.069-.01-.128-.02-.198-.197-2.433-.435-5.67-.346-8.54z" fill="#e6e631"/><path d="m182.72 112.75c6.463-5.83 6.443 3.276 12.055 2.048-.336 2.811-2.246 5.028-4.256 6.908l.079.297c-1.92.524-3.899 1.029-5.76 1.762l-.099-.248c-5.711-.93-5.76-7.393-2.019-10.767z" fill="#299c3a"/><path d="m172.92 95.948c3.147-.95 7.027.841 8.363 4.137.584 1.425.762 2.801.683 4.137h-.029c-1.673.109-2.92 1.039-3.464 2.306l-.169-.03c.198-.524.327-1.039.337-1.455.069-7.601-8.759-3.583-12.005-.95-1.356 1.108-2.632 2.445-3.78 3.929l-.218-.168c-.05-1.049-.356-3.197-.663-4.454l-.119-.148c.317-.248.644-.475.95-.683l.327-.327h.327c.505-1.247 3.296-3.474 4.8-5.275-.237-.534-.583-.861-.703-1.455-.109-.505-3.523-4.266-3.761-4.652-.762-1.227.614-5.611-1.643-3.691.386-4.068 4.949-7.829 6.701-4.147.089.178.168.376.237.594v.01c-3.058-.931-5.77 1.396-4.325 4.523.762 1.672 2.722 3.583 6.453 5.354l.475-.04c.01.069.01.129.02.198h.159c-.04.852.436 1.792.99 1.979z" fill="#fff"/><path d="m181.94 104.22h.029c-.208 3.603-2.286 6.947-3.365 10.194-.831 2.504-1.474 4.958-2.286 7.274-.633-.96-2.632-2.475-3.949-2.128l-.079-.06c2.593-3.395 4.711-7.769 4.76-10.729.436-.554.94-1.435 1.257-2.276l.169.03c.544-1.266 1.791-2.196 3.464-2.305z" fill="#e6e631"/><path d="m162.86 108.02c1.148-1.484 2.424-2.821 3.78-3.929 3.247-2.632 12.075-6.651 12.005.95-.01.416-.139.93-.337 1.455-.316.841-.821 1.722-1.257 2.276.01-.327-.01-.633-.059-.92-2.979-18.161-21.2 11.184-13.856 12.866-.416-.02-.683.168-.821.495l.653.326c1.207 5.464 5.73 2.653 9.323-2.039l.079.06c1.316-.347 3.315 1.167 3.949 2.128-.722 2.058-1.573 4.008-2.791 5.79l-.495.04c-.03-.466-.099-.961-.188-1.495-1.296-.247-3.107-.445-4.434-.029l-.614-.05c-1.92.91-2.623 4.642-4.345 6.097-1.138.96-4.533 2.623-4.761 4.335v.01c-.01.089-.01.168-.01.247v.079c-.079.861.277 3.751.198 4.998-.287.148-.574.297-.861.445-.455.229-.911.466-1.366.703l-.277-.534c-.148-.515-.801-2.939-1.019-4.583-.416-.267-.871-.108-1.267-.396.178-1.812-.237-3.741-.059-5.542-.386-.218-.871-.158-1.267-.396-.861-3.306 1.237-9.827-.188-10.856l-.307-.04c.168-1.276.386-2.523.683-3.741l.614.148c.515 1.178.455 2.049 2.128 1.959 1.178-3.543 7.037-12.114 4.8-13.836l-.346-.386c.524-.475 1.118-.96 1.712-1.405l.119.148c.307 1.257.613 3.405.663 4.454z" fill="#fff"/><g fill="#e6e631"><path d="m177.46 171.66c-.525.039-1.663-.169-2.227-.277.257.723.822 1.188 1.029 1.93-1.079-.307-1.415-.376-2.256-.921 0 .09.307 1.416.327 1.416-4.573.723-10.115-3.494-10.244-8.195-.02-.089-.792-.01-.93-.228 0-.06 0-.118.01-.188l1.277.059c2.346-1.93 4.85-3.701 7.423-5.116l.831-.495c1.821 2.712 3.84 5.364 4.929 8.383-.624 0-1.356.01-1.821.03.811 1.118.91 2.513 1.652 3.602z"/><path d="m177.05 108.77c-.049 2.959-2.167 7.334-4.76 10.729-3.593 4.691-8.116 7.502-9.323 2.039l-.653-.326c.139-.327.406-.515.821-.495-7.344-1.683 10.877-31.027 13.856-12.866.049.286.069.592.059.919z"/><path d="m164.86 132.19c-1.445 1.702-4.087 3.028-6.176 4.187.228-1.712 3.623-3.375 4.761-4.335 1.722-1.455 2.425-5.187 4.345-6.097l.614.05c1.326-.416 3.137-.218 4.434.029.089.534.158 1.029.188 1.495.148 1.89-.139 3.354-.93 4.642-1.168.97-2.326 1.949-3.503 2.899-1.257-.762-1.97-1.86-2.237-3.048l-.426.089c-.287.168-.624.228-.99.158z"/></g><path d="m164.47 151.28-.04-.772c.525-.02.861-.268 1.178-.436l.901-.574c.327.139.653.119.911-.079l1.128-.02c.297 2.157.812 4.295 1.88 6.443.653 1.306 1.445 2.563 2.276 3.8l-.831.495c-2.573 1.415-5.077 3.187-7.423 5.116l-1.277-.059c.02-.772.178-1.623.267-2.396-.534-.06-1.257.129-1.761-.05.515-1.326.178-3.077.772-4.403-1.02-.258-1.712-1.158-2.167-2.376-.446-1.197-.663-2.701-.743-4.235l.129-.01c1.207-.147 3.345-.355 4.8-.444z" fill="#fff"/><g fill="#e6e631"><path d="m164.76 88.149c-1.445-3.127 1.267-5.454 4.325-4.523.752.218 1.524.633 2.256 1.287v.01c-.089 2.87.148 6.106.347 8.541l-.475.04c-3.732-1.773-5.691-3.683-6.453-5.355z"/><path d="m164.43 150.51.04.772c-1.455.089-3.592.297-4.8.445l-.129.01c-.119-2.326.089-4.711.297-6.116l-.168-.308c1.405-.752 2.831-1.484 4.305-2.167 1.356-.634 2.603-1.336 3.781-2.108.376 2.821.406 5.602.792 8.363l-1.128.02c-.257.198-.584.218-.911.079l-.901.574c-.316.168-.653.416-1.178.436z"/><path d="m162.15 87.169c2.257-1.92.881 2.464 1.643 3.691.238.386 3.652 4.147 3.761 4.652.119.594.465.92.703 1.455-1.504 1.801-4.295 4.028-4.8 5.275h-.327c-2.346-2.563-4.553-11.352-1.692-14.39.267-.287.504-.515.712-.683z"/><path d="m166.17 136.99c-2.267 1.742-4.652 3.365-7.294 4.721.08-1.247-.277-4.137-.198-4.998v-.079c0-.079 0-.158.01-.247v-.01c2.088-1.158 4.731-2.484 6.176-4.187l.079.069c.366.069.703.01.99-.158l.426-.089c.267 1.188.979 2.286 2.237 3.048-.803.654-1.604 1.297-2.426 1.93z"/><path d="m160.49 105.04c2.237 1.722-3.622 10.293-4.8 13.836-1.673.089-1.613-.782-2.128-1.959l-.614-.148c1-4.177 2.93-8.135 7.086-12.015.03-.03.069-.069.109-.099z"/></g><path d="m159.45 156.16c.752 2.197.366 4.898.732 7.552-2.761-.416-5.552-1.544-8.234-2.218-.049.05-.109.109-.168.159.178 1.059-.336 2.424-.059 3.553-2.761-1.653-11.698-9.649-3.296-10.372-.228-.644-.257-2.336-.307-2.444l-.158-.198c.604-.485 1.257-.931 1.969-1.336 1-.564 1.97-1.129 2.93-1.692l.049.089c-1.593 4.889 3.039 2.554 5.325 4.899.584.603.96 1.276 1.217 2.008z" fill="#299c3a"/><path d="m154.71 142.41-.228-.02c0-.109-.386-.96-.445-1.861-.218-.188-.881.139-.98.079-.168-.752.129-1.623-.01-2.385-.327-.228-.94.168-1.267-.05-.178-.891.089-1.86-.059-2.751-.129-.168-.772.029-.93-.228.9-5.314.88-10.154 1.475-14.688l.307.04c1.425 1.029-.673 7.551.188 10.856.396.238.881.179 1.267.396-.178 1.801.237 3.73.059 5.542.396.287.851.129 1.267.396.218 1.644.871 4.068 1.019 4.583l.277.534c-.554.277-1.108.555-1.653.841l-.109-.217c-.168-.236-.227-.671-.178-1.067z" fill="#e6e631"/><path d="m140.97 150.74-.139-.129c.643-.692 1.277-1.623 1.831-2.315-.06 0-.366-.05-.356-.158-1.593.148-3.612.168-5.077.455l-.653-.158c-1.375-2.267-8.115-6.987-.861-7.621.247-3.117 1.167-5.948 1.544-9.026 2.534.822 4.869 2.584 6.245 4.78 1.247-1.246 2.711-1.336 4.137-2.127.633 2.899-.535 5.7-.485 8.689 1.316-.387 3.009.297 4.236.049.198.445.178 1 .376 1.436 1.039 0 1.01.198.98.198l.02.039c-4.117 2.147-7.977 4.295-11.777 6.849-.388-.258-.348-.614-.021-.961z" fill="#299c3a"/><g stroke="#000"><g fill="none" stroke-linecap="round" stroke-linejoin="round"><g stroke-width=".57"><path d="m163.13 102.24c-2.346-2.563-4.553-11.352-1.692-14.39.267-.287.505-.515.712-.683 2.257-1.92.881 2.464 1.643 3.691.238.386 3.652 4.147 3.761 4.652.119.594.465.92.703 1.455-1.504 1.801-4.295 4.028-4.8 5.275"/><path d="m163.95 99.104v-3.295"/><path d="m162.14 87.229c0-.02 0-.04.01-.06.386-4.068 4.949-7.829 6.701-4.147.089.178.168.376.237.594"/><path d="m163.46 87.07c.564.198.03.485.564.198"/><path d="m171.35 84.913c-.732-.653-1.504-1.069-2.256-1.287-3.058-.931-5.77 1.396-4.325 4.523.762 1.672 2.722 3.583 6.453 5.354"/><path d="m171.54 85.09c-.069-.059-.129-.119-.198-.168"/><path d="m171.54 82.122c-.109.851-.178 1.801-.198 2.791v.01c-.089 2.87.148 6.106.347 8.541.01.069.01.129.02.198"/><path d="m168.58 83.438c.129-.08.218-.228.277-.416.692-2.088-1.871-9.788 9.62-3.553 1.692.91 6.403-3.059 7.917-.871 1.287 1.871-.445 4.711-1.97 5.453 4.454 1.9 12.114 5.305 12.361 9.947"/><path d="m172.53 93.661c8.472-6.007 16.706-.564 24.188.653.02 0 .039.01.059.01"/><path d="m172.86 83.764c1.425-.257 3.078-.119 4.642.06 1.801.218 3.494.495 4.602.277"/><path d="m177.48 81.953c.119.188.178 1.148.02 1.871 0 .04-.01.079-.02.109"/><path d="m178.47 81.458c1.563-.396 3.493-.584 5.274-.495"/><path d="m178.8 80.469h2.147"/><path d="m173.2 89.208c6.591-2.019 19.002-.544 22.427 4.622"/><path d="m175.67 91.355c3.305-1.792 9.531-1.851 12.698.168"/><path d="m168.25 90.86c.742.03 2.989.356 1.811-.168"/><path d="m170.23 91.682c-.228-.069-.426-.03-.495.168"/><path d="m170.23 91.682c.049.416.297-.109.327-.159"/><path d="m161.48 94.325c-.119 1.355.139 2.939.336 3.137"/><path d="m161.15 89.703c-.247.614-.237 1.91-.168 1.979"/><path d="m164.78 85.744c-.089 1.346-.099 1.396-.02 2.405.01.069.01.148.02.237"/><path d="m166.92 94.325c.683-.159 1.416-.099 2.088-.139-.267.534-.584 1.059-.93 1.455"/><path d="m171.87 93.661c-.04.852.436 1.792.99 1.979"/><path d="m169.73 98.452c.812-1.316 1.939-2.128 3.187-2.504 3.147-.95 7.027.841 8.363 4.137.584 1.425.762 2.801.683 4.137-.208 3.603-2.286 6.947-3.365 10.194-.831 2.504-1.474 4.958-2.286 7.274-.722 2.058-1.573 4.008-2.791 5.79"/><path d="m168.25 126.49c-.119-.06-.218-.109-.336-.169"/><path d="m168.25 126.49c-1.554 1.326-2.335 3.543-1.89 5.522.267 1.188.979 2.286 2.237 3.048.099.069.208.129.316.188 1.455-1.01 2.504-1.989 3.187-3.088.792-1.287 1.079-2.752.93-4.642-.03-.466-.099-.961-.188-1.495-1.296-.247-3.107-.445-4.434-.029"/><path d="m172.53 125.5c.821-1.168 1.475-2.534 1.811-3.791"/><path d="m163.13 120.72c-.416-.02-.683.168-.821.495"/><path d="m163.13 120.72c-7.344-1.683 10.877-31.027 13.856-12.866.049.287.069.594.059.92-.049 2.959-2.167 7.334-4.76 10.729-3.593 4.691-8.116 7.502-9.323 2.039"/><path d="m157.69 118.08c.95-3.385 2.801-7.017 5.167-10.055 1.148-1.484 2.424-2.821 3.78-3.929 3.247-2.632 12.075-6.651 12.005.95-.01.416-.139.93-.337 1.455-.316.841-.821 1.722-1.257 2.276-.02.03-.04.05-.059.069"/><path d="m158.18 119.56c.316-.584 1.801-2.563 2.801-3.632"/><path d="m158.02 122.7c.832-.832 1.683-1.673 2.474-2.474"/><path d="m158.02 125.17c.821-.772 2.949-2.94 2.969-2.969"/><path d="m158.18 127.98c1.336-1.268 2.939-2.573 4.454-3.632"/><path d="m158.68 130.45c1.604-1.643 3.642-3.167 5.275-4.948"/><path d="m158.68 133.42c1.732-1.989 4.058-3.543 5.938-5.275"/><path d="m160 134.08c1.613-1.356 3.533-2.92 4.948-4.454"/><path d="m158.69 136.38c2.088-1.158 4.731-2.484 6.176-4.187.03-.029.06-.06.079-.089"/><path d="m158.68 136.39h.01"/><path d="m158.88 141.71c.08-1.247-.277-4.137-.198-4.998"/><path d="m164.94 132.26c.366.069.703.01.99-.158"/><path d="m154.39 142.32v.326"/><path d="m154.39 142.32c.06.079.089.099.089.069 0-.109-.386-.96-.445-1.861-.218-.188-.881.139-.98.079-.168-.752.129-1.623-.01-2.385-.327-.228-.94.168-1.267-.05-.178-.891.089-1.86-.059-2.751-.129-.168-.772.029-.93-.228.9-5.314.88-10.154 1.475-14.688.168-1.276.386-2.523.683-3.741 1-4.177 2.93-8.135 7.086-12.015.03-.03.069-.069.109-.099.524-.475 1.118-.96 1.712-1.405.317-.248.644-.475.95-.683"/><path d="m161.97 103.4c.307 1.257.613 3.405.663 4.454"/><path d="m153.56 116.92c.515 1.178.455 2.049 2.128 1.959 1.178-3.543 7.037-12.114 4.8-13.836"/><path d="m152.57 120.55c1.425 1.029-.673 7.551.188 10.856.396.238.881.179 1.267.396-.178 1.801.237 3.73.059 5.542.396.287.851.129 1.267.396.218 1.644.871 4.068 1.019 4.583"/><path d="m154.89 123.69c-.168 2.455-.327 4.988-.139 7.393.614.158 1.475.326 2.088.386-.049.732.119 1.812.158 2.593-1.514.822-1.079.782-1.099 2.96.891 1.059 2.029 4.285 2.118 5.136.01.08.01.129 0 .169"/><path d="m156.87 120.22c-.604 4.404-1.425 7.868.653 11.708"/><path d="m161.48 135.56c-.445.802-2.207 4.374-.99 3.79"/><path d="m163.63 134.41c.524.9 1.702 2.068 2.543 2.583.04.021.069.04.099.06"/></g><g stroke-width=".67"><path d="m133.94 157c.06-.049.119-.099.178-.148 2.296-1.93 4.572-3.622 6.878-5.156 3.8-2.554 7.66-4.701 11.777-6.849.732-.386 1.475-.762 2.227-1.148.544-.286 1.099-.563 1.653-.841.455-.237.911-.475 1.366-.703.287-.148.574-.297.861-.445 2.643-1.355 5.028-2.979 7.294-4.721.821-.633 1.623-1.276 2.425-1.93 1.178-.95 2.335-1.93 3.503-2.899 3.583-2.96 7.205-5.83 11.48-7.858.416-.198.831-.376 1.257-.535 1.86-.732 3.84-1.237 5.76-1.762 2.87-.792 5.622-1.672 7.71-3.563 2.099-1.89 2.475-4.364 4.028-6.215.02-.02.029-.04.05-.059.494-.574 1.108-1.059 1.762-1.524 1.365-.96 2.89-1.801 3.889-3.088 1.06-1.385 1.772-3.404 2.029-4.988.04-.168.06-.336.079-.495"/><path d="m134.1 156.84s0 .01.01.01c1.029 1.653 2.593 3.068 4.107 4.603"/><path d="m202.93 119.02c1.524-1.534 4.256-4.503 6.186-7.621.01-.02.03-.05.04-.079.02-.03.039-.06.059-.099.861-1.416 1.544-2.86 1.861-4.207.386-1.633.237-3.127-.763-4.275"/><path d="m202.93 119.02c-.02 0-.05.01-.069.01-.119.049-.119.06.01.049.019-.02.039-.04.059-.059z"/><path d="m138.22 161.62c.03-.02.049-.029.079-.05 3.909-2.523 5.998-6.521 9.66-9.382.604-.485 1.257-.931 1.969-1.336 1-.564 1.97-1.129 2.93-1.692 2.296-1.326 4.523-2.623 6.809-3.851 1.405-.752 2.831-1.484 4.305-2.167 1.356-.634 2.603-1.336 3.781-2.108 3.949-2.553 7.096-5.779 10.719-9.104 4.176-3.86 8.185-4.444 13.004-6.503.218-.099.445-.198.674-.297.692-.316 1.365-.624 2.009-.93 4.543-2.128 8.115-3.731 13.678-.653.465.257 1.078.832 1.762 1.504 1.514 1.504 3.345 3.514 4.414 3.583h.099c3.028-.139 1.326-2.297-.139-3.87-.386-.416-.762-.802-1.029-1.088-.653-.713-1.475-1.445-2.405-2.108-2.296-1.653-5.205-2.9-7.61-2.553"/><path d="m137.23 148.59c1.465-.287 3.484-.307 5.077-.455-.01.108.297.158.356.158-.554.692-1.188 1.623-1.831 2.315-.099.109-.198.208-.297.297"/><path d="m136.58 148.43c-1.375-2.267-8.115-6.987-.861-7.621.247-3.117 1.167-5.948 1.544-9.026 2.534.822 4.869 2.584 6.245 4.78 1.247-1.246 2.711-1.336 4.137-2.127.633 2.899-.535 5.7-.485 8.689 1.316-.387 3.009.297 4.236.049.198.445.178 1 .376 1.436 1.039 0 1.01.198.98.198l-.01-.011"/><path d="m138.22 136.56c.802 3.188 4.602 4.543 5.384 7.512.248.892.208 1.931-.267 3.207"/><path d="m143.34 143.98c.089.03.178.069.267.089 1.257.436 2.652.574 4.018.406"/><path d="m145.32 145.46c.316.406 1.811 2.673 1.158 1.316"/><path d="m143.34 138.04c-.208.683-.228 2.969-.327 2.801"/><path d="m145.15 137.54c.01.06.099 3.266 0 4.285"/><path d="m137.07 142.49c1.049.089 3.791.168 3.958.158"/><path d="m138.06 143.81c.91.069 3.107.485 3.127.495"/><path d="m148.12 152.39c.049.108.079 1.801.307 2.444-8.402.723.535 8.719 3.296 10.372-.277-1.129.237-2.494.059-3.553.06-.05.119-.109.168-.159 2.682.674 5.473 1.802 8.234 2.218-.366-2.653.02-5.354-.732-7.552-.257-.732-.633-1.405-1.217-2.009-2.286-2.346-6.918-.011-5.325-4.899"/><path d="m149.44 156.68c-.049.039-.129.129-.168.168"/><path d="m149.44 156.67c.02-.01.02-.021.03-.03l.01-.01"/><path d="m149.44 156.68c-.01.356-.129 2.83-.168 3.79"/><path d="m149.44 156.64v.03"/><path d="m149.44 156.67v.01"/><path d="m152.91 156.35c.04.881.139 3.227.158 4.117"/><path d="m153.4 156.01c-.188-.555-.456-.723-.337-1.426 1.029 2.821 3.504 5.275 5.117 7.364"/><path d="m157.19 160.14c.188-1.108.188-2.188 0-3.296"/><path d="m149.44 154.37c2.831-.644 6.007-.485 7.581 1.484"/><path d="m184.74 123.52c-5.711-.93-5.761-7.393-2.02-10.768 6.463-5.83 6.443 3.276 12.055 2.048-.336 2.811-2.246 5.028-4.256 6.908"/><path d="m183.25 113.13c-.238 1.306-.109 3.523.336 4.948"/><path d="m184.74 118.4c.188.92.287 1.128.168-.327"/><path d="m187.71 112.96c.129-.237 0 .99 0 .99"/><path d="m186.39 114.61c-.01.426.069 2.474.168 3.464"/><path d="m185.73 119.73c1.069-.099 2.059-.148 3.138-.168"/><path d="m185.4 119.73c.257.802.455 2.019.494 2.969"/><path d="m182.76 120.22c0 .356.376 1 .831 1.316"/><path d="m189.36 118.74c1.315-.693 2.147-1.851 2.306-3.306"/><path d="m200.57 109.66c.188.624.782 1.396 1.247 1.682.089.069.168.109.237.129"/><path d="m201.9 108.35c.455.96 1 1.603 1.494 1.494.109-.02.218-.079.317-.178"/><path d="m200.41 109.66c-.337 1.039-1.197 2.247-.831 4.077-.653-4.582-10.738-.277-9.699-8.501 1.128.04 2.267-.772 3.404-.722.168-1.663 1.049-3.108 1.02-4.85 1.168.752 2.643.564 3.731 1.099-.268-.931 0-2-.238-2.949 5.761.089 7.858 6.967 4.098 10.53-.06.059-.108.109-.168.158"/><path d="m203.22 106.7h.989.347"/><path d="m192 108.68c1.692-.079 6.522.178 6.434.168"/><path d="m191.17 107.52c1.415-.01 3.068.119 4.296.336"/><path d="m193.64 106.37c.079-.594.297-2.267.336-2.474v-.02"/><path d="m194.48 100.76v-.168"/><path d="m194.48 100.76c.426-.01.337.703 0 1.812"/><path d="m195.47 104.1v-.049"/><path d="m195.62 102.9c.247-1.089-.079.821-.158 1.197 0 .04-.011.06-.011.06"/><path d="m196.78 104.05c-.108-.356-.089 1.425-.168 1.979"/><path d="m198.44 105.71h3.464"/><path d="m200.74 106.03c-.356.93-.653 2.335-.663 2.969"/><path d="m198.59 100.59c-.445 1.049-.97 3.078-1.148 4.622"/><path d="m199.42 101.75c1.475.594 2.702 1.653 3.128 2.643"/><path d="m191.51 125.5c.702.515 1.375 1.563 1.791 2.316.06.099.109.207.158.297-8.462 3.682 1.445 10.55 4.444 13.539.287-.772.86-1.366 1.099-2.079 2.088 2.218 5.205 2.475 7.977 3.068-.237-1.297.258-2.82-.119-4.098.445-.089.96.327 1.445.129-.495-1.88-.613-3.988-.336-5.978 0-.03.01-.05.01-.079-.574.02-1.139-.03-1.683-.129-4.859-.871-8.393-5.879-12.619-4.79.04-.119.436-.99.466-1.207"/><path d="m196.29 128.64c-.04 2.494-1.257 7.521.989 8.075"/><path d="m198.96 132.02c-.01-.01-.02-.04-.029-.089"/><path d="m198.44 129.29c-.089-.674.524 2.523.524 2.731v.01"/><path d="m200.74 131.27c-.069.268-.128.634-.188 1.04-.179 1.355-.258 3.216-.139 3.909"/><path d="m199.58 137.05c.039-.039-.139 1.276 0 1.812"/><path d="m201.9 132.43c0 .03.01.05.01.079.287 2.554 1.484 5.622 2.959 7.018"/><path d="m202.55 132.43c.979.842 2.296 1.316 3.493 1.316h.139"/><path d="m194.14 124.68c2.068.663 3.919 1.583 5.74 2.682.059.03.108.069.168.1v-.04c.118-.732.089-1.643 0-2.385-.06-.05-.109-.109-.168-.159-1.802-.168-4.117-.346-5.572-.366"/><path d="m199.92 124.51h.119c1.237-.059 2.325.02 3.315.218 3.038.624 5.146 2.425 7.759 5.354-.01.01-.029.01-.039.021-1.297.613-2.158 1.811-3.107 2.593-.1.079-.198.158-.298.228"/><path d="m200.91 128.14c2.286.148 5.492.94 7.581 2.475"/><path d="m201.4 127.48c-.069.188 1.841-1.415 3.128-1.979"/><path d="m200.91 127.98c-.218-.208-.535-.416-.861-.555-.05-.02-.109-.05-.168-.06-.04-.02-.09-.039-.129-.049"/><path d="m209.65 131.61c-.228.02.545-.634 1.515-1.336 1.059-.762 2.365-1.584 2.851-1.633.039-.01.069-.01.099 0-.188.762-2.83 4.85-2.949 5.611 1.207 1.168 2.86 2.326 4.395 3.117.158-.939.841-1.683 1.02-2.563.891 1.999 2.444 3.612 4.127 5.156.494-2.752 1.603-5.533 1.147-8.641 1.683.089 1.208-.515 2.831-1.365-1.218-1.307-2.307-2.999-3.474-4.088 1.306.228 2.603.139 3.81-.228 1.821-.544 3.444-1.712 4.572-3.395-.87-.446-1.533-1.574-2.444-2.009 4.642-6.641-16.142-3.88-15.271 1 .02.099.049.208.079.307"/><path d="m214.27 124.51c.05.02.109.03.158.04.94.188 2.673.04 3.771.099.228-.515-.148-1.099-.109-1.593 1.247-.772 1.762-1.94 1.762-3.335 0-.416-.05-.861-.139-1.316"/><path d="m214.76 122.36c1.633-.475 2.851-1.93 2.969-3.623"/><path d="m221.03 119.56v.02c.099 2.257 3.019 4.889 3.662 4.889.089 0 .129-.04.129-.128"/><path d="m222.35 120.55c1.108.336 2.959.406 3.138.326"/><path d="m226.97 123.36v-.01"/><path d="m224.66 122.36c0 .03 2.207 1 2.307 1h.01"/><path d="m216.74 126.66c2.128.228 3.275-.723 3.127-2.969"/><path d="m219.38 126.49c.613.821 1.523 1.484 2.474 1.811"/><path d="m214.92 129.46c-.386.732-.871 2.92-.821 3.296"/><path d="m215.09 128.96c-.128.979 1.307.545 2.801 0"/><path d="m217.4 130.6v.021c-.01.267-.03 3.019 0 2.474"/><path d="m217.4 129.78c1.683.703 4.117.732 4.79.337"/><path d="m219.54 131.76c-.158 1.108-.376 3.276-.495 4.79"/><path d="m210.81 97.125c-.099.02-.158-.02-.158-.089-.01-.02-.01-.04-.01-.069"/><path d="m210.81 97.125c-.06-.02-.118-.05-.158-.089-.05-.03-.079-.069-.109-.109-.029-.04-.049-.079-.068-.128"/><path d="m210.64 96.304c-.119-.059-.208-.109-.327-.168"/><path d="m210.64 96.304c-.366-.01-.476-.069-.327-.168"/><path d="m209.98 96.63c-.406-.089-.94-.267-1.484-.534-1.692-.802-3.484-2.494-1.771-5.384 1.633.98 3.127 1.831 4.275 3.266.524-1.049 2.009-1.811 2.622-2.89 1.465 1.375 3.227 3.008 3.475 5.196.475.079 1.167-.148 1.603.049.347.257-.356.95-.118 1.267.563.109 1.178-.03 1.731.049-.208 3.404-2.82 4.068-5.552 3.454-1.604-1.722-4.325-2.079-4.217-4.177 0-.079.011-.158.021-.237.02-.129.039-.248.079-.386"/><path d="m208.16 93.83c-.208.723-.168 1.524 0 1.653"/><path d="m212.78 93.998c-.01.089.01 1.316.029 1.781.971.317 2.326.564 3.435.356"/><path d="m211.13 96.967c.158-.029 1.078.089 1.435.05-.089.524-.208 1.108-.445 1.593"/><path d="m214.76 98.452c1.039.109 2.909.386 3.464.495"/><path d="m208.49 97.293h.168"/><path d="m208.66 96.304c.089.148.366 1.722 0 2.9-.842-.188-1.86-.336-2.939-.564.02.01-.337.96-.158.93.574.06 1.494.178 2.078.396-1.415 1.336-1.326 2.514-1.435 4.563.049-.04 1.494-.178 1.603-.168.624-1.396 1.465-1.95 2.257-1.791.099.01.188.04.277.089.633.248 1.207.96 1.583 2.049.366-.267.198-1.198.218-1.574 1.079.336 1.673.574 2.771.445-.198-.782-.287-1.633-.515-2.464-.416.198-1.623.416-2.078.445-.139-.376-.148-1.534-.366-1.791"/><path d="m214.46 106.03c-.228.96-.742 4.681-.713 6.077-.792-.089-3.751-.802-4.533-.891-.218-.02-.267 0-.059.099"/><path d="m214.46 106.03c2.325-1.188 4.414-3.029 7.699-3.098.366.356 1.347 1.573 1.485 1.801-.198.752-.426 1.91-.822 2.593-1.346.663-.366.495-1.157 1.495.01-.109-.842.158-.931.218.198.633.268 1.435.436 2.118-2.099.317-3.78.317-6.047.624-.188-.664-.505-5.078-.663-5.751z"/><path d="m211.13 107.02c.604-.03 1.167-.148 1.702-.317.563-.168 1.099-.406 1.623-.673"/><path d="m212.82 105.63s.01.436.01 1.079c.029 1.435.02 3.929-.218 4.938"/><path d="m215.75 107.19c.04.653-.276 2.316-.663 3.296"/><path d="m217.56 108.35c2.009-.416 3.414-1.742 3.632-3.464"/><path d="m216.25 116.76c.644-1.307 1.712-2.059 2.157-3.444-.049-.04 1.029.148.95.178-.207 1.326-1.009 2.534-2.117 3.592"/></g><g stroke-width=".57"><path d="m159.84 145.62c-.208 1.405-.416 3.79-.297 6.116.08 1.534.297 3.038.743 4.235.455 1.218 1.148 2.118 2.167 2.376-.594 1.326-.257 3.077-.772 4.403.504.179 1.227-.01 1.761.05-.089.772-.247 1.623-.267 2.396-.01.069-.01.128-.01.188.139.218.911.139.93.228.129 4.701 5.671 8.918 10.244 8.195-.02 0-.327-1.326-.327-1.416.841.545 1.178.614 2.256.921-.208-.742-.772-1.207-1.029-1.93.564.108 1.702.316 2.227.277-.742-1.089-.841-2.484-1.653-3.603.465-.021 1.197-.03 1.821-.03-1.088-3.019-3.107-5.671-4.929-8.383-.831-1.237-1.623-2.494-2.276-3.8-1.069-2.148-1.583-4.286-1.88-6.443-.386-2.762-.416-5.542-.792-8.363v-.029"/><path d="m162.31 145.29c-.336.564-.465 2.375-.168 3.296"/><path d="m163.63 147.77c-.099.841 0 1.771.029 2.612.297.1.554.139.772.129.525-.02.861-.268 1.178-.436"/><path d="m164.45 144.97c0 .702.257 3.067.495 4.117"/><path d="m159.67 151.73c1.208-.148 3.345-.356 4.8-.445.574-.04 1.04-.06 1.307-.05"/><path d="m166.1 149.25c.128.108.267.198.406.247.327.139.653.119.911-.079"/><path d="m160.98 152.05v4.948"/><path d="m164.45 165.26c2.346-1.93 4.85-3.701 7.423-5.116"/></g><path d="m141.36 150.41c-.148.108-.277.218-.386.326-.327.347-.366.703.02.96.01.01.03.02.04.03" stroke-width=".67"/><path d="m154.72 142.32c0 .029-.01.06-.01.089-.049.396.01.831.178 1.069" stroke-width=".57"/><g stroke-width=".67"><path d="m203.05 110.16c.108-.02.218-.02.316-.01.277.02.515.128.673.336"/><path d="m201.73 111.48c-.069.416.089.653.494.663"/><path d="m209.82 111.48c-.129-.01-.505-.05-.703-.079-.178-.03-.237-.06.04-.079"/><path d="m208.49 96.304v-.208-.95"/><path d="m208.49 98.61v-1.316-.168-.822"/><path d="m208.66 98.283v-.99-.99-.089"/></g><path d="m172.37 119.56c1.316-.347 3.315 1.167 3.949 2.128 0 .01.01.01.01.02" stroke-width=".57"/><path d="m178.47 106.53c.544-1.267 1.791-2.197 3.464-2.306" stroke-width=".57"/><path d="m202.97 124.84c.138-.04.267-.079.386-.109 1.86-.445 2.741.307 4.127.94.851.387 2.633 2.88 1.999-.494" stroke-width=".67"/><path d="m158.68 136.63c0-.079 0-.158.01-.247v-.01c.228-1.712 3.623-3.375 4.761-4.335 1.722-1.455 2.425-5.187 4.345-6.097.128-.06.267-.108.406-.139" stroke-width=".57"/></g><g stroke-width=".57"><g fill="none" stroke-linecap="round" stroke-linejoin="round"><path d="m172.81 101.24c-1.042.585-1.948.99-3.093 1.374"/><path d="m167.58 123.89c-.237 2.206-3.918 8.021-6.155 8.817-4.443 1.581-4.996-3.463-5.226-6.962-.344-5.218 1.804-10.992 4.577-15.216"/><path d="m160.66 110.41c.498-.741 1.197-1.489 1.855-1.979"/></g><ellipse cx="167.46" cy="86.962" rx=".307" ry=".342" stroke-linecap="round" stroke-linejoin="round"/><g fill="none"><path d="m166.52 89.241c2.198 1.863 4.538-.165 3.194-2.846"/><g stroke-linecap="round" stroke-linejoin="round"><path d="m168.88 106.5c-.986 1.401-1.604 3.141-1.853 4.853.86.276 1.247-.201 1.728-.478"/><path d="m171.12 108.12c-.546 1.388-3.606 7.448-.125 4.75"/><path d="m167 112.62c-1.413 1.3-2.513 2.956-2.481 4.975 1.044.368 1.145-.262 1.856-.85"/><path d="m170.62 114.12c-1.36 1.373-2.468 2.975-2.603 4.881.949.594 1.141.004 1.853-.381"/><path d="m166.75 118.12c-1.229 1.27-1.96 2.813-1.63 4.356.815-.117 1.552-.461 2.255-.981"/><path d="m173.88 107.75c-.917 1.791-1.623 4.02-1.613 6.106.097.005.552-.033.615.034.257-.35.462-.815.748-1.14"/><path d="m172 115.5c-.318.554-.587 1.657-.731 2.356.571.073.853-.203 1.356-.356"/><path d="m166.12 108.25c-.847 1.6-1.672 3.194-2.106 4.983.465-.115.684-.704.731-.733"/><path d="m162.75 152.38c-.139 3.166.452 8.212 2.25 11"/><path d="m163.88 152.25c.253 3.261.235 7.302 2.25 10"/><path d="m165.12 152.5c-.093-.01-.135.031-.125.125"/><path d="m165.12 152.5c-.254 3.022.648 5.686 2 8.375"/><path d="m167 152c.861 2.734 2.257 4.918 2.5 7.875"/><path d="m166.25 152.88c.283 2.196.929 4.254 1.5 6.375"/><path d="m170.5 161.58c1.165 2.11 2.789 4.499 4.25 6.084"/><path d="m168.83 162.75c1.033 2.671 3.396 7.492 5.583 8.167"/><path d="m167.42 163.92c.778 2.239 3.265 9.112 5.5 8.416"/><path d="m165.83 165.25c.804 3.165 2.146 4.891 4.167 7.083"/></g></g></g></g></g><g fill="#fff" fill-rule="evenodd" stroke-width=".9375"><path d="m2539.3 493.2 109.31 333.86 351.3.79696-283.74 207.13 107.8 334.35-284.67-205.84-284.67 205.84 107.8-334.35-283.74-207.13 351.3-.79693z" transform="matrix(.072619 0 0 .072629 169.34 397.48)"/><path d="m2539.3 493.2 109.31 333.86 351.3.79696-283.74 207.13 107.8 334.35-284.67-205.84-284.67 205.84 107.8-334.35-283.74-207.13 351.3-.79693z" transform="matrix(.072619 0 0 .072629 64.945 309.88)"/><path d="m2539.3 493.2 109.31 333.86 351.3.79696-283.74 207.13 107.8 334.35-284.67-205.84-284.67 205.84 107.8-334.35-283.74-207.13 351.3-.79693z" transform="matrix(.072619 0 0 .072629 41.281 175.68)"/><path d="m2539.3 493.2 109.31 333.86 351.3.79696-283.74 207.13 107.8 334.35-284.67-205.84-284.67 205.84 107.8-334.35-283.74-207.13 351.3-.79693z" transform="matrix(.072619 0 0 .072629 109.42 57.664)"/></g></svg>