<svg height="215.7257" viewBox="0 0 324.4119 215.7257" width="324.4119" xmlns="http://www.w3.org/2000/svg"><path d="m0 0h324.4119v215.7257h-324.4119z" fill="#f4d735"/><g fill-rule="evenodd" transform="translate(-100.7269 -192.481)"><path d="m323.7877 293.8473a61.194 61.194 0 1 1 -.0293-.2691" fill="#1921b2"/><path d="m310.9768 295.1a48.1674 48.1674 0 1 1 -.023-.2119" fill="#f4d735"/><path d="m267.9431 245.2212a5.1276 5.1276 0 1 1 -.0024-.0227" fill="#1921b2" stroke="#f4d735" stroke-linecap="round" stroke-linejoin="round" stroke-width="1.1389"/><path d="m265.94 245.435a3.1291 3.1291 0 1 1 -.0015-.0138" fill="#f4d735" opacity=".9"/></g><path d="m230.6979 267.6145h64.5507v64.5507h-64.5507z" fill="#1921b2" transform="matrix(.70843839 -.70577266 .70577266 .70843839 -235.7081 80.5549)"/><g transform="translate(-100.7269 -192.481)"><path d="m216.5374 300.0743h92.5026" fill="none" stroke="#f4d735" stroke-width="1.9586"/><g fill-rule="evenodd"><path d="m262.419 270.1111a3.4913 3.4913 0 1 1 -.0017-.0153" fill="#1921b2" stroke="#f4d735" stroke-linecap="round" stroke-linejoin="round" stroke-width=".7713"/><path d="m261.0622 270.2559a2.1167 2.1167 0 1 1 -.001-.0093" fill="#f4d735" opacity=".9"/><path d="m270.7184 270.1111a3.4913 3.4913 0 1 1 -.0017-.0153" fill="#1921b2" stroke="#f4d735" stroke-linecap="round" stroke-linejoin="round" stroke-width=".7713"/><path d="m269.3616 270.2559a2.1167 2.1167 0 1 1 -.001-.0093" fill="#f4d735" opacity=".9"/></g></g><path d="m158.3733 81.9575h7.7461v25.0826h-7.7461z" fill="#f4d735"/><path d="m259.6632 275.0115-24.4961 24.6223" fill="none" stroke="#f4d735" stroke-width="1.5965" transform="translate(-100.7269 -192.481)"/><path d="m266.2888 275 24.6694 24.4613" fill="none" stroke="#f4d735" stroke-width="1.5906" transform="translate(-100.7269 -192.481)"/><rect fill="#f4d735" height="17.5613" rx="1.6912" transform="matrix(.62149651 -.78341693 .78341693 .62149651 -248.3524 134.5679)" width="14.7842" x="257.2537" y="307.5194"/><g transform="translate(-100.7269 -192.481)"><path d="m260.006 315.7588c-6.5764-.5708-10.8455.5594-13.8143 3.1226s-4.6374 6.5594-6.0126 11.7205c2.676 4.0563 5.6925-5.0345 8.9049-9.918 2.2029-3.3489 6.575-4.467 10.922-4.9251z" fill="#f4d735" fill-rule="evenodd"/><g stroke="#1921b2"><path d="m264.72 313.1216a2.7124 2.7124 0 0 1 1.5288 3.51 3.05 3.05 0 0 1 -3.9268 1.6536 3.2475 3.2475 0 0 1 -2-2.4364" fill="none" stroke-width="1.9546"/><path d="m265.6394 313.8369c-3.5827-3.211-1.45-2.0834-3.2882-9.1486" fill="none" stroke-width="1.8077"/><g fill="#f4d735" fill-rule="evenodd" stroke-linecap="round" stroke-linejoin="round" stroke-width=".7994"><path d="m284.2712 346.0149c1.174-.2344 1.92.8875 1.6658 2.5059s-1.4116 3.12-2.5856 3.3547-1.92-.8876-1.6659-2.506c.2523-1.6074 1.3969-3.1023 2.5653-3.35"/><path d="m289.196 352.1616c.5667 1.0545-.2889 2.0952-1.911 2.3244s-3.3963-.44-3.963-1.4945.2888-2.0953 1.9109-2.3245c1.6111-.2276 3.3749.4311 3.9531 1.4763"/><path d="m291.96 340.6375c1.0639-.549 2.09.3238 2.2922 1.95s-.4966 3.3886-1.56 3.9376-2.09-.3239-2.2923-1.95c-.2006-1.6147.4874-3.3672 1.5421-3.9279"/><path d="m298.3884 345.1881c.8354.8575.3 2.0937-1.196 2.7612s-3.3861.5136-4.2215-.3439-.3-2.0937 1.1959-2.7612c1.4859-.663 3.3629-.5162 4.207.3291"/><path d="m309.9344 317.1538c.8829-.8086 2.102-.2352 2.723 1.2807s.4086 3.4-.4742 4.2089-2.102.2352-2.723-1.2808c-.6167-1.5056-.412-3.3772.459-4.1947"/><path d="m317.3309 319.8608c1.0309.6086.8381 1.942-.4307 2.9782s-3.1332 1.3828-4.1642.7742-.8381-1.9419.4307-2.9781c1.26-1.0292 3.11-1.3793 4.1462-.7847"/><path d="m286.7657 344.2482c1.1245-.4108 2.0328.5842 2.0288 2.2224s-.919 3.2992-2.0435 3.71-2.0328-.5842-2.0287-2.2224c.004-1.6271.907-3.2791 2.0239-3.7027"/><path d="m292.5707 349.5715c.721.9557.0343 2.1148-1.5338 2.5888s-3.4238.0835-4.1447-.8723-.0343-2.1148 1.5338-2.5888c1.5575-.4708 3.4011-.089 4.1321.8557"/><path d="m289.7074 342.7039c1.1352-.38 2.0163.639 1.9679 2.2765s-1.0079 3.2731-2.1431 3.6533-2.0162-.639-1.9679-2.2765c.0481-1.6263.9955-3.2533 2.1234-3.6465"/><path d="m295.3663 348.1823c.6948.9749-.023 2.115-1.6034 2.5464s-3.4247-.0092-4.12-.9841.023-2.115 1.6034-2.5464c1.57-.4285 3.4022.003 4.1074.9672"/><path d="m281.4872 346.9393c1.1715-.2468 1.9291.8672 1.6922 2.4882s-1.3787 3.135-2.55 3.3818-1.9291-.8673-1.6922-2.4882c.2353-1.61 1.3641-3.1169 2.53-3.3774"/><path d="m286.4764 353.0338c.5778 1.0485-.2668 2.0982-1.8863 2.3444s-3.4009-.4041-3.9786-1.4526.2667-2.0982 1.8863-2.3445c1.6086-.2446 3.3792.3954 3.9685 1.4345"/><path d="m278.7669 348.3334c1.1954-.0651 1.7742 1.1515 1.2927 2.7173s-1.8409 2.8879-3.0363 2.953-1.7742-1.1515-1.2927-2.7173c.4782-1.5552 1.8237-2.8722 3.0156-2.9518"/><path d="m282.7677 355.1178c.411 1.1245-.5838 2.033-2.222 2.0292s-3.2993-.9184-3.71-2.0428.5838-2.0329 2.222-2.0292c1.6271.0038 3.2793.9065 3.703 2.0233"/><path d="m295.1376 338.6351c1.0851-.5058 2.0755.4075 2.2121 2.04s-.6322 3.3659-1.7173 3.8717-2.0755-.4075-2.2121-2.04c-.1357-1.6214.6222-3.3449 1.6985-3.8629"/><path d="m301.3783 343.44c.8.89.2157 2.1041-1.3059 2.711s-3.4039.3772-4.2043-.5131-.2157-2.1041 1.3059-2.711c1.5113-.6028 3.3809-.3807 4.19.4978"/><path d="m297.1426 336.3278c.9952-.6655 2.1133.086 2.4975 1.6785s-.1113 3.423-1.1064 4.0885-2.1134-.086-2.4975-1.6785c-.3815-1.5818.1044-3.4007 1.0892-4.0768"/><path d="m304.0434 340.1243c.9269.7578.5343 2.0465-.8769 2.8785s-3.3065.8922-4.2333.1345-.5343-2.0465.8768-2.8785c1.4017-.8264 3.2832-.8922 4.2172-.1476"/><path d="m299.8571 334.3239c1.0248-.6189 2.1071.1834 2.4174 1.7919s-.269 3.4142-1.2938 4.0331-2.1071-.1834-2.4174-1.7919c-.3082-1.5977.2612-3.3923 1.2761-4.0222"/><path d="m306.5755 338.4347c.8909.8.4393 2.069-1.0088 2.835s-3.3441.7387-4.2351-.061-.4393-2.069 1.0088-2.835c1.4382-.7608 3.3209-.74 4.22.0472"/><path d="m301.604 331.8157c.9184-.768 2.11-.14 2.6625 1.402s.2552 3.4152-.6632 4.1833-2.11.14-2.6625-1.4021c-.5484-1.5319-.26-3.3923.6473-4.17"/><path d="m308.871 334.8531c1.0025.6544.75 1.9777-.5643 2.9557s-3.1923 1.24-4.1948.586-.75-1.9777.5643-2.9557c1.3053-.9714 3.1691-1.2379 4.1773-.5973"/><path d="m303.4858 329.2414c.9444-.7357 2.114-.0671 2.6123 1.4935s.1366 3.422-.8079 4.1577-2.114.0671-2.6123-1.4935c-.4949-1.55-.1417-3.3993.7915-4.1448"/><path d="m310.6431 332.529c.9792.6887.6808 2.0025-.6665 2.9343s-3.2334 1.129-4.2126.44-.6808-2.0025.6665-2.9343c1.3382-.9256 3.21-1.1273 4.1955-.4521"/><path d="m304.9239 326.5442c.8211-.8712 2.079-.3889 2.81 1.0774s.6572 3.3611-.1639 4.2323-2.0791.3889-2.81-1.0774c-.7256-1.4563-.6588-3.3379.15-4.2171"/><path d="m312.499 328.7011c1.0729.5312.9785 1.8751-.2108 3.0017s-3.0232 1.6091-4.0961 1.0779-.9785-1.8752.2109-3.0017c1.1812-1.119 3-1.604 4.0773-1.087"/><path d="m306.87 323.0644c.9445-.7357 2.1141-.0671 2.6123 1.4935s.1366 3.422-.8078 4.1577-2.1141.0671-2.6123-1.4935c-.495-1.55-.1418-3.3993.7915-4.1448"/><path d="m314.0277 326.352c.9792.6887.6809 2.0025-.6665 2.9343s-3.2333 1.129-4.2125.44-.6809-2.0025.6664-2.9343c1.3382-.9256 3.21-1.1273 4.1955-.4521"/><path d="m308.3085 320.3672c.8211-.8713 2.0791-.3889 2.81 1.0773s.6572 3.3612-.1639 4.2324-2.079.3888-2.81-1.0774c-.7257-1.4563-.6588-3.3379.15-4.2171"/><path d="m315.8837 322.524c1.0728.5313.9784 1.8752-.2109 3.0017s-3.0232 1.6092-4.0961 1.0779-.9784-1.8751.2109-3.0017c1.1813-1.1189 3-1.6039 4.0774-1.087"/><path d="m311.1533 314.3506c.7491-.9338 2.0414-.5532 2.8865.85s.9228 3.2981.1736 4.2319-2.0414.5532-2.8865-.85c-.8393-1.3939-.9225-3.2748-.1865-4.2156"/><path d="m318.8761 315.8973c1.1118.4442 1.1247 1.7913.0289 3.009s-2.8855 1.8448-3.9972 1.4007-1.1247-1.7913-.0289-3.009c1.0884-1.2094 2.8632-1.8378 3.9779-1.4083"/><path d="m312.1537 311.62c.5491-1.0639 1.8912-.947 2.9977.261s1.5584 3.05 1.0093 4.1134-1.8912.947-2.9977-.2609c-1.0991-1.2-1.5536-3.0269-1.0188-4.095"/><path d="m320.03 311.6049c1.1777.2149 1.4575 1.5327.6249 2.9435s-2.4624 2.38-3.64 2.1654-1.4576-1.5327-.6249-2.9435c.827-1.4012 2.4419-2.369 3.62-2.169"/></g></g><g fill="none" stroke="#f4d735" stroke-width=".7124"><path d="m314.0265 299.1352.3758 10.383"/><path d="m316.3915 298.8859.3995 11.037"/><path d="m319.0717 298.2977.3906 10.7918"/></g><g style="fill:#f4d735;fill-rule:evenodd;stroke:#1921b2;stroke-linecap:round;stroke-linejoin:round;stroke-width:.7994"><path d="m312.4823 308.925c.3523-1.1442 1.6939-1.2666 2.9967-.2733s2.0732 2.7259 1.7209 3.87-1.6939 1.2665-2.9967.2733c-1.2939-.9865-2.0644-2.7044-1.7269-3.85"/><path d="m320.2316 307.5169c1.1972.0032 1.7057 1.2508 1.1357 2.7866s-2.0026 2.7783-3.2 2.7751-1.7056-1.2507-1.1356-2.7866c.5661-1.5254 1.9845-2.7635 3.1789-2.775"/><path d="m237.6053 352.8643c-.5487 1.0641.3244 2.09 1.95 2.2917s3.3884-.4976 3.9371-1.5616-.3244-2.09-1.95-2.2917c-1.6147-.2-3.367.4883-3.9275 1.5432"/><path d="m234.6462 341.3888c-1.0731-.5308-2.0844.3593-2.2588 1.9882s.5541 3.38 1.6271 3.9105 2.0844-.3593 2.2588-1.9881c.1732-1.6179-.5444-3.3585-1.6085-3.9012"/><path d="m228.2958 346.048c-.8208.8715-.2644 2.0984 1.2427 2.74s3.3943.4559 4.2151-.4156.2644-2.0985-1.2427-2.74c-1.4969-.6377-3.3712-.459-4.2007.4"/><path d="m216.2755 318.2137c-.8965-.7935-2.1057-.2-2.7008 1.3267s-.3509 3.4068.5455 4.2 2.1057.1994 2.7008-1.3268c.5912-1.5159.3547-3.3838-.53-4.1864"/><path d="m208.9261 321.0459c-1.02.626-.8051 1.9559.4811 2.97s3.1562 1.3295 4.1767.7035.8051-1.9559-.4811-2.97c-1.2776-1.0077-3.1332-1.3263-4.1589-.7142"/><path d="m242.2817 346.1013c-1.1313-.3917-2.0226.6186-1.9907 2.2565s.9748 3.2831 2.1061 3.6747 2.0226-.6186 1.9907-2.2565c-.0316-1.6268-.9626-3.2632-2.0865-3.6678"/><path d="m239.9009 344.9109c-1.1314-.3917-2.0226.6186-1.9908 2.2564s.9748 3.2831 2.1062 3.6748 2.0226-.6186 1.9907-2.2565c-.0317-1.6268-.9626-3.2633-2.0865-3.6678"/><path d="m234.187 350.3319c-.7046.9678.0017 2.1151 1.5776 2.5624s3.4247.0253 4.1293-.9425-.0016-2.1151-1.5775-2.5624c-1.5653-.4443-3.4022-.0313-4.117.9257"/><path d="m236.9333 343.4167c-1.1415-.3609-2.0051.6731-1.9289 2.31s1.0633 3.2556 2.2048 3.6164 2.0051-.6731 1.9289-2.31c-.0756-1.6253-1.05-3.236-2.185-3.61"/><path d="m231.3683 348.99c-.6782.9865.0589 2.1142 1.6464 2.5188s3.4241-.0674 4.1023-1.0539-.0589-2.1143-1.6464-2.5188c-1.5767-.4018-3.4017.0608-4.09 1.0368"/><path d="m245.2243 347.5119c-1.1755-.2268-1.9141.9-1.65 2.5166s1.4317 3.1112 2.6072 3.338 1.9141-.9 1.65-2.5166c-.2626-1.6058-1.4167-3.0933-2.5868-3.3339"/><path d="m240.3393 353.69c-.56 1.0582.3023 2.0934 1.9258 2.3121s3.3935-.4618 3.9534-1.52-.3023-2.0934-1.9258-2.3121c-1.6126-.2173-3.3721.4528-3.9436 1.5017"/><path d="m247.9678 348.86c-1.1963-.0448-1.7543 1.1815-1.2463 2.7389s1.89 2.8562 3.086 2.901 1.7544-1.1814 1.2464-2.7388c-.5046-1.5469-1.8722-2.8409-3.0653-2.9"/><path d="m244.0828 355.711c-.3918 1.1313.6183 2.0227 2.2561 1.9912s3.2833-.9743 3.6752-2.1055-.6183-2.0228-2.2562-1.9912c-1.6267.0314-3.2634.9621-3.6681 2.0859"/><path d="m231.4348 339.4407c-1.0935-.4873-2.0682.4427-2.1771 2.0772s.6893 3.3547 1.7828 3.842 2.0683-.4426 2.1771-2.0772c.1082-1.6235-.6788-3.3338-1.7638-3.8334"/><path d="m225.2766 344.3511c-.7851.9038-.18 2.1074 1.3518 2.6884s3.41.3193 4.195-.5845.18-2.1074-1.3518-2.6884c-1.5213-.577-3.3868-.3232-4.1812.5689"/><path d="m229.391 337.1678c-1.0063-.6485-2.1116.1218-2.4686 1.7206s.1693 3.4206 1.1756 4.0691 2.1116-.1219 2.4686-1.7207c.3547-1.5879-.1621-3.3984-1.1582-4.0577"/><path d="m222.5556 341.0809c-.9139.7733-.4994 2.0552.9257 2.8632s3.3211.8359 4.235.0625.5-2.0552-.9256-2.8632c-1.4155-.8024-3.2979-.8363-4.2191-.0759"/><path d="m226.6428 335.21c-1.0351-.6014-2.1037.2192-2.3866 1.8327s.327 3.4091 1.3621 4.0105 2.1037-.2191 2.3866-1.8327c.281-1.6026-.3187-3.3873-1.3441-4"/><path d="m219.9953 339.4345c-.8773.8147-.4042 2.0761 1.0567 2.8174s3.3562.6819 4.2334-.1328.4041-2.0762-1.0567-2.8175c-1.451-.7363-3.333-.6833-4.2181.1188"/><path d="m224.8536 332.732c-.9313-.7523-2.1125-.1044-2.6383 1.447s-.1972 3.4191.7341 4.1714 2.1125.1045 2.6384-1.447c.5222-1.541.2019-3.3963-.7181-4.1582"/><path d="m217.6393 335.8924c-.9913.6713-.7162 1.99.6144 2.9457s3.2128 1.186 4.2041.5147.7162-1.99-.6144-2.9457c-1.3216-.9491-3.19-1.1839-4.1868-.5263"/><path d="m222.9284 330.19c-.9568-.7195-2.1148-.0311-2.5866 1.5377s-.0784 3.4239.8784 4.1434 2.1148.0312 2.5866-1.5376c.4685-1.5582.084-3.4013-.8618-4.1308"/><path d="m215.828 333.5987c-.9674.7053-.6468 2.0138.7162 2.9226s3.252 1.0739 4.2194.3686.6468-2.0138-.7162-2.9226c-1.3537-.9027-3.2288-1.0726-4.2025-.3808"/><path d="m221.4447 327.5177c-.8358-.8572-2.0853-.3535-2.7909 1.1249s-.6 3.3718.2358 4.2289 2.0853.3535 2.7909-1.1249c.7008-1.4684.602-3.3486-.2213-4.214"/><path d="m213.9073 329.8028c-1.0637.5494-.9465 1.8915.2618 2.9977s3.05 1.5576 4.1138 1.0082.9464-1.8915-.2618-2.9977c-1.2-1.0987-3.0273-1.5527-4.0953-1.0176"/><path d="m219.4394 324.0714c-.9568-.72-2.1149-.0311-2.5866 1.5376s-.0785 3.4239.8784 4.1435 2.1148.0311 2.5865-1.5377c.4685-1.5582.084-3.4012-.8618-4.1308"/><path d="m212.3389 327.48c-.9674.7053-.6467 2.0138.7162 2.9227s3.2521 1.0738 4.2195.3686.6467-2.0138-.7162-2.9227c-1.3537-.9027-3.2288-1.0725-4.2026-.3807"/><path d="m217.9557 321.399c-.8358-.8572-2.0853-.3535-2.7909 1.1249s-.6 3.3718.2357 4.229 2.0854.3535 2.791-1.125c.7008-1.4684.602-3.3486-.2214-4.2139"/><path d="m210.4183 323.6842c-1.0637.5494-.9465 1.8915.2618 2.9977s3.05 1.5575 4.1137 1.0081.9465-1.8915-.2618-2.9977c-1.2-1.0987-3.0273-1.5527-4.0952-1.0176"/><path d="m215.0092 315.4316c-.7649-.921-2.0506-.5185-2.8717.8991s-.8666 3.3133-.1017 4.2343 2.05.5184 2.8716-.8991c.8156-1.408.8668-3.29.115-4.2182"/><path d="m207.3137 317.1092c-1.1041.463-1.0941 1.81.0222 3.009s2.9164 1.7956 4.02 1.3326 1.0941-1.81-.0223-3.009c-1.1088-1.1908-2.894-1.7889-4.0012-1.3405"/><path d="m213.9626 312.7185c-.5671-1.0543-1.9071-.9147-2.9929.3119s-1.5064 3.0756-.9393 4.13 1.907.9148 2.9929-.3118c1.0785-1.2183 1.5019-3.0528.949-4.1117"/><path d="m206.0872 312.837c-1.1739.2348-1.4313 1.5572-.5748 2.9537s2.5024 2.3381 3.6764 2.1033 1.4313-1.5572.5748-2.9537c-.8507-1.387-2.4818-2.3272-3.6559-2.1073"/></g><g fill="none" stroke="#f4d735" stroke-width=".7124"><path d="m211.878 300.2672-.1994 10.3878"/><path d="m209.5092 300.058-.2121 11.042"/><path d="m206.8194 299.5154-.2074 10.7969"/></g><g style="fill:#f4d735;fill-rule:evenodd;stroke:#1921b2;stroke-linecap:round;stroke-linejoin:round;stroke-width:.7994"><path d="m213.5882 310.0293c-.3716-1.138-1.7151-1.2376-3.0008-.2224s-2.0267 2.7608-1.655 3.8988 1.7152 1.2376 3.0009.2224c1.2769-1.0083 2.0182-2.739 1.6613-3.879"/><path d="m205.8161 308.753c-1.1969.0235-1.6841 1.28-1.0882 2.8055s2.0495 2.7439 3.2464 2.72 1.6842-1.28 1.0882-2.8055c-.5919-1.5156-2.0311-2.73-3.2256-2.7206"/></g></g></svg>