<svg enable-background="new -251.134 -64.002 780.267 468.159" height="600" viewBox="-251.134 -64.002 999.99996 600.00001" width="1000" xmlns="http://www.w3.org/2000/svg"><path d="m-251.134-64.001999h780.26703v468.159h-780.26703z" fill="#fff" transform="matrix(1.2816125 0 0 1.2816159 70.722477 18.023979)"/><g transform="matrix(1.2256704 0 0 1.2073962 78.499653 30.646469)"><path d="m248.835 27.485v151.892c0 92.82-69.913 106.721-109.835 132.833-39.922-26.112-109.835-40.013-109.835-132.832v-151.893z" fill="#fff"/><path d="m139 315.018-1.286-.839c-7.656-5.01-16.434-9.563-25.727-14.387-37.946-19.692-85.172-44.2-85.172-120.414v-154.24h224.367v154.24c0 76.214-47.226 100.722-85.171 120.414-9.292 4.823-18.069 9.377-25.726 14.387zm-107.487-285.185v149.544c0 73.361 43.902 96.146 82.639 116.246 8.891 4.614 17.315 8.985 24.849 13.793 7.532-4.808 15.958-9.181 24.849-13.793 38.735-20.101 82.638-42.885 82.638-116.246v-149.544z" fill="#f7ce1c"/><path d="m140.536 297.107v1.896l-.56 1.969-.976 3.189c-37.684-24.65-103.668-37.776-103.668-125.375v-145.263h103.668l2.787 3.791z" fill="#900"/><path d="m139 33.524v270.636c37.681-24.65 103.663-37.773 103.663-125.375v-145.261z" fill="#3d3d66"/><g fill="#fff"><path d="m139.409 200.569-18.889-18.953c-.497-1.288-.729-2.45-.729-3.666 0-3.877 2.151-7.361 5.618-9.096.383-.198.791-.373 1.208-.517 1.063-.388 2.206-.587 3.386-.587 4.063 0 7.732 2.406 9.351 6.133l.056.269v26.417zm-17.686-19.569 16.346 16.332v-23.038c-1.433-3.164-4.583-5.201-8.065-5.201-1.021 0-2.008.171-2.936.51-.367.125-.715.277-1.048.448-3.016 1.51-4.886 4.534-4.886 7.899 0 1.002.186 1.975.589 3.05z"/><path d="m140.359 199.623-26.749-.057c-1.243-.533-2.261-1.213-3.112-2.079-2.78-2.767-3.722-6.938-2.394-10.626.119-.386.294-.794.527-1.213.447-.911 1.081-1.788 1.869-2.577 1.927-1.927 4.486-2.988 7.209-2.988 1.282 0 2.536.236 3.723.704l.229.15zm-26.344-1.342h23.103l-16.303-16.293c-.993-.374-2.037-.562-3.104-.562-2.363 0-4.587.92-6.26 2.595-.684.683-1.232 1.441-1.631 2.251-.203.367-.343.688-.443 1.016-1.16 3.229-.344 6.851 2.072 9.254.703.717 1.542 1.283 2.566 1.739z"/><path d="m117.724 217.893c-5.627 0-10.205-4.579-10.205-10.205 0-4.065 2.406-7.735 6.131-9.348l.268-.054h26.428l-18.957 18.876c-1.242.49-2.441.731-3.665.731zm-3.666-18.265c-3.162 1.427-5.197 4.573-5.197 8.06 0 4.889 3.975 8.865 8.861 8.865 1.014 0 2.01-.194 3.043-.589l16.338-16.334h-23.045z"/><path d="m130.047 230.183c-2.726 0-5.288-1.063-7.214-2.989-2.875-2.874-3.767-7.17-2.275-10.943l.149-.229 18.687-18.684-.054 26.748c-.523 1.219-1.203 2.234-2.075 3.108-1.928 1.928-4.492 2.989-7.218 2.989zm-8.291-13.313c-1.225 3.245-.437 6.911 2.026 9.376 1.672 1.673 3.897 2.595 6.265 2.595 2.369 0 4.594-.922 6.269-2.595.72-.721 1.289-1.563 1.736-2.565v-23.105z"/><path d="m118.083 171.772-.304-1.025c-.274-.922-.761-1.732-1.452-2.41-1.104-1.11-2.568-1.719-4.126-1.719-1.559 0-3.026.608-4.134 1.715l-1.145 1.145v-1.896l.195-.211c2.563-2.561 5.969-3.971 9.593-3.971 3.626 0 7.032 1.41 9.593 3.971.379.379.734.775 1.059 1.186l.589.744-.897.309c-.354.121-.701.271-1.035.442l-.299.156-.303-.146c-1.258-.611-2.718-.749-4.053-.388-.901.241-1.762.717-2.488 1.379zm-5.101-6.455c1.622.176 3.124.894 4.292 2.067.615.604 1.103 1.3 1.451 2.069.707-.495 1.484-.862 2.289-1.076 1.527-.418 3.206-.299 4.684.334.008-.003.016-.006.024-.012-.118-.129-.24-.256-.366-.382-2.307-2.305-5.377-3.576-8.645-3.576-1.286.001-2.539.197-3.729.576z"/><path d="m109.091 188.208-.764-.587c-.41-.313-.805-.662-1.207-1.063-5.279-5.279-5.286-13.871-.018-19.158.002-.003.006-.006.01-.01l.006-.006.949.947-.02-.02.02.02-.926-.912.92.919c-2.264 2.27-2.26 5.971.008 8.253.691.68 1.533 1.184 2.429 1.457l1.032.312-.736.787c-.664.713-1.125 1.542-1.371 2.465-.361 1.375-.222 2.82.396 4.066l.156.316-.172.308c-.188.336-.328.658-.429.984zm-4.02-14.949c-1.338 4.213-.338 9.014 2.996 12.35.131.129.261.254.389.372.004-.01.008-.017.013-.024-.635-1.461-.758-3.112-.343-4.689.219-.825.58-1.592 1.072-2.284-.758-.351-1.464-.839-2.075-1.44-1.194-1.201-1.879-2.722-2.052-4.285z"/><path d="m109.22 187.493-.604-1.219c-.762-1.537-.936-3.314-.492-5.006.221-.827.58-1.593 1.073-2.284-.758-.353-1.464-.841-2.075-1.442-2.797-2.813-2.796-7.367-.004-10.157 1.359-1.36 3.164-2.108 5.082-2.108s3.721.748 5.073 2.108c.614.604 1.102 1.3 1.451 2.069.706-.497 1.483-.862 2.288-1.076 1.632-.448 3.439-.279 4.988.475l1.227.592-1.219.611c-3.006 1.505-4.876 4.529-4.876 7.895 0 1.002.187 1.973.589 3.046l2.243 2.207-3.023-1.169c-1.032-.403-2.118-.609-3.231-.609-2.364 0-4.588.92-6.26 2.596-.684.683-1.232 1.44-1.631 2.251zm2.981-20.875c-1.559 0-3.026.608-4.134 1.715-2.27 2.27-2.27 5.975.002 8.258.691.682 1.533 1.186 2.429 1.457l1.032.312-.736.788c-.664.714-1.125 1.543-1.371 2.465-.244.93-.26 1.889-.053 2.8.331-.47.709-.918 1.131-1.341 1.927-1.927 4.486-2.986 7.209-2.986.816 0 1.619.094 2.402.284-.216-.816-.32-1.607-.32-2.419 0-3.375 1.633-6.454 4.343-8.338-.917-.205-1.868-.184-2.771.061-.902.241-1.762.717-2.488 1.381l-.791.719-.305-1.023c-.274-.922-.762-1.734-1.451-2.411-1.105-1.113-2.57-1.722-4.128-1.722z"/><path d="m95.347 200.761-1.352-1.544v-.253c0-7.48 6.086-13.566 13.566-13.566.566 0 1.088.032 1.59.093l.934.113-.413.847c-.165.339-.305.688-.421 1.048l-.102.319-.316.11c-1.333.461-2.447 1.38-3.138 2.593-.47.808-.74 1.752-.786 2.734l-.051 1.071-.94-.512c-.827-.451-1.726-.68-2.672-.68-3.29 0-5.9 2.62-5.9 5.841zm12.214-14.022c-4.726 0-8.834 2.697-10.867 6.629 1.227-.985 2.782-1.575 4.472-1.575h.001c.901 0 1.731.146 2.509.438.148-.851.439-1.661.857-2.38.795-1.392 2.047-2.477 3.547-3.074.004-.007.006-.017.01-.023-.171-.01-.348-.015-.529-.015z"/><path d="m107.561 212.53c-7.476 0-13.557-6.081-13.557-13.555h1.342c.001 3.207 2.62 5.827 5.841 5.841.965-.01 1.918-.249 2.747-.693l.95-.508.035 1.077c.035.977.295 1.889.773 2.714.717 1.225 1.838 2.147 3.154 2.593l.335.113.096.339c.104.366.233.692.396 1.002l.448.854-.956.124c-.516.066-1.041.099-1.604.099zm-10.855-7.956c2.033 3.925 6.137 6.614 10.854 6.614.185 0 .362-.004.539-.012-.003-.007-.006-.019-.01-.027-1.481-.584-2.735-1.664-3.557-3.068-.429-.741-.716-1.536-.857-2.376-.786.288-1.63.444-2.485.451-1.695-.007-3.253-.599-4.484-1.582z"/><path d="m109.705 211.706-1.287-.435c-1.624-.551-3.003-1.685-3.884-3.19-.429-.741-.717-1.536-.857-2.376-.786.288-1.631.444-2.484.451-3.967-.015-7.188-3.236-7.188-7.182 0-3.959 3.213-7.182 7.161-7.182h.002c.901 0 1.731.146 2.508.438.149-.853.439-1.662.858-2.38.849-1.49 2.221-2.623 3.861-3.191l1.285-.446-.43 1.293c-1.063 3.19-.246 6.651 2.135 9.029.711.71 1.529 1.265 2.574 1.737h3.08l-2.899 1.285c-3.226 1.405-5.31 4.591-5.308 8.116 0 .966.146 1.887.438 2.745zm-4.821-8.091.037 1.077c.034.977.293 1.889.773 2.714.483.828 1.152 1.518 1.941 2.017-.099-.567-.147-1.152-.147-1.749 0-3.593 1.879-6.878 4.888-8.708-.734-.426-1.375-.915-1.939-1.481-2.388-2.385-3.411-5.717-2.826-8.966-.789.5-1.447 1.186-1.914 2.002-.471.808-.74 1.752-.786 2.736l-.05 1.069-.941-.51c-.827-.451-1.726-.68-2.672-.68-3.29 0-5.9 2.619-5.9 5.841 0 3.207 2.62 5.825 5.841 5.839.966-.009 1.918-.247 2.747-.691z"/><path d="m109.242 230.795h-1.911l-.195-.194c-2.562-2.562-3.973-5.967-3.971-9.592 0-3.625 1.409-7.031 3.971-9.592.391-.396.792-.752 1.188-1.063l.739-.576.306.887c.124.356.273.704.446 1.04l.153.298-.146.302c-.617 1.267-.753 2.703-.384 4.05.239.902.714 1.762 1.378 2.492l.72.792-1.027.301c-.919.271-1.729.761-2.408 1.45-1.109 1.104-1.72 2.565-1.72 4.121-.002 1.563.607 3.031 1.716 4.139zm-.776-18.798c-.127.118-.254.24-.379.368-2.309 2.309-3.58 5.378-3.58 8.644 0 1.283.196 2.536.575 3.725.175-1.619.896-3.121 2.068-4.288.604-.614 1.298-1.103 2.067-1.453-.495-.706-.861-1.482-1.074-2.288-.424-1.548-.305-3.2.334-4.682-.005-.009-.009-.018-.011-.026z"/><path d="m116.733 234.57c-3.619 0-7.021-1.408-9.582-3.967l-.002-.005.947-.949-.004.007.004-.007-.893.902.896-.897c1.1 1.098 2.563 1.702 4.121 1.702s3.027-.605 4.135-1.704c.679-.691 1.183-1.535 1.454-2.431l.312-1.034.789.736c.715.667 1.544 1.128 2.464 1.374.498.129 1.01.195 1.519.195.883 0 1.764-.204 2.545-.593l.316-.154.306.167c.337.185.661.326.993.432l.918.289-.588.76c-.322.417-.669.813-1.063 1.205-2.561 2.561-5.966 3.972-9.587 3.972zm-3.716-1.915c1.186.378 2.436.575 3.717.575 3.263 0 6.331-1.273 8.638-3.579.13-.131.255-.261.372-.39-.008-.005-.016-.008-.023-.013-.883.386-1.854.586-2.826.586-.623 0-1.249-.08-1.86-.24-.826-.219-1.591-.58-2.286-1.073-.35.757-.838 1.464-1.438 2.076-1.179 1.168-2.677 1.882-4.294 2.058z"/><path d="m112.222 232.698c-1.918 0-3.721-.746-5.074-2.098-1.362-1.361-2.111-3.168-2.109-5.09.002-1.915.752-3.715 2.111-5.065.604-.614 1.298-1.103 2.067-1.453-.496-.706-.862-1.482-1.075-2.288-.453-1.654-.285-3.427.473-4.986l.596-1.223.608 1.216c1.505 3.007 4.53 4.876 7.894 4.876.997 0 1.969-.188 3.051-.593l2.178-2.181-1.142 2.961c-1.289 3.275-.511 7.002 1.983 9.491.678.682 1.436 1.229 2.253 1.635l1.213.603-1.213.601c-1.519.753-3.321.933-5.003.491-.827-.219-1.592-.58-2.286-1.073-.351.757-.839 1.464-1.438 2.076-1.368 1.356-3.171 2.1-5.087 2.1zm-2.848-19.112c-.203.909-.185 1.86.064 2.769.238.902.714 1.762 1.377 2.492l.721.792-1.027.301c-.92.271-1.729.761-2.408 1.45-1.109 1.104-1.719 2.565-1.721 4.121-.001 1.563.609 3.031 1.717 4.139 1.1 1.102 2.564 1.705 4.125 1.705 1.56 0 3.027-.604 4.135-1.702.679-.693 1.183-1.536 1.454-2.433l.312-1.032.789.735c.715.668 1.543 1.129 2.464 1.373.923.242 1.886.261 2.8.052-.473-.332-.921-.71-1.342-1.133-2.54-2.538-3.533-6.19-2.7-9.608-4.252 1.134-8.424-.661-10.76-4.021z"/><path d="m125.395 170.497-.122-.957c-.066-.516-.098-1.041-.1-1.604 0-7.478 6.082-13.558 13.557-13.558v1.342c-3.211 0-5.83 2.62-5.838 5.841.008.968.247 1.923.689 2.746l.512.951-1.08.036c-.977.034-1.891.294-2.713.772-1.229.719-2.152 1.84-2.597 3.154l-.112.334-.338.097c-.363.104-.691.233-1.004.398zm7.732-13.415c-3.925 2.035-6.613 6.137-6.613 10.853.001.185.005.364.014.541.007-.004.017-.006.024-.011.584-1.48 1.663-2.735 3.071-3.557.739-.43 1.536-.716 2.376-.858-.288-.783-.442-1.628-.45-2.485.004-1.695.595-3.252 1.578-4.483z"/><path d="m139.424 177.425-1.286-2.937c-1.406-3.211-4.589-5.287-8.107-5.287-.971 0-1.896.149-2.747.444l-1.293.447.438-1.295c.543-1.615 1.678-2.997 3.192-3.893.737-.427 1.533-.71 2.378-.854-.287-.771-.442-1.615-.452-2.479.015-3.968 3.233-7.187 7.179-7.187h.671l.028.67zm-9.394-9.566c3.195 0 6.15 1.487 8.051 3.932v-16.026c-2.916.333-5.181 2.809-5.192 5.802.011.982.253 1.932.694 2.732l.527.953-1.09.041c-.988.037-1.906.298-2.723.771-.828.491-1.52 1.159-2.016 1.942.568-.097 1.152-.147 1.749-.147z"/><path d="m138.7 243.77c-7.477 0-13.557-6.08-13.557-13.556 0-.563.034-1.087.098-1.604l.123-.956.854.445c.313.161.642.293 1.007.398l.337.098.111.332c.445 1.317 1.367 2.437 2.596 3.153.823.478 1.736.737 2.715.772l1.078.038-.512.951c-.441.823-.682 1.775-.689 2.755.009 3.212 2.628 5.832 5.84 5.832v1.342zm-12.203-14.096c-.008.176-.012.357-.014.542 0 4.714 2.688 8.813 6.611 10.849-.982-1.229-1.571-2.782-1.578-4.474.01-.862.164-1.709.451-2.493-.841-.142-1.637-.428-2.375-.858-1.406-.82-2.486-2.074-3.071-3.558-.008-.002-.016-.005-.024-.008z"/><path d="m139.394 243.765h-.698c-3.942 0-7.165-3.219-7.179-7.179.01-.872.165-1.718.451-2.491-.846-.142-1.639-.427-2.371-.851-1.521-.896-2.654-2.277-3.199-3.892l-.436-1.294 1.291.446c.852.293 1.773.442 2.745.442 3.521 0 6.704-2.076 8.11-5.286l1.285-2.938v23.043zm-11.142-13.623c.497.783 1.188 1.453 2.022 1.946.811.466 1.727.726 2.719.766l1.086.045-.525.951c-.442.8-.685 1.749-.695 2.741.011 2.993 2.287 5.473 5.193 5.796v-16.029c-1.9 2.445-4.855 3.933-8.054 3.933-.598-.001-1.181-.051-1.746-.149z"/><path d="m139.367 243.854-.672-.002c-24.646-.024-44.698-20.094-44.698-44.738 0-24.64 20.052-44.711 44.698-44.739h.672zm-1.342-88.131c-23.599.387-42.687 19.712-42.687 43.391 0 23.68 19.088 43.007 42.687 43.394z"/><path d="m138.749 152.227v-3.288c-27.615 0-50.012 22.382-50.012 50.015 0 27.616 22.396 50.013 50.012 50.013v-2.968c-25.885 0-46.885-20.986-46.885-46.886s21.001-46.886 46.885-46.886z"/><path d="m139.421 249.637h-.672c-27.947 0-50.684-22.737-50.684-50.683 0-27.948 22.736-50.686 50.684-50.686h.672v4.63h-.672c-25.482 0-46.213 20.731-46.213 46.214 0 25.484 20.73 46.216 46.213 46.216h.672zm-1.342-100.022c-26.898.361-48.67 22.356-48.67 49.339 0 26.982 21.771 48.975 48.67 49.337v-1.627c-25.915-.359-46.886-21.553-46.886-47.551 0-26.001 20.97-47.192 46.886-47.553z"/><path d="m180.09 195.529v6.845h-18.075c-.094.762-.242 1.502-.416 2.254l16.546 6.843.121.054-1.033 2.499c-.068.186-.148.387-.229.576-.016.026-.027.053-.041.081 0 .013-.015.013-.015.026-.065.173-.133.349-.214.523l-1.086 2.616-.122-.055-16.572-6.856c-.39.657-.791 1.276-1.262 1.879l12.775 12.776-2.094 2.105c-.04.026-.066.067-.107.094-.066.066-.147.135-.214.216l-.162.173c-.065.054-.106.107-.159.161l-2.107 2.095-.094-.096-12.68-12.682c-.605.456-1.223.873-1.881 1.265l6.857 16.56.055.12-2.605 1.085c-.173.08-.347.15-.521.214-.014 0-.014.015-.027.015-.025.017-.053.028-.08.043-.108.038-.229.093-.336.132-.081.039-.16.069-.24.096l-2.51 1.045-.055-.134-6.857-16.545c-.725.174-1.475.321-2.229.416v18.074h-3.421v-82.18h3.421v18.062c.754.106 1.504.254 2.229.432l6.857-16.548.055-.121 2.146.899c.146.055.31.107.442.175l1.665.698c.025.013.066.028.092.04l1.975.817-.041.108-6.857 16.558c.657.404 1.273.808 1.879 1.276l12.681-12.682.094-.094 2.268 2.27c.041.053.095.106.148.159.053.054.121.106.174.163l2.241 2.239-12.775 12.774c.471.603.886 1.234 1.274 1.892l16.561-6.856.121-.054.993 2.403.309.723c0 .014.013.014.013.025.014.029.027.056.042.082.08.189.159.39.228.578.026.067.054.134.081.2l.953 2.309-.122.053-16.545 6.858c.175.738.323 1.477.417 2.228h18.071z"/><path d="m143.093 240.71h-4.764v-83.519h4.764v18.16c.381.064.769.139 1.154.223l6.967-16.759 2.754 1.154c.197.071.352.127.486.194l4.285 1.785-.229.609-6.689 16.159c.303.192.637.414.977.66l12.745-12.746.568.38 5.307 5.307-12.84 12.837c.224.31.442.639.665.99l16.647-6.893.377.564 1.361 3.26c.104.234.175.411.233.58l-.551.43.62-.257 1.204 2.917-.735.319-16.023 6.641c.088.409.159.789.22 1.153h18.164v8.188h-18.164c-.057.368-.131.755-.223 1.178l16.762 6.948-1.284 3.107c-.057.158-.135.36-.218.551v.127l-.104.107c-.058.148-.117.295-.185.442l-1.344 3.24-.633-.289-16.138-6.683c-.22.354-.436.675-.651.977l12.838 12.836-2.67 2.667c.009-.006-.003.014-.048.052-.071.067-.103.094-.127.124l-.188.205-.606-.346.496.455-2.652 2.639-12.839-12.842c-.321.228-.645.443-.973.652l6.895 16.648-.564.379-2.604 1.085c-.132.06-.277.119-.428.178l-.098.094-.273.064-.195.077c-.046.026-.153.065-.262.103l-3.09 1.288-.305-.764-6.637-16.016c-.396.086-.781.159-1.155.218zm-3.422-1.342h2.08v-17.995l.586-.073c.677-.086 1.399-.22 2.153-.404l.558-.134 6.877 16.588 1.887-.787c.101-.036.153-.052.207-.078l.557-.258.047.004c.123-.048.249-.098.371-.155l2.008-.836-6.875-16.601.501-.297c.628-.371 1.22-.771 1.817-1.222l.466-.351 12.714 12.717 1.634-1.623c.08-.088.134-.144.207-.205l.097-.112c.042-.051.115-.123.188-.192l.153-.128 1.619-1.637-12.723-12.722.365-.468c.405-.518.791-1.095 1.212-1.81l.298-.5 16.612 6.872.829-1.992c.064-.14.115-.266.163-.392v-.153l.135-.153c.049-.115.124-.305.188-.479l.787-1.908-16.572-6.856.129-.555c.199-.858.324-1.533.404-2.184l.071-.59h17.999v-5.503h-17.997l-.073-.588c-.082-.65-.21-1.333-.403-2.156l-.132-.557 16.574-6.867-.787-1.922c-.06-.163-.13-.338-.199-.505l-.116-.118-.004-.145-.997-2.391-16.599 6.873-.298-.501c-.409-.695-.811-1.289-1.226-1.821l-.364-.467 12.721-12.722-1.946-1.936c-.066-.063-.141-.141-.198-.217l-1.737-1.73-12.72 12.72-.469-.364c-.509-.395-1.055-.764-1.818-1.235l-.486-.297 6.864-16.573-3.119-1.303c-.127-.063-.229-.097-.327-.131l-1.641-.686-6.873 16.58-.558-.136c-.723-.177-1.452-.315-2.163-.419l-.578-.082v-17.97h-2.078v80.838z"/><path d="m139 241.046h-1.007v-84.191h1.007c1.139 0 2.284.05 3.505.152 1.506.122 2.955.317 4.428.599l.545.1c1.432.297 2.891.68 4.336 1.143.828.255 1.576.521 2.273.805.158.054.299.107.42.162.151.046.295.1.434.158l.018.008h.188l.158.155c.309.125.626.267.934.408.756.338 1.417.653 2.061.983 1.443.758 2.791 1.555 4.02 2.375l.141.091c.007.005.016.012.023.019 1.336.91 2.561 1.836 3.707 2.793.881.75 1.696 1.502 2.429 2.234l.332.33c.724.736 1.442 1.518 2.187 2.383.961 1.146 1.887 2.373 2.768 3.658.021.032.039.06.057.088l.076.115c.818 1.207 1.598 2.531 2.386 4.05.447.851.825 1.646 1.147 2.425l.235.546.158.159.001.212c.094.213.158.38.215.535l-.867.543.935-.372c.331.833.62 1.655.861 2.44.461 1.444.845 2.899 1.136 4.318l.102.549c.283 1.479.48 2.927.602 4.431.099 1.197.15 2.378.15 3.503 0 1.126-.052 2.305-.151 3.507-.121 1.498-.317 2.95-.601 4.429l-.098.536c-.293 1.437-.678 2.9-1.144 4.356-.27.86-.586 1.743-.938 2.617-.05.142-.122.322-.195.501v.197l-.152.157c-.052.132-.105.263-.167.395-.393.912-.81 1.795-1.229 2.606-.746 1.426-1.544 2.777-2.38 4.025l-.073.114c-.012.018-.025.036-.038.055-.907 1.328-1.834 2.557-2.783 3.691-.84.971-1.523 1.718-2.167 2.362l-.505.492c-.681.684-1.431 1.375-2.29 2.111-1.217 1.015-2.44 1.938-3.647 2.754l-.214.139c-1.151.779-2.431 1.533-4.026 2.373-.824.423-1.703.836-2.617 1.236-.121.056-.253.112-.387.164l-.148.143-.28.039-.207.081c-.03.02-.151.063-.272.106-.928.369-1.766.667-2.583.918-1.429.457-2.886.842-4.319 1.138l-.549.102c-1.48.283-2.932.479-4.432.6-1.196.099-2.373.149-3.509.149zm1.007-82.164v80.139c.764-.021 1.545-.063 2.332-.13 1.459-.118 2.866-.31 4.308-.587l.438-.083c1.354-.277 2.742-.646 4.115-1.083.775-.239 1.565-.521 2.499-.891l.468-.185.173-.163.201-.033.062.015c.084-.034.166-.068.251-.108.86-.375 1.7-.771 2.514-1.187 1.496-.789 2.7-1.495 3.776-2.221l.205-.134c.021-.017.055-.042.098-.066 1.14-.77 2.296-1.644 3.438-2.599.88-.752 1.644-1.462 2.329-2.159l.317-.306c.639-.639 1.291-1.351 2.083-2.266.897-1.073 1.783-2.248 2.626-3.481l.177-.264c.777-1.17 1.521-2.437 2.22-3.765.396-.768.793-1.606 1.177-2.495.05-.11.092-.214.131-.313v-.229l.183-.186c.028-.084.101-.261.157-.422.346-.861.645-1.692.898-2.511.447-1.396.814-2.784 1.089-4.14l.078-.438c.279-1.434.474-2.841.589-4.3.097-1.149.145-2.274.145-3.344 0-1.071-.048-2.193-.144-3.34-.117-1.462-.311-2.87-.59-4.304l-.08-.441c-.272-1.338-.64-2.727-1.083-4.115-.229-.747-.5-1.514-.81-2.296l-.093-.232c-.047-.137-.107-.285-.165-.428l-.169-.167-.002-.217-.232-.542c-.303-.731-.653-1.472-1.077-2.274-.734-1.419-1.458-2.648-2.21-3.766l-.247-.382c-.782-1.131-1.668-2.306-2.578-3.394-.707-.816-1.396-1.564-2.091-2.271l-.178-.166c-.07-.07-.158-.16-.224-.248-.612-.601-1.388-1.315-2.221-2.025-1.071-.894-2.227-1.769-3.429-2.594l-.329-.215c-1.15-.768-2.416-1.514-3.759-2.218-.604-.31-1.234-.61-1.878-.899l-.13-.058c-.251-.114-.527-.238-.802-.349h-.227l-.221-.201c-.024-.007-.121-.048-.229-.076l-.191-.074c-.076-.035-.162-.065-.247-.095-.767-.308-1.457-.554-2.239-.794-1.391-.444-2.776-.81-4.134-1.09l-.433-.079c-1.431-.278-2.838-.471-4.303-.589-.806-.064-1.576-.106-2.332-.126z"/><path d="m139 158.533h-.671v-10.266h.671c2.834 0 5.14 2.305 5.14 5.14 0 .172-.015.344-.031.5l-.016.176c-.326 2.537-2.518 4.45-5.093 4.45zm.671-8.865v7.464c1.601-.285 2.879-1.576 3.092-3.22l.012-.147c.012-.112.023-.235.023-.358 0-1.865-1.352-3.421-3.127-3.739z"/><path d="m139 249.635h-.671v-10.267h.671c2.577 0 4.768 1.915 5.093 4.453.014.136.02.192.02.243.013.09.027.26.027.432 0 2.833-2.305 5.139-5.14 5.139zm.671-8.864v7.463c1.775-.317 3.127-1.873 3.127-3.738 0-.122-.012-.246-.023-.359-.012-.124-.018-.18-.018-.23-.207-1.571-1.485-2.852-3.086-3.136z"/><path d="m147.894 159.414c-.338 0-.676-.033-1.009-.101-2.778-.553-4.587-3.262-4.035-6.039.476-2.396 2.593-4.134 5.032-4.134.336 0 .676.033 1.009.099 2.777.551 4.587 3.262 4.033 6.041-.475 2.395-2.591 4.134-5.03 4.134zm-.014-8.932c-1.801 0-3.363 1.285-3.717 3.055-.407 2.051.932 4.053 2.984 4.462 2.08.412 4.059-.97 4.462-2.982.405-2.053-.93-4.055-2.981-4.463-.251-.048-.501-.072-.748-.072z"/><path d="m156.433 162.007c-.675 0-1.337-.131-1.966-.392-2.616-1.085-3.864-4.095-2.781-6.711.799-1.926 2.663-3.172 4.747-3.172.678 0 1.339.132 1.968.394 1.268.525 2.256 1.512 2.779 2.779.523 1.268.523 2.665-.002 3.932-.796 1.926-2.657 3.17-4.745 3.17zm0-8.933c-1.539 0-2.916.921-3.506 2.344-.802 1.934.121 4.156 2.055 4.958.465.191.954.289 1.453.289 1.541 0 2.916-.92 3.504-2.341.389-.938.39-1.969.003-2.906-.389-.937-1.118-1.665-2.055-2.052-.466-.194-.955-.292-1.454-.292z"/><path d="m164.305 166.218c-1.016 0-2.003-.301-2.852-.867-2.356-1.575-2.991-4.771-1.419-7.124.957-1.431 2.553-2.284 4.274-2.284 1.018 0 2.004.298 2.852.866 2.356 1.574 2.99 4.77 1.418 7.125-.956 1.428-2.552 2.284-4.273 2.284zm.005-8.935c-1.271 0-2.453.632-3.156 1.689-1.163 1.739-.693 4.101 1.045 5.263 1.688 1.127 4.142.635 5.265-1.047 1.16-1.739.692-4.101-1.047-5.265-.628-.418-1.358-.64-2.107-.64z"/><path d="m171.208 171.89c-1.369 0-2.658-.533-3.631-1.503-2.002-2.006-2.004-5.265-.002-7.267 1.943-1.941 5.322-1.941 7.266 0 2.001 2.002 2.001 5.262 0 7.267-.97.969-2.26 1.503-3.633 1.503zm0-8.933c-1.014 0-1.967.396-2.685 1.111-1.479 1.479-1.478 3.888.002 5.368 1.436 1.431 3.933 1.431 5.366 0 1.479-1.479 1.479-3.888.002-5.368-.718-.715-1.672-1.111-2.685-1.111z"/><path d="m176.876 178.785c-1.719 0-3.316-.854-4.273-2.282-.763-1.143-1.037-2.512-.768-3.857.267-1.348 1.042-2.508 2.182-3.27.851-.566 1.835-.865 2.851-.865 1.724 0 3.321.854 4.278 2.283 1.571 2.355.935 5.552-1.417 7.126-.851.564-1.836.865-2.853.865zm-.01-8.934c-.749 0-1.477.223-2.104.641-.844.564-1.417 1.422-1.614 2.414-.197.994.005 2.008.569 2.849 1.123 1.682 3.57 2.179 5.264 1.048 1.739-1.163 2.209-3.523 1.047-5.263-.707-1.057-1.888-1.689-3.162-1.689z"/><path d="m181.084 186.659c-2.084 0-3.947-1.246-4.747-3.172-.524-1.269-.524-2.665-.001-3.934.525-1.267 1.512-2.256 2.78-2.78.63-.261 1.291-.392 1.966-.392 2.084 0 3.948 1.246 4.748 3.174 1.081 2.615-.166 5.625-2.782 6.712-.627.262-1.289.392-1.964.392zm-.002-8.933c-.499 0-.987.096-1.451.289-.937.39-1.668 1.118-2.057 2.054-.387.937-.386 1.969.002 2.906.592 1.422 1.967 2.345 3.507 2.345.499 0 .986-.098 1.451-.291 1.934-.803 2.854-3.027 2.055-4.958-.588-1.425-1.968-2.345-3.507-2.345z"/><path d="m183.67 195.206c-2.438 0-4.555-1.738-5.034-4.136-.269-1.349.004-2.72.767-3.858.763-1.143 1.924-1.916 3.271-2.183.332-.066.671-.101 1.007-.101 2.439 0 4.555 1.739 5.031 4.137.552 2.775-1.26 5.486-4.035 6.041-.334.066-.671.1-1.007.1zm.011-8.935c-.246 0-.495.021-.747.073-.994.197-1.852.769-2.416 1.612-.563.843-.764 1.855-.566 2.852.402 2.012 2.382 3.401 4.461 2.982 2.053-.412 3.391-2.414 2.984-4.465-.352-1.77-1.916-3.054-3.716-3.054z"/><path d="m184.55 204.091c-2.831 0-5.135-2.305-5.135-5.137 0-2.835 2.304-5.14 5.135-5.14 2.832 0 5.138 2.305 5.138 5.14-.001 2.832-2.306 5.137-5.138 5.137zm0-8.936c-2.092 0-3.792 1.704-3.792 3.799s1.7 3.795 3.792 3.795 3.796-1.702 3.796-3.795c0-2.095-1.704-3.799-3.796-3.799z"/><path d="m183.681 212.977c-.336 0-.675-.033-1.007-.099-1.347-.268-2.508-1.043-3.268-2.185-.764-1.14-1.036-2.51-.769-3.855.478-2.396 2.594-4.135 5.031-4.135.337 0 .677.033 1.009.099 1.347.266 2.508 1.041 3.271 2.182.762 1.142 1.034 2.512.766 3.86-.476 2.394-2.592 4.133-5.033 4.133zm-.012-8.934c-1.8 0-3.361 1.285-3.714 3.057-.197.994.003 2.007.566 2.851.563.841 1.421 1.412 2.414 1.61 2.082.418 4.063-.969 4.463-2.979.197-.996-.004-2.01-.566-2.852-.564-.843-1.422-1.416-2.417-1.611-.25-.053-.501-.076-.746-.076z"/><path d="m181.083 221.523c-.676 0-1.337-.13-1.966-.394-1.269-.523-2.256-1.512-2.78-2.778-.523-1.268-.523-2.663.002-3.932.797-1.928 2.658-3.175 4.745-3.175.675 0 1.337.132 1.964.393 2.618 1.083 3.864 4.095 2.78 6.714-.797 1.927-2.66 3.172-4.745 3.172zm.001-8.936c-1.542 0-2.915.921-3.505 2.348-.389.936-.391 1.967-.001 2.904.386.935 1.116 1.664 2.054 2.053.464.193.951.29 1.452.29 1.539 0 2.917-.921 3.505-2.343.801-1.936-.119-4.161-2.053-4.961-.467-.192-.954-.291-1.452-.291z"/><path d="m176.868 229.398c-1.017 0-2.002-.301-2.852-.867-2.353-1.572-2.986-4.769-1.414-7.125.957-1.431 2.553-2.285 4.273-2.285 1.017 0 2.002.302 2.851.866 2.354 1.572 2.988 4.771 1.418 7.126-.955 1.429-2.553 2.285-4.276 2.285zm.01-8.935c-1.271 0-2.453.631-3.16 1.688-1.162 1.741-.692 4.102 1.048 5.265 1.691 1.132 4.145.634 5.262-1.046 1.163-1.74.693-4.104-1.047-5.266-.627-.419-1.353-.641-2.103-.641z"/><path d="m171.203 236.297c-1.373 0-2.663-.534-3.635-1.504-.971-.97-1.505-2.261-1.505-3.631 0-1.372.533-2.66 1.505-3.634 1.944-1.939 5.323-1.942 7.265-.001 2.002 2.004 2.002 5.264 0 7.268-.97.969-2.261 1.502-3.63 1.502zm.001-8.932c-1.014 0-1.969.395-2.688 1.111-.717.72-1.11 1.671-1.11 2.686 0 1.013.395 1.965 1.11 2.682 1.435 1.434 3.932 1.434 5.368.002 1.478-1.48 1.478-3.889 0-5.369-.716-.717-1.668-1.112-2.68-1.112z"/><path d="m164.313 241.962c-1.723 0-3.321-.853-4.277-2.282-1.571-2.354-.936-5.55 1.416-7.124.849-.568 1.835-.869 2.853-.869 1.722 0 3.319.854 4.274 2.284 1.571 2.354.935 5.55-1.419 7.127-.849.566-1.833.864-2.847.864zm-.008-8.934c-.751 0-1.479.222-2.107.644-1.737 1.161-2.206 3.522-1.046 5.262 1.121 1.678 3.57 2.179 5.263 1.048 1.739-1.164 2.208-3.527 1.049-5.268-.707-1.056-1.887-1.686-3.159-1.686z"/><path d="m156.438 246.174c-2.088 0-3.953-1.244-4.753-3.173-1.081-2.616.165-5.625 2.78-6.711.63-.261 1.291-.393 1.967-.393 2.088 0 3.949 1.243 4.745 3.173 1.083 2.614-.162 5.625-2.78 6.713-.627.259-1.286.391-1.959.391zm-.005-8.935c-.497 0-.988.098-1.453.291-1.932.803-2.853 3.026-2.056 4.956.593 1.426 1.971 2.346 3.515 2.346.496 0 .982-.098 1.446-.288 1.935-.804 2.855-3.028 2.054-4.96-.588-1.426-1.965-2.345-3.506-2.345z"/><path d="m147.882 248.766c-2.438 0-4.556-1.742-5.035-4.14-.55-2.774 1.258-5.483 4.036-6.038 2.757-.548 5.499 1.309 6.041 4.036.554 2.777-1.259 5.487-4.037 6.041-.331.066-.669.101-1.005.101zm.012-8.935c-.247 0-.497.021-.748.072-2.051.411-3.39 2.413-2.982 4.461.402 2.014 2.383 3.404 4.462 2.985 2.055-.408 3.39-2.41 2.984-4.464-.354-1.771-1.915-3.054-3.716-3.054z"/></g><circle cx="141.005" cy="200.851" fill="#2b3087" r="6.458"/><circle cx="138.91901" cy="199.11501" fill="#fff" r="6.458"/><path d="m178.784 238.799c0 20.438-16.572 37.01-37.009 37.01-20.183 0-36.606-16.171-36.983-36.259 1.771 1.61 3.704 3.021 5.756 4.255 3.973 13.646 16.574 23.616 31.51 23.616 18.129 0 32.823-14.692 32.823-32.822 0-8.441-3.194-16.13-8.442-21.94-1.193-1.342-2.509-2.575-3.917-3.689-4.349-3.489-9.597-5.879-15.353-6.777 5.637.818 10.856 2.912 15.365 5.972 1.369.926 2.671 1.944 3.906 3.047 7.58 6.774 12.344 16.623 12.344 27.587z" fill="#2b3087"/><path d="m175.929 236.127c0 20.438-16.572 37.01-37.01 37.01-20.182 0-36.607-16.171-36.982-36.26 1.771 1.61 3.704 3.02 5.757 4.255 3.972 13.646 16.571 23.618 31.507 23.618 18.13 0 32.823-14.693 32.823-32.824 0-8.441-3.191-16.129-8.44-21.939-1.193-1.343-2.51-2.576-3.918-3.69-4.349-3.487-9.595-5.876-15.352-6.775 5.636.818 10.857 2.911 15.365 5.973 1.369.925 2.67 1.943 3.906 3.043 7.58 6.776 12.344 16.625 12.344 27.589z" fill="#fff"/><g fill="#ffcd05"><path d="m143.347 94.807v2.69l1.902 1.903-1.902 1.903v2.69h-2.692l-1.902 1.903-1.903-1.903h-2.691v-2.69l-1.904-1.903 1.904-1.903v-2.69h2.691l1.903-1.904 1.902 1.904z"/><path d="m191.823 94.807v2.69l1.904 1.903-1.904 1.903v2.69h-2.691l-1.903 1.903-1.904-1.903h-2.69v-2.69l-1.904-1.903 1.904-1.903v-2.69h2.69l1.904-1.904 1.903 1.904z"/><path d="m94.87 94.807v2.69l1.901 1.903-1.901 1.903v2.69h-2.691l-1.903 1.903-1.904-1.903h-2.689v-2.69l-1.904-1.903 1.904-1.903v-2.69h2.689l1.904-1.904 1.903 1.904z"/><path d="m167.586 60.812v2.689l1.901 1.904-1.901 1.905v2.689h-2.693l-1.904 1.902-1.902-1.902h-2.691v-2.689l-1.903-1.905 1.903-1.904v-2.689h2.691l1.902-1.903 1.904 1.903z"/><path d="m216.062 128.801v2.69l1.902 1.904-1.902 1.904v2.689h-2.694l-1.901 1.904-1.904-1.904h-2.69v-2.689l-1.903-1.904 1.903-1.904v-2.69h2.69l1.904-1.903 1.901 1.903z"/><path d="m216.062 60.812v2.689l1.902 1.904-1.902 1.905v2.689h-2.694l-1.901 1.902-1.904-1.902h-2.69v-2.689l-1.903-1.905 1.903-1.904v-2.689h2.69l1.904-1.903 1.901 1.903z"/><path d="m119.108 60.812v2.689l1.903 1.904-1.903 1.905v2.689h-2.69l-1.903 1.902-1.905-1.902h-2.689v-2.689l-1.903-1.905 1.903-1.904v-2.689h2.689l1.905-1.903 1.903 1.903z"/><path d="m70.632 60.812v2.689l1.902 1.904-1.902 1.905v2.689h-2.692l-1.902 1.902-1.904-1.902h-2.69v-2.689l-1.903-1.905 1.903-1.904v-2.689h2.69l1.904-1.903 1.902 1.903z"/><path d="m70.632 128.801v2.69l1.902 1.903-1.902 1.904v2.69h-2.692l-1.902 1.902-1.904-1.902h-2.69v-2.69l-1.903-1.904 1.903-1.903v-2.69h2.69l1.904-1.904 1.902 1.904z"/></g></g></svg>