<svg enable-background="new -788.109 -54.473 2086.633 1418.32" height="500" viewBox="-788.109 -54.473 749.99998 500.00002" width="750" xmlns="http://www.w3.org/2000/svg"><path d="m.1767767.16389313-.08838835 499.83610687 749.88674165-.17678v-499.74771522z" fill="#fff" stroke="#000" transform="matrix(1.00000003 0 0 1.00000004 -788.109029 -54.472997)"/><g transform="matrix(1.00000003 0 0 1.00000004 -511.54629 108.247234)"><g stroke="#000"><g fill-rule="evenodd"><g fill="#8a0c0e"><path d="m97.759957 22.132123c.09695-.109067 1.843788-2.085864 2.082128-2.314776.382605-.367473.909955-.618744 1.325575-.946511.44231-.305057.73623-.783181 1.13433-1.131196.12753-.111487.28379-.186015.41572-.292262.088-.07089.16136-.158306.24204-.23746.11681-.08675.23363-.173499.35045-.260249.47904-.731114-.10129.09153.3862-.440366.30794-.335993-.30632.126607.22376-.237121 0 0 .0934.156774.0934.156774-.21798.09674.0272-.03497-.20506.224346-.0478.0534-.11435.08648-.17152.129723-.0805.0921-.16094.184207-.2414.276311-.10679.08733-.21358.174663-.32037.261995-.0844.09193-.15802.195067-.25319.275782-.11911.101006-.26715.164308-.38566.266001-.4109.352574-.70007.844941-1.15275 1.15588-.36757.285621-.98052.622798-1.303661.92637-.477888.448955-1.727852 1.881411-2.095838 2.295394 0 0-.124154-.108635-.124154-.108635z" opacity=".58292"/><path d="m83.77156 14.967871c.358674-1.181919.479631-2.452867.922238-3.613545.05931-.155532.16329-.290882.228382-.444084.106777-.251313.165359-.520495.251686-.779547.02552-.130316.04102-.263004.07657-.3909493.192094-.6913524.167555-.2720038.278795-1.0249397.04665-.3157615-.01903-.533988.16127-.8143159.06987-.1086316.184937-.1803578.277406-.2705368.06312-.069469.143397-.1265717.189372-.2084063.107207-.1908286.07605-.4323924.14194-.6411195.06429-.2036588.437128-1.1268638.531358-1.2749115.09662-.1518028.250689-.2582126.376033-.3873189.350953-.2965543.126664-.1398927.115845-.4244974-.0034-.088635.188313-.475487.22011-.5988292.07025-.059311.140505-.1186214.210758-.1779321 0 0 .06509.063543.06509.063543-.03885.052445-.07771.10489-.11656.157335-.02538.090736-.04193.1844234-.07615.2722069-.02296.058899-.0587.1122873-.09416.1646254-.01499.022122-.05867.030628-.05613.057228.03186.3340302.232288.3123496-.133741.6115527-.44734.5084629-.633266.9523353-.860816 1.5860482-.08098.2255085-.100997.47439-.211477.6870054-.04564.087826-.122869.1552009-.184303.2328013-.390789.3869574-.291192.4689505-.371706 1.0041304-.07482.4973534-.267876.9437303-.382986 1.4294493-.08897.26685-.149565.543437-.252552.805199-.05701.1449-.149982.274215-.203821.420323-.428557 1.163023-.526115 2.425195-.950643 3.589844 0 0-.151796-.03036-.151796-.03036z" opacity=".58292"/><path d="m71.088701 9.7966101c.305485-3.3680874-.01393.03442.288629-2.8902778.02724-.26327.05244-.5268048.07187-.7907655.0069-.093383-.01584-.1900175.007-.2808211.02018-.080173.08671-.141563.118517-.2178726.04178-.1002271.06757-.2063936.101353-.3095905.114535-.7787255-.0247-1.5654123-.02801-2.3493907.06666-.5527422-.07357-1.1307007.003-1.6804158.04792-.34383599.192562-.66708067.288583-1.00069599.175115-.55660765.188038-.41712758.162507-.95631871-.005-.1046061-.05428-.20910927-.03558-.31214906.0086-.0475271.07298-.0633022.109467-.0949533 0 0 .0037.00439.0037.00439-.03583.029972-.09927.043931-.107479.0899149-.01844.10330865.03066.20797751.03561.31280129.0159.33653951-.02585.67457864.02013 1.01054437-.09103.31625475-.23569.62050057-.280935.9464703-.07611.5483393.0393 1.1287521-.03073 1.6804158-.0034.7989918.119615 1.6035542-.000997 2.3958423-.03825.1129048-.06661.2296593-.114748.3387146-.02323.052616-.08593.085975-.09759.1422969-.01996.096468.0129.1971148.007.2954501-.01587.2652775-.04485.5296389-.0722.7939802-.305456 2.9527428.02101-.514844-.287641 2.8724341h-.161582z" opacity=".58292"/><path d="m56.141496 11.248524c-.263725-1.168369-.383104-1.4616664-.459297-2.5954515-.040315-.5999071.12181-1.2761286-.308537-1.762833-.255105-.6303633-.239808-1.292518-.203016-1.9579014.01235-.2234016.0652-.4459831.0511-.669281-.01645-.2604193-.132464-.4487844-.243911-.6670943-.180773-.6143155-.01447-1.2457158-.0084-1.8713503-.0049-.3828299-.0302-.76448905-.03114-1.14727616 0 0 .18305-.00044215.18305-.00044215.000914.38328387-.0093.76624571.0097 1.14936711-.0064.5979774-.170303 1.206741.004 1.7911233.511249 1.0414295-.08284 2.2024398.351521 3.2788165.479518.60349.283718 1.098674.339768 1.8388618.0512.6761425.29809 1.9775401.405109 2.5909891 0 0-.08989.02247-.08989.02247z" opacity=".58292"/><path d="m41.002085 15.744273c-.710584-1.39726-1.730612-2.590786-2.609562-3.876756-1.175354-1.719632.354515.434382-.55435-.982578-.0985-.153569-.221685-.289825-.332528-.434737-.567867-.9603793-1.639962-1.6169368-2.001245-2.6941968-.12233-.1128955-.392434-.3408653-.464077-.4961934-.065601-.1422309-.053676-.311369-.114378-.4557586-.167561-.3985666-.426205-.656248-.561152-1.089754-.039276-.0811488-.055279-.1785211-.117829-.2434463-.045387-.0471115-.137364-.0230962-.183573-.0694027-.104736-.1049581-.313554-.5602472-.379527-.6681249-.402512-.6581847-.133367-.0584272-.393933-.716847-.209147-.1712542-.130957-.0731481-.247499-.2835329 0 0 .02569-.019422.02569-.019422.168683.1620011.07119.07174.295604.2673787.552249.9510117-.262939-.4329993.442406.6863368.119441.1895452.168316.4301624.329416.5858558.07156.069155.192146.073783.260167.1464177.06736.071929.08465.1779875.126974.2669813.124188.4237205.427655.6954591.590828 1.0988384.04855.1200149.0073.2651558.05895.3838866.03059.070376.485843.5295793.50613.5505492.328017 1.064757 1.420929 1.7036431 1.98313 2.6318101.117265.155229.248789.30065.351794.465687.730305 1.170117-.441021-.430605.526158.962336.888963 1.280294 1.862276 2.507181 2.576879 3.902905 0 0-.114474.08177-.114474.08177z" opacity=".58292"/><path d="m26.416591 25.447816c-1.05492-.953027-1.925826-2.117306-3.002853-3.047995-.255942-.221168-.777342-.58611-1.062259-.790196-.165727-.0942-.347544-.164508-.497182-.282611-.59801-.47199-1.128368-1.170348-1.716504-1.662872-1.903716-1.594231.828252.935182-1.20735-.99289-.336609-.213821-.729627-.419403-.985853-.741701-.08163-.10268-.08606-.252279-.164248-.357604-.183905-.247743-.259089.03522-.397883-.482403-.08034-.27391-.300134-.372487-.444682-.598403 0 0 .03384-.02734.03384-.02734.10526.100692.243508.164496.34264.271227.04343.04676.05653.114421.0848.171632.05239.05004.104786.100074.157179.150111.01595.29594.219522.219724.392238.442783.06379.08238.04708.21159.114884.2907.181362.211593.830531.6023 1.022092.72599.186482.197242.358163.409614.559446.591727.385177.348494.871832.576705 1.199485.994745.194825.178581.389142.357827.578391.542307.176803.172348.326464.374067.519544.527959.153695.122501.340862.195774.511293.293661.156328.11135.988056.700415 1.098757.794549.155217.131987.285336.290929.429407.435.864455.864455 1.74539 1.712304 2.618589 2.567852 0 0-.183768.183768-.183768.183768z" opacity=".58292"/><path d="m19.427643 40.513164c-.99227-.612827-1.885871-1.403578-2.914444-1.961266-.802978-.435372-.661237-.251279-1.515389-.548106-.290444-.100933-.57028-.230136-.85542-.345203-.780683-.0948-1.329132-.664997-2.017544-.968093-.203259-.08949-.42563-.127151-.636875-.195698-.521404-.169191-.408171-.134692-.896512-.368631-.411674-.37132-.902311-.575099-1.4218667-.740016-.1794707-.056967-.3701235-.084457-.5401176-.165433-.3834564-.298785-.1870508-.182323-.5798187-.364771-.307222.007102-.5869602-.126865-.8774971-.209017 0 0 .051488-.169175.051488-.169175.2961164.09646.5782543.23164.8966191.229095.1031008.04966.2128603.08738.3093025.148988.09082.05801.1507656.161152.2482265.207143.1714416.0809.3632442.108729.5437674.166598.5246896.168198 1.0357366.361934 1.4324766.763693.524166.242425 1.049104.335924 1.550564.556698.683683.301 1.221609.867193 1.998346.958814.279125.11304.551729.243754.837376.339119.898088.299831.731494.08349 1.582069.532403 1.037133.547372 1.934575 1.354429 2.848268 2.072632 0 0-.04302.06023-.04302.06023z" opacity=".58292"/><path d="m14.974431 55.535057c-1.144661-.112896-2.296372-.237179-3.449007-.211611-.396447.0088-1.210573.100435-1.5813121.081-.3193253-.01674-.6335175-.08747-.9502762-.131204-1.4517168-.30769-2.9083252-.211077-4.3713141-.135799-.5705761.0089-1.1396542-.02299-1.7101677-.01738-.1008985.0017-.2017865.0042-.3026957.0051-.1492684.0013-.3005276.02551-.4478195.0013-.4762963-.0784-.8407695-.370316-1.33370155-.365072-.0791763.0117-.15835254.02339-.2375288.03509 0 0-.0250164-.173916-.0250164-.173916.0875897-.01229.17517942-.02458.26276913-.03688.55215462.0062.83421452.2796 1.33295952.357728.1471977.02306.2979839-.0011.4469766-.0013.1009465-.000093.2018928.000382.3028392.000573.5687143-.0022 1.1362079.01597 1.7046893.0192 1.4714031-.03635 2.9411084-.180623 4.3988132.156839.3075351.04031.6127902.106185.9226051.120914.529213.02516 1.058513-.05074 1.58818-.06306.931222-.02167 1.012047-.02033 2.024538.06959.481304.04274.961139.100671 1.441708.151006 0 0-.01724.13791-.01724.13791z" opacity=".58292"/><path d="m16.292714 68.923143c-2.137205.431333-4.216854 1.080085-6.3105976 1.675362-1.1278669.708724-2.5387923.264409-3.7088232.814598-.1578574.07423-.2838846.202795-.4258269.304192-.1222472.103211-.2479922.260294-.4303251.263643-.079224.0015-.1520071-.05825-.2311896-.0553-.024269.000904-.014032.04953-.032641.06514-.046716.03917-.098646.07613-.1569756.09387-.1373622.04177-.2818389.05494-.4227583.08241-.7790763.259-1.4761152.831364-2.3273773.84703-.029807.03053-.059615.06106-.089422.09159 0 0-.021138-.022-.021138-.022.036693-.03337.073386-.06673.1100784-.100098.4832883-.0063.5341518-.145793.953802-.364939.1444496-.07543.3103215-.105632.4521894-.185815.963148-.544368-.1495185-.111817.8909403-.466797.1200158-.01267.243045-.0084.3600475-.03802.1907813-.04823.1150234-.150197.3292532-.15727.050184-.0017.090208.0507.1402351.055.1561744.01343.2947797-.166986.3823073-.240595.1566983-.108701.2971725-.245679.4700948-.326104 1.1749797-.546478 2.5782925-.113557 3.7106683-.81517.5171503-.166352 1.0450263-.276602 1.5618493-.439837.364106-.115.717363-.263695 1.084083-.370065 1.476795-.428355 2.124612-.518356 3.685419-.828295 0 0 .02611.117473.02611.117473z" opacity=".58292"/></g><path d="m24.744441 70.430582c-1.843555-4.401551-2.718932-8.888763-2.732182-14.00526-.01268-4.897571.74327-9.063445 2.444373-13.470339 4.466631-11.571298 14.406106-20.3206 26.76319-23.558514 7.825763-2.050577 16.415629-1.680561 23.996422 1.033665 2.445055.875427 6.330276 2.806001 8.427966 4.187873 9.616086 6.334684 15.746126 16.076944 17.15836 27.269179.24899 1.973328.27765 6.412917.0544 8.427966-.35016 3.160691-1.311287 7.210553-1.677839 7.069894-.107033-.04107-.631558-.14786-1.16561-.237306-.534054-.08944-1.354137-.35055-1.822406-.580234-.468271-.229685-.969081-.417608-1.112912-.417608s-.681759-.226907-1.195396-.504237c-.536108-.289463-1.139014-.504238-1.415479-.504238-.264876 0-.547218-.06562-.627427-.145834-.08021-.08021-.628027-.238435-1.217372-.351612-.589347-.113178-1.312572-.306874-1.607166-.430437-.442919-.185774-1.240865-.224283-4.61017-.222489-3.906713.0021-4.861608.08857-5.248407.475366-.0543.0543-.288661.09873-.520795.09873-.68849 0-3.267962 1.347148-3.991922 2.08481-.350164.356792-.847118.718167-1.104339.803059-.375532.123936-.586536.370917-1.070955 1.253555-.331806.604564-.713133 1.279845-.847396 1.500623l-.244114.401413-.776923-.500544c-.427308-.275299-.899412-.500543-1.04912-.500543-.149709 0-.464814-.162076-.700235-.360169-.257161-.216387-.610542-.361151-.885204-.362626-.251442-.0013-.781319-.194738-1.177505-.429747-.396187-.235009-.85-.429462-1.008475-.432117-.158474-.0027-.547457-.164485-.864407-.359624-.316949-.195138-.779144-.450994-1.027099-.568568-.247955-.117573-.636938-.362039-.864407-.543256s-.797757-.523978-1.267307-.76169c-.46955-.237711-1.08544-.675211-1.368644-.972221-.283204-.297009-.619625-.540123-.747605-.540254-.12798-.00013-.387302-.121263-.576271-.269185-.18897-.147922-.70015-.453138-1.135955-.678257-.435805-.22512-1.039241-.585996-1.34097-.801946-.301728-.21595-.731193-.432741-.954365-.481758-.223173-.04902-.551712-.244472-.730088-.434345-.178377-.189872-.526878-.388231-.774448-.440797-.247571-.05257-.936358-.341255-1.530637-.641529-1.340152-.677145-1.998736-.928824-2.11812-.809441-.05056.05056-.237953-.0037-.416426-.120687-.260271-.170536-.96114-.214684-3.541162-.223059-2.96973-.0096-3.260478.01217-3.787381.284147-.313893.162023-.751427.294587-.972298.294587-.292431 0-.636568.224902-1.266147.827463-.475513.455105-.864568.901053-.864568.990996 0 .08994-.210699.242364-.46822.338712-1.486745.556251-1.766966.724411-2.629238 1.577796-.158474.156841-.547457.391842-.864406.522223s-.940685.552055-1.386079.937055c-.445395.384998-1.0937.809929-1.440678.944289-.346979.134359-.76471.364087-.928291.510506-.163582.146417-.379365.266214-.479518.266214-.100154 0-.446419.266976-.769478.59328-.32306.326305-.90567.740746-1.294689.920982-.38902.180235-.897019.496733-1.128888.703329s-.479033.375629-.549254.375629c-.07022 0-.209375.09844-.30923.21876-.09986.120318-.39271.31896-.650788.441427-.258078.122466-.72667.443023-1.041316.712347l-.572082.489681-.374902-.89509z" fill="#f00" opacity=".58292" stroke-width=".144068"/><path d="m.57695697 124.55732v-11.91894h13.30301003 54.207775 67.510788l.13177 1.55881c.0725.85734.13176 2.21427.13176 3.01539 0 .84359.1007 1.55727.23928 1.69585.17199.17199.26559 2.53256.33285 8.3942l.0936 8.15492h-.52457c-.28851 0-.58124.0917-.65049.20374-.0801.12963-2.75264.20375-7.34676.20375-6.2827 0-7.22084.0397-7.22084.30561 0 .27097-6.81406.30561-60.104077.30561h-60.10407603v-11.91894h-.00002z" fill="#ff0" opacity=".58292" stroke-width=".203743"/></g><path d="m2.241169 80.480133h4.6860805 1.0187132c.1018713 0 .2144974.04556.3056139 0 .030372-.01519-.024011-.07786 0-.101872.030142-.03014.3443848.03155.4074853 0 .042953-.02148.058919-.08039.1018713-.101871.030372-.01519.07786.02401.1018713 0 .024011-.02401-.024011-.07786 0-.101871.024513-.02451.3829719.02451.4074853 0 .024011-.02401-.024011-.07786 0-.101872.033776-.03378.169967.03378.2037426 0 .024011-.02401-.024011-.07786 0-.101871.024011-.02401.07786.02401.1018713 0 .024011-.02401-.024011-.07786 0-.101871.048023-.04802.15572.04802.2037426 0 .024011-.02401-.024011-.07786 0-.101871.048023-.04802.1557201.04802.2037427 0 .024011-.02401-.024011-.07786 0-.101872.033776-.03377.169967.03378.203743 0 .02401-.02401-.02401-.07786 0-.101871.04802-.04802.15572.04802.203742 0 .02401-.02401-.02401-.07786 0-.101871.05094-.05094.254679.05093.305614 0 .02401-.02401-.02401-.07786 0-.101872.03378-.03378.169967.03378.203743 0 .02401-.02401-.03037-.08669 0-.101871.06074-.03037.139313.02148.203742 0 .04556-.01519.05892-.08039.101872-.101871.04039-.0202.284788.02083.305614 0 .02401-.02401-.02401-.07786 0-.101872.05093-.05093.254678.05094.305614 0 .02401-.02401-.02401-.07786 0-.101871.02083-.02083.265222.0202.305614 0 .04295-.02148.05892-.08039.101871-.101871.06074-.03037.15572.04802.203743 0 .02401-.02401-.02401-.07786 0-.101872.02451-.02451.382971.02451.407485 0 .02401-.02401-.02401-.07786 0-.101871.02401-.02401.06791 0 .101871 0 .06791 0 .142998.03037.203743 0 .03037-.01519-.02401-.07786 0-.101871.02401-.02401.0715.01519.101871 0 .04295-.02148.05892-.08039.101871-.101872.04039-.0202.284788.02083.305614 0 .02401-.02401-.02401-.07786 0-.101871.02083-.02083.265223.0202.305614 0 .08591-.04295.117837-.16079.203743-.203743.06074-.03037.15572.04802.203743 0 .02401-.02401-.02401-.07786 0-.101871.02401-.02401.06791 0 .101871 0 .06791 0 .142998.03037.203743 0 .03037-.01519-.02401-.07786 0-.101871.02401-.02401.06966.01074.101871 0 .737896-.245966-.160611.02937.305614-.203743.05348-.02674.150262.02674.203742 0 .134686-.06734.06906-.1364.203743-.203742.03037-.01519.0715.01519.101871 0 .04295-.02148.05892-.08039.101872-.101872.06074-.03037.15572.04802.203742 0 .02401-.02401-.02401-.07786 0-.101871.02401-.02401.0715.01519.101872 0 .04295-.02148.05892-.08039.101871-.101871.03037-.01519.07786.02401.101871 0 .02401-.02401-.02401-.07786 0-.101872.02083-.02083.265223.0202.305614 0 .337865-.337864-.09605.04802.203743-.101871.04295-.02148.05892-.08039.101871-.101871.03037-.01519.07786.02401.101871 0 .02401-.02401-.02401-.07786 0-.101872.0343-.0343.169443.0343.203743 0 .02401-.02401-.02401-.07786 0-.101871.04802-.04802.142998.03037.203743 0 .08591-.04295.117837-.16079.203742-.203743.05457-.02729.149169.02729.203743 0 .04295-.02148.05892-.08039.101871-.101871.06074-.03037.15572.04802.203743 0 .04802-.04802-.06074-.17337 0-.203743.06074-.03037.135828 0 .203743 0 .03396 0 .07786.02401.101871 0 .02401-.02401-.02401-.07786 0-.101871.04802-.04802.15572.04802.203743 0 .02401-.02401-.02401-.07786 0-.101871.02401-.02401.07786.02401.101871 0 .02401-.02401-.02401-.07786 0-.101871.02401-.02401.07786.02401.101871 0 .02401-.02401-.02401-.07786 0-.101872.04802-.04802.15572.04802.203743 0 .02401-.02401-.02401-.07786 0-.101871.02401-.02401.07786.02401.101871 0 .02401-.02401-.02401-.07786 0-.101871.02401-.02401.0715.01519.101871 0 .04295-.02148.05892-.08039.101872-.101872.03037-.01519.07786.02401.101871 0 .02401-.02401-.02401-.07786 0-.101871.04802-.04802.15572.04802.203743 0 .04802-.04802-.04802-.15572 0-.203743.02401-.02401.07786.02401.101871 0 .02401-.02401 0-.06791 0-.101871.06791 0 .142998.03037.203743 0 .03037-.01519-.01519-.0715 0-.101871.01419-.02839.189548-.175355.203742-.203743.01519-.03037-.02401-.07786 0-.101871.02401-.02401.0715.01519.101872 0 .423964-.211982-.108904.007.101871-.203743.02401-.02401.07786.02401.101871 0 .02401-.02401 0-.06791 0-.101871.03396 0 .0715.01519.101872 0 .423964-.211982-.108905.007.101871-.203743.02401-.02401.07786.02401.101871 0 .02401-.02401-.02401-.07786 0-.101871.02401-.02401.0715.01519.101871 0 .04295-.02148.05892-.08039.101872-.101871.03037-.01519.07786.02401.101871 0 .04802-.04802-.04802-.155721 0-.203743.0343-.0343.169442.0343.203743 0 .02401-.02401-.02401-.07786 0-.101871.03387-.03387.169877.03387.203742 0 .03393-.03393-.03393-.169815 0-.203743.02401-.02401.0715.01519.101872 0 .04295-.02148.05892-.0804.101871-.101871.06074-.03037.15572.04802.203743 0 .02401-.02401-.02401-.07786 0-.101872.04802-.04802.15572.04802.203742 0 .02401-.02401-.02401-.07786 0-.101871.05369-.05369.131709-.07786.203743-.101871.03221-.01074.07786.02401.101871 0 .02401-.02401-.02401-.07786 0-.101872.02401-.02401.07786.02401.101872 0 .135828-.135828-.216102-.09775.101871-.203742.07372-.02457.373904.03358.407485 0 .02401-.02401.02401-.07786 0-.101872-.02401-.02401-.135828 0-.101871 0 .220532 0 .20912.03037.407485-.101871.03996-.02664.06191-.07523.101871-.101871.06318-.04212.142999-.05631.203743-.101872.07684-.05763.123828-.150466.203743-.203742.02825-.01884.0715.01519.101871 0 .466225-.233113-.432282.04222.305614-.203743.03221-.01074.07786.02401.101871 0 .02401-.02401-.02401-.07786 0-.101871.04802-.04802.15572.04802.203743 0 .02401-.02401-.02401-.07786 0-.101871.02401-.02401.07786.02401.101871 0 .02401-.02401-.02401-.07786 0-.101872.02401-.02401.07786.02401.101871 0 .04802-.04802-.04802-.15572 0-.203742.03387-.03387.169878.03387.203743 0 .02401-.02401-.01519-.0715 0-.101872.02148-.04295.06791-.06791.101871-.101871.03396-.03396.05892-.0804.101872-.101871.140517-.07026.09112.123371.203742-.101872.09017-.180334-.151527-.03481.101872-.203742.06318-.04212.131708-.07786.203742-.101872.03222-.01074.07786.02401.101872 0 .02401-.02401 0-.06791 0-.101871.06791-.03396.131708-.07786.203742-.101871.03222-.01074.07786.02401.101872 0 .02401-.02401-.02401-.07786 0-.101872.04802-.04802.15572.04802.203742 0 .210776-.210775-.322092.0082.101872-.203742.06074-.03037.15572.04802.203742 0 .02401-.02401-.02401-.07786 0-.101871.04802-.04802.142998.03037.203743 0 .04295-.02148.05892-.08039.101871-.101872.03037-.01519.07786.02401.101871 0 .02401-.02401-.03037-.08669 0-.101871.06074-.03037.142999.03037.203743 0 .03037-.01519-.02401-.07786 0-.101871.04802-.04802.142998.03037.203743 0 .04295-.02148.05892-.0804.101871-.101872.04039-.0202.284788.02083.305614 0 .210775-.210775-.322093.0082.101871-.203742.06075-.03037.142999.03037.203743 0 .04295-.02148.05892-.08039.101871-.101872.06075-.03037.15572.04802.203743 0 .02401-.02401-.02401-.07786 0-.101871.02401-.02401.07786.02401.101871 0 .02401-.02401-.02401-.07786 0-.101871.02401-.02401.06791 0 .101871 0h.101872c.271657 0-.03396.03396.101871-.101872.05094-.05093.254678.05094.305614 0 .02401-.02401-.02401-.07786 0-.101871.210775-.210775-.0082.322093.203743-.101871.01519-.03037-.02401-.07786 0-.101872.05093-.05094.254678.05094.305614 0 .02401-.02401-.02401-.07786 0-.101871.02401-.02401.07786.02401.101871 0 .02401-.02401-.02401-.07786 0-.101871.02401-.02401.07786.02401.101871 0 .02401-.02401-.02401-.07786 0-.101872.02401-.02401.0715.01519.101872 0 .04295-.02148.05892-.08039.101871-.101871.03037-.01519.0715.01519.101871 0 .04295-.02148.05892-.08039.101872-.101871.03037-.01519.07786.02401.101871 0 .04802-.04802-.04802-.15572 0-.203743.04802-.04802.142998.03037.203743 0 .04295-.02148.05892-.0804.101871-.101871.03037-.01519.07786.02401.101871 0 .02401-.02401-.02401-.07786 0-.101871.02401-.02401.07786.02401.101871 0 .02401-.02401-.02401-.07786 0-.101872.02401-.02401.0715.01519.101872 0 .08591-.04295.117837-.16079.203742-.203742.03037-.01519.07786.02401.101872 0 .02401-.02401-.02401-.07786 0-.101872.04802-.04802.15572.04802.203742 0 .02401-.02401-.02401-.07786 0-.101871.02401-.02401.0715.01519.101872 0 .04295-.02148.05892-.0804.101871-.101871.03037-.01519.07786.02401.101871 0 .210776-.210776-.322092.0082.101872-.203743.03037-.01519.0715.01519.101871 0 .122246-.06112.183368-.244491.305614-.305614.03037-.01519.07786.02401.101871 0 .02401-.02401 0-.06791 0-.101871.03396 0 .07786.02401.101872 0 .02401-.02401-.03037-.08669 0-.101872.06074-.03037.142998.03037.203742 0 .03037-.01519-.02401-.07786 0-.101871.02401-.02401.07786.02401.101871 0 .02401-.02401-.02401-.07786 0-.101871.02401-.02401.0715.01519.101872 0 .04295-.02148.06191-.07523.101871-.101872.06318-.04212.150052-.04818.203743-.101871.02401-.02401-.02401-.07786 0-.101871.02401-.02401.07786.02401.101871 0 .02401-.02401-.02401-.07786 0-.101871.04802-.04802.15572.04802.203743 0 .02401-.02401-.01519-.0715 0-.101872.211982-.423964-.007.108904.203742-.101871.02401-.02401-.02401-.07786 0-.101871.02401-.02401.0715.01519.101872 0 .04295-.02148.05892-.08039.101871-.101872.03037-.01519.07786.02401.101871 0 .02401-.02401-.02401-.07786 0-.101871.02401-.02401.0715.01519.101872 0 .0994-.0497.104346-.154045.203742-.203743.03037-.01519.07786.02401.101872 0 .210775-.210775-.322093.0082.101871-.203742.06074-.03037.15572.04802.203742 0 .02401-.02401-.02401-.07786 0-.101872.02401-.02401.07786.02401.101872 0 .02401-.02401-.02401-.07786 0-.101871.0692-.0692.202597.104162.305614-.101871.01519-.03037-.02401-.07786 0-.101872.04802-.04802.15572.04802.203742 0 .02401-.02401-.01519-.0715 0-.101871.211982-.423964-.007.108904.203743-.101871.02401-.02401-.02401-.07786 0-.101872.04802-.04802.15572.04802.203743 0 .02401-.02401-.02401-.07786 0-.101871.02401-.02401.07786.02401.101871 0 .02401-.02401-.02401-.07786 0-.101871.02401-.02401.07786.02401.101871 0 .02401-.02401-.02401-.07786 0-.101871.02401-.02401.0715.01519.101872 0 .04295-.02148.05892-.08039.101871-.101872.03037-.01519.07786.02401.101871 0 .03391-.03391-.03391-.169829 0-.203742.04802-.04802.15572.04802.203743 0 .02401-.02401-.02401-.07786 0-.101872.02401-.02401.0715.01519.101871 0 .04295-.02148.05892-.08039.101871-.101871.03037-.01519.07786.02401.101872 0 .02401-.02401-.02401-.07786 0-.101871.02401-.02401.07786.02401.101871 0 .02401-.02401-.02401-.07786 0-.101872.02401-.02401.07786.02401.101871 0 .02401-.02401-.02401-.07786 0-.101871.04802-.04802.15572.04802.203743 0 .02401-.02401-.01519-.0715 0-.101871.211982-.423964-.007.108904.203743-.101872.02401-.02401-.02401-.07786 0-.101871.04802-.04802.15572.04802.203742 0 .02401-.02401-.02401-.07786 0-.101871.02401-.02401.07786.02401.101872 0 .02401-.02401-.02401-.07786 0-.101872.04802-.04802.15572.04802.203742 0 .02401-.02401-.02401-.07786 0-.101871.02401-.02401.07786.02401.101872 0 .02401-.02401-.02401-.07786 0-.101871.04802-.04802.15572.04802.203742 0 .02401-.02401-.02401-.07786 0-.101872.02401-.02401.07786.02401.101872 0 .02401-.02401-.02401-.07786 0-.101871.04802-.04802.15572.04802.203742 0 .02401-.02401-.02401-.07786 0-.101871.02401-.02401.0715.01519.101871 0 .04295-.02148.05892-.0804.101872-.101871.03037-.01519.07786.02401.101871 0 .03388-.03388-.03388-.169863 0-.203743.04802-.04802.15572.04802.203743 0 .02401-.02401-.02401-.07786 0-.101871.04802-.04802.15572.04802.203742 0 .02401-.02401-.02401-.07786 0-.101872.02401-.02401.07786.02401.101872 0 .02401-.02401-.02401-.07786 0-.101871.02401-.02401.07786.02401.101871 0 .02401-.02401-.02401-.07786 0-.101871.02401-.02401.07786.02401.101871 0 .02401-.02401-.02401-.07786 0-.101872.04802-.04802.15572.04802.203743 0 .02401-.02401-.02401-.07786 0-.101871.02401-.02401.07786.02401.101871 0 .02401-.02401-.02401-.07786 0-.101871.04802-.04802.15572.04802.203743 0 .02401-.02401-.02401-.07786 0-.101872.04802-.04802.15572.04802.203743 0 .02401-.02401-.01519-.0715 0-.101871.211982-.423964-.007.108904.203742-.101871.02401-.02401-.02401-.07786 0-.101872.02451-.02451.382972.02451.407485 0 .02401-.02401-.02401-.07786 0-.101871.04802-.04802.15572.04802.203743 0 .02401-.02401-.02401-.07786 0-.101871.02401-.02401.07786.02401.101871 0 .02401-.02401-.02401-.07786 0-.101872.05094-.05093.254679.05094.305614 0 .02401-.02401-.02401-.07786 0-.101871.05094-.05094.254679.05094.305614 0 .02401-.02401-.02401-.07786 0-.101871.04802-.04802.15572.04802.203743 0 .02401-.02401-.02401-.07786 0-.101871.02451-.02451.382972.02451.407485 0 .02401-.02401-.02401-.07786 0-.101872.03154-.03154.477813.03154.509357 0 .02401-.02401-.02401-.07786 0-.101871.02451-.02451.382972.02451.407485 0 .02401-.02401-.02401-.07786 0-.101871.02451-.02451.382972.02451.407485 0 .02401-.02401-.02401-.07786 0-.101872.02401-.02401.06791 0 .101872 0h.509356c.03396 0 .07786.02401.101871 0 .02401-.02401-.02401-.07786 0-.101871.02401-.02401.06791 0 .101872 0h.509356c.03396 0 .07786.02401.101872 0 .02401-.02401-.02401-.07786 0-.101871.0033-.0033.280907 0 .305614 0h1.935555 1.426198.101871c.03396 0 .07786-.02401.101872 0 .02401.02401-.02401.07786 0 .101871.02401.02401.06791 0 .101871 0h.509357c.03396 0 .07786-.02401.101871 0 .02401.02401-.02401.07786 0 .101871.271657 0-.03396-.03396.101871.101872.03154.03154.477813-.03154.509357 0 .02401.02401-.02401.07786 0 .101871.02787.02787.352221-.02763.407485 0 .04295.02148.05892.0804.101871.101871.05526.02763.379611-.02787.407486 0 .02401.02401-.02401.07786 0 .101872.04802.04802.15572-.04802.203742 0 .02401.02401-.02401.07786 0 .101871.02451.02451.382972-.02451.407486 0 .02401.02401-.02401.07786 0 .101871.05093.05094.254678-.05094.305614 0 .02401.02401-.02401.07786 0 .101871.04802.04802.15572-.04802.203742 0 .02401.02401-.02401.07786 0 .101872.04802.04802.15572-.04802.203743 0 .02401.02401-.02401.07786 0 .101871.05093.05094.254678-.05094.305614 0 .02401.02401-.02401.07786 0 .101871.04802.04802.15572-.04802.203742 0 .02401.02401-.02401.07786 0 .101872.02401.02401.07786-.02401.101872 0 .02401.02401-.02401.07786 0 .101871.02401.02401.07786-.02401.101871 0 .02401.02401-.02401.07786 0 .101871.04802.04802.142998-.03037.203743 0 .09986.04993.103883.153814.203742.203743.03037.01519.0715-.01519.101872 0 .04295.02148.05892.0804.101871.101871.03037.01519.0715-.01519.101871 0 .04295.02148.05892.0804.101872.101872.06074.03037.15572-.04802.203742 0 .210776.210775-.322093-.0082.101871.203742.06075.03037.142999-.03037.203743 0 .04295.02148.05892.0804.101871.101872.06074.03037.15572-.04802.203743 0 .02401.02401-.02401.07786 0 .101871.02401.02401.07786-.02401.101871 0 .02401.02401-.02401.07786 0 .101871.04802.04802.142999-.03037.203743 0 .04295.02148.05892.0804.101871.101872.03037.01519.07786-.02401.101872 0 .02401.02401-.02401.07786 0 .101871.04802.04802.15572-.04802.203742 0 .02401.02401-.02401.07786 0 .101871.02401.02401.07786-.02401.101872 0 .02401.02401-.02401.07786 0 .101871.02401.02401.0715-.01519.101871 0 .04295.02148.05892.0804.101871.101872.06074.03037.15572-.04802.203743 0 .04802.04802-.04802.15572 0 .203742.04802.04802.15572-.04802.203742 0 .02401.02401-.02401.07786 0 .101872.04802.04802.155721-.04802.203743 0 .02401.02401-.02401.07786 0 .101871.04802.04802.15572-.04802.203743 0 .03388.03388-.03388.169863 0 .203743.02401.02401.07786-.02401.101871 0 .02401.02401-.02401.07786 0 .101871.04802.04802.142998-.03037.203743 0 .04295.02148.05892.0804.101871.101871.03037.01519.07786-.02401.101871 0 .02401.02401-.02401.07786 0 .101872.04802.04802.15572-.04802.203743 0 .02401.02401-.02401.07786 0 .101871.04802.04802.15572-.04802.203743 0 .02401.02401-.02401.07786 0 .101871.210775.210776-.0082-.322092.203742.101872.01519.03037-.02401.07786 0 .101871.04802.04802.139314-.02148.203743 0 .07203.02401.135828.06791.203742.101871.06791.03396.135829.06791.203743.101872 0 .03396-.02401.07786 0 .101871.04802.04802.142998-.03037.203743 0 .08591.04295.112626.17337.203742.203742.000462.000154.305517-.000097.305614 0 .02401.02401-.02401.07786 0 .101872.04802.04802.15572-.04802.203743 0 .02401.02401-.02401.07786 0 .101871.05094.05094.254678-.05094.305614 0 .02401.02401-.02401.07786 0 .101871.02401.02401.07786-.02401.101871 0 .02401.02401-.02401.07786 0 .101872.05094.05094.254679-.05094.305614 0 .02401.02401-.02401.07786 0 .101871.04802.04802.15572-.04802.203743 0 .02401.02401-.02401.07786 0 .101871.04802.04802.15572-.04802.203742 0 .02401.02401-.02401.07786 0 .101872.05094.05093.254679-.05094.305614 0 .02401.02401-.02401.07786 0 .101871.04802.04802.142999-.03037.203743 0 .04295.02148.05631.08668.101871.101871.000462.000154.305517-.000097.305614 0 .02401.02401-.02401.07786 0 .101872.04802.04802.15572-.04802.203743 0 .02401.02401-.02401.07786 0 .101871.04802.04802.15572-.04802.203743 0 .02401.02401-.02401.07786 0 .101871.05094.05094.254678-.05093.305613 0 .02401.02401-.02401.07786 0 .101872.02401.02401.07786-.02401.101872 0 .02401.02401 0 .06791 0 .101871.03396 0 .07786-.02401.101871 0 .02401.02401-.02401.07786 0 .101871.04802.04802.15572-.04802.203743 0 .02401.02401 0 .06791 0 .101872.06791 0 .139313-.02148.203742 0 .09112.03037.117838.160789.203743.203742.250904.125452-.09196-.295705.305614.101871.02401.02401-.03037.08669 0 .101872.06074.03037.142998-.03037.203743 0 .03037.01519-.02401.07786 0 .101871.04802.04802.142998-.03037.203742 0 .245551.122776-.04181.08097.203743.203743.06074.03037.142998-.03037.203742 0 .04295.02148.05892.08039.101872.101871.03037.01519.0715-.01519.101871 0 .08591.04295.117837.16079.203743.203743.06074.03037.15572-.04802.203742 0 .02401.02401-.02401.07786 0 .101871.02401.02401.06791 0 .101872 0 .06791.03396.150051.04818.203742.101871.02401.02401-.02401.07786 0 .101872.04802.04802.142999-.03037.203743 0 .04295.02148.05892.08039.101871.101871.03037.01519.07786-.02401.101872 0 .02401.02401-.02401.07786 0 .101871.02401.02401.0715-.01519.101871 0 .04295.02148.05892.0804.101871.101872.03037.01519.07786-.02401.101872 0 .02401.02401-.02401.07786 0 .101871.04802.04802.142998-.03037.203742 0 .122246.06112.183369.244491.305614.305614.06074.03037.15572-.04802.203743 0 .02401.02401-.02401.07786 0 .101871.210775.210776-.0082-.322093.203742.101871.01519.03037-.02401.07786 0 .101872.04802.04802.15572-.04802.203743 0 .02401.02401-.02401.07786 0 .101871.210775.210776-.0082-.322093.203743.101871.01519.03037-.02401.07786 0 .101872.02401.02401.0715-.01519.101871 0 .04295.02148.05892.08039.101871.101871.03037.01519.0715-.01519.101872 0 .02714.01357.1766.190172.203742.203743.06074.03037.15572-.04802.203743 0 .02401.02401-.03037.08668 0 .101871.06074.03037.142998-.03037.203743 0 .03037.01519-.02401.07786 0 .101871.02401.02401.07786-.02401.101871 0 .02401.02401-.03037.08669 0 .101872.06074.03037.135828 0 .203742 0 .03396.06791.04818.150051.101872.203742.04802.04802.15572-.04802.203742 0 .02401.02401-.02401.07786 0 .101872.02401.02401.0715-.01519.101872 0 .04295.02148.05892.08039.101871.101871.03037.01519.0715-.01519.101871 0 .04295.02148.05892.08039.101872.101871.03037.01519.06791 0 .101871 0 .03396.03396.05892.08039.101871.101872.03037.01519.07786-.02401.101872 0 .05369.05369.04818.150051.101871.203742.02401.02401.07786-.02401.101871 0 .02401.02401-.02401.07786 0 .101872.02401.02401.0715-.01519.101872 0 .04295.02148.05892.08039.101871.101871.03037.01519.07786-.02401.101871 0 .05369.05369.04818.150052.101872.203742.02401.02401.0715-.01519.101871 0 .04295.02148.05892.08039.101871.101872.06074.03037.15572-.04802.203743 0 .05369.05369.04818.150052.101871.203742.02401.02401.0715-.01519.101871 0 .04295.02148.05892.08039.101872.101872.03037.01519.07786-.02401.101871 0 .02401.02401-.02401.07786 0 .101871.02401.02401.07786-.02401.101871 0 .02401.02401-.02401.07786 0 .101871.04802.04802.15572-.04802.203743 0 .02401.02401-.02401.07786 0 .101872.02401.02401.07786-.02401.101871 0 .02401.02401-.02401.07786 0 .101871.02401.02401.0715-.01519.101872 0 .04295.02148.05892.08039.101871.101871.03037.01519.07786-.02401.101871 0 .02401.02401-.02401.07786 0 .101872.02451.02451.382972-.02451.407486 0 .02401.02401-.02401.07786 0 .101871.02401.02401.07786-.02401.101871 0 .02401.02401.03396.101871 0 .101871-.04802 0-.149894-.101871-.101871-.101871.101871.03396.203742.06791.305613.101871 0 .03396-.03037.08669 0 .101872.06074.03037.139314-.02148.203743 0 .09112.03037.112626.17337.203743.203742.06443.02148.139313-.02148.203742 0 .04556.01519.05892.08039.101872.101872.03037.01519.0715-.01519.101871 0 .310663.155331-.186317.08076.305614.203742.06589.01647.142998-.03037.203743 0 0 .105388-.02401.140801.101871.203743.06074.03037.15572-.04802.203743 0 .02401.02401-.02401.07786 0 .101871.04802.04802.142998-.03037.203742 0 .04295.02148.05892.08039.101871.101871.03037.01519.07786-.02401.101872 0 .02401.02401-.02401.07786 0 .101872.04802.04802.15572-.04802.203742 0 .02401.02401-.02401.07786 0 .101871.03391.03391.16983-.03391.203743 0 .02401.02401-.02401.07786 0 .101871.04802.04802.15572-.04802.203743 0 .02401.02401-.02401.07786 0 .101872.02401.02401.0715-.01519.101871 0 .337865.337864-.09604-.04802.203743.101871.04295.02148.05892.08039.101871.101871.03037.01519.06791 0 .101871 0 .03396.03396.05892.08039.101872.101872.03037.01519.0715-.01519.101871 0 .04295.02148.05892.08039.101871.101871.06074.03037.142999-.03037.203743 0 .04295.02148.06191.07523.101871.101871.09306.06204.247221.08696.305614.203743.01519.03037-.02401.07786 0 .101871.05094.05094.254678-.05093.305614 0 .02401.02401-.02401.07786 0 .101872.04802.04802.142998-.03037.203743 0 .04295.02148.05892.08039.101871.101871.06074.03037.15572-.04802.203743 0 0 .271657-.03396-.03396.101871.101871.02401.02401-.02401.07786 0 .101871.04802.04802.142998-.03037.203743 0 .337864.337865-.09605-.04802.203742.101872.08591.04295.117837.16079.203743.203742.05434.02717.149405-.02717.203742 0 .04295.02148.05892.08039.101872.101872.03037.01519.07786-.02401.101871 0 .02401.02401-.02401.07786 0 .101871.02401.02401.0715-.01519.101871 0 .04295.02148.05892.08039.101872.101871.06074.03037.142998-.03037.203742 0 .04295.02148.05892.08039.101872.101872.03037.01519.07786-.02401.101871 0 .02401.02401-.02401.07786 0 .101871.03391.03391.16983-.03391.203743 0 .135828.135828-.216102.09775.101871.203743.06443.02148.142998-.03037.203743 0 .03037.01519-.02401.07786 0 .101871.02401.02401.07786-.02401.101871 0 .02401.02401-.02401.07786 0 .101871.02401.02401.0715-.01519.101871 0 .08591.04295.117837.16079.203743.203743.03037.01519.0715-.01519.101871 0 .08591.04295.117837.16079.203743.203743.03037.01519.0715-.01519.101871 0 .04295.02148.06345.07306.101871.101871.09795.07346.196106.148988.305614.203742.04039.0202.284788-.02083.305614 0 .02401.02401-.02401.07786 0 .101872.05094.05093.254679-.05094.305614 0 .02401.02401-.02401.07786 0 .101871.02401.02401.07786-.02401.101872 0 .02401.02401-.02401.07786 0 .101871.05093.05094.254678-.05093.305614 0 .02401.02401-.02401.07786 0 .101872.02401.02401.07786-.02401.101871 0 .210775.210775-.322093-.0082.101871.203742.03037.01519.0715-.01519.101871 0 .04295.02148.05631.08669.101872.101872.000462.000154.305517-.000098.305614 0 .02401.02401-.02401.07786 0 .101871.03391.03391.169829-.03391.203742 0 .02401.02401-.02401.07786 0 .101871.04802.04802.142999-.03037.203743 0 .04295.02148.05892.08039.101871.101872.05526.02763.379611-.02788.407486 0 .135828.135828-.169786.101871.101871.101871" fill="none"/><path d="m71.106179 70.089259c-.03396.135828-.200873.506486-.101872.407485.06791-.169786.135829-.339571.203743-.509357.03396 0 .07786.02401.101871 0 .04802-.04802-.04802-.15572 0-.203742.02401-.02401.07786.02401.101872 0 .02401-.02401-.02401-.07786 0-.101872.02401-.02401.07786.02401.101871 0 .02401-.02401-.01519-.0715 0-.101871.02148-.04295.06791-.06791.101871-.101871.03396-.03396.05892-.08039.101872-.101872.03037-.01519.07786.02401.101871 0 .02401-.02401 0-.06791 0-.101871.03396 0 .0715.01519.101871 0 .423964-.211982-.108904.007.101871-.203743.02401-.02401.07786.02401.101872 0 .02401-.02401-.02401-.07786 0-.101871.04802-.04802.15572.04802.203742 0 .04802-.04802-.04802-.15572 0-.203743.02401-.02401.07786.02401.101872 0 .02401-.02401-.02401-.07786 0-.101871.02401-.02401.07786.02401.101871 0 .02401-.02401-.02401-.07786 0-.101871.210775-.210776-.0082.322092.203743-.101872.01519-.03037-.02401-.07786 0-.101871.02401-.02401.07786.02401.101871 0 .02401-.02401-.02401-.07786 0-.101871.210775-.210776-.0082.322093.203743-.101872 0-.271656-.03396.03396.101871-.101871.02401-.02401-.02401-.07786 0-.101871.02401-.02401.07786.02401.101871 0 .02401-.02401-.02401-.07786 0-.101871.05369-.05369.150052-.04818.203743-.101872.02401-.02401-.02401-.07786 0-.101871.02401-.02401.0715.01519.101871 0 .04295-.02148.06791-.06791.101872-.101871.03396-.03396.06791-.06791.101871-.101872 0-.03396-.02401-.07786 0-.101871.02401-.02401.0715.01519.101871 0 .04295-.02148.05892-.0804.101871-.101871.03037-.01519.07362.01884.101872 0 .07991-.05328.123828-.150467.203742-.203743.02825-.01884.07786.02401.101872 0 .02401-.02401-.01519-.0715 0-.101871.02148-.04295.06791-.06791.101871-.101872.03396-.03396.05892-.08039.101871-.101871.03037-.01519.0715.01519.101872 0 .04295-.02148.05892-.08039.101871-.101871.03037-.01519.06791 0 .101871 0 .03396-.03396.05892-.0804.101872-.101872.06074-.03037.142998.03037.203742 0 .423964-.211982-.108904.007.101872-.203742.02401-.02401.06966.01074.101871 0 .07203-.02401.150052-.04818.203743-.101872.02401-.02401-.03037-.08669 0-.101871.06074-.03037.135828 0 .203742 0 .03396 0 .07786.02401.101871 0 .05369-.05369.04818-.150052.101872-.203742.05093-.05094.254678.05093.305614 0 .02401-.02401-.02401-.07786 0-.101872.05094-.05094.254678.05094.305614 0 .02401-.02401-.02401-.07786 0-.101871.02401-.02401.0715.01519.101871 0 .04295-.02148.05631-.08669.101871-.101871.06443-.02148.135829 0 .203743 0 .03396 0 .0715.01519.101871 0 .04295-.02148.05631-.08669.101872-.101872.06443-.02148.135828 0 .203742 0 .03396 0 .0715.01519.101872 0 .04295-.02148.05892-.08039.101871-.101871.05434-.02717.149405.02717.203742 0 .04295-.02148.05892-.08039.101872-.101871.0815-.04075.224117.04075.305614 0 .135977-.06799.06776-.135754.203742-.203743.06403-.03201.343457.03201.407486 0 .04295-.02148.05892-.0804.101871-.101871.06403-.03201.343457.03201.407485 0 .04295-.02148.06791-.06791.101872-.101872 0-.03396-.03037-.08669 0-.101871.112186-.05609.288032.03982.407485 0 .07203-.02401.131709-.07786.203742-.101871.06443-.02148.140686.02522.203743 0 .140999-.0564.266486-.147343.407485-.203743.07709-.03083.32746.02668.407486 0 .04556-.01519.05892-.08039.101871-.101871.03037-.01519.06791 0 .101871 0h.101872.509356c.06791 0 .137856.01647.203743 0 .07366-.01842.131708-.07786.203742-.101872.03222-.01074.06791 0 .101872 0h.203742.407486 1.528069 2.139298.814971c.06791 0 .137856-.01647.203742 0 .104176.02604.199693.08422.305614.101872.167475.02791.339571 0 .509357 0h.916842.305613c.03396 0 .06966-.01074.101872 0 .07203.02401.131709.07786.203742.101871.03221.01074.06791 0 .101872 0h.305614c.06791 0 .137856-.01647.203742 0 .07366.01842.13008.08346.203743.101871.07138.01784.574342 0 .611228 0 .03396 0 .0715-.01519.101871 0 .04295.02148.05528.09023.101871.101872.09883.02471.206785-.02471.305614 0 .04659.01165.05631.08669.101872.101871.305614.101871.101871-.05094.305614 0 .104175.02604.201438.07583.305614.101871.03294.0082.06966-.01074.101871 0 .632326.210776-.338572-.0082.509357.203743.09883.02471.206784-.02471.305613 0 .147327.03683.260159.166911.407486.203743.06589.01647.135828 0 .203742 0 .188471 0 .289143-.0082.509357.101871.03037.01519-.03037.08669 0 .101871.06074.03037.137856-.01647.203743 0 .07366.01842.130079.08346.203742.101872.06589.01647.140686-.02522.203743 0 .182585.07303.311586.256171.509356.305614.06589.01647.137857-.01647.203743 0 .491931.122982-.005.04841.305614.203742.09604.04802.200317.08081.305614.101871.544237.108848-.22927-.193579.509357.101872.0705.0282.135828.06791.203742.101871.203743.101871.407485.203743.611228.305614.06791.03396.130734.08101.203743.101871.166486.04757.345094.04712.509356.101872.04556.01519.06191.07523.101872.101871.179179.119453.302274.12091.509356.203743.173878-.03604.196106.148988.305614.203742.09605.04802.205913.06199.305614.101872.0705.0282.135829.06791.203739.101871.0679.03396.14057.05975.20375.101871.04.02664.0589.08039.10187.101872.096.04802.20591.06199.30561.101871.141.0564.26649.147343.40749.203742.1994.07976.41913.107698.61122.203743.10951.05475.18947.165026.30562.203743.0966.03221.20678-.02471.30561 0 .17741.04435.33588.145916.50936.203742.0322.01074.0715-.01519.10187 0 .44713.223563.17731.228888.7131.407486.0644.02148.13931-.02148.20374 0 1.36768.455893-.40471-.03964.7131.407485.0631.02522.14069-.02522.20374 0 .58121.232482.0644.157286.50936.305614.13282.04427.28226.03926.40749.101871.0859.04295.12138.154328.20374.203743.18416.110495.43253.08461.61123.203742.0282.01884-.0291.0844 0 .101872.1568.09408.34579.121963.50935.203742.043.02148.0589.08039.10187.101872.19209.09605.41183.123981.61123.203742.141.0564.26791.143922.40749.203743.16808.07203.3458.121963.50935.203743.10951.05475.19611.148988.30562.203742.39648.198241.25614.0079.7131.203743.11253.04823.1961.148988.30561.203743.0961.04802.20957.05385.30562.101871.1095.05475.19307.155513.30561.203742.12869.05515.27749.04987.40748.101872.0446.01784.0619.07523.10188.101871.71103.474025-.50085-.452039.50935.305614.0384.02881.0589.0804.10187.101871.096.04802.21971.03744.30562.101872.0607.04556.0387.161624.10187.203742.0565.03767.13931-.02148.20374 0 .13583.06791.27166.135829.40749.203743 0 .03396-.024.07786 0 .101871.024.02401.0689-.0082.10187 0 .10417.02604.21353.04662.30561.101872.0824.04941.12691.146115.20374.203742.0608.04556.14057.05975.20375.101872.14127.09418.25562.229683.40748.305613.0607.03037.143-.03037.20375 0 .0859.04295.12874.143744.20374.203743.0956.07648.20063.140751.30561.203743.0651.03907.14609.05246.20374.101871.18231.156264.3249.35564.50936.509357.0261.02174.0715-.01519.10187 0 .10951.05475.20063.14075.30562.203742.0651.03907.14445.05444.20374.101872.28552.228414.38103.445191.7131.611227.096.04802.22176.03479.30561.101872.0702.105349.17999.313262.30562.407485-.0193.5263.28113.119505.40748.203743.0799.05328.12383.150466.20374.203742.0283.01884.0779-.02401.10188 0 .0537.05369.0482.150052.10187.203743.0537.05369.16162.03869.20374.101871.0377.05651-.0377.147235 0 .203743.0421.06318.143.05631.20374.101871.4035.302626.0453.08211.30562.407485.09.112499.2257.185743.30561.305614.0596.08935.0466.213535.10187.305614.0494.08236.14612.126907.20374.203743.0456.06074.0628.138633.10188.203743.063.104986.14075.200627.20374.305614.0391.06511.0628.138632.10187.203742.063.104987.13028.207667.20374.305614.0288.03842.0804.05892.10187.101871.0152.03037-.0152.0715 0 .101872.0215.04295.0804.05892.10187.101871.0152.03037-.0152.0715 0 .101871.0215.04295.0804.05892.10188.101872.0152.03037-.0152.0715 0 .101871.0215.04295.0804.05892.10187.101871.0152.03037-.0152.0715 0 .101872.0142.02844.18952.175301.20374.203742.0152.03037-.0107.06966 0 .101872.024.07203.0779.131708.10187.203742.0107.03222-.0152.0715 0 .101872.0142.02844.18952.175301.20374.203742.0304.06074-.0304.142999 0 .203743.0215.04295.0804.05892.10187.101871.0304.06074-.048.15572 0 .203743.024.02401.0715-.01519.10188 0 .25297.126486-.0439.08695.10187.305614.0421.06318.15005.04818.20374.101871.048.04802-.048.15572 0 .203743.024.02401.0779-.02401.10187 0 .024.02401-.024.07786 0 .101871.024.02401.0867-.03037.10187 0 .0304.06074-.0215.139314 0 .203743.0152.04556.0804.05892.10187.101871.0152.03037-.024.07786 0 .101871.024.02401.0779-.02401.10188 0 .024.02401-.024.07786 0 .101872.024.02401.0779-.02401.10187 0 .048.04802-.048.15572 0 .203742.024.02401.0779-.02401.10187 0 .024.02401-.024.07786 0 .101872.024.02401.10187-.03396.10187 0 0 .149893-.33787-.235994 0 .101871" fill="none"/><g fill-rule="evenodd"><path d="m69.236132 69.203454c-.673517-.44299-1.483899-1.01686-1.800848-1.27528s-1.12733-.73787-1.800847-1.06545-1.710805-.86478-2.305085-1.19378c-.59428-.32901-1.793644-.88989-2.665254-1.24642-.87161-.35652-1.844068-.85482-2.161017-1.10733-.744017-.59275-4.883246-2.80922-6.354368-3.40263-.947538-.38221-1.413422-.47566-2.793937-.56045-2.921663-.179448-7.21271.21239-8.579383.78342-.245285.10248-.830204.45419-1.29982.78156s-1.254165.87031-1.743442 1.20654c-.489276.33623-1.850717 1.35198-3.025423 2.25721-2.349747 1.81072-4.410292 3.23779-4.997299 3.46097-.458028.17414-.494887.10159-1.313733-2.58566l-.548745-1.80085.0927-5.042371c.06324-3.440089.158723-5.385719.300476-6.122881.585162-3.043032 2.486492-7.026404 4.940435-10.350429 4.840574-6.556871 13.408769-11.800726 21.216609-12.98486 3.078147-.466831 12.366968-.426779 14.929238.06437 1.322302.253466 4.568132 1.291403 6.367018 2.036015 5.943865 2.460343 11.027336 6.491102 14.789013 11.726426 1.832366 2.550202 4.060512 7.723746 4.380253 10.170537.343985 2.6323.288085 11.514843-.07475 11.877673-.08531.0853-.670808.0345-1.5706-.13641-4.708423-.89413-10.390391-.89892-13.831542-.0117-2.53451.65349-3.917019 1.15361-4.574572 1.65483-.874368.66649-1.4509.93732-1.686004.79201-.291514-.18016-.719424.10119-.720532.47376-.000576.1755-.113975.48735-.252119.69301-.391023.58213-1.425978 1.71514-1.565942 1.7143-.06925-.00043-.676964-.3632-1.350481-.80618z" fill="#ff0" opacity=".58292" stroke-width=".144068"/><path d="m69.812403 69.391594c-.435805-.26589-1.294951-.84449-1.909211-1.28577-1.05542-.7582-4.464543-2.56492-7.16706-3.79829-.673517-.30738-1.905297-.96876-2.737288-1.46973-1.866322-1.12376-5.231236-2.84138-6.320191-3.22613-1.578475-.557707-6.826507-.500051-9.766878.1073-1.464412.30248-2.421767.90744-7.828186 4.94667-3.475579 2.59666-4.533806 3.24076-4.757323 2.89559-.07697-.11885-.383288-.96165-.680715-1.87288l-.540775-1.65678.02435-4.75423c.02954-5.768588.145066-7.026939.835261-9.098108 2.456821-7.372544 8.430722-13.997481 16.212426-17.979256 2.866573-1.46678 6.027144-2.555642 8.860169-3.052455 1.712488-.30031 10.435743-.442494 13.15966-.214494 2.238256.187348 3.380172.458564 6.429505 1.527066 6.707069 2.350193 12.131063 6.286275 16.300002 11.828579 1.684359 2.239234 3.841127 6.765471 4.594071 9.641207.407949 1.558086.550174 12.319691.16787 12.702001-.05846.0584-1.157473-.0479-2.442256-.23626-1.747729-.25629-3.170388-.35781-5.64953-.40316-3.892582-.0712-5.725977.12716-8.379977.90664-2.18542.64185-2.665303.83586-3.73863 1.51145-.534874.33668-1.101201.57277-1.440678.60059-.511852.042-.575094.0948-.744636.62213-.101903.31695-.523302.951-.93644 1.40901l-.751164.83275-.792373-.48344z" fill="#ff0" opacity=".58292" stroke-width=".144068"/><g fill="#f00" stroke-width=".203743"><path d="m24.704629 69.898736c-1.71628-4.362709-2.457112-8.405843-2.463928-13.447014-.0066-4.90814.557416-8.334669 2.083944-12.659648 4.393688-12.448255 15.695763-22.07361 29.012096-24.708005 11.381791-2.251681 22.592413.153809 31.942324 6.853942 2.082748 1.492495 5.695641 4.939955 7.408145 7.068931 5.584092 6.942112 8.56334 16.025975 8.15697 24.870978-.13982 3.043424-.873815 7.674236-1.333735 8.41461-.178489.28733-.373996.233136-3.082137-.85434l-1.324328-.531795-.0065-6.16289-.0065-6.162893-.659421-1.935555c-.889659-2.611361-3.053503-6.91302-4.355733-8.659062-1.564631-2.097875-5.289437-5.711281-7.502834-7.278442-3.226379-2.284386-7.378892-4.200293-11.816319-5.451871-3.760199-1.060566-14.455118-1.015918-18.785967.07842-4.949363 1.250633-9.616361 3.723991-14.17856 7.51418-4.277841 3.553949-8.044639 9.341485-9.443698 14.509869-.315877 1.166908-.407093 2.426322-.501722 6.92725l-.115655 5.501051.708752 2.062175c.692278 2.014242.699745 2.069888.321239 2.393976-.213133.18249-.523993.331801-.690799.331801-.166807 0-.303285.08551-.303285.190012 0 .104508-.20629.24833-.458421.319603-.772432.218359-1.871613.798111-2.124078 1.120326-.203064.259164-.276003.212717-.479913-.305614z" opacity=".58292"/><path d="m24.322296 68.312988c-1.518444-4.588318-1.951676-7.817266-1.792085-13.356708.130772-4.539105.472934-6.555136 1.778075-10.476483 4.187921-12.582767 15.316893-22.332375 28.664929-25.112095 11.579804-2.411486 23.504467.160181 32.630919 7.037169 2.157594 1.625795 5.947579 5.386154 7.50902 7.450321 5.659429 7.481551 8.318056 16.916352 7.380456 26.191375-.23738 2.348191-.900709 5.857299-1.151995 6.094191-.08953.0844-1.056703-.178548-2.149273-.584332l-1.98649-.737789v-6.287402-6.287401l-.929336-2.378394c-1.126097-2.881956-2.911794-6.329701-4.10466-7.9251-1.096245-1.466174-4.644894-5.066086-6.27372-6.364348-2.870622-2.28804-6.430829-4.188827-10.490211-5.600702-3.851474-1.339562-5.470262-1.55451-11.717736-1.555913-7.536273-.0017-10.906836.649927-15.891925 3.072336-8.444584 4.103483-14.546492 10.742972-17.228058 18.745859-.638099 1.904347-.651901 2.027795-.856079 7.656627l-.207524 5.721071.639575 1.919781c.351767 1.05588.639576 2.071032.639576 2.255896 0 .184862-.252132.438813-.560293.564334-.592389.241293-1.302184.627617-2.532227 1.37823l-.749479.457355z" opacity=".58292"/></g></g><path d="m136.25542 136.64619c-.50936-48.898237-.40749-48.898237-.40749-48.898237l.10187.101871.50936-.916842c.77748-.777478-.94631.916842-.50936.916842.95985 0 .91685-.803047.91685-1.324327 0-.06791-.048-.15572 0-.203743.048-.04802.15572.04802.20374 0 .048-.04802-.048-.15572 0-.203742.048-.04802.15572.04802.20374 0 .048-.04802-.048-.15572 0-.203743.096-.09605.31144.09605.40749 0 .42155-.421551-.64419.01648.20374-.407485.11053-.05526.75922.05575.81497 0 .048-.04802-.048-.15572 0-.203743.0631-.06309.95563.06309 1.01871 0 .048-.04802-.048-.15572 0-.203742.007-.0066.56182 0 .61123 0h1.22246c.0679 0 .15572.04802.20374 0 .048-.04802-.048-.155721 0-.203743.096-.09604.31144.09605.40749 0 .048-.04802-.048-.15572 0-.203743.048-.04802.13582 0 .20374 0 .0961 0 1.00948.0092 1.01871 0 .048-.04802-.048-.15572 0-.203742.10187-.101872.50936.101871.61123 0 .048-.04802-.048-.15572 0-.203743.048-.04802.143.03037.20374 0 .0859-.04295.11784-.16079.20374-.203743.12149-.06074.31144.09605.40749 0 .048-.04802-.048-.15572 0-.203742.049-.04903.76594.04903.81497 0 .048-.04802-.048-.15572 0-.203743.049-.04903.76594.04903.81497 0 .42155-.421551-.64419.01648.20374-.407485.12149-.06074.286.06074.40749 0 .0859-.04295.11784-.16079.20374-.203743.062-.031.51947 0 .61123 0h1.4262.61123c.0679 0 .27165 0 .20374 0-.13583 0-.54332 0-.40749 0h.61123.20374c.0679 0 .15572.04802.20375 0 .048-.04802-.048-.15572 0-.203742.096-.09605.31144.09605.40748 0 .048-.04802-.048-.15572 0-.203743.096-.09604.31144.09605.40749 0 .048-.04802-.048-.15572 0-.203743.096-.09605.28599.06074.40748 0 .17181-.08591.23568-.32158.40749-.407485.0607-.03037.14299.03037.20374 0 .0859-.04295.11784-.16079.20374-.203743.0607-.03037.15572.04802.20374 0 .048-.04802-.048-.15572 0-.203742.096-.09605.286.06074.40749 0 .84793-.423964-.21781.01407.20374-.407485.096-.09605.31144.09605.40749 0 .048-.04802-.048-.155721 0-.203743.048-.04802.15572.04802.20374 0 .048-.04802-.048-.15572 0-.203743.048-.04802.15572.04802.20374 0 .0687-.06867-.0687-.338818 0-.407485.0961-.09604.31144.09605.40749 0 .048-.04802-.048-.15572 0-.203743.048-.04802.15572.04802.20374 0 .096-.09605-.096-.31144 0-.407485.096-.09605.31144.09605.40749 0 .048-.04802-.048-.15572 0-.203743.048-.04802.14299.03037.20374 0 .0859-.04295.11784-.160789.20374-.203742.0607-.03037.15572.04802.20374 0 .048-.04802-.048-.15572 0-.203743.048-.04802.15572.04802.20375 0 .048-.04802-.048-.15572 0-.203742.048-.04802.15572.04802.20374 0 .048-.04802-.048-.15572 0-.203743.048-.04802.15572.04802.20374 0 .048-.04802-.048-.15572 0-.203743.048-.04802.15572.04802.20374 0 .048-.04802-.048-.15572 0-.203742.048-.04802.15572.04802.20375 0 .048-.04802-.048-.15572 0-.203743.048-.04802.15572.04802.20374 0 .048-.04802-.048-.15572 0-.203743.048-.04802.143.03037.20374 0 .17181-.08591.23568-.321579.40749-.407485.0607-.03037.15572.04802.20374 0 .048-.04802-.048-.15572 0-.203742.048-.04802.15572.04802.20374 0 .096-.09605-.096-.311441 0-.407486.048-.04802.15572.04802.20375 0 .048-.04802-.048-.15572 0-.203742.096-.09605.31144.09605.40748 0 .096-.09605-.096-.31144 0-.407486.048-.04802.15572.04802.20374 0 .048-.04802-.0304-.142998 0-.203742.043-.08591.16079-.117837.20375-.203743.0607-.121489-.0961-.31144 0-.407485.048-.04802.15572.04802.20374 0 .048-.04802-.0304-.142998 0-.203743.043-.0859.16079-.117837.20374-.203742.0553-.110528-.0557-.759222 0-.814971.048-.04802.15572.04802.20374 0 .0316-.03162-.0264-.531947 0-.611228.048-.144068.15572-.263417.20375-.407485.0215-.06443-.0304-.142998 0-.203743.043-.0859.16079-.117837.20374-.203742.0268-.05357 0-.70843 0-.814971 0-.543314 0-1.086627 0-1.629941 0-.07482.008-.806772 0-.814971-.048-.04802-.15572.04802-.20374 0-.048-.04802 0-.135828 0-.203742 0-.407485 0-.814971 0-1.222456 0-.06791 0-.135828 0-.203743 0-.06791.048-.15572 0-.203742-.048-.04802-.15572.04802-.20375 0-.10187-.101872.10188-.509357 0-.611228-.048-.04802-.15572.04802-.20374 0-.048-.04802.048-.15572 0-.203743-.048-.04802-.15572.04802-.20374 0-.10187-.101871.10187-.509356 0-.611228-.048-.04802-.15572.04802-.20374 0-.0417-.04165.0404-.530445 0-.611228-.043-.08591-.16079-.117837-.20375-.203742-.0304-.06074.048-.15572 0-.203743-.54331 0 .0679.06791-.20374-.203742-.048-.04802-.15572.04802-.20374 0-.096-.09605.0607-.285997 0-.407486-.0429-.0859-.16079-.117837-.20374-.203742-.0607-.121489.096-.31144 0-.407486-.096-.09605-.31144.09605-.40749 0-.048-.04802.048-.15572 0-.203742-.048-.04802-.143.03037-.20374 0-.84793-.423964.21781.01407-.20374-.407485-.048-.04802-.15572.04802-.20375 0-.048-.04802.048-.155721 0-.203743-.048-.04802-.15572.04802-.20374 0-.048-.04802.048-.15572 0-.203743-.0961-.09604-.31144.09605-.40749 0-.048-.04802.048-.15572 0-.203742-.048-.04802-.15572.04802-.20374 0-.048-.04802.048-.15572 0-.203743-.096-.09605-.31144.09604-.40748 0-.048-.04802.048-.15572 0-.203743-.10187-.101871-.50936.101872-.61123 0-.048-.04802.048-.15572 0-.203742-.096-.09605-.31144.09604-.40749 0-.048-.04802.048-.15572 0-.203743-.048-.04802-.15572.04802-.20374 0-.048-.04802.048-.15572 0-.203743-.049-.04903-.76594.04903-.81497 0-.048-.04802.048-.15572 0-.203742-.049-.04903-.76594.04903-.81497 0-.048-.04802-.0679-.203743 0-.203743s.0679.203743 0 .203743c-.096 0-.11784-.16079-.20374-.203743-.12149-.06074-.31144.09604-.40749 0-.048-.04802 0-.135828 0-.203742 0-.339571 0-.679143 0-1.018714 0-1.154541 0-2.309083 0-3.463624 0-.543314 0-1.086628 0-1.629941 0-.06792 0-.135829 0-.203743 0-.06791.048-.15572 0-.203743-.048-.04802-.15572.04802-.20374 0-.048-.04802.0304-.142998 0-.203742-.0429-.08591-.16079-.117837-.20374-.203743-.0704-.140732.0715-.947195 0-1.018713-.048-.04802-.15572.04802-.20375 0-.0631-.06309.0631-.955625 0-1.018713-.048-.04802-.15572.04802-.20374 0-.048-.04802 0-.135829 0-.203743 0-.09606.009-1.009479 0-1.018713-.048-.04802-.15572.04802-.20374 0-.0416-.04165.0404-.530446 0-.611228-.0429-.08591-.16079-.117837-.20374-.203743-.0553-.110527.0557-.759222 0-.81497-.048-.04802-.15572.04802-.20375 0-.10187-.101871.10187-.509357 0-.611228-.048-.04802-.15572.04802-.20374 0-.048-.04802 0-.135828 0-.203743-.0679 0-.15572.04802-.20374 0-.096-.09605.096-.31144 0-.407485-.048-.04802-.15572.04802-.20374 0-.048-.04802.048-.15572 0-.203743-.048-.04802-.15572.04802-.20375 0-.096-.09604.096-.31144 0-.407485-.096-.09604-.31144.09605-.40748 0-.048-.04802.0304-.142998 0-.203742-.043-.08591-.16079-.117838-.20374-.203743-.0304-.06074.048-.15572 0-.203743-.096-.09605-.31144.09605-.40749 0-.048-.04802.048-.15572 0-.203742-.048-.04802-.15572.04802-.20374 0-.048-.04802.048-.15572 0-.203743-.048-.04802-.15572.04802-.20375 0-.048-.04802.0304-.142998 0-.203743-.42396-.847928.0141.217809-.40748-.203742-.048-.04802.048-.15572 0-.203743-.048-.04802-.15572.04802-.20374 0-.048-.04802.048-.15572 0-.203742-.048-.04802-.15572.04802-.20375 0-.048-.04802.048-.15572 0-.203743-.096-.09605-.31144.09604-.40748 0-.048-.04802.048-.15572 0-.203743-.048-.04802-.15572.04802-.20374 0-.048-.04802.048-.15572 0-.203742-.096-.09605-.286.06074-.40749 0-.17181-.08591-.23567-.32158-.40748-.407486-.12149-.06074-.31144.09605-.40749 0-.048-.04802.048-.15572 0-.203742-.096-.09605-.31144.09604-.40748 0-.048-.04802.048-.15572 0-.203743-.048-.04802-.143.03037-.20375 0-.0859-.04295-.11783-.16079-.20374-.203743-.0808-.04039-.56958.04165-.61123 0-.048-.04802.048-.15572 0-.203742-.0631-.06309-.95562.06309-1.01871 0-.048-.04802.048-.15572 0-.203743-.007-.0066-.56182 0-.61123 0-.0961 0-1.00948.0092-1.01871 0-.048-.04802.048-.15572 0-.203742-.0631-.06309-.95563.06309-1.01872 0-.048-.04802.048-.15572 0-.203743-.048-.04802-.13582 0-.20374 0-.54331 0-1.08663 0-1.62994 0-.0679 0-.13583 0-.20374 0-.0679 0-.15572-.04802-.20374 0-.048.04802.048.15572 0 .203743-.096.09605-.31144-.09605-.40749 0-.27166.271656.33957.203742-.20374.203742-.47782 0 .096-.04802-.40749.203743-.0607.03037-.15572-.04802-.20374 0-.048.04802.048.15572 0 .203742-.048.04802-.15572-.04802-.20374 0-.048.04802.048.155721 0 .203743-.096.09604-.286-.06074-.40749 0-.0859.04295-.11784.16079-.20374.203743-.0607.03037-.15572-.04802-.20374 0-.048.04802.048.15572 0 .203742-.0204.02038-.59086.02038-.61123 0-.0961-.09605.096-.31144 0-.407485-.048-.04802-.15572.04802-.20374 0-.048-.04802.048-.15572 0-.203743-.048-.04802-.15572.04802-.20375 0-.096-.09604.096-.31144 0-.407485-.048-.04802-.15572.04802-.20374 0-.10187-.101871.10187-.509356 0-.611228-.048-.04802-.15572.04802-.20374 0-.096-.09604.0607-.285996 0-.407485-.0429-.0859-.16079-.117837-.20374-.203743-.0304-.06074.048-.15572 0-.203742-.048-.04802-.15572.04802-.20375 0-.096-.09604.096-.31144 0-.407485-.048-.04802-.15572.04802-.20374 0-.096-.09605.0607-.285997 0-.407486-.043-.0859-.16079-.117837-.20374-.203742-.0608-.121489.096-.31144 0-.407486-.048-.04802-.15572.04802-.20374 0-.096-.09604.096-.31144 0-.407485-.048-.04802-.13583 0-.20375 0 0-.06791.048-.15572 0-.203743-.048-.04802-.15572.04802-.20374 0-.10187-.101871.10187-.509356 0-.611227-.048-.04802-.143.03037-.20374 0-.45049-.225244-.0632-.126452-.20375-.407486-.0859-.171811-.32158-.235674-.40748-.407485-.0304-.06074.0304-.142998 0-.203743-.67573-.675729.096.192091-.20374-.407485-.043-.0859-.16079-.117837-.20375-.203742-.0304-.06075.048-.155721 0-.203743-.048-.04802-.15572.04802-.20374 0-.048-.04802.048-.15572 0-.203743-.048-.04802-.15572.04802-.20374 0-.096-.09605.0607-.285996 0-.407485-.0429-.08591-.16079-.117837-.20374-.203743-.0304-.06074.048-.15572 0-.203742-.048-.04802-.15572.04802-.20375 0-.096-.09605.096-.31144 0-.407486-.096-.09605-.31144.09605-.40748 0-.048-.04802.048-.15572 0-.203742-.048-.04802-.13583 0-.20374 0 0-.06791.048-.15572 0-.203743-.096-.09605-.31144.09604-.40749 0-.048-.04802.048-.15572 0-.203742-.096-.09605-.31144.09604-.40748 0-.048-.04802.048-.15572 0-.203743-.10188-.101871-.50936.101871-.61123 0-.048-.04802.048-.15572 0-.203743-.048-.04802-.13583 0-.20375 0-.0961 0-1.00947.0092-1.01871 0-.048-.04802.048-.15572 0-.203742-.048-.04802-.15572.04802-.20374 0-.048-.04802.048-.15572 0-.203743-.048-.04802-.13583 0-.20374 0-.40749 0-.81497 0-1.22246 0-.0679 0-.15572.04802-.20374 0-.048-.04802.048-.15572 0-.203743-.048-.04802-.13583 0-.20374 0-.0961 0-1.00948.0092-1.01872 0-.048-.04802.048-.15572 0-.203742-.10187-.101872-.50935.101871-.61123 0-.048-.04802.048-.15572 0-.203743-.048-.04802-.13582 0-.20374 0-.0679 0-.13583 0-.20374 0-.88289 0-1.76577 0-2.64866 0-.40748 0-.81497 0-1.22245 0-.0679 0-.13583 0-.20374 0-.0679 0-.143-.03037-.20375 0-.0859.04295-.11783.16079-.20374.203743-.0607.03037-.15572-.04802-.20374 0-.048.04802.048.15572 0 .203742-.048.04802-.15572-.04802-.20374 0-.048.04802.048.15572 0 .203743-.0961.09604-.31144-.09605-.40749 0-.048.04802.048.15572 0 .203743-.048.04802-.15572-.04802-.20374 0-.42155.42155.64418-.01648-.20374.407485-.0607.03037-.15573-.04802-.20375 0-.048.04802.048.15572 0 .203743-.048.04802-.15572-.04802-.20374 0-.0961.09604.096.31144 0 .407485-.048.04802-.15572-.04802-.20374 0-.048.04802.048.15572 0 .203742-.048.04802-.15572-.04802-.20375 0-.048.04802.048.15572 0 .203743-.048.04802-.15572-.04802-.20374 0-.048.04802.048.15572 0 .203743-.048.04802-.15572-.04802-.20374 0-.10187.101871.10187.509356 0 .611228-.048.04802-.15572-.04802-.20374 0-.048.04802.0304.142998 0 .203742-.043.08591-.16079.117837-.20375.203743-.0607.121489.096.31144 0 .407485-.048.04802-.15572-.04802-.20374 0-.096.09605.0961.31144 0 .407485-.048.04802-.15572-.04802-.20374 0-.10187.101872.10187.509357 0 .611228-.048.04802-.15572-.04802-.20374 0-.0961.09605.096.31144 0 .407486-.048.04802-.15572-.04802-.20375 0-.20098.200987.41749.407485-.20374.407485-.0679 0-.15572.04802-.20374 0-.048-.04802.048-.15572 0-.203743-.048-.04802-.15572.04802-.20374 0-.0961-.09605.096-.31144 0-.407485-.048-.04802-.15572.04802-.20375 0-.10187-.101871.10187-.509357 0-.611228-.048-.04802-.15572.04802-.20374 0-.048-.04802.0304-.142998 0-.203743-.13554-.271071-.27195-.136413-.40749-.407485-.0607-.121488.0961-.31144 0-.407485-.048-.04802-.15572.04802-.20374 0-.096-.09604.0607-.285997 0-.407485-.043-.08591-.16079-.117838-.20374-.203743-.0607-.121489.096-.31144 0-.407485-.048-.04802-.15572.04802-.20374 0-.0961-.09605.096-.31144 0-.407486-.048-.04802-.15572.04802-.20375 0-.048-.04802.048-.15572 0-.203742-.048-.04802-.15572.04802-.20374 0-.048-.04802.048-.15572 0-.203743-.048-.04802-.143.03037-.20374 0-.0859-.04295-.11784-.16079-.20374-.203742-.0607-.03037-.15572.04802-.20375 0-.096-.09605.096-.31144 0-.407486-.096-.09605-.31144.09605-.40748 0-.048-.04802.048-.15572 0-.203742-.10187-.101872-.50936.101871-.61123 0-.048-.04802.048-.15572 0-.203743-.048-.04802-.15572.04802-.20374 0-.048-.04802.048-.15572 0-.203743-.0416-.04165-.53045.04039-.61123 0-.0859-.04295-.11263-.17337-.20374-.203742-.00093-.000308-.61104.000194-.61123 0-.048-.04802.048-.15572 0-.203743-.0961-.09604-.286.06074-.40749 0-.0859-.04295-.11783-.16079-.20374-.203742-.16299-.0815-.44823.0815-.61123 0-.0859-.04295-.11783-.16079-.20374-.203743-.16299-.0815-.44823.0815-.61123 0-.0607-.03037.048-.15572 0-.203743-.049-.04903-.76594.04903-.81497 0-.048-.04802.048-.15572 0-.203742-.009-.0092-.92265 0-1.01871 0-.0679 0-.15572.04802-.20374 0-.048-.04802.048-.15572 0-.203743-.008-.0082-.74015 0-.81497 0-.61123 0-1.22246 0-1.83369 0-.10654 0-.7614-.02679-.81497 0-.0859.04295-.11783.16079-.20374.203743-.0808.04039-.56958-.04165-.61123 0-.048.04802.048.15572 0 .203742-.049.04903-.76594-.04903-.81497 0-.048.04802.048.15572 0 .203743-.096.09605-.31144-.09604-.40748 0-.048.04802.048.15572 0 .203743-.096.09605-.31144-.09605-.40749 0-.048.04802.048.15572 0 .203742-.096.09605-.31144-.09604-.40748 0-.048.04802.048.15572 0 .203743-.048.04802-.15572-.04802-.20375 0-.421554.421551.64419-.01648-.203744.407485-.54331 0 .0679-.06791-.20374.203743-.048.04802-.15572-.04802-.20375 0-.42155.42155.644194-.01648-.20374.407485-.0607.03037-.143-.03037-.20374 0-.84793.423964.21781-.01407-.20375.407485-.048.04802-.13583 0-.20374 0 0 .06791.0304.142999 0 .203743-.42396.847928.0141-.217808-.40749.203742-.048.04802.048.15572 0 .203743-.048.04802-.15572-.04802-.20374 0-.21476.214764-.19272.600207-.40748.814971-.048.04802-.15572-.04802-.20375 0-.048.04802 0 .135828 0 .203742-.0679 0-.14299-.03037-.20374 0-.41206.206033-.0653.47282-.20374.611228-.048.04802-.15572-.04802-.20374 0-.048.04802.048.15572 0 .203743-.048.04802-.15572-.04802-.20375 0-.048.04802.048.15572 0 .203742-.048.04802-.15572-.04802-.20374 0-.096.09605.0961.31144 0 .407486-.048.04802-.15572-.04802-.20374 0-.048.04802.0304.142998 0 .203742-.043.08591-.16079.117838-.20374.203743-.0404.08078.0416.569575 0 .611228-.048.04802-.15572-.04802-.20375 0-.38016.380167-.0947.596866-.20374.81497-.0429.08591-.16079.117838-.20374.203743-.0651.130196.0547.650978 0 .814971-.0679.135828-.13583.271656-.20374.407485 0 .135828.043.278627 0 .407485-.0304.09112-.16079.117837-.20375.203743-.0304.06074 0 .135828 0 .203742v.203743 1.018713.203743c0 .06791.048.15572 0 .203742-.048.04802-.15572-.04802-.20374 0-.048.04802 0 .135829 0 .203743 0 .09606.009 1.009479 0 1.018713-.009.0092-.92265 0-1.01871 0-.54332 0-1.08663 0-1.62994 0-.0679 0-.15572-.04802-.20375 0-.048.04802.048.15572 0 .203743-.048.04802-.13583 0-.20374 0-.0961 0-1.00948-.0092-1.01871 0-.048.04802.048.15572 0 .203742-.10187.101872-.50936-.101871-.61123 0-.048.04802.048.15572 0 .203743-.048.04802-.15572-.04802-.20374 0-.048.04802.048.15572 0 .203743-.10187.101871-.50936-.101872-.61123 0-.048.04802.048.15572 0 .203742-.048.04802-.13583 0-.20374 0-.13583 0-.286-.06074-.40749 0-.0607.03037.048.15572 0 .203743-.048.04802-.15572-.04802-.20374 0-.048.04802.048.15572 0 .203743-.048.04802-.15572-.04802-.20374 0-.048.04802.048.15572 0 .203742-.0732.07319-.68316-.06591-.81497 0-.12149.06075.096.31144 0 .407485-.096.09605-.31144-.09604-.40749 0-.048.04802.048.155721 0 .203743-.048.04802-.15572-.04802-.20374 0-.048.04802.048.15572 0 .203743-.048.04802-.143-.03037-.20375 0-.17181.08591-.23567.32158-.40748.407485-.0607.03037-.15572-.04802-.20374 0-.048.04802.0304.142998 0 .203743-.043.0859-.16079.117837-.20375.203742-.0304.06074.048.15572 0 .203743-.048.04802-.15572-.04802-.20374 0-.10738.107382-.0964.300103-.20374.407485-.048.04802-.15572-.04802-.20374 0-.048.04802.048.15572 0 .203743-.048.04802-.15572-.04802-.20375 0-.0961.09604.096.31144 0 .407485-.048.04802-.15572-.04802-.20374 0-.048.04802.048.15572 0 .203743-.048.04802-.15572-.04802-.20374 0-.10187.101871.10187.509356 0 .611228-.048.04802-.15572-.04802-.20374 0-.10188.101871.10187.509356 0 .611228-.048.04802-.15572-.04802-.20375 0-.0961.09605.0961.31144 0 .407485-.048.04802-.15572-.04802-.20374 0-.048.04802.048.15572 0 .203742-.048.04802-.15572-.04802-.20374 0-.0631.06309.0631.955625 0 1.018714-.048.04802-.15572-.04802-.20374 0 0 .543313.0679-.06791-.20375.203742-.096.09605.0961.31144 0 .407485-.048.04802-.13583 0-.20374 0 0 .135829.0607.285997 0 .407486-.0304.06074-.15572-.04802-.20374 0-.0417.04165.0404.530445 0 .611228-.12225.244491-.48899.366736-.61123.611228-.0404.08078.0417.569575 0 .611227-.42155.421551.0165-.644185-.40749.203743-.0304.06074.0304.142998 0 .203743-.043.08591-.16079.117837-.20374.203742-.0607.121489.096.31144 0 .407486-.048.04802-.15572-.04802-.20374 0 0 .543313.0679-.06791-.20374.203742-.049.04903.049.765944 0 .814971-.048.04802-.15572-.04802-.20375 0-.048.04802 0 .135828 0 .203742v.203743" fill="none"/></g><g transform="scale(1.1529624 .86733097)"><path d="m16.482976 108.92089 4.191122-13.299101h1.55126l4.463273 13.299101h-1.651048l-1.270037-4.02783h-4.55399l-1.197464 4.02783zm3.147878-5.46116h3.692179l-1.133962-3.683106c-.350777-1.130927-.607808-2.050191-.771094-2.757794-.139104.85275-.335657 1.69944-.58966 2.540074z"/><path d="m27.750018 108.92089v-13.299101h1.442399v4.871591 6.85811h5.370443v1.5694z"/><path d="m44.069993 104.25804 1.451471.44451c-.320543 1.49381-.881476 2.60812-1.682799 3.34292-.801341.73481-1.776547 1.10221-2.925621 1.10221-1.009986 0-1.873308-.24644-2.589968-.73934-.716666-.49289-1.303302-1.28364-1.759909-2.37225-.456609-1.0886-.684913-2.37375-.684912-3.85547-.000001-1.46356.228303-2.70184.684912-3.714855.456607-1.012994 1.074994-1.77804 1.855162-2.295138.780161-.517074 1.651043-.775617 2.612647-.77563 1.05231.000013 1.956454.328106 2.712436.984278.755965.656198 1.285147 1.619309 1.587547 2.889335l-1.415185.408226c-.483831-1.850614-1.454502-2.775926-2.912013-2.775938-.72574.000012-1.354711.185981-1.886912.557909-.532209.37195-.957067.951026-1.274573 1.737229-.317511.786222-.476266 1.781084-.476264 2.984584-.000002 1.82039.320531 3.18568.9616 4.09587.641062.9102 1.4938 1.36529 2.558217 1.36529.786207 0 1.465071-.27971 2.036595-.83913.571508-.55942.954031-1.40762 1.147569-2.54461z"/><path d="m46.129268 108.92089 4.191122-13.299101h1.55126l4.463272 13.299101h-1.651048l-1.270037-4.02783h-4.553989l-1.197464 4.02783zm3.147877-5.46116h3.692179l-1.133961-3.683106c-.350778-1.130927-.607809-2.050191-.771094-2.757794-.139104.85275-.335657 1.69944-.58966 2.540074z"/><path d="m57.39631 108.92089v-13.299101h1.442399v11.729701h5.370442v1.5694z"/><path d="m65.941844 108.92089v-13.299101h3.764753c.931354.000013 1.638946.08166 2.122776.244936.635011.211686 1.18536.598744 1.651048 1.161177.465671.562456.828538 1.271559 1.088603 2.127311.260045.855777.390073 1.870287.390083 3.043557-.00001 1.5059-.220755 2.7835-.662234 3.83279-.441498 1.04929-1.008478 1.79317-1.700942 2.23163-.69248.43847-1.598136.6577-2.716972.6577zm1.442399-1.5694h2.322354c.937402 0 1.648017-.15271 2.131848-.45812.483816-.30541.855755-.7968 1.115818-1.47415.344716-.90112.517078-1.98065.517086-3.2386-.000008-1.34865-.182954-2.408522-.548837-3.179625-.365899-.771083-.836115-1.286658-1.410648-1.546724-.387066-.175374-1.000916-.263067-1.841554-.263079h-2.286067z"/><path d="m77.245174 108.92089v-13.299101h1.442399v13.299101z"/><path d="m80.021112 108.92089 4.191122-13.299101h1.551259l4.463273 13.299101h-1.651048l-1.270037-4.02783h-4.55399l-1.197463 4.02783zm3.147877-5.46116h3.692179l-1.133961-3.683106c-.350778-1.130927-.607809-2.050191-.771094-2.757794-.139104.85275-.335658 1.69944-.58966 2.540074z"/></g><text font-family="Arial Narrow" font-size="9.096806" transform="scale(1.0611954 .94233353)" x="52.868862" y="114.35729"><tspan x="52.868862" y="114.35729">DE</tspan></text><g transform="scale(1.1828839 .8453915)"><path d="m32.317783 143.10815.688454-.0734c.03672.37024.120096.65863.250139.86516.13004.20654.315923.37253.557648.49798.241722.12546.514044.18818.816967.18818.434488 0 .77183-.10632 1.012028-.31898.24019-.21266.360287-.4888.360291-.82844-.000004-.19889-.04361-.37253-.130806-.52093-.08721-.1484-.218779-.27003-.394714-.36488-.175942-.0948-.556122-.22796-1.14054-.39931-.520168-.15298-.890403-.3075-1.110707-.46356-.220307-.15604-.391655-.35416-.514046-.59436-.122393-.24019-.183589-.51175-.183588-.81467-.000001-.54464.175937-.98984.527815-1.33561.351875-.34575.826144-.51863 1.422806-.51863.410011 0 .768772.0811 1.076285.24325.307506.16218.54617.39472.715993.69764.169814.30292.260843.65939.273087 1.0694l-.702224.0643c-.03672-.43755-.167528-.76188-.392419-.97302-.224899-.21112-.540823-.31668-.947773-.31668-.413075 0-.728234.0926-.945478.27767-.217247.18513-.32587.42455-.325868.71829-.000002.27233.07955.48345.238664.63338.159108.14993.517104.30139 1.073989.45438.544641.14993.927116.27997 1.147425.39012.336574.17136.590537.39702.76189.67698.171344.27998.257018.61426.257023 1.00285-.000005.38554-.09027.73665-.270792 1.05334-.180533.31669-.426081.55765-.736647.72288-.310573.16523-.684633.24784-1.122181.24784-.682337 0-1.226216-.20501-1.631638-.61502-.405424-.41001-.615785-.96537-.631083-1.66606z"/><path d="m37.100248 145.2699 2.120441-6.7285h.784838l2.258132 6.7285h-.835325l-.642558-2.03783h-2.304029l-.60584 2.03783zm1.592625-2.763h1.868008l-.573713-1.86342c-.177471-.57218-.307512-1.03726-.390124-1.39527-.07038.43144-.169821.85981-.29833 1.28512z"/><path d="m42.823602 145.2699v-6.7285h.74812l2.90069 5.28274v-5.28274h.697634v6.7285h-.748121l-2.8961-5.28733v5.28733z"/><path d="m54.472256 142.91079.734352.2249c-.162175.75577-.445971 1.31954-.851389 1.6913-.405428.37177-.89882.55765-1.480178.55765-.510989 0-.947775-.12469-1.310359-.37406-.362587-.24937-.659387-.64944-.890401-1.20021-.231015-.55076-.346523-1.20096-.346522-1.95062-.000001-.74047.115507-1.36696.346522-1.87948.231014-.51251.543878-.89957.938593-1.16119.394712-.26161.835323-.39242 1.321833-.39242.532402 0 .989841.166 1.37232.49798.38247.33199.650202.81927.803197 1.46182l-.715993.20653c-.244788-.93629-.735885-1.40444-1.473293-1.40444-.367178 0-.685397.0941-.954657.28226-.269264.18819-.484215.48116-.644853.87893-.16064.39778-.24096.90112-.240959 1.51001-.000001.921.162168 1.61175.486508 2.07225.324337.4605.755768.69075 1.294295.69075.397771 0 .741233-.14151 1.030387-.42455.289147-.28303.482679-.71216.580597-1.28741z"/><path d="m55.514117 145.2699 2.120441-6.7285h.784838l2.258132 6.7285h-.835326l-.642557-2.03783h-2.304029l-.60584 2.03783zm1.592625-2.763h1.868007l-.573712-1.86342c-.177471-.57218-.307512-1.03726-.390124-1.39527-.07038.43144-.169821.85981-.298331 1.28512z"/><path d="m61.25583 145.2699v-6.7285h2.446309c.510983.00001.888103.0627 1.131361.18818.24325.12546.442901.33429.598956.62649.156045.29222.234069.63109.234074 1.01662-.000005.50793-.132341.91947-.397009 1.23463-.264676.31516-.649446.51558-1.154309.60125.205003.12239.361053.24632.46815.37176.217241.25703.408478.54312.573712.85828l.963836 1.83129h-.917939l-.734352-1.39986c-.284565-.5477-.499515-.91641-.644853-1.10612-.145343-.1897-.286094-.31745-.422252-.38324-.136163-.0658-.326636-.0987-.571417-.0987h-.844505v2.9879zm.729762-3.75897h1.569677c.342694.00001.602777-.0413.780249-.12392.177464-.0826.318215-.21265.422252-.39012.104029-.17747.156046-.384.15605-.61961-.000004-.33963-.09945-.6066-.298331-.8009-.19889-.19429-.494161-.29144-.885811-.29145h-1.744086z"/><path d="m66.777237 145.2699v-6.7285h.729762v5.93448h2.717101v.79402z"/><path d="m70.912553 141.99285c-.000001-1.14742.252433-2.0294.7573-2.64596.504865-.61654 1.133653-.92482 1.886366-.92482.486505 0 .930175.1377 1.331013.41307.400828.27539.718282.67546.952362 1.20021.234069.52476.351106 1.14972.351112 1.87489-.000006.9975-.226431 1.80987-.679275 2.43713-.498752.69151-1.152019 1.03727-1.959802 1.03727-.813908 0-1.468705-.35494-1.96439-1.06481-.449792-.64256-.674687-1.41821-.674686-2.32698zm.75271.0138c-.000001.82921.182822 1.47253.548469 1.92997.365644.45744.81008.68616 1.333308.68616.535461 0 .984486-.23101 1.347076-.69304.362582-.46203.543874-1.14131.543879-2.03783-.000005-.5783-.09333-1.0954-.279971-1.55132-.143815-.34881-.360296-.62802-.649443-.83762-.289154-.20959-.605078-.31439-.947772-.31439-.550767 0-1.004381.22949-1.360846.68845-.356468.45898-.534701 1.16885-.5347 2.12962z"/><path d="m76.874572 143.10815.688455-.0734c.03672.37024.120096.65863.250138.86516.13004.20654.315923.37253.557649.49798.241722.12546.514043.18818.816966.18818.434488 0 .771831-.10632 1.012028-.31898.240191-.21266.360288-.4888.360292-.82844-.000004-.19889-.04361-.37253-.130807-.52093-.08721-.1484-.218779-.27003-.394714-.36488-.175942-.0948-.556121-.22796-1.14054-.39931-.520167-.15298-.890403-.3075-1.110707-.46356-.220306-.15604-.391655-.35416-.514046-.59436-.122393-.24019-.183588-.51175-.183588-.81467 0-.54464.175938-.98984.527815-1.33561.351876-.34575.826144-.51863 1.422807-.51863.41001 0 .768771.0811 1.076284.24325.307506.16218.54617.39472.715993.69764.169814.30292.260843.65939.273087 1.0694l-.702224.0643c-.03672-.43755-.167527-.76188-.392419-.97302-.224898-.21112-.540822-.31668-.947773-.31668-.413075 0-.728234.0926-.945477.27767-.217248.18513-.32587.42455-.325869.71829-.000001.27233.07955.48345.238664.63338.159108.14993.517104.30139 1.07399.45438.544641.14993.927115.27997 1.147424.39012.336574.17136.590537.39702.76189.67698.171344.27998.257019.61426.257023 1.00285-.000004.38554-.09027.73665-.270792 1.05334-.180532.31669-.426081.55765-.736647.72288-.310573.16523-.684633.24784-1.122181.24784-.682337 0-1.226216-.20501-1.631637-.61502-.405424-.41001-.615785-.96537-.631084-1.66606z"/></g><g transform="scale(1.1567392 .86449912)"><path d="m41.55914 150.09816v-4.32662h1.573047c.328577.00001.571076.0403.727497.12101.156417.0807.284799.21495.385146.40285.100342.1879.150514.40581.150517.65371-.000003.32662-.0851.59125-.255288.79391-.170195.20265-.417613.33153-.742254.38662.131822.0787.232167.15839.301033.23905.139693.16528.262664.34924.368914.5519l.619774 1.17757h-.590261l-.47221-.90015c-.182983-.35219-.321202-.58928-.414658-.71126-.09346-.12199-.183967-.20413-.271521-.24644-.08756-.0423-.210036-.0634-.367438-.0634h-.54304v1.9213zm.469258-2.41712h1.009347c.220362 0 .387603-.0266.501723-.0797.114114-.0531.204621-.13674.27152-.25086.06689-.11411.100342-.24692.100344-.39842-.000002-.2184-.06395-.39007-.191835-.51501-.127892-.12493-.317759-.1874-.569602-.18741h-1.121497z"/><path d="m45.227616 150.09816v-4.32662h.469258v4.32662z"/><path d="m46.38748 147.99093c0-.73783.162321-1.30497.486966-1.70143.324642-.39646.728971-.59469 1.212987-.59469.312837 0 .59813.0885.85588.26562.257744.17708.461876.43433.612396.77176.150513.33744.225772.73931.225775 1.20561-.000003.64142-.145601 1.1638-.436793 1.56715-.320712.44466-.740781.66699-1.260209.66699-.523367 0-.94442-.22823-1.26316-.6847-.289228-.41318-.433842-.91195-.433842-1.49631zm.484014.009c0 .5332.11756.94688.352682 1.24102.235119.29415.520904.44123.857355.44123.344317 0 .633053-.14855.866209-.44565.23315-.2971.349726-.73389.34973-1.31038-.000004-.37187-.06001-.70438-.18003-.99755-.09248-.22429-.231681-.40383-.41761-.53861-.185935-.13477-.389083-.20216-.609445-.20216-.354159 0-.645846.14757-.875063.44269-.229219.29514-.343828.75161-.343828 1.36941z"/><path d="m51.602442 148.70809.442696-.0472c.02361.23808.07722.42352.160846.55632.08362.13281.203148.23955.358584.32022.155434.0807.330545.12101.525333.121.279389.00001.49631-.0684.650764-.20511.154449-.13674.231675-.31431.231677-.53271-.000002-.12789-.02804-.23955-.08411-.33498-.05608-.0954-.140681-.17363-.253813-.23462-.113135-.061-.357602-.14658-.7334-.25677-.334482-.0984-.572554-.19773-.714216-.29808-.141664-.10034-.251846-.22774-.330547-.38219-.0787-.15445-.118052-.32907-.118052-.52386 0-.35022.113133-.6365.3394-.85883.226266-.22233.531235-.3335.914906-.3335.263648 0 .494342.0521.692082.15642.197735.10428.351203.25382.460404.4486.109195.19479.167729.42401.175603.68765l-.451551.0413c-.02361-.28135-.107725-.48991-.252336-.62568-.144617-.13575-.347765-.20363-.609446-.20364-.265619.00001-.468275.0595-.607969.17856-.139696.11904-.209544.273-.209543.46188-.000001.17511.05116.31087.153468.40728.102311.0964.332513.1938.690606.29218.35022.0964.596162.18003.737827.25086.216427.11018.379732.25529.489917.43532.11018.18003.165271.39498.165274.64486-.000003.24791-.05805.47368-.174128.67732-.116087.20364-.273982.35859-.473684.46483-.199708.10625-.440239.15937-.721595.15937-.438763 0-.788492-.13182-1.04919-.39547-.2607-.26365-.395968-.62076-.405805-1.07133z"/><path d="m54.677704 150.09816 1.363505-4.32662h.504674l1.452043 4.32662h-.537138l-.413183-1.31038h-1.481557l-.389572 1.31038zm1.024104-1.77669h1.201183l-.368914-1.19823c-.114119-.36793-.197739-.66699-.250861-.8972-.04526.27743-.1092.55289-.191835.82637z"/><path d="m58.357986 150.09816v-4.32662h.481064l1.865226 3.39696v-3.39696h.448599v4.32662h-.481063l-1.862276-3.39991v3.39991z"/><path d="m63.080078 148.87042.422037-.0708c.0118.33055.06296.55682.153468.67881.09051.12198.215445.18298.374817.18298.112148 0 .211017-.031.296606-.093.08559-.062.143137-.14019.172652-.23463.04132-.12789.06198-.32169.06198-.58141v-2.98082h.469258v2.94836c-.000002.53124-.08707.90605-.261191 1.12445-.174129.21839-.419579.32759-.736351.32759-.308905 0-.539106-.0984-.690606-.29513-.175111-.2243-.262667-.55976-.262667-1.00639z"/><path d="m68.126816 145.77154h.472209v2.49976c-.000003.41909-.04083.76291-.122479 1.03148-.08166.26857-.230205.48057-.445648.63601-.215448.15543-.489427.23315-.821939.23315-.468276 0-.818989-.13969-1.052142-.41908s-.34973-.77324-.34973-1.48156v-2.49976h.469258v2.49681c0 .39154.0305.67487.09149.84998s.160845.30841.299558.3999c.13871.0915.307426.13723.506149.13723.33448 0 .576979-.0944.727498-.28332.150514-.18888.225772-.55681.225775-1.10379z"/><path d="m68.997452 150.09816 1.363505-4.32662h.504673l1.452044 4.32662h-.537138l-.413183-1.31038h-1.481557l-.389573 1.31038zm1.024104-1.77669h1.201183l-.368914-1.19823c-.114119-.36793-.197739-.66699-.250861-.8972-.04525.27743-.1092.55289-.191835.82637z"/><path d="m72.677734 150.09816v-4.32662h.481063l1.865227 3.39696v-3.39696h.448599v4.32662h-.481063l-1.862276-3.39991v3.39991z"/></g></g></svg>