<svg height="500" width="750" xmlns="http://www.w3.org/2000/svg"><path d="m0 0h750v500h-750z" fill="#0085ce" fill-rule="evenodd"/><g fill="#fff" stroke="#fbffff" stroke-width="2.260365" transform="matrix(.88562926 0 0 .88399699 629.90343 83.02161)"><path d="m-443.07866 241.17335 23.92636-11.35795 5.03593 10.60855c1.01232 2.13258 1.56702 3.8558 1.6641 5.16964.097 1.31383-.24094 2.56085-1.0139 3.74108-.77302 1.18021-1.81778 2.08281-3.1343 2.70779-1.6974.80574-3.38902.93547-5.07489.38921-1.68591-.54629-3.23154-1.89243-4.63688-4.03843-.005 1.0289-.0999 1.85393-.28496 2.47511-.40967 1.32771-1.05474 2.70718-1.9352 4.13843l-4.53638 7.2531-1.89041-3.98228 3.47482-5.52926c.99719-1.60665 1.73458-2.88995 2.21215-3.84993.47755-.95999.75632-1.74895.83631-2.36686.08-.61794.0636-1.20012-.0491-1.74655-.0943-.39522-.33513-1.00085-.72249-1.81689l-1.74321-3.67219-10.62487 5.04368zm14.8698-3.17902 3.23074 6.80579c.68694 1.44711 1.37371 2.50766 2.06033 3.18168.68657.67399 1.45972 1.06692 2.31945 1.17879.85969.11184 1.67581-.0156 2.44835-.3823 1.13155-.53717 1.86686-1.38953 2.20592-2.55706.33901-1.16755.0876-2.63808-.7543-4.41161l-3.59488-7.57287z"/><path d="m-427.02485 270.85225 21.93971-14.83654 10.72764 15.86364-2.58906 1.75083-8.76429-12.96029-6.7196 4.54407 8.20767 12.13718-2.5741 1.74071-8.20766-12.13718-7.46789 5.05009 9.10838 13.46913-2.58906 1.75083z"/><path d="m-392.32641 297.08924 2.36192-2.01926 7.30419 8.5159-7.47027 6.38648c-2.16285-.41691-4.10229-1.09611-5.81831-2.03758-1.71605-.94151-3.20019-2.14463-4.45243-3.60938-1.69055-1.97743-2.80311-4.13603-3.33768-6.47579-.53458-2.33977-.35303-4.60644.54467-6.80002.89768-2.19357 2.33523-4.13563 4.31266-5.82617 1.9591-1.67488 4.138-2.82856 6.5367-3.46105 2.39866-.63247 4.66739-.53191 6.80621.30168 2.13876.83362 4.06516 2.25286 5.77921 4.25774 1.24439 1.45561 2.13373 2.97314 2.66801 4.55259.53421 1.57945.66588 3.06334.39502 4.45168-.27093 1.38834-.93512 2.83562-1.99258 4.34183l-2.71362-1.8396c.76703-1.17869 1.25176-2.24277 1.45419-3.19225.20237-.94948.12369-1.99142-.23604-3.12583-.35979-1.1344-.97405-2.20969-1.84277-3.22587-1.04096-1.21757-2.1264-2.11188-3.25632-2.68292-1.12997-.57102-2.22988-.87062-3.29975-.89878-1.06992-.0281-2.09561.11588-3.0771.43206-1.68335.55176-3.25281 1.44984-4.7084 2.69426-1.79434 1.53401-3.03157 3.12654-3.71169 4.77759-.68014 1.65105-.80834 3.31751-.38461 4.99937.42371 1.68186 1.203 3.18651 2.33787 4.51395.98613 1.15349 2.1708 2.08973 3.55401 2.80872 1.38318.71896 2.56915 1.14702 3.55793 1.28417l3.74886-3.20499z"/><path d="m-384.15936 321.045 18.56699-18.88758 2.49945 2.45702-18.56699 18.88758z"/><path d="m-362.21411 319.13605c2.76101-3.42095 5.84105-5.35782 9.24013-5.81062 3.39905-.45277 6.55131.49332 9.45681 2.83828 1.90259 1.5356 3.25088 3.37445 4.04487 5.51658.79394 2.14214.93538 4.34965.42433 6.62254-.51112 2.27288-1.59875 4.4403-3.26289 6.50225-1.6869 2.09006-3.61777 3.61947-5.79261 4.58824-2.17489.96875-4.37784 1.25316-6.60887.85325-2.23106-.39993-4.24165-1.3223-6.03178-2.76709-1.94012-1.56585-3.29581-3.4339-4.06707-5.60415-.77128-2.17025-.89623-4.3838-.37487-6.64066.52135-2.25685 1.512-4.28972 2.97195-6.09862zm2.77771 2.31151c-2.00459 2.48372-2.91588 4.97919-2.73387 7.48643.182 2.50723 1.28054 4.57403 3.29564 6.20039 2.05256 1.6566 4.32441 2.29841 6.81556 1.92543 2.49111-.37301 4.80704-1.88571 6.9478-4.53812 1.35401-1.67768 2.25244-3.37095 2.69528-5.07983.44279-1.70887.39625-3.34838-.13963-4.91852-.53594-1.57013-1.4834-2.90362-2.84238-4.00047-1.93076-1.55827-4.12722-2.23596-6.58938-2.03308-2.4622.2029-4.94521 1.85549-7.44902 4.95777z"/><path d="m-337.11002 351.36168 4.48692-26.10252 3.54324.60907 10.18724 22.85056 3.52281-20.49386 3.31177.56928-4.48692 26.10252-3.54324-.60906-10.18418-22.86838-3.52587 20.51168z"/><path d="m-302.93745 357.40515.0505-26.4853 19.15035.0365-.006 3.12546-15.64548-.0298-.0155 8.11181 14.65183.0279-.006 3.10742-14.65183-.0279-.0172 9.01511 16.25975.031-.006 3.12549z"/><path d="m-251.32075 352.77005-11.21331-23.99447 4.77943-2.23313 13.61905 14.33509c1.26314 1.33742 2.19831 2.34285 2.80553 3.01628-.13521-1.00039-.30874-2.48137-.52085-4.44292l-2.05698-19.37944 4.27185-1.99641 11.21331 23.99447-3.06063 1.43052-9.38523-20.0827 2.41277 23.34113-2.86413 1.33888-16.48562-17.18325 9.54585 20.42641z"/><path d="m-224.71628 324.25654c-2.04856-3.88967-2.60799-7.48483-1.67828-10.78548.92972-3.30063 3.04636-5.8209 6.34992-7.56082 2.16329-1.1393 4.38565-1.64956 6.66712-1.53072 2.28143.11888 4.36461.86284 6.24953 2.23186 1.88491 1.36908 3.44475 3.22585 4.67951 5.57028 1.25157 2.37646 1.89173 4.75503 1.9203 7.13573.0287 2.38072-.58217 4.5163-1.83256 6.40679-1.25043 1.8905-2.89335 3.37174-4.92877 4.44373-2.20592 1.1618-4.45802 1.66729-6.7563 1.51645-2.29829-.15082-4.38049-.91231-6.24661-2.28446-1.86613-1.37214-3.34079-3.08658-4.42401-5.14332zm3.22224-1.6358c1.48732 2.82401 3.41821 4.64869 5.7927 5.47404 2.37448.82537 4.7073.6347 6.99849-.57204 2.33379-1.22913 3.82248-3.06135 4.46608-5.49665.64358-2.43526.1712-5.16083-1.41709-8.17668-1.00466-1.90752-2.20397-3.40284-3.59796-4.48597-1.39401-1.08309-2.91801-1.68934-4.57203-1.81877-1.65403-.12938-3.25364.21278-4.79884 1.02662-2.19528 1.1562-3.68708 2.90497-4.47543 5.24632-.78833 2.34139-.25363 5.27576 1.60411 8.80308z"/><path d="m-187.87515 313.2197-19.79794-17.59303 2.32813-2.61994 17.46163 15.51693 8.6645-9.75042 2.33632 2.07611z"/><path d="m-168.36107 292.29184-21.62683-15.28899 2.02323-2.86195 21.62684 15.28899z"/><path d="m-164.76932 276.2814 1.32736-3.04176c1.23843.49614 2.36729.69604 3.38663.59971 1.01932-.0962 2.04704-.54806 3.08323-1.3552 1.03616-.80716 1.91425-1.87183 2.63429-3.19403.6394-1.17409 1.02939-2.30572 1.16998-3.39491.14056-1.08917.0263-2.01884-.34288-2.78904-.36909-.77021-.91336-1.35111-1.63263-1.74284-.72984-.39745-1.48235-.53296-2.2575-.40652s-1.6128.57541-2.51298 1.34693c-.58311.4916-1.713 1.66602-3.3896 3.52326-1.67659 1.85731-2.97561 3.09047-3.89704 3.69954-1.18655.79384-2.35924 1.22837-3.51796 1.30365-1.1587.0753-2.27224-.178-3.34059-.75981-1.17406-.63937-2.09003-1.5702-2.74786-2.79248-.65787-1.22221-.9026-2.61732-.73491-4.18514.16816-1.56788.6785-3.13457 1.53101-4.70005.93896-1.7241 2.04467-3.09339 3.31713-4.10789 1.27248-1.01446 2.64115-1.58227 4.10599-1.70342 1.46487-.12113 2.89394.16344 4.28722.8536l-1.38502 3.07209c-1.55667-.64201-2.95964-.71005-4.20892-.20411-1.24927.50599-2.36064 1.65277-3.33417 3.44035-1.0138 1.86164-1.41144 3.40398-1.19292 4.62698.2187 1.22302.8091 2.09665 1.77163 2.62083.83563.4551 1.68734.52804 2.55512.21891.86205-.29849 2.25716-1.54451 4.18538-3.73794 1.92821-2.19336 3.35734-3.64026 4.28734-4.34067 1.36139-1.01404 2.69642-1.58301 4.00505-1.70695 1.30868-.12353 2.58703.15401 3.83519.83371 1.23755.67399 2.21074 1.66341 2.91956 2.96829.70881 1.3049 1.00579 2.78673.89116 4.44537-.11473 1.65869-.62427 3.31838-1.52866 4.97902-1.14631 2.10493-2.4136 3.70166-3.80185 4.79022-1.38828 1.08858-2.91885 1.70194-4.59181 1.83999-1.67292.13833-3.29836-.19509-4.87631-.99955z"/><path d="m-140.95915 253.21866-23.97795-11.24859 8.13337-17.33742 2.8296 1.32744-6.64482 14.16433 7.34387 3.44517 6.22279-13.26476 2.81325 1.31976-6.2228 13.26475 8.16166 3.82883 6.90571-14.72043 2.82958 1.32742z"/></g><g transform="translate(256.7 100)"><path d="m6 7 .000086 32.891628c.0387578 58.574621 13.201445 176.579942 112.499914 207.608372 99.29964-31.02879 112.46146-149.03654 112.49992-207.610449l.00008-32.889551" fill="#d71919" stroke="#bebebe" stroke-width="12"/><g fill="#bebebe" fill-rule="evenodd"><path d="m-94.826052 21.417974-17.425228-5.836683-8.19434 16.448654-8.19434-16.448653-17.42522 5.836682 5.83668-17.4252263-16.44865-8.1943391 16.44865-8.1943376-5.83668-17.425228 17.42522 5.836683 8.19434-16.448654 8.19434 16.448653 17.425228-5.836682-5.836688 17.425226 16.448659 8.1943394-16.448649 8.1943376z" transform="matrix(.81472105 0 0 .81355632 150.27719 54.56679)"/><path d="m203.45367 11.23086-166.523376 158.95083c6.87661 15.95951 15.58882 30.36494 26.635463 41.18288l165.185153-157.67612-.66848-41.827292z"/><path d="m.00161.499754h236.99615v12h-236.99615z"/></g></g></svg>