<svg height="500" width="650" xmlns="http://www.w3.org/2000/svg" xmlns:xlink="http://www.w3.org/1999/xlink"><path d="m0 0h650v500h-650z" fill="#da121a"/><path d="m0 250h325v250h-325z" fill="#fff"/><path d="m325 0h325v250h-325z" fill="#fff"/><g transform="translate(-895.62991 -1494.6766)"><g id="a" transform="matrix(.9439079 0 0 .9439079 58.636259 111.27008)"><path d="m1027.3086 1822.8278c-4.5267-6.2974-14.0816-10.5821-11.4307-19.7523-1.2452 0-.7514-8.9355-1.0606-9.7586l-5.5385-3.2919.3535 5.8786-8.7261-1.8845-.112 8.7037-2.35686 2.9393 2.94596 6.055c.1179-.059.1179 1.8224 4.0067 1.7048 0 0-.707 1.9056 1.8855 5.4329-.8483 6.7513 4.3665 9.7182 7.1883 14.5546 3.1104-3.8157 5.2405-7.9607 12.8448-10.5816z" fill="#742c64" stroke="#192e2e"/><path d="m1064.6056 1772.7709c-3.8288-3.1579-12.3532 2.1494-6.4995 3.9907-1.2303 1.1638-.6649 2.3277 0 3.4916l8.8326 4.822c-1.2726 1.9537-.9232 4.0426 1.6666 6.3183-1.0891 3.1529-3.3024 2.3793-6.1662-.6651h-5.1662c-3.7635 1.7736-2.6232 3.5472-1 5.3208-3.6469 3.8183-.6168 7.524 4.1663 2.4941l3.1665 2.9929c-.586 6.5387-16.876 9.4619-10.6659.8314-9.571-3.3359-8.5199 4.0797-4.6372 9.9464-5.0805.6016-15.461 3.0161-8.695-5.1245-11.3235 1.1573-10.729 9.6112-2.6665 13.8007-7.8472 1.5471-15.9259 1.2468-22.4983 12.9693-6.7475 5.9643-9.7492-.054-8.618 1.7638 1.8817 3.0247 5.8814 10.0453 11.3409 1.7788-1.8008 20.0712-8.1734 20.3061-8.8262 18.9212-.6791-1.4408 2.4054 11.0666 9.3511-1.7813 4.7173 13.4527-1.0677 11.4603-2.4218 12.0263-1.4519.6068 2.6106 7.1639 10.1732-1.6157l5.6662-7.4823c-7.4987 7.1819-11.3471 24.8992-23.3482 20.6467l-3.4997 1.6627 1.3498 4.4606 5.9996 2.3277c-5.5506-1.0383-8.4421.046-7.3328 4.3232 2.6273 4.8742 7.1643 10.7097 6.9995 1.1639-.098 6.1955 2.9019 7.533 5.8329 8.9787 3.9933.8766 3.7007-5.8796.9999-5.9857-.1052-3.6641 1.0283-6.1715 4.3329-6.651 3.3061 3.8042 4.0576-.5952 5.333-3.1592 4.5231.4771 4.167-1.0227 4.9997-5.3207l8.8326-2.8266c6.4665 10.3224 18.4007 10.5139 30.9976 9.4774 3.4717 1.552 4.2706 3.1038 3.9997 4.6558-20.9416 8.3573-14.0472-11.3262-42.3301 6.3184-.9444.271-1.8887.6639-2.8331-.8315-1.1585 2.1881-2.323 4.0698 1.4999 6.651 1.3755 4.2145.4963 7.7011-5.1663 9.6438 3.8309 7.1436 7.0543 4.8945 9.9993-1.6627.8691 4.855 4.73 10.4086-.6666 13.8007 2.5322 2.0112 5.0672 3.5102 7.166.3325l-.094 4.8889c-13.9207 10.8505-14.0385-6.2151-16.832-2.8267-.83 1.8617-1.0298 4.6255-3.5727 3.9237-5.7983 3.3713 2.7493 5.2362 4.4996 7.8148l-6.8327-4.4894-3.6664.1663c.5211 1.5295 1.0468 3.06-.1667 4.1567.2261 3.0465-.2257 6.4311 5.9996 6.4848 2.2424 1.5881 4.4312 3.1976 4.4996 5.6533 9.3626-.7131 8.3651-4.0102 11.3325-6.3184 1.4388 7.5884 4.706-3.6965 7.0849-5.9327 1.4627.6185 1.7986 3.2981 1.0857 5.2229 4.1667-5.8109 9.8366-12.8819 11.7843-19.5901-1.849-1.4094-2.6624-2.955-3.6228-6.1376-3.9976-12.3647 7.2606-14.7439 21.3316-17.7913-6.7447 5.3904-16.7458 16.788-10.4992 25.7725.4871 3.1303 1.3357 6.4653-1.7535 7.5731 3.5553 2.4525 5.2201-1.8785 6.0744-4.518 2.099 3.511 9.3894 9.1534 8.6322 13.5113.9095.9065 6.6663-2.0749 4.4998-7.316 4.4559-.8634 6.4193-1.9499 13.0495-4.2622 5.9183 1.0184 13.752 18.4941-.1714 12.4704-1.879-1.5591-4.1266-2.1378-7.3328-.1662.617 1.244.6349 3.0689-.1666 4.9882-.131 5.1535 7.5296-.7515 9.166-.4989-12.3589 4.0293-5.2891 1.6714-3.8331 8.6462 3.1733 4.6093 5.2885-1.934 12.8323-6.3183l-2.3331 2.1615.3333 8.3137c10.423.6613 8.9816-10.08 12.5477-15.1982.809-1.161 2.6484-1.9033 3.6083-2.7276-5.3648-.3601-10.1634-8.2857-5.6858-12.0343-3.3178-2.9779-10.1991-5.565-6.354-10.1309-5.4217-4.6646-4.4751-6.5288-13.6656-.665-3.4249-2.2611-8.0394-4.7628-5.2828-8.1284 7.7827-5.5871 8.2451-11.7847 10.9991-17.7911 47.4366-17.1901-24.8429-69.2325 6.9246-72.5397.6328 5.3508-.5604 10.8223 1.5749 16.173 3.7799 1.4575 6.3401 2.1554 7.666 5.6533l2.6496 6.8181c-.1457-3.8955 2.129-8.6532-.334-11.6864-2.773-3.4147-2.1846-6.0293-2.1734-8.4088 1.7655-4.2539-.2732-6.0808-.6884-8.0597-7.144-8.0927-10.2292-6.3621-13.2014-5.1318-10.5096 4.35-10.8664 17.6018-3.6658 28.0808 15.1436 22.0387 21.9433 40.9924.1021 42.6303-6.1607-7.9875-22.2464-8.0446-26.1853-38.5892.4004-3.7071 2.9164-3.7205 4.9995-4.4894l2.9999-2.3279c-8.3258-5.1162 2.0585-20.7908 9.3326-11.9716-.3568-6.2084-.8432-16.4627 2.4816-21.7608.715-1.4229 2.6656.8631 4.129 1.687-2.0626-2.257-2.9586-16.3043 4.7218-11.3518 2.699-.744 2.391-3.5013 1.8894-2.6197-1.2778 2.2454-5.3225-.6383-5.627-8.3928-3.0044-6.2162-8.6582-13.1089-12.9277-16.4226-3.6968-.5136-7.1339-2.3224-11.6658 1.3302h-3.6664l-1.4998 1.164c-.2797-1.6059-2.5324-1.6369-4.9997-1.4966z" fill="#742c64" stroke="#192e2e"/><path d="m1000.9035 1802.5078c3.9182 1.4515 6.7733 3.8092 8.6109 7.0343" fill="none" stroke="#192e2e"/><path d="m1009.3966 1795.9036c-.1454 2.6649-1.7425 5.3299 1.1784 7.9949" fill="none" stroke="#192e2e"/><path d="m1076.3722 1774.1158s3.3654 3.4918 3.6665 9.1451" fill="none" stroke="#192e2e"/><path d="m1076.8679 1775.5195s-7.5197 6.0593 2.6461 6.2255c1.2609-2.3772-2.6461-6.2255-2.6461-6.2255z" fill="#e7e7e7" stroke="#192e2e"/><path d="m1059.207 1774.9472c.4268 2.6604 2.7074 3.3255 2.833 3.3255" fill="none" stroke="#192e2e"/><path d="m1089.2047 1789.5793s4.5285 3.2182 1.8621 7.5412" fill="none" stroke="#192e2e"/><path d="m1071.2688 1785.9203c.2035 2.0569 3.4203 5.7706 6.1034 6.8182" fill="none" stroke="#192e2e"/><path d="m1068.3729 1819.8409c-3.2061 6.337 1.1524 5.3617 3.4386 4.5431 1.5702-.5624 1.3391 7.5697-8.1049 4.6019-4.1263-2.9425-2.6153-8.1684-.25-10.8909" fill="none" stroke="#192e2e"/><path d="m1063.3733 1828.6535c-.7265 9.068-4.9306 20.672-14.3322 11.8053 8.9173 1.0671 4.5025-10.7234 5.5889-17.3219 0 0-3.6367 11.7961-12.2552 10.671-7.1737-.9366-4.0865-8.1619-4.1663-8.1474-.0006 0 6.3462 4.0422 7.9994-.6651 1.8318-5.2156 5.333-9.8101 5.333-9.8101" fill="none" stroke="#192e2e"/><path d="m1077.7828 1821.1412c1.0199 3.3077.8285 6.023-1.9105 7.8447" fill="none" stroke="#192e2e"/><path d="m1029.5425 1836.302s-5.4059 9.6207-.5728 11.7823" fill="none" stroke="#192e2e"/><path d="m1043.8748 1844.2831s-.8333 8.6462 1.6665 8.9787c2.4998.3326-6.9994 2.8267-7.166-9.9763" fill="none" stroke="#192e2e"/><path d="m1114.3693 1835.8032c.9221 1.2747.4931 3.515 0 3.8243" fill="none" stroke="#192e2e"/><path d="m1076.6602 1891.2552c3.0314 2.8665.013 4.8463-.8269 5.5145" fill="none" stroke="#192e2e"/><path d="m1073.2059 1840.7914c.064 2.0208-.098 4.1267 3.4996 4.8219" fill="none" stroke="#192e2e"/><path d="m1061.8734 1789.7455s-2.9997-4.822-11.4992-.6651c-8.4993 4.1568-11.0075-1.9952-11.0075-4.822 0-2.8265 4.3414-3.4916 4.3414-3.4916s-1.8332 7.1497 6.8328 4.9882c8.6661-2.1616 11.9991 1.3302 11.9991 1.3302l2.508 5.3922z" fill="#da121a" stroke="#192e2e"/><path d="m1078.3973 1776.9802c-.1825.099-3.6204 3.0753 1.1641 2.6841" fill="#192e2e" stroke="#192e2e"/><path d="m1040.2046 1877.17c7.9944-3.2631 9.5083-8.6737 7.5176-14.8911" fill="none" stroke="#192e2e"/><path d="m1013.0497 1899.1326 4.7136 1.8811" fill="none" stroke="#192e2e"/><path d="m1023.8912 1931.5541c2.2503.3028 3.3034-1.3853 4.2423-3.2635" fill="none" stroke="#192e2e"/><path d="m1017.292 1935.3451c.7291 1.1254 2.2463 1.8578.4713 4.2326" fill="none" stroke="#192e2e"/><path d="m1088.9399 1943.8103c1.8734 1.2799 2.1803 3.0065.9427 5.1731" fill="none" stroke="#192e2e"/><path d="m1091.8254 1952.0807c3.8542 1.7894 2.8884 3.5787 2.9662 5.3681" fill="none" stroke="#192e2e"/><path d="m1106.4614 1956.4795c2.7552-.1125 3.5902 1.2114 4.6328 2.3801" fill="none" stroke="#192e2e"/><path d="m1102.037 1776.974-2.7641.2155s-2.714 1.9199-1.3332 3.9905c1.3708 2.0557 2.3106 1.3471 3.1394.1832.6757-.9488.8031-2.4623.8031-2.4623l5.7234 1.1152-2.4998 4.4894c-1.3256-.2058-2.3362-.9566-2.8576-.6449.1423.02-3.8086.4299-2.3087 1.9264 1.4999 1.4964 6.7554.4584 6.7554.4584l2.1951 4.7767c0-.666-7.6425-2.9289-9.2727-1.7312-.1707-2.3763-11.1074-16.3677-13.1598-17.2955l1.5519-8.9392 3.4394 3.7489c0 .025-1.1155 1.301-1.9949 2.0066-.9268.7436-1.1783 2.3947.06 2.7579 1.0589.3108 2.3262.387 2.8084-.193.8078-.9716.6587-2.9289.6587-2.9289l3.8615-1.0684.3333 4.4894-2.9998.8314s-.8788 1.1631.3333 2.8266c1.3271 1.8213 2.8629 1.4727 3.3071.475.4113-.9239.526-2.304.526-2.304s3.4973-.7714 4.164-1.2702c-.026.8592-.6886 4.7662-.469 4.5465z" fill="#fcdd09" stroke="#192e2e"/><path d="m1005.0011 1880.1966c-.2648-.2355-2.7501.5669-3.6686 1.8537-.4181.5858 1.3193 1.1566 4 2.1913 1.2299-2.0947 1.4493-2.5427-.3314-4.045z" fill="#da121a" stroke="#192e2e"/><path d="m1004.5015 1890.2956-1.9201 4.852s4.3059.3863 4.9706.3793c1.3579-.014-1.2036-6.3215-3.0505-5.2313z" fill="#da121a" stroke="#192e2e"/><path d="m1013.2763 1899.1386.02 4.8218 3.8129-2.9928c-.6157-2.5969-2.2155-2.2397-3.833-1.829z" fill="#da121a" stroke="#192e2e"/><path d="m1024.1087 1931.5619s3.978-1.0709 3.9997-3.4918c.033-3.7244.7019 1.3555-3.3716-.8499-3.645-1.9733-.796 4.6865-.6281 4.3417z" fill="#da121a" stroke="#192e2e"/><path d="m1017.1533 1939.7554c1.9649-1.2147.9088-2.7654 1.0356-4.1846-2.2126.7501-4.4199 1.5041-4.8538 3.589 1.3308.4308 2.7047 1.0344 3.8182.5956z" fill="#da121a" stroke="#192e2e"/><path d="m1024.6321 1946.7457c2.3782 1.2389 2.6377 2.7428 3.2832 4.1985l-4.4996.8313z" fill="#da121a" stroke="#192e2e"/><path d="m1089.647 1944.0455c1.2478.4801 2.0405 5.4142 0 5.1731-1.4043-.1658-3.2996-.7054-3.2996-.7054s2.5925-5.8786 3.2996-4.4677z" fill="#da121a" stroke="#192e2e"/><path d="m1092.4483 1952.2755c-.074-1.3392 4.5282 3.2853 2.9518 5.3111-1.1024 1.4164-7.1672-1.7839-7.1672-1.7839z" fill="#da121a" stroke="#192e2e"/><path d="m1105.5216 1956.0379c0-.6423 6.5154 1.1573 6.2797 3.2919-.157 1.4219-6.169 2.1583-6.169 2.1583z" fill="#da121a" stroke="#192e2e"/><path d="m1010.1713 1795.6586s2.3304.8263 4.098-2.5833l-4.8846-2.5698z" fill="#da121a" stroke="#192e2e"/><path d="m1001.201 1798.6729c3.9269.2968 3.8829-1.595 4.3217-3.5673l-4.8344-.9977z" fill="#da121a" stroke="#192e2e"/><path d="m998.34888 1805.5478-3.06098 4.6997 5.8922.8229c-.3521-1.6977.1551-2.9488-2.83122-5.5226z" fill="#da121a" stroke="#192e2e"/><path d="m1085.1313 1799.0312c1.4643 2.1647 1.024 4.3294 0 6.4941 0 0-6.4903 5.8105.1708 7.7758 0 0-6.6611 3.2471-8.0275-6.5795 0 0-6.4903 9.9121-12.5536 2.1362 0 0 5.7217-.3418 6.0633-5.4688" fill="none" stroke="#121f1f"/><path d="m1025.1666 1865.3022s-1.3516-10.131 2.5767-10.4727" fill="none" stroke="#121f1f"/><path d="m1024.0701 1945.8228s1.1101-1.3672 1.7934-1.3672" fill="#da121a" stroke="#000"/></g><g id="b" transform="matrix(.9439079 0 0 .9439079 59.511364 89.63236)"><path d="m1041.8436 1521.2953 31.2681.1066 6.1685 5.5457v14.9304l-3.4032 2.5594-.1064 34.3399h8.1893l.319-17.7032-2.2334-3.306-.1064-10.7712 4.3606-5.3323 18.2929.1066 4.6795 5.439.1064 10.4512-2.7652 4.3725-.1064 21.6491 11.9117 6.2921-.2127 16.2102-3.8288 5.9721v64.4141l10.1038 8.6382.1063 20.796-20.3137 13.4374h-93.2727l-20.31367-13.3308v-20.9027l9.46557-7.5717.4254-65.2672-3.61607-5.9356v-16.2467l11.27357-6.8254.1063-21.7556-3.616-3.7327-.2127-10.2379 4.9986-5.8655h18.9311l4.7859 5.3322v10.9845l-2.8716 3.5194.1064 17.5965 9.1465-.1066-.2126-34.1267-3.6162-3.4126-.319-13.8639z" fill="#fcdd09" stroke="#000"/><path d="m1042.2689 1718.9097.2127-34.5531s14.0388-22.8222 30.2047.2132l.4749 34.7665" fill="none" stroke="#000"/><path d="m990.89983 1685.4229 20.10097 8.2118 31.3745.1066" fill="none" stroke="#000"/><path d="m1123.9513 1685.5038-20.072 8.0556-31.0555.2132" fill="none" stroke="#000"/><path d="m990.79348 1692.4617 19.99462 9.2963 31.2917.019" fill="none" stroke="#000"/><path d="m990.62968 1699.2127 20.00422 11.3116 31.1344.1508" fill="none" stroke="#000"/><path d="m1001.0078 1689.5604-.3008 7.3901" fill="none" stroke="#000"/><path d="m995.89396 1694.839-.15042 7.3903" fill="none" stroke="#000"/><path d="m1005.8209 1699.0619v8.446" fill="none" stroke="#000"/><path d="m1001.0078 1704.793-.1504 7.8428" fill="none" stroke="#000"/><path d="m997.09721 1606.7602 18.34979-7.2393 83.4762-.1508 19.1018 6.7869" fill="none" stroke="#000"/><path d="m1000.707 1612.3406 18.6506-5.7312 76.7079.1508 18.3497 5.4295" fill="none" stroke="#000"/><path d="m1000.4062 1622.898 18.6505-3.9213 77.1592.1508 18.0489 3.9213" fill="none" stroke="#000"/><path d="m1000.5566 1634.5111 18.9514-2.4132h75.8054l18.9514 2.2624" fill="none" stroke="#000"/><path d="m999.99145 1644.1635 19.32205 1.5633 76.1245.033 19.4284-1.5967" fill="none" stroke="#000"/><path d="m1000.5781 1655.3489 18.8247 3.0928 76.4688.1066 18.5055-2.7728" fill="none" stroke="#000"/><path d="m1000.3654 1666.6535 19.5692 4.2658h75.5115l18.931-4.6924" fill="none" stroke="#000"/><path d="m1000.3654 1677.318 18.931 5.7588 23.7171.053" fill="none" stroke="#000"/><path d="m1071.7215 1682.8635 23.7998.088 19.494-6.7003" fill="none" stroke="#000"/><path d="m1008.7674 1583.0431 6.9662-4.2125" fill="none" stroke="#000"/><path d="m1005.1513 1557.4481 3.9351-3.7326 18.7183-.1066 5.2114 4.2658" fill="none" stroke="#000"/><path d="m1008.3419 1568.6459 4.1479-3.1993h13.1879l4.7859 3.306" fill="none" stroke="#000"/><path d="m1008.5547 1575.8979 5.2113-4.0526 11.8053.1067 5.2114 4.2658" fill="none" stroke="#000"/><path d="m1105.9752 1583.2031-6.7003-4.0526" fill="none" stroke="#000"/><path d="m1041.8436 1521.6152.2127 15.9969 2.7651 4.2659v36.8992" fill="none" stroke="#000"/><path d="m1073.1117 1521.5086-.2127 15.9969-2.7652 4.2658v36.8993" fill="none" stroke="#000"/><path d="m1035.994 1541.558 5.6369-4.1592 31.1617.32 6.2749 4.2658" fill="none" stroke="#000"/><path d="m1039.6101 1544.864 4.786-2.7727 25.7909.1599 5.5836 2.8262" fill="none" stroke="#000"/><path d="m1039.6101 1554.5687 4.8923-3.0927 25.4186.32 5.7432 2.9861" fill="none" stroke="#000"/><path d="m1039.2911 1563.4203 5.424-2.8794 25.3123.2133 5.6368 2.9861" fill="none" stroke="#000"/><path d="m1039.7164 1572.8051 4.3606-2.5594 26.1631.2133 5.105 2.986" fill="none" stroke="#000"/><path d="m1106.2207 1561.9807-4.8923-3.3061h-12.6563l-4.2542 3.7327" fill="none" stroke="#000"/><path d="m1106.327 1569.2325-4.1478-3.1994h-13.188l-4.7859 3.3061" fill="none" stroke="#000"/><path d="m1106.1143 1576.4844-5.2114-4.0525-11.8053.1067-4.8923 3.3059" fill="none" stroke="#000"/><path d="m1124.3745 1691.8218-20.4201 10.0247h-30.4172" fill="none" stroke="#000"/><path d="m1073.3245 1710.3782h30.5236l20.6328-11.5178" fill="none" stroke="#000"/><path d="m1114.3771 1689.5821.1064 6.8254" fill="none" stroke="#000"/><path d="m1109.4849 1699.3936.1063 7.7851" fill="none" stroke="#000"/><path d="m1119.3759 1694.0613.1063 7.4652" fill="none" stroke="#000"/><path d="m1114.2708 1704.6192.2393 7.8386" fill="none" stroke="#000"/><path d="m1088.214 1693.528-.1064 8.1052" fill="none" stroke="#000"/><path d="m1080.6629 1701.7398v8.6384" fill="none" stroke="#000"/><path d="m1095.6589 1701.7398v8.6384" fill="none" stroke="#000"/><path d="m1088.1076 1710.5915.1064 8.8516" fill="none" stroke="#000"/><path d="m1025.6777 1693.6347v7.8918" fill="none" stroke="#000"/><path d="m1018.3392 1701.6332v8.8517" fill="none" stroke="#000"/><path d="m1034.5051 1701.7398.1063 8.9582" fill="none" stroke="#000"/><path d="m1025.8904 1710.5915v8.5315" fill="none" stroke="#000"/><path d="m1000.7908 1689.2622 8.5083-9.1715" fill="none" stroke="#000"/><path d="m1004.4068 1678.3845-.1063-10.9845" fill="none" stroke="#000"/><path d="m1014.1914 1669.4261v11.7312" fill="none" stroke="#000"/><path d="m1009.7245 1668.8929v-12.4774" fill="none" stroke="#000"/><path d="m1004.6195 1655.9888.2128-11.731" fill="none" stroke="#000"/><path d="m1014.5105 1645.4309-.1064 11.8376" fill="none" stroke="#000"/><path d="m1009.8309 1633.06-.1064 11.6244" fill="none" stroke="#000"/><path d="m1004.9386 1621.6488-.1063 12.371" fill="none" stroke="#000"/><path d="m1014.5105 1620.1559.1064 12.3709" fill="none" stroke="#000"/><path d="m1009.5118 1609.7046v11.0912" fill="none" stroke="#000"/><path d="m1109.9822 1678.1728-.1063-11.0911" fill="none" stroke="#000"/><path d="m1100.5167 1669.2145v11.7311" fill="none" stroke="#000"/><path d="m1105.1963 1668.5746.013-11.7676" fill="none" stroke="#000"/><path d="m1110.0354 1656.2571v-11.8911" fill="none" stroke="#000"/><path d="m1100.3701 1645.1126-.066 12.7974" fill="none" stroke="#000"/><path d="m1105.1963 1632.955.013 11.7073" fill="none" stroke="#000"/><path d="m1109.7916 1622.1837.084 11.6245" fill="none" stroke="#000"/><path d="m1100.1977 1619.9442-.031 12.6725" fill="none" stroke="#000"/><path d="m1105.1963 1609.5462v11.0379" fill="none" stroke="#000"/><path d="m1025.5243 1693.4816 6.7683-10.4066" fill="none" stroke="#000"/><path d="m1082.5287 1682.9242 5.866 10.7082" fill="none" stroke="#000"/><path d="m1104.9395 1679.6062 9.175 9.8033" fill="none" stroke="#000"/><path d="m1038.309 1670.4062.044 12.518" fill="none" stroke="#000"/><path d="m1057.4989 1670.5128.062 3.3622" fill="none" stroke="#000"/><path d="m1077.1141 1670.557v12.2164" fill="none" stroke="#000"/><path d="m1069.8946 1658.3406.1503 11.9149" fill="none" stroke="#000"/><path d="m1044.7765 1658.039-.1505 12.518" fill="none" stroke="#000"/><path d="m1056.809 1645.2192-.1246 12.8198" fill="none" stroke="#000"/><path d="m1031.9918 1645.2192v12.5182" fill="none" stroke="#000"/><path d="m1070.3199 1632.3997-.1246 12.8195" fill="none" stroke="#000"/><path d="m1069.8946 1606.6094-.018 12.2165" fill="none" stroke="#000"/><path d="m1044.4756 1606.157-.018 12.8197" fill="none" stroke="#000"/><path d="m1057.2162 1619.3408.044 12.3047" fill="none" stroke="#000"/><path d="m1044.626 1632.2489v12.8196" fill="none" stroke="#000"/><path d="m1032.1422 1645.3701v12.8197" fill="none" stroke="#000"/><path d="m1083.2808 1645.5209v13.1215" fill="none" stroke="#000"/><path d="m1003.2369 1586.3491v7.9985" fill="none" stroke="#000"/><path d="m1009.5118 1582.5099v9.1716" fill="none" stroke="#000"/><path d="m1014.5105 1541.7179.053 4.9057" fill="none" stroke="#000"/><path d="m1019.2964 1541.7713v4.9056" fill="none" stroke="#000"/><path d="m1024.0824 1541.878v4.6923" fill="none" stroke="#000"/><path d="m1090.5539 1541.878v4.9056" fill="none" stroke="#000"/><path d="m1095.6589 1541.9846v4.9056" fill="none" stroke="#000"/><path d="m1100.5511 1542.0913v4.7925" fill="none" stroke="#000"/><path d="m1010.7881 1719.123.4254-25.3817 8.5083-10.8778-.4254-76.3583-3.4033-6.6121-.013-21.217 10.8573-.022-.031 10.3613 3.9153.075-.084-10.3512 10.252.062.044 10.3732h3.7757l-.1064-10.3483 11.1672.053v10.3485h3.7756l.053-10.433 10.3593-.01-.044 10.4394h3.7766l-.047-10.5241 11.0012.1224.053 10.3483 3.6426-.053-.088-10.3933 11.2818.076-.053 20.1287-3.616 7.6785-.1063 76.3049 8.0829 10.4513.319 25.9682" fill="none" stroke="#000"/><path d="m1009.6182 1541.558v12.1575l3.616 4.4792.1064 21.3292" fill="none" stroke="#000"/><path d="m1028.3366 1541.4514.1063 12.3707-2.4461 4.5859-.2128 20.6893" fill="none" stroke="#000"/><path d="m1008.4483 1561.3941 4.8923-3.3061h12.6562l4.2542 3.7326" fill="none" stroke="#000"/><path d="m1105.0508 1542.1445v12.1576l-3.6162 4.4792-.1062 21.3291" fill="none" stroke="#000"/><path d="m1086.3324 1542.0379-.1064 12.3709 2.4461 4.5858.2128 20.6892" fill="none" stroke="#000"/><path d="m1082.3018 1557.5595 3.616-3.1993 18.7184-.1066 4.7859 3.6259" fill="none" stroke="#000"/><path d="m1049.6074 1521.5086-.069 6.6121" fill="none" stroke="#000"/><path d="m1056.9458 1521.4213-.044 6.5927" fill="none" stroke="#000"/><path d="m1065.1351 1521.6099v6.75" fill="none" stroke="#000"/><path d="m1105.6561 1583.1497.1064 8.9584" fill="none" stroke="#000"/><path d="m1112.1437 1586.5624-.1063 7.9985" fill="none" stroke="#000"/><path d="m1054.232 1570.6471-.097-15.1948s2.6741-6.9273 6.2653 0l.024 15.2061-6.1922-.011z" fill="#0f47af" stroke="#000"/><path d="m1032.8698 1645.5609-.1334-21.8416s3.669-9.9574 8.5961 0l.033 21.8578-8.4958-.016z" fill="#0f47af" stroke="#000"/><path d="m1073.8358 1645.4542-.1318-21.8417s3.6237-9.9573 8.4902 0l.033 21.8578-8.3911-.016z" fill="#0f47af" stroke="#000"/><path d="m1048.1273 1686.7709s3.3227-7.1709 9.7204-7.3273c0 0 5.4157-.1833 9.1607 7.0143v32.7803l-19.0371-.078.156-32.3891z" fill="#0f47af" stroke="#000"/></g><use transform="translate(325 -250)" xlink:href="#a"/><use transform="translate(325 250)" xlink:href="#b"/></g></svg>