<svg height="937.50012" width="1875" xmlns="http://www.w3.org/2000/svg"><path d="m-.00001125 468.75020688h1875v468.74990625h-1875z" fill="#fc0"/><path d="m-.00001125-.00001188h1875v468.74990625h-1875z" fill="#f00"/><g stroke="#000" transform="matrix(2.73948191 0 0 2.74136844 479.417639 -1258.36529)"><path d="m76.9375 517.15625v4.375 109.15625c0 38.67713 15.828581 60.62544 34.625 75.21875 18.79642 14.59331 40.14809 22.69914 52.15625 34.6875l3.09375 3.09375 3.0625-3.09375c12.00739-11.96543 33.35899-20.03417 52.15625-34.625s34.65625-36.56118 34.65625-75.25v-109.1875-4.375h-4.375-171.03125zm8.71875 8.75h162.28125v104.8125c0 36.38336-13.82777 54.82025-31.25 68.34375-16.22446 12.59376-35.83555 20.23861-49.875 32.59375-14.03912-12.37714-33.64976-20.05918-49.875-32.65625-17.423074-13.52706-31.28125-31.94157-31.28125-68.3125z" fill="#ffe800" stroke-width="1.457576"/><path d="m252.30829 630.72393v-109.18908h-171.013377v109.16495c0 75.04806 59.371287 80.7186 85.506687 106.81092 26.1354-26.04407 85.50669-31.71461 85.50669-106.78679z" fill="#f00"/><path d="m81.28125 539.6875v16.375h171v-16.375zm0 32.75v16.375h171v-16.375zm0 32.75v16.375h171v-16.375zm.21875 32.71875c.319975 5.90754 1.038712 11.34575 2.09375 16.375h166.4375c1.05349-5.03138 1.74398-10.46513 2.0625-16.375z" fill="#fff" stroke-linecap="round" stroke-linejoin="round"/><path d="m166.9375 572.40625-77.9375 98.84375c16.91739 37.99686 57.45183 45.92289 77.8125 66.25 20.40676-20.33545 61.05794-28.23957 77.90625-66.46875z" fill="#00c"/><g stroke-width=".625"><path d="m166.8451 630.71958-4.48308 7.8571h-9.19461l4.5973 8.0593-4.5973 8.0593h9.19461l4.48308 7.8571 4.48308-7.8571h9.22316l-4.5973-8.0593 4.5973-8.0593h-9.22316z" fill="#ff0" stroke-linecap="round" stroke-linejoin="round"/><path d="m122.16251 655.38227c11.89038-18.28264 37.45287-61.35719 64.0726-50.17733-26.34302 6.10926-40.00258 29.75132-55.58105 54.80909z" fill="#fff"/><path d="m171.80863 607.21544c-16.4592 8.24512-31.40788 25.87841-44.21446 49.4001" fill="none"/><path d="m137.21571 659.04908c-2.54031.41293-2.87679-2.13699-1.73691-3.18433 1.68215-1.54559 5.34817.12865 5.40372 3.18433.0386 2.12351-3.28519 4.77075-5.40372 4.92124-6.67948.47446-16.0162-11.00625-18.8165-7.91258 0 0 4.73135-.37736 1.54392 2.89484-1.40609 1.44349-4.66917-1.29607-5.01774-3.28082-.31927-1.81796 1.78784-3.28407 3.57032-3.76331 2.84856-.76586 5.26426 2.43696 8.20206 2.70186 1.35913.12255 4.05279-.57897 4.05279-.57897s.74312 1.9132 1.25443 2.79835c.89266 1.5453 5.00537 3.04411 6.94763 2.21939z" fill="#ff0" stroke-linejoin="round"/><path d="m182.5683 674.29527c-5.2716 2.96955-10.93044 11.28529-13.79876 11.09691-5.69145-.37381-17.6076-8.56385-27.40455-14.18475-5.33027-8.62412-9.27751-10.54102-13.60578-12.15836l-6.36866 21.23858c4.16688 2.01786 9.26926 2.72 14.86021 2.88514 8.7656 11.83613 20.22853 19.92541 32.61527 27.98352 7.99287-5.89891 15.34821-11.03278 24.5097-18.33403 2.29969-5.60828 3.10142-14.5211-10.80743-18.52701z" fill="#fff"/><path d="m122.0625 676.90625c-.70802.0438-2.13795.16096-2.36571.83277-1.33935 1.64574-1.07979 2.74472-2.77122 4.05714.82134-.72752 1.71398-1.68672.99841-2.7368-.58087-.74449-2.26438-.96161-3.00887-.38074-1.38363 1.07861-2.30731 1.67336-2.20246 3.68385.0908 1.74111.97886 3.00698 2.44078 3.41721s3.66588 1.33028 5.11629.14578c1.45041-1.18431 3.13337-3.27739 4.15298-6.09924.42437-1.11561-1.16842-2.9854-2.36022-2.91997z" fill="#ff0" stroke-linejoin="round"/></g><g fill="#fff"><g stroke-width=".625"><path d="m193.37573 692.82228s2.125.40285 2.89484-.19299c8.07779-6.25208 19.87795-17.56206 19.87795-17.56206l-9.4565-38.01898c-7.23438 1.51683-12.2707 4.88261-12.35134 19.68495-3.22761 7.50145-11.77238 13.34423-11.77238 15.0532v2.50887c5.93091 5.34409 9.96357 11.36612 10.80743 18.52701z"/><path d="m206.75 633.40625a1.50015 1.50015 0 0 0 -1.375 1.625c1.04753 14.89054 5.40718 27.86734 9.625 40.75a1.50015 1.50015 0 1 0 2.84375-.9375c-4.22202-12.89546-8.45358-25.60081-9.46875-40.03125a1.50015 1.50015 0 0 0 -1.625-1.40625z"/><path d="m193.0625 655.90625a1.50015 1.50015 0 0 0 -.90625 2.6875l20.0625 15.96875a1.5007322 1.5007322 0 1 0 1.875-2.34375l-20.0625-15.96875a1.50015 1.50015 0 0 0 -.96875-.34375z"/><path d="m191.28439 658.45987a1.50015 1.50015 0 0 0 -.75 2.6875l20.0625 15.9375a1.50015 1.50015 0 1 0 1.84375-2.34375l-20.0625-15.96875a1.50015 1.50015 0 0 0 -1.09375-.3125z"/><path d="m173.1875 680.46875a1.50015 1.50015 0 0 0 -1.28125 2.03125c2.47267 6.74527 6.14159 12.88271 11.25 18.15625a1.5027644 1.5027644 0 1 0 2.15625-2.09375c-4.80261-4.95786-8.24886-10.69706-10.59375-17.09375a1.50015 1.50015 0 0 0 -1.53125-1z"/><path d="m164.625 682.25a1.50015 1.50015 0 0 0 -1.3125 1c-2.34489 6.39669-5.79114 12.13589-10.59375 17.09375a1.50015 1.50015 0 1 0 2.15625 2.0625c5.10841-5.27354 8.77733-11.37973 11.25-18.125a1.50015 1.50015 0 0 0 -1.5-2.03125z"/><path d="m155.46875 677.34375a1.50015 1.50015 0 0 0 -1.15625 1c-2.37787 6.48666-4.42256 10.32901-9.25 15.3125a1.50015 1.50015 0 1 0 2.15625 2.0625c5.08358-5.24791 7.46656-9.68845 9.90625-16.34375a1.50015 1.50015 0 0 0 -1.65625-2.03125z"/><path d="m141.03125 669.15625a1.50015 1.50015 0 0 0 -1.28125 1.40625c-.48914 5.91459-.98563 6.98383-5.875 12.03125a1.5027644 1.5027644 0 1 0 2.15625 2.09375c5.02165-5.18398 6.21133-7.7706 6.71875-13.90625a1.50015 1.50015 0 0 0 -1.71875-1.625z"/><path d="m168.53348 692.7786 3.27515 16.98981c-.52879 3.3926-5.42933 3.1235-5.86797 0z"/><path d="m221.20873 676.74402c0 2.7509-2.23004 4.98095-4.98095 4.98095-2.7509 0-4.98095-2.23005-4.98095-4.98095s2.23005-4.98095 4.98095-4.98095c2.75091 0 4.98095 2.23005 4.98095 4.98095z" transform="translate(-1.091715)"/></g><path d="m221.20873 676.74402c0 2.7509-2.23004 4.98095-4.98095 4.98095-2.7509 0-4.98095-2.23005-4.98095-4.98095s2.23005-4.98095 4.98095-4.98095c2.75091 0 4.98095 2.23005 4.98095 4.98095z" stroke-width="1.244918" transform="matrix(.50204112 0 0 .50204112 106.58083 336.99069)"/><g stroke-width=".625"><path d="m113.2531 667.32313c-.12923 1.65935.11626 2.88491 1.21509 3.0748l5.03495.47134c1.1781.25362 1.56387-.11796 1.79426-2.03513.22665-1.88612.35259-2.34771-.82551-2.60133l-4.72503-1.08548c-1.54066-.34555-2.14347.77456-2.49376 2.1758z"/><path d="m118.75606 660.98384c-1.15417-.36644-2.91055.1944-3.27718 1.34851s-.81996 2.55776.33412 2.92458l4.99992 1.13151c1.14694.57812 2.82704.0825 3.28255-1.11838.4555-1.20092-.0686-3.14119-1.31046-3.46913-1.38828-.53194-2.82728-.34394-4.02895-.81709z"/><path d="m121.06589 657.37062c-.95149-.15091-1.96254.51549-2.76485 1.40313-.64599.71469-.99087 1.83952-.0576 2.07857l5.12997 1.17701c1.02977.39326 2.19111.4296 2.49817-.62908s-.0626-3.08107-1.14293-3.29983c-2.10019-.82449-2.12982-.48667-3.66273-.7298z"/><path d="m114.20374 670.19651c-1.02275-.0411-.95747.97356-.99838 1.99632-.0409 1.02275-.14064 2.37163.88211 2.41238l5.63644.51911c1.01447.13908 1.18388-.75047 1.32296-1.76495.13909-1.01447.14968-2.16053-.86479-2.29961-1.55658-.16821-4.61453-.73129-5.97834-.86325z"/><path d="m112.94865 676.48156c-.0317.78465.88175 2.16865 1.66376 2.24033l4.01259.15311c.80999.10646 1.64381-.53373 1.75018-1.34373.10636-.81.34625-2.34262-.46377-2.44889l-4.56173-.39136c-1.08612-.0581-2.49007-.008-2.40103 1.79054z"/><path d="m123.53511 659.5821c-.64707.98347-1.37746 1.92125.10838 2.74713l2.44419 1.18998c.89631.71294 2.99154.3064 3.55068-.75502.55913-1.06144-.33524-2.88712-1.32367-3.42518l-2.50332-.95049c-1.12678-.62252-1.74205.38165-2.27626 1.19358z"/><path d="m121.2654 663.89053c-.11673 1.07276-.69623 2.57244.21996 2.90456l3.45777 1.12345c1.04369.38465 2.87568-.27751 3.21815-1.44914.34248-1.17162-.89402-2.52225-1.93805-2.90648l-2.57991-1.41876c-1.38726-.41382-1.94793.67468-2.37792 1.74637z"/><path d="m133.16293 672.36537c-2.63753-3.25482-5.27505-3.31146-7.91258-3.8598"/><path d="m120.42694 668.14529c-.14451 1.23798-.8423 2.85214.23665 3.15554l3.72145.75516c1.17688.48872 2.74771.08 3.09807-1.27253.35038-1.35254-.61057-2.32744-1.83741-2.62329l-3.41248-1.18524c-1.31244-.28135-1.19717-1.24701-1.80628 1.17036z"/><path d="m119.84107 673.41076c-.17682.81721-.0717 1.96352.66238 2.13141l4.08932.54064c.84704.28275 1.81385-.13031 1.98716-1.10302s-.43721-2.55386-1.31604-2.65856l-4.41829-.99292c-.98692-.37281-.79025 1.09208-1.00453 2.08245z"/><path d="m119.52212 677.06928c-.0551.90074-1.32335 1.90198 1.58258 2.16827l2.77177.52439c.82358.15583 1.41071-.75958 1.54934-1.68411.13863-.92451-.43667-2.2311-1.26032-2.38648l-3.15644-.63234c-1.1081-.0735-1.21375.52716-1.48693 2.01027z"/></g></g></g></svg>