<svg height="1100" viewBox="0 0 165 110" width="1650" xmlns="http://www.w3.org/2000/svg" xmlns:xlink="http://www.w3.org/1999/xlink"><path d="m0 0h165v110h-165z"/><g transform="matrix(1.1 0 0 1 55 27.5)"><path d="m-5 0h60v55h-60z" fill="#fff"/><path id="a" d="m0 10q5 4 10 0t10 0 10 0 10 0 10 0v10q-5 4-10 0t-10 0-10 0-10 0-10 0z" fill="#0f47af"/><use transform="translate(0 -20)" xlink:href="#a"/><use transform="translate(0 20)" xlink:href="#a"/><use transform="translate(0 40)" xlink:href="#a"/></g><path d="m0 0h82.5l17.5 15-17.5 12.5a27.5 27.5 0 0 0 -27.5 27.5l-25 15-30-15zm165 110h-82.5l-22.5-15 22.5-12.5a27.5 27.5 0 0 0 27.5-27.5l25-25 30 25z" fill="#fcdd09"/><path d="m82.5 0h82.5v55h-55a27.5 27.5 0 0 0 -27.5-27.5zm-82.5 55h55a27.5 27.5 0 0 0 27.5 27.5v27.5h-82.5z" fill="#078930"/></svg>