<svg enable-background="new -206.276 -206.676 474.396 475.97" height="470" viewBox="-206.276 -206.676 470.00001 470" width="470" xmlns="http://www.w3.org/2000/svg"><path d="m-206.276-206.67599h470v470h-470z" fill="#fff" stroke-width=".996543"/><g fill="#010202" transform="matrix(.97253904 0 0 1 -6.903394 -5.723158)"><path d="m101.836 49.002h-117.16l-30.778 194.758 52.176-39.586 37.168 40.375v.032-.032l37.18-40.375 52.18 39.586z" transform="translate(-1.775999 -1.775999)"/><path d="m112.38 35.641001c0-4.125-3.352-7.473-7.469-7.473-.063 0-.125.02-.172.02h-126.769999c-.047 0-.109-.02-.16-.02-4.145 0-7.469 3.348-7.469 7.473 0 4.133 3.324 7.477 7.469 7.477h.035v.031h127.097999v-.031c4.102-.017 7.438-3.36 7.438-7.477"/><path d="m105.357-13.062999c0-4.113-3.023-7.457-6.741999-7.457-.031 0-.078.016-.141.016h-114.238c-.031 0-.09-.016-.137-.016-3.719 0-6.727 3.344-6.727 7.457 0 4.1290004 3.008 7.4880004 6.727 7.4880004 0 0 .016-.016.023-.016v.047h114.508v-.047c3.718999.001 6.726999-3.343 6.726999-7.4720004"/><path d="m111.927-.94899854h-140.804999c-6.781 0-12.297 5.51199994-12.297 12.31299954 0 6.781 5.523 12.297 12.32 12.297h.082 140.597999.102c6.797-.001 12.297-5.517 12.297-12.298 0-6.7929996-5.508-12.31199954-12.297-12.31199954"/><path d="m-57.298999-85.620999c3-14.258 22.375-19.563001 34.52.254 4.75 7.754 7.766 50.793-42.535 49.297-30.523-.918-52.305001-37.535-43.539001-76.832001 8.801-39.457 48.547001-62.656 83.074001-61.785 60.301 1.504 91.082 47.832 99.848 73.809 8 23.777001 12.719 55.680001 12.516 75.875001h-90.326c6.313-36.664 2.496-51.609 2.496-51.609s-8.777-37.273001-35.031-37.273001c-26.266 0-31.785 23.266001-31.785 23.266001s-2.887 18.215 10.25 21.016c3.52.758 10.398.223 10.398-8.52-.008-4.354-3.574-8.26-9.886-7.498"/></g></svg>