<svg height="1000" width="1416" xmlns="http://www.w3.org/2000/svg" xmlns:xlink="http://www.w3.org/1999/xlink"><path d="m0 0h1416v1000h-1416z" fill="#0f204b"/><g fill="#ffb612" transform="matrix(57.489785 0 0 57.489785 1157.996 187.48979)"><g id="a"><path id="b" d="m0 0v1h.5z" transform="matrix(.95105652 .30901699 -.30901699 .95105652 0 -1)"/><use transform="scale(-1 1)" xlink:href="#b"/></g><use transform="matrix(.30901699 .95105652 -.95105652 .30901699 0 0)" xlink:href="#a"/><use transform="matrix(.30901699 -.95105652 .95105652 .30901699 0 0)" xlink:href="#a"/><use transform="matrix(-.80901699 .58778525 -.58778525 -.80901699 0 0)" xlink:href="#a"/><use transform="matrix(-.80901699 -.58778525 .58778525 -.80901699 0 0)" xlink:href="#a"/></g><g id="c" fill="#ffb612" transform="matrix(34.272757 0 0 34.272757 228.99533 399.27276)"><path d="m0 0v1h.5z" transform="matrix(.95105652 .30901699 -.30901699 .95105652 0 -1)"/><use transform="scale(-1 1)" xlink:href="#b"/><use transform="matrix(.30901699 .95105652 -.95105652 .30901699 0 0)" xlink:href="#a"/><use transform="matrix(.30901699 -.95105652 .95105652 .30901699 0 0)" xlink:href="#a"/><use transform="matrix(-.80901699 .58778525 -.58778525 -.80901699 0 0)" xlink:href="#a"/><use transform="matrix(-.80901699 -.58778525 .58778525 -.80901699 0 0)" xlink:href="#a"/></g><use transform="translate(167 62)" xlink:href="#c"/><use transform="translate(250 151)" xlink:href="#c"/><use transform="translate(334 244)" xlink:href="#c"/><use transform="translate(584 333)" xlink:href="#c"/><use transform="translate(323 375)" xlink:href="#c"/><use transform="translate(511 437)" xlink:href="#c"/></svg>