<svg height="688" width="1077" xmlns="http://www.w3.org/2000/svg"><path d="m.18707.178639h1076.8231v245.50974h-1076.8231z"/><g fill-rule="evenodd"><path d="m287.81673 278.73975a118.77184 123.74369 0 1 1 -.002.86513" fill="#ebeb81" transform="matrix(1.2621601 0 0 1.0957501 -425.31383 -136.82754)"/><path d="m287.81673 278.73975a118.77184 123.74369 0 1 1 -.002.86513" fill="#ffff4e" transform="matrix(1.0826215 0 0 .9771584 -351.61974 -105.01663)"/><path d="m287.81673 278.73975a118.77184 123.74369 0 1 1 -.002.86513" fill="#ffbd00" transform="matrix(.89525561 0 0 .84778562 -274.57977 -63.082572)"/></g><g transform="matrix(.64811101 0 0 .61076064 -170.896783 -20.206773)"><g fill-rule="evenodd"><g transform="matrix(.03170819 -.446194 .428766 -.0283916 395.1652 400.5151)"><path d="m397.65625-88.984376s25.78125-10.9375 35.9375-25.390624c10.15625-14.45313 12.5-46.875 5.85938-50.39063-6.64063-3.51562-25.56992 4.2101-34.76563 23.4375-12.89063 26.95313-7.42188 53.906254-7.03125 52.343754z" fill="#8d2001"/><g fill="#d36d2d"><path d="m433.59375-156.95313s-5.85937 1.17188-18.35937 25.39063-12.5 33.593749-12.5 33.593749 5.07812-10.156249 16.01562-31.249999 14.84375-27.73438 14.84375-27.73438z"/><path d="m428.51563-160.07813s-9.375 1.95313-19.14063 21.48438c-9.76562 19.53125-10.9375 30.85937-10.9375 30.85937s3.18774-21.35786 8.20313-30.85937c10.84902-20.55314 21.875-21.48438 21.875-21.48438z"/><path d="m439.45313-157.73438s-1.5625 21.09375-7.42188 30.46875c-5.85937 9.375-21.875 27.734379-21.875 27.734379s10.9375-12.109379 20.3125-30.078129 8.98438-27.73437 8.98438-28.125z"/></g></g><g transform="matrix(.580672 -.03121112 .107342 .456652 83.62885 322.2916)"><path d="m397.65625-88.984376s25.78125-10.9375 35.9375-25.390624c10.15625-14.45313 12.5-46.875 5.85938-50.39063-6.64063-3.51562-25.56992 4.2101-34.76563 23.4375-12.89063 26.95313-7.42188 53.906254-7.03125 52.343754z" fill="#8d2001"/><g fill="#d36d2d"><path d="m433.59375-156.95313s-5.85937 1.17188-18.35937 25.39063-12.5 33.593749-12.5 33.593749 5.07812-10.156249 16.01562-31.249999 14.84375-27.73438 14.84375-27.73438z"/><path d="m428.51563-160.07813s-9.375 1.95313-19.14063 21.48438c-9.76562 19.53125-10.9375 30.85937-10.9375 30.85937s3.18774-21.35786 8.20313-30.85937c10.84902-20.55314 21.875-21.48438 21.875-21.48438z"/><path d="m439.45313-157.73438s-1.5625 21.09375-7.42188 30.46875c-5.85937 9.375-21.875 27.734379-21.875 27.734379s10.9375-12.109379 20.3125-30.078129 8.98438-27.73437 8.98438-28.125z"/></g></g><g transform="matrix(.362453 -.312128 .339759 .288235 234.6133 412.4092)"><path d="m397.65625-88.984376s25.78125-10.9375 35.9375-25.390624c10.15625-14.45313 12.5-46.875 5.85938-50.39063-6.64063-3.51562-25.56992 4.2101-34.76563 23.4375-12.89063 26.95313-7.42188 53.906254-7.03125 52.343754z" fill="#8d2001"/><g fill="#d36d2d"><path d="m433.59375-156.95313s-5.85937 1.17188-18.35937 25.39063-12.5 33.593749-12.5 33.593749 5.07812-10.156249 16.01562-31.249999 14.84375-27.73438 14.84375-27.73438z"/><path d="m428.51563-160.07813s-9.375 1.95313-19.14063 21.48438c-9.76562 19.53125-10.9375 30.85937-10.9375 30.85937s3.18774-21.35786 8.20313-30.85937c10.84902-20.55314 21.875-21.48438 21.875-21.48438z"/><path d="m439.45313-157.73438s-1.5625 21.09375-7.42188 30.46875c-5.85937 9.375-21.875 27.734379-21.875 27.734379s10.9375-12.109379 20.3125-30.078129 8.98438-27.73437 8.98438-28.125z"/></g></g><g transform="matrix(.59172 -.192806 .25314 .521413 127.5482 439.5849)"><path d="m397.65625-88.984376s25.78125-10.9375 35.9375-25.390624c10.15625-14.45313 12.5-46.875 5.85938-50.39063-6.64063-3.51562-25.56992 4.2101-34.76563 23.4375-12.89063 26.95313-7.42188 53.906254-7.03125 52.343754z" fill="#8d2001"/><g fill="#d36d2d"><path d="m433.59375-156.95313s-5.85937 1.17188-18.35937 25.39063-12.5 33.593749-12.5 33.593749 5.07812-10.156249 16.01562-31.249999 14.84375-27.73438 14.84375-27.73438z"/><path d="m428.51563-160.07813s-9.375 1.95313-19.14063 21.48438c-9.76562 19.53125-10.9375 30.85937-10.9375 30.85937s3.18774-21.35786 8.20313-30.85937c10.84902-20.55314 21.875-21.48438 21.875-21.48438z"/><path d="m439.45313-157.73438s-1.5625 21.09375-7.42188 30.46875c-5.85937 9.375-21.875 27.734379-21.875 27.734379s10.9375-12.109379 20.3125-30.078129 8.98438-27.73437 8.98438-28.125z"/></g></g><g stroke="#004242" stroke-width="1.771654"><path d="m423.04688 357.89062c-14.0625-7.03125-32.03125-16.01562-39.0625-19.14062s-18.75-7.8125-24.21875-16.01563c-5.46875-8.20312-26.17188-22.65625-26.17188-27.34375s-1.5625-37.89063-3.125-42.57813-1.17187-17.57812 3.12501-22.65625c4.97655-5.88137 10.15624-17.18749 12.89062-22.26562 2.73437-5.07812 17.1875-14.84375 12.5-16.40625s-21.48438 19.14063-21.48438 20.70313-12.5 19.53125-12.5 19.53125l-1.17187 20.3125 7.03125 50 39.45312 39.45312s12.10938 4.6875 13.67188 7.42188c1.5625 2.73437 16.40625 7.8125 21.875 9.76562 5.46875 1.95313 11.32812 7.8125 11.32812 7.8125z" fill="#008400"/><path d="m418.35938 361.01562c-2.14844 2.73438-1.36719 5.46875-1.36719 5.46875s1.36719 2.92969 3.90625 4.49219 6.83594 1.17188 8.59375-.39062-1.17188-7.22657-2.34375-8.20313c-1.17188-.97656-4.49219-4.29687-4.49219-4.29687z" fill="#b94100"/><g fill="#008400"><path d="m330.46875 245.78124c0 7.8125 3.125 18.35938 5.46875 23.4375 2.34375 5.07813 12.89062 8.98438 13.28125 13.28125.39062 4.29688 6.25 15.23438 6.25 15.23438s6.64062-15.23438 3.51562-23.4375c-3.125-8.20313-16.40625-25-19.92187-26.95313-3.51563-1.95312-7.8125-1.5625-8.59375-1.5625z"/><path d="m328.90626 224.68749s-8.98438-5.85937-12.5-5.46875c-3.51563.39063-11.32813 4.29688-13.67188 8.20313s-6.25 18.35937-6.25 18.35937 11.32813-5.46875 14.84375-7.8125c3.51563-2.34375 10.15625-1.17187 12.10938-4.29687 1.95312-3.125 6.25-8.20313 5.46875-8.98438z"/><path d="m333.98438 223.90625c2.73437-.39062 9.76562-3.51562 14.45312-1.17187s9.76563 6.25 12.10938 10.54687c2.34375 4.29688 2.73437 21.875 2.73437 21.875s-14.45312-14.0625-16.79687-17.1875-12.10938-13.28125-12.5-14.0625z"/><path d="m334.375 215.70312s4.29688-7.03125 2.34375-10.9375c-1.95312-3.90625-8.20312-7.8125-11.32812-7.8125s-8.20313 2.73438-12.89063 5.07813-5.46875 13.28125-5.46875 16.01562c0 2.73438 8.59375-6.64062 11.32813-7.8125 2.73437-1.17187 8.98437 0 10.54687 0z"/><path d="m340.625 205.15625s9.76563-.39063 10.54688-3.51563 1.17187-9.375-1.5625-10.9375c-2.73438-1.5625-22.65625-2.34375-22.65625-2.34375s11.32812 2.73438 11.71875 6.64063c.39062 3.90625 0 8.20312 0 8.20312z"/><path d="m351.95313 313.75s-4.6875 4.29687-7.8125 6.64062-3.51563 14.84375-3.51563 19.53125 1.17188 18.35938 1.17188 18.35938 10.15625-2.34375 10.15625-6.64063c0-4.29687 2.73437-10.54687 2.73437-10.54687s6.25-6.64063 6.64063-10.9375c.39062-4.29688-8.59375-16.01563-9.375-16.40625z"/><path d="m353.125 303.59375s8.98438-2.34375 14.0625 0c5.07813 2.34375 9.375 7.42187 10.54688 15.625 1.17187 8.20312 1.95312 19.92187 1.17187 24.21875-.78125 4.29687-5.85937 11.32812-5.85937 11.32812s.39062-8.98437-1.17188-12.10937-5.46875-3.90625-5.85937-6.64063c-.39063-2.73437.78125-5.46875-.39063-8.59375-1.17187-3.125-8.59375-8.98437-10.54687-10.9375-1.95313-1.95312-4.29688-5.85937-4.29688-8.59375 0-2.73437 2.73438-3.90625 2.34375-4.29687z"/></g></g><g transform="matrix(.685504 -.346439 .415701 .571289 90.446 535.0659)"><path d="m397.65625-88.984376s25.78125-10.9375 35.9375-25.390624c10.15625-14.45313 12.5-46.875 5.85938-50.39063-6.64063-3.51562-25.56992 4.2101-34.76563 23.4375-12.89063 26.95313-7.42188 53.906254-7.03125 52.343754z" fill="#8d2001"/><g fill="#d36d2d"><path d="m433.59375-156.95313s-5.85937 1.17188-18.35937 25.39063-12.5 33.593749-12.5 33.593749 5.07812-10.156249 16.01562-31.249999 14.84375-27.73438 14.84375-27.73438z"/><path d="m428.51563-160.07813s-9.375 1.95313-19.14063 21.48438c-9.76562 19.53125-10.9375 30.85937-10.9375 30.85937s3.18774-21.35786 8.20313-30.85937c10.84902-20.55314 21.875-21.48438 21.875-21.48438z"/><path d="m439.45313-157.73438s-1.5625 21.09375-7.42188 30.46875c-5.85937 9.375-21.875 27.734379-21.875 27.734379s10.9375-12.109379 20.3125-30.078129 8.98438-27.73437 8.98438-28.125z"/></g></g><path d="m324.60938 251.25s-11.32813 3.51562-13.67188 10.9375c-2.34375 7.42187-10.15625 23.82812-8.20312 31.64062 1.95312 7.8125 5.46875 24.21875 5.46875 24.21875s7.03125-10.9375 13.28125-19.92187c6.25-8.98438 10.15625-21.875 10.54687-30.46875.39063-8.59375-7.42187-15.625-7.42187-16.40625z" fill="#008400" stroke="#004242" stroke-width="1.771654"/></g><g transform="translate(-24.99734 -10.63422)"><path d="m395.54132 181.90831c-.36131.31972-1.86298 1.67167-2.71875 2.90625-.18667.2693-.40067.62537-.65625 1.03125-.003.004-.0287-.004-.0312 0-.75982-.0358-1.41478-.12965-1.75-.3125-.0261-.0154-.0719-.0459-.0937-.0625-.0271-.0227-.0749-.0688-.0937-.0937-.004-.006.004-.0247 0-.0312-.41343-.74349-1.21516-2.27768-1.4375-2.5625-.007-.008-.0256-.0261-.0312-.0312-.0236.0102-.0712.0189-.0937.0312-.0369.0217-.0909.0664-.125.0937-.0268.0227-.0686.0677-.0937.0937-.0124.0134-.0505.0483-.0625.0625-.64806.80106-.72713 2.75017-1.25 3.71875-.57991 1.07424-7.2637 12.02541-7.5 13.46875-.00075.006.00053.026 0 .0312-.00031.005.00009.0266 0 .0312.00014.004-.00036.0273 0 .0312.00082.003-.001.0283 0 .0312.002.002.0295-.002.0312 0 .38978.41986 2.40235 2.4837 4.125 2.6875-.43716.11087-.78577.26976-.96875.4375-.0128.0126-.0514.0496-.0625.0625-.005.007-.0265.0246-.0312.0312-.0506.0752-.0919.18706-.125.28125-.28102.85244.10424 2.36865.65625 2.84375.006.005.0256.0268.0312.0312.006.004.0255.0273.0312.0312.0232.015.0701.0201.0937.0312.006.003.0253.029.0312.0312.006.002.0252-.002.0312 0 .0181.005.0443.0291.0625.0312.77875.0918 5.96722 1.85907 7.15625 1.5 1.18904-.35906 3.2743-1.37359 4.125-2.125.24351-.21509.59654-.46774.96875-.75.0762.31402.1299.57553.1875.6875.002.003-.002.0288 0 .0312.002.002.0295-.002.0312 0 .00093.00039.0303-.00032.0312 0 .002-.001.0289.002.0312 0 .003-.003.0282-.0278.0312-.0312.16157-.20777.50105-.91869.875-1.71875.0511-.061.0924-.13198.125-.1875.003-.007-.003-.0239 0-.0312.007-.0122.0255-.0194.0312-.0312.003-.006.0289-.0255.0312-.0312.002-.006-.002-.0257 0-.0312.003-.007-.003-.0239 0-.0312.00089-.005-.0006-.026 0-.0312.51172-1.11269 1.04952-2.33238 1.21875-2.75.32444-.80068 1.96488-2.06108 2.15625-2.625.001-.004.0303-.027.0312-.0312.00076-.004-.00049-.0271 0-.0312-.00003-.004.00028-.0272 0-.0312-.00053-.004.00077-.0272 0-.0312-.002-.008-.0283-.0233-.0312-.0312-.002-.004.002-.0274 0-.0312-.002-.004-.0287-.0274-.0312-.0312-.27747-.34951-1.42799-.58583-1.8125-.65625-.012-.007-.0188-.0245-.0312-.0312-.0142-.003-.0202.002-.0312 0-.22989-.1204-.53542-.26628-.8125-.375 2.09546-1.87535 4.74663-4.78023 5.75-6.5625 1.03635-1.84088.8934-3.36253.21875-4.125-.014-.0152-.048-.0479-.0625-.0625-.0147-.0143-.0474-.0489-.0625-.0625-.17631-.15293-.3997-.28376-.625-.34375-.71283-.18979-2.06352.01-3.09375.21875-.2032-1.28278-.63048-2.47772-1.0625-2.84375-.0266-.021-.0671-.0479-.0937-.0625-.85413-.46743-1.65817-1.05823-3.34375-.0312-.26337.16047-.57008.39666-.875.6875l1-2.3125z" fill="none" stroke="#701014" stroke-width="1.771654"/><g fill-rule="evenodd" transform="matrix(.256431 -.06046875 -.07364635 .302247 226.6495 294.201)"><path d="m558.22767-256.91843c-3.72889.69053-1.24296 9.25315-2.62403 12.70582s-19.61117 39.49854-17.26335 41.57015c2.34781 2.0716 15.88228 13.53446 22.92573 13.25825 7.04344-.27622 37.61038 8.06851 41.15582 2.48592 5.13512-8.08569-3.17645-53.72354-7.87209-53.58543-4.69563.13811-24.85922-2.76214-27.62136-6.0767-2.76213-3.31457-8.42451-10.49612-8.70072-10.35801z" fill="#701014"/><path d="m585.84902-254.43251s-5.93859 4.00509-8.56262 8.1483c-2.62403 4.1432-8.28641 15.74417-6.35291 17.40145 1.93349 1.65728 11.04854-11.04854 11.04854-11.04854z" fill="#ba1126"/><path d="m597.86431-246.008s4.1432 2.62403 5.66238 5.24806c1.51917 2.62403 2.90024 8.97694 2.90024 8.97694l-14.50121 11.18665-15.88228-13.67257 5.52427-10.0818 10.49612-4.00509z" fill="#cf1735"/><path d="m588.61115-238.55022c2.30183 1.13621 3.07057 3.85714 3.36062 6.21411.37614 3.0328.1518 6.10718-.32226 9.11573-3.72889 2.76213-7.45776 5.52428-11.18664 8.28641-2.16368-2.34781-4.32735-4.69563-6.49103-7.04345.32225-3.63681.64449-7.27362.96674-10.91043 4.55752-1.88746 3.59078-7.5038 13.67257-5.66237z" fill="#bd0412"/><path d="m614.02281-196.01334s8.97694 2.90024 9.11504 4.69563c.13811 1.79539-5.80048 4.97185-6.35291 7.59587-.55243 2.62403-3.72888 15.05365-4.69563 15.19175-.96675.13811-3.45267-8.83883-9.39126-10.49611-5.93859-1.65729 2.34781-12.42962 2.34781-12.42962z" fill="#e24b74"/><path d="m606.97936-199.60412s9.25315 4.14321 9.25315 5.10995c0 .96675-8.70072 10.49612-9.94368 11.60098-1.24297 1.10485-15.46797 5.93859-15.46797 5.93859l-6.35291-21.26845z" fill="#ad040b"/><path d="m587.64441-185.51722c-15.19175-2.90025-31.62646-5.80049-33.28374-3.31457-1.65728 2.48593 3.31456 11.18665 6.62913 12.1534 3.31456.96675 26.5165 11.46286 31.07403 11.18665 4.55752-.27621 12.15339-2.0716 14.91553-4.0051 2.76214-1.93349 11.04854-4.97184 6.0767-6.90534-4.97185-1.93349-25.54976-8.83883-25.41165-9.11504z" fill="#bb0713"/><path d="m560.57548-228.60655c-8.2892 4.54682-4.28131 26.3784-1.24296 29.83107s27.75946 12.29151 29.69296 12.29151c1.93349 0 4.00509-1.65728 4.00509-1.65728l-20.3017-13.12015s-3.97057-31.83362-12.15339-27.34515z" fill="#c90d28"/><path d="m566.23785-225.15387c.41432.96674.82865 3.03834.82865 4.97184 0 1.93349-2.90025 10.63422-1.10486 13.12015 1.79539 2.48592 11.18665-3.31457 15.74418-6.62913 4.55752-3.31456 9.52936-8.42451 6.62912-7.87209-2.90024.55243-22.3733-3.72888-22.09709-3.59077z" fill="#bf0b16"/><path d="m602.97426-234.54514s12.42961-.41432 17.95389 1.79539c5.52427 2.20971 9.94368 9.25316 6.76723 16.57282-3.17646 7.31966-16.57282 19.33495-23.47816 21.95898s-17.67767 5.52427-18.23009 5.24806c-.55243-.27622-18.78253-16.57282-18.78253-16.57282l36.04588-28.45z" fill="#c5102f"/><path d="m588.33494-192.28446s-7.18155 2.48593 1.9335.41432c9.11505-2.0716 8.83883-2.62403 8.83883-2.62403s18.09199-6.90533 21.26845-16.02038c3.17645-9.11505 5.52427-8.97694 1.93349-13.53447-3.59077-4.55752-16.71092-3.86699-16.71092-3.86699l-35.63155 24.16869z" fill="#b9000d"/><path d="m589.5779-207.06188c1.9335 6.62912 9.66748-5.52428 11.32476-6.62913s9.39126-4.0051 10.2199-9.80558c.82864-5.80049-6.49102-19.88738-10.49611-22.2352-4.0051-2.34781-8.0102-5.10995-13.94879-2.90024s-13.39636 14.50121-13.53446 18.78253c-.13811 4.28131-.55243 6.35291.82864 6.2148 1.38106-.13811.96674-7.45777 3.45267-10.63422 2.48592-3.17646 2.48592-9.25316 7.18155-10.91044s4.69563-1.65728 4.69563-1.65728l.27621-.82864s8.1483 1.93349 9.25316 3.03835c1.10485 1.10485 7.87209 10.08179 8.01019 12.70582.13811 2.62403 3.86699 6.62913 1.24296 9.25316s-6.62912 7.59587-8.1483 7.73398c-1.51917.13811-2.0716-.13811-6.0767 2.62403-4.00509 2.76213-4.41941 5.52427-4.28131 5.24806z" fill="#d54688"/><path d="m558.50387-230.95436c-8.70072-4.1432-3.17645 11.87719 1.10486 19.05874s19.47306 19.05874 24.72112 21.82087c5.24805 2.76214 12.70582 6.62913 13.25825 4.83374.55242-1.79539-3.45267-5.10995-5.10995-6.21481-1.65729-1.10485-12.29151-6.49102-18.50631-11.73907-6.21481-5.24806-13.25826-13.53447-12.98204-19.05874.27621-5.52427-2.62403-8.70073-2.48593-8.70073z" fill="#d22e53"/></g></g><path d="m347.26563 199.29687s5.46875-1.5625 12.10937-1.5625c6.64063 0 12.10938 1.5625 12.10938 5.46875s-1.95313 15.23438-1.95313 15.23438-1.17187-4.6875-3.51562-8.59375-10.54688-7.8125-12.10938-7.8125-5.85937-3.125-6.64062-2.73438z" fill="#008400" fill-rule="evenodd" stroke="#004242" stroke-width="1.771654"/></g><g transform="matrix(-.64811101 0 0 .61076064 354.545208 -20.206773)"><g fill-rule="evenodd"><g transform="matrix(.03170819 -.446194 .428766 -.0283916 395.1652 400.5151)"><path d="m397.65625-88.984376s25.78125-10.9375 35.9375-25.390624c10.15625-14.45313 12.5-46.875 5.85938-50.39063-6.64063-3.51562-25.56992 4.2101-34.76563 23.4375-12.89063 26.95313-7.42188 53.906254-7.03125 52.343754z" fill="#8d2001"/><g fill="#d36d2d"><path d="m433.59375-156.95313s-5.85937 1.17188-18.35937 25.39063-12.5 33.593749-12.5 33.593749 5.07812-10.156249 16.01562-31.249999 14.84375-27.73438 14.84375-27.73438z"/><path d="m428.51563-160.07813s-9.375 1.95313-19.14063 21.48438c-9.76562 19.53125-10.9375 30.85937-10.9375 30.85937s3.18774-21.35786 8.20313-30.85937c10.84902-20.55314 21.875-21.48438 21.875-21.48438z"/><path d="m439.45313-157.73438s-1.5625 21.09375-7.42188 30.46875c-5.85937 9.375-21.875 27.734379-21.875 27.734379s10.9375-12.109379 20.3125-30.078129 8.98438-27.73437 8.98438-28.125z"/></g></g><g transform="matrix(.580672 -.03121112 .107342 .456652 83.62885 322.2916)"><path d="m397.65625-88.984376s25.78125-10.9375 35.9375-25.390624c10.15625-14.45313 12.5-46.875 5.85938-50.39063-6.64063-3.51562-25.56992 4.2101-34.76563 23.4375-12.89063 26.95313-7.42188 53.906254-7.03125 52.343754z" fill="#8d2001"/><g fill="#d36d2d"><path d="m433.59375-156.95313s-5.85937 1.17188-18.35937 25.39063-12.5 33.593749-12.5 33.593749 5.07812-10.156249 16.01562-31.249999 14.84375-27.73438 14.84375-27.73438z"/><path d="m428.51563-160.07813s-9.375 1.95313-19.14063 21.48438c-9.76562 19.53125-10.9375 30.85937-10.9375 30.85937s3.18774-21.35786 8.20313-30.85937c10.84902-20.55314 21.875-21.48438 21.875-21.48438z"/><path d="m439.45313-157.73438s-1.5625 21.09375-7.42188 30.46875c-5.85937 9.375-21.875 27.734379-21.875 27.734379s10.9375-12.109379 20.3125-30.078129 8.98438-27.73437 8.98438-28.125z"/></g></g><g transform="matrix(.362453 -.312128 .339759 .288235 234.6133 412.4092)"><path d="m397.65625-88.984376s25.78125-10.9375 35.9375-25.390624c10.15625-14.45313 12.5-46.875 5.85938-50.39063-6.64063-3.51562-25.56992 4.2101-34.76563 23.4375-12.89063 26.95313-7.42188 53.906254-7.03125 52.343754z" fill="#8d2001"/><g fill="#d36d2d"><path d="m433.59375-156.95313s-5.85937 1.17188-18.35937 25.39063-12.5 33.593749-12.5 33.593749 5.07812-10.156249 16.01562-31.249999 14.84375-27.73438 14.84375-27.73438z"/><path d="m428.51563-160.07813s-9.375 1.95313-19.14063 21.48438c-9.76562 19.53125-10.9375 30.85937-10.9375 30.85937s3.18774-21.35786 8.20313-30.85937c10.84902-20.55314 21.875-21.48438 21.875-21.48438z"/><path d="m439.45313-157.73438s-1.5625 21.09375-7.42188 30.46875c-5.85937 9.375-21.875 27.734379-21.875 27.734379s10.9375-12.109379 20.3125-30.078129 8.98438-27.73437 8.98438-28.125z"/></g></g><g transform="matrix(.59172 -.192806 .25314 .521413 127.5482 439.5849)"><path d="m397.65625-88.984376s25.78125-10.9375 35.9375-25.390624c10.15625-14.45313 12.5-46.875 5.85938-50.39063-6.64063-3.51562-25.56992 4.2101-34.76563 23.4375-12.89063 26.95313-7.42188 53.906254-7.03125 52.343754z" fill="#8d2001"/><g fill="#d36d2d"><path d="m433.59375-156.95313s-5.85937 1.17188-18.35937 25.39063-12.5 33.593749-12.5 33.593749 5.07812-10.156249 16.01562-31.249999 14.84375-27.73438 14.84375-27.73438z"/><path d="m428.51563-160.07813s-9.375 1.95313-19.14063 21.48438c-9.76562 19.53125-10.9375 30.85937-10.9375 30.85937s3.18774-21.35786 8.20313-30.85937c10.84902-20.55314 21.875-21.48438 21.875-21.48438z"/><path d="m439.45313-157.73438s-1.5625 21.09375-7.42188 30.46875c-5.85937 9.375-21.875 27.734379-21.875 27.734379s10.9375-12.109379 20.3125-30.078129 8.98438-27.73437 8.98438-28.125z"/></g></g><g stroke="#004242" stroke-width="1.771654"><path d="m423.04688 357.89062c-14.0625-7.03125-32.03125-16.01562-39.0625-19.14062s-18.75-7.8125-24.21875-16.01563c-5.46875-8.20312-26.17188-22.65625-26.17188-27.34375s-1.5625-37.89063-3.125-42.57813-1.17187-17.57812 3.12501-22.65625c4.97655-5.88137 10.15624-17.18749 12.89062-22.26562 2.73437-5.07812 17.1875-14.84375 12.5-16.40625s-21.48438 19.14063-21.48438 20.70313-12.5 19.53125-12.5 19.53125l-1.17187 20.3125 7.03125 50 39.45312 39.45312s12.10938 4.6875 13.67188 7.42188c1.5625 2.73437 16.40625 7.8125 21.875 9.76562 5.46875 1.95313 11.32812 7.8125 11.32812 7.8125z" fill="#008400"/><path d="m418.35938 361.01562c-2.14844 2.73438-1.36719 5.46875-1.36719 5.46875s1.36719 2.92969 3.90625 4.49219 6.83594 1.17188 8.59375-.39062-1.17188-7.22657-2.34375-8.20313c-1.17188-.97656-4.49219-4.29687-4.49219-4.29687z" fill="#b94100"/><g fill="#008400"><path d="m330.46875 245.78124c0 7.8125 3.125 18.35938 5.46875 23.4375 2.34375 5.07813 12.89062 8.98438 13.28125 13.28125.39062 4.29688 6.25 15.23438 6.25 15.23438s6.64062-15.23438 3.51562-23.4375c-3.125-8.20313-16.40625-25-19.92187-26.95313-3.51563-1.95312-7.8125-1.5625-8.59375-1.5625z"/><path d="m328.90626 224.68749s-8.98438-5.85937-12.5-5.46875c-3.51563.39063-11.32813 4.29688-13.67188 8.20313s-6.25 18.35937-6.25 18.35937 11.32813-5.46875 14.84375-7.8125c3.51563-2.34375 10.15625-1.17187 12.10938-4.29687 1.95312-3.125 6.25-8.20313 5.46875-8.98438z"/><path d="m333.98438 223.90625c2.73437-.39062 9.76562-3.51562 14.45312-1.17187s9.76563 6.25 12.10938 10.54687c2.34375 4.29688 2.73437 21.875 2.73437 21.875s-14.45312-14.0625-16.79687-17.1875-12.10938-13.28125-12.5-14.0625z"/><path d="m334.375 215.70312s4.29688-7.03125 2.34375-10.9375c-1.95312-3.90625-8.20312-7.8125-11.32812-7.8125s-8.20313 2.73438-12.89063 5.07813-5.46875 13.28125-5.46875 16.01562c0 2.73438 8.59375-6.64062 11.32813-7.8125 2.73437-1.17187 8.98437 0 10.54687 0z"/><path d="m340.625 205.15625s9.76563-.39063 10.54688-3.51563 1.17187-9.375-1.5625-10.9375c-2.73438-1.5625-22.65625-2.34375-22.65625-2.34375s11.32812 2.73438 11.71875 6.64063c.39062 3.90625 0 8.20312 0 8.20312z"/><path d="m351.95313 313.75s-4.6875 4.29687-7.8125 6.64062-3.51563 14.84375-3.51563 19.53125 1.17188 18.35938 1.17188 18.35938 10.15625-2.34375 10.15625-6.64063c0-4.29687 2.73437-10.54687 2.73437-10.54687s6.25-6.64063 6.64063-10.9375c.39062-4.29688-8.59375-16.01563-9.375-16.40625z"/><path d="m353.125 303.59375s8.98438-2.34375 14.0625 0c5.07813 2.34375 9.375 7.42187 10.54688 15.625 1.17187 8.20312 1.95312 19.92187 1.17187 24.21875-.78125 4.29687-5.85937 11.32812-5.85937 11.32812s.39062-8.98437-1.17188-12.10937-5.46875-3.90625-5.85937-6.64063c-.39063-2.73437.78125-5.46875-.39063-8.59375-1.17187-3.125-8.59375-8.98437-10.54687-10.9375-1.95313-1.95312-4.29688-5.85937-4.29688-8.59375 0-2.73437 2.73438-3.90625 2.34375-4.29687z"/></g></g><g transform="matrix(.685504 -.346439 .415701 .571289 90.446 535.0659)"><path d="m397.65625-88.984376s25.78125-10.9375 35.9375-25.390624c10.15625-14.45313 12.5-46.875 5.85938-50.39063-6.64063-3.51562-25.56992 4.2101-34.76563 23.4375-12.89063 26.95313-7.42188 53.906254-7.03125 52.343754z" fill="#8d2001"/><g fill="#d36d2d"><path d="m433.59375-156.95313s-5.85937 1.17188-18.35937 25.39063-12.5 33.593749-12.5 33.593749 5.07812-10.156249 16.01562-31.249999 14.84375-27.73438 14.84375-27.73438z"/><path d="m428.51563-160.07813s-9.375 1.95313-19.14063 21.48438c-9.76562 19.53125-10.9375 30.85937-10.9375 30.85937s3.18774-21.35786 8.20313-30.85937c10.84902-20.55314 21.875-21.48438 21.875-21.48438z"/><path d="m439.45313-157.73438s-1.5625 21.09375-7.42188 30.46875c-5.85937 9.375-21.875 27.734379-21.875 27.734379s10.9375-12.109379 20.3125-30.078129 8.98438-27.73437 8.98438-28.125z"/></g></g><path d="m324.60938 251.25s-11.32813 3.51562-13.67188 10.9375c-2.34375 7.42187-10.15625 23.82812-8.20312 31.64062 1.95312 7.8125 5.46875 24.21875 5.46875 24.21875s7.03125-10.9375 13.28125-19.92187c6.25-8.98438 10.15625-21.875 10.54687-30.46875.39063-8.59375-7.42187-15.625-7.42187-16.40625z" fill="#008400" stroke="#004242" stroke-width="1.771654"/></g><g transform="translate(-24.99734 -10.63422)"><path d="m395.54132 181.90831c-.36131.31972-1.86298 1.67167-2.71875 2.90625-.18667.2693-.40067.62537-.65625 1.03125-.003.004-.0287-.004-.0312 0-.75982-.0358-1.41478-.12965-1.75-.3125-.0261-.0154-.0719-.0459-.0937-.0625-.0271-.0227-.0749-.0688-.0937-.0937-.004-.006.004-.0247 0-.0312-.41343-.74349-1.21516-2.27768-1.4375-2.5625-.007-.008-.0256-.0261-.0312-.0312-.0236.0102-.0712.0189-.0937.0312-.0369.0217-.0909.0664-.125.0937-.0268.0227-.0686.0677-.0937.0937-.0124.0134-.0505.0483-.0625.0625-.64806.80106-.72713 2.75017-1.25 3.71875-.57991 1.07424-7.2637 12.02541-7.5 13.46875-.00075.006.00053.026 0 .0312-.00031.005.00009.0266 0 .0312.00014.004-.00036.0273 0 .0312.00082.003-.001.0283 0 .0312.002.002.0295-.002.0312 0 .38978.41986 2.40235 2.4837 4.125 2.6875-.43716.11087-.78577.26976-.96875.4375-.0128.0126-.0514.0496-.0625.0625-.005.007-.0265.0246-.0312.0312-.0506.0752-.0919.18706-.125.28125-.28102.85244.10424 2.36865.65625 2.84375.006.005.0256.0268.0312.0312.006.004.0255.0273.0312.0312.0232.015.0701.0201.0937.0312.006.003.0253.029.0312.0312.006.002.0252-.002.0312 0 .0181.005.0443.0291.0625.0312.77875.0918 5.96722 1.85907 7.15625 1.5 1.18904-.35906 3.2743-1.37359 4.125-2.125.24351-.21509.59654-.46774.96875-.75.0762.31402.1299.57553.1875.6875.002.003-.002.0288 0 .0312.002.002.0295-.002.0312 0 .00093.00039.0303-.00032.0312 0 .002-.001.0289.002.0312 0 .003-.003.0282-.0278.0312-.0312.16157-.20777.50105-.91869.875-1.71875.0511-.061.0924-.13198.125-.1875.003-.007-.003-.0239 0-.0312.007-.0122.0255-.0194.0312-.0312.003-.006.0289-.0255.0312-.0312.002-.006-.002-.0257 0-.0312.003-.007-.003-.0239 0-.0312.00089-.005-.0006-.026 0-.0312.51172-1.11269 1.04952-2.33238 1.21875-2.75.32444-.80068 1.96488-2.06108 2.15625-2.625.001-.004.0303-.027.0312-.0312.00076-.004-.00049-.0271 0-.0312-.00003-.004.00028-.0272 0-.0312-.00053-.004.00077-.0272 0-.0312-.002-.008-.0283-.0233-.0312-.0312-.002-.004.002-.0274 0-.0312-.002-.004-.0287-.0274-.0312-.0312-.27747-.34951-1.42799-.58583-1.8125-.65625-.012-.007-.0188-.0245-.0312-.0312-.0142-.003-.0202.002-.0312 0-.22989-.1204-.53542-.26628-.8125-.375 2.09546-1.87535 4.74663-4.78023 5.75-6.5625 1.03635-1.84088.8934-3.36253.21875-4.125-.014-.0152-.048-.0479-.0625-.0625-.0147-.0143-.0474-.0489-.0625-.0625-.17631-.15293-.3997-.28376-.625-.34375-.71283-.18979-2.06352.01-3.09375.21875-.2032-1.28278-.63048-2.47772-1.0625-2.84375-.0266-.021-.0671-.0479-.0937-.0625-.85413-.46743-1.65817-1.05823-3.34375-.0312-.26337.16047-.57008.39666-.875.6875l1-2.3125z" fill="none" stroke="#701014" stroke-width="1.771654"/><g fill-rule="evenodd" transform="matrix(.256431 -.06046875 -.07364635 .302247 226.6495 294.201)"><path d="m558.22767-256.91843c-3.72889.69053-1.24296 9.25315-2.62403 12.70582s-19.61117 39.49854-17.26335 41.57015c2.34781 2.0716 15.88228 13.53446 22.92573 13.25825 7.04344-.27622 37.61038 8.06851 41.15582 2.48592 5.13512-8.08569-3.17645-53.72354-7.87209-53.58543-4.69563.13811-24.85922-2.76214-27.62136-6.0767-2.76213-3.31457-8.42451-10.49612-8.70072-10.35801z" fill="#701014"/><path d="m585.84902-254.43251s-5.93859 4.00509-8.56262 8.1483c-2.62403 4.1432-8.28641 15.74417-6.35291 17.40145 1.93349 1.65728 11.04854-11.04854 11.04854-11.04854z" fill="#ba1126"/><path d="m597.86431-246.008s4.1432 2.62403 5.66238 5.24806c1.51917 2.62403 2.90024 8.97694 2.90024 8.97694l-14.50121 11.18665-15.88228-13.67257 5.52427-10.0818 10.49612-4.00509z" fill="#cf1735"/><path d="m588.61115-238.55022c2.30183 1.13621 3.07057 3.85714 3.36062 6.21411.37614 3.0328.1518 6.10718-.32226 9.11573-3.72889 2.76213-7.45776 5.52428-11.18664 8.28641-2.16368-2.34781-4.32735-4.69563-6.49103-7.04345.32225-3.63681.64449-7.27362.96674-10.91043 4.55752-1.88746 3.59078-7.5038 13.67257-5.66237z" fill="#bd0412"/><path d="m614.02281-196.01334s8.97694 2.90024 9.11504 4.69563c.13811 1.79539-5.80048 4.97185-6.35291 7.59587-.55243 2.62403-3.72888 15.05365-4.69563 15.19175-.96675.13811-3.45267-8.83883-9.39126-10.49611-5.93859-1.65729 2.34781-12.42962 2.34781-12.42962z" fill="#e24b74"/><path d="m606.97936-199.60412s9.25315 4.14321 9.25315 5.10995c0 .96675-8.70072 10.49612-9.94368 11.60098-1.24297 1.10485-15.46797 5.93859-15.46797 5.93859l-6.35291-21.26845z" fill="#ad040b"/><path d="m587.64441-185.51722c-15.19175-2.90025-31.62646-5.80049-33.28374-3.31457-1.65728 2.48593 3.31456 11.18665 6.62913 12.1534 3.31456.96675 26.5165 11.46286 31.07403 11.18665 4.55752-.27621 12.15339-2.0716 14.91553-4.0051 2.76214-1.93349 11.04854-4.97184 6.0767-6.90534-4.97185-1.93349-25.54976-8.83883-25.41165-9.11504z" fill="#bb0713"/><path d="m560.57548-228.60655c-8.2892 4.54682-4.28131 26.3784-1.24296 29.83107s27.75946 12.29151 29.69296 12.29151c1.93349 0 4.00509-1.65728 4.00509-1.65728l-20.3017-13.12015s-3.97057-31.83362-12.15339-27.34515z" fill="#c90d28"/><path d="m566.23785-225.15387c.41432.96674.82865 3.03834.82865 4.97184 0 1.93349-2.90025 10.63422-1.10486 13.12015 1.79539 2.48592 11.18665-3.31457 15.74418-6.62913 4.55752-3.31456 9.52936-8.42451 6.62912-7.87209-2.90024.55243-22.3733-3.72888-22.09709-3.59077z" fill="#bf0b16"/><path d="m602.97426-234.54514s12.42961-.41432 17.95389 1.79539c5.52427 2.20971 9.94368 9.25316 6.76723 16.57282-3.17646 7.31966-16.57282 19.33495-23.47816 21.95898s-17.67767 5.52427-18.23009 5.24806c-.55243-.27622-18.78253-16.57282-18.78253-16.57282l36.04588-28.45z" fill="#c5102f"/><path d="m588.33494-192.28446s-7.18155 2.48593 1.9335.41432c9.11505-2.0716 8.83883-2.62403 8.83883-2.62403s18.09199-6.90533 21.26845-16.02038c3.17645-9.11505 5.52427-8.97694 1.93349-13.53447-3.59077-4.55752-16.71092-3.86699-16.71092-3.86699l-35.63155 24.16869z" fill="#b9000d"/><path d="m589.5779-207.06188c1.9335 6.62912 9.66748-5.52428 11.32476-6.62913s9.39126-4.0051 10.2199-9.80558c.82864-5.80049-6.49102-19.88738-10.49611-22.2352-4.0051-2.34781-8.0102-5.10995-13.94879-2.90024s-13.39636 14.50121-13.53446 18.78253c-.13811 4.28131-.55243 6.35291.82864 6.2148 1.38106-.13811.96674-7.45777 3.45267-10.63422 2.48592-3.17646 2.48592-9.25316 7.18155-10.91044s4.69563-1.65728 4.69563-1.65728l.27621-.82864s8.1483 1.93349 9.25316 3.03835c1.10485 1.10485 7.87209 10.08179 8.01019 12.70582.13811 2.62403 3.86699 6.62913 1.24296 9.25316s-6.62912 7.59587-8.1483 7.73398c-1.51917.13811-2.0716-.13811-6.0767 2.62403-4.00509 2.76213-4.41941 5.52427-4.28131 5.24806z" fill="#d54688"/><path d="m558.50387-230.95436c-8.70072-4.1432-3.17645 11.87719 1.10486 19.05874s19.47306 19.05874 24.72112 21.82087c5.24805 2.76214 12.70582 6.62913 13.25825 4.83374.55242-1.79539-3.45267-5.10995-5.10995-6.21481-1.65729-1.10485-12.29151-6.49102-18.50631-11.73907-6.21481-5.24806-13.25826-13.53447-12.98204-19.05874.27621-5.52427-2.62403-8.70073-2.48593-8.70073z" fill="#d22e53"/></g></g><path d="m347.26563 199.29687s5.46875-1.5625 12.10937-1.5625c6.64063 0 12.10938 1.5625 12.10938 5.46875s-1.95313 15.23438-1.95313 15.23438-1.17187-4.6875-3.51562-8.59375-10.54688-7.8125-12.10938-7.8125-5.85937-3.125-6.64062-2.73438z" fill="#008400" fill-rule="evenodd" stroke="#004242" stroke-width="1.771654"/></g><path d="m-.001699 231.82629h1077.0264v254.59315h-1077.0264z" fill="#d00"/><path d="m.002747 461.58902h1077.01v226.53383h-1077.01z" fill="#f7d117"/><g fill="#fff" fill-rule="evenodd"><path d="m0-1 .22451399.69098301h.72654253l-.58778526.42705098.22451399.690983-.58778525-.42705098-.58778525.42705098.22451399-.690983-.58778526-.42705098h.72654253z" transform="matrix(55.819742 0 0 55.369343 373.19579 347.69709)"/><path d="m.58778525.80901699-.58778525-.42705098-.58778525.42705098.22451399-.690983-.58778526-.42705098h.72654253l.22451399-.69098301.22451399.69098301h.72654253l-.58778526.42705098z" transform="matrix(55.819742 0 0 55.369343 475.46769 304.11007)"/><path d="m0 .38196601-.58778525.42705098.22451399-.690983-.58778526-.42705098h.72654253l.22451399-.69098301.22451399.69098301h.72654253l-.58778526.42705098.22451399.690983z" transform="matrix(55.819742 0 0 55.369343 717.75442 346.85079)"/><path d="m.58778525.80901699-.58778525-.42705098-.58778525.42705098.22451399-.690983-.58778526-.42705098h.72654253l.22451399-.69098301.22451399.69098301h.72654253l-.58778526.42705098z" transform="matrix(55.819742 0 0 55.369343 604.27771 303.46454)"/><path d="m.36327126.11803399.22451399.690983-.58778525-.42705098-.58778525.42705098.22451399-.690983-.58778526-.42705098h.72654253l.22451399-.69098301.22451399.69098301h.72654253z" transform="matrix(55.819742 0 0 55.369343 267.72229 397.46454)"/><path d="m0-1 .22451399.69098301h.72654253l-.58778526.42705098.22451399.690983-.58778525-.42705098-.58778525.42705098.22451399-.690983-.58778526-.42705098h.72654253z" transform="matrix(55.819742 0 0 55.369343 827.44162 396.49611)"/></g><text font-family="Bitstream Vera Sans" font-size="22.826639" transform="scale(.98215899 1.0181651)" x="2.92055" y="219.73927"><tspan x="2.92055" y="219.73927">Libertad o Muerte</tspan></text><path d="m-111.96574 37.947685h112.0551v246.00211h-112.0551z" fill="#fff"/></svg>