<svg height="600" width="1200" xmlns="http://www.w3.org/2000/svg"><path d="m0 0h1200v600h-1200z" fill="#00a64e"/><path d="m0 0 600 300-600 300z" fill="#16469b"/><path d="m0 90 400 210-400 200z" fill="#fff"/><path d="m0 200 200 100-200 100z" fill="#ec2124"/><path d="m900 224-23.69336 47.38672-52.39062 7.89258 37.74609 37.17773-8.68555 52.26367 47.02344-24.41015 47.02344 24.41015-8.68555-52.26367 37.74609-37.17773-52.39062-7.89258z" fill="#f5ea12"/><path d="m897 354h6l-3 46zm-45.47988-37.40232 1.85411 5.70634-44.67566 11.36161zm21.51767-54.81189-4.8541 3.52672-24.61107-38.97814zm58.77852 3.52672-4.8541-3.52672 29.46517-35.45142zm14.80946 56.99151 1.85411-5.70634 42.82155 17.06795z" fill="#fff"/></svg>