<svg fill-rule="evenodd" height="600" width="1200" xmlns="http://www.w3.org/2000/svg"><path d="m0 0h1200v66h-1200z" fill="#d00"/><path d="m0 534h1200v66h-1200z" fill="#fff"/><path d="m0 60h1200v480h-1200z" fill="#003893"/><g fill="#ffe60c"><path d="m599.99995 89.040036 22.00001 69.999994h72l-58.00002 42 22.00002 67.99999-58.00001-42-57.99999 42 22-67.99999-58-42h72z"/><path d="m773.99994 297.04001-36 62 48 54-70.00002-16.00001-36 64-7.99998-71.99999-69.99996-16 65.99994-30-7.99998-69.99999 48 52z"/><path d="m425.99997 297.04001 65.99999 28.00001 48-54-6 71.99999 65.99999 30-71.99999 16-6 69.99999-37.99999-62-70 16.00001 48-54z"/></g></svg>