<svg fill-rule="evenodd" height="614" image-rendering="optimizeQuality" shape-rendering="geometricPrecision" text-rendering="geometricPrecision" viewBox="0 0 1143 614" width="1143" xmlns="http://www.w3.org/2000/svg"><path d="m0 0h1143v614h-1143z" fill="#fff"/><path d="m0 0h1143v205h-1143z" fill="#000080"/><path d="m0 409h1143v224h-1143z" fill="#008000"/><g fill="#fff"><path d="m147 552 74-20v45l-75 20z"/><path d="m149 572c-32-66-76-114-130-108l1-8c56-7 105 43 129 101z"/><path d="m340 429-194 120 2 7 200-122v7c9-4 17-9 24-14-11-2-22-1-32 2z"/></g><text fill="#e6c800" font-family="serif" font-size="115" x="44" y="350">CHALATENANGO</text></svg>