<svg enable-background="new 0 0 325 217" height="600" viewBox="0 0 325 217" width="900" xmlns="http://www.w3.org/2000/svg"><g fill-rule="evenodd"><path d="m-.25 0h325.5v217h-325.5z" fill="#f00"/><path d="m-.25 0h108.5v217h-108.5z" fill="#009c31"/><path d="m216.75 0h108.5v217h-108.5z" fill="#009cce"/></g><g transform="matrix(.998433 0 0 .998433 1.190747 .1678)"><g fill-rule="evenodd"><path d="m161.09517 114.83156h2v48.350132h-2z" fill="#b5cece"/><path d="m106.34375 123.46875c-.07663 1.19155-.15625 2.38295-.15625 3.59375 0 30.58147 24.82478 55.40625 55.40625 55.40625 29.77276 0 54.07874-23.53689 55.34375-53l-14.9375-.8125c.02044.4729.03125.95959.03125 1.4375.00001 17.95171-14.57954 32.5-32.53125 32.5-17.95172.00001-32.5-14.54829-32.5-32.5 0-1.67238.13116-3.33287.375-4.9375z" fill="#bdbdbd" stroke="#6b6b6b" stroke-width="2"/><path d="m107.49271 120.29973h109.07559v-65.042436c0-13.401953-19.35173-20.721485-53.9622-20.721485-39.64841 0-55.11339 10.316757-55.11339 20.721485z" fill="#fff"/><path d="m107.5 77v5.875h109.0625v-5.875z" fill="#f00"/><g fill="#bdbdbd"><path d="m135.556 59.530281c-.18142.299203-6.66124-.862308-6.96427-.687355-.29468.170134-2.33975 6.262738-2.67993 6.255436-.34983-.007509-2.58384-6.199957-2.88687-6.374909-.29468-.170133-6.59356 1.105091-6.75733.806828-.16841-.306711 4.0774-5.337649 4.0774-5.687554 0-.340267-4.25382-5.157647-4.0774-5.448608.18141-.299202 6.66124.862308 6.96426.687355.29468-.170133 2.33975-6.262737 2.67994-6.255436.34982.007509 2.58384 6.199957 2.88686 6.374909.29468.170133 6.59357-1.10509 6.75734-.806828.16841.306712-4.0774 5.337649-4.0774 5.687554 0 .340267 4.25381 5.157647 4.0774 5.448608z" transform="translate(8.346154 4.748674)"/><path d="m135.556 59.530281c-.18142.299203-6.66124-.862308-6.96427-.687355-.29468.170134-2.33975 6.262738-2.67993 6.255436-.34983-.007509-2.58384-6.199957-2.88687-6.374909-.29468-.170133-6.59356 1.105091-6.75733.806828-.16841-.306711 4.0774-5.337649 4.0774-5.687554 0-.340267-4.25382-5.157647-4.0774-5.448608.18141-.299202 6.66124.862308 6.96426.687355.29468-.170133 2.33975-6.262737 2.67994-6.255436.34982.007509 2.58384 6.199957 2.88686 6.374909.29468.170133 6.59357-1.10509 6.75734-.806828.16841.306712-4.0774 5.337649-4.0774 5.687554 0 .340267 4.25381 5.157647 4.0774 5.448608z" transform="translate(64.03515 4.748674)"/><path d="m135.556 59.530281c-.18142.299203-6.66124-.862308-6.96427-.687355-.29468.170134-2.33975 6.262738-2.67993 6.255436-.34983-.007509-2.58384-6.199957-2.88687-6.374909-.29468-.170133-6.59356 1.105091-6.75733.806828-.16841-.306711 4.0774-5.337649 4.0774-5.687554 0-.340267-4.25382-5.157647-4.0774-5.448608.18141-.299202 6.66124.862308 6.96426.687355.29468-.170133 2.33975-6.262737 2.67994-6.255436.34982.007509 2.58384 6.199957 2.88686 6.374909.29468.170133 6.59357-1.10509 6.75734-.806828.16841.306712-4.0774 5.337649-4.0774 5.687554 0 .340267 4.25381 5.157647 4.0774 5.448608z" transform="translate(64.03515 47.77454)"/><path d="m135.556 59.530281c-.18142.299203-6.66124-.862308-6.96427-.687355-.29468.170134-2.33975 6.262738-2.67993 6.255436-.34983-.007509-2.58384-6.199957-2.88687-6.374909-.29468-.170133-6.59356 1.105091-6.75733.806828-.16841-.306711 4.0774-5.337649 4.0774-5.687554 0-.340267-4.25382-5.157647-4.0774-5.448608.18141-.299202 6.66124.862308 6.96426.687355.29468-.170133 2.33975-6.262737 2.67994-6.255436.34982.007509 2.58384 6.199957 2.88686 6.374909.29468.170133 6.59357-1.10509 6.75734-.806828.16841.306712-4.0774 5.337649-4.0774 5.687554 0 .340267 4.25381 5.157647 4.0774 5.448608z" transform="translate(8.346154 47.77454)"/></g><path d="m162.59375 34.53125c-1.17493 0-2.30482.013397-3.4375.03125v85.75h5.90625v-85.75c-.82767-.008728-1.62279-.03125-2.46875-.03125z" fill="#f00"/></g><path d="m107.49271 120.29973h109.07559v-65.042436c0-13.401953-19.35173-20.721485-53.9622-20.721485-39.64841 0-55.11339 10.316757-55.11339 20.721485z" fill="none" stroke="#b5cece" stroke-width="2"/></g></svg>