<svg height="200.34602" viewBox="-5.42 -15.75 300 200.34602" width="300" xmlns="http://www.w3.org/2000/svg"><path d="m-5.30465989 117.8924547h299.88465975v66.70357647h-299.88465975z" fill="#006e3b" stroke="#2042a1" stroke-width=".922722"/><path d="m-5.30465989 50.28460418h299.88465975v67.60784037h-299.88465975z" fill="#2042a1"/><path d="m-5.30465989-15.63465949h299.88465975v65.91926367h-299.88465975z" fill="#da2d1c" stroke-width=".922722"/><g transform="matrix(.92272203 0 0 .92272203 -15.989781 -15.86534)"><g fill="#fff"><path d="m155.2 86c2.3-5.49 11.65 2.33 3.88 4.5v.25l-.27.26c-.87-.9-1.73-1.79-2.51-2.72-.55-.65-1.06-1.32-1.51-2.03z"/><path d="m137.33 99.37c3-1.32 12.72-7.86 14-12.37-.05-.13-.12-.27-.18-.43 2.59 2.66 5.7 8.87 9.21 10.02l-.03.16-.31.25c-1.3 0-3.18 1.47-4.32 3h-.5c-5.65-.9-12.21-.44-17.85-.16z"/><path d="m173.46 83.87c-2.08 1.51-4.15-.05-5-1.58-.2-.36-.33-.72-.38-1.04h.12c.06-.31-.16-.72-.1-1.1 4.22-.53 5.72-4.1 8.51-6.63 5.16-4.65.8 2.25 1.239 5.48.48 3.5.431 8.42-5.39 9.87l-.36-.1c1.031-1.64 2.891-3.06 1.361-4.9z"/><path d="m178.83 92.25c-.05.29-.21 1.3-.37 1.76-.3.88-.72 1.74-1.229 2.56-3.75 6.02-12.521 9.76-15.271 1.68l-.16.05c-.26-.76-.73-1.33-1.47-1.55l.03-.16c-3.51-1.15-6.62-7.36-9.21-10.02-.73-1.78-1.69-4.85-3.1-6.54-1.62-1.95-6.24-3.59-3.09-6.4l.15-.04c.51 1.96 1.8 4 3.72 4.41l.06-.06c-.77-.7-1.45-.83-1.29-2.17 4.43 1.41 4.69 5.28 6.32 8.89.26.56.55 1.09.87 1.6.45.71.96 1.38 1.51 2.03.78.93 1.64 1.82 2.51 2.72l.27-.26c1.64.22 4.54 1.06 5.88.62l.14-.07c.99 1.95 3.8 3.26 5.6.7h.38c.2-.01.41-.02.64-.02 1.2-.04 2.8-.09 4.18-.26l1.18.03c.51.04 1.03-.04 1.54-.19z"/><path d="m160.56 105.49c1.15-1.89 1.92-5.2 1.24-7.19l.16-.05c2.75 8.08 11.52 4.34 15.271-1.68l.54.36c-.69 1.06-1.25 2.02-1.811 2.93-.08.11-.149.23-.22.34-1.12 1.77-2.37 3.34-4.91 4.92-.37.23-.84.51-1.4.8-2.94 1.55-7.95 3.4-8.85-.42z"/><path d="m188.09 101.39c-1.16.01-2.319-.01-3.46-.06-2.939-.13-5.81-.47-8.5-1.05-.08-.14-.13-.28-.17-.42.561-.91 1.12-1.87 1.811-2.93l-.54-.36c.51-.82.93-1.68 1.229-2.56.16-.46.32-1.47.37-1.76l-.21-.69c3.67-1.07 7.39-5.92 11.29-.75-.6-4.5 5.56-4.45 8.05-3.06l.37.25c-2.27 2.56-7.53 2.83-5.9 7.36l.141-.05c0 .05.09.21.24.45.489.81 1.64 2.52 2.229 3.71l-.06.08c-1.341-.84-2.9-1.44-4.53-1.72-.61 1.1-1.4 2.11-2.36 3.03zm-9.51-5.64c-.01.02-.02.03-.03.05l.28.2c2.02.88 11.11 3.65 8.6-2.1-1.88-4.29-7.2-.43-8.85 1.85z"/><path d="m187.43 93.9c2.511 5.75-6.58 2.98-8.6 2.1l-.28-.2c.011-.02.021-.03.03-.05 1.65-2.28 6.97-6.14 8.85-1.85z"/><path d="m206.15 96.47c1.279-1 3.43-1.52 4.81-1.6l.44.24c-1.021 1.93-2.011 3.8-3.09 5.56l-.771-.16c-1.14-.18-2.31-.15-3.32.06l-.29-1.15c-2.04.5-4.159.91-6.319 1.22-1.311.19-2.63.35-3.971.47-1.609.15-3.239.24-4.85.27-.24 0-.47 0-.7.01v-.53c.96-.92 1.75-1.93 2.36-3.03 1.63.28 3.189.88 4.53 1.72l.06-.08c-.59-1.19-1.74-2.9-2.229-3.71 3.319-3.48 8.489-4.02 12.77-2.51h.38c-.399 1.41-.38 2.73.12 3.12z"/><path d="m188.79 101.56c2.16 3.08 4.04 4.28 5.94 4.59l-.04.27c-9.23-.35-7.641-.98-10.07-4.86l.01-.23c1.141.05 2.3.07 3.46.06.23-.01.46-.01.7-.01z"/><path d="m200.98 105.04-.04.33c-2.311.5-4.271 1.1-6.21.78-1.9-.31-3.78-1.51-5.94-4.59v-.18c1.61-.03 3.24-.12 4.85-.27l.011.1c2.279 1.71 4.91 3.46 7.329 3.83z"/><path d="m191.89 109.04c-.489.08-.989.17-1.479.27-2.78.54-5.51 1.341-7.82 2.61-.49-.64-.24-2.57-.47-3.38-1.13 1.35-2.96 2.62-4.11 3.81-.21-1.399-1.189-3.32-1.43-5.189-2.22.57-5.51 1.64-7.24 3.08l-.12-.09c.79-.98 1.34-2.34 1.51-4.081l-1.3-.15c.56-.29 1.03-.57 1.4-.8 2.54-1.58 3.79-3.15 4.91-4.92.13.03.26.06.39.08 2.69.58 5.561.92 8.5 1.05l-.01.23c2.43 3.88.84 4.51 10.07 4.86l.04-.27c1.939.32 3.899-.28 6.21-.78l.04-.33c-2.42-.37-5.051-2.12-7.33-3.83l-.011-.1c1.341-.12 2.66-.28 3.971-.47 2.16-.31 4.279-.72 6.319-1.22l.29 1.15c1.011-.21 2.181-.24 3.32-.06l.771.16c-2.181 3.58-4.74 6.68-8.74 8.84l-.11-1.32c-2.291.19-4.921.42-7.571.85z"/><path d="m191.08 122.97c-3.54-1.88-6.09-4.41-10.19-2.75l-.779-1.3c2.109-.729 4.25-2.39 5.42-4.29 2.18-.58 3.859-2.18 4.99-4.74l-.11-.58c.49-.1.99-.189 1.479-.27 2.65-.43 5.28-.66 7.57-.85l.11 1.32c-.391.221-.8.42-1.23.62l.24.5c.84.59 1.86 1.04 2.88 1.24l.07.06c-3.59 4.09-7.28 5.24-11.17 7.891l-.04.84c3.87.05 6.52-2.84 10.279-2.53l-.039.79c-.82 1.271-2.811 2.57-4.641 2.82l.04.26c3.38-.55 7.07-.09 9.53 1.21-.43.1-.87.19-1.28.28-5.029 1.069-8.589 1.879-13.129-.521z"/><path d="m182.59 111.92c2.311-1.27 5.04-2.07 7.82-2.61l.11.58c-1.131 2.561-2.811 4.16-4.99 4.74-1.47.4-3.16.32-5.07-.229l-.07-.17c-1.6.649-3.35.909-5.069.8-.28-.971-.87-2.82-1.06-3.761l-1.1.36c-1.86 2.311-4.65 3.83-7.64 4.16l-.34-1.65c.5 0-.72-.239-1.49-.38l.27-1.66c1.99.32 3.96-.3 5.26-1.949l.12.09c1.73-1.44 5.02-2.51 7.24-3.08.24 1.87 1.22 3.79 1.43 5.189 1.15-1.189 2.98-2.46 4.11-3.81.229.81-.021 2.74.469 3.38z"/><path d="m149.52 116.06c-.68-.29-1.4-1.899-1.63-2.329.15 1 .45 1.89.86 2.689-1.14.48-2.77.99-1.98-.28-.11 0-.23 0-.34 0l-.37-.04c.21-2.51.9-5.26 1.88-5.619-.51-1.061-.46-2.46-.97-3.48 1.37-.75 2.2-2.16 2.49-3.64.39.55.89 1.97 1.4 2.39 2.51 2.07.66 2.24 3.94 2.5.13.01.27.02.4.01 1.86.05 3.29-.64 4.53-1.73.29-.25.57-.61.83-1.04l.02.01c.9 3.82 5.91 1.97 8.85.42l1.3.15c-.17 1.74-.72 3.1-1.51 4.081-1.3 1.649-3.27 2.27-5.26 1.949l-.27 1.66c.77.141 1.99.38 1.49.38l.34 1.65-.27.78c-.38-.13-.74-.271-1.11-.431l-1.05.351c.03.08.33 2.21.35 3.12l.75 1.699c-1.64.671-3.17.271-4.56-1v1.44c-4.42.01-8.95-1.61-10.88-5.33.31-.14.59-.27.77-.36z"/><path d="m146.77 116.14c-.79 1.271.84.761 1.98.28 1.93 3.72 6.46 5.34 10.88 5.33h.31c-3.78 2-8.4 1.44-12.35-.79.17.26.35.51.53.74-.85-.69-1.71-1.351-1.88-1.86-.27-.76-.31-2.21-.18-3.74l.37.04z"/><path d="m149.63 141.07c2.55-2.801 5.74 2.68 8.8 1.529 1.43-4.619-2.28-11.779-7.73-10.6l-.01-.56c-.01 0-.01-.74 0-1.41h.6c1.64.189 3.31-.05 4.79-.42.11-.12.23-.23.35-.351.02-.3.01-.64-.01-.99l1.12.021c1.03 1.8 3 3.12 5.21 3.47l-.05.74c.05.02.11.04.16.06l-.16.441c-.21 2.39.57 4.42.98 6.65 1.02 5.63.1 6.8-6.07 6.479-3.07-.16-3.17-.41-4.78-1.88-1.38-1.26-.15-3.83-3.13-3.12z"/><path d="m163.79 124.82c.06.75 1.75 2.43 2.06 3.14-3.58.46-2.62 1.15-5.85-1.32 1.29-.58 2.53-1.27 3.68-2z"/><path d="m160 126.64c3.23 2.471 2.27 1.78 5.85 1.32-.31-.71-2-2.39-2.06-3.14l-.11-.181c-1.15.731-2.39 1.421-3.68 2.001zm20.11-7.72.779 1.3c-.14.061-.27.12-.409.181-.011-.011-.03.359-.03.359.54.3 1.31 1.01 1.75 1.24l.26.15c-.92 1.18-2.37 3.319-2.66 3.689-.83 1.061-1.77 1.71-2.34 2.91h-.04c0 .03.01.07.01.1l-.1.021c-.78-2.73-3.71-2.17-6.63-2.24v.24c-1.22 3.35-4.58 6.91-7.84 5.689-.05-.02-.11-.04-.16-.06l.05-.74c-2.21-.35-4.18-1.67-5.21-3.47l-1.12-.021c.02.351.03.69.01.99-.12.12-.24.23-.35.351-1.48.37-3.15.609-4.79.42h-.6c.01-.36.01-.7.01-.9.03-2.38.17-3.649-.82-5.62-.01 0-.01 0-.01-.01-.01-.03-.03-.07-.05-.1-.27-.54-.98-1.131-1.7-1.7-.18-.23-.36-.48-.53-.74 3.95 2.23 8.57 2.79 12.35.79-.1 0-.21 0-.31 0v-1.44c1.39 1.271 2.92 1.671 4.56 1l-.75-1.699c-.02-.91-.32-3.04-.35-3.12l1.05-.351c.37.16.73.301 1.11.431l.27-.78c2.99-.33 5.78-1.85 7.64-4.16l1.1-.36c.19.94.78 2.79 1.06 3.761 1.72.109 3.47-.15 5.069-.8l.07.17c1.91.55 3.601.63 5.07.229-1.169 1.9-3.309 3.56-5.419 4.29z"/><path d="m182.98 128.51c-1.011 1.03-2.19 2.05-2.74 2.15-1.38.24-2.67-.79-2.811-1.811 0-.029-.01-.069-.01-.1h.04c.57-1.2 1.51-1.85 2.34-2.91.29-.37 1.74-2.51 2.66-3.689.37-.46.64-.771.74-.78 1.76-.13 2.149 1.28 2.03 2.729-.07.91-.351 1.841-.62 2.4-.189.401-.859 1.201-1.629 2.011z"/><path d="m198.33 128.5c.94 5.3.51 12.07-6.5 10.37 1.42-3.39 5.61-5.49 1.22-8.74-2.25-1.68-7.239-1.57-10.069-1.62.77-.81 1.439-1.609 1.63-2.01.27-.56.55-1.49.62-2.4l.229.03c4.37.271 8.771 2.65 12.74 4z"/></g><g fill="none" stroke="#fff" stroke-linecap="round" stroke-linejoin="round" stroke-width="3.3"><path d="m148.83 78c-1.92-.41-3.21-2.45-3.72-4.41-.01-.03-.02-.06-.03-.09"/><path d="m144.96 73.63c-3.15 2.81 1.47 4.45 3.09 6.4 1.41 1.69 2.37 4.76 3.1 6.54.06.16.13.3.18.43.09.19.17.36.25.5"/><path d="m137.33 99.37c3-1.32 12.72-7.86 14-12.37"/><path d="m136.7 99.87c.21-.01.43-.02.65-.03 5.64-.28 12.2-.74 17.85.16"/><path d="m155.7 100c1.14-1.53 3.02-3 4.32-3h.06"/><path d="m149.88 123.51c.99 1.971.85 3.24.82 5.62 0 .2 0 .54-.01.9-.01.67-.01 1.41 0 1.41 0 0 .01-.021.01-.07"/><path d="m160.33 96.75c.74.22 1.21.79 1.47 1.55.68 1.99-.09 5.3-1.24 7.19-.26.43-.54.79-.83 1.04-1.24 1.09-2.67 1.78-4.53 1.73-.13.01-.27 0-.4-.01-3.28-.26-1.43-.43-3.94-2.5-.51-.42-1.01-1.84-1.4-2.39-.29 1.48-1.12 2.89-2.49 3.64.51 1.02.46 2.42.97 3.48-.98.359-1.67 3.109-1.88 5.619-.13 1.53-.09 2.98.18 3.74.17.51 1.03 1.17 1.88 1.86.72.569 1.43 1.16 1.7 1.7.02.029.04.069.05.1"/><path d="m150.7 132c5.45-1.18 9.16 5.98 7.73 10.6-3.06 1.15-6.25-4.33-8.8-1.529-.01.02-.03.04-.05.06"/><path d="m149.7 141.13c2.98-.71 1.75 1.86 3.13 3.12 1.61 1.47 1.71 1.72 4.78 1.88 6.17.32 7.09-.85 6.07-6.479-.41-2.23-1.19-4.261-.98-6.65"/><path d="m162.7 132.5c.05.02.11.04.16.06 3.26 1.221 6.62-2.34 7.84-5.689"/><path d="m170.7 126.63c2.92.07 5.85-.49 6.63 2.24"/><path d="m177.85 127.75c-.329.29-.449.64-.43 1 0 .03.01.07.01.1.141 1.021 1.431 2.051 2.811 1.811.55-.101 1.729-1.12 2.74-2.15.77-.81 1.439-1.609 1.63-2.01.27-.56.55-1.49.62-2.4.119-1.449-.271-2.859-2.03-2.729-.101.01-.37.32-.74.78-.92 1.18-2.37 3.319-2.66 3.689-.83 1.061-1.77 1.71-2.34 2.91"/><path d="m182.7 128.5c.09 0 .18 0 .28.01 2.83.05 7.819-.06 10.069 1.62 4.391 3.25.2 5.351-1.22 8.74"/><path d="m191.83 138.87c7.01 1.7 7.44-5.07 6.5-10.37"/><path d="m185.46 124.13c4.37.271 8.771 2.65 12.74 4"/><path d="m182.2 122c-.44-.23-1.21-.94-1.75-1.24 0 0 .02-.37.03-.359.14-.061.27-.12.409-.181 4.101-1.66 6.65.87 10.19 2.75 4.54 2.4 8.1 1.59 13.13.521.41-.09.851-.181 1.28-.28.12-.03.229-.05.34-.08"/><path d="m195.96 122c3.38-.55 7.07-.09 9.53 1.21.03.01.06.021.09.04"/><path d="m195.83 121.75c.03 0 .06-.01.09-.01 1.83-.25 3.82-1.55 4.641-2.82.119-.189.21-.37.27-.55"/><path d="m189.7 120.63c.21.021.42.03.62.03 3.87.05 6.52-2.84 10.279-2.53.03-.01.07 0 .101 0"/><path d="m189.58 120.37c.26-.19.52-.38.78-.55 3.89-2.65 7.58-3.801 11.17-7.891.01-.02.03-.04.05-.06"/><path d="m198.58 110.63c.84.59 1.86 1.04 2.88 1.24"/><path d="m198.33 110.13h.01c.431-.2.84-.399 1.23-.62 4-2.16 6.56-5.26 8.74-8.84 1.079-1.76 2.069-3.63 3.09-5.56.02-.04.04-.07.06-.11"/><path d="m205.83 96.75c.1-.1.21-.19.32-.28 1.279-1 3.43-1.52 4.81-1.6"/><path d="m206.08 96.37c-.04 0-.08 0-.12 0"/><path d="m206.08 96.37c-.5-.39-.52-1.71-.12-3.12"/><path d="m192.7 95.87c.04-.04.07-.08.11-.11 3.319-3.48 8.489-4.02 12.77-2.51"/><path d="m192.58 95.75c-.06-.13-.11-.27-.15-.39-1.63-4.53 3.631-4.8 5.9-7.36"/><path d="m189.96 91.13c-.02-.11-.04-.22-.05-.32-.6-4.5 5.56-4.45 8.05-3.06"/><path d="m177.08 91.75c.51.04 1.03-.04 1.54-.19 3.67-1.07 7.39-5.92 11.29-.75.02.02.03.04.05.06"/><path d="m171.08 92c.2-.01.41-.02.64-.02 1.2-.04 2.8-.09 4.18-.26.229-.02.46-.05.68-.09"/><path d="m168.08 81.25c.05.32.18.68.38 1.04.85 1.53 2.92 3.09 5 1.58 1.53 1.84-.33 3.26-1.36 4.9-.49.79-.79 1.63-.4 2.6"/><path d="m167.96 82.5c-1.1.68-1.9 1.71-2.13 2.63"/><path d="m166.7 87.75c-.04-.09-.08-.16-.12-.25"/><path d="m164.83 90.63c.03.09.05.18.09.27.05.14.11.27.18.4.99 1.95 3.8 3.26 5.6.7"/><path d="m165.08 90.87c.04-1.74.8-3.85.75-5.74"/><path d="m165.57 88.13c.49 0 .56-.2.76-.5"/><path d="m167.96 84.5c.01.12.01.25-.02.37-.06.4-.25.83-.22 1.24.47-.08.82.11 1.34-.01.15-1.55-.66-.83-1.1-1.23"/><path d="m148.96 78c-.02-.02-.05-.05-.07-.06-.77-.7-1.45-.83-1.29-2.17 4.43 1.41 4.69 5.28 6.32 8.89.26.56.55 1.09.87 1.6.45.71.96 1.38 1.51 2.03.78.93 1.64 1.82 2.51 2.72.78.81 1.56 1.62 2.3 2.49 2.61 3.07 3.58 7.17 7.62 6.16 2.68-.67 6.63-4.64 7.97-7.03"/><path d="m164.96 92.25c1.79 5.99 6.4 3.77 9.24-.12"/><path d="m159.08 90.75c1.64.22 4.54 1.06 5.88.62"/><path d="m159.08 90.5c7.77-2.17-1.58-9.99-3.88-4.5"/><path d="m160.58 105.5c.9 3.82 5.91 1.97 8.85.42.56-.29 1.03-.57 1.4-.8 2.54-1.58 3.79-3.15 4.91-4.92.07-.11.14-.23.22-.34.561-.91 1.12-1.87 1.811-2.93.229-.36.489-.74.779-1.13.011-.02.021-.03.03-.05 1.65-2.28 6.97-6.14 8.85-1.85 2.511 5.75-6.58 2.98-8.6 2.1"/><path d="m161.96 98.25c2.75 8.08 11.52 4.34 15.271-1.68.51-.82.93-1.68 1.229-2.56.16-.46.32-1.47.37-1.76"/><path d="m150.96 86.37c.06.06.13.13.19.2 2.59 2.66 5.7 8.87 9.21 10.02.24.08.48.13.72.16"/><path d="m168.2 81.25c.06-.31-.16-.72-.1-1.1 4.22-.53 5.72-4.1 8.51-6.63 5.16-4.65.8 2.25 1.239 5.48.48 3.5.431 8.42-5.39 9.87"/><path d="m158.58 108.5c1.39 2.07 3.4 3.3 5.38 3.6 1.99.32 3.96-.3 5.26-1.949.79-.98 1.34-2.34 1.51-4.081"/><path d="m175.94 99.82c0 .01.01.03.02.04.04.14.09.28.17.42 1.49 3.7 5.811 5.8 9.33 5.79"/><path d="m180.46 101.56c2.22 2.81 4.37 4.63 6.59 4.64"/><path d="m184.62 101.56c2.43 3.88.84 4.51 10.07 4.86"/><path d="m188.79 101.56c2.16 3.08 4.04 4.28 5.94 4.59 1.939.32 3.899-.28 6.21-.78"/><path d="m193.65 101.21c2.279 1.71 4.91 3.46 7.33 3.83.96.15 1.88.09 2.739-.29"/><path d="m197.47 100.51c.051.04.091.09.141.13 1.899 1.8 4.04 3.38 6.8 2.65"/><path d="m175.59 100.17c.05.01.101.02.15.03.13.03.26.06.39.08 2.69.58 5.561.92 8.5 1.05 1.141.05 2.3.07 3.46.06.23-.01.46-.01.7-.01 1.61-.03 3.24-.12 4.85-.27 1.341-.12 2.66-.28 3.971-.47 2.16-.31 4.279-.72 6.319-1.22 1.601-.4 3.16-.84 4.65-1.34"/><path d="m188.09 100.86c.96-.92 1.75-1.93 2.36-3.03.74-1.31 1.229-2.73 1.46-4.26"/><path d="m192.61 95.31c-.03-.02-.04-.02-.04 0 0 .05.09.21.24.45.489.81 1.64 2.52 2.229 3.71"/><path d="m189.83 97.74c.21.02.42.05.62.09 1.63.28 3.189.88 4.53 1.72.14.09.279.18.409.27"/><path d="m195.39 99.82c1.58-2.96 5.25-3.16 8.681-1.39"/><path d="m201.98 101.56c.51-.46 1.3-.8 2.239-.99 1.011-.21 2.181-.24 3.32-.06"/><path d="m147.82 92.87c2.59-.16 6.54 1.29 9.37 3.48"/><path d="m139.48 99.47c2.78-1 6.02-3.08 7.99-5.21"/><path d="m143.3 99.47c2.41-1.03 4.41-2.36 6.25-4.16"/><path d="m147.82 99.13c2.17-1.05 4.2-2.48 5.9-4.17"/><path d="m152.33 99.13c1.47-.82 3.13-1.93 4.17-2.78"/><path d="m150.25 92.53c.87-.41 1.82-1.09 2.43-1.74"/><path d="m153.72 93.92c.29-.58.66-1.21 1.04-1.74"/><path d="m156.15 88.36c.05-.02.1-.05.15-.07 1.9-.83 4.32-.72 5.06-.28"/><path d="m151.29 130.03c1.64.189 3.31-.05 4.79-.42.11-.12.23-.23.35-.351.02-.3.01-.64-.01-.99-.06-.93-.22-1.89-.27-2.06"/><path d="m157.54 128.29c1.03 1.8 3 3.12 5.21 3.47"/><path d="m155.46 132.11c1.16-.25 2.12-.851 2.77-1.74"/><path d="m169.34 110.24c1.73-1.44 5.02-2.51 7.24-3.08.24 1.87 1.22 3.79 1.43 5.189 1.15-1.189 2.98-2.46 4.11-3.81.229.81-.021 2.74.47 3.38 2.311-1.27 5.04-2.07 7.82-2.61.49-.1.99-.189 1.479-.27 2.65-.43 5.28-.66 7.57-.85.15-.02.29-.03.44-.04"/><path d="m191.57 108.85c.1.07.21.13.319.19 1.94 1.15 4.771 1.77 5.58 1.54"/><path d="m191.22 112.32c1.94 1.13 6.011 2.18 6.94 2.08"/><path d="m189.14 115.1c1.71.62 4.99 1.08 5.2 1.04"/><path d="m187.05 116.49c1.92.63 4.44.64 4.86.34"/><path d="m180.46 114.4c1.91.55 3.601.63 5.07.229 2.18-.58 3.859-2.18 4.99-4.74"/><path d="m185.32 113.01c.88-.75 1.67-1.55 2.43-2.43"/><path d="m180.11 118.92c2.109-.729 4.25-2.39 5.42-4.29.04-.08.09-.149.13-.229"/><path d="m174.2 110.93c.01.09.03.2.06.34.19.94.78 2.79 1.06 3.761 1.72.109 3.47-.15 5.069-.8.381-.15.75-.32 1.11-.521"/><path d="m165.52 115.79c2.99-.33 5.78-1.85 7.64-4.16"/><path d="m164.14 116.14c.37.16.73.301 1.11.431 3.65 1.26 7.66 1.14 11.39-.08"/><path d="m172.12 121c1.07-.27 2.56-.68 3.82-1.04"/><path d="m169.69 123.08c2.83.25 6.85-.75 9.38-2.43"/><path d="m164.48 124.13c-.26.17-.53.351-.8.51-1.15.73-2.39 1.42-3.68 2 3.23 2.471 2.27 1.78 5.85 1.32-.31-.71-2-2.39-2.06-3.14"/><path d="m161.36 113.36c-1.75 1.649-.03 3.83-3.8 4.22.64 1.14 1.34 2.05 2.07 2.729 1.39 1.271 2.92 1.671 4.56 1 .88-.359 1.79-1.04 2.72-2.05"/><path d="m163.09 116.49c.03.08.33 2.21.35 3.12"/><path d="m163.44 113.71c.08.01.16.03.25.05.77.141 1.99.38 1.49.38-.15 0-.48-.02-1.04-.08"/><path d="m155.2 108.26c-1.54 1.57-1.12 2.891 1.64 4.061"/><path d="m152.68 110.93c1.15 1.04 2.08 3.07 3.69 4.19-1.92-.75-3.92-.75-5.74-1.36.98 1.87 2.39 3.351 3.78 4.811"/><path d="m146.77 116.14c-.11 0-.23 0-.34 0"/><path d="m148.75 116.42c1.93 3.72 6.46 5.34 10.88 5.33h.31c-3.78 2-8.4 1.44-12.35-.79.17.26.35.51.53.74.55.71 1.14 1.31 1.75 1.8 0 .01 0 .01.01.01 5.1 4.12 11.98.96 15.99-1.47"/><path d="m148.75 116.42c.31-.14.59-.27.77-.36-.68-.29-1.4-1.899-1.63-2.329.15.999.45 1.889.86 2.689z"/><path d="m146.77 116.14c-.79 1.271.84.761 1.98.28"/><path d="m170.66 79.92c1.67 1.12 5.3 2.67 6.25 3.16"/><path d="m173.16 78.58c.96 1.07 2.479 1.79 3.84 1.92"/><path d="m174 77.17c.74.98 1.83 1.64 3.08 1.58"/><path d="m175.41 75.58c.45.89 1.189 1.25 2.17 1"/><path d="m176.66 74.42c.41.33 1.04.54 1.67.58"/></g><g><g fill="#efef42"><path d="m178.58 95.75c-.01.02-.02.03-.03.05l.28.2c2.02.88 11.11 3.65 8.6-2.1-1.88-4.29-7.2-.43-8.85 1.85zm19.14-7.17c-2.47 2.05-6.79 2.62-5.29 6.78l.141-.05c0 .05.09.21.24.45.489.81 1.64 2.52 2.229 3.71l-.06.08c-1.341-.84-2.9-1.44-4.53-1.72-.61 1.1-1.4 2.11-2.36 3.03v.53c-1.16.01-2.319-.01-3.46-.06-2.939-.13-5.81-.47-8.5-1.05-.08-.14-.13-.28-.17-.42.561-.91 1.12-1.87 1.811-2.93l-.54-.36c.51-.82.93-1.68 1.229-2.56.16-.46.32-1.47.37-1.76l-.21-.69c3.67-1.07 7.39-5.92 11.29-.75-.15-1.05.09-1.85.55-2.44.5-.66 2.72-2.16 3.62-2.37 3.39.56-1.98 3.34-1.04 3.47.83.11 3.521-1.58 4.59-1.74z"/><path d="m197.61 100.64c-1.311.19-2.63.35-3.971.47-1.609.15-3.239.24-4.85.27-.24 0-.47 0-.7.01v-.53c.96-.92 1.75-1.93 2.36-3.03 1.63.28 3.189.88 4.53 1.72l.06-.08c-.59-1.19-1.74-2.9-2.229-3.71 3.319-3.48 8.489-4.02 12.77-2.51h.38c-.399 1.41-.38 2.73.12 3.12l.07.1c1.279-1 3.43-1.52 4.81-1.6l.44.24c-1.021 1.93-2.011 3.8-3.09 5.56l-.771-.16c-1.14-.18-2.31-.15-3.32.06l-.29-1.15c-2.039.5-4.158.91-6.319 1.22z"/><path d="m208.311 100.67c-2.181 3.58-4.74 6.68-8.74 8.84l-.11-1.32c-2.29.19-4.92.42-7.57.85-.489.08-.989.17-1.479.27-2.78.54-5.51 1.341-7.82 2.61-.49-.64-.24-2.57-.47-3.38-1.13 1.35-2.96 2.62-4.11 3.81-.21-1.399-1.189-3.32-1.43-5.189-2.22.57-5.51 1.64-7.24 3.08l-.12-.09c.79-.98 1.34-2.34 1.51-4.081l-1.3-.15c.56-.29 1.03-.57 1.4-.8 2.54-1.58 3.79-3.15 4.91-4.92.13.03.26.06.39.08 2.69.58 5.561.92 8.5 1.05l-.01.23c2.43 3.88.84 4.51 10.07 4.86l.04-.27c1.939.32 3.899-.28 6.21-.78l.04-.33c-2.42-.37-5.051-2.12-7.33-3.83l-.011-.1c1.341-.12 2.66-.28 3.971-.47 2.16-.31 4.279-.72 6.319-1.22l.29 1.15c1.011-.21 2.181-.24 3.32-.06z"/><path d="m163.68 124.64c-1.15.73-2.39 1.42-3.68 2 3.23 2.471 2.27 1.78 5.85 1.32-.31-.71-2-2.39-2.06-3.14zm11.64-9.61c1.72.109 3.47-.15 5.069-.8l.07.17c1.91.55 3.601.63 5.07.229-1.17 1.9-3.311 3.561-5.42 4.29l.779 1.3c-.14.061-.27.12-.409.181-.011-.011-.03.359-.03.359.54.3 1.31 1.01 1.75 1.24l.26.15c-.92 1.18-2.37 3.319-2.66 3.689-.83 1.061-1.77 1.71-2.34 2.91h-.04c0 .03.01.07.01.1l-.1.021c-.78-2.73-3.71-2.17-6.63-2.24v.24c-1.22 3.35-4.58 6.91-7.84 5.689-.05-.02-.11-.04-.16-.06l.05-.74c-2.21-.35-4.18-1.67-5.21-3.47l-1.12-.021c.02.351.03.69.01.99-.12.12-.24.23-.35.351-1.48.37-3.15.609-4.79.42h-.6c.01-.36.01-.7.01-.9.03-2.38.17-3.649-.82-5.62-.01 0-.01 0-.01-.01-.01-.03-.03-.07-.05-.1-.27-.54-.98-1.131-1.7-1.7-.18-.23-.36-.48-.53-.74 3.95 2.23 8.57 2.79 12.35.79-.1 0-.21 0-.31 0v-1.44c1.39 1.271 2.92 1.671 4.56 1l-.75-1.699c-.02-.91-.32-3.04-.35-3.12l1.05-.351c.37.16.73.301 1.11.431l.27-.78c2.99-.33 5.78-1.85 7.64-4.16l1.1-.36c.191.941.781 2.791 1.061 3.761z"/><path d="m159.63 120.31v1.44c-4.42.01-8.95-1.61-10.88-5.33.31-.14.59-.27.77-.36-.68-.29-1.4-1.899-1.63-2.329.15 1 .45 1.89.86 2.689-1.14.48-2.77.99-1.98-.28-.11 0-.23 0-.34 0l-.37-.04c.21-2.51.9-5.26 1.88-5.619-.51-1.061-.46-2.46-.97-3.48 1.37-.75 2.2-2.16 2.49-3.64.39.55.89 1.97 1.4 2.39 2.51 2.07.66 2.24 3.94 2.5.13.01.27.02.4.01 1.86.05 3.29-.64 4.53-1.73.29-.25.57-.61.83-1.04l.02.01c.9 3.82 5.91 1.97 8.85.42l1.3.15c-.17 1.74-.72 3.1-1.51 4.081-1.3 1.649-3.27 2.27-5.26 1.949l-.27 1.66c.77.141 1.99.38 1.49.38l.34 1.65-.27.78c-.38-.13-.74-.271-1.11-.431l-1.05.351c.03.08.33 2.21.35 3.12l.75 1.699c-1.64.67-3.17.27-4.56-1z"/><path d="m178.83 92.25c-.05.29-.21 1.3-.37 1.76-.3.88-.72 1.74-1.229 2.56-3.75 6.02-12.521 9.76-15.271 1.68l-.16.05c-.26-.76-.73-1.33-1.47-1.55l.03-.16c-3.51-1.15-6.62-7.36-9.21-10.02-.73-1.78-1.69-4.85-3.1-6.54-1.62-1.95-6.24-3.59-3.09-6.4l.15-.04c.51 1.96 1.8 4 3.72 4.41l.06-.06c-.77-.7-1.45-.83-1.29-2.17 4.43 1.41 4.69 5.28 6.32 8.89.26.56.55 1.09.87 1.6.45.71.96 1.38 1.51 2.03.78.93 1.64 1.82 2.51 2.72l.27-.26c1.64.22 4.54 1.06 5.88.62l.14-.07c.99 1.95 3.8 3.26 5.6.7h.38c.2-.01.41-.02.64-.02 1.2-.04 2.8-.09 4.18-.26l1.18.03c.51.04 1.03-.04 1.54-.19z"/><path d="m195.92 121.74.04.26c3.38-.55 7.07-.09 9.53 1.21-.43.1-.87.19-1.28.28-5.03 1.069-8.59 1.88-13.13-.521-3.54-1.88-6.09-4.41-10.19-2.75l-.779-1.3c2.109-.729 4.25-2.39 5.42-4.29 2.18-.58 3.859-2.18 4.99-4.74l-.11-.58c.49-.1.99-.189 1.479-.27 2.65-.43 5.28-.66 7.57-.85l.11 1.32c-.391.221-.8.42-1.23.62l.24.5c.84.59 1.86 1.04 2.88 1.24l.07.06c-3.59 4.09-7.28 5.24-11.17 7.891l-.04.84c3.87.05 6.52-2.84 10.279-2.53l-.039.79c-.82 1.27-2.81 2.57-4.64 2.82z"/><path d="m200.98 105.04-.04.33c-2.311.5-4.271 1.1-6.21.78-1.9-.31-3.78-1.51-5.94-4.59v-.18c1.61-.03 3.24-.12 4.85-.27l.011.1c2.279 1.71 4.91 3.46 7.329 3.83z"/><path d="m198.33 128.5c.94 5.3.51 12.07-6.5 10.37 1.42-3.39 5.61-5.49 1.22-8.74-2.25-1.68-7.239-1.57-10.069-1.62.77-.81 1.439-1.609 1.63-2.01.27-.56.55-1.49.62-2.4l.229.03c4.37.271 8.771 2.65 12.74 4z"/><path d="m194.73 106.15-.04.27c-9.23-.35-7.641-.98-10.07-4.86l.01-.23c1.141.05 2.3.07 3.46.06.23-.01.46-.01.7-.01v.18c2.16 3.08 4.04 4.28 5.94 4.59z"/><path d="m185.53 114.63c-1.47.4-3.16.32-5.07-.229l-.07-.17c-1.6.649-3.35.909-5.069.8-.28-.971-.87-2.82-1.06-3.761l-1.1.36c-1.86 2.311-4.65 3.83-7.64 4.16l-.34-1.65c.5 0-.72-.239-1.49-.38l.27-1.66c1.99.32 3.96-.3 5.26-1.949l.12.09c1.73-1.44 5.02-2.51 7.24-3.08.24 1.87 1.22 3.79 1.43 5.189 1.15-1.189 2.98-2.46 4.11-3.81.229.81-.021 2.74.47 3.38 2.311-1.27 5.04-2.07 7.82-2.61l.11.58c-1.131 2.56-2.811 4.16-4.991 4.74z"/><path d="m187.43 93.9c2.511 5.75-6.58 2.98-8.6 2.1l-.28-.2c.011-.02.021-.03.03-.05 1.65-2.28 6.97-6.14 8.85-1.85z"/><path d="m182.98 128.51c-1.011 1.03-2.19 2.05-2.74 2.15-1.38.24-2.67-.79-2.811-1.811 0-.029-.01-.069-.01-.1h.04c.57-1.2 1.51-1.85 2.34-2.91.29-.37 1.74-2.51 2.66-3.689.37-.46.64-.771.74-.78 1.76-.13 2.149 1.28 2.03 2.729-.07.91-.351 1.841-.62 2.4-.189.401-.859 1.201-1.629 2.011z"/><path d="m176.61 73.52c5.16-4.65.8 2.25 1.239 5.48.48 3.5.431 8.42-5.39 9.87l-.36-.1c1.03-1.64 2.89-3.06 1.36-4.9-2.08 1.51-4.15-.05-5-1.58-.2-.36-.33-.72-.38-1.04h.12c.06-.31-.16-.72-.1-1.1 4.221-.53 5.721-4.1 8.511-6.63z"/><path d="m175.74 100.2c-1.12 1.77-2.37 3.34-4.91 4.92-.37.23-.84.51-1.4.8-2.94 1.55-7.95 3.4-8.85-.42l-.02-.01c1.15-1.89 1.92-5.2 1.24-7.19l.16-.05c2.75 8.08 11.52 4.34 15.271-1.68l.54.36c-.69 1.06-1.25 2.02-1.811 2.93-.08.11-.149.23-.22.34z"/></g><path d="m167.94 84.87c-.06.4-.25.83-.22 1.24.47-.08.82.11 1.34-.01.15-1.55-.66-.83-1.1-1.23zm5.52-1c1.53 1.84-.33 3.26-1.36 4.9-.49.79-.79 1.63-.4 2.6l.02.61c-.23 0-.44.01-.64.02h-.38c-1.8 2.56-4.61 1.25-5.6-.7-.07-.13-.13-.26-.18-.4l.16-.03c.04-1.74.8-3.85.75-5.74.23-.92 1.03-1.95 2.13-2.63l.5-.21c.85 1.53 2.92 3.09 5 1.58z" fill="#fff"/><g fill="#efef42"><path d="m163.79 124.82c.06.75 1.75 2.43 2.06 3.14-3.58.46-2.62 1.15-5.85-1.32 1.29-.58 2.53-1.27 3.68-2z"/><path d="m150.69 131.44c-.01 0-.01-.74 0-1.41h.6c1.64.189 3.31-.05 4.79-.42.11-.12.23-.23.35-.351.02-.3.01-.64-.01-.99l1.12.021c1.03 1.8 3 3.12 5.21 3.47l-.05.74c.05.02.11.04.16.06l-.16.44c-.21 2.39.57 4.42.98 6.65 1.02 5.63.1 6.8-6.07 6.479-3.07-.16-3.17-.41-4.78-1.88-1.38-1.26-.15-3.83-3.13-3.12l-.07-.06c2.55-2.801 5.74 2.68 8.8 1.529 1.43-4.619-2.28-11.779-7.73-10.6z"/><path d="m151.33 87c-.05-.13-.12-.27-.18-.43 2.59 2.66 5.7 8.87 9.21 10.02l-.03.16-.31.25c-1.3 0-3.18 1.47-4.32 3h-.5c-5.65-.9-12.21-.44-17.85-.16l-.02-.47c3-1.32 12.72-7.86 14-12.37z"/><path d="m159.63 121.75h.31c-3.78 2-8.4 1.44-12.35-.79.17.26.35.51.53.74-.85-.69-1.71-1.351-1.88-1.86-.27-.76-.31-2.21-.18-3.74l.37.04h.34c-.79 1.271.84.761 1.98.28 1.93 3.72 6.46 5.34 10.88 5.33z"/><path d="m156.3 88.29c-.55-.65-1.06-1.32-1.51-2.03l.41-.26c2.3-5.49 11.65 2.33 3.88 4.5v.25l-.27.26c-.87-.9-1.73-1.79-2.51-2.72z"/></g></g><g fill="none" stroke="#638ca5" stroke-linecap="round" stroke-linejoin="round"><path d="m148.83 78c-1.92-.41-3.21-2.45-3.72-4.41-.01-.03-.02-.06-.03-.09"/><path d="m144.96 73.63c-3.15 2.81 1.47 4.45 3.09 6.4 1.41 1.69 2.37 4.76 3.1 6.54.06.16.13.3.18.43.09.19.17.36.25.5"/><path d="m137.33 99.37c3-1.32 12.72-7.86 14-12.37"/><path d="m136.7 99.87c.21-.01.43-.02.65-.03 5.64-.28 12.2-.74 17.85.16"/><path d="m155.7 100c1.14-1.53 3.02-3 4.32-3h.06"/><path d="m149.88 123.51c.99 1.971.85 3.24.82 5.62 0 .2 0 .54-.01.9-.01.67-.01 1.41 0 1.41 0 0 .01-.021.01-.07"/><path d="m160.33 96.75c.74.22 1.21.79 1.47 1.55.68 1.99-.09 5.3-1.24 7.19-.26.43-.54.79-.83 1.04-1.24 1.09-2.67 1.78-4.53 1.73-.13.01-.27 0-.4-.01-3.28-.26-1.43-.43-3.94-2.5-.51-.42-1.01-1.84-1.4-2.39-.29 1.48-1.12 2.89-2.49 3.64.51 1.02.46 2.42.97 3.48-.98.359-1.67 3.109-1.88 5.619-.13 1.53-.09 2.98.18 3.74.17.51 1.03 1.17 1.88 1.86.72.569 1.43 1.16 1.7 1.7.02.029.04.069.05.1"/><path d="m150.7 132c5.45-1.18 9.16 5.98 7.73 10.6-3.06 1.15-6.25-4.33-8.8-1.529-.01.02-.03.04-.05.06"/><path d="m149.7 141.13c2.98-.71 1.75 1.86 3.13 3.12 1.61 1.47 1.71 1.72 4.78 1.88 6.17.32 7.09-.85 6.07-6.479-.41-2.23-1.19-4.261-.98-6.65"/><path d="m162.7 132.5c.05.02.11.04.16.06 3.26 1.221 6.62-2.34 7.84-5.689"/><path d="m170.7 126.63c2.92.07 5.85-.49 6.63 2.24"/><path d="m177.85 127.75c-.329.29-.449.64-.43 1 0 .03.01.07.01.1.141 1.021 1.431 2.051 2.811 1.811.55-.101 1.729-1.12 2.74-2.15.77-.81 1.439-1.609 1.63-2.01.27-.56.55-1.49.62-2.4.119-1.449-.271-2.859-2.03-2.729-.101.01-.37.32-.74.78-.92 1.18-2.37 3.319-2.66 3.689-.83 1.061-1.77 1.71-2.34 2.91"/><path d="m182.7 128.5c.09 0 .18 0 .28.01 2.83.05 7.819-.06 10.069 1.62 4.391 3.25.2 5.351-1.22 8.74"/><path d="m191.83 138.87c7.01 1.7 7.44-5.07 6.5-10.37"/><path d="m185.46 124.13c4.37.271 8.771 2.65 12.74 4"/><path d="m182.2 122c-.44-.23-1.21-.94-1.75-1.24 0 0 .02-.37.03-.359.14-.061.27-.12.409-.181 4.101-1.66 6.65.87 10.19 2.75 4.54 2.4 8.1 1.59 13.13.521.41-.09.851-.181 1.28-.28.12-.03.229-.05.34-.08"/><path d="m195.96 122c3.38-.55 7.07-.09 9.53 1.21.03.01.06.021.09.04"/><path d="m195.83 121.75c.03 0 .06-.01.09-.01 1.83-.25 3.82-1.55 4.641-2.82.119-.189.21-.37.27-.55"/><path d="m189.7 120.63c.21.021.42.03.62.03 3.87.05 6.52-2.84 10.279-2.53.03-.01.07 0 .101 0"/><path d="m189.58 120.37c.26-.19.52-.38.78-.55 3.89-2.65 7.58-3.801 11.17-7.891.01-.02.03-.04.05-.06"/><path d="m198.58 110.63c.84.59 1.86 1.04 2.88 1.24"/><path d="m198.33 110.13h.01c.431-.2.84-.399 1.23-.62 4-2.16 6.56-5.26 8.74-8.84 1.079-1.76 2.069-3.63 3.09-5.56.02-.04.04-.07.06-.11"/><path d="m205.83 96.75c.1-.1.21-.19.32-.28 1.279-1 3.43-1.52 4.81-1.6"/><path d="m206.08 96.37c-.04 0-.08 0-.12 0"/><path d="m206.08 96.37c-.5-.39-.52-1.71-.12-3.12"/><path d="m192.7 95.87c.04-.04.07-.08.11-.11 3.319-3.48 8.489-4.02 12.77-2.51"/><path d="m192.58 95.75c-.06-.13-.11-.27-.15-.39-1.5-4.16 2.82-4.73 5.29-6.78.221-.18.431-.37.61-.58"/><path d="m189.96 91.13c-.02-.11-.04-.22-.05-.32-.15-1.05.09-1.85.55-2.44.5-.66 2.72-2.16 3.62-2.37 3.39.56-1.98 3.34-1.04 3.47.83.11 3.521-1.58 4.59-1.74.141-.03.25-.02.33.02"/><path d="m177.08 91.75c.51.04 1.03-.04 1.54-.19 3.67-1.07 7.39-5.92 11.29-.75.02.02.03.04.05.06"/><path d="m171.08 92c.2-.01.41-.02.64-.02 1.2-.04 2.8-.09 4.18-.26.229-.02.46-.05.68-.09"/><path d="m168.08 81.25c.05.32.18.68.38 1.04.85 1.53 2.92 3.09 5 1.58 1.53 1.84-.33 3.26-1.36 4.9-.49.79-.79 1.63-.4 2.6"/><path d="m167.96 82.5c-1.1.68-1.9 1.71-2.13 2.63"/><path d="m166.7 87.75c-.04-.09-.08-.16-.12-.25"/><path d="m164.83 90.63c.03.09.05.18.09.27.05.14.11.27.18.4.99 1.95 3.8 3.26 5.6.7"/><path d="m165.08 90.87c.04-1.74.8-3.85.75-5.74"/><path d="m165.57 88.13c.49 0 .56-.2.76-.5"/><path d="m167.96 84.5c.01.12.01.25-.02.37-.06.4-.25.83-.22 1.24.47-.08.82.11 1.34-.01.15-1.55-.66-.83-1.1-1.23"/><path d="m148.96 78c-.02-.02-.05-.05-.07-.06-.77-.7-1.45-.83-1.29-2.17 4.43 1.41 4.69 5.28 6.32 8.89.26.56.55 1.09.87 1.6.45.71.96 1.38 1.51 2.03.78.93 1.64 1.82 2.51 2.72.78.81 1.56 1.62 2.3 2.49 2.61 3.07 3.58 7.17 7.62 6.16 2.68-.67 6.63-4.64 7.97-7.03"/><path d="m164.96 92.25c1.79 5.99 6.4 3.77 9.24-.12"/><path d="m159.08 90.75c1.64.22 4.54 1.06 5.88.62"/><path d="m159.08 90.5c7.77-2.17-1.58-9.99-3.88-4.5"/><path d="m160.58 105.5c.9 3.82 5.91 1.97 8.85.42.56-.29 1.03-.57 1.4-.8 2.54-1.58 3.79-3.15 4.91-4.92.07-.11.14-.23.22-.34.561-.91 1.12-1.87 1.811-2.93.229-.36.489-.74.779-1.13.011-.02.021-.03.03-.05 1.65-2.28 6.97-6.14 8.85-1.85 2.511 5.75-6.58 2.98-8.6 2.1"/><path d="m161.96 98.25c2.75 8.08 11.52 4.34 15.271-1.68.51-.82.93-1.68 1.229-2.56.16-.46.32-1.47.37-1.76"/><path d="m150.96 86.37c.06.06.13.13.19.2 2.59 2.66 5.7 8.87 9.21 10.02.24.08.48.13.72.16"/><path d="m168.2 81.25c.06-.31-.16-.72-.1-1.1 4.22-.53 5.72-4.1 8.51-6.63 5.16-4.65.8 2.25 1.239 5.48.48 3.5.431 8.42-5.39 9.87"/><path d="m158.58 108.5c1.39 2.07 3.4 3.3 5.38 3.6 1.99.32 3.96-.3 5.26-1.949.79-.98 1.34-2.34 1.51-4.081"/><path d="m175.94 99.82c0 .01.01.03.02.04.04.14.09.28.17.42 1.49 3.7 5.811 5.8 9.33 5.79"/><path d="m180.46 101.56c2.22 2.81 4.37 4.63 6.59 4.64"/><path d="m184.62 101.56c2.43 3.88.84 4.51 10.07 4.86"/><path d="m188.79 101.56c2.16 3.08 4.04 4.28 5.94 4.59 1.939.32 3.899-.28 6.21-.78"/><path d="m193.65 101.21c2.279 1.71 4.91 3.46 7.33 3.83.96.15 1.88.09 2.739-.29"/><path d="m197.47 100.51c.051.04.091.09.141.13 1.899 1.8 4.04 3.38 6.8 2.65"/><path d="m175.59 100.17c.05.01.101.02.15.03.13.03.26.06.39.08 2.69.58 5.561.92 8.5 1.05 1.141.05 2.3.07 3.46.06.23-.01.46-.01.7-.01 1.61-.03 3.24-.12 4.85-.27 1.341-.12 2.66-.28 3.971-.47 2.16-.31 4.279-.72 6.319-1.22 1.601-.4 3.16-.84 4.65-1.34"/><path d="m188.09 100.86c.96-.92 1.75-1.93 2.36-3.03.74-1.31 1.229-2.73 1.46-4.26"/><path d="m192.61 95.31c-.03-.02-.04-.02-.04 0 0 .05.09.21.24.45.489.81 1.64 2.52 2.229 3.71"/><path d="m189.83 97.74c.21.02.42.05.62.09 1.63.28 3.189.88 4.53 1.72.14.09.279.18.409.27"/><path d="m195.39 99.82c1.58-2.96 5.25-3.16 8.681-1.39"/><path d="m201.98 101.56c.51-.46 1.3-.8 2.239-.99 1.011-.21 2.181-.24 3.32-.06"/><path d="m147.82 92.87c2.59-.16 6.54 1.29 9.37 3.48"/><path d="m139.48 99.47c2.78-1 6.02-3.08 7.99-5.21"/><path d="m143.3 99.47c2.41-1.03 4.41-2.36 6.25-4.16"/><path d="m147.82 99.13c2.17-1.05 4.2-2.48 5.9-4.17"/><path d="m152.33 99.13c1.47-.82 3.13-1.93 4.17-2.78"/><path d="m150.25 92.53c.87-.41 1.82-1.09 2.43-1.74"/><path d="m153.72 93.92c.29-.58.66-1.21 1.04-1.74"/><path d="m156.15 88.36c.05-.02.1-.05.15-.07 1.9-.83 4.32-.72 5.06-.28"/><path d="m151.29 130.03c1.64.189 3.31-.05 4.79-.42.11-.12.23-.23.35-.351.02-.3.01-.64-.01-.99-.06-.93-.22-1.89-.27-2.06"/><path d="m157.54 128.29c1.03 1.8 3 3.12 5.21 3.47"/><path d="m155.46 132.11c1.16-.25 2.12-.851 2.77-1.74"/><path d="m169.34 110.24c1.73-1.44 5.02-2.51 7.24-3.08.24 1.87 1.22 3.79 1.43 5.189 1.15-1.189 2.98-2.46 4.11-3.81.229.81-.021 2.74.47 3.38 2.311-1.27 5.04-2.07 7.82-2.61.49-.1.99-.189 1.479-.27 2.65-.43 5.28-.66 7.57-.85.15-.02.29-.03.44-.04"/><path d="m191.57 108.85c.1.07.21.13.319.19 1.94 1.15 4.771 1.77 5.58 1.54"/><path d="m191.22 112.32c1.94 1.13 6.011 2.18 6.94 2.08"/><path d="m189.14 115.1c1.71.62 4.99 1.08 5.2 1.04"/><path d="m187.05 116.49c1.92.63 4.44.64 4.86.34"/><path d="m180.46 114.4c1.91.55 3.601.63 5.07.229 2.18-.58 3.859-2.18 4.99-4.74"/><path d="m185.32 113.01c.88-.75 1.67-1.55 2.43-2.43"/><path d="m180.11 118.92c2.109-.729 4.25-2.39 5.42-4.29.04-.08.09-.149.13-.229"/><path d="m174.2 110.93c.01.09.03.2.06.34.19.94.78 2.79 1.06 3.761 1.72.109 3.47-.15 5.069-.8.381-.15.75-.32 1.11-.521"/><path d="m165.52 115.79c2.99-.33 5.78-1.85 7.64-4.16"/><path d="m164.14 116.14c.37.16.73.301 1.11.431 3.65 1.26 7.66 1.14 11.39-.08"/><path d="m172.12 121c1.07-.27 2.56-.68 3.82-1.04"/><path d="m169.69 123.08c2.83.25 6.85-.75 9.38-2.43"/><path d="m164.48 124.13c-.26.17-.53.351-.8.51-1.15.73-2.39 1.42-3.68 2 3.23 2.471 2.27 1.78 5.85 1.32-.31-.71-2-2.39-2.06-3.14"/><path d="m161.36 113.36c-1.75 1.649-.03 3.83-3.8 4.22.64 1.14 1.34 2.05 2.07 2.729 1.39 1.271 2.92 1.671 4.56 1 .88-.359 1.79-1.04 2.72-2.05"/><path d="m163.09 116.49c.03.08.33 2.21.35 3.12"/><path d="m163.44 113.71c.08.01.16.03.25.05.77.141 1.99.38 1.49.38-.15 0-.48-.02-1.04-.08"/><path d="m155.2 108.26c-1.54 1.57-1.12 2.891 1.64 4.061"/><path d="m152.68 110.93c1.15 1.04 2.08 3.07 3.69 4.19-1.92-.75-3.92-.75-5.74-1.36.98 1.87 2.39 3.351 3.78 4.811"/><path d="m146.77 116.14c-.11 0-.23 0-.34 0"/><path d="m148.75 116.42c1.93 3.72 6.46 5.34 10.88 5.33h.31c-3.78 2-8.4 1.44-12.35-.79.17.26.35.51.53.74.55.71 1.14 1.31 1.75 1.8 0 .01 0 .01.01.01 5.1 4.12 11.98.96 15.99-1.47"/><path d="m148.75 116.42c.31-.14.59-.27.77-.36-.68-.29-1.4-1.899-1.63-2.329.15.999.45 1.889.86 2.689z"/><path d="m146.77 116.14c-.79 1.271.84.761 1.98.28"/><path d="m170.66 79.92c1.67 1.12 5.3 2.67 6.25 3.16"/><path d="m173.16 78.58c.96 1.07 2.479 1.79 3.84 1.92"/><path d="m174 77.17c.74.98 1.83 1.64 3.08 1.58"/><path d="m175.41 75.58c.45.89 1.189 1.25 2.17 1"/><path d="m176.66 74.42c.41.33 1.04.54 1.67.58"/></g></g></svg>