<svg enable-background="new 0 0 1152 768" viewBox="0 0 1152 768" xmlns="http://www.w3.org/2000/svg"><path d="m0 0h1152v768h-1152z" fill="#fee000"/><path d="m359.8 634.5h188.1l25 25 20-26.6h191.5l16.5-8.1 6-9-1.5-477.3h-464.9v486.7s-1.5 5 5.8 7.3c7.3 2.4 13.5 2 13.5 2z" fill="#fec900"/><path d="m472.1 437.8h197.3l-98.7-282.5z"/><path d="m352.3 633.4s-12 5.7-11.9-18c.1-23.8 0-239.2 0-239.2l57.8 6.6 55.3-14.3 55.3 14 145.4-3.9 38-10.1 47.9 14.4 24.4.7 42.5-15.1v243.1s4.5 20.5-32 20.6-182 0-182 0l-20 27.4-25-25.7z" fill="#003398"/><path d="m340.5 614.9v-476.4h464.9l1.5 476.4s-2.6 17.7-32 18c-29.5.3-182 0-182 0l-20 26.6-25-25h-188.1s-19.3 1-19.3-9.3 0-10.3 0-10.3z" fill="none" stroke="#000" stroke-miterlimit="10" stroke-width="4"/><path d="m808.9 427.1c.1 4.4-.1 11.8 0 16.2-32.8 18.4-66.2 15.6-99.4 1.7-9.6-4-18-5-27.5-.6-32.2 15-64.4 14.6-96.3-.8-7.7-3.7-14.4-3.8-22.2.1-30.6 15.3-61.9 15-93 1.9-11.4-4.8-21.3-5.1-32.7.1-32.9 14.8-66.1 10.7-99-.4.2-4.3.9-14 1.1-18.3 12.3 1 14 1.2 23.6 2.9 24 4.4 46.9 4.9 69.6-4.2 14.1-5.7 28.2-5.6 42.5-.2 27.2 10.2 54.4 10.9 81.5-.7 11.7-5 23.8-5.1 35.4-.2 28.4 12 56.7 10.7 85-.1 12.5-4.7 24.9-4.1 37.3.6 25.7 9.8 51.7 11.9 78.3 3.6 5.1-1.4 9.7-2.4 15.8-1.6z" fill="#fbfcfd"/><path d="m808.9 369.9c.1 4.4-.1 11.8 0 16.2-32.8 18.4-66.2 15.6-99.4 1.7-9.6-4-18-5-27.5-.6-32.2 15-64.4 14.6-96.3-.8-7.7-3.7-14.4-3.8-22.2.1-30.6 15.3-61.9 15-93 1.9-11.4-4.8-21.3-5.1-32.7.1-32.9 14.8-66.1 10.7-99-.4.2-4.3.9-14 1.1-18.3 12.3 1 14 1.2 23.6 2.9 24 4.4 46.9 4.9 69.6-4.2 14.1-5.7 28.2-5.6 42.5-.2 27.2 10.2 54.4 10.9 81.5-.7 11.7-5 23.8-5.1 35.4-.2 28.4 12 56.7 10.7 85-.1 12.5-4.7 24.9-4.1 37.3.6 25.7 9.8 51.7 11.9 78.3 3.6 5.1-1.5 9.7-2.5 15.8-1.6z" fill="#fbfcfd"/><g fill="none" stroke-miterlimit="10" stroke-width="10"><path d="m444.7 492.1-59.6-322.1" stroke="#fe0100"/><path d="m409.8 500.2-42.8-242.1 34 20.2 34-33.5 48 255.4" stroke="#000"/><path d="m702.1 495.3 59.5-322.1" stroke="#fe0100"/><path d="m736.9 503.4 42.8-242.1-34 20.1-34-33.4-48 255.4" stroke="#000"/></g><path d="m808.9 549.3c.1 4.4-.1 11.8 0 16.2-32.8 18.4-66.2 15.6-99.4 1.7-9.6-4-18-5-27.5-.6-32.2 15-64.4 14.6-96.3-.8-7.7-3.7-14.4-3.8-22.2.1-30.6 15.3-61.9 15-93 1.9-11.4-4.8-21.3-5.1-32.7.1-32.9 14.8-66.1 10.7-99-.4.2-4.3.9-14 1.1-18.3 12.3 1 14 1.2 23.6 2.9 24 4.4 46.9 4.9 69.6-4.2 14.1-5.7 28.2-5.6 42.5-.2 27.2 10.2 54.4 10.9 81.5-.7 11.7-5 23.8-5.1 35.4-.2 28.4 12 56.7 10.7 85-.1 12.5-4.7 24.9-4.1 37.3.6 25.7 9.8 51.7 11.9 78.3 3.6 5.1-1.5 9.7-2.5 15.8-1.6z" fill="#fbfcfd"/><path d="m808.9 489.7c.1 4.4-.1 11.8 0 16.2-32.8 18.4-66.2 15.6-99.4 1.7-9.6-4-18-5-27.5-.6-32.2 15-64.4 14.6-96.3-.8-7.7-3.7-14.4-3.8-22.2.1-30.6 15.3-61.9 15-93 1.9-11.4-4.8-21.3-5.1-32.7.1-32.9 14.8-66.1 10.7-99-.4.2-4.3.9-14 1.1-18.3 12.3 1 14 1.2 23.6 2.9 24 4.4 46.9 4.9 69.6-4.2 14.1-5.7 28.2-5.6 42.5-.2 27.2 10.2 54.4 10.9 81.5-.7 11.7-5 23.8-5.1 35.4-.2 28.4 12 56.7 10.7 85-.1 12.5-4.7 24.9-4.1 37.3.6 25.7 9.8 51.7 11.9 78.3 3.6 5.1-1.5 9.7-2.5 15.8-1.6z" fill="#fbfcfd"/><path d="m340.5 614.9v-476.4h464.9l1.5 476.4s-2.6 17.7-32 18c-29.5.3-182 0-182 0l-20 26.6-25-25h-188.1s-19.3 1-19.3-9.3 0-10.3 0-10.3z" fill="none" stroke="#000" stroke-miterlimit="10" stroke-width="5"/></svg>