<svg height="720" width="1440" xmlns="http://www.w3.org/2000/svg" xmlns:xlink="http://www.w3.org/1999/xlink"><clipPath id="a"><path clip-rule="evenodd" d="m0 .00012207h1080v539.99999793h-1080z"/></clipPath><clipPath id="b"><path clip-rule="evenodd" d="m0 .00012207h1080v539.99999793h-1080z"/></clipPath><clipPath id="c"><path clip-rule="evenodd" d="m0 .00012207h1080v539.99999793h-1080z"/></clipPath><clipPath id="d"><path clip-rule="evenodd" d="m0 .00012207h1080v539.99999793h-1080z"/></clipPath><clipPath id="e"><path clip-rule="evenodd" d="m.00006104 540h1079.99993896v-539.99975586l-1079.99990845-.00006103"/></clipPath><g transform="matrix(1.33333 0 0 -1.33333 0 720)"><g clip-path="url(#a)"><path d="m0 .00006104h1080v539.99999896h-1080z" fill="#fff" fill-rule="evenodd"/></g><g clip-path="url(#b)"><path d="m540 270h540v270h-540z" fill="#fcd116" fill-rule="evenodd"/></g><g clip-path="url(#c)"><path d="m0 .00006104h540v269.99999896h-540z" fill="#fcd116" fill-rule="evenodd"/></g><g clip-path="url(#d)"><path d="m540 .00006104h540v269.99999896h-540z" fill="#da251d" fill-rule="evenodd"/></g><path d="m0 270h540v270h-540z" fill="#da251d" fill-rule="evenodd"/><path d="m262.74 513.48c7.48 0 14.79-.76 21.85-2.2l7.25-2.26-8.62-.87c-47.96-9.81-84.03-52.27-84.03-103.15s36.07-93.34 84.03-103.15l8.62-.87-7.25-2.26c-7.06-1.44-14.37-2.2-21.85-2.2-59.88 0-108.42 48.57-108.42 108.48s48.54 108.48 108.42 108.48z" fill="#fff" fill-rule="evenodd"/><g clip-path="url(#e)"><path d="m346.04 466.32v-46.48l43.96-14.36-43.96-14.36v-46.48l-27.16 37.6-43.96-14.36 27.17 37.6-27.17 37.6 43.96-14.36z" fill="#fff" fill-rule="evenodd"/></g></g></svg>