<svg height="255.60001" width="426" xmlns="http://www.w3.org/2000/svg" xmlns:xlink="http://www.w3.org/1999/xlink"><radialGradient id="a" cx="138.000216" cy="74.000125" gradientUnits="userSpaceOnUse" r="9.332641"><stop offset="0" stop-color="#ffb2db"/><stop offset=".27986997" stop-color="#ffb2db"/><stop offset="1" stop-color="#ff4faf"/></radialGradient><g transform="scale(1 .9984375)"><path d="m0 0h426v256h-426z" fill="#fff"/><path d="m426 256s-1.96475-1.68655-3-2c-2.29702-.69548-5.68708.64064-8 0-1.68581-.46694-3.33505-2.4634-5-3-3.43832-1.10814-8.56168.10814-12-1-1.66495-.5366-3.31419-2.53306-5-3-3.46937-.96096-8.67403 1.37766-12 0-1.56788-.64944-2.51235-3.18336-4-4-2.42457-1.33096-6.67588-.50051-9-2-1.26043-.81321-1.75037-3.17028-3-4-1.03047-.6842-2.88313-.4684-4-1-1.35441-.64466-2.61418-2.42597-4-3-1.95984-.81179-5.2791.24036-7-1-.5442-.39224-.4604-1.60146-1-2-1.46787-1.08413-4.37742-.16499-6-1-.75448-.38827-1.22594-1.6524-2-2-4.66047-2.09286-12.06447.31931-17-1-1.9442-.5197-4.04137-2.53763-6-3-2.3358-.55141-5.78269.91844-8 0-.78394-.32472-1.21606-1.67528-2-2-1.66298-.68883-4.27723.52161-6 0-1.03525-.31345-1.96475-1.68655-3-2-2.00989-.60855-4.99011.60855-7 0-1.03525-.31345-1.96475-1.68655-3-2-1.72277-.52161-4.27723.52161-6 0-1.03525-.31345-1.96475-1.68655-3-2-2.00989-.60855-4.95618.48248-7 0-1.30575-.30825-2.67568-1.78509-4-2-2.09393-.3398-4.87882 1.02466-7 1-1.82471-.0212-4.17585-.95029-6-1-2.71561-.074-6.28338 1-9 1s-6.28594-1.11778-9-1c-1.52827.0663-3.47325 1.09505-5 1-.94685-.059-2.05422-.92579-3-1-1.81924-.14274-4.17644.93205-6 1-3.31131.12338-8-1-11-1s-7.68869 1.12338-11 1c-1.82356-.0679-4.18076-1.14274-6-1-.94578.0742-2.05315.94105-3 1-1.52675.095-3.47173-.93368-5-1-2.71406-.11778-6.28338 1-9 1s-6.28439-1.07401-9-1c-1.82415.0497-4.17529.97879-6 1-1.85603.0216-4.22268-1.02931-6.1875-1.0625-.28069-.005-.55076.02-.8125.0625-1.32432.21491-2.69425 1.69175-4 2-2.04382.48248-4.99011-.60855-7 0-1.03525.31345-1.96475 1.68655-3 2-1.72277.52161-4.27723-.52161-6 0-1.03525.31345-1.96475 1.68655-3 2-2.00989.60855-4.99011-.60855-7 0-1.03525.31345-1.96475 1.68655-3 2-1.72277.52161-4.33702-.68883-6 0-.78394.32472-1.21606 1.67528-2 2-2.21731.91844-5.6642-.55141-8 0-1.95863.46237-4.0558 2.4803-6 3-4.93553 1.31931-12.33953-1.09286-17 1-.77406.3476-1.24552 1.61173-2 2-1.62258.83501-4.53213-.0841-6 1-.5396.39854-.4558 1.60776-1 2-1.7209 1.24036-5.04016.18821-7 1-1.38582.57403-2.64559 2.35534-4 3-1.11687.5316-2.96953.3158-4 1-1.24963.82972-1.73957 3.18679-3 4-2.32412 1.49949-6.57543.66904-9 2-1.48765.81664-2.43212 3.35056-4 4-3.32597 1.37766-8.53063-.96096-12 0-1.68581.46694-3.33505 2.4634-5 3-3.43832 1.10814-8.56168-.10814-12 1-1.66495.5366-3.31419 2.53306-5 3-2.31292.64064-5.70298-.69548-8 0-1.03525.31345-3 2-3 2" fill="#00743f"/><g stroke="#000" stroke-linecap="square" stroke-width=".5"><path d="m193.125 183.875c-1.20848-11.68631.70055-25.91963-.4375-30.5-1.54167-1.1875-3.80554.0454-4.6875 1.1875 1.49572 9.802-1.63999 19.05159 5.125 29.3125z" fill="#002a01"/><path d="m138.125 83.625c-.12536 39.71551 12.00932 56.40977 22.875 76.375l2.125-1.25c-9.57109-17.85906-23.01947-39.03808-22.875-73z" fill="#003403"/><path d="m159.75 68c-8.12719 23.32075 1.76522 33.83497 2.5 45.25.64925 10.0864-7.25337 15.28374-1.5 47.625l9.375 7.375c-7.48995-30.86923 16.73815-38.47063 5.5-57.75-.47996 12.55538-3.66699 14.49709-6.25 17.125 3.4449-25.16398-9.42617-34.73744-9.5-43.875-.0644-8.19012 1.29167-10.50513-.125-15.75z" fill="#003403"/><path d="m181.875 187.5c-.58333-10.47917-2.92321-33.77738 10.8125-34.125-1.04167-2.8125-2.80554-6.5796-7.5625-7.5625-17.11546 13.81827-10.78217 27.17661-10.5 40.3125z" fill="#004011"/><path d="m149.00013 85.00008c-.32851.375443-2.04342-.275644-2.42663.04378-.38319.319429-.0515 2.123538-.47995 2.379089-.42844.255552-1.85823-.893607-2.32138-.708226-.46316.18538-.70519 2.003693-1.19164 2.114336-.48645.110647-1.49114-1.424095-1.98891-1.39091-.49777.03319-1.28985 1.68771-1.78669 1.642617-.49683-.04509-.97809-1.815184-1.46174-1.937444-.48367-.122259-1.74826 1.206523-2.20684 1.010107-.45858-.196415-.3693-2.02859-.79151-2.294325-.42221-.26573-2.03551.607237-2.41096.278725s.27564-2.043424-.0438-2.426624c-.31944-.383199-2.12355-.05149-2.3791-.479948-.25555-.428452.8936-1.858233.70823-2.321387-.18538-.463153-2.00369-.705185-2.11434-1.191637-.1107-.486451 1.4241-1.491144 1.39091-1.988916-.0332-.49777-1.68771-1.289846-1.64261-1.78668.045-.496834 1.81518-.978093 1.93744-1.461756.12226-.483664-1.20653-1.748249-1.01011-2.206832.19641-.458582 2.02859-.369298 2.29433-.791509.26576-.42221-.60721-2.035519-.2787-2.410961.32851-.375443 2.04342.275644 2.42663-.04378.38319-.319429.0515-2.123538.47995-2.379089.42844-.255552 1.85823.893607 2.32138.708226.46316-.18538.70519-2.003693 1.19164-2.114336.48645-.110647 1.49114 1.424095 1.98891 1.39091.49777-.03319 1.28985-1.68771 1.78669-1.642617.49683.04509.97809 1.815184 1.46174 1.937444.48367.122259 1.74826-1.206523 2.20684-1.010107.45858.196415.3693 2.02859.79151 2.294325.42221.26573 2.03551-.607237 2.41096-.278725s-.27564 2.043424.0438 2.426624c.31944.383199 2.12355.05149 2.3791.479948.25555.428452-.8936 1.858233-.70823 2.321387.18538.463153 2.00369.705185 2.11434 1.191637.1107.486451-1.4241 1.491144-1.39091 1.988916.0332.49777 1.68771 1.289846 1.64261 1.78668s-1.81518.978093-1.93744 1.461756c-.12226.483664 1.20653 1.748249 1.01011 2.206832-.19641.458582-2.02859.369298-2.29433.791509-.26576.42221.60721 2.035519.2787 2.410961z" fill="url(#a)"/><path d="m147.65625 156.5625c15.8887 14.65208 23.18616 24.48708 26.42342 34.70201.85164 2.68727 1.42227 5.40083 1.79441 8.23531.46023 3.50547.61686 7.19587.62592 11.25018-1.61619 4.21983-4.81861 13.11962-.25 17.75 1.67266-4.4825 7.12136-4.37041 9.625.5 3.75232-6.73117.55083-11.608-.25-17.125-.009-3.96148-.0147-7.98351-.39854-12.14476-.34047-3.69083-.97863-7.49117-2.18115-11.45592-3.53705-11.66181-11.95677-24.74601-32.04531-40.64932-2.09934-.71125-5.2921 6.68465-3.34375 8.9375z" fill="#003403" stroke-linejoin="round"/></g><path d="m170.15163 182.38731c1.72044 3.01077 2.99344 5.92815 3.92804 8.8772.85164 2.68727 10.16816.97456 8.96564-2.99019-.93032-3.0673-2.19842-6.233-3.92779-9.52252-4.13017 3.44062-3.22026-1.09439-5.56819.59612-1.77398 1.27727.28144 3.49352-3.3977 3.03939z" fill="#004011"/><path d="m174.07967 191.26451c.85164 2.68727 1.42227 5.40083 1.79441 8.23531.46023 3.50547 9.73624 4.39167 9.35238.23042-.34047-3.69083-.97863-7.49117-2.18115-11.45592-2.92437 5.63088-2.10432.21635-4.54198 1.32575-1.81126.82432.95918 3.4698-4.42366 1.66444z" fill="#44886b"/><path d="m147.65625 156.5625c15.8887 14.65208 23.18616 24.48708 26.42342 34.70201.85164 2.68727 1.42227 5.40083 1.79441 8.23531.46023 3.50547.61686 7.19587.62592 11.25018-1.61619 4.21983-4.81861 13.11962-.25 17.75 1.67266-4.4825 7.12136-4.37041 9.625.5 3.75232-6.73117.55083-11.608-.25-17.125-.009-3.96148-.0147-7.98351-.39854-12.14476-.34047-3.69083-.97863-7.49117-2.18115-11.45592-3.53705-11.66181-11.95677-24.74601-32.04531-40.64932-2.09934-.71125-5.2921 6.68465-3.34375 8.9375z" fill="none" stroke="#000" stroke-linecap="square" stroke-linejoin="round" stroke-width=".5"/><path d="m146.625 192.875c-2.72057-16.73893-11.00513-18.96282-5.75-46.125 3.65457-1.38577 6.76606-.263 10.125.875-8.31009 14.70106-.16667 25.54167-4.375 45.25z" fill="#004011" stroke="#000" stroke-linejoin="round" stroke-width=".5"/><g transform="translate(-162 -404.36218)"><path d="m333.5 417.86218h52v45h-52z" fill="#db000d" stroke="#000" stroke-linecap="square" stroke-linejoin="round"/><g fill="#d2ab00" stroke="#000" stroke-linecap="square" stroke-linejoin="round"><path d="m329.5 417.86218h4v205l-1.5 7.5h-1l-1.5-7.5z"/><rect height="4" rx="1.714286" ry="2" width="6.000001" x="328.5" y="622.86218"/><rect height="4" rx="2.285714" ry="2" width="8" x="327.5" y="413.86218"/></g><g fill="#fff"><path d="m197.5 34.5-25.5 19.5v4h2.625l22.875-17.5 22.875 17.5h2.625v-4z" transform="translate(162 404.36218)"/><path d="m359.5 419.86218-25.5 19.5v6l25.5-19.5 25.5 19.5v-6z"/><path d="m359.5 429.36218-25.5 19.5v6l25.5-19.5 25.5 19.5v-6z"/></g></g><g stroke="#000" stroke-linejoin="round" stroke-width=".5"><path d="m208.0625 88.8125c.91787 2.9375.58001 5.875.5625 8.8125l2.3125-.5c-.41477-3.22917-.56377-6.45833-.3125-9.6875z" fill="#fff" stroke-linecap="round"/><g fill="#225aa6" stroke-linecap="round"><path d="m219.75 91.125c-14.67267-1.71049-11.10072 5.10808-24.875 3.75-.11386-.75.094-1.5.8125-2.25-3.21482.026-6.51364.38789-9.25-1.5 1.22966 5.12031 4.96847 5.67854 7.875 7.75l.3125-2.125c14.74543.83978 11.29892-5.24658 25.4375-3.6875z"/><path d="m168.3125 73.6875c1.90868 1.667042 3.35802 3.291603 3.1875 6.5625h2.75c-.97761-2.325208.82703-5.188049-5.9375-6.5625z"/><path d="m175.375 74.4375c1.90868 1.66704 1.79552 3.6666 1.125 6.9375l2.5625-.125c-.72761-2.32521.95203-5.62555-3.6875-6.8125z"/><path d="m169.5625 105.625c.64949 3.97003-1.25846 4.70716-3.1875 5.9375 2.74978.7312 5.10166-.24289 6.6875-4.5zm-3.125 62.8125c.44669 4.29392 3.28236 4.44484 5.75 4.6875-1.79333-1.81444-3.66292-3.61194-4-5.75zm3.4375-20.0625c2.37015-2.12444 4.78676-1.79033 7-1.875-2.65304.97001-3.43639 2.35512-4.9375 4.3125zm23.5625 75.625c-2.12051 2.29167-2.81555 4.58333-2.4375 6.875 1.74887-2.10704 3.03272-4.52709 5.3125-5.75zm-8.25-4.6875c-2.05645.60221-3.92254 2.48291-5.8125 4.75 2.6875-1.64648 4.625-2.00371 7.3125-2.1875zm-.5625-5.0625c-1.69199.2852-2.95349.0553-5.4375 2.875 2.13829-.67242 3.39764-1.21195 5.0625-.9375zm31.5 1.625 4.875 5-6.1875-2.375zm11.8125 3.75c-4.27.40775-5.50629 3.01842-5.6875 5.4375 1.51285-1.58309 3.69609-2.68732 6.375-3.4375zm2.3125 4.9375c-2.30541 2.39583-2.79292 4.47917-3 6.875 1.47638-1.77848 2.58073-3.56999 5.3125-4.25zm7 3.75c-.35317 2.03564-1.16433 4.92543 1.0625 7.1875.50218-2.27004.62758-4.67709 2.875-6.3125zm17.1875-9.3125c5.29246.60126 5.16601 2.969 6.5 4.875-2.19005-.75723-3.53155-1.91889-6.3125-1.9375z"/></g><path d="m388.1875 465.20593c-1.73385 3.23958-2.96562 4.85417-3.3125 9.59375-2.7416-.25606-4.93495.57016-6.84375 2.8125-3.50908-.3368-6.94221 1.46087-8.55825 4.30443-3.80501.18446-5.36973 4.39178-7.62925 6.78932l3.1875.875c-.13324 2.33663.21479 4.48075 3.375 5.5l5.09375-2.84375c7.68631.70033 7.17286 3.6991 6.375 6.5625-5.27496.46033-14.27859 3.21973-9.71875 6.1875 3.16364 2.05905 5.83767-4.4826 10.4375-2.125-2.61045 1.59852-3.48658 2.88172-4.30187 4.15385-3.50626.38736-4.11462 1.57969-4.68951 2.78132-3.79187.0314-4.9776 1.36592-5.81113 2.87651-4.73889.52754-5.35819 2.69064-5.76114 4.33025-2.34004.77746-3.66743 2.1036-4.5301 3.70182-9.51451-8.63547-15.09089-14.26079-18.03125-27.03125 2.38705-2.84748 6.80934-4.83152 4.09375-9.84375-1.6004 1.07962-2.56625 1.95157-3.5.53125-.19926-.7983-.18034-1.78751-1.65625-1.46875-1.56836 1.33009-2.45362.61086-3.375 0-5.03896 2.63708 2.25293 10.83384 1.59375 21.90625-6.65017 2.10687-5.58872 4.65025-3.53125 7.25 1.55002-1.06255 2.82046-1.19318 3.375 1.0625 3.37264-.0971 1.94933-6.85723 4.21875-6.53125 3.01135 8.9982 3.35449 16.90385 11.15625 25.71875-3.95669 2.92122-8.18369 5.1338-12.79463 6.25595-6.29334 1.53159-12.42699 2.02553-13.23662 8.43155-.93238 7.37726-.36842 28.52109 4.8125 27.625.341-.94205-.18314-2.2701 3.1875-.875.51032-.90203 1.21434-1.80266 1.125-2.90625-.31127-3.84522-6.20413-4.74812-2.53125-11.21875 2.50486-.64034 5.31383-.69498 5.65625-5.5-2.36659.63031-3.49694-.12107-3.03125-2.65625-1.67834-.22025-2.65363 1.84444-3.6875 3.71875.0855-2.77446-1.5829-5.13969 3.15625-9 16.57015 2.0049 18.10124-3.50901 25.125-2.3125-1.16545 4.01184.44861 4.34894 1.21875 5.65625.0391 2.5059 1.70919 6.24481 5.3125 6.53125 1.48008 5.94443 4.81465 6.01499 7.03125 6 .78518 3.14781 4.83249 3.05971 8.09375 3.28125-2.82178 11.13576-17.30604 2.32396-17.59375 17.1875-.30696 13.56309 5.9225 17.10007 11.15625 21.84375l-13.625 14.625c-6.49189.072-6.38421-3.67001-13.96875-.6875.53937.88214 1.04131 1.76739-.375 2.8125 2.30972-.20646 4.35299-.33298 7.78125-.875-3.78974.41427-5.53338 1.96525-7.25 3.53125 1.71265 1.04819 2.05238 2.21802 1.0625 3.1875 6.20283 1.59869 8.20468-1.53774 10.25-1.78125-2.50905 1.44285-4.01123 2.98638-3 4.78125 1.82931-.81991 3.51277-1.23348 3.71875 2.46875 8.01149-3.68338 4.02904-7.07438 10.9375-8.25 4.85539 1.33953 7.60769 2.29317 10.46875-.21875-2.59382-1.34817-.32356-3.11134.6875-3.53125-3.7113-4.36751-7.58686.63736-10.59375-1.0625 4.04043-5.16242 8.36778-10.45587 16.4375-15.40625-2.18292-4.98312-11.41278-12.17374 1.125-19.09375.94019 1.64221 3.15852 2.1428 5.46875 2.125 1.19656 2.90805 4.48889 3.04473 6.9375 3.46875 9.26516 9.01749 4.75033 27.69793.96875 32.4375-3.28625-.19917-10.90337-3.08476-12.0625 1.53125 2.57062-.0651 1.78495 2.26515 1.46875 3.25l1.125 2.15625c2.30454-.69361 3.06733 1.46998 3.8125 2.78125 2.91916.95412 2.3997-6.12915 5.125-5.125-.27966 1.78688-4.59129 5.01457-.90625 7.25 2.61111-1.78472 3.76279-.65057 4.625 1.0625 4.93391-2.69337 1.13188-6.97347 4.21875-9.71875 6.27166-1.85665 6.47926 3.732 10.96875 1.5625-.82974-2.19522-.16479-3.26943.875-4.0625-3.03901-4.55468-3.83849-1.80503-10.0625-1.9375.32513-24.63937 4.24971-24.40914 3.75-31.40625-8.54518-3.91458-6.61491-12.14412-6.40625-20.90625 8.18859 4.07845 10.05251 10.12884 17.3125 9.71875 2.76643 3.49452 4.51288 7.32904 4.78125 11.65625l-5.375-4.375c3.69276 8.56475 1.53806 16.20045-1.5 22.0625 5.17756-3.24114 16.3237-9.48924 13.34375-22.96875-.57569.51885-2.18871 4.98783-3.96875 6.5625-.0514-3.92043.74032-7.19748-3.03125-13.28125 3.45267-.30423 6.36873-.52783 9.5625-5.15625 2.84296 3.01769 3.70473 6.95069 5.125 10.625 4.47328-19.88136 2.06633-47.98943-9.1875-77.25 3.5869-.4365 5.74712 1.5048 7.21875 4.59375 7.86874-3.81341 10.11229 3.71062 10.96875 8.125 7.16438-1.78612 7.2083 2.87007 9.90625 5.125 2.07912-27.17405-27.01552-65.50126-60.46875-51.78125 6.45497 7.20406 5.51099 15.40663 2.78125 22.25-1.21875.81906-2.4375.11935-3.65625-.875-.2528-2.40147.31456-3.91444-1.78125-8.3125.48754-.70415 1.99626-.67895 3.4375-.90625-.78369-1.12717-1.32853-2.53527-5-2.25l-2.75-1.71875c1.57841-4.26713 5.04491-3.49936 3.625-15.96875-1.83316-.19843-4.43789 2.54284-7.9375 7.34375.37519-2.94502-.5535-5.32231-1.625-7.34375zm11.78125 31.78125c.29888-.42547 1.53244.23092 1.5625.75.0241.41646-.6441 1.53214-1.53125 1.84375.0457-.66422-.26299-2.26385-.0312-2.59375zm26.59375 53.40625c6.94251-3.34243 9.71975 1.52152 9.625 9.03125-10.40917-7.12273-20.87274-.96837-15.46875 14.09375-6.83486-4.31573-7.25618-9.50912-17.125-12.25-2.05321-3.5493-3.31137-6.99133-7.625-11.21875.75743-.69582 1.37992-1.20384 5.5.1875 3.55654-6.62284 7.11936-6.50166 12.09375-3.53125 4.08697-4.78496 10.62151-3.91331 13 3.6875zm4 11.34375c5.42233 2.30462 3.85936 12.00921-3.75 12.28125-3.53088-2.16103-5.20134-16.08578 3.75-12.28125z" fill="#db000d" transform="translate(-162 -404.36218)"/><g stroke-linecap="round"><g transform="translate(-162 -404.36218)"><g fill="none"><path d="m458.375 516.73718c-1.54167-12.125-16.63782-48.80055-51.875-42.75 4.04446 11.41139 3.82727 21.57546-5.75 29 11.58171 1.80475-.16396 29.24583-20.75 18.25"/><path d="m405.125 498.36218c22.76245-5.6669 17.66615-14.06139 28.375 8"/><path d="m442.5 576.73718c-.20833-25-12.27496-75.27451-23.125-73.875-9.24555 1.19255 3.10592 32.12112-35.625 32.125-8.63973.00087-8.87744 11.05374-5.11327 14.82651 4.65794 4.66857 19.19535 10.27677 17.86327 19.42349-1.45646 10.00083 4.02354 13.53701 5.75 15.75"/><path d="m372.25 536.11218c11.36525-10.98591 30.5033 2.80079 39-23.5m8.5-4.625c6.16667 14.375 13.49843 29.875 15.4375 45.25m1.0625 6.25c1.70678 1.70678 3.51775 9.81465 1.3125 14.0625m-21.4375-52.9375c8.36111 15.04784 7.47276 20.33236 10.5 29.75m-17.375-16.625c2.32219 4.33333 4.23779 8.66667 4.25 13m-15.125-7.96875c2.43248 4.5388 2.7667 7.77145 3.125 11.5m19.15625 23.09375c1.31254.85524 3.59962.92742 6.1875.6875m-3.15625 5.03125c1.68954.0302 3.04057-.19353 4.40625-.40625m-47.46875-86.6875c5.04167 7.19912 7.45833 6.37155 14.1875 5.25-.88565-1.17407-2.69969-2.49231-4.75-3.5h6c-.80189-1.99604-3.77741-3.49047-6.6875-5 1.68643-.003 3.28331-.0788 6.75 1.375-.30833-2.8426-3.09909-4.30606-6.375-5.5m7.1875-1.75c1.25373 1.32078.94094 2.09027 1.46875 3.21875m-3.78125-16.34375c-2.95079 3.1875-4.34644 6.375-5.3125 9.5625m.5625-7.0625c-2.13472 2.78767-2.61618 5.36869-3.5 8m-16.84375 1.65625c3.44572.056 3.02083.57292 4.09375.96875m-8.5625 6.625-.1875-2.25m15.5 15.5c2.61956.63315 3.27371-.30603 4.3125-.9375m2.9375 2.9375c-1.78035 9.51935-15.75104 11.77077-19.31479 21.4107-3.05521-1.4979-2.49217-3.8435-13.06021-3.3482"/><path d="m360 517.11218c8.44939-.25945 7.19275 3.19223 10.5625 4.875m-4.5625-9.375c6.19322 1.9761 5.64155 4.18477 7.4375 6.3125m-1.6875-9.3125c4.13879 2.1875 4.19095 4.375 5.75 6.5625m-1.1875-9.1875c3.51595 1.60417 4.39648 3.58333 6.5625 5.1875m-33.0625 20.125 7.625-5.375m-2-6.125c.15045 3.02662-2.55403 6.00124-1.9375 8.8125m4.25 14.3125c3.16223.36398 3.55069-3.17421 6.8125-3.0625m-5.75 8.625c5.06811-.41677 6.43438-2.01141 7.9375-3.5625m-2.625 10.25c3.52769-.7937 6.1161-2.12413 7.3125-4.25m-.25 10.1875c2.58068-.13171 4.86775-1.70445 5.3125-3.125m2.75 6.375c1.20927-.8125 1.82167-1.625 2.375-2.4375m-2.25-12.4375c2.80375-2.11411 6.18471-2.92189 12.125 2.0625 2.2786-2.21515 3.69908-2.86547 4.5625-2.5"/><path d="m389.3125 541.92468c1.23059 3.41798 2.53541 6.82073 2.1875 10.5625m-13 14.9375c4.55339 7.02083 3.89583 10.97917 7.625 17.3125"/><path d="m380.125 570.04968c1.66531-.836 3.92678-.39312 5.60355-2.30936m-4.67363 4.375c2.4941-.5345 5.93474.76654 7.57008-1.37814m-5.6875 6.375c2.19003-.39121 4.89945 1.03547 6.57008-1.17364m-4.13258 6.92364c2.33767.28009 4.48629.34205 5.3125-1.12186m1.3125 5.30936c.92774-.13476 1.65142-.47358 1.875-1.3125m12.5-16.5-2.6875-7.9375m-14.25 66.59597c3.11065-3.17484 7.07797-2.30084 10.375-4.97097m-8.52024-99.29927 3.09774-7.54275c1.08434 1.9575 2.16867 2.94151 3.25301 3.01344-.5585-1.47827-.32492-2.83469-2.27011-4.5263l3.60717-8.00492 3.79349 2.66814c-.38476-1.65234.45941-3.09279-3.10165-5.29277.14408-3.22891.18699-6.55898.54757-9.57139m3.62392.83969c-.27641 1.28858.5322 4.03576-2.47487 2.25391m-27.93072-5.21492c1.33289-1.87372 2.57054-3.26114 2.38649-5.56846"/></g><path d="m375.69172 484.60195c1.00173-1.70191 3.36008-1.98373 4.37522-1.98874.0682 1.65921.0158 2.40234-.39775 3.62393l-3.7565.83968z" fill="#fafa00"/><path d="m375.60333 484.64614 2.34229-.22097c-.0566 1.13087-.84038 1.97085-2.07395 2.63092z"/></g><path d="m175.375 78.75c2.40346 3.631859-.90417 6.383855.375 11.75m-15 65.6875c.77103 3.23741 5.04053 8.02573 3.25 11.1875" fill="none"/><path d="m176.92672 225.91254c-.1993 3.54664-8.68741 1.90085-8.88759 2.68707-.30628 1.20295 9.01562.66292 9.01562.66292-1.44705.53033-6.28653 5.76591-4.552 5.56846 1.05256-.11982 5.26502-5.18393 5.74524-4.46362-1.75398 1.14905-4.2013 9.04146-2.20972 8.92724.75423-.0433.80274-5.52428 3.75651-8.3969-.77299 3.77819.2704 7.80145 1.63518 7.07107.9649-.51638-1.01105-4.46578-.35355-5.48008 1.50872 2.2134 6.03159 6.73464 6.67332 5.61266.46404-.81132-5.76879-5.92546-4.99394-8.44109 0 0 6.96877 2.50106 7.15945 1.23743.16567-1.09791-4.69165-1.23213-4.59619-1.90034 1.173-.50836 7.32166.90099 7.33623-.13258.0141-.99893-9.87391-.42532-9.9289-3.92086-.0186-1.18048-5.72126-.42647-5.79966.96862z" fill="#8b7600"/></g></g><g transform="translate(-162 -404.36218)"><path d="m337.87408 603.862c.46023 3.50547.61686 7.19587.62592 11.25018-1.61619 4.21983-4.81861 13.11962-.25 17.75 1.67266-4.4825 7.12136-4.37041 9.625.5 3.75232-6.73117.55083-11.608-.25-17.125-.009-3.96148-.0147-7.98351-.39854-12.14476-2.66781 1.86035-1.60218-.56204-3.95188-.50662-2.33309.055-1.52005 3.43809-5.4005.2762z" fill="#dae7e1"/><path d="m333.57334 589.41946c1.02737 2.08232 1.85023 4.13697 2.50633 6.20723.85164 2.68727 1.42227 5.40083 1.79441 8.23531.46023 3.50547.61686 7.19587.62592 11.25018-1.61619 4.21983-4.81861 13.11962-.25 17.75 1.67266-4.4825 7.12136-4.37041 9.625.5 3.75232-6.73117.55083-11.608-.25-17.125-.009-3.96148-.0147-7.98351-.39854-12.14476-.34047-3.69083-.97863-7.49117-2.18115-11.45592-1.96714-6.48575-5.44452-13.41146-11.59951-21.01739z" fill="none" stroke="#000" stroke-linecap="square" stroke-linejoin="round" stroke-width=".5"/></g></g></svg>