<svg height="600" width="1200" xmlns="http://www.w3.org/2000/svg"><path d="m0 0h1200v600h-1200z" fill="#df0c0c"/><path d="m0 0h1200v400h-1200z" fill="#004a99"/><path d="m0 0h1200v200h-1200z" fill="#008a35"/><g fill="#fff"><path d="m0 195h1200v10h-1200zm0 200h1200v10h-1200z" stroke-width="3.26598"/><path d="m698.08224 281.10437 18.55207-56.10437 20.24688 55.51526 59.09133.30686-46.54151 36.41108 17.96837 56.29402-49.01111-33.01197-47.98626 34.48475 16.25097-56.8136-47.62551-34.98127zm-177.77057-45.90291 6.18402-18.70146 6.74896 18.50509 19.69711.10229-15.51384 12.13702 5.98946 18.76468-16.33704-11.00399-15.99542 11.49491 5.417-18.93786-15.87518-11.66043zm0 117 6.18402-18.70146 6.74896 18.50509 19.69711.10229-15.51384 12.13702 5.98946 18.76468-16.33704-11.00399-15.99542 11.49491 5.417-18.93786-15.87518-11.66043zm-96.59927-58.5 6.18402-18.70146 6.74896 18.50509 19.69711.10229-15.51384 12.13702 5.98946 18.76468-16.33704-11.00399-15.99542 11.49491 5.417-18.93786-15.87518-11.66043z" stroke-width="4"/></g></svg>