<svg height="660" width="1100" xmlns="http://www.w3.org/2000/svg" xmlns:xlink="http://www.w3.org/1999/xlink"><linearGradient id="a" gradientUnits="userSpaceOnUse" x1="531.18" x2="599.167" y1="200.586" y2="199.4"><stop offset=".1463" stop-color="#3b2200"/><stop offset=".2125" stop-color="#563509"/><stop offset=".35" stop-color="#613d0d"/><stop offset=".3856" stop-color="#855705"/><stop offset=".4463" stop-color="#976500"/><stop offset=".5446" stop-color="#960"/><stop offset=".642" stop-color="#865804"/><stop offset=".7239" stop-color="#613d0d"/><stop offset=".8603" stop-color="#5f3c0c"/><stop offset=".9735" stop-color="#3b2200"/></linearGradient><linearGradient id="b" gradientUnits="userSpaceOnUse" x1="515.628" x2="586.16" y1="298.55" y2="298.96"><stop offset="0" stop-color="#960"/><stop offset=".5053" stop-color="#976500"/><stop offset=".817" stop-color="#855705"/><stop offset="1" stop-color="#613d0d"/></linearGradient><path d="m0 0h1100v660h-1100z" fill="#063"/><path d="m0 162.223v46.6458c28.6033 28.4253 126.834 99.8212 153.326 111.339 30.0619 13.0704 40.5183 20.9122 92.7996 30.0614 52.2814 9.1493 98.0268 16.9915 130.703 14.3774 32.676-2.6142 105.87 23.5269 133.318 30.062 27.4477 6.5351 79.7294 24.8332 107.177 31.3683 27.4475 6.5351 53.5888 33.9833 69.2732 44.4393s27.4478 14.3778 57.5094 37.9043c16.4362 12.8634 86.8088 65.5372 145.08 99.3347 44.004 25.524 87.384 43.328 111.054 52.245h99.76v-27.9452c-76.1-4.546-139.416-35.524-183.051-64.616-65.868-43.915-134.213-98.187-161.08-120.449-45.746-37.9041-124.169-66.6587-150.309-70.58-26.1404-3.9212-32.6758-22.2195-79.7291-33.9829-47.054-11.763-150.309-23.526-267.942-39.211-117.633-15.684-215.661-139.852-215.661-139.852l-42.228-1.141z" fill="#4186b1"/><g stroke="#000" stroke-linejoin="round" stroke-width="2.2"><path d="m538.518 287.776s6.59918 20.4584 28.3778 20.4584c21.7784 0 24.4181-17.8184 24.4181-17.8184l1.97972-181.485s-8.57917-17.1586-31.0175-17.1586c-22.4381 0-30.3575 20.4584-30.3575 20.4584l6.59945 175.546z" fill="url(#a)"/><ellipse cx="562.473" cy="109.737" fill="#382511" rx="30.5943" ry="19.4494"/><path d="m582.553 97.4193-14.15 10.9787.45601 2.33536 22.4248 1.52914s2.03775-12.2239-8.7307-14.843zm-41.4235 2.12158c-5.62183 1.40333-7.35677 11.2352-7.35677 11.2352l20.9623-.79653 1.18484-3.00567-14.7904-7.43305z" fill="#613d0d" stroke="none"/><path d="m335.965 384.37 42.4897 58.809s45.556-39.8612 70.9621-67.8958c25.4062-28.0346 63.0773-81.9132 67.0197-91.1119 3.9424-9.19875 19.7117-28.4724 24.0919-35.481 4.3802-7.00865 21.464-17.9597 26.7204-19.7117 5.25635-1.7523 25.8442-16.6455 28.9105-24.0919 2.52395-6.12948 3.9424-45.9938-2.62845-51.2504-1.28535-1.02822-9.40748 9.61015-16.4948 14.7158-14.7851 10.2088-29.6233 21.7058-34.573 27.4805-.4125-13.1994.825-28.0486-.825-40.0106 0 0-10.7244 5.77473-11.962 14.437-1.49517 10.4665-8.19858 23.9272-9.07472 30.9358-.87616 7.00865-5.57013 13.305-9.07446 18.5617-3.50432 5.25662-54.2262 60.9111-72.1856 75.3662s-54.3166 50.8123-66.1436 60.011c-11.8269 9.19875-37.2328 29.2364-37.2328 29.2364z" fill="url(#b)"/><path d="m568.037 187.995s14.0811-7.38677 19.7136-14.0753c2.41065-2.86247 9.85683-11.8586 9.85683-11.8586m-30.3955 39.5456s15.4561-7.79873 21.0886-14.4873c2.41065-2.86247 9.85683-11.8585 9.85683-11.8585m-34.4985 39.6789s19.0091-9.03155 24.6414-15.7201c2.41065-2.86247 9.85682-11.8586 9.85682-11.8586" fill="none"/></g><path d="m0 0h275v165h-275z" fill="#bf0a30"/><path d="m0 22.5h275m0 30h-275m0 30h275m0 30h-275m0 30h275" stroke="#fff" stroke-width="15"/><path d="m0 0h75v75h-75z" fill="#002868"/><path d="m37.5 15 13.225168 40.702882-34.62394-25.155764h42.797544l-34.62394 25.155764z" fill="#fff"/></svg>