<svg enable-background="new 0 0 1125 750" viewBox="0 0 1125 750" xmlns="http://www.w3.org/2000/svg"><path d="m-.01146528-.01147251h1125.00796528v630.94209251c-375.00265 0-750.00531 0-1125.00796528 0v-630.94209251" fill="#fff" stroke-width=".881944"/><g transform="matrix(.88194416 0 0 .8819431 .253118 -.717027)"><g fill="#3a7035"><path d="m-.3 716.2h1275.6v20.2c-425.2 0-850.4 0-1275.6 0v-20.2z"/><path d="m-.3 743.2h1275.6v6.8c-425.2-.2-850.4 0-1275.6-.1z"/><path d="m-.3 756.8c425.2.1 850.4 0 1275.6.1v3.3c-425.2 0-850.4 0-1275.6 0v-3.4z"/></g><path d="m-.3 736.5h1275.6v6.8c-425.2 0-850.4 0-1275.6 0v-6.8z" fill="#ebcd30"/><path d="m-.3 749.9c425.2.1 850.4-.1 1275.6.1v6.8c-425.2-.1-850.4.1-1275.6-.1z" fill="#834922"/><path d="m-.3 760.1c425.2-.1 850.4 0 1275.6 0v30.4c-425.2 0-850.4 0-1275.6 0v-30.4z" fill="#2381bd"/><path d="m-.3 790.5h1275.6v3.4c-425.2 0-850.4 0-1275.6 0v-3.4z" fill="#5fb168"/><g fill="#598644"><path d="m-.3 793.8c425.2.1 850.4 0 1275.6 0v3.3c-425.2 0-850.4 0-1275.6 0v-3.3z"/><path d="m-.3 817.5h1275.6v6.7c-425.2 0-850.4 0-1275.6 0v-6.7z"/><path d="m-.3 827.6h1275.6v6.7c-425.2 0-850.4 0-1275.6 0v-6.7z"/><path d="m-.3 837.7h1275.6v6.7c-425.2 0-850.4 0-1275.6 0v-6.7z"/></g><g fill="#1b2e6a"><path d="m-.3 797.2h1275.6v20.2c-425.2 0-850.4 0-1275.6 0v-20.2z"/><path d="m-.3 824.2h1275.6v3.4c-425.2 0-850.4 0-1275.6 0v-3.4z"/><path d="m-.3 834.3h1275.6v3.4c-425.2 0-850.4 0-1275.6 0v-3.4z"/><path d="m-.3 844.5h1275.6v6.7h-1275.6z"/></g><path d="m334.9 62c9.5-4 20.4-3.3 29.2-8.8 12.7 1.3 26.9 4.9 35 15.3 6.9 12.9 4.9 28.2 4.1 42.2-3 10.3-16.7 6.6-24.5 4.6-10.9-3.4-23.3-4.4-31.8-12.7-4.8-1.1-11.1-1.1-13.4-6.4-4.7-11-.1-23 1.4-34.2z" fill="#d82826"/><g fill="#127dc0"><path d="m243.6 97.3c11.2-8.7 28.4-10.4 41-3.7 13.5-1.1 29.9 8.5 30.1 22.6-8.5 13.7-18.1 27.5-31.6 36.9-6.8 4.6-12.7-3.7-19.3-4.9-12.1-3-23.4-13.3-23.4-26.2-1.3-8.2-4.4-18.4 3.2-24.7z"/><path d="m171.9 304c11.1 9.5 24.5 18.2 39.9 17.7 34-1.3 68.8 2.5 100.9 14.1 15.8 5.3 28.2 16.3 40.8 26.6-2.8 4.7-5.5 9.4-8.1 14.2-20.4-17.2-46.8-25.3-72.7-30.7-24.7-4.8-50-7.6-75.2-6.5-4.3-.5-9.7 1.7-13.4-1.1-6.6-10.4-9.3-22.6-12.2-34.3z"/><path d="m510.8 321.6c15.4.5 28.9-8.2 39.8-17.9-3.5 12.1-5.2 26.1-13.8 35.8-43.3-1.7-87.7 2.6-128.2 18.4-18.4 6.8-33.2 19.7-47.7 32.3-9.1-6.2-1-15.9 3.6-22.4 14-15.1 31.1-28.1 51.2-34.2 30.6-9.8 63.1-13.2 95.1-12z"/></g><path d="m445.3 117.7c8.9-3.8 19.7-3.5 27.5 2.6 11.8 8.9 18.1 22.6 24.2 35.5 3.8 8 6.3 17.8 2.4 26.2-3.8 4.3-9 7.3-14.6 8.8-6.7-1.7-12.8-6.9-20-3.9-12.9 3.8-28.2-2.5-34-14.4-5.7-9.7-15.1-18.3-15.5-30.2 3.3-14.1 18.1-19.4 30-24.6z" fill="#dec436"/><path d="m359.4 132c13.2-1.1 28.6 1.8 37.2 12.6 11.8 13.6 21.6 29.9 23.9 47.9 2.4 15.4-5 31.7-17.8 40.8-10.1 7.5-19.6 17.1-32.7 19.2-16.2 5.6-34.1-.6-46.3-11.6-15-5.9-26.6-17.7-34.7-31-3.1-5.5-6.3-12.3-3.4-18.5 5.1-11.9 13.2-22.1 20.9-32.5 8.2-11.4 23.6-14.2 32-25.6 6.9-.7 13.9-.3 20.9-1.3z" fill="#ec9a2b"/><path d="m233.5 174.8c13-6.8 27.6-.7 40.5 3.3-1.1 10.5-3.8 21.6 1.1 31.5 5.7 10.7-5.8 20.3-13.7 26.1-10.5 7.6-23-.5-32.1-6.4-10.5-6-21.2-17.9-16.6-30.5 2.2-10.9 11.2-19 20.8-24z" fill="#db1d7b"/><path d="m426.7 221c8.7-5.3 18.8-9.9 29.3-9.4 11.5 3 24.5 8.2 29.8 19.6 4.3 9.3-6.7 17.6-1.4 26.8-.8.8-2.3 2.6-3 3.4-3.2 16.4-26.4 21.9-39 12.3-5-6.6-5.5-15.2-8.9-22.6-3.6-7.3-.8-16.5-7.8-22.3.3-1.9.8-5.8 1-7.8z" fill="#139143"/><path d="m271.6 259.9c.8-6.5 4.7-13.3 12.2-13.8 11.9-3.8 23.6 1.6 34.7 5.2 6 14.9 7.2 34.4-4.4 47-3.7 7.2-10 13.8-19 13.1-12.1.6-19.9-8.9-28.9-15-3.8-10.7-5.8-21.8-6.3-33.1 3.9-1 7.9-2.2 11.7-3.4z" fill="#793a62"/><path d="m361.7 275.1c3.6-13.4 19.5-13.2 30.9-13.2 9.8 1.2 19.8 2.8 28.9 6.6 7 7.7 5.7 18.7 4.1 28-.9 7.6-8.7 11.3-13.2 16.8-6.8 9.1-19.7 9.8-30.1 7.9-10.9-1.5-20-8-28.6-14.2-5.1-8.6-5.9-18.7-6.9-28.3 5-1.1 10-2.3 14.9-3.6z" fill="#79c6ee"/></g><g fill="#0a5396"><path d="m126.8121 289.70684c9.26042 8.46665 20.19653 15.96317 32.98472 17.81525 10.67152 1.14652 21.43124-.35278 32.19096.35277 28.13402 1.6757 56.53262 5.64444 82.63817 16.49234 14.46388 5.73263 25.75277 16.49234 37.57082 26.01732-7.49653 10.05415-10.75972 22.31316-11.81805 34.57217-16.84514-10.67151-36.77708-3.52777-55.03332-1.85208-27.95763 3.43958-56.26804-6.52638-78.22845-23.1951-22.0486-17.19789-35.18957-43.3916-40.30485-70.20267z" stroke-width=".881944"/><path d="m471.03491 307.96306c15.34583.26458 29.01596-8.29027 39.77568-18.25622-5.02708 26.81107-18.16805 52.91658-40.21665 70.11447-20.02013 15.08123-45.15554 24.95899-70.73192 23.72427-14.46389-.35278-28.57499-4.5861-43.12707-4.49791-14.37569.17639-29.36874 7.32013-36.07152 20.1965-3.96875 7.05554-2.99861 15.25761-2.82222 23.01871-2.29305-.79375-4.6743-1.58749-6.96736-2.38124.79375-22.04858-3.79236-47.53674 11.90625-65.79296 13.58194-14.19928 29.72152-26.98746 48.9479-33.16106 31.83818-10.67151 65.79303-14.19928 99.30691-12.96456z" stroke-width=".881944"/><g transform="matrix(.88194416 0 0 .8819431 .253118 -.717027)"><path d="m165.6 556.2v-74.9h16.2v29.5h31.8v-29.5h16.2v74.9h-16.2v-32.7h-31.8v32.7z"/><path d="m284.7 556.2v-8.1c-2.1 2.9-4.9 5.2-8.3 6.8-3.5 1.7-7.1 2.5-10.9 2.5-3.9 0-7.4-.8-10.5-2.4s-5.3-3.8-6.7-6.7-2.1-6.9-2.1-12v-34.3h15.4v24.9c0 7.6.3 12.3.8 14 .6 1.7 1.6 3.1 3.1 4.1s3.4 1.5 5.7 1.5c2.6 0 5-.7 7.1-2s3.5-3 4.3-5 1.2-6.9 1.2-14.6v-22.9h15.2v54.2z"/><path d="m326.4 518.5-14-2.3c1.6-5.2 4.3-9.1 8.1-11.6s9.5-3.8 17.1-3.8c6.9 0 12 .8 15.3 2.3 3.4 1.5 5.7 3.4 7.1 5.8 1.4 2.3 2.1 6.6 2.1 12.9l-.2 16.8c0 4.8.2 8.3.7 10.5.5 2.3 1.4 4.7 2.8 7.3h-15.2c-.4-1-.9-2.4-1.5-4.2-.3-.9-.4-1.4-.5-1.7-2.6 2.4-5.4 4.2-8.4 5.4s-6.2 1.8-9.6 1.8c-6 0-10.7-1.5-14.2-4.5-3.4-3-5.2-6.9-5.2-11.5 0-3.1.8-5.8 2.4-8.2s3.8-4.2 6.6-5.5 6.9-2.4 12.2-3.3c7.2-1.3 12.2-2.4 14.9-3.5v-1.4c0-2.8-.7-4.7-2.2-5.9s-4.2-1.8-8.3-1.8c-2.7 0-4.9.5-6.4 1.5-1.4.6-2.6 2.4-3.6 4.9zm20.6 11.6c-2 .6-5.1 1.3-9.4 2.2s-7.1 1.7-8.4 2.5c-2 1.3-3 3-3 5.1 0 2 .8 3.7 2.4 5.2s3.6 2.2 6.1 2.2c2.8 0 5.4-.8 7.9-2.6 1.9-1.3 3.1-2.9 3.7-4.7.4-1.2.6-3.6.6-7z"/><path d="m377.3 556.2v-74.9h15.4v74.9z"/><path d="m408.4 494.6v-13.3h15.4v13.3zm0 61.6v-54.2h15.4v54.2z"/><path d="m473.3 538.9 15.3 2.4c-2 5.2-5.1 9.2-9.3 12-4.3 2.7-9.6 4.1-16 4.1-10.1 0-17.6-3.1-22.4-9.2-3.8-4.9-5.8-11.2-5.8-18.7 0-9 2.5-16 7.6-21.1 5-5.1 11.4-7.6 19.1-7.6 8.6 0 15.5 2.7 20.5 8s7.4 13.5 7.2 24.5h-38.5c.1 4.3 1.3 7.6 3.7 9.9 2.4 2.4 5.3 3.5 8.9 3.5 2.4 0 4.4-.6 6.1-1.8 1.5-1.3 2.7-3.3 3.6-6zm.8-14.5c-.1-4.2-1.3-7.3-3.4-9.5-2.2-2.2-4.9-3.2-8-3.2-3.4 0-6.1 1.1-8.3 3.4s-3.3 5.4-3.2 9.3z"/><path d="m554.8 556.2h-15.4v-27.7c0-5.9-.3-9.6-1-11.4-.7-1.7-1.7-3.1-3.2-4s-3.3-1.4-5.3-1.4c-2.7 0-5.1.7-7.2 2-2.1 1.4-3.6 3.2-4.4 5.4s-1.2 6.4-1.2 12.5v24.6h-15.4v-54.2h14.3v8c5.1-6.1 11.5-9.2 19.2-9.2 3.4 0 6.5.6 9.3 1.7s4.9 2.6 6.4 4.4c1.4 1.8 2.4 3.8 3 6s.8 5.5.8 9.7z"/></g></g><g transform="matrix(2.529412 0 0 2.529412 4.490679 15.532266)"><path d="m288.77865 94.871811q0 2.434566-2.38863 2.434566h-8.77363v2.526437q0 1.837406-2.52643 1.837406-2.57238 0-2.57238-1.837406v-2.526437h-11.16225v2.526437q0 1.837406-2.52644 1.837406-2.57237 0-2.57237-1.837406v-2.526437h-8.77363q-2.38863 0-2.38863-2.434566 0-2.526437 2.38863-2.526437h8.77363v-2.618307q0-1.837409 2.57237-1.837409 2.52644 0 2.52644 1.837409v2.618307h11.16225v-2.618307q0-1.837409 2.57238-1.837409 2.52643 0 2.52643 1.837409v2.618307h8.77363q2.38863 0 2.38863 2.526437zm-6.98215 36.610369h-11.75942q-4.77726 0-4.77726-5.00694v-23.10541q0-1.83741 2.61831-1.83741 2.4805 0 2.4805 1.83741v8.54395q6.06345-2.80205 10.65697-7.90086.50529-.59716 1.37806-.59716 1.05651 0 2.11302.96464 1.05651 1.01057 1.05651 1.92928 0 1.28619-4.8232 5.09881-4.77726 3.81262-10.38136 6.56873v6.61467q0 1.92928 2.4805 1.92928h6.43093q2.02115 0 2.61831-.68903.55122-.68902.87277-3.58294.32154-2.84799.36748-3.95043.0459-1.60773 2.20489-1.60773 2.75611 0 2.75611 1.88334 0 5.87971-1.05651 9.41672-1.01057 3.53701-5.23661 3.49108zm-24.07005-21.03833v20.16556q0 1.83741-2.48051 1.83741-2.57237 0-2.57237-1.83741v-14.69927q-3.58294 4.1801-5.14474 4.1801-1.05651 0-1.97522-.87277-.87276-.9187-.87276-1.97521 0-1.01057.59715-1.51586 7.67118-6.47687 11.52974-12.95373.50529-.82684 1.46993-.82684.87277 0 1.92928.6431 1.01057.64309 1.01057 1.65366 0 1.5618-3.49107 6.20126z"/><path d="m346.33931 93.63156q0 2.20489-2.29676 2.20489h-7.11996v.551223q0 2.342696-2.57237 2.342696-2.38863 0-2.38863-2.388631v-.505288h-12.54032v1.05651q0 2.296761-2.4805 2.296761-2.4805 0-2.4805-2.342696v-1.010575h-9.37078q-2.3427 0-2.3427-2.20489 0-2.434566 2.38863-2.434566h9.32485v-.918704q0-2.388632 2.52644-2.388632 2.43456 0 2.43456 2.342696v.96464h12.54032v-.918704q0-2.388632 2.52643-2.388632 2.43457 0 2.43457 2.342696v.96464h7.07402q2.3427 0 2.3427 2.434566zm-33.94613 11.71348q-.55122 0-1.24025-.45935-1.46992-.91871-3.35327-1.88335-.59715-.32154-1.6996-.9187-.64309-.32155-.87277-.41342-.96464-.59716-.96464-1.46992 0-.780903.68903-1.653672.68903-.826834 1.65367-.826834.82683 0 4.50165 1.883344 3.67482 1.883342 3.67482 3.169532 0 .87277-.73497 1.6996-.7809.87277-1.65367.87277zm-.50528 6.98215q-.68903 0-1.51587-.45935-2.34269-1.37806-4.77726-2.52644-2.20489-1.14838-2.20489-2.20489 0-.7809.68903-1.65366.64309-.91871 1.46993-.91871 1.14838 0 4.82319 1.97522 3.67482 1.97521 3.67482 3.35327 0 2.38863-2.15895 2.43456zm32.06278 12.31064h-11.39194v.7809q0 1.83741-2.43456 1.83741-2.20489 0-2.20489-1.83741v-.7809h-10.93258q-1.83741 0-1.83741-2.11302 0-2.02115 1.88334-2.02115h10.88665v-1.01057h-8.36021q-2.75612 0-2.75612-2.98579v-8.91143q0-2.66425 2.66425-2.66425h8.45208v-1.05651h-10.97852q-1.60773 0-1.60773-2.15895 0-1.791476 1.79147-1.791476h10.79478v-.918704q0-1.699603 2.20489-1.699603 2.43456 0 2.43456 1.653668v.964639h11.11632q1.79148 0 1.79148 1.791476 0 2.15895-1.6996 2.15895h-11.2082v1.05651h8.58989q2.71018 0 2.71018 2.66425v9.23297q0 2.66425-2.61831 2.66425h-8.68176v1.01057h11.346q1.88334 0 1.88334 1.92928 0 2.20489-1.8374 2.20489zm2.89391 5.14474q0 2.25083-1.92927 2.25083-20.85459 0-25.58592-.7809-4.68539-.82683-7.11996-3.53701-1.01057 1.46993-3.49107 3.12359-2.4805 1.60774-3.62888 1.60774-2.66425 0-2.66425-2.71018 0-.96464.87277-1.46993 2.89392-1.51586 4.31791-2.71018 1.46993-1.24025 1.46993-3.12359v-3.1236q0-1.14838-1.28619-1.14838h-2.57237q-2.15895 0-2.15895-2.15895 0-2.15896 2.15895-2.15896h5.97158q2.66424 0 2.66424 2.66425v5.8797q0 1.65367 1.6996 2.84799 2.06709 1.33212 4.77727 1.92928 2.66424.55122 12.03502.55122 6.56874 0 12.54032-.0919 1.97521 0 1.92927 2.15895zm-7.67118-19.52246v-.82684q0-.82683-1.05651-.82683h-5.55816v1.65367zm-11.25412 0v-1.65367h-5.37442q-1.10245 0-1.10245.82683v.82684zm11.25412 4.73132v-1.19431h-6.61467v1.97521h5.55816q1.05651 0 1.05651-.7809zm-11.25412.7809v-1.97521h-6.47687v1.19431q0 .7809 1.10245.7809z"/><path d="m382.17258 105.80439q0 3.67482-3.49107 3.67482h-7.3037q-3.44514 0-3.44514-3.44514v-14.056178q0-3.031724 2.98579-3.031724h7.53337q3.72075 0 3.72075 3.353271zm22.50826 8.81956q0 2.38863-2.93986 2.38863-1.14838 0-1.88334-1.8374-.45935-1.01058-.50529-1.14839-2.20489.27562-4.40978.41342v16.1692q0 1.83741-2.34269 1.83741-2.3427 0-2.3427-1.83741v-15.84765q-1.33212.0459-3.72075.1378-2.61831.18374-2.93986.18374-.64309 0-1.01057-.41341-.0459.0459-.0919.0919-.36748.59716-1.33212.59716h-6.20126v15.25049q0 1.83741-2.29676 1.83741-2.38863 0-2.38863-1.83741v-15.25049h-5.37442q-3.3992 0-3.3992-3.44514v-19.660306q0-1.791474 2.20489-1.791474 2.4805 0 2.4805 1.791474v16.858226q0 1.56179 1.19431 1.56179h13.78057q.64309 0 .82683.32155.0919.18374.18374.22968.18374-.87277 2.3427-.96464.50529-.0459.68903-.0459 2.93985-2.89392 3.67481-4.0423-1.05651-1.10244-2.93985-2.71017-3.67482-3.21547-3.67482-3.996368 0-2.710177 2.52644-2.710177.45935 0 .82683.275611.41342.413417.91871.780899 1.74554-1.975215 2.6183-3.950429-3.21546.275611-4.27197.275611-1.97521 0-1.97521-2.572371 0-1.102446.45935-1.561798.41341-.505287 3.53701-.643093 8.91143-.321546 12.86186-1.05651.59716-.137805 1.05651-.137805 2.15895 0 2.15895 2.710177 0 1.607733-2.52643 2.02115-2.4805.413417-5.97158.689028-2.25083 4.134169-4.50165 6.936215l1.83741 1.92928q1.79147-1.79147 4.40978-5.925641.7809-1.240251 1.6996-1.240251.7809 0 1.88334.780898 1.05651.734964 1.05651 1.653668 0 2.158955-9.96794 12.494376.41342 0 1.5618-.0919 1.05651-.0919 1.5618-.1378 1.33212-.0919 3.3992-.32155-.22967-.59716-.7809-1.51586-.27561-.55122-.27561-.91871 0-2.25082 2.89392-2.25082.73497 0 1.24025.55122.55123.50529 2.20489 4.31791.32155.59716.7809 1.60773 1.19432 2.4805 1.19432 3.16953zm-21.1302 15.66391q-1.05651 0-2.02115-.73496-1.01058-.73497-1.01058-1.69961 0-.45935.45936-1.42399-.50529.18374-.91871.18374-1.33212 0-2.06708-2.29676-.91871-2.75611-1.83741-4.77726-.22968-.50529-.22968-.96464 0-2.11302 2.93986-2.11302 1.42399 0 3.49107 6.01751.13781.41342.18374.55123 0-.0459.0919-.27561.0459-.13781.0919-.22968.87277-2.06709 1.88335-5.00694.36748-1.14838 1.65367-1.14838.82683 0 1.8374.64309.96464.59716.96464 1.46993 0 .59716-1.24025 4.18011-1.28618 3.62888-2.15895 5.60409-.91871 1.97522-2.11302 2.02115zm-20.30337-.0919q-1.01057 0-2.06708-.73496-1.01057-.7809-1.01057-1.69961 0-.41341.36748-1.14838 2.84798-5.28255 4.27197-9.04923.36748-1.05651 1.5618-1.05651.87277 0 1.88334.68902.96464.6431.96464 1.46993 0 .55122-1.24025 3.72075-1.28618 3.21547-2.43456 5.51223-1.10245 2.29676-2.29677 2.29676zm41.15796-1.65367q0 2.11302-3.07766 2.11302-1.46993 0-2.3427-2.98579-1.24025-4.50165-2.84798-8.40614-.13781-.36748-.13781-.73496 0-2.20489 2.84798-2.20489 1.28619 0 2.57238 3.07765 1.24025 3.03173 2.11302 5.78784.82683 2.71018.87277 3.35327zm-26.55056-33.716414v-.643093q0-.413417-.22967-.780899-.27562-.321546-.96464-.321546h-3.49108q-1.01057 0-1.01057 1.056509v.689029zm0 5.144744v-1.883344h-5.69596v1.883344zm0 3.99636v-.7809h-5.69596v.7809q0 1.33212 1.10244 1.33212h3.39921q1.19431 0 1.19431-1.33212z"/><g stroke-width=".586365"><path d="m241.75948 157.73727v-16.78927h3.38992v6.60806h6.64241v-6.60806h3.38992v16.78927h-3.38992v-7.34101h-6.64241v7.34101z"/><path d="m266.67998 157.73727v-1.82093q-.66424.97345-1.75222 1.53462-1.07653.56117-2.27904.56117-1.22541 0-2.19887-.53826-.97345-.53827-1.40864-1.51172-.4352-.97346-.4352-2.69133v-7.69604h3.21814v5.58879q0 2.56535.17178 3.14943.18324.57262.65279.91619.46955.33212 1.19106.33212.82457 0 1.47736-.44664.65279-.4581.89329-1.12234.2405-.6757.2405-3.28685v-5.1307h3.21814v12.16249z"/><path d="m275.41819 149.28537-2.92037-.52681q.49245-1.76367 1.69496-2.61115 1.20251-.84748 3.57316-.84748 2.15306 0 3.20668.51536 1.05363.5039 1.47737 1.29412.43519.77877.43519 2.87456l-.0344 3.7564q0 1.60334.14888 2.37066.16034.75586.58408 1.62624h-3.18374q-.12598-.32066-.30921-.95055-.0802-.28631-.11453-.37793-.82457.80167-1.76367 1.20251-.9391.40083-2.00418.40083-1.8782 0-2.96618-1.01926-1.07653-1.01927-1.07653-2.5768 0-1.03072.49245-1.83239.49246-.81313 1.3743-1.23687.89329-.43519 2.56534-.75586 2.25613-.42374 3.12652-.79022v-.32066q0-.92765-.4581-1.31703-.4581-.40084-1.72932-.40084-.85893 0-1.33993.34357-.48101.33212-.77877 1.1796zm4.30612 2.61116q-.61843.20614-1.95837.49246-1.33993.28631-1.75222.56116-.62989.44665-.62989 1.1338 0 .67569.50391 1.16815.50391.49245 1.28267.49245.87039 0 1.66061-.57262.58407-.43519.76731-1.06508.12598-.41229.12598-1.56898z"/><path d="m286.06896 157.73727v-16.78927h3.21814v16.78927z"/><path d="m292.57394 143.92563v-2.97763h3.21814v2.97763zm0 13.81164v-12.16249h3.21814v12.16249z"/><path d="m306.12218 153.86635 3.20668.53826q-.61843 1.76368-1.95837 2.69133-1.32848.91619-3.33266.91619-3.17232 0-4.6955-2.07289-1.2025-1.6606-1.2025-4.19159 0-3.02344 1.58044-4.72986 1.58043-1.71786 3.9969-1.71786 2.71422 0 4.28321 1.79803 1.56898 1.78658 1.50027 5.48572h-8.06252q.0344 1.43155.77877 2.23322.74441.79022 1.85529.79022.75586 0 1.27122-.41229.51536-.41228.77877-1.32848zm.18324-3.25249q-.0344-1.3972-.72151-2.1187-.68714-.73296-1.67205-.73296-1.05363 0-1.74077.76731-.68715.76732-.6757 2.08435z"/><path d="m323.19777 157.73727h-3.21814v-6.20722q0-1.96982-.20614-2.54244-.20615-.58407-.6757-.90474-.45809-.32067-1.11088-.32067-.83603 0-1.50027.4581-.66424.4581-.9162 1.21396-.2405.75586-.2405 2.79439v5.50862h-3.21813v-12.16249h2.98908v1.78659q1.59189-2.06144 4.00836-2.06144 1.06507 0 1.94691.38938.88184.37793 1.32848.97346.4581.59552.62989 1.35138.18324.75586.18324 2.16451z"/><path d="m343.74344 151.56441 3.28685 1.04217q-.75586 2.74859-2.51954 4.08852-1.75222 1.32849-4.455 1.32849-3.34411 0-5.49717-2.27904-2.15305-2.29049-2.15305-6.25303 0-4.19159 2.16451-6.50499 2.16451-2.32484 5.69186-2.32484 3.0807 0 5.00471 1.82094 1.14525 1.07653 1.71787 3.09215l-3.35556.80168q-.29777-1.30558-1.24832-2.06144-.9391-.75586-2.29049-.75586-1.86675 0-3.03489 1.33993-1.1567 1.33994-1.1567 4.34047 0 3.18378 1.14524 4.53517 1.14525 1.35139 2.97764 1.35139 1.35139 0 2.32484-.85893.97346-.85894 1.3972-2.70278z"/><path d="m349.18335 151.48424q0-1.60334.79022-3.10361.79021-1.50027 2.23322-2.29049 1.45446-.79021 3.24104-.79021 2.76004 0 4.52371 1.79803 1.76368 1.78658 1.76368 4.52371 0 2.76004-1.78658 4.58098-1.77513 1.80948-4.4779 1.80948-1.67206 0-3.19523-.75586-1.51173-.75586-2.30194-2.21032-.79022-1.46591-.79022-3.56171zm3.2983.17179q0 1.80948.85893 2.77149.85894.962 2.1187.962 1.25977 0 2.10725-.962.85894-.96201.85894-2.7944 0-1.78658-.85894-2.74858-.84748-.96201-2.10725-.96201-1.25976 0-2.1187.96201-.85893.962-.85893 2.77149z"/><path d="m372.27146 157.73727v-1.82093q-.66424.97345-1.75223 1.53462-1.07652.56117-2.27903.56117-1.22541 0-2.19887-.53826-.97346-.53827-1.40865-1.51172-.43519-.97346-.43519-2.69133v-7.69604h3.21813v5.58879q0 2.56535.17179 3.14943.18324.57262.65279.91619.46955.33212 1.19105.33212.82458 0 1.47737-.44664.65279-.4581.89329-1.12234.2405-.6757.2405-3.28685v-5.1307h3.21813v12.16249z"/><path d="m389.66771 157.73727h-3.21814v-6.20722q0-1.96982-.20614-2.54244-.20615-.58407-.6757-.90474-.45809-.32067-1.11088-.32067-.83603 0-1.50027.4581-.66424.4581-.9162 1.21396-.2405.75586-.2405 2.79439v5.50862h-3.21813v-12.16249h2.98908v1.78659q1.59189-2.06144 4.00836-2.06144 1.06507 0 1.94691.38938.88184.37793 1.32848.97346.4581.59552.62989 1.35138.18324.75586.18324 2.16451z"/><path d="m398.52044 145.57478v2.56535h-2.19886v4.90164q0 1.48882.0573 1.74078.0687.2405.28631.40083.22905.16033.54972.16033.44664 0 1.29412-.30921l.27486 2.49663q-1.12234.481-2.54244.481-.87039 0-1.56899-.28631-.69859-.29776-1.03072-.75586-.32066-.46955-.44664-1.25977-.10307-.56117-.10307-2.26758v-5.30248h-1.47737v-2.56535h1.47737v-2.41646l3.22959-1.8782v4.29466z"/><path d="m399.2534 145.57478h3.42428l2.90892 8.63514 2.8402-8.63514h3.33266l-4.29466 11.7044-.76732 2.1187q-.42374 1.06507-.81312 1.62624-.37793.56117-.88184.90475-.49245.35502-1.22541.54971-.7215.1947-1.6377.1947-.92765 0-1.82094-.1947l-.28631-2.51953q.75586.14888 1.36284.14888 1.12234 0 1.66061-.66424.53826-.65279.82457-1.67206z"/></g></g><text x="-63.893616" y="276.95746"><tspan x="-63.893616" y="313.45065"/></text></svg>