<svg height="600" viewBox="0 0 5376 2688" width="1200" xmlns="http://www.w3.org/2000/svg"><path d="m0 0h5376v2688h-5376z" fill="#fff"/><path d="m0 896h5376v896h-5376z" fill="#00356a"/><path d="m0 192h5376m-5376 256h5376m-5376 256h5376m-5376 1280h5376m-5376 256h5376m-5376 256h5376" stroke="#dc241f" stroke-width="128"/><path d="m1343.8751 1063.9999 24.9666 170.8001 96.6001-143.0334-51.8 164.7333 149.1-87.0332-118.0666 126 172.1998-13.7668-161 62.3 161 62.3-172.1998-13.7665 118.0666 126-149.1-87.0333 51.8 164.7331-96.6001-143.0332-24.9666 170.7998-24.9666-170.7998-96.6 143.0332 51.7999-164.7331-149.0999 87.0333 118.0666-126-172.2002 13.7665 161-62.3-161-62.3 172.2002 13.7668-118.0666-126 149.0999 87.0332-51.7999-164.7333 96.6 143.0334zm-140.0001 7.0001a298.66667 298.66667 0 1 0 0 546 336 336 0 1 1 0-546z" fill="#ffd100"/></svg>