<svg enable-background="new 0 0 1200 800" viewBox="0 0 1200 800" xmlns="http://www.w3.org/2000/svg"><path d="m0 0h1200v800h-1200z" fill="#0064c8"/><path d="m0 0h1200v571.4h-1200z" fill="#e00000"/><path d="m1028.6 533.3c-57.1 27.9-114.3 27.9-171.4 0s-114.3-27.9-171.4 0-114.3 27.9-171.4 0-114.3-27.9-171.4 0-114.3 27.9-171.4 0-114.3-27.9-171.4 0v66.7c57.1-27.9 114.3-27.9 171.4 0s114.3 27.9 171.4 0 114.3-27.9 171.4 0 114.3 27.9 171.4 0 114.3-27.9 171.4 0 114.3 27.9 171.4 0 114.3-27.9 171.4 0v-66.7c-57.1-27.9-114.3-27.9-171.4 0z" fill="#fff"/></svg>