<svg enable-background="new 0 0 1125 750" height="750" viewBox="0 0 1125 750" width="1125" xmlns="http://www.w3.org/2000/svg"><path d="m0-.0000076h1124.9991v749.9999976h-1124.9991zm497.97644 48.4513076c-26.9646 18.54109-43.03894 49.342071-47.59067 81.27988-15.89354.35542-31.99081-2.41035-47.64622 1.33967-33.75029 7.53003-62.58903 32.32145-76.78483 63.6613-8.51077 20.08978-10.41842 42.47085-8.0063 63.9885 5.32872 36.99222 31.63892 69.13552 65.53738 84.1065-11.5773 25.4467-18.39121 54.5226-10.79943 82.14065 11.51733 47.62052 57.11039 84.58628 106.36793 84.37638 32.79867 2.71109 63.81052-13.53959 86.4289-36.2461 16.07169 16.338 36.19416 29.69856 59.01715 33.98744 28.74966 4.31712 60.29861 2.55764 84.61209-15.08916 49.13759-30.15187 66.39727-100.35895 37.26043-150.03087 21.78582-12.08085 41.10219-29.66856 52.11593-52.32039 11.51821-25.59311 15.26912-55.59593 6.66574-82.58868-8.77712-30.86007-33.03503-56.16037-62.10925-69.0191-21.33867-9.9395-45.50486-9.6123-68.45132-8.12535-2.65025-25.26502-13.4823-49.639281-31.57982-67.615927-36.34851-38.727003-102.18045-45.691708-145.03771-13.844743z" fill="#0a0"/><path d="m563.597 54.937c48.594-36.111 123.237-28.214 164.441 15.694 20.52 20.382 32.802 48.02 35.805 76.667 26.021-1.688 53.422-2.056 77.616 9.213 32.966 14.582 60.471 43.264 70.422 78.258 9.752 30.611 5.502 64.626-7.559 93.644-12.48 25.682-34.383 45.623-59.09 59.325 33.038 56.321 13.466 135.927-42.249 170.113-27.57 20.01-63.34 22.006-95.938 17.108-25.879-4.861-48.695-20.011-66.917-38.536-25.644 25.747-60.809 44.172-97.998 41.1-55.851.236-107.544-41.678-120.606-95.669-8.605-31.316-.879-64.285 12.244-93.139-38.438-16.975-68.264-53.417-74.307-95.365-2.734-24.398-.572-49.772 9.076-72.553 16.098-35.535 48.8-63.647 87.063-72.183 17.751-4.253 36.008-1.112 54.023-1.519 5.177-36.209 23.399-71.136 53.974-92.158zm37.83-10.159c-31.822 9.348-58.549 33.378-72.926 63.04-7.559 15.252-9.312 32.363-12.654 48.829-50.316-14.307-107.076 9.652-133.599 54.298-22.844 37.225-22.204 86.931.438 124.118 13.498 23.825 36.818 39.856 61.419 50.585-10.765 20.518-19.54 42.927-18.326 66.548-.909 39.75 21.327 77.916 54.163 99.583 28.883 18.494 65.768 24.365 98.742 14.48 24.362-6.315 44.647-22.172 61.449-40.328 21.833 25.645 53.489 43.564 87.535 44.781 26.221 1.754 52.75-5.804 74.477-20.45 32.229-21.264 51.969-59.599 51.835-98.064 1.046-24.061-8-46.838-19.237-67.594 20.485-9.989 40.192-23.05 53.078-42.284 20.654-27.365 27.064-63.643 19.775-96.815-7.659-31.283-27.906-59.493-55.814-75.793-27.875-17.315-62.663-21.43-94.187-12.759-1.89-8.906-2.53-18.022-4.69-26.859-7.728-32.125-29.325-60.844-58.685-76.264-27.97-15.563-62.323-18.264-92.793-9.052z" fill="#fff" transform="matrix(.88194554 0 0 .8819431 -.000882 -.000008)"/><g fill="#d81e05" transform="matrix(.88194554 0 0 .8819431 -.000882 -.000008)"><path d="m601.27 44.778c30.472-9.211 64.824-6.511 92.794 9.047 29.361 15.42 50.964 44.138 58.687 76.263 2.159 8.843 2.801 17.955 4.689 26.861 31.52-8.671 66.313-4.557 94.186 12.758 27.908 16.299 48.153 44.508 55.814 75.793 7.29 33.173.878 69.45-19.773 96.817-12.892 19.236-32.595 32.294-53.08 42.284 11.239 20.752 20.281 43.535 19.238 67.592.135 38.469-19.607 76.808-51.836 98.065-21.733 14.643-48.255 22.205-74.476 20.452-34.049-1.219-65.703-19.137-87.537-44.782-16.8 18.158-37.085 34.017-61.448 40.328-32.969 9.889-69.854 4.018-98.745-14.48-32.83-21.664-55.066-59.832-54.157-99.581-1.216-23.622 7.561-46.03 18.324-66.549-24.602-10.728-47.919-26.76-61.418-50.584-22.644-37.188-23.284-86.893-.438-124.118 26.523-44.647 83.283-68.603 133.596-54.298 3.344-16.468 5.1-33.576 12.656-48.829 14.375-29.663 41.101-53.692 72.924-63.039zm-36.986 31.418c-26.858 22.609-39.482 58.176-38.367 92.699-29.46-8.166-62.159-9.853-89.867 4.995-50.18 23.184-75.05 87.301-54.229 138.393 12.486 34.149 43.363 57.84 77.178 68.705-11.203 18.764-22.574 38.641-23.725 61.014-3.579 37.861 14.583 76.605 45.458 98.674 28.984 21.83 69.21 26.457 102.99 13.97 23.488-8.099 41.407-25.982 56.221-45.219 9.953 12.486 20.078 25.309 33.747 33.914 29.395 19.877 68.635 23.589 101.476 10.496 27.198-11.202 50.245-33.141 61.18-60.607 8.843-21.158 10.091-45.083 5.23-67.391-3.61-17.009-13.228-31.753-22.104-46.401 35.096-10.734 65.367-37.9 76.03-73.533 17.274-50.415-8.943-110.784-57.571-132.62-28.111-14.578-61.183-12.757-90.608-3.306-.639-13.5-.402-27.268-4.152-40.396-8.269-30.236-30.372-55.982-58.247-69.987-38.844-19.17-88.615-12.826-120.64 16.6z"/><path d="m542.755 267.5c11.168-26.32 34.047-46.332 60.605-56.32 28.582 48.389 28.753 112.748-1.451 160.498-5.192-2.77-9.851-6.379-14.478-9.923 7.02-16.707 15.052-33.44 17.208-51.597 1.959-23.859 2.13-49.605-11.473-70.464-24.737 15.962-38.673 45.153-38.567 74.177 1.716 25.848 14.307 51.328 35.463 66.681 11.406 8.399 25.143 12.556 38.604 16.266-.032 7.12 0 14.242 0 21.397-23.896-4.392-47.684-13.871-64.491-31.958-30.162-30.542-38.832-79.645-21.42-118.757z"/><path d="m671.156 211.956c50.955 12.925 81.497 71.443 69.212 121.383-8.504 44.174-47.722 79.81-92.327 84.702 0-7.119.068-14.24.031-21.396 15.625-4.284 31.752-9.447 44.009-20.584 17.478-15.727 28.445-38.638 29.392-62.157.641-29.226-13.735-59.527-39.584-74.273-8.067 18.022-12.082 37.695-10.865 57.501-.339 22.812 9.312 43.935 18.117 64.453-4.586 3.678-9.379 7.187-14.372 10.325-31.013-47.546-29.124-110.45-3.613-159.954z"/></g><path d="m497.8071 67.200529c28.24431-25.95294 72.13962-31.547987 106.3988-14.642901 24.58511 12.350731 44.07787 35.057238 51.37068 61.725432 3.302 11.57815 3.09563 23.72162 3.66272 35.62609 25.95125-8.33524 55.11807-9.94214 79.91044 2.91571 42.88636 19.25546 66.01098 72.50189 50.7736 116.96329-9.40506 31.43157-36.10332 55.38867-67.05432 64.85192 7.82815 12.9143 16.3107 25.92207 19.49541 40.92216 4.2889 19.67351 3.1847 40.774-4.61346 59.43591-9.64143 24.22521-29.96763 43.57328-53.95831 53.45281-28.95692 11.54728-63.57063 8.27351-89.4963-9.25688-12.05444-7.59088-20.98061-18.89915-29.76126-29.91021-13.06778 16.96417-28.86872 32.73861-49.58474 39.88058-29.79212 11.01194-65.26661 6.93472-90.83069-12.32074-27.23271-19.46184-43.24708-53.63273-40.0906-87.02486 1.01336-19.73259 11.04196-37.26298 20.92152-53.81087-29.82035-9.58232-57.0513-30.47731-68.06856-60.59479-18.36034-45.05935 3.57188-101.60778 47.82702-122.05475 24.43431-13.09597 53.27657-11.60725 79.2578-4.4053-.98072-30.44292 10.1512-61.810986 33.84025-81.752601zm-18.98652 168.719241c-15.35732 34.49544-7.7082 77.79708 18.89921 104.73163 14.81845 15.95258 35.80082 24.31252 56.87579 28.18425 0-6.30854-.03-12.58885 0-18.87005-11.87628-3.27289-23.98804-6.93825-34.04663-14.34657-18.66197-13.53871-29.7639-36.0115-31.27643-58.80885-.0935-25.59487 12.19995-51.33879 34.01399-65.41989 11.99711 18.3938 11.84365 41.10207 10.11856 62.14612-1.90235 16.01079-8.98526 30.77364-15.17652 45.50473 4.07988 3.12561 8.18446 6.30854 12.76969 8.75153 26.63476-42.1119 26.48571-98.86935 1.27706-141.54923-23.42624 8.81414-43.60427 26.46535-53.45472 49.67633zm113.24357-48.98665c-22.49843 43.66236-24.16442 99.13746 3.18471 141.07209 4.40532-2.76841 8.63072-5.86404 12.67885-9.10782-7.77347-18.09571-16.27984-36.72676-15.98174-56.84388-1.07244-17.46865 2.46769-34.81911 9.58322-50.71173 22.79741 13.0069 35.47538 39.73242 34.91446 65.50368-.83344 20.74418-10.5075 40.95303-25.92567 54.8207-10.80295 9.8222-25.0305 14.37479-38.81089 18.15392.0273 6.31295-.0291 12.58973-.0291 18.87093 39.34447-4.31711 73.92732-35.74515 81.42739-74.70499 10.83205-44.04864-16.10345-95.65466-61.04122-107.0529z" fill="#ffdb00"/><g fill="#008000"><path d="m399.6889 241.43809c8.02482 6.88092 13.1454 16.3327 19.00063 24.98809 4.87981 7.94102 10.22352 15.70212 14.00089 24.22698-.32015 5.87815-1.72685 11.67605-2.6573 17.48629-3.99963-10.90523-6.60842-22.37755-12.1638-32.66718-5.59329-11.59226-12.90286-22.2964-18.18042-34.03418z"/><path d="m707.22595 264.97451c5.52539-8.17826 10.44136-17.07354 18.05696-23.54789-5.27315 11.73867-12.58889 22.45251-18.18836 34.04565-5.54391 10.28875-8.15271 21.76107-12.15498 32.65307-.93751-5.80848-2.33363-11.59403-2.65642-17.46424 4.05078-9.04345 9.71904-17.28168 14.9428-25.68659z"/><path d="m422.78617 243.98691c7.44803.45331 15.09538 0 22.24708 2.58409-2.40419 4.37003-5.64181 8.24881-9.92542 10.86818-.36953 10.27376 2.5356 20.85708-.95338 30.84773-2.36891-3.54718-5.10647-6.98764-6.47525-11.08603-.98866-6.90208 1.0945-13.90471-.0626-20.79798-1.41641-2.58321-4.49704-4.40531-4.51204-7.59441-.13846-1.60867-.24782-3.21468-.31838-4.82158z"/><path d="m679.93768 246.55777c7.15522-2.56998 14.78581-2.11843 22.24972-2.56998-.17815 2.25865-.15346 4.54465-.64294 6.77332-1.18269 2.03641-2.95716 3.65742-4.19453 5.64267-1.16593 6.89768.93398 13.89413-.06 20.79798-1.3679 4.09663-4.10634 7.53621-6.47437 11.08603-3.48897-9.98801-.58384-20.57309-.95338-30.84684-4.28184-2.62026-7.51947-6.50257-9.92453-10.88318z"/><path d="m447.22665 264.58292c3.4193-5.67971 6.86859-11.55963 12.22552-15.64655-3.27554 7.34659-7.78493 14.05024-10.98815 21.42857-8.52224 19.94073-10.77473 41.87995-10.44048 63.39054-2.13166-1.80798-4.34622-3.53747-6.13305-5.67795-1.05568-7.43125-.0829-15.02301.41893-22.4772.77435-14.81576 7.69145-28.37475 14.91723-41.01741z"/><path d="m440.04937 335.3077c-1.74008-29.46395 3.96523-60.64329 21.53535-84.92847-2.3839 6.90473-5.77763 13.417-7.93134 20.40552-4.37797 14.03612-7.86519 28.64374-7.09437 43.4648-.0123 10.19085 3.27378 20.0351 3.08681 30.23654-3.32758-2.92806-6.90651-5.6462-9.59645-9.17839z"/><path d="m663.3818 250.36688c11.94066 16.0205 17.86909 35.70194 20.74688 55.26961 1.02041 9.83279 1.39171 19.79874.79993 29.66857-2.69082 3.53483-6.28651 6.25033-9.59557 9.17926-.18785-7.73552 1.75066-15.26467 2.59557-22.89436 2.15459-18.16715-1.70392-36.36781-7.53623-53.51102-2.03465-6.01926-4.97417-11.68751-7.01058-17.71206z"/><path d="m666.17668 249.72395c5.80938 4.39295 9.19076 10.98901 12.88082 17.09646 5.33224 9.58231 10.24997 19.6056 12.57125 30.39353 1.6413 10.27287 1.96762 20.71066 1.80093 31.10348-2.14401 1.70215-4.26068 3.40518-6.41527 5.08264.14287-19.58266-1.59544-39.42815-8.46491-57.90221-3.02508-9.10606-8.78683-16.92713-12.37282-25.7739z"/><path d="m402.51289 252.50912c1.5681 1.80181 3.03477 3.71475 4.23775 5.78643 5.36664 9.5241 10.32141 19.28633 14.60766 29.33431 3.14237 7.5706 5.2511 15.51161 7.63059 23.33092 1.6413 4.94153 1.09891 10.2032.93928 15.32024-3.30995-2.92541-7.1076-5.40543-9.77461-8.96496-1.8318-11.09572-1.67746-22.53629-4.74486-33.41682-3.00303-10.95902-8.81329-20.85266-12.89669-31.38924h.00088z"/><path d="m718.22558 258.29643c1.20121-2.08315 2.65642-3.98726 4.23951-5.78378-3.85675 9.94038-9.23926 19.28721-12.3587 29.53451-3.10621 10.09207-3.50044 20.72566-4.64344 31.15199.29986 6.42672-6.51053 9.15105-10.4052 13.07128-.74965-7.06083 0-14.14372 2.55941-20.7821 4.41678-16.69078 12.22906-32.19357 20.60842-47.1919z"/><path d="m355.71509 283.19986c6.6534.37042 12.91522 2.89365 18.71313 6.03425 16.18987 8.5963 31.8691 18.42732 45.64244 30.59461 8.50019 7.34659 16.66524 15.08299 25.01198 22.59803 2.2031 2.17575 5.17966 4.2836 5.16379 7.73552.59884 6.4426 1.6413 12.83227 2.18987 19.28721-4.46441-5.19376-7.93751-11.10807-11.84629-16.69077-13.27328-19.59589-30.34599-36.42778-49.13143-50.7373-10.63538-8.53545-23.99156-12.24931-35.74349-18.82155z"/><path d="m752.92573 288.02232c5.07648-2.62995 10.59481-4.46263 16.33627-4.82158-10.22615 5.85699-21.81227 9.11929-31.571 15.86704-15.21444 10.64064-28.82551 23.47821-41.00077 37.44995-9.22603 10.57097-16.26395 22.77442-24.62215 33.9892 1.00453-6.7742 2.05934-13.52459 2.66877-20.34466 0-3.75884 3.41665-5.92754 5.78291-8.31937 13.88182-12.37983 27.07485-25.68924 42.5477-36.1191 9.57617-6.5105 19.53774-12.44069 29.85827-17.70148z"/><path d="m451.0243 322.47279c.83432-11.3074 6.22742-21.55999 11.56055-31.33103 1.54693 7.68789-.10848 15.45252-.27429 23.17658-.7717 23.3124 4.58171 47.15397 17.09651 66.99152-4.04724-.79904-8.06274-1.73831-12.0606-2.75255-4.40708-19.10641-7.71173-38.62999-7.73643-58.29467-.17815-8.85648 2.90513-17.3831 2.8822-26.214-2.90513 7.58118-3.57541 15.77267-4.51291 23.77013-1.40406 20.34467 3.92906 40.28628 7.38188 60.16792-3.09563-.82461-6.1551-1.7189-9.21898-2.63348-1.55487-8.46401-3.85586-16.8213-4.39032-25.44053-.52388-9.12987-1.79917-18.29503-.72761-27.43989z"/><path d="m371.57159 292.65341c13.78481 4.99532 24.84441 14.97539 35.47626 24.7385 10.20147 9.63964 20.44174 19.44067 28.53535 30.98443 5.74058 8.10505 11.41767 16.29654 16.35744 24.92988-4.31095-1.7145-8.85826-3.2526-12.50069-6.21329-3.23851-3.25084-5.42838-7.3457-8.11919-11.03487-7.49742-10.56039-15.17828-21.08373-24.10446-30.51699-11.08429-11.78012-22.53635-23.33269-35.64471-32.88766z"/><path d="m709.42905 325.52254c13.28387-12.55005 26.48924-26.3357 43.97646-32.86913-12.87994 9.39093-24.15649 20.71155-35.07321 32.28617-11.32507 11.92475-20.78393 25.43789-30.07258 38.9519-3.36815 5.31988-9.72345 7.17813-15.22679 9.41562 10.26231-17.22875 21.70291-33.98832 36.39612-47.78456z"/><path d="m662.57041 323.98444c.84931-10.24995-1.16505-20.42845-.96397-30.66517 2.02406 10.82145 4.29684 21.74872 3.71387 32.8224-.76641 17.6759-3.65831 35.2107-7.69144 52.41388-3.99698 1.01423-8.01248 1.95174-12.06061 2.73843 10.74915-17.07265 16.34598-37.20124 17.00126-57.30954z"/><path d="m663.39326 293.40394c3.7518 6.11716 6.73983 12.71409 8.84592 19.57032 3.5851 12.78641 1.6898 26.13197.80962 39.14416-.73819 7.85547-2.79753 15.49927-4.21482 23.23744-3.05506.91634-6.12775 1.80886-9.20133 2.63172 3.00214-16.77456 7.00088-33.50061 7.61824-50.58297.52388-11.48907-2.33274-22.70651-3.85763-34.00067z"/><path d="m473.90638 347.43618c2.17752-.59707 4.35681-1.14035 6.55991-1.67745 7.17992 14.27513 13.78746 29.33166 25.21835 40.8322 6.00958 6.21682 13.86507 10.05062 21.09438 14.61027-.0168 2.84162 0 5.69823 0 8.57161-10.0877-6.95413-20.61901-13.45493-29.40583-22.04858-10.67066-11.50319-18.19542-25.60634-23.46681-40.28805z"/><path d="m483.09625 346.13003c15.64131 5.62944 28.79817 16.88215 38.93613 29.84407-8.50019-3.87879-15.84591-9.96419-24.72269-13.07128-2.72698-1.23825-6.00958-1.70303-8.21268-3.84527-2.63173-3.97756-4.17866-8.54779-6.00076-12.92752z"/><path d="m602.93766 375.97234c10.13355-12.96457 23.301-24.21463 38.93966-29.84408-1.82122 4.38061-3.36815 8.94996-6.01134 12.93811-2.2181 2.13518-5.491 2.59556-8.21268 3.83381-8.86796 3.10973-16.22603 9.20395-24.71564 13.07216z"/><path d="m644.50816 345.75873c2.18987.52564 4.37181 1.09537 6.56256 1.67834-6.81303 18.47582-16.80106 36.8661-33.1347 48.5589-6.41262 4.83217-13.07837 9.28422-19.73882 13.77772 0-2.87249-.0106-5.72911 0-8.57249 7.23901-4.55965 15.0848-8.39257 21.10937-14.61997 11.42031-11.48907 18.0252-26.54913 25.20159-40.8225z"/><path d="m468.21607 351.38023c1.21267-1.23824 2.54706-2.34685 3.85675-3.4775 6.26269 15.76209 14.12965 31.47567 26.6277 43.26108 8.05039 7.20194 17.18911 13.03247 26.14351 19.04291 2.89278 1.23825 1.65364 4.81188 1.94028 7.25222-6.30856-2.70139-11.83307-6.81742-17.52426-10.57009-12.72559-8.41726-24.26232-19.10641-32.05784-32.32145-3.79766-7.36775-7.03616-15.13062-8.98614-23.18717z"/><path d="m635.26008 381.12641c7.46479-10.15469 13.08278-21.49736 17.6345-33.21574 1.3044 1.12007 2.66612 2.19075 3.85851 3.46515-1.92969 8.0592-5.19377 15.81942-8.9685 23.18805-7.66411 12.9531-18.91685 23.52407-31.35581 31.84609-5.92932 3.90877-11.66726 8.21706-18.21482 11.04722.25135-2.44299-.98425-6.00163 1.91999-7.2531 12.55803-8.53104 26.05356-16.56554 35.12613-29.07767z"/><path d="m415.01182 357.65261c6.03692 4.38062 11.09664 9.97654 17.33376 14.10845 12.32342 8.21618 25.9195 14.25043 39.61787 19.77316 8.34762 3.39284 17.20235 5.49715 25.39298 9.26305 5.7838 4.04547 11.31183 8.4887 17.16795 12.45568-9.89454-1.18268-19.66562-3.32316-29.19151-6.21593-15.21356-4.85774-28.78582-13.57311-41.95503-22.3943-10.77032-7.38539-21.65-15.53807-28.36602-26.99011z"/><path d="m692.6324 371.74518c6.23712-4.11779 11.28626-9.7146 17.33376-14.09345-8.12007 13.70187-21.80963 22.65536-34.79804 31.26312-11.97682 7.73641-24.47399 15.07153-38.30025 18.95472-8.66512 2.43946-17.49957 4.33034-26.43985 5.3922 5.86847-3.96521 11.39386-8.40492 17.19-12.46362 8.19063-3.76237 17.04713-5.86757 25.40533-9.26393 13.68955-5.52625 27.29886-11.56051 39.60905-19.78904z"/><path d="m419.66497 358.54602c10.47663 5.17436 20.16833 11.92475 31.1071 16.20042 9.34597 4.22627 19.57125 5.79789 29.29911 8.82119 5.095 3.67594 8.92882 8.88293 13.15422 13.4999-15.62014-4.7034-30.73492-10.9652-45.36552-18.15656-10.45634-5.0941-20.43203-11.61607-28.19491-20.36495z"/><path d="m688.6416 367.74822c5.63122-2.92012 10.83558-6.64456 16.66612-9.2022-11.17689 12.73614-26.83407 20.12683-42.08467 26.82166-10.26232 4.46351-20.73895 8.51075-31.47664 11.71132 3.32405-3.95375 6.81832-7.74875 10.43694-11.41764 3.13267-3.43958 8.13683-3.39283 12.28991-4.68841 11.97947-2.66787 23.46769-7.2381 34.16834-13.22473z"/><path d="m490.66511 362.25812c10.02331 3.17852 19.53774 8.10506 27.90828 14.49826-6.65516-1.62983-13.47436-2.08226-20.28915-1.63953-2.6917-4.20334-5.39045-8.40492-7.61913-12.85873z"/><path d="m606.41517 376.74756c8.35732-6.38085 17.8691-11.30915 27.89153-14.48591-2.23838 4.45469-4.92831 8.65451-7.62001 12.85785-6.80686-.44362-13.62694.009-20.27152 1.62806z"/></g><path d="m560.905 167.85c9.547-4.201 18.75-9.151 28.36-13.23.458 4.697.594 9.423.716 14.146 4.645-.365 9.312-.687 13.983-.296-1.255 2.766-2.619 5.507-4.013 8.203 4.16 1.34 8.153 3.146 11.986 5.24-6.988 7.249-14.482 14.591-24.365 17.598-8.504 4.779-19.126 5.792-26.12 13.094-3.901 4.238-8.905 7.236-12.807 11.489-4.725 4.847-10.115 8.951-15.768 12.633-4.697 4.43-4.496 11.866-8.948 16.577-10.813 12.431-15.093 29.927-28.752 39.969.496 7.423.849 14.848 1.064 22.296 6.358-11.254 12.177-23.016 20.716-32.842 4.497-5.098 9.706-9.543 15.108-13.657-2.565 8.748-7.088 16.722-10.516 25.133-5.453 12.335-9.273 25.402-11.177 38.767-1.188 8.841-2.321 17.873-.685 26.725 4.008-13.295 9.365-26.51 17.747-37.672 1.024 20.545-3.412 41.292.34 61.728.66 3.978 1.417 7.949 2.172 11.933 4.586-2.406 9.189-5.67 14.592-5.512 6.646.664 12.646 3.972 18.262 7.384 16.455 9.962 29.292 24.583 41.613 39.09-12.055-4.724-24.352-9.746-37.553-9.639 6.007 10.177 16.009 16.914 25.889 22.92 5.495 3.698 12.434 1.797 18.642 2.24.023-2.252.053-4.508.107-6.748 3.105 0 6.226-.017 9.341-.023-.041-4.035-.041-8.07 0-12.105h33.798c.02 4.035.02 8.07-.013 12.105 3.146.014 6.273.023 9.436.023.023 2.24.068 4.496.109 6.748 6.181-.447 13.119 1.458 18.612-2.24 9.882-6.006 19.885-12.743 25.892-22.92-13.202-.107-25.497 4.913-37.552 9.639 11.324-13.254 22.918-26.7 37.565-36.444 6.464-4.305 13.313-8.585 21.098-9.894 5.818-.835 10.895 2.806 15.812 5.359 1.146-6.17 2.361-12.336 3.146-18.574 1.809-18.344-1.517-36.728-.647-55.074 8.435 11.163 13.715 24.432 17.817 37.727 1.603-9.68.338-19.518-1.105-29.129-2.049-13.228-6.13-26.077-11.624-38.267-3.226-7.761-7.37-15.158-9.69-23.272 6.411 4.888 12.58 10.229 17.563 16.615 7.234 9.19 12.512 19.71 18.249 29.86.216-7.545.636-15.062.958-22.595-9.187-6.236-13.938-16.697-19.411-25.958-2.767-5.534-6.639-10.358-10.362-15.244-3.539-4.521-3.469-11.119-7.802-15.037-12.569-7.881-22.069-19.586-33.92-28.348-6.994-3.671-14.739-5.602-21.747-9.272-9.527-2.959-16.603-10.273-23.392-17.184 3.847-2.118 7.858-3.926 12.045-5.276-1.435-2.609-2.809-5.225-4.13-7.872 4.657-.78 9.354-.379 14.034-.054.112-4.71.259-9.421.72-14.105 9.881 4.104 19.243 9.435 29.156 13.469 7.559 1.042 12.688 7.072 19.073 10.598 3.334 1.93 6.734 3.878 9.448 6.668 5.035 5.005 12.202 7.33 16.629 13.026 3.829 5.147 9.558 8.491 13.067 13.903 2.888 4.28 6.854 7.686 9.745 11.948 2.955 4.602 7.652 7.82 10.208 12.704.729 2.711.687 5.562 1.283 8.312 1.573 3.903 5.831 6.74 5.562 11.329-.107 7.681-2.768 15.145-2.239 22.862.31 2.956-.415 5.873-2.404 8.139-5.436 6.266-2.187 15.203-2.71 22.69 8.247-11.904 15.305-24.674 24.959-35.542 5.509-6.17 11.23-12.214 17.645-17.456-1.136 3.267-2.467 6.465-4.105 9.507-7.353 13.294-13.066 27.415-19.479 41.182-7.195 15.553-9.043 32.803-10.488 49.676 12.571-9.504 25.394-18.709 39.215-26.362 12.617-7.637 26.942-14.391 42.129-12.354-7.762 4.616-15.94 8.505-23.541 13.418-14.168 8.789-26.25 20.464-37.943 32.247-14.564 14.147-26.662 30.664-37.295 47.906 11.229-5.896 21.436-13.526 32.422-19.829-7.572 12.1-15.646 24.273-26.808 33.387-15.076 12.538-31.979 22.758-49.46 31.531-18.438 9.368-39.43 10.794-59.026 16.518-5.55 1.74-11.435.943-17.145 1.039-.041 2.257-.08 4.494-.109 6.764-3.157 0-6.288 0-9.421.025.027 4.036.027 8.071.019 12.104-11.258 0-22.517 0-33.773 0-.022-4.032-.022-8.067.016-12.104-3.128-.025-6.264-.025-9.376-.025-.041-2.27-.082-4.508-.11-6.764-5.724-.095-11.625.689-17.183-1.039-17.063-5.006-35.055-6.643-51.659-13.229-13.754-5.726-26.528-13.525-39.026-21.558-11.082-7.561-22.15-15.605-30.521-26.228-5.061-6.548-9.827-13.336-14.091-20.423 10.988 6.303 21.191 13.934 32.422 19.828-8.951-14.546-19.008-28.535-30.614-41.089-14.716-15.064-29.619-30.427-47.959-41.102-6.561-4.09-13.594-7.366-20.207-11.378 10.57-1.197 21.272 1.287 30.681 6.102 17.927 9.166 34.731 20.342 50.658 32.611-1.433-16.187-3.09-32.719-9.665-47.766-4.533-10.263-9.259-20.454-13.9-30.668-3.319-7.399-7.992-14.173-10.503-21.923 11.5 9.695 21.594 21.098 29.884 33.669 4.279 6.33 8.165 12.944 12.672 19.141.135-6.061.823-12.188-.013-18.223-1.594-3.736-5.657-6.601-5.064-11.077.68-8.18-2.039-16.094-2.238-24.202-.259-3.469 2.294-6.089 4.105-8.734 2.603-3.038 1.592-7.33 2.738-10.907 2.556-4.873 7.252-8.103 10.207-12.705 2.89-4.28 6.855-7.681 9.75-11.946 3.509-5.414 9.233-8.761 13.066-13.904 4.413-5.683 11.594-8.013 16.629-13.026 5.075-5.048 12.054-7.492 17.464-12.134 3.344-2.935 7.551-4.379 11.83-5.364m16.932-.446c2.16-.985 4.302-2.024 6.479-3.01-1.632 1.864-3.32 3.687-4.998 5.522.554 2.444 1.133 4.888 1.741 7.315 2.107-1.631 4.811-2.847 6.007-5.385 2.525-4.714 1.082-10.166.567-15.156-4.749 1.914-10.757 4.463-9.796 10.714m110.086-10.703c-.507 4.997-1.952 10.449.573 15.145 1.197 2.538 3.882 3.754 6.02 5.386.581-2.428 1.148-4.859 1.715-7.289-1.67-1.86-3.348-3.713-4.94-5.629 1.942 1.001 3.875 2.053 5.805 3.093.215-1.809.445-3.631.664-5.441-3.192-1.919-6.471-3.674-9.837-5.265m-125.637 12.243c.282 2.685.552 5.358.82 8.043.985-.282 1.986-.567 2.997-.837 4.227.784 8.532.404 12.784-.094-.594-4.521-1.62-8.961-2.844-13.349-4.759 1.713-9.343 3.807-13.757 6.237m137.211-6.237c-1.271 4.359-2.242 8.814-2.798 13.337 5.266.768 10.582.567 15.873.324.213-2.469.446-4.957.678-7.423-4.418-2.446-9.003-4.537-13.753-6.238m-154.385 15.537c.868 1.764 1.728 3.538 2.595 5.304 1.983-2.011 3.98-4.021 6.098-5.898-1.782 2.985-3.788 5.818-5.759 8.68 4.017-.016 8.058-.027 12.094-.016 1.473-5.522 1.633-11.27.77-16.914-6.29.786-11.124 4.97-15.798 8.844m37.988 1.025c2.308-.54 4.616-1.095 6.953-1.59-4.225 2.321-8.908 4.441-10.462 9.463 2.417-.403 5.305.119 7.129-1.943 5.236-5.095 12.053-8.735 15.492-15.457-4.074.023-8.219.023-12.216.959-2.605 2.591-4.522 5.774-6.896 8.568m90.236-9.516c3.468 6.708 10.271 10.353 15.522 15.442 1.798 2.063 4.686 1.534 7.118 1.93-1.57-4.999-6.237-7.128-10.462-9.451 2.325.498 4.63 1.055 6.938 1.592-2.35-2.797-4.297-5.966-6.874-8.574-4.009-.924-8.152-.924-12.242-.939m41.315-.351c-.861 5.643-.7 11.394.774 16.929 4.018-.017 8.045-.028 12.082-.028-1.99-2.845-3.995-5.667-5.766-8.652 2.118 1.89 4.115 3.888 6.13 5.899.837-1.779 1.704-3.54 2.577-5.304-4.683-3.876-9.516-8.06-15.797-8.844m-151.231 11.408c-1.566 1.998-2.892 6.265-.027 7.734 1.956-.582 3.823-1.392 5.737-2.119-2.835 2.403-5.469 5.06-7.345 8.3 4.359-.813 9.301-1.042 12.581-4.442 4.198-3.025 5.568-8.178 7.572-12.663-6.168.437-13.191-.563-18.518 3.19m34.057-2.149c-4.108 1.538-7.1 4.902-9.814 8.184 3.443-.365 6.871-.879 10.328-1.152-2.691 1.458-5.479 2.727-8.167 4.212 2.835.771 5.655 1.849 8.623 1.956 4.225-2.593 7.589-6.306 11.284-9.546-3.861-1.721-7.881-4.06-12.254-3.654m68.352 3.658c3.689 3.24 7.062 6.952 11.284 9.543 2.954-.11 5.778-1.188 8.616-1.956-2.672-1.498-5.479-2.743-8.153-4.212 3.441.27 6.87.783 10.325 1.152-2.172-2.553-4.373-5.185-7.274-6.927-4.7-3.308-10.314.58-14.798 2.4m27.795-4.696c1.998 4.483 3.371 9.652 7.572 12.663 3.281 3.4 8.204 3.631 12.581 4.441-1.896-3.24-4.509-5.911-7.348-8.315 2.365.378 5.493 3.698 7.222.772.378-2.767-.244-6.386-3.213-7.477-5.274-2.288-11.2-1.829-16.814-2.084m-162.669 11.069c1.093 2.212 2.188 4.414 3.28 6.627 1.432-2.416 2.846-4.845 4.359-7.221-.743 3.089-1.58 6.171-2.272 9.276 4.47-2.405 8.994-5.858 10.208-11.068-.417-2.561-1.484-4.954-2.27-7.397-5.031 2.373-10.065 5.113-13.305 9.783m200.339-9.785c-.677 3.076-3.358 6.411-1.525 9.527 1.764 4.168 5.656 6.801 9.462 8.938-.715-3.104-1.525-6.171-2.254-9.259 1.498 2.362 2.902 4.792 4.348 7.207 1.08-2.213 2.172-4.415 3.276-6.615-3.234-4.683-8.268-7.423-13.307-9.798m-183.668 9.852c-2.171 2.364-3.752 5.185-5.44 7.879 3.714-1.104 7.357-2.427 10.785-4.263-3.331 3.603-4.063 8.37-3.913 13.135 3.995-3.359 8.45-6.25 12.067-10.043.499-2.592.445-5.25.607-7.871-4.712.055-9.531-.078-14.106 1.163m24.797 5.021c3.561.082 7.138.135 10.663.718-3.118.513-6.252.917-9.355 1.482 1.633 1.783 3.28 3.564 4.944 5.334 5.813-2.239 11.632-4.491 17.305-7.114-4.508-2.632-8.992-5.993-14.429-6.035-4.08-.784-6.402 3.375-9.128 5.615m121.592-5.615c-5.452.042-9.933 3.403-14.428 6.036 5.669 2.609 11.485 4.872 17.303 7.114 1.648-1.765 3.294-3.548 4.942-5.334-3.118-.567-6.252-.97-9.354-1.482 3.523-.582 7.086-.636 10.664-.717-2.741-2.242-5.049-6.401-9.127-5.617m19.817-.581c.146 2.632.094 5.289.605 7.881 3.62 3.794 8.06 6.684 12.064 10.043.134-4.767-.591-9.53-3.915-13.134 3.416 1.836 7.061 3.16 10.786 4.263-1.704-2.7-3.278-5.521-5.438-7.881-4.588-1.238-9.392-1.105-14.102-1.172m-199.614 13.513c.674 3.038 1.311 6.087 1.998 9.124 2.469-3.995 4.413-8.287 6.803-12.323-.675 3.309-1.576 6.574-2.391 9.855 2.703-1.203 5.629-2.011 8.086-3.674 3.712-4.159 3.561-10.176 1.339-15.013-5.792 3.285-11.474 6.913-15.835 12.031m231.294-12.029c-2.24 4.833-2.39 10.852 1.336 15.013 2.457 1.663 5.376 2.468 8.084 3.674-.822-3.294-1.722-6.551-2.387-9.855 2.387 4.037 4.336 8.329 6.803 12.324.678-3.036 1.308-6.085 1.996-9.124-4.359-5.121-10.055-8.749-15.832-12.032m-189.113 11.989c3.424-.148 6.854-.474 10.3-.688-4.55 1.338-9.167 2.418-13.651 3.942 3.5 1.526 7.032 2.931 10.527 4.441 4.455-2.563 9.152-4.696 13.917-6.627-2.039-2.592-3.925-5.346-6.317-7.64-5.785-.825-10.482 3.345-14.776 6.572m147.966-6.561c-2.389 2.279-4.279 5.037-6.304 7.638 4.771 1.917 9.448 4.05 13.917 6.614 3.499-1.511 7.032-2.916 10.517-4.442-4.482-1.524-9.1-2.604-13.635-3.94 3.429.214 6.845.54 10.286.689-4.276-3.225-9.004-7.41-14.781-6.559m-168.891 3.657c-4.064 1.956-5.305 6.641-4.604 10.797 2.902-2.186 5.794-4.387 8.868-6.33-2.617 3.052-5.667 5.683-8.705 8.3.445 2.484.904 4.966 1.418 7.451 4.778-3.729 9.07-8.018 13.728-11.894 2.808-2.229 1.339-6.234 1.604-9.317-4.111.237-8.262.237-12.309.993m192.296-.986c.259 3.077-1.214 7.072 1.61 9.317 4.656 3.873 8.947 8.164 13.728 11.891.494-2.484.968-4.966 1.416-7.451-3.036-2.618-6.101-5.236-8.704-8.3 3.064 1.971 5.978 4.131 8.884 6.33-.06-2.654.508-5.668-1.366-7.879-3.403-5.135-10.399-3.056-15.568-3.908m-227.307 20.884c.868-.216 2.578-.622 3.428-.824-1.335 3.673-1.984 7.518-1.552 11.447 4.684-4.468 9.382-9.371 11.584-15.591.736-3.224-.154-6.558-.381-9.813-5.845 3.429-10.42 8.544-13.079 14.781m261.555-14.781c-.269 3.929-1.606 8.221.46 11.911 2.483 5.264 6.556 9.556 10.757 13.498.298-3.889-.206-7.735-1.475-11.406.797.175 2.388.528 3.186.716-2.482-6.297-7.176-11.29-12.928-14.719m-219.778 8.491c3.375-.393 6.722-.945 10.127-1.2-4.849 2.078-10.231 3.265-14.038 7.167 5.547-.312 11.136-.621 16.67-1.175 3.105-1.539 4.964-4.672 7.179-7.222-3.142-1.217-6.264-2.592-9.566-3.266-3.758 1.268-6.987 3.684-10.372 5.696m171.143-2.445c2.215 2.552 4.065 5.696 7.182 7.236 5.534.554 11.109.864 16.686 1.175-3.833-3.888-9.207-5.089-14.039-7.167 3.374.258 6.723.822 10.111 1.2-3.402-2.012-6.629-4.455-10.376-5.696-3.313.676-6.43 2.048-9.564 3.252m-196.384 1.824c-2.701 3.766-4.388 8.14-6.44 12.27 4.049-.702 7.735-2.523 11.027-4.941-2.146 3.507-2.838 7.558-2.997 11.61 4.429-3.713 8.222-8.154 11.313-13.027.74-3.414-.282-6.967-.378-10.418-4.305 1.05-8.787 2.035-12.525 4.506m229.038-4.509c-.109 3.455-1.146 7.018-.363 10.418 3.078 4.871 6.871 9.316 11.302 13.027-.175-4.065-.85-8.102-2.999-11.61 3.282 2.417 6.967 4.239 11.029 4.942-2.063-4.13-3.751-8.504-6.424-12.271-3.759-2.468-8.256-3.453-12.545-4.506m-255.968 26.038c1.647-1.107 3.268-2.253 4.912-3.388-3.94 4.709-3.75 10.664-2.703 16.386 3.24-4.901 6.32-9.962 8.766-15.305.736-4.347-.796-8.748-1.393-13.028-4.615 4.078-7.908 9.409-9.582 15.335m41.48-13.378c-3.751 2.376-6.006 6.386-9.164 9.395-2.107 1.945-3.673 4.347-4.94 6.897 5.17-1.444 9.231-4.927 13.417-8.072-1.513 2.176-3.093 4.294-4.628 6.438 3.807-.054 8.247.596 11.393-2.089 5.009-3.981 9.826-8.289 13.58-13.511-6.536.836-13.111.673-19.658.942m192.811-.943c3.753 5.224 8.57 9.529 13.579 13.511 3.146 2.687 7.574 2.04 11.394 2.089-1.554-2.145-3.131-4.262-4.628-6.438 4.185 3.146 8.246 6.628 13.416 8.072-2.036-4.75-6.263-7.869-9.354-11.865-1.861-1.891-3.617-4.871-6.64-4.603-5.946.218-11.87-.215-17.767-.766m51.549-1.014c-.595 4.281-2.147 8.677-1.392 13.028 2.443 5.344 5.509 10.406 8.765 15.305 1.04-5.722 1.242-11.666-2.688-16.375 1.621 1.119 3.237 2.254 4.902 3.359-1.689-5.922-4.984-11.239-9.587-15.317m-268.16 8.586c-4.347 2.703-6.643 7.495-9.094 11.773 3.848-1.189 7.559-2.754 11.296-4.28-1.875 1.763-3.807 3.466-5.735 5.153.42 3.499.715 6.991 1.065 10.489 2.687-2.082 5.615-3.954 7.919-6.479 3.322-5.415 3.943-11.919 4.754-18.075-3.411.179-7.101-.27-10.205 1.419m249.855-1.419c.646 5.224 1.255 10.545 3.35 15.431 1.552 4.304 6.037 6.345 9.327 9.14.34-3.509.649-7.004 1.066-10.501-1.948-1.689-3.878-3.391-5.737-5.153 3.728 1.525 7.44 3.089 11.309 4.279-2.468-4.279-4.765-9.07-9.111-11.773-3.115-1.693-6.8-1.244-10.204-1.423m-268.859 5.428c-1.996 2.687-4.159 5.288-5.774 8.247-1.188 3.321.022 6.896.863 10.164 1.15-2.362 2.2-4.763 3.334-7.122-.376 4.602-.567 9.283 1.119 13.674 3.833-7.89 2.337-16.783.458-24.963m298.529 24.959c1.648-4.456 1.494-9.184 1.157-13.841 1.059 2.422 2.081 4.862 3.173 7.264 1.01-3.228 2.187-6.763.998-10.113-1.632-2.972-3.792-5.573-5.79-8.274-1.872 8.185-3.383 17.078.462 24.964m-267.712-18.305c-3.593 1.783-4.17 6.089-5.628 9.411 2.279-.308 4.509-.875 6.777-1.268 1.622.982 3.428 1.631 5.022 2.67 1.575-3.939 3.227-7.867 4.858-11.797-3.673-.137-7.71-1.054-11.029.984m225.424-.985c1.604 3.93 3.251 7.857 4.816 11.797 1.674-.904 3.336-1.808 5.02-2.711 2.255.446 4.51.906 6.791 1.362-1.432-3.347-2.024-7.681-5.615-9.464-3.334-2.023-7.371-1.132-11.012-.984m-254.659 17.953c2.614-1.094 5.223-2.293 7.743-3.616.136 4.346.933 8.653 2.093 12.853 1.216-2.042 3.28-3.847 3.28-6.385.378-6.156.188-12.364-1.08-18.398-6.666 2.466-10.296 9.039-12.036 15.546m282.87-15.551c-.891 8.103-3.685 17.972 2.188 24.797 1.16-4.197 1.97-8.504 2.124-12.862 2.509 1.323 5.088 2.522 7.729 3.616-1.755-6.52-5.373-13.08-12.041-15.551m-268.508 12.541c.068 2.066.133 4.147.216 6.209 3.033-1.537 6.085-3.104 9.242-4.387-2.654 2.268-5.562 4.225-8.393 6.251 2.97.999 5.845 2.538 9.029 2.687 4.441-3.335 7.316-8.206 10.677-12.525-3.874-.756-7.774-1.647-11.727-1.608-3.2.563-6.049 2.226-9.044 3.373m245.413-1.77c3.358 4.32 6.23 9.19 10.676 12.526 3.187-.136 6.042-1.702 9.031-2.687-2.849-2.024-5.738-3.982-8.396-6.237 3.159 1.27 6.194 2.837 9.245 4.375.069-2.066.136-4.129.217-6.211-3.011-1.146-5.858-2.806-9.047-3.375-3.965-.037-7.867.854-11.726 1.609m-273.491 7.683c.255 6.047 1.417 12.054 3.087 17.872.458-3.914.515-7.841.855-11.757 1.078 4.455 1.763 8.992 2.982 13.418.782-7.141-1.324-15.339 4.212-21.061-1.854-2.726-3.794-5.383-5.831-7.975-2.27 2.82-5.323 5.601-5.305 9.503m311.212-1.512c5.494 5.696 3.354 13.836 4.339 20.922 1.094-4.399 1.755-8.896 2.803-13.296.354 3.901.421 7.844.908 11.744 1.661-5.803 2.822-11.813 3.088-17.845 0-3.941-3.088-6.723-5.38-9.544-2.014 2.605-3.931 5.278-5.758 8.019m-302.263 5.967c-.905 5.237-.42 10.664.688 15.845 2.308-4.562 3.052-9.652 4.858-14.404-.229 4.375-.89 8.71-1.444 13.052 2.673-.054 5.358-.117 8.05-.213 2.023-7.48.754-15.226-1.571-22.477-3.79 2.284-8.505 3.973-10.581 8.197m293.855-8.196c-2.321 7.25-3.6 14.996-1.565 22.488 2.672.081 5.358.146 8.061.202-.587-4.346-1.247-8.677-1.462-13.066 1.809 4.751 2.537 9.854 4.862 14.43 1.104-5.194 1.578-10.623.674-15.873-2.077-4.209-6.786-5.898-10.57-8.181m-278.925 10.853c-.647 4.616-.904 9.273-1.444 13.9 2.227-3.051 4.21-6.29 6.48-9.313-1.176 2.997-2.523 5.926-3.833 8.883 1.078.446 3.225 1.338 4.295 1.795 3.266-5.17 6.586-10.313 9.282-15.807-4.804-1.265-10.951-4.412-14.78.542m259.799-.541c2.701 5.495 6.02 10.637 9.286 15.807 1.065-.445 3.212-1.349 4.279-1.809-1.31-2.956-2.646-5.898-3.82-8.909 2.269 3.038 4.238 6.292 6.479 9.354-.54-4.628-.796-9.285-1.444-13.9-3.833-4.956-9.971-1.809-14.78-.543m-307.099 10.732c5.984 13.313 14.267 25.449 20.612 38.594 6.303 11.666 9.258 24.672 13.792 37.04 1.057-6.588 2.65-13.161 3.015-19.828-4.285-9.664-10.343-18.465-15.876-27.468-6.639-9.819-12.442-20.534-21.543-28.338m348.703 26.687c-5.926 9.528-12.349 18.869-16.941 29.128.364 6.65 1.947 13.215 3.012 19.803 4.535-12.351 7.495-25.359 13.782-37.024 6.345-13.145 14.644-25.297 20.622-38.606-8.636 7.341-14.21 17.426-20.475 26.699m-322.513-23.797c.075 1.819.202 3.642.358 5.467.019 3.616 3.512 5.683 5.116 8.61 1.312 7.821-1.052 15.754.072 23.583 1.551 4.644 4.655 8.544 7.342 12.569 3.954-11.325.661-23.327 1.078-34.976 4.86-2.971 8.529-7.369 11.254-12.324-8.105-2.929-16.775-2.415-25.22-2.929m291.573 2.915c2.727 4.966 6.399 9.369 11.258 12.335.42 11.649-2.874 23.649 1.081 34.977 2.686-4.022 5.791-7.923 7.342-12.569 1.122-7.826-1.253-15.767.069-23.583 1.401-2.254 3.414-4.09 4.755-6.398.551-2.521.525-5.116.73-7.68-8.468.516-17.12.003-25.235 2.918m-263.862 20.438c-8.194 14.334-16.038 29.708-16.915 46.509-.566 8.45-1.669 17.062-.473 25.489 2.024 2.426 4.535 4.387 6.953 6.437-.378-24.39 2.172-49.271 11.839-71.876 3.631-8.367 8.745-15.967 12.459-24.296-6.074 4.632-9.99 11.297-13.863 17.737m-8.139 80.192c3.051 4.007 7.113 7.087 10.879 10.408.211-11.57-3.51-22.73-3.5-34.284-.875-16.806 3.077-33.368 8.044-49.281 2.443-7.922 6.29-15.306 8.993-23.139-19.921 27.536-26.388 62.888-24.416 96.296m253.227-96.311c2.311 6.832 5.645 13.255 7.951 20.085 6.613 19.438 10.985 40.077 8.545 60.674-.963 8.652-3.159 17.185-2.943 25.959 3.754-3.317 7.83-6.4 10.88-10.409.678-11.189.257-22.489-.907-33.64-3.265-22.187-9.986-44.499-23.526-62.669m3.17-.729c4.065 10.034 10.599 18.897 14.028 29.226 7.785 20.948 9.756 43.448 9.599 65.654 2.442-1.902 4.845-3.832 7.274-5.765.188-11.783-.175-23.617-2.042-35.267-2.633-12.229-8.203-23.596-14.254-34.462-4.182-6.926-8.02-14.403-14.605-19.386m-298.958 3.158c4.627 11.949 11.212 23.164 14.618 35.598 3.48 12.336 3.307 25.306 5.383 37.89 3.023 4.037 7.33 6.843 11.082 10.166.174-5.804.796-11.773-1.066-17.371-2.7-8.866-5.09-17.872-8.652-26.456-4.86-11.395-10.475-22.46-16.564-33.258-1.358-2.358-3.019-4.527-4.801-6.569m357.974 6.562c-9.504 17.008-18.357 34.584-23.365 53.503-2.903 7.535-3.754 15.565-2.903 23.567 4.415-4.439 12.136-7.535 11.798-14.822 1.298-11.821 1.742-23.879 5.264-35.322 3.539-11.622 9.64-22.219 14.015-33.487-1.797 2.041-3.446 4.199-4.81 6.561m-411.036 28.237c13.323 7.451 28.468 11.662 40.534 21.341 21.301 16.226 40.656 35.312 55.708 57.529 4.429 6.333 8.368 13.043 13.432 18.926-.62-7.315-1.809-14.564-2.484-21.869.014-3.918-3.357-6.306-5.858-8.772-9.463-8.519-18.722-17.291-28.36-25.621-15.617-13.793-33.39-24.943-51.752-34.69-6.574-3.564-13.673-6.424-21.22-6.844m450.382 5.468c-11.704 5.966-23.002 12.687-33.854 20.072-17.549 11.824-32.503 26.917-48.242 40.954-2.687 2.714-6.557 5.171-6.557 9.434-.689 7.732-1.891 15.391-3.026 23.066 9.476-12.711 17.457-26.55 27.913-38.538 13.811-15.846 29.242-30.396 46.494-42.463 11.066-7.651 24.202-11.351 35.792-17.991-6.505.404-12.764 2.485-18.52 5.466m-342.314 39.062c-1.215 10.365.229 20.759.823 31.114.606 9.773 3.216 19.248 4.978 28.846 3.471 1.039 6.939 2.051 10.453 2.984-3.918-22.542-9.962-45.152-8.368-68.221 1.062-9.069 1.817-18.355 5.111-26.951.027 10.014-3.464 19.678-3.265 29.723.024 22.3 3.778 44.434 8.773 66.1 4.534 1.148 9.084 2.215 13.675 3.119-14.189-22.487-20.265-49.527-19.386-75.955.188-8.764 2.065-17.562.312-26.28-6.046 11.077-12.16 22.698-13.106 35.521m-90.088-33.811c14.862 10.834 27.849 23.933 40.414 37.292 10.124 10.691 18.832 22.625 27.33 34.598 3.052 4.183 5.534 8.828 9.206 12.515 4.13 3.36 9.288 5.101 14.174 7.046-5.602-9.788-12.039-19.073-18.547-28.267-9.178-13.089-20.788-24.202-32.354-35.134-12.054-11.07-24.591-22.383-40.223-28.05m383.083 37.269c-16.659 15.644-29.63 34.648-41.265 54.182 6.23-2.538 13.442-4.644 17.265-10.678 10.529-15.322 21.261-30.643 34.098-44.165 12.377-13.124 25.162-25.963 39.767-36.608-19.83 7.408-34.805 23.041-49.865 37.269m-53.131-1.744c-.742 22.799-7.088 45.622-19.276 64.98 4.59-.891 9.142-1.953 13.675-3.105 4.575-19.507 7.855-39.389 8.721-59.43.661-12.558-1.917-24.946-4.212-37.216-.229 11.609 2.052 23.149 1.092 34.771m.933-34.674c1.73 12.808 4.968 25.525 4.374 38.551-.702 19.372-5.237 38.336-8.639 57.354 3.481-.932 6.968-1.947 10.434-2.984 1.608-8.773 3.942-17.44 4.779-26.348.999-14.753 3.146-29.886-.918-44.386-2.389-7.772-5.783-15.252-10.03-22.187m-214.853 61.265c5.979 16.646 14.511 32.637 26.604 45.68 9.963 9.744 21.909 17.115 33.342 25 0-3.258-.018-6.496 0-9.719-8.196-5.17-17.103-9.518-23.919-16.566-12.957-13.039-20.455-30.113-28.592-46.298-2.496.609-4.965 1.228-7.435 1.903m10.422-1.481c2.064 4.966 3.82 10.148 6.799 14.657 2.501 2.432 6.227 2.958 9.318 4.36 10.07 3.522 18.396 10.418 28.033 14.821-11.498-14.702-26.414-27.454-44.15-33.838m135.882 33.837c9.625-4.388 17.97-11.298 28.026-14.821 3.092-1.404 6.801-1.931 9.312-4.347 2.996-4.521 4.751-9.703 6.818-14.67-17.736 6.385-32.663 19.137-44.156 33.838m47.136-34.258c-8.139 16.187-15.626 33.26-28.575 46.286-6.83 7.062-15.722 11.407-23.935 16.578-.012 3.222 0 6.46 0 9.719 7.547-5.095 15.106-10.139 22.381-15.622 18.522-13.258 29.845-34.11 37.57-55.058-2.483-.662-4.956-1.306-7.441-1.903m-199.891 6.374c2.212 9.137 5.885 17.936 10.19 26.291 8.842 14.984 21.922 27.104 36.349 36.648 6.451 4.253 12.716 8.924 19.869 11.987-.326-2.769 1.081-6.818-2.201-8.225-10.15-6.814-20.517-13.426-29.643-21.592-14.17-13.367-23.097-31.18-30.192-49.052-1.485 1.281-2.997 2.539-4.372 3.943m189.406 33.728c-10.286 14.189-25.588 23.297-39.829 32.975-3.293 1.42-1.897 5.453-2.178 8.223 7.425-3.214 13.934-8.1 20.653-12.522 14.106-9.436 26.858-21.423 35.553-36.111 4.281-8.353 7.977-17.156 10.168-26.291-1.352-1.445-2.892-2.661-4.374-3.931-5.156 13.282-11.532 26.143-19.993 37.657m-249.732-26.616c7.614 12.987 19.951 22.233 32.165 30.602 14.933 10.002 30.322 19.885 47.572 25.391 10.797 3.281 21.878 5.708 33.099 7.049-6.64-4.494-12.903-9.529-19.466-14.123-9.287-4.266-19.33-6.651-28.792-10.501-15.532-6.266-30.947-13.106-44.922-22.421-7.075-4.685-12.812-11.03-19.656-15.997m314.778 15.98c-13.957 9.33-29.385 16.171-44.904 22.437-9.476 3.846-19.521 6.232-28.806 10.501-6.574 4.604-12.838 9.639-19.491 14.133 10.137-1.201 20.153-3.351 29.979-6.116 15.675-4.399 29.847-12.713 43.427-21.491 14.728-9.754 30.249-19.908 39.456-35.448-6.86 4.971-12.583 11.316-19.661 15.984m-309.5-14.967c8.802 9.92 20.112 17.315 31.965 23.095 16.588 8.152 33.731 15.254 51.44 20.584-4.791-5.236-9.138-11.136-14.914-15.305-11.029-3.43-22.627-5.208-33.222-10.002-12.401-4.851-23.389-12.503-35.269-18.372m304.981 10.434c-12.137 6.79-25.164 11.97-38.739 14.998-4.713 1.47-10.383 1.415-13.935 5.317-4.104 4.158-8.065 8.463-11.835 12.945 12.177-3.633 24.049-8.219 35.69-13.277 17.291-7.589 35.042-15.969 47.718-30.414-6.616 2.894-12.514 7.121-18.899 10.431m-224.479-6.225c2.522 5.051 5.588 9.813 8.64 14.58 7.728-.498 15.455.017 23.004 1.859-9.49-7.245-20.276-12.834-31.644-16.439m131.246 16.429c7.536-1.836 15.267-2.349 22.986-1.852 3.051-4.767 6.102-9.527 8.64-14.58-11.367 3.608-22.147 9.197-31.626 16.432m-63.872 8.276c-.013 3.319-.024 6.653-.013 9.988h28.169c0-3.335 0-6.669-.014-9.988-9.384-.071-18.761-.071-28.142 0m-10.045 11.972c-.077 1.577-.148 3.172-.204 4.766 2.523-.024 5.063-.068 7.6-.136-.146-1.48-.283-2.955-.404-4.428-2.337-.07-4.669-.135-6.992-.202m10.032.119c-.025 3.334-.072 6.651-.095 9.988 9.432.077 18.882.066 28.333.014-.04-3.351-.055-6.668-.071-10.002-9.396.013-18.789.013-28.167 0m31.04-.009c-.014 1.174-.034 3.498-.055 4.655 2.461-.016 4.914-.016 7.384 0 0-1.157 0-3.47 0-4.626-2.451-.02-4.884-.02-7.329-.029m-55.418 6.017c.055 6.738.055 13.47 0 20.222 4.049.018 8.101.018 12.148 0-.068-6.746-.068-13.482-.014-20.222-4.049-.012-8.085-.012-12.134 0m14.185-.012v4.05c2.467-.016 4.94-.041 7.412-.07 0-.984 0-2.934 0-3.918-2.471-.04-4.945-.05-7.412-.062m41.076.064c0 .984.016 2.932.016 3.916 2.47.025 4.957.056 7.45.07 0-1.01 0-3.035 0-4.048-2.498.01-4.982.02-7.466.062m9.543-.052c.053 6.738.053 13.47 0 20.222 4.035.018 8.085.018 12.147 0-.071-6.746-.08-13.482-.027-20.222-4.049-.012-8.082-.012-12.12 0m-50.649 6.142c0 2.633-.013 5.287 0 7.938 2.444-.018 4.888-.018 7.357-.018-.014-2.646-.014-5.277-.014-7.896-2.454-.024-4.897-.024-7.343-.024m10.183.014c-.016 2.633-.016 5.264 0 7.913h28.209c0-2.649 0-5.28 0-7.913-9.407-.014-18.816 0-28.209 0m31.046 0c-.021 2.633-.021 5.264 0 7.913 2.456 0 4.91 0 7.363.016-.014-2.659-.014-5.291 0-7.938-2.451-.005-4.907-.005-7.363.009m-41.199 10.027v4.056c2.467-.021 4.953-.041 7.449-.072-.016-.984-.016-2.931-.016-3.914-2.48-.04-4.966-.054-7.433-.07m10.097.04c.024 3.335.055 6.669.068 10.003 9.395-.022 18.801-.022 28.209 0 0-3.334.018-6.668.059-10.003-9.453-.065-18.887-.065-28.336 0m30.991.031v3.912c2.47.029 4.958.059 7.45.072 0-1.014 0-3.037 0-4.054-2.494.015-4.978.029-7.45.07m-41.118 5.327v4.644c2.432-.014 4.874-.014 7.318 0 .013-1.16.04-3.482.054-4.644-2.468 0-4.926 0-7.372 0m41.229 0c.014 1.16.022 3.482.034 4.644 2.444-.014 4.873-.014 7.329-.014 0-1.162 0-3.469 0-4.63-2.465 0-4.922 0-7.363 0m-31.087 6.793c.025 3.334.041 6.668.054 10.002 9.409-.024 18.801-.016 28.209 0 0-3.334.018-6.668.058-10.002-9.453-.069-18.887-.069-28.321 0z" fill="#d81e05" transform="matrix(.88194554 0 0 .8819431 -.000882 -.000008)"/><text x="309" y="652"><tspan/></text><path d="m252.502 580.66462c-2.10168-2.4-3.30264-5.4-3.60288-9-.30024-1.8.30024-3.3 1.5012-4.2 1.80144-.9 3.90313-1.2 6.00481-1.2 2.70216-.3 4.80384.9 6.90552 3 2.40192 2.7 4.5036 5.7 6.30504 9 3.00241-.6 5.40433-1.2 7.50601-1.8 2.10168-.3 4.5036 0 7.20576 1.2 1.80145 2.1 2.70217 3.6 2.40193 4.8-1.20097 1.5-3.00241 2.7-5.10409 2.7-4.5036.3-9.0072 1.5-13.21057 3 3.30265-.3 6.30505 0 9.30745 1.2 1.80144.9 2.10168 2.4.90072 4.8-.60048 1.8-1.5012 3.3-2.40192 5.1 2.40192-.6 4.80384-.6 7.506-.6 3.00241 0 5.10409 1.2 6.90553 3.3 1.20096 1.5 1.20096 3 .30024 4.5-3.0024 2.1-5.70457 3-8.40673 2.7-3.0024-.6-6.30504-.3-10.20816 1.2-5.70457 2.1-10.50841 4.8-14.11129 8.1 4.80384-.9 9.30744-1.8 13.21057-2.1 2.40192-.6 4.5036-.9 6.60528-.6 3.0024.3 4.5036 1.8 4.5036 4.8 0 4.2-.60048 8.4-1.80144 12.6-1.5012 3-4.5036 5.7-9.30744 8.4-1.80145.9-3.90313 2.1-6.60529 3.6-1.20096 2.1-1.5012 4.2-1.5012 6.3 4.5036-1.5 8.70697-2.1 12.61009-1.8 1.80144 0 3.30264 1.8 4.80384 4.5.60048.6.60048 1.8.30024 3.6-.30024 1.2-2.40192 2.1-5.70456 2.7-4.5036.9-9.30745 2.1-13.81105 3.3-.30024 6.3-.30024 13.2-.30024 21 .30024 3.9-1.5012 5.7-4.80384 6.3-3.00241 4.5-5.40433 3.9-6.90553-2.1-1.5012-7.2-1.80144-14.4-1.20096-21.3-7.20576 1.2-13.51081 3-19.21537 5.4-3.30264 1.2-6.30504.9-8.70697-1.2-1.5012-1.5-2.40192-3.6-2.70216-6.3-.30024-2.4 1.5012-3.9 5.10409-5.1 7.20576-1.8 15.61248-3.6 24.61969-5.1.90072-1.5 1.20096-2.7.90072-3.9-6.30504 2.1-10.50841 1.8-12.61009-.3-3.60288-4.5-6.0048-9.3-7.20576-14.4-1.20096-3.6-1.20096-7.2-.60048-10.5.90072-3 3.90312-4.5 8.70696-4.8 4.80385.3 9.90793-.9 15.91273-3 3.30265-1.2 6.00481-3.3 8.70697-6-13.51081 2.1-26.72138 5.7-39.93195 11.1-3.30264 1.5-6.30504 1.2-8.70696-1.2-1.80144-2.1-2.40192-4.5-1.80144-6.9.60048-3 2.70216-4.8 6.30504-4.8 5.40432 0 12.91033-1.2 22.21778-3.6.90072-4.2.60048-8.7-.90073-13.5-3.30264 0-6.60528-.3-9.30744-.6-2.70216-.6-4.20336-2.1-4.5036-3.9-.60048-2.1-.60048-3.6.30024-4.8 1.5012-2.4 3.90312-3.3 7.80624-3.3zm-3.0024 23.4c1.20096 1.2 3.30264 1.5 6.60529.6 4.5036-2.1 7.506-5.1 9.0072-9.3 1.20096-2.7.90072-4.8-.30024-5.7-2.70216-.3-5.40432-.3-8.40672 0-4.20337.3-6.90553 1.5-7.80625 3.9-1.80144 3.6-1.20096 7.2.90072 10.5zm7.80625 22.5c-6.00481 1.8-11.40913 3.9-15.91273 5.7-.60048 3.3.30024 6.6 2.40192 9.9 1.5012 2.1 4.5036 2.4 9.0072.3 3.00241-1.8 6.00481-2.4 9.60769-1.8 3.90312-3 6.30504-8.7 7.20576-16.5.90073-2.7-1.5012-2.7-6.60528 0zm-.30024 3.6c3.60288-1.2 5.70456-.6 6.90552 2.1.30024.6.30024 1.2.30024 1.8 0 1.8-1.80144 3-5.40432 3.9-3.60288 1.2-6.90553 1.2-10.50841.6-2.40192-.6-3.30264-1.8-3.0024-4.2.30024-2.1 1.80144-3 4.5036-2.7 1.80144.3 4.20336-.3 7.20577-1.5zm56.74539-54.3c-.30024-2.7.60048-4.8 2.70216-6 3.30265-2.4 6.60529-2.1 9.60769 0 2.70216 2.1 4.20336 4.2 5.40432 6.9.90072 4.2 0 7.2-3.60288 8.4-3.90312 1.2-8.10648 3.6-12.91033 7.5-3.30264 2.4-6.30504 4.2-9.90792 5.4-2.40192.9-5.10409 1.2-7.80625.6-1.20096-1.2-1.20096-3 .30024-5.4 2.70216-3.6 4.80385-6 6.60529-7.5 3.90312-4.2 7.20576-7.8 9.60768-10.2zm7.50601 29.7c2.40192-1.2 5.10408-.9 7.506 1.2 1.5012 1.2 2.10168 2.1 2.40192 3 1.5012 3.3.60048 6-2.70216 8.1-2.70216 1.2-6.30504 3.3-10.20816 6.9-3.90313 3.3-7.80625 6.9-11.70937 10.5-5.70457-1.2-9.00721.3-9.90793 3.9-2.40192-.9-3.0024-3-2.10168-6.9 1.5012-3.9 3.60288-7.8 6.90552-11.4 3.90313-5.1 8.40673-9 13.21057-12zm-4.20337 36c3.00241-3.3 5.70457-4.5 8.10649-3.6 2.10168.9 3.60288 3 4.20336 6 .30024 3.3 0 6-1.5012 8.1-6.90552 10.2-14.11129 19.5-21.91753 28.5-3.30264 3.6-6.60529 6.6-10.20817 9.6-2.70216 2.4-5.40432 5.1-7.506 8.4-1.20096 1.2-3.00241 1.8-5.10409 1.2-.60048-2.7-.60048-4.5 0-5.7 6.00481-10.2 12.30985-20.4 18.91514-30.3 3.90312-5.7 8.10648-12 12.30984-19.2zm200.86069-15c5.40433-15.9 13.51081-31.5 24.01922-46.5.90072-1.5 1.80144-3 2.70216-4.8 3.0024-3.3 6.0048-3.9 9.60768-1.8 3.90313 3.3 4.80385 7.5 2.70217 12.6-2.40192 6.9-5.40433 12.9-8.40673 18.9-.90072.9-.60048 1.8.90072 3 5.10409 2.7 6.90553 6.3 5.40433 10.8-1.80145 2.4-2.70217 4.5-3.30265 6.3-2.70216 15.9-3.60288 31.5-2.40192 47.4 0 2.1-.60048 3.6-1.80144 4.8-1.5012.6-2.70216 1.8-3.60288 3.6-1.5012 3.3-3.30264 4.2-5.40433 3.3-2.70216-4.8-4.20336-10.5-4.20336-17.4-.30024-14.7.60048-29.4 2.40192-43.8-1.80144 1.2-4.5036 5.1-8.70696 11.7-1.20096 2.1-3.0024 3.6-5.10409 4.5-2.40192 1.2-4.80384 2.1-6.60528 3-2.10168 0-1.5012-5.1 1.80144-15.6zm66.95356-43.8c2.40193-3 5.40433-3 8.70697.3s4.80384 8.1 5.10408 14.4c5.40433-.9 9.60769-2.1 12.61009-3.6 2.70216-1.5 6.0048-1.5 9.90793-.3 3.60288 1.5 4.80384 4.5 3.90312 8.7-1.20096 2.4-3.60288 3.9-7.50601 4.8-4.20336 1.2-11.40912 3.9-21.91753 8.7-2.10168 12.9-2.70216 26.1-1.5012 39.9.90072 3.9 4.80384 6 11.10889 6.6 5.40432-.3 10.5084-.6 15.61249-1.5 4.20336-.9 7.80624-1.2 11.40912-1.5 0-4.8.30024-9.3.90072-13.2.60049-3.3 1.80145-3 3.30265.6 1.5012 4.2 3.0024 7.2 4.80384 9.3 3.90312.6 6.60528 1.8 8.10649 3.9.90072 1.2-.30025 3.3-3.60289 5.7-2.10168 1.5-3.90312 3.6-5.40432 6.3-2.40192 4.2-9.90793 7.2-22.21777 9-11.70937.9-21.31706 0-28.52282-3.6-6.00481-3-9.90793-9-12.00961-17.1-1.5012-9-1.80144-18.6-1.5012-29.1 0-10.5.60048-21.6 2.10168-33 .60048-6.3 2.70216-11.4 6.60528-15.3zm275.92074-7.5c1.5012-4.5 5.10408-5.7 10.20817-3 2.10168 1.2 3.30264 6.9 4.20336 16.8 4.80384-4.8 10.80864-10.2 18.91513-15.9 12.00961-9.3 19.51561-11.1 22.51801-5.4 2.70217 5.4 1.20096 8.7-5.10408 9.9-12.61009 2.1-23.11849 5.7-30.92474 11.1-1.80144.9-3.60288 2.1-5.40432 3 .30024 3.3.30024 6.6-.30024 10.2 4.5036-6 9.0072-6.9 13.51081-3 7.20576-7.2 15.01201-13.5 24.01921-18.6 4.5036-2.4 7.80625-1.8 9.90793 1.5 1.5012 3.3.90072 6.9-2.10168 10.2-2.70217 2.4-6.60529 4.2-11.10889 5.4-5.70456 1.8-11.40913 4.5-17.11369 7.8.90072 1.8 3.60288 4.2 7.506 6.9 6.00481-6.9 12.91033-12.6 20.1161-17.7 3.30264-2.4 6.90552-1.5 10.5084 2.4 4.50361 5.4 0 11.1-13.51081 16.8 9.00721 9 13.21057 15.6 12.61009 20.1-1.20096 3.3-3.90312 4.5-8.70696 3.6-2.40192-.6-6.00481-.3-10.50841.6 2.70216 11.1 3.30264 22.5 2.70216 33.9-1.20096 6.6-4.20336 10.8-9.60768 13.2-3.60289 2.1-6.90553 4.2-9.00721 6.6-3.0024 2.1-4.80384.3-5.70456-5.1-.60048-2.7-1.80144-4.8-4.20337-7.2-.30024-1.8 1.20096-2.4 4.20337-1.8 4.20336.6 6.90552-.9 8.40672-5.1 1.5012-6.9 1.5012-14.4 0-22.2-6.60528 3.3-9.60768 7.5-9.60768 12 .30024 4.8-1.50121 8.1-5.40433 9.9-3.0024.9-5.40432-1.8-7.506-8.7-4.50361 3.9-8.40673 3-12.00961-2.7-2.40192-5.4-1.80144-7.8 1.5012-7.5 4.5036.6 8.10649 2.1 11.10889 4.5 1.80144-6.9 6.30504-8.7 13.21057-6 3.30264-1.5 6.0048-2.7 8.40672-3.6-1.20096-5.4-4.5036-6.9-9.90792-4.8-6.60529 3-10.50841 2.1-11.70937-2.4-.90072-4.8 0-8.4 3.0024-10.2 4.20336-2.7 8.40673-6.3 12.30985-10.5-3.60288-2.4-7.20577-5.7-10.20817-9-2.10168 0-3.90312-.6-5.40432-1.8-.30024 8.7-2.40192 16.5-6.00481 24 3.90313 1.8 5.10409 5.4 3.30265 10.2-3.60289.6-8.10649 1.8-13.81105 3.6 2.40192 19.5.30024 31.8-6.60529 37.5-4.5036 3.6-7.80624 3.6-9.60768 0-.60048-1.8-1.5012-3.6-2.40192-6-1.20097-2.4.30024-3.3 4.5036-2.7 2.40192 2.4 3.90312-6 4.5036-25.2-9.90793 2.1-18.91513 5.1-27.32186 9.3-2.10168.6-3.60288-.6-4.80384-3.9-1.80144-4.2-1.20096-7.2 2.70216-9 5.70457-2.7 11.40913-4.5 17.41393-5.4-3.60288-7.8-4.5036-22.8-3.0024-44.7 2.40192-22.2 7.80625-30 16.21297-23.7zm0 16.2c-.30024-3.6-.30024-6.9 0-10.2-3.0024 2.1-8.10649 3.3-15.31225 3.9-1.20096 4.8.30024 6.3 4.80384 4.8 4.20336-.9 7.80625-.3 10.50841 1.5zm-1.80144 5.4c-2.40192 2.1-6.00481 3.3-10.20817 3.9-3.30264.3-4.80384 2.7-5.10408 6.9-.60048 1.5.60048 1.5 3.30264.3 5.40432-2.7 8.70697-2.4 10.20817 0 1.80144 3.6 1.20096 6-1.20096 6.9-3.60289 1.2-7.20577 2.1-10.80865 3-1.20096 0-1.5012 1.8-.90072 5.4 7.506-2.4 12.91033-3.3 15.91273-2.1.90072-7.5 1.20096-15.9.60048-24.6zm-1.20096 38.1c-.30024-2.4 0-4.8.90072-6.9-3.90312 1.8-8.10649 2.7-13.21057 3 .90072 1.8.90072 3 .30024 4.2-1.80144 1.8-2.40192 3.3-1.80144 4.2 4.5036-.9 9.30744-2.4 13.81105-4.5zm46.53723-9.3h6.90552c.30024-2.1-.30024-3.9-1.5012-5.4zm-81.66534 38.7c1.80145-3.6 4.20337-4.2 7.50601-2.1 2.40192 2.1 3.30264 5.7 1.80144 10.2-1.20096 3.9-3.0024 4.8-5.40432 3.3-2.70216-.9-4.20337-3.6-4.20337-8.4zm98.17855-5.4c-2.10168-6.9-1.80144-11.1 1.20096-12.3 4.20336-2.1 8.70696 1.5 13.81105 10.2 3.90312 8.1 3.60288 14.1-1.20096 17.7-6.00481 4.2-9.90793 2.4-11.40913-6.3z" fill="#ffdb00"/></svg>