<svg height="400" width="600" xmlns="http://www.w3.org/2000/svg" xmlns:xlink="http://www.w3.org/1999/xlink"><path d="m0 0h600v200h-600z" fill="#da121a"/><path d="m0 200h600v200h-600z" fill="#fff"/><g transform="matrix(.49337663 0 0 .49337663 -.247667 -.184165)"><g fill-rule="evenodd" stroke="#000" transform="matrix(.43756 0 0 .43756 447.05 175.719)"><path d="m39.793 67.481h658.6v621.31c-13.79 159.03-155.09 293.61-327.6 295.11-173 1.5-319.54-131.72-327.98-288.8l-3.014-627.62z" fill="#fff" stroke-width="10"/><path id="a" d="m151.84 120.28c-25.16.48-45.43 21.15-45.43 46.53 0 25.68 20.73 46.53 46.31 46.53s46.34-20.85 46.34-46.53-20.76-46.53-46.34-46.53zm-.75 18.53c.31-.01.63 0 .94 0 15.75 0 28.5 12.7 28.5 28.35s-12.75 28.34-28.5 28.34c-15.74 0-28.53-12.69-28.53-28.34 0-15.35 12.27-27.86 27.59-28.35z" fill="#da121a" fill-rule="nonzero" stroke="#000" stroke-width="5"/><path d="m151.94 213.85h432.03v493.97h-95.03v-227.4h-73.83v345.35h-94.22v-345.35h-73.43v227.11h-95.52z" fill="#da121a" stroke-width="5"/></g><use height="831.25" transform="matrix(.43756 0 0 .43756 541.56 175.719)" width="1237.5" xlink:href="#a"/><use height="831.25" transform="matrix(.43756 0 0 .43756 636.08 175.719)" width="1237.5" xlink:href="#a"/><g fill="none" stroke="#000" stroke-width="13" transform="matrix(.43756 0 0 .43756 447.05 175.719)"><path d="m152 334.51h431"/><path d="m152 368.51h431"/><path d="m153.97 540.51h92.78"/><path d="m153.97 574.15h92.78"/><path d="m489.97 540.51h92.78"/><path d="m489.97 574.15h92.78"/><path d="m322.48 628.24h92.77"/><path d="m322.48 661.89h92.77"/><path d="m152.48 678.24h92.77"/><path d="m491.07 678.24h92.78"/><path d="m322.48 796.38h92.77"/></g><g id="b" transform="matrix(.43756 0 0 .43756 447.05 175.719)"><g id="c"><path d="m149.5 709.35999h14.497v53.466h-14.497z"/><path d="m156.65 709.75c-.09 2.22.53 7.5.85 10.61.33 3.1-1.06 5.35-1.25 8.25-.18 2.65.4 5.32 1.17 8.24.78 2.98.39 5.51-.73 8.76-1.15 3.3-1.91 6.5-1.25 9.8.67 3.33 1.68 5.44 1.56 7.39" fill="none" stroke="#fff" stroke-width="3"/></g><use height="831.25" transform="translate(22)" width="1237.5" xlink:href="#c"/><use height="831.25" transform="translate(42.945)" width="1237.5" xlink:href="#c"/><use height="831.25" transform="translate(64.352)" width="1237.5" xlink:href="#c"/><use height="831.25" transform="translate(86)" width="1237.5" xlink:href="#c"/></g><use height="831.25" transform="matrix(.98515 0 0 1 81.553097 51.658)" width="1237.5" xlink:href="#b"/><use height="831.25" transform="matrix(.99505 0 0 1 149.9907 .048285)" width="1237.5" xlink:href="#b"/></g></svg>