<svg enable-background="new 0 0 750 500" height="500" viewBox="0 0 750 500" width="750" xmlns="http://www.w3.org/2000/svg"><path d="m0 0h750v500h-750z" fill="#0d48af"/><path d="m0 500h750l-375-365z" fill="#fff"/><path d="m0 500h750l-375-170z" fill="#256f20"/><g fill="#f5dc16"><path d="m302.9 115.2 4.6 5-5.5 3.9 2.1 6.4-6.7 1.3-.6 6.8-6.6-1.5-3.3 5.9-5.5-4.1-5.4 4.1-3.3-6-6.7 1.5-.5-6.8-6.7-1.3 2.2-6.4-5.6-4 4.7-5-3.5-5.8 6.3-2.7-.8-6.7 6.8.1 2-6.5 6.2 2.9 4.5-5.1 4.4 5.1 6.2-2.8 2 6.5 6.8-.1-.8 6.8 6.2 2.7z"/><path d="m220.9 168.2 4.6 5-5.5 3.9 2.1 6.4-6.7 1.3-.6 6.8-6.6-1.5-3.3 5.9-5.5-4.1-5.4 4.1-3.3-6-6.7 1.5-.5-6.8-6.7-1.3 2.2-6.4-5.6-4 4.7-5-3.5-5.8 6.3-2.7-.8-6.7 6.8.1 2-6.5 6.2 2.9 4.5-5.1 4.4 5.1 6.2-2.8 2 6.5 6.8-.1-.8 6.8 6.2 2.7z"/><path d="m150.9 234.2 4.6 5-5.5 3.9 2.1 6.4-6.7 1.3-.6 6.8-6.6-1.5-3.3 5.9-5.5-4.1-5.4 4.1-3.3-6-6.7 1.5-.5-6.8-6.7-1.3 2.2-6.4-5.6-4 4.7-5-3.5-5.8 6.3-2.7-.8-6.7 6.8.1 2-6.5 6.2 2.9 4.5-5.1 4.4 5.1 6.2-2.8 2 6.5 6.8-.1-.8 6.8 6.2 2.7z"/><path d="m98.9 320.2 4.6 5-5.5 3.9 2.1 6.4-6.7 1.3-.6 6.8-6.6-1.5-3.3 5.9-5.5-4.1-5.4 4.1-3.3-6-6.7 1.5-.5-6.8-6.7-1.3 2.2-6.4-5.6-4 4.7-5-3.5-5.8 6.3-2.7-.8-6.7 6.8.1 2-6.5 6.2 2.9 4.5-5.1 4.4 5.1 6.2-2.8 2 6.5 6.8-.1-.8 6.8 6.2 2.7z"/><path d="m447.1 115.2-4.7 5 5.6 3.9-2.2 6.4 6.7 1.3.7 6.8 6.6-1.5 3.3 5.9 5.5-4.1 5.4 4.1 3.3-6 6.6 1.5.6-6.8 6.7-1.3-2.2-6.4 5.5-4-4.6-5 3.5-5.8-6.3-2.7.8-6.7-6.8.1-2.1-6.5-6.1 2.9-4.5-5.1-4.5 5.1-6.2-2.8-1.9 6.5-6.8-.1.8 6.8-6.3 2.7z"/><path d="m529.1 168.2-4.7 5 5.6 3.9-2.2 6.4 6.7 1.3.7 6.8 6.6-1.5 3.3 5.9 5.5-4.1 5.4 4.1 3.3-6 6.6 1.5.6-6.8 6.7-1.3-2.2-6.4 5.5-4-4.6-5 3.5-5.8-6.3-2.7.8-6.7-6.8.1-2.1-6.5-6.1 2.9-4.5-5.1-4.5 5.1-6.2-2.8-1.9 6.5-6.8-.1.8 6.8-6.3 2.7z"/><path d="m599.1 234.2-4.7 5 5.6 3.9-2.2 6.4 6.7 1.3.7 6.8 6.6-1.5 3.3 5.9 5.5-4.1 5.4 4.1 3.3-6 6.6 1.5.6-6.8 6.7-1.3-2.2-6.4 5.5-4-4.6-5 3.5-5.8-6.3-2.7.8-6.7-6.8.1-2.1-6.5-6.1 2.9-4.5-5.1-4.5 5.1-6.2-2.8-1.9 6.5-6.8-.1.8 6.8-6.3 2.7z"/><path d="m651.1 320.2-4.7 5 5.6 3.9-2.2 6.4 6.7 1.3.7 6.8 6.6-1.5 3.3 5.9 5.5-4.1 5.4 4.1 3.3-6 6.6 1.5.6-6.8 6.7-1.3-2.2-6.4 5.5-4-4.6-5 3.5-5.8-6.3-2.7.8-6.7-6.8.1-2.1-6.5-6.1 2.9-4.5-5.1-4.5 5.1-6.2-2.8-1.9 6.5-6.8-.1.8 6.8-6.3 2.7z"/><path d="m396.9 90.2 4.6 5-5.5 3.9 2.1 6.4-6.7 1.3-.6 6.8-6.6-1.5-3.3 5.9-5.5-4.1-5.4 4.1-3.3-6-6.7 1.5-.5-6.8-6.7-1.3 2.2-6.4-5.6-4 4.7-5-3.5-5.8 6.3-2.7-.8-6.7 6.8.1 2-6.5 6.2 2.9 4.5-5.1 4.4 5.1 6.2-2.8 2 6.5 6.8-.1-.8 6.8 6.2 2.7z"/></g></svg>