<svg height="600" viewBox="-2362 0 9999.1322 6667.4921" width="900" xmlns="http://www.w3.org/2000/svg"><g transform="matrix(2.1171122 0 0 2.1166642 2637.566 0)"><path d="m-2362 0h4724v3150h-4724z" fill="#db6131"/><ellipse cy="1181" fill="#db6131" rx="866" ry="866"/><ellipse cy="1181" fill="#fff" rx="807" ry="807"/><ellipse cy="1181" fill="#db6131" rx="768" ry="768"/><g fill="#285d9e"><path d="m-266 896h531v67h-531z"/><path d="m-295 1074h591v67h-591z"/><path d="m-33 933h67v301h-67z"/><path d="m0 374c68 0 134 9 197 25v40c-63-16-129-25-197-25s-134 9-197 25v-40c63-16 129-25 197-25z" stroke="#005fa0" stroke-width="3"/><path d="m0 1206c140 0 253 78 253 175 0 25-8 49-22 71 0-3 1-7 1-11 0-96-104-175-232-175s-232 79-232 175c0 4 1 8 1 11-14-22-22-46-22-71 0-97 113-175 253-175z"/><path d="m72 318c-3 68-11 308 34 559h69c-39-238-41-494-41-552-21-3-41-5-62-7zm40 592c28 139 74 280 146 394 111 175 206 90 275-46-89 53-172 67-225 0-61-75-101-207-127-348z"/><path d="m-72 318c3 68 11 308-34 559h-69c39-238 41-494 41-552 21-3 41-5 62-7zm-40 592c-28 139-74 280-146 394-111 175-206 90-275-46 89 53 172 67 225 0 61-75 101-207 127-348z"/></g><path d="m-24 1949c-412-13-744-353-744-768 0-50 5-100 15-148 414 74 730 438 730 873 0 14 0 28-1 43z" fill="#fff" stroke="#fff" stroke-width="3"/><path d="m-62 1946c-394-31-706-363-706-765 0-37 3-74 8-110 397 71 699 419 699 835 0 14 0 27-1 40z" fill="#206d39"/><path d="m753 1033c10 48 15 98 15 148 0 415-332 755-744 768-1-15-1-29-1-43 0-435 316-799 730-873z" fill="#fff" stroke="#fff" stroke-width="3"/><path d="m760 1071c5 36 8 73 8 110 0 402-312 734-706 765-1-13-1-26-1-40 0-416 302-764 699-835z" fill="#206d39"/><g fill="#fff"><path d="m-33 2659c-23 32-56 62-101 92-44 30-87 50-129 61l-40-79c82-16 143-43 184-83h-162v-69h248v-44h-222v-190h149v-47h-181v-74h593v74h-183v47h153v190h-221v44h246v69h-164c40 40 103 67 188 83l-37 79c-98-26-176-77-233-154v176h-88zm225-246h-69v59h69zm-299 59v-59h-65v59zm82-59v59h65v-59zm0-113v47h65v-47z" stroke="#fff" stroke-width="63"/><path d="m1203 2452h56v-30h-56zm0-80h56v-28h-56zm56-102h-56v26h56zm-151 484c0 2-1 8-2 11-5 19-10 32-14 41l-76-33c27-49 43-102 48-158l70 11c-6 46-14 89-26 128zm216-33-45 16c-7-41-17-77-30-108l58-12c11 23 21 49 31 79 12-28 19-51 22-69l66 17c-17 80-38 137-64 171l-73-38c17-16 29-35 35-56zm5-208h-194v-307h194zm119 210v-116c-28 4-61 6-99 6l-10-79 25 1c16-12 36-28 58-49 23-22 34-34 34-35-32 4-67 7-105 8l-13-75 33 1c27-26 45-52 55-79-16 2-41 4-75 6l-20-82c5 1 12 1 20 1 111 0 202-9 271-26l29 67c-49 12-91 19-129 22-15 32-37 62-67 93 10 0 30-2 61-5 14-16 29-37 42-64l78 35c-25 37-56 74-93 112-38 38-65 61-81 70 43-2 77-4 103-8-6-15-12-30-20-46l61-15c23 44 41 90 54 139l-62 19c21 36 43 89 64 157l-75 28c-12-61-30-119-55-173l59-16-7-27c-19 4-40 7-61 8v122 112h-75zm-287 0v-119h-127v-357h78v289h219v68h-89v119 112h-81z" stroke="#fff" stroke-width="63"/><path d="m1297 2277h119v262h-119z"/><path d="m-1646 2263h615v78h-615z" stroke="#fff" stroke-width="87"/><path d="m-1517 2798v37h-91v-421h539v421h-91v-37zm11-593h91v59h1v77h-1v56h-91v-56h-140v-77h140zm335 59h139v77h-139v56h-92v-56h-1v-77h1v-59h92zm-212 458v-83h-134v83zm223 0v-83h-134v83zm0-157v-75h-134v75zm-223 0v-75h-134v75z" stroke="#fff" stroke-width="63"/><path d="m-1552 2457h432v294h-432z" stroke="#1f1a17" stroke-width="3"/></g><g fill="#29166f"><path d="m1203 2452h56v-30h-56zm0-80h56v-28h-56zm56-102h-56v26h56zm-151 484c0 2-1 8-2 11-5 19-10 32-14 41l-76-33c27-49 43-102 48-158l70 11c-6 46-14 89-26 128zm216-33-45 16c-7-41-17-77-30-108l58-12c11 23 21 49 31 79 12-28 19-51 22-69l66 17c-17 80-38 137-64 171l-73-38c17-16 29-35 35-56zm5-208h-194v-307h194zm119 210v-116c-28 4-61 6-99 6l-10-79 25 1c16-12 36-28 58-49 23-22 34-34 34-35-32 4-67 7-105 8l-13-75 33 1c27-26 45-52 55-79-16 2-41 4-75 6l-20-82c5 1 12 1 20 1 111 0 202-9 271-26l29 67c-49 12-91 19-129 22-15 32-37 62-67 93 10 0 30-2 61-5 14-16 29-37 42-64l78 35c-25 37-56 74-93 112-38 38-65 61-81 70 43-2 77-4 103-8-6-15-12-30-20-46l61-15c23 44 41 90 54 139l-62 19c21 36 43 89 64 157l-75 28c-12-61-30-119-55-173l59-16-7-27c-19 4-40 7-61 8v122 112h-75zm-287 0v-119h-127v-357h78v289h219v68h-89v119 112h-81z"/><path d="m-33 2659c-23 32-56 62-101 92-44 30-87 50-129 61l-40-79c82-16 143-43 184-83h-162v-69h248v-44h-222v-190h149v-47h-181v-74h593v74h-183v47h153v190h-221v44h246v69h-164c40 40 103 67 188 83l-37 79c-98-26-176-77-233-154v176h-88zm225-246h-69v59h69zm-299 59v-59h-65v59zm82-59v59h65v-59zm0-113v47h65v-47z"/><path d="m-1646 2263h615v78h-615z"/><path d="m-1517 2798v37h-91v-421h539v421h-91v-37zm11-593h91v59h1v77h-1v56h-91v-56h-140v-77h140zm335 59h139v77h-139v56h-92v-56h-1v-77h1v-59h92zm-212 458v-83h-134v83zm223 0v-83h-134v83zm0-157v-75h-134v75zm-223 0v-75h-134v75z"/></g></g></svg>