<svg height="500" width="750" xmlns="http://www.w3.org/2000/svg"><g fill-rule="evenodd"><path d="m-.000003 0h750v500h-750z" fill="#db101e"/><g fill="#fff"><path d="m88.503 236.01-13.191 18.73 13.191 18.74-22.821-2.06-9.63 20.8-9.63-20.8-22.821 2.06 13.191-18.74-13.191-18.73 22.821 2.05 9.63-20.79 9.63 20.79z" transform="matrix(.81109121 0 0 .81109121 85.265418 180.831026)"/><path d="m282.82 236.01-13.19 18.73 13.19 18.74-22.82-2.06-9.63 20.8-9.63-20.8-22.82 2.06 13.19-18.74-13.19-18.73 22.82 2.05 9.63-20.79 9.63 20.79z" transform="matrix(.81109121 0 0 .81109121 -72.344207 43.378591)"/><path d="m425.45 254.74-13.19-18.73 22.82 2.05 9.63-20.79 9.63 20.79 22.82-2.05-13.19 18.73 13.19 18.74-22.82-2.06-9.63 20.8-9.63-20.8-22.82 2.06z" transform="matrix(.81109121 0 0 .81109121 -229.971678 -94.07387)"/></g><g transform="matrix(.88458754 0 0 .88458754 -60.26786 -80.420363)"><path d="m302.96875 124c-.10753.0103-.2197.0264-.3125.0625-6.01208 7.66977-11.31234 15.33048-15.34375 23l-1.875.8125.40625-3.53125c-34.88917.57713-44.06058 20.69042-52.96875 25.96875-1.15453 4.70132-1.05922 8.17413 1.25 9.90625l4.6875-6.6875.5 2.46875-4.4375 6.9375c1.30572 6.34036 4.70905 11.80996 9.6875 15.09375l1.6875-5.6875c5.88019-8.64819 16.12648-5.9272 20.28125 2.9375 5.65043 12.05696-2.41597 22.58396-19.15625 11.46875l-2.59375 5.375c-1.64949 8.08285 2.30718 11.56045 11.875 10.40625l16.8125 5.4375 1-8.40625 12.84375 6.9375v-8.90625l11.40625 5.4375-2.96875-14.84375 7.40625 1.46875-5.9375-13.34375 4.46875-2c-6.59812-6.9284-11.81858-9.89909-11.40625-21.28125l2.25-1.96875c-2.88706 10.72226 11.27603 19.20793 15.8125 29.1875l-7.15625-1.71875 4.9375 14.84375-6.6875-1.96875 1.75 15.09375-10.90625-4.96875-.46875 10.90625c-3.29898-3.79444-7.59592-6.43218-12.875-8.90625l-1.96875 8.40625c-2.22708-.5776-4.70806-2.63133-6.6875-2.21875-1.93796 8.99014-3.76895 17.29757-7.6875 24.96875-1.49507 2.81387-3.79179 6.14496-5.3125 7.90625 2.09789 4.51457 5.03766 4.79403 6.8125 7.4375-1.158 3.30155-6.4375 8.4375-6.4375 8.4375l6.9375 9.125-4.25 7.84375 9.1875 8.25-3.96875 6.9375 9.40625 4.6875c2.67353-.13214 3.72791-.48374 3.46875-2.96875-2.16466-12.55788-.8043-23.14867 2.96875-32.40625l1 1c-7.67076 22.84711 5.43299 57.0798 1.96875 112.34375-12.26809-5.27916-23.36619-4.31066-33.65625.96875 1.64974 2.47448 6.77447 3.48663 10.15625 5.21875-3.62868.8245-7.18639 2.69134-10.15625 6.15625l7.6875 3.96875c-3.62893 1.97927-6.84711 4.13761-9.15625 7.4375l8.40625 2.46875c-3.13396 1.81401-5.62283 4.61165-7.4375 8.40625 13.85697-3.71156 34.66381.0157 53.46875-1.46875 3.87657-.49499 17.65297-5.20679 15.34375-28.21875l.46875-30.6875 6.4375.5c-2.22708-5.3613-1.97874-11.23505-2.96875-16.84375l5.4375-.46875-1.46875-17.8125 4.4375.46875c-2.6953-11.20083 8.03446-32.0066 8.15625-38.5625.0883-4.74148-2.63929-7.34619-5.15625-13.375l.96875-1c1.86071 4.94607 4.96517 7.40216 7 13.15625 1.81285 5.12566-4.897 15.77319-5 20 28.95011-3.13446 45.00792-19.87876 60.84375-27.21875v11.125c12.61915-9.56807 36.89288-11.21194 38.625-17.5625-5.52648-1.07256-11.96764-1.24806-18.8125-1 6.76289-1.8973 12.54474-2.28306 18.8125-3.4375-1.64949-12.86672-4.61784-21.8012-8.90625-26.75 17.17466 11.74647 6.3221 37.38185 18.375 68.4375 14.96811 38.56703 40.49876 29.00748 43.71875 78.3125-7.83578-.49499-23.58575-9.15729-32.90625-.25l8.40625 3.46875c-2.63942 2.47448-6.25684 4.43705-7.90625 7.40625 3.13421.82474 7.26196.40664 9.40625 2.46875-3.29948 2.63925-6.85467 4.55572-9.90625 7.9375 3.95871 0 7.57536.98931 10.875 2.96875-3.95921 2.63925-6.92648 5.60677-8.90625 8.90625 10.72226 1.40209 29.38087.33477 44.0625.5 7.7529-.41237 16.06898-6.11597 16.8125-22.28125l1.96875-45.03125c3.2166-6.43336-14.59546-8.91639-20.78125-40.09375l5.4375-.5c-3.13446-5.60886-3.28809-12.17743-4.9375-18.28125l4.71875-.25-4.71875-18.5625 4.9375-1c-4.60246-20.39714-13.01892-32.58615-22.25-43.0625 5.0311-6.02103 11.04235-2.87966 23.25-11.375l-3.96875-1.96875c6.76364-5.27916 11.23055-10.90552 13.375-16.84375h-3.96875c3.21635-9.8562 3.23232-19.15109-1.46875-27.6875l-3.46875 6.40625c-2.14495-4.45442-5.28294-7.2523-9.40625-8.40625.41213 3.62893.56689 7.75548-1 12.375-2.47448-3.62893-4.93177-5.60772-7.40625-5.9375 4.09855 38.48092-30.06708 36.18044-46.03125 32-17.11091-4.48141-40.84227 1.30983-73.25 3.125l1.25-2.96875c-15.05339 4.45326-26.42139 2.16541-34.875-3.9375l3.4375-2.96875c-2.1442-5.1139-4.60232-9.92216-7.40625-14.375l4.9375-.46875c-2.22684-5.27891-4.93177-10.56542-7.40625-15.84375l2.96875-.5c-3.17503-9.65086-9.5492-18.3885-17.34375-26.71875-2.63942 3.71156-2.05093 6.91067-4.9375 10.375l-1.96875-.96875c6.2137-6.66055 1.10533-21.73574 2.46875-35.625-2.31959-1.08237-5.51198-3.68545-7.125-3.53125zm-20.125.625-10.875 18.21875c5.77272-.82427 11.56946-.9626 17.34375-.46875l.21875-17.03125zm18.34375 12.28125c-4.61889 13.77393-10.23953 11.72221-4.21875 16.09375l-.96875 1.5c-8.66069-2.14445 2.4657-13.22246 5.1875-17.59375zm-42.8125 18.5625 1.96875.5.25 4.21875h12.625c-2.30972 3.79378-6.113 4.61161-6.9375 11.375l-.96875-3.71875c-5.70491-3.29782-6.53264-7.75399-6.9375-12.375zm-31.21875 36.21875c-1.86283-.10958-9.03005 5.54921-6.625 13.8125s11.93097 12.15466 19.9375 4.09375 26.28125-4.09375 26.28125-4.09375l.78125-2.21875c-10.18491-11.02447-29.66445-.82604-33.3125-1.5625-9.1102-1.83984-7.0625-10.03125-7.0625-10.03125zm27.34375 74.5625-30.53125 7.25c-36.33978 9.94976-24.12184 30.94308-25.71875 39.59375 2.64977 10.75373-3.13434 25.06724 9.90625 38.09375 1.14416-3.31438.974-8.55484 1.46875-12.84375 2.80435 4.1243-.40505 4.84135 8.40625 12.375 1.13923-3.79129.33524-7.27732.5-10.90625 3.79403 2.64496 4.17179 7.3981 11.375 8.90625-.6574-3.29674-1.4613-6.43465-1.46875-9.40625 3.56956.786 5.02553 5.81186 10.21875 4.8125-4.57977-16.45184-2.17006-30.318-6.75-40.4375 9.95142 1.87619 19.56694 5.37199 29.84375 5.625l2.78125-5.40625s-6.74069-5.72137-10.375-8.46875c2.30922-3.02302 5.875-8.0625 5.875-8.0625s-4.72276-4.10291-6.875-8.96875c1.22441-2.80186 5.875-8 5.875-8zm180 21.71875c-9.53743 1.25778-18.60905 3.92513-27.28125 7.78125-6.43973 1.29909-11.72938 18.52271-12 22.90625l5.84375-.65625c-1.02826 6.98148-4.82562 12.33319-3.09375 20.9375 1.73162-.43303 3.45588-1.66006 5.1875-1.28125 1.35291 17.534 12.46494 24.34594 12.84375 40.90625-1.78586 4.87097.46975 14.13799-5.375 14.625-9.36273 1.13639-19.53414-5.53577-32.46875 2.90625 1.40706 1.94831 6.07384 1.79558 7.15625 3.90625-1.56942 2.16466-5.08683 2.36132-6.65625 5.5 1.46129 2.5437 5.0212.53865 7.78125 4.21875-4.43769 1.78511-6.49472 4.19158-7.46875 6.84375 2.16432 2.381 5.63645.7063 8.9375 3.25-4.49093 2.27287-7.47604 4.53418-8.9375 7.78125 2.37794.66585 11.47371-.81679 21.1875.375 6.42591.78863 14.03436-.64374 20.21875-.375 2.26037-.86606 15.38134-2.91153 18.34375-15.25l9.75-34.75c6.65659-12.71768-7.15633-11.62961-.5-42.53125-10.4723-15.46407-14.25383-31.19665-13.46875-47.09375z" fill="#ffce07" transform="matrix(1.2077675 0 0 1.2077675 52.739234 51.056517)"/><path d="m418.29913 200.90445c5.95188-7.2413 12.31174-14.6809 18.56083-21.32733 4.3648-.29767 8.72915 1.48817 13.09442 2.38089 1.78565 3.27356.22058 7.18585-.96985 10.45968-6.0511 8.53163-11.24295 3.52676-21.75762 13.54615l-8.9276-5.05935z"/><path d="m395.42578 197.76445c2.91602-6.77137 6.57062-9.71029 12.4141-15.92538 4.08152-2.92791 8.53479-4.13244 8.53479-4.13244s1.0866 12.20237-.0265 15.26352c-3.41014 4.23064-8.57291 5.3591-13.90902 9.48241l-8.09482-.86665z"/></g></g><g fill="#fff" stroke="#df1111" stroke-width=".373206"><g transform="matrix(2.67948709 0 0 2.67948709 268.601918 -379.442575)"><path d="m135.99135 180.10303c2.10103.68267 4.47027 5.65833 4.47027 5.65833s-4.84138 2.63279-6.94241 1.95013c-2.101-.68266-3.42148-2.41403-2.56815-5.0403.85332-2.62627 2.93928-3.25082 5.04029-2.56816z"/><path d="m134 187.36218c0 2.20915-4 6-4 6s-4-3.79085-4-6c0-2.20913 1.23858-4 4-4s4 1.79087 4 4z"/><path d="m129.70285 175.96596c1.2985-1.78724 6.76278-2.50296 6.76278-2.50296s1.00786 5.418-.29065 7.20524c-1.29849 1.78722-3.35317 2.50805-5.58721.88493-2.23403-1.62313-2.18342-3.79999-.88492-5.58721z"/><path d="m123.82501 180.66825c-1.29851-1.78724-.29065-7.20525-.29065-7.20525s5.46428.71573 6.76278 2.50297c1.2985 1.78722 1.34911 3.96408-.88493 5.5872-2.23403 1.62313-4.28871.9023-5.5872-.88492z"/><path d="m126.4808 187.7115c-2.10103.68266-6.94241-1.95013-6.94241-1.95013s2.36924-4.97566 4.47027-5.65833c2.10101-.68266 4.18697-.0581 5.0403 2.56816.85332 2.62627-.46716 4.35764-2.56816 5.0403z"/><path d="m134.24894 175.60655c0 2.10942-4.24894 5.34937-4.24894 5.34937s-4.24896-3.23995-4.24896-5.34937c0-2.10941 1.06224-3.24438 4.24896-3.24438 3.18671 0 4.24894 1.13497 4.24894 3.24438z"/><path d="m124.88801 176.2336c2.00617.65184 3.77456 5.69403 3.77456 5.69403s-4.39438 3.0398-6.40056 2.38795c-2.00617-.65184-2.75734-2.01282-1.77259-5.04357.98475-3.03074 2.39242-3.69026 4.39859-3.03841z"/><path d="m122.59168 185.33014c1.23988-1.70656 6.58174-1.83027 6.58174-1.83027s1.53309 5.11865.2932 6.82521c-1.23988 1.70655-2.76637 2.00039-5.34448.12728-2.5781-1.8731-2.77034-3.41567-1.53046-5.12222z"/><path d="m130.5334 190.32507c-1.23989-1.70656.29318-6.8252.29318-6.8252s5.34187.1237 6.58176 1.83026c1.23988 1.70654 1.04763 3.24912-1.53048 5.12223-2.5781 1.8731-4.10458 1.57925-5.34446-.12729z"/><path d="m137.73798 184.31556c-2.00618.65185-6.40055-2.38794-6.40055-2.38794s1.76838-5.0422 3.77456-5.69404c2.00616-.65185 3.41384.008 4.39859 3.03843.98474 3.03074.23357 4.39171-1.7726 5.04355z"/><path d="m133.63066 182.36218c0 2.00516-1.62551 3.63066-3.63066 3.63066s-3.63066-1.6255-3.63066-3.63066 1.62551-3.63066 3.63066-3.63066 3.63066 1.6255 3.63066 3.63066z"/></g><g transform="matrix(2.67948709 0 0 2.67948709 268.601918 -286.465431)"><path d="m135.99135 180.10303c2.10103.68267 4.47027 5.65833 4.47027 5.65833s-4.84138 2.63279-6.94241 1.95013c-2.101-.68266-3.42148-2.41403-2.56815-5.0403.85332-2.62627 2.93928-3.25082 5.04029-2.56816z"/><path d="m134 187.36218c0 2.20915-4 6-4 6s-4-3.79085-4-6c0-2.20913 1.23858-4 4-4s4 1.79087 4 4z"/><path d="m129.70285 175.96596c1.2985-1.78724 6.76278-2.50296 6.76278-2.50296s1.00786 5.418-.29065 7.20524c-1.29849 1.78722-3.35317 2.50805-5.58721.88493-2.23403-1.62313-2.18342-3.79999-.88492-5.58721z"/><path d="m123.82501 180.66825c-1.29851-1.78724-.29065-7.20525-.29065-7.20525s5.46428.71573 6.76278 2.50297c1.2985 1.78722 1.34911 3.96408-.88493 5.5872-2.23403 1.62313-4.28871.9023-5.5872-.88492z"/><path d="m126.4808 187.7115c-2.10103.68266-6.94241-1.95013-6.94241-1.95013s2.36924-4.97566 4.47027-5.65833c2.10101-.68266 4.18697-.0581 5.0403 2.56816.85332 2.62627-.46716 4.35764-2.56816 5.0403z"/><path d="m134.24894 175.60655c0 2.10942-4.24894 5.34937-4.24894 5.34937s-4.24896-3.23995-4.24896-5.34937c0-2.10941 1.06224-3.24438 4.24896-3.24438 3.18671 0 4.24894 1.13497 4.24894 3.24438z"/><path d="m124.88801 176.2336c2.00617.65184 3.77456 5.69403 3.77456 5.69403s-4.39438 3.0398-6.40056 2.38795c-2.00617-.65184-2.75734-2.01282-1.77259-5.04357.98475-3.03074 2.39242-3.69026 4.39859-3.03841z"/><path d="m122.59168 185.33014c1.23988-1.70656 6.58174-1.83027 6.58174-1.83027s1.53309 5.11865.2932 6.82521c-1.23988 1.70655-2.76637 2.00039-5.34448.12728-2.5781-1.8731-2.77034-3.41567-1.53046-5.12222z"/><path d="m130.5334 190.32507c-1.23989-1.70656.29318-6.8252.29318-6.8252s5.34187.1237 6.58176 1.83026c1.23988 1.70654 1.04763 3.24912-1.53048 5.12223-2.5781 1.8731-4.10458 1.57925-5.34446-.12729z"/><path d="m137.73798 184.31556c-2.00618.65185-6.40055-2.38794-6.40055-2.38794s1.76838-5.0422 3.77456-5.69404c2.00616-.65185 3.41384.008 4.39859 3.03843.98474 3.03074.23357 4.39171-1.7726 5.04355z"/><path d="m133.63066 182.36218c0 2.00516-1.62551 3.63066-3.63066 3.63066s-3.63066-1.6255-3.63066-3.63066 1.62551-3.63066 3.63066-3.63066 3.63066 1.6255 3.63066 3.63066z"/></g><g transform="matrix(2.67948709 0 0 2.67948709 268.601918 -193.488269)"><path d="m135.99135 180.10303c2.10103.68267 4.47027 5.65833 4.47027 5.65833s-4.84138 2.63279-6.94241 1.95013c-2.101-.68266-3.42148-2.41403-2.56815-5.0403.85332-2.62627 2.93928-3.25082 5.04029-2.56816z"/><path d="m134 187.36218c0 2.20915-4 6-4 6s-4-3.79085-4-6c0-2.20913 1.23858-4 4-4s4 1.79087 4 4z"/><path d="m129.70285 175.96596c1.2985-1.78724 6.76278-2.50296 6.76278-2.50296s1.00786 5.418-.29065 7.20524c-1.29849 1.78722-3.35317 2.50805-5.58721.88493-2.23403-1.62313-2.18342-3.79999-.88492-5.58721z"/><path d="m123.82501 180.66825c-1.29851-1.78724-.29065-7.20525-.29065-7.20525s5.46428.71573 6.76278 2.50297c1.2985 1.78722 1.34911 3.96408-.88493 5.5872-2.23403 1.62313-4.28871.9023-5.5872-.88492z"/><path d="m126.4808 187.7115c-2.10103.68266-6.94241-1.95013-6.94241-1.95013s2.36924-4.97566 4.47027-5.65833c2.10101-.68266 4.18697-.0581 5.0403 2.56816.85332 2.62627-.46716 4.35764-2.56816 5.0403z"/><path d="m134.24894 175.60655c0 2.10942-4.24894 5.34937-4.24894 5.34937s-4.24896-3.23995-4.24896-5.34937c0-2.10941 1.06224-3.24438 4.24896-3.24438 3.18671 0 4.24894 1.13497 4.24894 3.24438z"/><path d="m124.88801 176.2336c2.00617.65184 3.77456 5.69403 3.77456 5.69403s-4.39438 3.0398-6.40056 2.38795c-2.00617-.65184-2.75734-2.01282-1.77259-5.04357.98475-3.03074 2.39242-3.69026 4.39859-3.03841z"/><path d="m122.59168 185.33014c1.23988-1.70656 6.58174-1.83027 6.58174-1.83027s1.53309 5.11865.2932 6.82521c-1.23988 1.70655-2.76637 2.00039-5.34448.12728-2.5781-1.8731-2.77034-3.41567-1.53046-5.12222z"/><path d="m130.5334 190.32507c-1.23989-1.70656.29318-6.8252.29318-6.8252s5.34187.1237 6.58176 1.83026c1.23988 1.70654 1.04763 3.24912-1.53048 5.12223-2.5781 1.8731-4.10458 1.57925-5.34446-.12729z"/><path d="m137.73798 184.31556c-2.00618.65185-6.40055-2.38794-6.40055-2.38794s1.76838-5.0422 3.77456-5.69404c2.00616-.65185 3.41384.008 4.39859 3.03843.98474 3.03074.23357 4.39171-1.7726 5.04355z"/><path d="m133.63066 182.36218c0 2.00516-1.62551 3.63066-3.63066 3.63066s-3.63066-1.6255-3.63066-3.63066 1.62551-3.63066 3.63066-3.63066 3.63066 1.6255 3.63066 3.63066z"/></g><g transform="matrix(2.67948709 0 0 2.67948709 268.601918 -100.51109)"><path d="m135.99135 180.10303c2.10103.68267 4.47027 5.65833 4.47027 5.65833s-4.84138 2.63279-6.94241 1.95013c-2.101-.68266-3.42148-2.41403-2.56815-5.0403.85332-2.62627 2.93928-3.25082 5.04029-2.56816z"/><path d="m134 187.36218c0 2.20915-4 6-4 6s-4-3.79085-4-6c0-2.20913 1.23858-4 4-4s4 1.79087 4 4z"/><path d="m129.70285 175.96596c1.2985-1.78724 6.76278-2.50296 6.76278-2.50296s1.00786 5.418-.29065 7.20524c-1.29849 1.78722-3.35317 2.50805-5.58721.88493-2.23403-1.62313-2.18342-3.79999-.88492-5.58721z"/><path d="m123.82501 180.66825c-1.29851-1.78724-.29065-7.20525-.29065-7.20525s5.46428.71573 6.76278 2.50297c1.2985 1.78722 1.34911 3.96408-.88493 5.5872-2.23403 1.62313-4.28871.9023-5.5872-.88492z"/><path d="m126.4808 187.7115c-2.10103.68266-6.94241-1.95013-6.94241-1.95013s2.36924-4.97566 4.47027-5.65833c2.10101-.68266 4.18697-.0581 5.0403 2.56816.85332 2.62627-.46716 4.35764-2.56816 5.0403z"/><path d="m134.24894 175.60655c0 2.10942-4.24894 5.34937-4.24894 5.34937s-4.24896-3.23995-4.24896-5.34937c0-2.10941 1.06224-3.24438 4.24896-3.24438 3.18671 0 4.24894 1.13497 4.24894 3.24438z"/><path d="m124.88801 176.2336c2.00617.65184 3.77456 5.69403 3.77456 5.69403s-4.39438 3.0398-6.40056 2.38795c-2.00617-.65184-2.75734-2.01282-1.77259-5.04357.98475-3.03074 2.39242-3.69026 4.39859-3.03841z"/><path d="m122.59168 185.33014c1.23988-1.70656 6.58174-1.83027 6.58174-1.83027s1.53309 5.11865.2932 6.82521c-1.23988 1.70655-2.76637 2.00039-5.34448.12728-2.5781-1.8731-2.77034-3.41567-1.53046-5.12222z"/><path d="m130.5334 190.32507c-1.23989-1.70656.29318-6.8252.29318-6.8252s5.34187.1237 6.58176 1.83026c1.23988 1.70654 1.04763 3.24912-1.53048 5.12223-2.5781 1.8731-4.10458 1.57925-5.34446-.12729z"/><path d="m137.73798 184.31556c-2.00618.65185-6.40055-2.38794-6.40055-2.38794s1.76838-5.0422 3.77456-5.69404c2.00616-.65185 3.41384.008 4.39859 3.03843.98474 3.03074.23357 4.39171-1.7726 5.04355z"/><path d="m133.63066 182.36218c0 2.00516-1.62551 3.63066-3.63066 3.63066s-3.63066-1.6255-3.63066-3.63066 1.62551-3.63066 3.63066-3.63066 3.63066 1.6255 3.63066 3.63066z"/></g></g></svg>