<svg enable-background="new 0 0 1125 750" height="750" viewBox="0 0 1125 750" width="1125" xmlns="http://www.w3.org/2000/svg" xmlns:xlink="http://www.w3.org/1999/xlink"><linearGradient id="a" gradientTransform="matrix(.98413211 0 0 .99221895 298.4565 308.54878)" gradientUnits="userSpaceOnUse" x1="268.3" x2="268.2999" y1="-310.9636" y2="440.9871"><stop offset=".335" stop-color="#1b5634"/><stop offset=".3793" stop-color="#1c573f"/><stop offset=".4737" stop-color="#1e585e"/><stop offset=".6097" stop-color="#1f5993"/><stop offset=".6667" stop-color="#2156a6"/></linearGradient><path d="m-.000018 0h1125v750h-1125z" fill="url(#a)"/><g fill="#fff"><g transform="matrix(1.9049078 0 0 1.8595389 -391.4318 -367.67337)"><path d="m603.028 355.978c-2.226.064-4.359 1.133-6.037 3.227.274.694.948.476 1.46.655 1.277.441 2.252 1.349 2.576 2.655.274 1.097-.783 1.681-1.46 2.201-1.615 1.238-1.631-.954-2.576-1.277-.406-.138-.833-.604-1.198-.555-2.748.368-5.308-.164-7.809-1.294-1.132-.512-6.716 1.22-6.628 2.117.224 2.271-1.675 3.667-2.116 5.882-1.927-3.092-4.726-4.983-7.53-6.974-.68 1.209-.451 2.504-1.575 3.311-.665.479-1.372 1.015-1.46 0-.338-3.916-1.909-.671-2.756-.471-1.462.344-3.901-1.163-4.331 1.008-.382 1.918-3.461 2.48-2.297 4.504 1.727 3.01-.269 2.634-2.116 2.958-1.6.279-2.529-1.06-3.576-1.21-2.271 1.48 1.452 2.658-.098 4.05-1.83 1.642-3.174 4.269-6.431 3.042-1.13-.426-1.575.768-2.116 1.462-.685.885.368 1.071.738 1.563.865 1.147 2.43 1.817 2.756 3.596-1.756.2-3.572-.074-4.872.639-1.789.974-2.903 1.787-3.412-1.008-.179-.994-1.376-1.087-2.018-.739-1.224.662-.052 1.22.377 1.832.721 1.03.402 1.932-.837 2.117-2.065.309-4.32-.217-5.332 2.672-.341.968-3.945-.562-3.215 2.117.559 2.05 2.305-1.736 3.855.353-1.921 2.753-5.452 3.085-8.088 4.874-.456.309-1.832-.063-1.099 1.025 1.562 2.327-.608 2.74-1.755 3.126-2.074.7-1.631 1.363-.919 3.025 1.2 2.798 2.734 4.722 5.988 4.605.024-.003.089.13.18.454-.565.883-2.811.117-2.576 2.117.153 1.306 2.49 1.947 1.017 3.865-4.009-3.657-4.934 2.433-8.006 2.756-.015-1.868.068-3.599-1.476-5.529 2.783.382 4.753.165 5.43-2.286-3.774-2.289-4.987 2.047-7.628 2.756-1.391.377.864 1.634.82 2.84-.05 1.418-.493 1.885-1.837 2.403-2.271.871-3.452 3.065-2.116 5.142 1.088 1.692.294 2.063-.541 3.025-1.497 1.727-2.758 3.521.64 4.689 1.318.45 1.39 1.49.558 2.487-.838 1.006-1.816 1.828-3.314 1.563-3.063-.533-3.558 1.232-3.396 3.764.094 1.474.861 3.371-.377 4.336-3.574 2.789-.405 4.203 1.198 5.042 1.43.75 1.335 1.537 1.476 2.672.262 2.124-1.607 4.648-1.116 5.613 1.406 2.745-.555 3.478-1.64 4.958-1.55 2.109-2.965 4.333-4.233 6.621-1.386 2.507-2.368 5.167-3.412 7.814-.803 2.033-.947 2.697.738 3.764 1.136.724 1.235 1.251.279 2.672-.544.815-2.88 2.38-1.28 3.68 1.945 1.585 4.196 2.45 1.46 5.142-.194.191-.078 1.1.18 1.294 1.877 1.4.946 2.542.098 4.134-.7 1.309-1.122 3.418.098 4.689 1.159 1.203 2.228-.669 3.396-.924.733.795-.013 2.431 1.837 2.672 1.8.238.834 1.343.098 1.832-2.303 1.527-2.239 3.169-1.657 5.882.733 3.401 3.515 4.521 5.233 4.336 2.127-.229 2.953.417 3.215 1.832.415 2.242-2.098.98-2.936 1.748.507 1.765 1.928 1.013 2.936 1.378 1.78.641 4.111 1.273 2.116 4.05-1.018 1.427.24 1.265 1.099 1.647 2.936 1.297 3.041 2.367.558 4.05-.662.45-.779.822-.361 1.378 1.141 1.527 1.542 3.645 3.675 4.319 1.018.324 1.711.887 1.558 2.017-.282 2.083.206 3.558 2.477 4.235.6.18 1.991.949 1.017 2.117-2.071 2.498.429 3.032 1.476 4.403.335-.444.521-.638.541-.823.12-1.121.46-2.458 1.837-2.017 1.665.533.087 1.447-.18 2.117-.591 1.489.619 2.176 1.378 2.941 1.171 1.183 1.443-.423 2.116-.823.544-.321.868-1.39 1.657-.739.338.279.314 1.01.361 1.563.171 1.989-.052 3.588 2.034 5.512 1.742 1.612 4.625 2.31 5.414 4.773 1.168 3.663 4.739 4.06 7.366 5.428 1.862.971 4.629.4 6.529 1.933 1.277 1.027 2.557.959 4.216-.185-.527 3.136.641 4.426 2.953 5.882 4.216 2.656 8.679 4.493 13.239 6.352 4.774 1.947 9.839.523 14.617 1.832.438.121 1.047-.391 1.558-.639 2.336-1.124 6.514-.077 8.088 2.117.494-1.471.945-3.519 2.854-2.672 2.686 1.192 4.985 3.3 8.268 2.941.624-.07.408 1.08.558 1.748.271 1.206-.985 3.085 1.198 3.58 1.777.403 3.37-.201 4.315-1.748 1.073-1.756 4.866-2.613 1.936-5.781-.094-.103.134-.739.361-.924 1.383-1.141 2.164-2.682 2.953-4.235.382-.753.844-1.556 2.1-.538 1.003.815 6.444-.851 6.989-1.849 2.024-3.736 6.145-5.214 8.646-8.638 1.112-1.521 1.193-2.465 1.017-3.865-.076-.606-1.488-.794-.738-1.647.685-.779 1.358-.14 2.116.269 2.233 1.197 4.091.255 4.495-2.201.7-4.304 2.283-8.243 5.069-12.503.479-.733.382-1.083-.197-1.748-2.698-3.089 3.091-1.99 2.215-4.42-.268-.735.603-.723 1.198-.37 2.292 1.35 1.743-.93 1.46-1.462-1.692-3.163-.177-4.587 3.035-5.243-1.186-1.78-3.563-.311-4.134-1.933-.447-1.262.162-2.937-.361-4.134-.594-1.362-2.443 1.844-3.314-.454-.112-.294-.416-.517-.64-.84.597-1.124 2.649-.166 2.658-1.832.027-5.372.628-10.892-3.035-15.528-.574-.727-1.268-1.202-1.28-2.302-.038-3.554-2.049-6.87-1.378-10.57.253-1.4-.915-2.67-2.215-2.588-.874.056-1.904 1.134-1.919 2.487-.017 1.883.014 3.82-.098 5.697-.044.78.706 2.126-.82 2.117-.838-.003-2.029-.97-1.837-1.832.521-2.327-1.159-2.996-2.674-3.781.792-1.115 1.633-.823 2.395-.823 1.33-.003 1.678-.776 1.46-1.832-.335-1.639-1.043-.159-1.641-.185-1.941-.085-3.049-1.829-3.773-3.227-.694-1.339.819-1.529 1.919-1.647.806-.088 2.235.333 1.755-1.193-.124-.391-.818-2.636-2.477-1.109-.365.338-1.224.407-1.116.101.959-2.727-3.196-4.705-.919-7.814 1.027-1.397-.652-3.196-1.641-4.605-.897-1.277-1.799-.019-2.576-.084-3.48-.294-5.229 2.463-7.727 3.848-1.962 1.086-4.315 1.636-5.709 3.781-.556.859-1.823.769-3.117.269-3.001-1.162-6.05.286-8.924.924-2.289.509-1.587 3.25-2.379 4.874-.874 1.8-1.497 2.836.082 4.504.553.588.611 2.076-.18 2.941-2.666 2.919-.504 3.131 1.739 3.311-1.109 2.406-2.941 4.455-1.557 7.63.615 1.409-.154 3.492-.64 5.327-1.156 4.354-4.21 8.152-3.593 13.142.253 2.059-1.082 4.519-2.297 6.436-1.694 2.68-7.103 4.109-10.483 2.588-8.434-3.789-17.309-7.109-23.525-14.536-1.415-1.686-3.439-2.756-4.331-4.874-1.271-3.018-5.088-4.222-5.594-7.814-.044-.309-.713-.682-1.116-.723-1.789-.176-1.976-1.32-1.837-2.773.091-.921.181-1.859-.361-2.756-2.124-3.521-2.848-7.617-4.331-11.209-2.13-5.154-1.845-9.664-1.001-14.621.533-3.148-1.165-6.288 0-9.562.544-1.532.603-3.926-.279-5.058-1.459-1.868-1.066-3.047.361-4.403-3.71-1.568-3.711-1.678-1.181-4.42 2.43-2.63 6.375-4.44 5.414-9.108-.053-.256.221-.687.459-.908 4.495-4.13 3.846-10.441 6.529-15.36 1.259-2.318 2.201-5.511 3.675-6.89 2.704-2.53 4.987-5.789 8.367-7.546 2.447-1.271 3.791-3.717 6.25-5.058 2.686-1.465 5.725.164 8.367-1.916 1.985-1.565 4.846-3.15 7.546-.471.368.368.836.072 1.198-.269 1.512-1.43 2.963-1.007 4.413.084.927.697 2.323.892 3.035.286 1.962-1.665 4.1-1.093 6.25-1.193 1.503-.07 3.185.217 3.494-2.033.109-.783 1.479-1.021 1.558-.639.668 3.148 2.873 3.597 5.512 3.58.115 0 .333.761.377 1.193.071.694-.12 1.718.541 1.933 3.151 1.024 5.117 2.683 4.511 6.436-.135.85 1.05.742 1.739.639.862-.132 1.342-.935.919-1.462-2.118-2.648.164-4.19 1.296-6.067.365-.606-.341-1.978 1.001-1.849 1.195.114 1.355 1.138 1.296 2.117-.062 1.089.581 1.755 1.378 2.302 1.115.771 2.587 1.466 3.396.101.806-1.362-.471-1.932-1.739-2.302-.806-.235-2.155-.774-1.378-1.933.594-.894 1.809-.972 2.838-.286 1.883 1.253 2.023 3.578 3.232 5.243 1.689-.591 3.081.699 4.675.655.726-.021 1.734.454 2.116-.655.206-.6.025-1.186-.541-1.563-.603-.4-.933-1.542-1.936-.639-.512.465-1.123 1.227-1.477 0-.191-.668-.115-1.559.738-1.748 1.58-.344 3.356-.879 4.692.454 2.098 2.089 4.961 2.8 7.349 4.336.915.588 1.784.785 2.576.084 2.498-2.215 3.974.443 5.512 1.378.803.492 1.183 2.881 2.395 1.563.803-.876 3.526-2.843.64-4.773-1.032-.691-1.817-1.611-3.117-2.117-1.956-.762-.724-2.899-.919-4.42-.124-.962.857-1.216 1.46-.924 1.374.665 2.974 1.273 3.872 2.403 1.636 2.059 3.67 3.376 5.873 4.588.071-.997.661-2.382-.722-2.655-2.536-.5-3.533-2.484-3.872-4.42-.633-3.609-6.065-3.603-5.512-7.898.065-.524-1.354-.946-.64-1.664.656-.662 1.451-.378 2.116.269 2.712 2.648 6.117 4.189 9.548 5.613.591.244.849.863 1.755.555 2.83-.968 6.102 1.249 5.151 4.05-.859 2.53.416 1.864 1.46 2.017 2.351.344 5.116-.139 7.087.37 2.099.542 4.052.882 6.152.924.113-.844-.366-1.869.459-2.588 2.271 1.203 2.353 1.233 5.43.286 1.43-.441 2.207.846 3.314 1.193 1.33.417-.24 1.177-.558 1.748-.412.742-.236 1.38.279 1.933.376.406 1.131.636.64 1.277-.527.683-1.307.43-1.919 0-.603-.424-1.192-1.516-1.854-.269-.489.918-.207 1.947 1.017 2.117 1.356.185 2.05.879 1.558 2.117-.526 1.33-1.897.573-2.838.538-1.312-.05-1.649-1.43-2.576-2.101-1.162-.841-2.142-2.802-3.872-1.664-1.718 1.133.81 2.387.377 3.949-.792 0-1.598-.018-2.395 0-1.403.033-2.759-.226-2.756 2.033.003 2.145 1.101 2.179 2.658 2.117 1.406-.053 2.85-.019 4.232.185 2.221.329 4.956 4.074 3.773 4.504-2.798 1.01-1.484 2.379-.738 3.764 1.25.026 2.691.63 3.494-.823.4-.721.096-2.211 1.558-1.664 1.13.421.58 1.616.656 2.487.062.68.082 1.341.082 1.933.809.421 1.229-.101 1.755-.286 1.571-.55 2.712.145 3.494 1.563.968 1.754-.195 2.07-1.575 2.588-1.288.479-1.321 1.624-.459 2.571.515.568 1.025 1.804 1.837 1.378 1.212-.635 2.187-1.735 2.034-3.411-.083-.909.072-1.976 1.378-2.017.912-.026 2.037-.24 2.576.739.594 1.082-.24 1.916-1.017 2.386-2.863 1.739-.009 3.707-.279 5.613-.206 1.438 1.9 1.172 2.953 1.092 2.221-.165 2.947.848 2.838 2.857 1.809-.185 3.397.63 3.773 2.202.212.897-1.397 1.872-2.756 2.033-1.091.127-1.349.851-1.099 1.748.347 1.259 1.65 1.4 2.297.823 2.321-2.074 1.912.754 2.477 1.378 1.286 1.412.113 1.615-1.099 1.748-.838.091-.692.576-.377 1.193 1.024 2.024 4.622 4.056 5.807 2.941 1.733-1.628 1.336-3.692.18-5.613-.159-.262-.221-.654-.459-1.378 2.171 0 4.122.038 6.07 0 .903-.018 2.19.14 2.198-1.092.032-3.622 3.219-2.344 4.593-2.403 1.594-.074 4.05.619 4.692 3.126-1.327.515-2.506.446-3.494-.269-.541-.391-.897-1.411-1.558-.555-.665.862.406 1.098.82 1.563 1.645 1.851 4.341 1.045 6.25 2.386 1.053.742 1.892 1.851.738 2.218-2.121.678-3.096 2.721-5.053 3.395-1.127 3.08 2.408 6.828-1.657 9.461.68.303.978.522 1.296.555 1.139.121 2.005.863 1.558 1.849-.559 1.23-1.356-.371-2.018-.286-2.439.329-4.076-2.035-6.529-1.647-1.027.165-2.315-.146-2.756 1.092-.379 1.065.662 1.608 1.28 2.302 1.762 1.983 4.629 2.818 5.512 5.613.471 1.489 1.157 2.68 2.395 3.68 1.55 1.25.712 3.029.738 4.588.012.647-.663.961-1.296 1.008-.682.05-1.312-.34-1.198-.907.636-3.18-1.43-3.275-3.675-3.596-1.112-.159-1.648-1.471-2.198-2.571-2.033-4.077-4.704-7.648-8.367-10.47-.736-.568-1.142-.665-1.657 0-.427.553-1.685.895-.82 1.916 1.047 1.227 2.03 2.133-.459 2.857-.606.176.023 1.345.361 1.378 3.565.306 3.782 3.252 4.971 5.697-2.83.512-3.339-2.09-4.872-3.126-.9-.612-1.772-1.499-2.772-.723-1.006.78-.075 1.773.099 2.756.482 2.736 4.132 3.781 3.494 6.89-.33 1.615.351 2.461 1.378 3.58 2.059 2.248 4.382 4.01 7.267 4.974.012.324.073.706 0 1.008-1.374 5.466.146 7.042 5.791 6.151 1.183-.185 2.567-.635 3.855.286-1.147 3.43-4.605 1.715-6.808 2.756.838 1.848 2.214 3.132 2.034 5.058-.274 2.974 2.047 6.392 4.954 7.26.718.215 1.378.481 1.296 1.378-.13 1.409-.741.986-1.558.454-.68-.439-1.256.092-1.198.739.22 2.562-.952 5.609 2.379 7.26 1.188-2.515 1.187-2.541.837-5.327-.203-1.609.93-2.38 2.116-2.756 1.362-.435 1.946.535 1.837 1.832-.083.988.442 1.752.919 2.588 1.309 2.274.363 4.515-1.755 5.042-.777.189-.861.91-.361 1.378 1.971 1.836-.846 5.141 2.116 6.621-.106.191-.283.36-.377.555-1.331 2.747-1.683 5.554-.541 8.453 1.509.706 3.479 2.011 2.297 3.411-1.339 1.585-3.353 4.562-6.25 1.647-1.712-1.721-2.803.81-2.756.924.638 1.662.627 3.543 1.46 4.958.612 1.044 2.583.81 3.872-.084.888-.615 1.901-1.26 2.658.084 1.049 1.868-.312 4.15-2.658 4.605-.056-2.198-1.713-1.449-2.854-1.479-1.244-.029-1.308.941-1.558 1.933-.63 2.498-1.19 4.971-1.837 7.445-.897 3.451-1.375 3.73-.098 6.621.109.247 0 .839-.18.924-3.577 1.768-2.798 5.795-4.413 8.554-.465.795-.269 1.277.361 1.748.45.332.957.969 1.378.908.888-.132.785-1.089.738-1.748-.083-1.168.53-1.867 1.198-2.756 1.962-2.615 4.512-5.232 1.755-8.907-.521-.694-.396-2.404.182-2.571 2.66-.777 3.209-4.564 6.431-4.42.544 1.677.297 2.998-1.198 4.319-1.83 1.615-2.924 3.877-2.756 6.436.2 3.08-.274 5.692-2.936 7.73-1.58 1.209-2.471 3.209-2.756 5.042-.393 2.507-1.7 4.535-2.904 6.773h11.369c.029-.419.069-.825.081-1.244 1.068.3 1.405-.983 2.395-1.193.146-.032.279-.026.459 0-.147.812-.31 1.622-.459 2.437h20.293c.428-.703 1.041-1.209 2.133-1.244.421-.015.685-.753.279-1.109-2.224-1.956-.163-5.031-2.116-7.075 3.875-.468 6.238-2.961 6.611-6.621.071-.683-.159-1.448.738-1.748 3.966-1.315 1.344-5.608 3.494-7.814.344-.353-.697-.944-1.476-1.008-.806-.07-1.909.552-2.477-.924 1.909-.55 3.776-1.18 1.755-3.68-.527-.656.907-1.851-.099-3.025-.423-.494.561-1.284 1.099-1.664.792-.553 1.22.363 1.755.739.762.538.65.973.082 1.664-1.515 1.848-.732 3.46.656 4.958.653.703 1.72.489 1.558-.185-.709-2.948 1.584-5.277 1.46-8.083-.15-3.407-.109-6.811 0-10.218.106-3.221-.906-5.782-4.872-7.529 4.013-.097 3.96-2.201 4.61-4.605 1.03-3.804.692-8.872-2.215-11.579-1.977-1.839-2.432-3.319.64-4.958.421 1.392.944 4.076 2.674 2.017 1.174-1.397 3.241-3.755 1.558-6.168-1.021-1.462.251-2.054.64-3.025-.276-.5-.714-1.025-.82-1.563-1.5-7.767-4.133-15.183-6.71-22.62-3.552-10.155-9.498-23.387-14.076-34.014-1.442-.188-1.523-1.069-1.099-2.202-.175-.401-.365-.792-.541-1.193-.429-.853-.866-1.733-1.296-2.589-.381-.757-.717-1.526-1.099-2.286-3.856-.648-4.114-1.144-2.576-4.974-1.178-2.336-2.393-4.717-3.593-7.075-2.547-.602-4.764-1.896-6.89-3.395-.891-.63-1.408-2.173-3.117-.84-.733.573-.912-.598-.656-1.277.883-2.327 3.498-3.029 5.529-1.479.82.628 1.118 1.971 2.477 1.748-.677-1.314-1.33-2.627-2.018-3.949-1.674.197-3.168-3.388-4.79-.37-1.247 2.315-2.453 1.512-4.232.924-3.13-1.036-3.29-5.07-7.071-5.983 1.827-.226 2.773-.969 3.773-1.378 1.559-.635 3.394-.742 3.297 1.933-.05 1.297.358 2.118 1.755 1.933 1.512-.197 1.289-1.484 1.198-2.487-.288-3.189-4.489-5.448-7.366-3.865-1.277.706-3.017.566-2.379-.538 1.662-2.862-.4-3.17-1.936-4.05-1.091-.627-1.108-1.554-1.099-2.672.012-1.062.67-2.358-.64-3.126-1.342.277-.505 2.382-1.296 2.117-3.61-1.212-3.788.847-3.773 3.395.003.259-.333.814-.541.84-2.76.344-5.429-.193-8.088-.84-2.295-.55-.168-3.157-1.854-4.134-1.224.9-3.312 2.2-3.954 1.008-1.156-2.142-4.084-3.451-3.675-7.529 1.601 2.995 3.814 2.722 5.792 3.311 3.421 1.018 2.569-3.518 5.791-3.042-1.73-1.221-2.47-.961-3.494-.269-1.706 1.147-4.405 1.606-5.135-.286-1.268-3.292-3.518-3.273-6.168-3.294-1.227-.012-3.203.716-3.576-.555-.985-3.372-2.475-1.979-4.331-1.008-1.362.715-6.116-1.294-5.693-2.117 1.188-2.315-.949-3.905-.64-5.882-1.777.038-.498 2.293-2.116 2.201-1.33-1.848.267-3.403.82-4.874-5.901-3.221-1.866 4.851-5.332 4.504-.282-.026-.306 1.019 0 1.563.056.1.089.207.18.269 1.121.747.703 1.283 0 2.218-.862 1.144-.827 2.613.279 3.848 1.674 1.871.359 2.431-1.28 2.672-2.289.336-4.128-.048-3.593-3.025.247-1.368-.553-2.343-1.198-3.596.671-.138 1.041-.343 1.476-.37.785-.05 1.867.435 2.297-.454.468-.968-.7-1.353-1.198-1.933-2.268-2.645-5.127-2.077-7.989-1.462-.574.123-1.416 1.217-1.657.185-.729-3.127-1.828-1.819-3.593-.924-1.333.676-3.279.978-4.774-.37 2.268-2.003-.834-1.852-1.378-2.941.932-.876 2.158-.73 3.035-1.563 1.183-1.124 2.004-3.85 4.675-2.117.147.097 1.342-1.363 1.936-2.202.176-.253-.005-1.05-.279-1.294-1.118-1.003-1.461.644-2.297.823-.95.206-1.835.732-3.576 1.479 1.2-2.624 2.114-4.615 3.117-6.806-2.498-.432-4.549-.941-4.134 2.672.176 1.536-1.298 2.015-2.395 2.571-.712.362-1.838-.265-1.28-.823 1.933-1.929-.373-5.144 2.198-6.806.238-.153.215-1.266-.082-1.563-.729-.724-1.207.081-1.657.555-1.412 1.491-2.858 3.033-4.052 4.319-3.765-2.221.255-5.683-2.198-7.73 1.286-1.065 3.258.497 3.855-1.462.526-1.733-1.251-2.334-2.116-3.311-2.256-2.544-4.543-5.096-8.547-4.134-1.215.291-1.928-.99-2.854-1.193-.606-.129-2.736-1.84-2.018 1.193.227.959-.317 1.232-1.558.723-2.613-1.071-3.533-4.502-6.89-4.773-.006 2.833.095 5.926-3.773 2.672-.206-.176-.71-.162-.919 0-2.809 2.174-4.029.016-5.25-1.933-.997-1.592-2.558-.827-3.855-.924-1.527-.112-1.946.881-1.837 2.302.083 1.059-.323 1.782-1.557 1.832-.809.033-2.059.349-2.215-.555-.462-2.671-2.746-3.092-4.511-4.319-1.647-1.148-3.427-1.708-5.158-1.657zm-32.974 12.335c1.171-.041 2.508 1.041 2.297 2.117-.265 1.335-1.68 2.106-3.133 1.933-1.124.009-2.177-.118-2.018-1.395.188-1.535 1.389-2.602 2.854-2.655zm46.886 2.655c1.645 1.833 3.786 2.744 5.61 4.05.685.492 1.222 1.124.919 2.033-.321.974-1.202.972-2.034.908-2.762-.215-5.334.045-6.89 3.311-2.527-4.807 1.709-6.819 2.395-10.302zm20.949 4.369c.205.001.436.021.656.05 1.724.226 3.485.721 4.315 1.933-.753 2.339.327 2.299 1.198 2.302 1.171.006 2.074.194 2.215 1.647.162 1.653-.692 2.636-1.854 3.495-1.141.844-1.95.028-2.756-.739-1.918-1.821-3.772-3.627-4.872-6.151-.671-1.538-.37-2.285.558-2.487.153-.033.335-.051.54-.05zm-78.679 2.908c1.236.756 2.134 1.435 2.198 2.756.035.644-.458 1.373-1.017 1.193-2.136-.685-3.264 2.155-5.332 1.378-.147-.056-.325-.574-.263-.639 1.455-1.588 2.937-3.126 4.414-4.688zm68.672 8.268c.335.009.636.195.919.454 1.33 1.209 2.402 2.77 4.593 2.941-1.662 1.585-5.544-.494-3.773 4.151-1.806-.803-2.818-2.066-4.495-1.849-1.065.138-1.85-.679-1.476-1.832.491-1.503 1.223-.341 1.837 0 .803.45 1.612.55 2.215-.185.533-.65.254-1.391-.279-1.933-.382-.385-1.214-.618-.558-1.294.279-.288.681-.463 1.017-.453zm23.41.319c.247.019.432.311.492 1.16.103 1.456-1.327 1.407-2.395 1.378-1.071-.026-2.033-.455-1.739-1.664.168-.69.418-.89.722-.823.303.066.714.394 1.017.739.509.443 1.36-.832 1.903-.79zm-10.729 4c1.524.009 2.435 1.499 3.773 2.017.903.347.665 2.07 0 3.126-.15.235-.555.31-1.099.555-1.242-1.697-2.491-3.358-3.691-5.058-.053-.074.224-.497.377-.538.244-.068.422-.104.64-.102zm-4.282 2.823c.318-.006.636.047.968.034 1.365.091 5.052 4.381 4.79 5.596-.071.324-.219.72-.64.37-1.068-.882-3.034.429-3.593-1.378-.288-.93-.335-1.815-1.558-1.933-.983-.091-1.421-.8-1.198-1.748.152-.646.496-.835.919-.907.106-.018.206-.032.312-.034zm34.615 2.05c1.207-.104 2.047.993 3.133 1.479-1.321.791-2.554 1.202-3.593-.101-.218-.274-.22-1.227-.081-1.277.189-.07.368-.086.541-.101zm-23.443.824c1.186-.115 1.451.659 1.575 1.748.182 1.577-.897 2.105-1.936 2.302-1.294.247-.763-1.015-.919-1.647.021-1.062-.203-2.259 1.28-2.403zm-11.763 7.361c.812-.035 1.147 1.245 1.837 1.647-1.3.591-2.592 1.453-3.675.185-.435-.509.45-.901.82-1.277.406-.41.748-.544 1.018-.555zm-99.561 3.915c.288-.016.597.016.919.034 1.053.056 1.79.227 1.837 1.563-.379 1.794-2.5 1.057-3.494 2.201-.315.365-1.984-1.026-1.837-1.647.285-1.192 1.177-1.884 2.297-2.117.092-.02.182-.029.278-.034zm166.034 5.546c.368-.043.861.142 1.198.101.865.2 2.11-.152 2.116 1.277.006.93-.471 1.632-1.476 1.479-1.085-.165-2.12-.985-2.297-1.933-.12-.652.092-.881.459-.924zm-171.087 1.479c1.365 1.73 3.553 2.469 3.576 4.958.009 1.35-.357 2.273-1.919 2.117-2.077-.209-4.48-1.04-4.971-2.84-.477-1.742 2.058-2.617 3.314-4.235zm178.765 1.344c.154 0 .332.007.509.034 1.288-.097 2.294.22 2.018 1.647-.241 1.289-1.118 2.34-2.477 2.487-1.562.168-1.397-1.151-1.476-2.201-.088-1.143.261-1.77 1.017-1.933.125-.027.255-.034.409-.034zm-184.376 7.294c1.065 2.218 1.526 4.676-.64 5.882-2.148 1.201-3.185 2.56-3.035 5.428-1.68-1.221-1.641-2.545-2.215-3.495-.838-1.389-1.323-3.232 1.378-4.05 1.76-.537 4.098-1.117 4.512-3.765zm192.513 16.738c2.162-.053 3.939.517 4.692 3.495.318 1.259 2.393.611 3.117 1.832.291.488.872.952.279 1.479-.274.244-.973.35-1.296.185-3.274-1.665-7.22-2.455-9.088-6.806.788-.076 1.575-.167 2.296-.185zm-199.14 3.579c1.121.062 2.94.036 4.872 1.563-2.327.285-3.596 2.52-5.414 1.479-.761-.439-1.732-3.168.542-3.042zm210.722 47.341c.315.018.582.179.919.37 2.836 1.592 2.459 4.506-.919 6.621-.234-1.604.715-3.464-1.099-4.773-.577-.418-.518-1.287.082-1.849.303-.282.702-.386 1.017-.369zm-121.414 4.117c.51-.014 1.041.324 1.165 1.042.206 1.186.836 2.946-1.017 3.025-1.745.081-2.927 1.261-4.414 1.664-.624-2.983 2.019-3.895 3.593-5.428.137-.133.27-.226.459-.269.072-.017.142-.032.214-.034zm134.062.117c.107-.015.215-.011.312 0 .58.066.932.573 1.378 1.008.782.759 1.773 1.489.82 2.571-.968 1.094-1.852.37-2.658-.454-.266-.268-.778-.336-1.198-.454 0 .031.005.053 0 .084-.036.002-.048-.003-.082 0 .089.771.087 1.558.263 2.302.127.541 1.415.87.459 1.647-.227.185-.683.238-1.001.185-.833-.135-1.112-.801-1.116-1.563 0-1.104-.28-2.403 1.378-2.571-.005-.03.005-.054 0-.084.026.009.072-.006.098 0 .051-.969-.331-2.09 1.017-2.571.122-.042.223-.084.33-.1zm-224.371 2.841c.119-.001.24.013.361.017.322.009.641.033.919 0 1.112.088 2.753-.455 2.674 1.277-.076 1.78-1.54 2.945-3.314 2.857-1.256-.062-1.883-1.598-2.018-2.571-.189-1.373.543-1.574 1.378-1.58zm242.827 1.294c.054-.004.096-.005.148 0 .409.038.704.374.64 1.193-.047.616-.262 1.628-.459 2.487-1.015-.724-2.396-1.29-1.46-2.84.322-.534.754-.809 1.131-.84zm15.404 2.94c.269.006.512.076.656.185 1.398 1.062.728 2.339.181 3.68-.447-1.339-2.114-2.152-1.378-3.764.035-.075.272-.107.541-.101zm-253.966 1.362c.108-.004.215-.008.328.017.841.182.942 1.006.919 1.748-.05 1.615-.048 2.968 1.099 4.504 1.165 1.562-.36 2.2-1.919 2.218-2.512.35-1.945-3.617-4.413-3.411-.076-1.144.891-1.564 1.558-2.117.624-.518.786-1.034.919-1.731.141-.757.598-1.156 1.198-1.21.1-.01.204-.015.311-.018zm19.637 1.311c2.274.571 1.661 3.105 2.838 4.42.083.091-.327.829-.459.823-.403-.02-.834-.238-1.181-.471-1.8-1.203-1.086-3.032-1.198-4.689zm105.255 13.057c-.5 2.242 3.455 4.344.098 6.52-.653.424-1.989 1.87-1.936 1.008.091-1.497-2.935-2.19-.82-3.764 1.268-.947 1.778-2.369 2.658-3.764zm122.561 2.941c.794.756 2.996.878 1.378 2.672-.341.38-.171 1.457-.919 1.092-1.717-.838-.653-2.408-.459-3.764zm-11.04 1.647c1.068 2.395.699 4.79.098 7.176-1.338-2.353-.999-4.77-.098-7.176zm-6.89 2.588c1.05 3.563 2.38 7.012 2.018 10.839-.12 1.274-.488 2.579 1.657 3.126 1.562.394-.822 2.538.64 3.578-.586.509-.937 1.681-1.837 1.378-.944-.318-2.103-1.175-1.936-2.201.826-5.157-1.913-9.907-1.46-14.99.052-.62-.309-1.389.918-1.73zm5.151 18.284c4.193 1.442 4.834 3.726 2.936 8.453-.765-2.968-.324-5.755-2.936-8.453zm16.634 6.89c.9-.029 1.135.615 1.28 1.109-.144 1.038-.678 1.404-1.46 1.378-.821-.026-1.248-.48-1.198-1.277.05-.826.617-1.186 1.378-1.21zm-8.366 12.503c1.359 1.295 2.134 2.983 2.576 4.789.323 1.306-.216 2.129-1.837 2.302-2.827.306-2.192-2.52-3.412-3.596 1.234-.84.661-2.927 2.673-3.495zm-21.425 1.479v4.049c-1.597-.353-2.573-1.069-2.576-2.487-.009-1.803 1.645-1.194 2.576-1.562zm5.446 21.225c.11-.006.218.004.345.017.836.088 1.157.607 1.198 1.378.005.909-.523 1.178-1.28 1.193-.797.02-1.366-.346-1.378-1.193-.013-.862.347-1.354 1.115-1.395zm-4.068 2.958c.359-.05 1.062.252 1.198.555.618 1.374-.468 2.149-1.28 2.941-.296.29-.797.356-1.198.538-.018-.435-.057-.849 0-1.277.142-1.066-.459-2.513 1.28-2.757zm-1.28 4.134c2.772 2.336-.789 4.66-.098 6.991-1.413-.287-2.562.41-3.954 1.193-1.003-4.13 2.54-5.657 4.052-8.184zm-21.244 1.378c-.418.1-1.165.099-1.198.269-.421 2.399-.448 4.587-2.805 6.588h5.02c1.634-2.162 1.462-4.415-1.017-6.857zm27.593 1.933c.423 1.991 2.464 2.132 1.099 3.764-.394.474-1.007 1.487-1.575.739-.812-1.065-.224-2.285.476-4.503z"/><path d="m694.182 428.892c.626 1.901 1.956 2.801 3.942 2.827 1.962.026 3.139 1.353 3.104 3.001-.035 1.547-1.368 2.671-3.13 2.745-.941.041-1.95-.138-2.33 1.053-.376 1.18.715 1.607 1.253 2.315.071.091.15.182.232.262.85.818 2.092 1.806 1.027 2.915-.988 1.036-1.703-.656-2.603-.992-1.768-1.356-3.531-2.718-5.413-4.169-.85 3.219-.006 4.613 3.08 4.148.785-.118 1.597-.042 2.398-.053.591 2.068-.915 3.648-1.8 4.995-1.056 1.6-3.06 1.109-4.533-.332-1.018-.992-1.783-2.551-3.707-.853-1.362 1.203-2.304-.659-2.498-1.471-.421-1.777-1.641-2.777-2.78-3.907-1.35-1.341-3.068-2.548-.674-4.465.479-.385.623-1.144.144-1.574-1.003-.909-1.415.297-1.9.771-.841.827-1.545 1.962-2.922 1.194-.977-.547-.729-1.647-.72-2.565.009-1.08.161-2.077 1.553-.983 1.198.942 1.774-.27 2.28-.818.677-.729-.297-1.201-.753-1.63-1.606-1.502-2.045-4.474-5.263-4.045-.494.065-1.542-.983-1.656-1.636-.379-2.153-1.6-2.539-3.495-2.298-.718.091-1.777.435-2.142-.632-.297-.868.759-1.038 1.109-1.594.389-.621 1.595-1 .71-1.974-.527-.577-1.018-1.332-1.959-1.38-1.054-.053-1.303.594-1.586 1.483-.721 2.286-2.474 2.672-4.707 2.672-2.221 0-2.421-1.083-2.486-2.827-.062-1.644-3.51-1.503-2.286-4.107 1.915.297 2.601 2.274 4.36 3.021 2.271.965 3.06.259 3.5-1.459.58-2.248 2.169-2.018 3.583-1.598 3.589 1.068 5.457 4.304 7.908 6.778.674.68 3.983 1.156 4.148.283.306-1.583.585-1.165 1.953-.874 2.403.515 4.498 3.213 7.564.98 1.28-.93 3.024 1.171 4.601 1.786.191.077.247.883.138 1.289-.185.673-.788.988-1.297.415-.886-.989-3.413 1.529-3.236-1.551.003-.082-.215-.25-.217-.25-2.945 2.624-5.622-1.032-8.37-.335-1.074.274-2.909 1.029-1.242 3.145 1.871 2.38 3.939 4.719 4.777 7.758.359 1.291 1.653 1.942 2.401 1.523 2.75-1.529 5.434.324 8.049.074.4-1.53-.756-2.174-1.388-2.315-2.516-.565-2.875-2.156-2.127-4.125.906-2.371 2.48-1.692 4.075-.606.323.218.921.042 1.388.047z"/><path d="m722.503 594.185c1.262-3.171.309-7.025 3.13-9.749 1.083-1.047-.003-2.606.712-4.154 1.33-2.883 1.212-6.416 3.792-8.846.194-.185.235-.894.214-.9-4.592-1.327.224-3.089-.203-4.625-.506-1.818.362-4.163-.165-5.445-1.571-3.818.409-5.628 2.871-7.552 1.342-1.045 1.059-1.815-.333-2.548-2.615-1.371-2.565-1.368-.87-3.395.974-1.168.479-1.88-.897-2.207-2.162-.515-1.542-2.253-1.103-3.395.579-1.512 1.797-.791 2.904-.265 2.089.988 4.471 1.668 1.429 4.398-1.335 1.197 1.383 1.727.771 3.586-.744 2.25 1.039 5.375.209 7.543-1.115 2.918 2.074 5.772-.774 8.699-1.141 1.171-.318 4.251-.4 6.463-.05 1.383.732 3.889-2.086 1.48-.559-.483-1.459-.306-1.748.485-.27.744-.529 1.692-.294 2.38.394 1.135.97.226 1.532-.094.626-.359 1.242-.044 1.23.674-.024 1.503.706 3.663-.456 4.377-2.771 1.709-3.133 4.995-3.451 7.058-.632 4.13-3.297 4.798-6.084 5.977z"/><path d="m715.37 445.843c-.353 2.212-2.177 3.977-3.78 3.974-2.696-.003-3.136 1.656-4.01 3.295-.809 1.523-.809 1.6 1.165 1.512.87-.041.991.415 1.08.977.124.777-.186 1.406-.968 1.641-2.159.65-3.372-.447-4.175-2.633-.306 2.327-1.05 3.974-3.174 4.822-.738.294-1.215.641-1.75-.077-.729-.974-3.107-.447-2.698-1.626.461-1.336 2.109-2.851 3.495-3.16 3.06-.688 1.256-1.523.412-2.553-.774-.944-2.18-1.376-2.309-2.842 2.465.173 2.333-2.742 4.48-3.533 4.322-1.591 8.231-1.18 12.297.279z"/><path d="m669.724 443.222c.153.067-.297-.074-.677-.318-1.541-.997-1.324-2.83-.579-3.654 1.059-1.171 1.927.5 2.768 1.159 1.315 1.036 2.333 2.209 2.024 4.104-.112.674-.312.991-.965 1.197-.739.235-1.165-2.345-1.921-.256-.494 1.368.898 2.089 1.704 2.774.729.618 2.11.232 2.686 1.359.277.538 1.494.676.815 1.585-.585.782-1.609.733-2.201.182-1.865-1.738-3.839-3.445-5.319-5.489-1.757-2.435 1.879-.602 1.665-2.643z"/><path d="m715.549 459.155c1.874-.012 4.416.444 3.918 1.212-1.327 2.039-.235 5.204-2.906 6.348-1.386.594-1.88-1.08-2.677-1.771-1.012-.865-2.233-1.662-2.618-3.104 2.035-.108 1.603-4.595 4.283-2.685z"/><path d="m724.886 519.283c-1.703-.724-2.086-2.983-2.453-5.178-.174-1.027.217-1.833 1.527-1.824 1.938.017 6.104 2.989 5.713 4.301-.53 1.777-1.842 2.892-4.787 2.701z"/><path d="m706.067 462.911c2.133-.127 3.068.715 1.668 2.612-.859 1.165-1.144 1.901.062 2.904.653.545.697 1.289-.247 1.571-1.003.303-1.627-.377-2.386-1.021-1.777-1.506-1.227-3.392-1.082-5.172.091-1.1 1.212-.817 1.985-.894z"/><path d="m702.549 478.765c-.094.986-.703 1.171-1.25 1.003-1.615-.497-2.839-1.435-3.033-3.286-.203-1.945.971-3.062 2.533-3.651 1.142-.43 2.268.153 1.883 1.553-.43 1.56-2.922 2.921-.133 4.381z"/><path d="m715.987 487.625c-2.724 1.212-4.8-.991-6.737.556-.265.212-.751-.385-.671-.93.015-.103.106-.25.194-.283 2.162-.791-.403-4.171 2.218-4.404 2.765-.241 1.165 2.53 2.053 3.595.505.601 1.505.781 2.943 1.466z"/><path d="m732.441 595.823c.197 1.462-.021 2.819-2.268 2.748-1.173-.038-2.554-.362-2.036-1.603.63-1.513.771-3.866 2.778-4.174 1.964-.298 1.561 1.523 1.526 3.029z"/><path d="m745.062 548.969c-2.021 2.721-4.225 2.044-6.89-2.112 2.289-.906 2.289-.906 6.945 2.177.003.002-.055-.065-.055-.065z"/><path d="m741.219 537.537c.947.765 2.521 1.341 2.542 3.059.017 1.474-1.274 1.327-2.309 1.377-1.683.082-2.221-.729-2.071-2.336.1-1.1.058-2.136 1.838-2.1z"/><path d="m687.187 461.002c-1.936.309-3.625 3.127-5.493-.003-.406-.68-.656-1.851.186-2.159 2.144-.794 4.083-.445 5.307 2.162z"/><path d="m739.469 461.358c-.803.194-1.259-.421-1.862-.744-.791-.426-2.627 2.138-2.509-.735.058-1.43 1.288-2.539 2.83-2.624 2.177-.118 1.342 1.662 1.5 2.771.065.453-.011.926-.026 1.394z"/><path d="m723.93 525.52c-.065.894-.641 1.106-1.209 1.047-1.777-.18-2.768-1.371-3.292-2.942-.171-.509.012-1.227.632-1.468.744-.294 1.157.327 1.13.873-.097 1.983 2.148 1.421 2.739 2.49z"/><path d="m702.404 483.61c3.272-3.404 3.484-3.372 5.034.103.209.471 1.021.788.471 1.403-.526.594-1.477.609-1.871.071-.874-1.189-2.227-1.045-3.634-1.577z"/><path d="m648.519 429.563c-1.401-1.424-2.154-3.186-1.206-4.242 1.027-1.144 2.948-.809 4.857-.085-1.03 1.767-4.298 1.391-3.651 4.327z"/><path d="m673.704 446.749c3.71-2.059 5.508.565 8.684.909-3.601 2.265-5.53-.182-8.684-.909z"/><path d="m727.369 525.019c-1.089-.009-2.268-.07-2.254-1.506.021-1.762 1.512-1.365 2.591-1.48 1.215-.129 2.151.253 2.042 1.645-.111 1.477-1.352 1.297-2.379 1.341z"/><path d="m674.407 390.995c.526-2.748 2.31-3.613 3.851-4.692.797-.556 1.253.188 1.733.591.115.097-.103.838-.144.836-2.327-.127-3.098 2.432-5.44 3.265z"/><path d="m731.058 533.256c-.106.868-.265 1.715-.965 1.362-1.879-.953-2.348-3.036-3.198-4.742-.3-.603.741-.839 1.241-.688 2.134.635 1.31 3.297 2.922 4.068z"/><path d="m677.049 413.494c-.891-.18-2.318.382-2.324-.874-.003-1.194 1.288-1.892 2.492-1.977 1.28-.091 2.601.818 2.557 1.848-.074 1.742-1.813.656-2.725 1.003z"/><path d="m688.142 469.113c1.159-2.268 1.686-3.807 3.592-3.648.829.071 2.151.901.306 1.498-1.129.361-1.832 1.285-3.898 2.15z"/><path d="m694.126 450.188c.862-.003 1.695.094 1.677 1.22-.012.918-.474 1.571-1.468 1.553-.859-.012-1.656-.306-1.718-1.324-.059-.996.536-1.458 1.509-1.449z"/><path d="m724.462 558.998c1.224 1.694 1.156 3.43.533 5.171-.032.094-.777.112-.827-.003-.814-1.747-.361-3.459.294-5.168z"/><path d="m689.958 407.769c1.086.085 2.445-.426 2.865 1.185.153.58-.014 1.248-.644 1.433-.768.227-1.721.371-2.062-.629-.212-.621-.076-1.359-.097-2.046z"/><path d="m667.367 410.594c2.21.429 3.145 2.135 3.977 3.948-1.686-.959-3.503-1.798-3.913-4.006z"/><path d="m673.048 431.507c.435 0 .75-.015 1.059.021.041.003.058.25.085.388-.209-.006-.43.029-.624-.026-.152-.044-.276-.195-.52-.383z"/><path d="m633.469 411.959c.22.618.115 1.13-.589 1.256-.173.032-.612-.362-.597-.53.068-.744.626-.797 1.232-.685z"/></g><path d="m154.84375 449.65625c-.574.006-1.13775.0155-1.71875.0625-5.729.466-6.19325 2.73425-4.90625 7.03125.325 1.091 2.36275 1.984.71875 3.25-1.533 1.184-3.41025.27875-4.03125-1.03125-2.344-4.96-6.74025-3.427-10.65625-3.75-7.116-.587-14.232.924-21.5-2.25-4.325-1.88-10.78025-2.22925-15.40625 2.59375-3.782 3.936-6.231 3.10625-6.125-2.59375.062-3.508-2.22375-3.657-4.34375-2.375-4.364 2.637-8.97625 4.64625-14.53125 5.28125 1.835 2.675 7.50975 1.38525 4.71875 6.53125-3.485 6.439-5.279 7.437-11.875 4.625.571-2.346 4.27675-1.0265 4.71875-3.9375.833-5.524-1.4665-10.466-5.9375-12-3.446-1.179-8.32125 1.692-10.15625 6-.642 1.514-.22525 3.624-2.78125 3.25.017.055-.017.10225 0 .15625-.062-.01-.1255.01-.1875 0 .557 1.962-3.36625 3.3245-.53125 6.1875 1.097 1.102-2.17025 3.86525-4.53125 4.28125-2.495.438-5.1465 0-7.6875 0-.006-3.189 1.654-2.95025 3.125-2.90625 2.624.082 4.49275-.55175 4.21875-3.59375-.379-4.236 2.24325-4.44075 5.40625-3.96875-.017-.06.028-.09625 0-.15625-1.171-3.791-4.125-4.76575-7.875-5.46875-4.7-.883-8.8945 3.531-13.8125.5-1.712-1.058-2.4645 1.71375-2.4375 3.59375.084 4.813-1.54875 4.668-5.59375 2.75-3.776-1.792-8.79325-3.86175-11.03125 2.90625-.487 1.479-1.72325 3.584-4.53125 3.25-.151-3.206-1.382-5.7125-4.375-7.1875-.403.346-1.04825.60775-1.03125.84375.048.646-.02125 1.26675-.15625 1.84375v43.4375c.891-.655 1.8405-1.21675 2.9375-1.59375 9.298-3.201 18.3235-7.4865 27.8125-9.9375 10.971-2.834 20.7725-12.582 33.5625-6 .537.274 1.7935-.34975 2.4375-.84375 5.108-3.951 10.781-5.06025 17.125-4.28125 2.126.264 3.79775-.63375 5.59375-1.71875 4.079-2.467 8.9095-5.63175 13.3125-3.09375 4.543 2.62 8.9505 1.8925 13.4375 2.0625 10.965.422 21.876-.68 32.875 0 8.247.51 16.56275.1155 24.84375.1875 1.936.015 3.77-.24725 5.75.84375 5.757 3.174 12.26325 2.48175 18.03125.84375 7.609-2.165 15.92625-.604 19.40625 6 1.667 3.174 3.01975 3.1515 5.59375 1.5625 4.297-2.647 8.89775-2.2425 13.09375-.1875 2.484 1.217 3.85025 5.613 7.53125 1.875 6.602 4.763 14.97725 5.341 22.03125 8.75 7.334 3.535 12.38625 11.4015 22.03125 10.4375.358-.04 1.15675.25825 1.21875.53125 1.846 7.914 8.03625 7.41975 14.15625 7.34375.99-.01 2.19675.56075 2.96875 1.21875 6.803 5.782 14.77975 9.55225 22.71875 13.53125 7.172 3.596 15.27975 6.6165 19.59375 13.6875 3.418 5.606 8.8445 8.7215 13.8125 11.8125 2.747 1.71 1.94625 6.78575 6.65625 5.84375 2.618-.526 3.72975.78125 5.21875 3.40625 1.689 2.981 6.5645 6.94075 8.9375 6.34375 5.477-1.381 5.87.844 6.625 4.625.38 1.891 2.79525 2.055 4.03125 3.25-.822-2.274-1.81975-5.41975 2.28125-4.09375 2.641.85 6.454 3.30625 3.125 7.53125-2.003 2.537-2.85325 6.082-.15625 7.375 9.31 4.478 13.92725 12.22375 18.53125 20.71875 2.338 4.319 3.12025 10.7225 10.65625 12.3125 2.311.488 8.3625 1.904 9.4375 5.5 2.321 7.767 8.0685 11.1965 14.6875 14.5625 3.295 1.677 7.27375 4.3325 2.46875 9.0625-1.253 1.233-1.77275 5.507.15625 6 7.005 1.771 8.66575 8.121 12.59375 12.5 1.517 1.688 3.36825 2.78175.53125 4.96875-1.158.894-1.2285 2.45875-.1875 3.59375.324.361 1.3495.41475 1.9375.34375 2.238-.264 6.4455 4.18875 5.9375 6.34375-.363 1.54-1.3465 1.4865-2.4375.6875-1.125-.816-2.31375-1.75525-2.96875.34375-.397 1.277-.142 2.532 1.375 3.25 1.79.85 3.376 2.361 5.25 2.75 5.32 1.112 4.56775 3.85925 2.96875 7.53125-1.314 3.015-1.71425 8.992-1.40625 9.25 5.152 4.347 2.29875 13.44075 9.96875 16.09375.47.164.68825 1.66125.53125 2.40625-1.186 5.591 1.23925 10.315 4.03125 14.875 6.992-6.006 7.23625-5.99475 9.40625 2.78125h44.46875c-1.344-1.23-2.07575-2.76875-.71875-5.34375 2.026 1.639 4.8445 2.45075 4.6875 5.34375h5.3125c.138-2.687.30075-5.4185-.03125-8.0625-.565-4.401-3.33575-5.36675-6.84375-2.59375-1.002.795-3.158 2.115-3.125 1.375.201-4.643-5.23375-8.35475-2.96875-12.84375 2.797-5.552-.07775-7.39175-4.21875-10.09375-3.653-2.39-9.83375-2.43825-9.96875-8.90625-.028-1.206-1.37175-.6255-2.09375-.1875-.834.516-1.618 2.01725-2.625.53125-.789-1.162-.62075-2.77075.53125-3.59375 4.974-3.563-2.781-8.80875 1.75-12.34375-1.757-.86-2.04225-4.17875-4.90625-3.09375-1.052.4-1.88375 2.42075-2.96875.34375-.638-1.223-.05-2.46475.875-3.59375 2.876-3.514 1.94125-7.029.53125-10.625-1.107.724-1.537 1.455-1.75 2.25-1.119 4.1-5.22925 3.547-8.03125 5.125-.906.51-2.25575-.752-2.46875-1.875-.755-4.051 3.64225-2.1835 4.90625-3.9375-1.23-4.609-6.232-7.7825-4.375-13.1875-3.687 1.54-7.0785.95175-10.3125.34375-.816-3.617 6.742-3.74825 2.625-8.40625-2.009-2.264-2.15725-5.96225-4.03125-8.40625-2.316-3.02-4.443.69775-6.625 1.21875-2.059-2.198.17425-4.93675-1.59375-6.84375-4.549-4.895-7.40225-11.044-11.53125-16.125-3.228-3.968-6.396-8.33575-11.375-10.59375-8.319-3.776-13.0245-11.807-18.6875-18-4.403-4.817-8.2685-10.11725-13.8125-13.53125-5.304-3.261-9.4965-6.3955-8.5625-13.1875.134-.997-.27275-3.11925-1.21875-2.40625-4.09 3.08-3.41325-.764-4.90625-2.375-3.083-3.327-7.02225-5.474-11.90625-6-3.004-.317-4.23625 4.074-7.15625 2.375-2.411-1.403 1.396-3.74625-.875-6.65625-2.814-3.606-5.18675-7.48425-8.21875-11.15625-6.361-7.695-11.67925-16.2555-21.15625-21.0625-1.902 1.112.10125 5.46175-3.84375 4.96875-3.485-.433-2.2525-3.3665-2.4375-5.3125-.235-2.444-1.7685-2.5515-3.6875-2.5625-1.544-.01-3.60275.20525-3.84375-1.71875-.626-4.905-4.851-5.86375-8.375-7.34375-6.003-2.516-10.24975-8.4-16.96875-9.25-11.268-1.425-20.8655-5.3915-28.3125-14.0625-2.143-2.494-5.0575-3.57575-8.0625-4.96875-6.747-3.13-14.18275-4.227-20.96875-7-8.325-3.398-15.48325-8.93925-25.53125-8.90625-3.48.01-8.63775-1.046-12.59375-2.75-5.074-2.192-9.75525-5.985-15.03125 0-1.32 1.496-4.247 1.12175-6.625.34375-.425-2.017 3.687-4.20075-.375-6.34375-2.434-1.288-6.01-2.0675-6.625-.6875-3.133 7.06-7.0435 3.8335-12.0625 2.5625-4.174-1.058-8.282-.5775-9.625-5.8125-.313-1.228-1.86625-2.65325-3.65625-2.40625-8.628 1.188-16.60275-3.05475-25.21875-2.96875zm11.5 5.375c.191-.012.39675-.011.59375 0 .523.029 1.1075.21175 1.5625.34375 2.965.855 5.76225 2.28525 9.28125 3.78125-2.932 1.321-3.4865 5.498-5.9375 3.75-2.635-1.886-7.634-.7465-7.875-5.3125-.093-1.805 1.035-2.4795 2.375-2.5625zm-56.21875 1.375c1.869-.063 3.59675 1.16425 5.59375 3.78125.593.778 2.992.303 5.75.5-2.613 2.916-3.40475 6.19575-7.34375 3.09375-2.076-1.639-4.95475-.93-7.34375 1-1.98 1.595-4.4845 1.59025-6.8125.53125-.476-.219-.59325-1.64525-.53125-2.40625.269-3.277 3.72275-1.638 4.71875-2.75 2.07-2.315 4.09975-3.686 5.96875-3.75z"/></g><g fill="#fff" transform="matrix(.99467567 0 0 .99740546 .001972 -1.033312)"><path d="m574.33 99.456c.381-1.233.77-1.639 1.156-1.233 4.241 1.647 8.871 3.7 13.891 6.167h39.354c1.158.414 1.925 0 2.315-1.232 1.156-1.639 2.505-3.083 4.051-4.316.769-.405 1.348-.405 1.736 0 3.854 2.466 7.714 5.145 11.574 8.016.77.829 1.157 1.445 1.157 1.851 0 .829-1.157 2.678-3.473 5.549v78.312h5.788c1.157.404 1.926 0 2.313-1.232 2.694-3.295 5.398-6.783 8.104-10.482.77-.829 1.735-1.03 2.894-.617 5.398 3.7 9.839 8.219 13.313 13.565.769.819.958 1.437.577 1.85-.391.819-1.158 1.233-2.313 1.233h-123.271l-8.681 1.233c-.778.404-1.355.404-1.736 0-.389-2.063-.779-3.912-1.158-5.55-.39-.828.188-1.03 1.737-.616l9.839.616h20.836zm-13.31 4.932c-2.315 2.063-4.829 3.083-7.523 3.083-3.093-.405-5.407-1.436-6.944-3.083-1.158-2.467-1.544-5.135-1.158-8.016.769-3.286 2.505-5.55 5.208-6.783 5.399-3.7 9.258-9.866 11.573-18.499 0-.819.19-1.233.579-1.233.769-.404 1.156 0 1.156 1.233.772 2.062 1.349 4.316 1.738 6.783h6.943 30.097v-22.815c0-.404-.199-1.232-.579-2.467.38-.405.77-.617 1.158-.617 6.169.415 11.767 1.233 16.785 2.467 1.925 1.233 2.892 2.063 2.892 2.467.38 1.646-.577 2.679-2.892 3.083-1.159.415-1.547 1.232-1.159 2.467v15.416h32.988c.379.415 1.156 0 2.313-1.233 1.157-1.638 2.895-3.083 5.208-4.315 1.158-.404 1.926-.404 2.314 0 5.397 2.881 10.419 6.378 15.048 10.482 1.158.829 1.536 1.852 1.158 3.083-.777.829-1.937 1.233-3.474 1.233-1.158 0-1.936.212-2.313.617-8.491 6.166-15.825 11.099-21.992 14.799-1.547.415-2.315.415-2.315 0-.389-.405-.389-1.233 0-2.466 2.695-5.752 5.207-11.717 7.521-17.883h-82.76l-6.944.617c.384 9.045-1.154 16.243-4.626 21.58zm69.449 29.599v-25.282h-40.513v25.282zm0 28.982v-24.665h-40.513v24.665zm0 29.597v-25.281h-40.513v25.281z"/><path d="m765.894 193.8c-.389 2.052-1.356 3.7-2.895 4.933-3.093.819-5.786.617-8.103-.616-1.546-1.233-2.314-2.467-2.314-3.7v-22.198c-9.647 9.452-20.456 15.416-32.408 17.882-.78.405-1.16.405-1.16 0 0-.829.19-1.232.579-1.232 12.731-8.229 21.413-18.084 26.043-29.599h-7.523v.617c0 2.063-.776 3.7-2.313 4.933-1.546 1.233-3.474 1.851-5.788 1.851-1.546-.405-2.895-.819-4.052-1.233-.778-.818-1.157-2.052-1.157-3.7v-30.831l.578-1.233c4.63 1.233 8.682 2.678 12.154 4.316h3.474 11.574v-6.783h-22.57l-8.682 1.232c-.777 0-1.156-.202-1.156-.616-.78-2.053-1.358-3.902-1.738-5.551-.39-.403 0-.615 1.159-.615l10.417 1.232h22.57v-8.633c-1.547 1.233-4.054 1.85-7.523 1.85-1.937 0-3.474-.616-4.63-1.85-.778-.819-1.157-2.052-1.157-3.7h-24.307v82.628c0 3.285-.779 5.549-2.315 6.783-1.546 1.638-4.051 2.466-7.523 2.466-2.313 0-3.671-.616-4.051-1.85-1.158-.829-1.736-2.063-1.736-3.7v-118.392c0-.405.19-.819.578-1.233h1.158c5.01 1.647 10.028 3.7 15.047 6.167h.579 20.256c.77-.405 1.924-1.436 3.474-3.083-.778-.404-1.736-.819-2.896-1.233-1.934-.818-2.892-2.467-2.892-4.933v-4.933h-30.095l-8.682 1.232c-.779.414-1.357.414-1.738 0-.389-2.052-.776-3.901-1.156-5.55-.39-.819.188-1.021 1.735-.617l9.84.617h30.096v-9.866c0-.818 0-1.85 0-3.083.38-.403.769-.617 1.157-.617 4.631.415 9.449 1.233 14.47 2.468 2.694.414 4.053 1.232 4.053 2.466-1.547 2.062-2.894 3.912-4.053 5.55v3.083h19.1v-9.866c0-.818 0-1.85 0-3.083.38-.403.77-.617 1.157-.617 4.63.415 9.451 1.233 14.47 2.468 2.696.414 4.053 1.232 4.053 2.466-1.547 2.062-2.895 3.912-4.053 5.55v3.083h15.625c1.159.415 1.927 0 2.315-1.233 2.693-3.284 5.397-6.782 8.105-10.481.77-.819 1.735-1.021 2.893-.617 5.397 3.7 9.839 8.229 13.311 13.566.769.829.959 1.444.579 1.85-.389.829-1.159 1.233-2.315 1.233h-40.513v4.933c-.39 2.063-1.357 3.7-2.893 4.933-3.095 1.233-6.366 1.233-9.841 0-1.935-.818-2.892-2.467-2.892-4.933v-4.933h-19.103v4.933c-.39 2.063-1.356 3.7-2.895 4.933h-.578c3.854 1.647 7.523 3.912 10.996 6.783 2.694 2.063 2.314 3.912-1.158 5.55-1.156.829-1.735 1.851-1.735 3.083v14.184c3.473.414 6.555.829 9.26 1.232v-30.837c.38-1.232.577-1.638.577-1.232 6.556 1.232 11.766 3.083 15.626 5.55h1.736 17.94c1.926.414 3.083 0 3.472-1.233 1.537-2.466 3.086-4.519 4.631-6.166.38-.818 1.159-1.021 2.314-.616 6.944 3.295 11.574 6.378 13.89 9.249 3.474 2.467 2.694 4.933-2.314 7.399-1.546.829-2.314 2.063-2.314 3.7v89.411c0 6.166-1.936 10.481-5.787 12.949-4.25 2.467-8.105 3.699-11.574 3.699-.777-.414-1.156-.828-1.156-1.232 0-2.063-.78-4.316-2.315-6.783-1.546-2.88-4.052-4.933-7.523-6.166-.777 1.233-1.736 2.052-2.895 2.466-4.248 1.233-7.143-.617-8.682-5.549-3.092-7.399-7.722-12.949-13.888-16.648v25.896zm-26.622-98.661v-6.167c-.389-.818-.777-1.232-1.156-1.232h-21.414l-1.735.616v6.783zm0 11.1v-6.783h-24.307v6.783zm13.311 32.064h-11.575l-2.895.617c2.695.414 4.822 1.233 6.367 2.466 3.085 1.233 4.821 3.083 5.208 5.55.38 1.647.38 3.083 0 4.316-.778 1.646-1.736 2.678-2.893 3.083-3.475.414-5.409-1.233-5.789-4.934-.777-2.466-1.736-4.315-2.895-5.55v11.101h14.471v-16.649zm39.931 46.248c5.79 0 9.26-.617 10.42-1.85.769-1.233 1.156-2.467 1.156-3.7v-68.446h-24.886c0 1.647-.577 2.679-1.736 3.083-3.093 1.647-6.366 2.264-9.839 1.851l-1.736 2.467v4.933h12.732c1.156 0 1.927-.202 2.314-.617 1.536-3.285 2.894-5.549 4.051-6.782.77-.819 1.736-1.021 2.895-.617 4.63 2.881 8.291 6.167 10.996 9.866.769.828.957 1.444.576 1.85 0 .415-.576.617-1.735.617h-31.831v6.783h13.312c.77 0 1.349-.203 1.736-.617.769-1.233 1.926-2.467 3.473-3.7h1.159c4.239 1.646 8.104 3.912 11.573 6.783.77.415 1.159.829 1.159 1.232.38.414-.779 2.466-3.475 6.166v16.033c0 2.063-.578 3.295-1.736 3.7-1.937 1.232-4.052 1.85-6.366 1.85s-3.671-.617-4.051-1.85c-.778-.819-1.157-2.052-1.157-3.7v-.617h-15.626v4.316c15.048 2.881 23.918 7.398 26.622 13.564 1.16 2.469 1.16 4.935 0 7.402zm-26.62-29.598c1.536-2.871 3.473-8.017 5.788-15.416.38-.404.769-.616 1.159-.616 5.787 2.466 8.68 4.528 8.68 6.166v-6.166c-.39-.819-.778-1.021-1.158-.617h-14.469zm15.624 0v-9.25c0 .414-.576.617-1.736.617-.776.413-1.156.828-1.156 1.232-2.314 2.467-5.409 4.933-9.261 7.4zm22.573-59.814v-5.55c-.39-1.233-.777-1.85-1.156-1.85h-20.837l-2.315.616v6.783zm0 11.1v-6.783h-24.309v6.783z"/><path d="m869.49 142.003h-14.469v6.166c0 2.467-1.159 4.528-3.475 6.167-3.094.829-6.366.617-9.838-.617-1.548-1.638-2.315-3.286-2.315-4.933v-79.545c0-.819 0-1.437 0-1.851.38-.405.769-.617 1.157-.617 5.01.829 10.027 1.445 15.05 1.851 2.692.829 4.051 2.062 4.051 3.7-.389 1.232-1.357 2.467-2.894 3.699-1.156 0-1.736.828-1.736 2.467v59.195h28.937c1.926.414 2.894 0 2.894-1.232 1.537-3.286 2.894-5.752 4.051-7.399-1.544-.819-2.313-2.467-2.313-4.933h-12.732c0 2.062-.577 3.7-1.736 4.933-2.314 1.233-4.63 1.851-6.944 1.851-1.935-.404-3.672-.819-5.206-1.233-.391-.405-.579-1.85-.579-4.316v-72.764c0-.819.188-1.233.579-1.233 5.01 1.233 10.027 3.296 15.047 6.167h1.157 5.209c2.313 0 3.661-.201 4.051-.616 1.159-2.053 2.314-3.902 3.475-5.551 1.156-.818 1.924-1.021 2.314-.615 5.397 2.062 9.839 4.315 13.31 6.782 2.695 2.467 2.118 4.528-1.735 6.166-.777.415-1.157 1.233-1.157 2.468v57.346c0 2.062-1.159 3.7-3.476 4.933-1.544.829-2.512 1.233-2.892 1.233 4.63 2.881 8.29 6.166 10.996 9.866.769.829.957 1.444.577 1.85 0 .414-.577.617-1.736.617h-21.992v53.646c0 3.286-1.157 5.136-3.473 5.551-3.096 1.232-6.366 1.232-9.841 0-1.544-1.233-2.314-3.083-2.314-5.551v-27.132c-1.545.415-2.512 1.233-2.892 2.467-9.649 17.671-18.521 27.951-26.622 30.832-1.159.404-1.937.404-2.315 0 0-.828.19-1.444.579-1.85 6.167-8.228 11.185-22.411 15.047-42.547 0-.82.77-1.233 2.315-1.233 5.397 1.233 10.027 3.295 13.888 6.167v-20.351zm19.096-64.129v-15.416c-.778-.819-1.356-1.021-1.736-.617h-8.682l-1.736.617v15.416zm0 20.965v-16.65h-12.154v16.649zm0 20.965v-16.648h-12.154v16.648zm0 37.615c.38-.819.771-1.021 1.158-.617 9.641 2.063 15.815 6.167 18.519 12.333.771 3.295.579 6.369-.577 9.25-1.546 3.286-3.671 5.135-6.366 5.55-5.789.405-8.681-3.295-8.681-11.1.769-6.166-.579-10.686-4.053-13.565-.388-.82-.388-1.437 0-1.851zm45.72-17.267c-4.628 1.647-8.682 3.083-12.153 4.316-3.093.829-4.63 1.851-4.63 3.083-.777 1.648-1.736 2.679-2.892 3.083-.779 0-1.738-1.233-2.895-3.7-1.159-4.933-2.314-10.067-3.475-15.416-.39-1.232 0-1.85 1.159-1.85h16.203c9.64-16.438 15.816-32.065 18.52-46.864.38-.819.77-1.021 1.157-.617 4.63 1.647 9.452 3.912 14.471 6.783 1.536.829 2.116 1.851 1.736 3.083-.39.829-1.159 1.233-2.314 1.233-1.159.415-1.735.829-1.735 1.232-5.791 11.929-14.472 23.433-26.045 34.531 1.927-.405 3.662-.617 5.207-.617 7.715-1.232 15.626-2.669 23.729-4.315-1.545-4.934-3.474-8.219-5.788-9.866-.389-.819-.389-1.437 0-1.851.38-.818.77-1.021 1.159-.616.38 0 2.505.616 6.365 1.85 8.103 3.295 13.312 8.632 15.627 16.032 1.156 3.295 1.156 6.378 0 9.25-1.547 3.295-3.476 5.145-5.79 5.549-3.094 0-5.407-.819-6.944-2.466-1.545-2.467-2.512-5.135-2.893-8.017 0-2.052-.198-3.901-.578-5.55-3.861 2.063-7.724 3.912-11.575 5.55v61.663c0 3.286-1.157 5.136-3.472 5.551-3.095 1.232-6.366 1.232-9.84 0-1.545-1.233-2.314-3.083-2.314-5.551v-30.215c-2.314.415-3.671 1.445-4.051 3.083-9.648 17.267-19.299 28.365-28.937 33.298-1.156.404-1.934.404-2.312 0 0-.829.188-1.444.576-1.85 7.713-9.461 13.504-24.665 17.361-45.63.38-.819 1.16-1.233 2.315-1.233 6.556 2.063 11.575 4.316 15.047 6.783zm-7.523-68.444c-7.334.414-13.311.616-17.939.616-.778.415-1.356 0-1.736-1.233 0-.819.578-1.233 1.736-1.233 21.603-5.752 37.039-11.918 46.299-18.499 1.156-.403 1.926-.615 2.315-.615 5.01 2.466 9.448 5.761 13.311 9.865 1.535 1.233 2.116 2.468 1.736 3.7-.777.829-1.736 1.233-2.895 1.233-1.546-.405-3.093-.405-4.63 0-8.491 2.062-17.56 3.7-27.201 4.933h-.578c1.539.829 2.895 1.445 4.052 1.851 1.537 1.232 2.313 2.467 2.313 3.699-.389 1.233-1.354 1.851-2.893 1.851-1.158 0-1.737.617-1.737 1.85-4.25 5.761-8.879 10.482-13.888 14.183 1.536 1.232 2.892 2.679 4.052 4.315 1.157 2.467 1.536 5.55 1.157 9.25-.777 2.881-2.513 4.934-5.207 6.167-2.314.829-4.63.414-6.944-1.232-1.547-1.233-2.894-3.7-4.052-7.399-1.159-6.985-3.671-11.918-7.523-14.799-.389-.405-.578-.819-.578-1.233.381-.818.772-1.232 1.159-1.232 5.398 0 10.028 1.232 13.89 3.699 2.689-5.758 4.622-12.339 5.781-19.737zm30.096 87.56c-.39-.818-.579-1.436-.579-1.85.771-.819 1.348-1.021 1.738-.617.769.415 2.504 1.233 5.207 2.467 7.323 4.114 12.154 9.866 14.471 17.267.38 3.285-.199 6.367-1.738 9.249-1.545 2.872-3.672 4.315-6.366 4.315-5.408.405-8.103-3.295-8.103-11.099.767-8.217-.777-14.798-4.63-19.732z"/></g><path d="m528.222 268.741c-3.529-.156-6.884.827-9.192-2.351-.244-.338-1.178-.456-1.662-.291-4.058 1.365-6.216-3.336-9.967-3.074-.722.05-.627-.912-.308-1.686 1.333-3.195.465-4.557-3.047-5.004-.933-.121-1.871-.285-2.804-.285-.83 0-1.691.203-2.007 1.135-.323.977.224 1.495 1.07 1.903 1.01.485 1.915 1.23 1.285 2.468-.474.927-1.294 1.839-2.503 1.636-1.777-.303-4.113 1.015-5.102-1.783-.373-1.053-1.554-.909-2.479-.921-2.589-.044-5.178-.012-7.767-.073-1.65-.042-3.207.394-4.21-1.998-.681-1.621-3.177-1.248-4.51.07-2.621 2.589-5.723 3.269-9.075 1.83-1.789-.771-3.983-2.421-4.107 1.706-.062 2.054-2.25 1.085-3.489 1.265-1.952.282-3.089-1-3.671-2.639-.512-1.427.338-2.063 1.732-2.413 1.324-.333 1.683-1.774.813-2.456-1.668-1.306-4.21-2.754-5.821-1.948-1.653.827-3.901.253-5.207 2.356-.9 1.45-2.124.456-2.124-1.074-.003-1.395.183-2.836.576-4.168.614-2.06-.592-3.045-1.982-4.007-.744-.515-1.56-.642-2.263.009-.823.765-.886 1.792-.06 2.468 1.042.859 1.342 1.815 1.229 3.08-.073.833.045 1.701-.962 2.039-.81.274-1.338-.253-1.81-.788-2.636-2.989-6.175-1.486-9.319-1.827-3.934-.426-5.689 1.936-7.173 5.292-1.646 3.724-7.178 4.533-9.696 1.3-3.704-4.754-8.49-6.805-13.8-4.998-3.663 1.247-7.087.95-10.635 1.191-1.188.079-2.303.006-3.153-1.115-.665-.879-1.371-1.721-.986-2.845.412-1.197 1.563-.773 2.445-.8 1.174-.039 2.354.05 3.53.029.977-.015 1.989-.174 2.042-1.421.047-1.098-.683-1.792-1.709-1.909-3.095-.359-6.19-.447-9.202-1.577-1.306-.491-2.862-.029-3.771 1.753-.629 1.236-1.865 1.936-2.621-.412-.662-2.06-3.677-1.612-4.616-3.625-1.365 1.262-2.571 2.633-2.68 4.607-.059 1.053-.056 2.118 0 3.174.126 2.412 1.142 2.601 2.836 1.106.606-.535 1.274-1.33 1.957-1.38 1.6-.115 3.362-.5 4.804.374.668.403.456 1.75-.006 2.28-1.174 1.35-1.495 3.81-4.313 3.224-2.815-.585-5.083 1.989-8.096 1.53-3.286-.5-5.351-2.986-3.951-6.048.982-2.145.22-2.545-1.595-2.521-2.756.035-5.081-.062-5.037-3.951.024-2.204-2.25-1.765-3.615-1.488-1.756.359-.85 1.438-.279 2.362.9 1.456.041 2.033-1.253 1.885-1.23-.141-2.615.13-3.645-.982-.612-.659-1.656-.9-2.268-.374-2.948 2.551-7.419 2.762-9.623 6.499-.833 1.409-2.106 2.609-3.998.906-1.168-1.053-2.118-.145-2.936.835-.821.982-1.409 2.033-.453 3.139.806.936 1.671 2.224 3.224 1.518 1.492-.68 3.327-2.43 4.26-.023.844 2.186-1.183 3.318-3.092 4.328-1.786.944-3.995 1.059-5.363 3.039-.642.927-2.362 1.2-3.057-.612-.771-2.015-2.089-1.944-3.625-.968-1.738 1.112-3.445 1.43-5.184-.003-.253-.209-.753-.479-.923-.374-4.819 2.968-2.854-1.313-3.168-3.004-.218-1.171-.132-2.518-1.768-2.539-1.656-.021-1.698 1.309-1.765 2.509-.041.703-.026 1.409-.062 2.115-.038.776.353 1.838-.729 2.098-1.159.279-1.024-.895-1.436-1.539-1.159-1.813-2.454-3.66-4.992-1.753-.809.609-1.777.521-2.715.521-6.587-.003-13.177-.035-19.763.003-3.972.023-4.836-3.292-6.219-5.877-.55-1.027-.529-2.375-2.027-2.424-2.186-.073-4.668-.735-6.437.588-1.224.915-.206 2.439 1.297 2.762 1.126.241 2.338.1 3.515.1 1.118 0 1.354.686 1.368 1.621.015.9-.153 1.489-1.227 1.771-3.477.915-6.313-1-8.134-4.195-1.639-2.877-2.56-6.248-5.204-8.555-2.342-2.044-7.222-.889-8.093 2.006-1.403 4.663-3.239 6.187-8.102 6.437-1.65.085-2.339 1.077-3.504 2.045-4.636 3.859-7.94 10.032-15.227 9.811-.862-.026-1.597.382-2.162 1.039-1.709 1.982-3.83 1.618-5.71.626-1.668-.88-3.036-1.121-4.516.109-.591.491-1.304.621-1.998.429-8.884-2.489-17.966-.629-26.93-1.291-1.777-.13-4.16 1.003-4.781-2.074-.118-.585-1.003-.565-1.485-.106-4.325 4.127-9.708 3.627-15.042 3.586-7.199-.056-14.242 1.724-21.505 1.789-3.054.027-6.499 1.009-9.837 1.044-2.074.023-3.045 1.677-4.198 2.918-1.645 1.768-3.209 1.889-4.78.165-1.745-1.909-3.315-1.93-5.001.009-.374.429-.938 1.023-1.388 1-6.151-.306-12.359 3.33-18.131 1.2-4.007-1.479-7.575-.85-11.341-.991-3.995-.15-7.999-.135-12-.059-1.959.038-3.73-.083-4.992-1.836-.524-.727-1.342-.974-2.195-.865-8.434 1.042-16.083-3.648-24.603-3.186-3.595.194-7.54-2.118-11.526-2.574-1.495-.174-1.565-3.565-.256-5.404 3.398-4.769 7.628-8.628 11.974-12.562 5.045-4.569 10.179-9.134 14.956-14.05 3.978-4.089 8.361-7.796 12.703-11.511 1.585-1.356 3.721-1.862 5.542-3.095 4.351-2.942 7.358-6.772 10.214-10.879 1.129-1.627 3.136-.444 4.31-1.892 1.38-1.704 3.251-2.83 5.181-4.001 7.272-4.41 10.591-3.563 14.851 3.965 3.389 5.987 7.769 11.397 13.241 15.442 2.436 1.797 4.666 3.689 6.846 5.736 1.792 1.686 3.436.986 5.345-.182 10.885-6.678 19.728-15.727 28.977-24.341 3.83-3.568 7.934-6.854 11.594-10.623 1.074-1.106 2.289-1.936 3.886-2.159 4.436-.621 5.875-4.757 8.617-7.378 3.88-3.71 8.669-6.767 11.579-11.103 2.106-3.142 6.875-5.137 5.787-10.338-.559-2.671 2.415-4.019 3.474-6.187.903-1.848 3.983-2.392 3.827-5.281-.006-.135.574-.441.877-.432 4.969.135 5.678-3.895 7.501-7.164 1.233-2.207 3.41-4.033 5.49-5.592 3.924-2.942 8.216-5.56 12.547-7.652 7.366-3.557 15.333-5.601 23.576-2.118.809.341.789 1.124 1.224 1.486 1.936 1.618 2.824 4.93 6.381 4.083.468-.112 1.512.268 1.527.477.365 5.116 6.414 3.869 8.202 7.37.347.679 1.244.826 1.897.579 2.427-.92 2.918.633 3.047 2.398.121 1.621.768 2.415 2.413 2.218 6.89-.821 12.632 2.191 18.233 5.542 1.209.724 1.915.995 3.377.218 2.615-1.392 3.886-.42 4.039 2.289.079 1.406-.812 3.545 1.165 3.959 2.171.456 4.651 1.294 6.74-.438 1.077-.894 1.915-2.124 3.568-1.895.874.124 2.312-.509 2.474.577.197 1.315 1.597 2.948-.039 4.104-1.438 1.015-.7 1.571 0 2.48 1.274 1.656 3.054 2.618 4.863 3.33 2.683 1.059 5.793 2.707 8.079 2.677 2.547-.033 5.472-.232 8.193-.647 2.901-.444 5.028 2.218 8.04 1.774 1.177-.173.668 1.715.727 2.677.112 1.742.112 3.25 2.577 1.868 1.601-.897 3.354-.806 5.025.156 3.433 1.977 7.787 1.479 10.985 4.619 1.176 1.156 4.295.433 6.522.388 2.38-.047 4.654-.094 6.437 1.918.735.833 1.903.906 2.974.821 1.557-.124 2.577.585 3.651 1.671 3.695 3.733 6.413 3.415 9.399-.883 1.039-1.491 2.23-.762 3.307-.085.882.553 1.668 1.268 2.486 1.921 3.589 2.877 7.705 3.462 12.149 3.021 2.839-.279 4.16 2.73 6.622 3.462.58.174 1.106.765 1.849.809 7.416.45 12.034 5.96 17.601 9.752 3.346 2.28 5.857 5.701 9.17 7.784 2.354 1.479 5.707 2.262 8.82 2.147 2.718-.1 4.686.562 5.007 3.568.206 1.918 1.471 2.147 2.988 2.215 3.191.141 6.634-.697 9.053 2.483.306.406 1.32.312 2.015.376 5.075.482 10.105.738 12.791 6.366 1.558 3.262 4.86 4.945 8.034 6.448 5.761 2.733 11.341 6.055 18.131 5.537 2.659-.203 4.852-2.503 7.734-1.588.914.291 2.421-.524 2.618 1.006.198 1.565.92 3.886-.612 4.613-4.045 1.927-1.13 3.945-.047 5.304.844 1.062 1.806 1.8 2.209 3.292.612 2.271 2.769.947 4.219 1.306.937.232 2.301-.542 2.665.962.25 1.042.012 2.018-.977 2.81-1.377 1.103-1.925 2.698-1.662 4.43.453 2.992-.703 4.089-3.662 3.51-.899-.17-1.867-.02-2.355-.021zm-239.104-9.084c.815-.312 2.495.612 2.398-1.027-.094-1.565-1.215-2.715-3.092-2.653-1.204.038-2.642-.015-2.439 1.639.194 1.57 1.441 2.288 3.133 2.041zm233.461-.203c-.421-1.388-1.194-2.65-2.811-2.998-.892-.191-1.718.421-1.506 1.371.31 1.376.256 3.198 2.184 3.521 1.198.203 1.939-.526 2.133-1.894zm-82.919-16.251c.101.835-.25 2.165 1.28 2.245 1.778.091 2.358-1.28 2.487-2.739.089-1.012-.025-2.38-1.322-2.442-1.689-.073-2.277 1.271-2.445 2.936zm35.161 3.813c1.127-.026 2.105-.256 2.019-1.703-.086-1.389-1.077-1.583-2.187-1.589-1.314-.006-2.324.412-2.194 1.942.124 1.479 1.359 1.267 2.362 1.35z" fill="#f0b800"/></svg>