<svg height="603pt" viewBox="0 0 959 603" width="959pt" xmlns="http://www.w3.org/2000/svg"><path d="m0 0h959v229.17c-319.67-.02-639.33 0-959-.01z" fill="#d80100"/><path d="m0 229.16c319.67.01 639.33-.01 959 .01v141.8c-319.67-.01-639.33-.01-959 0z" fill="#fefefe"/><path d="m287.39 271.19c4.37-.35 8.77-.13 13.15-.24-.59 1.36-1.2 2.7-1.78 4.07 4.72 11.17 9.82 22.18 14.74 33.26 4.72-10.56 9.47-21.11 14.07-31.73 1.2-1.91-.38-3.84-1.07-5.59 4.38.1 8.77-.13 13.15.26-4.55 3.87-5.85 9.79-8.56 14.85-3.97 9.1-8.26 18.06-12.34 27.11.7 1.24 1.44 2.46 2.14 3.7-5.12.22-10.24.2-15.36-.01.67-1.23 1.42-2.42 2.17-3.59-5.05-12.14-10.67-24.03-15.92-36.09-.88-2.4-2.91-4.01-4.39-6z" fill="#060606"/><path d="m470.51 271.1c10.49-.22 20.99-.05 31.48-.1 4.44.46 9.46 2.25 11.59 6.51 2.77 4.67 1.75 11.15-2.25 14.8-2.32 2.13-5.46 3-8.46 3.62-7.62.18-15.25.01-22.87.07.04 5.61-.08 11.22.06 16.83.59 1.47 1.68 2.67 2.44 4.07-3.99.19-7.98.14-11.97-.02.95-1.89 2.85-3.52 2.48-5.83-.02-11.37 0-22.74-.02-34.11.35-2.31-1.55-3.94-2.48-5.84z" fill="#060606"/><path d="m480 276c7.93.46 16.1-1.08 23.84 1.11 5.58 1.78 5.53 10.98-.01 12.78-7.73 2.19-15.91.65-23.83 1.11 0-5 0-10 0-15z" fill="#fefefe"/><g fill="#060606"><path d="m47.83 278.95c1.66-.88 3.2-1.98 5.09-2.31.14 3.23.14 6.48.01 9.72-1.88-.35-3.46-1.39-5.11-2.28-7.27-.21-14.54.01-21.81-.09 0 3.66-.01 7.31.02 10.97 4.6 0 9.21.13 13.8-.01 1.66-.88 3.2-1.98 5.09-2.31.14 3.23.14 6.48.01 9.71-1.88-.34-3.46-1.38-5.11-2.27-4.6-.21-9.21 0-13.81-.09.04 4.28-.1 8.56.04 12.84.55 1.47 1.7 2.63 2.45 4-3.99.26-7.98.23-11.97.04.95-1.89 2.88-3.51 2.48-5.82-.04-9.01.02-18.02-.03-27.03.06-1.96-1.72-3.26-2.51-4.91 10.45-.3 20.91.04 31.36-.16z"/><path d="m134.83 278.94c1.66-.87 3.2-1.96 5.09-2.3.14 3.24.16 6.49 0 9.73-1.88-.36-3.43-1.45-5.09-2.31-6.94-.16-13.88.01-20.82-.07 0 3.66-.01 7.31.02 10.97 4.27-.01 8.54.14 12.8-.02 1.66-.87 3.2-1.97 5.09-2.3.14 3.24.16 6.49 0 9.73-1.88-.36-3.43-1.45-5.09-2.31-4.27-.16-8.55.01-12.82-.07-.01 4-.01 8-.01 12.01 6.95-.04 13.9.08 20.85-.05 1.65-.88 3.19-1.96 5.07-2.31.14 3.24.15 6.48.01 9.72-1.86-.4-3.43-1.44-5.09-2.29-10.1-.24-20.21.14-30.31-.2.95-1.89 2.88-3.51 2.48-5.82-.04-9.01.02-18.01-.03-27.02.06-1.96-1.72-3.27-2.5-4.92 10.11-.31 20.24.05 30.35-.17z"/><path d="m190.16 276.54c1.83.45 3.35 1.54 5.01 2.39 10.11.38 20.27-.42 30.35.42-7.72 11.09-16.17 21.68-24.17 32.58 6.15.06 12.32.16 18.47.01 1.66-.87 3.21-1.97 5.11-2.3.13 3.23.11 6.48-.03 9.72-1.89-.34-3.42-1.45-5.08-2.3-10.1-.23-20.21.15-30.31-.19 1.74-3.56 4.4-6.53 6.7-9.72 5.66-7.75 11.63-15.28 17.23-23.08-6.09-.09-12.19-.14-18.28-.01-1.66.87-3.21 1.95-5.06 2.39-.17-3.3-.17-6.61.06-9.91z"/><path d="m734.83 278.94c1.65-.87 3.2-1.96 5.09-2.3.13 3.24.15 6.49 0 9.73-1.89-.36-3.43-1.44-5.08-2.31-6.94-.16-13.89.01-20.83-.07-.01 3.66-.01 7.31.02 10.97 4.27-.01 8.53.14 12.8-.02 1.65-.87 3.2-1.96 5.09-2.3.13 3.24.15 6.49 0 9.73-1.89-.36-3.44-1.45-5.09-2.31-4.27-.16-8.55.01-12.82-.07-.02 4-.02 8-.01 12.01 6.95-.04 13.9.08 20.85-.05 1.64-.88 3.19-1.96 5.07-2.31.13 3.24.15 6.48.01 9.72-1.86-.4-3.44-1.44-5.09-2.29-10.1-.24-20.21.14-30.31-.2.95-1.89 2.87-3.51 2.48-5.83-.04-9 .02-18-.03-27 .06-1.97-1.73-3.28-2.51-4.93 10.11-.31 20.24.05 30.36-.17z"/><path d="m582.31 278.27c6.55-.69 13.69-.9 19.42 2.92 9.59 5.1 12.33 18.96 6.22 27.7-3.05 5.35-9.07 8.28-14.97 9.09-4.82-.03-9.9.72-14.38-1.51-5.82-2.14-10.5-6.96-12.1-12.99-1.33-5.74-.73-12.25 2.93-17.07 2.82-4.51 7.99-6.69 12.88-8.14z"/><path d="m621.57 283.57c4.6-5.11 11.99-6.02 18.49-5.6 6.04-.7 11.21 3.87 17.25 2.88-1.43 2.75-2.64 5.63-4.38 8.21-2.77.6-2.61-3.5-5.03-3.98-4.54-1.41-9.48-2.95-14.2-1.44-3.41.59-7.59 2.34-7.73 6.36.29 3.93 4.88 4.67 8.02 4.98 6.46.04 13.42-.65 19.23 2.78 3.82 2.42 4.65 7.68 3.26 11.69-1.95 4.82-7.05 7.12-11.78 8.29-7.24.87-14.87.41-21.43-3.05-2-1.28-4.37-1.21-6.62-1.46 1.88-2.86 2.98-6.69 6.46-8.02.99 4.8 6.38 6.05 10.48 7.13 3.92 1.39 8.05.26 11.89-.82 2.97-.71 5.17-4.12 4.21-7.08-1.95-3.26-6.06-2.16-9.18-2.76-5.92-1.02-12.55.26-17.75-3.37-4.78-3.2-5.24-10.79-1.19-14.74z"/><path d="m58.51 279.12c3.99-.21 7.99-.21 11.98-.01-.99 1.89-2.92 3.51-2.52 5.86.11 7.01-.1 14.02.13 21.03.02 2.79 2 5.59 4.83 6.07 4.32 1.53 9.17 1.09 13.26-.87 2.3-1.55 2.89-4.53 2.81-7.12-.06-6.97.13-13.94-.1-20.9-.64-1.45-1.64-2.69-2.39-4.08 3.99-.17 7.99-.07 11.98-.16-.73 1.45-1.75 2.74-2.39 4.24-.23 7.95-.04 15.92-.09 23.87.05 4.41-3.25 8.29-7.31 9.69-4.32 2.04-9.17 1.05-13.76 1.29-5.8.19-12.53-3.04-13.86-9.14-.29-8.56.08-17.14-.13-25.7-.56-1.5-1.69-2.68-2.44-4.07z"/><path d="m146.51 279.11c9.46-.2 18.93-.13 28.38-.06 4.02 1.05 8.1 3.81 8.99 8.12.28 3.12.6 6.63-1.49 9.26-1.71 2.82-5.04 3.77-7.9 4.99 3.75 5.11 6.32 11.14 11.2 15.33-3.95.45-7.94.24-11.91.28-.03-1.71.49-3.63-.71-5.07-2.35-3.66-4.75-7.28-7.06-10.96-3.33.04-6.66.03-9.99.02.02 3.93-.12 7.87.04 11.81.65 1.43 1.66 2.68 2.41 4.07-3.98.2-7.97.19-11.94-.04.75-1.65 2.47-2.97 2.46-4.89.01-9.31 0-18.63.01-27.94.03-1.95-1.73-3.26-2.49-4.92z"/><path d="m241.43 279.05c4.27-.13 8.54-.07 12.81-.08-.35 1.3-1.12 2.53-1.11 3.91 2.34 6.42 5.82 12.34 8.41 18.67 2.66 5.28 4.39 11.33 9.13 15.2-4.27.4-8.56.26-12.84.25 2.11-3.35.22-7.12-1.85-9.94-5.5-.15-11.01-.02-16.52-.06-.8 1.99-1.91 3.86-2.51 5.93.14 1.42.81 2.71 1.23 4.07-4.28-.01-8.56.17-12.83-.22 4.94-4.16 6.39-10.65 9.28-16.15 3.02-5.91 5.33-12.14 8.43-18.01-.54-1.2-1.1-2.38-1.63-3.57z"/><path d="m341.52 279.09c3.99-.15 7.98-.15 11.97.02-.94 1.89-2.84 3.53-2.48 5.84-.03 8.7 0 17.4-.02 26.1-.38 2.31 1.53 3.94 2.48 5.83-3.99.16-7.98.21-11.97.01.76-1.66 2.55-2.97 2.49-4.92-.03-9.6.12-19.2-.09-28.79-.59-1.47-1.64-2.7-2.38-4.09z"/><path d="m359.5 279.09c7.51-.22 15.04-.01 22.56-.11 3.87-.15 7.99.52 11.25 2.73 8.1 5.94 10.17 18.17 5.11 26.71-2.79 5.65-9.22 8.75-15.35 8.61-7.85-.12-15.71.14-23.55-.16.76-1.65 2.53-2.96 2.47-4.89 0-9.32.04-18.63-.01-27.95.04-1.96-1.72-3.27-2.48-4.94z"/><path d="m419.55 278.95c4.25.07 8.5.03 12.76.06-.47 1.26-.96 2.51-1.43 3.78 4.55 9.61 8.77 19.37 13.52 28.89.88 2.1 2.89 3.32 4.25 5.07-4.26.44-8.55.23-12.82.25 2.14-3.4-.02-6.71-1.36-9.93-5.68-.14-11.36-.05-17.03-.03-.82 1.96-1.84 3.84-2.47 5.88.19 1.42.78 2.74 1.19 4.11-4.28-.08-8.56.16-12.82-.25 5-4.11 6.39-10.65 9.27-16.16 2.8-5.6 5.18-11.39 7.88-17.04 1.01-1.59-.52-3.12-.94-4.63z"/><path d="m520.48 279.11c8.53-.28 17.06 0 25.59-.15 5.12-.39 10.6 3.09 11.81 8.21.31 3.12.58 6.62-1.49 9.24-1.68 2.84-5.01 3.8-7.87 4.96 3.61 5.22 6.36 11.13 11.13 15.44-3.93.37-7.87.2-11.8.16-.07-1.69.33-3.58-.82-5-2.31-3.65-4.75-7.22-6.97-10.93-3.34 0-6.69-.04-10.03-.02.01 3.93-.13 7.87.02 11.8.53 1.48 1.69 2.63 2.45 4.01-3.99.26-7.99.23-11.97.04.95-1.89 2.87-3.51 2.48-5.82-.04-9.01.02-18.01-.03-27.02.05-1.96-1.72-3.27-2.5-4.92z"/><path d="m662.44 279.12c9.47-.2 18.96-.17 28.43-.05 7.41.7 11.43 9.68 8.22 16.03-1.83 3.74-5.93 6.02-10.04 5.92-5.69-.01-11.37-.03-17.05-.02.04 3.94-.09 7.88.05 11.82.55 1.49 1.69 2.67 2.45 4.07-3.99.2-7.98.15-11.97-.01.94-1.89 2.85-3.53 2.48-5.83-.04-9.01.03-18.02-.03-27.02.26-2.06-1.65-3.3-2.54-4.91z"/><path d="m746.51 279.11c9.46-.2 18.93-.13 28.39-.06 4.01 1.05 8.09 3.81 8.98 8.12.28 3.12.6 6.63-1.49 9.26-1.72 2.82-5.04 3.77-7.9 4.99 3.74 5.11 6.33 11.12 11.18 15.34-3.95.44-7.93.23-11.89.27-.04-1.71.49-3.63-.71-5.07-2.35-3.66-4.75-7.28-7.06-10.96-3.34.04-6.67.03-9.99.02.02 3.93-.12 7.87.04 11.81.65 1.43 1.65 2.68 2.41 4.07-3.98.2-7.97.19-11.94-.04.75-1.65 2.47-2.97 2.46-4.88.01-9.32 0-18.63.01-27.95.03-1.95-1.73-3.26-2.49-4.92z"/><path d="m791.52 279.1c3.99-.17 7.99-.16 11.98.02-.77 1.65-2.55 2.96-2.48 4.91-.04 9.31-.02 18.63-.01 27.94-.07 1.95 1.7 3.26 2.48 4.92-3.99.17-7.99.19-11.97-.02.75-1.65 2.52-2.96 2.47-4.89 0-9.32.04-18.63-.01-27.94.04-1.96-1.71-3.28-2.46-4.94z"/><path d="m809.51 279.11c8.5-.23 17.01-.09 25.52-.09 5.67.17 10.79 3.61 13.42 8.57 3.63 6.3 3.63 14.52-.01 20.83-2.87 5.57-9.2 8.8-15.37 8.61-7.85-.12-15.7.13-23.54-.13.74-1.39 1.75-2.64 2.41-4.08.16-9.28-.01-18.57.09-27.86.39-2.34-1.55-3.97-2.52-5.85z"/><path d="m869.45 278.97c4.26.03 8.53.06 12.8-.02-.39 1.31-1.09 2.57-1.16 3.96 2.52 6.59 6.06 12.73 8.77 19.24 2.52 5.1 4.27 10.85 8.81 14.6-4.27.44-8.57.23-12.84.25 2.2-3.42-.1-6.68-1.41-9.92-5.64-.15-11.29-.06-16.94-.04-1.6 3.15-3.55 6.56-1.31 9.96-4.28-.02-8.57.18-12.83-.22 5.1-4.35 6.6-11.11 9.58-16.84 2.95-5.64 5.08-11.66 8.14-17.25-.54-1.24-1.1-2.48-1.61-3.72z"/><path d="m901.51 278.93c8.5.16 17.01 0 25.52.08 5.62.24 10.81 3.6 13.42 8.58 3.62 6.3 3.61 14.52 0 20.83-2.88 5.57-9.21 8.82-15.39 8.61-7.84-.11-15.69.11-23.52-.14.73-1.39 1.73-2.63 2.4-4.05.13-9.29.05-18.59.03-27.88.36-2.37-1.57-4.05-2.46-6.03z"/></g><g fill="#fefefe"><path d="m585.43 283.46c4.27-1.3 8.83.57 12.53 2.69 7.96 5.22 7.91 18.47.03 23.75-3.99 2.19-8.84 4.18-13.36 2.41-4.77-1.14-9.28-4.37-10.69-9.25-1.99-4.88-.64-10.56 2.47-14.65 2.2-2.8 5.74-3.95 9.02-4.95z"/><path d="m156.02 284.01c6.17.4 12.71-1.12 18.57 1.4 2.18 1.75 3.39 5.33 1.61 7.79-1.09 1.78-3.33 2.28-5.24 2.69-4.98.26-9.97.03-14.96.11 0-4 0-7.99.02-11.99z"/><path d="m369.03 284.03c6.19.11 12.55-.69 18.53 1.39 8.61 5.27 8.56 19.91.01 25.16-6 2.04-12.36 1.3-18.57 1.42.01-9.33-.02-18.65.03-27.97z"/><path d="m530.01 283.99c6.21.4 12.72-1.03 18.65 1.38 2.07 1.88 3.26 5.32 1.56 7.82-1.12 1.81-3.33 2.35-5.27 2.73-4.98.24-9.97 0-14.95.08 0-4.01-.01-8.01.01-12.01z"/><path d="m672 284c5.74.4 11.76-.86 17.33.74 4.91 1.17 4.93 9.36 0 10.51-5.59 1.58-11.58.37-17.33.75 0-4 0-8 0-12z"/><path d="m756.02 284.01c6.17.4 12.7-1.12 18.57 1.4 2.17 1.74 3.39 5.33 1.61 7.79-1.1 1.78-3.34 2.28-5.24 2.69-4.98.26-9.98.03-14.96.11-.01-4 0-7.99.02-11.99z"/><path d="m819 284.01c6.39.2 13.17-.88 19.18 1.82 8.04 5.52 7.69 19.65-.63 24.74-5.98 2.08-12.35 1.29-18.54 1.43-.01-9.33 0-18.66-.01-27.99z"/><path d="m910.98 284c5.38.21 10.88-.59 16.16.82 3.85.43 6.64 3.87 7.82 7.35 2.07 5.32.97 11.79-2.59 16.2-5.71 5.28-14.3 3.17-21.37 3.63-.02-9.33.03-18.67-.02-28z"/><path d="m241.72 301.96c2.2-4.44 4.09-9.03 6.18-13.52 1.94 4.54 4.2 8.95 6.08 13.52-4.09.01-8.17.03-12.26 0z"/><path d="m419.75 301.97c2.17-4.46 4.06-9.04 6.22-13.5 1.88 4.57 4.11 8.99 6.04 13.55-4.09-.04-8.17-.01-12.26-.05z"/><path d="m869.73 301.99c2.17-4.46 4.08-9.04 6.18-13.53 2.02 4.54 4.16 9.02 6.23 13.54-4.14-.02-8.28.01-12.41-.01z"/></g><path d="m0 370.97c319.67-.01 639.33-.01 959 0v1.17c-19.66.51-39.34.09-59 .22-296.67 0-593.33 0-890 .01-3.33-.03-6.67-.1-10-.16z" fill="#151795"/><path d="m0 372.21c3.33.06 6.67.13 10 .16 296.67-.01 593.33-.01 890-.01 19.66-.13 39.34.29 59-.22v230.86h-959z" fill="#0001be"/></svg>