<svg height="101.29762mm" viewBox="0 0 151.94641 101.29762" width="151.94641mm" xmlns="http://www.w3.org/2000/svg"><g transform="translate(-5.123413 -14.829247)"><path d="m5.1234126 14.829247h151.9464074v101.297623h-151.9464074z" fill="#fff"/><g stroke-width=".475058" transform="matrix(1.075586 0 0 1.075586 -9.774936 -3.187055)"><path d="m123.55286 49.534511c.00095-2.090732.99239-2.125886.74774-4.20189-.24561-2.076479.32446-2.143938.0794-4.219941-.24514-2.076004-.60428-2.033724-.85037-4.109728-.24512-2.076479.78623-2.89643-.46745-4.569584-.65462-.872682-1.37672 1.662703-2.39525 2.051776l-.0707.237529c.0219-.03943.0494-.07695.0707-.116868 0 0 4.13065 25.00801-36.025085 43.709147-.02604.01185-.06123.02566-.08888.03801.786229.333967.813305.996674 1.932061 1.187646 1.31687.224703 1.595728-1.078857 2.913065-.854628 1.317337.225652 1.284551.441329 2.60047.676007 1.777666.316388 1.609015 1.253678 3.385262 1.579569 1.775763.32589 1.76912.361044 3.545349.686933 1.775788.32589 1.818998.09073 3.594778.416629 1.68836.309737 1.6399.752016 3.55153.764843 2.19097.01418 2.11353-1.047978 4.2836-1.34774 2.17007-.300711 2.18052-.226128 4.3506-.526839 2.16958-.30024 2.2261-.615676 4.41612-.555344 2.30262.06365 2.6266 1.213773 4.44608-.0066.82755-.554393.45511-1.408548.14723-2.356289-.30784-.948216-.77624-.949641-1.08457-1.897383-.30783-.947741.29217-.98907-.0162-1.937287-.30783-.948216-.36531-1.520185-.42564-2.514958-.0765-1.249402-.56723-.982895-.39287-2.222322.17434-1.239901-.53303-.583371-.35773-1.823272.17434-1.239426.37958-1.232302.55488-2.471729.17434-1.2399.91116-1.110684 1.09263-2.349637.24038-1.6456-1.32019-1.877905-1.07269-3.523031.24751-1.645126.77149-1.566266 1.019-3.211392s-.0774-1.694533.17004-3.339183c.24892-1.646552.34584-1.528737.3468-3.192391z" fill="#00a886"/><path d="m118.56096 35.082767c-1.01902.389073-1.50547-.882658-2.524-.493585-1.019.389071-.72303.946316-1.81139 1.0228-1.33206.09358-1.48741-.554393-2.80474-.779096-1.31639-.224227-1.24134.968643-2.55772.743466-1.31639-.224226-1.32303.112111-2.6399-.112595-1.31685-.224229-1.23421-.720663-2.54964-.955342-1.77813-.316389-1.72303-.625177-3.49928-.951542-1.776244-.32589-1.953442.640853-3.730156.315438-1.776248-.32589-1.635624-1.092159-3.412339-1.418522-1.776247-.325892-1.712112-1.464606-3.518273-1.476007-2.190504-.01383-2.217113.645129-4.3867.945842-2.170054.301661-2.071247 1.016623-4.240834 1.317335-2.170546.300711-2.228027-.115917-4.398093.185273-2.16959.300712-1.603321-1.932062-3.38669-.658431-.872681.622802-.572443 2.280755-.262706 3.307354.309737 1.027078.564843.950117.874582 1.977668.309737 1.027076-.454156 1.257003-.143945 2.284554.309738 1.027552 1.152017.841328 1.216148 1.91211.07458 1.249878-.567694.756293-.742514 1.996194-.174343 1.239902-.597149 1.640851-.77197 2.881227-.175294 1.239903.422802 1.324462.248456 2.564364-.174828 1.239903-.222803 1.232777-.40475 2.471728-.240379 1.645602.581945 1.769117.333966 3.413768-.247506 1.644652-1.244178 1.315911-1.491683 2.960561-.247506 1.644652.674583 1.961992.426602 3.606642-.247505 1.645126-.505462 1.531588-.507362 3.19429-.0023 1.860329.09073 1.956765.296912 3.534909 3.673149-4.388112 6.601882-7.293568 6.601882-7.293568s8.678835-9.595224 30.787577-18.313016c.0427-.0167.0837-.0342.12676-.05083 0 0 8.0375-3.224695 10.90638-8.492614l.0707-.23753c-1.31495.219952-2.10543.597148-2.10543.597148z" fill="#fdb827"/><path d="m59.28509 89.20329c.969118-2.594291 2.314009-5.235616 3.844645-7.80758-.08123 0-.161038-.00095-.242754-.00095-18.477385 0-33.455969 2.893579-33.455969 6.462691 0 3.569111 14.978584 6.46269 33.455969 6.46269 18.476914 0 33.455959-2.893579 33.455959-6.46269 0-2.857475-9.6052-5.280271-22.91537-6.133476-1.057954.269358-1.746788.436578-1.746788.436578-6.998556 1.69976-12.395692 7.042737-12.395692 7.042737z" fill="#00529b"/></g></g></svg>