<svg height="432" width="648" xmlns="http://www.w3.org/2000/svg"><path d="m0 0h648v432h-648z" fill="#01411c"/><path d="m0 0h324v162h-324z" fill="#f90"/><g fill="#fff"><path d="m0 192h648v30h-648z"/><path d="m0 252h648v30h-648z"/><path d="m0 312h648v30h-648z"/><path d="m0 372h648v30h-648z"/><g transform="matrix(.899 0 0 .899 56.031593 6.721957)"><path d="m458.70699 8.8995552a75.564003 75.564003 0 0 0 -52.61488 71.8832558 75.564003 75.564003 0 0 0 75.56356 75.563559 75.564003 75.564003 0 0 0 68.8004-44.34397 69.266998 69.266998 0 0 1 -49.48423 20.87823 69.266998 69.266998 0 0 1 -69.2675-69.267504 69.266998 69.266998 0 0 1 27.00265-54.7135708z"/><path d="m509.699 23.804 31.83 35.809-46.799-10.261 43.893-19.206-24.221 41.338z"/></g></g></svg>