<svg height="528.047" width="793.047" xmlns="http://www.w3.org/2000/svg"><g transform="translate(-.976493 -.976511)"><path d="m.97649276.97651148h793.047v528.047h-793.047z" fill="#004614"/><path d="m396.62073 78.115105c-88.10034 0-159.51031 71.409975-159.51031 159.510315 0 88.10035 71.40997 159.51032 159.51031 159.51032s159.51032-71.40997 159.51032-159.51032c0-88.10034-71.40998-159.510315-159.51032-159.510315zm0 12.644111c81.10821 0 146.86621 65.758014 146.86621 146.866204 0 81.10821-65.758 146.86621-146.86621 146.86621-81.10818 0-146.8662-65.758-146.8662-146.86621 0-81.10819 65.75802-146.866204 146.8662-146.866204z" fill="#fff" stroke="#fff" stroke-linecap="round" stroke-width="5.139236"/><path d="m234.87537 232.49483c42.77059 0 61.62206-14.71113 91.13725-14.71113 32.36549 0 43.75481 12.9171 68.53232 12.9171 30.15222 0 31.18733-12.5583 63.50902-12.5583 29.56574 0 52.84565 16.05867 96.51937 15.06995m-318.8334 21.86887c42.77058 0 61.62206-14.71114 91.13724-14.71114 32.3655 0 43.75481 12.9171 68.53232 12.9171 30.15222 0 31.18734-12.55829 63.50902-12.55829 29.56574 0 52.84566 16.05867 96.51937 15.06995m-312.18207 21.63248c36.41684-1.88998 54.59337-14.47475 81.89225-14.47475 32.3655 0 43.75481 12.9171 68.53232 12.9171 30.15223 0 31.18734-12.55829 63.50902-12.55829 28.60716 0 51.32949 15.03424 92.33483 15.11348m-300.19112 21.27316c33.28096-2.67502 51.03417-14.15896 77.11178-14.15896 32.3655 0 43.75481 12.9171 68.53233 12.9171 30.15222 0 31.18733-12.55829 63.50901-12.55829 26.41799 0 47.81736 12.82127 83.23135 14.84599m-280.54187 20.28791c26.52778-3.92885 43.07704-12.90622 66.13374-12.90622 32.3655 0 43.75481 12.9171 68.53232 12.9171 30.15222 0 31.18734-12.5583 63.50902-12.5583 23.2834 0 42.6685 9.95922 71.18552 13.70874" fill="none" stroke="#fff" stroke-linejoin="round" stroke-width="11.239209"/><path d="m392.67103 113.65936c11.93016 5.2193 20.31704 17.1068 20.31704 30.96186 0 18.66801-15.15769 33.82569-33.8257 33.82569-9.33401 0-17.76646-3.82552-23.88332-9.94238 6.28522 12.02997 18.88042 20.263 33.39342 20.263 20.79475 0 37.66216-16.8674 37.66216-37.66216 0-19.4401-14.75432-35.44402-33.6636-37.44601z" fill="#fff"/><path d="m375.18057 155.74736-7.18384-9.1334-11.3201 2.62336 6.46646-9.65462-5.99308-9.95538 11.18033 3.16652 7.61618-8.77614.44337 11.61164 10.70013 4.53144-10.90631 4.00986z" fill="#fff"/><g fill="#004614" stroke="#fff" stroke-width="1.729109"><path d="m227.40682 237.96689-2.74649 23.83669m8.39232-1.17472-3.45822 22.04614m-26.80119-39.76951-1.29683 23.34297m-10.80693-11.54936 1.65269 24.57014m21.38461-20.15972 4.52805-36.9054m17.41771 52.06506-4.65467 23.45235m-39.89836 2.06326-5.61961-14.69743" stroke-linecap="round"/><path d="m225.05552 259.54816c4.56142 14.34986-4.85493 30.62118-10.15852 35.44674.22019-11.01614.25052-31.42735 10.15852-35.44674z"/><path d="m229.81057 279.8652c-14.87612 3.88221-11.96761 15.80334-14.69743 29.39485 7.27541-6.30378 16.72715-9.40706 14.69743-29.39485zm-27.88188-17.07496c-8.76661 9.9825.0788 23.30639 4.32277 32.20466 4.96115-11.29115 5.61012-26.06914-4.32277-32.20466z"/><path d="m192.20245 277.27153c.2482 15.7983 4.11988 28.83584 16.42653 35.44674-1.07101-18.42233-5.02844-32.51503-16.42653-35.44674zm21.83-21.39772c-9.88692 10.65176-6.19621 27.50843-.21614 35.87901 2.96885-8.61337 8.11918-26.86335.21614-35.87901z"/><path d="m211.00651 277.91995c7.3677 11.73785 8.76964 28.17571.43228 39.98565-8.94596-10.777-6.49265-28.27213-.43228-39.98565z"/><path d="m210.79037 324.82203c-1.8581-10.64209 5.99392-22.75224 20.53317-29.17871.22289 21.51997-9.23868 31.84524-20.53317 29.17871z"/><path d="m214.6273 325.25094c-16.29498-.85202-21.39875-12.43676-23.96517-27.01733 11.59433 3.53836 19.28727 12.52795 23.96517 27.01733z" stroke-linejoin="round"/><path d="m158.36457 326.40467 16.85882 22.47842m-12.57949-39.38518 10.80693 21.18158m7.98627-13.5227-20.74931-32.85307m16.16881 75.59158 17.2911 7.34871m-3.68522-59.04294-10.80694-18.15564m26.92331 32.08891-5.18733-13.83287m18.5935 26.93037-8.12634-15.06535" stroke-linecap="round"/><path d="m171.88542 327.90678c9.69297-3.36749 19.70634-.4832 21.61386 21.18159-13.1191-3.24457-21.72611-10.45843-21.61386-21.18159zm18.15564-20.53317c13.90609 7.10235 18.40265 24.48989 15.28254 35.80485-11.80695-4.43938-19.68829-21.16319-15.28254-35.80485z"/><path d="m206.4676 321.20648c-7.69954 13.97838-1.83648 26.64426 8.21327 38.90496 1.71589-13.79307 5.08195-27.89173-8.21327-38.90496zm-28.31416-8.86168c-2.95479 9.3791 7.0737 30.38802 22.47841 28.31416-2.62651-13.22366-11.20649-25.68116-22.47841-28.31416zm-4.97119 34.1499c7.1227 15.12577 21.42926 16.98902 35.87901 18.58793-11.07786-11.19289-21.50151-26.09299-35.87901-18.58793z"/><path d="m190.47334 334.60708c14.22433 4.15487 24.56438 12.90026 26.15277 31.98852-15.54889-4.37804-25.00526-14.36121-26.15277-31.98852z"/><path d="m219.65205 334.1748c-7.59998 17.39883-6.28751 31.51414 7.99713 40.8502 6.45726-18.87998.35825-30.51597-7.99713-40.8502z"/><path d="m190.90562 365.94718c14.72573-6.6334 28.35413-5.80495 40.20178 7.13258-16.53995 6.75514-30.00178 4.55575-40.20178-7.13258z"/><path d="m201.06413 386.69649c95.55248-39.27775 82.90567 40.19631 141.35467 27.44961-37.93563-3.11325-58.40343-85.50434-141.35467-27.44961z"/><path d="m437.95208 451.97036c2.73521 2.54876 3.95895 1.73194 6.26802 0 2.13654-1.60254 3.75932-4.02232-.21614-6.05188-15.84331-8.08833-33.86241-30.69169-91.64278-30.69169l-68.95086-.917-7.34872 7.78099 74.13819-.81211c30.53339-.33446 61.61229 6.33352 87.75229 30.69169z"/><path d="m228.72088 432.29088 21.258-.81211m-47.61792-19.27792 26.80119 10.5537m-48.41505-55.94281 35.87901 23.77525m28.88392-9.30482-12.10377-12.10377m32.98418 17.59675-14.01192-10.50126m-56.50172 15.17765 23.16392 14.4442" stroke-linecap="round"/><path d="m215.35409 403.69683c14.2683-9.4243 30.50258-.64447 30.56662 6.8775-9.84476 3.55586-23.10348 7.03185-30.56662-6.8775z"/><path d="m222.99575 376.49253c-.47573 14.43782 12.9627 25.47405 27.81562 24.14762-3.49082-15.6315-20.12354-24.8464-27.81562-24.14762z"/><path d="m213.5201 388.41351c2.1088 11.24876 19.69806 16.53921 32.09494 12.83798-2.28656-11.48946-24.31368-17.10879-32.09494-12.83798z"/><path d="m244.39238 379.70202c15.8975 1.72596 21.2953 15.89345 23.0778 26.74581-14.02375-3.10452-28.35947-8.51166-23.0778-26.74581zm-20.7853 40.80644c9.94972-12.90201 24.51601-10.80017 40.95927-2.59816-12.67468 12.85162-26.67009 9.52424-40.95927 2.59816z"/><path d="m235.52806 398.959c14.63634-5.69108 35.48789 2.40033 36.83278 16.65881-14.8711 4.04572-37.83935.39111-36.83278-16.65881z"/><path d="m263.95502 384.89835c12.19076 6.0259 25.24003 11.16804 23.99479 31.02512-24.92401 6.06689-23.90308-14.65408-23.99479-31.02512z"/><path d="m244.90492 431.73786c16.74141 2.9338 31.36761-.42717 43.02251-15.39794-12.66916-4.44414-32.45923-1.49082-43.02251 15.39794z" stroke-linejoin="round"/><path d="m223.28483 376.98111-9.07782-9.5101" stroke-linecap="round"/><path d="m292.70691 432.0856h20.31704c18.7368-13.43386 26.15635-28.90411 57.92515-30.25941 11.58835-.49437 22.39124 10.28355 24.63981 15.12971-15.18141-8.15674-26.9209-5.409-44.09229 13.40059-8.23059 9.01582-18.92688 14.59676-33.28535 15.56199-19.22382 1.29228-18.91037-8.10214-25.50436-13.83288z"/><path d="m567.59317 237.96689 2.74649 23.83669m-8.39232-1.17472 3.45822 22.04614m26.80119-39.76951 1.29683 23.34297m10.80693-11.54936-1.71057 24.24593m-21.32673-19.83551-4.52805-36.9054m-17.41771 52.06506 4.65467 23.45235m39.51628 2.78809 5.61961-15.34585" stroke-linecap="round"/><path d="m569.94447 259.54816c-4.56142 14.34986 4.85493 30.62118 10.15852 35.44674-.22019-11.01614-.25052-31.42735-10.15852-35.44674z"/><path d="m565.18942 279.8652c14.87612 3.88221 11.96761 15.80334 14.69743 29.39485-7.27541-6.30378-16.72715-9.40706-14.69743-29.39485zm27.88188-17.07496c8.76661 9.9825-.0788 23.30639-4.32277 32.20466-4.96115-11.29115-5.61012-26.06914 4.32277-32.20466z"/><path d="m602.79754 277.27153c-.2482 15.7983-4.11988 28.83584-16.42653 35.44674 1.07101-18.42233 5.02844-32.51503 16.42653-35.44674zm-21.83-21.39772c9.88692 10.65176 6.19621 27.50843.21614 35.87901-2.96885-8.61337-8.11918-26.86335-.21614-35.87901z"/><path d="m583.99348 277.91995c-7.3677 11.73785-8.76964 28.17571-.43228 39.98565 8.94596-10.777 6.49265-28.27213.43228-39.98565z"/><path d="m584.20962 324.82203c1.8581-10.64209-5.99392-22.75224-20.53317-29.17871-.22289 21.51997 9.23868 31.84524 20.53317 29.17871z"/><path d="m580.37269 325.25094c16.29498-.85202 21.39875-12.43676 23.96517-27.01733-11.59433 3.53836-19.28727 12.52795-23.96517 27.01733z" stroke-linejoin="round"/><path d="m636.63542 326.40467-16.85882 22.47842m12.57949-39.38518-10.80693 21.18158m-7.98627-13.5227 20.74931-32.85307m-16.16881 75.59158-17.2911 7.34871m3.68522-59.04294 10.80694-18.15564m-26.92331 32.08891 5.18733-13.83287m-19.24191 27.14651 9.96351-14.74114" stroke-linecap="round"/><path d="m623.11457 327.90678c-9.69297-3.36749-19.70634-.4832-21.61386 21.18159 13.1191-3.24457 21.72611-10.45843 21.61386-21.18159zm-18.15564-20.53317c-13.90609 7.10235-18.40265 24.48989-15.28254 35.80485 11.80695-4.43938 19.68829-21.16319 15.28254-35.80485z"/><path d="m588.53239 321.20648c7.69954 13.97838 1.83648 26.64426-8.21327 38.90496-1.71589-13.79307-5.08195-27.89173 8.21327-38.90496zm28.31416-8.86168c2.95479 9.3791-7.0737 30.38802-22.47841 28.31416 2.62651-13.22366 11.20649-25.68116 22.47841-28.31416zm4.97119 34.1499c-7.1227 15.12577-21.42926 16.98902-35.87901 18.58793 11.07786-11.19289 21.50151-26.09299 35.87901-18.58793z"/><path d="m604.52665 334.60708c-14.22433 4.15487-24.56438 12.90026-26.15277 31.98852 15.54889-4.37804 25.00526-14.36121 26.15277-31.98852z"/><path d="m575.34794 334.1748c7.59998 17.39883 6.28751 31.51414-7.99713 40.8502-6.45726-18.87998-.35825-30.51597 7.99713-40.8502z"/><path d="m604.09437 365.94718c-14.72573-6.6334-28.35413-5.80495-40.20178 7.13258 16.53995 6.75514 30.00178 4.55575 40.20178-7.13258z"/><path d="m593.93586 386.69649c-95.55248-39.27775-82.90567 40.19631-141.35467 27.44961 37.93563-3.11325 58.40343-85.50434 141.35467-27.44961z"/><path d="m357.04791 451.97036c-2.73521 2.54876-3.95895 1.73194-6.26802 0-2.13654-1.60254-3.75932-4.02232.21614-6.05188 15.84331-8.08833 33.86241-30.69169 91.64278-30.69169l68.95086-.917 7.34872 7.78099-74.13819-.81211c-30.53339-.33446-61.61229 6.33352-87.75229 30.69169z"/><path d="m566.27911 432.29088-21.18159-1.4049m47.54151-18.68513-26.47699 10.69886m48.09085-56.08797-35.87901 23.77525m-28.88392-9.30482 12.10377-12.10377m-33.45355 18.11856 14.48129-11.02307m56.50172 15.17765-23.45105 14.37322" stroke-linecap="round"/><path d="m579.6459 403.69683c-14.2683-9.4243-30.50258-.64447-30.56662 6.8775 9.84476 3.55586 23.10348 7.03185 30.56662-6.8775z"/><path d="m572.00424 376.49253c.47573 14.43782-12.9627 25.47405-27.81562 24.14762 3.49082-15.6315 20.12354-24.8464 27.81562-24.14762z"/><path d="m581.47989 388.41351c-2.1088 11.24876-19.69806 16.53921-32.09494 12.83798 2.28656-11.48946 24.31368-17.10879 32.09494-12.83798z"/><path d="m550.60761 379.70202c-15.8975 1.72596-21.2953 15.89345-23.0778 26.74581 14.02375-3.10452 28.35947-8.51166 23.0778-26.74581zm20.7853 40.80644c-9.94972-12.90201-24.51601-10.80017-40.95927-2.59816 12.67468 12.85162 26.67009 9.52424 40.95927 2.59816z"/><path d="m559.47193 398.959c-14.63634-5.69108-35.48789 2.40033-36.83278 16.65881 14.8711 4.04572 37.83935.39111 36.83278-16.65881z"/><path d="m531.04497 384.89835c-12.19076 6.0259-25.24003 11.16804-23.99479 31.02512 24.92401 6.06689 23.90308-14.65408 23.99479-31.02512z"/><path d="m550.14911 431.35962c-16.74142 2.9338-32.30342.43848-43.0698-14.87402 14.84941-6.69191 32.50651-2.01474 43.0698 14.87402z" stroke-linejoin="round"/><path d="m571.71516 376.98111 9.07782-9.5101" stroke-linecap="round"/><path d="m502.29308 432.0856h-20.31704c-18.7368-13.43386-26.15635-28.90411-57.92515-30.25941-11.58835-.49437-22.39124 10.28355-24.63981 15.12971 15.18141-8.15674 26.9209-5.409 44.09229 13.40059 8.23059 9.01582 18.92688 14.59676 33.28535 15.56199 19.22382 1.29228 18.91037-8.10214 25.50436-13.83288z"/></g></g></svg>