<svg height="500" width="800" xmlns="http://www.w3.org/2000/svg" xmlns:xlink="http://www.w3.org/1999/xlink"><defs><path id="a" d="m0 0 .588 1.81h1.902l-1.539 1.12.589 1.81-1.54-1.12-1.54 1.12.589-1.81-1.539-1.12 1.9-.000011z" fill="#fff" transform="scale(12)"/></defs><path d="m0 0h800v500h-800z" fill="#003796"/><use transform="translate(182 153)" xlink:href="#a"/><use transform="translate(618 153)" xlink:href="#a"/><use transform="translate(400 56)" xlink:href="#a"/><path id="b" d="m400 208c-40 1-29 39-51 44-23.9 5.43-28-25-58-18-25.8 6.02-17.4 42.9-36 54-10 6-38-10-57 3-24.1 16.5 1.05 54.9 19 72 43 41 93 46 126 87l6 3h51c5 0 2-245 0-245z" fill="#fff"/><use transform="matrix(-1 0 0 1 800 0)" xlink:href="#b"/></svg>