<svg height="691.59998" viewBox="-1 -1 524.08911 349.00927" width="1037.4" xmlns="http://www.w3.org/2000/svg"><g transform="translate(-418.3013 585.31871)"><path d="m417.3013-586.49976h524.08911v349.39273h-524.08911z" fill="#0a4fa2" fill-rule="evenodd"/><g transform="matrix(.49588149 0 0 .49575714 320.63821 -208.15134)"><path d="m875.17217-412.30161c0 92.00819-67.96249 166.59558-151.79845 166.59558-83.83593 0-151.79839-74.58739-151.79839-166.59558 0-92.00817 67.96246-166.59555 151.79839-166.59555 83.83596 0 151.79845 74.58738 151.79845 166.59555z" fill="#d5d6d8"/><path d="m715.79403-566.65123 4.44488-12.21217c2.04662-.13047 4.16718-.0391 6.27031 0l4.44488 12.21217z" fill="#0a4fa2"/><path d="m723.38775-256.16609c41.64231 0 79.10112-19.6797 105.09681-51.03793l-210.22165-210.2008c26.00328-31.34016 63.47253-51.03226 105.12797-51.03226 41.64605 0 79.10789 19.68326 105.09035 51.05053l-210.19762 210.18648c25.99733 31.35128 63.4587 51.03398 105.10414 51.03398z" fill="#deb308"/><path d="m744.93384-443.37099v3.92268h-43.24558v-3.92268h18.70965v-55.65074l-16.67763-4.38347 9.29756-25.64652-8.61056 1.05978 18.90377-50.91865 18.90387 50.91865-8.61066-1.05978 9.29736 25.64652-16.67733 4.38347v55.65074z" fill="#32b457"/><path d="m740.86525-491.81899-17.5542 6.01199-17.5542-6.01199" fill="none" stroke="#32b457" stroke-width="3.056727"/><path d="m740.86525-496.47271-17.5542 6.01199-17.5542-6.01199" fill="none" stroke="#32b457" stroke-width="3.056727"/><path d="m650.92993-449.94297-8.75368 41.87386 8.75368 42.91967h-20.8848l8.80125-42.91967-8.80125-41.87386z"/><path d="m632.21344-453.1057c0 1.87905-1.52327 3.40234-3.40233 3.40234s-3.40233-1.52329-3.40233-3.40234 1.52327-3.40234 3.40233-3.40234 3.40233 1.52329 3.40233 3.40234z"/><path d="m655.88989-453.1057c0 1.87905-1.52329 3.40234-3.40234 3.40234s-3.40236-1.52329-3.40236-3.40234 1.52331-3.40234 3.40236-3.40234 3.40234 1.52329 3.40234 3.40234z"/><path d="m632.21344-361.94301c0 1.87907-1.52327 3.40234-3.40233 3.40234s-3.40233-1.52327-3.40233-3.40234c0-1.87905 1.52327-3.40232 3.40233-3.40232s3.40233 1.52327 3.40233 3.40232z"/><path d="m655.88989-361.94301c0 1.87907-1.52329 3.40234-3.40234 3.40234s-3.40236-1.52327-3.40236-3.40234c0-1.87905 1.52331-3.40232 3.40236-3.40232s3.40234 1.52327 3.40234 3.40232z"/><path d="m598.06969-417.82642 41.87386 8.7529 42.91891-8.75367v20.88478l-42.91891-8.80045-41.87386 8.80045z"/><path d="m598.30968-395.708c0 1.87929-1.52344 3.40274-3.40273 3.40274-1.87926 0-3.40271-1.52345-3.40271-3.40274 0-1.87926 1.52345-3.40271 3.40271-3.40271 1.87929 0 3.40273 1.52345 3.40273 3.40271z"/><path d="m598.30968-419.38442c0 1.87928-1.52344 3.40272-3.40273 3.40272-1.87926 0-3.40271-1.52344-3.40271-3.40272s1.52345-3.40272 3.40271-3.40272c1.87929 0 3.40273 1.52344 3.40273 3.40272z"/><path d="m689.47162-395.708c0 1.87929-1.52345 3.40274-3.40273 3.40274-1.87925 0-3.40273-1.52345-3.40273-3.40274 0-1.87926 1.52348-3.40271 3.40273-3.40271 1.87928 0 3.40273 1.52345 3.40273 3.40271z"/><path d="m689.47123-419.38481c0 1.87905-1.52328 3.40233-3.40234 3.40233s-3.40233-1.52328-3.40233-3.40233c0-1.87906 1.52327-3.40234 3.40233-3.40234s3.40234 1.52328 3.40234 3.40234z"/><path d="m800.74891-455.29964h14.25569v94.39566h-14.25569z"/><path d="m760.67893-415.22965h94.39565v14.25567h-94.39565z"/><path d="m795.64385-449.13502h24.4658v11.17338h-24.4658z"/><path d="m795.64385-378.242h24.4658v11.17336h-24.4658z"/><path d="m766.84354-420.33471h11.17338v24.46581h-11.17338z"/><path d="m837.7366-420.33471h11.17335v24.46581h-11.17335z"/><path d="m697.82297-310.72937h51.52975v45.3909s-.27011 2.8059-3.80875 2.8059h-10.5148s-10.21148-2.64779-16.47992-10.96946-19.61416-8.60537-20.72628-8.60537z" fill="#00aeef"/><g fill="none" stroke="#deb308" stroke-width="3.056727"><path d="m707.78698-303.09397v27.22402"/><path d="m718.30312-303.09397v33.77895"/><path d="m728.81927-303.03019v39.82722"/><path d="m739.3354-303.09397v41.84482"/></g><g fill="#00aeef"><path d="m700.09572-315.22402s-9.14133 0-14.66632-5.48832c-5.52498-5.48834-5.42452-14.9682-5.42452-14.9682h86.82466s.10059 9.47986-5.42454 14.9682c-5.52501 5.48832-14.66633 5.48832-14.66633 5.48832z"/><path d="m673.38269-349.99193h100.53879v10.63651h-100.53879z"/></g></g></g></svg>