<svg viewBox="0 0 2400 1600" xmlns="http://www.w3.org/2000/svg" xmlns:xlink="http://www.w3.org/1999/xlink"><clipPath id="a"><path d="m28.6065-319.4076h3751.4409v2652.535h-3751.4409z"/></clipPath><path d="m0 0h2400v1600h-2400z" fill="#fff"/><g clip-path="url(#a)"><path d="m1371.5969 198.2523a168.43 168.43 0 0 0 -120.8461 50.6822c11.639 10.4538 24.9624 22.2175 37.0247 32.4529a120.0791 120.0791 0 0 1 203.9054 85.9826c0 32.5286-12.2 61.9247-35.26 84.9977l-225.45 225.8289-186.4738-186.7813a337.6448 337.6448 0 0 1 -55.21 14.0809l224.34 224.706c4.5986 4.6074 12.37 10.271 17.3427 10.271 5.1867 0 12.7485-5.6636 17.3426-10.271l242.766-243.18c32.4484-32.4618 49.6039-73.84 49.6039-119.6518 0-93.2458-75.85-169.1177-169.0864-169.1177" fill="#8fc045"/><g fill="#0d52a0"><path d="m1613.07 469.6583c-22.85-3.8544-44.5018-8.4842-65.387-13.8537-12.2985 20.5376-19.1339 29.454-31.1071 42.4076 17.0307 4.9015 34.4714 9.2862 52.5136 13.0738q-3.69 5.7682-7.2855 11.43c-81.29 127.6325-135.7691 213.2094-54.9555 376.82-16.6119 18.6349-41.7926 36.7395-73.9068 53.1509-46.1283-18.1715-87.7248-27.3642-123.7737-27.3642-71.3446 0-110.4993 35.7949-126.1085 75.0431-121.02-10.9661-195.9293-72.4051-223.2132-99.15 55.0625-89.5339 69.139-173.2037 41.8327-248.8885-29.289-81.2373-101.7213-125.8553-144.9219-145.0427-.6907-7.0494-1.671-21.6338-2.834-29.757a392.2811 392.2811 0 0 0 69.09 6.274h.0267c103.4321 0 203.6915-44.3325 292.45-128.6708a467.7594 467.7594 0 0 1 -36.9935-32.3905c-79.0446 74.339-164.7776 112.0277-255.4566 112.05h-.0267a354.2169 354.2169 0 0 1 -92.925-12.8644c-8.1945-2.2013-21.7585-5.5566-28.0993.3921-6.1448 5.7482-4.0327 19.74-2.3617 28.0682 4.8748 24.41 8.7961 62.62 9.166 74.1519.5258 16.8525 1.916 18.0422 17.4585 23.4785 18.265 6.4077 99.8049 39.0878 129.33 120.9262 23.3984 64.888 7.4816 139.3473-47.0283 221.4977-9.0413 13.6308-8.6357 16.0638 1.1986 28.8123 3.9213 5.0575 99.6445 122.3655 290.1419 131.38 22.6854 1.0561 21.4689-1.2342 25.1585-19.936 7.0716-35.7547 37.4524-56.3369 84.1154-56.3369 32.2434 0 70.9079 9.665 115.3563 27.7964 9.4556 3.8633 10.7968 3.8633 20.0162-.5213 51.7918-24.65 89.2443-53.445 111.3637-85.1715 7.9718-11.4341 7.8247-13.72 1.6042-25.4927-78.22-147.72-36.6549-212.7149 45.6515-341.9292q12.8265-20.1588 26.6957-42.2382c10.1016-16.1307 11.7192-32.3459-16.7857-37.145"/><path d="m975.6781 403.1154a120.142 120.142 0 0 1 114.6434-155.83 119.0968 119.0968 0 0 1 73.1671 24.8108c41.77 33.8387 59.7011 54.3317 92.1674 81.9276 51.2348 43.57 104.7154 78.8618 157.844 104.7555 9.3264-9.83 21.7808-23.4206 34.65-37.849-56.39-25.6932-117.562-67.1962-167.509-110.0225-27.4488-23.5632-61.55-54.8-72.022-64.4513-.0089-.0133-.0178-.0133-.0178-.0222a168.3875 168.3875 0 0 0 -118.2794-48.1825c-93.2279 0-169.0731 75.8719-169.0731 169.1176a170.0025 170.0025 0 0 0 4.808 40.2107 275.5246 275.5246 0 0 0 49.6217-4.4648"/></g></g></svg>