<svg height="205.49mm" viewBox="0 0 307.02 205.49" width="307.02mm" xmlns="http://www.w3.org/2000/svg"><path d="m0 0h307.02v205.49h-307.02z" fill="#fff"/><g transform="translate(217.77 47.65)"><path d="m-63.106-23.451c-18.186-.35533-34.356 8.7233-43.859 22.733.17386.20178.33122.39594.467.57106.1028.11929.19417.23858.27665.33629.0558.005076.099.016497.1396.027919.67639.12183 1.6891.30457 2.5609 1.0939.54568.49619.89848 1.047 1.1827 1.4886.12056.18909.28807.44924.36421.52538.14721.14594.37563.31599.61929.50254.38959.29822.83629.63325 1.2678 1.0749.36167.36802.69289.74111 1.0101 1.1053.21827.26269.4302.50381.64721.7335.1637.18147.39467.38198.63198.59898.35787.31853.75888.68274 1.1485 1.1256.49746.5533.78172 1.1396 1.0076 1.6091.09264.17386.22462.43782.27919.51776v-.0051c.34898.41117.68401.83883 1.0063 1.2462l.50507.63578c.0901.10914.30457.29568.50127.45812.38325.32868.86294.7335 1.2817 1.2893.32106.41878.58122.8236.83248 1.2221.19036.2868.36421.55457.53553.79568.40355.5533.65355 1.1193.85913 1.5799.10787.25.217.51396.31091.63705.08883.12436.27665.32233.47716.52665.33376.3401.74238.76522 1.1091 1.3071.38198.56852.60406 1.1497.78426 1.6142.0698.18274.14594.37056.20812.50761.06599.04822.15482.10533.22843.15609.47081.31726 1.1916.80203 1.6967 1.6269.28172.46193.47208.92512.62563 1.3185l.99111.67259c1.6142 1.0863 2.2931.52157 1.5101-1.2589l-9.1116-20.764c-.77918-1.7843-.45939-1.9708.71446-.42005l13.584 17.969c1.1751 1.5533 1.9975 1.2386 1.8325-.70177l-1.9099-22.539c-.1637-1.9391.20685-2.0114.81852-.16878l6.571 21.277c.62182 1.849 1.4353 1.7995 1.816-.10787l3.6751-21.944c.38071-1.9175.76015-1.8832.84517.059644l.93654 22.44c.08249 1.9454.93781 2.1548 1.915.47335l11.213-19.416c.97208-1.6853 1.3185-1.5393.76269.32995l-6.3502 21.435c-.5533 1.8629.19797 2.3426 1.6662 1.0685l16.824-14.601c1.4657-1.2766 1.7513-1.0203.61929.56345l-9.6802 13.58c.49112-.01523.98731-.03299 1.3706-.24492.78807-.42386 1.2462-1.5025 2.0571-1.8997.81218-.38832 1.8731-.25254 2.7005-.61421.81852-.36421 1.3909-1.335 2.2195-1.67.83122-.33249 1.7005-.57233 2.5292-.87563.91243-.33629 1.7576-.8566 2.6561-1.1599.90609-.29949 1.8642-.43528 2.7551-.70685.88324-.27538 1.9632.10914 2.8325-.13706.9467-.2665 1.6726-1.2779 2.5876-1.5114.92258-.23985 1.9175-.09518 2.7881-.30203.94924-.22589 1.9213-.19289 2.8071-.38198.95812-.20812 1.8071-.71066 2.6777-.8769.16878-.03426.34391-.04822.51776-.05457-6.4073-20.752-25.537-36.025-48.447-36.472z" fill="#f15a38"/><path d="m-70.955 76.788c.0013-.05076.0203-.10279.03172-.14848-.03426-.0698-.07868-.14848-.12056-.21447-.24492-.43655-.58883-1.0343-.75254-1.7982-.06091-.29315-.15736-.62436-.2665-.97715-.12183-.38706-.25508-.82995-.36421-1.297-.13452-.60533-.15102-1.1751-.17513-1.6307-.0089-.28299-.02031-.57233-.05457-.7132-.11675-.48858-.18528-.94289-.24619-1.3579-.04949-.34264-.09391-.67259-.16117-.93654-.05584-.22843-.17132-.50888-.29188-.81345-.15736-.39721-.34644-.85025-.47589-1.3706l-.13579-.49873-.4505-1.7056c-.07741-.27284-.19289-.58248-.31599-.90736-.13959-.37183-.29568-.78426-.42386-1.2322-.23096-.78807-.20431-1.5254-.18147-2.0533.0063-.1599.01269-.34898.0076-.44289-.09645-.30711-.21954-.63452-.35406-.97969-.13959-.36294-.28553-.7335-.41244-1.1396-.03553-.07487-.17005-.25254-.26777-.3934-.30076-.41117-.70939-.97462-.96066-1.7119-.06726-.20812-.20304-.48731-.35279-.77665-.19416-.38452-.42259-.82487-.59644-1.3287-.13959-.39594-.29188-.79061-.45431-1.2018l-.35406-.9302c-.33122-.88578-.2703-1.7348-.23223-2.2893.0089-.0736.01396-.16244.01777-.23985-.0901-.19036-.20304-.40863-.33883-.64213-.20812-.38578-.45431-.81979-.6599-1.3185-.05076-.13452-.21954-.3731-.36929-.60279-.25634-.38198-.57614-.85533-.81979-1.434-.20304-.48223-.34644-.94162-.47208-1.3452-.09898-.32233-.19036-.6269-.28299-.83883-.16878-.38071-.31091-.75127-.45178-1.1079-.14721-.3604-.28426-.70177-.4264-1.0051l-.42766-.94416c-.18909-.4264-.37183-.83248-.56091-1.2208-.06599-.1434-.24746-.3769-.42386-.60279-.27919-.35914-.61929-.80456-.90101-1.3579-.30837-.6066-.45685-1.1954-.57868-1.6637-.04061-.14974-.08756-.33883-.12183-.46193-.07233-.06345-.1637-.13579-.23858-.20178-.43401-.34518-1.0279-.8236-1.4505-1.5888-.41751-.74111-.53807-1.4873-.62944-2.0228-.02284-.14467-.0533-.32868-.07868-.41497-.27538-.48477-.45939-.96192-.61167-1.3528-.07741-.20304-.15355-.40863-.22589-.55837-.07234-.05203-.16117-.11421-.23604-.16624-.48604-.32106-1.1447-.76269-1.6307-1.5381-.35914-.54949-.57106-1.1015-.74238-1.5495-.0901-.22335-.1967-.5038-.26396-.59898-.10025-.15355-.30076-.35533-.51269-.57487-.32233-.32868-.6802-.70304-1.0127-1.1789-.37436-.54061-.61421-1.0812-.8071-1.5152-.10406-.22589-.22589-.50888-.29188-.60406-.27284-.37183-.50634-.7335-.71066-1.0596-.20685-.32106-.40609-.6269-.59137-.86675-.09391-.12183-.3236-.31472-.54188-.50254-.34518-.29949-.78045-.67005-1.1662-1.151l-.53299-.67005c-.31218-.39594-.60406-.76776-.8972-1.1155-.46954-.55203-.74874-1.1167-.96447-1.5749-.0825-.16244-.19543-.38832-.24746-.4632-.20305-.22335-.46066-.45558-.7335-.7005-.29315-.2665-.62563-.57106-.95558-.91497-.27792-.30076-.52792-.58502-.77665-.87056-.27284-.31853-.53299-.62056-.77918-.86802-.17894-.18274-.44797-.37817-.72589-.59644-.32741-.25254-.6967-.53172-1.0634-.88198-.5203-.50254-.85913-1.0393-1.1396-1.4645-.0546-.083756-.11548-.1764-.16624-.26142-.0558-.011421-.1066-.017766-.15228-.029188-.61929-.11294-1.5558-.28426-2.3541-.96573-.1472-.12944-.28807-.25888-.41751-.38452-3.7259 6.9708-5.92 14.906-6.0863 23.353-.51522 26.595 19.118 48.882 44.878 52.306-.04822-.17766-.09772-.35533-.13198-.54441-.16751-.92385.03046-1.731.16751-2.2728z" fill="#00ac6c"/><path d="m-75.51 43.785c.08629.21193.23223.47208.38578.75761.23223.41624.5.88959.72208 1.4442.34518.90355.28172 1.7538.24238 2.3261-.0051.08756-.0165.20051-.01904.28426l.26396.68401c.17005.43528.34264.88071.50888 1.3515.07233.19543.20685.45558.34137.73096.20939.42005.4467.88832.63705 1.4467-.0165-.03426-.02411-.0533-.02411-.0533.04188.06726.17513.25634.2665.3934.31599.4302.73984 1.019.98984 1.7957.09137.28046.21066.58248.33249.91497.17005.43401.3401.88198.48985 1.3756.24492.79949.2132 1.5482.19797 2.1002-.01396.15228-.01396.35787-.01396.45304.07868.23858.17513.51269.28553.79822.15736.40482.32868.85913.467 1.3617l.47081 1.769.13325.50634c.0533.20431.15609.47335.27538.76015.17132.4302.36421.92005.50888 1.481.12183.51015.19416 1.0025.26269 1.4365.04822.33376.09391.65482.15736.92005.14467.62309.16878 1.2119.18782 1.6827.0063.27919.02411.56472.05964.72716.06472.27284.15863.57741.25508.90482.12183.40482.26142.86294.37183 1.3553.03046.07487.1231.24365.19543.36675.25888.45051.61421 1.0673.76776 1.8642.18909.92512-.01777 1.7551-.15102 2.2957-.02411.07868-.04315.17005-.06091.25381.04822.16244.10533.36548.1764.58122.12183.35279.24112.75127.33756 1.1878.13071.0051.24492.0165.36548.0165 15.305.29822 29.181-6.0761 38.851-16.444-17.964-13.807-40.028-18.646-49.391-20.159.05584.10914.10406.21954.15228.32868z" fill="#005baa"/><path d="m-12.642 29.326c.07234-3.9302-.30457-7.7627-1.0647-11.454-.3198.05584-.64721.10787-.96319.16497-.88578.1599-1.6751.73731-2.5178.90482-.86675.1764-1.6916.44162-2.5254.63325-.91624.21193-1.8426.24492-2.7183.47589-.89086.22208-1.8426.14848-2.6954.39086-.86167.25-1.585.92132-2.3997 1.184-.90355.28934-1.8502.3604-2.6992.6637-.87056.30584-1.8579.26142-2.6777.58248-.82995.33122-1.5114.99746-2.2881 1.335-.8604.36675-1.8173.47208-2.6079.84771-.8769.41624-1.5228 1.2119-2.3147 1.632-.82106.42893-1.6409.78172-2.3832 1.217-.81345.47462-1.698.76776-2.42 1.2335-.80076.51142-1.3541 1.2957-2.0482 1.7868-.79822.57233-1.3972 1.2982-2.0622 1.8312-.77284.62309-1.7145.91243-2.3134 1.467-.60787.55203-1.2678.93274-1.7817 1.3414l-1.1561 1.8591c-.24238.87563-.24238 1.5203-.61294.98096l-2.5 4.0152c10.487 3.2094 23.048 8.5012 34.214 17.194 6.4073-8.4327 10.311-18.891 10.535-30.287z" fill="#faa61a"/></g><g fill="#2c2c2b" transform="matrix(.96227136 0 0 .96227136 -209.721954 -146.507568)"><path d="m406.29 307.67v17.515h4.8869v-8.1552h4.2758v-3.8542h-4.2758v-5.5061zm-19.911.4844v15.217h17.025v-3.851h-12.141v-11.366zm5.4851 19.187v14.095h19.313v-14.095zm4.8949 3.858h9.531v6.3862h-9.531z"/><path d="m1547 687.71v12.643h-19.115v14.014h19.115v9.1973h-19.115v14.029h19.115v15.779h17.803v-65.662zm-81.799 3.2988v14.346h37.232s1.3121 28.543-39.607 34.559l7.0957 12.314c12.984-1.1093 39.09-7.6597 49.467-33.479 0 0 4.746-12.421 4.4551-27.74zm62.014 60.709c-19.738 0-35.732 14.493-35.732 32.383 0 17.879 15.995 32.355 35.732 32.355 19.742 0 35.748-14.476 35.748-32.355 0-17.89-16.007-32.383-35.748-32.383zm0 15.021c9.5544 0 17.295 7.7779 17.295 17.361s-7.7406 17.342-17.295 17.342c-9.5615 0-17.301-7.7584-17.301-17.342s7.7392-17.361 17.301-17.361z" transform="matrix(.27495 0 0 .27495 -101.42 118.58)"/><path d="m443.52 336.07v-9.317h8.256v-3.849h-17.615v-10.243h17.615v-3.848h-22.502v17.94h9.357v9.317h-11.724v3.856h27.24v-3.856z"/><path d="m364.15 307.67v18.052h4.888v-8.6944h4.2752v-3.852h-4.2752v-5.5061zm-16.518.65624v1.8028c0 .708.29082 8.9803-7.5022 11.921l2.096 3.155s5.4362-1.5512 8.5682-6.9442c2.725 4.766 8.4479 6.136 8.4479 6.136l1.9902-3.286c-7.642-2.541-7.5983-10.205-7.5983-11.025v-1.7598zm10.912 16.943c-5.423 0-9.82 3.9848-9.82 8.9038 0 4.916 4.397 8.8963 9.82 8.8963 5.424 0 9.8232-3.9803 9.8232-8.8963 0-4.919-4.3992-8.9038-9.8232-8.9038zm0 4.1302c2.623 0 4.75 2.1386 4.75 4.7736s-2.1269 4.7682-4.75 4.7682c-2.627 0-4.7537-2.1332-4.7537-4.7682s2.1267-4.7736 4.7537-4.7736z"/></g></svg>