<svg height="450" viewBox="0 0 180 90" width="900" xmlns="http://www.w3.org/2000/svg" xmlns:xlink="http://www.w3.org/1999/xlink"><clipPath id="a"><path id="b" d="m31 45c0 10 7 20 23 25 16-5 23-15 23-25v-25h-46z"/></clipPath><path d="m0 0h180v90h-180z" fill="#090"/><path d="m0 0h180v60h-180z" fill="#fff"/><path d="m0 0h180v30h-180z" fill="#009"/><g clip-path="url(#a)"><use fill="#009" xlink:href="#b"/><path d="m32 62.5h44v-9.5c-22 3-22-3-44 0z" fill="#090"/><path d="m32 56.5c22-3.5 22 3.5 44 0" fill="none" stroke="#009" stroke-width=".4"/><g fill="#fff"><path d="m48 47h-17v-9h46v9h-17v-5c0-4-12-4-12 0z"/><path d="m31 48.5h46" stroke="#fff"/><path d="m31.5 37v-3h3v2h3v-2h3v2h3v-2h3v2h3v-2h3v2h3v-2h3v2h3v-2h3v2h3v-2h3v2h3v-2h3v3z"/></g><g stroke="#009"><path d="m38.5 41v3"/><path d="m42 40v3"/><path d="m66 40v3"/><path d="m69.5 41v3"/></g><g id="c"><path id="d" d="m54 23-1.4225 4 1.4225 4 1.4225-4zm-4 4 4 1.4225 4-1.4225-4-1.4225z" fill="#fc0"/><use transform="matrix(.70710678 .70710678 -.70710678 .70710678 34.908117 -30.275649)" xlink:href="#d"/></g><use transform="translate(9 2.5)" xlink:href="#c"/><use transform="translate(-9 2.5)" xlink:href="#c"/><use fill="none" stroke="#fff" stroke-width="2.4" xlink:href="#b"/></g><use fill="none" stroke="#fc0" stroke-width=".8" xlink:href="#b"/></svg>