<svg height="600" viewBox="0 0 324 216" width="900" xmlns="http://www.w3.org/2000/svg"><g transform="matrix(.9997107 0 0 .9995662 .046858 .046843)"><g stroke-width=".09375"><path d="m0 0h324v72c-21.6-.1-43.3.1-64.9-.1-1.3-6-2.5-12-4.4-17.8-20.7-.6-41.5.5-62.2-.4-1.8.1-4.2-.2-5.1 1.7-2 5.4-2.5 11.2-4.3 16.6-61.1-.1-122.1 0-183.1 0z" fill="#f60" stroke="#f60"/><path d="m187.4 55.4c.9-1.9 3.3-1.6 5.1-1.7 20.7.9 41.5-.2 62.2.4 1.9 5.8 3.1 11.8 4.4 17.8 3.2 16.8 7.3 33.4 10.9 50.1.9 4.5 2.6 8.9 2.7 13.5-5.4 2.6-11 4.9-15.8 8.4-8.5 3.9-16.4 9.2-24.9 13.2-3.7 1.7-7 4.7-11.2 5.3-4.8-.7-8.7-3.9-12.9-6.2-7.9-3.7-15.2-8.3-22.9-12.3-5.4-4.2-12.2-6-17.6-10.1-.3-2.7 1.2-5.3 1.5-7.8 4.9-17.9 9.9-35.9 14.2-54 1.8-5.4 2.3-11.2 4.3-16.6z" fill="#010201" stroke="#010201"/><path d="m189.3 55.1c19.2-.1 38.5-.3 57.7 0 0 2.9.3 5.9-.1 8.7-2.4.1-7.3.3-9.7.4-.2 2.9-.1 5.8-.4 8.6-2.4.1-7.2.3-9.6.4-.1 2.4-.3 7.2-.4 9.6-3.1.2-6.3.5-9.4.2 2.1-5.6-1.6-9.8-4.2-14.4 1.6-1.1 3.3-2 4.8-3.2-1.7-1-3.6-1.8-5.4-2.7-.1-.2-.2-.5-.3-.7-.6-1.1-1.1-2.4-2.1-3.4-5.4-1-11-1.8-16.4-1.4l-.4.1c-2 .7-2.6 2.7-2.7 4.5.1 3.3-4.1 4.6-4 8 1.6-.2 3.2-.6 4.8-.8-.1 1.7-.3 3.5-.4 5.2 1.9-1 3.7-2.4 5.5-3.7 2.9-2 7.4-1.2 9.1 1.9.1 3.6-2.6 6.6-5.2 8.8h-.3c-1.6-.2-3.2-.5-4.8-.9 2.1 1.7 5 2.5 6.4 4.8-.7 3.5-5.6 2.8-8.1 1.9l.1-.6c.3-1.7.9-3.4.9-5.2-1.1-1-2.4-1.9-3.5-2.9l-.4-.4c0-.4 0-1.3 0-1.8-1.4 2.3-3.6 3.5-6.2 3.7-.1 0-.3.1-.4.1-.2.2-.6.6-.8.8.3 2.6.8 5.1 1.2 7.6.1.1.2.3.2.4 2.2 1.8 5.6.4 8.2 1.2 5.4 1.2 13.4 3.1 16-3.3l.4.3c.4.4 1.3 1.2 1.7 1.6 2.5-.5 4-3.2 5.9-4.8 0 3.1.2 6.1-.1 9.2-3 .1-5.8 0-8.7.3-.2 2.8-.1 5.8-.4 8.6-2.4.1-7.2.3-9.6.4-.1 2.4-.3 7.2-.4 9.6-2.9.1-5.8.1-8.6.4-.1 2.4-.3 7.2-.4 9.6-2.4.1-7.2.3-9.6.4-.1 2.4-.3 7.3-.4 9.8-2.5 0-7.4 0-9.8 0 5.8-24.5 12.9-48.7 18.7-73.2.2-1.3.6-2.7 1.6-3.7z" fill="#01cbfd" stroke="#01cbfd"/><path d="m248.2 55h5.7c1.6 5.8 3 11.7 4.2 17.7-.5-.1-1.7-.3-2.2-.3v10.5c-2.9.1-5.8 0-8.7.3-.1 2.4-.3 7.2-.4 9.6-2.4.1-7.2.3-9.6.4-.1 2.4-.3 7.2-.4 9.6-2.4.1-7.2.3-9.6.4-.2 2.9-.1 5.8-.4 8.6-2.9.2-5.8.1-8.6.4-.1 2.4-.3 7.2-.4 9.6-2.4.1-7.2.3-9.6.4-.1 2.4-.3 7.2-.4 9.6-2.4.1-7.2.3-9.6.4-.2 2.8-.1 5.8-.4 8.6-2.9.2-5.7.1-8.6.4-.1 1.2-.2 2.4-.3 3.7-6.3-4.6-13.6-7.7-20.2-11.8 2.8-.1 8.4-.2 11.2-.2 0-2.4.2-7.3.3-9.7l9.6-.4c.1-2.4.3-7.2.4-9.6 2.8-.2 5.8-.1 8.6-.4.1-2.4.3-7.2.4-9.6l9.6-.4c.1-2.9.1-5.8.4-8.6 2.8-.2 5.8-.1 8.6-.4.1-2.4.3-7.2.4-9.6 2.4-.1 7.2-.3 9.6-.4.1-2.4.3-7.2.4-9.6 2.4-.1 7.2-.3 9.6-.4.1-2.9.1-5.8.4-8.6 2.4-.1 7.2-.3 9.6-.4.1-2.4.3-7.3.4-9.8z" fill="#fcfd00" stroke="#fcfd00"/></g><path d="m190.7 61.8c.1-1.8.7-3.8 2.7-4.5.1 0 .3 0 .4-.1 5.4-.4 11 .4 16.4 1.4 1 1 1.5 2.3 2.1 3.4l-.2.4c-3.5 1 .1 3.8.5.3 1.8.9 3.7 1.7 5.4 2.7-1.5 1.2-3.2 2.1-4.8 3.2 2.6 4.6 6.3 8.8 4.2 14.4l-.4.7c-1.9 1.6-3.4 4.3-5.9 4.8-.4-.4-1.3-1.2-1.7-1.6l.2-.5.2-.4 2.4.3c.1-.5.1-1.6.1-2.1l.9.1c.2 0 .5-.1.7-.1.1-.1.3-.3.4-.4.7-.8 1.4-1.7 2.1-2.6 2.1-.7-.2-3.2-.6-.7-1.2-1.7-2.3-3.5-3.3-5.3 1.3.5 2.6 1.1 3.9 1.6-3-5.6-6.9-12.1-14.1-12.3-1.8-.4-3.4-1.5-5.2-1.9-3.2 1.1-5.8 3.2-8.6 4.9 1.3-.1 2.8-.3 4.2-.1.1 1.1.3 2.2.4 3.3 5.5-4 13.7-2.5 16.6 3.8 1.7 8.3-6.8 12.7-13.1 15.6 4.7.6 9.1-1.2 12.7-4l-.3.5c-2.6 6.4-10.6 4.5-16 3.3-2.6-.8-6 .6-8.2-1.2 0-.1-.1-.3-.2-.4-.4-2.5-.9-5-1.2-7.6l.8-.8c.1 0 .3-.1.4-.1 2.6-.2 4.8-1.4 6.2-3.7v1.8c0 .2-.1.6-.1.8-.5.5-1.5 1.5-2 2-.4.1-1.2.3-1.6.4-.7-.1-2.2-.2-2.9-.2 2 2.1 2.3 5.1 2 7.9 2.9-1.2 6.1-1.7 8.9.2-.4-.5-1.1-1.5-1.4-2 2.5.9 7.4 1.6 8.1-1.9-1.4-2.3-4.3-3.1-6.4-4.8 1.6.4 3.2.7 4.8.9h.3c2.6-2.2 5.3-5.2 5.2-8.8-1.7-3.1-6.2-3.9-9.1-1.9-1.8 1.3-3.6 2.7-5.5 3.7.1-1.7.3-3.5.4-5.2-1.6.2-3.2.6-4.8.8-.1-3.4 4.1-4.7 4-8z" fill="#010201" stroke="#010201" stroke-width=".093634"/><g stroke-width=".09375"><path d="m193.4 57.3.4-.1c-.1.1-.3.1-.4.1z" fill="#039" stroke="#039"/><path d="m193.3 59.1c5.6-.2 11.2-.3 16.9-.1-.9 1.1-2.1 1.7-3.4 1.7-.6.1-1.9.4-2.5.5-1.6.9-3.3 1.7-5 .5-2.6-1.6-5.1.3-7.5 1.1.1-1.3.2-2.9 1.5-3.7z" fill="#fff" stroke="#fff"/><path d="m204.3 61.2c.6-.1 1.9-.4 2.5-.5 1.4-.2 2.2.3 2.5 1.4l-.4.4-.7-.1c-1.2-.3-3.1-.2-3.9-1.2z" fill="#010201" stroke="#010201"/><path d="m197.1 62.6c1.8.4 3.4 1.5 5.2 1.9 7.2.2 11.1 6.7 14.1 12.3-1.3-.5-2.6-1.1-3.9-1.6 1 1.8 2.1 3.6 3.3 5.3l.6.7c-.7.9-1.4 1.8-2.1 2.6h-.5l-.3-.9c-.2-.2-.6-.7-.7-.9-.2 0-.4-.1-.5-.1 0 0-.1.1-.1.2.1.5.1 1.5.1 2.1 0 .5 0 1.6-.1 2.1-.8-.1-1.6-.2-2.4-.3h-.3l-.2.1c-3.6 2.8-8 4.6-12.7 4 6.3-2.9 14.8-7.3 13.1-15.6-2.9-6.3-11.1-7.8-16.6-3.8-.1-1.1-.3-2.2-.4-3.3-1.4-.2-2.9 0-4.2.1 2.8-1.7 5.4-3.8 8.6-4.9z" fill="#fff" stroke="#fff"/><path d="m208.2 62.4.7.1c1.5 2.6-3.5 2.4-4.2.9 1-.6 2.3-.9 3.5-1z" fill="#fff" stroke="#fff"/><path d="m212.3 62c.1.2.2.5.3.7l-.5-.3z" fill="#029a00" stroke="#029a00"/><path d="m212.6 62.7c-.4 3.5-4 .7-.5-.3z" fill="#010201" stroke="#010201"/><path d="m196.3 64.3c1.4-1.1 2.8 1.3 1.6 2.3-1.4.9-2.8-1.4-1.6-2.3z" fill="#f60" stroke="#f60"/><g fill="#fff" stroke="#fff"><path d="m209.8 65c1.8-.1 3.6-.1 5.4 0-.4.5-1.1 1.5-1.5 2-.6 0-1.8 0-2.4 0-.4-.5-1.1-1.5-1.5-2z"/><path d="m0 72c61 0 122-.1 183.1 0-4.3 18.1-9.3 36.1-14.2 54-.3 2.5-1.8 5.1-1.5 7.8 5.4 4.1 12.2 5.9 17.6 10.1-61.6.2-123.3 0-185 .1z"/><path d="m259.1 71.9c21.6.2 43.3 0 64.9.1v72c-22.4 0-44.7.1-67.1-.1 4.8-3.5 10.4-5.8 15.8-8.4-.1-4.6-1.8-9-2.7-13.5-3.6-16.7-7.7-33.3-10.9-50.1z"/><path d="m207.4 74.3c1.3-.3 1.8 1.4 1.3 2.4-.9 3.2-2.4 6.8-5.6 8.3-2.8-4.4 3.2-6.8 4.3-10.7z"/></g><path d="m257.1 74c.4 0 1.2.1 1.6.1 3.2 20.4 8.8 40.4 12.8 60.6-17.1 7.6-32.8 18.1-49.7 26.2-6.7-.3-11.6-5.9-17.7-8-3.8-1.3-6.5-4.4-10.3-5.8-2.2-.7-4.3-2.3-3.9-4.9 2.9-.2 6 0 8.9-.4.2-2.9.1-5.8.4-8.6l9.6-.4c.1-2.4.3-7.2.4-9.6l9.6-.4c.1-2.4.3-7.2.4-9.6 2.8-.2 5.8-.1 8.6-.4.2-2.9.1-5.8.4-8.6l9.6-.4c.1-2.4.3-7.2.4-9.6l9.6-.4c.1-2.4.3-7.2.4-9.6 2.8-.2 5.8-.1 8.7-.4 0-2.4.2-7.3.2-9.8z" fill="#029a00" stroke="#029a00"/><path d="m190.7 78.7c0-.2.1-.6.1-.8l.4.4z" fill="#029a00" stroke="#029a00"/><path d="m184.2 79.9c.1 0 .3-.1.4-.1-.1 0-.3.1-.4.1z" fill="#039" stroke="#039"/><path d="m190.7 78.7.5-.4c1.1 2.5 1.6 5.2 2.1 7.9.1.2.3.6.4.8.3.5 1 1.5 1.4 2-2.8-1.9-6-1.4-8.9-.2.3-2.8 0-5.8-2-7.9.7 0 2.2.1 2.9.2.3.5.8 1.7 1.1 2.2l.2.5.5-.1c1.7-.3.6-2.3-.2-3 .5-.5 1.5-1.5 2-2z" fill="#fff" stroke="#fff"/><g fill="#010201" stroke="#010201"><path d="m191.2 78.3c1.1 1 2.4 1.9 3.5 2.9 0 1.8-.6 3.5-.9 5.2l-.5-.2c-.5-2.7-1-5.4-2.1-7.9z"/><path d="m215.8 80.5c.4-2.5 2.7 0 .6.7z"/><path d="m187.1 81.1 1.6-.4c.8.7 1.9 2.7.2 3-.2-.1-.6-.3-.7-.4-.3-.5-.8-1.7-1.1-2.2z"/></g><path d="m200.2 81.2h.3c-.1 0-.3 0-.3 0z" fill="#029a00" stroke="#029a00"/><path d="m212.2 82.1c0-.1.1-.2.1-.2z" fill="#788784" stroke="#788784"/><path d="m212.3 81.9c.1 0 .3.1.5.1l-.6.1z" fill="#029a00" stroke="#029a00"/><path d="m212.2 82.1.6-.1c.1.2.5.7.7.9l.3.9-.6.5-.9-.1c0-.6 0-1.6-.1-2.1z" fill="#010201" stroke="#010201"/><path d="m212.8 82c.1.2.5.7.7.9-.2-.2-.6-.7-.7-.9z" fill="#788784" stroke="#788784"/><path d="m188.2 83.3c.1.1.5.3.7.4l-.5.1z" fill="#788784" stroke="#788784"/><path d="m213.2 84.3.6-.5.1.4c-.2 0-.5.1-.7.1z" fill="#039" stroke="#039"/><path d="m213.8 83.8h.5c-.1.1-.3.3-.4.4z" fill="#029a00" stroke="#029a00"/><path d="m209.5 86h.3l-.2.4-.3-.3z" fill="#029a00" stroke="#029a00"/><g fill="#039" stroke="#039"><path d="m193.3 86.2.5.2-.1.6c-.1-.2-.3-.6-.4-.8z"/><path d="m209.3 86.1.3.3-.2.5-.4-.3z"/><path d="m184.6 88.3c.1.1.2.3.2.4 0-.1-.1-.3-.2-.4z"/></g></g><path d="m242.1 106.5c1.2-2.8-2.6-11 2.7-10.5 2.5 3.5 2.2 7.9 1.2 11.8 4.2-.8 11.7-2.4 11.1 4.2-2.4-.8-4.8-1.7-7.2-2.2 3.8 2.6 8.1 5.4 6.1 11.2-.7 0-2-.1-2.7-.2-1.9-1.4-2.5-4.8-5.3-4.9.3 5.7.9 11.4-.2 17 1.2-.6 2.3-1.2 3.5-1.8-.9 4.1-1.9 8.2-2.3 12.4-2-.1-4-.1-6 0-1.3-1.3-1.2-3.3-1.6-5-.3-8.2 0-16.5 1.5-24.6-3.6 1.1-5.8 8.6-9.8 5 0-3.8 2.5-6.6 5-9-1.7.6-3.5 1.3-5.3 1.9-1.1-5.7 5.3-6 9.3-5.3z" fill="#fcfd00" stroke="#010201" stroke-width="1.080391"/><path d="m0 144c61.7-.1 123.4.1 185-.1 7.7 4 15 8.6 22.9 12.3 4.2 2.3 8.1 5.5 12.9 6.2 4.2-.6 7.5-3.6 11.2-5.3 8.5-4 16.4-9.3 24.9-13.2 22.4.2 44.7.1 67.1.1v72h-324z" fill="#039" stroke="#039" stroke-width=".09375"/></g></svg>