<svg height="528.047" width="793.047" xmlns="http://www.w3.org/2000/svg" xmlns:xlink="http://www.w3.org/1999/xlink"><filter id="a" color-interpolation-filters="sRGB" height="1.67118" width="1.963364" x="-.481259" y="-.33559"><feGaussianBlur stdDeviation="1.1794536"/></filter><filter id="b" color-interpolation-filters="sRGB" height="2.666209" width="1.443467" x="-.221734" y="-.832155"><feGaussianBlur stdDeviation=".45387106"/></filter><path d="m33.476505.97650343h793.047v528.047h-793.047z" fill="#004614" transform="translate(-33.476505 -.976503)"/><g fill="#fff" stroke="#fff" transform="matrix(.56813 0 0 .56813 228.079146 87.880796)"><path d="m118.29289 93.078429c-164.22717 171.030091-43.818158 404.411451 160.5 430.750001 52.30121 12.68436 42.60585 12.85105 67.45711 29.92157 11.24279.5931-3.14905-6.19505-12.42678-13.61612-10.21891-6.94299-28.98643-12.69762-47.19913-16.7091-20.28883-4.46876-39.71237-5.71364-45.68564-7.03353" fill="none" stroke-linejoin="round" stroke-width="10"/><g fill="#fff"><path d="m54.53561 335.71535c32.329678-15.06276 29.608105-31.97032 31.908194-48.61359-20.543211 9.8538-29.725683 26.99012-31.908194 48.61359z"/><path d="m47.335715 290.41521c35.724668-8.46195 36.497027-26.0728 42.276873-42.37294-22.75923 5.66174-35.579895 21.02769-42.276873 42.37294zm5.63749-79.17802c36.667687 1.82679 42.31622-14.87149 52.408755-28.91578-23.435469-.90366-40.02973 10.2817-52.408755 28.91578zm-7.511415 39.49983c36.663937-1.90059 40.590217-19.08555 49.206703-34.0808-23.406315 1.47726-38.780899 14.28757-49.206703 34.0808zm20.928485-79.36301c36.250415 5.81074 43.684545-10.17275 55.247085-23.03389-23.197519-3.45151-40.911615 5.85937-55.247085 23.03389z" stroke-width="1.029348"/><path d="m91.799135 121.17588c28.740705 18.07314 40.855105 7.16535 55.351505.40951-18.48854-11.33831-36.93347-9.83128-55.351505-.40951z" stroke-width=".951902"/><path d="m115.07076 96.27074c30.34838 10.14279 39.01022-2.546767 50.77903-11.96525-19.45856-6.261075-36.01337-.768847-50.77903 11.96525z" stroke-width=".897158"/><path d="m112.72036 102.71849c-10.56901-35.043914 4.23369-44.517912 15.4015-57.655234 6.49962 22.461012-.34108 41.203669-15.4015 57.655234z" stroke-width="1.026259"/><path d="m46.699421 329.8857c-40.0192614-11.30181-40.0425537-31.26856-45.79592127-49.99392 25.48212027 7.5066 39.24839627 25.51493 45.79592127 49.99392z" stroke-width="1.165929"/><path d="m38.119408 284.23423c-33.570613-22.56769-27.544949-41.03186-27.192089-60.08394 21.282012 14.65665 28.5534 35.47272 27.192089 60.08394z" stroke-width="1.134148"/><path d="m40.458697 232.34379c-28.739909-27.89312-19.621326-44.82368-15.926577-63.32483 18.158054 18.02372 21.581663 39.58456 15.926577 63.32483z" stroke-width="1.122906"/><path d="m52.278242 185.6312c-26.320277-39.13169-11.693286-56.41719-2.932636-76.83254 16.531769 25.18525 15.22718 50.85853 2.932636 76.83254z" stroke-width="1.322245"/><path d="m81.974802 134.06072c-20.220289-33.41836-7.433115-47.137497.625217-63.678888 12.676276 21.491926 10.577415 42.679248-.625217 63.678888z" stroke-width="1.095134"/><path d="m78.411216 469.19311c36.201634 29.56243 54.600834 16.71372 75.550534 9.94109-23.3369-18.62382-48.79134-19.69118-75.550534-9.94109z" stroke-width="1.310436"/><path d="m96.242468 418.74896c23.483212-28.2205 13.524592-42.76576 8.357052-59.27023-14.797853 18.19509-15.821095 38.18095-8.357052 59.27023z" stroke-width="1.029348"/><path d="m41.423666 419.74455c29.095329 38.11252 50.512856 29.66676 73.030364 27.8912-18.858928-24.13642-44.00708-31.25624-73.030364-27.8912z" stroke-width="1.344372"/><path d="m71.494262 380.76367c27.049967-24.82248 19.128351-40.57007 16.216964-57.6178-17.100608 16.05014-20.790365 35.71909-16.216964 57.6178z" stroke-width="1.029348"/><path d="m167.17987 481.5148c-26.68622-23.66306-19.25248-39.0907-16.70698-55.69821 16.87657 15.30693 20.78649 34.35119 16.70698 55.69821z"/><path d="m127.06799 450.75092c-20.93324-30.16051-9.74437-43.7821-3.15749-59.77316 13.15509 19.41602 12.43187 39.41499 3.15749 59.77316z" stroke-width="1.029348"/><path d="m83.012089 410.82844c-43.253288.95949-49.364135-18.89446-60.796247-35.76659 27.635953-.30239 46.819952 13.41342 60.796247 35.76659z" stroke-width="1.213015"/><path d="m189.24204 502.59107c-34.09989 25.57612-49.41981 11.77878-67.43027 3.62231 21.95077-16.07081 44.50469-15.09749 67.43027-3.62231z" stroke-width="1.211399"/><path d="m61.91804 373.54977c-42.614008-8.09671-44.457817-28.84204-52.1426156-47.77528 27.1625746 5.47789 43.1082626 22.93582 52.1426156 47.77528z" stroke-width="1.216168"/><path d="m236.57664 516.41212c-26.61942 29.311-43.64688 20.85562-62.04856 17.81085 17.2142-18.532 38.40597-22.62099 62.04856-17.81085z" stroke-width="1.110134"/><path d="m209.94477 501.36764c-31.52825-18.81027-26.9706-35.83867-27.58286-53.12238 20.00438 12.24186 27.61259 30.75123 27.58286 53.12238zm44.12707 11.57428c-34.68132-12.04419-33.66224-29.64249-37.75782-46.44509 22.06704 7.94249 33.2619 24.53034 37.75782 46.44509z" stroke-width="1.029348"/></g></g><g fill="#fff" stroke="#fff" transform="matrix(-.56809 -.00677 -.00677 .56809 566.86267 90.309118)"><path d="m118.29289 93.078429c-164.22717 171.030091-43.818158 404.411451 160.5 430.750001 52.30121 12.68436 42.60585 12.85105 67.45711 29.92157 11.24279.5931-3.14905-6.19505-12.42678-13.61612-10.21891-6.94299-28.98643-12.69762-47.19913-16.7091-20.28883-4.46876-39.71237-5.71364-45.68564-7.03353" fill="none" stroke-linejoin="round" stroke-width="10"/><g fill="#fff"><path d="m54.53561 335.71535c32.329678-15.06276 29.608105-31.97032 31.908194-48.61359-20.543211 9.8538-29.725683 26.99012-31.908194 48.61359z"/><path d="m47.335715 290.41521c35.724668-8.46195 36.497027-26.0728 42.276873-42.37294-22.75923 5.66174-35.579895 21.02769-42.276873 42.37294zm5.63749-79.17802c36.667687 1.82679 42.31622-14.87149 52.408755-28.91578-23.435469-.90366-40.02973 10.2817-52.408755 28.91578zm-7.511415 39.49983c36.663937-1.90059 40.590217-19.08555 49.206703-34.0808-23.406315 1.47726-38.780899 14.28757-49.206703 34.0808zm20.928485-79.36301c36.250415 5.81074 43.684545-10.17275 55.247085-23.03389-23.197519-3.45151-40.911615 5.85937-55.247085 23.03389z" stroke-width="1.029348"/><path d="m91.799135 121.17588c28.740705 18.07314 40.855105 7.16535 55.351505.40951-18.48854-11.33831-36.93347-9.83128-55.351505-.40951z" stroke-width=".951902"/><path d="m115.07076 96.27074c30.34838 10.14279 39.01022-2.546767 50.77903-11.96525-19.45856-6.261075-36.01337-.768847-50.77903 11.96525z" stroke-width=".897158"/><path d="m112.72036 102.71849c-10.56901-35.043914 4.23369-44.517912 15.4015-57.655234 6.49962 22.461012-.34108 41.203669-15.4015 57.655234z" stroke-width="1.026259"/><path d="m46.699421 329.8857c-40.0192614-11.30181-40.0425537-31.26856-45.79592127-49.99392 25.48212027 7.5066 39.24839627 25.51493 45.79592127 49.99392z" stroke-width="1.165929"/><path d="m38.119408 284.23423c-33.570613-22.56769-27.544949-41.03186-27.192089-60.08394 21.282012 14.65665 28.5534 35.47272 27.192089 60.08394z" stroke-width="1.134148"/><path d="m40.458697 232.34379c-28.739909-27.89312-19.621326-44.82368-15.926577-63.32483 18.158054 18.02372 21.581663 39.58456 15.926577 63.32483z" stroke-width="1.122906"/><path d="m52.278242 185.6312c-26.320277-39.13169-11.693286-56.41719-2.932636-76.83254 16.531769 25.18525 15.22718 50.85853 2.932636 76.83254z" stroke-width="1.322245"/><path d="m81.974802 134.06072c-20.220289-33.41836-7.433115-47.137497.625217-63.678888 12.676276 21.491926 10.577415 42.679248-.625217 63.678888z" stroke-width="1.095134"/><path d="m78.411216 469.19311c36.201634 29.56243 54.600834 16.71372 75.550534 9.94109-23.3369-18.62382-48.79134-19.69118-75.550534-9.94109z" stroke-width="1.310436"/><path d="m96.242468 418.74896c23.483212-28.2205 13.524592-42.76576 8.357052-59.27023-14.797853 18.19509-15.821095 38.18095-8.357052 59.27023z" stroke-width="1.029348"/><path d="m41.423666 419.74455c29.095329 38.11252 50.512856 29.66676 73.030364 27.8912-18.858928-24.13642-44.00708-31.25624-73.030364-27.8912z" stroke-width="1.344372"/><path d="m71.494262 380.76367c27.049967-24.82248 19.128351-40.57007 16.216964-57.6178-17.100608 16.05014-20.790365 35.71909-16.216964 57.6178z" stroke-width="1.029348"/><path d="m167.17987 481.5148c-26.68622-23.66306-19.25248-39.0907-16.70698-55.69821 16.87657 15.30693 20.78649 34.35119 16.70698 55.69821z"/><path d="m127.06799 450.75092c-20.93324-30.16051-9.74437-43.7821-3.15749-59.77316 13.15509 19.41602 12.43187 39.41499 3.15749 59.77316z" stroke-width="1.029348"/><path d="m83.012089 410.82844c-43.253288.95949-49.364135-18.89446-60.796247-35.76659 27.635953-.30239 46.819952 13.41342 60.796247 35.76659z" stroke-width="1.213015"/><path d="m189.24204 502.59107c-34.09989 25.57612-49.41981 11.77878-67.43027 3.62231 21.95077-16.07081 44.50469-15.09749 67.43027-3.62231z" stroke-width="1.211399"/><path d="m61.91804 373.54977c-42.614008-8.09671-44.457817-28.84204-52.1426156-47.77528 27.1625746 5.47789 43.1082626 22.93582 52.1426156 47.77528z" stroke-width="1.216168"/><path d="m236.57664 516.41212c-26.61942 29.311-43.64688 20.85562-62.04856 17.81085 17.2142-18.532 38.40597-22.62099 62.04856-17.81085z" stroke-width="1.110134"/><path d="m209.94477 501.36764c-31.52825-18.81027-26.9706-35.83867-27.58286-53.12238 20.00438 12.24186 27.61259 30.75123 27.58286 53.12238zm44.12707 11.57428c-34.68132-12.04419-33.66224-29.64249-37.75782-46.44509 22.06704 7.94249 33.2619 24.53034 37.75782 46.44509z" stroke-width="1.029348"/></g></g><g transform="matrix(.96132 0 0 .96132 -16.845834 9.272631)"><path d="m448.1292 99.038094a18.129215 18.129215 0 0 1 -36.25843 0 18.129215 18.129215 0 1 1 36.25843 0z" fill="#fff"/><path d="m443.26983 96.60841a15.699527 15.699527 0 0 1 -31.39905 0 15.699527 15.699527 0 1 1 31.39905 0z" fill="#004614"/><path d="m423.36221 82.398648-.48326 5.387481 4.34285 2.507752-5.27314 1.205221-1.043 4.905226-2.77572-4.642614-4.98745.523846 3.55764-4.074515-2.03941-4.581472 4.97446 2.124426z" fill="#fff"/><g fill="none" stroke="#fff"><path d="m550.24332 242.01895a120.24332 120.24332 0 1 1 -240.48662 0 120.24332 120.24332 0 1 1 240.48662 0z" stroke-width="1.817372"/><g stroke-linejoin="round"><path d="m313.57884 266.39962c2.28873-1.86615 5.69621-1.62988 7.4356-3.36803 20.7507-20.73608 32.50005 2.52806 42.16469-11.39425 3.58069-1.80629 8.48255-3.05398 8.7964-6.40345.22284-5.65537 3.863-7.37106 4.69559-11.33847 1.13584-5.41248 3.81891-8.33496 7.53109-8.03113 3.66883-.0941 6.45285 1.00355 10.64764-1.68892 2.8236-1.81232 5.52377-.39046 8.78423-.60943 1.14728-4.85967 4.08762-6.33246 7.73097-6.47731 5.25969.8493 8.94276-.71888 10.02935-6.26835-.0531-4.05971.61255-5.96298 1.67156-6.68623 2.44392.30188 3.68257-1.97891 4.17889-5.85046 6.43768-1.41757 9.76138-7.50611 14.62615-11.28303 4.29621-2.02483 8.38517 1.78861 13.47694-1.25367 18.74596-2.44285 28.70523 6.1912 32.58509 13.38382 3.14509 5.83042 11.91024 2.40767 17.03932 12.52534 8.46317 10.35247 11.48701 10.66309 16.71559 15.04401 1.96807 3.55543 3.94189 7.10441 8.3578 7.93995 3.78563 4.85075 8.09588 9.17688 10.86514 15.044 3.20382 2.93519 6.40764 2.64147 9.61146 2.92526" stroke-width="1.181971"/><path d="m352.95445 256.33006c1.31468-2.6173 2.22296-3.86328 5.75648-8.42208 2.1591-.13297 4.3182-2.99334 6.4773-5.2236 1.86755-2.78697 5.03928-4.59574 4.9102-8.88015 1.34285-1.08759 2.05736-2.09622 3.39708-3.19575 1.14864-.94268 2.9506-1.86917 3.81152-3.90836-.40149-1.2708.86326-3.09694 2.08945-4.91026 3.79819-1.41423 4.7257-2.53131 5.95493-6.26835 5.26742-3.63155 15.28032-8.92104 17.86478-18.07371 2.43151-1.91065 4.71429-2.54055 5.98996-5.5985.57526-1.37897 3.03963-1.48519 4.7707-3.07271 3.92526-.29807 6.09033-2.74299 7.62649-5.95493 3.12099-3.24251 6.49356-4.64001 10.44725-1.77603.99427 2.16405 2.17551 3.01928 3.44759 3.23865 1.26404 3.03533 2.7078 1.96269 5.30582 3.93083" stroke-width=".886478"/></g></g></g><g transform="matrix(.56813 0 0 .56813 228.16233 88.448925)"><g stroke="#004614"><path d="m300.69716 97.862304c.93521-3.780875 3.66418-6.280485 6.18718-8.927224 1.85643-4.479482 2.89966-19.43142 6.0988-8.927223 2.28398-6.759102 3.6848 1.346296 3.44714 1.944544 3.32757-7.101621 3.18714 1.022239 3.0936 1.325825 3.68903-5.219557 3.64097.853013 2.65165 2.032932l-11.13694 20.064152-15.20279 7.95495c.15961-1.16287-3.17106-3.62369-2.55277-4.66688 7.45322.88255 7.55128-7.38259 7.41413-10.801076z" fill="#fff" stroke-linejoin="round"/><g stroke-linecap="round"><path d="m310.55273 99.055819c.64392-.958321-.46921-3.991635.68152-4.562002 2.91222-1.443448 4.16536-5.972866 9.38541-9.165015 3.96112-2.630148 6.44249-3.726571 1.64425 3.075948 3.9776-2.248128 10.03453-5.775587 2.20971 2.740039 6.5501-2.957387 6.32866-1.505738 1.06066 3.093592 4.92488-1.095072 7.00692-1.339348 2.03294 4.242641 5.16277-2.182299 5.68009 1.125498.61871 3.712308 6.94243-1.09145 2.26695 3.0403 0 4.77297 5.32402.00034 4.11302 3.20979-3.35875 5.39169 7.46877-.1599 7.32186 1.85052-2.20971 3.44714 10.38443 2.30497 1.46094 3.11008-3.62392 3.62393 9.43525 1.35046 7.20937 4.00451-1.94455 2.91682l3.97748 1.85615c7.02475 6.7411 15.33678 6.49407 23.64022 6.29367 16.53776-.59054 17.5439 3.75666 1.28529 3.60584 10.89903-1.08319 21.88527 3.90208.0928 3.49264 9.72975-1.41163 18.87303 7.1339-1.50704 2.87132 13.36234 3.57977 10.40749 7.23296-2.47488 1.94454 7.51481 3.19726 9.36543 9.49209-2.29809 1.94454 1.99913 1.94864 10.50984 10.92593-4.38633 1.80974 1.35886 1.21143 7.11802 8.32781-2.15441 2.07935-8.52926-3.75452-14.52137-8.95885-18.38478-15.37957-13.08523-4.13538-23.75866 4.1613-34.60718-20.5882-.73478-3.78314-3.76294-2.37213-5.83363-2.82843-11.17759 2.25844-3.14035-2.26821-1.79809-2.6302.96448-7.272495 5.81277-6.1921 9.40133-4.00521 4.22346 2.58066 6.37501 6.346 13.2861 5.84406 2.71353 4.34998 10.82021-2.98537 15.26491-9.600301z" fill="#fff" stroke-linejoin="round"/><g fill="none"><path d="m307.67984 118.10323c-8.42214-4.80895-.11219-8.54497 5.39169-12.9047" filter="url(#a)" stroke-width="3"/><path d="m321.83086 135.36485c1.19182.19551 2.57207-.68823 3.6147-1.13922.75428-.32627 2.65019-.47628 3.55287-.74282" filter="url(#b)"/></g></g></g><path d="m278.95102 105.11015a1.5 1.5 0 1 1 -3 0 1.5 1.5 0 1 1 3 0z" fill="#004614"/><path d="m305.39599 131.96764c.0761 1.48535.15127 2.98313 2.22034 3.00049 1.91728.0161 1.29736-1.46642-.0803-1.59608m4.72836-.51592c-.0244 1.08556.53936 1.34912 1.58647 1.27305.62138-.0451 1.75847-.36572.61604-1.20795" fill="none" stroke="#fff" stroke-linecap="round" stroke-width="2"/></g><g fill="#004614" stroke="#fff"><g transform="matrix(.56813 0 0 .56813 -.217363 138.728292)"><path d="m755.80086 284.01258v-44.26628h-11.74776v8.95072h-8.13172v-8.95072h-12.81631v8.95072h-8.04334v-8.95072h-13.08148v8.95072h-7.95495v-8.95072h-12.99309v8.95072h-8.04334v-8.95072h-12.9047v8.95072h-8.04334v-8.95072h-11.40209l2.20971 44.26628c36.80871-8.84977 74.84401-8.23762 112.95241 0z"/><path d="m746.62487 278.5826v3.6875m-14.75-3.8125v1.5m-75.0625-1.4375v2.5625m65.50013-2.5h33.49987m-113.56237 0h33.09375m78.78112-7.4423v7.3125m-14.75-7.4375v7.4375m-15.0625-7.15625v7.15625m-15-7.1875v6.5625m-67.1875-6.6875h65.125m-13.125.15625v6.40625m-14.75-6.46875v7.21875m-15.0625-7.375v7.375m-15-7.21875v7.21875m51.9375-7.3125h54.625m-9.25-7.44231v7.3125m-14.75-7.4375v7.4375m-15.0625-7.375v7.375m-15-7.29733v7.29733m-15.1875-7.3125v7.3125m-14.75-7.4375v7.4375m-15.0625-7.375v7.375m36.9375-7.3125h62.1875m-113.875 0h57.6875m54.75-7.44231v7.3125m-14.75-7.23863v7.23863m-15.0625-7.375v7.375m-15-7.29733v7.29733m-68.0625-7.3125h66m-13.125 0v7.3125m-14.75-7.26072v7.26072m-15.0625-7.375v7.375m-15-7.27524v7.27524m51.9375-7.3125h54.125m-9-7.22134v7.09153m-14.75-7.06185v7.06185m-15.0625-7.10983v7.10983m-15-7.16475v7.16475m-15.1875-7.09153v7.09153m-14.75-7v7m-15.0625-6.97725v6.97725m-15-7.05427v7.05427m51.9375-7.125h61.875m-114.4375 0h58.5625" stroke-width=".5"/></g><path d="m865.67548 437.27356h66.99836l-8.42855-112.40103h-12.90625v5.1875h-6.90625v-5.1875h-13.25v5.1875h-6.90625v-5.1875h-12.75z" transform="matrix(.56813 0 0 .56813 -160.462413 82.451561)"/><g stroke-width=".5"><path d="m856.10425 415.91789h35.95825m-12.89575-.0625v7.375m-15-7.5625v7.5625m-38.29175-7.3125h36.22925m-13.125 0v7.3125m-14.75-7.4375v7.4375m52.5-14.8798v7.4375m-15.0625-7.375v7.375m-15-7.5625v7.5625m-30.41675-7.3125h28.35425m-13.125 0v7.3125m-14.75-7.4375v7.4375m21.875-7.3125h42.77075m-12.45825-7.50481v7.375m-15-7.5625v7.5625m-37.29175-7.3125h35.22925m-13.125 0v7.3125m-14.75-7.4375v7.4375m21.875-7.3125h34.89575m-4.14575-7.69231v7.4375m-15.0625-7.375v7.375m-15-7.5625v7.5625m-29.54175-7.3125h27.47925m-13.125 0v7.3125m7.125-7.3125h41.58325m-11.27075-7.37981v7.375m-15-7.5625v7.5625m-36.41675-7.3125h34.35425m-13.125 0v7.3125m-14.75-7.4375v7.4375m21.875-7.3125h34.02075m-3.39575-7.5673v7.4375m-15.0625-7.375v7.375m-15-7.5625v7.5625m-28.35425-7.3125h26.29175m-13.125 0v7.3125m7.125-7.3125h41.02075m-9.89575-7.56731v7.4375m-15.0625-7.375v7.375m-15-7.5625v7.5625m-21.29175-7.3125h19.22925m-13.125 0v7.3125m7.125-7.3125h47.14575m-2.27075-7.56731v7.4375m-15.0625-7.375v7.375m-15-7.5625v7.5625m-27.16675-7.3125h25.10425m-13.125 0v7.3125m7.125-7.3125h40.14575m-9.08325-7.50481v7.375m-15-7.5625v7.5625m-34.97925-7.3125h32.91675m-13.125 0v7.3125m-14.75-7.4375v7.4375m21.875-7.3125h31.64575m-16.20825-7.5048v7.375m-15-7.5625v7.5625m-26.97925-7.3125h24.91675m-13.125 0v7.3125m7.125-7.3125h38.77075m-.7708-.1875v7.4375m-14.93745-7.3125v7.375m-15-7.5625v7.5625m-15.1875-7.3125v7.3125m37.6875-14.81731v7.375m-15-7.5625v7.5625m-33.91675-7.3125h31.85425m-13.125 0v7.3125m-14.75-7.4375v7.4375m21.875-7.3125h30.58325m-15.02075-7.50481v7.375m-15-7.5625v7.5625m-26.04175-7.3125h23.97925m-13.125 0v7.3125m7.125-7.3125h37.27075m-29.39575-7.44231h28.90482m-5.84232-.0625v7.375m-15-7.5625v7.5625m-33.47925-7.3125h31.41675m-13.125 0v7.3125m-14.75-7.4375v7.4375m37.1875-15.36973v7.92743m-15-7.87186v7.87186m-15.1875-7.82073v7.82073" stroke-width=".5" transform="matrix(.56813 0 0 .56813 -137.701275 89.422871)"/><path d="m942.53838 317.58631h21.44087m-6 0h34.14956" stroke-width=".461516" transform="matrix(.6155 0 0 .6155 -245.742994 74.879534)"/><path d="m825.63121 423.66789h66.67427" stroke-width="2" transform="matrix(.56813 0 0 .56813 -137.701275 89.422871)"/></g><path d="m865.67548 437.27356h66.99836l-8.42855-112.40103h-12.90625v5.1875h-6.90625v-5.1875h-13.25v5.1875h-6.90625v-5.1875h-12.75z" transform="matrix(-.56813 0 0 .56813 953.509441 82.451561)"/><g stroke-width=".5"><path d="m856.10425 415.91789h35.95825m-12.89575-.0625v7.375m-15-7.5625v7.5625m-38.29175-7.3125h36.22925m-13.125 0v7.3125m-14.75-7.4375v7.4375m52.5-14.8798v7.4375m-15.0625-7.375v7.375m-15-7.5625v7.5625m-30.41675-7.3125h28.35425m-13.125 0v7.3125m-14.75-7.4375v7.4375m21.875-7.3125h42.77075m-12.45825-7.50481v7.375m-15-7.5625v7.5625m-37.29175-7.3125h35.22925m-13.125 0v7.3125m-14.75-7.4375v7.4375m21.875-7.3125h34.89575m-4.14575-7.69231v7.4375m-15.0625-7.375v7.375m-15-7.5625v7.5625m-29.54175-7.3125h27.47925m-13.125 0v7.3125m7.125-7.3125h41.58325m-11.27075-7.37981v7.375m-15-7.5625v7.5625m-36.41675-7.3125h34.35425m-13.125 0v7.3125m-14.75-7.4375v7.4375m21.875-7.3125h34.02075m-3.39575-7.5673v7.4375m-15.0625-7.375v7.375m-15-7.5625v7.5625m-28.35425-7.3125h26.29175m-13.125 0v7.3125m7.125-7.3125h41.02075m-9.89575-7.56731v7.4375m-15.0625-7.375v7.375m-15-7.5625v7.5625m-21.29175-7.3125h19.22925m-13.125 0v7.3125m7.125-7.3125h47.14575m-2.27075-7.56731v7.4375m-15.0625-7.375v7.375m-15-7.5625v7.5625m-27.16675-7.3125h25.10425m-13.125 0v7.3125m7.125-7.3125h40.14575m-9.08325-7.50481v7.375m-15-7.5625v7.5625m-34.97925-7.3125h32.91675m-13.125 0v7.3125m-14.75-7.4375v7.4375m21.875-7.3125h31.64575m-16.20825-7.5048v7.375m-15-7.5625v7.5625m-26.97925-7.3125h24.91675m-13.125 0v7.3125m7.125-7.3125h38.77075m-.7708-.1875v7.4375m-14.93745-7.3125v7.375m-15-7.5625v7.5625m-15.1875-7.3125v7.3125m37.6875-14.81731v7.375m-15-7.5625v7.5625m-33.91675-7.3125h31.85425m-13.125 0v7.3125m-14.75-7.4375v7.4375m21.875-7.3125h30.58325m-15.02075-7.50481v7.375m-15-7.5625v7.5625m-26.04175-7.3125h23.97925m-13.125 0v7.3125m7.125-7.3125h37.27075m-29.39575-7.44231h28.90482m-5.84232-.0625v7.375m-15-7.5625v7.5625m-33.47925-7.3125h31.41675m-13.125 0v7.3125m-14.75-7.4375v7.4375m37.1875-15.36973v7.92743m-15-7.87186v7.87186m-15.1875-7.82073v7.82073" stroke-width=".5" transform="matrix(-.56813 0 0 .56813 930.748303 89.422871)"/><path d="m942.53838 317.58631h21.44087m-6 0h34.14956" stroke-width=".461516" transform="matrix(-.6155 0 0 .6155 1038.790022 74.879534)"/><path d="m825.63121 423.66789h66.67427" stroke-width="2" transform="matrix(-.56813 0 0 .56813 930.748303 89.422871)"/></g></g><path d="m532 555c2.78063-2.13037 9.33035-3.66484 3.5-10.25l-16.75-20.5c-5.8287-6.23046-10.99757-4.93899-16-1.75l-23.5 15.25 19.4375 28.1875 17.88702-11.01045 10.23798-6.30205zm-33.3125 10.875 36.0625-22.25" fill="#fff" stroke="#004614" transform="matrix(-.56813 0 0 .56813 568.041436 93.100385)"/><path d="m532 555c2.78063-2.13037 9.33035-3.66484 3.5-10.25l-16.75-20.5c-5.8287-6.23046-10.99757-4.93899-16-1.75l-23.5 15.25 19.4375 28.1875 28.125-17.3125zm-33.3125 10.875 36.0625-22.25" fill="#fff" stroke="#004614" transform="matrix(.56813 0 0 .56813 225.005543 90.093343)"/><g transform="matrix(.96132 0 0 .96132 -16.845834 9.272631)"><path d="m545.2478 414.88458-16.50898-22.9089s-.19286-.31281-.47623-.15011c-63.56678 36.49807-129.33851 39.30626-197.83839 2.88732-.2498-.1328-.54272.17156-.54272.17156l-15.17256 23.52802c-.0268.008-.0797.5252.11965.56515 79.82904 42.63026 156.46037 39.28653 230.51035-3.50773.16417-.1877.0728-.38509-.0911-.58531z" fill="#fff" stroke="#004614" stroke-width=".684819"/><path d="m527.53714 395.04685c-65.89333 40.70773-139.47728 33.29931-196.22044 3.24345-.10006-.0791-.46603.0643-.46603.10508l-12.16744 18.85958c.0295.0195-.51552.57131.16799.87366 76.98088 39.77963 150.98967 36.79516 222.58119-3.08146.61094-.35294.20631-.78034.2108-.78631l-13.45115-19.15992c.002-.009-.50772-.15803-.65492-.0538z" fill="#004614"/><g fill="none" stroke="#fff" stroke-linejoin="round"><path d="m414.15218 217.16076c.85266 1.51209-.13676 3.54797 5.82584 2.76211 2.74471.2502 5.65167-.0766 7.52382 1.39506 2.06272.81306 2.45559 2.5652 3.43607 3.70349.65046.75515 1.38898.8672 2.28201 2.49791 1.31239.24857 1.99738 2.31175 2.65118 3.28242l2.33238 2.2801c.0228 2.0026 1.33103 3.68289 2.33503 6.05984.80113 1.45959 1.14801 3.20122 1.55565 4.18911 1.08123.53602 1.61355 1.46159 2.6142 2.08625" stroke-width=".5"/><path d="m496.51041 204.31322c.20842 4.4412-.18051 9.41259 1.44202 12.59871.90126 4.49953 2.10106 10.85828 2.13023 14.0713.78073 2.90472.94414 5.8608 3.63784 8.60635 1.38612 3.1456 2.48444 6.36451 2.16303 10.43892.78804 2.84415.46343 5.44142 2.60725 8.5864 1.4442 1.68237 2.75121 3.43324 3.52133 5.45215.40357 1.46324.88725 2.87629 1.2526 4.34167.65812 2.63965 1.395 4.48589 2.71295 6.27723" stroke-width=".504417"/></g></g></svg>