<svg enable-background="new -788.109 -54.473 2086.633 1418.32" height="500" viewBox="-788.109 -54.473 749.99998 500.00002" width="750" xmlns="http://www.w3.org/2000/svg" xmlns:xlink="http://www.w3.org/1999/xlink"><path d="m-784.4115-53.335049h2080.415v1416.4241h-2080.415z" fill="#fff" transform="matrix(.35943208 0 0 .35242666 -504.83877 -35.202495)"/><g transform="translate(-1146.1333 -59.457005)"><path d="m838.50003 254a105 143.5 0 0 1 -210 0 105 143.5 0 1 1 210 0z" fill="#fdce12" fill-rule="evenodd" stroke="#000" stroke-width="3"/><path d="m806.34222 256.66826a72.174815 98.25468 0 0 1 -144.34963 0 72.174815 98.25468 0 1 1 144.34963 0z" fill="#317ca6" fill-rule="evenodd" stroke="#000" stroke-width="2.058117"/><g transform="matrix(.17672742 0 0 .17672742 646.263449 67.248717)"><g fill="#f0aa18" stroke="#000"><path d="m513.50332 578.12088c-2.8554.22055-5.7171.45984-8.5723.58866-4.4982.20295-9.0043.26863-13.5024.25754-7.354-.0181-14.7207-.46175-22.0747-.99336 1.7923 10.03865 10.9666 17.69653 22.0747 17.69655 11.0598 0 20.2213-7.58131 22.0747-17.54939z" fill="#00f"/><path d="m491.42862 553.13968c-11.1191 0-20.2952 7.68747-22.0747 17.77013 2.9295-.27375 5.8636-.57562 8.7931-.73582 4.4743-.24468 8.9543-.34013 13.4287-.33112 4.4744.009 8.9545.11872 13.4289.36791 2.8316.15771 5.667.44955 8.4987.69903-1.7789-10.08267-10.9512-17.77012-22.0747-17.77013z" fill="#00f"/><path d="m494.12935 539.91686v11.88692l1.62136 1.626h-8.64882l1.62137-1.626v-11.88692h-11.88692l-1.62136 1.626v-8.65345l1.62136 1.626h11.88692v-11.89155l-1.62137-1.62137h8.64882l-1.62136 1.62137v11.89155h11.89154l1.62137-1.626v8.65345l-1.62137-1.626z"/><path d="m476.8631 591h29.131046v15.136715h-29.131046z"/><path d="m491.39737 553.12815c-1.22581 0-2.3912.16398-3.5625.34375-.2055 2.45182-.45725 4.89193-.59375 7.34375-.14321 2.57142-.17309 5.14638-.21875 7.71875-6.365.30584-13.16202 1.33138-17.65625 2.375-.2035 1.15251-.375 2.32312-.375 3.53125 0 1.21421.1681 2.37285.375 3.53125 7.354.53161 14.7085.98187 22.0625 1 4.49811.0111 9.0018-.0471 13.5-.25 2.8552-.12882 5.7071-.3732 8.5625-.59375.2238-1.20339.375-2.42324.375-3.6875.00002-1.20814-.1717-2.37874-.375-3.53125-4.29455-.96598-11.2396-1.94848-17.625-2.3125-.0284-2.56612-.0405-5.12247-.15625-7.6875-.11169-2.47557-.35085-4.96193-.53125-7.4375-1.229-.19849-2.49135-.34375-3.78125-.34375z"/></g><path d="m490.58352 637.41281c34.0956 0 68.6822 8.58176 84.2236 17.23954 15.5413 8.65776 28.4855 12.23286 43.1301 14.8537 14.6445 2.62088 22.9294 2.37875 35.1603 1.65961 12.2311-.71918 35.9847 6.10607 54.4901 17.04587 18.5054 10.93975 30.7518 22.04551 40.0446 33.75282l-69.5714 111.08496h-373.26468l-69.57121-111.08496c9.33412-11.70731 21.56492-22.81307 40.04951-33.75282 18.4847-10.9398 42.25933-17.76505 54.48506-17.04587 12.22573.71914 20.5184.96127 35.16552-1.65961 14.64712-2.62084 27.58866-6.19594 43.12996-14.8537 15.54129-8.65778 48.43283-17.23954 82.52854-17.23954z" fill="#e60000" stroke="#000"/><g fill="#f0aa18" stroke="#000"><path d="m491.55812 740.79783 6.7759 1.27364c-1.0916 2.80088-1.3177 5.86098-1.3177 9.08452 0 14.36507 12.0743 26.05324 26.9384 26.05324 11.9308 0 22.092-7.55166 25.5819-17.9831.3914.27615 2.5692-9.42266 3.6939-9.30432.9428.10144.8436 10.07639 1.1909 9.89606 1.7257 13.13652 13.4692 22.0238 26.6902 22.0238 14.842 0 26.8776-11.62618 26.8776-26.01942 0-1.07077-.0606-2.14152-.204-3.17846l8.4354-8.54352 4.532 10.88791c-1.8028 3.42079-2.5196 7.25862-2.5196 11.37258 0 13.73388 11.4954 24.84158 25.6867 24.84158 8.9262 0 16.7661-4.39011 21.3699-11.05134l5.3975-7.01628-.0386 8.6055c0 8.64497 3.5727 16.39951 11.8263 17.76894 0 0 9.4774.59739 22.0313-9.47901 12.5648-10.0764 19.4842-18.42269 19.4842-18.42269l1.0806 10.09331s-10.4258 16.4784-21.7778 23.19601c-6.2025 3.69693-15.6248 7.56857-23.1175 6.31747-7.9282-1.3131-13.5739-7.8109-16.4849-15.30058-5.6513 3.39826-12.3224 5.38198-19.4677 5.38198-15.3547 0-29.1546-8.60552-34.6129-21.56168-7.0626 7.78835-16.8985 12.57858-28.4323 12.57858-12.2618 0-23.4925-5.64121-30.533-14.30871-6.9192 6.44146-16.3252 10.41453-26.6901 10.41453-13.574 0-25.6813-6.79649-32.5454-17.05322-6.8532 10.25673-18.9494 17.05322-32.5013 17.05322-10.35957 0-19.78741-3.97307-26.71215-10.41453-7.01305 8.6675-18.26584 14.30871-30.52207 14.30871-11.53936 0-21.37525-4.79023-28.44339-12.57858-5.45263 12.95616-19.24714 21.56168-34.60736 21.56168-7.15079 0-13.79439-1.98372-19.4401-5.38198-2.93858 7.48968-8.58429 13.98748-16.49044 15.30058-7.49257 1.2511-16.91499-2.62054-23.13405-6.31747-11.35746-6.71761-21.77225-23.19601-21.77225-23.19601l1.09161-10.09331s6.92486 8.34629 19.46777 18.42269c12.56491 10.0933 22.03137 9.47901 22.03137 9.47901 8.25346-1.36943 11.82062-9.12397 11.82062-17.76894l-.0386-8.6055 5.39753 7.01628c4.59825 6.66123 12.46579 11.05134 21.37537 11.05134 14.18585 0 25.68117-11.1077 25.68117-24.84158 0-4.11396-.72216-7.95179-2.52511-11.37258l4.53197-10.88791 8.44654 8.54352c-.12691 1.03694-.20403 2.10769-.20403 3.17846 0 14.39324 12.01912 26.01942 26.87203 26.01942 13.24317 0 24.96454-8.88728 26.69025-22.0238.36933.18033.27008-9.79462 1.20746-9.89606 1.11363-.11834 3.30803 9.58047 3.67735 9.30432 3.51206 10.43144 13.65665 17.9831 25.62608 17.9831 14.85855 0 26.89415-11.68817 26.89415-26.05324 0-3.22354-.1874-6.28364-1.2956-9.08452l7.024-1.27364"/><path d="m309.85189 864.48997c3.75588-1.78214-5.08584-15.15759-6.29277-28.0103-1.58205-16.84737-14.10755-18.48041-14.10755-18.48041 49.97582-14.76213 124.253-25.17521 201.68105-25.2739 77.4569.0987 152.117 10.17385 202.0986 24.93597 0 0-14.7173 6.5119-15.5277 22.16437-.99169 12.03377-8.4658 22.88213-4.704 24.66427z"/><path d="m491.26312 802.67473c-77.42799.12191-146.99589 5.33445-196.97171 20.1198-3.33205.99846-6.85576-.30767-7.93548-3.45978-1.07971-3.15793.71405-6.78025 4.04609-7.80193 50.19068-15.39487 121.55235-23.06021 200.8786-23.22275 79.3436.14513 150.9781 7.82788 201.1745 23.22275 3.3321 1.02168 5.1258 4.644 4.0461 7.80193-1.0855 3.15211-4.6092 4.45824-7.9356 3.45978-49.9816-14.78535-119.8455-19.99789-197.3025-20.1198z"/><path d="m310.63249 869.83176c-3.33842-1.00396-5.08364-4.03324-4.89039-7.16699-.0585-3.04669 1.66327-5.80902 4.89039-6.77236h361.62378c3.22696.96334 4.91959 3.72567 4.86108 6.77236.17565 3.13375-1.54624 6.16303-4.86108 7.16699z"/></g><use height="975" transform="matrix(-1 0 0 1 982.8571 0)" width="549.99969" xlink:href="#a"/><g id="a" fill="#f0aa18" stroke="#000"><path d="m748.21032 730.33484c-.9049 3.20061-2.2036 6.35874-4.5621 9.49212l-26.8576-30.61024c2.0136-5.57974 2.4446-8.31505 1.6188-14.23818-3.1395-22.51906-39.4372-46.05027-83.5526-49.18979-44.0043-3.13158-122.7834-46.43801-143.6696-31.86114 7.5326-9.17345 26.193-9.09879 48.7851-5.4083 5.9444 1.87863 12.0036 3.84684 18.322 6.03375 15.2738 5.28656 31.2448 11.14294 46.173 15.85699 7.4639 2.35702 14.6694 4.41281 21.3756 5.99696 3.3531.79207 6.5964 1.46658 9.6761 1.98672 3.0796.52014 6.006.90801 8.7563 1.10373 5.5144.39244 10.8937 1.11793 16.1145 2.17068 5.2207 1.05276 10.2932 2.4361 15.1211 4.04703 4.828 1.61094 9.4238 3.45172 13.7599 5.51867 4.3362 2.06696 8.3956 4.34873 12.1411 6.76958s7.1722 4.97999 10.228 7.65256c3.0557 2.67257 5.7535 5.45585 8.0204 8.27801 2.267 2.82216 4.1027 5.70275 5.482 8.57234.6895 1.4348 1.2799 2.87706 1.7291 4.30457.4491 1.42751.7603 2.82354.9566 4.23098.4129 2.96157.5109 5.12817.2576 7.24786-.2535 2.11969-.8697 4.20045-1.8764 6.99032z"/><path d="m748.21032 730.33484-22.0011-25.05478c1.0067-2.78987 1.6229-4.87063 1.8764-6.99032.2533-2.11969.1553-4.28629-.2576-7.24786-.1963-1.40744-.5075-2.80347-.9566-4.23098-.4492-1.42751-1.0396-2.86977-1.7291-4.30457-1.3793-2.86959-3.215-5.75018-5.482-8.57234-2.2669-2.82216-4.9647-5.60544-8.0204-8.27801-3.0558-2.67257-6.4825-5.23171-10.228-7.65256s-7.8049-4.70262-12.1411-6.76958c-4.3361-2.06695-8.9319-3.90773-13.7599-5.51867-4.8279-1.61093-9.9004-2.99427-15.1211-4.04703-5.2208-1.05275-10.6001-1.77824-16.1145-2.17068-2.7503-.19572-5.6767-.58359-8.7563-1.10373-3.0797-.52014-6.323-1.19465-9.6761-1.98672-6.7062-1.58415-13.9117-3.63994-21.3756-5.99696-14.9282-4.71405-30.8992-10.57043-46.173-15.85699-6.3184-2.18691-12.3776-4.15512-18.322-6.03375 35.3202 5.76966 80.4841 20.48049 109.2697 23.32559 47.1149 4.65673 95.2197 36.51182 99.4098 76.04734.8633 8.12576 1.543 15.42391-.4415 22.4426z"/><path d="m717.40742 789.72312c-3.6563 1.67279-4.7135 1.92772-10.2908 2.01734-5.7273.34076-17.6598-3.28446-17.6598-3.28446 0-.00001 3.8167-2.26075 5.0036-4.33909 1.5557-2.7238 1.4511-4.00187 4.3414-6.65932 2.8904-2.65749 7.6894-3.04339 7.6894-3.04339l1.9867-3.97752-3.8631-.57252c0-.00001-2.051 3.87331-6.696 5.21295-4.5082 1.30023-11.9571-3.25433-11.9571-3.25433 0 .00002 3.9698-8.17391 8.3148-8.91926 4.3451-.74536 6.1441-.18079 6.1441-.18079l2.5754-3.13379-2.3914-1.32584c0-.00001-5.7919 2.14031-8.5355.75331-2.7438-1.38697-2.4889-3.56375-3.5688-7.95501-.898-3.65154-2.5018-8.16595-2.5018-8.16595 0 .00002 4.6484-.18173 8.1309-1.65729 3.4825-1.47557 5.7416-4.85499 9.9336-3.0434 4.0101 1.73303 3.3605 4.52267 4.5988 7.0209 1.2599 2.54158 5.1876 3.0434 5.1876 3.0434l.699-3.37486s-3.6983-.96516-4.8196-5.06227c-1.1214-4.09716.1839-8.07555.1839-8.07555 0-.00001 6.0204.29541 8.5037 3.5596 2.4832 3.26416 1.2119 3.98628 3.0722 5.22086 1.8601 1.23457 3.9635 1.17716 3.9635 1.17716s1.0261-2.73001-.6989-4.19042c-1.725-1.46042-1.3295-1.35702-3.3038-2.94354-1.9745-1.58647-5.5261-8.61024-5.5261-8.61024 0 .00002 2.4547-.35772 4.6062-.15263 2.1516.2051 5.1686 1.26002 5.7413.36158.5728-.89842-.198-.77966 1.5383-4.89138 1.7362-4.11171 4.0926-7.06402 4.0926-7.06402 2.8875.59121 4.9323 1.79002 8.6339 4.26895 3.7017 2.47891 2.5338 2.19694 7.3456 6.1829 3.8569-1.63733 10.319-2.52125 16.225-.18717-9.1395 6.57289-12.0332 9.20445-17.8438 23.08798-1.08 1.18474-2.1271 2.52199-3.164 3.97751-1.037 1.45552-2.0356 3.00535-3.0169 4.64043-1.9626 3.27015-3.8182 6.83416-5.4818 10.27522-1.6637 3.44107-3.1517 6.76028-4.415 9.64246-.6316 1.44109-1.4754 2.93229-2.5018 4.39936s-2.2462 2.93508-3.5319 4.36924c-1.0845 1.2095-5.5634 3.70539-6.7436 4.85289z"/><path d="m727.13102 781.07351c-6.5218-2.62655-8.0546-11.74487-3.3112-20.70112 4.8266-9.1134 14.273-14.502 21.0814-12.0832.3014.10708.5284.3185.8094.452-.2434 1.47296-.1735 1.48099-.5151 3.22419-.5622 2.86832-1.2497 5.94982-2.0603 8.73847-.8107 2.78864-1.7586 5.29101-2.7961 6.99077-1.0377 1.69974-2.586 3.55762-4.3046 5.36361-1.7187 1.80598-3.5989 3.56444-5.3716 5.12255-1.9013 1.67125-2.3157 1.92887-3.5319 2.89273z"/><path d="m741.87912 766.63667c3.5851-6.76898 5.4531-12.4435.7809-14.10338-4.6721-1.65988-11.3713 2.44844-14.9564 9.21742-3.5881 6.77497-2.6985 13.60067 1.9894 15.26614 4.6723 1.65986 8.598-3.60519 12.1861-10.38018" fill="#e3e4e5" stroke="#000"/><path d="m682.50774 826.37394c-.57542-.14184-1.03433-.38568-1.62178-.51357-16.16187-3.51797-30.53536-.2376-32.16857 7.26526-1.6262 7.47112 10.00655 16.31504 26.0624 19.86357.72453-1.02403 1.52438-1.87982 2.19052-2.95613 1.00174-1.61859 1.93897-3.258 2.7152-4.94751.77613-1.68953 1.38042-3.40249 1.81884-5.10613.41206-1.60043.7166-3.23614.91679-4.82176.20028-1.58562.30568-3.116.33989-4.63388.0341-1.51112-.16811-2.75822-.25329-4.14985z"/><path d="m683.09567 831.09048c-1.06865-.30741-1.99716-.71522-3.12828-.96144-12.00422-2.61298-22.60338-.53934-23.72405 4.60943-1.12078 5.14874 7.64206 11.46635 19.64628 14.07934.72466.15776 1.37061.13593 2.08351.25999.88892-.76743 1.82456-1.43464 2.60373-2.32117.72075-.8201 1.38381-1.69796 1.92003-2.60529.53611-.90732.93775-1.86974 1.20221-2.85015.26739-.99159.41018-2.04618.44501-3.12912.0347-1.08292-.0166-2.19553-.15756-3.30826-.16561-1.30754-.56805-2.51701-.89088-3.77333z" fill="#e60000"/><path d="m483.30588 1187.6039h36.696053v36.936325h-36.696053z" transform="matrix(-.898532 .438908 .862141 .506668 0 0)"/><path d="m495.81635 1198.8542h24.0609v24.217154h-24.0609z" fill="#00f" transform="matrix(-.90006 .435766 .863883 .503692 0 0)"/><path d="m637.88802 683.79402c.3167 5.40263.4223 12.81345-1.8396 16.99752-2.7961 5.17237-2.6426 5.52455-6.0704 9.05063l-14.2383-22.66336c2.1367-2.28339 2.5872-2.67416 3.4584-8.86667 2.8678-20.38504-20.2671-35.59747-47.6814-38.07885-27.0074-2.4446-61.8431-41.18808-72.9936-27.81412 3.7071-7.76384 11.5384-8.4446 21.3388-6.03375.2476.13679.4492.19099.6991.33112 3.4761 1.94952 7.1874 4.19695 11.0005 6.58562s7.7281 4.91438 11.6996 7.35823c3.9716 2.44385 7.9688 4.80168 11.9204 6.91674 3.9515 2.11506 7.8729 3.96921 11.626 5.37151 1.8765.70115 3.6885 1.27821 5.4819 1.72918 1.7933.45097 3.5732.767 5.2611.91978 3.4268.31018 6.7986.88095 10.0808 1.6556 3.2821.77466 6.4438 1.7712 9.4921 2.9433s5.9573 2.50771 8.6827 4.01023c2.7254 1.50253 5.2656 3.16409 7.579 4.93002s4.4054 3.66673 6.2177 5.62905c1.8123 1.96231 3.3767 3.97886 4.5989 6.07054s2.1061 4.24764 2.6489 6.40166c.5429 2.15402.7407 4.3259.5151 6.47525-.3263 3.10967-.5046 5.17685-.8461 6.99032-.3417 1.81346-.8449 3.38037-1.9132 5.4083l7.5054 12.72974c1.376-1.56982 2.4771-3.43037 3.348-5.51867.8708-2.08831 1.5354-4.38516 2.0236-6.73279.1921-.9244.2586-1.85951.4046-2.79613z"/><path d="m637.88802 683.79402c-.146.93662-.2125 1.87173-.4046 2.79613-.4882 2.34763-1.1528 4.64448-2.0236 6.73279-.8709 2.0883-1.972 3.94885-3.348 5.51867l-7.5054-12.72974c1.0683-2.02793 1.5715-3.59484 1.9132-5.4083.3415-1.81347.5198-3.88065.8461-6.99032.2256-2.14935.0278-4.32123-.5151-6.47525-.5428-2.15402-1.4267-4.30998-2.6489-6.40166s-2.7866-4.10823-4.5989-6.07054c-1.8123-1.96232-3.9043-3.86312-6.2177-5.62905s-4.8536-3.42749-7.579-4.93002c-2.7254-1.50252-5.6344-2.83813-8.6827-4.01023s-6.21-2.16864-9.4921-2.9433c-3.2822-.77465-6.654-1.34542-10.0808-1.6556-1.6879-.15278-3.4678-.46881-5.2611-.91978-1.7934-.45097-3.6054-1.02803-5.4819-1.72918-3.7531-1.4023-7.6745-3.25645-11.626-5.37151-3.9516-2.11506-7.9488-4.47289-11.9204-6.91674-3.9715-2.44385-7.8865-4.96956-11.6996-7.35823s-7.5244-4.6361-11.0005-6.58562c-.2499-.14013-.4515-.19433-.6991-.33112 17.4335 4.28852 41.1266 18.51066 59.3074 21.04454 27.7919 3.8734 63.6548 19.34485 58.7187 55.95936-.0161.1195-.007.28218 0 .4047z"/><g fill="#e3e4e5"><path d="m658.37012 772.44169c0-6.41815 5.2205-11.6385 11.6395-11.6385 6.4507 0 11.6714 5.22035 11.6714 11.6385 0 6.45201-5.2207 11.67238-11.6714 11.67238-6.419 0-11.6395-5.22037-11.6395-11.67238"/><path d="m541.81572 751.73572c0-6.41815 5.2205-11.6385 11.6395-11.6385 6.4507 0 11.6714 5.22035 11.6714 11.6385 0 6.452-5.2207 11.67238-11.6714 11.67238-6.419 0-11.6395-5.22038-11.6395-11.67238"/><path d="m534.65562 831.00313c0-3.29725 2.833-5.97916 6.316-5.97916 3.5005 0 6.3334 2.68191 6.3334 5.97916 0 3.29143-2.8329 5.99657-6.3334 5.99657-3.483 0-6.316-2.70514-6.316-5.99657" stroke-width="1.2"/><path d="m628.87832 834.11972c0-3.29725 2.8329-5.97916 6.3101-5.97916 3.5063 0 6.3334 2.68191 6.3334 5.97916 0 3.31465-2.8271 5.99656-6.3334 5.99656-3.4772 0-6.3101-2.68191-6.3101-5.99656" stroke-width="1.2"/><path d="m519.10552 598.1592c-.0116 4.76381 3.8389 8.64348 8.6028 8.65511 4.7638.0117 8.6434-3.83314 8.655-8.60276.006-.0174.006-.0349 0-.0523.0175-4.76962-3.8331-8.64348-8.6027-8.66094-4.7638-.0116-8.6435 3.83896-8.661 8.60279.006.0232.006.0407.006.0582z"/><path d="m544.28492 601.42996c-.0175 5.22914 4.2112 9.48689 9.4403 9.49854 5.2292.0174 9.4869-4.21124 9.5044-9.44037 0-.0232 0-.0407 0-.0582.0117-5.23494-4.2113-9.48689-9.4404-9.50434-5.235-.0174-9.4869 4.21123-9.5043 9.44035v.064z"/><path d="m572.66492 608.09469c-.0175 6.00858 4.8393 10.8887 10.8479 10.91199 6.0085.0174 10.8945-4.8336 10.9119-10.84217 0-.0233 0-.0465 0-.0698.0176-6.00854-4.8393-10.89449-10.8479-10.91195-6.0085-.0174-10.8945 4.83362-10.9119 10.84798v.064z"/><path d="m605.05832 616.56878c-.0175 6.63094 5.3396 12.02294 11.9706 12.04619 6.6309.0233 12.0229-5.33381 12.0462-11.97057 0-.0233 0-.0465 0-.0756.0174-6.63094-5.3339-12.02293-11.9706-12.04621-6.6309-.0174-12.0229 5.33965-12.0462 11.97059z"/><path d="m644.15292 623.23935c-.0234 7.41034 5.9619 13.43637 13.3723 13.45963 7.4104.0232 13.4363-5.96204 13.4597-13.37238 0-.0233 0-.0524 0-.0814.0231-7.41038-5.9621-13.43638-13.3725-13.45966-7.4104-.0233-13.4364 5.96203-13.4595 13.37239v.0814z"/><path d="m685.07732 635.26918c-.0232 8.03274 6.4681 14.57062 14.5009 14.59388 8.0385.0233 14.5706-6.46806 14.5938-14.50082 0-.0291 0-.064 0-.0931.0233-8.03274-6.468-14.57062-14.5008-14.59387-8.0327-.0233-14.5648 6.46807-14.5939 14.50081z"/><path d="m717.35272 658.17718c-.0233 8.03275 6.468 14.57062 14.5007 14.59387 8.0328.0233 14.5706-6.46806 14.594-14.50082 0-.0291 0-.0581 0-.093.0233-8.03274-6.4681-14.57061-14.5008-14.59387-8.0327-.0233-14.5649 6.46806-14.5939 14.5008v.0931z"/><path d="m734.58262 699.65434c-.0291 8.65511 6.9683 15.69904 15.6233 15.7223 8.6552.0291 15.6991-6.96829 15.7224-15.62342 0-.0291 0-.064 0-.0989.0291-8.66093-6.9683-15.69902-15.6235-15.72812-8.655-.0291-15.699 6.96831-15.7222 15.62343v.10469z"/><path d="m512.43572 594.55668c.0154 4.2234-3.3984 7.663-7.6268 7.67846-4.2285.0155-7.6628-3.39833-7.6784-7.62692 0-.0155 0-.0309 0-.0515-.0102-4.22345 3.4035-7.66304 7.6268-7.67336 4.2234-.0103 7.6629 3.39835 7.6732 7.62692.005.0155.005.0309.005.0464z"/><path d="m530.35692 611.7748c-.0117 4.7638 3.8389 8.64349 8.6028 8.66093 4.7638.0116 8.6434-3.83896 8.6609-8.60276 0-.0175 0-.0349 0-.0524.0117-4.76381-3.839-8.64349-8.6028-8.65512-4.7637-.0174-8.6435 3.83314-8.6609 8.60277v.0465z"/><path d="m553.14992 622.10274c-.0174 6.00856 4.8336 10.89451 10.8421 10.91197 6.0086.0174 10.8946-4.83361 10.912-10.84217 0-.0233 0-.0465 0-.0698.0174-6.00855-4.8336-10.89451-10.8479-10.91196-6.0086-.0175-10.8946 4.8336-10.912 10.84798.006.0174.006.0407.006.064z"/><path d="m582.66692 628.72778c-.0174 6.00855 4.8337 10.8945 10.848 10.91195 6.0086.0175 10.8946-4.83359 10.912-10.84216 0-.0233 0-.0465 0-.0698.0174-6.00857-4.8336-10.89452-10.8422-10.91197-6.0085-.0174-10.8945 4.83942-10.9119 10.84798-.006.0175-.006.0407-.006.064z"/><path d="m609.99712 644.39285c-.0225 7.15169 5.7539 12.96735 12.9055 12.98982 7.1516.0225 12.9674-5.75392 12.9897-12.90561 0-.0281 0-.0505 0-.0786.0225-7.1517-5.7594-12.96735-12.911-12.9898-7.1518-.0225-12.9673 5.7539-12.9898 12.90559.006.0225.006.0505.006.0786z"/><path d="m623.39452 675.97446c-.0232 8.65513 6.9683 15.69904 15.6235 15.72229 8.6609.0291 15.699-6.96829 15.7281-15.62342 0-.0291 0-.064 0-.0989.0232-8.66093-6.9683-15.69903-15.6235-15.72811-8.6609-.0233-15.699 6.9683-15.7281 15.62342v.10469z"/><path d="m509.35782 602.16328c-.01 3.89861 3.1417 7.07367 7.0401 7.08795 3.8985.01 7.0733-3.14174 7.0877-7.04034 0-.0143 0-.0286 0-.0429.01-3.8986-3.1417-7.07367-7.0401-7.08319-3.8985-.0143-7.0734 3.13698-7.0877 7.04036v.0381z"/></g><path d="m635.70162 679.69502c-1.0699.0715-5.3952 1.53516-9.6058 3.24984-4.9033 1.99675-9.2559 7.75338-9.2559 7.75339 0 0-4.0215-1.48923-6.7043-1.96837-2.6829-.47913-7.0259-.48376-7.0259-.48376s-1.1734 2.65974-.7503 6.55843c.423 3.89868.1346 6.42927 1.0451 6.87908 0 0-1.8849.32948-4.1707.70467-2.2857.37518-3.5258 2.02263-3.5258 2.02262 0 0 4.665 4.75195 7.2151 5.72963 2.5501.9777 3.1143 1.08252 5.3664 2.00698 2.252.92445 2.3763 4.64958 2.3763 4.64958s-2.1682-.342-4.4866-1.01718-1.5671-2.75277-5.185-5.18201c-3.6178-2.42925-12.8853-2.30123-12.8853-2.30123s-.0295 4.10871 2.4531 7.68568c2.4826 3.57696 6.5862 3.52014 6.5862 3.52014l.4287 3.37654s-4.2617.55948-6.3838-1.51019c-2.0858-2.03436-2.3065-4.83658-7.004-5.41437-4.9103-.60399-6.132 3.18744-9.2468 5.50362-3.1149 2.31618-7.8847 3.71142-7.8847 3.71142s3.127 3.85744 5.2349 7.07222c2.535 3.86601 3.0085 5.99608 6.2874 6.58169 3.2791.58561 8.5377-2.97799 8.5377-2.97799l2.8986.61018-1.6371 3.65527s-2.0585-.08-6.2994 1.774c-4.2407 1.85395-5.6737 10.64449-5.6737 10.64449s9.1419 2.34252 13.3716-.0792c4.358-2.49514 5.218-6.7166 5.218-6.71659l4.1862-.486-.7767 4.30235s-4.8325 1.6492-6.954 4.92618c-2.1217 3.27696-1.5846 4.43474-2.3079 7.42138-.5519 2.27891-3.7699 5.43317-3.7699 5.43318 0 0 13.5053.25738 19.3029-1.57966 16.0339-7.17149 5.0646-8.16932 15.7723 2.81681 4.3375 3.6471 16.7477 8.01804 16.7477 8.01804 0-.00001-1.3226-3.96518-.666-6.22539.8605-2.96215 1.9373-3.83169 1.6741-7.53456-.2632-3.70289-3.8188-6.85016-3.8188-6.85016l1.4808-4.1766 3.559 1.86926c.0002-.00001-1.3636 4.1315 1.3303 7.88607 2.6147 3.64405 12.1174 4.63133 12.1174 4.63133s3.1655-8.48112.2521-11.61276c-2.9134-3.13166-4.8257-3.76087-4.8257-3.76087l.3696-3.88161 2.9456.43354s3.005 5.03942 6.284 5.62503c3.279.58562 4.7571-1.19594 9.0271-3.84665 3.5507-2.20416 8.3545-4.64523 8.3545-4.64523s-3.6276-2.89495-5.2823-6.06294c-1.6547-3.16798-.8384-7.03179-5.6099-8.15693-4.5647-1.07635-6.1898 1.39621-9.1203 2.53467-2.9815 1.15823-6.5367-.79732-6.5367-.79732l2.0709-2.93011s3.7022 1.4509 7.7777-.95486c4.0754-2.40574 6.1371-6.15152 6.1371-6.15152 0 .00002-8.3611-3.27635-12.8854-2.30122-4.5242.97514-4.8972 3.12028-7.3482 2.94366-2.4512-.17662-4.5965-.60501-4.5965-.60501 0 .00001 2.0066-3.34456 4.5241-3.41721 2.5174-.0727 3.0839.0244 5.8994.005 2.8156-.0194 9.4725-2.74935 9.4725-2.74935s-.29-1.92071-2.1776-3.04119c-1.8875-1.12052-3.4338-2.06277-3.4338-2.06277 1.0564-.0985 2.0805-2.49776 4.447-5.89824 2.3664-3.40049 2.6514-6.21891 2.6514-6.21891 0-.00001-3.951-1.47666-6.6339-1.95579-2.6829-.47914-7.0963-.49633-7.0963-.49633 0-.00001-1.0312-6.71811-4.4744-10.20551-2.2967-2.13104-4.5072-4.77701-7.3634-6.28042z"/><g fill="none" stroke-linecap="round"><path d="m723.65562 777.12539s-2.8776 2.89037-4.5026 3.92419c-1.6249 1.03381-6.2349 2.61823-6.2349 2.61823"/><path d="m721.36872 766.18604c-4.5808-1.36899-9.112-.80877-13.4892.041"/><path d="m723.86902 759.93944c-4.0434-2.46596-9.2138-4.54456-15.8902-6.10558"/><path d="m728.59322 753.56229s-1.3651-3.01672-3.3243-4.40323c-1.9591-1.3865-2.7253-3.49993-2.7253-3.49993"/><path d="m740.03242 747.72944s.4119-1.12478-.3393-4.95381c-.7281-3.71101-2.8544-6.30769-2.8544-6.30769"/><path d="m611.15432 749.31414s-2.1672 3.28682-3.5384 4.5547c-1.3714 1.26786-5.594 3.53926-5.594 3.53926"/><path d="m606.17012 738.91516c-4.9213-.63626-9.3176.61618-13.4883 2.12939"/><path d="m607.13272 732.38767c-4.6537-1.7978-10.3399-3.04028-17.4056-3.54075"/><path d="m610.28862 725.38743s-2.1094-2.75395-4.4116-3.81344c-2.3023-1.05949-3.5897-3.0183-3.5897-3.0183"/><path d="m625.36982 717.27531c-.2187-1.11961 4.3941-16.50405 4.3941-16.50405"/><path d="m620.29812 717.88231s.1351-1.16944-1.5602-4.81695c-1.6431-3.5351-4.4108-5.75827-4.4108-5.75827"/><path d="m622.50252 751.34083s.2997 3.7274.902 5.34775c.6023 1.62032 3.2871 5.12536 3.2871 5.12536"/><path d="m632.32012 743.58535c4.7979 1.09954 8.1586 3.7373 11.1815 6.53523"/><path d="m634.76292 737.32221c5.1451-.0478 10.9467.76138 17.6253 2.71553"/><path d="m635.45182 729.88139s3.3179-1.78467 5.9497-1.96299c2.6316-.17833 4.798-1.5203 4.798-1.5203"/><path d="m630.16602 719.64465s.4716-1.10935 3.8671-3.84767c3.2908-2.65392 6.9373-3.73158 6.9373-3.73158"/></g><path d="m607.61382 732.89047c2.584-9.70577 10.6808-16.46206 18.0899-15.13885 7.4092 1.32322 11.3616 10.2314 8.7775 19.93717-2.5865 9.71438-10.69 16.49646-18.1241 15.1688-7.4092-1.32322-11.3297-10.25275-8.7433-19.96712"/><path d="m611.82752 733.64766c1.9194-7.20895 7.5935-12.28787 12.6779-11.37983 5.0845.90803 7.679 7.46369 5.7596 14.67264-1.921 7.21535-7.6003 12.31345-12.7019 11.40235-5.0843-.90804-7.6566-7.47979-5.7356-14.69516" fill="#e3e4e5" stroke="#000"/></g><g fill="#f0aa18" stroke="#000"><path d="m480.90632 605.00517c-4.3352 2.06283-7.7063 5.13889-8.793 8.95194-1.2468 5.82471-2.0328 12.47518-2.1708 19.5396-.0212.73445.0369 1.44938.0369 2.17107 0 .83636-.1997 1.73407-.2208 2.58744-.3556 14.82076-2.9762 27.91557-6.7696 35.9267l28.5867 21.6512 28.2925-21.6512c-3.7721-8.01113-6.4144-21.10596-6.7329-35.9267-.0158-.85334-.2309-1.75106-.2574-2.58744 0-.72172.0894-1.43664.0735-2.17107-.1751-7.06439-.9292-13.71491-2.1707-19.5396-1.1124-3.85902-4.4672-6.98255-8.793-9.04116.2968 2.60737.6772 5.10343.7358 8.00024.008.47139-.0368.93459-.0368 1.3978.0138.53683.102 32.52389.1104 33.07161.0833 4.75629.489 9.24378 1.1037 13.1751.6146 3.93133 1.44 7.30296 2.4282 9.87391l-14.8269 13.91862-14.9739-13.91862c.9937-2.57094 1.8492-5.9426 2.4649-9.87391.6158-3.9313.9738-8.41882 1.067-13.1751.011-.5477.1472-32.53479.1472-33.07161-.0001-.46321-.048-.92641-.0368-1.3978.0456-2.86518.443-5.32832.7358-7.91102z"/><path d="m491.39922 845.29088c-16.5402 0-29.8839-6.23074-29.8839-13.90929 0-7.67856 13.3437-13.93514 29.8839-13.93514 16.555 0 29.9426 6.23074 29.9426 13.93514 0 7.67855-13.3876 13.90929-29.9426 13.90929"/><path d="m491.40682 840.92265c-12.2853 0-22.1963-4.27578-22.1963-9.5451s9.911-9.56284 22.1963-9.56284c12.2962 0 22.2399 4.27578 22.2399 9.56284 0 5.26932-9.9437 9.5451-22.2399 9.5451" fill="#e60000"/><path d="m480.90632 605.00517c-.2928 2.5827-.6902 5.04584-.7358 7.91102-.0112.47139.0367.93459.0368 1.3978 0 .53682-.1362 32.52391-.1472 33.07161-.0932 4.75628-.4512 9.2438-1.067 13.1751-.6157 3.93131-1.4712 7.30297-2.4649 9.87391l14.9739 13.91862 14.8269-13.91862c-.9882-2.57095-1.8136-5.94258-2.4282-9.87391-.6147-3.93132-1.0204-8.41881-1.1037-13.1751-.008-.54772-.0966-32.53478-.1104-33.07161 0-.46321.0452-.92641.0368-1.3978-.0586-2.89681-.439-5.39287-.7358-8.00024-3.0602-1.45628-6.5285-2.43874-10.3751-2.43874h-.0369c-3.9048 0-7.5134 1.02623-10.6694 2.52796z"/><g fill="#e3e4e5"><path d="m483.77602 596.15032c-.0102 4.21055 3.3983 7.63968 7.6268 7.65509 4.2284.0103 7.6628-3.38797 7.6783-7.60369 0-.0154 0-.0308 0-.0514.0103-4.2106-3.3983-7.63972-7.6268-7.64999-4.2233-.0103-7.6628 3.388-7.6731 7.60369-.005.0154-.005.0308-.005.0463z"/><path d="m500.06042 609.37189c.0174 4.76381-3.839 8.64349-8.6028 8.66095-4.7637.0116-8.6435-3.83896-8.6609-8.60276 0-.0175 0-.0349 0-.0524-.0117-4.7638 3.839-8.64348 8.6028-8.65513 4.7638-.0174 8.6435 3.83316 8.6609 8.60277v.0465z"/><path d="m501.80252 621.88924c.0116 5.72938-4.6242 10.38266-10.3478 10.3943-5.7293.0116-10.3826-4.62421-10.4001-10.34776 0-.0116 0-.0291 0-.0465-.0116-5.72935 4.6243-10.38263 10.3536-10.40009 5.7294-.0117 10.3826 4.6242 10.3943 10.35358v.0465z"/><path d="m503.87332 637.95473c.0115 6.86942-5.5433 12.45337-12.4186 12.4708-6.8694.0116-12.4533-5.54322-12.4707-12.41846 0-.0174 0-.0349 0-.0523-.0117-6.86942 5.5431-12.45337 12.4184-12.47081 6.8694-.0116 12.4533 5.54322 12.4709 12.41846v.0524z"/><path d="m505.75202 655.85245c.0175 7.91058-6.3808 14.33794-14.2914 14.35538-7.9106.0175-14.3322-6.38081-14.3554-14.29141 0-.0174 0-.0407 0-.064-.0175-7.9106 6.3808-14.33796 14.2913-14.35539 7.9107-.0175 14.338 6.38082 14.3555 14.29139v.064z"/></g><path d="m491.28142 667.53373c-1.0483.25654-4.9744 2.44131-8.7195 4.85136-4.3612 2.80651-7.1743 9.19044-7.1743 9.19046 0 0-4.4074-.75332-7.2111-.75332-2.8036 0-7.1374.7533-7.1374.75332 0 0-.4643 2.80344.9934 6.53878 1.4575 3.73535 1.8419 6.25818 2.8697 6.53879 0 0-1.7929.65082-3.9735 1.41623-2.18058.7654-2.9801 2.59141-2.9801 2.59141s5.9159 3.82884 8.7196 4.3391c2.8035.51027 3.3944.51423 5.8866 1.02451 2.492.51026 3.6054 4.12818 3.6055 4.12817 0 0-2.254.0442-4.7461-.21093-2.4922-.25513-2.2945-2.41611-6.5489-4.15831-4.2543-1.74218-13.46553 0-13.46553 0s1.06183 4.01953 4.48853 7.08118 7.5054 2.29008 7.5054 2.29008l1.3245 3.22419s-4.1029 1.29029-6.7696-.36159c-2.62118-1.62368-3.58564-4.32305-8.42512-4.06791-5.05905.26671-5.27085 4.18426-7.76299 6.99078-2.49215 2.80652-6.87989 5.00202-6.87989 5.00202s4.14392 3.22326 7.10064 5.99639c3.55573 3.33493 4.59377 5.33348 8.02047 5.33347 3.4267 0 7.72614-4.39936 7.72614-4.39936l3.05375.0904-.66226 3.85699s-2.07491.28108-5.81301 2.83247c-3.73821 2.55136-2.83297 11.39013-2.83297 11.39013s9.74204.69355 13.31844-2.4106c3.6847-3.19829 3.4216-7.47292 3.4216-7.4729l4.047-1.20531.3679 4.3391s-4.383 2.45459-5.6291 6.02653c-1.246 3.57193-.4027 4.6094-.331 7.6537.0546 2.32289-2.3179 5.96625-2.3179 5.96625s13.5412-2.1051 18.837-4.91161c14.0906-9.80464 2.8826-8.8655 16.4825 0 5.2958 2.80651 18.8371 4.91161 18.8371 4.91161s-2.3726-3.64336-2.3178-5.96625c.0716-3.0443.9149-4.08177-.3312-7.6537-1.2461-3.57194-5.629-6.02653-5.629-6.02653l.3679-4.3391 4.047 1.20531c0-.00002-.2632 4.27461 3.4216 7.4729 3.5763 3.10415 13.3184 2.4106 13.3184 2.4106s.9052-8.83877-2.8329-11.39013c-3.7382-2.55139-5.813-2.83247-5.813-2.83247l-.6622-3.85699 3.0536-.0904s4.3363 4.39936 7.763 4.39936c3.4265.00001 4.4278-1.99854 7.9836-5.33347 2.9567-2.77313 7.1007-5.99639 7.1007-5.99639-.0001 0-4.3878-2.1955-6.88-5.00202-2.4921-2.80652-2.7039-6.72407-7.7628-6.99078-4.8396-.25514-5.8041 2.44423-8.4253 4.06791-2.6667 1.65188-6.7327.36159-6.7327.36159l1.2876-3.22419s4.0787.77157 7.5054-2.29008 4.4885-7.08118 4.4885-7.08118-9.2112-1.74218-13.4655 0c-4.2544 1.7422-4.0567 3.90318-6.5488 4.15831-2.4922.25514-4.746.21093-4.746.21093-.0002.00001 1.1133-3.61791 3.6055-4.12817 2.4921-.51028 3.0829-.51424 5.8866-1.02451 2.8035-.51026 8.7194-4.3391 8.7194-4.3391s-.7995-1.82601-2.98-2.59141c-2.1806-.76541-3.9735-1.41623-3.9735-1.41623 1.0277-.28061 1.4121-2.80344 2.8698-6.53879 1.4575-3.73534.9933-6.53878.9933-6.53878 0-.00002-4.3339-.75332-7.1375-.75332-2.8037 0-7.2111.75332-7.2111.75332 0-.00002-2.8131-6.38395-7.1742-9.19046-2.8572-1.68135-5.7652-3.88085-9.0139-4.85136z"/><g fill="none" stroke-linecap="round"><path d="m485.28412 739.83778s-1.289 3.58953-2.3202 5.06757-4.6405 4.43411-4.6405 4.43411"/><path d="m477.55002 730.54724c-5.0785.23709-9.1316 2.2279-12.8903 4.43412"/><path d="m490.95592 706.05403c-.5156-1.05573 0-16.89188 0-16.89188"/><path d="m476.77652 724.00166c-5.12-.94446-11.1226-1.16622-18.30423-.42231"/><path d="m478.06552 716.61145s-2.8358-2.32264-5.4139-2.95607c-2.578-.63346-4.3826-2.32264-4.3826-2.32264"/><path d="m486.05762 707.53207s-.1759-1.16616-2.8359-4.43411c-2.5781-3.16723-5.9295-4.85642-5.9295-4.85642"/><path d="m497.14332 739.83778s1.289 3.58953 2.3202 5.06757 4.6405 4.43411 4.6405 4.43411"/><path d="m504.87752 730.54724c5.0785.23709 9.1315 2.2279 12.8904 4.43412"/><path d="m505.65092 724.00166c5.1202-.94446 11.1227-1.16622 18.3042-.42231"/><path d="m504.36192 716.61145s2.8359-2.32264 5.4139-2.95607c2.578-.63346 4.3828-2.32264 4.3828-2.32264"/><path d="m496.36992 707.53207s.1758-1.16616 2.8358-4.43411c2.5781-3.16723 5.9295-4.85642 5.9295-4.85642"/></g><path d="m477.38992 724.40898c0-9.93383 6.2828-17.94784 14.0256-17.94784 7.7429 0 14.0517 8.01401 14.0517 17.94784 0 9.94265-6.2828 17.98305-14.0517 17.98305-7.7428 0-14.0256-8.0404-14.0256-17.98305"/><path d="m481.79472 724.41352c0-7.37835 4.3116-13.33077 9.6249-13.33077 5.3134 0 9.6428 5.95242 9.6428 13.33077 0 7.38491-4.3115 13.35694-9.6428 13.35694-5.3133 0-9.6249-5.97203-9.6249-13.35694" fill="#e3e4e5" stroke="#000"/></g></g><g transform="matrix(.79744444 -1.0656657 1.0656657 .79744444 1.978506 414.2417)"><path d="m426.713 363.081c-1.196.89-1.258 1.599-.354 2.844l-.563.42-4.492-6.188.563-.419c.904 1.244 1.593 1.397 2.789.51l8.952-6.652-.027-.034-13.908 4.35-.452-.622 7.897-11.906-.025-.034-6.953 5.167c-2.732 2.029-2.961 2.439-1.997 4.092l-.565.419-3.173-4.373.562-.42c1.396 1.306 1.771 1.425 4.521-.617l6.576-4.887c1.282-.954 1.195-1.687.356-2.845l.562-.419 3.675 5.063-5.832 8.591 9.897-2.992 3.575 4.925-.563.42c-.989-1.181-1.491-1.474-2.79-.51z" fill="#fdce12"/><path d="m421.162 360.135.726-.538.06.083c.518.711.943 1.031 1.409 1.029.343 0 .74-.177 1.238-.543l8.573-6.371-13.536 4.232-.536-.736 7.685-11.587-6.582 4.892c-1.808 1.337-2.485 1.97-2.474 2.642-.001.353.177.758.504 1.318l.046.076-.722.535-3.291-4.537.71-.528.062.058c.645.605 1.053.929 1.546.926.58.005 1.368-.453 2.845-1.552l6.576-4.886c.674-.502.937-.919.937-1.351.001-.385-.213-.818-.601-1.354l-.059-.082.725-.539 3.777 5.204-5.711 8.413 9.693-2.93 3.677 5.063-.72.537-.062-.072c-.583-.702-.984-1.058-1.433-1.054-.316-.001-.696.168-1.219.562l-8.233 6.115c-.65.485-.932.891-.932 1.341-.001.371.196.808.599 1.363l.06.079-.727.541zm.28.044 4.373 6.023.403-.301c-.375-.532-.578-.976-.58-1.399 0-.547.348-1.011 1.013-1.503l8.232-6.117c.536-.401.95-.599 1.34-.6.551.004.971.397 1.526 1.052l.406-.303-3.475-4.786-10.103 3.054 5.954-8.768-3.574-4.925-.4.3c.361.512.58.951.581 1.391 0 .526-.326 1-1.016 1.514l-6.577 4.886c-1.483 1.097-2.278 1.585-2.965 1.591-.576-.002-1.011-.354-1.622-.922l-.416.309 3.055 4.208.41-.304c-.303-.529-.486-.939-.487-1.341.012-.83.761-1.463 2.557-2.805l7.035-5.229.061.084.066.092-7.898 11.906.369.507 13.906-4.35.043.057.09.116-9.035 6.714c-.514.378-.945.58-1.359.582-.549-.002-1.009-.358-1.511-1.03z"/></g><g transform="matrix(.79744444 -1.0656657 1.0656657 .79744444 9.947756 414.87618)"><path d="m426.713 363.081c-1.196.89-1.258 1.599-.354 2.844l-.563.42-4.492-6.188.563-.419c.904 1.244 1.593 1.397 2.789.51l8.952-6.652-.027-.034-13.908 4.35-.452-.622 7.897-11.906-.025-.034-6.953 5.167c-2.732 2.029-2.961 2.439-1.997 4.092l-.565.419-3.173-4.373.562-.42c1.396 1.306 1.771 1.425 4.521-.617l6.576-4.887c1.282-.954 1.195-1.687.356-2.845l.562-.419 3.675 5.063-5.832 8.591 9.897-2.992 3.575 4.925-.563.42c-.989-1.181-1.491-1.474-2.79-.51z" fill="#fdce12"/><path d="m421.162 360.135.726-.538.06.083c.518.711.943 1.031 1.409 1.029.343 0 .74-.177 1.238-.543l8.573-6.371-13.536 4.232-.536-.736 7.685-11.587-6.582 4.892c-1.808 1.337-2.485 1.97-2.474 2.642-.001.353.177.758.504 1.318l.046.076-.722.535-3.291-4.537.71-.528.062.058c.645.605 1.053.929 1.546.926.58.005 1.368-.453 2.845-1.552l6.576-4.886c.674-.502.937-.919.937-1.351.001-.385-.213-.818-.601-1.354l-.059-.082.725-.539 3.777 5.204-5.711 8.413 9.693-2.93 3.677 5.063-.72.537-.062-.072c-.583-.702-.984-1.058-1.433-1.054-.316-.001-.696.168-1.219.562l-8.233 6.115c-.65.485-.932.891-.932 1.341-.001.371.196.808.599 1.363l.06.079-.727.541zm.28.044 4.373 6.023.403-.301c-.375-.532-.578-.976-.58-1.399 0-.547.348-1.011 1.013-1.503l8.232-6.117c.536-.401.95-.599 1.34-.6.551.004.971.397 1.526 1.052l.406-.303-3.475-4.786-10.103 3.054 5.954-8.768-3.574-4.925-.4.3c.361.512.58.951.581 1.391 0 .526-.326 1-1.016 1.514l-6.577 4.886c-1.483 1.097-2.278 1.585-2.965 1.591-.576-.002-1.011-.354-1.622-.922l-.416.309 3.055 4.208.41-.304c-.303-.529-.486-.939-.487-1.341.012-.83.761-1.463 2.557-2.805l7.035-5.229.061.084.066.092-7.898 11.906.369.507 13.906-4.35.043.057.09.116-9.035 6.714c-.514.378-.945.58-1.359.582-.549-.002-1.009-.358-1.511-1.03z"/></g><g transform="matrix(.4959762 -1.2351391 1.2351391 .4959762 156.72368 827.20619)"><path d="m574.013 254.475c-.747 1.478-1.426 2.83-.501 4.425l-.578.399-2.954-4.372c.252-.616.634-1.19.955-1.777l1.481-2.557c1.539-2.624 1.264-3.446.762-4.19l-3.919 2.711c-1.224.847-1.31 1.557-.447 2.83l-.579.4-4.282-6.337.576-.399c.862 1.274 1.545 1.451 2.771.603l8.435-5.834c1.224-.847 1.311-1.556.448-2.83l.577-.399 5.146 7.61c1.771 2.62 1.459 5.199-.396 6.482-1.923 1.331-3.996.244-5.458-1.237.004.803-.418 1.509-.792 2.209zm.215-8.305c1.975 2.92 3.518 3.152 5.372 1.869 1.767-1.223 1.702-2.686.423-4.579-.789-1.167-1.262-.919-2.261-.229l-3.761 2.603z" fill="#fdce12"/><path d="m569.864 254.938.021-.05c.257-.628.641-1.205.961-1.789l1.481-2.557c.862-1.47 1.144-2.363 1.143-2.975-.002-.433-.137-.731-.321-1.022l-3.834 2.651c-.683.475-.976.878-.976 1.346-.002.364.182.796.555 1.345l.055.083-.744.515-4.396-6.506.742-.515.058.085c.508.75.929 1.08 1.409 1.079.334.001.727-.162 1.22-.502l8.435-5.833c.683-.474.976-.879.976-1.346.002-.365-.184-.798-.554-1.344l-.056-.083.743-.514 5.204 7.695c.809 1.196 1.191 2.39 1.191 3.465.002 1.305-.571 2.434-1.613 3.155-.627.434-1.275.619-1.911.619-1.297-.001-2.531-.761-3.515-1.708-.066.742-.458 1.393-.792 2.028l-1.246 2.263c-.489.966-.937 1.867-.937 2.794 0 .491.122.994.435 1.532l.048.08-.74.513zm3.097 4.219.417-.288c-.296-.537-.417-1.051-.415-1.552.001-.997.471-1.921.959-2.888l.09.045-.089-.049 1.245-2.262c.374-.701.781-1.391.779-2.15v-.011-.245l.174.174c.984 1 2.25 1.809 3.532 1.807.597 0 1.2-.171 1.796-.583.988-.687 1.524-1.742 1.525-2.989 0-1.028-.367-2.183-1.156-3.353l-5.09-7.525-.41.285c.344.523.53.962.531 1.374 0 .565-.363 1.03-1.061 1.513l-8.435 5.834c-.51.349-.935.538-1.336.538-.567-.001-1.028-.377-1.52-1.083l-.41.284 4.169 6.169.412-.284c-.345-.524-.531-.963-.533-1.375 0-.566.365-1.029 1.063-1.512l4.003-2.771.058.086c.223.33.413.697.412 1.222-.002.674-.302 1.594-1.17 3.075l-1.48 2.557c-.314.575-.683 1.13-.93 1.716zm1.182-12.931.085-.056.083-.056c1.238 1.83 2.285 2.568 3.319 2.566.608 0 1.232-.256 1.91-.724.92-.639 1.313-1.317 1.314-2.09 0-.688-.321-1.468-.917-2.349-.389-.574-.678-.768-.963-.767-.295-.003-.656.215-1.155.564l-3.679 2.546.17.253-.083.056-.084.057-.282-.418 3.844-2.66c.501-.346.879-.597 1.271-.601.394.001.735.269 1.132.857.605.897.95 1.708.95 2.461.002.849-.448 1.601-1.399 2.256-.697.48-1.36.76-2.027.76-1.146 0-2.24-.808-3.489-2.655z"/></g><g fill="#d5d6d7" stroke="#000" transform="matrix(.06709177 0 0 .06709177 659.055958 215.564817)"><path d="m408.73684 185.28772-129.31594 124.52606 129.31594 124.52606-172.5007-49.72786-43.18476 174.25393-43.18476-174.25393-172.500709 49.72786 129.315939-124.52606-129.31594-124.52606 172.50071 49.72786 43.18476-174.253922 43.18476 174.253922z" stroke-width="3.259714" transform="translate(107.9486 22.18622)"/><path d="m370.45134 331.59594h17" stroke-width="3.259719"/><path d="m212.83397 331.31546h17.00001" stroke-width="3.259714"/><g stroke-width="3.259719"><path d="m335.8314 392.04424 8.65449 14.63213"/><path d="m257.68488 256.37515 8.65449 14.63213"/><path d="m344.90679 256.37515-8.65449 14.63213"/><path d="m266.54982 392.04424-8.65449 14.63213"/></g></g><g fill="#d5d6d7" stroke="#000" transform="matrix(.06709177 0 0 .06709177 768.977016 216.394117)"><path d="m408.73684 185.28772-129.31594 124.52606 129.31594 124.52606-172.5007-49.72786-43.18476 174.25393-43.18476-174.25393-172.500709 49.72786 129.315939-124.52606-129.31594-124.52606 172.50071 49.72786 43.18476-174.253922 43.18476 174.253922z" stroke-width="3.259714" transform="translate(107.9486 22.18622)"/><path d="m370.45134 331.59594h17" stroke-width="3.259719"/><path d="m212.83397 331.31546h17.00001" stroke-width="3.259714"/><g stroke-width="3.259719"><path d="m335.8314 392.04424 8.65449 14.63213"/><path d="m257.68488 256.37515 8.65449 14.63213"/><path d="m344.90679 256.37515-8.65449 14.63213"/><path d="m266.54982 392.04424-8.65449 14.63213"/></g></g><g transform="matrix(-.98618142 .04770149 -.04605691 -1.0213958 851.83315 680.8611)"><path d="m180.11494 423.64822c-.13951.68048-.25775 1.41141-.35472 2.19277-.097.78136-.18069 1.62336-.25117 2.52601-.15504 2.00518-.0317 3.80137.37012 5.38855.4018 1.58716 1.06146 2.9059 1.97897 3.95625 1.00087 1.1147 2.20643 1.97123 3.61667 2.56957 1.41023.5983 2.98698.96428 4.73026 1.09794 1.81871.16761 3.55304-.0235 5.20299-.57333 1.64992-.54986 3.04036-1.61145 4.17132-3.18477 1.13092-1.57335 1.82727-3.81143 2.08905-6.71426.078-1.02122.11105-1.99726.0989-2.92812-.0122-.93088-.0523-1.80439-.12051-2.62053zm19.59141 3.95385c.045.38035.0745.84254.0885 1.38655.0139.544-.005 1.16123-.0568 1.85169-.23599 2.84981-1.15678 4.9555-2.76237 6.31704-1.60564 1.36152-3.83467 1.93323-6.6871 1.71513-3.13793-.26127-5.46068-1.23782-6.96824-2.92965-1.50757-1.69185-2.14823-4.02267-1.922-6.99242.0403-.52345.0899-1.0263.1487-1.50855.0588-.48226.13077-.90388.21602-1.26485z"/><path d="m177.7371 457.95216 1.97223-8.9729 8.29782 1.82385-1.75584 7.9884 1.94084.4266 1.75584-7.98841 7.25708 1.59509-1.86713 8.49472 1.96897.43278 2.38027-10.82936-21.43368-4.71108-2.48537 11.30753z"/><path d="m170.02274 480.19146 3.47317-8.3807 18.38433 7.61892.91515-2.20825-20.27331-8.40176-4.38833 10.58895z"/><path d="m179.89281 503.36707 1.45404-2.35153-14.84845-17.71418-1.28743 2.08209 4.8386 5.70072-4.01374 6.49121-7.29228-1.73251-1.33287 2.15557zm-8.48404-10.86684 4.45827 5.33011c.4816.53763.96395 1.06727 1.44702 1.5889.48306.52159.96831 1.01915 1.45573 1.49268l-.0454.0735c-1.24968-.43412-2.6305-.84775-4.1425-1.24089l-6.67187-1.58591z"/><path d="m151.358 535.22999 1.73717-1.46924-6.17452-7.30049c-1.09698-1.30078-2.12678-2.48865-3.08938-3.56358-.96259-1.07498-1.97127-2.14868-3.02604-3.22111l.0254-.0592c1.11433.538 2.29346 1.04949 3.53736 1.53448 1.24394.48497 2.5833.97409 4.01812 1.46737l12.86716 4.24269 1.91309-1.61802-14.17162-16.75596-1.71517 1.45063 6.24889 7.38846c1.20541 1.42987 2.28255 2.68299 3.23141 3.75937.94885 1.07634 1.90173 2.10451 2.85865 3.0845l-.0694.0964c-1.19289-.5761-2.44149-1.11213-3.74579-1.6081-1.30432-.496-2.63452-.97244-3.99064-1.42931l-12.8012-4.29848-1.82512 1.54363z"/><path d="m131.35706 546.44858c2.59003-1.07732 4.32453-2.87746 5.20351-5.40042.87897-2.523.67107-5.46617-.62367-8.82951-1.33695-3.19505-3.15746-5.38831-5.46149-6.57982-2.30404-1.19151-4.74715-1.28706-7.32933-.28665-2.47222.99237-4.18616 2.7118-5.14186 5.1583-.95566 2.44647-.74692 5.47209.6262 9.07685 1.28664 3.10531 3.06565 5.27906 5.33703 6.52125 2.2714 1.24214 4.7346 1.35547 7.38961.34zm-.63505-1.88649c-1.46163.55315-2.83273.59561-4.11332.12735-1.28056-.46829-2.41059-1.26103-3.39009-2.37822-.97948-1.11722-1.74841-2.37263-2.3068-3.76623-.96001-2.39988-1.23553-4.65615-.82654-6.76878.409-2.11265 1.64987-3.62875 3.72259-4.5483 2.11232-.75051 4.04992-.50326 5.8128.74177 1.7629 1.24501 3.10069 2.99097 4.01337 5.23786.59554 1.4693.93443 2.95795 1.01665 4.46598.0823 1.50801-.18169 2.87592-.79173 4.10377-.61005 1.2278-1.65569 2.15607-3.13693 2.7848z"/><path d="m100.28152 542.20579c-1.119005.46668-1.991505 1.14102-2.617503 2.02303-.625971.88198-.923193 1.87089-.891665 2.96673.038.8199.212343 1.54042.523023 2.16155.310707.6211.736173 1.14372 1.276398 1.56788.66132.51872 1.466007.89092 2.414077 1.11662.94808.22565 2.09379.30971 3.43714.2522.90148-.0409 1.75805-.12119 2.56973-.24109.81167-.11993 1.52166-.259 2.12996-.4172l-.90382-21.55198c-.44798-.0286-1.01114-.0543-1.68948-.0769-.67833-.0226-1.47078-.017-2.37736.0168-1.65346.0657-3.06606.29072-4.237782.67495-1.171703.38423-2.108825.94958-2.811368 1.69606-.493365.50711-.886752 1.12172-1.180163 1.84385-.293381.72211-.424737 1.57075-.394067 2.54591.127846 1.64486.675201 2.89741 1.642068 3.75765.966894.86022 2.002622 1.38608 3.107192 1.57757zm6.07277.46596.31254 7.45255c-.20914.0676-.51046.12829-.90395.18203-.39349.0537-.90463.0944-1.53342.12196-1.51274.0707-2.71445-.17443-3.60512-.73518-.890662-.56078-1.371387-1.48464-1.442183-2.77157l-.0012-.0288c-.03062-1.14572.363076-2.09664 1.181093-2.85275.81803-.75615 1.96182-1.17644 3.43134-1.26087zm-.0772-1.84156-2.30194.0965c-1.51049.0814-2.84709-.20128-4.009799-.84791-1.162689-.64665-1.807126-1.77983-1.933315-3.39954-.01878-1.63684.509178-2.82278 1.583897-3.55784 1.074747-.73508 2.392717-1.12543 3.953947-1.17109.50351-.0223.94992-.0314 1.33922-.0274.38932.004.72183.0285.99754.0734z"/><path d="m77.217908 529.15832 8.926035 1.6593-3.547785 19.56619 2.351941.43722 3.912318-21.57661-11.277976-2.09652z"/><path d="m62.529945 520.88236 8.057445 4.41362-4.08156 7.45124-7.1734-3.92936-.95467 1.74283 7.173399 3.92936-3.569635 6.51669-7.628052-4.17841-.968506 1.76808 9.724503 5.32679 10.542878-19.24694-10.153896-5.562z"/><path d="m27.193027 519.01989 10.566987-4.83561c1.394985-.62258 2.748303-1.25557 4.059955-1.89899 1.311676-.64341 2.538348-1.29626 3.680021-1.95855l.05885.0633c-.740471 1.08558-1.483518 2.24239-2.229144 3.47042-.745606 1.22803-1.5036 2.51675-2.273983 3.86617l-5.759288 9.96075 1.765554 1.89766 11.317999-20.01025-1.726319-1.8555-21.20657 9.42405z"/><path d="m39.843517 497.21201-1.361293-1.96488-18.039 12.49767 1.361294 1.96488z"/><path d="m28.713699 480.80783 4.288668 7.99414-17.536368 9.40784 1.13003 2.1064 19.338223-10.3745-5.418698-10.10054z"/><path d="m21.928134 465.9192 3.194671 8.49076-18.62578 7.00799.8417704 2.23725 20.5395716-7.72806-4.03644-10.72802z"/><path d="m-.27852129 456.70998.614818 2.69554 23.00972429 2.19567-.544369-2.38667-7.447742-.66441-1.697154-7.4408 6.410237-3.88432-.563584-2.47091zm13.67037629 1.78548-6.9167115-.66737c-.7204005-.0449-1.4357074-.0836-2.1459225-.1161-.7101768-.0325-1.4050399-.0463-2.0845918-.0415l-.019213-.0842c1.1948297-.5679 2.4686999-1.24246 3.8216147-2.02369l5.8654181-3.55327z"/><path d="m20.570733 431.49956c.07087-.691.115546-1.43008.134016-2.21722s.01771-1.63329-.0023-2.53847c-.04594-2.01064-.348024-3.78553-.906277-5.32467-.558251-1.53912-1.346272-2.78542-2.364066-3.73891-1.107163-1.0092-2.39221-1.74108-3.855144-2.19564-1.46292-.45451-3.068333-.66124-4.816244-.62018-1.8263602.0148-3.5329427.37812-5.1197524 1.08993-1.5867757.71185-2.8642775 1.90696-3.8325092 3.58532-.9681901 1.6784-1.4376082 3.97482-1.4082559 6.88929.024275 1.02391.088909 1.99836.1939038 2.92337.1050387.92501.2322169 1.79014.3815348 2.59541zm-19.8882746-1.97808c-.082757-.37396-.1582538-.83088-.2264916-1.37078-.068197-.5399-.1109895-1.15593-.1283765-1.84812-.049721-2.85913.6562362-5.04622 2.1178733-6.56127 1.4616736-1.51502 3.6224862-2.30643 6.4824444-2.3742 3.14834-.0534 5.556975.68644 7.225917 2.2193 1.668949 1.53289 2.539123 3.78809 2.610523 6.7656.0121.52486.01299 1.03014.0027 1.51585-.01032.48571-.03987.91241-.08865 1.2801z"/><path d="m20.865348 396.45104-1.070001 9.12456-8.438072-.9895.952604-8.12343-1.973651-.23145-.9526037 8.12344-7.3797369-.86539 1.0129799-8.6383-2.0022542-.2348-1.29138157 11.0124 21.79596647 2.55593 1.348405-11.49866z"/><path d="m9.2402721 363.03375-.690177 2.16796 9.1109269 2.90049c1.620676.51848 3.124404.97705 4.511191 1.37571 1.386792.39868 2.811945.77178 4.275462 1.11931l.01.0636c-1.229827.13678-2.500436.33046-3.811831.58103-1.311392.25061-2.705827.54842-4.183308.89346l-13.1536221 3.24757-.7600683 2.3875 20.9112244 6.65715.68144-2.14052-9.220697-2.93544c-1.781131-.57017-3.35965-1.05884-4.735561-1.46602-1.375887-.40716-2.7295729-.77136-4.0610616-1.09262l.00751-.11851c1.316618-.14628 2.6591146-.35611 4.0274926-.62949 1.368402-.27335 2.748336-.57705 4.139804-.91108l13.127413-3.16524.725123-2.27773z"/><path d="m32.821089 364.32755.988103-2.17658-19.982612-9.07151-.988103 2.17659z"/><path d="m41.099215 342.2109c-.06656.61371-.23066 1.29006-.492278 2.02906-.261629.73904-.61147 1.47043-1.049523 2.19418-1.36996 2.19339-3.109829 3.4886-5.219613 3.88566-2.109785.39706-4.407499-.15293-6.89315-1.64998-2.569568-1.61958-4.143621-3.49238-4.722159-5.61841-.578516-2.12601-.212532-4.27051 1.097952-6.4335.458137-.73466.941104-1.35488 1.448901-1.86066.507817-.50574 1.001059-.90853 1.479729-1.20839l-1.387577-1.5938c-.33841.19159-.797492.5731-1.377248 1.14452-.579733.57148-1.217276 1.40941-1.912629 2.5138-1.673615 2.79897-2.158669 5.56016-1.455164 8.28358.703535 2.72343 2.567644 5.04148 5.592335 6.95413 3.202944 1.87908 6.089567 2.48325 8.659876 1.81253 2.570308-.67071 4.610799-2.24049 6.12148-4.70934.650447-1.08054 1.137971-2.07096 1.462571-2.97126.324585-.90028.512083-1.63547.562494-2.2056z"/><path d="m37.076718 319.0501-1.905834 2.00293 10.895425 20.38524 1.687457-1.77343-3.565172-6.57265 5.260896-5.52892 6.781266 3.19272 1.747015-1.83601zm6.072356 12.37714-3.269033-6.13186c-.360973-.62505-.724309-1.24242-1.090005-1.85212-.365683-.60965-.738438-1.19623-1.118266-1.75975l.05956-.0625c1.133925.68142 2.400424 1.36974 3.7995 2.06491l6.204158 2.92186z"/><path d="m62.402921 311.76689c.781096-.9913 1.239344-2.08453 1.374748-3.27968.135393-1.19512-.176623-2.41299-.936049-3.65361-.447853-.69783-.981361-1.26872-1.600523-1.71267-.619168-.4439-1.278724-.72992-1.978673-.85804-.863567-.16627-1.786886-.11115-2.769958.16535-.983069.27654-2.072288.79542-3.26766 1.55665-.741162.47256-1.459566.97755-2.155217 1.51498-.695635.53747-1.296425 1.05301-1.802371 1.54664l11.602454 18.2531 2.017322-1.28229-5.206428-8.19081 2.260371-1.43679c1.075686-.69227 2.095363-.92239 3.059034-.69034.963661.23206 1.979559.90867 3.047697 2.02981.98337 1.00798 1.82092 1.8335 2.512654 2.47657.691713.64309 1.198703 1.05593 1.520973 1.23855l2.090235-1.32864c-.402175-.23562-.975682-.69719-1.720521-1.38471-.744862-.6875-1.685904-1.60649-2.823127-2.75697-.860219-.87794-1.722351-1.50725-2.5864-1.88795-.864061-.38067-1.728131-.46275-2.592212-.24623zm-5.711113 2.5041-4.511207-7.09709c.175425-.18257.442812-.41511.802163-.69758.359361-.28243.812333-.5988 1.358919-.94909 1.155338-.76493 2.321795-1.14665 3.499376-1.14515 1.177582.002 2.21539.66565 3.113428 1.99232.704489 1.14188.890734 2.28044.558738 3.41568-.332003 1.13528-1.145175 2.12424-2.439521 2.96687z"/><path d="m79.268384 290.45988-2.664032.7395-1.123341 23.08693 2.358779-.65477.317367-7.47057 7.353839-2.04132 4.178188 6.22268 2.44203-.67787zm-1.147874 13.73861.34502-6.94026c.01137-.72171.01676-1.43804.01619-2.149-.000584-.71092-.01909-1.40567-.05551-2.08427l.08325-.0231c.622853 1.16713 1.355923 2.40826 2.199209 3.72338l3.822171 5.69385z"/><path d="m114.20964 299.25185-6.77063-.59481-.16887 1.92218 4.41813.38814-.61498 7.00015c-.33114.14919-.81035.25646-1.43766.32181-.62733.0653-1.40023.0601-2.31868-.0157-2.52818-.23656-4.46408-1.2089-5.80773-2.91702s-1.901783-4.0483-1.67439-7.02058c.29319-2.91227 1.28414-5.08746 2.97286-6.52558 1.68871-1.43809 3.84339-2.05107 6.46405-1.83893 1.0107.0954 1.87088.25895 2.58055.49052.70962.2316 1.31523.49562 1.81683.79202l.80506-1.9241c-.53326-.31304-1.23018-.5935-2.09076-.84139-.86062-.24784-1.81991-.42125-2.87788-.52024-3.47074-.25069-6.28461.55735-8.44162 2.42409-2.157024 1.86678-3.402905 4.48937-3.737646 7.86778-.1675 1.58769-.02932 3.24881.414532 4.98334.443851 1.73454 1.386804 3.25435 2.828864 4.5594 1.44205 1.30506 3.57664 2.10721 6.40376 2.40643 1.39238.10425 2.63855.0836 3.7385-.0618 1.09993-.1455 1.9617-.31552 2.58533-.51009z"/><path d="m143.09524 299.09007-2.16175-1.02014-5.6661 12.00684c-1.05276 2.1802-2.24643 3.57937-3.58105 4.19749-1.33464.61812-2.72528.57887-4.17191-.11774-1.33893-.60996-2.1965-1.61572-2.5727-3.01731-.37622-1.40159-.051-3.22655.97543-5.47486l5.6661-12.00685-2.16176-1.02014-5.6538 11.98079c-1.35149 2.98199-1.70141 5.39367-1.04976 7.23507s1.93306 3.19182 3.84424 4.05126c2.01195.98328 3.97843 1.13505 5.89945.45529 1.921-.67977 3.60142-2.48614 5.04125-5.41913z"/><path d="m160.34352 312.9233-2.05714-1.84719-20.06205 11.47968 1.82143 1.63553 6.46694-3.75353 5.67856 5.09901-2.99551 6.87065 1.8857 1.69325zm-12.19659 6.42731 6.03488-3.44477c.61437-.37888 1.22098-.75989 1.81986-1.14305.59884-.38314 1.17441-.77268 1.72672-1.16862l.0643.0577c-.6484 1.15313-1.29983 2.43898-1.95431 3.85755l-2.74144 6.28596z"/><path d="m179.45587 352.93056c-.64077.78475-1.281 1.46598-1.9207 2.04374-.63972.57775-1.28455 1.03389-1.9345 1.36841-.20628-.8774-.43131-1.86428-.6751-2.96064-.24381-1.09636-.47578-2.17126-.69593-3.22466l.0428-.073c1.50148.0805 2.68422-.0397 3.54821-.36051.86398-.32076 1.50245-.84551 1.91539-1.57434.51265-.92166.62528-1.79188.33789-2.61067-.28741-.81878-.86948-1.47156-1.7461-1.9584-1.18987-.60167-2.28554-.73694-3.28703-.4058-1.00151.33115-1.76095.93246-2.27832 1.80391-.292.50536-.47593 1.06804-.55179 1.68803-.0759.62-.0592 1.27383.0499 1.96149l-.0322.0547c-1.13377-.008-2.15629.18375-3.06762.574-.91133.39026-1.64315 1.04069-2.19547 1.95129-.61818 1.07632-.7609 2.19187-.42816 3.34668.33273 1.15481 1.18652 2.12705 2.56139 2.91668.78586.43337 1.60923.71418 2.4701.84244.86086.12825 1.7838.0842 2.76886-.132.12755.4595.23838.85877.33246 1.19778.0941.33902.18232.66581.2647.98039l1.97495 1.07525c-.18419-.71997-.35543-1.37875-.51372-1.97634-.15833-.59759-.31234-1.17479-.46202-1.73157.89818-.32171 1.76187-.82314 2.59106-1.50431.82914-.68116 1.64629-1.50273 2.45146-2.46471zm-9.39511 3.52456c-.91213-.52168-1.4876-1.20598-1.72638-2.05296-.23882-.84697-.11901-1.69425.35936-2.54183.48364-.75395 1.08235-1.25727 1.79608-1.50994.71374-.25265 1.3721-.38055 1.97509-.38368.29281 1.3577.58187 2.64417.86718 3.85938.28529 1.21524.51896 2.21885.701 3.01085-.65487.21252-1.32554.28557-2.01202.2192-.6865-.0664-1.33993-.26674-1.96031-.60099zm7.46642-11.86654c.61454.36268.95184.80902 1.01191 1.33908.0598.53008-.0526 1.0323-.33777 1.50672-.36296.59658-.9038.99401-1.62252 1.19231-.71874.19831-1.59072.2831-2.61593.25442-.0923-.5501-.12123-1.0943-.0868-1.6326.0344-.53829.19868-1.06754.49288-1.58774.32192-.5517.76303-.95129 1.32332-1.19879.56026-.24745 1.1719-.20524 1.83494.12665z"/></g><g stroke="#000" transform="matrix(.00975009 -.04281789 .02868359 .01455461 635.531004 304.308415)"><path d="m408.73684 185.28772-129.31594 124.52606 129.31594 124.52606-172.5007-49.72786-43.18476 174.25393-43.18476-174.25393-172.500709 49.72786 129.315939-124.52606-129.31594-124.52606 172.50071 49.72786 43.18476-174.253922 43.18476 174.253922z" stroke-width="3.259714" transform="translate(107.9486 22.18622)"/><path d="m370.45134 331.59594h17" stroke-width="3.259719"/><path d="m212.83397 331.31546h17.00001" stroke-width="3.259714"/><g stroke-width="3.259719"><path d="m335.8314 392.04424 8.65449 14.63213"/><path d="m257.68488 256.37515 8.65449 14.63213"/><path d="m344.90679 256.37515-8.65449 14.63213"/><path d="m266.54982 392.04424-8.65449 14.63213"/></g></g><path d="m672.35642 295.59887-1.00106-6.67373 2.3358-4.33792 3.33687-5.67267 1.00106-5.33898 2.3358-2.66949 4.67161-5.0053 5.67267-5.67267 6.00636-4.33792 4.67161-1.00106 5.00529 2.66949 6.34005 8.67585 7.00741 9.6769 4.00424 8.00848 3.00318 7.67479 4.00424 2.00211 3.67055 1.66844h1.33475l3.00318-5.33899 3.33686-8.67584 4.00424-7.67479 9.00953-8.00848 4.67161-7.67478 5.67267-2.33581h6.34005l5.67267 6.00636 8.00847 11.34534 4.33792 9.34322 2.6695 8.00847 2.3358 5.0053v2.3358l-1.00106 3.67055-120.7945 1.00106z" fill="#803300" stroke="#553400"/><path d="m709.67204 265.59572 1.33475 3.8374.33369 4.33792 3.5037 5.0053 3.50371 7.17426-.66737 6.50688 1.1679 4.17108 2.16896 2.00212 34.03603-1.83527 5.50583-7.67479-3.67056-6.84057s-1.33474-5.0053-1.33474-5.83952c0-.83421 2.00212-4.00423 2.50265-4.67161.50053-.66737 2.50265-3.33686 3.33686-4.50476.83422-1.16791 1.50159-1.83528 2.33581-3.67056.83421-1.83527 2.00212-3.5037 2.00212-3.5037l1.00105-.50053-1.1679 4.83845-3.00318 6.1732-3.67055 4.67161 4.00424 10.17744 1.33475 5.33898v2.00212l2.50264-9.67691-.16684-11.01165 4.17108-4.83845-.50053-4.83846-.83421-2.66949 4.50476 6.67373-.50053 5.50583-2.3358 4.83845-2.50265 13.68114 1.00106 6.50689s2.50265 1.00106 3.00318.33369c.50053-.66738 4.83845-6.50689 4.83845-6.50689l-2.00212-13.84799.66738-8.34216 1.66843-3.00318-3.33687-4.33792 6.84057 5.17214-1.1679 5.0053 1.83528 8.84269 1.66843 10.84481v2.83633s1.00106 1.50159 1.66843 1.50159c.66738 0 3.67055-3.00318 3.67055-3.00318s-.16684-3.67055-.66737-5.17214-3.33686-6.34004-3.33686-6.34004l-2.6695-5.17214-.33368-3.17002s3.83739 5.67267 4.67161 7.3411c.83421 1.66843 3.33686 6.34004 3.33686 6.34004l1.83528 6.34005 3.83739 3.00317 2.33581 1.50159 1.00106 1.66843.33368 2.83634h-7.3411l-116.79026.83422-5.17214.33368 3.83739-14.51536 2.66949-3.83739 3.17002-5.67267 1.33475-5.33899-1.33475 9.00954-3.00317 6.84057.33368 8.34216 7.84163-1.00106 2.16897-3.50371s-1.16791-3.5037-1.16791-4.17108c0-.66737.16685-5.33898.16685-5.33898l.16684-3.33686 4.17108-5.67267 7.67479-11.84587 1.33474-2.00212 2.50265 3.17002-2.83633 4.00424-4.33793 6.67373-4.33792 9.51006 1.00106 9.17638 2.83633 3.33686 2.33581-2.3358s-2.50265-4.67161-2.50265-5.33899c0-.66737 3.00318-14.34851 3.00318-14.34851l5.83951-9.00954-2.83633 11.01166-.16685 9.51006-1.00106 5.50583 4.00424 4.33792 7.00742-1.50159s2.50264-5.83951 2.66949-7.00741c.16684-1.16791-.50053-4.83846-.50053-4.83846l-3.00318-6.34004s-2.50265-7.00742-2.50265-7.67479-2.16896-8.17532-2.16896-8.17532z" fill="#2b0000" stroke="#000" stroke-linecap="round" stroke-linejoin="round" stroke-width=".6"/><g fill="#80e5ff" fill-rule="evenodd" transform="matrix(.13179014 0 0 -.14837939 325.48368 427.9108)"><path d="m3095.5595 709.7661c21.42 24.27 48.76 40.53 104.64 18.2 28.32-8.63 55.87-14.22 78.1 1.51-12.4-11.78-12.94-30.03-72.79-15.92-45.19 17.01-78.95 9.58-109.95-3.79"/><path d="m3370.0495 790.8961c21.42 24.28 48.76 40.53 104.64 18.2 28.32-8.63 55.87-14.22 78.1 1.52-12.4-11.78-12.94-30.03-72.79-15.93-45.18 17.01-78.95 9.58-109.95-3.79"/><path d="m2779.3595 679.1961c17.664 20.02 40.195 33.43 86.27 15 23.35-7.11 46.06-11.72 64.42 1.25-10.24-9.7-10.68-24.75-60.05-13.12-37.25 14.03-65.078 7.89-90.64-3.13"/><path d="m3325.3095 701.8961c29.33-28.28 57.94-27.92 85.87 1.04-31.32-17.48-37.55-19.94-85.87-1.04"/><path d="m3172.1395 631.3801c29.33-28.281 57.95-27.926 85.87 1.039-31.32-17.48-37.55-19.941-85.87-1.039"/><path d="m2840.0195 631.3801c29.32-28.281 57.95-27.926 85.87 1.039-31.32-17.48-37.55-19.941-85.87-1.039"/><path d="m2727.0385 679.9061c29.325-28.276 57.942-27.924 85.864 1.04-31.321-17.48-37.547-19.94-85.864-1.04"/><path d="m2843.8095 765.1961c40.66-39.21 80.34-38.72 119.05 1.44-43.42-24.24-52.06-27.65-119.05-1.44"/><path d="m3015.1795 709.8361c40.66-39.21 80.34-38.72 119.05 1.45-43.42-24.24-52.06-27.66-119.05-1.45"/><path d="m3228.2495 625.7201c14.59 16.512 33.19 27.586 71.22 12.383 19.26-5.867 38.01-9.676 53.15 1.035-8.45-8.024-8.81-20.438-49.55-10.836-30.74 11.566-53.72 6.516-74.82-2.582"/><path d="m3385.9695 702.3061c14.59 16.51 33.19 27.59 71.21 12.38 19.27-5.86 38.02-9.67 53.16 1.04-8.45-8.03-8.81-20.44-49.55-10.84-30.74 11.57-53.72 6.51-74.82-2.58"/><path d="m3066.7395 554.4431c14.58 16.511 33.19 27.586 71.21 12.382 19.27-5.867 38.02-9.675 53.16 1.036-8.45-8.024-8.81-20.438-49.55-10.832-30.74 11.562-53.72 6.511-74.82-2.586"/><path d="m2892.3395 630.2711c14.58 16.511 33.19 27.585 71.22 12.383 19.26-5.872 38.01-9.676 53.14 1.031-8.44-8.02-8.81-20.434-49.54-10.832-30.74 11.566-53.72 6.511-74.82-2.582"/><path d="m2756.6135 808.3461c21.421 24.27 48.761 40.53 104.636 18.19 28.32-8.63 55.88-14.21 78.11 1.52-12.4-11.78-12.95-30.03-72.8-15.93-45.181 17.02-78.95 9.58-109.946-3.78"/><path d="m2921.9095 759.8061c21.43 24.28 48.77 40.54 104.65 18.2 28.32-8.63 55.87-14.21 78.1 1.52-12.4-11.78-12.94-30.03-72.8-15.92-45.18 17-78.95 9.57-109.95-3.8"/><path d="m3161.5295 815.9261c21.42 24.27 48.76 40.53 104.64 18.2 28.31-8.64 55.87-14.22 78.1 1.51-12.4-11.78-12.94-30.03-72.79-15.92-45.19 17.01-78.96 9.57-109.95-3.79"/><path d="m3078.8795 820.4661c42.46-40.94 83.91-40.43 124.35 1.52-45.36-25.32-54.38-28.88-124.35-1.52"/><path d="m3291.1895 797.7261c42.46-40.95 83.92-40.44 124.36 1.51-45.37-25.32-54.38-28.88-124.36-1.51"/><path d="m2671.6875 808.4161c40.652-39.22 80.336-38.72 119.047 1.44-43.426-24.24-52.063-27.65-119.047-1.44"/></g></g></svg>