<svg height="500" viewBox="0 0 198.44063 132.28893" width="750" xmlns="http://www.w3.org/2000/svg"><g transform="matrix(.93750001 0 0 .93812042 -12.756563 60.556081)"><path d="m13.607-64.553001h211.67v141.02h-211.67z" fill="#ffd100"/><g fill="#e4002b" stroke-width=".26458" transform="matrix(.98678802 -.07796888 .07589261 .96811859 -8.5069 9.87748)"><path d="m154.39 25.164c.83463-2.5954.95493-3.7049.45585-4.204-.51984-.51983-1.0546-.37269-2.6948.74146-.85638.58174-2.0687 1.1913-2.3673 1.1913-.50762 0-.34634-.14853.43527-.87572.74464-.77724.8447-1.4062.38023-1.6379-1.8268.7062-4.0885 2.1159-5.7216 1.2716 1.5059-.74091 3.3372-6.2743 2.101-7.3489-.70234-.61051-.97841-.34047-1.4556.90903-.2763 1.2697-1.541 2.9365-2.3939 2.8527-.16118-.01584.16904-.54012.5519-1.1186.38638-.58386.62558-1.2354.53767-1.4645-.14338-.37365-.22762-.37349-.89071.0016-.4028.22789-1.2476.82737-1.8774 1.3322-.62978.50488-1.2435.9179-1.3639.9179-.12037 0-.15672-.46315-.0808-1.0292.28757-2.1439-1.3712-5.0562-2.8798-5.0562-.29379 0-.86995.2391-1.2804.53133s-1.0963.60136-1.5243.68695c-.74177.14836-.8293.06234-1.8743-1.8418-.60294-1.0986-1.0962-2.1843-1.0962-2.4127 0-.51248 3.8013-3.0217 6.2563-4.1297 6.8854-3.1076 13.29-2.2745 18.035 2.346 2.2206 2.1625 3.0179 3.3975 3.9113 6.0588.74287 2.213 1.2559 7.7549.6018 6.5002-.56608-1.0857-1.0233-.72299-1.0233.81187 0 1.2079-.56851 3.8177-.9793 4.4956-.0714.11785-.28631.000265-.47756-.26127-.32183-.44013-.38396-.40865-.83449.42286-.73666 1.3596-1.7291 2.3645-2.5169 2.5487l-.7072.1653z"/><path d="m103.99 68.496c-.61943-.88435-.52573-1.9228.25747-2.8535.4677-.55583.92246-.81405 1.4336-.81405.57123 0 .88528-.22106 1.3251-.93276.31706-.51302.51901-1.0825.44878-1.2655-.0734-.19133-1.0742-.46962-2.3546-.65474-3.2068-.46365-3.785-.42103-4.6057.33949-.75371.69852-1.2916.83515-1.5625.39688-.24711-.39983-.95793-.31774-1.5005.1733-.90994.82348-.56643-.72782.41919-1.8931l.89518-1.0583 3.4004-.02733c5.0371-.04049 6.5955-.27578 7.2382-1.0928.2903-.36905.52782-.8405.52782-1.0477 0-.20716.54967-.87571 1.2215-1.4857 1.7911-1.6262 2.6201-2.9765 3.9649-6.4582 1.4346-3.7141 2.2853-5.3393 3.3072-6.3184.7216-.69134.78151-.70423 1.26-.27119.28258.25573 1.2975.5692 2.3197.71645 2.7496.39609 3.0079.47876 3.0079.96266 0 .24525-1.36 1.761-3.0222 3.3684-1.8896 1.8272-3.0921 3.2025-3.2086 3.6696-.26703 1.0706.22193 1.9517 1.1868 2.1386 2.626.50867 2.5146.46772 2.0221.74334-.32405.18135-1.0082.11926-2.2581-.20492-.98624-.2558-1.9931-.38836-2.2376-.29457-.2444.09379-.8053.94182-1.2464 1.8845l-.80208 1.714.86297 1.6191c.47745.89579 1.3639 2.0295 1.9842 2.5379 1.1791.96618 1.6918 1.9959 1.6918 3.3979 0 1.0832-.19321 1.2568-.79059.71017-.26505-.24254-.78872-.65324-1.1637-.91268-.44684-.30914-.82576-.96691-1.0995-1.9087-.22976-.79033-.63329-1.7032-.89675-2.0285-.44927-.55483-.51806-.56564-1.1085-.17426-.34621.22951-1.0462.78715-1.5555 1.2392-.65571.58199-1.1964.82357-1.8521.82755-.50933.0031-1.2372.21335-1.6175.46725-2.3873 1.5937-2.6368 1.8307-2.9268 2.7803-.23876.78181-.47963 1.0412-1.121 1.2072-.44932.11632-.95199.48194-1.117.81249l-.3001.601z"/><path d="m167.16 51.36c.0637-2.727.38073-4.1494-.0541-4.2305-.35239-.0657-1.063.6933-2.4044 1.7349-2.6417 2.0514-3.4133 5.0501-4.1609 8.7327-.66204-1.7197-.22957-5.1809.0272-6.6909.64182-3.6469 1.4764-6.0678 7.0112-12.669 2.8565-3.7581 4.8186-7.4767 5.4554-10.339.37498-1.6855.43185-2.9202.3209-6.9671-.12432-4.5343-.20109-5.146-.98265-7.829-1.9315-6.6306-4.6559-10.419-10.012-13.922-1.6841-1.1014-4.2415-2.22-5.8672-2.6899-2.3882-.6903-4.8362-.6761-7.0069-1.1986 2.387-.62996 6.6397-.76591 9.7762-.19996 6.8162 1.2299 9.5636 2.4349 12.435 5.3088 1.9506 1.952 2.9781 3.7229 4.3762 7.542 2.2776 6.2214 2.9007 17.087 1.3429 23.416-.28656 1.1642-1.6555 5.5099-3.0421 9.6573-1.3866 4.1473-2.7743 8.7908-3.0837 10.319-1.2178 2.2066-.98346 6.7798-.74952 10.348.0986 1.5047.19724 2.753.18682 3.695-3.2661-2.7995-3.6182-11.113-3.5692-14.017z"/><path d="m148.27 56.626c-.21757-1.2655-.37224-3.6952-.35371-5.5563.0324-3.2597.34512-4.8984 1.4512-7.6058.299-.73187.29316-.91671-.0395-1.2494-.34421-.34421-.46409-.16536-2.7129.45522-1.6587.45773-5.9644 1.8568-9.7872.3114 3.3825-1.13 9.957-2.6691 8.8036-4.191-.1482-.1482-1.1977-.34922-2.3322-.44672-1.4785-.12706-2.4328-.37595-3.3696-.87882l-1.3068-.70156 1.3229.20801c2.6672.41938 4.9286.27696 6.5511-.51534.89659-.43782 2.7952-2.4737 2.9805-2.5491 2.1023-.02176 4.169.06289 6.0374-.08395 2.5292-.19877 5.3179-1.844 6.7659-2.5395-.58248 2.4813-3.0954 4.2868-3.8088 5.7722.72429.4476 1.4554.25143 2.32.23053l-1.0446 1.7632c-.90847 1.5334-1.1941 5.0502-1.4254 6.8613l-.0308 1.3229-.39071-.89581c-.21488-.4927-.46127-1.8958-.54752-3.1179-.24297-3.4429-.99605-3.2733-1.9615.44186-.32145 1.2369-.68376 2.3621-.80513 2.5003-.12138.13824-.22068-.48123-.22068-1.3766 0-2.7384-1.1277-4.0267-1.6768-1.9156-.13222.50832-.70197 2.2714-1.2661 3.918-1.3705 4.0001-2.3052 7.6925-2.5582 10.106l-.20783 1.9819z"/><path d="m125 42.719c-.50933-.1927-1.3189-.35709-1.7991-.36531-1.2854-.02199-2.1725-.58377-3.8642-2.4471-1.7689-1.9484-4.5847-4.409-6.1546-5.3782-.87292-.53893-1.2032-.967-1.5875-2.0575-.37256-1.0572-1.0514-1.9642-2.9235-3.906l-2.9644-2.8631c2.3405.1543 5.4946.59413 7.0299-.25547l1.3776-.76234c3.5386 2.3811 8.4318 3.6899 11.178 4.0898-.49873 1.547-.78214 3.1215-1.656 4.6444-.85801 1.4953.18506 1.7675 2.3535.45352 1.0897-.6603 1.8986-1.4358 1.8988-1.2756-.56636.83169-.75969 1.725-.79669 2.4848-.0331.68001-.0436 1.5941-.0443 2.7859-.00094 1.5768.30007 3.6133-1.065 5.2342-.0313-.01736-.47356-.18924-.98288-.38194z"/><path d="m131.88 40.619c-.66993-1.4716-.63554-4.7557.079-7.5406.63796-2.4866.57789-3.0481-.19025-2.5755-.93727.5766-.85405 1.6806-2.1625 2.4317.003-.53454.21802-.95094.24157-1.6422.0398-1.1672-.007-1.2921-.57014-1.1906-1.048.18879-1.4798 1.3523-2.762 1.2707.50227-.19802.57715-.64048.71416-1.0768.52536-1.6775 1.3239-4.829 1.5173-6.081.32289-2.0902.40499-6.8834.13934-8.1359-.34318-1.6181-.78006-1.2196-2.0962 1.245-.70372 1.3178-1.5649 2.6855-2.4899 3.8372.0294-.66251.0788-1.1515.14673-1.7707.0527-.48008-.88945-.3148-1.5628.40598-.77129.8256-2.1512 1.6156-2.1512 1.2194 0-.15195.35125-1.6824.86718-3.2784.51593-1.5959.93195-3.4984 1.0183-4.2277.15618-1.3187.15248-1.3269-.67347-1.4921l-.91909-.17792c-.063-1.8884.26553-3.7281-.0953-5.3637-.18607-.84345-1.789.67279-2.4518 1.527l.16304-2.2225c-.01-4.9124-2.4612-9.8018-6.0774-12.122-.72986-.46836-1.327-.89337-1.327-.94448 12.563 3.7969 20.969 19.089 21.911 25.098.43977 2.8046 3.2512 8.9775 5.8243 11.537 1.2855 1.2784 2.1326 1.7707 2.0126 1.8698-1.7697-.06809-3.6077-1.4064-4.7243-2.615-.61545-.66615-1.3263-.70545-1.2073-.08869.32941 1.7074 1.7764 2.9858 2.2774 4.6491-.0557.05573-.79912-.43697-1.3508-.87541-.5517-.43844-1.281-.79717-1.6206-.79717-.53492 0-.69319.24932-1.1839 1.8649-.35069 1.1546-.63655 3.0442-.7505 4.9609-.17231 2.8985-.2071 3.0454-.5454 2.3023z"/><path d="m100.72 34.335c-.8172-.87229-1.3831-2.0765-1.385-2.947-.0011-.5186-.33203-1.1226-1.0298-1.8796-.82563-.8957-1.0663-1.3967-1.2216-2.5431-.1064-.78522-.35809-1.7492-.5593-2.1421-.34636-.6764-.50168-1.7991-.2489-1.7991.06432 0 1.4411.42742 3.0594.94982l2.9425.94981c2.1025 1.8374 7.3605 6.5516 7.3749 8.337 0 .14755-.94302.34099-2.0956.42987-1.1526.08888-2.8157.40419-3.6958.70068-2.0307.6841-2.4542.67651-3.1407-.05624z"/><path d="m162.97 34.649c.12671-.20925.67752-.94932 1.224-1.6446 1.1401-1.4505 2.5258-4.1584 2.7697-5.4125.2768-1.4232-.40564-1.3236-2.8447.41527-4.8524 3.4594-8.1215 4.7015-11.774 4.4736-2.6277-.16393-4.4977-.97601-6.0924-2.6457-.92494-.96844-.95624-1.0461-.35336-.87677.3638.10218 1.3163.37018 2.1167.59556 1.0561.29739 2.129.37084 3.9117.26778 3.035-.17544 5.187-1.0875 7.3153-3.1004 2.2874-2.1633 3.2974-4.9452 3.3157-9.132.022-5.0363-2.614-9.8122-7.2498-13.735-.80129-.73367-1.7143-.94352-2.018-2.2941-.27999-.64966-.81682-1.0937-1.2857-1.5035.55023-.46344 1.4098-.080301 2.03-.056005 1.5711.061556 1.4796-.53594-.26107-1.7082-1.7324-1.1666-1.1087-1.2505 1.868-.25128 6.8287 2.2923 11.258 6.5048 13.721 13.048 3.1894 8.4734 2.3459 15.246-2.5502 20.478-1.489 1.591-4.3103 3.8536-3.8431 3.0821z"/><path d="m92.718 31.76c-5.4039-2.5962-5.5105-2.6244-6.4305-1.7044l-.71323.71323v-.81738c0-1.1429-.51942-2.1581-1.1698-2.2864-.30247-.05969-.95204-.17594-1.4435-.25835-.49144-.08241-1.6109-.51437-2.4877-.95991-1.3334-.67757-1.6522-.75201-1.9491-.4551-.29692.29692-.24759.7432.30156 2.7284.36109 1.3054.65801 2.7764.65982 3.269l.0033.89558-.54837-.69714c-.3016-.38343-.76793-.69714-1.0363-.69714-.83838 0-1.0666-1.2775-.45508-2.5471.76358-1.5851.48584-2.37-1.0774-3.045-1.7188-.74209-4.3316-.61288-5.5798.27595-.85401.60811-.87484.66702-.7081 2.0016.19188 1.5357-.125 2.0492-1.1901 1.9285-.45713-.05178-.65179.09355-.77087.57554l-.15931.64482-.58731-.74665c-.32302-.41065-.58731-.93482-.58731-1.1648s.71438-1.0813 1.5875-1.8917 1.5875-1.6212 1.5875-1.8017c0-.4593-1.146-.84416-2.5135-.84416-1.3611 0-2.147.26796-3.0138 1.0275-.50463.44222-.84123.52094-1.6646.38927-.82758-.13233-1.1049-.06625-1.3997.33356-.35263.47819-.37794.47152-.61864-.16287-.17827-.46986-.14422-.87037.11756-1.3827.40926-.80096 2.024-1.3897 4.5785-1.6694.79137-.08665 1.6531-.2722 1.9149-.41234.90427-.48395 4.5879-1.2899 5.9066-1.2923 1.2546-.0024 3.7891.77575 8.9137 2.7364.97345.37244 2.9632.91638 4.4217 1.2088 1.4585.29238 3.0433.695 3.5218.89471.47846.1997 1.2866.44177 1.796.53792 2.9933.5651 3.0363.58444 3.0825 1.3868.02188.37992.40053 1.0659.84142 1.5243.63672.66206 1.8969 3.1558 1.8969 3.7537 0 .33892-1.0273-.06757-5.0271-1.9891z"/><path d="m122.93 26.58c-4.1848-1.1068-8.2239-2.8093-11.845-4.9927-.87028-.52477-1.5828-.95-1.4184-1.0286 2.001.35373 4.0149 1.045 5.9397 1.4875 2.2995.52872 2.6569.68291 2.7304 1.1891.11466.7898.71805.74134 2.5902-.20801.85725-.43472 1.5474-.99236 1.5746-.9942.14081.66076.00097 1.8349.53015 1.9126 1.226.18002 3.4164-3.7292 4.201-3.8621 0 1.4903-1.0479 7.1695-1.4065 7.1444-.0988-.0069-1.5399-.28937-2.8962-.64808z"/><path d="m141.53 26.763c-1.4062-.64103-2.6177-1.691-3.6021-3.1218-2.7873-4.0513-4.8424-9.3123-3.5301-9.0374.25406.05322.72903 1.0407 1.2568 2.613 1.1457 3.4135 2.2951 5.2672 4.8719 7.8574 1.1943 1.2005 2.1468 2.1802 2.1167 2.177s-.53104-.22291-1.1131-.48826z"/><path d="m108.2 24.153c-2.982.06382-6.2833-.94455-8.1904-1.8478-4.379-2.074-9.3372-6.4564-12.305-10.795l-1.445-2.1127c2.4036 1.8681 5.4244 3.2431 7.932 3.6153 3.077.45672 2.7494.67528 4.2103 1.892 2.2211 1.85 4.2296 3.0939 5.0009 3.0917 1.4316-.0042 1.2077.25514 1.5078.62362.58926.72351 4.0318 3.8468 6.329 5.4065l-.99082.0938c-.54494.05159-1.4671.06628-2.0492.03263z"/><path d="m106.26 17.691c2.1689-.55522 3.9894-.56879 6.3167.37688 2.1849.88783 4.8447.8178 6.9475 1.5676-.01.43911-.42612 1.5356-.57378 1.5283-4.1346-.98072-8.9186-1.9765-12.69-3.4728z"/><path d="m112 16.248c1.2029-1.4009 2.721-1.2231 4.2715-.5788 1.131.46998 3.1724 1.1676 4.428.5696.0127.46618-.0353.97204-.28449 1.4382-.35233.65832-1.0507.45365-4.5304-.31313-1.3895-.3062-2.8234-.54192-3.8846-1.1158z"/><path d="m102.94 15.595c-1.8327-.74364-3.4839-1.9448-5.4795-3.9862-1.8363-1.8783-2.3686-2.6027-4.2407-5.7709-1.4199-2.403-2.9342-6.7132-2.6389-7.5115.41221-1.1143 1.3416-1.4932 4.3003-1.7531 3.6939-.32455 4.511-.66972 4.935-2.0848.17963-.59954.60979-1.4192.95591-1.8214.58346-.678.76607-.72901 2.5059-.69992 6.0156.10058 11.959 5.3933 13.315 11.857.29817 1.4216.27154 1.6573-.40194 3.5587-.88584 2.5009-.88663 2.5775-.0297 2.8632l.69159.23053-.67144.79796c-.36929.43888-1.4809 1.1926-2.4702 1.675-.9893.48237-2.1706 1.1606-2.625 1.5073-2.0936 1.5968-5.7549 2.1083-8.1462 1.138z"/><path d="m117.65 14.469c-.90951-.14794-1.9608-.3234-1.9608-.41879s.62571-.366 1.0151-.5725c.38939-.20649 1.169-1.0898 1.7326-1.9629l1.1191-1.9064c.40219.77265-.0854 2.168-.0966 2.5561-.0196.68031-.19293 1.3589.0392 2.0836l1.5249-.01633c.30017-.0032.0188.71057-.176.82446-.24072.14077-.58252-.22979-1.7053-.36828-.41094-.05069-.9061-.12354-1.4921-.21886z"/><path d="m92.85 10.751c-2.4663-.60055-3.8712-1.4971-6.4823-4.1366-4.4982-4.5473-6.3431-8.8577-6.3391-14.811.0013-2.0663.11805-2.796.65564-4.101.41936-1.018.6558-2.1095.65909-3.0427.0114-3.2305 1.2641-7.2466 3.4562-9.4249 2.9201-2.9017 5.7647-4.1897 9.6205-4.3081 1.5432 1.9299 3.4293 1.8312 5.9446 1.6946l-1.1646.74936c-1.6967.72796-1.8475.8531-1.9373 1.6079-.10509.88353-1.2917 1.6599-2.9072 1.9022-.63664.09547-1.4591.43296-1.8276.74998l-.67011.5764.84443.71054c.46444.3908 1.6599.95825 2.6567 1.261l1.8122.55045-.64819 1.8992c-.3565 1.0446-.71792 2.5578-.80316 3.3627-.13677 1.2916-.07855 1.5557.49572 2.249.35788.43203.95246 1.4518 1.3213 2.2662.60088 1.3267.6348 1.5658.32623 2.2997-.38626.91865-1.1576 1.2036-4.0757 1.5055-2.2049.22812-3.1323.6313-4.1696 1.8128-.95708 1.0901-1.248 2.2309-1.0814 4.2402.1578 1.9029 1.3139 4.2313 3.8616 7.7773 1.1762 1.6371 2.0568 2.9664 1.9568 2.9541-.09999-.01238-.7771-.16746-1.5047-.34463z"/><path d="m129.91 6.0378c-.39484-.56371-.56268-.71065.50905-1.8104 4.3785-3.3985 9.0624-6.9273 13.837-7.3378 2.5226-.21013 5.2673.18401 6.3724.90812.65535.4294.65728.4405.1119.64225-.95735.35415-.95163.76237.0283 2.0201.52289.67114.91525 1.2557.87192 1.2991-.0433.043334-.66855-.11133-1.3894-.3437-1.8316-.59044-6.5924-.58126-8.8512.017066-3.2734.86709-6.9844 2.4945-9.3927 4.1188-1.6496 1.1127-1.6575 1.1145-2.0974.48648z"/><path d="m127.79 2.8954c-.38056-.57507-.78483-.97013-.78854-1.218 1.1093-2.3724 4.3696-4.6265 6.2862-5.9221 7.1137-4.7358 12.264-6.2589 18.852-5.6347 5.2239.49496 7.9493 1.1916 11.157 2.7692 1.2912.69051 3.0648 1.516 3.9557 2.4764-5.5737-2.2953-14.288-3.0221-20.639-.61928-.25763.10088-.73429.32861-1.0821.40714-.59268.13381-1.0975.088791-1.5818.088791-1.8077 0-3.6969.77683-6.2559 1.8751-3.4044 1.4611-6.3319 4.6508-8.8492 6.9563-.12318 0-.6621-.58559-1.0547-1.1788z"/><path d="m124.12-.83813.32177-2.0257c.17697-1.1141.55226-3.5972.83399-5.5179 1.3114-8.9405 5.2067-16.1 10.842-19.927.83783-.56895 2.8029-1.521 4.3668-2.1158 4.9921-1.8983 12.14-2.3134 18.104-1.0511 3.6476.77205 7.395 1.9635 9.9281 3.4371 2.5362 1.7558 5.121 3.6958 6.4312 6.1925-1.6806-.19525-1.5998.29959-.78115 1.2048.90745 1.0033 2.5726 4.0828 3.061 6.0758.86913 3.5465.29745 9.2176-1.7851 11.451-.10283-4.7831-.42373-6.678-1.2372-8.7867-2.0517-5.3186-6.8118-9.376-13.089-11.156-1.7918-.50823-2.7462-.59989-6.2177-.59712-4.1931.0033-7.0263.38913-10.262 1.3974-1.6346.5093-6.1764 3.2242-8.2513 4.9323-2.0737 1.7071-5.7488 5.8593-6.8977 7.7933-1.3299 2.2385-2.8646 5.9484-3.4143 8.2535l-.41955 1.7593c-.51127-.43974-1.0225-.87951-1.5338-1.3193z"/><path d="m135.79-14.296c-1.4702 2.6467-1.9775 4.4841-2.3977 7.0251-.12355.7471-.36079 1.6139-1.3224 1.6139-1.1644 1.1341-2.2061 2.2319-3.6444 3.5403 1.2099-5.0582 4.2755-9.0861 7.3645-12.179z"/><path d="m143.15-19.389c1.7711-.82584 5.8114-3.1844 10.07-2.5159-.0893.93748-1.2006 2.4738-2.0877 3.6356-.69179.90594-.0631 1.1615 2.4594 1.6487 5.5037 1.0629 9.6568 4.2892 12.227 8.2014-4.8371-2.6568-8.9007-4.9681-13.649-5.8917-1.892-.36801-4.9294.10399-5.1217.68097-.21528.64583-1.434 1.8437-2.3537 2.2059-1.2677.49916-2.1455.7789-3.6413 1.0944-.95967.20245-3.942 1.4314-5.5456 2.4635.87432-4.2072 2.6872-9.2121 7.6429-11.523z"/><path d="m147.6-11.507c.31034-.34292.63738-.81948.94772-1.1624 0 0 .64336-.19264.93548-.1921.28666.00053.54122.13506.82691.15869.30836.0255.64236-.0865.94452-.0199.25873.05703.71067.35595.71067.35595-.14156.37862-.36019.78004-.66626 1.2207-1.0275-.58272-2.4313-.49322-3.699-.36097z"/><path d="m153.92-17.749-.84444-.24428 1.0662-1.8493c.7429-1.2885 1.2646-1.8991 1.7203-2.0135.65678-.16484 2.6698.0086 2.9121.25087.19084.19083-2.2646 3.2771-2.9804 3.7461-.6863.44968-.69784.45036-1.8738.11019z"/><path d="m141.14-32.936c.37709-.35648 4.1318-2.4906 9.6541-5.3596 7.1974-3.7392 8.2688-4.4035 11.231-6.9634 1.166-1.0076 1.9377-2.0091 2.5261-1.8733.61754.14258 2.3727-1.7351 3.989-4.1657.68928-1.0366 1.2911-1.8468 1.3374-1.8005.20682.20682-.57134 2.3406-1.5154 4.1555-1.4128 2.7159-3.2802 5.1273-5.8226 7.5191-2.0986 1.9742-2.4971 2.9105-1.3691 2.7993 4.2037-.41439 8.0495-2.4169 12.096-3.1199-4.0349 2.9574-8.7573 5.8341-13.149 8.2282-5.3395-.5828-9.0511-.78503-11.227-.23302-2.1721-.37859-5.0773.24668-7.75.81332z"/><path d="m114.01-57.652c-2.1818 2.018-3.843 5.0968-4.8808 5.0049-1.1391-.10093-.9414-2.4417-1.2485-3.4618-1.9643 1.285-2.5699 5.2461-3.2158 5.0658-.38324-.10695-.73261-1.07-.60306-1.9115.11142-.72375-.0741-1.5907-.28991-2.0268-1.0809.70967-1.9405 1.579-2.0583 2.837-.0877.9369.0451 2.2195-.80719 2.8314-1.8805.59684-.73675-.42516-1.9032-1.5002-1.1955 1.893-3.1167 4.117-3.6184 6.597-.15008 1.2561.24967 2.9214.83406 4.269-1.4435.79011-2.2026 2.0632-2.0438 3.5166.82882-.94328 1.3946-1.707 2.62-1.1276.94795.44827 1.7305 1.5797 2.6675 1.5797.68618-.0011 1.7931-.37525 1.6459-1.217-.28477-1.6289-1.9156-2.9384-1.7575-4.8545.08711-1.0557.6034-2.9873 1.9162-3.2598.52911.04753.1266.53347.71106.89452.56629.34982.91621-.97404 1.6748-.88263.37791 1.0312-.48515 1.5588-1.2759 2.358-.53391.64782-1.3896 1.2061-1.31 2.081.11423 1.2556.82007 2.3322 1.4304 3.4344.19556.35324.0766.83758.0517 1.2816.52809-.38898 1.1528-.74652 1.2376-.31006.42464 2.1834-1.8899 4.8002-1.8748 6.8053.50408.37774 1.0545.76007.75086 1.6511-.30126.88389-1.8516 1.723-2.5575 2.5378.30219.24958.36036.36529.42426.77308-1.2614 1.302-3.2437 2.3331-5.0436 3.1414.12389.74007 1.5143.52599 2.4076.61082 1.0664.10126 2.0464.39789 2.1048.57361.11581.34829-1.0783 1.3697-1.7808 3.1745-.25283.64957-.62129 1.5608-.53123 2.3833.67394-.62957 2.6696-2.9132 3.3895-2.1068.16293.18253.1888 1.1229.1788 2.0381 1.3693-1.6999 2.5193-3.0163 3.7254-4.6617.44114-.60185 1.3926-1.4467 2.1621-1.0976.15072 2.7185.22852 4.4008.42788 6.5293.36054-.37104 1.6042-1.359 1.8164.0894.15566 1.0625.1808 1.9434.71261 2.989.15834-2.2575.36156-5.556.9648-7.4936 1.4805-4.7553 2.5797-9.166 2.8608-13.925.0771-1.3063-.35833-5.2701-2.3792-7.6719-.49959-.59377-1.2978-1.3641-1.679-2.2862 3.384-.84084 6.688-2.0805 6.7526-6.9861.0297-2.2542-1.5545-6.1383-2.6091-8.2672zm-10.941 15.579c.42354-.01336.87678.25815 1.1519.79013.22202.42934.4036.96512.4036 1.1906 0 .45502-.66971.55998-.92605.14521-.0899-.14552-.45774-.26458-.81752-.26458-.7817 0-1.0534-.5457-.64854-1.3022.19599-.36619.50723-.54875.83664-.55914z"/><path d="m106.48-9.4469c-1.1649-.40465-5.119-.21594-6.0955.029437-.92989.23366-1.4699-1.8186-2.2389-3.2614l1.4774-1.4711-.1765 1.1201c-.14582.92542-.09577 1.1511.28803 1.2983.6125.23504 2.1477-.60656 2.8688-1.5727.31314-.41954 1.1323-1.3768 1.8204-2.1272l1.2511-1.3644.006 1.3791c.006 1.4121.72674 3.7075 1.6625 5.2935.28901.48984.48095.92566.42653.9685-.0544.042841-.63473-.088641-1.2896-.29218z"/><path d="m96.18-30.928c-.082-.91517.64483-1.7176-.36145-1.6886-.70487.02032-.83341.69562-1.0845 1.2017-.31644.6358-.66114 1.2275-1.0321 1.1756-1.1321-.15821-.17871-2.1121.16533-2.6495.66808-1.0436 1.6502-1.8556 2.039-1.8897 1.4828-.13004 5.1877.6909 6.6489-1.3757-.0172.85628-.79844 2.0421-1.0785 2.8705-.088 1.4196-.88387 2.6776-1.7238 3.7274-.3638.45468-1.4792.73596-2.1408.68801-1.2872-.09331-1.3461-1.101-1.432-2.0597z"/></g></g></svg>