<svg height="600" width="600" xmlns="http://www.w3.org/2000/svg"><g fill-rule="evenodd"><path d="m0 0h600v600h-600z" fill="#00a040"/><path d="m390.68211 85.57411c-37.42425-15.82692-80.64264 1.70137-96.46955 39.12563-9.0415 21.37952-7.14556 44.6246 3.07486 63.59894 4.99586 9.9974 5.75064 22.05977 1.05947 33.15245-8.51069 20.12437-31.75075 29.54996-51.87514 21.03926-11.01489-4.65825-18.8225-13.73953-22.24055-24.29699-.0217-.0775-.0703-.15014-.0923-.22753-5.88681-20.72692-20.72047-38.73397-42.09497-47.77335-37.42428-15.82692-80.64264 1.70137-96.469558 39.12563-15.82692 37.42428 1.70136 80.64263 39.125638 96.46957 21.37447 9.03936 44.62703 7.1392 63.59892-3.07486.0709-.0381.1568-.0539.22752-.0923 9.95578-4.90161 21.91006-5.62544 32.92495-.96719 20.12436 8.51069 29.54994 31.75075 21.03925 51.87514-4.69117 11.09269-13.87153 18.95344-24.52453 22.33283-20.73308 5.88395-38.73183 20.71544-47.77333 42.09497-15.82695 37.42428 1.70136 80.64264 39.12564 96.46956 37.42425 15.82691 80.64261-1.70136 96.46955-39.12564 9.0415-21.37953 7.14556-44.62458-3.07486-63.59892-4.99586-9.99739-5.75064-22.05977-1.05947-33.15247 8.51069-20.12436 31.75075-29.54994 51.87514-21.03925 11.01489 4.65825 18.8225 13.73953 22.24055 24.297.0217.0775.0703.15011.0923.22753 5.88681 20.72692 20.72047 38.73397 42.09497 47.77333 37.42428 15.82695 80.64264-1.70136 96.46956-39.12564 15.82692-37.42425-1.70136-80.64261-39.12564-96.46955-21.37447-9.03936-44.62703-7.1392-63.59892 3.07486-.0708.0381-.1568.0539-.22752.0923-9.95578 4.90158-21.91006 5.62544-32.92495.96719-20.12436-8.51069-29.54994-31.75076-21.03925-51.87513 4.69117-11.09268 13.87153-18.95343 24.52453-22.33285 20.73308-5.88393 38.73183-20.71544 47.77333-42.09496 15.82692-37.42427-1.70136-80.64263-39.12564-96.46956z" fill="#fff"/></g></svg>