<svg height="600" width="900" xmlns="http://www.w3.org/2000/svg"><path d="m0 0h900v600h-900z" fill="#c03"/><path d="m0 200h900v200h-900z" fill="#9c3"/><g transform="matrix(.5510501 0 0 .5510501 363.56803 131.12298)"><path d="m133.30051 477.87689c-7.33-3.25839-14.48671-6.68404-15.90381-7.61255l-2.57653-1.68821.71602-20.62617c.39382-11.34439 1.03245-22.42179 1.41919-24.61643.63759-3.61817 2.14713-5.2353 16.18778-17.34156 15.8375-13.65555 22.73792-19.16818 23.99373-19.16818.67203 0 5.86818 4.26688 25.1118 20.62088 12.65628 10.75581 13.70093 11.88793 14.32125 15.52049.98915 5.79238 2.55784 28.77886 2.55784 37.48079 0 9.96757 1.15054 8.88456-18.49907 17.41329l-13.74192 5.96455s-6.55066 3.56255-10.12951 3.559c-3.58135-.004-10.1295-3.5816-10.1295-3.5816zm-72.84714-32.87411c-9.99592-4.77345-19.08267-9.51293-20.19277-10.53218-1.11009-1.01926-3.36292-5.51926-5.00628-10-1.64337-4.48075-5.26912-14.14306-8.05724-21.4718-2.78811-7.32875-5.0693-13.7231-5.0693-14.20968 0-1.10316 10.40057-11.05697 23.36614-22.36244 8.88864-7.75055 10.26567-8.60289 13.89872-8.60289 6.00337 0 41.72795 4.92578 43.8114 6.04081 1.9582 1.048 2.31825 2.89831 3.98115 20.45919.57289 6.05 1.46042 13.925 1.9723 17.5 2.11319 14.7589 2.53397 13.62956-12.61525 33.85879-10.50021 14.02128-14.07709 18.12508-15.75 18.0702-1.19045-.0391-10.34294-3.97656-20.33887-8.75zm164.67306 1.1754c-3.41407-4.31991-9.53543-12.41275-13.60303-17.98407-7.23573-9.91069-7.39562-10.25866-7.39562-16.09545 0-3.28117.86932-12.67281 1.93181-20.87032 1.0625-8.1975 2.219-17.48496 2.56999-20.63879.351-3.15383 1.04653-5.98661 1.54564-6.29508 1.41458-.87426 39.938-6.43244 44.72289-6.45265 3.9931-.0169 4.93276.58246 14.47463 9.23197 19.56431 17.73466 22.98806 21.42353 22.23818 23.96012-.37232 1.25943-4.34584 11.51488-8.83004 22.78988l-8.1531 20.5-18.96527 9.31805c-10.4309 5.12493-20.17204 9.55941-21.64697 9.8544-2.38773.47754-3.36218-.32468-8.88911-7.31806zm-219.73457-99.47871c-1.66496-4.05662-5.62858-14.6873-8.80805-23.62371l-5.78085-16.24804 6.32235-17.75196c7.17631-20.14971 10.30038-27.70002 11.86024-28.66407.59458-.36747 10.43114.0559 21.85901.94086 16.4414 1.27318 21.1697 1.95985 22.65497 3.29011 3.16751 2.83694 29.6285 40.46038 29.62441 42.12134-.004 1.70136-26.90772 39.56965-29.94098 42.14368-1.3597 1.15385-6.03265 1.91205-17.21083 2.79253-8.43939.66475-18.09131 1.47105-21.44871 1.79179l-6.10436.58316zm295.23592 6.5775c-.55-.21392-9.04126-1.54133-18.86948-2.94981-9.82821-1.40849-18.67751-2.99333-19.66511-3.52188-1.68277-.90059-5.65285-5.72702-23.66715-28.77213-4.07791-5.21674-7.28781-10.3012-7.27457-11.5229.013-1.20255 6.65053-11.41146 14.75-22.68646l14.72631-20.5 7-.75474c3.85-.41511 14.1303-.86511 22.84512-1l15.84512-.24526 6.36119 17 6.36118 17s3.65927 7.31604 3.67313 11.25932c.0139 3.94328-3.58573 11.25931-3.58573 11.25931l-6.163 16.74069c-3.38964 9.20737-6.59474 17.30318-7.12244 17.99068-.92728 1.20809-3.14679 1.50739-5.21456.70318zm-261.46597-112.07592c-8.90505-8.04251-16.42407-15.23011-16.70893-15.97245-.486-1.26649 3.30126-11.91543 12.91384-36.31083l4.10031-10.40603 17.58037-8.38703c9.66921-4.61287 18.84118-9.08186 20.38216-9.9311 1.54097-.84923 3.40164-1.31387 4.13481-1.03253 1.36824.52505 25.44185 31.69854 27.61539 35.75984.80713 1.50813 1.00596 4.61338.59752 9.33157-1.26401 14.60123-4.49527 42.13307-5.13251 43.73126-.44571 1.11784-2.7983 2.032-7.20359 2.79915-8.92129 1.55358-36.20004 5.03838-39.45088 5.03976-1.99234.00085-6.59791-3.57569-18.82849-14.62161zm208.46597 13.9238c-18.22959-2.42619-37.0464-5.45382-37.62004-6.05307-.9397-.98166-5.87996-41.76255-5.87996-48.53795 0-4.63688.4959-5.89818 4.25-10.8097 2.3375-3.05817 8.42636-11.03682 13.5308-17.73033 5.10444-6.6935 9.98234-12.17001 10.83977-12.17001 2.66272 0 38.75907 17.00515 40.99862 19.31464 1.16556 1.20195 4.15778 7.58536 6.64937 14.18536s6.24572 16.42779 8.3425 21.83952l3.81233 9.83952-6.46211 6.16048c-3.55416 3.38827-11.12667 10.32298-16.8278 15.41048-11.14157 9.94236-11.15119 9.94616-21.63348 8.55106zm-98.72823-34.55106c-10.62424-8.58838-29.17598-24.88901-30.54251-26.83642-1.52299-2.17037-3.17511-21.85701-3.20657-38.20936l-.0227-11.79579 8.67456-3.98869c4.771-2.19379 14.04617-6.31881 20.61149-9.16672l11.93693-5.17801 5.63851 2.12312c10.0333 3.77793 35.58971 15.3245 36.9673 16.70209 1.1181 1.1181 1.05895 5.02235-.35911 23.70392-.93373 12.30095-2.06563 23.33312-2.51533 24.51594-1.08224 2.8465-36.708 33.37992-38.947 33.37992-.95759 0-4.6636-2.3625-8.23558-5.25z" fill="#2a7fff"/><path d="m118.7778 400.57379c-1.44632-8.20962-3.73701-33.90563-3.45912-38.8029l.3091-5.4471 11.15324-.28185 11.15324-.28184 7.33811 8.08743c8.98956 9.90751 9.38389 10.57446 7.68816 13.00349-2.5092 3.59427-30.13616 26.97277-31.87441 26.97277-1.17418 0-1.921-1.05149-2.30832-3.25zm62.84998-5.37482c-14.61597-12.54484-21.5-19.03535-21.5-20.27097 0-1.9093 14.00649-17.06787 16.29918-17.63985 1.21045-.30198 6.70082-.4175 12.20082-.25671l10 .29235.33508 3.5c.1843 1.925-.3931 10.7-1.2831 19.5-2.29235 22.66604-2.44893 23.50351-4.38988 23.47908-.91415-.0115-6.1621-3.88326-11.6621-8.6039zm-27.0017-32.14049c-2.35997-1.7309-7.4983-8.4256-7.4983-9.76949 0-1.12033 1.38-1.4652 5.86303-1.4652h5.86303l10.22906-11c5.62598-6.05 10.86262-11 11.63697-11 .93834 0 1.40791 1.15003 1.40791 3.44808 0 3.79996-3.56029 8.5408-17.12632 22.8052-7.28521 7.66026-8.41412 8.41988-10.37538 6.98141zm-66.9983-12.2871c-18.46543-2.30269-19.50481-2.55434-19.48071-4.71664.0106-.95202 2.38546-4.88095 5.27744-8.73095 2.89197-3.85 8.55072-11.6125 12.57498-17.25 4.02427-5.6375 7.94988-10.25 8.72358-10.25 1.31642 0 12.11333 10.71128 15.11124 14.9914 1.00663 1.43716 1.28195 5.2121 1.07363 14.7207l-.28016 12.7879-4 .15906c-2.2.0875-10.75-.68267-19-1.71147zm116.16667 1.38574c-.36667-.36666-.66667-6.20229-.66667-12.96805v-12.30138l6.5141-7.46904c6.15552-7.05789 9.38154-9.39542 11.31632-8.19967.46657.28836 6.17327 7.85491 12.68155 16.81455s12.17982 16.75535 12.60343 17.3238c1.85174 2.48488-1.46691 3.46024-18.43317 5.41755-19.06521 2.19947-22.9734 2.42441-24.01556 1.38224zm-84-5c-1.12181-1.1218-.74814-14.16495.42661-14.89098.6013-.37162 2.98083 1.17682 5.28785 3.44099 3.77309 3.703 4.69319 4.11718 9.15672 4.12183 2.72918.003 9.34965.29572 14.71215.65083 8.24263.54583 9.75.90757 9.75 2.33984 0 .9318-.82293 2.43893-1.82874 3.34917-1.55505 1.40731-4.44845 1.65499-19.33333 1.65499-9.62753 0-17.8046-.3-18.17126-.66667zm61.04229.0423c-1.24037-1.24038-.78953-2.27999 2.65521-6.12275l3.36418-3.75288.72286-16.5c.39758-9.075.87479-16.65359 1.06047-16.84131.8023-.81111 4.36286 1.06573 4.98819 2.62938 1.13854 2.84693 1.68826 25.20472.81659 33.21193l-.81646 7.5-6.04104.29229c-3.32257.16076-6.36007-.0267-6.75-.41666zm-56.67588-17.62563c-2.60878-2.8875-7.95845-8.80924-11.88816-13.15943-4.10952-4.54924-7.14492-8.80699-7.14492-10.02216 0-2.80085 5.65345-9.56841 7.99321-9.56841 1.54332 0 1.96601 1.11167 2.56654 6.75l.71894 6.75 9.86066 10.74103c5.42336 5.90757 9.86065 11.42007 9.86065 12.25 0 1.06677-1.05844 1.50897-3.61184 1.50897-3.08816 0-4.29957-.7612-8.35508-5.25zm74.41111-19.5-.71499-6.75-9.8646-10.63009c-5.42553-5.84655-9.8646-11.35905-9.8646-12.25 0-1.1782.9348-1.61991 3.42825-1.61991 3.08517 0 4.56128 1.20131 14.75 12.00408 6.22696 6.60224 11.71457 12.87211 12.19469 13.93304 1.34781 2.97832-5.06548 12.06288-8.51585 12.06288-.38385 0-1.01965-3.0375-1.4129-6.75zm-77.42567-3.4605c-1.95449-2.0979-2.04562-3.20581-1.78896-21.75l.27044-19.5395 7.25-.29381c8.6298-.34973 8.89505.21416 3.25 6.90886-3.45471 4.09708-4.00062 5.40091-4.00455 9.56436-.01 10.13456-1.33641 27.32059-2.10928 27.32059-.44454 0-1.73499-.99472-2.86765-2.2105zm-36.31843-15.0395c-4.55842-6.1875-10.37505-14.10568-12.92585-17.59596-2.55081-3.49027-4.406-6.95008-4.12266-7.68846.30363-.79125 2.84198-1.59412 6.18179-1.95528 3.11665-.33703 12.12959-1.51851 20.02876-2.62551 7.89916-1.10699 14.98666-1.77305 15.75-1.48014 1.08906.41792 1.383 3.39205 1.36526 13.81397l-.0226 13.28138-7.06825 7.75c-4.11165 4.50823-7.8693 7.75-8.98332 7.75-1.28215 0-4.65428-3.71812-10.20312-11.25zm126.79991 5.56794c-8.65982-9.79741-8.48604-9.3164-8.49341-23.50892-.004-7.71044.40135-12.94311 1.03288-13.33342.57171-.35333 8.33421.3173 17.25 1.49029 24.96431 3.2844 25.22425 3.33732 25.10068 5.10988-.0604.86668-5.86801 9.30418-12.90576 18.75-9.49318 12.74143-13.33645 17.17097-14.89015 17.16161-1.28004-.008-4.03814-2.21187-7.09424-5.66944zm-80.5-17.31159c0-2.28866 1.62874-4.82025 6.9162-10.75 12.86921-14.43249 17.69832-19.25635 19.27734-19.25635 1.8987 0 8.80646 7.41508 8.80646 9.45322 0 1.02845-1.75234 1.64572-6.05335 2.13233l-6.05336.68485-9.69664 10.35242c-10.20985 10.90033-13.19665 12.57144-13.19665 7.38353zm57.33679-2.36948-3.9708-4.36313-15.18299-.73216c-16.21137-.78175-17.27457-1.22802-12.84329-5.39099 2.25509-2.11855 2.98742-2.18814 20.25-1.92432l17.91029.27373.29044 8.25c.3469 9.85355-.5383 10.38668-6.45365 3.88687zm-72.67012-21.30354c-1.80956-1.80955 2.35818-45.11262 4.46736-46.41616 1.48956-.9206 2.17826-.42163 15.91195 11.52829 13.73478 11.95087 17.95402 16.02765 17.95402 17.34779 0 1.45194-8.8764 12.08352-12.95155 15.51252-3.04263 2.56021-3.73696 2.69423-13.95851 2.69423-5.91613 0-11.05661-.3-11.42327-.66667zm59.1334-.38541c-2.20061-1.28322-14.80007-15.71925-14.80007-16.95742 0-1.0255 9.7827-10.51633 22.5-21.82869 7.59211-6.75337 10.65137-8.34394 11.96388-6.22025.99244 1.60581 4.90615 42.65176 4.23387 44.40371-.53754 1.40081-2.2894 1.65006-11.41637 1.62432-5.92976-.0167-11.54635-.47647-12.48131-1.02167z" fill="#e65c1d"/></g></svg>