<svg height="500" width="750" xmlns="http://www.w3.org/2000/svg"><path d="m0 .000002h750v500h-750z" fill="#89c5e3"/><g transform="matrix(.28 0 0 .28 270.53451 109.05761)"><g stroke="#000"><g transform="translate(1.043772 -1.772165)"><path d="m334.62926 1007.4463c10.74437 4.6224 33.0587 34.3279 36.08403 40.2194l.1001.2.1001-.2c3.02533-5.8915 25.33956-35.597 36.08393-40.2194-20.38903-68.45105-43.96055-78.55646-72.36816 0z" fill="#fcdd09" fill-rule="evenodd"/><path d="m346.36824-3.9071272-154.54105 58.8950132 8.27065 51.558144-33.14929 28.48038-48.7568-32.21551-98.380682 77.30388-11.0719955 67.16566 46.8892345 31.28172 8.337346 89.24295-23.944858 102.11582 34.950155 54.29279-34.950155 31.28173 17.475077 137.06597-57.02744687 44.15458 7.33686457 53.35902 66.2318773 30.34794 77.370573 58.69491 14.27354-65.83168 57.96123 5.536 6.93667 67.63255 61.16277-7.33687 32.68239 36.35083-.93378 39.55237-53.8259-20.94341c-29.12873 27.49449-17.84232 76.73574 50.15747 76.63684 17.76947.6794 42.13674-15.96115 51.69155-38.48515 9.54814 22.53535 33.98288 39.16475 51.75824 38.48515 67.99988.099 79.28616-49.14235 50.15747-76.63684l-53.8258 20.94341-.93399-39.55237 32.68261-36.35083 61.16266 7.33687 6.93667-67.63255 57.96113-5.536 14.27375 65.83168 77.37057-58.69491 66.23177-30.34794 7.33687-53.35902-57.02735-44.15458 17.47487-137.06597-34.95016-31.28173 34.95016-54.29279-23.87795-102.11582 8.27065-89.24295 46.88913-31.28172-11.00541-67.16566-98.44738-77.30388-48.75669 32.21551-33.1494-28.48038 8.27065-51.558144-154.54094-58.8950132-25.14544 2.4678544-25.21213-2.4678544z" fill="#da121a"/><path d="m333.82887-37.590005c-13.64475 0-25.49901 7.373234-31.94871 18.342161-16.63252 13.125528-25.7946 27.9436252-37.7515 37.418009-13.07971 10.364071-29.47031 17.867821-68.16614 14.673729l-11.53889-.933782-5.13581 10.338309-9.53792 19.075848-4.80231 9.604622 6.53648 8.470744c8.2137 6.182986 10.93121 14.249888 9.73802 20.476522-1.11164 5.801043-2.80867 10.385753-7.53696 15.540813-2.33559 1.51815-3.85677 4.73092-5.6694 4.40212-2.09716-.38041-9.5792-.4254-12.67276-3.93523-6.18713-7.01965-11.15528-21.206045-7.33687-37.951598l-32.4823-10.27161c-14.61341 35.832818-39.390712 47.331108-67.09896 66.165178s-56.0162941 47.96275-56.8940499 106.11774v.86709l.066592.93378c2.1693854 24.82233 17.8225726 42.75 35.6838409 48.95689 6.286973 2.18476 12.686341 2.87273 19.00915 2.86805-2.01727 17.07002-2.612031 35.69769-2.73465 55.35998-.160931 25.8083.225431 52.18191-.266795 76.37009h-5.269203-17.074885v17.07488 53.62581 17.07489h17.074885c15.570737 0 17.187473 6.48611 17.141584 12.93956-.04589 6.45345-2.140849 13.20636-17.141584 13.20636h-17.074885v17.07488 52.15844 11.67228l10.805201 4.20203 9.73802 3.86852v62.49675c-8.327464 1.50195-17.716281 4.35785-28.480374 8.93764-30.998365 11.93854-50.363205 92.66115 9.537924 116.12255 52.643876 15.00503 87.707749 39.01174 116.856239 85.24103l31.61522-18.34216c-7.02213-20.00818-12.67366-63.75781 23.54467-60.29569 34.76073 4.4559 18.6138 39.46497 8.07055 62.49675l27.21309 22.01059c68.23447-27.16832 89.24244 9.79861 83.77366 34.54996-12.40576-15.21391-51.21234-24.36716-48.49001 11.072.81904 24.04585 39.84021 36.57331 57.29425 17.60847 12.45213-18.4137 20.62426-43.85046 5.93619-68.36624-14.06593-26.77781-46.54234-34.92161-83.84036-32.3489 6.35662-46.26438-16.31964-67.71176-45.55526-70.5673-20.75332.519-41.79929-3.56912-58.76161 50.02408-39.69063-37.73069-81.89832-35.3744-110.253066-62.49675-20.624241-24.31965-14.077965-45.1483-3.735131-58.09462 11.752835-16.80679 41.594291-19.75123 58.828314.73368 5.149615 7.37554 8.310453 17.15279 3.868529 30.48134-2.389396-11.52292-12.580605-20.14303-24.811942-20.14303-14.004821 0-25.345532 11.34071-25.345532 25.34554 0 14.00482 11.340711 25.34553 25.345532 25.34553 6.00688 0 11.529688-2.11206 15.874307-5.6027 12.621861-5.47963 34.977729-21.79163 24.211649-64.9646-4.16667-15.91185-16.397734-20.62023-28.547069-25.94582v-76.97038-11.60559l-10.805201-4.26872-9.73802-3.80183v-26.41271c20.641935-6.83491 34.082388-25.30291 34.216468-44.15458.134465-18.89285-13.349635-37.56093-34.216468-44.42138v-22.41079h4.935709 16.341198l.733687-16.2745c1.394079-29.78251.40905-63.31083.600289-93.97857.134678-21.60212 1.066412-41.84262 3.268239-57.49433 20.093878 0 36.417528-16.32366 36.417528-36.41753 0-20.09388-16.32365-36.35083-36.417528-36.35083-20.093874 0-36.350829 16.25695-36.350829 36.35083 0 1.41854.108853 2.82578.266795 4.20202-2.218283-.0192-4.422203-.31211-6.403081-1.00048-6.435375-2.23634-11.406856-5.90398-12.739465-19.07585.977473-47.84122 17.149865-60.60152 41.820128-77.37057 15.423402-10.4837 35.03504-21.46296 52.22514-39.35227 2.71661 5.77336 5.90044 11.15993 9.93811 15.74091 7.2252 8.19739 16.7028 14.45916 27.81339 16.47459 11.11058 2.01544 23.53113-.91404 33.34938-8.33734l1.06718-.80039.86709-.93378c8.16837-8.40821 19.71361-20.14963 22.67758-35.61715 2.40779-12.565083-3.06793-27.08119-10.9386-41.086437l.33349-.733686c37.87761 1.047202 63.13621-8.767377 80.43872-22.477485 8.64843-6.852792 15.31628-13.865063 21.21021-20.343125 6.78483 7.390288 16.45652 12.072477 27.27979 12.072477 20.49981 0 37.15122-16.651406 37.15122-37.15121401 0-20.49980799-16.65141-37.08451499-37.15122-37.08451499zm76.43679 0c-20.49981 0-37.15121 16.584707-37.15121 37.08451499 0 20.49980801 16.6514 37.15121401 37.15121 37.15121401 10.82324 0 20.49488-4.682189 27.2798-12.072477 5.89382 6.478062 12.56178 13.490333 21.21021 20.343125 17.3024 13.710108 42.56107 23.524687 80.43871 22.477485l.33339.733686c-7.87003 14.005247-13.34573 28.521354-10.9386 41.086437 2.96441 15.46752 14.50981 27.20894 22.67758 35.61715l.86719.93378 1.06718.80039c9.81827 7.4233 22.23876 10.35278 33.34939 8.33734 11.11041-2.01543 20.58783-8.2772 27.81349-16.47459 4.03736-4.58098 7.2214-9.96755 9.93801-15.74091 17.18993 17.88931 36.80129 28.86857 52.22524 39.35227 24.6698 16.76905 40.84249 29.52935 41.82002 77.37057-1.33269 13.17187-6.30447 16.83951-12.73935 19.07585-1.98155.68837-4.18549.98127-6.40309 1.00048.15795-1.37624.2668-2.78348.2668-4.20202 0-20.09388-16.25721-36.35083-36.35094-36.35083-20.09394 0-36.41753 16.25695-36.41753 36.35083 0 20.09387 16.32359 36.41753 36.41753 36.41753 2.20181 15.65171 3.13324 35.89221 3.26835 57.49433.18996 30.66774-.79398 64.19606.60018 93.97857l.73379 16.2745h16.3411 4.9357v22.41079c-20.867 6.86045-34.35061 25.52853-34.21657 44.42138.13446 18.85167 13.57453 37.31967 34.21657 44.15458v26.41271l-9.73802 3.80183-10.8052 4.26872v11.60559 76.97038c-12.14942 5.32559-24.38037 10.03397-28.54707 25.94582-10.76614 43.17297 11.59022 59.48497 24.21155 64.9646 4.34513 3.49064 9.86715 5.6027 15.87452 5.6027 14.00418 0 25.34553-11.34071 25.34553-25.34553 0-14.00483-11.34135-25.34554-25.34553-25.34554-12.23202 0-22.42295 8.62011-24.81194 20.14303-4.44246-13.32855-1.28083-23.1058 3.86831-30.48134 17.23454-20.48491 47.07525-17.54047 58.82853-.73368 10.34247 12.94632 16.88919 33.77497-3.73513 58.09462-28.3552 27.12235-70.5626 24.76606-110.25317 62.49675-16.96219-53.5932-38.00784-49.50508-58.76173-50.02408-29.23519 2.85554-51.9117 24.30292-45.55515 70.5673-37.29795-2.57271-69.77459 5.57109-83.84046 32.3489-14.68781 24.51578-6.51579 49.95254 5.9363 68.36624 17.45416 18.96484 56.47539 6.43738 57.29414-17.60847 2.72216-35.43916-36.08415-26.28591-48.4899-11.072-5.46866-24.75135 15.53921-61.71828 83.77365-34.54996l27.2131-22.01059c-10.54332-23.03178-26.69061-58.04085 8.07066-62.49675 36.21753-3.46212 30.56681 40.28751 23.54455 60.29569l31.61522 18.34216c29.14854-46.22929 64.21245-70.236 116.85624-85.24103 59.90126-23.4614 40.53642-104.18401 9.53782-116.12255-10.76379-4.57979-20.15284-7.43569-28.48027-8.93764v-62.49675l9.73802-3.86852 10.8052-4.20203v-11.67228-52.15844-17.07488h-17.07488c-15.00071 0-17.09431-6.75291-17.14169-13.20636-.0448-6.45345 1.57089-12.93956 17.14169-12.93956h17.07488v-17.07489-53.62581-17.07488h-17.07488-5.2691c-.49303-24.18818-.10671-50.56179-.26679-76.37009-.12379-19.66229-.71736-38.28996-2.73476-55.35998 6.32283.004 12.72207-.68329 19.00926-2.86805 17.86054-6.20689 33.51437-24.13456 35.68373-48.95689l.0662-.93378v-.86709c-.87832-58.15499-29.18592-87.28367-56.89419-106.11774s-52.48563-30.33236-67.09896-66.165178l-32.48241 10.27161c3.8188 16.745553-1.1502 30.931948-7.33665 37.951598-3.09397 3.50983-10.57533 3.55482-12.67298 3.93523-1.81186.3288-3.33387-2.88397-5.66929-4.40212-4.72846-5.15506-6.42528-9.73977-7.53685-15.540813-1.19353-6.226634 1.52457-14.293536 9.73781-20.476522l6.53669-8.470744-4.80231-9.604622-9.53803-19.075848-5.1357-10.338309-11.53899.933782c-38.69596 3.194092-55.08657-4.309658-68.16615-14.673729-11.9569-9.4743838-21.11907-24.292481-37.7515-37.418009-6.44982-10.968927-18.30406-18.342161-31.94871-18.342161zm-38.21839 83.106665c-14.114 0-27.58008 2.478633-39.88587 6.869974-12.3058 4.391318-23.46505 10.730284-32.88249 18.675655-9.41746 7.945392-17.11343 17.44716-22.47749 28.14688-5.36407 10.699741-8.40404 22.583921-8.40404 35.016851s3.03997 24.38383 8.40404 35.08356c5.36406 10.69972 13.06003 20.2015 22.47749 28.14688 10.60683 8.94886 28.15224 13.99395 42.15362 16.54129.97173.24142 1.91563.4301 2.93475.53359.0625.0107.13809-.0107.19999 0 .65597.0606 1.32917.1334 2.00096.1334 11.81906 0 21.4103-9.59124 21.4103-21.41031 0-11.81906-9.59124-21.4103-21.4103-21.4103-11.81907 0-21.41031 9.59124-21.41031 21.4103 0 .20832.0608.39334.0666.60029-7.15613-2.55502-13.49975-5.49399-16.4746-8.00385-7.99226-6.74294-14.43666-14.68963-18.80905-23.41127-4.37243-8.72166-6.73658-18.23286-6.73658-28.21358s2.36415-19.42522 6.73658-28.14688c4.37239-8.721635 10.81679-16.668308 18.80905-23.411265 7.99226-6.742979 17.56643-12.317865 28.28028-16.141102 10.71383-3.823217 22.56454-5.936191 35.01685-5.936191 12.45229 0 24.30303 2.112974 35.01686 5.936191 10.71395 3.823237 20.28805 9.398102 28.28038 16.141102 7.99211 6.742936 14.37001 14.68963 18.74225 23.411265 4.37245 8.7216 6.73647 18.16612 6.73647 28.14688s-2.36402 19.49199-6.73647 28.21358c-4.37224 8.72164-10.75014 16.66833-18.74225 23.41127-2.82696 2.38515-10.44193 6.15757-18.40886 8.80424-.2875.0954-.57798.17352-.86719.26679.0448-.56618.13233-1.08974.13233-1.66747 0-11.81906-9.59124-21.4103-21.4103-21.4103-11.81907 0-21.41031 9.59124-21.41031 21.4103 0 11.81907 9.59124 21.41031 21.41031 21.41031 1.82374 0 3.579-.3044 5.2692-.73369 6.73333-.70658 14.21164-2.52234 21.477-4.93571 9.01639-2.99506 17.33336-6.57989 23.21117-11.53888 9.41744-7.94542 17.18011-17.44716 22.54419-28.14688 5.36429-10.69981 8.33745-22.65067 8.33745-35.08356 0-12.43288-2.97316-24.31704-8.33745-35.016851-5.36408-10.69972-13.12675-20.201467-22.54419-28.14688-9.41744-7.94535-20.51014-14.284337-32.81579-18.675655-12.30585-4.391341-25.77189-6.869974-39.88586-6.869974h.001zm.73368 24.41175c-5.3239-.01281-9.65851 4.655211-9.67132 10.405008-.009 3.306871 1.41273 23.097582 3.60173 39.418972-.24357.10821-.49822.21109-.73368.33349-11.43877-12.02934-26.39005-25.856985-29.01397-27.94678-4.49769-3.582183-10.89008-3.097342-14.20683 1.06718-3.31678 4.1645-2.3633 10.49134 2.13436 14.07344 2.64735 2.10845 19.84603 13.79768 34.21646 22.27739-.11739.70541-.13339 1.46233-.13339 2.20106 0 .15794-.006.31025 0 .46689-16.12973 4.83813-36.28582 12.41942-39.41898 13.87334-5.21569 2.42028-7.64361 8.31039-5.4026 13.13966 2.241 4.82929 8.25755 6.7557 13.47316 4.33542 3.16737-1.4698 22.39023-12.09292 36.55092-21.3436 2.19086 1.6451 4.91981 2.60125 7.87046 2.60125 2.48288 0 4.82421-.66855 6.80327-1.86757 14.57472 8.7534 34.68319 18.85364 37.95149 20.20973 5.31093 2.20353 11.29867-.0192 13.33976-4.93571 2.04066-4.91755-.62537-10.66958-5.93609-12.87286-3.13601-1.30115-22.97436-7.88591-39.15217-12.07248.0602-.50973.13339-1.00817.13339-1.53407 0-.45253-.0222-.95995-.0666-1.40068 14.03782-9.16443 30.9112-21.892 33.48268-24.14495 4.32485-3.78883 4.97476-10.068334 1.46737-14.07344-3.50804-4.004616-9.8819-4.189152-14.20673-.400193-2.48508 2.177005-16.40775 16.259983-27.2131 28.680473-.0171-.009-.0504.009-.0666 0 2.31128-16.42598 3.86108-36.670921 3.86853-40.019264.0128-5.749882-4.28074-10.4589-9.60463-10.471706h-.0666zm-.73368 83.77365c-4.68503 0-8.53745 3.78572-8.53745 8.47075s3.85242 8.47074 8.53745 8.47074c4.68502 0 8.47074-3.78571 8.47074-8.47074s-3.78572-8.47075-8.47074-8.47075zm-205.49891 17.20829-22.94438 40.08596h45.88876zm75.7698 0-22.94438 40.08596h45.82206zm259.45832 0-22.87779 40.08596h45.82216zm75.7698 0-22.94438 40.08596h45.88876zm-473.22787 281.86899-40.085962 22.94438 40.085962 22.94438zm535.45771 0v45.88876l40.08586-22.94438zm-535.45771 112.12063-40.085962 22.94438 40.085962 22.87768zm535.45771 0v45.82206l40.08586-22.87768zm-284.33685 279.86804c-9.98676.42326-18.82679 9.99053-16.1411 21.94389 5.65059 24.10553 20.6878 32.71971 32.2822 39.01878l.1334.0666.0666-.0666c11.59441-6.29907 26.63162-14.91325 32.28221-39.01878 4.21203-18.74671-19.99145-31.5972-32.4156-12.53937-4.50017-6.88425-10.54022-9.64472-16.2078-9.40452z" fill="#fcdd09" fill-rule="evenodd"/></g><g fill-rule="evenodd"><path d="m123.93946 225.41534c-.4903 146.61999-.22055 351.48116-.34375 430.8125-.008 5.19399.3599 10.22492 1 15.15625 1.76993-.22708 3.5429-.49571 5.3125-.71875 13.70892-1.72785 27.40551-3.33283 41.09375-4.8125s27.36447-2.8403 41.03125-4.0625 27.3242-2.29458 40.96875-3.25 27.25346-1.78942 40.875-2.46875 27.24599-1.19981 40.84375-1.59375 27.1768-.65075 40.75-.75c13.5732-.0992 27.13963-.0485 40.6875.15625s27.07199.5757 40.59375 1.09375 27.03638 1.19059 40.53125 2.03125 26.97029 1.82743 40.4375 3 26.93622 2.51746 40.375 4.03125 26.87168 3.19819 40.28125 5.0625c.76158.10588 1.51977.23672 2.28125.34375.62992-4.39102 1.02203-8.78714 1.03125-13.21875.1352-65.08133 1.54855-304.03597.53125-430.71875-166.09421.12085-332.18796.70809-498.28125-.0937z" fill="#0f47af"/><path d="m621.12227 669.44659c-.76148-.10703-1.51967-.23787-2.28125-.34375-13.40957-1.86431-26.84247-3.54871-40.28125-5.0625s-26.90779-2.85868-40.375-4.03125-26.94263-2.15934-40.4375-3-27.00949-1.5132-40.53125-2.03125-27.04588-.889-40.59375-1.09375-27.1143-.2555-40.6875-.15625c-13.5732.0992-27.15224.35606-40.75.75s-27.22221.91442-40.84375 1.59375-27.23045 1.51333-40.875 2.46875-27.30197 2.0278-40.96875 3.25-27.34301 2.58283-41.03125 4.0625-27.38483 3.08465-41.09375 4.8125c-1.7696.22304-3.54257.49167-5.3125.71875 9.13658 70.38819 81.05192 113.50103 124.09375 113.5 45.0923-.001 106.3865-6.02483 123.8125 38.21875.1802.45749.42305.8441.59375 1.3125 13.68151-45.70933 72.1515-39.17295 125.75-39.53125 48.56845-.33396 113.15582-55.09365 121.8125-115.4375z" fill="#07830c"/><path d="m316.46624 236.27545c-15.47216 0-28.96701 7.69545-36.11387 19.08257-7.39524-6.16864-17.24172-9.94317-28.07764-9.94317-21.41421 0-39.0475 14.71743-41.29642 33.61034-2.13458-.30705-4.29765-.47632-6.52739-.47632-22.9389 0-41.55883 16.8696-41.55883 37.68885 0 13.89526 8.30212 26.03082 20.63181 32.5684-1.13594 3.4361-1.73845 7.06451-1.73845 10.83628 0 20.81925 18.58713 37.71862 41.52603 37.71862 10.85257 0 20.74423-3.78743 28.14323-9.97296 6.13114 13.87339 21.09669 23.66717 38.57394 23.66717 13.67193 0 25.78999-5.9902 33.35859-15.24225 6.24962 13.64206 21.08367 23.25038 38.37714 23.25038 14.876 0 27.92536-7.1048 35.26104-17.7727 7.3374 10.66043 20.35848 17.7727 35.22825 17.7727 17.92101 0 30.65998-17.15868 36.48311-31.59281 7.60286 8.80935 19.45003 14.43845 32.73537 14.43845 22.9389 0 40.2674-16.86959 40.2674-37.68884 0-2.3612-.23122-4.66571-.68882-6.90664 22.09656-.86256 42.23923-10.50825 42.23923-30.77538 0-18.90938-15.35755-34.58826-35.35945-37.30183.0691-.88883.0983-1.77453.0983-2.6793 0-20.81925-17.32851-33.14933-40.26741-37.71862-9.96744-1.98545-19.53478 3.35991-26.76559 8.90124-7.13166-11.43822-20.63249-19.1719-36.14667-19.1719-11.99449 0-22.8246 4.61768-30.4065 11.99732-7.60855-8.69726-19.35199-14.2896-32.53857-14.2896-13.29445 0-25.13309 5.67829-32.73537 14.498-7.60249-8.81593-19.41144-14.498-32.70257-14.498h.00006z" fill="#fff"/></g><g transform="matrix(1.329115 0 0 1.3887942 -281.85113 -491.11448)"><g fill="#fcdd09" fill-rule="evenodd" stroke-width=".910493"><path d="m457.16963 659.86432-9.49132 41.94348h90.17463l-9.49131-41.94348z"/><path d="m435.43205 696.91653-15.28742 61.77756h145.24201l-15.28742-61.77756z"/><path d="m406.88745 747.92773-11.44188 74.75h194.64014l-11.44188-74.75z"/><path d="m391.1661 820.00117-13.53648 14.01391h230.27196l-13.5365-14.01391z"/></g><g fill="none" stroke-linecap="round" stroke-linejoin="round" stroke-width=".455247"><path d="m405.89989 756.21836h173.55706"/><path d="m404.64949 764.16067 176.16203-.00001"/><path d="m403.16805 772.10297h179.18514"/><path d="m402.26133 780.04525h181.03031"/><path d="m401.04227 787.98755h183.48491"/><path d="m399.96391 795.92985h185.60234"/><path d="m399.15269 803.87215h187.85288"/><path d="m415.95742 748.2359v7.75881"/><path d="m437.54047 748.31844v7.75881"/><path d="m459.12352 748.31844v7.75881"/><path d="m480.70656 747.98828v7.75881"/><path d="m502.28963 748.15336v7.7588"/><path d="m426.32738 756.57249v7.75881"/><path d="m448.09051 756.24232v7.75882"/><path d="m469.85364 756.07725v7.75879"/><path d="m491.61676 756.24232v7.75882"/><path d="m413.06657 764.27982v7.18682"/><path d="m435.56888 764.00114v7.7588"/><path d="m458.07123 764.3313v7.7588"/><path d="m480.57355 764.00114v7.75879"/><path d="m492.22089 772.72585v7.37747"/><path d="m503.07588 764.16622v7.75879"/><path d="m405.03612 772.33094v7.37749"/><path d="m426.83233 772.09009v7.75881"/><path d="m448.6285 772.0901v7.7588"/><path d="m470.42469 772.25517v7.75878"/><path d="m480.53984 780.34414v7.75878"/><path d="m458.72791 780.34414v7.75878"/><path d="m436.91599 780.33051v6.99616"/><path d="m415.10408 780.34414v7.7588"/><path d="m425.58472 788.10294v7.75881"/><path d="m447.96603 787.93786v7.75881"/><path d="m470.34734 787.93786v7.75881"/><path d="m492.72866 788.01357v7.37746"/><path d="m437.11237 795.67264v7.75882"/><path d="m414.93903 796.34339v6.99614"/><path d="m459.28572 795.69665v7.75881"/><path d="m481.45904 796.19189v7.7588"/><path d="m424.82984 803.95069v7.75883"/><path d="m470.36444 804.11578v7.75882"/><path d="m481.37908 811.70951v7.7588"/><path d="m409.06297 811.8746v7.75882"/><path d="m397.86672 811.81443h190.09441"/><path d="m447.59715 804.17543v7.75883"/><path d="m433.16834 811.91023v7.75882"/><path d="m457.27372 811.93424v7.75881"/><path d="m523.87266 748.31844v7.75881"/><path d="m545.45568 748.31844v7.75881"/><path d="m567.03876 747.98828v7.75881"/><path d="m513.37989 756.57249v7.75881"/><path d="m535.14303 756.24232v7.75882"/><path d="m556.90612 756.07725v7.75879"/><path d="m525.57824 764.00114v7.7588"/><path d="m548.08053 764.3313v7.7588"/><path d="m570.5829 764.00114v7.75879"/><path d="m514.01706 772.33094v7.37749"/><path d="m535.81324 772.09009v7.75881"/><path d="m557.60944 772.0901v7.7588"/><path d="m579.40563 772.25517v7.75878"/><path d="m545.97559 780.34414v7.75878"/><path d="m524.1637 780.33051v6.99616"/><path d="m502.35176 780.34414v7.7588"/><path d="m567.78756 780.34414v7.75878"/><path d="m403.20339 788.10294v7.75881"/><path d="m537.4913 788.10294v7.75881"/><path d="m559.87258 787.93786v7.75881"/><path d="m582.25389 787.93786v7.75881"/><path d="m515.10994 788.10294v7.75881"/><path d="m525.80571 795.67264v7.75882"/><path d="m503.63239 796.34339v6.99614"/><path d="m547.97905 795.69665v7.75881"/><path d="m570.15243 796.19189v7.7588"/><path d="m402.06253 803.95069v7.75883"/><path d="m538.66638 803.95069v7.75883"/><path d="m584.20098 804.11578v7.75882"/><path d="m561.43369 804.17543v7.75883"/><path d="m515.89907 803.95069v7.75883"/><path d="m493.13175 803.95069v7.75883"/><path d="m577.8006 811.70951v7.7588"/><path d="m505.48446 811.8746v7.75882"/><path d="m529.58983 811.91023v7.75882"/><path d="m553.69521 811.93424v7.75881"/><path d="m434.01719 704.32668 117.70137-.00001"/><path d="m431.80766 711.55326h121.42501"/><path d="m429.71393 718.77982h126.14315"/><path d="m428.08053 726.0064h128.67372"/><path d="m425.82525 733.23298h133.39816"/><path d="m424.31586 740.45956h135.50036"/><path d="m450.04217 697.12189v7.05964"/><path d="m470.37111 696.9717v7.05961"/><path d="m490.70004 697.12189v7.05964"/><path d="m438.34571 704.18153v7.05961"/><path d="m459.36516 704.48194v7.05961"/><path d="m480.38458 704.18153v7.0596"/><path d="m491.26436 712.12001v6.71265"/><path d="m501.40401 704.33173v7.05961"/><path d="m450.5447 711.54155v7.05962"/><path d="m470.90453 711.69175v7.05959"/><path d="m480.35309 719.05178v7.05959"/><path d="m459.97857 719.05178v7.05959"/><path d="m439.60405 719.03938v6.3657"/><path d="m429.0195 726.11139v7.05963"/><path d="m449.9259 725.96119v7.05962"/><path d="m470.83228 725.96119v7.05962"/><path d="m491.73867 726.03008v6.71264"/><path d="m439.78748 732.99895v7.05963"/><path d="m460.49962 733.02079v7.05963"/><path d="m481.21172 733.47141v7.05961"/><path d="m428.31437 740.53102v7.05964"/><path d="m470.84825 740.68123v7.05964"/><path d="m449.58132 740.73551v7.05964"/><path d="m511.02899 697.42231v7.05963"/><path d="m531.35795 697.12189v7.05964"/><path d="m522.42347 704.18153v7.05961"/><path d="m543.44287 704.48194v7.05961"/><path d="m511.62417 711.76069v6.71266"/><path d="m531.98399 711.54154v7.05963"/><path d="m552.34383 711.54155v7.05962"/><path d="m541.47665 719.05178v7.05959"/><path d="m521.10215 719.03938v6.3657"/><path d="m500.72761 719.05178v7.05961"/><path d="m533.55146 726.11139v7.05963"/><path d="m554.45783 725.96119v7.05962"/><path d="m512.64503 726.11139v7.05963"/><path d="m522.63596 732.99895v7.05963"/><path d="m501.92385 733.60925v6.36569"/><path d="m543.34807 733.02079v7.05963"/><path d="m534.64911 740.53102v7.05964"/><path d="m555.91606 740.73551v7.05964"/><path d="m513.38216 740.53102v7.05964"/><path d="m492.1152 740.53102v7.05964"/><path d="m455.62711 665.94419h74.42072"/><path d="m454.34844 672.13766h77.16922"/><path d="m452.91074 678.33111h79.72058"/><path d="m451.84691 684.52457h82.00667"/><path d="m449.779 690.71803h85.06208"/><path d="m458.57638 659.76941v6.05039"/><path d="m474.9587 659.64069v6.05037"/><path d="m491.34101 659.76941v6.05039"/><path d="m466.08942 666.07726v6.05036"/><path d="m483.02818 665.8198v6.05035"/><path d="m491.79578 672.62339v5.753"/><path d="m499.96694 665.94853v6.05036"/><path d="m458.98134 672.12762v6.05038"/><path d="m475.38856 672.25636v6.05033"/><path d="m483.0028 678.56418v6.05035"/><path d="m466.58375 678.56418v6.05035"/><path d="m458.48268 684.48582v6.05038"/><path d="m475.33034 684.48582v6.05038"/><path d="m492.17801 684.54486v5.753"/><path d="m450.3125 690.51746v6.05038"/><path d="m467.00364 690.53617v6.05038"/><path d="m483.69474 690.92237v6.05037"/><path d="m507.72335 660.02688v6.05038"/><path d="m524.10569 659.76941v6.05039"/><path d="m516.90573 665.8198v6.05036"/><path d="m508.20298 672.31543v5.75302"/><path d="m524.61019 672.12762v6.05038"/><path d="m532.25997 678.56418v6.05035"/><path d="m515.84092 678.55356v5.45565"/><path d="m499.42185 678.56418v6.05037"/><path d="m525.87335 684.61455v6.05038"/><path d="m509.02566 684.61455v6.05038"/><path d="m517.07697 690.51746v6.05038"/><path d="m500.38586 691.0405v5.45565"/><path d="m533.76808 690.53617v6.05038"/></g><g stroke-width="1.249578" transform="matrix(.7286405 0 0 .7286405 -271.73644 198.24993)"><path d="m1049.3421 812.01902c-7.7701-.0112-13.8133 4.95618-15.1015 12.63002v28.70853h30.2029v-28.70853c-.3851-7.99448-7.7463-12.45103-15.1014-12.63002z"/><g fill="#fcdd09" stroke-linejoin="round"><path d="m1020.3718 853.36447v-16.094h13.8656v16.094z"/><path d="m1064.4444 853.36447v-16.094h13.6179v16.094z"/><path d="m1061.7208 801.12116c-3.714-1.48566-7.9232-2.47603-12.3798-2.47603-4.9521 0-9.4089.99037-13.618 2.72358l6.1898 12.38003c2.2285-1.23813 4.7046-1.73322 7.4282-1.73322 2.2283 0 4.209.24755 5.9422.99038z"/><path d="m1077.567 816.71987-13.3702 4.9519c-1.2381-3.9615-4.4568-7.18039-8.9136-8.66587l6.4376-11.88474c7.6755 2.97114 13.6179 8.41833 15.8462 15.59871z"/><path d="m1020.8669 817.21496 13.8657 4.70455c.7427-3.46642 3.4662-6.43755 7.1802-8.17077l-6.1898-12.38003c-7.4279 3.21889-12.8751 8.9136-14.8561 15.84625z"/><path d="m1064.4444 824.64311c0-.99059 0-1.98095-.2476-2.97134l13.1227-4.70436c.7428 1.73322.9904 7.6757.9904 7.6757v12.62736h-13.618z"/><path d="m1020.8669 817.46272 13.8657 4.45679c-.2477.99038-.4952 1.73301-.4952 2.7236v12.37981l-13.8656.24755-.2475-12.62736s.2475-5.69494.7426-7.18039z"/></g></g><path d="m496.72725 674.82435c0-1.73322-1.7332-3.21889-3.9618-3.21889-2.2283 0-4.209 1.48567-4.209 3.21889v11.38945h8.4183z" stroke-linejoin="round" stroke-width=".910493"/></g></g><g transform="matrix(.3341737 0 0 .3341737 755.8865 80.845179)"><g stroke="#000"><g fill-rule="evenodd" stroke-width="2.1441"><g fill="#da121a"><path d="m-969.03013 820.84432c6.66532-17.19083 11.22001-37.43278.88467-69.86179l-79.84074 20.83304 71.00771 50.51955z"/><g stroke-linecap="round" stroke-linejoin="round"><path d="m-1356.4102 870.47575h300.8981l85.87135-48.88178 1.8235-6.70982-88.09795 50.14932h-300.495z"/><path d="m-1356.9985 865.25568h300.604l89.22364-50.79006h-293.35194z"/></g></g><g fill="#fcdd09"><path d="m-1057.8598 860.61564 83.97835-46.44792c8.02618-24.7731 6.1176-40.0098.20487-56.19009l-93.90052 52.47867z"/><path d="m-1348.1745 804.35488c8.8755 20.6982 5.0066 38.60412 0 56.26076h290.0152c6.2749-18.94692 6.2748-37.89384 0-56.84075z"/></g></g><path d="m-1344.6508 812.8956h288.9499m-290.5131-3.19232h289.6863m-287.5732 6.38463h289.224m-288.4923 6.3846h288.7311m-289.6908-3.1923h289.6863m-288.4785 6.38463h289.0328m-288.5988 6.3846h289.1144m-289.4706-3.1923h289.3564m-289.3557 6.38463h289.0329m-289.7963 6.38461h289.8094m-289.562-3.19229h289.7768m-290.3797 6.38461h289.8376m-290.9552 6.38462h289.1691m-288.7206-3.19234h289.6481m-291.0557 6.38463h289.6365m-290.2484 3.19233h289.2789" fill="none" stroke-width="1.07205"/><g fill-rule="evenodd" stroke-linecap="round" stroke-linejoin="round"><g stroke-width="2.187875"><g transform="matrix(.9931714 0 0 .9669869 -620.08633 147.12317)"><path d="m-713.47974 680.1958h12.586192v81.810249h-12.586192z" fill="#da121a"/><path d="m-693.28939 701.51251a13.897253 13.897253 0 1 1 -27.79451 0 13.897253 13.897253 0 1 1 27.79451 0z" fill="#e3e4e5" transform="translate(.000002 65.999997)"/></g><g transform="matrix(.9931714 0 0 .9669869 -581.11704 154.8075)"><path d="m-713.47974 680.1958h12.586192v81.810249h-12.586192z" fill="#da121a"/><path d="m-693.28939 701.51251a13.897253 13.897253 0 1 1 -27.79451 0 13.897253 13.897253 0 1 1 27.79451 0z" fill="#e3e4e5" transform="translate(.000002 65.999997)"/></g><g transform="matrix(.9931714 0 0 .9669869 -542.14782 162.49184)"><path d="m-713.47974 680.1958h12.586192v81.810249h-12.586192z" fill="#da121a"/><path d="m-693.28939 701.51251a13.897253 13.897253 0 1 1 -27.79451 0 13.897253 13.897253 0 1 1 27.79451 0z" fill="#e3e4e5" transform="translate(.000002 65.999997)"/></g><g transform="matrix(.9931714 0 0 .9669869 -503.17855 170.17621)"><path d="m-713.47974 680.1958h12.586192v81.810249h-12.586192z" fill="#da121a"/><path d="m-693.28939 701.51251a13.897253 13.897253 0 1 1 -27.79451 0 13.897253 13.897253 0 1 1 27.79451 0z" fill="#e3e4e5" transform="translate(.000002 65.999997)"/></g><g transform="matrix(.9931714 0 0 .9669869 -464.2093 177.86053)"><path d="m-713.47974 680.1958h12.586192v81.810249h-12.586192z" fill="#da121a"/><path d="m-693.28939 701.51251a13.897253 13.897253 0 1 1 -27.79451 0 13.897253 13.897253 0 1 1 27.79451 0z" fill="#e3e4e5" transform="translate(.000002 65.999997)"/></g><g transform="matrix(.9931714 0 0 .9669869 -425.24 185.54488)"><path d="m-713.47974 680.1958h12.586192v81.810249h-12.586192z" fill="#da121a"/><path d="m-693.28939 701.51251a13.897253 13.897253 0 1 1 -27.79451 0 13.897253 13.897253 0 1 1 27.79451 0z" fill="#e3e4e5" transform="translate(.000002 65.999997)"/></g><g transform="matrix(.9931714 0 0 .9669869 -386.2708 193.22925)"><path d="m-713.47974 680.1958h12.586192v81.810249h-12.586192z" fill="#da121a"/><path d="m-693.28939 701.51251a13.897253 13.897253 0 1 1 -27.79451 0 13.897253 13.897253 0 1 1 27.79451 0z" fill="#e3e4e5" transform="translate(.000002 65.999997)"/></g></g><g stroke-width="1.952145" transform="matrix(1.1131012 0 0 1.0837548 -524.79091 67.756569)"><path d="m-747.11923 681.81324h270.32415l78.9815-47.464-.19727-3.83137-79.1464 46.27367h-269.96198z" fill="#ed1c24"/><path d="m-747.64774 676.99659h270.05993l80.15766-46.8649h-263.54473z" fill="#da121a"/></g></g></g><path d="m-1260.2793 735.43639-19.8273 27.88742 67.1926 13.59554 32.6784-34.16228-58.7476-28.58528z" fill="#fff" fill-rule="evenodd"/><g stroke="#000"><g stroke-width="2.1441"><path d="m-1253.9877 724.56039c-2.015.26451-9.1283 15.1031-9.1283 15.1031s-36.8619 11.3642-31.3615 27.96388c5.5002 16.59875 27.6213 6.34317 27.6213 6.34317s8.3167-6.34169 21.5109-3.87624c13.1944 2.46542 12.1337 5.7546 20.1937 4.69515 8.0599-1.05899 22.0896-3.42782 24.3613-8.97502 2.2716-5.54774 3.1289-6.71017 3.1289-6.71017-10.0581-1.04629-12.1644-5.28807-17.6217-8.18346-15.1579 9.69287-28.8137.59243-52.3143 7.40021" fill="#fff" fill-rule="evenodd"/><g stroke-linejoin="round"><path d="m-1165.1872 603.78671c0 36.54573-30.4146 66.27594-68.0708 66.27594-37.5355 0-67.9501-29.73021-67.9501-66.27594 0-36.54575 30.4146-66.27587 67.9501-66.27587 37.6562 0 68.0708 29.73012 68.0708 66.27587z" fill="#fcdd09" fill-rule="evenodd" stroke-linecap="round"/><path d="m-1225.4356 577.0998c-3.0852-.0466-6.1303 2.12542-6.5136 4.6453-12.9487-.72354-16.6871.18908-17.4249 5.00886-10.6656 1.80056-41.6533 19.42755-42.1517 28.27582-1.5179 3.30671-2.8966 6.56671 2.9457 7.39211l11.2847-.28276c-1.3305 3.04147-14.3113 2.32618-11.1603 5.89753 1.7882 2.28754 5.0848 6.88571 11.99 2.98915 4.1685-1.20502 7.5244-2.8459 12.4049 3.02956 11.5426 8.8061 23.3333-.48371 27.7553-6.26107.7653-.25103 1.4985-.51345 2.2404-.80789-.8302.40228-1.5736.80102-2.2404 1.17143-4.1005 5.04338-8.8437 8.33772-14.3133 9.57338-2.6637 5.88015-2.1691 6.89514-3.7753 9.61378-4.3812 1.49205-8.3446 5.27203-3.568 10.94678l-.5393 2.86798c-4.5153-.007-6.7381 6.98333-2.033 10.21969v2.38325c-4.0745 2.54838-5.1285 7.16649.249 10.94677v1.89852c-4.8905 1.96542-8.1272 9.35289 1.0372 12.40096v1.4138c-4.5063 2.17346-6.9899 9.87718 2.3233 11.67388-3.1953 2.5432-7.3521 9.95411.9957 11.42549-.7447 2.0655-3.105 8.41343 2.9127 8.4043-6.3643-.63346 2.1713 13.30124 7.7596 10.06645.4138 5.49497 12.3949 10.86397 35.1718 12.59826.2282.36859.4393.74542.7053 1.09065 1.3143 1.70617 8.796 1.08432 11.4506-.32315 1.3805.072 2.7868.0976 4.1903.16157.8321 1.1824 1.6101 2.54023 2.2403 2.90837 2.2241 1.29926 7.1436-.2696 9.2518-1.09064.5881-.22903 1.1322-.75023 1.6595-1.333 1.9411.0558 3.856.11755 5.8083.16157 1.1092.90261 2.4921 1.4138 3.9828 1.4138 3.3348 0 6.1208.38733 8.588-1.21182 1.5592.0171 3.0573.0293 4.6052.0404.3477.51802.7792 1.09621 1.3276 1.73693 1.8755 2.19136 6.3027 1.29427 8.3805.28276 1.2275-.59754 1.9316-1.29682 2.2818-1.97931.4783-.0009.9352.001 1.4106 0 .373.49485.8003 1.0547 1.3276 1.69655 32.3052 10.26494 40.0122.96622 50.4907-2.94876 8.3675 2.29932 24.1387-.7484 23.5651-9.4522 5.9336-2.36205 8.4409-7.64793 6.2232-10.0985l.2489-3.35271c4.76-4.17231 2.8077-6.00422 1.8255-9.00787l.2489-3.59507c6.6281-6.58542-1.4118-8.62279-.4978-11.87585 15.7777-2.08615 14.7006 8.38964 13.0686 22.3379-1.3091 6.53939.4503 7.49029 2.2819 9.81576-.9354 6.91793 1.0644 9.00218 6.8869 10.0985 1.0639 5.70102 3.2054 10.69313 12.3219 5.53398 7.1776 4.08915 15.2983-1.14688 9.2933-9.61378 6.3523-4.11964 6.0116-15.6845-6.721-12.48175l-1.701-3.15073c2.866-3.85135 3.0045-8.17281-2.3233-11.39112l.2489-3.31231c3.0809-3.49105 2.0648-6.67668-3.0701-9.533l-1.5351-3.55467c.8096-7.53322-3.4655-8.81057-8.7539-8.8059l-4.1073-2.14087c-4.0223-4.60613-8.0506-3.18873-12.073-.24237l-1.7839-1.21182c.5325-4.04927-1.1211-4.71135-2.5723-5.69556 1.2457-7.45713-6.7971-8.27809-9.2518-6.90738l-.9957-.92906c.7034-6.22344-6.6273-8.28857-11.824-4.52414 1.6229-6.02107-8.8157-8.7489-12.3219-3.83743l-2.0744-.44433c-1.149-4.0357-11.0581-7.67518-13.8569-.96946h-2.0329c-4.6218-5.15196-9.5877-5.24617-14.8941-.24236h-4.1074c-6.0363-4.82593-10.3916-2.30816-14.3962 1.65615-4.2791-3.8084-8.1882-3.80839-11.7826 0h-5.1445c-5.3916-3.47216-9.2512-2.76016-13.3591.48474h-1.535c-2.3614-4.89649-6.0799-7.92953-13.8569-4.0394l-1.0372-1.17144c3.6494-5.46521-.265-7.89534-3.6095-9.53299 5.0568-3.02393 5.4104-8.00328.2904-10.46204l-.2904-2.18129c6.4363-2.69364 7.4883-6.95074 1.1202-12.56254-5.3009-1.00574-11.1761-4.57745-15.3505-7.99801 3.4789 2.72743 8.0517 4.55988 15.309 7.95762.015.0133.026.0271.042.0404 2.8353.53794 5.5046.367 7.6338-.96946 9.7702-5.104 15.3711-8.02815-1.5351-14.78421l-5.4764-2.74679c1.5863.35986 2.6807-.11237 2.9042-2.22167 7.6991.34382 9.815.31818 15.392-5.73596 7.0631-8.13793 5.0569-11.18681-3.0701-10.21968-8.4727 2.39687-15.401 2.03897-24.6438-2.62562.9241-5.55762-4.1926-10.24665-10.7868-5.49358l-3.6095-1.89853c-1.1534-3.61136-3.5747-4.97264-5.9742-5.00884zm21.2832 28.84132 8.3806 4.32216c-2.1905-.55481-5.2835-2.63744-8.3806-4.32216zm-12.9857 8.32118c1.6353 2.81473 3.3006 4.78184 5.3519 6.42265-3.2628-2.69924-5.446-5.2704-5.3519-6.42265zm-10.2475 9.08864c-1.9315 1.40575-4.0235 2.52497-6.2232 3.4335 1.9795-.95629 4.2282-2.0462 6.2232-3.4335z" fill="#fff" fill-rule="evenodd"/><path d="m-1249.4958 586.40216c.7831 8.0577 5.4655 9.48803 10.2697 10.71123v6.66477l4.6214 2.38027c-5.9027 4.96755-5.5289 8.59224-2.5674 11.6633" fill="none"/><g fill-rule="evenodd"><path d="m-1246.1581 604.25419c-8.6138-.1248-13.1826-6.16814-18.4857-.23802" fill="#e3e4e5"/><path d="m-1258.9954 601.6359c-.9098 3.86534 3.209 10.03733 8.7293 1.90421"/><path d="m-1281.3322 612.82317c-.9477 1.42228-2.9034 1.9101-5.9051 1.42818l.7703-.47608" fill="#e3e4e5"/></g></g></g><g stroke-width="1.573191" transform="matrix(1.3812277 0 0 1.3448123 -1534.2168 -262.57913)"><path d="m418.6188 727.73571c-25.16227-14.78031-6.31725-47.90348-45.15026-43.38409-6.48397.15907 14.85098-35.92327 22.56729-32.7742 29.04347 4.37643 18.80341 34.43991 38.5185 42.73654-6.78893 1.39565-13.53132 3.87747-20.5033.996-2.5128 10.64 1.32471 21.54527 4.56777 32.42575z" fill="#da121a" fill-rule="evenodd"/><path d="m304.27499 618.98835c.23258 6.42754 13.07642-.59786 19.61458-.89679 6.59779-.30166 13.10087 5.61732 19.19817 7.70648" fill="none"/><g fill-rule="evenodd"><path d="m421.07657 696.48317c-12.10188-17.06049-10.5293-29.78448-30.36881-35.24512l-4.80525 10.40591c18.72732 7.46439 16.14481 13.91709 27.05661 31.71838.36601-2.71157.63746-5.82683 1.14286-7.94279 2.63987.851 5.0122 1.15229 6.97459 1.06362z" fill="#fff"/><path d="m394.64627 668.27319c2.33049-4.88746-7.31638-14.45209-1.15715-16.49024-7.18644 3.47838-11.38224 10.15308-13.40509 16.82668 3.18147 2.6161 6.01048 5.80723 14.56224-.33644z" fill="#ed1c24"/><path d="m323.90122 651.01546c44.45135 5.9599 9.94977 35.11057 49.41361 47.98528 5.60471.3354 24.23549-27.90916 21.71183-32.04577-35.29824-10.21676-8.3847-36.51-52.38993-41.09296z" fill="#da121a"/></g><path d="m301.10086 626.60565c4.1909-.84756 10.5983 8.89789 12.09225 16.45281 1.18925 6.01322 7.74559 8.1487 11.18117 7.99161" fill="none"/><g fill-rule="evenodd"><g fill="#fcdd09" stroke-linecap="round" stroke-linejoin="round"><path d="m315.54066 602.16728-110.64688 153.43854c.6933.4949 1.36433.99851 1.89755 1.43331.6953.56692 1.3106 1.05051 2.01093 1.27608.70035.22559 1.50487.21022 2.52399-.1762.52443-.19885 1.33716-.83192 2.00893-1.24708l106.69612-150.73461z"/><path d="m323.98311 634.05294-4.42131 4.68359-34.40232-26.64416 4.4213-4.68359z"/><path d="m315.80648 600.58664 5.92566 4.2112c1.04183.81017 1.34343 2.41622.52186 3.5785-.82157 1.16231-2.37576 1.39135-3.5071.56114l-5.81575-4.28279c-1.15174-.73858-1.36375-2.32458-.54226-3.48688.82157-1.16232 2.28625-1.41137 3.41759-.58117z"/><path d="m286.59284 641.64523 5.83596 4.19112c1.13135.83021 1.34343 2.41623.61148 3.59856-.9111 1.14229-2.37585 1.39134-3.52751.65274l-5.81574-4.28278c-1.13146-.83022-1.34346-2.4162-.61137-3.59855.82145-1.16232 2.37574-1.39131 3.50718-.56109z"/><path d="m325.19577 634.51673-4.30707 5.86304c-.82148 1.16231-2.37585 1.39132-3.5072.56111-1.13136-.83021-1.34344-2.41617-.52187-3.57851l4.32739-5.95464c.80119-1.07072 2.37568-1.39135 3.48681-.46953 1.13145.83023 1.34353 2.41621.52194 3.57853z"/><path d="m291.19223 607.7695-4.48613 5.82298c-.91107 1.14227-2.46526 1.37128-3.5764.44946-1.04183-.81018-1.23361-2.48778-.34283-3.53843l4.48612-5.823c.82158-1.16228 2.37574-1.3913 3.48688-.46949 1.13135.83022 1.23362 2.48779.43236 3.55848z"/><path d="m326.20235 600.31752c-.62981 2.83991-3.26588 4.55761-5.95142 3.95642-2.68572-.6012-4.34658-3.28078-3.7168-6.12067.60949-2.7483 3.22519-4.37442 5.9109-3.77322 2.68555.60119 4.3668 3.18918 3.75732 5.93747z"/><path d="m331.30926 641.27008c-.60947 2.7483-3.26578 4.55763-5.95153 3.95643-2.68549-.60118-4.32615-3.37237-3.71667-6.12068.60947-2.74833 3.2659-4.55762 5.95141-3.95644 2.68574.6012 4.32627 3.37238 3.71679 6.12069z"/><path d="m286.4311 605.93443c-.60949 2.74833-3.35539 4.53758-6.04102 3.93639-2.68563-.6012-4.32616-3.37236-3.71669-6.12069.60948-2.74829 3.26582-4.55759 5.95143-3.95642 2.6856.60119 4.41575 3.39244 3.80628 6.14072z"/></g><path d="m338.06019 632.17714-5.82451 7.68417c18.50839 4.70806 21.92793 11.26777 25.18083 19.64304-2.53239 3.63798-4.93343 7.45296-7.2063 11.45627.66674 4.4069 1.60089 8.51725 2.99849 12.11453 2.96368-4.75127 5.94898-8.90753 8.94448-12.78217 3.37907 6.10964 8.9441 12.93898 20.29901 20.47426 3.0207-3.09342 5.48886-6.17277 6.96069-9.19539-11.35252-6.30604-16.64804-13.28429-20.16375-20.02441 2.19629-2.60497 4.39916-5.1644 6.59515-7.78021l-4.44493-11.77479c-2.47143 2.74344-4.8486 5.58572-7.19395 8.50681-3.92179-8.31847-9.10152-15.18028-26.14521-18.32211z" fill="#fff"/></g></g><path d="m-1068.4697 707.04379c2.4951 16.04582 4.9175 32.09163 2.0555 48.13745-4.6264 9.38106-.4864 24.11264-20.5551 24.06875-22.5585-.69005-44.4255-1.90522-60.98-7.15573l-6.8516 5.20416c-9.1424 6.73455-15.6178 5.02001-17.8588 2.12087-4.4151-3.56006-6.8192 2.61607-8.2878-4.49574 3.407-4.98698 14.6174-16.05636 24.091-21.04334 15.7589 2.72992 31.5178 5.97179 47.2766 6.5052-33.5837-6.71846-39.4671-22.71889-42.4804-39.68072" fill="#fff" fill-rule="evenodd" stroke-width="2.1441"/></g><path d="m-1216.7088 735.54524c-8.445 4.18275-37.0845 22.65837-37.0845 22.65837l52.8729 19.52143 13.7056-13.13585 2.3493-18.98563z" fill="#fff" fill-rule="evenodd"/><g stroke="#000"><g fill-rule="evenodd" stroke-width="2.1441"><path d="m-1228.0067 739.55824c-2.0342 0-7.6282 9.65629-7.6282 9.65629s-36.6155 3.37999-33.5642 19.31308c3.0513 15.9326 26.4445 9.17315 26.4445 9.17315s9.1539-4.82791 21.8676-.96529c12.7137 3.86261 11.1881 6.75945 19.3248 6.75945 8.1368 0 22.3761-.48313 25.4274-5.31105 3.0513-4.82837 4.0684-5.79413 4.0684-5.79413-9.812-2.17752-12.1699-5.52298-17.1576-8.84537-16.4145 7.08299-27.7431-3.74875-52.0049-.32779" fill="#fff"/><path d="m-1188.34 763.69922c6.5345-3.64886 9.2379-18.80264 1.3017-26.23747" fill="#fff"/><g fill="#f6cb7e"><path d="m-1196.8963 783.25047 3.094-8.92007 3.978-10.542"/><path d="m-1169.7183 782.1437 7.0719-12.97469"/><path d="m-1148.8788 772.40208-5.3039-12.97471-1.768-4.8655"/></g></g><path d="m-1055.4485 813.12636 84.50894-47.53839m-85.00564 44.11531 84.17885-47.30764m-82.65835 53.80765 84.30909-47.42301m-83.81429 53.92299 84.05314-47.53839m-84.18334 44.11533 84.17887-47.30763m-83.56367 53.69226 84.11797-47.30763m-83.92097 53.92299 84.43648-47.53839m-84.55558 44.34609 84.44145-47.53839m-84.32225 53.92302 83.99942-47.53839m-84.28882 53.69224 84.30194-47.30764m-84.05464 44.11535 84.26946-47.30763m-84.87226 53.69224 84.33013-47.30763m-85.44783 53.69225 83.66176-47.30763m-83.21316 44.11529 84.14065-47.30763m-85.54825 53.69226 84.12898-47.30763m-84.74088 50.49996 83.77138-47.30763" fill="none" stroke-width="1.07205"/></g></g><path d="m622.22447 225.01005c-164.3968.008-333.887.87449-498.2836-.10113-.4903 146.62-.2265 351.48717-.3497 430.81852-.1231 79.33133 79.0304 128.65319 125.0877 128.65208 45.5586-.001 107.7309-6.22989 124.4123 39.52942 13.6815-45.70931 72.1645-39.17112 125.763-39.52942 52.1026-.3583 122.7077-63.31872 122.8437-128.65208.1352-65.08139 1.5439-304.03461.5266-430.71739z" fill="none" stroke="#000" stroke-width="3"/></g></svg>