<svg height="1114.2858" width="1200" xmlns="http://www.w3.org/2000/svg" xmlns:xlink="http://www.w3.org/1999/xlink"><clipPath id="a"><path d="m0 0h1200v1114.2857h-1200z"/></clipPath><g clip-path="url(#a)"><path d="m0 0h1199.4506v1115.0984h-1199.4506z" fill="#e0e0e0"/><path d="m312.5-.7142334-.6 21.8142334-1.2 2.9v1.1l-2.2 2-3.4 2.4-2.2 3 1.4 3.8 1.4 3 .5 3.9-1.4 21.3-.4.9-.8.8-.8 1.2-.3 1.8.2 1.9.5 1.4 1.6 3.3 4.8 14 .6 7.1-1.8 5.8-6.1 6-.9 1.6-.4.9-.8.8-.8 1.2-.6 4.1-.6 1.2-.7.7-.8 1-1.4 3.4-.8 1.2-1.3 1.4-3.5 2.3-.9 1-1 1.9-.4.6-10.1 10-1.8 4.7 2.6 4.7 7.4 7.1 3.1.7 7-4.7 3.5-.2-3.9 1.9-3 1.9-3.2 1.5-4.6.6-3.2-1.1-2.1-2-2.3-.8-3.5 2.8-2.8 5-2 4.9-.4 1.8-.7 1.2-.8.8-.4.9-.6.3-2.9 3.9-6.8 6.1-4.7 2.1-.7 2.8.5 6.6-.9 3.1-1.8 3.8-2.4 3.4-2.6 1.4-2 1.3-1.5 3.1-2.8 8.8-1.5 2.5-2 2-2.6 1.1 2.2 2.9.4 1.3-.3 1.7 2.2 1.6 4 4.5 1.5 1 2.6-.6 5.1-2.4 5.4-1 2-.9 2.3-.5 3.1.7 2.7 1.4 1.9 1.7 1.4 2.1 2.7 8.3 1.5 2 4.3-1.8 5.6-1.4 1.2-1.2 1.4-2.5 3.3-3.8 3.9-3.5 3.2-1.3-1.1.7-1.3 1.5-.8 1.8.7 1.7 1.9.5 7-1.5 2 .5 4.4 2.4 1.7.6 2.1.2 2.5.4 2.1.7 1 .9-2.2.2-2.5.4-2.3.8-1.3 1.1-.4 2 1.4 4.4.2 2.9-.3.9-.6 2.2-1.4 2.9-1.6-3.7-1.5-7.3-2.3-3.7-2.7-.9-10-.3-3.1.6-1.7 1.7-1.2 2.4-1.6 2-3.1.9h-3.1l-2.5.5-2.2 1.7-2.2 3.6-.8 3.5.9 2 1.5 1.8.8 2.7.4 4.2 6.1 16.1 1.8 20.3-.6 8.4.6 3.5 2.3 3.4-1.4 2.7-1.7 7.5-1.1 1.5-1.6 1.3-.8 3v3.5l.7 2.7-2.9-.6-1.4-1.5-1.6-4.9 1.5-2.5.9-5-.3-4.9-2.1-2.8-.2 2.3-.9 1.7-1.5 1.2-2.1.7-1-4.6-4-2.2-5.1-.3-3.9 1.2 2.3-3.5 3.7-.4 7.4 1.6 2.9-1.6.6-3.5-1.3-4-2.8-2.7-3.2-.4-3.1 1.3-2.7 1.7-3.1 1.2-2.3 1.6-1.4.4-2.4-.3-1.5-.6-1.5-.4-2.3.2-1.7.8-3.5 2-1.9.8-3.9.8-3.7.3-1.2 2.1-.7 9.5.1 2.5 2.3 2.7 2.7.1 3-.3 3.2 1.6 4.8 5.4 2.1 3.2 8.3 18.9 2.4 2.4 1.8 1.3 1 6.1 1.4 2 1.2-.2 3.9-1.7 1.4-.5 2.1.4 1-.6 1-2.1h1.1l1 3.4 2.5 2.5 5.9 3.6 8.2 6.1 1.8.9 5.5-.2 1.4.8 2.6 2.3 2.1 1.5 7.8 2.6 2.2-.8 13.3-.8 3.3-1.1 3.2-1.5 2.6-1.7 3.4 2.7 3.3 1 8.7-.2v1.2l-7 2.3-2.5.2-2.8-.6-5-1.8-2.7-.1-2.2.8-6 3.8-1.9 1.8-3.2 4.1-2.1 1.4-2.7-2.5-4.4-.2-3.3 1.6.4 2.8 2.5 3.2 6.3 11.4-5.6-4.4-5.3-8.3-6.2-6.3-8.6 1.4-1.7-3.5-1.5-1.1-2.6-.1-1.6 1.1-4.8 4.8-.8 1.2-1.1-1.6-1.5-6-.9-1.8-2.2-1.2-8.4-2.4-1.8 3.1-.2 3.1.9 7.4-.5 1.8h-1.2l-1.4-.9-1.1-.9-.6-6.5-1.6-3.4-4.5-4.4-.9-2.2-.8-.5-5.6-.1-2 .6-1 1.2-.9 1.6-1.5 1.3-.5-1.5-.2-2 .4-1.7.9-.7 1.7-.6-.1-1.4-.7-1.9-.3-2 1.6-6.4.3-3.5-.7-4.1-1.5-3.4-1.6-1.2-1.9.5-5.4 4.8-.8.5-.3 1-.9 4.5-.5 1.6 1.9 5.5 6 32.4.3 3.7.4 1.3.7 1.4.3 1.5-.8 1.6-1.3 1.6-.9 1.9-.6 2-.2 2.2 2 4.4.4 1.5-.2 2.1-.7 3.7-.2 1.8-.8 3.5-3.9 7.7-1.3 3.6.2 22.1-2.5 7.1-4.2 6.7-15.4 16.8-3 6.2-10.2 9.1-1.4 4.4 1.4 2.9 2 2.7.4 4-2.4-4.6-2 .9-.2 1.5.3 1.8-.4 1.8-1 .6-2.8 1-1 .6-1.3 1.4-.2.6.2 1 .2 2.4-.9 2.8-4.1 4.5-.9 3.2-.5 10.4-.7 3.2h-1.2l-1.1-2.4 1.2-6.1-.1-3.4-1.9-3.1-6.2-5.8-1.3-3.3-.5-2.7-1.3-2.9-1.7-2.4-4.2-2-1.6-.1-1.3 1.1v2l1.1 1.8 1.8 1.4 1.7.8v1.1l-3-.1-3-.7-2.3.2-1 2.5-.5 3.4-.8 3-.2 2.9 1.5 2.9-2.8-.8-.8-2.4-.3-2.6-1.4-1.1-2.4-.8-1.6-2-1-2.5-.8-7.2-1.4-5.9-2.6-4.2-3.7.1-.6-1.1-.3-.9.2-1 .7-1.6-5.5-1-1.9-1.5 1.5-3.3-1.2-1.3-2.4 3.6 4 12.6 5.3 6.9 2.3 9 3.7 6.3 4.5 10.2 2.6 4.4.9 2.1 1.4 6.1h1.3l1.7-1.1 1.3 2.9 1.1 4.2 1.1 2.8 3 .7 5-3.4 2 .9-.9.3-1.3 1.3-1.4 2-1.1 2.3 2.5 1-2.6.9-2.4-1.2-4.5-4.2 17 21.8 2.9 7.5 1.3 10.5.5 1.9 1.1.2.6-1.6 1-4.6-2.2-5.2 3.2 2.5 3 4 .8 4.1-3.3 2.4.4 1.1.3.5.5.6-1.1 3.1.4 3.5 1.5 2.9 2.1 1.2 2.6.9 6 4.6 2.5 1.4 2.2.4.7-.5.4-.6 1.6-.8 1-.6.9-.3.6 1.1 1.1 1 .4.3-.4 1.4-.3 3.4.5 3.5 1.9 2.3 2.9.4 8.2-1.6 1.8-1.1 1.3-2.5 1.8-2.4 2.7-1 1.2.6 1.4 2.4 1.6.5 1.8-.5 1.7-1.2 1.2-1.7.5-1.9-1.2-8.9v-3.4l1.6.9.7.7-.2.8-.9 1.1 3.1 5.9.6 3-2.7 5-.8 3.2-1.4 1.7-1.3.5-4.1.4-1.6.4v1.1l1.7 1.3.7 2.4-.3 2.4-1.5 1-3 .3-2.5 1-1.4 1.8.4 2.7.8.3 1.7.2 1.5.4.7.9-.1 3.1.1 1.6 1.2 2.5.3 2.7.9 1.3 1.3.7 1.1-.1 1.1-.4 1.2-.2 5.6-.4 4.6-1.4 3.9-2.8 4.3-5.7.7-.6.6-.9.3-1.7-.7-2.6v-1.1l1.3-.4 2.1-.1.8.1 3.4 1.9 1.4.4-.8 2.8.2 3.8 1.6 6.4 2.1 3.4 2.7 2 7.1 2.8-5.2 1.1-14.2-1.9-5.3.8 1.1 2 .1 2.8-1.2 5.8-2.6-1.4-1-2.5.3-2.9.9-2.7-4.1.4-4.6 1.4-4 2.3-2.6 3-.3-1.5-1-1.5-1.3-.6-1.5.6-.4 1.3 1.5 2.4-.5 1.7-2 .9-1.1-2.6-1.6-21.3-5-1.5-1.5-.8-8.2-6.7-1.1-1.1-2.3-1.5-5.4-6.7-1.1-1.7-.9-3.3-4-4.2-1.8-5.4-2.1-2-2.7-1.2-2.6.3-3.3-3.8-2.2-2.9-1.7-5.1-2.3-4.6.8 3.6 1.5 3.7 1.7 4.3 1.7 2.9 21.4 30.1 9.6 9.8 3.9 5.4 2.8 7.1.2 1.7-.2 5.3.5 2 1.5 3.8.4 1.9v7.1l-.2 1.4-.7 3-.2 2 .5 5.1 1.4 3.4 2.5.9 3.8-2.5 3.9 2.9.4 1.9-2 3.4h1.9l1.5.4 1.4.8 1.2 1.3-.1-2.1.4-1.9.9-1.4 1.7-.5.4-.9.5-1.9.8-2 1.2-1.1 3 1.2 4.4 8 3.2 2.6-.7-3.8.1-1.6.6-1.7.8.8 2.7 1.6 1.7-1.7 3.2 3.3 5.6 9.6.3 1.2-1.7 1.1-2 3 1 1.9 4.2 2.9 1.8 2.2 1.7-.1 1.4 2.4 1.2 3.4.4 3.1-.5.6-2.4.9-.6.9-.4 1.3-1-1.4-.8-2.1-.1-.8-3.5-2.3-.3-1.3.1-3-.5-1-.9-.3-3.8-.3-.9-.4-1.2-.9-2-2.2 3.8-3.1.4-3.5-2.4-2.9-4.7-1.1h-8.8l.3.7-.9 1.3-1.2.7-.6-1 .2-1.2.4-.8.8-.5 1-.3-1.3-3.6h-1.1l-1.3 3.6-1.2.9-2.2-.9.4-.4.2-.1.2-.1.4-.7-3.5.4-3.8-1.3-3.2-2.4-1.3-3.1-.7-.7-1.3 1.1-.4 1.7 1.8.8.3.8 1.4 1.6 1.7 1.5.7.2 1.2 1.8 7.1 7.1 2.4 6.5 2.1 3 3.7 1-.7 1.7-.4.7 2.4 1.9 5.2 6.2 4.6 2.6 17 16.7 1.3 2.6 1 15.5 1.3 3.9v1l1.8 4.4 3.9 5.1 4.6 4.4 3.8 2.6-1.6-2.4-3.8-4.6-1.5-2.5 2.9 2 7.2 8.5 2.7 1.2 1.6-2.2-.6-2.5-2.1-4.1.2-1.2.8-.5 1.1-.1 1.5.2 1 .7v1.2l-.2 1.3.2 1.5.7-.1 2 .9 1.3 1.1-1 .5-.6.4-1.9 1.8-.5.6.5 2 1.1 2 1.6 1.5 1.6 1 4-1.1 4-3.8 4-3 4.4.9.3-.3 2.5-1.3.6-.1.4-1.8h.9l1.7 1.2.3 1.4 3.9 7.9 3-.4 4.7.9 4.4 1.4 2 1.7-.6 1.4-1.7.2-2-.1-1.5.8-.4 1.8 1 3.5-.6 1.8 2.1 1.3 2.4 1.1.5-1.5.9-1.6 1.1-1.7 1.2-1.3.1-.8-.2-1.1v-1l.6-.5 1.3.2 2.1.8 1.3.2 1.3.7 2 3.2 1.3.8.8.6.8 1.4 1.3 1.2 2.5.4-2.4-8.8-1.1-3h1.1l2.3 2.9 4.2 1.5 3.3 1.7-.3 3.3 1.3.4 3.3 2-1 2.2-1.6.7-4.5.5-1.9-.4-3.5.1-3.8.6-2.5.9-1 1.3-1.3 3.1-1.3 1.4-1.9 1.3-1.5.6-.7-.5.6-2.4-1.7-.2-1.6.4-1.4.8-1.1 1.3-.7-2-.5-6.3-.8.1-.2.1v.3l-.2.7-1.5-1-1.1-.2-.6.8-.3 1.7h-1.2l-.6-3.8-2.5-3.9-.4-.1-1-.7-6.1-2.2-2.7 1.1-1.4-1.8-.5-3.2v-3.1l-.3.8-.5.7-.7.5-.9.3-.6-2.1.5-1.8.8-2 .4-2.4-3.2 3.4-2.1 2.7-2.4 1.5-4-.4-3.7-1.9-4.8-5.3-3.2-2.3 3.7 6.5 38.6 38.3 9.1 5.8 3.1 4.1 26.3 20.9 8.5 4.4 21.1 17.9 19 19.9 1.6.9 2.5 1.3 2.1 3 3 6.3 7 7 1.2 1.8 1.2 1.4 6.1 3.4 2.1 1.6 3.6 4.7 1.6 3.2.7 3.4-.6 3.8-1 3-.2 2.6 1.8 2.9 29.2 19.2 20.1 18.4 4.9 5.5 2.4 3.6 1 3.2.2 3.9.6 3.4 1.1 3.1 1.7 3 6 7.9 14.8 12.7 2.8 2.4 2.1 3h1.2l13.86789 9.4858h-556.06789l-1.3871814-1113.90668004z" fill="#c8ebff"/></g><g clip-path="url(#a)"><g fill="#fefee4"><path d="m230.1 491.8-3.8-14.4-2.4-2.2v-11.8l1.2-3.6 3.9-7.7.8-3.5.2-1.9.8-3.6.1-2.1-.4-1.6-2-4.3.2-2.2.6-2 .9-1.9 1.3-1.6.9-1.6-.3-1.5-.8-1.4-.4-1.3-.3-3.7-6-32.4-1.9-5.6.5-1.5.9-4.5.3-1 .8-.5 5.5-4.8 1.8-.5 1.7 1.2 1.5 3.3.7 4.2-.4 3.5-1.6 6.4.3 2 .8 1.9.1 1.4-1.8.5-.9.8-.3 1.7.1 2 .5 1.5 1.5-1.4.9-1.5 1.1-1.3 1.9-.5 5.6.1.8.5 1 2.2 4.5 4.4 1.6 3.4.5 6.4 1.1 1 1.4.9h1.2l.5-1.9-.9-7.3.2-3.1 1.8-3.1 8.5 2.4 2.2 1.1.9 1.9 1.4 6 1.2 1.6.7-1.2 4.8-4.8 1.6-1.1 2.6.1 1.5 1.1 1.7 3.5 8.6-1.5 6.2 6.4 5.3 8.3 5.6 4.4-6.3-11.4-2.4-3.3-.5-2.8 3.4-1.5 4.4.2 2.7 2.4 2.1-1.3 3.1-4.1 1.9-1.8 6-3.8 2.2-.8 2.8.1 4.9 1.8 2.8.6 2.6-.2 6.9-2.3v-1.3l-8.6.2-3.4-.9-3.3-2.8-2.7 1.8-3.2 1.5-3.3 1.1-13.3.8-2.2.8-7.7-2.6-2.2-1.5-2.6-2.3-1.4-.8-5.4.2-1.8-.9-8.3-6.1-5.9-3.6-2.5-2.5-.9-3.4h-1.2l-1 2.1-1 .6-2.1-.4-1.4.4-3.9 1.7-1.2.3-1.3-2-1.1-6.1-1.8-1.3-2.4-2.4-8.2-18.9-2.2-3.2-4.8-5.4-3.2-1.6-3 .3-2.7-.2-2.2-2.6-.2-2.6.7-9.4 1.2-2.1 3.7-.4 3.9-.8 1.9-.8 3.5-2 1.8-.7 2.3-.3 1.5.4 1.5.7 2.3.3 1.4-.4 2.3-1.6 3.2-1.2 2.7-1.7 3-1.3 3.3.3 2.8 2.8 1.2 4-.6 3.5-2.8 1.6-7.5-1.6-3.6.4-2.4 3.5 4-1.2 5 .3 4 2.2 1 4.5 2.1-.6 1.5-1.2.9-1.8.2-2.2 2.1 2.7.3 5-.9 4.9-1.5 2.6 1.7 4.9 1.3 1.5 3 .6-.8-2.7.1-3.5.8-3 1.5-1.3 1.1-1.5 1.8-7.5 1.3-2.7-2.3-3.4-.6-3.5.6-8.4-1.8-20.4-6-16.1-.5-4.1-.8-2.7-1.4-1.8-1-2 .9-3.5 2.1-3.6 2.2-1.7 2.6-.5h3.1l3-.9 1.6-2.1 1.2-2.3 1.7-1.7 3.1-.6 10 .3 2.8.8 2.3 3.8 1.4 7.3 1.6 3.7 1.4-2.9.6-2.2 5.1.6 2.6 1 2.8 1.9 4.5 5.1 2.8 2.2 3 1.3 3.1.5 2.7-.6 2.1-2 .6-2.2v-5.1l.9-2.5 8.3-1.1 66.2.2-.9 24.4-2.7 8.6-1.9 3.5-2.5 6.6-.7 3.3.2 2.4 2.7 3.7.9 1.5.7 1.6 1.5 5 .8 1.6 1.4.3 2.5-.4 89.4-30.9 1.5-.1.7.5 1.7 6.8.5 3.8-.4 11.8-.3 2.2-1.7 4.7-.9 4-.3 1.2-.4.7-2.6 2-.8 1-.2.4-.3.5-1.9 7-.5 1.3-1.4 2-.7 1-.6 1-.4.8-.5 2-.3.6-2 3.5-.7 1.7-3.6 12.6-.5 4.5-.3 1.4-.3.8-.5.7-.6.6-1 .8-.3.9-.4 1.7 1.3 5.7.1 2-.1 1-.2.8-.9 2.1-1.2 1.5-.7.6-.3.3-1.1 1.6-1.1.9-3.2-.5-.7-.1-.6.2-5.3 2.5-2.5.4h-1.1l-6.9.9-2.4-.1-1 .5-.4.5-.3 1.6.1 2.4-.4 1.3-.5 1-.7.8-3 2.7-.3.5-.6 1.1-.2.5-.1.5.1 1.4.1.7.4 1.2 1.5 3.2.1 1.4-.8 1.6-4.7 2.4-1.5 1-1.8 2.3-3.5 3.6-2.9 1.6-2 2.3v.5l.7 1.8.6 3.4.2 1.6-.1.8-.7.7-.7.3-1.5.4-1.1.6-.4.9-.2.9.1.9-.8.8-20.7 16.3-2.1 1.3-3.1 1.2-12.3 7.3-2 1.8-5.8 7.1-3.7 3.1-20.8 13.1-15.6 6.5-3 .3-.9-1.1-.4-1.5-.3-3.4-.6-1.7-1.2-5.1-.7-1.6-1.3-1.4-1.5-.9-1.6-.6-3.3-.3-1.6-.5-1.7-.8-1.8-.5-1.7.3-1.7 1.8-1.4 1.7-2.1 2.1-3 2.1-5.2 2.9-2.9.4-2-.6-3.5-3-1.6-.3-2.9 1.9-4.2 2.1-1.8.3-5.1.2-1.7.4-6.9 2.7-6.7 3.4-1.7.5-1.4.7-.9 1.4 2.4 22.1-1 4.2-7.9-9.6-5.5-3.8-5.7-2.7-1.7-.4-3.2-.3-2.2-1.4-2.5-2.5-8.9-11.9-1.5-3.3z"/><path d="m746.5 218.4v-1.5l142.5 2.1 1.6.2 3.5-.6 5.9.5 3.5-.7 3.2-1.4 3.1-3.9 3.2-.5 2.9-.7 1.1-3.1 1.4-1.2 3.3-1 3.7-.4 2.6.2 6 2.2 5.3 1h5.2l5.7-1.1 2.3-1.6 3.9-5.2 6.1-2.4 2.3-1.9 2.4-1.6 3.4-.3 1.6.1 1.6-.1 3.1-.6 1.2-.5 2-1.7 1.2-.4.8.2 2 .9.6.2 1.8-.7.6-.3 2-4.1 1.7-4.5.1-.8 2.4-.6 32.4 3 3 .7 3.1 1.9 2.5 2.4 2.7 2 3.6.2 6.2-2.4 3.1-.8 3.4.4 6.7 1.8 1.5 1 1.1 1.2 1.3.9 2 .4.6 1.9 1.5.9 1.9.8 1.8 1.5 1.1 1.9 2.5 10.7.5 4.5-.2 12.9 1.4 4.4 2.7 3.6 8.2 3.8 2.3 3.5 2.7 8.7 1.9 4 2.4 3.8 2.9 3.4 3.2 2.9 4.1 2.1 1.4 1.4-.4 2.3-1.5 1.6-2.1 1.2-1.3 1.4.6 2.1 1.2 8-5.9 7.1-7.9 6.7-5 7.2-.5 8.8-1.1 3.6-12.7 11-.7.9-.9.7-2.3.9-8.7.5-9.6-1.1-8.4 1.2-5.3 7.2 2 3.6 1 3.5-.6 3.5-3.3 3.7-12.6 7-3.7 3.9-6.1 13.6-5.8 8.7-.7 4 .8 4.4 1.7 5.3.8 4.2.7 12.4 1.1 1.1 2 .1 2.1.3 1.3 2.2-.2 1.7-2.5 3.2-.7 1.7.3 2.5.9 1.9.2 1.8-1.8 2.2-1.8 1.7-2.1 2.8-12.7-4.4-8.4-6.1-3.7-2.2-3.4-1.4-34.3-7.4-2.6-.3-6.6.4-32.2-1.3h-3.5l-1.4-.3-1.8-.8-1.7-1-1.9-.7-4.5.2-2.1-.4-1.9-.8-1.7-1.1-6.5-3.2-1.2-1.3-.8-1.6-3.2-10.4-.3-3.4-.8-1.4-2.8-1.9-2.4-2.5-1.4-.6-5.1.8h-1.5l-1.4-.3-1-.3-1.5-.7-3.2-1.9-2.8-2.1-1.3-.5-5 4.5-2 1.1-2.4.4-2-.2-5.2-1.6-4.3-.7-3.1.3-2-.6-1.6-1.2-.9-1.6-1.3-1.5-1.4-1.2-1.4-1.5-1.8-.9-2.3-.4-11.1 5.5-1.7.3-1.7-.3-1.6-.9-1.5-1.4-1.2-1.5-1.2-.8-.9.5-25.9 115.8-27 13.7-126.5 46.5-5.1-10.8-.6-1.7-2.7-13.8-2.6-5.5-2.1-3.1-1.5-1.6-6.3-5.3-1.4-1.7-1.1-1.8-2.6-8.9-.4-2.6.2-4.3-.2-2.7-.5-2.3-.9-1.7-8.9-13.4-.9-1.7-.5-1.6-.3-1.8v-4l.5-4.9-.7-7.7-1.3-5.8-.6-1.3-1.2-1.1-1.5-.5-1.6-.2-1.5-.4-.9-.9-.6-.9-.6-1.4v-1.5l.4-1.7 2.9-5.4 1.5-5.4 1.4-1.6 4.3-3.2 2.5-2.4 24.1-12.5 3-.5 1.9-.7 2.4-2.1 2-1.4 3.3-2.7 1.1-1.8.6-2.4-.3-2.4.8-5.5-17.4-18.4-.9-1.5.2-1 1.4-1.4 123.3-83.6 1.3-1.4.7-1.5.9-4.8-.1-.5-.2-.4-.3-.5-.1-.7.1-.9.4-1.8.1-1.1-.5-6.2.1-3.5.7-2.7v-.2l.2-.3 4.9-6.2 1.3-2.3 1.9-4.1.3-.9.4-.8.5-1 2.7-3 .4-.7 3.2-6.4 2.2-2.1.6-.9.2-.6.2-2.2.2-.6.2-.6.4-.7 2-2.4.3-.5.2-.6.3-1.7z"/><path d="m410.4 289.7 2.7-8.6.9-24.4 157.9.5-1.2-193.4-1.3-6.5 1.1-1.9.7-2 .3-2.1v-2.1l.3-2.8 1.1-2 1.3-1.8 1.1-2.4-.3-2.3-.8-2.2.3-1.5 45.8-1.7 4.4-1.6 2.2-.5 2.4.2 1.7 1 3.5 2.9 8.8 2.8 2.6.3 5.8-.8 15.1.5 13-1.1 13 .8 10.1-.8 3.1.1 7 1.1 7.4.3 3.4-.6 6.6-2.2 3.4-.5 1.8-.5 3.5-1.9 1.7-.2 2.1.8 5.6 3.4 3.1.7 9.5-2.2 6.6.4 9.5 3.2 3 .9 4-.9 2.7 2 4.1 1.5 23.2 3.5 3.5-.7 2.4-1.5 1.9-1.6 2.2-.9 2.9.8 3.9 1.7 3.4.8 1.5-2.1 2.4 1 2.2.1 1.9-.7 1.8-1.6 5.1 1.8 3 .5 1.9-.5 2.3-1.1 2.8.6 4.8 2.1 7.3-.9 1.6-.7 3.5-3.3 1.9-1.4 1.5-.6 5.3.2 4.7 1 2.4 1.8 1.2.5h1.6l2.4-1 1.2-.3 1.9.8 2.7 1.9 2.6 2.3 1.6 2.1.7 2.5-.7 5.1.1 4.3v10.2l-.6 5.6-1.7 4.1-6.1 3.3-1.1.8-3.1 3.4-.9.7-1.5.6-.1 1.4 1 3.2-.4 1.8-.9 1.2-1.1 1-1.2 1.4-1.1 2-1.2 2.7-2 .6-.7.7 2.2 3.1 1.4 3.1.9 1.3.7 2-.3 2.7-1.8 6.3-1.3 2.6-1.7 2.3-2.2 1.2 1.3 3-.5 3-1.2 3.2-.6 3.6 1 7.8-.6 4.1-2.9 3.4 2.8 5 3.2 4.4 1.1-1.3 2 1.5 1.2 2 .2 2.4-1 2.4 3.5 1.8 3.1 8.3 2.7 1.7-.1 1.5.2 8.1-.1 1.4.1 1.3.5 1.1 1.5 2.1-.4.9-1.1.6-1.6 3.5-2.4 1.6-2.9 1-2.4.3-1.4 1.2-.7 2.4-1.2 2.1-3.3.3 1.8 1.5 2 .9 1.7 1.1.5 2.4h.2l-142.5-2.1v1.5l-.3 1.7-.2.6-.3.5-2 2.4-.4.7-.2.6-.2.6-.2 2.2-.2.6-.6.9-2.2 2.1-3.2 6.4-.4.7-2.7 3-.5 1-.4.8-.3.9-1.9 4.1-1.3 2.3-4.9 6.2-.2.3v.2l-.7 2.7-.1 3.5.5 6.2-.1 1.1-.4 1.8-.1.9.1.7.3.5.2.4.1.5-.9 4.8-.7 1.5-1.3 1.4-123.3 83.6-1.4 1.4-.2 1 .9 1.5 17.4 18.4-133-.3 1.1-.9 1.1-1.6.3-.3.7-.6 1.2-1.5.9-2.1.2-.8.1-1-.1-2-1.3-5.7.4-1.7.3-.9 1-.8.6-.6.5-.7.3-.8.3-1.4.5-4.5 3.6-12.6.7-1.7 2-3.5.3-.6.5-2 .4-.8.6-1 .7-1 1.4-2 .5-1.3 1.9-7 .3-.5.2-.4.8-1 2.6-2 .4-.7.3-1.2.9-4 1.7-4.7.3-2.2.4-11.8-.5-3.8-1.7-6.8-.7-.5-1.5.1-89.4 30.9-2.5.4-1.4-.3-.8-1.6-1.5-5-.7-1.6-.9-1.5-2.7-3.7-.2-2.4.7-3.3 2.5-6.6 1.9-3.5z"/></g><path d="m605 545.2.6 1.7 5.1 10.8-14.9-.6-5.6-.8-10.1-3.6-9.9-4.7-26.3-20.3-2.3-.5h-2l-7 1.6-30.7 1.8-3.4.9-1.8.8-1.6 1.1-2.3 2.8-1.4.9-1.6-.5-3.6-2.5h-1.8l-1.5.9-2.1 3-1.6 1.2-2.3.6-1.8-.4-1.6-1.2-.9-1.6-1.4-1.7-1.9-.7-2.4-.4-1.9.2-1.7.8-1.3 1.1-1.9.8-4-.9-1 .8.1 1.3 2.1 3.3.5 1.6-.5 1.4-1.2 1.1-1.4 1.2-1.4 1.5-5 7.4-1.6 1.7-1.9 1.8-8.7 5.1-1.7 1.5-1.1 1.6-1.5 5.3-.6 3.4v1.7l.4 3.3-.4 1.7-6.9 11.8-.8.9-1.4.9-6.3 3-.9.7-.2.5-.1.8.7 1.3 1 1.3.4 1.6-.4 1.7-.8 1.7-2.4 3.2-1.4 1.4-.9 1.6-.4 1.6-.1 1.7-.4 1.4-.9 1.4-1.9.8-.7 1.3-.4 1.6-.6 1.5-1.3 1.4-1.9-1.8-2-1.1-10.1-.2-4-.8-2.8-.3-4.3.3-2.6.7-2.3 1-5.1 3.2-14.7 15.2-2.8-1.3-8-1.3-1-.3-1.4-.6-1.5-1-10.6-9.7-1.5-1.9-.2-1.5.4-1.7 4.4-8.3 1.2-3.5.3-1.8.1-1.8-.3-1.8-2.8-6.7-.3-.9.1-1.2 1.3-3 .1-1.7-.7-2-1.4-2.2-5.9-4.9-2.2-1.1-1.7-.4-3.3.2-6.5-.4-1.4-.2-1-.1-4.6.4-1.7-.1-1.7-.6-1.4-1.2-.9-1.9-1.9-1.8-.6-.3-1.6-1.3-2.3-1.4-3.6-1.6-7-9.5-11.2-35.7 1-4.2-2.4-22.1.9-1.4 1.4-.7 1.7-.5 6.7-3.4 6.9-2.7 1.7-.4 5.1-.2 1.8-.3 4.2-2.1 2.9-1.9 1.6.3 3.5 3 2 .6 2.9-.4 5.2-2.9 3-2.1 2.1-2.1 1.4-1.7 1.7-1.8 1.7-.3 1.8.5 1.7.8 1.6.5 3.3.3 1.6.6 1.5.9 1.3 1.4.7 1.6 1.2 5.1.6 1.7.3 3.4.4 1.5.9 1.1 3-.3 15.6-6.5 20.8-13.1 3.7-3.1 5.8-7.1 2-1.8 12.3-7.3 3.1-1.2 2.1-1.3 20.7-16.3.8-.8-.1-.9.2-.9.4-.9 1.1-.6 1.5-.4.7-.3.7-.7.1-.8-.2-1.6-.6-3.4-.7-1.8v-.5l2-2.3 2.9-1.6 3.5-3.6 1.8-2.3 1.5-1 4.7-2.4.8-1.6-.1-1.4-1.5-3.2-.4-1.2-.1-.7-.1-1.4.1-.5.2-.5.6-1.1.3-.5 3-2.7.7-.8.5-1 .4-1.3-.1-2.4.3-1.6.4-.5 1-.5 2.4.1 6.9-.9h1.1l2.5-.4 5.3-2.5.6-.2.7.1 3.2.5 133 .3-.8 5.5.3 2.4-.6 2.4-1.1 1.8-3.3 2.7-2 1.4-2.4 2.1-1.9.7-3 .5-24.1 12.5-2.5 2.4-4.3 3.2-1.4 1.6-1.5 5.4-2.9 5.4-.4 1.7v1.5l.6 1.4.6.9.9.9 1.5.4 1.6.2 1.5.5 1.2 1.1.6 1.3 1.3 5.8.7 7.7-.5 4.9v4l.3 1.8.5 1.6.9 1.7 8.9 13.4.9 1.7.5 2.3.2 2.7-.2 4.3.4 2.6 2.6 8.9 1.1 1.8 1.4 1.7 6.3 5.3 1.5 1.6 2.1 3.1 2.6 5.5z" fill="#c12737"/><g fill="#fefee4"><path d="m762.6 747.9.9 2.6-.6 3.7-2.2-2.2-1.9-.5-.6 2.3 1.4 18.5 1.5 6.9 3.6 5.5 6.6 3.1-.7 2.9-3.1 4.9-1.2 2.6-.4 2.5 1.3 7.1-1.2 4.9-2.3 5.9-1.3 5.6 2 3.7-68.1 14.6-5.3-.5-5.2-3.7-5.8-7.2-3.1-2.3-1.8-1-5.4 2.7-7.2 2.3-6.2 1.2-3.8 1.5-5.8 5.4-2.9 1.6-2.8-.2-3.1-1.6-5.8-4.6-1.3-1.5-.7-1.4-1.1-1.4-2.3-1.2-8.7-2.6-6.3-.2-.4.1-1.4 3.4 3.7 10 .6 3.7-1.2 9.5.1 3 1.3 3.7 4.3 6.9 1.6 3.8 1 4.4v3.5l-.9 3.6-1.6 4.4-12.4 20.3-.4 1.3-12-15.5-13.7-14.1-13.5-11-9.9-11.2-3.3-2.9-.8-1.5-3.3-11.9-.8-1.7-1.4-1.6-14.1-8.6-1.5-1.4-.9-1.6-.4-1.7-.4-1.7-.5-1.7-.9-1.7-1.3-1.6-1.8-1.4-1.9-1-2.5-.7-74.2 9.7-6.9-11-2.5-2.9-.8-.5-.7-.6-.6-.7-4.6-6.8-1.1-2.5-3.2-11.8-.3-.8-.6-.7-3.2-2.3-1.5-1.6-.9-1.9-.5-2.4v-1.9l.2-1.9 2.2-5.6.2-1.7-.5-1.7-1.8-1.2-3.5-1.2-3.5-2.9-7.2-4h-1.6l-1.6.9-1.6 1.2-1.6.9-1.8.3h-1.9l-12.1-3h-3.4l-1.7-.8-2-1.8-1.8-.9-3.9-2.7-5.4-1.5-5.5-2.9-8.5-2.8-3.5-.6-5.7-.1-1.5-.2-1.6-.7-1.6-1.1-1.5-1.6-5.8-6.9-.9-1.7-2.1-5.4-1-1.7-2.3-3.3-2.5-2.5-.2-1.5 1.6-1.7 1.4-1.2 1-1.5.1-1.7.4-1.8 1.7-2.1 1.7-1.1 1.7-.4h1.6l1.6-.3 1.6-.7 1.4-2.3 1.5-3.5 1-5.4.3-3-.2-2.4-1.9-8.8-.3-3.4.1-3.3.6-1.9 1-1.9 12-11.6 2.4-4.9 1-6.9 14.7-15.2 5.1-3.2 2.3-1 2.6-.7 4.3-.3 2.8.3 4 .8 10.1.2 2 1.1 1.9 1.8 1.3-1.4.6-1.5.4-1.6.7-1.3 1.9-.8.9-1.4.4-1.4.1-1.7.4-1.6.9-1.6 1.4-1.4 2.4-3.2.8-1.7.4-1.7-.4-1.6-1-1.3-.7-1.3.1-.8.2-.5.9-.7 6.3-3 1.4-.9.8-.9 6.9-11.8.4-1.7-.4-3.3v-1.7l.6-3.4 1.5-5.3 1.1-1.6 1.7-1.5 8.7-5.1 1.9-1.8 1.6-1.7 5-7.4 1.4-1.5 1.4-1.2 1.2-1.1.5-1.4-.5-1.6-2.1-3.3-.1-1.3 1-.8 4 .9 1.9-.8 1.3-1.1 1.7-.8 1.9-.2 2.4.4 1.9.7 1.4 1.7.9 1.6 1.6 1.2 1.8.4 2.3-.6 1.6-1.2 2.1-3 1.5-.9h1.8l3.6 2.5 1.6.5 1.4-.9 2.3-2.8 1.6-1.1 1.8-.8 3.4-.9 30.7-1.8 7-1.6h2l2.3.5 26.3 20.3 9.9 4.7 10.1 3.6 5.6.8 14.9.6-3.2 5.1-4.6 5.3-1.4 2.3-.8 2-1.1 9.8.1 1.7.7 2.9.4 4.2.4 1.9.7 1.7.9 1.6 3.3 3.5.5.6.5.9 1 3.4.5 2.2.3 3.4-.3 2.9-.6 3.2.5 3 1.2 1.6 1.6.6 3.4.9 1.8.1 1.7-.5 3.4-1.5 5.1-1.2 11.8-7.4 1.8-.7 1.6-.5 1.7.3.5.5.1.9-.4 1.5-.1 2.7.5 3.7 1.6 5.2.9 1.8 6.1 8.5 2.7 2.9 8.4 5.9 6.2 6 1.4.9 6.6 2.9 1.5.9 3.5 3.5 6.1 7.6 1 1.8.1 1v3.2l.4 2 2.5 8.1.5 6.3-.3 4.2-.5 1.4-.1.4-.9 1.5-1 1.3-1.2 1.1-.6.7-.4.7-.3.9.1 1.7.5 2 1.6 3.8 1.7 1.5 1.8 1 1.7.7 1.5 1.1 11.4 15.5 2.3 2.5 10.6 8.9 1.7.9 21.1 7.3 1.7.1 12-1.1 1.8.1 1.5.4z"/><path d="m580.3 879.8 13.7 14.1 12 15.5-1.7 6.5.9 4.1 2.9-.5 7-4.9 4.9-1.5 3.4 1.1 2.8 3.2 5.9 8.6 13 13.8 2.6 4v3.7l-4.3 2.6-3.9.4-2.4-.2-1.8 1.1-2.2 4.2-.9 3-.2 11.9-.2 1 .3.6 1.4 1.5 1.4 1 9.7 4.1 3.6 2.1 6.9 5.7 6.2 2.9 8.2 2.3 6.6 3.1 1.8 5.5-2.3 3.7-7.4 5.5-2.3 4.2-9.8 23.1-.4 3.9 1.7 3.6 3.5 2.1 4.1 1.3 3.2 1.8 1.3 3.6-1.4 3.9-3 3.6-3.7 2.8-3.5 1.3-3.2-.1-9.8-2.8-3.5-.4-9.3 1.2-3.7-1.3-2.9-3.1-13.6-22-6.4-4.8-8.6-1.3-4.7 3.3-3.2 5.2-3.8 5-6.5 2.1-7.1 1.4-5.5 3.4-5.1 4.3-5.9 3.7-4.4 3.8-2.9 5.4-11.7 31.7-14.8-12.7-6-7.9-1.6-3-1.1-3.1-.7-3.4-.2-4-1-3.2-2.3-3.5-5-5.6-20-18.4-29.3-19.1-1.8-2.9.2-2.6 1-3 .6-3.9-.7-3.3-1.6-3.2-3.5-4.7-2.2-1.6-6.1-3.4-1.2-1.4-1.2-1.8-7-7-3-6.3-2-3-2.6-1.3-1.5-1-19-19.8-21.2-17.9-8.5-4.4-26.3-20.9-3.1-4.2-.7-.4.2-.1 50.8-14.8h3.4l1.6-.6 1.6-2.6.7-2 1.4-7.3.6-1.8 1.3-1.8 1.7-1.8 3.1-2 2.2-.7 1.8-.5 1.1-.8.2-1.3-.4-1.2-2.4-3.8-.4-1.7.3-1.8 1.1-2.1 2.2-2.8 1.8-4.2 5.8-5.1 24.5-12.1 74.2-9.7 2.5.7 1.9 1 1.8 1.4 1.3 1.6.9 1.7.5 1.7.4 1.7.4 1.7.9 1.6 1.5 1.4 14.1 8.6 1.4 1.6.8 1.7 3.3 11.9.8 1.5 3.3 2.9 9.9 11.2 13.5 11z"/><path d="m163.4 543.9 230.3 338.7h3.4l1.6-.6 1.6-2.6.7-2 1.4-7.3.6-1.8 1.3-1.8 1.7-1.8 3.1-2 2.2-.7 1.8-.5 1.1-.8.2-1.3-.4-1.2-2.4-3.8-.4-1.7.3-1.8 1.1-2.1 2.2-2.8 1.8-4.2 5.8-5.1 24.5-12.1-6.9-11-2.5-2.9-.8-.5-.7-.6-.6-.7-4.6-6.8-1.1-2.5-3.2-11.8-.3-.8-.6-.7-3.2-2.3-1.5-1.6-.9-1.9-.5-2.4v-1.9l.2-1.9 2.2-5.6.2-1.7-.5-1.7-1.8-1.2-3.5-1.2-3.5-2.9-7.2-4h-1.6l-1.6.9-1.6 1.2-1.6.9-1.8.3h-1.9l-12.1-3h-3.4l-1.7-.8-2-1.8-1.8-.9-3.9-2.7-5.4-1.5-5.5-2.9-8.5-2.8-3.5-.6-5.7-.1-1.5-.2-1.6-.7-1.6-1.1-1.5-1.6-5.8-6.9-.9-1.7-2.1-5.4-1-1.7-2.3-3.3-2.5-2.5-.2-1.5 1.6-1.7 1.4-1.2 1-1.5.1-1.7.4-1.8 1.7-2.1 1.7-1.1 1.7-.4h1.6l1.6-.3 1.6-.7 1.4-2.3 1.5-3.5 1-5.4.3-3-.2-2.4-1.9-8.8-.3-3.4.1-3.3.6-1.9 1-1.9 12-11.6 2.4-4.9 1-6.9-2.8-1.3-8-1.3-1-.3-1.4-.6-1.5-1-10.6-9.7-1.5-1.9-.2-1.5.4-1.7 4.4-8.3 1.2-3.5.3-1.8.1-1.8-.3-1.8-2.8-6.7-.3-.9.1-1.2 1.3-3 .1-1.7-.7-2-1.4-2.2-5.9-4.9-2.2-1.1-1.7-.4-3.3.2-6.5-.4-1.4-.2-1-.1-4.6.4-1.7-.1-1.7-.6-1.4-1.2-.9-1.9-1.9-1.8-.6-.3-1.6-1.3-2.3-1.4-3.6-1.6-7-9.5-11.2-35.7-7.9-9.6-5.5-3.8-5.7-2.7-1.7-.4-3.2-.3-2.2-1.4-2.5-2.5-8.9-11.9-1.5-3.3-3.8-14.4-2.4-2.2.1 10.3-2.5 7.1-4.2 6.7-15.3 16.8-3.1 6.2-10.2 9.1-1.4 4.4 1.4 2.9 2 2.7.4 4-2.4-4.6-2 .9-.2 1.5.4 1.8-.5 1.8-.9.6-2.9 1-1 .6-1.2 1.4-.3.6.3 1 .2 2.3-1 2.9-4.1 4.4-.9 3.3-.5 10.4-.7 3.2h-1.1l-1.2-2.4 1.2-6.1v-3.4l-2-3.1-6.2-5.8-1.3-3.4-.5-2.6-1.3-2.9-1.7-2.4-4.1-2-1.7-.1-1.3 1.1v2l1.2 1.8 1.7 1.4 1.7.8v1.1l-3-.1-3-.7-2.3.2-.9 2.4-.5 3.4-.9 3.1-.1 2.9 1.5 2.9-2.8-.9-.9-2.4-.3-2.5-1.4-1.1-2.3-.9-1.7-2-1-2.5-.7-7.1-1.5-5.9-2.6-4.2-3.7.1-.6-1.1-.3-.9.2-1 .7-1.6-5.5-1-1.9-1.5 1.6-3.3-1.3-1.3-2.3 3.6 4 12.6 5.2 6.9 2.3 9 3.7 6.2 4.5 10.3 2.6 4.4.9 2.1 1.5 6.1h1.2l1.7-1.1 1.3 2.9 1.1 4.2 1.1 2.8 3 .7 5-3.4 2 .9-.8.3-1.4 1.3-1.4 1.9-1 2.4 2.4 1-2.6.9-2.4-1.3-4.5-4.2 17 21.9 2.9 7.5 1.3 10.5.5 1.9 1.2.1.5-1.5 1-4.7-2.1-5.1 3.2 2.5 2.9 4 .8 4-3.3 2.5.4 1.1.3.5.6.6-1.2 3.1.4 3.5 1.5 2.9 2.1 1.1 2.6 1 6 4.5 2.5 1.5 2.2.3.8-.4.3-.7 1.7-.7.9-.6.9-.3.6 1 1.2 1.1.3.3-.4 1.4-.3 3.3.5 3.6 1.9 2.3 2.9.4 8.2-1.6 1.8-1.1 1.4-2.5 1.7-2.5 2.8-.9 1.1.6 1.4 2.4 1.6.5 1.8-.5 1.7-1.2 1.3-1.7.4-1.9-1.2-8.9.1-3.5 1.6 1 .6.7-.1.8-1 1.1 3.2 5.9.5 3-2.7 5-.8 3.2-1.3 1.7-1.4.5-4.1.4-1.5.4v1l1.6 1.4.7 2.4-.3 2.3-1.5 1.1-2.9.3-2.5 1-1.4 1.8.3 2.7.8.3 1.7.2 1.6.4.7.9-.2 3.1.2 1.6 1.2 2.5.2 2.7.9 1.3 1.4.7 1.1-.1 1.1-.4 1.1-.2 5.6-.4 4.6-1.4 4-2.8 4.2-5.8.8-.5.6-.9.2-1.8-.7-2.5.1-1.1 1.2-.5 2.2-.1.7.1 3.4 2 1.4.4-.7 2.8.2 3.8 1.6 6.4 2 3.4 2.7 2 7.1 2.8-5.2 1.1-14.1-1.9-5.4.8 1.1 2 .1 2.8-1.2 5.8-2.6-1.4-.9-2.5.2-2.9 1-2.7-4.2.4-4.6 1.4-4 2.3-2.6 2.9-.3-1.5-.9-1.4-1.3-.6-1.6.6-.4 1.3 1.5 2.3-.5 1.8-2 .9-1-2.6-1.7-21.3-5-1.6-1.5-.7-8.2-6.7-1.1-1.1-2.3-1.5-5.4-6.7-1-1.7-1-3.3-4-4.2-1.7-5.4-2.2-2-2.7-1.2-2.6.3-3.3-3.8-2.1-3-1.8-5.1-2.3-4.5.9 3.5 1.4 3.8 1.8 4.3 1.6 2.9 21.5 30 9.5 9.9 3.9 5.4 2.9 7.1.1 1.7-.1 5.3.5 2 1.5 3.8.3 1.9v7.1l-.2 1.4-.7 3-.2 2 .5 5.1 1.4 3.4 2.6.9 3.7-2.5 3.9 2.9.4 1.9-1.9 3.4h1.8l1.6.4 1.3.8 1.2 1.2v-2l.3-1.9 1-1.4 1.6-.5.4-.9.5-1.9.8-2 1.3-1.2 3 1.2 4.3 8 3.2 2.6-.6-3.7v-1.7l.6-1.6.9.8 2.6 1.6 1.8-1.7 3.1 3.3 5.6 9.6.3 1.1-1.6 1.1-2.1 3.1 1 1.9 4.2 2.9 1.9 2.2 1.6-.1 1.5 2.4 1.1 3.4.5 3.1-.6.6-2.4.9-.6.9-.4 1.3-.9-1.4-.9-2.1-.1-.8-3.5-2.4-.2-1.2v-3l-.4-1-1-.3-3.7-.3-1-.4-1.1-.9-2.1-2.2 3.8-3.1.5-3.5-2.4-2.9-4.8-1.2h-8.8l.3.7-.9 1.4-1.1.7-.6-1 .1-1.2.5-.8.7-.5 1-.3-1.3-3.7h-1l-1.4 3.7-1.2.9-2.2-.9.4-.4.3-.1.2-.1.4-.7-3.5.3-3.9-1.2-3.1-2.4-1.3-3.1-.8-.7-1.2 1.1-.5 1.7 1.9.8.2.7 1.5 1.7 1.6 1.5.8.2 1.1 1.8 7.2 7.1 2.3 6.5 2.2 3 3.7 1-.7 1.7-.5.6 2.5 2 5.2 6.2 4.5 2.6 17.1 16.7 1.2 2.5 1 15.6 1.4 3.9v1l1.7 4.4 3.9 5.1 4.6 4.4 3.8 2.6-1.5-2.5-3.8-4.5-1.6-2.5 3 2 7.1 8.5 2.8 1.2 1.5-2.2-.6-2.5-2.1-4.1.3-1.2.7-.6 1.2-.1 1.4.3 1.1.7-.1 1.1-.2 1.4.3 1.4h.7l1.9.9 1.3 1.1-.9.5-.6.4-2 1.8-.4.6.4 2 1.2 2 1.5 1.5 1.7 1 4-1.1 3.9-3.8 4.1-3.1 4.4.9.2-.2 2.5-1.4.7-.1.3-1.7h.9l1.7 1.2.3 1.3 3.9 8 3-.4 4.7.8 4.4 1.5 2 1.7-.5 1.4-1.7.2-2-.1-1.6.8-.4 1.7 1.1 3.6-.7 1.7 2.2 1.4 2.4 1.1.4-1.5.9-1.7 1.1-1.6 1.2-1.3.2-.8-.2-1.2-.1-.9.6-.5 1.3.2 2.1.8 1.3.2 1.3.7 2 3.2 1.4.8.7.6.8 1.3 1.4 1.3 2.4.4-2.3-8.8-1.2-3h1.2l2.2 2.8 4.2 1.6 3.3 1.7-.3 3.2 1.3.5 3.3 2-1 2.1-1.5.8-4.5.5-1.9-.4-3.6.1-3.8.5-2.4 1-1 1.3-1.3 3.1-1.3 1.4-2 1.3-1.5.6-.6-.5.5-2.5-1.7-.1-1.6.4-1.3.8-1.2 1.3-.6-2-.6-6.3-.8.1-.1.1v.3l-.2.7-1.6-1.1-1-.1-.6.8-.4 1.6h-1.1l-.7-3.7-2.5-3.9-.3-.1-1-.8-6.2-2.1-2.6 1.1-1.5-1.8-.5-3.2.1-3.1-.4.8-.5.7-.7.5-.9.3-.5-2.1.5-1.9.7-1.9.5-2.4-3.3 3.3-2.1 2.8-2.4 1.5-3.9-.5-3.7-1.9-4.9-5.2-3.1-2.3 3.7 6.5 38.5 38.3 8.4 5.3.2-.1 50.8-14.8-230.3-338.7-.6-1.9v-1.9l.4-1.3 1.9-2.7 2-1.8 3.7-2.3 1.5-1.8.9 1.7v1.4l-.7 1-1.5.6v1.2l6.2 1.4 1.4 5.9-.7 7.2.2 5.4-3 2.1-2.5 1.1-2.3-.2-2.7-1.8-1.5-2.2-.1-2.2.5-2.3v-2.7l-.8-1.4-2.3-2.5"/><path d="m1112.9 542.2-7 15.1-.9 4.2v4.2l1.2 4.4.7 5.2-1.9 3.7-3.1 3.3-2.6 4.2-.9 3.9-.9 7.4-1.8 3.7v2.5l4.9 13.4 1.8 3.7.6 2-.2 1.5-.9 2.9v1.5l1.2 2.1 3.7 3.6 1.3 2.2.3 1.5-.2 5.4-.7 3.8-.6 1.7-1 1.8-1.2 1.4-1.4 1.1-1.2 1.2-.5 1.9 1 3.3 2.6 2.6 6 4 .9 3.5-1.2 2-2.2 1.4-1.9 1.9-.7 1.6-.3 4.2-2.1 4.9 2.2 2.2 1.9 3.1.1 2.6-5.6 1.1-1.1 1.5-.7 1.9-1.1 1.8-1.7 1.2-1.6.8-3.5 1.2-1.5 1.4 1.1 1.2 3.3 1.9 2.1 7 2.9.9 3.6.6 1.3 1.1-4 2.4-2.1 2.3-1.1 3.8-.5 13.6-1 4.4-.1 1.5 1.3 7.5-1.3 2.3-4.5 2.5-20.4 7.9-1.2 1.3-.8 1.2-.4 1.6v1.9l-.9 1.6.2 1.1.8.9 1.4 1 .9 1.5-.2 1.7-1.1 3.4-1 9-.8 2.4-1.2 1.2-2.9 1-1 .9-.1 1.7 1 3v1.3l-2.3 2.5-5.9 2.1-2.3 1.8.5 5.9 13 11 1.3 5.4-.7-.4-8.2 1.9-1.7.7-1.6 1.1-3.3 2.8-1.4 1.5-.7 1.7v4.5l-1.2 1.5-1.6 1.3-1.5 1.5-1.8 5.3-1.1 1.3-1.5.2-1.7-.7-2.7-1.5-1.7-.2-1.1.2-7.8 2.5h-1.3l-1.2-1-.5-3.2-1.5-1.1h-1.7l-1.6.7-3 1.8-3.6.7-4.2-.2-3.9-1.3-2.8-2.4.2-.9.1-6.6 1.3-1.5 3.5-1.8 2.5-5.2 2-1.2.7-1.1-2.3-3.2-1.8-1.3-1.8-.8-1.3-1.3-.6-4.8-1.1-1.7-3.2-3.1-2.1-3.2-3.9-8-1.5-7.1-1.5-3.5-2.1-3.3-2.4-2.3-1.8-1.3-.5-.2-.4 1-3.6 5.3-1.8 3.4-.4 1.9-.3 3.4-.7 1.8-1.3 1.9-13.1 12.6-1.1 1.8-.5 3.6-.8 1.5-1.7 1.2-4.1 1.3-2 1.1-1.7 1.5-2.5 3.1-1.5 1.5-5.6 3.8-1.7 1.6-.9 1.7-.5 1.6-.7 1.4-1.8 1-.9-.3-1.5-2.1-1.1-.3-2.4.8-.9-.1-3.7-.6-3.3.9-3-.4-29.9-11.1-1.7-.4-2 .3-3.3 1.9-1.8.4-3.6-.9-11.1-5-4.2-.7-2.3.6-5 5.1-2.3.1-.5-1 .8-1.6 2-1.6.8-1.2.7-1.4.4-1.6.2-1.4.3-1.8 1-1.4 1.4-1.5-.4-1.9-.8-.2h-1.1l-1.2-1.3-.5-1.3-.8-4.7-1.6-1.9-3.3-5.3-1.4-1.4-4.2 2.1-2.4.1-.8-3.1-.1-1.8-.7-1.1-2.2-2.3-.4-1.1.3-1.1.7-1.3.3-.8.7-1.1.1-1-3.2-.8-.4-.9.2-1v-.8l.3-.1-.7-3.9-.7-1-2.7-2.7-1-1.2-1.6-3.7-3.7-12.4-2-4.2-2.9-2-7.3-2.3-.7-.5.4-1.2 2.3-6.3 1.2-4.7 2.5-5.3-.1-1.6-.6-3.3.4-1.8 12.7-26.1 3-3.9.9-1.4.6-1.7 1.4-1.8 1.1-2 .7-2 .4-5 .5-1.6 1.5-2.3 1.6-1.8 1.7-1.1 1.4-1.3 1.2-1.9 1-2.9 1.8-1.6 5-2.7 1.3-.1h.9l1.4.2 1.4-.1 1.7-.5 1.7-1 1.6-1.5 1.5-1.7 2.5-3.2 1.4-1.4 1.6-.9 3-1.2 1-1.2 2.9-5.1 1.8-1.5 1.8-1.1 1.6-.6 1.4-2.1.7-3.4v-7l-.5-6.5-1.7-6.5-.1-1.1 1.5-1.2 12.5 6.1 3 2.5 1.3-.5 1.1-.9 27.8-33.8 21.3-31.6.3-2.8-1.2-4.1-42.7-84-1.6-1.4-1.7-.8-1.7-.3-1.6-.7-1.4-1.1-.9-2.2-.4-1.9-.3-3.7-1.6-6.9-.9-1.4-1-1.2-.7-1.2 1.1-2 4.2-5.9 4.4-8.5.4-8.8 32.2 1.3 6.6-.4 2.6.3 34.3 7.4 3.4 1.4 3.7 2.2 8.4 6.1 12.7 4.4-7.7 10.3-1.9 4.3-.1 4.8 7.9 9.5 1 .7 1.1-.2 2.3-.8.7-.8.5-1.2.6-1.1 1.4-.5 6.1.7 1.7.7 1.3 1.1 1.3 1.7 6.2-1.7 6.9 1.1 6.3 3.1 4.4 4.3 2.9 5.9 2.1 6.9 1.3 7 .3 6.4 2.9-1.5 2.8-1h2.9l3.2 1.3 2.8.7 2.6-.9 2.6-1.3 3-.5 4.8 1.4 6.5 2.9 5.8 3.6 3.7 5.1 6.9 4.7 2.1 2.3 4 8.2 1.6 5.2z"/><path d="m815.4 745.2-2.3 6.3-.4 1.2-11.3-8.3-7.3-3-8.5.2-1.8.7-8.4 5.6-1.1 1-.8 1.1-1 2.2-.4 1.5-.1 1.9-.7 1.7-2.2 1.2-3.1-.9-3.1-3.4.6-3.7-.9-2.6-1.2-.5-1.5-.4-1.8-.1-12 1.1-1.7-.1-21.1-7.3-1.7-.9-10.6-8.9-2.3-2.5-11.4-15.5-1.5-1.1-1.7-.7-1.8-1-1.7-1.5-1.6-3.8-.5-2-.1-1.7.3-.9.4-.7.6-.7 1.2-1.1 1-1.3.9-1.5.1-.4.5-1.4.3-4.2-.5-6.3-2.5-8.1-.4-2v-3.2l-.1-1-1-1.8-6.1-7.6-3.5-3.5-1.5-.9-6.6-2.9-1.4-.9-6.2-6-8.4-5.9-2.7-2.9-6.1-8.5-.9-1.8-1.6-5.2-.5-3.7.1-2.7.4-1.5-.1-.9-.5-.5-1.7-.3-1.6.5-1.8.7-11.8 7.4-5.1 1.2-3.4 1.5-1.7.5-1.8-.1-3.4-.9-1.6-.6-1.2-1.6-.5-3 .6-3.2.3-2.9-.3-3.4-.5-2.2-1-3.4-.5-.9-.5-.6-3.3-3.5-.9-1.6-.7-1.7-.4-1.9-.4-4.2-.7-2.9-.1-1.7 1.1-9.8.8-2 1.4-2.3 4.6-5.3 3.2-5.1 126.5-46.5 27-13.7 25.9-115.8.9-.5 1.2.8 1.2 1.5 1.5 1.4 1.6.9 1.7.3 1.7-.3 11.1-5.5 2.3.4 1.8.9 1.4 1.5 1.4 1.2 1.3 1.5.9 1.6 1.6 1.2 2 .6 3.1-.3 4.3.7 5.2 1.6 2 .2 2.4-.4 2-1.1 5-4.5 1.3.5 2.8 2.1 3.2 1.9 1.5.7 1 .3 1.4.3h1.5l5.1-.8 1.4.6 2.4 2.5 2.8 1.9.8 1.4.3 3.4 3.2 10.4.8 1.6 1.2 1.3 6.5 3.2 1.7 1.1 1.9.8 2.1.4 4.5-.2 1.9.7 1.7 1 1.8.8 1.4.3h3.5l-.4 8.8-4.4 8.5-4.2 5.9-1.1 2 .7 1.2 1 1.2.9 1.4 1.6 6.9.3 3.7.4 1.9.9 2.2 1.4 1.1 1.6.7 1.7.3 1.7.8 1.6 1.4 42.7 84 1.2 4.1-.3 2.8-21.3 31.6-27.8 33.8-1.1.9-1.3.5-3-2.5-12.5-6.1-1.5 1.2.1 1.1 1.7 6.5.5 6.5v7l-.7 3.4-1.4 2.1-1.6.6-1.8 1.1-1.8 1.5-2.9 5.1-1 1.2-3 1.2-1.6.9-1.4 1.4-2.5 3.2-1.5 1.7-1.6 1.5-1.7 1-1.7.5-1.4.1-1.4-.2h-.9l-1.3.1-5 2.7-1.8 1.6-1 2.9-1.2 1.9-1.4 1.3-1.7 1.1-1.6 1.8-1.5 2.3-.5 1.6-.4 5-.7 2-1.1 2-1.4 1.8-.6 1.7-.9 1.4-3 3.9-12.7 26.1-.4 1.8.6 3.3.1 1.6-2.5 5.3z"/></g></g><g clip-path="url(#a)" fill="none" stroke="#808080" stroke-linecap="round" stroke-width="3"><path d="m614.2 389.1-.8 5.5.3 2.4-.6 2.4-1.1 1.8-3.3 2.7-2 1.4-2.4 2.1-1.9.7-3 .5-24.1 12.5-2.5 2.4-4.3 3.2-1.4 1.6-1.5 5.4-2.9 5.4-.4 1.7v1.5l.6 1.4.6.9.9.9 1.5.4 1.6.2 1.5.5 1.2 1.1.6 1.3 1.3 5.8.7 7.7-.5 4.9v4l.3 1.8.5 1.6.9 1.7 8.9 13.4.9 1.7.5 2.3.2 2.7-.2 4.3.4 2.6 2.6 8.9 1.1 1.8 1.4 1.7 6.3 5.3 1.5 1.6 2.1 3.1 2.6 5.5 2.7 13.8.6 1.7 5.1 10.8"/><path d="m889 219-142.5-2.1v1.5l-.3 1.7-.2.6-.3.5-2 2.4-.4.7-.2.6-.2.6-.2 2.2-.2.6-.6.9-2.2 2.1-3.2 6.4-.4.7-2.7 3-.5 1-.4.8-.3.9-1.9 4.1-1.3 2.3-4.9 6.2-.2.3v.2l-.7 2.7-.1 3.5.5 6.2-.1 1.1-.4 1.8-.1.9.1.7.3.5.2.4.1.5-.9 4.8-.7 1.5-1.3 1.4-123.3 83.6-1.4 1.4-.2 1 .9 1.5 17.4 18.4"/><path d="m481.2 388.8 133 .3"/><path d="m481.2 388.8-3.2-.5-.7-.1-.6.2-5.3 2.5-2.5.4h-1.1l-6.9.9-2.4-.1-1 .5-.4.5-.3 1.6.1 2.4-.4 1.3-.5 1-.7.8-3 2.7-.3.5-.6 1.1-.2.5-.1.5.1 1.4.1.7.4 1.2 1.5 3.2.1 1.4-.8 1.6-4.7 2.4-1.5 1-1.8 2.3-3.5 3.6-2.9 1.6-2 2.3v.5l.7 1.8.6 3.4.2 1.6-.1.8-.7.7-.7.3-1.5.4-1.1.6-.4.9-.2.9.1.9-.8.8-20.7 16.3-2.1 1.3-3.1 1.2-12.3 7.3-2 1.8-5.8 7.1-3.7 3.1-20.8 13.1-15.6 6.5-3 .3-.9-1.1-.4-1.5-.3-3.4-.6-1.7-1.2-5.1-.7-1.6-1.3-1.4-1.5-.9-1.6-.6-3.3-.3-1.6-.5-1.7-.8-1.8-.5-1.7.3-1.7 1.8-1.4 1.7-2.1 2.1-3 2.1-5.2 2.9-2.9.4-2-.6-3.5-3-1.6-.3-2.9 1.9-4.2 2.1-1.8.3-5.1.2-1.7.4-6.9 2.7-6.7 3.4-1.7.5-1.4.7-.9 1.4 2.4 22.1-1 4.2"/><path d="m481.2 388.8 1.1-.9 1.1-1.6.3-.3.7-.6 1.2-1.5.9-2.1.2-.8.1-1-.1-2-1.3-5.7.4-1.7.3-.9 1-.8.6-.6.5-.7.3-.8.3-1.4.5-4.5 3.6-12.6.7-1.7 2-3.5.3-.6.5-2 .4-.8.6-1 .7-1 1.4-2 .5-1.3 1.9-7 .3-.5.2-.4.8-1 2.6-2 .4-.7.3-1.2.9-4 1.7-4.7.3-2.2.4-11.8-.5-3.8-1.7-6.8-.7-.5-1.5.1-89.4 30.9-2.5.4-1.4-.3-.8-1.6-1.5-5-.7-1.6-.9-1.5-2.7-3.7-.2-2.4.7-3.3 2.5-6.6 1.9-3.5 2.7-8.6.9-24.4"/><path d="m610.7 557.7 126.5-46.5 27-13.7 25.9-115.8.9-.5 1.2.8 1.2 1.5 1.5 1.4 1.6.9 1.7.3 1.7-.3 11.1-5.5 2.3.4 1.8.9 1.4 1.5 1.4 1.2 1.3 1.5.9 1.6 1.6 1.2 2 .6 3.1-.3 4.3.7 5.2 1.6 2 .2 2.4-.4 2-1.1 5-4.5 1.3.5 2.8 2.1 3.2 1.9 1.5.7 1 .3 1.4.3h1.5l5.1-.8 1.4.6 2.4 2.5 2.8 1.9.8 1.4.3 3.4 3.2 10.4.8 1.6 1.2 1.3 6.5 3.2 1.7 1.1 1.9.8 2.1.4 4.5-.2 1.9.7 1.7 1 1.8.8 1.4.3h3.5"/><path d="m1009.3 444.3-12.7-4.4-8.4-6.1-3.7-2.2-3.4-1.4-34.3-7.4-2.6-.3-6.6.4-32.2-1.3"/><path d="m905.4 421.6-.4 8.8-4.4 8.5-4.2 5.9-1.1 2 .7 1.2 1 1.2.9 1.4 1.6 6.9.3 3.7.4 1.9.9 2.2 1.4 1.1 1.6.7 1.7.3 1.7.8 1.6 1.4 42.7 84 1.2 4.1-.3 2.8-21.3 31.6-27.8 33.8-1.1.9-1.3.5-3-2.5-12.5-6.1-1.5 1.2.1 1.1 1.7 6.5.5 6.5v7l-.7 3.4-1.4 2.1-1.6.6-1.8 1.1-1.8 1.5-2.9 5.1-1 1.2-3 1.2-1.6.9-1.4 1.4-2.5 3.2-1.5 1.7-1.6 1.5-1.7 1-1.7.5-1.4.1-1.4-.2h-.9l-1.3.1-5 2.7-1.8 1.6-1 2.9-1.2 1.9-1.4 1.3-1.7 1.1-1.6 1.8-1.5 2.3-.5 1.6-.4 5-.7 2-1.1 2-1.4 1.8-.6 1.7-.9 1.4-3 3.9-12.7 26.1-.4 1.8.6 3.3.1 1.6-2.5 5.3-1.2 4.7-2.3 6.3-.4 1.2"/><path d="m354.3 643.8-2.8-1.3-8-1.3-1-.3-1.4-.6-1.5-1-10.6-9.7-1.5-1.9-.2-1.5.4-1.7 4.4-8.3 1.2-3.5.3-1.8.1-1.8-.3-1.8-2.8-6.7-.3-.9.1-1.2 1.3-3 .1-1.7-.7-2-1.4-2.2-5.9-4.9-2.2-1.1-1.7-.4-3.3.2-6.5-.4-1.4-.2-1-.1-4.6.4-1.7-.1-1.7-.6-1.4-1.2-.9-1.9-1.9-1.8-.6-.3-1.6-1.3-2.3-1.4-3.6-1.6-7-9.5-11.2-35.7"/><path d="m269.2 527.7-7.9-9.6-5.5-3.8-5.7-2.7-1.7-.4-3.2-.3-2.2-1.4-2.5-2.5-8.9-11.9-1.5-3.3-3.8-14.4-2.4-2.2"/><path d="m354.3 643.8 14.7-15.2 5.1-3.2 2.3-1 2.6-.7 4.3-.3 2.8.3 4 .8 10.1.2 2 1.1 1.9 1.8 1.3-1.4.6-1.5.4-1.6.7-1.3 1.9-.8.9-1.4.4-1.4.1-1.7.4-1.6.9-1.6 1.4-1.4 2.4-3.2.8-1.7.4-1.7-.4-1.6-1-1.3-.7-1.3.1-.8.2-.5.9-.7 6.3-3 1.4-.9.8-.9 6.9-11.8.4-1.7-.4-3.3v-1.7l.6-3.4 1.5-5.3 1.1-1.6 1.7-1.5 8.7-5.1 1.9-1.8 1.6-1.7 5-7.4 1.4-1.5 1.4-1.2 1.2-1.1.5-1.4-.5-1.6-2.1-3.3-.1-1.3 1-.8 4 .9 1.9-.8 1.3-1.1 1.7-.8 1.9-.2 2.4.4 1.9.7 1.4 1.7.9 1.6 1.6 1.2 1.8.4 2.3-.6 1.6-1.2 2.1-3 1.5-.9h1.8l3.6 2.5 1.6.5 1.4-.9 2.3-2.8 1.6-1.1 1.8-.8 3.4-.9 30.7-1.8 7-1.6h2l2.3.5 26.3 20.3 9.9 4.7 10.1 3.6 5.6.8 14.9.6"/><path d="m610.7 557.7-3.2 5.1-4.6 5.3-1.4 2.3-.8 2-1.1 9.8.1 1.7.7 2.9.4 4.2.4 1.9.7 1.7.9 1.6 3.3 3.5.5.6.5.9 1 3.4.5 2.2.3 3.4-.3 2.9-.6 3.2.5 3 1.2 1.6 1.6.6 3.4.9 1.8.1 1.7-.5 3.4-1.5 5.1-1.2 11.8-7.4 1.8-.7 1.6-.5 1.7.3.5.5.1.9-.4 1.5-.1 2.7.5 3.7 1.6 5.2.9 1.8 6.1 8.5 2.7 2.9 8.4 5.9 6.2 6 1.4.9 6.6 2.9 1.5.9 3.5 3.5 6.1 7.6 1 1.8.1 1v3.2l.4 2 2.5 8.1.5 6.3-.3 4.2-.5 1.4-.1.4-.9 1.5-1 1.3-1.2 1.1-.6.7-.4.7-.3.9.1 1.7.5 2 1.6 3.8 1.7 1.5 1.8 1 1.7.7 1.5 1.1 11.4 15.5 2.3 2.5 10.6 8.9 1.7.9 21.1 7.3 1.7.1 12-1.1 1.8.1 1.5.4 1.2.5.9 2.6-.6 3.7"/><path d="m354.3 643.8-1 6.9-2.4 4.9-12 11.6-1 1.9-.6 1.9-.1 3.3.3 3.4 1.9 8.8.2 2.4-.3 3-1 5.4-1.5 3.5-1.4 2.3-1.6.7-1.6.3h-1.6l-1.7.4-1.7 1.1-1.7 2.1-.4 1.8-.1 1.7-1 1.5-1.4 1.2-1.6 1.7.2 1.5 2.5 2.5 2.3 3.3 1 1.7 2.1 5.4.9 1.7 5.8 6.9 1.5 1.6 1.6 1.1 1.6.7 1.5.2 5.7.1 3.5.6 8.5 2.8 5.5 2.9 5.4 1.5 3.9 2.7 1.8.9 2 1.8 1.7.8h3.4l12.1 3h1.9l1.8-.3 1.6-.9 1.6-1.2 1.6-.9h1.6l7.2 4 3.5 2.9 3.5 1.2 1.8 1.2.5 1.7-.2 1.7-2.2 5.6-.2 1.9v1.9l.5 2.4.9 1.9 1.5 1.6 3.2 2.3.6.7.3.8 3.2 11.8 1.1 2.5 4.6 6.8.6.7.7.6.8.5 2.5 2.9 6.9 11"/><path d="m446.9 824.6-24.5 12.1-5.8 5.1-1.8 4.2-2.2 2.8-1.1 2.1-.3 1.8.4 1.7 2.4 3.8.4 1.2-.2 1.3-1.1.8-1.8.5-2.2.7-3.1 2-1.7 1.8-1.3 1.8-.6 1.8-1.4 7.3-.7 2-1.6 2.6-1.6.6h-3.4l-50.8 14.8-.2.1"/><path d="m606 909.4-12-15.5-13.7-14.1-13.5-11-9.9-11.2-3.3-2.9-.8-1.5-3.3-11.9-.8-1.7-1.4-1.6-14.1-8.6-1.5-1.4-.9-1.6-.4-1.7-.4-1.7-.5-1.7-.9-1.7-1.3-1.6-1.8-1.4-1.9-1-2.5-.7-74.2 9.7"/></g><g clip-path="url(#a)" fill="none" stroke="#0978ab" stroke-linecap="round" stroke-width=".5"><path d="m669.9 158.3-21.4 11.4-5.3 4.8-4.1 3-5.8 1.4-6.2.1-25.4-4.9-7.1-.2-6 .8-2.8 1-2.8 1.3-2.2.5-2.2-.5-4.5-1.9-10.5.1-2.9-1.1-4.8-2.6-16.2-5.1-4.4-.7-9.7 1.9-5-.6-1.8-.9-5-3.3-.6-.7-1-1.8-.5-.5-1.5-.4-.8.3-.7.4-.8.1-8.7-1.4-2.8-.8-.5-.6-.3-1.8-.4-.8-1.1-.6-1.2.5-1.2.8-1.3.5-2.1 2.4-1.4.5-2.2-4.1-1.2.4-1.4 1.3-1.6.7-1.7-.2-3-1-1.6-.1-2 .4-5.7 2.8-4.9 1.6-4.6.4-4.7-.5-5.3-1.4-5.6-2.7-.3-2.8 2-3.6.9-4.8-.6-1.9-2.1-3.3-.4-2.2.7-2.5 4.4-6.6 1.2-3.1.9-4.1.3-3.9-.9-2.9-11.6-9.2-5.3-6.4-3.1-.7-7.3.6-3.2-.5-6.3-1.8-3-.3-2 .5-3.6 2.3-4.3 1.6-1.7 1.2-3 3.2-6.1 4.7-1.6 1.6-.8 1.7-.4 4.1-.6 1.9-1.4 2.1-20.9 19.5-34.8 27.8-3.4 1.5-3.5-1-1.9-2.2-2.5-4.6-1.5-1.7-14.6-6.4"/><path d="m777.2 78v-3.3l-5.5-15.7-.5-3.2.1-3.7 1.1-5.9 1-2.5 1.5-2.1 1.9-1.5 2.1-.8 5.3-1.2 2.7 2 4.1 1.5 23.2 3.5 3.4-.7 2.4-1.5 2-1.6 2.2-.9 2.9.8 3.9 1.8 3.4.7 1.5-2.1 2.4 1 2.1.2 2-.7 1.8-1.7 5.1 1.9 3 .5 1.9-.6 2.3-1.1 2.8.6 4.8 2.1 7.3-.9 1.6-.7 3.4-3.3 2-1.4 1.5-.6 5.2.2 4.8 1 2.4 1.8 1.1.5h1.6l2.5-1 1.2-.3 1.9.8 2.7 1.9 2.5 2.4 1.7 2 .7 2.5-.7 5.1.1 14.6-.6 5.5-1.8 4.1-6.1 3.4-1 .7-3.1 3.4-.9.7-1.6.6v1.4l.9 3.2-.3 1.8-.9 1.2-1.1 1-1.2 1.4-1.2 2-1.1 2.7-2 .6-.8.8 2.2 3 1.5 3.1.8 1.3.7 2-.2 2.8-1.8 6.2-1.3 2.6-1.7 2.3-2.2 1.3 1.2 2.9-.4 3-1.2 3.2-.7 3.6 1.1 7.8-.6 4.2-2.9 3.4 2.8 4.9 3.1 4.4 1.2-1.3 2 1.5 1.2 2.1.2 2.3-1.1 2.4 3.6 1.8 3.1 8.3 2.7 1.7-.2 1.5.3 8.1-.1 1.4v1.3l.6 1.2 1.4 2-.4.9-1 .6-1.6 3.5-2.5 1.6-2.9 1-2.4.4-1.3 1.1-.7 2.4-1.2 2.1-3.3.3 1.7 1.5 2.1.9 1.6 1.1.5 2.4-5.7 2.6-2.6 2-1.1 3-.5 7.5-1.2 3.4-2.3 3.1-4.1 4.1-.8.5-2 .5-.7.3-.3.9v1.4l-.1 1.4-.8 1-2.9.6-3.6-.3-6.4-1.5.8 6.1 2.2 6.5 1 6.2-2.9 4.7 3.3 1.2-.2 1.6-1.9 1.7-2.3 1.4-5.3 2.4-.9 1.9 1.4 3.9 2.9-1.6.7 4.6-.9 6.8-2.1 4.9-3.9 3.5-1.8 2.1-.7 2-.1 1.3-.4 1.6-.5 1.4-.7 1-.8 1.6.4 4.1-.2 1.9-1.1 1-2.7.4-1 .9-.3 1.7.5 3.8-.2 1.7-.8.8-1.1.7-1.4.7-1.4 5.4-2 3.7-.5 5.3-1 1.5-1 .9-.7 1.4-.5 1.6-.2 1.5-.4 2-1.1-.3-1.2-1.2-.8-.6-9 5.1-4.2 3.3-3.8 4-9.5 4.1-8.8 7-4.7 5.5-2.3 1.5-3 .8-11.4-1.3-2.3-.9h-2.3l-2.7 2-.9 2.6.5 6.9-.2 3-2.5 4.4-12.1 10.2-1.9 2.5-2.9 8.3-3.9 7.1-1.9 6.4-1.5 2.4-2.2 1.7-11.8 7-3.3 1.1-.8.1"/><path d="m1196.6 80-1.7-.2-1.3 4.1-1.6.8-3.7.4-6.8-.5.7-4.2 1.8-4.8-3.3-2.3-.6-1.7-2.2-3.3-2.5-2.5-1.2 1.1v2.1l-.3 2.1-1.2 1.6-2.6.6-10.5 1.2-.5-.8.1-3.9-.2-1.2h-.8l-1.6.4-1.8.2-1.6-.6 1-.4 2.5-1.9-4.6-2.5-1.3.6 1.2 4.2-2.5-1-3.4-3.5-2.4-1.4-4.5.1-1.6-.8 1.4-2.7-4.1-1.9-5.6-6.3-4.4-1.2"/><path d="m1059.3 1-1.7 1.6-1.3 1.6-.6 2.1.1 2.2.5 1.8 1.2 1.6 1.8 1.4-2.3 1.8 2.7 2.1 4.2 2.4 2.2 2.6 1.2 2.2 2.7.8 3.2.4 2.3.8 2.2-1.4.9-.8.4-.8.7-.4 3.4-1.2 1.2-.8 1.4-.2 3.8 3.4 1.9.9 2.1-.9-.7-4.8 1.5-2.4 3.6-1 1.4 1.9.9 6.1 1.3-.9 1.1-.3 1 .3 1.4.9-1.3 1.1 4.6 1.9.3 1.2v5.8l.4 3 .9 2.4 1.5 1 5.6.3 2.5.7 1.9 1.5.7.3h.7l.7.3.3 1-.3.6-.7.8-.7.5-.7-.2.9 1.3.9 1.1 1.2.9 1.7.4"/><path d="m459.4 606.7-3.4-6.1-6-7.4-2.2-3.6-3.1-7.5-2.2-3.2-25-21.2-2.3-2.9-1.2-3.7-.3-11-1.1-3.3-3.5-4-4.2-2.2-4.8-.9-6.6.4"/><path d="m669.7 830.5-7.2 2.3-6.2 1.2-3.8 1.6-5.8 5.3-2.9 1.7-2.8-.3-3.2-1.6-5.7-4.6-1.4-1.5-.7-1.4-1-1.3-2.4-1.2-8.6-2.7-6.4-.2-2.9-.6-2.6-2-1.3-2.2-.5-2.3-.4-4.8-1.1-2.7-5.2-6.8-3-6.7-1.7-2.8-12.7-12.3-6.5-9.9-2.4-2.2-3.6-2-3.6-1.1-2.8.1-6 2.1-3.4.5-3.5-.6-3.5-1.3-3.1-1.8-13.2-11.4-10.8-13.7-16.9-30.4-3.6-11.3-.3-1.3v-1.3l-.2-1.2-.7-1.3-1-.5h-2.8l-1.1-.6-1.4-2.3-1.8-5.4-1.5-2.2h-1l-1.8.4-2.1.2-2-.7-2.9-4-4.8-12.6-2.6-5-13.2-13.5-8.8-6.3-2.6-2.4-1.3-3-.8-4 .1-4.1 1-3.1 1.4-1 1.8-.3 3.6-.1 2.5-1 6-4 2-1.9 1.3-2.9-.2-3.2-1.1-3.2-1.6-3.1"/><path d="m707.4 782.7-7.5 3-8.8 1.4-7.8 2.6-4.5 6.4-.3 4.7.9 4.8 2.7 9.2-.1 5.2-2.6 4.4-4.3 3.4-5.4 2.7"/><path d="m1146 785.2 17.2-12.9 2.4-2.6 18.8-36.7 4-20.8 2.4-6.8 3.5-5.1 9.5-8.9 11.7-15.2 9-27.8 3.4-7.4 11.3-14.8 3.6-3 8.4-3.7 3.9-2.5 1.3-1.5 2-3.2 1.4-1.4.7-.1 1.7.5.8-.2 2.9-2.4 2.5-2.8 4.8-7.4 2.7-2.3 6.1-1.9 2.3-1.3 1.2-.4.7.2 1.8.9 1 .1 2.6-.9 5.1-2.6 2.7-.9 3.3-.2 9.2 2.4 6.8.6 2.9.8 2.3 2.1.9 3.4v4l.7 4 2.7 3.2 3.2 1.3 7.9 1.8 3.6 1.6 1.2 1.1.6 1.2.9 1 7.9 2.2 1.3.6 2.4 3.7 1.4 1.7h1.3l2-1 .5 1.6.1 4 3.1 1.5 11 1.1 5.5 2.1 5.3 2.6"/><path d="m1064.3 855.1 2.7-3.8 8.8-4.6 3.7-2.8 14.1-20.4 8.3-8.9 10.9-6.5 6.3-2.4 3.1-.8 3.3-.2 5.3-1.2 4.2-3.4 8.3-12 2.7-2.9"/><path d="m846 1116-.5-1.7 1.5-1.5 2-1.4 1-1.4-.4-.7-1.1-4.2.3-.3-.3-.9.1-.8-.1-.5-1.4-.2-1.3.1-1-.1-.5-.5-.1-1.3.8-2.3 1.4-1.8.6-1.6-1.7-1.9.6-2.8-5.9-4.7-1.7-3.7v-6.4l-1.9-.9-.7-.9.8-1.2.7-.8 1.1-3.3-2.2-.6-1.3-1.7-2.6-7.8-.8-1.2-1.4-1.6-.4-.8-.2-1.9-.5-.9-.7-.3-2.2-.3-.7-.5-.4-2.5.1-2.1-.6-1.6-2.6-.9 2.4-1.2-2-3.2-2.9-.7-6.8.3-3.7-1.7 1-4.3-3.9-.9-1.5.4-3.4 1.6-2.1.3-.6-.8v-5.7l-.7-.7-1.6.1-1.6-.1-.8-1.5-.1-1.9-.6-1.3-1.1-.8-1.8-.1v-1.2l1.1-2.2-2.6-2.6-3.7-1-1.8 2.9-1.2 3.5-3 1.2-3.9.4-3.6 1.2-2.7 3.3-4.5 9-2.7 1.8-1.8-1.7-.5-.8-1.2.3-1.8 1.1-4.4-1.3-2.1-1-1.7-1.3-2.4 1.4-2.9 1.4-2.9.5-2.5-.9.7 3.6 4.1 5.2 5.6 4.6 4.9 1.9v1.1l-7.7 1.8-4.4 5.3-5.5 13-2.2 2.1-2.7 1.8-2.3 2-1 2.9-.2 1.7-4.4 20.2-.2 3.9-.9 1.9-4 2.5-.9 1.5.2 2.1.4 1.5.1 1.7"/><path d="m1122 1028.9-3.5 5.7-.6 1.4v7.6l-1.6 2.8-2.7 1-12.8-.2-.8.3-2.8 1.4-1.7.6-11.6.2-7.7 4.1-1.2.3-1.4.6-2.3 2.8-1.7 1.3-2.5.4-1.7-.7-.7.1.4 2.7 4.5 8.3 3.7 4.2 5.7 9.2v3.1l.5 2.8 1.6 2.1 3.2.8 3.2 1.7 2 4 1.6 4.7 2.2 3.8-2.1.6-1.4 1.1-2.5 2.9-2.7 4-.8.8h-7.1l-5.6-3.3-1.5-.3-.8.9-.9 3.5-.5 1.5-1.2 1.2-8.7 6.1"/><path d="m1132 995.5-1.9 5.4-7.1 8.2-1.6 5.1.8 3.6 1.3 3.7.4 3.8-1.9 3.6"/><path d="m591.7 442.2-20.7 2.3h-9.3l-2.9-.4-4.6-2.2-2.5-.9-5.8.5-4.9 2.7-9.3 6.8-5.5.6-5.1-2.4-4.8-3.4-4.6-2.5-2.9-.4-2 .8-4.5 3.2-3.1 1.3-2.1-.2-1.9-.7-2.9-.4-2.8.7-3.3 3.2-2.1.8h-3.4l-1.5.4-5 7.4-1.3.6-1.5-.6-3.2-.8-2.6.2-2.5.6h-2.4l-2.5-1.4-3.8.5-12 15.3-14.8 6.2-4.6 3.8-1.8 4.3-.7 10.5-2.8 4.7-4.9 2.7-11.8 4.8-3.8 4.2-.6 2.3v4.8l-.5 2.2-5.3 10.6-4.5 4.5-15 7.9-2.3 2-1.9 1.2-2.1.7-3.1.2-2.9-.8-1.7-1.8-1.3-2.3-1.8-2-4.8-2.2-6.1-1.1-23.8.3-5.7 1-5.4 2-6.9 3.8-2.4.7-1.1-.2-1.7-1.7-.8-.3-1.5.6-1.4 1-2.3 2.4.3 3.1-.2 2.6-1.3 2.5-4.5 6.7-1.9 2.2-4.2 3.3-1.5 1.5-1.4 2.2-1.1 3.2-1.1 5.1-2 2.9-1.8 1.7-2.1 1.3-2.4.8-5.2.7-6.7 3.1-16.2 1.6-4.3 2.5-4.7 4.2-4.9 2.5-5.2 1.1-5.9-.2-2.4-.5-5.7-3-2.9-.6-5.8-.3-8.8-2.4-9.8.6-5.7-2-5.2-3.4-2.8-1.1-3.7.4"/><path d="m878.8 608.4-7.6-10-9.9-6-1.8-.5-.9-.7-4.1-.9-.9-.7-.2-.4-1.2-1.1-1.1-.7.2-1.2 1.1-1.8.4-2 .8-1.3.5-1.4-.5-2.5-4.2-5.3-2.9-1.4-8.4-1.3-7.7-.1-12.4-1.8-6.2-2.6-3.1-.4-6.5 3.9-5.3 6.6-5.1 3.7-6.4-4.8-2-3.4-3.8-9.9-2.6-4.8-2.1-11.1-1.4-2-4.7-5-1-2-.7-2.3-5.2-7.7-2.4-6-.8-3.4-.3-3.5.5-3.6 2.4-6.8.6-3.6-1.3-5-3.7-5.4-4.8-4.3-7.1-2.6-6.4-4.1-1.9-1.5-1.2-3.2-.5-4.1-.8-3.5-2.2-1.5-1.6-.4-1.7-.8-4.7-3.2-1.5-.1-1.5.6-2 .4-3.4-1-1.6-2.4-1.5-6.1"/><path d="m712.4 450-2.8.1-30.4-5.2-2.9-2.2-.8-2.2-1.7-1.8-4.1-3-2.9-1.7-2.7.6-5.5 2.9-3.1.5-15.7-.5-1.9.3-1.6.6-1.6.2-2.1-.5-2.4-1.7-1.9-1.7-2-1.4-3-.6-3.1.3-8.6 2.1-5.2.1-2.4.4-3.1 1.3-1.3.1-1.6-.3-1.3.3-1 3.3-1 1.1-1.4.7-1.6.1"/><path d="m1006.3 912.8-7.1-16.1-8.7-14.6-1.4-3.8-1.5-7.8-2.2-2-2.7-1.5-2.3-3.1-.3-1.9.6-1.4.7-1.2.2-1.4-.7-1.9-2.4-2.4-.5-1-.9-3.1-2.2-2.4-2.3-2.1-1.5-2.3-2-18.8-2.5-6.8-.3-3.8 1.2-5.1v-2l-.7-1.9-2.3-2.8-.9-3.3-1.6-3.4-.4-2.1-2.3-5.3-.6-.9-1.2-.6-.5-.9-.1-.8.1-1.8v-.9l-1-3.6-.2-4-.8-1.1-3.3-1-.7-1.4.2-2 1-3.1.1-1.3-.4-.1-.8-.1-.8-.4-.4-1.2.1-3.2-.1-1-1.6-5.4-.7-1.6.7-.6.8-1.2.8-.5-.9-1.7.3-1.2.9-1.3.8-1.7-.4-.1-.7-.8-.4-1.1.4-1.5h.6l4.1-1.3v1.3l.5-.6.3-.5.2-.5.2-.7-2.8-1-1.4-.2h-1.7l3.2-4.6.2-2.3-2.3-2.5.7-2.5-1.1-2.3-.6-2 2.3-1.4v-1.3l-4-1.2-.7.1-.2-1.6.4-1.5.7-1.1.8-.5 2.6-.7-.5-3.6 2-1.6-2.4-1-1.1-.1.3-1.2-.1-.9-.2-.8v-.7l-3.3 1.2-16.4-3.3-3.3-2.3-6.4-6.1.8-.6.8-1.2.7-.6-2-1.5-1.2-1.9-1.5-3.6-2.7 1-.8-1.4.2-2.1.4-1.1 1.2-.9.1-1.9-.7-3-.5-1.1-1.5-1.8-.4-1.3.4-.6 1.6-1.1.4-.7.4-2.4 1-1.2 1.2-1.1 1-1.7 1.1-7.6.3-1.3.8-1 .5-1.1-.4-2-.8-1.2-1.3-1.1-1.6-.9-1.6-.3-.6-.9-1.2-6.1h-3.3l-3.7-2.1-9.4-7.9-12.5-6.1-1.8-.5-1.7-.7-1.6-1.4-.6-1.6-.4-4.2-.8-1.9"/><path d="m1019.1 953.2-2.1-7.5-.5-4.3.9-3 .3-2-4.9-13.2-6.5-10.4"/><path d="m340.1 563.2-4.5-2.2-4.2-.1-4 1.4-3.8 2-2.8 2-1.7 1-2.4.6-2.2-.3-2.1-.7h-2.1l-2.5 1.6-4 1.5-5.7.7-5.1 1.6-2.1 4.3-2.2 2.9-5.2 1.7-10.2 1.9"/><path d="m348.2 567.7 4.8-2.3 17.7-.1 1.4-.6.7-1.5.2-3 .4-2.3 1.2-1.8 3.2-3.6 3-6.8 1.1-1.8 1.9-.8 7 .2 2.2-.7 1.8-1.1 1.3-1.6.5-2-1.1-.8-2.4.9-2.5.4-1.1-2.2"/><path d="m340.1 563.2 1.3 1.5 3.3 2.5 2.7.7.8-.2"/></g><g clip-path="url(#a)"><path d="m386.8 590.4-1.4 4.7-1.9 2.1 1.3.6 1.5 1.2 1 .6v1h-2.9l-4.1 1-2.5.3-.2-.2-2.7-1.1-1.5.2-1.3.5-.9.8-.5 1.1-1.3-1.9-2.5-2.5-.8-1.6-1.7 1-5.4 1.8-1.2.1 1 1.5 2.2.5 2.8.3 2.3.8-8.3 4.6-2.1.5-3.4.1-1.5.6-1.9 2.8-2.4 7.7-1.7 2.5-1.5.7-1.6.3-1.5-.3-1.2-.7-1.4-1.8 1-.3 2.1.1 1.8-.5 1.9-2.8.7-3.5-.3-3.9-1-3.9h4.5l3.9-.5 2.8-1.7 1.6-3.6-2.4-2.4h-1.1l-.3 2.4-1.3 2.4-2 1.5-2.2-.3-.3-1.4.8-1.8.2-2-2-1.9-.7 1.3-1 1.1-1.3.7-1.6.4.6-1 1.1-2.7.7-1-2.1-.8-2.3-1.6-1.4-1.6.4-.7 2.1.1 1.8-.3.6-1.4-1.5-3.2 1.1-1 2 .7.6-2.8-.8-4.1-1.8-3.3.7-2.2-.8-3.2-1.7-3.3-1.7-1.9 1.1-1.1 2.5 1.4 3.4 1.2 2.2 1.9-.9 3.7 2.7 1.5 3.2 5.6 2.3 2.2-1.3 2.4 2.1-1.7 1.6-2.7 2-2.7 3.2-1.1.5 1.5-5.8 9h1.2l2.2-2.2 2.7.7 2.7 2.3 1.8 2.7-2.3 2.8 3 2.3 4.4.2 2-4 1.9 1 1.4-.8 2.5-3.7 1 2.4.2 1.1 3.7-3 1.4-.3.8 2z" fill="#c8ebff" stroke="#0978ab"/></g><g fill="none"><g clip-path="url(#a)" stroke="#646464" stroke-width="4.25"><path d="m536.2 1099.4 11.7-31.6 2.8-5.4 4.5-3.8 5.8-3.8 5.1-4.2 5.6-3.4 7-1.4 6.6-2.2 3.8-4.9 3.2-5.3 4.7-3.2 8.6 1.2 6.4 4.9 13.6 22 2.8 3.1 3.8 1.2 9.3-1.2 3.4.4 9.9 2.8 3.2.1 3.4-1.3 3.7-2.7 3.1-3.7 1.3-3.8-1.2-3.7-3.3-1.7-4-1.3-3.6-2.1-1.7-3.6.5-4 9.8-23.1 2.3-4.1 7.4-5.6 2.3-3.6-1.8-5.6-6.6-3.1-8.2-2.2-6.2-3-6.9-5.6-3.6-2.2-9.8-4.1-1.3-1-1.5-1.4-.3-.7.3-1 .2-11.8.8-3 2.3-4.3 1.8-1.1 2.3.2 4-.4 4.2-2.6v-3.7l-2.5-3.9-13-13.9-6-8.6-2.8-3.1-3.4-1.1-4.8 1.4-7 4.9-2.9.5-.9-4 2-7.8 12.5-20.4 1.6-4.3.8-3.6v-3.6l-.9-4.3-1.6-3.9-4.4-6.9-1.3-3.6-.1-3 1.3-9.5-.6-3.8-3.7-10 1.3-3.3.4-.2 6.4.3 8.6 2.6 2.4 1.2 1 1.3.7 1.5 1.3 1.5 5.8 4.5 3.2 1.7 2.8.2 2.8-1.7 5.9-5.3 3.8-1.6 6.2-1.2 7.2-2.3 5.3-2.7 1.8 1.1 3.1 2.3 5.8 7.2 5.3 3.6 5.3.6 68-14.6-1.9-3.8 1.2-5.5 2.3-5.9 1.2-5-1.2-7 .3-2.6 1.2-2.6 3.1-4.8.8-3-6.7-3-3.5-5.5-1.5-6.9-1.5-18.5.7-2.3 1.9.4 5.3 5.6 3 1 2.2-1.3.8-1.7.1-1.8.3-1.5 1.1-2.2.8-1.1 1-1 8.4-5.6 1.9-.7 8.4-.2 7.3 3 12.1 8.7 7.3 2.4 2.8 2 2 4.1 3.8 12.5 1.5 3.6 1 1.3 2.7 2.6.8 1 .6 3.9-.3.1v.8l-.1 1 .3.9 3.3.9-.1.9-.7 1.2-.3.8-.8 1.3-.3 1.1.4 1.1 2.3 2.2.6 1.2.2 1.8.7 3 2.5-.1 4.1-2.1 1.5 1.5 3.2 5.2 1.6 2 .9 4.6.5 1.4 1.2 1.3h1l.8.1.5 2-1.5 1.5-.9 1.4-.4 1.7-.1 1.5-.5 1.5-.7 1.4-.8 1.2-1.9 1.6-.9 1.6.5 1.1 2.3-.2 5.1-5 2.2-.7 4.3.8 11 5 3.6.9 1.9-.4 3.3-2 2-.2 1.6.4 29.9 11 3.1.4 3.3-.8 3.7.6h.9l2.4-.7 1.1.2 1.4 2.2.9.2 1.8-1 .8-1.4.5-1.6.9-1.6 1.7-1.7 5.6-3.8 1.4-1.4 2.5-3.2 1.7-1.5 2.1-1 4.1-1.3 1.7-1.2.7-1.5.5-3.7 1.2-1.7 13-12.7 1.4-1.9.6-1.8.3-3.4.5-1.9 1.8-3.4 3.6-5.3.3-.9.6.2 1.8 1.3 2.4 2.2 2 3.3 1.5 3.6 1.6 7.1 3.9 7.9 2.1 3.2 3.1 3.2 1.2 1.7.5 4.7 1.4 1.3 1.8.9 1.7 1.2 2.4 3.2-.7 1.1-2.1 1.3-2.4 5.2-3.6 1.7-1.2 1.6-.2 6.6-.2.8 2.8 2.5 4 1.3 4.2.2 3.5-.8 3-1.8 1.7-.7h1.6l1.6 1.2.5 3.1 1.1 1h1.3l7.9-2.4 1.1-.2 1.7.1 2.6 1.5 1.7.7 1.6-.2 1-1.3 1.9-5.3 1.4-1.5 1.7-1.3 1.2-1.5-.1-4.5.8-1.7 1.4-1.5 3.3-2.8 1.5-1 1.7-.8 8.2-1.9.8.5-1.3-5.5-13-11-.6-5.8 2.4-1.8 5.8-2.2 2.3-2.5.1-1.2-1.1-3.1.2-1.7.9-.8 3-1 1.1-1.2.8-2.5 1-9 1.1-3.4.2-1.7-.8-1.4-1.4-1.1-.9-.8-.1-1.1.9-1.6-.1-2 .4-1.5.9-1.3 1.2-1.2 20.3-8 4.6-2.4 1.2-2.4-1.3-7.5.1-1.4 1.1-4.4.5-13.7 1.1-3.7 2.1-2.3 4-2.5-1.3-1.1-3.6-.6-2.9-.9-2.1-6.9-3.4-1.9-1.1-1.3 1.6-1.3 3.5-1.3 1.6-.8 1.6-1.2 1.2-1.7.6-2 1.1-1.5 5.7-1-.1-2.6-1.9-3.1-2.3-2.2 2.2-5 .3-4.1.6-1.6 2-2 2.2-1.4 1.2-1.9-1-3.6-6-4-2.5-2.6-1-3.3.4-1.8 1.2-1.3 1.4-1.1 1.3-1.4.9-1.8.7-1.6.6-3.9.2-5.3-.3-1.6-1.3-2.2-3.6-3.6-1.2-2-.1-1.5 1-3 .1-1.4-.5-2-1.9-3.7-4.9-13.5.1-2.5 1.8-3.6.8-7.4.9-3.9 2.7-4.3 3-3.3 1.9-3.7-.7-5.2-1.1-4.3-.1-4.2 1-4.2 6.9-15.1 1.2-5.6-1.5-5.1-4.1-8.3-2.1-2.2-6.8-4.7-3.8-5.1-5.7-3.6-6.6-2.9-4.8-1.4-2.9.4-2.7 1.3-2.6.9-2.8-.7-3.1-1.2h-2.9l-2.9.9-2.9 1.6-.3-6.4-1.2-7.1-2.1-6.9-2.9-5.8-4.5-4.4-6.2-3.1-6.9-1-6.3 1.6-1.2-1.6-1.4-1.2-1.6-.6-6.2-.8-1.3.5-.7 1.1-.4 1.3-.7.7-2.3.9-1.1.2-1-.8-8-9.4.2-4.9 1.8-4.2 9.9-13.2 1.8-1.6 1.8-2.2-.2-1.9-.9-1.9-.3-2.5.7-1.7 2.4-3.1.3-1.8-1.4-2.1-2-.4h-2l-1.1-1.2-.8-12.4-.8-4.2-1.7-5.3-.8-4.3.8-4.1 5.8-8.7 6.1-13.6 3.6-3.9 12.7-7 3.2-3.6.7-3.6-1.1-3.5-1.9-3.6 5.2-7.2 8.5-1.2 9.6 1.1 8.6-.4 2.3-.9 1-.7.6-.9 12.7-11 1.2-3.7.5-8.8 4.9-7.1 7.9-6.8 5.9-7.1-1.1-7.9-.6-2.2 1.3-1.3 2-1.3 1.6-1.6.3-2.3-1.3-1.4-4.1-2-3.2-3-2.9-3.4-2.4-3.7-1.9-4-2.7-8.8-2.3-3.5-8.3-3.8-2.6-3.6-1.4-4.3.1-13-.4-4.5-2.6-10.7-1-1.9-1.8-1.4-2-.8-1.5-1-.5-1.9-2-.4-1.3-.9-1.1-1.1-1.5-1-6.8-1.9-3.4-.3-3.1.8-6.1 2.3-3.6-.2-2.7-1.9-2.6-2.5-3.1-1.9-2.9-.6-32.4-3-2.4.6-.2.8-1.6 4.4-2.1 4.1-.6.4-1.8.7-.5-.2-2-1-.9-.1-1.2.4-2 1.6-1.1.6-3.2.5-1.5.1h-1.7l-3.4.3-2.4 1.6-2.2 1.8-6.2 2.4-3.9 5.3-2.2 1.5-5.7 1.1h-5.2l-5.3-1-6-2.1-2.6-.3-3.7.5-3.4.9-1.4 1.3-1.1 3-2.9.8-3.1.4-3.2 3.9-3.1 1.4-3.6.7-5.9-.4-3.5.5-1.8-.2-.5-2.4-1.6-1.1-2.1-.8-1.7-1.5 3.2-.4 1.3-2.1.7-2.4 1.3-1.1 2.4-.4 2.9-.9 2.5-1.7 1.6-3.4 1-.6.4-.9-1.4-2.1-.6-1.2-.1-1.3.1-1.4-.2-8.1.2-1.4-2.7-1.7-3.1-8.3-3.6-1.8 1.1-2.5-.2-2.3-1.2-2-2-1.5-1.2 1.2-3.1-4.3-2.8-5 2.9-3.4.6-4.1-1.1-7.8.7-3.6 1.2-3.3.4-3-1.2-2.9 2.2-1.3 1.7-2.2 1.3-2.6 1.8-6.3.2-2.8-.7-2-.9-1.3-1.3-3.1-2.3-3 .8-.8 2-.6 1.1-2.7 1.2-2 1.2-1.3 1.1-1.1.9-1.2.3-1.7-.9-3.2v-1.5l1.6-.6.9-.6 3.1-3.4 1-.8 6.1-3.4 1.8-4.1.6-5.5-.1-10.3v-4.2l.7-5.2-.7-2.5-1.7-2-2.5-2.3-2.7-1.9-1.9-.8-1.2.2-2.5 1.1-1.6-.1-1.1-.4-2.4-1.9-4.8-.9-5.2-.3-1.5.6-2 1.5-3.4 3.3-1.6.6-7.3 1-4.8-2.1-2.8-.7-2.3 1.2-1.9.5-3-.5-5.2-1.9-1.7 1.7-2 .7-2.1-.2-2.4-1-1.5 2.1-3.4-.7-3.9-1.7-2.9-.9-2.2 1-2 1.5-2.4 1.6-3.4.6-23.2-3.4-4.1-1.5-2.7-2.1-4 .9-3-.9-9.6-3.1-6.6-.5-9.4 2.2-3.1-.6-5.6-3.5-2.2-.7-1.6.2-3.6 1.9-1.8.5-3.3.4-6.6 2.2-3.4.7-7.5-.3-6.9-1.1-3.1-.1-10.1.7-13-.8-13.1 1.2-15-.5-5.8.8-2.7-.3-8.8-2.9-3.5-2.9-1.7-.9-2.3-.3-2.2.5-4.5 1.6-45.7 1.7-.4 1.5.8 2.3.3 2.3-1 2.4-1.3 1.8-1.1 1.9-.3 2.8v2.2l-.3 2.1-.7 2-1.1 1.8"/><path d="m569.5 57.3h-51.3-51.3-51.2-51.3-23.1l-3.5-.5-10.8-5.5-3-.7-3.1-1.1-4.3-3-4-3.5-2.2-2.7-.3-3.5.5-3.6-.1-3.2-1.9-2.8"/><path d="m309.4 257.4 5 .6 2.7 1 2.8 2 4.5 5.1 2.8 2.2 3 1.3 3.1.4 2.7-.6 2-1.9.6-2.3.1-5.1.9-2.5 8.3-1.1 18.7.1 51.4.2 51.3.1 51.3.2 51.3.2-.2-44.9-.3-44.9-.3-44.9-.2-45-.1-13.7-1.3-6.6"/><path d="m1204.8 86.5-8.1-6.5-1.7-.2-1.3 4.1-1.6.8-3.7.4-6.8-.5.7-4.2 1.8-4.8-3.3-2.3-.6-1.7-2.2-3.3-2.5-2.5-1.2 1.1v2.1l-.3 2.1-1.2 1.6-2.6.6-10.5 1.2-.6-.8.2-3.8-.2-1.3h-.9l-1.5.5-1.8.1-1.6-.6 1-.4 2.5-1.9-4.6-2.5-1.3.7 1.2 4.1-2.6-1-3.3-3.5-2.4-1.4-4.5.2-1.6-.9 1.4-2.7-4.1-1.8-5.7-6.4-4.4-1.2-.8 1.1-1.6 1.5v1.6l.4 1.6-.5 1.5-1.6.5-13.5 2.9-3.5 2.1-1 .4-2.5-.6-3.3-3-2.7-1.6-10.8-1.4-7.6 2.9-1.6.2-18-.2-27.2-.2-30.7-.3-34.9-.3-26.4-.2-29.5-.3"/></g><g clip-path="url(#a)" stroke="#0978ab" stroke-linecap="round"><path d="m312.5-10.8-.6 31.9-1.2 2.9v1.1l-2.2 2-3.4 2.4-2.2 3 1.4 3.8 1.4 3 .5 3.9-1.4 21.3-.4.9-.8.8-.8 1.2-.3 1.8.2 1.9.5 1.4 1.6 3.3 4.8 14 .6 7.1-1.8 5.8-6.1 6-.9 1.6-.4.9-.8.8-.8 1.2-.6 4.1-.6 1.2-.7.7-.8 1-1.4 3.4-.8 1.2-1.3 1.4-3.5 2.3-.9 1-1 1.9-.4.6-10.1 10-1.8 4.7 2.6 4.7 7.4 7.1 3.1.7 7-4.7 3.5-.2-3.9 1.9-3 1.9-3.2 1.5-4.6.6-3.2-1.1-2.1-2-2.3-.8-3.5 2.8-2.8 5-2 4.9-.4 1.8-.7 1.2-.8.8-.4.9-.6.3-2.9 3.9-6.8 6.1-4.7 2.1-.7 2.8.5 6.6-.9 3.1-1.8 3.8-2.4 3.4-2.6 1.4-2 1.3-1.5 3.1-2.8 8.8-1.5 2.5-2 2-2.6 1.1 2.2 2.9.4 1.3-.3 1.7 2.2 1.6 4 4.5 1.5 1 2.6-.6 5.1-2.4 5.4-1 2-.9 2.3-.5 3.1.7 2.7 1.4 1.9 1.7 1.4 2.1 2.7 8.3 1.5 2 4.3-1.8 5.6-1.4 1.2-1.2 1.4-2.5 3.3-3.8 3.9-3.5 3.2-1.3-1.1.7-1.3 1.5-.8 1.8.7 1.7 1.9.5 7-1.5 2 .5 4.4 2.4 1.7.6 2.1.2 2.5.4 2.1.7 1 .9-2.2.2-2.5.4-2.3.8-1.3 1.1-.4 2 1.4 4.4.2 2.9-.3.9-.6 2.2-1.4 2.9-1.6-3.7-1.5-7.3-2.3-3.7-2.7-.9-10-.3-3.1.6-1.7 1.7-1.2 2.4-1.6 2-3.1.9h-3.1l-2.5.5-2.2 1.7-2.2 3.6-.8 3.5.9 2 1.5 1.8.8 2.7.4 4.2 6.1 16.1 1.8 20.3-.6 8.4.6 3.5 2.3 3.4-1.4 2.7-1.7 7.5-1.1 1.5-1.6 1.3-.8 3v3.5l.7 2.7-2.9-.6-1.4-1.5-1.6-4.9 1.5-2.5.9-5-.3-4.9-2.1-2.8-.2 2.3-.9 1.7-1.5 1.2-2.1.7-1-4.6-4-2.2-5.1-.3-3.9 1.2 2.3-3.5 3.7-.4 7.4 1.6 2.9-1.6.6-3.5-1.3-4-2.8-2.7-3.2-.4-3.1 1.3-2.7 1.7-3.1 1.2-2.3 1.6-1.4.4-2.4-.3-1.5-.6-1.5-.4-2.3.2-1.7.8-3.5 2-1.9.8-3.9.8-3.7.3-1.2 2.1-.7 9.5.1 2.5 2.3 2.7 2.7.1 3-.3 3.2 1.6 4.8 5.4 2.1 3.2 8.3 18.9 2.4 2.4 1.8 1.3 1 6.1 1.4 2 1.2-.2 3.9-1.7 1.4-.5 2.1.4 1-.6 1-2.1h1.1l1 3.4 2.5 2.5 5.9 3.6 8.2 6.1 1.8.9 5.5-.2 1.4.8 2.6 2.3 2.1 1.5 7.8 2.6 2.2-.8 13.3-.8 3.3-1.1 3.2-1.5 2.6-1.7 3.4 2.7 3.3 1 8.7-.2v1.2l-7 2.3-2.5.2-2.8-.6-5-1.8-2.7-.1-2.2.8-6 3.8-1.9 1.8-3.2 4.1-2.1 1.4-2.7-2.5-4.4-.2-3.3 1.6.4 2.8 2.5 3.2 6.3 11.4-5.6-4.4-5.3-8.3-6.2-6.3-8.6 1.4-1.7-3.5-1.5-1.1-2.6-.1-1.6 1.1-4.8 4.8-.8 1.2-1.1-1.6-1.5-6-.9-1.8-2.2-1.2-8.4-2.4-1.8 3.1-.2 3.1.9 7.4-.5 1.8h-1.2l-1.4-.9-1.1-.9-.6-6.5-1.6-3.4-4.5-4.4-.9-2.2-.8-.5-5.6-.1-2 .6-1 1.2-.9 1.6-1.5 1.3-.5-1.5-.2-2 .4-1.7.9-.7 1.7-.6-.1-1.4-.7-1.9-.3-2 1.6-6.4.3-3.5-.7-4.1-1.5-3.4-1.6-1.2-1.9.5-5.4 4.8-.8.5-.3 1-.9 4.5-.5 1.6 1.9 5.5 6 32.4.3 3.7.4 1.3.7 1.4.3 1.5-.8 1.6-1.3 1.6-.9 1.9-.6 2-.2 2.2 2 4.4.4 1.5-.2 2.1-.7 3.7-.2 1.8-.8 3.5-3.9 7.7-1.3 3.6.2 22.1-2.5 7.1-4.2 6.7-15.4 16.8-3 6.2-10.2 9.1-1.4 4.4 1.4 2.9 2 2.7.4 4-2.4-4.6-2 .9-.2 1.5.3 1.8-.4 1.8-1 .6-2.8 1-1 .6-1.3 1.4-.2.6.2 1 .2 2.4-.9 2.8-4.1 4.5-.9 3.2-.5 10.4-.7 3.2h-1.2l-1.1-2.4 1.2-6.1-.1-3.4-1.9-3.1-6.2-5.8-1.3-3.3-.5-2.7-1.3-2.9-1.7-2.4-4.2-2-1.6-.1-1.3 1.1v2l1.1 1.8 1.8 1.4 1.7.8v1.1l-3-.1-3-.7-2.3.2-1 2.5-.5 3.4-.8 3-.2 2.9 1.5 2.9-2.8-.8-.8-2.4-.3-2.6-1.4-1.1-2.4-.8-1.6-2-1-2.5-.8-7.2-1.4-5.9-2.6-4.2-3.7.1-.6-1.1-.3-.9.2-1 .7-1.6-5.5-1-1.9-1.5 1.5-3.3-1.2-1.3-2.4 3.6 4 12.6 5.3 6.9 2.3 9 3.7 6.3 4.5 10.2 2.6 4.4.9 2.1 1.4 6.1h1.3l1.7-1.1 1.3 2.9 1.1 4.2 1.1 2.8 3 .7 5-3.4 2 .9-.9.3-1.3 1.3-1.4 2-1.1 2.3 2.5 1-2.6.9-2.4-1.2-4.5-4.2 17 21.8 2.9 7.5 1.3 10.5.5 1.9 1.1.2.6-1.6 1-4.6-2.2-5.2 3.2 2.5 3 4 .8 4.1-3.3 2.4.4 1.1.3.5.5.6-1.1 3.1.4 3.5 1.5 2.9 2.1 1.2 2.6.9 6 4.6 2.5 1.4 2.2.4.7-.5.4-.6 1.6-.8 1-.6.9-.3.6 1.1 1.1 1 .4.3-.4 1.4-.3 3.4.5 3.5 1.9 2.3 2.9.4 8.2-1.6 1.8-1.1 1.3-2.5 1.8-2.4 2.7-1 1.2.6 1.4 2.4 1.6.5 1.8-.5 1.7-1.2 1.2-1.7.5-1.9-1.2-8.9v-3.4l1.6.9.7.7-.2.8-.9 1.1 3.1 5.9.6 3-2.7 5-.8 3.2-1.4 1.7-1.3.5-4.1.4-1.6.4v1.1l1.7 1.3.7 2.4-.3 2.4-1.5 1-3 .3-2.5 1-1.4 1.8.4 2.7.8.3 1.7.2 1.5.4.7.9-.1 3.1.1 1.6 1.2 2.5.3 2.7.9 1.3 1.3.7 1.1-.1 1.1-.4 1.2-.2 5.6-.4 4.6-1.4 3.9-2.8 4.3-5.7.7-.6.6-.9.3-1.7-.7-2.6v-1.1l1.3-.4 2.1-.1.8.1 3.4 1.9 1.4.4-.8 2.8.2 3.8 1.6 6.4 2.1 3.4 2.7 2 7.1 2.8-5.2 1.1-14.2-1.9-5.3.8 1.1 2 .1 2.8-1.2 5.8-2.6-1.4-1-2.5.3-2.9.9-2.7-4.1.4-4.6 1.4-4 2.3-2.6 3-.3-1.5-1-1.5-1.3-.6-1.5.6-.4 1.3 1.5 2.4-.5 1.7-2 .9-1.1-2.6-1.6-21.3-5-1.5-1.5-.8-8.2-6.7-1.1-1.1-2.3-1.5-5.4-6.7-1.1-1.7-.9-3.3-4-4.2-1.8-5.4-2.1-2-2.7-1.2-2.6.3-3.3-3.8-2.2-2.9-1.7-5.1-2.3-4.6.8 3.6 1.5 3.7 1.7 4.3 1.7 2.9 21.4 30.1 9.6 9.8 3.9 5.4 2.8 7.1.2 1.7-.2 5.3.5 2 1.5 3.8.4 1.9v7.1l-.2 1.4-.7 3-.2 2 .5 5.1 1.4 3.4 2.5.9 3.8-2.5 3.9 2.9.4 1.9-2 3.4h1.9l1.5.4 1.4.8 1.2 1.3-.1-2.1.4-1.9.9-1.4 1.7-.5.4-.9.5-1.9.8-2 1.2-1.1 3 1.2 4.4 8 3.2 2.6-.7-3.8.1-1.6.6-1.7.8.8 2.7 1.6 1.7-1.7 3.2 3.3 5.6 9.6.3 1.2-1.7 1.1-2 3 1 1.9 4.2 2.9 1.8 2.2 1.7-.1 1.4 2.4 1.2 3.4.4 3.1-.5.6-2.4.9-.6.9-.4 1.3-1-1.4-.8-2.1-.1-.8-3.5-2.3-.3-1.3.1-3-.5-1-.9-.3-3.8-.3-.9-.4-1.2-.9-2-2.2 3.8-3.1.4-3.5-2.4-2.9-4.7-1.1h-8.8l.3.7-.9 1.3-1.2.7-.6-1 .2-1.2.4-.8.8-.5 1-.3-1.3-3.6h-1.1l-1.3 3.6-1.2.9-2.2-.9.4-.4.2-.1.2-.1.4-.7-3.5.4-3.8-1.3-3.2-2.4-1.3-3.1-.7-.7-1.3 1.1-.4 1.7 1.8.8.3.8 1.4 1.6 1.7 1.5.7.2 1.2 1.8 7.1 7.1 2.4 6.5 2.1 3 3.7 1-.7 1.7-.4.7 2.4 1.9 5.2 6.2 4.6 2.6 17 16.7 1.3 2.6 1 15.5 1.3 3.9v1l1.8 4.4 3.9 5.1 4.6 4.4 3.8 2.6-1.6-2.4-3.8-4.6-1.5-2.5 2.9 2 7.2 8.5 2.7 1.2 1.6-2.2-.6-2.5-2.1-4.1.2-1.2.8-.5 1.1-.1 1.5.2 1 .7v1.2l-.2 1.3.2 1.5.7-.1 2 .9 1.3 1.1-1 .5-.6.4-1.9 1.8-.5.6.5 2 1.1 2 1.6 1.5 1.6 1 4-1.1 4-3.8 4-3 4.4.9.3-.3 2.5-1.3.6-.1.4-1.8h.9l1.7 1.2.3 1.4 3.9 7.9 3-.4 4.7.9 4.4 1.4 2 1.7-.6 1.4-1.7.2-2-.1-1.5.8-.4 1.8 1 3.5-.6 1.8 2.1 1.3 2.4 1.1.5-1.5.9-1.6 1.1-1.7 1.2-1.3.1-.8-.2-1.1v-1l.6-.5 1.3.2 2.1.8 1.3.2 1.3.7 2 3.2 1.3.8.8.6.8 1.4 1.3 1.2 2.5.4-2.4-8.8-1.1-3h1.1l2.3 2.9 4.2 1.5 3.3 1.7-.3 3.3 1.3.4 3.3 2-1 2.2-1.6.7-4.5.5-1.9-.4-3.5.1-3.8.6-2.5.9-1 1.3-1.3 3.1-1.3 1.4-1.9 1.3-1.5.6-.7-.5.6-2.4-1.7-.2-1.6.4-1.4.8-1.1 1.3-.7-2-.5-6.3-.8.1-.2.1v.3l-.2.7-1.5-1-1.1-.2-.6.8-.3 1.7h-1.2l-.6-3.8-2.5-3.9-.4-.1-1-.7-6.1-2.2-2.7 1.1-1.4-1.8-.5-3.2v-3.1l-.3.8-.5.7-.7.5-.9.3-.6-2.1.5-1.8.8-2 .4-2.4-3.2 3.4-2.1 2.7-2.4 1.5-4-.4-3.7-1.9-4.8-5.3-3.2-2.3 3.7 6.5 38.6 38.3 9.1 5.8 3.1 4.1 26.3 20.9 8.5 4.4 21.1 17.9 19 19.9 1.6.9 2.5 1.3 2.1 3 3 6.3 7 7 1.2 1.8 1.2 1.4 6.1 3.4 2.1 1.6 3.6 4.7 1.6 3.2.7 3.4-.6 3.8-1 3-.2 2.6 1.8 2.9 29.2 19.2 20.1 18.4 4.9 5.5 2.4 3.6 1 3.2.2 3.9.6 3.4 1.1 3.1 1.7 3 6 7.9 14.8 12.7 2.8 2.4 2.1 3h1.2l17.7 14.1"/><path d="m170.9 536.2v-1.3l1.5-.6.8-1-.1-1.4-.9-1.7-1.4 1.9-3.8 2.2-1.9 1.9-1.9 2.6-.4 1.3v1.9l.5 1.9 2.4 2.5.8 1.5v2.6l-.5 2.3v2.2l1.5 2.2 2.7 1.9 2.4.1 2.4-1.1 3.1-2-.2-5.4.7-7.3-1.4-5.9z"/></g></g>


</svg>