<svg height="616.86609" image-rendering="optimizeQuality" shape-rendering="geometricPrecision" text-rendering="geometricPrecision" viewBox="-7280 0 14614.249 16320.546" width="552.36084" xmlns="http://www.w3.org/2000/svg"><path d="m-1874.8749 15061.273c-225 135-482 248-507 527-197-71-57-134-1882-357-1243-151-1676-380-1675-801 15-317 66-1056 516-1043 195 5 387 101 412 313 23 192-137 355-169 538 267 75 638 126 1139 171 878 81 1617 269 2166 652z" fill="#01411c"/><path d="m1906.1251 15060.273c150 156 379 310 500 563 198-71 69-100 1900-264 1365-122 1688-357 1687-778-15-316-89-1108-539-1096-195 6-358 61-384 273-23 192 108 395 140 579-266 75-638 125-1138 171-879 80-1617 170-2166 552z" fill="#01411c"/><g fill="#fff"><path d="m-5588.8749 14041.273c0-81 11-190 93-228 97-45 183 112 281 94 77-14 154-77 171-156 9-217-189-324-380-329-170-5-277 97-328 254 8 153 58 271 163 365z"/><path d="m-5065.8749 13862.273c-33 36-83 93-131 102-128 23-355-259-353 107 84 67 186 112 336 157 23-123 108-243 148-366z"/><path d="m5673.1251 14083.273c0-80-50-197-131-235-97-45-189 101-286 83-78-14-135-43-152-122-9-217 160-283 351-288 170-5 276 97 328 254-8 152-6 214-110 308z"/><path d="m5125.1251 13920.273c34 36 73 39 121 48 99 18 186-105 276-63 80 37 107 137 107 215-85 67-234 162-385 207-22-123-78-284-119-407z"/><path d="m-2536.8749 14982.273c-33 14-50 76-80 111-26 30 21 99-4 115-109 68-248 79-364 22-28-4 165-54 124-169-40-111-79-194-178-199-116-6-205 11-284 49 7-84 2-241-9-325-3-34-56 16-80 54-52 66-14 203-22 297-28 40-69 119-235 124-548 18-1025-182-1239-466-46-61-28-164-115-160-144 8-184 173-222 191-85 65-184 97-293 147-3 37 56 44 97 44 63 1 103-22 169-44 24 49 72 136 133 138 96 2 133-95 173-89 394 323 1094 366 1586 364 135 38 368 197 497 186 279-22 297-196 364-297 17-27 11-106-18-93z"/></g><path d="m-24.874915 15722.273c-909.000005 0-1895.999985 90-2244.999985 536l-4-721c409-523 1094-632 2248.999985-632 1156.000015 0 1841.000015 109 2250.000015 632l-4 757c-350-446-1336.00002-572-2246.000015-572z" fill="#01411c"/><g fill="#fff"><path d="m5035.1251 14594.273c-15 43-30 87-45 130 36 28 64 85 76 125-112 73-232 97-380 98-73-56-149-146-259-147-137-2-237 136-295 255-138 55-324 105-434 40-140-83-142-273-188-420-20 28-41 74-62 138 45 198 72 310 174 402 64 58 375 30 559-53 63 82 138 119 223 103 143-27 212-84 246-197 41 12 119 25 193 0 146-50 364-116 335-210-33-106-78-221-143-264z"/><path d="m1597.1251 15165.273c-37-17-44 36-90 58-51 173-79 322-130 494 49-18 111-85 125-138 35-142 67-280 95-414z"/><path d="m1276.1251 15168.273c26-5-48 104-40 163-149-7-277.00002 43-354.00002 46 99 60 196.00002 118 335.00002 167-13 57-10 74-40 97-1961.00002 18-1835.00002-75-1850.00002-277-8-120-9-164-9-265 22-48 42-100 57-165 16 156-16 470 96 534 174 101 953 72 1588.00002 70-117.00002-56-301.00002-90-310.00002-129 17-69 279.00002-139 527.00002-241z"/><path d="m778.12508 15062.273c11-10 56 60 83 90 7 7-52 54-78 82-10 9-52-56-78-83-7-9 49-59 73-89z"/><path d="m601.12508 15056.273c11-10 55 60 83 89 7 8-52 55-78 82-10 10-52-55-78-83-7-9 48-58 73-88z"/><path d="m-1130.8749 15108.273c-45 15-53 43-77 112 113 13 187 71 208.99998 118-24.99998 68-175.99998 160-361.99998 170-91 5-103-50-133-84-25 28-32 76-28 110 6 44 61 68 106 68 266 2 510.99998-219 515.99998-290 4-75-153.99998-180-230.99998-204z"/><path d="m-2753.8749 14752.273c11-10 55 60 83 89 7 8-52 55-78 82-10 10-52-55-78-82-7-9 48-59 73-89z"/></g><path d="m-5084.8749 14731.273c-32-3-42-33-39-75 2-37 22-43 40-46 42 28 66 65 71 111-21 9-49 13-72 10z" fill="#01411c"/><path d="m-3370.8749 15099.273c22-51 138-128 228-126 51 0 132 25 132 76 0 33-63 84-111 94-84 18-206-32-249-44z" fill="#01411c"/><g fill="#fff"><path d="m-3196.8749 14632.273c11-10 55 59 83 89 7 8-52 55-78 82-10 10-52-55-78-83-7-9 48-59 73-88z"/><path d="m5317.1251 14441.273c-17 44-37 83-63 114 38 185 71 328 109 513 34-53 71-95 58-165-28-152-66-308-104-462z"/><path d="m5000.1251 15054.273c11-11 56 59 83 89 8 8-52 55-78 82-10 10-52-55-78-83-7-9 49-59 73-88z"/><path d="m4838.1251 15098.273c11-10 55 60 83 89 7 8-52 55-78 82-10 10-52-55-78-83-7-9 48-58 73-88z"/></g><path d="m4400.1251 14970.273c30 0 54 26 54 58s-24 58-54 58-54-26-54-58 24-58 54-58z" fill="#01411c" stroke="#01411c" stroke-width="35"/><path d="m3251.1251 14822.273c-51 16-59 75-62 139 55 35 86 77 93 125-65 102-215 207-415 197-164-9-248-117-300-184-4 52-4 132 18 179 45 94 141 149 304 148 298-2 480-169 487-362 3-63-59-216-125-242z" fill="#fff"/><path d="m2880.1251 14847.273c11-10 55 60 83 89 7 8-52 55-79 82-10 10-52-55-78-82-6-9 49-59 74-89z" fill="#fff"/><g fill="#01411c"><path d="m-1323.8749 1955.2735c222 490 715.99998 833 1287.999985 833 778.999995 0 1414.000015-636 1414.000015-1414 0-630.00004-416.00002-1167.00004-987.00002-1348.000038 308 236.999998 507 608.999998 507 1026.000038 0 714-582 1296-1295 1296-363 0-691.99998-151-926.99998-393z"/><path d="m-811.87492 913.27346c-115 25-219.99998 48-334.99998 73l226.99998-256-172.99998-296 313.99998 138 228-256-34 340 314 138c-112 24-223 49-335 73l-33 341.00004z"/><path d="m260.12508 6084.2735c80-117 175-281 245-312 54 3 176 206 262 327 33-12 57-4 90-12 19 25 38 57 57 82 293.00002-468 925.00002-1247 990.00002-1264 72 14 284 248 520 601 44 55 235 130 328 207 262 216 337 573 404 902-17 58-58 101-119 126-82-30-118-141-196-175-14 32-7 85-41 110-40 4-190-115-266-127-306 101-607 187-892 201-77 4-154 7-228 6-26-32-30-77-29-121 45-33 79-80 126-106 10 62-65 125 8 122 12-60 34-102 82-107 66 7 29 124 132 163 90-41-2-113 12-178 34 12 77-38 88-130 1-63 41-108 79-153-28-25-37-53-33-119 46-64 85-145 146-195-41 1-78-16-110-51-4 3-7 5-11 8 11-25 27-43 53-64 28-4 47 8 62 36 1 38 6 62 16 55 10-28 21-37 31-41-5-37-44-44-48-68 0-14 34-21 35-40-22-12-51-7-61-12-3-40-21-72-58-93-12 19-26 29-43 32 20 15 26 35 24 56 1 31 7 49-3 47-29-6-47-45-73-48-35 10-74 45-104 102 33 10 31 33 73 49 1 18 1 36 2 54l-18 12c-48-10-89-44-119-113 15-74 146-108 132-217-60-37-102-86-135-141-8-51-39-85-60-122-119 11-210 228-289 336 42 28 71 63 73 110-25 38-41 77-48 116 53-10 70 23 82 63-15 8-36 10-69-4-24-23-52-43-104-44-15 94-50 141-47 173 22 26 26 7 52-12 13 13 42 51 46 69 47 9 76 30 88 62-44-9-56 33-63 82 54-7 87 25 100 94 1 41-29 51-54 110-17-1-46 9-56 0-1-38-2-76-3-115-67-22-112-91-144-218-3-11-19-22-26-32 10-57 2-98 62-151 7-31-22-49-61-64-52 55-104 110-144 204-3 90 13 150 114 124 43 44 53 119 103 158 32 25 67 66 76 115 6 33-34 89-20 117 17 33 25 62 3 86-55-3-109-8-162-15-106-37-120.00002-91-180.00002-94-166 39-346 34-524 37-26 12-58 10-93-4 2-3 3-6 4-10-39-16-76-35-103-78-9-13-5-28 3-43 23-6 47 1 74 24-5 34-3 62 25 68 3 0 6 1 10 2 7-21 16-42 41-56-22-41-38-92-78-97-17-27-13-49 13-68-1-1-1-3-2-4 32 19 58 41 85 77 75 42 20 142 59 146 26-4 50-9 50-44 11-38-2-66-34-84-37-16-60-44-78-77 1-34 17-45 47-55 26 5 25 50 43 55 33-15 60-156 146-227 43 9 91-1 93-77-32-49-58-112-131-77-18-33-26-79-31-127-16-48-37-64-62-56-9 37-19 81-28 118-106 34-44 70-55 74-43 4-110 18-154 63 0-13 0-26 1-39z"/></g><path d="m1670.1251 5300.2735c63-98 208-297 238-300 171 168 423 473 426 539-81-17-146-105-169-115-9 3-18 33-28 50-17-13-29-111-57-111-26-9-11 82-41 111-89-71-97-177-147-254 19-53 24-99 13-146-15 6-144 159-235 226z" fill="#fff"/><path d="m2482.1251 5637.2735c175 78 274 199 367 324 97 116 134 239 177 361-75-121-155-236-236-350-58-87-121-166-196-221-30 23-52 49-65 78-15 0-62-96-123-121 27-38 49-73 76-71z" fill="#fff"/><path d="m-1987.8749 5444.2735h41v-112c0-18 13-32 30-37 3-30 20-55 49-77-48-8-75-21-80-36-41-54-77-111-122-162-53-61-194-93-172-171 53-193 396-243 439-263 51-25 64-89 89-124 19-39 14-63-3-81-59 4-116 37-121 85-5 49-3 48-3 79-27-23-31-52-31-91 1-64 80-107 127-121-11-11-39-22-56-22-44 2-128 38-129 86-1 27-6 33 6 61-25-19-36-24-33-82 2-52 73-103 150-101 64 2 118-13 168 0 19 4 31 15 35 34 45-1 57 5 96 16 34 10 26 32 17 59-67-1-25 9-39 31-21 97-23 187-4 269-9 15-45 6-65 46-16 68-40 114-74 172 2 51-50 112-38 287 11 26 24 47 81 55 15 24 22 39 17 52 16 5 27 19 27 36v112h41c19 0 33 15 33 33v63c0 18-14 33-33 33h-15v162h38c13 0 23 10 23 22v65c0 12-10 22-23 22h-7v48h57c13 0 23 11 23 24v101c0 12-9 22-20 23v1l30 1085c1 28-20 50-44 50h-566c-25 0-46-23-45-50l44-1085v-1h-11c-13 0-23-10-23-23v-101c0-13 10-24 23-24h58v-48h-8c-13 0-23-10-23-22v-65c0-12 10-22 23-22h38v-162h-15c-18 0-33-15-33-33v-63c0-18 15-33 33-33z" fill="#01411c"/><path d="m-3196.8749 7318.2735h6481" fill="none"/><path d="m3338.1251 3984.2735v5147c-13 1459.9995-1185 1627.9995-2136 1764.9995-594.00002 85-1133.000015 195-1144.000015 570h-42c-11.0000003-375-570.000005-485-1163.999985-570-951-137-2123-305-2136-1764.9995v-5218h6622zm-6481 3263h3028.99998v-3193h-3028.99998zm3310.99998 0h3029.00002v-3193h-3029.00002zm3029.00002 141h-3029.00002v3638.9995c223-157 597-211 1014.00002-270 897-129 2003-288 2015-1627.9995zm-3311.00002 0h-3028.99998v1741c12 1339.9995 1118 1498.9995 2015 1627.9995 416.99998 59 790.99998 113 1013.99998 270z" fill="#01411c"/><path d="m-1517.8749 9627.2735v-1347" fill="none"/><path d="m-1517.8749 8922.2735v-1348" fill="none"/><g fill="#01411c"><path d="m-1552.8749 7574.2735c0-17 15-35 50-35 36 0 48 18 48 35v106l377 465-280-85 371.99998 384-335.99998-106 390.99998 405-274.99998 3 307.99998 400-559.99998-265c6 242 11 488 11 746h-142c0-258 5-505 11-748l-488 242 290-402-296 67 418-442-375 146 366-421-241 76 350-399c1-57 1-114 1-172z"/><path d="m-2466.8749 8641.2735c0-14 14-28 47-28 32 0 43 14 43 28 0 28 0 56 1 84l346 370-258-68 342 305-308-85 358 323-252 2 283 317-514-210c5 192 10 387.9995 10 592.9995h-130c0-205 4-401.9995 9-594.9995l-448 193 267-320-272 53 384-351-345 116 336-334-221 61 322-318z"/><path d="m-801.87492 8930.2735c0-12 11-23 35-23s33 11 33 23v68l259 302-193-55 255 249-230-69 268 263-188 2 211 260-384-172c4 157 7 316.9995 7 483.9995h-97c0-167 3-327.9995 7-485.9995l-334.99998 158 198.99998-261-202.99998 43 286.99998-287-256.99998 95 250.99998-273-165.99998 49 240.99998-259z"/></g><path d="m-1779.8749 4929.2735c-38 11-75 18-109 19 8 72 13 159 7 233 38 2 66 4 102 17 8-68-2-132-27-184 2-24 25-61 27-85z" fill="#fff"/><g fill="#01411c"><path d="m2664.1251 7576.2735c-84 20-148 45-182 118-25 53-5 155 22 175 27-58 17-138 58-182 37-41 77-74 102-111z"/><path d="m2544.1251 7889.2735c-48 12-93 39-142 36-64-4-122-71-186-72-32-1-34 57-60 75 107 0 153 140 166 141 40-22 68-50 100-95 25-26 93-51 122-85z"/><path d="m2265.1251 8077.2735c-93 52-192 97-254 183 20 70 16 157-11 216-44 29-73 29-136 25 81-37 133-80 120-139-39-63-153-10-146-86-1-39 277-211 427-199z"/><path d="m1942.1251 8059.2735c-2 45-26 92-56 128-29 35-75 64-112 76 61-60 117-127 168-204z"/><path d="m1885.1251 8518.2735c-184 30-157-84-202-84-38-1-59 31-93 32-23 1-29-61-48-48-64 41-118 55-125 72 5 11 111 17 115 67 9 119-65 115-125 159 223-21 392-85 478-198z"/><path d="m1568.1251 7577.2735c-17 38-50 66-49 107 1 38 36 71 55 104-47-23-117-47-119-107-1-51 74-85 113-104z"/><path d="m1466.1251 7766.2735c48 35 105 73 103 140-1 87-90 159-195 165 37 107 56 243 39 249-23-2-71-219-138-307-23-30-30 69-45 104-17-17-20-54-18-81 3-50 17-84 66-94 33-6 65 45 89 111 71-32 119-75 122-156 1-45-11-87-23-131z"/><path d="m1405.1251 8697.2735c-62 35-127 76-198 101-19-23-45-41-76-54 38-46 62-183 106-187 48-5 54-118 41-165-7-28 28-35 35-44 36-54-120-222-127-234-11 4 51 165 35 247-13 68-47 109-98 155-33 29-89 12-119-20-7.00002 12 2 28 2 42-2 23-30.00002 68-8.00002 62 38.00002-10 74.00002 1 93.00002 42 14 28 3 64 0 88h-1c-31-5-65-12-93.00002-24-17-7-25-27-42-34-65 33-94-89-98-98-11 35 2 138 5 201 2 24 48 24 83 72 38 0 88.00002-8 131.00002-13 61 15 95 49 140 54 45-16 147-113 189-191z"/><path d="m1515.1251 8756.2735c-69 48-121 101-159 162-10 7 88 10 133 72 22-58 36-104 43-165 2-24-4-49-17-69z"/><path d="m1487.1251 9019.2735c28-9 54-15 83-7 114 33 179 122 284 161 38 15 86-20 126-8 66 19 110 56 168 94-1 31-167 113-228 174-83 84-185 261-212 261 34-93 49-194 101-277 35-55 100-93 151-124-71-8-137-4-219-41 4-121-98-144-171-165-49-33-56-55-83-68z"/><path d="m923.12508 8854.2735c-19 44-51 82-101 112-25-73-139-116-141-129 24-6 47-23 71-19 32 5 56 36 89 43 26 6 54-5 82-7z"/><path d="m1758.1251 9461.2735c3 6-22 123-66 123-42-1-75-67-112-96 3-4 73 26 109 20 26-4 57-45 69-47z"/><path d="m1293.1251 9130.2735c-35 13-84 54-130 49-38-5-22-75-83-77-10 83-45 87-49 124 4 14 101 23 147 5 47-19 113-87 115-101z"/><path d="m812.12508 9004.2735c36 22 58 50 64 83 10 4 18-39 17-59 0-12-7-27-18-31-20-6-42-2-63 7z"/><path d="m1047.1251 8933.2735c52 3 77 9 126 39-3-9-21-57-60-71-28-10-60 25-66 32z"/><path d="m1579.1251 9580.2735c-37 24 7 100-12 167-14 51-86 137-84 184 18-24 220-159 186-214-10-14-81-50-90-137z"/><path d="m1439.1251 8986.2735c14 8-18 93 31 101-37 58-87 109-110 173-25 70-6 218-32 221-18-9-27-186-7-277 18-81 75-146 118-218z"/><path d="m1116.1251 9028.2735c19 0 22 37 41 37 21 1 30-36 52-36 27 0 38 16 38 33-1 25-43 51-73 51-42-1-69-84-58-85z"/><path d="m1298.1251 9257.2735c-57 20-118 51-187 103 2 34-13 54-44 61-17-26-6-69-45-73-54.00002-8-27.00002 108-79.00002 112-23-35 12-139-43-94-23-12-23 31-59 47-35-29-35-70-52-69-23 12-38 37-45 75 9 85 18 30 114 159-28 48-47 101 2 192 50 9 49 59 93 104 68.00002-10 68.00002-41 85.00002-45-2 50-24 99-75.00002 148 8 31.9995 25 35.9995 43.00002 34.9995 35-53.9995 52-86.9995 87-107.9995 10-67 22-116 0-140 39-19 79-51 118-97 20-69 30-139 2-213 94-63 99-129 85-197z"/><path d="m1028.1251 9245.2735c-15-23-56.00002 29-87.00002 30-37 2-93-24-93-11 3 23 29 53 60 76 11 8 30 10 39 0 31-34 92.00002-69 81.00002-95z"/><path d="m997.12508 8872.2735c-31 40-50 58-103 81 9 3 60 15 93-9 23.00002-17 14.00002-64 10-72z"/><path d="m1268.1251 9009.2735c34 39 48 61 60 117 5-8 27-55 9-93-13-26-60-25-69-24z"/><path d="m1422.1251 9425.2735c48 17 71 29 109 72 0-9-4-61-38-85-23-17-64 7-71 13z"/><path d="m1506.1251 9717.2735c4-51 11-76 42-124-9 2-58 19-73 58-10 27 23 61 31 66z"/><path d="m1309.1251 9585.2735c-47 70-98 137-163 187 26 26 79 41 77 77-2 41-66 53-86 89-22 40-45 129.9995-37 131.9995 54-71.9995 118-92.9995 148-158.9995 23-52-11-114 0-169 10-55 85-167 61-157z"/><path d="m1329.1251 8885.2735c20 12 30 47 18 67-16 26-50 35-83 40-14-17 19-35 16-59-23-5-51 38-61 16 9-27 26-46 48-58 18-11 45-16 62-6z"/><path d="m1410.1251 9572.2735c1 51-36 102-30 154 9 74 110 147 73 211-42 71.9995-58 189.9995-77 301.9995-18 105 6 134-25 188-39 69-47 183-114 203-23-14 57-145 53-212-43 38-90 106-128 128-21-18 92-119 80-193-75 13-76 64-109 72-26 6-16-80-21-106-8-50-25-69-20-119 5-45 26-76 39-120 6 43 13 86 20 130 32-93 55-190 95-279.9995 25-53 78-90 98-145 16-43-9-93 5-136 9-32 38-77 61-77z"/><path d="m1487.1251 9864.2735c-6-51-5-77 16-130-8 3-53 30-59 71-5 29 35 55 43 59z"/></g><g fill="none" stroke="#01411c" stroke-width="71"><path d="m5055.1251 2799.2735c-25 53-53 102-98 136-47 35-105 47-175 51 32-65 69-121 120-149 49-28 94-35 153-38z"/><path d="m4862.1251 2653.2735c15 57 26 113 14 167-13 57-50 104-101 153-17-70-25-138-5-192 19-53 49-87 92-128z"/><path d="m4576.1251 2722.2735c54 22 105 47 140 90 38 45 54 102 61 172-66-29-125-63-156-111-30-48-39-92-45-151z"/></g><g stroke="#01411c"><path d="m4824.1251 2860.2735c21 34 9 79-26 100-34 22-80 13-101-20-21-34-9-79 25-101 35-21 81-12 102 21z" fill="#01411c" stroke-width="8"/><path d="m4911.1251 2876.2735c21 34 10 79-25 101s-80 12-101-21-10-78 25-100 80-13 101 20z" fill="#01411c" stroke-width="8"/><path d="m4120.1251 2842.2735c1587 1298 2132 2983 2044 5174-93 2289.9995-2080 4591.9995-5307.00002 5321.9995-613 142-1063 475-1529 867" fill="none" stroke-width="71"/></g><path d="m121.12508 13668.273c-270 203-532 409-769 623-50-15-81-51-110-89 262-221 536-422 830.000005-583 16 16 32.999995 33 48.999995 49z" fill="#01411c"/><g stroke="#01411c" stroke-width="71"><g fill="none"><path d="m386.12508 13038.273c13 74 51 141 36 258-22 165-160 204-322.999995 331 17.999995-80 54.999995-142 81.999995-219 37-105 166-224 205-370z"/><path d="m145.12508 13623.273c170-100 344-181 539-151 276 44 541.00002 134 854.00002 169-183 55-360 193-549.00002 165-309-45-747-263-844-183z"/><path d="m551.12508 13447.273c-19 1 182-274 187-463 6-257-255-350-374-531-26-41 51-86 97-108-8 31-42 76-25 111 114 231 441 313 496 564 47 217-297 393-381 427z"/><path d="m1420.1251 13389.273c73 0 133 47 133 105 0 57-60 104-133 104s-133-47-133-104c0-58 60-105 133-105z"/><path d="m1582.1251 11841.273c134 97 147 236 115 371-29 122-118 264-225 342-87-1-83-269-35-434 30-102 67-180 145-279z"/><path d="m1599.1251 12143.273c14 111-84 252-127 372" stroke-linecap="round"/><path d="m990.12508 12088.273c138.00002 1 302.00002 51 371.00002 164 68 111 62 300 43 426-43 17-226-193-297-310-54-88-84-183-117.00002-280z"/><path d="m1223.1251 12312.273c87 70 111 194 164 310" stroke-linecap="round"/><path d="m1829.1251 12396.273c-84 73-257 193-381 224" stroke-linecap="round"/><path d="m2131.1251 12153.273c19 165-132 294-253 360-111 61-297 154-427 127-57-65 167-306 321-381 96-47 234-97 359-106z"/><path d="m1230.1251 12596.273c57 0 103 74 103 164s-46 164-103 164c-56 0-102-74-102-164s46-164 102-164z"/><path d="m796.12508 13330.273c41-61 341.00002-355 569.00002-436 119-43 233 91 358 107 256 35 529-18 776 61 360 115 666 329 1000 508-114-8-226-7-332-47-299-113-560-316-867-405-206-61-432 7-646-13-102-10-190-48-289-22-205 55-510.00002 245-569.00002 247z"/><path d="m820.12508 13328.273c103-83 510.00002 39 715.00002-85 270-161 416-480 620-720 115-135 220-260 335-395-47 185-10 406-140 545-239 258-479 471-785 615-219 104-711.00002 54-745.00002 40z"/><path d="m1646.1251 13095.273c458-127 879-409 1354-412 309-1 607 34 905 30-242 82-458 235-745 235-479 1-982 26-1514 147z"/><path d="m3179.1251 12015.273c-293 308-620 604-974 858"/><path d="m2055.1251 13623.273c-301-50-304-200-660-245"/><path d="m1464.1251 12493.273c14 111-84 252-127 372" stroke-linecap="round"/><path d="m1753.1251 13237.273c101-9 231 47 298 109 84 77 122 200 154 304-106-12-245-29-332-109-73-68-115-213-120-304z"/><path d="m2344.1251 13146.273c47 67 85 189 72 278-14 100-84 178-151 263-44-99-80-214-64-322 11-80 57-178 143-219z"/><path d="m2783.1251 13541.273c-47 66-151 142-238 159-100 20-196-20-299-56 79-74 176-146 283-167 80-15 187-4 254 64z"/><path d="m2268.1251 13667.273c48 66 83 188 73 277-11 102-70 186-151 264-87-107-90-216-65-322 19-79 57-178 143-219z"/><path d="m2214.1251 13700.273c-47 67-167 216-255 233-99 19-212 18-289-20 37-128 170-268 291-270 81-2 186-10 253 57z"/><path d="m2303.1251 13667.273c83 10 180 75 225 137 55 76 64 168 40 263-96-22-188-39-216-133-22-78-47-196-49-267z"/></g><path d="m2267.1251 13544.273c85 0 155 72 155 161s-70 161-155 161c-86 0-156-72-156-161s70-161 156-161z" fill="#01411c"/><g fill="none"><path d="m2514.1251 12068.273c96-110 243-241 397-244 126-2 173 110 277 182-89 44-139 141-239 143-153 3-402-8-435-81z"/><path d="m2743.1251 11504.273c31 134 121 272 235 358 57 44 148 2 200-33-12-69 32-149-23-191-115-87-284-166-412-134z"/><path d="m3291.1251 11767.273c77 0 141 63 141 141s-64 141-141 141c-78 0-141-63-141-141s63-141 141-141z"/><path d="m3202.1251 11786.273c0-107-33-219 0-320 30-91 113-183 177-225 42 67 21 211 10 316-8 73-45 140-67 210-40 6-80 13-120 19z"/><path d="m3360.1251 11786.273c22-33 35-61 72-76 120-52 283-109 382-91-22 98-109 207-196 282-53 46-129 36-196 57 8-76-19-147-62-172z"/><path d="m3260.1251 12054.273c47 8 91 161 81 239-14 116-126 200-225 272-70-76-84-210-52-334 22-90 129-190 196-177z"/><path d="m3427.1251 11953.273c-23 57-72 87-134 105 42 58 66 132 124 173 74 51 188 122 278 133 3-73-5-191-43-248-51-77-150-109-225-163z"/><path d="m2763.1251 12666.273c808-274 1564-405 2270-397"/></g><path d="m5062.1251 12140.273c81 0 148 66 148 148s-67 148-148 148c-82 0-148-66-148-148s66-148 148-148z" fill="#01411c"/><g fill="none"><path d="m3031.1251 12947.273c295 58 642 154 921 269"/><path d="m3847.1251 13163.273c75-106 142-200 235-247 136-68 262-78 411-65-44 100-80 201-192 257-130 65-334 72-454 55z"/><path d="m3883.1251 13189.273c130-3 406 18 500 65 136 67 244 181 323 308-107 25-351-18-463-74-130-64-301-193-360-299z"/><path d="m4023.1251 13909.273c-93-92-184-188-215-288-46-145-19-265 18-410 92 60 216 168 253 287 44 139-20 294-56 411z"/><g stroke-linecap="round"><path d="m3844.1251 13207.273c53 142 93 289 105 448"/><path d="m3893.1251 13210.273c150 27 297 68 439 139"/><path d="m3833.1251 13225.273c116-98 241-185 386-250"/></g><path d="m4012.1251 12325.273c63-73 103-173 188-219 83-45 184-52 283-37-12 61-43 150-105 183-109 60-244 49-366 73z"/><path d="m3953.1251 12363.273c96-6 177-65 269-36 91 28 166 96 224 177-52 34-137 73-204 52-119-37-187-122-289-193z"/><path d="m5049.1251 12209.273c-5-96-72-197-42-288s117-196 200-253c33 52 107 202 85 269-39 118-171 170-243 272z"/><path d="m5048.1251 12291.273c-88-39-273-77-341-145-67-68-97-158-110-257 62-6 228-1 278 49 88 88 115 243 173 353z"/><path d="m4947.1251 12309.273c-56 78-39 163-119 215s-290 80-389 72c7-61 91-147 150-185 104-68 239-68 358-102z"/><path d="m4992.1251 12315.273c48 83 157 155 172 250 16 94-30 296-77 384-53-31-136-195-147-264-20-123 34-247 52-370z"/><path d="m5055.1251 12242.273c84-48 202-192 297-206 94-15 319 41 407 89-32 53-234 176-303 187-123 18-278-52-401-70z"/><path d="m5106.1251 12331.273c94 19 330-8 411 43 80 51 116 205 151 299-59 19-275-2-334-40-105-67-148-208-228-302z"/><path d="m4672.1251 10495.273c-391 491-535 1094-842 1531 849-298 1299-785 1119-1563"/><path d="m4178.1251 11285.273c-46-84-171-164-184-259-12-95 37-204 86-291 53 33 150 113 159 182 17 123-41 245-61 368z"/><path d="m4250.1251 11277.273c63-73 110-231 194-277 84-45 101 19 200 34-12 61-44 149-105 183-110 59-167 36-289 60z"/><path d="m4879.1251 10506.273c-129 16-244 29-341-8-142-55-234-142-324-261 104-35 202-75 319-30 136 52 277 199 346 299z"/><path d="m4873.1251 10462.273c-89-94-309-312-287-414 10-44 7-207.9995 49-350.9995 89 62 185 177 219 297 39 139.9995 59 352.9995 19 467.9995z"/><path d="m5138.1251 9803.2735c-5 130 53 289.9995 19 387.9995-48 139-97 229-229 298 6-87-44-189 28-474 36-140.9995 72-160.9995 182-211.9995z"/><g stroke-linecap="round"><path d="m4913.1251 10479.273c94-142 136-266 145-364"/><path d="m4882.1251 10440.273c-61-141-107-292-191-418"/><path d="m4934.1251 10475.273c-150-20-263-69-408-133"/></g><path d="m3760.1251 12092.273c195-36 406-22 583-109 608-296 979-718 1604-977 89-37 359 98 314 182-117 215-417 279-554 481-48 71 2 188 58 248 46-68 33-159 88-211 192-182 491-292 473-540-13-187-163-417-350-393-406 51-701 342-1042 568-235 156-433 366-671 518-155 100-335 156-503 233z"/><path d="m5473.1251 11101.273c350-239 628-274 802-7" stroke-linecap="round"/><path d="m4455.1251 11488.273c147-211 250-457 465-600 720-477 964-710 1001-758-272 309-492 638-795 917-191 176-453 300-671 441z"/><path d="m5132.1251 10741.273c198-335 361-609 305-851.9995-72-315-372-661-541-806-47 82 80 345 241 629 69 120 154 240 171 376.9995 22 174-104 484-176 652z"/><path d="m5614.1251 9977.2735c57-123 215-153 476-88"/><path d="m5337.1251 8578.2735c291 595 231 1221-11 1863.9995"/><path d="m5443.1251 10030.273c93-332.9995 173-701.9995 330-969.9995 150-259 470-422 770-418 196 3 311 245 358 435 21 82-127 265-246 365 31-157 195-447 158-588-33-129-253-123-382-88-291 78-513 279-623 600-93 267-332 664.9995-365 663.9995z"/><path d="m6402.1251 9030.2735c-209 328-446 678-712 806 135-290 193-632 406-870 347-388 824-627 1011-671 12 75-523 449-705 735z"/><path d="m5999.1251 9848.2735c94-90 129-156 229-184 147-42 220-47 282-39 14 99-69 197-145 211-218 40-270 37-366 12z"/><path d="m6030.1251 9880.2735c128 21 423 57 507 119 43 31.9995 168 113.9995 221 252.9995-118 41-303 46-412-20-124-75-278-235.9995-316-351.9995z"/><path d="m6215.1251 10528.273c-112-60-217-162-249-261-45-140-60-241 3-375.9995 49 73 149 124.9995 264 395.9995 56 134 39 133-18 241z"/><g stroke-linecap="round"><path d="m5988.1251 9890.2735c10 169.9995 118 389.9995 170 473.9995"/><path d="m6036.1251 9903.2735c134 75 262 167.9995 405 217.9995"/><path d="m5974.1251 9906.2735c127-92 257-156 363-178"/></g><path d="m5524.1251 9364.2735c-71-66-162-112-204-198-42-85-30-119-11-217 61 15 150 22 181 85 54 111 14 207 34 330z"/><path d="m5528.1251 9261.2735c1-96-65-247-29-337 34-88 89-50 175-102 29 55 62 143 36 208-45 116-104 135-182 231z"/></g><path d="m5291.1251 8263.2735c106 0 191 110 191 244s-85 244-191 244c-105 0-191-110-191-244s86-244 191-244z" fill="#01411c"/><g fill="none"><g stroke-linecap="round"><path d="m5172.1251 8115.2735 71 249"/><path d="m5540.1251 8144.2735-115 243"/><path d="m5674.1251 8550.2735-244 14"/><path d="m4971.1251 8454.2735 186 82"/></g><path d="m5310.1251 8421.2735c15-112 86-231 43-335-82-198-294-460-392-511-4 116-2 399 72 578 49 119 185 179 277 268z"/><path d="m5325.1251 8440.2735c20-137 28-277 62-411 42-169 208-283 287-320 17 59 12 158 9 248-10 284-190 427-358 483z"/><path d="m5387.1251 8473.2735c35-30 104-79 220-71 106 7 269 25 310 81-43 56-151 128-243 139-130 14-220-78-287-149z"/><path d="m5267.1251 8478.2735c-73-62-128-156-220-186-138-46-299-43-435-29 43 69 223 250 373 306 128 48 231-39 282-91z"/><path d="m5105.1251 8588.2735c-99 62-168 155-215 268 144-10 284-41 416-115z"/><path d="m6014.1251 8903.2735c40-319 240-659 120-957-171-426-717-1074-777-1094 50 181 529 797 673 1247 82 256-11 536-16 804z"/><path d="m6074.1251 8723.2735c137-513 321-828 530-1034"/></g><path d="m6697.1251 7487.2735c91 0 165 73 165 164 0 90-74 164-165 164-90 0-164-74-164-164 0-91 74-164 164-164z" fill="#01411c"/><g fill="none"><path d="m6167.1251 7979.2735c4-285 29-595 156-853 168-345 570-639 697-892 20 191-432 698-612 1067-106 215-161 452-241 678z"/><path d="m5417.1251 6261.2735c358 290 593 771 761 1412"/></g></g><path d="m5352.1251 6048.2735c90 0 164 74 164 164s-74 164-164 164c-91 0-164-74-164-164s73-164 164-164z" fill="#01411c"/><g stroke="#01411c"><g stroke-width="71"><g fill="none"><path d="m6462.1251 7115.2735c88 29 164 113 203 207 36 88 7 201 5 296-75-66-186-105-224-197-39-95-33-210 16-306z"/><path d="m7031.1251 7138.2735c23 89-1 259-58 343-54 78-176 77-256 127 14-98-14-213 43-295 58-84 163-164 271-175z"/><path d="m7261.1251 7672.2735c-62 68-171 92-272 89-95-3-187-64-272-105 90-41 177-111 276-108 102 3 200 39 268 124z"/><path d="m7017.1251 8164.2735c-92-11-183-79-240-164-52-79-46-195-63-289 86 50 204 67 259 150 57 85 73 199 44 303z"/><path d="m6469.1251 8169.2735c-51-77-37-190-9-288 25-92 96-163 156-236 18 98 54 192 27 288-27 98-76 190-174 236z"/><path d="m6094.1251 7628.2735c62-68 171-102 273-99 94 3 185 76 271 117-91 41-172 126-272 123-102-3-204-56-272-141z"/><path d="m5122.1251 5676.2735c88 29 164 114 203 208 36 87 7 200 5 295-75-65-186-105-224-197-39-94-33-209 16-306z"/><path d="m5725.1251 5782.2735c23 90-7 199-66 283-54 78-165 114-246 164 15-99-12-214 45-295 59-84 159-141 267-152z"/><path d="m5949.1251 6340.2735c-69 60-181 83-281 68-94-13-177-95-258-145 95-31 185-107 284-93 101 14 197 78 255 170z"/><path d="m4854.1251 6159.2735c66-65 176-93 278-84 94 8 181 86 264 132-92 36-179 116-278 108-102-9-201-68-264-156z"/><path d="m5038.1251 6666.2735c-21-90 12-199 71-281 56-77 168-111 249-160-16 99 8 214-50 295-60 82-162 137-270 146z"/><path d="m5654.1251 6710.2735c-91-12-182-80-239-165-52-79-2-141-19-234 86 50 154 45 209 128 57 85 79 166 49 271z"/></g><path d="m5904.1251 6998.2735c-46-22-99-32-134-69-34-36-33-55-39-108 33-2 79-12 104 15 45 48 40 103 69 162z" fill="#01411c"/><g fill="none"><path d="m5967.1251 7024.2735c-17-63-78-145-78-212 0-66 32-55 62-111 23 28 53 76 53 126 0 86-19 114-37 197z"/><path d="m6150.1251 7365.2735c3-272-31-400-4-668 21-196 365-687 462-727 32 35-228 316-282 573-41 201-131 622-176 822z"/><path d="m6491.1251 5722.2735c-280 310-385 702-345 1163"/></g><path d="m6518.1251 5572.2735c74 0 135 61 135 135 0 75-61 135-135 135-75 0-135-60-135-135 0-74 60-135 135-135z" fill="#01411c"/><path d="m6154.1251 6855.2735c-70-328-49-697-229-979-185-290-747-638-799-634 83 125 474 409 642 671 178 281 250 638 386 942z" fill="none"/><path d="m6041.1251 6585.2735 113 318-23 559-165-442 45-214-52-135z" fill="#01411c"/><g fill="none"><path d="m6398.1251 5797.2735c-65-66-123-285-113-439 7-113 76-295 120-318 61 26 133 198 128 281-13 196-69 427-135 476z"/><path d="m6393.1251 5806.2735c0-93 114-288 230-390 85-75 263-155 310-141 25 62-46 234-108 289-148 130-351 254-432 242z"/><path d="m6407.1251 5752.2735c88-30 309 16 443 92 99 57 168 176 170 226-51 43-237 20-309-21-170-97-289-216-304-297z"/><g stroke-linecap="round"><path d="m6431.1251 5347.2735c-22 125-25 250-7 375"/><path d="m6713.1251 5516.2735-147 124"/><path d="m6566.1251 5808.2735c29 80 83 83 162 113"/></g><path d="m5997.1251 5915.2735c-6-167-39-336-17-502 46-347 180-690 220-1032 60 13 90 164 79 248-58 435-205 767-282 1286z"/><path d="m4812.1251 2965.2735c-23 178-41 377 12 570"/><path d="m5985.1251 5729.2735c-13-104-227-575-428-801-172-193-436-278-654-417 3 82 328 408 501 603 188 211 410 376 581 615z"/><path d="m5884.1251 3980.2735c-140 280-260 758-79 1269"/><path d="m4071.1251 2416.2735c41 63 76 128 82 200 6 76-21 148-65 227-49-80-85-159-81-234 3-73 27-126 64-193z"/><path d="m3779.1251 2527.2735c72 22 140 49 192 99 53 54 80 126 98 215-89-29-168-66-214-125-44-58-61-114-76-189z"/><path d="m3657.1251 2887.2735c61-44 124-82 195-92 75-11 149 12 230 52-76 53-154 93-229 94-73 0-128-20-196-54z"/></g></g><path d="m3979.1251 2711.2735c51 0 92 43 92 96 0 54-41 97-92 97s-92-43-92-97c0-53 41-96 92-96z" fill="#01411c" stroke-width="8"/><path d="m4057.1251 2626.2735c51 0 92 43 92 97 0 53-41 96-92 96s-92-43-92-96c0-54 41-97 92-97z" fill="#01411c" stroke-width="8"/><g stroke-width="71"><path d="m5681.1251 4855.2735c-45-224-175-258-277-429-66-112-270-182-332-135 64 71 121 149 191 214 134 123 301 233 418 350z" fill="none"/><path d="m5881.1251 3811.2735c64 0 116 52 116 116s-52 115-116 115-116-51-116-115 52-116 116-116z" fill="#01411c"/><g fill="none"><path d="m4631.1251 3312.2735c-95-105-226-186-284-315-33-75 24-162 36-243 61 59 148 100 182 177 53 118 44 254 66 381z"/><path d="m5072.1251 3808.2735c-66-126-173-239-198-380-15-88 33-143 77-218 42 15 90 133 106 223 22 124 10 250 15 375z"/><path d="m5868.1251 3915.2735c-47-79-137-146-142-238-5-98 53-230 117-269 45 44 101 172 106 269 4 83-54 159-81 238z"/><path d="m5888.1251 3948.2735c-90 11-177 35-270 2-97-35-163-106-185-181 54-23 144-27 240 8 84 30 144 114 215 171z"/><path d="m5894.1251 3934.2735c-46 81-53 162-131 212-82 53-189 85-255 48 15-61 98-174 179-226 71-46 124-18 207-34z"/><path d="m5868.1251 3943.2735c55 75 125 128 138 219 14 97-5 239-66 284-49-40-86-158-100-253-12-83 9-168 28-250z"/><path d="m5923.1251 3918.2735c91-14 90 3 177 34 93 32 194 135 206 209-58 26-178 4-269-28-79-27-51-160-114-215z"/><path d="m5853.1251 3941.2735c45-80 58-192 135-242 82-53 226-69 291-33-15 61-98 174-179 226-71 46-165 33-247 49z"/><path d="m5615.1251 4721.2735c-110-225-236-444-305-684-78-277 11-445-131-847 164 233 263 517 344 801 67 233 70 488 92 730z"/><path d="m5305.1251 4153.2735c-116-225-412-596-694-816-148-116-355-106-538-152 27 83 385 229 578 380 218 170 585 522 654 588z"/><path d="m4738.1251 3925.2735c260 44 493 203 699 477"/></g><path d="m4702.1251 3778.2735c48 0 86 63 86 139 0 77-38 140-86 140-47 0-86-63-86-140 0-76 39-139 86-139z" fill="#01411c"/><g fill="none"><path d="m4697.1251 3909.2735c-56-51-125-115-205-117-78-2-184 85-197 106 12 13 143 104 229 107 68 2 126-47 173-96z"/><path d="m4730.1251 3923.2735c8-75 18-164-28-229-46-64-181-100-206-98-2 18 36 136 86 205 40 56 81 115 148 122z"/><path d="m4730.1251 3968.2735c-75-7-171 19-236 66-63 47-91 147-88 172 18 2 142 30 211-21 55-40 107-150 113-217z"/><path d="m4712.1251 3979.2735c-21 73-40 114-6 186 33 71 118 120 143 122 5-17 4-159-32-237-29-62-40-51-105-71z"/><path d="m-5000.8749 2799.2735c25 53 53 102 98 136 47 35 105 47 175 51-32-65-69-121-120-149-49-28-94-35-153-38z"/><path d="m-4807.8749 2653.2735c-15 57-26 113-14 167 13 57 50 104 101 153 17-70 25-138 5-192-19-53-49-87-92-128z"/><path d="m-4521.8749 2722.2735c-54 22-105 47-140 90-38 45-54 102-61 172 66-29 125-63 156-111 30-48 39-92 45-151z"/></g></g><path d="m-4769.8749 2860.2735c-21 34-9 79 26 100 34 22 80 13 101-20 21-34 9-79-25-101-35-21-81-12-102 21z" fill="#01411c" stroke-width="8"/><path d="m-4856.8749 2876.2735c-21 34-10 79 25 101s80 12 101-21 10-78-25-100-80-13-101 20z" fill="#01411c" stroke-width="8"/><path d="m-4065.8749 2842.2735c-1587 1298-2132 2983-2044 5174 93 2289.9995 2080 4591.9995 5306.99998 5321.9995 613 142 1063 475 1529 867" fill="none" stroke-width="71"/></g><path d="m-66.874915 13668.273c269.999995 203 531.999995 409 768.999995 623 50-15 81-51 110-89-262-221-536-422-829.999995-583z" fill="#01411c"/><g stroke="#01411c" stroke-width="71"><g fill="none"><path d="m-331.87492 13038.273c-13 74-51 141-36 258 22 165 160 204 323.000005 331-18-80-55-142-82.000005-219-37-105-166-224-205-370z"/><path d="m-90.874915 13623.273c-170.000005-100-344.000005-181-539.000005-151-276 44-540.99998 134-853.99998 169 183 55 360 193 548.99998 165 309-45 747-263 844.000005-183z"/><path d="m-496.87492 13447.273c19 1-182-274-187-463-6-257 255-350 374-531 26-41-51-86-97-108 8 31 42 76 25 111-114 231-441 313-496 564-47 217 297 393 381 427z"/><path d="m-1365.8749 13389.273c-73 0-133 47-133 105 0 57 60 104 133 104s133-47 133-104c0-58-60-105-133-105z"/><path d="m-1527.8749 11841.273c-134 97-147 236-115 371 29 122 118 264 225 342 87-1 83-269 35-434-30-102-67-180-145-279z"/><path d="m-1544.8749 12143.273c-14 111 84 252 127 372" stroke-linecap="round"/><path d="m-935.87492 12088.273c-137.99998 1-301.99998 51-370.99998 164-69 111-62 300-43 426 43 17 226-193 297-310 53.99998-88 83.99998-183 116.99998-280z"/><path d="m-1168.8749 12312.273c-87 70-111 194-164 310" stroke-linecap="round"/><path d="m-1774.8749 12396.273c84 73 257 193 381 224" stroke-linecap="round"/><path d="m-2076.8749 12153.273c-19 165 132 294 253 360 111 61 297 154 427 127 57-65-167-306-321-381-96-47-234-97-359-106z"/><path d="m-1176.8749 12596.273c-56 0-102 74-102 164s46 164 102 164c57 0 103-74 103-164s-46-164-103-164z"/><path d="m-741.87492 13330.273c-41-61-340.99998-355-568.99998-436-119-43-233 91-358 107-256 35-529-18-776 61-360 115-666 329-1000 508 114-8 226-7 332-47 299-113 560-316 867-405 206-61 432 7 646-13 102-10 190-48 289-22 205 55 509.99998 245 568.99998 247z"/><path d="m-765.87492 13328.273c-103-83-509.99998 39-714.99998-85-270-161-417-480-620-720-115-135-220-260-335-395 47 185 10 406 140 545 239 258 479 471 785 615 219 104 710.99998 54 744.99998 40z"/><path d="m-1591.8749 13095.273c-458-127-879-409-1354-412-309-1-607 34-905 30 242 82 458 235 745 235 479 1 982 26 1514 147z"/><path d="m-3124.8749 12015.273c293 308 620 604 974 858"/><path d="m-2000.8749 13623.273c301-50 304-200 660-245"/><path d="m-1409.8749 12493.273c-14 111 84 252 127 372" stroke-linecap="round"/><path d="m-1698.8749 13237.273c-101-9-231 47-298 109-84 77-122 200-154 304 106-12 245-29 332-109 73-68 115-213 120-304z"/><path d="m-2289.8749 13146.273c-47 67-85 189-72 278 14 100 84 178 151 263 44-99 80-214 64-322-12-80-57-178-143-219z"/><path d="m-2728.8749 13541.273c47 66 151 142 238 159 100 20 196-20 299-56-79-74-176-146-283-167-80-15-187-4-254 64z"/><path d="m-2213.8749 13667.273c-48 66-83 188-73 277 11 102 70 186 151 264 87-107 90-216 65-322-19-79-57-178-143-219z"/><path d="m-2159.8749 13700.273c47 67 167 216 255 233 99 19 212 18 289-20-37-128-170-268-291-270-81-2-186-10-253 57z"/><path d="m-2248.8749 13667.273c-83 10-180 75-225 137-55 76-64 168-40 263 96-22 188-39 216-133 22-78 47-196 49-267z"/></g><path d="m-2212.8749 13544.273c-85 0-155 72-155 161s70 161 155 161c86 0 156-72 156-161s-70-161-156-161z" fill="#01411c"/><g fill="none"><path d="m-2459.8749 12068.273c-96-110-243-241-397-244-126-2-173 110-277 182 89 44 139 141 239 143 153 3 402-8 435-81z"/><path d="m-2688.8749 11504.273c-31 134-121 272-235 358-57 44-148 2-200-33 12-69-32-149 23-191 115-87 284-166 412-134z"/><path d="m-3236.8749 11767.273c-77 0-141 63-141 141s64 141 141 141c78 0 141-63 141-141s-63-141-141-141z"/><path d="m-3147.8749 11786.273c0-107 33-219 0-320-30-91-113-183-177-225-42 67-21 211-10 316 8 73 45 140 67 210 40 6 80 13 120 19z"/><path d="m-3305.8749 11786.273c-22-33-35-61-72-76-120-52-283-109-382-91 22 98 109 207 196 282 53 46 129 36 196 57-8-76 19-147 62-172z"/><path d="m-3205.8749 12054.273c-47 8-91 161-81 239 14 116 126 200 225 272 70-76 84-210 52-334-22-90-129-190-196-177z"/><path d="m-3372.8749 11953.273c23 57 72 87 134 105-42 58-66 132-124 173-74 51-188 122-278 133-3-73 5-191 43-248 51-77 150-109 225-163z"/><path d="m-2708.8749 12666.273c-808-274-1564-405-2270-397"/></g><path d="m-5007.8749 12140.273c-81 0-148 66-148 148s67 148 148 148c82 0 148-66 148-148s-66-148-148-148z" fill="#01411c"/><g fill="none"><path d="m-2976.8749 12947.273c-295 58-642 154-921 269"/><path d="m-3792.8749 13163.273c-75-106-142-200-235-247-136-68-262-78-411-65 44 100 80 201 192 257 130 65 333 72 454 55z"/><path d="m-3828.8749 13189.273c-130-3-406 18-500 65-136 67-244 181-323 308 107 25 351-18 463-74 130-64 301-193 360-299z"/><path d="m-3968.8749 13909.273c93-92 184-188 215-288 46-145 19-265-18-410-92 60-216 168-253 287-44 139 20 294 56 411z"/><g stroke-linecap="round"><path d="m-3789.8749 13207.273c-53 142-93 289-105 448"/><path d="m-3838.8749 13210.273c-150 27-297 68-439 139"/><path d="m-3778.8749 13225.273c-116-98-241-185-386-250"/></g><path d="m-3957.8749 12325.273c-63-73-103-173-188-219-83-45-184-52-283-37 12 61 43 150 105 183 109 60 244 49 366 73z"/><path d="m-3898.8749 12363.273c-96-6-177-65-269-36-91 28-166 96-224 177 52 34 137 73 204 52 119-37 187-122 289-193z"/><path d="m-4994.8749 12209.273c5-96 72-197 42-288s-117-196-200-253c-33 52-107 202-85 269 39 118 171 170 243 272z"/><path d="m-4993.8749 12291.273c88-39 273-77 341-145 67-68 97-158 110-257-62-6-228-1-278 49-88 88-115 243-173 353z"/><path d="m-4892.8749 12309.273c56 78 39 163 119 215s290 80 389 72c-7-61-91-147-150-185-104-68-239-68-358-102z"/><path d="m-4937.8749 12315.273c-48 83-157 155-172 250-16 94 30 296 77 384 53-31 136-195 147-264 20-123-34-247-52-370z"/><path d="m-5000.8749 12242.273c-84-48-202-192-297-206-94-15-319 41-407 89 32 53 234 176 303 187 123 18 278-52 401-70z"/><path d="m-5051.8749 12331.273c-94 19-330-8-411 43-80 51-116 205-151 299 59 19 275-2 334-40 105-67 148-208 228-302z"/><path d="m-4617.8749 10495.273c391 491 535 1094 842 1531-849-298-1299-785-1119-1563"/><path d="m-4123.8749 11285.273c46-84 171-164 184-259 12-95-37-204-86-291-53 33-150 113-159 182-17 123 41 245 61 368z"/><path d="m-4195.8749 11277.273c-63-73-110-231-194-277-84-45-101 19-200 34 12 61 44 149 105 183 110 59 167 36 289 60z"/><path d="m-4824.8749 10506.273c129 16 244 29 341-8 142-55 234-142 324-261-104-35-202-75-319-30-136 52-277 199-346 299z"/><path d="m-4818.8749 10462.273c89-94 309-312 287-414-10-44-7-207.9995-49-350.9995-89 62-185 177-219 297-39 139.9995-59 352.9995-19 467.9995z"/><path d="m-5083.8749 9803.2735c5 130-53 289.9995-19 387.9995 48 139 97 229 229 298-6-87 44-189-28-474-36-140.9995-72-160.9995-182-211.9995z"/><g stroke-linecap="round"><path d="m-4858.8749 10479.273c-94-142-136-266-145-364"/><path d="m-4827.8749 10440.273c61-141 107-292 191-418"/><path d="m-4879.8749 10475.273c150-20 263-69 408-133"/></g><path d="m-3705.8749 12092.273c-195-36-406-22-583-109-608-296-979-718-1604-977-89-37-359 98-314 182 117 215 417 279 554 481 48 71-2 188-58 248-46-68-33-159-88-211-192-182-491-292-473-540 13-187 163-417 350-393 406 51 701 342 1042 568 235 156 433 366 671 518 155 100 335 156 503 233z"/><path d="m-5418.8749 11101.273c-350-239-628-274-802-7" stroke-linecap="round"/><path d="m-4400.8749 11488.273c-147-211-250-457-465-600-720-477-964-710-1001-758 272 309 492 638 795 917 191 176 453 300 671 441z"/><path d="m-5077.8749 10741.273c-198-335-361-609-305-851.9995 72-315 372-661 541-806 47 82-80 345-242 629-68 120-153 240-170 376.9995-22 174 104 484 176 652z"/><path d="m-5559.8749 9977.2735c-57-123-215-153-476-88"/><path d="m-5282.8749 8578.2735c-291 595-231 1221 11 1863.9995"/><path d="m-5388.8749 10030.273c-93-332.9995-173-701.9995-330-969.9995-150-259-470-422-770-418-196 3-311 245-359 435-20 82 128 265 247 365-31-157-195-447-158-588 33-129 253-123 382-88 291 78 513 279 623 600 93 267 332 664.9995 365 663.9995z"/><path d="m-6347.8749 9030.2735c209 328 446 678 712 806-135-290-193-632-406-870-347-388-824-627-1011-671-12 75 523 449 705 735z"/><path d="m-5944.8749 9848.2735c-94-90-129-156-229-184-147-42-220-47-282-39-14 99 69 197 145 211 218 40 270 37 366 12z"/><path d="m-5975.8749 9880.2735c-128 21-423 57-507 119-43 31.9995-168 113.9995-221 252.9995 118 41 303 46 412-20 124-75 278-235.9995 316-351.9995z"/><path d="m-6160.8749 10528.273c112-60 217-162 249-261 45-140 60-241-3-375.9995-49 73-149 124.9995-264 395.9995-56 134-39 133 18 241z"/><g stroke-linecap="round"><path d="m-5933.8749 9890.2735c-10 169.9995-118 389.9995-170 473.9995"/><path d="m-5981.8749 9903.2735c-134 75-262 167.9995-405 217.9995"/><path d="m-5919.8749 9906.2735c-127-92-257-156-363-178"/></g><path d="m-5469.8749 9364.2735c71-66 162-112 204-198 42-85 30-119 11-217-61 15-150 22-181 85-54 111-14 207-34 330z"/><path d="m-5473.8749 9261.2735c-1-96 65-247 29-337-34-88-89-50-175-102-29 55-62 143-36 208 45 116 104 135 182 231z"/></g><path d="m-5236.8749 8263.2735c-106 0-191 110-191 244s85 244 191 244c105 0 191-110 191-244s-86-244-191-244z" fill="#01411c"/><g fill="none"><g stroke-linecap="round"><path d="m-5117.8749 8115.2735-71 249"/><path d="m-5485.8749 8144.2735 115 243"/><path d="m-5619.8749 8550.2735 244 14"/><path d="m-4916.8749 8454.2735-186 82"/></g><path d="m-5255.8749 8421.2735c-15-112-86-231-43-335 82-198 294-460 392-511 4 116 2 399-72 578-49 119-185 179-277 268z"/><path d="m-5270.8749 8440.2735c-20-137-28-277-62-411-42-169-208-283-287-320-17 59-12 158-9 248 10 284 190 427 358 483z"/><path d="m-5332.8749 8473.2735c-35-30-104-79-220-71-106 7-269 25-310 81 43 56 151 128 243 139 130 14 220-78 287-149z"/><path d="m-5212.8749 8478.2735c73-62 128-156 220-186 138-46 299-43 435-29-43 69-223 250-373 306-128 48-231-39-282-91z"/><path d="m-5050.8749 8588.2735c99 62 168 155 215 268-144-10-284-41-416-115z"/><path d="m-5959.8749 8903.2735c-40-319-240-659-120-957 171-426 717-1074 777-1094-50 181-529 797-673 1247-82 256 11 536 16 804z"/><path d="m-6019.8749 8723.2735c-137-513-321-828-530-1034"/></g><path d="m-6642.8749 7487.2735c-91 0-165 73-165 164 0 90 74 164 165 164 90 0 164-74 164-164 0-91-74-164-164-164z" fill="#01411c"/><g fill="none"><path d="m-6112.8749 7979.2735c-4-285-29-595-156-853-168-345-570-639-697-892-20 191 432 698 612 1067 106 215 161 452 241 678z"/><path d="m-5363.8749 6261.2735c-357 290-592 771-760 1412"/></g></g><path d="m-5297.8749 6048.2735c-90 0-164 74-164 164s74 164 164 164c91 0 164-74 164-164s-73-164-164-164z" fill="#01411c"/><g stroke="#01411c"><g stroke-width="71"><g fill="none"><path d="m-6407.8749 7115.2735c-88 29-164 113-203 207-36 88-7 201-5 296 75-66 186-105 224-197 39-95 33-210-16-306z"/><path d="m-6976.8749 7138.2735c-23 89 1 259 58 343 54 78 176 77 256 127-14-98 14-213-43-295-58-84-163-164-271-175z"/><path d="m-7206.8749 7672.2735c62 68 171 92 272 89 95-3 187-64 272-105-90-41-177-111-276-108-102 3-200 39-268 124z"/><path d="m-6962.8749 8164.2735c92-11 183-79 240-164 52-79 46-195 63-289-86 50-204 67-259 150-57 85-73 199-44 303z"/><path d="m-6414.8749 8169.2735c51-77 37-190 9-288-25-92-96-163-156-236-18 98-54 192-27 288 27 98 76 190 174 236z"/><path d="m-6039.8749 7628.2735c-63-68-171-102-273-99-94 3-185 76-271 117 90 41 172 126 272 123 102-3 204-56 272-141z"/><path d="m-5067.8749 5676.2735c-88 29-164 114-203 208-36 87-7 200-5 295 75-65 186-105 224-197 39-94 33-209-16-306z"/><path d="m-5670.8749 5782.2735c-23 90 7 199 66 283 54 78 165 114 246 164-15-99 12-214-45-295-59-84-160-141-267-152z"/><path d="m-5894.8749 6340.2735c69 60 181 83 281 68 94-13 177-95 258-145-95-31-186-107-284-93-101 14-197 78-255 170z"/><path d="m-4799.8749 6159.2735c-66-65-176-93-278-84-94 8-181 86-264 132 92 36 179 116 278 108 102-9 201-68 264-156z"/><path d="m-4983.8749 6666.2735c21-90-12-199-71-281-56-77-168-111-249-160 16 99-8 214 50 295 60 82 162 137 270 146z"/><path d="m-5599.8749 6710.2735c91-12 182-80 239-165 52-79 2-141 19-234-86 50-154 45-209 128-57 85-79 166-49 271z"/></g><path d="m-5849.8749 6998.2735c46-22 99-32 134-69 34-36 33-55 39-108-33-2-79-12-104 15-45 48-40 103-69 162z" fill="#01411c"/><g fill="none"><path d="m-5912.8749 7024.2735c17-63 78-145 78-212 0-66-32-55-62-111-23 28-53 76-53 126 0 86 19 114 37 197z"/><path d="m-6095.8749 7365.2735c-3-272 31-400 4-668-21-196-365-687-462-727-32 35 228 316 282 573 41 201 131 622 176 822z"/><path d="m-6436.8749 5722.2735c280 310 385 702 345 1163"/></g><path d="m-6463.8749 5572.2735c-74 0-135 61-135 135 0 75 61 135 135 135 75 0 135-60 135-135 0-74-60-135-135-135z" fill="#01411c"/><path d="m-6099.8749 6855.2735c70-328 49-697 229-979 185-290 747-638 799-634-83 125-474 409-642 671-178 281-250 638-386 942z" fill="none"/><path d="m-5986.8749 6585.2735-113 318 23 559 165-442-45-214 52-135z" fill="#01411c"/><g fill="none"><path d="m-6343.8749 5797.2735c65-66 123-285 113-439-7-113-76-295-120-318-61 26-133 198-128 281 13 196 69 427 135 476z"/><path d="m-6338.8749 5806.2735c0-93-114-288-230-390-85-75-263-155-310-141-25 62 46 234 108 289 148 130 351 254 432 242z"/><path d="m-6352.8749 5752.2735c-88-30-309 16-443 92-99 57-168 176-170 226 51 43 237 20 309-21 170-97 289-216 304-297z"/><g stroke-linecap="round"><path d="m-6376.8749 5347.2735c22 125 25 250 7 375"/><path d="m-6658.8749 5516.2735 147 124"/><path d="m-6511.8749 5808.2735c-29 80-83 83-162 113"/></g><path d="m-5942.8749 5915.2735c6-167 39-336 17-502-46-347-180-690-220-1032-60 13-90 164-79 248 58 435 205 767 282 1286z"/><path d="m-4757.8749 2965.2735c23 178 41 377-12 570"/><path d="m-5930.8749 5729.2735c13-104 227-575 428-801 172-193 436-278 654-417-3 82-328 408-502 603-187 211-409 376-580 615z"/><path d="m-5829.8749 3980.2735c140 280 260 758 79 1269"/><path d="m-4016.8749 2416.2735c-41 63-76 128-82 200-6 76 21 148 65 227 49-80 85-159 81-234-3-73-27-126-64-193z"/><path d="m-3724.8749 2527.2735c-72 22-140 49-192 99-53 54-80 126-98 215 89-29 168-66 214-125 44-58 61-114 76-189z"/><path d="m-3602.8749 2887.2735c-61-44-124-82-195-92-75-11-149 12-230 52 76 53 154 93 229 94 73 0 128-20 196-54z"/></g></g><path d="m-3924.8749 2711.2735c-51 0-92 43-92 96 0 54 41 97 92 97s92-43 92-97c0-53-41-96-92-96z" fill="#01411c" stroke-width="8"/><path d="m-4002.8749 2626.2735c-51 0-92 43-92 97 0 53 41 96 92 96s92-43 92-96c0-54-41-97-92-97z" fill="#01411c" stroke-width="8"/><g stroke-width="71"><path d="m-5626.8749 4855.2735c45-224 175-258 276-429 67-112 271-182 333-135-64 71-121 149-192 214-133 123-300 233-417 350z" fill="none"/><path d="m-5826.8749 3811.2735c-64 0-116 52-116 116s52 115 116 115 116-51 116-115-52-116-116-116z" fill="#01411c"/><g fill="none"><path d="m-4576.8749 3312.2735c95-105 226-186 284-315 33-75-24-162-36-243-61 59-148 100-182 177-53 118-44 254-66 381z"/><path d="m-5017.8749 3808.2735c66-126 173-239 198-380 15-88-33-143-77-218-42 15-90 133-106 223-22 124-10 250-15 375z"/><path d="m-5813.8749 3915.2735c47-79 137-146 142-238 5-98-53-230-117-269-45 44-101 172-106 269-4 83 54 159 81 238z"/><path d="m-5833.8749 3948.2735c90 11 177 35 270 2 97-35 163-106 185-181-54-23-144-27-240 8-84 30-144 114-215 171z"/><path d="m-5839.8749 3934.2735c46 81 53 162 131 212 82 53 189 85 255 48-15-61-98-174-179-226-71-46-124-18-207-34z"/><path d="m-5813.8749 3943.2735c-55 75-125 128-138 219-14 97 5 239 66 284 49-40 86-158 100-253 12-83-9-168-28-250z"/><path d="m-5868.8749 3918.2735c-91-14-90 3-177 34-93 32-194 135-206 209 58 26 178 4 269-28 79-27 51-160 114-215z"/><path d="m-5798.8749 3941.2735c-45-80-58-192-135-242-82-53-226-69-291-33 15 61 98 174 179 226 71 46 165 33 247 49z"/><path d="m-5560.8749 4721.2735c110-225 236-444 305-684 78-277-11-445 131-847-164 233-263 517-344 801-67 233-70 488-92 730z"/><path d="m-5250.8749 4153.2735c116-225 412-596 694-816 148-116 355-106 538-152-27 83-385 229-578 380-218 170-585 522-654 588z"/><path d="m-4683.8749 3925.2735c-260 44-493 203-699 477"/></g><path d="m-4647.8749 3778.2735c-48 0-86 63-86 139 0 77 38 140 86 140 47 0 86-63 86-140 0-76-39-139-86-139z" fill="#01411c"/><g fill="none"><path d="m-4642.8749 3909.2735c56-51 125-115 205-117 78-2 184 85 197 106-12 13-143 104-229 107-68 2-126-47-173-96z"/><path d="m-4675.8749 3923.2735c-8-75-18-164 28-229 46-64 181-100 206-98 2 18-36 136-86 205-40 56-81 115-148 122z"/><path d="m-4675.8749 3968.2735c75-7 171 19 236 66 63 47 91 147 88 172-18 2-142 30-211-21-55-40-107-150-113-217z"/><path d="m-4657.8749 3979.2735c21 73 40 114 6 186-33 71-118 120-143 122-5-17-4-159 32-237 29-62 40-51 105-71z"/></g></g></g></svg>