<svg height="217pt" viewBox="0 0 325 217" width="325pt" xmlns="http://www.w3.org/2000/svg"><g fill="#00ceff"><path d="m0 0h325v217h-325zm134.02 4.38c-.53 4.82-.29 9.68-.45 14.52.58.2 1.75.6 2.33.8.86 2.64.94 5.46 1.39 8.18.97.68 2.02 1.39 1.84 2.74-1.52.12-3.05.14-4.57.17-2.88-3.5-5.82-6.94-8.74-10.41-.48.42-1.45 1.26-1.93 1.68-1.23-1.48-2.39-3.04-3.78-4.38-5.23.8-9.07-3.53-13.69-5.2 3.01 3.71 6.91 6.76 11.21 8.85 1.9.96 3.11 2.76 4.4 4.37.71.05 2.11.15 2.81.2 1.46 1.61 2.93 3.21 4.39 4.82-7.62.05-15.25-.09-22.87.08-4.44 2.92-10.11.79-15.03 2.08 5.21 2.23 11.24 1.59 16.8 2.47.19-.54.57-1.62.76-2.16 6.99.17 13.99.34 20.98.37-3.99 4.3-7.87 8.71-11.68 13.15.19.51.56 1.53.75 2.04-2.07 4.31-4.85 8.25-6.74 12.64 2.1-.98 3.11-3.18 4.54-4.88 2.77-3.9 6.4-7.28 8.16-11.82 2.33-3.6 5.6-6.47 8.32-9.76.39 7.28-.95 14.65-.04 21.88.32.12.96.38 1.28.51 1.87-1.88 3.35-4.08 4.99-6.15-2.01 0-4.02-.01-6.02-.04 2.03-2.7 4.03-5.42 6.11-8.09-1.77-.06-3.67.62-5.33-.23-.53-2.63 3.68-.94 5.26-1.54-1.88-2.29-3.8-4.55-5.49-6.98 4.03.67 5.53 5.34 8.32 7.85-1.96 2.34-3.75 4.82-5.63 7.22 2.18.07 4.36.12 6.54.21-.12-3.91-.44-7.81-.14-11.72 2.65 3.53 5.11 7.19 7.5 10.9-.16.75-.5 2.27-.67 3.03 2.9 2.75 6.01 5.3 9.35 7.5-1.61-2.86-3.51-5.56-5.33-8.29.18-.65.55-1.93.73-2.57-3.66-4.87-6.93-10.02-10.66-14.84 8.05-.82 12.54 7.3 19.85 8.8 2.94.94 4.89 4.39 7.97 4.56-.32-1.62-2.08-2.53-2.99-3.84-2.19-1.92-3.61-5.82-7.17-4.62-2.38-1.99-4.49-4.31-6.92-6.24-2.37-.57-4.85-.83-6.96-2.17 3.32-3.71 8.33-6.18 10.39-10.85 1.94-2.59 4.53-4.64 6.29-7.37-3.42 1.7-6.62 3.83-9.8 5.95-1.56.83-1.54 2.86-2.71 4.01-3.03 2.8-6.26 5.36-9.47 7.93-.28-1.9-.57-3.79-.89-5.68-2.39-1.87-2.09-5.12-2.71-7.78-.52-.21-1.54-.62-2.06-.82-.73-3.74-1.22-7.57-2.79-11.08m34.44 4.99c-.64 6.15-.61 12.34-.78 18.51 3.17 2.74 2.2 7.53 3.22 11.24.41.3 1.21.91 1.62 1.22.04 2.74.79 5.59.06 8.28-2.98 3.04-6.96 5.26-8.93 9.17-1.53 2.64-3.9 4.61-5.99 6.78.33.66.67 1.32 1.01 1.98-2.39 4.52-5.16 8.88-6.88 13.71 4.87-4.66 8.59-10.34 13.06-15.37 1.77-2.55 4.92-4.65 4.64-8.11 1.36-1.42 2.73-2.81 4.13-4.19-.04.77-.13 2.32-.17 3.09 2.11-.2 4.22-.37 6.34-.52-1.92-2.46-4.52-4.55-5.33-7.71 3.48 2.07 5.47 5.77 8.21 8.62-2.12 2.26-3.96 4.75-5.71 7.3 1.99.05 3.98.09 5.98.14-1.8 2.49-3.82 4.81-5.76 7.19 1.54.13 3.1.11 4.61.47.15.28.45.84.6 1.12-2.07.43-4.19.43-6.28.47 2.13 2.44 4.37 4.78 6.42 7.29-1.9.07-3.8.13-5.7.24 2.01 1.88 4.32 3.4 6.86 4.48-.07-11.5-.78-22.95-.97-34.46 2.1 1.79 4.16 3.63 6.22 5.47-.49 1.08-.97 2.17-1.44 3.26 2.67 2.79 7.49 4.7 7.41 9.11 4.19 3.51 7.99 7.51 12.53 10.56-1.82-3.8-3.99-7.42-6.23-10.98.27-1.21.55-2.43.84-3.64-2.64-2.05-5.36-3.99-8.01-6.02.16-.91.5-2.72.66-3.63-2.03-2.1-5.32-3.19-6.66-5.75 3.7-1.06 7.69-1.16 11.2-2.85.2-.46.6-1.38.8-1.84 3.17-.64 6.49-.78 9.46-2.14 5.45-2.59 11.67-2.55 17.24-4.72-7.26-.63-14.54.24-21.8.25-1.78 4.1-7.26 3.14-10.89 4.19-.15.53-.45 1.6-.6 2.13-3.44.8-6.93 1.38-10.35 2.27 3.44-4.34 6.94-8.63 10.55-12.83.84.27 2.53.8 3.38 1.07 4.59-6.63 9.27-13.2 13.84-19.85-.36.03-1.07.09-1.42.12-4.52 4.63-9.1 9.2-13.41 14.02-.8-.29-2.38-.88-3.17-1.17-5.34 6.47-10.12 13.41-15.84 19.55-.82-5-.69-10.19-2.4-15.01-.84-2.93-1.1-5.99-1.48-9-.43-.23-1.28-.68-1.71-.9-.92-4.22-1.61-8.51-2.98-12.61m-31.55 47.56c2.13.2 4.25.54 6.31 1.12-.04-2.81-.05-5.62-.12-8.43-2.27 2.26-4.2 4.81-6.19 7.31m36.54.23c-.07 7.22-.24 14.45-.6 21.66 2.13-.05 4.25-.09 6.38-.15-1.82-2.06-3.63-4.11-5.43-6.18 2.02-2.53 4.04-5.05 5.99-7.63-1.91-.08-3.81-.14-5.72-.24 1.73-2.53 3.63-4.93 5.33-7.47-1.98-.01-3.96 0-5.95.01m-40.21 1.76c-.5 1.97-.62 4.01-.83 6.03 2.18-.1 4.37-.17 6.56-.19-1.79-2.06-3.48-4.26-5.73-5.84m2.56-.18c2.25 2.59 4.56 5.14 6.73 7.8-1.92.02-3.84.05-5.76.07 1.86 1.52 3.77 2.98 5.55 4.59-1.72.67-3.49 1.22-5.24 1.8 1.9 1.36 3.39 3.69 5.81 4.12.98-6.03.08-12.3.38-18.43-2.49.18-4.98.14-7.47.05m-2.76 12.29c1.88.89 3.93.09 5.85-.15-1.71-1.84-3.62-3.47-5.31-5.33-.61 1.6-2.18 4.29-.54 5.48m.1 2.13c-.15.37-.45 1.11-.61 1.49-.13 8.64-.72 17.3-.24 25.93 2.73-1.86 4.88-4.35 6.92-6.91-2.24-.05-4.49-.09-6.71-.35 1.8-1.65 4.36-.94 6.55-1.15-2.09-2.46-4.26-4.84-6.29-7.35 2.38.04 4.75.15 7.13.28-2.25-2.49-4.54-4.93-6.81-7.39 1.93-.36 3.86-.68 5.79-1-1.85-1.15-3.32-4.32-5.73-3.55m3.34 5.74c2.16 2.64 4.44 5.19 6.9 7.55-.22-2.71.57-5.68-.57-8.24-2.13-.14-4.23.43-6.33.69m36.39.02c-.05 2.45-.1 4.91-.16 7.36 2.21-.51 4.38-1.17 6.53-1.94-2.16-1.77-4.3-3.55-6.37-5.42m8.88 5.47.11 1.49c-1.61.21-3.21.43-4.82.66 2.13 1.92 4.4 3.67 6.61 5.49.03-1.96.05-3.93.06-5.89-.65-.59-1.3-1.18-1.96-1.75m-45.46 2.11c1.86 2.2 3.8 4.35 5.67 6.55-1.8 1.88-3.51 3.85-5.16 5.88 2.25-.01 4.5-.06 6.74-.1-.02-4.1-.12-8.21-.09-12.31-2.39 0-4.78-.03-7.16-.02m36.42 0c.13 3.77-.99 7.81.4 11.4 1.94 1.36 4.46.56 6.63.91-1.97-2.48-4.12-4.82-6.2-7.22 2.02-.33 4.04-.66 6.05-1.02-2.17-1.56-4.47-2.93-6.88-4.07m4.03 6.15c2.17 2.75 4.62 5.25 6.91 7.89-2.43 0-4.87-.1-7.29-.2 2.2 2.43 4.47 4.81 6.88 7.04-1.24.83-2.48 1.65-3.76 2.43-.85 1.08-1.7 2.16-2.55 3.24 2.28-.14 4.56-.29 6.85-.4-.72-6.69.59-13.37.05-20.07-2.36.12-4.73.04-7.09.07m-19.23 6.11c-.01 3.3.24 6.61-.09 9.9-.38.34-1.14 1.03-1.52 1.37-.23-3.47-.16-6.94-.22-10.41-3.8.07-7.61.06-11.41.03.02 6.16.31 12.31.42 18.47 2.6-.93 5.22-1.81 7.89-2.55.16 12.86.04 25.72.06 38.58-11.31.08-22.63.04-33.94 0 .71-9.51 4.38-18.65 10.66-25.85.54-.2 1.63-.62 2.17-.83-.24 3.55-.29 7.11-.17 10.66 2.96-2.45 6.02-4.79 8.9-7.34-2.92.01-5.84.06-8.75-.02 2.53-2.36 5.32-4.43 7.81-6.83-2.13-.12-4.32.06-6.36-.7 1.89-2.28 5.38-.89 7.95-1.33-2.91-2.48-5.81-4.98-8.62-7.58-.09 4.52.17 9.06-.29 13.57-1.77-2.71-.33-6.16-.71-9.16-14.72 10.37-22.39 29.87-17.85 47.43 3.1 14.39 13.85 26.63 27.32 32.32 10.07 4.59 21.69 4.85 32.3 2.11 12.46-3.86 23.53-12.62 29.35-24.4 4.78-9.94 6.47-21.66 3.15-32.31-2.89-11.3-10.63-21.08-20.5-27.15-.25 2.69.78 5.77-1.02 8.11.03-1.02.11-3.07.14-4.1-2.49.32-4.99.54-7.48.8 2.58 2.37 5.27 4.63 7.95 6.9-.06-.96-.17-2.86-.23-3.82.54.09 1.62.25 2.16.34 5.16 5.21 9.96 11.16 11.94 18.36 2.86 7.97 2.79 16.94-.24 24.86-1.99-1.57-3.67-3.48-5.14-5.52-2.04 2.47-4.16 4.88-6.29 7.28-.67-1.24-1.69-2.42-1.58-3.93-.24-4.5-.11-9.02-.47-13.51-3.3 2.88-6.52 5.83-9.85 8.68 3.02-.11 6.01-.52 9.02-.77-.33.77-.67 1.54-1.01 2.32-3.85-.01-7.7.05-11.54-.18 3.12-3.3 6.62-6.21 9.97-9.25-3.33-.08-6.67-.14-10-.18-.08 3.64-.24 7.29-.29 10.93-.5-.3-1.51-.89-2.01-1.19-2.49 2.25-4.43 5.01-6.89 7.29-1.81-2.3-3.51-4.68-5.24-7.03-2.27 2.15-4.29 4.55-6.55 6.69-2.96-1.64-4.78-4.74-7.28-6.98-2.6 2.43-4.96 5.2-7.96 7.15-2.44-1.87-4.38-4.3-6.65-6.37-2.16 2.49-4.33 4.99-6.65 7.34-1.28-4.46-2.61-8.92-3.18-13.54 12.25.13 24.56-.66 36.76.47.31-14.22-.38-28.51.34-42.7 5.24-.57 10.51.23 15.55 1.67 0-5.61.43-11.23.21-16.83l-2.06-.88c-.16 2.86-.16 5.73-.11 8.59-.5.04-1.48.12-1.97.16.05-2.5.06-5.01.11-7.51-1.36-.01-2.7-.02-4.05-.03.06 3.04.06 6.08.13 9.12-.61-.06-1.83-.17-2.45-.22.04-3.47.08-6.94-.29-10.38-.84-.03-2.51-.09-3.35-.12m15.74 1.05c-.47 2.18-.58 4.41-.77 6.63 2.15-.5 4.35-.73 6.55-.87-1.83-2-3.42-4.35-5.78-5.76m-41.16.98c-.41 1.63.51 4.26-1.83 4.63-8.9 3.84-16.1 10.86-20.88 19.22 3.12 2.31 6.53 4.2 9.72 6.43 3.31-4.98 7.11-9.72 12.15-13.04.01-4.19.14-8.39-.26-12.57 1.48-.04 3.12.59 4.52-.07 1.72-1.36 3.07-3.12 4.66-4.62-2.69.13-5.39.17-8.08.02m5.34 4.9c2.03-.1 4.06-.12 6.1-.08-.12-1.95-.22-3.91-.31-5.86-1.92 1.99-3.83 4-5.79 5.94m47.58 10.2c5.33 3.66 10.29 7.86 14.03 13.21 3.27-1.77 5.99-4.37 8.93-6.61-.16-.89-.48-1.71-.96-2.48-5.31-8.2-13.56-13.87-22.3-17.91-.35 4.59-.33 9.23.3 13.79m-52.71-9.35c-.04 2.4-.05 4.79-.09 7.18 2.82-.1 5.65-.1 8.48-.17-2.72-2.42-5.46-4.83-8.39-7.01m4.49 1.36c2.21 2.15 4.53 4.2 6.89 6.2-.1-2.58-.16-5.16-.15-7.74-2.21.68-4.47 1.17-6.74 1.54m35.86-.54c-.08 1.82-.18 3.64-.31 5.45.52.58 1.04 1.16 1.57 1.73 1.53-2.46 3.47-4.63 5.27-6.9-2.18-.06-4.36-.14-6.53-.28m5.12 12.1c2.11-.02 4.22.01 6.33.21-.1-2.14-.19-4.28-.29-6.41-2.03 2.05-4 4.15-6.04 6.2m-41.94-4.14c2.63 2.36 5.26 4.73 7.98 7-.03-2.5-.11-5-.2-7.5-2.6.14-5.19.3-7.78.5m36.32-.64c.09 2.13.11 4.26.08 6.39 3.29-1.22 5.75-3.7 7.83-6.42-2.64.05-5.28.18-7.91.03m-12.83 9.21c.07 1.86 2.14 2.51 3.34 3.56.81-.28 2.41-.83 3.21-1.11.3-1.05.67-2.09.79-3.19-.62-3.84-7.68-3.17-7.34.74m12.82-2.13c-.04 7.6-.37 15.2-.56 22.8 2.85-2.34 5.68-4.69 8.5-7.07-2.71-.12-5.64.5-8.05-1.1 3.11-.52 6.26-.47 9.4-.44-3.19-2.69-6.28-5.5-9.33-8.34 2.97-.08 5.94-.06 8.91-.08-2.07-1.89-4.22-3.7-6.3-5.57-.64-.05-1.93-.15-2.57-.2m-36.5 7.57c2.76-.1 5.53-.26 8.29-.49-.02-1.82-.06-3.63-.15-5.44-3.2 1.22-5.55 3.8-8.14 5.93m40.24-.31c2.8 2.46 5.49 5.08 8.64 7.12-3 2.31-5.98 4.63-8.83 7.12 2.7-.03 5.43-.38 8.13-.08 0 .2-.01.61-.01.82-2.89 2.65-6.11 4.93-9.18 7.37 3.43.22 6.86.36 10.3.42-.25-7.57.02-15.15-.37-22.72-2.89-.12-5.79-.12-8.68-.05m-32.08.95c-3 2.49-5.97 5-8.96 7.5 3.12.14 6.24.26 9.36.34-.08-2.62-.22-5.23-.4-7.84m-12.61 9.26c-.07 3.07-.12 6.13-.14 9.2 3.42-2.88 6.76-5.86 10.05-8.89-3.3-.07-6.6-.21-9.91-.31m3.97 7.95c2.58-.01 5.17-.03 7.75-.03.04.44.13 1.31.17 1.75-4.07.2-8.15.2-12.21-.19.03 1.48.05 2.96.06 4.44 4.5 0 9.01.01 13.51-.02-.12-4.7-.2-9.4-.26-14.09-3.08 2.62-6.06 5.38-9.02 8.14m71.3-4.66c1.53 7.81 3.38 15.98.74 23.79 3.61-.12 7.21-.37 10.81-.57 2.32-4.88 2.5-10.45 1.93-15.74-.28-3.35-.84-6.76-2.49-9.72-3.7.56-7.36 1.36-10.99 2.24m-34.92 2.06c0 2.51-.06 5.02-.15 7.53 3.04-2.54 6.18-4.96 9.21-7.53-3.02.01-6.04.13-9.06 0m-69.61 3.37c-2.4 8.43-1.44 17.18.12 25.65 4.1.14 8.2.09 12.3.07-2.62-8.33-3.03-17.08-2.69-25.75-3.25.02-6.49.02-9.73.03m8.71 41.02c5.27 9.22 13.94 16.33 23.98 19.77.14-3.67.33-7.35.58-11.02-5.85-3.8-11.05-8.61-14.82-14.52-3.25 1.91-6.48 3.86-9.74 5.77m86.55-3.44c-4.19 5.93-10.47 9.67-16.47 13.49.51 3.75 1.22 7.47 1.83 11.21 5.04-2.38 10.28-4.47 14.71-7.92 3.63-2.66 6.31-6.34 8.69-10.1-3.06-2.05-5.93-4.34-8.76-6.68z"/><path d="m146.24 105.18c1.78-.01 3.57-.03 5.36-.04.3 1.42.61 2.85.92 4.28-2.03.74-4.08 1.44-6.13 2.12-.06-2.12-.1-4.24-.15-6.36z"/><path d="m173.44 167.99c.91-1.2 3.38.04 2.25 1.44-.88 1.27-3.28-.09-2.25-1.44z"/><path d="m128.58 168.78c2.15 2.09 4.26 4.24 6.26 6.47 2.44-2.49 5.11-4.75 7.8-6.96 2.48 2.53 4.72 5.3 7.35 7.69 2.29-2.13 4.25-4.59 6.4-6.86 1.71 2.16 3.32 4.39 4.9 6.65 2.44-2.38 4.81-4.85 7.27-7.21 1.99 2.44 3.87 4.97 5.62 7.59 2.15-2.43 4.2-4.97 6.7-7.05 2.13 2.11 4.04 4.43 5.93 6.75 1.77-2.45 3.88-4.62 5.82-6.95 1.28 1.36 2.54 2.73 3.91 4.01-2.08 3.66-4.41 7.18-7.35 10.21-1.34-1.46-2.66-2.92-3.98-4.38-1.42 1.77-2.82 3.56-4.35 5.24-1.59-1.73-2.85-3.72-4.11-5.69-1.71 2.01-3.41 4.03-5.11 6.05-1.35-1.98-2.65-3.99-3.86-6.06-1.67 2.05-3.32 4.1-5.02 6.13-1.35-1.79-2.76-3.52-4.16-5.26-1.69 1.73-3.31 3.55-4.9 5.39-1.64-1.97-3.35-3.87-4.95-5.87-1.97 1.98-4.04 3.85-6.05 5.79-1.49-1.61-2.93-3.29-4.65-4.67-2.12 1.62-3.85 3.68-5.17 6-4.37-3.77-7.59-8.57-10.55-13.46 2.87 1.38 4.44-1.97 6.25-3.55z"/><path d="m134.64 187.33c1.12-1.2 2.25-2.4 3.37-3.6 1.47 1.58 2.88 3.21 4.3 4.85 1.97-1.79 3.95-3.59 5.88-5.42 1.68 1.96 3.38 3.91 5.14 5.81 1.95-1.34 3.43-3.2 4.93-4.99 1.22 1.67 2.45 3.33 3.71 4.97 1.84-1.76 3.56-3.63 5.24-5.54 1.3 1.86 2.59 3.73 3.96 5.55 1.72-1.54 3.25-3.27 4.93-4.83 1.63 1.4 3 3.08 4.56 4.56 1.54-1.13 3.87-6.49 5.62-2.92-8.66 7.74-20.83 11.07-32.28 9.38-7.12-.45-13.47-4.1-19.36-7.82z"/></g><g fill="#ffce00"><path d="m134.02 4.38c1.57 3.51 2.06 7.34 2.79 11.08.52.2 1.54.61 2.06.82.62 2.66.32 5.91 2.71 7.78.32 1.89.61 3.78.89 5.68 3.21-2.57 6.44-5.13 9.47-7.93 1.17-1.15 1.15-3.18 2.71-4.01 3.18-2.12 6.38-4.25 9.8-5.95-1.76 2.73-4.35 4.78-6.29 7.37-2.06 4.67-7.07 7.14-10.39 10.85 2.11 1.34 4.59 1.6 6.96 2.17 2.43 1.93 4.54 4.25 6.92 6.24 3.56-1.2 4.98 2.7 7.17 4.62.91 1.31 2.67 2.22 2.99 3.84-3.08-.17-5.03-3.62-7.97-4.56-7.31-1.5-11.8-9.62-19.85-8.8 3.73 4.82 7 9.97 10.66 14.84-.18.64-.55 1.92-.73 2.57 1.82 2.73 3.72 5.43 5.33 8.29-3.34-2.2-6.45-4.75-9.35-7.5.17-.76.51-2.28.67-3.03-2.39-3.71-4.85-7.37-7.5-10.9-.3 3.91.02 7.81.14 11.72-2.18-.09-4.36-.14-6.54-.21 1.88-2.4 3.67-4.88 5.63-7.22-2.79-2.51-4.29-7.18-8.32-7.85 1.69 2.43 3.61 4.69 5.49 6.98-1.58.6-5.79-1.09-5.26 1.54 1.66.85 3.56.17 5.33.23-2.08 2.67-4.08 5.39-6.11 8.09 2 .03 4.01.04 6.02.04-1.64 2.07-3.12 4.27-4.99 6.15-.32-.13-.96-.39-1.28-.51-.91-7.23.43-14.6.04-21.88-2.72 3.29-5.99 6.16-8.32 9.76-1.76 4.54-5.39 7.92-8.16 11.82-1.43 1.7-2.44 3.9-4.54 4.88 1.89-4.39 4.67-8.33 6.74-12.64-.19-.51-.56-1.53-.75-2.04 3.81-4.44 7.69-8.85 11.68-13.15-6.99-.03-13.99-.2-20.98-.37-.19.54-.57 1.62-.76 2.16-5.56-.88-11.59-.24-16.8-2.47 4.92-1.29 10.59.84 15.03-2.08 7.62-.17 15.25-.03 22.87-.08-1.46-1.61-2.93-3.21-4.39-4.82-.7-.05-2.1-.15-2.81-.2-1.29-1.61-2.5-3.41-4.4-4.37-4.3-2.09-8.2-5.14-11.21-8.85 4.62 1.67 8.46 6 13.69 5.2 1.39 1.34 2.55 2.9 3.78 4.38.48-.42 1.45-1.26 1.93-1.68 2.92 3.47 5.86 6.91 8.74 10.41 1.52-.03 3.05-.05 4.57-.17.18-1.35-.87-2.06-1.84-2.74-.45-2.72-.53-5.54-1.39-8.18-.58-.2-1.75-.6-2.33-.8.16-4.84-.08-9.7.45-14.52z"/><path d="m168.46 9.37c1.37 4.1 2.06 8.39 2.98 12.61.43.22 1.28.67 1.71.9.38 3.01.64 6.07 1.48 9 1.71 4.82 1.58 10.01 2.4 15.01 5.72-6.14 10.5-13.08 15.84-19.55.79.29 2.37.88 3.17 1.17 4.31-4.82 8.89-9.39 13.41-14.02.35-.03 1.06-.09 1.42-.12-4.57 6.65-9.25 13.22-13.84 19.85-.85-.27-2.54-.8-3.38-1.07-3.61 4.2-7.11 8.49-10.55 12.83 3.42-.89 6.91-1.47 10.35-2.27.15-.53.45-1.6.6-2.13 3.63-1.05 9.11-.09 10.89-4.19 7.26-.01 14.54-.88 21.8-.25-5.57 2.17-11.79 2.13-17.24 4.72-2.97 1.36-6.29 1.5-9.46 2.14-.2.46-.6 1.38-.8 1.84-3.51 1.69-7.5 1.79-11.2 2.85 1.34 2.56 4.63 3.65 6.66 5.75-.16.91-.5 2.72-.66 3.63 2.65 2.03 5.37 3.97 8.01 6.02-.29 1.21-.57 2.43-.84 3.64 2.24 3.56 4.41 7.18 6.23 10.98-4.54-3.05-8.34-7.05-12.53-10.56.08-4.41-4.74-6.32-7.41-9.11.47-1.09.95-2.18 1.44-3.26-2.06-1.84-4.12-3.68-6.22-5.47.19 11.51.9 22.96.97 34.46-2.54-1.08-4.85-2.6-6.86-4.48 1.9-.11 3.8-.17 5.7-.24-2.05-2.51-4.29-4.85-6.42-7.29 2.09-.04 4.21-.04 6.28-.47-.15-.28-.45-.84-.6-1.12-1.51-.36-3.07-.34-4.61-.47 1.94-2.38 3.96-4.7 5.76-7.19-2-.05-3.99-.09-5.98-.14 1.75-2.55 3.59-5.04 5.71-7.3-2.74-2.85-4.73-6.55-8.21-8.62.81 3.16 3.41 5.25 5.33 7.71-2.12.15-4.23.32-6.34.52.04-.77.13-2.32.17-3.09-1.4 1.38-2.77 2.77-4.13 4.19.28 3.46-2.87 5.56-4.64 8.11-4.47 5.03-8.19 10.71-13.06 15.37 1.72-4.83 4.49-9.19 6.88-13.71-.34-.66-.68-1.32-1.01-1.98 2.09-2.17 4.46-4.14 5.99-6.78 1.97-3.91 5.95-6.13 8.93-9.17.73-2.69-.02-5.54-.06-8.28-.41-.31-1.21-.92-1.62-1.22-1.02-3.71-.05-8.5-3.22-11.24.17-6.17.14-12.36.78-18.51z"/><path d="m136.91 56.93c1.99-2.5 3.92-5.05 6.19-7.31.07 2.81.08 5.62.12 8.43-2.06-.58-4.18-.92-6.31-1.12z"/><path d="m173.45 57.16c1.99-.01 3.97-.02 5.95-.01-1.7 2.54-3.6 4.94-5.33 7.47 1.91.1 3.81.16 5.72.24-1.95 2.58-3.97 5.1-5.99 7.63 1.8 2.07 3.61 4.12 5.43 6.18-2.13.06-4.25.1-6.38.15.36-7.21.53-14.44.6-21.66z"/><path d="m133.24 58.92c2.25 1.58 3.94 3.78 5.73 5.84-2.19.02-4.38.09-6.56.19.21-2.02.33-4.06.83-6.03z"/><path d="m135.8 58.74c2.49.09 4.98.13 7.47-.05-.3 6.13.6 12.4-.38 18.43-2.42-.43-3.91-2.76-5.81-4.12 1.75-.58 3.52-1.13 5.24-1.8-1.78-1.61-3.69-3.07-5.55-4.59 1.92-.02 3.84-.05 5.76-.07-2.17-2.66-4.48-5.21-6.73-7.8z"/><path d="m133.04 71.03c-1.64-1.19-.07-3.88.54-5.48 1.69 1.86 3.6 3.49 5.31 5.33-1.92.24-3.97 1.04-5.85.15z"/><path d="m133.14 73.16c2.41-.77 3.88 2.4 5.73 3.55-1.93.32-3.86.64-5.79 1 2.27 2.46 4.56 4.9 6.81 7.39-2.38-.13-4.75-.24-7.13-.28 2.03 2.51 4.2 4.89 6.29 7.35-2.19.21-4.75-.5-6.55 1.15 2.22.26 4.47.3 6.71.35-2.04 2.56-4.19 5.05-6.92 6.91-.48-8.63.11-17.29.24-25.93.16-.38.46-1.12.61-1.49z"/><path d="m136.48 78.9c2.1-.26 4.2-.83 6.33-.69 1.14 2.56.35 5.53.57 8.24-2.46-2.36-4.74-4.91-6.9-7.55z"/><path d="m172.87 78.92c2.07 1.87 4.21 3.65 6.37 5.42-2.15.77-4.32 1.43-6.53 1.94.06-2.45.11-4.91.16-7.36z"/><path d="m181.75 84.39c.66.57 1.31 1.16 1.96 1.75-.01 1.96-.03 3.93-.06 5.89-2.21-1.82-4.48-3.57-6.61-5.49 1.61-.23 3.21-.45 4.82-.66z"/><path d="m136.29 86.5c2.38-.01 4.77.02 7.16.02-.03 4.1.07 8.21.09 12.31-2.24.04-4.49.09-6.74.1 1.65-2.03 3.36-4 5.16-5.88-1.87-2.2-3.81-4.35-5.67-6.55z"/><path d="m172.71 86.5c2.41 1.14 4.71 2.51 6.88 4.07-2.01.36-4.03.69-6.05 1.02 2.08 2.4 4.23 4.74 6.2 7.22-2.17-.35-4.69.45-6.63-.91-1.39-3.59-.27-7.63-.4-11.4z"/><path d="m176.74 92.65c2.36-.03 4.73.05 7.09-.07.54 6.7-.77 13.38-.05 20.07-2.29.11-4.57.26-6.85.4.85-1.08 1.7-2.16 2.55-3.24 1.28-.78 2.52-1.6 3.76-2.43-2.41-2.23-4.68-4.61-6.88-7.04 2.42.1 4.86.2 7.29.2-2.29-2.64-4.74-5.14-6.91-7.89z"/><path d="m157.51 98.76c.84.03 2.51.09 3.35.12.37 3.44.33 6.91.29 10.38.62.05 1.84.16 2.45.22-.07-3.04-.07-6.08-.13-9.12 1.35.01 2.69.02 4.05.03-.05 2.5-.06 5.01-.11 7.51.49-.04 1.47-.12 1.97-.16-.05-2.86-.05-5.73.11-8.59l2.06.88c.22 5.6-.21 11.22-.21 16.83-5.04-1.44-10.31-2.24-15.55-1.67-.72 14.19-.03 28.48-.34 42.7-12.2-1.13-24.51-.34-36.76-.47.57 4.62 1.9 9.08 3.18 13.54 2.32-2.35 4.49-4.85 6.65-7.34 2.27 2.07 4.21 4.5 6.65 6.37 3-1.95 5.36-4.72 7.96-7.15 2.5 2.24 4.32 5.34 7.28 6.98 2.26-2.14 4.28-4.54 6.55-6.69 1.73 2.35 3.43 4.73 5.24 7.03 2.46-2.28 4.4-5.04 6.89-7.29.5.3 1.51.89 2.01 1.19.05-3.64.21-7.29.29-10.93 3.33.04 6.67.1 10 .18-3.35 3.04-6.85 5.95-9.97 9.25 3.84.23 7.69.17 11.54.18.34-.78.68-1.55 1.01-2.32-3.01.25-6 .66-9.02.77 3.33-2.85 6.55-5.8 9.85-8.68.36 4.49.23 9.01.47 13.51-.11 1.51.91 2.69 1.58 3.93 2.13-2.4 4.25-4.81 6.29-7.28 1.47 2.04 3.15 3.95 5.14 5.52 3.03-7.92 3.1-16.89.24-24.86-1.98-7.2-6.78-13.15-11.94-18.36-.54-.09-1.62-.25-2.16-.34.06.96.17 2.86.23 3.82-2.68-2.27-5.37-4.53-7.95-6.9 2.49-.26 4.99-.48 7.48-.8-.03 1.03-.11 3.08-.14 4.1 1.8-2.34.77-5.42 1.02-8.11 9.87 6.07 17.61 15.85 20.5 27.15 3.32 10.65 1.63 22.37-3.15 32.31-5.82 11.78-16.89 20.54-29.35 24.4-10.61 2.74-22.23 2.48-32.3-2.11-13.47-5.69-24.22-17.93-27.32-32.32-4.54-17.56 3.13-37.06 17.85-47.43.38 3-1.06 6.45.71 9.16.46-4.51.2-9.05.29-13.57 2.81 2.6 5.71 5.1 8.62 7.58-2.57.44-6.06-.95-7.95 1.33 2.04.76 4.23.58 6.36.7-2.49 2.4-5.28 4.47-7.81 6.83 2.91.08 5.83.03 8.75.02-2.88 2.55-5.94 4.89-8.9 7.34-.12-3.55-.07-7.11.17-10.66-.54.21-1.63.63-2.17.83-6.28 7.2-9.95 16.34-10.66 25.85 11.31.04 22.63.08 33.94 0-.02-12.86.1-25.72-.06-38.58-2.67.74-5.29 1.62-7.89 2.55-.11-6.16-.4-12.31-.42-18.47 3.8.03 7.61.04 11.41-.03.06 3.47-.01 6.94.22 10.41.38-.34 1.14-1.03 1.52-1.37.33-3.29.08-6.6.09-9.9m-11.27 6.42c.05 2.12.09 4.24.15 6.36 2.05-.68 4.1-1.38 6.13-2.12-.31-1.43-.62-2.86-.92-4.28-1.79.01-3.58.03-5.36.04m27.2 62.81c-1.03 1.35 1.37 2.71 2.25 1.44 1.13-1.4-1.34-2.64-2.25-1.44m-44.86.79c-1.81 1.58-3.38 4.93-6.25 3.55 2.96 4.89 6.18 9.69 10.55 13.46 1.32-2.32 3.05-4.38 5.17-6 1.72 1.38 3.16 3.06 4.65 4.67 2.01-1.94 4.08-3.81 6.05-5.79 1.6 2 3.31 3.9 4.95 5.87 1.59-1.84 3.21-3.66 4.9-5.39 1.4 1.74 2.81 3.47 4.16 5.26 1.7-2.03 3.35-4.08 5.02-6.13 1.21 2.07 2.51 4.08 3.86 6.06 1.7-2.02 3.4-4.04 5.11-6.05 1.26 1.97 2.52 3.96 4.11 5.69 1.53-1.68 2.93-3.47 4.35-5.24 1.32 1.46 2.64 2.92 3.98 4.38 2.94-3.03 5.27-6.55 7.35-10.21-1.37-1.28-2.63-2.65-3.91-4.01-1.94 2.33-4.05 4.5-5.82 6.95-1.89-2.32-3.8-4.64-5.93-6.75-2.5 2.08-4.55 4.62-6.7 7.05-1.75-2.62-3.63-5.15-5.62-7.59-2.46 2.36-4.83 4.83-7.27 7.21-1.58-2.26-3.19-4.49-4.9-6.65-2.15 2.27-4.11 4.73-6.4 6.86-2.63-2.39-4.87-5.16-7.35-7.69-2.69 2.21-5.36 4.47-7.8 6.96-2-2.23-4.11-4.38-6.26-6.47m6.06 18.55c5.89 3.72 12.24 7.37 19.36 7.82 11.45 1.69 23.62-1.64 32.28-9.38-1.75-3.57-4.08 1.79-5.62 2.92-1.56-1.48-2.93-3.16-4.56-4.56-1.68 1.56-3.21 3.29-4.93 4.83-1.37-1.82-2.66-3.69-3.96-5.55-1.68 1.91-3.4 3.78-5.24 5.54-1.26-1.64-2.49-3.3-3.71-4.97-1.5 1.79-2.98 3.65-4.93 4.99-1.76-1.9-3.46-3.85-5.14-5.81-1.93 1.83-3.91 3.63-5.88 5.42-1.42-1.64-2.83-3.27-4.3-4.85-1.12 1.2-2.25 2.4-3.37 3.6z"/><path d="m173.25 99.81c2.36 1.41 3.95 3.76 5.78 5.76-2.2.14-4.4.37-6.55.87.19-2.22.3-4.45.77-6.63z"/><path d="m132.09 100.79c2.69.15 5.39.11 8.08-.02-1.59 1.5-2.94 3.26-4.66 4.62-1.4.66-3.04.03-4.52.07.4 4.18.27 8.38.26 12.57-5.04 3.32-8.84 8.06-12.15 13.04-3.19-2.23-6.6-4.12-9.72-6.43 4.78-8.36 11.98-15.38 20.88-19.22 2.34-.37 1.42-3 1.83-4.63z"/><path d="m137.43 105.69c1.96-1.94 3.87-3.95 5.79-5.94.09 1.95.19 3.91.31 5.86-2.04-.04-4.07-.02-6.1.08z"/><path d="m185.01 115.89c-.63-4.56-.65-9.2-.3-13.79 8.74 4.04 16.99 9.71 22.3 17.91.48.77.8 1.59.96 2.48-2.94 2.24-5.66 4.84-8.93 6.61-3.74-5.35-8.7-9.55-14.03-13.21z"/><path d="m132.3 106.54c2.93 2.18 5.67 4.59 8.39 7.01-2.83.07-5.66.07-8.48.17.04-2.39.05-4.78.09-7.18z"/><path d="m136.79 107.9c2.27-.37 4.53-.86 6.74-1.54-.01 2.58.05 5.16.15 7.74-2.36-2-4.68-4.05-6.89-6.2z"/><path d="m172.65 107.36c2.17.14 4.35.22 6.53.28-1.8 2.27-3.74 4.44-5.27 6.9-.53-.57-1.05-1.15-1.57-1.73.13-1.81.23-3.63.31-5.45z"/><path d="m177.77 119.46c2.04-2.05 4.01-4.15 6.04-6.2.1 2.13.19 4.27.29 6.41-2.11-.2-4.22-.23-6.33-.21z"/><path d="m135.83 115.32c2.59-.2 5.18-.36 7.78-.5.09 2.5.17 5 .2 7.5-2.72-2.27-5.35-4.64-7.98-7z"/><path d="m172.15 114.68c2.63.15 5.27.02 7.91-.03-2.08 2.72-4.54 5.2-7.83 6.42.03-2.13.01-4.26-.08-6.39z"/><path d="m159.32 123.89c-.34-3.91 6.72-4.58 7.34-.74-.12 1.1-.49 2.14-.79 3.19-.8.28-2.4.83-3.21 1.11-1.2-1.05-3.27-1.7-3.34-3.56z"/><path d="m172.14 121.76c.64.05 1.93.15 2.57.2 2.08 1.87 4.23 3.68 6.3 5.57-2.97.02-5.94 0-8.91.08 3.05 2.84 6.14 5.65 9.33 8.34-3.14-.03-6.29-.08-9.4.44 2.41 1.6 5.34.98 8.05 1.1-2.82 2.38-5.65 4.73-8.5 7.07.19-7.6.52-15.2.56-22.8z"/><path d="m135.64 129.33c2.59-2.13 4.94-4.71 8.14-5.93.09 1.81.13 3.62.15 5.44-2.76.23-5.53.39-8.29.49z"/><path d="m175.88 129.02c2.89-.07 5.79-.07 8.68.05.39 7.57.12 15.15.37 22.72-3.44-.06-6.87-.2-10.3-.42 3.07-2.44 6.29-4.72 9.18-7.37 0-.21.01-.62.01-.82-2.7-.3-5.43.05-8.13.08 2.85-2.49 5.83-4.81 8.83-7.12-3.15-2.04-5.84-4.66-8.64-7.12z"/><path d="m143.8 129.97c.18 2.61.32 5.22.4 7.84-3.12-.08-6.24-.2-9.36-.34 2.99-2.5 5.96-5.01 8.96-7.5z"/><path d="m131.19 139.23c3.31.1 6.61.24 9.91.31-3.29 3.03-6.63 6.01-10.05 8.89.02-3.07.07-6.13.14-9.2z"/><path d="m135.16 147.18c2.96-2.76 5.94-5.52 9.02-8.14.06 4.69.14 9.39.26 14.09-4.5.03-9.01.02-13.51.02-.01-1.48-.03-2.96-.06-4.44 4.06.39 8.14.39 12.21.19-.04-.44-.13-1.31-.17-1.75-2.58 0-5.17.02-7.75.03z"/><path d="m206.46 142.52c3.63-.88 7.29-1.68 10.99-2.24 1.65 2.96 2.21 6.37 2.49 9.72.57 5.29.39 10.86-1.93 15.74-3.6.2-7.2.45-10.81.57 2.64-7.81.79-15.98-.74-23.79z"/><path d="m171.54 144.58c3.02.13 6.04.01 9.06 0-3.03 2.57-6.17 4.99-9.21 7.53.09-2.51.15-5.02.15-7.53z"/><path d="m101.93 147.95c3.24-.01 6.48-.01 9.73-.03-.34 8.67.07 17.42 2.69 25.75-4.1.02-8.2.07-12.3-.07-1.56-8.47-2.52-17.22-.12-25.65z"/><path d="m110.64 188.97c3.26-1.91 6.49-3.86 9.74-5.77 3.77 5.91 8.97 10.72 14.82 14.52-.25 3.67-.44 7.35-.58 11.02-10.04-3.44-18.71-10.55-23.98-19.77z"/><path d="m197.19 185.53c2.83 2.34 5.7 4.63 8.76 6.68-2.38 3.76-5.06 7.44-8.69 10.1-4.43 3.45-9.67 5.54-14.71 7.92-.61-3.74-1.32-7.46-1.83-11.21 6-3.82 12.28-7.56 16.47-13.49z"/></g></svg>