<svg height="450" width="423" xmlns="http://www.w3.org/2000/svg" xmlns:xlink="http://www.w3.org/1999/xlink"><g fill-rule="evenodd" stroke="#000" stroke-linejoin="round" stroke-width="1.5" transform="matrix(.99777583 0 0 .99777583 .775951 .489611)"><path d="m195.89129 386.69005c-12.6043 19.0153 6.1489 40.79327-10.14601 62.57124-5.5338-11.86025-26.74739-3.78361-30.43589-18.09793 16.08987-8.38314 6.35394-26.88902 12.6043-40.79327 7.0726-6.74709 12.9129-13.4963 19.98339-20.24339 2.66544 5.52111 5.33088 11.04223 7.99421 16.56335z" fill="#005bb9"/><path d="m226.49628 386.69005c12.60429 19.0153-6.1489 40.79327 10.14389 62.57124 5.5338-11.86025 26.7474-3.78361 30.438-18.09793-16.08986-8.38314-6.35393-26.88902-12.6064-40.79327-7.0705-6.74709-12.91291-13.4963-19.9834-20.24339-2.66544 5.52111-5.32877 11.04223-7.99209 16.56335z" fill="#ffe600"/><path d="m195.89129 386.69005c-12.6043 19.0153 6.1489 40.79327-10.14601 62.57124-2.81974-6.04533-9.71479-6.91196-16.28644-8.20347 17.02837-17.65615-2.81975-49.9754 21.96398-63.63023z" fill="#ffe600"/><path d="m226.49628 386.69005c12.60429 19.0153-6.1489 40.79327 10.14389 62.57124 2.82185-6.04533 9.71691-6.91196 16.28644-8.20347-17.02837-17.65615 2.82186-49.9754-21.96186-63.63023z" fill="#005bb9"/><path d="m181.6131 352.65527v23.03988c0 8.24151 13.32085 15.00762 29.59251 15.00762 16.27165 0 29.5925-6.76611 29.5925-15.00762v-23.03988z" fill="#ffe600"/><path d="m211.19485 352.64387h-29.58617v23.04833c0 8.24152 13.31451 14.98438 29.58617 14.98438z" fill="#005bb9"/></g><g id="a" stroke-width=".887049"><g stroke-width=".887049" transform="matrix(1.6872393 0 0 1.6872393 140.8152 -154.444)"><path d="m1.0911791 160.47997c-.70173246 2.65876-3.4287483 4.24854-6.0886247 3.54689l-22.5828934-5.95811c-2.659797-.70055-4.248547-3.42875-3.546815-6.08752.700624-2.65869 3.428749-4.24855 6.087516-3.54681l22.5839234 5.95692c2.65876764.70173 4.2486262 3.42986 3.5468937 6.08863z" fill="none" stroke="#2c2c2b" stroke-width=".887049"/><path d="m1.0910209 160.47775c-.7006238 2.65869-3.4287484 4.24855-6.087516 3.54681l-22.5847949-5.95352c-2.658688-.70062-4.248468-3.42764-3.547923-6.08743.701733-2.65877 3.428748-4.24855 6.088625-3.5469l22.5836856 5.9536c2.65979719.70055 4.2484679 3.42764 3.5479233 6.08744z" fill="#a6c442" fill-rule="evenodd" stroke="#008000" stroke-width=".887049"/><path d="m-6.1876257 161.40282-1.9581438-3.36042 3.3604209-1.95815m-3.9610262 4.64424-1.9581442-3.36042 3.3604213-1.95814m-3.9610263 4.64424-1.959252-3.36034 3.3614501-1.95934m-3.9620561 4.64543-1.958223-3.36153 3.360421-1.95814m-3.961026 4.64424-1.958143-3.36042 3.36042-1.95815m-3.961025 4.64424-1.959253-3.36034 3.36145-1.95933m-3.960946 4.64535-1.959253-3.36035 3.361451-1.95933m-3.962135 4.64432-1.958144-3.36042 3.360421-1.95814m-3.961026 4.64423-1.958144-3.36042 3.360421-1.95814m21.6300272 11.39058-1.9593316-3.36145 3.3615296-1.95822" fill="none" stroke="#008000" stroke-linecap="round" stroke-width=".887049"/><path d="m-1.3508418 159.83297-27.5443852-7.25995" fill="none" stroke="#008000" stroke-linecap="round" stroke-width=".887049"/><g stroke-width=".997562" transform="matrix(-.66739375 .5876152 -.5876152 -.66739375 146.60134 405.46651)"><path d="m-5.2826158 299.84326c1-2.92625 4.18625-4.49125 7.11375-3.49125l24.8549988 8.49125c2.9275.99875 4.49125 4.18625 3.49125 7.1125-.99875 2.92625-4.18625 4.49125-7.1125 3.49125l-24.8562488-8.49c-2.92625-1-4.49125-4.1875-3.49125-7.11375z" fill="none" stroke="#2c2c2b" stroke-width=".997562"/><path d="m-5.2826158 299.84576c.99875-2.92625 4.18625-4.49125 7.1125-3.49125l24.8574988 8.48625c2.92625.99875 4.49125 4.185 3.4925 7.1125-1 2.92625-4.18625 4.49125-7.11375 3.49125l-24.8562488-8.48625c-2.9275-.99875-4.49125-4.185-3.4925-7.1125z" fill="#a6c442" fill-rule="evenodd" stroke="#008000" stroke-width=".997562"/><path d="m2.9561342 299.39076 1.9275 3.92625-3.92624997 1.9275m4.81499997-4.8925 1.9275 3.92625-3.92625 1.9275m4.815-4.8925 1.9287498 3.92625-3.9274998 1.92875m4.8162498-4.89375 1.9275 3.9275-3.9262498 1.9275m4.8149998-4.8925 1.927499 3.92625-3.926249 1.9275m4.814999-4.8925 1.92875 3.92625-3.927499 1.92875m4.814999-4.89375 1.92875 3.92625-3.9275 1.92875m4.81625-4.8925 1.9275 3.92625-3.92625 1.9275m4.815-4.8925 1.9275 3.92625-3.92625 1.9275m-23.35124877-14.50875 1.92874997 3.9275-3.9275 1.9275" fill="none" stroke="#008000" stroke-linecap="round" stroke-width=".997562"/><path d="m-2.5951158 300.76451 30.3162488 10.34875" fill="none" stroke="#008000" stroke-linecap="round" stroke-width=".997562"/></g><g stroke-width=".997562" transform="matrix(-.48532179 .7450965 -.7450965 -.48532179 191.60916 364.67247)"><path d="m-5.2826158 299.84326c1-2.92625 4.18625-4.49125 7.11375-3.49125l24.8549988 8.49125c2.9275.99875 4.49125 4.18625 3.49125 7.1125-.99875 2.92625-4.18625 4.49125-7.1125 3.49125l-24.8562488-8.49c-2.92625-1-4.49125-4.1875-3.49125-7.11375z" fill="none" stroke="#2c2c2b" stroke-width=".997562"/><path d="m-5.2826158 299.84576c.99875-2.92625 4.18625-4.49125 7.1125-3.49125l24.8574988 8.48625c2.92625.99875 4.49125 4.185 3.4925 7.1125-1 2.92625-4.18625 4.49125-7.11375 3.49125l-24.8562488-8.48625c-2.9275-.99875-4.49125-4.185-3.4925-7.1125z" fill="#a6c442" fill-rule="evenodd" stroke="#008000" stroke-width=".997562"/><path d="m2.9561342 299.39076 1.9275 3.92625-3.92624997 1.9275m4.81499997-4.8925 1.9275 3.92625-3.92625 1.9275m4.815-4.8925 1.9287498 3.92625-3.9274998 1.92875m4.8162498-4.89375 1.9275 3.9275-3.9262498 1.9275m4.8149998-4.8925 1.927499 3.92625-3.926249 1.9275m4.814999-4.8925 1.92875 3.92625-3.927499 1.92875m4.814999-4.89375 1.92875 3.92625-3.9275 1.92875m4.81625-4.8925 1.9275 3.92625-3.92625 1.9275m4.815-4.8925 1.9275 3.92625-3.92625 1.9275m-23.35124877-14.50875 1.92874997 3.9275-3.9275 1.9275" fill="none" stroke="#008000" stroke-linecap="round" stroke-width=".997562"/><path d="m-2.5951158 300.76451 30.3162488 10.34875" fill="none" stroke="#008000" stroke-linecap="round" stroke-width=".997562"/></g><g stroke-width=".997562" transform="matrix(-.87143678 -.17692932 .17692932 -.87143678 -44.61229 417.34686)"><path d="m-5.2826158 299.84326c1-2.92625 4.18625-4.49125 7.11375-3.49125l24.8549988 8.49125c2.9275.99875 4.49125 4.18625 3.49125 7.1125-.99875 2.92625-4.18625 4.49125-7.1125 3.49125l-24.8562488-8.49c-2.92625-1-4.49125-4.1875-3.49125-7.11375z" fill="none" stroke="#2c2c2b" stroke-width=".997562"/><path d="m-5.2826158 299.84576c.99875-2.92625 4.18625-4.49125 7.1125-3.49125l24.8574988 8.48625c2.92625.99875 4.49125 4.185 3.4925 7.1125-1 2.92625-4.18625 4.49125-7.11375 3.49125l-24.8562488-8.48625c-2.9275-.99875-4.49125-4.185-3.4925-7.1125z" fill="#a6c442" fill-rule="evenodd" stroke="#008000" stroke-width=".997562"/><path d="m2.9561342 299.39076 1.9275 3.92625-3.92624997 1.9275m4.81499997-4.8925 1.9275 3.92625-3.92625 1.9275m4.815-4.8925 1.9287498 3.92625-3.9274998 1.92875m4.8162498-4.89375 1.9275 3.9275-3.9262498 1.9275m4.8149998-4.8925 1.927499 3.92625-3.926249 1.9275m4.814999-4.8925 1.92875 3.92625-3.927499 1.92875m4.814999-4.89375 1.92875 3.92625-3.9275 1.92875m4.81625-4.8925 1.9275 3.92625-3.92625 1.9275m4.815-4.8925 1.9275 3.92625-3.92625 1.9275m-23.35124877-14.50875 1.92874997 3.9275-3.9275 1.9275" fill="none" stroke="#008000" stroke-linecap="round" stroke-width=".997562"/><path d="m-2.5951158 300.76451 30.3162488 10.34875" fill="none" stroke="#008000" stroke-linecap="round" stroke-width=".997562"/></g><g stroke-width=".997562" transform="matrix(-.83160537 .31486274 -.31486274 -.83160537 80.65681 417.56345)"><path d="m-5.2826158 299.84326c1-2.92625 4.18625-4.49125 7.11375-3.49125l24.8549988 8.49125c2.9275.99875 4.49125 4.18625 3.49125 7.1125-.99875 2.92625-4.18625 4.49125-7.1125 3.49125l-24.8562488-8.49c-2.92625-1-4.49125-4.1875-3.49125-7.11375z" fill="none" stroke="#2c2c2b" stroke-width=".997562"/><path d="m-5.2826158 299.84576c.99875-2.92625 4.18625-4.49125 7.1125-3.49125l24.8574988 8.48625c2.92625.99875 4.49125 4.185 3.4925 7.1125-1 2.92625-4.18625 4.49125-7.11375 3.49125l-24.8562488-8.48625c-2.9275-.99875-4.49125-4.185-3.4925-7.1125z" fill="#a6c442" fill-rule="evenodd" stroke="#008000" stroke-width=".997562"/><path d="m2.9561342 299.39076 1.9275 3.92625-3.92624997 1.9275m4.81499997-4.8925 1.9275 3.92625-3.92625 1.9275m4.815-4.8925 1.9287498 3.92625-3.9274998 1.92875m4.8162498-4.89375 1.9275 3.9275-3.9262498 1.9275m4.8149998-4.8925 1.927499 3.92625-3.926249 1.9275m4.814999-4.8925 1.92875 3.92625-3.927499 1.92875m4.814999-4.89375 1.92875 3.92625-3.9275 1.92875m4.81625-4.8925 1.9275 3.92625-3.92625 1.9275m4.815-4.8925 1.9275 3.92625-3.92625 1.9275m-23.35124877-14.50875 1.92874997 3.9275-3.9275 1.9275" fill="none" stroke="#008000" stroke-linecap="round" stroke-width=".997562"/><path d="m-2.5951158 300.76451 30.3162488 10.34875" fill="none" stroke="#008000" stroke-linecap="round" stroke-width=".997562"/></g><g stroke-width=".997562" transform="matrix(-.85071992 .25880815 -.25880815 -.85071992 55.88061 436.89223)"><path d="m-5.2826158 299.84326c1-2.92625 4.18625-4.49125 7.11375-3.49125l24.8549988 8.49125c2.9275.99875 4.49125 4.18625 3.49125 7.1125-.99875 2.92625-4.18625 4.49125-7.1125 3.49125l-24.8562488-8.49c-2.92625-1-4.49125-4.1875-3.49125-7.11375z" fill="none" stroke="#2c2c2b" stroke-width=".997562"/><path d="m-5.2826158 299.84576c.99875-2.92625 4.18625-4.49125 7.1125-3.49125l24.8574988 8.48625c2.92625.99875 4.49125 4.185 3.4925 7.1125-1 2.92625-4.18625 4.49125-7.11375 3.49125l-24.8562488-8.48625c-2.9275-.99875-4.49125-4.185-3.4925-7.1125z" fill="#a6c442" fill-rule="evenodd" stroke="#008000" stroke-width=".997562"/><path d="m2.9561342 299.39076 1.9275 3.92625-3.92624997 1.9275m4.81499997-4.8925 1.9275 3.92625-3.92625 1.9275m4.815-4.8925 1.9287498 3.92625-3.9274998 1.92875m4.8162498-4.89375 1.9275 3.9275-3.9262498 1.9275m4.8149998-4.8925 1.927499 3.92625-3.926249 1.9275m4.814999-4.8925 1.92875 3.92625-3.927499 1.92875m4.814999-4.89375 1.92875 3.92625-3.9275 1.92875m4.81625-4.8925 1.9275 3.92625-3.92625 1.9275m4.815-4.8925 1.9275 3.92625-3.92625 1.9275m-23.35124877-14.50875 1.92874997 3.9275-3.9275 1.9275" fill="none" stroke="#008000" stroke-linecap="round" stroke-width=".997562"/><path d="m-2.5951158 300.76451 30.3162488 10.34875" fill="none" stroke="#008000" stroke-linecap="round" stroke-width=".997562"/></g><g stroke-width=".997562" transform="matrix(-.66258709 .59302983 -.59302983 -.66258709 148.89338 391.24416)"><path d="m-5.2826158 299.84326c1-2.92625 4.18625-4.49125 7.11375-3.49125l24.8549988 8.49125c2.9275.99875 4.49125 4.18625 3.49125 7.1125-.99875 2.92625-4.18625 4.49125-7.1125 3.49125l-24.8562488-8.49c-2.92625-1-4.49125-4.1875-3.49125-7.11375z" fill="none" stroke="#2c2c2b" stroke-width=".997562"/><path d="m-5.2826158 299.84576c.99875-2.92625 4.18625-4.49125 7.1125-3.49125l24.8574988 8.48625c2.92625.99875 4.49125 4.185 3.4925 7.1125-1 2.92625-4.18625 4.49125-7.11375 3.49125l-24.8562488-8.48625c-2.9275-.99875-4.49125-4.185-3.4925-7.1125z" fill="#a6c442" fill-rule="evenodd" stroke="#008000" stroke-width=".997562"/><path d="m2.9561342 299.39076 1.9275 3.92625-3.92624997 1.9275m4.81499997-4.8925 1.9275 3.92625-3.92625 1.9275m4.815-4.8925 1.9287498 3.92625-3.9274998 1.92875m4.8162498-4.89375 1.9275 3.9275-3.9262498 1.9275m4.8149998-4.8925 1.927499 3.92625-3.926249 1.9275m4.814999-4.8925 1.92875 3.92625-3.927499 1.92875m4.814999-4.89375 1.92875 3.92625-3.9275 1.92875m4.81625-4.8925 1.9275 3.92625-3.92625 1.9275m4.815-4.8925 1.9275 3.92625-3.92625 1.9275m-23.35124877-14.50875 1.92874997 3.9275-3.9275 1.9275" fill="none" stroke="#008000" stroke-linecap="round" stroke-width=".997562"/><path d="m-2.5951158 300.76451 30.3162488 10.34875" fill="none" stroke="#008000" stroke-linecap="round" stroke-width=".997562"/></g><g stroke-width=".997562" transform="matrix(-.48532179 .7450965 -.7450965 -.48532179 194.55929 379.09535)"><path d="m-5.2826158 299.84326c1-2.92625 4.18625-4.49125 7.11375-3.49125l24.8549988 8.49125c2.9275.99875 4.49125 4.18625 3.49125 7.1125-.99875 2.92625-4.18625 4.49125-7.1125 3.49125l-24.8562488-8.49c-2.92625-1-4.49125-4.1875-3.49125-7.11375z" fill="none" stroke="#2c2c2b" stroke-width=".997562"/><path d="m-5.2826158 299.84576c.99875-2.92625 4.18625-4.49125 7.1125-3.49125l24.8574988 8.48625c2.92625.99875 4.49125 4.185 3.4925 7.1125-1 2.92625-4.18625 4.49125-7.11375 3.49125l-24.8562488-8.48625c-2.9275-.99875-4.49125-4.185-3.4925-7.1125z" fill="#a6c442" fill-rule="evenodd" stroke="#008000" stroke-width=".997562"/><path d="m2.9561342 299.39076 1.9275 3.92625-3.92624997 1.9275m4.81499997-4.8925 1.9275 3.92625-3.92625 1.9275m4.815-4.8925 1.9287498 3.92625-3.9274998 1.92875m4.8162498-4.89375 1.9275 3.9275-3.9262498 1.9275m4.8149998-4.8925 1.927499 3.92625-3.926249 1.9275m4.814999-4.8925 1.92875 3.92625-3.927499 1.92875m4.814999-4.89375 1.92875 3.92625-3.9275 1.92875m4.81625-4.8925 1.9275 3.92625-3.92625 1.9275m4.815-4.8925 1.9275 3.92625-3.92625 1.9275m-23.35124877-14.50875 1.92874997 3.9275-3.9275 1.9275" fill="none" stroke="#008000" stroke-linecap="round" stroke-width=".997562"/><path d="m-2.5951158 300.76451 30.3162488 10.34875" fill="none" stroke="#008000" stroke-linecap="round" stroke-width=".997562"/></g><g stroke-width=".997562" transform="matrix(-.15992014 .874718 -.874718 -.15992014 235.07687 292.69232)"><path d="m-5.2826158 299.84326c1-2.92625 4.18625-4.49125 7.11375-3.49125l24.8549988 8.49125c2.9275.99875 4.49125 4.18625 3.49125 7.1125-.99875 2.92625-4.18625 4.49125-7.1125 3.49125l-24.8562488-8.49c-2.92625-1-4.49125-4.1875-3.49125-7.11375z" fill="none" stroke="#2c2c2b" stroke-width=".997562"/><path d="m-5.2826158 299.84576c.99875-2.92625 4.18625-4.49125 7.1125-3.49125l24.8574988 8.48625c2.92625.99875 4.49125 4.185 3.4925 7.1125-1 2.92625-4.18625 4.49125-7.11375 3.49125l-24.8562488-8.48625c-2.9275-.99875-4.49125-4.185-3.4925-7.1125z" fill="#a6c442" fill-rule="evenodd" stroke="#008000" stroke-width=".997562"/><path d="m2.9561342 299.39076 1.9275 3.92625-3.92624997 1.9275m4.81499997-4.8925 1.9275 3.92625-3.92625 1.9275m4.815-4.8925 1.9287498 3.92625-3.9274998 1.92875m4.8162498-4.89375 1.9275 3.9275-3.9262498 1.9275m4.8149998-4.8925 1.927499 3.92625-3.926249 1.9275m4.814999-4.8925 1.92875 3.92625-3.927499 1.92875m4.814999-4.89375 1.92875 3.92625-3.9275 1.92875m4.81625-4.8925 1.9275 3.92625-3.92625 1.9275m4.815-4.8925 1.9275 3.92625-3.92625 1.9275m-23.35124877-14.50875 1.92874997 3.9275-3.9275 1.9275" fill="none" stroke="#008000" stroke-linecap="round" stroke-width=".997562"/><path d="m-2.5951158 300.76451 30.3162488 10.34875" fill="none" stroke="#008000" stroke-linecap="round" stroke-width=".997562"/></g><g stroke-width=".997562" transform="matrix(-.15992014 .874718 -.874718 -.15992014 243.27169 304.49286)"><path d="m-5.2826158 299.84326c1-2.92625 4.18625-4.49125 7.11375-3.49125l24.8549988 8.49125c2.9275.99875 4.49125 4.18625 3.49125 7.1125-.99875 2.92625-4.18625 4.49125-7.1125 3.49125l-24.8562488-8.49c-2.92625-1-4.49125-4.1875-3.49125-7.11375z" fill="none" stroke="#2c2c2b" stroke-width=".997562"/><path d="m-5.2826158 299.84576c.99875-2.92625 4.18625-4.49125 7.1125-3.49125l24.8574988 8.48625c2.92625.99875 4.49125 4.185 3.4925 7.1125-1 2.92625-4.18625 4.49125-7.11375 3.49125l-24.8562488-8.48625c-2.9275-.99875-4.49125-4.185-3.4925-7.1125z" fill="#a6c442" fill-rule="evenodd" stroke="#008000" stroke-width=".997562"/><path d="m2.9561342 299.39076 1.9275 3.92625-3.92624997 1.9275m4.81499997-4.8925 1.9275 3.92625-3.92625 1.9275m4.815-4.8925 1.9287498 3.92625-3.9274998 1.92875m4.8162498-4.89375 1.9275 3.9275-3.9262498 1.9275m4.8149998-4.8925 1.927499 3.92625-3.926249 1.9275m4.814999-4.8925 1.92875 3.92625-3.927499 1.92875m4.814999-4.89375 1.92875 3.92625-3.9275 1.92875m4.81625-4.8925 1.9275 3.92625-3.92625 1.9275m4.815-4.8925 1.9275 3.92625-3.92625 1.9275m-23.35124877-14.50875 1.92874997 3.9275-3.9275 1.9275" fill="none" stroke="#008000" stroke-linecap="round" stroke-width=".997562"/><path d="m-2.5951158 300.76451 30.3162488 10.34875" fill="none" stroke="#008000" stroke-linecap="round" stroke-width=".997562"/></g><g stroke-width=".997562" transform="matrix(.2870994 .84159371 -.84159371 .2870994 239.37524 181.92939)"><path d="m-5.2826158 299.84326c1-2.92625 4.18625-4.49125 7.11375-3.49125l24.8549988 8.49125c2.9275.99875 4.49125 4.18625 3.49125 7.1125-.99875 2.92625-4.18625 4.49125-7.1125 3.49125l-24.8562488-8.49c-2.92625-1-4.49125-4.1875-3.49125-7.11375z" fill="none" stroke="#2c2c2b" stroke-width=".997562"/><path d="m-5.2826158 299.84576c.99875-2.92625 4.18625-4.49125 7.1125-3.49125l24.8574988 8.48625c2.92625.99875 4.49125 4.185 3.4925 7.1125-1 2.92625-4.18625 4.49125-7.11375 3.49125l-24.8562488-8.48625c-2.9275-.99875-4.49125-4.185-3.4925-7.1125z" fill="#a6c442" fill-rule="evenodd" stroke="#008000" stroke-width=".997562"/><path d="m2.9561342 299.39076 1.9275 3.92625-3.92624997 1.9275m4.81499997-4.8925 1.9275 3.92625-3.92625 1.9275m4.815-4.8925 1.9287498 3.92625-3.9274998 1.92875m4.8162498-4.89375 1.9275 3.9275-3.9262498 1.9275m4.8149998-4.8925 1.927499 3.92625-3.926249 1.9275m4.814999-4.8925 1.92875 3.92625-3.927499 1.92875m4.814999-4.89375 1.92875 3.92625-3.9275 1.92875m4.81625-4.8925 1.9275 3.92625-3.92625 1.9275m4.815-4.8925 1.9275 3.92625-3.92625 1.9275m-23.35124877-14.50875 1.92874997 3.9275-3.9275 1.9275" fill="none" stroke="#008000" stroke-linecap="round" stroke-width=".997562"/><path d="m-2.5951158 300.76451 30.3162488 10.34875" fill="none" stroke="#008000" stroke-linecap="round" stroke-width=".997562"/></g><g stroke-width=".997562" transform="matrix(.2870994 .84159371 -.84159371 .2870994 251.17578 187.82966)"><path d="m-5.2826158 299.84326c1-2.92625 4.18625-4.49125 7.11375-3.49125l24.8549988 8.49125c2.9275.99875 4.49125 4.18625 3.49125 7.1125-.99875 2.92625-4.18625 4.49125-7.1125 3.49125l-24.8562488-8.49c-2.92625-1-4.49125-4.1875-3.49125-7.11375z" fill="none" stroke="#2c2c2b" stroke-width=".997562"/><path d="m-5.2826158 299.84576c.99875-2.92625 4.18625-4.49125 7.1125-3.49125l24.8574988 8.48625c2.92625.99875 4.49125 4.185 3.4925 7.1125-1 2.92625-4.18625 4.49125-7.11375 3.49125l-24.8562488-8.48625c-2.9275-.99875-4.49125-4.185-3.4925-7.1125z" fill="#a6c442" fill-rule="evenodd" stroke="#008000" stroke-width=".997562"/><path d="m2.9561342 299.39076 1.9275 3.92625-3.92624997 1.9275m4.81499997-4.8925 1.9275 3.92625-3.92625 1.9275m4.815-4.8925 1.9287498 3.92625-3.9274998 1.92875m4.8162498-4.89375 1.9275 3.9275-3.9262498 1.9275m4.8149998-4.8925 1.927499 3.92625-3.926249 1.9275m4.814999-4.8925 1.92875 3.92625-3.927499 1.92875m4.814999-4.89375 1.92875 3.92625-3.9275 1.92875m4.81625-4.8925 1.9275 3.92625-3.92625 1.9275m4.815-4.8925 1.9275 3.92625-3.92625 1.9275m-23.35124877-14.50875 1.92874997 3.9275-3.9275 1.9275" fill="none" stroke="#008000" stroke-linecap="round" stroke-width=".997562"/><path d="m-2.5951158 300.76451 30.3162488 10.34875" fill="none" stroke="#008000" stroke-linecap="round" stroke-width=".997562"/></g><g stroke-width=".997562" transform="matrix(.49478887 .7388437 -.7388437 .49478887 231.5823 131.14905)"><path d="m-5.2826158 299.84326c1-2.92625 4.18625-4.49125 7.11375-3.49125l24.8549988 8.49125c2.9275.99875 4.49125 4.18625 3.49125 7.1125-.99875 2.92625-4.18625 4.49125-7.1125 3.49125l-24.8562488-8.49c-2.92625-1-4.49125-4.1875-3.49125-7.11375z" fill="none" stroke="#2c2c2b" stroke-width=".997562"/><path d="m-5.2826158 299.84576c.99875-2.92625 4.18625-4.49125 7.1125-3.49125l24.8574988 8.48625c2.92625.99875 4.49125 4.185 3.4925 7.1125-1 2.92625-4.18625 4.49125-7.11375 3.49125l-24.8562488-8.48625c-2.9275-.99875-4.49125-4.185-3.4925-7.1125z" fill="#a6c442" fill-rule="evenodd" stroke="#008000" stroke-width=".997562"/><path d="m2.9561342 299.39076 1.9275 3.92625-3.92624997 1.9275m4.81499997-4.8925 1.9275 3.92625-3.92625 1.9275m4.815-4.8925 1.9287498 3.92625-3.9274998 1.92875m4.8162498-4.89375 1.9275 3.9275-3.9262498 1.9275m4.8149998-4.8925 1.927499 3.92625-3.926249 1.9275m4.814999-4.8925 1.92875 3.92625-3.927499 1.92875m4.814999-4.89375 1.92875 3.92625-3.9275 1.92875m4.81625-4.8925 1.9275 3.92625-3.92625 1.9275m4.815-4.8925 1.9275 3.92625-3.92625 1.9275m-23.35124877-14.50875 1.92874997 3.9275-3.9275 1.9275" fill="none" stroke="#008000" stroke-linecap="round" stroke-width=".997562"/><path d="m-2.5951158 300.76451 30.3162488 10.34875" fill="none" stroke="#008000" stroke-linecap="round" stroke-width=".997562"/></g><path d="m21.25588 280.13126c2.62179-.48955 5.14808 1.24005 5.63815 3.86279l4.16006 22.26791c.49101 2.6222-1.24006 5.14808-3.86185 5.63763-2.62127.49048-5.14808-1.24006-5.63763-3.86185l-4.16152-22.26833c-.48955-2.62179 1.241-5.1486 3.86279-5.63815z" fill="none" stroke="#2c2c2b" stroke-width=".887049"/><path d="m21.254 280.13232c2.62126-.49049 5.14808 1.24005 5.63763 3.86185l4.16486 22.26767c.49049 2.62126-1.23911 5.14755-3.86131 5.63856-2.6218.48955-5.14808-1.24005-5.63816-3.86278l-4.16434-22.26674c-.49102-2.6222 1.23912-5.14755 3.86132-5.63856z" fill="#a6c442" fill-rule="evenodd" stroke="#008000" stroke-width=".887049"/><path d="m25.08867 286.12732-2.13172 3.11228-3.11228-2.13171m5.71601 1.54218-2.13171 3.11228-3.11228-2.13171m5.71601 1.54217-2.13118 3.11322-3.11375-2.13212m5.71748 1.54259-2.13265 3.11281-3.11228-2.13171m5.71601 1.54218-2.13172 3.11228-3.11228-2.13172m5.71601 1.54218-2.13118 3.11322-3.11375-2.13212m5.71695 1.54165-2.13118 3.11322-3.11375-2.13213m5.71654 1.54312-2.13171 3.11228-3.11229-2.13171m5.71602 1.54218-2.13172 3.11228-3.11228-2.13172m.99707-23.68968-2.13212 3.11375-3.11281-2.13266" fill="none" stroke="#008000" stroke-linecap="round" stroke-width=".887049"/><path d="m21.70335 282.54034 5.08031 27.15723" fill="none" stroke="#008000" stroke-linecap="round" stroke-width=".887049"/></g><g stroke-width=".887049" transform="matrix(1.6872393 0 0 1.6872393 343.283916 -154.444)"><g stroke-width=".89466" transform="matrix(.33075745 .93469691 -.93469691 .33075745 118.44521 41.74931)"><path d="m-5.2826158 299.84326c1-2.92625 4.18625-4.49125 7.11375-3.49125l24.8549988 8.49125c2.9275.99875 4.49125 4.18625 3.49125 7.1125-.99875 2.92625-4.18625 4.49125-7.1125 3.49125l-24.8562488-8.49c-2.92625-1-4.49125-4.1875-3.49125-7.11375z" fill="none" stroke="#2c2c2b" stroke-width=".89466"/><path d="m-5.2826158 299.84576c.99875-2.92625 4.18625-4.49125 7.1125-3.49125l24.8574988 8.48625c2.92625.99875 4.49125 4.185 3.4925 7.1125-1 2.92625-4.18625 4.49125-7.11375 3.49125l-24.8562488-8.48625c-2.9275-.99875-4.49125-4.185-3.4925-7.1125z" fill="#a6c442" fill-rule="evenodd" stroke="#008000" stroke-width=".89466"/><path d="m2.9561342 299.39076 1.9275 3.92625-3.92624997 1.9275m4.81499997-4.8925 1.9275 3.92625-3.92625 1.9275m4.815-4.8925 1.9287498 3.92625-3.9274998 1.92875m4.8162498-4.89375 1.9275 3.9275-3.9262498 1.9275m4.8149998-4.8925 1.927499 3.92625-3.926249 1.9275m4.814999-4.8925 1.92875 3.92625-3.927499 1.92875m4.814999-4.89375 1.92875 3.92625-3.9275 1.92875m4.81625-4.8925 1.9275 3.92625-3.92625 1.9275m4.815-4.8925 1.9275 3.92625-3.92625 1.9275m-23.35124877-14.50875 1.92874997 3.9275-3.9275 1.9275" fill="none" stroke="#008000" stroke-linecap="round" stroke-width=".89466"/><path d="m-2.5951158 300.76451 30.3162488 10.34875" fill="none" stroke="#008000" stroke-linecap="round" stroke-width=".89466"/></g><g stroke-width=".89466" transform="matrix(.04172114 .99061504 -.99061504 .04172114 168.32181 101.93492)"><path d="m-5.2826158 299.84326c1-2.92625 4.18625-4.49125 7.11375-3.49125l24.8549988 8.49125c2.9275.99875 4.49125 4.18625 3.49125 7.1125-.99875 2.92625-4.18625 4.49125-7.1125 3.49125l-24.8562488-8.49c-2.92625-1-4.49125-4.1875-3.49125-7.11375z" fill="none" stroke="#2c2c2b" stroke-width=".89466"/><path d="m-5.2826158 299.84576c.99875-2.92625 4.18625-4.49125 7.1125-3.49125l24.8574988 8.48625c2.92625.99875 4.49125 4.185 3.4925 7.1125-1 2.92625-4.18625 4.49125-7.11375 3.49125l-24.8562488-8.48625c-2.9275-.99875-4.49125-4.185-3.4925-7.1125z" fill="#a6c442" fill-rule="evenodd" stroke="#008000" stroke-width=".89466"/><path d="m2.9561342 299.39076 1.9275 3.92625-3.92624997 1.9275m4.81499997-4.8925 1.9275 3.92625-3.92625 1.9275m4.815-4.8925 1.9287498 3.92625-3.9274998 1.92875m4.8162498-4.89375 1.9275 3.9275-3.9262498 1.9275m4.8149998-4.8925 1.927499 3.92625-3.926249 1.9275m4.814999-4.8925 1.92875 3.92625-3.927499 1.92875m4.814999-4.89375 1.92875 3.92625-3.9275 1.92875m4.81625-4.8925 1.9275 3.92625-3.92625 1.9275m4.815-4.8925 1.9275 3.92625-3.92625 1.9275m-23.35124877-14.50875 1.92874997 3.9275-3.9275 1.9275" fill="none" stroke="#008000" stroke-linecap="round" stroke-width=".89466"/><path d="m-2.5951158 300.76451 30.3162488 10.34875" fill="none" stroke="#008000" stroke-linecap="round" stroke-width=".89466"/></g><g stroke-width=".89466" transform="matrix(.32517488 .93665367 -.93665367 .32517488 132.88052 25.404231)"><path d="m-5.2826158 299.84326c1-2.92625 4.18625-4.49125 7.11375-3.49125l24.8549988 8.49125c2.9275.99875 4.49125 4.18625 3.49125 7.1125-.99875 2.92625-4.18625 4.49125-7.1125 3.49125l-24.8562488-8.49c-2.92625-1-4.49125-4.1875-3.49125-7.11375z" fill="none" stroke="#2c2c2b" stroke-width=".89466"/><path d="m-5.2826158 299.84576c.99875-2.92625 4.18625-4.49125 7.1125-3.49125l24.8574988 8.48625c2.92625.99875 4.49125 4.185 3.4925 7.1125-1 2.92625-4.18625 4.49125-7.11375 3.49125l-24.8562488-8.48625c-2.9275-.99875-4.49125-4.185-3.4925-7.1125z" fill="#a6c442" fill-rule="evenodd" stroke="#008000" stroke-width=".89466"/><path d="m2.9561342 299.39076 1.9275 3.92625-3.92624997 1.9275m4.81499997-4.8925 1.9275 3.92625-3.92625 1.9275m4.815-4.8925 1.9287498 3.92625-3.9274998 1.92875m4.8162498-4.89375 1.9275 3.9275-3.9262498 1.9275m4.8149998-4.8925 1.927499 3.92625-3.926249 1.9275m4.814999-4.8925 1.92875 3.92625-3.927499 1.92875m4.814999-4.89375 1.92875 3.92625-3.9275 1.92875m4.81625-4.8925 1.9275 3.92625-3.92625 1.9275m4.815-4.8925 1.9275 3.92625-3.92625 1.9275m-23.35124877-14.50875 1.92874997 3.9275-3.9275 1.9275" fill="none" stroke="#008000" stroke-linecap="round" stroke-width=".89466"/><path d="m-2.5951158 300.76451 30.3162488 10.34875" fill="none" stroke="#008000" stroke-linecap="round" stroke-width=".89466"/></g><g stroke-width=".89466" transform="matrix(.70313987 .69903727 -.69903727 .70313987 30.90464 -57.100828)"><path d="m-5.2826158 299.84326c1-2.92625 4.18625-4.49125 7.11375-3.49125l24.8549988 8.49125c2.9275.99875 4.49125 4.18625 3.49125 7.1125-.99875 2.92625-4.18625 4.49125-7.1125 3.49125l-24.8562488-8.49c-2.92625-1-4.49125-4.1875-3.49125-7.11375z" fill="none" stroke="#2c2c2b" stroke-width=".89466"/><path d="m-5.2826158 299.84576c.99875-2.92625 4.18625-4.49125 7.1125-3.49125l24.8574988 8.48625c2.92625.99875 4.49125 4.185 3.4925 7.1125-1 2.92625-4.18625 4.49125-7.11375 3.49125l-24.8562488-8.48625c-2.9275-.99875-4.49125-4.185-3.4925-7.1125z" fill="#a6c442" fill-rule="evenodd" stroke="#008000" stroke-width=".89466"/><path d="m2.9561342 299.39076 1.9275 3.92625-3.92624997 1.9275m4.81499997-4.8925 1.9275 3.92625-3.92625 1.9275m4.815-4.8925 1.9287498 3.92625-3.9274998 1.92875m4.8162498-4.89375 1.9275 3.9275-3.9262498 1.9275m4.8149998-4.8925 1.927499 3.92625-3.926249 1.9275m4.814999-4.8925 1.92875 3.92625-3.927499 1.92875m4.814999-4.89375 1.92875 3.92625-3.9275 1.92875m4.81625-4.8925 1.9275 3.92625-3.92625 1.9275m4.815-4.8925 1.9275 3.92625-3.92625 1.9275m-23.35124877-14.50875 1.92874997 3.9275-3.9275 1.9275" fill="none" stroke="#008000" stroke-linecap="round" stroke-width=".89466"/><path d="m-2.5951158 300.76451 30.3162488 10.34875" fill="none" stroke="#008000" stroke-linecap="round" stroke-width=".89466"/></g><g stroke-width=".89466" transform="matrix(.70313987 .69903727 -.69903727 .70313987 23.03761 -39.072227)"><path d="m-5.2826158 299.84326c1-2.92625 4.18625-4.49125 7.11375-3.49125l24.8549988 8.49125c2.9275.99875 4.49125 4.18625 3.49125 7.1125-.99875 2.92625-4.18625 4.49125-7.1125 3.49125l-24.8562488-8.49c-2.92625-1-4.49125-4.1875-3.49125-7.11375z" fill="none" stroke="#2c2c2b" stroke-width=".89466"/><path d="m-5.2826158 299.84576c.99875-2.92625 4.18625-4.49125 7.1125-3.49125l24.8574988 8.48625c2.92625.99875 4.49125 4.185 3.4925 7.1125-1 2.92625-4.18625 4.49125-7.11375 3.49125l-24.8562488-8.48625c-2.9275-.99875-4.49125-4.185-3.4925-7.1125z" fill="#a6c442" fill-rule="evenodd" stroke="#008000" stroke-width=".89466"/><path d="m2.9561342 299.39076 1.9275 3.92625-3.92624997 1.9275m4.81499997-4.8925 1.9275 3.92625-3.92625 1.9275m4.815-4.8925 1.9287498 3.92625-3.9274998 1.92875m4.8162498-4.89375 1.9275 3.9275-3.9262498 1.9275m4.8149998-4.8925 1.927499 3.92625-3.926249 1.9275m4.814999-4.8925 1.92875 3.92625-3.927499 1.92875m4.814999-4.89375 1.92875 3.92625-3.9275 1.92875m4.81625-4.8925 1.9275 3.92625-3.92625 1.9275m4.815-4.8925 1.9275 3.92625-3.92625 1.9275m-23.35124877-14.50875 1.92874997 3.9275-3.9275 1.9275" fill="none" stroke="#008000" stroke-linecap="round" stroke-width=".89466"/><path d="m-2.5951158 300.76451 30.3162488 10.34875" fill="none" stroke="#008000" stroke-linecap="round" stroke-width=".89466"/></g><g stroke-width=".89466" transform="matrix(.92219999 .364151 -.364151 .92219999 -85.222792 -83.383979)"><path d="m-5.2826158 299.84326c1-2.92625 4.18625-4.49125 7.11375-3.49125l24.8549988 8.49125c2.9275.99875 4.49125 4.18625 3.49125 7.1125-.99875 2.92625-4.18625 4.49125-7.1125 3.49125l-24.8562488-8.49c-2.92625-1-4.49125-4.1875-3.49125-7.11375z" fill="none" stroke="#2c2c2b" stroke-width=".89466"/><path d="m-5.2826158 299.84576c.99875-2.92625 4.18625-4.49125 7.1125-3.49125l24.8574988 8.48625c2.92625.99875 4.49125 4.185 3.4925 7.1125-1 2.92625-4.18625 4.49125-7.11375 3.49125l-24.8562488-8.48625c-2.9275-.99875-4.49125-4.185-3.4925-7.1125z" fill="#a6c442" fill-rule="evenodd" stroke="#008000" stroke-width=".89466"/><path d="m2.9561342 299.39076 1.9275 3.92625-3.92624997 1.9275m4.81499997-4.8925 1.9275 3.92625-3.92625 1.9275m4.815-4.8925 1.9287498 3.92625-3.9274998 1.92875m4.8162498-4.89375 1.9275 3.9275-3.9262498 1.9275m4.8149998-4.8925 1.927499 3.92625-3.926249 1.9275m4.814999-4.8925 1.92875 3.92625-3.927499 1.92875m4.814999-4.89375 1.92875 3.92625-3.9275 1.92875m4.81625-4.8925 1.9275 3.92625-3.92625 1.9275m4.815-4.8925 1.9275 3.92625-3.92625 1.9275m-23.35124877-14.50875 1.92874997 3.9275-3.9275 1.9275" fill="none" stroke="#008000" stroke-linecap="round" stroke-width=".89466"/><path d="m-2.5951158 300.76451 30.3162488 10.34875" fill="none" stroke="#008000" stroke-linecap="round" stroke-width=".89466"/></g><g stroke-width=".89466" transform="matrix(.94014515 .31493789 -.31493789 .94014515 -102.18336 -67.957373)"><path d="m-5.2826158 299.84326c1-2.92625 4.18625-4.49125 7.11375-3.49125l24.8549988 8.49125c2.9275.99875 4.49125 4.18625 3.49125 7.1125-.99875 2.92625-4.18625 4.49125-7.1125 3.49125l-24.8562488-8.49c-2.92625-1-4.49125-4.1875-3.49125-7.11375z" fill="none" stroke="#2c2c2b" stroke-width=".89466"/><path d="m-5.2826158 299.84576c.99875-2.92625 4.18625-4.49125 7.1125-3.49125l24.8574988 8.48625c2.92625.99875 4.49125 4.185 3.4925 7.1125-1 2.92625-4.18625 4.49125-7.11375 3.49125l-24.8562488-8.48625c-2.9275-.99875-4.49125-4.185-3.4925-7.1125z" fill="#a6c442" fill-rule="evenodd" stroke="#008000" stroke-width=".89466"/><path d="m2.9561342 299.39076 1.9275 3.92625-3.92624997 1.9275m4.81499997-4.8925 1.9275 3.92625-3.92625 1.9275m4.815-4.8925 1.9287498 3.92625-3.9274998 1.92875m4.8162498-4.89375 1.9275 3.9275-3.9262498 1.9275m4.8149998-4.8925 1.927499 3.92625-3.926249 1.9275m4.814999-4.8925 1.92875 3.92625-3.927499 1.92875m4.814999-4.89375 1.92875 3.92625-3.9275 1.92875m4.81625-4.8925 1.9275 3.92625-3.92625 1.9275m4.815-4.8925 1.9275 3.92625-3.92625 1.9275m-23.35124877-14.50875 1.92874997 3.9275-3.9275 1.9275" fill="none" stroke="#008000" stroke-linecap="round" stroke-width=".89466"/><path d="m-2.5951158 300.76451 30.3162488 10.34875" fill="none" stroke="#008000" stroke-linecap="round" stroke-width=".89466"/></g><g stroke-width=".89466" transform="matrix(.99055951 .04301899 -.04301899 .99055951 -182.38505 -61.637974)"><path d="m-5.2826158 299.84326c1-2.92625 4.18625-4.49125 7.11375-3.49125l24.8549988 8.49125c2.9275.99875 4.49125 4.18625 3.49125 7.1125-.99875 2.92625-4.18625 4.49125-7.1125 3.49125l-24.8562488-8.49c-2.92625-1-4.49125-4.1875-3.49125-7.11375z" fill="none" stroke="#2c2c2b" stroke-width=".89466"/><path d="m-5.2826158 299.84576c.99875-2.92625 4.18625-4.49125 7.1125-3.49125l24.8574988 8.48625c2.92625.99875 4.49125 4.185 3.4925 7.1125-1 2.92625-4.18625 4.49125-7.11375 3.49125l-24.8562488-8.48625c-2.9275-.99875-4.49125-4.185-3.4925-7.1125z" fill="#a6c442" fill-rule="evenodd" stroke="#008000" stroke-width=".89466"/><path d="m2.9561342 299.39076 1.9275 3.92625-3.92624997 1.9275m4.81499997-4.8925 1.9275 3.92625-3.92625 1.9275m4.815-4.8925 1.9287498 3.92625-3.9274998 1.92875m4.8162498-4.89375 1.9275 3.9275-3.9262498 1.9275m4.8149998-4.8925 1.927499 3.92625-3.926249 1.9275m4.814999-4.8925 1.92875 3.92625-3.927499 1.92875m4.814999-4.89375 1.92875 3.92625-3.9275 1.92875m4.81625-4.8925 1.9275 3.92625-3.92625 1.9275m4.815-4.8925 1.9275 3.92625-3.92625 1.9275m-23.35124877-14.50875 1.92874997 3.9275-3.9275 1.9275" fill="none" stroke="#008000" stroke-linecap="round" stroke-width=".89466"/><path d="m-2.5951158 300.76451 30.3162488 10.34875" fill="none" stroke="#008000" stroke-linecap="round" stroke-width=".89466"/></g><g stroke-width=".89466" transform="matrix(.99039074 -.04674348 .04674348 .99039074 -204.59656 -41.129261)"><path d="m-5.2826158 299.84326c1-2.92625 4.18625-4.49125 7.11375-3.49125l24.8549988 8.49125c2.9275.99875 4.49125 4.18625 3.49125 7.1125-.99875 2.92625-4.18625 4.49125-7.1125 3.49125l-24.8562488-8.49c-2.92625-1-4.49125-4.1875-3.49125-7.11375z" fill="none" stroke="#2c2c2b" stroke-width=".89466"/><path d="m-5.2826158 299.84576c.99875-2.92625 4.18625-4.49125 7.1125-3.49125l24.8574988 8.48625c2.92625.99875 4.49125 4.185 3.4925 7.1125-1 2.92625-4.18625 4.49125-7.11375 3.49125l-24.8562488-8.48625c-2.9275-.99875-4.49125-4.185-3.4925-7.1125z" fill="#a6c442" fill-rule="evenodd" stroke="#008000" stroke-width=".89466"/><path d="m2.9561342 299.39076 1.9275 3.92625-3.92624997 1.9275m4.81499997-4.8925 1.9275 3.92625-3.92625 1.9275m4.815-4.8925 1.9287498 3.92625-3.9274998 1.92875m4.8162498-4.89375 1.9275 3.9275-3.9262498 1.9275m4.8149998-4.8925 1.927499 3.92625-3.926249 1.9275m4.814999-4.8925 1.92875 3.92625-3.927499 1.92875m4.814999-4.89375 1.92875 3.92625-3.9275 1.92875m4.81625-4.8925 1.9275 3.92625-3.92625 1.9275m4.815-4.8925 1.9275 3.92625-3.92625 1.9275m-23.35124877-14.50875 1.92874997 3.9275-3.9275 1.9275" fill="none" stroke="#008000" stroke-linecap="round" stroke-width=".89466"/><path d="m-2.5951158 300.76451 30.3162488 10.34875" fill="none" stroke="#008000" stroke-linecap="round" stroke-width=".89466"/></g><g stroke-width=".89466" transform="matrix(.93914631 -.31790404 .31790404 .93914631 -277.07279 -4.705348)"><path d="m-5.2826158 299.84326c1-2.92625 4.18625-4.49125 7.11375-3.49125l24.8549988 8.49125c2.9275.99875 4.49125 4.18625 3.49125 7.1125-.99875 2.92625-4.18625 4.49125-7.1125 3.49125l-24.8562488-8.49c-2.92625-1-4.49125-4.1875-3.49125-7.11375z" fill="none" stroke="#2c2c2b" stroke-width=".89466"/><path d="m-5.2826158 299.84576c.99875-2.92625 4.18625-4.49125 7.1125-3.49125l24.8574988 8.48625c2.92625.99875 4.49125 4.185 3.4925 7.1125-1 2.92625-4.18625 4.49125-7.11375 3.49125l-24.8562488-8.48625c-2.9275-.99875-4.49125-4.185-3.4925-7.1125z" fill="#a6c442" fill-rule="evenodd" stroke="#008000" stroke-width=".89466"/><path d="m2.9561342 299.39076 1.9275 3.92625-3.92624997 1.9275m4.81499997-4.8925 1.9275 3.92625-3.92625 1.9275m4.815-4.8925 1.9287498 3.92625-3.9274998 1.92875m4.8162498-4.89375 1.9275 3.9275-3.9262498 1.9275m4.8149998-4.8925 1.927499 3.92625-3.926249 1.9275m4.814999-4.8925 1.92875 3.92625-3.927499 1.92875m4.814999-4.89375 1.92875 3.92625-3.9275 1.92875m4.81625-4.8925 1.9275 3.92625-3.92625 1.9275m4.815-4.8925 1.9275 3.92625-3.92625 1.9275m-23.35124877-14.50875 1.92874997 3.9275-3.9275 1.9275" fill="none" stroke="#008000" stroke-linecap="round" stroke-width=".89466"/><path d="m-2.5951158 300.76451 30.3162488 10.34875" fill="none" stroke="#008000" stroke-linecap="round" stroke-width=".89466"/></g><g stroke-width=".89466" transform="matrix(.93234353 -.33733412 .33733412 .93234353 -265.88654 11.71256)"><path d="m-5.2826158 299.84326c1-2.92625 4.18625-4.49125 7.11375-3.49125l24.8549988 8.49125c2.9275.99875 4.49125 4.18625 3.49125 7.1125-.99875 2.92625-4.18625 4.49125-7.1125 3.49125l-24.8562488-8.49c-2.92625-1-4.49125-4.1875-3.49125-7.11375z" fill="none" stroke="#2c2c2b" stroke-width=".89466"/><path d="m-5.2826158 299.84576c.99875-2.92625 4.18625-4.49125 7.1125-3.49125l24.8574988 8.48625c2.92625.99875 4.49125 4.185 3.4925 7.1125-1 2.92625-4.18625 4.49125-7.11375 3.49125l-24.8562488-8.48625c-2.9275-.99875-4.49125-4.185-3.4925-7.1125z" fill="#a6c442" fill-rule="evenodd" stroke="#008000" stroke-width=".89466"/><path d="m2.9561342 299.39076 1.9275 3.92625-3.92624997 1.9275m4.81499997-4.8925 1.9275 3.92625-3.92625 1.9275m4.815-4.8925 1.9287498 3.92625-3.9274998 1.92875m4.8162498-4.89375 1.9275 3.9275-3.9262498 1.9275m4.8149998-4.8925 1.927499 3.92625-3.926249 1.9275m4.814999-4.8925 1.92875 3.92625-3.927499 1.92875m4.814999-4.89375 1.92875 3.92625-3.9275 1.92875m4.81625-4.8925 1.9275 3.92625-3.92625 1.9275m4.815-4.8925 1.9275 3.92625-3.92625 1.9275m-23.35124877-14.50875 1.92874997 3.9275-3.9275 1.9275" fill="none" stroke="#008000" stroke-linecap="round" stroke-width=".89466"/><path d="m-2.5951158 300.76451 30.3162488 10.34875" fill="none" stroke="#008000" stroke-linecap="round" stroke-width=".89466"/></g><g stroke-width=".89466" transform="matrix(.71802312 -.68374086 .68374086 .71802312 -358.69532 94.041105)"><path d="m-5.2826158 299.84326c1-2.92625 4.18625-4.49125 7.11375-3.49125l24.8549988 8.49125c2.9275.99875 4.49125 4.18625 3.49125 7.1125-.99875 2.92625-4.18625 4.49125-7.1125 3.49125l-24.8562488-8.49c-2.92625-1-4.49125-4.1875-3.49125-7.11375z" fill="none" stroke="#2c2c2b" stroke-width=".89466"/><path d="m-5.2826158 299.84576c.99875-2.92625 4.18625-4.49125 7.1125-3.49125l24.8574988 8.48625c2.92625.99875 4.49125 4.185 3.4925 7.1125-1 2.92625-4.18625 4.49125-7.11375 3.49125l-24.8562488-8.48625c-2.9275-.99875-4.49125-4.185-3.4925-7.1125z" fill="#a6c442" fill-rule="evenodd" stroke="#008000" stroke-width=".89466"/><path d="m2.9561342 299.39076 1.9275 3.92625-3.92624997 1.9275m4.81499997-4.8925 1.9275 3.92625-3.92625 1.9275m4.815-4.8925 1.9287498 3.92625-3.9274998 1.92875m4.8162498-4.89375 1.9275 3.9275-3.9262498 1.9275m4.8149998-4.8925 1.927499 3.92625-3.926249 1.9275m4.814999-4.8925 1.92875 3.92625-3.927499 1.92875m4.814999-4.89375 1.92875 3.92625-3.9275 1.92875m4.81625-4.8925 1.9275 3.92625-3.92625 1.9275m4.815-4.8925 1.9275 3.92625-3.92625 1.9275m-23.35124877-14.50875 1.92874997 3.9275-3.9275 1.9275" fill="none" stroke="#008000" stroke-linecap="round" stroke-width=".89466"/><path d="m-2.5951158 300.76451 30.3162488 10.34875" fill="none" stroke="#008000" stroke-linecap="round" stroke-width=".89466"/></g><g stroke-width="1.003654" transform="matrix(.43998286 -.7665188 .7665188 .43998286 -344.91082 195.81243)"><path d="m-5.2826158 299.84326c1-2.92625 4.18625-4.49125 7.11375-3.49125l24.8549988 8.49125c2.9275.99875 4.49125 4.18625 3.49125 7.1125-.99875 2.92625-4.18625 4.49125-7.1125 3.49125l-24.8562488-8.49c-2.92625-1-4.49125-4.1875-3.49125-7.11375z" fill="none" stroke="#2c2c2b" stroke-width="1.003654"/><path d="m-5.2826158 299.84576c.99875-2.92625 4.18625-4.49125 7.1125-3.49125l24.8574988 8.48625c2.92625.99875 4.49125 4.185 3.4925 7.1125-1 2.92625-4.18625 4.49125-7.11375 3.49125l-24.8562488-8.48625c-2.9275-.99875-4.49125-4.185-3.4925-7.1125z" fill="#a6c442" fill-rule="evenodd" stroke="#008000" stroke-width="1.003654"/><path d="m2.9561342 299.39076 1.9275 3.92625-3.92624997 1.9275m4.81499997-4.8925 1.9275 3.92625-3.92625 1.9275m4.815-4.8925 1.9287498 3.92625-3.9274998 1.92875m4.8162498-4.89375 1.9275 3.9275-3.9262498 1.9275m4.8149998-4.8925 1.927499 3.92625-3.926249 1.9275m4.814999-4.8925 1.92875 3.92625-3.927499 1.92875m4.814999-4.89375 1.92875 3.92625-3.9275 1.92875m4.81625-4.8925 1.9275 3.92625-3.92625 1.9275m4.815-4.8925 1.9275 3.92625-3.92625 1.9275m-23.35124877-14.50875 1.92874997 3.9275-3.9275 1.9275" fill="none" stroke="#008000" stroke-linecap="round" stroke-width="1.003654"/><path d="m-2.5951158 300.76451 30.3162488 10.34875" fill="none" stroke="#008000" stroke-linecap="round" stroke-width="1.003654"/></g><g stroke-width=".89466" transform="matrix(.71802312 -.68374086 .68374086 .71802312 -339.73009 102.09706)"><path d="m-5.2826158 299.84326c1-2.92625 4.18625-4.49125 7.11375-3.49125l24.8549988 8.49125c2.9275.99875 4.49125 4.18625 3.49125 7.1125-.99875 2.92625-4.18625 4.49125-7.1125 3.49125l-24.8562488-8.49c-2.92625-1-4.49125-4.1875-3.49125-7.11375z" fill="none" stroke="#2c2c2b" stroke-width=".89466"/><path d="m-5.2826158 299.84576c.99875-2.92625 4.18625-4.49125 7.1125-3.49125l24.8574988 8.48625c2.92625.99875 4.49125 4.185 3.4925 7.1125-1 2.92625-4.18625 4.49125-7.11375 3.49125l-24.8562488-8.48625c-2.9275-.99875-4.49125-4.185-3.4925-7.1125z" fill="#a6c442" fill-rule="evenodd" stroke="#008000" stroke-width=".89466"/><path d="m2.9561342 299.39076 1.9275 3.92625-3.92624997 1.9275m4.81499997-4.8925 1.9275 3.92625-3.92625 1.9275m4.815-4.8925 1.9287498 3.92625-3.9274998 1.92875m4.8162498-4.89375 1.9275 3.9275-3.9262498 1.9275m4.8149998-4.8925 1.927499 3.92625-3.926249 1.9275m4.814999-4.8925 1.92875 3.92625-3.927499 1.92875m4.814999-4.89375 1.92875 3.92625-3.9275 1.92875m4.81625-4.8925 1.9275 3.92625-3.92625 1.9275m4.815-4.8925 1.9275 3.92625-3.92625 1.9275m-23.35124877-14.50875 1.92874997 3.9275-3.9275 1.9275" fill="none" stroke="#008000" stroke-linecap="round" stroke-width=".89466"/><path d="m-2.5951158 300.76451 30.3162488 10.34875" fill="none" stroke="#008000" stroke-linecap="round" stroke-width=".89466"/></g></g><g stroke-width=".887049" transform="matrix(1.6872393 0 0 1.6872393 140.8152 -154.444)"><g stroke-width=".887049" transform="matrix(-.61016181 .79227683 -.79227683 -.61016181 236.97873 318.41286)"><path d="m-5.2826158 299.84326c1-2.92625 4.18625-4.49125 7.11375-3.49125l24.8549988 8.49125c2.9275.99875 4.49125 4.18625 3.49125 7.1125-.99875 2.92625-4.18625 4.49125-7.1125 3.49125l-24.8562488-8.49c-2.92625-1-4.49125-4.1875-3.49125-7.11375z" fill="none" stroke="#2c2c2b" stroke-width=".887049"/><path d="m-5.2826158 299.84576c.99875-2.92625 4.18625-4.49125 7.1125-3.49125l24.8574988 8.48625c2.92625.99875 4.49125 4.185 3.4925 7.1125-1 2.92625-4.18625 4.49125-7.11375 3.49125l-24.8562488-8.48625c-2.9275-.99875-4.49125-4.185-3.4925-7.1125z" fill="#a6c442" fill-rule="evenodd" stroke="#008000" stroke-width=".887049"/><path d="m2.9561342 299.39076 1.9275 3.92625-3.92624997 1.9275m4.81499997-4.8925 1.9275 3.92625-3.92625 1.9275m4.815-4.8925 1.9287498 3.92625-3.9274998 1.92875m4.8162498-4.89375 1.9275 3.9275-3.9262498 1.9275m4.8149998-4.8925 1.927499 3.92625-3.926249 1.9275m4.814999-4.8925 1.92875 3.92625-3.927499 1.92875m4.814999-4.89375 1.92875 3.92625-3.9275 1.92875m4.81625-4.8925 1.9275 3.92625-3.92625 1.9275m4.815-4.8925 1.9275 3.92625-3.92625 1.9275m-23.35124877-14.50875 1.92874997 3.9275-3.9275 1.9275" fill="none" stroke="#008000" stroke-linecap="round" stroke-width=".887049"/><path d="m-2.5951158 300.76451 30.3162488 10.34875" fill="none" stroke="#008000" stroke-linecap="round" stroke-width=".887049"/></g><g stroke-width=".887049" transform="matrix(-.37327173 .92772206 -.92772206 -.37327173 253.01972 262.62609)"><path d="m-5.2826158 299.84326c1-2.92625 4.18625-4.49125 7.11375-3.49125l24.8549988 8.49125c2.9275.99875 4.49125 4.18625 3.49125 7.1125-.99875 2.92625-4.18625 4.49125-7.1125 3.49125l-24.8562488-8.49c-2.92625-1-4.49125-4.1875-3.49125-7.11375z" fill="none" stroke="#2c2c2b" stroke-width=".887049"/><path d="m-5.2826158 299.84576c.99875-2.92625 4.18625-4.49125 7.1125-3.49125l24.8574988 8.48625c2.92625.99875 4.49125 4.185 3.4925 7.1125-1 2.92625-4.18625 4.49125-7.11375 3.49125l-24.8562488-8.48625c-2.9275-.99875-4.49125-4.185-3.4925-7.1125z" fill="#a6c442" fill-rule="evenodd" stroke="#008000" stroke-width=".887049"/><path d="m2.9561342 299.39076 1.9275 3.92625-3.92624997 1.9275m4.81499997-4.8925 1.9275 3.92625-3.92625 1.9275m4.815-4.8925 1.9287498 3.92625-3.9274998 1.92875m4.8162498-4.89375 1.9275 3.9275-3.9262498 1.9275m4.8149998-4.8925 1.927499 3.92625-3.926249 1.9275m4.814999-4.8925 1.92875 3.92625-3.927499 1.92875m4.814999-4.89375 1.92875 3.92625-3.9275 1.92875m4.81625-4.8925 1.9275 3.92625-3.92625 1.9275m4.815-4.8925 1.9275 3.92625-3.92625 1.9275m-23.35124877-14.50875 1.92874997 3.9275-3.9275 1.9275" fill="none" stroke="#008000" stroke-linecap="round" stroke-width=".887049"/><path d="m-2.5951158 300.76451 30.3162488 10.34875" fill="none" stroke="#008000" stroke-linecap="round" stroke-width=".887049"/></g><g stroke-width=".887049" transform="matrix(.02231841 .99975092 -.99975092 .02231841 256.69855 166.52345)"><path d="m-5.2826158 299.84326c1-2.92625 4.18625-4.49125 7.11375-3.49125l24.8549988 8.49125c2.9275.99875 4.49125 4.18625 3.49125 7.1125-.99875 2.92625-4.18625 4.49125-7.1125 3.49125l-24.8562488-8.49c-2.92625-1-4.49125-4.1875-3.49125-7.11375z" fill="none" stroke="#2c2c2b" stroke-width=".887049"/><path d="m-5.2826158 299.84576c.99875-2.92625 4.18625-4.49125 7.1125-3.49125l24.8574988 8.48625c2.92625.99875 4.49125 4.185 3.4925 7.1125-1 2.92625-4.18625 4.49125-7.11375 3.49125l-24.8562488-8.48625c-2.9275-.99875-4.49125-4.185-3.4925-7.1125z" fill="#a6c442" fill-rule="evenodd" stroke="#008000" stroke-width=".887049"/><path d="m2.9561342 299.39076 1.9275 3.92625-3.92624997 1.9275m4.81499997-4.8925 1.9275 3.92625-3.92625 1.9275m4.815-4.8925 1.9287498 3.92625-3.9274998 1.92875m4.8162498-4.89375 1.9275 3.9275-3.9262498 1.9275m4.8149998-4.8925 1.927499 3.92625-3.926249 1.9275m4.814999-4.8925 1.92875 3.92625-3.927499 1.92875m4.814999-4.89375 1.92875 3.92625-3.9275 1.92875m4.81625-4.8925 1.9275 3.92625-3.92625 1.9275m4.815-4.8925 1.9275 3.92625-3.92625 1.9275m-23.35124877-14.50875 1.92874997 3.9275-3.9275 1.9275" fill="none" stroke="#008000" stroke-linecap="round" stroke-width=".887049"/><path d="m-2.5951158 300.76451 30.3162488 10.34875" fill="none" stroke="#008000" stroke-linecap="round" stroke-width=".887049"/></g><g stroke-width=".887049" transform="matrix(.32711981 .94498287 -.94498287 .32711981 230.21998 104.55416)"><path d="m-5.2826158 299.84326c1-2.92625 4.18625-4.49125 7.11375-3.49125l24.8549988 8.49125c2.9275.99875 4.49125 4.18625 3.49125 7.1125-.99875 2.92625-4.18625 4.49125-7.1125 3.49125l-24.8562488-8.49c-2.92625-1-4.49125-4.1875-3.49125-7.11375z" fill="none" stroke="#2c2c2b" stroke-width=".887049"/><path d="m-5.2826158 299.84576c.99875-2.92625 4.18625-4.49125 7.1125-3.49125l24.8574988 8.48625c2.92625.99875 4.49125 4.185 3.4925 7.1125-1 2.92625-4.18625 4.49125-7.11375 3.49125l-24.8562488-8.48625c-2.9275-.99875-4.49125-4.185-3.4925-7.1125z" fill="#a6c442" fill-rule="evenodd" stroke="#008000" stroke-width=".887049"/><path d="m2.9561342 299.39076 1.9275 3.92625-3.92624997 1.9275m4.81499997-4.8925 1.9275 3.92625-3.92625 1.9275m4.815-4.8925 1.9287498 3.92625-3.9274998 1.92875m4.8162498-4.89375 1.9275 3.9275-3.9262498 1.9275m4.8149998-4.8925 1.927499 3.92625-3.926249 1.9275m4.814999-4.8925 1.92875 3.92625-3.927499 1.92875m4.814999-4.89375 1.92875 3.92625-3.9275 1.92875m4.81625-4.8925 1.9275 3.92625-3.92625 1.9275m4.815-4.8925 1.9275 3.92625-3.92625 1.9275m-23.35124877-14.50875 1.92874997 3.9275-3.9275 1.9275" fill="none" stroke="#008000" stroke-linecap="round" stroke-width=".887049"/><path d="m-2.5951158 300.76451 30.3162488 10.34875" fill="none" stroke="#008000" stroke-linecap="round" stroke-width=".887049"/></g><g stroke-width=".887049" transform="matrix(.64022155 .76819032 -.76819032 .64022155 177.14568 39.414357)"><path d="m-5.2826158 299.84326c1-2.92625 4.18625-4.49125 7.11375-3.49125l24.8549988 8.49125c2.9275.99875 4.49125 4.18625 3.49125 7.1125-.99875 2.92625-4.18625 4.49125-7.1125 3.49125l-24.8562488-8.49c-2.92625-1-4.49125-4.1875-3.49125-7.11375z" fill="none" stroke="#2c2c2b" stroke-width=".887049"/><path d="m-5.2826158 299.84576c.99875-2.92625 4.18625-4.49125 7.1125-3.49125l24.8574988 8.48625c2.92625.99875 4.49125 4.185 3.4925 7.1125-1 2.92625-4.18625 4.49125-7.11375 3.49125l-24.8562488-8.48625c-2.9275-.99875-4.49125-4.185-3.4925-7.1125z" fill="#a6c442" fill-rule="evenodd" stroke="#008000" stroke-width=".887049"/><path d="m2.9561342 299.39076 1.9275 3.92625-3.92624997 1.9275m4.81499997-4.8925 1.9275 3.92625-3.92625 1.9275m4.815-4.8925 1.9287498 3.92625-3.9274998 1.92875m4.8162498-4.89375 1.9275 3.9275-3.9262498 1.9275m4.8149998-4.8925 1.927499 3.92625-3.926249 1.9275m4.814999-4.8925 1.92875 3.92625-3.927499 1.92875m4.814999-4.89375 1.92875 3.92625-3.9275 1.92875m4.81625-4.8925 1.9275 3.92625-3.92625 1.9275m4.815-4.8925 1.9275 3.92625-3.92625 1.9275m-23.35124877-14.50875 1.92874997 3.9275-3.9275 1.9275" fill="none" stroke="#008000" stroke-linecap="round" stroke-width=".887049"/><path d="m-2.5951158 300.76451 30.3162488 10.34875" fill="none" stroke="#008000" stroke-linecap="round" stroke-width=".887049"/></g><g stroke-width=".887049" transform="matrix(.82140654 .57034315 -.57034315 .82140654 128.34504 12.314957)"><path d="m-5.2826158 299.84326c1-2.92625 4.18625-4.49125 7.11375-3.49125l24.8549988 8.49125c2.9275.99875 4.49125 4.18625 3.49125 7.1125-.99875 2.92625-4.18625 4.49125-7.1125 3.49125l-24.8562488-8.49c-2.92625-1-4.49125-4.1875-3.49125-7.11375z" fill="none" stroke="#2c2c2b" stroke-width=".887049"/><path d="m-5.2826158 299.84576c.99875-2.92625 4.18625-4.49125 7.1125-3.49125l24.8574988 8.48625c2.92625.99875 4.49125 4.185 3.4925 7.1125-1 2.92625-4.18625 4.49125-7.11375 3.49125l-24.8562488-8.48625c-2.9275-.99875-4.49125-4.185-3.4925-7.1125z" fill="#a6c442" fill-rule="evenodd" stroke="#008000" stroke-width=".887049"/><path d="m2.9561342 299.39076 1.9275 3.92625-3.92624997 1.9275m4.81499997-4.8925 1.9275 3.92625-3.92625 1.9275m4.815-4.8925 1.9287498 3.92625-3.9274998 1.92875m4.8162498-4.89375 1.9275 3.9275-3.9262498 1.9275m4.8149998-4.8925 1.927499 3.92625-3.926249 1.9275m4.814999-4.8925 1.92875 3.92625-3.927499 1.92875m4.814999-4.89375 1.92875 3.92625-3.9275 1.92875m4.81625-4.8925 1.9275 3.92625-3.92625 1.9275m4.815-4.8925 1.9275 3.92625-3.92625 1.9275m-23.35124877-14.50875 1.92874997 3.9275-3.9275 1.9275" fill="none" stroke="#008000" stroke-linecap="round" stroke-width=".887049"/><path d="m-2.5951158 300.76451 30.3162488 10.34875" fill="none" stroke="#008000" stroke-linecap="round" stroke-width=".887049"/></g><g stroke-width=".887049" transform="matrix(.96081501 .2771904 -.2771904 .96081501 59.023435 -4.800393)"><path d="m-5.2826158 299.84326c1-2.92625 4.18625-4.49125 7.11375-3.49125l24.8549988 8.49125c2.9275.99875 4.49125 4.18625 3.49125 7.1125-.99875 2.92625-4.18625 4.49125-7.1125 3.49125l-24.8562488-8.49c-2.92625-1-4.49125-4.1875-3.49125-7.11375z" fill="none" stroke="#2c2c2b" stroke-width=".887049"/><path d="m-5.2826158 299.84576c.99875-2.92625 4.18625-4.49125 7.1125-3.49125l24.8574988 8.48625c2.92625.99875 4.49125 4.185 3.4925 7.1125-1 2.92625-4.18625 4.49125-7.11375 3.49125l-24.8562488-8.48625c-2.9275-.99875-4.49125-4.185-3.4925-7.1125z" fill="#a6c442" fill-rule="evenodd" stroke="#008000" stroke-width=".887049"/><path d="m2.9561342 299.39076 1.9275 3.92625-3.92624997 1.9275m4.81499997-4.8925 1.9275 3.92625-3.92625 1.9275m4.815-4.8925 1.9287498 3.92625-3.9274998 1.92875m4.8162498-4.89375 1.9275 3.9275-3.9262498 1.9275m4.8149998-4.8925 1.927499 3.92625-3.926249 1.9275m4.814999-4.8925 1.92875 3.92625-3.927499 1.92875m4.814999-4.89375 1.92875 3.92625-3.9275 1.92875m4.81625-4.8925 1.9275 3.92625-3.92625 1.9275m4.815-4.8925 1.9275 3.92625-3.92625 1.9275m-23.35124877-14.50875 1.92874997 3.9275-3.9275 1.9275" fill="none" stroke="#008000" stroke-linecap="round" stroke-width=".887049"/><path d="m-2.5951158 300.76451 30.3162488 10.34875" fill="none" stroke="#008000" stroke-linecap="round" stroke-width=".887049"/></g><g stroke-width=".887049"><path d="m-5.2826158 299.84326c1-2.92625 4.18625-4.49125 7.11375-3.49125l24.8549988 8.49125c2.9275.99875 4.49125 4.18625 3.49125 7.1125-.99875 2.92625-4.18625 4.49125-7.1125 3.49125l-24.8562488-8.49c-2.92625-1-4.49125-4.1875-3.49125-7.11375z" fill="none" stroke="#2c2c2b" stroke-width=".887049"/><path d="m-5.2826158 299.84576c.99875-2.92625 4.18625-4.49125 7.1125-3.49125l24.8574988 8.48625c2.92625.99875 4.49125 4.185 3.4925 7.1125-1 2.92625-4.18625 4.49125-7.11375 3.49125l-24.8562488-8.48625c-2.9275-.99875-4.49125-4.185-3.4925-7.1125z" fill="#a6c442" fill-rule="evenodd" stroke="#008000" stroke-width=".887049"/><path d="m2.9561342 299.39076 1.9275 3.92625-3.92624997 1.9275m4.81499997-4.8925 1.9275 3.92625-3.92625 1.9275m4.815-4.8925 1.9287498 3.92625-3.9274998 1.92875m4.8162498-4.89375 1.9275 3.9275-3.9262498 1.9275m4.8149998-4.8925 1.927499 3.92625-3.926249 1.9275m4.814999-4.8925 1.92875 3.92625-3.927499 1.92875m4.814999-4.89375 1.92875 3.92625-3.9275 1.92875m4.81625-4.8925 1.9275 3.92625-3.92625 1.9275m4.815-4.8925 1.9275 3.92625-3.92625 1.9275m-23.35124877-14.50875 1.92874997 3.9275-3.9275 1.9275" fill="none" stroke="#008000" stroke-linecap="round" stroke-width=".887049"/><path d="m-2.5951158 300.76451 30.3162488 10.34875" fill="none" stroke="#008000" stroke-linecap="round" stroke-width=".887049"/></g></g></g><g stroke-width=".885826" transform="matrix(1.6872393 0 0 1.6872393 141.47344 -154.444)"><g stroke="#4a4a4a" stroke-linecap="round" stroke-linejoin="round"><g fill-rule="evenodd"><path d="m27.506133 102.80077c2.54875-.065 5.82375 1.875 8.24625 5.14 2.42375 3.26625 3.29625 6.915 2.445 9.2675-2.5475.065-5.8225-1.875-8.245-5.14125-2.4225-3.265-3.29625-6.91375-2.44625-9.26625z" fill="#ccc"/><path d="m27.699883 103.06077 10.275 13.84625" fill="#bbb"/></g><g fill-rule="evenodd"><path d="m55.501133 102.80077c-2.54875-.065-5.82375 1.875-8.24625 5.14-2.42375 3.26625-3.29625 6.915-2.445 9.2675 2.5475.065 5.8225-1.875 8.245-5.14125 2.4225-3.265 3.29625-6.91375 2.44625-9.26625z" fill="#ccc"/><path d="m55.307383 103.06077-10.275 13.84625" fill="#bbb"/></g><g><path d="m64.151133 128.86827c-.725-2.39375-3.62125-4.84375-7.5425-6.09125-3.92-1.24625-7.73375-.93125-9.75625.5875.72375 2.3925 3.62125 4.8425 7.54125 6.09 3.92 1.24625 7.735.9325 9.7575-.58625z" fill="#ccc" fill-rule="evenodd"/><path d="m63.838633 128.76827-16.625-5.28875" fill="none"/></g><g fill-rule="evenodd"><g><path d="m41.503633 144.97827c2.1-1.41375 3.585-4.86875 3.585-8.905s-1.485-7.49-3.585-8.905c-2.10125 1.415-3.585 4.86875-3.585 8.905s1.48375 7.49125 3.585 8.905z" fill="#ccc"/><path d="m41.503633 144.65702v-17.11625" fill="#bbb"/></g><g><path d="m18.85613 128.86827c.725-2.39375 3.62125-4.84375 7.5425-6.09125 3.92-1.24625 7.73375-.93125 9.75625.5875-.72375 2.3925-3.62125 4.8425-7.54125 6.09-3.92 1.24625-7.735.9325-9.7575-.58625z" fill="#ccc"/><path d="m19.16863 128.76827 16.625-5.28875" fill="#bbb"/></g><g><path d="m41.502383 92.275767c2.88875 1.945 4.93125 6.695 4.93125 12.245003 0 5.55-2.0425 10.3-4.93125 12.24375-2.8875-1.94375-4.92875-6.69375-4.92875-12.24375 0-5.550003 2.04125-10.300003 4.92875-12.245003z" fill="#ccc"/><path d="m41.503633 92.718267v23.535003" fill="#bbb"/></g><g><path d="m70.049883 112.58202c-2.7825-2.08875-8.0275-2.52125-13.41875-.80625s-9.37375 5.08375-10.37 8.37375c2.78125 2.08875 8.02625 2.52125 13.41625.80625 5.39125-1.715 9.375-5.08375 10.3725-8.37375z" fill="#ccc"/><path d="m69.618633 112.71827-22.86125 7.2725" fill="#bbb"/></g><g><path d="m23.862383 145.43827c-1.17-3.23625.03-8.25375 3.3625-12.74375 3.33125-4.49 7.835-7.1575 11.33875-7.06875 1.16875 3.235-.0312 8.2525-3.3625 12.7425-3.3325 4.49-7.835 7.15875-11.33875 7.07z" fill="#ccc"/><path d="m24.127383 145.07952 14.12875-19.04125" fill="#bbb"/></g><g><path d="m59.144883 145.43827c1.17-3.23625-.03-8.25375-3.3625-12.74375-3.33125-4.49-7.835-7.1575-11.33875-7.06875-1.17 3.235.0312 8.2525 3.3625 12.7425 3.3325 4.49 7.835 7.15875 11.33875 7.07z" fill="#ccc"/><path d="m58.879883 145.07952-14.12875-19.04125" fill="#bbb"/></g><g><path d="m12.957384 112.58202c2.7825-2.08875 8.027499-2.52125 13.418749-.80625s9.37375 5.08375 10.37 8.37375c-2.78125 2.08875-8.02625 2.52125-13.41625.80625-5.39125-1.715-9.374999-5.08375-10.372499-8.37375z" fill="#ccc"/><path d="m13.38738 112.71827 22.8625 7.2725" fill="#bbb"/></g></g></g><g fill="#ffe600" fill-rule="evenodd" stroke="#000"><path d="m41.503633 115.58327c3.4275 0 6.21 2.72375 6.21 6.08 0 3.355-2.7825 6.07875-6.21 6.07875s-6.21-2.72375-6.21-6.07875c0-3.35625 2.7825-6.08 6.21-6.08z"/><path d="m41.503633 112.72202c1.31 0 2.3725 1.04125 2.3725 2.32375s-1.0625 2.32375-2.3725 2.32375-2.3725-1.04125-2.3725-2.32375 1.0625-2.32375 2.3725-2.32375z"/><path d="m41.503633 130.60327c1.31 0 2.3725-1.04125 2.3725-2.32375s-1.0625-2.3225-2.3725-2.3225-2.3725 1.04-2.3725 2.3225 1.0625 2.32375 2.3725 2.32375z"/><path d="m32.372383 121.66327c0-1.2825 1.06375-2.32375 2.3725-2.32375 1.31 0 2.37375 1.04125 2.37375 2.32375 0 1.28125-1.06375 2.3225-2.37375 2.3225-1.30875 0-2.3725-1.04125-2.3725-2.3225z"/><path d="m50.634883 121.66327c0-1.2825-1.06375-2.32375-2.3725-2.32375-1.31 0-2.37375 1.04125-2.37375 2.32375 0 1.28125 1.06375 2.3225 2.37375 2.3225 1.30875 0 2.3725-1.04125 2.3725-2.3225z"/><path d="m47.959883 115.34077c.92625.9075.92625 2.37875 0 3.28625-.92625.90625-2.42875.90625-3.355 0-.92625-.9075-.92625-2.37875 0-3.28625.92625-.90625 2.42875-.90625 3.355 0z"/><path d="m35.047383 115.34077c-.92625.9075-.92625 2.37875 0 3.28625.92625.90625 2.42875.90625 3.355 0 .92625-.9075.92625-2.37875 0-3.28625-.92625-.90625-2.42875-.90625-3.355 0z"/><path d="m47.959883 127.98452c.92625-.90625.92625-2.37875 0-3.28625-.92625-.90625-2.42875-.90625-3.355 0-.92625.9075-.92625 2.38 0 3.28625s2.42875.90625 3.355 0z"/><path d="m35.047383 127.98452c-.92625-.90625-.92625-2.37875 0-3.28625.92625-.90625 2.42875-.90625 3.355 0 .92625.9075.92625 2.38 0 3.28625s-2.42875.90625-3.355 0z"/></g></g><use height="450" transform="matrix(-1 0 0 1 423 0)" width="372.26999" xlink:href="#a"/><path d="m114.26271 103.24099h194.47459v137.3057c-.005 53.70173-43.53558 97.23729-97.23731 97.23729-53.70171 0-97.23729-43.53556-97.23729-97.23729z" fill="#ffe600"/><path d="m304.82621 106.84913h-186.69309l-.44231 133.89085c0 51.55395 41.79258 93.34653 93.34654 93.34653 51.55397 0 93.34655-41.79258 93.34655-93.34653z" fill="#fff"/><g transform="matrix(.99777583 0 0 .99777583 1.264197 .489611)"><g stroke="#fff"><path d="m201.46488 148.17699c-5.40992-.21631-14.99967 1.11302-20.91483 4.03869l23.32943 2.47216z"/><path d="m203.75526 154.29552-3.07572 4.96422c-4.21871.36183-8.99959-.66348-13.06829-2.34709z"/><path d="m284.40092 122.8879c-.95793-4.33695-4.00125-2.03818-5.716-.17534-8.05985 8.7564-20.46357 19.99187-24.548 24.73879l4.32788 10.25222c10.56984-8.72391 18.45778-14.84139 23.88395-25.71467 1.5421-3.08994 2.79532-5.73436 2.0517-9.10127z"/><path d="m286.25105 137.0972c4.24098-3.07562 6.72964-3.24831 7.29831.36455.45991 2.92225-.71972 5.13229-2.40878 7.23123-8.10126 10.06772-20.55739 15.25909-32.2069 21.85247l-.58759-10.6558c9.1086-5.41569 18.45411-11.93935 27.90443-18.79268z"/><path d="m288.2951 151.48941c2.5711-1.30745 5.66412-3.85617 7.096-2.18677 1.98996 2.32048-.43015 6.20029-1.80878 7.7936-7.48594 8.64949-19.76858 14.05206-32.9873 17.98241l-1.63042-10.72707c9.96553-2.2103 19.63441-7.93145 29.33055-12.86232z"/><path d="m290.37584 164.26526c2.80423-1.03545 4.24832-1.78042 5.30614-1.07323 1.74997 1.16977 1.25725 4.43894-.048 5.93455-8.82821 9.77581-25.24141 12.87385-35.94752 14.38488l.2223-9.23283c10.43409-2.82366 19.5275-5.97439 30.46684-10.01322z"/><path d="m292.94925 180.60193c1.84735.96207.82951 3.47044-.91338 5.1336-7.23279 6.90209-24.62452 5.74222-33.73837 6.41519l1.61161-10.79731c9.41364.51558 18.69258.10146 28.01345-.7964 1.80772-.12124 3.40146-.63312 5.02642.0448z"/><path d="m274.07585 204.32864c2.40883.49386 4.94125 2.75995 3.57404 5.07884-.96935 1.64416-4.08254 2.25102-5.84388 2.51544-8.563 1.28545-14.15636-2.8669-23.02912-6.60701l7.14422-6.79515c6.05144 2.17289 12.11231 4.56934 18.15484 5.80825z"/><path d="m283.55185 192.86625c5.02627-.005 1.93797 6.16149-.43292 7.19453-3.82788 1.66805-7.85125 1.99089-11.76587 1.72475-5.57135-.37879-11.11806-.80588-16.67736-3.06261l4.73696-8.73963c8.11855 1.46847 16.26435 2.89155 24.13866 2.88284z"/><path d="m265.16064 215.45038c2.92719 3.32908.0292 5.8963-3.45303 5.76003-7.03049-.27587-14.04315-5.85542-18.54583-9.98754l7.17147-9.26584c2.82556 7.00847 10.7601 8.86698 14.82776 13.49335z"/><path d="m250.89421 227.40021c5.02318-.31016 4.44052-3.39842 1.64216-5.83603-3.67939-3.51801-6.03152-8.76425-8.20188-12.98233l-14.72398 7.3722c7.38112 7.5111 11.25066 10.89584 21.28329 11.44616z"/><path d="m176.68469 226.01655c4.79304-1.84715 9.27318-7.34863 11.74491-12.475l-9.01164-3.37164c-2.30496 3.37803-4.7803 6.89369-7.54936 9.44247-6.3895 5.88214-4.83078 10.12172 4.81588 6.40417z"/><path d="m164.14261 220.5605c6.00217-1.27941 11.25224-5.59702 16.79685-8.72233l-8.86069-5.87743c-3.79067 2.6743-7.47441 5.4398-11.31775 7.44715-7.52421 3.90079-5.45867 8.84865 3.38169 7.15209z"/><path d="m150.28657 203.90412c-6.1353.99304-10.52005 7.34389 2.40364 8.45503 7.11906.61206 14.98814-3.05533 19.96723-6.29358l-4.93528-7.42725c-5.81192 2.51408-11.58033 4.31819-17.43575 5.2658z"/><path d="m140.99609 192.51508c-9.10493-.002-3.27582 6.63321.91039 8.10964 6.88426 2.42808 17.03481 1.16343 25.69319-1.96627l-4.87794-7.88008c-7.30145 1.46816-14.31988 1.73885-21.72564 1.73693z"/><path d="m162.83599 191.01086-.15441-10.92518c-10.23912 1.72036-18.94468.80179-27.80904-.70572-7.04779-1.19855-8.02369 3.72363-1.76418 7.81614 7.92096 5.17877 22.04692 4.2425 29.72731 3.81451z"/><path d="m126.42096 164.04512c-1.87119 2.80255.67271 6.2679 2.74364 8.05775 9.65579 7.06194 22.90333 9.39006 33.55126 10.9839l-.7128-8.7108c-8.5892-2.89312-17.10136-6.00637-25.6434-9.03576-2.62634-.81238-8.10177-3.56399-9.9388-1.29456z"/><path d="m162.08284 174.99914 1.27344-9.55253c-9.50326-3.30716-18.46354-8.01896-27.21365-13.01222-4.01211-2.28777-7.2632-5.803-8.33239-2.89993-1.906 5.17438 3.81179 10.90213 7.45554 13.56568 8.15629 5.96287 16.54581 8.42411 26.81742 11.90057z"/><path d="m165.06925 156.04713c-10.41575-6.56507-20.51179-12.49964-28.88296-19.1428-2.47933-1.96763-4.50163-2.40151-5.65102-1.61995-2.72692 2.07708.52069 7.78574 2.55286 10.25433 7.93144 9.61647 19.10192 15.33404 30.18067 21.03589z"/><path d="m169.16364 147.09103c-10.19667-8.6935-21.21987-19.68578-24.88344-23.79694-3.80036-4.26419-7.03048-2.55821-5.96024 3.78465 2.19814 13.02846 15.61864 21.24135 24.77127 29.47153l5.23801-4.34869z"/><path d="m188.74983 274.82743c-3.80051 1.53769-7.77892 2.50888-11.52163 2.33808-2.16774-.0979-4.3924-.44064-6.30668.20074-3.76614 1.27903-5.84389 4.40454-3.66551 7.84023l1.69662-2.6897c1.917 3.10669 6.7548 1.29429 5.97754-1.6734 3.93007.60457 8.4435.55813 12.27373-.83875l2.23766-2.45002c-2.6113 3.39794-7.28783 6.81402-10.73598 8.62799-3.44795 1.81375-3.40911 5.71024.22549 8.74906l.74771-3.60996c1.02186 1.69107 6.32188-.25943 4.45949-3.86781 1.24781-.48949 8.87275-5.47282 10.67885-7.52525 2.64123.14187 6.17565-.22743 8.8172-.87968 1.32774 2.54793 5.27155 3.54564 6.42146 1.55553l2.64474 2.37923c1.18723-5.0181-1.40468-7.2543-7.97861-7.20607-2.13121.0172-4.25498.0651-5.66779-.16588-2.57665-.4861-.97768-1.42024.36942-2.67728l20.51808-19.14647-8.40629-3.75766-15.73343 19.47563c-2.15668 3.27597-2.92986 3.18672-6.33865 3.01302-4.64115-.24256-7.63374-1.02312-10.57298-1.91563-6.36644-1.71454-10.05568-.10332-10.28053 4.73837l2.51628-1.71486c.63413 2.6893 4.99838 2.21874 5.5226-.41829l9.78786 2.5342"/><path d="m219.13281 262.7256c-.11649-2.34809 1.74573-8.15524 5.14006-10.61754l-14.67-11.97499c-.72108 5.32921-1.05625 10.75537-6.30354 14.95303 3.13568 1.0392 6.42776.63355 9.66365-.48635 1.07517 2.83222 3.07105 6.09075 6.16988 8.12537z" stroke-linecap="round"/><path d="m213.25224 292.0551c-2.7449-.27198-4.1348-1.69599-7.57924-2.9397-1.01432 3.06817-5.61275 2.38729-5.85594.58632l-2.62514 1.23162c-.0912-3.07735 2.04662-5.74221 5.84494-5.12444 3.82929.62391 7.71498 1.20924 11.44406 1.87214 3.24228.57701 5.8659 1.52508 7.78731-2.88777l10.41784-24.02544 7.89685 4.7164-15.12021 25.22516c4.36075 1.08508 10.76272.11499 13.04314 1.92035 1.79269.41184 3.36341 1.78608 2.37121 5.51161l-2.41785-1.88012c-1.37078 2.85067-5.74221 1.45795-6.45396-1.07348-2.35705.4957-5.52837.95372-8.50692.57369-3.19926 2.81634-7.44349 5.72072-11.22551 7.5656 2.03928 3.84184-2.58578 5.91412-4.27075 4.20939l-1.30552 2.91613c-2.75402-3.2349-1.96633-7.0892 1.73377-9.18512 3.93066-2.63243 8.05356-5.2485 10.52896-9.34971-.84032 1.27481-1.69913 2.54647-3.07363 3.73224-4.04659 1.74881-8.53889 1.72303-12.29837 1.29938-.0742 3.19354-4.21803 4.65608-6.19976 2.37435l-1.81706 2.12843c-1.12742-2.38147-.84896-5.26055 1.25715-7.00952 1.94903-1.50154 6.17618-1.32968 9.18407-1.46507 3.76798-.10873 7.39842-.66069 10.97289-2.1661"/><g stroke-linecap="round"><path d="m191.08739 189.31274c-3.36252-.88775-7.1568-2.59066-9.87434-6.26581 4.54429-11.40266 2.58017-20.65119-4.35115-28.8405-3.38888-3.98716-7.29359-7.47022-8.4283-11.53631-1.25337 2.83631-1.61926 5.33287-1.67618 7.29044-7.03363-.36443-8.34339 7.86489-4.13889 10.75801-5.66097 1.27117-5.85175 7.40837-1.97313 9.72915-4.50247 1.58488-4.58481 7.33029-1.01495 9.32506-3.44999 2.67709-1.80862 7.54308 1.52218 8.24643-3.69501 4.21117-.48263 8.77633 3.08395 8.47129-2.43137 4.35813 1.03602 9.34812 5.29933 8.98753-.7326 4.01425 2.43552 6.73069 6.24117 5.13014-.39198 3.78492 2.41602 5.88478 5.52471 4.90405-.40194 2.94842 4.00204 5.61695 5.79881-.0971.97449-9.26164 3.01167-16.84088 3.98611-26.10254z"/><path d="m237.04708 235.67076 28.2818 36.79552c3.01398 3.92123 10.40946 7.41939 12.4902 4.26369.88722-1.55584-4.23071-4.9391-6.66518-8.13898-4.73313-6.22126-14.39745-18.74395-14.39745-18.74395l.41327-.36965 19.78431 20.95415c2.88264 3.05312 11.12855 4.05192 11.747 1.59818.21663-1.18497-3.31985-3.66924-5.00394-5.24105-7.23227-6.74956-21.87239-20.3079-21.87239-20.3079l.46114-.36905 20.98297 17.0542c2.99102 2.43096 8.92045 5.37271 12.55833 1.71019 1.20437-1.43339-3.15832-3.2211-5.43141-4.98569l-43.77203-33.98262c-2.91335-.77427-6.82451-3.54442-9.4498-6.55144 2.28362.4704 4.56179-1.40551 4.25199-3.6622 3.29684.70986 6.39578-1.72218 5.41097-5.1965 3.0885 1.37031 7.66414-.93466 6.38687-5.30825 4.66091.0448 7.9241-4.12394 5.16453-8.65261 4.99671-.59561 6.50951-5.32921 3.32378-8.5651 4.54304-1.89097 3.85875-6.52838.87549-8.22862 5.18659-2.66329 3.88296-8.12902-.60698-9.47339 4.64958-3.57442 3.32981-8.50481-2.01292-9.77738 5.86852-4.71048 1.12302-10.43827-3.03369-10.063.13495-2.36047-.79335-5.62848-2.13074-7.00744-.89912 3.18679-3.58348 5.16029-5.84808 7.43406-10.02371 10.06512-12.13851 18.22193-7.09023 32.12828-3.78742 5.31244-10.05044 7.93722-14.63802 8.77737m4.12997-1.34573c-1.80112-1.9345-1.74541-4.71887-2.79977-6.59389 2.156.32369 4.20739-.46079 5.94504-2.20668-5.00881-3.73522-5.69399-7.62904-5.25321-14.73342.63722-9.06772.90719-18.90799-3.78002-24.04222h-25.41699c-1.01856 1.74362-1.33644 2.94499-2.00684 5.22176l4.32763 6.4592-3.74235 4.32809c-.93177 2.44291-1.51249 9.57979-3.53227 13.44461-1.47623 2.82451-3.27415 5.75794-5.82188 7.35702 1.89992 1.13209 3.47594 1.15777 5.46338.50369-6.92094 7.42935-9.68984 13.86967-10.06721 20.62762-.36211 6.48541.0649 17.34718 4.7878 23.81791 5.67145 7.77001 13.34031 10.59343 22.30531 19.19259 8.86017 9.02265 16.63333 9.47653 13.08769 23.28017 3.28447.0893 6.96444-1.23697 9.5693-3.01205.52216 2.54327 4.08364 7.5347 8.39633 8.53051-2.62414-6.38478.19455-11.19615 1.22155-13.55467 1.02103 1.64451 3.88056 3.75831 6.62797 3.73337-.36588-2.33551.87129-5.05357 2.32723-6.48121"/></g></g><path d="m212.89584 148.64866a3.475913 3.475913 0 0 1 -6.95182 0 3.475913 3.475913 0 1 1 6.95182 0z" fill="#fff"/><path d="m210.53597 148.61358a1.475595 1.475595 0 1 1 -2.95119 0 1.475595 1.475595 0 1 1 2.95119 0z"/><g stroke="#c93"><path d="m209.90314 130.12961c-3.28327-.34475-4.33213 2.11826-3.8467 4.51923 1.15411-.48672 2.29867-.62185 3.0318-.11025-2.09274 4.30126-7.80722 3.635-8.65472.27548.74346-.37502 1.73886-.57496 2.73693-.16521.39039-3.37227-3.31398-4.42977-4.65414-2.86963-.52878-1.94039-4.23968-2.43976-5.82712-.51052 3.40502 1.66811 7.46445 7.74118 7.45659 12.29314h25.43166c-.008-4.55185 4.05157-10.62488 7.45659-12.29314-1.58749-1.92927-5.29828-1.42984-5.82711.51052-1.34011-1.56014-5.04451-.50262-4.65415 2.86963.99802-.40967 1.99347-.20971 2.73693.16521-.84749 3.35952-6.56192 4.02578-8.65472-.27548.73313-.51168 1.87775-.37652 3.0318.11025.48542-2.40097-.56348-4.86399-3.84669-4.51923.25798-2.07743-1.205-3.12976-2.95822-3.28322-1.75321.15355-3.21618 1.20579-2.95821 3.28322z" fill="#ffe600"/><path d="m226.05638 140.59776h-26.38503" fill="none"/></g></g></svg>