<svg height="911" width="759" xmlns="http://www.w3.org/2000/svg"><path d="m369 881.82792c-3.575-1.66314-17.75-7.88143-31.5-13.81842-76.61634-33.08147-115.75084-52.38611-142.40359-70.24622-10.88917-7.29687-30.25594-22.36962-39.73051-30.92141-11.83493-10.68226-23.84504-23.8333-41.40824-45.34187-38.650079-47.33241-51.901961-66.0605-64.037223-90.5-15.444986-31.10503-22.227432-59.03453-32.905043-135.5-6.054455-43.35771-5.98031-40.03314-6.008348-269.40739-.014078-115.17407.129798-209.562788.319726-209.752715.451565-.451566 732.894888-.451566 733.346458 0 .18993.189927.3338 94.578645.31972 209.752715-.028 229.37425.0461 226.04968-6.00834 269.40739-10.67762 76.46547-17.46006 104.39497-32.90505 135.5-10.6308 21.40963-16.46516 29.8733-57.51852 83.43973-14.03934 18.31852-33.07748 39.88785-40.65505 46.06027-2.02562 1.65-6.99563 5.96302-11.04447 9.58449-36.44683 32.59972-75.28668 53.72235-185.77984 101.03434-17.83007 7.63464-33.13007 13.84783-34 13.80708-.86992-.0408-4.50668-1.43485-8.08168-3.09799z" fill="#fff"/><path d="m369 880.82792c-3.575-1.66314-17.75-7.88143-31.5-13.81842-93.78496-40.49455-129.60077-59.19097-163-85.08858-20.99425-16.27886-35.3301-30.68061-58.15357-58.42092-51.408442-62.48333-69.210568-91.56552-80.801349-132-5.989929-20.89588-12.05196-53.61112-18.529687-100-6.054901-43.3609-5.985998-40.30484-6.001366-266.17857-.012663-186.113725.1389-206.331501 1.557401-207.750001 1.422813-1.422813 35.982684-1.571429 365.428571-1.571429 329.44589 0 364.00576.148616 365.42857 1.571429 1.4185 1.4185 1.57006 21.636276 1.5574 207.750001-.0154 225.87373.0535 222.81767-6.00136 266.17857-8.30642 59.48467-14.9552 91.82625-24.15566 117.5-8.18192 22.83158-26.09078 52.70469-49.45853 82.5-6.47028 8.25-15.74344 20.30248-20.60702 26.78329-13.42987 17.89555-28.52126 34.15498-45.37675 48.88882-40.6463 35.53003-76.00814 54.86242-188.30497 102.94672-17.83007 7.63464-33.13007 13.84783-34 13.80708-.86992-.0408-4.50668-1.43485-8.08168-3.09799zm6.75979-55.66109.25979-47.16683h17.02233c19.50815 0 22.41628-.73488 26.40929-6.67357 1.41502-2.10454 4.81781-6.75143 7.56174-10.32643s5.77603-7.66578 6.73801-9.09062c3.05191-4.52035 10.50063-13.74466 18.34592-22.7191 9.07476-10.38089 9.90313-11.82158 9.90313-17.22341 0-2.29054.71512-5.67162 1.58916-7.51353 1.88711-3.97677 48.98594-50.09817 52.33938-51.2532.47883-.16492 3.50329-3.73599 6.72103-7.93573l5.85043-7.63587-.0802-9.56427c-.0441-5.26035-.449-18.01585-.89973-28.34557-.55919-12.81527-.47685-19.96257.25921-22.5.59329-2.04528 2.28497-18.5687 3.75928-36.7187 2.10977-25.97298 3.03769-33.53235 4.35764-35.5.92239-1.375 3.10397-5.425 4.84795-9 1.74399-3.575 4.61759-8.24187 6.38578-10.37083 5.29681-6.37752 20.97851-19.49407 24.13541-20.18744 3.92254-.86154 11.49862-4.25076 12.26164-5.48535.33539-.54268 2.19524-1.64912 4.13301-2.45877 1.93776-.80965 6.06949-4.09351 9.18162-7.29746 5.45264-5.61355 19.15839-24.81316 19.15839-26.83793 0-.54261.9-2.84935 2-5.12608 1.61438-3.34138 2-6.18604 2-14.75358 0-10.92252-.67555-13.49278-4.39682-16.72852-3.24157-2.81863-12.94386-1.47838-28.60318 3.95116-2.475.85815-6.525 1.91602-9 2.35081s-7.2 1.77057-10.5 2.9684c-4.11002 1.49185-11.03995 2.62535-22 3.59845-21.70461 1.92707-30.95005 4.02284-44.36911 10.05765-2.95302 1.32803-5.65302 2.12275-6 1.76606-.34699-.3567 2.90969-3.99604 7.23706-8.08742 9.81213-9.27703 20.62412-14.75081 46.13205-23.35523 19.45732-6.56341 27.47712-7.9556 46-7.9853 12.47206-.02 28.71356 3.62639 35.47229 7.9639 16.13845 10.35706 25.04995 19.1553 39.06343 38.56697 16.18402 22.41831 19.75743 40.07975 18.60422 91.95051-.34238 15.4-1.10724 38.30312-1.69968 50.89583-.90642 19.26653-.85669 23.11631.31374 24.28675.78416.78415 2.14679 1.10085 3.12366.72599 1.78632-.68547 9.36619-14.9464 14.0365-26.40857 1.45665-3.575 3.30741-7.69112 4.1128-9.14693 4.68422-8.46715 15.74241-58.77685 19.97805-90.89108 1.73246-13.1353 1.95022-36.55752.42731-45.96199-2.14987-13.27617-8.80131-28.71986-21.72208-50.43552-10.14872-17.05675-9.78108-16.65706-32.85984-35.7241-19.14818-15.8197-35.37197-26.34564-47.3504-30.72078-15.4197-5.63207-37.58663-7.04039-75-4.76494-35.69794 2.17111-47.73879 5.50846-65.4357 18.13671-9.25032 6.60089-28.12434 26.60679-44.43082 47.09534-7.84128 9.85231-15.82651 19.82579-17.74495 22.16329l-3.48807 4.25h-21.95023-21.95023v-55.35387-55.35387l.00006.0149-22.75-.62355c-83.09148-2.27747-160.11889-25.64219-223.253-67.71933-18.30127-12.1973-29.26328-21.09119-44.821141-36.36512-15.032428-14.75808-27.587322-29.69017-36.534955-43.45264-7.906965-12.1618-19.251189-34.407081-23.150455-45.39652-1.512418-4.2625-3.141499-7.75-3.62018-7.75-.490563 0-.870329 78.88912-.870329 180.79418v180.79418l2.538547 27.45582c3.452067 37.33606 5.4177 49.84489 15.549882 98.95582 5.860428 28.40563 8.589381 38.18726 14.088872 50.5 5.838513 13.07177 7.318051 15.88472 13.000825 24.71761 2.377031 3.69468 9.496874 15.12868 15.821874 25.40889 6.325 10.2802 12.888844 20.08228 14.586319 21.78239 1.697476 1.70011 9.305971 11.38545 16.907771 21.52297 13.31469 17.75606 31.99677 39.55967 42.14132 49.18259 26.13912 24.79503 64.93667 50.77646 102.86459 68.885 33.77311 16.12484 114.0559 51.15336 116 50.61244.64387-.17915 1.09252-17.0757 1.25979-47.44506zm-34.45123-48.63307c-1.75529-.76338-4.34818-3.10827-5.76198-5.21086-1.41381-2.1026-4.81559-6.7479-7.55952-10.3229s-5.77603-7.66578-6.73801-9.09062c-3.05191-4.52035-10.50063-13.74466-18.34592-22.7191-9.07476-10.38089-9.90313-11.82158-9.90313-17.22341 0-2.29054-.71512-5.67162-1.58916-7.51353-1.80808-3.81024-33.45244-35.07654-49.54527-48.95334-6.82222-5.88278-14.72516-16.23463-15.48462-20.28288-.83664-4.4597.39209-23.92452 1.65978-26.29322 1.23802-2.31327 1.251-28.33197.0161-32.3529-.51872-1.68905-2.14302-17.921-3.60955-36.071-2.10022-25.99246-3.02256-33.53087-4.3435-35.5-.92239-1.375-3.10397-5.425-4.84795-9-1.74399-3.575-4.61759-8.24187-6.38578-10.37083-5.29681-6.37752-20.97851-19.49407-24.13541-20.18744-3.92254-.86154-11.49862-4.25076-12.26164-5.48535-.33539-.54268-2.05073-1.58874-3.81186-2.32459-6.66812-2.78612-22.08923-20.50989-27.08717-31.13179-5.73112-12.18011-5.74956-12.26457-5.40412-24.74839.32634-11.79322.36372-11.95824 3.27512-14.46026 2.577-2.21464 3.59546-2.46377 8.15023-1.99368 5.24042.54086 13.08318 2.52219 21.40476 5.40753 2.475.85815 6.525 1.91602 9 2.35081s7.2 1.77057 10.5 2.9684c4.11002 1.49185 11.03995 2.62535 22 3.59845 21.48535 1.9076 29.44255 3.69306 44.47169 9.97868 3.00942 1.25863 5.70942 2.04274 6 1.74245.29057-.30028-3.01227-3.89346-7.33964-7.98484-9.81213-9.27703-20.62412-14.75081-46.13205-23.35523-19.45732-6.56341-27.47712-7.9556-46-7.9853-12.47206-.02-28.71356 3.62639-35.47229 7.9639-16.13845 10.35706-25.04995 19.1553-39.063434 38.56697-19.00365 26.3241-21.39959 46.65731-16.887577 143.3168.714613 15.30892.751743 23.70527.107677 24.34933-3.142433 3.14248-9.487844-6.30995-17.598497-26.21562-1.45665-3.575-3.307408-7.69112-4.112796-9.14693-4.684228-8.46715-15.742409-58.77685-19.978056-90.89108-1.732457-13.1353-1.950212-36.55752-.427306-45.96199 2.149867-13.27617 8.801314-28.71986 21.722077-50.43552 10.148726-17.05675 9.781083-16.65706 32.859838-35.7241 19.148184-15.8197 35.371974-26.34564 47.350404-30.72078 15.4197-5.63207 37.58663-7.04039 75-4.76494 35.69794 2.17111 47.73879 5.50846 65.4357 18.13671 9.25032 6.60089 28.12434 26.60679 44.43082 47.09534 7.84128 9.85231 15.82651 19.82579 17.74495 22.16329l3.48807 4.25h19.95023 19.95023v3.5 3.5h21.59332 21.59331l4.46171 4.25c2.45394 2.3375 6.22249 5.94125 8.37456 8.00834 2.15207 2.06708 5.5807 4.89016 7.61918 6.27351s5.238 4.3046 7.11005 6.49167c1.87204 2.18706 3.93115 3.99477 4.57579 4.01712 1.64409.057 7.20939 5.09844 7.98353 7.23204.35375.97498 1.44089 2.06636 2.41587 2.4253 2.30298.84784 12.27268 8.55951 12.27268 9.49304 0 .39455 2.1375 2.29761 4.75 4.22903 2.6125 1.93141 7 5.56661 9.75 8.07821 2.75 2.51159 7.8774 7.181 11.39423 10.37646l6.39422 5.80992-10.67395-.47473c-13.27181-.59026-24.48222 1.08198-29.33629 4.37604-1.95652 1.32773-4.39347 2.41405-5.41544 2.41405-3.60217 0-16.86277 11.4845-16.86277 14.6042 0 .39108-1.81146 3.05905-4.02548 5.92882-4.1635 5.39667-8.97452 16.16384-8.97452 20.08516 0 2.55052 2.42888 5.38182 4.61688 5.38182 2.16561 0 6.1943-4.3995 7.01198-7.65739 1.01919-4.06079 5.66043-11.60263 10.07205-16.36673 4.51318-4.87377 18.42747-15.07615 23.11488-16.94853 6.20078-2.4769 43.09026.2977 45.68421 3.43608 1.61647 1.95574 5.17411 3.53657 7.95901 3.53657 1.86059 0 2.86528-.72275 3.56574-2.5651.53639-1.4108.97525-2.90455.97525-3.31943 0-1.30384-25.02474-23.52854-28.57764-25.38005-1.86235-.97053-4.06431-3.07613-4.89325-4.67914-.82895-1.603-2.52461-3.22846-3.76814-3.61213s-2.93597-1.30679-3.76097-2.05138c-8.8155-7.95624-14-13.17704-14-14.09804 0-1.73198 5.08976-5.60171 10.03042-7.6261 2.45827-1.00725 6.49458-2.94767 8.96958-4.31204 17.06434-9.40693 24.02937-11.5232 44-13.36908 16.84442-1.55693 20.3135-2.08149 23.65113-3.57626 1.73312-.77619 3.60915-1.41125 4.16896-1.41125s2.2918-.65125 3.84887-1.44722c4.25649-2.17589 12.2162-4.63926 17.83104-5.51833 2.75-.43055 8.07461-1.58825 11.83246-2.57268 4.87994-1.27836 7.59477-1.52311 9.5-.85643 2.38375.83411 2.70031 1.50756 2.97556 6.33019.32045 5.61446-2.52881 16.4206-6.02352 22.84489-.98148 1.80423-1.7845 4.33104-1.7845 5.61514s-.9 3.47889-2 4.87731-2 2.78655-2 3.08473c0 .29817-1.37156 2.57441-3.04792 5.0583-2.9261 4.33566-7.72755 8.5841-9.70146 8.5841-.51736 0-1.75513.9-2.75062 2s-2.36013 2-3.03254 2c-.67242 0-1.7695.65901-2.43796 1.46446-2.02687 2.44222-11.27695 8.21217-15.5295 9.68688-7.39005 2.56273-18.95083 9.31425-22.99232 13.42756-7.65957 7.79568-15.81069 17.59255-17.66759 21.23476-1.36106 2.66963-2.54496 10.04288-4.36341 27.17501-1.37255 12.93123-3.21695 30.26133-4.09865 38.51133-2.41834 22.62812-2.76077 43.58772-.92757 56.77391.85225 6.13017 1.54954 11.94545 1.54954 12.92283 0 2.61013-23.14762 27.8116-32.48158 35.36362-5.82252 4.71094-11.58946 9.78245-19.63613 17.2682-6.83743 6.3608-7.27585 6.02318-8.21791-6.32856-1.83501-24.05926-4.7427-49.88944-5.75308-51.10688-1.57558-1.89845-5.40739-1.75417-7.44177.28021-1.46914 1.46914-1.5892 3.26901-.98391 14.75.65552 12.43347 1.65908 23.49965 3.54379 39.07667.46582 3.85.87476 11.82467.90877 17.72149.0759 13.15683-2.2802 19.8011-8.56546 24.15518-12.49212 8.65387-12.32579 8.58571-20.99772 8.60513-4.46875.01-9.49101-.255-11.16058-.58892-3.64182-.72836-13.09184-9.4513-15.59258-14.39288-3.25765-6.43729-5.62083-13.4692-5.62134-16.72695-.00063-4.05503 1.87566-5.34394 13.49835-9.27266 8.39132-2.83645 12.50115-5.21076 12.50115-7.2221 0-.50145 1.125-2.38668 2.5-4.1894 3.2167-4.21731 3.31424-9.64614.25-13.91377-1.2375-1.7235-2.70626-4.04297-3.26391-5.15438-1.71003-3.40812-7.32398-5.51748-14.68904-5.51919-6.25424-.00145-11.79705 1.41417-11.79705 3.01294 0 1.83767-5.16426 5.98551-7.45225 5.98551h-2.54775v43.97639 43.97638l17.14221.27362c15.05651.24032 17.27638.48653 18.24489 2.02361.80356 1.2753.80356 2.2247 0 3.5-.96851 1.53708-3.18838 1.78329-18.24489 2.02361l-17.14221.27362v9.47638 9.47639l-15.75-.0391c-11.16033-.0277-16.68001-.44361-18.94144-1.4271zm34.69144-21.53376v-4h-15.3c-15.62265 0-17.7.46946-17.7 4s2.07735 4 17.7 4h15.3zm-29.18612-24.61278c3.48552-.6971 13.26032-9.85494 15.74392-14.7502 2.91334-5.74227 5.44119-13.10423 5.4417-15.84806.00074-4.01624-3.26201-6.37834-13.54019-9.80252-8.31829-2.77124-12.45931-5.23765-12.45931-7.42082 0-.4273-1.125-2.11389-2.5-3.74799-3.32756-3.95458-3.44007-10.47984-.25-14.49881 1.2375-1.55905 2.7337-3.73108 3.32489-4.82673 1.89455-3.51117 7.31391-5.49194 14.92511-5.4551 7.63963.037 10.20788 1.02954 13.48859 5.21301 5.27088 6.72128 5.01141 13.59448 5.01141-132.75v-135.5h-19.59332-19.59331l-4.46171 4.25c-2.45394 2.3375-6.22249 5.94125-8.37456 8.00834-2.15207 2.06708-5.5807 4.89016-7.61918 6.27351s-5.238 4.3046-7.11005 6.49167c-1.87204 2.18706-3.93115 3.9907-4.57579 4.00808-1.5773.0425-5.76344 3.84922-7.94513 7.22495-.97518 1.5089-2.24652 2.74345-2.8252 2.74345-1.29141 0-11.90175 8.19374-11.90175 9.19102 0 .39455-2.1375 2.29761-4.75 4.22903-2.6125 1.93141-7 5.56661-9.75 8.07821-2.75 2.51159-7.88351 7.1869-11.4078 10.38957l-6.4078 5.82304 10.29652-.49581c13.41023-.64575 25.76891 1.14926 30.14586 4.37847 1.79398 1.32356 4.27599 2.40647 5.51558 2.40647 2.81657 0 13.3609 8.6685 15.30706 12.58394.79719 1.60383 3.17115 5.22249 5.27548 8.04145 3.97613 5.32645 8.7751 16.19473 8.7751 19.87309 0 1.1656-.63124 2.98253-1.40275 4.03763-2.05236 2.80677-6.59592.96506-8.77298-3.55609-.92165-1.91401-2.72165-5.67548-4-8.35882-4.05788-8.51777-15.64629-19.19484-29.1961-26.90006-2.76789-1.57399-4.97313-1.71375-19.14741-1.21344-17.25013.60886-26.85576 2.2553-28.81857 4.9396-.6778.92695-3.11824 1.93831-5.42319 2.24747-3.85774.51743-4.27223.34802-5.21492-2.13143-.56324-1.48145-1.02408-3.03299-1.02408-3.44787 0-1.30384 25.02474-23.52854 28.57764-25.38005 1.86235-.97053 4.05557-3.05924 4.87384-4.64159.81826-1.58235 2.85142-3.35237 4.51814-3.93339 1.66671-.58102 3.03038-1.43966 3.03038-1.90809s-5.0625-2.02838-11.25-3.46655c-14.87253-3.45684-29.0781-7.10742-35.25-9.05861-2.75-.8694-9.725-3.04407-15.5-4.83261s-10.95-3.56642-11.5-3.95085c-.55-.38442-2.125-1.04215-3.5-1.46162-3.19189-.97374-10.1418-4.95929-23.11341-13.25481-4.59708-2.93991-6.88644-5.09058-7.33924-6.89465-1.07469-4.28192.87326-5.1166 5.9842-2.5642 2.45765 1.22735 6.60595 3.20252 9.21845 4.38925 5.78024 2.62569 7.72407 3.55706 10 4.79142 9.41325 5.10529 29.22817 13.04339 32.56878 13.04745 3.07819.004 20.78294 4.24917 27.18122 6.51778 2.2.78005 7.84935 2.15251 12.55412 3.04991s9.65154 2.45942 10.99284 3.47116c2.20366 1.66222 2.3273 2.13472 1.28274 4.90205-.68312 1.8098-.76471 3.06253-.19947 3.06253 1.33763 0 11.86977-10.41577 11.86977-11.73862 0-1.70221-5.12819-5.58411-10.03042-7.59275-2.45827-1.00725-6.49458-2.94767-8.96958-4.31204-17.06434-9.40693-24.02937-11.5232-44-13.36908-16.84442-1.55693-20.3135-2.08149-23.65113-3.57626-1.73312-.77619-3.60915-1.41125-4.16896-1.41125s-2.2918-.65125-3.84887-1.44722c-4.28214-2.18901-12.23816-4.64449-17.83104-5.50322-2.75-.42224-7.68204-1.50613-10.9601-2.40863-7.4417-2.04884-9.97442-2.06355-11.96847-.0695-3.2569 3.25689-1.08126 16.70805 4.49212 27.77307 1.06505 2.11448 1.93645 4.86629 1.93645 6.11514s.9 3.41481 2 4.81323 2 2.78655 2 3.08473c0 .29817 1.37156 2.57441 3.04792 5.0583 2.9261 4.33566 7.72755 8.5841 9.70146 8.5841.51736 0 1.75513.9 2.75062 2s2.36013 2 3.03254 2c.67242 0 1.7695.65901 2.43796 1.46446 2.02687 2.44222 11.27695 8.21217 15.5295 9.68688 7.39005 2.56273 18.95083 9.31425 22.99232 13.42756 7.65957 7.79568 15.81069 17.59255 17.66759 21.23476 1.36106 2.66963 2.54496 10.04288 4.36341 27.17501 1.37255 12.93123 3.22825 30.26133 4.12377 38.51133 2.16535 19.94829 2.18279 46.24921.0385 58-.90329 4.95-1.65207 10.00661-1.66395 11.2369-.0293 3.02949 22.0645 27.41256 32.45998 35.82346 5.43023 4.39354 10.9549 9.23291 19.05307 16.68964 2.83723 2.6125 5.66904 4.75 6.29292 4.75 1.36056 0 1.86704-2.24086 2.59922-11.5 1.42696-18.04542 4.65848-49.82895 5.14653-50.61864.29959-.48475 2.07732-.88136 3.95051-.88136 5.59497 0 5.86522 1.46024 4.48625 24.24091-.66466 10.98021-1.6249 21.38041-2.13387 23.11156-.50897 1.73114-1.20822 10.41909-1.55388 19.30656-.59584 15.32013-.50935 16.4525 1.66596 21.81212 1.67566 4.12856 3.50867 6.58025 6.79687 9.09098 2.47635 1.89083 4.93527 3.43787 5.46429 3.43787.52901 0 2.29882 1.125 3.93292 2.5 2.64679 2.22713 3.87682 2.5 11.26936 2.5 4.56405 0 9.67701-.27575 11.36215-.61278zm-21.49352-105.99476c-.33928-.88415-.1168-6.17165.49441-11.75 1.52832-13.94864 7.01556-70.78933 7.38464-76.49538.29677-4.58799.34838-4.65103 4.05863-4.95792 2.77866-.22984 3.92452.12302 4.39688 1.35397.78702 2.05093-2.44028 46.80713-3.67441 50.95687-.49071 1.65-1.60124 9.975-2.46784 18.5-2.04258 20.09358-2.39383 21.86603-4.5633 23.0271-2.68633 1.43768-4.9309 1.18461-5.62901-.63464zm-28.26616-93.19491c-1.86917-1.29734-4.22676-1.64022-10-1.4544-13.87586.44664-15.18918-.004-21.4799-7.37326-4.66076-5.45971-5.5743-7.1581-5.5743-10.36336 0-3.34548-.53431-4.22644-4.197-6.92002-2.30835-1.69758-4.793-3.08651-5.52144-3.08651s-1.8644-1.18509-2.52435-2.63352c-1.10025-2.41478-.92662-2.86168 2.09033-5.38034 3.7637-3.14208 7.55759-3.96842 18.15246-3.95374 7.18731.01 7.79011.19832 14.45854 4.51785 5.0592 3.27713 7.43829 5.55394 8.71618 8.34143.96669 2.10868 2.89785 4.58108 4.29146 5.4942 1.3936.91312 2.53382 2.26975 2.53382 3.01473 0 .74497.61884 1.8681 1.37521 2.49582.75637.62773 1.65019 2.86093 1.98627 4.96267.33608 2.10173 1.76809 5.52632 3.18224 7.61019 1.41416 2.08388 2.33446 4.40578 2.04512 5.15979-.73044 1.90351-6.54982 1.64013-9.53464-.43153zm131.88904 93.37084c.82384-.99267 1.03705-4.59534.69538-11.75-.73571-15.40563-7.02516-79.12804-7.95216-80.56839-1.11822-1.73746-5.1806-1.56445-6.71638.28605-1.03546 1.24765-.95262 5.8945.4412 24.75.94381 12.76767 2.10154 24.56395 2.57275 26.21395 1.25589 4.39769 2.02905 11.34348 2.94056 26.41687.67958 11.23818 1.10739 13.63334 2.6345 14.75 2.34598 1.71542 3.90237 1.68695 5.38415-.0985zm-369.066433-87.19952c-2.316349-2.46564-4.876807-3.14784-4.876807-1.29935 0 .58823 1.4625 4.52573 3.25 8.75l3.25 7.68048.301121-6.38113c.257816-5.46345-.01892-6.72181-1.924314-8.75zm398.869443-6.11887c2.13507-1.39632 4.50269-1.7012 11.71482-1.50854 4.97141.1328 10.42354-.2139 12.11584-.77043 1.69692-.55806 5.27398-3.55675 7.97563-6.68605 3.84035-4.44826 5.012-6.63806 5.42309-10.13567.4725-4.02019 1.01896-4.79206 5.52437-7.80319 9.06911-6.0612 9.34716-6.83544 3.93678-10.96214-3.22036-2.45628-4.56287-2.76226-13.95221-3.17984l-10.389-.46205-5.46897 3.6301c-3.00794 1.99655-6.11051 3.87627-6.89461 4.17716s-2.40307 2.50419-3.59771 4.89623-3.28857 5.08072-4.65318 5.97485c-1.3646.89412-2.4811 2.2352-2.4811 2.98018 0 .74497-.675 1.9147-1.5 2.59939s-1.5 2.26909-1.5 3.5209c0 1.2518-1.34923 4.84093-2.99828 7.97583s-2.7475 6.1056-2.44098 6.60155c.93232 1.50852 6.34629 1.00854 9.18551-.84828zm-397.485801-6c-.551243-7.84378-.421296-7.6231-6.555877-11.13296-6.468229-3.70074-6.704572-3.7354-6.704572-.98306 0 4.86151 2.485661 10.05897 6.64362 13.89164 6.05022 5.5769 7.113494 5.29157 6.616829-1.77562zm-.444655-19.24751c.518575-7.13023-.261172-8.38622-8.608683-13.86652-4.302671-2.82478-8.331163-5.13597-8.952204-5.13597-1.203496 0-.828061 3.90121 1.150552 11.95555.99621 4.05528 1.678483 4.79127 7.594541 8.19243 3.575 2.05528 6.95 3.61531 7.5 3.46673s1.142107-2.22408 1.315794-4.61222zm-.815794-20.8925v-4.89l-9.880701-9.11c-5.434386-5.01049-10.217511-9.10999-10.629167-9.10999-.736525 0 .09411 10.28884 1.196136 14.81625.564555 2.31934 15.443115 13.18375 18.054831 13.18375.840239 0 1.258901-1.62623 1.258901-4.89001zm1-17.72489v-5.61491l-10.05871-11.38509c-5.532291-6.26181-10.426041-11.3851-10.875-11.3851-1.062812 0-2.06629 5.11969-2.06629 10.5421 0 4.15421.329325 4.59975 10.25 13.86729 5.6375 5.26635 10.8125 9.57865 11.5 9.58289.852502.005 1.25-1.77781 1.25-5.60718zm4.338598-21.37147c1.561229-4.94012 2.686229-9.38798 2.5-9.88413-.742619-1.97848-24.414547-28.10093-25.477307-28.11472-1.313742-.017-2.026863 3.39361-2.957767 14.14616l-.663247 7.66095 10.879862 12.51253c5.983923 6.88189 11.329861 12.54599 11.879861 12.58689s2.277369-3.96756 3.838598-8.90768zm440.161402-5.45131c16.34974-3.94917 28.68024-7.15333 34-8.83513 2.75-.8694 9.725-3.06104 15.5-4.87032s11.625-3.86446 13-4.56707c1.375-.70262 2.84432-1.28025 3.26515-1.28364 1.11629-.009 10.05165-5.23491 21.83861-12.77251 6.92259-4.4269 8.95562-7.60284 6.46267-10.09579-1.16532-1.16532-1.95812-1.06994-5.22021.62801-2.11542 1.1011-6.09622 3.02519-8.84622 4.27576-6.08013 2.76497-7.97634 3.67342-10.25 4.91065-9.77018 5.31654-28.73092 12.82675-34.25 13.56618-6.02824.80764-22.07228 4.54241-24.21195 5.63611-.94157.48129-6.11657 1.76847-11.5 2.86041-10.94138 2.21926-13.99111 3.47409-14.8244 6.09955-.63567 2.00282 2.13885 6.89162 3.90136 6.87434.62424-.006 5.63499-1.09807 11.13499-2.42655zm-431.569727-14.72243 2.430274-4.54095-13.388197-18.14947c-7.363508-9.98221-13.734258-18.14947-14.157221-18.14947-1.515701 0-3.882465 4.8176-5.011759 10.20154l-1.14962 5.48085 13.423125 15.12913c7.382719 8.32102 13.873125 15.00317 14.423125 14.84922s2.093623-2.32334 3.430273-4.82085zm221.277507-10.38738c13.3118-12.11627 14.79222-13.65429 14.79222-15.36778 0-.89333-4.26199-5.8685-9.4711-11.05595l-9.47109-9.43171-2.27891 2.05858c-1.25339 1.13223-8.2414 5.30111-15.5289 9.26419-7.2875 3.96309-13.25 7.50812-13.25 7.87786 0 1.52433 23.60548 24.2023 25.19215 24.2023.94788 0 5.45491-3.39637 10.01563-7.54749zm-207.088971-12.21136c1.091962-2.0076.11932-4.73266-8.744646-24.5-5.912747-13.18588-10.526592-22.24115-11.332323-22.24115-1.53981 0-15.04184 17.29325-15.04184 19.26542 0 1.70161 19.363757 30.60576 23.364711 34.87635l3.135289 3.34658 3.695095-4.24417c2.032303-2.3343 4.247974-5.26066 4.923714-6.50303zm9.313954-13.28139 3.843737-5.04024-6.938716-23.14325c-3.816292-12.72878-7.429863-23.30696-8.030156-23.50706-1.564386-.52146-13.307628 10.61841-13.307628 12.62387 0 .92271 3.87063 10.21174 8.601399 20.64229 4.73077 10.43055 8.994632 19.97713 9.47525 21.21463.480617 1.2375 1.242519 2.25 1.693114 2.25.450596 0 2.548946-2.26811 4.663-5.04024zm223.666507 1.22239c1.88505-2.09982 4.30925-4.31139 5.38712-4.9146 1.61695-.90489 1.78955-1.54628.98669-3.66665-.97383-2.57189-27.8826-36.85156-31.49113-40.11724-1.81544-1.64294-2.4969-1.64306-13.19811-.002-6.20611.95154-11.6421 1.94689-12.07998 2.2119s3.83712 5.28609 9.5 11.15796 16.08987 17.08248 23.17109 24.91246c7.08122 7.82999 13.1949 14.23634 13.58595 14.23634.39106 0 2.25332-1.71803 4.13837-3.81785zm-50.34495-6.80393c7.28512-5.29198 13.24568-10.14829 13.24568-10.79179 0-.64351-2.04645-3.17621-4.54766-5.62822l-4.54767-4.45821-17.50238 8.87089c-10.69971 5.42303-17.38576 9.37289-17.20233 10.16247.46628 2.0072 13.05725 11.42451 15.30436 11.44678 1.10238.0109 7.96488-4.30994 15.25-9.60192zm-159.25432-5.66939c3.07474-1.73589 4.06722-2.94649 4.29058-5.23355.49868-5.10591-3.62544-50.71014-4.68134-51.76604-1.34351-1.34351-10.50365 3.32526-15.931395 8.11996l-4.155457 3.6708 6.864325 22.64408c3.775377 12.45424 7.171897 23.14174 7.547827 23.75.93502 1.51289 1.47229 1.4079 6.06546-1.18525zm124.00936-.72398c.34507-.55833 2.28413-1.70381 4.30902-2.54551 7.35566-3.05757 28.13912-15.95396 28.16027-17.4738.03113-2.23744-10.75462-10.96554-13.55068-10.96554-2.40575 0-28.73149 18.48467-33.36473 23.42711-2.89906 3.09254-2.36173 3.8723 4.52017 6.55952 5.52317 2.15668 8.99425 2.50575 9.92595.99822zm-103.478-7.05719c6.08816-2.34784 8.07063-3.58586 8.40694-5.25.49796-2.46402 2.57753-40.89711 2.56795-47.45904-.004-2.88327-.49723-4.4698-1.50975-4.85834-1.80283-.69181-20.93754 3.51051-23.0637 5.0652-1.32162.96639-1.2536 4.09278.58928 27.08351 1.14585 14.29506 2.27052 26.55351 2.49926 27.24101.59453 1.78693 1.60537 1.61166 10.51002-1.82234zm81.88361-1.54669c1.13307-1.44047 3.41009-3.35297 5.06004-4.25 4.36583-2.37358 27.02499-23.15909 27.02499-24.79033 0-.76158-2.1375-2.75687-4.75-4.43399-8.16248-5.23996-9.63009-4.57049-27.72011 12.64489-15.41689 14.67149-19.28341 19.02041-18.03513 20.28522.70061.70989 10.57262 2.82245 14.18266 3.03502 1.26636.0746 3.03941-.96762 4.23755-2.49081zm-27.37685-2.44265c.36089-.58393 1.70791-1.46156 2.99339-1.9503 3.15853-1.20087 31.68131-35.64441 31.27299-37.76465-.39089-2.02973-14.96429-6.67915-18.15544-5.79222-2.13466.5933-31.64906 41.10576-31.64906 43.44257 0 .61946 1.4625 1.17114 3.25 1.22596 1.7875.0548 4.375.45997 5.75.90032 3.63799 1.16509 5.7925 1.14476 6.53812-.0617zm-23.68568-3.31729c2.49476-2.24935 28.38292-39.92184 29.43854-42.839.34192-.94489.225-1.96314-.25982-2.26277-.48482-.29964-6.37705-1.66405-13.09384-3.03203-13.38977-2.72703-24.71699-3.27774-25.44774-1.23723-.86278 2.4092-5.59827 50.02438-5.10336 51.3141.80901 2.10824 11.57703.66191 14.46622-1.94307zm112.47315-26.02511c5.40407-1.2909 10.34111-2.86262 10.97121-3.49272.86083-.86083-.8548-3.14605-6.90148-9.19273l-8.04711-8.04711-11.4241 3.22303c-6.28326 1.77267-12.24755 3.98935-13.25397 4.92596-1.75272 1.63114-1.56301 1.88398 4.5 5.99738 3.48142 2.36195 7.60189 5.35101 9.15659 6.64236 3.41902 2.83988 2.86652 2.84195 14.99886-.0562zm-34.4795-17.21568c5.46798-1.5665 17.59485-7.66664 18.65677-9.38486 1.29723-2.09897-13.62204-8.99538-19.46007-8.99538-3.54973 0-26.4102 10.59649-25.61974 11.8755.31393.50794 2.70967 1.44946 5.32387 2.09224 2.61419.64279 6.77808 2.24267 9.25308 3.5553 5.44714 2.8889 4.89399 2.84887 11.84609.8572zm-32.41882-15.69138c7.10999-2.33885 13.08818-4.73522 13.28486-5.32526.23256-.69767-3.4137-1.26808-10.42726-1.63122-9.24122-.47848-11.28583-.29532-14.28487 1.27967-1.925 1.01094-5.65269 2.61374-8.28375 3.56176-2.63106.94803-4.62 2.21495-4.41985 2.81539.36056 1.08167 6.81598 3.41315 9.7036 3.5046.825.0261 7.31727-1.86609 14.42727-4.20494zm-42.02356-3.4259c.40537-.40538 3.91201-1.27201 7.79252-1.92586 12.59234-2.12174 10.62042-3.3371-5.41444-3.3371-8.04002 0-15.33002.27314-16.2.60699-2.33452.89584-1.92122 3.27961.66821 3.85401 1.97264.43759 3.71881.65985 10.83333 1.37896.87084.088 1.91501-.17163 2.32038-.577zm527.43023 244.98914c.2549-5.15376.82878-7.28472 2.42432-9.0021 2.16629-2.33172 4.74174-3.00408 4.74174-1.23791 0 1.45132-6.40063 16.9875-6.99958 16.99001-.27523.001-.35015-3.03635-.16648-6.75zm.91215-14.984c-.21687-.42245-.13596-3.67345.1798-7.22443l.57411-6.45633 5.70613-3.3798c3.13836-1.85889 6.14871-3.10627 6.68965-2.77195 1.57081.97081-1.747 10.71081-4.73684 13.90579-3.55368 3.7975-7.92499 6.87703-8.41285 5.92672zm.25391-26.07697c0-3.19488.5625-6.51621 1.25-7.38074 1.66737-2.09671 14.90786-10.81039 16.42645-10.81039 1.27971 0 .94414 3.70809-1.08191 11.95555-.99605 4.05462-1.67945 4.79212-7.59454 8.1957-3.575 2.05709-7.0625 3.76459-7.75 3.79445-.86277.0375-1.25-1.74518-1.25-5.75457zm1-20.08114v-4.89l9.8807-9.11c5.43439-5.01049 10.21181-9.10999 10.6165-9.10999.86731 0-.33789 12.45077-1.50144 15.51114-.80748 2.12384-15.58353 12.48886-17.80372 12.48886-.76021 0-1.19204-1.77148-1.19204-4.89001zm-.31081-11.75413c-.37905-.37906-.68919-3.1409-.68919-6.13743v-5.44824l10.05871-11.38509c5.53229-6.26181 10.42604-11.3851 10.875-11.3851 1.05261 0 2.06629 5.10394 2.06629 10.40389 0 3.79091-.54615 4.67644-6.25 10.13385-12.94012 12.38103-15.39006 14.48887-16.06081 13.81812zm-2.10669-18.43864c-3.65759-10.73062-5.61573-17.45097-5.37652-18.45223.57788-2.41881 25.23945-29.41956 26.09207-28.56694.47534.47534 1.35465 5.59266 1.95401 11.37181l1.08975 10.50755-10.84974 12.36129c-5.96736 6.79872-11.20451 12.77405-11.63812 13.27852-.4545.52877-.99297.31701-1.27145-.5zm-11.52595-28.79648-2.32004-4.95338 13.33967-18.08368c7.33682-9.94602 13.87224-18.08368 14.52316-18.08368 1.42074 0 4.12833 6.44472 5.00138 11.90452.62474 3.90691.53327 4.04316-12.59858 18.76548-7.27535 8.1565-13.76737 14.95918-14.42672 15.11706-.65936.15789-2.24285-1.94196-3.51887-4.66632zm-216.11056-5.90643c-2.50471-2.04287-6.39653-5.51431-8.6485-7.71431s-5.94017-5.77573-8.19599-7.94608c-2.25583-2.17034-4.1015-4.20378-4.1015-4.51876s4.48677-5.04261 9.97059-10.50586l9.97059-9.93318 2.27941 2.05906c1.25368 1.13248 8.24191 5.30158 15.52941 9.26466 7.2875 3.96309 13.25 7.52163 13.25 7.90789 0 .80104-24.27162 25.19118-25.01444 25.13658-.26706-.0196-2.53486-1.70712-5.03957-3.75zm205.67302-11.92579c-2.53228-3.18369-4.57684-6.46352-4.54347-7.28852.12497-3.08951 19.56196-44.5 20.88712-44.5 1.53667 0 15.03734 17.29669 15.03734 19.26542 0 1.79343-19.61451 30.93678-23.54628 34.9852l-3.23057 3.32642zm-236.49791-16.79535c-1.3084-1.92124-2.68605-3.49317-3.06144-3.49317-.3754 0-1.6908-.93934-2.92311-2.08741l-2.24058-2.08742 2.75035-3.66258c6.27849-8.36092 29.3392-36.90568 30.78411-38.10485 1.28585-1.06716 3.55763-.99124 12.81623.42829 6.18934.94896 11.6116 1.9422 12.04948 2.20721s-3.83712 5.28609-9.5 11.15796-16.08987 17.08248-23.17109 24.91246c-7.08122 7.82999-13.38122 14.23327-14 14.22951-.61878-.004-2.19556-1.57876-3.50395-3.5zm223.45516-1.52158-3.85276-5.05207 6.93872-23.14325c3.81629-12.72878 7.43681-23.30928 8.04559-23.51221 1.50989-.50329 14.50473 11.77746 13.90823 13.14396-6.67409 15.28948-19.76372 43.14121-20.37035 43.34342-.44917.14972-2.55041-2.00121-4.66943-4.77985zm-173.33058-5.59337c-7.28512-5.29198-13.24568-10.14829-13.24568-10.79179 0-.64351 2.04645-3.17621 4.54766-5.62822l4.54767-4.45821 17.45233 8.84551c9.59879 4.86503 17.45234 9.36966 17.45234 10.01028 0 1.67298-13.38 11.64421-15.6249 11.64421-1.03606 0-7.8443-4.3298-15.12942-9.62178zm159.45383-5.47221c-2.09027-1.10308-4.06324-2.6903-4.38437-3.52716-.53083-1.38331 1.96317-38.11768 3.37444-49.70247.55684-4.57104.72083-4.79019 3.13169-4.1851 3.53286.88669 10.13018 4.87217 14.48521 8.75059l3.6585 3.25813-7.17391 23.75c-3.94565 13.0625-7.65027 23.73011-8.23249 23.7058-.58222-.0243-2.7688-.94671-4.85907-2.04979zm-132.3104-5.25473c-16.93259-9.57365-24.34275-14.14643-24.79759-15.30249-.67868-1.72498 11.18226-11.34879 13.98689-11.34879 1.42545 0 7.70787 3.86755 15.65144 9.63524 14.15273 10.27606 19.77015 15.07114 19.77015 16.876 0 1.1783-11.42889 5.58673-14 5.40016-.825-.0599-5.5999-2.42692-10.61089-5.26012zm111.74874-2.53443c-4.04919-1.52146-7.69712-3.40766-8.10653-4.19157-.67308-1.28878-3.06907-40.0413-3.04234-49.20666.007-2.43485.54641-3.98684 1.51452-4.35834 1.79747-.68975 20.93608 3.50866 23.04888 5.0562 1.30131.95315 1.21533 4.36223-.71451 28.33352-1.87131 23.2441-2.4249 27.24141-3.76584 27.19156-.86462-.0321-4.885-1.30326-8.93418-2.82471zm-83.24-2.39391c-1.98118-1.77262-6.25618-5.35932-9.5-7.97045s-9.49785-8.09826-13.89785-12.19362c-9.15908-8.52495-9.18952-9.01784-.84795-13.73052 4.80322-2.71364 5.21236-2.78021 8.44782-1.37459 4.38168 1.9036 36.29417 32.86411 35.70292 34.63788-.38254 1.14761-10.33872 3.71666-14.80279 3.81964-.825.019-3.12097-1.41572-5.10215-3.18834zm26.23297-2.92707c-5.17942-3.25781-33.40207-37.76411-32.13546-39.29028 1.24383-1.49872 16.10071-5.84458 18.30812-5.35539 2.23956.49631 32.99317 43.82218 31.44311 44.29724-.68562.21013-2.82159.6164-4.74659.90283-1.925.28642-4.85.75568-6.5 1.04278-2.03695.35444-4.08156-.15828-6.36918-1.59718zm32.86918.46289c-2.8235-.24584-5.37641-1.20528-6.85244-2.57529-2.53655-2.35436-28.41093-40.06167-29.43854-42.90144-.34192-.94489-.225-1.96314.25982-2.26277.48482-.29964 6.37705-1.66405 13.09384-3.03203 13.38977-2.72703 24.71699-3.27774 25.44774-1.23723.88987 2.48484 5.59023 50.04534 5.07788 51.38048-.28904.75324-1.10215 1.2909-1.80692 1.19481-.70476-.09609-3.30638-.35102-5.78138-.56653zm-120.75-28.93001c-5.92616-1.432-10.25-2.98278-10.25-3.67624 0-.65969 3.52687-4.70561 7.83749-8.99095l7.83748-7.79152 11.41252 3.21969c6.27688 1.77083 12.23595 3.98601 13.24237 4.92262 1.75272 1.63114 1.56301 1.88398-4.5 5.99738-3.48142 2.36195-7.60189 5.35101-9.15659 6.64236-3.38492 2.81156-3.45564 2.81016-16.42327-.32334zm34.75-17.25545c-5.42183-1.71947-16.51466-7.47899-17.51173-9.09227-.8821-1.42728 4.88399-4.78444 12.75651-7.42716l7.56906-2.54085 12.6629 5.976c6.9646 3.28681 12.41414 6.37853 12.11008 6.8705-.30405.49197-2.64062 1.4202-5.19238 2.06274-2.55175.64254-6.81944 2.27289-9.48375 3.623-5.59478 2.83509-5.63141 2.83659-12.91069.52804zm32.75-15.65772c-7.5625-2.49054-13.75-4.88917-13.75-5.3303s5.0625-1.0482 11.25-1.34906c9.65721-.46955 11.74553-.28784 14.75 1.28345 1.925 1.00675 5.6375 2.60032 8.25 3.54125 2.6125.94094 4.75 2.24737 4.75 2.90319 0 .96425-8.18947 3.61771-10.82629 3.50781-.37054-.0154-6.86121-2.0658-14.42371-4.55634zm42.25-3.39344c-.825-.47328-4.7625-1.38775-8.75-2.03215-11.979-1.93585-8.51964-3.06299 8.48733-2.76538 13.93757.2439 15.77498.47144 16.06645 1.98966.35897 1.86984-1.00394 2.33372-9.30378 3.16663-2.75.27597-5.675.11453-6.5-.35876z" fill="#f3060a"/><g fill="#fff"><path d="m375.99915 273.30715.51642-245.771383h179.91128 179.9113l.29023 9.250661c.88716 28.274755-19.83007 75.719072-47.66866 109.165522-10.66978 12.81913-29.51721 31.49023-42.06602 41.67249-11.92932 9.67959-35.47969 25.33581-50.82538 33.78857-56.58785 31.16988-126.26448 49.26295-197.44501 51.27098l-22.61597.63799z"/><path d="m198.07437-7.669155h1.87c2 0 2.17-.06 2.17-.49s-.25-.49-2.17-.49h-1.87v1z"/></g></svg>