<svg height="469" width="770" xmlns="http://www.w3.org/2000/svg"><g transform="translate(314.00681 -439.09043)"><path d="m-44.561623 585.05582v-139.86194h37.736233 37.736233l.987687 1.03092c.543228.56701 1.166747 1.03093 1.385595 1.03093.218852 0 .679925.31162 1.024608.69249.344682.38087 1.216242.78676 1.936799.90199 1.666556.26649 1.842463.51062 2.305798 3.20007.223019 1.29455.59854 2.33844.902374 2.50848.286215.16017.520393.60413.520393.98658 0 .38244.603581 1.23719 1.341293 1.89945.847024.76039 1.420221 1.62483 1.555478 2.34581.117803.62794.42861 1.31967.690684 1.53717.262074.21751.583946 1.17667.715265 2.13149.14359 1.04401.49795 1.95794.888972 2.29275.357614.3062.650207.81977.650207 1.14127s.386596 1.04399.859103 1.60553c1.347448 1.60135 1.14349 2.53353-.850241 3.88595l-1.709346 1.15952-.0089 2.64293c-.0052 1.53553.14704 2.7393.363218 2.8729.204645.12648.671393.92823 1.037219 1.78166.365827.85344 1.488832 2.34949 2.495567 3.32456 1.006734.97506 1.894287 1.96443 1.972342 2.19859.07805.23416.759251.52034 1.513777.63595.754526.11562 1.623302.42786 1.930614.69387.307314.26601 1.157826.56439 1.890026.66305 2.896613.39033 2.877661.37802 2.877661 1.86867 0 1.17388.228161 1.60522 1.546385 2.92345 2.249513 2.24951 2.155121 3.0764-.687282 6.02062-1.228517 1.27252-2.233668 2.61103-2.233668 2.97447 0 .36343-.386596 1.02398-.859102 1.46787-.828849.77867-.859103.96067-.859103 5.16818 0 3.98136.06625 4.44532.760876 5.32839.601644.76486.801206 1.58363.953573 3.9123.105979 1.61976.38214 3.28278.613685 3.69561.231549.41283.420995 1.58124.420995 2.59646 0 1.41368.194958 2.1101.832684 2.9745.622585.84386.893336 1.77589 1.073067 3.69389.213611 2.27953.164058 2.64927-.444895 3.31955-.376902.41486-.770931 1.43524-.875622 2.26752-.10469.83227-.489674 1.91809-.855525 2.41292-.453142.61291-.744358 1.77367-.913573 3.64139-.136615 1.50793-.46737 3.08419-.735008 3.5028-.307325.48067-.486616 1.69807-.486616 3.30415 0 2.02272.140625 2.72184.687282 3.4168.378005.48055.687282 1.206.687282 1.6121 0 .43762.702186 1.41162 1.723952 2.39127 1.360561 1.3045 2.043496 1.69671 3.23991 1.8607.83378.11428 2.029645.52096 2.657477.90374 1.673192 1.02011 6.496793 1.01332 7.520696-.0106.525122-.52513 1.325276-.76077 3.083946-.90821 1.69435-.14204 2.540329-.38196 2.952386-.83727.317651-.35101.847615-.63819 1.177696-.63819.754388 0 4.70512-3.30989 4.978377-4.17085.157188-.49526.541706-.64012 1.699089-.64012 1.376953 0 1.513626.0806 1.718487 1.01332.122409.55732.753248 1.59269 1.401867 2.30081.648619.70813 1.179308 1.48925 1.179308 1.73582s.03866.4492.08591.45029c.04725.001 1.013717.15392 2.147709.3396 1.133988.18569 4.07212.3531 6.529182.37202 3.117717.024 4.688297.17505 5.198597.49992.95559.60835 1.97912.70498 4.07977.38513 2.93678-.44716 3.13586-.52733 3.54634-1.42824.21977-.48234.67154-.96994 1.00393-1.08355 1.01885-.34824 3.17819-2.92917 3.23806-3.87024.031-.48769.0171-1.6182-.031-2.51226-.076-1.41402.0173-1.67331.71678-1.99259.97427-.44467 2.39291-2.52922 2.68271-3.94196.13927-.67895.41198-1.02115.79876-1.00229.32301.0157 1.19056.0544 1.9279.0859 1.14067.0487 1.44647.23667 2.05026 1.26002.67763 1.14849.79705 1.20275 2.64756 1.20275 1.56317 0 2.13437.1653 2.95382.85482.95734.80555 1.08325.82668 2.1843.36663l1.1684-.48819.78626 1.42455c1.06382 1.92744 2.11234 2.47212 4.16603 2.16415 1.35429-.20308 1.75409-.44295 2.38801-1.4327.57805-.90252.92689-1.13993 1.44867-.98593.37801.11156 1.32525.24287 2.10499.29178.90588.0568 2.01269.48305 3.06578 1.18058.90643.6004 1.82723 1.09164 2.0462 1.09164s1.89349 1.44752 3.72114 3.21672l3.323 3.21671v2.10973c0 1.90333-.0695 2.10972-.71021 2.10972-.39062 0-1.21706-.3866-1.83655-.85911-.61949-.4725-1.43572-.8591-1.81384-.8591s-.98035-.3236-1.33828-.71911c-1.10015-1.21566-1.73995-1.40263-2.99917-.87649-.6345.26511-1.53882.84855-2.00959 1.29654s-1.19227 1.08363-1.60333 1.41253c-.61871.49505-.74739.95485-.74739 2.67059 0 1.87299.0821 2.10998.8525 2.461.46887.21363.93964.663 1.04616.9986.20297.63954 2.29222 2.03465 3.04697 2.03465.24146 0 .85237.46392 1.35758 1.03092.5052.56701 1.072 1.03093 1.25954 1.03093.18755 0 .34099.61855.34099 1.37456 0 .87246-.15731 1.37457-.43066 1.37457-.96801 0-2.45347 2.20282-3.41499 5.06414-1.00058 2.97758-.95582 3.50532.29864 3.52162.37697.005 1.52311-2.60897 2.03059-4.63092.12752-.50808.8626-1.32494 1.72827-1.92053l1.50636-1.03641v-2.18905c0-2.43308-.214-3.27619-.83158-3.27619-.22792 0-.85886-.46391-1.40209-1.03092s-1.17818-1.03092-1.41101-1.03092c-.70292 0-2.53636-1.17313-2.53869-1.62438-.001-.2319-.38877-.67493-.86127-.98453-1.13378-.74288-1.18124-2.35583-.0859-2.91925.42525-.21875 1.19917-.79505 1.71982-1.28068l.94663-.88296 1.13158 1.09677c.67831.65745 1.4867 1.09677 2.01815 1.09677.48761 0 1.07816.23084 1.31232.51299.23417.28215 1.02629.67471 1.76029.87235 1.22404.3296 1.33453.45783 1.33453 1.54885 0 1.03971.10819 1.1895.8591 1.1895.72425 0 .85911-.1608.85911-1.02438 0-.81381.18173-1.06998.88416-1.24628 1.23859-.31087 1.48858-1.24872 1.66084-6.23082.11155-3.22673.0269-4.65949-.32512-5.50198-.63763-1.52606-3.47615-4.20952-4.45275-4.20952-.52815 0-1.70642-.99084-3.7276-3.13463-2.67511-2.83741-3.04584-3.11352-3.90978-2.9119-.52495.1225-2.29594.31677-3.93554.4317l-2.98109.20896-2.42793-2.19395c-2.29448-2.07338-2.4281-2.27577-2.43125-3.6827-.003-1.37246.17116-1.66585 2.23033-3.75562 1.22852-1.24678 2.23367-2.51844 2.23367-2.82591 0-.30748.3866-1.08305.8591-1.72349.47251-.64045.8591-1.44386.8591-1.78535 0-.61678 2.21401-2.99637 3.69415-3.97042.55566-.36567.78035-.86024.79863-1.75795.0223-1.0932.26188-1.43479 1.91938-2.73631 1.68878-1.32608 1.95589-1.4333 2.46595-.98985.65477.56926 1.29755.43297 2.31603-.49109.52735-.47846.99726-.59014 1.80412-.42877.60007.12001 1.09103.34756 1.09103.50565s.6534.46338 1.45201.67842c.7986.21504 1.65788.68492 1.90951 1.04417.34483.49232.87668.65318 2.15959.65318 1.27683 0 1.84911.17172 2.29055.68729.46877.54748 1.01372.68728 2.679.68728 1.69029 0 2.31348.16448 3.25499.8591.85618.63167 1.59551.85911 2.79273.85911 1.31224 0 1.66954.12998 1.84084.6697.11691.36834.49457.75921.83925.86861.44964.14271.69101.68372.85433 1.91488.19485 1.46887.5227 2.04157 2.27668 3.97702 1.12697 1.24357 2.04904 2.38966 2.04904 2.54687s.30928.38399.68728.50397c.55111.17491.68729.51994.68729 1.74136 0 1.0585.20702 1.73025.67854 2.20177.37319.3732.78009 1.10773.9042 1.6323.12411.52456.49736 1.26303.82945 1.64103.42811.48731.67518 1.58717.84915 3.78006.13712 1.72843.47443 3.47175.76463 3.95187.28559.47251 1.40933 1.58912 2.4972 2.48137 2.25923 1.85298 2.4115 2.27976 2.4115 6.75907 0 2.31247.15197 3.25256.68728 4.25132.378.70527.68728 1.5652.68728 1.91094 0 .34575.3866.99182.8591 1.43572.47251.44389.85911 1.18099.85911 1.63799s.30927 1.22409.68728 1.70465c.56779.72183.68728 1.39407.68728 3.86671 0 1.64613.10082 4.64072.22404 6.65465.21721 3.5499.24868 3.66169 1.03093 3.66169.79851 0 .80688-.0397.80688-3.83262v-3.83262l3.98349.21348c5.53609.29669 6.95803.0634 7.66084-1.2571.75237-1.41357 3.39125-4.07053 5.13801-5.17321.78685-.49671 1.43064-1.05581 1.43064-1.24245 0-.18663.84507-.33933 1.87794-.33933 1.5975 0 1.93886-.11546 2.28593-.77319 1.20361-2.28091 3.85739-3.16837 4.29233-1.43541.25675 1.02297 1.32136 1.52132 3.24997 1.52132.7437 0 1.35219.15464 1.35219.34364 0 .71106 1.41001 1.71821 2.40549 1.71821.56701 0 1.03092.15846 1.03092.35214s.3866.49913.85911.67878c.53531.20352.8591.5953.8591 1.03948 0 1.1472.99346 2.74334 1.92886 3.09898 2.19668.83518 4.10137.23849 4.70912-1.47524.17634-.49723.64658-.60255 2.71546-.60818 1.3762-.004 3.58465-.16209 4.90767-.35187 2.13189-.30582 2.53906-.49026 3.57996-1.62162 1.11591-1.2129 1.29498-1.28148 3.59092-1.37516 1.4056-.0573 2.63931-.29302 2.94922-.56338.56516-.49304 1.79429-.78127 4.76733-1.11791 1.25719-.14236 1.95456-.40805 2.23042-.84977.25921-.41507.79954-.64266 1.52569-.64266.97175 0 1.55445-.44754 4.29328-3.29736 3.31302-3.44729 4.4462-4.26275 5.92356-4.26275.63673 0 1.07487-.3158 1.5495-1.11683.36396-.61426 1.45525-1.73539 2.42508-2.4914.96984-.75601 1.90012-1.7225 2.06729-2.14776.20563-.52309.61239-.78754 1.25747-.81755.52443-.0244 1.61073-.088 2.41399-.14135 1.07413-.0713 1.46048.0313 1.46048.38801 0 .82926 1.32606 1.85955 2.3934 1.85955.66713 0 1.1458.23725 1.38665.68728.2023.378.6598.68728 1.01665.68728s1.10827.3866 1.66981.8591c1.57526 1.3255 5.05969 1.02053 5.45134-.47712.14144-.54094.60299-.66588 2.96511-.80262 4.39228-.25426 10.89012.0956 10.89012.58637 0 .22827.30928.69492.68729 1.03701.378.3421.68728.98977.68728 1.43928 0 .45397.49649 1.33528 1.11683 1.98249.61426.64086 1.39467 1.56354 1.73426 2.0504.33958.48686.91247.88519 1.27308.88519.48722 0 .71543.33109.88828 1.28866.30931 1.71352.69416 2.40214 1.48219 2.65226.35942.11407.74856.58611.86471 1.04896.12794.50971.54237.92467 1.05099 1.05233.46189.11592 1.01144.41761 1.22127.67042.20979.25282.87336.56362 1.47456.69067.6012.12706 1.40237.50995 1.78037.85087.38643.34852 1.52728.72256 2.60621.85447 1.99704.24417 3.06387-.24067 3.06387-1.39243 0-.26515.4613-.72064 1.02512-1.0122 1.20518-.62322 2.06765-2.12245 2.06765-3.59417 0-.86446.13842-1.04799.79037-1.04799.93412 0 1.61512-.59384 1.61512-1.40841 0-.47111.46866-.63074 2.42985-.8277 2.1092-.21182 2.4793-.35248 2.80428-1.0658.20595-.45198.57952-.82178.83014-.82178.25061 0 .67663-.52879.94666-1.17509.51897-1.24208 1.66903-2.08895 2.43672-1.79436.25265.0969.66725.61142.92141 1.1433.27343.5723.79065 1.01374 1.267 1.08144 1.58979.22593 2.30718-.2252 3.12092-1.96262.6879-1.46864.7614-1.99855.55044-3.9682-.18089-1.68915-.46463-2.5361-1.10436-3.29639-.62532-.74312-.73518-1.06138-.40147-1.16274 1.48979-.45248 1.74377-.61477 1.90057-1.21439.0952-.36397.38976-.74494.65464-.84658s.48526-.38296.48972-.62514c.004-.24219.58735-.86842 1.29529-1.39163s1.82542-1.64102 2.48329-2.48402c1.16178-1.48872 1.24051-1.52747 2.7425-1.34952 2.60971.30917 3.03892.4656 3.26933 1.19152.13062.41154.62903.78194 1.20807.89774.54216.10843 1.24955.48867 1.57202.84499.32244.35631.84762.64784 1.16704.64784.31941 0 .87494.32507 1.23453.72239.52876.58428.93501.69068 2.12501.55655 1.2469-.14054 1.52924-.0542 1.85157.56627.20921.40265.63.99529.93512 1.31697s.7657.8366 1.0235 1.14426c.89027 1.06249 3.1395.016 3.1395-1.46064v-.85009l3.54683.24175c3.07136.20934 3.62414.16442 4.12369-.33512.31728-.31728.58203-.75912.58831-.98188.0158-.5558 1.06656-1.76524 1.7667-2.03326.31649-.12115.83666-.77084 1.15601-1.44376.34391-.72475.82927-1.2235 1.19064-1.2235 1.3833 0 2.02824-1.07892 2.12656-3.55749.0873-2.20203.0316-2.40793-.85983-3.17469-.9092-.78208-.94858-.94247-.85281-3.47266.0948-2.50288.14845-2.66399.95051-2.85239.57697-.13552.94893-.54432 1.15773-1.27237.2969-1.03522.39165-1.08114 2.71102-1.31407 2.44872-.24591 3.70039-.94064 3.70039-2.05384 0-.28351.29035-.51547.64522-.51547.35485 0 .8168-.20679 1.02656-.45953.20976-.25275 1.24842-.66753 2.30807-.92175 2.25016-.5398 2.67971-1.21854 2.35865-3.72709-.17392-1.35907-.0741-1.7662.68072-2.77622.48649-.65098.88453-1.42564.88453-1.72146 0-.61252 1.32615-1.57904 1.9835-1.4456.86642.17589 3.38527-2.29128 3.88489-3.80517.7144-2.16463 2.61336-3.96637 4.47449-4.2454 1.57181-.23565 2.6938-1.18428 2.70785-2.28944.004-.33075.21564-.60137.46983-.60137 1.45779 0 2.39965-3.32702 1.48659-5.25115-.29818-.62837-.85491-1.42554-1.23721-1.77151-.62288-.56371-.67288-.90082-.48154-3.24645.23921-2.93247.5903-4.16382 1.18721-4.16382.22185 0 .92013-.53212 1.55178-1.18249.63164-.65038 1.56384-1.38491 2.0716-1.6323.65907-.32111 1.0778-.94137 1.46361-2.168.51367-1.63326.60556-1.72357 1.85793-1.82658 1.03906-.0855 1.43855-.32106 1.89002-1.11467.47694-.8383.7933-1.00664 1.89511-1.00845 1.02485-.002 1.53941-.23427 2.28563-1.0331.52965-.56701 1.28402-1.03092 1.67635-1.03092.40677 0 .96546-.40608 1.30013-.94502 1.04632-1.68496 1.93759-2.49139 2.7535-2.49139h.7992v127.14722 127.14722h-243.98521-243.985207v-139.86195zm202.404633-13.42482v-3.1156l-.94502.10874c-.51975.0598-.90635.22471-.8591.36646.0472.14175.0859 1.49484.0859 3.00686 0 2.70331.0143 2.74913.8591 2.74913.85321 0 .85911-.0214.85911-3.11559zm18.21298 1.54892c0-.82354-.0532-.83882-2.92095-.83882-2.87326 0-2.92095.0138-2.92095.84465 0 .81581.0909.84807 2.66322.94501 1.46477.0552 2.77919.0526 2.92095-.006.14175-.0584.25773-.48366.25773-.94501v.00001zm-8.93467.0632c0-.94429-.9666-1.2457-3.99483-1.2457-1.70593 0-1.84707.0613-1.84707.80183 0 .44101.10309.90492.22909 1.03092.126.12601 1.44043.2291 2.92095.2291 2.60444 0 2.69186-.0265 2.69186-.81615zm18.21298-.043c0-.85274-.0229-.85911-3.09277-.85911-3.06986 0-3.09277.006-3.09277.85911 0 .85273.0229.8591 3.09277.8591 3.06986 0 3.09277-.006 3.09277-.8591zm8.59103 0c0-.849-.0344-.85911-2.92095-.85911-2.88659 0-2.92095.0101-2.92095.85911 0 .84899.0344.8591 2.92095.8591 2.88658 0 2.92095-.0101 2.92095-.8591z" opacity="0"/><g stroke-width="1.739721" transform="matrix(.36912945 0 0 .37689786 -315.68371 576.63615)"><path d="m869.59262 479.34074c-6.40498-.40122-6.93351-.67233-9.62612-4.93769-1.56697-2.48224-4.46408-5.66317-6.43802-7.06874l-3.58898-2.55559v-28.01115-28.01114l-13.61305-.39476c-13.24399-.38405-13.68983-.4841-16.44546-3.69061-3.20666-3.73135-3.68851-7.60879-1.0704-8.61344 2.24181-.86028 2.25877-4.0177.0373-6.95467-.94856-1.25411-1.74147-3.10255-1.76202-4.10767-.0205-1.00511-1.35886-3.61867-2.97404-5.80792-1.61518-2.18926-2.93669-4.84641-2.93669-5.90479 0-1.05839-1.94043-3.20225-4.31206-4.76416-6.05288-3.9863-9.05333-14.02263-8.75052-29.27003.0321-1.61518-.40208-3.9939-.96478-5.28604-1.29681-2.97788-4.76745-16.12347-4.76745-18.05748 0-1.05768.70356-.96509 2.56296.33728 3.11756 2.18362 5.65977.60728 5.65977-3.50943 0-1.50397.67344-3.15721 1.49654-3.67387 2.84128-1.78346 6.04531-8.00018 6.20451-12.03846.0878-2.22807.76974-4.25438 1.51536-4.50292s1.35567-1.69336 1.35567-3.21071c0-2.80462-4.00897-6.38429-11.15942-9.96442-3.77217-1.88867-4.90113-4.92862-5.14706-13.8595-.11863-4.30778-.65405-5.3401-3.65558-7.04805-1.93413-1.10058-3.51995-2.61772-3.52403-3.37142-.004-.7537-1.45393-2.42408-3.22189-3.71194-3.07767-2.24192-3.12765-2.43748-1.17467-4.5955 2.24039-2.47561 2.71154-6.80117.8651-7.94233-.64607-.39929-1.17467-1.41103-1.17467-2.2483 0-1.03633 2.63096-1.74289 8.24126-2.21324 7.63676-.64024 17.52278-7.71787 18.88559-10.92853.21454-.50543 7.44368-1.41652 9.97828 1.22149 3.90974 4.06926.94569 4.59808 6.45949 5.34631 3.57445.48507 7.11338 1.49631 7.86428 2.24721s2.31676 1.36527 3.47969 1.36527c1.25857 0 2.11442.862 2.11442 2.12959 0 2.64191 5.46019 7.88853 9.39741 9.02984 1.61517.4682 4.35556 2.17897 6.08975 3.80171 2.49336 2.33312 4.68978 3.05328 10.49782 3.442 7.23848.48443-4.8826-2.89166-1.04694-7.20304 2.14057-2.40608 3.89196-5.47586 3.89196-6.82172 0-1.34587 1.00373-4.31979 2.23052-6.60871 1.64575-3.07061-.91944 1.37232-1.37553-2.67407-.57392-5.09184-1.70103-5.16022 2.46818-6.6576 20.69217-7.43161 3.98907-3.71871 1.39413-5.87232-.93071-.77241-1.42327-2.10519-1.09459-2.9617.32868-.85653.0329-1.90628-.65716-2.3328-.69012-.42651-11.87847-1.01251-11.87847-2.51952 0-3.24697 12.19314 7.82415 9.48738 10.06973-.92292.76596-.35247-8.90145-.76116-9.31014-1.27429-1.27429-3.8678-4.03678-6.58633-4.97982-6.69929-2.32393 14.45096-8.341 15.48722-10.84276 1.64308-3.96674 10.29677-1.97808 23.12946-2.77924 6.62226-.41344 2.9212-4.5114 3.0228-5.98483.37611-5.45461 2.60598 1.88222 4.21752 2.28669 1.61153.40446 3.41637 2.01449 4.01074 3.57784.59439 1.56335 2.38314 3.69583 3.97499 4.73886 2.72569 1.78594 3.13846 1.7382 7.08595-.81957 2.46434-1.59677 4.20506-3.68412 4.22418-5.06534.0539-3.89417 1.46126-4.6987 8.21929-4.6987h6.46072l.35551-6.18019c.27226-4.73307 7.23229 3.28367 5.83545 2.74767-1.2657-.48569-9.12765-8.58693-9.12765-12.16806 0-2.8382-.52861-5.16037-1.17468-5.16037-1.91244 0-1.34532-4.38884 1.17468-9.0906 1.29214-2.41086 2.34935-5.23434 2.34935-6.2744 0-2.78739 4.03189-5.94826 7.87198-6.1714 3.52371-.20474 7.42423-12.31089 9.74816-6.48113.25442.63822 9.15389-.40147 11.41512-2.20571s4.11134-4.14894 4.11136-5.21045c.00005-2.47346 2.57916-3.48721 10.38463-4.08182 5.38617-.41031 6.35512-.16476 6.8523 1.73647.34191 1.30745 3.14619 3.29954 6.84712 4.86403 3.8052 1.60858 6.049 3.2204 5.7106 4.10219-1.7039 4.44041 26.9857 26.2859 31.0509 24.72594.8986-.34482 2.3822-.006 3.2968.75315 1.2394 1.02866 2.0021 1.04094 2.9948.0482 1.5871-1.58722 4.4419.27929 4.4419 2.90429 0 .91027.7928 1.95931 1.7619 2.33119 1.3446.51597 1.762 2.71701 1.762 9.29122 0 4.75013 12.8371 26.88457 13.5172 27.3049.7747.47875.1852 2.14323-1.5845 4.47436-3.0296 3.99067-4.5057 11.31011-4.4822 22.22544.013 5.89224-.3572 7.01023-2.8621 8.6515-1.5822 1.03666-2.8766 2.55223-2.8766 3.36792 0 .8157-.7929 2.14114-1.7621 2.94543-.9691.80428-1.8026 3.37988-1.8522 5.72354-.05 2.34366-.7104 6.24997-1.4684 8.68071l-1.3781 4.4195-3.413-2.95116c-1.8772-1.62317-3.5746-2.95116-3.772-2.95116-1.3937 0-5.1491 5.62306-5.1491 7.71006 0 1.86743-10.5169.42225-12.886.89605-3.2389.64779-6.4712 3.67671-6.4712 8.63611 0 1.10504-.925 2.35232-2.0556 2.77175-1.1307.41944 4.3931 4.04829 3.3483 5.22376-1.2179 1.37001-12.8328-2.84005-15.75651-2.83541-2.5085.004-6.075.79689-7.92555 1.76202-1.85055.96512-4.49529 1.75477-5.87719 1.75477-5.0396 0-11.45942 10.06688-7.84455 12.30099.6166.38109-.96835 2.65884-3.5221 5.0617-2.55376 2.40285-4.64406 5.23733-4.64513 6.29882-.002 2.78477-1.78284 3.13172-13.09648 2.55261-9.89619-.50656-10.2429-.43285-15.54649 3.30548-2.9835 2.10296-5.42456 4.22921-5.42456 4.72498s-2.14817 1.545-4.77374 2.33164c-4.27683 1.28137-4.69721 1.73516-4.03855 4.35948.40436 1.61108 1.75963 4.2316 3.01173 5.82338s2.27654 3.62898 2.27654 4.52711 1.50747 1.93446 3.34995 2.30295c2.67966.53594 7.89751 2.26991 10.15094 7.33878 1.54939 3.48524 3.21355 6.34216 3.6981 6.3487.48455.007.88101 1.55936.88101 3.45068 0 2.2689.99906 4.22463 2.93669 5.74877 3.70021 2.9106 3.76621 5.83029.15226 6.73733-1.53144.38436-5.2938 3.54558-8.36081 7.0249-3.26645 3.70561-7.24652 6.87727-9.60833 7.65673-4.44701 1.46765 2.82764 7.86567 2.82764 10.06661 0 .77522-1.58581 2.74386-3.52402 4.37475-2.62499 2.20879-14.81172 1.3139-14.81172 4.24697 0 2.16569-.49779 4.24527-1.10621 4.6213-.60842.37601-1.47709 4.44751-1.93039 9.04776-.60205 6.10996-1.47511 9.01503-3.23951 10.77943-1.89328 1.89328-2.45337 4.06574-2.59125 10.05102-.10525 4.56808-.71898 7.8167-1.52766 8.08626-.74346.24783-1.35174 1.11751-1.35174 1.93265 0 .81513-1.05721 2.43882-2.34935 3.60819-1.29215 1.16938-2.34935 2.83712-2.34935 3.7061 0 .86896-.47121 1.57995-1.04713 1.57995-.89204 0-16.81861 7.47362-6.95009 6.68526 7.33984-.58635-10.71675 5.03752-9.36128 6.30034 2.18423 2.03491 2.26008 2.46566.66698 3.78781-.98863.82049-1.7975 2.68779-1.7975 4.14955 0 2.4873-4.58506 6.74234-6.71306 6.22989-.50729-.12217-3.97202-.41316-7.69942-.64664z" fill="#c22f29" stroke="#c22f29"/><path d="m928.64278 486.3133c0-7.49261-.23869-8.21823-3.8177-11.60581-6.51697-6.16841-12.71479-8.01978-15.99001-4.77642-1.18744 1.17589-1.7023 1.07944-2.58494-.4842-.60619-1.07389-3.21629-2.30972-5.80022-2.74627s-4.69806-1.31637-4.69806-1.95516c0-.63878-1.98226-.99064-4.40503-.7819-2.98006.25674-4.36703-.0941-4.28757-1.08468.0646-.8053.19676-2.5214.29367-3.81354.0969-1.29215 1.23341-3.40656 2.52556-4.69871 1.29214-1.29214 2.34935-3.14225 2.34935-4.11136s.49261-1.76202 1.09468-1.76202c2.72455 0 5.88468-7.02953 6.64986-14.79223.52025-5.27791 1.50136-8.7894 2.80697-10.04642 1.31001-1.26125 2.26566-4.7004 2.75134-9.90146.40928-4.38294 1.28381-8.50863 1.94338-9.16821.65958-.65957 1.19923-3.1921 1.19923-5.62783 0-3.55857.69232-4.94046 3.52403-7.03403 1.93821-1.43298 3.52402-3.22226 3.52402-3.97616 0-1.96693 7.11251-7.58486 9.60273-7.58486 1.15598 0 4.85742-2.90732 8.22542-6.46071 3.368-3.5534 6.73151-6.46072 7.47447-6.46072 2.25588 0 5.23896-4.11646 5.23896-7.22946 0-1.61321-1.32151-4.17459-2.93669-5.69198-1.61518-1.51738-2.97533-3.85609-3.02255-5.19713-.0472-1.34104-1.0986-4.02407-2.33642-5.96229-2.38524-3.73491-2.8207-4.62413-3.91026-7.98476-.37649-1.16126-2.25572-2.65912-4.17605-3.32854-1.92034-.66944-3.85435-2.3603-4.2978-3.75748-.44344-1.39719-1.63445-3.14591-2.64668-3.88608-1.54902-1.13267-1.59218-1.64484-.27257-3.23487.86232-1.03901 2.29155-1.88912 3.17607-1.88912.88453 0 2.26846-1.05721 3.07542-2.34935.80695-1.29215 2.0062-2.34935 2.66498-2.34935.65877 0 2.51389-1.18936 4.12247-2.64303 2.35568-2.12881 4.06736-2.57904 8.79806-2.31422 12.32785.69012 16.16235.34735 18.35967-1.6412 1.20844-1.09363 2.19716-2.67394 2.19716-3.51181 0-.83788 1.95988-3.42682 4.35529-5.7532 3.9123-3.7996 4.19998-4.47847 2.82842-6.6747-.91015-1.45738-1.07971-2.73716-.41977-3.16848.60889-.39796 1.73342-1.91293 2.49894-3.36659.97074-1.84335 2.45699-2.64302 4.91229-2.64302 1.93624 0 5.41812-.79291 7.73752-1.76202 2.31941-.9691 5.67362-1.76201 7.45383-1.76201s3.9405-.84798 4.80064-1.88439c.86011-1.03641 2.77501-2.34483 4.25521-2.90761s2.6913-1.92385 2.6913-3.02459c0-1.10075.6348-3.75685 1.4106-5.90245 1.1403-3.15324 2.041-3.9011 4.6988-3.9011 2.9366 0 3.288-.41423 3.288-3.87643 0-6.03349 1.9783-7.09826 6.6159-3.56095 5.7951 4.42012 7.0892 3.21886 8.0343-7.45789.7528-8.50412 1.1599-9.58914 5.416-14.43394 2.5311-2.88124 4.6288-6.05066 4.6615-7.04317.5893-17.88646 1.4061-22.95538 4.2424-26.32606 2.1399-2.54322 2.7515-4.31945 2.2446-6.51983-1.5862-6.88631-1.9394-15.16313-.6803-15.94131 1.6324-1.00886-.6876-4.11579-3.0733-4.11579-.8901 0-1.6182-.81501-1.6182-1.81112 0-2.97629-4.0807-6.47733-7.1536-6.13744-2.3099.25551-2.8996-.28159-3.2029-2.91719-.2084-1.81144-1.0952-3.23036-2.0188-3.23036-.9815 0-1.3739.71206-.971 1.76202.3719.96911.3276 2.67052-.099 3.7809-.6305 1.64316-2.075.63542-7.761-5.41461-3.8425-4.08843-6.9864-8.14997-6.9864-9.02562 0-.87566-1.0536-2.156-2.3414-2.84519-1.488-.79634-2.6215-3.00479-3.1099-6.05899-.7054-4.4111-1.2743-5.03749-6.9259-7.62489-3.64976-1.67089-6.4049-3.76498-6.76493-5.14176-.52518-2.00828-1.61637-2.32061-8.05912-2.30675-9.85545.0213-12.13962.75157-14.03595 4.48795-.87413 1.72227-3.05404 4.50007-4.84426 6.17288-1.79021 1.67281-3.25493 3.46231-3.25493 3.97667 0 2.12751-5.75379 5.92619-9.44301 6.23432-4.71851.39409-8.17713 3.1953-8.17713 6.62282 0 1.3631-1.09245 4.51662-2.42766 7.00784-2.04955 3.82401-2.30237 5.69942-1.62324 12.04104.48685 4.5461 1.67712 8.62102 3.015 10.32185 3.34999 4.25882 2.90861 8.47056-.99023 9.4491-1.9328.48511-3.36763.30288-3.62191-.45999-1.20046-3.60135-8.44807.75688-8.44807 5.08011 0 2.7212-2.80459 5.40331-5.65005 5.40331-1.26162 0-3.70499-1.85011-5.42973-4.11136-1.72474-2.26126-3.72813-4.11137-4.45196-4.11137-.72384 0-2.21547-.81394-3.31473-1.80875-1.66502-1.50683-4.09872-1.67298-14.57967-.99538-12.05069.77911-12.68526.95438-15.05388 4.15811-1.36007 1.8396-3.36794 3.34472-4.46192 3.34472-2.90987 0-9.31588 7.04465-9.31588 10.24461 0 3.12504 3.01594 4.82946 5.01259 2.8328 2.97058-2.97058 5.07701-1.42111 6.32052 4.64931.98001 4.78409.90894 6.10124-.35536 6.5864-1.07173.41126-1.58035 2.79111-1.58035 7.39453 0 3.73675-.7888 8.30056-1.75477 10.15274-.96513 1.85055-1.77353 4.68615-1.79645 6.30132-.0229 1.61518-1.56901 4.61489-3.43576 6.66603-3.29313 3.61841-3.59056 3.70267-10.00043 2.83283-4.68269-.63546-7.10525-1.60878-8.3197-3.34265-.94234-1.34538-3.43066-2.80938-5.52959-3.25332-4.71738-.99778-9.77146-5.28735-7.72204-6.55395 1.86837-1.15472-.8589-4.57167-3.6489-4.57167-1.08956 0-3.0071-.77609-4.26121-1.72466-1.2541-.94855-4.00949-1.74145-6.12308-1.76201-6.80273-.0661-16.71394-8.33757-16.71394-13.94868 0-3.41809-3.03549-9.95063-5.77641-12.43112-1.65274-1.4957-2.44632-3.64733-2.44632-6.63264 0-2.43033-.55871-4.60499-1.24157-4.83262-.86701-.28901-.87568-2.0018-.0287-5.6776 1.4759-6.40539 1.63074-14.07381.28416-14.07381-.54237 0-1.5592-1.25777-2.25963-2.79504-1.35904-2.98277.32493-10.0248 3.04855-12.74841.75454-.75455 1.37188-2.32337 1.37188-3.4863s.49184-2.11442 1.09298-2.11442c.60113 0 1.26214-1.18936 1.46891-2.64302.2639-1.85538 1.0759-2.56 2.72472-2.36446 5.1559.61148 7.63482-.77444 7.63482-4.26848 0-1.84679-.7929-4.01586-1.76201-4.82015s-1.76201-2.3491-1.76201-3.43292-.63433-2.60491-1.40961-3.3802c-1.09637-1.09636-1.07316-1.40961.10444-1.40961 1.1254 0 1.41186-2.03535 1.11594-7.92906l-.39811-7.92906 3.533-.34686c2.88767-.28351 3.92718.3204 5.69094 3.30622 1.18686 2.00919 3.44505 4.23953 5.0182 4.95631 2.54025 1.15741 3.35476.82036 7.28003-3.01255 4.53077-4.4242 7.25739-5.4788 7.25739-2.80704 0 .82981 1.54948 2.42405 3.4433 3.54275 3.36325 1.98673 3.51572 1.9669 6.55821-.85279 1.71319-1.58774 4.49597-3.04983 6.18394-3.24909 2.36545-.27923 3.89156-1.87562 6.65689-6.96352 1.97333-3.63068 4.3073-7.45579 5.18661-8.50023 1.06547-1.26553 1.35666-3.37372.87296-6.320188-.39919-2.43166-.91233-7.08482-1.14032-10.34035-.36839-5.26058-2.61222-11.1174-4.25697-11.11152-1.35243.005.35381-14.73784 1.99569-17.24367 1.03717-1.58291 1.48369-3.87636 1.07317-5.51201-.60095-2.39436-.19327-2.90313 2.8072-3.50322 2.97641-.59528 3.51024-1.24686 3.51024-4.28452 0-2.82659.68159-3.84222 3.23036-4.81354 1.7767-.67709 4.55187-.96915 6.16705-.64903 3.23163.64051 6.18598-1.0529 7.37765-4.2288.9436-2.51476 5.03894-2.71626 5.96858-.29366 1.21551 3.16757 5.6553 1.8573 10.88715-3.21301 2.82343-2.73627 5.13352-5.63001 5.13352-6.43056 0-2.25051 5.76934-4.711068 13.23256-5.643535 3.72317-.46518 8.03483-1.841168 9.58146-3.057754 1.54664-1.216585 3.86502-2.211974 5.15194-2.211974 1.33736 0 4.86973-2.768064 8.24461-6.4607166 3.24759-3.553395 6.35552-6.460717 6.9065-6.460717.55097 0 2.97109-1.912794 5.37803-4.250653 3.05406-2.966391 4.81824-3.9158 5.83913-3.142356.80458.609564 3.79364 1.775899 6.64237 2.591856 5.51742 1.580349 8.32237 3.660645 8.34029 6.185592.0189 2.669798 6.79937 13.5288806 10.03818 16.0765306 2.73014 2.147528 2.99942 2.978007 2.30272 7.101727-.91565 5.41971.90277 7.6385 8.39922 10.24859 7.6926 2.67836 9.7904 1.75775 9.7904-4.29646 0-3.53813 2.2565-3.89451 3.5255-.5568.9828 2.58505 1.7873 3.02251 4.9902 2.71371 5.0043-.48249 5.4727-3.61554 1.7145-11.46845-1.5616-3.262875-2.5199-5.936625-2.1297-5.941666 1.1614-.015 3.6463-6.126898 3.6463-8.9684836 0-1.449741 1.1296-3.427107 2.5102-4.394147 1.955-1.369337 2.3563-2.528047 1.8143-5.238411-.5976-2.987623-.2878-3.582615 2.1884-4.204113 1.5865-.398176 2.8845-1.518125 2.8845-2.488775s1.3215-2.3669384 2.9367-3.1028634c1.8279-.832847 2.9367-2.306902 2.9367-3.904121 0-2.449143 3.2492-6.454225 5.2361-6.454225.5169 0 3.0228 1.881822 5.5686 4.181826 4.9089 4.434914 7.5078 4.792445 9.6262 1.324291 1.0473-1.71457.8185-2.52549-1.1744-4.163609-1.8547-1.524402-2.3385-2.964548-1.9304-5.745353.4998-3.405467.8301-3.653931 4.0114-3.017676 2.8471.569419 3.582.252284 4.112-1.774356.5666-2.166669.8551-2.257888 2.3653-.747777.9459.945959 2.6072 1.736735 3.6917 1.757281 3.0078.05699 6.0831 2.875777 6.0831 5.575778 0 4.209299 1.3384 6.133623 4.2661 6.133623 1.9486 0 3.1906-.921844 3.9566-2.93669.9224-2.425979 1.8979-2.93669 5.6094-2.93669 2.4711 0 5.0021-.509297 5.6246-1.13177.7259-.725911 2.8111-.533778 5.8147.535778 2.5755.917151 6.1524 1.69075 7.9486 1.719108 1.7962.02836 6.4055 1.373071 10.243 2.98825s7.8239 2.93669 8.8586 2.93669c2.328 0 5.2375-2.788673 5.2375-5.020076 0-.915122 1.0868-2.64738 2.4151-3.84946 1.9891-1.80009 2.815-1.935801 4.6827-.769399 4.3082 2.690487 9.3477.590134 9.3477-3.895905 0-1.075741 1.0572-2.232359 2.3493-2.570261 1.5204-.397581 2.3494-1.602277 2.3494-3.414055 0-2.277868.6081-2.799686 3.2629-2.799686 3.6213 0 6.8868-3.136565 8.7097-8.365756 1.5392-4.415205 3.6535-4.26537 9.4162.667283 6.4121 5.488506 10.8451 6.375861 14.5349 2.909456 1.9214-1.805005 2.8406-3.957746 2.8406-6.652391 0-4.358596 1.7607-8.528082 3.6012-8.528082.6431 0 2.7937 1.850115 4.7791 4.111366s4.3894 4.111365 5.3422 4.111365c.9529 0 3.764 2.114417 6.247 4.698704 2.9781 3.099668 5.5452 4.698703 7.5433 4.698703 1.6658 0 3.0288-.528604 3.0288-1.174676 0-.646071.7929-1.174675 1.762-1.174675s1.762.528604 1.762 1.174675c0 .646072 1.5858 1.174676 3.524 1.174676s3.524-.468607 3.524-1.041351c0-1.141832 5.9887-2.580494 10.4761-2.516676 1.5624.02221 3.8214-.847179 5.0201-1.931994 1.6708-1.512072 2.502-1.649894 3.5613-.590537.7601.76002 2.2515 1.381855 3.3143 1.381855 2.2907 0 5.813-3.599146 5.8384-5.965875.043-3.979424 2.0439-5.002111 9.2766-4.741111 5.817.209917 7.1509-.08508 7.1509-1.581476 0-1.533897.7335-3.264572 3.202-7.554751.1459-.253584 1.0642.202007 2.0407 1.012424 2.3991 1.991076 5.0622.776386 5.532-2.523216.2116-1.486567 1.3226-2.881633 2.469-3.100146 1.8019-.343495 1.9853.221059 1.354 4.168922-.6939 4.339365-.4181 4.868429 5.5512 10.649231 3.4547 3.345657 7.1498 6.089528 8.2113 6.097491 1.0615.008 2.2343.807385 2.6062 1.776493s2.002 1.762014 3.6226 1.762014c1.8467 0 3.6647 1.09615 4.8707 2.93669 1.0583 1.615179 2.6563 2.936689 3.5511 2.936689s1.6269.936769 1.6269 2.081709c0 2.675925 6.6996 10.839726 8.8956 10.839726.9221 0 1.6765 1.057208 1.6765 2.349352 0 1.292143.5286 2.349351 1.1747 2.349351.646 0 1.1746.883435 1.1746 1.963188 0 1.079754.8553 2.908219 1.9006 4.063255 1.0453 1.155038 2.2542 3.839681 2.6865 5.965875.598 2.9413594 1.4778 3.9616454 3.6792 4.2665774 4.0088.555307 6.7338 3.286571 7.6327 7.650096.4187 2.032742 1.9393 5.546007 3.3792 7.807258 1.4398 2.2612506 2.9607 5.0364226 3.3797 6.1670476.4191 1.130626 1.7385 2.055683 2.932 2.055683s3.808 1.850115 5.81 4.111366c2.002 2.261255 4.4779 4.111365 5.5022 4.111365 1.0242 0 1.8622.40391 1.8622.89757 0 1.04488 8.6734 4.97581 10.9788 4.97581.8609 0 3.5047 2.09614 5.8751 4.65809s5.0137 4.38801 5.8739 4.0579c.8602-.33009 2.2421.21679 3.0707 1.2153 1.7009 2.04945 8.9009 2.46634 10.065.58276.7977-1.29065 6.4249 3.95737 6.4249 5.99193 0 .61278 1.4801 1.11416 3.2891 1.11416s3.7912.48746 4.405 1.08326c1.9031 1.84741 9.5694 2.79338 10.4954 1.29506.9869-1.59669 5.304 1.77205 5.304 4.13878 0 2.17634 2.9824 2.9096 8.6658 2.1306l5.0865-.69718.7731 4.8348c.4252 2.65915 1.2955 4.83482 1.9339 4.83482.6877 0 1.1608 4.81362 1.1608 11.80907 0 10.65506.2865 12.23066 2.9314 16.12298 1.6122 2.37263 3.2716 6.878768 3.6875 10.013628.5966 4.49806 1.3278 5.91712 3.4679 6.73077 3.9561 1.50414 5.8926 5.25823 8.1599 15.81935 1.5392 7.16945 2.8181 10.19632 5.3942 12.76716 1.8572 1.85335 3.3767 4.57681 3.3767 6.05213 0 2.73075 4.6184 5.26157 9.6017 5.26157 1.3186 0 2.6926 1.28738 3.4223 3.20645.6705 1.76354 1.6239 3.48151 2.1186 3.8177 1.327.90169 4.8269 8.34467 4.8269 10.26496 0 .91156-1.5858 2.99175-3.5241 4.62265-1.9382 1.6309-3.524 3.93145-3.524 5.11231 0 1.18088-.4155 2.32324-.9234 2.53861-1.8956.80377-6.1246 7.89099-6.1246 10.26396 0 1.75868-.7548 2.47236-2.6431 2.49904-5.5923.0791-6.7544 2.36852-6.7544 13.30725 0 8.48564.3743 10.52322 2.2839 12.43275 2.8671 2.86714 4.3681 10.29577 2.6396 13.06361-.7995 1.28012-1.1312 7.16737-.8819 15.64969.3185 10.83236.8619 14.38082 2.6721 17.44901l2.2724 3.85144-3.218 3.40948c-4.0252 4.26478-5.0177 8.79579-2.5327 11.56329 2.6495 2.95069 3.1242 19.65566.5586 19.65566-.9751 0-2.4071.86727-3.1822 1.92726-.8146 1.11407-3.3474 2.036-6.0029 2.18502-2.5265.14179-4.8579.39731-5.1809.56785-.3231.17054-3.3035.19948-6.6233.0643-3.342-.13609-6.3875.32314-6.8237 1.02892-1.1976 1.93784-7.4013 1.52274-10.8314-.72475-2.9737-1.94845-3.1161-1.91848-5.5825 1.17468-1.392 1.74576-3.6357 3.17412-4.986 3.17412-4.6586 0-5.6688 3.02495-5.8473 17.50963-.092 7.49061-.5453 20.22683-1.0066 28.30273-.7231 12.6609-1.2282 15.29022-3.6665 19.08848-1.6545 2.57737-3.763 4.40504-5.0818 4.40504-2.0657 0-8.2203-6.6751-11.2999-12.25559-3.6181-6.55615-10.2303-3.90991-12.4716 4.99119-1.4116 5.60601-10.4676 16.66185-13.648 16.66185-.8973 0-3.2122-1.12555-5.1441-2.50122-3.0815-2.19418-4.4736-2.40294-11.3408-1.70058-4.3054.44036-8.3303 1.30161-8.944 1.91389-.6138.61228-3.6533 1.11324-6.7544 1.11324-3.1012 0-5.6385.5286-5.6385 1.17467s-1.7179 1.15787-3.8177 1.13732c-4.0005-.0391-7.929-2.24682-7.929-4.45585 0-1.80025-4.4586-4.0166-6.0729-3.01887-.7291.45062-3.4184 1.00782-5.9762 1.23821-5.6075.50509-6.6261 1.06673-7.8681 4.33839-.9469 2.4943-.9715 2.48961-2.1715-.41387-.6675-1.61518-1.5044-3.86175-1.8597-4.99238-.3734-1.18813-1.8062-2.05568-3.3951-2.05568-1.5119 0-5.8214-1.85011-9.5766-4.11136-7.6612-4.61338-7.99-4.69032-11.2934-2.64302-1.9328 1.19781-2.5579 1.16517-3.3933-.17723-.7665-1.23174-2.5572-1.46397-7.1209-.92347-5.0917.60303-6.9419 1.541-11.2221 5.68908-2.8189 2.73184-5.2808 6.00075-5.471 7.26422-.1902 1.26349-1.2651 2.8735-2.3887 3.57782-1.6323 1.02315-2.3942.77908-3.7903-1.21416-.9611-1.3721-3.2104-2.86193-4.9986-3.31073-4.2707-1.07189-6.201-2.76754-6.201-5.44727 0-3.06672-5.7427-4.42758-7.654-1.81379-.7783 1.06438-1.8602 1.93524-2.4043 1.93524s-2.6568 1.6162-4.6948 3.59156c-2.9393 2.84883-5.0648 3.73183-10.2786 4.26994-4.8185.49731-7.2696 1.41992-9.1829 3.4565-1.4354 1.52796-3.4428 2.79492-4.4608 2.81546-2.0651.0417-5.9623 2.67873-5.9623 4.03445 0 .48186-1.2809 1.8837-2.8465 3.11518-3.5446 2.7882-4.9593 8.5844-2.9923 12.25985 1.5848 2.96106.3374 5.13204-3.8624 6.72247-1.1362.43027-2.6748 2.11865-3.4189 3.75197-.7442 1.6333-2.0312 2.96965-2.86 2.96965-2.0206 0-5.1641 4.63808-5.1641 7.61945 0 1.74232-1.6862 3.18907-6.167 5.29115-3.3919 1.59124-6.8278 3.5284-7.6354 4.30479-1.9 1.8266-1.9078 9.45989-.011 10.09238.9241.30803.01 2.02485-2.5055 4.68811-2.9366 3.11334-5.1405 4.31433-8.5061 4.6353-2.4981.23825-4.5423.0228-4.5423-.47885 0-.50163-.7801-.91205-1.7336-.91205s-3.4644-1.05524-5.5797-2.34496c-5.7502-3.50588-8.8723-2.99274-14.0733 2.31311-4.1419 4.22536-4.4989 5.07051-3.7742 8.93379.7449 3.97057.641 4.18156-1.4959 3.03791-1.8451-.98745-2.9043-.66543-5.3887 1.6383-1.7008 1.57702-3.8264 2.86731-4.7235 2.86731-1.6717 0-5.5194 3.60328-5.5194 5.16877 0 .47983-.7919 1.6643-1.7597 2.63215-1.5632 1.56318-2.124 1.50034-5.0212-.5626-1.7937-1.27728-5.3628-5.25317-7.9313-8.83532l-4.67-6.51299-7.6941-.0564c-4.2318-.031-8.1963.44551-8.8101 1.05893-1.2344 1.23372-8.7513-1.86826-8.7513-3.61137 0-2.22557-5.9991-.85402-9.6502 2.20626-7.8672 6.59422-13.7407 10.8619-14.9491 10.8619-.684 0-1.2436.49057-1.2436 1.09015 0 .59959-2.8724 1.44904-6.3832 1.88769-3.7632.47018-6.641 1.46919-7.0112 2.43388-.4072 1.06114-2.4746 1.63634-5.8815 1.63634-2.8895 0-5.5964.55471-6.0155 1.2327-.4622.74785-1.8361.0734-3.4932-1.71451-1.5022-1.62096-4.0979-3.2902-5.76816-3.70939-1.67025-.41921-3.03681-1.23349-3.03681-1.80953 0-1.65425-5.16275-1.22177-9.14799.76632-1.99955.99751-5.30829 3.37623-7.35275 5.28604l-3.71721 3.47239h-23.95663-23.95662v-7.99229z" fill="#2276a2" stroke="#2276a2"/></g><g stroke="#2276a2"><path d="m-75.814992 227.88859c5.287986 27.89099-11.97229 54.99936-38.551908 60.54824-26.57961 5.54888-52.41341-12.56297-57.70139-40.45396-5.05558-26.66517 10.51644-52.85989 35.56214-59.8214" fill="none" stroke-width="2.487045" transform="matrix(-.21137114 -4.0831407 3.9451341 -.27714525 -856.42528 217.84818)"/><path d="m-75.814992 227.88859c5.287986 27.89099-11.97229 54.99936-38.551908 60.54824-26.57961 5.54888-52.41341-12.56297-57.70139-40.45396-5.05558-26.66517 10.51644-52.85989 35.56214-59.8214" fill="none" stroke-width="3.104366" transform="matrix(-2.3259681 -2.2412968 2.3023596 -2.2426399 -731.26814 909.46583)"/><g fill="#2276a2" stroke-width="5"><path d="m-51.233414 892.14575h305.70862v4.182834h-305.70862z"/><path d="m165.30609 849.25525h231.091v4.182834h-231.091z"/><path d="m282.17267 759.56213h160.03545v3.132711h-160.03545z"/><path d="m-232.88527 759.03723h163.56314v4.182834h-163.56314z"/><path d="m-302.99319 803.40662h268.3374v4.182834h-268.3374z"/></g></g></g></svg>