<svg enable-background="new 0 0 330 200" height="329.88" viewBox="0 0 306 329.88" width="306" xmlns="http://www.w3.org/2000/svg"><g stroke-width=".28957" transform="matrix(3.4534 0 0 3.4534 -139.91 -149.8)"><path d="m93.653 56.127c.18426.28386.42514.53386.45054.81901.27017.83399 1.0397 1.3301 1.1328 2.183.0319.27994.40234.39192.59376.51953.20702.26367.0657.5638.46614.95963.1862.11973.0411.42318.0775.70442.1836.12494.38477.24806.57357.37306 1.7207 2.6979 1.8893 5.8333-.10933 8.7383-.32357.31836-.62825.77474-.75977 1.2187-.15755.15951-.49154.33204-.66015.48894.0391.28646.22525.4095.43489.67578-.86458.22722-.96224.94856-1.6243 1.4447-.1771.0107-.52606.0456-.70314.0612-.48372.47982-.99609.66666-1.4987 1.0026-.15429.15755-.112.58072-.0964.72396-.82031.64777-2.0215 1.0482-3.2747 1.0215-.17579.0176-.30535.45703-.48047.47331-.88737.0865-1.9577.0429-2.8405.12493-.3685-.11133-.57554-.37305-.94727-.48437-.35157.0357-.70183.0657-1.0703-.0397-.57812-.37956-1.3014-.45181-1.8659-.6862-.36784-.112-1.0397.23828-1.4238-.009-1.1901-1.0352-2.3639-2.069-3.0228-3.153-.43035-.67317-1.1719-.89388-1.4245-1.5833-.03-.28451.10226-.72331-.26563-.83528-.73762-.2155-.43294-.67319-.48308-1.0983-.22069-.40431-.25194-.6888-.65169-1.084-.22851-.4056.0632-1.0059-.17317-1.5573-.012-.14063.14974-.30208.13346-.44076-.27538-.83268.16471-1.7331.0892-2.4408-.0547-.42318.0612-1.0078.19076-1.4486.4388-.90169.85547-1.9408 1.6445-2.8756-.0156-.13867-.0456-.42058-.0592-.5625.1595-.16081.33723-.17448.49414-.33594.27994-.73958.5703-1.3398 1.0345-1.9531.63022-.7741 1.6244-1.4401 2.4323-2.2331.47721-.47461 1.1556-.82097 1.6016-1.5846.16732-.15495.72721.0795.89128-.0775.4785-.47525 1.1986-.40038 1.6992-.73437.49869-.33008.40039.39063.91211.19988.35482-.0339.51433-.18881.84896-.36849.51628-.18946 1.0964.18358 1.64.27864.528-.0495 1.071.0436 1.651.41928.76953.49804 2.5345.32942 2.8164 1.3079.4323.67123 1.1966 1.1758 1.6263 1.8476z" fill="#be1135"/><g fill="#2e86d0"><path d="m123.53 67.325c-.0156-.44075 0-.70963-.17448-1.1784-.0501-.4388.30012-.92968.14973-1.5352-.10026-.16146-.32552-.35548-.29622-.49349.29622-.92579.31901-1.7786.24609-2.791-.0723-.3047-.17512-.46876-.27539-.63478.0208-.13606.0729-.4095.12307-.68033.0253-.85091-.24936-1.4805-.4974-2.25-.0755-.29753-.30469-.49089-.35352-.92839-.0976-.16536-.32291-.36068-.30013-.49478.22526-1.235-.37564-2.2227-.55274-3.3984-.27213-1.3451-1.5449-2.194-1.9473-3.5632.0176-.13607.43685-.0795.56381-.0495.99479.93099 2.0976 2.0241 2.3776 3.3691.17252.46811.0976.87631.30273 1.2051.84115 1.0404.99415 2.3548 1.1439 3.6712-.0248.13932.2526.0527.34766.22331-.0156.1341-.0677.40689.0325.57356.64843.71224.25 1.4766.375 2.2174.0775.30469.17317.46419.27343.63021-.0253.13932-.34831.49804-.37564.63216.52798.68555.75325 1.5885.60481 2.4089.60091.2806.33008 1.0696.47071 1.6745.10093.16601.23046.194.35546.21353.17318-.24023.3431-.48893.39779-.76432.0755-1.1237.12307-2.1061-.0801-3.1458-.16992-.46876-.22916-.90494.10093-1.2624-.25064-.0567-.33007-.35677-.42577-.52539-.45248-1.806-.63478-3.8333-1.1712-5.6849 0 0 .14519-.1048.17513-.24348-.19141-1.6166-1.4193-3.1413-2.0111-4.7741-.0885-.29297-.5638-.64193-.78516-.95052 0 0 .0143-.14128.03-.27994.63476.086 1.1133.69792 1.4518 1.1712.65495.93424 1.4147 1.972 1.6146 3.0143.34765.93034.86392 1.9102 1.0762 2.8203.13607.60547.57292 1.0006.86589 1.502.16211.47071.082.87695.12374 1.319.17513 1.0443.49609 2.0586.69596 3.1003.2474.76628.35417 1.6419.10026 2.3021-.3457 1.2057.44987 2.5221.77279 3.5898.18033.46744-.0481.98697-.24544 1.3711-.0208.13411.19727.33008.16992.46159-.22005.52408-.0429.99023-.14257 1.5384-.14779.10867.16992.46354 0 .70703-.14779.114-.27084.0865-.4297.19596-.19401.38412-.0189.85027-.0976 1.2604-.40104.76626-.19141 1.8079-.94206 2.3561-.27734.082-.30274.22069-.45507.33006.12493.0293.22785.19272.32552.35678-.14779.1068-.27279.0795-.42123.18945-.054.27475.48047.61133.58008.77084-.20442 1.1029-1.0182 2.0579-.9987 3.3502-.0449.27279-.12694.68099-.16992.95704-.2526.6608-.73047 1.1244-.98047 1.78-.0411.27279-.57161.30468-.62369.58203-.32358.35026-.29102.92838-.52019 1.4492-.17123.24545-.55143.16407-.85156.38217-.34571.49154-.29817.93164-.51823 1.4512-.38021.63412-.83269 1.3099-1.2064 1.9375-.42514.9056-1.1413 1.7793-1.9147 2.4642-.1276-.0253-.4004.0567-.55079.16341-.39518.76953-.85481 1.347-1.7038 1.7285-.1296-.0201-.31185.57096-.45899.68033-.58658.4388-.92578.93099-1.6335 1.3425-.26627.086-.41406.19401-.70963-.30014-.92188 1.6465-2.1641 2.9342-3.513 4.0573-.70442.4121-1.416.36653-1.8828.82877-1.5332 1.5104-3.9674 3.1113-4.2494 3.3366-.11586-.0319-.58268.66862-.58268.66862-.49544.0436-.20833.0865-.67057-.0195 0 0-.0208.77538-.64323.90234-1.3203.26172-1.668 1.793-1.7676 2.4277-.0527.31054-.27604.0951-.43034.22461-.14322.12827-.0404.3164-.19792.44531-.57356.35352-1.0618 1.0566-1.5404 1.599-.15169.12626-.2474-.0651-.39778.0691-.1504.12306-.84766.99478-1.1061 1.7565-.59766 1.3372-1.2526 2.5293-2.0833 3.474-.19986.22916.47135 1.1185.42123 1.4232-.19336.42057-.57357.48958-.75717.91276-.17578 1.0482-.22266 2.2122-.40104 3.3229-.30012 1.0807.0749 1.8516.2168 2.8157.16601.81446-.0411 1.8633 0 2.6504.0592.63672.49024 1.3327.41862 1.9492.0248.94922-.19141.82161.0136 1.6198-.0273.46354-.18229.92578-.0755 1.2467-.0364.62045-.13412 1.0104-.16863 1.6309-.13411.14779-.40495.44271-.41405.59831-.0951 1.558-1.1165 2.9297-2.1856 3.9557-.65495.42252-1.2285 1.0736-1.9883 1.0163-.38216-.0221-1.6465.7806-2.0703.88281-1.1211.3138-2.013.32098-3.0859.17319-1.183-.32553-2.125-.61849-2.9414-1.8333-.48046-.53972-1.317-.3366-1.6315-1.1667-.0905-.33008-.77279-.49611-.88932-.67188-.61915-.55924-.94858-1.2324-1.4128-1.9245-.3138-.82748-.0885-1.3965-.46615-2.1992-.38607-.48959-.55469-.83986-.9388-1.3307-.51693-.65494.11587-1.5964-.26172-2.2454-.26368-.17319-.52409-.50066-.64909-.82098-.24804-.63672-.18815-1.5651-.57031-2.2428-.20704-.81186-.0755-3.7468.084-4.5384.0293-.16081-.42513-.38152-.403-.54297.0637-1.1406.45964-2.248.36849-3.4219.11654-.6302.0639-1.14.63476-1.6784 0 0-.27213-.21874-.24349-.3776.33269-.91861.33269-1.6243.51497-2.582.0287-.15626.36068-.25.38803-.41147-.18164-.69791-.1862-2.1159-.0657-2.7506.0619-.31316.8737-.78712 1.0671-1.071.0273-.15624-.1204-.56446.1862-1.1126.0781-.13412.29362-.0951.45116-.22265.0221-.15951-.0795-.34766-.0508-.5026.0775-.47527.87826-.82098.93815-1.1354.31316-1.0775.85483-1.526 1.4219-2.4023.20377-.38608.2832-.79557.61784-1.153.14779-.1068.22591-.004.24804-.14062.0248-.13672-.0456-.4414-.0221-.57292.3177-.36003.7565-.68815.82748-1.099.22525-.52148.41601-.9056.73306-1.2643.58855-.4375 1.1751-.87891 1.5365-1.5039.31445-.36003.68034-.27408 1.0013-.63281.45964-.46615.58464-1.151.92839-1.6445.80729-.96224 1.681-1.6198 2.5612-2.2773.72787-.55079 1.6582-.76888 2.3659-1.1797.72983-.54688 1.1693-1.5905 1.877-2.002.4362-.33008.94987-.35483 1.3919-.68555.44076-.32682.80535-.95704 1.4622-1.0957 1.4583-.38738.41601.0248 1.7812-.52344.85287-.51888.49544-.66342 1.3555-1.1849 1.4128-.82877 2.1471-1.3496 2.2682-1.3197.14518-.11134.29166-.22006.34114-.49544.3392-.49415 2.1543-1.7637 2.4225-1.8457.26822-.0833.58398.27084.89908-.0833.16993-.2461-.16862-.4694 0-.71484.46354-.46355.9069-1.0944 1.362-1.4238.14323-.1068.50066.11.77344.028.14779-.10813.19596-.38543.34831-.48699.17512-.25-.15235-.60806.0221-.85546.20247-.38476.39844-.76432.67578-.84636.42513-.19596.99609-.49348.92578-.79427.0957-.55013.31836-1.0742.8991-1.3737.0201-.13478.0495-.27735.0723-.40951.32096-.35743.6211-.57292.95312-.93295.33855-.49284.19402-1.0963.39323-1.4805.65104-.71224 1.2748-1.2852 1.4466-2.2448-.0495-.4362-.32226-1.071-.1244-1.4544.17514-.2448.72527-.41081.77475-.681.10093-.55208-.17448-1.1816-.20183-1.7565.0755-.41016.52083-.74024.47331-1.1764-.0508-1.1556.0273-2.2793-.15039-3.4577.39583-.0527.45052-.32747.4987-.60286-.1028-.8763-.60091-1.6947-.82423-2.6042-.0248-.57356.44401-1.0397.42384-1.6133-.0508-.4388-.47136-.95964-.92644-1.3444-.42317-.52084-.14973-1.3118-.30013-1.9173-.12307-.73959-.67578-1.2897-.77083-2.1634-.0521-.4414-.58073-.41211-.75325-.87826-.15235-.60286-.29819-1.2051-.29819-1.9193-.0768-.30014-.47721-.2461-.70312-.43751-.50195-.82291-.32161-2.4928-1.4277-2.877.0996-.54882-.39388-.6582-.57552-1.1217.65038 0 1.2506.27344 1.6237 1.0677.1048.16342.47592.24479.60352.27475.32683.35481.29948 1.2051.65235 1.4258.44792.38022 1.1217.24415 1.2943.70964.2526.76498.82552 1.179 1.1081 1.8112-.03.13346.0429.43359.14323.60026.45443.38541.5.82161.82356 1.1784.74609.8737 1.5032 1.7565 1.1504 2.9596-.21811.52344.45312.38216.64843.70963.50781.82617.30274 1.9219.95573 2.6322-.12307 1.3984.55079 2.6908.97787 3.9186-.72527 1.1263-.32487 3.0937.25065 4.2155 0 0 .39973-.0527.42968-.1888.11853-.68424 1.3666-.91407 1.1647-1.2422-.24805-.76888-.62565-2.3724-.62565-3.0827.0781-1.1256.12493-2.112-.0547-3.291-.0976-.16603-.19791-.32943-.29361-.49349-.15235-.60287-.30014-1.2083-.17774-1.8906-.0749-.30273-.30208-.49609-.375-.79167.0253-.14062.0729-.41341.10027-.54817.27475-.084.62371.13476.86849.1914.23243.19076.03.57096.13214.73763.39844.6595.9987.9349 1.1237 1.6712-.0248.13607-.0749.41147-.0951.54754.0951.87629.61913 1.5631.74609 2.3053.0521.4362-.32097 1.0658-.14584 1.5364.57097 1.1198.59636 2.4069.50716 3.6673-.10227.54819.5892.98568.38868 1.3698-.19011.38411.058.4388-.14713.82291-.0253.13672-.30079.21876-.32098.35483.37306.79686-.19336 1.9993-.31836 2.6875-.0228.13607.42514.28191.51628-.21809.0567-.30795.57552-.30339.84831-.38542.30469-.22266.52344-.74154.49805-1.3171m2.6888 2.7389c.0273-.69596.35287-1.2031.22787-1.9427-.24545-.76888-.81445-.007-1.2148.0501.22721.90298-.14779 1.5332-.42512 2.3223-.17123.25-.29363.93555.10226.87826.6302.14322 1.2923-.45639 1.3099-1.308m-1.0658 3.7539c.1582-.21875.0879-.66016-.14648-.85352-.34311-.21614-.79363.11133-.99415.49609-.19987.38412-.0521.98893.47787.95769.12306.0312.49089-.34766.66276-.60026z"/><path d="m117.81 50.44c.66341.50194.92317 1.3411 1.4551 2.0286l-.0573.2754c-.92317.79426-1.724-.5215-1.974-1.2897-.37565-.79623-.74609-1.5898-1.4238-2.1628.0228-.13932.0481-.278.0775-.41407-.32942-.35807-.74804-.87435-.32942-1.067.17448-.24544.48177.24805.82748.46028.52344.69076.62369 1.5625 1.4245 2.1693z"/><path d="m121.59 46.923c.0107.13868-.21354.375-.24349.50912-.4362-.40038-.86719-.80469-1.2487-1.4766-.11974-.0377-.37044-.0996-.46484-.27018-.1224-.0345-.0924-.16602-.0605-.30208.39779-.0391.70768.33202 1.0553.56314.12106.0352.27604-.0697.39778-.0377.33659.23568.528.57031.56446 1.0143z"/></g><path d="m65.201 72.146c.11787.0951.29752.2474.38932.375.20248.13213.41147.14778.63021.0521.20183.0136.39127.55077.60222.5664.29622.13932.48958.67317.7832.93099.19726.12893.40625.32032.61133.45442.27995.3659.46679.72527.76172.97527.194.25065.50976.16145.71875.17839.41016.14713.57552.73697.86522 1.1029.10414.009.28647.3711.27931.48698.19791.12893.38672.37044.6914.51172.0937.1276.082.35221.17579.47721.7526 1.2129 1.7415 1.9792 2.3815 3.2982 0 0 .082.23894.0795.35352.778.75522 1.1165 1.8171 1.7878 2.6771.18229.35743.35221.94662.52084 1.4193.19856.24804.39648.3776.58268.62826.28385.47916.55468 1.0801.61848 1.6582-.0163.22721-.16992.90494-.569.52734-.48438-.5-.43164-1.1803-.92774-1.5716.007-.112-.12493-.41212-.22526-.52735-.20052-.24218-.55729-.22786-.63672-.57422.0208-.3457-.36459-.625-.55924-.86392-.49609-.71224-1.2148-.97331-1.8106-1.6921-.10746-.004-.2168-.009-.32357.0996-.11387.22265-.4388.55273-.13607.91211.40495.2487.59571.71614 1.112.96874.30208.2461.3776.94011.5664 1.5228.19531.23373.39844.47267.70508.60677.30533.2409.18489.60483.4668.97592-.005.1152-.11853.21875-.1276.33398.1862.36198.60546.27734.89649.64649.22656-.21159.53124-.0384.71615.29167-.34376.3203-.25262.55468-.38478.89582-.35221.53711.44596 1.0619.94662 1.332.31576.028.27474.60156.57161.85156.17904.36198.69988.4043.98243.88932.0879.23438-.13027.33464-.25066.55079-.0319.34504.38216.49348.57552.62564.19987.13147.29167.36915.37826.60677-.319.0865-.93555-.34114-1.2494-.36522-.19401-.0899-.57096-.54428-.97331-.63152-.14192-.0312-.23437.30144-.3776.27149-.19596-.0345-.39648-.0775-.60352-.11133-.22005-.0416-.74804-.62631-.97786-.66016-.26107-.0456-.57812.43425-.82943.38868-.94465-.16147-.98372-.2194-1.2747-.34702-.35027-.13932-.68295-.30077-.99609-.4785-.19792-.10867-.14584-.37956-.33204-.50262-.1914-.1244-.60091-.12306-.79231-.24284-.75456-.45768-1.4668-1.5039-2.1107-1.8359-.42057-.22071-.778-.43749-1.2487-.66471-.23112-.14518-.39324-.46158-.68035-.55925-.88932-.29817-1.5964-.85937-2.6042-1.1419-1.9082-.54101-3.4987.55273-5.0501 1.3581-.0847-.005-.24806-.0163-.33464.0411-.35416.3021-.77995.47071-1.1309.70508-.47917.38216-1.1478.48178-1.6855.79623-.16732.0996-.18555.40691-.34702.50781-.25976.14714-.70768.17708-.95572.33464-.22266.14192-.25716.4108-.4733.57227-.44792.35937-.88478.65299-1.485.93749-.34571.17318-3.207.66407-3.6856.67058-.73893.0136-1.248.62044-2.3496.61653-1.6738-.009-3.3483-.0411-4.7402-1.0762-.28905-.25651-.34569-.94987-.54621-1.0827-.59767-.39127-.54103-1.1895-.70704-1.778-.20052-.1328-.61719-.16407-.58984-.51043.22786-1.7077 1.0723-3.2506 2.1094-4.4284.23828-.44335.77539-.63086.82096-1.2012 0 0 .93295-1.3054 1.4896-1.834.12493-.22005-.0585-.58204.0644-.80079.85286-1.6575 2.4062-2.7975 3.6641-4.3034.33724-.3164.57943-.75716 1.1055-.83072.21615.0143.41667.0325.53907-.18555.25064-.55535.694-.86524 1.0215-1.0697 1.2148-.82292 2.2318-2.0677 3.61-2.2949.21615-.10226.33854-.31641.55078-.41928.23373-.21093.62761.0528.84376-.0449 1.0273-.46419 1.9674-1.4603 3.0234-1.6035.21549-.0931.33658-.31641.43814-.30925.93686.0795 2.0456-.75129 2.9238.12893.79297-.16536 1.9779 0 2.4811.43099m7.1771 10.04c.001-.1152.004-.22916.0133-.34309-.41406-.25262-.59114-.94923-1.1094-1.0872-.10547-.004-.31707.10026-.32552.21353-.0221.68945.27083 1.1628.55989 1.7468.1224-.44987.43164-.43424.63476-.0853.10414-.10546.21615-.32878.22722-.44466z" fill="#359a3e"/></g></svg>