<svg height="890.58765" width="773.6181" xmlns="http://www.w3.org/2000/svg" xmlns:xlink="http://www.w3.org/1999/xlink"><g transform="translate(634.66868 -207.23547)"><path d="m133.94795 212.23547h-763.61663v515.83226h.002c0 .0605-.002.1215-.002.18201 0 200.80035 171.51594 364.57336 381.80881 364.57336 210.29337 0 381.80931-163.77301 381.80931-364.57336 0-.0605-.002-.1215-.002-.18201h.002v-515.83226h-.001z" fill="#0166b4" stroke="#000" stroke-width="10"/><g fill="#ffd30d" stroke="#000" stroke-width="3" transform="translate(2.08982)"><path id="a" d="m-567.48504 294.82447c-1.98618 1.60234-2.50442 4.05717-2.53715 6.36422l.0987 10.52702 9.91554-.0337c2.73354-.0293 5.78993-1.94254 7.45079-3.9679l.0977 24.55825c-1.87807-1.65392-4.25504-2.48211-6.60077-2.54757l-10.86871-.004-.11605 11.8199 11.47275-.0129c2.80198.006 5.24144-1.90435 6.63499-2.98101l-.0178 23.72014c-2.32242-2.12009-5.13878-2.28473-6.85568-2.26589l-11.38893-.0188.0114 9.78907c.27326 2.51385 2.78562 5.96599 4.21934 6.76344l-26.0733-.0446c2.02685-1.16592 3.35643-3.73482 3.47941-5.93475l-.002-10.43279-11.52383.0273c-2.3368.23259-4.8442 1.47488-6.51398 2.87091l-.0679-24.44567c1.43818 1.79972 4.1747 3.34552 6.32553 3.2384l11.78518-.27177-.17655-11.68699-11.69889.0149c-2.50988.1096-4.10527 1.3762-6.2437 2.88381l.003-23.94875c2.15529 2.00949 4.16875 3.10201 7.00446 2.91654l11.07551-.0709.0218-10.15111c.0848-2.87835-1.68863-5.2087-3.24088-6.88444l24.33012.21027z" fill="#ffd30d" stroke="#000" stroke-width="3"/><path id="b" d="m-537.76668 800.97724c-1.98619 1.60234-2.50443 4.05717-2.53766 6.36422l.0987 10.52702 9.91604-.0332c2.73354-.0293 5.78944-1.94304 7.45079-3.96839l.0972 24.55825c-1.87757-1.65391-4.25504-2.48211-6.60077-2.54757l-10.86822-.004-.11604 11.8199 11.47275-.0129c2.80198.006 5.24094-1.90435 6.63449-2.98101l-.0174 23.72014c-2.32291-2.12009-5.13878-2.28473-6.85568-2.26589l-11.38893-.0188.0114 9.78908c.27275 2.51384 2.78511 5.96648 4.21884 6.76343l-26.07281-.0441c2.02685-1.16641 3.35643-3.73531 3.47942-5.93524l-.002-10.43279-11.52382.0273c-2.33681.23259-4.8447 1.47488-6.51448 2.87091l-.0675-24.44567c1.43818 1.79972 4.1747 3.34552 6.32553 3.2384l11.78518-.27177-.17655-11.68699-11.69938.0149c-2.50939.1096-4.10478 1.3762-6.24321 2.88381l.003-23.94875c2.1553 2.00949 4.16876 3.10201 7.00446 2.91654l11.07551-.0709.0218-10.15111c.0843-2.87835-1.68863-5.2087-3.24087-6.88444l24.33012.21027z" fill="#ffd30d" stroke="#000" stroke-width="3"/><path id="c" d="m-358.76772 224.96334c-1.98618 1.60233-2.50443 4.05717-2.53716 6.36421l.0987 10.52652 9.91554-.0332c2.73404-.0293 5.78994-1.94254 7.45129-3.9679l.0972 24.55775c-1.87807-1.65342-4.25504-2.48162-6.60077-2.54758l-10.86822-.004-.11654 11.8194 11.47275-.0129c2.80247.007 5.24144-1.90435 6.63499-2.98051l-.0174 23.71963c-2.32292-2.12008-5.13928-2.28423-6.85617-2.26539l-11.38894-.0193.0119 9.78908c.27276 2.51385 2.78512 5.96649 4.21884 6.76393l-26.0728-.0446c2.02685-1.16592 3.35643-3.73531 3.47942-5.93474l-.002-10.43279-11.52383.0268c-2.3368.23259-4.8442 1.47488-6.51399 2.87091l-.0674-24.44567c1.43818 1.79972 4.1747 3.34601 6.32504 3.2384l11.78518-.27177-.17655-11.68699-11.69889.0149c-2.50939.1096-4.10528 1.37669-6.24321 2.88381l.003-23.94876c2.1553 2.0095 4.16826 3.10202 7.00446 2.91654l11.07551-.0704.0218-10.1516c.0843-2.87786-1.68912-5.20821-3.24087-6.88394l24.32962.21027z" fill="#ffd30d" stroke="#000" stroke-width="3"/><path id="d" d="m-361.51019 975.56304c-1.98618 1.60234-2.50443 4.05717-2.53716 6.36422l.0987 10.52702 9.91554-.0337c2.73355-.0293 5.78994-1.94254 7.45079-3.9679l.0977 24.55772c-1.87807-1.6534-4.25504-2.4816-6.60077-2.5476h-10.86822l-.11654 11.8194 11.47275-.013c2.80198.01 5.24144-1.9039 6.63499-2.9805l-.0174 23.7201c-2.32291-2.1206-5.13928-2.2847-6.85617-2.2659l-11.38894-.019.0119 9.789c.27276 2.5134 2.78512 5.966 4.21884 6.7635l-26.07329-.045c2.02684-1.1659 3.35642-3.7348 3.47991-5.9347l-.002-10.4328-11.52383.027c-2.3368.2321-4.8442 1.4749-6.51399 2.8709l-.0679-24.4457c1.43819 1.7997 4.17471 3.3455 6.32554 3.2384l11.78518-.2722-.17655-11.6865-11.69889.015c-2.50988.1096-4.10528 1.3762-6.24371 2.8838l.003-23.94917c2.15529 2.00999 4.16875 3.10202 7.00445 2.91654l11.07551-.0704.0218-10.1516c.0848-2.87786-1.68862-5.20822-3.24087-6.88395l24.33012.21027z" fill="#ffd30d" stroke="#000" stroke-width="3"/><path id="e" d="m-566.32953 547.54436c-1.98618 1.60234-2.50443 4.05717-2.53716 6.36422l.0987 10.52652 9.91554-.0332c2.73355-.0293 5.78994-1.94254 7.45079-3.9679l.0977 24.55775c-1.87807-1.65342-4.25504-2.48161-6.60077-2.54757l-10.86822-.004-.11654 11.8194 11.47275-.0129c2.80248.007 5.24144-1.90386 6.63499-2.98052l-.0174 23.72013c-2.32291-2.12057-5.13928-2.28473-6.85617-2.26588l-11.38894-.0189.0119 9.78908c.27276 2.51336 2.78512 5.96599 4.21885 6.76344l-26.0733-.0446c2.02685-1.16592 3.35642-3.73482 3.47991-5.93475l-.002-10.43279-11.52383.0273c-2.3368.23209-4.8442 1.47488-6.51399 2.87091l-.0674-24.44567c1.43769 1.79972 4.17421 3.34552 6.32504 3.2384l11.78518-.27227-.17655-11.68649-11.69889.0149c-2.50988.1096-4.10528 1.37619-6.24371 2.88381l.003-23.94925c2.1548 2.00999 4.16826 3.10202 7.00446 2.91654l11.07501-.0704.0218-10.1516c.0848-2.87786-1.68863-5.20822-3.24088-6.88395l24.33012.21027z" fill="#ffd30d" stroke="#000" stroke-width="3"/><g transform="matrix(-1 0 0 1 -499.89889 0)"><use height="891.16077" width="774.13977" xlink:href="#a"/><use height="891.16077" width="774.13977" xlink:href="#b"/><use height="891.16077" width="774.13977" xlink:href="#c"/><use height="891.16077" width="774.13977" xlink:href="#d"/><use height="891.16077" width="774.13977" xlink:href="#e"/></g></g><path d="m-527.18982 315.18471h558.660412v395.21914h-.002c0 .0461.002.0927.002.13886 0 153.84957-125.48014 279.32921-279.329212 279.32921-153.84957 0-279.32921-125.47964-279.32921-279.32921 0-.0461.001-.0927.001-.13886h-.001v-395.21914h-.002z" fill="#da2c27" stroke="#000" stroke-width="8"/><path d="m181.07143 275.58765v126.67857h34.38013s0-98.28571 0-126.67857-5.89285-113.57143-17.19006-135c-11.29722 21.42857-17.19007 106.60714-17.19007 135z" fill="#dcdddf" stroke="#000" stroke-width="2" transform="translate(-634.66868 207.23547)"/><path d="m-437.52583 507.71969v101.782h2.23729s0-78.96929 0-101.782c0-22.81272-.38348-91.25086-1.11864-108.468-.73517 17.21714-1.11865 85.65528-1.11865 108.468z"/><path d="m139.65359 411.74098v-21.30511s16.23867 8.34918 58.60791 8.34918c42.36923 0 58.6079-8.34918 58.6079-8.34918v21.30511z" fill="#dcdddf" stroke="#000" stroke-width="2" transform="translate(-634.66868 207.23547)"/><path d="m313.21428 211.65908s-2.52166 11.72072 6.04977 15.73858c0-.26786 1.71809-8.50644 2.25381-12.79215 0 0 .80357 7.54596 4.28571 10.76024 0 0 3.75-4.33167 4.82143-11.29596zm10.17858 36.16071s-.53572-2.94643.80357-9.64286c0 0 5.35714 5.08929 8.30357 7.23215 0 0-1.45024-5.73595-1.18239-11.09309 0 0 5.20025 3.32523 8.14667 7.61095 2.94643 4.28571-11.7857 10.44642-16.07142 5.89285zm-38.02477-26.33193s-1.13642 14.77348 12.87945 20.07678c14.01586 5.3033 28.41054-7.19734 36.7443-10.22779 8.33375-3.03046 20.45558 4.54568 20.45558 4.54568l3.03046-6.06091s-11.25327-13.12827-30.57243-4.76759c-18.48104 7.99798-32.30956 5.14639-42.53736-3.56617z" fill="#dcdddf" stroke="#000" stroke-width="2" transform="translate(-634.66868 207.23547)"/><path d="m491.25 273.44479s3.75-7.5 2.14285-17.67857c0 0 14.46429 0 15-15 0 0-6.72584 4.9653-9.3775.41961-2.65165-4.54568-5.6821-14.39467-15.53109-19.69797 0 0 5.3033-3.03046 10.6066-3.40927 0 0-8.98541-6.78829-19.69798-16.28871-9.77065-8.66508-14.77347-17.42513-31.8198-21.2132 0 0 10.8526-14.80394 16.28872-27.65292 5.43609-12.84899 23.00127-15.18263 29.54695-18.94037 5.69087-3.26699 6.43973-6.43972 6.43973-6.43972s-7.95496-1.51523-23.10724 7.19734c0 0 2.01529-5.06092 5.3033-10.2278s.75761-8.71256.75761-8.71256-6.95495 4.81852-11.74302 14.39468c-4.78807 9.57613-15.9099 14.01586-26.89531 15.15228 0 0 .75761-9.47018 11.74302-12.87944 10.98541-3.40927 10.98541-7.95496 10.98541-7.95496s-8.71257-1.51522-18.18275 5.68211c2.26886-6.36152 8.3987-9.27732 4.9245-15.9099 0 0-4.91677.37646-11.47517 12.83349s-19.20822 13.68301-32.46647 20.12274c-9.375 4.55357-19.31917 11.74302-18.18274 19.31916 0 0-5.55584-.25253-13.51079-5.93464-7.95496-5.68211-20.45559-4.54569-24.24367 3.78807-3.78807 8.33376-10.36421 10.25877-20.07678 13.63706-9.71256 3.37829-15.94506 4.57206-22.23077 5.75064-6.28571 1.17857-5.64404 12.58928.51667 12.85714 0 0-.76179 15.10606 11.36004 17.3789 12.12183 2.27285 20.07678-3.40926 20.07678-3.40926s15.5311 1.13642 18.18275 12.12183-2.16547 13.09603-12.12183 16.66751c-9.92824 3.5614-11.74303 8.71258-23.10724 6.81854 0 0-.65165 12.49201 10.22779 13.13198 10.87945.63997 10.98541-6.43972 18.18275-11.74303 7.19733-5.3033 20.07678 0 19.31916 9.84899-.75761 9.84899-16.56154 30.39767-31.81981 32.57742-15.25824 2.17975-18.18274-8.71256-18.18274-8.71256-6.96315 8.58306-2.07828 25.60118 16.28871 29.16815 0 0-32.66677 5.67581-41.44207 26.15153-8.56474 19.98441-1.91354 27.35714 0 45.53571s-3.75 30-3.75 30-38.75-1.25-59.10714.35714c0 0-12.36969-9.48915-26.38556-3.80704l-14.65092 3.91434s-9.84899-4.16688-15.90991 3.40926c-5.58488 6.98109-.75761 14.01587-.75761 14.01587s-8.71257 9.84898.75761 20.07678c0 0-4.67195 5.17703-1.64149 12.75317 3.03045 7.57615 13.01586 8.58376 18.56155 7.19734s13.42424-1.06257 23.10724-1.13642c10.33375-.0788 28.41054-4.92449 29.92577-16.28871 0 0 6.87337.63346 16.03617 3.6618 10.71257 3.54054 15.9099 1.13643 18.94036 5.68211 3.03046 4.54569.3788 9.84899-4.92449 12.87945 0 0 7.7363 2.99265 12.50063-1.13643 5.68211-4.92449 4.16688-14.77348 4.16688-14.77348s10.2278 8.33376 1.13642 21.21321c0 0 17.04633.3788 17.80394-14.39468.75762-14.77348 4.16688-17.42513 10.2278-17.04632 0 0 3.6618 7.57614 10.85914 11.74302 0 0 12.5514-3.55212 29.29813 14.90347 0 0 7.01977 34.45469-50.30166 41.95469 0 0-25.17857-6.42857-43.39286 16.60715-18.21429 23.03571-13.39286 42.32142-3.75 46.60714 0 0 2.9814 11.01508-4.83713 15.79307s-12.84099-.92495-14.77349-3.78807c-3.44773 4.71301-.3788 17.42512 9.84899 19.31916s15.9099-7.57614 15.9099-7.57614 3.78808 12.12183-8.71256 17.42513c0 0 12.87944 10.6066 30.30458-6.81853 0 0 1.51522 8.33376-3.40927 14.01586 0 0 13.25825.75762 16.66752-9.47017 0 0 11.35284 14.74255 4.53718 32.34969-6.81567 17.60714-34.82143 19.28571-41.25001 17.14285 0 0-3.69327-14.51601-17.70914-11.86436s-10.2278 25.00128-10.2278 25.00128l18.18275 29.16815s9.47018 8.33376 25.00128-.37881c0 0 35.22907 3.40927 43.56282-4.92449 8.33376-8.33376-.75761-14.39467-.75761-14.39467s25.30484-29.25341 43.37628-41.53567c17.31812-11.77027 16.07143-37.49999-11.25-41.78571 0 0-10.71429-13.39286-15.53572-29.46429 0 0 24.10714-20.89285 62.67857-8.57142 0 0-6.42857 42.14285 18.21429 49.64285 0 0-.11982 16.27173-6.31715 18.55496-6.19734 2.28323-4.9245-6.81853-4.9245-6.81853s-9.25494 1.09771-4.16688 12.12183c5.00335 10.84059 27.27412 6.43972 29.92577-7.57614 0 0 5.3033 12.87944-5.3033 19.69797 0 0 15.5311 5.3033 27.27412-18.56155 0 0 4.16688 5.68211 2.65165 12.12183 0 0 9.29371.10596 10.6066-14.77348 1.31289-14.87945 24.99328-12.5025 38.25953 7.57614 14.01587 21.2132 3.03046 31.441-6.06092 31.81981 0 0-14.77348-9.09138-26.13769 5.3033-11.36422 14.39467 5.3033 39.77475 14.77348 43.94163s20.07678 4.16688 33.71384-14.39467 37.50191-20.8344 40.53237-34.09265-10.22779-17.80394-10.22779-17.80394-1.51523-14.52094-8.71257-25.50635-10.22779-30.30458-10.22779-30.30458 6.06091-14.39467-5.30331-23.48604c-11.36421-9.09138-24.24366-.37881-24.24366-.37881s-22.72843 3.78807-29.92577-10.22779c-7.19733-14.01587-.3788-21.97082-.3788-32.19862 0-10.22779 6.06091-14.39467 10.6066-10.98541 4.54569 3.40927 4.92449 11.36422 18.94036 16.28871 14.01587 4.9245 17.42513-7.19733 17.42513-7.19733s-11.35075-3.12029-14.56504-16.51314c-3.21428-13.39286-16.07143-13.92858-24.64285-16.60715-8.57143-2.67857-30-33.21428-35.89286-46.07143-5.89286-12.85714 9.64286-44.46428 9.64286-44.46428z" fill="#ffd30d" stroke="#000" stroke-width="2" transform="translate(-634.66868 207.23547)"/><path d="m306.60714 196.48051s6.69643-.53572 9.91072-5.08929c0 0-1.07143-2.14286-2.41072-2.94643m23.97322 22.23215s2.94642-2.54465 4.15178-6.69643m.17857-15.625s3.75-4.82143 19.28572-4.28572c15.53571.53572 31.33928 5.35715 38.03571 21.16072 0 0-4.01786 0-7.23214 2.14285 0 0 17.30313 8.88719 17.87447 29.20551.56364 20.04453-7.35424 22.99629-7.35424 22.99629s-4.34283-12.99039-13.10135-15.86395c0 0 .12627 3.72494-4.04061 7.51301 0 0-2.84105-6.25032-8.52316-8.71256m8.64943-75.76145s7.38674.94702 16.09931.56822c0 0 6.19972-11.64149 21.19972-16.46292s19.82143-5.89286 19.82143-5.89286m-32.14286 31.875s5.35714 5.35714 10.44643-2.41071c5.08929-7.76786 4.82143-19.82143 19.55357-21.96429m-8.83928 42.32143s-1.32025-4.88085-6.16072-8.57143c0 0 11.12559 2.18882 17.28631-6.91832m4.60793 105.32806s3.78807-15.9099 1.89404-35.60788c0 0 6.06091.37881 9.09137 3.03046 0 0 1.51523-9.84898-3.78807-18.56155m-120.58696 76.64532 1.89404.1894s-2.46225 10.60661-10.98541 18.75096c0 0 19.2059 4.02343 41.66879-3.21986 0 0 2.93582 6.97055-4.83204 17.41698 0 0 21.42857-2.14286 30.80357-7.76786m-71.91012 114.78631s-13.90536-23.17779-11.4507-45.391c2.43751-22.05808 13.82646-37.69131 5.1139-56.25286m44.49692 125.51827s29.55357 20.89285 30.89286 48.75c0 0-10.80357-5.71429-19.64286-4.375 0 0 8.57143 4.28571 10.71429 13.92857s6.96428 15.80357 13.92857 13.66071m9.11966 25.38235s2.75425-13.95256 2.87356-27.25508-1.09047-33.35407-10.18184-38.27856m-131.57237 60.23034s3.40926 18.94036 33.33503 3.40927m37.05096 19.72597s.53571-6.16072 6.69643-11.78572m-17.9885 91.4335s25.62496-19.23119 33.20111-30.2166m64.90996-19.02833s21.59201 9.47018 29.54696-12.87945m52.02286-21.46574s.3788-4.54569 5.6821-8.33376m11.36422 32.57742s12.12183.75762 16.66752-9.09137m-10.98541 8.71256s9.84899 12.87945 12.87944 30.68339m12.07474 18.50124s4.28571-1.875 7.5-.26786m-209.10461-473.62277s-.69725-19.0398 11.55362-18.56156c12.74303.49746 9.65959 16.47812 15.15229 20.26619m-146.03018 226.40044s3.59867 3.78807 3.97748 8.90197m8.87105 31.66037s.80357-5.49106.13392-11.65178m-27.05357 13.125s1.60714-10.71428 14.19643-10.17857m-11.51786 4.01786s-9.91071-.80357-13.66071-14.19643m0-4.28572c0-.53571 1.33928-4.01785 6.96428-4.28571m-39.375 4.01786s3.75 4.01785 10.71429 5.625m-9.91072 14.73214s3.75 2.67857 10.71429 2.94643m65.44643 246.42857s5.35714-12.32143 16.60714-12.85714c11.25-.53572 13.66071 7.76785 13.66071 7.76785m-39.64285-11.25s4.82143-9.375 14.73214-9.375 12.05357 4.28572 12.05357 4.28572m235.66561-4.44558s3.8129 2.60569 6.66742 6.32877m-22.33303 35.34895s-4.82143-19.01786 19.01786-18.75m-29.46429 0s5.08929-15.53571 18.21429-9.91071m-144.10714-65.35715s-3.625 13.83929 5.625 17.14286 13.39285-.53571 13.39285-.53571" fill="none" stroke="#000" stroke-linecap="round" stroke-width="1.5" transform="translate(-634.66868 207.23547)"/><path d="m353.83928 169.69479s.80358 10.98215 7.23215 13.92857l1.875-.26785s1.33928-9.91072 3.48214-15.80357c0 0-5.62501-4.55358-12.58929 2.14285z" transform="translate(-634.66868 207.23547)"/><path d="m-428.85997 622.11998v91.06028h-15.09443v-91.06028z" fill="#dcdddf" stroke="#000" stroke-width="2"/><path d="m-442.97225 617.55526c6.96428-4.55357 14.79366-4.09343 16.875 2.41072 2.14286 6.69643 0 13.39285-6.42857 13.39285-6.42858 0-7.5-5.625-7.5-5.625s-3.29275.23536-7.36607 4.37763c-1.74107-4.28572-2.54465-10.00263 4.41964-14.5562zm8.94512 59.16052s-9.47018 1.26269-5.68211-8.20749c0 0 5.3033-1.13642 6.06092-6.06092 0 0-9.47018.37881-5.68211-8.33376 0 0 5.3033-1.51523 6.81853-6.06091 0 0-8.26555-.89404-7.57615-4.54569.67883-3.59563 4.35628-8.01809-4.73509-10.54347 0 0-6.06821-1.48846-7.76554 4.73509-1.70464 6.25033 1.89403 9.84899 1.89403 9.84899s-7.19734 6.06092-.75761 15.9099c0 0-4.16688 6.43973.75761 13.63706 4.92449 7.19734 14.39467 6.06092 16.66752-.3788" fill="#dcdddf" stroke="#000" stroke-width="2"/><path d="m183.84776 440.12275s4.16688 5.68211 11.93243 6.62912m-12.87945 9.28078s5.49271 6.06092 11.74303 5.3033" fill="none" stroke="#000" stroke-width="2" transform="translate(-634.66868 207.23547)"/><path id="f" d="m-409.26305 876.48524c6.17467-5.23395 14.68003-4.02414 17.30323.73807 2.70075 4.903 1.70302 11.14722-4.41336 12.34752-6.11638 1.20031-8.18604-3.95146-8.18604-3.95146s-3.88651.43992-7.78621 6.7368c-2.45672-3.75249-3.07188-10.65425 3.08238-15.87093z" fill="#dcdddf" stroke="#000" stroke-width="2"/><use height="890.58765" transform="translate(9.24828 15.798952)" width="773.6181" xlink:href="#f"/><use height="890.58765" transform="translate(18.94036 31.440998)" width="773.6181" xlink:href="#f"/><path id="g" d="m-173.38294 896.0671c5.06443-6.31445 13.6445-6.74718 17.12692-2.57195 3.58537 4.29867 3.79553 10.6186-1.98015 12.96218s-8.78892-2.31954-8.78892-2.31954-3.73152 1.1723-6.36015 8.09679c-3.12662-3.21572-5.0454-9.87387.002-16.16748z" fill="#dcdddf" stroke="#000" stroke-width="2"/><use height="890.58765" transform="matrix(.8482339 -.5296218 .5296218 .8482339 -497.68904 67.056654)" width="773.6181" xlink:href="#g"/><use height="890.58765" transform="matrix(.6626443 -.74893427 .74893427 .6626443 -711.8167 209.43231)" width="773.6181" xlink:href="#g"/><path id="h" d="m421.86496 210.9444c0 1.15065-.93278 2.08344-2.08344 2.08344-1.15065 0-2.08343-.93279-2.08343-2.08344s.93278-2.08344 2.08343-2.08344c1.15066 0 2.08344.93279 2.08344 2.08344z" transform="matrix(.91538214 -.40258604 .50610286 1.1507541 -706.7108 344.43291)"/><use height="890.58765" transform="translate(-8.571429 3.75)" width="773.6181" xlink:href="#h"/><use height="890.58765" transform="translate(-1.339286 8.035714)" width="773.6181" xlink:href="#h"/><use height="890.58765" transform="translate(6.428571 10.714286)" width="773.6181" xlink:href="#h"/><use height="890.58765" transform="translate(1.071429 15.535715)" width="773.6181" xlink:href="#h"/><use height="890.58765" transform="translate(5.892857 20.625001)" width="773.6181" xlink:href="#h"/><use height="890.58765" transform="translate(-.267857 24.642858)" width="773.6181" xlink:href="#h"/><use height="890.58765" transform="translate(-6.160714 14.464287)" width="773.6181" xlink:href="#h"/><use height="890.58765" transform="matrix(-1 0 0 1 -418.98062 52.345007)" width="773.6181" xlink:href="#h"/><use height="890.58765" transform="matrix(-.90081417 -.43420483 -.43420483 .90081417 -224.72401 6.987099)" width="773.6181" xlink:href="#h"/><use height="890.58765" transform="matrix(-.90081417 -.43420483 -.43420483 .90081417 -221.24187 15.558527)" width="773.6181" xlink:href="#h"/><use height="890.58765" transform="matrix(-.7591861 -.65087362 -.65087362 .7591861 -91.248197 26.176084)" width="773.6181" xlink:href="#h"/><use height="890.58765" transform="matrix(-.7591861 -.65087362 -.65087362 .7591861 -96.069626 20.551084)" width="773.6181" xlink:href="#h"/><use height="890.58765" transform="matrix(-.93370826 -.35803477 -.35803477 .93370826 -248.67175 8.321344)" width="773.6181" xlink:href="#h"/><use height="890.58765" transform="matrix(-.90372594 .42811147 .42811147 .90372594 -566.26065 185.21241)" width="773.6181" xlink:href="#h"/><use height="890.58765" transform="matrix(-.98224294 -.18761347 -.18761347 .98224294 -324.9087 28.679163)" width="773.6181" xlink:href="#h"/><use height="890.58765" transform="matrix(-.98224294 -.18761347 -.18761347 .98224294 -397.26088 53.680438)" width="773.6181" xlink:href="#h"/><use height="890.58765" transform="matrix(-.83272998 -.55367931 -.55367931 .83272998 -213.40417 29.077094)" width="773.6181" xlink:href="#h"/><use height="890.58765" transform="matrix(-.98224294 -.18761347 -.18761347 .98224294 -392.03767 46.582224)" width="773.6181" xlink:href="#h"/><use height="890.58765" transform="matrix(-.98224294 -.18761347 -.18761347 .98224294 -387.08231 51.403653)" width="773.6181" xlink:href="#h"/><use height="890.58765" transform="matrix(-.98224294 -.18761347 -.18761347 .98224294 -384.53767 43.769724)" width="773.6181" xlink:href="#h"/><use height="890.58765" transform="matrix(-.98224294 -.18761347 -.18761347 .98224294 -390.56446 38.54651)" width="773.6181" xlink:href="#h"/><use height="890.58765" transform="matrix(-.98224294 -.18761347 -.18761347 .98224294 -381.32339 37.876867)" width="773.6181" xlink:href="#h"/><use height="890.58765" transform="matrix(-.98224294 -.18761347 -.18761347 .98224294 -377.30553 46.582224)" width="773.6181" xlink:href="#h"/><use height="890.58765" transform="matrix(-.87507469 -.48398791 -.48398791 .87507469 -276.55589 72.705188)" width="773.6181" xlink:href="#h"/><use height="890.58765" transform="matrix(-.87507469 -.48398791 -.48398791 .87507469 -275.60888 80.470737)" width="773.6181" xlink:href="#h"/><use height="890.58765" transform="matrix(-.87507469 -.48398791 -.48398791 .87507469 -282.6168 83.31179)" width="773.6181" xlink:href="#h"/><use height="890.58765" transform="matrix(-.87507469 -.48398791 -.48398791 .87507469 -291.13996 82.743579)" width="773.6181" xlink:href="#h"/><use height="890.58765" transform="matrix(-.87507469 -.48398791 -.48398791 .87507469 -284.13203 74.788628)" width="773.6181" xlink:href="#h"/><use height="890.58765" transform="matrix(-.87507469 -.48398791 -.48398791 .87507469 -286.97308 91.645548)" width="773.6181" xlink:href="#h"/><use height="890.58765" transform="matrix(-.87507469 -.48398791 -.48398791 .87507469 -278.07111 91.645548)" width="773.6181" xlink:href="#h"/><use height="890.58765" transform="matrix(-.87507469 -.48398791 -.48398791 .87507469 -270.49497 87.478669)" width="773.6181" xlink:href="#h"/><use height="890.58765" transform="matrix(-.87507469 -.48398791 -.48398791 .87507469 -267.84332 78.387296)" width="773.6181" xlink:href="#h"/><use height="890.58765" transform="matrix(-.97414263 -.22593395 -.22593395 .97414263 -386.11526 118.85316)" width="773.6181" xlink:href="#h"/><use height="890.58765" transform="matrix(-.97414263 -.22593395 -.22593395 .97414263 -391.74026 126.88887)" width="773.6181" xlink:href="#h"/><use height="890.58765" transform="matrix(-.97414263 -.22593395 -.22593395 .97414263 -393.07955 137.3353)" width="773.6181" xlink:href="#h"/><use height="890.58765" transform="matrix(-.97414263 -.22593395 -.22593395 .97414263 -387.45455 144.8353)" width="773.6181" xlink:href="#h"/><use height="890.58765" transform="matrix(-.97414263 -.22593395 -.22593395 .97414263 -385.04384 134.38887)" width="773.6181" xlink:href="#h"/><use height="890.58765" transform="matrix(-.97414263 -.22593395 -.22593395 .97414263 -381.82955 126.0853)" width="773.6181" xlink:href="#h"/><use height="890.58765" transform="matrix(-.97414263 -.22593395 -.22593395 .97414263 -374.86526 122.60316)" width="773.6181" xlink:href="#h"/><use height="890.58765" transform="matrix(-.97414263 -.22593395 -.22593395 .97414263 -376.74026 133.04959)" width="773.6181" xlink:href="#h"/><use height="890.58765" transform="matrix(-.97414263 -.22593395 -.22593395 .97414263 -370.31169 130.37102)" width="773.6181" xlink:href="#h"/><use height="890.58765" transform="matrix(-.97414263 -.22593395 -.22593395 .97414263 -378.07955 141.88888)" width="773.6181" xlink:href="#h"/><use height="890.58765" transform="matrix(-.99539522 .09585601 .09585601 .99539522 -557.94391 214.73002)" width="773.6181" xlink:href="#h"/><use height="890.58765" transform="matrix(-.99539522 .09585601 .09585601 .99539522 -567.05105 218.21216)" width="773.6181" xlink:href="#h"/><use height="890.58765" transform="matrix(-.99539522 .09585601 .09585601 .99539522 -573.47962 211.24787)" width="773.6181" xlink:href="#h"/><use height="890.58765" transform="matrix(-.99539522 .09585601 .09585601 .99539522 -564.64033 208.30144)" width="773.6181" xlink:href="#h"/><use height="890.58765" transform="matrix(-.99539522 .09585601 .09585601 .99539522 -553.12247 206.6943)" width="773.6181" xlink:href="#h"/><use height="890.58765" transform="matrix(-.99539522 .09585601 .09585601 .99539522 -561.42604 200.53358)" width="773.6181" xlink:href="#h"/><use height="890.58765" transform="matrix(-.99539522 .09585601 .09585601 .99539522 -570.80104 201.06929)" width="773.6181" xlink:href="#h"/><use height="890.58765" transform="matrix(-.99539522 .09585601 .09585601 .99539522 -566.24747 193.56929)" width="773.6181" xlink:href="#h"/><use height="890.58765" transform="matrix(-.99539522 .09585601 .09585601 .99539522 -553.92604 196.51572)" width="773.6181" xlink:href="#h"/><use height="890.58765" transform="matrix(.98169614 .19045392 -.19045392 .98169614 42.332563 239.25545)" width="773.6181" xlink:href="#h"/><use height="890.58765" transform="matrix(.98169614 .19045392 -.19045392 .98169614 49.564706 241.66616)" width="773.6181" xlink:href="#h"/><use height="890.58765" transform="matrix(.98169614 .19045392 -.19045392 .98169614 55.72542 235.50545)" width="773.6181" xlink:href="#h"/><use height="890.58765" transform="matrix(.98169614 .19045392 -.19045392 .98169614 62.689706 241.39831)" width="773.6181" xlink:href="#h"/><use height="890.58765" transform="matrix(.98169614 .19045392 -.19045392 .98169614 56.528992 247.55902)" width="773.6181" xlink:href="#h"/><use height="890.58765" transform="matrix(.98169614 .19045392 -.19045392 .98169614 50.100421 250.77331)" width="773.6181" xlink:href="#h"/><use height="890.58765" transform="matrix(-.98169614 .19045392 .19045392 .98169614 -541.2445 250.2376)" width="773.6181" xlink:href="#h"/><use height="890.58765" transform="matrix(-.98169614 .19045392 .19045392 .98169614 -539.10164 261.75546)" width="773.6181" xlink:href="#h"/><use height="890.58765" transform="matrix(.98169614 .19045392 -.19045392 .98169614 53.582565 256.66617)" width="773.6181" xlink:href="#h"/><use height="890.58765" transform="matrix(.98169614 .19045392 -.19045392 .98169614 53.850425 267.1126)" width="773.6181" xlink:href="#h"/><use height="890.58765" transform="matrix(.98169614 .19045392 -.19045392 .98169614 61.618282 259.07689)" width="773.6181" xlink:href="#h"/><use height="890.58765" transform="matrix(.98169614 .19045392 -.19045392 .98169614 64.832568 249.70189)" width="773.6181" xlink:href="#h"/><use height="890.58765" transform="matrix(.98169614 .19045392 -.19045392 .98169614 1.61828 261.4876)" width="773.6181" xlink:href="#h"/><use height="890.58765" transform="matrix(.98169614 .19045392 -.19045392 .98169614 -.25672 269.79117)" width="773.6181" xlink:href="#h"/><use height="890.58765" transform="matrix(.98169614 .19045392 -.19045392 .98169614 -9.899578 267.1126)" width="773.6181" xlink:href="#h"/><use height="890.58765" transform="matrix(.98169614 .19045392 -.19045392 .98169614 -5.881721 276.21974)" width="773.6181" xlink:href="#h"/><use height="890.58765" transform="matrix(.98169614 .19045392 -.19045392 .98169614 -11.238863 282.64831)" width="773.6181" xlink:href="#h"/><use height="890.58765" transform="matrix(.98169614 .19045392 -.19045392 .98169614 .011137 286.13045)" width="773.6181" xlink:href="#h"/><use height="890.58765" transform="matrix(.98169614 .19045392 -.19045392 .98169614 2.421851 277.29116)" width="773.6181" xlink:href="#h"/><use height="890.58765" transform="matrix(.98169614 .19045392 -.19045392 .98169614 8.314708 286.66616)" width="773.6181" xlink:href="#h"/><use height="890.58765" transform="matrix(.98169614 .19045392 -.19045392 .98169614 12.332565 277.55902)" width="773.6181" xlink:href="#h"/><use height="890.58765" transform="matrix(.98169614 .19045392 -.19045392 .98169614 10.725422 268.45188)" width="773.6181" xlink:href="#h"/><use height="890.58765" transform="matrix(-.98169614 .19045392 .19045392 .98169614 -542.88971 293.19646)" width="773.6181" xlink:href="#h"/><use height="890.58765" transform="matrix(-.98169614 .19045392 .19045392 .98169614 -531.14669 296.60572)" width="773.6181" xlink:href="#h"/><use height="890.58765" transform="matrix(-.98169614 .19045392 .19045392 .98169614 -537.58641 300.7726)" width="773.6181" xlink:href="#h"/><use height="890.58765" transform="matrix(-.98169614 .19045392 .19045392 .98169614 -544.78375 303.42425)" width="773.6181" xlink:href="#h"/><use height="890.58765" transform="matrix(-.98169614 .19045392 .19045392 .98169614 -551.60228 301.53021)" width="773.6181" xlink:href="#h"/><use height="890.58765" transform="matrix(-.98169614 .19045392 .19045392 .98169614 -550.46586 312.51562)" width="773.6181" xlink:href="#h"/><use height="890.58765" transform="matrix(-.98169614 .19045392 .19045392 .98169614 -544.40494 319.71296)" width="773.6181" xlink:href="#h"/><use height="890.58765" transform="matrix(-.98169614 .19045392 .19045392 .98169614 -540.23806 309.48517)" width="773.6181" xlink:href="#h"/><use height="890.58765" transform="matrix(-.98169614 .19045392 .19045392 .98169614 -535.69237 316.3037)" width="773.6181" xlink:href="#h"/><use height="890.58765" transform="matrix(-.98169614 .19045392 .19045392 .98169614 -529.25265 306.83352)" width="773.6181" xlink:href="#h"/><use height="890.58765" transform="matrix(-.98169614 .19045392 .19045392 .98169614 -501.97853 300.3938)" width="773.6181" xlink:href="#h"/><use height="890.58765" transform="matrix(-.98169614 .19045392 .19045392 .98169614 -503.87257 311.75802)" width="773.6181" xlink:href="#h"/><use height="890.58765" transform="matrix(-.98169614 .19045392 .19045392 .98169614 -498.19046 318.95536)" width="773.6181" xlink:href="#h"/><use height="890.58765" transform="matrix(-.98169614 .19045392 .19045392 .98169614 -495.53881 307.59114)" width="773.6181" xlink:href="#h"/><use height="890.58765" transform="matrix(-.98169614 .19045392 .19045392 .98169614 -496.29642 292.06004)" width="773.6181" xlink:href="#h"/><use height="890.58765" transform="matrix(-.98169614 .19045392 .19045392 .98169614 -492.12954 299.63618)" width="773.6181" xlink:href="#h"/><use height="890.58765" transform="matrix(.98169614 .19045392 -.19045392 .98169614 97.462485 295.4693)" width="773.6181" xlink:href="#h"/><use height="890.58765" transform="matrix(.98169614 .19045392 -.19045392 .98169614 98.598907 306.45471)" width="773.6181" xlink:href="#h"/><use height="890.58765" transform="matrix(.98169614 .19045392 -.19045392 .98169614 94.053221 314.78847)" width="773.6181" xlink:href="#h"/><use height="890.58765" transform="matrix(.98169614 .19045392 -.19045392 .98169614 103.14459 317.06131)" width="773.6181" xlink:href="#h"/><use height="890.58765" transform="matrix(-.98169614 .19045392 .19045392 .98169614 -514.26189 348.41964)" width="773.6181" xlink:href="#h"/><use height="890.58765" transform="matrix(-.98169614 .19045392 .19045392 .98169614 -514.79761 359.66964)" width="773.6181" xlink:href="#h"/><use height="890.58765" transform="matrix(-.98169614 .19045392 .19045392 .98169614 -510.24404 367.16964)" width="773.6181" xlink:href="#h"/><use height="890.58765" transform="matrix(-.98169614 .19045392 .19045392 .98169614 -507.29761 352.97321)" width="773.6181" xlink:href="#h"/><use height="890.58765" transform="matrix(-.98169614 .19045392 .19045392 .98169614 -504.8869 360.47321)" width="773.6181" xlink:href="#h"/><use height="890.58765" transform="matrix(-.98169614 .19045392 .19045392 .98169614 -501.1369 371.72321)" width="773.6181" xlink:href="#h"/><use height="890.58765" transform="matrix(.98169614 .19045392 -.19045392 .98169614 86.993735 363.95535)" width="773.6181" xlink:href="#h"/><use height="890.58765" transform="matrix(.98169614 .19045392 -.19045392 .98169614 84.850878 353.24106)" width="773.6181" xlink:href="#h"/><use height="890.58765" transform="matrix(.98169614 .19045392 -.19045392 .98169614 79.493735 345.74106)" width="773.6181" xlink:href="#h"/><use height="890.58765" transform="matrix(.98169614 .19045392 -.19045392 .98169614 121.01159 369.8482)" width="773.6181" xlink:href="#h"/><use height="890.58765" transform="matrix(.98169614 .19045392 -.19045392 .98169614 124.22588 380.02677)" width="773.6181" xlink:href="#h"/><use height="890.58765" transform="matrix(.98169614 .19045392 -.19045392 .98169614 122.08302 389.13391)" width="773.6181" xlink:href="#h"/><use height="890.58765" transform="matrix(.93871705 .3446887 -.3446887 .93871705 169.275 435.55248)" width="773.6181" xlink:href="#h"/><use height="890.58765" transform="matrix(.93871705 .3446887 -.3446887 .93871705 169.54286 426.98105)" width="773.6181" xlink:href="#h"/><use height="890.58765" transform="matrix(-.98169614 .19045392 .19045392 .98169614 -476.22618 379.2232)" width="773.6181" xlink:href="#h"/><use height="890.58765" transform="matrix(-.98169614 .19045392 .19045392 .98169614 -474.35118 370.38391)" width="773.6181" xlink:href="#h"/><use height="890.58765" transform="matrix(-.98169614 .19045392 .19045392 .98169614 -475.42261 389.66962)" width="773.6181" xlink:href="#h"/><use height="890.58765" transform="matrix(.93871705 .3446887 -.3446887 .93871705 168.73929 446.53462)" width="773.6181" xlink:href="#h"/><use height="890.58765" transform="matrix(.880489 .47406659 -.47406659 .880489 186.84759 501.7332)" width="773.6181" xlink:href="#h"/><use height="890.58765" transform="matrix(.880489 .47406659 -.47406659 .880489 186.88602 512.40716)" width="773.6181" xlink:href="#h"/><use height="890.58765" transform="matrix(.880489 .47406659 -.47406659 .880489 182.12915 520.46347)" width="773.6181" xlink:href="#h"/><use height="890.58765" transform="matrix(.79354336 .6085137 -.6085137 .79354336 213.36281 578.82634)" width="773.6181" xlink:href="#h"/><use height="890.58765" transform="matrix(.79354336 .6085137 -.6085137 .79354336 216.17021 570.72328)" width="773.6181" xlink:href="#h"/><use height="890.58765" transform="matrix(-.99388403 -.11042893 -.11042893 .99388403 -386.10262 332.88739)" width="773.6181" xlink:href="#h"/><use height="890.58765" transform="matrix(-.99388403 -.11042893 -.11042893 .99388403 -381.6812 325.00705)" width="773.6181" xlink:href="#h"/><use height="890.58765" transform="matrix(-.99388403 -.11042893 -.11042893 .99388403 -388.44534 343.0994)" width="773.6181" xlink:href="#h"/><use height="890.58765" transform="matrix(.79354336 .6085137 -.6085137 .79354336 209.58204 589.15108)" width="773.6181" xlink:href="#h"/><use height="890.58765" transform="matrix(.95587636 .29376928 -.29376928 .95587636 165.90809 457.67948)" width="773.6181" xlink:href="#h"/><use height="890.58765" transform="matrix(.95587636 .29376928 -.29376928 .95587636 169.09318 468.14214)" width="773.6181" xlink:href="#h"/><use height="890.58765" transform="matrix(.95587636 .29376928 -.29376928 .95587636 165.994 476.96977)" width="773.6181" xlink:href="#h"/><use height="890.58765" transform="matrix(.89673937 .44255902 -.44255902 .89673937 207.98215 528.14361)" width="773.6181" xlink:href="#h"/><use height="890.58765" transform="matrix(.89673937 .44255902 -.44255902 .89673937 209.20595 520.34189)" width="773.6181" xlink:href="#h"/><use height="890.58765" transform="matrix(-.99638278 .08497867 .08497867 .99638278 -427.86865 403.48999)" width="773.6181" xlink:href="#h"/><use height="890.58765" transform="matrix(-.99638278 .08497867 .08497867 .99638278 -426.13573 395.97164)" width="773.6181" xlink:href="#h"/><use height="890.58765" transform="matrix(-.99638278 .08497867 .08497867 .99638278 -428.18052 413.96263)" width="773.6181" xlink:href="#h"/><use height="890.58765" transform="matrix(.89673937 .44255902 -.44255902 .89673937 206.28162 539.00651)" width="773.6181" xlink:href="#h"/><use height="890.58765" transform="matrix(.75594194 .65463867 -.65463867 .75594194 158.7141 553.22847)" width="773.6181" xlink:href="#h"/><use height="890.58765" transform="matrix(.75594194 .65463867 -.65463867 .75594194 156.4243 563.654)" width="773.6181" xlink:href="#h"/><use height="890.58765" transform="matrix(.75594194 .65463867 -.65463867 .75594194 150.02532 570.47931)" width="773.6181" xlink:href="#h"/><use height="890.58765" transform="matrix(.64177392 .76689388 -.76689388 .64177392 167.78236 634.24807)" width="773.6181" xlink:href="#h"/><use height="890.58765" transform="matrix(.64177392 .76689388 -.76689388 .64177392 173.04658 628.08849)" width="773.6181" xlink:href="#h"/><use height="890.58765" transform="matrix(-.94589464 -.32447394 -.32447394 .94589464 -363.63708 263.52155)" width="773.6181" xlink:href="#h"/><use height="890.58765" transform="matrix(-.94589464 -.32447394 -.32447394 .94589464 -357.60384 256.79483)" width="773.6181" xlink:href="#h"/><use height="890.58765" transform="matrix(-.94589464 -.32447394 -.32447394 .94589464 -368.15002 272.97707)" width="773.6181" xlink:href="#h"/><use height="890.58765" transform="matrix(.64177392 .76689388 -.76689388 .64177392 161.84139 643.50006)" width="773.6181" xlink:href="#h"/><use height="890.58765" transform="matrix(.62059958 .78412765 -.78412765 .62059958 132.15275 650.98432)" width="773.6181" xlink:href="#h"/><use height="890.58765" transform="matrix(.62059958 .78412765 -.78412765 .62059958 127.9589 660.79994)" width="773.6181" xlink:href="#h"/><use height="890.58765" transform="matrix(.62059958 .78412765 -.78412765 .62059958 120.39934 666.3122)" width="773.6181" xlink:href="#h"/><use height="890.58765" transform="matrix(.48750026 .87312283 -.87312283 .48750026 124.81644 730.3797)" width="773.6181" xlink:href="#h"/><use height="890.58765" transform="matrix(.48750026 .87312283 -.87312283 .48750026 132.87744 726.32497)" width="773.6181" xlink:href="#h"/><use height="890.58765" transform="matrix(-.8687913 -.49517844 -.49517844 .8687913 -327.00867 268.94814)" width="773.6181" xlink:href="#h"/><use height="890.58765" transform="matrix(-.8687913 -.49517844 -.49517844 .8687913 -319.06922 263.08573)" width="773.6181" xlink:href="#h"/><use height="890.58765" transform="matrix(-.8687913 -.49517844 -.49517844 .8687913 -333.20576 277.39619)" width="773.6181" xlink:href="#h"/><use height="890.58765" transform="matrix(.48750026 .87312283 -.87312283 .48750026 118.39075 740.25552)" width="773.6181" xlink:href="#h"/><use height="890.58765" transform="matrix(.880489 .47406659 -.47406659 .880489 83.988986 518.22996)" width="773.6181" xlink:href="#h"/><use height="890.58765" transform="matrix(.880489 .47406659 -.47406659 .880489 81.754573 530.79796)" width="773.6181" xlink:href="#h"/><use height="890.58765" transform="matrix(.880489 .47406659 -.47406659 .880489 78.512932 539.23308)" width="773.6181" xlink:href="#h"/><use height="890.58765" transform="matrix(.79354336 .6085137 -.6085137 .79354336 110.1254 597.21714)" width="773.6181" xlink:href="#h"/><use height="890.58765" transform="matrix(.79354336 .6085137 -.6085137 .79354336 115.96326 589.49289)" width="773.6181" xlink:href="#h"/><use height="890.58765" transform="matrix(-.99388403 -.11042893 -.11042893 .99388403 -485.93077 350.89938)" width="773.6181" xlink:href="#h"/><use height="890.58765" transform="matrix(-.99388403 -.11042893 -.11042893 .99388403 -484.5398 341.50381)" width="773.6181" xlink:href="#h"/><use height="890.58765" transform="matrix(-.99388403 -.11042893 -.11042893 .99388403 -494.3344 361.86901)" width="773.6181" xlink:href="#h"/><use height="890.58765" transform="matrix(.79354336 .6085137 -.6085137 .79354336 107.85986 608.6783)" width="773.6181" xlink:href="#h"/><use height="890.58765" transform="matrix(-.99388403 -.11042893 -.11042893 .99388403 -494.71321 350.50479)" width="773.6181" xlink:href="#h"/><use height="890.58765" transform="matrix(.46102017 .88738967 -.88738967 .46102017 115.93636 623.58016)" width="773.6181" xlink:href="#h"/><use height="890.58765" transform="matrix(.46102017 .88738967 -.88738967 .46102017 118.67358 632.42494)" width="773.6181" xlink:href="#h"/><use height="890.58765" transform="matrix(.46102017 .88738967 -.88738967 .46102017 106.04069 640.19531)" width="773.6181" xlink:href="#h"/><use height="890.58765" transform="matrix(.31348598 .94959282 -.94959282 .31348598 96.740143 706.01611)" width="773.6181" xlink:href="#h"/><use height="890.58765" transform="matrix(.31348598 .94959282 -.94959282 .31348598 105.89386 706.58014)" width="773.6181" xlink:href="#h"/><use height="890.58765" transform="matrix(-.759402 -.65062172 -.65062172 .759402 -263.02245 166.48947)" width="773.6181" xlink:href="#h"/><use height="890.58765" transform="matrix(-.759402 -.65062172 -.65062172 .759402 -254.55396 168.52476)" width="773.6181" xlink:href="#h"/><use height="890.58765" transform="matrix(-.759402 -.65062172 -.65062172 .759402 -268.81206 172.47591)" width="773.6181" xlink:href="#h"/><use height="890.58765" transform="matrix(.31348598 .94959282 -.94959282 .31348598 90.077199 712.42284)" width="773.6181" xlink:href="#h"/><g stroke="#000" transform="translate(-634.66868 207.23547)"><path d="m178.92857 504.33765s-.53571 16.07143 19.33293 16.07143c19.86863 0 19.33292-16.07143 19.33292-16.07143z" fill="#dcdddf" stroke-width="2"/><path d="m384.61558 303.68902 191.67644-63.63961s44.11192 68.00653 27.90703 149.51013c-16.23207 81.64035-47.90046 105.44381-47.90046 105.44381s-57.20021-11.38929-105.94145-57.98713c-58.82088-56.23423-65.74156-133.3272-65.74156-133.3272z" fill="#dcdddf" stroke-width="4"/><g stroke-width="2"><path d="m430.30966 386.47557c-.73921-2.51909-2.7626-10.56064 16.17776-24.1977s33.49225-12.73119 35.22907-7.95495c1.51523 4.16688-.57642 9.95495 1.51523 17.42513s9.09137 17.42513 9.09137 17.42513 1.89404-9.47018 10.60661-9.47018l-1.51523 7.57614c-3.49425 3.11544-3.47383 6.97985-3.47383 6.97985l6.88309 4.38436s7.19734-4.16687 3.78807-9.84897c-3.40926-5.68211 2.65165-4.9245 2.65165-4.9245s12.12183 8.33376-.75761 19.69797c0 0 7.19734 4.67196 22.72843 3.91434 15.5311-.75761 26.51651-15.53109 26.51651-15.53109s-7.95495-2.65165-7.57615-15.5311l5.3033-1.51523s.75762 8.33376 6.43973 10.98541c0 0 4.16687-3.40926 4.54568-11.74302 0 0-5.3033-1.13642-9.47018-.37881l-1.13642-4.92449s7.95495-2.65165 14.01587.75761c0 0 4.54568-15.15228 4.54568-27.65292 0 0-4.32449-1.30738-2.65165-6.88352 1.67285-5.57615 12.07362-4.56551 13.813.084 1.73939 4.64953-1.69117 6.42069-1.69117 6.42069s2.27285 19.69798-1.51523 34.47146c0 0 .37881 15.53109-7.57614 24.24366 0 0-21.43996 58.51707-89.47567 28.51707 0 0-9.51928-.86415-19.36827-14.1224 0 0-14.39467-15.15229-27.27411-22.72843-7.57614 0-9.63017-2.95644-10.36939-5.47553z" fill="#da2c27"/><path d="m504.375 289.71875c-15.25432.28887-26.85521 14.25363-24.9375 26.71875 1.84935 12.02081 13.23061 25.55134 27.40625 33.03125-2.85258 4.18575-5.47263 8.86522-6.9375 14.71875-3.54636 14.17102 1.5 23.46875 1.5 23.46875 3.03046 5.30331 11.375 3.41609 11.375-3.78125 0-5.73631 1.12455-16.17295 7.78125-29.09375 16.3852 6.30359 26.24793 21.30658 30.84375 23.78125 4.92449 2.65165 11.76142.01745 10.625-7.9375-1.00351-7.02455-15.60696-18.47987-34.65625-27.0625 11.41962-17.7229 4.74521-46.32567-14.21875-52.5-3.01386-.98126-5.95638-1.39724-8.78125-1.34375zm1 12.625c8.15695.03462 13.84375 10.89571 13.84375 22.4375 0 5.17189-1.84165 9.38039-4.40625 13.4375-18.22144-8.8673-27.76764-25.101-16.8125-33.15625 2.59863-1.91076 5.09106-2.72844 7.375-2.71875z" fill="#da2c27"/><g fill="none"><path d="m514.8125 338.21875c-2.32625 3.68005-5.24346 7.25103-7.96875 11.25m13.71875 5.3125c1.69545-3.2909 3.73247-6.73225 6.21875-10.3125.20621-.29694.39819-.60275.59375-.90625"/><path d="m440.0477 391.82483s32.19861-5.68211 42.42641-30.30458m-14.77348 53.41182s24.24366-9.51614 24.62246-26.18365m-4.92449 40.19952c.75761 0 20.61807-7.04552 22.49307-25.12847m49.4803-11.99464s11.74302 0 17.42513 8.71257m-4.41176-30.54946s7.44222.24488 11.9879 6.6846"/></g></g></g></g></svg>