<svg height="890.58765" width="773.6181" xmlns="http://www.w3.org/2000/svg" xmlns:xlink="http://www.w3.org/1999/xlink"><g transform="translate(634.66868 -207.23547)"><g stroke="#000"><path d="m133.94795 212.23547h-763.61663v515.83226h.002c0 .0605-.002.1215-.002.18201 0 200.80035 171.51594 364.57336 381.80881 364.57336 210.29337 0 381.80931-163.77301 381.80931-364.57336 0-.0605-.002-.1215-.002-.18201h.002v-515.83226h-.001z" fill="#0166b4" stroke-width="10"/><g fill="#ffd30d" stroke-width="3" transform="translate(2.08982)"><path id="a" d="m-567.48504 294.82447c-1.98618 1.60234-2.50442 4.05717-2.53715 6.36422l.0987 10.52702 9.91554-.0337c2.73354-.0293 5.78993-1.94254 7.45079-3.9679l.0977 24.55825c-1.87807-1.65392-4.25504-2.48211-6.60077-2.54757l-10.86871-.004-.11605 11.8199 11.47275-.0129c2.80198.006 5.24144-1.90435 6.63499-2.98101l-.0178 23.72014c-2.32242-2.12009-5.13878-2.28473-6.85568-2.26589l-11.38893-.0188.0114 9.78907c.27326 2.51385 2.78562 5.96599 4.21934 6.76344l-26.0733-.0446c2.02685-1.16592 3.35643-3.73482 3.47941-5.93475l-.002-10.43279-11.52383.0273c-2.3368.23259-4.8442 1.47488-6.51398 2.87091l-.0679-24.44567c1.43818 1.79972 4.1747 3.34552 6.32553 3.2384l11.78518-.27177-.17655-11.68699-11.69889.0149c-2.50988.1096-4.10527 1.3762-6.2437 2.88381l.003-23.94875c2.15529 2.00949 4.16875 3.10201 7.00446 2.91654l11.07551-.0709.0218-10.15111c.0848-2.87835-1.68863-5.2087-3.24088-6.88444l24.33012.21027z" fill="#ffd30d" stroke="#000" stroke-width="3"/><path id="b" d="m-537.76668 800.97724c-1.98619 1.60234-2.50443 4.05717-2.53766 6.36422l.0987 10.52702 9.91604-.0332c2.73354-.0293 5.78944-1.94304 7.45079-3.96839l.0972 24.55825c-1.87757-1.65391-4.25504-2.48211-6.60077-2.54757l-10.86822-.004-.11604 11.8199 11.47275-.0129c2.80198.006 5.24094-1.90435 6.63449-2.98101l-.0174 23.72014c-2.32291-2.12009-5.13878-2.28473-6.85568-2.26589l-11.38893-.0188.0114 9.78908c.27275 2.51384 2.78511 5.96648 4.21884 6.76343l-26.07281-.0441c2.02685-1.16641 3.35643-3.73531 3.47942-5.93524l-.002-10.43279-11.52382.0273c-2.33681.23259-4.8447 1.47488-6.51448 2.87091l-.0675-24.44567c1.43818 1.79972 4.1747 3.34552 6.32553 3.2384l11.78518-.27177-.17655-11.68699-11.69938.0149c-2.50939.1096-4.10478 1.3762-6.24321 2.88381l.003-23.94875c2.1553 2.00949 4.16876 3.10201 7.00446 2.91654l11.07551-.0709.0218-10.15111c.0843-2.87835-1.68863-5.2087-3.24087-6.88444l24.33012.21027z" fill="#ffd30d" stroke="#000" stroke-width="3"/><path id="c" d="m-358.76772 224.96334c-1.98618 1.60233-2.50443 4.05717-2.53716 6.36421l.0987 10.52652 9.91554-.0332c2.73404-.0293 5.78994-1.94254 7.45129-3.9679l.0972 24.55775c-1.87807-1.65342-4.25504-2.48162-6.60077-2.54758l-10.86822-.004-.11654 11.8194 11.47275-.0129c2.80247.007 5.24144-1.90435 6.63499-2.98051l-.0174 23.71963c-2.32292-2.12008-5.13928-2.28423-6.85617-2.26539l-11.38894-.0193.0119 9.78908c.27276 2.51385 2.78512 5.96649 4.21884 6.76393l-26.0728-.0446c2.02685-1.16592 3.35643-3.73531 3.47942-5.93474l-.002-10.43279-11.52383.0268c-2.3368.23259-4.8442 1.47488-6.51399 2.87091l-.0674-24.44567c1.43818 1.79972 4.1747 3.34601 6.32504 3.2384l11.78518-.27177-.17655-11.68699-11.69889.0149c-2.50939.1096-4.10528 1.37669-6.24321 2.88381l.003-23.94876c2.1553 2.0095 4.16826 3.10202 7.00446 2.91654l11.07551-.0704.0218-10.1516c.0843-2.87786-1.68912-5.20821-3.24087-6.88394l24.32962.21027z" fill="#ffd30d" stroke="#000" stroke-width="3"/><path id="d" d="m-361.51019 975.56304c-1.98618 1.60234-2.50443 4.05717-2.53716 6.36422l.0987 10.52702 9.91554-.0337c2.73355-.0293 5.78994-1.94254 7.45079-3.9679l.0977 24.55772c-1.87807-1.6534-4.25504-2.4816-6.60077-2.5476h-10.86822l-.11654 11.8194 11.47275-.013c2.80198.01 5.24144-1.9039 6.63499-2.9805l-.0174 23.7201c-2.32291-2.1206-5.13928-2.2847-6.85617-2.2659l-11.38894-.019.0119 9.789c.27276 2.5134 2.78512 5.966 4.21884 6.7635l-26.07329-.045c2.02684-1.1659 3.35642-3.7348 3.47991-5.9347l-.002-10.4328-11.52383.027c-2.3368.2321-4.8442 1.4749-6.51399 2.8709l-.0679-24.4457c1.43819 1.7997 4.17471 3.3455 6.32554 3.2384l11.78518-.2722-.17655-11.6865-11.69889.015c-2.50988.1096-4.10528 1.3762-6.24371 2.8838l.003-23.94917c2.15529 2.00999 4.16875 3.10202 7.00445 2.91654l11.07551-.0704.0218-10.1516c.0848-2.87786-1.68862-5.20822-3.24087-6.88395l24.33012.21027z" fill="#ffd30d" stroke="#000" stroke-width="3"/><path id="e" d="m-566.32953 547.54436c-1.98618 1.60234-2.50443 4.05717-2.53716 6.36422l.0987 10.52652 9.91554-.0332c2.73355-.0293 5.78994-1.94254 7.45079-3.9679l.0977 24.55775c-1.87807-1.65342-4.25504-2.48161-6.60077-2.54757l-10.86822-.004-.11654 11.8194 11.47275-.0129c2.80248.007 5.24144-1.90386 6.63499-2.98052l-.0174 23.72013c-2.32291-2.12057-5.13928-2.28473-6.85617-2.26588l-11.38894-.0189.0119 9.78908c.27276 2.51336 2.78512 5.96599 4.21885 6.76344l-26.0733-.0446c2.02685-1.16592 3.35642-3.73482 3.47991-5.93475l-.002-10.43279-11.52383.0273c-2.3368.23209-4.8442 1.47488-6.51399 2.87091l-.0674-24.44567c1.43769 1.79972 4.17421 3.34552 6.32504 3.2384l11.78518-.27227-.17655-11.68649-11.69889.0149c-2.50988.1096-4.10528 1.37619-6.24371 2.88381l.003-23.94925c2.1548 2.00999 4.16826 3.10202 7.00446 2.91654l11.07501-.0704.0218-10.1516c.0848-2.87786-1.68863-5.20822-3.24088-6.88395l24.33012.21027z" fill="#ffd30d" stroke="#000" stroke-width="3"/><g transform="matrix(-1 0 0 1 -499.89889 0)"><use height="891.16077" width="774.13977" xlink:href="#a"/><use height="891.16077" width="774.13977" xlink:href="#b"/><use height="891.16077" width="774.13977" xlink:href="#c"/><use height="891.16077" width="774.13977" xlink:href="#d"/><use height="891.16077" width="774.13977" xlink:href="#e"/></g></g><path d="m-527.18982 315.18471h558.660412v395.21914h-.002c0 .0461.002.0927.002.13886 0 153.84957-125.48014 279.32921-279.329212 279.32921-153.84957 0-279.32921-125.47964-279.32921-279.32921 0-.0461.001-.0927.001-.13886h-.001v-395.21914h-.002z" fill="#da2c27" stroke-width="8"/><path d="m331.4563 215.30067c17.05819 2.96296 23.30458-6.35187 41.66879-7.57614 18.36422-1.22429 32.19862 12.87944 32.19862 12.87944l1.51523-7.57614s-13.77348-20.19543-39.77476-16.66752c-23.29989 3.16138-35.98669 9.84899-51.32838-3.03045-1.84285 5.52856-1.34774 19.00611 15.7205 21.97081zm20.59727-30.5166s2.14286 8.30358 6.42857 11.51786c0 0 3.48215-8.30357 6.96429-12.05357 0 0 .80358 5.35714 4.01786 8.03571 0 0 3.48214-3.75 3.75-9.375.26785-5.625-21.16072 1.875-21.16072 1.875zm8.03572 39.10715s-2.00893-6.16072.53571-12.32144c0 0 6.96428 6.16072 9.91071 11.25001 0 0 .53572-7.76786 2.14286-10.44643 0 0 8.2987 3.82143 10.17858 10.71429-9.63799 6.62499-22.76786.80357-22.76786.80357zm-170.05434 8.3295s.75761-17.42513-16.28871-33.71384c0 0 25.38008-2.08343 29.92577 27.46353 0 0 4.16688-22.91784-10.6066-35.41848 0 0 23.10723-2.27284 25.75889 33.71384 0 0 4.54568-18.56155-2.65166-35.60787 4.54569-.00001 21.97082 8.71256 16.66752 37.88072zm-5.42957 194.95945s-24.62247-2.27285-31.06219 25.75889c0 0 15.9099-12.12183 27.65293-11.36422 0 0-21.59202 7.95495-20.07679 36.36549 0 0 11.14231-17.31418 25.91579-22.61748 0 0-20.10741 17.56672-9.87962 37.26469 0 0 4.9245-19.31916 21.21321-25.00127zm74.37248 224.5064c-32.95623-4.16688-40.53237 16.66752-40.53237 16.66752s20.07678-7.95496 35.22907-.75762c0 0-27.27412.37881-34.47146 18.56155 0 0 17.80394-8.71256 33.33504-.3788 0 0-26.51651-1.51523-31.441 17.80394 0 0 14.77348-7.57615 26.5165-2.65165 11.74303 4.92449 19.31917.75761 19.31917.75761zm190.12928 39.9725c-26.25 9.64286-26.78571 31.60715-26.78571 31.60715s13.92857-15.53572 30-17.14286c0 0-20.35714 14.46429-17.14286 32.14286 0 0 9.64286-17.14286 26.78572-18.75 0 0-18.21429 15.53571-14.46429 32.14285 0 0 13.125-17.94642 28.125-22.23214 15-4.28571-26.51786-37.76786-26.51786-37.76786z" fill="#dcdddf" stroke-width="2" transform="translate(-634.66868 207.23547)"/></g><path d="m402.85714 601.4805c5.89286 10.71429 15.53572 15 15.53572 15 2.67857 8.03572-1.07143 26.25-1.07143 26.25 10.71428 2.67857 20.89286-10.71428 20.89286-10.71428 4.28571 6.96428 2.14285 24.10714 2.14285 24.10714 12.85715-2.14286 16.07143-17.14286 16.07143-17.14286 6.42857 8.03572 6.42857 17.14286 6.42857 17.14286 13.39286-1.07143 12.85714-17.14286 12.85714-17.14286s21.42858 2.67857 24.10715 11.78572c2.67857 9.10714-4.28571 20.89285-12.85714 26.78571s-11.78572.53572-23.03572-.53571-16.60714 11.25-16.60714 19.82143c0 8.57142 19.82143 28.92857 24.64286 32.14285 4.82143 3.21429 8.57143-1.07143 24.64285-2.14285 16.07143-1.07143 23.57143-1.60715 30.53572-11.25 6.96428-9.64286 12.85714-19.82143 12.85714-19.82143 2.67857 2.14285 8.03572 3.21428 8.03572 3.21428-1.60715-11.78571 2.14285-21.96428 2.14285-21.96428 4.28572 4.82143 12.32143 9.64285 12.32143 9.64285-6.42857-20.35714 5.35714-30.53571 9.64286-51.42857 4.28571-20.89285-17.14286-25.17857-26.25-26.25s-25.17857-16.07143-25.17857-26.25 8.57143-12.32143 8.57143-12.32143c11.25 11.25 24.10714 6.42858 24.10714 6.42858-9.10715-8.57143-.5932-22.16601.53571-40.17857s-10.72882-22.20525-20.56803-23.86849c0 0-14.39467-51.51778-21.2132-67.42768s-11.7902-51.38241-11.7902-51.38241c13.92858-4.82143 23.57143-18.75 23.57143-18.75-3.92136-3.98569-5.51621-7.19588-6.42857-10.17857 28.92857 1.07143 33.21429-15.53571 33.21429-15.53571-19.28572 2.67857-19.28572-9.64286-19.28572-9.64286 32.83548 1.54215 26.78572-18.21429 26.78572-18.21429-16.60715 4.82143-21.96429-8.03571-21.96429-8.03571 26.25-4.82143 21.96429-21.42857 21.96429-21.42857-22.5 4.28571-24.51288-15.37881-24.51288-15.37881l-4.41569-8.72833 4.28571-15.99067c17.14286-9.06907 9.73214-29.00933 9.73214-29.00933-6.42857 8.03571-17.67857 6.69642-17.67857 6.69642 8.83929-10.98214 8.83929-23.57142 8.83929-23.57142-6.96429 1.875-16.33929 2.41071-16.33929 2.41071 2.67857-8.83929 1.25-20.71429 1.25-20.71429-16.67213 9.32904-15.80357-2.06997-21.49356-13.5688-6.27373-12.67849-17.88144-18.84191-17.88144-18.84191 9.91072-7.23214 13.4647-15.08659 4.01786-25.71429-9.73759-10.95478-21.35012-1.00643-21.35012-1.00643s-8.11417-9.17214-16.41774-3.54714-3.48214 16.51786-3.48214 16.51786c-5.89286-.80357-15.66072-5.75953-29.73215-4.82143-14.07143.93809-11.24999 16.33929-11.24999 16.33929-11.36331 1.043-22.83307-2.86862-31.875-1.33929-9.04194 1.52933-10.33091 6.45168-13.39286 6.96429.26786-6.42858-4.55357-11.78572-11.78572-7.76786-7.23214 4.01786-5.35714 13.125-.80357 21.42857s8.03571 14.19643 8.03571 14.19643 18.3829-3.89884 32.77757.26804 23.86486 19.31917 18.94036 31.8198c0 0-13.44534.75762-26.61957 3.43619-10.02273 2.03781-18.07968.11094-18.07968.11094s-.58666 23.20467 10.29279 24.4846c10.87944 1.27994 12.60756-5.84085 23.04225-3.03045 11.12182 2.99547 11.36421 11.36421 11.36421 11.36421l-1.18221 23.2431s-10.03571 5.8474-33.21428 6.96428c-21.552 1.0385-32.67858 12.32143-32.67858 12.32143s-32.66105-3.69294-54.10714-13.92857-45.53571-15.53571-46.07143-22.5c-.53571-6.96428 4.82143-15 4.28572-24.64285-.56382-10.14882-3.75-11.25001-16.60715-12.85715-12.85714-1.60714-32.67857 3.21429-35.35714 10.17857-2.67857 6.96429 6.42857 30.53572 5.35714 42.85715-1.07143 12.32142 2.14286 27.85714 11.25 32.67857s22.09677 3.83168 38.03572 13.92857c15.60714 9.8867 18.6875 13.09953 18.21429 20.67096-.47322 7.57143-10.17858 14.15047-10.17858 14.15047s17.05095 4.46954 26.25-8.57143c0 0 9.20475 6.7747-4.81111 23.82102 0 0 12.50063 3.78807 20.45559-3.78807 7.95495-7.57614 18.18274-10.6066 21.59201 3.03046 0 0-33.12935 32.82945-50.80792 45.68659s-34.28571 15-42.85714 6.42857-27.85714-10.17857-38.03571 2.14286c-10.17858 12.32143 9.10714 43.39285 21.96428 46.07143 12.85714 2.67857 24.10714-3.21429 35.35714 5.35714s33.21429-11.25 47.14286-20.89286 21.42857-15 27.32143-4.28571c0 0 4.82143-2.14286 8.03571-11.78572 3.21429-9.64285 15-1.07143 14.46429 9.64286s5.35714 31.60714 17.67857 36.96429c12.32143 5.35714 24.10714 0 32.14286 16.60714 8.03571 16.60714 0 25.71428-13.39286 28.39286-13.39286 2.67857-32.67857-6.42858-57.32143-6.42858-24.64285 0-36.2738 17.07144-40.17857 27.32144-3.90476 10.25 1.65038 20.42856-4.82143 31.60714-6.47181 11.17857-14.99999 18.39286-14.99999 18.39286s13.39285 4.82142 24.64285-4.82144c0 0 1.96429 12.32143-8.21429 21.42858 0 0 10.17858 3.21428 23.03572-9.10715 0 0 1.07143 12.85715-4.82143 19.82143 0 0 9.10714 1.60714 17.14286-6.96428 0 0 16.60714 11.78571 6.96428 22.5-9.64285 10.71428-23.03571 9.64285-28.39285 2.67857-5.35715-6.96429-21.42858-14.46429-31.60715 2.67857s-3.75 47.67857 4.28572 51.42857c8.03571 3.75 38.03571-.53571 48.21428.53571 0 0-.53571 7.5 2.67857 13.39286 0 0 5.89286-15.53571 17.67858-17.67857 0 0-1.07143 14.46429 6.96428 18.21429 0 0 5.35714-18.21429 20.89286-18.75 15.53571-.53572 31.07143-5.89286 32.14286-22.5 1.07142-16.60715-10.17858-23.57143-10.17858-23.57143s-22.67857-48.92858 24.82143-51.78572z" transform="translate(-634.66868 207.23547)"/><path d="m461.6875 127.8125c-6.42537 3.76123-3.85075 11.70296-10.03125 13.90625-2.74176.72101-6.37721-.0894-9.3125-1.1875.23543.71569.4375 1.21875.4375 1.21875-.71711-.0978-1.5111-.23483-2.34375-.4375 3.65287 1.42948 8.20809 3.522 11.875 2.3125 5.80237-2.40109 6.41745-10.8765 10.34375-14.84375 0 0-.37658-.42156-.96875-.96875zm-60.00005 47.96865-.15625 1.0625 1.09375.0625s19.64888 1.21916 25.21875 18.625c2.94774 9.21168 1.28889 16.79646-2.53125 21.875s-9.81941 7.6391-15.6875 6.75c-12.69353-1.92327-19.84375 1.75-19.84375 1.75s7.25475-1.64606 19.5625.21875c6.63255 1.00493 13.33299-1.90849 17.5625-7.53125s5.95692-13.95882 2.84375-23.6875c-5.56335-17.38547-23.50876-19.63155-26.0625-19.875.0674-.59985.24308-1.96955.1875-5.40625 9.22866-2.64557 19.37037-2.27897 27.34375-1.3125-.74876-13.73777-9.2829-16.71998-16.77609-16.57917-7.49318.14081-11.39038.95364-14.4834 1.75678 1.11047 5.35649 2.48123 14.80717 1.72824 22.29114zm.62505-20.96865c2.13141 1.6643 3.69572 7.53733 7.46875 11.03125-2.26226.29647-4.27804.29132-6.03125 1.09375-.40854-4.26935-.77422-6.92551-1.4375-12.125zm9.4375.0312c.59262.0308 1.1767.17139 1.65625.4375 1.91816 1.06444 2.24753 5.03007-.59375 6.15625-2.8413 1.12617-4.95476-1.31749-4.84375-3.84375.0833-1.89467 2.0034-2.84228 3.78125-2.75zm6.09375.21875c6.35738.70906 10.06029 4.91198 10.34375 11.0625-5.11224-.63739-8.44904-.65956-13.15625-.53125 2.28387-3.15594 2.88666-6.95132 2.8125-10.53125zm-61.4375 2.8125c-2.95145 3.51854-6.73973 3.24229-10.9375 2.1875 3.31161 4.51478 9.95817 2.5779 12.59375-1.03125l-.65625-.4375c-.28736.1372-.56056.25986-.875.3125.0133-.31942-.0198-.65564-.0312-.96875zm123.15625 40c-4.66759 4.10904-3.42838 10.18936.28125 13.78125-2.18082 1.12389-7.98083 3.35725-16.28125.78125l-3.3125-1 2.28125 2.625s15.11468 16.33206 1.5625 36c15.70473-13.54801 4.57171-30.37666 1.4375-35.09375 9.92611 2.07915 16.5-2.25 16.5-2.25l1.125-.78125-1.0625-.84375c-4.30268-3.73125-5.56812-8.20573-2.53125-13.21875zm-32.96875 78.28125c-10.4012 11.44131-34.30436 28.13265-34.875 28.53125-1.34953-.31024-29.63828-6.57088-51.21875 8.84375-22.57248 16.1232-31.67407 45.03368-31.90625 45.78125l-14.3125 11.34375c.22337.63838.43986 1.29773.625 2.03125l15.21875-12.0625.21875-.1875.0625-.28125s9.11655-29.19039 31.25-45c21.18224-15.13013 50.09375-8.4062 50.09375-8.4062l.40625.0937.375-.25s24.62825-17.10046 35.53125-29.09375zm-208.1875 18.3438c-2.01926 7.62096-5.86199 12.04256-9.625 14.59375-1.88151 1.2756-3.73016 2.08488-5.21875 2.5625s-2.71974.625-2.84375.625v1.9375c.0549.0135.1012.0489.15625.0625.68884-.0241 1.74699-.22647 3.28125-.71875 1.64199-.52684 3.68061-1.40953 5.75-2.8125 4.13877-2.80595 8.37639-7.79952 8.5-16.25zm95.4375 2.875c-18.18332 14.46892-13.75 39.65625-13.75 39.65625s-.18188-28.30937 16.59375-39.25l-.0625-.0937c-.001.001-.0312.0312-.0312.0312s-1.15018-.12711-2.75-.34375zm73.09375 93.4375c-9.16372.07-19.04145 5.54178-23.75 16.34375-4.52104 10.37181-9.01312 17.2465-12.375 21.53125-1.86331 2.3748-3.22825 3.79996-4.1875 4.71875-.39903-4.38064-1.5035-7.84351-3.25-10.21875-2.02617-2.7556-4.70919-4.27794-7.3125-5.0625-5.20661-1.56912-10.21875-.28125-10.21875-.28125l-.90625.21875.15625.875c2.52867 17.27926-4.64275 27.63241-7.59375 31.0625.0109.37194.0189.74702 0 1.125-.032.64011-.0451 1.32397-.0312 2.03125 3.83583-4.78511 11.74638-16.9005 9.65625-33.5 1.04008-.21042 4.45174-.80735 8.375.375 2.28509.68866 4.50943 1.97658 6.25 4.34375s3.02609 5.85615 3.15625 11.0625l.0312 1.96875 1.5625-1.1875s2.40653-1.86065 5.875-6.28125 8.07015-11.47895 12.65625-22c4.3986-10.09089 13.52532-15.06102 21.90625-15.125 8.38093-.064 15.88681 4.65293 18.40625 14.21875-.69485-10.79133-9.24253-16.2887-18.40625-16.21875zm93.40625 3.1875c-.33063.19133-9.37862 5.47079-21.03125 16.59375-11.18088 10.67266-10.25588 28.45573-10 31.6875-8.3041-.80076-14.15625-10.59375-14.15625-10.59375l-1-1.71875-.78125 1.8125c-5.52366 12.70439-.15625 23.96875-.15625 23.96875s-2.71406-10.13106 1.3125-21.3125c2.24646 3.24427 7.8632 10 15.8125 10h1.125l-.125-1.09375s-1.95086-20.53128 9.34375-31.3125c10.44978-9.97479 18.3456-14.91263 20-15.90625-.0819-.55887-.34256-2.11649-.34375-2.125zm-241.59375 57.46875c5.33353 4.15659 6.77998 9.2248 6.84375 13.625.0417 2.87726-.74234 6.63854-1.3125 9 .71742-.43784 1.43704-.88045 2.15625-1.34375.45712-1.45332 1.20539-4.29677 1.15625-7.6875-.0702-4.84087-1.85585-10.78604-8.84375-13.59375zm129.09375 28.78125c-12.97016.15129-26.20172 6.23837-30.8125 8.5625 1.37224.48813 2.7435.84954 4.09375 1.15625 4.98197-2.75348 21.41079-10.81567 36.625-6.46875 9.00611 2.57317 14.16797 9.63714 17.25 17.375s3.99554 16.06921 5.53125 20.78125c.46429-4.9308-.47489-13.46554-3.6875-21.53125s-8.78736-15.74728-18.53125-18.53125c-2.41753-.69072-4.86772-1.08051-7.28125-1.25-1.05592-.0741-2.12069-.10619-3.1875-.0937zm46.09375 18.90625s1.41876 6.02874 1.875 12.9375-.93122 14.88792-8.34375 20c-7.95381 5.48539-15.79536 14.8309-21.15625 25.28125s-9.51214 24.19264-6.03125 37.3033c3.48089 13.11065 13.90158 23.65362 30.28125 26.54045 17.65421 2.98088 29.74433-7.20963 37.34375-16.4375 3.70281-4.49627 6.57904-6.96783 7.9375-9.125-2.6594.65533-5.67156 3.26413-9.46875 7.875-7.40058 8.98643-18.72565 18.55107-35.5 15.71875-12.97691-2.19113-24.44001-11.33941-28.65625-30.3125-2.0665-9.29928.65554-20.4816 5.875-30.65625s12.9181-19.3336 20.5-24.5625c8.12319-5.6022 9.70001-14.49358 9.21875-21.78125s-3.875-12.78125-3.875-12.78125zm100.71875 27.3125c1.13603 13.67387-.21632 24.39995-2.0625 31.71875s-6.3125 13.5625-6.3125 13.5625l.0625.0312c1.61063-1.02346 2.9375-1.375 2.9375-1.375.0481.0481.10813.0775.15625.125 1.51754-2.55696 3.86504-7.00407 5.09375-11.875 1.90382-7.54728 3.27467-18.53994.125-32.1875zm-259.96875 49.8125c-.14176 1.10582-.33295 2.22188-.625 3.34375.005.01-.005.0214 0 .0312 1.3321 2.69437 3.73921 6.90753 7.03125 10.15625 5.26726 5.19795 14.41346 10.27192 29.625 9-14.78846-.7362-23.30743-6.12206-28.21875-10.96875-3.47395-3.42824-6.3837-8.7241-7.8125-11.5625zm269.3125 32.3125c-10.04225 6.41779-10.4375 19.125-10.4375 19.125s3.38966-12.07892 14.0625-18.53125c-.60599-.0868-1.18873-.15639-1.71875-.21875-.59766-.0703-1.25512-.19002-1.90625-.375zm-170.28125 43.09375c-8.62129-.15193-16.92507 4.45418-19.59375 10.3125 7.08491-5.99722 18.08583-8.58251 26.25-6.84375-1.34659-1.27297-2.34375-1.875-2.34375-1.875s-.30919-.73958-.5-1.1875c-1.26386-.23985-2.54405-.3839-3.8125-.40625z" fill="#dcdddf" transform="translate(-634.66868 207.23547)"/><g stroke-width="2"><g fill="#dcdddf" stroke="#000" stroke-width="2"><path d="m-66.012448 445.8927c-14.348996 0-25.967765 11.65001-25.967765 25.99901s11.618769 25.96777 25.967765 25.96777c14.348997 0 25.999015-11.61877 25.999015-25.96777s-11.650018-25.99901-25.999015-25.99901zm0 10.71834c8.43188 0 15.280671 6.84879 15.280671 15.28067s-6.848791 15.24942-15.280671 15.24942-15.249422-6.81754-15.249422-15.24942 6.817542-15.28067 15.249422-15.28067z" stroke-linecap="square"/><rect fill-rule="evenodd" height="10.31643" rx="5.158215" stroke-linecap="round" width="36.371788" x="-108.83672" y="466.73059"/></g><path d="m-233.74648 458.67975h136.33473v6.060916h-136.33473z" fill="#dcdddf" fill-rule="evenodd" stroke="#000" stroke-linecap="round" stroke-width="1.206082" transform="matrix(.97123401 0 0 2.8312766 -5.562171 -835.3405)"/><g id="f" stroke-width="1.988187" transform="matrix(1.0119186 0 0 1 1.17434 0)"><rect fill="#dcdddf" fill-rule="evenodd" height="6.060916" rx="2.494743" stroke="#000" stroke-linecap="round" stroke-width="1.988187" width="134.09775" x="-232.62798" y="458.67975"/></g><use height="890.58765" stroke-width="2" transform="translate(0 20.357143)" width="773.6181" xlink:href="#f"/></g></g></svg>