<svg height="625" viewBox="0 0 132.29165 165.36459" width="499.99997" xmlns="http://www.w3.org/2000/svg"><path d="m132.29166 0v111.31206c0 30.86676-40.103609 43.03313-66.145837 54.05252-26.042216-11.01939-66.145823-23.18576-66.145823-54.05252v-111.31206z" fill="#ec2838"/><path d="m63.274691 25.053768c-9.963283 0-18.040244 8.07696-18.040244 18.040242s8.076961 18.039725 18.040244 18.039725c9.963282 0 18.040244-8.076443 18.040241-18.039725 0-9.963282-8.076959-18.040242-18.040241-18.040242zm0 2.871142c8.377417 0 15.168583 6.791683 15.168583 15.1691s-6.791166 15.168583-15.168583 15.168583c-8.377418 0-15.168584-6.791166-15.168584-15.168583s6.791166-15.169102 15.168584-15.1691z" fill="#998a65"/><path d="m23.100399 64.072573c-6.828672-.369117-10.796462-2.860807-16.0563846-1.568894 0 0 .9227198 5.260144 7.9359496 7.843964 6.215663 2.289982 13.28051 1.905487 16.671851.889352.662827.07498 1.381988.04115 2.148189-.15658 0 0-4.239683 2.22024-9.038208 2.958475-4.798526.738235-9.505068 1.199335-12.181169 3.967716 0 0 2.552281 2.559314 5.53713 3.229779s6.364174.657961 8.973613.06305c-2.527077 1.444601-3.613259 2.784086-5.282882 4.735629-1.669623 1.95154-2.39882 3.598746-2.39882 3.598746s4.983011 1.569191 9.873814-.460955c-2.49946 2.787862-2.491835 7.381979-2.491835 7.381979s5.075436.184486 8.85889-3.045291c-1.661027 3.506613-.645956 8.582427-.645956 8.582427s5.721614-.83066 9.597347-7.382502c-.777978 3.987138 1.476397 7.935952 1.476397 7.935952s4.521467-1.56897 5.721096-8.489923l-.461471-27.776088s-7.003888.08467-9.896035-3.912938c-2.765695-3.822822-3.194331-8.268409-.34675-11.159009 2.578351-2.617306 3.466004-8.647448-.922941-17.164327-4.114691-7.98468-10.120926-11.656703-19.747631-18.455721-9.798831-6.920584-13.3776401-9.9890191-15.7266887-13.6430944-.6746867 1.8262567-.859382 4.4274167 1.4355715 9.2661014 2.4421636 5.149062 9.0157192 10.561675 14.3551962 14.48542 4.563691 3.353654 7.263947 5.515792 10.364226 7.946802.111183.650965.29985 1.343363.610299 2.037601-1.904744-.817843-2.750598-1.340951-7.319968-4.372343-5.143369-3.412191-12.514656-8.176172-15.5907795-10.870137-3.1247127-2.736517-5.1593749-6.747908-5.1593749-6.747908s-1.3047862 3.001415 1.8272786 9.52655c3.1320647 6.525136 8.3521118 10.048724 14.0942298 13.572299 3.229871 1.981965 5.723108 3.324276 7.316867 4.137213.214122.93893.597453 2.068748 1.290875 3.100586-1.410401-.556297-2.598205-1.283848-4.441071-2.386933-2.751753-1.647116-8.352286-3.899009-13.088607-6.279722-4.6127564-2.318601-6.3468991-7.053831-6.3468991-7.053831s-1.696811 3.915132 1.8267617 9.918258c3.3068799 5.633942 13.1652454 11.727101 19.8670044 13.534057.727648 1.323136 1.985861 2.725721 4.145483 3.170348 0 0-3.543853-.48796-7.430554-2.029333-3.898449-1.546032-8.257671-2.262542-11.627197-4.245218-3.5300248-2.077117-4.7058773-3.044849-6.0900675-4.152202 0 0-.6165387 5.407496 4.0602172 10.242786 4.4384543 4.588909 12.9011123 7.747603 19.2897783 7.535457 1.047282.569889 2.334014.945941 3.886068.870231-.499549.22802-2.926062 1.143619-8.872843.822171z" fill="#fff" stroke="#ec2838" stroke-miterlimit="10" stroke-width=".529167"/><path d="m30.908203 29.837891-.1875.01563-.04687.18164s-.437299 1.671928-.08203 3.751953l.521484-.08984c-.300912-1.761787-.02506-3.039032.03906-3.316407.314848-.01834 3.37276-.170313 5.86621 1.592774-2.475119-2.441086-6.110351-2.135742-6.110351-2.135742zm.796875 5.833984-.484375.216797c.376528.84201 1.00876 1.662109 1.791016 2.439453-1.203846-.506646-3.408847-1.167665-6.761719.410156l-.152344.07031v.169922s.0014.903686.275391 2.105468l.515625-.117187c-.236586-1.03761-.233926-1.6598-.236328-1.800781 4.230091-1.890148 7.416015-.184571 7.416015-.184571-1.100005-1.146637-1.879671-2.228096-2.363281-3.30957zm-3.5625 8.306641-.439453.294922c.602329.896288 1.51627 1.662762 2.65625 2.238281-1.013174.04234-3.449375.265774-5.746094 2.453125l-.09766.09375.01758.132812s.181907 1.353496.974609 2.794922l.462891-.255859c-.702556-1.277507-.846873-2.346881-.865234-2.470703 2.637871-2.408953 6.076172-2.31836 6.076172-2.31836l1.736328.06055-1.640625-.576172c-1.457119-.511964-2.446675-1.423366-3.134764-2.447268zm-3.972656 14.322265-.05859.111328.05078.115235s1.144531 2.641575 3.798829 4.085937l.251953-.464843c-2.364394-1.286609-3.400489-3.508468-3.492188-3.708985 1.780174-3.256304 6.91737-3.364993 6.91737-3.364993s-1.230437-.315286-1.846225-.285792c-1.545732.07404-4.267057.89915-5.621926 3.512113zm7.6875 4.710938c-.5741.279067-3.980315 2.037715-5.095703 5.507812l-.04297.132813.08594.111328s1.852621 2.400849 4.818359 2.736328l.05859-.525391c-2.581898-.29206-4.191728-2.238184-4.345703-2.427734 1.08602-3.119979 4.243737-4.810604 4.753906-5.058594zm1.77539 7.863281s-2.975036 2.451728-2.707031 7.007812l.01172.175782.166016.05859s3.776869 1.238109 7.060546-.101563c-.463181.737982-2.200338 3.72823-.294921 7.539063l.06641.130859.144531.01367s1.38488.1367 2.986328-.31836c1.43433-.407572 2.980612-1.45388 3.939453-3.341797.105821.843741.514642 3.664193 2.158203 5.777344l.146485.189453.201172-.126953s.293849-.186509.732422-.625 1.038412-1.138804 1.701171-2.199218l-.447265-.28125c-.642269 1.027629-1.217177 1.695769-1.626953 2.105468-.274523.274471-.33011.297701-.427735.369141-1.612734-2.274286-2.02539-5.884766-2.02539-5.884766l-.115235-1.134765-.396484 1.070312c-.81551 2.195603-2.486399 3.146608-3.984375 3.572266-1.407793.400031-2.478661.295016-2.621094.283203-1.868275-3.970118.542969-7.394531.542969-7.394531l.640625-.898438-.978516.509766c-2.998998 1.559478-6.718551.386061-7.03125.285156-.149497-4.174225 2.492188-6.371094 2.492188-6.371094zm-6.673828 10.195312.263672.458985c1.31337-.750788 2.874279-1.399234 4.736329-2.137695-2.034247.235612-3.643731.903399-5.000001 1.67871zm2.126954 7.925782.394531.353515c2.463399-2.747641 5.893554-5.251953 5.893554-5.251953s-3.752563 2.070351-6.288085 4.898438zm6.326171 4.40039.478516.226563c1.621225-3.422584 5.388671-7.21875 5.388671-7.21875s-4.166352 3.401539-5.867187 6.992187zm8.929688 1.261719.519531.101563c.773534-3.964354 1.401368-5.772461 1.401368-5.772461s-1.138475 1.66098-1.920899 5.670898z" fill="#ec2838"/><path d="m73.553295 65.465743c3.339126 0 7.942662-1.50992 10.986612-5.565775 2.706975-3.606859 2.90985-5.624067.302384-9.303736-2.623971-3.70296-1.624716-10.928663 3.449735-17.830959s10.358006-9.363937 21.314914-16.253642c11.03284-6.9374477 15.09564-10.9070601 17.76927-14.4673114.76791 1.7793648.97813 4.313736-1.63394 9.0281804-2.77962 5.016852-10.26149 10.290488-16.33877 14.113485-5.19429 3.267543-8.26766 5.374165-11.796335 7.742755-.126543.634251-.341283 1.30887-.69463 1.985283 2.167945-.796844 3.522185-1.698028 8.200925-4.260077 5.90489-3.233479 8.68253-5.248515 12.52498-7.589467s7.96033-5.661127 7.96033-5.661127.51832 3.152528-2.73228 8.23792c-3.26497 5.107873-5.90789 6.761263-12.12666 10.35275-3.5959 2.07672-9.56348 4.602809-11.377458 5.394872-1.196395 1.483444-1.780471 1.912402-3.453373 2.966711 2.620363-.542013 5.074411-1.464963 8.796511-3.266153s6.82302-2.762742 12.14348-5.052068 7.76257-5.299525 7.76257-5.299525c.98269 1.637822-.52299 6.43892-4.59203 10.954308s-15.32867 8.8657-22.956468 10.626259c1.04586.448757 1.42019.762625 2.061003 1.119103 0 0 5.999535-.627765 11.908535-2.549762 5.90899-1.921996 9.48665-3.930938 10.89503-4.895441 0 0 .62732 4.709922-4.13118 8.921454-4.51602 3.996933-13.03217 5.426209-20.564602 6.133029l.680999 1.070135c1.499456.222165 3.411613.629143 8.518043.362959s7.65796-2.209048 11.89921-1.880809c0 0-.96523 4.946703-6.47533 7.253264-5.51009 2.306562-9.24539 1.810881-13.975141 1.481137 3.123491 1.119587 6.458641 1.042933 9.451061 1.97689 3.04749.951146 3.9674 2.048473 7.01328 4.745772-1.74915 2.560046-5.48005 3.250381-9.60508 2.839162 2.06679 1.465628 4.50543 3.815172 5.74384 7.566702-2.08123 1.040617-5.82536.658161-10.612048-1.371914 2.734678 4.127454 3.772658 8.161351 3.671788 10.473553 0 0-4.944928-.994776-8.728381-4.141624 1.661027 3.416576.645956 8.36206.645956 8.36206s-3.141277-.79131-6.273202-5.949818c.628673 3.139222-1.193056 6.248272-1.193056 6.248272z" fill="#fff" stroke="#ec2838" stroke-miterlimit="10" stroke-width=".529167"/><path d="m97.291016 30.441406c.04064.14447.327392 1.078548.05664 2.435547l.519532.103516c.317509-1.591345-.07422-2.873047-.07422-2.873047l-.04687-.152344-.154297-.0293s-.833331-.164044-2.078125-.0293c-1.244795.134748-2.901219.566877-4.395507 1.976563 3.122271-1.934269 5.88163-1.483072 6.172851-1.431641zm-1.457032 7.150391c1.073306-.228444 2.613002-.243158 4.455076.447265-.0699 1.269508-.746327 2.632307-1.142576 3.199219l.433594.302735c.470392-.672983 1.281252-2.177696 1.281252-3.697266v-.177734l-.16602-.06641c-2.046355-.824356-3.765838-.781835-4.970701-.52539-.235772.05018-.17863.08259-.375.144531.769249-.700173 1.404599-1.430686 1.796875-2.181641l-.46875-.246093c-.548588 1.050188-1.434805 2.105286-2.71875 3.235352 0 0 .75747-.196714 1.875-.434571zm.0918 6.5-.0332.527344s1.125125.06841 2.455078.46289c1.271296.377079 2.670124 1.083131 3.470704 2.232422-.0774.106771-.34884.504641-1.22852 1.283203-.986388.873015-2.557047 2.036737-4.888668 3.179688l-.853516.417968.945313.08398s.47202.03992 1.18164.289062l.175782-.5c-.39705-.139402-.44812-.119102-.681641-.164062 1.977205-1.04151 3.561-2.103291 4.47266-2.910156 1.02068-.903363 1.46093-1.535157 1.46093-1.535157l.0977-.142578-.0918-.146484c-.88624-1.427843-2.517866-2.182737-3.910153-2.595703-1.392287-.412967-2.572266-.482422-2.572266-.482422zm3.359375 9.136719-.322265.417968c.64838.50051 1.289549 1.290503 1.843749 2.214844-.21457.234743-2.018605 2.169733-5.253906 3.191406l-.470703.148438.384766.308594s.77088.624961 1.550781 1.693359l.427734-.3125c-.693251-.949696-1.190899-1.342959-1.390624-1.513672 3.311874-1.175193 5.312502-3.3125 5.312502-3.3125l.125-.140625-.0937-.164062c-.60851-1.072128-1.34921-1.941431-2.113284-2.53125zm-1.140625 8.761718-.464843.253907c.292143.535384.5307 1.143864.691406 1.789062-.06377.04463-.151559.100739-.279297.167969-.284359.149662-.713179.335463-1.257813.503906-1.089267.336887-2.646045.608418-4.498046.427734l-.886719-.08789.695312.55664s2.985107 2.449031 3.357422 6.154297c-.298161.126273-3.375537 1.387783-7.236328-.328125l-1.242187-.550781.943359.976563s.606814.625897 1.085937 1.851562c.461054 1.179441.75189 2.923539.253907 5.140625-.352069-.0076-3.347701-.104972-6.148438-2.396484l-.496094-.40625.06445.636719s.112534 1.108521-.01172 2.441406c-.124252 1.332885-.501568 2.86589-1.384766 3.707031l.365234.384766c1.054669-1.004447 1.417359-2.653613 1.546876-4.042969.10415-1.117248.03571-1.709862.0098-2.044922 3.013768 2.222226 6.289063 2.285156 6.289063 2.285156h.207031l.05078-.201172c.613463-2.453851.260926-4.385248-.251953-5.697265-.359095-.918617-.606137-1.125685-.839844-1.417969 3.949872 1.44269 7.216797.0957 7.216797.0957l.169922-.07617-.01367-.183593c-.249912-3.582072-2.529703-5.707529-3.175781-6.275391 1.640406.07399 3.071775-.131654 4.085937-.445313.574254-.177604 1.029316-.371514 1.347657-.539062.15917-.08377.28281-.16133.376953-.230469.04707-.03457.08777-.06634.125-.105469.03723-.03913.101562-.06459.101562-.230468v-.0293l-.0059-.0293c-.170684-.755907-.458769-1.445815-.791009-2.054681zm6.435549 17.117188.31836-.423828c-4.04492-3.054207-8.528323-3.968751-8.528323-3.968751s4.261003 1.410828 8.209963 4.392579zm-4.917971 6.144531.417971-.324219c-2.166107-2.776954-5.138674-4.623047-5.278322-4.398437 0 0 2.768951 2.041473 4.860351 4.722656zm-5.08789 6.28125.480469-.220703c-1.664461-3.629545-4.313477-6.722656-4.313477-6.722656s2.200296 3.383046 3.833008 6.943359zm-5.642578 2.371094.509765-.140625c-1.107653-4.003613-3.590821-7.236329-3.590821-7.236329s2.002477 3.478433 3.081056 7.376954z" fill="#ec2838"/><path d="m41.956341 114.88778s-2.399263 1.66103-4.337129 2.58382c-1.937867.9228-2.973839.31661-3.506616-.73823-.602846-1.19357-2.719971-3.85577-1.568747-5.8136 1.493397-2.53975.746669-4.61116-.830515-5.16764-1.568804-.55352-2.583821-.18456-2.583821-.18456s-1.384191-1.29191-2.86066-1.01507c-1.476469.27683-2.030145 1.7533-1.661028 2.76838 0 0 .738235-.9228 2.122425-.83052 1.38419.0923 1.753308 1.29191.922794 2.49155-.830515 1.19963-.645956 2.6761 1.015072 3.50661 1.661029.83051 3.414336 5.8136 3.414336 5.8136s-2.583822.0923-4.15257-.83051c-1.568749-.9228-1.47647-1.19964-2.030146-3.1375-.553676-1.93787-3.137498-2.30699-4.521688-2.03015s-1.753307 1.66103-1.753307 1.66103-1.568749-.27684-3.322057.18456c-1.753307.4614-1.661028 2.86066-.645955 4.24485 0 0 .461396-1.56875 2.122425-1.93787 1.661028-.36911 2.030145.27684 2.030145.27684s.276838 1.66103 1.845587 2.12243c1.568749.46139 1.47647-.64596 3.137498 0 1.661028.64595 5.925553 2.03014 5.925553 2.03014s-4.095799.96102-5.38771.96102-3.10941-.55967-4.413576.0541c-1.304166.61373-1.661028 2.12243-1.661028 2.12243s-2.676101.4614-3.506615 2.12242c-.830514 1.66103.922794 3.87574.922794 3.87574s.09228-2.12243 1.476469-2.86066c1.38419-.73824 2.122425.36911 3.968012.83051s2.583822-1.10735 3.598894-2.30698c1.015073-1.19963 2.484001-1.47007 4.591577-2.19888 2.29115-.79228 4.820916-.5695 6.020548.35331 1.199631.92279 2.122425 3.96801 1.476469 5.3522-.645955 1.38419-1.015072 3.41434 1.107353 4.33713 0 0 .09228 1.38417-1.568749 1.56873s-2.676101-.92279-2.676101-.92279.553676 2.49154 3.414335 2.86066c2.86066.36911 3.598895-2.95294 3.598895-2.95294s1.937866-1.01508 2.030145-3.04522c.09228-2.03015-2.676101-3.22978-3.506615-4.61397s.553676-2.95294 0-4.24485.738235-2.49154 2.214705-2.95294c1.476469-.46139 3.045218-1.29191 3.875732-2.58382s-2.676103-2.95295-4.33713-1.75331zm33.430719 2.52115s2.610054 6.65564 3.132065 9.26569c.52201 2.61006-.173962 2.70102-.727638 2.97786s-3.691173 1.19963-5.167643 1.01507c-1.476469-.18456-2.306984-.36912-2.86066-1.01507-.553676-.64596-1.29191-1.93787-2.76838-2.03015-1.476469-.0923-2.030146 1.19963-2.030146 2.49155 0 0-1.199631 1.01507-1.568748 2.12242-.369118 1.10735 1.199631 2.49154 1.199631 2.49154s-.09228-2.39926 1.753308-2.2147c0 0 .369117 1.75331 1.937866 1.75331s2.676101-1.19964 2.676101-1.19964 3.229777.55368 5.998157-.0923c0 0-2.214704 4.1526-4.060291 5.25995s-2.952939.73823-4.15257 1.84558c-1.199632 1.10736-.922794 3.32206-.922794 3.32206s-2.030145 1.75331-1.107352 4.06029c.922793 2.30699 4.060291 1.93787 4.060291 1.93787s-1.568749-1.19963-1.476469-2.76838 1.015072-1.56875 1.015072-1.56875 2.306984.4614 4.152571-1.38419.922793-2.95294 2.306984-5.16764c1.38419-2.21471 3.783453-4.98309 3.783453-4.98309s2.860659 4.89081 3.137497 6.55183c.276838 1.66103-.369117 3.1375 1.568749 4.0603 1.937866.92279 2.491543 2.12242 2.491543 3.13749 0 1.01508-.645956 2.12243-.645956 2.12243s1.845587.4614 3.137498-1.84559c1.291911-2.30698-.184559-4.06029-.184559-4.06029s.830514-1.10735.09228-2.86066-4.244849-2.86066-4.429408-2.86066-2.122425-5.62904-2.122425-5.62904 2.214704.36912 4.337129.55368 2.952939.92279 4.24485.92279 2.676101-1.56875 2.676101-1.56875 2.030146.83052 1.661028 3.22978c0 0 2.030145-.27684 1.568748-2.76838s-3.322056-2.58382-3.322056-2.58382.184558-1.66103-1.845587-2.21471c-2.030146-.55367-3.322057 1.75331-3.968012 2.49154-.645955.73824-2.952939.36912-4.337129 0-1.38419-.36911-3.783453-6.36727-3.691174-10.61212.09228-4.24485-3.783453-7.19779-4.890805-7.38235s-.65112 5.19725-.65112 5.19725z" fill="#998a65"/><g stroke="#ec2838" stroke-miterlimit="10" stroke-width=".529167"><path d="m57.812696 100.70458s-14.355297 5.48112-20.880432 9.5267c0 0 1.827038 1.69654 6.394633 1.69654 0 0-2.218546 2.34904-2.218546 5.35061 0 0 2.740556 1.04402 6.264129-.26101 0 0-2.610054 4.04558-.783016 7.56916 0 0 2.349049-2.61006 5.089605-4.30659 0 0-2.349048 4.30659-1.174524 8.09117 0 0 2.871059-3.78458 9.135189-12.13675 6.26413-8.35218 6.394632-9.4397 6.394632-9.4397z" fill="#fff"/><path d="m90.945478 121.15534c1.625134 1.96726 5.579067 5.97211 6.47075 6.77462.922793.8305 2.214708.83051 3.783462.55367 1.56874-.27684 3.78344-.36912 2.39925-2.21471-1.38419-1.84558-4.706243-5.8136-4.706243-5.8136s4.798523 3.04522 6.274993 3.96802c1.47647.92277 2.2147.83049 3.87573-.0923s2.58383-1.47647 1.3842-2.6761c-1.19964-1.19964-3.96802-3.32206-3.96802-3.32206s5.62904 3.1375 6.92095 2.58382c1.29192-.55368 2.43928-1.5565 3.1375-2.95294.69823-1.39644-1.19963-2.95294-1.19963-2.95294 3.78345 1.38419 4.70625.4614 5.99816-.73823s1.66103-2.6761 0-3.41434c-1.66103-.73823-6.50918-1.74161-15.04388-4.80306-8.534695-3.06145-13.848389-5.1624-18.922893-7.699655 0 0-1.174524-3.784578-4.306589-13.180773-3.132065-9.396194-5.611616-16.44334-9.6572-21.532945-4.045583-5.089605-6.237415-11.10411-5.314622-13.411094.922794-2.306983.369118-3.568135.369118-3.568135-2.952939-.153799-5.905878 3.568135-5.905878 3.568135s-.09228-2.583822 1.38419-6.459554c1.476469-3.875732-.929523-7.012909-.929523-7.012909-1.363247.210553-4.719302 2.209701-7.308153 5.742119s-2.141981 7.721126-1.56603 12.136751-1.885011 8.666501-5.022509 15.495172c-3.137498 6.82867-2.372645 15.912478 2.70681 24.02319 5.079452 8.110708 14.234945 12.639218 14.234945 12.639218l1.000521 17.70487s1.957541-.65252 4.045584-4.04559c0 0 1.044021 1.43553 2.871059 2.34905 0 0 1.566033-2.21854 1.957541-6.26413 0 0 2.479551 3.39307 7.047146 4.6981 0 0 .130502-3.00156-1.305027-5.87262 3.236243 4.11656 6.689622 5.80495 9.294288 5.79095z" fill="#fff"/><path d="m74.343037 40.673342c.315061-2.097318-.724458-4.530316-4.230141-5.856791s-7.123593 1.941709-7.123593 1.941709.65494 1.437505-.184559 5.789616c-.791265 4.102059-1.05573 6.533763-.598457 8.820127 2.213572-2.776363 3.371125-3.53078 6.234227-4.705415 1.052206-1.578309 2.19079-2.824788 4.24485-3.506615 0 0-.767919-1.043494-2.676102-.369117-1.702589.601717-4.709499 2.987027-6.747586 6.247967 0 0 1.210826-4.679218 3.794647-7.447598 2.583822-2.76838 4.976376-2.750559 7.286714-.913883z" fill="#998a65"/></g><g fill="#ec2838"><path d="m60.912095 41.492184c-.325893-.385927-.790033-.519529-.790033-.519529s-.527953.180408-.973627.650393c-.445675.469985-.9234 1.244793-1.080079 2.435547-.297817 2.263412-.320312 3.089844-.320312 3.089844 1.638611-.959943 2.131531-2.114438 3.676752-3.545901.10752-1.076347-.186808-1.724428-.512701-2.110354zm-.828968.242899c.04941.02111.141688.04688.29417.227451.1804.213632.344509.601028.321464 1.223685-.933971.860331-1.553685 2.208394-2.239729 2.875466.07112-.281339.398267-1.196318.562756-2.44644.110695-.841277.305945-1.224032.598856-1.53292.252296-.266057.407389-.322624.462483-.347242zm7.791873 22.51687c-2.251237-1.028349-3.664063-3.355469-3.664062-3.355469l-.289063-.505859-.191406.550781c-.746399 2.156263-2.924682 3.879574-3.173828 4.074219-1.876381-1.182708-2.751953-3.910156-2.751953-3.910156l-.214844-.71875-.283203.693359c-.704725 1.722662-1.822932 2.877766-2.123047 3.177734-.654058-.756154-1.138672-1.785156-1.138672-1.785156s-.08872 1.495542.929687 2.41211l.181641.162109.177734-.166016s1.292148-1.326824 2.177735-3.125c.230345.679842.998431 2.751576 2.923828 3.839844l.150391.08398.138671-.103516s2.263715-1.789414 3.263672-4.09375c.290885.477076 1.545407 2.445944 3.859375 3.388672l.183594.07422.123047-.152343s1.626953-1.962311 1.362305-4.042969c-.264649 1.637505-1.421033 3.209692-1.641602 3.501953zm4.597656 5.716797c-2.691436-.51478-4.332031-2.140625-4.332031-2.140625l-.291016-.304687-.148437.392578c-.925407 2.439709-2.772694 3.832999-2.996094 3.998046-2.660217-1.442314-3.90625-3.630859-3.90625-3.630859l-.267578-.490234-.210938.517578c-.91785 2.252904-2.916037 3.335187-3.146484 3.457031-2.350272-1.614232-2.992187-4.609375-2.992187-4.609375l-.158203-.791015-.341797.730468c-1.256929 2.693419-3.451172 4.633789-3.451172 4.633789s2.248109-1.439689 3.611328-3.956054c.175256.70497.83602 3.050974 3.166015 4.548828l.126954.08008.134765-.06641s2.182626-1.140445 3.320313-3.453125c.291772.483512 1.436361 2.278267 4.007812 3.605468l.142578.07422.13086-.09375s2.041022-1.538764 3.140625-4.078125c.319133.311948 1.860167 1.757205 4.601562 2.185547l.203125.03125.08008-.1875s.968636-2.219438-.24121-4.626953c.553484 2.177146-.05495 3.845306-.182618 4.173828zm-19.777344 9.904297.167969.08398.134766-.128906s1.768166-1.80013 2.703125-4.208984c.156623.261397.438482.763238 1.115234 1.621093.831782 1.054372 1.948992 2.238191 3.189453 2.734375l.140625.05664.121094-.09375s2.27822-1.819646 3.322266-4.625c.353468.490125 1.968219 2.627482 5.113281 3.5625l.15625.04687.111328-.117187s1.505564-1.730191 1.949219-4.066407c.38547.437307 2.067621 2.251939 5.199219 2.759766l.21875.03711.07227-.208984s1.172577-3.199727-.341797-5.44043c.808343 2.047388.01547 4.643904-.103515 5.018555-3.145896-.613154-4.949219-2.785156-4.949219-2.785156l-.400396-.494132-.06836.630859c-.249067 2.241606-1.673772 3.842973-1.853516 4.041016-3.198766-1.026732-4.955078-3.605469-4.955078-3.605469l-.30664-.460937-.166016.529297c-.849555 2.718574-2.984606 4.463427-3.197266 4.634765-1.023214-.463723-2.06399-1.503898-2.835937-2.482422-.806176-1.021913-1.328125-1.927734-1.328125-1.927734l-.298828-.519531-.181641.570312c-.750671 2.335422-2.413797 4.011476-2.646484 4.242188-2.263691-1.266417-2.731445-3.792969-2.731445-3.792969s-.06964 3.029146 2.649414 4.388672zm23.804688 3.853515c-.280936.813746-.623029 1.113112-.708984 1.197266-3.202764-1.288393-5.258789-3.625976-5.258789-3.625976s1.762334 2.892837 5.258789 4.21582l.152343.05664.119141-.109374s.5837-.537702.9375-1.5625c.3538-1.024799.489292-2.554374-.561523-4.445313.517933 1.984793.376749 3.36037.06152 4.273437zm-10.642578 2.861329c-3.185156-1.454222-4.644532-3.813477-4.644532-3.813477s1.100688 2.882461 4.59961 4.395508l.154297.06641.125-.109375s2.72882-2.355288 2.132812-5.736328c.02493 2.983563-2.155117 5.004422-2.367187 5.197266zm-9.666016.802734c-3.179309-2.143679-4.391602-4.523437-4.391602-4.523437s.808292 2.85865 4.28418 5.113281l.171875.111328.152344-.138672s2.296031-2.08515 2.12793-5.086914c-.346943 2.542335-2.102073 4.289217-2.344727 4.524414zm36.314453 33.130855c-.04879.0369-.03127.0429-.160156.10352-.262525.12341-.703357.25779-1.402344.26562l.0059.5293c.76514-.009 1.287132-.15849 1.623047-.3164.335914-.15791.505859-.34961.505859-.34961l.138672-.16602-.136719-.16797c-6.245092-7.80636-14.169921-20.06347-14.169921-20.06347s.56655 1.51686 1.902568 3.65625c2.643826 4.2336 7.53979 11.28551 11.693134 16.50878zm-26.736328-13.71093.529297-.0312-.569336-4.98731s-.09778.40211-.120612 1.23977c-.02283.83765.160651 3.77874.160651 3.77874zm5.050781 13.69531.519532-.10352c-.906487-4.53243-1.955078-13.25976-1.955078-13.25976s.514995 8.76052 1.435546 13.36328zm10.607422-5 .447266-.2832c-1.928786-3.02176-3.748047-7.42676-3.748047-7.42676s1.314485 4.5981 3.300781 7.70996zm-5.779296 1.07422.521484-.082c-.655706-4.19653-2.087891-8.44238-2.087891-8.44238s.917086 4.36875 1.566407 8.52441zm39.556642-1.33008.22656-.47852c-5.58304-2.65271-14.10351-6.03515-14.20117-5.78905 0 0 8.42261 3.6296 13.97461 6.26757zm-8.89063 3.30469.28907-.44336c-3.64344-2.37749-10.263676-5.89941-10.263676-5.89941s6.358726 3.98325 9.974606 6.34277zm-7.601559 2.09375.359375-.38672c-1.746776-1.63009-4.240235-3.5918-4.240235-3.5918s2.134365 2.34869 3.88086 3.97852z"/><path d="m43.224609 111.68359.205079.48829s4.74577-1.84349 8.183118-4.02107c.413081-.26169.808209-.46107 1.10985-.92132-3.627248 1.97164-9.498047 4.4541-9.498047 4.4541zm3.992188 5.1211.3125.42578s3.306542-2.19808 6.566756-5.93664c.369323-.42351.674475-.93037.976213-1.45398-3.962562 4.10859-7.855469 6.96484-7.855469 6.96484zm4.265625 3.29687.392578.35547s3.318477-3.37914 5.985904-7.5553c.272592-.42677.409927-.86119.60394-1.3656-3.206857 4.39864-6.982422 8.56543-6.982422 8.56543z"/></g></svg>