<svg height="225pt" preserveAspectRatio="xMidYMid meet" viewBox="0 0 183 225" width="183pt" xmlns="http://www.w3.org/2000/svg"><g transform="matrix(.1 0 0 -.1 0 225)"><path d="m755 2104c-272-61-495-254-580-503-87-257-29-535 152-731 165-178 357-262 598-262 239 0 430 82 592 256 188 201 245 472 157 737-76 230-277 418-524 489-101 29-296 36-395 14zm413-53c52-17 115-43 140-58 409-233 503-762 197-1100l-50-55v138c0 193-16 249-93 327-89 91-123 107-244 116-57 5-116 13-131 20-16 6-38 11-50 11-16 0-30 15-54 58l-31 57 24 40c31 51 31 100 0 157l-24 46 24 36c14 20 33 36 44 36 25 0 35 17 20 35-13 15-40 10-40-9 0-6-16-28-35-48l-34-36-38 19c-21 11-58 19-84 19-43 0-49 3-68 35-23 40-48 45-56 12-4-14-22-30-48-43-54-24-63-59-18-69 44-10 58-31 36-55-10-11-23-20-30-20-19 0-47-37-43-57 2-9 13-22 25-28 21-11 21-12-23-86-86-144-93-215-34-335 37-73 42-91 50-193 10-126 4-155-35-165-14-4-29-16-33-27-7-19-14-14-69 45-312 333-249 842 135 1090 142 92 271 127 452 122 109-3 137-7 218-35zm-548-151c0-6 11-22 24-35 19-19 31-23 59-18 56 9 106-26 157-110l23-39-30-30c-43-43-95-47-167-15-31 14-56 22-56 18 0-9 66-42 108-55 35-11 80 3 118 36 20 18 34 25 34 17-1-19-26-64-37-65-4 0-34-8-65-18-66-20-101-14-176 30-26 16-59 27-73 25-27-2-55 21-44 39 3 6 23 19 44 30 21 10 41 25 43 32 10 24-12 59-42 69-36 13-31 24 17 44 19 8 37 24 40 35 6 21 23 28 23 10zm13-309c71-35 110-37 184-13 25 8 31 8 27-3-3-7 4-32 16-55s17-39 11-35c-6 3-11 1-11-4 0-6 6-11 14-11 7 0 16-9 19-20 4-15 14-20 40-20 19 0 54-9 78-19 24-11 76-24 116-30 92-14 109-21 197-80 80-55 95-79 115-186 14-76 14-157 0-229-17-81-39-91-188-91-101 1-115 3-128 20-21 30 3 95 36 95 6 0 18 11 27 25 19 29 13 63-19 109-12 17-27 40-33 51-15 30-92 64-183 82-70 14-85 14-118 2-60-23-65-42-60-220 3-86 2-161-2-167-10-16-228-9-244 7-15 15 16 41 48 41 21 0 22 6 28 108 4 85 2 114-10 140-9 18-18 31-20 28-3-2 0-13 6-24 6-12 11-70 11-130v-110l-34-6c-22-4-37-14-41-26-9-28-65-28-65-1 0 12 9 21 25 25 42 11 48 37 43 185-5 120-9 144-34 206-40 96-40 194-1 278 26 58 67 118 77 113 3-1 35-17 73-35zm311-466c49-8 104-19 121-25 43-14 107-100 103-137-3-24-9-29-50-38-25-5-61-20-78-33-25-19-31-29-28-55 5-51 30-58 215-55 186 3 187 2 45-67-115-57-207-77-347-77-144 0-234 21-351 81-114 58-120 64-54 56 30-4 101-9 158-11 91-2 103-1 112 16 6 10 10 88 10 174 0 127 3 157 16 170 19 19 17 19 128 1zm166-251c-6-14-7-36-4-50 5-21 3-24-19-24-40 0-57 10-57 35 0 26 43 65 71 65 16 0 17-4 9-26z"/><path d="m703 1803c-22-8-14-23 13-23 15 0 24 5 22 12-5 14-18 18-35 11z"/><path d="m750 1486c0-9 7-16 16-16 17 0 14 22-4 28-7 2-12-3-12-12z"/><path d="m697 1484c-8-8 1-24 14-24 5 0 9 7 9 15 0 15-12 20-23 9z"/><path d="m810 1465c0-9 5-15 11-13s11 8 11 13-5 11-11 13-11-4-11-13z"/><path d="m640 1455c0-8 7-15 15-15s15 7 15 15-7 15-15 15-15-7-15-15z"/><path d="m580 1445c0-8 7-15 15-15s15 7 15 15-7 15-15 15-15-7-15-15z"/><path d="m531 1441c-10-6-10-10-1-16 13-8 24-1 19 14-3 6-10 7-18 2z"/><path d="m477 1423c-12-12-7-22 8-17 8 4 15 10 15 15 0 11-14 12-23 2z"/><path d="m1353 1122c5-37 7-118 4-180-5-132 7-160 18-38 8 102-3 262-20 276-9 7-9-6-2-58z"/><path d="m250 696c0-94-4-146-10-146-25 0-91 42-104 68l-15 27-1-47c0-26 5-69 11-97 8-40 7-55-5-80-39-74-7-130 108-187 54-26 83-35 112-32 37 3 39 5 39 38 0 37 14 100 21 100 3 0 21-8 42-19 65-33 226-79 318-92 153-20 319 3 502 70l82 29 10-36c5-21 8-51 7-67-2-27 1-30 33-33 50-5 99 12 167 58 77 51 90 77 67 141-15 42-16 58-6 126 7 43 12 89 12 103 0 24-1 24-20-8-20-33-74-72-99-72-11 0-13 21-8 119l5 119-61-50c-128-103-299-163-497-174-239-14-476 70-645 228l-65 60zm143-4c71-49 202-109 292-133 115-32 333-32 459-1 104 26 231 84 299 135 26 21 48 37 50 37 1 0-2-69-6-152-9-178-1-165-142-227-277-122-521-140-771-57-102 35-224 91-276 128l-28 19v176 175l38-34c21-19 59-49 85-66zm-198-146c49-23 55-30 55-83 0-34 11-57 60-130 33-48 60-93 60-100 0-38-134 6-203 67-42 36-48 70-21 121 12 25 13 40 5 80-13 59-14 72-3 67 4-2 25-12 47-22zm1410-50c-6-50-3-75 10-111 18-45 17-47-1-71-32-44-128-96-184-102-28-2-50 0-50 5s20 38 45 74c67 96 76 116 82 175 3 30 11 54 17 54s27 9 46 19c19 11 36 20 38 20 2 1 0-28-3-63zm-1228-152c3-8 2-24-3-35-9-18-12-16-44 28-48 66-48 67-1 43 23-11 45-28 48-36zm1076 24c-5-7-23-30-38-51-27-36-29-38-37-18-11 30-2 45 35 64 39 19 52 21 40 5z"/><path d="m376 588c-3-13-8-53-11-90-7-67-6-68 22-79 15-6 58-24 94-40s80-29 97-29h32v85c0 66-3 85-14 85-16 0-146 53-188 76-26 14-28 14-32-8zm49-26c6-4 10-35 10-69 0-58-2-63-22-63-30 0-32 7-26 78 6 59 14 72 38 54zm97-103c-2-35-5-65-8-68-9-10-52 19-57 38-4 18-1 21 25 21 17 0 27 4 23 10-3 6-17 10-31 10-19 0-24 5-24 24 0 49 8 57 43 42 32-13 32-13 29-77zm52 45c23-9 20-23-4-17-11 3-20 9-20 14 0 11 3 11 24 3zm16-84c0-47-2-50-25-50s-25 4-25 43c0 48 5 57 32 57 15 0 18-8 18-50z"/><path d="m1275 550c3-5 15-10 25-10 13 0 17-5 14-15-5-11-2-13 10-9 9 3 16 15 16 25 0 15-7 19-36 19-21 0-33-4-29-10z"/><path d="m682 498c-7-7-12-21-12-32 0-18 1-19 20-1 20 18 27 45 12 45-4 0-13-5-20-12z"/><path d="m1254 470c-12-5-29-19-37-31-15-21-17-21-42-5-34 22-62 13-82-29-19-41-13-59 27-80 41-21 53-9 17 17-30 22-33 36-13 63 13 18 15 18 39 2 35-23 49-21 77 8 13 14 31 25 41 25 21 0 31-24 16-39-8-8-8-14 2-23 10-11 15-9 27 6 37 50-13 110-72 86z"/><path d="m895 449c-38-5-77-6-87-3-9 3-19 0-23-6-3-6 4-11 17-11 13-1 39-2 58-3 109-5 106-4 87-23-14-14-32-17-93-15-46 1-82-2-90-9-18-15-18-47 0-65s193-33 182-16c-4 7-24 12-44 12s-54 3-75 7c-31 5-38 9-35 27 3 19 8 21 54 18 51-4 99 11 139 43 19 15 19 15 0 33-17 16-30 17-90 11z"/></g></svg>