<svg clip-rule="evenodd" fill-rule="evenodd" height="1807" image-rendering="optimizeQuality" shape-rendering="geometricPrecision" text-rendering="geometricPrecision" viewBox="0 0 2185 1807" width="2185" xmlns="http://www.w3.org/2000/svg" xmlns:xlink="http://www.w3.org/1999/xlink"><path d="m0 0h2185v1807h-2185z" fill="#0566b2"/><path d="m286 278h1613v1256h-1613z" fill="#da2c27" stroke="#000" stroke-width=".9"/><path d="m115 1608v-36l-3-6h47l-3 6v36h36l6-3v47l-6-3h-36v41h36l6-3v48l-6-3h-36v35l3 6h-47l3-6v-35h-35l-6 3v-48l6 3h35v-41h-35l-6 3v-47l6 3z" fill="#fad60a"/><path d="m107 1600v-26l-2-4-6-12h13 47 13l-5 12-3 4v26h26l4-2 12-6v13 47 13l-12-6-4-2h-26v25h26l4-2 12-5v12 48 13l-12-6-4-2h-26v25l3 5 5 11h-13-47-13l6-11 2-5v-25h-26l-4 2-11 6v-13-48-12l11 5 4 2h26v-25h-26l-4 2-11 6v-13-47-13l11 6 4 2zm8 8v-36l-3-6h47l-3 6v36h36l6-3v47l-6-3h-36v41h36l6-3v48l-6-3h-36v35l3 6h-47l3-6v-35h-35l-6 3v-48l6 3h35v-41h-35l-6 3v-47l6 3z"/><path d="m115 842v-36l-3-6h47l-3 6v36h36l6-3v47l-6-3h-36v41h36l6-3v47l-6-2h-36v35l3 6h-47l3-6v-35h-35l-6 2v-47l6 3h35v-41h-35l-6 3v-47l6 3z" fill="#fad60a"/><path d="m107 834v-26l-2-4-6-12h13 47 13l-5 12-3 4v26h26l4-3 12-5v13 47 13l-12-6-4-2h-26v25h26l4-2 12-6v13 47 13l-12-5-4-2h-26v25l3 4 5 12h-13-47-13l6-12 2-4v-25h-26l-4 2-11 5v-13-47-13l11 6 4 2h26v-25h-26l-4 2-11 6v-13-47-13l11 5 4 3zm8 8v-36l-3-6h47l-3 6v36h36l6-3v47l-6-3h-36v41h36l6-3v47l-6-2h-36v35l3 6h-47l3-6v-35h-35l-6 2v-47l6 3h35v-41h-35l-6 3v-47l6 3z"/><path d="m115 75v-35l-3-6h47l-3 6v35h36l6-3v48l-6-3h-36v41h36l6-3v47l-6-3h-36v36l3 6h-47l3-6v-36h-35l-6 3v-47l6 3h35v-41h-35l-6 3v-48l6 3z" fill="#fad60a"/><path d="m107 67v-25l-2-4-6-12h13 47 13l-5 12-3 4v25h26l4-2 12-6v13 48 12l-12-5-4-2h-26v25h26l4-2 12-6v13 47 13l-12-6-4-2h-26v26l3 4 5 12h-13-47-13l6-12 2-4v-26h-26l-4 2-11 6v-13-47-13l11 6 4 2h26v-25h-26l-4 2-11 5v-12-48-13l11 6 4 2zm8 8v-35l-3-6h47l-3 6v35h36l6-3v48l-6-3h-36v41h36l6-3v47l-6-3h-36v36l3 6h-47l3-6v-36h-35l-6 3v-47l6 3h35v-41h-35l-6 3v-48l6 3z"/><path d="m2028 1608v-36l-2-6h47l-3 6v36h35l6-3v47l-6-3h-35v41h35l6-3v48l-6-3h-35v35l3 6h-47l2-6v-35h-35l-6 3v-48l6 3h35v-41h-35l-6 3v-47l6 3z" fill="#fad60a"/><path d="m2020 1600v-26l-2-4-5-12h13 47 13l-6 12-2 4v26h25l5-2 11-6v13 47 13l-11-6-5-2h-25v25h25l5-2 11-5v12 48 13l-11-6-5-2h-25v25l2 5 6 11h-13-47-13l5-11 2-5v-25h-25l-4 2-12 6v-13-48-12l12 5 4 2h25v-25h-25l-4 2-12 6v-13-47-13l12 6 4 2zm8 8v-36l-2-6h47l-3 6v36h35l6-3v47l-6-3h-35v41h35l6-3v48l-6-3h-35v35l3 6h-47l2-6v-35h-35l-6 3v-48l6 3h35v-41h-35l-6 3v-47l6 3z"/><path d="m2028 842v-36l-2-6h47l-3 6v36h35l6-3v47l-6-3h-35v41h35l6-3v47l-6-2h-35v35l3 6h-47l2-6v-35h-35l-6 2v-47l6 3h35v-41h-35l-6 3v-47l6 3z" fill="#fad60a"/><path d="m2020 834v-26l-2-4-5-12h13 47 13l-6 12-2 4v26h25l5-3 11-5v13 47 13l-11-6-5-2h-25v25h25l5-2 11-6v13 47 13l-11-5-5-2h-25v25l2 4 6 12h-13-47-13l5-12 2-4v-25h-25l-4 2-12 5v-13-47-13l12 6 4 2h25v-25h-25l-4 2-12 6v-13-47-13l12 5 4 3zm8 8v-36l-2-6h47l-3 6v36h35l6-3v47l-6-3h-35v41h35l6-3v47l-6-2h-35v35l3 6h-47l2-6v-35h-35l-6 2v-47l6 3h35v-41h-35l-6 3v-47l6 3z"/><path d="m2028 75v-35l-2-6h47l-3 6v35h35l6-3v48l-6-3h-35v41h35l6-3v47l-6-3h-35v36l3 6h-47l2-6v-36h-35l-6 3v-47l6 3h35v-41h-35l-6 3v-48l6 3z" fill="#fad60a"/><path d="m2020 67v-25l-2-4-5-12h13 47 13l-6 12-2 4v25h25l5-2 11-6v13 48 12l-11-5-5-2h-25v25h25l5-2 11-6v13 47 13l-11-6-5-2h-25v26l2 4 6 12h-13-47-13l5-12 2-4v-26h-25l-4 2-12 6v-13-47-13l12 6 4 2h25v-25h-25l-4 2-12 5v-12-48-13l12 6 4 2zm8 8v-35l-2-6h47l-3 6v35h35l6-3v48l-6-3h-35v41h35l6-3v47l-6-3h-35v36l3 6h-47l2-6v-36h-35l-6 3v-47l6 3h35v-41h-35l-6 3v-48l6 3z"/><path d="m753 1608v-36l-3-6h47l-3 6v36h36l6-3v47l-6-3h-36v41h36l6-3v48l-6-3h-36v35l3 6h-47l3-6v-35h-36l-5 3v-48l5 3h36v-41h-36l-5 3v-47l5 3z" fill="#fad60a"/><path d="m745 1600v-26l-2-4-6-12h13 47 13l-6 12-2 4v26h26l4-2 12-6v13 47 13l-12-6-4-2h-26v25h26l4-2 12-5v12 48 13l-12-6-4-2h-26v25l2 5 6 11h-13-47-13l6-11 2-5v-25h-26l-4 2-11 6v-13-48-12l11 5 4 2h26v-25h-26l-4 2-11 6v-13-47-13l11 6 4 2zm8 8v-36l-3-6h47l-3 6v36h36l6-3v47l-6-3h-36v41h36l6-3v48l-6-3h-36v35l3 6h-47l3-6v-35h-36l-5 3v-48l5 3h36v-41h-36l-5 3v-47l5 3z"/><path d="m1391 1608v-36l-3-6h47l-3 6v36h35l6-3v47l-6-3h-35v41h35l6-3v48l-6-3h-35v35l3 6h-47l3-6v-35h-36l-6 3v-48l6 3h36v-41h-36l-6 3v-47l6 3z" fill="#fad60a"/><path d="m1383 1600v-26l-2-4-6-12h13 47 13l-6 12-2 4v26h26l4-2 11-6v13 47 13l-11-6-4-2h-26v25h26l4-2 11-5v12 48 13l-11-6-4-2h-26v25l2 5 6 11h-13-47-13l6-11 2-5v-25h-26l-4 2-12 6v-13-48-12l12 5 4 2h26v-25h-26l-4 2-12 6v-13-47-13l12 6 4 2zm8 8v-36l-3-6h47l-3 6v36h35l6-3v47l-6-3h-35v41h35l6-3v48l-6-3h-35v35l3 6h-47l3-6v-35h-36l-6 3v-48l6 3h36v-41h-36l-6 3v-47l6 3z"/><path d="m753 75v-35l-3-6h47l-3 6v35h36l6-3v48l-6-3h-36v41h36l6-3v47l-6-3h-36v36l3 6h-47l3-6v-36h-36l-5 3v-47l5 3h36v-41h-36l-5 3v-48l5 3z" fill="#fad60a"/><path d="m745 67v-25l-2-4-6-12h13 47 13l-6 12-2 4v25h26l4-2 12-6v13 48 12l-12-5-4-2h-26v25h26l4-2 12-6v13 47 13l-12-6-4-2h-26v26l2 4 6 12h-13-47-13l6-12 2-4v-26h-26l-4 2-11 6v-13-47-13l11 6 4 2h26v-25h-26l-4 2-11 5v-12-48-13l11 6 4 2zm8 8v-35l-3-6h47l-3 6v35h36l6-3v48l-6-3h-36v41h36l6-3v47l-6-3h-36v36l3 6h-47l3-6v-36h-36l-5 3v-47l5 3h36v-41h-36l-5 3v-48l5 3z"/><path d="m1391 75v-35l-3-6h47l-3 6v35h35l6-3v48l-6-3h-35v41h35l6-3v47l-6-3h-35v36l3 6h-47l3-6v-36h-36l-6 3v-47l6 3h36v-41h-36l-6 3v-48l6 3z" fill="#fad60a"/><path d="m1383 67v-25l-2-4-6-12h13 47 13l-6 12-2 4v25h26l4-2 11-6v13 48 12l-11-5-4-2h-26v25h26l4-2 11-6v13 47 13l-11-6-4-2h-26v26l2 4 6 12h-13-47-13l6-12 2-4v-26h-26l-4 2-12 6v-13-47-13l12 6 4 2h26v-25h-26l-4 2-12 5v-12-48-13l12 6 4 2zm8 8v-35l-3-6h47l-3 6v35h35l6-3v48l-6-3h-35v41h35l6-3v47l-6-3h-35v36l3 6h-47l3-6v-36h-36l-6 3v-47l6 3h36v-41h-36l-6 3v-48l6 3z"/><g transform="matrix(2.0192757 0 0 2.0192757 1590.383597 -374.699305)"><g><path d="m351.40682 170.09634s4.54568-19.69797 6.06091-22.72843 50.76017-3.03046 61.74558-.37881c.3788.37881 3.03046 4.54569 4.54568 13.25826 1.51523 8.71256 1.13642 14.01586 1.13642 14.01586z" fill="#ffd30d" stroke="#000" stroke-width="2" transform="translate(-634.66868 207.23547)"/><path d="m346.60714 197.73051s-38.57143-7.5-48.75-16.07144c-9.20852-7.75455 11.24916-11.27111 51.42857-12.85714 40.71429-1.60715 81.21751-.61688 99.10715 2.67857 20.35714 3.75 34.85715 7.03572 36.96429 11.25 2.10713 4.21429-28.39286 13.92857-55.71429 12.85715-27.32143-1.07143-83.03572 2.14286-83.03572 2.14286z" fill="#ffd30d" stroke="#000" stroke-width="2" transform="translate(-634.66868 207.23547)"/><path d="m-278.35618 388.54797.0625-2c-6.18285-.2052-12.32538.41937-17.96875 1.8125 6.00802.58429 12.28159.007 17.90625.1875z"/></g><g><g id="a"><path d="m224.75894 252.92885c-.75761 0-16.66752.37881-16.66752.37881s-7.12183-14.86443-21.2132-17.42513c-14.09138-2.5607-17.42513-1.89404-17.42513-1.89404s-4.9245 3.03046-14.77349 3.40926c0 0-1.13641 6.06092 3.03047 9.47019 0 0-17.42514.3788-21.59201 1.13642-4.16688.75761-7.57615 5.3033-4.16688 9.84899 0 0-4.9245 1.13642-5.3033 5.6821-.37881 4.54569 5.6821 6.06092 5.6821 6.06092s-2.27284 3.03046-1.89403 7.19734c.3788 4.16687 6.43972 4.54568 6.43972 4.54568s-5.3033 9.09137 10.6066 11.74303c15.9099 2.65165 42.04761 1.51522 49.24494-.37881 7.19734-1.89404 11.74303-5.30331 11.74303-5.30331l17.80393 3.03046z" fill="#dcdddf" stroke="#000" stroke-width="2" transform="translate(-634.66868 207.23547)"/><path d="m-450.04373 469.76667c-1.91203-1.42714-3.0191-3.28648-3.71875-5.25s-.98081-4.0163-1.1875-5.6875c-.10334-.8356-.18018-1.56162-.3125-2.1875s-.25762-1.17485-.78125-1.59375c-1.50738-1.20591-4.07812-2.6733-7.40625-2.46875l.00005.00005c-1.10938.0682-2.29583.30583-3.5625.8125-4.4449 1.77796-10.03125.0937-10.03125.0937l-.46875 1.4375s5.93126 1.9275 11.0625-.125c4.50944-1.80378 7.69051-.0163 9.46875 1.40625-.0501-.0401.14113.23502.25.75s.20868 1.22307.3125 2.0625c.20763 1.67887.48177 3.84399 1.25 6s2.05434 4.32992 4.25 5.96875 5.27865 2.71514 9.5781 2.0625c-4.03431-.842-6.79112-1.85411-8.70315-3.28125zm23.7813-9.4062-1.46875.28125s.71696 4.40983-.0625 7.625c2.43482-3.21339 1.53125-7.90625 1.53125-7.90625zm-76.24995 4.21875h-.00005l-.0312 1.5s21.17655.98673 29.48438 1.03315c-.50425-.85241-1.05595-1.17975-1.64747-1.26883-9.14427-1.37712-27.80566-1.26432-27.80566-1.26432zm.0312 11.5-.0937 1.5s19.55072 1.33861 28.98435 1.125c-.36465-.29195-1.01653-.74116-1.87548-.8437-9.90463-1.18239-27.01517-1.7813-27.01517-1.7813zm74.875 18 1.21875.875s2.28125-3.12172 1.53125-7.40625c-.75 3.75119-2.75 6.53125-2.75 6.53125zm-70.31245-6.46875h-.00002-.00003l-.0937 1.5s14.47053.79278 23.34375.84375c-.99342-.96749-2.63904-1.36402-7.35087-1.75544-4.71183-.39141-15.89913-.58831-15.89913-.58831z"/></g><use height="890.58765" transform="matrix(-.99984638 -.01752761 -.01752761 .99984638 -485.34863 -10.989458)" width="773.6181" xlink:href="#a"/></g><g><path d="m279.46429 530.05193s-8.03572 20.89286-4.28572 47.14286 12.3361 38.50509 22.9427 43.05078h-5.3033s-2.27284 21.97082 7.95495 26.89531c0 0-8.89403 12.45909-27.08472 16.28871-18.19068 3.82962-32.0092-1.89403-32.0092-1.89403s-3.81067 18.84124 16.2887 28.78934c17.60966 8.71583 34.87305 7.06839 40.15357 4.16688 3.63825-1.99912 8.47018-8.33375 14.77348-8.33375 6.30331 0 7.9922 4.43637 15.53109 4.92449 8.57616.55528 20.07679-2.27284 20.07679-2.27284s.45454-18.31917-.75761-25.38009c-.96029-5.59377-3.78808-9.47018-4.9245-11.74302 0 0 6.43972-7.98187 6.43972-15.93682s0-19.29225 0-19.29225 8.71257-6.06092 9.09138-14.77348c.3788-8.71257-5.30331-15.9099-5.30331-15.9099.47686-9.95846 2.14372-19.39719-1.89403-28.78935 0 0 14.77348-11.36422 21.2132-23.10724s10.2278-14.39468 10.2278-14.39468-70.83695-14.01586-86.36805-5.6821c-15.53109 8.33376-16.76294 16.25118-16.76294 16.25118zm107.67857 22.85714c-.53572 18.21429 9.64285 40.71429 23.57143 42.85715 0 0 5.35714 9.64285 13.39285 15 8.03572 5.35714 8.57143 13.39285 16.07143 14.46428s10.71429-.53571 10.71429-.53571 10.71428 8.57143 10.71428 19.28571c0 10.71429-4.28571 29.46429-13.92857 32.14286s-10.71428 3.21429-10.71428 7.5 6.96428 15 24.64285 16.07143c17.67858 1.07143 34.82143-9.64286 34.82143-23.57143s6.42857-19.28571 8.03572-19.28571c1.60714 0 5.89285 2.14285 5.89285 2.14285s12.85715-16.60714 11.25-27.85714c0 0-7.5-13.92857-20.35714-17.67857 0 0 0-12.58929-12.32143-21.96429 0 0 2.76786-6.69643 1.69644-13.66072-1.07143-6.96428-15.26787-24.91071-28.66072-29.73213 0 0 4.28571-17.67858 2.41071-26.25-2.14285-8.57143-82.41071-.80357-82.41071-.80357s5.71428 13.66071 5.17857 31.87499z" fill="#dcdddf" stroke="#000" stroke-width="2" transform="translate(-634.66868 207.23547)"/><path d="m296.60605 620.11931c4.30807.4308 36.17332 1.53388 52.27539-3.40927m101.78053 8.0659s21.7292-9.02964 38.61535-33.82479" fill="none" stroke="#000" stroke-width="2" transform="translate(-634.66868 207.23547)"/><path d="m-172.32493 756.61047.65625-1.34375c-5.24447-2.27884-10.44535-3.1004-15.85937-1.45313 0 0 7.97145-.81896 15.20312 2.79688zm-122.53125 14.3125c4.71043-3.40198 11.90625-6.625 11.90625-6.625l-.59375-1.34375s-7.25507 3.1877-12.1875 6.75c-3.3552 2.98225-6.78265 7.03932-6.75 11.21875 2.08971-3.85621 4.67894-7.81521 7.625-10zm13.15625 23.6875 1.21875-.90625c-3.06607-4.18101-9.98437-8.92188-9.98437-8.92188s5.93883 5.97342 8.76562 9.82813zm67.65625 7.5c-5.22536.36379-9.3125-.0312-9.3125-.0312l-.125 1.5s4.2075.40407 9.5625.0312c5.355-.37282 11.87111-1.50289 16.20313-5.34375-4.77514 2.31986-11.10277 3.47996-16.32813 3.84375zm77.6875 39.31245c1.80647-4.80588 3.5414-12.14517 3.40625-22.28125v.00005l-1.5.0312c.13271 9.9532-1.56986 17.08267-3.3125 21.71875s-2.89062 7.20312-2.89062 7.20312 2.4904-1.86599 4.29687-6.67187zm-31.6875 4.4688c-3.44118 2.28242-5.125 5.3125-5.125 5.3125l1.3125.75s1.50368-2.74224 4.625-4.8125 7.76157-3.50639 14.53125-1.46875c-5.06375-2.80549-10.73007-2.79179-15.34375.21875zm-159.91277 6.83023c-3.23044-.077-5.71137.83471-6.55152 1.05816l.40625 1.43755c.73351-.19508 3.34708-1.06082 5.33929-1.01339 3.9844.0948 6.51099.98013 11.95313 4.0625-4.73644-4.41763-7.9167-5.46787-11.14715-5.54482zm38.22527 4.70102-1.125-.96875c-7.8573 9.42876-20.59375 14.95312-20.59375 14.95312s13.50463-4.12743 21.71875-13.98437z"/></g></g><path d="m352.85714 180.31979-.26785 6.69643s-5.625 7.76785-7.76786 11.51785-.26786 6.42858.53571 6.96429c.80358.53571 3.75.53571 3.75.53571s-.26785 2.41072-.80357 4.55358c-.53571 2.14285-.80357 5.08928.53572 6.69642 1.33928 1.60715 1.07143 2.67858-.26786 6.42858s1.33929 8.03571 5.08929 9.64285c3.75 1.60715 15-.53571 15-.53571s-2.58929 9.91071-5 12.85714c-2.41072 2.94643-3.48215 2.94643-3.48215 2.94643s-4.82143-5.08929-9.64285-3.48214c0 0-3.57143-.53572-9.46429-.53572s-22.85715-4.375-49.28572-1.69643-44.19642 5.625-68.57142 2.94644c0 0-.0969 5.05304-1.99088 27.02385-1.89404 21.97082-2.65165 26.89532-2.65165 26.89532s1.89403 3.78807 20.45559 3.03045c18.56155-.75761 41.66879 6.81853 49.62374 24.62247s13.63706 37.50192 12.50064 51.13897c-1.13642 13.63706-1.89404 75.76145-1.89404 75.76145s-33.72198 26.08105-34.7934 76.4382c0 0 51.07931 4.84047 76.25 1.33928l.591-8.83457s20.07678-.75762 25.38008-.37881l.37881 2.27284s24.62247-1.51523 34.85026-2.27284c0 0 .37881 5.68211 1.13643 9.84899 0 0 54.16943-.75762 67.80649-1.89404s22.34962-15.15229 23.10724-20.07678c0 0-10.60661-.37881-14.39468-12.12183s-4.54569-36.36549-21.59201-45.07806c0 0-1.13642-47.96275 1.13642-71.4488 2.27285-23.48605 13.96846-65.19897 40.72735-73.85626s46.65085-3.94498 56.87864-11.52112c0 0 1.26269-18.18275-1.38896-32.57742-2.65165-14.39468-1.89403-23.48605-1.89403-23.48605s-67.72304-1.70025-87.00876-1.16453c-19.28571.53571-25.11818 2.55349-30.80028 5.58395-5.68211 3.03046-15.90991-1.51523-15.90991-1.51523l-.75761-3.03046s4.16688-4.92449 16.28871-9.09137 13.63706-21.97082 6.81853-29.16815c-6.81853-7.19734-13.63706-20.8344-13.63706-20.8344s-34.85026-3.03046-48.86613-2.27284c-14.01587.75761-26.70768 1.13207-26.70768 1.13207z" fill="#dcdddf" stroke="#000" stroke-width="2" transform="matrix(2.0192757 0 0 2.0192757 308.812554 43.766244)"/><path d="m378.83929 179.51622s6.69643 21.69643 29.46428 29.19643c0 0 1.875 13.39285 1.875 20.89285s8.57143 11.25 8.57143 11.25m-17.14286-34.82143s1.07143 8.03572-8.30357 8.83929c0 0 .26786 7.23214-6.96428 10.98214-7.23215 3.75-19.01786 6.96429-19.01786 6.96429m-7.19965 15.96047s1.84251 12.9681 11.75322 16.18239c0 0 21.73123-.6086 47.41072-21.42858m-47.67858 21.16072s-12.75045 70.30896-7.44715 107.43206m-18.94036-1.51523s-5.3033-100.76271 5.3033-125.76399m83.33759 14.39468s-42.42641 38.63833-39.39595 112.88454m13.74972-2.7892.53571-10.98215c6.46286-.261 11.0038-8.45995 2.41072-12.58928 0 0 2.94642-10.17857 4.01785-12.85715 0 0 6.96429.53572 7.5-5.625.53572-6.16071-4.28571-8.03571-4.28571-8.03571s13.06855-26.29221 32.38771-35.38359m-116.54635 87.25193v-10.6066s-6.43972-1.13642-6.43972-6.43972c0-5.30331 6.43972-7.19734 6.43972-7.19734s-.3788-13.25825-1.13642-16.28871c0 0-6.06091 1.13642-6.81853-5.68211-.75761-6.81853 5.3033-7.57614 5.3033-7.57614s-4.92449-23.10724-15.9099-33.71384m25.3571 241.18924c0-10.99758 2.07045-20.95923 4.94748-36.05957 3.65835-19.20117 2.27284-38.4545 2.27284-38.4545m18.71846 73.53455s-.95757-21.23325.77665-41.46593c1.56343-18.23999-.17594-33.96266-.17594-33.96266m34.66086 75.44576s-1.32583-25.19068-4.73509-38.82774c-3.40927-13.63705-1.89404-36.74429-1.89404-36.74429" fill="none" stroke="#000" stroke-width="1.5" transform="matrix(2.0192757 0 0 2.0192757 308.812554 43.766244)"/><path d="m396.3125 178.875-.5625 1.375s6.53972 2.60865 15.1875 8.8125c4.32536 3.10297 8.06729 6.28424 10.46875 9.875s3.52594 7.56309 3.4375 12.625c1.61618-5.16588.35163-9.59416-2.21875-13.4375s-6.42529-7.1339-10.8125-10.28125c-8.77734-6.29679-15.5-8.96875-15.5-8.96875zm-9.53125.0312-1.1875.9375c.26749.33437.7095.76295 1.375 1.34375s1.54192 1.28097 2.59375 2.09375c2.10366 1.62555 4.91122 3.62071 8.15625 5.625 6.31107 3.898 8.1875 7.66617 8.9375 10.5625.75-3.54339-1.55661-7.75556-8.125-11.8125-3.19469-1.97319-5.96803-3.96819-8.03125-5.5625-1.03161-.79715-1.8946-1.50688-2.53125-2.0625s-1.07619-.98586-1.1875-1.125zm-26.71875 2.9375s-1.56753 1.82362-.9375 4.34375l.1875.65625.65625-.0937s.2376 4.36288 2.6875 4.59375 3.72128-1.58974 3.78125-5.0625c1.08137.0118 2.00832.0966 2.46875.25 1.791.69887 3.68217 1.36546 5.34375.625-1.81628-.68306-3.46899-1.58886-4.875-2.0625-1.44474-.48158-3.71724-.36275-5.78125-.21875-1.64181.11454-2.50378.24565-3.03125.3125-.22063-1.69137-.5-3.34375-.5-3.34375zm2.59375 5.71875c.48078 0 .875.39422.875.875s-.39422.84375-.875.84375-.875-.36297-.875-.84375.39422-.875.875-.875zm-8.15625 11.62505c-.22596-.007-.44896.009-.6875.0625 2.72758 1.53365 3.71799 4.56923.59375 5.125-2.01956-.0311-4.06214-.0403-5.8125.9375l.96875 1.15625c1.35006-.63283 3.55155-.64416 4.78125-.59375 5.34546-.0746 3.54562-6.58272.15625-6.6875zm-3.03125 12.5c-2.14823.0225-3.65625.71875-3.65625.71875l.625 1.375s2.93235-1.38375 6.21875 0c2.40161.82113 4.52041.84008 6.15625-1.09375-1.9862.3969-4.1855.29116-5.59375-.28125-.97774-.41168-1.90146-.61149-2.78125-.6875-.32992-.0285-.66186-.0345-.96875-.0312zm.1875 5.28125c-.97616.008-1.71875.125-1.71875.125l.1875 1.46875s3.03148-.375 4.625-1.125c-.90787-.375-2.11759-.47656-3.09375-.46875zm-41.37115 61.64184 1.37115-1.18071c-4.68948-5.35941-11.14063-8.20789-11.14063-8.20789s5.31793 4.30111 9.76948 9.3886zm148.53633.50636.82763 1.61763s4.44623-2.22849 10.98487-4.45791c-7.14185.50672-11.8125 2.84028-11.8125 2.84028z" transform="matrix(2.0192757 0 0 2.0192757 308.812554 43.766244)"/><g transform="matrix(2.0192757 0 0 2.0192757 1590.383597 -374.699305)"><path d="m332.82995 243.86811s-20.32516 20.73043-49.48216 77.75112c-22.83005 44.64743-26.31444 55.60915-25.00128 67.42768 1.31318 11.81853 17.01063 49.39788 21.29635 53.68359 4.28571 4.28572 43.10088 11.72378 99.16434 11.72378 56.06347 0 94.92371-7.70612 100.00511-10.6066 4.00227-2.28451 23.70795-46.32634 23.70795-68.721 0-22.39469-26.20424-70.34453-39.61786-91.13564s-22.9024-39.92125-29.59883-41.52839c-6.69643-1.60715-11.78571 1.33928-11.78571 1.33928s12.32143 14.46429 24.64286 35.89286c12.32142 21.42857 41.36415 73.61797 40.60654 87.63384-.75762 14.01586-15.51726 11.65187-21.41012 9.50902-5.89285-2.14286-29.28571-9.10714-90.53571-9.10714s-86.25 13.92856-94.28571 13.39285c-8.03572-.53572-5.89287-16.07143 10.17857-46.60714 13.84034-26.29663 45-81.42857 55.17857-90-3.77779-2.83075-8.59737-2.05969-13.06291-.64811z" fill="#ffd30d" stroke="#000" stroke-width="2" transform="translate(-634.66868 207.23547)"/><use height="1" transform="translate(237.94643 -55.804242)" width="1" xlink:href="#b"/><use height="1" transform="matrix(.9979018 .06474557 -.06474557 .9979018 266.51272 -19.942572)" width="1" xlink:href="#b"/><use height="1" transform="matrix(.97746535 .21109593 -.21109593 .97746535 383.727797 66.188745)" width="1" xlink:href="#b"/><use height="1" transform="matrix(.93912409 .34357814 -.34357814 .93912409 450.966309 163.005912)" width="1" xlink:href="#b"/><use height="1" transform="matrix(-.99605073 .08878593 .08878593 .99605073 -805.78254 -4.713163)" width="1" xlink:href="#b"/><use height="1" transform="matrix(.99296867 -.11837743 .11837743 .99296867 131.315286 -105.223467)" width="1" xlink:href="#b"/><use height="1" transform="matrix(.99296867 -.11837743 .11837743 .99296867 121.466302 -100.298967)" width="1" xlink:href="#b"/><use height="1" transform="matrix(.99296867 -.11837743 .11837743 .99296867 153.286107 -101.056587)" width="1" xlink:href="#b"/><use height="1" transform="matrix(.98500296 .17253745 -.17253745 .98500296 384.20225 47.086059)" width="1" xlink:href="#b"/><use height="1" transform="matrix(.43611859 .8998892 -.8998892 .43611859 573.349446 769.58783)" width="1" xlink:href="#b"/><use height="1" transform="matrix(.99413806 .10811808 -.10811808 .99413806 335.624888 20.255973)" width="1" xlink:href="#b"/><use height="1" transform="matrix(.98500296 .17253745 -.17253745 .98500296 396.480976 54.283395)" width="1" xlink:href="#b"/><use height="1" transform="matrix(.99413806 .10811808 -.10811808 .99413806 344.999892 17.041688)" width="1" xlink:href="#b"/><use height="1" transform="matrix(.99296867 -.11837743 .11837743 .99296867 168.281502 -98.672793)" width="1" xlink:href="#b"/><use height="1" transform="matrix(.99296867 -.11837743 .11837743 .99296867 179.044997 -94.616864)" width="1" xlink:href="#b"/><use height="1" transform="matrix(.99296867 -.11837743 .11837743 .99296867 161.619867 -92.768785)" width="1" xlink:href="#b"/><use height="1" transform="matrix(.99296867 -.11837743 .11837743 .99296867 113.51135 -94.616866)" width="1" xlink:href="#b"/><use height="1" transform="matrix(.96984402 -.24372643 .24372643 .96984402 44.564705 -148.029653)" width="1" xlink:href="#b"/><use height="1" transform="matrix(.99296867 -.11837743 .11837743 .99296867 146.291644 -94.70878)" width="1" xlink:href="#b"/><use height="1" transform="matrix(.99296867 -.11837743 .11837743 .99296867 129.042454 -92.722831)" width="1" xlink:href="#b"/><path d="m-158.57498 603.7444c-11.60192 4.11681-38.02178 10.53125-93.25 10.53125-55.27846 0-81.39354-2.30376-94.8125-6.03125 0 0 20.62901 24.03641 94.03125 22.39286 73.40224-1.64358 94.03125-26.89286 94.03125-26.89286z" fill="#ffd30d"/><path d="m-356.79373 600.54797c.0764 1.53627.73923 3.23923 2.25 4.75s3.85208 2.83391 7.375 3.8125c13.85516 3.84865 40.01049 6.09375 95.34375 6.09375 55.38348 0 82.02213-6.4393 93.90625-10.65625 3.05639-1.08453 4.95392-2.39458 5.90625-3.9375s1.01922-3.45944-.82589-5.5625c-1.84512-2.10306-5.42575-3.06606-8.83031-1.29688 3.21649.31822 6.71405 1.7195 7.84375 3.35938.56485.81994.66849 1.53758.0937 2.46875-.57474.93117-2.02863 2.09484-4.84375 3.09375-11.60192 4.11681-38.02178 10.53125-93.25 10.53125-55.27846 0-81.39354-2.30376-94.8125-6.03125-3.29561-.91545-5.31177-2.09302-6.5-3.28125s-1.52574-2.35614-1.65625-3.46875c-.29356-2.50264.3125-4.76563.3125-4.76563s-2.53168.48282-2.3125 4.89063z"/></g><g transform="matrix(2.0192757 0 0 2.0192757 1590.383597 -374.699305)"><g id="b"><path d="m-506.54368 649.51954c3.65112-4.22638 12.83296-6.09263 17.67857 1.07143-5.18858 7.35105-14.69905 4.60322-17.67857-1.07143z" fill="#ffd30d" stroke="#000" stroke-width="2"/></g><use height="890.58765" transform="translate(17.456672 -16.829043)" width="773.6181" xlink:href="#b"/><use height="890.58765" transform="translate(19.729515 -78.953425)" width="773.6181" xlink:href="#b"/><use height="890.58765" transform="matrix(.9660308 -.25842696 .25842696 .9660308 -143.28988 -194.571111)" width="773.6181" xlink:href="#b"/><use height="890.58765" transform="matrix(.87659675 -.48122565 .48122565 .87659675 -347.847913 -219.282628)" width="773.6181" xlink:href="#b"/><use height="890.58765" transform="matrix(.49847865 -.86690198 .86690198 .49847865 -810.32692 -166.927481)" width="773.6181" xlink:href="#b"/><use height="890.58765" transform="matrix(-.32936719 -.94420192 -.94420192 .32936719 -46.776838 -62.841497)" width="773.6181" xlink:href="#b"/><use height="890.58765" transform="matrix(-.32936719 -.94420192 -.94420192 .32936719 -28.594092 -74.963328)" width="773.6181" xlink:href="#b"/><use height="890.58765" transform="matrix(.32936719 -.94420191 .94420191 .32936719 -906.288311 -79.509012)" width="773.6181" xlink:href="#b"/><use height="890.58765" transform="matrix(-.028438 -.99959556 -.99959556 .028438 181.41564 65.920958)" width="773.6181" xlink:href="#b"/><use height="890.58765" transform="matrix(-.46931513 -.88303076 -.88303076 .46931513 -116.04476 -117.36344)" width="773.6181" xlink:href="#b"/><use height="890.58765" transform="matrix(.12934635 -.99159948 .99159948 .12934635 -1051.037798 -32.095635)" width="773.6181" xlink:href="#b"/><use height="890.58765" transform="matrix(-.12934635 -.99159948 -.99159948 .12934635 93.487296 -24.5195)" width="773.6181" xlink:href="#b"/><use height="890.58765" transform="matrix(.49847865 -.86690198 .86690198 .49847865 -767.900505 -213.141955)" width="773.6181" xlink:href="#b"/><use height="890.58765" transform="matrix(.49847865 -.86690198 .86690198 .49847865 -795.932238 -229.809474)" width="773.6181" xlink:href="#b"/><use height="890.58765" transform="matrix(-.12934635 -.99159948 -.99159948 .12934635 116.97334 -55.581691)" width="773.6181" xlink:href="#b"/><use height="890.58765" transform="matrix(.12934635 -.99159948 .99159948 .12934635 -1026.794097 -57.854529)" width="773.6181" xlink:href="#b"/><use height="890.58765" transform="matrix(.28207685 -.95939181 .95939181 .28207685 -952.566488 -160.864717)" width="773.6181" xlink:href="#b"/><use height="890.58765" transform="matrix(-.28207685 -.95939182 -.95939182 .28207685 29.098579 -157.83426)" width="773.6181" xlink:href="#b"/><use height="890.58765" transform="matrix(-.28207685 -.95939182 -.95939182 .28207685 41.978024 -170.7137)" width="773.6181" xlink:href="#b"/><use height="890.58765" transform="matrix(.60339083 -.79744561 .79744561 .60339083 -675.985059 -309.721192)" width="773.6181" xlink:href="#b"/><use height="890.58765" transform="matrix(-.04859415 -.99881861 -.99881861 .04859415 155.72858 123.65633)" width="773.6181" xlink:href="#b"/><use height="890.58765" transform="matrix(.11640197 -.99320219 .99320219 .11640197 -1039.580694 84.622255)" width="773.6181" xlink:href="#b"/><use height="890.58765" transform="matrix(.11640197 -.99320219 .99320219 .11640197 -1071.4005 99.016924)" width="773.6181" xlink:href="#b"/><use height="890.58765" transform="matrix(.04417074 .999024 .999024 -.04417074 -1130.0742 1203.2443)" width="773.6181" xlink:href="#b"/><use height="890.58765" transform="matrix(.04417074 .999024 .999024 -.04417074 -1113.4067 1223.6999)" width="773.6181" xlink:href="#b"/><use height="890.58765" transform="matrix(.87659675 -.48122565 .48122565 .87659675 -342.544613 -129.12652)" width="773.6181" xlink:href="#b"/><use height="890.58765" transform="matrix(-.46931513 -.88303076 -.88303076 .46931513 -105.43816 -52.208601)" width="773.6181" xlink:href="#b"/><use height="890.58765" transform="matrix(.73839695 -.67436632 .67436632 .73839695 -539.951085 -104.34885)" width="773.6181" xlink:href="#b"/><use height="890.58765" transform="matrix(.11640197 -.99320219 .99320219 .11640197 -1088.8256 145.989023)" width="773.6181" xlink:href="#b"/><use height="890.58765" transform="translate(15.183829 86.206517)" width="773.6181" xlink:href="#b"/><use height="890.58765" transform="matrix(.11640197 -.99320219 .99320219 .11640197 -1044.883994 155.838018)" width="773.6181" xlink:href="#b"/><use height="890.58765" transform="matrix(-.08467783 -.99640839 -.99640839 .08467783 168.76763 184.69479)" width="773.6181" xlink:href="#b"/><use height="890.58765" transform="matrix(.30269797 -.95308653 .95308653 .30269797 -926.079415 86.449359)" width="773.6181" xlink:href="#b"/><use height="890.58765" transform="matrix(.73839695 -.67436632 .67436632 .73839695 -500.555133 -52.831064)" width="773.6181" xlink:href="#b"/><use height="890.58765" transform="matrix(-.08467783 -.99640839 -.99640839 .08467783 109.67371 209.69607)" width="773.6181" xlink:href="#b"/><use height="890.58765" transform="matrix(-.08467783 -.99640839 -.99640839 .08467783 131.64452 221.8179)" width="773.6181" xlink:href="#b"/><use height="890.58765" transform="matrix(.73839695 -.67436632 .67436632 .73839695 -517.980261 -29.345018)" width="773.6181" xlink:href="#b"/><path d="m-506.54368 649.51954c3.65112-4.22638 12.83296-6.09263 17.67857 1.07143-5.18858 7.35105-14.69905 4.60322-17.67857-1.07143z" fill="#ffd30d" stroke="#000" stroke-width="2" transform="matrix(.6969007 .71716763 -.71716763 .6969007 401.967504 695.750313)"/><use height="890.58765" transform="matrix(-.08467783 -.99640839 -.99640839 .08467783 174.82855 258.941)" width="773.6181" xlink:href="#b"/><use height="890.58765" transform="matrix(-.32196692 -.94675093 -.94675093 .32196692 .951631 136.13351)" width="773.6181" xlink:href="#b"/><use height="890.58765" transform="matrix(-.74822394 -.66344628 -.66344628 .74822394 -424.95586 -15.28444)" width="773.6181" xlink:href="#b"/><use height="890.58765" transform="matrix(-.08467783 -.99640839 -.99640839 .08467783 136.19022 287.73035)" width="773.6181" xlink:href="#b"/><use height="890.58765" transform="matrix(.26557617 -.96408988 .96408988 .26557617 -931.085823 189.165676)" width="773.6181" xlink:href="#b"/><use height="890.58765" transform="matrix(-.87905165 -.47672658 -.47672658 .87905165 -536.47025 12.29387)" width="773.6181" xlink:href="#b"/><use height="890.58765" transform="matrix(.11640197 -.99320219 .99320219 .11640197 -972.153024 251.297435)" width="773.6181" xlink:href="#b"/><use height="890.58765" transform="matrix(-.11640197 -.99320219 -.99320219 .11640197 229.00715 279.32916)" width="773.6181" xlink:href="#b"/><use height="890.58765" transform="matrix(-.99981892 -.0190307 -.0190307 .99981892 -872.18925 190.38316)" width="773.6181" xlink:href="#b"/><use height="890.58765" transform="matrix(-.90303251 -.42957226 -.42957226 .90303251 -583.51572 56.578619)" width="773.6181" xlink:href="#b"/><use height="890.58765" transform="matrix(-.90303251 -.42957226 -.42957226 .90303251 -616.85075 66.427606)" width="773.6181" xlink:href="#b"/><use height="890.58765" transform="matrix(.51813548 -.85529856 .85529856 .51813548 -719.114008 121.445561)" width="773.6181" xlink:href="#b"/><use height="890.58765" transform="matrix(-.8392951 -.54367614 -.54367614 .8392951 -460.25638 91.943354)" width="773.6181" xlink:href="#b"/><use height="890.58765" transform="matrix(.11640197 -.99320219 .99320219 .11640197 -637.996073 -79.393642)" width="773.6181" xlink:href="#b"/><use height="890.58765" transform="matrix(-.62648289 -.77943518 -.77943518 .62648289 160.80639 -318.04023)" width="773.6181" xlink:href="#b"/><use height="890.58765" transform="matrix(.11640197 -.99320219 .99320219 .11640197 -624.067501 -67.607928)" width="773.6181" xlink:href="#b"/><use height="890.58765" transform="matrix(-.11640197 -.99320219 -.99320219 .11640197 566.01996 -71.89364)" width="773.6181" xlink:href="#b"/><use height="890.58765" transform="matrix(-.11640197 -.99320219 -.99320219 .11640197 543.51996 -50.465069)" width="773.6181" xlink:href="#b"/><use height="890.58765" transform="matrix(.11640197 -.99320219 .99320219 .11640197 -616.031794 -46.715068)" width="773.6181" xlink:href="#b"/><use height="890.58765" transform="matrix(-.44942279 -.89331918 -.89331918 .44942279 344.39903 -210.83772)" width="773.6181" xlink:href="#b"/><use height="890.58765" transform="matrix(-.36858759 -.92959303 -.92959303 .36858759 382.49862 -159.18631)" width="773.6181" xlink:href="#b"/><use height="890.58765" transform="matrix(-.11640197 -.99320219 -.99320219 .11640197 567.09139 -24.750783)" width="773.6181" xlink:href="#b"/><use height="890.58765" transform="matrix(.11640197 -.99320219 .99320219 .11640197 -591.38893 -18.322209)" width="773.6181" xlink:href="#b"/><use height="890.58765" transform="matrix(-.96154381 -.27465163 -.27465163 .96154381 -336.29979 -200.58737)" width="773.6181" xlink:href="#b"/><use height="890.58765" transform="matrix(.9160917 -.40096882 .40096882 .9160917 180.947045 -224.264454)" width="773.6181" xlink:href="#b"/><use height="890.58765" transform="matrix(.11640197 -.99320219 .99320219 .11640197 -625.67464 9.534938)" width="773.6181" xlink:href="#b"/><use height="890.58765" transform="matrix(-.85287062 -.52212232 -.52212232 .85287062 -104.13166 -224.17313)" width="773.6181" xlink:href="#b"/><use height="890.58765" transform="matrix(-.51423832 -.85764734 -.85764734 .51423832 304.55554 -172.08889)" width="773.6181" xlink:href="#b"/><use height="890.58765" transform="matrix(-.36858759 -.92959303 -.92959303 .36858759 385.17719 -98.650596)" width="773.6181" xlink:href="#b"/><use height="890.58765" transform="matrix(.36858758 -.92959303 .92959303 .36858758 -434.682535 -93.293451)" width="773.6181" xlink:href="#b"/><use height="890.58765" transform="matrix(.18225955 -.98325045 .98325045 .18225955 -544.614138 13.511701)" width="773.6181" xlink:href="#b"/><use height="890.58765" transform="matrix(.97529913 -.22088824 .22088824 .97529913 328.5873 -113.657697)" width="773.6181" xlink:href="#b"/><use height="890.58765" transform="matrix(.61032201 -.79215342 .79215342 .61032201 -247.513751 -164.445138)" width="773.6181" xlink:href="#b"/><use height="890.58765" transform="matrix(-.18225955 -.98325046 -.98325046 .18225955 508.59284 45.654564)" width="773.6181" xlink:href="#b"/><use height="890.58765" transform="matrix(.18225955 -.98325045 .98325045 .18225955 -567.114128 42.440271)" width="773.6181" xlink:href="#b"/><use height="890.58765" transform="matrix(.99791091 -.06460511 .06460511 .99791091 458.620531 -30.748919)" width="773.6181" xlink:href="#b"/><use height="890.58765" transform="matrix(.18225955 -.98325045 .98325045 .18225955 -538.721277 69.225992)" width="773.6181" xlink:href="#b"/><use height="890.58765" transform="matrix(-.18225955 -.98325046 -.98325046 .18225955 539.12855 60.654564)" width="773.6181" xlink:href="#b"/><use height="890.58765" transform="matrix(-.85287062 -.52212232 -.52212232 .85287062 -112.70309 -134.17313)" width="773.6181" xlink:href="#b"/><use height="890.58765" transform="matrix(.18225955 -.98325045 .98325045 .18225955 -556.935569 89.047423)" width="773.6181" xlink:href="#b"/><use height="890.58765" transform="matrix(-.18225955 -.98325046 -.98325046 .18225955 558.41426 107.26171)" width="773.6181" xlink:href="#b"/><use height="890.58765" transform="matrix(-.71941582 -.69457965 -.69457965 .71941582 65.32383 -103.78481)" width="773.6181" xlink:href="#b"/><use height="890.58765" transform="matrix(.28449193 -.95867844 .95867844 .28449193 -528.650206 29.959009)" width="773.6181" xlink:href="#b"/><use height="890.58765" transform="matrix(.99791091 -.06460511 .06460511 .99791091 447.906245 53.89394)" width="773.6181" xlink:href="#b"/><use height="890.58765" transform="matrix(-.18225955 -.98325046 -.98325046 .18225955 515.55712 124.40457)" width="773.6181" xlink:href="#b"/><use height="890.58765" transform="matrix(.18225955 -.98325045 .98325045 .18225955 -604.614144 125.476003)" width="773.6181" xlink:href="#b"/><use height="890.58765" transform="matrix(-.18225955 -.98325046 -.98325046 .18225955 512.87855 148.51171)" width="773.6181" xlink:href="#b"/><use height="890.58765" transform="matrix(.18225955 -.98325045 .98325045 .18225955 -567.649866 164.047421)" width="773.6181" xlink:href="#b"/><use height="890.58765" transform="matrix(.18225955 -.98325045 .98325045 .18225955 -545.149855 151.725996)" width="773.6181" xlink:href="#b"/><use height="890.58765" transform="matrix(.58207262 -.81313681 .81313681 .58207262 -246.792006 15.973461)" width="773.6181" xlink:href="#b"/><use height="890.58765" transform="matrix(-.70918158 -.70502589 -.70502589 .70918158 57.642802 -25.736619)" width="773.6181" xlink:href="#b"/><use height="890.58765" transform="matrix(-.70918158 -.70502589 -.70502589 .70918158 42.107088 -50.379476)" width="773.6181" xlink:href="#b"/><use height="890.58765" transform="matrix(.18225955 -.98325045 .98325045 .18225955 -609.435563 202.618852)" width="773.6181" xlink:href="#b"/><use height="890.58765" transform="matrix(.80840795 -.58862262 .58862262 .80840795 -15.450516 -3.979689)" width="773.6181" xlink:href="#b"/><use height="890.58765" transform="matrix(.56903413 -.82231391 .82231391 .56903413 -332.617116 11.218159)" width="773.6181" xlink:href="#b"/><use height="890.58765" transform="matrix(-.70918158 -.70502589 -.70502589 .70918158 20.678516 7.477667)" width="773.6181" xlink:href="#b"/><use height="890.58765" transform="matrix(-.18225955 -.98325046 -.98325046 .18225955 438.94997 212.79742)" width="773.6181" xlink:href="#b"/><use height="890.58765" transform="matrix(.92625183 -.37690522 .37690522 .92625183 124.049549 55.757999)" width="773.6181" xlink:href="#b"/><use height="890.58765" transform="matrix(-.83191911 -.55489693 -.55489693 .83191911 -108.55659 26.505706)" width="773.6181" xlink:href="#b"/><use height="890.58765" transform="matrix(.18225955 -.98325045 .98325045 .18225955 -573.007001 227.797426)" width="773.6181" xlink:href="#b"/><use height="890.58765" transform="matrix(-.57014312 -.82154539 -.82154539 .57014312 198.87154 89.151451)" width="773.6181" xlink:href="#b"/><use height="890.58765" transform="matrix(.42637242 -.90454771 .90454771 .42637242 -467.27666 143.477536)" width="773.6181" xlink:href="#b"/><use height="890.58765" transform="matrix(-.83191911 -.55489693 -.55489693 .83191911 -121.94945 71.505706)" width="773.6181" xlink:href="#b"/><use height="890.58765" transform="matrix(.8319191 -.55489693 .55489693 .8319191 -45.277185 88.648561)" width="773.6181" xlink:href="#b"/><use height="890.58765" transform="matrix(.19465772 -.98087123 .98087123 .19465772 -660.350443 267.902569)" width="773.6181" xlink:href="#b"/></g></svg>