<svg height="353" width="325" xmlns="http://www.w3.org/2000/svg" xmlns:xlink="http://www.w3.org/1999/xlink"><clipPath id="a"><path d="m882.89119 423.31534v102.66031c0 17.90205-8.3612 34.59717-19.97106 49.12131-25.93656 32.44034-68.07479 54.04905-69.4169 54.04905-2.81164 0-44.09111-21.38652-69.55907-53.63546-11.53615-14.60949-19.82889-31.446-19.82889-49.5349v-103.17036h178.77592v.50501"/></clipPath><g transform="translate(-631.00323 -390.97031)"><g stroke="#000"><path d="m642.03448 626.78281c36.39187 61.52011 104.28168 87.55422 151.46875 84.125 47.18707 3.42922 115.07688-22.60489 151.46875-84.125-34.17695-25.68791-34.47599-35.97095-37.53125-19.5-11.0279 27.13762-66.13629 64.62223-113.9375 63.625-47.80121.99723-102.9096-36.48738-113.9375-63.625 12.42516-33.43583-25.8565 11.45683-37.53125 19.5z" fill="#fff" opacity="0"/><path d="m880.96548 689.08115s6.54074 27.13521 18.29639 42.51479c.44195-9.8111-2.2981-35.00178-.70711-46.58066 3.88909 15.46796 10.87176 30.22882 18.91511 38.36054.0884-9.10399-4.50781-40.57025-3.71231-63.10928.42429-12.02145-33.67596 26.25134-33.67596 26.25134z" fill="#23277e"/><path d="m706.04102 689.08115s-6.54074 27.13521-18.29639 42.51479c-.44195-9.8111 2.2981-35.00178.70711-46.58066-3.88909 15.46796-10.87176 30.22882-18.91511 38.36054-.0884-9.10399 4.50781-40.57025 3.71231-63.10928-.42429-12.02145 33.67596 26.25134 33.67596 26.25134z" fill="#23277e"/><path d="m679.87823 590.31406c-11.58214 15.75258-24.37936 27.30406-37.84375 36.46875 36.39187 61.52011 104.28168 87.55422 151.46875 84.125 47.18707 3.42922 115.07688-22.60489 151.46875-84.125-13.46439-9.16469-26.26161-20.71617-37.84375-36.46875-2.42932 2.3267-26.50803 19.57782-33.5 52.875 47.95786-36.38495 25.93408-38.88507 23.84375-38.4375 7.53448-8.27377 10.58758 1.00841 9.96875 2.53125-11.0279 27.13762-66.13629 64.62223-113.9375 63.625-47.80121.99723-102.9096-36.48738-113.9375-63.625-.61883-1.52284 2.43427-10.80502 9.96875-2.53125-2.09033-.44757-24.11411 2.05255 23.84375 38.4375-6.99197-33.29718-31.07068-50.5483-33.5-52.875z" fill="#fff"/><path d="m901.8555 401.53521v124.44044c0 21.7001-10.1351 41.93721-24.20806 59.54275-31.4392 39.32279-82.51736 65.51594-84.14421 65.51594-3.40815 0-53.44536-25.92381-84.31653-65.0146-13.98362-17.709-24.03574-38.1175-24.03574-60.04409v-125.05869h216.70454v.61214" fill="#9d6c44" stroke-linecap="round" stroke-linejoin="bevel" stroke-width="1.875135"/></g><text x="739.39185" y="817.26166"><tspan x="739.39185" y="817.26166"/></text><text transform="translate(631.00323 390.97031)" x="70.710678" y="398.42001"><tspan x="70.710678" y="398.42001"/></text><path d="m659.73541 623.001682h5v5h-5z"/><path d="m665.73541 623.001682h5v5h-5z"/><path d="m659.73541 629.001782h5v5h-5z"/><path d="m665.73541 629.001782h5v5h-5z"/><path d="m979.22375 562.45166h5v5h-5z" transform="matrix(-1 0 0 1 1906.49484 60.550022)"/><path d="m985.22375 562.45166h5v5h-5z" transform="matrix(-1 0 0 1 1906.49484 60.550022)"/><path d="m979.22375 562.45166h5v5h-5z" transform="matrix(-1 0 0 1 1906.49484 66.550122)"/><path d="m985.22375 562.45166h5v5h-5z" transform="matrix(-1 0 0 1 1906.49484 66.550122)"/><path d="m882.89119 423.31534v102.66031c0 17.90205-8.3612 34.59717-19.97106 49.12131-25.93656 32.44034-68.07479 54.04905-69.4169 54.04905-2.81164 0-44.09111-21.38652-69.55907-53.63546-11.53615-14.60949-19.82889-31.446-19.82889-49.5349v-103.17036h178.77592v.50501" fill="#23277e"/><g clip-path="url(#a)" stroke="#000" stroke-linecap="round" stroke-linejoin="bevel"><g fill="#fff" stroke-width="1.875135" transform="translate(-.131065 -.828519)"><path d="m1011.2764 353.53453v124.44044c0 21.7001-10.1351 41.93721-24.20806 59.54275-31.4392 39.32279-82.51736 65.51594-84.14421 65.51594-3.40815 0-53.44536-25.92381-84.31653-65.0146-13.98362-17.709-24.03574-38.1175-24.03574-60.04409v-125.05869h216.70454v.61214"/><path d="m792.69673 353.53453v124.44044c0 21.7001-10.1351 41.93721-24.20806 59.54275-31.4392 39.32279-82.51736 65.51594-84.14421 65.51594-3.40815 0-53.44536-25.92381-84.31653-65.0146-13.98362-17.709-24.03574-38.1175-24.03574-60.04409v-125.05869h216.70454v.61214"/></g><g fill="#019b9b" stroke-width="1.78248"><path d="m1005.7913 358.85492v118.29153c0 20.62784-9.63425 39.86499-23.0118 56.6006-29.88571 37.37975-78.43998 62.27863-79.98644 62.27863-3.23975 0-50.80449-24.64285-80.15024-61.80207-13.29266-16.83395-22.84808-36.23402-22.84808-57.07716v-118.87923h205.99656v.58189"/><path d="m787.21168 358.85492v118.29153c0 20.62784-9.63425 39.86499-23.0118 56.6006-29.88572 37.37975-78.43998 62.27863-79.98645 62.27863-3.23974 0-50.80448-24.64285-80.15024-61.80207-13.29266-16.83395-22.84808-36.23402-22.84808-57.07716v-118.87923h205.99657v.58189"/></g></g><g fill="#9d6c44" stroke="#000" stroke-width=".5" transform="matrix(1.671996 0 0 1.4098285 -1062.0006 -234.9721)"><path d="m496.07153 151.67458c0 2.5833-7.87124 4.67748-17.5809 4.67748s-17.58089-2.09418-17.58089-4.67748c0-2.58331 7.87123-4.67749 17.58089-4.67749s17.5809 2.09418 17.5809 4.67749z" stroke-linecap="round" stroke-linejoin="round" transform="matrix(.99707147 0 0 1 632.73114 402.13176)"/><path d="m1109.7381 521.32633-5.9375 18.28125-7.4687-16.40625-1.9375 16.0625-9.2813-6.53125 4.5938 14.09375c.3594 1.34151.7662 2.43988 1.2187 3.34375.3742 1.39663.7877 2.57845 1.2188 3.59375 4.9712-1.29509 11.0217-2.0625 17.5937-2.0625 6.559 0 12.628.7721 17.5938 2.0625.4319-1.01807.8436-2.22488 1.2187-3.625.4508-.90738.8583-1.99834 1.2188-3.34375l4.625-14.0625-9.2813 6.53125-1.9375-16.0625-7.4687 16.4375z"/><path d="m1109.7381 521.32633-5.9375 18.28125-7.4687-16.40625-1.9375 16.0625-9.2813-6.53125 4.5938 14.09375c.3594 1.34151.7662 2.43988 1.2187 3.34375 5.1798-1.49751 11.693-2.40625 18.8125-2.40625 7.103 0 13.6385.88377 18.8125 2.375.4508-.90738.8583-1.99834 1.2188-3.34375l4.625-14.0625-9.2813 6.53125-1.9375-16.0625-7.4687 16.4375z"/><path d="m1109.7381 521.32633-5.9375 18.28125-7.4687-16.40625-1.9375 16.0625-9.2813-6.53125 4.5938 14.09375c5.3534-1.72134 12.3377-2.78125 20.0312-2.78125 7.6753 0 14.6826 1.03595 20.0313 2.75l4.625-14.0625-9.2813 6.53125-1.9375-16.0625-7.4687 16.4375z"/></g><g transform="matrix(.21649104 0 0 .20002055 730.45255 556.65105)"><path d="m66.403014 134.96984c-4.634723-.0807-6.61641-3.93822-8.937723-4.4999-4.665782-1.12893-21.643839 1.83576-27.275454-10.27904-2.551249-.32822-4.249676 1.34293-4.249676 1.34293-2.657437.94696-2.916672 4.28197-2.916672 4.28197 34.061606 45.96706 212.336571 43.1189 224.126211 42.21033 37.36914-2.93295 62.67158-10.46934 90.85426-10.19146 3.31257-.43959 6.02698-4.63322 8.31565-5.30593 19.98309-5.87366 34.19173-16.14478 47.36201-20.01989 8.50556-1.86673 12.44249-1.24121 19.64856-1.62351 24.48868-1.66061 28.09461 10.27282 31.859 9.75277 24.83759-.18827 25.76591-59.17792-2.41553-59.29198 0 0-4.19256 8.87917-28.40976 12.99492-63.34036-13.98525-90.30585-25.52994-176.84596-29.78916-5.02311-.25904-76.96917-4.41585-139.095049 22.35366-22.011431 1.24423-49.700351 14.13936-49.700351 14.13936s-20.04568.33026-18.939837 8.66327c4.205207 4.87689 25.175684 2.50084 36.608449 16.27864 1.874613 2.76625.01187 8.98302.01187 8.98302z" fill="#fff" fill-rule="evenodd" stroke="#000" stroke-width="1.19355"/><g stroke="#000" transform="matrix(1.19351 -.00904723 .00904723 1.19351 -2.29652 -15.5506)"><path d="m199.313 71.928379c1.78448-5.490716 14.99509-28.612155 33.21884-37.062335 10.98144 6.863396 12.40801 17.207373 22.6492 27.59085.13727.823607.8013 3.274737-.85792 3.774866-9.35725 2.820503-19.32046 8.167441-22.61489 9.814656" fill="#fff" fill-rule="evenodd"/><g fill="none" stroke-width=".5"><path d="m205.76459 70.281164s0-7.824271 25.80637-31.708887"/><path d="m206.86273 74.811005c.13727-7.275199 19.35478-27.041778 26.90451-30.88528"/><path d="m212.21617 71.24204s11.39324-15.923078 24.15916-23.472813"/><path d="m212.76524 76.870024s14.27586-19.08024 28.82627-25.257296"/><path d="m221.27585 73.301058s8.64788-12.49138 23.47282-18.256632"/><path d="m224.02121 73.987397s5.21617-7.824271 19.76658-13.589523"/><path d="m231.15914 72.340182s4.39257-4.804377 14.68767-9.19695"/></g></g><g fill-rule="evenodd" transform="matrix(1.19351 -.00904723 .00904723 1.19351 96.7788 -272.568)"><path d="m-22.80881 313.5919c-2.121699.37824-3.216225 1.05212-3.009966 2.40993s1.823582 4.03816 4.076649 3.78546c2.253068-.2527 5.72227-2.35902 4.659027-4.36784-.774873-1.464-2.225378-2.44526-5.72571-1.82755z" fill="#fff"/><path d="m-31.739623 318.33134c.277207.68289 1.3273 1.46311 2.610423 2.17937 2.142612 1.19604 4.934996 2.21376 5.863503 2.30219 1.484552.14138 2.664226-.0759 4.548168-.65792 2.468209-.76259 4.581153-3.28598 4.477687-5.12382-.152437-2.70769-2.736281-4.45785-8.27879-4.23242-2.631589.10704-9.772001 4.1752-9.220991 5.5326z"/></g><g stroke="#000"><path d="m47.972418 115.17893c3.868661 2.42828 9.297249 12.56481 11.012556 15.91551.857653 1.67535 2.18865 4.91525 4.721199 7.30724s14.962686-6.59072-3.974073-30.16155" fill="#fff" fill-rule="evenodd" stroke-width="1.19355"/><path d="m358.74423 81.88293c26.87982.25965 23.56586-8.98345 41.89415-5.87851 14.48164 11.25229-4.99536 13.47679-15.40571 15.64106" fill="#fff" fill-rule="evenodd" stroke-width="1.19355"/><g transform="matrix(1.19351 -.00904723 .00904723 1.19351 -2.29652 -15.5506)"><path d="m371.75155 84.118156s23.63437-21.744007 44.26076-27.760038c4.65903-1.358883 9.31806.194126 9.31806.194126 5.62966 14.55946-3.30296 41.236508-5.24141 51.443426.19413 7.76505 10.01855 17.4559 5.04728 52.41406-17.8596.58238-40.57236-19.80087-52.80231-26.59528l10.09456-24.4599z" fill="#fff" fill-rule="evenodd"/><g fill="none" stroke-width=".5"><path d="m381.45786 86.447669s8.73567-17.665478 38.43697-24.654019"/><path d="m383.39912 88.777182s12.03581-17.277225 32.80731-19.994991"/><path d="m385.34038 91.494949s6.98853-14.171208 32.80731-19.024361"/><path d="m387.47577 96.736355s5.62965-6.212036 29.70129-8.153297"/><path d="m386.31101 93.242085s8.73567-10.482811 31.2543-14.365333"/><path d="m386.89339 95.571599s11.64756-10.871063 29.11891-11.647567"/><path d="m388.4464 99.454121s18.6361-1.553009 25.81877-1.553008"/><path d="m388.25227 98.48349s.58237-3.49427 24.65401-5.435531"/><path d="m381.84611 130.32017s8.73567 17.66548 38.43697 24.65402"/><path d="m383.78737 127.99066s12.03581 17.27722 32.80731 19.99499"/><path d="m385.72863 125.27289s6.98853 14.17121 32.80731 19.02436"/><path d="m387.86402 120.03149s5.62965 6.21203 29.70129 8.15329"/><path d="m386.69926 123.52575s8.73567 10.48281 31.2543 14.36534"/><path d="m387.28164 121.19625s11.64756 10.87105 29.11891 11.64756"/><path d="m388.83465 117.31373s18.6361 1.55301 25.81877 1.553"/><path d="m388.64052 118.28436s.58237 3.49427 24.65401 5.43552"/><path d="m389.41703 113.62533s13.58882 1.16476 20.77149 1.16475"/><path d="m389.2229 103.14251s13.58882-1.16476 20.77149-1.16475"/><path d="m389.27976 107.65452s12.61819.58238 19.80086.58239"/><path d="m389.27976 104.90916s12.61819.58238 19.80086.58239"/><path d="m389.41703 110.67441s12.61819.58238 19.80086.58239"/></g><path d="m289.44206 139.83236c5.24141 8.1533 18.00359 24.0327 31.61902 27.93263 1.78448.0686 4.27089-.87394 5.065-1.80272 9.43691-11.03725 9.71301-16.54495 9.88472-18.22759 8.9298-12.03583 5.84532-15.47324 5.84532-15.47324-.7765-2.71777-8.34743 2.71776-21.74213-5.62966" fill="#fff" fill-rule="evenodd"/><g fill="none" stroke-width=".5"><path d="m297.40124 140.80299c15.53009 18.63611 29.50717 18.63611 29.50717 18.63611"/><path d="m293.13046 141.96775c19.02436 21.15975 29.7013 22.32451 29.7013 22.32451"/><path d="m301.28376 139.05585c9.51218 13.20058 22.90688 15.91835 22.90688 15.91835"/><path d="m304.97216 137.30871c7.95917 11.06519 18.24785 13.00646 18.24785 13.00646"/><path d="m310.01944 135.36745c5.62966 7.95917 13.3947 10.67695 13.3947 10.67695"/><path d="m313.51371 133.81444c2.71777 5.43553 9.90043 6.01792 9.90043 6.01792"/><path d="m317.78449 131.2908c1.74714 3.30014 6.79441 3.68841 6.79441 3.68841"/></g><path d="m206.93846 154.78006c31.06017 33.3897 33.00144 29.70131 34.9427 24.07165" fill="#fff" fill-rule="evenodd"/><path d="m208.87972 155.55657c29.89542 29.7013 33.77795 25.43053 33.77795 25.43053 11.45344 0 8.52986-23.77536 8.15329-24.65402-.29119-.67944-1.36047-1.83241-2.13478-1.94563-5.71786-.83607-15.72482-3.68403-15.72482-3.68403" fill="#fff" fill-rule="evenodd"/><g fill="none" stroke-width=".5"><path d="m213.927 155.16832 29.7013 21.548"/><path d="m217.42127 154.19769 26.59528 18.05373"/><path d="m221.69205 153.80944 22.3245 13.20058"/><path d="m226.73933 153.42119 15.14183 7.3768"/></g></g><g fill="none"><path d="m96.381251 98.55371c26.557369-8.80294 33.389949 6.38244 29.679769 22.15974-3.90126 16.58988-26.994269 32.13889-35.811349 36.1379" stroke-width="1.19355"/><g stroke-width=".596774"><path d="m90.339371 101.22096c11.495499 3.51735 6.96546 32.71532 4.18529 33.39175 0 0-9.61163 8.47136-22.877989 7.87393-3.114034-.14024-5.79246-7.6566-5.79246-7.6566"/><path d="m122.0098 129.32531c-7.84278 2.84474-28.160079 15.3646-27.417929 5.20086"/><path d="m113.24488 140.20523c-14.369949 6.33487-19.389329 6.56487-17.657979-2.78716"/><path d="m76.239318 144.6198c3.004851 7.35006 25.424582 5.17596 30.476032 1.53318"/><path d="m70.640492 142.20463c10.692495 5.65338 20.005319 4.60968 25.056769.9669"/><path d="m54.945943 146.70926c12.296033 1.05368 18.844665 4.32883 23.89611.68605"/></g></g></g><g transform="matrix(0 -1 1 0 -12.4983 300.402)"><g stroke="#000"><path d="m185.22311 60.470687c-2.42828 3.868661-12.56481 9.297249-15.91551 11.012556-1.67535.857653-4.91525 2.18865-7.30724 4.721199s6.59072 14.962686 30.16155-3.974073" fill="#fff" fill-rule="evenodd" stroke-width="1.19355"/><path d="m218.51911 371.2425c-.25965 26.87982 8.98345 23.56586 5.87851 41.89415-11.25229 14.48164-13.47679-4.99536-15.64106-15.40571" fill="#fff" fill-rule="evenodd" stroke-width="1.19355"/><g transform="matrix(.00904723 1.19351 -1.19351 .00904723 315.953 10.2017)"><path d="m371.75155 84.118156s23.63437-21.744007 44.26076-27.760038c4.65903-1.358883 9.31806.194126 9.31806.194126 5.62966 14.55946-3.30296 41.236508-5.24141 51.443426.19413 7.76505 10.01855 17.4559 5.04728 52.41406-17.8596.58238-40.57236-19.80087-52.80231-26.59528l10.09456-24.4599z" fill="#fff" fill-rule="evenodd"/><g fill="none" stroke-width=".5"><path d="m381.45786 86.447669s8.73567-17.665478 38.43697-24.654019"/><path d="m383.39912 88.777182s12.03581-17.277225 32.80731-19.994991"/><path d="m385.34038 91.494949s6.98853-14.171208 32.80731-19.024361"/><path d="m387.47577 96.736355s5.62965-6.212036 29.70129-8.153297"/><path d="m386.31101 93.242085s8.73567-10.482811 31.2543-14.365333"/><path d="m386.89339 95.571599s11.64756-10.871063 29.11891-11.647567"/><path d="m388.4464 99.454121s18.6361-1.553009 25.81877-1.553008"/><path d="m388.25227 98.48349s.58237-3.49427 24.65401-5.435531"/><path d="m381.84611 130.32017s8.73567 17.66548 38.43697 24.65402"/><path d="m383.78737 127.99066s12.03581 17.27722 32.80731 19.99499"/><path d="m385.72863 125.27289s6.98853 14.17121 32.80731 19.02436"/><path d="m387.86402 120.03149s5.62965 6.21203 29.70129 8.15329"/><path d="m386.69926 123.52575s8.73567 10.48281 31.2543 14.36534"/><path d="m387.28164 121.19625s11.64756 10.87105 29.11891 11.64756"/><path d="m388.83465 117.31373s18.6361 1.55301 25.81877 1.553"/><path d="m388.64052 118.28436s.58237 3.49427 24.65401 5.43552"/><path d="m389.41703 113.62533s13.58882 1.16476 20.77149 1.16475"/><path d="m389.2229 103.14251s13.58882-1.16476 20.77149-1.16475"/><path d="m389.27976 107.65452s12.61819.58238 19.80086.58239"/><path d="m389.27976 104.90916s12.61819.58238 19.80086.58239"/><path d="m389.41703 110.67441s12.61819.58238 19.80086.58239"/></g><path d="m289.44206 139.83236c5.24141 8.1533 18.00359 24.0327 31.61902 27.93263 1.78448.0686 4.27089-.87394 5.065-1.80272 9.43691-11.03725 9.71301-16.54495 9.88472-18.22759 8.9298-12.03583 5.84532-15.47324 5.84532-15.47324-.7765-2.71777-8.34743 2.71776-21.74213-5.62966" fill="#fff" fill-rule="evenodd"/><g fill="none" stroke-width=".5"><path d="m297.40124 140.80299c15.53009 18.63611 29.50717 18.63611 29.50717 18.63611"/><path d="m293.13046 141.96775c19.02436 21.15975 29.7013 22.32451 29.7013 22.32451"/><path d="m301.28376 139.05585c9.51218 13.20058 22.90688 15.91835 22.90688 15.91835"/><path d="m304.97216 137.30871c7.95917 11.06519 18.24785 13.00646 18.24785 13.00646"/><path d="m310.01944 135.36745c5.62966 7.95917 13.3947 10.67695 13.3947 10.67695"/><path d="m313.51371 133.81444c2.71777 5.43553 9.90043 6.01792 9.90043 6.01792"/><path d="m317.78449 131.2908c1.74714 3.30014 6.79441 3.68841 6.79441 3.68841"/></g><path d="m206.93846 154.78006c31.06017 33.3897 33.00144 29.70131 34.9427 24.07165" fill="#fff" fill-rule="evenodd"/><path d="m208.87972 155.55657c29.89542 29.7013 33.77795 25.43053 33.77795 25.43053 11.45344 0 8.52986-23.77536 8.15329-24.65402-.29119-.67944-1.36047-1.83241-2.13478-1.94563-5.71786-.83607-15.72482-3.68403-15.72482-3.68403" fill="#fff" fill-rule="evenodd"/><g fill="none" stroke-width=".5"><path d="m213.927 155.16832 29.7013 21.548"/><path d="m217.42127 154.19769 26.59528 18.05373"/><path d="m221.69205 153.80944 22.3245 13.20058"/><path d="m226.73933 153.42119 15.14183 7.3768"/></g></g><path d="m165.4322 78.901283c.0807-4.634723 3.93822-6.61641 4.4999-8.937723 1.12893-4.665782-1.83576-21.643839 10.27904-27.275454.32822-2.551249-1.34293-4.249676-1.34293-4.249676-.94696-2.657437-4.28197-2.916672-4.28197-2.916672-45.96706 34.061606-43.1189 212.336572-42.21033 224.126212 2.93295 37.36914 10.46934 62.67158 10.19146 90.85426.43959 3.31257 4.63322 6.02698 5.30593 8.31565 5.87366 19.98309 16.14478 34.19173 20.01989 47.36201 1.86673 8.50556 1.24121 12.44249 1.62351 19.64856 1.66061 24.48868-10.27282 28.09461-9.75277 31.859.18827 24.83759 59.17792 25.76591 59.29198-2.41553 0 0-8.87917-4.19256-12.99492-28.40976 13.98525-63.34036 25.52994-90.30585 29.78916-176.84596.25904-5.02311 4.41585-76.96917-22.35366-139.09505-1.24423-22.011431-14.13936-49.700351-14.13936-49.700351s-.33026-20.04568-8.66327-18.939837c-4.87689 4.205207-2.50084 25.175684-16.27864 36.608449-2.76625 1.874613-8.98302.01187-8.98302.01187z" fill="#fff" fill-rule="evenodd" stroke-width="1.19355"/><g fill="none"><path d="m201.84833 108.87952c8.80294 26.55737-6.38244 33.38995-22.15974 29.67977-16.58988-3.90126-32.13889-26.99427-36.1379-35.81135" stroke-width="1.19355"/><g stroke-width=".596774"><path d="m199.18108 102.83764c-3.51735 11.4955-32.71532 6.96546-33.39175 4.18529 0 0-8.47136-9.61163-7.87393-22.877989.14024-3.114034 7.6566-5.79246 7.6566-5.79246"/><path d="m171.07673 134.50807c-2.84474-7.84278-15.3646-28.16008-5.20086-27.41793"/><path d="m160.19681 125.74315c-6.33487-14.36995-6.56487-19.38933 2.78716-17.65798"/><path d="m155.78224 88.737587c-7.35006 3.004851-5.17596 25.424583-1.53318 30.476033"/><path d="m158.19741 83.138761c-5.65338 10.692495-4.60968 20.005319-.9669 25.056769"/><path d="m153.69278 67.444212c-1.05368 12.296033-4.32883 18.844665-.68605 23.89611"/></g><path d="m166.16801 135.36448c19.24648 10.17607 38.12432 14.94819 41.99656-14.57247" stroke-width="1.19355"/></g></g><path d="m204.1799 147.30205c-.81959.32522-1.8367-.29774-2.27034-1.39053-.43362-1.0928-.12038-2.24366.69922-2.56888s1.83671.29774 2.27034 1.39054c.43363 1.09279.12038 2.24365-.69922 2.56887z"/><path d="m203.56669 156.06183c-.67795-.0389-1.19875-1.02367-1.1625-2.1982.0362-1.17452.6159-2.09622 1.29385-2.05735.67795.0389 1.19875 1.02368 1.1625 2.1982-.0362 1.17452-.6159 2.09622-1.29385 2.05735z"/><path d="m196.66048 154.27718c-.71259.35511-1.85312-.27195-2.54583-1.39968-.69271-1.12771-.67658-2.33118.036-2.68629.7126-.35511 1.85313.27196 2.54584 1.39968.6927 1.12771.67655 2.33118-.036 2.68629z"/><path d="m200.24632 168.93166c-.0634.79186-.96927 1.41806-2.02193 1.39776s-1.85548-.67946-1.79204-1.47132c.0634-.79189.96929-1.41808 2.02195-1.39778 1.05263.0203 1.85546.67948 1.79202 1.47134z"/><path d="m197.83738 197.10856c-.0791 1.08571-1.21738 1.94356-2.54081 1.9148-1.32345-.0287-2.33334-.93324-2.25426-2.01896.0791-1.08575 1.21739-1.94357 2.54082-1.91484 1.32341.0288 2.33333.93328 2.25425 2.019z"/><path d="m193.14885 179.04569c-.52738.59644-1.81984.44291-2.88494-.3427-1.06509-.78559-1.50151-1.90725-.97412-2.5037.5274-.59644 1.81985-.44291 2.88496.34269 1.06508.78559 1.50148 1.90726.9741 2.50371z"/><path d="m202.73167 178.80077c-.53637-.58838-1.82635-.41528-2.87942.38639-1.05306.80164-1.47242 1.9298-.93605 2.51818.53638.58838 1.82636.41527 2.87943-.38638 1.05305-.80165 1.4724-1.92981.93604-2.51819z"/><path d="m207.92622 215.52792c-.34237-.42755-1.16473-.30273-1.83562.27861-.67087.5813-.9375 1.40009-.59512 1.82763s1.16474.30272 1.83563-.2786c.67087-.5813.93748-1.4001.59511-1.82764z"/><path d="m195.97415 242.95562c-.0614 1.06298-.96561 1.90137-2.01834 1.87137s-1.85728-.91705-1.79589-1.98004c.0614-1.06301.96562-1.90139 2.01835-1.8714 1.05271.03 1.85727.91708 1.79588 1.98007z"/><path d="m194.02187 287.93296c-.0538.88216-.84202 1.5782-1.75935 1.55365-.91733-.0246-1.61813-.76046-1.5643-1.64263.0538-.8822.84204-1.57824 1.75936-1.55368.9173.0246 1.61811.76048 1.56429 1.64266z"/><path d="m212.06555 289.47553c.84058.7233 1.09588 1.8052.56985 2.41493-.52604.60975-1.63519.51756-2.47578-.20574-.84063-.72333-1.09592-1.80524-.56989-2.41497.52603-.60972 1.63521-.51753 2.47582.20578z"/><path d="m218.19442 309.08995c.84057.7233 1.09588 1.80519.56985 2.41493-.52605.60974-1.6352.51755-2.47579-.20575-.84063-.72332-1.09591-1.80523-.56988-2.41497.52602-.60971 1.63521-.51753 2.47582.20579z"/><path d="m211.91935 345.8378c.84058.7233 1.09589 1.8052.56986 2.41493-.52605.60974-1.6352.51756-2.47579-.20574-.84063-.72333-1.09591-1.80524-.56988-2.41497.52602-.60972 1.6352-.51753 2.47581.20578z"/><path d="m204.3315 333.61666c-.0538.88216-.84202 1.5782-1.75934 1.55364-.91734-.0245-1.61813-.76045-1.5643-1.64262.0538-.8822.84203-1.57824 1.75936-1.55368.9173.0246 1.61811.76048 1.56428 1.64266z"/><path d="m209.52687 360.42586c-.0125 1.10886-.67615 2.00063-1.48137 1.99052-.80524-.0101-1.44861-.91829-1.43612-2.02718.0125-1.10891.67616-2.00068 1.48138-1.99056.80521.0101 1.44859.91832 1.43611 2.02722z"/><path d="m195.00868 383.0317c.71543.84728.79618 1.95595.18024 2.47469-.61598.51875-1.69653.25207-2.41198-.59523-.71546-.84732-.7962-1.95601-.18024-2.47474.61594-.51871 1.69653-.25204 2.41198.59528z"/><path d="m198.57313 429.70227c-.037.88203-.60437 1.5764-1.26647 1.54991-.6621-.0265-1.16944-.76386-1.13245-1.6459.037-.88208.60438-1.57644 1.26648-1.54995.66208.0265 1.16943.76389 1.13244 1.64594z"/><path d="m204.61571 459.34887c-.43983.76947-1.79815.92178-3.03197.33993-1.23382-.58184-1.87822-1.67857-1.4384-2.44807.43983-.76952 1.79818-.9218 3.032-.33995 1.23378.58183 1.87819 1.6786 1.43837 2.44809z"/><path d="m186.74041 129.52823c-.0634.79186-.96928 1.41807-2.02193 1.39776-1.05266-.0203-1.85548-.67945-1.79204-1.47132.0634-.79188.96929-1.41807 2.02195-1.39778 1.05264.0203 1.85546.67948 1.79202 1.47134z"/><path d="m191.55807 130.7811c-.67796-.0389-1.19874-1.02368-1.16251-2.19821.0363-1.17453.61591-2.09622 1.29386-2.05735.67795.0389 1.19876 1.02368 1.16249 2.1982-.0362 1.17452-.61588 2.09623-1.29384 2.05736z"/><path d="m193.269 119.63126c-.0635.79186-.96927 1.41806-2.02193 1.39776-1.05265-.0203-1.85548-.67946-1.79204-1.47132.0635-.79189.96929-1.41808 2.02195-1.39778 1.05263.0203 1.85546.67947 1.79202 1.47134z"/><path d="m186.68118 118.02506c-.34237-.42754-1.16474-.30273-1.83562.27861-.67088.5813-.9375 1.40009-.59513 1.82763.34239.42754 1.16474.30272 1.83563-.2786.67087-.5813.93748-1.4001.59512-1.82764z"/><path d="m189.57614 123.54104c-.4425-.38852-1.50877-.27241-2.38004.2592-.87124.53156-1.21921 1.27833-.77669 1.66686.44253.38851 1.50878.2724 2.38004-.25919.87125-.53157 1.2192-1.27834.77669-1.66687z"/><path d="m191.06272 134.24544c-.0634.79186-.96927 1.41806-2.02192 1.39775-1.05267-.0203-1.85549-.67945-1.79205-1.47131.0634-.79189.96929-1.41808 2.02194-1.39778s1.85548.67947 1.79203 1.47134z"/><path d="m221.10277 256.59506c-.0462.83919-.73099 1.50086-1.52843 1.47692-.79744-.0239-1.4071-.72443-1.36086-1.56363.0462-.83922.73099-1.50088 1.52844-1.47695.79742.0239 1.40709.72447 1.36085 1.56366z"/><path d="m198.46667 117.39065c-.0424.79171-.67221 1.41582-1.40584 1.39309-.73362-.0227-1.29461-.6837-1.25222-1.47541.0424-.79172.67222-1.41582 1.40585-1.39311.73361.0227 1.2946.68373 1.25221 1.47543z"/><path d="m192.69977 105.50153c-.0424.7917-.67223 1.41582-1.40585 1.39309-.73362-.0227-1.29461-.68371-1.25222-1.47541.0424-.79172.67222-1.41582 1.40585-1.39311.73361.0227 1.2946.68373 1.25222 1.47543z"/><path d="m184.13107 90.969035c-.0635.791862-.96928 1.418067-2.02194 1.397758-1.05265-.0203-1.85547-.679454-1.79203-1.471316.0634-.791886.96929-1.418078 2.02194-1.397782 1.05263.02031 1.85547.679478 1.79203 1.47134z"/><path d="m182.49016 103.64107c-.71258.35511-1.85311-.27195-2.54582-1.39968-.69271-1.12771-.67658-2.331181.036-2.68629.71259-.355109 1.85313.271959 2.54584 1.39968.69269 1.12771.67655 2.33118-.036 2.68629z"/><path d="m184.6564 95.44912c-.34237-.427548-1.16474-.302732-1.83562.278603-.67088.5813-.9375 1.400089-.59513 1.827637.34239.427536 1.16474.30272 1.83563-.278603.67087-.5813.93748-1.400101.59512-1.827637z"/><path d="m189.99011 99.729432c-.0634.791858-.96928 1.418058-2.02193 1.397758-1.05266-.0203-1.85548-.67945-1.79204-1.471316.0634-.791886.96929-1.418078 2.02194-1.397782 1.05265.02031 1.85547.679478 1.79203 1.47134z"/><g fill="none" stroke="#000"><path d="m146.76763 126.50032c2.04917 10.96179 7.92723 8.29577 9.39923 7.95694 1.55396 10.47402 19.28572 33.06424 10.08703 55.4655-16.54571.28926-26.06788-23.88698-26.75053-27.48629.91256-16.9722 5.37406-25.92755 7.26427-35.93615z" stroke-width="1.19355"/><g stroke-width=".596774"><path d="m154.57166 134.91288c.99436 44.72094 5.56505 51.63746 5.56505 51.63746"/><path d="m152.65507 135.11112s-1.463 26.21196 1.94226 47.50305"/><path d="m151.1438 134.42746s-2.36518 29.46267-.88634 41.15259"/><path d="m149.39469 132.93463s-5.44392 20.6812-5.92918 33.08113"/><path d="m150.20913 133.39187s-4.22751 28.31827-4.04491 37.12169"/><path d="m148.22832 131.9008s-5.7081 16.39665-6.67958 25.78808"/><path d="m155.72837 134.6724c4.05283 35.54539 10.3086 50.79053 10.3086 50.79053"/></g><path d="m187.83113 143.70855c-2.62855 42.29079-9.46707 157.16814 2.15688 315.10323" stroke-width=".23871"/></g><g fill-rule="evenodd" transform="matrix(.00904723 1.19351 -1.19351 .00904723 572.97 109.277)"><path d="m-31.739623 318.33134c.740099 1.82321 6.989374 4.34017 8.473926 4.48156 1.484552.14138 2.664226-.0759 4.548168-.65792 2.468209-.76259 4.581153-3.28598 4.477687-5.12382-.152437-2.70769-2.736281-4.45785-8.27879-4.23242-2.631589.10704-9.772001 4.1752-9.220991 5.5326z"/><path d="m-22.80881 313.5919c-2.121699.37824-3.216225 1.05212-3.009966 2.40993s1.823582 4.03816 4.076649 3.78546c2.253068-.2527 5.72227-2.35902 4.659027-4.36784-.774873-1.464-2.225378-2.44526-5.72571-1.82755z" fill="#fff"/></g></g><path d="m122.86621 134.23403c10.17607-19.24648 14.94819-38.12432-14.57247-41.99656" fill="none" stroke="#000" stroke-width="1.19355"/><path d="m134.80378 96.22214c.32522.81959-.29774 1.8367-1.39053 2.27034-1.0928.43362-2.24366.12038-2.56888-.69922s.29774-1.83671 1.39054-2.27034c1.09279-.43363 2.24365-.12038 2.56887.69922z"/><path d="m143.56356 96.83535c-.0389.67795-1.02367 1.19875-2.1982 1.1625-1.17452-.03625-2.09622-.6159-2.05735-1.29385.0389-.67795 1.02368-1.19875 2.1982-1.1625s2.09622.6159 2.05735 1.29385z"/><path d="m141.77891 103.74156c.35511.71259-.27195 1.85312-1.39968 2.54583-1.12771.69271-2.33118.67658-2.68629-.036-.35511-.7126.27196-1.85313 1.39968-2.54584 1.12771-.6927 2.33118-.67655 2.68629.036z"/><path d="m156.43339 100.15572c.79186.0635 1.41806.96927 1.39776 2.02193s-.67946 1.85548-1.47132 1.79204c-.79189-.0635-1.41808-.96929-1.39778-2.02195.0203-1.05263.67948-1.85546 1.47134-1.79202z"/><path d="m184.61029 102.56466c1.08571.0791 1.94356 1.21738 1.9148 2.54081-.0287 1.32345-.93324 2.33334-2.01896 2.25426-1.08575-.0791-1.94357-1.21739-1.91484-2.54082.0288-1.32341.93328-2.33333 2.019-2.25425z"/><path d="m166.54742 107.25319c.59644.52738.44291 1.81984-.3427 2.88494-.78559 1.06509-1.90725 1.50151-2.5037.97412-.59644-.5274-.44291-1.81985.34269-2.88496.78559-1.06508 1.90726-1.50148 2.50371-.9741z"/><path d="m166.3025 97.67037c-.58838.53637-.41528 1.82635.38639 2.87942.80164 1.05306 1.9298 1.47242 2.51818.93605.58838-.53638.41527-1.82636-.38638-2.87943-.80165-1.05305-1.92981-1.4724-2.51819-.93604z"/><path d="m203.02965 92.47582c-.42755.34237-.30273 1.16473.27861 1.83562.5813.67087 1.40009.9375 1.82763.59512s.30272-1.16474-.2786-1.83563c-.5813-.67087-1.4001-.93748-1.82764-.59511z"/><path d="m230.45735 104.42789c1.06298.0614 1.90137.96561 1.87137 2.01834s-.91705 1.85728-1.98004 1.79589c-1.06301-.0614-1.90139-.96562-1.8714-2.01835.03-1.05271.91708-1.85727 1.98007-1.79588z"/><path d="m275.43469 106.38017c.88216.0538 1.5782.84202 1.55365 1.75935-.0246.91733-.76046 1.61813-1.64263 1.5643-.8822-.0538-1.57824-.84204-1.55368-1.75936.0246-.9173.76048-1.61811 1.64266-1.56429z"/><path d="m276.97726 88.33649c.7233-.84058 1.8052-1.09588 2.41493-.56985.60975.52604.51756 1.63519-.20574 2.47578-.72333.84063-1.80524 1.09592-2.41497.56989-.60972-.52603-.51753-1.63521.20578-2.47582z"/><path d="m296.59168 82.20762c.7233-.84057 1.80519-1.09588 2.41493-.56985.60974.52605.51755 1.6352-.20575 2.47579-.72332.84063-1.80523 1.09591-2.41497.56988-.60971-.52602-.51753-1.63521.20579-2.47582z"/><path d="m333.33953 88.48269c.7233-.84058 1.8052-1.09589 2.41493-.56986.60974.52605.51756 1.6352-.20574 2.47579-.72333.84063-1.80524 1.09591-2.41497.56988-.60972-.52602-.51753-1.6352.20578-2.47581z"/><path d="m321.11839 96.07054c.88216.05384 1.5782.84202 1.55364 1.75934-.0246.91734-.76045 1.61813-1.64262 1.5643-.8822-.05383-1.57824-.84203-1.55368-1.75936.0246-.9173.76048-1.61811 1.64266-1.56428z"/><path d="m347.92759 90.87517c1.10886.0125 2.00063.67615 1.99052 1.48137-.0101.80524-.91829 1.44861-2.02718 1.43612-1.10891-.01248-2.00068-.67616-1.99056-1.48138.0101-.80521.91832-1.44859 2.02722-1.43611z"/><path d="m370.53343 105.39336c.84728-.71543 1.95595-.79618 2.47469-.18024.51875.61598.25207 1.69653-.59523 2.41198-.84732.71546-1.95601.7962-2.47474.18024-.51871-.61594-.25204-1.69653.59528-2.41198z"/><path d="m417.204 101.82891c.88203.037 1.5764.60437 1.54991 1.26647-.0265.6621-.76386 1.16944-1.6459 1.13245-.88208-.037-1.57644-.60438-1.54995-1.26648.0265-.66208.76389-1.16943 1.64594-1.13244z"/><path d="m446.8506 95.78633c.76947.43983.92178 1.79815.33993 3.03197-.58184 1.23382-1.67857 1.87822-2.44807 1.4384-.76952-.43983-.9218-1.79818-.33995-3.032.58183-1.23378 1.6786-1.87819 2.44809-1.43837z"/><path d="m117.02996 113.66163c.79186.0635 1.41807.96928 1.39776 2.02193-.0203 1.05266-.67945 1.85548-1.47132 1.79204-.79188-.0635-1.41807-.96929-1.39778-2.02195.0203-1.05264.67948-1.85546 1.47134-1.79202z"/><path d="m118.28283 108.84397c-.0389.67796-1.02368 1.19874-2.19821 1.16251-1.17453-.0363-2.09622-.61591-2.05735-1.29386.0389-.67795 1.02368-1.19876 2.1982-1.16249 1.17452.0362 2.09623.61588 2.05736 1.29384z"/><path d="m107.13299 107.13304c.79186.0635 1.41806.96927 1.39776 2.02193-.0203 1.05265-.67946 1.85548-1.47132 1.79204-.79189-.0635-1.41808-.96929-1.39778-2.02195.0203-1.05263.67947-1.85546 1.47134-1.79202z"/><path d="m105.52679 113.72086c-.42754.34237-.30273 1.16474.27861 1.83562.5813.67088 1.40009.9375 1.82763.59513.42754-.34239.30272-1.16474-.2786-1.83563-.5813-.67087-1.4001-.93748-1.82764-.59512z"/><path d="m111.04277 110.8259c-.38852.4425-.27241 1.50877.2592 2.38004.53156.87124 1.27833 1.21921 1.66686.77669.38851-.44253.2724-1.50878-.25919-2.38004-.53157-.87125-1.27834-1.2192-1.66687-.77669z"/><path d="m121.74717 109.33932c.79186.0634 1.41806.96927 1.39775 2.02192-.0203 1.05267-.67945 1.85549-1.47131 1.79205-.79189-.0635-1.41808-.96929-1.39778-2.02194s.67947-1.85548 1.47134-1.79203z"/><path d="m244.09679 79.29927c.83919.04625 1.50086.73099 1.47692 1.52843-.0239.79744-.72443 1.4071-1.56363 1.36086-.83922-.04625-1.50088-.73099-1.47695-1.52844.0239-.79742.72447-1.40709 1.56366-1.36085z"/><path d="m104.89238 101.93537c.79171.0424 1.41582.67221 1.39309 1.40584-.0227.73362-.6837 1.29461-1.47541 1.25222-.79172-.0424-1.41582-.67222-1.39311-1.40585.0227-.73361.68373-1.2946 1.47543-1.25221z"/><path d="m93.003261 107.70227c.7917.0424 1.41582.67223 1.39309 1.40585-.02271.73362-.68371 1.29461-1.47541 1.25222-.79172-.0424-1.41582-.67222-1.39311-1.40585.02273-.73361.68373-1.2946 1.47543-1.25222z"/><path d="m78.470766 116.27097c.791862.0635 1.418067.96928 1.397758 2.02194-.0203 1.05265-.679454 1.85547-1.471316 1.79203-.791886-.0635-1.418078-.96929-1.397782-2.02194.02031-1.05263.679478-1.85547 1.47134-1.79203z"/><path d="m91.142801 117.91188c.35511.71258-.27195 1.85311-1.39968 2.54582-1.12771.69271-2.331181.67658-2.68629-.036-.355109-.71259.271959-1.85313 1.39968-2.54584 1.12771-.69269 2.33118-.67655 2.68629.036z"/><path d="m82.950851 115.74564c-.427548.34237-.302732 1.16474.278603 1.83562.5813.67088 1.400089.9375 1.827637.59513.427536-.34239.30272-1.16474-.278603-1.83563-.5813-.67087-1.400101-.93748-1.827637-.59512z"/><path d="m87.231163 110.41193c.791858.0635 1.418058.96928 1.397758 2.02193-.0203 1.05266-.67945 1.85548-1.471316 1.79204-.791886-.0634-1.418078-.96929-1.397782-2.02194.02031-1.05265.679478-1.85547 1.47134-1.79203z"/><g fill="none" stroke="#000"><path d="m114.00205 153.63441c10.96179-2.04917 8.29577-7.92723 7.95694-9.39923 10.47402-1.55396 33.06424-19.28572 55.4655-10.08703.28926 16.54571-23.88698 26.06788-27.48629 26.75053-16.9722-.91256-25.92755-5.37406-35.93615-7.26427z" stroke-width="1.19355"/><g stroke-width=".596774"><path d="m122.41461 145.83038c44.72094-.99436 51.63746-5.56505 51.63746-5.56505"/><path d="m122.61285 147.74697s26.21196 1.463 47.50305-1.94226"/><path d="m121.92919 149.25824s29.46267 2.36518 41.15259.88634"/><path d="m120.43636 151.00735s20.6812 5.44392 33.08113 5.92918"/><path d="m120.8936 150.19291s28.31827 4.22751 37.12169 4.04491"/><path d="m119.40253 152.17372s16.39665 5.7081 25.78808 6.67958"/><path d="m122.17413 144.67367c35.54539-4.05283 50.79053-10.3086 50.79053-10.3086"/></g><path d="m131.21028 112.57091c42.29079 2.62855 157.16814 9.46707 315.10323-2.15688" stroke-width=".23871"/></g></g><g fill="#fff" stroke="#000" transform="matrix(1.5809623 0 0 1.5809623 32.019908 307.299631)"><path d="m512.75 81.1875c-12.15026 0-22 9.849736-22 22 0 12.15026 9.84974 22 22 22s22-9.84974 22-22c0-12.150264-9.84974-22-22-22zm0 9c7.1797 0 13 5.820298 13 13 0 7.1797-5.8203 13-13 13s-13-5.8203-13-13c0-7.179702 5.8203-13 13-13z"/><path d="m508.25 79.1875v11.75c1.22236 1.00878 2 2.541365 2 4.25 0 3.037574-2.46243 5.5-5.5 5.5-1.70863 0-3.24122-.777641-4.25-2h-11.75v9h11.75c1.00878-1.22236 2.54137-2 4.25-2 3.03757 0 5.5 2.46243 5.5 5.5 0 1.70863-.77764 3.24122-2 4.25v11.75h9v-11.75c-1.22236-1.00878-2-2.54137-2-4.25 0-3.03757 2.46243-5.5 5.5-5.5 1.70863 0 3.24122.77764 4.25 2h11.75v-9h-11.75c-1.00878 1.222359-2.54137 2-4.25 2-3.03757 0-5.5-2.462426-5.5-5.5 0-1.708635.77764-3.24122 2-4.25v-11.75z"/></g><path d="m441.68369 104.35132c.88321 0 .43574 1.19055 0 1.46796-1.18085.75175-2.5739-.33062-2.93593-1.46796-.64758-2.03444.996-3.99222 2.93592-4.403888 2.84691-.604136 5.43584 1.664358 5.87185 4.403878.58114 3.65136-2.33297 6.88923-5.87184 7.33982-4.4533.56701-8.34747-3.00153-8.80778-7.33981-.55749-5.254227 3.67001-9.808476 8.80777-10.275737 6.05467-.55065 11.27122 4.338427 11.7437 10.275727.5455 6.85485-5.00681 12.73513-11.74369 13.21167-7.65486.54147-14.19983-5.67518-14.67963-13.21165-.53825-8.454788 6.34352-15.665142 14.67961-16.147595 9.25465-.535615 17.13089 7.011854 17.61556 16.147575.53341 10.05445-7.68018 18.59697-17.61553 19.08352-10.85423.53154-20.06333-8.34851-20.55148-19.0835-.52995-11.653976 9.01682-21.529891 20.55145-22.019444 12.45371-.528561 22.99664 9.68514 23.48741 22.019414" fill="none" stroke="#fff" stroke-width=".990185" transform="matrix(-1.4944465 0 0 1.4771792 1403.6864 318.45577)"/><g transform="translate(0 -11.354999)"><path d="m707.52144 659.44092-4.17179-1.57626-8.04081-6.79771c-.2078-.17564-.44873-.34369-.72277-.50415-.27409-.16043-.60128-.32125-.98157-.48246l.0156.0132c-.31961-.12767-.65457-.23716-1.00487-.32848-.35035-.0913-.7428-.13806-1.17734-.14028-.43459-.002-.92924.0561-1.48395.175-.55476.11888-1.19552.33424-1.9223.6461-2.12536.78619-4.00481 2.14542-5.63836 4.0777-.79922.94537-1.4666 1.96657-2.00212 3.0636-.53555 1.09703-.92649 2.1916-1.17284 3.28371-.27583 1.31659-.36277 2.52565-.26082 3.6272l-.002-.0288c.15708 1.18379.51065 2.29321 1.06071 3.32826l-.0312-.0263c.29333.39049.59604.74883.90814 1.07502.31208.32618.64633.65775 1.00277.99471l.94221.8767c.0295.007.0859.0459.169.11615l.20258.17126c.13504.11417.26149.21217.37937.29401.11785.0818.2415.14627.37095.19335.12941.0471.2868.0821.47215.10524.18532.0231.42338.0417.71418.056l-.0312-.0263c.11662.01.22367.0199.32115.031.0974.0111.19929.0171.30556.0178l-.0443-.0108c.0191-.002.0505-.002.0941-.00065.0435.001.13319.006.26901.0137l-.11743-.0191c1.31561-.0813 2.51494-.34102 3.59799-.77924l5.96706 2.26566c-1.23321.48941-2.29829.85374-3.19525 1.093-.897.23923-1.73052.3718-2.50056.39772-.30837.007-.65407-.00073-1.03709-.0217-.38307-.021-.76593-.0686-1.14858-.14268l.0156.0132c-.18456-.0135-.46297-.0529-.83523-.11826-.3723-.0654-.87284-.2213-1.50161-.46785l.0156.0132c-.56808-.21305-1.14873-.43228-1.74194-.65767-.59325-.22542-1.17389-.44465-1.74194-.65767-.04-.016-.14982-.0599-.32958-.13167-.17978-.0718-.42407-.19374-.73288-.36574-.30884-.17202-.6804-.40152-1.11467-.6885-.43431-.287-.92595-.65365-1.47493-1.09994-1.24665-1.05392-2.2383-2.204-2.97496-3.45024-.73667-1.24626-1.17402-2.57792-1.31203-3.99498l.018.0419c-.12894-.73247-.18376-1.41565-.16446-2.04952.0193-.63389.0967-1.29435.23219-1.98141.50932-2.56206 1.64224-4.88196 3.39877-6.9597 1.68624-1.99461 3.75017-3.45618 6.1918-4.3847l-.0288.002c1.05344-.4454 2.1631-.7097 3.32898-.7929 1.16583-.0832 2.41905.0411 3.75966.3728l-1.71413-1.44913c-.0264.0312-.11623.0532-.26958.066l.0443.0108c-.17256.0145-.44931.11005-.83026.28675l-5.87356-2.18662c1.09254-.55485 2.0472-.88339 2.86398-.98562.81674-.10219 1.59343-.02 2.33009.24642l3.51505 1.34169-.0156-.0132c.68789.26094 1.4318.72952 2.23175 1.40577l15.11549 12.77865z"/><path d="m699.77988 680.24858c.65237.153 1.19389.16331 1.62455.0309.43064-.13239.80322-.4425 1.11774-.93032.29484-.45733.44052-.93099.43704-1.42098-.004-.48998-.10631-.95983-.30841-1.40954l.009.006c-.10352-.18758-.24158-.36508-.41419-.53249-.17264-.1674-.37481-.3258-.60651-.47519-.0628-.0232-.10588-.0467-.12938-.0705s-.0636-.0453-.12023-.0646l-.2602-.0383c-.045.0832-.0924.17349-.14225.27085-.0498.0974-.11121.19591-.18413.29564l-2.62781 3.83486c.26886.0784.53585.16636.80099.26392.26513.0976.53301.17747.80364.23973zm-1.59933.43207c-.0789-.0249-.15469-.0479-.22746-.0689-.0566-.0193-.11482-.0395-.17451-.0607-.0597-.0212-.10174-.0397-.12612-.0554-.19915.2687-.44321.56023-.73221.87459s-.60259.59991-.94076.85666c-.33819.25675-.6933.45942-1.06534.60802s-.74176.18647-1.10914.11362l-1.74593-.46525.13551-.61186c.32214.009.60227-.0304.8404-.11856.23813-.0882.45998-.22139.66554-.39963.20555-.17824.40387-.40215.59494-.67174.19107-.26958.39865-.57816.62274-.92573l3.16083-4.90262c.1258-.19512.23656-.387.33228-.57564l-1.95713-.45899.006-.59176 2.06364-.46939 2.00227.44925c.2439.15726.43762.35553.58117.59482.14353.2393.21623.48472.21808.73624.11288.0124.24091.028.3841.0469.14317.0189.31029.0576.50138.11607.19107.0584.40619.1432.64538.25423.23917.11105.5112.26485.8161.46142l.0915.059c.41463.26733.75182.60126 1.01155 1.00178.25971.40053.43973.82089.54008 1.26108.10032.44021.1246.87453.0728 1.30297-.0518.42845-.18188.80427-.39023 1.12745l-.0236.0366c-.1494.23171-.34182.44648-.57725.6443-.23545.19781-.52435.35469-.8667.47063-.34236.11594-.73783.18037-1.1864.1933-.4486.0129-.95965-.0447-1.53315-.17269l-.18762-.0303c.1891.38953.32679.7718.41305 1.14682l-.009-.006c.0104.024.0335.11872.0693.2842.0357.16548.073.36213.11169.58996.0387.22782.0771.46621.11512.71518.038.24896.0645.46892.0796.65988l1.90876.4537.15826.47755-2.28135.44556c-.0183-.0118-.31116-.0798-.87856-.20387-.28676-.064-.54879-.1229-.78607-.17661-.2373-.0537-.45487-.10119-.65272-.14242.0387-.62246.0444-1.24038.0168-1.85376-.0275-.61338-.1044-1.16362-.23061-1.65072-.0638-.2224-.14042-.46172-.22987-.71794-.0895-.25623-.17179-.47332-.24697-.65128z"/><path d="m709.76475 680.50771.0243.0009c-.01.003-.0148.004-.0148.004.003-.006.0003-.008-.01-.005zm.0987 4.03627-.0286-.0157c.0995.0297.19042.0525.27263.0685.0822.016.15397.0284.21535.0372l1.07233.23944c.76616-.0852 1.25722-.32515 1.47317-.71976.15672-.2864.20939-.59046.15801-.91219-.0514-.32172-.18342-.63588-.39608-.94248l.01.005c-.17977-.23069-.48575-.47256-.91794-.72562-.36028.0841-.71743.2153-1.07145.39374-.35404.17844-.65397.38648-.8998.62413l.0148-.004c-.15541.16308-.31955.3648-.49242.60514-.17289.24036-.36495.53845-.5762.89426zm-.16108 5.39521c.21471.0761.41403.086.59795.0295s.37147-.12341.56266-.20074l3.43353.52667c-.37602.15814-.70234.28972-.97896.39473-.27664.105-.52169.19007-.73514.25522-.21347.0651-.40186.11091-.56518.13733-.16333.0264-.3162.0337-.45862.022l-.64614-.0434-1.70983-.25334-.82573-.19134c-.19851-.0756-.40308-.16268-.61371-.2614-.21064-.0987-.43052-.21078-.65964-.33616-.49644-.27166-.88627-.59457-1.16948-.96872-.28322-.37415-.49303-.75775-.62944-1.15081-.1364-.39306-.21406-.77258-.23295-1.13855-.0189-.36598-.0105-.6798.0252-.94147.10295-.76245.38603-1.56692.84925-2.41341l.14106-.25777c.0801-.14638.20386-.35365.37128-.62181.16742-.26815.40274-.55083.70598-.84805.25628-.25673.57867-.47936.96717-.6679.3885-.18851.81386-.34239 1.2761-.46163l.0339.006c.0359-.005.0929-.0112.17113-.018.0782-.007.14506-.0157.20067-.0267l-.0148.004.005-.01c.14651-.0108.30169-.0148.46556-.012.16386.003.3364.0125.51762.0289l1.76711.28468c.11984.008.23113.0272.33387.0587.10273.0314.24554.0765.42845.13521l-.0191-.0105c.077.0256.15784.0554.24263.0894.0848.034.18126.0806.28947.1398.40096.21943.74165.48856 1.02205.8074.28039.31886.49693.65239.64962 1.00059.15267.34821.23747.68822.2544 1.02002.0169.33181-.0408.61864-.17315.8605-.0906.16548-.22612.31874-.40667.45977-.18057.14104-.40091.26031-.66102.35781-.26013.0975-.5509.1679-.87231.21118-.32143.0433-.6648.0435-1.0301.00077l-.99253-.15856 1.55615.85156c-.00001 0 .0359-.005.10772-.0155l2.33417.35928.0356.61498c-.26529.0616-.53604.0954-.81223.10139-.27622.006-.55501-.006-.83636-.0359-.28138-.0299-.56158-.0695-.8406-.11884-.27903-.0493-.55575-.0953-.83014-.13792l.0191.0104c-.30395-.034-.68505-.17638-1.1433-.42715l-3.0932-1.69267c-.11626.33337-.20178.62566-.25655.87689-.0548.25122-.0872.46918-.0973.65388s-.006.34394.0115.47772c.0178.13378.0393.25309.0647.35793.11045.52359.27751.94376.50117 1.26051.22365.31674.51369.57264.87011.76768l.44871.24554c.006.003.0136.005.0217.006.008.0003.0153.002.0217.006zm.18081-12.23239 6.69738.63794 1.67895 1.87401-6.71215-.63362z"/><path d="m750.91346 706.42252-5.43257.24699-4.79963-23.39768-.18043.0908-5.84993 17.70933-5.87146.20947 7.67404-23.23139c.0426-.12915.0682-.22816.0766-.29703-.12457.0735-.25022.13943-.37696.19783-.12676.0584-.25027.11792-.37055.17845l-4.81982.14854-.27405-1.12204 5.46434-2.81528 4.2133-.134c.58125.19203 1.02395.44572 1.3281.76106.30411.31539.50621.67942.60629 1.0921.10004.41273.11415.85794.0423 1.33561-.0719.47772-.19312.97492-.36378 1.49158l-.26241.7944 2.65807-.17496 3.64302 18.05146 4.67227-14.14422c.017-.0516.0341-.10332.0512-.155.017-.0517.0276-.10546.0318-.16141l-.75391.39566-4.89732.12295-.26108-1.09627 5.53527-2.83483 4.18752-.12103c.50373.16643.90659.39979 1.20856.70008.30191.30033.51473.65359.63847 1.05976.12366.4062.1679.85778.13272 1.35472-.0353.49698-.14461 1.02317-.32805 1.57859z"/><path d="m757.2221 698.80311.0234-.007c-.008.006-.0127.009-.0127.009.001-.007-.002-.008-.0107-.002zm1.33268 3.8112-.0321-.006c.10385-.002.19735-.008.28052-.0184.0832-.01.15527-.0202.21637-.0307l1.09407-.10121c.70304-.31625 1.09677-.69529 1.18119-1.13713.0613-.32068.0181-.62624-.12956-.91667-.14765-.29042-.36972-.5489-.66621-.77545l.0107.002c-.24189-.16439-.60734-.30069-1.09632-.4089-.3171.19057-.61674.42509-.89892.70356-.28219.27848-.5038.56854-.66484.87015l.0127-.009c-.0979.2029-.19218.44525-.28295.72706-.0908.28181-.18209.62446-.27395 1.02793zm1.50246 5.18428c.22771.007.42043-.0452.57814-.15545.1577-.11022.31567-.23146.4739-.36373l3.42947-.55247c-.30934.2659-.57953.49127-.81058.67611-.23106.18484-.43817.34101-.62133.46852-.18318.1275-.34844.22889-.49576.30415-.14735.0753-.2906.12914-.42976.16165l-.62829.15695-1.70506.28363-.84461.0713c-.21211-.011-.43355-.0311-.66431-.0604-.23077-.0293-.47443-.0685-.73097-.11749-.55586-.1062-1.02598-.29389-1.41035-.56307s-.70179-.56988-.95224-.90211-.44083-.6696-.57113-1.01211c-.1303-.34252-.21863-.64377-.26498-.90377-.13601-.75724-.11347-1.60977.0676-2.55758l.0551-.28861c.0313-.1639.0855-.39915.16254-.70575.077-.30659.21425-.64785.41165-1.02378.16512-.323.40363-.63383.71552-.93249.31189-.29865.6695-.57564 1.07284-.83099l.0341-.005c.0326-.0159.085-.0391.15735-.0697.0723-.0305.13323-.0595.1828-.087l-.0127.009.002-.0107c.13612-.0552.28259-.10665.43942-.15426.15681-.0476.32399-.0914.50151-.13131l1.76921-.27137c.11641-.0295.22834-.045.33576-.0466.10741-.002.25716-.003.44926-.003l-.0214-.004c.0811.00073.16723.004.25836.0106.0911.006.19724.0211.3184.0442.44895.0858.85579.23738 1.22052.45478.36471.21742.67315.4684.92534.75294.25216.28455.43722.58213.55516.89272.11792.31061.15102.60132.0993.87211-.0354.18529-.1174.37276-.24595.5624-.12857.18965-.30168.37078-.51931.5434-.21765.17264-.47279.32887-.76541.46869-.29264.13984-.61935.24546-.98015.31687l-.9933.1537 1.74239.33289c-.00001 0 .0326-.0159.0978-.0478l2.33179-.3744.22266.57436c-.23359.14004-.48089.2553-.74192.34576-.26105.0905-.53006.16465-.80702.22253-.27698.0579-.55581.10618-.83649.14488-.28071.0387-.55818.0799-.83242.12349l.0214.004c-.29972.0609-.70612.0424-1.21921-.0557l-3.46341-.6617c-.008.35296-.00003.65739.0249.9133.025.25591.061.47331.10807.65219.0471.17889.0996.32926.15757.45113.058.12188.11509.22881.17138.32082.26581.46443.55376.81305.86383 1.04587.31006.23283.66464.38736 1.06372.46361l.50241.096c.007.001.0146.00094.0224-.001.008-.002.0153-.003.0224-.001z"/><path d="m772.85286 708.91454c.0904-.0269.19996-.0628.32873-.10752.12874-.0448.27231-.0916.4307-.14051-.21357-.53327-.41405-1.05239-.60141-1.55736-.18739-.50497-.35446-.99502-.5012-1.47017-.0751-.25598-.14013-.46896-.19511-.63893-.055-.16996-.10476-.33755-.14931-.50277-.0445-.16521-.0912-.34523-.13989-.54008-.0487-.19483-.10832-.44189-.17882-.74117-.043.0611-.10318.14778-.18069.25996-.0775.11219-.16198.23823-.25337.37812-.0914.13991-.18659.28123-.28557.42397-.099.14275-.18982.27724-.27247.40347-.0827.12624-.154.23178-.21404.31662-.06.0849-.0948.13772-.10431.1586-.14859.23235-.28645.44941-.41356.65119-.12712.20179-.24588.39352-.35627.57518-.11041.18167-.21482.35849-.31325.53048-.0984.17199-.20086.3472-.30727.52563 1.27993.52198 2.30577 1.10099 3.07755 1.73704.1071-.047.21022-.0909.30937-.13145.0991-.0406.20585-.084.32019-.1303zm5.55235-.24477.27205.53216-1.60415 1.40629-2.40641.61016c-.0504-.14395-.11238-.30006-.18578-.46833-.0734-.16826-.14417-.32713-.21226-.47659-.0681-.14946-.12711-.28155-.17698-.39626-.0499-.11471-.0838-.19124-.10158-.22961-.51504.17902-.95317.35522-1.31439.52861l-2.16998.5476c-.37694-.36815-.74886-.69747-1.11576-.98795-.36692-.29049-.72558-.53815-1.076-.743-.0547.10365-.10786.2093-.15936.31694-.0515.10763-.10424.20967-.15821.3061l-3.07979.76879 1.86243-3.22844c.054-.0964.15762-.26604.31096-.50883s.32872-.52155.52614-.83628.40758-.64635.63046-.99488c.22288-.34851.43284-.67833.62988-.98946.19704-.31112.37185-.58446.52443-.82004.15257-.23557.25907-.39758.3195-.48605.20747-.30636.44269-.63351.70564-.98145.26294-.34792.56881-.72232.91761-1.1232l2.54429-.67219c.17612 1.02543.35742 1.9675.54389 2.8262.18645.85872.39459 1.65042.62441 2.37509.11414.36956.22354.7149.32823 1.03603.10466.32113.21826.62679.3408.91698l-.0108-.001c.0633.15991.12526.31602.18578.46833.0605.15231.12726.3144.2003.48627.073.17187.15515.36112.2464.56775.0912.20663.19641.43662.31556.68997z"/><path d="m784.92866 706.84229c.63222-.22203 1.09422-.50469 1.386-.848.29177-.34329.43898-.80515.44164-1.38557.002-.54413-.12958-1.02176-.39614-1.43291-.26659-.41114-.60603-.75187-1.01835-1.0222l.0109.00005c-.18818-.10243-.40006-.17776-.63563-.226-.23558-.0482-.49122-.073-.76691-.0742-.0654.0142-.11436.0176-.14697.0102-.0326-.007-.078-.004-.13608.0103l-.23992.10774c.007.0944.0154.19597.0258.30484.0104.10888.0117.22498.004.34827l-.15177 4.64634c.2688-.0786.54119-.14807.81718-.20849.27597-.0604.54477-.13718.80639-.23031zm-1.11565 1.22469c-.0799.0214-.15619.0428-.22883.0643-.0581.0142-.11804.0285-.17977.0427-.0617.0142-.10711.0213-.13613.0212-.0233.33364-.0722.71069-.14663 1.13116-.0745.42047-.18517.82989-.33209 1.22826-.14693.39838-.33721.76028-.57086 1.0857-.23366.32543-.52493.55627-.8738.69253l-1.722.54719-.21498-.58867c.27645-.16561.49132-.34964.64461-.55209.15328-.20245.26861-.4341.34598-.69493.0774-.26084.12406-.55628.14008-.88633.016-.33004.025-.70184.0268-1.11538l.0266-5.83316c.001-.23216-.009-.45349-.0296-.664l-1.89668.6661-.31332-.50204 1.48695-1.50596 1.92947-.6986c.29021.001.56018.0642.80993.1887.24973.12449.44305.29224.57994.50326.1018-.0503.21814-.10601.34902-.1671.13087-.0611.29256-.11837.48508-.17191.1925-.0535.41943-.0978.68079-.13294.26134-.0351.5734-.0518.93616-.0501l.10883.0005c.49335.002.95723.10232 1.39166.30018.4344.19788.81232.45536 1.13375.77242.3214.31708.57555.67012.76242 1.05912.18686.38902.27941.77579.27767 1.16031l-.0002.0435c-.001.2757-.0479.56026-.13992.85367-.092.29343-.25116.5811-.47735.86302-.22621.28194-.52489.54902-.89605.80126-.37118.25225-.83293.47869-1.38524.67932l-.17447.0754c.36898.2266.69071.47475.96519.74445l-.0109-.00005c.0217.0146.0921.082.2113.20229.11915.12026.25634.26599.41156.4372.1552.17121.31581.35151.48183.5409.166.1894.30669.36054.42209.51343l1.85305-.64454.39034.31739-1.68329 1.60301c-.0218-.0001-.30519.10018-.85024.30085-.27617.10031-.52871.19167-.75762.27406-.22892.0824-.43787.15944-.62682.23113-.30225-.54553-.62998-1.0694-.98319-1.57163-.35323-.50223-.71407-.92468-1.08252-1.26736-.17344-.15315-.36679-.31365-.58005-.4815-.21327-.16784-.39947-.30654-.55858-.4161z"/><path d="m797.86817 709.86022c.18043.10325.37195.18483.57456.24474.20259.0599.40909.0909.61949.0928.20313.002.39199-.0218.56659-.071.17458-.0492.3404-.13108.49746-.24572.15704-.11463.30718-.26561.4504-.45294.14321-.18732.29226-.41812.44717-.6924l3.06811-1.07087c-.17714.32486-.34484.60991-.50309.85513-.15827.24523-.31082.46149-.45765.64878-.14685.18729-.28983.34921-.42894.48578-.13913.13658-.27808.25501-.41685.3553l.0109.0001c-.16075.12186-.33774.2345-.53096.33792-.19324.10342-.39904.19403-.61742.27182l-1.71427.60452-.54472.0603c-.26172.0556-.52688.0913-.79547.10692-.26861.0157-.51536.0225-.74026.0204-.53687-.005-1.01847-.10192-1.44479-.29087-.42634-.18896-.79606-.41911-1.10917-.69046-.31311-.27134-.56984-.5585-.7702-.86145-.20036-.30296-.34296-.57455-.4278-.81477-.12738-.34944-.22538-.7367-.294-1.16179-.0686-.42508-.10084-.86615-.0966-1.32322l.004-.47882c.00087-.0943.004-.19405.008-.29922.005-.10515.0165-.21932.0358-.34249.0193-.12316.0478-.26075.0854-.41278.0377-.15201.0864-.32207.14619-.51017l-.011.0108c.0451-.16646.0991-.32195.16212-.46649.063-.14452.13689-.28895.22167-.43328.0848-.14432.18768-.28849.30873-.43249.12104-.14398.26577-.29864.43418-.46397l-2.53337.91256c.1113-.26741.22048-.5004.32752-.69895.10704-.19853.22106-.36798.34208-.50835.12101-.14036.25086-.25525.38954-.34467.13868-.0894.29535-.16233.47-.21877.27669-.10626.5589-.21975.84661-.34044.2877-.12068.56994-.23779.8467-.35133l.30561-.0951c.11635-.0279.23987-.0467.37056-.0564.13068-.01.26495-.0139.4028-.0126l7.98769.0738.0825.49051-2.02088.80846-5.14738-.0476-.1318.12938c-.0805.0718-.16846.17078-.26394.29686-.0955.1261-.18566.26493-.27049.41651-.0848.15159-.16429.30866-.23835.47122-.0741.16257-.12986.31261-.1674.45011-.0675.23156-.12432.49768-.17063.79835-.0463.30069-.0678.65782-.0643 1.07142-.005.58765.0387 1.11046.13243 1.56842.0937.45797.22606.85825.39703 1.20083.17097.3426.37329.62925.60697.85995.23366.23071.48774.41264.76223.54577z"/><path d="m819.42665 709.45717-1.92413.8903c-.16757.0749-.35245.14059-.55464.19705-.2022.0565-.41918.0925-.65093.10816-.44764.0443-.87138.017-1.27122-.082-.39985-.099-.75449-.2753-1.06393-.52901-.30945-.25372-.56683-.58914-.77214-1.00626-.20532-.41713-.33727-.92171-.39585-1.51375l-.90234-9.11884c-.0122-.12273-.029-.23771-.0505-.34495-.0215-.10722-.0445-.21066-.069-.31032l-1.80607.86768-.36551-.48876 1.32284-1.66194 1.84832-.8828c.31768-.0314.58313-.001.79637.0907.21323.0919.3887.22584.52641.40176.1377.17594.2427.38974.315.64139.0723.25168.12236.5183.15023.79987l.90448 9.1405c.10716 1.083.38112 1.78861.82189 2.11682.51144.37954 1.0343.54287 1.56859.49.31767-.0314.74809-.17609 1.29125-.43398z"/><path d="m820.65897 700.45632.0196-.0144c-.006.008-.009.0126-.009.0126-.001-.007-.005-.007-.0107.002zm2.58445 3.10192-.0322.006c.0964-.0386.18186-.0771.25624-.11561.0744-.0385.13834-.0734.19188-.1046l.98912-.47842c.54751-.54268.78333-1.03572.70746-1.47911-.0551-.3218-.20266-.59281-.44276-.81304-.24011-.22021-.53872-.38441-.89582-.49261l.0107-.002c-.28418-.0691-.67421-.0686-1.1701.001-.23014.28966-.42852.61435-.59514.97409-.16663.35975-.27246.70909-.31751 1.04803l.009-.0126c-.0205.22434-.0238.48438-.01.78012.0138.29575.0484.64866.10388 1.05872zm3.22492 4.32829c.21556-.0737.37787-.1898.48692-.34831.10904-.15851.21447-.32745.31628-.50681l3.018-1.71993c-.19646.3575-.37048.6633-.52204.91741-.15158.25413-.29078.47301-.4176.65664-.12684.18365-.24605.33654-.35763.45868-.1116.12215-.22687.22284-.34579.30208l-.53336.3673-1.49736.86349-.76597.36294c-.2025.0641-.41694.12287-.64333.17633-.2264.0535-.46832.10223-.72576.14628-.55781.0955-1.06389.0845-1.51824-.0328-.45436-.11731-.85706-.28762-1.2081-.51094-.35105-.22331-.64763-.4725-.88976-.74758-.24214-.27508-.43049-.52623-.56506-.75347-.3929-.66147-.67073-1.46777-.83349-2.4189l-.0496-.28962c-.0281-.16448-.0599-.40379-.0952-.71794-.0353-.31413-.0265-.68184.0265-1.10312.0414-.36039.15575-.73511.34312-1.12418.18736-.38905.42514-.77385.71334-1.15441l.0303-.0162c.0249-.0263.0659-.0665.12293-.12041.057-.0539.10392-.10242.14072-.14553l-.009.0126-.002-.0107c.10811-.0995.22725-.19898.35743-.29855.13017-.0996.27138-.19917.42363-.29884l1.56171-.8745c.0987-.0684.19807-.12221.29809-.16142.10002-.0392.23994-.0926.41976-.16016l-.0215.004c.0762-.0277.1581-.0546.24566-.0807.0875-.026.19212-.0494.31369-.0703.45053-.0771.88469-.0778 1.3025-.002.41779.0757.79465.20262 1.1306.38066.33593.17807.61358.39186.83294.64138.21935.24954.35228.51018.3988.78192.0318.18594.0208.39025-.0331.61293-.0539.22269-.15251.45302-.29579.69099-.14331.23799-.32746.47377-.55247.70732-.22502.23358-.49396.44705-.80681.64044l-.87634.49223 1.74849-.29921c-.00001.00001.0249-.0263.0748-.079l2.05246-1.16827.40992.45983c-.16965.21305-.36085.40771-.57358.58396-.21275.17626-.43866.34005-.67774.49137-.2391.15133-.4833.29433-.73259.429-.24931.13467-.49473.27052-.73626.40753l.0215-.004c-.25932.16216-.64643.28728-1.16132.37539l-3.47553.59475c.11595.33347.23049.61566.34361.84657s.22308.42187.3299.57288c.10681.15102.20872.27344.30575.36724.097.0938.18801.17393.27299.24035.41179.34174.80369.56726 1.17572.67658.37201.10931.75826.1297 1.15874.0612l.50416-.0863c.007-.001.014-.004.0205-.009.007-.005.0134-.008.0205-.009z"/><path d="m860.91748 672.56365-1.59 3.36648-3.36018 2.83307c-.54449.0594-1.03128.079-1.46038.0586-.42912-.0203-.82879-.0589-1.19901-.11597-.37025-.057-.7198-.13626-1.04867-.2379-.32888-.10158-.66135-.21274-.99739-.33347l-2.15967-.75756c-.23888-.0555-.49528-.11895-.76919-.19039-.27393-.0714-.52396-.13723-.75009-.19756l.0382-.0144c-.77236-.1601-1.70606-.0343-2.80111.37743l-.6494.24418c-.0637.024-.0907.0487-.0811.0741l-.0191.007.0692-.0478c-.16696.25174-.35337.558-.55924.91879-.20587.36083-.40573.76662-.59958 1.21735-.19384.45078-.36138.94252-.50262 1.4752-.14123.53274-.23706 1.09924-.28748 1.69951-.18844 1.16089-.2085 2.33474-.0602 3.52156.14832 1.18686.45469 2.39784.91911 3.63294.47878 1.27334 1.05097 2.3989 1.71657 3.37669.66559.97782 1.4517 1.84128 2.35832 2.59039.48763.48519.98196.89156 1.483 1.21909.50102.32756 1.00559.60654 1.51371.83695.55587.24153 1.11687.41935 1.683.53348.56612.11415 1.15727.1789 1.77347.19427l-.0382.0144c.68778-.0261 1.34171-.0939 1.96178-.20355.62005-.1096 1.22294-.27453 1.80868-.49477l.68759-.25854c.0764-.0287.14005-.0527.191-.0718.0509-.0191.10384-.0427.15876-.0706.0549-.0279.11496-.0614.18023-.10047.0652-.0391.16309-.0977.2936-.1758.18446-.24376.38162-.55042.59148-.92.20982-.36957.41126-.79048.60431-1.26274.19301-.47224.36292-.98666.50972-1.54327.14677-.55659.25571-1.14619.32683-1.76881l4.89947-4.13126c-.18521 1.24686-.39202 2.34923-.62042 3.30711-.22845.95791-.50478 1.75942-.82899 2.40453l.0191-.007c-.0302.11308-.0659.22098-.10719.3237-.0413.10275-.10451.2246-.18954.36557-.0851.141-.20037.30788-.34586.50065-.14554.1928-.34634.4318-.60241.71702l.0501-.0407c-.1956.29155-.43776.57518-.72647.85087-.28876.27571-.62326.56499-1.00351.86783l.0573-.0216c-.0796.059-.25896.21001-.53815.45305-.27923.24307-.57833.50087-.89731.7734-.31901.27256-.61811.53036-.8973.7734-.27923.24306-.45225.39169-.51906.44587-.45821.40483-.99562.7922-1.61225 1.16213-.61666.36993-1.32847.69935-2.13543.98824-1.528.57454-3.01364.87518-4.45691.90193-1.4433.0267-2.81719-.24509-4.12169-.81553-.62434-.23031-1.22723-.51956-1.80868-.86774-.58146-.34816-1.13989-.77039-1.6753-1.26669l.007.0191c-2.02042-1.74005-3.50941-3.8834-4.46697-6.43005-.95277-2.5339-1.24484-5.1273-.87621-7.78021.087-.65763.21262-1.28984.37687-1.89662.16425-.60675.41166-1.26294.7422-1.9686.28288-.60047.64417-1.20502 1.08387-1.81365.4397-.60858 1.04221-1.20936 1.80752-1.80235l-.0191.007c.47571-.39685.95102-.80447 1.42591-1.22286.4749-.41834.9502-.82596 1.42591-1.22286l-.0191.007c.40736-.26941.85012-.57033 1.32828-.90275.47815-.33236 1.03556-.61825 1.67222-.85767.96772-.36384 1.80661-.57754 2.51667-.64109.71005-.0635 1.34379-.0111 1.90121.15714l-.0191.007c.39176.11433.79747.22701 1.21712.33806.41963.11112.72102.19762.90419.25952l-.0191.007c.41886.14773.74934.26327.99144.34661.24207.0834.45031.15408.62472.21201.17438.058.33882.10879.49331.15241.15447.0437.34717.10202.57812.17503l3.53681-2.94309z"/><path d="m878.9494 686.47238c.19893.41178.38041.84496.54443 1.29955.16401.4546.27998.89952.34792 1.33476.0679.43525.0745.84321.0198 1.22389-.0548.38068-.19654.70452-.42534.97153l-1.27622 1.29364-.45555-.42496c.15413-.2689.255-.52223.30262-.76.0476-.23776.0472-.48519-.001-.74231-.0485-.25711-.1404-.53858-.27574-.84442-.13537-.30583-.30894-.66128-.52073-1.06633l-2.64744-5.06313c-.16137-.3086-.51473-.46769-1.06009-.47728l.01-.005c-.25617.0112-.48793.0259-.69529.0443s-.39674.0437-.56815.076c-.18263.30838-.36003.59149-.53221.84935-.17219.25788-.34222.5003-.51009.72725l3.66102 7.00158-1.96637 2.15802-6.00085-11.47642c-.0572-.10928-.11576-.20963-.17584-.30104-.0601-.0914-.12006-.17873-.17999-.26203l-1.35073 1.47997-.52633-.30199.61021-2.05067 1.38426-1.50978c.30219-.15799.57515-.22703.8189-.20713s.46413.093.66112.21922c.19701.12625.36957.29187.5177.49686.14813.20502.27767.4136.38861.62576l1.5935 3.04752c.0503-.0918.1068-.19502.16962-.30975.0628-.11471.13025-.24412.20227-.38822l1.40355-1.51987c.12611-.025.22299-.0511.29065-.0783.0676-.0272.14097-.0553.21995-.0843.079-.029.17418-.0583.2856-.0879s.27717-.061.49724-.0942l-.01.005c.35903-.0649.70075-.10032 1.02517-.10622.32441-.006.62095.0172.88962.0691.26866.0519.49974.13373.69324.24541.19349.11171.33562.25435.42639.42793z"/><path d="m879.02 679.47634.0129-.0207c-.002.01-.004.015-.004.015-.004-.006-.007-.004-.009.006zm3.553 1.91768-.0278.0171c.0752-.0717.14011-.13924.19483-.20265.0547-.0634.10112-.11956.13919-.16848l.74011-.81208c.3063-.70743.34175-1.25281.10636-1.63614-.17084-.27821-.40867-.47485-.71347-.58994-.3048-.11507-.64306-.15638-1.01478-.12395l.009-.006c-.28951.0416-.65135.18714-1.08555.43673-.10585.35449-.16919.72968-.19 1.12559-.0208.39592.0109.75956.0952 1.09092l.004-.015c.0644.21586.15808.45847.28093.72784.12285.26939.28629.58408.49033.94407zm4.60377 2.81772c.17267-.14861.28013-.31676.32238-.50447.0422-.1877.0772-.38374.10501-.5881l2.16143-2.71931c-.0494.40492-.0971.75351-.14323 1.04577-.0462.29228-.0939.54724-.14332.76487-.0494.21765-.10318.40392-.16131.55881-.0581.1549-.12766.29125-.20857.40904l-.35842.53937-1.06859 1.35861-.57595.62186c-.16412.13484-.3413.26918-.53154.40303-.19026.13386-.39667.26913-.61924.4058-.48224.29614-.95606.47428-1.42144.53444-.46538.0602-.90254.0519-1.31146-.0248-.40893-.0767-.77694-.19763-1.10404-.36288-.32709-.16524-.59536-.32829-.80482-.48914-.6108-.46781-1.16867-1.11285-1.67362-1.93514l-.15376-.2504c-.0873-.14219-.20583-.35251-.35553-.63095-.14969-.27843-.27829-.62303-.38579-1.0338-.0957-.34991-.12894-.74029-.0998-1.17114.0292-.43083.10671-.87647.23263-1.33693l.0221-.0264c.0133-.0337.0364-.0862.0693-.1575s.0584-.13374.0765-.18744l-.004.015-.006-.009c.0633-.13254.1369-.26924.22069-.4101.0838-.14084.1778-.28584.28203-.435l1.12424-1.39277c.0662-.10021.13837-.18712.21663-.26074.0783-.0736.18827-.17519.33004-.30483l-.0186.0114c.0604-.0541.12642-.10954.198-.16629.0716-.0567.15994-.11735.26504-.18191.3895-.23917.79224-.40134 1.20822-.48651.41597-.0851.81299-.10759 1.19106-.0673.37807.0403.71533.13545 1.01178.28544.29645.15001.51681.34248.66108.57741.0987.16076.16447.35451.19729.58125.0328.22677.027.47725-.0175.75145-.0445.27422-.12769.56158-.24965.86208-.12196.30053-.29217.59874-.51061.89464l-.63029.78295 1.51164-.92827c0 .00001.0133-.0337.04-.1012l1.47045-1.84802.55157.2743c-.0782.26088-.18325.51269-.31513.75544-.1319.24276-.28066.47885-.44627.70826-.16563.22942-.3391.45301-.52039.67075-.1813.21777-.35856.43517-.53178.65222l.0186-.0114c-.18038.24699-.49314.50716-.93828.78051l-3.00475 1.84514c.2317.2664.443.48571.63391.65795.19091.17225.36403.30859.51936.40902.15533.10044.29547.17615.42043.22712.12496.051.23923.0915.34282.12153.50937.164.95705.22752 1.34304.19057.38598-.0369.75208-.16172 1.09831-.37433l.43588-.26766c.006-.004.0114-.009.0157-.016.004-.007.01-.0122.0157-.016zm-10.52951-6.22846 3.87803-5.49752 2.46022-.52739-3.88161 5.51249z"/><path d="m894.03591 683.03196-.5032-.36729c.12079-.28544.19056-.54904.20933-.79079.0188-.24176-.0113-.48736-.0903-.73681-.079-.24944-.20394-.51787-.37498-.80528-.17105-.2874-.38598-.61947-.6448-.99622l-3.30307-4.80792c-.0698-.10166-.13856-.19528-.20617-.28088-.0676-.0856-.13614-.16613-.20562-.24165l-1.16974 1.62225-.54361-.23391.36335-2.08493 1.18713-1.6738c.27508-.18897.53416-.29874.77724-.32931.24308-.0306.47138-.003.6849.084.21352.0866.41311.22015.59875.40068.18566.18055.36065.39042.52498.62961l2.82904 4.36778c.22819.34498.443.74095.64445 1.18791.20144.44698.35664.89711.4656 1.35039.10895.4533.15327.88938.13296 1.30825-.0203.41887-.13909.77774-.35628 1.07659z"/><path d="m903.78022 673.0603-1.18097 1.76074c-.10421.1511-.22801.30332-.37139.45665-.14339.15334-.31001.29692-.49986.43075-.35939.27053-.73559.46744-1.12861.59074-.39302.12331-.78764.15701-1.18388.10112-.39623-.0559-.79046-.20865-1.18268-.45827-.39223-.24962-.76723-.61209-1.12502-1.08741l-5.51089-7.32104c-.0742-.0985-.14833-.18801-.22248-.26842-.0741-.0804-.14755-.15681-.22023-.22924l-1.09188 1.68005-.56631-.22754.2662-2.1074 1.12011-1.71493c.25505-.19197.49754-.30413.72747-.33647.22994-.0323.44946-.009.65854.0696.20909.0787.40993.2068.6025.3842.19258.17743.37395.37917.54412.60522l5.52397 7.33844c.65449.86949 1.25531 1.32987 1.80245 1.38114.63421.0584 1.16579-.0739 1.59474-.39676.25504-.19198.54754-.53929.87751-1.04194z"/><path d="m900.24881 664.68962.01-.0224c-.00082.0102-.001.0154-.001.0154-.005-.006-.007-.003-.008.007zm3.80604 1.34736-.0249.0212c.0632-.0824.11699-.15917.16128-.23026.0443-.0711.0815-.1337.11157-.18791l.60616-.91641c.19364-.74618.14464-1.29051-.147-1.63299-.21167-.24857-.47695-.40622-.79584-.47297-.31889-.0667-.65948-.0554-1.02177.0339l.008-.007c-.27964.0857-.61474.28526-1.00529.59877-.05.36656-.0548.74703-.0143 1.14142.0404.39439.12783.7488.26216 1.06322l.001-.0153c.0969.20335.22683.42864.38972.67587.16288.24724.37286.53299.62993.85725zm4.98293 2.07476c.14771-.17344.22798-.35614.2408-.54812.0128-.19197.0172-.39105.0131-.59725l1.71665-3.01987c.0136.40769.0202.75948.0196 1.05536-.00057.2959-.008.55517-.0238.77782-.0153.22266-.0397.41499-.0733.57699-.0336.16201-.0813.30744-.14306.43629l-.27104.58815-.84651 1.50703-.47326.70318c-.14138.15851-.29574.31854-.46309.48011-.16736.16157-.35047.32703-.54932.49636-.43086.3669-.87157.61592-1.32213.74707-.45056.13114-.88376.19034-1.29962.17758-.41586-.0127-.79811-.0756-1.14676-.18844-.34865-.11287-.63884-.23264-.87058-.3593-.67558-.36811-1.32618-.9195-1.95179-1.65418l-.1905-.22371c-.10819-.12705-.25768-.31659-.44849-.56864-.19081-.25204-.37097-.57272-.54048-.96202-.14844-.33099-.24145-.71158-.27902-1.14178-.0376-.43018-.0296-.88245.0239-1.35681l.0178-.0295c.008-.0354.0227-.0908.0442-.16629.0215-.0755.0371-.14113.0467-.19698l-.001.0153-.007-.008c.0422-.14072.0938-.28712.15487-.4392.0611-.15207.13164-.30982.21164-.47326l.89623-1.54935c.0499-.10921.10789-.20622.17387-.291.066-.0848.15903-.20212.27913-.35205l-.0166.0141c.0514-.0628.10803-.12771.17002-.19481.062-.0671.13994-.14059.23384-.22057.348-.29633.72095-.51861 1.11883-.66686.39789-.14822.78672-.23156 1.16648-.25002.37976-.0184.72765.0236 1.04367.12614.31602.10255.5634.25877.74215.46866.1223.14363.21713.32494.28449.54391.0674.219.1002.46739.0985.74517-.002.27779-.0396.57455-.11384.89026-.0742.31573-.19643.6366-.36668.96262l-.50213.87071 1.35058-1.15008c-.00001.00001.008-.0354.024-.10617l1.16817-2.05251.58724.18604c-.0371.26982-.10207.53481-.19497.79498-.0929.26019-.20353.51637-.33183.76856-.1283.2522-.26524.49984-.41082.74292-.14559.2431-.28724.48522-.42494.72636l.0166-.0141c-.14017.27184-.40911.57709-.80682.91576l-2.68458 2.28605c.26997.22752.51254.41166.72771.55243.21517.14078.40723.24882.57618.32412s.31908.12852.4504.15963c.13132.0311.25047.0535.35745.0673.52856.0835.98068.0773 1.35636-.0186.37568-.096.71819-.27567 1.02753-.53909l.38943-.33162c.006-.005.01-.0108.013-.0182.003-.007.008-.0136.0131-.0182z"/></g><g stroke="#000"><path d="m267.0625 213.75c-12.27632-1.68567-22.94496 32.04454-24.4375 38.79129 45.47663-33.78831 28.40386-38.75221 24.4375-38.79134z" fill="#23277e" transform="translate(631.00323 390.97031)"/><path d="m688.94077 604.72031c12.27632-1.68567 22.94496 32.04454 24.4375 38.79129-45.47663-33.78831-28.40386-38.75221-24.4375-38.79134z" fill="#23277e"/><path d="m882.89119 423.31534v102.66031c0 17.90205-8.3612 34.59717-19.97106 49.12131-25.93656 32.44034-68.07479 54.04905-69.4169 54.04905-2.81164 0-44.09111-21.38652-69.55907-53.63546-11.53615-14.60949-19.82889-31.446-19.82889-49.5349v-103.17036h178.77592v.50501" fill="none" stroke-linecap="round" stroke-linejoin="bevel" stroke-width="1.54694"/></g><text transform="translate(631.00323 390.97031)" x="388.65067" y="209.5141"><tspan x="388.65067" y="209.5141"/></text></g></svg>