<svg height="630" width="550" xmlns="http://www.w3.org/2000/svg"><g fill-rule="evenodd"><g transform="translate(0 -20)"><path d="m547 375a272 272 0 0 1 -272 272 272 272 0 0 1 -272-272 272 272 0 0 1 272-272 272 272 0 0 1 272 272z" fill="#fff"/><g fill="none"><path d="m275 105c-148.643 0-270 121.357-270 270h87.5c0-100.88 81.62-182.5 182.5-182.5s182.5 81.62 182.5 182.5h87.5c0-148.643-121.357-270-270-270z"/><path d="m5 375c0 148.643 121.357 270 270 270s270-121.357 270-270h-87.5c0 65.213-34.774 125.442-91.25 158.049-56.476 32.606-126.024 32.606-182.5 0-56.476-32.607-91.25-92.836-91.25-158.049z"/></g></g><path d="m518.02 383.247c-3.738 4.426-9.338 11.98-10.277 15.192-7.924-1.244-14.717-2.547-22.658-.122-7.8 2.383-17.203 4.012-19.957 3.94-.29 6.022-6.235 10.516-.445 14.693l9.645-1.397c1.244-.18 1.477 1.74.214 1.931l-9.457 1.436c-.614 5.582 5.668 3.415 6.168 8.13 6.792-1.082 10.556-.577 14.352-4.46 2.766 1.9 13.458 7.716 13.458 7.716-6.415 5.078-17.335 5.695-25.053 5.42l-6.093 9.804c5.539 2.155 12.915 2.65 20.537 2.019-7.901 4.87-22.602 6.074-32.59 5.127l-10.083 11.877c9.269 4.503 22.45 6.208 34.157 4.41-9.265 4.1-17.257 6.418-26.482 5.755l-7.063 11.005c7.504 3.41 17.053 5.362 25.636 3.488-13.362 17.17-38.012 22.915-59.707 23.767l-9.236 11.237c39.941 5.44 90.636-11.871 108.92-51.536 8.509-18.457 11.299-33.264 11.73-45.194.432-11.93-.77-24.083-3.059-27.664-1.737 3.013-3.668 2.345-4.496 1.077 6.842-2.107 2.75-14.27 1.84-17.651zm-17.284 7.325c-3.689.497-7.537 1.96-10.173 3.844 4.456 1.446 13.868 2.81 16.606 1.878l2.26-4.143c-2.543-1.724-5.005-2.076-8.693-1.58zm-2.843 11.465c1.345-.147 3.018 1.195 3.166 2.54.147 1.345-1.195 3.019-2.54 3.166-1.345.148-3.019-1.195-3.167-2.54-.147-1.345 1.196-3.019 2.54-3.166zm-452.051-22.325c-8.706 15.285-9.24 31.271 8.44 38.727 10.468-14.762 4.104-27.908-8.44-38.727zm21.551 24.165c-11.75 11.044-12.71 33.52-1.791 40.909 15.094-15.603 11.77-31.373 1.791-40.91zm-32.715 6.302c-2.489 15.905-.343 31.044 22.478 33.392-1-13.95-4.499-26.511-22.478-33.392zm45.565 21.573c-13.335 16.878-12.672 23.665-2.956 40.414 9.6-10.323 14.27-28.456 2.956-40.414zm-41.018 11.507c2.03 15.97 11.218 25.298 30.536 27.118-2.117-20.635-8.79-23.871-30.536-27.118zm50.786 14.213c-10.028 19.08-5.983 30.137 8.234 36.844 9.522-8.588 3.754-29.05-8.234-36.844zm-37.286 14.212c4.862 15.346 15.707 28.609 36.229 23.82-7.276-17.634-17.77-24.278-36.23-23.82zm47.992 25.71c-15.952 1.163-22.185 4.53-29.553 2.256 7.08 16.524 25.685 14.165 36.941 12.502 11.257-1.662 20.357 2.493 50.644 27.857-15.697-26.6-42.08-43.776-58.032-42.614z" fill="#b24c16"/><path d="m155.484 502.059-10.224 12.628c35.559 28.896 83.917 46.063 129.74 46.063s94.181-17.167 129.74-46.063l-10.224-12.628a189.493 189.493 0 0 1 -119.516 42.441 189.493 189.493 0 0 1 -119.516-42.441zm-22.021 27.2-9.438 11.657 9.954 7.66-8.293 24.813a264.032 264.032 0 0 0 34.35 19.916l17.359-19.6 31.453 11.475.695 26.162a263.89 263.89 0 0 0 39.133 6.857l9.582-24.289 16.742.59 16.742-.59 9.584 24.29a263.892 263.892 0 0 0 39.131-6.858l.695-26.162 31.453-11.475 17.36 19.6a264.032 264.032 0 0 0 34.35-19.916l-8.294-24.813 9.954-7.66-9.436-11.656a224.487 224.487 0 0 1 -141.539 50.24 224.481 224.481 0 0 1 -141.537-50.24z" fill="#b24c16"/><path d="m110 355c0-91.127 73.873-165 165-165s165 73.873 165 165z" fill="#05b5ff"/><path d="m440 355c0 91.127-73.873 165-165 165s-165-73.873-165-165z" fill="#089420"/><path d="m285.398 226.897c-31.42-.45-43.818 21.634-106.728 69.966l199.15 3.297c-13.264-6.659-46.181-38.744-62.782-48.699-16.6-9.954 1.78-24.115-29.64-24.564zm13.85 9.84c.794 6.969 4.074 13.383 9.569 16.281-16.947 12.305-31.136-12.335-9.569-16.282z" fill="#fff"/><path d="m112.474 363.793h329.525l-6.693-40.557c-60.756-10.812-91.65-65.39-142.623-29.863-123.572-41.705-104.521 28.834-179.18 32.953z" fill="#2150a7"/><path d="m115 349c10.04 9.911 29.831 9.911 40 0 10.04 9.911 29.831 9.911 40 0 10.04 9.911 29.831 9.911 40 0 10.04 9.911 29.831 9.911 40 0 10.04 9.911 29.831 9.911 40 0 10.04 9.911 29.831 9.911 40 0 10.04 9.911 29.831 9.911 40 0 10.04 9.911 29.831 9.911 40 0v20h-320z" fill="#fff"/><path d="m115 357c10.04 9.911 29.831 9.911 40 0 10.04 9.911 29.831 9.911 40 0 10.04 9.911 29.831 9.911 40 0 10.04 9.911 29.831 9.911 40 0 10.04 9.911 29.831 9.911 40 0 10.04 9.911 29.831 9.911 40 0 10.04 9.911 29.831 9.911 40 0 10.04 9.911 29.831 9.911 40 0v20h-320z" fill="#7dbaff"/><path d="m115 365c10.04 9.911 29.831 9.911 40 0 10.04 9.911 29.831 9.911 40 0 10.04 9.911 29.831 9.911 40 0 10.04 9.911 29.831 9.911 40 0 10.04 9.911 29.831 9.911 40 0 10.04 9.911 29.831 9.911 40 0 10.04 9.911 29.831 9.911 40 0 10.04 9.911 29.831 9.911 40 0v20h-320z" fill="#3292ff"/><path d="m115 373c10.04 9.911 29.831 9.911 40 0 10.04 9.911 29.831 9.911 40 0 10.04 9.911 29.831 9.911 40 0 10.04 9.911 29.831 9.911 40 0 10.04 9.911 29.831 9.911 40 0 10.04 9.911 29.831 9.911 40 0 10.04 9.911 29.831 9.911 40 0 10.04 9.911 29.831 9.911 40 0v18h-320z" fill="#0067dc"/><path d="m144 432.882c-8.91 0-16.5 6.115-16.5 6.115v29.354h88c-26.432-12.69-44.881-35.47-71.5-35.47zm121 0c-7.32 0-16.5 6.115-16.5 6.115v29.354h88c-8.525-4.093-16.219-9.235-23.624-14.324-15.558-10.69-29.842-21.145-47.876-21.145zm121 0c-11.973 0-16.5 6.115-16.5 6.115v29.354h68.38v-11.605c-17.15-11.56-32.316-23.864-51.88-23.864z" fill="none" transform="translate(0 -70)"/><path d="m144 362.882c-11.716 0-22.206 2.935-31.012 6.91v29.782h324.892v-7.539c-9.238 2.682-20.117 3.87-29.88 3.87-46.876.25-38.81-33.023-22-33.023-24.433 0-43.619 12.715-53.05 21.167-9.433 8.453-29.329 11.856-45.95 11.856-50.881.271-39.874-33.023-22-33.023-24.433 0-43.619 12.715-53.05 21.167-9.433 8.453-29.329 11.856-45.95 11.856-49.425 0-36.95-33.023-22-33.023z" fill="#b24c16"/></g><circle cx="275" cy="355" fill="none" r="165" stroke="#ff3d01" stroke-width="20"/><path d="m6934.639 9923.6c63.235 150.844-776.323 191.98-945.02 202.279-168.699 10.3-73.232 63.514 100.18 76.457l1.693 29.919c-630.171 3.091-630.172 395.749-1.692 395.749v34.127c-628.48 0-628.48 436.55-2.313 436.55l724.201-2.582c53.821 0 79.903-34.325 79.56-82.198l-2.722-223.226c310 1.312 230.15 308.185-91.006 349.175-115.272 14.712-225.108 55.814 85.527 77.357-28.5 46.384-752.468 66.549-899.144 74.392s-52.67 58.336 105.094 79.66v33.166c-626.704 0-627.673 422.565-2.56 422.565l716.624-3.716c60.24 0 84.383-27.376 84.494-84.408l.685-219.609c305.036 1.268 245.184 293.354-83.582 348.009-120.68 20.063-205.583 63.464 85.363 83.126 696.224 47.052 622.23-545.894-1.959-545.894l-.513-57.451c362.732-53.67 321.544-92.478 265.318-165.6 332.127-84.477 334.485-514.468-266.86-518.352v-504.927c346.64-52.066 398.245-105.153 143.423-266.768-52.467-37.282-121.237-30.886-94.791 32.2zm-844.84 429.249v155.579c-209.352-1.833-212.13-151.814 0-155.579zm0 440.876v167.548c-213.818-1.574-213.877-166.551 0-167.548zm-.456 730.965v167.548c-213.363 0-213.363-167.548 0-167.548z" fill="none" stroke-linejoin="round" stroke-width="28.222" transform="matrix(.04543 0 0 .04543 -20.365 -41.411)"/><g transform="translate(0 -70)"><path d="m251.02 122.9a23.948 23.948 0 0 0 47.896 0c0-9.58-5.987-10.777-5.987-14.37 0-3.592 3.593-8.381-3.592-14.368 3.592 5.987-2.394 7.184-2.394 13.171s2.394 5.987 2.394 10.777a4.79 4.79 0 0 1 -9.579 0c0-4.79 4.79-9.58 4.79-16.764s-1.198-9.58-4.79-15.566c-3.592-5.987-9.579-10.777-4.79-15.566-7.184 2.394-3.592 11.974-3.592 17.96 0 5.988-4.79 9.58-4.79 16.764 0 7.185 3.593 8.382 3.593 13.172a4.79 4.79 0 0 1 -9.58 0c0-4.79 2.396-4.79 2.396-10.777s-5.987-7.184-2.395-13.171c-7.185 5.987-3.592 10.776-3.592 14.368 0 3.593-5.987 4.79-5.987 14.37" fill="#ff3d01"/><ellipse cx="274.969" cy="192.388" fill="none" rx="35.962" ry="35.962"/><path d="m321.883 206.68c8.326 77.014-102.946 77.014-93.788 0 15.82 47.873 77.136 47.873 93.788 0z" fill="#bebebe" fill-rule="evenodd"/></g></svg>