<svg height="1000" viewBox="0 0 1000 1000" width="1000" xmlns="http://www.w3.org/2000/svg" xmlns:xlink="http://www.w3.org/1999/xlink"><g fill-rule="evenodd"><path d="m115.96551 465h767.91796l-106.06601-242.81746-280.01429-124.450789-294.15642 130.107649z" fill="#b5ebff"/><path d="m115.96551 465 39.59798 209.73088h683.06515l45.25483-209.73088z" fill="#fbfe00"/><path d="m155.56349 674.73088 185.26198 179.60512h315.36962l182.43355-179.60512z" fill="#fff"/></g><path d="m200 700c15.40254 29.90559 60.14035 30.58237 75 0 15.40254 29.90559 60.14035 30.58237 75 0 15.40254 29.90559 60.14035 30.58237 75 0 15.40254 29.90559 60.14035 30.58237 75 0 15.40254 29.90559 60.14035 30.58237 75 0 15.40254 29.90559 60.14035 30.58237 75 0 15.40254 29.90559 60.14035 30.58237 75 0 15.40254 29.90559 60.14035 30.58237 75 0" fill="none" stroke="#000" stroke-width="2"/><path id="a" d="m800 720c-14.85965 30.58237-59.59746 29.90559-75 0-14.85965 30.58237-59.59746 29.90559-75 0-14.85965 30.58237-59.59746 29.90559-75 0-14.85965 30.58237-59.59746 29.90559-75 0-14.85965 30.58237-59.59746 29.90559-75 0-14.85965 30.58237-59.59746 29.90559-75 0-14.85965 30.58237-59.59746 29.90559-75 0-14.85965 30.58237-59.59746 29.90559-75 0v20c15.40254 29.90559 60.14035 30.58237 75 0 15.40254 29.90559 60.14035 30.58237 75 0 15.40254 29.90559 60.14035 30.58237 75 0 15.40254 29.90559 60.14035 30.58237 75 0 15.40254 29.90559 60.14035 30.58237 75 0 15.40254 29.90559 60.14035 30.58237 75 0 15.40254 29.90559 60.14035 30.58237 75 0 15.40254 29.90559 60.14035 30.58237 75 0" fill="#70cbfd" fill-rule="evenodd" stroke="#000" stroke-width="2"/><use id="b" height="100%" stroke-width="2" transform="translate(0 40)" width="100%" xlink:href="#a"/><use height="100%" stroke-width="2" transform="translate(0 40)" width="100%" xlink:href="#b"/><path d="m295.7207 465-164.58203 80.36523 3.71485 19.67579 184.64062-100.04102zm47.56836 0-203.6875 125.18164 6.27539 33.24609 221.22657-158.42773zm47.66016 0-236.38086 204.45312.99609 5.27735h70.57422l188.66602-209.73047zm47.73633 0-134.54493 209.73047h78.07618l80.36718-209.73047zm47.79883 0-26.14844 209.73047h78.22851l-26.13672-209.73047zm49.86523 0 80.36719 209.73047h78.07617l-134.54297-209.73047zm47.77734 0 188.66993 209.73047h65.83203l1.83789-8.51367-232.48047-201.2168zm47.69922 0 218.30078 156.43945 7.01758-32.51562-201.50195-123.92383zm47.61328 0 183.03125 99.23828 4.17969-19.37695-163.4375-79.86133z" fill="#c87200" fill-rule="evenodd"/><g fill-rule="evenodd"><g transform="matrix(1.0000694 0 0 .80332299 127.97435 91.469364)"><path d="m357.28906 465c27.5-18.5 43.21094-36 50.71094-52.5 26.5-19.5 31-27 41.5-50 15.5-3 38.5-21 50.5-40.5 12 21 27 37.5 50 42 11 23.5 26.83469 37.79934 46.5 45.5 9 26.5 22.14258 40 45.14258 55.5" fill="#66b4f7"/><path d="m499.82031 370.34961c-7.94267 17.40685-18.6665 31.32096-36.42578 36.30664-9.54952 22.73336-27.58072 39.61402-58.0332 58.34375h46.05664c15.5483-9.56294 24.75511-18.18196 29.63086-29.78906 9.06745-2.54557 14.54232-9.64959 18.59765-18.53711 4.31062 7.95634 12.95384 15.73706 20.72657 17.25781 6.44347 15.41665 14.57097 24.20916 27.14062 31.06836h46.05664c-24.61857-13.43425-40.53622-30.65692-53.15625-60.85156-15.22346-2.9785-32.15108-18.21576-40.59375-33.79883z" fill="#fff"/></g><g transform="matrix(1.0000694 0 0 .80332299 -130.0437 91.469364)"><path d="m357.28906 465c27.5-18.5 43.21094-36 50.71094-52.5 26.5-19.5 31-27 41.5-50 15.5-3 38.5-21 50.5-40.5 12 21 27 37.5 50 42 11 23.5 26.83469 37.79934 46.5 45.5 9 26.5 22.14258 40 45.14258 55.5" fill="#5688ff"/><path d="m499.82031 370.34961c-7.94267 17.40685-18.6665 31.32096-36.42578 36.30664-9.54952 22.73336-27.58072 39.61402-58.0332 58.34375h46.05664c15.5483-9.56294 24.75511-18.18196 29.63086-29.78906 9.06745-2.54557 14.54232-9.64959 18.59765-18.53711 4.31062 7.95634 12.95384 15.73706 20.72657 17.25781 6.44347 15.41665 14.57097 24.20916 27.14062 31.06836h46.05664c-24.61857-13.43425-40.53622-30.65692-53.15625-60.85156-15.22346-2.9785-32.15108-18.21576-40.59375-33.79883z" fill="#fff"/></g><g transform="matrix(1 0 0 .52852041 -244 219.23801)"><path d="m357.28906 465c27.5-18.5 43.21094-36 50.71094-52.5 26.5-19.5 31-27 41.5-50 15.5-3 38.5-21 50.5-40.5 12 21 27 37.5 50 42 11 23.5 26.83469 37.79934 46.5 45.5 9 26.5 22.14258 40 45.14258 55.5" fill="#60db66"/><path d="m499.82031 370.34961c-7.94267 17.40685-18.6665 31.32096-36.42578 36.30664-9.54952 22.73336-27.58072 39.61402-58.0332 58.34375h46.05664c15.5483-9.56294 24.75511-18.18196 29.63086-29.78906 9.06745-2.54557 14.54232-9.64959 18.59765-18.53711 4.31062 7.95634 12.95384 15.73706 20.72657 17.25781 6.44347 15.41665 14.57097 24.20916 27.14062 31.06836h46.05664c-24.61857-13.43425-40.53622-30.65692-53.15625-60.85156-15.22346-2.9785-32.15108-18.21576-40.59375-33.79883z" fill="#fff"/></g><g transform="matrix(1 0 0 .52852041 238 219.23801)"><path d="m357.28906 465c27.5-18.5 43.21094-36 50.71094-52.5 26.5-19.5 31-27 41.5-50 15.5-3 38.5-21 50.5-40.5 12 21 27 37.5 50 42 11 23.5 26.83469 37.79934 46.5 45.5 9 26.5 22.14258 40 45.14258 55.5" fill="#fbfe00"/><path d="m499.82031 370.34961c-7.94267 17.40685-18.6665 31.32096-36.42578 36.30664-9.54952 22.73336-27.58072 39.61402-58.0332 58.34375h46.05664c15.5483-9.56294 24.75511-18.18196 29.63086-29.78906 9.06745-2.54557 14.54232-9.64959 18.59765-18.53711 4.31062 7.95634 12.95384 15.73706 20.72657 17.25781 6.44347 15.41665 14.57097 24.20916 27.14062 31.06836h46.05664c-24.61857-13.43425-40.53622-30.65692-53.15625-60.85156-15.22346-2.9785-32.15108-18.21576-40.59375-33.79883z" fill="#fff"/></g><g transform="matrix(1.0002065 0 0 1.0000159 -.103129 .022103)"><path d="m357.28906 465c27.5-18.5 43.21094-36 50.71094-52.5 26.5-19.5 31-27 41.5-50 15.5-3 38.5-21 50.5-40.5 12 21 27 37.5 50 42 11 23.5 26.83469 37.79934 46.5 45.5 9 26.5 22.14258 40 45.14258 55.5" fill="#f79018"/><path d="m499.82031 370.34961c-7.94267 17.40685-18.6665 31.32096-36.42578 36.30664-9.54952 22.73336-27.58072 39.61402-58.0332 58.34375h46.05664c15.5483-9.56294 24.75511-18.18196 29.63086-29.78906 9.06745-2.54557 14.54232-9.64959 18.59765-18.53711 4.31062 7.95634 12.95384 15.73706 20.72657 17.25781 6.44347 15.41665 14.57097 24.20916 27.14062 31.06836h46.05664c-24.61857-13.43425-40.53622-30.65692-53.15625-60.85156-15.22346-2.9785-32.15108-18.21576-40.59375-33.79883z" fill="#fff"/></g></g><g fill="none" stroke-linejoin="round"><circle cx="500" cy="500" r="399.55606" stroke="#c87200" stroke-width="100"/><g stroke="#fbfe00" stroke-width="7"><circle cx="500" cy="500" r="361.00903"/><circle cx="500" cy="500" r="437.99329"/></g></g><path id="c" d="m782.37857 791.39183 13.03363 13.44966c9.8683-8.87355 28.68167-29.75084 35.88918-39.43287l-9.74451-7.80682-8.25572 9.96965-18.98871-16.21789-8.03897 9.12309-9.23503-8.40323c8.23967-8.58096 22.58743-26.52111 29.40176-36.71243l30.63467 21.53703 7.27739-10.70464-10.4359-6.85509c3.91164-5.71568 10.25985-15.64224 13.11759-21.40043l-10.84584-6.18636 5.85257-10.65857 33.10379 17.52755c6.64324-11.48872 18.08438-37.15785 21.94722-48.59325l-11.68002-4.41351-4.77087 12.03286-23.07094-9.5563-4.82632 11.16075-11.37978-5.13816c5.18909-10.81068 13.4081-32.2121 16.61798-44.00124l35.7906 11.0163 3.6133-12.42956-12.04347-3.2947c1.95394-6.6447 4.92397-18.04713 5.86247-24.40658l-12.2267-2.53203 2.27245-11.94545 36.89988 6.44006c2.76789-12.9793 5.71687-40.9276 5.85691-52.99699l-12.47221-.58817-.81901 12.91821-24.89483-1.95927-1.14124 12.10592-12.41059-1.37014c1.85524-11.7135 2.81402-34.88666 2.24009-46.97069l37.4757-.57057-.4045-12.93777-12.47213.58817c-.19502-6.92328-.8939-18.68542-1.96652-25.02363l-12.41071 1.37015-1.53013-12.06302 37.08398-5.27783c-1.37842-13.19937-7.21028-40.69107-10.80673-52.21302l-12.04353 3.29474 3.21302 12.53903-24.28183 5.82956 2.65554 11.86608-12.22656 2.532c-1.85524-11.7135-8.1043-34.04877-12.41906-45.36555l35.43042-12.12482-4.38269-12.17956-11.67995 4.41349c-2.32488-6.52417-6.62426-17.49466-9.60299-23.1912l-11.37989 5.13821-5.18292-10.99978 33.63802-16.47909c-5.38978-12.12739-19.43161-36.47141-26.41252-46.31807l-10.43595 6.85514 6.93054 10.93245-21.29196 13.04773 6.19239 10.46471-10.84572 6.18629c-5.7254-10.90819-18.3268-29.4879-25.82996-39.3075l29.94957-22.47999-7.93188-10.22913-9.74445 7.80679c-4.22717-5.48643-11.70619-14.59141-16.29946-19.08866l-9.23513 8.40331-8.32836-8.8598 26.89933-26.06727c-8.87355-9.8683-29.75084-28.68167-39.43287-35.88918l-7.80682 9.74451 9.96965 8.25572-16.21789 18.98871 9.12309 8.03897-8.40323 9.23503c-8.58096-8.23967-26.52111-22.58743-36.71243-29.40176l21.53703-30.63467-10.70464-7.27739-6.85509 10.4359c-5.71568-3.91164-15.64224-10.25985-21.40043-13.11759l-6.18636 10.84584-10.65857-5.85257 17.52755-33.10379c-11.48872-6.64324-37.15785-18.08438-48.59325-21.94722l-4.41351 11.68002 12.03286 4.77087-9.5563 23.07094 11.16075 4.82632-5.13816 11.37978c-10.81068-5.18909-32.2121-13.4081-44.00124-16.61798l11.0163-35.7906-12.42956-3.6133-3.2947 12.04347c-6.6447-1.95394-18.04713-4.92397-24.40658-5.86247l-2.53203 12.2267-11.94545-2.27245 6.44006-36.899882c-12.9793-2.767887-40.9276-5.716861-52.99699-5.856907l-.58817 12.472209 12.91821.819009-1.95927 24.894831 12.10592 1.14124-1.37014 12.41059c-11.53672-1.4133-28.62328-2.44827-41.06646-2.41873" fill="none" stroke="#fff" stroke-width="6"/><path id="d" d="m733.33358 831.98779 10.76917 15.32299c14.48772-10.50885 28.68729-21.50323 41.59227-33.33497l-8.40329-9.23508-9.71368 8.55542-16.21789-18.98871-9.36716 7.7532-7.80678-9.74445c9.59455-6.97084 26.6584-22.6788 34.79473-31.66191l26.90023 26.06326 8.86236-9.43441-9.23502-8.40324c4.7576-5.03339 12.5805-13.84466 16.30383-19.08491l-9.74453-7.80685 7.44789-9.61181 29.95431 22.49035c10.53124-14.47145 21.1948-29.49645 29.25553-44.55616l-10.8458-6.18632-6.59449 11.13838-21.29197-13.04774-6.51282 10.26835-10.43589-6.8551c6.97085-9.59454 18.34551-29.80672 23.30768-40.86443l33.63763 16.47501 5.51322-11.71128-11.37977-5.13818c2.96934-6.25721 7.68653-17.05464 9.6083-23.18899l-11.68005-4.41353 4.11315-11.4429 35.43815 12.13321c5.64138-16.62746 10.70125-34.5536 14.05505-51.41589l-12.22665-2.532-2.82978 12.63104-24.28185-5.82956-3.02096 11.77836-12.04347-3.29472c3.6648-11.27907 8.23684-34.01695 9.53912-46.06686l37.08235 5.27407 1.6244-12.84177-12.41059-1.37016c.89042-6.86853 2.04015-18.59519 1.97224-25.02316l-12.47224-.58819.37579-12.15387 37.45304.58838c.15374-17.88347-.50253-36.24929-2.45606-53.21823l-12.41067 1.37015 1.21193 12.88728-24.89483 1.95927.76659 12.13541-12.47213.58817c0-11.85951-2.67812-34.89736-5.1632-46.75993l36.89718-6.44315-2.42343-12.71521-12.22657 2.532c-1.27566-6.80753-3.80594-18.31553-5.85687-24.40791l-12.04357 3.29474-3.39836-11.67514 35.80178-11.01406c-5.03-17.14722-12.09464-34.48452-18.85072-49.85767l-11.37985 5.1382 5.135 11.88203-23.07094 9.5563 4.47912 11.30457-11.67995 4.41348c-3.66479-11.27906-13.33092-32.36177-19.3601-42.87582l33.10026-17.52965-6.23404-11.344-10.84573 6.18629c-3.31686-6.08015-9.27947-16.24301-13.11267-21.40343l-10.43598 6.85515-6.83985-10.05357 30.64598-21.53835c-10.50885-14.48772-21.50323-28.68729-33.33497-41.59227l-9.23508 8.40329 8.55542 9.71368-18.98871 16.21789 7.7532 9.36716-9.74445 7.80678c-6.97084-9.59455-22.6788-26.6584-31.66191-34.79473l26.06326-26.90023-9.43441-8.86236-8.40324 9.23502c-5.03339-4.7576-13.84466-12.5805-19.08491-16.30383l-7.80685 9.74453-9.61181-7.44789 22.49035-29.95431c-14.47145-10.53124-29.49645-21.1948-44.55616-29.25553l-6.18632 10.8458 11.13838 6.59449-13.04774 21.29197 10.26835 6.51282-6.8551 10.43589c-9.59454-6.97085-29.80672-18.34551-40.86443-23.30768l16.47501-33.63763-11.71128-5.51322-5.13818 11.37977c-6.25721-2.96934-17.05464-7.68653-23.18899-9.6083l-4.41353 11.68005-11.4429-4.11315 12.13321-35.438143c-16.62746-5.641388-34.5536-10.701259-51.41589-14.055052l-2.532 12.226647 12.63104 2.829784-5.82956 24.281844 11.77836 3.02096-3.29472 12.04347c-11.27907-3.6648-34.01695-8.23684-46.06686-9.53912l5.27407-37.082348-12.84177-1.624399-1.37016 12.410587" fill="none" stroke="#fff" stroke-width="6"/><g transform="matrix(-1 0 0 1 999.97397 0)"><use height="100%" width="100%" xlink:href="#c"/><use height="100%" width="100%" xlink:href="#d"/></g><path d="m807.8301 987.93082s-38.5742-7.94156-56.65428-36.87205c-18.08007-28.93049-26.36676-48.7795-46.84883-48.7795s-34.34385 28.14264-43.44699 37.81473c-9.10314 9.67208-19.31293 27.3984-44.14215 28.61395s-69.34243-21.74617-98.16347-46.2227" fill="none" stroke="#000" stroke-width=".5"/><g id="e"><path d="m500 924.52829s66.68226 71.1844 110.9359 71.98901 66.1448-15.03802 66.1448-37.55249.60346-35.80522 8.44842-35.80522 8.85073 8.85073 8.44843 14.48301c-.40231 5.63228-.40231 23.33374 8.85072 23.13258 9.25304-.20115 5.22998.60346 12.87379-3.8219-2.81614 6.83919-3.62075 4.82767-3.21845 15.89108.40231 11.06341 7.44266 18.50607 24.13835 19.91414s71.20814-4.82768 71.20814-4.82768-10.9658-7.51467-10.9658-20.14388c0-12.62922-4.72414-20.89131-12.5691-21.09246-7.84497-.20115-7.01768 1.29616-13.27609 4.42536 3.1292-5.68946 7.9485-17.95141 1.91391-23.38254-6.03458-5.43112-13.96041-4.72414-20.21882-2.16388 2.84473-3.69815 5.12824-14.80017-2.01153-22.14703-7.13977-7.34687-13.81602-8.67038-24.06982-10.5218-10.39433-1.87678-21.63467-.69838-32.3935 2.71135-10.75882 3.40973-35.81517 25.57496-42.70507 33.57823-6.03835 7.0141-17.30207 22.11589-42.19273 22.16092-24.89066.045-55.1878-13.93919-70.54935-28.16285z" fill="#5688ff" fill-rule="evenodd" stroke="#c87200" stroke-width="3"/><path d="m799.98653 985.29735c-12.88815-4.28063-24.38637-10.32112-33.20398-17.44343-4.40823-3.56069-10.67936-10.24321-13.51249-14.39891-1.35455-1.9869-5.58881-8.77211-9.40946-15.07826-10.5538-17.41949-14.87221-23.46394-20.43867-28.60784-5.62721-5.20003-11.48745-7.65669-18.37957-7.70486-6.60155-.0461-11.43773 1.71929-17.75993 6.48321-5.43786 4.09755-10.39781 9.68354-18.80619 21.17992-5.34202 7.30388-16.75614 20.69976-21.49591 25.22811-8.32919 7.95766-17.01318 12.06486-27.86431 13.17878-12.96477 1.33089-32.20809-4.19485-54.47839-15.64352-14.16411-7.28145-29.60616-17.17525-40.74336-26.10448l-2.52431-2.02386 2.52431-.21956c1.38836-.12076 5.27555-.30267 8.63819-.40426l6.11388-.1847 1.73108 1.51385c13.21248 11.55446 35.52079 21.84722 55.0366 25.39316 5.904 1.07273 16.31325 1.48246 20.94662.82451 7.65707-1.08734 14.23798-3.50099 20.29927-7.4451 3.67251-2.3897 9.5645-7.98984 16.02268-15.22899 9.4362-10.5773 29.1311-26.52929 38.80861-31.43326 4.92448-2.49542 16.4872-4.66402 24.86735-4.66389 7.85492.00012 19.26497 2.10463 24.83931 4.58146 5.16924 2.29682 10.37435 6.97858 12.20545 10.97823 2.21351 4.83494 2.09876 11.48887-.27598 16.00333l-1.11078 2.11161 3.06509-.99665c4.18832-1.36187 9.31066-1.41133 12.63285-.12197 3.11344 1.20834 5.45085 3.06307 6.62972 5.26066.89612 1.67049.9563 2.13678.77886 6.03458-.20458 4.49391-1.04363 7.55131-3.44595 12.55663-.66404 1.38354-1.13979 2.58307-1.05723 2.66563.0826.0826 1.82913-.81941 3.88126-2.00437 3.71255-2.14374 3.75049-2.15516 7.61103-2.29095 3.3149-.11661 4.1837-.006 5.96637.7611 5.00308 2.15227 7.79905 8.22523 8.32516 18.0826.46064 8.6305 2.30476 13.1541 7.74932 19.00895.97737 1.05102 1.61649 1.90614 1.42026 1.90028-.19623-.006-2.71027-.79235-5.58676-1.74774z" fill="#fff" stroke="#c87200" stroke-linejoin="round" stroke-width="3"/></g><use height="100%" transform="matrix(-1 0 0 1 1000.0239 0)" width="100%" xlink:href="#e"/><path d="m548.46837 893.38922c-1.41421 21.09826-14.92501 44.60914-23.69606 60.9841-4.38552 8.18748-6.10756 15.31325-11.90623 19.89215-5.79868 4.5789-5.67399-2.38907-12.36608-2.38907s-7.5674 12.46797-13.36608 7.88907c-5.79867-4.5789-6.55824-15.93871-10.40623-24.39215-6.77105-14.87496-25.06784-46.1857-25.19606-61.9841-.41124-50.66929 23.11424-90.48718 48.46837-90.48718s51.81067 40.62438 48.46837 90.48718z" fill="#f79018" stroke="#c87200" stroke-linejoin="round" stroke-width="3"/><path d="m457.28944 920.75152c23.05446-6.82358 24.7301-6.53239 41.23651-6.61523 16.50641-.0828 26.00621-.52282 44.91459 5.91408l3.81037-12.17841c-20.31645-7.44265-28.33291-8.53764-47.25091-8.53764s-26.19872 2.09787-47.52093 9.33938z" fill="#5688ff" fill-rule="evenodd" stroke="#c87200" stroke-width="3"/><g fill="none" stroke="#fff" stroke-width="5"><path d="m545.85811 866.72691c-36.50519 5.63058-57.08413 6.30323-90.84071.69876"/><path d="m542.66927 851.86355c-31.61132 9.08566-54.87545 8.98346-84.32761.60635"/><path d="m537.62772 838.03102c-23.71769 10.57114-49.04395 10.46579-74.0136-.35738"/><path d="m530.35611 824.93289c-19.6183 13.39816-42.40387 9.2379-43.85271-3.32363-1.13353-9.82773 6.75109-13.95906 13.31312-14.64867 4.95328-.52055 12.76704 3.78727 12.12841 8.72672-.5478 4.23694-4.29132 7.84199-11.96517 4.59351"/></g><path d="m452.47907 908.6737c23.05446-6.82358 31.01452-9.25654 47.52093-9.33938 16.50641-.0828 28.34253 2.10074 47.25091 8.53764l1.80461-8.84198c-17.70146-9.45418-30.35585-12.85094-49.27385-12.85094s-29.39423 4.08658-48.70491 13.74192z" fill="#fff" fill-rule="evenodd" stroke="#c87200" stroke-width="3"/><path id="f" d="m559.90996 902.14036c58.12615-19.26702 76.36621-32.55368 95.68139-74.83342-47.46952 6.26961-78.50698 28.97366-95.68139 74.83342z" fill="#60db66" fill-rule="evenodd" stroke="#744850" stroke-linejoin="round" stroke-width="3"/><use id="g" height="100%" transform="matrix(.77272702 -.63473848 -.63473848 -.77272702 700.4796 1954.7903)" width="100%" xlink:href="#f"/><use id="h" height="100%" transform="matrix(.99626675 -.08632823 .08632823 .99626675 6.305046 25.187329)" width="100%" xlink:href="#f"/><use id="i" height="100%" transform="matrix(.98761703 -.15688403 .15688403 .98761703 -51.778333 73.630773)" width="100%" xlink:href="#g"/><use id="j" height="100%" transform="matrix(.11387259 -.99349537 -.99349537 -.11387259 1510.0891 1578.6817)" width="100%" xlink:href="#h"/><g transform="matrix(-1 0 0 1 999.5723 0)"><use height="100%" width="100%" xlink:href="#f"/><use height="100%" width="100%" xlink:href="#g"/><use height="100%" width="100%" xlink:href="#h"/><use height="100%" width="100%" xlink:href="#i"/><use height="100%" width="100%" xlink:href="#j"/></g><path d="m500.03711 1.0703125c-13.33575 3.9230972-16.80903 19.3628515-23.01367 29.9804685-4.65206 7.548002-5.13811 16.925338-9.34961 24.544922-10.55273 6.622021-12.76011 19.478466-19.36461 29.273224-7.37451 15.844483-12.51629 36.436013-1.93227 51.951383 13.00985 15.29444 40.18815 14.70573 52.32032-1.375 4.8709-.89145 6.52587 5.67527 10.90625 7.23633 16.33922 10.42403 43.10805 4.7739 49.30859-14.94141 5.96089-20.68491-4.98626-41.395562-15.27149-58.955074-3.44498-6.099768-9.45207-10.618647-12.63261-16.637799-3.90037-18.74925-12.97656-37.000174-27.13887-50.2118101-1.15226-.6696413-2.50373-.97474037-3.83203-.8652344z" fill="#fbfe00"/><g fill-rule="evenodd"><g stroke="#fdff11" stroke-linejoin="round"><path d="m499.99952 9.63499c-22.0248 31.10976-36.57636 75.10787 0 75.10787s24.52762-43.10925 0-75.10787z" fill="#425afe" stroke-width=".94332"/><g stroke-width=".943029"><path d="m471.80874 63.0002c-22.01112 31.10988-36.55365 75.10815 0 75.10815 36.55366 0 24.5124-43.10941 0-75.10815z" fill="#ff4b4b"/><path d="m528.19081 63.0002c-22.01113 31.10988-36.55365 75.10815 0 75.10815s24.51239-43.10941 0-75.10815z" fill="#00b400"/></g></g><path d="m500.08799 9.53418c-17.31681 24.45978-28.75785 59.05291 0 59.05291s19.28463-33.89428 0-59.05291z" fill="#92a0fe"/><path d="m500.18363 9.42519c-12.22709 17.27061-20.3054 41.6962 0 41.6962 20.30541 0 13.61653-23.93214 0-41.6962z" fill="#e1e5ff"/><path d="m471.75456 63.84486c-17.31681 24.45978-28.75785 59.05291 0 59.05291s19.28463-33.89428 0-59.05291z" fill="#ff9191"/><path d="m471.8502 63.73587c-12.22709 17.27061-20.3054 41.6962 0 41.6962 20.30541 0 13.61653-23.93214 0-41.6962z" fill="#ffe1e1"/><path d="m528.0652 63.84486c-17.31681 24.45978-28.75785 59.05291 0 59.05291s19.28463-33.89428 0-59.05291z" fill="#00e600"/><path d="m528.16084 63.73587c-12.22709 17.27061-20.3054 41.6962 0 41.6962 20.30541 0 13.61653-23.93214 0-41.6962z" fill="#e1ffe1"/></g></svg>