<svg height="600" viewBox="0 0 1400 600.00001" width="1400" xmlns="http://www.w3.org/2000/svg" xmlns:xlink="http://www.w3.org/1999/xlink"><path d="m0 0v600h1400l-57.6738-97.4375-.043-.0234a89.5 89.5 0 0 1 -52.2832 16.9609 89.5 89.5 0 0 1 -89.5-89.5 89.5 89.5 0 0 1 89.5-89.5 89.5 89.5 0 0 1 52.4121 17.08789l57.5879-57.58789-57.5879-57.58789a89.5 89.5 0 0 1 -52.4121 17.08789 89.5 89.5 0 0 1 -89.5-89.5 89.5 89.5 0 0 1 89.5-89.5 89.5 89.5 0 0 1 52.2832 16.960938l.043-.02344 57.6738-97.437498z" fill="#ed1c24"/><path d="m0 200h1200v200h-1200z" fill="#0097dc"/><g enable-background="new"><g transform="matrix(.22500411 0 0 .22500411 109.99816 9.998536)"><g id="a"><path d="m10 399c-50.18561 88.88894 105 203.47399 105 286 82.52601 0 197.11106 155.18561 286 105v-80l-311-311z" fill="#0005f9" fill-rule="evenodd"/><path d="m75 400c0 5.00139-14.93194 15-20 15 0 14.85579-20.5536 14.88376-35-5-30.46808 69.47529 110 160.70555 110 260 99.29445 0 190.52471 140.46808 260 110-19.88376-14.4464-19.85579-35-5-35 0-5.06806 9.99861-20 15-20z" fill="#16ad06" fill-rule="evenodd"/></g><use id="b" height="100%" transform="matrix(0 -1 1 0 .001692 800.00008)" width="100%" xlink:href="#a"/><use id="c" height="100%" transform="matrix(0 -1 1 0 .001696 800.00008)" width="100%" xlink:href="#b"/><use height="100%" transform="matrix(0 -1 1 0 .001696 800.00008)" width="100%" xlink:href="#c"/><g fill="#16ad06" fill-rule="evenodd"><path d="m400 773c9.63128-7.8786 9.64426-22.95595 0-28-10.10355 4.77775-10.04094 20.1676 0 28z"/><path d="m773.00028 400.00227c-7.8786-9.63128-22.95595-9.64426-28 0 4.77775 10.10355 20.1676 10.04094 28 0z"/><path d="m400.00255 27.001991c-9.63128 7.8786-9.64426 22.95595 0 28 10.10355-4.77775 10.04094-20.1676 0-28z"/><path d="m27.002271 399.99972c7.8786 9.63128 22.95595 9.64426 28 0-4.77775-10.10355-20.1676-10.04094-28 0z"/></g></g><g transform="matrix(.22500411 0 0 .22500411 109.99816 9.998536)"><g id="d"><path d="m75 360v80c89.62208 0 25.0536 130 155 130v-340c-130.147335 0-64.99011 130-155 130z" fill="#fff" fill-rule="evenodd"/><path id="e" d="m230 240c-83.03553 0-71.75 50.41117-100 100 29.69848 13.78858 64.27872 20.5827 99.241 20" fill="#fbed04" fill-rule="evenodd"/><use height="100%" transform="matrix(1 0 0 -1 0 800.00375)" width="100%" xlink:href="#e"/><circle id="f" cx="179" cy="400" fill="#fb0303" fill-rule="evenodd" r="12.5" stroke="#fbed04" stroke-width="5"/><use height="100%" transform="translate(26 -15)" width="100%" xlink:href="#f"/><use height="100%" transform="translate(26 15)" width="100%" xlink:href="#f"/></g><use id="g" height="100%" transform="matrix(0 -1 1 0 0 799.99972)" width="100%" xlink:href="#d"/><use id="h" height="100%" transform="matrix(0 -1 1 0 .00028 800)" width="100%" xlink:href="#g"/><use height="100%" transform="matrix(0 -1 1 0 -.000284 800)" width="100%" xlink:href="#h"/></g><path d="m159.4990642 59.4994402h81.0014796v81.0014796h-81.0014796z" fill="#fff"/><g fill="#fb0303"><path d="m161.7491053 61.7494813h76.5013974v11.2502055h-76.5013974z"/><path d="m161.7491053 127.0006732h76.5013974v11.2502055h-76.5013974z"/><path d="m161.7491053 75.2497279h11.2502055v49.5009042h-11.2502055z"/><path d="m227.0002972 75.2497279h11.2502055v49.5009042h-11.2502055z"/></g><path d="m175.2493519 75.2497279h49.5009042v49.5009042h-49.5009042z" fill="#001cfe"/><g transform="matrix(.22500411 0 0 .22500411 109.99816 9.998536)"><g fill="#fff"><path d="m271.04834 266.69534q5.8667 0 8.15186-5.88867l5.64697 2.13135q-1.82373 4.48242-5.36133 6.67969-3.51563 2.17529-8.4375 2.17529-7.4707 0-11.55762-4.21875-4.06494-4.24072-4.06494-11.84326 0-7.62451 3.93311-11.71143 3.9331-4.08691 11.40381-4.08691 5.44921 0 8.87695 2.19726 3.42773 2.1753 4.81201 6.41602l-5.71289 1.56006q-.7251-2.3291-2.85645-3.69141-2.10937-1.38428-4.98779-1.38428-4.39453 0-6.67969 2.72461-2.26318 2.72461-2.26318 7.97608 0 5.33935 2.3291 8.15185 2.35108 2.8125 6.76758 2.8125z"/><path d="m305.72217 258.71927v12.63428h-6.45996v-12.63428l-9.1626-18.3252h6.89941l5.49317 12.50244 5.73486-12.50244h6.89941z"/><path d="m341.95605 271.35355-7.77832-12.32666-7.77832 12.32666h-6.85546l10.72265-16.28174-9.82178-14.67774h6.85547l6.87744 10.94239 6.87745-10.94239h6.81152l-9.4043 14.67774 10.30518 16.28174z"/><path d="m383.94678 261.88333q0 2.8125-1.36231 4.96582-1.34033 2.13135-3.95508 3.31787-2.59277 1.18653-6.13037 1.18653h-16.28173v-30.95948h23.31298v4.9878h-16.83105v7.33886h10.50293q5.16357 0 7.9541 2.417 2.79053 2.39502 2.79053 6.7456zm-6.54785.0879q0-2.04346-1.53809-3.14209-1.51611-1.1206-4.54834-1.1206h-8.61328v8.59131h8.74512q5.95459 0 5.95459-4.32862z"/><path d="m412.77588 271.35355-2.74658-7.91016h-11.79932l-2.74658 7.91016h-6.48194l11.29395-30.95948h7.64648l11.25 30.95948zm-8.65723-26.19141-.13183.4834q-.21973.79101-.52735 1.80176-.30761 1.01074-3.77929 11.11816h8.89892l-3.0542-8.89893-.94482-2.98828z"/><path d="m447.29541 271.35355-2.74658-7.91016h-11.79932l-2.74658 7.91016h-6.48193l11.29394-30.95948h7.64649l11.25 30.95948zm-8.65723-26.19141-.13183.4834q-.21973.79101-.52735 1.80176-.30761 1.01074-3.77929 11.11816h8.89892l-3.0542-8.89893-.94482-2.98828z"/><path d="m471.70752 245.40384v25.94971h-6.48193v-25.94971h-9.99756v-5.00977h26.49902v5.00977z"/><path d="m506.31494 271.35355-2.74658-7.91016h-11.79932l-2.74658 7.91016h-6.48193l11.29394-30.95948h7.64649l11.25 30.95948zm-8.65723-26.19141-.13183.4834q-.21973.79101-.52734 1.80176-.30762 1.01074-3.7793 11.11816h8.89892l-3.0542-8.89893-.94482-2.98828z"/><path d="m544.41602 250.19388q0 2.98828-1.36231 5.33935-1.3623 2.35108-3.91113 3.64746-2.52686 1.27442-6.02051 1.27442h-7.69043v10.89844h-6.48193v-30.95948h13.90869q5.55908 0 8.54736 2.5708 3.01026 2.54883 3.01026 7.22901zm-6.52588.10986q0-4.87793-5.75684-4.87793h-6.70166v10.04151h6.87744q2.68067 0 4.13086-1.31836 1.4502-1.34034 1.4502-3.84522z"/></g><g fill="#fff"><path d="m319.52295 561.35352-2.74658-7.91016h-11.79932l-2.74658 7.91016h-6.48193l11.29394-30.95948h7.64648l11.25 30.95948zm-8.65723-26.19141-.13183.4834q-.21973.79101-.52735 1.80176-.30761 1.01074-3.77929 11.11816h8.89892l-3.0542-8.89893-.94482-2.98828z"/><path d="m342.61621 561.35352v-30.95948h5.75684v17.99561c0 1.56738-.0586 3.58154-.17578 6.04248l13.46923-24.03809h7.29493v30.95948h-5.75684v-18.25928c0-1.14258.0586-3.00293.17578-5.58106l-13.38135 23.84034zm13.31543-31.26661c-3.7908.0156-8.76692-1.74672-8.94287-4.80681h4.92187c.075 3.1137 7.81678 3.29274 8.042 0h4.92187c-.0263 2.86884-5.15207 4.79121-8.94287 4.80681z"/><path d="m415.17041 561.35352v-18.76465q0-.63721 0-1.27442.022-.6372.21973-5.47119-1.56006 5.91065-2.30713 8.23975l-5.58106 17.27051h-4.61425l-5.58106-17.27051-2.35107-8.23975q.26367 5.09766.26367 6.74561v18.76465h-5.75684v-30.95948h8.6792l5.53711 17.31446.4834 1.66992 1.05469 4.15283 1.38427-4.96582 5.69092-18.17139h8.63526v30.95948z"/><path d="m460.02916 561.35352-2.74658-7.91016h-11.79931l-2.74659 7.91016h-6.48193l11.29394-30.95948h7.64649l11.25 30.95948zm-8.65722-26.19141-.13184.4834q-.21973.79101-.52734 1.80176-.30762 1.01074-3.7793 11.11816h8.89893l-3.0542-8.89893-.94483-2.98828z"/><path d="m504.09326 530.39404v5.00977h-15.13916v25.92773h-6.48193v-30.9375z"/></g><g fill="none" stroke="#fff" stroke-linecap="square" stroke-width="5"><path d="m240 300h15l10 8h-25v8h30v24h-30v8" stroke-miterlimit="3.5"/><path d="m255 342v6h15v8h-30v8h15v16h-15v-8h30v16h-30v8h30v8h-20v8h20v8h-20v8h20v8h-30v8h30v40h-10l-10 8h-10" stroke-miterlimit="4.1"/><path d="m240 484h10l10 8h10v8h-30"/><path d="m268 452h-28v8h20v-6"/><path d="m268 468h-28v8h28"/><path d="m240 404v8"/><path d="m240 420v8"/><path d="m270 323.99999h-30v8h30"/><path d="m561 299.84363h-32v16h32v16h-32v16h32v31.99988h-24v32"/><path d="m559 364.00011h-30v47.99988"/><path d="m561.00001 498h-32v-16h24v-14h-24v-14h24v-14h-24v-14h24v-14h-8v-16h16v86"/><path d="m561 302.00037h-32v16h32v16h-32v16h32v31.99987h-24v32"/><path d="m559 366.00037h-30v47.99987"/><path d="m561.00001 500.00025h-32v-16h24v-14h-24v-14h24v-14h-24v-14h24v-14h-8v-16h16v86"/><path d="m553.00001 385.00024v8"/></g></g><g transform="matrix(.1661668 0 0 .16616637 175.340348 75.527808)"><g fill-rule="evenodd"><path d="m175.41047 140.58608c-28.74226-6.98159-36.5871-23.49866-15.36654-69.683425 21.22056-46.184761-15.10558-70.65279253-59.01701-59.325285-43.911427 11.327508-27.86697-14.4120194-75.647338.994711 0 0 14.312339.04564 23.99483 2.409563 9.682491 2.363922 6.181899 16.216915-5.149669 10.681261-11.331569-5.535654-25.745967-7.808995-34.571651-4.499363 19.857789 3.033829 24.276373 23.326603 52.843227 16.063473 28.566854-7.263129 30.480643-3.913243 43.635621-4.660926 13.15497-.747682 21.56467 11.764874 20.18566 30.519453s-10.20469 57.918558 11.85952 73.639298c22.06421 15.72075 37.23335 3.86124 37.23335 3.86124z" fill="#fff"/><path d="m165.75738 141.9651c-43.65185-13.79014-32.02417-39.815-23.5541-72.918023 8.47007-33.103025-9.54084-43.46586-38.24529-41.110829-28.704457 2.355031-62.968943 22.715212-93.182087 17.116001 2.385205 6.301881 23.564192 14.839942 33.57723 6.871763 10.013038-7.968178 22.244675 5.578916 5.809076 10.306761s-29.876568 1.737277-29.876568 1.737277c11.002009 10.110056 33.98351 12.497641 52.418329-2.816827 18.43482-15.314469 45.73787-2.257102 41.31118 21.850572-4.4267 24.107675-8.38274 56.756885 51.74223 58.963305z" fill="#fb0209"/><path d="m154.95016 140.70056c-41.24664-13.44265-42.3556-31.87509-32.96683-64.552251 9.38877-32.677156-23.73961-33.368347-45.35358-18.000819-21.61397 15.367529-33.490707 22.212897-46.495995 22.823305 4.660926 2.811088 11.344732 6.705785 19.059087.403904s16.066836 7.296591-1.042031 8.190919c-17.108866.894328-11.551236 10.570382-37.391145 11.907822 12.818385 4.27088 22.031735 8.09291 28.467457-.36807 6.435722-8.460978 30.855041-2.070197 29.765691-16.381839s14.913928-12.044038 13.038748-.0196c-1.87518 12.024437-6.75647 16.328779-20.711524 18.022799 16.988885 6.68618 33.615446-6.62738 30.445397-22.74154s18.913175-17.587907 11.024975 5.831056c-7.888195 23.418964-2.38574 47.359654 52.15975 54.884314z" fill="#ffee01"/></g><g stroke="#000"><path d="m61.876843 146.68563c-22.098793-15.36847-41.189044-1.22803-43.327874 17.31808s6.887391 28.10951 15.438726 41.11608 13.214169 33.49783 13.214169 53.63102l10.350021.44716.390044-8.971 8.383628-.29965.05943 11.4159 10.28348.20464-.01424-5.81509 8.604623.26408c0-20.93997-8.250024-45.72059-21.531257-59.94898-14.159965-12.62436-20.412323-23.31868-19.856743-30.56064.55558-7.24197 6.482625-12.43124 13.359942-8.84712" fill="#cd8a1f" fill-rule="evenodd" stroke-linecap="round" stroke-width="2.708175"/><g fill="none" stroke-width="1.354087"><path d="m57.285693 250.36488c-.375445-16.48998-6.437502-35.60091-19.454164-51.63376-13.016661-16.03286-20.083713-37.70826-2.988707-51.70827" stroke-linecap="round"/><path d="m66.831966 249.55862c.056-15.84717-8.769554-36.69913-22.756998-53.02007-13.987443-16.32095-21.422203-43.5214 3.363498-51.31416"/><path d="m76.126287 256.4342c0-26.80862-13.813692-50.66591-24.113597-61.87357s-14.664927-20.6184-14.746338-29.04943c-.08141-8.43103 8.118644-17.62376 18.363035-15.05754"/></g><path d="m61.028234 146.09552c8.052196-2.13448 9.067019-1.88059 19.484325-8.82472 10.417304-6.94411 41.376501-3.12391 52.157041-1.16738 10.78054 1.95652 26.79895 4.8011 42.7955 2.87048-5.53278-2.84455-6.46346-12.96486.70741-14.75758-6.41241-4.3439-4.77395-17.45301 2.67272-17.86671-5.4471-5.92975-2.16604-16.070353 5.52195-15.587699-3.58543-6.688213 3.40818-15.093993 10.44452-14.044743-1.16877-6.673224 8.92336-12.252021 14.71331-8.85719-.0145-6.90296 9.70867-8.627566 14.74579-5.429305 3.55366-4.075859 12.8438-4.460829 17.58113-.594148 4.68052-2.481506 11.73046 1.307315 19.72636 5.597797.68951-2.620125 1.85152-5.665436 6.40227-7.458153 0 0-.23254 6.583425 1.00857 8.651945l2.34026.951449c2.10212-4.620053 3.90654-7.358142 9.16603-7.410832 0 0-.47082 1.94616-.47082 4.676466 0 2.730307-4.73765 9.536473-4.73765 9.536473 2.62012 7.446671 2.98245 17.628691 3.72907 22.5083.74663 4.87961 1.14648 10.53118 2.51163 14.04158 1.36515 3.51039 1.50305 9.10891 1.50305 11.83921 0 2.73031 2.14524 3.70542 2.73031 7.21581.58507 3.5104-3.78214 5.32272-6.40227 5.46062-1.24111 2.62012-2.95878 4.68052-8.22437 5.07057-5.26559.39004-4.35741-3.6483-7.08771-10.86411-2.73031-7.21581-4.45204-7.23947-8.5475-10.1648s-3.94371-6.8217-5.89392-10.3321c-1.95022-3.51039-6.74905-2.37778-6.74905-2.37778-5.10235 7.58457-7.49718 19.29527-7.21581 28.86324s7.54374 12.77922 5.73924 29.36499c0 0 9.14595 1.17972 16.37348-5.23151 7.22752-6.41125 8.75517-7.16938 14.26607-5.59822 5.5109 1.57117 7.79874 3.78005 7.90895 11.02796.0551 3.62395.98986 5.65515 1.99007 10.38146s3.21608 7.98887 3.17602 11.19822c-.0401 3.20936-.58931 4.11326-2.33979 6.5912-1.75049 2.47793-1.28217 6.18535-2.85096 8.62966-1.56878 2.44431-1.84451 5.69988-5.48931 8.82399-2.06852-2.34432-6.11509-8.43733-8.32151-12.85017 3.17173-1.31006 6.38766-1.55968 6.38766-1.55968s1.29916-3.81324 1.1256-8.69254c-.17356-4.87928-1.00882-8.85792-2.31076-13.24936-1.30193-4.39144-2.91565-8.08762-2.91565-8.08762-5.55398 5.20685-9.73407 8.42706-12.79336 13.11068-3.05927 4.68363-7.32557 9.62746-11.66264 14.57832s-6.16296 10.22941-17.90063 3.05757c-2.22744 2.63093-4.31961 5.39959-2.36939 8.51994 1.95021 3.12035.77315 3.8009 1.84577 6.53121s5.85066 11.01874 7.41083 13.94407c1.56018 2.92533 5.07057 8.67847 6.43573 10.53117 1.36515 1.85271 3.41288 5.75316 3.41288 8.19093 0 2.43778 3.80293 11.50629 4.97306 14.2366 1.17013 2.7303 3.51039 4.58302 4.58301 7.1183 1.07262 2.53529 3.60791 6.53323 5.75315 8.0934 2.14523 1.56018 4.87667 3.50062 6.2407 6.04568 1.36415 2.54506 1.36515 5.55813 1.36515 5.55813l-13.94406.19502s-1.44799-2.65932-1.95023-4.19297c-.50223-1.53364-1.26763-2.82782-.87759-4.68052.39004-1.85271-2.53899-2.81011-4.1938-4.74073-1.65482-1.93061-3.43773-10.46377-5.58011-16.14138-2.22035-5.88429-5.5546-11.12244-7.07335-12.44458-1.51876-1.32214-3.21877-2.75423-3.53812-4.41284s-3.97548-5.68048-7.28511-9.54172-13.68401-15.33596-18.16951-20.89408c-7.41083 1.17013-12.28077 1.34813-28.64233.81139-16.36157-.53675-28.22464-2.42707-39.29866-5.97845-7.27256-2.33227-13.99459-6.18307-20.75564-10.10587-2.04299 7.02791-4.32434 17.99731-3.6228 22.73217.70153 4.73487-.17539 10.6973-.70154 14.20461-.52615 3.5073 2.45538 13.85386 3.50769 17.7119s8.9446 8.6973 13.15383 12.20459c4.20924 3.50732 12.76961 10.76718 14.33897 12.62615 1.56936 1.85898 3.39431 2.20894 4.0764 2.20894 0 0 6.6646 7.54071 7.36615 8.24217.70154.70146-16.31075 1.22757-16.31075 1.22757s-1.36235-5.26098-3.85847-5.26098c-2.49611 0-5.43691-3.15656-7.54152-7.01461-2.10461-3.85804-7.89231-7.46973-10.52308-10.45094-2.63075-2.98122-15.08305-13.95825-18.239974-17.11483-3.15692-3.15658-1.753845-6.66388-1.92923-13.50315-.175384-6.83924-.895206-17.76933-10.570132-23.88745-7.219544 4.92988-31.381133 17.348-35.170564 20.70068s-7.807325 17.41826-8.513754 20.80412c-.706428 3.38585-1.591644 19.79047-2.026738 21.78875-.435092 1.99828-2.8663 4.11607-4.471564 4.84391-1.605263.72783-5.473203 4.07183-6.577645 5.18571-1.104444 1.11388-2.819674 2.064-3.875104 1.68035 0 0-7.254157 2.6376-11.913352 2.5468.780088-2.77906 3.491188-10.59785 4.75883-13.08438l4.873799-1.52618s-.109805-3.78139 5.430126-4.7923c5.539929-1.01091 2.954734-6.42002 4.641781-15.3679 1.687054-8.94789 1.200622-15.05655.05012-19.37652-1.150502-4.31996.716846-10.329 6.11231-11.69219 5.395464-1.36318 7.967085-5.98735 13.248385-11.67382 5.281299-5.68647 3.211939-19.6899 1.723752-29.61006-1.488186-9.92017 4.754173-23.81037 4.754173-23.81037" fill="#cd8a1f" fill-rule="evenodd" stroke-linecap="round" stroke-linejoin="round" stroke-width="2.708175"/><path d="m225.76616 198.86323c5.05913-7.79597 14.16343-19.98526 15.0963-31.82155" fill="none" stroke-width="1.354087"/></g><path d="m270.13557 94.912216c.0206 2.654208-8.95746 2.597914-8.39-.132402.56745-2.730316 8.36936-2.521806 8.39.132402z" fill-rule="evenodd"/><path d="m279.13024 132.86417c1.93778-2.32925-1.36868-4.52442-2.99917-2.03911-1.63049 2.4853 1.06138 4.36836 2.99917 2.03911z" fill-rule="evenodd"/><g fill="none" stroke="#000" stroke-width="1.354087"><path d="m196.89649 132.54407-20.84817-8.20568"/><path d="m198.86654 116.51498-20.13743-10.1889"/><path d="m202.75822 102.88168-18.45005-12.030476"/><path d="m211.24078 92.000364-16.86205-15.429955"/><path d="m230.57243 79.218181-6.25096-16.523506"/><path d="m243.63624 76.378545-1.95021-14.37805"/><path d="m219.97456 84.182628-10.57448-16.385604"/><path d="m83.487988 209.21151c9.702094-7.81879 24.559332-14.15937 27.317352-16.22789l3.47861 2.17822" stroke-linejoin="round"/></g></g></g></svg>