<svg height="1000" viewBox="0 0 2000 1000" width="2000" xmlns="http://www.w3.org/2000/svg" xmlns:xlink="http://www.w3.org/1999/xlink"><radialGradient id="a" cx="500" cy="500" gradientTransform="matrix(3.0609831 -.00000006 .00000006 3.0722553 1169.5084 -1580.1276)" gradientUnits="userSpaceOnUse" r="500"><stop offset="0" stop-color="#256df0"/><stop offset=".90182835" stop-color="#1864ee"/><stop offset="1" stop-color="#2d44ad"/></radialGradient><path d="m0 .09999h1809.8033v850.12317h-1809.8033z" fill="none"/><path d="m0 .000023h2000v1000h-2000z" fill="#f02"/><path d="m0 0v550h750l250-350 250 350h750v-550z" fill="#3292f9" fill-rule="evenodd"/><path d="m.04666566 550.00065 749.95333434-.00065 250-350 250 350 749.9533.00065" fill="none" stroke="#fff" stroke-width="60"/><circle cx="400" cy="275" fill="none" r="124.5" stroke="#fff" stroke-linejoin="round" stroke-width="7"/><g transform="matrix(.25 0 0 .25 275 150)"><circle cx="500" cy="500" fill="url(#a)" r="380"/><g id="b" transform="translate(0 -.044194)"><path id="c" d="m500 500 134.57485 63.96424c42.36637.97394 69.85948 47.76208 64.18766 79.5739 41.5152.55385 72.78921-46.65319 61.88424-77.91516 30.6791 8.76546 74.35325-24.62826 74.35325-65.62298" fill="none" stroke="#fff" stroke-width="25"/><use height="100%" transform="matrix(1 0 0 -1 0 1000.298)" width="100%" xlink:href="#c"/><circle cx="862.5" cy="500" fill="#fff" r="15"/></g><use id="d" height="100%" transform="matrix(0 -1 1 0 .019948 999.98319)" width="100%" xlink:href="#b"/><use id="e" height="100%" transform="matrix(0 -1 1 0 .01995 999.98319)" width="100%" xlink:href="#d"/><use height="100%" transform="matrix(0 -1 1 0 .01995 999.98319)" width="100%" xlink:href="#e"/><circle cx="499.99997" cy="499.99994" fill="none" r="202.5" stroke="#fff" stroke-linejoin="round" stroke-width="14.999998"/><circle cx="499.99997" cy="499.99994" fill="#01d0ff" r="202.5"/><path d="m323.77649 590h352.65994v15h-352.65994z" fill="#ecde7d"/><path d="m331.27649 605h338.75l-20 30h-298.75z" fill="#2fbb3d"/><path d="m351.27649 635h298.75l-46.15732 40h-209.30359z" fill="#2b97e1"/><path d="m394.56558 675h209.30359l-72.36917 28h-64z" fill="#6d5340"/><g fill-rule="evenodd"><path d="m323.77649 590h352.65991l23.5636-48 1-40-138-74-54-14-66 25-145 79 7 41z" fill="#889347"/><path d="m439.75477 485.45844s9.92052-18.68879 24.41084-18.22425 23.83439 24.76581 23.83439 24.76581 11.65874-9.74062 17.11718-11.35153 23.96665-1.54673 27.88282 1.85153 3 16.5 3 16.5 28.14313-4.61366 41.89949-2.10051c11.10885 2.02947 31.05025 13.55025 31.05025 13.55025l28.55026-3.44974s-33.42068-25.47151-29.5-32.5 42.38406.35812 42.38406.35812l-42.38406-22.85812-45-24-54-14-66 25-17.20366 9.37303s-3.79704 16.08417-2.10016 22.73388 16.05859 14.35153 16.05859 14.35153z" fill="#fff" stroke="#fff"/></g><g id="f"><path d="m502.25 673.9375c16.5-4.5 14.60713 3.56998 23.75 3.5625 9.14287-.007 19.72724-9.29422 28-20.5-11.47724 10.79422-17.34859 1-26.5 1s-20.75 11.1875-25.25 15.9375z" fill="#fff" fill-rule="evenodd"/><path d="m502.25 674c13.75-18 21-20 33.75-20.5 9.63948-.37802 19-15.5 26-40.25-12 21-17.7512 13.29549-30.25 16.75s-20 18.5-29.5 44z" fill="#fff" fill-rule="evenodd"/><path d="m547.97249 650.30536c11.01451-13.20047 12.35767-18.92742 16.4256-27.49795s14.68694-10.31775 30.01385-9.93778c-14.11014 7.01043-12.09347 9.02536-17.57201 19.02055-5.47855 9.99518-20.37474 14.9626-28.86744 18.41518z" fill="#fff" fill-rule="evenodd"/><path d="m547.93544 650.35922c21.47985-4.86948 24.88347-7.39501 32.18896-16.39001 7.30549-8.99501 21.49058-9.60041 38.6453 3.3976-22.97755-5.76899-22.7018 22.63063-39.47715 22.18962-16.77535-.44102-14.75162-7.65187-31.35711-9.19721z" fill="#fff" fill-rule="evenodd"/><path d="m594.14729 625.41805c7.77452-12.21537 9.03693-19.15658 10.55004-28.52208 1.5131-9.3655 11.92902-18.60443 29.58089-23.57976-12.65219 9.61074-12.62799 13.81087-15.09782 24.93823s-14.1299 17.41118-25.03311 27.16361z" fill="#fff" fill-rule="evenodd"/><path d="m594.1075 625.47377c19.2659-10.67335 23.2432-14.04879 28.80724-24.01875 5.56404-9.96997 18.66237-18.75466 38.76408-11.06349-23.67449 2.64395-18.66203 30.89772-34.89334 35.15822-16.23129 4.26048-16.30145-3.22864-32.67798-.076z" fill="#fff" fill-rule="evenodd"/><path d="m642.02047 556.35116c-9.54594-1.41422-12.69544-3.94975-12.69544-3.94975 1.06066-6.01041 1.76777-12.72793 8.13173-20.85965 2.88658-.58607 5.46646-.61448 7.84084-.98384 4.09106-1.46181 11.40999-3.26456 16.9079-3.96591 1.70591 4.38229 3.4381 7.72473 3.78621 11.06666 1.36251 2.32753 2.82354 5.35683 4.06516 7.94236-.83351 4.34965-1.59792 11.8799-3.07818 17.2074.5264 4.09829.0828 7.55358.36922 11.35723-3.06251.30106-10.5148 1.0344-15.16831.82103-3.95123.95709-5.884 1.27957-9.06598 2.16346-5.3033-4.24264-11.58333-11.33913-13.83148-20.23833 7 2.75 9.98833.68934 12.73833-.56066z" fill="#fff" fill-rule="evenodd"/><path d="m644.52783 562.65446c3.06689 4.88604 12.37436 7.77817 15.20279 3.18198 2.82843-4.5962 2.47488-13.43503-1.76776-19.79899-4.34122-6.51182-11.28544-7.26314-15.90991-1.06066-4.62446 6.20248-.59201 12.79163 2.47488 17.67767z" fill="#ebe254" fill-rule="evenodd"/></g><use height="100%" transform="matrix(-1 0 0 1 1001.4315 0)" width="100%" xlink:href="#f"/></g><g fill="none" stroke-linejoin="round"><circle cx="399.999993" cy="274.999985" r="50.625" stroke="#fff" stroke-width="3.75"/><circle cx="400" cy="275" r="109.822838" stroke="#3292f9" stroke-width="30.354323"/></g><g fill="#fff" transform="matrix(.25 0 0 .25 275 150)"><path d="m245.6225 912.08147q-12.32923-7.44806-16.88557-16.90343-4.47251-9.47607-1.7969-22.04994l16.72707 3.47317q-3.17827 16.12084 9.15098 23.56891 6.73929 4.07118 11.9122 3.41681 5.20446-.7066 8.26575-5.77412 3.1875-5.27651.39673-10.09994-2.70697-4.84411-11.53597-10.17768l-3.08229-1.86203 7.16401-11.85906 3.08231 1.86203q7.88862 4.76547 13.16495 4.53014 5.27631-.23537 8.43228-5.4596 2.87192-4.75408 1.14775-9.21844-1.67194-4.43276-7.31414-7.84119-11.07542-6.69064-22.84106 3.81476l-12.07586-11.64477q10.07445-8.53213 20.40831-9.34889 10.38611-.78525 21.61826 6.00006 12.06802 7.29027 16.22602 16.93287 4.18955 9.59035-1.11246 18.36708-4.07118 6.73929-10.49452 8.99144-6.42334 2.25211-14.73741-.27462 7.19433 5.91484 8.7641 12.99557 1.622 7.11232-2.54387 14.00833-6.05944 10.03056-17.44137 11.28386-11.38193 1.25325-24.59929-6.73132z"/><path d="m360.4991 962.27983.0457-23.25947-30.94132-10.81168-14.45042 18.22611-16.99755-5.93935 57.98413-70.8364 20.05138 7.00644 1.13281 91.49332-16.8247-5.87897zm1.29725-76.61427-.78866 1.1468q-1.301 1.87294-3.0338 4.24154-1.73281 2.36862-20.09796 25.6922l23.33564 8.15405.14507-26.13419.26047-8.70189.1792-4.39852z"/><path d="m485.8257 959.12837q-1.39321 11.63563-10.88185 16.95396-9.48865 5.31834-25.00283 3.46071l-42.72459-5.1157 10.22414-85.38861 39.08846 4.68033q15.63539 1.87212 22.98181 8.28416 7.41431 6.35869 6.14445 16.96409-.87076 7.27228-5.53338 11.8161-4.59478 4.49047-13.04711 5.26108 10.21785 2.45286 14.97291 8.43168 4.8229 5.92546 3.77799 14.6522zm-18.45954-39.89209q.68935-5.7572-2.71713-8.62394-3.34588-2.85948-10.55755-3.72297l-20.36237-2.43813-2.53246 21.1502 20.48357 2.45264q7.57528.90704 11.28103-1.29251 3.77361-2.25289 4.40491-7.52529zm.68817 36.35036q1.43675-11.99924-15.7743-14.06003l-22.66526-2.71386-2.93154 24.4833 23.33187 2.79369q8.60552 1.03039 12.91474-1.58866 4.37708-2.67241 5.12449-8.91444z"/><path d="m572.56617 977.07881-25.04994-31.80827-17.92867 36.3019-18.93973 1.98027 24.92058-48.07917-31.37458-37.71335 18.93973-1.98025 22.16121 28.24412 15.83965-32.21732 18.81833-1.96755-21.74165 43.26694 33.17338 42.00513z"/><path d="m673.57258 950.80146-14.00235-18.57256-31.1954 10.05508-.52066 23.2537-17.13714 5.52374 3.4764-91.47606 20.21603-6.51614 56.12598 72.26468zm-45.20791-61.86821.0638 1.39036q.0935 2.27856.1415 5.21294.048 2.93437-.51721 32.61517l23.52728-7.58344-15.65825-20.92457-5.04449-7.09535-2.51192-3.61514z"/><path d="m764.39981 904.76496-18.67373-31.78581-32.31206 18.98288 18.67371 31.7858-15.52452 9.12043-43.56172-74.14935 15.52453-9.12043 17.3443 29.52292 32.31207-18.98288-17.34427-29.52293 15.52452-9.12044 43.56169 74.14937z"/></g></svg>