<svg enable-background="new 30.5 31.5 412 533" height="500" viewBox="30.5 31.5 420 500" width="420" xmlns="http://www.w3.org/2000/svg"><g fill-rule="evenodd" stroke="#000"><path d="m45.33399 33.113805c.21713 101.873865.14458 211.066835 33.59601 296.176195 28.05 75.48 82.81953 143.03031 161.57 201.59 78.75047-58.55969 133.52-126.11 161.57-201.59 33.45143-85.10936 33.37888-194.30233 33.59601-296.176195-128.80646-.75995-273.96918-.0281-390.33202 0z" fill="#0085ca"/><g fill="#ffe000" stroke-width=".994345"><path d="m253.86123 255.05054c40.36447-7.05593 69.16943-42.5015 69.16943-81.2552v-71.87308h-50.34864v-7.954764h50.34864v-38.428318h7.95477v38.428318h50.34864v7.954764h-50.34864v71.87308c0 38.7537 28.80496 74.19927 69.16943 81.2552-2.98237 36.16276-28.74718 69.87331-73.14682 71.28546-44.39963-1.41215-70.16444-35.1227-73.14681-71.28546z"/><path d="m244.47738 135.43795v38.42832h50.34865v7.95476h-50.34865v71.87309c0 38.75367 28.80496 74.19927 69.16944 81.2552-2.98237 36.16276-28.74718 69.87331-73.14682 71.28546-44.39964-1.41215-70.16445-35.1227-73.14682-71.28546 40.36448-7.05593 69.16944-42.50153 69.16944-81.2552v-71.87309h-50.34865v-7.95476h50.34865v-38.42832z"/><path d="m227.13877 255.05054c-40.36447-7.05593-69.16943-42.5015-69.16943-81.2552v-71.87308h50.34864v-7.954774h-50.34864v-38.428308c-2.65159 0-5.30317 0-7.95477 0v38.428308h-50.348638v7.954774h50.348638v71.87308c0 38.7537-28.80496 74.19927-69.169431 81.2552 2.98237 36.16276 28.747181 69.87331 73.146821 71.28546 44.39963-1.41215 70.16444-35.1227 73.14681-71.28546z"/></g></g></svg>