<svg clip-rule="evenodd" fill-rule="evenodd" height="875.29297" image-rendering="optimizeQuality" shape-rendering="geometricPrecision" text-rendering="geometricPrecision" viewBox="0 0 210 297" width="744" xmlns="http://www.w3.org/2000/svg"><g transform="matrix(1.2021444 0 0 1.2021444 -21.279262 -30.010325)"><path d="m210.045 172.201v.0001c-.0001 54.9801-47.1679 99.8214-105 99.8214s-105-44.8413-105-99.8214v-.0001-147.237l210 .0055v147.231z" fill="#0a0b0c"/><path d="m206.843 171.56v.0001c-.0001 53.4476-45.7293 97.039-101.798 97.039-56.0684 0-101.798-43.5914-101.798-97.039v-.0001-143.132l203.595.0054v143.127z" fill="#facf00"/><path d="m141.978 98.037c2.37-5.2915 6.9024-8.7916 11.965-9.9919 2.0827-4.3304 4.3856-7.2132 8.4949-9.6465-.0717-.0286-.143-.0572-.2143-.0861h-.0002c-.0712-.0288-.1424-.0577-.2137-.0864h-.0005c-.071-.0291-.1419-.0579-.2128-.087h-.0006c-9.8575-3.5397-20.7389-12.1663-18.5635-25.307 1.3939-8.42 10.3916-12.7532 18.3557-12.7738 9.9374-.0256 18.9608 5.9756 23.7501 14.6055 5.0483 9.0964 6.2287 20.5089 6.6174 30.6913.3102 8.1269-.2409 16.2577-.5983 24.3717-.3513 7.9755-.7874 14.1674 6.2005 9.8159.2779 5.5116-4.2271 8.8715-8.2623 8.8243-6.2363-.0729-10.0178-11.7567-10.7981-16.7914-.4138 5.7074 2.6737 38.6962 9.0545 37.8123 2.6176-.3621 3.2873-1.4082 4.7694-2.3145-.0172 5.7207-2.4494 9.8615-8.4465 10.2234-8.931.5398-17.0852-20.2036-19.065-27.8047 2.5979 26.8346 9.8475 50.6986 16.183 50.3857 2.7543-.1356 5.0509-1.8802 6.5377-3.6285-.332 6.8982-4.5982 11.6322-8.2493 12.2298-15.7237 2.5678-26.705-33.3689-31.0149-44.3185 1.1598 10.3308 3.1293 22.1348 2.8959 31.9418-3.0271-.3503-9.978-13.045-15.7767-23.5997 1.9915 16.7561 6.9101 27.0145 11.1246 35.6762-1.2472.6204-6.8106-.9397-8.3089-.209 2.8427 7.2304 6.8009 11.5964 9.8299 17.4147 1.6789-3.6308 4.1985-7.0274 6.4545-8.2852.3714-2.5772 2.5978-4.7802 5.1104-3.6835 2.9836-.0719 6.0231 1.0747 5.7765 3.1992-.9793-.4295-2.0769-.3834-2.9086.3719.2225 1.9783-1.5878 3.6638-3.4137 4.2317-3.8958.1533-5.7719 3.2209-7.4007 6.8363 3.5912-.9223 8.637-1.4587 11.5356-.6262 1.9487-1.6132 5.2973-1.2525 6.2032 1.0968 2.1311 2.0893 3.4281 5.068 1.7328 6.3721-.3742-1.002-1.1731-1.757-2.294-1.8264-1.2476 1.1167-3.7408.5271-5.4138-.2521-4.7312-1.5042-7.1104-.7531-9.7199.7205 2.4681 3.555 4.4939 6.6739 5.3274 7.8658 2.0049-.13 2.9702 3.2403 1.6473 5.8703-.382 2.9583-2.0711 5.2816-4.0812 4.7092.7077-1.1336 1.5247-1.7611-.0444-3.6848-1.6963-.278-2.4324-.1508-2.6828-2.0189-.9485-5.1177-4.8925-9.6517-6.7959-11.7031-5.0188-1.4061-7.7929-2.0281-10.9305.7525-1.2368 1.6339-3.1206 1.7106-5.015 1.2051-1.3159.3855-2.0441 1.8112-2.2119 3.04-1.4855-.8987-.782-4.4663.2869-6.9737.2247-2.7993 3.3665-4.0406 5.8687-2.8969 2.2609-1.1851 3.8458-.6761 8.0141-1.2294-1.9656-2.8754-9.8602-16.6679-11.3308-17.9722-1.323.7733-3.5791 5.582-4.2363 7.1245-3.269-7.6048-5.8687-17.799-8.7018-25.8852-2.0097 8.6255-3.7104 17.2829-5.5466 25.9476 3.9463 1.1533 6.5451 3.0907 6.5451 5.2795 0 2.6122-2.7697 4.8675-8.0482 5.8578-2.5132 20.0612 14.1707 26.7332 25.2009 17.6623 6.5283 3.8872 1.0022 17.6639-10.5243 15.6633.3781 1.7716.9855 6.5677-.5182 11.1138-4.9259-.4233-9.0706-1.5689-11.6439-3.2254-1.2608 5.686-4.1793 9.7938-9.3045 12.4401-.015.0077-.0297.0139-.047.0199-.0185-.0078-.0269-.0122-.0418-.0199-5.1255-2.6463-8.0443-6.7541-9.3049-12.4401-2.5731 1.6565-6.7177 2.8021-11.6439 3.2254-1.5036-4.5461-.8966-9.3422-.5182-11.1138-11.5266 2.0006-17.0521-11.7761-10.5242-15.6633 11.0304 9.0709 27.7141 2.3989 25.201-17.6623-5.2786-.9903-8.0481-3.2456-8.0481-5.8578 0-2.1888 2.5985-4.1262 6.5451-5.2795-1.8366-8.6639-3.5364-17.3216-5.5469-25.9476-2.7268 7.4913-5.2653 17.2404-8.702 25.8852-.657-1.5425-2.9127-6.3512-4.236-7.1245-1.4706 1.3043-9.3652 15.0968-11.3311 17.9722 4.1688.5533 5.7534.0443 8.0147 1.2294 2.5021-1.1437 5.6436.0976 5.8681 2.8969 1.0694 2.5074 1.7729 6.075.287 6.9737-.1673-1.2288-.895-2.6543-2.212-3.04-1.8945.5055-3.7781.4288-5.0145-1.2051-3.1381-2.7806-5.9118-2.1586-10.9309-.7525-1.9036 2.0514-5.8473 6.5854-6.7958 11.7031-.2505 1.8681-.986 1.7409-2.6832 2.0189-1.5687 1.9237-.7516 2.5512-.0438 3.6848-2.0105.5724-3.6993-1.7509-4.0811-4.7092-1.3232-2.63-.3579-6.0003 1.6469-5.8703.8332-1.1919 2.8594-4.3108 5.3277-7.8658-2.6093-1.4736-4.9888-2.2247-9.7203-.7205-1.6725.7792-4.1662 1.3688-5.4138.2521-1.1188.0694-1.9192.8237-2.294 1.8264-1.6948-1.3041-.3977-4.2828 1.7329-6.3721.9059-2.3493 4.2549-2.71 6.2033-1.0968 2.8986-.8325 7.9443-.2961 11.5355.6262-1.6289-3.6154-3.5051-6.683-7.4005-6.8363-1.8259-.5679-3.636-2.2534-3.414-4.2317-.8305-.7548-1.9282-.8019-2.9086-.3719-.2463-2.1245 2.7931-3.2711 5.7766-3.1992 2.5124-1.0967 4.7392 1.1063 5.1105 3.6835 2.2563 1.2578 4.7759 4.6544 6.4546 8.2852 3.0294-5.8183 6.987-10.1843 9.8296-17.4147-1.4984-.7307-7.0617.8294-8.3088.209 4.2146-8.6617 9.1336-18.9201 11.125-35.6762-5.7987 10.5547-12.7499 23.2494-15.7769 23.5997-.2335-9.807 1.7358-21.611 2.8959-31.9418-4.3095 10.9496-15.2912 46.8863-31.0149 44.3185-3.6509-.5976-7.9171-5.3316-8.2495-12.2298 1.4867 1.7483 3.7838 3.4929 6.5378 3.6285 6.3358.3129 13.5847-23.5511 16.1829-50.3857-1.9794 7.6011-10.1341 28.3445-19.0646 27.8047-5.9975-.3619-8.4297-4.5027-8.4466-10.2234 1.482.9063 2.1516 1.9524 4.769 2.3145 6.3813.8839 9.4688-32.1049 9.0545-37.8123-.7802 5.0347-4.5616 16.7185-10.7978 16.7914-4.0354.0472-8.5403-3.3127-8.2625-8.8243 7.3317 4.5656 6.4936-2.4748 6.1501-11.0046-.4886-10.9269-1.1341-21.7508.2708-32.6672.9023-7.0097 2.2156-14.3888 5.5789-20.6992 4.7265-8.8642 13.2899-14.6346 23.302-15.104 8.0821-.2419 17.2984 4.1112 19.0571 12.6504 2.6859 12.7883-8.7767 21.4572-19.1825 25.6805 3.7936 2.1476 6.1937 4.8617 8.4947 9.6465 5.0626 1.2003 9.595 4.7004 11.965 9.9919 3.1067-.2556 6.3591.0388 9.1482 1.3696.0005.0002.0013.0007.0021.001.0014.0007.0025.0015.0042.002l.0064.0032h.0003c.0023.001.004.0022.0063.0032.0004.0003.001.0005.0017.0008.0102.0049.0204.0099.0308.0149.0001 0 .0001.0002.0003.0002.0209.0102.0421.0204.0634.0309.001-.0015.002-.003.003-.0045.0006-.0012.0013-.0025.002-.0037.0003-.0003.0007-.0008.001-.001.0038-.006.0078-.012.0119-.0179.0005-.0013.0013-.0025.0021-.0038.001-.0015.0022-.0029.003-.0042.0009-.0012.0014-.0025.0022-.0037.004-.0062.0084-.0125.0124-.0187.0008-.0012.0012-.0025.0022-.0037 1.6474-2.5293 3.6288-4.8007 7.1024-6.7322 9.3796-5.2143 13.2182-17.3172 9.3292-27.0062-2.6122-6.5068-8.2743-13.8503-12.1729-11.1971-.1838-1.4543.5632-3.0526 1.7641-3.3564 3.8584-.9905 10.2679 2.9999 11.6033 6.6654 2.0952-.869.6331-3.0641-.1073-4.3161-2.0611-3.483-8.758-8.0689-13.6826-5.4448-1.7436.924-1.4402 2.8929-2.0856 2.9783-1.9193-1.951-2.4183-6.2692-2.0159-9.2175.6788-4.9794 5.8394-6.7708 10.3782-6.5284 3.914.2039 7.837 2.798 11.3419 4.4122 2.3062 1.0582 3.1089 1.3342 5.8833.0538.9088-.4193 4.8-1.2025 6.5844-.604 14.1438 4.7457 19.2601 11.8179 19.7254 25.1541.0525 1.5075-.7533 2.8285-.0141 4.7686-1.5724.3321-2.5296-1.696-3.2289-2.5979-2.4294 2.9499-5.1451 7.5154-3.463 11.4956.109.7546.0416 1.3013.3063 2.1172-3.81.426-4.2841-3.3758-5.7004-5.7569-.6054 1.0581-1.3097 1.6438-2.0041 2.0716-.7252 6.0182 2.8314 12.4868 9.578 16.3085 3.3668 1.8698 5.415 4.3983 6.8012 6.5712 2.7446-1.2058 5.8681-1.447 8.8277-1.2036z" fill="#0a0b0c"/><path d="m176.658 79.9627c-.0395 39.8979-35.39 58.206-71.6474 58.206-36.2573 0-71.608-18.3081-71.6473-58.206 9.7991 26.1089 30.0462 43.1115 67.0563 44.3995 2.2083-9.0476 2.2092-10.8523 2.3222-12.7682-1.9237.1131-3.7341.1131-12.8775 2.3489 0-3.0786 0-6.1571 0-9.2358 9.1434 2.236 10.9538 2.236 12.8775 2.349-.1132-1.9237-.1132-3.7341-2.349-12.8773h9.2355c-2.2356 9.1432-2.2356 10.9536-2.349 12.8773 1.924-.113 3.7343-.113 12.8775-2.349v9.2358c-9.1432-2.2358-10.9535-2.2358-12.8775-2.3489.1132 1.9159.1139 3.7206 2.3226 12.7682 37.0102-1.288 57.2569-18.2906 67.0561-44.3995zm-64.0467-30.2343c.2337-.6745.108-.6249.7009-.7779.9048.0893 3.2251 2.8868 3.8189 2.2895-1.0941-3.0045-7.9076-8.5755-12.3552-6.7364-.3193.1321-.2992.7733-.1476.9452.3929.4445.8738 1.0149 1.0134 1.5555-2.0933 5.2713 5.5279 6.8624 6.9696 2.7241z" fill="#fff"/><path d="m111.517 48.2546c-.9206 5.2201-6.5095 1.3695-4.24-1.0064 0-.2245.0564-.7131.0743-.9263.5046.0075 1.3763.3143 1.8669.665.2496.375.4287 1.1748.1344 1.2476-2.4843.6156-1.0067 1.2834.5348.9424.5803-.1282.6635-1.1197.6057-1.5995.3052.1698.7954.5018 1.0239.6772z" fill="#0a0b0c"/></g></svg>