<svg clip-rule="evenodd" fill-rule="evenodd" height="861.71143" image-rendering="optimizeQuality" shape-rendering="geometricPrecision" text-rendering="geometricPrecision" viewBox="0 0 210 297" width="744" xmlns="http://www.w3.org/2000/svg"><g transform="matrix(1.2210916 0 0 1.2210916 -23.214617 -32.831494)"><path d="m210 165.925c-.0001 57.3845-47.1679 104.187-105 104.187-57.745 0-105-46.8889-105-104.187v-139.038h210z" fill="#0a0b0c"/><path d="m105.416 148.252v-116.912h99.9873v116.912zm-51.848 103.126c-6.556-3.9411-12.6324-8.6071-18.1135-13.8878h69.0901v13.8878zm-31.4604-29.6546c-2.9991-4.3804-5.6624-9.0065-7.9487-13.8423h90.3857v13.8423zm-13.8114-29.5183c-1.2734-4.5411-2.2379-9.2077-2.8593-13.9786h99.1077v13.9786zm-3.699-29.4276v-13.6542h99.9474v13.6542z" fill="#db261b"/><path d="m159.234 113.258c1.1142.393 1.9186 1.4587 1.9186 2.703 0 1.3836-.9942 2.546-2.3034 2.8088.7759 5.9069 5.5407 7.9123 10.3484 4.9283.6806-.4225 1.2827-1.2022 1.2115.3732-.1657 3.664-5.2163 6.8785-9.8108 4.406.9432 1.4158 4.2853 3.3788 8.264 2.2197.7691-.2237 1.399-.452.6681.8541-2.4352 4.351-8.8956 3.6143-10.7141.9138.0024 1.9653-.6148 3.9167-1.7539 5.5152-.3829.5371-.7161.5581-1.1175-.0059-1.1366-1.598-1.7516-3.5463-1.7492-5.5093-1.8185 2.7005-8.279 3.4372-10.7141-.9138-.7309-1.3061-.101-1.0778.6681-.8541 3.9787 1.1591 7.3208-.8039 8.2639-2.2197-4.5944 2.4725-9.645-.742-9.8107-4.406-.0713-1.5754.5309-.7957 1.2115-.3732 4.8062 2.9832 9.5697.9798 10.3477-4.9232-1.3224-.2522-2.3301-1.4209-2.3301-2.8139 0-1.2526.8151-2.3243 1.9409-2.7108-.2003-1.7748-.5424-3.7087-.9467-5.5298-.7255 1.3318-1.7442 3.0715-3.1176 4.8989-1.0411 1.3853-1.5615 2.7638-1.569 4.1303-.0043.7948.0714 1.0721-.859.6483-.5728-.261-1.1529-.5554-1.5692-.861l-10.0563 14.0026c-.6449.898-.757 1.1225.5718 1.2365 1.1946.1025 2.3751.0643 3.7657.2272 1.847.2164 2.8252 2.3486 1.5586 4.3828-.4327.6947-.4423.6238-.9035.1602-1.1893-1.1952-5.4873-1.8386-7.4781-2.219-.8556-.1635-1.4919-.1717-2.025-.0312-2.5287.6664-5.7567 2.2035-8.479 3.4815-.8842.4151-1.45 1.0683-1.924 1.8549-.2775.4605-.3715.5994-.8531.1383-.983-.9415-2.5317-3.1485-.2832-4.7323 1.5175-1.069 4.5852-1.5158 6.0648-2.0618-3.3362-.0773-6.8976.0721-8.64 1.904-.3831.4028-.3892.4838-.769-.0562-1.2893-1.833-.9738-4.1789 1.575-4.7057 2.1291-.44 4.4755.1914 6.9578.265-2.672-1.062-5.8624-2.1703-8.4474-1.7795-.8402.1268-.8052.0194-.5294-.7765.9862-2.8462 3.6068-3.6812 6.5177-2.2914 2.3168 1.1063 5.3534 3.0984 7.296 4.0531.4799.2358 1.1298.3394 1.475-.1936l9.334-14.4126c-.8652-.025-1.7264-.2866-2.3762-.7332-.53-.3642-.1408-.6871.2161-.9829 1.288-1.0674 2.638-2.6173 3.8035-4.7762 1.628-3.0161 1.9669-5.8265 2.4419-9.1139.4819-3.3341 1.3367-5.0214 3.8277-5.1448-.7509-1.92-1.7247-4.6499-2.4844-7.3029l-3.3172 15.3443c-.6972 3.2247-2.4952 7.2139-6.8004 7.8502-.9411.1391-1.0851-.272-.7002-1.0511 1.1551-2.3379 2.1043-4.7964 2.2333-7.4331l.6356-12.9833-4.6291 25.5755c-.6888 3.5532-3.066 5.8262-6.1002 6.7757-1.051.3286-1.3566.0993-1.0035-.8996.6942-1.9639 1.4308-4.781 1.5658-6.5386l1.8695-24.3244-3.9649 22.2558c-.7171 3.9081-3.11 5.2409-6.266 5.926-.9532.2068-1.5484.3565-1.0074-.8294.9096-1.9934 1.8892-4.0294 2.0157-6.2229l1.413-24.4745-2.8703 17.1931c-.3291 3.3064-2.7935 4.8224-6.2417 5.2588-.9712.1228-1.0497-.259-.6618-1.0233 1.0353-2.0409 1.884-4.0786 1.9118-6.0157l.4069-28.2853c.0506-3.5244-.0775-9.2583.6456-14.5879.8139-5.9987 5.1082-14.927 12.5326-14.657 5.3061.1929 8.5216 4.7128 8.6547 9.125.1357 4.4945-1.949 8.3229-6.4995 9.669.5395 5.2664 5.7822 9.8496 17.5274 9.9982 1.4947-1.7306 3.1322-3.382 4.4269-5.2685 1.3613-1.9838 2.4997-4.0766 2.4028-6.7256-.4302-.3657-.8378-.7643-1.2425-1.501-.7247-1.319-1.6025-2.6395-2.3704-3.7889-1.0054-1.5047-1.5945-2.99-2.3164-3.8136-.7553-.8617-1.7791-.9302-2.7723-.8087-.0429-1.4611-.2126-3.4886.5379-4.9085 1.0729-2.0299 3.4537-1.9698 5.1771-1.0203 1.554.8563 3.1362 2.2168 4.3209 2.7338.5806-2.0441.5342-5.7512-.751-8.1777-.2682-.5067-.254-.706.327-.7632.9044-.0894 2.1117-.061 2.4566.8687.7516-.7147 2.957-1.3989 3.3395 1.6102.0764.6029-.1079.5991-.6114.534-.9332-.1209-1.5828.2789-1.6046.8897-.0716 2.0064 2.177 2.1861 3.2053 1.4288 1.0732-.7905 1.2742-1.8669.4187-2.4347-.3667-.2432-.5372-.341-.2506-.815.5432-.8981 1.7889-.9252 2.0791-.6589.5595-1.0098 1.4435-1.2462 2.0935-1.3019.5756-.0493.829-.0849 1.0983.5182.3337.7474.2269 1.9183.0892 2.4481.9028.2455.8481 1.4497.3432 2.2668-.2766.4477-.3565.4029-.7078.1143-.6538-.5366-1.0753-.2429-1.3265.3509-.3425.8096-.3809 2.1458.2435 2.8203.5486.5927 1.3703.5364 2.0662.1768.8816-.4557.8611-1.1026.271-1.8997-.3274-.4425-.3763-.618.1662-.8315 1.9655-.7744 3.4377.1228 2.9997 1.8594.9025-.1504 2.0915.5834 2.4735 1.459.2305.5284-.1381.5444-.565.5929-2.8557.3245-6.4269 2.7454-7.8848 4.4488.0914 1.996-.4689 4.0006-1.2355 5.2427-1.3095 2.1216-1.7194 3.4013-1.0522 5.8079.8299 2.9933 2.4219 5.7114 3.6813 8.5214 11.0286-.3947 15.9828-4.862 16.5064-9.9732-4.5504-1.3461-6.6352-5.1745-6.4995-9.669.1332-4.4122 3.3487-8.9321 8.6548-9.125 7.4243-.27 11.7187 8.6583 12.5326 14.657.7231 5.3296.5949 11.0635.6456 14.5879l.4069 28.2853c.0277 1.9371.8764 3.9748 1.9118 6.0157.3878.7643.3094 1.1461-.6619 1.0233-3.4481-.4364-5.9125-1.9524-6.2417-5.2588l-2.8702-17.1931 1.413 24.4745c.1265 2.1935 1.1061 4.2295 2.0157 6.2229.5409 1.1859-.0543 1.0362-1.0074.8294-3.1561-.6851-5.5489-2.0179-6.266-5.926l-3.965-22.2558 1.8696 24.3244c.135 1.7576.8716 4.5747 1.5658 6.5386.3531.9989.0475 1.2282-1.0035.8996-3.0342-.9495-5.4114-3.2225-6.1002-6.7757l-4.6291-25.5755.6356 12.9833c.1289 2.6367 1.0781 5.0952 2.2333 7.4331.3848.7791.2409 1.1902-.7002 1.0511-4.3052-.6363-6.1033-4.6255-6.8004-7.8502l-3.1706-14.6658c-.7429 2.1372-1.6327 4.477-2.3579 6.6448 2.2814.2316 3.0907 1.9152 3.5546 5.1244.475 3.2874.8139 6.0978 2.4419 9.1139 1.1654 2.1589 2.5155 3.7088 3.8035 4.7762.3568.2958.7461.6187.216.9829-.6497.4466-1.5109.7082-2.3761.7332l9.334 14.4126c.3452.533.995.4294 1.475.1936 1.9426-.9547 4.9792-2.9468 7.296-4.0531 2.9108-1.3898 5.5314-.5548 6.5177 2.2914.2758.7959.3108.9033-.5295.7765-2.5849-.3908-5.7754.7175-8.4474 1.7795 2.4824-.0736 4.8287-.705 6.9579-.265 2.5488.5268 2.8643 2.8727 1.575 4.7057-.3798.54-.386.459-.769.0562-1.7424-1.8319-5.3038-1.9813-8.6401-1.904 1.4797.546 4.5474.9928 6.0648 2.0618 2.2486 1.5838.6999 3.7908-.2831 4.7323-.4816.4611-.5756.3222-.8532-.1383-.4739-.7866-1.0397-1.4398-1.924-1.8549-2.7222-1.278-5.9502-2.8151-8.4789-3.4815-.5331-.1405-1.1695-.1323-2.025.0312-1.9909.3804-6.2889 1.0238-7.4781 2.219-.4612.4636-.4708.5345-.9035-.1602-1.2667-2.0342-.2884-4.1664 1.5586-4.3828 1.3906-.1629 2.5711-.1247 3.7657-.2272 1.3288-.114 1.2167-.3385.5718-1.2365l-10.0564-14.0026c-.4162.3056-.9963.6-1.5691.861-.9305.4238-.8548.1465-.8591-.6483-.0074-1.3665-.5278-2.745-1.5689-4.1303-1.3323-1.7727-2.3307-3.4627-3.0516-4.7782-.4198 2.0304-.7448 3.9019-.9475 5.4169z" fill="#0a0b0c"/><path d="m126.837 51.6738c.0994-.973.9255-1.7367 1.924-1.7367 1.065 0 1.9339.8689 1.9339 1.9339 0 .9819-.7384 1.7973-1.6882 1.9183-.2201.028-.2388.1099-.0518.2374.511.3485.8479.9358.8479 1.5987 0 1.0652-.8689 1.934-1.9339 1.934-1.0652 0-1.934-.8688-1.934-1.934 0-.2286.0401-.4483.1135-.6522.1613-.4475.1135-.4737-.3026-.2906-.2378.1049-.5006.1632-.7763.1632-1.0652 0-1.9341-.8688-1.9341-1.934 0-1.065.8689-1.9338 1.9341-1.9338.6311 0 1.1935.3053 1.5468.7757.2412.3211.2882.2403.3207-.0799zm19.0311-2.0202c0-.9469.033-2.3232.4798-3.3759.7219-1.7009 2.7063-1.8779 4.1824-1.119 1.5953.8201 2.9732 2.1013 4.573 2.9771-.0704 1.1803-.0409 2.4372-.0327 3.531.0085 1.151.0511 2.052.5972 3.1305.5283 1.0434.5954 2.1362.0453 2.797-.5567.6688-.7391.9886-1.1082 1.7057-.4036.784-.6302.3402-.9094-.1051-.6795-1.0833-1.4107-2.3755-2.2057-3.4639-.8953-1.2256-1.4568-2.4-2.207-3.6296-.7915-1.2972-1.5426-2.2021-2.5768-1.9065.2337-1.3772 2.2394-.3805 2.6569.0607 1.4294 1.5107 3.2163 3.7274 4.5887 5.9602.1659.2699.6484.7527 1.0506.3757.3321-.3112.0849-.7481-.1737-1.0527l-4.4815-5.2781c-1.1842-1.3948-2.9826-2.2055-4.4789-.6071zm40.2357 2.0202c-.0993-.973-.9254-1.7367-1.924-1.7367-1.065 0-1.9338.8689-1.9338 1.9339 0 .9819.7384 1.7973 1.6881 1.9183.2202.028.2388.1099.0519.2374-.511.3485-.8479.9358-.8479 1.5987 0 1.0652.8689 1.934 1.9339 1.934 1.0652 0 1.934-.8688 1.934-1.934 0-.2286-.0401-.4483-.1136-.6522-.1612-.4475-.1135-.4737.3027-.2906.2378.1049.5006.1632.7763.1632 1.0652 0 1.934-.8688 1.934-1.934 0-1.065-.8688-1.9338-1.934-1.9338-.6311 0-1.1935.3053-1.5468.7757-.2412.3211-.2882.2403-.3208-.0799zm-14.5624 63.167 9.7692 15.0477c.4934.7602 1.383.6766 2.0845.3849 2.0309-.8441 4.8349-2.8824 7.1012-3.966 2.6163-1.2509 4.5657-1.2409 5.9106 1.6085-2.9735-.5414-6.5529 1.1132-9.185 2.005-1.206.4086-.7752 1.3916.3351 1.3141 2.2301-.1558 4.9296-.5967 7.1295-.4774 1.4864.0807 2.6793 1.3798 1.544 3.4444-1.7737-1.9153-5.6389-1.8759-9.1107-1.9441-1.0915-.0213-1.7885.492-.5317 1.1373 1.3302.683 4.3355 1.0457 6.0207 2.0397 2.4424 1.4405.3615 3.2357.0836 3.6384-.5464-1.0373-1.2107-1.4367-2.2846-1.979-2.6588-1.3428-5.8675-2.7642-8.3467-3.4815-.53-.1533-1.3736-.2277-2.2233-.0349-2.1844.4956-7.0037.9872-7.8929 2.3102-1.043-2.2325.1561-3.0346 1.5547-3.2019 1.3515-.1617 2.7284-.1054 4.008-.2933 1.3199-.1939 1.2385-.9994.5939-1.8975l-10.3649-14.4434c.9161-.9294 1.1087-1.4925 1.0912-2.3635.9045.5185 1.8092.9647 2.7136 1.1523zm-3.1247-37.5537c11.0338-1.6067 21.4411-6.6571 29.1168-15.3655.242 3.1791.3177 6.358.3178 9.5367-8.8859 3.6149-18.122 6.879-29.1574 8.3437-.0478-.8607-.1454-1.6963-.2772-2.5149zm20.0836-21.9684c3.1195 2.7983 3.8147 8.064 3.5206 10.9601-1.7111 1.4546-3.7923 2.8478-5.9264 4.2322.8177-.5743 5.0027-7.4945 1.2651-13.9698.1142-.2834.1769-.5923.1769-.9157 0-.0986-.0058-.1957-.0172-.2911.1468.0274.2977.042.4522.042.1816 0 .3583-.0202.5288-.0577zm-33.7713 58.4053h3.5256c1.2301 0 2.2365 1.0064 2.2365 2.2365s-1.0064 2.2365-2.2365 2.2365h-3.5256c-1.2301 0-2.2365-1.0064-2.2365-2.2365s1.0064-2.2365 2.2365-2.2365zm.5178-74.5645c1.1285 1.8534 1.4453 4.3213.9717 8.0887 3.5695-1.9553 7.9676.8348 8.9809 4.9178 2.5866-2.5452 5.1795-4.0746 7.8267-4.2024-.3418-.7046-1.3152-1.0234-2.1791-.7656-.3276.0978-.5778.0016-.3968-.4257.8279-1.9539-.779-2.0237-1.8153-1.5774.6207.3604.9892 1.5308.5449 2.0314-1.3806 1.5559-3.1579 1.4184-4.0569.2722-.3795-.4839-.555-1.1476-.5729-1.9398-.0375-1.6649 1.1521-3.3899 2.474-2.2124.4153-.6403.1241-1.222-.25-1.3909-.4222-.1908-.4591.0859-.2967-.4603.124-.4172.3016-1.3745-.0317-2.0319-1.106-.1749-1.7536.4546-2.1727 1.3431-.18.3818-.2215.2091-.3312.0419-.3521-.5365-1.1464-.3245-1.4541.1402 1.395.346 1.0652 2.0508.41 2.7683-.6333.6933-1.6215 1.2432-2.5762 1.2696-1.3185.0363-2.5352-1.2254-2.521-2.5455.0109-1.0004.821-1.7666 2.2434-1.5567-.0077-1.4811-1.553-2.0551-2.298-.7811-.1987.3398-.5661.9501-.7205.1983-.1118-.544-.1379-1.2233-1.7785-1.1818zm-13.8473 75.6813-9.7692 15.0477c-.4935.7602-1.383.6766-2.0845.3849-2.0309-.8441-4.8349-2.8824-7.1013-3.966-2.6162-1.2509-4.5656-1.2409-5.9105 1.6085 2.9735-.5414 6.5529 1.1132 9.185 2.005 1.206.4086.7752 1.3916-.3351 1.3141-2.2301-.1558-4.9297-.5967-7.1295-.4774-1.4864.0807-2.6793 1.3798-1.544 3.4444 1.7737-1.9153 5.6389-1.8759 9.1107-1.9441 1.0914-.0213 1.7885.492.5317 1.1373-1.3302.683-4.3355 1.0457-6.0207 2.0397-2.4424 1.4405-.3615 3.2357-.0836 3.6384.5464-1.0373 1.2107-1.4367 2.2845-1.979 2.6589-1.3428 5.8676-2.7642 8.3468-3.4815.53-.1533 1.3735-.2277 2.2233-.0349 2.1844.4956 7.0037.9872 7.8929 2.3102 1.043-2.2325-.1561-3.0346-1.5547-3.2019-1.3516-.1617-2.7284-.1054-4.0081-.2933-1.3198-.1939-1.2384-.9994-.5938-1.8975l10.3648-14.4434c-.916-.9294-1.1086-1.4925-1.0911-2.3635-.9045.5185-1.8092.9647-2.7136 1.1523zm3.2591-37.5342c-11.0838-1.5851-21.5443-6.6412-29.2512-15.385-.242 3.1791-.3177 6.358-.3179 9.5367 8.9422 3.6377 18.2387 6.9203 29.3668 8.3713-.0498-.7774-.0224-1.632.2023-2.523zm-20.2181-21.9879c-3.1194 2.7983-3.8146 8.064-3.5206 10.9601 1.7112 1.4546 3.7924 2.8478 5.9265 4.2322-.8177-.5743-5.0027-7.4945-1.2652-13.9698-.1141-.2834-.1769-.5923-.1769-.9157 0-.0986.0059-.1957.0172-.2911-.1467.0274-.2976.042-.4521.042-.1816 0-.3583-.0202-.5289-.0577z" fill="#facf00"/><path d="m146.63 73.2404c-5.9387.1836-17.0428-2.1605-17.8826-11.1984 4.1933-.6487 6.6336-4.579 6.6604-8.5872.0318-4.7926-3.0182-8.6585-7.7639-8.9994-3.4701-.2492-6.3474 1.9243-8.3794 4.9265-2.131 3.1488-3.7595 7.5014-3.7595 11.3461 1.3555 1.8812 3.0102 3.6381 4.8327 5.0517-.2051-5.9505 2.1275-9.4311 3.5222-10.6679-.8027-.4071-1.3554-1.2411-1.3554-2.1999 0-1.3574 1.1071-2.4645 2.4645-2.4645.5645 0 1.0859.1919 1.5022.5133.3635-.9089 1.2534-1.5541 2.2893-1.5541 1.3574 0 2.4645 1.1071 2.4645 2.4645 0 .9847-.5826 1.8378-1.4208 2.2319.3311.4198.5287.9486.5287 1.5225 0 1.3573-1.1071 2.4644-2.4645 2.4644-.8191 0-1.5467-.4032-1.9953-1.0213-2.208 3.8461-1.6239 9.7084 1.9399 13.8649 6.0549 3.454 11.677 5.0817 17.0306 5.5771.3524-1.0902.9552-2.1805 1.7864-3.2702zm8.133 45.585c-.7484 6.256-5.7109 8.9293-11.3948 5.3715-.0109 4.0635 6.8102 5.8643 9.437 2.9726.8001-.8809.8985.5103.6487 1.0199-1.6965 3.4619-6.7383 3.9922-9.2248 3.2513 2.6451 4.0341 8.7561 2.4203 9.835.0106.2904-.6487.7295-.3781.733.2254.012 2.0637.429 4.2558 1.7078 5.93 1.2782-1.6731 1.6963-3.8674 1.7084-5.93.0035-.6035.4426-.8741.733-.2254 1.0789 2.4097 7.1899 4.0235 9.835-.0106-2.4865.7409-7.5283.2106-9.2248-3.2513-.2498-.5096-.1514-1.9008.6487-1.0199 2.6268 2.8917 9.4479 1.0909 9.437-2.9726-5.684 3.5577-10.6467.8846-11.3952-5.3715zm12.2657-45.5754c6.0719-.0194 16.357-2.5232 17.164-11.208-4.1933-.6487-6.6336-4.579-6.6604-8.5872-.0319-4.7926 3.0181-8.6585 7.7638-8.9994 3.4702-.2492 6.3475 1.9243 8.3795 4.9265 2.131 3.1488 3.7595 7.5014 3.7595 11.3461-1.3555 1.8812-3.0102 3.6381-4.8327 5.0517.2051-5.9505-2.1275-9.4311-3.5222-10.6679.8027-.4071 1.3554-1.2411 1.3554-2.1999 0-1.3574-1.1071-2.4645-2.4645-2.4645-.5646 0-1.0859.1919-1.5022.5133-.3635-.9089-1.2534-1.5541-2.2894-1.5541-1.3573 0-2.4644 1.1071-2.4644 2.4645 0 .9847.5825 1.8378 1.4207 2.2319-.331.4198-.5286.9486-.5286 1.5225 0 1.3573 1.1071 2.4644 2.4645 2.4644.8191 0 1.5467-.4032 1.9953-1.0213 2.208 3.8461 1.6239 9.7084-1.9399 13.8649-5.9875 3.4155-11.5518 5.0451-16.8517 5.5601-.3885-1.2447-.804-2.3259-1.2467-3.2436zm-11.3408-24.3071c.8445-2.3171 3.9298-1.8589 5.7218-.8935 1.1505.6198 2.2786 1.8876 2.8108 3.1573.3849.9183.5007 1.8902.4546 2.8277-.0814 1.659-.7648 3.1795-1.4479 4.2991-1.614 2.6454-1.4652 4.4911-.3337 7.3716 1.212 3.085 3.0191 6.6017 4.0841 9.3864 1.297 3.3917 1.3431 7.1962-.0172 10.9571-.6915 1.9116-1.3499 3.9668-2.0938 6.0437-1.3703 3.826-3.311 7.4559-4.4024 11.3701-.9116 3.2689-1.5683 6.4307-1.903 9.6472-.0902-.0086-.1814-.0132-.2739-.0132h-3.5916c-.0755 0-.1502.0029-.2242.0087-.5509-4.5281-1.6192-9.0288-3.2426-13.3828-1.5707-4.2129-3.2186-8.2881-4.4884-12.6154-1.2-4.0902-2.8233-8.5223-.2251-12.4332.8298-1.2491 1.9069-2.4 2.8652-3.49 2.6124-2.9714 5.4492-6.1433 5.4377-10.2517-.0014-.5185.1282-1.1996.4744-1.689.2947-.4165.6442-.8452 1.013-1.2458.8656-.9401.5992-2.3365.0438-3.344-.6085-1.104-.6315-2.8168-.5749-4.1825.2464.038.4928.0618.7394.0648.3936 1.3658 1.2217 1.8766 2.1745 1.8949.9144.0174 1.6969-.7782 2.3317-2.0068.3188-.0615.8382-.0028 1.3637.081-.5073-1.4438-3.9431-1.8949-5.4441-.9174-.2779.0995-.6094.1583-.9051.1081-.4878-.0827-.4925-.3527-.3468-.7524zm1.4312 1.6949c.2877.7508.9217 1.1504 1.6251 1.1258.7338-.0256 1.6127-1.0003 1.7748-1.644.1004-.3986-.1379-.3725-.392-.4303-.3072-.0701-.4606-.0646-.5149.2591-.0934.5558-.2395.9949-.8962 1.0884-.3888.0554-.8306-.0472-.9666-.4877-.1013-.3284-.7187-.1887-.6302.0887zm40.6685 21.603.4564 29.1229c.0355 2.2685.7395 3.6707 2.0226 6.2355-3.9607-.6339-5.3306-2.1893-5.7683-5.4146l-4.0056-24.777-.5748.0378 1.9657 32.9241c.1166 1.9545 1.2159 4.5741 2.0313 6.4705-3.4837-.9173-5.4607-2.0345-5.9953-5.7481l-5.3016-30.8409-.6694.0471 2.5012 33.1934c.1566 2.0799.8667 4.749 1.5881 6.7409-2.7531-.4661-5.3213-3.745-5.7265-6.4672l-5.6805-32.1982-.7312.0978 1.0104 19.8294c.1472 2.8892 1.0712 5.274 2.4088 7.8246-4.029-.384-5.6509-4.5642-6.3608-7.9374l-3.222-15.311c.6256-1.7333.955-3.7287 1.0392-5.6423 9.8526-1.1989 19.4393-4.1943 29.0123-8.1873zm-33.1905 22.815c1.6698-.1192 2.4931 1.4497 2.8917 3.1859.3344 1.4564.4584 2.9401.6718 4.4135.5066 3.4972 2.0172 6.4152 4.063 9.2221.5706.7828 1.2426 1.5405 2.0229 1.8744-1.2757.6349-2.8259.6458-5.1782-.8382-.5406-.3409-.8186-.5421-.8081.3289.0268 2.2222-1.6109 2.7198-2.781 3.395.2223-1.1853-.2681-2.6019-.9732-3.5987-.3729-.5272-1.0558-1.6568-1.8338-2.8319-.6038-.912-2.1982-3.0036-2.0698-4.1512.8436-3.6666 2.2697-7.3334 3.9947-10.9998zm-49.4446-22.815-.4564 29.1229c-.0355 2.2685-.7395 3.6707-2.0226 6.2355 3.9607-.6339 5.3306-2.1893 5.7683-5.4146l4.0056-24.777.5747.0378-1.9656 32.9241c-.1166 1.9545-1.2159 4.5741-2.0313 6.4705 3.4837-.9173 5.4607-2.0345 5.9953-5.7481l5.3016-30.8409.6694.0471-2.5012 33.1934c-.1567 2.0799-.8667 4.749-1.5881 6.7409 2.7531-.4661 5.3213-3.745 5.7265-6.4672l5.6805-32.1982.7312.0978-1.0104 19.8294c-.1472 2.8892-1.0712 5.274-2.4088 7.8246 4.0289-.384 5.6517-4.5641 6.3608-7.9374l3.3847-16.1031c-.6138-1.6397-.8625-3.289-.9352-4.8221-9.9333-1.1799-19.6306-4.1909-29.279-8.2154zm33.4431 22.8451c-1.8405-.3032-2.7258 1.3342-3.1444 3.1558-.3341 1.4565-.4583 2.9401-.6717 4.4135-.5067 3.4972-2.0172 6.4152-4.063 9.2221-.5706.7828-1.2426 1.5405-2.0229 1.8744 1.2757.6349 2.8259.6458 5.1782-.8382.5406-.3409.8185-.5421.8081.3289-.0268 2.2222 1.6109 2.7198 2.781 3.395-.2223-1.1853.2681-2.6019.9732-3.5987.3729-.5272 1.0557-1.6568 1.8338-2.8319.6038-.9121 2.2422-3.0036 2.1139-4.1512-1.0453-3.8662-2.0148-7.1042-3.7862-10.9697z" fill="#fff"/><path d="m4.5969 148.252v-116.912h99.9474v116.912zm200.806 17.0354c0 55.1449-44.8774 100.142-99.9873 100.368v-116.532h99.9873z" fill="#0093dd"/><path d="m152.317 155.932 3.1197 8.1902 8.6427-1.3918c.6706-.108.8238.1323.393.6615l-5.533 6.7969 5.5265 6.7888c.4287.5267.2973.7797-.3763.6711l-8.6529-1.3933-3.1161 8.1806c-.2417.6346-.5265.6474-.7693.0095l-3.1197-8.1901-8.6427 1.3916c-.6706.1081-.8238-.1322-.393-.6614l5.533-6.7968-5.5265-6.7889c-.4287-.5267-.2973-.7797.3763-.6711l8.6529 1.3934 3.116-8.1808c.2418-.6344.5265-.6472.7694-.0094z" fill="#0a0b0c"/><path d="m151.934 156.918 3.046 7.996 8.447-1.361-5.402 6.636 5.402 6.636-8.447-1.361-3.046 7.996-3.046-7.996-8.447 1.361 5.401-6.636-5.401-6.636 8.447 1.361z" fill="#facf00"/><path d="m124.38 155.932 3.1197 8.1902 8.6428-1.3918c.6705-.108.8238.1323.3929.6615l-5.533 6.7969 5.5266 6.7888c.4287.5267.2973.7797-.3764.6711l-8.6529-1.3933-3.116 8.1806c-.2418.6346-.5265.6474-.7694.0095l-3.1196-8.1901-8.6428 1.3916c-.6705.1081-.8238-.1322-.393-.6614l5.5331-6.7968-5.5266-6.7889c-.4287-.5267-.2973-.7797.3764-.6711l8.6529 1.3934 3.116-8.1808c.2417-.6344.5265-.6472.7693-.0094z" fill="#0a0b0c"/><path d="m123.997 156.918 3.046 7.996 8.447-1.361-5.401 6.636 5.401 6.636-8.447-1.361-3.046 7.996-3.046-7.996-8.447 1.361 5.402-6.636-5.402-6.636 8.447 1.361z" fill="#facf00"/><path d="m180.273 155.932 3.1197 8.1902 8.6428-1.3918c.6705-.108.8238.1323.3929.6615l-5.533 6.7969 5.5266 6.7888c.4287.5267.2973.7797-.3764.6711l-8.6529-1.3933-3.116 8.1806c-.2417.6346-.5265.6474-.7693.0095l-3.1197-8.1901-8.6428 1.3916c-.6705.1081-.8238-.1322-.3929-.6614l5.533-6.7968-5.5266-6.7889c-.4287-.5267-.2973-.7797.3764-.6711l8.6529 1.3934 3.116-8.1808c.2418-.6344.5265-.6472.7693-.0094z" fill="#0a0b0c"/><path d="m179.89 156.918 3.045 7.996 8.448-1.361-5.402 6.636 5.402 6.636-8.448-1.361-3.045 7.996-3.046-7.996-8.447 1.361 5.401-6.636-5.401-6.636 8.447 1.361z" fill="#facf00"/><path d="m152.317 187.784 3.1197 8.1901 8.6427-1.3917c.6706-.108.8238.1323.393.6615l-5.533 6.7968 5.5265 6.7889c.4287.5267.2973.7797-.3763.6711l-8.6529-1.3934-3.1161 8.1807c-.2417.6345-.5265.6474-.7693.0095l-3.1197-8.1902-8.6427 1.3917c-.6706.108-.8238-.1322-.393-.6614l5.533-6.7969-5.5265-6.7889c-.4287-.5266-.2973-.7796.3763-.671l8.6529 1.3933 3.116-8.1807c.2418-.6344.5265-.6473.7694-.0094z" fill="#0a0b0c"/><path d="m151.934 188.769 3.046 7.996 8.447-1.36-5.402 6.636 5.402 6.635-8.447-1.36-3.046 7.996-3.046-7.996-8.447 1.36 5.401-6.635-5.401-6.636 8.447 1.36z" fill="#facf00"/><path d="m124.38 187.784 3.1197 8.1901 8.6428-1.3917c.6705-.108.8238.1323.3929.6615l-5.533 6.7968 5.5266 6.7889c.4287.5267.2973.7797-.3764.6711l-8.6529-1.3934-3.116 8.1807c-.2418.6345-.5265.6474-.7694.0095l-3.1196-8.1902-8.6428 1.3917c-.6705.108-.8238-.1322-.393-.6614l5.5331-6.7969-5.5266-6.7889c-.4287-.5266-.2973-.7796.3764-.671l8.6529 1.3933 3.116-8.1807c.2417-.6344.5265-.6473.7693-.0094z" fill="#0a0b0c"/><path d="m123.997 188.769 3.046 7.996 8.447-1.36-5.401 6.636 5.401 6.635-8.447-1.36-3.046 7.996-3.046-7.996-8.447 1.36 5.402-6.635-5.402-6.636 8.447 1.36z" fill="#facf00"/><path d="m180.273 187.784 3.1197 8.1901 8.6428-1.3917c.6705-.108.8238.1323.3929.6615l-5.533 6.7968 5.5266 6.7889c.4287.5267.2973.7797-.3764.6711l-8.6529-1.3934-3.116 8.1807c-.2417.6345-.5265.6474-.7693.0095l-3.1197-8.1902-8.6428 1.3917c-.6705.108-.8238-.1322-.3929-.6614l5.533-6.7969-5.5266-6.7889c-.4287-.5266-.2973-.7796.3764-.671l8.6529 1.3933 3.116-8.1807c.2418-.6344.5265-.6473.7693-.0094z" fill="#0a0b0c"/><path d="m179.89 188.769 3.045 7.996 8.448-1.36-5.402 6.636 5.402 6.635-8.448-1.36-3.045 7.996-3.046-7.996-8.447 1.36 5.401-6.635-5.401-6.636 8.447 1.36z" fill="#facf00"/><path d="m152.317 219.636 3.1197 8.1901 8.6427-1.3917c.6706-.1081.8238.1323.393.6615l-5.533 6.7968 5.5265 6.7888c.4287.5268.2973.7798-.3763.6712l-8.6529-1.3934-3.1161 8.1807c-.2417.6345-.5265.6473-.7693.0095l-3.1197-8.1902-8.6427 1.3917c-.6706.108-.8238-.1322-.393-.6614l5.533-6.7969-5.5265-6.7889c-.4287-.5267-.2973-.7796.3763-.671l8.6529 1.3933 3.116-8.1807c.2418-.6345.5265-.6473.7694-.0094z" fill="#0a0b0c"/><path d="m151.934 220.621 3.046 7.996 8.447-1.36-5.402 6.635 5.402 6.636-8.447-1.36-3.046 7.996-3.046-7.996-8.447 1.36 5.401-6.636-5.401-6.635 8.447 1.36z" fill="#facf00"/><path d="m124.38 219.636 3.1197 8.1901 8.6428-1.3917c.6705-.1081.8238.1323.3929.6615l-5.533 6.7968 5.5266 6.7888c.4287.5268.2973.7798-.3764.6712l-8.6529-1.3934-3.116 8.1807c-.2418.6345-.5265.6473-.7694.0095l-3.1196-8.1902-8.6428 1.3917c-.6705.108-.8238-.1322-.393-.6614l5.5331-6.7969-5.5266-6.7889c-.4287-.5267-.2973-.7796.3764-.671l8.6529 1.3933 3.116-8.1807c.2417-.6345.5265-.6473.7693-.0094z" fill="#0a0b0c"/><path d="m123.997 220.621 3.046 7.996 8.447-1.36-5.401 6.635 5.401 6.636-8.447-1.36-3.046 7.996-3.046-7.996-8.447 1.36 5.402-6.636-5.402-6.635 8.447 1.36z" fill="#facf00"/><path d="m46.8694 56.9514-6.1986.0018c-3.0262-.0301-10.5982-.3046-12.514-3.72h-1.4942v20.1745h1.4942c1.9158-3.4155 9.4878-3.6899 12.514-3.72l6.1963.0018-.0025 14.0685-16.9061.0048c-3.0261-.0301-10.5982-.3045-12.5139-3.72h-1.4943v20.1745h1.4943c1.9157-3.4155 9.4878-3.6899 12.5139-3.72l16.9063.0049.0054 31.0653c-.0301 3.0262-.3045 10.5983-3.72 12.514v1.4943h20.1745v-1.4943c-3.4154-1.9157-3.6899-9.4878-3.72-12.514l.0053-31.0653 16.8128-.0049c3.0262.0301 10.5982.3045 12.514 3.72h1.4942v-20.1745h-1.4942c-1.9158 3.4155-9.4878 3.6899-12.514 3.72l-16.8131-.0048-.0022-14.0685 6.1563-.0018c3.0261.0301 10.5982.3045 12.5139 3.72h1.4943v-20.1745h-1.4943c-1.9157 3.4154-9.4878 3.6899-12.5139 3.72l-6.1584-.0018-.0007-4.6535c.0301-3.0262.3046-10.5982 3.72-12.514v-1.4942h-20.1745v1.4942c3.4155 1.9158 3.6899 9.4878 3.72 12.514z" fill="#0a0b0c"/><path d="m58.8556 95.7482v31.6968c-.0203 2.7559.355 10.8132 3.721 13.097l-.0012.3201h-18.6758l-.0013-.3201c3.366-2.2838 3.7413-10.3411 3.721-13.097v-31.6968h-17.5382c-2.7559-.0203-10.8132.355-13.097 3.721l-.3201-.0013v-18.6757l.3201-.0013c2.2838 3.366 10.3411 3.7413 13.097 3.721h17.4801l.0282-15.5733h-6.7961c-2.7558-.0203-10.8132.355-13.097 3.721l-.3201-.0013v-18.6758l.3201-.0012c2.2838 3.366 10.3412 3.7413 13.097 3.721h6.8164l.0096-5.2819c.0203-2.7558-.355-10.8132-3.721-13.097l.0013-.3201h18.6758l.0012.3201c-3.366 2.2838-3.7413 10.3412-3.721 13.097v5.2819h6.7856c2.7559.0203 10.8132-.355 13.097-3.721l.3201.0012v18.6758l-.3201.0013c-2.2838-3.366-10.3411-3.7413-13.097-3.721h-6.7856v15.5733h17.4446c2.7559.0203 10.8132-.355 13.097-3.721l.3202.0013v18.6757l-.3202.0013c-2.2838-3.366-10.3411-3.7413-13.097-3.721z" fill="#facf00"/><path d="m104.544 265.654c-17.9856-.0813-34.8913-4.9565-49.5017-13.405h49.5017zm-69.9829-29.0356c-4.3575-4.3023-8.3282-8.9953-11.8491-14.024h81.832v14.024zm-20.8071-29.6092c-2.0656-4.4799-3.8146-9.1327-5.2082-13.9331h95.9982v13.9331zm-8.424-29.6545c-.4802-3.9589-.7334-7.985-.7334-12.0679v-1.6382h99.9474v13.7061z" fill="#fff"/></g></svg>