<svg height="868.71454" width="741.24951" xmlns="http://www.w3.org/2000/svg"><g transform="translate(-4.9965 -3.791149)"><g fill-rule="evenodd"><path d="m374.62418 869.7702c-154.23023-2.65913-360.313752-134.9514-366.9615405-313.11387v-550.1990421h370.7891805z" fill="#de2118" stroke="#000" stroke-linecap="round" stroke-width="5.332277"/><path d="m378.45182 6.4572879h365.12805v550.1990421c-7.31254 200.10038-198.10591 316.43781-368.95569 313.11387z" fill="#009442" stroke="#000" stroke-linecap="round" stroke-width="5.332277"/><g fill="#fff700"><path d="m563.56092 344.96854-30.11563-86.9221-94.71218 22.05745 66.53465-67.36555-61.95029-68.2257 92.92543 26.38959 25.44724-85.106683 26.37405 86.826883 90.97132-23.74591-67.34432 63.79834 69.39961 63.01753-93.98695-18.52189z"/><path d="m563.56092 684.96854-30.11563-86.9221-94.71218 22.05745 66.53465-67.36555-61.95029-68.2257 92.92543 26.38959 25.44724-85.10668 26.37405 86.82688 90.97132-23.74591-67.34432 63.79834 69.39961 63.01753-93.98695-18.52189z"/></g></g><g transform="matrix(.9999836 .00573289 -.00573289 .9999836 764.65911 -14.569254)"><g fill-rule="evenodd"><path d="m-384.67789 47.103139c-8.47138 3.87132-17.11791 16.94439-19.33414 25.86491-5.12903-2.39932-10.47482-.3625-10.43158 3.95126 5.59452 7.59322 12.71585 11.34296 8.47487 24.433671-7.8053-2.287471-19.05287.01476-22.15925-8.537931.63979-5.89148 5.43361-9.70595 9.41541-13.92642 3.06544-12.42768-10.8604-7.89057-16.2639-7.57219-1.49826-1.65975-1.38079-11.37293-7.38895-9.59126-2.18847-9.10743-9.11025-9.57287-17.40026-13.1908-.9167 10.18862 5.27671 15.03189 5.21925 23.29876-.07584 11.06464 5.38972 7.35903 2.79991 12.50566.76238 2.87752 1.17487 5.83557 1.08418 9.00125 4.47139 7.471031 1.61822 15.493481-4.67633 16.189621-6.35367-.45177-10.46686 2.64387-11.89425 9.99204-11.04463-2.43343-19.18938-4.47274-23.14541-3.47479-16.68081 8.33068-6.29378 26.10329-8.62389 37.61777.47069 2.61029 2.68568 4.96545 4.43903 1.93093 2.35673-7.17412 2.53562-11.22308 9.70042-11.39414 8.81948 1.57648 15.67656 7.73191 23.40418 11.85606 8.2689 3.68982 18.62663 5.29081 21.55649 14.31967-3.66845 2.06773-7.70898-4.58475-16.45241-7.16209-8.60739-2.53724-19.74994-3.83491-22.34926 6.70016 15.82229 1.78569 27.4309 10.12599 39.72552 17.39917 30.41491 11.90739 21.12237 54.45578 1.38577 62.97572-6.34437 3.41038-14.19234 5.34777-23.20245 6.94059-13.04299 2.30576-35.11053 12.02262-28.57946 23.614 5.95286-6.12532 13.58606-4.91731 21.91078-3.91693 1.87486.23801 2.15734 1.47748 1.8477 2.77155-4.33118 4.03712-3.07778 9.78996-6.15899 11.08619-55.43818-15.2601-57.40401-30.6317-82.22259-58.81841 9.87104-6.43625 16.84941-14.86122 21.86443-24.63598 5.19832-11.80474 6.19533-25.31812 4.85964-35.41422-2.05166-10.01222-9.00649-20.85378-15.02198-28.79331-8.22295-10.23669-19.4749-17.40275-28.33138-20.94058-8.46862-2.59461-17.6207-3.3936-25.63368-2.97187-11.5803 1.4177-21.44635 5.21846-29.79728 9.74676-10.6709 7.18047-20.41524 16.78219-26.95189 30.33306-5.23568 10.60133-7.99535 25.43453-10.00837 39.10962-4.92639 19.67728-4.63631 45.18366-17.70083 63.7456-5.52996 14.35884-14.58681 27.59549-33.41255 37.72385 9.41192 3.82992 19.65215 6.83153 38.0318 1.69372.49547 6.0339-21.10753 131.12501-67.15203 149.41245-4.7839 2.9213-5.1365 5.3144.6538 7.9688 12.589 9.7158 30.08784 8.8932 44.06727 6.607 11.94112-3.5624 17.38324-7.3272 26.43431-14.9406 27.78477-26.36836 31.94389-64.38142 44.49874-99.77568h1.38577c-2.53985 6.29794-10.29841 35.42023-10.43242 48.63464-5.48238 17.22497-1.1085 36.78447-21.2864 98.10344-6.60295 23.4726-22.53542 38.7005-48.96402 44.6527-2.15121.0575-5.13699.5623-.46192 4.4653 17.36024 15.2181 37.47886 23.3679 62.20585 19.7088 14.46914-6.4207 24.39872-16.6537 32.95063-30.949 8.04938-17.4498 16.27268-34.7403 18.93891-57.1247 5.71473-28.1601 10.35057-56.75169 18.16904-84.07027 4.63698-17.11621 4.15865-27.58253 8.77657-32.4887-4.18681 11.29149-3.27086 19.64349-5.69708 33.87448-7.12124 32.37966-5.62736 46.43068-10.47029 64.97739-2.35272 10.7902-4.81368 21.5587-4.92719 32.7967-3.54264 30.2817-13.75686 66.0966-17.86358 86.8682-7.47234 23.2251-36.37175 42.632-61.41456 44.8182 11.04095 14.2734 34.24804 19.9396 55.20124 17.2691 23.59333-4.6067 48.45659-24.3243 62.72459-50.8735 8.77437-21.1491 15.84003-44.7836 19.55481-73.2921 2.03781-15.8504 4.59463-31.571 8.46862-46.9623 2.71143-24.4307 7.03132-48.86139 7.69875-73.29207 3.27786-1.19714-1.41299 30.18701.46192 43.26694-1.18405 20.99753.90471 41.82273 8.46862 62.35983l4.61925-4.0033c18.02498-26.8279 22.2411-31.3382 23.57709-59.1618 1.43153-1.51626 3.31827 4.08503 5.83211 5.7325 1.56241-5.33783 6.92308-10.67562 11.54812-16.01342 1.65265 3.40114 6.68461 5.67584 4.61924 10.31632-6.63361 3.03823-9.95118 7.9187-12.47196 13.2418-5.19838 9.0757-8.77138 16.851-16.01339 27.5615l6.31297.6159c-2.31727 5.0441-5.39275 8.9508-8.62259 12.626l-15.39749 14.6276c4.05467 2.8938 8.10934 2.7846 12.16401 3.5414l-4.21661 4.984c-3.72189 8.222-8.54364 15.1016-13.18255 20.1139 2.73598 3.1349 6.73746 2.4733 10.31632 3.0795-.58058 6.4779-4.2221 11.1192-6.92887 16.3214 5.18382.0277 10.36764-2.7895 15.55146-4.9272-.03878 6.0884-3.34266 12.7211-6.00502 19.2468-4.58095 8.042-7.02959 16.617-9.85439 25.0979-6.72568 11.9761-9.50461 28.506-21.55649 34.3364-7.95372 1.688-14.99173.171-21.71046-2.4636-4.26013-4.8753-9.27832-7.4765-16.01338-4.9272-9.73702 5.0105-31.73406 8.3742-21.86444 29.2553 3.42513-5.7478 6.89685-10.7967 10.93222-7.3908 5.09538 5.8632 10.47984 10.5123 18.63096 3.5414 2.92552-1.4815 5.85105-.2976 8.77657.6159-1.56453 2.8754-4.27374 4.2245-7.69874 4.6192-8.58463.2045-16.18702 1.9805-18.63097 12.0101-13.01039 2.9642-13.84654 19.3503-5.38912 25.7138 1.99123-4.3183 1.2431-10.4628 8.31465-11.3941 3.74944 5.1193 8.41365 8.2784 16.47531 4.1573 4.82335-2.464 6.88775-5.8477 8.00669-9.5465.05394-3.1659 12.5234-13.3421 15.08954-14.4736-.44516 11.3461-17.04305 13.3353-18.16527 30.164-1.21046 6.6813-1.8086 15.3602 6.77113 23.2653 2.68257-6.0889 2.13884-16.6139 9.23849-16.6293 15.44528 2.3679 19.67423-10.0988 20.94059-26.4837l6.46694-12.9339c4.29379-6.1222 10.50964-10.6428 20.32469-12.164l2.61757.9239c11.27116 6.222 17.01188-2.1362 23.40419-8.7766 2.3659.6577 2.70785 2.5804 1.38577 5.5431 10.65804-.9369 14.41816-23.68146-1.53975-21.0946-7.28565-5.5657-13.95886-4.0884-20.32468.9239-8.99229 9.8295-13.39427 2.9909-9.08452-7.3908 6.0981-20.0872 12.84968-39.08566 20.85389-58.12726 5.20119 4.9548 9.24413 9.09888 15.7788 9.60878 2.96668-5.3891-.40924-8.45222-.75654-13.84142 7.93558 7.3752 17.80614 4.64021 28.3897 4.95401.29408-2.3609-.35054-3.39086-2.32633-5.75176-1.09969-2.2669-2.90693-3.02397-4.80003-6.71657-2.24902-4.7219-2.31885-10.51454-.74005-15.33154 5.62836.8471 7.6609 2.16524 15.64042 1.24894-2.32798-2.053-1.55311-1.94521-1.23158-3.99821 3.01229-3.143 8.6185-4.57827 11.87623-6.73957 1.19132 12.1487-10.30781 23.14118-13.42496 27.43128-1.08358 1.9066-2.18388 8.16049-1.75508 10.31919 5.60261 1.11868 11.17959-2.23298 16.76862-3.48401-.78321 19.0384-19.7123 43.6498-43.31577 49.49594 9.24331 8.682 19.89339 7.0831 32.64267 5.2351-10.40158 5.8596-8.85822 17.9314-1.07782 23.5582-6.21944 48.0146-37.41831 77.5921-93.00083 53.1213 1.99232 26.0196 13.16641 53.7325 46.50041 53.1213 20.8403-.8114 36.4243-24.7708 43.42092-32.3347-3.21245 7.8878-13.38918 20.3479-25.55983 28.3314-16.25695 10.1671-17.36014 25.8446-13.24184 43.4209 15.08836-1.645 31.27141-.8574 35.5682-26.4837l11.08619-34.7983c-.5686 9.4802-6.29566 26.0426-8.77657 38.3397-5.30892 27.7123 19.16557 53.67464 32.71743 72.90504zm-22.35074 427.290791c4.39495 4.7198 3.12039 17.45483-.59093 28.25423-.52134 12.71291-3.68494 20.77804-8.25101 25.53314-5.70429-6.5655-4.11941-18.60584-3.7254-26.57864 3.64362-2.5717 5.38018.15639 9.5941-1.22651-1.25019-7.604-1.9879-18.37812 2.97324-25.98222z" stroke="#010000" stroke-width=".5"/><path d="m-453.54158 130.2641c1.34502 8.602 8.16762 18.18636 21.01198 22.20134 5.04093 10.23873 22.91874 17.20623 15.06519 31.41814-19.86053 11.73562-33.04344-17.37946-57.88206-17.14585 12.92534-15.32662 31.00488 13.787 43.808 6.34324.57036-8.76583-18.85955-19.85517-29.33748-22.20134-3.69406-1.69778-7.2182-5.39055-11.22898-7.97467-8.33904-5.3728-13.77905-11.6401-22.03822 4.81822-.23811.47449-.86504 1.19701-1.22416 1.17419-1.33851-10.70128-4.57463-28.20423 9.51485-31.36358 7.20379-1.39284 23.08085 5.28956 32.31088 12.73031z" fill="#fff700"/><g fill="#fdfdfd"><path d="m-434.90462 128.21158c2.31456-1.96704.13678-4.18626-2.07923-3.2921-1.63498 2.07566-.7552 5.22586.53292 6.96665 1.41336-.20564-.30208-2.98439 1.54631-3.67455z"/><path d="m-441.54544 122.19205c2.01531-1.71489 3.62827 1.26154 2.98215 2.73364-2.21712.02176-1.29768 10.11646 2.36088 9.31924 2.15977.58141 4.96408.40872 7.33113-1.80172.95263-.32708 2.89932 2.00415 2.8579 2.423-3.8618 1.61425-7.13916 5.39929-12.05288 3.10641-6.6856-3.48356-4.34049-14.80504-3.47918-15.78057z"/><path d="m-389.17133 122.50269c-21.59554 1.93161-56.45275-24.200316-65.40822-5.26874-2.26235.02819.61989-4.65642-1.69029-6.65988-3.96886.05782-4.4645 4.45911-5.71513 8.40013 2.93627 3.61402 6.46059 5.16987 10.18837 6.01362-.3296-4.63745 3.43084-6.63761 7.95241-6.46134 6.97836 2.71365 13.50013 5.88389 22.36617 6.70985 1.16911 1.13961.37142 1.77919-.49702 1.73959l-10.43755-2.23661c-.50362 4.29925 3.08455 5.18867 4.72175 7.7039 3.85699-.02631 7.92219.72008 12.17713 1.88764.86592 1.08651-.13473 1.35669-.49702 1.34303-2.89932-.99026-5.79864-1.8201-8.69796-1.24257-3.2456 5.93818-10.56964 7.24161-16.15334 3.47918-2.64606-3.11313-5.47581-5.96603-3.47918-15.65631.45502-1.85914-1.59822-2.45641-2.73365-.99406-4.37409 10.90952 4.82762 26.50316 17.39591 25.59684 6.98894 9.75611 16.88626 13.43105 19.63253 32.05818-.91087 5.25253-4.22498 6.17922-7.20688 7.7039-4.09243.56202-2.86034 3.02566-.99405 5.7158 8.27831 10.93457 12.75142 20.73507 10.93457 32.80371-.96263-5.89544-.62712-12.36783-5.21877-16.65037.10464 4.30756 1.73039 8.61512.24851 12.92268-.86208-2.52512-2.51393-3.07584-4.22472-3.47919 1.04065 3.94385 4.44518 7.29673.74554 12.42565-12.28276 38.35202-59.30196 20.24241-68.8381 42.99275 23.40718-8.302 26.23901 5.77644 43.65179.68103-3.18348 11.76503-2.49914 22.34824 9.77851 29.38904 1.34604-18.36113 12.25124-14.46082 19.1355-21.86914.34763 1.90201-3.33906 5.06451-3.97621 6.70985 10.11151 9.69419-7.24409 22.4053 26.8394 38.271z"/></g><path d="m-389.36773 120.97278.213-64.752625c-5.76993 4.114445-9.46232 9.826995-7.88107 19.596188-4.36842-1.018312-9.93174-3.380879-10.0111.426004 6.04055 8.739897 10.787 17.965084 3.40803 31.737303-9.77017-3.60588-19.15451-7.983424-31.0983-7.24207 1.01302-21.096967 10.87381-19.482813 14.05814-26.625253-9.72893-2.629067-14.89853-.192209-19.59619 2.769026 1.78662-7.323018-4.06094-21.886726-12.35412-20.661198 5.10669 11.609954 8.72056 33.497706 8.73309 51.333495 18.17617-1.30512 37.84336 13.78016 54.52852 13.41913z" fill="#fff700"/><g fill="#fdfdfd"><path d="m-467.71175 309.49995c-4.26207-21.64892 5.60979-24.17026 10.0111-33.52279 2.86552.63282 4.95894 1.90664 9.2554 1.3947l-8.87013 13.36354c-.48989 1.18063-1.75589 3.02649 1.91702.63901l9.50913-13.38391c-.75856 4.33104-.07391 9.12882 1.0298 13.45986-8.83363 19.03264-20.20555 12.75625-22.85232 18.04959z"/><path d="m-443.28398 292.62823c3.18313 9.84336 12.0609 9.63038 12.95197 20.88651 5.39932-5.72743-1.79561-22.45962 14.70223-23.68693 1.88029 17.92723-7.57716 34.01722-18.08608 45.04017-14.98804-9.85836-18.72061-30.32081-9.56812-42.23975z"/><path d="m-450.86846 303.12983c-8.865 3.3504-6.4204 20.9095-8.16791 20.53645.00977-3.76501-1.61159-1.7469 1.5169-16.56918-3.17028.92687-8.07861 1.2744-8.75133 3.03379 2.56207 1.59518-1.34059 18.00233 6.30095 28.23762 10.37172-8.95083 11.75391-21.32624 9.10139-35.23868z"/><path d="m-401.03142 325.29681c-.60361 13.91043-4.87647 23.41776-11.47089 30.13921-9.60279-2.99213-16.56284-10.27812-19.568-20.46767 5.28899-5.86388 11.70669-9.84248 15.29453-20.24276 1.61767 6.44769 1.97401 12.89539 1.79935 19.34308 2.20512-.89514 1.49947-14.09495 2.2492-24.51622 2.64363 7.13058 6.65412 12.21087 11.69581 15.74436z"/></g><g fill="#fcfbfc"><path d="m-442.59492 328.57741c2.45935 3.01074 4.91055 6.2995 8.54694 8.36861-2.8353 11.70949-7.46323 22.71243-14.21653 29.96089-5.24282-8.39792-10.90337-18.02174-10.75222-27.35774 4.8868-3.61587 7.93158-8.77296 11.42429-14.47997 1.24966 2.82958-1.03858 13.58952 1.35221 18.89593.39227-5.56789.28398-12.33211 3.64531-15.38772z"/><path d="m-431.89198 343.64253c-.67108 10.124 4.61119 17.65115 2.62465 23.53142-1.14815-5.90215-4.342-10.661-5.43032-17.37705-3.12531 5.31001-6.0274 11.17809-9.59358 15.38593-1.81175 7.17514 10.64633 14.87281 13.12329 23.44091 5.87723 3.01329 15.1749-20.33264 15.83845-22.89788 2.19243-11.18179-11.22267-10.92099-16.56249-22.08333z"/><path d="m-456.41896 358.30442c1.8668 3.84444 6.47364 6.1795 6.51639 8.68852-.49672 4.74586-6.54469 6.54765-9.95559 9.59358-10.4575-5.68196-10.60627-14.46151-9.68409-22.98839l8.41701.09051c5.44858 2.32893.59577 9.85381 2.62466 13.57581-.34557-3.53885 1.86716-6.09622 2.08162-8.96003z"/></g><path d="m-389.29417 328.39136.44355 52.19174c-8.12383-6.48475-14.88315-14.47046-19.0729-25.28269 4.7218-7.69358 8.18707-17.3976 10.94104-28.23972l2.36564.29571c.87707 7.98493 1.67382 16.37143 1.77422 28.23972 2.29245-9.65867-1.08321-21.3549.88711-27.35261z" fill="#fdfdfd"/><path d="m-409.25418 358.1096c4.60713 7.64086 8.44765 16.81495 14.48949 21.58638-2.03701 12.4051-6.17576 21.97548-15.67231 28.68328-5.51981-8.00228-11.92673-11.72919-16.55942-18.48149 7.17835-7.36718 10.22073-17.09776 14.93305-25.87409.01602 7.83615 4.18825 15.0809 3.54845 22.62135 2.17441-5.27536-1.52067-18.23492-.73926-28.53543z" fill="#fcfbfc"/><path d="m-388.85062 383.09658-.14785 47.90403c-6.84498-5.23509-12.61901-12.61208-16.70727-23.36061 7.48084-8.59023 10.71462-17.48383 12.71527-26.4655l1.18282.73926c1.01765 8.62206 1.05179 14.29356 1.33066 20.69928 1.11619-4.20922.36187-15.30908 1.62637-19.51646z" fill="#f1f0f1"/><g fill="#fcfbfc"><path d="m-446.91065 369.58247c2.92477 9.32526 7.16935 9.30589 9.72482 19.89648-2.36809 8.13968-6.62618 14.04572-11.77396 18.90031-7.62848-8.23047-12.73595-17.36593-10.5346-29.12506 2.94123-3.30854 6.83296-4.38309 10.3445-8.41139.20846 6.47263-2.29042 13.19271 1.64055 22.0444-1.76359-8.42044.57503-15.88436.59869-23.30474z"/><path d="m-433.1579 387.61991c2.58482 7.819 1.06286 17.55819 4.80933 24.69224-1.79008-7.03706-.32071-13.97906-.84805-21.01612 3.33588 7.70306 9.32031 10.12548 13.69967 16.46355-2.18859 8.6661-8.68905 13.37965-13.63301 19.51999-14.11275-10.39666-13.99471-27.71049-4.02794-39.65966z"/><path d="m-407.84597 408.64713c1.67238 5.17801 4.69728 9.97582 8.65086 15.15383-1.15879 9.27694-6.28463 15.90918-13.51327 21.13955-5.94571-5.26352-10.99828-10.75032-12.91828-17.02027 1.84944-4.09393 9.6054-9.9954 12.74916-16.81537.13943 4.65356 3.38801 11.10062 2.95769 18.03375 3.7688-3.53315-.32402-12.50894 2.07384-20.49149z"/><path d="m-394.7376 428.82878c2.00224 1.83456 4.00449 4.01165 6.00673 4.65132l.1901 31.60009c-8.99093-5.35014-16.45153-12.2504-19.37556-21.13956 2.19367-4.44385 7.63357-10.31266 10.84072-15.03409-.51257 7.15186 3.00738 12.2126 3.26754 17.27334 1.18712-5.11834-2.90024-11.5674-.92953-17.3511z"/><path d="m-454.63198 405.09446c2.31005 1.88833 3.76445 4.67684 5.98203 6.38321l2.78857-3.40825c2.22677 4.02287-1.37298 16.33727 1.7393 20.87539-.48717-7.12086 1.8468-11.06324 1.66895-16.22777 2.54542 6.75112 6.45829 11.31431 10.22476 16.11174-4.16796 3.97282-8.58044 7.57884-14.25269 9.29523-9.6954-9.89731-11.13262-27.74331-8.15092-33.02955z"/><path d="m-431.2038 430.45205c1.9154 5.51141-2.85311 16.63841-1.33441 19.13608 2.29811-5.8458 4.27485-12.49342 4.83771-20.32237 3.51552 6.76791 8.3292 10.97333 12.31958 15.6044-3.23942 6.00522-10.77173 12.28916-22.11475 18.04114-5.91223-7.16916-7.79667-15.1129-7.12635-23.54793 4.44106-1.3463 8.97716-5.59325 13.41822-8.91132z"/></g><g fill="#f8f7f8"><path d="m-405.48328 456.00715c4.98215 4.9599 11.67521 8.92523 16.94251 10.9111l.1654 24.85395c-3.81141-4.50082-8.75521-9.81135-12.81952-12.79484-.12411-8.09216-2.58959-15.10301-4.28839-22.97021z"/><path d="m-401.30475 486.62217c4.74714 2.4274 8.71576 8.023 12.92692 9.98034-1.13443 11.36747-10.57652 15.70537-17.86956 21.8617-3.28264-5.17653.66508-10.98179 2.85152-16.6339.05611-5.88122-1.46565-13.76109 2.09112-15.20814z"/><path d="m-388.75803 511.05024c-1.82669-2.05326-4.02961.03201-6.08326.47526-2.23421 10.87423 1.86372 16.68274 5.7981 22.6221z"/><path d="m-397.84766 526.72166c1.96431 3.89113 3.3731 6.78968 7.54315 10.12938.82858 1.26754 1.09651 3.41174 0 5.60349-8.11067 4.86368-15.93647 11.72146-24.56914 12.93112.75658-8.85199 11.35066-17.16966 17.02599-28.66399z"/><path d="m-390.30451 546.98042c-.18398 11.837-.32756 23.68157-9.48282 33.83645 4.848-3.0553 8.79234-7.73717 10.77594-15.94839l.21552 26.93985c-13.48103 11.85474-33.37748 20.42242-50.64692 13.7932 29.27614-12.05236 37.24224-31.56324 43.96583-51.50899.53308-5.14987 2.98669-5.81851 5.17245-7.11212z"/></g><path d="m-408.6236 608.40327c8.25371-1.72634 15.4513-6.9731 21.98291-14.43976l-.43103 14.22424z" fill="#e5e3e4"/><path d="m-386.20965 610.77398v21.12084h-21.98291c-13.61717-3.23278-12.30854-19.82773.21552-21.33636z" fill="#fff700" stroke="#000"/><path d="m-386.26905 633.56046v15.98768l-7.60911-16.15866z" fill="#e5e3e4"/><g fill="#f8f7f8"><path d="m-412.08872 633.21849 9.57551.68396c-2.0274 54.48118-48.41682 90.29885-80.70784 72.84224l-5.8137-.34198c40.30571 30.99863 79.72641-19.27335 86.86352-49.24546-1.29543 30.06734-14.45934 45.62505-26.47551 59.70246-27.15181 31.8094-71.53054 23.95141-74.75127-27.21414 53.72484 24.48331 88.84373-12.4142 91.30929-56.42708z"/><path d="m-395.67357 637.32227 8.54956 15.38921.34198 168.59729c-15.60652-24.42464-39.4561-44.29389-22.22885-86.86351 11.39931-37.58948 12.67587-67.58691 13.33731-97.12299z"/><path d="m-409.41417 708.64943c-11.18732 22.82339-22.37464 38.19651-33.56196 51.07255 3.97536-10.56341 27.05308-40.63102 31.68583-58.16017-15.07857 26.72026-37.4532 39.71606-39.39882 44.6103-4.28388 8.31004-5.44025 18.72081-2.50152 28.14202 9.90246-1.21255 20.82026 3.05768 28.14202-12.09064 5.07839-17.85802 12.15735-35.71604 15.63445-53.57406z"/></g><g fill="#fcfbfc"><path d="m-446.51776 441.1818c.36818 7.59766.59561 15.63598 7.57589 23.58619-12.68978 15.90978-26.04966 11.38166-39.23681 12.12194 10.31333-12.18691 16.7868-39.84405 31.66092-35.70813z"/><path d="m-443.76116 471.14542c-2.16975 5.82378-2.19467 10.57515-2.29463 15.36403 1.27083-5.25437 3.88422-10.50873 8.08108-15.7631.6861 5.51492 1.47721 10.95483 3.99066 15.1645-5.16597 6.59732-10.98403 12.36472-19.05539 15.26427-4.80788-7.17911-6.56441-14.50352-5.78646-21.94862 5.15854-.3654 10.1722-3.19376 15.06474-8.08108z"/><path d="m-459.62403 479.5258c-.25053 7.39237-.10835 14.83094 4.09043 22.74675-12.20083 4.26276-24.67953 5.74689-37.41242 4.68902-.66701-2.99272 11.17259-7.60107 22.04838-26.13881 3.75787-.25569 7.51574-.28965 11.27361-1.29696z"/><path d="m-456.53127 503.86881c-1.57327 4.98257-2.34167 9.51451-1.7958 13.9673 2.46717-2.80167 4.32578-8.03757 6.28529-12.86987.80561 4.58926 3.7032 9.17851 6.58459 13.76777-5.18237 7.28507-11.21044 13.21704-20.35236 14.16684-3.68648-7.89867-5.22152-16.01247-3.59159-24.44278 5.99037-1.52975 9.1492-3.05951 12.86987-4.58926z"/><path d="m-473.29203 509.2562c.30377 8.54368 1.1435 16.73005 5.38739 22.64698-9.85217 1.48296-17.99479 5.67273-30.72807 2.59393 7.68679-9.19486 9.13846-24.79803 25.34068-25.24091z"/><path d="m-467.30604 532.80108c-.48858 2.52742-.67482 4.2567.09976 6.78412 1.43697-.6799 3.07638-4.16634 4.98833-6.98365 1.91741 1.43791 2.93672 4.37265 4.09042 7.08342-4.46422 6.31142-9.72351 9.70762-14.96497 13.16917-.90507-5.55367-3.44546-11.10733-1.19719-16.661 1.25006-1.6696 3.09236-3.04308 6.98365-3.39206z"/><path d="m-445.15789 521.02864c3.75787 3.41581 8.06187 6.58188 11.81974 8.67968-2.2587 9.81349-.11897 18.75097 6.66687 25.9043-20.85707 3.21847-25.64805-11.02677-32.55368-22.01341 5.55611-3.75664 10.62466-7.75707 14.06707-12.57057z"/><path d="m-432.98638 488.20548c2.966 4.60044 6.98889 7.72124 11.2736 10.47548-1.92783 9.67734-2.84598 19.35469.49884 29.03203-15.14704 3.61063-26.32101-14.30906-29.03204-23.74441 6.21936-4.84648 13.0427-9.16447 17.2596-15.7631z"/><path d="m-415.02842 448.79773c-10.43108 12.96916-18.89958 11.56733-22.04839 16.46147-.95476 3.91831 8.04687 31.47904 23.84418 31.12713-1.42298-12.42809 3.41851-20.14339 4.64261-28.17111.87087-5.7112 1.8064-14.37398-6.4384-19.41749z"/></g></g><path d="m-635.21253 195.91443c-.27069-8.14728.97186-12.41993.97186-20.57449.00001-19.51747 16.40642-35.36911 36.62612-35.36911s36.62612 15.85164 36.62612 35.36911c-.00001 19.51748-16.40642 35.36912-36.62612 35.36912-11.77175 0-21.81874-4.29222-28.52044-12.63331l.2171-.2169c.29781-9.55776 10.54869-22.54611 22.47771-18.80347-7.89466 5.4472-4.71059 20.20018 7.13235 20.9648 8.19793.82066 15.38802-5.68948 13.18405-14.26472 6.02107 3.46892 17.00308-.64696 17.93894-10.37432.74083-12.32377-10.12248-15.55186-17.50668-12.75178 1.26844-11.43742-8.19568-15.49085-15.34536-13.83244-10.02653 3.16932-12.99529 14.43983-6.0517 21.82932-22.21071-1.05764-28.6222 15.2696-31.12395 25.28819z" fill="#fdfdfd"/><path d="m-594.78125 151.625c-5.83557 0-10.59372 4.79228-10.59375 10.6875 0 3.42838 1.60548 6.45173 4.09375 8.40625v.625c-14.01825.84482-28.48925-.77521-35.15625 39.03125-7.11961 61.29521 95.12599 129.37917 177.75 142.09375l-3.34375-8.84375c-92.56733-18.67118-171.02324-84.49792-169.8125-131.25 1.23655-16.31782 10.1263-38.44782 30.5625-35.84375v1.96875c-2.8445 1.91464-4.71875 5.16542-4.71875 8.875 0 5.89522 4.7269 10.6875 10.5625 10.6875 5.83557 0 10.5625-4.79228 10.5625-10.6875 0-1.52293-.30555-2.9699-.875-4.28125 1.82764 1.52393 4.1657 2.4375 6.71875 2.4375 5.83557 0 10.59374-4.79227 10.59375-10.6875 0-5.89522-4.75816-10.68751-10.59375-10.6875-2.16398 0-4.16759.68398-5.84375 1.8125.41519-1.14483.65625-2.36667.65625-3.65625 0-5.89522-4.72694-10.6875-10.5625-10.6875z" fill="#fff700"/><g fill-rule="evenodd"><g fill="#fdfdfd"><path d="m-626.69816 201.82414c6.03842 6.32289 14.68133 14.42558 29.10794 13.21789 22.39949-1.87513 40.69203-17.8721 40.69205-39.89489 0-22.02278-18.21421-39.8949-40.69205-39.89489-22.47784 0-40.72298 17.87211-40.9835 39.39899l.16747 19.69251c2.15449 52.92033 8.51142 109.13064-64.875 102.5625 42.73665-42.89563 40.72677-84.16661 49.9375-121.96875.18557-.16572.37759-.30426.5625-.46875 2.98238-29.18303 28.5205-52 59.59375-52 33.07495 0 59.93748 25.8557 59.9375 57.71875.00001 20.53905-9.16672 38.55142-25.95594 48.78125 24.68273 35.81336 39.61744 50.94302 86.23829 64.28015-.14818 6.58979.0856 15.66447 3.45611 19.57614-.00486 5.45971.91777 8.96729 2.54279 13.08121-15.70498 10.76667-21.0536-7.27044-24.15625-14.90625-15.96615 14.44792-31.93231 3.45546-33.40625-14.875-18.20611 12.81878-32.05954-4.24347-31.40625-18.9375-16.44229 11.4344-30.45668-7.91696-24.96875-24.15625-23.94091 8.81065-32.55301-10.06459-23.875-26.3125l-.3125-.3125c-14.05508-1.82176-25.77089-10.73805-21.60441-24.58211z"/><path d="m-629.42369 210.74075c3.60034 14.29086 11.18128 18.42561 19.22603 18.3561-5.70841 17.14252 6.82899 33.81338 24.26142 28.02292-1.83003 15.37253 11.66827 29.80192 26.86301 25.19974 1.08875 15.20898 19.55839 26.70676 32.35617 18.4555-1.53535 14.38243 19.26833 26.8271 34.49999 15.8767 2.89809 10.74422 12.56038 18.95485 25.75689 14.52622l2.74658 9.61302c-84.69554-16.95391-167.91687-81.74099-165.71009-130.0502z"/><path d="m-634.98239 241.56966 3.68612 7.76025c.15103 8.72249-1.85879 14.71562-1.94007 19.01261 1.81073-1.47977 2.45742-9.59639 4.26815-14.74448l7.17823 10.08833c-2.84594 15.29732-11.77552 15.06971-17.84858 21.14668-2.06831-3.28539-3.60164-6.67778-3.1041-10.47634 4.69491-10.541 6.21968-20.30599 7.76025-32.78705z"/></g><path d="m-619.4619 266.59646 5.43218 7.17823c.8755 3.92739.40582 9.78842-.77602 14.74448 1.90182-1.17308 3.25393-6.19411 4.65615-10.86435l7.76025 7.95425c-3.72389 7.11649-8.34584 12.93578-16.68454 13.38643-6.58792-10.10104-4.55914-21.78567-.38802-32.39904z" fill="#f0efef"/><path d="m-600.64329 286.3851 7.37224 6.98422c-1.37949 4.19483-2.71812 8.9247-1.55205 12.61041.21946-3.42744 2.04758-6.85489 4.85016-10.28233l8.34226 6.4022c-3.86587 7.81507-10.65808 10.74207-15.90851 15.3265-7.26322-7.34804-9.51594-24.56023-3.1041-31.041z" fill="#fbfbfb"/><g fill="#fdfdfd"><path d="m-648.36882 281.92296c-1.83999 5.45682-2.68368 10.51511-1.94006 14.93848.98633-5.56151 2.39356-11.12303 5.43217-16.68454 7.18133 9.67248-3.14209 42.06575-20.56466 40.15929 3.23978-11.07103 5.99783-21.17863 8.73028-31.235 3.19024-1.16429 5.6157-4.62293 8.34227-7.17823z"/><path d="m-629.55022 282.50497c-1.42184 7.47973-3.32971 15.12147-3.2981 22.11671 1.87663-8.39828 4.43564-12.01989 6.79022-17.07254 8.59734 16.04839 5.46903 36.09518-15.5205 45.59146-3.28103-12.38317-4.51124-23.68676-1.38834-35.87564 2.41933-9.44281 2.55723-13.22289 13.41672-14.75999z"/><path d="m-620.23792 306.36774c4.44036-5.04279 6.72108-7.21604 12.2224-8.53627-2.10887 6.13877-4.56886 12.04346-3.68612 20.17664.78404-4.87648 2.19808-9.28045 5.04416-12.6104 1.68047 4.75429 3.29097 9.59606 6.98422 11.83438-2.11655 3.06236-4.0265 7.15771-5.62618 12.80441-7.09697 8.182-14.27353 16.09872-22.89273 19.20662.4665-6.76479-3.04143-15.22849-1.16404-19.01261 4.42057-7.55965 8.27852-15.28004 9.11829-23.86277z"/><path d="m-580.85465 303.06963c8.7268 4.71557 8.37443 11.08191 5.82019 17.84858 3.76432 1.01543 2.08826-11.56924 8.73028-7.76025 2.41154 1.0347 5.03667 3.23344 1.35804 7.76025-4.81612 6.68129-9.99505 9.00889-15.32649 9.5063-7.26268-9.76753-6.17821-21.79424-.58202-27.35488z"/><path d="m-586.67484 319.75417c1.37256 4.62492 3.10028 9.01306 6.01419 12.61041.27056 10.62742-10.28813 23.60693-21.53469 31.235-2.40556-11.65549-6.11489-44.29565 12.99842-47.53153-1.09289 5.80564-3.90363 11.95784-3.1041 18.23659 3.05451-4.85016 3.9927-9.70031 5.62618-14.55047z"/><path d="m-568.05024 328.09644c-2.16658 7.22682-3.39452 13.98432-3.49211 20.17665.56559-8.48838 4.329-7.63979 6.2082-14.93848 2.13407 3.76957 4.26813 7.52412 6.4022 10.28233-4.47603 15.97515-12.84356 22.43776-21.9227 27.16087-5.86083-6.95994-4.70652-14.92205-3.49211-22.89274 2.49165-2.562 4.74423-6.19985 6.2082-13.38643 3.1295-2.71724 5.98278-6.12506 10.08832-6.4022z"/><path d="m-553.88779 320.7242-5.43217-3.68612c-4.65643 8.2776-5.27416 16.5552 1.94006 24.8328 6.84416-1.83218 11.83325-7.37449 16.10252-14.35646l-7.76025-4.46214c-1.74606 3.44759-3.49211 8.0411-5.23817 9.11829 1.42738-4.24814.33673-7.65693.38801-11.44637z"/><path d="m-538.94931 329.26048c2.91496-.60635 5.12508 2.31153 7.56625 4.07413-1.36699 3.68463-4.35091 7.09977-2.9101 11.25236 3.3103-2.51294 3.82797-7.12035 5.23817-11.05836 2.63836.81489 4.98785 1.77421 6.59621 3.1041-2.10653 11.4236-9.35948 13.28957-14.74447 18.6246-4.88623-8.50006-9.96929-16.99256-1.74606-25.99683z"/><path d="m-545.15751 344.97498 3.88013 5.82019c1.49237 2.84343 1.67639 6.21019.58202 10.08832-5.5079 9.11984-10.80785 18.69718-18.81861 22.31072-4.877-8.02208-4.34808-16.49465-3.1041-25.02681 2.41881-3.53072 4.24152-7.65753 5.62618-12.22239 2.38477-2.66737 4.58125-5.71131 7.95426-6.4022.00047 8.82044-3.74598 16.9135-3.49211 23.66876.90536-6.33754 3.36277-12.4164 7.37223-18.23659z"/><path d="m-519.35468 337.40874c2.336-.22865 5.87826 1.65368 10.28233 5.04416.66196 4.17794-1.73915 8.74974.19401 10.86435 1.15249-.37183 3.03429-5.84888 4.65615-9.50631 3.14594-.36135 5.68803 1.69269 8.34227 3.29811-4.47444 6.9011-9.5665 12.8758-16.10252 16.68453-6.33536-7.93318-10.29689-16.39388-7.37224-26.38484z"/><path d="m-525.56288 348.6611-11.44636 7.95425c-6.24761 11.83438-4.70898 23.66876.38801 35.50314 10.16382-6.36319 17.51034-15.11026 20.95267-27.16087-2.79361-5.04416-4.7069-10.08832-5.43217-15.13248-3.36278 6.92911-5.94953 19.66745-8.92429 24.25077-.84525-5.20592 4.2974-18.4457 4.46214-25.41481z"/><path d="m-494.32787 346.91504c3.49211-.43954 6.98422 1.48221 10.47633 4.65615 1.01481 1.33316-.12262 6.58279 1.55205 6.40221 1.62298-.66963.65304-4.54963 2.32808-5.82019 3.08361-1.62314 5.55498.42719 8.14826 1.74606-1.414 11.36657-8.79457 12.96966-15.71451 15.32649-5.04976-5.17299-9.84393-10.55365-6.79021-22.31072z"/><path d="m-501.11809 357.19737c-3.77056 2.86788-6.75721 6.1277-11.44637 8.53628-6.91207 14.16058.77976 24.67019 7.95426 35.30913 8.95893-5.80048 14.70457-15.02846 15.90851-29.10093-3.93466-4.24996-6.30493-9.02139-8.73028-13.77445-3.33764 8.60437-3.92159 20.41364-6.40221 23.86277-.78001-7.85626 2.82262-17.48719 2.71609-24.8328z"/><path d="m-474.73324 365.34563c-4.8421 2.71206-8.728 2.81195-12.41641 5.62619-.48822 11.63833-.44656 25.58883 8.34228 32.01102 9.97271-2.24604 14.04874-13.81998 17.07254-24.44478-3.60835-3.04027-6.99705-7.17874-10.08832-12.80441-2.32807 8.93051-2.71609 18.80869-4.07413 22.11671.16974-7.02137-1.3086-10.41698 1.16404-22.50473z"/></g><g fill="#ede500"><path d="m-530.37531 694.122c3.08646-4.9963-2.28828-10.41162-9.25655-8.25584-7.71534 3.41157-9.56261 18.65598-.75053 21.7654 3.21837-4.55385-1.30267-12.44972 10.00708-13.50956z"/><path d="m-455.69846 624.32261c.27396 6.87383.12394 7.65397-.64887 10.48302 1.98763.76478 3.15578 2.36492 2.97571 5.32897 6.93696-1.19882 7.25462-18.95453-2.32684-15.81199z"/><path d="m-564.0924 679.49412c2.14836-6.18905 3.18784-11.88527-1.80606-14.89998-.82583-9.10746 6.76581-10.01514 15.3515-10.38484 12.95858-2.9832 19.62477-8.55739 25.88685-14.29797-.75253-1.15056-1.50505-.18169-2.25758.15051-4.58662 6.57095-14.64201 4.16935-22.91018 4.48166-2.22381-.20089-.58069-3.16939-.86959-4.63217-.45107 1.36228-.89675 2.7315-1.95657 3.31111-1.44351.40993-1.32447-.87289-1.80605-1.50505.58246 2.15398.39119 4.78093-1.80606 5.86969-7.37185 1.47401-11.14651-1.63022-14.14746-5.71918 3.15297-4.68719 2.43664-9.42354 1.80605-13.69595 6.3712-1.8882 14.58954-7.14172 18.3616.60202 6.63182-2.39534 6.75043 7.39591 26.63937 5.11717l1.05354 1.20404v-3.0101c7.87153-3.36617 11.99038-10.48502 15.502-18.2111 7.30875-18.51009 14.13755-35.42782 22.57574-53.12823-.13515-7.16332 3.25422-11.85947 7.07373-16.25453 1.88575 3.22453 2.76626 7.11923 3.46161 11.13736 1.50144-1.03801 3.20396-2.009 7.07373-2.25757-1.58309 4.13495-8.17711 18.6087-14.79295 35.91818-7.57509 19.81923-14.70678 40.07718-6.12723 44.60195-.99778-1.40471-1.84631-2.80943-.1505-4.21414 13.66757 2.64581 13.24282-8.56805 18.96361-8.72929 6.29946-3.13353 13.66606 4.03148 11.13737 12.79292-3.8944 7.31788-12.95581 15.89158-22.27473 9.63232-1.18187-1.30807-.29128-2.96156.90303-4.66566-3.91653 4.66317-12.44174 8.6001-18.66261 7.67575-.55721 1.65556-1.18144 3.31111-1.35454 4.96667-1.44971-.75597-4.42978-.49171-2.55859-3.46162-4.26656 8.53989-7.93414 15.32217-11.80631 21.89009 3.89071 7.86954-3.04073 23.00094-12.27447 22.96038.80554-8.00335-6.53221-7.95564-15.80302-7.97676.10736-10.89525 8.51728-14.3182 16.40504-18.2111-1.67003.36237-4.20589 2.09987-4.51515.30101.05398-2.00669 1.03588-3.71242 3.36129-5.41814 4.1959-4.42784 9.10881-8.11422 10.63567-14.44851-3.04066.19569-4.60353 6.21049-7.97676 3.16061.63147 3.54595-17.18694 21.87304-23.32826 17.30806 5.04724 9.07452-10.28758 21.68294-17.00706 12.04039z"/></g><path d="m-476.78386 536.29291c-.76506 11.56971-13.86554 12.48622-19.05539 15.86286 2.33961-5.00004 3.80135-9.12222 5.08809-13.0694 5.21253-.37439 9.81846-1.35538 13.9673-2.79346z" fill="#fcfbfc"/><path d="m-457.29442 540.76729c6.09371 6.00329 3.25606 15.57912 4.82416 23.39265-7.23676-2.48474-8.81758-8.85793-12.56103-13.74432 2.89002-2.69767 6.21399-4.67208 7.73687-9.64833z" fill="#fcfbfc"/><path d="m-564.84167 675.98316c.69661-5.81146-.11235-8.40176-3.27762-9.49314-10.11032.12989-16.69157 11.70307-8.58881 22.71572 1.09115-9.5224 4.75208-14.45589 11.86643-13.22258z" fill="#e8e000"/><path d="m-571.96153 641.06197c3.51243-3.51963 3.73835-8.16917.80708-12.01163-7.36527 1.45561-14.47004 10.3437-11.65638 19.13148 3.37266-2.82021 5.17035-8.52784 10.8493-7.11985z" fill="#e8e000"/><g fill="#fdfdfd"><path d="m-662.69313 294.78178-6.75233 1.44693c-4.81085 22.55971-24.22248 129.76895-71.94396 160.00535 71.17554 35.33037 95.04973-63.02882 111.69413-101.68723-.66176-7.06453-.52465-16.83771-3.25607-22.86742-3.09466 1.86993-6.39012 4.13906-9.48478 4.4628-2.24405-5.64712-2.76147-9.5676-3.45687-13.66607-5.51802 24.92835-23.48007 80.59887-33.19864 89.98913 14.18115-31.51088 22.68759-63.02176 29.42087-94.53264-6.72729 3.07572-13.55802 7.39265-19.77468 4.34078 3.46444-8.90385 6.91288-18.53846 6.75233-27.49163z"/><path d="m-607.02482 337.65351c-.7686 10.49381.23338 20.2288 3.21283 29.11631 4.07082.58422 7.47524-3.49631 11.04412-6.42567l-33.33316 136.34465 38.95562-139.75828c.22002 5.76826.42001 11.54152 4.81925 16.26497 3.37694.2418 7.87401-2.13005 12.85133-5.62246-2.81123 10.61042-5.62246 18.02016-8.43369 25.50187-10.41585 44.3362-18.65674 90.84735-34.53796 129.71817-15.08861 44.04544-57.10311 49.90157-87.85275 22.39126 25.42094-6.19977 45.49544-27.70713 52.71238-60.14206 17.52268-68.22991 9.07408-137.51338 40.56203-147.38876z"/><path d="m-462.6401 392.9373c1.91042 5.97479 3.82084 9.87292 5.73126 12.41773-2.19564 12.33372-2.41659 25.9839-12.41773 33.11395-8.76096-9.00281-8.98242-20.75045-8.27848-32.79555 4.21601-2.37411 7.76069-6.45879 10.95447-10.19588-.10613 6.4742-2.68232 15.26603-.44716 20.06639 2.244-3.3659 1.55544-14.81358 4.45764-22.60664z"/><path d="m-487.98805 392.54849c2.32549 5.20856 4.72337 10.16379 7.72541 13.00443-.22889 35.59427 4.02538 59.61722-22.27492 91.28853-11.78586-23.79129-7.07131-75.47816-7.08162-98.37015 1.28287 1.71676 2.9232 3.43351 4.89275 5.15027 3.77687-2.13323 7.55373-6.24163 11.3306-11.45935.35871 19.68758-.50469 36.93094-.77254 55.3654 2.46118-16.58841 4.73912-33.97081 6.18032-54.97913z"/><path d="m-538.72231 393.06608c-3.43177-5.3295-4.37443-12.18885-5.94743-19.37712-5.11607 4.97115-10.23214 10.98377-15.34821 12.08672-3.09278-2.27909-4.47836-8.75948-5.56373-13.04598l-14.77266 100.91451-3.83705 26.09196c-7.14568 24.27011-6.31094 119.00297-72.13661 125.47165 21.70804 24.06726 77.13802 12.52985 98.5623-27.91859 11.58566-22.51071 16.74077-48.75853 23.83971-71.26924 9.34392-41.97053 15.66013-85.86778 19.37712-131.41908-2.28339-3.79195-3.26118-8.8895-4.02891-14.1971-5.30792 5.44091-10.61585 12.09585-15.92377 14.19709-9.88062 64.64475-14.34283 124.59706-39.7135 186.28895 22.37564-62.16027 27.75718-125.85535 35.49274-187.82377z"/></g></g></g></g></svg>