<svg height="587" viewBox="0 0 397.5 464" width="500" xmlns="http://www.w3.org/2000/svg"><g transform="translate(0 -2.265649)"><g fill-rule="evenodd"><path d="m397.5 125v159l-.5 5-1.25 8.5-1.5 8.5-2.25 8.25-2.25 7.5-2.25 7-2 5.75-1.75 4.25-1.5 3.75-2.25 5.25-2.5 5-2.5 5-2.75 5-3 4.75-3 4.75-3 4.5-3.5 4.5-3.25 4.5-3.75 4.25-7.25 8.5-8 8.25-8.25 7.75-6.25 5-6.25 5-6.5 4.5-6.5 4.25-6.75 4.25-7 3.75-7 3.5-7 3.25-7.25 3-7.25 2.75-7.5 2.25-7.5 2.25-7.75 1.75-7.75 1.5-8 1-7.75 1-.25-.25h-.5l-.5.25-.5.25h-.75l-.5-.25-.5.25-.75-.25-1 .25-.75.25h-20l-7.5-.5-7.25-.75-7.5-1-7.25-1.25-2-.25h-1l-.75-.5-3-.5-2.75-.75-5.75-1.5-1.75-.5-2-.5-2-.5-1.75-.75-5-1.75-5-1.75-.75-.5-1-.25-7-3-7.25-3.25-7-3.75-6.75-3.75-7-4.25-6.5-4.5-6.5-4.75-6.25-5.25-6-5.25-6-5.5-5.5-5.75-5.5-6-5-6-5-6.25-4.5-6.5-4.25-6.75-4.5-7.5-4-7.5-3.75-7.75-3.5-8-3-8.25-2.75-8.25-2.5-8.25-2-8.5-.75-3.75-.75-3.75-.5-2.75-.25-2.75-.75-5.75-.25-.5v-286.75h397.5z" fill="#006bb6"/><g fill="#fff200"><path d="m378.5 122h-5.5l-7 .5-3.5.5-3 .5-2.75.75-2 .75-5 2.25-5.5 2-5.5 1.5-5.5 1-3 .25-2.75.25-2.75-.25-3-.25-2.75-.5-2.75-.5-2.75-1-2.5-1.25-4-1.5-4-1.5-4.25-1-4.25-.75-4.25-.5-4.25-.25h-4.25l-4.25.5-2.75-.25h-4.75l-1.5.25-2-.25h-1.25l-1-.25-2.5-1-2.25-1.25-2.25-1h-.25l-2-.75-2-.5h-4.25l-2.5.5-2.25.75-2.5 1.25-2 1.25-2.75 1.25-2.25 1.5-2 1-1 .5-6.5 2.5.25.25h2.75l6.5 2.25 6.5 2.25 3.25 1.75 3.25 1.5 6.5 2.5 3.75 1 4 1 4 .5h8.5l4-.75 4-1 3.75-1.5 3.5-.75 3.25-.5h7l3.5.5 3.25.75 6.5 1.5 3 .25 3 .25h5.75l5.5-.75 5.5-1.25 5.5-1.75 5.25-2.25 4.75-2.75 4.75-3 2.5-1.5 2.75-1.5 2.5-1 2.75-1 3-1 3-.5 3-.25zm3 184.25-2-.75-2.25-.75-2.25-.5-2.5-.5-2.25-.25h-4.75l-2.5.25-1 .5-1 .5-3 .75-3 .75-2.75 1.25-3 1.25-5.5 2.75-5.25 3.25-5 3.5-5 4-4.75 4-4.75 4.25-5.5 5.75-5.25 5.5-5 6-5 6.25-.5-.25-.25-.25 3.25-4 3.25-4 7-8 4.75-4.75 4.75-4.75 5.25-4.75 5.25-4.25 5.5-4 5.75-3.5 6-3.25 6.25-2.75 1.5-.5 1.5-.75 1.5-.5 1.5-.25.25-.25-1.75-.75-2-.5-2.25-.25h-2l-2 .25-2 .5-2 .5-1.75.5-2.5.75-2.5 1-4.75 2.25-4.25 2.75-4.25 2.75-5.5 4.25-5.25 4.5-5 4.75-2.25 2.25-2.25 2.75-3.75 4.5-3.5 4.75-3.75 5-3.25 5-.25.25h-.25l-.25-.25v-.25l4.25-6.5 4.5-6 4.75-6 5.25-5.5 5.25-5.25 5.75-5.25 6.25-4.5 6.5-4.5 3-1.5 3.25-1.75 6.5-2.5-.25-.5-3.75-.25h-5.5l-1.75.25-1.75.5-1.5.75-1.75.5-1.75.75-3 1.75-2.75 2-3 2-3 2.5-2.75 2.75-5.5 5.5-5 6-4.5 6.25-3 4.25-2.75 4.75-5 9h-.25l-.5-.25 3.25-5.5 3-5.5 3.5-5.25 3.5-5.25 3.75-5 4.25-4.75 4.25-4.5 4.75-4.5 3-2.25 3.25-2.5 6.75-4-3-.5h-3l-2.75.5-2.75.5-2.75 1-2.75 1-2.5 1.5-2.25 1.5-3.25 3-1.25 1.5-1.25 1.75-1.25 1.25-1 1.25-.75 1.5-1 1-.75.75-.25 1-.75.75-.5.75v.75l-.5.25.5-5 .25-2.5v-2.75l-.25-2.5-.25-2.5-.5-2.5-1-2.5-.5-2-1-2-1-1.75-1.25-1.75-2.75-3.25-2.75-3-.25.5v.5l.5 1 .75 4 .25 2v2l.5 1.25v4.25l.25.75-.25 1v1l.25 1v2.25l-.25 2v2.5l-.25 1.5v1.25l-.25 1.5v1.25l-.25 1.25v1.25l-.25 1-.25 1-.25 2-.25 1.75-.25 1.5-.25 1.5-.5 1.5v1.75l-.5 1v.75l-.25 1-.25 1.25v1.25l-.5 1v1.5l-.5 1.5-.75 2-.25 2.25-.25.25h-.25l-.5-.25.25-2.25.75-2 1.25-4.5 2-10.75 1.5-10.75v-2.75l.25-1v-12l-.25-.5v-2l-.25-1.5-.5-3.25-.75-2.5-1-2.25-1.25-2.25-1.5-2.25-1.75-2-1.75-2-2-1.75-2-1.75-.25.25.25 1.25.5 1 .5 1v1.25l1.25 3.75.5 2 .25 2 .5 1.25.25 1.25.25 2.75.25 1.75.25 1.75.25 3.25v.75l.25 1v.75l-.25.75.25.75v3.5l-.25.5v7.5l-.5 2.5v.75l-.25.5.25.5-.25.25v1l-.25 1.75v1l-.25.5v1.75l-.5 1.5-.5 1.75v1.75l-.25.5v1l-.25.5-.25 1-.25 1-.25 1v1l-.5 1.5-.5 1.75-.25 1.75-.25.75-.25.75-.75-.25 1.75-7.25 1.5-7.5 1.25-7.5.75-7.5v-4.75l.25-1.5-.25-1v-1.25l.25-2.25-.75-6.5-1-6.5-1.5-6.5-1-3-1-3-.75-2.25-.75-2-1.25-2-1.25-2-2.75-3.5-3.25-3.5-3.25-3-1.75-1.25-1.5-1.5-1-.5 3.75 6.75v.5l1.25 2 1 2 1 2.25.75 2.25.75 1.75.5 2 .5.75.25.75.25 1 .25.75.75 3.5 1 3.75v.75l.25.75v1.75l.25 1.75.5 1.75-.25 1 .25.75v2l.25.25v1.25l.25.25-.25 1.25.25 1.25.25 1.5-.25 1.5v1.5l.25 1.5-.25.5v.75l.25 1.25v4.5l-.5 4 .25 1.5-.25 4-.5 3.75v2.25l-.25.5v2.75l-.5.75v.5l.25.5-.25.5v.75l-.25.25.25.5-.25.5-.5 4.5h-1v-1.75l.5-2 .5-3.5v-1l.25-.75.75-6.75.25-6.5.25-6v-6.25l-.25-6-.75-5.75.25-1-.25-.75v-1.75l-1-5.5-1-5.25-1.5-5-2-5.25-2.25-5-2.5-4.75-3-4.5-3.25-4.25-2-2.25-2-2-2-1.5-1.25-.75-1.25-.5-1.75-1-.75-.25h-1l2.5 3 2.5 3.5 2.25 3.5 2 3.75 1.75 3.5 1.75 4 3.25 7.5 1.25 4.5 1 4.75 1.75 9 .75 7.25.5 7.25.25 7.5-.25 7.5-.25 7.25-.5 7.5-.75 7.25-1 7 2.25-.25 2.5.25 1.25.25 1 .5 1 .75 1 .75.25.5.75.5.25.25.25.75.25.25 1.25-1 1.5-1 1.5-.5 1.75-.25h.75l1 .25 1.25 1 1.25 1.25 1.25 1.25.5 2v1l.25.5.5-.25.5-.25 1.25-.5 2.25-.25h1.25l1 .25h.75l1 .75 1 1 .75 1.25.5 1.25-.25 1.75h-.25v1l.25.25 1.25-.75 1.5-.5h1.75l1.5.25.25-.25v-1l1-.75.5-1 1-1.75 7.75-8.5 8.25-8.5 4-4 4.25-3.75 4.5-3.75 4.5-3.5 5.5-3.75 5.5-3.5 6-3.5 6-3 6-2.75 6.25-2.25 6.5-1.75 6.5-1.25zm-152-236 3.25 3.75 3.25 3.5-1 .5-1.5.25-2.75.5-2.75-.25-3-.75-2.5-1-2.5-1.5-2.5-1.5-2.25-2-2-2-2-2.25-.75-1.5-1-1.25-2-2.5-2.25-2.5-1.25-.75-1.25-1-2.75-1.5-2.75-.75-3.25-.75h-3l-3.25.25-3.25.75-2.75 1-1.5.5-.5.25h-.75v-.5l.25-.5.5-.75 1-1.25 1.75-1.5 2-1.25 2.25-.75 2.25-.75 2.25-.25 2.25-.25h4.75l2.5.25 2.25.5 2.5.5 2.25.75 4.25 2 4.25 2.25 4 3 3.5 3.25 3 3.75zm-51-15.5-.25 1.25-.5 1-1.25 2.25-1 2-1.5 1.5-1.75 1.25-2 .75-2 .75-2 .75-4 1.25-3.5.75-3.5 1-3.25 1.25-3.25 1.75-2.25.75-2 1-2 1.25-1.75 1.25-1.75 1.75-1.5 1.75-1.25 2-1 2.25-.75 2.5-.25 2.5v3l.25 3.25.5 2.25 1.25 2.5 1.5 2.25 1 1 .75.5 1.25 1 1.5 1 3 1.25 6 2 2 .75 1.5.75 5.75 3.25 1.75 2.25.75 1 .5 1 .5 1.25v2.25l-.25 1.25-.75-.75-2.25-1.5-3-2-1.75-1-1.5-.75-3.25-1-3.5-.75-4.75-1-2.5-1-2.25-1.25-2.25-1.25-2-1.5-2-1.75-1.5-2-1.25-2.25-1-2.5-.5-1.75-.25-2v-5.75l.5-1.75 1-3.5 1.75-3.5 1.5-2.75 2.75-3 3-2.75 3-2.5 3-2.25 6-4.75 3-2.75 2.75-2.75 3.75-3.5 2-1.5 2.25-1.5 2-1 2.5-.75 2.5-.5 2.5.25 1.5.75 1.5 1 1.25 1z"/><path d="m176 63.5-.5 1.75-1 1.5-1.25 1.25-1.5 1-1.75.75-1.75.75-3.25 1-2.75.75-3.25 1.5-1.75.75-1.75 1-1.5 1.25-1.5 1.5-1.5 2-1.25 2.25-.75 2.25-.25 1.25v1.25l.25 2 .5 1.5.5 1.25 1 1.5 1.75 2.25 2 2 2.25 2 2.25 1.75 2 1.5.75 1 .5 1 1.25 2 .75 2.25.25 1-1.75-1.75-2-1.5-2.5-1.5-3.75-1.75-2-1-2-.75-2-1-2-1.25-1.75-1.75-1.25-1.75-.75-2-.75-2.25-.25-1.5v-2.25l.25-2 .25-2 1.25-3.5 1-2 1-1.5 1.25-1.75 1.5-1.5 2.75-1.75 3-1.25 3.25-1 3-.75 4.25-1.25 4.25-1.25 2-1 2-1 1.75-1.25 1.5-1.75.25.25v.5z"/><path d="m180.5 68.5 3 1.75 1.5.75 1.75.25 1.5.5 1.5.5 1.5.5.5.5.5.5.75 1.25.25 1.25.5 2.5.75 2.5.5 1.25.75 1 1.25 1.25 1 1.75.75 1.75.25 1.5-.25 2.5-.25 1.25-.5.75-.75 1-1 1.5-1.5 1.75-1.25 1.75-.5 1-.25 1-.25 1.25v1.25l.5 3.25.5 1.75.5 1.25v.75l-.5.5-1.5 1.25-2.5 1.5-2.75 1.5-3 1.5-3 1-2.75 1-2.75.5-1.25-.25-1-.25-.75-.5-.75-.75-2-3.5-1.5-3.5-2.25-3.75-2-3.75-1.25-1.75-.5-1.75-.75-4v-2l.5-2.25-.25-1.25-.25-1.75v-3l-.5-1.25-.25-1.75-.5-2.75.25-.5.75-2.75 1.5-3.75.5-.25 1.25-1 2.5-.75 2.5-.75 2.25-.75 1.25-.75 1-.75 1.25-1 1-1.25.75-1.25.75-1.5.5 1.25.75 1.25z"/><path d="m160.75 74.25-.25 1.25-.5 1.5-1.25 3-.25 1.25.25 1.25.5 3 .5 1.25v2.25l.25 1.25.25 1 .25 1.25-.25 1-.25 1-.25 1v2.25l.5 2.25.75 1.75-2.75-2.5-2.75-2.25-1.25-1-1.25-1.5-1-1.25-1-1.75-.75-1.5-.25-2.5v-2l.5-1.5 1-2.5 1.75-2.5 2-2 1.25-.75 1.25-.75 1.5-.75z"/><path d="m145 76.25-1.25 1.5-1 2-.75 2.25-.75 2.25-.25 2.5-.25 2.5.25 2.75.75 2.75.5 1.5.75 1.25 1 1 1 1 2.25 1.75 2.5 1.5 2.75 1.25 2.5 1.25 2.5 1 2 1 2.75 2 2.5 2.25 2 2.75 2 3 .75 1.5.75 1.75.25 1.5v1.75l-.25 1.5-.5 1.25-.75 1.5-1 1.25-1 1-1.25 1-1.25.75-1.5.5h-1.75l-1.75-.25-1.5-.25-1.5-.5 3.25-1 1.75-.75 1.5-1.25 1.25-1.5.75-1.75.5-1.5.25-1.5-.25-1.5-.25-1.5-.25-1.5-.75-1.25-.75-1.25-1-1.25-1.75-1.25-1.5-1-3.5-2-2.5-1.25-3-1-4-1.5-3.75-1.5-1.5-1-1-1-1.5-1.75-1.25-1.75-.75-1.75-.5-2-.25-2v-2l.25-2.25.25-2 .5-2 .75-1.75.75-2 1.75-2.25 1.75-1.75 2.25-1.5 2.25-1.5-.5 1z"/><path d="m57 79.25.75 1.75 1 1.5 2.25 3 2.5 2.75 3 2.25 4.5 3.5 2.5 2.25 1 1 1 1.5 1.75 8 2 8 1.25 4 1.5 4 1.5 4 1.75 3.75 3.25 7.25 3.5 7 3.75 7.25 3.75 7v.25l-.5.25-.25.25-.25.25h2l1.75-.25 3.75-.75 3.25-.75 3.25-1 3-1.25 3-1.25 3-1.5 3-1.5 2.75-1.75 2.75-2 1.5-1.5 1.5-1 3.5-2.5 3.25-2 3.25-2 3.5-1.75 1.75-.5 2-.5 4.25-.75 4.5-.75 2.25-.5 2-.75 2-.75 1.75-1 .25-.25 1.75-1.5 1.5-2 .5-1 .5-1.25.25-1v-2.25l-.25-1-.75-1.5 1.25 1 1.25.75h1.5l2-.25 2.75-.75 2.75-1 5.5-2.5 3.5-2 1.25-1 1.25-1.25.75 1.25 1 1.25 1 1 1 1 1 1 .75 1 .25 2.25.5 2.25 1.25 4.5.25.75.25.75.75 1.5 1 1.5 1.25 1.25 1.25 1 3 2 2.75 2 1.75.5 1.75 1 1.75.75 1.75.5 3.75 1.5 4 1.5 1.5.5 1.5.5 3 1.5 2.75 2 3 1.75 9.25 9 4.75 4.5 5 4 4.5 3.75 4.25 4 3.75 4.25 3.5 4.75 1.5 2 .75 1.25.25 1.25-1 2-1 1.75-2.5 3.75-3.5 5-4 5-4.25 4.75-4.25 4.75-9.25 9-8.75 8.5-4.25 4-4.25 4-2.75 3-2.75 2.5v1.5l.5.5.5.5 1 .75.5.75.75 1 1 1.75 1.25 2.25 1.25 4.25.75 2 .25 2.5v1.5l.5 1.75v.5l.5.5.5 1.75.5 1.5.25 1.5.25 1.75v.5l-.5.5-.5.5-.25.5h.5l.25.25.25.25v1l-.25.25-.75.25h-1l-1-.25-1-.5-2-1-3-2-2.5-2-1.5-1.75-2.75-3-.5-2.5-.75-3-.75-3.5-1.5-4-1.25-3-.75-1.25-.5-1.25-.5-1.5-.5-1.25v-1.5l.25-1.25.5-1.25.75-1 1.75-2 1.75-2.25 3.5-4.25 3.75-4 3.75-4 3.75-4.25 2.5-3 2.5-3 2-3 2.25-3 2-3.25 1.75-3.25 1.75-3.5 1.5-3.25 1.75-4.25 1.5-4 .25.25v-.25l-4.5-2.25-4.5-2.5-4.25-2.75-4.25-3-4.25-3.25-4-3.25-7.75-6.75-.25-.25h-.5l-.75.25v1.5l.25 1.25-.25 2.25-.5 2.25-.5 2.25-1 2-1 1.75-1.5 1.75-1.5 1.5-2 1.5-1.25.5-1.25.75-2.75.75h-.75l-.75.25h-4.5l-2.25-.5-2-.75-2-1-1.75-1.25-1.75-1.5-1.25-1.75-1-1.5-.5-1.5v-.5l-.25-.25h-.25l-.25-.75-.25-.5v-.5l-.25-.25-.25-2v-5l-.25-.75v-1l-.25-.25h-.25l-.75 1-.25 1v2.5l-.25 2 .25 1.75.5 1.75.25 2h.5v.5l.25.25.75 1.5 1 1.5 1 1.25 1.25 1.25 2.5 2 3 1.75 2 .5 2 .5 2.25.25h2l2.25-.25 2-.5 2-.75 2-1h.25l.25-.25h.25l1.75-1.75 1.75-1.75 1.75-1.75 1.25-2v-.5l.5-.5.25-1 .25-1 .25-1.25.5-.75v3.5l-.25 3.75-.75 3.5-1 3.5-.75 2.5-.75 2.5-1.75 5-.75.75-.25 1.25-.25 1-.75 1.25-1 2.25-.75 2.25-1.5 4.75-1.5 4.75-1.25 4.75-.75 4-.5 3.75-.25 2v2l.25 1.75.25 2 .5 2 .5 2 1.75 3.75 2 3.5 2.5 3.25 2 3.5 1.75 3.75 1.25 3.75 1 4 1 3.5.5 3.25.25 3.5v3.25l-.25 3.5-.75 3.25-.25-.5-.75-.5h-1.25l-1 .75-.75.75-.75 1-.5 1v.75l-.25 1-.25.75.25.25.25.5.25.75.5.5.25.75v.25l-.25.5-.75 2.75-1 2.5-1.25 2.5-1.75 2.25-2.75 1.75-1.5.75-1.5.75-.5.25-.75.25-.5.25-.5.5-1-.5-.5-.5-.75-.75-.75-.5-3-3.5-1.25-1.75-.75-2.25-1-2.5-.5-1.25v-1.5l1-2 1-2.25.75-2 .25-1v-1.25l-.5-1.25-.25-.75-.5-.5-.25-.25-.5-.25-1 .25-1 .25h-1l-.5.75-.5.5-.5.5-.5.75-.25.25-.25.5v2.75l.75 1.75.25 1.75v2l-.5 1.75-.75 1.75-.75 1.75-2.25 3.25-2 1.25-2.25.75-4.5 2-.5-1.25-.75-.75-1.5-1.5-1.75-1.5-.75-1-.5-1-1.25-2-1-2-.5-1-.25-1v-2.5l.75-1.25.75-1.5.75-2.75v-1.5l-.5-1.5-.25-.5-.5-.75-.75-.25-.75-.5h-1.75l-1 .25-.75.25-1 .75-.5 1-.5 1v3.25l.25 2.25.5.5.25.5v2.5l-.5 1.25-.75 1.5-1.25 1.25-2.5 2.25-2.75 1.75-2.75 1.75-.75.5-.5.25-.25-.25-1-1-1.25-.5-5.75-6.25-1.25-1.5-1-1.5-.5-1.75-.25-1.75.25-.5v-1l.5-2 .25-1 .75-.75.75-1.5.25-1.75v-1.5l-.25-1-.25-.75-1.25-.75-.75-.25-.75.25-.75.25-.5.25-1 1-.5 1.25-.5 1.25v1.5l.75 1 .5 1.25v.75l-.25.5-.75 1.75-.75 1.5-1 1.5-1.5 1-2 1.25-2.5.75-1 .25h-1.25l-1.25-.25-1.25-.25-2-1-.75-.75-.75-.75-.75-1-.75-1-.75-1.25-.5-1.25-.25-1.25-.25-1.5.25-2.75.75-1.25.75-1 1-1 .5-1.5v-1l-.5-1.5-1-.5h-1.25l.5-.75.5-1 2.75-4 2.75-4 1.75-2.5 2-2.5 4.25-4.75 4.75-4.5 4.5-4.5 2-3 1.75-3.25 1.5-3.25 1-3.5.5-3.75.25-3.75v-3.75l-.5-3.75-.75-4.5-1.25-4.75-.25-2.5-.5-2.5v-2.25l.25-2.5.25-2.25.25-2.25.5-2.25.25-1 .5-1 1.75.25 1.75.25 1.75.25h1.75l2.75-.25 2.75-.75 2.5-1 2.5-1.5 2-1.75 1.75-2 1.75-2.5 1-2.5.5-1.25.25-1.5h.25v-2.25l.25-1.25-.25-1.25-.25-2-.25-1.5h-1l-.75.25.5 1 .25 1v2l-.25 2v2l-1 2.5-1.25 2.5-1.5 2.25-2 2-2 1.5-2.25 1.25-2.5.75-2.5.5h-2.75l-2.5-.25-2.5-.5-2.25-1-2-1.5-1.75-1.5-1.75-2-1.25-2-1-2.25-.5-2.25-.5-2.5.25-2.5.25-.5v-.75l.25-1.5.25-.25v-.5l.25-.25 1-2.25 1-2.25-.25-.75v-.25l-.5-.25-1 1.25-.75 1.25-.75 1.25-.5 1.5-.75 3-.25 3-9.5 4.25-5 2-5 1.75-5 1.5-5.25 1-5.25.5-5.5.25-2.25-2.75-2-2.75-1.75-2.75-1.75-3-1.5-3-1.5-3-2.25-6-2-6.5-1.75-6.5-1.25-6.5-1.25-6.75-.25-1-.25-1.5-.25-1.75-.5-1.75-1.25-3.25-.75-1-.75-1.25-.5-.5-.5-.25-.5-.25-.75.25-3.75-1.5-3.75-1.25-3.25-1.25-3.5-1.25-6.75-2.5-1.25-2-1.5-1.75-2.25-4.25-4.25-8.25-1-1.75-.75-1.75-.75-3.75-.5-3v-.75l.25-.75.25-.5.75-.75-.25-1.5-.25-.75.25-.75 1.25 1.25 1 1.5.75 1.5 1.25 1.5 2.25 3.25 2.5 3.25 1 .5.5.25 1.25 1.25 1.25 1.25 1.25 1 1.5 1 1.5 1 3.5 1.25 3.5 1.25 3.5 1h1.5l.5-.25.5-.75.5-.5v-.5l-.25-1.5-2.75-4.5-2.75-4.25-1.25-2.25-.75-2.25-.75-2.5v-2.5l.25-.25.5-.25.25-.25z"/></g><path d="m34 85.25v.25l-.5.25-.25-.25v-.25l.25-.25h.25z" fill="#006bb6"/><path d="m342.75 85.5.25-.25.25.25z" stroke="#000" stroke-miterlimit="2.6131" stroke-width=".216"/><path d="m239 132.75 11.25 5 12.25 5.25 2.5.75 3 .5h2.5l2.5.25 2.25-.25 2.25-.25 5-1 5.5-1.5 2.75-.5 2.5-.25h2.25l2.25.25 4.5 1 5 1.25-4.25-.25h-3.25l-3.5.25-4 .5-3 .75-2.75.5-5.75 1.75-2.75.75-3.25.75-3.25.5h-3.5l-4-.5-3.75-1-3.75-.75-3.5-1.25-3.5-1.25-3.25-1.5-3.5-1.75-3.5-1.75-5.25-2.5-5.25-2.25-5.5-1.75-3-.75-2.75-.5 2.25-1 3.25-.75 5.5-1.75 1.75.25 1.25.5 1.25.5 1 .75 2.25 1.5 1.25.75z" fill="#fff200" stroke="#006bb6" stroke-miterlimit="2.6131" stroke-width=".2001"/><path d="m205.75 172v1.75l-.5.75-.5.75-1.5 1-1 .25-1-.25h-.5l-.25-.25-.75-.5-.25-.75-.25-.25.25-.5.5-.25.25.25.5.5.5.25.5.25.75-.25 1-.25.5-1v-1.75l-.5-1 .5-.5h.5l.25.5.5.75zm-61.5-1-.25.5-.5.25-.25.25-.25.5.25 1.25.25.5.5.25h1.25l.5-.25.5-.5h.25l.25.25.25.5-.25.75-.5.5-.75.5-.5.25-.5-.25h-.25l-.25.25-1.5-1-.75-.75-.25-1v-1.25l.75-1 .25-.25.75-.25zm89.5 107.75v.25h-.25l-.75-.25-1.75-.5-1-.5-1.75-1-2-1.25-2-1.75-1-1-1-1-.75-.75v-.25h.5l1.25.75.75.75.5.75 1.25 1 1.75 1.5 1.5 1.25 1.5.75 1.5.5 1.25.5zm1.25-1.5-3.75-2.25-2-1.75-2-2-1.5-2v-.5l.75.5.75.75 1 1.5 1 .75 1.5 1.75 1 .5 1.25.5 1 .5.75.5z" fill="#006bb6"/><g fill="#fff200"><path d="m238.25 276.5.5.75.25.5v.5l-.5.25-1-.75-1-.75-1-.75-1.25-.5-1.5-.75-.5-.5v-.25l-.5-1-.5-1.5v-2.25l1.5 1.75 1.75 2zm-123-2.5.25.75-.25 1-.75 1.5-1.25 1.25-1 1.25-.5 1v2.25l.5 1.75.25 1.5.5.75v.25l-.25.25-.75 1.5-1 1.5-1.5 2.75-.5-.25v-.5l.25-1v-3.5l.25-1.25.5-.75.5-.75v-3.75l.25-.75.25-1-.25-2.5v-1l.25-1.25.5-.75.5-.5.75-.25h1.75zm-5.75 6.25v1.5l-.5 1.25-.5 1.25-.5 1.25-.75 1-1 1-.75 1-.75.25-.5.25-.75.25-.75.25-1.5.25v-.25l1.75-3.5 1.75-3.5 2-3 1.25-1.5 1.25-1.5v1l.25 1zm130 1.5-2.25-1-1.25-.5-1-.75-.75-.5-.75-.5-1.25-.5-.5-.5-.25-.5v-.25l.75-.25.75-.25 2 1 4.75 2.75.25.5v.5l-.25.5v.25zm-102.25-2.75-.75 2.5-.75 2.5-.75 2.25-.5 2.75v1.5l.25.75.25.75-.5 1-.25 1-.5.75-.5 1v.5l-.25.25-.25.5.25.25-.25.25-.25-1.25v-.5l.25-.5v-2.25l.25-1-.25-.5-.25-.5.25-.75.75-.25.25-.5.25-.5v-.25l.5-.75.75-5-.5-.75-.25-.75v-2.25l.5-.5 1.25-.5.5.25.25.25zm26.75 4.25.25 1.5-.25 1.5-.75 1.5-.75 1.5-.25 2.25v1.25l.5 1.25-.5 1-.5.75-.5.75-.5 1v-1l-.5-1v-1l.25-.5.25-.5.5-1v-2l.25-1.25-.25-1.25-.5-1-.25-1v-1.25l.5-1.5.5-.5.75-.5h.5l.5.25zm26.25 1.75v2.25l-.5 1.25-.75 1-.5.25-.25.5-.5 1v-2.25l-.75-.5.25-.5v-2.25l.25-.75.25-.5.5-.25h.5l.5.25.5.25zm25.5 3-2.5 8.75-2.75 8.75-2.5 8.75-1 4.5-.75 4.5v2.75l.5 3-1.5-2-1.5-2-1.25-2.25-1.5-2-.25-1-.75-1.25-1.25-4 .25-1.75v-1l-.25-.5v-.5l.25-.5 2.5-.75 2.5-1.25 2-1.5 2-1.75 2-2 1.25-2.25 1.25-2.5.5-2.5v-.5l.25-.5.5-1 .25-1v-.5l-.5-.5-.25-.75-.25-.5-.25-.75-.25-.75.5-1.5.5-.75.25-.25h.25l.75-.25.75.25.5.5-.25.5z"/><path d="m107.5 291.25v3l-.25 1.25-.25 1.5.25.25v.5l-.25.5-.25.75v.5l.25.25v1l-.25 1v.75l.25 1 .5-.25.25-.25.25-1v-1l.5-.75 1-3 .5-1.5 1-1.25 1.5-2.5.75-1.25 1-1.25 1 1.5 1.5 1 1.25 1.25 1.5.75.25.5h1.5l-.5 2-.25.75-.25 1-.25.5-.25.75-.25.75v.75l-.25 1-.25.75-.25.25-.25.5-.5.75-.25 1-.75 2.25-1 1.25-1 1.5-.75 1.25-.75 1.25-1.75.75-1.5.5-1.75.25-1.75.25-1.5-.25-1.75-.25-1.5-.75-1.5-.75-1-1-.75-.75-.5-1-.25-1-.5-2.25v-2.25l.25-2.25.5-2 1-4.25 1.25-4.25 3.5-.75 1.75-.5.75-.5.75-.75.25 1zm23.75 4.5v.75l-.25.5-.25.25.25.75.25 3-.25 1.75v1.75l.5.25.25-.25.25-.25.25-.75.25-1 .5-.75 1.25-3.5.5-1.75 1-1.75.5.25.5.75.75 1.25 1.5 1 1 1.25 1 1.25 1.25 1 .75 1.5 1 1 .5 1.5.25.5-.25 1-1.5 3.75-1 1.75-.5.75-.75.5-.25 1.25-.5.75-.75.75-.75.5-2 1.25-1.75.75-1.5.25h-3.25l-1.75-.25-1.5-.5-1.25-.75-1.5-1-1-1-1.5-2-1-2-.5-2.25-.25-1.25.25-1 .25-2 .25-2 1.25-4 .25-.25.25-.5v-.5l.5-.5.25-.75.25-.75.5-.5v-.75l1-.5h1l1.25-.25 1-.5 1.25-.75 1-.25.5.75v.75l.25 1zm57.5 3.25-1 2-1 2h-.25v-3.25l.25-1.25.25-.75.5-.5.25.25h.25l-.25-.25v-.5l.25-.75.25 1.5zm-29.25 3.75-.25 1.75v2l.25.5v.75l-.25 1-.25.75v.5l.5.5.5-.75.25-.75v-2l.25-2.25.25-.75.75-1v-1.25l.5-1.25.75-2.5h.25l.25-.25v-.25l.25-.25 1 2 1.25 1.75.5.75.5.75 1.25 1 1.25 1 .5.5v.75l.75.25.25.75-.25.5v.75l.25 1.5-1 3.75-.5 1.75-1 1.5-1.5 1.5-1.75 1-2 1-2 .75-.5-.25h-.5l-.5.25h-.5l-1.75-.25-1.75-.5-1.5-.5-1.5-1-1.5-.75-.75-.75-.5-.75-.75-1.25-.5-1-.5-2-.25-2v-2.25l-.25-2.25.75-1.25.75-.25 1-.25 1.5-.75 3-2 2.5-1.75 1-1 .75-1.25.25 1.25v1.5l.25 1.5zm146-6.25v4l-.25 4.25-.25 2-.75 2-.75 1.75-1.5 1.5-3.25 4.5v-3l-.25-3v-1.5l-.25-1.25-.5-1.5v-1.5l1.5-2.25 1.75-2.25 2-2 2.25-1.75z"/><path d="m185.25 302.75v4.5l-.25 1.75.25.25-.25.25v.25l.25.25v1.75l.25.75.25.25.5.25.25-.5v-.25l-.25-.5.5-.25-.25-1.75.5-1.5v-1.75l.5-1.5 1-1.5.25-1.25.75-.75 1 1.75 1.5 1.75 1.5 1.75 1.75 1.75.25.25.25.25.5 1.25.5 1 .25 2.75v1.25l-.5 1.5-.5 1.5-.75 1.25-.75 1.25-1 1.25-1.25 1-1.25.75-1 .5-1.25.25-2.25.5-2.5-.25-2.25-.25-1.5-.5-1.25-.75-1.25-1-1-1-1-1-.75-1.25-.75-1.5-.25-1.5-.25-.75-.25-.75v-3.75l.5-1.75.25-.75.5-.75 2-.75 2-1 2-1.25 2-1.25.5-.25.25-.25.75-1 .5-.25h.25l.25.25zm-39.25 9.5v1l-.25.5-.75.75-.5.75v-.75l-.25-.75v-.75l.5-1.75.75-1.5.75-1.75-.25 1zm-51.5 5 1.5-4 .75-1.25.75-.75 2.25 2 3 2-.5 1-.25 1.25-.25 1.25-.5 1-.25 1-.5 1.25-1.5 2.25-2 2.75-.75.5-.5.5-3 2.5-3.25 2.25v-1.25.25l.25-1.25.75-3 1.25-3.75zm27-.75 1.25 1.5 1.5 1 1.5 1 1.75.75-.5 3-.75 3-1.75 2.5-1 1.25-.75.5-.75.25-1.25.75-1.25.75-1.5.5-1.5.25-1.5.25-1.75-.25-1.5-.25-1.5-.5-.75-.5-.75-.5-1-.5-.5-.75-1-.75-.75-1-.75-1-.5-1.25-.5-1.5-.5-1.75v-1.75l.25-1.5.25-2 .75-1.75h6l1-.25.75-.5.25 3.75-.25 4-.25.5v.5l.5 1.25h.25l.25-.25v-1l.25-.5.5-1.5.75-1.5.75-1.5.75-1.75.75-1.25.5-1.25.75-1.25.75-1.25 1.25 2 .5 1.25z"/><path d="m118 309.75-1.25 3.5-.75 1.75-1 1.5-.25.75-.25.75-1 1.25v-1.25l.5-1.25.25-1 .25-1.25 1.5-2.5 1.25-1.5zm53 11.25-.25.75v1.5l-.25.5-.5-1.25-.25-1.25v-2.25l-.25-.75v-.5l.25-.5.5-1 .75-1 .25-.5.25-.5.5 1.75v3.5l-.5.75zm-29.25.5-.75 4-.5 3.75h.75l.5-2.25.75-1.75.75-2 .5-2.25 1.25-2.25 1.25-2.25h.5v-.25l1 1 1 1 1 .75 1 1 2 1.25 1.25.5 1 .5.25 1.75-.25 2-.25 3.75-.75 1.75-1 1.5-1.25 1.5-1.25 1.25-1.5 1-1.5.75-1.75.5-1.75.25h-3.5l-1.75-.5-1.75-.75-1.5-1-1.5-1-1.25-1.25-1-1.5-.5-1-.25-1.25-.25-.75-.25-1v-2.25h-.25l.25-.25-.25-.5v-1.75l.25-.5v-.5l.25-.75.25-.5h1.5l1.25-.25 1.5-.25 1.25-.25 1.25-.75 1.25-.75 1-1 1-1 1.5-2v3.25l-.25 1.75z"/><path d="m168 319.25.5 1.25.25 1.25v1.5l.25 1.25v1.75l.25 1-.25.5-.25.5.25.75v1l-.25 1v1l.5-.75.5-1v-1.75l.5-2 .25-.75.75-.75.75-2.75.5-1.25.75-1 2.75 3.5.75.5.75.75 1.75.75 2 .75.25 1.75v1.75l-.25 1.75-.75 1.75-.75 1.75-.75 1.5-1.25 1.25-1.5 1.25-1.25.75-1.5.5-1.75.5-1.5.25h-3.25l-1.75-.5-1.5-.5-1.25-.75-1.25-1-1.25-1-1-1.25-.75-1.5-.5-1.25-.5-1.5-.25-1.5v-3.25l.25-.75-.25-.5.75-3.25h2.25l2.25-.25 2-.75 1.75-1 .75-.25.5-.25.25-.5zm32.75 5.75 1.25 1.5 1 1.5-.25 2-.5 2-.75 1.75-.75 2-1.25 1.5-1.25 1.75-1.25 1.25-1.5 1.5-1.75.75-.75.25-.75-.25h-1.5l-1.75-.5-2-1.5-1.75-1.75-1.5-2-.5-1-.25-1.25-.25-.25v-.25l-.25-1 .5-1.25.25-.75-.25-.75.25-.5v-3l1.25.25h1.25l2.5-.25 2.25-.75 2.25-1.25.25 1.5v.5l.25.75-.5 3v3h.25l.25.25v.5l.25.25h.5l.25-2.75.5-2.75 1-3.5 1.25-3.25.25-.75.25-.75.5-.75v-.75l1.25 2.75z"/><path d="m194.75 324.75.25-.75.25-1 .25-.75.5-1-.5 1.75-.25 1zm-92.5 2.75.25.5-2.25 4.25-.25-.5v-4l.25-1.25.5-.75.5-.75.75 1.25zm27 3.25-1.25 2.5-1 2.75-.25-.75v-1l.25-1-.25-.75v-1l-.25-.75v-1.25l.25-.5.75-.5.5-.75.25-1 .5-.5v2.25z"/><path d="m98 329.5-.25 8.25-.25 3.75-.25 4-.25.75v1.5l.25.25.25.25.5-2 .25-2 .25-1 .25-1.5.75-1v-1l.25-1.25.5-1 .25-.75.5-.75.5-1.5.5-1.25 1.75-2.75 1 .5.75 1 .75.75.25.25.5.25 1.25.75 1.5.75 1.5.5 1.5.25v3.25l-.5 1.5-.25 1.75-.75 2-.75 1.75-1 2-1.25 1.5-1.25 1.5-1.75 1.25-1.75 1-2 .5-1.25.25h-2.5l-1-.25-2.5-.75-2-1-.5-.25-.25-.5-.25-1-.5-1-.5-.75-.75-4-.25-1.75v-2l-.25-1 .25-1 .5-2h.25v-.75l1.75-1 1.5-1 2.25-2 2-2.5zm58 4 .25.5v.5l-.5 1.25v.5l-.5.25-1 2.5-.25-1v-1l.25-1.25v-1.75l.5-.75.75-1.25.25.25.25.25zm-30.75 1v1.75l.25.75v1l-.25 5.5.25 5.5.25.25h.25v-2.75l.25-1.25.5-1.25.5-3.5.25-.25v-.75l.25-.25.25-.5v-.25l.25-1 .5-1 .5-.75.5-1 .25-1h.5v-.5h.25l1.25 1.75 1.5 1.5 1.5 1.25 2 1 .5.5h.75l.5 1.25v2.75l-.25 1.5-.25 1.25-.75 1.25-1.25 2.25-1.25 1.25-1.25 1-1.25.75-1.5.75-1.5.5-1.5.25-1.5.25h-1.75l-.25-.25h-1l-1.25-.5-1.25-.5-1.25-.5-1.25-.75-2-2-1.5-2.5-.5-1.25-.25-1-.25-1v-3.25l.5-2 .5-2 .25-.75v-.25l.5-.25h.25l1 .25h1l3.25-1.5 1.75-.75 1.25-1.25.5.5.25.5v.75zm57 3.75-1.25 2.5-.25-1v-3l.25-.5.25-.5.75 1.25.25.5z"/><path d="m152.25 336.5-.25.75v.5l.5 1.25.25 1.5v1.25l.25 1-.25 1.25v1.25l-.25 1-.25 2v1l.25.75h.25l.25-.25.25-.5.25-1.75.25-1.75 1-3.75.75-1.25.75-1.5.75-1.25 1-1 1.5 1.75 2 1.5 2.25 1.25 2.25.75.25 1.75v1.75l-.25 2-.75 1.75-.75 1.25-1 1.5-1 1-1.25 1-1.25 1-1.5.5-1.5.5-1.75.25-3.5-.25-1.75-.5-1.5-.5-1.5-.75-1.5-1-1.25-1.5-1-1.5-1-2.25-.75-2.5v-1.5l.25-1.5 1-2.75h1.25l1.25-.25 2.5-.5 2-1.25 2.25-1.5zm27 3.75v6.75l-.25 2 .25.5.25.5.5-.25.25-.25.25-.75v-.75l.25-.75v-1l.25-.5.5-1.5.5-1.75.75-1.5.25-.75.25-.25.25-.25 1.75 1.5 2 1.5 1 .75 1 .25 1.25.5h1.25l-.25 2.25-.25 2.5-.5 2.25-.5 1.25-.75 1-1.5 1.5-1.75 1.5-2 .75-2.25.5-.5.25h-2.25l-2.5-.5-1.75-1-2-1-1.5-1-.75-1-.75-1h.25l-.75-.75-.75-1-.75-2v-2.75l.25-2.5-.25-.75h3l1.25-.25 1.5-.5 2.75-1.25 2.5-1.75zm18 2.5-.5 4.5-.5 4.5-1 4.25-1 4.25-.25.75v.75l-.25 1v.75l-1.5-1.25-.5-.75-.25-.75-.75-.75-.25-.75-.25-.75v-.75l-.25-.75-.5-.75 1.5-1.75.75-1 .25-1.25 1-3 .5-1.5.25-1.75v-1.25l1.75-.5.75-1zm-84.5 3 .5 1.25v1.25l-.25 1.25-.25 1.25-.25-.5v-.75l-.25-1.5.25-.5-.25-.5v-1.25zm28 4 .25.5v.25l-.25.75-.25.75-.25.25.25.5-.25.5-.25.25-.25.25-.25-.25.25-1.25-.25-1v-.75l.5-1v-2.75l.5 1.5zm-51.25 1-.75 4-.25 4-.25 4 .5 4 .5.25.25-.25.25-.5.5-.25v-4.75l.25-.75.25-2 .5-2 .25-.5.25-.5.25-.25.5-.25 1.25.75 1.5.25 3 .5.25.25-.25.25.25.5v5.25l-.25 2-.75 2.25-.75 2-1.25 1.75-1.25 1.75-1.75 1.25-1.5.25-.5-.25-.75-.25-1.75-3.25-.25-.75-.25-.75-.25-1.25-.5-3.75-.25-3.75v-3.75l.5-2 .5-1.75v-1l.25-1.25.5-1.75.5 1z"/><path d="m110.75 351.5v1.5l.25 1.75v1.5l.25 1.5-.25.5-.25.5.25 1v5.75h.5l.25-.25.25-.5v-3.25l.25-1.5.5-1.5v-.5l.25-.5v-1l.75-3 .75-3 .5.25.5.5 1 1.25 2 1.25 1.75 1 2 .75 2.25.5.5 1 .25 1.25.25 2.25-.5 2.5-.25 1-.5 1-1 1.5-1 1.5-1.5 1.5-1.5 1-1.5.75-1.75.75-2 .25-1.75.25-1.75-.25-1.5-.5-1.5-.5-1.5-.75-1.25-1-1.25-1.25-1-1.25-.75-1.5-.5-1-.25-1.25-.25-2.25.25-2.25.5-2.25.25-.25.25-.25.25-.5.5-.25 1.25-.5 1.5-.5 1.5-.75 1.5-1 1.25-1.25.25-1 .25.5zm27.75 9.75.25.75v4.5l.5.75.25-.5v-3l.25-1v-.25l.25-.25v-.5l.25-.25-.25-.5v-.75l.5-1.25v-1.75l.25-1.5.75-1.5 1.25-1.25.75 1 1 .75 2.25 1.75 2.75 1 2.5.75.5 1.25.25 1.25v1l-.25 1.25-.75 2.5-1 2.25-1 1.5-1.25 1.25-1.25 1-1.5.75-1.75.75-1.75.5h-1.75l-1.75.25v-.25h-.25l-.25.25-1.75-.5-1.5-.5-1.5-1-1.25-1-1.25-1-1-1.25-1-1.5-.75-1.5-.5-2.5v-1.25l.25-1.25v-1l.25-1 .25-1 .5-1h.25l-.25-.5 2.25-.75 2-1 2-1.5 2-1.75.5 2.5.5 2.5.5 2.75zm127.75-7 .75 1.75.25 2v1l-.25.75-.25 1-.5.75-1.25-.25h-1.25l-1.25.25-1 .5-.25-.5.25-.5.25-.75.25-1.5-.25-1-.25-2.5h-.5l-.25.25v1l-1 2.25-1 2-1-.75-1.25-.5-1-.5-1.25-.25v-2.25l.5-1.5.75-1.5 1-1 1.5-.75 1-.25 1.25-.25 1 .25 1.25.25 1 .5 1 .5 1 .75zm-101-1 .25 1.75v6l.5 2.5.25 2.5.25-.5.25-.5.25-.75.25-.5v-1.75l.5-1.5.75-1.75.25-1.5.5-.5v-.5l.25-.25.25-.5 1.25 1.25 1.25 1 1.5.75 1.5.75 2 .5 1 .25h1l.25 1.75.25 1.75v1.75l-.5 1.5-.5 1.75-.75 1.5-1 1.5-1 1.25-2.25 1.5-2.25 1.25-2.5.75-2.5.25-2.5-.75-2.25-1-2-1.25-2-1.75-.5-1-.25-1.25-.25.5-.75-1.25-.5-1.5-.25-1.25v-3l.25-1.25.25-1.5.5-1.25h.25l.25-.25v-.5l.25-.25h1.25l.5-.5 1.5-.5 1.75-1 1.5-1.25 1.5-1.5z"/><path d="m168 354.75v.75l-.25.75-.5 1.5v-.25l.25-.5v-.25l-.25-.25v-.75l.25-.5.25-.75-.25-.75v.25l.25.25zm108.5-.5 1.25 1.25.75 1.5.5 1.5v1.5l-.5 2.5-.25 1-.75 1-1-.25h-1.25l-2.25.5.25-1.5.25-1.25.5-2 .25-2v-.5l.25-.5v-.5l-.5-.25h-.25l-.25.25-.25.5-.25.75v.5l-1.5 3-1.5 2.75-.5-.5-.5-.75-.75-.75-.75-.25 1.5-4.25.25-.25v-.75l.5-.75.75-.5.75-.25.75-.5 1-.5h1.25zm-88.75 5.25v5.5l.25 3 .5 2.5.25 1.75.5 1.5.5 1.75v1.5l-1.75-.5-1.5-1-1.5-1-1-1.25-.5-.25v-.25l-.25-.5-.25-.5-.25-.25h-.25l-.75-1.25-.5-1-.25-.5-.25-.75v-.5l.5-.75.25-.5v-1.25l.25-.5-.25-.25v-.75l.25-.5v-.25l-.25-.25v-1.75l.25-.5-.25-.25 1.75-.5 1.75-.5 1.5-.75 1.5-1v1zm72.25 3.75-.5-.25v-.5l-.25-.5v-1l.5-.75.5-.5.25-.5.25-.5v1.25l-.25 1zm29.75-1.75v2.75l-.25 1.5-.5 1.5-.5.5-.25.75-.25.75-.5.75-1-.5h-3.25l.25-1.5.25-1v-2l.25-.5.25-.5v-1.25l.25-.5-.25-.5h-.25l-.5.25-.25.25v1.75l-.25.5v.25l-1 2-1 2-.75-1.75-1-1.25-.25-.25-.25-.5.25-.5.25-.5.5-1 .5-1.25.75-1.25 1-.25.75-.5 2-.25h1.75l1 .25.75.25.75.75zm-32.25.5.75 2.25-.25 1.25-.25.5-.5.5-.25 1-.25 1h-.25l-.5-.25-.25-.5-.5-.25h-1.5v-.5l.25-.75v-.75l.25-.75v-1.75l.25-.5-.25-.5-.5-.25-.25.25-.5 1.5-.75 1.25-1.5 2.75-3 1-.5-.75.25-1 .25-.75.25-1 .75-1.75 1.25-1.75.5-.75 1-.5.75-.5h2.5l1 .5 1 .75z"/><path d="m270.25 366.25v-.75l.25-.75.75-1.25 1.5-2.5-.25 1.5-.25 1.5-.75 1.25-.5.75zm-80.25-3.75-.25 2.75-.5 2.75-.25-1.5v-4.5l.25-.25h.25zm78.25 2.25.25.75.5 1v2.25l-.5 2-.75 2-1.25-.25h-2l-1-.5.5-1.5.25-1.5.25-1.75-.25-1.75v-.5h-.25l-.25-.25-.5.75-.5 1.25-.25 1-.5 1-1.25 2.5-.5 1.25-1 1-.25-1-.25-1-.75-2.25.5-1.75.25-1 .75-.75.25-.75.75-.75 1.25-1h3.5l1.5.5.75.25zm-166.75 3.5-.25.5.25.75.25 1 .25 1.25v.5l-.25.5.5.5.25.5.25 1.5.25 2.75.5 3 .25 1.25.5 1.25h.5l.25-.25v-1l-.25-.25v-3.75l.25-1v-1.25l.25-1.25.25-1.25.75-1 .5.25.5.25 1.25.5 3.75.75h3.75l.25.75.25 1 .25 2v2.75l-.25 1.25-.25 1.25-.5 1.25-.5 1.25-1 1-1 .75-2.5 1-2.5.75h-2.75l-1.25-.25-1.25-.5-1.75-1-1.75-1.25-1.25-1.25-1-1.75-.5-.5v-1.5l-.5-.5.25-.5v-.75l-.25-.5v-5.75l.25-.75.5-.75.75-.75.75-1.25.5-1.25.25-1.25.5-1.25v-1l.5 1.75.5.75zm177.25-1.5.25 1.5v1.75l-.25 1.5-.75 1.25-.5.5v1l-.25.25-.5 1.5-.5 1.25h-.75l-.5.25-1.5.75.25-.75.25-1 .5-1.5.25-1.25.5-1.5.25-1.5.25-1.5-.5-.25-.25.25-.25.25-.25.5v.75l-.25.5-.25.25-2.75 4.5-.75-.5-.5-.75-.5-.75-.5-.5.25-1.25v-.75l.5-.5v-1.25l.75-.75.75-.75.5-.5v-.75l.75-.5 1-.5 1.25-.25 1-.25 1.75.25.5.5zm18.5-.75-.25.5-.75.5-.5.25-.5.5-.5.75-.75.5-.5.75-.5.75-.75.75-.5.75-.75 1-.75.75v-.5l-.25-.25-.25-.25v-.5l-.75-1-.25-.25.25-.75.75-1 .75-1 .75-.75 1-.75 1.25-.5 1.25-.5h1.25zm-44.5 1.5h-.25l-.25-.25.5-1.25zm30-.5-.25 1-.25 1-.5 1-.75.5v-1l.5-.75.75-.75zm-155.25 8.25v2l.25 1v1l.5 1v2.25l.25.5.25.5.25-.25.25-.25-.25-1 .25-.25.25-.5v-2.25l.25-.5v-1.25l.25-1.25.25-.5v-.25l.25-1v-1.25l.5-.5v-.25l1.75 1 2 1.25 1.75.5 1.75.5h1.75l2-.25v3l-.5 2.75-.75 2.5-1 2.75-.75 1-1 1-.75.75-1.25.75-1 .5-1.25.5h-1.25l-1.25.25-1.25-.5h-1.5l-1.25-.25-1.5-.5-1.75-1.25-1-.75-.5-1-1-1-.75-1-.75-1.25-.25-1.25-.75-2.75v-2.5l-.25-1.75v-2l2.5-.75 2-1.5 1.5-1.75.75-1 .5-1 .5 1 .25 1v2l.25 2.25v1zm169.75-7-3.25 3.75-3.25 4-.25-.5.25-.25.5-.75.75-.5.25-.75 2.5-3 2.75-2.75z"/><path d="m261 373.25v-.75l.5-.5.25-.25.25-.5.25-1 .5-.75.25-.75-.25 1.25v1.5l-.25.5-.25.75-.5.25zm-107 1-.25 1 .25 1 .25 1.25-.25 1 .25.5v1.5l.25.5v1.5l.25.75.25.5.25-.75v-1.5l.25-.75v-1.25l.5-1 .25-1.75.25-.75v-.75l.25-.75v-1l.5.25.5.25 1 1 1.5 1.25 1.75.75 2 .75 1.75.25.25 1.25v.75l-.25.5v2l-.75 2-1 2-1 1.75-1.5.75-1.5.75-1.5.5-1.5.5h-3.25l-1.5-.5-1.75-.75-1.75-1.25-1.5-1.5-1.25-2-.5-1v-1.25l-.75-1.5-.5-1.75v-2l-.25-1.75h.5v-.25l-.25-.25.25-.25 2-1 2.25-1.25 1.75-1.5.75-1 .75-1 .75 1.25.5 1.25zm98.5-4.75-.25 1.75-.75 2-1 1.5-1.25 1.5-2 .25-.75.25-1 .5v-.75l-.25-1.25v-1l.25-.5.5-.25v-1.25l.5-.75 1.5-1.25 2.25-.75zm4.5 2 .5 1 .5 1v1.25l-.25 1-.75 1-.5 1.25-.5 1-.75 1-1-1-.5-.75-.75-.25-.25-.5h-.25l-.25-.25.5-1.75.25-2 .5-4 1 .5 1 .25.75.5zm-127.25-.5v.25l-.5.25.25-1 .25.25z"/><path d="m155.5 372.75-.5.75v-1.5l.25-1.25.25.5.25.5v.5zm24.5-1.75-.75 3-1 2.75v.25l.25-1-.25-.75.5-.5v-.25l-.25-.75-.25-.5.25-.25.25-.5.5-.25.25-.5v-.5zm-75.75 2-.25-.5v-.5l.25-.5-.25-.5.5.25zm182.75-1.5.75 1 .5 1 .5 2v2.25l-.25 1-.25 1-1.25 1.75-1.5 2-1.75 1.5-1.75 1.25.5-2.5-.25-1-.5-1.25.5-1.25.5-1.25.5-1.5.5-1.25.5-.5.25-.5.5-1.25-.25-.25-.25-.25-.5.25-.75 1.25-.75 1.5-2 2.5-.75-.25-.75-.5-.75-.5-.5-.25-.25-.5v-.25h.25l.25-.25v-.5l.25-.5.25-.25h.25l.75-1.5 1.25-1.25 1.75-.75 1.75-.5h.75l.5.25.75.25h.5zm-44.75 10-1.25-.25h-1.5l-1.5.25-1.5.25.75-.75.75-1 1.5-1.75 1.5-1.75 1.25-2 .5-1 .5-1 .25 1 .25 1.25v2.25l-.5 2.5z"/><path d="m182.5 374.25 1 1 1 .75 2.25 1.5-.5 2.5-.5 2.5-1 2.5-1.25 2.25-.5 1-.5.75-1.5 1-3.25 1.75-1 .25h-1l-1.75-.25-1.75-.75-1.5-.75-1.25-1.5-.75-1.25-.5-1.5-.25-1.5v-1.5l.25-1.75.25-3.25 2-.25 2-.75 1.75-.75 1.75-1 .25 1.25.25 1.25-.25 2.25-.5 2.25-.25 2.25v1l-.25 1.25-.25 2h.5l.25-.5v-.75l.25-.5.25-.25.25-.25.25-1 .5-1.25.5-1 .5-1.25v-.5l.25-.5.25-.5-.25-.5.5-.25.25-.5.25-1v-1l.25-.5.5-.5.5-1.5.5-1.75h.5l.25.5zm85.5.75 1 .75.75.75.5 1.25v3.5l-.75 2-2.25 4h-.25l-.25.5v.25h-.5l-.5-1-.5-1.25-.75-1.25-.5-.5-.75-.25 1-3.5 1-3.5v-.5l-.5-.25h-.25l-.75 2-.5 1.75-.75.5-.25.5-.75 1.25-.25.5-.5.25h-.75l-.75-.25-1.25.5h-.75l-.75.25h-.25v-1l.25-.75.5-1 .25-1 .25-.25.25-.75.5-1.25 1.75-1.5 1.75-1.25 1-.25 1-.25h1.25l1 .25 1 .5zm4 4.25-.25.25v-1.5l-.25-.5v-.75l1.25-1.5.5-.5.25-.75-.25 1.25-.25 1.5zm-20.5-2.5h-.5l-.25-.25v-.5l.25-.5.75-1zm-157.75-1.75.25-.25.25 1.75v3.25l.25.75.25.5-.25.5v.5l.25 1-.25 3-.5 3.25-.5 1.5-.75 1.25-1 1.25-1.25 1-.25-2.75-.25-3v-2.75l-.25-3v-1.5l-.25-1.75-.25-2.5.25-2.5.75.75 1.25.25h1.25zm160.25 6.5v1.25l-.25.5-.5.25.25.5v.5l-.25 1-1.25 1.75-1.25-.25h-1l-1.25.25-1 .25.5-2.25.25-1.25.5-1.25v-.75l.5-.75v-.75l-.5-.25-.25.25-.25.5-.5 1.25-1 1.5-1.25 1.5-1.5-2.5-.25-.5.25-.25.25-.25v-.5l.5-1 .5-1 1-.75 1.25-.5 1.25-.25h1l1 .25 1 .5.75.5.75.75.5.75zm27.25-1.5-.5-.25.25-.5.75-.75zm-91.75 2.5v1.75l-2-1.75.5-.75.25-.75v-.75l-.25-.75.25-.25h.25l.5.25.25 1.5v.75zm89.75-2 .5 1.5 1 1 .25.75v.75l-.25 1.25-.25 1-.25 1.25-1.5 1-1.5 1-1.25 1-1 1.5h-.5v-.25l-.25-.5-.5-.5-.25-.25-.25-.5.25-.25.5-.5.5-.75.5-1 .5-1.75.5-1.75.75-1.75v-.25l-.25-.25-.25.25-.5.5-.5.75-.75 1.5-1 1.25-1 1.25-2.25 2.5-.75-.25-1 .25-1 .25h-.75v-.75l.25-.5.5-1 1-1 .75-1 1.25-2.25.5-1.25.5-1.25h.25l.25-.25.25-.25.25-.25 1.5-.75 1.75-.25h2l.75.25z"/><path d="m262.5 382.75-.25-.25v-.25l.5-.75.25.5zm-118 2.25-1.25 2.5v-5.5l.5.5.25.75.25 1zm99-.5.5 1.25.25 1.5.25 1.25v.5l-.5.75-.5.5-.25.75-.5.5h-.75l-.75-.75-.75-.5-2-.75 1-1.75.75-2 .5-.75v-.5l-.5-.25-1.25 1.25-1.25 1-2.5 2.25-.25-1.5-.5-.5-.5-.5 1.25-1.5 1-.75h.75l.75-.75.5-.25.5-.25 1.25.25h1.25l.75.25.5.25.5.5zm-52.5 6.5-.25 1.25-.25 1-.5 1.25-1 1-1 .5-1.25.25-1.25.25-1.25-.25-1.25-.25-1-.5-2.25-1.25-.25-.75.25-.75.5-.25.25-.25h.25l.75-.5.5-.5.75-.5h.75l1.5 1.25.75.75.75.75.5.25.75.25.5.25.25-.25v-.75l-.25-.25-.25-.25v-.25l-1-1-1-1-1.25-2.25.5-1 .75-1.25.5-1 .5-1.25 1.75 1.5 1.25 1.75.75 2 .25 1zm-71.5-4.75.75.75-1.25 4.5-.25-.5v-.5l.25-1v-1.5l-.25-.5v-1l-.25-.75-.25-.75v-1l.5.5.25.5.25.75zm143.75-.25.5.75.5 1 .25 1v1l-.25 2-.5 2-.5.25-.25.5-.5.5h-.5l-1.75-1-1-.25h-1l.75-2.25.75-2 .75-1 .25-.5-.25-.75-.25-.25-2 2.25-1 1.25-1 .75-.75-1-.5-.75-1.75-1.75 1.25-1.25 1.5-1 2-.75h1.75l1-.25 1 .25.75.5zm-164.25 2.5v3.25l.25 3.25v1.25l.25 1.25.25 1.25-.25 1.25.5.25h.75l.25-.5-.25-.25-.25-.5v-.25l.25-1v-2.25l.25-.75.5-2 .25-2 .25-.75 1 .5 1 .25 2 .5.5.25.5.25.25 1v1.25l.25 1v2l-.5 1.75-.75 1.75-1 1.5-1.75.75-.75.5h-1l-1.5-.5-.75-.5-.5-.5-.5-.5-.5-.25-.5-1-.75-2 .25-.5-.25-.5-.5-1.25v-2.75l-.25-.75v-.75l.25-.75-.25-.5v-.75l.25-1 .25-1v-.5l-.25-.5.5-.5 1.25 1.25.75.5zm67.25 2.5v-3.75l-.25-1 .25-.25.5 1 .25 1.25-.25 1.5zm80-4.25v-.5l.25-.25v.25zm-13.25.5.25 1.75.25 1-.25.75-.5.25-.5.5-1 .75-1-.5-.75-.25-.5-.25-.25-.25.25-.25.5-.75.5-.5.25-.5v-.5l.25-.25.25-.25v-1.5h1.75z"/><path d="m237.25 389.25-.75.25h-.75l1.5-1.25 1.25-1.25v.75l-.25.5zm-83 3-.25 2.25-.5 1-.75.75.5.5-.75 1.75-1.25 1.75-2.5 3-.75.5-.75.5-1.75.25-1.75.25h-3.25l-1.75-.5-.75-.25-1-.75-1-.75-1-1-.75-1-.5-1-.5-1.25-.25-1.25v-2.75l-.25-.25v-1h1.25l1-.5 1-.5 1.25-.5 1.25-1 1.25-1 1-1.75.75 2.75.75 2.75-.25 6 .5.5h.25l.25-.25.25-.75.25-.75v-2.25l.25-.5v-1.25l.25-1.25.5-1.5.75-3h.5v-1l1.75 2 2 1.5 1 .75 1.25.5 1.25.25zm75.25-4.75-1.5 1.5-2 1.25-3.75 2.5.25-.5.5-.5.5-.25.5-.5 1.5-.75 1.25-1zm43 3h-.75l.25-1 .5-.75 1.5-1.25-.25.75-.5.75zm-154.5 4 .25 2.5v1.25l-.25 1.25.25.75.25.25h.75l.25-.25v-3.75l.75-4 .25-.25v-.25l-.25-.25.25-.5.5-1 .75-1.25 1.75 1.75 2.25 1.25 2.5.5 2.5.25-.25 2-.5 1.75-.5 1.75-1 1.75-1 1.5-1.25 1.25-1.5 1-1.5 1h-4.75l-1.5-.25-1.5-.5-1.25-.75-1.25-.75-1-1.25-2.25-4-.5-3-.25-1.5v-1.5l2.5-1 2.75-1 .5-.25.5-.5 1-.75.5 1.5.25 2 .5 1.75.25.75zm135.25-4.5.5.5.25.75.25.75.25.5-.25.75.25.5v.5l-.25.5-.5.75v.5l-.25.75-.5.25-.75 1.5-.75.75-.75.25-1.5-.75-1-.25h-.75l.25-.5.25-.75.75-1 .5-1 .25-.5v-.75l1.5-1.75-.25-.25v-.25l-.25-.25-.5.5-.5.5-.25.5-.25.5-1.25 1.5-1.5 1.5-3 2.5h-.25v-.75l.5-.75v-1.75l-.25-1.5.25-1.5.5-1.5 1.25-1.25 1.5-.75 1.75-.5h1.75l1.75.25.25.25h.5l.25.25zm22.75 6v-.25l.25-.25v-.25l-.25-.75-.25-.5.25-.25.5-1 .5-.5 1.25-1.5 3.5-2.25-1.25 2-1.5 1.75-1.25 2zm-110.75.25.25 4.5.25.25h.25l.5-2.25.25-1v-1l.25-1.5.25-.75.25-.75v-.75l.25-1 1-1.5 1.75 1.5 1 .75 1.25.5 1.25.5h2.5l1.25-.25-.25 1.75-.75 1.75-1.5 3-.25.75-.25.5-1 1-2.25 1.75-.75.5-1 .25-1.75.25-4.5-1.25-2.25-.75-1-.75-.75-.75-.75-.75-.25-.5-.5-.5v-.5l-.25-.25h-.25v-.5l-.5-2.5-.25-1.25.25-1.25v-.5l.25-.75h1.5l1.75-.5 1.5-1 1.25-.75.5-.75.25 1.75.75 1.75.5 1.75zm18.75-6.75v.25h-.25v-.5h.25zm43.5 1.5h-.75l1.5-1.25v.25l-.25.25zm-30.75 5.5.25 2-.25 1-.25.75-1 1-1.25.75-1.25.5h-1.25l-1.5-.75-1.75-.75-1.5-.75-1.75-.5v-.5l-.25-.25-.25-.25v-.25h1.5l1.5-.75h.75l.75-.25.75.25.5.5.75.5.75.25.75.25.5.5h1l.25-.25-.25-.5-.25-.25-.5-.25-.75-.25-.5-.5-.75-.75-.25-1v-.75l.25-.75.75-1.75.25-1v-1.75l1.5 1.25 1.5 1.5.75 1.75.25 1zm43.75-3.25.5.25.5.75.5 1.5-.5 2.25-.25 1.25-.75.75-.25.5-.25.25h-.75l-.75-.75-.5-.25h-.25l-1-.25h-.5l-.5-.25 1.5-2.25 1.25-2.75-.25-.25h-.5l-.25.5-.5.75-.5.5-.75.75-.25.25-.25.5-.75.5-.75.75-.75.5-.75.5.75-2.75v-1.25l-.25-1.25-.25-.75v-.25l.25-.25 1.75-1 .75-.5 1-.25 1 .25h1.5l1 .5.5.5zm33.25.25.25 1v1.25l-.25 1-.25 1.25-.5 1-.5 1-.75.75-.75.75-1.75-.25-1.75-.25.75-2.25.5-1 .75-1 .75-1 .5-1.25.25-.5.25-1h-.5l-.5.25-.25.5-.25.25-.75 1.5-1.25 1.5-1.25 1.25-1.5 1.25.25-1-.5-.75-.5-.75-.25-.75.5-1 .75-.75.5-.75.75-.5 1.5-1 1-.5h2l1.25.25.75.5.5.5zm-16.75.75-.25.25-.25-1.5.75-.75.25.5-.25.5-.25.5zm-27-1 .5 1.25.25 1.25v2.75l-.25.75-.25.75-.5.75-.75.25-1-1-1.25-.5-1.5-.5h-1.5l1-.75 1-.5.75-.75.25-.5.25-.75-.5-.25-.5-.25h-.5l-.5.25-1 .75-1.25.5-1.5.5-1.25.25-.75-1.5 2.75-2.25 1.75-.5 1.5-.5 1.75-.25h1.5zm-135.25 1.5v2l.5.5v1.5l-.5.5-.5-.75-.5-.75-.25-.75-.75-.75-.25-.25v-.25l1-1.25.5-.75.25-.75.25.5v.75zm106.75.5.5.25h.75l1.5.25h1.75l3.25-.25-.25.75-.5.5-1.25 1.25-1.5 1-1.5 1-1.25-.75-1.5-.75-1.5-.75-1.5-.5v-.75l.25-.25-.25-.75-.5-.75-.25-.5v-.75l1.75 1.25zm18-1-.5.25h-.25l-.5.25h-.25l-.25-.25h.75zm-2 1.75.5.5.25.75.5 1.5-.5 1-.25.5-.25.25-1.25-.75-1-.5-.25-.25h-.75v-.25l-3-.25h-1.5l-1.25.25.25-.75.5-.5.5-.5v-.75l.25-.25v-.75h.5l.5.25h.25l.5-.25h-.25l1.5-.25 1.5-.25 1.5.25.75.5zm44.5 1 1 2.25-.5 1.75-.5 2-1 2-1.25 1.75-.5 1-.5.25-.5.25h-2.75l-.25.25h-.75l-.25-.25 1.5-2 1.25-2.5 1.5-2.5 1.5-2.25-.25-.5h-.25l-1 .5-.5 1-.5 1-.75 1-.75.5-.75.75-.5.75-.75.5-.25-.75v-1l-.25-.5-.5-.5-.25-.5-.25-.5-.25-.5.75-.75.75-1 .75-.75.5-.5h.75v-.5l.75-.5.75-.25 1.75-.5.75.25 1 .25.75.25zm-77.5 5 .25 2.25-.25 2-.5 2-.5 1-.5.75-2.5 1-1.25.5-1.5.25h-1.25l-1.5-.25-1.25-.25-1.25-.75-.25-.75-.75-.5-.5-.5-.25-.75h-.25l-.25-.25.25-.75 2.25-1.5 1.25-.75.75-1h.75l.5.25.25.5.5.25 1 .75 1.25.5 2 1 .25-.25-.75-.5-.5-.75-1-1.25-.75-1.75-1-1.25.5-1 .75-.75.5-1v-1l.25-.25.25-.5v-.5l.25-.25 1.75 1.25 1.25 1.25 1 1.5z"/><path d="m247.25 396.75-.5.75-.25 1h-1l.75-1zm25 6.75-.5-1 .75-.5.75-.25 1-1.25.75-1.5.75-1.75 1-.5-2 3.5-1.25 1.75zm-48.5-5.75-1 .75-1 .5-1.25.5h-1v-.75l.5-.25h.75l.75-.25 1-.25zm-92.5 1.75.5 1v1.25l.5 1.75.5 3 .5 3 .5 3 .5 1.5.25 1.5.25.25.25-2 .25-1.25v-1l.25-1.5v-4.5l.25-.25v-.75l2.5 1.25 1.5.5 1.5.5h2l2-.25.25 1.25-.25 1.25-.25 1-.75 1-.75 1.75-1.25 1.5-1.5 1.5-1.5 1.25-.75.5-1 .5-1 .25h-4l-1.5-.25-1.25-.5-1.25-1-1.25-1-1-1.25-.75-1.25-.75-1.25-.5-1.5-.25-1-.25-1v-2l2-1 1.75-1.25 1.75-1.75.5-.75.5-1.25 1-2.25.25.25v.5zm103.25 0-.5.5h-.25l-.25-.25 1.75-1.75-.25.75zm-78.25 13 .5.5h.75l.25-3.25v-3l.25-1.75v-1.75l.5-.5 2.75 1.5 1.25.75 1.25.75h1l1 .5 1 .25h1v1.25l-.25 1.5-.5 1.25-.5 1.25-1.5 2.25-2 1.75-1.75.75-1.75.5h-1.75l-2-.25-2.25-.75-2-1.25-1-.75-.75-.75-.75-1-.5-1-.25-.5v-.5l-.25-1.25v-.75l-.25-.75v-1.75l.75-.25.75-.5 1.5-1.25 1-1.25 1.25-1.5.25-.5.25-.25.25-.5v-.5l.25-.25.5 3.25 1 3.25.75 3.5zm46.75-10.5.5.25.25.5.25 1v.75l.25.75v3.25l-.75.75-1.75 1.25-1.75.75-2 .25-1-.25-1.25-.25-.25-2v-2l-.5-.5-.5-.25-.25-.25-.25-.5-.25-.25 1.5.25 1.5.5 1.5.5h1.5l1.5.25.5.25.5-.5v-.5l-2.75-1.25-1.25-.75-1.25-.75-.5-.5.5-.25.25-.5.25-.5.75-1.25.25-.75v-.5l1.25.25 1.25.75 1.25.75z"/><path d="m156.75 403.75v.5l-.25.25-.25-1 .25-1.25v-1.25l-.25-.75-.25-.5.25-.25.5.25.25.5v1l-.25 1.25zm109.25-2.75-.5.25-.5.25h-.25l-.25-.5 2-1.5v.75zm-14 2 .5 1.5v1.75l-.25 2-.5 1.5-.5.5-.75.75-.5.5-.75.25-1.75-1-1-.5-1.25-.25.25-.75.5-.75.5-.5.5-.75.25-.5.25-.75.75-.5.5-.75 1-1.75-.25-.5-.25-.25-.25.25-.25.25-.5.5-2.5 2.75-1.5 1.25-1.5 1-.75.75.5-2.25v-1l-.25-1-.25-1.25-.25-.75.25-.75 1-1 1.5-.5 1.5-.5h1.5l1.5.25 1.25.5 1 1zm-141.5-.5.25 1.75.25 1.5.5 3.5.25 3.25.25 1.5.25 1.5h.75l.25-.5v-.5l.25-.5v-3l.5-1.5.75-1.5.25-1 .5-1 3 .5 1.75.25h1.5l.25 1.75v2l-.25 1.75-.25 1.75-.5 1.75-1 1.5-1 1.25-1.5 1-1.75.5h-1.75l-1.75-.5-1.5-.75-1.5-1.25-1-1.25-1-1.5-.5-1.5-.5-1.5-.5-1.5-.5-3.5.25-.25.25-.25-.25-.25v-.75l-.25-.25.25-.5v-.5l.25-.25.5-.5 1.25-1.5 1-1.75.75.5.25.75.5.75zm106.5-.25.75 1 .25 1.25.75 2.25-.25.25v.25l.25.75.25.5-.25.25-.25.5-.25.75-.25.5-1.5 1-1.5 1-.75.5-.5.75-.5-.5-.25-.25v-.25l-.75-2.5-.75-1-.75-1h.25l.75-.25h.5l.75-.25 1.75-1 1.25-1.25h.25v-.5l-.5-.5-.5.25-1 .5-1.75.25h-5.75l-.25-.75-.5-.5-.25-.5.25-.5-.25-.5-.25-.5-.25-.5-.5-.25.25-.25h1l1.5-.75 2-.5h1.75l2 .25 1 .25 1 .5 1 .5zm10.75-.75 1 1.5.75 2 .25 1.75-.25 2-.25.75-.25.5-.75 1.25-1.25 1-1.25.75h-.75l-.5-.5-.75-.75-.25-.25-.5-.25-.75-.25-.75-.25-.75-.25-.75-.25v-.5l1-.25 1-.25 1-.5 1-.75 1.5-1.5 1.75-1.25-.25-.5-.25-.25-1.75.5-1.5.5-1.5.75-1.75.5v-1.5l-.25-1.25-.5-1.25-.75-1 1-.5h1l1.75-.5h3.5l.75.25zm12.5 1.5.5 1 .25.75v2l-.5 2-1 1.75-.75.5-.75.5-1.5 1-1.75-.75-2-.75.25-.5.5-.5 1-1 1.25-1 .5-.5.25-.5 1.25-.75.25-.25.25-.5-.75-.25-.5.25-1.25.5-1 .75-1 .75-.5.25h-.5l-.75.25-.5-.75v-.5l-.75-3.5.5-.25.5-.5 1-.25 1.25-.75 1.25-.25 1.5-.25 1.5.25 1 .75.5.5zm-50 .25 1 1 .75.75.75 1 .5 1.25.5 1.25.25 1v2.5l-.75 2.25-1.25 2-.75 1-.75.75-1 .5-1.25.5-1 .5-1.25.25h-1l-1-.25-2.25-.5-2-.75-1.5-1.25-.75-.5-.25-.75-.25-.5-.25-.75-.25-1.5h3.25l1.5-.5 1.5-.75 1.25.75.75.25.75.25.5.5.5.25 1.5.25 1.5.25h.75l.5-.5v-.25l-.25-.25-.5-.25-1-.5-1-.5-.75-.75-.5-1.25-.5-.25v-.5l-.25-.5-.5-.25.5-1.25.5-1.5h.25l-.25-.5.25-.5v-.5l-.25-.25v-1.25l-.25-1 2 1 1 .5zm-56.25 2v-.75l-.25-.25v-1l-.25-.5v-.75l.5.25.25.25v1zm136.25-1.5-.5 1-1 1-1.75 2-2.25 1.25-2.5 1.25-2.25-1.5.75-1.25 1-1.25 1.25-1.25 1.25-.75 1.5-.75 1.5-.5 1.5-.25 1.75.25zm-73.25.75-1-.25-1.25-.25v-.5l.25-.25.75.25.5.25zm-95.5 1.25h2.25v2.25l.5 2.25v.75l.25.75.5 1.5-1.5-1.75-1.5-2-2.5-4-.5-1.5 1.25.75zm152.75 1-.25-.25.25-.25v-.5l-.25-.25.75-.75 1-.5-.75 1.25z"/><path d="m113 407v.75l-.25.75v-4l.5.25.25.25-.25.5-.25.75zm111.5-.5-1 .5-1 .75-1 .75-1.25.25v-.5l.25-.5.75-.25 1.25-.25.5-.25.25-.25h.25l.25-.25zm-12.5 8v1.75l-.5 1.5-1.5 2-2 1.5-2.25 1.25-1.25.25-1.25.25v-.75l.25-.5.25-.5-.25-.75.25-.75v-.75l-.25-1.75-.25-.25v-1h5.5l.75-.25 1-.25-.25-.5-.5-.25h-1.75l-1-.25-1.25-.25-1.25-.5-1.25-.5-1.25-.25h-.25l-.25.25h-.25v-.25l2.75-1.75.75-.75.5-.5.5-.75v-1l.5-.75.25-.5 1 .25 1.25.75.75.75.75 1 .75 1 .5 1.25zm-.5-7.5-.5.25h-1.5l.5-.25zm34 .25-.25.75-.5.5-.5.75-.25.5-1 .25h-1l1.75-1.25zm-70.75 5.75.5 1.25.5 1.25v1.5l-.25 1.25-.5 2.25-.25 1-.5 1.25-.75.75-.75 1-1 .75-1 .5-1.25.5-1 .25h-2.5l-2.25-.5-2.25-.75-1.75-1.75-.5-1-.25-1-.25-.5-.25-.5-.25-.5v-1.5l1.5-.25 1.5-.5 3-1 .25.25.25.25.25.25.25.25.75 1.5 1 1.5 2.25 2.5h.5l.25-.25v-.5l-.25-.25-.25-.5-.25-.25-.5-1.5-.5-1.5-.5-1.25v-.75l.25-.75v-2.5l-.25-.75.75-2 1-1.75 1 1.25 1.25 1.25 1.5 1zm58-4-.25.75-.5.5-1.25 1-.25-.25v-.5l.75-.5.25-.5.5-.5zm33.5.25-.75.75-.75.75-.75.5-.5 1-.25.25v-.75l-.25-.5 1.5-1zm-80.75 2h-.25l-.5-.25-.25-.5-.5-.25.5-.5zm-38.25 1.25-1.5 3.75-.25-.25v-1l.25-.25-.25-.25-.25-.5v-1.5l.25-.5.5-.5v-.5l.25-.25v-.75zm115 .5-1.5.75-1.5 1-2.75 2.25 1.25-1.5 1.75-1.25v-.5l-.25-.25h-.75l-1 .5-.75.5-.75.5-3.25 3-.5-.5v-1.25l-.25-.75-.25-.5-.25-.5-.25-.75-.25-.75.25-.25.25-.25.75-.75 2-1 1-.25 1.25-.5 1.75.5 1.75.5.75.25.5.5.75.5zm-13.5 0 1 2 .75 2v4l-.5 1.25-.75 1-.75 1-.75 1-2.25 1.25-2.25 1h-.5l-.25-.5-1.75-.75-1-.5-1-.25-.25-.25.75-.25.5-.25.75-.25.5-.5h.5l.5-.5.75-.5.5-.5.5-.75 1-.75.75-1 .5-1 .5-1.25-.25-.5-.5-.25-2.75 2.5-1.5 1-1.75.75-.75.25h-.5l-.25-.25v-.5l.5-.5.25-1v-1l-.25-1v-1l-.25-.5-.25-.5-.25-.5-.25-.5v-.5l.5-.5 1.25-1 1-.5 1.5-.25h3.75l1 .5zm-25.5 0 1 1.75.5 1.75.25 2-.5 2-.5 1-.5 1-1 .75-1 .5-2.25.75-2 .75-.5-1-.25-1-.25-1-.5-1v-.5l.5-.25h.5l.25-.25h.75l.75-.25 1.25-.75 1-.75 1.25-.75v-.5l-.25-.25h-.25l-3.5 1.5-1.5.5-1 .25h-1v-.5l-.5-.25h-.25l-.25.25v-.25l-.25-.5v-.5l.25-.75.25-1v-.25l-.25-.5 2-1 1-.25.75-.75 1.5-.75 1.5-.25h.75l.75.25.75.25zm-98.75 4.25-1-1.75-.75-2 .25-.25v-.5l.25-.25 1.5 2.25zm75.75-3 .5.5.5.5.5 1.5.25 3-.25 2-.75 2-1.25 1.5-.75.75-1 .5-2.25.5-2.75.5h-1.25l-1.25-.25-1-.25-1-.5-.25-2v-.75l-.5-.75-.25-.5-.25-.25v-.75l1-.25 1-.25 1-.25.5.25.5.25h5l1.5-.5.75.25.25-.25.25-.25v-.25l-2.75-.75-1.25-.75-1.25-.5v-.75l.25-.5.5-.75.5-1 .25-.25v-.75l.5-1.75.5.5.75.25 1.25-.25h.5l.75.25.5.5z"/><path d="m235.75 414.25.75 1.25.25 1.25.25 2.25-.25 1.75-.5 1.5-1.25 1.5-1.25 1-1.5.75-1.5.5-3 .5-1-.75-1-.75-1-.5-1.25-.25v-.5l.75-.5.75-.25.5-.25v-.5l1-.25 1-.25 1.75-1 3.25-2.75.25-.75v-.5l-.25-.25-.5.25-1 .75-1 .75-2.25 1-1.5-.25.25-1v-.75l-.5-2 .25-.5.25-.25.75-.5h.75l.75-.5 2-.5 1.75-.25 1 .25.75.25 1 .5zm-80.25 4.25.25-.25.5.25.25.75v.75l-.25 1.5-.5 1.75-.5 1.5-1.25 1.5-1.5 1.5-1.75 1.25-1.75 1-1.75.25-1.5.25h-1.5l-1.5-.25-1.5-.5-1.25-.5-1.25-1-1.25-.75-.5-.75-.75-.75-.75-1.75-.25-2 .25-2h.5l.75-.5 2-.25.75-.5.75-.75.75-.5.5-.5.75-.5.25-.5.5-.5.5-.25.5 1 .25 1.25.25 1 .25 1.25-.25 1.25v1.25l.25.75v.75l.25.75v.25l.5.25.5-2.75.25-2 .75-2.25 1.25-4.5 1.5 1.5 1.75 1.5 2 1 1 .5zm49.25-3.5h-1.5l-.75-.25-.25-.25v-.5l.75.25.5.25zm-38.5 2.5-.5-1v-1.25l.25-.25.25.5.25.75zm94.75-1.5-2 1.75-1.75 2-2 2-2.5 1.75-1.25 1.25-.75.75-.5.75-2 1.25-1.75 1.75-1.75 1.5-2 1.5.25-.5.25-.5.75-.75.25-.25.25-.5v-.5l-.25-.5 2.25-.75 1.25-.5 1-.75 1-.75.75-1 .5-1 .5-1.25 1-.25.75-.5 1.75-1.25 1.5-1.5 1.5-1 1.5-1.25zm-138 1.75.75 1.25.5 1.25.25 1.5.5 1.25.5 2 .5 1 .75.75.5-.25v-1.5l-.5-.75-.25-.75v-4.25l-.25-1 .25-1 .75.25.75.5 1.5 1.25 1.75.5 1.75.5.5 1.25v1.5l-.25 1.25.25 1.5-.25 1-.25 1-.25 1-.25.5-.5.25-1 .75-1 .5-1 .5-1 .25-2.25.25-1-.25-1.25-.25-1-1-1-1.25-1-1.25-.5-1.25-1-2.75-.75-3 .75-.25.75-.5 1-1.25 1.75-2.5zm132.25-.75-1.25 2.25-1.75 1.75v-.75l.25-.25-.25-.5.75-.5.75-.75.75-.75zm-71 4 .25.5.5.5.5.5.25.75.5 2.25v2.5l-.5 2.25-.5 1.25-.5 1-.75 1-1 .75-1.25.5-1 .5-1.25.25-1.25.25-2.75-.25-1-.5-1.25-.5-1-.75-1-.75-1-1-.75-1.25-.5-1.25-.5-1.25 1.5-.5 1.5-.25 1.5-.5.75-.5.5-.5 3.25 1.5 1.75.75 2 .5.25-.25.25-.25.75-.5-.5-.25-.25-.25h-.5l-.25-.5-2.75-1.75-1.25-1-1-1.25h.25v-.75l.25-.25.5-.75.25-3.5 1.5 1.25 1.75 1 1.75.75zm10.25-1.25-.25.25-2.5-.5.25-.5h1zm19.5 2 .75.75.5 1.25.25 1.25v1.25l-1 1.75-1 1.5-1.25 1.5-1.75 1-1.5.5-.75.25h-.75l-1-2.5-.75-1.25-.75-1-.5-.75-.75-.5-1-.5-.75-.25v-1.25h.5l1 .25 1 .5 1 .25h1l2.25.75 1.25.25h1l.25-.25v-.25l-5-2.25 2.75-1.75 1.5-1 1.25-1.5 1.5.75.5.5.25.25z"/><path d="m228 420-.5.75-1 .25v-.5l.25-.25 1-.5v.25zm15.5.5-1.25 1.25-1.5 1.25-1.75 1-2 .5.25-.5.25-.25.5-1h1.5l1.5-.75 1.25-.75zm-127 1.5.5 1.5.5 1.5 1.5 3-2.5-1.75-1-1-.75-1.25-1.25-1.5-1.25-1.25zm44 4.25 1.5.75 1.5.5 3.5 1-.25 3.75-.25 1.75-.75 1.75-.75 1.5-.75 1.5-1.25 1.25-1.75.75-3.25 1h-2.5l-1-.25h-1l-.75-.5-.75-.25-.75-.75-1.25-1.25-.75-1.75-.5-.5v-.75l-.25-1v-1.25l-.25-1v-.5l.25-.25.75-.5 1.25-.25 1-.75 1-.5 1.25-.25 2.75 5.75.75.75.5 1 .25.5.25.25h.5l.5-.25-.5-1-.5-.75-.25-.75v-1l-.25-1.75-.25-2-.25-.5v-.25l.25-1 .25-.75-.25-.25-.25-.5.5-1.75.25-2 1.25 1.5zm66.25 1.5.5 1 .5 1.25.5 1.25.25 1.25v2.75l-.25 1.25-.5 1.25-.5.75-.5.5-.5.5-.75.25-.5.75-1 .75-.75.25-1 .5-2 .5-2 .5v-.75l-.25-.75v-1l-.5-.75.25-.25-.25-.25-.25-.25v-.25l-1-2.25 1.75-.25 1.75-.75 1.75-1 1.5-1 .25-.5v-.25l-.75-.25-.75.25-1.75.5-2 .25-2.25.25-1 .25h-1l-1-.25-1-.5 1.25-1.25 1.25-.75 1.75-2 .5-1.25.25-1.25 2.5-.75 1.5-.25h2.5l1.25.5 1.25.5zm-91 1.5 1.25 3.25.5 1.5 1 1.25.25.5.25.75.5.5.75.25.25-.25-.25-.25-.25-.5-.25-.25-.25-1.25v-1.5l-.25-1.5-.25-.5v-.75l1.75.75 1.75.5 1.75.25h1l1-.25v.25l.25.25.25-.25v1.25l.25 1.25.25 1.5v1.25l-1.25 1.5-1.75 1.25-1.75 1-1.25.25h-2.75l-1.75-.5-1.75-.5-1.5-1.25-1-1.25-.75-1.25-.75-1.5-.25-1.5-.25-.25v-.75l1-.5.75-.5.75-.75.5-1 .75-2 .5-1.75.5.75v.75l.25 1zm106-.75.25.75v.5l-.5.5-.75.5-1 1.5-1.25 1.25-1.25 1-1.5 1-3 1.5-3 1.5v-1.25l.25-.25v-1h-.25v-.75l.5-.5h.5l1.75-.75 1.5-1 2.75-2.25-.25-.75-.25-.25h-.5l-.5.25-1 .75-.5.25h-.5l-1.5.5h-1.5l-.25-.75-.25-.75v-.75l-.5-.75 2.25-.75 1-.25 1.25-.75 2 .25 2.25.25 2 .25.75.5zm-36.75 2.25.5 2.25.5 2.25-.25 1-.25 1.25-.5 1-.75.75-1 1-1 .5-1.25.75-1.25.25-1.25.25h-2.75l-1-.25-.25-.5.25-.75v-2.75l-.25-1.25-.75-2.75 1.5 1 1.75.25 1.75.25h2l.25-.5-.75-.5-.75-.25-1-.25-1-.5-.5-.5-.75-.25-.75-.25-.75-.75-1.25-.25-1-.75-2-1.5h5.25l2.5-.75 1.25-.5 1-.75h.75l.75.25.75.25.5.5 1 1.25z"/><path d="m155.25 429.5v-.5l-.25-.5v-.5l.25-.5.25.5v.5zm-17.5.25-.25.25v-.75h.25zm55.75 8.75v2.5l-.25 1-.5 1-.5 1-.5 1-.75.75-1 .75-2.25 1-2.25.5-1.75.25-1.5-.25-2.75-1.25v-.5l.25-.25 1-1 .75-.75.75-1 .5-1.75.25-.75-.25-1 3 .25 1.5.25 1.5.5.75-.25 1-.25-.25-.5-.25-.25-1-.25-.75-.25-1-.5-1.5-1-1.25-1-.5-.5-.25-.5.25-.5.5-.25.5-.5.5-.5.5-.25 1.25-1 .25-.5.25-.5v-.5l.25-.5.25-.75v-.5l1 1 1 1 1.5 2.25 1 2.25zm-23-.25-.5-.25v-.5l-.75-.5-.25-.75-.5-1.5-.25-1.75v-1.5l.5 1.75.5 1.75zm61.5-5.75-.75.5-.75.5v-.75h1.25zm-38.5.5h-.25v-.25zm-65 .25 1 2 .25 1 .75 1-1.5-.75-1.5-1-1.25-1.25-1-1.25 1.75.25zm85.75 5.25 1 2.5.5 1.5-.25 1.5-.25 1.5-2 .5-2 .5-2 .25h-1l-.75-.25-.25-.25-.25-.5-.5-.25-.25-.25-1-1-1-.75.5-.25h1.75l1.25.25.5-.25.5-.25.75-.25h.5l.75-.25.25-.25v-.25l-1-.5h-4.5l-1.25-.25 1.5-1.5 1-1.5 1-2 .25-2 2 .5 1.75.75.75.5.75.75.75.75zm5.5-4.25-1 .5-1 .5-2.25.25-.75-.5 2.5-.25z"/><path d="m180.75 436.75.25.25.25.25v.75l-.25 1.75-.25 1.5-1.25 3.25-1.25 1-1.25.75-1.25.75-1.25.25-1.5.5h-4.25l-1.75-.75-1.5-1-.75-.25-.75-.75-.5-.75-.5-1-.25-.25-.5-.5.25-.25v-.25l.75-.5.75-.25.5-.75.5-.25.5-.25.75-1 .5-1 .25-1.25h.5l.25.5.25.5 1 .5.75.5.5.5.25.5 3 2.5h.5l.25-.5-1.25-1.5-.75-1.75-.75-1.75-.25-2 1 .75 1 .75 1.25.5 1.25.25 1.25.25h1.25l1.25-.25zm4.25 1.75h-.5l-.5-.25-1.25-.5-.25-.75v-.75zm-34.25 3.25 1 .75 1.25.5 1.25.5h4l2.5-.75 1 1.25 1 1.25h-1.25l-.5.25-.25.25h-2l-2-.25-4-1-3.75-1.25-3.5-1.75.5-.5 1-.5.5-.5.75-.75.75.5.5.5.5.75zm76.25-.25.75-.5.5-.75.75-.5h1zm-8.5 4.25-.75.25h-.5l-.5-.25.25-.5.25-.25.5-.75 4-.75 2-.5 2-1-1.75 1.25-1.75.75-2 .75zm-16-3.25-.25.25h-.5l.25-.5h.25zm.25 2.25 2.25 1.75 1 1 .75 1-.75-.25h-1l-1.5.25-1.75.25-1 .25-.75-.25-5.25.25h-2.5l-2.75-.25 1.25-.75 1.25-1 1-1.25.75-1.5.25-.5 1 .25h3.5l2.25.25h1zm7 3.75-.75.25-.75.25v-.75zm-22.5 1.25.25-.25 1.5.5zm-91-146.25-1.25 2.75-2 5-1 3-.75 3-.75 3.5-.25 3.25.5-.75.75-2.75 1-3 1-2.75 2-3.5 1-1.75-.25-2.25z"/></g><path d="m183.75 80.75h3.5l1 .5 1 .75.25.25v.75l-.25.25-.25.25h-.75l-2.25-.75-1.25-.25h-1.25l-2.5.25-2.25 1-1 .75-1.25.75h-.25l-.25-.25.25-1 .5-.5.5-.5 2.25-1.5 1.25-.5 1.25-.25zm6.25 7.5.25.5.5.25.25.25-.25.5h-1.25l-1.25-.5-.25.75-.5.5-.75.5-.75.5h-.75l-.75-.25-.75-.25-.5-.5-.25-1.5-1 .5-1 .25-.75.25h-.25l-.5-.25.25-.5.5-.25.25-.25.75-1.25 1-.75 1.25-.75 1.25-.25h1.5l1.25.5 1.5.75.5.5z" fill="#006bb6"/><path d="m188.25 87.75.25.25v.25l-1.25-.5-1.25-.25-1.5-.25-1.5.5-1.25.75 1-1 .5-.5.75-.25h2.25z" fill="#fff200"/><path d="m180.75 100.25v2l-.5.5-.5.25h-.25l-.25-.25v-.25l.5-.25.25-.5.25-.25-.25-1-.25-.5-.25-.25v-.5h.5l.5.25zm-2.5 1.25-.25.25-.25.5h-.75l-.5.25-1 .5-1 .5-1.25-.25-1.5-.5h-.75v-.5l.25-.25h.75l.75.25.5.25h1.5l.75-.25.5-.5.5-.25zm-3.25 5 .25.5h.25l.5-.25.5-.5h.25l.5.25 1 .25 3 .5h.5l.25-.5h.5l.25.5.25.25-.25.5-1 .75-1.25.25h-2.25l-1 .25-.5.25-.25.25-.5.25-.5.25-1-.5-.75-.25h-2.25l-.75-.25-.75-.25v-.75l.5-.75h.25l.25.25v.25h.25l.75-.25.75-.5.75-.75zm-.5 5.5h2l1-.25 1-.25.5-.25.25-.25h.25v.5l-1 .75-1.5.5h-3l-.75-.5-.5-.5.25-.25.25-.25h.25l.25.25.25.5zm-12-21 .25-.25h.5l.75-.25h.5l.25.25.25.5.25.75.5.5.5.25h1.75l.5-.25.75-.75.5-1 .5.25h2v1.75l-.25 1.75-.5 3.5-.25.75v.75l.25.25h.5l.25-.5.25-1.25.5-1.25v-3.25l.5-3.5v-.75l-.25-1-.75-1.5-.75-1-.75-1-1-.75-1.25-.5-1.75-.25-1.75-.25-2 .25-1.5.75-.5.25-.5.5.25.5.25.25.5-.25h.5l.5-.25.5.25h1l1.25-.25h2.25l.75.5 1 .5.75.25.5.75 1 1.25.25.75.25.75-.75-.5-.5-.75-.5-.5-.5-.5-.25-.25-2.25-.5h-1l-1 .25-1.25.5-1 .5-.75 1-.5 1z" fill="#006bb6"/><g fill="#fff200"><path d="m167 87.75 2 .5.75.25.75 1 .25.5h-.25l-1.25-.5-.5-.25-.75-.25-1.25-.25h-1l-1.25.25-1 .5v-.25l.25-.5.75-.25.75-.5.5-.25zm-67.5-78.25.25.75v1l-.25 1-.5.75-18.5 21.25-.25-.75-.25-.5-.25-.25-1.25.5-1.25.75v-.25l2.75-4.5 2.5-4.5 2.75-4.5 2.75-4.5.5-.5.25-.75.25-.5.5-.75 1-1.75 1.25-1.75.75-.75 1-.5 1-.5h3.25l1 .5.5.5zm-8.75.5-3.5 6-3.5 6-3.5 6-3.5 6-.25.25-.25.25h-.5l-.25.25.25-1.25.75-1.25 1-2.25 1.75-4.5 2.25-4 2-4.25 1.75-4.5 1.25-1 1.25-1 1.5-.5zm9.5 5.5-.5 1.5-.75 1.25-1 1.25-1 1-2.25 2.25-2.25 2.25-6.75 6.75-6.5 7-.25-.5v-.5l.25-.5-.25-.5 5-6 5.25-5.75 10.25-11.5.5.25.25.5zm-16.5-.75-4.75 10.5-4.25 10.25-.5.5-.5.25-1 .5 1.5-3.75 1.25-3.5 1.25-3.5 1.5-3.75.75-2.25 1-2.25.5-1 .75-.75 1-.75 1.25-.5zm14.75 6.5-.25 1.25-.75 1.5-5 4.5-4.75 4.25-9.5 9v-1.5l5-5 4.75-5.25 5-5 5.25-5zm-20.25-1v.5l-.25.75-.75 1.25-2.75 7.75-2.5 7.5-1.25.25-.75.5-.25-.25 2.25-7.5 2-7.75 1-1 1-1 1-.75zm16.75 7v1.25l-.25 1-1.5 2-7.25 6.25-3.5 3-3.5 3-.75-.75v-.75l4.25-3.75 4-3.75 4-3.75 4.25-3.75z"/><path d="m79 33.75v.75l-.25 1-.25.75-.5.75v.25l.25.25-.25 1.5-.25.75-.5.75.25.5v.5l-.25.75v.5l-.5.75.25.25.25.25v.75l-.25 1.5-.25.25-.25.25-.25.25v.25l.5.25.5-.25.25.75-.25 1-.5.75-.75.75-.5.25-.25.25-1-.25-1.25-.25-1-.25-.75-.5-1-.5-2-.75v.25h-.25l-.5-.25h-2.5l-1 .25-1.25-.25-.75.25-.75.25.25.25.25-.25h.25l2.25.25 1-.25h2.75l.75.5h1l.75.5.5.25-.25.25h-1.25l-.25.25.5.5h3l1.5.25 1.5.25.25.5.5.25h-2l-.75.25.5.5h.5l3.5-.25 1.75.25 1.75.5v.25h-1.5l-1.25.25-1.25.25h-1.5v.5l1.25-.25 1 .25h1l1.25-.25 1.25-.25 1.75-.25h1.5l1.5.25-.25.25-1.5.5-1.75.25-2 .25-1.75.25 1.25.5h1l2.5-.5 2.5-.75h1.25l1.5-.25 1.25.25 1.25.25v.25h-.75l-1.75.5-1.75.5-1.75.25-1.75.25v.5h2l1.75-.25 3-1 1.75-.25 1.5-.25 1.75.25 1.75.25v.5l-4.5 1.25-4.75.75-4.75.5h-5l-5.75.25-5.75-.25h-2l-5-.5v-1.25l-.25-.75.25-.75 1.5.25h.5l.5-.5h-.25l-.25-.25h-.75l-.75-.25v-.75h1l.5.25.25-.25.25-.25-.75-.25h-.75l-.5-.25-.25-.25v-.25l.5-.5.5-.25 1.25.25v-.25l-.25-.25-.5-.25h-1v-.5l.25-.25.25-.25h.75v-.5h-.5l-.5-.25-.75-.75-.5-1.25-.5-.25-.5-.25-.25.25.75.5.5.5.25 1 .25.75v1.25l-.5-.25-.5-.5-.25-.5h-.5l.75 1 .5 1.25v1.5l-.25 1.25-.25-.25-.5-.25-.25-.25-.25-.5v-.25h-.25v.75l.5.5.5.75.25.75v.5l.25.5v.5l-.75.25h-2l-.75-.25-.75-.5.5-1 .25-1 .25-2.25.25-1.5.25-1.5v-1.5l-.25-1.25-.5-1-.5-.75-.75-.75h-1l.25.25.25.5 1 .5.25.5.25.5.5 1.25v1.5l-.5-.75-.75-.5-.75-.75-.75-.25-.25.25.5.5.75.5.5.25.5.75.5 1.5v1.5l-.75-1-.75-.75-.75-.5-.75-.5-.25.25 1.25 1 1 1.25.5.5.25.75v1l-.25.75-.25.5v.25h-.25l-.25-.75-.5-1-.5-.5-.75-.5-.5-.5h-.25l-.25.25 1 1 1 1 .5 1 .25.5-.25.75-2.25-.25-2.25-.5-2.25-.5-2-1-.75-1-.25-.5v-.75l-.25-.25.25-.5.25-.25v-1l1-1 1.25-.75 2.5-1.75 1-1 .75-1 .5-1.5-.25-.75-.25-.75v-.5l.25-.25h.25l.5-.25 1.5-.5 1.75-.5h3.75l3.75-.25h1.75l1.75-.25 1-.75 1-.5 1-.5 1.25-.25.25-.5.5-.5 1-.5h.25l.5-.25.25-.25.25-.75.5-.5 1-.25 1-.25 1-1 .5-.25z"/><path d="m40.5 40.75 1.5.75h2.75l.75-.25.75-.25.75-.75v.75l-.25.75-.75 1h.5l.75-.25 1-1 .25-.25h.25l.25.5-.25.5-.5.75-.5.5h.75l1-1 .5-1.25.5 1.5.25 1.5-.25 1.5-.5 1-1.5 1.25-2 1.25-1.75 1.5-.75.75-.5 1-.25.5v.75l.25 1.25.75 1 1 1 1.25.75 1.5.5 2.75.75 3 .5 5 .5 5.25.25 10.75.25 3.75-.25h3.5l-.75.75-.75.5-1.5.75-1.75.25-1.75.25-.25.25.25.25v.25l-.25.5-.5.5-.25.5-.25.75 1.5.25 1.75 1 1.25 1 1 1.25-1.25-1-.75-.5h-.75l1 2.5-1.25-1-1.5-1-1.5-.5h-.75l-.75.25-1.5.25-1.5.75-1 .75-1.25 1v-.75l.25-.75 1-1 .5-.5.5-.25.25-.25v-.25l-1.5.5-1.5.75-1 1-1.25 1 .25-.75.75-.75.75-.75 2-1 2-.75 2.25-.25.75-.75.5-.75.5-.75 1-.75-.25-.5-6.5 1-3 .25h-3l-.5.25h-4l-4-.25-2-.25-1.75-.25-2-.5-1.75-.75-.5-.5-.5-.25-.75-1-.75-1.25-.5-.25-.5-.5h-1l-1-.25-1.75-1-1.25-1.5-1.25-1.75-.25.25v.5l-.25.5-.25.25-.25-1-.25-.75-.5-1.5h-.25l-.25.25v1.25l-.25.25-.25.25-1-3.5-.25.25-.25.25.25.25v.5l-.25.5h-.25l-.25-.75v-1l-.25-.75-.25-.75-.25.25-.25.25.25.25v.5l-.25.75-.25.25-.25-.5-.5-.5-1-1-.75-1v-1.25h.25l.25-.5-.5.25-.25.25v.25l-.25.25-5-1.5-5.25-1 2-.5h6.25l2 .25 1 .25 1.25.25v.5h.5l.25-.25v-.75l-.5-.5-.5-.5-.5-1.25-.25-1-.75-1.25v-1l-.25-.5-.25-.25-.25.75.25 1 .25.75.25.75.75 1.5-.5.25-.5-.25-1-.5-1-.5-1.25-.5-5-.5-2.5-.25-2.75.25.5-.75.5-.5 1.5-.75 3.75-1h2l2 .25h.75l.75-.25 1.25-.75 1.25-.75.5-.5h.75l1.75-.5h1.5l1.5.5 1.25.5 1.25.75 1.25 1z"/><path d="m25.5 39.25.25 1 .5 1 .5.75.75.75v.25l-1-.75-.75-1-.5-1-.5-1.25h.25z"/></g><path d="m33 40 .25.75v.75l-.5.5-.75.5-.75.25-.75-.25h-.5l-.25-.5-.25-.75v-.5l.25-.5 1-.75h1.75z" fill="#006bb6"/><g fill="#fff200"><path d="m31.25 40-.25.25.25.25v.5l-.5.25v.75l-.5-.75-.25-.5.25-.25.5-.5zm-8.25 2.5 1.5.5 1.25.25h-1l-1.25.25-2.25.5-1.25.25-1-.25-.75-.75-.5-1.25 1.25.5 1.25.25zm3.5.75h-.75zm52 1.5v.75l-.25.25.25.5.5-.25.25.25-.5 3.75-.25.5-.25.5-.75.75h-.75l-.75-.25.25-.5.5-.75.5-.5.5-.5.25-1.5v-1l-.25-.25-.25-.25.25-.75v-2h.5l.25.5zm-49.75.75v.5h-.75l-.25.25h-.25l.5-.25.25-.25.25-.25z"/><path d="m81.75 45.5-.25.5v.25h1l.5-.25 1-.25h.5l.5.25-.75.75h.25l.5.25 1-.25 1.25-.25 1 .25h.5l-.25.5h-.75l-.5.25-.25.25v.25h1.5l.5-.25 3.25-.25 1.75.25 1.5.25-15.5 4.25-1-.25-1-.25.25-.5.75-.5.5-1 .25-1.25.25-1.25-.25-1.25.75-.5zm-19 12.25h-2.25l-.25-.25.25-.25h1.25l.75.25zm7.75 6-.25.5-.25.5 1 .25-.25.5h-2l-1.75.25-1.5.5-1.5.75-1.5 1-.75.5-.5.75v-.5l.25-.5.25-.5.25-.5.5-.5.25-.5h-.75l-.75.25-1.25.75-2.25 1.5v-.5l1-1 1-.75 1.25-.75 1.25-.25 2.75-.5 2.75-.25 1.25-.75.75-.25zm96.75 27 .25-.5.75-.5.5.5.25.5-.25.75-.5.25-.75-.25zm17.75-1.25.25-.75.5-.25.75.25.25.75-.25.5-.75.25-.5-.25z"/><path d="m233.25 126.25 2.25.25 3 .75 3.5 1.25 4 1.75 4.25 2 4.5 2 2.5.75 2.25.5h4.25l3.25-.5 2.5-.75 4-1.25 4-1.5 2.75-.75 3.25-1 2.75-.5 2.5-.25 2.5-.25h4.5l2 .25 1.75.5 1.5.5 1.75.75h.5l-2.25-1.25-2.25-.75-2.5-1-3-1-2.75-.5-2.75-.25h-2.75l-2.5.25-2.75.25-4.5 1-3.25 1-3.25 1-1.5.25-1.5.25-1.75-.25-2-.5-2.5-1-3-1.5-2-.75-2.25-1-5-1.25-2.5-.5-2.5-.25h-4.25l-2.25.75-1.5.75-2 1.25-1 .5z" stroke="#006bb6" stroke-miterlimit="2.6131" stroke-width=".2001"/><path d="m254.75 84.5h2.25l2-.25 4-1 4-1.5 3.75-1.75 7.25-3.75 3.5-2 3.75-1.5 4.75-1.25 5-.75 5-.25 5 .25 5 .75 4.75 1.25 4.5 1.5 4.25 2 6.25 3.25 2.75 1.25 3 1.25 3 1 3.25 1 3.25.75 3.25.5 3.25.5 3.5.25h3.25l3.25-.25 3.25-.5 3.25-.5 3-1 3-1.25 3-1.5 2.5-1.75-2 2.5-2.5 2.25-2.5 1.75-2.75 1.5-3 1.5-3 1-3.25.75-3.25.75-3.25.25-3.25.25-3.5-.25-3.25-.25-3.25-.25-3.25-.75-3.25-.75-3-.75-4.75-1.75-4.75-2-9.25-4.25-2.5-.75-2.5-.5-2.75-.25h-2.5l-2.75.25-2.75.25-2.5.5-2.5.5-2.25.75-1 .5-1 .5.5.25 1.5-.25 4.75.25 5 .5 3.5 1 3.5 1.25 3.25 1.75 1.5 1 1.5 1.25-.25.25-5-.5-5.25-.25-5.25.25-5 .75-5 1-4.75 1.5-4.75 2-4.25 2.25v.5l.5.25 1.75-.75 1.75-.75 3.75-1 3.25-.25 4.25-.75h4l4.25.25 4 .25 4 .75 4 1 4 1 3.75 1.25 3.75.75 4 .75 3.75.25h4l4-.25 4-.25 3.75-.75 4-1-2 1.25-2 1.25-4.25 2-4.5 1.5-4.75 1-4.75.5-5 .25-4.75-.25-4.75-.75-4.25-1-4.25-.75-4.5-.25-4.5-.25-4.5.25-4.25.75-4.25 1.25-4 1.5-.5.25-.25.25v.5h.25l.25.25 5.5-.75h5.5l5.5.25 5.25.75 5.5 1 5.25 1.25 5.25 1.25 5 1.5 3.25.75 3.5.25 3.5.25 3.5-.25 3.5-.25 3.25-.5 3.25-1 3-1 4.5-1 4.5-.5 4.75-.25 4.75.25 4.75.5 4.5 1 4.25 1.25 4.25 1.75-6.75-.25h-3.25l-3.25.25-3.25.25-3.25.75-3 .75-3 1-5.25 2-5.25 1.75-5.25 1.25-5.5 1-5.75.75h-5.5l-5.75-.5-2.75-.5-2.75-.5-4.5-1-4.75-.5-4.5-.5h-9.25l-4.75.5-4.5.5-4.25 1-3.5.25-3.75.25-2.25-.25-2-.5-2-.75-2-1-3-1-3-1-1.5-.25h-3.25l-2 .25-2 .5-2.25.75-3.75 2-4 2.25-2 1-2 1-1 .5-2.5 1-2.5 1-5.25 1.5-6.25 1.25-3 .25h-1.75l-1.75-.25-2-.75-1.5-1-1.5-1.25-1-1.75-.25-1.5-.25-1.5-.25-1.5-.25-1.5-.5-1-1-1.25-1.25-1.75-1.5-1.5-1-1.5-.75-2.25-.75-2.75-.5-2.75v-1l.25-1.25.25-1 .25-.75.5-1.25 2-1.75.75-.75.5-1 1-1.5.75-1.5.25-1.75.25-2-.5-1.75-1.5-3-1.75-2-.75-1.75-.5-1.5-.5-3-.5-1.25-.5-1.25-.75-1-1.25-1-3.75-1.25-1.75-.5-2-.75-1.75-1-1.5-1-1.25-1.5-.5-1-.5-1-.25-1.25v-1.25l.25-2.75 3.25-1.25 3.25-1 3.5-.75 3.5-.5 4.5.5 2 .5 2.25.75 1.75 1.25 1.75 1.25 1.75 1.25 1.5 1.75 1.25 1.5 1.25 2 3.25 3.75.75.75 3.25 3 3.5 2.5 1.75 1 2 .75 1.75.75 2 .25h4.5l2.5-.25 1.25-.5 1-.5 2 1.75 2 1.25 4 2.75 2.25.5 2.5.5z"/></g></g><path d="m198 117.25 1.5 1.25 2.25 1.75 2.75 1.5 1.5.75 1.25.25 3.5.5 2 .25h4.75l2.25-.5 2.5-.5 2.5-1 2.25-1.25 2.5-1.25 5.25-3.5 2.75-1.5 2.75-1.5 2.5-1 2.25-.5h5.75l1.75.5 1.75.5 2 1 2.25 1.25 2.5 1.5 2.5 1.5 2.5 1 2.25.5h2l1.75-.25 1.75-.25 2-.75 6.75-1.5 4.5-1 3.5-.5h2.5l2.25.5 3.25.75-.5-.5-2-1.75-2.5-1.5-1.5-.75-1.5-.25-1.75-.25-2.25.25-4.75.5-4.75.75-3.5.5h-3l-1.5-.25-1.5-.5-2-.75-2.25-1-7.25-3.75-2-1-2.25-.5-2.25-.5h-2.5l-2.25.25-2.25.25-1.75.25-1.5.5-5.5 2.75-3.5 1.75-4 2.25-1 .5-1.5.5-2 .5-2 .25h-5l-2.5-.5-2.5-1" fill="none" stroke="#006bb6" stroke-miterlimit="2.6131" stroke-width=".2001"/></g></svg>