<svg height="625" viewBox="0 0 132.29166 165.36459" width="500" xmlns="http://www.w3.org/2000/svg"><path d="m132.15962.1320495v111.1266505c0 30.81535-40.023557 42.96146-66.013796 53.9625-25.990227-11.00104-66.0137745-23.14715-66.0137745-53.9625v-111.1266505z" fill="#ec2838"/><path d="m66.145833 72.844014h-66.0137835v38.414686c0 30.81535 40.0235585 42.96146 66.0137835 53.9625z" fill="#0072cf"/><path d="m66.145833.1320495v72.7119645h66.013787v-72.7119645z" fill="#998a65"/><path d="m52.966399.13206074v59.52817126h-52.83414307v26.367597h52.83414307v73.810231c4.596036 1.86536 9.071169 3.64421 13.179434 5.38314 4.108265-1.73893 8.583395-3.51778 13.179434-5.38314v-73.810231h52.834163v-26.367597h-52.834163v-59.52817126z" fill="#fff"/><path d="m132.15962.1320495v111.1266505c0 30.81535-40.023557 42.96146-66.013796 53.9625-25.990227-11.00104-66.0137745-23.14715-66.0137745-53.9625v-111.1266505z" fill="none" stroke="#1a1a1a" stroke-miterlimit="10" stroke-width=".264099"/></svg>