<svg height="660.23016" width="600.62537" xmlns="http://www.w3.org/2000/svg"><g fill-rule="evenodd" transform="translate(1244.2013 -587.2159)"><path d="m-1242.8805 588.2159 297.3584.06785.92398 315.22972-295.43648-.45058-1.1827-19.98382z" fill="#e20909" stroke="#000" stroke-width="2"/><path d="m-645.98701 588.54326-299.34252-.32736.66332 314.87599 296.05146-1.49624 1.16296-18.27109c5.06099-41.9743 2.02119-87.56743 1.44838-131.35121z" fill="#e20909" stroke="#000" stroke-width="1.999999"/><g fill="#2b5df2" stroke="#2b5df2" stroke-width="2"><path d="m-1239.33 904.88402 294.72076.26651.06208 340.80867c-69.80224-26.8286-128.80284-67.5795-182.52264-124.0645-50.239-52.8251-100.3899-121.8158-112.2602-217.01068z"/><path d="m-648.864 903.5651-295.23809 1.42815-.19841 339.84165c67.25329-28.8825 130.5419-67.9697 186.24403-123.4057 51.85878-51.6111 97.23164-122.67025 109.19247-217.8641z"/></g></g><g stroke="#000" transform="translate(1244.2013 -587.2159)"><path d="m-944.20131 1245.7162c1.34492 6.4291-309.19859-121.9112-297.09399-396.9284 0-285.45162-1.406-259.3954-1.406-259.3954h596.99999v258.55178c3.17486 290.74302-298.21984 398.23892-298.5 397.77202z" fill="none" stroke-width="3"/><g fill="#eac102" transform="matrix(1.5014711 -1.0262039 .6985955 1.523363 -1572.2973 251.46408)"><g stroke-width=".472666"><path d="m230.94027 555.20901c20.7689-21.30224 32.38309-40.15084 33.95465-76.93835 30.23628-9.5552 40.98354 8.06116 46.47386 33.00678-25.63328 20.10966-31.82232 42.57394-36.92304 73.50447-19.99766-.47904-33.28032-9.80195-43.50547-29.5729z"/><path d="m294.57953 479.66968c-.40704-.26668-.82434-.51946-1.24899-.76159-13.82857 33.60497-30.06688 65.24146-45.41147 97.53552.53299.3911 1.07299.7669 1.62018 1.12977 15.09476-32.71118 31.35735-63.28967 45.12316-97.84484-.02801-.01852-.05479-.04046-.08288-.05886z"/><path d="m298.14735 482.5173c-17.30217 27.40205-32.57869 56.59361-49.19557 94.65977.47929.32986.96313.65139 1.45371.95926 17.02122-37.13999 32.07139-66.50703 48.95444-94.38143-.39312-.42529-.79822-.84192-1.21258-1.2376z"/><path d="m319.29488 455.89553c-5.66962 2.31178-7.56183.98291-9.1907 9.40754 5.34399-.59556 6.47705-3.31366 9.1907-9.40754z"/><path d="m310.0915 453.80006c.92277 4.46464 3.55086 8.22257-2.23097 14.67031-2.12705-7.16818-1.38072-7.24608 2.23097-14.67031z"/><path d="m305.64485 461.36815c1.77927 4.68934 4.28162 7.11165-.98307 12.58783-.8532-5.6318-2.14741-6.06766.98307-12.58783z"/><path d="m302.82255 465.09862c.95166 4.41037 3.59248 8.14437-2.10316 14.43018-2.16939-7.08863-1.42833-7.15663 2.10316-14.43018z"/><path d="m298.58749 470.43558c1.35746 4.62094 4.52588 8.72862-1.29864 14.5636-2.41488-7.8406.37946-7.41152 1.29864-14.5636z"/><path d="m295.13547 476.39685c1.24543 4.41442 4.44393 8.66657-1.14067 14.34778-1.70939-6.37718-1.8781-7.30707 1.14067-14.34778z"/><path d="m318.53372 464.03068c-2.66876.6101-6.77268-2.38097-10.6058 5.35164 6.83723-.12406 6.46143.5199 10.6058-5.35164z"/><path d="m315.65797 469.43344c-2.72311.39598-7.10608-2.83928-10.67616 4.4373 7.04806.39336 6.69237.99508 10.67616-4.4373z"/><path d="m312.64745 474.04138c-2.85817.4916-7.39297-2.84264-11.25453 5.00063 7.37362.23847 6.99098.88861 11.25453-5.00063z"/><path d="m309.06874 480.76476c-2.55386-.47657-6.59114-5.66295-11.22742 4.1648 4.85139 1.47059 5.95213-1.71739 11.22742-4.1648z"/><path d="m303.92388 485.19104c-3.62967-.48401-5.14789-1.89072-9.37509 5.65681 5.88249-.61498 5.52826-.0004 9.37509-5.65681z"/><path d="m304.97791 492.0318c-19.44753 20.85726-32.40522 44.28981-51.66861 87.7591.63626.32958 1.28088.64983 1.93582.94618 19.45526-42.87052 31.76895-65.54629 50.6318-86.85391-.28958-.6317-.59101-1.24536-.89901-1.85137z"/><path d="m330.34371 471.71415c-5.93933.77871-7.55912-1.01396-10.60454 6.79339 5.32498.81338 6.90123-1.54693 10.60454-6.79339z"/><path d="m321.71161 467.26334c.13138 4.60385 2.05115 8.96236-4.71148 13.75349-.84173-7.56023-.09895-7.44148 4.71148-13.75349z"/><path d="m316.06042 473.49791c.92958 5.04708 2.95694 8.06758-3.13269 12.04431.13801-5.72624-1.0515-6.49011 3.13269-12.04431z"/><path d="m312.65874 476.40644c.16897 4.55837 2.10532 8.89683-4.54515 13.55223-.89682-7.49356-.16091-7.36651 4.54515-13.55223z"/><path d="m307.5993 480.51599c.52918 4.87009 2.91664 9.71147-3.78198 13.89265-1.00697-8.29248 1.64965-7.14356 3.78198-13.89265z"/><path d="m303.19732 485.44006c.45535 4.63903 2.84726 9.62945-3.59037 13.72301-.57006-6.67821-.57448-7.63097 3.59037-13.72301z"/><path d="m328.19618 479.46518c-2.71322-.10064-6.20752-4.09512-11.28755 2.46041 6.70284 1.66405 6.22449 2.19521 11.28755-2.46041z"/><path d="m324.45371 483.99394c-2.72938-.32407-6.45424-4.63004-11.19853 1.54854 6.81958 2.22472 6.36817 2.71986 11.19853-1.54854z"/><path d="m320.7167 487.71081c-2.87787-.26589-6.73401-4.70824-11.86093 1.94801 7.16445 2.15837 6.67835 2.69378 11.86093-1.94801z"/><path d="m316.05942 493.34655c-2.41343-1.13255-5.4638-7.25492-11.69022 1.13831 4.4871 2.70382 6.11284-.12409 11.69022-1.13831z"/><path d="m310.26805 496.32861c-3.46345-1.42074-4.70435-3.19181-10.13754 3.07998 5.85456.935 5.40235 1.44309 10.13754-3.07998z"/><path d="m309.15921 502.71782c-20.58598 17.01501-32.65582 37.1581-46.54515 80.55525.83114.20613 1.67635.39236 2.53527.55637 13.0557-41.5604 24.93162-61.7711 44.60868-79.05523-.19358-.69437-.39343-1.37846-.5988-2.05639z"/><path d="m338.33407 485.4405c-5.97127-.17459-7.38858-2.21033-11.23072 5.04575 5.19441 1.65533 7.00599-.43383 11.23072-5.04575z"/><path d="m330.24359 479.65125c-.35469 4.58598 1.08979 9.21376-6.12051 12.88653-.03826-7.63067.68574-7.39452 6.12051-12.88653z"/><path d="m323.98331 484.93246c.3901 5.1527 2.08221 8.4709-4.37498 11.44341.74002-5.65597-.359-6.603 4.37498-11.44341z"/><path d="m320.30394 487.27424c-.31262 4.54687 1.1504 9.1574-5.93438 12.71346-.09991-7.57333.61641-7.33005 5.93438-12.71346z"/><path d="m314.85426 490.54266c.01173 4.91338 1.86908 10.09451-5.2135 13.17267-.12497-8.38308 2.38823-6.82037 5.2135-13.17267z"/><path d="m309.97071 494.72354c-.03715 4.6725 1.80893 10.00212-5.00563 13.035.13821-6.71277.23418-7.6582 5.00563-13.035z"/><path d="m335.38818 492.78387c-2.67974-.53228-5.72382-5.05009-11.45156.64042 6.47105 2.71845 5.94078 3.16889 11.45156-.64042z"/><path d="m331.20023 496.67789c-2.67224-.7564-5.91212-5.61981-11.26725-.24956 6.52775 3.293 6.02799 3.71201 11.26725.24956z"/><path d="m327.1032 499.76774c-2.8256-.72238-6.18129-5.74195-11.96613.04095 6.87669 3.28219 6.33829 3.7356 11.96613-.04095z"/><path d="m321.89153 504.6136c-2.27378-1.50771-4.65353-8.06469-11.71156-.73471 4.16446 3.39627 6.07437.85134 11.71156.73471z"/><path d="m315.83487 506.64736c-3.28459-1.96083-4.32848-3.91477-10.37651 1.43809 5.70672 1.86034 5.2048 2.29206 10.37651-1.43809z"/><path d="m289.02802 476.99202c-.50222-.16635-1.01801-.3096-1.54138-.44647-10.66753 31.90238-22.59801 63.31648-39.99369 99.57451.398.29988.7979.59203 1.20384.87591 18.39236-36.5485 30.14328-67.86176 40.33123-100.00395z"/><path d="m297.30261 440.27612c1.20731 7.19593 3.08894 8.54733-2.0276 14.49493-2.25272-5.99091-.9057-8.55705 2.0276-14.49493z"/><path d="m303.37952 449.03306c-3.60452 1.24926-7.56416.32843-9.21248 9.71189 6.10996-1.31807 5.79163-2.15211 9.21248-9.71189z"/><path d="m300.27488 457.55427c-4.19096.44916-7.14745-1.00552-8.37036 7.34122 4.39141-1.90696 5.34537-.74613 8.37036-7.34122z"/><path d="m299.05976 462.4262c-3.58075 1.19136-7.52991.24499-9.10733 9.45567 6.07513-1.2332 5.75246-2.05668 9.10733-9.45567z"/><path d="m297.42005 469.60644c-3.9319.86433-8.40793-.45727-9.60352 8.66528 6.72726-1.34764 5.02802-4.11 9.60352-8.66528z"/><path d="m294.9493 476.26463c-3.73049.88041-8.32327-.40098-9.53057 8.38908 5.34426-1.36752 6.08327-1.65273 9.53057-8.38908z"/><path d="m291.95601 445.15459c.90486 3.14817 5.06255 6.02468 1.53532 13.97454-3.33128-7.34596-3.59673-6.62363-1.53532-13.97454z"/><path d="m289.59032 450.91961c1.08278 3.099 5.5519 6.1507 2.2142 13.59232-3.80096-7.31185-4.04673-6.63206-2.2142-13.59232z"/><path d="m287.85157 456.43078c1.08299 3.29071 5.69771 6.45466 2.1068 14.49015-3.8547-7.73613-4.12108-7.00342-2.1068-14.49015z"/><path d="m284.90763 463.605c1.61244 2.48243 7.28232 4.19028 2.68168 14.04335-3.461-4.43306-1.76702-7.1997-2.68168-14.04335z"/><path d="m284.36394 471.29913c2.15559 3.62481 3.90502 4.53887.70513 12.81601-2.5083-6.57431-2.76385-5.88964-.70513-12.81601z"/><path d="m278.91664 475.64502c-.58348.01815-1.17863.05699-1.78259.10368-5.08278 30.30515-13.5872 55.7536-33.58962 97.01287.48308.46104.97233.91205 1.46783 1.34571 20.58479-41.4965 29.35551-67.75843 33.90438-98.46226z"/><path d="m280.64181 436.41475c2.42145 6.71672 4.49339 7.546.51969 14.69406-3.23511-5.26619-2.36157-8.12557-.51969-14.69406z"/><path d="m288.09125 443.3854c-3.30682 2.16197-7.33512 2.29603-7.32678 11.89606 5.74331-2.8834 5.28832-3.61533 7.32678-11.89606z"/><path d="m286.52768 452.5231c-4.01795 1.53323-7.15808.88365-6.9129 9.35952 3.9623-3.01015 5.09482-2.12486 6.9129-9.35952z"/><path d="m286.1809 457.60129c-3.29359 2.09918-7.31606 2.20555-7.26824 11.61822 5.72391-2.79137 5.26651-3.51183 7.26824-11.61822z"/><path d="m285.81749 465.04606c-3.69316 1.87129-8.29524 1.74855-7.8895 10.9754 6.34143-3.07348 4.20427-5.32921 7.8895-10.9754z"/><path d="m284.55191 472.19767c-3.49357 1.83442-8.2028 1.78144-7.86587 10.68645 4.98652-2.7318 5.65947-3.20347 7.86587-10.68645z"/><path d="m276.25882 442.5781c1.42746 2.84017 5.98674 4.56552 3.91163 13.25522-4.52291-6.30874-4.65768-5.53356-3.91163-13.25522z"/><path d="m274.94178 448.82946c1.59284 2.74566 6.4867 4.56089 4.50909 12.70445-4.976-6.15277-5.09887-5.4243-4.50909-12.70445z"/><path d="m274.1936 454.66905c1.62612 2.93295 6.68163 4.81986 4.55906 13.60987-5.10173-6.55336-5.23561-5.76779-4.55906-13.60987z"/><path d="m272.55465 462.44849c2.00404 2.00483 7.8394 2.19331 5.04374 13.02314-4.14705-3.42835-2.96906-6.57426-5.04374-13.02314z"/><path d="m273.35096 470.10926c2.73193 2.97937 4.59922 3.4158 2.90045 12.33986-3.58553-5.76957-3.71712-5.03377-2.90045-12.33986z"/><path d="m269.24816 477.04879c-.52654.12837-1.05694.26698-1.59654.41355-2.34861 29.71468-10.42756 51.09263-30.94448 87.13921l.2701.54733c.36384.50505.73341 1.00049 1.10486 1.48523 21.16234-36.33366 29.25962-58.24674 31.16606-89.58532z"/><path d="m266.98321 434.76552c3.10856 6.27411 5.25038 6.76613 2.06314 14.48734-3.76256-4.70611-3.19758-7.68063-2.06314-14.48734z"/><path d="m275.10412 440.48996c-3.05121 2.67085-7.03143 3.44589-6.01192 12.96365 5.39115-3.77458 4.8629-4.4278 6.01192-12.96365z"/><path d="m274.51626 449.79985c-3.82257 2.16076-7.00465 2.01721-5.86872 10.38253 3.61182-3.61636 4.82805-2.91906 5.86872-10.38253z"/><path d="m274.70733 454.8905c-3.04471 2.60648-7.02206 3.35314-5.98315 12.67883 5.38162-3.68023 4.85219-4.32171 5.98315-12.67883z"/><path d="m275.13119 462.33044c-3.46491 2.4442-8.04112 3.05607-6.66687 12.14046 5.96421-4.05841 3.60746-5.95445 6.66687-12.14046z"/><path d="m274.6296 469.62349c-3.27088 2.37583-7.94599 3.07395-6.67388 11.85017 4.65672-3.50362 5.27432-4.07858 6.67388-11.85017z"/><path d="m263.2864 441.57556c1.7146 2.58869 6.41719 3.57274 5.27492 12.51995-5.14933-5.5346-5.2013-4.74447-5.27492-12.51995z"/><path d="m262.63897 447.98415c1.86863 2.46862 6.91243 3.48846 5.80932 11.87859-5.58216-5.30772-5.62727-4.56581-5.80932-11.87859z"/><path d="m262.51221 453.89377c1.92136 2.64902 7.13301 3.71416 5.95424 12.7684-5.74902-5.68488-5.79902-4.88459-5.95424-12.7684z"/><path d="m261.70655 461.86887c2.19832 1.66849 8.00434.92522 6.37302 12.10937-4.47322-2.7384-3.63654-6.04557-6.37302-12.10937z"/><path d="m263.3031 469.33812c3.02273 2.51877 4.92026 2.65388 4.17584 11.77349-4.16305-5.14939-4.21602-4.39882-4.17584-11.77349z"/><path d="m304.57976 444.51718c.87725 7.26791 2.6943 8.74702-2.68542 14.33219-1.97597-6.13694-.51404-8.60608 2.68542-14.33219z"/><path d="m310.24776 453.67968c-3.65581.99856-7.56722-.19407-9.64086 9.06086 6.16045-.89435 5.88065-1.74905 9.64086-9.06086z"/><path d="m306.75942 461.97324c-4.20484.15924-7.09034-1.49718-8.69196 6.75203 4.47146-1.60091 5.37098-.37608 8.69196-6.75203z"/><path d="m305.32404 466.75364c-3.62944.94238-7.52923-.27502-9.5242 8.8123 6.1218-.81202 5.8372-1.65647 9.5242-8.8123z"/><path d="m303.35947 473.80942c-3.96512.59163-8.37384-1.03676-9.98356 7.98892 6.77812-.88129 5.20753-3.75656 9.98356-7.98892z"/><path d="m300.58898 480.28663c-3.76476.62159-8.29188-.97473-9.89813 7.71818 5.39821-.99657 6.14906-1.23033 9.89813-7.71818z"/><path d="m299.0191 449.01901c.75988 3.20565 4.77984 6.36455.89564 14.05848-2.99105-7.56428-3.28902-6.8614-.89564-14.05848z"/><path d="m296.39424 454.61169c.93975 3.16885 5.26267 6.52415 1.59087 13.72373-3.46153-7.56264-3.73792-6.90088-1.59087-13.72373z"/><path d="m294.4069 459.9942c.93122 3.36026 5.39439 6.83769 1.4427 14.61272-3.49585-7.98995-3.79522-7.27678-1.4427-14.61272z"/><path d="m291.14044 466.95397c1.49669 2.58979 7.07976 4.68622 2.03704 14.2063-3.25339-4.66492-1.43592-7.31031-2.03704-14.2063z"/><path d="m290.24673 474.59847c1.98689 3.76785 3.69189 4.8012.11957 12.84449-2.20454-6.73706-2.49091-6.0711-.11957-12.84449z"/><path d="m284.49232 475.93501c-.58505-.08373-1.18481-.14773-1.79429-.19739-7.98732 34.30584-19.54437 63.14997-36.91666 99.03091.16119.1347.32269.26498.4852.39688l.76307.31192c15.93491-31.73062 29.74533-63.90866 37.46268-99.54232z"/><path d="m288.15314 438.77273c2.06717 6.89352 4.09174 7.88417-.24557 14.70486-2.9546-5.51001-1.93414-8.29479.24557-14.70486z"/><path d="m295.2248 446.31537c-3.41249 1.89729-7.43951 1.71405-7.93046 11.29507 5.8815-2.4255 5.46551-3.19173 7.93046-11.29507z"/><path d="m293.1892 455.3113c-4.08946 1.21387-7.18937.3185-7.3855 8.79629 4.11073-2.69214 5.19489-1.71954 7.3855-8.79629z"/><path d="m292.57903 460.35179c-3.39602 1.83567-7.41578 1.62526-7.85759 11.0224 5.85736-2.33517 5.43836-3.09016 7.85759-11.0224z"/><path d="m291.82918 467.75271c-3.78291 1.5768-8.36919 1.09213-8.44414 10.33201 6.48828-2.56812 4.47281-4.98742 8.44414-10.33201z"/><path d="m290.19425 474.79007c-3.58181 1.55571-8.27864 1.13223-8.40553 10.04551 5.11838-2.33377 5.81449-2.75151 8.40553-10.04551z"/><path d="m283.45859 444.57851c1.27683 2.94669 5.73704 5.02732 3.21425 13.53591-4.18555-6.65177-4.36035-5.88878-3.21425-13.53591z"/><path d="m281.81914 450.71341c1.44678 2.8654 6.2362 5.06206 3.83912 13.03329-4.64581-6.53178-4.80632-5.81447-3.83912-13.03329z"/><path d="m280.76878 456.48216c1.47026 3.05491 6.41727 5.33582 3.8419 13.94078-4.75045-6.94143-4.92491-6.16801-3.8419-13.94078z"/><path d="m278.7286 464.11667c1.89567 2.15845 7.70928 2.80578 4.35611 13.39341-3.96026-3.7477-2.62107-6.79446-4.35611-13.39341z"/><path d="m279.12486 471.82442c2.57138 3.18826 4.41216 3.77076 2.25275 12.54284-3.27812-6.03992-3.44771-5.31599-2.25275-12.54284z"/><path d="m265.74507 478.01123c-.28269.08558-.56753.17107-.8537.26151-.95717 22.40554-5.63482 38.15432-13.84192 51.85834-.00434.00725-.0067.01628-.01104.02353-4.72202 9.42134-10.71809 18.92482-17.99794 28.89425.37234.64236.75116 1.26357 1.13173 1.88073l.24638.28999c20.75135-28.60091 31.35947-52.91309 31.32649-83.20835z"/><path d="m274.70721 476.0117c-.62839.08452-1.26423.17865-1.91384.29277-4.21646 32.32152-14.56686 57.77974-32.49584 92.98004l.91908 1.10234c.13701.14963.2758.29309.41383.44029 18.61735-35.58669 29.51602-61.87883 33.07677-94.81544z"/><path d="m273.93222 435.6378c2.88065 6.43661 5.00276 7.04433 1.54187 14.58517-3.59023-4.90562-2.91918-7.84661-1.54187-14.58517z"/><path d="m281.84005 441.79714c-3.14397 2.50276-7.1481 3.06117-6.47071 12.62498 5.5212-3.47851 5.01687-4.15975 6.47071-12.62498z"/><path d="m280.91909 451.0661c-3.89631 1.95133-7.07015 1.63533-6.23515 10.05413 3.73792-3.41695 4.92798-2.65436 6.23515-10.05413z"/><path d="m280.92751 456.16217c-3.13517 2.43881-7.13542 2.96902-6.43177 12.342 5.5083-3.38477 5.00237-4.05434 6.43177-12.342z"/><path d="m281.08429 463.61786c-3.54914 2.2539-8.14284 2.61697-7.09552 11.76707 6.10388-3.73098 3.81737-5.753 7.09552-11.76707z"/><path d="m280.3218 470.87662c-3.35286 2.19611-8.04845 2.64-7.09213 11.47669 4.77778-3.24765 5.41538-3.78856 7.09213-11.47669z"/><path d="m269.99491 442.24072c1.62015 2.67917 6.2829 3.91732 4.82106 12.79388-4.94596-5.80851-5.0262-5.02196-4.82106-12.79388z"/><path d="m269.11841 448.60797c1.77834 2.56756 6.78069 3.85998 5.37793 12.18213-5.3865-5.60533-5.45815-4.86658-5.37793-12.18213z"/><path d="m268.77997 454.50497c1.82455 2.75065 6.99295 4.09743 5.49081 13.07894-5.53968-5.99117-5.61832-5.19437-5.49081-13.07894z"/><path d="m267.68924 462.42862c2.13639 1.7861 7.96341 1.35846 5.93281 12.44326-4.37072-2.97835-3.41632-6.23692-5.93281-12.44326z"/><path d="m269.01653 469.97721c2.92952 2.68027 4.82036 2.91817 3.7498 11.98854-3.97444-5.37018-4.05426-4.62322-3.7498-11.98854z"/><path d="m258.90133 435.95056c3.74109 5.72783 5.91663 5.87554 3.56652 14.03836-4.22504-4.06908-3.97701-7.10844-3.56652-14.03836z"/><path d="m267.55511 440.33718c-2.74532 3.13314-6.61087 4.5339-4.60086 13.81005 4.94982-4.5993 4.35743-5.16315 4.60086-13.81005z"/><path d="m267.94939 449.66251c-3.56377 2.74984-6.73428 3.11292-4.7298 11.22778 3.20199-4.15978 4.48123-3.66149 4.7298-11.22778z"/><path d="m268.67319 454.6802c-2.74563 3.06827-6.61131 4.44043-4.60223 13.52303 4.95028-4.50422 4.35794-5.05624 4.60223-13.52303z"/><path d="m269.87443 461.99052c-3.17935 2.9741-7.65303 4.30772-5.33674 13.09778 5.4883-4.97177 2.95225-6.47761 5.33674-13.09778z"/><path d="m270.14256 469.30219c-2.99413 2.87547-7.55682 4.31034-5.37417 12.81103 4.24998-4.21395 4.80206-4.8822 5.37417-12.81103z"/><path d="m255.95028 443.29079c1.97196 2.29467 6.73848 2.52354 6.5449 11.57728-5.68715-4.67036-5.65575-3.87859-6.5449-11.57728z"/><path d="m255.98094 449.74857c2.1121 2.15114 7.22073 2.3613 7.00752 10.8564-6.09256-4.37663-6.05941-3.63376-7.00752-10.8564z"/><path d="m256.47555 455.62885c2.18332 2.32165 7.46314 2.55008 7.24462 11.71576-6.29761-4.72414-6.26319-3.92261-7.24462-11.71576z"/><path d="m256.51373 463.66515c2.35504 1.30535 8.03445-.35391 7.59072 10.99572-4.7232-2.00496-4.24066-5.41733-7.59072-10.99572z"/><path d="m258.88092 470.81828c3.26181 2.01757 5.15763 1.85015 5.37668 11.01165-4.6687-4.44503-4.64245-3.69233-5.37668-11.01165z"/><path d="m302.60346 487.90921c-21.40797 26.22261-37.27684 57.55789-51.71789 90.52626.5537.33691 1.11267.65434 1.68103.96388 16.72546-36.79257 30.86363-63.80953 51.12153-89.72648-.35256-.60136-.70919-1.19426-1.08467-1.76366z"/><path d="m326.44704 465.96991c-5.88666 1.24454-7.59637-.41698-10.2295 7.61406 5.35637.39263 6.80663-2.0869 10.2295-7.61406z"/><path d="m317.60115 462.20756c.37055 4.58408 2.51306 8.78258-3.98654 14.09612-1.23319-7.47851-.48577-7.41845 3.98654-14.09612z"/><path d="m312.28578 468.87411c1.19016 4.96358 3.37046 7.81834-2.49988 12.26618-.16008-5.72537-1.38688-6.39406 2.49988-12.26618z"/><path d="m309.04234 472.0444c.40569 4.53573 2.5637 8.71291-3.83103 13.88216-1.2847-7.40763-.54369-7.33875 3.83103-13.88216z"/><path d="m304.20698 476.5437c.78139 4.81847 3.41574 9.46204-3.05171 14.16184-1.43617-8.19625 1.27476-7.25875 3.05171-14.16184z"/><path d="m300.07011 481.80413c.69569 4.59368 3.34224 9.38563-2.86931 13.97745-.91621-6.61966-.97017-7.57012 2.86931-13.97745z"/><path d="m324.70702 473.87407c-2.7129.1131-6.40778-3.5982-11.13647 3.34371 6.77566 1.13312 6.32591 1.70084 11.13647-3.34371z"/><path d="m321.20775 478.68809c-2.74064-.10861-6.68181-4.11261-11.09506 2.42669 6.92132 1.68346 6.49658 2.21311 11.09506-2.42669z"/><path d="m317.6717 482.69144c-2.8858-.03885-6.96508-4.16862-11.73532 2.87749 7.26203 1.59009 6.80476 2.16266 11.73532-2.87749z"/><path d="m313.31706 488.68217c-2.46738-.94029-5.82992-6.81006-11.60707 2.056 4.61853 2.34515 6.09387-.60492 11.60707-2.056z"/><path d="m307.69264 492.1139c-3.53024-1.14525-4.86071-2.81504-9.95659 3.8715 5.8912.47233 5.46634 1.01496 9.95659-3.8715z"/><path d="m307.55494 497.95028c-21.99223 20.03386-35.21362 44.80791-50.31878 83.61536.8025.31358 1.62319.60768 2.45377.87489 15.06413-39.40396 27.53665-62.71113 48.53841-82.61092-.21831-.63658-.44216-1.26079-.6734-1.87933z"/><path d="m335.76451 479.55248c-5.97173.14945-7.46062-1.80745-11.03896 5.64997 5.24869 1.37199 6.98363-.81339 11.03896-5.64997z"/><path d="m327.47439 474.20767c-.18998 4.60076 1.41897 9.1457-5.65269 13.20597-.31172-7.62118.42004-7.42453 5.65269-13.20597z"/><path d="m321.40948 479.82328c.5744 5.12654 2.3838 8.34973-3.96058 11.66959.53658-5.69061-.59531-6.57712 3.96058-11.66959z"/><path d="m317.81762 482.36235c-.14935 4.55941 1.4775 9.08611-5.47294 13.02298-.37126-7.56056.35309-7.35637 5.47294-13.02298z"/><path d="m312.49038 485.92317c.18782 4.90797 2.22906 9.98333-4.7363 13.44264-.42532-8.36816 2.14145-6.94328 4.7363-13.44264z"/><path d="m307.76143 490.36486c.13036 4.66997 2.16566 9.89429-4.53357 13.29383-.10253-6.71375-.04053-7.66346 4.53357-13.29383z"/><path d="m333.08468 487.04849c-2.69622-.38642-5.89926-4.73473-11.41748 1.26091 6.56219 2.36483 6.04858 2.84359 11.41748-1.26091z"/><path d="m329.04036 491.16588c-2.69675-.61074-6.10779-5.2937-11.26524.36178 6.63943 2.93576 6.15517 3.38146 11.26524-.36178z"/><path d="m325.05806 494.47494c-2.84874-.56843-6.38108-5.40111-11.95304.68993 6.98766 2.90601 6.46603 3.38819 11.95304-.68993z"/><path d="m320.02514 499.59875c-2.32561-1.38291-4.93806-7.80445-11.72652-.09879 4.28214 3.1671 6.09899.52106 11.72652.09879z"/><path d="m314.04725 501.95904c-3.35168-1.78078-4.46458-3.6762-10.31488 1.99948 5.76785 1.54902 5.2819 2.00754 10.31488-1.99948z"/><path d="m310.89422 509.19888c-22.43815 16.43787-33.3684 42.64266-42.40331 75.15315.71416.08859 1.43923.16302 2.17217.22529 3.9208-14.03016 8.06541-26.54728 13.24327-37.56176.00858-.01825.01717-.03664.02576-.05489 5.39213-13.22878 13.56708-24.79642 27.43756-35.678-.15382-.69889-.31306-1.39684-.47545-2.08379z"/><path d="m343.05973 495.72175c-5.90297-1.12159-7.09472-3.36542-11.66633 3.21965 4.97717 2.46653 6.99288.68261 11.66633-3.21965z"/><path d="m335.64464 488.69589c-.83308 4.49125.11355 9.30973-7.4219 11.80649.76301-7.57287 1.45616-7.2237 7.4219-11.80649z"/><path d="m328.88243 492.93852c-.15402 5.17153 1.17563 8.73072-5.53951 10.6527 1.3275-5.49107.33709-6.60475 5.53951-10.6527z"/><path d="m324.98805 494.67628c-.78726 4.45914.17957 9.26346-7.21916 11.66443.69585-7.52581 1.38064-7.17078 7.21916-11.66443z"/><path d="m319.24093 497.05172c-.5041 4.87411.79386 10.30688-6.55252 12.2343.756-8.33275 3.08413-6.38394 6.55252-12.2343z"/><path d="m313.95942 500.42191c-.52728 4.62748.74391 10.20571-6.33194 12.1308.84165-6.63463 1.03606-7.5569 6.33194-12.1308z"/><path d="m339.3677 502.53572c-2.60144-.95347-5.14582-5.91696-11.42291-1.18387 6.13153 3.72354 5.55842 4.08597 11.42291 1.18387z"/><path d="m334.80607 505.73194c-2.57047-1.17452-5.27274-6.51183-11.14672-2.03713 6.12745 4.30228 5.58789 4.6384 11.14672 2.03713z"/><path d="m330.41902 508.14517c-2.72612-1.16515-5.52684-6.67571-11.87026-1.86007 6.47462 4.34699 5.89313 4.71109 11.87026 1.86007z"/><path d="m324.74234 512.12265c-2.0965-1.85625-3.76807-8.73633-11.5364-2.5888 3.7731 4.02931 5.93416 1.80905 11.5364 2.5888z"/><path d="m318.5229 513.17736c-3.05128-2.46613-3.88132-4.56952-10.44058-.22213 5.46367 2.7512 4.92064 3.09959 10.44058.22213z"/></g><rect height="9.061063" rx="15.607331" ry="15.290055" stroke-width=".476477" transform="matrix(.8152974 .5790425 -.4248689 .9052549 0 0)" width="45.601871" x="455.12811" y="275.96478"/><path d="m258.51181 516.69423-6.90811 4.84896c.29109.94528.83131 1.77192 1.59215 2.31229l2.10367 1.49407 7.74474-5.43627zm9.10314 6.46526-7.74473 5.43627 4.52607 3.21452 7.74473-5.43627zm9.10314 6.46526-7.74473 5.43627 4.52607 3.21452 7.74474-5.43628zm9.09677 6.46072-7.74473 5.43628 4.53244 3.21905 6.79921-4.77993c-.27542-1.02074-.83346-1.91983-1.64262-2.49451z" stroke-width=".472666"/></g><g fill="#ccc" stroke-linecap="round" stroke-linejoin="round" stroke-width=".96258" transform="matrix(1.03662931 0 0 1.04112475 -1503.474015 543.545905)"><g fill-rule="evenodd"><path d="m389.37666 464.58943c41.23945-23.11329 89.71282-21.06033 127.7043-20.52437 34.8407 2.6875 96.61722 23.60696 110.67207 23.65104 6.87686.39438 15.43977-.52181 19.13881-2.53266 17.77912-14.80842 33.15282-15.18434 48.99536-18.37326-.53975 5.26562-22.77721 23.73333-27.88926 33.369 4.88981 14.23709 20.50353 20.4569 25.44239 31.93831-21.37289.07431-36.60955-11.52195-54.13274-17.8638-81.41727-11.15497-73.78247 35.64777-179.17935 18.40513"/><path d="m439.43979 492.42366c16.43391 13.22399 27.14516 25.05076 27.72571 36.47498-5.4955 2.67467-25.13079-14.70178-41.90885-30.38364"/><path d="m442.26444 469.35263c8.83232 34.28052-26.79383 37.9209-55.17605 14.11385-2.85578-8.19061 2.75675-6.46763 6.80124-6.37792"/><path d="m490.94456 443.5656c1.98382-5.55783 9.08538-15.00266 24.9404-24.01508 4.56536 9.38301 17.61459 19.15936 27.42039 28.54237"/><path d="m431.97922 467.18732c3.04862 14.42122-.36765 23.99378-14.61584 25.44239"/><path d="m414.11542 482.88582c-21.42576 3.56-49.80272-33.71303-12.99186-12.45053"/><path d="m568.93504 501.83227c36.2461 14.2773 22.66765-.88631 51.41673-9.27187"/><path d="m512.72503 516.16246c15.9395 8.42118 25.29965 9.14918 35.63957 10.57087.21798-13.91708 1.6-17.35786 3.24796-18.40513"/></g><path d="m420.9766 467.99933c0 2.66639-3.07186 4.82793-6.86119 4.82793-3.78932 0-6.86118-2.16154-6.86118-4.82793s3.07186-4.82793 6.86118-4.82793c3.78933 0 6.86119 2.16154 6.86119 4.82793z"/><path d="m452.54966 459.06741c0 1.33028-1.16002 2.46336-2.73644 2.67286-1.57641.20951-3.10183-.56667-3.59837-1.83095-.49654-1.26429.18301-2.64185 1.60303-3.24958 1.42001-.60773 3.15948-.26546 4.10329.80741l-2.61947 1.60026z" transform="translate(-34.64495 8.11991)"/><g fill-rule="evenodd"><path d="m668.11595 480.24849c-9.78613-.27867-19.60035-1.79392-31.80345-.61064"/><path d="m678.82449 467.02998c-3.79385.03974-12.20536 3.93094-20.02911 7.1946"/><path d="m688.07576 457.02011c-8.42011.60073-20.47461 5.34554-33.06967 11.79119"/><path d="m689.17714 505.39492c-10.10478-.9719-21.90096-5.70085-32.00574-8.97592"/><path d="m676.06727 492.79641c-5.59371-.90221-11.81679-1.88309-17.41051-2.78531"/><path d="m520.21558 426.04644c-6.91396 5.57467-12.92142 11.45151-17.32248 17.86381"/><path d="m525.94353 432.34569c-4.46876 3.35934-8.35055 7.36618-11.14122 11.56456"/><path d="m531.58345 437.95565c-2.88992 2.8885-4.16381 4.96898-5.41327 7.03725"/><path d="m441.18179 504.53891 25.83573 24.03381"/><path d="m533.20744 519.15475c4.61889 1.51615 9.69931 2.57077 15.15716 3.24796"/><path d="m542.95133 515.36546 5.9546 1.62398"/><path d="m587.8815 501.29095 9.74389 4.33061"/><path d="m596.00141 498.58431 7.35193 2.28332"/><path d="m453.40169 456.03836c6.34569 5.18907 1.18395 11.83853 0 11.51381"/><path d="m460.53658 471.14519c6.50373 5.31831 1.21343 12.13337 0 11.80056"/><path d="m470.4358 451.38046c6.50373 5.31831 1.21343 12.13337 0 11.80056"/><path d="m477.54701 466.92527c8.24216 6.73988 1.53778 15.3766 0 14.95483"/><path d="m449.98738 485.41595c5.77703 4.72407 1.07784 10.77765 0 10.48203"/><path d="m467.4781 488.58519c6.50373 5.31831 1.21343 12.13337 0 11.80056"/><path d="m490.67268 477.99974c6.50373 5.31831 1.21343 12.13337 0 11.80056"/><path d="m484.91295 498.23662c6.50373 5.31831 1.21343 12.13337 0 11.80056"/><path d="m490.20567 450.91346c6.50373 5.31831 1.21343 12.13337 0 11.80056"/><path d="m502.90592 458.94367c7.68903 6.28757 1.43458 14.34466 0 13.9512"/><path d="m505.3986 488.93868c7.71489 6.30871 1.4394 14.39291 0 13.99812"/><path d="m518.76746 474.14176c7.47266 6.11064 1.39421 13.941 0 13.55861"/><path d="m533.19442 460.27786c6.81981 5.57677 1.2724 12.72304 0 12.37406"/><path d="m533.48146 492.32122c6.50373 5.31831 1.21343 12.13337 0 11.80056"/><path d="m548.26995 478.77808c6.50373 5.31831 1.21343 12.13337 0 11.80056"/><path d="m564.45945 463.98959c6.50373 5.31831 1.21343 12.13337 0 11.80056"/><path d="m564.14811 485.93882c6.50373 5.31831 1.21343 12.13337 0 11.80056"/><path d="m577.49834 478.44988c6.01927 4.92215 1.12305 11.22956 0 10.92154"/><path d="m595.05162 471.89495c5.5348 4.52598 1.03265 10.32574 0 10.04251"/><path d="m617.87899 477.78504c4.80811 3.93175.89707 8.97002 0 8.72398"/></g></g></g><g transform="matrix(.6642307 0 0 .6642307 549.61468 -981.2956)"><g stroke="#000"><g stroke-width="1.541061" transform="matrix(-.590155 -.1097594 -.07076067 .8433269 -2199.6425 -702.31862)"><g stroke-linecap="round" stroke-linejoin="round" stroke-width="1.957396" transform="matrix(1.060146 .1519331 -.1790091 1.0783017 -2542.0912 1649.4901)"><path d="m-299.63766 854.504c-41.69596 0-68.31943 18.21343-68.31943 50.80314 0 24.60548 15.90389 30.30014 15.90389 45.15832 0 9.73245-19.98453 21.02197-42.78361 43.21183-6.75761 0-18.14224 6.81271-22.06385 6.81271-2.93947 0-4.67359-3.2117-9.5199-3.2117-3.95713 0-9.48273 2.7573-11.42388 4.1849-2.33239-1.3595-4.29562-1.75179-7.16791-1.75179-3.7108 0-12.20795 9.80709-12.20795 14.79319 0 7.0427 5.30578 9.0312 9.0719 6.8127.60137 5.7347 10.4988 8.387 14.8959 4.8662 0 0 29.00778 7.202 29.00778 7.202 2.26836 1.6529 6.30937 3.601 10.30386 3.601 5.22215 0 13.0374-3.309 15.23186-4.7689 1.97029 2.8098 6.5511 4.2907 10.30396 6.2287-.92339-7.7276 3.31298-13.3825 2.93555-21.3854-.55099-11.6785 11.47639-23.38361 22.15222-23.38361 1.20288 4.29743 4.477 6.46771 8.95991 7.39661.78464-2.98458 1.75589-5.9692 3.13595-8.95381 2.20762 6.27791 7.65472 10.00131 14.11188 10.99761-2.87708-5.17002-1.62634-10.04638-4.70397-15.27982 8.2345 8.08268 16.1704 15.76652 30.23974 15.76652-11.59167-9.35736-12.16579-18.5732-19.48779-28.22398 11.13225-5.96776 22.39977-14.07206 22.39977-21.89792-3.29992-4.9113-13.55185-10.25047-13.55185-15.96111 0-5.0746 5.97035-10.56777 10.72887-13.31907 8.81468-5.0966 22.64504-6.43772 31.60679-6.43772 0 0 27.14928-4.78851 30.53965-14.16489 5.44053-15.04631-23.03578-49.09571-23.03578-49.09571z" fill="#eac102"/><path d="m-323.77291 870.00924c-25.14618 5.96128-34.27692 21.64635-29.71344 44.59433" fill="none"/><path d="m-410.96472 1009.0545c-16.07816-2.3358-23.5633 8.9917-23.5633 16.1677 0 6.2745 7.75378 12.6402 15.49939 12.6402 10.10863 0 16.62397-4.0191 19.48789-10.1217" fill="#f8c300"/><g fill="none"><path d="m-448.1484 1021.366c-.5535-6.0316 3.61517-15.6757 10.35995-19.9393"/><path d="m-395.00484 993.67729c4.48958 0 7.978 2.15904 11.14391 3.69832"/><path d="m-378.709 1032.3149c-.8553-1.0057-.21047-3.2765.22403-4.1849"/></g><g fill="#f8c300"><path d="m-412.74979 1027.6224c-1.0409 6.6443-4.50909 12.6349-10.50354 16.1285-5.22443-4.24-7.0521-12.9505-4.85889-18.1992 4.97243-4.4307 12.25789-3.6398 15.36243 2.0707z"/><path d="m-436.32776 1021.7958c-1.00668 5.1245-5.73824 8.0027-8.49274 11.1888-3.66429-3.8589-3.85656-9.645-1.67672-12.9292 3.44617-2.866 8.27472-2.1692 10.16946 1.7404z"/><path d="m-449.40445 1018.0133c-2.77265 4.1049-7.82222 5.2243-9.19226 8.4511-2.33945-3.7441-1.20268-10.0534 2.93642-12.0337 3.11238-.7942 5.72847.8961 6.25584 3.5826z"/></g></g><g fill="none" stroke-width="2.117569"><path d="m-3039.8922 2613.2318c-1.8082 2.6165-1.4828 10.2375-.416 14.0781 1.2005 4.322 4.2861 2.5466 3.3064 6.9477-.8705 3.911-6.2854 7.7042-8.3678 8.8139-4.2917 2.287-8.0216 5.4623-11.5323 7.3331-3.8647 2.0594-8.5315 3.943-12.3742 5.0103-3.7574 1.0437-3.7005 2.6425-5.3655 4.0469"/><path d="m-2996.0654 2585.5225c-1.2422.3451-9.9985 1.4608-14.7576 3.5092-4.1412 1.7825-9.233 5.3178-13.8956 6.6129-3.2156.8932-.5502.8737-1.5011 2.3835"/></g></g><g fill="#eac102" fill-rule="evenodd" stroke-width="1.505501"><path d="m-652.16384 1752.94c.09547.5017 2.75372-.5404 7.00599-1.4381 4.99734-1.0551 7.50364-1.2373 13.29337-.9966 5.87197.2441 9.08703 2.9533 10.08009 4.1369 2.1825 2.6011-7.13782.7032-10.36011 2.048-4.5415 1.8952-11.79436.08-16.56484 2.0708-4.4489 1.8566 7.48136 11.8313-4.78855 11.3479-8.01154-.3156-7.13641-5.3833-5.67608-8.9655.70805-1.7369 6.81579-6.3525 7.01013-8.2034z"/><path d="m-625.8157 1766.7995c1.00012.2729 13.04558 3.6199 19.94627 5.2566 8.50775 2.0179 5.70862 8.0918 3.32439 12.6159-2.62009 4.9715-15.3298-9.815-15.51378-10.5132-1.07876-4.0939.88102 8.8415-1.10813 12.6158-2.55 4.8386-12.40992-2.2072-14.40564-3.1539-6.50373-3.0852 7.25385-16.4394 7.75689-16.8212z"/></g></g><g fill="#eac102" stroke-width="1.44732" transform="matrix(-.6556022 -.0191333 -.01680681 .7276756 -692.61288 1119.7631)"><path d="m-229.28361 736.28543s-23.19483 54.08662-17.63826 81.87096c5.18032 16.45244 53.22186 64.20818 107.375 65.90625 12.85663 7.89134 16.2627 22.91546 17.53125 36.28125 2.24038 23.60494 3.49337 52.62656 14.53125 67.15625 16.305377 21.46356 49.889097 23.81406 58.218747 37.96876 9.49038 16.1269 8.51588 31.6551 1.96875 47.4375-3.75194 0-9.81442 5.25-14.8125 5.25-3.40251 0-5.4547-3.6563-10.59375-3.6563-4.6686.0001-8.18755 5.5-8.1875 5.5-1.89741-3.0623-4.99843-5.5-8.90625-5.5-6.33264.0001-11.167637 9.8803-11.343747 16.5313-.02914 13.7346 12.079207 11.0568 12.687497 5 1.60733 12.354 17.22702 12.4454 20.875 5 2.05599 14.0956 19.32079 12.3165 27.21875 5.375 4.00378.7264 7.34347 1.4668 10.75 1.1875 8.51587-.6982 14.72701-3.4052 17.84375-6.6875-1.63287-4.3268-2.12256-8.2844-1.96875-12.0938 2.86855 3.5644 9.9520796 4.1302 12.87499958 1.7188 3.44075002-2.8385.14555-18.5517-4.68749998-29.1875 4.29142.8033 8.52927 1.7496 11.9375 4.3437 1.35901-5.7899-4.44208-8.1438-10.125-10 5.38109.838 10.94863 2.4307 16.0312504 7.875 2.58782-9.3156-5.7854404-15.0075-10.9062504-19.1875 6.3477 3.3762 10.5574104 11.8438 20.4062504 11.8438 6.54747 0 13.01113-4.1776 15.75-7.75-6.71559.0186-10.15094.7148-14.53125-.2813-5.39905-11.0111-10.7088-19.0498-19.0625004-18.25.3308-5.689 3.5488982-13.4823 0-17.0937-8.4280918-8.5766-29.7209026-21.66344-31.3125046-27.19143 3.490026-23.35977-2.072121-28.4726-2.374995-44.05858-.085119-4.38025.53125-14.59375.53125-14.59375.409251-11.24236-11.560252-22.33396-12.34375-33.09375-3.127684-42.95256-115.407067-108.89843-80.410907-150.49429z" stroke="#000" stroke-linecap="round" stroke-linejoin="round" stroke-width="2.178941"/><path d="m-127.24687 812.04804c2.98932 20.21585 18.08682 20.29717 33.298122 37.73591" stroke="#000" stroke-linecap="round" stroke-linejoin="round" stroke-width="2.178941"/><path d="m-215.3878 827.32702c4.34382 18.29384 21.78152 32.19063 41.92783 41.63252-21.68772-13.26692-36.6281-27.72956-39.15925-42.24981"/><path d="m-102.43706 931.93106c3.971615 18.16805-5.64886 40.74052 10.770595 54.5042l.32425.44489c-14.384985-15.75113-3.43305-35.5517-11.094845-54.94909z"/><g stroke="#000" stroke-linecap="round" stroke-linejoin="round" stroke-width="2.178941"><path d="m-20.707525 1059.6581c3.51421-11.5265 3.77642-20.0733 1.87887-27.4027-3.46209-13.3721-14.11319-22.6923-25.3207-38.66304 10.53679 19.63614 37.1029499 20.00324 31.67817 34.13394"/><path d="m-47.289955 1072.8742c4.61212 0 7.90231.9732 11.98382.9732"/><path d="m-67.617845 1101.4874c0-10.6801 3.65064-17.0609 9.78781-17.0609 3.65311 0 7.90778 2.2084 12.44397 3.2409"/><path d="m-88.505685 1096.1346c0-6.1839 5.15004-12.9557 7.72795-16.2531"/><path d="m-13.802315 1089.2246c-.20897-2.498-2.02449-4.9959-2.35194-7.4939"/><path d="m-40.458105 1106.5483c2.75072-2.3581 4.88164-6.2921 5.824-9.1485"/><path d="m-49.833335 1102.4432c.7196 5.4963-.64643 10.894-4.60637 14.7362-4.52796-3.277-8.63507-9.1255-8.11162-13.707 2.92756-4.413 8.91437-5.054 12.71799-1.0292z"/><path d="m-1.4311151 1087.6391c.48512004 4.523-.73107 8.9359-4.03655 12.035-3.63652-2.7544-6.8814099-7.6143-6.3685099-11.3688 2.4730299-3.5823 7.3739799-4.0245 10.4050599-.6662z"/><path d="m-72.023355 1099.4633c-1.13522 5.1206-4.11186 9.6447-8.91422 12.1377-3.00485-4.0511-4.79816-10.3134-2.84292-14.3082 4.06007-3.2579 9.64529-2.377 11.75714 2.1705z"/><path d="m-89.257355 1095.088c-1.68853 4.6243-5.00089 8.5235-9.74271 10.3735-2.264055-4.0269-3.133635-9.9827-.82975-13.4893 4.15304-2.6269 9.19429-1.2855 10.57246 3.1158z"/></g></g><g stroke="#000"><g stroke-width="1.505501"><path d="m-669.0059 1777.3355c-1.32871 1.1799-3.14154 4.7005-5.41276 6.7174-1.84389 1.6374-6.44586.8162-8.91716.7537-.69739-.0176-1.39477-.0352-2.09206-.0529" fill="none"/><g fill-rule="evenodd"><path d="m-594.21758 1599.0117c10.00867-6.2095 15.6744-10.2391 21.63968-7.895 31.36345 7.3865 28.75172-20.1815 12.12319-23.6798 6.37472 13.2914 5.58114 19.9037-9.68631 19.0189-6.33059.3083-12.49013-3.7726-22.73992 10.2794-.23351.8497-1.72004.9736-1.33664 2.2765z" fill="#eac102"/><g fill="#e3e4e5"><path d="m-581.53831 1579.251s2.89791 5.9031 3.69555 8.1285c2.61505-.3268 1.16491-8.1544 1.16491-8.1544s1.19326 5.1023 3.24308 7.376c2.72104-.3464 1.05964-8.5064 1.05964-8.5064z"/><path d="m-573.55893 1592.6056c-.00465-.183-1.86149-3.9586-4.51936-.1438 0 0 .00976-2.6319-1.32826-2.5385-1.36845.728-2.29192 3.1613-2.29192 3.1613z"/></g></g></g><g stroke-width="2.493952" transform="matrix(-.4074082 .455204 .4207908 .4242935 -557.33173 987.7081)"><g fill="#eac102" fill-rule="evenodd"><path d="m699.7596 705.3708c1.77182.95672 4.39696 1.27512 5.91256 6.02713 1.38516 4.42914 1.2425 10.54181-4.25727 12.0737-1.32774.39271-2.32047.11434-3.31769-.46092-.87131-.54937-1.12202-1.56299-1.62457-2.62843-.425-1.12349-.25414-2.27231-.02032-3.40823.24844-1.20685.54972-2.03284 1.11292-3.17491 1.02416-1.7872 1.44346-4.14289 1.88186-6.27267.41932-2.35571.21921-1.06487.31251-2.15567z"/><path d="m672.3198 696.00397c.23628 1.21397.61784.82794.79873 5.34598.09069 2.49687-.40634 4.89238.12536 7.66351.79726 3.91884 5.44273 7.24105 8.55278 3.06875 8.12739-10.75055-7.50808-15.7624-9.47687-16.07824z"/><path d="m685.56212 665.3034c-.3395-.48482.27622-4.1047.27622-6.07669 0-1.68704.57217-3.68953.82864-4.97185.34686-1.73433 1.47928-2.58413 2.48592-3.59078.72254-.72253 2.92236-.49443 4.1432-1.10485 1.07731-.53865 3.45186 1.48444 4.14321 1.65728 1.17575.29394 2.59622.84703 4.1432 1.10486 1.52152.25358 3.44214.51527 4.69563.82864 1.51801.3795 2.91324 1.25595 3.86699 2.20971 1.11679 1.11678 1.26117 2.55875 1.65728 4.1432.37587 1.50346.27622 3.30087.27622 4.97184 0 2.07936-.8036 2.98827-1.65728 4.69564-.92113 1.84225-2.17767 2.45388-3.59078 3.86699-.27621.27621-.55243.55242-.82864.82864-.91281.91281-1.27825 1.44205-1.9335 1.93349" transform="translate(.000002 65.999997)"/><path d="m766.38288 741.32127-11.01429-.32143-6.39734.24669-.60164-1.03376c-4.73993-1.98508-26.16011-3.33129-33.19543-4.32951-8.1914-1.13443-21.87718-1.91228-27.00369-11.22072-2.41535-4.38291 2.09459-10.34109-4.24254-16.67311l-3.22957 2.51827-3.81683-2.35084-4.36087-2.515.81693-2.23439c-6.68458-2.97656-15.84142 2.13324-15.50419 8.66349-2.03232-.96801-4.25266-.98214-6.60946-.63457l-.50377-.14089-.18002.24879c-.4385.07607-.88077.15637-1.32775.25018-1.67838.37048-2.91006 1.60023-3.62048 2.42323-.47359.54867-.86608 1.2677.87523 2.00481.32716.13125.52984.23633.70285.31275l-2.7245 4.04177-6.32501 7.32735-1.25338-.64099c-3.08885 2.79141-2.72615 5.01935-2.05859 8.18081.35877 1.65018 1.82834 3.97334 2.41611 4.76796 1.0283 1.3664 1.32144 2.3066 1.48296 3.595l1.97429-.75767-3.05065 6.55283 1.25553 6.59547 2.84119 6.127-2.14307.83245s1.21335 2.6419 1.65258 3.11676c.53783.65574 2.03283 1.88057 3.29277 2.58513 2.71445 1.57713 5.13985 2.60593 8.02045 2.21997 7.18229-1.05917 15.6435 4.23495 20.86953-2.00622 2.88213 2.28162-.75492-1.43419 3.04915-1.23107-.12406.2896-.24377.57218-.30635.83789 11.44366 5.35436 11.45103 16.70799 24.68401 11.53328 1.60769-2.05921 2.20381-.68319 3.75308.07964 4.89237 2.59539 6.72164 3.03639 7.36972 4.74481 1.1963 3.13915-4.10138 7.53678-7.233 7.13149.09991.27773 3.79767 1.30282 4.71308 1.42274 4.33641.5835 7.90722-2.27269 8.83296-1.37779.48658.42003.53846.36026.54884 1.13517.1038.56836-.46939 1.32639-1.13375 1.99766-.66434.67125-1.51788 1.54381-2.41384 2.87688-2.73271 4.24781-4.66285 14.17245-2.67699 15.21641 2.27464-2.53673 1.89574-1.99489 3.31658-3.64092 1.27874-1.48138 1.89202-2.2052 3.17464-3.39599 1.23401-1.2328 2.74339-2.98563 4.22976-3.33033 2.06119-.51879 5.54853.2809 7.37546.23018 1.49024-.05412 5.58159-.17813 6.01304-.28447-1.21325 2.78271-2.2045 5.58658-2.01962 8.61864.11675 1.53703 1.00301 9.5761 3.72073 7.80483 1.8361-6.55373 6.18605-11.78559 8.78375-11.74549 5.82147.1419 10.43711.28825 13.44554-1.32787 2.67426-1.42578 6.93598-3.40174 8.13428-3.70788-.98292 2.02402-1.84603 6.54404-2.15551 8.57483-.13043 1.03642-.47627 6.77289 1.34813 6.52843.57612-.07719.51495-3.85248.64798-4.69515.44767-2.48604.9821-5.97255 1.52452-8.56833.62937-3.28673 4.71923-7.1045 3.16478-8.25479-.7637-.31559-2.16877 1.21609-3.19981 2.4189l11.94018-28.20156z"/><path d="m630.57551 764.74608c.95243-.70988 1.43123-.87104 5.69308-2.26694 2.25057-.73824 4.99944-.18466 7.5764-1.69443 3.43592-2.01305 5.56918-7.92732 1.45663-9.75382-10.59511-4.6455-14.70335 11.81984-14.72611 13.71519z"/><path d="m627.35102 721.4607c2.55161.19186 7.67823 2.31917 11.1407 5.88249 2.19476 2.27755 7.44531 2.8841 9.47018-.34699 3.95629-6.25555.43352-10.73271-5.25364-11.62041-2.84359-.44386-8.93234 1.00273-11.6501 2.77398-.66825.38069-2.66521 2.10388-3.70714 3.31093z"/></g><g fill="none"><path d="m657.67717 711.78911c.56417.57533 2.25325 1.72989 2.99721 2.81685.59581.87052 1.63901 1.57639 2.13701 2.30399 1.02657 1.49987 2.07009 3.0245 3.07305 4.48991.61557.89938 1.03041 1.95182 1.5582 2.72296.70165 1.02515 1.30615 2.16682 2.05593 3.15262.55492.72958 1.54828 1.33648 2.23977 1.93338.82826.71495 1.53548 1.53515 2.5914 1.77759 1.31547.30205 4.14973 2.20415 5.16112 3.07719 1.43064 1.23493 3.63694 1.78114 5.48024 2.20437.10807.02481.16591.14321.24887.21482.57767.49865 1.75594.16665 2.16392.26033"/><path d="m674.73068 739.8297c.04086.03527-3.70522.49657-4.39809.56697-1.74138.17696-3.43258-.10857-5.26912-.1849-1.93811-.08054-3.92882-.49293-5.78851-1.09255-2.24881-.72508-4.18831-.91305-6.41067-1.62961-1.30736-.42153-2.66236-.04249-3.83012-.09102-.93236-.03875-2.69934.78958-3.29988 1.05565-.90703.40185-2.04872 1.3953-2.79131 1.7243-.88261.39103-1.70298 1.46972-2.40719 2.28552-.42401.49121-.39797.99896-.53546 1.37502"/><path d="m669.53293 754.40425c-.20943.24262-.45137 2.18403-.59489 2.70165-.238.85836-.28489 1.24009-.74099 2.11622-.47158.90586-.97016 1.77697-1.4334 2.6668-.47633.91498-.52125 1.32373-.74099 2.11622"/><path d="m655.17394 733.053c-.47718.91661 1.35617 1.78307 1.08215 2.77135-.25856.9325-.37272 1.35186-.96819 2.37942"/><path d="m669.70372 721.25186c-.27048.97552-.20951 2.20584-1.54699 2.7984-.15726.06967-.22719.2632-.34079.39479"/><path d="m763.34344 753.39547c-.8282-.39659-6.37285.20233-8.83953.17791-3.89889-.03861-6.87895-1.58092-11.07931-1.75548-2.9076-.12083-7.29279-2.55327-9.71614-3.33464-.95792-.30886-3.11264-.16392-3.83012-.09102"/><path d="m729.59881 773.8722c-4.90936-1.58293 8.3559 6.19325 13.26526 7.77617 3.80881 1.22807 7.02211 5.22488 10.57111 6.36919 1.28348.41382 2.7343-.56127 4.01396-1.12821"/></g></g><g stroke-width="2.224966" transform="matrix(-.6446559 .3651198 .422388 .4709789 -405.86421 1212.3656)"><path d="m550.71429 426.64789c.10849 1.11003-2.53922 9.36416-4.28571 12.85715-1.89782 3.79562-2.48036 9.24643-4.28572 12.85714-2.10465 4.20931-2.85714 7.9569-2.85714 12.14286 0 1.80687-1.70169 9.83195-2.85714 12.14285-1.59492 3.18984 1.22207 8.15843 2.14285 10 2.00439 4.00877 3.92784 6.96392 7.14286 8.57143 7.20087 3.60044 3.57143 3.00606 3.57143 10 0 4.08422.63345 7.53382 1.42857 10.71429 1.25114 5.00455.22317 10.8927 1.42857 15.71428 1.27982 5.11927 1.91989 10.87116 3.57143 15 1.54834 3.87085 3.84727 6.20935 7.14286 7.85715 2.57937 1.28968 5.71428 2.03865 5.71428 5.71428 0 4.33132.4594 8.26616 1.42857 12.14286 1.4061 5.6244 5.20412 5.25294 10.20991 9.00728 3.6891 2.76683-5.83819-25.24454-4.16441-26.91833 3.73118-3.73117 5.11933-6.2738 7.7693-9.80708 1.39886-17.48694 16.81051-7.75824 16.89949-20.8533 0-2.84697 4.75538-6.87866 5.71429-10.71428.80968-3.23874 7.14285-4.97152 7.14285-11.42858 0-6.01014-1.72054-3.0683 5-6.42857 3.07177-1.53588 8.45594-7.39516 9.28572-10.71428 1.03894-4.1558.91515-9.37488 2.14285-14.28572 1.81542-7.26166-1.42857-15.6464-1.42857-23.57143" fill="#eac102" fill-rule="evenodd"/><g fill="none"><path d="m555.71429 437.36218c0-4.68993-3.61688 8.66234-5.71429 12.85714-1.89041 3.78084-2.85714 7.57308-2.85714 11.42857 0 4.84845.71429 9.55051.71429 14.28572 0 2.65176 3.40866 6.81733 4.28571 8.57143 1.94276 3.88552.32722 8.63128-.71428 10.71428-.2381.47619-.95239.47619-1.42858.71429"/><path d="m577.85715 496.64789c1.30374 1.30375 1.24477 11.40768 2.14285 15 1.24438 4.97751 0 11.92241 0 17.14286 0 5.45039-2.85714 9.4089-2.85714 13.57143"/><path d="m564.28572 518.79075c.76115 5.32804 1.42857 12.1815 1.42857 18.57143v13.57143c0 2.32233 1.49105 5.83925 2.14286 7.14286"/><path d="m585 487.36218c0 4.60156 4.07506 17.01451 5.71429 23.57143.4204 1.6816.95238 3.33333 1.42857 5 1.32119 4.62416 4.32611 5.73852 7.85714 7.85714"/><path d="m592.85715 489.50504c.01089.00653 3.9604 10.38897 7.14285 13.57143 3.20555 3.20555 5.12483 5.38835 9.28572 6.42857.37378.09344 1.62959.54319 2.14286.71428"/><path d="m605 469.50504c4.64277 1.16069 1.42858 9.50006 1.42858 14.28571 0 6.21124 2.26565 10.95989 4.28571 15 .89616 1.79231 2.72771 3.31256 3.57143 5"/><path d="m620 460.21932c1.45353 2.90705.92495 11.55692 2.14286 16.42857 1.37941 5.51762-1.42857 10.22175-1.42857 15"/></g></g><g stroke-width="2.125128" transform="matrix(-.7322089 -.01850876 -.01826496 .6849583 -262.57435 1511.5105)"><path d="m533.93464 165.05503c.7685 1.17823 1.5727 3.85973 2.5 5.71429.6395 1.27909 1.096 2.95541 1.4285 4.28571.5709 2.28344 1.1554 4.26435 1.7857 6.78572.4632 1.85277 2.8876 4.32623 3.9286 5.71428.9274 1.23655 1.7857 2.43071 1.7857 4.28572 0 1.37365-1.5742 3.86279-2.1428 5-.9159 1.83173.9323 3.65033 1.4285 4.64285 1.0011 2.00202 1.8783 3.0423 2.8572 5 1.0743 2.1486 1.9561 4.39392 3.2143 6.07143 1.5184 2.02452 2.6819 3.22093 3.9285 5.71429 1.1071 2.21406 1.8727 4.68162 2.8572 7.14285.8944 2.23614 2.2646 4.28572-.3572 4.28572-3.3784 0-4.2686-1.42857-5.7142-1.42857-2.2651 0 .3571 4.52068.3571 6.78571 0 2.32639-.0542 4.75123-.7143 6.07143-.3757.75141-4.9474.66171-5.7143 1.42857-1.4747 1.47476-.7143 7.31882-.7143 9.64286 0 3.34052-1.1913 6.90681-2.1428 9.28571-.2864.71597-4.9935 4.10551-5.7143 4.28572-2.0754.51885-3.1472 2.46645-4.6429 3.21428-.5915.29577.3572 7.4505.3572 8.21429 0 2.91267-.7143 5.03479-.7143 7.5 0 1.54005-7.0866-2.65047-7.5-2.85714-1.0495-.52476-3.151-2.11121-3.2143-2.14286-2.1402-1.0701-.7143 4.75003-.7143 7.14286 0 2.12027-.7559 4.36907-1.4285 5.71428-.1065.21296 0 .47619 0 .71429 0 1.49509-3.7786 4.84998-4.2858 5.35714-1.4272 1.42728-2.6469 2.07959-3.5714 3.92857-1.0684 2.13692-3.5604 4.6097-4.2857 6.78572-1.2325 3.69764-8.21424 1.57542-8.21424 5.35714 0 2.45738-13.93723-10.9886-12.14293-9.64286 3.8106 2.85796-2.9953 4.53339-6.7857 6.42857-.887.44353-6.64336-6.96557-7.85716-9.99999-1.7626-4.40647-21.78567-5.11715-21.78567-10" fill="#eac102" fill-rule="evenodd"/><g fill="none"><path d="m533.57744 192.19789c-.9066-1.81328 2.4951 3.20933 3.9286 4.64286 1.1769 1.17687 2.2515 2.71722 2.8571 3.92857 1.2825 2.56499.3881 6.1953 1.0715 8.92857.5602 2.2409.3072 3.4717 1.0714 5 .7726 1.54532 1.3995 3.17552 2.5 4.64286.6618.8824 1.2068 2.08532 1.7857 2.85714"/><path d="m523.93464 198.9836c1.2614 1.6819 4.9562 6.18432 6.7857 8.92857 1.9146 2.8719 1.14 6.41424 1.7857 9.64286.2537 1.26833.7705 2.01051 1.0714 3.21429"/><path d="m511.79174 203.26932c.0233.11673.2381 0 .3571 0 2.6353 0 1.3215 5.14297 2.5 7.5 2.3223 4.64449 2.2656 10.52071 5.3572 14.64285 1.9118 2.54911 3.2046 5.70463 4.6428 7.14286 2.1288 2.12878 4.5012 4.00241 5.7143 6.42857.8101 1.62014 2.8864 5.74354 4.2857 7.14286 1.1927 1.19262 2.5 7.63337 2.5 9.28571 0 2.60477.2543 6.16821.7143 8.92858.0392.23485 0 .47619 0 .71428"/><path d="m490.72034 200.76932c.3632 2.17917 5.0374 8.36411 6.0714 12.5.9275 3.70998 4.0958 7.77868 6.0714 11.07143.989 1.64828 2.9497 2.9497 4.2857 4.28571 1.5172 1.5172 3.432 3.32315 5.3572 4.28571 1.9337.96686 4.0053 1.26919 6.0714 1.78572 1.6802.42004 3.2434.543 5.3572 1.07143 1.4824.3706 3.5889.36064 5.3571.71428"/><path d="m522.50604 236.4836c.29.07251 2.8541 5.47212 3.5714 6.42857 1.3017 1.73559 2.2775 3.37226 3.2143 5.71429 1.2902 3.22553 2.5705 6.13708 3.2143 10 .5378 3.22717.3571 6.66069.3571 10v1.78571"/><path d="m477.50603 229.69789c0 2.06614 2.44738 6.23937 3.92857 8.21428 1.55674 2.07571 1.92394 2.63822 3.57144 4.28572 2.2408 2.24084 3.777 3.8023 6.0714 5.71428 4.9556 4.12968 9.7906 9.79064 14.6429 14.64286 2.2953 2.29529 3.9049 1.70481 6.7857 2.85714"/><path d="m502.14884 239.69789c1.6112.64448 3.4328 6.64701 5.3572 8.57143 1.1615 1.16152 2.0897 3.82234 2.8571 5.35714 1.4765 2.953 1.726 6.24808 2.1429 10 .2937 2.6436 1.3679 5.76835 1.7857 7.85714.275 1.37477 1.4884 2.57981 2.5 3.92857.7452.99359 1.0762 1.79047 1.7857 2.5"/><path d="m491.43464 295.41217c1.6066-1.50495 1.7857-4.28644 1.7857-7.5 0-2.94047.3571-5.95004.3571-8.92857 0-3.29092-.0966-1.16807 1.7857.71429 1.4523 1.45226 1.9534 3.1924 2.8572 5 2.0253 4.05064 1.7878 1.42333 3.2143-2.14286.6834-1.70861.7142-3.58075.7142-6.07143 0-1.67091-.0481-3.37897.3572-5 .434-1.73624 3.6955 1.02182 5.3571.35715 3.3264-1.33057 1.7857-.67061 1.7857-4.28572 0-.95238 0-1.90476 0-2.85714"/><path d="m492.50604 261.12646c0-2.12959 1.5794 4.01062 2.8571 5.71429 1.0654 1.42055 3.3817 1.86939 4.6429 2.5.826.413.9643.72324 1.4286 1.07142"/><path d="m485.36314 264.69789c2.3571 1.17851.8538 5.44223 2.5 7.5 1.4322 1.79024 2.5296 2.87195 3.9286 3.57143.8236.41177 1.7884 2.02737 2.1429 2.5"/><path d="m506.07744 286.12646c.0602.24068 1.0786 3.9571 1.4286 5.35714.7047 2.81882 1.9401 4.34358 2.5 7.14286.2301 1.15035.4813 2.04947.7143 3.21429"/><path d="m464.29174 232.91217c.35654 1.7827 2.34334 5.04381 3.57143 7.5.78876 1.57753 3.82594 3.11165 5.35714 4.64286 2.83935 2.83934 5.43502 5.39608 8.92853 7.14286.7143.35714 1.4286.71428 2.1429 1.07143.4762.23809.9524.47619 1.4286.71428 1.6852.84264 4.4332 2.21659 5.7143 2.85715 1.8715.93578 4.1831.58701 5.3571 0 .5951-.29753.9036-1.20476 1.0714-1.42858"/><path d="m470.00603 242.91217c.33704-.16852 1.51187 5.67055 3.21428 9.64286.82921 1.93483 3.48177 3.48177 5 5 1.93072 1.93072 3.47235 3.52189 5.71433 4.64286 2.0075 1.00377 3.5626 2.37949 6.4285 2.85714 1.5182.25303 3.974.50908 5 .71429"/><path d="m457.14888 237.55503c2.6493.44155.78822 5.36341 1.78572 7.85714 2.23223 5.58059 3.67714 10.89049 6.78571 16.07143.35715.59524.71429 1.19048 1.07143 1.78572 1.84797 3.07995 2.97968 3.39547 6.07143 5.71428 2.73595 2.05197 4.47781 1.97781 6.42857 3.92857 1.34654 1.34655 4.0348 1.63369 6.0714 2.14286 1.6293.40733 4.1884.56279 5.7143 1.07143"/><path d="m446.07746 240.05503c.95609.23903 2.78552 4.76159 3.57142 6.07143 1.82656 3.04425 5.11882 5.91231 7.14286 9.28571 1.04411 1.74019 2.74503 4.33696 3.57143 5.71429 1.53005 2.55009 3.03497 4.82018 4.64286 7.5 1.01413 1.69022 3.15679 2.79965 5 4.64286 1.78504 1.78504 3.21879 3.03797 5 3.92857 2.0341 1.01705 3.3624 2.03834 5 2.85714 3.60841 1.80422-.5324-.5324.71428.71429"/></g></g><path d="m-607.51679 1550.4915c.27574.0173.54793.0538.82197.085.65908.0744 2.14161 1.0511 2.85338 1.186 1.03265.1955 1.80005.2419 2.69093.4107.74604.1412 1.47047.1052 2.30991.1013.86826-.0042 1.61664.0208 2.40823-.1534 1.01372-.2231 1.65296.1105 2.54384-.0856.76305-.1679 1.89609.1281 2.66801.4102.15153.0552.32204.0927.47711.1405.73154.2258 1.41869.6889 1.8918 1.1831.59073.6171 1.27036.705 1.24087 1.5521-.02648.7586.53632 1.0822.75003 1.9253.12598.4967 1.42675.5561 2.0428.6727.83061.1574 1.39953.2198 2.23379.3779.974.1844 1.61606.5205 2.47753.6837.67319.1274 2.01743 1.1751 2.38554 1.5597.40697.4251 2.03244 1.098 2.44151 1.1755.8721.1652 1.5791.6428 2.47412.8122.9598.1818 1.76647.2131 2.45747.5762.86724.4557 1.35327.287 1.65498 1.477.15373.6062.61957 1.2131.63451 1.9651.01412.7065.20758 1.3505.22095 2.0191.01524.7647.10914 1.2707.08534 1.9513-.00571.1653-.00726.3272-.01309.4923-.02292.6585-.13613 1.009-.15838 1.6453-.02959.8491.52404 1.1984.49661 1.9831-.02426.6936.1779 1.2333.15801 1.8032-.02262.6477-.35863 1.0445-.54903 1.6997-.16802.5785-.33475.9543-.65546 1.3971-.41676.5758-.69441 1.0842-1.14461 1.7061-.35225.4866-1.03461.9643-1.36589 1.422-.39309.5429-2.24104 1.2607-2.859 1.5984-.90806.4963-2.19401.6176-3.20507.84-1.09911.2419-2.93192.2012-4.01056.1342-.42346-.0263-.83416.0207-1.26017.0325-1.10652.0304-2.49216.4859-3.48829.2973-.86492-.1638-2.44016.758-3.16496 1.0553-.08469.0346-.18658.0588-.27686.0787-.69989.1539-2.01485 1.1825-2.44772 1.6302-.44951.465-1.02266.9177-1.38536 1.2929-.54267.5612-.95766 1.1391-1.51639 1.9109-.45609.63-.50969 1.261-.53011 1.8501-.03106.8886-.05642 1.4922.51664 2.0907.57973.6057 1.11508.8926 2.08282.888 1.28687-.006 1.28671-.145 2.48381-.4084 1.59409-.3507 2.67939-.7529 3.1587-1.6766.38398-.74 2.95907-2.0203 3.81704-2.3239 1.12832-.3994 2.13006-.5854 3.36582-.8573 1.13003-.2487 2.34863-.2618 3.30979-.4733.96423-.2122 2.16332.1156 2.9254.2025.78211.0892.65352.6175.62815 1.3439-.02152.6181.34385 1.3805.49671 1.9831.17707.6988.36179 1.4139.53896 2.1128.16899.6663.14813 1.5142.12541 2.1664-.02764.7925-.57166 1.2758-.78648 2.015-.22833.7861-.57358 1.3206-1.01983 2.1805-.28713.5536-.84417 1.24-1.59929 1.5874-1.41864.6529-2.35632 1.7495-3.62603 2.0289-3.54603.5443-9.35788-6.5117-13.31334-3.0507-1.43926.214-1.16419.8573-2.60486.6563-1.11924-.1276-1.41766-.169-2.65883.1041-.96595.2126-1.96339 1.1507-3.02028 1.6372-.06367.0292-.12261.0722-.1859.1024 1.37498.3806 3.30274.689 4.40076 1.5464 2.09768 1.6378 2.17183 1.1344 2.9348 4.1438.65358 2.5782 4.55353 7.9902 5.99559 11.2896.76542-.9124 1.60262-1.7913 2.72511-2.5871 1.47098 21.7282-82.99482 39.4786-41.88308-60.7973.89054-.598 1.86786-1.1798 2.45741-1.9942.81421-1.1248 3.34276-2.5447 4.50119-3.0777 1.05394-.485 2.30581-1.7801 2.99156-2.2805.65496-.4778 2.3832-.7567 3.06956-.9077 1.11212-.2447 2.15651-.3682 3.31036-.4946.81391-.0892 1.64682-.0964 2.47404-.0446z" fill="#eac102" fill-rule="evenodd" stroke-width="1.505501"/><g fill-opacity="0" stroke-width="2.782013" transform="matrix(-.5970443 -.01509207 -.01307071 .4901674 -37.9628 1472.6257)"><path d="m1013.9286 221.29075c.6534.94786 4.2397 2.7334 5.3571 3.57143 1.9238 1.44283 3.5166 2.28026 5.7143 3.92857 1.7858 1.33937 2.657 2.29985 3.9286 3.57143 1.1661 1.16612 1.7503 2.09573 2.8571 3.57143 1.6454 2.19389 3.0511 3.95939 4.2857 6.42857.6925 1.3849 2.2812 2.63834 3.2143 3.57143 2.0616 2.06155.2587 2.91623-1.4286 3.92857-1.6624.99744.7548 4.36664 1.4286 5.71429 1.0996 2.19917 1.5165 3.39013 2.5 5.35714.628 1.25603 1.1283 3.08465 1.4286 4.28571.4492 1.79685 1.9068 4.58852 2.5 6.07143.7034 1.7585 1.1244 2.60587 1.7857 3.92857 1.1642 2.32831 2.3353 5.02776 3.2143 6.78572.8296 1.65919 1.192 3.81268 2.1428 5.71428 1.4129 2.82569 1.3173 7.90349 1.7858 10.71429.4751 2.85103-.0196 3.93835-2.1429 5-2.8058 1.4029-2.8628 1.04865-2.1429 3.92857.4669 1.86746 1.2754 4.08122 1.7858 5.35714.6018 1.50466 1.0714 3.74382 1.0714 5.71429 0 3.4544 2.098 7.67771 2.8571 10.71429.7557 3.0227 1.9743 5.41731 2.5 8.57142.4284 2.5702 2.1429 4.9126 2.1429 7.5 0 2.10674.8607 3.20527 0 5.35715-.701 1.75259-4.9556 1.78571-6.4286 1.78571-2.7469 0-3.9989-2.42967-6.4286 0-1.5413 1.54131-4 3.60718-5.3571 4.28572-2.3191 1.15957-1.3042 4.06905-.7143 6.42857.1191.47619.2381.95238.3572 1.42857.7545 3.01801.0823 3.91043-1.4286 6.42857-1.3081 2.18013-3.4074 3.18149-5.3572 3.57143-.6434.12868-.8582.21455-1.4285.35714-2.3474.46949-4.3505 2.10212-5.3572 2.85714-1.1904.23808-1.668 4.39932-1.4285 5.35715.3657 1.46284.6712 3.04207 1.0714 4.64285.4016 1.60665 2.0083 3.30229 2.8571 5 1.4818 2.96356 3.761 5.022 5 7.5 1.2074 2.41468 3.2133 4.2817 3.9286 7.14286.8937 3.57465 5.0167 6.42857-1.4286 6.42857-3.0174 0-5.5503 0-7.8571 0-1.5738 0-4.4586-4.14056-5.7143-4.64285-1.9733-.78932-3.9327-5.0041-5.3571-6.42858-2.6944-2.69437-4.4208-8.79649-6.4286-12.14285-.6306-1.05101-1.1905-2.14286-1.7857-3.21429-1.5184-2.73313-3.4275-4.07115-4.2857-4.28571-.2171-.05426.7142 3.76374.7142 7.5 0 2.56002 1.0715 4.97671 1.0715 7.14285 0 3.07844 2.8618 7.86643 4.2857 10.71429 1.9623 3.92464 4.6763 9.77673 5.7143 13.92857.8308 3.3235 3.8145 4.88599 5.3571 6.42857 3.1976 3.19758 6.2151 8.81087 8.2143 12.14286.7819 1.30313-5.7085-.17566-6.7857-.71429-2.5658-1.28287-2.7053-4.48959-6.0714-3.92857-2.0064.3344-4.2479 1.68697-6.0715 2.14286-1.6913.42282-1.4591.41828-2.1428 1.78571-1.2568.3142-1.7433 4.77722-4.6429 5.35715-2.1242.42484-2.8146.08514-1.0714 3.57143.8125 1.62501 1.2955 3.03909 1.7857 5 .5413 2.16501 1.3604 4.37007 1.7857 6.07142.4642 1.85677 0 4.50638 0 6.42858 0 1.66046-.7143 3.61168-.7143 6.07142 0 1.331-2.7381-1.30952-3.9285-.71428-2.305 1.15249-3.5715 3.16393-3.5715-.71429 0-2.54929-4.38993-6.14961-5.71426-7.14285-1.89619-1.42215-3.47418-3.94493-5.35714-5.35715-1.86499-1.39874-4.36926-3.92092-5.71428-5.71428-1.59023-2.12031-4.35683-4.85699-6.07143-5.71429-2.26805-1.13402-3.52399-4.7977-5.35715-5.71428-1.5518-.77591-4.05839-6.68822-4.64285-7.85715-2.56035-5.12068-5.09003-10.22506-7.14286-15.35714-1.54801-3.87004-1.42857-2.37152-1.42857.71429 0 2.6822.19827 5.21861-.71429 7.5-.93401 2.33502.35715 6.32067.35715 8.57142 0 2.91789-.97401 4.09088-2.14286 6.42858-.67848 1.35695-3.00995 2.6528-4.28572 3.92857-.85295.85295-1.46092 4.31806-2.85714 5.71428-1.62662 1.62663-2.53138 2.36342-5 2.85715-2.77931.55586-1.07143 2.16858-1.07143 4.64285 0 3.14645.58853 4.47888-2.5 5.71429-1.74768.69907-3.53103-1.32919-5.35714-1.78572-2.90804-.72701.48356 5.98924 1.07143 8.92858.516 2.58002-3.16851 4.79854-5 5.71428-1.33463.66732-2.36999 2.55679-5 3.21429 2.43118 6.3442-3.19665 5.43403-.70089 12.91183-2.34421 26.30927-6.2023 29.04547-15.84274 14.97676 0-3.51127-4.49988-21.00422-5.68056-23.62147-3.94475-8.74455-22.45112-18.3906-22.06153-20.33855.55157-2.75784.12777-6.82345-.71428-8.92857-1.0189-2.54726-.48131-4.88351-2.85714-6.07143-.21296-.10648-.47619 0-.71429 0-.99511 0-4.88026-5.07844-5.35714-5.71429-1.573-2.09733-3.28613-4.4294-4.28572-6.42857-.83154-1.66308.27385-5.73825.71429-7.5 1.0889-4.35559.84851-8.37128 2.5-12.5 1.41108-3.5277 1.58328-7.76168 2.5-11.42857.71168-2.84672 2.0723-5.35933 3.21428-8.21429.83617-2.09041 1.49159-4.53775 2.14286-7.14285.55285-2.21139 1.90927-4.17569 2.85714-6.07143 1.62539-3.25077 2.63684-7.36145 4.28572-11.07143.92089-2.07201 1.90635-3.81271 2.85714-5.71429 1.33898-2.67795 4.48104-5.97471 6.42857-8.57142 2.88757-3.85009 5.65432-8.09435 7.85715-12.5 1.67116-3.34234 6.46855-3.65139 7.85714-6.42858.74328-1.48655 5.62832-3.48546 6.78571-4.64285.90017-.90017 2.99395-1.75787 3.57143-2.14286 2.36022-2.36022 5.17692-2.67692 7.5-5 2.04936-2.04936 3.45046-3.68662 4.64286-6.07143 2.09505-4.1901 5.94145-8.59836 9.28571-12.5.99217-1.15753 1.90476-2.38095 2.85715-3.57143 3.90751-4.88439 8.69455-11.09591 9.64285-16.78571.19541-1.17244.83067-2.36763 1.07143-3.57143" fill="#eac102" fill-opacity="1" fill-rule="evenodd"/><g fill="none"><path d="m1024.2857 244.50504c.0606-.36343 3.5235 3.98368 4.2857 5 1.2849 1.71313 1.8927 2.3567 2.8572 4.28571 1.3158 2.63164 2.4572 5.40489 3.9285 7.85715.8967 1.49448 1.5279 3.05576 2.1429 4.28571 1.0339 2.06777 1.1459 4.80683 1.4286 6.78571.3398 2.37894.2142 4.78535.7143 6.78572.4749 1.89975.8588 4.50668 1.4285 6.78571.8132 3.25275 1.4439 6.81638 2.8572 9.64286"/><path d="m1019.2857 256.6479c.5767 2.30684 4.0361 8.67893 6.4286 11.07142 1.5373 1.53727 2.2664 4.76642 3.5714 6.07143.729.72899 2.0395 3.72181 2.5 4.64286 1.1405 2.28094 1.227 6.33631 1.7857 8.57143.7271 2.90812.58 5.9797 1.0715 8.92857.3846 2.30761 1.0714 4.99468 1.0714 7.5 0 3.26172.7143 6.59944.7143 10v11.42857c0 3.57395-.7143 7.39232-.7143 10.35714 0 2.25931-4.6729-2.07606-5.7143-2.85714-1.8576-1.39321-2.084-3.00627-3.9286-3.92857"/><path d="m1020 271.6479c-2.1296-1.5972.9065 5.24685 1.4286 7.85714.4169 2.08482.3571 5.20777.3571 7.85714 0 3.66883-1.4286 6.48854-1.4286 10.35714 0 2.33587 1.6071 6.96424 3.2143 8.57143 2.0107 2.01065 2.8882 7.62392 3.5715 10.35715.3045 1.21821.4899.97991.7142 1.42857"/><path d="m1039.6429 309.50504c.5665 2.26612 1.8349 6.67465 2.5 10 .7294 3.64708.7142 7.31848.7142 11.07143 0 2.493 1.0715 5.44138 1.0715 8.21428 0 2.37295 1.2838 6.85329 2.1428 8.57143 1.1126 2.22521 1.5404 2.9689 3.2143 4.64286"/><path d="m1015 277.36218c.5986 1.19718.7143 4.43842.7143 6.78572 0 2.69268.3571 5.74491.3571 8.57142 0 2.85464-.1674 5.94849.3572 8.57143.562 2.80995.6746 5.07944 1.0714 7.85715.4593 3.21527 1.7469 6.63025 2.5 9.64285.6449 2.57975 2.3367 4.67343 3.2143 6.42857.9676 1.93523 1.0714 3.53366 1.0714 5.71429 0 1.61922-.7044 3.19458-1.4286 4.64286-.2592.5184-2.4901-5.34482-5.3571-8.92857-1.793-2.24131-4.2132-5.44502-6.4286-8.21429-.3718-.4648-.7143-.95238-1.0714-1.42857-2.039-2.7187-3.9286-8.30896-3.9286-11.42857 0-1.81367-.4118-2.63824 0-4.28572"/><path d="m1013.5714 328.07647c0-2.9857-.0098 6.03202.7143 8.92857.8151 3.26035 1.7592 5.79792 3.5714 8.21428 2.2966 3.06209 3.8286 6.16575 6.4286 9.28572 2.6513 3.18156 4.3808 6.19817 6.4286 8.92857 1.3266 1.76879 2.0081 2.7224 3.5714 4.28571 1.5938 1.5938 3.8653 2.43669 5.3572 3.92858.3035.30351.7142.47619 1.0714.71428"/><path d="m1037.5 373.79075c.0575.05749-3.7607-2.05894-8.2143-4.28571-2.9727-1.48636-4.9547-4.62022-7.1428-5.71429-3.1228-1.56139-6.7573-9.9621-8.9286-12.85714-3.2783-4.37098-5.5645-10.77179-7.8572-15.35714-.7798-1.55961-4.5091-4.45326-5.71424-5.35715"/><path d="m999.28572 343.43361c-.88128-1.76255 1.61868 3.59459 2.49998 5.35714.6667 1.3333 2.1376 3.20732 3.2143 4.64286 1.0489 1.39848 2.2863 2.64349 3.2143 3.57143 1.7921 1.79208 3.8866 4.08616 6.4286 5.35714.8357.41786 1.1136.73538 1.7857 1.07143"/><path d="m1003.5714 353.07647c2.1795 1.08974 3.2303 8.27816 3.9286 11.07143.9662 3.86471-.0646 9.09005-1.4286 12.5-.0884.22106 0 .47619 0 .71428 0 4.58706-1.0714 1.93624-1.0714-1.42857 0-4.36111-2.5124-6.92128-4.2857-9.28571-2.36513-3.15349-5.51836-5.44887-6.42858-10-.4515-2.25748-1.91302-8.11174-2.85715-10"/><path d="m988.21429 354.86218c-.48132-2.40657 1.19047 4.76191 1.78571 7.14286.6838 2.73518.67269 5.06358 2.5 7.5 1.54426 2.05901 2.34495 2.70209 4.64286 5 1.59377 1.59377 2.77814 3.24432 4.64284 4.64286 1.7781 1.33359 1.6854 4.24168 2.1429 6.07142"/><path d="m976.07143 353.79075c1.39317 1.04488 2.53988 7.30238 3.21429 10 .63478 2.53915 3.68059 4.86118 5 7.5.26619.5324.71428.95238 1.07142 1.42857 1.66675 2.22233 2.85776 3.21551 3.92858 5.35715 1.75849 3.51698 3.48801 4.77972 6.78571 6.42857 1.6063.80315 2.85226 2.14041 4.28567 2.85714.1506.07529.2381.2381.3572.35714"/><path d="m978.57143 370.57647c.93095.46547 2.27909 4.55817 3.21429 6.42857 1.295 2.59 1.21218 5.63866 2.85714 8.92857.97657 1.95315.71824 5.3769 1.07143 7.14286.64638 3.2319 1.9033 5.58796 2.5 8.57143.48964 2.44821 2.40609 3.74075 3.57143 6.07142 1.08782 2.17565 4.01863 5.80435 5.35714 7.14286 1.57133 1.57134 2.87374 4.31897 3.92854 6.42857 1.3633 2.72656 4.0135 4.61727 6.4286 6.42857 2.5219 1.89143 5.8529 4.17646 8.2143 5.35715 1.6544.82721 2.3177 1.33742 3.9286 2.14285.1505.0753.2381.2381.3571.35715"/><path d="m978.21429 404.50504c1.09302.54651 2.06332 5.99189 3.57143 7.5 2.28763 2.28763 3.09435 4.88006 5 6.78571 2.14398 2.14399 4.66911 5.02626 6.42857 6.78572 1.63538 1.63538 3.88288 3.16859 5 4.28571 1.89491 1.8949 4.47881 3.13226 6.78571 4.28572"/><path d="m986.07143 417.36218c.48677.24339 2.42519 6.27895 3.21429 7.85714 1.17309 2.34619 2.63206 5.84635 4.64285 7.85715.47619.47619.95238.95238 1.42857 1.42857 1.44463 1.44462 3.05398 4.67939 3.92858 6.42857 1.10688 2.21369 3.05518 3.41234 4.28568 4.64286.4918.49174.7111.47408 1.0715.71428"/><path d="m975.35714 415.21932c.20551.20551.3215 5.57171.71429 7.14286.53163 2.12654 1.36554 4.39074 1.78571 6.07143.44061 1.7624 2.5034 3.93535 3.57143 6.07143 1.0688 2.13759 3.66497 5.09353 5 6.42857 1.56222 1.56222 2.54093 2.89807 3.57143 3.92857 1.41259 1.41259 2.96521 2.96521 4.64286 4.64286 1.53949 1.53949 3.31145 3.05148 4.64286 5.71428.89288 1.78573 3.26028 3.68651 3.92858 5.35715 1.0854 2.71352 1.4286 4.18605 1.4286 7.14285 0 1.54819.3407 3.86301.7142 5.35715"/><path d="m962.85714 367.36218c0 .33336 1.1806 5.1887 1.42858 6.42857.5199 2.59951 1.07791 4.65584 2.14285 6.78572.92458 1.84914 1.08114 5.76285 1.42857 7.5.68888 3.4444 1.9407 6.79244 2.85715 10 .44254 1.54889 2.61241 4.26581 3.21428 6.07143.91212 2.73635 1.07143 5.61354 1.07143 8.57142 0 3.5655-.30103 2.34949-2.85714 1.07143-2.67988-1.33993-4.76674-4.76674-6.42857-6.42857-2.73461-2.73461-4.28639-7.1442-6.07143-10.71428-1.78343-3.56686-3.01958-6.91587-4.28572-10.71429-1.19015-3.57045-2.17192-5.77242-3.57142-8.57143-.2381-.47619-.47619-.95238-.71429-1.42857-1.44683-2.89365-1.33555-5.10794-.71429-8.21429.26412-1.32056.03323-2.63291.35715-3.92857"/><path d="m930 370.57647c.01536-.07679-1.44654 6.10737-2.14286 7.5-1.22292 2.44585-.35714 7.25531-.35714 10 0 4.09001.71429 8.26947.71429 12.14285 0 3.29446 1.25612 8.22654 2.5 10.71429 1.52254 3.04508 1.42881 4.82155 3.92857 6.07143 1.75189.87595 3.60725 1.9822 5.35714 2.85714 3.4172 1.7086 3.21429 1.3371 3.21429-2.5 0-2.92447-.71429-4.35508-.71429-7.14286 0-2.63868-.71428-4.52604-.71428-6.78571 0-2.25187-.71429-6.03186-.71429-9.28571 0-3.29261.35714-6.33226.35714-9.64286 0-3.26034.83085-6.65426 1.42857-9.64286.80811-4.04052 1.50341 1.80275 1.78572 3.21429.51139 2.55694 1.42397 4.63366 2.14286 6.07143 1.15209 2.30419.93192 5.3739 1.42857 7.85714.11904.59524.23809 1.19047.35714 1.78571.59993 2.99968.66394 6.22718 1.42857 9.28572.46136 1.84545.91703 3.66811 1.42857 5.71428 1.06202 4.24805 2.00991 2.67464 2.85715-.71428.7449-2.97961 1.30739-6.30101 2.14285-9.64286"/><path d="m951.78572 410.21932c.04672-.18691 1.07142 5.88806 1.07142 11.42858 0 2.58207.35715 4.99059.35715 7.5 0 3.64236-.71429 5.20663-.71429 8.57142 0 2.33358.35714 4.48407.35714 6.78572 0 .2662.2381.47619.35715.71428"/><path d="m946.78572 421.6479c0 1.3456.71428 6.883.71428 10.35714 0 4.21458-.71428 8.15618-.71428 12.14286 0 2.99854-2.14286 4.17508-2.14286 6.42857 0 1.95936-.08556 2.67111-.71429 3.92857"/><path d="m933.92857 413.79075c0 .8618 1.07143 3.7503 1.07143 6.07143 0 2.42494.35714 4.59213.35714 7.14286 0 2.98272.3185 7.34541 1.07143 10.35714.82627 3.30508.76781 6.6962 1.42857 10 .50587 2.52934 1.80115 4.30629 2.85715 5.71429.93096 1.24128 2.37897 1.84474 3.57143 2.14285"/><path d="m906.42857 380.93361c.51918.69223-1.07143 6.68605-1.07143 8.92857 0 2.04063-.5088 4.75049 0 6.78572.6751 2.70037.71429 6.1509.71429 8.92857 0 2.85524 1.62091 6.09895 2.5 7.85714.41395.82791-4.27474.71977-7.14286-.71429-2.59001-1.295-3.39084-4.95384-5.35714-6.42857-3.2089-2.40667-3.09869 1.55453-4.64286 4.64286-1.56282 3.12564-.81253 2.84519-3.21428-.35714-1.47609-1.96812-.96602-6.49307-.35715-8.92857 1.0749-4.29961 1.42858-10.51522 1.42858-15 0-1.73297.35714-3.2373.35714-5"/><path d="m895.35714 376.29075c0-2.38392.70899 5.01061-.35714 7.14286-1.15988 2.31977-.71428 8.9454-.71428 11.42857 0 3.37979.07106 6.92785 1.42857 9.64286"/><path d="m902.5 412.71932c.21164.42328.69422 4.91972 1.07143 6.42858 1.05245 4.2098 3.50799 8.46569 5.71429 12.14285 1.60128 2.66881 2.72908 5 6.07142 5"/><path d="m898.21429 410.93361c2.38392 0-.93533 4.83011-.35715 7.14286.14723.5889.2381 1.19047.35715 1.78571.60749 3.03746 1.69385 6.602 2.85714 8.92857 1.31469 2.62939 1.79952 3.94238 3.92857 6.07143 1.83331 1.83331 5.16115 3.701 7.5 4.28572.33418.08354 2.88725-1.26506 3.21429-1.42858"/><path d="m890.35714 413.07647c3.0117.75292.10547 6.24161.71429 9.28571.60734 3.03669 1.34035 5.53785 2.5 7.85714 1.40924 2.81849 3.33003 4.5172 4.64286 7.14286 1.29654 2.59308 6.26098 4.02335 8.21428 5 .93127.46564 3.92459-1.78372 4.64286-2.14286.21296-.10647.47619 0 .71429 0"/><path d="m887.85714 411.29075c.29743-.14871.35715 7.53686.35715 9.28572 0 4.27889-.35715 8.25736-.35715 12.5 0 3.91096 2.57275 9.07406 3.92858 11.78571.61455 1.2291 5.01381 2.2356 6.07142 2.5 2.0006.50015 3.19186-.44629 3.92858-1.42857"/><path d="m908.57143 391.6479c2.66637.66659 1.63087 5.24975 2.5 7.85714 1.07866 3.23596 1.41649 6.03519 2.5 9.28571.15522.46566.2381.95238.35714 1.42857.80451 3.21803 3.01356 6.49636 3.57143 9.28572.32226 1.61129 3.03991 5.18276 3.92857 6.07143 1.20538 1.20537 2.68364 5.63767 3.57143 7.85714.27963.69907.47619 1.42857.71429 2.14286.97755 2.93265 1.00173 4.64285 3.92857 4.64285 1.82282 0 3.95764-4.04486 4.28571-5.35714.22884-.91536 1.00061-2.00121 1.42857-2.85714"/><path d="m914.28572 381.29075c.11757-.47029 2.23348 4.02458 3.21428 8.92857.56687 2.83432 1.59364 5.85234 2.5 8.57143 1.34959 4.04876 1.41806 5.43329 3.92857 8.57143 1.46927 1.83658 3.10139 3.98963 5.71429 4.64286 1.2039.30097 2.10757.79475 3.21428 1.07143"/><path d="m926.78572 437.71932c.03929.00983.03355 7.66776.35714 9.28572.11905.59524.23809 1.19047.35714 1.78571.09626.48132.2381.95238.35714 1.42857.05775.23099 0 .47619 0 .71429 0 2.22906 2.10334 4.70921 2.85715 5.71429 1.45087 1.9345 1.5008 4.14326 3.92857 5.35714.2734.1367.86194.57463 1.07143.71428"/><path d="m916.78572 437.71932c2.08247 1.04124 2.30539 5.29301 2.85714 7.5.62641 2.50563.56085 4.58997 1.07143 7.14286.0522.26103.23809.47619.35714.71429 1.77639 3.55277 2.43689 9.68447 3.21429 13.57143.82616 4.13081 4.13154 8.41725 6.42857 10.71428.11904.11905.23809.2381.35714.35714"/><path d="m885.35714 386.6479c.17442.17441-.5096 6.52881-1.07142 8.21428-.77795 2.33385-1.78572 6.61653-1.78572 8.92857 0 3.51794-1.78571 5.25601-1.78571 8.92857 0 3.53009-.71429 7.01632-.71429 10.71429 0 2.31162.68621 5.63004 1.42857 7.85714.80828 2.42482 1.90652 3.9706 3.21429 5.71429 1.34564 1.79419 2.0885 2.0885 3.57143 3.57143 1.57304 1.57304 1.77039.68364 2.5 2.14285"/><path d="m885.35714 438.43361c1.27484 1.27484-.35714 4.68771-.35714 6.78571 0 1.22993-3.77904 3.63786-4.64286 4.28572"/><path d="m916.07143 449.1479c0 .61167 1.70304 5.10912 2.14286 6.42857.66975 2.00925.71428 4.70657.71428 7.14285 0 2.75782.52263 6.18458 1.07143 8.92858.39124 1.95619-.02405 4.54664.35714 6.07142"/></g></g><g fill-opacity="0" stroke-width="2.491418" transform="matrix(-.5899179 .00761201 -.00820622 .619087 -324.17674 1454.5169)"><path d="m495.34375 233.78125 15.375 33.9375.78125-.28125c.10396 1.06466.33346 2.47944.65625 3.125.8944 1.78879.81581 4.45221.34375 6.8125-.54499 2.72492-1.43751 5.58775-1.4375 8.90625 0 .47619.11549.97552 0 1.4375-.67212 2.68851-1.06249 6.41527-1.0625 9.28125 0 2.51431-.34374 3.89202-.34375 6.4375 0 3.44454 1.40624 5.91018 1.40625 8.9375 0 2.13776.51305 5.07279 0 7.125-.93086 3.72345 5.00002 2.09669 5 .375 0-3.38545 2.57485.1879 3.9375-3.21875.71268-1.78171 2.84372-4.82371 2.84375-6.4375 0-1.78968-1.22574-6.14411.375-5.34375.84195.42098 5.36387 3.17852 6.78125.34375 2.18646-4.37293 2.04468 1.89281 4.65625-.71875 3.3634-3.3634 2.37533.03744 4.28125-.34375 1.10483-.22097 3.90622-1.98744 3.90625-3.59375 0-2.72535.375-5.42372.375-7.5 0-2.34182 1.1443-3.58779 3.21875-4.625 1.32971-.66485 4.28125-4.06529 4.28125-6.0625 0-4.01196 1.47613-2.94487 2.84375-4.3125 1.4846-1.4846 3.30686-3.05136 4.28125-5 1.0077-2.01549 1.0436-6.00437 2.875-3.5625.6662.88824 4.62501 3.64392 4.625 1.4375 0-1.75427-.57122-3.75385-1.0625-5.71875-.5635-2.25422-.71877-5.43055-.71875-7.84375 0-2.63436.63508-6.0536 0-8.59375-.5132-2.05283.16765-4.36082-.34375-6.40625-.4753-1.90139-.66219-4.09227-1.0625-6.09375-.8231-4.11524-.8382-2.24441 1.0625-.34375 1.936 1.93605 1.78124 3.114 1.78125 6.0625 0 2.34365 1.4375 6.23454 1.4375 3.21875 0-2.68018.34373-3.74891.34375-6.4375 0-2.26116-.34375-4.58804-.34375-6.78125 0-1.91809-.36245-3.21826-.71875-5-.3554-1.77724-.91225-3.60577-1.78125-5.34375-.8315-1.663-2.1707-4.05782-2.5-5.375-.4138-1.6553-1.644-2.56921-2.5-4.28125-.7808-1.56149-2.05412-2.98324-2.875-4.625l1.75-10.5-3-1.53125c.24392.03727.54438.09813.90625.21875.25463.08488 1.11313.67718 2.09375 1.3125 1.75445 1.13667 4.00671 2.55357 4.6875 2.28125 2.7596-1.10385 1.06248-1.71479 1.0625-4.28125 0-4.57431 3.86466 3.39916 4.28125 2.84375 1.148-1.53076 3.25121-3.43273 2.5-6.4375-.9589-3.8353.8924-.07121 2.875-1.0625.5409-.27046 5.73333-3.17298 5.34375-3.5625-1.2849-1.28494-3.8123-1.24967-4.625-2.875-.2364-.47279-1.59747-2.44303-2.5-4.09375-.03944-.37685-.0989-.73933-.1875-1.09375-.19989-.79957-.06427-1.42498.3125-1.875.01884-.0225.04254-.04077.0625-.0625.22388-.16487.43406-.33678.65625-.5.28749-.15221.6122-.25461.96875-.34375 1.50609-.37652 1.22157-2.15059.53125-3.53125-.50939-1.01877-1.95776-1.73743-2.28125-3.03125-.22328-.89312-.92404-2.13836-1.78125-2.78125-1.34096-1.00572-1.79761-1.78942-3.28125-2.53125-.89479-.4474-1.82661-1.29938-3.03125-1.78125-1.59421-.63768-2.46148-.97209-3.78125-1.5-1.0811-.43244-2.92227-1.10177-4.28125-1.78125-.99745-.49873-2.12663-.89101-3.5625-1.25-1.52081-.3802-3.24912-.30447-5.03125-.75-.39126-.09781-.74751-.16916-1.0625-.1875-.94497-.05502-1.6291.1875-2.71875.1875-1.85953 0-2.8411.5-5.0625.5-2.74068 0-10.83443 1.5-8.09375 1.5" fill="#eac102" fill-opacity="1" fill-rule="evenodd"/><g fill="none"><path d="m523.21429 254.1479c-.1736-.3472.71429 3.67466.71429 5.35714 0 2.2991-.04702 4.37975-.71429 5.71429-1.02192 2.04385-1.18538 3.79933-2.14286 5.71428-.92628 1.85256-.71428 5.29693-.71428 7.5 0 2.59577-.71429 4.52341-.71429 7.14286 0 2.84663-.94308 4.44194-.35714 6.78571.57674 2.30698.21149 4.4174.71429 6.42858.11904.47619.23809.95238.35714 1.42857.34087 1.3635.90736 3.2433 1.42857 4.28571.11905.2381.2381.47619.35714.71429"/><path d="m515.35715 284.1479c.57713 1.15426.59622 5.23613-.35714 7.14286-.84743 1.69484-1.42858 4.31403-1.42858 6.07142 0 3.62505.35715 7.13239.35715 10.71429 0 1.7439.68 3.79145 1.07143 5.35714.43723 1.74894 1.01733 3.35507 1.42857 5"/><path d="m532.14286 238.79076c.18912.75645 1.52768 3.64062 2.5 6.07142.69791 1.74477.62362 4.28019 1.07143 6.07143.54483 2.17931.17328 4.6217.71429 6.78572.70033 2.80134-.71429 5.77533-.71429 8.21428 0 3.48846-.94103 7.70972-2.14286 10.71429-.71637 1.79093-.71428 6.7849-.71428 8.21428 0 2.18311.35714 3.33646.35714 5.35715 0 2.58261 1.16244 4.82487 2.14286 6.78571.86895 1.7379.95085 3.44625 1.42857 5.35714.23013.92052.2159 1.93505.35714 2.5"/><path d="m528.21429 267.71933c.38951 1.55804 1.42857 4.24578 1.42857 7.14285 0 3.15262-.71428 4.75546-.71428 7.85715v7.5 6.42857c0 1.83187.64899 4.02454 1.07143 5.71428.17486.69944.77358.77358 1.07142 1.07143"/><path d="m527.85715 220.21933c.15875.63499 2.33608 3.76465 3.57143 5 1.6057 1.6057 2.23605 4.29093 3.57143 6.07143 1.22061 1.62748 2.11239 4.87813 2.5 6.42857.42841 1.71366 1.10793 4.11112 1.42857 5.71428.56095 2.80478 1.07143 5.67014 1.07143 8.21429 0 2.60317 1.54173 5.69663 2.14285 7.5.54206 1.62616.8771 2.82562 1.78572 4.64286 1.24492 2.48984 1.91007 2.88823 3.21428 3.21428 2.31275.57819.35715-4.75893.35715-7.14286 0-2.73809 0-5.47619 0-8.21428 0-4.16667 0-8.33333 0-12.5 0-2.95301-1.42858-4.98405-1.42858-8.21429 0-1.52918-1.42857-2.51836-1.42857-4.28571"/><path d="m527.50001 212.71933c0-.09814 6.32096 3.04429 7.5 3.92857 1.63177 1.22383 2.51059 2.86773 3.92857 4.28571 1.65345 1.65346 3.53232 3.5421 5 4.64286 1.35701 1.01776 2.77031 3.4846 4.28571 5 1.40397 1.40396 1.63121 4.02485 2.14286 6.07143.56292 2.25168 1.41381 3.30726 3.21428 2.85714 2.28886-.57222 1.42574-4.29706 2.14286-1.42857.514 2.05581.3571 4.25136.3571 6.42857 0 1.98556.6552 4.04939 1.0715 5.71429.3837 1.53471 1.0028 2.93974 1.4285 4.64285.583 2.33173.2574 4.85841.7143 7.14286.439 2.19495.7143 4.44513.7143 6.42857 0 .2662.2381.47619.3572.71429"/><path d="m551.78572 248.07647c0 .43879.66557 4.70771 1.07143 7.14286.5247 3.14823.35714 6.4482.35714 9.64285 0 3.85984-.35714 6.18026-.35714 9.64286 0 1.52396.39875 3.0236.71428 4.28572"/><path d="m547.14286 267.00504c0 2.72938-1.88709 5.55989-2.85714 7.5-1.45741 2.91482-2.14286 3.85746-2.14286 7.14286v9.28571c0 .2662.2381.47619.35715.71429"/><path d="m520.71429 198.79076c0 1.92327 3.63692 1.28274 5.35714 2.14285 1.69188.84594 3.60028 1.70364 5.35715 2.14286 1.57394.39348 3.74897 1.69591 5.35714 2.5 2.54683 1.27341 4.43466 2.21733 6.42857 3.21429 1.33782.66891 2.74984 2.3927 3.92857 3.57142 1.65958 1.65958 3.18284 3.17236 4.28572 4.64286.85985 1.14647 2.34147 1.98433 3.21428 2.85714 1.29493 1.29495 2.34233 2.66009 3.92853 4.64286 2.4146 3.01816 3.7446 5.14061 4.2858 8.92857.1117.78223.3571 1.29413.3571 2.14286"/><path d="m550.71429 215.57647c.19985 1.39894 2.31881 3.56093 2.85714 5.71429.76205 3.04816 1.42858 5.50062 1.42858 8.57142 0 2.09615.35714 4.23977.35714 6.42858"/><path d="m521.78572 189.86218c0 2.27441 4.51131-.71428 6.78571-.71428 2.16707 0 3.628 1.09971 5 1.78571 1.72774.86387 3.65494 1.6489 5.35715 2.5 1.65686.82843 3.70286 2.03001 5.35714 2.85715 1.97841.9892 3.72852 3.01423 5 4.28571.73411.73411 5.91072 5.1531 6.43601 5.67839"/><path d="m555.19127 195.21933c1.59719 1.59719-5.43249-2.14286-7.69126-2.14286-1.64466 0-6.36222-1.64455-7.85715-2.14286-2.67714-.89238-5.81494.24545-8.21428-.71428"/><path d="m562.85719 192.36218c-1.176-.392-4.0298-2.3968-5.7143-4.64285-.7305-.97398-5.53882-2.14286-7.50003-2.14286-2.31605 0-5.69525-1.42857-8.21428-1.42857-3.31942 0-5.96479-.71429-9.28572-.71429-3.28798 0-5.46071-.35714-8.57143-.35714"/><path d="m569.28569 188.79076c-2.867 0-3.4206-4.70835-5.7143-6.42858-2.6692-2.00194-6.5142-4.75357-10.3571-5.71428-4.27035-1.06759-7.80291-4.12117-11.78571-5.71429-2.17852-.8714-5.02176-.71428-7.85715-.71428"/><path d="m570.71429 178.07647c-.3339 0-4.4231-4.76926-6.7857-5.71429-3.4033-1.3613-4.5682-3.57142-7.8572-3.57142-.59519 0-1.19043 0-1.78567 0-1.92298 0-6.568-.78401-7.85714-1.42858-2.16298-1.08149-6.99007-.71428-9.64286-.71428-2.97619 0-5.95238 0-8.92857 0"/></g></g><g stroke-width="1.505501"><path d="m-613.60262 1551.0859c-2.1455-.4192-5.52437-3.7478-7.48549-5.2897-3.10989-2.4452-7.4559-2.8621-11.31892-1.7504-1.33183.3832-.80792 2.9393-1.21189 4.4089-.48538 1.766-6.6837 1.5817-8.19448 2.4935-1.49681.9033-4.40571 1.1184-6.657 3.4044-2.51397 2.5526-4.55908 2.8418-2.27123 5.6612 2.21996 2.7357 3.14373 3.3503 6.55394 2.1742 2.40077-.8279 4.47069-2.085 7.08568-3.6631 2.68673-1.6214 4.48843-1.5349 6.73118.2285 2.27535 1.789 3.82769 4.201 6.19943 6.0658 2.26997 1.7848 5.25829-2.1898 7.96779-2.9695.56591-.1629 1.02499.6073 1.5375.9109" fill="#eac102" fill-rule="evenodd"/><path d="m-634.67827 1549.707c1.12236-.323 4.94343-.673 7.36185-.7651 3.9274-.1495 5.3981 3.0527 7.91418 5.031" fill="none"/><path d="m-648.32204 1561.6183c2.59073-.0986 4.11606-3.8913 6.63227-4.6154 3.60481-1.0373 4.89253.4176 7.53911-2.7108.31583-.3733.26929-.9798.40396-1.4697" fill="none"/><path d="m-616.75257 1563.9151s-.98385-1.6359-1.60254-2.141c-.277-.226-.84327-.2384-1.07871-.5083-.58217-.6681-.33474-2.189-.91716-2.8571-.17642-.2025-.59613-.2183-.80887-.381-.53972-.4136-.96941-1.2737-1.47157-1.733-.401-.3667-.997-.7926-1.47912-1.0434-.87581-.4555-2.15092-.8441-3.1046-1.1167-.79599-.2274-1.87028-.5341-2.70416-.5813-.72924-.0417-1.73416.0036-2.44188.2347-1.07146.3501-2.43005 1.1446-3.27347 1.9214-.42044.3871-.80865 1.0673-1.10155 1.5595-.62535 1.0515-1.51727 2.4733-1.80182 3.6542-.09805.406-.03593.9666-.01537 1.3783.03335.6639.1825 1.535.24691 2.1949.08414.8633.0712 2.0376.23906 2.884.10101.5076.31257 1.1667.52413 1.6326.35294.7766 1.4641 2.4219 1.4641 2.4219" fill="#eac102" fill-rule="evenodd"/><path d="m-630.01956 1558.7848c1.46338 1.0987 3.39865 4.3605 4.57987 6.516" fill="#630b57" fill-rule="evenodd" stroke-linecap="round"/><g fill="none"><path d="m-576.98294 1566.7648c.84244-.5207 1.72935.9373 2.71533 1.124.70825.1342 1.39852.0431 2.04341.1653.43766.0828 1.10066.9579 1.19633 1.3354.18243.7196.21445 1.4096.39614 2.1263.18677.7368.17377 1.249.33704 1.8933.04924.1941.09842.3882.14758.5823"/><path d="m-591.33143 1568.8154c.12342.4869.18249 1.5089.15477 2.3024-.04969 1.4247-.84193 2.7904-.81539 4.1144.01773.8876-.68208 2.043-1.06392 2.5707-.59518.8221-1.2831 1.4578-1.85906 2.2535-.50503.6976-1.079 1.0189-1.46507 1.5521-.39759.5493-.52279.7221-.95298 1.3163-.13932.1926-.17579.8231-.27592 1.1676"/><path d="m-595.05189 1586.7324c-.04999.0693-1.52252.8453-2.03631 1.5549-.35064.4844-.68081 1.0811-.99966 1.6956-.35374.6818-.86019 1.6601-1.28795 2.2509-.47423.6552-.17815 1.9754-.16277 2.7412.01953.9788.18427 1.8549.43775 2.8549.2191.8643 1.28317 1.583 1.91525 1.9151.41869.2201.81244.4269.82464.4333"/></g></g><g stroke-width="1.631382" transform="matrix(-.6505463 .1431504 .1386907 .5470597 -2487.5207 1043.5722)"><path d="m-245.0928 4.35526c-.19849-.0198047-.40163-.0199035-.60923-.0198927-.99558.9296769-1.40804 1.9355714-1.32578 3.0343819.16608 1.0987345.74192 1.8593372 1.90438 2.3664413 1.33359-.0791883 5.73374.5175135 8.37954-1.9766186-.56105-.1902027-7.75338-3.3448941-8.34891-3.4043119z" fill="#e3e4e5" stroke-width="1.410082" transform="matrix(1.6392118 -.1116575 .06740635 1.8461638 -2164.6679 1574.1486)"/><g stroke-width="2.456046"><path d="m-2567.5595 1619.704c2.831 2.6083 3.9063 2.7107 5.8177 2.9929 1.9521.2882 6.5107-1.2186 6.5107-1.2186" fill="none"/><g fill-rule="evenodd"><path d="m-2572.8373 1608.4999s2.3489 2.8143 3.3371 3.1551c4.7255-1.5293 7.6876 1.9108 11.5719-3.4934.5534-1.1456 3.2169-1.4868 4.7735-1.1603.7245.1519 2.5014 1.5306 2.5014 1.5306" fill="#eac102"/><path d="m-1626.25 1596.6211c-1.3489.8407-1.6071 1.9045-1.6071 3.75 0 1.1475.1461 1.8994.5357 2.6786.3809.7619 1.0582 1.2368 1.6071 1.7857.4628.4628 1.3458-2.1559 1.4286-2.3214.5009-1.0018.5357-2.0609.5357-3.2143 0-1.8314-.0632-1.8173-1.4286-2.5-.3238-.1619-.7143-.119-1.0714-.1786z" transform="translate(-938.17812 14.671783)"/></g></g></g><g stroke-width="1.505501"><path d="m-600.52101 1605.2331c.9096 1.0684 2.70622 1.794 3.32124 3.0214.84297 1.6824 2.03785 2.0846 1.98114 4.2116-.02825 1.0601-.5466 2.5151-.88232 3.6496-.37565 1.2694-.3346 2.7333-.37245 4.152-.01909.7174.60108 2.8208.94818 3.6959.42586 1.0736.03593 1.6176.4578 2.4595" fill="none"/><path d="m-568.4014 1565.6173c-.56222 1.927-3.47186.0076-4.17367 2.3793 1.26969.2735 3.71558 5.4383 3.91218 2.1709.10486-1.7434 1.10069-1.0384.26149-4.5502z" fill-rule="evenodd"/><path d="m-583.15261 1572.1355c-.80785 2.1978-1.30179 5.1313-.19572 7.3388.59244 1.1823 1.23022 1.9399 2.00071 3.4777" fill="none"/></g><g stroke-width="1.291804" transform="matrix(-.8742786 -.02209999 -.01826496 .6849583 -169.49765 1470.9358)"><path d="m382.84375 355c-2.68308 5.36881-6.87765 10.04798-8.875 15.6875-1.85451 4.97736-6.81124 8.36724-10.125 12.59375-.27674.59706-.57243 1.19408-.875 1.78125l.125-.875c-.80228.36662-1.5996.73705-2.40625 1.09375-4.85389 2.45141-10.90849 2.94714-15.53125 5.65625-5.75231 1.83153-5.22578 8.62332-10.3125 10.40625-2.75771 3.32244-13.84319 2.4383-9.96875 8.375.94856 6.70591 10.38712 2.80205 10.8125 9.5.56814 6.17026-4.44134 11.3889-2.1875 18 2.25099 8.06357 4.16017-3.85941 7.21875-5.21875-.17643 4.70552-.6161 11.12106 4.4375 14.875 1.79123-3.49323 6.97066-11.78063 8.25446-13.09375l11.29911 2.82143c1.03843.1091 2.64965-2.54055 3.79018-3.10268 4.44151-4.1412 13.27668-2.21267 16.46875-8.28125 2.47842-4.66082 8.22554-7.14871 12.75-10.34375 4.07278-3.26522 6.62646-7.74535 10.875-10.96875 1.62138-5.4437 6.16107-9.64804 9.90625-14.125 2.93384-5.50215 7.53254-10.02012 8.3125-16.15625.82649-7.47024.17158-15.1016-2.25-22.3125-2.35661-6.45187-5.71819-13.49993-13.375-16.71875" fill="#eac102" fill-rule="evenodd" stroke-width="2.125128" transform="matrix(.8375009 0 0 1 179.60117 -173.74624)"/><g fill="none" stroke-width="1.944812"><path d="m517.45563 164.97751c3.16959 1.702 5.61193 4.47595 7.50155 7.48652 2.91168 3.4419 4.8945 7.52834 7.08733 11.43413.77718 1.95078.40951 4.10667.84554 6.13047.34135 3.19446-.32824 6.47633.58504 9.60856"/><path d="m524.24353 180.93198c1.16567 3.01435 3.31112 5.74908 3.37942 9.10311.97217 6.50261.33614 13.11472-.51187 19.59183-.36582 1.85702-.53261 3.77934-1.14172 5.57236-1.00002 1.70835-2.29497 3.5795-1.77553 5.66627.10486 1.28085.38818 2.53712.59273 3.80362"/><path d="m508.49561 167.45322c.16498 1.32043 1.64623 1.64178 2.59676 2.25019 1.7559 1.20032 2.94824 3.01915 3.86415 4.90156 1.4052 2.43923 2.8888 4.91637 3.41714 7.72081.74608 2.69517 2.02753 5.19637 3.02189 7.79738.15187.50761.27829 1.02232.40435 1.5368"/><path d="m507.13803 178.73135c2.50263 6.29016 5.42445 12.42933 7.51568 18.87329.55791 2.77222.35218 5.62334.78546 8.41556.34564 5.09254.56463 10.19651.66729 15.3001.09153 3.31156-.30318 6.60949-.51474 9.90064-.02155 2.12393-.27244 4.28731.23482 6.37685"/><path d="m500.35013 188.63412c.25834 3.41457.79138 6.81362 1.31092 10.18972 1.47186 4.92534 4.15268 9.501 4.67353 14.69088.8235 3.73191 1.25248 7.54337 1.22088 11.36375.34555 3.85245 1.28251 7.88396-.30138 11.60401-1.23314 3.80668-2.71202 6.32207-1.98906 10.41473"/><path d="m501.16467 223.84395c.47204 2.40423 1.803 4.6911 1.48542 7.20913-.0296 1.99795.54697 3.98272.23059 5.98006-.08625 2.01551-.26572 4.02846-.58845 6.01995-.0722.84409-.04558 1.71335.23004 2.52192"/><path d="m492.47617 207.8895c.33293 4.11413 1.85167 8.05056 1.92104 12.19871.32599 3.48559 1.17151 6.88944 1.84142 10.31364.8952 6.35951.73325 12.80021.87552 19.20299-.0938 1.6926-.46739 3.35554-.56523 5.04772"/><path d="m486.77432 213.11595c-1.32703 5.12357.18125 10.3604.29972 15.52734.51838 4.14519 3.54643 7.52677 3.80241 11.74114.67006 4.55233.63399 9.1625.5176 13.74939.01019 1.18544.07138 2.37395.26757 3.54459"/><path d="m481.34402 230.72087c.13055 4.42635 1.26941 8.75941 2.85593 12.87205.94732 3.28176 1.4354 6.67458 1.98756 10.0374.1661 1.72256-.40413 3.37943-.86189 5.00835-.2393 1.22591-.20543 2.50307.09113 3.71604"/></g></g><g fill="none" stroke-width="1.505501"><path d="m-591.00193 1611.3487c.65353 1.3584 2.44942 2.9156 4.0666 4.5091 1.28368 1.2648 2.8579 1.6746 4.12537 2.3074 1.71606.8567 2.40136 2.0665 3.85077 2.7901 1.63448.816 2.2806 2.7951 2.22959 4.7074-.0289 1.084-.10596 1.9161-.33328 2.6843"/><path d="m-584.33276 1626.2049c-.04193 1.5735 1.94955 2.8603 2.51064 3.9801.90554 1.8073 1.91865 1.3066 1.20967 3.7025-.33238 1.1233-.07254 2.2484-.3463 3.1736"/><path d="m-589.8955 1638.5487c-.69871 2.3612 1.82806-2.9805 3.28803-5.5472.22045-.3873.37047-.8065.55563-1.2098.45002-.98.082-3.075.11092-4.1587.03964-1.4874.19402-2.9951-.14406-4.4099-.44845-1.8765-.92859-3.3107-1.18362-4.681-.05073-.2727-.45387-.6736-.50342-.7471"/><path d="m-579.72416 1620.2016c-.32677-1.7558 3.61702 1.1279 5.4525 1.6065 1.50802.3933 1.88595 1.4358 3.61538 1.8049.26361.0563.74669.1948 1.03943.2712"/><path d="m-605.45181 1692.0099c-.71572.6704-2.92702 2.3478-3.76541 3.8215-.57404 1.0091-.57055 3.0411-.89541 4.1388-.09581.324-.19174.648-.28756.9719-.49055 1.6578-1.3075 3.7508-1.70599 5.0975-.19529.6598-.89045 1.5654-1.09824 1.9307"/><path d="m-617.95774 1699.7719c-.4001 1.3522-2.77314 3.1998-3.28152 5.3025-.38918 1.6097-1.21631 3.3041-1.95444 4.6017-.53012.9319-1.34979 1.6733-1.9023 2.6446"/><path d="m-632.11805 1700.8827c-.6192 1.0886-1.14325 3.6223-1.19606 5.6001-.04561 1.7124-.0913 3.4248-.13693 5.1372-.0522 1.9569-.10441 3.914-.15655 5.871"/><path d="m-557.06352 1643.7849c.55556 1.5168 2.0065 3.747 2.98798 5.7057.91085 1.8178 2.57076 1.7265 2.51072 3.9802-.0599 2.2454.92394 4.6041.8568 7.1207-.04349 1.6308-.08696 3.2617-.13043 4.8925-.06005 2.2508-.02958 2.692-2.42533 2.6314-1.99555-.0504-2.69004-.8931-3.87036-2.0561-1.0926-1.0766-1.7323-2.1692-2.51714-3.7356-.78152-1.5597-2.91831-2.5754-3.82475-3.7685-.60825-.8008-1.10596-1.1719-1.79136-1.5141"/><path d="m-581.2832 1678.6677c-.20053 1.1938-2.25836 3.4029-2.75201 5.071-.64014 2.1634.43597 3.2783.37947 5.3951-.06402 2.4036.3131 3.5886-.15652 5.871-.08143.3959-.40227.8759-.55562 1.2099"/><path d="m-588.38237 1689.7486c-.15824.7694-1.54988 3.6574-2.22242 4.8397-.86299 1.517-1.09755 3.5615-1.9675 5.0909-.2387.4196-.54477.8022-.81718 1.2034-.73183 1.0777-1.98232 1.8527-2.6998 3.114-.09154.1609-.18301.3218-.27456.4827"/></g><g stroke-width="1.78173" transform="matrix(-.8623777 -.05906446 -.06902752 .8231776 -311.08901 1127.32)"><path d="m365.778 836.50684c17.92813 5.5485 39.7714 4.6231 49.44979-15.19063 28.1356-62.94966.62055-63.00841 13.89312-106.27798 9.46133-26.91445 45.2365-39.78699 53.5255-85.77682-.09912-19.598-6.1963-28.049-18.01459-32.59011-6.8375-1.04666-32.72216-7.78801-39.33848 14.81037-2.47628 1.24793-16.28496 8.39774-23.27339 16.66389-7.00288 8.28267-13.55098 18.53525-12.56609 40.48437.53948-2.22958 1.27777-4.37204 2.10696-6.44479-.85965 2.26268-1.52903 4.57485-2.0853 7.00759-.00967-.19852-.01202-.36621-.02166-.5628-.03943.1635-.10037.21661-.13804.38124-1.38755 6.00277-2.86538 24.65776 7.26944 24.60081.02067.03285.0778.00433.09946.0363 2.63001 3.91353 5.36466 5.25586 9.76136 5.10257 4.4041-.15382 3.73925-3.86461.70688-5.84583-3.77357-2.4655-5.0752-5.04424-3.18957-14.54252 1.85065-9.32822 12.47867-13.50278 23.05914-30.55249 10.23594-16.49481 11.38577-14.25402 10.05868-31.84282 14.11372-10.91455 28.17246-7.31217 31.43011 11.71324-4.62947 35.68603-30.56037 36.80924-53.88922 83.9795-10.75305 28.75457 1.97522 49.66533 1.34253 64.1781-.73683 16.87487-5.05735 31.61231-13.87931 43.33456-7.41449 9.85085-32.11054 5.37735-39.43103-1.43833" fill="#eac102" fill-rule="evenodd" stroke-linejoin="round"/><path d="m420.68251 633.90223c.29356 5.8367-2.41196 13.06768-7.68321 17.05718-2.25557 1.70709-5.30758 6.90664-7.68321 9.30392-1.25941 1.2709 0 11.27263 0 13.18056" fill="none"/><path d="m412.9993 648.63343c-.80473.81206-9.29814 6.28162-13.06145 10.07925-4.28202 4.32107-5.43531 6.74762-3.84161 13.18056 1.07932 4.35665.76832 9.2059.76832 13.95588 0 3.5417-.30628 4.49478-1.53664 6.97794" fill="none"/><path d="m422.23906 787.65899c8.9653 21.94091 12.91535 18.60525 16.67631 14.31677-4.28369.39314-7.71758-4.7232-9.04585-13.74128l-5.7241-8.70189c12.38526 15.46465 14.29997 6.69089 18.7968 4.61549-12.95385-.57156-14.35664-10.76332-16.72058-18.76235 7.08386 14.05 12.14036 7.39575 15.79162 2.86084-7.64433 1.28614-16.09665-4.14123-15.36113-15.28876" fill="#eac102" fill-rule="evenodd" stroke-linecap="round" stroke-linejoin="round"/></g><g fill="none" stroke-width="1.505501"><path d="m-569.5352 1632.2444c2.36025 1.7593 5.51918 6.9008 6.60519 9.5726.36943.9087 5.66449 3.559 6.18711 3.8141"/><path d="m-568.58746 1639.5838c.40855 1.0052 4.73476 6.4477 7.1765 9.587 2.8151 3.6195 1.6112 3.8983 1.50508 7.8761-.04177 1.5666-.08355 3.1331-.12533 4.6997"/><path d="m-551.28036 1655.1748c-.09842 3.6925 6.64233 4.7012 8.36095 8.0494 1.61236 3.1413 3.28524 5.306 5.53221 6.9328 2.96968 2.1501 4.65148 3.6567 3.83218 6.3673"/><path d="m-555.79566 1631.5466c3.38919 2.4537 5.65665 2.2655 5.50438 7.9772-.05996 2.2478-1.2427 4.1109-1.88107 6.2229"/></g></g><g transform="translate(-141.95192 -108.39965)"><g fill-rule="evenodd"><g stroke="#000"><g fill="#cf142b" stroke-linejoin="bevel" stroke-miterlimit="3.8637" stroke-width=".341306"><path d="m-464.28891 502.75082a9.3158293 3.3807445 0 1 1 -18.63166 0 9.3158293 3.3807445 0 1 1 18.63166 0z" transform="matrix(.7194671 0 0 1.08174096 2.02957 1307.101635)"/><path d="m-464.28891 502.75082a9.3158293 3.3807445 0 1 1 -18.63166 0 9.3158293 3.3807445 0 1 1 18.63166 0z" transform="matrix(.7194671 0 0 1.08174096 2.02957 1303.495832)"/><path d="m-464.28891 502.75082a9.3158293 3.3807445 0 1 1 -18.63166 0 9.3158293 3.3807445 0 1 1 18.63166 0z" transform="matrix(.7194671 0 0 1.08174096 2.02957 1299.890029)"/><path d="m-464.28891 502.75082a9.3158293 3.3807445 0 1 1 -18.63166 0 9.3158293 3.3807445 0 1 1 18.63166 0z" transform="matrix(.7194671 0 0 1.08174096 2.02957 1296.284226)"/><path d="m-464.28891 502.75082a9.3158293 3.3807445 0 1 1 -18.63166 0 9.3158293 3.3807445 0 1 1 18.63166 0z" transform="matrix(.7194671 0 0 1.08174096 2.02957 1292.678423)"/><path d="m-464.28891 502.75082a9.3158293 3.3807445 0 1 1 -18.63166 0 9.3158293 3.3807445 0 1 1 18.63166 0z" transform="matrix(.7194671 0 0 1.08174096 2.02957 1289.072619)"/><path d="m-464.28891 502.75082a9.3158293 3.3807445 0 1 1 -18.63166 0 9.3158293 3.3807445 0 1 1 18.63166 0z" transform="matrix(.7194671 0 0 1.08174096 2.02957 1285.466816)"/><path d="m-464.28891 502.75082a9.3158293 3.3807445 0 1 1 -18.63166 0 9.3158293 3.3807445 0 1 1 18.63166 0z" transform="matrix(.7194671 0 0 1.08174096 2.02957 1281.861013)"/><path d="m-464.28891 502.75082a9.3158293 3.3807445 0 1 1 -18.63166 0 9.3158293 3.3807445 0 1 1 18.63166 0z" transform="matrix(.7194671 0 0 1.08174096 2.02957 1278.25521)"/><path d="m-464.28891 502.75082a9.3158293 3.3807445 0 1 1 -18.63166 0 9.3158293 3.3807445 0 1 1 18.63166 0z" transform="matrix(.7194671 0 0 1.08174096 2.02957 1274.649407)"/><path d="m-464.28891 502.75082a9.3158293 3.3807445 0 1 1 -18.63166 0 9.3158293 3.3807445 0 1 1 18.63166 0z" transform="matrix(.7194671 0 0 1.08174096 2.02957 1271.043603)"/><path d="m-464.28891 502.75082a9.3158293 3.3807445 0 1 1 -18.63166 0 9.3158293 3.3807445 0 1 1 18.63166 0z" transform="matrix(.7194671 0 0 1.08174096 2.02957 1267.4378)"/><path d="m-464.28891 502.75082a9.3158293 3.3807445 0 1 1 -18.63166 0 9.3158293 3.3807445 0 1 1 18.63166 0z" transform="matrix(.7194671 0 0 1.08174096 2.02957 1263.831997)"/><path d="m-464.28891 502.75082a9.3158293 3.3807445 0 1 1 -18.63166 0 9.3158293 3.3807445 0 1 1 18.63166 0z" transform="matrix(.7194671 0 0 1.08174096 2.02957 1260.226194)"/><path d="m-464.28891 502.75082a9.3158293 3.3807445 0 1 1 -18.63166 0 9.3158293 3.3807445 0 1 1 18.63166 0z" transform="matrix(.7194671 0 0 1.08174096 2.02957 1256.620391)"/><path d="m-464.28891 502.75082a9.3158293 3.3807445 0 1 1 -18.63166 0 9.3158293 3.3807445 0 1 1 18.63166 0z" transform="matrix(.7194671 0 0 1.08174096 2.02957 1253.014587)"/></g><g stroke-width=".476787" transform="matrix(.9179052 0 0 .9496873 -278.55359 1302.9322)"><path d="m-75.214091 519.36509h9.853246v-199.7196l-4.926623 8.75963z" fill="#f2f2f2"/><path d="m-55.507599 519.36509h-9.853246v-199.7196l4.926623 8.75963z" fill="#b3b3b3"/></g><path d="m-329.77751 1856.8791c0 4.9357-4.00076 8.9367-8.93587 8.9367-4.93517 0-8.93593-4.001-8.93593-8.9367 0-4.9355 4.00076-8.9366 8.93593-8.9366 4.93511 0 8.93587 4.0011 8.93587 8.9366z" fill="#3771c8" stroke-width=".326078"/></g><path d="m-334.54342 1856.8791c0 2.3034-1.86695 4.1706-4.16996 4.1706-2.30307 0-4.17015-1.8672-4.17015-4.1706 0-2.3033 1.86708-4.1704 4.17015-4.1704 2.30301 0 4.16996 1.8671 4.16996 4.1704z" fill="#cf142b" stroke="#fff" stroke-width=".326078"/><g stroke="#000"><path d="m-305.68506 1796.5683c-.53095.7937-.72133.4126-2.14795 3.5634-.78112 1.7438-1.07113 3.5815-2.27709 5.3954-1.74111 2.5525-6.33941 3.5984-7.59959-.2343-3.33657-9.9075 10.38628-9.0553 12.02463-8.7245z" fill="#eac102" stroke-width="1.505501"/><path d="m-402.02611 1778.0105s10.73442 4.2333 15.62046 7.2336c3.14939 1.9338 10.87967 5.7465 10.87967 5.7465l.88601-.3056c4.01047.9956 18.45766 9.7079 23.47087 12.2622 5.8236 2.9893 15.01453 8.6014 22.80523 5.7209 3.66925-1.3557 2.74847-6.2724 9.88382-6.9737l-.24517 2.7874c-.81684.0274-1.42591.123-1.94469.3017l7.53674-.2524 4.02181.5353.55116-1.5953c5.7412 1.3062 9.17583 8.1722 5.8098 11.6318 1.7759.3623 3.21297 1.3348 4.56354 2.5673l.38844.3615c.24579.2356.49198.4752.73466.7243.90251.9457 1.10294 2.169 1.16373 2.9373.04051.5123-.05336 1.0829-1.53047.7215-.27404-.0719-.45526-.1034-.60357-.1375l-.19385 3.4362.54118 6.8412 1.11646.1991c.64373 2.9062-.66417 3.9771-2.61861 5.4294-1.02681.7534-3.09363 1.3884-3.8554 1.568-1.32126.3011-1.96345.6912-2.68874 1.3319l-.90641-1.2903-1.19458 4.9678-3.989 3.0902-4.78455 2.1314.9791 1.406s-2.05548.9243-2.56738.9928c-.66264.1249-2.21627.1417-3.3676-.0252-2.50901-.3268-4.56744-.8291-6.23689-2.314-4.11587-3.756-5.0966-5.1192-5.45361-10.875-1.49893-.0342-3.02165-.056-4.56227-.1429-1.57686-.1201-2.67272-.5529-3.83067-1.3303-.05972.2149-.11887.4238-.20669.5983-.75961 1.5149-1.97248 2.6273-2.39631 3.1551-.66562.7414-3.69579 2.2801-4.72367 2.3659l.31361-1.9224-3.81894.4236-4.82093-.4692.4604 2.0739c-1.60976-1.3843-3.71897-1.3128-5.1002-3.732-1.07461-1.813-1.37239-4.4159-1.37564-6.4189-.04269-1.8477-1.09018-1.3505-2.45599-1.6129-4.40294-.7257-5.79393-1.2896-7.03517-.6316-2.28427 1.2065-.99218 5.9753 1.22051 7.1339-.19827.1092-3.07452-.9567-3.72201-1.2946-3.0747-1.5919-3.99766-4.7465-5.0255-4.6607-.51597.0172-.52057-.0386-.90091.385-.34092.2681-.33721.9401-.23293 1.6043.10428.6643.23338 1.5232.16772 2.6554-.28793 3.5536-3.83012 9.8898-5.61272 9.5901-.24205-2.4059-.25926-1.9393-.38082-3.4761-.1094-1.3831-.15544-2.0538-.40748-3.2781-.20046-1.226-.32757-2.8609-1.11881-3.7075-1.07759-1.1966-3.7096-2.2943-4.86199-3.1289-.93386-.6877-3.50955-2.5624-3.7362-2.8117-.56024 2.0733-1.27371 4.0603-2.85483 5.6541-.81632.7978-5.26354 4.8487-6.16012 2.6702 1.97737-4.4321 1.69801-9.2433.00535-10.368-3.8184-2.4916-6.86219-4.4484-8.02082-6.6695-1.03518-1.9684-2.82763-4.9417-3.45193-5.6399-.34278 1.5524-1.9663 4.431-2.74615 5.6899-.41574.6302-7.06684 3.9527-8.58062-.8954" fill="#eac102" stroke-width="1.505501"/><path d="m-368.09005 1787.3007c-2.40441.2391-4.29288 2.5195-4.29288 5.2686 0 2.7719 1.9021 5.0615 4.33491 5.2685.02002.0018.06418-.0013.0842 0h.71548 57.0699.04204c.1196.0103.25684 0 .37882 0 2.60195 0 4.71373-2.3602 4.71373-5.2685 0-2.9082-2.11178-5.2686-4.71373-5.2686-2.60208 0-4.71374 2.3604-4.71374 5.2686 0 .9543.23382 1.862.63128 2.6343h-49.74674c.39746-.7723.63128-1.68.63128-2.6343 0-2.9082-2.11179-5.2686-4.7137-5.2686-.14224 0-.28174-.0138-.42085 0z" fill="#3771c8" stroke-width=".75275"/><g fill="#eac102" stroke-width="1.505501"><path d="m-348.96737 1850.7271c-1.78528-.3459-4.16141-.1289-6.6511-3.0361-2.29649-2.7141-3.66737-6.795.77265-8.7094 1.0663-.4773 2.00352-.4545 3.01733-.2354.89723.2225 1.36475.8545 2.06543 1.4797.647.6764.77854 1.4669.85179 2.2591.07782.8417.01617 1.4392-.19741 2.2892-.4593 1.3535-.24993 2.9856-.1126 4.4709.20936 1.6322.06868.7427.25391 1.482z"/><path d="m-311.90763 1858.1174c-.22171-.7855-.4103-1.0759-2.1042-3.6398-.89407-1.3546-2.5597-2.2318-3.32153-4.1376-1.01575-2.5411.19208-6.61 3.07749-5.8307 7.40993 2.0396 3.08331 12.5861 2.34824 13.6081z"/><path d="m-289.14878 1834.3854c-1.41919-1.1704-4.95711-2.418-8.18478-1.9128-2.05336.3322-5.05713-1.942-4.8498-5.0151.38243-5.9679 4.00204-7.0218 7.34653-4.7048 1.67225 1.1585 4.30814 5.1584 5.04104 7.6571.20183.5796.57414 2.683.64701 3.9756z"/></g></g></g><g fill="none" stroke="#000" stroke-width="1.505501"><path d="m-302.59001 1815.0109c-.52383.0666-1.8683-.0375-2.68846.2256-.65685.2107-1.48436.1426-2.03337.3187-1.13172.363-2.28213.732-3.38784 1.0867-.67862.2177-1.31188.6028-1.89373.7894-.77352.2481-1.54182.5999-2.32517.8065-.57976.1529-1.34203.0532-1.9414.0769-.71793.0284-1.4136.1647-2.06516-.1563-.81172-.4-3.05382-.5935-3.93049-.5587-1.24006.0491-2.61708-.6006-3.7545-1.161-.06668-.0329-.14381.0057-.21571.0085-.50072.0199-.99029-.6602-1.24203-.7842"/><path d="m-323.33693 1823.9705c-.03541.0014 1.75528 1.8461 2.09236 2.1794.84719.8375 1.85024 1.4066 2.84736 2.1494 1.05227.7839 2.26303 1.4131 3.4786 1.8863 1.46991.5723 2.56526 1.2994 4.01789 1.865.85453.3327 1.41862 1.1132 2.05264 1.5856.50621.3771 1.11013 1.5734 1.32148 1.9717.31921.6016.52881 1.6193.79015 2.1119.31061.5854.31741 1.5115.36667 2.2477.02965.4433-.18419.7033-.26001.9628"/><path d="m-331.393 1832.7973c.01465.219-.62317 1.359-.75162 1.6967-.213.56-.33877.7839-.44394 1.4464-.10873.685-.18955 1.3629-.29636 2.0358-.10982.6919-.24728.9294-.44393 1.4464"/><path d="m-341.6959 1837.0716c-.11604.731 1.00141-1.1959.95144-1.9428-.05032-.7521-.10064-1.5041-.15096-2.2562-.04539-.6785-.29119-1.3495-.45068-1.8872-.19254-.6491-.6774-1.088-.87417-1.7514-.20093-.6773-.70287-.9801-.86622-1.6326"/><path d="m-362.13905 1825.1743c-.00167-.0057-1.06788 1.7005-1.27501 1.9555-.38648.4759-.32865 1.5622-.51207 2.0444-.21434.5635.02365 1.539-.0727 2.1461-.05447.3431-.01198.859-.03635 1.073"/><path d="m-310.36819 1828.6956c-.11002.6932-1.4169.3737-1.66214 1.0184-.2314.6083-.33658.881-.42805 1.6839"/><path d="m-313.34282 1817.7004c-.24208.8552-.75912 1.7031-.28842 2.8952.05535.1402.01589.3191.02384.4786"/><path d="m-381.34336 1797.4067c.59241.1416 3.2759 2.8272 4.58437 3.8667 2.0682 1.6429 4.24526 2.0907 6.52579 3.7897 1.57864 1.176 4.84643 1.748 6.43043 2.3647.62614.2437 1.70359 1.2405 2.05265 1.5856"/><path d="m-379.64589 1818.7406c3.20896 1.2494-6.84092-.2576-10.04987-1.5069-2.4896-.9693-5.75692-.2057-8.0767-1.1089-.83893-.3266-1.21853-1.4664-1.66888-2.3152"/></g></g></g></svg>