<svg height="872.27856" width="721.10675" xmlns="http://www.w3.org/2000/svg"><g transform="translate(-14.28647 -171.9402)"><path d="m14.981827 173.7654.967628 435.88339 717.979315-.96649v-433.95042z" fill="#e60000"/><path d="m16.145361 557.8804 45.78535.24097.240976 24.33853 42.893643.24097.48195-24.82047 52.53267.24097v24.33853l43.13462.24097.72292-25.30242 52.53267.72292v24.33853l42.65267.48195.48195-25.78438 52.77364.24097.48195 25.54341 43.13462.48195v-25.30243l52.77364-.24097.48195 24.5795 42.65267.24097.48195-25.5434h52.29169l.24098 25.06145 42.65267.72293.72292-25.06145h52.29169l.96391 24.09755 41.44779.24097v-25.06145l53.25559.24097-.24097 51.32779h-717.625134z" fill="#eab655"/><path d="m15.904385 609.69013v60.48486l3.132682 14.21756 711.359763-.24098 2.89171-12.28975.24097-63.13559z" fill="#eab655"/><path d="m19.76587 684.30805c5.679551 37.60867 24.033509 75.21733 43.62123 112.826l24.536943-1.72818c15.361927-2.03634 30.607727-8.02291 46.048997-13.93029 13.01326-4.97849 26.24858-7.11004 40.02993-8.52056 10.38008.01598 20.7489.35718 30.10788 2.99003 24.90292 7.00565 47.61672 18.28206 73.29291 20.1424l22.83778-2.59407 47.42178-15.64877 34.98635-3.68472 29.30162 2.51142 18.92855 6.35217 11.23026 6.14102 24.49106 6.72332 22.48871-.76883c9.00347-3.25285 18.42589-5.64737 27.39794-9.07308 16.71013-6.38025 33.04785-13.36287 50.58819-15.17698l28.41176 4.18398 60.97232 19.26985 30.17504 2.44628c28.55081-51.14103 36.46193-82.08286 43.62123-111.77941z" fill="#091865"/><path d="m122.84299 872.38326c5.39642-2.27014 7.99828-5.08961 10.49444-6.53596 6.82085-3.95221 5.90879-2.89146 9.31613-3.81093 2.42208-.65359 6.85814-3.31931 18.5636-4.95063 3.0094-.4194 6.48843-.16706 10.5173-.74063 12.86758-1.83191 31.61084 1.2993 48.21146 6.43294 20.86785 6.45325 40.12944 16.40751 60.17651 15.59835 13.8827-.56035 26.12574-1.55812 38.20002-5.88506 15.56142-5.5766 30.83677-14.93115 48.99206-16.97792 30.71604-3.46283 59.92508 14.51754 80.13557 22.40276 7.85144 3.06328 15.58234 4.2279 22.84237 3.27223 7.12689-.93815 13.57832-.17687 19.58594-2.15822 19.82852-6.53957 34.86346-19.067 53.31132-21.84433 35.77664-5.38618 55.51725 5.13123 83.86548 15.92033-3.47233 2.79956-5.18991 5.3361-7.75469 7.91441-2.38557 2.39815-5.63408 4.83243-8.36018 7.5481-7.59977 7.57065-16.88532 16.35842-24.75516 23.42436-11.58725 10.40362-25.36136 19.27078-39.09344 29.54301-50.17252 37.53134-111.23035 73.21913-172.22177 101.28393-40.5682-20.2911-91.0508-46.02715-143.28681-81.79378-2.81778-1.92937-6.36359-3.64695-9.19029-5.63542-24.85068-17.48137-52.26899-35.78556-76.60995-60.13437-2.20083-2.20155-4.81345-5.14688-6.9232-7.03947-5.43764-4.87792-10.01344-9.88859-16.01671-15.8337z" fill="#091865" opacity=".910526"/><path d="m62.894613 795.72324c7.791542 1.4076 15.583085.90704 23.374627-.24097 5.857143-1.63856 11.734191-1.63288 17.61448-3.3409 11.01982-3.20085 21.36946-8.15297 32.30242-11.47848 13.05654-3.97144 26.17259-5.96301 38.7621-8.07329l12.75387.40685 14.33958 2.50509 44.3019 14.9674c9.69715 2.45073 19.39429 6.37357 29.09144 5.2543l14.18084-.3554 22.12784-5.04722 42.9335-14.759 28.71486-2.00813 24.21263 2.01164c7.61848 2.14413 13.45109 4.28827 19.89895 6.4324l22.96097 9.85291c7.0415 1.89491 14.08299 4.41178 21.12449 3.8728 12.24836-.84023 25.65831-2.48096 37.76724-6.48367 11.65384-3.85227 22.00208-10.018 34.00613-13.44331 4.90045-1.39832 9.36689-3.04984 14.50705-3.61217 3.78372-.41393 8.20412-.09709 11.91805-.39096 15.02068-1.18855 32.97826 6.68639 49.8637 11.28819 12.45438 3.3942 25.13734 7.96608 37.80416 10.22777 5.42372.96841 10.86242 2.95934 16.31993 3.39674 3.92314.31444 7.85601-1.16203 11.80001.22229-10.34124 23.73082-29.97744 47.34771-59.27998 76.38924-18.42314-7.26274-32.18792-16.11154-65.84479-17.45005-15.36887-.97472-26.22932 4.03548-49.89942 13.31179-13.97075 7.06795-26.67815 13.82341-40.6489 12.81338-3.68204-.25737-6.48037-.67367-10.05225-1.08996-2.84643-.33173-6.35998-.57551-9.92765-1.37674-4.31426-.96889-8.9867-3.75245-14.98445-7.42874-17.2636-9.04676-35.92018-16.10355-59.49806-16.12991-14.75154-1.17245-28.26102 2.34976-42.20676 10.431-21.31238 12.35004-46.61233 12.61568-52.01468 11.73874-12.25956-.39595-25.09587-1.80123-40.95052-8.4886l-34.69479-11.56392-30.14294-2.11723c-17.30563 1.27648-34.80712 4.94832-53.01462 16.14537l-32.133569-36.62233z" fill="#bbbbba" opacity=".910526"/><g fill="none" stroke="#000"><g stroke-width="2"><path d="m158.48995 557.41608v51.56876"/><path d="m158.97191 557.65705h-54.46047"/><path d="m104.99338 557.41608v25.78438"/><path d="m105.2635 582.71851h-43.1173"/></g><path d="m733.87512 174.97173-.5625 496.84191c-12.50265 59.2728-34.68823 119.02442-87.50005 180.47102-52.81183 61.44661-136.2425 124.56855-271.2502 190.52844l.4375.9058c135.08787-65.99906 218.63227-129.22495 271.56269-190.80956 52.93043-61.5846 75.22608-121.53439 87.75007-180.9083v-.03123-.06246l.5625-496.93562z" stroke-width=".999747"/><path d="m19.424079 684.66666h711.928641" stroke-width="2"/><path d="m15.871957 655.37287 717.499433-1.01143" stroke-width="1.999"/><path d="m15.785317 609.4109 717.586043-1.01137" stroke-width="2"/><path d="m15.786467 172.46927.5625 498.03418c12.50265 59.41496 34.68821 119.30998 87.499993 180.90409 52.81179 61.59401 136.2424 124.86749 271.25001 190.98556l-.4375.9081c-135.08778-66.15754-218.63212-129.53511-271.56251-191.26747-52.930383-61.73237-75.226013-121.82607-87.749993-181.34243v-.03131-.06261l-.5625-498.12811z"/></g><path d="m565.71875 771.1875c-17.9866.17987-34.06256 9.05277-53.1875 16-14.25267 5.17735-31.7673 9.31592-44.875 8.0625-16.0354-1.53338-31.49749-11.30104-48.5-16.84375-14.16466-4.6176-29.71991-5.17831-43.59375-5.25-16.62563-.08593-32.33063 5.61458-48.46875 11.25s-32.69203 11.18106-51.03125 10.9375c-14.83721-.19705-31.2263-6.27177-48.125-12.15625s-34.32628-11.57408-51.375-10.78125c-13.67563.63596-26.42076 3.17361-42.875 8.9375-18.94272 6.63562-38.366831 16.39762-70.28125 14.25l-.0625 1c32.144019 2.16307 51.80121-7.7076 70.65625-14.3125 16.38846-5.74085 29.0119-8.2434 42.59375-8.875 16.79592-.78107 34.14638 4.83909 51.03125 10.71875s33.30612 12.0182 48.40625 12.21875c18.54924.24635 35.22963-5.36205 51.375-11s31.76288-11.27223 48.15625-11.1875c13.85029.07157 29.29881.6293 43.28125 5.1875 16.8415 5.49022 32.34577 15.34059 48.71875 16.90625 13.39665 1.28106 30.97351-2.91629 45.3125-8.125 19.21219-6.97892 35.18145-15.76087 52.84375-15.9375 21.7843-.21784 41.62463 7.26348 63.03125 14.125 17.73611 5.68498 36.73179 10.94663 56.90625 10.96875l.03125-1c-20.00162-.02194-38.94764-5.26133-56.65625-10.9375-14.98453-4.80303-29.25244-9.93675-44.02976-12.50151-6.30318-1.09399-12.69905-1.72058-19.28274-1.65474z" fill-rule="evenodd"/><g fill="none" stroke="#000"><path d="m122.68444 872.76567c13.94545-8.53536 28.76571-16.44586 55.20859-16.05448 27.49791-.96447 45.06068 6.35327 66.45974 14.54515 51.55861 19.73742 94.45096-7.44022 97.44304-8.78694 22.22686-10.00419 43.73659-6.18604 60.85987-2.68713 8.18995 1.6735 32.19919 11.38709 43.90438 18.31338 3.24696 1.92131 18.51284 4.55901 33.93921 3.13047 15.36364-1.42273 45.34489-21.93495 64.85141-24.49448 28.2601-3.70811 49.37912 3.24588 66.56447 10.09264 4.7698 1.90033 11.21765 4.66244 15.18166 6.18183" stroke-width=".999454"/><g stroke-width="2"><path d="m105.06533 609.03925v45.74818"/><path d="m202.41945 609.59317v45.41463"/><path d="m298.32771 609.19391v45.41463"/><path d="m395.19987 609.19042v45.08083"/><path d="m492.07203 608.24428v46.74925"/><path d="m587.98029 608.70839v45.08098"/><path d="m684.85246 608.24428v46.74925"/><path d="m61.683146 655.34083v29.6488"/><path d="m156.42301 654.82964v29.6488"/><path d="m254.22998 654.91233v29.6488"/><path d="m351.01459 654.87099v29.6488"/><path d="m447.11761 655.15331v29.6488"/><path d="m543.56143 654.48885v29.6488"/><path d="m639.32366 654.7127v29.6488"/><path d="m254.72515 557.53264v51.56876"/><path d="m255.20711 557.7736h-54.46047"/><path d="m201.22858 557.53264v25.78437"/><path d="m201.4987 582.83506h-43.1173"/><path d="m350.82815 557.41569v51.56876"/><path d="m351.31011 557.65666h-54.46047"/><path d="m297.33158 557.41569v25.78438"/><path d="m297.6017 582.71812h-43.1173"/><path d="m447.21345 557.53264v51.56876"/><path d="m447.69541 557.77361h-54.46047"/><path d="m393.71688 557.53264v25.78438"/><path d="m393.987 582.83507h-43.1173"/><path d="m543.23375 557.25032v51.56876"/><path d="m543.71571 557.49128h-54.46047"/></g><path d="m489.73718 557.25032v25.78437"/><path d="m490.0073 582.55274h-43.1173" stroke-width=".970426"/><g stroke-width="2"><path d="m639.13715 557.05068v51.56876"/><path d="m639.61911 557.29165h-54.46047"/><path d="m585.64058 557.05068v25.78438"/><path d="m585.9107 582.35311h-43.1173"/></g><path d="m733.91125 556.56874v51.56876"/><g stroke-width="2"><path d="m734.39321 556.80971h-54.46047"/><path d="m680.41468 556.56874v25.78438"/><path d="m680.70071 581.87117h-41.70327"/><path d="m61.607045 609.70726v-52.53267"/><path d="m16.009866 557.69788h45.856709"/></g></g><path d="m635.55376 230.56336 5.04128-1.08084 9.44233-2.38554 8.34938-.1704 5.96384 1.74531 3.7487.64023 4.24777 3.81928 4.50087 3.80718 3.74869 6.74523 2.32707 6.98621.05847 7.83819-.56966 6.81582-3.59041 8.44919-4.60068 7.22719-4.84165 3.49562-6.46292 3.77793-6.94487.92255-6.57483-.37002-8.22033-2.03264-6.30463-3.91909 9.03095-.68158 7.4974-2.21514 5.96384-3.12559 4.38894-4.34759 4.24276-5.11186 3.39078-8.3736-.24097-6.11711-1.7453-5.96384-3.03788-5.21168-7.56799-5.61094-9.62483-3.43714z" fill="#c1c1c0"/><g stroke="#000" stroke-linecap="round"><g stroke-linejoin="round"><g stroke-width="2"><g fill="#eab655"><path d="m558.21543 582.07079v-11.2461c-.04194-4.52291-.09692-9.0393 3.40791-15.33559l3.06712-5.11186c-1.17749-17.38033 2.08588-34.76067.34079-52.141l-3.40791-16.01717-3.7487-11.58689-3.40791-11.2461-4.77107-10.90531-4.08948-11.24609-3.40791-11.58689-4.77108-13.97243-3.4079-16.69875-.3408-4.43028-.68158-11.58689c-.05591-3.60892.96616-9.9128 2.72633-18.06192 8.43998-15.22105 19.98047-28.27173 37.48699-37.1462 13.98607-2.62637 24.24957-1.53018 33.7383.34079 23.23287 8.17898 21.81818 15.33559 27.26327 23.51457 1.3303 6.79813 3.00495 14.11395 2.78429 20.79046-.11224 3.39615 26.20759 11.05717-2.10272 9.53993l-.34078 1.70395h3.7487v5.11186c6.03269 3.06712 5.5688 6.13424 7.13238 9.20136l-.48195 5.11187-4.14795 3.94832c-.17347 12.24293-.58671 25.84645-10.68146 38.99132-6.22137-13.06365-9.67366-26.1273-10.5403-39.19095l-5.45265-4.43028-.48196-5.11187c.7131-3.06712 3.00835-6.13423 7.27355-9.20135v-4.43028h4.43028l-1.02237-2.04475c-.71308.13713-26.1592 1.40611-.68158-8.51977 1.46019-6.24783.22723-13.85883 0-20.10666-4.6133-4.77107-4.59097-9.54214-15.67638-14.31321l-14.31322-3.06713-17.03954 1.02238c-12.86398 7.21764-21.96365 11.31681-29.64881 29.9896-5.05596 21.20715-1.85009 20.38276-2.04474 28.62643 1.01572 11.58689 3.91289 24.87773 8.51977 36.46462l11.2461 1.70395c8.41968 5.67985 9.73391 10.33733 13.97242 16.01718-6.42122-1.19776-14.68104-7.14432-18.68502-4.31334 1.80045 6.92941 7.47576 14.72291 6.01729 21.65233l11.02225 1.8451c5.04959 4.54388 7.61526 7.7246 9.20136 12.26848l-16.07565-3.97255 1.70396 14.77804c11.01319 4.07751 14.88573 7.62312 17.72112 12.60927l2.72633 8.17898c-4.29486-2.90764-8.21466-6.0028-16.01717-7.15661l3.7487 19.08429-1.70396 29.6488c-2.17409 10.99527-1.76057 25.87197-7.1566 32.03434z"/><path d="m344.11306 451.61019c-2.5704-4.01626-2.57041-8.03252 0-12.04878-3.41563 4.82674-7.33079 8.75993-10.12097 11.08488l-13.01269.24097c3.84094-3.05236 6.59361-6.10471 7.22927-9.15707-4.46924.06539-8.20404 1.11005-14.45853-1.20488l-7.22927-5.30146c7.35624-3.259 11.01416-6.05571 13.25366-8.67512l-7.22927-15.42243 16.14536-.24098.96391-4.57853 10.84389-.48195 3.61464-6.26537-17.83219-11.56682 27.71218-6.50634 9.88-.72293 20.24194 12.53073 12.28976-1.44586 9.39804-14.94048 23.6156-.48195 13.01268-13.7356-3.61463-2.40976-14.45853 9.88-3.37366 2.8917h-7.22927l-4.33755-5.06048v-8.9161l2.8917-4.57853 3.13268-1.44586c1.08903 3.23312 2.47314 4.33499 3.97798 4.34332 2.56054.01419 5.4706-3.13768 7.87117-4.34331 1.72435-2.90002 2.84166-5.99242-2.68852-11.94897l-.84948-5.35284c-2.21681 3.67964-6.71126 3.97853-7.50764 5.62721-.63155 1.30742-1.99943 2.6999-1.67616 4.466l.72899 6.48567-4.91682.9639-3.37366-1.9278-4.09658 1.9278-3.61464 2.04829-19.27804 1.08439-7.71122-8.43414-.24097-9.15707 4.57853-.24098 8.43415 7.71122 1.9278 1.9278 15.18146-.48195 8.55463-.33828-9.75951-5.44513v-7.71122l-3.37366-.48195-.1825-9.19841c11.24309-6.70945 22.08041-15.04195 32.81157-23.79906 1.71108-1.39632 6.48658-1.44027 8.19348-2.85332 1.60024-1.32476.13206-4.0179 1.73069-5.34909 3.48512-2.90207 3.90167-2.74279 7.39426-5.61493l5.90036-1.36317 1.76951 4.9022 8.65091 1.50432 2.50956 2.89171 2.7919-3.53194 5.30146-.9639 3.39078-2.73343h4.84373l3.57329 3.45635 5.88323 8.43415-12.63055 18.07316 12.28976-14.20043 8.91609.94678 2.59226 6.94694-8.19316 5.34281c10.82271 6.18504 18.43137 12.37008 22.89267 18.55512l1.02237 8.91609c-6.61128-.56134-10.22852 1.27255-12.30687 4.33756l8.21029 12.04878c1.70832 5.38179 1.92411 10.76357 0 16.14536l-6.74732.48195-.48195 6.26536 3.37366 5.54244.14116 8.53396c-3.59956-.76687-8.40074-3.11153-11.18469.19963-3.88435 10.52191-2.46085 20.11756-1.02237 29.75693-3.44828-2.20744-6.89655-3.50948-10.34483-2.10322-2.02717 4.81951-2.50604 9.63903 0 14.45854l-8.21028-2.62652c-3.29024 6.42602.43614 15.23757 1.46297 21.66358l-12.04878-.72292c1.62419 6.04591 4.45805 11.36601 10.60293 14.6995l-17.59122 2.89171-6.61561-1.83581-6.63804-14.7915c-4.28769 8.06715-9.47367 14.78688-17.59121 17.10926l-2.89171-15.66341c-5.9112 11.36945-13.86903 19.72915-30.60389 15.18146l10.36194-15.18146-2.65073-16.38634c-3.24544.17612-6.95914-.58429-10.8439-1.68682.21495 9.04383-.92104 15.99983-7.71121 14.21755l-3.61464-14.21755c1.02384 6.22515-4.98293 11.172-10.84389 16.14536l-6.02439.9639c-.30624-6.34569-2.32381-12.69138 2.16878-19.03707l-16.86829 13.25366z"/><path d="m520.04686 557.53385-36.12384-45.66598c-5.87163-10.97017-6.75457-24.32589-10.9582-35.29606-.75548-1.97155-4.89538-1.11983-6.42213-2.87251-2.10076 3.26788-6.40994 1.01468-10.22372 0-.41263-4.65748-1.37395-9.31495-7.15661-13.97243-5.837 9.1502-10.97705 15.37154-17.72113 16.35797.70182-4.92202 1.38029-8.96732-2.38553-15.67639-3.74795 7.10094-8.65964 13.64903-16.01717 15.3356-5.67659.79191-12.60073 2.1498-14.65401-.68159 3.29431-1.81948 6.58862-6.139 9.88293-14.31321l-.34078-8.17899c-.23776-3.06711.88198-6.13423-2.72633-9.20135l-5.45266-.68158c-4.32629-1.03198-6.00819.58043-5.79344 4.08949l-1.70396 6.81581-4.77107 3.40792-3.06712-12.26848c-2.18059 6.89975-9.06565 9.00363-10.9053 13.63164l-5.79345 1.70395c.67995-6.36143-1.13635-12.72285 2.04475-19.08428-11.69157 1.12838-12.55636 7.06871-16.69876 12.60926l-9.20135-1.70395c-22.98952 10.37092-57.37964 15.35286-70.20292 24.87773-11.16006 1.30804-20.10331-.13782-24.41999-2.40976l-11.02226-3.72448c-3.35269-.40233-7.05941-1.86676-9.20135 1.36316l-.68158 5.79345 7.15661 1.36316-11.92768 1.02237-4.08949 4.43029 1.02237 7.1566 11.92768.68159-12.60926.68158c-.91834 3.40791-3.03 6.81581.34079 10.22372 4.90274 4.87951 8.53244 2.12077 12.60926 2.04475l-8.17898 1.70396c-1.8817 2.61272-.60057 5.22545 2.04475 7.83818 4.79027 2.38553 10.39932 1.02237 10.5645 2.04474 10.06184-.0734 15.86103-3.3438 22.47122-6.00594l.6825 3.89016c5.50816.47968 12.01453-3.03349 18.39582-6.04632l-1.6843 4.55027c7.12917.45082 13.10108-2.57015 18.41592-7.56233l-1.36885 5.0833c4.621.25449 12.19112-3.42319 19.43784-6.66967l1.14407 4.35115c7.48378-.67441 13.36013-3.92293 19.99108-8.00867l5.05009 3.81704c3.80545-1.15558 5.87496-.14124 12.99207-5.4364l1.18468 5.57166c3.69201-.29273 7.38403-1.70356 11.07604-4.72059.33052 1.75557.27525 3.60759 4.11216 4.48657l7.49522-2.6557-2.39762 3.76859 14.31321-.34079-11.92768 2.04474 1.70395 6.47503c12.49567 11.05565 24.99134 16.77166 37.487 23.51457l13.97243 20.44745 17.38033.34079.34079 24.87773 41.91728.34079.34079-25.55931z"/></g><path d="m251.81943 303.65121-17.35024-13.01268.24098-4.09658 12.27263.34079 6.5073 3.88897 7.22121 5.36791 42.91786-33.9362c18.66052-10.86389 35.88276-14.95232 53.73754-22.59323l43.59236-4.77817-27.39561 21.91875-3.98968 5.37705c-38.4415 8.16482-73.21146 22.20412-102.57289 44.89705l17.35024 14.45853-3.37366 5.78341-15.42244-8.43414-11.8078-15.18146z" fill="#c1c1c0"/><path d="m206.19236 349.66042c4.96342-4.68895 10.61512-8.03486 16.48615-15.44666l7.21215.52329 2.65073-7.71121h6.50634l2.16878-10.36195 8.43414-.72293v-4.33756l1.68683.24098v15.90438c-7.84518 7.58884-13.20869 14.46864-14.69951 20.24195-2.85467 4.0786-6.67773 7.76242-8.7265 11.03512l-2.84032 4.85214-9.11573-.7814z" fill="#c1c1c0"/><g fill="none"><path d="m383.38972 393.95424c1.44075 1.10939 8.24239 10.10008 10.56452 10.56451 3.72454.74491 3.86723.79271 6.81582-.68158 2.22308-1.11154.34078-4.86487.34078-7.15661 2.6935-1.95098 8.83017.57356 12.60927.68159.56507 0-.53071-5.79345 1.36316-5.79345 6.45397 2.95768 6.26766 3.11235 12.60926 2.04475 3.51117 0 13.25236 2.85521 13.63164-.68159.69385-6.4702 15.91806-16.12862 19.08428-16.69875"/><path d="m401.11085 333.63425c-.22435-.8974 1.72749-3.32278 5.08835-5.48152 3.94106-2.53141 9.43615-4.82398 9.90645-5.76458"/></g></g><path d="m431.44123 325.45527c1.31933-.65966 3.45585-2.14781 4.99137-2.86748 2.2422-1.05088 2.74613-1.44675 5.43199-3.10847 1.08216-.66952 1.55384-1.63298 2.80547-2.88461.84839-.84839 4.48485.10022 5.33216-.28232.59533-.26878 2.98798-1.57043 3.59042-2.10322.57305-.5068-4.60079-2.26037-5.03272-2.58516-.55506-.41738-3.65881-1.34746-4.77108-1.90359-1.63813-.81907-1.72592-.45894-3.80717-.97926-1.65984-.41496-6.08369-.21417-7.661.42171-1.53347.6182-6.27398 1.80623-6.2827 2.51585-.01342 1.09265 1.37162 2.98203 3.11074 4.43707 1.52357 1.2747 1.31764 1.14171 3.17728 2.04171 1.80144.87183 1.45143.77339 2.52315 1.84512.25323.25322-.0852 2.42762-.0852 2.85413"/><path d="m431.76135 325.27631c-1.56235.60067-2.70565-.05431-2.70565 2.5645 0 3.29612.69841 3.89036 2.04474 6.13423.93436 1.55727 3.34823 1.64428 4.43028 2.72633.94249.94249 2.72633 2.74402 2.72633 4.43028 0 1.38214.86019 3.42433 1.36316 4.43028.68168 1.36337.33471 3.38357.68158 4.77108.47165 1.88659.23813 3.68916-1.36316 4.08949-1.06715.26678-.29512.09837-1.02237.34079" fill="none" stroke-width="2"/><g fill="#eab655"><path d="m433.12452 311.94413-.36147 4.16863 3.10846 3.54907 1.36317-2.38554 3.7487-1.36316.48195-4.15151z"/><g stroke-width="2"><path d="m235.91504 348.23168 7.58661 3.84422-.03507 8.61663 7.27279 7.69348 41.73936 49.91109.54751-7.89373 21.20585 14.69951 4.09659-1.68683-3.37366-12.53073h13.25365l1.44586-4.33756 11.08487-.48195 3.85561-6.50634-18.07317-11.8078 15.90439-3.37366c-14.63384-8.92195-26.69335-18.12994-48.9846-26.20106l-23.54904-12.596v-7.71121l-4.96067-4.57854c2.0627-4.89984 4.46224-9.79967 1.12219-14.69951l-13.42906-14.84066-3.5733 11.95189 1.70396 11.56389c-5.26821 6.55986-12.02837 11.13046-14.84067 20.96487z"/><path d="m220.97456 333.53218-5.54244-2.65073c-2.33191-3.53431-1.22777-7.06862 0-10.60293l6.50634-1.68683c-1.30864-4.01626-.68316-8.03251.72293-12.04877 4.11415-1.25759 7.87839-1.46542 11.08487 0 .32684-2.16878-.58332-4.33756 3.13269-6.50634 3.61463-2.83257 7.22926-1.10675 10.84389.48195l4.13794 4.09658c-.59311 4.55341-2.09568 8.19736-3.57329 11.86627l-6.83001.18251-7.95219-9.63902 8.19317 10.12097-2.89171 10.60292-5.30146-.72292-11.8078-8.19317 10.8439 8.19317-2.16878 6.74731z"/><path d="m91.672742 286.9459-5.793445 21.12904 16.017163-17.03954 5.45267 16.69875 5.45264-16.69875 15.3356 17.38033-4.08949-22.4922 17.72111 9.88293-10.22371-17.38033 23.51456 5.45266-18.40271-16.01717 17.72113-3.40791-17.03954-7.83819 20.10666-13.29085-23.85536 2.72634 9.54214-15.67639-16.69875 7.83819 5.79344-23.17378-15.67637 17.38034-5.11186-15.67638-7.49741 15.33558-13.290841-19.42507 1.363164 23.51457-14.654007-8.86057 5.452653 16.69875-22.492197-3.4079 17.721126 14.9948-16.698753 6.13423 16.357962 6.13424-18.402707 13.29084 23.51457-3.06711-7.497399 13.97242z"/></g></g></g><path d="m16.132525 172.89633 717.474845 2.49561" fill="none" stroke-width="1.912293"/></g><g fill-rule="evenodd" transform="translate(863.99 92.83207)"><path d="m-228.96018 137.875-.03185.9873c13.36817.58412 22.27246 4.31064 27.54572 9.47194 5.27325 5.1613 6.9623 11.76477 5.82758 18.20339-2.26942 12.87723-15.89536 25.07255-35.02922 23.1399l-.12738.98731c19.62406 1.98215 33.7785-10.55173 36.14379-23.97294 1.18265-6.71061-.57925-13.65017-6.08235-19.03643-5.50309-5.38626-14.70243-9.18867-28.24629-9.78047z"/><path d="m-211.59375 133.8125c-5.23801.3003-11.14904 1.58752-17.75 4.09375l.375.9375c17.39341-6.60386 29.63922-4.62685 37.40625 1.4375s11.12252 16.27828 10.40625 26.34375-5.48487 19.93786-13.78125 25.21875-20.17584 6.06796-35.34375-2.125l-.46875.875c15.38511 8.31028 27.71962 7.58327 36.34375 2.09375s13.4835-15.63658 14.21875-25.96875-2.66307-20.90463-10.75-27.21875c-5.05433-3.94632-11.92624-6.188-20.65625-5.6875z"/></g></g></svg>