<svg height="297" width="297.00043" xmlns="http://www.w3.org/2000/svg"><g stroke="#000" stroke-miterlimit="3.864"><ellipse cx="303.375" cy="371.19699" fill="#fdb827" rx="146.632" ry="146.491" stroke-width="1.102602" transform="matrix(0 -1.0089441 1.0099168 0 -226.37785 454.58843)"/><g fill="none"><ellipse cx="303.23199" cy="371.19699" rx="132.037" ry="131.911" stroke-width=".992639" transform="matrix(0 -1.0089441 1.0099168 0 -226.37785 454.58843)"/><path d="m4.1386788 148.64428c0-79.72879 64.6316382-144.3607409 144.3615412-144.3607409 79.7299 0 144.36155 64.6319509 144.36155 144.3607409 0 79.7298-64.63165 144.36275-144.36155 144.36275-79.729903 0-144.3615412-64.63194-144.3615412-144.36275zm0 0c0-79.72879 64.6316382-144.3607409 144.3615412-144.3607409 79.7299 0 144.36155 64.6319509 144.36155 144.3607409 0 79.7298-64.63165 144.36275-144.36155 144.36275-79.729903 0-144.3615412-64.63194-144.3615412-144.36275zm7.7581802 0c0-75.443806 61.158534-136.602969 136.603361-136.602969 75.44482 0 136.60337 61.158155 136.60337 136.602969 0 75.4448-61.15855 136.60398-136.60337 136.60398-75.444827 0-136.603361-61.15918-136.603361-136.60398z" stroke-width=".859"/></g></g><g transform="matrix(0 -1.0089441 1.0099168 0 -226.37785 454.58843)"><path d="m289.409 505.705 1.574 1.288 6.155 5.87 1.503 1.002 9.735.073-1.645-1.003-7.016-5.583-.573-.43-.858-.501z"/><path d="m307.517 506.35 1.146.858 4.367 2.936 3.077 2.218 1.718.859 9.091-1.074-1.146-.787-7.658-4.653-1.575-.858z"/><path d="m280.246 504.273 1.145 1.29 4.151 4.365 2.363 2.506.858.787-9.447-1.288-1.36-1.432-5.297-6.441-1.503-1.503z"/><path d="m262.28 499.979 1.431 1.503 2.505 3.436 3.078 4.294.93.859-9.591-2.505-1.717-3.005-3.151-5.012-.858-1.288-.859-1.073z"/><path d="m245.889 493.608.786 1.289 4.152 8.161.93 1.359-8.232-3.365-.787-.984-4.222-9.037-.86-1.217z"/><path d="m229.622 484.75 1.073 1.575 3.185 8.786.681 1.342-8.214-4.599-.662-1.556-2.452-8.787-.572-1.557z"/><path d="m215.181 473.745.859 1.825 1.933 9.127.571 1.717-7.336-5.905-.465-.859-1.504-9.663-.572-1.789z"/><path d="m202.227 461.111.568 1.899.826 9.411.355 1.643-6.544-6.721-.361-1.99-.037-8.397-.249-2.14z"/><path d="m325.449 504.667 1.573.681 7.623 4.079 1.934.823 9.483-2.541-2.469-.823-7.229-3.221-2.29-.716z"/><path d="m342.627 500.623 1.862.358 8.338 3.006 2.005.574 9.053-3.867-1.681-.214-9.521-2.541-1.539-.144z"/><path d="m359.95 494.002 1.574.25 8.696 2.076 1.718.251 8.555-4.868-1.79-.214-9.234-1.289h-1.969z"/><path d="m375.375 485.734 1.789-.213 8.912.571 2.182.036 7.982-6.299-2.004.537-8.876-.072-2.541.394z"/><path d="m389.797 475.177 1.647-.501 9.127-.537 2.04-.286 7.014-7.123-1.862.644-9.519 1.147-1.539.5z"/><path d="m402.861 462.687 1.932-.788 8.84-1.611 2.184-.823 5.333-7.373-1.826.573-8.16 2.183-2.363.753z"/><path d="m414.313 448.479 1.396-.717 8.804-3.042 1.825-.859 4.545-8.196-1.43.716-8.018 3.185-2.04 1.217z"/><path d="m423.655 432.981 1.896-1.289 7.874-3.829 1.683-1.038 3.363-9.018-1.324 1.216-8.089 4.581-1.682 1.54z"/><path d="m430.883 416.589 1.182-1.323 7.803-5.191 1.539-1.646 1.931-8.482-.965.787-7.696 5.834-1.108 1.253z"/><path d="m435.643 399.052 1.289-1.36 6.765-6.191 1.539-2.005.786-9.233-.858 1.324-6.729 6.907-1.144 1.682z"/><path d="m438.435 380.764.859-1.468 6.013-6.835.967-1.754-.286-9.592-.646 1.396-5.547 7.302-1.109 2.04z"/><path d="m438.364 362.619 1.003-1.754 4.723-6.943.966-2.219-1.609-9.127-.752 1.718-4.331 7.445-.895 1.896z"/><path d="m436.18 345.01.717-2.362 3.686-7.909.537-1.969-2.828-8.804-.358 1.754-3.257 8.016-.607 2.685z"/><path d="m431.457 327.616.322-2.254 2.683-8.125.466-2.183-4.08-8.518-.179 1.289-2.218 9.234-.179 2.147z"/><path d="m424.549 311.189-.107-2.112 1.574-8.768.286-2.112-5.152-7.945-.072 2.04-1.146 8.625.18 1.897z"/><path d="m415.495 295.442-.43-1.897.536-9.091-.179-2.111-6.298-7.266.251 1.539.214 9.306.465 1.932z"/></g><path d="m44.05362 48.738627c.180769-.071635 1.952168-.577116 1.952168-.577116l9.397269-.939327 2.060236-.361202-7.048208 6.463297-1.66232.361202-8.313643 1.300529-2.131928.576107s5.565647-6.750845 5.746426-6.82349z"/><g transform="matrix(0 -1.0089441 1.0099168 0 -226.37785 454.58843)"><path d="m387.757 255.894.716 1.253 2.004 9.556.501 1.36-6.942-5.44-.716-1.325-2.435-8.696-.893-2.184 7.873 5.512z" fill-rule="evenodd"/><path d="m371.832 245.515.715 1.432 3.186 8.768 1.037 1.826-7.479-4.403-1.217-1.61-3.866-8.411-1.11-1.789 8.805 4.187z" fill-rule="evenodd"/><path d="m354.723 237.749.896 1.503 3.972 7.659 1.074 1.754-8.052-3.364-1.074-1.217-5.046-8.125-1.038-1.395z"/><path d="m335.755 231.915 1.503 1.289 5.261 7.265 1.683 1.754-8.84-2.47-1.11-.966-6.227-7.373-1.396-1.396 9.199 1.897z" fill-rule="evenodd"/><path d="m317.431 228.909 1.288 1.145 6.12 6.586 1.647 1.252-9.055-1.217-1.395-1.038-6.407-5.941-1.79-1.36z"/><path d="m298.391 228.229 1.146.752 6.872 5.797 1.609 1.181h-8.409l-1.648-.715-7.55-5.297-1.754-1.002z"/><path d="m278.958 230.233 1.861.752 7.337 4.509 2.11.967-8.84 1.252-1.753-.644-7.838-4.152-1.79-.823 8.985-1.897z" fill-rule="evenodd"/><path d="m260.992 234.707 1.359.465 8.089 3.686 1.789.537-8.696 2.434-1.361-.429-8.626-3.078-1.825-.466z"/><path d="m242.237 241.793h1.755l9.198 2.47 2.11.214-8.696 3.794-1.646-.25-8.589-1.933-2.22-.322z"/><path d="m225.881 250.955 1.719-.179 8.769 1.396 2.505.036-7.41 4.295-1.824.322-9.485-.68-1.968.036z"/><path d="m223.483 261.728-1.646.25-9.197-.071-2.005.25-7.014 6.371 1.824-.251 8.375-.429 2.684-.465 7.052-5.691z" fill-rule="evenodd"/><path d="m209.848 273.252-2.005.644-8.983 1.181-1.754.215-6.298 7.409 2.469-.609 7.409-1.396 2.685-1.002z"/><path d="m197.68 286.387-1.611.966-9.09 2.47-1.934.751-5.152 8.089 1.932-.967 7.909-2.684 2.255-1.109z"/><path d="m187.05 301.669-1.217.716-9.019 3.686-1.289.716-3.972 8.482 1.968-1.002 7.444-3.579 1.827-1.145z"/><path d="m179.034 317.202-1.111 1.431-8.696 4.939-1.325 1.11-2.684 8.804 1.432-1.11 7.015-4.724 1.933-1.754z"/><path d="m172.771 334.882-.968 1.252-7.802 5.762-1.108 1.11-1.469 9.198 1.181-1.217 6.55-5.798 1.682-1.968 2.004-8.411z"/><path d="m169.441 351.703-1.108 1.825-6.622 6.728-1.253 1.969-.25 8.911.895-1.109 5.761-6.657 1.361-1.754z"/><path d="m167.867 370.027-.894 2.077-5.513 7.192-1.074 1.933 1.038 8.876.68-1.145 5.047-7.409.967-2.325z"/><path d="m168.94 387.993-.537 2.112-4.723 8.196-.609 1.61 2.183 8.984.644-1.217 3.794-8.375.716-2.004z"/><path d="m172.483 406.246-.464 1.861-3.473 8.375-.501 2.147 3.366 8.411.644-1.826 2.648-8.088.394-2.362-2.541-8.482z"/><path d="m178.317 423.425-.214 1.897-2.184 8.698-.214 2.11 4.509 8.232.216-1.611 1.537-8.768.109-2.755-3.759-7.732z"/><path d="m186.298 439.387.216 1.718-1.146 8.947-.072 2.006 4.868 6.727.822.93-.107-1.36.574-8.804-.036-2.183-5.046-8.016z"/></g><g fill="none" stroke="#000" stroke-miterlimit="3.864"><g stroke-width="1.002"><path d="m203.38111 62.855771c.79078-1.126983 2.34605-1.40243 3.47513-.611422 1.12808.789001 1.40278 2.343784.61201 3.470777-.79076 1.127992-2.34705 1.40243-3.47412.611412-1.12908-.787982-1.40378-2.342766-.61302-3.470767zm-8.41361-4.813668c.66857-1.203669 2.18647-1.639536 3.39232-.971614 1.20382.666907 1.64009 2.184361.97255 3.38803-.66857 1.20267-2.18648 1.639538-3.39232.971613-1.20382-.665898-1.64011-2.183351-.97255-3.388029zm-8.83273-3.98634c.53828-1.267234 2.00267-1.858475 3.27112-1.320708 1.26846.537768 1.86027 2.001745 1.32198 3.268979-.53727 1.267233-2.00165 1.858472-3.27011 1.319702-1.26845-.537771-1.86128-1.99973-1.32299-3.267973zm-9.15893-3.162031c.42618-1.309609 1.83198-2.02596 3.14285-1.601194 1.31088.425774 2.02792 1.832242 1.60173 3.140843-.42517 1.30961-1.83199 2.02596-3.14286 1.601195-1.30986-.424766-2.02893-1.832243-1.60172-3.140844zm-9.43263-2.230775c.28682-1.346941 1.61284-2.206561 2.96006-1.919012 1.34825.285531 2.20869 1.610275 1.92086 2.956207-.28478 1.34694-1.61081 2.20656-2.95905 1.919011-1.34823-.284522-2.20768-1.609266-1.92187-2.956206zm-9.59825-1.324744c.14543-1.369137 1.37146-2.363956 2.74193-2.218668 1.37045.144279 2.36623 1.369137 2.2208 2.739283-.14441 1.369137-1.37045 2.362948-2.74192 2.218668-1.36945-.145288-2.36522-1.371155-2.22081-2.739283zm-9.67702-.501445c.04746-1.3762 1.20382-2.453752 2.58135-2.404314 1.37651.047421 2.4551 1.201653 2.40663 2.577852-.04848 1.3762-1.20382 2.452744-2.58034 2.404314-1.37853-.048429-2.45611-1.203671-2.40764-2.577852zm-9.68106.500436c-.09594-1.373173.94023-2.564736 2.31473-2.661594 1.3755-.095851 2.5672.940335 2.66315 2.312499.09594 1.373174-.94024 2.564736-2.31473 2.661595-1.3745.09585-2.56721-.940336-2.66315-2.3125zm-9.58715 1.41454c-.23833-1.356021.66756-2.648479 2.02388-2.886589 1.35732-.23912 2.65204.664894 2.89038 2.021924.23935 1.356021-.66654 2.648478-2.02387 2.886589-1.35632.23912-2.65103-.664894-2.89039-2.021924zm-9.41646 2.28425c-.3565-1.329789.43325-2.697917 1.76432-3.053066 1.33107-.355147 2.69952.432838 3.05602 1.762626s-.43326 2.696908-1.76433 3.053064c-1.33107.356158-2.69951-.433845-3.05601-1.762624zm-9.14076 3.214495c-.49385-1.284386.14846-2.727176 1.4351-3.220549 1.28663-.492365 2.7298.149323 3.22365 1.434718.49385 1.284387-.14846 2.726167-1.43509 3.219541s-2.7298-.147306-3.22366-1.43371zm-8.7893 4.07513c-.62615-1.226878-.13735-2.728189 1.09071-3.352726 1.22705-.625545 2.7298-.137216 3.35596 1.088651.62513 1.22688.13734 2.728186-1.09072 3.35272-1.22806.625542-2.73081.136205-3.35595-1.088645zm-8.382312 4.853014c-.730165-1.167348-.374674-2.705983.7938-3.434446 1.168474-.730471 2.707583-.374313 3.437757.793035.730165 1.16634.374674 2.704975-.7938 3.434447-1.168473.73047-2.707582.374312-3.437757-.793036zm-7.858161 5.66119c-.848329-1.084621-.656444-2.651508.430222-3.499019 1.085666-.847512 2.653054-.654803 3.501383.429807.849338 1.084621.656453 2.651508-.429213 3.499019-1.086665.848521-2.654063.655812-3.502392-.429807zm-7.315833 6.346261c-.939223-1.006926-.884694-2.583909.123212-3.523236 1.007897-.938319 2.5874-.883833 3.526623.123093.940233 1.006925.884684 2.584917-.123212 3.523226-1.007896.938319-2.58639.883843-3.526623-.123083zm-6.713928 6.980881c-1.007896-.939327-1.062435-2.51631-.123211-3.523236.940232-1.006926 2.518736-1.061402 3.526632-.123083 1.007897.940336 1.062425 2.5163.123212 3.523226-.940233 1.006926-2.518736 1.063429-3.526633.123093zm-5.956493 7.642755c-1.10081-.828348-1.320964-2.3912-.491828-3.49095.830156-1.09975 2.394515-1.318693 3.494315-.490346 1.10081.828338 1.320974 2.3912.491828 3.49095-.830156 1.097723-2.394515 1.318683-3.494315.490346zm-5.239444 8.147221c-1.168474-.73048-1.523965-2.267098-.7938-3.435455.730175-1.167349 2.269284-1.522497 3.437757-.792017 1.168474.73047 1.523965 2.267098.7938 3.434446-.730174 1.167349-2.269283 1.521479-3.437757.793026zm-4.400211 8.629499c-1.238157-.60334-1.752206-2.09557-1.148272-3.33254.603924-1.23898 2.097601-1.75153 3.335757-1.14919 1.239166.60437 1.753215 2.09559 1.149281 3.33457-.603934 1.23595-2.0976 1.74951-3.336766 1.14716zm-3.593277 8.99273c-1.286638-.49338-1.928947-1.93516-1.4351-3.22056.493857-1.28337 1.937024-1.92708 3.222652-1.43371 1.286627.49338 1.929946 1.93516 1.436099 3.22055-.493847 1.28439-1.937024 1.92709-3.223651 1.43372zm-2.675275 9.30751c-1.33107-.35616-2.120822-1.72329-1.764321-3.05207.356501-1.32979 1.724936-2.11979 3.056006-1.76262 1.33107.35616 2.120822 1.72328 1.764321 3.05206-.35751 1.32978-1.724936 2.11979-3.056006 1.76263zm-1.776446 9.51837c-1.361369-.2149-2.290486-1.49223-2.07437-2.85229.215116-1.35904 1.493666-2.28827 2.855035-2.07136 1.360358.21491 2.289485 1.49223 2.07336 2.85027-.215106 1.36107-1.493667 2.2893-2.854025 2.07338z"/><path d="m186.55691 243.03908c.49385 1.2854-.14846 2.72717-1.43508 3.22054-1.28563.49338-2.72981-.14931-3.22266-1.4337-.49384-1.2854.14746-2.72718 1.4351-3.22055 1.28562-.49337 2.72981.1473 3.22264 1.43371zm8.78931-4.07412c.62514 1.22688.13735 2.72818-1.09071 3.35273-1.22806.62554-2.73082.13721-3.35595-1.08967-.62515-1.22587-.13736-2.72717 1.0907-3.35171 1.22806-.62656 2.72981-.13823 3.35596 1.08865zm8.3813-4.85402c.73219 1.16734.37569 2.70598-.79177 3.43545-1.16949.72946-2.70961.37431-3.43877-.79304-.73118-1.16734-.37468-2.70598.79379-3.43545 1.16747-.73047 2.70657-.37532 3.43675.79304zm7.85917-5.66119c.84833 1.08461.65543 2.65049-.43022 3.49801-1.08567.84852-2.65407.65581-3.50239-.4288-.84934-1.08462-.65544-2.65151.43022-3.49902s2.65406-.65582 3.50239.42981zm14.02875-13.32715c1.0079.93832 1.06445 2.5163.12321 3.52324-.93922 1.00592-2.5167 1.0614-3.5246.12308-1.0079-.93932-1.06446-2.5163-.12321-3.52322.93821-1.00693 2.51872-1.06242 3.5246-.1231zm5.9575-7.64174c1.10081.82834 1.31997 2.3912.49082 3.49095-.82913 1.09975-2.3935 1.31869-3.49431.49034-1.1008-.82834-1.32097-2.3912-.49082-3.49095.82914-1.09975 2.3935-1.31868 3.49431-.49034zm5.24046-8.14823c1.16746.73047 1.52396 2.2671.79279 3.43444-.73119 1.16836-2.2703 1.5225-3.43776.79303-1.16847-.73047-1.52497-2.2671-.79379-3.43445.72916-1.16735 2.26826-1.52149 3.43876-.79302zm4.39819-8.62849c1.24018.60334 1.75321 2.09557 1.14928 3.33254-.60392 1.23898-2.09658 1.75153-3.33676 1.14919-1.23816-.60436-1.75119-2.09558-1.14828-3.33457.60394-1.23696 2.0976-1.75051 3.33576-1.14716zm3.59531-8.99273c1.28561.49338 1.92792 1.93516 1.43508 3.22056-.49384 1.28337-1.93702 1.92607-3.22365 1.43371-1.28663-.49337-1.92894-1.93516-1.4351-3.22055.49285-1.2854 1.93602-1.9281 3.22367-1.43372zm2.67425-9.30851c1.33107.35615 2.12184 1.72327 1.76433 3.05205-.3565 1.32979-1.72494 2.1198-3.05601 1.76263-1.33007-.35616-2.12083-1.72327-1.76433-3.05205.35651-1.32979 1.72494-2.1198 3.05601-1.76263zm1.77645-9.51838c1.36237.2149 2.29049 1.49223 2.07538 2.85229-.21714 1.35905-1.49367 2.28727-2.85504 2.07136-1.36238-.21491-2.29049-1.49224-2.07538-2.85027.21714-1.36106 1.49367-2.2893 2.85504-2.07338zm.96043-9.63441c1.37349.12006 2.38845 1.32878 2.26827 2.70095-.12018 1.37216-1.33006 2.38614-2.70254 2.26609-1.37348-.12007-2.38845-1.32878-2.26827-2.70095.12018-1.37216 1.33107-2.38615 2.70254-2.26609zm-.04444-9.68485c1.37753-.02422 2.51369 1.07251 2.53792 2.4487.02424 1.37621-1.07354 2.51228-2.45106 2.53649-1.37754.02421-2.51369-1.07251-2.53792-2.44972-.02424-1.37721 1.07354-2.51227 2.45106-2.53547zm-.95538-9.63642c1.36844-.1675 2.61265.80512 2.78131 2.17022.16765 1.36612-.8049 2.61015-2.17132 2.77763-1.36844.16849-2.61266-.80413-2.78131-2.16923-.16865-1.36611.8039-2.61114 2.17132-2.77862zm-1.86633-9.49921c1.34219-.30975 2.68234.52666 2.99238 1.86956.31005 1.3409-.52616 2.67976-1.87036 2.9895-1.34218.30975-2.68234-.52566-2.99238-1.86856-.31005-1.34089.52718-2.67975 1.87036-2.9905zm-2.72576-9.28734c1.30986-.42678 2.71768.28957 3.14387 1.60018.42517 1.30962-.29187 2.71406-1.60274 3.13984-1.30986.42577-2.71768-.29058-3.14387-1.60018-.42517-1.30961.29187-2.71508 1.60274-3.13984zm-3.64378-8.97153c1.25937-.55997 2.73384.00505 3.29434 1.26319.56051 1.25715-.00505 2.73122-1.2644 3.29118-1.25836.56097-2.73386-.00605-3.29436-1.26319-.5605-1.25715.00606-2.73121 1.26442-3.29118zm-4.44263-8.601254c1.20483-.667925 2.72375-.232056 3.39131.971613.66856 1.202661.23228 2.720121-.97255 3.388041-1.20484.66691-2.72375.23206-3.39131-.97262-.66857-1.203682-.23329-2.721126.97255-3.387034zm-5.27782-8.119978c1.12807-.789001 2.68335-.515572 3.47411.61242.79077 1.126993.51607 2.681776-.612 3.471786-1.12909.787982-2.68436.515561-3.47513-.61243-.78976-1.128002-.51606-2.681777.61302-3.471776zm-5.95447-7.635694c1.07152-.866686 2.64194-.702229 3.50946.367252s.7019 2.639404-.36862 3.507098c-1.07152.865667-2.64194.70121-3.51046-.369279-.86652-1.069481-.7019-2.640403.36962-3.505071zm-6.68666-7.013168c.99073-.956484 2.57125-.929241 3.52764.061547.9574.989769.93013 2.567761-.0616 3.524235-.99174.956484-2.57025.929241-3.52764-.061547-.95741-.990778-.93014-2.567761.0616-3.524235zm-7.34917-6.318009c.88672-1.054352 2.46016-1.192575 3.51452-.307733 1.05435.884851 1.19372 2.457789.30802 3.511132-.8867 1.05535-2.46016 1.192564-3.51451.307723-1.05436-.884841-1.19372-2.456781-.30803-3.511122z"/><path d="m46.825837 153.72431c-1.378531.02422-2.514688-1.0725-2.538928-2.4487-.024241-1.37721 1.073541-2.51227 2.451063-2.53649 1.378541-.0232 2.514697 1.07251 2.538938 2.44871.023221 1.37821-1.073541 2.51328-2.451073 2.53648zm.954378 9.63542c-1.367436.16748-2.61266-.80412-2.780305-2.16923-.168654-1.36611.804906-2.61014 2.172332-2.77762 1.367426-.16849 2.61265.80311 2.780294 2.16923.167655 1.36611-.804896 2.61114-2.172321 2.77762zm1.86733 9.49921c-1.343185.31076-2.682342-.52566-2.992381-1.86856-.310049-1.34089.527174-2.67976 1.86935-2.98951 1.343195-.30974 2.682342.52567 2.992391 1.86857.310039 1.34088-.527184 2.67976-1.86936 2.9895zm2.725766 9.28834c-1.310868.42678-2.717689-.28957-3.143872-1.60019-.426184-1.3096.290856-2.71506 1.601734-3.13983 1.310868-.42679 2.717679.29058 3.143862 1.60019.426194 1.3096-.290856 2.71507-1.601724 3.13983zm3.642767 8.97154c-1.258349.55996-2.733842-.00607-3.294343-1.2632-.560501-1.25816.006057-2.73122 1.264416-3.29219 1.259368-.55996 2.733842.00706 3.294343 1.2632.560511 1.25815-.006057 2.73121-1.264416 3.29219zm4.443635 8.60124c-1.20584.66792-2.723747.23206-3.392306-.97161-.667559-1.20266-.232279-2.72012.972551-3.38804 1.205839-.66691 2.723746-.23206 3.392305.97262.667559 1.20266.232279 2.72112-.97255 3.38703zm5.276819 8.11897c-1.12808.789-2.684362.51557-3.474114-.61243-.790771-1.12799-.516068-2.68176.612011-3.47177 1.129079-.78799 2.684352-.51558 3.475123.61243.790761 1.12901.516069 2.68278-.61302 3.47177zm5.955474 7.6367c-1.071522.86669-2.641938.70121-3.50946-.36827-.867521-1.06948-.701886-2.63939.368626-3.50608 1.071522-.86566 2.641939-.70121 3.50946.36828.867511 1.07149.701886 2.6404-.368626 3.50607zm6.685649 7.01317c-.990723.95649-2.570237.92924-3.527633-.06154-.957406-.99078-.929127-2.56877.061606-3.52425.991733-.95647 2.571246-.92923 3.527633.06155.957406.99079.930136 2.56878-.061606 3.52424zm7.350179 6.31902c-.885694 1.05435-2.45915 1.19157-3.514507.30671-1.056378-.88484-1.193724-2.45677-.30803-3.51112.885694-1.05535 2.459149-1.19257 3.515517-.30772 1.055368.88484 1.192714 2.45576.30702 3.51213zm16.303086 10.43854c-.66755 1.20467-2.186469 1.63954-3.391299.97161-1.205839-.66692-1.641119-2.18436-.97255-3.38804.667549-1.20468 2.186466-1.63953 3.391299-.97161 1.20584.66792 1.64112 2.18538.97255 3.38804zm8.83374 3.98734c-.53828 1.26724-2.00367 1.85848-3.27213 1.32071-1.26845-.53777-1.86027-2.00174-1.32198-3.26898.5393-1.26723 2.00368-1.85847 3.27213-1.32071 1.26846.53777 1.86027 2.00175 1.32198 3.26898zm9.15894 3.16102c-.42517 1.30962-1.833 2.02597-3.14387 1.6012-1.30987-.42577-2.02691-1.83225-1.60174-3.14185.4262-1.3086 1.83402-2.02496 3.14388-1.60018 1.31087.42577 2.02791 1.83223 1.60173 3.14083zm9.43161 2.23179c-.28581 1.34694-1.61081 2.20555-2.95906 1.92003-1.34722-.28655-2.20768-1.61028-1.92187-2.95622.28682-1.34693 1.61183-2.20656 2.96007-1.92002 1.34723.28453 2.20767 1.60826 1.92086 2.95621zm9.59926 1.32575c-.14442 1.36914-1.37248 2.36295-2.74293 2.21868-1.37047-.14429-2.36422-1.37016-2.2198-2.73929.14341-1.36914 1.37146-2.36295 2.74192-2.21867s2.36422 1.36914 2.22081 2.73928zm9.67702.50044c-.04847 1.3762-1.20281 2.45274-2.58134 2.40432-1.37653-.04844-2.45411-1.20267-2.40562-2.57786.04746-1.3762 1.2018-2.45274 2.58033-2.40431 1.37652.04843 2.4541 1.20367 2.40663 2.57785zm9.68006-.49943c.09796 1.37318-.94024 2.56473-2.31474 2.66058-1.37348.09586-2.5662-.93932-2.66315-2.31249-.09594-1.37418.94023-2.56474 2.31575-2.66059 1.37449-.09686 2.56619.93832 2.66214 2.3125zm9.58713-1.41655c.23935 1.355-.66655 2.64847-2.02387 2.8876-1.35733.23911-2.65103-.66591-2.89038-2.02193-.23834-1.35603.66654-2.64848 2.02488-2.8876 1.35632-.23811 2.65104.66692 2.88937 2.02193zm9.41647-2.28224c.35751 1.32979-.43326 2.69691-1.76433 3.05306-1.33107.35616-2.69849-.43283-3.05398-1.76262-.35751-1.32979.43325-2.6969 1.76331-3.05306s2.6995.43182 3.055 1.76262z"/></g><path d="m46.780395 144.03946c-1.372484-.12006-2.388457-1.32979-2.268274-2.70094.120183-1.37116 1.33006-2.38616 2.703544-2.26609 1.372474.12006 2.387448 1.32878 2.267265 2.70094-.119174 1.37116-1.330061 2.38615-2.702535 2.26609zm0 0c-1.372484-.12006-2.388457-1.32979-2.268274-2.70094.120183-1.37116 1.33006-2.38616 2.703544-2.26609 1.372474.12006 2.387448 1.32878 2.267265 2.70094-.119174 1.37116-1.330061 2.38615-2.702535 2.26609z" stroke-width=".859"/></g><g transform="rotate(-90)"><path d="m-229.7291 69.633804h4.910532v161.34935h-4.910532z" fill="#fdb827"/><path d="m-229.7291 69.633804h4.910532v161.34935h-4.910532z" fill="none" stroke="#000" stroke-miterlimit="3.864" stroke-width="1.288"/><path d="m-234.93724 62.694683h5.200098v175.22864h-5.200098z" fill="#fdb827"/></g><g fill="none" stroke="#000" stroke-miterlimit="3.864"><path d="m-234.93724 62.694683h5.200098v175.22864h-5.200098z" stroke-width="1.288" transform="rotate(-90)"/><path d="m91.049086 129.37748c-.008077-.06154-.022222-.1241-.022222-.18766 0-.89796.842271-1.6244 1.879456-1.6244 1.038195 0 1.879456.72745 1.879456 1.6244 0 .04843-.002019.09686-.007067.14428m53.522561.04338c-.00808-.06154-.02122-.1241-.02122-.18766 0-.89796.84127-1.6244 1.87845-1.6244 1.03819 0 1.87946.72745 1.87946 1.6244 0 .04843-.00202.09686-.00707.14428m53.89926.04338c-.00909-.06154-.02121-.1241-.02121-.18766 0-.89796.84126-1.6244 1.87945-1.6244 1.0382 0 1.87845.72745 1.87845 1.6244 0 .04843-.00303.09686-.00707.14428" stroke-width=".716"/><path d="m-110.57983 74.405647h3.321444v150.6503h-3.321444z" stroke-width="1.288" transform="rotate(-90)"/><g stroke-width="1.145"><path d="m82.501144 116.86254h134.747146c.47869 0 .8665.38844.8665.86668v.28856c0 .47825-.38882.86669-.8665.86669h-134.747146c-.478693 0-.867511-.38946-.867511-.86669v-.28856c0-.47824.388818-.86668.867511-.86668z"/><path d="m202.90545 129.35731h9.71641c.79783 0 1.44519.46915 1.44519 1.04728 0 .57712-.64736 1.04728-1.44519 1.04728h-9.71641c-.79784 0-1.44621-.47016-1.44621-1.04728.00101-.57813.64837-1.04728 1.44621-1.04728zm12.46338 63.11853-2.60256-61.09762m-11.99982 60.66579 1.87945-60.66478m13.08448 66.72955v23.32679m-15.83146.28957v-23.54271m3.75892 18.92174v-13.57737h8.45804v13.57737zm-2.87221-24.80086h14.00957c.99477 0 1.80169.63665 1.80169 1.42261 0 .78496-.80692 1.42262-1.80169 1.42262h-14.00957c-.99375 0-1.80068-.63766-1.80068-1.42262 0-.78697.80592-1.42261 1.80068-1.42261zm-.815 2.84523h16.04859c1.11797 0 2.02488.67902 2.02488 1.51745 0 .83742-.9059 1.51644-2.02488 1.51644h-16.04859c-1.11798 0-2.02387-.67902-2.02387-1.51644 0-.83843.90589-1.51745 2.02387-1.51745zm-54.46178-65.79123h9.71539c.79784 0 1.4452.46915 1.4452 1.04728 0 .57712-.64736 1.04728-1.4452 1.04728h-9.71539c-.79885 0-1.44722-.47016-1.44722-1.04728.00101-.57813.64837-1.04728 1.44722-1.04728zm12.46237 63.11853-2.60255-61.09762m-11.99984 60.66579 1.87946-60.66478m13.08549 66.72955v23.32679m-15.83247.28957v-23.54271m-3.55692 26.50395v-3.03289h22.55447v3.03289zm7.31583-7.58221v-13.57737h8.45806v13.57737zm-2.87119-24.80086h14.00855c.99578 0 1.80271.63665 1.80271 1.42261 0 .78496-.80693 1.42262-1.80271 1.42262h-14.00855c-.99578 0-1.8027-.63766-1.8027-1.42262 0-.78697.80692-1.42261 1.8027-1.42261zm-.81601 2.84523h16.04859c1.11798 0 2.02386.67902 2.02386 1.51745 0 .83742-.90487 1.51644-2.02386 1.51644h-16.04859c-1.11697 0-2.02388-.67902-2.02388-1.51644 0-.83843.90691-1.51745 2.02388-1.51745zm-54.461787-65.79123h9.715406c.798838 0 1.446195.46915 1.446195 1.04728 0 .57712-.647357 1.04728-1.446195 1.04728h-9.715406c-.798838 0-1.446195-.47016-1.446195-1.04728 0-.57813.647357-1.04728 1.446195-1.04728zm12.462377 63.11853-2.602558-61.09762m-11.999833 60.66579 1.879456-60.66478m13.084475 66.72955v23.32679m-15.831442.28957v-23.54271m-3.541777 26.50395v-3.03289h22.554469v3.03289zm7.301688-7.58221v-13.57737h8.458057v13.57737zm-2.872198-24.80086h14.008559c.99577 0 1.8027.63665 1.8027 1.42261 0 .78496-.80693 1.42262-1.8027 1.42262h-14.008559c-.995781 0-1.802706-.63766-1.802706-1.42262 0-.78697.806925-1.42261 1.802706-1.42261zm-.815002 2.84523h16.047571c1.11799 0 2.02489.67902 2.02489 1.51745 0 .83742-.9069 1.51644-2.02489 1.51644h-16.047571c-1.117983 0-2.023869-.67902-2.023869-1.51644 0-.83843.905886-1.51745 2.023869-1.51745z"/></g></g><path d="m-224.6864 196.71768h3.032886v22.554472h-3.032886z" fill="#fdb827" transform="rotate(-90)"/><path d="m-224.6864 196.71768h3.032886v22.554472h-3.032886z" fill="none" stroke="#000" stroke-miterlimit="3.864" stroke-width="1.145" transform="rotate(-90)"/><path d="m95.791654 127.56945s0 .55391.498895.53172c.497895-.0222.56354-.24417.584741-.46513.022222-.22297-.021201-2.65857.238347-3.41224.260558-.75368.736223-1.95332 1.647167-2.41642 1.775436-.89998 4.225496.30369.769559 1.79491-.927098.39954-1.333089 1.03013-1.549215 1.29649-.217125.26535-.423154.68709-.476673.95143-.054539.26738-.228241.70929-.292876 1.06444-.034337.18666-.217135 1.1623.389828 1.19661.606953.0343.542318-.19977.56353-.32085.022221-.12107-.249453-1.05333-.011106-1.56285.239347-.50952.444356-.89695.726126-1.13002.28278-.23105 1.946113-.82329 2.265243-.98573.42215-.21289 3.14589-1.36107.87863-3.39006-.47164-.42174-1.83906-.97262-2.937853-.48631-.801867.35414-2.015793 1.28439-2.492467 2.37102-.492837 1.12195-.542328 1.32878-.71502 2.39321-.12826.78597-.130279 2.54759-.130279 2.54759z"/><path d="m94.502997 127.22137c-.542318-.80514-1.241185-1.6012-1.399743-2.46485-.121193-1.12901-.020193-2.06329.303991-2.80184.33327-.82834.84327-1.34996 1.528003-1.56285.56353-.10392.982646.05953 1.257339.48732.157548.25728.182799.5075.07575.75368-.087865.15538-.236327.25929-.444366.30975-.161587.00806-.301962-.06256-.422145-.21088-.372665.18868-.809954.59024-1.05132 1.27531-.210068.61849-.173712 1.2289-.1525 1.76162.072712.62756.337308 1.10076.565549 1.46095l.368626.84852c.010096.11099-.043433.22298-.162596.33194-.185828.03935-.341357-.0232-.466588-.18867z"/><path d="m91.207644 127.26072c.542318-.80615.892761-1.64055 1.051319-2.5042.121193-1.12901.020202-2.06329-.303981-2.80184-.33328-.82834-.842271-1.34996-1.528003-1.56285-.56354-.10392-.982656.05953-1.257349.48732-.157549.25728-.182799.5075-.075741.75368.087856.15538.236318.25929.444357.30975.161587.00806.302981-.06256.423155-.21088.372664.18868.808944.59024 1.051329 1.27531.209048.61849.172693 1.2289.151481 1.76162-.071702.62756-.18077 1.15222-.325193 1.57295l-.260558.77586c-.010096.11099.044442.22298.162596.33195.186837.03834.341357-.0232.466588-.18867z"/><path d="m89.586727 127.56945s0 .55391-.497896.53172c-.498895-.0222-.56353-.24417-.585751-.46513-.021202-.22297.022221-2.65857-.238337-3.41224-.259548-.75368-.735223-1.95332-1.647176-2.41642-1.775427-.89998-4.22549.30369-.76955 1.79491.928108.39954 1.333089 1.03013 1.550215 1.29649.216125.26535.422145.68709.476683.95143.05353.26738.227232.70929.292876 1.06444.033327.18666.216126 1.1623-.390837 1.19661-.606963.03329-.541319-.19977-.56353-.32085-.021212-.12107.249442-1.05333.011105-1.56285-.238336-.50952-.444366-.89695-.726126-1.13002-.28177-.23105-1.9451-.82329-2.265245-.98573-.422145-.21289-3.145892-1.36107-.877618-3.39006.471626-.42174 1.838043-.97262 2.936834-.48631.801876.35414 2.015792 1.28439 2.492476 2.37102.492838 1.12195.542328 1.32878.71603 2.39321.12826.78597.12927 2.54759.12927 2.54759z"/><path d="m153.27611 127.56945s0 .55391.4979.53172c.49889-.0222.56454-.24417.58575-.46513.0212-.22297-.02121-2.65857.23834-3.41224.25955-.75368.73522-1.95332 1.64717-2.41642 1.77544-.89998 4.22549.30369.76956 1.79491-.92811.39954-1.33209 1.03013-1.55022 1.29649-.21613.26535-.42215.68709-.47669.95143-.05352.26738-.22723.70929-.29287 1.06444-.03333.18666-.21613 1.1623.39084 1.19661.60797.03329.54131-.19977.56454-.32085.02121-.12107-.24945-1.05333-.01111-1.56285.23733-.50952.44336-.89695.72614-1.13002.28075-.23105 1.94509-.82329 2.26523-.98573.42215-.21289 3.14488-1.36107.87661-3.39006-.47163-.42174-1.83703-.97262-2.93582-.48631-.80188.35414-2.0158 1.28439-2.49349 2.37102-.49183 1.12195-.54132 1.32878-.71603 2.39321-.12826.78597-.12927 2.54759-.12927 2.54759z"/><path d="m151.98747 127.22137c-.54233-.80514-1.2412-1.6012-1.40077-2.46485-.12118-1.12901-.02019-2.06329.305-2.80184.33327-.82834.84228-1.34996 1.52801-1.56285.56353-.10392.98264.05953 1.25735.48732.15754.25728.18278.5075.07574.75368-.08787.15538-.23632.25929-.44437.30975-.16159.00806-.30297-.06256-.42315-.21088-.37266.18868-.80895.59024-1.05132 1.27531-.20906.61849-.1727 1.2289-.15149 1.76162.0717.62756.33832 1.10076.56555 1.46095l.36862.84852c.01111.11099-.04342.22298-.1626.33194-.18683.03935-.34236-.0232-.46657-.18867z"/><path d="m148.69109 127.26072c.54334-.80615.89479-1.64055 1.05132-2.5042.12221-1.12901.02121-2.06329-.30297-2.80184-.33327-.82834-.84328-1.34996-1.528-1.56285-.56353-.10392-.98265.05953-1.25735.48732-.15755.25728-.18279.5075-.07574.75368.08786.15538.23632.25929.44437.30975.16158.00806.30196-.06256.42214-.21088.37265.18868.80995.59024 1.05132 1.27531.21007.61849.1737 1.2289.15149 1.76162-.0717.62756-.18078 1.15222-.32418 1.57295l-.26157.77586c-.01011.11099.04443.22298.1626.33195.18682.03834.34235-.0232.46657-.18867z"/><path d="m147.07119 127.56945s0 .55391-.4989.53172c-.49789-.0222-.56354-.24417-.58474-.46513-.02121-.22297.0212-2.65857-.23835-3.41224-.25955-.75368-.73622-1.95332-1.64817-2.41642-1.77443-.89998-4.22449.30369-.76855 1.79491.92709.39954 1.33309 1.03013 1.54921 1.29649.21713.26535.42316.68709.47668.95143.05554.26738.22925.70929.29287 1.06444.03434.18666.21714 1.1623-.38983 1.19661-.60796.03329-.54232-.19977-.56353-.32085-.02222-.12107.24845-1.05333.0101-1.56285-.23834-.50952-.44436-.89695-.72714-1.13002-.28076-.23105-1.94409-.82329-2.26524-.98573-.42114-.21289-3.14488-1.36107-.87762-3.39006.47164-.42174 1.83906-.97262 2.93785-.48631.80187.35414 2.0158 1.28439 2.49247 2.37102.49285 1.12195.54132 1.32878.71502 2.39321.12826.78597.13028 2.54759.13028 2.54759z"/><path d="m210.75957 127.56945s0 .55391.4989.53172c.49889-.0222.56454-.24417.58474-.46513.02222-.22297-.02121-2.65857.23834-3.41224.26055-.75368.73623-1.95332 1.64818-2.41642 1.77443-.89998 4.22448.30369.76956 1.79491-.92812.39954-1.33208 1.03013-1.55022 1.29649-.21714.26535-.42316.68709-.47669.95143-.05453.26738-.22824.70929-.29287 1.06444-.03434.18666-.21713 1.1623.38983 1.19661.60797.03329.54232-.19977.56455-.32085.02221-.12107-.24845-1.05333-.0101-1.56285.23733-.50952.44335-.89695.72613-1.13002.28177-.23105 1.9451-.82329 2.26524-.98573.42215-.21289 3.14488-1.36107.87762-3.39006-.47265-.42174-1.83906-.97262-2.93684-.48631-.80187.35414-2.0158 1.28439-2.4945 2.37102-.49082 1.12195-.5403 1.32878-.71401 2.39321-.12927.78597-.13129 2.54759-.13129 2.54759z"/><path d="m209.47193 127.22137c-.54334-.80514-1.2422-1.6012-1.39975-2.46485-.1222-1.12901-.02121-2.06329.30297-2.80184.33327-.82834.84328-1.34996 1.52801-1.56285.56354-.10392.98265.05953 1.25735.48732.15754.25728.18279.5075.07574.75368-.08786.15538-.23531.25929-.44436.30975-.16159.00806-.30197-.06256-.42215-.21088-.37266.18868-.80995.59024-1.05132 1.27531-.20905.61849-.17371 1.2289-.15048 1.76162.0707.62756.33731 1.10076.56454 1.46095l.36862.84852c.01112.11099-.04342.22298-.1626.33194-.18581.03935-.34235-.0232-.46657-.18867z"/><path d="m206.17656 127.26072c.54132-.80615.89277-1.64055 1.05133-2.5042.12119-1.12901.0212-2.06329-.30399-2.80184-.33428-.82834-.84328-1.34996-1.52901-1.56285-.56353-.10392-.98265.05953-1.25734.48732-.15654.25728-.18179.5075-.07575.75368.08887.15538.23633.25929.44436.30975.16159.00806.30298-.06256.42316-.21088.37265.18868.80995.59024 1.05132 1.27531.20906.61849.1727 1.2289.15048 1.76162-.07069.62756-.17977 1.15222-.32418 1.57295l-.25955.77586c-.01212.11099.04342.22298.16159.33195.18683.03834.34337-.0232.46758-.18867z"/><path d="m204.55565 127.56945s0 .55391-.4989.53172c-.49889-.0222-.56353-.24417-.58575-.46513-.02121-.22297.02222-2.65857-.23733-3.41224-.25955-.75368-.73623-1.95332-1.64818-2.41642-1.77544-.89998-4.22448.30369-.76956 1.79491.92811.39954 1.33309 1.03013 1.55022 1.29649.21613.26535.42215.68709.47668.95143.05554.26738.22825.70929.29288 1.06444.03434.18666.21612 1.1623-.39084 1.19661-.60696.0343-.54132-.19977-.56354-.32085-.02221-.12107.24845-1.05333.01112-1.56285-.23835-.50952-.44437-.89695-.72614-1.13002-.28176-.23105-1.94611-.82329-2.26524-.98573-.42215-.21289-3.14588-1.36107-.87762-3.39006.47164-.42174 1.83805-.97262 2.93684-.48631.80188.35414 2.0158 1.28439 2.49248 2.37102.49284 1.12195.54232 1.32878.71603 2.39321.12826.78597.13028 2.54759.13028 2.54759z"/><path d="m53.586217 180.99406c-3.831624-2.74433-7.879363-2.02193-7.879363-2.02193s2.924718-3.88342 7.589526-1.95129c2.964103 1.22889 5.493945 5.77822 13.012768 1.01197 7.517824-4.76726 9.975964-8.23299 17.059517-9.38924 7.084563-1.15524 12.145257-2.74432 13.734866-3.32245 1.590619-.57712 4.079059-1.48315 5.349529-9.09967.28884-1.73437 7.22899 14.44304 7.22899 14.44304s-1.01194 5.34437-7.66224 8.37827c-6.651311 3.0339-18.174461 4.84798-24.57834 9.96635-2.169303 1.73337-6.336225 4.72993-8.855961 8.41359-5.927205 8.66682-12.107891 9.64146-12.107891 9.64146s5.604021-4.89136 7.156265-11.48279c.289847-1.22789-.182799-6.74983 2.023869-8.95539-2.344014 2.34176-8.278286-2.27214-7.517813-1.66072 0 0-.723108-1.22788-4.553722-3.9712z" fill="#fdb827" fill-rule="evenodd"/><path d="m53.586217 180.99406c-3.831624-2.74433-7.879363-2.02193-7.879363-2.02193s2.924718-3.88342 7.589526-1.95129c2.964103 1.22889 5.493945 5.77822 13.012768 1.01197 7.517824-4.76726 9.975964-8.23299 17.059517-9.38924 7.084563-1.15524 12.145257-2.74432 13.734866-3.32245 1.590619-.57712 4.079059-1.48315 5.349529-9.09967.28884-1.73437 7.22899 14.44304 7.22899 14.44304s-1.01194 5.34437-7.66224 8.37827c-6.651311 3.0339-18.174461 4.84798-24.57834 9.96635-2.169303 1.73337-6.336225 4.72993-8.855961 8.41359-5.927205 8.66682-12.107891 9.64146-12.107891 9.64146s5.604021-4.89136 7.156265-11.48279c.289847-1.22789-.182799-6.74983 2.023869-8.95539-2.344014 2.34176-8.278286-2.27214-7.517813-1.66072 0 0-.723108-1.22788-4.553722-3.9712z" fill="none" stroke="#000" stroke-miterlimit="3.864" stroke-width="1.002"/><path d="m197.07924 156.58265s1.15736 6.57327 14.09641 9.89572c12.94007 3.32145 14.96395 7.50958 17.06154 8.52054 2.09558 1.01096 7.80565 5.5613 13.37331 2.96226 5.56566-2.60005 9.90325-2.74433 11.34844-1.87764 1.44621.86667.36155-1.08361-4.19216 3.75529-4.55371 4.83889-5.92721 5.85086-7.51783 6.64491-3.47411 1.73538-3.74173 1.94524-6.21704 2.09355 0 0 2.31372 2.88861 2.67426 7.58423.36054 4.69261 6.65131 9.45987 6.65131 9.45987s-8.38533-2.16621-12.07254-7.14939c-3.6862-4.98316-9.75883-9.24394-11.99984-10.32754-2.241-1.08261-13.66316-4.98217-16.04959-5.9215-2.38442-.93933-9.82952-4.83889-10.84146-11.12058-1.01396-6.28673 3.68519-14.51972 3.68519-14.51972z" fill="#fdb827"/><path d="m197.07924 156.58265s1.15736 6.57327 14.09641 9.89572c12.94007 3.32145 14.96395 7.50958 17.06154 8.52054 2.09558 1.01096 7.80565 5.5613 13.37331 2.96226 5.56566-2.60005 9.90325-2.74433 11.34844-1.87764 1.44621.86667.36155-1.08361-4.19216 3.75529-4.55371 4.83889-5.92721 5.85086-7.51783 6.64491-3.47411 1.73538-3.74173 1.94524-6.21704 2.09355 0 0 2.31372 2.88861 2.67426 7.58423.36054 4.69261 6.65131 9.45987 6.65131 9.45987s-8.38533-2.16621-12.07254-7.14939c-3.6862-4.98316-9.75883-9.24394-11.99984-10.32754-2.241-1.08261-13.66316-4.98217-16.04959-5.9215-2.38442-.93933-9.82952-4.83889-10.84146-11.12058-1.01396-6.28673 3.68519-14.51972 3.68519-14.51972z" fill="none" stroke="#000" stroke-miterlimit="3.864" stroke-width="1.002"/><path d="m208.2479 154.27217c1.62193.4167 4.39416 1.75657 6.02719 2.92594 7.95713 5.69448 6.62505 10.30435 4.41838 10.4345-2.45814.14529 15.46991 0 17.63821-1.15525 2.16929-1.15624 2.8924-2.45677 1.59061-5.20009-1.30077-2.74433-11.13231-19.49885-27.1809-22.67702-16.04757-3.17717-22.40702 3.5646-21.03555 5.84985 1.30077 2.1652 7.22898 9.38823 7.4451 12.34847 1.64717-3.09646 5.34953-3.97928 11.09696-2.5264z" fill="#fdb827"/><path d="m208.2479 154.27217c1.62193.4167 4.39416 1.75657 6.02719 2.92594 7.95713 5.69448 6.62505 10.30435 4.41838 10.4345-2.45814.14529 15.46991 0 17.63821-1.15525 2.16929-1.15624 2.8924-2.45677 1.59061-5.20009-1.30077-2.74433-11.13231-19.49885-27.1809-22.67702-16.04757-3.17717-22.40702 3.5646-21.03555 5.84985 1.30077 2.1652 7.22898 9.38823 7.4451 12.34847 1.64717-3.09646 5.34953-3.97928 11.09696-2.5264z" fill="none" stroke="#000" stroke-miterlimit="3.864" stroke-width="1.002"/><path d="m72.498931 161.75349c-8.78324-3.4294-6.332177-5.57643-6.332177-5.57643 1.94611-3.13378 7.151217-9.86142 17.852297-13.96581 14.31355-5.48764 28.915939-3.03289 25.012609 3.32245-2.3733 3.86326-6.47053 10.61612-6.47053 10.61612s-1.69869-4.55034-9.505338-1.66173c-7.807671 2.88961-12.114968 5.11737-12.578517 6.64591-.723098 2.38212-.433251 3.89856 5.205107 3.03288-3.6872 1.22789-7.794536-.05447-12.405815-2.09758z" fill="#fdb827"/><path d="m72.498931 161.75349c-8.78324-3.4294-6.332177-5.57643-6.332177-5.57643 1.94611-3.13378 7.151217-9.86142 17.852297-13.96581 14.31355-5.48764 28.915939-3.03289 25.012609 3.32245-2.3733 3.86326-6.47053 10.61612-6.47053 10.61612s-1.69869-4.55034-9.505338-1.66173c-7.807671 2.88961-12.114968 5.11737-12.578517 6.64591-.723098 2.38212-.433251 3.89856 5.205107 3.03288-3.6872 1.22789-7.794536-.05447-12.405815-2.09758z" fill="none" stroke="#000" stroke-miterlimit="3.864" stroke-width="1.002"/><path d="m111.99576 118.81283s12.41492 21.23625 37.66183 20.94366c24.93989-.28856 37.66282-20.22125 37.66282-20.22125l6.6503 9.82207s2.45915 3.32245-2.3117 7.50956c-16.8555 14.79819-30.20762 17.70596-42.00142 17.62122-17.41703-.94842-31.46498-6.8235-42.14282-17.62122-1.92086-1.5911-2.31372-3.68163-1.73504-5.415z" fill="#fdb827"/><g fill="none" stroke="#000" stroke-miterlimit="3.864"><path d="m111.99576 118.81283s12.41492 21.23625 37.66183 20.94366c24.93989-.28856 37.66282-20.22125 37.66282-20.22125l6.6503 9.82207s2.45915 3.32245-2.3117 7.50956c-16.8555 14.79819-30.20762 17.70596-42.00142 17.62122-17.41703-.94842-31.46498-6.8235-42.14282-17.62122-1.92086-1.5911-2.31372-3.68163-1.73504-5.415z" stroke-linejoin="round" stroke-width="1.002"/><path d="m194.44134 130.72846c-2.1683-4.6583-6.14434 1.04728-6.14434 1.04728l-1.00082-12.16887m-81.77095 14.04753s-.75844-4.29709 6.03627-.83037l.50598-13.93754" stroke-width=".859"/><path d="m217.2493 116.79091s2.16727-5.34438 5.20309-6.35534m-143.998985.28856s2.602554 1.15624 4.770847 5.77822" stroke-width="1.288"/><path d="m85.38546 164.27081 1.282585-.45199" stroke-width="1.002"/></g><path d="m179.34207 164.02362c-.03636-.23004.26359-.46816.67058-.53172.40498-.06457.76552.06861.80188.29966.03635.22903-.2646.46714-.67059.5307-.40699.06559-.76551-.0686-.80187-.29864"/><path d="m176.5446 163.92878c.0202-.22096.37468-.37029.79279-.33295.4181.03632.74229.24517.72309.46613-.01919.21995-.37467.36927-.79177.33295-.4181-.03834-.7433-.24618-.72411-.46613"/><g stroke="#000" stroke-miterlimit="3.864"><g fill="none"><path d="m177.28689 168.30457s1.63101 2.29434 4.03765-.80615" stroke-width=".533"/><g stroke-linecap="round"><path d="m176.38402 163.21243s2.55711-.1009 1.95218 1.17642c-.1313.27747-.35751.46815-.46861.6649-.40295.70726-.24541.92117.22925.84247.60595-.10191.60999-.06255.60999-.06255l.21916.00403" stroke-linejoin="round" stroke-width=".429"/><path d="m181.11043 163.12263c-.47466-.14427-1.49366-.32791-1.97943.52162" stroke-width=".429"/><path d="m178.16753 166.69126c.49386.05651.97558.04137 1.44621-.04539" stroke-width=".533"/></g><path d="m178.50281 167.44797.87561-.03328" stroke-width=".429"/><g stroke-linejoin="round"><path d="m183.89679 163.42329 1.04829.46917c.47164-.02725.86248-.26233 1.17454-.70425-.26157-.83036-.65342-1.58203-1.17454-2.256" stroke-width=".644"/><path d="m169.65697 183.21979c-.57869.86669-3.43372-.7779-3.57814 1.67687-.11109 1.88672.25551 3.22861 2.08548 3.46369l1.34723-.88887.36054-.36019" stroke-width=".716"/><path d="m183.89679 194.36761-.77763 1.66173c-.15654.46916.20804 1.04628.20804 1.04628l-.14543.52364-.08988.48832.26157.79304c.50193 1.30759 1.51386.92116 2.67527-.28755" stroke-width=".573"/></g></g><path d="m168.01989 181.41479c-.27975-7.42987.32924-15.97563.65443-26.67649-2.33291 3.37694-2.39452 25.01173-2.35412 26.68556z" stroke-width=".564"/><g fill="none"><path d="m169.81956 187.04772.37973-.26232 1.55326-.43385 2.52074-1.01096c.10302 1.26521.13635 4.399.04545 5.99413-.09998 1.75557-.08281 3.52425-.0101 6.91834.07171 3.39408.94023 5.41601 1.22907 6.64491.28884 1.22686 2.31272 12.13154 2.60154 14.87687.28985 2.74433-.50596 1.4438-3.17921 2.96126-2.67527 1.51643-1.15736 1.73235-1.15736 1.73235h10.62634s-.7231-1.01096-.86752-3.68264c-.14442-2.67169 1.37349-12.63804 1.37349-12.63804l1.51791-11.1226.21712-1.94927s2.10669-2.80286 2.39553-10.02488c.40902-3.3053.10704-6.60353-.10907-9.74942 0 0 .3161-1.89178-1.70778-3.69677-2.02386-1.80602-3.10852-2.02294-3.39736-3.90059-.03534-.23004-.28277-.30974-.31609-.46411" stroke-linejoin="round" stroke-width=".859"/><path d="m184.72796 176.02501c.43426 7.29366.29085 12.71975-.51607 15.44088l-.43427 2.96125-.01615.03128" stroke-width=".573"/><path d="m183.93315 194.36761s1.07354-5.75603 3.06206-7.48838c.1212-.10695.93923 3.03288-.10906 8.12401" stroke-linejoin="round" stroke-width=".573"/><path d="m174.50962 171.92163c4.00129 7.13525 6.29683 10.49403 10.34457 14.46625m-8.6661-15.5771c3.22669 5.50279 6.52205 9.64249 8.75699 12.07505" stroke-width=".716"/><path d="m179.04313 186.80659s3.14387 11.51911 5.74542 15.41868l.86853 1.87764m-5.99891-19.17296s1.73504 5.63293 4.33659 7.94443m-4.59008-23.43677c.28884 0 2.45915 1.87765 2.45915 1.87765s.21612.93933 1.15636-.07164c.94023-1.01096 1.59062-2.31149 1.59062-2.31149" stroke-width=".573"/><path d="m179.63191 224.41195v-.3612l.36055-1.11892s.36155-.68608.53121-.84549c1.121-1.04224.05959-5.10224-.14543-13.2878l-1.00082-13.92444" stroke-linecap="round" stroke-width=".716"/><path d="m177.17176 168.16331c-.02929.68609-.72513 1.90287-1.42701 2.53952-.79481.7224-2.44704 2.79578-2.1582 5.75602.2131 2.1773.71603 4.56043.09796 4.82376-1.64919.70627-3.88515 2.07439-3.86495 2.07238" stroke-linejoin="round" stroke-width=".859"/><path d="m183.92305 194.57142c.80288.46108 1.71888.74964 2.74697.86668" stroke-width=".573"/><path d="m174.24603 192.20242s5.96254-2.63637 5.96254-11.37484" stroke-width=".716"/><path d="m183.77863 166.91122c-4.19216 3.82793-4.68904 2.39725-4.68904 2.39725 1.48154.7224 1.02304 5.40895 1.30077 7.87178" stroke-linejoin="bevel" stroke-width=".716"/><path d="m281.499 398.444-1.039.895 2.327 2.29" stroke-width=".567647" transform="matrix(0 -1.0089441 1.0099168 0 -226.37785 454.58843)"/><path d="m174.52476 201.7208s.36155-2.96126 1.30179-5.34438c.94023-2.38313 3.25394-9.10068 3.25394-9.10068" stroke-width=".716"/><path d="m173.9572 180.10518c.01009.37532.09796 2.02898.34336 5.59762" stroke-width=".859"/><g stroke-linejoin="round"><path d="m169.52063 182.93426s.89478 2.37001.02727 4.46458" stroke-width=".716"/><path d="m184.98548 161.00385c-.9271-1.38932-1.2836-2.32764-3.43775-2.59601-2.15315-.2694-4.77691-.53777-5.92115-1.07554-1.14524-.53777-2.15515-1.10883-1.61587.37028.56254 1.5457.37873 4.02468 1.80776 3.75227m.06766.07365c.14745.46411.21007.96254.21007 1.14918 0 .33599 0 2.35286.40295 3.29522.3868.902.72916 2.34276.72916 2.34276" stroke-width=".644"/><path d="m183.45546 167.17758c-.21511-1.02812-.30197-.68104.11109-2.21363.47062-1.74446.27671-.64068.27571-1.7031" stroke-width=".573"/></g><path d="m181.44673 162.00472c.80087-.69113 1.57548-1.47508 2.3218-2.35387m-3.96998 1.81711c.87661-.71736 1.77341-1.59312 2.68839-2.63132m-6.72301 2.57179c4.27195-.21288 5.14149-.15235 8.17326 1.9402" stroke-width=".533"/><path d="m182.75963 164.22339s.03433 1.61935-.70594 2.12382" stroke-width=".429"/><path d="m175.58316 204.65985c.85136-.95748 3.25698-.98674 4.3386-.10795l.10806-.57712c-.67361.02321 4.43656-1.76464 5.09604 1.69704" stroke-width=".573"/><path d="m168.03201 181.48238 1.06546.03431h.51708s.30903.60234-.1727.81522c-.48172.21189-.61807.2472-.61807.2472l-.03434.76075" stroke-linejoin="round" stroke-width=".553"/><path d="m168.84701 182.56398h-1.85622s-.98669.26333-1.03113 1.06342c-.06968 1.27329-.09291 3.07526.45648 3.78253l.55041.56603m1.94409-.06761c-.58777.95547-1.01901 1.03719-2.05114 1.12901-1.39167.1241-2.78434-1.50333-3.11055-3.8572-.35953-2.60105.15452-3.71694 3.05904-3.70786" stroke-width=".553"/><path d="m102.651 107.30279c7.81272-18.617037 25.91851-31.658647 47.00558-31.658647 21.1022 0 39.21607 13.056749 47.02172 31.691947m-112.699643-.22197c8.661048-28.643926 34.790623-49.455418 65.678933-49.455418 30.9095 0 57.05322 20.839744 65.7072 49.511918" stroke-linejoin="round" stroke-width="1.288"/></g></g><path d="m108.07123 91.033562c-.00707.170519-.08685.430826-.23834.779923-.14846.351104-.36962.721392-.6625 1.109836-.73825.978674-1.6593 1.538635-2.76213 1.679894-1.10485.135197-2.27433-.262335-3.50845-1.191566l-.31004-.233064c-1.150301-.864668-1.837043-1.873611-2.062255-3.024821-.222183-1.154226.024241-2.204543.738252-3.15194.308029-.407607.589789-.728453.846313-.963544.25349-.23609.47769-.399539.6726-.489337l1.21796.916129c-.18178.079702-.39286.214898-.63321.406599-.23834.189683-.47669.441921-.71604.75974-.44537.590231-.55242 1.235956-.32115 1.933131.2343.694159.77764 1.364092 1.63101 2.004774l.10604.079702c.91298.688107 1.70475 1.042247 2.37331 1.06242.67159.017157 1.20887-.242142 1.61384-.778904.2737-.361201.46962-.699193.58878-1.012978.11615-.315802.19694-.573083.2434-.775879z"/><path d="m111.40598 81.637273-.17371-.192709c-.79077-.877781-1.44923-1.463976-1.9754-1.759606-.52616-.295619-1.06041-.199769-1.60172.287551-.4989.448981-.66049.936301-.48476 1.46095.17875.522632.70592 1.270269 1.58152 2.241882l.15654.174544c.88166.977665 1.56032 1.584044 2.036 1.816099.47466.233064.9786.109971 1.51083-.367252.43629-.393497.57464-.872738.41507-1.441787-.15654-.571066-.64432-1.311622-1.46437-2.219672zm1.61889-1.285398c1.01194 1.122958 1.53104 2.207568 1.55528 3.256867.02121 1.045273-.38478 1.944235-1.21898 2.69389-.82611.742574-1.75927 1.049298-2.80049.921162-1.04426-.131163-2.06428-.749645-3.06207-1.857464l-.3656-.404592c-.93012-1.031142-1.45023-2.086492-1.56133-3.16606-.10906-1.080586.29794-2.036051 1.21898-2.864399.89984-.810182 1.87743-1.09167 2.9338-.845494 1.0584.24316 2.04407.871729 2.95704 1.883698z" fill-rule="evenodd"/><path d="m373.254 347.709-.449-.748 2.788-6.94-5.112 3.072-.744-1.24 8.137-4.889.559.932-2.601 6.577 4.815-2.894.744 1.24z" transform="matrix(0 -1.0089441 1.0099168 0 -226.37785 454.58843)"/><path d="m132.84651 71.606344c.34742.954467.30196 1.770701-.13634 2.447704-.43931.673976-1.19877 1.205686-2.27636 1.598164-.61605.223987-1.15029.375332-1.60071.453016-.45143.078694-.8352.11098-1.15332.095851l-.56556-1.550749c.26662.061546.65241.06659 1.15636.019174.50394-.052469.97861-.159414 1.42499-.321854.62716-.228021 1.02607-.47219 1.19675-.732498.17472-.262324.18885-.595273.0404-1.000874-.09594-.262324-.26561-.464111-.509-.606368-.2444-.14025-.82611-.232066-1.74615-.276455-.73319-.038338-1.35025-.203804-1.85017-.495389-.50091-.294611-.88367-.804131-1.14726-1.52754-.25248-.693151-.18583-1.378223.19996-2.05926.38983-.682046 1.0796-1.202661 2.07033-1.562853.48073-.175552.92711-.289567 1.33915-.346071.41407-.060538.71098-.087771.88873-.08071l.49991 1.37216c-.35549.034304-.70493.078704-1.05031.132171-.34439.054486-.69786.146302-1.06143.277464-.51405.187666-.85438.405591-1.02002.653794-.16562.249213-.20299.499424-.11209.749645.11614.318828.28883.528683.51808.629577.22925.101912.81601.160422 1.76029.176571.87862.015129 1.56335.189682 2.05316.524649.49284.329923.85338.806147 1.08061 1.430681z"/><path d="m386.763 363.758-.374-1.924-7.929 1.541-.387-1.995 7.928-1.541-.382-1.971 1.389-.27 1.145 5.89z" transform="matrix(0 -1.0089441 1.0099168 0 -226.37785 454.58843)"/><path d="m143.68105 67.51915h2.052146v9.577905h-2.052146z" transform="matrix(.9994024 -.03456677 .03463336 .9994001 0 0)"/><path d="m386.736 381.398.171-1.953-8.047-.704.177-2.024 8.046.704.175-2.001 1.41.124-.523 5.978z" transform="matrix(0 -1.0089441 1.0099168 0 -226.37785 454.58843)"/><path d="m168.40669 72.215748c-.2343.870721-.67159 1.486177-1.3139 1.843343-.6413.355149-1.49468.389452-2.56418.10291-1.14625-.307723-1.89965-.791008-2.25919-1.451872-.35953-.661864-.39992-1.511393-.12219-2.548587l1.66838-6.223168 1.98246.529692-1.73604 6.474398c-.13533.502449-.13028.909058.01615 1.219807.15049.307733.49183.532728 1.02507.674985.49284.132171.88974.11805 1.18766-.043381.30096-.160423.52819-.529692.68472-1.110845l1.72697-6.438077 1.46942.393487z"/><path d="m379.675 402.04.86-1.762-7.26-3.541.891-1.826 7.259 3.541.88-1.805 1.274.622-2.631 5.392z" transform="matrix(0 -1.0089441 1.0099168 0 -226.37785 454.58843)"/><path d="m193.81343-42.645035h2.051588v9.582059h-2.051588z" transform="matrix(.8294272 .5586148 -.5593555 .8289279 0 0)"/><path d="m191.31767 84.833602.18177-.187666c.82106-.849529 1.36036-1.546704 1.6189-2.091536s.12523-1.070489-.3979-1.575974c-.48375-.466129-.98265-.593257-1.49367-.381374-.51001.213891-1.21897.791009-2.12689 1.732353l-.1636.168492c-.91499.946388-1.47246 1.664764-1.67141 2.15511-.19996.490345-.04242.984726.47364 1.481123.42215.406609.91095.512546 1.46741.313785.55647-.197752 1.26139-.735524 2.11175-1.614313zm1.39772 1.524514c-1.05032 1.086638-2.09861 1.678886-3.14387 1.775744-1.04224.094842-1.96631-.248203-2.77425-1.027108-.79884-.771834-1.17049-1.678875-1.11595-2.726166.05958-1.049298.60696-2.109702 1.64111-3.1812l.37973-.393487c.96548-.997848 1.98347-1.590095 3.05197-1.777761 1.07152-.182612 2.05315.15538 2.94492 1.017022.87156.840441 1.22099 1.7939 1.0493 2.864389-.16967 1.071498-.72815 2.097598-1.67545 3.078289z" fill-rule="evenodd"/><path d="m353.524 418.116.715-.5 7.117 2.297-3.422-4.885 1.186-.83 5.445 7.777-.892.623-6.743-2.137 3.224 4.602-1.186.831z" transform="matrix(0 -1.0089441 1.0099168 0 -226.37785 454.58843)"/><path d="m34.339224 160.28245c1.709792-.23912 3.141853.07467 4.298211.9464 1.147262.87171 1.842091 2.16922 2.084466 3.89351.108058.76578.098972 1.69805-.02626 2.79982-.121192 1.00591-.137346 1.81811-.05049 2.43559-1.453272.25728-2.899477.56501-4.337596.92419-.138356.02018-.225212-.09887-.260558-.35716-.02626-.1796.027269-.30067.158558-.36222 1.533051-.68911 2.575284-1.43774 3.126699-2.25095.551415-.8122.735223-1.87059.551415-3.17414-.146433-1.0382-.559492-1.79894-1.241186-2.28122-.681693-.49035-1.564359-.65885-2.645986-.50851-.695829.09888-1.30582.43789-1.827946 1.01904-.531213.58114-1.155339 1.7495-1.872389 3.50507-.811973 2.01385-1.551224 3.35978-2.216764 4.03981-.66654.68002-1.455292 1.08361-2.366236 1.21174-1.399744.19675-2.653054-.15235-3.760931-1.04729-1.115955-.90199-1.786543-2.14703-2.009735-3.7341-.084827-.60132-.099981-1.30355-.046452-2.10768.043423-.74965.027269-1.39033-.047472-1.92305 1.497715-.31479 2.809593-.63967 3.936663-.97262.137346-.01917.221173.08273.252481.30571.034337.24013-.015154.38441-.149472.4288-1.249272.46412-2.115773 1.02408-2.602553 1.67787-.48577.6538-.657463 1.48921-.515059 2.50117.135327.96153.526165 1.68494 1.172512 2.17226.647357.4853 1.451253.66187 2.413697.52668.609992-.08577 1.160397-.40258 1.652225-.95346.482742-.55895 1.07556-1.69603 1.780485-3.41426.835204-2.03404 1.580523-3.39309 2.237976-4.08219.656443-.6881 1.427012-1.09471 2.311697-1.21881z"/><path d="m27.148622 126.38597c.163606.01916.226222.18464.187847.49438-.016164.13721-.086856.21591-.212087.23508-1.259368.22197-2.181418.64572-2.76515 1.27228-.592819.62454-.971541 1.61431-1.138176 2.96428l-.148462 1.21274c-.052509.42073-.018173.71737.099981.88889.119174.17253.367617.2815.746329.3279l13.10872 1.60827c.593838.07264 1.02507.05044 1.292695-.06357.260558-.12511.48678-.36827.679675-.72947.184817-.37028.364577-.90603.538289-1.61028.034337-.13519.159558-.19068.374674-.16345.240366.02926.352462.11301.336299.25022-.071702.57611-.181779 1.26119-.33226 2.05523-.144414.75065-.247424 1.37922-.310039 1.88672-.064635.52465-.118164 1.1734-.160578 1.94525-.046462.80615-.105039 1.49727-.175731 2.07338-.017163.13923-.146433.1917-.386799.16244-.215106-.02523-.323174-.10797-.324183-.24921.008086-1.05536-.098972-1.78483-.320135-2.18739-.220164-.40964-.731185-.6649-1.532052-.76378l-13.10872-1.60826c-.378712-.0464-.646348-.001-.803886.13723-.156539.13822-.261568.42174-.314088.85154l-.123212 1.00693c-.149461 1.21275.025251 2.35184.523136 3.4183.489809 1.06444 1.206849 1.80702 2.15113 2.22876.124211.05852.177741.16143.159558.30672-.036356.29361-.148452.42678-.338318.40358-1.241185-.64169-2.657092-1.27833-4.248721-1.90994.38478-1.1401.834194-3.80069 1.348244-7.98074.527174-4.29205.74229-7.0384.645338-8.23803 1.134137.01815 2.651024-.05751 4.550682-.226z"/><path d="m38.518262 106.86189-7.033063.00101 5.481829 4.49786zm9.870925-4.92365c.22925.07869.321154.18464.275712.3158-.194914.56501-.439318 1.19559-.734213 1.89076-.261568.5983-.466578 1.11387-.61605 1.54873-.172692.49943-.361548 1.12699-.566558 1.88168-.218145.79404-.423155 1.466-.612011 2.01587-.045453.13116-.182799.15639-.412049.07769-.229251-.07971-.327213-.16749-.292876-.26636.218145-.74057.303991-1.2975.258539-1.67081-.053529-.37533-.248443-.62152-.584742-.73653-.214096-.07264-.581712-.10796-1.106867-.10493l-4.600174-.02825-1.745138 5.0649 3.331719 2.71204c.446385.35616.808944.58014 1.087685.67699.721078.24821 1.344195-.27947 1.867331-1.58403.034336-.09888.165625-.10897.394875-.02926.23026.07869.322164.18463.276722.31579-.169664.49036-.381751 1.02812-.637261 1.60927-.244394.54887-.442337 1.04426-.594838 1.48618-.121192.35414-.249452.80413-.38377 1.354-.142394.57308-.28177 1.05838-.417097 1.45086-.042413.12309-.166635.14933-.370635.0787-.23026-.0787-.321155-.21491-.272684-.40963.169674-.70121.165636-1.30356-.011105-1.80399-.172693-.50952-.66553-1.14112-1.478513-1.89783l-12.153343-10.61509c-.115135-.09586-.141385-.23106-.078769-.41166.067663-.19674.171682-.29864.312058-.30571l15.898111-.20885c.893781-.01412 1.613849-.19674 2.157187-.54987.546357-.36221 1.010925-.93731 1.391657-1.72126.072721-.16043.212087-.20482.417097-.1352z" fill-rule="evenodd"/><path d="m50.692807 72.882665c.138366.089788.123212.266359-.047461.526666-.075751.116023-.173713.156388-.293886.119059-1.22907-.35414-2.244033-.37634-3.043891-.067608-.806925.302689-1.581532 1.025091-2.323822 2.166204l-.66553 1.024083c-.23127.356157-.331251.637656-.299943.843477.031308.20683.207029.41367.527174.621508l11.075754 7.185704c.501934.32488.898829.49438 1.190695.508501.288837.002017.597867-.117032.930137-.357166.329231-.25122.726126-.653794 1.190685-1.21073.089885-.105936.226222-.101902.408011.017157.20299.132171.267625.256263.191885.372296-.316107.486311-.716031 1.054351-1.199782 1.702093-.458501.611412-.828136 1.131018-1.106868 1.559827-.287827.443928-.621107 1.002891-.9978 1.677866-.395885.704246-.751376 1.29952-1.068493 1.786839-.07473.117042-.215116.107964-.418106-.023198-.181789-.11805-.242376-.240135-.181789-.366254.470626-.94437.693819-1.647598.671597-2.105657-.017163-.466138-.364577-.918146-1.041223-1.35804l-11.076764-7.185704c-.320145-.207838-.580703-.284524-.782684-.229029-.200982.055494-.420126.264341-.655444.628568l-.553434.849539c-.66553 1.025081-1.008906 2.124831-1.028088 3.300248-.02727 1.171383.291866 2.153093.955376 2.946118.085847.105937.087866.222978.008077.346072-.160577.247185-.321154.31681-.480712.214898-.834194-1.119922-1.827956-2.312496-2.981276-3.576703.84631-.857598 2.417736-3.051046 4.71328-6.58336 2.358159-3.627156 3.755883-6.000191 4.195191-7.121132 1.011935.511537 2.40764 1.106821 4.189134 1.787858z"/><path d="m76.913277 59.920757c.509001 1.575965 1.066473 3.0117 1.671417 4.308193-2.462179 2.153083-4.201259 3.700806-5.216223 4.646185-1.002848.934284-2.667188 2.555657-4.995049 4.866136-.100991.094842-.234299.053478-.399924-.124101-.148462-.158406-.176741-.291585-.087866-.399539.467588-.55391.7938-1.011969.978608-1.372161.177751-.367262.238347-.691133.18078-.968587-.05151-.283516-.28379-.648751-.697858-1.090673l-8.350998-8.947317c-.408011-.437876-.749358-.694149-1.023051-.771844-.272673-.08878-.598876-.057502-.978608.09585-.379721.151345-.86852.446965-1.467407.886869-.10099.093832-.235308.053467-.400933-.124102-.165625-.17758-.196933-.314794-.095943-.408627 1.669388-1.412516 3.341815-2.899701 5.017261-4.46054 1.687571-1.571935 3.291325-3.137816 4.81327-4.697644 1.062425.846504 2.180409 1.618347 3.352921 2.315528.118163.126117.066654.293602-.15553.500436-.108057.101903-.216115.118046-.324183.054483-1.865312-1.0604-3.566017-.872737-5.101088.557946l-1.922879 1.788858c-.735223.687092-.748348 1.409493-.038375 2.169234l3.948768 4.231507 2.398553-2.235821c.634233-.59023.926099-1.136071.875598-1.632468-.043423-.504477-.366597-1.169366-.970531-1.994688-.093923-.100893-.052509-.234072.124222-.399539.17775-.166476.314087-.197753.40902-.097868.295904.316812.649376.735525 1.061416 1.251086.393876.498425.726136.89292.998809 1.184505.277732.297637.651396.660855 1.122022 1.088655.498895.45806.8968.846503 1.192714 1.163304.094923.100903.05352.233074-.124221.399549-.177751.164457-.314087.196743-.40902.096859-.817021-.686081-1.490638-1.071499-2.021851-1.156254-.524145-.091815-1.087685.144285-1.690599.704246l-2.398554 2.234812 4.365865 4.677462c.697858.747627 1.415907.778905 2.15113.093833l2.07538-1.932132c.754405-.703227 1.275521-1.646589 1.562339-2.826051.280751-1.185504.252472-2.307453-.084836-3.368865-.028279-.080711-.00101-.159414.081808-.235082.088865-.082738.191875-.131162.309029-.146301.111096-.019165.198952.004044.264597.074668z"/><path d="m107.91166 37.05909c-1.04122-2.333688-2.45813-3.991383-4.25074-4.968041-1.78553-.979685-3.59731-1.0604-5.435367-.243156-1.847139.821281-3.002487 2.222705-3.468056 4.204271-.457491 1.976522-.165625 4.134653.874589 6.46935 1.034156 2.319562 2.426832 3.953043 4.178028 4.900441 1.756246.936301 3.565006.988766 5.427286.160423 1.85522-.824308 3.02167-2.202526 3.50038-4.132636.48274-1.9402.20703-4.071089-.82612-6.390652zm2.61468-1.163312c1.11899 2.510252 1.22604 4.924656.32216 7.24321-.9069 2.310482-2.66517 4.044857-5.27278 5.205142-2.60659 1.158269-5.07281 1.303557-7.398648.431829-2.321793-.883836-4.041682-2.581889-5.159665-5.091133-1.122012-2.517315-1.236137-4.956943-.342356-7.317872.890742-2.37001 2.627803-4.129607 5.211175-5.277787 2.591434-1.152214 5.066754-1.267234 7.424904-.34304 2.35513.916121 4.09319 2.633344 5.21521 5.149651z" fill-rule="evenodd"/><path d="m131.30739 26.111037c.03333.169503-.09897.284523-.3979.342032-.14442.028251-.24541-.014125-.30196-.127127-.49082-.928228-1.14728-1.577989-1.97035-1.948271-.82308-.370282-1.75827-.453015-2.80555-.249209l-2.29958.445953c-1.00487.194726-1.40783.80312-1.20887 1.824172l1.10485 5.679346 2.91158-.567027c.85238-.165467 1.38864-.473195 1.61082-.922175.23026-.448979.31207-1.186518.24643-2.206561-.02626-.135198.07574-.227012.30499-.271405.23935-.046412.37063-.002018.3979.135198.08282.425775.16159.966569.23632 1.621373.06969.631599.14241 1.142125.21815 1.534604.07777.399542.20299.905023.37468 1.516444.18077.652786.31206 1.193581.39488 1.618346.02625.136207-.07979.22903-.31813.274432-.23026.044394-.35852-.002017-.38478-.138225-.33731-1.01197-.70896-1.694017-1.11394-2.048156-.39689-.356158-.99881-.454025-1.80775-.297639l-2.9126.566018 1.14727 5.89526c.11412.587206.26763.989774.46052 1.208716.19996.207842.50091.348085.90388.420729.40901.062555.97558.065582 1.69867.013117.14847-.011099.2434.089795.2848.303691.04645.237103.00101.369274-.13532.396516-.57061.110984-1.25634.217932-2.05822.320844-.76753.095849-1.41186.193717-1.93096.295621-.51909.100894-1.14827.249209-1.88854.444944-.77259.202798-1.44519.360193-2.01579.472186-.13635.025224-.22723-.079707-.27369-.317817-.04141-.212888.00403-.341023.13734-.384408.68978-.221968 1.20989-.438891 1.5583-.646733.34641-.217933.56859-.460079.66655-.72644.10705-.267371.10301-.699199-.01312-1.294476l-2.33594-12.007444c-.11413-.586196-.26764-.986748-.45851-1.196607-.1838-.21995-.47768-.365239-.88065-.437882-.40295-.071635-.97457-.079707-1.71484-.025224-.13633.027241-.22723-.078697-.27368-.3158-.04645-.23811-.00101-.371291.13432-.398532 2.16627-.313782 4.37294-.690118 6.62101-1.125982 2.12891-.412658 4.25175-.877782 6.36954-1.396378.56758 1.418575 1.14021 2.656549 1.71787 3.719976z"/><path d="m175.65183 33.897059c-.03029.214906-.11513.320844-.2545.317817-1.05637-.024214-1.7926.0676-2.20767.280487-.40701.214905-.66655.720386-.77865 1.518461l-.21411 1.51947c-.18581 1.322726-.21914 2.2449-.09998 2.768543-1.20685.294612-2.49247.490346-3.85383.587205-1.36441.106948-2.55308.087778-3.56703-.054483-1.95723-.274432-3.62157-.901996-4.99-1.881681-1.36844-.979684-2.36422-2.243891-2.98733-3.792621-.62211-1.557809-.80996-3.216514-.56253-4.976113.24642-1.750518.91903-3.293193 2.01681-4.626009 1.0998-1.341895 2.49246-2.305437 4.17903-2.891634 1.68555-.586195 3.52461-.739556 5.51818-.459069.77259.106948 1.7916.391471 3.05905.849531 1.11696.40156 1.98145.645724 2.59043.731485-.05655 1.216787-.06463 2.704979-.02222 4.460541-.0202.137218-.16663.186656-.44133.147307-.18077-.024215-.27874-.108966-.29389-.251228-.35044-2.989501-2.15718-4.713787-5.42123-5.171847-2.01882-.283513-3.83264.310755-5.44144 1.782804-1.5997 1.474068-2.56922 3.416285-2.90855 5.826652-.32923 2.342769.06665 4.43431 1.19372 6.271598 1.12605 1.830224 2.67022 2.882553 4.62744 3.156985 2.87826.404587 4.41737-.104929 4.61733-1.530568l.4787-3.398124c.06565-.472186-.11411-.839441-.54231-1.100757-.4262-.269389-1.49064-.611421-3.19337-1.025088-.13734-.021187-.18784-.157395-.15048-.415685.03435-.240129.11918-.351112.25652-.330934.57566.080716 1.42298.220959 2.54298.421739 1.07556.194726 1.87643.329925 2.40057.40156.51607.072643 1.20079.147305 2.0572.224994.917.084752 1.66333.167485 2.23797.248201.13634.020178.18886.149323.15452.390461z"/><path d="m201.59255 47.835623c-1.25229 1.083606-2.35714 2.158131-3.31555 3.220549-2.94492-1.42362-5.05262-2.41743-6.32006-2.982439-1.25229-.556937-3.39736-1.452879-6.43519-2.690854-.12624-.0565-.14139-.195735-.0414-.417703.08785-.196743.19794-.275442.33226-.235083.6928.213896 1.24118.334969 1.64717.362211.408.021187.73017-.050448.96346-.211879.24036-.158404.48476-.514562.7332-1.068471l4.97989-11.175066c.2434-.545839.34843-.960515.31207-1.24201-.02424-.284522-.18179-.572072-.4696-.862647-.28884-.289568-.7524-.623528-1.39066-1.002891-.12624-.055492-.1414-.194726-.04141-.416694.09796-.221968.21107-.304701.33832-.2482 1.95419.984729 3.97705 1.9402 6.0696 2.872464 2.1077.937309 4.17803 1.799956 6.20897 2.589959-.36458 1.307592-.63927 2.63738-.82308 3.988356-.06968.158405-.24441.175557-.52314.052465-.13431-.060536-.19188-.151341-.17472-.27645.24643-2.128873-.58979-3.620092-2.50661-4.474667l-2.40158-1.067463c-.91902-.409632-1.59062-.138226-2.01377.811191l-2.35513 5.284849 2.99642 1.332816c.79178.352121 1.40783.406604 1.84714.166475.44841-.237102.93418-.794039 1.45731-1.670811.05655-.126118.19492-.141253.41709-.042376.22218.098876.305.211878.24743.337996-.17572.396516-.42214.884844-.73724 1.464987-.30499.556938-.53828 1.017016-.70087 1.381245-.16563.371292-.35348.857603-.56354 1.455906-.22925.638662-.43023 1.15625-.60696 1.551757-.05655.127126-.19491.141251-.4181.042375-.22118-.098877-.30399-.211878-.24643-.337996.31106-1.019034.40196-1.788858.2737-2.311491-.12019-.518597-.55748-.944372-1.30987-1.279342l-2.99541-1.332815-2.60357 5.842796c-.41709.934282-.16562 1.60523.75441 2.014862l2.59044 1.152214c.94326.41972 2.01377.530705 3.21355.33396 1.20079-.205825 2.22585-.669939 3.07116-1.394361.06362-.05751.14644-.063564.24945-.017151.11008.049438.19491.125108.25551.227012.0616.093832.07271.184637.03534.272415z"/><path d="m226.82836 59.790604c1.61182-1.986619 2.44399-3.999457 2.50257-6.039542.06362-2.033023-.68775-3.681637-2.2511-4.946853-1.57043-1.272279-3.34486-1.663749-5.32327-1.180465-1.97136.490348-3.76295 1.730339-5.37276 3.716951-1.59971 1.973494-2.42381 3.955061-2.4743 5.944693-.03736 1.988636.73622 3.622112 2.32079 4.904485 1.5785 1.276311 3.33676 1.688971 5.2748 1.238981 1.94913-.452007 3.72457-1.664754 5.32327-3.63825zm2.22484 1.799951c-1.72999 2.133919-3.83465 3.326493-6.31299 3.574696-2.47227.240125-4.81731-.536762-7.03508-2.33167-2.21777-1.792901-3.46604-3.923784-3.74376-6.390655-.26662-2.466869.46658-4.768271 2.19657-6.904206 1.73605-2.140979 3.8599-3.349694 6.37359-3.626144 2.51569-.283514 4.87486.464114 7.07244 2.242882 2.20465 1.783814 3.42967 3.933873 3.6761 6.453207.25147 2.512266-.49082 4.839902-2.22687 6.98189z" fill-rule="evenodd"/><path d="m249.25356 78.354161c2.04912-1.487175 2.4238-3.124696 1.12302-4.911535-.4282-.589222-.80288-1.001882-1.12605-1.23999-.31005-.234083-.60494-.330941-.8857-.288559-.27369.049433-.66856.260308-1.18059.631594l-4.685 3.401152c.23833.446964.58373.978674 1.03212 1.596147.82107 1.129011 1.68656 1.758598 2.59752 1.890769.91195.130153 1.95318-.228021 3.12468-1.079578zm-6.65838 13.027489c-.19592.143276-.3353.157397-.41609.045408-.18885-.259298-.47264-.700211-.85237-1.324745-.27571-.453016-.46456-.749644-.56757-.889894-.14745-.203804-.39993-.507492-.75946-.912084-.35751-.403573-.60999-.707272-.75845-.911076l2.8823-6.9597c.38983-.968577.58374-1.666771.58374-2.094562.00504-.42073-.29692-1.049308-.90388-1.883697l-4.52644 3.286127c-.48375.352123-.78471.660855-.90287.927224-.10402.270393-.10402.602334.00101.99582.11715.39854.35347.912085.70492 1.544698.07372.130153.0212.25829-.15351.385417-.19592.142258-.33529.157397-.41709.045399-.34135-.470163-.72815-1.046273-1.15939-1.728318-.41204-.654803-.7746-1.1956-1.08465-1.623391-.31106-.42779-.71098-.935293-1.20281-1.521488-.51102-.613439-.9372-1.156254-1.27855-1.626417-.08181-.110989-.02323-.238117.17168-.381383.17573-.128136.31206-.14024.407-.038338.49284.530701.9069.910067 1.24321 1.137079.34538.222978.65745.320846.94225.298646.28783-.017147.67766-.202796 1.16848-.559962l9.90627-7.190747c.48476-.351114.78167-.65682.89074-.920153.1222-.259299.13028-.587204.02525-.982718-.10503-.394496-.33832-.916119-.70189-1.562853-.08181-.111988-.02424-.239116.1727-.382392.19592-.143266.33528-.157386.41709-.045398.34135.470173.72613 1.042238 1.15231 1.718232.407.647742.76653 1.185513 1.07657 1.613304.31106.426782.71502.938319 1.2109 1.531575.51607.621508.94528 1.166339 1.28562 1.636502 1.13716 1.562863 1.68353 3.014726 1.6391 4.35461-.03838 1.333823-.65544 2.436599-1.85724 3.30631-.75744.551893-1.67949.765783-2.76617.642699-1.07354-.120067-2.15314-.557954-3.23778-1.312641l-2.70961 7.156444c-.25955.615456-.34034 1.226877-.24339 1.831228.10402.600327.36761 1.281364.79379 2.042103.0606.108973 0 .226004-.17572.353132z" fill-rule="evenodd"/><path d="m261.89872 116.24607c-.20198.0777-.3363.05449-.40194-.06759-.4888-.93631-.92812-1.5336-1.31592-1.79189-.38579-.25223-.95438-.23306-1.70777.05549l-1.43307.54987c-1.24625.47825-2.07134.89595-2.47228 1.25412-.84328-.91107-1.63607-1.93919-2.3824-3.08333-.75339-1.1401-1.31389-2.18839-1.6805-3.14185-.70895-1.84435-.96648-3.60193-.77258-5.27476.1929-1.6698.81803-3.15396 1.87238-4.44945 1.06143-1.297501 2.42279-2.26508 4.0831-2.902726 1.65222-.633622 3.32869-.793036 5.02837-.48026 1.70677.310749 3.22668 1.060404 4.55775 2.248933 1.33006 1.189553 2.35614 2.721123 3.07722 4.599783.27975.72745.52617 1.75657.73926 3.08535.18987 1.17138.39488 2.04412.61504 2.61821-1.09374.5408-2.39956 1.25412-3.91646 2.14199-.12927.05146-.24338-.05449-.34337-.31278-.06463-.17051-.03938-.29663.07776-.37834 2.44805-1.75557 3.08025-4.17098 1.89966-7.24524-.73118-1.90185-2.12992-3.19734-4.19924-3.889482-2.06527-.684063-4.23457-.589222-6.50992.283522-2.2107.84751-3.8498 2.20757-4.91224 4.0832-1.05535 1.87159-1.22907 3.73006-.52111 5.57441 1.04122 2.71003 2.23595 3.80674 3.57915 3.29218l3.20749-1.22989c.44436-.17052.67866-.5065.69987-1.00694.02929-.50346-.18784-1.59917-.65038-3.28814-.04949-.13016.04645-.24013.28984-.33295.22724-.08677.36357-.06558.41508.06356.20804.54281.49486 1.35097.86246 2.42651.35045 1.03315.62211 1.79895.81097 2.29131.18784.4853.45345 1.12094.80288 1.90792.36963.84146.65847 1.53359.86652 2.0764.04948.12713-.03839.23609-.26562.32286z"/><path d="m258.16607 140.54246c-.24036.02825-.36963-.02522-.38679-.16244-.0707-.57611-.12826-1.26319-.17371-2.06127-.04141-.76277-.09595-1.40748-.15957-1.93213-.06464-.52566-.16866-1.16231-.31408-1.91296-.14947-.79202-.26157-1.48314-.33227-2.06732-.01817-.13823.09493-.22096.33631-.25022.21511-.02624.33933.02724.37265.16345.24845 1.02509.52921 1.70713.84127 2.04412.31408.34607.87055.47016 1.67141.37128l12.15334-1.49122c.60191-.07466 1.01496-.2038 1.23714-.38743.23127-.17757.39387-.4631.48375-.85962.09999-.39651.14746-.96455.14443-1.70613-.01718-.13822.09594-.22095.3363-.25121.24136-.02927.37063.0242.3868.16244.07271.58417.13229 1.28034.17875 2.08548.04141.76477.09493 1.40848.15754 1.93212.06464.52567.17069 1.16231.3151 1.91297.14846.78496.25955 1.46599.33024 2.04108.01718.13824-.09594.22197-.3363.25123-.24137.02926-.37064-.02421-.3868-.16143-.17674-.71231-.35952-1.24806-.55343-1.61027-.18381-.3602-.40498-.60032-.66352-.71736-.26056-.11603-.69482-.13722-1.30582-.06255l-12.15333 1.49121c-.59384.07265-1.00689.19776-1.23918.37432-.22318.17656-.38578.45806-.48577.8455-.09088.39651-.13533.95951-.1323 1.69401.00101.15034-.10604.23711-.32216.26435z"/><path d="m264.87596 164.98918 6.90379-1.34089-6.24128-3.36988zm-8.74891 6.71452c-.24036-.03329-.35145-.11906-.33126-.25627.08383-.59226.20199-1.25816.35852-1.99771.14342-.63664.24542-1.18147.31005-1.63651.07271-.52364.13937-1.17542.19593-1.95534.06362-.82228.13532-1.52048.21612-2.09557.02019-.13722.14845-.18867.38983-.15538.23935.0333.35347.10291.33933.20482-.07271.76982-.05251 1.3318.06362 1.68998.12422.35817.36256.56299.71502.61243.2232.03127.59181-.00505 1.10687-.10796l4.5214-.84852.74633-5.30402-3.7882-2.02797c-.50597-.26335-.90488-.41569-1.19877-.45705-.75541-.10595-1.26543.53171-1.53002 1.91194-.01415.10392-.14342.13924-.38276.10493-.23935-.03329-.35146-.11906-.33125-.25627.07271-.51557.17875-1.0826.31711-1.7031.13634-.58418.23531-1.10883.30096-1.57193.05251-.36928.0919-.83642.11815-1.40142.0303-.59024.07373-1.09168.13332-1.50334.01817-.12914.13432-.17857.34841-.14831.23936.03431.3565.15033.3454.35111-.03131.72241.08685 1.31163.35549 1.76969.26863.46613.87156.9918 1.81482 1.58001l13.95705 8.10283c.13028.07063.18381.20078.15553.38945-.02828.20582-.1111.32589-.24744.35919l-15.56585 3.23568c-.87559.18362-1.54718.50043-2.01276.95043-.46759.45906-.81399 1.11185-1.03618 1.95533-.04241.16849-.17067.23912-.38477.20885z" fill-rule="evenodd"/><path d="m116.57473 271.14221 6.69676 1.66778.13533-.54382-1.12808-.83237c-.65644-.47825-.65443-.66188-.27166-2.19446l3.30142-13.22726-.19594-.33799-5.12128.48429-.13634.54382 1.40379.50649c.78773.30167.83722.44495.58474 1.45893l-2.47429 9.91389c-.38277 1.53359-.46659 1.69603-1.2715 1.81106l-1.38762.20582z"/><path d="m140.57843 275.12451.12927-.32993c-.14846-.32286-.31207-.72543-.26661-1.37418.18986-2.72314 2.02286-5.07095 4.00936-8.08466 1.41086-2.143 2.38947-3.58579 2.76516-6.50467l-.20906-.37936-8.47219-.59225-.18482.19573-.78167 3.82794.66049.04641.64129-.91915c.37872-.52062.59384-.53171 1.38157-.47723l3.38423.2371c.4676.03229.64937.20078.62211.59023-.09493 1.34897-.84934 2.65151-2.26625 4.87118-1.46944 2.34782-4.13158 5.5492-4.28609 7.75374-.03434.49237.21107.95245.70088.98675z"/><path d="m162.03209 274.58069.06464-.34809c-.20804-.28956-.44639-.65278-.52516-1.29851-.33327-2.70902 1.018-5.36354 2.39048-8.70113.97861-2.37203 1.66232-3.97524 1.47245-6.91228l-.27672-.33295-8.42977 1.03417-.14442.22701-.03535 3.90765.65645-.08073.45446-1.02509c.27167-.58316.48072-.63462 1.26442-.73148l3.36706-.41266c.46658-.05751.67564.07467.72411.46109.16462 1.3419-.32721 2.76451-1.2947 5.21422-.99377 2.58391-2.99543 6.23529-2.72678 8.42772.0616.49034.39084.89594.87661.83641z"/><path d="m179.96923 260.628c2.56922-.78496 4.03663 1.41454 4.80013 3.90865.83723 2.73625.10705 4.33544-1.41893 4.80257-1.81785.55492-3.99018-.74157-5.23541-4.80862-.44436-1.45288-.37973-2.10869-.21108-2.4245.42821-.76579 1.24119-1.22687 2.06529-1.4781zm2.70657-8.8212c-5.80601 1.9846-8.57823 7.64981-7.07346 12.56539 1.55528 5.08508 4.73147 6.62977 7.59155 5.75704 4.31436-1.31768 4.00937-5.43417 3.46906-7.20185-.99274-3.24476-3.44684-4.50796-6.01607-3.72299-1.35733.41466-1.77745.86062-2.86615 2.06631-.44334-3.09443.95539-7.09591 5.06272-9.0916z" fill-rule="evenodd"/><path d="m301.822 426.775-.317-1.622 4.754-.924-5.222-1.49-.178-.918 4.314-3.182-4.754.924-.238-1.226 8.283-1.609.256 1.313-5.459 4.13 6.617 1.831.226 1.163z" transform="matrix(0 -1.0089441 1.0099168 0 -226.37785 454.58843)"/><path d="m210.54143 147.05923.04039-.22904c.18381-1.03315.23329-1.81509.1525-2.34377-.0808-.5307-.44134-.85255-1.07758-.96354-.58777-.10493-1.018.04944-1.28966.46008-.26965.40963-.50396 1.18853-.70594 2.33369l-.03635.20481c-.20299 1.15221-.25652 1.95836-.15957 2.41744.09695.46007.4585.74561 1.08567.85659.51403.0908.92608-.07466 1.23714-.49741.31307-.42275.56454-1.16936.7534-2.23885m1.78755.4288c-.23329 1.32273-.71098 2.27921-1.43206 2.87044-.72108.58721-1.57447.79405-2.5561.6205-.97255-.17051-1.69868-.65581-2.17839-1.45489-.47971-.80211-.60394-1.85545-.37368-3.159l.08383-.47825c.21512-1.21476.66958-2.15611 1.36642-2.82504.69785-.66691 1.59062-.90502 2.67426-.71433 1.06142.18666 1.7926.71736 2.19858 1.59009.40802.87375.508 1.90792.29794 3.09948z" fill-rule="evenodd"/><path d="m218.03501 149.97104.10503-.20582c.42416-.83138.60999-1.5346.5605-2.11475-.05049-.57812-.31105-.98776-.78167-1.22788l-.60797-.30975-2.71466 5.32319.74532.38037c.46153.23509.89984.23509 1.31087.00202.41407-.23609.87459-.85054 1.38258-1.84738m1.6098.88283c-.62715 1.22991-1.32601 2.02495-2.09456 2.38413-.76653.3612-1.60375.31076-2.51268-.15134l-2.64295-1.34593 3.86899-7.58524 2.37129 1.20569c1.08263.5529 1.69161 1.27328 1.82391 2.16418.13634.88787-.0818 1.8958-.65645 3.02179z" fill-rule="evenodd"/><path d="m293.187 444.208 3.475-3.726 6.171 5.755-3.326 3.567-.921-.858 2.095-2.246-1.656-1.544-1.628 1.744-.932-.869 1.627-1.745-1.743-1.625-2.241 2.405z" transform="matrix(0 -1.0089441 1.0099168 0 -226.37785 454.58843)"/><path d="m229.9389 159.2614.19694-.12208c.31205-.19574.48577-.41367.52212-.6538.03535-.24215-.04343-.51759-.23531-.82633l-.3161-.50446-1.91077 1.19358.26157.4177c.22925.36726.46355.58519.70291.65481.23732.06759.49889.01512.77864-.15942m-4.05986 4.91154-.95539-1.52855c1.15737-.73855 1.92288-1.3651 2.29554-1.87462.37873-.50951.43325-.97968.1626-1.4105l-.22723-.36221-3.24688 2.02696-.9675-1.54569 7.22797-4.51201 1.68858 2.70095c.41103.65682.55243 1.21577.42215 1.67585-.12725.46311-.41003.83137-.84732 1.10479l-.39387.24518c-.41104.25728-.81703.34305-1.21493.2593-.39993-.08375-.77158-.35111-1.11495-.80211.16765.64471.04444 1.28439-.37165 1.91902-.408.63462-1.22806 1.33685-2.45712 2.10364z" fill-rule="evenodd"/><path d="m202.40755 172.46444 1.03517-3.11864-2.59751 1.98459zm.37974 4.32232-1.51084-1.09672.72007-2.00175-2.16223-1.56992-1.69666 1.29347-1.2018-.87274 7.21383-5.28687 1.37652.99886z" fill-rule="evenodd"/><path d="m278.844 434.344.765-1.566-6.454-3.148.792-1.623 6.454 3.147.781-1.604 1.131.553-2.338 4.793z" transform="matrix(0 -1.0089441 1.0099168 0 -226.37785 454.58843)"/><path d="m270.912 434.922.706-1.663 7.767 3.298-.706 1.662z" transform="matrix(0 -1.0089441 1.0099168 0 -226.37785 454.58843)"/><path d="m221.01528 180.35136.09392-.21188c.4282-.9585.66654-1.70512.71603-2.23985.05049-.53273-.22117-.93126-.81197-1.19459-.54637-.24316-1.00083-.19776-1.3644.13418-.35954.33396-.77764 1.03216-1.25028 2.09357l-.08484.19069c-.47566 1.06846-.7231 1.83728-.74026 2.30644-.01818.47118.26561.83439.84631 1.09268.47768.2129.917.15135 1.32197-.18362.40701-.33296.83218-.99583 1.27352-1.98762m1.63.84853c-.54637 1.22686-1.24118 2.03906-2.08447 2.43861-.84227.39551-1.71887.38945-2.62982-.01514-.90287-.40155-1.48963-1.04728-1.7613-1.9402-.27065-.89392-.13634-1.94625.40296-3.15597l.19593-.44191c.50192-1.127 1.1715-1.93113 2.00872-2.4124.83924-.47824 1.7623-.49337 2.76919-.0464.98366.43888 1.56537 1.129 1.74615 2.0754.18583.94638.03131 1.97349-.46153 3.0803z" fill-rule="evenodd"/><g transform="matrix(0 -1.0089441 1.0099168 0 -226.37785 454.58843)"><path d="m263.786 449.644.387-.671 6.596-.824-4.591-2.651.644-1.113 7.307 4.219-.484.837-6.233.811 4.325 2.497-.644 1.114z"/><path d="m307.045 307.701-8.377 2.443-.672-1.12 3.843-4.275-5.597 1.356-.673-1.121 6.092-6.245.94 1.567-3.864 3.946 5.399-1.391.66 1.097-3.758 4.124 5.254-1.633z"/><path d="m300.119 314.821-.529-1.727 8.071-2.468.527 1.728z"/></g><path d="m98.33563 147.99351c.125231.89393-.064635 1.59515-.571607 2.10264-.506982.50448-1.264416.82734-2.274332.96859-.577674.08072-1.069502.11401-1.475493.09887-.406991-.01513-.747338-.05852-1.021022-.13015l-.20401-1.45187c.220164.10292.553444.17858 1.001839.23004.447395.04742.879636.04137 1.297743-.01715.587771-.08274.980637-.22096 1.176561-.41569.199961-.19472.273683-.48328.220154-.86265-.034337-.24517-.144414-.452-.331251-.61949-.185827-.16748-.674627-.35616-1.466397-.564-.630184-.1695-1.136157-.42678-1.516898-.77285-.381751-.3491-.620088-.86264-.715021-1.54065-.090894-.64774.093924-1.23192.555453-1.75153.464569-.52264 1.160397-.84853 2.088515-.97868.450424-.06256.859434-.08071 1.22806-.05246.371645.02422.634222.05548.788742.09484l.180769 1.28438c-.316096-.03531-.629174-.06255-.938213-.07869-.309029-.01716-.634222-.00202-.97457.0454-.481721.06759-.81702.19472-1.007896.38138-.190865.18666-.269645.39752-.236318.63059.042414.29865.15351.51254.33428.64269.180779.13016.680684.29058 1.497715.48026.761473.17456 1.323993.45201 1.68858.8344.367607.37532.591809.85558.674617 1.44178"/><path d="m129.98138 145.4207c-.25248.51759-.63019.87476-1.13313 1.07251-.49789.19674-1.07961.13318-1.74514-.18968-.38881-.18968-.68977-.37028-.90084-.53978-.20804-.1685-.36559-.33498-.47264-.50044l.57262-1.17138c.09897.11603.23833.2482.42012.39953.18482.14832.38276.27343.59181.37634.19895.09686.39893.12411.5999.0787.20097-.04439.3676-.20078.4999-.47319l2.79747-5.7298 1.6391.79909z"/><path d="m138.58385 147.80989c-.22016.77082-.61908 1.3096-1.19473 1.61834-.57566.3047-1.33612.32186-2.28141.05045-1.01396-.29058-1.67545-.73249-1.9855-1.32475-.31003-.59225-.33226-1.34895-.06867-2.26811l1.57951-5.50479 1.75322.50245-1.64314 5.72778c-.12826.44393-.12927.80615-.00505 1.08461.12927.27444.42922.48026.90085.61546.43628.1241.78773.11704 1.05536-.02119.26965-.13823.4787-.46311.62615-.97666l1.63405-5.69649 1.29976.37229z"/><path d="m146.48745 148.88038c-.11108.89593-.47567 1.5235-1.09677 1.88269-.62009.35615-1.4361.47218-2.44803.34808-.57869-.07063-1.06244-.16648-1.45125-.28553-.38882-.11906-.70695-.25022-.95235-.39046l.17875-1.45591c.18683.15538.4888.3158.90892.48228.41912.16143.83824.26737 1.25735.31781.58979.07265 1.00487.04036 1.24523-.09686.24339-.13721.38881-.3955.43528-.77689.03029-.24617-.02122-.4752-.15755-.68507-.13735-.21086-.56151-.5186-1.27048-.92419-.56556-.32589-.9877-.70525-1.26542-1.13808-.27773-.43587-.3757-.99281-.29187-1.67183.07978-.65077.41003-1.16634.99072-1.54974.58374-.38339 1.34118-.5186 2.27131-.40357.45042.05549.85035.14528 1.19978.26636.35347.11905.59888.21894.73623.29461l-.15856 1.28842c-.29489-.11603-.5908-.22197-.88468-.31883-.2949-.09686-.611-.16445-.95336-.20683-.48274-.06053-.83924-.02321-1.07253.10594-.23229.13116-.36257.31479-.39186.54887-.03635.29864.01617.53473.15654.70727.1414.17252.58171.45604 1.32299.84953.68978.36523 1.1604.77991 1.41389 1.24301.25753.46009.34943.98272.27772 1.56892"/><path d="m307.552 376.469v-1.741h-7.18v-1.807h7.18v-1.785h1.258v5.333z" transform="matrix(0 -1.0089441 1.0099168 0 -226.37785 454.58843)"/><path d="m301.007 381.236-.251-1.789 8.357-1.174.251 1.789z" transform="matrix(0 -1.0089441 1.0099168 0 -226.37785 454.58843)"/><path d="m167.23923 148.61906c-.09695.11804-.29288.26031-.58676.42678-.2939.1695-.64837.3158-1.06446.43384-1.0483.30067-2.00266.20584-2.86109-.28351-.85641-.49337-1.47347-1.40142-1.85219-2.72011l-.09493-.33094c-.35448-1.2299-.30096-2.31249.15451-3.2498.46053-.93832 1.19877-1.55176 2.21172-1.84234.43629-.12511.80894-.20279 1.11697-.23205.306-.03229.55344-.02825.73825.0121l.37367 1.30155c-.17169-.04037-.39387-.05751-.66654-.05045-.27067.00806-.57566.06053-.916.15638-.63221.18162-1.05334.58216-1.2624 1.20166-.20602.61747-.17774 1.38326.08383 2.29333l.03231.114c.28076.97565.65241 1.64963 1.11697 2.02193.46658.37129.9877.4742 1.56235.30974.38781-.11098.70794-.24516.96042-.40357.25147-.16244.44639-.30269.58878-.42073z"/><path d="m306.442 397.229-2.314-4.54 7.519-3.831 2.214 4.345-1.121.572-1.395-2.736-2.017 1.028 1.083 2.125-1.136.579-1.083-2.125-2.122 1.082 1.492 2.929z" transform="matrix(0 -1.0089441 1.0099168 0 -226.37785 454.58843)"/><path d="m78.267578 180.50169-.089885-.21289c-.365588-.85861-.785713-1.45287-1.261388-1.78684-.475664-.33396-.957396-.39752-1.445185-.19069l-.627165.26637 2.336957 5.49975.770559-.32589c.477694-.20179.759463-.53575.8453-1.00188.083827-.46916-.091904-1.21779-.529193-2.24793m1.710801-.66388c.540299 1.27127.700877 2.31754.481732 3.13579-.215116.82028-.79178 1.42766-1.731004 1.8262l-2.730813 1.15725-3.3297-7.83747 2.450063-1.0382c1.118983-.47522 2.062255-.47623 2.829785-.00506.76956.46614 1.401763 1.28137 1.89562 2.44468z" fill-rule="evenodd"/><path d="m85.94193 177.25491-.089875-.21289c-.411039-.96656-.794809-1.64963-1.15131-2.05017-.35751-.39954-.832165-.47421-1.428022-.22096-.550405.23205-.827117.59528-.832165 1.08764-.00101.49136.225212 1.27127.679674 2.33974l.081798.19271c.457492 1.07654.852368 1.7818 1.184638 2.11475.33226.33395.790761.37634 1.376512.12712.480722-.20279.736233-.56702.766531-1.09067.033327-.52364-.162597-1.28639-.587781-2.28727m1.733024-.61344c.525154 1.23697.646347 2.29838.363568 3.18625-.284799.88485-.886704 1.52148-1.804726 1.91295-.908925.38542-1.782493.37332-2.620726-.03531-.839242-.41266-1.517907-1.22788-2.035995-2.44668l-.189866-.44697c-.481732-1.13506-.61403-2.17225-.394876-3.11158.222184-.93933.840252-1.6244 1.854206-2.05522.990733-.41972 1.8946-.37331 2.710622.13823.81904.51153 1.465387 1.32474 1.939032 2.43861z" fill-rule="evenodd"/><path d="m275.343 322.155-.564-1.553 4.551-1.656-5.393-.655-.319-.879 3.763-3.818-4.549 1.657-.427-1.174 7.928-2.886.459 1.258-4.746 4.933 6.823.773.405 1.114z" transform="matrix(0 -1.0089441 1.0099168 0 -226.37785 454.58843)"/></svg>