<svg enable-background="new 0 0 292 292" height="288.875" viewBox="0 0 288.875 288.875" width="288.875" xmlns="http://www.w3.org/2000/svg"><path d="m288.4673 144.42875c0 79.552-64.49 144.04-144.041 144.04-79.552 0-144.04100002-64.488-144.04100002-144.04 0-79.552004 64.48900002-144.04000484 144.04100002-144.04000484 79.551 0 144.041 64.48800084 144.041 144.04000484z" fill="#fff" stroke="#000" stroke-linecap="round" stroke-width=".8"/><path d="m145.501 5.64c77.199 0 139.858 62.66 139.858 139.86s-62.659 139.859-139.858 139.859c-77.211 0-139.861-62.659-139.861-139.859s62.65-139.86 139.861-139.86zm134.27 139.86c0-74.32-60.32-134.64-134.642-134.64-74.319 0-134.64 60.32-134.64 134.64s60.32 134.641 134.64 134.641c74.321 0 134.642-60.321 134.642-134.641z" fill="#224275" transform="translate(-1.0737 -1.071255)"/><path d="m284.2873 144.42875c0 77.204-62.658 139.861-139.861 139.861s-139.861-62.657-139.861-139.861c0-77.203004 62.658-139.8610048 139.861-139.8610048s139.861 62.6580008 139.861 139.8610048zm-5.591 0c0 74.32-60.317 134.639-134.639 134.639-74.321 0-134.638-60.318-134.638-134.639 0-74.320004 60.318-134.6380044 134.638-134.6380044s134.639 60.3180004 134.639 134.6380044z" fill="none"/><path d="m37.0233 216.33075c.85-.952 1.888-1.685 2.958-2.368l.611 1.005c-1.235 1.468-1.636 2.814-.835 4.574.91 1.322 1.953 1.465 3.34.97 1.401-1.303.876-3.047.402-4.705-1.269-3.731.058-6.89 3.736-7.748 2.394-.56 4.303 1.234 5.655 3.104.833 1.271 1.286 2.729 1.601 4.192l-2.975 2.229-.66-.941c1.334-1.656 1.635-3.607.647-5.439-1.55-1.975-4.621-2.183-4.964.401-.288 2.169.906 4.31 1.057 6.526-.087 1.546-.909 2.727-2.064 3.682-2.831 1.633-5.264.409-7.085-2.027-.683-1.061-1.077-2.252-1.424-3.455zm-3.15-4.131c-1.688-4.871-4.841-9.074-6.58-13.912.979-.938 2.262-1.414 3.475-1.971.186.258.276.562.413.842-.747.783-1.309 1.696-1.786 2.66.703 2.157 1.739 4.186 2.801 6.186 1.957-.771 4.507-1.7 5.391-2.877-.63-1.328-1.355-2.969-2.299-4.086-.835-.268-1.681.094-2.506.298l-.391-.796 5.729-2.911.391.797c-.643.468-1.207 1.017-1.761 1.575-.09.156-.118.355-.083.598.537 1.465 1.293 2.854 2.078 4.201 1.781-1.029 4.09-1.657 5.456-3.068-.708-2.5-1.829-4.982-4.085-6.42-.751-.262-1.662-.34-2.732-.23-.208-.286-.327-.62-.485-.932l4.571-1.326 7.008 14.271-.774.381c-.518-.787-1.057-1.541-1.694-2.232-3.98 1.998-8.003 3.923-11.961 5.959.023.921.426 1.764.752 2.609zm6.874-22.712-.818.231c-.338-.606-.705-1.19-1.106-1.754-.137-.101-.418-.188-.844-.263l-15.373-.885-.396-1.289c4.067-3.633 8.39-6.951 12.42-10.625.084-.623-.022-1.27-.039-1.902.25-.176.556-.211.831-.315l2.466 7.82c-.278.088-.548.159-.81.217-.318-.662-.742-1.258-1.163-1.849-.105-.053-.209-.063-.312-.03l-3.356 2.688 1.431 4.557c1.351.109 2.71.169 4.058.104.207-.064.336-.168.388-.307.14-.675-.042-1.366-.148-2.038.277-.133.584-.176.874-.265zm-8.472-3.479-1.113-3.596c-1.401 1.039-2.743 2.154-4.034 3.326zm2.202-13.288c-.321-.812-.594-1.665-.907-2.459-4.204.789-8.677.853-12.778 2.14-.26.799-.385 1.672-.551 2.493-.254.091-.525.099-.787.146-.365-2.75-.995-5.635-1.401-8.346.265-.306.643-.095.931-.117.332.723.658 1.463.987 2.18 4.364-.75 8.92-1.169 13.191-2.139-.305-2.365-.524-4.965-2.244-6.722-.706-.604-1.564-.733-2.446-.907-.084-.353-.091-.713-.129-1.068 1.521-.262 3.067-.354 4.603-.367.667 5.051 1.521 10.073 2.528 15.064-.317.135-.667.081-.997.102zm-10.423-23.549c-5.195-.272-7.962-4.614-7.826-9.327.137-4.751 3.369-8.717 8.521-8.598 5.152.12 8.181 4.371 8.196 9.455.014 5.084-3.841 8.466-8.891 8.47zm-6.609-8.8c.042 3.666 3.467 4.589 6.691 4.787 3.225.198 7.594-1.326 7.684-4.492.089-3.127-3.45-5.365-7.125-5.381-3.715-.016-7.164.677-7.25 5.086zm16.101-10.705-.878-.199c.001-.747-.019-1.492-.043-2.238l-.101-.262-13.066-2.486-1.046 2.075-.858-.169c1.177-4.464 1.979-9.003 2.661-13.566 1.233.019 2.446.24 3.646.502.096.397-.162.706-.254 1.033-.781.195-1.53.406-2.246.762-.729 1.802-1.087 3.871-1.077 5.82 1.695.599 3.602.925 5.406 1.142.536-1.557.806-3.281.756-4.935-.394-.708-1.094-.793-1.841-1 .022-.379.148-.735.229-1.102 1.805.503 3.646.797 5.475 1.181.066.305-.128.564-.191.842-.706.048-1.344.254-1.972.503-.682 1.47-.985 3.108-1.146 4.717 1.998.505 4.11 1.089 6.159 1.01l1.038-2.356c.336-.033.641.111.959.176-.751 2.806-1.143 5.685-1.61 8.55zm-10.495-28.636.296-.716c.396-.042.779-.154 1.166-.234l4.729-11.693004c-.13-.326-.423-.546-.657-.799.093-.295.235-.57.354-.854 1.518.616 3.053 1.199 4.525 1.913-.031.357-.084.66-.16.908-.894.129-1.807.124-2.706.166-.917.842-1.256 2.327-1.689 3.495 3.939 1.807 7.998 3.438 12.095 4.869.449-.659.917-1.305 1.409-1.934.311.001.549.209.818.312-1.318 2.71-2.43 5.504004-3.427 8.349004l-.638-.224c-.285-.976.024-2.031.068-3.042-3.696-2.009002-7.733-3.631004-11.82-4.715004-.645 1.23-1.128 2.515-1.406 3.855004.276.934.765 1.855 1.147 2.72-.331.277-.575.442-.732.495-1.036-1.055-2.226-1.94-3.372-2.871zm22.057-9.423004c-.211-.134-.447-.314-.709-.54.339-.695.577-1.421.806-2.154-3.67-2.444-7.308-5.013-11.174-7.144-.053-.024-.156-.05-.307-.077-.503.547-.982 1.117-1.486 1.663-.31-.062-.483-.337-.718-.501 1.439-2.334 2.999-4.587 4.428-6.946.271.112.473.33.708.494l-.885 2.044c1.138 1.362 3.309 2.419 4.898 3.409 1.664-2.357 3.325-4.758 4.631-7.335-1.574-1.078-3.317-2.34-5.053-2.885-.653.409-1.197.967-1.76 1.488-.237-.17-.42-.326-.548-.466 1.549-2.264 3.009-4.563 4.404-6.932.27.181.508.357.716.529-.345.71-.5 1.46-.655 2.22 3.536 2.539 7.388 4.769 11.076 7.112.558-.555 1.141-1.073 1.751-1.568l.758.438c-1.595 2.281-3.069 4.627-4.545 6.99-.319-.212-.537-.375-.652-.488.262-.762.562-1.511.845-2.262-1.557-1.277-3.308-2.269-5.028-3.298-1.618 2.38-3.267 4.752-4.653 7.277 1.65 1.172 3.402 2.202 5.134 3.248l.13-.065c.45-.667 1.075-1.174 1.637-1.714.284.073.469.308.7.459-1.506 2.322-3.044 4.611-4.449 7.004zm.114-29.286c3.747-3.507 7.011-7.489 10.592-11.164 1.202.475 2.13 1.654 3.093 2.527-.172.266-.423.46-.635.689-.998-.414-2.056-.607-3.125-.704-1.757 1.437-3.274 3.135-4.755 4.848l4.505 4.168c1.169-1.15 2.32-2.366 3.104-3.802.025-.181-.018-.402-.129-.663-.084-.18-.436-.702-1.055-1.567l.601-.653 4.784 4.29-.601.652c-.668-.43-1.385-.758-2.105-1.073-.178-.028-.374.019-.587.139-1.172 1.031-2.193 2.237-3.167 3.456l4.127 3.786c.233.214.468.279.707.192 1.664-1.174 3.001-2.786 4.125-4.477.287-.495.414-1.046.384-1.652-.027-.795-.284-1.672-.771-2.631.191-.297.459-.529.693-.789l2.888 3.783-10.775 11.694-.634-.584c.548-.768 1.055-1.542 1.468-2.387-2.979-3.262-6.459-6.19-9.877-9-.839.302-1.505 1.05-2.162 1.646zm28.018-25.122c.986.81 1.77 1.82 2.491 2.855l-.978.653c-1.519-1.172-2.881-1.516-4.605-.642-1.283.965-1.66 2.199-.828 3.378 1.081 1.531 3.08.747 4.718.204 2.496-.958 5.158-.821 6.885 1.282 1.533 2.097 1.084 4.438-.234 6.444-1.551 1.798-3.828 2.741-5.97 3.113l-2.123-2.752.914-.699c1.712 1.263 3.674 1.481 5.463.417 1.34-1.131 2.124-2.761 1.096-4.07-2.404-3.058-7.005 1.157-10.519-.329-1.973-1.036-2.499-2.6-2.273-4.686.641-2.919 3.359-4.296 5.963-5.168zm4.459-4.353.682-.368c.333.218.701.374 1.052.555l10.459-5.623c.658-.354.556-.847.592-1.483.259-.17.543-.293.814-.439.806 1.425 1.578 2.876 2.297 4.342-.25.257-.482.458-.697.603-.774-.465-1.479-1.046-2.202-1.583-.14-.048-.276-.055-.409-.021-.196.058-.983.459-2.362 1.202-.206.111-.454.264-.747.459 2.164 3.726 3.71 7.955 6.295 11.417.764-.227 1.535-.432 2.313-.608.24.197.293.509.437.758-2.734 1.267-5.353 2.747-7.933 4.304l-.354-.577c.396-.937 1.303-1.559 1.976-2.314-1.595-3.907-3.773-7.611-5.993-11.147-1.353.41-2.589 1.264-3.713 2.122-.376.898-.58 1.922-.831 2.833-.432.006-.726-.021-.88-.079-.133-1.47-.497-2.908-.796-4.353zm22.072 7.254-.258-.811c.597-.356 1.17-.742 1.719-1.16.097-.14.176-.424.237-.852l.41-15.393 1.278-.436c3.796 3.918 7.185 8.188 11.002 12.087.625.065 1.267-.062 1.9-.098.182.244.228.549.341.821l-7.741 2.705c-.097-.275-.178-.542-.242-.802.653-.338 1.234-.78 1.811-1.219.051-.106.059-.21.023-.313l-2.792-3.272-4.509 1.571c-.068 1.353-.086 2.714.021 4.06.072.205.178.331.318.378.678.119 1.364-.084 2.032-.21.141.273.194.579.291.865zm3.215-8.575 3.558-1.223c-1.08-1.368-2.237-2.675-3.447-3.93zm11.263-13.982.763-.14c.074.08.126.138.159.174.302.352.525.578.67.678l12.389-2.367c.093-.093.172-.311.236-.653.019-.08.045-.19.079-.332l.539-.111c.082-.015.206-.034.371-.055.327 1.604.614 3.223.847 4.839-.317.168-.6.288-.85.359-.593-.682-1.083-1.452-1.606-2.185-.118-.088-.245-.137-.382-.146-1.171.116-2.328.345-3.47.622l2.086 11.551c.104.565.23.983.381 1.252.8.011 1.594.068 2.388.135.095.288.148.464.161.53.013.074.021.183.021.326-2.987.39-5.94.956-8.874 1.647-.031-.122-.056-.214-.076-.278l-.064-.28-.018-.099c.666-.769 1.72-1.082 2.593-1.592.054-.171.065-.385.035-.642-.587-3.909-1.301-7.807-2.182-11.66-.03-.071-.069-.121-.117-.15-.047-.029-.109-.042-.184-.036-1.384.125-2.725.416-4.002.909-.315.27-.742.924-1.28 1.962-.157.3-.285.459-.383.477-.413-.127-.684-.243-.813-.347.157-.58.314-1.709.473-3.39.046-.49.082-.823.11-.998zm19.292-2.531c.476.016.889.046 1.239.089 1.53.187 3.069.063 4.601-.024 3.182-.131 6.372-.424 9.549-.129.152.164.232.387.237.67.021 1.104.04 2.209.075 3.312-.313.059-.625.013-.938.018-.375-1.016-1.008-1.885-1.651-2.745-2.247-.283-4.533-.192-6.791-.085l.103 6.137c1.639.05 3.313.041 4.894-.386.148-.107.278-.291.39-.551.071-.185.206-.8.403-1.845l.887-.017.209 6.422-.889.017c-.149-.78-.41-1.524-.68-2.262-.103-.148-.271-.258-.506-.328-1.555-.135-3.133-.038-4.687.101l.118 5.599c.006.316.123.531.35.644 1.999.39 4.088.243 6.087-.114.555-.136 1.041-.424 1.459-.865.556-.569 1.012-1.361 1.366-2.376.259-.03.472-.046.638-.049.092-.002.229 0 .413.004l-.737 4.702-15.897.299-.016-.862c.158-.045.474-.097.947-.155.865-.116 1.462-.261 1.792-.434.087-.243.127-.548.12-.915l-.417-12.194c-.001-.042-.011-.125-.03-.25-.837-.386-1.779-.359-2.684-.425zm27.244 8.482c.627-2.878 2.535-4.699 5.147-5.897 1.759-.678 3.545-.559 5.359-.252 3.092.577 5.19 2.403 6.602 5.108.628 1.608.775 3.187.443 4.735-.494 2.306-1.701 4.114-3.621 5.425-1.922 1.31-4.279 1.666-7.074 1.068-2.442-.409-4.289-1.762-5.825-3.663-1.298-1.947-1.41-4.291-1.031-6.524zm9.784-5.038c-3.526-.617-5.102 2.792-5.842 5.793-.738 3-.471 7.406 3.139 8.329 3.609.923 5.506-2.014 6.355-5.504.851-3.491.596-7.481-3.652-8.618zm7.848 17.688.35-.83c.735.132 1.472.244 2.211.351l.276-.054 4.744-12.425-1.859-1.394.318-.815c4.211 1.856 8.482 3.652 12.887 5.004-.234 1.211-.666 2.366-1.135 3.502-.408.024-.666-.284-.973-.432-.055-.803-.131-1.578-.354-2.345-1.675-1.107-3.62-1.655-5.541-2.083-.888 1.563-1.543 3.383-2.074 5.121 1.397.846 3.109 1.302 4.726 1.612.767-.263.973-.938 1.308-1.637.366.097.696.276 1.044.42-.799 1.689-1.438 3.447-2.125 5.182-.313.012-.531-.225-.795-.336.076-.704-.014-1.368-.148-2.03-1.326-.93-2.887-1.516-4.441-1.958-.848 1.878-1.795 3.854-2.077 5.885l2.138 1.436c-.025.336-.223.611-.343.913-2.565-1.422-5.456-1.996-8.137-3.087zm28.534-4.314.5-.808c2.188 1.742 4.615 3.136 7.035 4.521 1.387.762 2.353 1.799 3.116 3.146.45 1.361.152 2.599-.383 3.863-1.578 2.433-4.246 2.866-6.694 1.524-.822-.482-1.349-1.2-1.826-1.995.095-.226.256-.519.483-.877.771.714 1.615.926 2.619 1.033.813-.083 1.526-.606 2.144-1.569 1.223-1.905.766-3.292-.859-4.625-.527-.336-.951-.499-1.275-.488-.113.055-.213.116-.295.183-2.252 3.762-4.689 7.408-6.926 11.179l1.929 1.602c-.085.343-.36.562-.549.836-2.185-1.597-4.497-2.982-6.885-4.245.079-.296.306-.51.456-.762.732.224 1.478.356 2.234.448 2.539-3.542 4.864-7.482 6.623-11.352-.316-.649-.941-1.105-1.447-1.614zm15.616 9.179c3.441 3.839 7.976 6.497 11.448 10.285-.54 1.245-1.539 2.179-2.442 3.161-.271-.166-.472-.411-.707-.617l.467-1.75c.103-.409.152-.873.152-1.393-1.483-1.718-3.223-3.188-4.975-4.622l-4.045 4.617c1.182 1.137 2.429 2.255 3.886 3 .183.02.401-.029.659-.147.178-.089.689-.455 1.537-1.097l.669.583-4.157 4.899-.669-.583c.063-.123.196-.371.401-.745.383-.693.588-1.156.613-1.389.022-.179-.027-.373-.154-.583-1.063-1.144-2.297-2.131-3.541-3.072l-3.672 4.228c-.209.239-.266.476-.174.712 1.221 1.631 2.867 2.925 4.588 4.001.504.273 1.058.386 1.662.339.795-.048 1.664-.329 2.608-.843.304.184.541.445.81.671l-3.703 2.99-11.982-10.451.566-.65c.783.527 1.57 1.012 2.426 1.403 3.104-3.205 5.998-6.594 8.729-10.119-.379-.84-1.076-1.461-1.703-2.116zm14.677 14.27.647-.59c1.177 1.43 2.365 2.845 3.537 4.277-.415 5.603-1.086 11.185-1.646 16.775 2.508-2.321 5.367-4.414 7.595-6.986-.113-.769-.572-1.447-.858-2.168l.581-.455c1.367 1.49 2.664 3.042 3.976 4.581l-.623.522c-.689-.445-1.328-.866-2.104-1.125l-11.354 9.555-.944-1.084 1.688-18.148c-2.594 2.598-6.086 4.465-8.289 7.421.359.743.848 1.424 1.273 2.123l-.756.677c-1.286-1.876-2.766-3.585-4.207-5.343.217-.234.484-.408.729-.608.522.576 1.022 1.163 1.604 1.668 3.353-2.451 7.013-4.745 9.824-7.838.351-.546.188-1.121.116-1.721-.061-.228-.325-.738-.789-1.533zm15.188 19.162.745-.462c.886 1.625 1.806 3.23 2.696 4.852-1.432 5.432-3.11 10.799-4.682 16.193 2.893-1.834 6.075-3.353 8.742-5.482.077-.241.008-.659-.211-1.251-.152-.438-.232-.784-.236-1.038l.653-.341c1.072 1.711 2.062 3.48 3.072 5.23l-.708.399c-.59-.563-1.167-1.054-1.864-1.49-.123-.018-.276.022-.459.122l-12.448 7.198-.73-1.239 4.977-17.534c-3.201 1.884-6.523 3.551-9.506 5.782.217.795.572 1.555.863 2.319l-.865.528c-.949-2.06-2.051-4.042-3.161-6.021.255-.19.552-.313.829-.465.436.647.79 1.327 1.271 1.934.152.063.436-.007.846-.211 3.393-1.895 7.139-3.342 10.246-5.702.443-.473.389-1.068.429-1.67-.023-.236-.189-.786-.499-1.651zm15.121 30.781004c-1.05.729-2.246 1.184-3.436 1.6l-.077-.104-.278-1.016c1.549-1.133 2.258-2.346 1.896-4.246-.57-1.500002-1.549-1.886002-3.015-1.734002-1.67.933002-1.573 2.751002-1.508 4.476002.181 2.019-.271 3.852-1.556 5.379-2.114 1.592-4.362 1.519-6.469.145-2.289-1.941-2.787-4.859-2.762-7.694l3.418-1.461.418 1.072c-.73.693-1.167 1.127-1.307 1.302-.646.712-.768 1.52-.879 2.423-.01 1.058.469 1.869 1.047 2.705.809.92 1.688 1.054 2.824.885 1.707-.967 1.563-2.722 1.565-4.497-.116-2.037.103-3.804 1.392-5.392004 1.545-1.608 3.404-1.622 5.416-1.005 1.974 1.11 2.746 3.107004 3.152 5.210004.089.473.141 1.125.159 1.952zm1.715 3.776 1.756 7.806-.867.247-.93-2.007c-2.053 1.662-3.889 3.66-5.703 5.598 2.49.913 4.982 1.967 7.502 2.736.039-.009.105-.037.197-.083.135-.568-.002-1.176-.027-1.763.104-.04.398-.132.888-.277.147 1.734.565 3.334 1.086 4.97l-.916.195c-.19-.542-.55-.979-.854-1.447-2.645-1.192-5.393-2.306-8.133-3.311-.13-.047-.285-.076-.468-.086-1.899.384-3.772.788-5.614 1.412.043.721.113 1.441.143 2.159-.194.239-.575.195-.862.26l-1.862-8.28c.258-.087.528-.12.792-.18l.972 2.138 4.48-.758c.514-.116 1.04-.518 1.585-1.205l5.106-5.296c.057-.055.332-.383.828-.982.099-.176.154-.338.172-.488.015-.088.017-.478.005-1.167.195-.177.484-.128.724-.191zm-10.828 20.895c.24.836.461 1.71.697 2.526 4.273-.453 8.703-.119 12.912-1.062.326-.774.523-1.633.758-2.439.262-.068.531-.052.797-.078.15 2.791.5 5.627.697 8.434-.289.282-.648.041-.938.04l-.685-2.051c-.021-.04-.06-.108-.117-.204-4.388.17-8.97.341-13.323 1.027.08 2.439.192 4.825 1.674 6.885.272.262.563.47.867.625.306.155.804.316 1.494.485l.032.398c.019.199.021.425.007.677-1.535.133-3.087.096-4.617-.02-.393-5.068-.644-10.157-1.258-15.223.327-.109.671-.027 1.003-.02zm15.513 16.346 1.072.063c-.535 2.828-.584 5.656-.494 8.484-.607-.019-.949-.029-1.023-.033.051-.857-.162-1.557-.479-2.309-.129-.234-.405-.101-.594-.146-3.313.99-6.504 2.339-9.768 3.477 3.214 1.357 6.352 3.066 9.705 4.059.158.01.3-.063.426-.213.402-.633.473-1.407.637-2.129.316-.125.633.011.95.029-.421 2.096-.411 4.205-.368 6.326-.283-.007-.564-.041-.848-.061-.329-1.098-.559-1.74-.689-1.933-.076-.12-.207-.241-.393-.36-4.584-2.363-9.33-4.445-14.072-6.479-.021-.433.039-.856.075-1.285 5.034-1.7 10.11-3.385 15.017-5.437.217-.131.375-.278.478-.448zm-16.154 16.143.828.194c-.001.695.035 1.386.113 2.07.069.154.272.368.607.641l12.998 8.257-.281 1.319c-5.056 1.283-10.269 1.836-15.347 2.989-.687.109-.735.394-1.065.911-.109.322-.275.66-.502 1.014-.304.031-.589-.086-.88-.127l1.653-8.033c.286.06.557.127.813.205-.045.734.035 1.459.115 2.181.064.098.15.157.258.18l4.24-.715.969-4.676c-1.127-.755-2.285-1.47-3.494-2.066-.213-.044-.375-.018-.487.078-.451.521-.63 1.214-.863 1.853-.308-.02-.597-.129-.894-.193zm5.707 7.162-.777 3.682c1.729-.225 3.444-.546 5.143-.938zm5.178 15.291.835.267c-.677 1.723-1.284 3.473-1.938 5.2-5.062 2.438-10.231 4.646-15.354 6.954 3.261 1.115 6.49 2.296 9.847 3.091.608-.481.967-1.219 1.449-1.828l.686.275c-.607 1.93-1.307 3.827-1.982 5.733l-.764-.279c.051-.823.089-1.575-.076-2.387l-13.949-5.063.467-1.36 16.566-7.601c-3.541-1.092-6.909-2.801-10.568-3.475-.465.683-.812 1.444-1.203 2.162l-.963-.314c.944-2.066 1.738-4.182 2.525-6.313.311.07.596.216.893.328-.209.751-.496 1.463-.645 2.224 3.671 1.821 7.65 3.713 11.698 4.596.647.031 1.063-.397 1.549-.758.159-.171.47-.654.927-1.452zm-22.737 15.368.787.435c-.207.687-.328 1.383-.437 2.086 3.784 2.213 7.508 4.888 11.59 6.576.556-.455.919-1.084 1.312-1.677l.979.498c-1.471 2.197-2.694 4.541-3.819 6.931-.293-.123-.553-.313-.826-.472.151-.75.344-1.488.494-2.239-3.854-2.158-7.679-4.474-11.631-6.453-.477.547-.896 1.14-1.322 1.726-.342-.1-.627-.312-.938-.474 1.499-2.198 2.724-4.521 3.811-6.937zm-4.05 7.864.676.516c-.285.635-.533 1.279-.744 1.936.002.172.101.449.295.835l8.486 12.849-.797 1.09c-5.117-1.006-10.139-2.426-15.228-3.547-.382-.067-.62-.086-.716-.053-.549.305-1.004.777-1.502 1.17-.289-.096-.502-.318-.75-.478l4.793-6.653c.236.17.455.342.658.52-.343.65-.564 1.347-.785 2.035.02.117.072.207.16.271l4.164 1.081 2.795-3.872c-.722-1.147-1.486-2.272-2.346-3.313-.177-.127-.335-.168-.479-.127-.623.291-1.069.851-1.545 1.338-.271-.145-.49-.363-.733-.543zm2.28 8.868-2.214 3.042c1.668.503 3.365.91 5.076 1.245z"/><path d="m253.4463 144.85375c0 59.875-48.537 108.412-108.412 108.412-59.874 0-108.412-48.537-108.412-108.412 0-59.875004 48.538-108.412004 108.412-108.412004s108.412 48.538 108.412 108.412004z" fill="none" stroke="#000" stroke-linecap="round" stroke-width="1.0206"/><path d="m202.7623 249.08033c2.328.479 3.961 3.761 4.492 2.509.9-2.123-2.29-2.388-3.504-3.951-.795-1.049-.942-3.041-.371-5.008 2.438-5.668 8.922-5.818 12.229-1.172.24.717.896.012 1.125-1.207.119-.636.355-1.242.525-1.347s.213-.49.098-.856c-.135-.422.178-1.455.848-2.817 2.875-5.841 11.486-8.39 15.175-4.491 1.829 1.934 2.229 4.293 1.153 6.801-.888 2.07-2.49 3.228-4.479 3.228-1.711 0-2.76-.542-4.352-2.246-.924-.988-1.082-1.045-1.842-.66-.861.437-2.322 3.084-4.816 8.728-3.391 7.672-8.135 12.121-14.534 13.631-2.753.647-4.726.638-8.681-.049-3.691-.64-4.116-.498-3.535 1.17.206.59.314 2.108.244 3.377-.154 2.721-.729 3.674-3.109 5.153-3.845 1.845-8.49 1.912-9.807-2.782 0-1.531.764-3.494 1.867-4.808.944-1.123.985-1.787.177-2.84-.949-1.233-1.855-.84-1.979.862-.146 2.027-1.591 3.412-3.559 3.412-1.188 0-1.661-.201-2.635-1.119-.654-.616-1.188-1.438-1.188-1.823 0-1.498-3.655-1.372-5.59.192-1.627 1.316-1.646 1.652-.11 1.912 1.629.274 3.859 1.684 4.342 2.74.528 1.159.438 3.018-.195 4.092-.645 1.09-2.658 2.104-4.102 2.063-1.339-.039-2.899-1.203-3.481-2.597-.675-1.612-1.614-1.49-4.019.521-3.15 2.638-5.205 4.118-6.636 4.783-.731.341-1.612.768-1.959.946-.584.305-3.104.773-5.857 1.095-.641.073-1.539.007-1.996-.148s-1.36-.298-2.007-.315c-2.816-.08-7.039-2.144-9.967-4.869-2.705-2.52-5.117-4.4-5.578-2.986-.251.768-1.261 2.621-2.57 3.2-2.903 1.284-5.824-.687-5.82-3.927.002-2.385 1.614-4.055 4.406-4.561 1.53-.275 1.568-.748.167-2.052-.756-.703-1.467-1.028-2.368-1.084-.708-.044-1.381-.104-1.497-.133-.6-.15-1.707.532-1.707 1.055 0 .92-1.144 2.166-2.584 2.813-1.182.533-1.411.543-2.493.091-1.474-.615-2.326-1.865-2.372-3.476-.041-1.434-.857-1.813-1.889-.881-.863.781-.808 2.193.125 3.201.864.932 1.896 3.4 1.896 4.537 0 1.179-.929 2.684-2.095 3.395-2.857 1.742-9.026.063-10.315-2.811-.547-1.219-.712-5.078-.268-6.247.172-.452-.218-1.531-.366-1.771-.28-.455-.153.86-5.25.852-4.103-.006-7.046.047-10.918-1.777-4.934-2.322-8.313-6.924-11.865-15.533-1.202-2.916-3.005-5.285-3.802-5.021-3.244 1.07-4.96 4.531-8.56 1.548-3.557-2.948-2.909-8.821 1.23-10.573 3.743-1.587 8.65.646 11.633 3.368 1.544 1.646 2.81 4.289 3.127 6.533.331 2.34.603 3.065 1.05 2.815 1.07-.602 1.302-2.631 2.577-3.391 1.408-.838 3.479-1.133 5.283-.688 1.657.408 3.497 2.018 4.085 3.361.93 2.127.765 4.342-.109 6.365-.317.734-.787 1.188-2.194 1.813-1.904.842-2.237 1.416-1.339 2.313.507.508 1.487.398 1.487-.164 0-.703 1.316-2.229 2.857-2.723 1.397-.449 2.284.514 3.057 1.58.787 1.086 1.086 1.404.908 2.117-.122.485-.373.977-.558 1.09-.184.115-.285.564-.223 1.002.084.594.363.764 1.068.902 1.839.366 2.393-.002 1.085-1.922-.453-.666-.543-2.041-.543-2.875 0-1.232.182-1.697.972-2.488 1.311-1.312 2.889-1.392 5.108-.26 2.109 1.075 3.025 3.362 2.354 5.871-.232.868-2.496 1.297-3.443 1.51-.285.064-1.123.358-2.139.655-2.472.718-5.087.586-5.918-.44-.598-.738-.597-.777.012-1.457 1.064-1.187.747-1.875.233-2.625-1.328-1.943-2.872-1.631-3.75.936-.429 1.254-.143 2.244.434 3.523.768 1.703 2.008 2.347 4.921 2.555 4.693.336 9.633-.764 12.475-4.044 1.636-1.89 4.033-1.474 6.25-1.378 5.364.234 7.624.479 11.003 1.885 3.353 1.395 6.012 3.482 8.488 6.666 3.506 4.504 3.536 4.532 4.008 3.797 1.662-2.471 3.901-3.611 6.687-2.5 1.104.867 1.758.637 2.374-.837.577-1.38 1.818-2.772 3.065-3.437 1.331-.709 5.471-1.114 7.481-.733 3.309.628 5.631 3.501 5.664 7.007.014 1.342-.156 2.779.13 2.779.229 0 1.972-2.205 3.495-3.896 4.393-5.916 9.503-8.77 16.439-10.393 2.465-.749 9.291-.58 13.315.329.644.146.724-.009.857-1.636.192-2.342.937-3.408 3.036-4.359 2.054-.93 3.193-.793 4.521.536 1.346 1.345 1.549 2.89.654 4.97-.811 1.881-.621 2.365.811 2.084 1.146-.225 1.448-.879.889-1.923-.502-.938-.266-2.071.683-3.274.566-.723.971-.888 2.168-.888zm-50.441 22.382c1.731-2.103 2.189-7.168.877-9.705-2.979-4.041-8.545-3.838-11.283-1.011-2.482 2.062-1.607 4.185.201 6.433 1.002.986 2.571 1.006 4.896.062 1.989-.993 3.453-.758 3.672 1.542.021 1.713-1.73 3.307-2.879 4.781 2.658-.613 3.448-1.088 4.516-2.102zm-8.679-5.325c-3.316-2.623-.43-5.846 2.942-6.414 4.1-.11 5.934 2.437 5.371 6.884-.813-1.328-1.088-3.556-3.428-2.595-1.677 1.228-2.974 3.118-4.885 2.125zm2.925 6.289c1.402-.717 2.348-2.323 2.006-3.215-.182-.474-.307-.479-1.137-.049-2.337 1.208-5.41.852-6.907-.805-.793-.876-.998-.836-2.334.462-1.121 1.089-1.255 1.446-.828 1.879 1.135 1.149 2.159 1.786 3.627 2.198 1.393.559 4.15.256 5.573-.47zm-9.95-3.44c.978-1.215 1.499-3.035 1.23-3.735-.3-.783-1.677-1.535-2.81-1.535-1.389 0-2.98 1.571-2.98 2.942 0 .892 1.143 2.722 2.157 3.455 1.258.39 1.641-.179 2.403-1.127zm-31.293-.14c1.85-1.385 1.186-3.951-.229-6.612-.792-1.322-1.145-1.468-.523-2.771 1.782-2.592 4.587-1.969 7.825-5.365-5.518-.504-10.816-.891-13.402 3.91-1.038 1.867-1.52 2.461-1.703 4.172-.409 3.815.733 5.818 4.089 7.176 1.757.71 2.43.624 3.943-.51zm-3.449-.802c-6.977-2.785-.296-12.609 5.12-13.533-1.45 1.262-3.006 2.459-3.832 4.051-.306.59-.793 1.854-.682 2.543.207 1.289.902 1.963 2.181 3.143 2.112 1.949-.63 4.657-2.787 3.796zm21.535.97c.581-1.43 1.156-2.563 3.172-2.603-1.959-2.663-6.981-2.038-7.496.638-.386 2.004 1.052 2.908 2.827 2.785 1.058-.074 1.258-.231 1.497-.82zm44.987.112c.934-.841.771-2.885-.295-3.724-1.572-1.235-5.775-.735-5.775.688 0 .369.326.688.841.815.911.229 1.487 1.036 1.487 2.085 0 1.132 2.535 1.224 3.742.136zm18.179.256c2.082-.82 3.16-1.455 3.99-3.061 1.336-2.583.469-5.9-1.857-8.626-2.877-3.371-4.199-3.914-9.004-3.7-1.875.083-3.41.277-3.41.432 0 .153 1.086.803 2.412 1.442 2.514 1.214 4.193 2.513 4.852 3.75.551 1.033.516 1.161-.756 2.796-1.518 1.95-1.904 4.383-.898 5.659 1.648 1.726 2.625 2.101 4.671 1.308zm-3.183-5.752c4.094-3.707.795-5.894-1.762-8.764 4.91 1.715 8.926 6.318 7.109 11.133-1.527 4.051-9.115 1.043-5.347-2.369zm-69.553-2.679c1.913-1.942 2.515-3.297 5.364-3.362-2.835-1.979-5.372-1.57-7.099-.859-5.007 2.059-1.784 7.796 1.735 4.221zm63.813-2.506c-.735-1.444-1.832-2.047-3.72-2.047-1.575 0-2.685.403-5.313 1.411 2.096.037 3.914-.118 4.854 1.914.319 1.051 1.695 2.494 2.462 2.328 2.107-.459 2.486-1.616 1.717-3.606zm24.111-.426c2.143-.539 3.26-1.959 3.045-3.872-.188-1.659-1.303-3.071-2.426-3.071-1.175 0-1.553 1.656-.611 2.693.705.78.342 1.806-.791 2.229-3.906.957-7.854-.584-11.672-1.381-1.71-.188-1.764-.17-1.242.406.787.87 3.883 2.365 5.928 2.865 2.247.551 5.867.613 7.769.131zm-122.686-4.033c-.095-.412-.394-1.551-.666-2.533-.462-1.674-.454-1.823.134-2.411.344-.345.888-.628 1.208-.628.32-.001 1.006-.352 1.606-.626 3.322-1.523 2.208-6.298-1.54-8.259-2.694-1.41-5.465.401-6.755 4.199-.525 1.549-.217 2.288.326 4.338.679 2.563 1.215 3.356 3.545 5.254 1.972 1.605 2.387 1.731 2.142.666zm-3.379-10.112c2.817-4.466 9.384-.414 3.035 2.699-1.691.829-1.935 2.745-2.402 4.837-1.185-2.609-1.927-5.485-.633-7.536zm135.218 9.633c1.925-1.519 3.002-3.013 3.487-4.838.672-2.521.586-3.896-.361-5.76-1.104-2.171-2.24-2.976-4.206-2.976-1.952 0-3.829 1.389-4.501 3.334-.805 2.317-.279 3.809 2.311 4.92 1.782 1.086 1.579 1.866 1.545 3.405-.154.608-.19 1.633-.149 2.062.093.987.447.979 1.874-.147zm.646-2.986c-.262-3.066-2.098-4.356-3.611-4.709-1.573-.365-1.938-2.251.095-3.604 2.303-1.533 6.957 3.329 3.516 8.313zm-118.191-1.441c-2.091 0-3.157 1.771-2.067 3.435.406.619.792.748 2.251.748 4.423-.13 3.494-3.573-.184-4.183zm103.413 3.503c1.029-1.406.111-3.224-1.822-3.609-.963-.193-1.256-.074-2.238.906-1.238 1.239-1.4 2.008-.611 2.881.749.83 4.027.705 4.671-.178zm-129.838-18.422c-2.524-3.525-6.917-5.822-10.411-4.085-3.481 1.733-2.468 6.382.329 8.683 2.792 2.295 4.5-3.406 7.384-2.547 1.705.508 3.65 3.282 4.78 4.428-.464-2.82-1.361-4.905-2.082-6.479zm-9.276-2.033c2.504-1.603 6.791.172 8.177 2.629-2.343-.664-3.889-.092-5.155 1.086-3.424 3.184-6.576-1.44-3.022-3.715zm163.892 5.643c2.098-2.188 3.238-2.265 5.121-.336 2.271 2.325 4.666 2.155 5.832-.412.789-1.737.827-3.279.117-4.653-.936-1.808-1.715-2.226-4.182-2.236-1.224-.006-2.305.119-2.403.277-.099.159-.595.374-1.101.477-1.722.348-3.603 2.354-4.715 5.031-1.669 4.006-1.269 4.563 1.331 1.852zm5.39-2.195c-.98-1.103-1.166-1.178-2.377-.973-1.711.289-1.991-.208-.813-1.439 1.776-1.856 4.534-2.52 6.423-1.543 1.277.661 1.766 1.64 1.508 3.017-.285 1.518-.996 2.137-2.453 2.135-.985-.003-1.432-.237-2.288-1.197z"/><g transform="translate(-1.0737 -1.071255)"><path d="m92.221 96.065c7.2 5.3 15.1 10.1 24 12 6.9 1.9 14.2.2 20.7-2.1 3.6-1.2 6.7-3.6 10.101-5.1 6.899 3.8 14.199 7.4 22.199 7.9 12.5.8 23.301-6.3 33.301-12.9.299 7.7 2.299 15.1 2.299 22.8.102 11.1.5 22.4-1.5 33.399-37.5 0-75-.101-112.599 0-1-9.799-1.7-19.601-1.7-29.399.599-8.9 1.599-17.8 3.199-26.6z" fill="#4395bd" stroke="#4395bd" stroke-width=".0938"/><path d="m90.721 152.064c37.6-.101 75.099 0 112.599 0-.299 1.801-.6 3.699-1 5.5-2.799 11.601-7 22.801-13.198 32.899-2.899-.2-5.899-.3-8.899-.3-25.201.1-50.301-.2-75.5.2-4.2-7.9-8.1-16.101-10.6-24.7-1.302-4.498-2.102-9.099-3.402-13.599z" fill="#ffce00" stroke="#d69b1a" stroke-width=".0938"/><path d="m189.12 190.46c-4.4 8.31-15.8 23.31-15.8 23.31l-2 2.69s-11.03 12.47-24.101 23c-9.1-6.3-17.1-14.2-24.1-22.7l-1.2-1.49c-6.3-7.1-11.3-15.31-16.4-23.399l-.8-1.5c7.96-.13 15.9-.19 23.84-.21 12.41-.04 24.81.02 37.22.03 4.81 0 9.62 0 14.439-.021 3.002 0 6.002.1 8.902.29z" fill="#076a21"/><g stroke-width=".0938"><path d="m126.421 42.665c1.4-2.8 4.7-1.3 7-.9l-.3 1.6c-1-1.2-2.9-2.1-4.4-1 1.2 1.1 2.8 1.6 4.3 2.1 0 .5-.2 1.4-.2 1.9-.4 0-1.1.1-1.5.1-.5 0-1.6 0-2.2 0 .2-.7.6-2.1.8-2.8-.9-.3-2.6-.8-3.5-1z" fill="#412b19" stroke="#412b19"/><path d="m133.421 41.765c0-.3.1-.8.2-1.1l.8.4c-.3 3.7-1.6 9.8 2.9 11.4-1.3-.1-2.6-.1-3.9-.1-.4.6-1 1.7-1.3 2.3.3-2 .6-4 .9-6.1-.4-.5-1.3-1.6-1.7-2.1.4 0 1.1-.1 1.5-.1 0-.5.2-1.4.2-1.9 0-.3.1-.8.1-1.1z" fill="#a1a0a5" stroke="#a1a0a5"/><path d="m133.621 40.665c1.8.3 5.2-.5 5.2 2.3 1.8.9 3.5 2 5.1 3.2-2.8 1.7-1.6 4.8-1.1 7.3-2.4-1.6-.8-5.3-.3-7.6-1.2-.6-2.3-1.3-3.2-2.3-1.4.9-3 1-4.5.3 1.1-.4 1.8-1 2.2-1.9-.6-.2-2-.7-2.6-.9z" fill="#070707" stroke="#070707"/><path d="m128.721 42.365c1.5-1.1 3.4-.2 4.4 1 0 .3-.1.8-.1 1.1-1.5-.5-3.1-1-4.3-2.1z" fill="#d59b1a" stroke="#d59b1a"/><path d="m145.821 47.265c2.5-1.3 4.8 1 6.6 2.4 1.5 1.4 3.8 2.3 4.101 4.5.199 1.3.399 2.6.601 3.9-4.302-1.4-5.601-6.1-9.399-8 1.399 5.5 6.899 8.1 10 12.4-1.301-.6-2.5-1.3-3.801-2-.102 5.1 4.301 7.9 7.398 11.2-1.299-.6-2.5-1.1-3.698-1.6-4.5-.3-9.302-.3-13.3-2.8-2-1.2-4.1-2.4-6.5-2.9 3.1 4.3 8.3 6 13.401 6.6 1.799 0 2.799 1.5 4.1 2.6.101-.5.301-1.3.4-1.7.299.2.699.5.899.7.399 4.4 4.698 7.3 7.101 10.8-.4.3-1.201.8-1.601 1.1-3.101-1.9-5.302-4.9-7.601-7.7-.399 1.2-.899 2.5-1.399 3.7 1 1.6 1.899 3.3 2.899 4.9.199.2.699.6.899.9-.399 0-1.3.1-1.7.2.301 1.8.7 3.6 1.1 5.5-.6-.1-1.698-.1-2.198-.1-1.601 0-3.101.1-4.601.2-.101-1.2 0-2.3-.201-3.5-.799-6.6-7-10.2-11.599-14.3-3.5-2.9-6.5-7-7.2-11.6.2-3.2 2.4-5.8 3.8-8.5 1.6-.5 3.2-1 4.8-1.6.3.2 1.1.4 1.5.5-.4 1.6 1.2 2.1 2.3 2.6v.4c-.3.7-.7 1.4-1.1 2-2.4-.7-5-.9-6.9 1 3.5.1 7 .5 10.4 1.4v-.6c0-.5 0-1.5 0-2-.801-3.4-1.901-7.8.499-10.6z" fill="#38251a" stroke="#38251a"/><path d="m120.121 47.465c2.9-.8 5.4 1.6 6.5 4s1.8 4.9 3.3 7c.8-1.2 1.5-2.5 2.2-3.8.3-.6.9-1.7 1.3-2.3 1.3 0 2.6 0 3.9.1l1.8.1c-1.6.6-3.2 1.1-4.8 1.6-1.4 2.7-3.6 5.3-3.8 8.5.7 4.6 3.7 8.7 7.2 11.6 4.6 4.1 10.8 7.7 11.599 14.3-.299-.2-1-.6-1.299-.8-.701 1.9-1.5 3.8-2.3 5.7 1.798-.77 9.024-7.348 10.977-.52 5.599-.401 23.622 5.837 7.323 5.92-8.541-.075-16.367-.427-24.601.2-7.994.521-13.783 1.676-14.8-.2-1.558-2.874 4-3.9 6.5-4.4 3.5-.3 7-.9 10.1-2.5-.1-4.7-2.2-8.9-4.8-12.7-.9-.2-1.7-.3-2.6-.4-1.6 2.4-2.2 5.4-4 7.7-.7 2.1-1.2 4.3-2.1 6.4-.3-3.4-.5-6.7-.8-10.1l-1.2.1c-.2.1-.5.1-.7.1-.5.8-1.7 2.3-2.2 3-.4-6.2.9-12.9-1.9-18.7-1.3-2.8-2.1-5.7-2.9-8.7.001-3.7-1.499-8.6 2.101-11.2z" fill="#2e1e15" stroke="#2e1e15"/><path d="m147.721 50.065c3.801 1.9 5.1 6.6 9.4 8-.2-1.3-.4-2.6-.602-3.9 5.701 5.1 11.102 10.6 17.5 14.7-.398.5-1.299 1.4-1.699 1.9 3.199 3.8 7.5 6.5 11.5 9.3 1.199.6 1.4 2.7-.1 2.9-3.5-.9-6.5-3-9.5-4.9-1.9.4-3.701-.2-5.201-1.6-.6 0-1.799-.2-2.398-.3-.7-.5-1.4-1.1-2.102-1.7-2.199-.2-4.398-.7-6.6-1.1l-1.3-.8c-.2-.2-.601-.5-.899-.7-.101.4-.301 1.2-.4 1.7-1.301-1.1-2.301-2.6-4.1-2.6-5.101-.6-10.301-2.3-13.401-6.6 2.4.5 4.5 1.7 6.5 2.9 4 2.5 8.8 2.5 13.3 2.8 1.198.5 2.399 1 3.698 1.6-3.1-3.3-7.5-6.1-7.398-11.2 1.301.7 2.5 1.4 3.801 2-3.099-4.3-8.599-6.9-9.999-12.4z" fill="#291b13" stroke="#291b13"/><path d="m141.821 58.065c.4-.6.8-1.3 1.1-2 .9 1.2 1.7 2.5 2.4 3.8v.6c-3.4-.9-6.9-1.3-10.4-1.4 1.9-1.9 4.5-1.7 6.9-1z" fill="#251812" stroke="#251812"/><path d="m154.521 76.765c2.299 2.8 4.5 5.8 7.601 7.7.399-.3 1.198-.8 1.601-1.1l.399-.3c2.5 1.8 5.399 3.2 7.198 5.8-2.5 1.5-5.1 3.1-8.1 3.3-2.6-1.5-4.199-3.9-6.3-5.9-.2-.3-.7-.7-.899-.9-1-1.6-1.899-3.3-2.899-4.9.499-1.2.999-2.5 1.399-3.7z" fill="#291a12" stroke="#291a12"/><path d="m125.721 82.965 1.2-.1c.3 3.4.5 6.7.8 10.1v.7l-2-.3c-.3-3.4-.1-6.9 0-10.4z" fill="#110505" stroke="#110505"/><path d="m148.021 87.765c.299.2 1 .6 1.299.8.201 1.2.102 2.3.201 3.5-.399.1-1.101.4-1.399.5-.601.3-1.8.7-2.4.9.799-1.9 1.598-3.8 2.299-5.7z" fill="#fbfbfb" stroke="#fbfbfb"/><path d="m135.814 94.518 5.437-.452 3.503 3.839-6.093.083zm11.957-.438 6.572-.306 1.744 4.076-5.496-.008m11.366-3.309c5.219.193 11.494 3.943 1.793 3.361-.799-1.4-1.094-1.961-1.793-3.361zm-31.678.74c.9 1.1 1.514 2.202 2.415 3.202-9.138 1.064-9.654-1.897-2.415-3.202z" fill="#c78c10" stroke="#c78c10"/><path d="m148.121 92.565c.3-.1 1-.4 1.398-.5 1.5-.1 3-.2 4.602-.2.398.3 1.3.8 1.8 1.1-.601.4-1.2.9-1.7 1.4-1.3 1-2.5 2-3.699 3-.399.1-1.301.1-1.701.2-.5-.5.265-2.275-.137-2.675.3-1-.963-1.325-.563-2.325z" fill="#976d0b" stroke="#976d0b"/><path d="m150.721 108.865c.9-3 4.9-1.8 5.301.8 1 3-4.301 5-5.399 1.9-.002-.7.098-2 .098-2.7z" fill="#d79a1a" stroke="#d79a1a"/><path d="m125.821 114.565c1.6-2.6 5.5-4.9 7.9-1.9-1.4.1-2.8.2-4.2.2-1.4 1.5-2.9 3.3-5.3 3-2.6-.2-3.8 2.6-6.2 3.1 1-1.6 2.1-3 3.3-4.3 1.5 0 3-.1 4.5-.1z" fill="#275a73" stroke="#275a73"/><path d="m172.121 111.965c2.699 0 5.898-.4 7.3 2.4 3.101.4 6.5 1 8 4.2-2.2-2.3-5.101-3.5-8.3-3.4-1.2-2.9-4.5-2.6-7-3.2z" fill="#070707" stroke="#070707"/><path d="m121.621 132.165c2.2-2.4 4.8-4.5 7.6-6.2.2 1 .6 2.9.8 3.9-1.9 1.8-3.8 3.6-5.6 5.5-.8-1-3.6-1.5-2.8-3.2z" fill="#4895bd" stroke="#4895bd"/><path d="m102.721 137.765c7.3-.2 14.5 0 21.8-.3.8.6 1.5 1.3 2.2 1.9-7.7-.2-15.4.3-23.1-.2-.2-.3-.7-1-.9-1.4z" fill="#77b1cd" stroke="#77b1cd"/><path d="m177.121 137.765c6.898-.1 13.898-.2 20.8.1l-1 .9c-6.2.6-12.601.6-18.8.1z" fill="#83b9d4" stroke="#83b9d4"/><path d="m186.32 139.965c.9-1.2 4-.3 2.801 1.4-.9 1.1-4 .2-2.801-1.4z" fill="#96b5b1" stroke="#96b5b1"/><path d="m189.421 141.265c1.8-1 3.8-1.6 5.8-2 .301.6.801 1.7 1 2.3-2.2.1-4.6.4-6.8-.3z" fill="#96b7b7" stroke="#96b7b7"/><path d="m105.021 142.365c1.7-1.8 4-1.3 6.1-.9 1.7-.3 3.5-.4 5.2.1.5-.1 1.4-.4 1.9-.6 1 .3 2 .6 2.9.8 1.9-.7 3.9-.8 5.9-.1-.1.6-.4 1.8-.5 2.4-5.8.1-11.8.3-17.4-1.7-.6-1.3-1.3-1.2-1.8.1-.6 0-1.7-.1-2.3-.1z" fill="#b0c7b9" stroke="#b0c7b9"/><path d="m107.321 142.465c.5-1.3 1.2-1.4 1.8-.1l-.9.5z" fill="#9eaa85" stroke="#9eaa85"/><path d="m123.421 141.765c1.6-.4 2.1.2 1.5 1.8-1.6.4-2.2-.2-1.5-1.8z" fill="#bbba90" stroke="#bbba90"/><path d="m141.721 142.265c2.4.1 4.7.3 7 .3 2.2 0 4.801-.3 6 2-.9 0-2.6-.1-3.5-.2-.6.3-1.8.9-2.4 1.1-3.5.2-7.099.4-10.699.5l-1.4-.8c1.3-.3 2.7-.6 4.1-.9.199-.5.699-1.5.899-2z" fill="#92bcc9" stroke="#92bcc9"/><path d="m159.521 142.965c.799-.8 3.299-.8 3.299.6-.799.7-3.299.8-3.299-.6z" fill="#b4c9bf" stroke="#b4c9bf"/><path d="m165.32 142.565.601-.1c2.101-.2 4.3-.2 6.3.6v.2c-2.1-.2-6.1 1.7-6.901-.7z" fill="#fdfefe" stroke="#fdfefe"/><path d="m172.221 143.065c1.6-.6 3.4-.5 5.1-.2 1.701.9-1.5 1.5-2.1 1.2-.699-.2-2.3-.6-3-.8z" fill="#a6b69d" stroke="#a6b69d"/><path d="m188.221 144.765c2.7 0 6.6-2 8.5 1-2.5 0-4.9 0-7.4-.1z" fill="#99bcbc" stroke="#99bcbc"/><path d="m131.221 144.465c1.8.1 3.8-.3 5.5.7l1.4.8c-2.3 0-4.6 0-6.9-.2z" fill="#a6b4a4" stroke="#a6b4a4"/><path d="m138.121 145.965c3.6-.1 7.2-.3 10.699-.5 11.9.1 23.802.1 35.701.2h2.399 2.399c2.5.1 4.9.1 7.4.1.1.4.199 1.299.299 1.799-28.898.5-57.799-.101-86.7.199-2.2-.3-5.3.801-6.3-1.7 9-.7 18.2-.8 27.2-.3 2.303.202 4.603.202 6.903.202z" fill="#387390" stroke="#387390"/><path d="m184.521 145.665c-.701-1.9 3.101-1.8 2.399 0-.6 0-1.799 0-2.399 0z" fill="#a7c5c7" stroke="#a7c5c7"/><path d="m93.521 167.465c1.2 4 2.9 7.801 4.5 11.7-.3 2.399-.8 4.8-1.2 7.2h-.4c.4-3.2.4-6.5-.1-9.602-1-1.8-1.9-3.6-2.8-5.398-1.8 0-3.6.1-5.3.1v-.8h5.3c0-.8 0-2.399 0-3.2z" fill="#fff" stroke="#fff"/><path d="m172.421 182.266c.5.101 1.601.301 2.101.399 4.299.7 8.799.101 13.101.601-.101 2.5-2.899 1.5-4.399 1.801-25.801-.2-51.5.3-77.201-.2l-.4-1.101c35.77-1.42 10.834-.823 66.798-1.5z" fill="#976d0b" stroke="#976d0b"/><path d="m121.921 215.266 1.2 1.5z" fill="#2b2a2a" stroke="#2b2a2a"/></g><g stroke="#000" stroke-width=".5727" transform="matrix(1.396973 0 0 1.396973 302.5067 -145.9736)"><path d="m-91.692 235.442s-2.835-2.23-5.471-2.436c-2.635-.194-28.26-.095-28.26-.095l8.51-13.675s-.71-1.92-1.725-.105c-1.015 1.825-4.865 8.105-4.865 8.105s-2.835.81-3.545 2.03c-2.04 3.49-3.645 6.175-3.645 6.175zm-40.215-.11 8.305-15.695s-.2-2.329-1.62-.206c-1.415 2.131-4.56 7.091-4.56 7.091s-3.24 1.625-3.645 2.529c-1.785 4.025-3.85 6.391-3.85 6.391z" fill="#fff"/><path d="m-139.102 219.541c1.22 0 2.585-.154 6.535 1.355 3.95 1.525 5.775 2.895 15.35 1.975 9.564-.91 12.61-.45 15.8.46 3.19.915 4.604 1.795 4.604 1.795 1.249-2.943 3.546-4.776 5.343-6.036 1.758-1.232 6.206-1.557 3.722.596-.814.705-2.719 1.869-2.719 1.869l2.611 1.065c3.862-3.114 9.688-1.869 6.803-.2-2.89 1.671-6.23 1.976-8.206 6.075-1.98 4.101-2.28 6.835-2.28 6.835l-3.04-1.97.868-2.645-1.697-1.378-1.125 3.568-3.021-.028s.814-2.947 1.574-4.316c-5.469-2.275-7.392-3.102-12.556-2.647-5.165.45-6.84 1.215-12.616.755-5.77-.449-7.75-.755-11.395-2.735-3.64-1.976-5.47-3.799-4.56-4.404m44.521 7.023 2.227 1.367 2.321-3.034-2.714-1.437z" fill="#352b00"/></g><path d="m162.801 113.143-.22 26.737m-11.985-32.188-2.092 32.154m-17.312-1.785 4.841-27.172" fill="none" stroke="#000" stroke-linecap="round" stroke-width="1.4"/><g transform="translate(.000004 -.800089)"><path d="m127.23 144.508c2.255-1.12 2.58-.955 4.355-.475 1.77.475.48 1.765 4.19.645 3.71-1.125 3.55-1.29 7.255-.325 3.71.97 2.905 1.78 6.13.645 3.221-1.13 2.41-2.42 5.16-.965 2.734 1.455 3.221 2.41 7.25 1.12 4.029-1.285 2.42-2.255 5.484-1.285 3.061.975 3.545 2.42 5.965 1.455 2.42-.97 4.03-.815 4.03-.815s.646-4.51 2.58-7.255c0 0-3.211.83-7.42.86-6.726.05-16.819.275-23.86.275-11.45 0-21.45.8-23.544-.81-2.095-1.61-9.835-5.325-9.835-5.325s8.705 5.49 12.255 11.615"/><path d="m145.936 116.133h7.74l-3.711-3.71z"/><path d="m159.965 122.423s1.932-2.735 2.416-4.36c.484-1.6 1.449 2.91 2.744 4.36z"/><path d="m132.875 118.554c1.125-1.445 2.255-3.545 2.255-3.545l1.29 3.055-3.065-.155"/><g stroke="#000"><path d="m116.105 132.743 12.255-10.645 6.11-4.801m-13.045 18.511 12.8-13.517m1.309-5.408 8.041 22.183m-4.25-.032 4.03-9.035-9.577 9.597m9.417-1.207 3.06-8.38m3.065 1.289 4.029 7.735m-1.774-9.189 5.485 9.51m3.733-17.494-9.186 17.269m7.713-8.486-4.68 8.71m11.191-12.623 6.869 11.493m-9.69-19.367 12.271 19.207m-4.355-4.674-1.609 5.645" fill="none" stroke-width=".705"/><path d="m128.061 128.328c-.445-4.005-.15-5.195 1.19-7.86l9.055.145s-1.485 5.04-1.485 7.87c-4.095-1.025-5.796.216-8.76-.155m28.705 2.266c-.449-4.01-.149-5.205 1.186-7.88l9.061.155s-1.484 5.05-1.484 7.875c-4.099-1.025-5.802.225-8.763-.15m-30.191 5.869c-.445-4.015-.145-5.195 1.03-7.38l9.055.145s-1.32 4.56-1.32 7.38c-4.16 0-6.39.15-8.765-.145m16.125-6.455c-.445-4.005.82-6.805 1.995-8.995l10.51-.01s-2.289 6.175-2.289 8.995c-4.16 0-7.841.315-10.216.01m21.777 3.055c.81 0 6.449.325 6.449.325l-.805 2.9-6.771-.155zm-14.186-21.285.318-3.38c-1.935 0-4.354-1.29-5.645-1.29l-1.34.11 1.075 1.93-1.185 1.935s1.13-.48 1.45-.43c.325.05 3.01.75 3.01.75z" fill="#fff" stroke-width=".4"/></g></g><path d="m131.146 95.106c1.112-.29 2.173-.563 3.937-.483l2.865 3.612c-.5 0-4.117.17-4.117.17zm24.102-1.313 5.818.62 1.975 3.602-6.249.042zm-13.111.386 4.468-.225 3.215 3.816c-.5 0-4.227.041-4.227.041z" fill="#4395bd" stroke="#4395bd" stroke-width=".0938"/><path d="m150.336 93.321c.699-1.1 3.398-.2 1.898 1.1-.798 1-3.398.2-1.898-1.1z" fill="#c69117" stroke="#c69117" stroke-width=".0938"/><path d="m92.496 96.094c-8.038 45.775-4.701 95.135 54.436 143.235 22.832-20.129 70.56-60.146 55.533-142.686-15.109 7.81-27.576 20.759-55.26 4.124-25.504 15.887-39.894 5.098-54.709-4.673z" fill="none" stroke="#000" stroke-width=".8"/></g><g clip-rule="evenodd" fill-rule="evenodd"><path d="m61.9413 126.76575c.196-.893-.508-.904-.955-1.168-1.006.55.045 1.927.955 1.168z" fill="#469d4f"/><path d="m224.0213 161.57475c2.678-2.92 5.729-6.492 7.4-10.045.239-.508.221-1.047.479-1.636 1.102-2.515 2.092-5.265 2.863-7.942.319-1.107.922-2.219 1.193-3.272.566-2.196.355-4.555 1.194-7.008.352-1.031 1.815-2.374 1.433-3.971-2.277.566-4.401 1.711-5.969 3.037-2.432 2.058-4.275 5.282-5.729 8.411-1.534 3.301-2.228 7.125-3.818 10.511-.323-3.866.868-7.543 1.193-10.98.12-1.275-.136-2.672 0-3.503.065-.402.466-.558.478-.935.104-3.467-.318-7.917-1.193-10.512-.195-.575-.298-1.114-.478-1.636-1.16-3.369-3.154-5.405-4.536-8.176-1.019-2.044-.91-4.48-2.865-5.841-1.411 1.912-.29 4.823-.237 7.243.092 4.136-.262 9.56.476 13.783.602 3.441 2.211 5.497 3.343 8.176.709 1.678 1.941 4.38 2.148 5.84.271 1.907-.875 4.419-1.432 7.241-.521 2.643-.807 5.829-.955 8.411-.133 2.298.332 3.977-.717 5.14-.508-3.836.195-7.81.239-11.681.067-5.946-1.53-11.416-3.581-15.886-.887-1.932-1.633-4.67-3.818-4.906 1.175 5.549.099 12.708.478 18.689.477 7.54 3.397 12.705 3.58 19.624h-1.671c-1.007-4.464-2.537-8.481-3.343-12.85-.321-1.749.021-3.894-1.67-4.906-1.535 2.165-1.142 5.235-1.91 7.944-.522 1.84-1.416 3.68-1.91 5.839-1.668 7.305-.731 14.785 1.194 21.726-1.003.421-2.707.154-3.819.468-.402-1.972-.654-4.104-.716-6.308-.071-2.501.688-5.433-.717-7.241-1.09 1.82-1.085 3.945-1.671 5.84-.568 1.842-1.149 3.761-1.909 5.606-1.443 3.508-3.636 7.067-4.058 10.98-.328 3.033 1.235 7.059.239 10.278-.74-.99-2.812-.677-3.82-1.401-.148-1.51-.364-3.443-.239-5.372.133-2.036 1.652-4.297.239-5.374-3.44 6.704-8.364 12.489-11.458 19.155-1.214 2.618-1.959 5.207-3.103 7.943-.579-1.041.71-2.016.305-3.083l.128-.376-.135-.046c.572-2.24 1.464-5.172 1.133-7.475-2.024 1.002-3.115 3.082-4.535 4.673-4.383 4.91-9.01 9.499-12.174 15.418-1.368.897-2.215 2.537-3.58 3.504-2.351 1.664-5.876 2.592-8.832 3.737-1.523.591-3.399 1.644-4.296 1.636-1.486-.013-4.743-2.295-6.206-3.036-.707-.358-1.287-.816-1.911-1.17-2.684-1.52-5.955-2.51-8.115-4.438-3.395-3.029-4.984-7.378-6.922-10.513-.436-.703-1.113-1.226-1.433-1.868-.991-1.999-1.195-4.925-1.91-6.543-1.649-1.499-2.915-3.374-4.535-4.904-3.069-.212-4.61-1.778-6.684-3.738-1.232-1.165-2.876-2.093-3.581-3.037-1.08-1.443-1.673-3.979-2.625-6.073-1.748-3.839-4.271-7.823-5.729-11.681-.805-2.127-.752-4.85-2.626-6.308-.297 6.873 2.193 14.875 2.148 21.959-1.388-1.457-1.3-3.888-1.671-6.307-.182-1.188-.481-2.48-.716-3.737-1.125-6.043-.95-12.758-2.625-17.521-1.162-3.304-3.309-8.385-7.161-8.178-2.289.125-3.337 2.344-3.82 4.206-.335 1.296-.498 3.294-.478 4.905.041 3.101.864 6.429-.238 8.877-2.702-4.932-1.221-10.717-.716-16.353.177-1.978.115-4.146.239-5.373.139-1.377-.356-2.947.477-3.971 2.188 1.674 2.776 4.914 4.536 7.008 1.437-2.549-.688-6.497-1.433-10.745-.436-2.494-.701-6.132-1.193-8.411-.703-3.253-4.165-3.126-7.4-2.336-.814 1.772-.625 4.526-1.432 6.308-.797-2.278-1.104-5.03-1.193-7.476-.105-2.869.079-5.781.477-8.41 1.705-.436 3.583-.698 5.491-.935-.164-.854-.905-1.14-1.195-1.869-.999-.589-1.064.506-2.387.233.458-2.008 2.603-1.317 4.058-1.401.798-1.653-.726-1.971-1.671-2.57-1.069-.113-1.065.826-1.909.935-.93-1.398-1.89.395-3.103-.234-.329-.301-.237-1.014-.239-1.635 1.209-.08 2.289-.212 3.341-.935 1.374.278 2.809.186 3.343-.934-.695-2.835-4.253.521-5.729-1.403.819-.209 1.59-.469 1.909-1.167 1.739.507 3.421-.363 3.582-2.103-1.414-1.431-5.238 1.055-5.491-1.635 1.371-.773 4.17-.087 5.013-1.87-.579-1.381-3.952-.027-4.774-1.168.045-1.201 1.274-1.245 1.67-2.102 1.285.249 2.324.081 2.626-1.168-.886-1.033-2.451-.122-3.581 0-.709-1.207.572-3.152-.478-3.738-2.627.596-1.909 4.436-1.671 6.074-1.523-.046-3.852-2.442-4.296-.234-.435 2.164 4.121 1.579 4.296 4.206-1.775.876-4.465-2.69-5.489.233.867 1.954 5.547.177 5.012 3.504-1.628-.353-2.729-1.222-5.012-.935.006 1.551 1.827 1.327 1.909 2.803 1.333.331 2.433.889 2.625 2.336-1.897.223-2.214-1.104-3.341-1.635-.573.294-1.443.3-1.91.7.344.909 1.073 1.442 1.432 2.336 2.19.427 2.629 2.566 4.536 3.271 1.034.29 1.652-1.167 2.148 0-.295.879-1.387.979-2.148 1.401-1.396-1.126-2.335-2.698-5.251-2.335.031 1.915 2.162 1.776 2.387 3.503.428.438 1.465.28 1.67.934-.535 8.086.191 17.166.239 24.996-2.637-4.021-3.517-7.991-6.684-11.212-3.451-3.512-8.134-5.664-11.935-8.877-1.603-1.356-2.47-3.709-5.012-3.738-.74 2.314 1.871 3.284 1.909 5.607 1.771 2.104 3.06 4.363 5.251 6.073 1.789 1.396 5.429 2.708 5.967 4.906.641 2.621 2.051 5.287 3.103 8.176 1.029 2.825 2.46 5.514 3.342 8.177.646 1.952.815 3.682 1.671 5.374.973 1.922 2.702 4.806 2.625 6.774-5.34-4.198-11.521-7.86-17.425-11.447-1.915-1.164-4.006-3.188-6.206-3.037-.706 1.221.509 2.053 1.193 2.804 2.266 2.488 5.157 4.59 7.877 6.308 3.243 3.966 7.371 7.332 10.264 11.681.798 1.199 1.208 2.474 1.909 3.505 1.394 2.046 3.546 3.941 5.252 5.605.93.908 2.04 1.762 2.625 3.037-3.038-.014-6.228-.177-8.354.7-2.805 3.164-.322 7.313.239 11.681.179 1.394-.546 3.135 1.193 3.505 2.554-2.272 1.116-8.409 4.536-9.345.322-.089 1.837-.046 2.148 0 1.488.217 4.399 1.794 5.968 3.037 1.939 1.537 4.218 3.95 6.445 6.073 1.077 1.028 2.273 1.891 3.342 2.805 1.25 1.068 2.163 2.435 3.102 3.27 1.345 1.196 2.789 1.253 3.343 2.804-4.023.37-6.96-.827-9.787-1.868-3.469-1.28-6.086-3.204-9.549-3.738-.641-.099-1.242.125-1.91 0-1.699-.32-3.439-1.363-5.49-.701 1.379 1.739 3.452 2.822 5.25 4.205 1.765 1.356 3.532 2.766 5.491 3.972 3.696 2.273 8.157 5.545 12.414 6.773 4.209 1.217 9.096 1.164 14.322 1.403 4.092.186 7.084.867 10.264 1.635 4.158 1.004 7.737 2.032 10.981 3.737 1.602.844 3.094 2.012 4.774 2.805 1.964.927 4.38.83 5.489 2.803-3.029 1.15-11.368 3.415-7.399 6.774 3.016-1.108 5.841-2.653 8.833-3.737 3.497-1.269 3.949-.584 6.684.934 1.216.675 2.411 1.328 3.341 1.869 2.425 1.407 4.439 3.035 6.923 3.738.739-.55.253-2.081.478-2.57.958-.606 2.808.02 3.104-.699.186-1.947-1.905-1.666-3.048-2.313l.032-.024c-.272-.358-.66-.479-.972-.577-.089-.027-.172-.054-.245-.083l-.023.06c-1.879-1.323-4.332-2.084-6.248-3.371 7.254-3.598 17.79.972 27.213.935 7.514-.029 12.541-1.96 17.186-4.205 1.629-.787 4.104-1.456 4.536-3.505-2.144-.59-5.371.949-7.877 0 1.45-1.388 3.113-5.456.239-6.541l-.31.305.348-.359c-.631-.609-1.479-.897-2.454-.833-1.214.08-2.465.719-3.188 1.627l.072.058c-.954 2.634-5.55 2.877-8.791 2.475 2.702-1.954 6.275-4.424 10.264-4.906 5.772-.698 11.196.338 16.232-.935 2.674-.676 4.915-1.869 6.923-2.804 3.101-1.444 5.366-3.304 7.876-5.14 1.209-2.166 3.643-3.134 4.06-6.074-2.456-.648-4.404 2.348-7.162 1.402.118-.818.355-1.521.238-2.57-.606-.151-.509-.99-1.11-1.146l.02-.034-.252-.152c-.467-.284-.994-.592-1.61-.715-.203-.18-.686-.085-.628-.521 3.499-1.021 7.369-1.986 9.788-3.271 1.748-.93 2.237-1.509 3.581-2.57.771-.608 1.793-1.02 2.386-1.635 2.143-2.219 3.487-5.096 5.252-7.709 1.773-2.625 4.03-5.104 4.535-8.176-3.07 1.899-6.14 3.803-10.264 4.672 1.122-2.593-.03-4.682-1.432-6.074 4.563-4.47 8.627-9.43 9.746-17.27l.076.025.158-.466-.116-.039c1.399-4.107 3.167-8.978 3.742-13.087-1.748.414-2.438 2.326-3.343 3.503-1.021 1.329-2.176 2.472-2.865 3.972-4.142 3.031-6.37 7.938-10.025 11.447.388-2.003.04-5.14.955-7.009.472-.959 1.767-2.096 2.627-3.034z" fill="#076a21"/><g fill="#1d7f45"><path d="m175.883 219.531-.003-.001h.002z" transform="translate(-1.0737 -1.071255)"/><path d="m153.4383 246.22475c.06.021.119.042.177.061.212.066.395.124.474.229l.018-.014c.109.311.607.239.452.81-.47.463-1.363.149-1.909 0-.174-.789.354-.891.788-1.086z"/><path d="m183.9193 229.93775c.554-.664 1.515-1.147 2.424-1.207.479-.031 1.16.039 1.693.554l.05-.052c.61.807 1.279 1.688.846 2.892-2.425 1.41-3.802-.922-5.013-2.102z"/><path d="m171.2683 219.97675c-.83-.588-.012-1.771.846-2.203l.005.005c.067.07.152.16.227.244.044-.093.084-.184.129-.275l-.008.423c-.017-.03-.068-.089-.121-.147-.085.179-.171.359-.251.535-.16.348-.313.675-.48 1.001-.172.084-.262.249-.347.417z"/><path d="m174.3503 218.30575-.016-.006c-.001.002-.001.002-.001.002l-.156.461.115.04c-.431 1.271-.927 3.299-2.308 2.81-.253-.919.416-.938.489-1.538.19-.365.362-.738.528-1.1.119-.259.242-.527.369-.786l.1-.203-.086-.208c-.085-.208-.272-.41-.549-.694l-.09-.093c.247-1.007 1.237-1.285 1.625-2.152.689.972-.105 2.22-.02 3.467z"/><path d="m209.5283 209.71275-.006.054c.494.057.942.33 1.417.619l.251.152c.499 1.094-.179 2.073-1.014 2.431-.914-.74-1.842-1.467-2.625-2.337.161-.793 1.087-.837 1.977-.919z"/><path d="m232.2403 162.27175c1.233-.051-.257 1.794-.144 3.24l-.119.354c-.577.4-1.467 1.845-1.988.614l-.31-.304.42.271c.511-.792.905-1.638 1.286-2.455.268-.573.545-1.162.855-1.72z"/><path d="m228.3693 165.31875-.032.007c.186-1.594 2.163-4.273 2.971-3.426-.302.553-.572 1.118-.828 1.67-.384.823-.746 1.601-1.22 2.336l.024.016c-.214.137-.391.311-.489.559-.314-.002-.217-.409-.478-.467l-.357-.117.499-.031c-.013-.2-.054-.384-.09-.547z"/><path d="m226.8863 165.54475c.229-.007.388.057.531.133.018.085.039.173.044.249l.103-.007c-.699 2.605-1.362 5.244-3.064 6.867-.222-.002-.242-.201-.323-.341.022-.093.046-.187.064-.274.038-.175.073-.341.131-.494l-.318-.118c.239-2.567 1.238-4.304 2.832-6.015z"/><path d="m222.5903 171.15275h.716c.031.108.033.246.075.346-.048.159-.086.314-.118.465-.025.119-.05.231-.08.339l.243.068c-.706 1.668-.859 3.878-2.747 4.389-.427-2.911 1.211-3.801 1.911-5.607z"/></g></g><g transform="translate(-1.0737 -1.071255)"><g stroke-width=".0938"><path d="m170.82 215.965c-3.399.2-6.899.4-10.301-.3.801.101 2.301.2 3.102.3 2.1 0 4.199 0 6.3-.3 2-2.5 1.2-6.2.2-9-1.2-2.601-4.4-1-6.5-1.101-1.2 0-2.5.101-3.7.199.101-1.6.2-3.199.2-4.898-1.2-.4-2.4-.801-3.7-1.2-1.399 1.101-2.8 2.101-4.3 3.101.5 4.199 2.8 9 .1 12.899-.199-3.7.2-7.7-1.9-10.899-1.6.301-3.198.699-4.898.899-1.3 0-2.699 0-4 .101-.4 2.801-1.3 5.601-.8 8.399.8 1.399 2.5 1.5 3.899 1.899 2.201-.101 4.301-.199 6.5-.301-3.6.7-7.199.4-10.799-.3 0-5.101 1-10 1.6-15-1.801 0-3.6.101-5.5.3-2.301-1.898-4.1-4.5-4.7-7.6-.7 0-2.2-.1-3-.2-1.601 0-3.2.2-4.7.399 4.7-1.899 10-.299 13.301 3.4.199 0 .799-.101 1-.199 0 .799-.101 2.398-.101 3.199h3.899v5c.9-.101 2.701-.101 3.601-.101 1.399-.2 2.8-.3 4.2-.5-.399-1-.699-2.101-1-3.101 1.301.399 2.5.399 3.801 0 .398-1.199.3-2.399-.602-3.5-.6-1-1.299-1.801-2-2.699.102-.4.301-1.102.4-1.5-3.602-.4-7.6-.7-10.6 1.8 2.5-3.3 7.1-2.7 10.699-2.101 2.301.699 3.9 2.699 5.701 4.199 1.799-1.898 3.6-4.5 6.5-4.5 4.199-.6 10 .102 11.5 4.801 1.199 2.601-2 3.601-3.101 5.399.3 3.5 1.101 6.899 1.698 10.3-.921 1.201-.624 1.148-1.999 2.706z" fill="#412b19" stroke="#412b19"/><path d="m123.921 193.365c1.5-.2 3.101-.4 4.7-.4.3 1 .6 1.9.8 2.9.8.6 1.7 1.1 2.5 1.699-1.3 2.101-3.399 3.5-5.8 4.101.199 1 .4 2.101.6 3.101-.9 0-2.6-.101-3.5-.101.1-1.601.301-3.101.4-4.7-.7-.3-2-.8-2.7-1-.3-.6-.899-1.8-1.2-2.398 1.3-1.202 2.599-2.301 4.2-3.202z" fill="#fdd401" stroke="#fcd23c"/><path d="m128.621 192.965c.8.102 2.3.2 3 .2.6 3.101 2.4 5.7 4.699 7.601-.899.301-1.799.601-2.699.801-1.301-.2-2.5-.4-3.801-.602.4.7 1.4 2.102 1.801 2.7-1.6.399-3.301.8-4.9 1.101-.199-1-.4-2.101-.6-3.101 2.4-.601 4.5-2 5.8-4.101-.8-.601-1.7-1.101-2.5-1.699-.2-1-.5-1.9-.8-2.9z" fill="#a08701" stroke="#cfb234"/><path d="m139.82 195.165c3-2.5 7-2.2 10.601-1.8-.101.398-.3 1.1-.399 1.5.699.898 1.399 1.699 2 2.699-.701.199-2.101.801-2.801 1-.199.601-.8 1.699-1.1 2.199-1.102.2-2.2.301-3.4.5.301 1.102.6 2.2.9 3.4-.9 0-2.7 0-3.6.1 0-1.699 0-3.3 0-5-1.301 0-2.601 0-3.9 0 0-.8.1-2.398.1-3.199.4-.298 1.2-1 1.599-1.399z" fill="#fdd401" stroke="#fbd23d"/><path d="m156.82 199.766c-.399-4.5 4.199-6.801 8-7l.5.601c1.301 1.5 2.601 2.8 4 4.2-1 1-1.899 2.199-2.801 3.3-.699.1-2.299.3-3.1.399.1.899.2 2.699.301 3.601-.801-.101-2.4-.3-3.201-.4 0-1.6-.1-3.2-.199-4.7-.899-.001-2.599-.001-3.5-.001z" fill="#fdd401" stroke="#fcd23d"/><path d="m165.32 193.365c1.4 0 2.801-.102 4.199-.2-.1.399-.398 1.3-.6 1.7 1.7 2 2.7 4.398 2.6 7-1-.2-3-.7-3.898-.9.199.801.6 2.5.8 3.301-1.601.199-3.101.399-4.7.601-.1-.9-.199-2.7-.3-3.601.8-.101 2.399-.301 3.101-.399.899-1.101 1.799-2.3 2.799-3.3-1.4-1.402-2.7-2.702-4.001-4.202z" fill="#a08701" stroke="#cdb73a"/><path d="m119.621 196.965c0-.1 0-.3.1-.398.3.6.9 1.8 1.2 2.398.7.2 2 .7 2.7 1-.1 1.602-.301 3.102-.4 4.7.9 0 2.6.101 3.5.101 1.6-.301 3.301-.699 4.9-1.101-.4-.601-1.4-2-1.801-2.7 1.301.2 2.5.4 3.801.602.4 3.898 1.4 7.8 1.3 11.699-.399 1.101-.899 2.601-2.3 2.601-3.301.3-6.7.2-10 .399-.4-.5-.801-1-1.2-1.5.3-4.5 1.3-9 1.399-13.601-.799-1.3-2.6-1.101-3.799-1.5.1-.899.3-1.8.6-2.7z" fill="#412b19" stroke="#412b19"/><g fill="#a08701"><path d="m149.221 198.564c.7-.199 2.1-.801 2.801-1 .899 1.101 1 2.301.601 3.5-1.302.399-2.5.399-3.802 0 .302 1 .602 2.101 1 3.101-1.398.2-2.799.3-4.199.5-.301-1.2-.6-2.3-.9-3.399 1.2-.199 2.301-.301 3.4-.5.299-.5.899-1.601 1.099-2.202z" stroke="#d1b935"/><path d="m126.421 205.865c1.601-.301 3.2-.7 4.7-1.2 3 2.5 2.8 7.101 1.5 10.399-2 1.199-4.4.699-6.7.899 0-3.399.2-6.798.5-10.098z" stroke="#cbb538"/><path d="m145.421 205.665c1.7-.2 3.3-.601 4.899-.899 2.101 3.199 1.699 7.199 1.9 10.899l-1.201.101c-2.199.101-4.299.199-6.5.301-.199-3.503-.199-7.102.902-10.402z" stroke="#cbb539"/><path d="m163.621 205.564c2.1.101 5.3-1.5 6.5 1.101 1 2.8 1.8 6.5-.2 9-2.101.3-4.2.3-6.3.3-.4-3.5-.4-7 0-10.401z" stroke="#cab539"/></g><g fill="#fdd401"><path d="m122.121 215.564c-.301-3.5-.2-7 1.1-10.301.801.2 2.4.4 3.2.602-.3 3.3-.5 6.699-.5 10.1-.9-.1-2.8-.3-3.8-.401z" stroke="#fcd33b"/><path d="m141.421 205.766c1.3-.101 2.7-.101 4-.101-1.101 3.3-1.101 6.899-.899 10.399-1.4-.399-3.101-.5-3.9-1.899-.501-2.8.399-5.601.799-8.399z" stroke="#fed63b"/><path d="m159.921 205.766c1.2-.101 2.5-.199 3.7-.199-.4 3.398-.4 6.898 0 10.398-.801-.1-2.301-.199-3.102-.3-2.798-2.5-.498-6.7-.598-9.899z" stroke="#fcd23b"/></g></g><g clip-rule="evenodd" fill="#1d7f45" fill-rule="evenodd"><path d="m219.845 120.595c.567.535.691 1.503.715 2.57 1.884 1.195 1.135 4.964 2.864 6.308.224-3.966-1.851-7.681-3.341-10.747-.192-.162-.654-.364-.717 0l-.356-.117-.358.117c-.24 0-.478 0-.717 0 .333 2.166-.158 5.14 1.194 6.307l-.359.273.12.428c-.238 0-.479 0-.716 0 .234 3.312.854 6.053 1.909 8.643.468 1.148.823 2.731 1.91 3.271.004-3.042-1.319-4.784-2.148-7.009 1.63-1.075-.483-3.23-.716-4.672l.357-.273-.12-.428c.194-.044.238-.234.479-.234.091-1.792-1.475-2.441-.716-4.205l.438.116z"/><path d="m223.902 132.976c.357-.378.357-1.724 0-2.103-.238 0-.479 0-.717 0-.39.829-.823 2.133.717 2.103z"/><path d="m234.644 141.153c1.499-1.49 1.826-7.114 2.865-9.812-2.954.769-4.232 3.177-5.729 5.374.486.146.066 1.18.954.934.209-.653.143-1.574.954-1.636l.167.397.312.305c-.214 2.049-1.266 3.278-1.672 5.139.194.044.237.234.479.234l-.12.428.357.272c.188.726-1.581 1.51-.477 1.635l-.119.43.358.271c-.439 1.985.771 1.612.715 0-.715 0-.596-.428-.596-.428l-.358-.272c.813-.762 2.28-.883 2.148-2.569l-.119-.351z"/><path d="m215.785 143.723c.193.123.389.243.718.233.211-2.256-.874-5.202-2.388-6.541v3.271c.942.011 1.421.479 1.433 1.402l-.438-.117-.28.35c-.313-.082-.374-.41-.715-.467-.389.551-.495 2.387.715 2.103.047-.189.24-.232.239-.468l.358.117z"/><path d="m230.108 142.788c1.459-.675 1.514-2.725 1.432-4.906-.318 0-.637 0-.954 0-.25 1.079-.676 1.986-.478 3.505l-.438-.117-.278.351c-.158 0-.317 0-.478 0-1.259 1.841-1.533 3.647-.954 6.308l-.438-.117-.278.351c-.158 0-.317 0-.478 0-1.332 3.938-2.707 7.637-3.342 11.447 1.048-1.858 2.651-3.514 3.104-5.84.31-1.593-.41-3.238.715-4.673l.359.117.357-.117c1.482-.109 1.112-4.048 1.432-6.073l.438.115z"/><path d="m52.989 145.123c2.655 1.75 4.661 3.653 7.161 5.141.595.801 1.498 2.347 2.387 2.103-3.094-6.706-10.272-9.415-15.516-14.017 1.051 3.231 3.19 4.944 5.968 6.773z"/><path d="m223.424 141.62c.326-.298.369-1.145-.238-1.168-.325.297-.368 1.145.238 1.168z"/><path d="m72.324 143.488c-.282 6.159-3.291 12.957-1.193 19.157-.53.777-.449 1.707.238 2.336 1.124-1.907 1.23-3.432 1.194-6.541.456-.439.433.138 1.193 0 .203-1.983-.544-4.896.955-5.607.616 1.876-.039 4.637.24 6.309-.079 1.575.425.52.239-.469.288-4.576.086-10.877 1.67-15.65-1.321-.796-3.644-.48-4.536.465z"/><path d="m215.785 149.796c-.608-1.505.348-4.545-1.909-4.438-.312 2.255.353 4.789 1.909 4.438z"/><path d="m216.979 146.76c.104-.446.684-.423.479-1.169-.239 0-.479 0-.717 0 .13.34-.279 1.208.238 1.169z"/><path d="m231.54 149.096c.318.304.89.308.955-.233-.316-.304-.888-.309-.955.233z"/><path d="m216.979 151.431c.479-.502 1.625-2.041.239-2.335.022.736-.887 1.761-.239 2.335z"/><path d="m215.309 155.403c.654-1.338-.373-2.851-.479-4.205-.237 0-.476 0-.715 0 .49 1.31-.236 3.813 1.194 4.205z"/><path d="m59.196 153.066c.364-.334.233-1.217-.478-1.168-.034.58-.044 1.134.478 1.168z"/><path d="m61.583 157.272c-.109-1.294-1.054-1.772-1.672-2.568.192 1.213.345 2.464 1.672 2.568z"/><path d="m64.447 166.149c1.702-2.498-1.282-5.702-2.864-7.241.516 2.842 1.916 4.82 2.864 7.241z"/><path d="m209.58 158.908c-.313 2.9-1.914 6.567-2.626 9.811-1.598 7.28.151 14.701 1.91 21.492.131-2.49.328-5.411.238-8.409-.153-5.127.142-10.405.478-15.186.071-1.028-.13-2.079 0-3.037.238-.233.517.117.517.117l.438-.117c.252 4.591.215 5.506.716 6.774-.222.578-1.656 2.143-.476 2.57.764-.566 2.619-2.008 1.909-4.205-.379-.02-.912.112-.955-.234.891-1.62.164-4.318-.954-5.373-.24.468-.518.117-.518.117l-.438.117c-.001.001 1.611-3.269-.239-4.437z"/><path d="m233.211 161.243c1.661.93 1.755-1.081 1.91-2.335-1.338.091-1.469 1.364-1.91 2.335z"/><path d="m81.157 178.998c.118 1.13-.338 2.822.477 3.27 1.111-.318.543-2.977 2.148-2.103.763-4.628-.132-8.666 1.194-12.848-.849-1.086-2.004-2.687-4.058-1.636-3.005 1.537-1.852 11.529-1.433 15.652 1.104-.088.398-1.947.955-2.569l.279.35z"/><path d="m49.17 169.187c.115-.529-.598-1.403-.955-.702.46.095.189.907.955.702z"/><path d="m67.55 170.589c-.592-.899-1.232-1.756-2.386-2.104 3.627 8.676 6.021 18.56 10.741 26.166-1.797-8.286-5.68-14.532-7.639-22.661l.311-.304.167-.397c.192.124.387.244.716.234-.023-.725.292-1.116.477-1.636-.665.088-1.452-.889-1.909-.233.28.038.202.426.238.7l-.437-.117z"/><path d="m231.063 170.121c.075-.55 1.132-.14.955-.935-1.136-.176-1.309.589-1.91.935h.717l-.12.428.358.273c-.236.624-1.454.288-1.432 1.167.505.285.693.88 1.432.935-.365-.996 1.096-1.399.238-2.102l.12-.429z"/><path d="m212.922 174.792c1.473-.427 3.593-.222 3.342-2.335-1.222-.92-3.844.091-3.342 2.335z"/><path d="m57.287 174.792c-.649-.529-1.918-1.63-2.388-.934 1.389 1.041 2.332 3.549 4.297 3.271-.269-.722-1.122-1.69-1.909-2.337z"/><path d="m66.834 181.334c.141-1.206-1.372-2.275-2.387-3.037-1.198-.897-2.667-1.659-3.819-2.336-.003-.235-.418-.294-.478 0 1.979 2.035 4.162 3.871 6.684 5.373z"/><path d="m225.095 178.064c1.521-.868 4.519-.027 4.059-2.104-1.896.171-2.886 1.226-4.059 2.104z"/><path d="m211.25 177.13c.125-.347.354-.589.479-.936-.502-.001-1.239.938-.716 1.168l.311.304.405.164c-.464.715-.979 1.378-1.194 2.335.994-.192 2.338-2.012 1.433-2.568l-.311-.304z"/><path d="m216.264 179.231c.329-.01.523.11.715.233.042-.688.644-1.446.239-1.868-.847.027-.96.773-.954 1.635z"/><path d="m211.729 190.445c2.425-2.318 2.62-8.001 2.626-11.915-.053-.182-.201-.271-.479-.233-.185 3.835-2.047 8.342-2.147 12.148z"/><path d="m218.411 183.67c-.749-.11-.629.629-1.193.701-.657 3.405-4.495 4.944-4.534 8.177 1.898-2.191 3.932-4.251 5.968-6.308-.419-.214-.829-.435-.717-1.168.342-.288.452-.803.476-1.402h.718c.304-1.135.92-2.217 1.192-3.505.146-.691.712-1.807 0-1.868-1.013 1.421-1.613 3.249-1.91 5.373z"/><path d="m64.924 184.371c-1.132-2.24-3.056-3.707-4.536-5.606-.28.036-.677-.04-.716.233 1.873 1.673 2.723 4.344 5.252 5.373z"/><path d="m79.485 183.67c.038-.163-.083-1.359-.239-.7-.209.888.128 1.169.239.7z"/><path d="m87.364 202.826c1.356.931 2.286 2.278 4.057 2.803 1.074.977 2.856 2.498 4.536 2.103-.868-1.642-1.237-3.772-1.67-5.84-3.735-2.172-3.893-6.664-5.967-10.746-1.145-2.249-2.538-5.034-3.104-7.241-1.361 6.373 1.276 12.695 2.148 18.921z"/><path d="m200.27 185.772c.65.171.48-.463.954-.467-.027-.597-.045-1.202-.716-1.168-.074.549-.377.877-.238 1.635z"/><path d="m220.083 187.875c1.378.208 1.876 1.278 3.819.936.198-.585.654-.918.717-1.636-.742-2.059-4.263-1.458-4.536.7z"/><path d="m198.6 192.08h.478c.596-1.363.743-3.164 1.193-4.673-.007-.227-.293-.18-.477-.232-.897 1.225-1.467 2.77-1.911 4.438l-.358.272.12.428c-.079 0-.158 0-.239 0-.967 1.307-1.318 3.967.478 4.673.872-1.014.377-3.262 0-4.438l.406-.164z"/><path d="m95.241 191.613c-.339-1.147.092-3.051-.955-3.505.259 1.641.046 2.924.955 3.505z"/><path d="m216.74 190.211c1.048.06 1.813-1.037 1.434-1.636-.881.153-1.253.801-1.434 1.636z"/><path d="m224.38 200.724h.715c3.124-3.018 5.325-6.938 7.4-10.979-.317 0-.637 0-.955 0-.191.59-.981.595-1.432.934-3.154.543-5.634 2.348-9.07 3.737-2.745 1.11-5.33 2.315-7.162 3.737-1.354 1.054-2.631 2.286-3.102 4.206 2.054-.19 4.601-1.866 5.729-3.738l.278.351.437-.116c.661.78 1.278-.446 2.148-.234 1.409-1.892 3.657-2.963 5.014-4.906.313.239.88.229 1.193.468l.311.304.406.164c-.665 1.481-3.522 1.965-3.343 3.503l-.119.352.357.116c-.933.724-3.304.037-3.58 1.401.348.361 1.222.206 1.909.233l-.119.43.357.271c-.315 1.17-1.813 1.185-3.102 1.402-.328.532.615.878 0 .935-1.504.319-2.684.956-4.297 1.167.782.76-.081.979.238 1.636 4.273-.49 7.109-2.387 9.549-4.671l.357-.274z"/><path d="m207.193 191.613c.074-3.698-7.042.267-3.104 2.803.253-1.996 3.068-1.042 3.104-2.803z"/><path d="m200.986 191.846c.545.065.897-.056.955-.466-.608-.121-.925-.399-.955.466z"/><path d="m219.129 191.146c-3.521 1.773-6.783 3.797-8.354 7.476 2.074-.452 3.374-2.18 5.011-3.271.986-.656 2.04-.964 3.104-1.402.968-.397 2.325-.678 3.104-1.635-1.577.218-1.584-1.1-2.865-1.168z"/><path d="m201.702 194.883c.472-.252.407-1.938-.478-1.635-.129.895-1.534 1.757-.954 2.57l-.119.428.357.272c-.124.346-.354.589-.478.935.386.066.411-.221.718-.233l.118.351.119.351c-.354 1.288-1.536 1.767-1.671 3.271.387.065.411-.221.716-.234l.12.352.357-.117c.366.774-1.128.882-.238 1.401.214-.803 1.118-.931 1.193-1.869l-.119-.233-.12-.234c.194-.044.238-.233.478-.233-.079-.934.427-1.296.239-2.335l-.119-.352-.12-.35c.342-.312.632-1.039.239-1.401l-.119-.352z"/><path d="m95.241 194.883h.477c0-.311 0-.622 0-.935-.159 0-.318 0-.477 0z"/><path d="m81.634 197.22c-.017-.684-.087-1.317-.956-1.168.018.684.547.867.956 1.168z"/><path d="m201.464 206.33c1.795-.19 2.8-3.907 3.341-6.541.25-1.212-.034-2.097 0-3.036-.582-.13-.508-.904-1.432-.701-.097 3.358-.804 7.231-1.909 10.278z"/><path d="m206.716 200.256c.704-.691 1.123-2.713.716-3.737-1.922-.06-1.02 2.696-.716 3.737z"/><path d="m197.167 202.359c.799-1.765.466-4.682-1.433-5.14-.093 2.165-.446 4.431 1.433 5.14z"/><path d="m65.401 199.322c-2.136 2.361.219 5.821.717 8.409 1.618-.908 1.363-3.649 2.865-4.671.535-.411 1.715-.19 1.671-1.169-.287-.888-1.682-.69-1.671-1.869 1.798-.871 3.698-.049 5.968.233 1.084.73 1.701 1.918 2.864 2.57.644-4.899-8.192-4.721-12.414-3.503z"/><path d="m84.976 204.929c-.292-1.064.654-.917.477-1.868-1.428-1.562-2.9-3.079-4.534-4.439-.16 0-.319 0-.479 0 .676 2.765 1.159 5.719 3.104 7.242.864 1.334 1.151 3.233 3.104 3.505.609-1.153-1.335-1.589-1.671-2.57l.405-.164.311-.304c.544.169 1.22.209 1.672.468.302 1.104.765 2.054 1.909 2.336.399-.31.799-.619 1.67-.467.084.307.42.367.477.701-.137.487-.591.666-.477 1.4.725.459 1.813.563 3.104.468l-.119.351.358.116c-.25.663-.25.974 0 1.636 1.069.346.733-.685 1.67-.467.552.52-.081.91 0 1.635 1.091.334 1.277 1.554 2.626 1.635l-.12.351.358.117c.753 1.365 2.503 1.756 2.865 3.505l-.311.304-.166.396c-1.386-.59-2.216-1.725-3.82-2.103l-.279-.351-.437.117c0-.234 0-.468 0-.701-1.423-.283-3.907-3.747-4.775-.934.764.575 1.385 1.292 2.149 1.868.677.04.465-.79 1.432-.468.169.867-.408 1.003-.238 1.87 1.621 1.062 3.35 2.455 6.206 1.635 0-.155 0-.312 0-.467l.438.117.279-.352c.232.006.185.286.238.467 1.358-.025 4.325-.203 6.207-.467-.644-2.159-2.305-2.663-4.058-3.271l.119-.428-.358-.273c0-.232 0-.467 0-.7-.271-.98-1.495-1.029-2.864-.935-.8-1.753-1.946-4.027-4.535-4.673-.442.347-.358 1.209-1.193 1.168-.428.03-.504-.285-.955-.233l.119-.35-.357-.117c-.047-1.383 1.401.139 1.432-1.168-.723-1.19-1.902-.366-2.864 0-.318-.234-.889-.221-.956-.7 0-.468 0-.935 0-1.402-.878-1.504-2.691.38-3.58-.7-.192-.812.356-.898.239-1.637-1.23-1.907-1.969.455-3.582-.233l.12-.35z"/><path d="m188.096 204.929c.711-.558 1.403-2.357.718-3.503-1.078.635-.901 2.071-1.672 3.503-.845 1.57-3.025 2.703-1.672 4.439.768.203.496-.606.956-.701l.278.35.438-.116c-.128.825.203 1.204.717 1.401v.234h.237c-.295.488-.693.878-1.192 1.167-.131.828.845.575.716 1.401-.758.254-3.198 2.386-2.149 2.805l-.118.428.357.272c-.412.848-2.127 1.647-1.67 2.569l-.12.429.358.272c-.353.59-.843 1.043-.954 1.869 1.181-.791 2.795-1.157 2.863-3.037-.158 0-.317 0-.478 0l.12-.428-.359-.273c2.17-1.303 3.08-3.839 2.865-7.475l.358-.117-.358-.117c.614-1.19.825-2.773.716-4.673-.237 0-.477 0-.716 0l.119-.428z"/><path d="m208.625 202.359c-3.127 2.624-5.319 6.165-7.639 9.577 1.216.495 1.903-1.353 2.148-2.568 2.494-1.921 4.937-3.89 6.205-7.009-.236 0-.475 0-.714 0z"/><path d="m196.212 214.507c.718-.31.92-1.125 1.193-1.869.071-.614-.926-.184-.716-.935.207-2.831 1.49-6.275-.478-8.177-.26 3.351.158 7.2.001 10.981z"/><path d="m198.838 206.798c1.099-.482 1.677-1.475 1.911-2.804-1.364.224-1.611 1.541-1.911 2.804z"/><path d="m107.653 215.909c.229.814.177 1.742.478 2.102.996 1.193 2.13 2.607 3.103 3.504.504-1.744-.677-3.478-1.193-5.139-1.346-4.331-2.571-7.805-5.252-10.279-.014-.143-.036-.276-.238-.233.179 3.066 2.175 6.747 3.102 10.045z"/><path d="m209.818 206.564h.477c0-.154 0-.311 0-.467-.157 0-.317 0-.477 0z"/><path d="m190.244 209.134c-.116.819-.355 1.521-.238 2.569 1.554-.271 3.454-.202 3.58-1.869-.827-1.021-1.854-1.261-3.342-.7z"/><path d="m182.129 214.04c.813-.174.393.86.955.935 1.067-1.213 1.673-2.878 1.67-5.141-.384.066-.411-.221-.715-.232-.77 1.349-1.771 2.472-2.389 3.97l-.356.273.119.429c-.08 0-.159 0-.238 0-.581 1.456-1.596 2.489-1.671 4.438l-.359.117.119.35c-.079 0-.157 0-.238 0-1.23 3.703-2.553 7.314-4.296 10.513 2.337-2.15 5.27-3.72 5.013-8.409l.437.117.279-.352c.204-.042.225.092.239.234 1.598-.959 1.297-4.651.953-6.775h.479v-.467z"/><path d="m204.567 210.068c.374-.022.827.031.717-.467-.16 0-.319 0-.479 0 .001.234-.192.278-.238.467z"/><path d="m89.75 212.638c-1.371-.45-1.665-1.953-3.103-2.336.912 1.988 2.092 3.715 3.818 4.905.474-.459.152-1.334 0-1.868l.12-.351.12-.351c.497.138.771.491 1.193.701.045-.645-1.476-1.795-1.432-.935l-.438-.117z"/><path d="m202.895 213.339c1.594-.153 2.971-.52 3.344-1.869-1.333.41-2.659.826-3.344 1.869z"/><path d="m111.949 216.844c1.329-.226.138-1.537.956-2.337-.5-.833-1.119-1.554-2.149-1.869.316 1.482.844 2.757 1.193 4.206z"/><path d="m202.419 215.441c-3.225 1.326-7.271 3.52-8.115 5.606 4.485-1.373 7.967-3.727 12.412-5.139-.557-2.581-2.519-1.198-4.297-.467z"/><path d="m184.993 224.318c3.42-1.411 4.781-6.057 5.013-9.812-.238 0-.478 0-.717 0-1.351 3.351-1.948 7.438-4.296 9.812z"/><path d="m191.915 215.207c-.177.762-1.146 2.977 0 3.505 1.112-.942 2.357-2.716 2.149-4.205-.936.018-1.489.412-2.149.7z"/><path d="m211.967 218.244c1.567-.724 4.053-.549 4.536-2.335-2.929-.142-4.842.712-6.208 2.102l-.278-.35-.437.116c0-.233 0-.468 0-.701-1.678-.698-2.827.698-3.581 1.636l-.278-.351-.437.117c0-.077 0-.156 0-.234-1.694-.43-4.021 1.613-3.82 3.038 1.44-.382 2.23-1.398 3.341-2.104l.279.352.438-.118v.702c1.792-.349 3.19-1.084 4.059-2.337l.278.35.437-.116v.468l-.25.558.489.376c-.741.443-2.063.319-2.387 1.169l-.358.409.12.524c-.554-.033-2.794-.712-2.149.234l-.356.272.118.428c-.753.115-.843-.421-1.672-.232-.172.637.477.47.479.934-.45.882-2.219.477-3.104.935.647.146.595.977 1.433.935 1.408-.648 3.476-.648 4.059-2.103l.437.117.279-.351c.545.506 1.489.085 1.433-.701l.358-.272-.12-.428h1.91c.122-1.126 1.544-.981 1.671-2.104-.194-.044-.238-.234-.478-.234l.118-.428z"/><path d="m81.157 219.88c-2.352-1.281-5.418-1.862-8.355-2.57-.101.488.164.619.239.935 5.586 3.711 12.718 9.856 20.768 11.447 1.524.302 3.763.923 5.491.701-.059.008 1.039-.104.955-.701-1.365.09-2.525-.021-2.865-.935.147-.323.919-.034.955-.467-3.79-.808-8.144-1.063-10.979-2.803l.358-.272-.12-.43c2.107.167 4.479 1.75 5.491-.233-3.518-.762-7.509-1.062-10.264-2.569l.357-.272-.119-.428c1.621-.072-.852-1.042-1.67-.935l.119-.351z"/><path d="m116.007 225.721c-1.008-1.661-1.456-3.871-2.625-5.373-.054-.415.241-1.17-.477-.936.053 2.362 1.625 5.462 3.102 6.309z"/><path d="m196.689 221.749c-.946.482-2.293.24-2.386 1.401 2.3-.629 5.083-.787 5.967-2.803-1.975-.171-2.477.84-3.581 1.402z"/><path d="m167.328 227.822c1.513-.624 3.037-3.257 3.582-5.605-.007-.228-.294-.182-.478-.234-1.669 1.17-2.22 3.435-3.104 5.373l-.357-.116-.357-.117c-.16 0-.318 0-.479 0-1.317.501-1.002 2.602-1.67 3.737l-.357-.117-.359.117c-1.929 1.307-3.496 4.988-5.968 6.541.882.573 2.315.028 1.91-1.401 2.438-.573 3.054-2.929 4.058-4.905l.277.351.439-.117v.467c2.01.41 1.109-3.07 2.148-3.972l.357.117z"/><path d="m110.995 222.917c-.726.146-2.056-.299-2.387.233.88.167 1.823.413 2.387-.233z"/><path d="m173.774 227.59c1.006-.5 1.687-2.548 1.433-3.505-.555 1.172-1.458 2-1.672 3.505l-.358-.117.12.35c-.425.597-.907 1.138-1.193 1.869.342.166 1.633-.729 1.432-1.869l.359.117z"/><path d="m106.459 224.785c2.452.17 4.794.449 7.161.702-.855-1.637-5.423-1.39-7.161-.702z"/><path d="m196.929 225.721c-1.36.163-2.815-1.546-3.58-.468 1.237-.046 2.87 1.491 3.58.468z"/><path d="m198.359 225.253c-.07.615.332.767.956.701-.015-.63-.545-1.122-.956-.701z"/><path d="m171.388 226.422c.421-.054 1.194.234.954-.468-.545-.065-.897.057-.954.468z"/><path d="m109.801 227.355c2.376.167 3.46 1.598 6.207 1.401-.207-2.142-4.942-1.784-6.207-1.401z"/><path d="m118.395 228.99c1.067.513 1.274 1.868 2.864 1.869-.362-1.047-1.054-1.771-1.91-2.335-.544-.065-.897.057-.954.466z"/><path d="m111.711 231.094c-.332-.532-1.662-.088-2.388-.234 2.388.234 2.666.585 2.666.585l.438-.117c.562.229.703.636 1.432.467-1.432-.467-1.71-.817-1.71-.817z"/><path d="m180.936 234.364c-4.921.039-11.711.363-13.846 2.568 4.87-.217 11.713-1.249 17.188-.934.088-1.969-1.675-1.647-3.342-1.634z"/><path d="m176.639 239.036c1.983.654 4.704.117 5.252-1.401-5.252 1.168-5.372.818-5.372.818l-.118-.351c-.412-1.246-4.823.399-5.252 1.4 2.141.568 3.264-.506 5.012-.935l.12.352.358-.117c0 .001.844-1.043 0 .234z"/><path d="m183.084 239.503c-.699.252-1.25.646-1.193 1.636 2.591 1.145 5.232-.885 7.16-1.868.764-.39 1.779-.423 2.148-1.168-2.402-.246-7.233-1.523-8.354.466.278-.037.425.052.479.234l-.359.272z"/><path d="m164.226 239.036c1.604-.103 4.732 1.015 5.49-.468-.895-.579-4.548-.399-5.49.468z"/><path d="m138.923 241.372c-.816-.068-1.803-1.182-2.387-.701.187.052.277.196.238.468 1.327-.533 1.509 1.519 2.149.233z"/><path d="m178.787 241.84c-.649-.767-1.587-1.251-2.864-1.402 0 .701-.438.585-.438.585l-.278.35c-.418-.356-1.77-1.263-2.148-.233 1.182.089 1.17 1.346 2.625 1.167 0-.154 0-.311 0-.466l.12-.352.119-.35s1.986 1.675 2.864.701z"/><path d="m180.697 241.372c-.354-.121-.603-.345-.955-.467-.293.92.836 1.257.955.467z"/><path d="m140.833 243.24c.803-.295 1.263.916 1.671.234-.402-.29-1.325-1.266-1.671-.234z"/><path d="m150.619 246.045h.479c.37-.575-.812-.687-.717-.234.145.013.282.035.238.234z"/></g></g></svg>