<svg enable-background="new 0 0 595.275 841.89" height="200" viewBox="0 0 199.99999 200" width="200" xmlns="http://www.w3.org/2000/svg"><g transform="matrix(6.9314478 0 0 6.9786104 -1014.0985 -3217.6)"><ellipse cx="160.733" cy="475.39999" fill="#f8b500" rx="13.142" ry="13.053"/><path d="m149.228 481.629 10.963-19.246.955-.045 11.122 19.34-.33.546-22.367.009z" fill="#fff"/><g clip-rule="evenodd" fill="#00a33e" fill-rule="evenodd"><path d="m172.336 481.673-11.189-19.465v13z"/><path d="m149.109 481.693 11.074-19.439v12.954z"/><path d="m171.915 482.301-11.165-6.314-11.294 6.314z"/></g><path d="m160.731 461.066c-7.968 0-14.427 6.414-14.427 14.329 0 7.914 6.459 14.33 14.427 14.33s14.427-6.416 14.427-14.33c.001-7.915-6.459-14.329-14.427-14.329zm-.034 27.388c-7.238 0-13.105-5.846-13.105-13.054s5.867-13.053 13.105-13.053 13.105 5.845 13.105 13.053-5.867 13.054-13.105 13.054z" fill="#db5434"/></g></svg>