<svg enable-background="new 0 0 200 200" height="200" viewBox="0 0 200 200" width="200" xmlns="http://www.w3.org/2000/svg"><path clip-rule="evenodd" d="m91.166 37.848-.01 22.885c-8.078-3.203-13.789-11.08-13.789-20.316 0-7.857 4.171-14.707 10.385-18.574 1.792-.272 3.585-.473 5.418-.625v-20.961c-52.034 3.495-93.17 46.857-93.17 99.779 0 52.91 41.136 96.221 93.17 99.717v-21.849c-9.125-2.618-15.803-10.989-15.803-20.959 0-9.236 5.711-17.165 13.789-20.377l.01 23.377h16.116l-.01-23.377c8.099 3.222 13.85 11.15 13.85 20.377 0 9.97-6.729 18.341-15.864 20.959v21.969c52.751-2.74 94.742-46.404 94.742-99.837 0-53.435-41.991-97.16-94.742-99.909v20.96c1.723.121 3.396.282 5.097.503 6.438 3.818 10.768 10.808 10.768 18.826 0 9.227-5.751 17.103-13.85 20.306l.01-22.875h-16.117zm-.01 38.317v45.023c-16.347 3.675-28.585 18.302-28.585 35.758 0 5.106 1.067 9.931 2.961 14.353-26.45-12.813-44.702-39.918-44.702-71.262 0-30.812 17.667-57.443 43.381-70.508-1.077 3.435-1.641 7.102-1.641 10.889.001 17.455 12.239 32.08 28.586 35.747zm16.116 45.032v-45.032c16.348-3.677 28.576-18.303 28.576-35.748 0-4.171-.726-8.16-2.015-11.896 26.754 12.691 45.266 39.948 45.266 71.515 0 32.081-19.128 59.728-46.585 72.138 2.136-4.643 3.334-9.779 3.334-15.229.001-17.446-12.228-32.071-28.576-35.748z" fill="#003197" fill-rule="evenodd"/></svg>