<svg enable-background="new 0 0 850.39 325.98" height="245.0027" viewBox="0 0 270.85 245.00269" width="270.85001" xmlns="http://www.w3.org/2000/svg" xmlns:xlink="http://www.w3.org/1999/xlink"><linearGradient id="a" gradientTransform="matrix(.23947371 0 0 .32582311 69.260966 50.088372)" gradientUnits="userSpaceOnUse" x1="129.14624" x2="675.49316" y1="-136.42007" y2="582.43921"><stop offset=".24298039" stop-color="#1b5634"/><stop offset=".89239633" stop-color="#2156a6"/></linearGradient><path d="m64.65625 0c-2.085783-.01479963-4.221855.01459399-6.3125.15625-3.383.063-6.64575.91175-9.96875 1.34375-5.096.662-9.9425 2.143-14.6875 4-5.628 2.203-11.08975 4.76225-15.59375 8.90625-4.688 4.313-8.6734996 9.18925-11.5625 14.90625-2.4370004 4.822-4.2865 9.8675-5.3125 15.1875-.43600004 2.259-.87075 4.53575-.96875 6.84375-.15594001 2.428515-.24726 4.981576-.25 7.40625s.08009998 4.70046.25 6.53125c.30500005 4.127 1.05925 8.16975 1.90625 12.21875 1.103 5.273 2.70775 10.39975 4.46875 15.46875 1.294 3.727 2.78325 7.3707 4.40625 10.96875 4.147661 9.62134 9.604137 19.54096 14.6875 27.4375 4.433 6.963 9.48925 13.48325 14.65625 19.90625 2.77 3.443 5.60775 6.83675 8.59375 10.09375 4.376 4.773 8.775 9.53375 13.5 13.96875 5.434 5.097 10.91825 10.13725 16.65625 14.90625 8.741 7.263 17.9285 13.921 27.4375 20.125 5.682 3.708 11.52075 7.14125 17.46875 10.40625 3.949 2.167 7.899 4.29625 12 6.15625 11.198 5.082 22.57 9.723 34.5 12.875 6.238 1.648 12.54025 2.97875 18.90625 3.96875 3.029.47 6.10725.68225 9.15625 1.03125 2.38276.0629 4.95427.1571 7.65625.1875s5.51841-.0251 8.34375-.21875c5.623-.459 11.17775-1.36275 16.59375-2.96875 7.701-2.283 14.8845-5.63825 21.1875-10.65625 2.69-2.142 4.825-4.857 6.875-7.625 5.796-7.825 9.28125-16.6065 10.78125-26.1875.57525-3.67425.8369-7.38505.8125-11.09375-.008-1.23623-.0537-2.48225-.125-3.71875-.61036-9.81024-3.29143-21.24291-6.84375-31.40625-1.28636-3.67761-3.54422-8.60436-5.125-12.3125-3.00487-5.97088-6.04978-12.12512-9.8125-18.59375-2.994-5.049-6.22125-9.95875-9.65625-14.71875-3.839-5.32-7.63575-10.66875-11.96875-15.59375-3.312-3.763-6.4595-7.6845-9.9375-11.3125-3.541-3.694-7.12425-7.33425-10.78125-10.90625-5.393-5.266-11.21975-10.05725-17.09375-14.78125-7.793-6.268-15.88325-12.084-24.28125-17.5-6.033-3.892-12.2325-7.5445-18.5625-10.9375-5.983-3.205-12.042-6.256-18.25-9-6.708-2.964-13.529-5.5839993-20.5-7.875-6.658-2.188-13.39925-4.02675-20.28125-5.34375-3.545-.679-7.11875-1.24875-10.71875-1.59375-2.058-.197-4.1165-.449-6.1875-.5-1.946225-.07445752-3.976717-.14145038-6.0625-.15625z" fill="url(#a)" transform="translate(0 -.000003)"/><g fill-rule="evenodd" transform="matrix(.99998154 0 0 .99998154 -289.55671 -40.576725)"><path d="m67.625 97.78125c-1.023981.084998-1.104996.497264-.875 1.28125.057999.198996.418995.362754.125.59375-.273995.215996-.607752.051496-.71875-.1875-.418992-.904983-1.206263-.628501-1.90625-.6875-1.271977-.106998-2.544774.172739-3.84375-.40625-.772986-.342994-1.923015-.411234-2.75.46875-.675988.717987-1.11275.571231-1.09375-.46875.011-.639988-.402257-.671496-.78125-.4375-.779986.480991-1.600768.852752-2.59375.96875.327994.487991 1.342741.248517.84375 1.1875-.622989 1.17498-.946022 1.35674-2.125.84375.101998-.42799.764751-.18776.84375-.71875.148997-1.007981-.263515-1.907505-1.0625-2.1875-.615989-.214996-1.484506.307764-1.8125 1.09375-.11472.276106-.043118.661985-.5.59375.002864.009761-.002737.021273 0 .03125-.011088-.001778-.020232.001679-.03125 0 .099462.35789-.600388.60283-.09375 1.125.195996.201-.390508.70525-.8125.78125-.445992.08-.921008 0-1.375 0-.001-.58199.299505-.53925.5625-.53125.468991.015.798999-.10126.75-.65625-.06768-.772921.403429-.804909.96875-.71875-.003014-.010845.004588-.020162 0-.03125-.209241-.691759-.735992-.871632-1.40625-1-.839985-.160997-1.589766.64674-2.46875.09375-.305994-.192996-.4425.313256-.4375.65625.015.87798-.277013.84999-1 .5-.674988-.326994-1.568757-.703727-1.96875.53125-.086998.27-.310509.65475-.8125.59375-.027-.58499-.24626-1.0435-.78125-1.3125-.071999.062999-.1905.113251-.1875.15625.042999.59299-.403754 1.00001-.59375 1.5-.342994.90698-1.123028.90999-2.625.125-.188997-.098-.292505-.49925-.5625-.28125-.176997.144-.246246.45425-.03125.65625.245995.23.503993.39301.125.75-.337994.31799-.563256.23-.90625 0-.794985-.53299-1.627766-.59899-2.46875 0 .325994.054.222251.40725.28125.65625.086998.37099.225492.83275-.1875 1.09375-.449992.28399-.702005-.16425-1-.40625-.350994-.28399-.543259-.771-1.03125-.875-.394993.30399.367474 1.90223-1.0625.90625-.117998-.082-.494.031-.5.25-.030999 1.04898-.74426.67625-1.28125.65625-1.418974-.053-2.422509.57602-2.9375 1.875.323994.24.806006-.15849 1.125.3125-.284995.38599-.866005.70825-1.125.53125-.652988-.44699-.877752.105-.96875.375-.247995.73399-.456764 1.10274-1.21875.46875-.312994-.26-.598502.2125-.6875.4375-.56299 1.42297-1.780774 1.93226-3.09375 2.28125-1.971964.52499-2.04299.58702-1.5 1.875-.569989.104-1.127007.21699-1.5-.375-.413221-.65629-.955564-.46909-1.34375.0625.552598 1.10521 1.116411 2.19062 1.6875 3.28125.358243-.26705.663929-.85487 1.125-.96875.254529.81707.19352 1.01237-.84375 1.53125 1.229202 2.32994 2.508363 4.60633 3.78125 6.8125 1.194787-1.43152 2.829509-2.83457 4.25-3.8125 1.445973-1.01898 1.893283-2.92076 3.65625-3.46875.168997-.053.275002-.38475.375-.59375.614989-1.28598 1.112784-2.6515 2.96875-2.4375.123998.014.271252-.14375.40625-.21875 1.945964-1.08898 3.461293-2.93801 5.78125-3.375 1.053981-.199 1.446268-1.31926 2.40625-1.65625 1.661969-.58399 3.272781-1.36551 4.96875-1.8125 1.960964-.51699 3.714042-2.29473 6-1.09375.095998.05.322502-.06625.4375-.15625.912983-.72099 1.928521-.92325 3.0625-.78125.379993.048.679006-.1145 1-.3125.728987-.44999 1.588015-1.02549 2.375-.5625.811985.47799 1.604265.344 2.40625.375 1.959964.077 3.909036-.124 5.875 0 1.473973.093 2.957527.01825 4.4375.03125.345994.003.677257-.04275 1.03125.15625 1.028981.57899 2.187769.45524 3.21875.15625 1.359975-.39499 2.846761-.11123 3.46875 1.09375.297995.57899.540008.57124 1 .28125.767986-.48299 1.593764-.40624 2.34375-.03125.443992.222.685762 1.02574 1.34375.34375 1.179978.86898 2.676523.97176 3.9375 1.59375 1.310976.64499 2.213532 2.08225 3.9375 1.90625.063999-.007.20775.04375.21875.09375.329994 1.44397 1.43727 1.35775 2.53125 1.34375.176997-.002.393253.09875.53125.21875 1.215978 1.05498 2.643526 1.74276 4.0625 2.46875 1.28198.65599 2.72901 1.21002 3.5 2.5.61099 1.02298 1.58077 1.59226 2.46875 2.15625.49099.31199.34552 1.2345 1.1875 1.0625.46799-.096.6715.14601.9375.625.30199.54399 1.16976 1.26525 1.59375 1.15625.97898-.252 1.0525.15376 1.1875.84375.068.34499.49775.37575.71875.59375-.147-.41499-.32674-.992.40625-.75.47199.155 1.15749.60401.5625 1.375-.35799.46299-.51324 1.10775-.03125 1.34375 1.66397.81698 2.48952 2.23128 3.3125 3.78125.41799.78799.55927 1.96001 1.90625 2.25.41299.089 1.4955.34401 1.6875 1 .41499 1.41697 1.44202 2.04226 2.625 2.65625.58899.30599 1.29648.79327.4375 1.65625-.224.225-.31374 1.00375.03125 1.09375 1.25198.32299 1.54801 1.48226 2.25 2.28125.271.30799.60074.50726.09375.90625-.207.163-.21725.44925-.03125.65625.058.066.23875.0755.34375.0625.39999-.048 1.1535.76326 1.0625 1.15625-.065.28099-.2425.271-.4375.125-.201-.149-.41425-.32049-.53125.0625-.071.233-.021.46275.25.59375.31999.155.60251.429.9375.5.95098.203.81724.70501.53125 1.375-.235.54999-.305 1.6405-.25 1.6875.92098.79299.41028 2.45351 1.78125 2.9375.084.03.12175.3015.09375.4375-.212 1.01998.21976 1.88677.71875 2.71875 1.25798-1.10298 1.29251-1.10172 1.6875.53125.036.15.12275.3215.21875.4375.18.217.4315.44076.1875.71875-.30599.34999-.4405-.18875-.6875-.21875-.205-.024-.3905-.04425-.5625.09375.48399 1.32798.37851 2.78702 1.0625 4.125.247-.44899 1.0265-.13826 1.1875-.78125.097-.38699.27426-.62025.65625-.53125.33799.078.30975.40251.34375.6875.136 1.12198-.79573 2.25502.03125 3.375.025.033-.19125.248-.28125.375-.65999.92598.31525 1.74927.15625 2.65625-.013.07.21225.14975.40625.09375.80099-.232.74825.32451.65625.8125-.041.217-.31624.495-.03125.625 1.37597.63099.98499 1.53327.5 2.53125-.089.184-.13174.557.28125.75.238-.227.504-.4405.75-.6875.222-.222.48175-.354.71875-.125.27.261-.1795.3855-.1875.5625-.026.56999-.8325.89476-.5625 1.46875.49399 1.05198.772 2.14327 1 3.28125.118.58999.35227 1.45926 1.28125 1.78125.133-.61499.23974-1.12451-.28125-1.5625-.156-.131-.2115-.3915-.0625-.5625.24-.27599.4185-.00775.5625.15625.42499.48399 1.32248.83252.4375 1.6875-.21.203-.16799.64925.25.78125 1.06998.33599.72849 1.22676.4375 1.71875-.62999 1.06198-.43873 1.81276.40625 2.59375.30399.28199.76475.52326.71875 1.03125-.153 1.70997 1.14851 2.70552 1.9375 3.9375.29199.45599.36002 1.68573 1.5.84375.202-.149.531.24475.625.46875.236.55599.79075.95751.96875 1.4375.32899.88898 1.14175 1.88501.96875 2.625-.45299 1.94896.39627 3.10227 1.65625 4.28125.54299.50699 1.19326.95626 1.53125 1.65625.132.27399.25476.52275.59375.46875.30199-.047.545-.27925.625-.53125.141-.44699-.31725-.35975-.53125-.46875-.31999-.164-.38325-.52325-.15625-.65625.42799-.252.18826-.944.65625-1 .34099-.04.36275.38051.46875.6875.176.50399.33776 1.16151.71875 1.4375.75699.54999.5365 1.25826.3125 1.78125-.18.42399-.04175.60276.03125.96875.235 1.17398 1.36026 1.42576 2.03125 2.09375.97498.97198 2.35427 1.52902 3.28125 2.625.48699.57599.62602 1.611 1.75 1.375.052-.011.149.23975.25.34375.88798.91498 1.18379 2.70524 3.09375 2.15625.065-.018.215.07225.25.15625.75799 1.79397 2.35728 2.61827 3.90625 3.53125 1.41697.83598 2.83578 1.70377 4.21875 2.59375.34899.225.53726.635 1.03125.75.82798.194 1.68951.39326 2.4375.78125 2.19196 1.13598 4.50404 1.96102 6.625 3.25.74799.45499 1.77651.56076 2.4375 1.09375.64899.52199.97976.59249 1.46875-.0625.35899-.48299.85626-.40525 1.28125-.15625.42499.25.49549.60476.1875 1.09375-.23.36599.01201.6205.5.6875.66599.092 1.22901.35649 2 .0625 1.14098-.43499 2.39502.48574 3.625-.03125.088-.036.339.0845.375.1875.49999 1.39497 1.74701.88749 2.375.5625.83698-.43299 1.27226.22775 1.90625.21875 1.24898-.019.49325.99926.65625 1.53125.097.31399-.08949.83925.4375.78125.48199-.052.99701-.28476 1.375-.59375.46399-.37999-.175-.71776-.25-1.09375 1.07898-.219 1.519-.02799 1.25.5-.2.38999-.46799.60676 0 .96875.42999.33199.86076.41675 1.34375.21875.176-.073.397-.303.5-.25 1.55697.79799 2.93903.21949 4.375-.5625.076.92098.05177 2.01148 1.34375.9375.076-.064.2485-.08125.3125-.03125 1.29598 1.01498 2.36977.27674 3.46875-.40625.38999-.242.67-.07574.5.28125-.40799.85298.16601.536.5.5.234-.026.29351-.48475.6875-.21875 1.40397.94998 2.71078-.40275 4.09375-.21875.073.009.225-.155.25-.25.28699-1.08898.87001-.77374 1.5-.34375.41999.28499.80525.13699 1.03125-.25.213-.36399 1.02099-.46551.625-1.0625-.67999-1.02598.03551-.9255.6875-.9375.38999-.007.75851-.24225 1.0625-.28125.70499-.091 1.918-1.06273 2.125.03125.38399 2.03096.95701 1.16999 1.75.375.052-.053.14875-.09575.21875-.09375 1.23798.029 1.96402-1.1245 3.125-1.3125.41199-.066.82-.22976 1-.84375.111-.38199.70751-.805 1.0625-1 1.05098-.57699 1.14574-.54652.84375-1.8125-.085-.35599.22525-.46825.40625-.65625.177-.187.42425-.273.65625-.125.166.107.131.27725 0 .40625-.34199.33599-.45874.80225.03125.90625.51199.108 1.22426.37499 1.65625-.25.143-.207.05551-.65975.4375-.59375.79399.137 1.04875-.26051 1.21875-.9375.066-.264.42601-.42525.75-.53125 1.64097-.53999 2.33726-1.91078 3.03125-3.34375.40299.159 1.17075.98098 1.21875.125.068-1.23098.97551-1.12751 1.5625-1.5625.59099-.43799 1.65575-.42202 1.46875-1.625-.039-.249.381-.81225.625-.65625.95598.61499 1.36251-.31301 1.9375-.625.68899-.37199.79176-1.36751 1.59375-1.6875-.46499-1.15598.47101-1.42326 1.125-2.03125 1.49397-1.39197 2.72451-3.02754 3.3125-5.0625.124-.42899.39576-1.06525.71875-1.15625.91998-.258 1.17076-1.00751 1.46875-1.6875.28099-.64099.931-1.06201 1.125-1.625.30099-.87198 1.88498-1.27677 1-2.59375-.117-.174.06825-.3685.28125-.4375.63499-.207 1.37574-.33627.71875-1.28125-.021-.029.06775-.1895.09375-.1875 1.38697.072.73827-1.92775 2.03125-1.96875.143-.005.23175-.254.09375-.375-.75599-.66499-.05476-1.71126-.71875-2.40625 1.31698-.159 2.123-1.00602 2.25-2.25.024-.232-.05499-.49175.25-.59375 1.34798-.44699.45651-1.90626 1.1875-2.65625.117-.12-.235-.32175-.5-.34375-.27399-.024-.65075.18949-.84375-.3125.64899-.187 1.28074-.40002.59375-1.25-.179-.223.31074-.63226-.03125-1.03125-.144-.168.192-.4335.375-.5625.269-.188.41175.122.59375.25.259.183.22425.3275.03125.5625-.51499.62799-.25324 1.17851.21875 1.6875.222.239.58625.1665.53125-.0625-.241-1.00198.542-1.79602.5-2.75-.051-1.15798-.037-2.31077 0-3.46875.036-1.09498-.30827-1.96851-1.65625-2.5625 1.36397-.033 1.3415-.74552 1.5625-1.5625.34999-1.29298.23798-3.01752-.75-3.9375-.67199-.62499-.82523-1.13051.21875-1.6875.143.47299.31826 1.38749.90625.6875.39899-.47499 1.10324-1.27377.53125-2.09375-.34699-.49699.08675-.70126.21875-1.03125-.094-.17-.24525-.34825-.28125-.53125-.50999-2.63995-1.40527-5.15955-2.28125-7.6875-1.20738-3.4518-3.22532-7.95032-4.78125-11.5625-.48999-.064-.519-.36501-.375-.75-.05965-.13635-.12764-.2699-.1875-.40625-.14577-.28985-.29139-.58426-.4375-.875-.1294-.25749-.24522-.52304-.375-.78125-1.31086-.22008-1.39793-.38536-.875-1.6875-.40021-.794-.81077-1.60471-1.21875-2.40625-.86568-.20477-1.62091-.647-2.34375-1.15625-.30299-.214-.48151-.73424-1.0625-.28125-.249.195-.30575-.2065-.21875-.4375.29999-.79099 1.18501-1.02699 1.875-.5.27891.21323.38178.66976.84375.59375-.22997-.44677-.45373-.8944-.6875-1.34375-.56896.06723-1.07344-1.15098-1.625-.125-.42399.78699-.83251.5125-1.4375.3125-1.06398-.35199-1.12127-1.72126-2.40625-2.03125.62099-.077.94126-.32975 1.28125-.46875.52999-.216 1.158-.25273 1.125.65625-.017.44099.11876.71925.59375.65625.51399-.067.43725-.50276.40625-.84375-.098-1.08398-1.52202-1.85049-2.5-1.3125-.43399.24-1.0295.18749-.8125-.1875.56499-.97298-.13426-1.07601-.65625-1.375-.37099-.213-.378-.52626-.375-.90625.004-.36099.22624-.8015-.21875-1.0625-.45599.094-.1685.80875-.4375.71875-1.22698-.41199-1.28625.29027-1.28125 1.15625.001.088-.1165.27225-.1875.28125-.93798.117-1.84602-.06125-2.75-.28125-.77999-.187-.05201-1.07426-.625-1.40625-.41599.30599-1.12575.74874-1.34375.34375-.39299-.72799-1.389-1.17653-1.25-2.5625.54399 1.01798 1.29676.925 1.96875 1.125 1.16298.34599.87377-1.19325 1.96875-1.03125-.58799-.41499-.83951-.32875-1.1875-.09375-.57999.38999-1.502.54924-1.75-.09375-.43099-1.11898-1.19277-1.118-2.09375-1.125-.41699-.004-1.09175.24449-1.21875-.1875-.33499-1.14598-.83776-.67374-1.46875-.34375-.46299.243-2.0815-.43876-1.9375-.71875.40399-.78699-.32375-1.32801-.21875-2-.60399.013-.16876.781-.71875.75-.45199-.62799.09325-1.15626.28125-1.65625-2.00596-1.09498-.63452 1.64925-1.8125 1.53125-.096-.009-.104.34625 0 .53125.019.034.0315.07275.0625.09375.38099.254.239.43201 0 .75-.29299.38899-.28224.89251.09375 1.3125.56899.63599.11949.82425-.4375.90625-.77799.114-1.40075-.01927-1.21875-1.03125.084-.46499-.18725-.79276-.40625-1.21875.228-.047.352-.116.5-.125.267-.017.63525.14574.78125-.15625.159-.32899-.23725-.45925-.40625-.65625-.77099-.89898-1.74577-.709-2.71875-.5-.195.042-.4805.41349-.5625.0625-.248-1.06298-.61876-.61649-1.21875-.3125-.45299.23-1.11701.33299-1.625-.125.77099-.68099-.28375-.63001-.46875-1 .31699-.29799.73326-.24826 1.03125-.53125.40199-.38199.68577-1.30774 1.59375-.71875.05.033.45425-.46501.65625-.75.06-.086-.00075-.3545-.09375-.4375-.37999-.34099-.49726.22025-.78125.28125-.32299.07-.62676.246-1.21875.5.40799-.89198.72151-1.56751 1.0625-2.3125-.84898-.147-1.54725-.32173-1.40625.90625.06.52199-.43951.686-.8125.875-.242.123-.6275-.09125-.4375-.28125.65699-.65599-.12398-1.74751.75-2.3125.081-.052.06975-.43025-.03125-.53125-.248-.246-.4095.0265-.5625.1875-.47999.50699-.96901 1.03176-1.375 1.46875-1.27998-.75499.08398-1.92901-.75-2.625.43699-.36199 1.1095.16599 1.3125-.5.179-.58899-.42476-.79301-.71875-1.125-.76699-.86498-1.54528-1.73324-2.90625-1.40625-.41299.099-.65376-.33725-.96875-.40625-.206-.044-.9315-.62473-.6875.40625.077.32599-.10926.423-.53125.25-.88798-.36399-1.20277-1.533-2.34375-1.625-.002.96298.03373 2.01223-1.28125.90625-.07-.06-.2415-.055-.3125 0-.95498.73899-1.36626.00574-1.78125-.65625-.33899-.54099-.87151-.2795-1.3125-.3125-.51899-.038-.662.29826-.625.78125.028.35999-.11126.608-.53125.625-.27499.011-.697.11949-.75-.1875-.157-.90798-.93126-1.05176-1.53125-1.46875-1.28698-.89598-2.79852-.73373-3.8125.53125.093.236.326.15775.5.21875.43399.15.765.46226.875.90625.093.37299-.27.573-.5.75-.54899.42099-.55401-.3275-.875-.4375-.138-.047-.28225-.2045-.40625-.1875-.93398.125-1.80627-.05351-2.65625-.4375-.38499-.174-2.28.41376-2.25.71875.076.77199-.56875 1.24701-.71875 2-.65499-1.05098-1.60952-1.69801-2.5625-2.375-.231.41099-.14926.85101-.53125 1.125-.226.163-.47.34499-.5 0-.115-1.33098-.64951-.22425-.9375-.15625-.49699.117-1.32275-.39424-1.46875.34375-.13.65199-1.17724.84326-.78125 1.53125.58699 1.02298-.09076.89-.71875 1-.54399.095-.86276-.35525-1.21875-.40625-.77199.50299.49574.90201-.03125 1.375-.62199.55799-1.08052 1.44824-2.1875 1.03125-.38399-.145-.53475.264-.71875.5-.233.30099.124.36425.25.53125.29399.38999.8265.61376.9375 1.21875-.59699.068-1.21426-.02325-1.65625.21875-.60799.33099-.98325.60623-1.15625-.34375-.061-.33799-.4695-.368-.6875-.25-.41599.225-.021.417.125.625.245.34999.13974.65575-.28125.71875-.70199.105-1.46851-.07573-1.8125.90625-.116.32899-1.34175-.19223-1.09375.71875.19.69699.78551-.58499 1.3125.125-.65299.93598-1.85402 1.04826-2.75 1.65625-.155.105-.624-.02624-.375.34375.53099.79099-.20376.9315-.59375 1.0625-.70499.238-.5545.46626-.3125 1.03125.40799.95098.92527 1.6025 2.03125 1.5625.008-.001.0315.04625.0625.15625-.192.29999-.955.03876-.875.71875.052.44399.84474.66051.34375 1.3125-1.36297-1.24298-1.67477.8275-2.71875.9375-.005-.63499.02499-1.21901-.5-1.875.94598.13 1.61375.05173 1.84375-.78125-1.28298-.77799-1.69577.6965-2.59375.9375-.47299.128.29625.55876.28125.96875-.017.48199-.16801.6365-.625.8125-.77199.29599-1.17274 1.04401-.71875 1.75.36999.57499.09649.70426-.1875 1.03125-.50899.58699-.93623 1.19676.21875 1.59375.44799.153.47049.50476.1875.84375-.28499.34199-.61601.62125-1.125.53125-1.04098-.181-1.21125.42027-1.15625 1.28125.032.50099.29599 1.14076-.125 1.46875-1.21498.94798-.13874 1.43376.40625 1.71875.48599.255.452.52026.5.90625.089.72199-.542 1.57826-.375 1.90625.47799.93298-.19351 1.18451-.5625 1.6875-.52699.71699-1.00651 1.47201-1.4375 2.25-.47099.85198-.80126 1.75627-1.15625 2.65625-.27299.69099-.32299.91826.25 1.28125.38599.246.41874.42326.09375.90625-.185.27699-.98149.80801-.4375 1.25.66099.53899 1.42998.83502.5 1.75-.066.065-.0255.3715.0625.4375.63799.47599.31924.86526.03125 1.40625-.238.44499-.38374 1.16176.03125 1.59375.39399.40899.75926-.2255 1.15625-.3125.249.27-.00399.82425.625.90625.61199.081.28125.459.03125.625-.78299.51899-.7605 1.07802-.5625 2 .249 1.15598 1.19726 1.53175 1.78125 1.46875.72299-.078 1.00475.14401 1.09375.625.141.76199-.71501.33275-1 .59375.172.59999.65701.34475 1 .46875.60499.218 1.39674.43102.71875 1.375-.34599.48499.08301.4325.375.5625.99798.44099 1.03148.80301.1875 1.375-.225.153-.267.27975-.125.46875.38799.51899.52501 1.23975 1.25 1.46875.34599.11.58325.30351.53125.6875-.096.70799.07176 1.2075.84375 1.4375.204.061.67474.32176.34375.71875-.70399.84898.14401 1.03401.5 1.5.114-.151.1805-.21825.1875-.28125.041-.38099.15701-.8375.625-.6875.56599.181.0285.49075-.0625.71875-.201.50599.21075.74.46875 1 .39799.40199.48975-.14525.71875-.28125.185-.109.2945-.471.5625-.25.115.095.109.34325.125.53125.058.67599-.02149 1.22101.6875 1.875.59199.54799 1.57575.78802 1.84375 1.625.39699 1.24498 1.60702 1.37876 2.5 1.84375.63299.32999 1.57276.13526 2.21875.65625.43399.34899.87351.32649 1.4375-.0625-.179 1.06598.21401 1.50501 1 2 1.43297.90298 2.95003 1.52426 4.5 2.15625 1.62297.66199 3.34478.18001 4.96875.625.149.041.35725-.13475.53125-.21875.79399-.38199 2.21501-.02724 2.75.71875.168-.49999.31976-1.19424.96875-.90625.91298.40499 1.69652 1.122 2.8125 1 .212-.024.1365.36675.1875.59375.092.40999-.33574 1.05075.40625 1.21875.60399.137 1.14776-.06776 1.46875-.59375.36499-.59699 1.65223-.89177.65625-1.96875-.032-.035.048-.2495.125-.3125.46999-.38799.732-.90951 1-1.4375.13-.256.29176-.53349.71875-.1875.34099.27699 2.19-.28601 2.375-.625.68799-1.26998 2.08752-1.77352 2.9375-2.9375.37799-.51699.40375-.83651.34375-1.3125-.026-.206-.505-.27251-.25-.5625.233-.265.46075-.04525.71875.09375.75899.40699 1.39425.08498 1.53125-.75.238-1.46297.77177-2.80203 1.71875-4.25.163-.249.1345-.36775-.0625-.59375-.91698-1.04998 1.04799-.67402.75-1.5-.091-.25.20425-.245.40625-.125.77899.45899.596-.319.5-.5-.57499-1.07498-.06073-1.55825 1.03125-1.78125-.40299-.60499-1.21225-.10526-1.40625-.65625-.152-.42899.053-.99926-.125-1.40625-.202-.46299-.82901.62474-1.125-.15625-.038-.1-.14275-.17125-.21875-.28125.203-.38199.90325-.05901.90625-.625.009-1.82597.21373-3.70528-1.03125-5.28125-.195-.247-.4335-.40726-.4375-.78125-.013-1.20798-.69675-2.33577-.46875-3.59375.086-.47599-.30801-.903-.75-.875-.29699.019-.65125.38376-.65625.84375-.006.63999.00675 1.29951-.03125 1.9375-.015.265.23774.72175-.28125.71875-.28499-.001-.69-.33201-.625-.625.177-.79099-.39126-1.01425-.90625-1.28125.269-.37899.5535-.28125.8125-.28125.45199-.001.574-.26601.5-.625-.114-.55699-.3595-.0535-.5625-.0625-.65999-.029-1.03525-.61876-1.28125-1.09375-.236-.45499.28226-.5225.65625-.5625.27399-.03.75675.11274.59375-.40625-.042-.133-.27976-.89399-.84375-.375-.124.115-.412.13525-.375.03125.32599-.92698-1.08649-1.59927-.3125-2.65625.34899-.47499-.22651-1.08351-.5625-1.5625-.30499-.43399-.611-.00925-.875-.03125-1.18298-.1-1.77602.84151-2.625 1.3125-.66699.36899-1.46351.55226-1.9375 1.28125-.189.29199-.62251.26375-1.0625.09375-1.01998-.39499-2.05427.0955-3.03125.3125-.77799.173-.5435 1.10426-.8125 1.65625-.29699.61199-.50574.96426.03125 1.53125.188.2.2065.70601-.0625 1-.90638.99218-.16882 1.06386.59375 1.125-.37699.81798-1.00124 1.51477-.53125 2.59375.209.47899-.05375 1.18851-.21875 1.8125-.39299 1.47997-1.42875 2.77278-1.21875 4.46875.086.69999-.36826 1.53551-.78125 2.1875-.57599.91098-2.41352 1.39199-3.5625.875-2.86695-1.28798-5.88704-2.41255-8-4.9375-.48099-.57299-1.16576-.93626-1.46875-1.65625-.43199-1.02598-1.73425-1.43527-1.90625-2.65625-.015-.105-.238-.236-.375-.25-.60799-.06-.672-.44351-.625-.9375.031-.31299.059-.63251-.125-.9375-.72199-1.19698-.96476-2.59152-1.46875-3.8125-.72399-1.75197-.63074-3.28378-.34375-4.96875.181-1.06998-.39599-2.13702 0-3.25.185-.52099.20624-1.33376-.09375-1.71875-.49599-.63499-.35999-1.03901.125-1.5-1.26098-.53299-1.26623-.56802-.40625-1.5.82598-.89398 2.17074-1.50678 1.84375-3.09375-.018-.087.07525-.2375.15625-.3125 1.52797-1.40397 1.30677-3.54678 2.21875-5.21875.42799-.78799.74901-1.87476 1.25-2.34375.91898-.85998 1.69477-1.96551 2.84375-2.5625.83198-.43199 1.28902-1.26276 2.125-1.71875.91298-.49799 1.94577.05074 2.84375-.65625.67499-.53199 1.64452-1.06723 2.5625-.15625.125.125.28325.02225.40625-.09375.51399-.48599 1.00701-.33974 1.5.03125.31499.237.78925.29975 1.03125.09375.66699-.56599 1.39401-.37225 2.125-.40625.51099-.024 1.0825.07749 1.1875-.6875.037-.266.50425-.34875.53125-.21875.227 1.06998.97802 1.22475 1.875 1.21875.039 0 .11.25925.125.40625.024.236-.0375.58325.1875.65625 1.07098.34799 1.73725.91152 1.53125 2.1875-.046.28899.35975.25375.59375.21875.29299-.045.4565-.321.3125-.5-.71999-.89998.05251-1.42451.4375-2.0625.124-.206-.11224-.669.34375-.625.40599.039.4575.38576.4375.71875-.021.36999.19775.59525.46875.78125.37899.262.88126.49524 1.15625.03125.27399-.46299-.16276-.65525-.59375-.78125-.27399-.08-.73275-.26226-.46875-.65625.202-.30399.61876-.32675.96875-.09375.63999.42599.68276 1.21526 1.09375 1.78125.57399-.201 1.05176.23375 1.59375.21875.247-.007.58875.15824.71875-.21875.07-.204.0045-.40325-.1875-.53125-.205-.136-.31526-.52574-.65625-.21875-.174.158-.38.41699-.5 0-.065-.227-.03999-.52975.25-.59375.53699-.117 1.13976-.29674 1.59375.15625.71299.70999 1.68801.94676 2.5 1.46875.31099.2.606.26925.875.03125.84898-.75299 1.35201.15076 1.875.46875.27299.167.40051.97924.8125.53125.27299-.29799 1.19973-.96901.21875-1.625-.35099-.235-.62051-.54675-1.0625-.71875-.66499-.259-.2465-.98301-.3125-1.5-.042-.32699.295-.4115.5-.3125.46699.226 1.00751.42851 1.3125.8125.55599.69999 1.25101 1.15051 2 1.5625.024-.33899.21999-.81325-.25-.90625-.86198-.17-1.1975-.84201-1.3125-1.5-.215-1.22698-2.063-1.22753-1.875-2.6875.022-.178-.46175-.3185-.21875-.5625.223-.225.49275-.12625.71875.09375.92198.89998 2.08402 1.42226 3.25 1.90625.201.083.28576.2925.59375.1875.96198-.32899 2.07299.42302 1.75 1.375-.29199.85998.14501.6355.5.6875.79899.117 1.73626-.048 2.40625.125.71342.18427 1.37952.29829 2.09375.3125.03828-.28702-.12408-.63044.15625-.875.77199.40899.79777.41574 1.84375.09375.48599-.15.74901.28825 1.125.40625.45199.142-.0795.39975-.1875.59375-.14.252-.08125.46825.09375.65625.128.138.38575.2195.21875.4375-.179.232-.44825.146-.65625 0-.205-.144-.4-.51774-.625-.09375-.166.31199-.07224.66075.34375.71875.46099.063.69825.29776.53125.71875-.179.45199-.64876.1995-.96875.1875-.44599-.017-.56001-.49075-.875-.71875-.39499-.28599-.72451-.94949-1.3125-.5625-.58399.38499.272.81276.125 1.34375-.269 0-.5415-.006-.8125 0-.47699.011-.9385-.08049-.9375.6875.001.72899.37726.73975.90625.71875.47799-.018.96751-.0065 1.4375.0625.75499.112 1.68324 1.38525 1.28125 1.53125-.95099.34333-.50348.81042-.25 1.28125.42499.009.91451.21274 1.1875-.28125.136-.245.03426-.7485.53125-.5625.38399.143.19275.54776.21875.84375.021.231.03125.45525.03125.65625.27499.143.41475-.03075.59375-.09375.53399-.187.9215.04926 1.1875.53125.32899.59599-.06226.699-.53125.875-.43799.163-.44924.55301-.15625.875.175.193.34901.61375.625.46875.41199-.216.7395-.58626.6875-1.15625-.028-.30899.02476-.6735.46875-.6875.30999-.009.692-.08299.875.25.202.36799-.07975.6525-.34375.8125-.97298.59099-.00175 1.25826-.09375 1.90625-.07.48899.64201.402 1 .375.75499-.056 1.00575.28576.96875.96875.61502-.06303 1.15357.21572 1.28125.75.072.30499-.47551.6325-.9375.6875-.37099.043-.46.28876-.375.59375.118.42799.56125.47725.78125.28125.78899-.70499.65175.25675.84375.46875.43699.47999.03699.54875-.375.59375-.28499.031-.232.19625-.125.40625.34799.68799 1.56576 1.37899 1.96875 1 .58899-.55299.45549-1.25326.0625-1.90625-.054-.089-.07525-.22275-.15625-.46875.73799 0 1.40051.013 2.0625 0 .30699-.006.747.04399.75-.375.011-1.23098 1.09551-.7925 1.5625-.8125.54199-.025 1.37575.21052 1.59375 1.0625-.45099.175-.85151.14925-1.1875-.09375-.184-.133-.30625-.47849-.53125-.1875-.226.29299.14025.37325.28125.53125.55899.62899 1.47601.35651 2.125.8125.35799.252.64199.625.25.75-.72114.23057-1.0536.92724-1.71875 1.15625-.38299 1.04698.81947 2.32377-.5625 3.21875.231.103.3295.1765.4375.1875.38699.041.68325.29001.53125.625-.19.41799-.4625-.12275-.6875-.09375-.82898.112-1.38477-.6945-2.21875-.5625-.34899.056-.7875-.04599-.9375.375-.129.36199.2275.54525.4375.78125.59899.67399 1.57501.95627 1.875 1.90625.16.50599.39151.91001.8125 1.25.52699.42499.241 1.03251.25 1.5625.004.22-.2225.32775-.4375.34375-.232.017-.44525-.1195-.40625-.3125.216-1.08098-.48701-1.10975-1.25-1.21875-.37799-.054-.563-.50101-.75-.875-.69099-1.38597-1.59877-2.60352-2.84375-3.5625-.25-.193-.3875-.226-.5625 0-.145.188-.57524.30926-.28125.65625.35599.41699.68973.72275-.15625.96875-.206.06.01.45775.125.46875 1.21198.104 1.28351 1.10652 1.6875 1.9375-.96198.174-1.13526-.71051-1.65625-1.0625-.30599-.208-.59751-.514-.9375-.25-.34199.265-.02775.60351.03125.9375.164.92998 1.4045 1.28677 1.1875 2.34375-.112.54899.11976.83876.46875 1.21875.69999.76399 1.48777 1.35951 2.46875 1.6875.0041.11002.02475.24109 0 .34375-.46699 1.85797.04979 2.39674 1.96875 2.09375.40199-.063.87451-.21924 1.3125.09375-.38999 1.16598-1.56351.58351-2.3125.9375.28499.62799.7485 1.06376.6875 1.71875-.093 1.01098.69952 2.17376 1.6875 2.46875.244.073.4655.16376.4375.46875-.044.47899-.25326.33725-.53125.15625-.231-.149-.42625.03-.40625.25.075.87098-.31948 1.90776.8125 2.46875.40399-.85498.40025-.86552.28125-1.8125-.069-.54699.31576-.8095.71875-.9375.46299-.148.662.18401.625.625-.028.33599.1505.59101.3125.875.44499.77299.12624 1.53975-.59375 1.71875-.264.064-.295.30975-.125.46875.66999.62399-.28823 1.74701.71875 2.25-.036.065-.093.1215-.125.1875-.45251.93374-.5754 1.88942-.1875 2.875.51299.24 1.18324.68026.78125 1.15625-.45499.53899-1.14002 1.55348-2.125.5625-.58199-.58499-.9535.2735-.9375.3125.217.56499.21701 1.20651.5 1.6875.208.35499.87451.27274 1.3125-.03125.30199-.209.64925-.42574.90625.03125.35648.63495-.10903 1.40788-.90625 1.5625-.019-.74699-.58076-.49-.96875-.5-.42299-.01-.44625.31926-.53125.65625-.214.84898-.405 1.69027-.625 2.53125-.30499 1.17298-.46524 1.26702-.03125 2.25.037.084-.0025.2835-.0625.3125-1.21598.60099-.95101 1.96827-1.5 2.90625-.158.27-.089.43375.125.59375.153.113.32575.3335.46875.3125.30199-.045.266-.36975.25-.59375-.028-.39699.17925-.63551.40625-.9375.66699-.88898 1.53073-1.78227.59375-3.03125-.177-.236-.1335-.818.0625-.875.90398-.264 1.09252-1.549 2.1875-1.5.185.56999.10174 1.01976-.40625 1.46875-.62199.54899-.9945 1.31752-.9375 2.1875.068 1.04698-.09502 1.93201-1 2.625-.53699.41099-.8405 1.09576-.9375 1.71875-.223 1.42297-1.31726 2.38403-1.65625 4-.55599-1.44597-.5488-1.42497-3.09375.125-.075-.46799-.16724-.92901.21875-1.25 1.0958-.91085 1.28346-1.85733.21875-2.90625-.142.034-.39525.03575-.40625.09375-.144.81998-.15477 1.56701-.96875 2.25-.35899.30099-.55726 1.21551-1.15625 1.6875-.138.11-.56299.42726-.125.78125.27399.221.16099.434-.125.5-.88298.206-.5925.85126-.5625 1.40625.14431-.03084.32249-.03653.40625-.125.39899-.42199.87926-.46324 1.28125-.15625.51499.39199-.03575.65776-.21875.96875-.195.33099-.06824.5925.21875.8125.2.152.35351.56224.6875.28125.89925-.76046 1.06961.08148 1.40625.59375.02037-.00195.04233.00305.0625 0 .00179.01031-.00167.02093 0 .03125h1.75c-.144 1.20398-1.19351 1.75852-1.5625 3.0625-.37667-1.22789-.04211-2.16298-.1875-3.0625h-.03125c-.00793-.01145-.02349-.01944-.03125-.03125-.32718.03133-.69764-.05218-.96875.25-.60799.67699-.7355 1.49977-.5625 2.34375.051.251.1125.432-.0625.625-.196.217-.466.207-.625 0-.49099-.64299-.83875-.10024-.96875.21875-.42799 1.04898-1.43602 1.33301-2.25 1.875-.263.175-.67225.30476-.65625.59375.026.47699.49476.42625.84375.40625.42899-.024.7255.19551.8125.5625.087.36599-.31225.50775-.53125.71875-.47699.45999-.73701-.60349-1.125-.3125-.29899.50899 1.02273.96401-.03125 1.25-1.36197.36899-.14725.87325-.03125.90625 1.44797.41299.78349.96276.1875 1.59375-.245.259-.88974.43901-.59375.875.269.39699.68926.00525 1.03125-.21875.33599-.22 1.293.33475 1.125.59375-.41099.63299-1.08901 1.00401-1.75 1.375-.51999.28999-.61675-.1165-.84375-.3125-.31399-.271-.59926-.57899-1.03125-.25.52199.32999-.44824 1.0665.34375 1.3125.194.06.481.09475.375.34375-.083.194-.403.4785-.5.4375-.73599-.31299-1.57001-.56376-2.125-1.09375-.41099-.39299.51025-.77476.53125-1.34375.008-.209.62951-.36875.9375-.59375.40999-.29799.61774-.68426.09375-1.03125-.58099-.38399-1.88276.52001-2.21875 1.125-.41299.74399.13649 1.44926-.1875 2.15625-.49799 1.08498-1.54252 1.43101-2.4375 2-.26.166-.75225.34226-.53125.78125.145.28999.57401.189.875.125.217-.046.407-.28975.625-.34375.69899-.174 1.25427-.97349 2.15625-.4375-.32599.35799-.76075.64001-.84375 1-.35199 1.53697-2.35276 1.18753-2.84375 2.5625-.047.132-.69801.13774-1-.15625-.36699-.35999-.53975-.21424-.59375.21875-.025.202-.02725.47075-.28125.46875-1.49797-.013-2.29753 1.555-3.8125 1.625-.42099.021-.97101.55949-1.375.1875-.51599-.47599-.17825-1.22976-.15625-1.84375.016-.40099.4485-.49974.6875-.21875.154.182.91024.14851.40625.6875-.195.21-.30424.371-.03125.625.32799-.24.57476-.6395 1.09375-.5625.75199.111.74325-.40026.65625-.90625-.097-.56499-.66575-1.01951-.46875-1.6875.048-.167-.2175-.3105-.4375-.3125-.248-.003-.47425.03976-.53125.34375-.057.30599-.03301.73325-.5.65625-.87698-.145-1.42601.49875-2.125.71875-1.78297.55699-3.07402 1.60628-4 3.15625-.166.27699-.76249.45276-.4375.84375.246.29699.80401.217 1.125 0 .30399-.206.60551-.34475.9375-.46875.36199-.136.72351-.76599 1.0625-.125.255.48299-.27301.86225-.625 1.03125-1.19598.57199-2.36453 1.23275-3.8125 1.09375-1.13098-.108-2.27552.77624-3.4375.03125-.107-.069-.31675-.00675-.46875.03125-.254.064-3.0105.011-3.1875-.125-.54499-.41999-.82525-.53523-1.03125.34375-.203.86398-.88777 1.49349-1.84375 1.0625-1.16898-.52599-2.29951-1.15002-3.0625-2.25-.32899.092-.18125.39875-.28125.59375-.41999.83398-.79901.85174-1.375.09375-.53899-.70899-2.52901-.67899-2.875.125-.37899.87998-.72601.48874-1.125.09375-.34799-.34499-.72451-.79274-1.1875-.34375-.51999.50299-.79751.26024-1.1875-.09375-.2-.183-.37101-.67199-.75-.375-.259.203-.10075.59226-.09375.90625.005.271.43225.37976.28125.71875-1.64797.218-2.23001-.17553-2.625-1.8125-.081-.33499-.31925-.6045-.53125-.4375-.67299.52899-1.9395.07927-2.0625 1.40625-.89498-.83298-.90402-.84324-1.875-.15625-.217.154-.60675.11275-.59375.09375.43399-.59299-.45924-1.14951-.15625-1.5625.36199-.49199.36099-.76625-.125-1.03125-.58999-.32299-1.30051-.39524-1.8125-.03125-.41799.29899.1045.68101.3125 1 .137.211.15749.43851-.1875.8125-.31999-1.26798-1.72376-.75151-2.34375-1.5625-.70699-.92598-1.88301-1.41251-2.5-2.1875-.77099-.96998-1.72352-1.38251-2.5625-2.0625-1.15898-.93798-2.20952-.94975-3.4375-.71875-.37799.071-.31025-.12275-.40625-.34375-.147-.33599-2.04975-1.01325-2.21875-.78125-.67899.93698-1.13001.39099-1.875 0-.98698-.51699-.86774-.91776-.34375-1.59375.30799-.39699.31099-.76825-.25-.90625-1.19798-.29599-1.86024-.90402-1.53125-2.25.087-.35799-.10426-.642-.53125-.625-.33699.014-.47275.22951-.46875.5625.004.258.15074.53076-.28125.84375-.258-.76699-1.06776-.16901-1.46875-.625-.95098-1.07998-2.40227-1.55977-3.28125-2.71875-.49799-.65799-1.10027-1.1265-2.03125-.9375.33999-.87198-.14451-2.086-.6875-1.875-1.46397.57199-1.53251-.46527-1.8125-1.40625-.232-.78299-.75902-1.426-1.625-1.5-.50999-.044-.75201-.42375-1.125-.59375-.88198-.40399-.25151-1.56301-.9375-1.875-1.16598-.52899-.63453-2.646-2.4375-2.5-.025.002-.057-.3035-.125-.4375-.53799-1.04298-.77101-2.19677-1.375-3.21875-.177-.30099-.08576-.5685-.59375-.3125-.63099.31899-.79726-.46401-1.15625-.75-.30599-.242-.27474-.53026.03125-.90625.43899-.53799-.01026-1.34275-.65625-1.34375-.61799-.002-.60649-.00251-.3125-.5625.089-.169.27775-.406.21875-.5-.70299-1.13798-.57002-2.61827-1.5-3.65625-.157-.176-.34075-.31401-.21875-.625.38099-.97198-.89675-1.3615-.96875-1.3125-.86338.59228-.92768-.15295-1.15625-.59375-.01004.00073-.02126-.00077-.03125 0 .00162-.01172-.0014-.01977 0-.03125-.6609-.08442-.24421.73964-.75.84375-.37199-.141-.05751-.92675-.6875-.84375-.73699.098-.5615-.22451-.6875-.8125-.181-.84998.23151-.74375.5625-.59375.64477.29217 1.70711.21683 1.5625 1.40625.01202.00153.0185-.00216.03125 0 .00426.00776-.00413.02328 0 .03125.60331-.04356 1.30453-.03705.78125-1-.111-.202-.0895-.37725.0625-.53125 1.23998-1.26298.28026-2.78003.65625-4.25-.98998.41899-1.74326.86174-2.53125.09375-.233-.226-.89425.86848-.90625-.3125-.008-.82098.50926-.716 1.03125-.75.31999-.022.61025-.3705.40625-.5625-.59899-.56099.056-1.02826 0-1.53125-.103-.94298.32173-1.97026-.65625-2.78125-.78899-.65599-.97974-1.55702-.34375-2.5.153-.225.1475-.47725-.0625-.65625-.30699-.262-.67726-.177-1.03125-.125-.187.028-.1765.16275-.1875.34375-.068 1.16198-.22049 2.34077.1875 3.46875.237.65599-.66925.85526-.53125 1.40625.058.233.28024.43525-.09375.53125-.32099.082-.586-.06826-.625-.40625-.037-.31499-.016-.65076 0-.96875.09-1.84697.04023-3.65803-1.09375-5.25-.021-.029-.06975-.0355-.09375-.0625-.36599-.41699.44649-.76751.0625-1.1875.111-.018.23975-.05125.34375-.03125.226.045.38725.51999.65625.125.226-.33099-.16225-.688-.15625-.875.031-.87198-.01199-2.18701.5-2.5 1.09198-.66599.66499-1.28276.375-1.96875-.127-.29999.01074-.90725-.65625-.78125-.53999.102-.37025.54801-.40625.875-.035.31699-.15201.55025-.5.53125-.31899-.016-.806.23449-.875-.3125-.074-.59199-.31376-.4885-.71875-.3125-.32599.141-.54075-.2155-.59375-.4375-.11-.46199.3185-.32775.5625-.34375.61699-.04 1.33825.10723 1.15625-.96875-.065-.39299.33126-.57575.65625-.46875.40399.134.07975.35325-.03125.53125-.141.222-.05125.38225.21875.40625.41999.039.74275-.09101.96875-.5.178-.32499.03499-.42575-.25-.46875-1.07598-.16-1.13675-.92527-1.09375-1.78125.025-.51899.063-1.05051 0-1.5625-.101-.80299-.59176-.97474-1.21875-.46875-.179.145-.5685.385-.5625.25.036-.84698-.93624-1.52477-.53125-2.34375.49999-1.01298-.01001-1.35076-.75-1.84375-.65299-.43599-1.75725-.44502-1.78125-1.625-.005-.22-.246-.11125-.375-.03125-.149.094-.28875.36475-.46875.09375-.141-.212-.11225-.50625.09375-.65625.88898-.64999-.49749-1.60501.3125-2.25-.31399-.157-.36301-.7605-.875-.5625-.188.073-.33725.44149-.53125.0625-.114-.223-.00875-.45025.15625-.65625.51399-.64099.34575-1.28151.09375-1.9375-.198.132-.2745.26125-.3125.40625-.2.74799-.93651.64951-1.4375.9375-.162.093-.3995-.13875-.4375-.34375-.135-.73899.649-.39876.875-.71875-.22-.84098-1.11324-1.42027-.78125-2.40625-.65899.28099-1.26576.1735-1.84375.0625-.146-.65999 1.20474-.68127.46875-1.53125-.35899-.41299-.38376-1.08526-.71875-1.53125-.41399-.55099-.79751.12375-1.1875.21875-.36799-.40099.03474-.90201-.28125-1.25-.81299-.89298-1.32451-2.01052-2.0625-2.9375-.57699-.72399-1.14127-1.52551-2.03125-1.9375-1.48697-.68899-2.33177-2.15127-3.34375-3.28125-.78699-.87898-1.47777-1.84576-2.46875-2.46875-.94798-.59499-1.69825-1.16727-1.53125-2.40625.024-.182-.04975-.5675-.21875-.4375-.73099.56199-.608-.14351-.875-.4375-.55099-.60699-1.25202-.99775-2.125-1.09375-.53699-.058-.75926.74749-1.28125.4375-.43099-.256.24974-.68776-.15625-1.21875-.50299-.65799-.92676-1.36126-1.46875-2.03125-1.13698-1.40397-2.08728-2.96677-3.78125-3.84375-.33999.203.01749.99625-.6875.90625-.62299-.079-.4045-.61376-.4375-.96875-.042-.44599-.31326-.46675-.65625-.46875-.27599-.002-.6445.03849-.6875-.3125-.112-.89498-.87001-1.07375-1.5-1.34375-1.07298-.45899-1.83027-1.5325-3.03125-1.6875-2.013963-.26-3.731525-.98053-5.0625-2.5625-.382993-.45499-.90051-.65225-1.4375-.90625-1.205978-.57099-2.537022-.77526-3.75-1.28125-1.487973-.61999-2.766533-1.631-4.5625-1.625-.621989.002-1.543013-.18901-2.25-.5-.906983-.39999-1.744517-1.09198-2.6875 0-.235996.27299-.762508.2045-1.1875.0625-.075999-.36799.663487-.765257-.0625-1.15625-.434992-.234996-1.077502-.376995-1.1875-.125-.55999 1.28798-1.259267.70075-2.15625.46875-.745986-.192996-1.478754-.107518-1.71875-1.0625-.055999-.223996-.336256-.482499-.65625-.4375-1.64497.230996-3.151531-.669247-4.8125-.53125zm2.46875.96875c.093592.005375.200001.0385.28125.0625.52999.155997 1.027262.414505 1.65625.6875-.52399.240996-.624508 1.00649-1.0625.6875-.470991-.343994-1.363251-.13577-1.40625-.96875-.01875-.376493.250474-.484875.53125-.46875zm-10.15625.25c.333994-.0115.643007.210009 1 .6875.105998.141997.538259.057751 1.03125.09375-.466991.53199-.608513 1.12849-1.3125.5625-.370993-.29899-.885508-.16449-1.3125.1875-.353993.29099-.802758.28675-1.21875.09375-.084998-.04-.10475-.2985-.09375-.4375.047999-.597989.665753-.297004.84375-.5.369993-.422492.728506-.676 1.0625-.6875zm-21.65625 4.0625c.151497-.022.296003-.001.4375 0 .370993.001.861253-.13524 1.03125.34375.097998.27499.11449.70975-.4375.46875-.175997-.077-.349253-.199-.53125-.25-.285995-.082-.646505.09599-.9375-.25.117498-.213.286003-.2905.4375-.3125zm-1.46875.40625c-.281995 1.48797-1.047523 1.79949-2.3125 1.4375.504991-1.01098 1.403517-1.08151 2.3125-1.4375zm-7.09375 3.34375c.042999.48599-.336003.59175-.5.84375-.204996.31599-1.360986.06877-.625.96875-.782986.09-.703518 1.3515-1.6875 1.1875-.778986-.129-1.48226.00251-2.03125.6875-.369993.45999-.927509.302-1.4375.25.215856-.72709.8138-1.11677 1.4375-1.4375 1.164979-.59999 2.311268-1.20677 3.28125-2.09375.496991-.45499 1.058509-.19425 1.5625-.40625zm163.6875 1.59375c.39799-.014.85325.35276.78125.71875-.09.45399-.56851.71525-1.0625.65625-.38199.003-.7415-.03476-.6875-.46875.064-.52199.47076-.88825.96875-.90625zm15.9375.90625c.55899.62299 1.28626.93101 1.90625 1.375.233.167.4155.37851.3125.6875-.109.33099-.40451.3345-.6875.3125-.93898-.073-1.81476.01502-2.34375 1.125-.85898-1.63397.5795-2.31602.8125-3.5zm-185.90625 1.46875c-.006771.24042.012713.63214-.0625.65625-.852984.27299-.884763 1.29826-1.59375 1.65625-.348994.175-.778257.15575-1.15625-.03125.423992-1.40597 1.291528-2.23825 2.8125-2.28125zm192.84375.03125c.10512-.02294.25675-.01975.40625 0 .58599.077 1.18676.24426 1.46875.65625-.256.79499.11026.78025.40625.78125.39799.002.702.06851.75.5625.055.56199-.23001.89551-.625 1.1875-.38799.28699-.66351.011-.9375-.25-.65199-.61899-1.28226-1.23577-1.65625-2.09375-.228-.52274-.12787-.77494.1875-.84375zm-26.5625.96875c.41999.257.728.48851.75.9375.012.219-.15375.46725-.34375.40625-.72599-.233-1.10951.73275-1.8125.46875-.05-.019-.11475-.19675-.09375-.21875.49399-.53999.99801-1.06276 1.5-1.59375zm23.34375 2.8125c.114.00325.2165.06825.3125.15625.45199.41099.81751.942 1.5625 1-.56499.53899-1.88324-.17272-1.28125 1.40625-.61399-.27299-.96126-.699-1.53125-.625-.36199.047-.627-.23301-.5-.625.167-.51099.416-.116.625 0 .27299.153.545.1875.75-.0625.181-.221.08725-.47225-.09375-.65625-.13-.131-.4105-.2075-.1875-.4375.095-.098.22975-.1595.34375-.15625zm6.96875.125c.10325.0225.24075.1325.34375.25.252.219.7475-.79798.8125.125.035.49499-.44951.47875-.8125.46875-.36399-.009-.69375-.15151-.59375-.5625.057-.2345.14675-.30375.25-.28125zm-2.65625 1.34375c.51787.00304.82626.51163 1.28125.6875.30699.118.226.70351 0 1.0625-.051.08-.19.1045-.375.1875-.42199-.57699-.84201-1.14076-1.25-1.71875-.018-.025.073-.1735.125-.1875.08312-.02287.14477-.03168.21875-.03125zm-1.5625.96875c.14375-.02462.287.006.4375 0 .46399.031 1.714 1.49326 1.625 1.90625-.024.11-.07575.244-.21875.125-.36299-.29999-1.02875.14524-1.21875-.46875-.098-.31599-.11526-.61625-.53125-.65625-.33399-.031-.48225-.27176-.40625-.59375.0515-.2195.16875-.28788.3125-.3125zm11.875.6875c.4103-.03531.69326.33463 1.0625.5-.44899.269-.86576.41174-1.21875-.03125-.074-.093-.07825-.4205-.03125-.4375.06437-.02375.12889-.02621.1875-.03125zm-7.96875.28125c.40299-.039.48925.22376.53125.59375.062.53599-.30326.71425-.65625.78125-.43999.084-.2595-.3475-.3125-.5625.007-.36099-.06649-.7635.4375-.8125zm-4 2.5c.27609-.01186.39025.426.625.5625-.44199.201-.88201.49349-1.25.0625-.148-.173.15525-.3095.28125-.4375.13775-.13925.25172-.18355.34375-.1875zm-33.9375 1.34375c.12684-.02639.2605-.00775.40625 0 .35799.019.609.07726.625.53125-.129.60999-.84951.36101-1.1875.75-.107.124-.675-.3515-.625-.5625.09675-.40499.40073-.63958.78125-.71875zm56.53125 1.875c.12487-.01462.29175.04525.40625.03125.29399.068.71675-.04849.71875.4375.002.31599-.15801.552-.5.5-.36899-.056-.72125-.33426-.78125-.65625-.041-.2215.03138-.29788.15625-.3125zm-58.15625.5c.46399.58799 1.21075.84152 1.21875 1.6875.003.45899-.12526.77175-.65625.71875-.70599-.071-1.5205-.35676-1.6875-.96875-.162-.59199.69801-.88751 1.125-1.4375zm60.625.46875c.08567-.01841.19275-.018.3125 0 .43799-.033.7815.07751.6875.5625-.082.43799-.38176.79375-.84375.84375-.53099.057-.473-.39301-.5-.75-.03-.38849.08674-.60103.34375-.65625zm-62.53125 2.46875c.36199.75399.51724 1.59001-.21875 2-.72999.40799-1.08225.86877-1.03125 1.84375-.57099-.41499-.555-.86451-.75-1.1875-.28499-.47199-.44923-1.09701.46875-1.375.59799-.182 1.39025-.38127 1.53125-1.28125zm65.4375 5.6875c.73485-.01814 1.338.17502 1.59375 1.1875.108.42799.8165.21001 1.0625.625.099.166.29475.321.09375.5-.093.083-.3275.1185-.4375.0625-1.11298-.56599-2.45876-.83353-3.09375-2.3125.268-.02575.5363-.05645.78125-.0625zm-67.6875 1.21875c.38099.021.99926.01226 1.65625.53125-.79099.097-1.22576.85399-1.84375.5-.259-.149-.58549-1.07425.1875-1.03125zm84.40625 8.34375c.84927 1.90607 1.65923 3.83393 2.40625 5.78125-.74489-1.94793-1.55911-3.87457-2.40625-5.78125zm-12.78125 7.75c.10712.0055.198.06.3125.125.96398.54099.83548 1.53101-.3125 2.25-.0794-.54513.24177-1.1801-.375-1.625-.196-.142-.17275-.434.03125-.625.103-.096.23663-.1305.34375-.125zm-41.34375 1.40625c.19284-.04401.42075.06476.46875.34375.07.40299.28624 1.00425-.34375 1.03125-.59327.0275-.99475.4257-1.5.5625-.212-1.01398.68376-1.32276 1.21875-1.84375.0465-.04525.09197-.07908.15625-.09375zm-68.46875.03125c.40099.33099.9795.47426.8125 1.15625-.014.06-.23425.157-.28125.125-.42199-.29599-.89324-.58026-.53125-1.28125zm114.21875 0c.19734.02231.31725.196.46875.34375.266.258.60524.50701.28125.875-.32899.37199-.63226.12374-.90625-.15625-.09035-.09129-.26348-.11633-.40625-.15625-.00056.01063.00091.02075 0 .03125-.01224.00085-.01959-.00118-.03125 0 .03024.26201.0341.52824.09375.78125.043.184.48124.2985.15625.5625-.077.063-.23575.0805-.34375.0625-.28299-.046-.374-.27225-.375-.53125 0-.37523-.09505-.81792.46875-.875-.00119-.01034.00125-.02093 0-.03125.00865.00276.02233-.00249.03125 0 .01737-.32944-.11446-.71128.34375-.875.082-.02925.15297-.03869.21875-.03125zm-76.25.96875c.10937.00337.218.01125.3125 0 .37799.03.93325-.15149.90625.4375-.026.60499-.52201.99875-1.125.96875-.42699-.021-.6415-.54401-.6875-.875-.0735-.53324.26563-.54137.59375-.53125zm82.46875.4375c.13912.013.24075.12776.21875.40625-.016.209-.08925.55176-.15625.84375-.34499-.246-.81799-.44176-.5-.96875.1255-.2075.29838-.29425.4375-.28125zm5.1875 1c.09125.00237.16975.0255.21875.0625.47499.36099.2485.79401.0625 1.25-.152-.45499-.71875-.73326-.46875-1.28125.012-.0255.09625-.03362.1875-.03125zm-86.4375.46875c.06789-.00606.142-.01675.21875 0 .28599.062.3205.34175.3125.59375-.017.54899-.01499 1.00926.375 1.53125.39599.53099-.12626.744-.65625.75-.85398.119-.66102-1.22625-1.5-1.15625-.026-.38899.30425-.53075.53125-.71875.212-.176.2675-.35675.3125-.59375.048-.25725.20258-.38806.40625-.40625zm6.78125.4375c.77299.194.56876 1.05301.96875 1.5.028.031-.11125.28325-.15625.28125-.137-.007-.28825-.07725-.40625-.15625-.61199-.40899-.36825-1.03076-.40625-1.59375zm35.78125 4.4375c-.17.76199 1.17223 1.47876.03125 2.21875-.222.144-.67425.63674-.65625.34375.031-.50899-1.00024-.74626-.28125-1.28125.43099-.32199.60726-.80726.90625-1.28125zm41.65625 1c.27.257 1.01874.29626.46875.90625-.116.129-.0585.499-.3125.375-.58399-.28499-.22225-.82026-.15625-1.28125zm-3.75.5625c.36299.81398.23525 1.62651.03125 2.4375-.45499-.79999-.33724-1.61952-.03125-2.4375zm-2.34375.875c.35699 1.21098.8105 2.38652.6875 3.6875-.041.43299-.16649.8765.5625 1.0625.53099.134-.27824.86476.21875 1.21875-.199.173-.31901.57175-.625.46875-.32099-.108-.71325-.40101-.65625-.75.28099-1.75297-.654-3.36578-.5-5.09375.018-.211-.10449-.47775.3125-.59375zm1.75 6.21875c1.42497.48999 1.64499 1.26803 1 2.875-.26-1.00898-.11202-1.95802-1-2.875zm5.65625 2.34375c.30599-.01.3885.207.4375.375-.049.35299-.234.47775-.5.46875-.27899-.009-.42325-.1665-.40625-.4375.017-.28099.20975-.39825.46875-.40625zm-121.65625 2.8125c.11972-.0518.3265.03125.4375.125.44999.37499.18425.80101.03125 1.25-.226-.43599-.7295-.76026-.5625-1.28125.014-.044.05384-.07648.09375-.09375zm118.8125 1.4375c.46199.43999.725 1.01101.875 1.625.11.44399-.07401.72225-.625.78125-.96098.104-.74126-.85276-1.15625-1.21875.41999-.28599.22226-.9945.90625-1.1875zm-7.28125.5v1.375c-.54299-.12-.874-.36176-.875-.84375-.00292-.61331.5588-.40617.875-.53125zm1.96875 7.21875c.28399.03.39225.20675.40625.46875.001.30899-.1805.40125-.4375.40625-.271.007-.46475-.11826-.46875-.40625-.005-.33499.15601-.50275.5-.46875zm-1.5 1c.122-.017.36025.0845.40625.1875.21.46699-.16151.731-.4375 1-.10054.09866-.27006.12553-.40625.1875-.00584-.1478-.0196-.2919 0-.4375.048-.36199-.15349-.8545.4375-.9375zm-.4375 1.40625c.94248.79427-.26612 1.58255-.03125 2.375-.48023-.09769-.87075.13988-1.34375.40625-.34099-1.40397.86101-1.92227 1.375-2.78125zm2.15625 1.125c.144.67699.83899.72626.375 1.28125-.134.161-.33825.504-.53125.25-.27599-.36199-.08175-.77726.15625-1.53125zm-1.34375.84375c.04944-.01049.09488-.00925.15625 0-.173.95698-.35225 1.92402-.53125 2.875-.02.111-.065.27525-.125.28125-1.54397.15-1.19501 1.66502-1.75 2.5-.37999.57299-.79251 1.02151-1.3125 1.4375-.264-.39499-.141-.69725.125-.90625.87998-.69299.98176-1.83352 1.59375-2.6875.45499-.63599-.413-1.18001-.375-1.75.052-.76599 1.311.08298 1.375-.875.01-.159.02625-.31075.03125-.46875.36324.10199.4759-.33482.8125-.40625zm-7.09375 2.53125c.50399.133 1.331.324 1.25.5-.33099.72299-.49101 1.58601-1.125 2.25-.42199-.96698.67199-1.85002-.125-2.75zm2.75 5.09375c.34999.78999-.21926 1.00601-.65625 1.5-.29099-.91898.22126-1.12601.65625-1.5zm-3.6875 5.28125c.06545.00194.1445.02225.21875.0625.116.063.1535.22925.1875.28125.027.37599-.14375.6055-.34375.6875-.80099.31899-1.06675.96401-1.21875 1.75-.202 1.03998-1.34751 1.19501-1.9375 1.875-.174.201-.455.1405-.625-.0625-.27299-.32599-.10724-.61925.21875-.78125.85198-.42199 1.19401-1.31101 1.875-1.875.54999-.45699.60376-1.19526 1.09375-1.65625.1605-.15225.33489-.28706.53125-.28125zm-17.78125 18.71875c.2325-.0005.48101.30701.875.875h-1.65625c.32699-.56599.54875-.8745.78125-.875zm-14.25 2.9375c.60299.31399 1.13551.617 1.6875.875.235.111.64949.06076.3125.46875-.155.187-.32676.63874-.71875.21875-.39899-.42699-.80576-1.05698-1.09375.125-.058.236-.422.1925-.625.0625-.241-.153-.256-.55625-.125-.65625.36299-.27799.4665-.64176.5625-1.09375z" fill="#fff" transform="matrix(1.0000184 0 0 1.0000184 289.56206 40.577471)"/><g clip-rule="evenodd"><path d="m468.753 115.14c-1.2-.053-2.34.281-3.125-.799-.083-.115-.4-.155-.565-.099-1.379.464-2.113-1.134-3.388-1.045-.245.017-.213-.31-.104-.573.453-1.086.158-1.549-1.036-1.701-.317-.041-.636-.097-.953-.097-.282 0-.575.069-.682.386-.11.332.076.508.364.647.343.165.651.418.437.839-.161.315-.44.625-.851.556-.604-.103-1.398.345-1.734-.606-.127-.358-.528-.309-.843-.313-.88-.015-1.76-.004-2.64-.025-.561-.014-1.09.134-1.431-.679-.231-.551-1.08-.424-1.533.024-.891.88-1.945 1.111-3.085.622-.608-.262-1.354-.823-1.396.58-.021.698-.765.369-1.186.43-.664.096-1.05-.34-1.248-.897-.174-.485.115-.701.589-.82.45-.113.572-.603.276-.835-.567-.444-1.431-.936-1.979-.662-.562.281-1.326.086-1.77.801-.306.493-.722.155-.722-.365-.001-.474.062-.964.196-1.417.209-.7-.201-1.035-.674-1.362-.253-.175-.53-.218-.769.003-.28.26-.301.609-.02.839.354.292.456.617.418 1.047-.025.283.015.578-.327.693-.275.093-.455-.086-.615-.268-.896-1.016-2.099-.505-3.168-.621-1.337-.145-1.934.658-2.438 1.799-.56 1.266-2.44 1.541-3.296.442-1.259-1.616-2.886-2.313-4.691-1.699-1.245.424-2.409.323-3.615.405-.404.027-.783.002-1.072-.379-.226-.299-.466-.585-.335-.967.14-.407.531-.263.831-.272.399-.013.8.017 1.2.01.332-.005.676-.059.694-.483.016-.373-.232-.609-.581-.649-1.052-.122-2.104-.152-3.128-.536-.444-.167-.973-.01-1.282.596-.214.42-.634.658-.891-.14-.225-.7-1.25-.548-1.569-1.232-.464.429-.874.895-.911 1.566-.02.358-.019.72 0 1.079.043.82.388.884.964.376.206-.182.433-.452.665-.469.544-.039 1.143-.17 1.633.127.227.137.155.595-.002.775-.399.459-.508 1.295-1.466 1.096-.957-.199-1.728.676-2.752.52-1.117-.17-1.819-1.015-1.343-2.056.334-.729.075-.865-.542-.857-.937.012-1.727-.021-1.712-1.343.008-.749-.765-.6-1.229-.506-.597.122-.289.489-.095.803.306.495.014.691-.426.641-.418-.048-.889.044-1.239-.334-.208-.224-.563-.306-.771-.127-1.002.867-2.522.939-3.271 2.209-.283.479-.716.887-1.359.308-.397-.358-.72-.049-.998.284-.279.334-.479.691-.154 1.067.274.318.568.756 1.096.516.507-.231 1.131-.826 1.448-.008.287.743-.402 1.128-1.051 1.471-.607.321-1.358.36-1.823 1.033-.218.315-.803.408-1.039-.208-.262-.685-.71-.661-1.232-.329-.591.378-1.171.486-1.762-.001-.086-.071-.256-.163-.314-.127-1.638 1.009-.97-.446-1.077-1.021-.074-.398-.045-.856-.601-.863-.563-.007-.577.445-.6.853-.014.239-.009.479-.021.719-.013.264.12.625-.248.713-.394.095-.348-.304-.488-.523-.394-.616-.834-1.244-1.697-.596-.275.207-.604.177-.923.177-2.239-.001-4.479-.012-6.718.001-1.35.008-1.644-1.119-2.114-1.998-.187-.349-.18-.807-.689-.824-.743-.025-1.587-.25-2.188.2-.416.311-.07.829.441.939.383.082.795.034 1.195.034.38 0 .46.233.465.551.005.306-.052.506-.417.602-1.182.311-2.146-.34-2.765-1.426-.557-.978-.87-2.124-1.769-2.908-.796-.695-2.455-.302-2.751.682-.477 1.585-1.101 2.103-2.754 2.188-.561.029-.795.366-1.191.695-1.576 1.312-2.699 3.41-5.176 3.335-.293-.009-.543.13-.735.353-.581.674-1.302.55-1.941.213-.567-.299-1.032-.381-1.535.037-.201.167-.443.211-.679.146-3.02-.846-6.107-.214-9.154-.439-.604-.044-1.414.341-1.625-.705-.04-.199-.341-.192-.505-.036-1.47 1.403-3.3 1.233-5.113 1.219-2.447-.019-4.841.586-7.31.608-1.038.009-2.209.343-3.344.355-.705.008-1.035.57-1.427.992-.559.601-1.091.642-1.625.056-.593-.649-1.127-.656-1.7.003-.127.146-.319.348-.472.34-2.091-.104-4.201 1.132-6.163.408-1.362-.503-2.575-.289-3.855-.337-1.358-.051-2.719-.046-4.079-.02-.666.013-1.268-.028-1.697-.624-.178-.247-.456-.331-.746-.294-2.867.354-5.467-1.24-8.363-1.083-1.222.066-2.563-.72-3.918-.875-.508-.059-.532-1.212-.087-1.837 1.155-1.621 2.593-2.933 4.07-4.27 1.715-1.553 3.46-3.105 5.084-4.776 1.352-1.39 2.842-2.65 4.318-3.913.539-.461 1.265-.633 1.884-1.052 1.479-1 2.501-2.302 3.472-3.698.384-.553 1.066-.151 1.465-.643.469-.579 1.105-.962 1.761-1.36 2.472-1.499 3.6-1.211 5.048 1.348 1.152 2.035 2.641 3.874 4.501 5.249.828.611 1.586 1.254 2.327 1.95.609.573 1.168.335 1.817-.062 3.7-2.27 6.706-5.346 9.85-8.274 1.302-1.213 2.697-2.33 3.941-3.611.365-.376.778-.658 1.321-.734 1.508-.211 1.997-1.617 2.929-2.508 1.319-1.261 2.947-2.3 3.936-3.774.716-1.068 2.337-1.746 1.967-3.514-.19-.908.821-1.366 1.181-2.103.307-.628 1.354-.813 1.301-1.795-.002-.046.195-.15.298-.147 1.689.046 1.93-1.324 2.55-2.435.419-.75 1.159-1.371 1.866-1.901 1.334-1 2.793-1.89 4.265-2.601 2.504-1.209 5.212-1.904 8.014-.72.275.116.268.382.416.505.658.55.96 1.676 2.169 1.388.159-.038.514.091.519.162.124 1.739 2.18 1.315 2.788 2.505.118.231.423.281.645.197.825-.313.992.215 1.036.815.041.551.261.821.82.754 2.342-.279 4.294.745 6.198 1.884.411.246.651.338 1.148.074.889-.473 1.321-.143 1.373.778.027.478-.276 1.205.396 1.346.738.155 1.581.44 2.291-.149.366-.304.651-.722 1.213-.644.297.042.786-.173.841.196.067.447.543 1.002-.013 1.395-.489.345-.238.534 0 .843.433.563 1.038.89 1.653 1.132.912.36 1.969.92 2.746.91.866-.011 1.86-.079 2.785-.22.986-.151 1.709.754 2.733.603.4-.059.227.583.247.91.038.592.038 1.105.876.635.544-.305 1.14-.274 1.708.053 1.167.672 2.647.503 3.734 1.57.4.393 1.46.147 2.217.132.809-.016 1.582-.032 2.188.652.25.283.647.308 1.011.279.529-.042.876.199 1.241.568 1.256 1.269 2.18 1.161 3.195-.3.353-.507.758-.259 1.124-.029.3.188.567.431.845.653 1.22.978 2.619 1.177 4.13 1.027.965-.095 1.414.928 2.251 1.177.197.059.376.26.628.275 2.521.153 4.091 2.026 5.983 3.315 1.137.775 1.991 1.938 3.117 2.646.8.503 1.94.769 2.998.73.924-.034 1.593.191 1.702 1.213.07.652.5.73 1.016.753 1.085.048 2.255-.237 3.077.844.104.138.449.106.685.128 1.725.164 3.435.251 4.348 2.164.529 1.109 1.652 1.681 2.731 2.192 1.958.929 3.855 2.058 6.163 1.882.904-.069 1.649-.851 2.629-.54.311.099.823-.178.89.342.068.532.313 1.321-.208 1.568-1.375.655-.384 1.341-.016 1.803.287.361.614.612.751 1.119.208.772.941.322 1.434.444.318.079.782-.184.906.327.085.354.004.686-.332.955-.468.375-.654.917-.565 1.506.154 1.017-.239 1.39-1.245 1.193-.306-.061-.635-.01-.801-.01zm-81.277-3.088c.277-.106.848.208.815-.349-.032-.532-.413-.923-1.051-.902-.409.013-.898-.005-.829.557.066.534.49.778 1.065.694zm79.359-.069c-.143-.472-.406-.901-.955-1.019-.303-.065-.584.143-.512.466.105.468.087 1.087.742 1.197.407.069.659-.179.725-.644zm-28.186-5.524c.034.284-.085.736.435.763.605.031.802-.435.846-.931.03-.344-.009-.809-.45-.83-.574-.025-.774.432-.831.998zm11.952 1.296c.383-.009.716-.087.686-.579-.029-.472-.366-.538-.743-.54-.447-.002-.79.14-.746.66.042.503.462.431.803.459z" fill="#f0b800"/><g fill="#fff"><path d="m525.167 169.579c.213.646.665.952 1.34.961.667.009 1.067.46 1.055 1.02-.012.526-.465.908-1.064.933-.32.014-.663-.047-.792.358-.128.401.243.546.426.787.024.031.051.062.079.089.289.278.711.614.349.991-.336.352-.579-.223-.885-.337-.601-.461-1.2-.924-1.84-1.417-.289 1.094-.002 1.568 1.047 1.41.267-.04.543-.014.815-.018.201.703-.311 1.24-.612 1.698-.359.544-1.04.377-1.541-.113-.346-.337-.606-.867-1.26-.29-.463.409-.783-.224-.849-.5-.143-.604-.558-.944-.945-1.328-.459-.456-1.043-.866-.229-1.518.163-.131.212-.389.049-.535-.341-.309-.481.101-.646.262-.286.281-.525.667-.993.406-.332-.186-.248-.56-.245-.872.003-.367.055-.706.528-.334.407.32.603-.092.775-.278.23-.248-.101-.408-.256-.554-.546-.511-.695-1.521-1.789-1.375-.168.022-.524-.334-.563-.556-.129-.732-.544-.863-1.188-.781-.244.031-.604.148-.728-.215-.101-.295.258-.353.377-.542.132-.211.542-.34.241-.671-.179-.196-.346-.453-.666-.469-.358-.018-.443.202-.539.504-.245.777-.841.908-1.6.908-.755 0-.823-.368-.845-.961-.021-.559-1.193-.511-.777-1.396.651.101.884.773 1.482 1.027.772.328 1.04.088 1.19-.496.197-.764.737-.686 1.218-.543 1.22.363 1.855 1.463 2.688 2.304.229.231 1.354.393 1.41.096.104-.538.199-.396.664-.297.817.175 1.529 1.092 2.571.333.435-.316 1.028.398 1.564.607.065.026.084.3.047.438-.063.229-.268.336-.441.141-.301-.336-1.16.52-1.1-.527.001-.028-.073-.085-.074-.085-1.001.892-1.911-.351-2.845-.114-.365.093-.989.35-.422 1.069.636.809 1.339 1.604 1.624 2.637.122.439.562.66.816.518.935-.52 1.847.11 2.736.025.136-.52-.257-.739-.472-.787-.855-.192-.977-.733-.723-1.402.308-.806.843-.575 1.385-.206.11.074.313.014.472.016z"/><path d="m534.794 225.766c.429-1.078.105-2.388 1.064-3.314.368-.356-.001-.886.242-1.412.452-.98.412-2.181 1.289-3.007.066-.063.08-.304.073-.306-1.561-.451.076-1.05-.069-1.572-.172-.618.123-1.415-.056-1.851-.534-1.298.139-1.913.976-2.567.456-.355.36-.617-.113-.866-.889-.466-.872-.465-.296-1.154.331-.397.163-.639-.305-.75-.735-.175-.524-.766-.375-1.154.197-.514.611-.269.987-.09.71.336 1.52.567.486 1.495-.454.407.47.587.262 1.219-.253.765.353 1.827.071 2.564-.379.992.705 1.962-.263 2.957-.388.398-.108 1.445-.136 2.197-.017.47.249 1.322-.709.503-.19-.164-.496-.104-.594.165-.092.253-.18.575-.1.809.134.386.33.077.521-.032.213-.122.422-.015.418.229-.008.511.24 1.245-.155 1.488-.942.581-1.065 1.698-1.173 2.399-.215 1.404-1.121 1.631-2.068 2.032z"/><path d="m532.369 175.341c-.12.752-.74 1.352-1.285 1.351-.916-.001-1.066.563-1.363 1.12-.275.518-.275.544.396.514.296-.014.337.141.367.332.042.264-.063.478-.329.558-.734.221-1.146-.152-1.419-.895-.104.791-.357 1.351-1.079 1.639-.251.1-.413.218-.595-.026-.248-.331-1.056-.152-.917-.553.157-.454.717-.969 1.188-1.074 1.04-.234.427-.518.14-.868-.263-.321-.741-.468-.785-.966.838.059.793-.932 1.523-1.201 1.469-.541 2.798-.401 4.18.095z"/><path d="m505.969 258.387c-.072 1.371-1.327 1.979-2.784 1.323-.773-.348-1.494-.678-.659-1.751.278-.357.604-.842.607-1.477.004-.708.721-.561 1.202-.477.225.04.236.298.02.445-.091.063-.262.021-.336.092-.446.422-.993 1.014-.804 1.523.286.77.736-.057 1.125-.144.64-.145 1.003.652 1.649.484z"/><path d="m516.853 174.45c.052.023-.101-.025-.23-.108-.524-.339-.45-.962-.197-1.242.36-.398.655.17.941.394.447.352.793.751.688 1.395-.038.229-.106.337-.328.407-.251.08-.396-.797-.653-.087-.168.465.305.71.579.943.248.21.717.079.913.462.094.183.508.23.277.539-.199.266-.547.249-.748.062-.634-.591-1.305-1.171-1.808-1.866-.597-.828.639-.205.566-.899z"/><path d="m532.43 179.866c.637-.004 1.501.151 1.332.412-.451.693-.08 1.769-.988 2.158-.471.202-.639-.367-.91-.602-.344-.294-.759-.565-.89-1.055.692-.037.545-1.562 1.456-.913z"/><path d="m514.23 249.738c-.065.728-.837.425-1.076.826-.585.982-1.218.224-1.815.042-.103-.031-.37-.196-.178-.545.606-1.104 1.731-1.428 2.769-.736.184.123.281.258.3.413z"/><path d="m535.604 200.305c-.579-.246-.709-1.014-.834-1.76-.059-.349.074-.623.519-.62.659.006 2.075 1.016 1.942 1.462-.18.604-.626.983-1.627.918z"/><path d="m468.041 251.991c.441-.574.705-1.569 1.617-.387.291.377 1.229-.36 1.316.713.064.794-.243.944-.847.704-.703-.28-1.364-.668-2.086-1.03z"/><path d="m517.709 255.684c-.408-.842.006-1.141.345-1.476.252-.249.567-.496.287-.907-.124-.181-.455-.312-.246-.569.214-.265.512-.084.761.026 1.446.638 1.455.852.252 1.94-.43.389-1.072.307-1.399.986z"/><path d="m519.727 245.374c.2-.021.413-.028.536.156.192.289-.13.395-.236.58-.399.701-1.495.658-1.694 1.61-.038.183-.434.142-.647.039-.202-.096-.209-.314-.18-.518.075-.532 1.663-1.866 2.221-1.867z"/><path d="m527.03 243.128c-.102.997-.848 1.413-1.585 1.826-.222.124-.473.108-.666-.077s-.263-.488-.094-.651c.647-.625 1.155-1.613 2.345-1.098z"/><path d="m529.207 181.143c.725-.043 1.043.243.567.888-.292.396-.389.646.021.987.222.185.237.438-.084.534-.341.103-.553-.128-.811-.347-.604-.512-.417-1.153-.368-1.758.031-.374.412-.278.675-.304z"/><path d="m528.011 186.532c-.032.335-.239.398-.425.341-.549-.169-.965-.488-1.031-1.117-.069-.661.33-1.041.861-1.241.388-.146.771.052.64.528-.146.53-.993.993-.045 1.489z"/><path d="m532.579 189.544c-.926.412-1.632-.337-2.29.189-.09.072-.255-.131-.228-.316.005-.035.036-.085.066-.096.735-.269-.137-1.418.754-1.497.94-.082.396.86.698 1.222.171.204.511.265 1 .498z"/><path d="m519.589 248.314c.414.213.831.479.838.918.009.552-.438.929-.938 1.052-.491.121-.981-.45-.979-.664.008-.618.734-.823 1.079-1.306z"/><path d="m531.409 232.467c.085.369.035.757.396 1.063.249.213.253.628-.101.801-.274.133-.64.151-.747-.295-.051-.214-.013-.529-.371-.44-.265.065-.086.338-.149.485-.119.273-.313.52-.501.756-.119.148-.294.126-.396-.029-.053-.081-.073-.285-.033-.31.821-.502 1.124-1.496 1.922-2.014z"/><path d="m538.172 226.323c.067.497-.007.958-.771.934-.399-.013-.868-.123-.692-.545.214-.514.262-1.314.944-1.419.668-.101.531.518.519 1.03z"/><path d="m499.709 257.724c.641-.795 1.42-1.226 2.406-1.27.322-.015.583.077.355.486-.3.54-1.967 1.042-2.761.784z"/><path d="m522.271 245.841c-.526-.007-1.159.396-1.294-.238-.177-.844.264-1.552.979-2.045.064-.044.255-.005.315.062.185.202.178.525.01.654-.652.499-.435.983-.01 1.567z"/><path d="m542.462 210.396c-.687.925-1.436.695-2.342-.718.778-.308.778-.308 2.361.74.001.001-.019-.022-.019-.022z"/><path d="m541.156 206.51c.322.26.857.456.864 1.04.006.501-.433.451-.785.468-.572.028-.755-.248-.704-.794.034-.374.02-.726.625-.714z"/><path d="m522.789 180.494c-.658.105-1.232 1.063-1.867-.001-.138-.231-.223-.629.063-.734.729-.27 1.388-.151 1.804.735z"/><path d="m500.235 255.846c.032.359-.049.69-.482.629-.464-.065-1.062-.215-1.083-.733-.018-.453.572-.624.977-.689.584-.096.583.381.588.793z"/><path d="m465.774 249.881c-.986.915-1.751.824-2.665.023.94-.254 1.707-.228 2.665-.023z"/><path d="m540.561 180.615c-.273.066-.428-.143-.633-.253-.269-.145-.893.727-.853-.25.02-.486.438-.863.962-.892.74-.04.456.565.51.942.022.154-.004.315-.009.474z"/><path d="m535.279 202.425c-.022.304-.218.376-.411.356-.604-.061-.941-.466-1.119-1-.058-.173.004-.417.215-.499.253-.1.393.111.384.297-.033.674.73.483.931.846z"/><path d="m527.962 188.179c1.112-1.157 1.184-1.146 1.711.035.071.16.347.268.16.477-.179.202-.502.207-.636.024-.297-.404-.757-.355-1.235-.536z"/><path d="m466.148 250.649c.454.159.849.471 1.026.987.066.195-.091.491-.277.425-.524-.187-.915-.599-1.174-1.08-.111-.208.136-.329.425-.332z"/><path d="m509.645 169.807c-.476-.484-.732-1.083-.41-1.442.349-.389 1.002-.275 1.651-.029-.35.601-1.461.473-1.241 1.471z"/><path d="m525.706 240.323c.131.688-.307 1.057-.777 1.189-.317.09-.261-.391-.275-.653-.033-.588.37-.976.801-1.132.286-.104.312.356.251.596z"/><path d="m518.206 175.649c1.261-.7 1.872.192 2.952.309-1.224.77-1.88-.062-2.952-.309z"/><path d="m536.448 202.255c-.37-.003-.771-.024-.766-.512.007-.599.514-.464.881-.503.413-.044.731.086.694.559-.038.502-.46.441-.809.456z"/><path d="m518.445 156.697c.179-.934.785-1.228 1.309-1.595.271-.189.426.064.589.201.039.033-.035.285-.049.284-.791-.043-1.053.827-1.849 1.11z"/><path d="m537.702 205.055c-.036.295-.09.583-.328.463-.639-.324-.798-1.032-1.087-1.612-.102-.205.252-.285.422-.234.725.216.445 1.121.993 1.383z"/><path d="m505.989 258.408c-.126-.466.29-.637.532-.842.238-.202.341-.763.798-.523.336.177.131.583.129.882-.003.516-.409.507-.769.512-.236.003-.474-.031-.711-.049z"/><path d="m519.343 164.345c-.303-.061-.788.13-.79-.297-.001-.406.438-.643.847-.672.435-.031.884.278.869.628-.025.592-.616.223-.926.341z"/><path d="m503.427 255.575c-.511-.395-.476-.802-.367-1.164.111-.375.479-.826.79-.7.486.196.195.597-.048.931-.17.233-.228.55-.375.933z"/><path d="m523.114 183.251c.394-.771.573-1.294 1.221-1.24.282.024.731.306.104.509-.384.123-.623.437-1.325.731z"/><path d="m493.499 255.655c-.302.47-.535.927-1.175.858-.174-.02-.358-.178-.268-.312.317-.469.714-.841 1.443-.546z"/><path d="m516.05 248.63c-.318.315-.573.693-1.057.711-.221.008-.43-.158-.329-.37.193-.403.541-.679 1.013-.706.216-.012.357.125.373.365z"/><path d="m521.797 248.998c.021-.231-.074-.67.297-.593.339.069.7.377.714.836.009.309-.109.514-.482.514-.546 0-.489-.392-.529-.757z"/><path d="m529.014 237.917c-.634-.461-1.124-.687-.938-1.336.082-.286.397-.319.593-.231.657.298.295.852.345 1.567z"/><path d="m524.738 242.843c-.033.239.063.671-.33.595-.376-.072-.675-.417-.701-.864-.02-.341.178-.506.516-.504.541.002.492.403.515.773z"/><path d="m508.628 252.205c-.348-.084-.473-.447-.679-.697-.109-.133.028-.424.27-.382.377.065.476.462.665.731.076.108-.037.296-.256.348z"/><path d="m506.414 253.337c.052-.253-.151-.707.38-.634.307.043.628.297.558.644-.065.317-.313.688-.679.671-.384-.018-.21-.423-.259-.681z"/><path d="m525.148 176.818c.293-.001.576.032.57.415-.004.312-.161.534-.499.528-.292-.004-.563-.104-.584-.45-.02-.339.182-.496.513-.493z"/><path d="m459.386 247.323c.45.037.522.283.514.593-.009.308-.19.417-.468.4-.316-.018-.554-.169-.534-.508.018-.324.25-.474.488-.485z"/><path d="m511.745 253.778c.04.494-.055.812-.549.803-.205-.004-.501-.207-.348-.301.449-.279.077-1.056.657-1.096.357-.025.206.431.24.594z"/><path d="m509.356 254.057c.327.034.483.201.477.544-.007.37-.209.477-.53.458-.328-.019-.516-.189-.498-.526.016-.341.23-.476.551-.476z"/><path d="m513.823 252.827c-.618.323-1 .692-1.54.575-.124-.027-.169-.388-.019-.536.421-.412.881-.326 1.559-.039z"/><path d="m535.46 213.805c.416.576.393 1.166.181 1.758-.011.032-.264.038-.281-.001-.277-.594-.123-1.176.1-1.757z"/><path d="m523.731 162.399c.369.029.831-.145.974.403.052.197-.005.424-.219.487-.261.077-.585.126-.701-.214-.072-.211-.026-.462-.033-.695z"/><path d="m516.052 163.359c.751.146 1.069.726 1.352 1.342-.573-.326-1.191-.611-1.33-1.362z"/><path d="m517.983 170.468c.148 0 .255-.005.36.007.014.001.02.085.029.132-.071-.002-.146.01-.212-.009-.052-.015-.094-.066-.177-.13z"/><path d="m504.529 163.823c.075.21.039.384-.2.427-.059.011-.208-.123-.203-.18.023-.253.213-.271.419-.233z"/></g></g></g></svg>