<svg enable-background="new -10 -30.33 220 220" height="220" viewBox="-10 -30.33 220 220" width="220" xmlns="http://www.w3.org/2000/svg"><path d="m145.219.43c.813.105 1.538.432 2.182.939.348-.022.481.571.93.354.378.592 1.007.654 1.467 1.118-.104.327.376.056.259.386h.127v.893c.166.091.36.04.554.055v.477c.698-.022 1.224.394 1.889.437.305.166.285.566.592.587.209.149.086.42.347.531-.31.55.631.591.359 1.112.323.109.063.441.366.537.062.542.377.958.708 1.378.151.702.953 1.15.85 1.958.419.621.392 1.45.694 2.142v2.169c-.408.065-.132.659-.221.975-.117.357-.51.608-.343 1.073.018.078.122.022.171.045 0 .192-.049.419.172.53v1.378c-.172.292-.343.598-.525.89.113.283-.299.09-.16.364-.156.183-.48.29-.417.572h-.144c.118.559-.354.878-.435 1.375-.262.095-.212.533-.54.533.146.248-.247.276-.177.499-.38.066-.541.643-.974.614-.568.308-.481.963-1.061 1.291.21.481-.454.358-.271.796-.211.133-.411.299-.659.299-.453.292-.902.559-1.334.818.022.254-.276.231-.41.355-.624.767-1.377 1.206-2.233 1.47-.61.179-1.341.13-1.859.582-.461.217-1.059.067-1.417.527-.293.325-.813.077-1.207.227-1.76.835-3.679-.117-5.645.133-.342-.226-1.355.154-1.013-.67l-.574-.094v-.842c-.238.022-.471.316-.722.491-.109-.182-.148-.397-.447-.354-.222.211-.482.267-.558.582-.172.067-.229-.116-.334-.189.067-.262-.261-.38-.392-.575-.354-.021-.448.575-.893.354-.037-.143-.092-.26-.208-.354-.102.139-.315.211-.234.404l-.763.525h-.855c.519-.269.332-.813.363-1.277.099.022.138-.055.192-.104v-1.001l-.442-.593c-.215.072-.04.492-.355.358-.104.069-.169.251-.318.184-.034-.337.292-.647.177-1.074l-.215-.1c.599-.37-.251-.614 0-1.105-.157-.283-.417-.532-.533-.836-.056-.084-.122-.033-.193-.049.071-.26-.136-.598.193-.764v-1.505c-.394-.124.013-.577-.358-.715.145-.47-.426-.659-.234-1.151-.298-.1-.039-.426-.353-.532-.104-.349-.066-.741-.395-.985-.038-.259.095-.601-.192-.751.039-.829-.053-1.715.115-2.48.155-.41.039-.923.077-1.388.34-.142.194-.493.222-.748.173.046.25-.088.367-.176v-.18c.215-.036.229-.512.558-.494l.1-.089c-.028-.021-.044-.067-.1-.039v-.133c.1.017.138-.045.193-.094-.208-.42.376-.254.178-.669.319-.126.121-.471.171-.703-.404-.199.027-.88-.349-1.173.232-.503.6-.975.89-1.449-.026-.063-.095-.056-.142-.056.066-.238-.148-.621.165-.748-.118-.26.327-.276.193-.537.139-.189.438-.309.389-.582.231.084.144-.182.231-.269.166-.218.46-.355.499-.609.536.095.813-.548 1.138-.858-.133-.304.748-.559.195-.708-.143-.368.189-.431.382-.576.682-.881 1.55-1.236 2.414-1.645.729-.137 1.453-.27 2.175-.41.259-.048.481-.236.813-.172.442-.712 1.312-.419 1.859-.946.327 0 .68.055.917-.167 1.462.128 3.178-.337 4.371.401z" fill="#ed1a3b"/><path d="m200 154.029c0 2.939-35.659 5.312-79.643 5.312-43.985 0-79.651-2.372-79.651-5.312 0-2.928 35.666-5.303 79.651-5.303 43.983.001 79.643 2.376 79.643 5.303z" fill="#00aeef"/><g fill="#00a664"><path d="m92.121 22.332c4.942.691 9.836 2.674 13.665 5.284.93.163 1.777-.092 2.52-.52-.409-1.415-1.933-2.779-3.206-3.595-3.047-1.323-6.533-1.6-9.115-4.067-.482 1.034-1.601 1.072-2.632 1.084-1.73-.288-2.986-1.766-4.901-1.659-.559.16-.587.784-1.084 1.083-.039.26.105.59-.134.78-.121.425-.065.942.2 1.284z"/><path d="m150.371 104.646 2.011 1.924c.541.644.778 1.219.401 2.187 2.354 2.934 7.441 14.266 9.404 17.913l.226-.775c-.396-3.524-1.768-2.884-1.46-6.12-1.149-.687-.795-2.611-1.582-3.546-.908-2.131-1.307-4.233-2.829-6.123-.039-.354-.694-.308-.938-.59.021-2.302-1.983-6.121-3.017-8.006-.472-1.374-1.688-3.317-2.198-4.718-1.433-4.155-6.412-10.394-6.551-12.555-2.23-1.659-2.927-5.292-4.527-7.397-.775-1.75-2.052-3.307-3.364-4.828-.404-1.011-1.545-1.686-2.127-2.616-.468-.532-.529-1.379-1.168-1.737-.568.178-.804-.383-1.36-.205l-1.869-2.818c-.692-1.039-1.404-2.178-2.646-2.504-.633-.427-1.145.583-1.616-.269-.742-1.087-.874-2.399-1.622-3.479-.41-.363-.602.428-1.005.051-.201-.77-.096-.899-.36-1.631-1.201-.054-2.12-.811-2.96-1.689-.729-.394-1.31-1.506-2.138-1.163-1.056.475-.858-.84-1.516-1.344-.09-.443-.305-.853-.592-1.212-.525-.042-.376-.892-1.02-.641-.343-.504-.687.082-1.033.116-.471-.509-.161-1.317-.254-1.998-.338-.105-.051-.473-.4-.577-.57.157-1.182.089-1.482.77-1.443.133-2.363-1.29-3.016-2.451-.488.043-1.086-.128-1.411.316-.46.07-1.235.226-1.355-.444-.272-.863-.818-1.648-1.496-2.224-.729-.603-1.619-.593-2.34-1.067-.656-.415-.877-.985-1.726-1.296-.708-.237-1.495-.27-2.205-.487-1.778-.553-3.67-.742-5.484-1.35-.517-.21-.631-.298-1.168-.447-.527.353-1.113.703-1.812.458-.77-.53-1.702-.707-2.306-1.604l-.394 1.421-1.421.11c-.887.072-1.596.566-2.324 1.047-1.092.039-1.955-.46-2.767-1.103-.483.875-1.384 1.284-2.12 1.805-.25.166-.668-.071-.843.265-.574-.233-.796.416-1.36.182-.172.46-1.007-.48-1.007.14 0 .829-1.744 1.222-1.716.73-.371.736-.027 1.461-.734 2.02-.443.06-.654-.462-.97-.692-1.323-.01-2.474.443-3.742.575l-.396.892c-.738.383-.788 1.393-1.151 2.063l-.327-.188c-.396-.055-.735.068-.969.315-.774-.285-.635.77-1.289.644-.211.253-.703.396-1.024.601-.415.111-.664.647-1.112.631-.393.293-.525.796-.835 1.222-2.258 3.156-3.631 1.974-3.946 1.739.172-1.151 1.522-1.886 2.135-2.783.748-1.095 1.688-1.512 2.578-2.37.371-.364.488-.874.891-1.212.438-.387 1.075-.523 1.496-.946.291-.283.331-.303.708-.614 1.599-1.427 3.828-2.413 4.231-2.977.416.255.875-.184 1.334-.089l.832-.321c.442-.907 1.819-1.359 2.567-1.918.311.325.718.458 1.199.393.947-.329 1.944-.122 2.481-1.024.507-.571 1.548-.499 2.12-.328.104-.303.208-.603.523-.829.486-.386 1.151-.427 1.8-.386.421.48 1.21.153 1.688.523.475-.017 1.011.067 1.339-.325.364-.3.364-.771.521-1.168 1.792.127 3.878-.41 5.168.97 2.523-1.024 5.942-.688 8.171.723 2.474.875 4.716 2.379 7.088 3.471.854.038 1.479.646 2.264.829.998.715.92 1.855 1.822 2.596.383-.039.83.099 1.161-.133 5.209 2.978 10.066 6.818 14.875 10.773 5.757 4.921 15.117 17.385 18.947 23.479.48.352 1.202.828 1.283 1.478.354.275.769.984.849 1.385.486.795 3.608 5.814 5.019 8.283.394.686.963 1.072 1.827 1.853-2.325-6.491-7.028-13.437-10.438-19.511-3.403-5.085-6.114-10.414-10.399-15.11-.446-.872-1.268-1.561-2.057-2.182-.853-.919-1.024-2.655-2.633-2.529-.667-2.275-2.581-4.372-4.654-5.732l-.687-.132c-.084.169.11.23.193.326-.018.434.088.919-.393 1.167-.864-.27-.921-1.195-1.693-1.688-1.921-1.423-3.631-3.348-5.606-4.71-.434-.768-1.103-1.326-1.676-1.98-1.563-.857-3.193-1.542-4.693-2.528-.394-.615-1.294-1.069-1.688-1.817-.486-.048-1.1.173-1.482-.168-2.207-.293-3.734-2.209-5.615-3.292-.787.026-1.207-.825-2.047-.648-.835-.653-2.158-.101-3.116-.445-1.008.24-1.571-.625-2.258-1.16l-.312.307c-.93.527-2.478.958-3.429.134-1.072-.111-2.595-.487-3.265.775-.892-.099-1.688-.353-2.464-.713-2.212.062-3.955.868-6.829 1.262-1.599.991-2.981.947-4.58 1.893-.792.443-1.694.592-2.363 1.307-.653-.066-1.411.503-1.882-.066.022-.487.625-.792.663-1.268 1.141-.604 2.271-1.13 3.144-2.096 1.212-.268 2.141-1.226 3.398-1.424 0-.006 0-.006 0-.009.155-.052.316-.1.47-.139.731-.16 1.479-.238 2.188-.42 7.271-1.898 13.113-1.723 18.038-.52 2.124.364 4.09 1.088 6.058 1.813 5.812 2.558 11.266 5.877 16.191 10.564 1.506 1.294 4.151 3.974 4.526 3.668.373-.294-.938-1.521-.967-2.324-.393-.613-.432-.808-1.03-1.277-.43.071-.797-1.689-1.177-1.327-2.376-2.363-4.587-4.379-7.08-6.481-3.941-3.216-8.189-5.565-12.771-7.217-2.164-.387-4.22-1.057-6.528-1.155-.902-.265-1.594-1.096-2.567-1.229-1.228.021-2.684-.157-3.68.642-1.465-1.066-3.419-.188-5.031 0-.315.061-.764.415-1.112.526-.447.135-.916.21-1.378.253-.929.068-1.868-.056-2.766-.315.045 1-1.883 1.112-2.522 1.294-.228.066-.865.476-.833.421-1.499-.162-2.406.708-3.43 1.622-.747-.091-1.881.27-1.677-1.046.071-.433.432-.659.759-.914.148-.121.382-.231.476-.376.049-.038.231-.387.192-.354.051-.033 1.851-.973 1.851-.973 1.085-.116 2.24-1.189 3.225-.327.179-.786 1.02-.973 1.61-1.217.932.072 1.633-.305 2.199-1.042 1.537-.353 3.264-.326 4.967-.326.394-.38 1.063-.078 1.534-.254.338-.211.978-.354.901-.837.431-.58-.021-1.509.383-2.056-.813-1.009-1.678.209-2.569.182-.249-.289-.631-.549-.769-.904-2.324.322-4.504.91-6.834 1.218-.377.238-.962.614-1.151-.044-1.133-.452-1.822.442-2.6 1.017-.283-.042-.685.106-.896-.126-1.877 1.483-4.268 1.726-6.187 3.095l-.128-.2c-.481.035-.76-.536-1.102-.702l-.105.127c-1.983 1.29-4.438 1.418-6.67 2.136l-1.15.705c-1.366.923-.764 2.877-2.191 3.545h-4.138c-.538.034-.501.658-.96.909.013.408.04.842-.26 1.15l-2.516.51c-.958 1.08-2.006 1.848-3.029 2.776-2.482 1.617-4.659 4.002-7.086 5.688-.421 1.717-2.281 2.087-3.559 2.829-.409.449-.862.907-.957 1.557-.383.342.287 1.366-.575 1.278-.604.778-.959 1.659-1.181 2.584-.36.227-.686.614-1.157.653l-10.127 13.459c.183 4.894-4.365 7.829-5.349 12.259-3.034 3.587-4.532 7.81-6.576 11.798l-4.557 13.547c-.315 3.941-.866 6.911-.667 11.084.246 1.123.549 3.161.835 4.188.556 2.425 2.48 4.262 4.34 6.14 2.817 3.22 6.591 4.906 10.818 3.945 2.309-.938 4.655-1.756 6.713-3.239 1.81-.813 3.729-1.387 5.214-2.971 1.176-1.146 1.924-2.463 2.577-3.798 1.158-4.044 3.115-7.758 4.715-11.604 1.433-3.492 4.029-6.5 5.756-9.876.016-.749.193-1.449.248-2.198.815-1.682 2.291-3.108 2.896-4.885-.301-1.029.813-1.524 1.355-2.137.099-.106.318-.082.386.084.161.027.307.261.449.115.355-1.108-.17-2.561.459-3.547 1.285-.808 2.097-2.131 2.961-3.305.67-1.93 2.147-3.558 3.342-5.271 1.278-.631 1.219-2.113 2.015-3.098 3.396-3.291 6.983-6.452 10.315-9.678.861-.659 1.881-.932 2.656-1.809.603-1.165 1.936-1.502 2.906-2.26 5.422-3.131 17.126-7.706 31.829-1.858 14.742 5.867 31.441 20.955 47.544 50.716z"/><path d="m141.053 64.141c.438.899 1.219 1.819 1.538 2.771.1.259.261 1.182-.171 1.254-.504.088-1.367-1.92-1.577-2.25-1.201-1.981-2.445-3.956-3.735-5.877-2.673-4.011-5.601-7.874-8.815-11.471l-.314-.591-7.18-7.975c-3.471-3.485-7.193-6.358-10.777-9.551-.699-.47-1.458-.89-2.125-1.427.131-.354.525-.608.772-.897.927.148 1.717-.432 2.464.077 9.378 6.478 24.01 23.971 29.92 35.937z"/><path d="m181.726 101.364c.997 1.046 1.711 2.313 2.447 3.464-.144.958 1.294 1.35 1.638 2.119.657 1.063 1.23 2.147 1.767 3.261.884 1.42 1.377 3.018 2.455 4.375.011.26.11.498.244.715.066 1.058 1.262 1.211 1.788 2.075 0 .232-.028.471.129.625.042.262.148.647-.129.829 1.67 2.065 2.499 4.489 3.479 6.847.189.996.832 1.793 1.112 2.761.433.39.465.942.633 1.456.22.172.364.492.695.383-.064-1.196-.669-2.174-1.034-3.268-.249-.276-.536-.552-.422-1 .063-1.104-.867-1.821-1.04-2.834-.86-.857-.282-2.318-1.584-3.005.021-.26.021-.49-.163-.664.185-.779-.209-1.194-.537-1.77-.183-.378-.266-1.572-.276-2.027-.566-.758-.862-1.771-1.497-2.48.054-.731-.313-1.303-.521-1.912-.3-.442-.826-.78-1.063-1.249-.903-.875-.415-1.922-1.318-2.773.089-.344-.275-.494-.408-.759-.52-1.062-1.368-2.103-1.826-3.048-.614-.888-1.24-1.793-1.854-2.701.065-.71-.188-1.296-.647-1.794-.736-.118-1.18-.939-1.776-1.422l.139-.414c-.299-.183-.465-.752-.931-.548-.312-.117-.1-.471-.145-.697-1.821-1.031-1.92-3.189-3.519-4.305-.332-.251-.145-.725-.359-1.039.132-.485-.376-.705-.637-1.036-.238-.058-.58.146-.709-.168-.393.11-.37-.469-.747-.419.038-.282-.342-.378-.223-.703-.729-.41-1.033-1.346-1.862-1.667-.182.023-.378.321-.498 0-.489-.243-1.229-.739-1.163-1.388-.044-.515-.603-.253-.918-.333-.409-.16-.115-.592-.261-.869-.058-.177-.255-.416-.469-.416.048-.383-.383-.137-.572-.209-1.007-.376-1.228-1.588-2.214-2.003-.202-.071-.499-.084-.631.166-.279.276-.531.057-.752-.205-.512-.032-.919-.324-1.277-.764-.034-.38-.597-.249-.848-.499-.735-.756-2.528-.501-3.286-1.299-.764-.797-2.402-.22-3.056-1.346-.2.477-.261-.026-.655.024-.274-.316-1.337-.046-1.221-.604h-.49l-.072.548-2.724-.1c-.117-.104-.185-.294-.377-.223-1.672-2.444 1.283-1.083 1.283-1.172 0-.006 0-.46 0-.46.377.072.088-.337.395-.42.951.492 2.446-.326 3.165.721.734-.189.797.254 1.606.254.805.101 1.695.087 2.366.503 1.312.298 2.309 1.399 3.692 1.543l3.773 2.043c1.815 1.351 3.774 2.28 5.556 3.713-.052.242.21.337.372.422 1.31.686 2.174 1.929 3.087 3.08 1.128 1.913 3.33 2.56 4.428 4.467.712 1.224 1.654 2.308 2.416 3.484.52.781.825 1.684 1.317 2.47.564.909 1.928.664 1.274 1.693.367.094.628.319.729.998.334.961 1.064 1.787 1.367 2.754 1.611 2.312 3.67 6.762 4.1 6.551.435-.208-.785-3.374-1.685-4.907-.749-2.136-2.155-3.98-3.183-6.009l-.071-.503c-.25-.334-.175-.799-.539-1.093-.459-1.664-1.896-2.938-2.838-4.403-.449-1.294-1.601-2.294-1.922-3.632-.713-.988-1.184-2.24-2.289-2.917-.022-.779-.93-1.173-.997-1.925-.469-.049-.681-.856-1.255-.495.144.354-.199.486-.384.707-1.055-.984-1.985-1.981-3.124-2.763l-.079-.237c-.776-.139-1.243-.992-1.875-1.505-.105-.14-.085-.419-.337-.383-.992-1.776-3.034-1.737-4.38-3.031-.592-.077-.541-.879-1.156-.919-1.571-.325-2.682-1.759-4.217-2.164-.629-.703-1.72-.26-2.584-.389-.231-.198-.47-.418-.421-.707-.541.316-1.293.101-1.952.171-.233-.213-.472-.403-.797-.376-.233-.317-.703-.077-.913-.369-.32.052-.726-.154-.92.155l-1.545-.328c-2.2-.055-4.519-.184-6.429.593-1.09.022-1.759 1.095-3.043.695-.121-.135-.271-.275-.449-.28-.277-.167-.433-.443-.492-.726.249-.508.925-.585 1.532-.531 2.905-1.832 8.412-1.862 10.061-1.609 2.8.138 5.452.892 7.869 1.932.824.58 1.794.768 2.586 1.381 2.583 1.191 4.847 3.139 7.164 4.973.865 1.056 1.877 2.039 2.885 3.025h.37c.299-.307.105-.845.165-1.276-.165-.118-.26-.417-.497-.335-.143-.386-.53-.145-.798-.21-.756-.835-1.481-1.677-2.162-2.557-1.007-.886-1.963-1.892-3.082-2.532-.3-.434-.731-1.297-1.462-1.088-1.417-1.64-3.314-2.173-5.007-3.126l-.251-.409-1.752-.428c-1.313-.202-2.448-.801-3.87-.693-.773-.759-1.986-.495-3.039-.551-.807.382-1.914-.059-2.682.382-.526-.271-1.12-.326-1.666-.546.056.271-.05.476-.191.66-.944.014-1.931.105-2.809.386-.077-.039-.145-.078-.164-.183-.09.243-.335.083-.504.134-.222.365-.631.188-.892.411-.55-.335-1.035-.693-.653-1.138 1.11-.266 2.176-.619 3.299-.87.515-.629 1.494-.137 2.078-.579.545.427 1.419.048 2.01.341.998.162 1.95-.038 2.874-.211.077.019.133.027.222.027.901.04 1.684.284 2.593.284l.102-.044 2.163.531c.554.117 1.156.095 1.6.465.668.508 1.667.334 2.342.909 1.71.467 2.898 2.212 4.735 2.372v-.632c-.078-.677-.907-.807-1.291-1.41-.702-.172-1.171-.862-1.881-1.034-.304-.342-.74-.388-1.113-.553-.539-.443-1.172-.67-1.676-1.195-.502.429-1.207.369-1.886.369-.671-.582-1.338-1.204-2.275-1.132-.458-.151-1.007-.251-1.173-.273-.486-.072-1.19-.264-1.782-.243-.208-.071-.468.018-.686-.021-.144.42-.48-.101-.779 0l-.395-.217c-.757.067-2.03-.433-2.7-.134-2.579-.093-6.992.687-9.054 1.225-.315.016.201-.089.179-.294l-.532.535c-.21-.033-.372.056-.524.186h-2.702c-.786.01-.679.914-1.125 1.327-.64.546-1.53.471-2.288.715-.888-.255-1.782-.122-2.506.358-.079.289-.289.539-.549.763-.156.023-.259-.054-.378-.165-.631.029-1.222.165-1.665.703-.409.056-.607.692-1.117.58-1.125.857-2.523.962-3.548 2.003-.983.621-1.902 1.393-2.882 2.085-.117-.309-.433-.098-.653-.16-.085.063-.024.281-.205.217v.144c-.349.232-.403.577-.415.926-.238-.046-.238.253-.342.379-.196.062-.338.256-.589.202-.47.207-.287.694-.333 1.089-.938.956-2.066 1.482-3.127 2.207-1.442.83-2.792 1.799-4.089 2.967-.285.354-.497.725-.867 1.042-.681.495-.417 1.392-1.135 1.876-2.546 3.051-5.372 5.987-8.373 8.752-.253.467-.38.986-.796 1.379-.315.916-1.521 1.018-1.705 1.992-1.652 1.848-2.368 4.217-4.376 5.763-1.471 1.646-2.097 3.64-3.342 5.382-.38.228-.719.504-.917.913-.98.569-1.229 1.742-1.789 2.634-.885.638-.88 1.65-1.665 2.331-.498.864-1.072 1.654-1.378 2.576-.759.737-.759 1.762-1.116 2.63-.51.638-.748 1.362-.81 2.169-.488.692-.396 1.688-.211 2.636-.186.366-.17 1.062-.186 1.664l.352.383c-.426 1.5.056 3.021.555 4.332.192.525.078 1.152.593 1.544.862 1.876 2.788 3.554 4.452 4.832.992.735 2.12 1.084 3.251 1.495-.067.596.625.054.784.474.338 0 .834.193 1.046-.17 1.207-.045 1.938-1.22 3.131-1.29.053-.322.443-.104.669-.166.372.283.881.267 1.285.497.09-.077.145-.23.299-.175v-.117c.721-.791 1.654-1.058 2.384-1.837 1.504-1.063 2.372-2.701 3.396-4.121v-.424c.361-.132.168-.495.223-.75.24-.239.46-.5.747-.633 1.425-.965 1.794-2.429 2.989-3.491.526.271.598-.608 1.1-.383.223-.789.329-1.638.876-2.297.198-.719.591-1.365.613-2.169.394-.569.932-1.071 1.119-1.71.995-1.112 1.438-2.413 2.138-3.632 1.707-3.529 4.032-6.81 6.058-10.214.857-.857 1.56-1.813 2.086-2.834 3.564-4.483 7.05-9.28 11.621-13.089 1.781-1.07 3.303-2.736 5.168-3.544.979-.692 2.486-.586 3.012-1.961.952-.613 1.948-1.144 3.26-.911 1.625-.314 2.885-1.61 4.791-1.303.242.312.609.361.908.552.149-.384.619.054.758-.384.824-.243 1.261.465 2.075.223.099.081.193.199.337.161.343-.357.979.031 1.296-.35l.082.188c.185.137.414.192.663.161.112.387.542.038.711.324.315-.059.226.26.286.427.864-.072 1.428.11 2.186.28.464.678 1.405.24 2.039.55 1.199.53 2.385 1.566 3.584 2.12 1.035.436 2.271.364 2.994 1.549 5.38 3.179 10.792 9.702 12.796 12.718z"/><path d="m169.596 73.258c.598.48 1.135 1.09 1.844 1.305 2.295 3.262 5.775 6.051 8.463 9.159.717 1.21 1.52 2.385 2.294 3.591.643-.165.535.716 1.073.748.337.78.511 1.609.747 2.427.261.102.487.269.564.544.222.133.481.219.78.245-.14.549.222.906.372 1.321.784 1.173 1.377 2.323 2.185 3.465.037.648.909 2.053 1.322 1.848.41-.21-.403-.73-.413-1.175-.614-1.065-.461-2.438-1.25-3.411-.197-.88-.969-1.536-1.52-2.27.107-.278-.158-.433-.158-.696-.472-.748-1.097-1.166-1.563-1.966.295-.796-.676-1.064-.624-1.761-.199-.265-.47-.823-.758-.823-3.298-5.1-6.79-8.543-12.407-13.429h-.15l-.177-.163c-.507 0-1.09-.048-1.465.205.454.212.367.785.841.836z"/><path d="m131.358 114.517c-.143-.934-2.723-4.858-3.022-5.721-.199-.288-.143-.697-.469-.952-.138-.592-.91-.928-1.135-1.487-.022-.156.12-.476-.182-.433-.067-.371-.483-.581-.71-.875-.288-.144-.558-.521-.588-.93-.324.051-.093-.327-.363-.403.247-.47-.472-.553-.398-.945-.223-.194-4.017-6.039-9.993-9.989-.056.006-1.654-.819-1.727-.831-.315-.542-1.617-1.105-2.155-1.4-1.199-1.056-2.576-1.681-4.016-2.119l-.581-.575c-.299.033-.482-.244-.73-.365-.134.199-.342.239-.505.365-.441-.101-1.105.261-1.361-.365-.641-.127-1.082-.796-1.895-.548-.094.078-.135.211-.202.313-.663-.219-1.215-.472-1.972-.495-.17-.158-.32-.305-.579-.221-.37.56-.761-.179-1.193-.141-.299-.07-.667.02-.893-.229-.559.34-1.343.133-2.024.188-.437.337-1.465 0-2.008.061-.47.227-1.022.236-1.572.227-1.189.338-2.003.172-3.05.835-.208-.293-.835-.106-.694-.504-.277.428-.698.504-1.103.658-.642.278-.995-.369-1.664-.144-.258.265-.654.106-.954.265 0 .549-.642.969-1.052 1.226-1.349.308-3.562-.794-3.967 1.089-.344-.266-.88-.095-1.312-.139-.449.416-1.023.494-1.455.914-1.975.797-3.996 1.505-5.616 3.158-.096-.181-.19-.476-.501-.371.062.322-.303.085-.37.34-.459-.106-.182.408-.254.618-.266.287-.552.509-.907.544-.211.221-.487.387-.37.734-1.192 1.018-2.474 1.828-3.854 2.392-1.216.521-2.145 1.705-3.237 2.486-.127.689-.624 1.212-1.206 1.609-1.648 1.581-3.26 3.274-4.963 4.741-.735.803-1.981 1.03-2.369 2.093-.353.507-.691 1.019-1.194 1.461-.653.29-.852 1.078-1.384 1.565-.763.89-1.378 1.847-2.18 2.732-2.329 1.477-2.778 4.218-5.095 5.691-.787 1.01-1.352 2.104-2.187 3.088-1.505 1.693-2.214 3.694-3.315 5.542v.937c-.199.368-.316.708 0 1.118v.377l-.199.171v.939l.199.372v1.869c-.115.874.747 1.356.721 2.183.812 1.222 2.114 2.273 3.16 3.391 1.2.498 2.145 1.544 3.537 1.5.552.804 1.665.293 2.474.437l.342-.222c.643-.073 1.052-.696 1.704-.724.405 0 .967-.178 1.279.146.342-.069.973.204.973-.361 1.583-.598 3.095-1.711 4.129-3.216.393-.477 1.007-.891.864-1.59.116-.125.302-.236.227-.448.105-.12.222-.221.397-.176.841-.575 1.538-1.383 2.048-2.219.553-.608 1.627-.498 1.888-1.388.089-1.008 1.36-1.528 1.061-2.689.865-1.513 2.415-2.73 3.05-4.35.896-2.11 2.651-3.864 3.829-5.861.653-.682 1.218-1.407 1.707-2.146l4.073-4.622c1.492-1.756 3.169-3.143 4.818-4.779 2.777-2.636 5.909-4.412 9.208-5.789.505-.764 1.404-.47 1.893-1.228 2.165.408 3.585-.992 5.616-.913 3.017-.101 10.036.174 15.252 3.707l.409.392c.89.766 1.82 1.406 2.767 2.056.79.079 1.267.938 2.034 1.088.2.314.555.564.595.947l1.043 1.102.228.026c1.555 1.327 3.094 2.678 4.577 4.179.952 1.173 2.291 2.179 2.521 3.651 1.298.748 1.704 2.19 2.58 3.283-.049.373.374.569.594.796.02 1.084 1.413 1.594 1.674 2.578.04.384-.026.811.394 1.022.206.55.93.593 1.197 1.103.325.283.309.714.298 1.123.93 1.737 2.224 3.322 2.949 5.149.066.851.665 1.464 1.168 2.14v.359c.271.134.038.481.376.582-.056.491.48.27.669.514l-.286-.765c-.432-.418-.162-1.136-.796-1.454-.02-.207.06-.444-.114-.581-.219-1.66-1.791-2.751-1.923-4.456-.144-.32-.681-.152-.587-.615-.335-.259-.123-.773-.189-1.161.056-.629-.681-.469-.89-.997-.283-1.049-1.7-1.636-1.506-2.908-.311-.41-.129-1.167-.809-1.271-.131-.473-.696-.785-.785-1.275-.866-.953-1.389-3.077-2.122-4.072-.263-.495-.828-.866-.727-1.5l-1.86-1.854c-.271.063-.211-.25-.211-.404-.624-.593-1.206-1.2-1.677-1.866v-.729c-.321-.006-.708.742-.94.592-.431.027.232-1.434.145-1.565-1.301-.159-1.181-.852-2.235-1.565-.333-.517-1.357-.539-1.025-1.373-.293-.139-.13-.521-.541-.37-.146-.316-.35-.083-.521 0-.094-.05-.067-.14-.067-.237-.117-.301-.585-.207-.538-.534-.343-.187-.063-.735-.552-.735-.061-.363-.95-.602-1.188-.913-.764.312-.708-.624-.746-1.128-.365-.383-2.294-1.262-2.619-1.666-.791.155-1.312-.912-1.927-1.239-.514-.056-1.105-.066-1.577.16-.231-.227-.536-.289-.733-.594-.053-.547-.703-.42-1.031-.69-.253-.129-.67.128-.852-.215l-1.323-.453c-.354-.336-.88-.233-1.271-.511-.156-.238-.26-.53-.594-.582-.039-.192-.968.757-.929.55l-.748-.819c-.154.022-.27-.028-.375-.104-.477.098-.67-.606-1.092-.653-.009.11.04.259-.02.357h-2.598l-.176.112c-.187.144-.47.121-.592-.117.084-.465-.851.157-.597.327-.222-.145-.88-.054-1.138-.105-.616-.095-.833.249-1.428.541-.134.072-.335.145-.41.29-.083.177.132.476-.146.573 0 .325-.441.15-.615.136v-.136c-.263-.013-.513-.092-.717-.22-1.18-.248-1.965.431-3.034.41-.52.813-1.687 1.018-2.523 1.265-.28.092-.446.339-.786.406-1.221.265-2.495.972-3.539 1.771-.328.229-.51.701-.89.802-.174.045-.351.021-.482.076-.02 0-.465.179-.406.188-.264-.054-.673.012-.885.144-.194-.013-.398-.077-.536-.221l.138-.142c.398-.045.144-.63.221-.945.146-.179.407-.31.433-.551.481-.309.442-1.339 1.345-.972.632-.14 1.288-.194 1.753-.738.874-.311 1.528-1.222 2.354-1.637.393-.194 2.932-.714 2.738-1.344.327.165.421-.292.736-.183.166.249.503.324.586.546.311.134.402-.244.681-.188.133-.176.432-.31.402-.547.322-.035.621.039.881.188.05.457.343-.101.575 0v-.109c0-.117.128-.076.192-.079.107-1.054 1.258-.387 1.895-.581-.133-.255.288-.293.21-.55h.925c.261.305.72.139 1.079.179.114-.218.348-.166.547-.179.249-.332.784-.12 1.167-.181.181.127.627-.151.761-.394l2.434.248c.391.449 1.139.033 1.6.371 1.403.006 2.672.382 3.854.98l.758.543c.493.193 1.057.208 1.463.547 2.128.467 3.812 2.025 5.705 3.026 1.062.936 1.975 1.292 2.998 2.263 1.097.952 2.196 2.017 3.055 3.111 1.985 1.678 3.969 3.658 5.514 5.689.602.774.838.896 1.148 1.531.079.243.648 1.628 1.128 1.739.44 1.001 1.285 2.112 1.827 3.097 1.019 1.279 1.593 3.039 2.735 4.161 0-1.011-1.125-2.861-1.439-4.281-.145-.431-.759-.662-.615-1.229-.896-.842-1.144-1.931-2.048-2.767.091-.305-.132-.481-.168-.731-.318-.574-.859-1.056-.96-1.711-.499-.907-1.622-1.554-1.965-2.522-1.284-1.417-2.063-3.032-3.049-4.581l-.266-.111c-.946-.465-1.977-2.103-2.081-1.994-.526-.26-.882-.821-1.31-1.23-1.143-.899-1.873-1.821-2.99-2.741-.166-.609-.836-.68-1.238-1.013-1.063-.729-2.324-.881-3.177-2.01-.422.038-.741-.075-1.018-.352-.632-.107-1.063-.693-1.694-.786-.526-.466-1.174-.638-1.805-.81-.515-.553-.944.25-1.582-.032-.244-.193-.486-.442-.565-.74-.149.211-.321.099-.458 0-.708.037-1.291-.196-1.793-.607-.555.086-1.284-.308-1.625.289l-.085-.148-1.453-.021c-.632-.492-1.308-.033-2.026-.191-.736.135-1.55.118-2.307.247-1.429-.122-2.375.502-3.92.701-.491.061-1.022-.087-1.609.139-.68-1.183-.039-.752.173-1.312.192-.502-.085.409.009-.121h.329c.839 0 1.437-.575 2.23-.685.796-.661 2.014-.365 2.902-.804.499.382 1.313 0 1.82.321 1.079-.017 2.347.22 3.289-.278.43.029 1.049.161 1.559.135v.183c.714-.072 1.351.083 1.971.309.884.144 1.791.259 2.521.819.748-.167 1.275.253 1.876.48.299.179.549.545.92.545.674.661 1.543.835 2.369 1.179.342.276.757.519 1.155.696-.117.065.455.109.348.153.04.525.722.373.736.88.476-.208.603.37.909.55.598-.095.89.391 1.171.802 1.407 1.244 2.033 1.677 3.449 2.889 1.468 1.752 3.658 3.197 4.818 5.092h.373c.95.674.9 1.747 1.33 2.628.517-.123.689.502 1.114.586.083 1.218 1.743 2.257 2.026 3.393.509.533 1.765 2.789 2.81 4.575.368.629.779.607.683.002z"/></g></svg>