<svg height="800" viewBox="0 0 651.71 800" width="651.71" xmlns="http://www.w3.org/2000/svg"><g stroke="#000"><g stroke-width="3.1982"><path d="m325.8 1.6v331.21l266.32 224.86c38.624-80.913 61.752-196.87 57.421-318.57v-237.5z" fill="#f5d889"/><path d="m325.8 332.81-266.32 224.86c5.007 10.489 10.239 20.462 15.742 29.706 62.703 105.33 166.4 159.39 250.52 210.64l.05.0249.05-.0249c84.12-51.253 187.82-105.31 250.52-210.64 5.5031-9.2444 10.735-19.217 15.742-29.706z" fill="#f84f45"/><path d="m2.1 1.6v237.5c-4.3308 121.7 18.797 237.66 57.421 318.57l266.32-224.86v-331.21z" fill="#84afed"/></g><g stroke-miterlimit="4.0915"><path d="m460.4 487.16h6.87l-3.694 198.5h-272.22l-2.9977-198.5h4.2916" fill="#f2f2f2" stroke-width="1.6228"/><path d="m193.5 486.02 4.3349 193.44h259.37l3.6123-195.07-12.282-10.61c-26.963 8.4886-42.848 3.6972-62.856 0-17.577-4.1855-35.29-7.8094-58.521 11.427-14.226-8.7292-23.445-20.64-67.191-10.61-18.062 3.0806-36.124 5.4781-54.186 0z" fill="#ececec" stroke-width=".94056"/></g><g fill="none"><g stroke-miterlimit="4.0915" stroke-width=".94056"><path d="m205.8 475.41 5.0573 188.54-13.004 15.507 12.928-15.412c14.11 6.8063 32.262 3.8748 52.096-.0959 41.499-3.9175 48.119 5.8054 64.47 12.034 26.475-17.575 47.439-12.414 63.41-10.402 17.821 2.0848 35.642 5.8937 53.464-2.4485l13.013 16.237-12.928-16.228 4.2501-189.36"/><path d="m327.1 675.37-.1309-190.62"/><path d="m329.8 676.79c40.886-25.738 83.444 6.828 115.77-11.127"/><path d="m330.9 678.25c40.724-22.82 86.189 7.1928 117.71-9.6674"/><path d="m451.3 672.23c-31.679 13.577-78.92-11.328-119.32 7.2961 46.293-9.9624 89.32 4.644 122.12-3.8599l4.1606-193.44"/><path d="m451.3 671.86 4.5939-191.7"/><path d="m448.6 668.31 4.7345-190.43"/><path d="m445.9 665.08 4.8752-189.21"/><path d="m324.3 676.79c-40.886-25.738-83.444 6.828-115.77-11.127"/><path d="m323.1 678.25c-40.724-22.82-86.189 7.1928-117.71-9.6674"/><path d="m202.7 672.23c31.679 13.577 78.92-11.328 119.32 7.2961-46.293-9.9624-89.32 4.644-122.12-3.8599l-4.2869-191.63"/><path d="m202.7 673.31-4.5939-191.7"/><path d="m205.5 669.76-4.7344-190.43"/><path d="m208.1 666.54-4.8751-189.21"/></g><path d="m323 678.9c.041-.0356.3064-.24224.5039-.39279 1.0557-.80469 2.3229-1.6534 3.5679-2.3898l.1937-.11456.122.0748c1.0248.62756 2.1765 1.4287 3.1341 2.1802.2147.1685.6329.50681.7547.61058l.052.0443h-4.1716c-4.0368 0-4.1711-.00043-4.1568-.013z" stroke-linecap="round" stroke-linejoin="bevel" stroke-width=".20409"/></g><path d="m193.2 485.97 4.3348 193.44h259.37l3.6124-195.07-12.282-10.61c-26.963 8.4886-42.848 3.6972-62.856 0-17.577-4.1855-35.29-7.8094-58.521 11.427-14.226-8.7292-23.445-20.64-67.191-10.61-18.062 3.0806-36.124 5.4781-54.186 0z" fill="none" stroke-miterlimit="4.0915" stroke-width="1.6228"/><path d="m327.3 674.44c-4.9625 2.8764-8.6597 6.5468-10.035 11.675 7.2462 5.1287 13.467 5.1525 20.07-.3384-2.2498-5.2632-5.792-8.7746-10.035-11.336z" fill="#fff" fill-rule="evenodd" stroke-miterlimit="4.0915" stroke-width=".76317"/><path d="m210.3 354.6c-6.9216 0-30.152.42473-37.481.42473h-30.11c-2.8501 0-15.067 3.6477-15.067 3.6477s-27.695 4.0856-31.359 6.1211c-3.6643 2.0355-14.648 2.034-17.091 2.8482s-10.994 7.7201-10.994 7.7201l-21.989 5.6964-18.741 2.8732-15.017 17.039c9.9428 59.348 26.244 113.11 47.051 156.7l211.17-178.31-2.9735-3.5727-13.443-12.217-8.1459-4.4722s-28.885-4.4971-35.807-4.4971z" fill="#e6e6e6" stroke-width="3.1982"/></g><g stroke-linecap="round" stroke-linejoin="round" stroke-width="1.36"><g fill-rule="evenodd" stroke="#e6e6e6"><path d="m108.1 265.05c-1.1722 5.1328-2.1356 17.201-4.178 21.982-2.5709 6.0182-6.0903 11.8-9.8453 17.211-2.9513 4.2528-8.2761 8.4415-11.493 12.508 2.7138 6.994 4.8752 14.23 8.021 21.034 2.6297 5.6882 5.4658 11.347 8.4609 16.814 3.5472 3.916 5.8187 8.5708 12.719 10.545 10.593 2.2672 10.28 1.1141 14.876 9.4788-6.6175 2.3135-15.08 6.1298-22.546 3.3834l-.8788-7.1759c-2.3102-2.1761-5.4604-1.8124-8.1586-.54239-4.0299-7.8425-7.8048-15.83-11.996-23.581-4.7617-7.4084-6.356-14.675-11.736-21.66-2.1142-2.9004-7.2544-6.0397-9.3685-8.9401 3.0962-4.7276 7.6262-8.983 9.4135-14.138 1.4537-4.1927 1.2551-9.0932 1.2097-13.636-.027-2.6788-1.6936-10.984-1.5715-13.597 3.9352-6.4475 7.8705-12.895 11.806-19.343 4.1128 2.4892 8.0891 5.2582 12.286 7.5754 3.157 1.1388 9.8227.9428 12.98 2.0816z"/><path d="m205 239.03c4.154 14.64-2.0914 42.924-3.5841 56.678-.074 12.896 2.208 25.396 5.7356 37.688.9458 4.5958 3.8362 8.404 6.1849 12.432 5.3652 3.3045 10.572 6.7247 13.725 11.641-9.3847 3.1818-9.6839 3.9362-19.79 1.088l-1.1773-7.1951c-1.459-2.3565-3.562-4.7166-7.9514-5.3285.074-8.301-2.8879-16.026-5.0158-23.958-.9123-7.5778-3.4783-15.065-2.818-22.748-4.9347-5.3152-6.412-12.587-9.6099-18.885l3.2567-25.734z"/><path d="m32.1 225.01-12.616 2.2716c-1.2456.0246-4.6265-3.6598-2.7689-5.6854 3.5043-3.7939 10.701-6.8404 13.326-7.8909 2.1526-.85887 4.4833-1.3562 6.7274-2.0296l-4.6681 13.334z"/></g><path d="m65 260.48 10.517-13.977c6.5386 7.8604 14.142 15.242 19.616 23.581 1.2986 2.2224 2.8995 4.5341-2.8861 4.6506-10.338-3.2138-18.281-9.3607-27.247-14.255z" stroke="#e6e6e6"/><g fill-rule="evenodd"><path d="m206.8 95.49c4.695-7.3806 2.1104-22.806 1.2759-31.67-3.2014 1.9013-6.5791 5.4998-7.572 10.678-1.1637 6.07-1.3005 11.811-.7465 17.723" stroke="#e6e6e6"/><path d="m191.5 92.95c.6523 1.2382 4.074 2.4531 6.1592.85831 1.8784-9.9424-.1693-35.145-12.112-37.831-9.0338-1.6301-9.5638 8.0133-7.5102 16.371.9095-3.6768 1.6539-11.547 5.9479-9.5318 6.8661 3.3492 7.4947 25.642 7.5147 30.133z" stroke="#e6e6e6"/><path d="m197.8 88.72c-.6789.0902-1.357.23216-2.0685.37646-12.988 2.6386-17.732 7.4822-20.66 19.45-6.2283 14.803 1.4714 36.992-5.6489 53.166-.029.0661.2387-.0164.2161.0526-3.6739 11.188-6.8326 21.646-13.029 22.758-27.031 4.852-40.496 8.7666-70.398 6.7426-11.196-.81433-24.149.55853-33.725 6.336-9.8357 5.934-20.28 14.889-22.866 26.421-1.9998 8.9178 2.1093 18.721 4.4154 27.737 3.0441 11.901 7.4193 24.048 5.8353 36.202-1.5133 11.613-5.7107 22.724-10.796 33.426 7.4955 19.893 16.861 34.15 15.577 54.201 5.768-.61713 5.7528 1.8983 6.6277 2.5402l-.6482 9.4325c7.7739 1.8668 15.252.5192 23.581-3.1421-3.6494-7.9935-4.3333-8.4676-13.357-10.801-7.6462-17.283-14.046-34.883-15.443-53.213 18.414-15.016 34.074-31.972 34.277-50.813 2.6535-3.9344 4.613-10.74 9.528-5.15 4.5657 4.0118 9.8315 6.5071 15.877 7.2841 15.347-.69145 31.82 7.5556 47.77-5.9086 2.8869-3.3977 4.8925-1.7473 7.6198 1.8305 7.1891 9.4314 10.512 35.252 6.3916 47.062 5.5807 15.601 1.6988 25.539 2.2033 40.896 4.3517 1.0438 5.1113 4.2187 5.6307 7.5359l-.5004 8.1917c5.4628 1.1085 9.3385 3.9907 21.441-2.3206-1.9885-4.3428-4.5573-7.1482-9.3548-10.663-10.267-5.2066-2.6205-40.811-4.9171-53.902 5.3876-16.361 11.436-27.134 10.743-42.475 3.0945-7.2656 12.734-10.926 15.168-14.636 10.081-15.363 10.967-29.619 9.1957-53.731.2296-20.967-7.2964-39.624-4.0539-54.706 5.5066-1.3311 11.852.53751 16.931 1.1805 5.3625-.5764 11.055-.22395 9.4116-4.0222 2.6551.88197 8.292-.468 8.0107-3.9845 2.9644-6.783-5.4848-11.396-12.58-17.28-3.5294-3.0476-7.2073-5.1295-9.5224-8.2312-1.2171-1.6306-2.2513-5.374-3.7804-7.7188-3.6654-5.6204-6.3818-6.1931-10.761-8.5516-3.6077-1.524-7.5908-2.2029-12.343-1.5714l.0001.00005z" stroke="#ececec"/><path d="m187.2 95.78c.1121.60051 4.2351-.32283 4.2388-1.9469-.4092-8.5308-4.7322-22.896-12.47-29.424-3.8285-3.3307-8.3746-4.202-11.863-2.2232-5.1818 3.1007-4.9324 9.5358-3.1395 14.671.2811-4.0786 1.2959-9.6981 6.5701-9.1067 7.1148 1.4636 14.101 20.099 14.586 30.937" stroke="#e6e6e6"/></g><g fill="#00b914" stroke="#e6e6e6"><path d="m51.3 377.89c2.1003-4.4906 7.0025-3.0336 9.6886-4.0313"/><path d="m103.1 370.77c-.5094-2.6646 4.798-4.4837 8.9362-5.4995"/><path d="m174.8 363.27c3.5573-3.4098 6.7928-5.3325 10.958-5.1166"/><path d="m206.1 351.12c2.0491-2.7619 4.3703-4.455 6.9442-5.156"/></g><path d="m189 98.79c-.5978-5.8784-5.2364-8.4246-9.523-11.696-3.6683-3.2073-17.501-10.537-22.522-7.4847 4.0687 16.038 15.442 15.123 23.449 27.158.408.21288 2.2803-1.2626 2.7093-1.0958" fill-rule="evenodd" stroke="#e6e6e6"/><g stroke="#f2f2f2"><path d="m213 138.8c-11.193 1.1472-15.211-4.8537-20.522-9.9317" fill-rule="evenodd"/><path d="m185.4 100.28c1.6208-2.9556-9.0638-13.891-27.447-20.719"/></g><g fill="none"><path d="m242.8 126.17c1.0135-.54233 2.351.8041 2.9503 1.7848.4747.77684.923 2.1818.1919 2.7244-.9409.69831-2.6414-.27245-3.285-1.2515-.597-.90831-.8155-2.7447.1428-3.2576z" stroke="#f2f2f2"/><path d="m238.6 136.08c-7.3747-2.8768-12.658-4.4338-17.948-4.6109" stroke="#f2f2f2"/><path d="m199.5 108.8c1.529-5.2099 4.6701-3.7541 7.4309-2.4133 3.7816 2.4029 4.2004 2.6182 6.79 2.146" stroke="#ececec"/></g><path d="m204.2 105.52c-3.5412 4.7984 3.2193 6.7851 4.3209 2.1368" fill="#f2f2f2" stroke="#ececec"/></g><g stroke="#000"><g fill="none"><g stroke-width="3.1982"><path d="m255.1 364.79-13.436 10.177-32.979-2.0355 12.622 23.205-16.693 14.248-21.172-1.6284-46.008-11.806-16.286 13.434-23.208-4.4781-24.836-.40711-28.501 10.992 48.546 113.36"/><path d="m73.1 404.68 4.8858 89.562"/><path d="m97.9 406.72 21.986 99.829"/><path d="m121.1 409.98 23.828 75.617"/><path d="m137.8 396.13 20.81 78.056"/><path d="m183.4 408.75 5.7001 39.797"/><path d="m205 410.38 4.9084 20.229"/><path d="m221.7 396.78 6.8249 19.06"/><path d="m241.2 374.96 3.2798 27.051"/></g><g stroke-width="6.3963"><path d="m557.7 386.21-52.324-349.13-.6496-4.3722h-19.89l-.6496 4.2973-52.324 349.2"/><path d="m467.1 53.43h55.277v22.165h-55.277z" stroke-linecap="round"/><path d="m434.6 240.22h120.92v38.674h-120.92z" stroke-linecap="round"/><path d="m469.7 127.04h49.265"/><path d="m461.7 184.65h65.959"/><path d="m439.9 335.07h109.93"/></g><g stroke-linejoin="bevel"><path d="m432 383.92 118.68-49.259-103.42-54.551" stroke-width="6.3963"/><path d="m557.5 383.92-118.68-49.259 103.42-54.551" stroke-width="6.3963"/><g stroke-width="3.9977"><path d="m536 238.99-74.305-53.33 57.468-58.507-40.978-50.392"/><path d="m453.5 238.99 74.305-53.33-57.468-58.507 40.978-50.392"/></g></g><path d="m494.8 385.14v-353.01" stroke-width="3.9977"/></g><g fill="#eac102" fill-rule="evenodd"><path d="m302.4 80.29c-.9709-20.118-9.8709-29.362.1612-60.715l-7.0804-2.6943c-6.7154 31.881-.1036 44.279 1.8608 60.568" stroke-width=".92646"/><path d="m304 264.29c-4.7061-10.085-18.469-33.844-14.105-50.866.8478-3.384.3988-1.9635 1.4166-5.2008 5.541-20.882 11.396-23.122 10.844-45.726-2.9181-.0497-4.4898-.0624-6.6493-.43163 2.9613 13.234-2.0531 22.888-5.8795 33.343-.4924 1.1754-1.3816 3.0202-1.6385 3.839-5.0356 15.017-7.9967 34.404 11.602 66.717" stroke-width=".85195"/><g stroke-linecap="round" stroke-width=".69086"><path d="m306 215.7a6.3329 5.736 88.626 0 1 -2.0865-8.6632 6.3329 5.736 88.626 0 1 7.8367-2.266 6.3329 5.736 88.626 0 1 2.0933 8.6612 6.3329 5.736 88.626 0 1 -7.835 2.2736"/><path d="m305.17 209.49a6.3329 5.736 88.626 0 1 -2.0865-8.6632 6.3329 5.736 88.626 0 1 7.8368-2.2661 6.3329 5.736 88.626 0 1 2.0933 8.6612 6.3329 5.736 88.626 0 1 -7.835 2.2736"/><path d="m296.53 195.84a6.3329 5.736 88.626 0 1 -2.0866-8.6632 6.3329 5.736 88.626 0 1 7.8368-2.2662 6.3329 5.736 88.626 0 1 2.0933 8.6612 6.3329 5.736 88.626 0 1 -7.835 2.2736"/><path d="m279.35 192.6a6.3329 5.736 88.626 0 1 -2.0866-8.6632 6.3329 5.736 88.626 0 1 7.8367-2.266 6.3329 5.736 88.626 0 1 2.0933 8.6612 6.3329 5.736 88.626 0 1 -7.835 2.2736"/><path d="m304.18 192.6a6.3329 5.736 88.626 0 1 -2.0866-8.6632 6.3329 5.736 88.626 0 1 7.8368-2.266 6.3329 5.736 88.626 0 1 2.0933 8.6612 6.3329 5.736 88.626 0 1 -7.835 2.2736"/><path d="m308.41 199.64a6.3329 5.736 88.626 0 1 -2.0866-8.6632 6.3329 5.736 88.626 0 1 7.8369-2.2661 6.3329 5.736 88.626 0 1 2.0933 8.6612 6.3329 5.736 88.626 0 1 -7.835 2.2736"/><path d="m274.18 214.47a6.3329 5.736 88.626 0 1 -2.0865-8.6632 6.3329 5.736 88.626 0 1 7.8367-2.266 6.3329 5.736 88.626 0 1 2.0933 8.6612 6.3329 5.736 88.626 0 1 -7.835 2.2736"/><path d="m279.73 208.42a6.3329 5.736 88.626 0 1 -2.0866-8.6632 6.3329 5.736 88.626 0 1 7.8367-2.266 6.3329 5.736 88.626 0 1 2.0933 8.6612 6.3329 5.736 88.626 0 1 -7.835 2.2736"/><path d="m275.93 202.87a6.3329 5.736 88.626 0 1 -2.0866-8.6632 6.3329 5.736 88.626 0 1 7.8367-2.266 6.3329 5.736 88.626 0 1 2.0933 8.6612 6.3329 5.736 88.626 0 1 -7.835 2.2736"/><path d="m298.54 202.8a6.3329 5.736 88.626 0 1 -2.0866-8.6632 6.3329 5.736 88.626 0 1 7.8369-2.2661 6.3329 5.736 88.626 0 1 2.0933 8.6612 6.3329 5.736 88.626 0 1 -7.835 2.2736"/><path d="m283.49 200.08a6.3329 5.736 88.626 0 1 -2.0866-8.6632 6.3329 5.736 88.626 0 1 7.8368-2.2661 6.3329 5.736 88.626 0 1 2.0933 8.6612 6.3329 5.736 88.626 0 1 -7.835 2.2736"/><path d="m290.73 191.66a6.3329 5.736 88.626 0 1 -2.0865-8.6632 6.3329 5.736 88.626 0 1 7.8368-2.2662 6.3329 5.736 88.626 0 1 2.0933 8.6612 6.3329 5.736 88.626 0 1 -7.835 2.2736"/><path d="m300.05 233.7a6.3329 5.736 88.626 0 1 -2.0866-8.6632 6.3329 5.736 88.626 0 1 7.8368-2.2661 6.3329 5.736 88.626 0 1 2.0933 8.6612 6.3329 5.736 88.626 0 1 -7.835 2.2736"/><path d="m294 233.43a6.3329 5.736 88.626 0 1 -2.0866-8.6632 6.3329 5.736 88.626 0 1 7.8368-2.266 6.3329 5.736 88.626 0 1 2.0933 8.6612 6.3329 5.736 88.626 0 1 -7.835 2.2736"/><path d="m299.51 223.39a6.3329 5.736 88.626 0 1 -2.0866-8.6632 6.3329 5.736 88.626 0 1 7.8369-2.2661 6.3329 5.736 88.626 0 1 2.0933 8.6612 6.3329 5.736 88.626 0 1 -7.835 2.2736"/><path d="m279.34 228.22a6.3329 5.736 88.626 0 1 -2.0866-8.6632 6.3329 5.736 88.626 0 1 7.8369-2.2661 6.3329 5.736 88.626 0 1 2.0933 8.6612 6.3329 5.736 88.626 0 1 -7.835 2.2736"/><path d="m281.84 219.57a6.3329 5.736 88.626 0 1 -2.0866-8.6632 6.3329 5.736 88.626 0 1 7.8368-2.266 6.3329 5.736 88.626 0 1 2.0933 8.6612 6.3329 5.736 88.626 0 1 -7.835 2.2736"/><path d="m288.06 241.44a6.3329 5.736 88.626 0 1 -2.0866-8.6632 6.3329 5.736 88.626 0 1 7.8367-2.266 6.3329 5.736 88.626 0 1 2.0933 8.6612 6.3329 5.736 88.626 0 1 -7.835 2.2736"/><path d="m283.43 249.56a6.3329 5.736 88.626 0 1 -2.0866-8.6632 6.3329 5.736 88.626 0 1 7.8368-2.2661 6.3329 5.736 88.626 0 1 2.0933 8.6612 6.3329 5.736 88.626 0 1 -7.835 2.2736"/><path d="m279.54 240.76a6.3329 5.736 88.626 0 1 -2.0866-8.6632 6.3329 5.736 88.626 0 1 7.8369-2.2661 6.3329 5.736 88.626 0 1 2.0933 8.6612 6.3329 5.736 88.626 0 1 -7.835 2.2736"/><path d="m279.54 240.76a6.3329 5.736 88.626 0 1 -2.0866-8.6632 6.3329 5.736 88.626 0 1 7.8369-2.2661 6.3329 5.736 88.626 0 1 2.0933 8.6612 6.3329 5.736 88.626 0 1 -7.835 2.2736"/><path d="m283.69 233.55a6.3329 5.736 88.626 0 1 -2.0866-8.6632 6.3329 5.736 88.626 0 1 7.8367-2.266 6.3329 5.736 88.626 0 1 2.0933 8.6612 6.3329 5.736 88.626 0 1 -7.835 2.2736"/><path d="m288.3 227.15a6.3329 5.736 88.626 0 1 -2.0866-8.6632 6.3329 5.736 88.626 0 1 7.8368-2.266 6.3329 5.736 88.626 0 1 2.0933 8.6612 6.3329 5.736 88.626 0 1 -7.835 2.2736"/><path d="m293.02 218.58a6.3329 5.736 88.626 0 1 -2.0866-8.6632 6.3329 5.736 88.626 0 1 7.8369-2.2661 6.3329 5.736 88.626 0 1 2.0933 8.6612 6.3329 5.736 88.626 0 1 -7.835 2.2736"/><path d="m295.57 212.26a6.3329 5.736 88.626 0 1 -2.0866-8.6632 6.3329 5.736 88.626 0 1 7.8367-2.266 6.3329 5.736 88.626 0 1 2.0933 8.6612 6.3329 5.736 88.626 0 1 -7.835 2.2736"/><path d="m287.18 212.53a6.3329 5.736 88.626 0 1 -2.0865-8.6632 6.3329 5.736 88.626 0 1 7.8368-2.2662 6.3329 5.736 88.626 0 1 2.0933 8.6612 6.3329 5.736 88.626 0 1 -7.835 2.2736"/><path d="m291.12 203.78a6.3329 5.736 88.626 0 1 -2.0866-8.6632 6.3329 5.736 88.626 0 1 7.8368-2.2661 6.3329 5.736 88.626 0 1 2.0933 8.6612 6.3329 5.736 88.626 0 1 -7.835 2.2736"/></g><path d="m301.4 162.01c-3.9168-8.3938-15.372-28.168-11.74-42.335.7056-2.8165.3319-1.6342 1.179-4.3286 4.6118-17.38 9.4853-19.244 9.0256-38.057-2.4287-.0413-3.7369-.0519-5.5342-.35924 2.4647 11.014-1.7088 19.05-4.8935 27.751-.4098.97829-1.1499 2.5137-1.3637 3.1952-4.1911 12.499-6.6556 28.634 9.6563 55.528" stroke-width=".70907"/><path d="m282.7 144.82s-4.0058.0133-4.1253-.10008c-3.7266-3.5344-7.6362-3.4479-7.05-1.6501.1678.77835 1.147 1.1267-.2161 2.7164l-3.3109.48827s1.0501.8855.6678 1.3339-2.1969.45969-2.1969.45969l.5298.58771-1.0671.31975s.7026.23801.084.82407c-.6188.58603-2.5591 1.5201-2.5591 1.5201s2.6541.94072 3.0026 1.6204c.3485.6797-1.6087 1.0984-1.6087 1.0984s.8924.40372.7634.79165c-.1291.38792-1.2796.76005-1.2796.76005s.8632.37822.6466.68967c-.2166.31144-2.3957 3.0394-2.3957 3.0394s2.0344-.2261 2.3933.3375c.3588.5636-.9579 1.9169-.9579 1.9169s.9054-.49217 1.0129-.24189c.1075.25027-.583 1.243-.583 1.243s1.4369-2.8753.5171.20115c-.9198 3.0765-.9697 3.2832-.9697 3.2832s2.1375-2.2635 2.5548-1.649c.4172.61458-.8859 4.1073-.8859 4.1073s1.23-1.8358 1.7796-1.0743c.1681.23249-.7996 1.5545-.7996 1.5545s1.2869-.53459 1.2051.42644c-.2149 1.1449-.9476 1.8617-1.5325 3.4176.5662-.55608 3.4573-4.3379 4.5248-5.5606 0 0-.1843 1.5963.4756.66555.7047-.99385 1.9796-6.5024 4.5985-4.9919 2.931 1.6905-3.0347 6.511-3.2969 6.629 0 0 1.6443-.87962 1.5885.0103-.056.88986-1.8118 3.5492-1.8118 3.5492s1.2087-.75936 1.3506-.32253c.142.43682-.7827 2.0698-.7827 2.0698s1.0608-.51304 1.1882-.0889c.1273.42408-.6787 1.7853-.6787 1.7853s.9734-.1513 1.1966.16875c.2233.32001-.3037 1.1114-.3037 1.1114l.054-.0779.7219 1.256s.6441-2.4198 1.4192-2.9944c1.4903-.84451 1.038 1.6035.8987 2.7656 0 0 .5873-1.1142.8251-.7814s.2218 1.5702.2218 1.5702.3383-.92485.7752-.57467c.4369.35017.9724 1.9754.9724 1.9754-.1145-.2559.1935-3.5464 1.4707-1.8446.2397.3195.6136 1.4118.6136 1.4118s-.063-1.0562.5416-.77861c.6046.27763 1.8771 1.8892 1.8771 1.8892-.1432-.16838-.6192-3.5151 1.3454-2.2042.5749.38358 1.5268 1.5833 1.5268 1.5833s.1569-.83287.5957-.85649c.4388-.0236.8886 1.1513 1.1594.762s.209-.97515.7624-.96122c.5535.0139 1.1222 1.3552 1.4514 1.0169.3292-.33832 2.5854 1.0058 2.4601.64617-.1252-.35966-1.388-3.402-1.3948-4.4716-.01-1.0697 1.3676.19285 1.3676.19285l-1.2474-1.7149s1.8177.0853 1.6383-.19646c-.1794-.2818-2.907-2.1627-2.907-2.1627l.6042-.59879-2.1986-3.046 1.2879-.50237-2.1021-1.8354.3249-.46717-1.6477-1.8141c-.5021-.78134-2.9269-2.7575-1.4902-3.6789.064-1.4459 2.0385-2.4018 2.9275-1.5005.6615.6707.988 3.042.988 3.042l-.2986 2.9931.5086-.0565.8269 2.7243.4916-.57192.331 3.1674 1.354-1.9465.5848 2.2627s-.1681-1.1642.7498-1.3478c1.2537-.2507 1.6246 1.5437 2.7318 2.0097.3227-1.3452-.5029-5.445 1.5612-4.2685.6652.37916.7803 1.307.7803 1.307l.9291-1.066 1.9067 2.7911s-.1229-2.0159.3283-2.0912c.4513-.0753 1.4768 1.79 1.4768 1.79s-.085-1.2945.3537-1.3181c.4388-.0236 1.1848 1.5351 1.4015 1.2236.2166-.31144.2024-1.6066.737-1.7343s1.1307 1.6129 1.4015 1.2236c.2707-.3893-.077-1.475.7455-1.4766.8223-.002 2.5439 1.4702 2.5439 1.4702s-.6411-2.2493-.5561-3.1136c.085-.86438 1.0756-.0621.8962-.34387-.1795-.2818-.7594-1.101-.5722-1.8762.1872-.77514 1.321-1.2244 1.321-1.2244s-1.4554-.70755-1.3515-1.4303c.1038-.72278 1.7669-1.4608 1.7669-1.4608s-1.248-.87068-1.3515-1.4303c-.1035-.55964.9376-.80825.9376-.80825s-1.5169-.85516-1.5267-1.5833c-.01-.72811 1.4877-1.3292 1.4877-1.3292s-1.6077-.28728-1.9557-.83154c-1.2232-1.9126 2.384-2.1734 2.4253-2.1374 0 0-2.5219-1.232-3.1237-1.8512-.6017-.61922 1.1683-.26274.7168-.62565-.4515-.36292-2.3176-.57066-2.5227-.82601-1.3466-1.6762 4.0203-3.4981 4.0839-3.4425 0 0-1.9026-.94161-2.2646-1.6018-.362-.66022.8166-1.0391.8166-1.0391s-1.5425.0924-1.7095-.24106c-.1669-.33348 1.4335-1.2513 1.0417-1.0928s-1.8165.38509-2.2595.27986 1.3794-1.1735.4874-.70075l-5.977 2.7908c-1.5798.30738-4.2435.76713-4.453-.75924-.5135-3.7412 3.1751-4.1085 5.307-2.2323l2.8094.55845 1.7339-.73871s-.6391-.4642-.08-.69522c.5596-.23102 2.3179-.22887 2.3179-.22887s-.7761-1.1782-.3259-1.2857 2.4241-.449 2.9179-.95649c.4938-.50747-1.3346-.91496-.9428-1.0735.3918-.15849 2.3424-1.2087 2.3424-1.2087s-1.943-.44501-.4341-1.13c1.5088-.68497 2.4964-1.7 2.4964-1.7s-1.5831.15082-2.2181-.18452c-.6349-.33534-.3216-1.1568-.3216-1.1568s-1.4037.43259-1.7594-.0344c-.3556-.46696.3368-1.8335.3368-1.8335s-1.5683.60179-1.9803.14824c-.4119-.45353 1.0663-2.0726.3325-1.9623-.7336.11027-2.2038 1.1106-2.8806.36324s.39-3.6642.1734-3.3528c-.2167.31145-.7335.5485-1.0629.44861-.3294-.0999-.038-1.1596-.2548-.84818-.2166.31145-.5246 1.294-.8124 1.1679-.2877-.12607-.3385-1.6722-.3385-1.6722s-1.1822 1.5646-1.6172.84069c-.435-.72397-.1228-3.7365-.1228-3.7365s-1.3876 1.354-2.0505 1.4636c-.6628.10959-.3842-1.3367-.6009-1.0252-.2166.31145-.7582 1.0901-.7582 1.0901s-.4968-1.3098-.8175-.71377c.1851 1.3817-2.2134 8.4098-3.8725 7.0381-1.3985-1.1563 2.4549-7.7752 2.8384-7.4404 0 0-.754 1.2189-.7794.44585-.025-.77308.7267-5.4977.7267-5.4977s-1.8642 2.815-2.7206 3.5065c-.8564.69147-.4883-1.0521-.705-.74062-.2166.31145-.7171 1.9081-1.2413 1.9196-.5243.0116-.8557-1.8734-.8557-1.8734l-.8826 2.4832s-.9851-2.3619-1.3642-1.8168-.4842 2.9562-1.0154 3.6188c-.5312.66251-.7304-1.5137-1.1095-.9687-.3791.54503-.9494 2.1746-.9494 2.1746s-.5062-3.3203-.9936-2.6196-1.9328 3.3184-1.9328 3.3184-.034-1.0308-.2505-.7193c-.2166.31143-.6744 1.9141-.6744 1.9141l-1.1222-1.3552s.056 2.1988-.5821 2.9959c-1.3429 1.6784-2.7021-1.1078-2.7021-1.1078l.2598 2.7299-.1785 1.4711-1.0925-.45332.518 1.954-1.6299.45415 2.6272 1.3178s-3.4138-.23647-3.4849.14679c-.1828.98623 3.1621 3.7354 6.1098 4.748 2.0761.71322.9733 4.9757.9733 4.9757-.035.32221-.2153.5306-.6174.56684z" stroke-width=".8438"/></g><g stroke-width=".8438"><g fill="none" stroke-linecap="round"><path d="m309.2 165.9.1117.26729c-1.6133-4.0048-4.8888-6.6702-8.2072-8.524-6.6844-3.7342-11.887-7.3206-17.5-12.654 10.761-2.3969 12.173-10.658 16.529-11.622 4.1623-.92127 8.386-.85494 11.224.12247"/><path d="m283.4 144.92c.6514 11.95-6.9889 18.398.1589 26.131 1.8962 2.4741 3.2046 3.5413 4.5202 4.6257"/><path d="m283.4 144.87c-5.4624 3.0326-13.297 13.275-13.657 16.978"/><path d="m283.4 144.82c2.3091-2.6793 4.4354-5.8869 4.6085-7.7488 1.7565-6.9829 4.5553-12.091 5.2339-13.087"/></g><path d="m277 79.98s4.0058-.0133 4.1253.10008c3.7266 3.5344 7.6362 3.4479 7.05 1.6501-.1678-.77835-1.147-1.1267.2161-2.7164l3.3109-.48827s-1.0501-.8855-.6678-1.3339 2.1969-.45969 2.1969-.45969l-.5298-.58771 1.0671-.31975s-.7026-.23801-.084-.82407c.6188-.58603 2.5591-1.5201 2.5591-1.5201s-2.6541-.94072-3.0026-1.6204c-.3485-.6797 1.6087-1.0984 1.6087-1.0984s-.8924-.40372-.7634-.79165c.1291-.38792 1.2796-.76005 1.2796-.76005s-.8632-.37822-.6466-.68967c.2166-.31144 2.3957-3.0394 2.3957-3.0394s-2.0344.2261-2.3933-.3375c-.3588-.5636.9579-1.9169.9579-1.9169s-.9054.49217-1.0129.24189c-.1075-.25027.583-1.243.583-1.243s-1.4369 2.8753-.5171-.20115c.9198-3.0765.9697-3.2832.9697-3.2832s-2.1375 2.2635-2.5548 1.649c-.4172-.61458.8859-4.1073.8859-4.1073s-1.23 1.8358-1.7796 1.0743c-.1681-.23249.7996-1.5545.7996-1.5545s-1.2869.53459-1.2051-.42644c.2149-1.1449.9476-1.8617 1.5325-3.4176-.5662.55608-3.4573 4.3379-4.5248 5.5606 0 0 .1843-1.5963-.4756-.66555-.7047.99385-1.9796 6.5024-4.5985 4.9919-2.931-1.6905 3.0347-6.511 3.2969-6.629 0 0-1.6443.87962-1.5885-.0103.056-.88986 1.8118-3.5492 1.8118-3.5492s-1.2087.75936-1.3506.32253c-.142-.43682.7827-2.0698.7827-2.0698s-1.0608.51304-1.1882.0889c-.1273-.42408.6787-1.7853.6787-1.7853s-.9734.1513-1.1966-.16875c-.2233-.32001.3037-1.1114.3037-1.1114l-.054.0779-.7219-1.256s-.6441 2.4198-1.4192 2.9944c-1.4903.84451-1.038-1.6035-.8987-2.7656 0 0-.5873 1.1142-.8251.7814s-.2218-1.5702-.2218-1.5702-.3383.92485-.7752.57467c-.4369-.35017-.9724-1.9754-.9724-1.9754.1145.2559-.1935 3.5464-1.4707 1.8446-.2397-.3195-.6136-1.4118-.6136-1.4118s.063 1.0562-.5416.77861c-.6046-.27763-1.8771-1.8892-1.8771-1.8892.1432.16838.6192 3.5151-1.3454 2.2042-.5749-.38358-1.5268-1.5833-1.5268-1.5833s-.1569.83287-.5957.85649c-.4388.0236-.8886-1.1513-1.1594-.762s-.209.97515-.7624.96122c-.5535-.0139-1.1222-1.3552-1.4514-1.0169-.3292.33832-2.5854-1.0058-2.4601-.64617.1252.35966 1.388 3.402 1.3948 4.4716.01 1.0697-1.3676-.19285-1.3676-.19285l1.2474 1.7149s-1.8177-.0853-1.6383.19646c.1794.2818 2.907 2.1627 2.907 2.1627l-.6042.59879 2.1986 3.046-1.2879.50237 2.1021 1.8354-.3249.46717 1.6477 1.8141c.5021.78134 2.9269 2.7575 1.4902 3.6789-.064 1.4459-2.0385 2.4018-2.9275 1.5005-.6615-.6707-.988-3.042-.988-3.042l.2986-2.9931-.5086.0565-.8269-2.7243-.4916.57192-.331-3.1674-1.354 1.9465-.5848-2.2627s.1681 1.1642-.7498 1.3478c-1.2537.2507-1.6246-1.5437-2.7318-2.0097-.3227 1.3452.5029 5.445-1.5612 4.2685-.6652-.37916-.7803-1.307-.7803-1.307l-.9291 1.066-1.9067-2.7911s.1229 2.0159-.3283 2.0912c-.4513.0753-1.4768-1.79-1.4768-1.79s.085 1.2945-.3537 1.3181c-.4388.0236-1.1848-1.5351-1.4015-1.2236-.2166.31144-.2024 1.6066-.737 1.7343s-1.1307-1.6129-1.4015-1.2236c-.2707.3893.077 1.475-.7455 1.4766-.8223.002-2.5439-1.4702-2.5439-1.4702s.6411 2.2493.5561 3.1136c-.085.86438-1.0756.0621-.8962.34387.1795.2818.7594 1.101.5722 1.8762-.1872.77514-1.321 1.2244-1.321 1.2244s1.4554.70755 1.3515 1.4303c-.1038.72278-1.7669 1.4608-1.7669 1.4608s1.248.87068 1.3515 1.4303c.1035.55964-.9376.80825-.9376.80825s1.5169.85516 1.5267 1.5833c.01.72811-1.4877 1.3292-1.4877 1.3292s1.6077.28728 1.9557.83154c1.2232 1.9126-2.384 2.1734-2.4253 2.1374 0 0 2.5219 1.232 3.1237 1.8512.6017.61922-1.1683.26274-.7168.62565.4515.36292 2.3176.57066 2.5227.82601 1.3466 1.6762-4.0203 3.4981-4.0839 3.4425 0 0 1.9026.94161 2.2646 1.6018.362.66022-.8166 1.0391-.8166 1.0391s1.5425-.0924 1.7095.24106c.1669.33348-1.4335 1.2513-1.0417 1.0928s1.8165-.38509 2.2595-.27986-1.3794 1.1735-.4874.70075l5.977-2.7908c1.5798-.30738 4.2435-.76713 4.453.75924.5135 3.7412-3.1751 4.1085-5.307 2.2323l-2.8094-.55845-1.7339.73871s.6391.4642.08.69522c-.5596.23102-2.3179.22887-2.3179.22887s.7761 1.1782.3259 1.2857-2.4241.449-2.9179.95649c-.4938.50747 1.3346.91496.9428 1.0735-.3918.15849-2.3424 1.2087-2.3424 1.2087s1.943.44501.4341 1.13c-1.5088.68497-2.4964 1.7-2.4964 1.7s1.5831-.15082 2.2181.18452c.6349.33534.3216 1.1568.3216 1.1568s1.4037-.43259 1.7594.0344c.3556.46696-.3368 1.8335-.3368 1.8335s1.5683-.60179 1.9803-.14824c.4119.45353-1.0663 2.0726-.3325 1.9623.7336-.11027 2.2038-1.1106 2.8806-.36324s-.39 3.6642-.1734 3.3528c.2167-.31145.7335-.5485 1.0629-.44861.3294.0999.038 1.1596.2548.84818.2166-.31145.5246-1.294.8124-1.1679.2877.12607.3385 1.6722.3385 1.6722s1.1822-1.5646 1.6172-.84069c.435.72397.1228 3.7365.1228 3.7365s1.3876-1.354 2.0505-1.4636c.6628-.10959.3842 1.3367.6009 1.0252.2166-.31145.7582-1.0901.7582-1.0901s.4968 1.3098.8175.71377c-.1851-1.3817 2.2134-8.4098 3.8725-7.0381 1.3985 1.1563-2.4549 7.7752-2.8384 7.4404 0 0 .754-1.2189.7794-.44585.025.77308-.7267 5.4977-.7267 5.4977s1.8642-2.815 2.7206-3.5065c.8564-.69147.4883 1.0521.705.74062.2166-.31145.7171-1.9081 1.2413-1.9196.5243-.0116.8557 1.8734.8557 1.8734l.8826-2.4832s.9851 2.3619 1.3642 1.8168.4842-2.9562 1.0154-3.6188c.5312-.66251.7304 1.5137 1.1095.9687.3791-.54503.9494-2.1746.9494-2.1746s.5062 3.3203.9936 2.6196 1.9328-3.3184 1.9328-3.3184.034 1.0308.2505.7193c.2166-.31143.6744-1.9141.6744-1.9141l1.1222 1.3552s-.056-2.1988.5821-2.9959c1.3429-1.6784 2.7021 1.1078 2.7021 1.1078l-.2598-2.7299.1785-1.4711 1.0925.45332-.518-1.954 1.6299-.45415-2.6272-1.3178s3.4138.23647 3.4849-.14679c.1828-.98623-3.1621-3.7354-6.1098-4.748-2.0761-.71322-.9733-4.9757-.9733-4.9757.034-.32221.2153-.5306.6174-.56684z" fill="#eac102" fill-rule="evenodd"/><g fill="none" stroke-linecap="round"><path d="m250.5 58.9-.1117-.26729c1.6133 4.0048 4.8888 6.6702 8.2072 8.524 6.6844 3.7342 11.887 7.3206 17.5 12.654-10.761 2.3969-12.173 10.658-16.529 11.622-4.1623.92127-8.386.85494-11.224-.12247"/><path d="m276.3 79.89c-.6514-11.95 6.9889-18.398-.1589-26.131-1.8962-2.4741-3.2046-3.5413-4.5202-4.6257"/><path d="m276.3 79.93c5.4624-3.0326 13.297-13.275 13.657-16.978"/><path d="m276.3 79.99c-2.3091 2.6793-4.4354 5.8869-4.6085 7.7488-1.7565 6.9829-4.5553 12.091-5.2339 13.087"/></g></g><g fill="#eac102" fill-rule="evenodd"><g stroke-linecap="round" stroke-width=".69086"><path d="m280.38 99.827a5.736 6.3329 1.3743 0 0 2.0866-8.6632 5.736 6.3329 1.3743 0 0 -7.8368-2.266 5.736 6.3329 1.3743 0 0 -2.0933 8.6612 5.736 6.3329 1.3743 0 0 7.835 2.2735"/><path d="m281.21 93.614a5.736 6.3329 1.3743 0 0 2.0866-8.6632 5.736 6.3329 1.3743 0 0 -7.8369-2.2661 5.736 6.3329 1.3743 0 0 -2.0933 8.6612 5.736 6.3329 1.3743 0 0 7.835 2.2735"/><path d="m289.85 79.958a5.736 6.3329 1.3743 0 0 2.0866-8.6632 5.736 6.3329 1.3743 0 0 -7.8369-2.2661 5.736 6.3329 1.3743 0 0 -2.0932 8.6612 5.736 6.3329 1.3743 0 0 7.835 2.2736"/><path d="m307.03 76.722a5.736 6.3329 1.3743 0 0 2.0866-8.6632 5.736 6.3329 1.3743 0 0 -7.8369-2.2661 5.736 6.3329 1.3743 0 0 -2.0933 8.6612 5.736 6.3329 1.3743 0 0 7.835 2.2735"/><path d="m282.19 76.723a5.736 6.3329 1.3743 0 0 2.0865-8.6632 5.736 6.3329 1.3743 0 0 -7.8367-2.266 5.736 6.3329 1.3743 0 0 -2.0933 8.6612 5.736 6.3329 1.3743 0 0 7.835 2.2736"/><path d="m277.97 83.76a5.736 6.3329 1.3743 0 0 2.0866-8.6632 5.736 6.3329 1.3743 0 0 -7.8368-2.2661 5.736 6.3329 1.3743 0 0 -2.0933 8.6612 5.736 6.3329 1.3743 0 0 7.835 2.2736"/><path d="m312.2 98.596a5.736 6.3329 1.3743 0 0 2.0866-8.6632 5.736 6.3329 1.3743 0 0 -7.8369-2.2661 5.736 6.3329 1.3743 0 0 -2.0933 8.6612 5.736 6.3329 1.3743 0 0 7.835 2.2735"/><path d="m306.64 92.54a5.736 6.3329 1.3743 0 0 2.0866-8.6632 5.736 6.3329 1.3743 0 0 -7.8367-2.266 5.736 6.3329 1.3743 0 0 -2.0933 8.6612 5.736 6.3329 1.3743 0 0 7.835 2.2736"/><path d="m310.45 86.993a5.736 6.3329 1.3743 0 0 2.0866-8.6632 5.736 6.3329 1.3743 0 0 -7.8369-2.2661 5.736 6.3329 1.3743 0 0 -2.0933 8.6612 5.736 6.3329 1.3743 0 0 7.835 2.2735"/><path d="m287.84 86.919a5.736 6.3329 1.3743 0 0 2.0866-8.6632 5.736 6.3329 1.3743 0 0 -7.8368-2.2661 5.736 6.3329 1.3743 0 0 -2.0933 8.6612 5.736 6.3329 1.3743 0 0 7.835 2.2736"/><path d="m302.79 84.224a5.736 6.3329 1.3743 0 0 2.0866-8.6632 5.736 6.3329 1.3743 0 0 -7.8368-2.266 5.736 6.3329 1.3743 0 0 -2.0933 8.6612 5.736 6.3329 1.3743 0 0 7.835 2.2735"/><path d="m295.65 75.778a5.736 6.3329 1.3743 0 0 2.0866-8.6632 5.736 6.3329 1.3743 0 0 -7.8368-2.2661 5.736 6.3329 1.3743 0 0 -2.0933 8.6612 5.736 6.3329 1.3743 0 0 7.835 2.2735"/><path d="m286.33 117.82a5.736 6.3329 1.3743 0 0 2.0866-8.6632 5.736 6.3329 1.3743 0 0 -7.8368-2.2661 5.736 6.3329 1.3743 0 0 -2.0933 8.6612 5.736 6.3329 1.3743 0 0 7.835 2.2736"/><path d="m292.38 117.55a5.736 6.3329 1.3743 0 0 2.0866-8.6632 5.736 6.3329 1.3743 0 0 -7.8368-2.2661 5.736 6.3329 1.3743 0 0 -2.0933 8.6612 5.736 6.3329 1.3743 0 0 7.835 2.2736"/><path d="m286.86 107.51a5.736 6.3329 1.3743 0 0 2.0866-8.6632 5.736 6.3329 1.3743 0 0 -7.8367-2.266 5.736 6.3329 1.3743 0 0 -2.0933 8.6612 5.736 6.3329 1.3743 0 0 7.835 2.2736"/><path d="m307.04 112.34a5.736 6.3329 1.3743 0 0 2.0865-8.6632 5.736 6.3329 1.3743 0 0 -7.8367-2.266 5.736 6.3329 1.3743 0 0 -2.0933 8.6612 5.736 6.3329 1.3743 0 0 7.835 2.2736"/><path d="m304.54 103.69a5.736 6.3329 1.3743 0 0 2.0866-8.6632 5.736 6.3329 1.3743 0 0 -7.8367-2.266 5.736 6.3329 1.3743 0 0 -2.0933 8.6612 5.736 6.3329 1.3743 0 0 7.835 2.2736"/><path d="m298.31 125.56a5.736 6.3329 1.3743 0 0 2.0866-8.6632 5.736 6.3329 1.3743 0 0 -7.8369-2.2661 5.736 6.3329 1.3743 0 0 -2.0933 8.6612 5.736 6.3329 1.3743 0 0 7.835 2.2736"/><path d="m302.85 133.71a5.736 6.3329 1.3743 0 0 2.0866-8.6632 5.736 6.3329 1.3743 0 0 -7.8369-2.2661 5.736 6.3329 1.3743 0 0 -2.0932 8.6612 5.736 6.3329 1.3743 0 0 7.835 2.2736"/><path d="m306.83 124.88a5.736 6.3329 1.3743 0 0 2.0866-8.6632 5.736 6.3329 1.3743 0 0 -7.8368-2.2661 5.736 6.3329 1.3743 0 0 -2.0933 8.6612 5.736 6.3329 1.3743 0 0 7.835 2.2736"/><path d="m306.83 124.88a5.736 6.3329 1.3743 0 0 2.0866-8.6632 5.736 6.3329 1.3743 0 0 -7.8368-2.2661 5.736 6.3329 1.3743 0 0 -2.0933 8.6612 5.736 6.3329 1.3743 0 0 7.835 2.2736"/><path d="m302.68 117.68a5.736 6.3329 1.3743 0 0 2.0865-8.6632 5.736 6.3329 1.3743 0 0 -7.8368-2.2661 5.736 6.3329 1.3743 0 0 -2.0933 8.6612 5.736 6.3329 1.3743 0 0 7.835 2.2736"/><path d="m298.08 111.27a5.736 6.3329 1.3743 0 0 2.0866-8.6632 5.736 6.3329 1.3743 0 0 -7.8368-2.2661 5.736 6.3329 1.3743 0 0 -2.0933 8.6612 5.736 6.3329 1.3743 0 0 7.835 2.2736"/><path d="m293.36 102.7a5.736 6.3329 1.3743 0 0 2.0866-8.6632 5.736 6.3329 1.3743 0 0 -7.8368-2.2661 5.736 6.3329 1.3743 0 0 -2.0933 8.6612 5.736 6.3329 1.3743 0 0 7.835 2.2736"/><path d="m290.8 96.377a5.736 6.3329 1.3743 0 0 2.0865-8.6632 5.736 6.3329 1.3743 0 0 -7.8367-2.266 5.736 6.3329 1.3743 0 0 -2.0933 8.6612 5.736 6.3329 1.3743 0 0 7.835 2.2735"/><path d="m299.2 96.656a5.736 6.3329 1.3743 0 0 2.0866-8.6632 5.736 6.3329 1.3743 0 0 -7.8368-2.266 5.736 6.3329 1.3743 0 0 -2.0932 8.6612 5.736 6.3329 1.3743 0 0 7.8349 2.2736"/><path d="m295.26 87.898a5.736 6.3329 1.3743 0 0 2.0866-8.6632 5.736 6.3329 1.3743 0 0 -7.8368-2.2661 5.736 6.3329 1.3743 0 0 -2.0933 8.6612 5.736 6.3329 1.3743 0 0 7.835 2.2735"/></g><path d="m278.8 282.17s2.7209-2.9396 2.8854-2.9498c5.1266-.31689 7.7283-3.236 6.0132-4.0327-.6839-.40782-1.6063.0711-1.8403-2.0098l1.8996-2.7549s-1.3638.16452-1.4313-.42079c-.068-.58533 1.1612-1.9205 1.1612-1.9205l-.7912-.0131.4934-.99863s-.6531.35177-.6601-.50043c-.01-.85218.6321-2.9083.6321-2.9083s-2.4976 1.3004-3.2325 1.092c-.735-.20841.2928-1.9256.2928-1.9256s-.9037.37763-1.0996.0188c-.1959-.35884.316-1.4542.316-1.4542s-.8652.37366-.9454.003c-.08-.37078-.591-3.8244-.591-3.8244s-1.2213 1.6424-1.8784 1.5207c-.657-.12168-.7497-2.0074-.7497-2.0074s-.2571.99791-.5135.90593c-.2564-.092-.5121-1.2738-.5121-1.2738s1.1246 3.0112-.4997.24115c-1.6242-2.77-1.7415-2.9475-1.7415-2.9475s.1992 3.1068-.5349 2.9931-2.4016-3.4479-2.4016-3.4479.5049 2.1512-.427 2.0342c-.2847-.0355-.5924-1.6446-.5924-1.6446s-.4861 1.3059-1.1336.59091c-.6913-.93763-.7163-1.9622-1.4561-3.4508.021.7933.8175 5.4863.9845 7.1007 0 0-1.0424-1.223-.8112-.10574.2469 1.193 3.4087 5.8807.5182 6.767-3.2351.99185-2.6958-6.6584-2.6034-6.9307 0 0-.4772 1.8025-1.0903 1.155-.6131-.64744-1.3621-3.7448-1.3621-3.7448s-.2683 1.4018-.6847 1.2079-.9811-1.9836-.9811-1.9836-.3477 1.1258-.7448.92985c-.3972-.1959-.8438-1.7134-.8438-1.7134s-.5528.81525-.9392.76037c-.3863-.0548-.6062-.97983-.6062-.97983l.02.0927-1.4112-.32809s1.3316 2.1206 1.2238 3.0794c-.3979 1.6659-1.881-.33366-2.6364-1.2278 0 0 .415 1.1891.01 1.1363-.4057-.0529-1.3003-.90815-1.3003-.90815s.4462.8779-.1078.95881c-.5541.0809-2.1084-.63516-2.1084-.63516.2653.0907 2.4632 2.5591.3472 2.3333-.3972-.0425-1.4513-.51348-1.4513-.51348s.8159.67388.2006.92696c-.6154.25308-2.662.0854-2.662.0854.2208.01 2.9942 1.9432.6958 2.4869-.6726.15908-2.1993.0376-2.1993.0376s.5025.68257.2206 1.0197c-.2818.3371-1.4482-.13474-1.3479.32874s.5711.81763.1836 1.213c-.3874.39539-1.7566-.10288-1.7335.36857.023.47144-2.4983 1.2057-2.1498 1.3592.3486.15354 3.4356 1.3036 4.2229 2.0278.7874.72421-1.0733.869-1.0733.869l2.1052.25641s-1.3016 1.2716-.973 1.3325c.3285.0608 3.5641-.65242 3.5641-.65242l.026.8502 3.7277.46791-.5104 1.2847 2.7761-.28671.1204.55618 2.4506.0312c.9141.16528 4.0131-.2615 3.708 1.4176 1.0144 1.0324.3678 3.1286-.8977 3.1645-.9417.0267-2.8995-1.3508-2.8995-1.3508l-1.9866-2.2588-.3053.41061-2.5572-1.2522.083.74954-2.5434-1.917.5015 2.3174-2.0544-1.1146s.9665.67066.4751 1.4672c-.6712 1.0881-2.2371.13627-3.3328.62851.7643 1.153 4.3272 3.3438 2.0593 4.0519-.7309.2282-1.4883-.32013-1.4883-.32013l.1466 1.4064-3.3422-.50773s1.559 1.2842 1.3065 1.6656c-.2525.38147-2.3165-.13982-2.3165-.13982s1.0052.82017.7234 1.1573-1.931-.17964-1.8507.19114c.08.37078 1.0376 1.2433.7666 1.7214s-1.951-.27234-1.8507.19114 1.1317.94925.5723 1.5519c-.5594.6027-2.8099.85882-2.8099.85882s2.0829 1.0642 2.6574 1.7156c.5746.65142-.6877.82918-.3592.89002.3285.0608 1.3233.19502 1.7629.86038.4396.66535 0 1.801 0 1.801s1.5098-.58238 1.9679-.0137c.4581.56867-.1355 2.2884-.1355 2.2884s1.4879-.31951 1.968-.0137c.48.30579-.048 1.2369-.048 1.2369s1.6599-.52681 2.1993-.0376c.5395.48919-.041 1.9944-.041 1.9944s1.3062-.98029 1.9417-.8639c2.2333.40902-.035 3.2257-.089 3.2313 0 0 2.6207-1.0051 3.4839-1.0232.8633-.0181-.6041 1.0338-.031.95085.5733-.0829 1.9974-1.3065 2.3241-1.2825 2.1445.15758-.1808 5.3256-.2649 5.3343 0 0 1.9861-.75003 2.716-.56481.7299.18523.2036 1.3057.2036 1.3057s.9839-1.1914 1.3417-1.0862c.3579.10519-.062 1.9017.09 1.507.1511-.39468.9565-1.5914 1.3355-1.8438.379-.25235-.082 1.809.1805.83427l2.0322-6.275c.8519-1.3652 2.3313-3.6273 3.591-2.7401 3.0878 2.1746.8421 5.1234-1.9841 5.4041l-2.3237 1.6745-.6415 1.7721s.7754-.15115.563.4157-1.4126 1.8517-1.4126 1.8517 1.3912.2354 1.163.63804-1.3239 2.0794-1.2891 2.7866c.035.70715 1.5792-.35262 1.4281.0421-.1511.39468-.7123 2.5375-.7123 2.5375s1.6501-1.1181 1.1228.45264c-.5273 1.5708-.4578 2.9851-.4578 2.9851s.9688-1.261 1.647-1.4969c.6782-.23589 1.0658.55329 1.0658.55329s.6403-1.3218 1.2245-1.2636c.5841.0581 1.1121 1.4962 1.1121 1.4962s.6287-1.5576 1.2414-1.5497c.6126.008.7898 2.1929 1.2092 1.5809.4195-.6119.6896-2.3693 1.6979-2.355s2.4154 2.7831 2.3352 2.4123c-.08-.37078.099-.91048.3963-1.0834.2976-.17289.8745.76257.7943.39182-.08-.37079-.5893-1.2659-.3009-1.3905.2884-.12455 1.4545.89224 1.4545.89224s-.3391-1.9314.4872-1.7561c.8263.17528 2.8179 2.4572 2.8179 2.4572s-.045-1.9381.3268-2.4977c.3716-.5596 1.24.63008 1.1598.25928-.08-.37078-.2808-1.2977-.2808-1.2977s1.2971.52941 1.0796-.1115c-1.1373-.80647-4.6451-7.352-2.5104-7.6306 1.7994-.23488 4.0161 7.096 3.5097 7.1483 0 0-.3779-1.3825.2051-.87411s3.5275 4.2793 3.5275 4.2793-.7891-3.2827-.7113-4.3806c.078-1.0978 1.1027.35991 1.0225-.0109-.08-.37079-.9074-1.8253-.5585-2.2167s1.9541.65107 1.9541.65107l-1.2155-2.3384s2.3999.88935 2.2595.24048-1.8332-2.3694-1.9559-3.2096 1.6056.49756 1.4652-.15132-.9441-2.1769-.9441-2.1769 2.7747 1.8931 2.5942 1.0588c-.1805-.83426-1.1107-3.676-1.1107-3.676s.7773.67785.6971.30706c-.08-.37078-.9409-1.7982-.9409-1.7982l1.7566.10288s-1.6469-1.4582-1.7954-2.4681c-.3128-2.1265 2.6526-1.2216 2.6526-1.2216l-2.1747-1.6708-.9548-1.1334 1.0765-.49025-1.783-.95308.7787-1.5019-2.7551 1.0236s2.5001-2.3362 2.2681-2.6494c-.597-.80604-4.8889-.23303-7.6392 1.2331-1.9372 1.0326-4.3045-2.6797-4.3045-2.6797-.2123-.24488-.2415-.51923.01-.83813z" stroke-width=".8438"/></g><g fill="none" stroke-linecap="round" stroke-width=".8438"><path d="m245.3 287.19-.2717-.1005c4.0303 1.5497 8.2135.97039 11.832-.19352 7.2891-2.3446 13.46-3.7059 21.189-4.1764-5.5816 9.5063-.4992 16.171-2.7631 20.015-2.1632 3.673-5.0909 6.7177-7.7406 8.1274"/><path d="m278.2 282.65c-9.1886-7.6696-8.6983-17.654-19.23-17.696-3.1031-.2993-4.7759-.0696-6.4662.15359"/><path d="m278.2 282.66c1.5045-6.0633-.6499-18.777-3.1141-21.564"/><path d="m278.3 282.71c.3866 3.5156 1.2844 7.2577 2.5287 8.6536 3.9125 6.045 5.7425 11.575 6.0085 12.75"/></g><g fill="#eac102" fill-rule="evenodd"><path d="m297.2 285.25c-6.382 19.103-1.4347 30.943-22.142 56.534l5.6238 5.0754c17.808-27.285 16.136-41.236 20.204-57.129" stroke-width=".92646"/><g stroke-linecap="round" stroke-width=".69086"><path d="m288.45 289.24a5.736 6.3329 1.3743 0 0 2.0866-8.6632 5.736 6.3329 1.3743 0 0 -7.8368-2.2662 5.736 6.3329 1.3743 0 0 -2.0933 8.6612 5.736 6.3329 1.3743 0 0 7.835 2.2736"/><path d="m289.27 283.03a5.736 6.3329 1.3743 0 0 2.0865-8.6632 5.736 6.3329 1.3743 0 0 -7.8367-2.266 5.736 6.3329 1.3743 0 0 -2.0933 8.6612 5.736 6.3329 1.3743 0 0 7.835 2.2736"/><path d="m297.91 269.37a5.736 6.3329 1.3743 0 0 2.0866-8.6632 5.736 6.3329 1.3743 0 0 -7.8369-2.2661 5.736 6.3329 1.3743 0 0 -2.0933 8.6612 5.736 6.3329 1.3743 0 0 7.835 2.2736"/><path d="m315.09 266.13a5.736 6.3329 1.3743 0 0 2.0865-8.6632 5.736 6.3329 1.3743 0 0 -7.8367-2.266 5.736 6.3329 1.3743 0 0 -2.0933 8.6612 5.736 6.3329 1.3743 0 0 7.835 2.2736"/><path d="m290.26 266.14a5.736 6.3329 1.3743 0 0 2.0866-8.6632 5.736 6.3329 1.3743 0 0 -7.8369-2.2661 5.736 6.3329 1.3743 0 0 -2.0933 8.6612 5.736 6.3329 1.3743 0 0 7.835 2.2736"/><path d="m286.03 273.17a5.736 6.3329 1.3743 0 0 2.0866-8.6632 5.736 6.3329 1.3743 0 0 -7.8368-2.266 5.736 6.3329 1.3743 0 0 -2.0933 8.6612 5.736 6.3329 1.3743 0 0 7.835 2.2736"/><path d="m320.27 288.01a5.736 6.3329 1.3743 0 0 2.0865-8.6632 5.736 6.3329 1.3743 0 0 -7.8368-2.2661 5.736 6.3329 1.3743 0 0 -2.0933 8.6612 5.736 6.3329 1.3743 0 0 7.835 2.2736"/><path d="m314.71 281.95a5.736 6.3329 1.3743 0 0 2.0866-8.6632 5.736 6.3329 1.3743 0 0 -7.8368-2.266 5.736 6.3329 1.3743 0 0 -2.0933 8.6612 5.736 6.3329 1.3743 0 0 7.835 2.2736"/><path d="m318.52 276.41a5.736 6.3329 1.3743 0 0 2.0866-8.6632 5.736 6.3329 1.3743 0 0 -7.8369-2.2661 5.736 6.3329 1.3743 0 0 -2.0933 8.6612 5.736 6.3329 1.3743 0 0 7.835 2.2736"/><path d="m295.91 276.33a5.736 6.3329 1.3743 0 0 2.0866-8.6632 5.736 6.3329 1.3743 0 0 -7.8368-2.2661 5.736 6.3329 1.3743 0 0 -2.0933 8.6612 5.736 6.3329 1.3743 0 0 7.835 2.2736"/><path d="m310.85 273.64a5.736 6.3329 1.3743 0 0 2.0865-8.6632 5.736 6.3329 1.3743 0 0 -7.8367-2.266 5.736 6.3329 1.3743 0 0 -2.0933 8.6612 5.736 6.3329 1.3743 0 0 7.835 2.2736"/><path d="m303.71 265.19a5.736 6.3329 1.3743 0 0 2.0866-8.6632 5.736 6.3329 1.3743 0 0 -7.8368-2.2661 5.736 6.3329 1.3743 0 0 -2.0933 8.6612 5.736 6.3329 1.3743 0 0 7.835 2.2736"/><path d="m294.39 307.23a5.736 6.3329 1.3743 0 0 2.0866-8.6632 5.736 6.3329 1.3743 0 0 -7.8368-2.2662 5.736 6.3329 1.3743 0 0 -2.0933 8.6612 5.736 6.3329 1.3743 0 0 7.835 2.2736"/><path d="m300.45 306.96a5.736 6.3329 1.3743 0 0 2.0865-8.6632 5.736 6.3329 1.3743 0 0 -7.8367-2.266 5.736 6.3329 1.3743 0 0 -2.0933 8.6612 5.736 6.3329 1.3743 0 0 7.835 2.2736"/><path d="m294.93 296.92a5.736 6.3329 1.3743 0 0 2.0866-8.6632 5.736 6.3329 1.3743 0 0 -7.8369-2.2661 5.736 6.3329 1.3743 0 0 -2.0933 8.6612 5.736 6.3329 1.3743 0 0 7.835 2.2736"/><path d="m315.1 301.75a5.736 6.3329 1.3743 0 0 2.0866-8.6632 5.736 6.3329 1.3743 0 0 -7.8368-2.266 5.736 6.3329 1.3743 0 0 -2.0933 8.6612 5.736 6.3329 1.3743 0 0 7.835 2.2736"/><path d="m312.61 293.1a5.736 6.3329 1.3743 0 0 2.0866-8.6632 5.736 6.3329 1.3743 0 0 -7.8368-2.266 5.736 6.3329 1.3743 0 0 -2.0932 8.6612 5.736 6.3329 1.3743 0 0 7.835 2.2736"/><path d="m306.28 314.99a5.736 6.3329 1.3743 0 0 2.0866-8.6632 5.736 6.3329 1.3743 0 0 -7.8369-2.2661 5.736 6.3329 1.3743 0 0 -2.0933 8.6612 5.736 6.3329 1.3743 0 0 7.835 2.2736"/><path d="m310.92 323.12a5.736 6.3329 1.3743 0 0 2.0866-8.6632 5.736 6.3329 1.3743 0 0 -7.8369-2.2661 5.736 6.3329 1.3743 0 0 -2.0933 8.6612 5.736 6.3329 1.3743 0 0 7.835 2.2736"/><path d="m314.9 314.29a5.736 6.3329 1.3743 0 0 2.0866-8.6632 5.736 6.3329 1.3743 0 0 -7.8369-2.2661 5.736 6.3329 1.3743 0 0 -2.0933 8.6612 5.736 6.3329 1.3743 0 0 7.835 2.2736"/><path d="m314.9 314.29a5.736 6.3329 1.3743 0 0 2.0866-8.6632 5.736 6.3329 1.3743 0 0 -7.8369-2.2661 5.736 6.3329 1.3743 0 0 -2.0933 8.6612 5.736 6.3329 1.3743 0 0 7.835 2.2736"/><path d="m310.75 307.08a5.736 6.3329 1.3743 0 0 2.0865-8.6632 5.736 6.3329 1.3743 0 0 -7.8368-2.2661 5.736 6.3329 1.3743 0 0 -2.0933 8.6612 5.736 6.3329 1.3743 0 0 7.835 2.2736"/><path d="m306.14 300.68a5.736 6.3329 1.3743 0 0 2.0866-8.6632 5.736 6.3329 1.3743 0 0 -7.8369-2.2661 5.736 6.3329 1.3743 0 0 -2.0933 8.6612 5.736 6.3329 1.3743 0 0 7.835 2.2736"/><path d="m301.42 292.11a5.736 6.3329 1.3743 0 0 2.0866-8.6632 5.736 6.3329 1.3743 0 0 -7.8368-2.2661 5.736 6.3329 1.3743 0 0 -2.0933 8.6612 5.736 6.3329 1.3743 0 0 7.835 2.2736"/><path d="m298.87 285.79a5.736 6.3329 1.3743 0 0 2.0865-8.6632 5.736 6.3329 1.3743 0 0 -7.8367-2.266 5.736 6.3329 1.3743 0 0 -2.0933 8.6612 5.736 6.3329 1.3743 0 0 7.835 2.2736"/><path d="m307.27 286.07a5.736 6.3329 1.3743 0 0 2.0866-8.6632 5.736 6.3329 1.3743 0 0 -7.8368-2.266 5.736 6.3329 1.3743 0 0 -2.0933 8.6612 5.736 6.3329 1.3743 0 0 7.835 2.2736"/><path d="m303.32 277.31a5.736 6.3329 1.3743 0 0 2.0866-8.6632 5.736 6.3329 1.3743 0 0 -7.8368-2.2662 5.736 6.3329 1.3743 0 0 -2.0933 8.6612 5.736 6.3329 1.3743 0 0 7.835 2.2736"/></g></g><path d="m325.9 798.01c84.12-51.253 187.81-105.31 250.51-210.64 47.954-80.556 78.081-210.79 73.189-348.27v-237.5h-647.47v237.5c-4.8922 137.48 25.216 267.71 73.17 348.27 62.703 105.33 166.39 159.39 250.51 210.64l.043.032z" fill="none" stroke-width="3.1982"/></g></svg>