<svg height="1045.0044" width="900" xmlns="http://www.w3.org/2000/svg"><g stroke="#000" transform="matrix(1.017924 0 0 1.0157414 51.423268 -63.269727)"><path d="m391.50924 1089.0395c-114.22119-65.9467-233.29572-145.78455-318.435969-281.31415-65.1137602-103.65072-127.73459-260.93502-121.09178-437.82327v-305.594713h879.153709v305.594713c6.64281 176.88825-55.95342 334.17255-121.06719 437.82327-85.14024 135.5296-204.21458 215.36745-318.43577 281.31415l-.0585.041z" fill="#fe3931" stroke-width="4.03199"/><g fill="#d3bc5f"><g transform="translate(-1.363)"><path d="m496.88074 416.57416h6.2207v443.44177h-6.2207z" stroke-linecap="round"/><path d="m496.51291 619.02236c-5.80807-26.13229-22.52157-70.71996-36.10827-68.94111v-153.38397h-1.89029v155.36428c-1.58025 39.32461 25.32386 81.55042 35.98416 79.06871 3.84001-1.55066 2.60935-9.41824 2.0144-12.10791z"/><path d="m497.00313 566.98423c-2.10342-25.56572-18.38266-74.9771-32.69845-73.1028v-153.38397h-1.89029v155.36428c-1.54015 38.32659 20.72295 79.40898 31.32454 79.17205 4.06351-.49741 3.48493-5.31011 3.2642-8.04956z"/><path d="m498.03412 507.41984c-2.17152-25.52578-15.01374-75.38293-29.40933-73.49818v-153.38397h-1.89029v155.36428c-1.48887 37.0506 16.46026 76.67657 26.76459 79.05994 4.93262.54375 4.79408-4.45982 4.53503-7.54207z"/><path d="m498.30909 448.62761c-.36799-24.94565-12.24866-67.01132-25.22833-65.2539v-135.16489h-1.66576v136.90998c-1.29889 29.91358 9.33905 61.73218 19.67507 68.47031 6.35396 2.96478 7.28983.29077 7.21902-4.9615z"/><path d="m503.46928 619.02236c5.80807-26.13229 22.52157-70.71996 36.10827-68.94111v-153.38397h1.89029v155.36428c1.58025 39.32461-25.32386 81.55042-35.98416 79.06871-3.84001-1.55066-2.60935-9.41824-2.0144-12.10791z"/><path d="m502.97906 566.98423c2.10342-25.56572 18.38266-74.9771 32.69845-73.1028v-153.38397h1.89029v155.36428c1.54015 38.32659-20.72295 79.40898-31.32454 79.17205-4.06351-.49741-3.48493-5.31011-3.2642-8.04956z"/><path d="m501.94807 507.41984c2.17152-25.52578 15.01374-75.38293 29.40933-73.49818v-153.38397h1.89029v155.36428c1.48887 37.0506-16.46026 76.67657-26.76459 79.05994-4.93262.54375-4.79408-4.45982-4.53503-7.54207z"/><path d="m501.6731 448.62761c.36799-24.94565 12.24866-67.01132 25.22833-65.2539v-135.16489h1.66576v136.90998c1.29889 29.91358-9.33905 61.73218-19.67507 68.47031-6.35396 2.96478-7.28983.29077-7.21902-4.9615z"/><path d="m552.53125 168.375v110.84375c-17.57272 3.21255-7.66907 72.08761-1.1329 75.08185 1.42682.40521 3.23739.43412 4.22193-.1154 6.53417-4.31222 16.04992-71.7875-1.33903-74.96645v-110.84375h-.0937-1.5625z" transform="translate(-53.415389 65.681017)"/></g><g transform="translate(118.637)"><path d="m496.88074 416.57416h6.2207v443.44177h-6.2207z" stroke-linecap="round"/><path d="m496.51291 619.02236c-5.80807-26.13229-22.52157-70.71996-36.10827-68.94111v-153.38397h-1.89029v155.36428c-1.58025 39.32461 25.32386 81.55042 35.98416 79.06871 3.84001-1.55066 2.60935-9.41824 2.0144-12.10791z"/><path d="m497.00313 566.98423c-2.10342-25.56572-18.38266-74.9771-32.69845-73.1028v-153.38397h-1.89029v155.36428c-1.54015 38.32659 20.72295 79.40898 31.32454 79.17205 4.06351-.49741 3.48493-5.31011 3.2642-8.04956z"/><path d="m498.03412 507.41984c-2.17152-25.52578-15.01374-75.38293-29.40933-73.49818v-153.38397h-1.89029v155.36428c-1.48887 37.0506 16.46026 76.67657 26.76459 79.05994 4.93262.54375 4.79408-4.45982 4.53503-7.54207z"/><path d="m498.30909 448.62761c-.36799-24.94565-12.24866-67.01132-25.22833-65.2539v-135.16489h-1.66576v136.90998c-1.29889 29.91358 9.33905 61.73218 19.67507 68.47031 6.35396 2.96478 7.28983.29077 7.21902-4.9615z"/><path d="m503.46928 619.02236c5.80807-26.13229 22.52157-70.71996 36.10827-68.94111v-153.38397h1.89029v155.36428c1.58025 39.32461-25.32386 81.55042-35.98416 79.06871-3.84001-1.55066-2.60935-9.41824-2.0144-12.10791z"/><path d="m502.97906 566.98423c2.10342-25.56572 18.38266-74.9771 32.69845-73.1028v-153.38397h1.89029v155.36428c1.54015 38.32659-20.72295 79.40898-31.32454 79.17205-4.06351-.49741-3.48493-5.31011-3.2642-8.04956z"/><path d="m501.94807 507.41984c2.17152-25.52578 15.01374-75.38293 29.40933-73.49818v-153.38397h1.89029v155.36428c1.48887 37.0506-16.46026 76.67657-26.76459 79.05994-4.93262.54375-4.79408-4.45982-4.53503-7.54207z"/><path d="m501.6731 448.62761c.36799-24.94565 12.24866-67.01132 25.22833-65.2539v-135.16489h1.66576v136.90998c1.29889 29.91358-9.33905 61.73218-19.67507 68.47031-6.35396 2.96478-7.28983.29077-7.21902-4.9615z"/><path d="m552.53125 168.375v110.84375c-17.57272 3.21255-7.66907 72.08761-1.1329 75.08185 1.42682.40521 3.23739.43412 4.22193-.1154 6.53417-4.31222 16.04992-71.7875-1.33903-74.96645v-110.84375h-.0937-1.5625z" transform="translate(-53.415389 65.681017)"/></g><g transform="translate(238.637)"><path d="m496.80783 416.50125h6.36653v316.12769h-6.36653z" stroke-linecap="round" stroke-width=".854171"/><path d="m496.51291 619.02236c-5.80807-26.13229-22.52157-70.71996-36.10827-68.94111v-153.38397h-1.89029v155.36428c-1.58025 39.32461 25.32386 81.55042 35.98416 79.06871 3.84001-1.55066 2.60935-9.41824 2.0144-12.10791z"/><path d="m497.00313 566.98423c-2.10342-25.56572-18.38266-74.9771-32.69845-73.1028v-153.38397h-1.89029v155.36428c-1.54015 38.32659 20.72295 79.40898 31.32454 79.17205 4.06351-.49741 3.48493-5.31011 3.2642-8.04956z"/><path d="m498.03412 507.41984c-2.17152-25.52578-15.01374-75.38293-29.40933-73.49818v-153.38397h-1.89029v155.36428c-1.48887 37.0506 16.46026 76.67657 26.76459 79.05994 4.93262.54375 4.79408-4.45982 4.53503-7.54207z"/><path d="m498.30909 448.62761c-.36799-24.94565-12.24866-67.01132-25.22833-65.2539v-135.16489h-1.66576v136.90998c-1.29889 29.91358 9.33905 61.73218 19.67507 68.47031 6.35396 2.96478 7.28983.29077 7.21902-4.9615z"/><path d="m503.46928 619.02236c5.80807-26.13229 22.52157-70.71996 36.10827-68.94111v-153.38397h1.89029v155.36428c1.58025 39.32461-25.32386 81.55042-35.98416 79.06871-3.84001-1.55066-2.60935-9.41824-2.0144-12.10791z"/><path d="m502.97906 566.98423c2.10342-25.56572 18.38266-74.9771 32.69845-73.1028v-153.38397h1.89029v155.36428c1.54015 38.32659-20.72295 79.40898-31.32454 79.17205-4.06351-.49741-3.48493-5.31011-3.2642-8.04956z"/><path d="m501.94807 507.41984c2.17152-25.52578 15.01374-75.38293 29.40933-73.49818v-153.38397h1.89029v155.36428c1.48887 37.0506-16.46026 76.67657-26.76459 79.05994-4.93262.54375-4.79408-4.45982-4.53503-7.54207z"/><path d="m501.6731 448.62761c.36799-24.94565 12.24866-67.01132 25.22833-65.2539v-135.16489h1.66576v136.90998c1.29889 29.91358-9.33905 61.73218-19.67507 68.47031-6.35396 2.96478-7.28983.29077-7.21902-4.9615z"/><path d="m552.53125 168.375v110.84375c-17.57272 3.21255-7.66907 72.08761-1.1329 75.08185 1.42682.40521 3.23739.43412 4.22193-.1154 6.53417-4.31222 16.04992-71.7875-1.33903-74.96645v-110.84375h-.0937-1.5625z" transform="translate(-53.415389 65.681017)"/></g></g><g transform="translate(-1152.8208 566.22645)"><path d="m1216.7237-321.85552c-4.4907.0994-1.224 4.77319-.031 18.75 2.5727 4.32223 3.7464 5.01197 6.3837 9.32002.4007-.32055 5.3188-9.76707 10.2726-11.13252-1.9226-6.56441-8.8553-14.11382-14.1875-16.3125-.8705-.35894-1.6803-.5793-2.4375-.625z" fill="#2d3234"/><path d="m1166.4128-41.759487 8.134-11.03632c-6.9162-7.41824-10.8255-7.7067-13.8949-14.88773.01-3.07045-.4089-5.50771-1.0802-7.56119.2775-19.940677 10.5511-28.385833 17.2659-40.923603 1.4554-3.85303 2.53-3.77352 6.6063-4.06035l9.613 4.29761c16.6669 2.74471 33.4127 5.56825 46.8074 5.04079l-6.301-25.74402s-29.0474 1.91971-30.4248 2.34036c-.6978.21309-13.8503 1.22216-20.5309.23241-2.3603-.89549-4.0573.10576-6.0016 1.07201-2.6241 1.30622-5.2481 2.73997-7.8722 4.33464-2.7225 1.16302-3.5914 3.13521-4.5908 5.54554-5.9804 14.44012-10.0538 29.348856-18.7131 41.373493-2.2209 6.80929-1.1106 6.62251.3822 10.04644 5.026 4.92268 8.918 9.4422 11.867 15.84489 2.0921 4.54216 4.4499 9.285 8.7337 14.08503z" fill="#2d3234"/><path d="m1235.2735-293.07876c1.0375-12.50891 4.9314-24.70932 8.0376-34.80585 2.211-7.14084 4.5326-13.95645 6.345-17.9917 1.0111-2.2513 1.8637-3.63718 2.4501-3.73128 3.7886-.0122 3.9958 2.8234 4.3207 9.36146 3.3335-5.28064 2.36-17.29391-1.9803-18.00282-6.534-.15174-10.4443 6.42986-14.9423 15.48243-7.7836 16.12545-12.6779 30.1153-16.9227 45.72714l-.9902 3.33052" fill="#5f635f"/><path d="m1250.0471-297.79795c.6976-3.80649 3.7856-15.33745 7.1261-26.12604 2.211-7.14083 4.5326-13.95645 6.345-17.9917 1.0111-2.2513 1.8637-3.63718 2.4501-3.73128 3.7886-.0122 3.9958 2.8234 4.3207 9.36146 3.3335-5.28064 2.36-17.29391-1.9803-18.00282-6.534-.15174-10.4443 6.42986-14.9423 15.48243-6.4072 13.06012-10.8958 26.82327-15.1224 40.68636l-1.8003 5.04078" fill="#5f635f"/><path d="m1275.4948-318.18095c-6.5821.35623-17.4459 6.62477-20.1563 13.125-4.2551 5.05708-14.1851 4.25762-23.875 4.78125.5778-.24783 1.2045-.48075 1.9375-.75 1.0823-.23264.6813-1.36051-.5-1.71875-2.7488-.83356-10.9774-1.52517-12.9062-1.875-2.7 2.17855-2.7442 3.59154-4.3126 7.15625-.1807.41749-.3529.77311-.5312 1.125-3.8078.60004-7.202 2.09114-10.3125 4.125-2.7602.56788-5.1489 1.41805-6.125 2.125-.9768.86311-1.4947 2.18486-2.125 3.3125-.8788 1.66599-3.1407 3.88598-10.625 10.5-9.2212 8.14954-9.2131 10.00352-9.5 11.375-.239 1.14225-.3527 2.95957.7813 3.03125.9874.0625 2.016-.40386 3.2812-.78125.2773.16152.5634.31785.875.46875-.6129.19279-1.2691.38379-1.9375.5625-5.2357 1.39981-6.9242 3.99611-4.5 6.75 1.4193 1.61235 2.7692 1.80202 5.375.8125 4.7297-1.79596 6.6092-2.31926 8.3125-2.15625 1.0093.0966 1.9198.3336 2.0938.53125.2705.30736-6.0596 2.12455-8.4888 3.91812-.4462.32955-3.0299 1.20015-3.5465 2.2612-.7947 1.63172.3729 1.8501 1.3263 2.44498 5.7294 1.80084 8.4051 1.80082 15.084 1.90695 3.9384-1.04539 12.621-4.35307 16.5937-6.59375l6.0313.21875c.8048 22.56108 1.1261 45.15519 3.3437 67.625-4.599 8.52542-17.5314 11.75702-16.5937 23.46875-2.1003 22.08011 12.1603 39.76954 23.5 57.0625 14.7757 16.776723 33.8912 29.409923 50.25 44.656253 20.72 6.65821 42.4662 10.3473 61.75 21.40625 14.2276 4.27029 27.9268 11.619 42.9062 12.53125 15.1563-2.35373 14.5986 6.872348 19.4062 18.5937502 9.3612 26.4736958 34.1932 42.9697318 47.5 66.9999998 12.2178 17.939284 12.9761 40.246727 19.5 60.406247 2.0163 13.03698 2.6794 17.69166 4.7188 23.15625.5083 1.41089 4.0704 8.92223 17.8125 4.875-17.223-22.13127-5.5178-44.15975-9.375-77.093747-.9314-9.835-1.1037-19.937672-11.625-24.46875-10.4466-16.571363-13.4683-38.8511618-8-57.8125 3.9858-19.94875 14.1896-40.06091 8.2187-60.6875-11.4302-8.8524-20.9755-22.16489-1.125-27.84375 5.7603-21.296203 6.2217-45.993953 21.9688-63.000003-18.4747 3.23864-43.4907 20.17226-39.5938 41.75 5.1861 26.542713-25.9113 29.763363-43.25 19.59375-25.5414-11.39566-53.7947-20.04827-74.0937-40.1875-21.2729-11.85977-27.9963-40.65817-53.1563-45.46875-15.4597-19.92897-8.0476-46.75505-9.0312-67.625-1.2775-6.43173-5.4747-14.32298-8.3125-21.875.028-.0217.065-.0408.094-.0625-.051-.044-.1046-.0811-.1562-.125-3.8802-10.40002-5.1426-20.15544 7.4062-24.59375 5.7475-12.79609 10.3926-16.14004 6.1876-17.71875-.7297-.20722-1.5598-.26964-2.5-.21875z" fill="#2d3234"/><path d="m1251.9843-134.08843s-25.6512 13.76417-26.7312 14.71694c-.5472.48267-12.104 6.84232-18.5956 8.70488-2.5193.16114-3.6501 1.77472-5.0205 3.45874-2.5629 3.15351-5.0243 6.53018-7.3474 10.210926.1665 16.994487 3.3202 33.599524.1668 49.348513.7949 7.118069 1.7285 6.488709 4.504 8.98838 6.6122 2.40254 12.0252 4.907152 17.3587 9.516343 3.7837 3.269812 7.8923 6.612411 13.7781 9.210323l2.8398-13.412595c-9.3654-3.892606-13.0439-2.538015-18.809-7.806017-1.2611-2.799538-2.6507-4.845179-4.1114-6.437005-7.9965-18.269207-2.1368-30.207875-1.2101-44.400322-.2689-4.10995.7423-4.48211 4.3348-6.42954l10.5297-.0641c17.1642-1.831206 35.4869-.46149 44.6997-14.774186" fill="#2d3234"/><g stroke-width=".286362" transform="matrix(2.6211877 -2.3073883 2.3073883 2.6211877 1085.6336 -170.13049)"><g fill="#666" stroke-width=".286362"><path d="m22.464919 146.97477c-.36938 1.19029-.992598 2.32759-1.480323 3.35308-.711594 1.46765-1.967551.46674-2.136306.19177 1.063761-3.00538 4.142712-4.62215 4.815162-7.70093.01348-.93167.100934-1.42278.266821-1.49853.165899-.0758.416876.24078.8048.98918.420394.81105.921209 1.47788 1.427595 1.84289l.808048.5917-.138639 2.75463c-.115792 2.70404-.118947 2.75649-.964584 3.26153-1.646037.82127-3.355501.83721-5.123982.67275.858097-1.65521 1.771118-3.1219 2.15369-5.02944-.165157-.0832-.342829.28317-.432282.57137z"/><path d="m-7.5938868 46.889336c-.066143-.151645-.038759-.488355-.00323-1.020289.0045-1.846762.6915603-4.388744.6915603-4.388744l1.2804235-.07104c1.0628732-.204708 1.6763778-.0043 2.5723763.478104 1.3316578 5.670795-.075875 4.888859-3.1454649 5.963315-.515221-1.824907.5222778-5.744011-.099423-6.025813-.3359904 1.835194-.093282 5.564363-1.2962447 5.064469z"/><path d="m1.4261607 54.830348c.1669989-.235963 2.3773698-.576303 2.621091-.403839.3369422.238448 1.8408977 2.406024 2.2008163 3.16539.18694.394374.2866093.943141.2342948 1.237748-.1125682.633859-.4811826 1.583826-1.2275334 1.734585-1.2602682.254571-1.5727244.175512-1.8065766-.868631-.3723588-1.374214-.9137074-3.459671-1.2383825-3.430113.2442072 1.329685 1.5230318 4.290057.9061731 4.50793-.1237734.174917-1.0332305-1.28568-1.145148-1.844058-.0358029-.178729-.1223172-.500613-.1883674-.707559-.216116-.67709-.6640298-3.29017-.3563673-3.391453z"/></g><g stroke-width=".143181" transform="translate(1.855245 -4.136138)"><path d="m49.719524 5.4458663c.646699.5622881.560305 1.1737419 1.280189 1.7350459.629544.4910684 1.324265.2522694 2.226975.7309143-1.299589-.9455283-.641339-1.6448136-1.313931-2.1901042-.756596-.6132379-1.362074.1773633-2.193233-.275856z" fill="#fff"/><path d="m51.974003 5.936063c.706416 1.4012251-.316466 1.9632919-1.340822.710472.844367.1659994 1.138986-.025528 1.340822-.710472z" fill="#2d3234"/></g></g></g><path d="m180.0625 471.375-15.84375 5.78125-6.46875 9.34375-10.09375 5.0625-.71875 25.1875-18 7.9375-19.4375-2.90625-5.03125 25.9375s2.1576 34.5516 1.4375 40.3125c-.7202 5.7609-6.5 23.0625-6.5 23.0625l-12.25 3.59375s-3.677704 23.43746-6.59375 43.09375c14.52708 30.90623 30.16994 59.15056 45.9375 84.25 77.84658 123.91926 184.0637 201.27736 289 264.03125v-288.15625l-10.6875-1.53125-45.84375-.5-4.5625-4.59375-14.25-14.25-10.1875-10.1875-12.21875-.5-14.90625-12.25-10.8125-19.8125-15.46875 2.53125-1.8125 40.34375-3.9375 3.59375-1.46875 16.5625-14.375-2.875-3.96875-20.1875s-10.4375-33.83966-10.4375-36-2.15625-33.46875-2.15625-33.46875l-11.1875-18-18.34375-53.3125-.71875-34.5625-15.125 5.0625-3.59375-40.34375z" fill="#fff" stroke-width="2" transform="translate(-53.415389 65.681017)"/><path d="m45.4261 676.94174 3.0913 7.3902 2.8805 41.40647 7.2011 1.08017 2.5204 42.12658 9.7215-13.32208-2.5204-39.96625 16.2026-13.32208-11.5218 1.80028 2.1603-27.72433-24.7022-.96823z"/><path d="m155.0802 618.7955-6.0938 1.09375 1.0626 41.03125 24.8437 13.34375s-4.6875 43.55705-4.6875 46.4375 1.4375 47.53125 1.4375 47.53125l15.125 32.03125 5.0625 40.6875s1.4375 13.31522 1.4375 11.875c0-1.44023-.375-72.375-.375-72.375l8.1563-2.90625-3.4688-17.59375s-10.4375-33.83966-10.4375-36c0-2.16033-2.1563-33.5-2.1563-33.5l-11.1562-18-18.375-53.28125v-.1875zm93.9062 120.1875c-.017.0686-.2812 1.15625-.2812 1.15625l1.8125 14.75s4.3125.73097 4.3125 2.53125 2.125 64.875 2.125 64.875l9.6562 37.40625 11.4688 85.3125 1-180.78125 2.8438-6.34375-5.375-5.375-12.2188-.5-14.9062-12.21875z"/><g stroke-width="2"><g fill="none"><path d="m93.615 582.45438 17.44 12.22072 11.2023 15.40319"/><path d="m123.0211 634.64702-2.2914 13.49371-9.6747 6.11035-14.2575 23.42304-2.0368 20.62246-8.9109 3.30977-1.5276.7638"/><path d="m124.8033 692.95002 7.6379 16.80348 19.8587 15.27589-22.4047 66.70473-1.5275 8.14715"/><path d="m233.5167 984.2422c.2546-2.48233 1.273-12.25254 1.273-12.25254l-12.7299-26.47821v-12.72991"/><path d="m217.477 919.03323c0-3.05518-.5092-22.40464-.5092-22.40464l-23.9322-43.79089-.6365-12.72992"/><path d="m121.7481 833.99743v17.31268l-9.0285 13.70995"/><path d="m282.6542 984.21038-.5092 28.51502"/></g><path d="m412.125-1.375v1005.4375c10.95744 6.5843 21.90977 12.9865 32.8125 19.2813l.0625.062.0625-.062c10.88335-6.2837 21.81208-12.6781 32.75-19.25v-1005.4688z" fill="#d3bc5f" stroke-linecap="round" transform="translate(-53.415389 65.681017)"/></g><path d="m391.50924 1089.0395c-114.22119-65.9467-233.29572-145.78455-318.435969-281.31415-65.1137602-103.65072-127.73459-260.93502-121.09178-437.82327v-305.594713h879.153709v305.594713c6.64281 176.88825-55.95342 334.17255-121.06719 437.82327-85.14024 135.5296-204.21458 215.36745-318.43577 281.31415l-.0585.041z" fill="none" stroke-width="4.03199"/></g></svg>