<svg height="470.01855" width="400.00763" xmlns="http://www.w3.org/2000/svg"><g transform="matrix(1.020509 0 0 1.0194248 408.363055 5.256409)"><path d="m-204.16843 450.83327s193.975006-77.69167 193.975006-275.13781c0-197.446121 0-178.8395702 0-178.8395702h-387.949986v178.8395702c0 197.44614 193.97497 275.13781 193.97497 275.13781z" fill="#007fff" fill-rule="evenodd"/><path d="m-269.36774 56.42169c10.44649-4.857652 11.33598-1.482614 15.35806-.04632l-.37688 11.497721c-2.68431-1.183919-4.98105-7.724254-13.93696-2.667861-1.97973 1.117731-8.03 3.395533-13.29387-.67017.37511-.481228 1.46323-.978499 5.47686-2.326959-4.27532-1.61792-5.34868-4.37101-6.89163-6.759953 11.07618 3.216094 8.90556 3.186433 13.66442.973545z" fill="#efefef"/><g transform="translate(12.848829 9.52418)"><path d="m-390.82996 160.62303c5.24929-4.79762 14.69862-5.71043 21.60426-4.03351 12.75205 3.09661 10.22881-.83354 15.85607-1.25173l1.29813 10.94138c-4.31072.856-5.99377 3.43358-16.96106-.0716-8.32533-2.74566-12.16635.24293-18.36663 1.92609 1.48184-2.3357 4.59261-5.89285 8.54253-7.24131-4.20746-1.61792-7.76585-.013-11.9733-.2693z" fill="#efefef"/><path d="m-182.52266 158.66021c.47794.14058 17.00417-7.65083 33.38661 17.04707 8.27306 32.77578-28.42866 58.84776-35.74998 59.76114 18.98005-28.95761 43.04334-50.63501 2.36337-76.80821z" fill="#c8c8c8"/><path d="m-221.96993 177.30802c16.32943-1.79027 30.25278-6.94904 39.48503-18.67536 38.72229 17.99692 20.83165 40.58407 8.8041 62.69584-8.4635-17.67704-34.16586-1.78366-55.22569 5.06902 26.37176-25.08718 23.12584-39.60803 6.93656-49.0895z" fill="#efefef"/></g><path d="m-281.8643 163.53659c15.36516-5.17821 34.009-3.45829 44.67372-18.52591 21.64218 13.32503 36.80126 32.64235 9.6859 72.40228-5.88019-17.25357-35.39776 3.43738-54.35962 7.18351 22.6148-18.71486 45.29289-37.42514 0-61.05988z" fill="#efefef"/><g transform="translate(12.848829 9.52418)"><path d="m-257.81891 82.186313c5.89334 2.628391 18.69948 10.882746 18.2287 30.486567-3.89403 13.61605-4.12369 13.51842-15.06321 17.90532 13.89455-17.00579 8.8593-35.19498-3.16549-48.391887z" fill="#c8c8c8"/><path d="m-285.26115 94.27581c12.74765 1.288712 22.8943-1.324073 27.59982-12.098551 9.67071 11.672401 21.15845 23.309291 3.40271 48.205161l-26.65461 12.28759c7.48397-17.05046 14.25949-34.01663-4.34792-48.3942z" fill="#efefef"/><path d="m-257.98235 221.37547c-4.16159 3.9291-8.32319 6.31357-12.48478 9.28935" fill="none" stroke="#000"/></g><path d="m-210.92064 31.779764c10.44649-4.857652 11.33598-1.482614 15.35806-.04632l-.37688 11.497721c-2.68431-1.183919-4.98105-7.724254-13.93696-2.667861-1.97973 1.117731-8.03 3.395533-13.29387-.67017.37511-.481228 1.46323-.978499 5.47686-2.326959-4.27532-1.61792-5.34868-4.37101-6.89163-6.759953 11.07618 3.216094 8.90556 3.186433 13.66442.973545z" fill="#efefef"/><g transform="translate(12.848829 9.52418)"><path d="m-225.97179 72.99283c11.46103-3.966444 20.54936-9.712411 29.97994-15.201693 12.32912 11.580413 14.39997 24.256451 2.56854 38.679283l-24.54475 9.60447c5.80987-12.908322 9.2851-24.373504-8.00373-33.08206z" fill="#efefef"/><path d="m-175.80795 154.55471-47.95111 22.78844m46.75025-39.15143 86.412168 79.7741m-97.844378-120.795523-44.74481 21.145753" fill="none" stroke="#000" stroke-linecap="round" stroke-width="2"/><path d="m-229.44007 118.61405c13.01571-3.84635 29.20727-4.27 36.28354-18.675352 23.31219 4.043782 36.95689 15.412152 10.93843 54.692122-4.06827-4.86192-16.95908-1.78444-40.01862 18.67535 7.04815-19.93789 20.34367-40.18093-7.20335-54.69212z" fill="#efefef"/><path d="m-343.38885 203.92034 8.38126 1.05282 7.15029 16.74589c17.01068 4.91441 35.71789 7.43371 55.1978 8.86216.59435.0436 5.54055-194.498577 6.13632-194.456988.83295.05815-2.68386 194.699108-1.84829 194.753528 9.34212.60846 18.84461.9905 28.40727 1.28761l6.99898 8.60119c6.79741-.29001 13.58703-.54103 20.38075-.81257.47363-.0189 3.56724-227.70587 4.04092-227.72502.40302-.0163-1.81392 227.63523-1.41086 227.61875 14.87877-.60834 29.78457-1.35186 44.84234-2.85525l3.52434-9.40864 62.07672-8.71342c2.92341 0 56.022884-31.21478 56.022884-31.21478l-37.371466 26.41821-13.585059 11.78821c-4.689879 4.06957-10.195639 12.29116-14.218959 19.56466-11.49645 20.78369-15.99203 50.34931-16.00982 49.35214l-181.90592-8.95219c-1.9185-24.25582-7.35787-37.24709-11.86902-43.74369-.66322-.95512-.0295-.0674-.7032-.8432 7.74774 17.37087 9.56933 31.80601 10.44405 44.59487l-23.90025-.35977c-1.35894 0 8.76348-3.62384 11.87025-12.65341.47153-1.37046 1.00781-8.91564.52521-12.96943-.22815-1.91645-1.4722-.91323-1.60206-2.06146-.44342-3.92098.0355-2.00104.043-4.30655.003-.88393 2.11376-.49196 2.39402-2.39444.34743-2.35851-1.18436-7.07554-1.98874-8.3151-3.2622-5.02717-11.46617-5.61897-11.46617-6.21459-2.72362-6.44272-2.40621-12.75872-13.80025-19.5627l-5.21222-15.84405-.27341-4.3019c0-.69693.62562-.60411 2.22214-.66793.16822-.007.56645-6.42644-.12974-14.09214-1.07544-11.84143-3.44894-26.80192-3.1221-26.82257.29402-.0186 3.45985 15.16307 5.13223 27.07339 1.03126 7.3444.8427 13.69807 1.00848 13.71356l1.89581.17714.88022 5.58202z" stroke="#000" stroke-linecap="round" stroke-linejoin="round" stroke-width=".6"/></g><path d="m-203.11836 454.51443s118.680164-49.28565 168.213148-163.92012c-3.747792-2.74762-8.456154-1.40261-13.257054 1.36654-3.450539 1.99026-4.924686 4.96401-8.962654 5.37218-4.594315.4644-7.899883-3.68624-13.639235-3.91014-4.05356-.15812-10.514157 3.63085-14.255158 3.64608-5.94153.0242-10.354585-4.07538-15.159607-3.44263-3.75875.49497-7.81894 5.79491-12.63052 5.59022-3.04823-.12967-8.31188-3.67024-11.7676-4.37207-2.95664-.60047-4.20709.33047-5.87709 1.26467-3.62208 2.0262-3.48329 3.69384-9.85148 3.15113-4.38532-.37373-13.37909-8.58708-19.65765-4.22276-9.3578 6.50473-11.48557 4.39434-14.7539.63606-1.71923-1.97696-5.93-3.85983-8.82324-2.06969-15.43832 9.55223-16.20739.65989-21.71974-.52032-1.26845-.27158-10.30169 5.49589-13.10357 5.88914-4.73166.66411-11.81822-6.73589-17.76877-6.2152-3.94799.34546-8.34188 4.57104-12.39166 4.66836-5.41469.13012-8.57536-4.14574-13.96597-3.94083-5.12223.1947-6.60801 3.01062-11.5802 3.00696-6.62441-.005-4.36748-5.80173-11.10542-5.62136-4.59969.12314-7.00363 3.73227-11.59926 3.83954-3.72741.087-8.38935-4.55002-11.68815-4.96296-4.17909-.52313-8.36667 5.36288-12.73626 5.41495-5.30025.0632-10.52911-6.95192-15.2561-6.75119-4.02967.17111-13.14668 6.38262-16.47937 6.57314-3.40157.19446-4.41524-4.61622-7.64247-5.73973-6.1794-2.15128-12.84431-.20386-13.19237 1.1341 51.08016 117.03569 170.65135 164.13593 170.65135 164.13593z" fill="#efefef" fill-rule="evenodd"/><g fill="none" stroke="#000" stroke-linecap="round" stroke-linejoin="round" stroke-width="2.1"><path d="m-33.8531 292.35523c-3.74779-2.74762-10.25871-1.08887-15.05961 1.68028-3.45054 1.99026-4.92468 4.96401-8.96265 5.37218-4.59432.4644-7.89988-3.68624-13.63924-3.91014-4.05356-.15812-10.514155 3.63085-14.255155 3.64608-5.94153.0242-10.35459-4.07538-15.159615-3.44263-3.75875.49497-7.81894 5.79491-12.63052 5.59022-3.04823-.12967-8.31188-3.67024-11.7676-4.37207-2.95664-.60047-4.20709.33047-5.87709 1.26467-3.62208 2.0262-3.48329 3.69384-9.85148 3.15113-4.38532-.37373-13.37909-8.58708-19.65765-4.22276-9.3578 6.50473-11.48557 4.39434-14.7539.63606-1.71923-1.97696-5.93-3.85983-8.82324-2.06969-15.43832 9.55223-16.20739.65989-21.71974-.52032-1.26845-.27158-10.30169 5.49589-13.10357 5.88914-4.73166.66411-11.81822-6.73589-17.76877-6.2152-3.94799.34546-8.34188 4.57104-12.39166 4.66836-5.41469.13012-8.57536-4.14574-13.96597-3.94083-5.12223.1947-6.60801 3.01062-11.5802 3.00696-6.62441-.005-4.36748-5.80173-11.10542-5.62136-4.59969.12314-7.00363 3.73227-11.59926 3.83954-3.72741.087-8.38935-4.55002-11.68815-4.96296-4.17909-.52313-8.36667 5.36288-12.73626 5.41495-5.30025.0632-10.52911-6.95192-15.2561-6.75119-4.02967.17111-13.14668 6.38262-16.47937 6.57314-3.40157.19446-4.41524-4.61622-7.64247-5.73973-6.1794-2.15128-10.45822-.46182-10.80628.87614"/><path d="m-43.445823 307.43654c-4.547183-4.34641-13.855982-4.68614-18.656882-1.91699-3.45054 1.99026-4.92468 4.96401-8.96265 5.37218-4.59432.4644-7.89988-3.68624-13.63924-3.91014-4.05356-.15812-10.51416 3.63085-14.255163 3.64608-5.941532.0242-10.354592-4.07538-15.159612-3.44263-3.75875.49497-7.81894 5.79491-12.63052 5.59022-3.04823-.12967-8.31188-3.67024-11.7676-4.37207-2.95664-.60047-4.20709.33047-5.87709 1.26467-3.62208 2.0262-3.48329 3.69384-9.85148 3.15113-4.38532-.37373-13.37909-8.58708-19.65765-4.22276-9.3578 6.50473-11.48557 4.39434-14.7539.63606-1.71923-1.97696-5.93-3.85983-8.82324-2.06969-15.43832 9.55223-16.20739.65989-21.71974-.52032-1.26845-.27158-10.30169 5.49589-13.10357 5.88914-4.73166.66411-11.81822-6.73589-17.76877-6.2152-3.94799.34546-8.34188 4.57104-12.39166 4.66836-5.41469.13012-8.57536-4.14574-13.96597-3.94083-5.12223.1947-6.60801 3.01062-11.5802 3.00696-6.62441-.005-4.36748-5.80173-11.10542-5.62136-4.59969.12314-7.00363 3.73227-11.59926 3.83954-3.72741.087-8.38935-4.55002-11.68815-4.96296-4.17909-.52313-8.36667 5.36288-12.73626 5.41495-5.30025.0632-10.52911-6.95192-15.2561-6.75119-4.02967.17111-11.122 4.52587-14.45469 4.71639"/><path d="m-49.651613 318.37993c-.975561.41504 1.625931-.98141.738907-.46978-3.45054 1.99026-4.92468 4.96401-8.96265 5.37218-4.59432.4644-7.89988-3.68624-13.63924-3.91014-4.05356-.15812-10.514164 3.63085-14.255164 3.64608-5.94153.0242-10.35459-4.07538-15.15961-3.44263-3.75875.49497-7.81894 5.79491-12.63052 5.59022-3.04823-.12967-8.31188-3.67024-11.7676-4.37207-2.95664-.60047-4.20709.33047-5.87709 1.26467-3.62208 2.0262-3.48329 3.69384-9.85148 3.15113-4.38532-.37373-13.37909-8.58708-19.65765-4.22276-9.3578 6.50473-11.48557 4.39434-14.7539.63606-1.71923-1.97696-5.93-3.85983-8.82324-2.06969-15.43832 9.55223-16.20739.65989-21.71974-.52032-1.26845-.27158-10.30169 5.49589-13.10357 5.88914-4.73166.66411-11.81822-6.73589-17.76877-6.2152-3.94799.34546-8.34188 4.57104-12.39166 4.66836-5.41469.13012-8.57536-4.14574-13.96597-3.94083-5.12223.1947-6.60801 3.01062-11.5802 3.00696-6.62441-.005-4.36748-5.80173-11.10542-5.62136-4.59969.12314-7.00363 3.73227-11.59926 3.83954-3.72741.087-8.38935-4.55002-11.68815-4.96296-4.17909-.52313-8.36667 5.36288-12.73626 5.41495-5.30025.0632-10.52911-6.95192-15.2561-6.75119-4.02967.17111-13.14668 6.38262-16.47937 6.57314-3.40157.19446-3.5124-4.68071-6.73963-5.80422"/><path d="m-56.610809 330.14826c-.935224.40322-1.841577.8599-2.694018 1.35159-3.45054 1.99026-4.92468 4.96401-8.96265 5.37218-4.59432.4644-7.89988-3.68624-13.63924-3.91014-4.05356-.15812-10.51416 3.63085-14.25516 3.64608-5.941533.0242-10.354593-4.07538-15.159613-3.44263-3.75875.49497-7.81894 5.79491-12.63052 5.59022-3.04823-.12967-8.31188-3.67024-11.7676-4.37207-2.95664-.60047-4.20709.33047-5.87709 1.26467-3.62208 2.0262-3.48329 3.69384-9.85148 3.15113-4.38532-.37373-13.37909-8.58708-19.65765-4.22276-9.3578 6.50473-11.48557 4.39434-14.7539.63606-1.71923-1.97696-5.93-3.85983-8.82324-2.06969-15.43832 9.55223-16.20739.65989-21.71974-.52032-1.26845-.27158-10.30169 5.49589-13.10357 5.88914-4.73166.66411-11.81822-6.73589-17.76877-6.2152-3.94799.34546-8.34188 4.57104-12.39166 4.66836-5.41469.13012-8.57536-4.14574-13.96597-3.94083-5.12223.1947-6.60801 3.01062-11.5802 3.00696-6.62441-.005-4.36748-5.80173-11.10542-5.62136-4.59969.12314-7.00363 3.73227-11.59926 3.83954-3.72741.087-8.38935-4.55002-11.68815-4.96296-4.17909-.52313-8.36667 5.36288-12.73626 5.41495-5.30025.0632-10.52911-6.95192-15.2561-6.75119-1.23149.0523-2.22872.41076-4.10017 1.24708"/><path d="m-63.812936 340.88236c-2.917507.31068-6.055569 1.49323-8.681891 3.00809-3.450539 1.99026-4.92468 4.96401-8.96265 5.37218-4.59432.4644-7.89988-3.68624-13.63924-3.91014-4.05356-.15812-10.514163 3.63085-14.255163 3.64608-5.94153.0242-10.35459-4.07538-15.15961-3.44263-3.75875.49497-7.81894 5.79491-12.63052 5.59022-3.04823-.12967-8.31188-3.67024-11.7676-4.37207-2.95664-.60047-4.20709.33047-5.87709 1.26467-3.62208 2.0262-3.48329 3.69384-9.85148 3.15113-4.38532-.37373-13.37909-8.58708-19.65765-4.22276-9.3578 6.50473-11.48557 4.39434-14.7539.63606-1.71923-1.97696-5.93-3.85983-8.82324-2.06969-15.43832 9.55223-16.20739.65989-21.71974-.52032-1.26845-.27158-10.30169 5.49589-13.10357 5.88914-4.73166.66411-11.81822-6.73589-17.76877-6.2152-3.94799.34546-8.34188 4.57104-12.39166 4.66836-5.41469.13012-8.57536-4.14574-13.96597-3.94083-5.12223.1947-6.60801 3.01062-11.5802 3.00696-6.62441-.005-4.36748-5.80173-11.10542-5.62136-4.59969.12314-7.00363 3.73227-11.59926 3.83954-3.72741.087-8.38935-4.55002-11.68815-4.96296-2.62929-.32913-5.26193 1.87869-7.94116 3.57446"/><path d="m-91.997673 375.67443c-1.385081-.54394-2.575054-3.47502-4.298135-3.54224-4.053552-.15812-10.514152 3.63085-14.255152 3.64608-5.94153.0242-10.35459-4.07538-15.15961-3.44263-3.75875.49497-7.81894 5.79491-12.63052 5.59022-3.04823-.12967-8.31188-3.67024-11.7676-4.37207-2.95664-.60047-4.20709.33047-5.87709 1.26467-3.62208 2.0262-3.48329 3.69384-9.85148 3.15113-4.38532-.37373-13.37909-8.58708-19.65765-4.22276-9.3578 6.50473-11.48557 4.39434-14.7539.63606-1.71923-1.97696-5.93-3.85983-8.82324-2.06969-15.43832 9.55223-16.20739.65989-21.71974-.52032-1.26845-.27158-10.30169 5.49589-13.10357 5.88914-4.73166.66411-11.81822-6.73589-17.76877-6.2152-3.94799.34546-8.34188 4.57104-12.39166 4.66836-5.41469.13012-8.57536-4.14574-13.96597-3.94083-5.12223.1947-6.60801 3.01062-11.5802 3.00696-6.62441-.005-4.36748-5.80173-11.10542-5.62136-3.20727.0859-5.34697 1.8666-7.9065 2.97324"/><path d="m-104.10168 386.09109c-2.32325-.89102-4.52705-1.6668-6.82011-1.36484-3.75875.49497-7.81894 5.79491-12.63052 5.59022-3.04823-.12967-8.31188-3.67024-11.7676-4.37207-2.95664-.60047-4.20709.33047-5.87709 1.26467-3.62208 2.0262-3.48329 3.69384-9.85148 3.15113-4.38532-.37373-13.37909-8.58708-19.65765-4.22276-9.3578 6.50473-11.48557 4.39434-14.7539.63606-1.71923-1.97696-5.93-3.85983-8.82324-2.06969-15.43832 9.55223-16.20739.65989-21.71974-.52032-1.26845-.27158-10.30169 5.49589-13.10357 5.88914-4.73166.66411-11.81822-6.73589-17.76877-6.2152-3.94799.34546-8.34188 4.57104-12.39166 4.66836-5.41469.13012-8.57536-4.14574-13.96597-3.94083-5.12223.1947-6.60801 3.01062-11.5802 3.00696-6.62441-.005-4.36748-5.80173-11.10542-5.62136-3.80814.10194-6.11123 2.59333-9.39906 3.50866"/><path d="m-118.99163 399.05152c-1.24871-.73989-2.45806-1.69627-5.50041-1.63714-3.42932 1.23752-7.13828 5.47615-11.45087 5.29269-3.04823-.12967-8.31188-3.67024-11.7676-4.37207-2.95664-.60047-4.20709.33047-5.87709 1.26467-3.62208 2.0262-3.48329 3.69384-9.85148 3.15113-4.38532-.37373-13.37909-8.58708-19.65765-4.22276-9.3578 6.50473-11.48557 4.39434-14.7539.63606-1.71923-1.97696-5.93-3.85983-8.82324-2.06969-15.43832 9.55223-16.20739.65989-21.71974-.52032-1.26845-.27158-10.30169 5.49589-13.10357 5.88914-4.73166.66411-11.81822-6.73589-17.76877-6.2152-3.94799.34546-8.34188 4.57104-12.39166 4.66836-5.41469.13012-8.57536-4.14574-13.96597-3.94083-2.50001.095-4.13377.81446-5.72941 1.52573"/><path d="m-135.87411 412.42785c-1.98931-1.30984-4.85198-.57237-6.52198.36183-3.62208 2.0262-3.48329 3.69384-9.85148 3.15113-4.38532-.37373-13.37909-8.58708-19.65765-4.22276-9.3578 6.50473-11.48557 4.39434-14.7539.63606-1.71923-1.97696-5.93-3.85983-8.82324-2.06969-15.43832 9.55223-16.20739.65989-21.71974-.52032-1.26845-.27158-10.30169 5.49589-13.10357 5.88914-4.73166.66411-11.81822-6.73589-17.76877-6.2152-3.94799.34546-8.34188 4.57104-12.39166 4.66836-5.41469.13012-8.57536-4.14574-13.96597-3.94083-.76038.0289-1.44062.11557-2.06403.2422"/><path d="m-150.9847 423.83419c-1.15427.22927-2.00333.78709-3.0026 1.34609-3.62208 2.0262-3.48329 3.69384-9.85148 3.15113-4.38532-.37373-13.37909-8.58708-19.65765-4.22276-9.3578 6.50473-11.48557 4.39434-14.7539.63606-1.71923-1.97696-5.93-3.85983-8.82324-2.06969-15.43832 9.55223-16.20739.65989-21.71974-.52032-1.26845-.27158-10.30169 5.49589-13.10357 5.88914-4.73166.66411-11.3668-6.92936-17.63979-6.08622"/><path d="m-171.90522 436.65376c-9.3578 6.50473-11.48557 4.39434-14.7539.63606-1.71923-1.97696-5.93-3.21494-8.82324-1.4248-15.43832 9.55223-16.20739.65989-21.71974-.52032-1.26845-.27158-9.52782 4.78651-12.3297 5.17976"/><path d="m-79.543213 359.97169c-1.64613-.72558-3.436917-1.34633-5.561079-1.42919-4.05356-.15813-10.51416 3.63085-14.25516 3.64608-5.941528.0242-10.354588-4.07538-15.159608-3.44263-3.75875.49497-7.81894 5.79491-12.63052 5.59022-3.04823-.12967-8.31188-3.67024-11.7676-4.37207-2.95664-.60047-4.20709.33047-5.87709 1.26467-3.62208 2.0262-3.48329 3.69384-9.85148 3.15113-4.38532-.37373-13.37909-8.58708-19.65765-4.22276-9.3578 6.50473-11.48557 4.39434-14.7539.63606-1.71923-1.97696-5.93-3.85983-8.82324-2.06969-15.43832 9.55223-16.20739.65989-21.71974-.52032-1.26845-.27158-10.30169 5.49589-13.10357 5.88914-4.73166.66411-11.81822-6.73589-17.76877-6.2152-3.94799.34546-8.34188 4.57104-12.39166 4.66836-5.41469.13012-8.57536-4.14574-13.96597-3.94083-5.12223.1947-6.60801 3.01062-11.5802 3.00696-6.62441-.005-4.36748-5.80173-11.10542-5.62136-4.59969.12314-7.00363 3.73227-11.59926 3.83954-3.72741.087-8.38935-4.55002-11.68815-4.96296-2.76672-.34633-5.53716 2.11643-8.36167 3.83574"/><path d="m-199.79243 452.13097c-2.05109-1.27729-3.5238-3.10498-5.81846-3.59627-.56943-.12192-2.70366.97319-5.13649 2.25279"/></g><g transform="translate(12.848829 9.52418)"><path d="m-251.9924 135.47776c3.35145.0819 24.86081 3.5143 31.25647 23.59832 7.81137 27.82413-24.02334 62.54919-38.41585 63.0198 1.87847-2.60296 11.10612-5.98488 16.42332-14.21295 6.05011-9.3622 12.21507-20.28672 13.74976-33.04208.69769-5.79875-.0876-11.67329-2.40804-17.31562-3.58996-8.7293-11.02493-15.72883-20.60566-22.04747z" fill="#c8c8c8"/><g fill="none" stroke="#000"><path d="m-285.68141 92.942455 32.01081-11.475575"/><path d="m-297.76096 153.34022 53.754-21.7432"/><path d="m-288.7013 228.83742 21.13921-119.58757 13.28751 123.21143"/><path d="m-235.55127 239.70901 25.97104-131.66712 18.7233 131.06315 53.0607-23.53379 5.00331-5.70434"/><path d="m-74.232271 201.49325-.794991 5.06806"/></g><path d="m-171.08316 143.14124c73.127877 1.69712 85.042961 25.11651 97.182116 43.23767-16.898793 4.09365-40.627876 16.67648-60.723546 25.24576 22.72406-42.53712-1.42198-58.34863-36.45857-68.48343z" fill="#efefef"/><path d="m-171.81327 143.15881c21.63558-13.65166 132.332087 16.17958 97.378647 59.49434-2.276719-8.77588 3.669927-14.6494-9.337678-27.21266-7.749363-5.98905-36.933719-31.46892-88.040969-32.28168z" fill="#c8c8c8"/></g><g fill="none"><g stroke="#000"><path d="m-137.83154 215.30621 67.077354-11.72611" transform="translate(12.848829 9.52418)"/><g stroke-linecap="round"><path d="m-125.98362 225.11199 2.69743-1.25882" stroke-width="3.449628"/><path d="m-214.81667 82.626402 32.29651-16.297312"/></g></g><g stroke="#efefef"><g transform="translate(12.848829 9.52418)"><path d="m-337.66069 211.16619 7.68568 20.14304c28.40121 5.8312 65.10105 9.7805 96.83994 9.49824 29.89366-.26584 55.43006-3.53954 68.10334-4.1083"/><path d="m-318.04221 242.41336c59.87633 7.71881 113.20032 11.36909 204.34916-3.31467"/><path d="m-164.90463 236.61269c20.82348-1.50991 41.26529-4.92823 61.65278-8.61813"/><path d="m-118.83078 248.04829c-16.42458 1.29366-48.85789 9.28986-89.83672 9.04458-35.25106-.211-25.67418 2.56775-104.40271-5.39845"/></g><path d="m-108.79941 267.31751c-64.3176 12.23014-123.58187 9.16477-188.43878 3.9776"/><path d="m-110.62248 278.42163c-64.87449 7.31175-120.04058 7.15011-184.95837 1.4916"/><path d="m-112.11408 288.53137c-139.27567 7.75232-163.54874 2.23451-182.30663 0"/></g><path d="m-204.16843 453.88468s193.975006-78.21387 193.975006-276.98715c0-198.773255 0-180.0416402 0-180.0416402h-387.949986v180.0416402c0 198.77328 193.97497 276.98715 193.97497 276.98715z" stroke="#000" stroke-width="4.013421"/></g></g></svg>