<svg height="470.01855" width="400.00763" xmlns="http://www.w3.org/2000/svg"><g transform="translate(-12.751896 83.432385)"><path d="m213.26743 382.9216s-197.95323-79.45871-197.95323-281.39562c0-201.93688 0-182.90714 0-182.90714h395.90645v182.90714c0 201.93691-197.95321 281.39562-197.95321 281.39562z" fill="#d23620" fill-rule="evenodd"/><g stroke="#000"><path d="m14.814395-81.369885v180.125h395.906245v-180.125h-395.906245z" fill="#301d67" stroke-width="2"/><path d="m212.75189 98.755115v282.656245s197.96875-79.18726 197.96875-280.46874v-2.187505z" fill="#edcd66" stroke-width="2"/><path d="m115.71157 118.39916a11.427515 11.427515 0 1 1 22.85503 0 11.427513 11.427513 0 0 1 0 22.85502v27.75253h27.75252a11.427512 11.427512 0 1 1 22.85502 0 11.427513 11.427513 0 0 1 0 22.85502 11.427512 11.427512 0 0 1 -22.85502 0h-27.75252v76.72759a11.427513 11.427513 0 0 1 0 22.85502 11.427515 11.427515 0 0 1 -22.85503 0 11.427513 11.427513 0 1 1 0-22.85502v-76.72759h-27.752521a11.427515 11.427515 0 0 1 -22.855031 0 11.427512 11.427512 0 1 1 0-22.85501 11.427515 11.427515 0 1 1 22.855031 0h27.752521v-27.75254a11.427513 11.427513 0 1 1 0-22.85502zm7.83601 0v7.83601h-7.83601v7.18301h7.83601v43.42454h-43.424547v-7.836h-7.183007v7.836h-7.836008v7.18301h7.836008v7.836h7.183007v-7.836h43.424547v92.39959h-7.83601v7.183h7.83601v7.83602h7.183v-7.83602h7.83602v-7.183h-7.83602v-92.39959h43.42456v7.836h7.183v-7.836h7.836v-7.18301h-7.836v-7.836h-7.183v7.836h-43.42456v-43.42454h7.83602v-7.18301h-7.83602v-7.83601z" fill="#edcd66" stroke-width="2.612003"/><g transform="matrix(.75999945 0 0 .75999945 -115.18095 -56.182834)"><path d="m488.76832 251.41817-6.3513 15.48991 3.8274 12.09276-13.9491 6.615-6.1834-1.06681-2.9453 3.12854-1.5965 8.3455-3.8906 5.9099-3.1875 7.83944 1.8285 8.22512 10.0194 13.30554-12.4955 4.94335-6.2179 3.1554 3.8763 6.2281 1.9393 4.8365-5.6945 1.6812 1.1389 7.3977.6286 6.1157 3.3356 6.2565 7.5987 1.4211c-1.2458 4.4983 9.0006-1.3368 9.235 3.231l-.1146 3.7925 13.3606 2.9064 4.6788 4.6784 9.5141-1.3625 10.2501-1.3128 7.67869-6.1443 7.75253-3.8964 7.78411-.7066 9.23638-5.3127c2.75721-.6065 12.86519 4.1618 15.48562 4.8824l6.2651 6.4422 5.29537 4.4677 7.47589.8168 10.20581 3.6169 9.46647-.8173 9.71684-.1265.34309-16.869 23.01076 8.0773 9.43933-9.8026 1.35683-12.0037 2.71542-7.4302-9.90706-10.8233-10.22391-11.55125 8.00329-8.1023 7.28496-6.8773-7.42258-8.2493.21886-10.70186-11.12096-11.42036-12.84138-10.71717-9.56315-16.28963-10.13311-8.21874-8.02028-.47418-5.35174-12.07016-6.85714-1.6193-16.30263-6.4384-17.0066 3.194-15.4908 3.48626-7.06661 3.2763-12.68 9.34664z" fill="#5ab532"/><g stroke-linejoin="round"><path d="m501.78649 353.33704c1.78347 6.50678 1.77807 6.78945 6.64186 12.05498-2.05087 6.43443-9.5788 8.20473-20.31791 11.70543l.69914 2.45616c9.7351-1.9786 17.74783-2.7887 24.26912-8.3176 7.95853 2.17062 14.40164 4.17418 15.52793 10.50053 1.74063 9.77701-1.11947 4.41414 1.3554 11.97029.50616 1.5454 1.02725 7.68571.25361 13.72066-.4002 3.1219-.34201 4.84156-.82626 8.14959-2.03384.87566-2.94677 7.35164-3.27326 9.4106-1.0666 9.07671 2.10526 7.88943-15.15754 9.88114-2.29821.20095-7.46172 3.55034-14.72437 4.35711 13.27371.87088 14.21147-1.1456 17.53153-1.32689 6.65879-.36362 5.94025 2.17139 13.64387.51758-6.94633 5.10032-2.31289 3.65136-9.18419 4.31947-4.92456.4788-6.81087 6.243-16.90654 3.03021 2.67361 1.80348 5.15255 3.31103 6.59948 3.51016 6.22688.85676 9.16444-4.5192 14.56548-3.02081-4.97225 5.64767-4.81836 9.19721.66736 13.7489-2.76139-3.23712-.77031-8.48805 2.7436-12.51611 1.86409-2.13677 5.0305-4.82824 7.73295-6.8321.20136-.45027.42952-.89278.66736-1.3363.35995-1.06317.98689-2.00806 1.31354-2.79495-.32647.99313-.83188 1.89677-1.31354 2.79495-.50228 1.48353-.47474 3.19802 1.69489 5.07231 1.73801 1.50141 5.18964 4.30921.96397 5.58049-11.92284 3.58695-.0104 11.33934 1.88557 13.91829-.37711-3.58829-6.43251-7.46174-1.43007-9.58941 4.44238-1.88946 10.12238-2.55436 7.46812-6.19218-4.23511-5.80457-1.93947-6.1501-2.36226-9.60822 1.29041 1.85358 2.01049 3.61076 3.16733 4.74294 10.40927 10.18687 4.52203 12.29712 3.46393 20.64687 14.1695-17.07012.51377-15.64697.83686-24.76871 7.91561 5.23873 19.87074 13.25288 12.60575 21.26797 8.55168-2.98298 4.75168-7.62769 4.88341-10.88808 5.8151 1.50402 11.4546 1.08877 15.16927.2635-17.45422-2.30129-14.65138-2.74955-24.14161-9.20357-1.43339-.97481-2.95965-2.13687-3.91943-3.21843 1.23623 1.33611 3.32619 2.83543 4.03596 3.25607 2.61964-.0716 5.10538-.005 8.72869.13175 5.02716.18952 5.73086-1.98003 9.1736-1.28925 11.79318 2.36617 14.55154-1.32929 17.06543-3.71719-4.60979 1.1927-7.68172 3.67825-15.2858 1.2422-3.26569-1.04619-8.0338 1.36867-13.15659-.31055-11.44761-1.44946-10.35416-6.95536-11.83001-15.39236-.84169-2.1866.43298-5.41929.10145-6.8355-1.20547-5.14939 1.55373-11.45163 1.09109-13.42893-.42242-1.80529-1.05537-5.3842-.32901-9.62705.00001.00001-1.58153-2.13412 0-3.50075 2.42325-2.09396 14.53209-9.76898 21.9876-12.30331 5.73223-1.94854 21.58837-3.4535 25.1471-4.32483l-.82628-1.90813c-.9754-.70763-16.82326 2.04075-19.95456 1.13379-4.03391-1.16841 6.7751-9.46227 8.05619-10.40489l-3.19522-.89862c-7.88566 2.70206-14.09071 12.92287-15.64089 13.90316-4.44688 2.81208-14.13646 6.63635-16.45051 6.62502.10886-6.74914-.8308-4.39668.72033-8.02725 2.38359-5.57901 13.71885-16.21264 18.53458-19.62459l-3.02321-1.93185c-2.91452 1.35985-5.5633 5.2112-9.76587 7.90854-.66752.42843-2.6948-4.55246-3.9261-4.48719l-2.9862 1.11072c-.65801.68152 3.06377 6.84344 2.44151 7.51106-2.21267 2.37396-4.1666 4.59039-5.62847 6.15372-3.22067 3.44421-4.24914 6.31885-7.23506 9.94701-2.60977-1.36286-1.32273-3.57135-3.42758-5.76256-.67182-.69937-.50604-7.27859.14323-7.96831 1.15823-1.2304.87803-4.97074 1.53437-9.18454.32899-2.11225 11.05171-6.54798 11.6182-6.87589l-1.58271-1.70283c-2.91693.0615-11.83958 3.30043-14.55132 6.08386-.90554.92947-10.68722-5.10026-12.91318-6.77028l-2.28588 1.11872c1.70739 1.48022 3.58466 2.67312 5.35624 3.82498 1.61321 1.0489 8.68942 5.56438 7.96051 7.38197-1.62549 4.05325-2.44856 11.55231-2.77334 11.46464-2.86951-.77455-14.79052-5.11137-17.84781-5.34753-2.8167-3.15872-5.64579-8.40512-8.88758-11.12334z" fill="#c87137" stroke-linecap="round"/><path d="m542.49353 378.24002c-1.23283 2.26228-2.26509 3.03988-2.15417 7.84154" fill="#c87137" stroke-linecap="round"/><g fill="#5ab532" fill-rule="evenodd" stroke-width="1.654407"><path d="m602.11261 393.47333c-6.51129-6.47775-16.78547-3.37046-12.06961-16.48268l1.32401-.83381c11.91056-1.1802 7.51003 8.55594 10.7456 17.31649z"/><path d="m589.22588 374.07552c2.16239 4.39977 5.65869 10.8072 8.22941 12.89127" stroke-linecap="round"/><path d="m606.88861 376.3001c-6.51129-6.47775-16.78547-3.37046-12.06961-16.48268l1.32401-.83381c11.91056-1.1802 7.51003 8.55594 10.7456 17.31649z"/><path d="m594.00188 356.90229c2.16239 4.39977 5.65869 10.8072 8.22941 12.89127" stroke-linecap="round"/><path d="m592.89667 351.35708c-.82412-9.14762-10.69193-13.37142 1.34901-20.38467l1.55021.21232c9.88265 6.75188.25337 11.3816-2.89922 20.17235z"/><path d="m595.49354 328.21405c-1.17163 4.76039-2.61193 11.91615-1.98226 15.16506" stroke-linecap="round"/><path d="m575.01704 311.17846c.77688-9.15176-8.20757-15.02492 4.86828-19.84073l1.48979.47829c8.56005 8.3654-1.72687 11.25267-6.35807 19.36244z"/><path d="m581.59321 288.83797c-1.98047 4.48461-4.64147 11.28155-4.58554 14.59045" stroke-linecap="round"/><path d="m573.0652 298.52728c-5.24866 7.53721-.40448 17.11573-14.1364 14.74843l-1.05105-1.1591c-3.23052-11.52468 7.12185-8.88167 15.18745-13.58933z"/><path d="m556.19985 314.58662c3.95743-2.89355 9.66039-7.44937 11.2664-10.34293" stroke-linecap="round"/><path d="m581.81487 288.56089c-.82412-9.14762-10.69193-13.37142 1.34901-20.38467l1.55021.21232c9.88265 6.75188.25337 11.3816-2.89922 20.17235z"/><path d="m584.41174 265.41786c-1.17163 4.76039-2.61193 11.91615-1.98226 15.16506" stroke-linecap="round"/><path d="m570.11059 223.91038c-5.24866 7.53721-.40448 17.11573-14.1364 14.74843l-1.05105-1.1591c-3.23052-11.52468 7.12185-8.88167 15.18745-13.58933z"/><path d="m553.24524 239.96972c3.95743-2.89355 9.66039-7.44937 11.2664-10.34293" stroke-linecap="round"/><path d="m555.58768 233.13368c-2.35426 8.87782 5.47383 16.22188-8.23962 18.69394l-1.38411-.72973c-6.97736-9.72475 3.65465-10.78185 9.62373-17.96421z"/><path d="m545.23203 253.99283c2.72913-4.07258 6.52998-10.30418 7.04948-13.57252" stroke-linecap="round"/><path d="m558.30485 220.07958c-.77688 9.15175 8.20757 15.02491-4.86828 19.84072l-1.48979-.47828c-8.56005-8.36541 1.72687-11.25268 6.35807-19.36244z"/><path d="m551.72868 242.42007c1.98047-4.48462 4.64147-11.28155 4.58554-14.59046" stroke-linecap="round"/><path d="m518.06471 226.2417c9.15176.77688 15.02492-8.20757 19.84073 4.86828l-.47829 1.48979c-8.3654 8.56005-11.25267-1.72687-19.36244-6.35807z"/><path d="m540.4052 232.81787c-4.48461-1.98047-11.28155-4.64147-14.59045-4.58554" stroke-linecap="round"/><path d="m501.26996 234.0164c.82412 9.14762 10.69193 13.37142-1.34901 20.38467l-1.55021-.21232c-9.88265-6.75188-.25337-11.3816 2.89922-20.17235z"/><path d="m498.67309 257.15943c1.17163-4.76039 2.61193-11.91615 1.98226-15.16506" stroke-linecap="round"/><path d="m481.26201 239.92448c7.53721 5.24866 17.11573.40448 14.74843 14.1364l-1.1591 1.05105c-11.52468 3.23052-8.88167-7.12185-13.58933-15.18745z"/><path d="m497.32135 256.78983c-2.89355-3.95743-7.44937-9.66039-10.34293-11.2664" stroke-linecap="round"/><path d="m490.55827 280.57911c2.35425-8.87782-5.47383-16.22188 8.23962-18.69394l1.3841.72973c6.97737 9.72475-3.65465 10.78185-9.62372 17.96421z"/><path d="m500.91391 259.71996c-2.72912 4.07258-6.52997 10.30418-7.04948 13.57252" stroke-linecap="round"/><path d="m478.64154 261.09057c7.53721 5.24866 17.11573.40448 14.74843 14.1364l-1.1591 1.05105c-11.52468 3.23052-8.88167-7.12185-13.58933-15.18745z"/><path d="m494.70088 277.95592c-2.89355-3.95743-7.44937-9.66039-10.34293-11.2664" stroke-linecap="round"/><path d="m488.00721 296.1933c5.24866-7.53721.40448-17.11573 14.1364-14.74843l1.05105 1.1591c3.23052 11.52468-7.12185 8.88167-15.18745 13.58933z"/><path d="m504.87256 280.13396c-3.95743 2.89355-9.66039 7.44937-11.2664 10.34293" stroke-linecap="round"/><path d="m539.67026 282.18892c-2.35425 8.87782 5.47383 16.22188-8.23962 18.69394l-1.3841-.72973c-6.97737-9.72475 3.65465-10.78185 9.62372-17.96421z"/><path d="m529.31462 303.04807c2.72912-4.07258 6.52997-10.30418 7.04948-13.57252" stroke-linecap="round"/><path d="m498.9581 285.83996c7.53721 5.24866 17.11573.40448 14.74843 14.1364l-1.1591 1.05105c-11.52468 3.23052-8.88167-7.12185-13.58933-15.18745z"/><path d="m515.01744 302.70531c-2.89355-3.95743-7.44937-9.66039-10.34293-11.2664" stroke-linecap="round"/><path d="m539.54743 323.76736c-7.53721-5.24866-17.11573-.40448-14.74843-14.1364l1.1591-1.05105c11.52468-3.23052 8.88167 7.12185 13.58933 15.18745z"/><path d="m523.48809 306.90201c2.89355 3.95743 7.44937 9.66039 10.34293 11.2664" stroke-linecap="round"/><path d="m513.79611 327.60297c2.35425-8.87782-5.47383-16.22188 8.23962-18.69394l1.3841.72973c6.97737 9.72475-3.65465 10.78185-9.62372 17.96421z"/><path d="m524.15175 306.74382c-2.72912 4.07258-6.52997 10.30418-7.04948 13.57252" stroke-linecap="round"/><path d="m500.80806 329.24984c2.35425-8.87782-5.47383-16.22188 8.23962-18.69394l1.3841.72973c6.97737 9.72475-3.65465 10.78185-9.62372 17.96421z"/><path d="m511.1637 308.39069c-2.72912 4.07258-6.52997 10.30418-7.04948 13.57252" stroke-linecap="round"/><path d="m475.69221 313.16548c6.47775-6.51129 3.37046-16.78547 16.48268-12.06961l.83381 1.32401c1.1802 11.91056-8.55594 7.51003-17.31649 10.7456z"/><path d="m495.09002 300.27875c-4.39977 2.16239-10.8072 5.65869-12.89127 8.22941" stroke-linecap="round"/><path d="m468.59363 387.05112c5.92194-7.0206 16.42785-4.82058 10.58713-17.47189l-1.39165-.71525c-11.9681-.13763-6.73576 9.17793-9.19548 18.18714z"/><path d="m479.74069 366.60397c-1.7707 4.5715-4.69525 11.25927-7.07454 13.55946" stroke-linecap="round"/><path d="m437.48922 376.84168c7.53721-5.24866 17.11573-.40449 14.74843-14.1364l-1.1591-1.05105c-11.52468-3.23052-8.88167 7.12185-13.58933 15.18745z"/><path d="m453.54856 359.97632c-2.89355 3.95744-7.44937 9.6604-10.34293 11.26641" stroke-linecap="round"/><path d="m436.45627 343.39908c7.53721 5.24866 17.11573.40449 14.74843 14.1364l-1.1591 1.05105c-11.52468 3.23052-8.88167-7.12185-13.58933-15.18745z"/><path d="m452.51561 360.26444c-2.89355-3.95744-7.44937-9.6604-10.34293-11.26641" stroke-linecap="round"/><path d="m460.69446 383.28619c-.77688-9.15176 8.20757-15.02492-4.86828-19.84073l-1.48979.47829c-8.56005 8.3654 1.72687 11.25267 6.35807 19.36244z"/><path d="m454.11829 360.9457c1.98047 4.48461 4.64147 11.28155 4.58554 14.59045" stroke-linecap="round"/><path d="m456.81422 372.98484c9.15176-.77688 15.02492 8.20757 19.84073-4.86828l-.47829-1.48979c-8.3654-8.56005-11.25267 1.72687-19.36244 6.35807z"/><path d="m479.15471 366.40867c-4.48461 1.98047-11.28155 4.64147-14.59045 4.58554" stroke-linecap="round"/><path d="m494.16148 373.82131c9.18464-.0237 14.2524-9.48585 20.18953 3.12051l-.34663 1.52581c-7.58751 9.25657-11.36036-.73956-19.8429-4.64632z"/><path d="m516.99011 378.42534c-4.64016-1.58207-11.64315-3.64054-14.93459-3.29643" stroke-linecap="round"/><path d="m502.7248 395.56735c4.57179-7.96598-1.08877-17.08586 12.79721-15.92437l1.14808 1.06309c4.22266 11.19927-6.32067 9.46858-13.94529 14.86128z"/><path d="m518.12633 378.09922c-3.69019 3.22745-8.97439 8.26298-10.3221 11.2855" stroke-linecap="round"/><path d="m478.29745 391.80251c3.86011-8.33414-2.57377-16.92596 11.36061-16.97914l1.23636.95899c5.18268 10.78861-5.47137 9.98342-12.59697 16.02015z"/><path d="m492.11792 373.0585c-3.39486 3.5368-8.22007 9.01371-9.29922 12.14219" stroke-linecap="round"/><path d="m504.93621 393.66197c-6.51129-6.47775-16.78547-3.37046-12.06961-16.48268l1.32401-.83381c11.91056-1.1802 7.51003 8.55594 10.7456 17.31649z"/><path d="m492.04948 374.26416c2.16239 4.39977 5.65869 10.8072 8.22941 12.89127" stroke-linecap="round"/><path d="m448.01688 319.34341c7.53721 5.24866 17.11573.40449 14.74843 14.1364l-1.1591 1.05105c-11.52468 3.23052-8.88167-7.12185-13.58933-15.18745z"/><path d="m464.07622 336.20877c-2.89355-3.95744-7.44937-9.6604-10.34293-11.26641" stroke-linecap="round"/><path d="m529.16201 351.72775c-.77688 9.15176 8.20757 15.02492-4.86828 19.84073l-1.48979-.47829c-8.56005-8.3654 1.72687-11.25267 6.35807-19.36244z"/><path d="m522.58584 374.06824c1.98047-4.48461 4.64147-11.28155 4.58554-14.59045" stroke-linecap="round"/><path d="m467.84519 282.51557c5.28752 7.51001 15.94519 6.23402 9.02406 18.32814l-1.44868.59123c-11.93456-.90597-5.91022-9.73006-7.57538-18.91937z"/><path d="m477.16775 303.85645c-1.36553-4.70843-3.69608-11.62564-5.86584-14.12446" stroke-linecap="round"/><path d="m513.34341 357.3992c5.24866-7.53721.40448-17.11573 14.1364-14.74843l1.05105 1.1591c3.23052 11.52468-7.12185 8.88167-15.18745 13.58933z"/><path d="m530.20876 341.33986c-3.95743 2.89355-9.66039 7.44937-11.2664 10.34293" stroke-linecap="round"/><path d="m485.63199 350.64458c6.47775-6.51129 3.37046-16.78547 16.48268-12.06961l.83381 1.32401c1.1802 11.91056-8.55594 7.51003-17.31649 10.7456z"/><path d="m505.0298 337.75785c-4.39977 2.16239-10.8072 5.65869-12.89127 8.22941" stroke-linecap="round"/><path d="m492.62637 338.28156c-7.51001 5.28752-6.23402 15.94519-18.32814 9.02406l-.59123-1.44868c.90597-11.93456 9.73006-5.91022 18.91937-7.57538z"/><path d="m471.28549 347.60412c4.70843-1.36553 11.62564-3.69608 14.12446-5.86584" stroke-linecap="round"/><path d="m448.69563 352.70795c8.31409-3.90309 8.90817-14.62043 19.61671-5.70432l.33069 1.52934c-2.96463 11.59593-10.60854 4.13083-19.9474 4.17498z"/><path d="m471.33114 347.23282c-4.87402.52718-12.09084 1.62116-14.92846 3.32405" stroke-linecap="round"/><path d="m442.22769 342.41675c8.31409-3.90309 8.90817-14.62043 19.61671-5.70432l.33069 1.52934c-2.96463 11.59593-10.60854 4.13083-19.9474 4.17498z"/><path d="m464.8632 336.94162c-4.87402.52718-12.09084 1.62116-14.92846 3.32405" stroke-linecap="round"/><path d="m458.67412 344.45889c7.51001-5.28752 6.23402-15.94519 18.32814-9.02406l.59123 1.44868c-.90597 11.93456-9.73006 5.91022-18.91937 7.57538z"/><path d="m480.015 335.13633c-4.70843 1.36553-11.62564 3.69608-14.12446 5.86584" stroke-linecap="round"/><path d="m461.55419 316.94775c7.53721 5.24867 17.11574.4045 14.74843 14.13641l-1.15911 1.05106c-11.52467 3.23051-8.88166-7.12186-13.58932-15.18747z"/><path d="m477.61353 333.81312c-2.89355-3.95744-7.44937-9.6604-10.34293-11.26641" stroke-linecap="round"/><path d="m504.02871 359.43252c2.35425-8.87782-5.47383-16.22188 8.23962-18.69394l1.3841.72973c6.97737 9.72475-3.65465 10.78185-9.62372 17.96421z"/><path d="m514.38435 338.57337c-2.72912 4.07258-6.52997 10.30418-7.04948 13.57252" stroke-linecap="round"/><path d="m506.40805 346.10276c5.28752 7.51001 15.94519 6.23402 9.02406 18.32814l-1.44868.59123c-11.93456-.90597-5.91022-9.73006-7.57538-18.91937z"/><path d="m515.73061 367.44364c-1.36553-4.70843-3.69608-11.62564-5.86584-14.12446" stroke-linecap="round"/><path d="m449.91271 296.25331c9.15176.77688 15.02492-8.20757 19.84073 4.86828l-.47829 1.48979c-8.3654 8.56005-11.25267-1.72687-19.36244-6.35807z"/><path d="m472.2532 302.82948c-4.48461-1.98047-11.28155-4.64147-14.59045-4.58554" stroke-linecap="round"/><path d="m449.25843 315.05514c9.14762-.82412 13.37142-10.69193 20.38467 1.34901l-.21232 1.55021c-6.75188 9.88265-11.3816.25337-20.17235-2.89922z"/><path d="m472.40146 317.65201c-4.76039-1.17163-11.91615-2.61193-15.16506-1.98226" stroke-linecap="round"/><path d="m466.88321 296.60445c5.28752 7.51001 15.94519 6.23402 9.02406 18.32814l-1.44868.59123c-11.93456-.90597-5.91022-9.73006-7.57538-18.91937z"/><path d="m476.20577 317.94533c-1.36553-4.70843-3.69608-11.62564-5.86584-14.12446" stroke-linecap="round"/><path d="m491.26113 275.31603c-.77688 9.15176 8.20757 15.02492-4.86828 19.84073l-1.48979-.47829c-8.56005-8.3654 1.72687-11.25267 6.35807-19.36244z"/><path d="m484.68496 297.65652c1.98047-4.48461 4.64147-11.28155 4.58554-14.59045" stroke-linecap="round"/><path d="m470.81033 270.66524c5.28752 7.51001 15.94519 6.23402 9.02406 18.32814l-1.44868.59123c-11.93456-.90597-5.91022-9.73006-7.57538-18.91937z"/><path d="m480.13289 292.00612c-1.36553-4.70843-3.69608-11.62564-5.86584-14.12446" stroke-linecap="round"/><path d="m463.25903 306.59479c7.51001-5.28752 6.23402-15.94519 18.32814-9.02406l.59123 1.44868c-.90597 11.93456-9.73006 5.91022-18.91937 7.57538z"/><path d="m484.59991 297.27223c-4.70843 1.36553-11.62564 3.69608-14.12446 5.86584" stroke-linecap="round"/><path d="m474.3734 332.63799c7.51001-5.28752 6.23402-15.94519 18.32814-9.02406l.59123 1.44868c-.90597 11.93456-9.73006 5.91022-18.91937 7.57538z"/><path d="m495.71428 323.31543c-4.70843 1.36553-11.62564 3.69608-14.12446 5.86584" stroke-linecap="round"/><path d="m487.17499 314.24545c8.31409-3.90309 8.90817-14.62043 19.61671-5.70432l.33069 1.52934c-2.96463 11.59593-10.60854 4.13083-19.9474 4.17498z"/><path d="m509.8105 308.77032c-4.87402.52718-12.09084 1.62116-14.92846 3.32405" stroke-linecap="round"/><path d="m533.93556 322.00343c-8.31409 3.90309-8.90817 14.62043-19.61671 5.70432l-.33069-1.52934c2.96463-11.59593 10.60854-4.13083 19.9474-4.17498z"/><path d="m511.30005 327.47856c4.87402-.52718 12.09084-1.62116 14.92846-3.32405" stroke-linecap="round"/><path d="m509.50276 285.81595c-6.47775 6.51129-3.37046 16.78547-16.48268 12.06961l-.83381-1.32401c-1.1802-11.91056 8.55594-7.51003 17.31649-10.7456z"/><path d="m490.10495 298.70268c4.39977-2.16239 10.8072-5.65869 12.89127-8.22941" stroke-linecap="round"/><path d="m513.73402 286.5787c7.53721 5.24866 17.11573.40448 14.74843 14.1364l-1.1591 1.05105c-11.52468 3.23052-8.88167-7.12185-13.58933-15.18745z"/><path d="m529.79336 303.44405c-2.89355-3.95743-7.44937-9.66039-10.34293-11.2664" stroke-linecap="round"/><path d="m481.36029 275.81534c9.14762-.82412 13.37142-10.69193 20.38467 1.34901l-.21232 1.55021c-6.75188 9.88265-11.3816.25337-20.17235-2.89922z"/><path d="m504.50332 278.41221c-4.76039-1.17163-11.91615-2.61193-15.16506-1.98226" stroke-linecap="round"/><path d="m475.66932 255.75674c9.14762-.82412 13.37142-10.69193 20.38467 1.34901l-.21232 1.55021c-6.75188 9.88265-11.3816.25337-20.17235-2.89922z"/><path d="m498.81235 258.35361c-4.76039-1.17163-11.91615-2.61193-15.16506-1.98226" stroke-linecap="round"/><path d="m522.14908 252.63144c-8.31409 3.90309-8.90817 14.62043-19.61671 5.70432l-.33069-1.52934c2.96463-11.59593 10.60854-4.13083 19.9474-4.17498z"/><path d="m499.51357 258.10657c4.87402-.52718 12.09084-1.62116 14.92846-3.32405" stroke-linecap="round"/><path d="m519.30923 261.71845c7.53721 5.24866 17.11573.40448 14.74843 14.1364l-1.1591 1.05105c-11.52468 3.23052-8.88167-7.12185-13.58933-15.18745z"/><path d="m535.36857 278.5838c-2.89355-3.95743-7.44937-9.66039-10.34293-11.2664" stroke-linecap="round"/><path d="m525.48919 271.98668c-8.87782-2.35425-16.22188 5.47383-18.69394-8.23962l.72973-1.3841c9.72475-6.97737 10.78185 3.65465 17.96421 9.62372z"/><path d="m504.63004 261.63104c4.07258 2.72912 10.30418 6.52997 13.57252 7.04948" stroke-linecap="round"/><path d="m507.58852 262.28869c7.51001-5.28752 6.23402-15.94519 18.32814-9.02406l.59123 1.44868c-.90597 11.93456-9.73006 5.91022-18.91937 7.57538z"/><path d="m528.9294 252.96613c-4.70843 1.36553-11.62564 3.69608-14.12446 5.86584" stroke-linecap="round"/><path d="m509.28645 238.67658c8.33414 3.86011 16.92596-2.57377 16.97914 11.36061l-.95899 1.23636c-10.78861 5.18268-9.98342-5.47137-16.02015-12.59697z"/><path d="m528.03046 252.49705c-3.5368-3.39486-9.01371-8.22007-12.14219-9.29922" stroke-linecap="round"/><path d="m538.41088 231.28678c-2.35425 8.87782 5.47383 16.22188-8.23962 18.69394l-1.3841-.72973c-6.97737-9.72475 3.65465-10.78185 9.62372-17.96421z"/><path d="m528.05524 252.14593c2.72912-4.07258 6.52997-10.30418 7.04948-13.57252" stroke-linecap="round"/><path d="m535.6554 211.60635c3.90309 8.31409 14.62043 8.90817 5.70432 19.61671l-1.52934.33069c-11.59593-2.96463-4.13083-10.60854-4.17498-19.9474z"/><path d="m541.13053 234.24186c-.52718-4.87402-1.62116-12.09084-3.32405-14.92846" stroke-linecap="round"/><path d="m552.07876 220.20504c-2.35425 8.87782 5.47383 16.22188-8.23962 18.69394l-1.3841-.72973c-6.97737-9.72475 3.65464-10.78185 9.62372-17.96421z"/><path d="m541.72312 241.06419c2.72912-4.07258 6.52997-10.30418 7.04947-13.57252" stroke-linecap="round"/><path d="m581.01405 233.98993c-6.47775 6.51129-3.37046 16.78547-16.48268 12.06961l-.83381-1.32401c-1.1802-11.91056 8.55594-7.51003 17.31649-10.7456z"/><path d="m561.61624 246.87666c4.39977-2.16239 10.8072-5.65869 12.89127-8.22941" stroke-linecap="round"/><path d="m577.81243 275.63553c-7.53721-5.24866-17.11573-.40448-14.74843-14.1364l1.1591-1.05105c11.52468-3.23052 8.88167 7.12185 13.58933 15.18745z"/><path d="m561.75309 258.77018c2.89355 3.95743 7.44937 9.66039 10.34293 11.2664" stroke-linecap="round"/><path d="m551.87751 281.50208c2.35425-8.87782-5.47383-16.22188 8.23962-18.69394l1.3841.72973c6.97737 9.72475-3.65465 10.78185-9.62372 17.96421z"/><path d="m562.23315 260.64293c-2.72912 4.07258-6.52997 10.30418-7.04948 13.57252" stroke-linecap="round"/><path d="m567.69936 247.86634c7.53721 5.24866 17.11573.40448 14.74843 14.1364l-1.1591 1.05105c-11.52468 3.23052-8.88167-7.12185-13.58933-15.18745z"/><path d="m583.7587 264.73169c-2.89355-3.95743-7.44937-9.66039-10.34293-11.2664" stroke-linecap="round"/><path d="m587.15349 236.41773c.82412 9.14762 10.69193 13.37142-1.34901 20.38467l-1.55021-.21232c-9.88265-6.75188-.25337-11.3816 2.89922-20.17235z"/><path d="m584.55662 259.56076c1.17163-4.76039 2.61193-11.91615 1.98226-15.16506" stroke-linecap="round"/><path d="m606.34361 252.0108c-7.51001 5.28752-6.23402 15.94519-18.32814 9.02406l-.59123-1.44868c.90597-11.93456 9.73006-5.91022 18.91937-7.57538z"/><path d="m585.00273 261.33336c4.70843-1.36553 11.62564-3.69608 14.12446-5.86584" stroke-linecap="round"/><path d="m606.49227 269.96105c-9.14762.82412-13.37142 10.69193-20.38467-1.34901l.21232-1.55021c6.75188-9.88265 11.3816-.25337 20.17235 2.89922z"/><path d="m583.34924 267.36418c4.76039 1.17163 11.91615 2.61193 15.16506 1.98226" stroke-linecap="round"/><path d="m554.47967 312.01718c-.82412-9.14762-10.69193-13.37142 1.34901-20.38467l1.55021.21232c9.88265 6.75188.25337 11.3816-2.89922 20.17235z"/><path d="m557.07654 288.87415c-1.17163 4.76039-2.61193 11.91615-1.98226 15.16506" stroke-linecap="round"/><path d="m561.04106 304.62707c3.86011-8.33414-2.57377-16.92596 11.36061-16.97914l1.23636.95899c5.18268 10.78861-5.47137 9.98342-12.59697 16.02015z"/><path d="m574.86153 285.88306c-3.39486 3.5368-8.22007 9.01371-9.29922 12.14219" stroke-linecap="round"/><path d="m597.57483 306.29457c-7.53721-5.24866-17.11573-.40448-14.74843-14.1364l1.1591-1.05105c11.52468-3.23052 8.88167 7.12185 13.58933 15.18745z"/><path d="m581.51549 289.42922c2.89355 3.95743 7.44937 9.66039 10.34293 11.2664" stroke-linecap="round"/><path d="m603.75825 280.26923c-7.51001 5.28752-6.23402 15.94519-18.32814 9.02406l-.59123-1.44868c.90597-11.93456 9.73006-5.91022 18.91937-7.57538z"/><path d="m582.41737 289.59179c4.70843-1.36553 11.62564-3.69608 14.12446-5.86584" stroke-linecap="round"/><path d="m614.69058 264.7166c-2.35425 8.87782 5.47383 16.22188-8.23962 18.69394l-1.3841-.72973c-6.97737-9.72475 3.65465-10.78185 9.62372-17.96421z"/><path d="m604.33494 285.57575c2.72912-4.07258 6.52997-10.30418 7.04948-13.57252" stroke-linecap="round"/><path d="m629.45734 278.48844c-8.31409 3.90309-8.90817 14.62043-19.61671 5.70432l-.33069-1.52934c2.96463-11.59593 10.60854-4.13083 19.9474-4.17498z"/><path d="m606.82183 283.96357c4.87402-.52718 12.09084-1.62116 14.92846-3.32405" stroke-linecap="round"/><path d="m578.78584 330.8138c-8.33414-3.86011-16.92596 2.57377-16.97914-11.36061l.95899-1.23636c10.78861-5.18268 9.98342 5.47137 16.02015 12.59697z"/><path d="m560.04183 316.99333c3.5368 3.39485 9.01371 8.22006 12.14219 9.29922" stroke-linecap="round"/><path d="m591.12224 324.27833c-8.87782-2.35425-16.22188 5.47383-18.69394-8.23962l.72973-1.3841c9.72475-6.97737 10.78185 3.65465 17.96421 9.62372z"/><path d="m570.26309 313.92269c4.07258 2.72912 10.30418 6.52997 13.57252 7.04948" stroke-linecap="round"/><path d="m602.20408 316.89046c-8.87782-2.35425-16.22188 5.47383-18.69394-8.23962l.72973-1.3841c9.72475-6.97737 10.78185 3.65465 17.96421 9.62372z"/><path d="m581.34493 306.53482c4.07258 2.72912 10.30418 6.52997 13.57252 7.04948" stroke-linecap="round"/><path d="m607.11816 302.02486c-2.35425 8.87782 5.47383 16.22188-8.23962 18.69393l-1.3841-.72972c-6.97737-9.72475 3.65465-10.78185 9.62372-17.96421z"/><path d="m596.76252 322.884c2.72912-4.07257 6.52997-10.30417 7.04948-13.57251" stroke-linecap="round"/><path d="m627.73238 304.1296c-9.14762.82412-13.37142 10.69193-20.38467-1.34901l.21232-1.55021c6.75188-9.88265 11.3816-.25337 20.17235 2.89922z"/><path d="m604.58935 301.53273c4.76039 1.17163 11.91615 2.61193 15.16506 1.98226" stroke-linecap="round"/><path d="m573.35802 332.96662c-8.87782 2.35425-16.22188-5.47383-18.69394 8.23962l.72973 1.3841c9.72475 6.97737 10.78185-3.65465 17.96421-9.62372z"/><path d="m552.49887 343.32226c4.07258-2.72912 10.30418-6.52997 13.57252-7.04948" stroke-linecap="round"/><path d="m612.90553 344.15702c-7.53721-5.24866-17.11573-.40448-14.74843-14.1364l1.1591-1.05105c11.52468-3.23052 8.88167 7.12185 13.58933 15.18745z"/><path d="m596.84619 327.29167c2.89355 3.95743 7.44937 9.66039 10.34293 11.2664" stroke-linecap="round"/><path d="m631.68221 302.94755c-2.35425 8.87782 5.47383 16.22188-8.23962 18.69394l-1.3841-.72973c-6.97737-9.72475 3.65465-10.78185 9.62372-17.96421z"/><path d="m621.32657 323.8067c2.72912-4.07258 6.52997-10.30418 7.04948-13.57252" stroke-linecap="round"/><path d="m644.43979 331.42798c-9.15176-.77688-15.02492 8.20757-19.84073-4.86828l.47829-1.48979c8.3654-8.56005 11.25267 1.72687 19.36244 6.35807z"/><path d="m622.0993 324.85181c4.48461 1.98047 11.28155 4.64147 14.59045 4.58554" stroke-linecap="round"/><path d="m618.75417 348.77154c-.82412-9.14762-10.69193-13.37142 1.34901-20.38467l1.55021.21232c9.88265 6.75188.25337 11.3816-2.89922 20.17235z"/><path d="m621.35104 325.62851c-1.17163 4.76039-2.61193 11.91615-1.98226 15.16506" stroke-linecap="round"/><path d="m586.68915 357.3383c-8.87782-2.35425-16.22188 5.47383-18.69394-8.23962l.72973-1.3841c9.72475-6.97737 10.78185 3.65465 17.96421 9.62372z"/><path d="m565.83 346.98266c4.07258 2.72912 10.30418 6.52997 13.57252 7.04948" stroke-linecap="round"/><path d="m560.68096 350.7416c7.53721 5.24866 17.11573.40448 14.74843 14.1364l-1.1591 1.05105c-11.52468 3.23052-8.88167-7.12185-13.58933-15.18745z"/><path d="m576.7403 367.60695c-2.89355-3.95743-7.44937-9.66039-10.34293-11.2664" stroke-linecap="round"/><g transform="translate(-62.915769 -74.218003)"><path d="m614.83925 348.05192c-7.51001 5.28752-6.23402 15.94519-18.32814 9.02406l-.59123-1.44868c.90597-11.93456 9.73006-5.91022 18.91937-7.57538z"/><path d="m593.49837 357.37448c4.70843-1.36553 11.62564-3.69608 14.12446-5.86584" stroke-linecap="round"/></g><path d="m558.3409 350.74365c.82412 9.14762 10.69193 13.37142-1.34901 20.38467l-1.55021-.21232c-9.88265-6.75188-.25337-11.3816 2.89922-20.17235z"/><path d="m555.74403 373.88668c1.17163-4.76039 2.61193-11.91615 1.98226-15.16506" stroke-linecap="round"/><path d="m602.74713 364.10414c-7.53721-5.24866-17.11573-.40448-14.74843-14.1364l1.1591-1.05105c11.52468-3.23052 8.88167 7.12185 13.58933 15.18745z"/><path d="m586.68779 347.23879c2.89355 3.95743 7.44937 9.66039 10.34293 11.2664" stroke-linecap="round"/><path d="m618.93834 348.19849c-2.35425 8.87782 5.47383 16.22188-8.23962 18.69394l-1.3841-.72973c-6.97737-9.72475 3.65465-10.78185 9.62372-17.96421z"/><path d="m608.5827 369.05764c2.72912-4.07258 6.52997-10.30418 7.04948-13.57252" stroke-linecap="round"/><path d="m623.97812 340.07836c2.40007 8.86554 12.85143 11.31164 2.21126 20.30924l-1.56354.0601c-10.90495-4.9332-2.22591-11.16468-.64772-20.36933z"/><path d="m625.43945 363.32074c.3272-4.89152.50303-12.18867-.68124-15.27889" stroke-linecap="round"/><path d="m639.91043 344.4544c-3.86011 8.33414 2.57377 16.92596-11.36061 16.97914l-1.23636-.95899c-5.18268-10.78861 5.47137-9.98342 12.59697-16.02015z"/><path d="m626.08996 363.19841c3.39486-3.5368 8.22007-9.01371 9.29922-12.14219" stroke-linecap="round"/><path d="m640.52961 380.7294c-6.51129-6.47775-16.78547-3.37046-12.06961-16.48268l1.32401-.83381c11.91056-1.1802 7.51003 8.55594 10.7456 17.31649z"/><path d="m627.64288 361.33159c2.16239 4.39977 5.65869 10.8072 8.22941 12.89127" stroke-linecap="round"/><path d="m632.42314 369.68072c-8.31409 3.90309-8.90817 14.62043-19.61671 5.70432l-.33069-1.52934c2.96463-11.59593 10.60854-4.13083 19.9474-4.17498z"/><path d="m609.78763 375.15585c4.87402-.52718 12.09084-1.62116 14.92846-3.32405" stroke-linecap="round"/><path d="m631.25778 386.16981c-8.87782-2.35425-16.22188 5.47383-18.69394-8.23962l.72973-1.3841c9.72475-6.97737 10.78185 3.65465 17.96421 9.62372z"/><path d="m610.39863 375.81417c4.07258 2.72912 10.30418 6.52997 13.57252 7.04948" stroke-linecap="round"/><path d="m587.99959 390.35993c-7.53721-5.24867-17.11574-.4045-14.74843-14.13641l1.15911-1.05106c11.52467-3.23051 8.88166 7.12186 13.58932 15.18747z"/><path d="m571.94025 373.49456c2.89355 3.95744 7.44937 9.6604 10.34293 11.26641" stroke-linecap="round"/><path d="m560.39724 398.08258c.77688-9.15176-8.20757-15.02492 4.86828-19.84073l1.48979.47829c8.56005 8.3654-1.72687 11.25267-6.35807 19.36244z"/><path d="m566.97341 375.74209c-1.98047 4.48461-4.64147 11.28155-4.58554 14.59045" stroke-linecap="round"/><path d="m619.42799 306.14431c-2.35425 8.87782 5.47383 16.22188-8.23962 18.69393l-1.3841-.72972c-6.97737-9.72476 3.65465-10.78185 9.62372-17.96421z"/><path d="m609.07235 327.00345c2.72912-4.07257 6.52997-10.30417 7.04948-13.57251" stroke-linecap="round"/><path d="m531.89857 330.74059c2.35426 8.87782-5.47383 16.22188 8.23962 18.69394l1.38411-.72973c6.97736-9.72475-3.65465-10.78185-9.62373-17.96421z"/><path d="m542.25422 351.59974c-2.72913-4.07258-6.52998-10.30418-7.04948-13.57252" stroke-linecap="round"/><path d="m553.36173 279.50468c-2.35426 8.87782 5.47383 16.22188-8.23962 18.69394l-1.3841-.72973c-6.97737-9.72475 3.65464-10.78185 9.62372-17.96421z"/><path d="m543.00609 300.36383c2.72912-4.07258 6.52997-10.30418 7.04947-13.57252" stroke-linecap="round"/><path d="m533.25589 304.74033c8.87782 2.35425 16.22188-5.47383 18.69394 8.23962l-.72973 1.3841c-9.72475 6.97737-10.78185-3.65465-17.96421-9.62372z"/><path d="m554.11504 315.09597c-4.07258-2.72912-10.30418-6.52997-13.57252-7.04948" stroke-linecap="round"/><path d="m568.98641 248.89469c-8.87782 2.35425-16.22188-5.47383-18.69394 8.23962l.72973 1.3841c9.72475 6.97737 10.78185-3.65465 17.96421-9.62372z"/><path d="m548.12726 259.25033c4.07258-2.72912 10.30418-6.52997 13.57252-7.04948" stroke-linecap="round"/><path d="m482.64839 357.17167c7.53721 5.24866 17.11573.40449 14.74843 14.1364l-1.1591 1.05105c-11.52468 3.23052-8.88167-7.12185-13.58933-15.18745z"/><path d="m498.70773 374.03703c-2.89355-3.95744-7.44937-9.6604-10.34293-11.26641" stroke-linecap="round"/><path d="m548.95837 362.62414c-.82412-9.14762-10.69193-13.37142 1.34901-20.38467l1.55021.21232c9.88265 6.75188.25337 11.3816-2.89922 20.17235z"/><path d="m551.55524 339.48111c-1.17163 4.76039-2.61193 11.91615-1.98226 15.16506" stroke-linecap="round"/><path d="m633.15652 289.85981c-9.15176.77688-15.02492-8.20757-19.84073 4.86828l.47829 1.48979c8.3654 8.56005 11.25267-1.72687 19.36244-6.35807z"/><path d="m610.81603 296.43598c4.48461-1.98047 11.28155-4.64147 14.59045-4.58554" stroke-linecap="round"/><path d="m506.73863 226.53084c6.47775 6.51129 3.37046 16.78547 16.48268 12.06961l.83381-1.32401c1.1802-11.91056-8.55594-7.51003-17.31649-10.7456z"/><path d="m526.13644 239.41757c-4.39977-2.16239-10.8072-5.65869-12.89127-8.22941" stroke-linecap="round"/></g></g></g><g fill="#e4bd3e" fill-rule="evenodd" stroke-width="6.596241" transform="matrix(.34656996 0 0 .34656996 362.010066 154.76731)"><g transform="matrix(.43743407 0 0 .43743407 -339.22798 54.615776)"><path d="m56.959565 21.364594c-10.643526 3.292523-12.077196 2.486749-20.477109-1.117402-7.656982-2.971251-14.942393.52585-23.196464 12.77741-29.305114 43.49778.991917 82.952878 36.790178 74.363088 37.300534 10.29994 69.0727-48.21119 31.702129-83.364943-10.664053-10.031456-19.810351-3.726364-24.818734-2.658153z" stroke-linejoin="round"/><path d="m56.834453 24.929299c-7.638387-2.653401-2.622433-15.391486 3.749449-22.30894l-6.372737-1.1203112c-13.02546 14.8861742-5.251349 20.3760292-11.908864 25.8896032 4.523248 2.500874 10.088571 2.820324 14.532152-2.460352z"/></g><g transform="matrix(.43743407 0 0 .43743407 -127.72302 103.37228)"><path d="m56.959565 21.364594c-10.643526 3.292523-12.077196 2.486749-20.477109-1.117402-7.656982-2.971251-14.942393.52585-23.196464 12.77741-29.305114 43.49778.991917 82.952878 36.790178 74.363088 37.300534 10.29994 69.0727-48.21119 31.702129-83.364943-10.664053-10.031456-19.810351-3.726364-24.818734-2.658153z" stroke-linejoin="round"/><path d="m56.834453 24.929299c-7.638387-2.653401-2.622433-15.391486 3.749449-22.30894l-6.372737-1.1203112c-13.02546 14.8861742-5.251349 20.3760292-11.908864 25.8896032 4.523248 2.500874 10.088571 2.820324 14.532152-2.460352z"/></g><g transform="matrix(.43743407 0 0 .43743407 -76.011106 7.150237)"><path d="m56.959565 21.364594c-10.643526 3.292523-12.077196 2.486749-20.477109-1.117402-7.656982-2.971251-14.942393.52585-23.196464 12.77741-29.305114 43.49778.991917 82.952878 36.790178 74.363088 37.300534 10.29994 69.0727-48.21119 31.702129-83.364943-10.664053-10.031456-19.810351-3.726364-24.818734-2.658153z" stroke-linejoin="round"/><path d="m56.834453 24.929299c-7.638387-2.653401-2.622433-15.391486 3.749449-22.30894l-6.372737-1.1203112c-13.02546 14.8861742-5.251349 20.3760292-11.908864 25.8896032 4.523248 2.500874 10.088571 2.820324 14.532152-2.460352z"/></g><g transform="matrix(.43743407 0 0 .43743407 -264.92946 -28.212833)"><path d="m56.959565 21.364594c-10.643526 3.292523-12.077196 2.486749-20.477109-1.117402-7.656982-2.971251-14.942393.52585-23.196464 12.77741-29.305114 43.49778.991917 82.952878 36.790178 74.363088 37.300534 10.29994 69.0727-48.21119 31.702129-83.364943-10.664053-10.031456-19.810351-3.726364-24.818734-2.658153z" stroke-linejoin="round"/><path d="m56.834453 24.929299c-7.638387-2.653401-2.622433-15.391486 3.749449-22.30894l-6.372737-1.1203112c-13.02546 14.8861742-5.251349 20.3760292-11.908864 25.8896032 4.523248 2.500874 10.088571 2.820324 14.532152-2.460352z"/></g><g transform="matrix(.43743407 0 0 .43743407 -208.4892 -62.053874)"><path d="m56.959565 21.364594c-10.643526 3.292523-12.077196 2.486749-20.477109-1.117402-7.656982-2.971251-14.942393.52585-23.196464 12.77741-29.305114 43.49778.991917 82.952878 36.790178 74.363088 37.300534 10.29994 69.0727-48.21119 31.702129-83.364943-10.664053-10.031456-19.810351-3.726364-24.818734-2.658153z" stroke-linejoin="round"/><path d="m56.834453 24.929299c-7.638387-2.653401-2.622433-15.391486 3.749449-22.30894l-6.372737-1.1203112c-13.02546 14.8861742-5.251349 20.3760292-11.908864 25.8896032 4.523248 2.500874 10.088571 2.820324 14.532152-2.460352z"/></g><g transform="matrix(-.43743407 0 0 .43743407 -102.45652 -20.314413)"><path d="m56.959565 21.364594c-10.643526 3.292523-12.077196 2.486749-20.477109-1.117402-7.656982-2.971251-14.942393.52585-23.196464 12.77741-29.305114 43.49778.991917 82.952878 36.790178 74.363088 37.300534 10.29994 69.0727-48.21119 31.702129-83.364943-10.664053-10.031456-19.810351-3.726364-24.818734-2.658153z" stroke-linejoin="round"/><path d="m56.834453 24.929299c-7.638387-2.653401-2.622433-15.391486 3.749449-22.30894l-6.372737-1.1203112c-13.02546 14.8861742-5.251349 20.3760292-11.908864 25.8896032 4.523248 2.500874 10.088571 2.820324 14.532152-2.460352z"/></g><g transform="matrix(-.43743407 0 0 .43743407 -232.97918 89.785617)"><path d="m56.959565 21.364594c-10.643526 3.292523-12.077196 2.486749-20.477109-1.117402-7.656982-2.971251-14.942393.52585-23.196464 12.77741-29.305114 43.49778.991917 82.952878 36.790178 74.363088 37.300534 10.29994 69.0727-48.21119 31.702129-83.364943-10.664053-10.031456-19.810351-3.726364-24.818734-2.658153z" stroke-linejoin="round"/><path d="m56.834453 24.929299c-7.638387-2.653401-2.622433-15.391486 3.749449-22.30894l-6.372737-1.1203112c-13.02546 14.8861742-5.251349 20.3760292-11.908864 25.8896032 4.523248 2.500874 10.088571 2.820324 14.532152-2.460352z"/></g><g transform="matrix(-.43743407 0 0 .43743407 -313.39627 143.3279)"><path d="m56.959565 21.364594c-10.643526 3.292523-12.077196 2.486749-20.477109-1.117402-7.656982-2.971251-14.942393.52585-23.196464 12.77741-29.305114 43.49778.991917 82.952878 36.790178 74.363088 37.300534 10.29994 69.0727-48.21119 31.702129-83.364943-10.664053-10.031456-19.810351-3.726364-24.818734-2.658153z" stroke-linejoin="round"/><path d="m56.834453 24.929299c-7.638387-2.653401-2.622433-15.391486 3.749449-22.30894l-6.372737-1.1203112c-13.02546 14.8861742-5.251349 20.3760292-11.908864 25.8896032 4.523248 2.500874 10.088571 2.820324 14.532152-2.460352z"/></g><g transform="matrix(-.43743407 0 0 .43743407 -155.97877 81.26174)"><path d="m56.959565 21.364594c-10.643526 3.292523-12.077196 2.486749-20.477109-1.117402-7.656982-2.971251-14.942393.52585-23.196464 12.77741-29.305114 43.49778.991917 82.952878 36.790178 74.363088 37.300534 10.29994 69.0727-48.21119 31.702129-83.364943-10.664053-10.031456-19.810351-3.726364-24.818734-2.658153z" stroke-linejoin="round"/><path d="m56.834453 24.929299c-7.638387-2.653401-2.622433-15.391486 3.749449-22.30894l-6.372737-1.1203112c-13.02546 14.8861742-5.251349 20.3760292-11.908864 25.8896032 4.523248 2.500874 10.088571 2.820324 14.532152-2.460352z"/></g><g transform="matrix(-.43743407 0 0 .43743407 -20.834656 129.51867)"><path d="m56.959565 21.364594c-10.643526 3.292523-12.077196 2.486749-20.477109-1.117402-7.656982-2.971251-14.942393.52585-23.196464 12.77741-29.305114 43.49778.991917 82.952878 36.790178 74.363088 37.300534 10.29994 69.0727-48.21119 31.702129-83.364943-10.664053-10.031456-19.810351-3.726364-24.818734-2.658153z" stroke-linejoin="round"/><path d="m56.834453 24.929299c-7.638387-2.653401-2.622433-15.391486 3.749449-22.30894l-6.372737-1.1203112c-13.02546 14.8861742-5.251349 20.3760292-11.908864 25.8896032 4.523248 2.500874 10.088571 2.820324 14.532152-2.460352z"/></g></g><g fill="#c1dce6" stroke-width="2" transform="matrix(.28713787 .02924903 -.02924903 .28713787 274.42765 -145.8944)"><path d="m1 564.32085 3.25494 8.835 35.80436-12.555-3.9524-8.137" fill-rule="evenodd"/><path d="m1.33922 563.47385c6.125-14.395 8.99998-24.395 9.74998-24.877 9.2812 0 16.5 2.232 27.8809 12.438-15.8809 6.294-22.3809 9.169-37.63088 12.439z"/><g fill-rule="evenodd"><path d="m115.474 412.51025c-4.066 4.2858-8.709 9.8906-17.1433 15.3846 2.4453 4.506 3.5993 4.616 5.7143 6.154"/><path d="m279.506 617.26685c5.209 3.424 5.693 8.113 11.163 14.141 10.531-3.796 18.271-3.535 26.495-3.275-1.6-6.14-2.53-14.14-2.53-14.14"/><path d="m141.555 336.43055c-5.782-4.0781-17.833-7.0792-22.785-10.09822-1.391 1.24966-2.784 4.22912 11.306 12.94642"/><path d="m111.523 492.46985s-12.3487-14.592-25.3765-13.733c-9.8646.65-45.9992 24.707-65.9789 39.408-3.0712 2.26-5.5978 14.256-10.1506 22.988 9.7774-.522 15.2259 1.717 21.7939 5.971 5.0753-6.792 5.403-8.272 8.0608-11.643-.3254-2.735-2.6493-5.758-1.4927-7.165 1.684-2.05 6.9298-1.727 11.0462-4.18 11.0968-6.614 26.851-20.253 34.93-19.406 8.8175.925 13.1276 15.362 19.3008 25.574"/><path d="m289.941 772.54085v7.207h39.757l.465-6.51"/><path d="m307.611 750.91885c-4.359 5.463-13.834 12.903-17.437 21.854 9.005-.43 31.645-.134 40.221 0-1.681-3.356-2.266-5.58-3.022-7.44"/><path d="m313.562 619.44685c1.832 6.412.82 17.402 4.763 25.281 27.482 17.022 33.341 24.64 40.669 43.601-7.041 21.093-13.19 28.029-21.983 42.135-17.608 9.313-23.175 13.464-30.411 21.617 6.687 3.022 13.557 7.144 20.884 14.289 5.863-24.365 16.122-8.519 18.686-3.298 5.863-4.671 4.397-12.09 6.229-18.319 11.725-16.121 36.273-50.562 36.273-50.562"/><path d="m392.071 555.29885c31.826 20.052 62.276 83.567 95.892 51.325-12.548 6.228-16.304 3.022-24.914-.733 37.555-4.122 22.808-34.899 34.441-52.394-3.389-2.473-6.229-.916-9.893 1.466-4.03-22.9-20.426-28.854-25.281-50.562-3.389 5.038-2.29 2.107-4.397 10.625-21.891-20.06-14.289-43.875-9.526-57.523-23.082 7.969-23.907 25.922-24.181 54.226-7.969-10.9-7.053-20.335-5.13-32.976-31.418 47.448 27.205 71.172 28.945 87.568-8.519 16.762-42.501-10.259-61.92-21.617"/><path d="m234.649 490.96685c16.124-138.4628-56.635-155.8852-113.109-140.4111-7.123-2.9271-1.596-1.241-9.219-7.0915 20.388-14.3603 52.832-9.1303 66.66-7.8006 0 2.3934.886-.266 0 4.2549 5.906-.2218 10.346-.2477 17.771 2.1168-.737 2.1523-2.272 2.4146-4.802 4.5988 12.95-3.5628 38.999 25.3007 47.931 33.9097-5.311-.8862-3.913.4095-8.735-.7516 5.952 4.3169 7.36 14.7472 15.741 19.6629-3.852.5333.62 2.2488-6.318 1.4608 6.391 5.7858 6.58 16.1784 12.164 19.4909-2.452 1.487-4.56 1.977-10.283 1.064 17.436 8.253.352 39.1 15.062 66.819-11.006-2.364-11.412 4.797-22.447 2.633"/><path d="m235.219 489.60385c10.453-82.0294-8.005-135.4739-78.429-146.145-5.189-4.0531 2.009-7.3364-5.041-13.4577-8.94-6.12122-19.438-4.59542-24.417-11.0273-2.558 1.74478-4.108 2.62768-3.061 4.20836 3.881 6.63174 12.09 7.44884 16.86 12.58614 4.666 5.0258 1.817 5.6332.246 7.9629-7.731.2352-19.29 5.4057-21.314 7.7617-13.905 16.1878-29.6024 34.037-42.4662 48.97-8.3857 9.7346-2.463 9.2775-1.5303 16.4508-1.6808 7.6961.335 9.9511 2.8218 14.1591 2.6609 3.686 8.0974 2.282 9.7386-.81 1.6489-3.107.4906-6.728 2.432-7.959 10.8711-6.8896 18.5801-12.6604 22.8831-15.3371-1.098 10.0419-2.805 16.0561-5.845 20.4851-2.434 3.546-8.893 5.057-10.0152 8.42-.5096 1.528 1.8698 3.841 3.0982 3.962 4.517.446 12.96-3.12 14.883-4.348 6.35-4.054 6.006-8.405 7.443-15.894 7.361-4.7009 12.243-9.1819 12.243-9.1819s11.902 1.1985 20.639-2.6376c6.075 21.0065-10.365 39.1995-17.93 54.4285-5.198 1.033-10.413 4.001-12.328 6.488-9.9 14.318-11.929 19.231-27.2715 45.162-2.0335 5.525 17.0145 50.791 46.9375 76.901 79.018 31.433 90.023 32.191 161.481 28.425 4.026 13.388 2.989 23.498 10.336 29.537 25.369 20.853 43.753 17.633 57.393 46.809 2.333 4.99-9.765 25.95-21.04 41.68-19.842 10.761-24.556 14.024-31.738 21.241 17.458.816 19.308 5.21 27.33 14.026 4.501-16.144 17.343-8.653 18.836-1.803 4.052-8.19 7.921-12.227 7.614-19.437 12.173-21.291 32.146-46.141 41.079-65.726 2.096-4.597-1.678-6.96-5.491-13.785-11.814-2.664-22.137-10.505-22.563-16.072-1.157-15.133 20.092-37.656 22.524-45.888 8.683-29.396-10.866-61.431-36.79-77.71-45.234-28.403-84.453 1.822-139.548-42.445z"/><path d="m373.796 651.83385c3.963 7.538 7.926 12.355 17.716 21.758 17.251.699 9.714 13.365 6.528 18.338"/><path d="m81.5172 407.78485c8.4342-4.1759 10.9068 5.9342 2.4176 6.8134"/><path d="m15.273 626.39185 5.8124 6.045 28.132-31.387-6.7424-6.045"/><path d="m12.5738 599.79685c.93 6.742-.0581 19.936 2.79 26.737 7.033-8.545 19.8202-20.809 28.1319-30.225-3.778-5.696-11.5085-4.243-12.5547-9.067"/><path d="m309.006 778.35285v7.44l41.152-.465v-6.742"/><path d="m348.414 766.26285c.345.604 1.22 4.604 1.86 12.09-11.044-.29-28.888-.465-41.384-.232 4.243-8.603 9.358-15.171 13.717-20.227 14.777.973 25.123 7.173 25.807 8.369z"/><path d="m139.208 565.94085c4.116-20.104-6.965-27.306-16.463-32.292-10.718-15.6-15.196-23.665-27.8593-30.709-8.8644-2.296-17.7289-1.425-29.126 1.266-18.9953 19.154-50.5514 62.263-53.1868 72.499-2.62491 10.194-1.2663 16.937 0 23.744 7.5981-4.591 12.9801-7.123 21.2114-11.081.6332-16.304 9.8934-8.231 11.7137-4.749 4.3531-3.799 4.3531-6.252 5.0654-11.08.7124-4.828 0-2.295-1.5829-6.649 10.4474-15.433 19.3097-32.369 31.6588-31.658 11.0014.633 12.8492 15.129 17.4123 25.327 3.7844 8.458 23.6594 30.506 30.0754 37.99 4.59-.068 8.548.238 13.614 0 5.698-11.951 12.901-16.225 19.312-17.412"/><path d="m110.743 368.47715c1.887 1.9999 5.3 1.231 6.757.3717 4.875-2.875 2.817-3.8965 7.742-5.2714s8.15 3.7998 8.15 3.7998-3.054 1.4811-4.55 2.4999c-1.816 1.2366-4.591 7.2412-9 6.5496-3.624-.5686-6.667-4.6573-9.099-7.9496z"/></g><path d="m126.917 370.57735c0 1.7189-1.966 3.1151-4.4 3.1248-2.434.01-4.422-1.3708-4.45-3.0896-.027-1.7188 1.917-3.1305 4.35-3.1595 2.434-.0291 4.444 1.3355 4.499 3.054l-4.424.0703z"/></g><g fill="#edcd66"><path d="m170.26752 81.586166h85v10h-85z"/><path d="m-255.26752 41.58617h85v10h-85z" transform="scale(-1 1)"/><path d="m175.26752 51.586166h75v30h-75z"/><path d="m250.26752 51.586166v30"/><path d="m207.41059 51.586166v30"/><path d="m185.98213 51.586166v30"/><path d="m175.2679 51.586166v30"/><path d="m239.55329 51.586166v30"/><path d="m228.83907 51.586166v30"/><path d="m196.69636 51.586166v30"/><path d="m218.12482 51.586166v30"/><path d="m218.12482 51.586166v30"/><g stroke-width="7.314251" transform="matrix(.13671939 0 0 .13671939 87.676729 -45.367775)"><g stroke-width="4.816103" transform="matrix(1.5187073 0 0 1.5187073 298.06558 -350.15727)"><g transform="translate(0 .323718)"><path d="m397.42188 231.625s2.37982 10.47132 0 18.4375-3.40624 13.93405-3.40625 23.46875c.00001 9.53469.0852 16.26077 3.40625 23.46875 1.10948 2.06777 1.64439 3.65101 0 5.71875-1.67954 2.11195-5.65626 7.48623-5.65625 13.40625s1.60116 9.19677 5.65625 14.0625 0 14.5625 0 14.5625h8.6875.15625 8.6875s-4.05508-9.69677 0-14.5625c4.05509-4.86573 5.65625-8.14248 5.65625-14.0625.00001-5.92002-3.9767-11.2943-5.65625-13.40625-1.64439-2.06774-1.10947-3.65098 0-5.71875 3.32104-7.20798 3.40625-13.93406 3.40625-23.46875-.00001-9.5347-1.02642-15.50257-3.40625-23.46875-2.37982-7.96618.00001-18.4375 0-18.4375h-8.6875-.15625z"/><path d="m397.42188 559.20508s2.37982-10.47132 0-18.4375-3.40624-13.93405-3.40625-23.46875c.00001-9.53469.0852-16.26077 3.40625-23.46875 1.10948-2.06777 1.64439-3.65101 0-5.71875-1.67954-2.11195-5.65626-7.48623-5.65625-13.40625s1.60116-9.19677 5.65625-14.0625 0-14.5625 0-14.5625h8.6875.15625 8.6875s-4.05508 9.69677 0 14.5625c4.05509 4.86573 5.65625 8.14248 5.65625 14.0625.00001 5.92002-3.9767 11.2943-5.65625 13.40625-1.64439 2.06774-1.10947 3.65098 0 5.71875 3.32104 7.20798 3.40625 13.93406 3.40625 23.46875-.00001 9.5347-1.02642 15.50257-3.40625 23.46875-2.37982 7.96618.00001 18.4375 0 18.4375h-8.6875-.15625z"/></g><g transform="matrix(-.7071068 .7071068 -.7071068 -.7071068 973.00611 388.12148)"><path d="m397.42188 231.625s2.37982 10.47132 0 18.4375-3.40624 13.93405-3.40625 23.46875c.00001 9.53469.0852 16.26077 3.40625 23.46875 1.10948 2.06777 1.64439 3.65101 0 5.71875-1.67954 2.11195-5.65626 7.48623-5.65625 13.40625s1.60116 9.19677 5.65625 14.0625 0 14.5625 0 14.5625h8.6875.15625 8.6875s-4.05508-9.69677 0-14.5625c4.05509-4.86573 5.65625-8.14248 5.65625-14.0625.00001-5.92002-3.9767-11.2943-5.65625-13.40625-1.64439-2.06774-1.10947-3.65098 0-5.71875 3.32104-7.20798 3.40625-13.93406 3.40625-23.46875-.00001-9.5347-1.02642-15.50257-3.40625-23.46875-2.37982-7.96618.00001-18.4375 0-18.4375h-8.6875-.15625z"/><path d="m397.42188 559.20508s2.37982-10.47132 0-18.4375-3.40624-13.93405-3.40625-23.46875c.00001-9.53469.0852-16.26077 3.40625-23.46875 1.10948-2.06777 1.64439-3.65101 0-5.71875-1.67954-2.11195-5.65626-7.48623-5.65625-13.40625s1.60116-9.19677 5.65625-14.0625 0-14.5625 0-14.5625h8.6875.15625 8.6875s-4.05508 9.69677 0 14.5625c4.05509 4.86573 5.65625 8.14248 5.65625 14.0625.00001 5.92002-3.9767 11.2943-5.65625 13.40625-1.64439 2.06774-1.10947 3.65098 0 5.71875 3.32104 7.20798 3.40625 13.93406 3.40625 23.46875-.00001 9.5347-1.02642 15.50257-3.40625 23.46875-2.37982 7.96618.00001 18.4375 0 18.4375h-8.6875-.15625z"/></g><g transform="matrix(0 1 -1 0 801.60255 -10.448753)"><path d="m397.42188 231.625s2.37982 10.47132 0 18.4375-3.40624 13.93405-3.40625 23.46875c.00001 9.53469.0852 16.26077 3.40625 23.46875 1.10948 2.06777 1.64439 3.65101 0 5.71875-1.67954 2.11195-5.65626 7.48623-5.65625 13.40625s1.60116 9.19677 5.65625 14.0625 0 14.5625 0 14.5625h8.6875.15625 8.6875s-4.05508-9.69677 0-14.5625c4.05509-4.86573 5.65625-8.14248 5.65625-14.0625.00001-5.92002-3.9767-11.2943-5.65625-13.40625-1.64439-2.06774-1.10947-3.65098 0-5.71875 3.32104-7.20798 3.40625-13.93406 3.40625-23.46875-.00001-9.5347-1.02642-15.50257-3.40625-23.46875-2.37982-7.96618.00001-18.4375 0-18.4375h-8.6875-.15625z"/><path d="m397.42188 559.20508s2.37982-10.47132 0-18.4375-3.40624-13.93405-3.40625-23.46875c.00001-9.53469.0852-16.26077 3.40625-23.46875 1.10948-2.06777 1.64439-3.65101 0-5.71875-1.67954-2.11195-5.65626-7.48623-5.65625-13.40625s1.60116-9.19677 5.65625-14.0625 0-14.5625 0-14.5625h8.6875.15625 8.6875s-4.05508 9.69677 0 14.5625c4.05509 4.86573 5.65625 8.14248 5.65625 14.0625.00001 5.92002-3.9767 11.2943-5.65625 13.40625-1.64439 2.06774-1.10947 3.65098 0 5.71875 3.32104 7.20798 3.40625 13.93406 3.40625 23.46875-.00001 9.5347-1.02642 15.50257-3.40625 23.46875-2.37982 7.96618.00001 18.4375 0 18.4375h-8.6875-.15625z"/></g><g transform="matrix(.7071068 .7071068 -.7071068 .7071068 398.57023 -171.07984)"><path d="m397.42188 231.625s2.37982 10.47132 0 18.4375-3.40624 13.93405-3.40625 23.46875c.00001 9.53469.0852 16.26077 3.40625 23.46875 1.10948 2.06777 1.64439 3.65101 0 5.71875-1.67954 2.11195-5.65626 7.48623-5.65625 13.40625s1.60116 9.19677 5.65625 14.0625 0 14.5625 0 14.5625h8.6875.15625 8.6875s-4.05508-9.69677 0-14.5625c4.05509-4.86573 5.65625-8.14248 5.65625-14.0625.00001-5.92002-3.9767-11.2943-5.65625-13.40625-1.64439-2.06774-1.10947-3.65098 0-5.71875 3.32104-7.20798 3.40625-13.93406 3.40625-23.46875-.00001-9.5347-1.02642-15.50257-3.40625-23.46875-2.37982-7.96618.00001-18.4375 0-18.4375h-8.6875-.15625z"/><path d="m397.42188 559.20508s2.37982-10.47132 0-18.4375-3.40624-13.93405-3.40625-23.46875c.00001-9.53469.0852-16.26077 3.40625-23.46875 1.10948-2.06777 1.64439-3.65101 0-5.71875-1.67954-2.11195-5.65626-7.48623-5.65625-13.40625s1.60116-9.19677 5.65625-14.0625 0-14.5625 0-14.5625h8.6875.15625 8.6875s-4.05508 9.69677 0 14.5625c4.05509 4.86573 5.65625 8.14248 5.65625 14.0625.00001 5.92002-3.9767 11.2943-5.65625 13.40625-1.64439 2.06774-1.10947 3.65098 0 5.71875 3.32104 7.20798 3.40625 13.93406 3.40625 23.46875-.00001 9.5347-1.02642 15.50257-3.40625 23.46875-2.37982 7.96618.00001 18.4375 0 18.4375h-8.6875-.15625z"/></g></g><path d="m914.94552-19.933343c-149.46684 0-270.75704 121.337633-270.75706 270.804513 0 149.46682 121.29022 270.75701 270.75706 270.75703 149.46678 0 270.75698-121.29023 270.75698-270.75703 0-149.46685-121.2901-270.804503-270.75698-270.804513zm0 58.447765c117.20618 0 212.31048 95.149358 212.31048 212.355508-.0001 117.20611-95.1043 212.31049-212.31048 212.31049-117.20614.00003-212.31051-95.10436-212.31051-212.31049 0-117.20618 95.10437-212.355508 212.31051-212.355508zm0 127.973558c-46.57607 0-84.3832 37.80709-84.38318 84.38319 0 46.57606 37.80711 84.38316 84.38318 84.38316 46.57606 0 84.38321-37.80711 84.38318-84.38316 0-46.57607-37.8071-84.38317-84.38318-84.38319zm0 54.05649c16.72505.00002 30.27922 13.60166 30.27922 30.3267.00001 16.725-13.55418 30.27921-30.27922 30.27921s-30.27923-13.55419-30.27923-30.27921c-.00002-16.72506 13.55419-30.3267 30.27923-30.3267z" stroke-width="7.314251"/></g><path d="m-12.638852-217.29172h54.249817v9.048401h-54.249817z" transform="rotate(90)"/><path d="m195.5 101.15625-23.875 23.875h10.09375l13.78125-13.75z" transform="translate(12.751896 -83.432385)"/><path d="m217.28314 17.723865 23.875 23.875h-10.09375l-13.78125-13.75z"/></g><g fill="#c1dce6"><g stroke-width="1.042172"><path d="m106.0358-40.490123c.14724-.490786.49079-1.276045.98157-2.699324 2.43594-4.388428 3.09641-10.191938 4.95695-7.754422.49079-.490787.19631-1.177888 1.57052-2.061303 1.3742-.883415 1.76682-1.472359 3.14102-1.76683 1.37421-.294472 3.43551-.687101 4.51524-.39263 1.07973.294472 2.74841.981573 2.84656 1.864989.0982.883414-.39263 2.061302-.49079 2.650244-.0982.588944.0982 1.668674.39264 2.159461.29446.490785 1.07972 1.374201 1.27603 2.159459s.78527 1.76683.29448 2.159459-2.0613 1.570516-2.0613 1.570516.0982 1.177887-.29448 1.766831c-.39263.588943-1.07972 1.374201-2.15945 1.668673-1.07973.294471-1.66868.588943-2.0613.785258-.39263.196314-.68711.392629-.88342.785258-.19632.392628-.29448.6871-.49079 1.472358-.19632.785259-.39263 2.061302-.39263 2.061302v.785258"/><path d="m90.085248 25.422463s.49079 4.711554-.09817 5.594972c-.588942.883407-.294476 3.435498-1.47236 4.220754-1.177883.785256-2.355777 2.061301-3.435509 2.748405-1.079721.687104-1.864987 1.177883-2.846556 1.963149-.98157.785256-2.355778 2.061302-2.552092 2.552081-.196314.49079-.588941.98158-.294465 1.668674.294465.687103-.324407.853226 1.668673 2.257615 1.996155 1.406556 2.287244 1.926142 4.907858 2.650253 3.323559.91833 4.122602-1.177894 5.104182-1.570522.98157-.392628 3.239185-2.061301 4.220755-3.04287.981579-.98157 3.239195-2.355778 4.02445-3.141033.785256-.785256 1.374196-1.374198 1.472356-2.748405.0982-1.374198-.0982-1.963139.29447-3.828127.39264-1.864987.49079-5.104182.49079-5.104182"/><path d="m96.646856-1.5138777c-5.70192 3.6863802-11.432656 7.3360927-17.352296 10.6647535-1.489159 1.1930272-2.933515 1.8912652-4.393952 3.1317952-1.325236 1.39697-1.898733 2.416511-2.30247 4.190728-.225849 1.158804.777772 2.174947 1.325757 3.144363 1.454549 2.104156 4.643209 1.965373 5.928853 4.254417 1.3886 1.122102 3.24006.238915 4.480984-.676358 1.024465-.856219 2.713659-.819979 3.307416-2.181578 4.528872-6.815298 9.057744-13.6305936 13.586612-20.44589065"/><path d="m107.45909 31.115587c.27801 2.735835 1.45437 5.255055 2.69534 7.668682.92308 1.573331.13225 3.229835-.88996 4.489243-1.29767 2.162884-1.79368 4.726648-1.55949 7.225452.0541 1.88535.18808 3.767314.34308 5.646723 2.99564.471508 6.02536.891449 8.90687 1.853771 1.75514.01698 2.93541-1.939588 2.77867-3.552227-.043-1.888045.53434-3.730527 1.48003-5.349664 1.4387-2.893815 2.94953-5.911385 2.95191-9.22097.16852-1.792311-.29703-3.602717-1.29469-5.098299-1.39652-2.623355-2.92245-5.216988-3.76554-8.086494-.74422-1.00202-1.51244-2.979188-3.09265-2.322177-1.66812.507492-3.50454.415352-5.10191 1.130368-.69247.399504-1.38495.799009-2.07743 1.198513"/><path d="m98.555573.56835194c-1.927736 2.70523686-4.664594 5.38999856-6.42649 8.22799156-2.619071 3.7179775-5.328197 8.2077665-8.165155 11.6736405-.976984 2.112415 1.03646 4.11257 2.62818 5.236049 1.650769 1.330567 2.892214 3.379509 5.11969 3.806963 2.372545.81252 4.826589 1.440144 7.082057 2.54416 2.362415.590563 4.793035 1.133412 7.243675.922136 2.30216-1.273336 3.92557-3.400873 5.76224-5.213145 2.0163-1.361038 4.5924-1.286818 6.91822-1.174179 1.90726.974325 4.72545.592768 3.87278-2.122708-.0622-3.718845-.67801-7.435968-.22757-11.153122.2161-1.949255.38841-3.9550093-.31194-5.8300452-.27804-1.0565761-.55609-2.1131521-.83413-3.169728"/><path d="m140.23663-7.4027113s1.07973-.4907858 2.15946-.8834146c1.07972-.3926289 3.63182-2.6502461 4.22076-2.6502461s2.65025.392629 2.65025.392629.58894 3.3373467-1.47236 4.7115482c-2.0613 1.3742014-2.94472 2.3557741-4.61339 2.7484029-1.66867.3926289-5.00602 1.4723585-5.49681 1.6686734-.49078.1963139-3.63181 1.17788654-3.63181 1.17788654l-3.72998-1.76683034"/><path d="m123.85134-16.883305c.39263.196314 2.15947 1.963144 4.02445 3.337345 1.86499 1.374202 3.82813 1.570517 4.6134 2.061303.78525.490787 4.22075 1.6686731 5.59496 2.1594589 1.3742.4907868 2.55208.1963149 2.65024.9815726.0982.7852577-.19631 1.1778876-1.07973 1.8649883-.88342.6871008-1.17788.6871008-2.15946 1.8649873-.98157 1.1778865-2.55208 2.748403-2.55208 2.748403l-1.27605 2.15945914v.0981622l-12.46597-3.82813254-5.59496-4.2207614 1.47236-3.7299755"/><path d="m97.792089-7.4829365c-1.76396-1.7014196-3.605571-3.8906915-3.339661-6.5107645-.376109-4.533485.01897-9.141188 1.035877-13.567402.881084-2.602925 2.328816-4.972865 3.179666-7.589261.834165-2.131858 1.900189-4.79631 4.444219-5.247738 2.58476-.398445 4.96172 1.011222 7.34526 1.770614 3.05877 1.200893 5.73898 3.397525 7.26668 6.332031 1.55512 2.06054 3.96231 3.507171 4.80722 6.063807 2.05285 4.295557 1.55144 9.316438.30215 13.76469-.87532 2.449208-2.53406 4.6086098-2.90906 7.2317975-.72007 2.2490765-3.24435 2.7780425-5.25635 3.2455417-.32133.095187-.63916.2037311-.94691.3369279"/><path d="m121.35599 4.8716267c-6.25529-1.2454784-12.48054-2.6617596-18.75552-3.7956548-1.51043-.049624-3.160927.0113055-4.442162-.92971445-1.137197-.54112071-2.597447-1.31827155-2.385438-2.82049025.389408-1.2135393-.456273-2.4207708-.05388-3.5431632.710136-.831456 1.899306-.8878314 2.870568-1.2237862 2.146222-.4246416 4.303682.1956594 6.437632.410294 1.59186.2475593 3.18715.5841119 4.80716.5196591"/><path d="m131.06037 6.7458841c1.61953 1.1552286 3.49218 1.9482776 5.45344 2.2870241 1.73946.421498 3.59811.7199177 5.34066.1475079.92899-.2572142 1.86016-.9216321 2.00394-1.9386073.2866-.9512789.9611-1.7730074 1.0055-2.7975678.20953-1.0187035.6553-2.0141076.52619-3.0769991-.0748-.93689477.0868-1.92356467-.28669-2.8044271-.18149-.6359228-.2866-1.492693-1.02595-1.7164164-1.14879-.054726-2.32709-.1594733-3.455.1116932-1.06854.4691294-1.20432 2.05561264-2.44501 2.27119005-1.59824.0658361-2.84222 1.21656226-4.24004 1.85249945-.36569.1951139-.7343.3850689-1.11017.5599258"/><path d="m135.51514-.26453989c-2.51789 2.12231519-4.07546 5.20871679-4.61939 8.42563699-1.09328 3.2636559-3.14782 6.0647649-4.89718 8.9915079-2.77615.668285-4.56126-2.120255-6.52991-3.541074-2.2433-2.185711-4.0442-4.8312796-6.60534-6.6779862-2.38543-2.4632445-4.6248-5.0842372-7.26354-7.28798326-2.10595-2.94067314-1.63813-6.91348694-3.66234-9.89344854-1.48843-3.947452-.31069-8.21404-.72774-12.301664-.22655-2.098085-.23815-4.571786 1.57623-6.0096 2.44288-2.056706 5.15376.73882 7.08695 2.172967 2.29781 1.536099 2.54766 4.29223 2.92015 6.765266.8459 3.891736 2.92179 7.384742 5.24309 10.5670104 1.77965 2.366869 4.95713 2.1015062 7.50241 2.9534009 2.06406.434118 3.64451 1.8453557 5.26398 3.0832989 1.48377 1.0570672 3.24841 1.7005043 4.71263 2.75266791z"/><path d="m118.89439-38.428821s-1.27605-.490791-2.25762-1.276045c-.98157-.785257-2.15946-1.76683-2.94471-2.650245-.78526-.883415-1.96314-2.748403-1.96314-2.748403" stroke-linecap="round"/></g><path d="m108.7267-50.339356c-.65757.832151-1.21853 1.781152-1.38958 2.84226-.35336 1.459165-2.0408 4.689195-.20413 3.663215 1.2202-.772333 2.46167-1.510365 3.6823-2.281774.56384-.354082 1.09063-.779887 1.45743-1.342925.54139-.787641.96319-1.650484 1.51928-2.429073.16206-.245966.32608-.490634.49164-.734258"/><g stroke-width="1.042172"><path d="m109.79975-50.090824c-1.27823-.283507-2.14375-1.903808-1.95351-3.382681-.51763-3.967593 2.3292-5.964151 1.40664-6.586243-.98937-.35261-2.08368-.874351-2.45616-2.123695-.42251-1.337826-.64083-2.962799-.068-4.283577.68195-1.006306 1.89209-1.12143 2.90884-1.246996 4.28398-.518112 8.64875 1.469478 11.72503 4.957912 1.0917 1.170074 2.3762 2.099505 3.3548 3.40605 1.2321 1.796577 1.83076 4.570842.65053 6.596774-.70419 1.018899-2.12739 1.056835-2.9475.212486-2.75163-1.539466-6.1525-.584359-8.36921 1.741286-1.1405 1.050245-2.97686 1.963457-4.25142.708684z"/><path d="m62.797533 59.581186c-3.47606.944307-5.820842 5.255087-4.151908 8.587891 2.655923 2.819743 3.97749 6.641062 4.180683 10.463341-.160714 1.769294.58842 3.925176 2.699798 3.946354 2.33558.375974 4.299667-2.390904 2.931785-4.401128-1.227365-1.28297-2.541231-2.975838-1.93302-4.871848.448957-2.98047 2.959205-5.022224 3.94337-7.779154 1.753673-3.259195 4.937841-5.378535 7.797425-7.585481 1.914376-1.450417 4.03704-2.65733 5.851044-4.217038.704529-.845897 1.763334-2.161497 2.100393-3.324413.246495-1.330525-.147644-1.346102-1.235838-1.420403-1.927018-.404944-3.684849-2.508054-5.318682-4.00725-2.089201-.743655-3.705338.375973-5.191684 2.450552-1.818496 1.759272-1.586831 4.689718-3.435821 6.446984-1.581194 1.757519-3.609354 3.032657-5.391822 4.557834-.90398.489498-1.91844.717435-2.845723 1.153759z"/></g></g><g stroke-width="1.042172"><path d="m69.324999 67.139297c-1.383379-1.162738-1.974103-3.024863-1.937053-4.788279-.130928-1.413476-.368054-3.394405.216657-4.720902.395983-.975049 1.432381-1.421729 2.193188-.577313 1.348111.774796 2.720589 1.822916 4.36326 1.699044.800826-.0019 1.607894-.04148 2.401842.08842 1.076042-.392339.494875-1.703935.544388-2.540978-.0519-2.297241-.690511-4.581489-1.801018-6.589304-.392388-.62088-.870568-1.180439-1.318827-1.760423" fill="none"/><path d="m81.790958 55.458583c-2.571486-.03236-15.042885-3.66863-10.202695 2.343308.481535.987767.323198 2.120394.419672 3.181328-.06347 1.018947.07775 1.888023-.443736 2.5088-.689803.821166-1.790889.667991-3.36733.932237-.277989-.0152-.55602-.03445-.834582-.03336" fill="none"/><path d="m105.49594 80.881312c-.80572 1.46281-1.2999 3.702693.23353 4.878366 1.99869 1.450982 4.58405.680716 6.86291.96903 3.55963.257201 7.01897 1.249583 10.36733 2.430523 1.80658.09702 2.56859-2.146323 2.57576-3.631027-.18543-1.893929-2.12735-2.751966-3.43663-3.815309-2.36301-1.623391-4.86726-3.091806-7.03349-4.963879-.92684-1.411639-.78778-3.220416-.99077-4.832135-.12434-1.694908 1.32552-2.756041 2.08175-4.094077 1.87598-2.809026 2.61207-6.540372 1.34711-9.737912-1.0517-.83844-2.62827-.510418-3.87642-.979981-1.80232-.274119-3.62306-.669722-5.43794-.705521-1.23123.553309-1.3355 2.117718-1.72226 3.246454-.14655 1.375309-.71628 2.668974-.76588 4.042844.15246 1.620249.86422 3.145383.8207 4.796981.16274 3.115646-.0487 6.239249-.16688 9.350493-.16509 1.046699-.62214 2.016899-.85882 3.04515z" fill="#c1dce6"/><g fill="none"><path d="m106.67383 77.936593s1.66867.294476 1.96314-.294476c.29448-.588942 3.23919-2.944709 3.53366-3.435499.29448-.49079 1.57052-1.079731 1.57052-1.963149 0-.883407-.78526-1.374197-2.25762-2.453929-1.47235-1.079732-3.53366-2.552091-4.22076-3.239185-.6871-.687104-1.57052-1.374207-1.57052-2.159463s3.04288-2.453929 3.04288-2.453929.29447.09817 1.57051-.196314c1.27605-.294476 5.88944-1.374208 6.47838-1.963149.58894-.588942.98157-1.079722.98157-1.079722"/><path d="m106.87013 58.599614c1.18847 1.843143 3.41857 3.898001 5.41244 4.801508 1.38139.588986 4.48284 2.852236 3.79648 3.934919-.85111 1.057392-3.46634 1.606422-4.65271 2.08422-1.6759.457042-3.16659 1.954161-4.47899 3.169933-.81281.502273-.81694 1.697875.16335 1.972912 1.13533.792247 2.42377 1.398168 3.81218 1.550866 1.24461.22771 2.49721.443937 3.70168.841051"/><path d="m108.93145 3.337087c-1.1947 7.702132-6.4918 12.021181-10.404672 17.471994"/><path d="m119.97413-50.305848c.82053-.166154 1.7591-.450332 1.57052.392629" stroke-linecap="round" stroke-linejoin="round"/></g></g><path d="m212.13927 383.63841s197.95324-79.58137 197.95324-281.83004c0-202.24865 0-183.18953 0-183.18953h-395.906452v183.18953c0 202.24867 197.953202 281.83004 197.953202 281.83004z" fill="none" stroke-width="4.089657"/></g></g></svg>