<svg enable-background="new 0 0 184.401 250.5" height="250.5" viewBox="0 0 184.401 250.5" width="184.401" xmlns="http://www.w3.org/2000/svg"><g clip-rule="evenodd" fill-rule="evenodd"><path d="m.25.25h91.951 91.951v175.405c0 48.178-61.301 48.154-91.951 74.595-30.651-26.44-91.951-26.417-91.951-74.594 0-56.895 0-118.512 0-175.406z" fill="#eb7a2e"/><path d="m92.201 10.763c18.948 0 35.949 4.185 47.553 10.813l-8.592 28.728c-10.672-4.367-24.22-6.98-38.961-6.98-14.743 0-28.289 2.613-38.961 6.98l-8.592-28.728c11.603-6.628 28.604-10.813 47.553-10.813z" fill="#007a6d"/><path d="m92.201 10.763c18.948 0 35.949 4.185 47.553 10.813l-1.787 5.973-1.347-1.573-2.554-.093c.587-.342 1.118-.761 1.428-1.327.47-.861.643-1.982-.568-2.497s-1.898.389-2.191 1.324c-.188.604-.129 1.261.025 1.906l-1.524-1.854-2.056-.062c.42-.371.774-.795.962-1.298.344-.918.355-2.053-.916-2.391-1.272-.338-1.824.654-1.982 1.621-.078.479-.006.969.143 1.45l-1.599-1.188-1.974-.101c.395-.401.72-.85.872-1.367.276-.939.208-2.073-1.084-2.319-1.292-.247-1.772.781-1.861 1.758-.041.459.053.918.218 1.365l-1.632-1.004-2.085.112c.365-.372.664-.788.814-1.266.294-.936.247-2.069-1.042-2.34-1.287-.271-1.787.749-1.894 1.724-.051.465.038.932.2 1.389l-1.656-1.013-1.991.423c.347-.391.626-.821.754-1.306.25-.947.148-2.078-1.15-2.288-1.299-.209-1.75.833-1.81 1.812-.029.479.088.953.279 1.413l-1.728-.94-2.075.54c.391-.412.711-.871.854-1.396.257-.946.165-2.077-1.134-2.296-1.297-.22-1.756.819-1.823 1.797-.04.581.136 1.157.398 1.708l-1.931-.944-1.884.543c.354-.434.634-.908.738-1.435.189-.961.019-2.084-1.291-2.211-1.31-.128-1.694.94-1.692 1.921 0 .574.211 1.129.505 1.653l-1.892-.958-1.882.819c.313-.469.55-.972.603-1.509.097-.976-.183-2.075-1.499-2.075-1.315 0-1.595 1.1-1.499 2.075.052.522.276 1.012.577 1.469l-1.892-.905-1.892.905c.301-.457.525-.946.577-1.469.096-.976-.184-2.075-1.5-2.075-1.315 0-1.595 1.1-1.499 2.075.053.537.289 1.04.603 1.509l-1.881-.819-1.89.959c.294-.524.505-1.079.506-1.653.001-.98-.384-2.049-1.693-1.921-1.31.127-1.481 1.249-1.292 2.211.104.526.384 1.001.738 1.435l-1.884-.543-1.931.944c.263-.551.439-1.127.399-1.708-.068-.978-.527-2.017-1.824-1.797-1.297.219-1.39 1.35-1.133 2.296.143.525.463.984.854 1.396l-2.074-.54-1.729.94c.192-.459.309-.935.28-1.413-.061-.979-.511-2.021-1.81-1.812-1.299.21-1.4 1.341-1.15 2.288.128.485.407.915.754 1.306l-1.991-.423-1.657 1.013c.162-.457.25-.924.2-1.389-.106-.975-.606-1.994-1.894-1.724-1.288.271-1.335 1.404-1.041 2.34.15.478.449.894.813 1.266l-2.083-.112-1.632 1.004c.165-.447.259-.906.217-1.365-.088-.977-.569-2.005-1.862-1.758-1.292.246-1.36 1.38-1.083 2.319.152.518.477.966.872 1.367l-1.974.101-1.599 1.188c.148-.481.22-.971.142-1.45-.157-.967-.71-1.959-1.981-1.621s-1.259 1.473-.916 2.391c.188.503.542.927.962 1.298l-2.056.062-1.524 1.854c.154-.646.214-1.303.025-1.906-.293-.936-.98-1.839-2.191-1.324s-1.038 1.636-.568 2.497c.31.566.841.985 1.428 1.327l-2.555.093-1.347 1.573-1.787-5.973c11.605-6.629 28.606-10.814 47.555-10.814zm40.333 34.952-1.372 4.588c-10.672-4.367-24.22-6.98-38.961-6.98-14.743 0-28.289 2.613-38.961 6.98l-1.373-4.588 2.267.244.953-1.065c.197.901.758 1.746 1.946 1.431 1.271-.338 1.259-1.473.916-2.392-.023-.061-.048-.119-.075-.178l1.676.123 1.035-.979c.098.965.583 1.964 1.858 1.721 1.293-.247 1.361-1.381 1.084-2.32-.023-.077-.05-.152-.08-.226l1.182.244 1.044-.847c.002.047.006.095.011.143.106.974.606 1.993 1.894 1.723 1.288-.271 1.336-1.404 1.041-2.34-.017-.052-.035-.104-.056-.155l1.176.253.895-.74c-.006.104-.007.209 0 .313.06.979.511 2.021 1.81 1.812s1.4-1.34 1.15-2.288c-.024-.093-.055-.184-.09-.273l1.285.441 1.051-.696c-.001.072 0 .146.005.219.067.978.526 2.017 1.823 1.797 1.276-.215 1.387-1.313 1.146-2.25l1.331.503 1.394-.983c-.009.086-.014.172-.015.258-.001.981.383 2.049 1.693 1.922 1.31-.128 1.482-1.249 1.292-2.212l-.016-.071 1.282.628 1.563-1.021c-.049.161-.083.325-.1.492-.096.977.183 2.076 1.499 2.076s1.595-1.1 1.5-2.076c-.024-.249-.089-.49-.182-.725l2.146 1.008 2.146-1.008c-.093.234-.157.476-.182.725-.096.977.184 2.076 1.499 2.076 1.316 0 1.596-1.1 1.499-2.076-.017-.167-.051-.331-.1-.492l1.563 1.021 1.282-.628-.016.071c-.19.963-.019 2.084 1.291 2.212 1.31.127 1.694-.94 1.693-1.922-.001-.086-.006-.172-.015-.258l1.394.983 1.33-.503c-.241.937-.131 2.035 1.146 2.25 1.299.22 1.757-.819 1.824-1.797.006-.072.007-.146.006-.219l1.051.696 1.284-.441c-.035.09-.065.181-.09.273-.25.948-.148 2.079 1.15 2.288s1.75-.833 1.81-1.812c.007-.104.006-.209-.001-.313l.896.74 1.175-.253c-.021.051-.039.104-.056.155-.294.936-.246 2.069 1.041 2.34s1.788-.749 1.895-1.723c.005-.048.01-.096.012-.143l1.044.847 1.182-.244c-.029.073-.056.148-.079.226-.276.939-.208 2.073 1.084 2.32 1.275.243 1.761-.756 1.857-1.721l1.035.979 1.677-.123c-.027.059-.053.117-.075.178-.344.919-.355 2.054.916 2.392 1.188.315 1.749-.529 1.946-1.431l.953 1.065z" fill="#fedc18"/><path d="m92.201 37.216c5.224 0 9.487-4.261 9.487-9.486s-4.263-9.486-9.487-9.486c-5.225 0-9.486 4.262-9.486 9.486-.001 5.226 4.261 9.486 9.486 9.486z" fill="#b87956"/><path d="m92.201 26.399c.735 0 1.331.596 1.331 1.331s-.596 1.332-1.331 1.332-1.332-.597-1.332-1.332.596-1.331 1.332-1.331zm0-6.533c-1.531 0-2.25 1.341-2.114 2.529.138 1.207 1.151 2.271 2.114 3.193.962-.922 1.976-1.986 2.114-3.193.135-1.188-.584-2.529-2.114-2.529zm6.811 11.797c.766-1.326-.036-2.618-1.133-3.096-1.115-.484-2.544-.138-3.823.234.317 1.295.731 2.705 1.708 3.428.961.712 2.482.76 3.248-.566zm-13.622-7.865c.765-1.326 2.286-1.278 3.247-.566.977.724 1.392 2.133 1.709 3.428-1.28.372-2.708.719-3.823.234-1.097-.477-1.899-1.769-1.133-3.096zm13.622 0c.766 1.326-.036 2.618-1.133 3.096-1.115.484-2.544.138-3.823-.234.317-1.295.731-2.704 1.708-3.428.961-.712 2.482-.76 3.248.566zm-13.622 7.865c-.766-1.326.036-2.618 1.133-3.096 1.114-.484 2.542-.138 3.823.234-.317 1.295-.732 2.705-1.709 3.428-.961.712-2.482.76-3.247-.566zm6.811 3.932c-1.531 0-2.25-1.341-2.114-2.529.138-1.207 1.151-2.271 2.114-3.193.962.923 1.976 1.986 2.114 3.193.135 1.188-.584 2.529-2.114 2.529z" fill="#fedc18"/><path d="m133.122 27.918c1.608-.398 3.222-.332 4.701.111l-5.113 17.098c-2.92-.877-5.316-3.229-6.104-6.404-1.183-4.783 1.733-9.619 6.516-10.805z" fill="#b87956"/><path d="m134.966 35.363c.226-.056.452-.046.66.017l-.718 2.398c-.41-.122-.746-.453-.856-.898-.166-.672.243-1.35.914-1.517zm-1.477-5.963c-1.398.346-1.751 1.732-1.358 2.786.398 1.07 1.564 1.813 2.651 2.437.671-1.06 1.355-2.26 1.208-3.393-.144-1.115-1.103-2.177-2.501-1.83zm-5.329 5.13c.399-1.385 1.799-1.685 2.837-1.252 1.055.438 1.752 1.633 2.334 2.742-1.084.63-2.31 1.269-3.437 1.078-1.108-.186-2.133-1.185-1.734-2.568zm1.779 7.178c-.999-1.038-.56-2.399.334-3.082.907-.694 2.29-.701 3.542-.65.003 1.253-.057 2.635-.784 3.515-.717.867-2.093 1.255-3.092.217z" fill="#fedc18"/><path d="m51.279 27.918c-1.608-.398-3.222-.332-4.702.111l5.113 17.098c2.921-.877 5.316-3.229 6.103-6.404 1.186-4.783-1.731-9.619-6.514-10.805z" fill="#b87956"/><path d="m49.436 35.363c-.226-.056-.452-.046-.66.017l.717 2.398c.41-.122.746-.453.857-.898.166-.672-.244-1.35-.914-1.517zm1.477-5.963c1.397.346 1.75 1.732 1.358 2.786-.399 1.07-1.564 1.813-2.651 2.437-.671-1.06-1.355-2.26-1.208-3.393.144-1.115 1.103-2.177 2.501-1.83zm5.328 5.13c-.399-1.385-1.798-1.685-2.836-1.252-1.056.438-1.752 1.633-2.335 2.742 1.084.63 2.311 1.269 3.437 1.078 1.109-.186 2.133-1.185 1.734-2.568zm-1.778 7.178c.999-1.038.559-2.399-.334-3.082-.908-.694-2.291-.701-3.543-.65-.003 1.253.057 2.635.785 3.515.716.867 2.093 1.255 3.092.217z" fill="#fedc18"/><path d="m40.368 51.289h103.665v68.444c0 28.509-23.324 47.669-51.833 47.669s-51.833-19.161-51.833-47.669c.001-21.427.001-47.018.001-68.444z" fill="#161813"/><path d="m42.38 53.301v66.432c0 27.954 23.082 45.656 49.821 45.656s49.82-17.702 49.82-45.656c0-22.145 0-44.288 0-66.432-33.213 0-66.427 0-99.641 0z" fill="#019541"/><path d="m92.201 126.621c13.591 0 24.676-11.086 24.676-24.677 0-13.592-11.085-24.677-24.676-24.677s-24.677 11.085-24.677 24.677c0 13.591 11.085 24.677 24.677 24.677z" fill="#fedc18"/><path d="m73.105 115.089h38.558v-5.288h-2.589v-10.208h1.396v-1.653h-1.396v-.826h1.396v-1.194h3.469v-1.652l-21.738-10.833-21.74 10.833v1.652h3.213v2.001h1.396v.827h-1.028v1.726h1.028v10.484h-1.965z" fill="#fff"/><path d="m84.728 98.435v13.147h3.88v-13.147h-1.038v-1.267h3.599v1.267h-1.038v13.147h3.88v-13.147h-1.037v-1.267h3.598v1.267h-1.037v13.147h3.882v-13.147h-1.038v-1.267h3.599v1.267h-1.037v13.147h5.287v-11.953h-1.192v-1.708h1.192v-.826h-1.395v-1.175h-24.879v2.001h-1.396v.826h1.047v1.727h-1.047v11.108h4.646v-13.147h-1.038v-1.267h3.599v1.267zm-10.405-3.689h3.136l14.935-6.618 14.934 6.618h3.137l-18.07-8.374zm-1.163.513v-.539l19.234-8.914 19.233 8.914v.539c-1.469 0-2.937 0-4.407 0l-14.826-6.57-14.827 6.57c-1.469 0-2.938 0-4.407 0zm6.794-.257 12.439-5.113 12.439 5.113z" fill="#b87956"/><path d="m82.85 138.233c3.629 2.057 8.809.403 10.117-1.285-2.441-1.729-7.216-2.43-10.117 1.285zm-3.271-72.429c-1.64.605-6.05 2.396-5.044 7.944 2.031-.869 5.142-2.746 5.044-7.944zm-7.932 6.04c-2.301 1.083-5.664 3.442-3.906 8.606 1.719-1.089 5.253-4.05 3.906-8.606zm-6.243 6.463c1.971 4.116-.241 7.058-1.832 8.404-2.766-3.787.193-6.917 1.832-8.404zm26.205-11.437c-2.163 3.724-7.763 3.454-9.834 2.755 2.747-4.593 8.484-3.466 9.834-2.755zm-3.085 6.225c-3.038 2.796-8.083 1.779-10.256.68 2.882-4.062 8.841-1.651 10.256-.68zm-6.948 3.381c-2.771 3.172-7.777 2.285-9.44 1.999 2.863-4.763 7.847-2.755 9.44-1.999zm-6.389 3.653c-1.229 3.613-6.584 4.672-8.339 4.625.935-5.534 6.635-4.738 8.339-4.625zm-4.701 5.362c-1.391.07-6.578.192-6.943 5.579 1.681-.265 6.962-1.837 6.943-5.579zm-9.357-.101c-1.318 1.56-3.308 4.842.276 8.813.875-1.605 3.018-6.404-.276-8.813zm6.768 5.26c.717 4.716-3.792 7.647-5.382 8.205-.92-6.598 4.009-7.767 5.382-8.205zm-10.22 1.607c4.01 2.189 3.281 6.583 2.81 8.464-4.594-2.777-3.505-6.868-2.81-8.464zm8.274 5.61c-1.354.621-5.108 1.826-3.987 7.599 1.148-.779 4.703-2.884 3.987-7.599zm-9.963 2.983c5.534.39 5.667 6.162 5.71 7.399-4.979-.519-5.578-4.793-5.71-7.399zm9.357 3.7c3.104 3.319.338 8.124-.608 9.104-3.216-4.395-1.003-7.895.608-9.104zm-8.182 4.306c.131 2.604 1.117 7.633 6.224 7.417-.043-1.237-.69-7.027-6.224-7.417zm2.681 8.519c4.946-.95 7.797 4.345 8.188 5.747-6.08.454-7.414-3.123-8.188-5.747zm7.925-5.921c-1.886 1.926-3.052 6.105 1.044 9.361.652-1.017 2.06-6.042-1.044-9.361zm2.974 7.932c4.628 1.354 3.9 6.361 3.56 7.727-4.023-2.155-4.014-4.554-3.56-7.727zm-6.97 5.481c1.637 2.366 4.201 4.126 8.611 2.956-.795-1.329-4.454-5.487-8.611-2.956zm4.278 5.471c4.229-3.007 8.917-.816 10.153.716-2.132 2.364-8.166 1.762-10.153-.716zm6.574 4.26c3.458-3.264 8.108-1.881 10.08-.532-1.215 2.345-6.35 3.303-10.08.532zm1.92-9.814c.06 4.404 2.034 6.895 6.515 6.902-.356-1.789-.712-5.822-6.515-6.902zm7.667 4.766c5.767-1.142 8.454 3.389 8.939 5.213-3.693.397-8.126-1.322-8.939-5.213z" fill="#fff"/><path d="m98.563 64.222c5.872.983 11.291 3.306 15.933 6.641l-.919 1.851c-.46-.337-.929-.664-1.406-.979l-.658 1.229c.488.325.968.663 1.438 1.013l-.867 1.746c-.483-.367-.977-.721-1.48-1.061l-.659 1.23c.515.352 1.019.717 1.511 1.098l-1.046 2.105c-3.97-3.166-8.781-5.322-14.047-6.072l.561-2.244c.869.131 1.727.297 2.569.496l.364-1.341c-.853-.203-1.718-.373-2.595-.509l.468-1.867c.888.142 1.765.317 2.629.524l.364-1.34c-.873-.211-1.759-.39-2.655-.536zm19.091 9.174-1.381 1.498c.524.467 1.034.949 1.531 1.445l.209.212-.995.967-.195-.197c-.483-.482-.979-.951-1.49-1.405l-1.3 1.409c.491.437.971.887 1.435 1.352l.176.178-.995.967-.162-.163c-.451-.451-.916-.889-1.394-1.313l-1.561 1.692c3.52 3.108 6.284 7.051 7.985 11.519l2.115-.909c-.253-.658-.527-1.306-.822-1.941l1.253-.597c.303.651.585 1.315.846 1.989l1.763-.757c-.271-.697-.563-1.384-.877-2.058l1.254-.597c.321.69.621 1.393.899 2.105l1.874-.805c-2.211-5.639-5.722-10.626-10.168-14.591zm11.575 18.92c.798 3.075 1.224 6.302 1.224 9.628 0 2.711-.283 5.356-.819 7.908l-2.023-.302c.167-.783.31-1.577.426-2.378l-1.385-.129c-.113.776-.253 1.544-.417 2.302l-1.9-.282c.159-.724.295-1.456.406-2.197l-1.384-.129c-.109.716-.242 1.423-.398 2.121l-2.283-.34c.486-2.113.744-4.313.744-6.574 0-2.877-.417-5.656-1.192-8.282l2.297-.344c.168.594.32 1.193.454 1.8l1.39-.144c-.136-.628-.289-1.249-.46-1.863l1.91-.285c.174.643.33 1.293.468 1.95l1.388-.144c-.14-.679-.298-1.35-.474-2.014zm-.956 22.375c-2.066 5.848-5.513 11.042-9.949 15.192l-1.47-1.419c.321-.3.639-.605.95-.916.35-.35.693-.707 1.028-1.071l-1.012-.951c-.325.354-.658.701-.998 1.041-.316.316-.641.627-.969.932l-1.381-1.334c.338-.311.669-.629.994-.953.326-.326.646-.659.958-.999l-1.011-.952c-.303.33-.612.653-.929.97-.33.33-.668.653-1.013.969l-1.659-1.603c3.816-3.459 6.716-7.913 8.285-12.952l2.086 1.033c-.216.664-.452 1.318-.71 1.963l1.226.671c.269-.66.516-1.331.741-2.012l1.734.858c-.239.703-.5 1.397-.782 2.079l1.225.67c.292-.698.563-1.407.813-2.128zm-13.946 18.456-1.086-1.73c-.645.462-1.306.902-1.981 1.321l-.667-1.22c.65-.405 1.288-.832 1.91-1.28l-1.021-1.627c-.589.427-1.192.834-1.811 1.222l-.667-1.221c.593-.374 1.172-.768 1.737-1.18l-1.226-1.953c-4.065 2.996-8.935 4.963-14.225 5.521l.458 2.264c.83-.093 1.65-.218 2.461-.374l.285 1.358c-.813.157-1.638.285-2.471.381l.381 1.886c.837-.101 1.666-.231 2.483-.391l.286 1.358c-.821.16-1.652.293-2.493.397l.405 2.006c6.372-.812 12.251-3.192 17.242-6.738z" fill="#fff"/><path d="m101.209 72.037c2.383.717 4.67 1.718 6.816 2.98l2.084-4.581c-2.353-1.339-4.846-2.41-7.436-3.191zm14.588 9.451c1.372 1.582 2.585 3.298 3.614 5.121l4.601-2.03c-1.279-2.338-2.814-4.53-4.573-6.533zm7.245 15.521c.259 1.63.389 3.279.389 4.935 0 .874-.036 1.747-.108 2.617l5.014.137c.068-.916.103-1.835.103-2.754 0-1.733-.122-3.462-.367-5.174zm-2.745 18.581c-1.109 2.279-2.495 4.416-4.121 6.362l3.88 3.17c1.742-2.091 3.245-4.372 4.477-6.799zm-13.065 13.732c-2.319 1.276-4.79 2.251-7.356 2.9l1.417 4.81c2.726-.704 5.356-1.726 7.845-3.044z" fill="#b87956"/><path d="m54.007 207.413c.822-2.589 4.488-3.986 8.573-3.642-.484 2.538-.969 4.947-1.453 7.484-.994 2.801-5.983 1.771-8.2 1.04-9.749-3.212-19.498-6.663-29.248-10.146 2.88-2.995 6.805-5.512 11.183-7.82-2.202-4.641-4.274-9.318-4.465-14.55 6.404 2.23 13.221 4.621 19.644 6.858.261 6.453.522 12.896.768 19.142.128 3.26 4.843 4.279 7.215 4.792l.429.094c.494.106.983-.199 1.092-.684.109-.484-.203-.965-.697-1.071l-.429-.094c-1.191-.257-3.115-.674-4.412-1.403zm76.388 0c-.822-2.589-4.488-3.986-8.573-3.642.484 2.538.969 4.947 1.453 7.484.993 2.801 5.983 1.771 8.199 1.04 9.75-3.212 19.499-6.663 29.248-10.146-2.88-2.995-6.805-5.512-11.183-7.82 2.202-4.641 4.273-9.318 4.465-14.55-6.405 2.23-13.221 4.621-19.644 6.858-.262 6.453-.522 12.896-.769 19.142-.128 3.26-4.842 4.279-7.215 4.792l-.429.094c-.494.106-.983-.199-1.093-.684-.108-.484.203-.965.697-1.071l.429-.094c1.193-.257 3.118-.674 4.415-1.403zm-38.194-7.54c14.551 0 33.403.68 39.583 5.26.249-6.318.497-12.454.745-18.581l.232-5.771c-11.549-3.754-25.515-5.951-40.56-5.951-15.046 0-29.011 2.197-40.561 5.951l.232 5.771c.248 6.127.496 12.263.746 18.581 6.179-4.581 25.03-5.26 39.583-5.26z" fill="#fff"/><g fill="#019541"><path d="m56.063 186.63 1.281-3.731 1.433-.307-1.415 3.713 2.815 2.857-1.432.306zm.677 3.266-1.4-6.569-1.284.273 1.401 6.569zm7.431-1.443-.208-1.162-2.288.41-.293-1.637 2.288-.41-.206-1.144-2.288.41-.27-1.507 2.288-.409-.208-1.163-3.571.64 1.185 6.612zm-2.808-7.204-.187-1.041.93-.167.187 1.042zm-1.58.283-.187-1.042.93-.166.187 1.041zm4.735 4.75 1.184-.196.015.097c.045.279.155.491.328.636.173.146.382.198.624.159.263-.043.457-.154.583-.336.127-.18.169-.405.125-.673-.069-.427-.427-.684-1.071-.771-.083-.01-.149-.021-.198-.028-.542-.076-.961-.243-1.258-.498s-.482-.609-.555-1.062c-.101-.622-.009-1.148.275-1.582.283-.432.712-.694 1.286-.787.538-.087.993.012 1.366.296.373.282.627.723.761 1.322l-1.175.19-.009-.055c-.035-.213-.126-.373-.275-.484-.149-.109-.327-.146-.532-.113-.213.033-.37.129-.471.281-.102.154-.134.347-.097.576.016.098.042.182.081.252.036.069.088.131.154.182.146.117.434.199.862.249.189.019.336.038.439.054.48.082.852.248 1.116.502.263.253.431.604.504 1.053.11.684.01 1.264-.302 1.738-.312.477-.783.765-1.411.866-.593.097-1.102-.026-1.532-.368-.429-.342-.701-.843-.817-1.5zm6.165-1.558.346 2.708-1.302.166-.853-6.663 1.303-.167.345 2.7 2.146-.274-.345-2.7 1.302-.166.854 6.663-1.303.167-.347-2.709zm4.916 2.18-.627-6.688 1.307-.123.628 6.688zm5.826-.491-3.401.262-.515-6.698 1.3-.1.425 5.521 2.101-.161zm4.15-.24-3.405.203-.401-6.706 1.301-.077.33 5.527 2.104-.126zm.757-.004-.172-6.716 1.313-.034.172 6.716zm5.193-.105.057-6.718 1.313.012-.057 6.717zm10.003-1.786c.166-.165.294-.355.383-.57.09-.215.141-.455.152-.724.026-.608-.152-1.129-.534-1.563-.383-.435-.865-.663-1.45-.688-.567-.024-1.063.166-1.482.572-.419.404-.642.898-.666 1.483-.003.056 0 .112.007.169s.019.119.038.185c.148-.043.291-.072.433-.091.141-.018.281-.022.421-.017.488.021.949.132 1.391.334.437.205.874.507 1.307.91zm-3.261-.236c.063-.007.128-.012.194-.014.064-.002.131-.001.193.002.332.014.671.092 1.017.232.347.141.707.348 1.082.623-.142.049-.282.085-.419.107-.136.024-.269.033-.401.027-.346-.015-.663-.106-.949-.275-.288-.168-.527-.402-.717-.702zm3.359 1.919c-.263.157-.549.273-.855.347-.308.073-.629.103-.964.089-.379-.017-.743-.097-1.093-.241-.349-.144-.674-.345-.975-.604-.408-.356-.712-.777-.912-1.262-.202-.486-.29-1.012-.266-1.576.02-.466.13-.903.329-1.317.2-.412.479-.783.841-1.113.334-.306.705-.532 1.113-.679.409-.148.842-.212 1.3-.192.474.021.911.121 1.31.304.399.181.755.441 1.068.781.333.354.578.749.734 1.18s.224.899.202 1.403c-.019.44-.104.838-.256 1.195-.152.359-.374.678-.663.957.118.065.241.113.368.146.129.032.265.053.409.059l.136.006-.046 1.069c-.019-.001-.047 0-.085.001-.039 0-.068 0-.085 0-.268-.012-.536-.064-.804-.155-.267-.094-.536-.227-.806-.398zm5.78-1.836-.588-2.228-1.011 2.078zm-2.165 1.049 2.479.232.397 1.451 1.401.131-1.931-6.928-1.131-.106-3.222 6.444 1.354.127zm6.303-1.426.289.037c.527.067.941.023 1.239-.132.297-.155.471-.416.518-.783.045-.354-.036-.629-.244-.827-.208-.196-.555-.326-1.04-.389l-.486-.062zm-.438 3.42-1.303-.167.853-6.663 1.582.202c.503.064.876.129 1.116.196.242.066.444.151.609.253.354.225.612.509.771.851.157.343.208.729.153 1.156-.066.515-.264.934-.594 1.255-.329.323-.743.501-1.245.537l1.336 2.799-1.556-.199-1.327-3.313zm5.824-2.582 2.496-3.057 1.449.211-2.613 2.991 1.649 3.656-1.449-.21zm-.498 3.298.964-6.648-1.299-.188-.964 6.648zm5.078-5.99-.752 4.196c-.09.496-.127.857-.114 1.085.012.228.063.44.152.637.152.34.359.607.624.804.266.195.602.33 1.011.403s.771.064 1.088-.027c.315-.093.603-.271.863-.537.152-.153.276-.342.369-.566s.183-.569.266-1.034l.752-4.195-1.293-.232-.684 3.814c-.106.596-.244.998-.411 1.208-.167.208-.403.286-.71.23-.307-.055-.502-.209-.586-.463-.084-.255-.073-.681.033-1.275l.684-3.814zm8.836 1.751-.246 1.155-1.238-.264-1.156 5.413-1.284-.273 1.155-5.414-1.238-.265.247-1.154z"/><path d="m76.701 189.386 6.71-.4.109 1.821-3.987.238.089 1.478 3.41-.203.103 1.716-3.41.204.207 3.453-2.723.163zm8.571-.462 2.727-.07.218 8.481-2.727.07zm4.961-.108 7.275.062-.015 1.813-4.548-.039-.011 1.352 4.215.035-.016 1.73-4.215-.035-.014 1.671 4.683.039-.017 1.92-7.41-.063zm8.841 8.625.648-8.46 4.517.347c.838.064 1.474.183 1.904.355.432.172.77.457 1.013.853s.342.865.301 1.405c-.036.469-.171.866-.405 1.192-.232.326-.54.58-.922.765-.24.116-.567.204-.977.262.314.129.541.249.681.365.092.076.227.237.398.479.171.24.284.425.337.554l1.13 2.545-3.063-.235-1.25-2.69c-.158-.349-.305-.578-.44-.688-.186-.146-.403-.228-.65-.246l-.239-.019-.263 3.426zm3.105-4.814 1.146.088c.122.009.366-.012.728-.062.182-.02.336-.097.459-.232.126-.135.195-.293.209-.479.021-.273-.053-.491-.221-.651-.169-.161-.5-.26-.996-.298l-1.192-.091z"/></g></g></svg>