<svg enable-background="new -10 -40.798 220 220" height="220" viewBox="-10 -40.798 220 220" width="220" xmlns="http://www.w3.org/2000/svg"><g stroke-width=".09375" transform="matrix(.70646377 0 0 .70646415 10.3125 -30.789854)"><path d="m253.4 0h.4c0 .2.1.5.1.6-3.7 8.3-6.9 17.1-11 25.3-25.3 52.9-62.8 100.2-109.9 135.2-14 10.5-29.1 19.6-44.5 27.9l-.8.1c8.6-19.8 14-40.8 16.8-62.2 2.4-15.8 2.8-31.9 3.3-47.9 31.6-6.7 61.7-19.4 89.6-35.7 20.2-12.3 39.5-26.4 56-43.3z" fill="#85bc3c" stroke="#85bc3c"/><path d="m242.9 25.9c4.1-8.2 7.3-17 11-25.3.1 6.5-1.2 13-2 19.4-2.4 16.2-5.8 32.2-10.1 47.9-14.4 29.2-32.4 56.6-53.7 81.2-2.1 2.4-4.5 4.5-6 7.3-.3.1-.7.3-1 .4-30.2 12.5-60.9 24.2-92.6 32.2 15.4-8.3 30.5-17.4 44.5-27.9 47.1-35 84.6-82.3 109.9-135.2z" fill="#0089cf" stroke="#0089cf"/><path d="m188.1 149.1c21.3-24.6 39.3-52 53.7-81.2-7.1 25.6-16.5 50.5-28.9 74-10.2 4.9-20.4 10.1-30.8 14.5 1.5-2.8 3.9-4.9 6-7.3z" fill="#004281" stroke="#004281"/><path d="m182.1 156.4c10.4-4.4 20.6-9.6 30.8-14.5-25.1 48.6-64.1 91-113.3 115.7-24.1 12.5-50.3 20.6-76.9 25.4h-2.6l.8-.7c-1.6-.2-2.3-1.7-3.5-2.7-5.8-5.3-11.6-10.8-17.4-16.2v-.3c14.2-1.8 27.8-7.4 39.8-15.2.5-.1 1.6-.3 2.1-.4 53.3-17.4 101.6-49.2 139.2-90.7.3-.1.7-.3 1-.4z" fill="#d7182a" stroke="#d7182a"/><path d="m88.5 189c31.7-8 62.4-19.7 92.6-32.2-37.6 41.5-85.9 73.3-139.2 90.7-.5.1-1.6.3-2.1.4 21.4-14.2 37.4-35.5 47.9-58.8z" fill="#fdb813" stroke="#fdb813"/></g></svg>