<svg height="317.95001" viewBox="0 0 543.333 317.95" width="543.33301" xmlns="http://www.w3.org/2000/svg"><g fill="#0e1318"><path d="m167.638 152.121c.914.845 1.884 1.746 3.083 2.855.38 1.164-.519 2.313-.967 3.554.049.124.062.288.149.365 1.807 1.61 1.701 2.265-.396 3.356-1.697.881-3.231 2.282-5.02 2.734-2.406.608-3.736 2.827-6.194 3.369-1.419.313-2.876 1.549-3.788 2.765-.973 1.295-1.831 2.901-1.644 4.712.108 1.057.595 1.432 1.635 1.411.066-.002.134-.013.202-.019 1.106-.123 2.487-.71 3.259-.258 1.134.668 2.104.061 3.122.209 1.415.206 2.921-.296 4.391-.375.86-.045 1.731.187 2.598.21.739.021 1.493 0 2.218-.129 1.604-.284 3.209-.982 4.786-.905 2.526.129 4.854-.761 7.303-.898.406-.021.805-.135 1.204-.222.198-.042.451-.236.574-.169 1.638.898 3.747.453 5.213 1.842.34.32.754.779 1.143.79 1.417.042 2.15.97 3.004 1.877.418.444 1.155.587 1.748.868.495 1.438.994 2.897 1.449 4.223-.389 1.051-.746 2.07-1.143 3.074-.516 1.304-1.045 2.601-1.602 3.886-.438 1.007-.249 2.256-1.221 3.078-.132.111.083.626.129.952.14.923.448 1.86.38 2.768-.198 2.692.312 5.407-.004 8.044-.223 1.872-.134 3.726-.314 5.577-.017.199-.046.465-.174.576-.95.816-.92 2.074-1.436 3.066-1.555 2.995-1.81 6.415-3.252 9.454-.746 1.571-1.825 2.962-2.451 4.554-.497 1.26-1.765 1.68-2.407 2.77-.24.406-1.375.29-2.245.436-.285.378-.646.858-1.009 1.342-.216.013-.499.117-.609.023-1.003-.841-2.556-.902-3.184-2.306-.127-.28-.646-.446-1.016-.544-.79-.208-1.6-.339-2.528-.525-.389-1.978-1.852-3.132-3.479-4.143-.847-.525-1.68-.992-2.373-1.818-.446-.535-1.621-.463-2.747-.729-.129-.201-.406-.637-.86-1.347 1.315-.156 2.394-.286 3.665-.438-.013.013.166-.103.284-.262 1.035-1.351 2.086-2.343 4.064-2.513 1.417-.123 2.733-1.429 4.229-2.283.168-.981.153-2.198 1.368-2.846.221-.116.301-.579.365-.898.353-1.853.746-3.703 1-5.572.193-1.425.087-2.891.733-4.25.106-.227-.098-.62-.206-.921-.062-.176-.354-.374-.316-.465.971-2.295-.255-4.797.675-7.095.117-.284.044-.651.025-.979-.121-2.152-.291-4.301-.365-6.453-.055-1.509.106-3.03-.034-4.527-.038-.406-.809-1.049-1.257-1.062-1.697-.046-3.416.006-5.098.236-2.417.332-4.796.917-7.209 1.265-1.606.23-2.891 1.105-4.046 2.021-1.642 1.308-2.795 3.161-4.658 4.308-.561.343-.716 1.344-1.196 2.324.958.334 1.619.558 2.275.795.748.27 1.559.438 2.216.853.831.523 1.07 1.381.688 2.34-.248.633-.503 1.264-.746 1.864-1.584.805-3.148 1.597-4.836 2.454 1.049 1.611 1.648 3.256 3.702 3.691.763.16 1.381 1.009 2.173 1.627-1.389 2.407-2.545 4.764-4.673 6.517.041.263.068.528.117.789.314 1.664.593 3.248-.055 4.988-.667 1.79-.809 3.771-1.221 5.659-.223 1.033.068 2.271-1.113 2.963-.138.08-.198.36-.219.555-.257 2.329-.896 4.442-2.965 5.873-.365.252-.512.805-.822 1.161-.335.381-.748.694-1.138 1.047-.627-.396-1.139-.721-1.91-1.208 0-1.538.023-3.201-.009-4.865-.034-1.797-.238-3.562-.546-5.349-.24-1.396-.261-2.929-.287-4.392-.017-.962.07-1.854-.933-2.215-1.028-.37-1.861.089-2.4 1.048-.062.112-.193.184-.363.336-1.432-.264-2.757.067-4.24.555-1.973.647-4.27.524-6.4.374-.69-.05-1.432-1.14-1.909-1.905-.553-.883-.841-1.932-1.354-3.174.538-1.459 2.192-1.692 3.767-1.968.996-.177 2.073 0 2.655-1.169.113-.226.595-.363.916-.376 2.181-.093 3.847-1.535 5.816-2.183.894-.293 1.75-.715 2.655-.97 1.02-.284 1.2-.941 1.096-1.99-.975 0-1.908-.124-2.791.037-.788.144-1.604.011-2.352.842-1.051 1.168-2.604 1.099-5.3.385-.306-.913-.741-1.857-.933-2.85-.293-1.518-.083-2.916 1.202-4.058 1.583-1.403 1.436-2.776-.289-4.127-.266-.209-.533-.448-.716-.727-1.691-2.593-4.044-1.699-6.326-1.231-.941.192-1.591.9-2.398 1.29-1.842.888-3.696.285-5.434-.459-1.691-.724-2.386-.415-2.579 1.36-.042.391-.083.813-.255 1.156-1.104 2.208-.754 4.452-.208 6.702.308 1.26.533 2.501.403 3.823-.084.849.062 1.747.264 2.587.629 2.618 1.338 5.216 1.999 7.828.079.324.117.705.03 1.019-.527 1.907.104 3.734.354 5.999-.057.03-.348.22-.665.358-1.917.851-1.918.847-1.496 2.741-.595.737-1.251.59-1.693-.065-1.357-2.006-2.488-4.118-2.889-6.565-.1-.626-.389-1.353-.839-1.76-.709-.642-.744-1.298-.769-2.171-.051-1.59-.516-3.168-.519-4.754 0-1.116-.112-2.11-.769-3.165 1.226-1.882.108-3.835-.015-5.803-.032-.525-.367-1.18-.157-1.543.843-1.471.391-3.086.68-4.609.097-.511.067-1.201-.208-1.59-.378-.531-.302-.853-.161-1.428.136-.561-.217-1.241-.372-1.95.78-1.063 1.778-1.967 3.335-2.045.268-.013.522-.319.773-.505.27-.197.508-.556.792-.594 2.033-.27 3.471-1.742 5.236-2.547.386-.178.733-.601.935-.993.495-.964 1.156-1.66 2.248-1.724.378-1.784.597-2.036 2.152-2.171 1.493-.133 2.993-.207 4.49-.261.754-.026 1.321-.278 1.672-.964.412-.805 1.115-1.12 1.973-1.28.657-.122 1.332-.329 1.895-.671.686-.417 1.311-.402 2.09-.396 1.861.013 3.579-.648 4.956-1.997.578-.565.554-1.235.263-1.895-.301-.681-.894-.693-1.565-.62-.658.072-1.334.016-1.997-.05-1.64-.163-3.28-.104-4.919-.142-1.844-.039-3.79-.376-5.073-1.689-.813-.831-1.574-1.387-2.764-1.597.002-1.8-2.338-2.91-.994-5.033-1.094-.315-2.029-.382-2.371-1.531-.59-1.991-.187-2.958 2.224-4.23.756-.398 1.563-.951 2.492-.328.1.07.266.07.397.064 2.224-.12 4.446-.247 6.67-.368.669-.037 1.346-.026 2.007-.12.803-.114 1.914-.043 2.321-.531.962-1.154 2.216-1.212 3.448-1.405 1.054-.165 1.608-.581 1.565-1.714-.017-.455.077-.98.306-1.362.72-1.2.378-2.447-.355-3.243-1.041-1.129-1.491-2.503-2.26-3.817.458-1.476.935-3 1.451-4.66 1.138-.081 2.215-.1 3.271-.253.563-.081 1.175-.278 1.615-.617 1.82-1.408 4.104-1.278 5.616.443.493.56.888 1.205 1.465 1.67.648 1.899.546 4.039.981 6.091.229 1.078.812 2.129 1.432 3.064.489.738 1.475.649 2.033.151 1.402-1.245 3.129-.692 4.68-1.038.959-.207 2.002-.032 3.228-.032"/><path d="m14.487 189.093c.213.022.492.142.602.052 1.606-1.297 3.829-1.177 5.473-2.427.625-.475 1.478-.645 2.217-.975 1.1-.492 2.367-.613 3.256-1.607.244-.27.916-.106 1.338-.275 1.185-.485 2.34-1.05 3.517-1.561.55-.239 1.11-.548 1.688-.62 1.548-.193 3.113-.256 4.666-.413.47-.046.944-.176 1.386-.343 1.749-.669 3.489-1.36 5.225-2.063.307-.123.577-.338.776-.461-.419-1.287-1.237-1.285-2.068-1.359-2.154-.19-4.318-.356-6.45-.7-.77-.126-1.341-.794-1.64-1.653-.396-1.138-.949-2.219-1.551-3.587.093-.187.235-.751.581-1.127 1.231-1.342 2.566-2.59 3.789-3.938.439-.488.676-1.157 1.012-1.758 1.702-.781 3.421-1.57 5.287-2.425.373-.49.462-1.223-.139-1.694-.48-.379-1.272-.722-1.816-.597-1.885.431-4.019.402-5.281 2.299-1.919.507-3.391 2.364-5.602 1.938-.894-.172-1.746-.574-2.605-.9-.176-.068-.285-.353-.458-.394-1.999-.464-1.997-1.985-1.779-3.511.172-1.203.487-2.399.87-3.557.377-1.133 1.153-2.063 2.328-2.381 1.355-.365 2.275-1.16 3.043-2.563 1.551.266 3.115.687 4.693.766 2.272.114 4.558.481 6.833-.307.917-.316 2.004-.139 3.015-.165 1.642-.043 1.623-.042 2.045-1.514.185-.654.535-1.266.7-1.922.473-1.873-.652-2.987-2.545-2.69-1.999.314-4.028.449-6.025.783-.762.126-1.466.583-2.346.955-3.053-1.297-6.285-2.669-9.626-4.087.433-1.688-.061-3.09-1.268-4.272-.183-.178-.333-.449-.38-.7-.388-2.064-.379-2.067-1.34-3.226 1.245-.683 2.624-1.19 3.653-2.094.669-.587 1.357-.84 2.104-1.085.37-.12.884-.188 1.197-.022 1.05.557 1.97.114 2.938-.191 1.353-.422 2.719-.803 4.209-1.241-.28-1.144.28-1.875 1.305-1.827 1.791.081 2.676-.713 2.748-2.331 1.329-.581 2.281-.048 3.265.437 1.816.892 2.756.471 2.895-1.561.254-3.707.572-5.552-1.857-9.6.299-2.046 1.372-3.952 1.09-6.11-.098-.752.295-1.227.933-1.659 1.112-.757 2.131-1.649 3.32-2.588 4.727-.42 4.727-.42 7.794 2.17-.068 1.359.739 2.756-.029 4.269-.191.38.307 1.113.463 1.603-.482 1.414-1.02 2.74-1.381 4.116-.609 2.314.758 4.104 3.13 4.168.672.017 1.351-.12 2.022-.201.542-.064 1.079-.187 1.623-.224.326-.021.662.075.948.112.527 1.479.527 1.479.122 4.556.772.327 1.607.677 2.619 1.105-.141.657-.062 1.584-.46 1.897-1.191.937-.374 2.599-1.484 3.533-.255.215-.116.901-.177 1.559-1.55 1.299-3.198 2.696-4.866 4.066-.361.295-.774.548-1.2.739-.844.376-1.44.903-1.836 1.795-.278.626-.866 1.194-1.449 1.585-1.324.887-1.494 1.167-1.103 2.842.144.618-.056 1.456 1.112 1.575.187-.419.389-.88.548-1.242 1.579-.764 3.093-1.5 4.616-2.221.179-.087.397-.124.598-.124 2.408.015 4.398-1.221 6.507-2.124.83-.354 1.758-.469 2.923-.768-.954 3.671-2.72 6.129-6.003 7.37-.687.259-1.306.704-1.955 1.065-.654.365-1.29 1-1.966 1.046-1.519.105-2.321 1.187-3.385 1.958-1.137.822-2.381 1.495-3.711 2.313.079 1.972-1.192 2.89-3.003 3.399-.762.213-1.455.659-2.229 1.022.312 1.135 1.022 1.186 1.777.916.57-.204 1.075-.586 1.615-.881 1.779-.974 3.576-1.355 5.646-.807 1.249.333 2.656.063 4.126.063.688.872 1.508 1.912 2.424 3.075-1.497 1.43-1.854 3.439-2.308 5.396-1.49 1.088-3.258 1.914-3.511 4.059-.006.063-.048.156-.098.176-1.484.599-1.968 2.173-3.07 3.126-1.214 1.048-2.611 1.66-4.323 1.422-.853-.116-1.771-.004-2.624.177-1.018.216-1.398.831-1.161 1.586.267.846.931 1.251 1.74 1.068 3.151-.706 6.441-.838 9.432-2.237.416-.193.94-.33 1.38-.264 2.12.321 4.149-.236 6.207-.531 2.08-.303 4.157-.627 6.241-.899.46-.06.96-.012 1.417.09 2.095.472 4.183.979 6.336 1.488-.049 1.996 1.653 1.638 2.847 1.905.973 1.322 1.33 2.951 2.776 3.939.89.606.722 2.71-.034 3.536-.45.492-.916.972-1.328 1.494-.93 1.167-1.988 1.969-3.607 1.917-1.334-.042-2.689.596-4.142-.283.049-1.111-.782-1.4-1.856-1.735-2.543-.79-4.977-.498-7.479.121-1.373.34-2.823.361-4.231.585-.444.07-.846.359-1.287.481-.259.071-.555.013-1.186.013 1.699-1.849 3.27-3.296 5.128-4.396 1.232-.729 1.943-1.827 2.666-3.282-.587-.111-1.013-.283-1.42-.249-1.067.09-2.125.347-3.193.403-3.096.165-6.193.25-9.29.396-1.453.067-2.665.831-3.979 1.352-2.173.859-3.802 2.818-6.382 2.896-1.17.034-2.336.716-3.47 1.188-3.143 1.303-6.216 2.79-9.414 3.937-2.776.994-5.245 2.556-7.974 3.72-.135.523-.268 1.035-.333 1.285-1.298.807-2.368 1.515-3.482 2.14-.463.262-1.035.313-1.533.519-.681.28-1.634.435-1.951.957-.817 1.349-2.054 1.664-3.43 1.855-.392.59-.768 1.152-1.212 1.818-2.194-.245-3.124 1.802-4.722 2.733-.685.401-1.277.999-1.997 1.291-1.429.571-3.011.815-3.707 2.242-.978-.376-1.594-.654-2.236-.853-1.22-.379-1.647-1.259-1.76-2.447-.072-.757-.303-1.499-.524-2.537.333-.726.838-1.691.427-2.964-.348-1.086.227-1.862 1.393-2.36 1.144-.487 2.172-1.011 2.499-2.386.1-.422.557-.759.848-1.138.25-.322.747-.684.705-.964-.249-1.705 1.242-2.195 2.063-3.146.087-.1.188-.28.272-.276 1.708.094 2.793-1.285 4.464-1.901.568.96 1.141 1.927 1.816 3.063m37.471-21.297c1.245.34 2.451.061 3.464-1.12.313-.368.965-.67 1.438-.642 2.285.144 3.433-1.682 4.962-2.793.798-.581.996-1.682.654-2.6-.374-1.007-1.399-.92-2.292-.859-.338.022-.672.096-1 .174-2.855.681-5.169 2.476-7.735 3.748-.22.108-.338.416-.513.621-.431.494-.951.937-1.275 1.491-.241.416-.402 1.022-.283 1.455.075.263.743.416 1.164.508.392.082.814.017 1.416.017"/><path d="m42.447 235.481c-.778 1.279-1.692 1.738-2.84 1.909-1.204.181-2.385.522-3.585.727-.377.065-.866.043-1.17-.149-.957-.604-1.854-1.308-2.65-1.884.252-2.693 1.332-4.731 2.639-6.668.872-1.291 1.85-2.518 2.63-3.862.328-.565.262-1.361.411-2.269-2.726.419-4.186-1.813-6.382-2.19-.568-.1-1.157-.402-1.605-.77-1.385-1.136-1.32-1.654.307-2.77-.093-.533-.193-1.116-.293-1.692 4.606-2.475 8.9-5.507 14.017-6.943-.029-.151-.054-.303-.083-.452-1.378-.127-2.76-.252-4.419-.405-.105-.437-.49-1.091-.311-1.511.353-.831.511-2.04 1.638-2.188 1.932-.254 2.456-2.18 3.875-3.04.577-.351.469-1.304.06-2.787-.749-.322-1.512-.826-2.384-.079-.144.123-.453.262-.552.194-1.629-1.095-4.209-.344-5.193-2.681-.151-.363-.382-.693-.615-1.106.903-.938 2.347-1.557 1.416-3.238.679-.181 1.053-.323 1.438-.375 1.363-.183 2.682-.452 3.819-1.318.312-.236.735-.397 1.125-.445 3.471-.429 6.924-1.357 10.451-.441.263.067.549.115.813.09 1.986-.192 3.594.345 4.524 2.484-1.646 1.015-2.177 3.441-4.533 3.84-.905 1.91-2.956 2.532-4.344 3.894-.322.313-.463.81-.689 1.225-.677.229-1.354.455-2.01.677.029.987.687 1.108 1.26 1.241.658.155 1.35.166 2.016.303 2.297.478 4.322 2.532 4.66 4.774.052.357-.139.772-.281 1.136-.479 1.234-1.123 2.419-1.442 3.689-.346 1.37-1.457 2.162-2.099 3.294-.356.625-.925 1.154-1.475 1.64-1.044.92-1.945 1.849-1.756 3.423.035.28-.397.84-.691.9-1.233.26-1.648 1.355-2.314 2.156-.337.402-.55 1.127-.446 1.63.148.718.918.736 1.54.644 2.547-.374 5.158-.312 7.64-1.173.759-.264 1.603-.428 2.404-.411 1.451.033 2.675-.396 3.937-1.527-.249-.627-.529-1.335-.794-2.007.315-.735.842-1.486.907-2.275.045-.568-.499-1.203-.835-1.774-.164-.274-.55-.434-.672-.716-.473-1.101-.879-2.229-1.233-3.15.115-2.145.225-4.161.341-6.335.278-.564.612-1.363 1.046-2.104.925-1.571 1.886-3.093 3.996-3.275.585-.05 1.271-.276 1.689-.662 1.081-.989 2.354-1.146 3.704-1.22.744-.042 1.484-.184 2.197-.274 1.497.642.44 1.944.851 3.021.291.175.713.383 1.085.658.848.636 1.555 1.467 1.549 2.536-.017 2.475.699 4.988-.365 7.416-.127.289-.1.646-.168 1.138-1.875-.561-3.215.693-4.733 1.299-1.323.525-1.577 1.271-1.149 2.621.47 1.48.896 2.991 1.542 4.394.338.733 1.11 1.267 1.967 2.197 0 .015-.018.483.056.938.069.426.202.851.367 1.25.287.699.623 1.38.895 1.974-.89.747-1.548 1.328-2.237 1.872-.411.324-.859.603-1.306.874-.229.141-.629.149-.724.334-1.04 2.005-3.081 1.783-4.817 2.144-1.986.416-4.009.656-6.016.972-.068.011-.141.041-.203.027-3.014-.633-5.886.705-8.861.646-2.172-.051-4.341-.015-6.537-.015"/></g><g transform="translate(-149.667 -138.785)"><path d="m426.609 330.591c-5.876 9.396-11.769 18.796-17.635 28.198-10.01 15.968-20 31.959-30.011 47.933-3.449 5.5-6.869 11.011-10.283 16.545 40.416-3.8 85.51-9.767 105.479-14.944 1.488-24.003 3.09-44.132 9.123-72.275z" fill="#b20023"/><path d="m555.937 227.264-42.964 72.523s70.614-2.069 109.905-28.228c16.449-10.937 31.503-29.752 41.469-47.167 14.931-26.152 24.41-55.553 28.653-85.607 0 .001-55.158 40.684-137.063 88.479" fill="#c27e00"/><path d="m519.477 352.294c-2.506-10.156-19.019-21.988-19.019-21.988s-15.468 60.023-19.93 82.656c-3.635 18.447 25.072 40.953 39.914 43.773 6.019-10.614 10.356-22.02 11.097-33.68-2.877-21.794-12.062-70.761-12.062-70.761" fill="#0e1318"/><path d="m482.888 233.613c5.822-7.896 24.348 3.422 32.192 19.047 7.835 15.634-16.923 54.855-16.923 54.855s-25.324-14.514-28.584-28.41c-3.245-13.894 7.481-37.586 13.315-45.492" fill="#0e1318"/><path d="m466.216 279.888c-1.791-7.66.221-17.154 2.555-24.494-68.589-3.485-115.972-21.887-115.972-21.887 14.933 44.985 55.405 73.755 102.642 71.64 5.411-.238 17.43-2.188 27.144-4.218-9.345-7.509-14.856-14.582-16.369-21.041" fill="#c27e00"/><path d="m650.373 445.107-77.429-142.836-66.82 16.856c1.23 4.762 2.278 9.345 3.155 13.874 5.27 4.688 11.869 11.676 13.544 18.464l.026.096.018.095c.092.492 9.236 49.308 12.09 70.948l.046.332-.02.338c-.183 2.862-.584 5.778-1.188 8.739 36.168 7.218 87.927 14.124 116.578 13.094" fill="#b20023"/></g><g fill="#6a5443"><path d="m181.005 396.054v26.33h-6.889v-26.33h-9.732v-2.391h26.353v2.391z" transform="translate(-149.667 -138.785)"/><path d="m58.409 254.877 13.167 28.722h-7.048l-3.512-7.68h-10.917l-3.692 7.68h-4.698l13.719-28.722zm-7.028 18.417h8.468l-4.166-9.079z"/><path d="m77.368004 254.879h6.889v28.722h-6.889z"/><path d="m263.582 411.66v-17.997h4.32v28.726h-2.98l-17.41-19.865v19.86h-4.363v-28.721h4.404z" transform="translate(-149.667 -138.785)"/><path d="m329.192 411.66v-17.997h4.323v28.726h-2.981l-17.409-19.865v19.86h-4.364v-28.721h4.402z" transform="translate(-149.667 -138.785)"/><path d="m140.433 254.877 13.166 28.722h-7.048l-3.513-7.68h-10.917l-3.692 7.68h-4.699l13.723-28.722zm-7.029 18.417h8.469l-4.165-9.079z"/></g></svg>