<svg height="600" viewBox="-35 -30 200 100" width="1200" xmlns="http://www.w3.org/2000/svg" xmlns:xlink="http://www.w3.org/1999/xlink"><clipPath id="a"><path d="m-35-30h200v100h-200z"/></clipPath><path d="m-35.074066-30.000004h200v100h-200z" fill="#cc0001"/><g transform="matrix(.33487654 0 0 .33333333 -23.279321 -20)"><path d="m-35-30h200v100h-200z" fill="#215b33"/><path d="m-35 70v-100h200" fill="#0051ba"/><path clip-path="url(#a)" d="m165-30-200 100" stroke="#fcd116" stroke-width="9"/><g id="b" fill="#fff" transform="scale(10)"><g id="c"><path id="d" d="m.5 1-.5-1v1z" transform="matrix(.95105652 .30901699 -.30901699 .95105652 0 -1)"/><use height="100" transform="scale(-1 1)" width="200" xlink:href="#d"/></g><use height="100" transform="matrix(.30901699 .95105652 -.95105652 .30901699 0 0)" width="200" xlink:href="#c"/><use height="100" transform="matrix(.30901699 -.95105652 .95105652 .30901699 0 0)" width="200" xlink:href="#c"/><use height="100" transform="matrix(-.80901699 .58778525 -.58778525 -.80901699 0 0)" width="200" xlink:href="#c"/><use height="100" transform="matrix(-.80901699 -.58778525 .58778525 -.80901699 0 0)" width="200" xlink:href="#c"/></g><use height="100" transform="translate(19.741054 -16.92013)" width="200" xlink:href="#b"/><use height="100" transform="translate(19.741054 16.92013)" width="200" xlink:href="#b"/><use height="100" transform="translate(-19.741054 16.92013)" width="200" xlink:href="#b"/><use height="100" transform="translate(-19.741054 -16.92013)" width="200" xlink:href="#b"/></g><g fill="#fff"><path d="m751.85184-25.925927-73.62609-51.467876-72.66348 52.818206 26.19714-85.927033-72.68735-52.78535 89.81682-1.63795 27.74023-85.44134 29.31271 84.91472 89.83175-.0203-71.70057 54.11814z" transform="matrix(.13601698 .00141358 -.0014124 .13590335 13.131234 17.871557)"/><path d="m751.85184-25.925927-73.62609-51.467876-72.66348 52.818206 26.19714-85.927033-72.68735-52.78535 89.81682-1.63795 27.74023-85.44134 29.31271 84.91472 89.83175-.0203-71.70057 54.11814z" transform="matrix(.13601698 .00141358 -.0014124 .13590335 13.342873 57.826678)"/></g></svg>