<svg height="316.227766" viewBox="0 0 146.84376 146.84376" width="316.227766" xmlns="http://www.w3.org/2000/svg" xmlns:xlink="http://www.w3.org/1999/xlink"><linearGradient id="a"><stop offset="0" stop-color="#4a2a0b"/><stop offset="1" stop-color="#e6a875"/></linearGradient><linearGradient id="b"><stop offset="0" stop-color="#371f08"/><stop offset="1" stop-color="#e6a875"/></linearGradient><linearGradient id="c" gradientUnits="userSpaceOnUse" x1="129.390623" x2="129.390623" xlink:href="#b" y1="123.6927" y2="113.46404"/><linearGradient id="d" gradientUnits="userSpaceOnUse" x1="492.65375" x2="373.35254" xlink:href="#a" y1="421.61838" y2="453.58502"/><linearGradient id="e" gradientUnits="userSpaceOnUse" x1="476.91318" x2="436.22781" xlink:href="#a" y1="409.81375" y2="480.2829"/><linearGradient id="f" gradientUnits="userSpaceOnUse" x1="461.38718" x2="461.38718" xlink:href="#b" y1="392.65634" y2="478.22894"/><linearGradient id="g" gradientUnits="userSpaceOnUse" x1="438.36307" x2="487.63058" xlink:href="#b" y1="426.17325" y2="475.44077"/><linearGradient id="h" gradientUnits="userSpaceOnUse" x1="430.31525" x2="528.99463" xlink:href="#b" y1="426.17325" y2="452.61432"/><radialGradient id="i" cx="105.03958" cy="125.01562" gradientTransform="matrix(.71518146 .00000002 0 .80705841 29.917221 24.120641)" gradientUnits="userSpaceOnUse" r="10.18148"><stop offset="0" stop-color="#371f08"/><stop offset="1" stop-color="#43260a"/></radialGradient><linearGradient id="j" gradientUnits="userSpaceOnUse" x1="105.09542" x2="105.09542" y1="127.68163" y2="120.33839"><stop offset="0" stop-color="#3d2209"/><stop offset="1" stop-color="#875c35"/></linearGradient><linearGradient id="k" gradientUnits="userSpaceOnUse" x1="114.439545" x2="114.439545" y1="164.773407" y2="150.901046"><stop offset="0"/><stop offset="1" stop-color="#5f5f5f"/></linearGradient><g transform="translate(-41.008339 -89.329765)"><circle cx="114.43021" cy="162.75163" fill="#da121a" fill-rule="evenodd" r="72.760414" stroke-width=".5094"/><g fill="none" stroke="#000" stroke-width=".519716"><path d="m110.53641 102.4648s-10.52427.065-18.320026 2.0139"/><path d="m110.53641 99.957162s-10.52427.06496-18.320026 2.013898"/><path d="m110.53641 97.709385s-10.52427.06496-18.320026 2.013904"/><path d="m110.53641 95.336355s-10.52427.324818-18.320026 3.053339"/></g><g fill-rule="evenodd"><path d="m101.86871 98.756737c-13.519724 2.517103-26.038781 9.968803-34.945908 20.467923-9.928507 11.70307-15.375304 27.0473-15.375304 42.39452h.56844c0-15.20114 5.38558-30.40042 15.211879-41.99863 8.802996-10.3904 21.173217-17.77421 34.540893-20.287249z" stroke-width="1.96429"/><g fill="#ffda46" stroke="#000" stroke-width=".264583" transform="matrix(1.9642856 0 0 1.9642856 -38.882286 -85.477942)"><path d="m43.355934 122.2912a2.9855667 3.1185144 78.794111 0 0 .514237 2.34117 2.9855667 3.1185144 78.794111 0 0 2.147508 1.19452 2.9855667 3.1185144 78.794111 0 0 -.514233-2.34117 2.9855667 3.1185144 78.794111 0 0 -2.147512-1.19452z"/><path d="m43.659191 119.35707a2.9855667 3.1185144 80.563137 0 0 .441717 2.35594 2.9855667 3.1185144 80.563137 0 0 2.109608 1.26025 2.9855667 3.1185144 80.563137 0 0 -.441713-2.35594 2.9855667 3.1185144 80.563137 0 0 -2.109612-1.26025z"/><path d="m44.110555 116.4434a2.9855667 3.1185144 81.447679 0 0 .405295 2.36247 2.9855667 3.1185144 81.447679 0 0 2.089902 1.29266 2.9855667 3.1185144 81.447679 0 0 -.405291-2.36247 2.9855667 3.1185144 81.447679 0 0 -2.089906-1.29266z"/><path d="m44.904855 113.66832a2.9855667 3.1185144 86.987326 0 0 .175343 2.39055 2.9855667 3.1185144 86.987326 0 0 1.955356 1.48838 2.9855667 3.1185144 86.987326 0 0 -.175333-2.39055 2.9855667 3.1185144 86.987326 0 0 -1.95536-1.48838z"/><path d="m46.210398 111.06172a3.1185144 2.9855667 5.3730256 0 0 -.175165 2.39055 3.1185144 2.9855667 5.3730256 0 0 1.717391 1.75762 3.1185144 2.9855667 5.3730256 0 0 .175165-2.39055 3.1185144 2.9855667 5.3730256 0 0 -1.717395-1.75762z"/><path d="m47.830276 108.80498a3.1185144 2.9855667 16.993672 0 0 -.653106 2.30627 3.1185144 2.9855667 16.993672 0 0 1.32815 2.06752 3.1185144 2.9855667 16.993672 0 0 .653106-2.30627 3.1185144 2.9855667 16.993672 0 0 -1.328154-2.06752z"/><path d="m49.274541 106.4053a3.1185144 2.9855667 19.898506 0 0 -.769141 2.27022 3.1185144 2.9855667 19.898506 0 0 1.221667 2.13217 3.1185144 2.9855667 19.898506 0 0 .769141-2.27022 3.1185144 2.9855667 19.898506 0 0 -1.221671-2.13217z"/><path d="m50.929478 103.89896a3.1185144 2.9855667 23.972859 0 0 -.928499 2.20983 3.1185144 2.9855667 23.972859 0 0 1.067087 2.21358 3.1185144 2.9855667 23.972859 0 0 .928499-2.20983 3.1185144 2.9855667 23.972859 0 0 -1.067091-2.21358z"/><path d="m52.509926 101.65705a3.1185144 2.9855667 23.972859 0 0 -.928499 2.20983 3.1185144 2.9855667 23.972859 0 0 1.067087 2.21358 3.1185144 2.9855667 23.972859 0 0 .928499-2.20983 3.1185144 2.9855667 23.972859 0 0 -1.067091-2.21358z"/><path d="m54.533103 99.723967a3.1185144 2.9855667 30.951147 0 0 -1.1901 2.080663 3.1185144 2.9855667 30.951147 0 0 .790248 2.32683 3.1185144 2.9855667 30.951147 0 0 1.1901-2.08066 3.1185144 2.9855667 30.951147 0 0 -.790251-2.326833z"/><path d="m70.249185 92.639267a1.9336667 1.8512312 70.251618 0 0 -1.388193.530953 1.9336667 1.8512312 70.251618 0 0 -.534654 1.426827 1.9336667 1.8512312 70.251618 0 0 1.388195-.530955 1.9336667 1.8512312 70.251618 0 0 .534652-1.426828z"/><path d="m68.501187 92.683176a2.2037102 2.1097623 63.004634 0 0 -1.493089.799841 2.2037102 2.1097623 63.004634 0 0 -.399327 1.689964 2.2037102 2.1097623 63.004634 0 0 1.493091-.799845 2.2037102 2.1097623 63.004634 0 0 .399324-1.689964z"/><path d="m64.776904 93.809101a2.3824825 2.2809132 55.095834 0 0 -1.479877 1.078611 2.3824825 2.2809132 55.095834 0 0 -.176218 1.869085 2.3824825 2.2809132 55.095834 0 0 1.479879-1.078616 2.3824825 2.2809132 55.095834 0 0 .176214-1.869083z"/><path d="m62.778658 94.537596a2.5792873 2.469328 51.074819 0 0 -1.516296 1.277181 2.5792873 2.469328 51.074819 0 0 -.04841 2.031874 2.5792873 2.469328 51.074819 0 0 1.516296-1.277183 2.5792873 2.469328 51.074819 0 0 .04841-2.031875z"/><path d="m60.658748 95.479304a2.8173605 2.6972515 47.041262 0 0 -1.554017 1.508106 2.8173605 2.6972515 47.041262 0 0 .103361 2.217649 2.8173605 2.6972515 47.041262 0 0 1.55402-1.508114 2.8173605 2.6972515 47.041262 0 0 -.103371-2.217643z"/><path d="m58.374875 96.940938a2.8173605 2.6972515 39.46621 0 0 -1.34165 1.699804 2.8173605 2.6972515 39.46621 0 0 .3948 2.184668 2.8173605 2.6972515 39.46621 0 0 1.341651-1.69981 2.8173605 2.6972515 39.46621 0 0 -.394808-2.184662z"/><path d="m56.295951 98.189477a2.7278708 2.611577 32.534249 0 0 -1.090906 1.790569 2.7278708 2.611577 32.534249 0 0 .634763 2.053674 2.7278708 2.611577 32.534249 0 0 1.090905-1.79056 2.7278708 2.611577 32.534249 0 0 -.634765-2.053683z"/><path d="m66.528947 93.166172a2.2578079 2.1615537 55.095834 0 0 -1.402436 1.022168 2.2578079 2.1615537 55.095834 0 0 -.166996 1.771276 2.2578079 2.1615537 55.095834 0 0 1.402437-1.022172 2.2578079 2.1615537 55.095834 0 0 .166993-1.771275z"/><path d="m71.5407 92.787713a1.4928204 1.429179 76.00607 0 0 -1.107406.300383 1.4928204 1.429179 76.00607 0 0 -.521127 1.054596 1.4928204 1.429179 76.00607 0 0 1.107407-.300385 1.4928204 1.429179 76.00607 0 0 .521125-1.054597z"/><path d="m72.871888 93.911097a.9793882 1.0230004 24.451089 0 0 -.722349-.310626.9793882 1.0230004 24.451089 0 0 -.72904.343974.9793882 1.0230004 24.451089 0 0 .72235.310626.9793882 1.0230004 24.451089 0 0 .729041-.343976z"/><path d="m49.010779 122.2912a3.1185144 2.9855667 11.205889 0 1 -.514237 2.34117 3.1185144 2.9855667 11.205889 0 1 -2.147508 1.19452 3.1185144 2.9855667 11.205889 0 1 .514233-2.34117 3.1185144 2.9855667 11.205889 0 1 2.147512-1.19452z"/><path d="m49.026424 119.35707a3.1185144 2.9855667 9.436863 0 1 -.441717 2.35594 3.1185144 2.9855667 9.436863 0 1 -2.109608 1.26025 3.1185144 2.9855667 9.436863 0 1 .441713-2.35594 3.1185144 2.9855667 9.436863 0 1 2.109612-1.26025z"/><path d="m49.716823 116.18252a3.1185144 2.9855667 12.338973 0 1 -.560431 2.33055 3.1185144 2.9855667 12.338973 0 1 -2.170708 1.15182 3.1185144 2.9855667 12.338973 0 1 .560427-2.33055 3.1185144 2.9855667 12.338973 0 1 2.170712-1.15182z"/><path d="m51.066078 113.47184a3.1185144 2.9855667 24.677654 0 1 -1.045501 2.15696 3.1185144 2.9855667 24.677654 0 1 -2.3667.66135 3.1185144 2.9855667 24.677654 0 1 1.045497-2.15696 3.1185144 2.9855667 24.677654 0 1 2.366704-.66135z"/><path d="m52.534202 111.13945a3.1185144 2.9855667 34.921993 0 1 -1.412442 1.93664 3.1185144 2.9855667 34.921993 0 1 -2.446589.22989 3.1185144 2.9855667 34.921993 0 1 1.412438-1.93664 3.1185144 2.9855667 34.921993 0 1 2.446593-.22989z"/><path d="m53.638912 109.06145a2.7890891 2.6701853 41.952367 0 1 -1.465737 1.56443 2.7890891 2.6701853 41.952367 0 1 -2.196857-.0638 2.7890891 2.6701853 41.952367 0 1 1.465734-1.56443 2.7890891 2.6701853 41.952367 0 1 2.19686.0638z"/><path d="m55.544008 106.8162a3.3227198 3.1810664 45.914902 0 1 -1.870792 1.73864 3.3227198 3.1810664 45.914902 0 1 -2.605668-.25668 3.3227198 3.1810664 45.914902 0 1 1.870789-1.73863 3.3227198 3.1810664 45.914902 0 1 2.605671.25667z"/><path d="m57.212721 104.56072a3.2276115 3.0900127 46.045479 0 1 -1.821087 1.68473 3.2276115 3.0900127 46.045479 0 1 -2.53051-.25509 3.2276115 3.0900127 46.045479 0 1 1.821084-1.68472 3.2276115 3.0900127 46.045479 0 1 2.530513.25508z"/><path d="m59.194939 102.40937a3.3227198 3.1810664 48.62175 0 1 -1.950812 1.64835 3.3227198 3.1810664 48.62175 0 1 -2.59064-.37945 3.3227198 3.1810664 48.62175 0 1 1.950809-1.64833 3.3227198 3.1810664 48.62175 0 1 2.590643.37943z"/><path d="m60.909777 101.06348a2.6764802 2.5623772 59.903094 0 1 -1.80078.99469 2.6764802 2.5623772 59.903094 0 1 -1.986669-.70797 2.6764802 2.5623772 59.903094 0 1 1.800774-.99469 2.6764802 2.5623772 59.903094 0 1 1.986675.70797z"/><path d="m63.018068 99.540523a2.8505903 2.7290647 59.903094 0 1 -1.917925 1.059397 2.8505903 2.7290647 59.903094 0 1 -2.115904-.754025 2.8505903 2.7290647 59.903094 0 1 1.917918-1.059396 2.8505903 2.7290647 59.903094 0 1 2.115911.754024z"/><path d="m65.16655 98.26968a2.8327991 2.7120319 65.352315 0 1 -1.997317.867034 2.8327991 2.7120319 65.352315 0 1 -2.022038-.945615 2.8327991 2.7120319 65.352315 0 1 1.997309-.867031 2.8327991 2.7120319 65.352315 0 1 2.022046.945612z"/><path d="m67.368792 97.295004a2.7652516 2.6473641 71.486853 0 1 -2.028971.633163 2.7652516 2.6473641 71.486853 0 1 -1.863879-1.128711 2.7652516 2.6473641 71.486853 0 1 2.028965-.633161 2.7652516 2.6473641 71.486853 0 1 1.863885 1.128709z"/><path d="m69.421769 96.635652a2.4851675 2.3792205 78.75444 0 1 -1.880797.333785 2.4851675 2.3792205 78.75444 0 1 -1.533312-1.218143 2.4851675 2.3792205 78.75444 0 1 1.880792-.333785 2.4851675 2.3792205 78.75444 0 1 1.533317 1.218143z"/><path d="m70.841884 95.8137a2.0278402 1.9413898 79.5273 0 1 -1.538222.251635 2.0278402 1.9413898 79.5273 0 1 -1.237627-1.010762 2.0278402 1.9413898 79.5273 0 1 1.538218-.251635 2.0278402 1.9413898 79.5273 0 1 1.237631 1.010762z"/><path d="m71.796866 95.242166a1.4905427 1.4269982 85.346287 0 1 -1.14358.06938 1.4905427 1.4269982 85.346287 0 1 -.829693-.831353 1.4905427 1.4269982 85.346287 0 1 1.143577-.06938 1.4905427 1.4269982 85.346287 0 1 .829696.831353z"/></g><g fill="#ebc895" stroke="#221f20" stroke-miterlimit="10" stroke-width=".079375" transform="matrix(1.9642856 0 0 1.9642856 -39.205564 -85.477942)"><path d="m94.456727 110.73541-5.965013 2.97811.878501.90331-9.707935 9.76788v2.71042l11.036019-11.10165.765845.78135z"/><path d="m61.97243 110.73541 5.965013 2.97811-.878501.90331 9.707935 9.76788v2.71042l-11.036019-11.10165-.765845.78135z"/></g></g><g transform="matrix(3.0194409 0 0 3.0194409 -118.43052 -189.87147)"><path d="m78.185 99.8258s-.5467.167-.5381 1.0012l.0009.087h.2539.3043c.1201-1.0466.567-1.0882.567-1.0882-.0595-.8969-.7406-1.5704-1.5226-1.5704-.7839 0-1.4778.6734-1.5544 1.5704 0 0 .4851.4322.6098 1.0882h.243.2255l.0031-.102c.025-.8192-.4914-.9862-.4914-.9862.0318-.5636.4593-.9994.959-.9994.4977 0 .919.4359.94.9994z" style="clip-rule:evenodd;fill:#dbc3c3;fill-rule:evenodd;stroke:#847373;stroke-width:.150006;stroke-miterlimit:10"/><path d="m76.7774 100.812-.0031.102h.8734l-.0008-.087c-.0086-.8342.5381-1.0012.5381-1.0012-.0211-.5636-.4423-.9994-.94-.9994-.4998 0-.9272.4358-.959.9994 0 0 .5164.167.4914.9862z" style="clip-rule:evenodd;fill:#dbc3c3;fill-rule:evenodd;stroke:#847373;stroke-width:.150006;stroke-miterlimit:10"/><g fill="#847373" stroke-width=".10498"><path d="m76.7525 99.4949h.1157l-.0036.1268h-.1164z"/><path d="m77.1813 99.4968h.1157l-.0008.1268h-.1165z"/><path d="m77.1756 99.961h.1184l-.0009.133h-.1192z"/><path d="m77.186 99.1118h.1135l-.0008.122h-.1142z"/><path d="m77.6072 99.4968h.1157l.0019.1268h-.1165z"/></g><g stroke="#847373" stroke-miterlimit="10"><path clip-rule="evenodd" d="m75.4783 100.914h3.4654l.164 2.312h-3.8403z" fill="#afa2a1" fill-rule="evenodd" stroke-width=".150006"/><path d="m75.4495 101.23h3.5166" fill="none" stroke-width=".150006"/><path clip-rule="evenodd" d="m76.7344 101.698h.9078l.0116 1.203h-.957z" fill="#af9794" fill-rule="evenodd" stroke-width=".134022"/><g stroke-width=".150006"><g fill="none"><path d="m75.4158 101.599h1.089"/><path d="m77.9014 101.61h1.0917"/><path d="m78.1736 102.12.0231.699"/><path d="m78.4881 102.12.0328.699"/><path d="m78.8489 102.12.044.699"/><path d="m75.5857 102.12-.057.699"/><path d="m75.9002 102.12-.0473.699"/><path d="m76.261 102.12-.0361.699"/><path d="m78.1591 101.477.0098.292"/><path d="m78.4669 101.477.0138.292"/><path d="m78.8152 101.477.0184.292"/><path d="m75.6448 101.477-.0237.292"/><path d="m75.9504 101.477-.0196.292"/><path d="m76.301 101.477-.015.292"/></g><g clip-rule="evenodd" fill="#afa2a1" fill-rule="evenodd"><path d="m75.005 106.103h4.3069l.2602 3.667h-4.9016z"/><path d="m75.4227 103.226h3.5298l.1852 2.877h-3.9586z"/><path d="m76.5335 100.914h1.3529l.1902 8.856h-1.9137z"/><path d="m76.5817 106.503h1.1047l.022 2.298h-1.1987z"/></g><g fill="none"><path d="m75.3297 104.325h3.6937"/><path d="m75.2867 104.834h1.0829"/><path d="m77.9965 104.834h1.0829"/><path d="m75.4683 104.054-.037.462"/><path d="m75.8097 104.054-.0304.462"/><path d="m76.2014 104.054-.0232.462"/><path d="m78.1146 104.054.0129.462"/><path d="m78.456 104.054.0194.462"/><path d="m78.8477 104.054.0267.462"/><path d="m76.8364 104.064-.0111.462"/><path d="m77.178 104.064-.0047.462"/><path d="m77.5698 104.064.0027.462"/></g></g></g><path d="m75.296 105.453.0443-.538h.4821.482l-.0238.538-.0249.562h-.5029-.503z" fill="#dbc3c3"/><path d="m78.0431 105.453-.0128-.538h.482.4821l.0332.538.0348.562h-.503-.503z" fill="#dbc3c3"/><path d="m76.3984 104.856h1.6333" fill="none" stroke="#847373" stroke-miterlimit="10" stroke-width=".171271"/><g fill="#dbc3c3"><path d="m76.4051 105.45.0232-.533h.7407.7407l.0124.533.0128.557h-.777-.7771l.0242-.557z"/><path d="m75.5226 104.15.0076-.098h-.061-.061l.0314-.381.0303-.368h.4532.4532l-.0205.464-.0213.482h-.041-.041l.0047-.099.0047-.099h-.061-.061l-.0051.099-.0052.099h-.1353-.1352l.0063-.099.0062-.099h-.0609-.061l-.0067.099-.0068.099h-.1107-.1106z"/><path d="m76.4763 103.767.0182-.464h.6936.6936l.0089.464.0092.482h-.1353-.1352l-.0007-.094-.0008-.093h-.0566-.0566l-.0021.091-.0021.09-.1373.004-.1372.003.0007-.094.0007-.093h-.061-.061l-.0012.093-.0012.093h-.1106-.1106l.002-.093.002-.093h-.061-.061l-.0025.093-.0025.093h-.1556-.1557z"/><path d="m78.0202 104.242c-.0033-.004-.0111-.224-.0173-.482l-.0108-.457h.4532.4532l.0287.464.0299.483-.0186-.003c-.0175-.003-.0192-.009-.0269-.1l-.008-.095h-.0566-.0566l.0054.098.0056.099h-.1394-.1393l-.0044-.099-.0043-.098h-.0566-.0566l.0014.095.0015.097-.1126.003-.1125.003-.0031-.099-.003-.099h-.0566-.0566l.0002.096c0 .087-.0014.096-.0166.099-.0091.002-.0193 0-.0226-.004z"/></g><g fill="none" stroke="#847373" stroke-miterlimit="10" stroke-width=".153419"><path d="m76.3373 106.104h1.7138"/><path d="m76.451 103.226h1.5281"/></g></g><g transform="matrix(1.9642856 0 0 1.9642856 -139.79488 -85.477942)"><path d="m141.00834 125.01562a11.584646 11.584646 0 0 1 -11.58465 11.58465 11.584646 11.584646 0 0 1 -11.58465-11.58465 11.584646 11.584646 0 0 1 11.58465-11.58466 11.584646 11.584646 0 0 1 11.58465 11.58466z" fill="url(#c)" fill-rule="evenodd" stroke-width="1.56906"/><g fill-rule="evenodd" transform="translate(24.384113)"><path d="m115.22106 125.01562a10.181481 10.181481 0 0 1 -10.18148 10.18148 10.181481 10.181481 0 0 1 -10.181479-10.18148 10.181481 10.181481 0 0 1 10.181479-10.18149 10.181481 10.181481 0 0 1 10.18148 10.18149z" fill="url(#i)" stroke-width="1.37901"/><circle cx="105.03958" cy="125.01562" fill="#3d2209" r="3.373437" stroke="url(#j)" stroke-width=".1"/></g><path d="m500.08916 459.69015h-38.70198-38.70199l19.35099-33.5169 19.351-33.5169 19.35099 33.5169z" fill="url(#f)" transform="matrix(-.02425957 0 0 -.02425957 140.616753 127.29039)"/><path d="m500.08916 459.69015h-38.70198-38.70199l19.35099-33.5169 19.351-33.5169 19.35099 33.5169z" fill="url(#g)" transform="matrix(-.01715411 -.01715411 .01715411 -.01715411 135.729873 134.53881)"/><path d="m500.08916 459.69015h-38.70198-38.70199l19.35099-33.5169 19.351-33.5169 19.35099 33.5169z" fill="url(#h)" transform="matrix(-.00627884 -.02343295 .02343295 -.00627884 130.123413 136.41603)"/><path d="m500.08916 459.69015h-38.70198-38.70199l19.35099-33.5169 19.351-33.5169 19.35099 33.5169z" fill="url(#e)" transform="matrix(-.01715411 .01715411 -.01715411 -.01715411 138.946893 118.70944)"/><path d="m500.08916 459.69015h-38.70198-38.70199l19.35099-33.5169 19.351-33.5169 19.35099 33.5169z" fill="url(#d)" transform="matrix(-.00627884 .02343295 -.02343295 -.00627884 134.517933 114.79271)"/></g><path d="m168.751 160.78368a53.955189 55.479813 0 0 1 -26.9776 48.04692 53.955189 55.479813 0 0 1 -53.955189 0 53.955189 55.479813 0 0 1 -26.977593-48.04692h53.955192z" fill="#fcdd09" fill-rule="evenodd" stroke-width=".259331"/><path d="m138.99668 96.014625c2.36658 1.653303 4.30053 4.547385 6.01821 5.935295.60753.53178 1.3083.92707 1.9034 1.49074l-.0203.0637c-1.97569-1.01169-6.65575-.61934-8.78502-.35078 1.57463 2.28886 4.75485.9751 7.46608 1.03662 1.20626.15699 2.44783.425 3.44048 1.00096-.34931-.60956-.86842-1.10875-1.24523-1.76009-2.50134-2.618-3.69619-6.298093-8.77762-7.416531z" fill="#008000" stroke-width=".166287"/><g fill="#197a19"><path d="m181.74498 145.71753c-1.23224 3.5945-4.19156 7.09219-5.32375 9.76934-.45237.96163-.69787 1.99186-1.19488 2.94943l-.088-.002c.56252-2.86695-1.63331-8.64556-2.74633-11.24191-2.32399 2.82332.49296 6.3698 1.39967 9.82226.23941 1.58315.35114 3.25128-.0177 4.71632.64426-.66336 1.08798-1.50097 1.77459-2.21462 2.40391-4.11528 6.62594-6.96335 6.19573-13.79835z" stroke-width=".218877"/><path d="m122.12001 99.436724c1.57731-.400561 3.17612-.331257 4.73297-.36253 1.29131-.09971 2.42856-.581059 3.66518-.850325-1.13286-.174547-2.15935-.858242-3.341-.813486-2.0144-.165255-3.57873 1.021037-5.05715 2.026335z" stroke-width=".133009"/><g stroke-width=".194678"><path d="m156.8338 107.3981c1.75401 2.889 2.45847 6.9027 3.64278 9.20088.39955.85665.96347 1.61112 1.33465 2.49606l-.0519.0587c-1.63841-2.01704-6.83701-3.80769-9.24474-4.52589.60546 3.19567 4.63272 3.29077 7.5079 4.63748 1.21797.73802 2.42131 1.61165 3.21255 2.69755-.0863-.81798-.40645-1.59797-.50239-2.47366-1.44265-3.98604-.98406-8.49257-5.89889-12.09115z"/><path d="m163.59013 114.28434c1.75401 2.88902 2.45846 6.90272 3.64276 9.20089.39956.85665.96348 1.61113 1.33466 2.49606l-.0519.0587c-1.6384-2.01705-6.83698-3.8077-9.24472-4.52589.60545 3.19567 4.6327 3.29076 7.50789 4.63748 1.21797.73801 2.42132 1.61165 3.21254 2.69755-.0863-.81799-.40644-1.59797-.50237-2.47367-1.44266-3.98604-.98407-8.49256-5.89889-12.09116z"/><path d="m171.55633 121.92181c.97346 3.23655.64885 7.29867 1.21899 9.8204.17187.92946.52865 1.80125.66605 2.75098l-.0651.0438c-1.08023-2.36346-5.66364-5.40058-7.81433-6.69962-.2153 3.24537 3.65942 4.34737 6.105 6.37208.99397 1.01988 1.93978 2.16737 2.43342 3.41699.12159-.81347.008-1.64884.13396-2.52061-.39694-4.22044 1.17712-8.46795-2.6782-13.18408z"/><path d="m178.56283 134.19054c-.12984 3.37727-1.75558 7.11405-2.03492 9.68428-.13927.93492-.0847 1.87532-.26305 2.81822l-.0756.0204c-.25449-2.58615-3.60377-6.94667-5.21629-8.87351-1.25716 2.99974 2.04998 5.29988 3.70586 8.0088.60907 1.28732 1.13115 2.6797 1.19242 4.0219.37907-.72995.54267-1.55701.94494-2.34063.9946-4.12074 3.86224-7.62726 1.74666-13.33949z"/></g><path d="m149.12012 101.19413c1.71514 2.32216 2.62429 5.68208 3.80918 7.54563.40603.69787.94399 1.29614 1.32806 2.02027l-.0396.054c-1.54948-1.58933-6.11-2.71119-8.21363-3.13624.76177 2.6717 4.19497 2.44165 6.74477 3.36527 1.09308.53376 2.18416 1.18402 2.94108 2.04667-.1365-.68916-.46913-1.32793-.61835-2.06546-1.53496-3.27942-1.49281-7.14837-5.95153-9.8301z" stroke-width=".166287"/><path d="m129.49118 94.340171c2.40434.828177 4.74223 2.811916 6.53277 3.572195.64317.303541 1.33233.468918 1.97269.80248l-.002.05891c-1.9181-.379217-5.78741 1.084729-7.52604 1.827094 1.8872 1.558 4.2633-.32377 6.57468-.927244 1.0597-.158694 2.17616-.231882 3.15623.01591-.44326-.431858-1.00366-.729176-1.48033-1.189771-2.75174-1.612721-4.65366-4.440952-9.22824-4.159636z" stroke-width=".146478"/></g><path d="m103.93966 155.60995c-2.82301-.0285-5.775724.8071-8.971215 3.31928-2.480595 2.02121-4.152167 3.0759-10.61563 0-.898981-.42782-.820233 1.67053-3.210673 1.40182-1.515558-.00052-2.159477.67527-2.139774 1.42414.03129 1.18976.94496 2.65277 1.608888 3.03609.231451.13357.720479-.15358.731871-.32584 0 0 .02298-.62593 0-1.00493.357306-.21096.810027-.0518.810027-.0518 3.172629 3.87515 1.188109 6.01639 0 3.31929-.564819-.97829-2.31068-.0443-1.992587 1.44952.987646 1.56187 2.140789 2.45953 2.140789 2.45953v1.06176h-.615137c-.142232 0-.256814.11461-.256814.25682v.62325c0 .14221.114587.25682.256814.25682h2.89499c.142232 0 .256813-.11461.256813-.25682v-.62325c0-.14221-.114586-.25682-.256813-.25682h-.639496v-1.06176h.104552c1.971662-.52832 2.141048-2.3512 1.864688-4.08973-.276365-1.73854-1.102424-3.39329-.911537-3.58423.558135-.55813 4.43576 2.30524 6.817229 2.30524 3.313874 0 5.402129-3.58423 12.550355-3.58423 4.21066 0 7.25814 1.96427 7.3806 3.55072l.002 1.03843c.17541.045.30452.20308.30452.39283 0 .1891-.13009.34726-.30452.39284-.26389 0-.25192 1.47185 0 1.47185h.45272c.32391 0 .58468.26078.58468.58468v.11674c0 .32391-.26077.58467-.58468.58467h-.44562v47.11766h2.66152 2.66152v-47.11766h-.44561c-.32391 0-.58469-.26076-.58469-.58467v-.11674c0-.32391.26078-.58468.58469-.58468h.45272c.25193 0 .26389-1.47185 0-1.47185-.17442-.0455-.30452-.20374-.30452-.39284 0-.18979.12911-.34791.30452-.39283l.002-1.03843c.12244-1.58645 3.16994-3.55072 7.3806-3.55072 7.14823 0 9.23647 3.58423 12.55035 3.58423 2.38147 0 6.2591-2.86337 6.81723-2.30524.19088.19088-.63517 1.84569-.91153 3.58423-.27636 1.73853-.10698 3.56141 1.86468 4.08973h.10456v1.06176h-.61514c-.14223 0-.25681.11461-.25681.25682v.62325c0 .14221.11459.25682.25681.25682h2.895c.14222 0 .25681-.11461.25681-.25682v-.62325c0-.14221-.11459-.25682-.25681-.25682h-.6395v-1.06176s1.15314-.89766 2.14078-2.45953c.3181-1.49378-1.42776-2.42781-1.99259-1.44952-1.18811 2.6971-3.17262.55586 0-3.31929 0 0 .45273-.15936.81004.0518-.023.379 0 1.00492 0 1.00493.0115.17224.50041.45941.73186.32584.66393-.38332 1.57762-1.84633 1.60889-3.03609.0197-.74887-.62421-1.42469-2.13977-1.42414-2.39044.26871-2.31169-1.82964-3.21068-1.40182-6.46346 3.0759-8.13503 2.02121-10.61563 0-3.19548-2.51217-6.14819-3.34769-8.97121-3.31928-3.21569.0324-5.0434 3.31928-10.4786 3.31928-5.43519 0-7.2629-3.28688-10.47859-3.31928z" fill="url(#k)" stroke-width=".193455"/><g transform="matrix(1.9642856 0 0 1.9642856 -38.87295 -85.477942)"><g stroke="#000" stroke-width=".132292"><path d="m98.609344 140.45568-4.219707-9.47979"/><path d="m93.978024 130.97393v9.51999"/><path d="m89.346601 140.45645 4.207702-9.48056"/></g><path d="m89.285941 140.42777a4.6920829 2.9434896 0 0 0 2.346042 2.54913 4.6920829 2.9434896 0 0 0 4.692083 0 4.6920829 2.9434896 0 0 0 2.346041-2.54913h-4.692083z" fill-rule="evenodd" stroke-width=".264583"/></g><g transform="translate(.009336)"><g fill="none" stroke="#000" stroke-width=".25986"><path d="m92.221583 190.41683-8.288709-18.62072"/><path d="m83.124348 171.79197v18.69998"/><path d="m74.026911 190.41835 8.265128-18.6224"/></g><path d="m73.907757 190.36201a9.2165908 5.7818542 0 0 0 4.608297 5.00721 9.2165908 5.7818542 0 0 0 9.216591 0 9.2165908 5.7818542 0 0 0 4.608294-5.00721h-9.216591z" fill-rule="evenodd" stroke-width=".519716"/></g><path d="m44.897752 161.04363c-.26453 6.74125.08375 13.30646.09542 13.52483l10.497882.67198 3.112213 12.30166-9.223967 5.7778a72.760412 72.760412 0 0 0 9.06866 14.0953l9.86549-5.43775 9.238177 8.69918-4.726178 9.94669a72.760412 72.760412 0 0 0 5.15454 3.43298 72.760412 72.760412 0 0 0 9.714247 4.60944l5.520982-9.26152 12.366632 2.84018.95213 11.04703a72.760412 72.760412 0 0 0 15.9935-.0223l.9501-11.0247 12.36764-2.84017 5.46312 9.1661a72.760412 72.760412 0 0 0 9.43206-4.51403 72.760412 72.760412 0 0 0 5.41948-3.59132l-4.65107-9.78835 9.23817-8.69917 9.69497 5.34334a72.760412 72.760412 0 0 0 9.06967-14.10647l-9.05547-5.67223 3.11323-12.30166 11.0308-.70649c.0144-.2705.35676-6.77681.0934-13.49032h-16.13762a53.955187 55.479814 0 0 1 -26.97759 48.04746 53.955187 55.479814 0 0 1 -53.955169 0 53.955187 55.479814 0 0 1 -26.977585-48.04746z" fill="#223256" fill-rule="evenodd" stroke="#000" stroke-width=".519717"/></g></svg>