<svg height="1763.9883" viewBox="0 0 1520 1763.9883" width="1520" xmlns="http://www.w3.org/2000/svg"><g transform="matrix(2 0 0 2 -39.71429 -243.87896)"><path d="m375 4.0058594a375 375 0 0 0 -262.57031 107.3906206h-112.42969v267.60938 133.13281h.39453125a375 375 0 0 0 374.60546875 363.86133 375 375 0 0 0 374.44336-363.86133h.55664v-133.13281-267.60938h-112.80078a375 375 0 0 0 -262.19922-107.3906206z" fill="#3c3b3d" transform="translate(24.857147 122.93362)"/><g fill-rule="evenodd"><g fill="#fff" stroke="#000"><path d="m360.22779 886.80669c27.95345-10.02539 34.69691-25.60591 38.89088-40.91118v-121.21831l-32.82996-17.17259.50508 46.97209c0 36.21898-3.2006 91.67579-6.566 132.32999z"/><path d="m322.36521 875.75113c28.76992-7.36176 36.94376-22.2418 42.55352-37.0867l11.35934-120.6849-31.07626-20.17351-3.89888 46.81273c-3.39407 36.0596-11.77743 90.97245-18.93772 131.13238z"/><path d="m287.26718 855.42194c29.30019-4.83766 38.73432-18.95235 45.611-33.25451l21.78818-119.2441-29.20862-22.79387-7.94606 46.29787c-6.51012 35.6291-19.62658 89.60743-30.2445 128.99461z"/><path d="m256.70468 830.90119c29.5712-2.72911 40.49601-5.52611 47.87318-29.90626l30.26315-117.37982-27.50309-24.82507-11.23788 45.61078c-9.04237 35.07207-25.98686 87.97373-39.39536 126.50037z"/><path d="m438.00955 886.80669c-27.95345-10.02539-34.69691-25.60591-38.89088-40.91118v-121.21831l32.82996-17.17259-.50508 46.97209c0 36.21898 3.2006 91.67579 6.566 132.32999z"/><path d="m475.87213 875.75113c-28.76992-7.36176-36.94376-22.2418-42.55352-37.0867l-11.35934-120.6849 31.07626-20.17351 3.89888 46.81273c3.39407 36.0596 11.77743 90.97245 18.93772 131.13238z"/><path d="m510.97016 855.42194c-29.30019-4.83766-38.73432-18.95235-45.611-33.25451l-21.78818-119.2441 29.20862-22.79387 7.94606 46.29787c6.51012 35.6291 19.62658 89.60743 30.2445 128.99461z"/><path d="m541.53266 830.90119c-29.5712-2.72911-40.49601-5.52611-47.87318-29.90626l-30.26315-117.37982 27.50309-24.82507 11.23788 45.61078c9.04237 35.07207 25.98686 87.97373 39.39536 126.50037z"/></g><path d="m654.14231 656.0762c-1.6846 0-3.35457.0845-5.01172.24414v24.66601c1.06841-.12184 2.14263-.2199 3.22656-.26757 10.42793-.45865 32.4189 10.33118 32.5 23.92968.0696 11.65804-7.70348 20.76726-30 42.14258-8.97076 8.60013-19.52495 28.47077-19.28516 41.42774.31273 16.89777 5.87155 36.73165 32.5 35.71484 19.03751-.72695 30.46065-13.0786 28.92774-30.71484-1.57252-18.0919-11.39135-19.49627-20-16.42774 7.34614 6.88572 12.72793 25-3.57031 25-9.52179 0-12.51954-1.39789-12.51954-12.85742 0-9.93748 3.74548-21.59132 11.97852-28.82422 21.077-18.5166 31.44348-34.48902 31.96875-54.74805.93996-36.2527-33.37875-49.28515-50.71484-49.28515z" fill="#008dce" stroke="#000"/><path d="m667.35715 805.36219c-12.68219-.0339-13.57143-9.60694-13.57143-18.92857 0-11.58148 17.19881-31.42957 29.64286-45 5.23553-5.70943 5.4251-9.37985 6.41006-13.39916.26651-1.08754.59125-2.20062 1.08994-3.38655-5.29277 5.35714-1.1109 9.59521-14.64286 19.28571-20.40751 14.61421-29.64285 34.15971-29.64285 44.28571 0 27.55565 13.50147 21.90217 20.71428 17.14286z" fill="#fff"/><g stroke="#000"><path d="m692.56798 708.00969c-14.75387-18.08508-27.31677-37.48474-35.35534-59.599l-6.06091 15.15228c-11.62925-16.55651-21.34004-34.64778-26.26397-56.56854l-6.06091 21.21321c-16.30552-4.10598-24.93355-40.84124-36.36549-65.65992v25.25381c-26.56046-10.34472-31.25533-54.32881-41.41626-89.90357l-12.12183 6.06091-15.15229-20.20305-1.01015 36.36549c-11.01069 4.00703-17.02646-10.30062-24.24366-20.20305l-4.04061 36.36549-23.23351-23.2335 12.12183-158.59395c23.44619-12.68 42.59611-69.81636 58.58885-90.91373 12.30084-16.22708 37.71236 1.72379 56.56854 18.18274l59.599 57.5787c35.42522 48.48732 39.59341 96.97464 43.43656 145.46196z" fill="#d3232a"/><path d="m93.042442 708.00969c14.753868-18.08508 27.316768-37.48474 35.355338-59.599l6.06091 15.15228c11.62925-16.55651 21.34004-34.64778 26.26397-56.56854l6.06091 21.21321c16.30552-4.10598 24.93355-40.84124 36.36549-65.65992v25.25381c26.56046-10.34472 31.25533-54.32881 41.41626-89.90357l12.12183 6.06091 15.15229-20.20305 1.01015 36.36549c11.01069 4.00703 17.02646-10.30062 24.24366-20.20305l4.04061 36.36549 23.23351-23.2335-12.12183-158.59395c-23.44619-12.68001-42.59611-69.81636-58.58885-90.91373-12.30084-16.22708-37.71236 1.72379-56.56854 18.18274l-59.599 57.5787c-35.42522 48.48732-39.593408 96.97464-43.436558 145.46196z" fill="#d3232a"/><g fill="#fff"><path d="m553.67201 652.4513 46.97209 60.10407c2.91934 2.51694 5.84654 6.6927 9.84898 5.68212 6.49507-1.63996 6.38589-5.55014 6.31346-8.71257l.50508-14.14214-.50508-27.27412c.50872-4.94781-2.87074-7.46551-6.06091-10.10152 3.81611-5.72984 8.64669-10.02746 17.17259-10.60661 7.31559-.49693 11.73078 2.9657 12.12183 13.13199.11654-6.13293 2.82941-8.59456 11.11168-8.5863 10.36021.0103 15.22428 9.9354 22.72843 15.15229-5.89333 1.87545-10.89939 4.38465-12.12183 9.59645 8.259 8.92301 9.92996 17.05739 9.34391 26.01143-.77023 11.76827-3.41859 22.0432-13.38452 29.54696l-42.93148 32.32488c-9.2106-2.06484-15.70394.72254-20.20305 7.07107l10.6066.50507-4.04061 14.14214c-1.54428 5.82868-3.64925 11.23684-13.13199 11.11168h-17.17259c-14.53577 10.51228-12.57629 18.92992-6.06091 26.76904-8.21316-.726-16.44675-1.01503-17.67767-15.15229-1.08053-12.41001 6.426-15.99456 17.17259-16.66752-3.83152-6.71612-6.00806-13.66866-.50508-21.71828 6.25314-4.93896 13.53838-7.46968 21.21321-9.09137 3.55017-1.40836 4.74725-3.75795 3.53553-7.07107l-7.57614-12.12183-43.94164-41.41625z"/><path d="m221.07928 652.4513-46.97209 60.10407c-2.91934 2.51694-5.84654 6.6927-9.84898 5.68212-6.49507-1.63996-6.38589-5.55014-6.31346-8.71257l-.50508-14.14214.50508-27.27412c-.50872-4.94781 2.87074-7.46551 6.06091-10.10152-3.81611-5.72984-8.64669-10.02746-17.17259-10.60661-7.31559-.49693-11.73078 2.9657-12.12183 13.13199-.11654-6.13293-2.82941-8.59456-11.11168-8.5863-10.36021.0103-15.22428 9.9354-22.72843 15.15229 5.89333 1.87545 10.89939 4.38465 12.12183 9.59645-8.259 8.92301-9.92996 17.05739-9.34391 26.01143.77023 11.76827 3.41859 22.0432 13.38452 29.54696l42.93148 32.32488c9.2106-2.06484 15.70394.72254 20.20305 7.07107l-10.6066.50507 4.04061 14.14214c1.54428 5.82868 3.64925 11.23684 13.13199 11.11168h17.17259c14.53577 10.51228 12.57629 18.92992 6.06091 26.76904 8.21316-.726 16.44675-1.01503 17.67767-15.15229 1.08053-12.41001-6.426-15.99456-17.17259-16.66752 3.83152-6.71612 6.00806-13.66866.50508-21.71828-6.25314-4.93896-13.53838-7.46968-21.21321-9.09137-3.55017-1.40836-4.74725-3.75795-3.53553-7.07107l7.57614-12.12183 43.94164-41.41625z"/><path d="m502.15423 335.76848 8.58629-4.04061h26.26397l10.10153-29.7995c3.26446-11.94765 7.96344-14.14213 13.13198-14.14213 11.04774 0 23.57897 8.32897 32.82996 16.16244 35.56254 30.11331 63.02973 65.96687 75.76144 107.07617 6.32033 20.40765 11.82349 39.73267 11.11168 59.599v218.30978l8.70803 8.70804v-225.49376c-2.06239-20.95238-4.6966-41.56896-11.29196-62.85714-11.97486-38.65185-30.35199-76.16103-79.03317-115.65301-14.25211-11.56184-27.74208-25.77556-51.32397-25.77556-9.18215 0-16.46742 3.05015-23.57143 19.28571z"/><path d="m284.77976 335.76848-8.58629-4.04061h-26.26397l-10.10153-29.7995c-3.26446-11.94765-7.96344-14.14213-13.13198-14.14213-11.04774 0-23.57898 8.32897-32.82997 16.16244-35.56254 30.11331-63.02973 65.96687-75.76144 107.07617-6.32033 20.40765-11.82349 39.73267-11.11168 59.599v218.30978l-8.708029 8.70804v-225.49376c2.062389-20.95238 4.696599-41.56896 11.291959-62.85714 11.97486-38.65185 30.35199-76.16103 79.03317-115.65301 14.25211-11.56184 27.74209-25.77556 51.32398-25.77556 9.18215 0 16.46742 3.05015 23.57143 19.28571z"/></g></g><path d="m569.82176 688.74282 33.34772 39.72246c11.22402 12.39508 24.98123 10.27792 27.7792 3.28299l5.05076-12.62691c.83497-5.67122-1.17645-9.3093-5.05076-11.61675 4.49779-11.39531 4.95975-19.33135 6.31345-28.03173-2.98618-3.94086-4.71129-11.03438-6.81853-17.1726-1.72989 7.16997-2.58966 15.64513-6.06091 20.20305l.25253 26.26397c.0931 2.08188-4.05938 1.9487-4.04061 0l-.25253-42.17387c-6.48047 3.2451-10.37437 7.19563-11.61676 11.86929 2.43446 4.72422 4.60761 13.10677 6.56599 24.4962.64523 5.67313 3.06443 11.91072-6.31345 14.39468-3.61971-6.38961-7.23943-5.29553-10.85914-5.3033l-24.24366-29.7995z" fill="#fff200"/><path d="m204.92953 688.74282-33.34772 39.72246c-11.22402 12.39508-24.98123 10.27792-27.7792 3.28299l-5.05076-12.62691c-.83497-5.67122 1.17645-9.3093 5.05076-11.61675-4.49779-11.39531-4.95975-19.33135-6.31345-28.03173 2.98618-3.94086 4.71129-11.03438 6.81853-17.1726 1.72989 7.16997 2.58966 15.64513 6.06091 20.20305l-.25253 26.26397c-.0931 2.08188 4.05938 1.9487 4.04061 0l.25253-42.17387c6.48047 3.2451 10.37437 7.19563 11.61676 11.86929-2.43446 4.72422-4.60761 13.10677-6.56599 24.4962-.64523 5.67313-3.06443 11.91072 6.31345 14.39468 3.61971-6.38961 7.23943-5.29553 10.85914-5.3033l24.24366-29.7995z" fill="#fff200"/><path d="m587.5 548.43164c-21.86986 12.09605-31.60405 30.1504-46.78516 44.71094-46.71777 44.80806-103.14194 73.44829-181.62109 73.57226s-122.71412-21.97601-166.23633-54.64257c-10.42654-7.82588-31.26819-31.71085-54.26953-49.25391l-2.97461 11.9043-1.55273 8.27929c14.49241 10.94821 27.64854 25.98256 40.57422 40.33789 51.84421 57.57854 111.9625 70.83201 184.45898 70.83204 72.49648 0 151.22944-20.6385 200.19141-85.67188 8.29767-11.02132 18.3749-23.56717 30.01757-33.43555l-3.16211-14.23242-3.02929-6.06055z" fill="#008dce" stroke="#000" transform="translate(24.857147 122.93362)"/><path d="m164.2582 693.36247-4.04061 10.10153c35.73553 33.12707 79.01055 107.58125 239.91123 107.58125 93.54519 0 160.78853-48.56406 210.61681-118.18785l-1.01016-5.05076c-56.27298 68.61049-118.95816 115.15739-209.60665 115.15739-135.52416 0-168.4847-36.52816-235.87062-109.60156z" fill="#fff"/></g><g stroke="#000"><g fill-rule="evenodd"><path d="m288.82422 424.39648c-16.40459-.26957-30.01976 8.60598-40.9668 30.88868-11.42571 23.25704-37.23673 71.33909-67.85742 65l20.71484 15.71484-5.71484 7.85742 9.28516 8.57031-10 6.42969 14.28711 10-10 8.57031c9.73973 5.86612 5.34678 19.26028 17.85546 22.14454 10.50484 2.42221 21.3519-14.61358 32.05079-23.73829l2.03906 16.3125 17.17187-20.70703-6.56445 34.84961 39.90039-28.78906-.50586 46.4668 30.30469-26.26368 3.03125 35.85938 25.25391-24.74805 13.63671 28.78907 14.14258-35.35547 26.76953 26.26367v-44.44531l30.30469 30.30468-3.03125-37.37695 34.3457 28.28516-12.30273-46.02539 28.08203 15.31836c11.19048 8.70493 22.56922 27.53709 33.57227 25 12.50868-2.88426 8.11574-16.27842 17.85547-22.14454l-10-8.57031 14.2871-10-10-6.42969 9.28516-8.57031-5.71484-7.85742 20.71484-15.71484c-30.62069 6.33909-56.43171-41.74296-67.85742-65-11.67684-23.76821-26.38976-32.2809-44.28516-30.71289l-32.14258 6.42773 17.97461 105.85938-10.48242-1.28126-110.10547-.5039-7.91797 2.18945 18.04493-106.26367-32.14258-6.42773c-1.11846-.098-2.22472-.15781-3.31836-.17579z" fill="#d3232a" transform="translate(24.857147 122.93362)"/><g fill="#fff"><path d="m206.256 451.43095c-6.23598-1.06068 1.20898-13.52215 6.56599-24.24366-1.83023-9.7105-6.79-17.54327-18.68782-21.21321-6.96161 2.6067-13.23665 3.61138-18.18275 1.51523-8.3669-1.35615-7.08567-4.4665-8.58629-7.07106-.32227-4.19452.65904-7.08546 3.03045-8.5863 11.39721-4.1066 20.56158-3.74751 29.29443-2.52538l10.6066-1.01015c15.47007 2.66357 18.68085 11.74868 20.20305 21.71828-2.63853 14.10905-6.11809 23.59248-10.10152 30.30457-5.64818 11.17698-10.51194 16.07858-14.14214 11.11168z"/><path d="m188.69562 452.28791c-1.85255-6.54887 15.61682-13.34089 16.55023-25.10062 1.21033-6.28993-3.85739-12.15798-9.03536-10.8412-7.00331 1.78099-8.12939 4.50771-13.69308 5.28536-6.67118.93244-14.59578 3.8154-18.68782-6.56599.65178-8.26505 9.12525-10.94317 19.69798-12.12183 12.82906.072 23.61394 3.06421 29.7995 12.6269 3.68097 9.95767 2.64568 17.40892-.50508 25.25382-5.94885 14.8117-22.58044 16.92848-24.12637 11.46356z"/><path d="m174.94127 394.35733c-5.55167-3.79571-12.70788-3.65768-21.2132-3.03046-9.76608.72019-18.29931 1.54307-18.68783 14.14214l-1.01015 8.5863c-5.69319 1.05667-9.13111 4.1475-11.11168 12.12183-1.56287 6.29254-1.27219 16.16244 3.53554 16.16244 7.02894 0 8.07741-7.59664 7.57614-14.14214-.6436-8.40407 4.01176-9.12022 7.07107-12.62691 3.07227-3.6956 5.66343-7.61572 15.65736-8.08122 11.36897-1.36563 15.66274 2.41434 22.22336 4.54569z"/><path d="m178.4768 461.0274c-11.70808-2.64728-15.23042-9.98455-19.19289-17.67767-4.8847-9.48362 1.92245-28.70517 3.28299-39.14341l11.36422 5.3033c-.8409 7.07062.26016 13.0816-2.52538 21.2132-1.19939 3.50128-1.28583 7.07107-5.55584 10.6066 5.9164.62736 9.02785 3.27507 11.61675 7.07107 3.53443 5.18238 2.42835 8.51544 1.01015 12.62691z"/><path d="m156.75852 460.77486c-5.11682 5.56708-14.47043-9.75545-13.88959-13.38452 1.13404-7.08547 3.69141-11.02439 7.82868-14.89975-9.61537 1.40319-12.9904-2.95394-13.8896-9.59645l3.78807-20.70813 25.75889-1.51523c-1.26193 11.77159-2.70814 23.42033-6.9448 33.20876 3.43696 8.29983 9.77676 13.07743 9.72272 26.13771-3.96331.85618-8.658 3.2416-9.09137-3.283z"/><path d="m264.23538 337.57229c-4.3441-.0766-8.2728 1.08147-12.03457 2.79102-8.12722 1.89336-14.38628 4.79856-16.73197 8.57031-29.00696 28.10993-31.01682 26.69316-40.61169 33.57227l17.09882 31.78515 4.55384-3.375 2.572 3.375 12.37949-8.11523c6.56826 7.49765 14.7084 10.81281 23.75413 7.01562 2.91172.4027 5.92962-.72635 10.03479-3.91211 2.85481 13.3957 3.54561 31.85407 11.54011 33.22657 5.01189 6.15637 10.02534 6.90227 15.03723 4.26562 1.88363-.0664 3.7668-.47938 5.65043-1.27148.25313 28.08436 4.31992 71.30421 27.61212 83.89648.001.0007.003.001.004.002.73702.57613 1.49604 1.13708 2.2829 1.67774-12.60245 6.1423-11.80682 14.51266-11.40054 22.5.2861 5.62478 2.02832 10.82753 5.08219 15.18945 1.22308 2.63667 2.69906 4.71978 4.181 6.95313-1.21478 1.95769-2.42561 3.91739-3.62871 5.8789-17.68236 17.7751-21.30774 38.08004-21.30774 58.76367 0 17.50013 25.85566 43.06584 91.80847 43.55079.0328.007.067.0143.0997.0215.24186-.00034.47099-.009.71179-.01.24138.001.47132.009.71378.01.0327-.007.0669-.0143.0997-.0215 65.95243-.48507 91.80846-26.0507 91.80846-43.55079 0-20.68509-3.62612-40.99158-21.31171-58.76757-1.20233-1.96021-2.41075-3.9186-3.62473-5.875 1.47967-2.22994 2.95105-4.31047 4.17302-6.94141 3.05893-4.3643 4.80182-9.5714 5.08817-15.20117.40628-7.98734 1.20391-16.3577-11.39854-22.5.78769-.54123 1.54714-1.10292 2.28489-1.67969.00041-.00032.002.00032.002 0 23.29087-12.59333 27.35702-55.81272 27.61014-83.89648 1.88352.79229 3.7669 1.20487 5.65042 1.27148 5.01223 2.63729 10.025 1.89116 15.03723-4.26562 7.9945-1.3725 8.68532-19.83087 11.54012-33.22657 4.10436 3.18514 7.12361 4.31415 10.03479 3.91211 9.04628 3.7981 17.18554.4824 23.75412-7.01562l12.3815 8.11523 2.57-3.37304 4.55384 3.37304 17.09882-31.78515c-9.59487-6.87911-11.60274-5.46234-40.6097-33.57227-2.34551-3.77146-8.60565-6.67694-16.73196-8.57031-4.69016-2.13159-9.64135-3.40066-15.33032-2.50196-.41455.0655-.79478.1335-1.20426.19922-3.5841-.22125-7.25379-.29097-10.90608-.19922-44.80781 1.12574-48.00186 12.25988-64.83635 19.28711l-19.23619 20h-58.42229l-19.23617-20c-16.83449-7.02723-20.02655-18.16137-64.83437-19.28711-3.65229-.0917-7.32398-.022-10.90807.19922-.40937-.0657-.78984-.13375-1.20426-.19922-1.12574-.17783-2.22198-.27015-3.29375-.28906z"/></g></g><g fill="none" transform="matrix(.96979789 0 0 1.0002174 -820.53474 4.277359)"><path d="m1384.8571 406.79077c-16.3703-16.90476-21.5733-33.80952 0-50.71428"/><path d="m1117.6394 406.79077c16.3703-16.90476 21.5733-33.80952 0-50.71428"/></g><g fill-rule="evenodd"><path d="m304.16433 367.58828-10.6066-37.37565c-7.76644-24.44636 1.81674-42.21978 11.11168-60.10407l11.61675 12.12183c5.89072-17.17443 16.58609-29.54421 27.77919-41.41626l14.64722 17.67767c6.54095-13.10832 17.55159-24.42878 30.80965-34.85026 12.92573 9.08044 24.07798 19.22497 30.30458 32.32488l13.13198-13.13198c10.85998 11.36371 21.95346 22.58732 26.26396 37.88072l8.5863-16.66752c30.163 18.32233 21.03305 49.21841 19.1929 77.78175l-14.64721 50.50763-89.90358 13.63706-62.12438-9.59645z" fill="#d0572b"/><g fill="#fff"><path d="m303.15418 337.78879c19.88013.54175 26.57258 34.99469 37.88072 57.57869l-30.30458 22.22336c6.13261-30.27654-1.14742-52.80275-7.57614-79.80205z"/><path d="m480.68848 337.78879c-19.88013.54175-26.57258 34.99469-37.88072 57.57869l30.30458 22.22336c-6.13261-30.27654 1.14742-52.80275 7.57614-79.80205z"/><path d="m284.51409 375.36135c-1.6056 3.39389-3.95658 6.0961-5.84375 9.22852-1.01708.23029-2.03566.48046-3.05274.77148l1.35157 2.56836c-2.25032 5.60398-2.29685 13.25262 4.6875 27.43164 1.18057 2.53407 2.46454 4.75912 3.83008 6.73829 1.17381 2.4769 2.64463 4.75676 4.41796 6.83398l14.28516 12.14258 6.28711 6.51953 4.75195 30.62305c14.46658 9.90477 8.01894 20.95464 24.85156 22.48437l5.14844 4.6582 47.69532-1.92187 47.69335 1.92187 5.14844-4.6582c14.68007-.32613 13.59353-12.29801 24.85156-22.48437l4.75196-30.62305 6.28711-6.51953 14.28711-12.14258c1.7738-2.07777 3.244-4.35827 4.41797-6.83594 1.365-1.97866 2.64796-4.20313 3.82812-6.73633 6.98365-14.17761 6.93715-21.82586 4.6875-27.42968l1.35156-2.57032c-1.01708-.29102-2.0337-.54119-3.05078-.77148-1.88722-3.1326-4.24003-5.83447-5.8457-9.22852-11.97841 5.05297-21.90358 10.62058-26.51367 17.51563-2.97339.96667-5.66384 1.36441-8.10157 1.25976-3.36716-2.82365-7.5937-4.5739-12.26172-5.77148-.71891-.71472-1.41308-1.4783-2.08398-2.28906-18.79523-.54759-36.70539-2.86524-59.44726 4.48047-22.74241-7.34615-40.6537-5.02806-59.44922-4.48047-.67063.81043-1.36343 1.57459-2.08204 2.28906-4.66874 1.1976-8.89607 2.94746-12.26367 5.77148-2.43746.10463-5.12661-.29333-8.09961-1.25976-4.60993-6.8953-14.53689-12.46252-26.51562-17.51563z"/></g><path d="m553.33118 407.83928 10.92731 4.76714c7.11087-16.8456 19.96416-25.27982 28.43516-32.60443l-15.90957-7.69529c-13.10808 8.60375-21.85811 21.17221-23.4529 35.53258z" fill="#f15c22" stroke-width="1.078235"/></g><g transform="translate(1.780805)"><path d="m405.43211 454.20887c7.15066-.11563 18.43752-2.4529 24.74875-6.31346 5.92731-3.62572 20.29175-2.4638 19.95051-.75761-3.68729 9.86559-9.15019 18.64377-20.96067 19.69797-6.66986.59535-14.17845 1.17051-17.9302-7.57614-1.04681-2.44048-3.58705-3.56682-5.80839-5.05076z" fill="#fff" fill-rule="evenodd"/><path d="m428.19504 448.97268c-2.21066 1.09343-4.80472 2.02628-7.52344 2.79883a6.5659909 10.487348 0 0 0 -1.60156 6.85742 6.5659909 10.487348 0 0 0 2.63867 8.38867c2.44914.24808 5.01226.0371 7.46289-.18164.21015-.0187.40323-.0584.60938-.082a6.5659909 10.487348 0 0 0 2.41992-8.125 6.5659909 10.487348 0 0 0 -4.00586-9.65625z" stroke-linecap="round"/><path d="m376.85262 454.20887c-7.15066-.11563-18.43752-2.4529-24.74875-6.31346-5.92731-3.62572-20.29175-2.4638-19.95051-.75761 3.68729 9.86559 9.15019 18.64377 20.96067 19.69797 6.66986.59535 14.17845 1.17051 17.9302-7.57614 1.04681-2.44048 3.58705-3.56682 5.80839-5.05076z" fill="#fff" fill-rule="evenodd"/><path d="m354.08969 448.97268c2.21066 1.09343 4.80472 2.02628 7.52344 2.79883a6.5659909 10.487348 0 0 1 1.60156 6.85742 6.5659909 10.487348 0 0 1 -2.63867 8.38867c-2.44914.24808-5.01226.0371-7.46289-.18164-.21015-.0187-.40323-.0584-.60938-.082a6.5659909 10.487348 0 0 1 -2.41992-8.125 6.5659909 10.487348 0 0 1 4.00586-9.65625z" stroke-linecap="round"/></g><g fill-rule="evenodd"><g fill="#fff"><g transform="translate(-.776861)"><path d="m288.42858 400.3622c11.23471.77545 21.45525 5.60759 30 17.14286-1.01149 7.94691-1.19047 16.86508-10 15.71428-19.03435-6.11285-14.79801-21.33163-20-32.85714z"/><path d="m498.97148 400.3622c-11.23471.77545-21.45525 5.60759-30 17.14286 1.01149 7.94691 1.19047 16.86508 10 15.71428 19.03435-6.11285 14.79801-21.33163 20-32.85714z"/></g><path d="m588.52227 451.43095c6.23598-1.06068-1.20898-13.52215-6.56599-24.24366 1.83023-9.7105 6.79-17.54327 18.68782-21.21321 6.96161 2.6067 13.23665 3.61138 18.18275 1.51523 8.3669-1.35615 7.08567-4.4665 8.58629-7.07106.32227-4.19452-.65904-7.08546-3.03045-8.5863-11.39721-4.1066-20.56158-3.74751-29.29443-2.52538l-10.6066-1.01015c-15.47007 2.66357-18.68085 11.74868-20.20305 21.71828 2.63853 14.10905 6.11809 23.59248 10.10152 30.30457 5.64818 11.17698 10.51194 16.07858 14.14214 11.11168z"/><path d="m606.08265 452.28791c1.85255-6.54887-15.61682-13.34089-16.55023-25.10062-1.21033-6.28993 3.85739-12.15798 9.03536-10.8412 7.00331 1.78099 8.12939 4.50771 13.69308 5.28536 6.67118.93244 14.59578 3.8154 18.68782-6.56599-.65178-8.26505-9.12525-10.94317-19.69798-12.12183-12.82906.072-23.61394 3.06421-29.7995 12.6269-3.68097 9.95767-2.64568 17.40892.50508 25.25382 5.94885 14.8117 22.58044 16.92848 24.12637 11.46356z"/><path d="m619.837 394.35733c5.55167-3.79571 12.70788-3.65768 21.2132-3.03046 9.76608.72019 18.29931 1.54307 18.68783 14.14214l1.01015 8.5863c5.69319 1.05667 9.13111 4.1475 11.11168 12.12183 1.56287 6.29254 1.27219 16.16244-3.53554 16.16244-7.02894 0-8.07741-7.59664-7.57614-14.14214.6436-8.40407-4.01176-9.12022-7.07107-12.62691-3.07227-3.6956-5.66343-7.61572-15.65736-8.08122-11.36897-1.36563-15.66274 2.41434-22.22336 4.54569z"/><path d="m616.30147 461.0274c11.70808-2.64728 15.23042-9.98455 19.19289-17.67767 4.8847-9.48362-1.92245-28.70517-3.28299-39.14341l-11.36422 5.3033c.8409 7.07062-.26016 13.0816 2.52538 21.2132 1.19939 3.50128 1.28583 7.07107 5.55584 10.6066-5.9164.62736-9.02785 3.27507-11.61675 7.07107-3.53443 5.18238-2.42835 8.51544-1.01015 12.62691z"/><path d="m638.01975 460.77486c5.11682 5.56708 14.47043-9.75545 13.88959-13.38452-1.13404-7.08547-3.69141-11.02439-7.82868-14.89975 9.61537 1.40319 12.9904-2.95394 13.8896-9.59645l-3.78807-20.70813-25.75889-1.51523c1.26193 11.77159 2.70814 23.42033 6.9448 33.20876-3.43696 8.29983-9.77676 13.07743-9.72272 26.13771 3.96331.85618 8.658 3.2416 9.09137-3.283z"/></g><path d="m601.14918 521.63655c-13.13118 3.07357-11.61676 9.68087-11.61676 15.78364 0 12.09312 11.40331 13.13198 14.52095 13.13198 8.04385 0 19.19192-8.6287 19.82424-23.35978.48918-11.39634-2.63369-22.66282-7.57614-33.33503-9.99655 0-12.21966 6.86103-18.18275 3.41824-5.05076 4.59953-10.10153 5.81891-15.15229-1.90301-11.70581 2.03421-3.41863 18.27857-11.61675 20.20305-4.58328 1.07591-7.11632.0576-7.57615-12.12183-.24705-6.54347 3.24112-9.5964 8.08122-13.63706-3.80617-3.65068-9.66192-4.0297-14.64721 4.54568-3.83944 6.60436-.13479 11.48165 1.96429 15.9226-4.8417 4.19984-9.04122.64507-13.07597-9.86168-1.29584-3.37445.19122-6.24746 2.52539-9.09137-5.56688-.81213-6.02267 7.02123-9.59645 5.55583-7.78916-3.19389-3.13762-11.35984 4.04061-16.16244 5.57932-3.73284 10.24657-3.66249 15.15228-3.53553.86248-7.48162 1.21601-16.64522 10.10153-18.68782 10.43411-2.39858 11.64105 6.36003 14.14214 12.12183-5.44257-.37035-11.86702-4.34091-14.64722 5.05076 2.32134 7.30301 5.88822 6.51002 9.09138 8.08122 4.5057-1.29056 9.91882-5.07825 15.15228-1.01015 5.0057 3.89105 6.87875 7.40715 11.11168 5.55584l13.13199-2.02031c-8.3248-25.84193-16.58909-51.72787-17.67767-82.83251l5.55584-2.0203c3.17921 23.02508 6.78373 45.09321 12.6269 62.12438 7.83874-.26929 8.15971 11.99102 9.09137 23.23351 2.75615-3.99686 5.21628-9.70659 10.10153-8.5863 8.85913 2.03159 16.25462 7.43422 19.1929 19.69798 7.00242-9.36736-.64065-14.02518-5.3033-18.68783 1.57302-2.21288.98455-8.01942 9.34391-5.05076 6.82385 2.42336 12.62691 9.23906 12.62691 17.67767 0 10.43563-3.6077 12.93128-12.62691 16.16244l.50508 13.13199c0 5.89245 8.58629 2.87359 8.58629 12.12183 0 3.51985-6.34252 4.04061-11.61675 4.04061-7.97545 0-13.13199-5.22651-13.13199-8.5863 0-5.3808.41294-7.73711 3.03046-9.59645 1.03333 2.75242 1.32407 6.3217 5.55584 5.55584.0485-7.11103.81959-13.98118-1.01015-21.71828-2.7007 4.76877-3.99081 7.07107-10.6066 7.07107-2.40284 0-4.81864 1.08722-5.55584-6.06092 2.01817-2.698 3.49684-6.47502 8.08122-4.04061 1.51488-3.16819 1.55372-6.86066-4.54569-9.09137-2.57526-.94184-6.20336 2.62738-7.07107 7.57614-2.0968 11.95859.043 26.74159.50508 40.4061.3583 10.59579-13.98697 27.7792-27.27412 27.7792-13.5151 0-26.37498-6.87607-27.27412-25.25381-.47762-9.76214 3.65368-27.7792 13.63706-27.7792 3.05679 0 11.42625 1.43641 10.10153 8.08122z" fill="#4fb853"/><path d="m601.40171 406.98424 4.04061-1.51523c3.49106-6.66532 5.50262-14.02106 18.68783-16.16244 8.98463 4.68107 18.83886 2.91597 29.29442 0 9.74377-2.71746 12.84141-12.28037 17.67767-20.20305-4.83175-.17978-7.2156-3.62343-15.65737 1.01015 4.66713-3.20468 2.35346-7.28196 2.02031-11.11167-3.36718-1.09802-6.73435-1.24418-10.10153 1.01015 2.6626-6.77425 1.57527-14.29849 1.01016-21.71828-7.20489 2.33328-14.13607 5.14557-18.68783 12.12183 1.41366-9.16976-.41082-17.26013-7.07106-23.73859-4.11538.30248-5.46795 2.90728-5.55584 6.566-1.7565-9.65168-8.00635-14.06113-13.63706-19.1929-10.23279 5.86972-18.6898 13.87039-22.22336 27.77919 1.47078-8.11734-3.78722-10.11761-9.59645-11.61675-1.52717 0-7.32122 13.14096-3.53553 19.69797 1.64556 2.85019 26.40267 46.32831 29.29442 43.43656l1.51523 12.62691z" fill="#f15c22"/></g><g fill="#d0572b" stroke-linecap="round"><path d="m382.85687 666.07621a10.625 8.5166612 0 0 0 10.48242 7.14258 10.625 8.5166612 0 0 0 10.47461-7.14258z"/><circle cx="342.67639" cy="564.44171" r="7.702413"/><circle cx="441.03998" cy="564.44171" r="7.702413"/></g></g><g transform="translate(.956772 -12.857143)"><path d="m392.23183 562.66056c-8.00399-.39631-11.53141 11.40283-4.61328 15.45898 6.38948 4.81256 15.91446-2.94268 12.50781-10.17187-1.23247-3.16977-4.49334-5.35478-7.89453-5.28711z"/><path d="m404.72988 559.50431c-6.45529-.29715-8.02549 9.87002-1.77539 11.5293 5.89021 2.3213 10.72702-6.49005 5.57812-10.20313-1.05852-.87268-2.43228-1.34752-3.80273-1.32617z"/><path d="m412.81386 555.79923c-6.43362-.18464-5.96035 10.42459.43164 9.67383 6.16324-.54288 5.80913-9.65961-.43164-9.67383z"/><path d="m419.26308 548.11954c-6.45033-.20965-5.99221 10.43409.41602 9.67383 6.14634-.54359 5.80804-9.63375-.41602-9.67383z"/><path d="m423.82168 543.11954c-5.10321-.19805-5.35967 8.13234-.25196 8.24414 5.03016.64023 6.05873-7.56439 1.02149-8.18164-.25378-.0481-.5116-.0648-.76953-.0625z"/><path d="m427.63613 535.44181c-5.08975-.16896-5.31861 8.13314-.22656 8.24414 5.02818.63631 6.05929-7.5632 1.02148-8.18164-.26188-.0469-.52913-.0683-.79492-.0625z"/><path d="m431.46621 528.20939c-5.05564-.12101-4.75403 8.20028.27929 7.71679 4.98898-.32113 4.76677-7.73222-.27929-7.71679z"/><path d="m435.51308 516.24454c-5.07345-.15713-4.80308 8.20116.25 7.7168 4.97139-.31682 4.77859-7.69707-.25-7.7168z"/><path d="m379.20254 559.50431c6.45529-.29715 8.02549 9.87002 1.77539 11.5293-5.89007 2.32113-10.72701-6.48999-5.57813-10.20313 1.05853-.87268 2.43229-1.34752 3.80274-1.32617z"/><path d="m371.11855 555.79923c6.43363-.18464 5.96036 10.42459-.43164 9.67383-6.16325-.54276-5.80909-9.6599.43164-9.67383z"/><path d="m364.66933 548.11954c6.45053-.21001 5.99224 10.43398-.41601 9.67383-6.14658-.54404-5.80784-9.6328.41601-9.67383z"/><path d="m360.11074 543.11954c5.10299-.19814 5.36026 8.13294.25195 8.24414-5.02995.64015-6.05866-7.5642-1.02148-8.18164.25378-.0481.5116-.0648.76953-.0625z"/><path d="m356.29629 535.44181c5.08986-.16893 5.31877 8.13298.22656 8.24414-5.02791.63605-6.05936-7.5632-1.02149-8.18164.26188-.0469.52913-.0683.79493-.0625z"/><path d="m352.46621 528.20939c5.05563-.12151 4.75406 8.20039-.2793 7.71679-4.98874-.32031-4.76632-7.73267.2793-7.71679z"/><path d="m348.41933 516.24454c5.0735-.15698 4.80335 8.20166-.25 7.7168-4.97069-.31634-4.77827-7.69767.25-7.7168z"/><path d="m433.61545 522.12539c-5.07345-.15713-4.80308 8.20116.25 7.7168 4.97139-.31682 4.77859-7.69707-.25-7.7168z"/><path d="m350.40452 522.12539c5.07345-.15713 4.80308 8.20116-.25 7.7168-4.97139-.31682-4.77859-7.69707.25-7.7168z"/></g><g fill="#fff200" transform="translate(.956772 -12.857143)"><circle cx="392.30014" cy="571.13409" r="6.439723"/><circle cx="404.80078" cy="565.4519" r="3.914341"/><circle cx="412.89288" cy="560.67603" r="2.842913"/><circle cx="419.32144" cy="552.99744" r="2.842913"/><circle cx="423.875" cy="547.28314" r="2.128627"/><circle cx="427.71429" cy="539.60455" r="2.128627"/><circle cx="431.55359" cy="532.10455" r="1.86077"/><circle cx="435.57144" cy="520.14026" r="1.86077"/><g transform="scale(-1 1)"><circle cx="-379.13202" cy="565.4519" r="3.914341"/><circle cx="-371.03992" cy="560.67603" r="2.842913"/><circle cx="-364.61136" cy="552.99744" r="2.842913"/><circle cx="-360.0578" cy="547.28314" r="2.128627"/><circle cx="-356.21851" cy="539.60455" r="2.128627"/><circle cx="-352.37921" cy="532.10455" r="1.86077"/><circle cx="-348.36136" cy="520.14026" r="1.86077"/></g></g><ellipse cx="361.74304" cy="496.88782" rx="7.071068" ry="6.692261"/><g fill="#d0572b" fill-rule="evenodd" stroke="#000" transform="translate(.30736)"><path d="m365.5311 508.7571c-5.55624-4.76431-11.59476-12.40205-19.44544-12.62691-8.57563-.24563-22.22335-6.7982-22.22336-19.95051v-7.32361c2.12702-2.00977 1.42683-5.47236 1.51523-10.6066-.00041-11.35893-7.25845-16.74098-18.68782-18.68782 1.75914 15.23647 1.55834 30.46686 6.31345 45.7094 2.62007 8.39866 4.62414 16.41624 15.40483 19.95051 11.81866 3.87455 24.36183 3.90466 37.12311 3.53554z"/><path d="m419.70052 508.7571c5.55624-4.76431 11.59476-12.40205 19.44544-12.62691 8.57563-.24563 22.22335-6.7982 22.22336-19.95051v-7.32361c-2.12702-2.00977-1.42683-5.47236-1.51523-10.6066.00041-11.35893 7.25845-16.74098 18.68782-18.68782-1.75914 15.23647-1.55834 30.46686-6.31345 45.7094-2.62007 8.39866-4.62414 16.41624-15.40483 19.95051-11.81866 3.87455-24.36183 3.90466-37.12311 3.53554z"/></g><g fill="#fff"><circle cx="391.4794" cy="333.68503" r="3.598668"/><circle cx="391.28998" cy="348.2691" r="3.598668"/><g stroke="#000"><path d="m377.00571 360.20438h28.67301l-14.33645 8.60191z"/><path d="m377.00571 301.41956h28.67301l-14.33645 8.60191z"/><path d="m377.0058 315.74591h28.673038v5.734608h-28.673038z"/><path d="m391.34225 326.4913c-7.91784 0-14.33691 6.4191-14.33691 14.3369 0 5.66792 3.29756 10.55346 8.07122 12.88034-1.23405-1.44109-1.98495-3.30905-1.98495-5.35528 0-4.55526 3.69532-8.24595 8.25064-8.24239 3.76097 0 6.80905-3.04949 6.80905-6.81048 0-3.76097-3.04808-6.80909-6.80905-6.80909zm6.24652 1.44696c1.23801 1.44217 1.99041 3.31389 1.99041 5.36352 0 4.55021-3.68672 8.2388-8.23693 8.24236v.00092c0-.00001-.0116-.00092-.0151-.00092-3.76097 0-6.80904 3.04813-6.80904 6.80912 0 3.76097 3.04807 6.81045 6.80904 6.81045 0 0 .0116-.00091.0151-.00091v.002c7.91784 0 14.33692-6.41911 14.33692-14.33689 0-5.67536-3.30651-10.56661-8.0904-12.88994zm-6.24652 2.42303c1.58359 0 2.86658 1.28436 2.86658 2.86793 0 1.58356-1.28299 2.86655-2.86658 2.86656-1.58359 0-2.86796-1.283-2.86796-2.86656 0-1.58357 1.28437-2.86793 2.86796-2.86793zm0 15.19659c1.58359 0 2.86658 1.28437 2.86658 2.86793s-1.28299 2.86793-2.86658 2.86793-2.86796-1.28437-2.86796-2.86793 1.28437-2.86793 2.86796-2.86793z"/><path d="m379.50955 286.50511c0 .069-.009.13733-.009.20661 0 6.53997 5.30175 11.84165 11.8417 11.84165 6.53997 0 11.84163-5.30168 11.84163-11.84165 0-.0692 0-.13762-.009-.20661-1.99577 4.55679-6.54328 7.74127-11.83647 7.74127s-9.84062-3.18448-11.83648-7.74127z"/><path d="m399.95434 283.48192c0 4.75634-3.85576 8.61212-8.61216 8.61212-4.75632 0-8.61209-3.85578-8.61209-8.61212s3.85577-8.6121 8.61209-8.6121c4.7564 0 8.61216 3.85576 8.61216 8.6121z"/><path d="m390.97982 248.14482c-2.83335 1.58232-.7094 4.12957-.91773 5.48672-.22493 1.46446-1.17227 1.76057-1.60071 2.9569-.54347 1.5174-.27566 3.08933.12836 3.71256.36684.5661.63647 1.06043.76842 1.49488.0151.034.0347.0651.0423.0986v.0328c.001.005-.00092.0123 0 .0164 0 .0116.0181.0214.0212.0328 0 .0229.0152.0424.0212.0657.001.006-.001.0105 0 .0164.001.007-.0009.009 0 .0164.001.005-.001.0117 0 .0164.0166.0779.0423.14828.0423.22998.00075.79224-.84889 1.44562-1.87819 1.44562-1.02913 0-1.85749-.65338-1.85673-1.44562 0-.0123-.0003-.0205 0-.0328.00045-.0123-.00076-.0206 0-.0328.0009-.0135.0196-.0195.021-.0328.00031-.004-.00044-.0128 0-.0164.00061-.008-.00073-.0252 0-.0328.00077-.005-.00088-.0104 0-.0164.00092-.008-.001-.009 0-.0164 0-.012 0-.021 0-.0328 0-.0228.0166-.0433.0212-.0658.001-.006 0-.0105 0-.0164.00091-.004-.00091-.0128 0-.0164.001-.005 0-.0118 0-.0164 0-.007.0196-.009.0211-.0164 0-.006 0-.0104 0-.0164 0-.0149.0166-.0346.0212-.0492.001-.004-.001-.013 0-.0164 0-.0116.0166-.0218.0212-.0328 0-.0117 0-.0382 0-.0492.29771-.742 1.17679-1.40999 1.17377-2.38194 0-1.28597-1.13272-1.93176-1.38724-2.33267-.17935-.28266-.47359-1.07532-.0422-1.87271-.78728.7457-1.6697 1.31619-1.66472 2.13554 0 .61208.44733 1.22748.40549 2.11911-.0483 1.03455-2.2251 1.69707-2.30495 4.28752 0 3.95893 4.16171 7.1623 9.30515 7.1623 5.14331 0 9.30516-3.20337 9.30516-7.1623-.0799-2.59045-2.25636-3.25297-2.30497-4.28752-.0423-.89163.40172-1.50703.40551-2.11911 0-.81935-.87744-1.38984-1.66473-2.13554.43103.79739.13739 1.59005-.0423 1.87271-.25453.40091-1.38317 1.0467-1.38723 2.33267 0 .97195.87621 1.63994 1.17393 2.38194v.0164c.001.004-.001.0128 0 .0164v.0164c0 .0116.0181.0217.0212.0328.0151.0222.0151.0435.0211.0658.0151.0285.0151.053.0212.0822 0 .015.0181.0341.021.0492v.0822c.001.0152-.00061.0339 0 .0492.001.0134.0212.0193.0212.0328.00014.004 0 .0125 0 .0164.0003.006-.00016.0105 0 .0164.00044.0123.00014.0205 0 .0328.00075.79223-.82745 1.4456-1.85676 1.4456-.80402 0-1.48912-.40343-1.75001-.95278 0-.005 0-.0119 0-.0164-.0694-.1501-.12836-.30806-.12836-.4764-.00016-.0866.024-.16398.0423-.2464 0-.0117 0-.0212 0-.0328 0-.0188.0151-.0309.0211-.0492 0-.0146.0181-.0347.0212-.0492 0-.0116 0-.038 0-.0492 0-.0145.0166-.0183.0211-.0328 0-.0166.0151-.0328.0212-.0492.001-.005-.001-.0116 0-.0164.17784-.51382.55769-.98401.7257-1.33061.30224-.62384.9283-1.64933.91774-2.95691-.0152-.98759-.30842-3.19849-1.87819-4.91176-1.25574-1.37054-2.06855-1.95851-2.49697-2.84191-.21846-.45036-.0453-1.03149.38419-1.60987z"/><path d="m359.69571 327.57648h12.33766v42.435051h-12.33766z"/><path d="m410.11688 327.57648h12.33766v42.435051h-12.33766z"/></g></g><path d="m68.214844 549.6582c-16.925922 9.47487-29.642578 27.82501-29.642578 49.19922 0 20.21149 6.157977 34.34308 14.642578 41.78516 13.56215 11.89574 21.661695 15.51177 33.570312 13.57226l.357422 6.42774.394531.2539-.0332.19336 16.037111 12.87891c-.27591 11.10492-3.16662 22.50154 8.08007 32.32617 22.13181 3.17031 25.15466-.79076 25.00196-5.93554-5.76545-5.89257-6.18161-6.35549-6.3125-12.24805 12.25429 7.3789 20.30654 2.62175 29.79883 2.02148-5.59532-2.21883-10.39705-7.21316-14.64649-14.14258l2.52539-12.62695c11.30092-8.29839 5.56787-15.23541.50391-22.22461-.0722-4.93046.65026-10.25698-6.56641-11.61523-5.30025-.0882-10.92961-.87729-13.63672 4.54492l-2.21289-.79297c-3.27739-4.78146-5.48243-9.81445-15.96875-9.81445-9.23554 0-15.75264 9.09179-26.26562 9.09179-16.533569 0-21.212891-19.46795-21.212891-32.32421 0-7.68946 1.943842-14.84121 5.585938-20.53711v-30.03321z" fill="#008dce" fill-rule="evenodd" stroke="#000" transform="translate(24.857147 122.93362)"/><path d="m152.71429 823.93362c-.16452-4.23905-2.7312-7.41047-11.42857-7.85714-5.35985-6.30952-6.76258-12.61905-6.42857-18.92857-.28844-5.38844-2.41992-16.24351-9.64286-16.42858l-2.14286 10.71429c5.75586 3.52703 8.37041 14.90732 10.35715 27.85714 6.42857 10.67712 12.85714 6.7871 19.28571 4.64286z" fill="#d3232a" fill-rule="evenodd"/><g fill="#fff"><circle cx="126.82143" cy="770.54071" r="4.464286"/><circle cx="140.03571" cy="760.18359" r="5.535714"/><circle cx="163.07143" cy="760.36218" r="5.535714"/><g fill-rule="evenodd"><path d="m140.21429 783.93362 20 .35714c-1.53489-3.8651 1.27263-11.07052-11.78571-6.07143.86372-4.87841-1.02236-7.83196-9.64286-6.07142z"/><path d="m163.75313 803.4691c-7.05353 5.9817-23.3043-11.615-18.18275-14.64721 6.14394-1.28657 10.95663-1.55511 9.09138 3.283 5.69936-2.10026 5.80837 2.12427 5.80837 6.31345 2.46179-1.07752 4.48096-1.15913 5.05077 2.0203z"/><path d="m156.51617 787.35981c7.05353-5.9817 23.3043 11.615 18.18275 14.64721-6.14394 1.28657-10.95663 1.55511-9.09138-3.283-5.69936 2.10026-5.80837-2.12427-5.80837-6.31345-2.46179 1.07752-4.48096 1.15913-5.05077-2.0203z"/><path d="m169.5615 781.75082c1.97061-3.58523 4.07977-7.03191 2.77792-13.88959-7.35905-1.4665-11.11437.67073-14.14213 3.53553.79145 3.67335 5.32337 2.11006 9.34391 1.26269-.26189 2.85508-2.68925 5.30414 2.0203 9.09137z"/><path d="m70.56655 726.69751c9.47149 21.63221 20.735976 37.93647 42.17387 44.19417-10.46623-3.57503-21.068475-2.20344-30.809654-12.37437-9.450567-9.8675-8.671676-21.2132-11.364216-31.8198z"/></g></g><circle cx="162.6167" cy="759.65375" r="2.65165"/><circle cx="139.00438" cy="760.03253" r="2.65165"/><circle cx="126.37748" cy="770.3866" r="2.65165"/><ellipse cx="422.35217" cy="497.01407" rx="7.071068" ry="6.692261"/><ellipse cx="378.06082" cy="482.87448" rx="7.428211" ry="7.030271"/><ellipse cx="403.78574" cy="481.96933" rx="7.428211" ry="7.030271"/><g stroke="#000"><path d="m390.82259 462.29104c-18.09016 6.39763-25.75977 15.11252-25.75977 19.19141 0 6.37639 7.11167 10.11523 10.10156 10.11523 5.04891 0 6.74091-1.76674 8.94336-3.71484-8.04763 1.70201-10.32226-2.56348-10.32226-4.8418 0-2.74101.80209-5.59961 4.91601-5.59961 4.36998 0 7.82813 5.69989 7.82813 9.0918 0 3.92011-4.13152 8.33398-7.07032 8.33398-4.74362 0-8.78829-1.10524-11.87109-4.04101-3.93497-3.7473-7.65892-6.81836-11.86914-6.81836-4.04119 0-3.2832 6.09071-3.2832 10.85937 0 7.71685 4.82932 12.62696 10.85937 12.62696 1.84337 0 2.46511-3.32491 1.26367-5.9336-3.7106 4.06458-6.81836-1.48997-6.81835-5.55664 0-1.62826 1.4236-4.29297 3.2832-4.29297 5.02024 0 6.07079 3.44901 5.80859 5.9336 0 0-.34542 11.39104 0 16.66797.83802 12.80213 10.49389 22.3535 21.46485 30.55664.25645.19175.52447.37675.79492.55664 1.34041 1.08238 2.61818 1.46897 3.82031 1.43164 1.21412.0433 2.50619-.34573 3.86133-1.44531.26371-.17603.52499-.35575.77539-.54297 10.97096-8.20314 20.62878-17.75451 21.4668-30.55664.34542-5.27693 0-16.66797 0-16.66797-.2622-2.48459.78835-5.9336 5.80859-5.9336 1.8596 0 3.2832 2.66471 3.2832 4.29297 0 4.06667-3.10971 9.62122-6.82031 5.55664-1.20144 2.60869-.5797 5.9336 1.26367 5.9336 6.03005 0 10.85938-4.91011 10.85938-12.62696 0-4.76866.75798-10.85937-3.28321-10.85937-4.21022 0-7.93417 3.07106-11.86914 6.81836-3.0828 2.93577-7.12552 4.04101-11.86914 4.04101-2.93879 0-7.07226-4.41387-7.07226-8.33398 0-3.39191 3.46011-9.0918 7.83007-9.0918 4.11393 0 4.91407 2.8586 4.91407 5.59961 0 2.27832-2.27464 6.54381-10.32227 4.8418 2.20245 1.9481 3.89445 3.71484 8.94336 3.71484 2.98989 0 10.10156-3.73884 10.10156-10.11523 0-4.07889-7.6696-12.79378-25.75976-19.19141-1.01485-.27193-2.93141-.34023-4.20117 0z" fill="#fff" fill-rule="evenodd"/><path d="m392.92317 547.17638v-53.10135" fill="none"/><g fill="none" transform="translate(-860.29528 -4.04061)"><path d="m1243.1011 414.56038c-16.4422-.46695-11.1071 17.93984-8.0813 34.34519"/><path d="m1264.9479 414.56038c16.4422-.46695 11.1071 17.93984 8.0813 34.34519"/><path d="m1233.0714 435.00506h41.7857"/><path d="m1241.1486 447.1378h23.603"/><path d="m1242.6638 452.18856h23.603"/><path d="m1241.9062 456.73425h23.603"/><path d="m1241.6536 460.52232h23.603" stroke-width="3"/></g><g fill="#fff" fill-rule="evenodd" transform="translate(-860.29528 -4.04061)"><path d="m1240.0706 469.6137c-.99-4.71405.9373-9.42809-6.566-14.14214-2.662-1.72109-4.3901 3.7182-6.0609 9.59645.067-5.93942-5.6242-18.58031 10.1015-20.70813 7.8829-1.56806 6.0402 7.03154 7.0711 12.62691.089 5.21186-1.9649 9.08394-4.5457 12.62691z"/><path d="m1266.3663 469.6137c.99-4.71405-.9373-9.42809 6.566-14.14214 2.662-1.72109 4.3901 3.7182 6.0609 9.59645-.067-5.93942 5.6242-18.58031-10.1015-20.70813-7.8829-1.56806-6.0402 7.03154-7.0711 12.62691-.089 5.21186 1.9649 9.08394 4.5457 12.62691z"/></g><g fill="#d0572b" fill-rule="evenodd" transform="translate(1.78824)"><path d="m363.51079 451.68348 8.83884-6.06092c2.56246-4.75542 1.88305-9.04771-.25254-13.13198l-3.78807-1.51523-4.79823 5.80838-2.52538-11.61676c-1.5547-3.21454-3.32958-5.108-5.55584-4.29314l-2.77792 7.3236-4.54569-12.62691c-1.89757-7.0569-5.41678-7.62729-8.58629-9.59644l-1.26269 14.89975-7.07107-6.06092v15.65736c1.71466 6.81034 4.37313 12.51957 10.10153 14.64722 5.16273.63094 9.87709.58932 12.37436-2.77792l5.3033 5.55584z"/><path d="m418.75907 451.68348-8.83884-6.06092c-2.56246-4.75542-1.88305-9.04771.25254-13.13198l3.78807-1.51523 4.79823 5.80838 2.52538-11.61676c1.5547-3.21454 3.32958-5.108 5.55584-4.29314l2.77792 7.3236 4.54569-12.62691c1.89757-7.0569 5.41678-7.62729 8.58629-9.59644l1.26269 14.89975 7.07107-6.06092v15.65736c-1.71466 6.81034-4.37313 12.51957-10.10153 14.64722-5.16273.63094-9.87709.58932-12.37436-2.77792l-5.3033 5.55584z"/></g><g fill="none"><g transform="translate(3.78031 -11.071429)"><path d="m337.40686 415.87194c-13.2385-5.11905 5.2746-10.23809 12.8572-15.35714"/><path d="m440.87886 415.87194c13.2385-5.11905-5.2746-10.23809-12.8572-15.35714"/></g><g transform="translate(-857.61341 .600613)"><path d="m1500.5714 384.29077c-.1303-4.64286 1.3618-9.28571 7.8571-13.92857"/><path d="m1477.7142 372.8622c9.9007.25789 19.3723.0866 12.5-16.42857 1.5609-4.37822 3.4773-8.04539 7.8572-6.78572"/><path d="m1463.4285 385.71934c-.6335-16.08897 1.9819-30.68885 23.9286-36.42857"/><path d="m1477.1696 353.36913c-.8443-7.14286-4.5663-15.86407-10.1696-23.00693"/><path d="m1464.0535 372.10327c1.9074-3.97183-17.6198-27.53363-18.4821-26.38393"/></g><g transform="translate(5.20888 -1.515229)"><path d="m359.14284 668.04265c19.7783 0 19.0622-10.71428 29.2857-10.71428 10.3604 0 7.1812 10.71428 29.2857 10.71428"/><path d="m323.42854 605.54266c0 10.94742 20.4485 9.82143 32.1429 9.82143 9.8928 0 11.2093-17.26236 32.1429-16.96429 20.4637.29138 22.2937 16.96429 32.1428 16.96429 11.2033 0 32.1429.27443 32.1429-9.82143"/></g><g transform="translate(-858.08566 6.35927)"><path d="m1377.7142 578.21934-35-24.28571 20.7143 45-16.4285-7.85714 17.8571 52.85714h-12.8571l.7142 22.14286-8.5714-2.14286-2.1428 26.42857-13.5715-15.71429-10.7143 31.42858-7.1428-22.85715-9.2857 18.57143-10.7143-12.85714-10.7143 22.85714-13.5714-14.28571-15.7143 20-10.7143-17.85715-12.8571 15.71429-10-22.85714-12.8572 15-10.7143-26.42857-17.1428 10-3.5715-28.57143-16.4285 10.71428 1.4285-45.71428-15.7142 5.71428 12.1428-30-12.1428 2.14286 16.4285-30.71429-10 1.42858"/><path d="m1125.5714 608.93363-12.1429 26.42857 12.1429-7.85714-7.1429 39.28571 18.5715-9.28571-2.8572 32.14285 13.5714-15"/><path d="m1366.2857 666.07649 9.2857 20.71428-2.1429-47.14286 16.4286 10.71429-12.8571-37.14286 16.4285 5.71429-16.4285-24.28572"/></g></g><g fill="#fff200"><path d="m175.64971 550.37767c-3.85266 0-3.58988 3.82865-3.60828 6.25782 0 .30669.0145.60534.0363.89992.38452 8.66913 7.20362 11.08287 13.41728 15.66705.1428-.10239.29063-.19959.43438-.30113.14336.10127.29023.19902.43265.30113 6.21366-4.58418 13.03277-6.99792 13.41728-15.66705.0219-.29458.0363-.59323.0363-.89992-.0184-2.42917.24437-6.25782-3.60829-6.25782h-.86702-18.82365-.86703z" fill-rule="evenodd"/><g stroke-linecap="round"><path d="m172.17857 541.96936h27.5v5.178571h-27.5z"/><path d="m195.57143 538.30865h4.107143v5.178571h-4.107143z"/><path d="m172.17857 538.30865h4.107143v5.178571h-4.107143z"/><path d="m154.82227 340.64258v38.92969h-9.10743v-7.94141h-14.67382v-7.55078h14.67382v-9.04102h-38.38672v9.04102h18.7129v7.55078h-18.7129v5 15.96094h5 18.73829v-5h-18.73829v-10.96094h28.38672v22.57617h-33.38672v9.04102h38.38672v-9.04102-.70703h9.10743v17.5h12.5v-17.5h10.62695v13.57031h9.04101 15.77344v.002h5v-57.03321h-32.66992v9.04102h8.95703v8.89062h-8.95703v6.60157h-7.77148v-38.92969h-12.5zm38.26953 23.4375h9.67187v38.95117h-15.77344v-23.17773h6.10157z" transform="translate(24.857147 122.93362)"/><path d="m179.67853 344.41422h12.5v95.055115h-12.5z"/><ellipse cx="186.28572" cy="392.50507" rx="21.844587" ry="16.601887"/></g><g fill-rule="evenodd"><path d="m219.50001 364.29077c-4.76191.33854-9.52381-.0447-14.28572 3.92857-5.40645 5.02806-5.16302 9.11448-5 13.21429l6.78572 7.14286c5.72534-1.81066 11.35784-3.74511 14.28571-9.28572 1.76251-5 1.2136-10-1.78571-15z"/><path d="m205.79124 354.8551c-4.35712 1.95087-8.96173 3.22372-12.07251 8.58895-3.35455 6.57709-1.72465 10.33229-.1657 14.12764l8.82359 4.38299c4.75736-3.6641 9.38506-7.41264 10.23555-13.6213-.0588-5.30123-2.28897-9.80987-6.82093-13.47828z"/><path d="m156.57662 363.69879c4.76191.33854 9.52381-.0447 14.28572 3.92857 5.40645 5.02806 5.16302 9.11448 5 13.21429l-6.78572 7.14286c-5.72534-1.81066-11.35784-3.74511-14.28571-9.28572-1.76251-5-1.2136-10 1.78571-15z"/><path d="m170.28539 354.26312c4.35712 1.95087 8.96173 3.22372 12.07251 8.58895 3.35455 6.57709 1.72465 10.33229.1657 14.12764l-8.82359 4.38299c-4.75736-3.6641-9.38506-7.41264-10.23555-13.6213.0588-5.30123 2.28897-9.80987 6.82093-13.47828z"/></g><path d="m183.71913 306.92877h4.41878v168.79625h-4.41878z" stroke-linecap="round"/><path d="m151.75909 385.79432c-2.99471-.28938-5.98941.0382-8.98412-3.35807-3.40005-4.2979-3.24696-7.7909-3.14444-11.29535l4.26746-6.10559c3.6006 1.54772 7.14281 3.20126 8.98411 7.93727 1.10843 4.27392.76323 8.54783-1.12301 12.82174z" fill-rule="evenodd"/><g stroke-linecap="round"><path d="m138.78572 348.21933h18.392857v22.142857h-18.392857z"/><circle cx="158.78572" cy="356.43362" r="5.714286"/><circle cx="155.92857" cy="347.86221" r="5.714286"/></g><path d="m152.89399 343.8497c-1.77435-10.34254-5.30331-15.95483-5.30331-31.06219 0-10.90121 9.95725-17.42513 20.96067-17.42513h16.92005v16.66752l-16.92005-.25254c-4.36609-.0652-6.86768 3.44723-6.81853 7.57614l.25254 21.21321-5.05076 6.06091z" fill-rule="evenodd"/><circle cx="-213.56297" cy="356.43362" r="5.714286" stroke-linecap="round" transform="scale(-1 1)"/><circle cx="-216.42012" cy="347.86221" r="5.714286" stroke-linecap="round" transform="scale(-1 1)"/><path d="m219.45471 343.8497c1.77435-10.34254 5.30331-15.95483 5.30331-31.06219 0-10.90121-9.95725-17.42513-20.96067-17.42513h-16.92005v16.66752l16.92005-.25254c4.36609-.0652 6.86768 3.44723 6.81853 7.57614l-.25254 21.21321 5.05076 6.06091z" fill-rule="evenodd"/><path d="m185.92852 276.79104c-4.7619 5.65674-9.34552 10.67663-14.10742 14.46485 6.739 15.38609 9.16997 30.30831 13.27148 45.63476.26476 1.04036.54216 2.07905.83594 3.11524.29487-1.04003.57225-2.08274.83789-3.12696 4.09977-15.32277 6.53207-30.24046 13.26953-45.62304-4.7619-3.78822-9.34552-8.80811-14.10742-14.46485z" fill-rule="evenodd"/><ellipse cx="186.28572" cy="395.62" rx="16.036211" ry="12.18752" stroke-linecap="round"/></g><path d="m185.92852 330.14v-42.42641" fill="none"/></g></g></svg>