<svg height="1500" viewBox="0 0 1500 1500" width="1500" xmlns="http://www.w3.org/2000/svg"><path d="m0 0h1500v1500h-1500z" fill="#c8102e"/><g transform="matrix(6.6944462 0 0 6.6944462 -154.40061 -20.309415)"><g fill-rule="evenodd"><g fill="#ffd100" stroke-miterlimit="3.86"><path d="m134.13721 56.868752c-10.48402.06216-24.11653.93346-39.863276 2.09375a58.159378 58.159378 0 0 0 -.0098-.05078c-.379524.110306-.730258.229952-1.046875.361328-5.13842 7.10676-.290015 21.859331 9.365241 28.365231 13.92344 9.38589 37.02612 9.0956 38.58007 23.164069.55943 4.95194-10.5258 16.86472-32.86132 17.00976 1.24316 1.51251 11.91228 3.37666 17.15429 4.74414-3.70877-.1036-23.55671-1.09738-33.398437-.45508 1.802593 2.34129-2.340853 7.35578-4.53711 8.95118a19.310488 19.310488 0 0 0 8.390625-6.33985c1.118849 4.06101-1.160657 6.54721-3.501953 8.61914a9.6138053 9.6138053 0 0 0 7.292969-6.83789c.745896 3.10791.000982 9.09588-6.214844 14.33789a18.647467 18.647467 0 0 0 9.50977-8.12304 8.2877631 8.2877631 0 0 1 12.82617-1.24219c8.28777 9.09583 2.21667 38.31072-51.79883 41.0664 6.340136 5.22129 31.140567 12.94822 54.57422 3.29297-6.07079 7.43827-19.290422 14.04947-34.457033 18.19336 15.995383 6.34014 42.474623.58008 57.869143-11.85156-.5387 5.24202-11.0222 21.21679-22.04492 26.18945 26.16861 1.36747 42.70236-15.16763 47.6543-34.99609 2.75568 9.90387.26982 21.75574-3.58399 30.85156 24.26243-10.09035 25.94166-39.55347 25.63087-51.52929 3.02503 6.87885 8.82515 13.86035 4.14257 32.50781 20.13926-22.87423 11.85287-49.60086 7.70899-61.43164 6.87884 10.4633 10.46336 15.51853 11.85156 34.16601 7.43826-35.05725-4.41312-56.7722-14.06836-70.281249a39.366875 39.366875 0 0 1 10.40039 11.541019c-3.23224-15.995379-19.20655-31.700223-22.79101-36.382813-5.49064-7.21035-4.3924-11.97581-6.60938-12.43164-1.99746-.415487-4.11861-.772643-6.28516-1.103516a63.960813 63.960813 0 0 0 -.0547.275391c-15.72604-1.24316-29.34019-2.673829-39.82422-2.673829z" stroke-width="2.072"/><path d="m129.04078 111.00883a4.724025 4.724025 0 0 1 .47655 3.56374c-14.50358 4.55827-26.64516 5.32488-46.494352 4.91049-15.435954-.3315-31.555652 4.95194-35.554502 9.4895.55942-15.56028 19.289761-19.82848 42.992775-14.87654a75.087134 75.087134 0 0 0 38.579529-3.08719z" stroke="#ffd100" stroke-width=".124317"/><path d="m84.949889 70.97894c4.143877 1.24316 4.86905 7.72833-1.657553 4.82761-6.526616-2.90071-3.54302-11.76862-3.54302-11.76862-14.37927.33152-27.08026 2.07195-32.28084 9.821-6.2987 9.38589-4.66187 32.07364 4.061 42.43335-1.38819-4.68259-1.09813-13.36402 5.22129-15.72603 2.92143-1.05669 16.865602-.31079 23.993082 1.11885 9.634517 1.9269 22.045442 4.95193 22.791342-2.75569 14.33783 1.36749 26.10646 6.07079 26.74876 13.77841.80806 10.19395-22.79136 11.02273-25.25696 11.06416-21.403143.22792-41.998234-4.30964-42.536944 8.28776 7.976978 1.53324 18.315955-1.51251 26.93523-1.3882 8.619275.12432 19.082574-.12431 27.287464.68375-2.67281-.68375-9.77957-1.92691-12.82532-4.2682 21.11308.70446 35.40947-9.09582 32.65379-17.36286-4.20604-13.03251-25.13264-11.60287-37.543571-22.43912-8.142724-7.0446-9.696681-20.9266-8.805745-26.16861a13.861284 13.861284 0 0 0 -5.387045-.70446 6.3401389 6.3401389 0 0 0 -4.599704 3.10791 7.4382675 7.4382675 0 0 0 4.744744 7.45899z" stroke="#c8102e" stroke-width="1.16029"/></g><path d="m106.95389 66.33779c0 1.4918 1.13957 11.87222 11.4164 12.43164 12.90819.72518 13.882-12.16229 13.882-12.16229s-2.61064-3.21151-11.43711-3.46014c-10.33898-.29007-13.86129 1.69899-13.86129 3.19079z" fill="#c8102e" stroke-width="2.07194"/></g><path d="m111.61576 70.70958a7.7490589 7.7490589 0 1 1 7.70762 6.89956 7.3346705 7.3346705 0 0 1 -7.70762-6.89956z" fill="#ffd100" stroke="#ffd100" stroke-miterlimit="3.86" stroke-width=".186475"/><path d="m116.09115 70.91678a2.8178395 2.8178395 0 1 0 2.81784-2.79712 2.8178395 2.8178395 0 0 0 -2.81784 2.79712z" fill="#c8102e" stroke="#c8102e" stroke-miterlimit="3.86" stroke-width="1.34676"/><path d="m145.36768 69.63218c-7.08604-.43511-12.43165-4.01957-22.79135-7.33468-8.28776-2.71424-14.87653-1.84402-17.11423-.18647a3.0043141 3.0043141 0 0 0 -.20719 5.13841 7.1481958 7.1481958 0 0 1 -9.261576-3.04575c0 3.39798 3.397981 7.16891 10.193936 5.28345 2.92144-.80806 8.82648-3.19079 13.0118-2.90072 10.38042.72518 17.27998 5.07625 26.16861 3.04576z" fill="#c8102e" fill-rule="evenodd" stroke-width="2.07194"/><path d="m133.93056 24.816092c.22792-4.55827-16.57552-9.012939-15.95394 2.983598.33151 5.884311 9.77956 8.577835 12.68028 2.382731-.7459 9.551648-4.14388 10.960568-8.78503 11.727186-5.84287.973813-10.6705-2.962876-10.91913-5.697837a4.2474787 4.2474787 0 1 0 -2.07194.538704s.45583 6.858124-7.60402 7.293232c-7.417548.414388-10.3597-3.563738-11.105608-6.920282 4.578995.290071 9.862438-3.812371 6.215826-10.007474a6.443736 6.443736 0 0 0 -11.76862.227912c1.263877-5.055537-6.070788-9.344449-10.587628-5.138412-7.666176 7.127476 1.035974 16.1197 6.547337 13.115385a18.937539 18.937539 0 0 0 -2.527768-5.055535c4.143877 2.382731 10.069637 14.772938 14.690063 26.41724 17.300708-1.367476 29.462998-2.071936 41.003708-2.071936s23.703.766619 41.00372 2.071936c4.62043-11.644302 10.6705-24.034509 14.8351-26.41724a18.937539 18.937539 0 0 0 -2.52777 5.055535c5.67712 2.589926 14.06848-6.381577 6.56805-13.115385-4.59971-4.143881-11.8515 0-10.58762 5.138412a6.443736 6.443736 0 0 0 -11.7479-.145035c-3.60518 6.215822 1.67827 10.359704 6.21582 10.007474-.66302 3.356544-3.66734 7.334671-11.1056 6.920282-8.03914-.435107-7.60404-7.293231-7.60404-7.293231a4.2681981 4.2681981 0 1 0 -2.07194-.538704c-.45582 2.07194-3.10791 6.982439-10.64977 5.822152-5.0141-.766617-8.28777-2.299853-9.0751-11.8515 2.92143 6.215822 12.43164 3.501579 12.68027-2.382733.7459-12.079414-15.97466-7.624745-15.74675-3.066475z" fill="#ffd100" fill-rule="evenodd" stroke-width="2.07194"/><ellipse cx="133.93056" cy="19.159706" fill="#c8102e" rx="7.914814" ry="9.77956" stroke="#c8102e" stroke-miterlimit="3.86" stroke-width=".145036"/><g stroke-width="2.07194"><path d="m126.63733 18.434521c0-4.68259 3.25295-8.4949641 7.27252-8.4949641 4.01956 0 7.27251 3.8123741 7.27251 8.4949641 0 4.682583-3.25295 8.515674-7.27251 8.515674-4.01957 0-7.27252-3.895247-7.27252-8.515674z" fill="#ffd100"/><path d="m164.42954 63.9965s4.14388-6.52662 10.35971-7.29324c6.21582-.76661 35.09868-3.252943 40.34068-6.215819a48.628452 48.628452 0 0 0 7.66619-5.159131 33.979829 33.979829 0 0 1 -2.29985 16.20258c-3.43943 8.14272-8.45352 19.12401-21.48603 23.33005s-34.5807-20.86444-34.5807-20.86444z" fill="#ffd100" fill-rule="evenodd"/><g fill="#c8102e"><path d="m157.50925 81.06928c3.89526 2.36202 12.1623 4.51684 15.22877 0-.33151-.12431-6.52661-.87021-3.68805-6.21582 1.90619-3.68805 10.35971-3.93668 16.8656-4.51683 9.30302-.80805 12.55596-3.4187 13.3433-4.14388-6.71309 0-8.72287-3.93668-8.72287-3.93668h1.88547s2.61064 2.27913 9.24085 1.78186a16.575526 16.575526 0 0 0 13.21898-8.28776l.47655.87022a17.197109 17.197109 0 0 1 -11.35424 8.93006 16.969195 16.969195 0 0 1 -3.10791.47655 16.451209 16.451209 0 0 1 -11.8515 5.92574c-14.50359 1.18101-17.98445 3.7295-17.25927 5.96719.72518 2.2377 3.27367 1.55396 3.27367 1.55396a8.6607123 8.6607123 0 0 1 -8.28777 6.65093c-4.72402-.18647-9.57237-3.37726-9.26158-5.05554z"/><path d="m157.19846 70.56455c-.20719.47654.87021 1.26388 1.20172.78734.33152-.47655 6.21584-9.67597 16.22331-13.15683 9.24086-3.211507 29.00718-3.77093 36.38328-5.801432a27.30818 27.30818 0 0 0 11.35424-5.905032s-.14504 22.791354-16.96919 32.943854c-11.54071 6.89956-22.14905 8.55712-23.74445 10.87769a5.5320819 5.5320819 0 0 0 -1.09813 4.84834c.29008.68374 1.18101.95309 1.24317 0a5.3663268 5.3663268 0 0 1 3.48086-4.2682 70.673901 70.673901 0 0 0 20.32574-7.89409c18.46099-10.89841 18.64747-34.912199 18.31596-37.294931a3.9988458 3.9988458 0 0 0 -1.20173-2.548487s-1.09813 6.713088-16.28546 8.412079c-7.39682.828777-25.77494 1.491798-34.60141 5.449199a28.095518 28.095518 0 0 0 -14.62791 13.5505z" fill-rule="evenodd"/></g></g></g></svg>