<svg height="625" viewBox="0 0 132.29165 165.36459" width="499.99997" xmlns="http://www.w3.org/2000/svg"><path d="m0 0v111.31206c0 30.86676 40.103609 43.03313 66.145837 54.05252 26.042216-11.01939 66.145823-23.18576 66.145823-54.05252v-111.31206z" fill="#0072cf"/><g fill="#fff" fill-rule="evenodd" stroke="#0072cf" stroke-width=".87689" transform="matrix(.60345839 0 0 .60345839 -3.665888 -4.490929)"><path d="m92.298496 195.01818 19.100694 12.0636 90.00625-139.383367c6.12771-9.489346 9.10453-16.578689 8.18649-33.108502-15.10254 6.505431-20.30387 13.672896-26.43053 22.904543z" stroke-linecap="square"/><path d="m201.70412 47.527518-99.54324 153.759332" stroke-linecap="round"/></g><g fill="#998a65"><g stroke="#0072cf" stroke-linecap="round" stroke-linejoin="bevel" stroke-width=".87689" transform="matrix(.60345839 0 0 .60345839 -3.665888 -4.490929)"><path d="m69.839818 239.5174 9.763028 7.02937c14.946604-9.13792 16.89615-21.83071 22.273544-32.89864l-10.936379-6.91433c-8.040663 9.6618-18.638294 14.86674-21.100193 32.7836z" fill-rule="evenodd"/><g transform="matrix(.84692827 .53170717 -.53170717 .84692827 0 0)"><path d="m180.96289 120.41941 24.34249.0571.0834 6.2454h-24.30667z"/><path d="m167.80912 114.66348h52.10836v7.13942h-52.10836z"/></g><path d="m67.405823 237.012 15.563077 10.52421c-3.976343 11.5946-25.153054-.18841-15.563077-10.52421z" fill-rule="evenodd"/></g><path d="m43.738973 10.184274c-18.986139 0-34.4864342 15.50345-34.4864342 34.617121s15.5002952 34.617124 34.4864342 34.617124c18.986136 0 34.486438-15.503453 34.486438-34.617124s-15.500302-34.617121-34.486438-34.617121zm0 4.125244c16.866785 0 30.46798 13.659136 30.46798 30.491877 0 16.832739-13.601195 30.513703-30.46798 30.513703-16.866789 0-30.467977-13.680964-30.467977-30.513703 0-16.832741 13.601188-30.491877 30.467977-30.491877z"/></g></svg>