<svg enable-background="new -176.119 -213.831 406.523 492.832" height="492.832" viewBox="-176.119 -213.831 406.523 492.832" width="406.523" xmlns="http://www.w3.org/2000/svg" xmlns:xlink="http://www.w3.org/1999/xlink"><clipPath id="a"><path d="m-176.119-213.83099h406.52301v492.832h-406.52301z" height="100%" width="100%"/></clipPath><path d="m27.018-212.311h201.871v296.703c0 106.633-90.328 193.07-201.742 193.07-111.426 0-201.746-86.438-201.746-193.07v-296.703z" fill="#e7423f"/><path d="m151.092-197.553h-19.078v58.035h-58.437v19.301h58.437v58.297h19.078v-58.297h58.594v-19.301h-58.594z" fill="#fff" transform="matrix(.98 0 0 .98 3.75358 .59692)"/><path clip-path="url(#a)" d="m27.018-212.311h201.871v296.703c0 106.633-90.328 193.07-201.742 193.07-111.426 0-201.746-86.438-201.746-193.07v-296.703z" fill="none" stroke="#000" stroke-width="3.048"/></svg>