<svg enable-background="new 0 0 406.469 492.748" height="492.748" viewBox="0 0 406.469 492.748" width="406.469" xmlns="http://www.w3.org/2000/svg" xmlns:xlink="http://www.w3.org/1999/xlink"><clipPath id="a"><path d="m0 .014h406.457v492.734h-406.457z"/></clipPath><path d="m203.086 1.565h201.839v296.668c0 106.594-90.281 193.047-201.703 193.047-111.406 0-201.711-86.453-201.711-193.047v-296.668z" fill="#fff"/><path d="m274.115 1.748v477.259c76.164-27.384 130.414-97.538 130.805-179.905v-297.356z" fill="#e8423f"/><path d="m1.52 1.756v296.477c0 85.461 58.031 157.922 138.43 183.313v-479.789z" fill="#16a74e"/><path d="m393.559 59.955h-47.194v-47.429h-14.033v47.429h-46.342v14.043h46.342v45.879h14.033v-45.879h47.194z" fill="#fff"/><path clip-path="url(#a)" d="m203.086 1.533h201.839v296.668c0 106.609-90.281 193.031-201.703 193.031-111.406 0-201.711-86.422-201.711-193.031v-296.668z" fill="none" stroke="#010202" stroke-width="3.048"/></svg>