<svg height="668.77386" width="554.12695" xmlns="http://www.w3.org/2000/svg"><g transform="translate(-76.431297 -198.87933)"><path d="m354.30775 854.87218c-145.5665 0-263.094125-117.51625-263.094125-263.08775l.005375-373.93225h526.17712v373.93225c0 145.56613-117.52475 263.09263-263.08837 263.08775" fill-rule="evenodd"/><path d="m455.80263 396.80443v-174.94625h157.585v174.94625z" fill="#fff"/><g fill-rule="evenodd"><path d="m553.29637 280.61931c-9.35012 0-8.02487-8.0125-6.68762-13.34975.01275-5.3465 2.67513-9.3525 2.67513-13.36 1.33762-2.67025 0-4.0065-2.67513-5.33625-2.6625-.005-4.00012 0-5.33737-1.34013-4-1.33612-5.35-2.66625-8.01251-2.66625-1.33749-.005-1.33749 1.33013-2.67512 2.66625h-5.33725c-1.33763 0-4.01287 0-5.35013 1.34013-1.32512 2.666-1.33762 4.00112-2.66237 5.33625v5.3475c1.33725-1.34 3.99963-2.67625 5.33725-2.67625h4.0125c-1.33725 1.33625-5.35012 2.67625-8.025 2.67625-2.66237 1.32987-4 1.32987-6.67487 0-1.32513-.00488-1.3375 1.32987-2.66238 1.32987 0 2.67125 5.33725 4.00638 9.33725 4.00638 2.68763 0 2.67488 0 4.0125-1.33013 0 1.33013 0 1.33013-1.33762 2.66638.01275 0 0 1.34 0 1.34 1.33762-.005 4.01287 0 6.67524-2.67625 1.35-1.33513 2.67488-2.67025 4.01251-4.00638 0 4.00638 0 5.34263-1.33763 8.01388-1.32488 4.006-2.67488 6.67737-4 8.0125-2.67488 2.67125-6.68738 4.006-9.34975 4.006-6.67525 0-12.02525-6.67738-12.02525-12.0185.01275-6.67775 4.01275-14.69125 5.33763-18.69775 1.35-1.33475 2.67475-5.33613 0-6.67725-2.66251-2.66988-9.35013-2.665-14.68738-2.665-9.33775-.00488-12.0125 0-20.025 1.32987h-13.3625c.01238 6.67763 4.01238 12.01888 10.68725 13.36 5.35-.005 12.025 0 17.36262 0 0-.005 5.33763 0 5.33763 1.33013.01238 0-1.33763 1.33625-1.33763 1.33625h-32.04987c.01238 2.66987 1.33725 5.34612 2.67475 8.0125 4.0125 4.006 10.68775 5.34612 14.68737 5.34612 4.01288-.005 6.67526-1.34012 9.35013 0 2.67513-.005 5.33762 0 5.33762 0 .01238 1.33113-1.32524 1.33113-4 1.33113h-29.38112c.00487 2.67137 1.33125 6.67775 4.006 9.35262 2.67525 2.66638 8.0125 4.00638 12.0125 4.00638 6.68775-.00488 10.68775 0 17.36262 0 .01238-.00488 1.33763 0 1.33763 0 .01238-.00488-1.33763 0-1.33763 1.33125-6.66249 0-10.67487 1.33475-17.36262 1.33475-6.66238 1.33512-9.33725 1.3415-16.0185 2.67125 1.34363 4.0065 4.006 6.67775 8.0185 9.354 2.67513 1.32987 6.67525 1.32987 10.67487 1.32987 8.02526 0 13.36251-1.32987 21.36263-2.67137h1.33763c.01237 0 0 1.3415-1.33763 1.3415-5.32487 1.32987-12.0125 2.665-18.68737 5.33625-8.01251 2.67125-13.35013 4.00612-21.36863 5.34125 6.68125 6.67725 9.34362 9.3535 13.35612 9.3535 5.35-.00488 10.68738-2.67625 17.36251-5.34613 5.35012-2.67125 8.01249-4.00737 12.01262-5.3425 1.35-1.33487 1.33725-1.32987 1.33725-1.32987.01275-.005 0 1.32987-1.33725 1.32987-5.33775 4.00638-10.67537 6.68263-18.68775 10.68863-5.33738 4.0015-8.025 5.33775-12.025 8.00762 4.0125 2.67125 8.0125 4.00638 14.68775 4.00638 2.67487 0 5.34963 0 8.0125-2.67025 2.67475-1.33613 5.33725-4.006 8.0125-6.67238 2.67475-4.011 4.01237-5.34762 8.01238-8.0175.0125 0 1.33725-1.33612 1.33725-1.33612.01274 0-1.33725 1.33612-1.33725 1.33612-5.33763 6.67638-8.01238 10.68388-13.35013 17.36013 5.35012 0 9.35012 0 13.35013-2.67025 6.68737-2.67088 9.34975-5.34225 13.36262-9.34375 0-1.33963 0 0 0 1.33025 0 1.33612-4.01287 5.3475-8.0125 8.0135-4.00013 2.67025-8.0125 5.34762-12.02525 8.0125h1.3375c1.33762 1.33512 1.33762 1.3415 1.33762 1.3415-1.33762 2.66487-4.01237 4.006-5.34999 5.33625-2.66251 1.33512-5.33763 2.67125-6.67488 2.67125h-9.35012c.01237 0 0 1.33475-1.32513 1.33475-1.33725 0-2.67487 1.3415-2.67487 2.67137 0 2.67125 0 4.00638 1.33762 4.00638l1.33725-1.33013c1.3375-1.34112 1.32513-1.34112 1.32513-1.34112.01237 1.33612 1.33762 1.34112 1.33762 1.34112 1.33725-.005 1.33725-1.34112 2.67487-1.34112h1.33751c-1.33751 1.33612-2.67513 2.67125-4.01238 2.67125-1.32525 1.33475-1.33762 1.33475-1.33762 1.33475.01237 1.3365 0 1.3415 0 1.3415-1.32513 1.32975-1.32513 2.66487 0 5.33625.01237 1.33612 1.33762 2.67625 4.01249 2.67625 0-.005 0-1.34013 0-2.67625 0 0 0 0 0-1.33025 0-.00488 1.33751 0 1.33751 0 1.33725-1.34113 1.33725-1.34113 1.33725-2.67625 1.33762-1.33475 1.32524-1.32975 2.66287-2.67125.01238 1.3365-1.33763 2.67125-1.33763 4.00637.01238 1.33625 0 2.67138-1.32524 4.0075l1.32524 1.34013c.01238 2.66637 0 4.00112 2.67488 4.00112 1.3375 1.33513 4 1.33513 6.67525 1.33513-1.32525 0-2.67525-1.33513-4.00013-2.66988v-1.33662c0-1.33475 1.32488-1.32975 1.32488-1.32975.01237-2.67625 0-4.0065 0-5.34763.01237-1.33512 1.33763-4.00637 1.33763-4.00637.01237 1.3365 1.33762 2.67125 2.67487 4.00637.01275 0 0 1.34113 1.3375 0 1.33762 0 1.33762 1.34113 1.33762 1.34113v2.66637c1.33763 0 4.00001-1.33612 4.00001-2.66637 1.34999-2.67625 0-5.3475-1.3375-5.3475.01237-1.33475 0-1.33475 0-2.66488-2.66251-1.34112-4.00013-1.34112-4.00013-2.67625v-1.32987c1.33762-1.3415 1.33762-2.67625 2.67525-4.0075 1.33725-.00488 2.66238-1.34 3.99963-2.67025.01274 1.33025 0 1.33025 1.33762 2.67025 0 1.33125 1.33763 1.33125 1.33763 2.666 1.33762-1.33475 1.33762-2.666 2.66237-4.006 1.35-1.33513 2.67488-2.67138 4.0125-4.0065 1.33762-2.67125 2.67525-4.006 2.67525-4.006 1.33725-1.33625 1.33725 1.33475 2.66237 2.67625.01238 1.32975 0 1.32975 0 2.66487-1.32512 4.0065-5.33762 12.025-8.0125 17.36113-3.99999 6.67775-9.34999 13.36012-14.68762 20.0325h8.01238c2.67525 0 6.67524 0 10.68774-1.33625 1.33763 2.67137 2.67488 4.0065 4 5.34262 2.67488 2.67138 4.01251 2.67138 6.68725 5.34763 2.67526-2.67625 4.00013-2.67625 6.67526-5.34763 2.67487-1.33612 2.66249-2.66625 5.33737-5.34262 2.67513 1.33625 6.67512 1.33625 9.35 1.33625h9.35013c-6.67488-6.67738-12.02501-13.34975-16.025-20.0325-2.66238-5.34113-5.35001-13.34975-6.67525-17.36113-1.33725-1.33512-1.33725-1.33512 0-2.66487 0-1.3415 1.32524-4.00638 1.32524-2.67625.01238 0 2.67488 1.33475 4.01238 4.006 1.33763 1.33512 1.33763 2.67625 2.67525 4.0065 1.33725 1.33512 2.66237 2.67125 2.66237 4.006 1.33725-1.33475 1.33725-1.33475 1.33725-2.666 1.33763-1.34 1.33763-1.34 2.67525-2.67025 1.33763 1.33025 1.33763 2.67025 2.66238 2.67025 1.35 1.33125 1.33763 2.666 2.67487 4.0075 1.33763-.00638 1.33763 1.32987 0 1.32987.01275 1.33513-1.33724 1.33513-2.67487 2.67625-1.32475 1.33013-1.32475 1.33013-1.32475 2.66488 0 0-1.33763 2.67125-1.33763 5.3475 1.33763 1.33025 2.66238 2.66637 5.33725 2.66637-1.32487-1.33612-1.33724-1.33612-1.33724-2.66637.01237-.00488 1.33724-1.34113 1.33724-1.34113h1.33763c0 1.33625 0 0 1.33763 0 0-1.33512 1.33762-2.66487 1.33762-4.00637 1.33725 0 1.33725 2.67125 1.33725 4.00637 0 1.33625 0 2.67138 1.32513 5.34763.01237-.005 0 0 0 1.32975.01237 0 0 1.33662 0 1.33662-1.32513 1.33475-1.32513 2.66988-2.66238 2.66988 1.33725 0 4 0 5.33725-1.33513 2.67513 0 2.67513-1.33475 2.67513-4.00112 1.33725-.005 1.33725-1.34013 1.33725-1.34013 0-1.33612-1.33725-2.66637-1.33725-4.0075 0-1.33512 0-2.66487-1.33751-4.00637 1.33751 1.3365 1.33751 1.3415 2.67476 2.67125 0 1.33512 1.32524 1.33512 1.32524 2.67625 1.35001-.00488 1.33763 0 1.33763 0 1.35 1.33025 1.33725 1.33025 1.33725 1.33025.01275 1.33612 0 2.67625-1.33725 2.67625 2.67475-.005 4.01237-1.34013 5.33725-2.67625.01237-2.67138 0-4.0065-1.32488-5.33625 1.33725-.005 1.32488 0 1.32488-1.3415-1.32488 0-1.32488 0-1.32488-1.33475-1.33762 0-4.01237-1.33013-5.35-2.67125h2.67488c.01275 0 1.3375 1.34112 1.3375 1.34112 0-.005 1.33762 0 1.33762-1.34112 0 0 1.32488 0 1.32488 1.34112 1.35-.005 1.33763 1.33013 1.33763 1.33013 1.34999 0 2.67487-1.33013 1.33762-4.00638.01237-1.33625-1.33762-2.67137-2.67525-2.67137.01237 0-1.32488-1.33475-1.32488-1.33475h-8.01249c-2.67513 0-5.35-1.33125-6.67513-2.67125-2.67487-1.33513-4.0125-2.67138-6.68737-5.33625.01237-.00638 1.33724 0 1.33724-1.3415h2.67526c-5.33763-2.671-9.35013-5.34225-13.36251-8.0125-2.66249-2.67088-6.67487-6.67238-8.0125-8.0135.01238-1.33513 0-2.66988 0-1.33025 4.01238 4.0015 6.68763 6.67775 13.3625 9.34375 5.35 2.67025 8.01251 2.67025 14.68738 2.67025-6.67487-6.67625-9.35013-10.68375-14.68738-17.36013l-1.33762-1.33612c1.33762 0 1.33762 1.33612 1.33762 1.33612 4.01238 2.66988 5.33725 4.0065 8.01251 8.0175 4.01237 2.66638 5.33762 5.33625 8.01249 6.67238 2.67476 2.67025 5.33763 2.67025 9.35 2.67025 5.33738 0 9.33738-1.33013 13.34975-4.00638-3.99962-2.66987-6.67487-4.00612-12.02487-8.00762-6.6625-4.011-12.0125-6.68225-18.68737-10.68863l-1.33763-1.32987c0-.005 1.33763 0 1.33763 1.32987 4.01237 1.33513 8.01249 2.67625 12.01249 5.3425 6.68725 2.66988 13.3625 5.34613 17.36251 5.34613 4.0125-.00488 6.67487-2.67625 13.36262-9.3535-8.0125-1.33513-12.02538-2.665-21.375-5.34125-6.6625-2.67125-13.35013-4.00638-18.68775-5.33625 0-.00638-1.33725-1.3415-1.33725-1.3415h2.66238c6.68725 1.33512 13.36249 2.67137 20.03737 2.67137 4.0125 0 8.0125 0 12.0125-1.32987 4.0125-2.67625 5.35012-5.3475 6.68775-9.354-6.67525-1.33613-9.35012-1.32975-16.03775-2.67125-6.6625 0-10.675-1.33475-17.34987-1.33475 0-1.33613-1.33751-1.33125-1.33751-1.33125 1.33751-.00488 1.33751 0 1.33751 0 6.67487-.00488 12.01262 0 17.34987 0 4.01237-.00488 9.35-1.34 13.3625-4.00638 2.67525-2.67487 2.67525-6.68125 2.67525-9.35262h-29.3875c-1.32525 0-4.00012 0-4.00012-1.33113 0-.005 2.66249 0 5.33737 0 2.67512-1.34012 6.67525 0 10.68762 0 4.0125-.005 10.67488-1.34012 13.34976-5.34612 2.67524-2.67138 2.67524-5.34263 2.67524-8.0125h-30.71274c-1.33725 0-2.67476-1.33625-2.67476-1.33625 0-1.33513 5.33763-1.33013 6.67488-1.33013 4.01237-.005 12.0125 0 16.02487 0 6.68763-1.34112 10.68775-6.67737 10.68775-13.36h-12.02499c-9.33763-1.33475-12.01251-1.32987-21.36251-1.32987-4.00012-.00488-12.02499 0-14.68737 2.665-1.33763 1.33612-1.33763 5.3475 0 6.67725 1.33725 4.0065 5.33725 12.02 5.33725 18.69775 0 5.34112-5.33725 12.0185-10.67488 12.0185"/><g fill="#fff"><path d="m507.88387 359.41181s0 0 0-1.32975c1.33763-.005 1.33763 0 1.33763-1.3415 1.33725 1.3365 1.32488 2.67125 1.32488 4.00637.01237 1.33625 0 1.34113-1.32488 2.67138 0-1.33513 0-1.33025 0-2.67138 0 0-1.33763 0-1.33763-1.33512"/><path d="m498.53375 367.42431c-1.32475 0-1.3375 0-1.3375-1.32975-1.32487-.005-1.33725 0-1.33725 0 .01238 1.32975 0 1.32975 0 2.66637 1.35 1.33475 2.67475 1.33475 4.01237 1.33475 0 0-1.33762 0-1.33762-1.33475z"/><path d="m489.18375 362.08318c0-1.33625 0-1.33625-1.33725-1.33625.01238 0 0 0 0-1.33512-1.32525 1.33512-1.33762 1.33512-1.33762 2.67625.01237 1.33025 1.33762 2.66637 2.67487 2.66637v-1.33612c0-1.33513 0-1.33025 0-1.33513"/><path d="m486.52125 348.72806c-1.3375 0-1.3375 1.3415-2.67475 1.3415v4.00612c0-1.34112 0-1.34112 1.33725-1.34112 0-1.33513 1.32513-1.33513 1.32513-1.33513.01237 0 0 0 0-1.32987.01237-.00638 0 0 .01237-1.3415"/></g><path d="m509.2215 340.71556s1.32488 0 1.32488 1.33512c.01237 0 1.3375 0 1.3375 1.34113-1.32513 1.33025-2.66238 1.33025-4.00001 2.67025-1.33762 1.33125-1.33762 1.33125-2.67512 2.666.01275 1.33512 0 2.67137 0 4.0065 1.3375 1.33612 1.3375 1.34112 2.67512 1.34112 0-.005 1.33763 1.33013 1.33763 1.33013 0 1.33475-1.33763 1.33475-1.33763 2.67625-1.33762-.005-1.33762 1.32975-1.33762 1.32975-1.32475-1.33475-2.67475-1.32975-2.67475-2.67125-1.32525-1.33475-2.67525-1.33475-2.67525 0 .01237 1.3365-1.32488 2.67125-1.32488 4.00637v5.34763c-1.33762-.005-1.33762 0-2.67512 0-1.32487-1.34013-1.33725-1.34013-2.67488-1.34013 1.35001-1.33612 1.33763-2.66637 1.33763-4.0075.01238-1.33512 1.33725-1.33512 1.33725-4.00637.01275 0 0-1.33475 0-1.33475-1.32487 0-1.33725 0-2.67488 1.33475-1.32524 1.3365-1.32524 1.3415-2.66249 2.67125 0 0 0 1.33512-1.33751 1.33512 0 0-1.33762 0-1.33762-1.33512-1.32487 0-1.33725-1.32975-1.33725-1.32975 1.33725-1.3415 1.33725-1.3415 2.67487-2.67625 1.33751-1.33513 2.67476-1.33013 4-2.67125.01238 0 0 0 0-1.33513h-4c-1.33762 0-1.33762 0-2.67487 1.33513.01238-1.33513 0-1.33513 0-2.665.01238-.00638 0-1.3415 0-1.3415h10.68725c1.33762-1.33475 2.6625-1.33475 4.00013-2.666 2.68762-1.34 2.67487-1.34 4.01237-2.67025 1.33762-1.34113 1.33762-1.34113 2.67525-2.67625" fill="#a77f29"/></g><path d="m509.2215 340.71556s1.32488 0 1.32488 1.33512c.01237 0 1.3375 0 1.3375 1.34113-1.32513 1.33025-2.66238 1.33025-4.00001 2.67025-1.33762 1.33125-1.33762 1.33125-2.67512 2.666.01275 1.33512 0 2.67137 0 4.0065 1.3375 1.33612 1.3375 1.34112 2.67512 1.34112 0-.005 1.33763 1.33013 1.33763 1.33013 0 1.33475-1.33763 1.33475-1.33763 2.67625-1.33762-.005-1.33762 1.32975-1.33762 1.32975-1.32475-1.33475-2.67475-1.32975-2.67475-2.67125-1.32525-1.33475-2.67525-1.33475-2.67525 0 .01237 1.3365-1.32488 2.67125-1.32488 4.00637v5.34763c-1.33762-.005-1.33762 0-2.67512 0-1.32487-1.34013-1.33725-1.34013-2.67488-1.34013 1.35001-1.33612 1.33763-2.66637 1.33763-4.0075.01238-1.33512 1.33725-1.33512 1.33725-4.00637.01275 0 0-1.33475 0-1.33475-1.32487 0-1.33725 0-2.67488 1.33475-1.32524 1.3365-1.32524 1.3415-2.66249 2.67125 0 0 0 1.33512-1.33751 1.33512 0 0-1.33762 0-1.33762-1.33512-1.32487 0-1.33725-1.32975-1.33725-1.32975 1.33725-1.3415 1.33725-1.3415 2.67487-2.67625 1.33751-1.33513 2.67476-1.33013 4-2.67125.01238 0 0 0 0-1.33513h-4c-1.33762 0-1.33762 0-2.67487 1.33513.01238-1.33513 0-1.33513 0-2.665.01238-.00638 0-1.3415 0-1.3415h10.68725c1.33762-1.33475 2.6625-1.33475 4.00013-2.666 2.68762-1.34 2.67487-1.34 4.01237-2.67025 1.33762-1.34113 1.33762-1.34113 2.67525-2.67625z" fill="#f9d100"/><g fill-rule="evenodd"><g fill="#fff"><path d="m561.30875 359.41181s-.01237 0-.01237-1.32975c.01237-.005-1.33763 0-1.33763-1.3415-1.32475 1.3365-1.32475 2.67125-1.32475 4.00637 0 1.33625 1.32475 1.34113 1.32475 2.67138.0125-1.33513 0-1.33025 1.33763-2.67138.01237 0 0 0 .01237-1.33512"/><path d="m570.65888 367.42431c1.32487 0 1.32487 0 2.66249-1.32975 0-.005 0 0 1.33751 0-1.33751 1.32975-1.33751 1.32975-1.33751 2.66637-1.33762 1.33475-1.33762 1.33475-4.01249 1.33475 1.35 0 1.33762 0 1.33762-1.33475.01238 0 0-1.33662.01238-1.33662"/><path d="m580.009 362.08318c1.32475-1.33625 1.32475-1.33625 1.32475-1.33625s0 0 1.33762-1.33512v2.67625c0 1.33025-1.33762 2.66637-2.67512 2.66637 1.3375 0 1.3375-1.33612 1.3375-1.33612 0-1.33513-1.3375-1.33025-1.32475-1.33513"/><path d="m582.67137 348.72806c1.33725 0 1.32488 1.3415 2.66251 1.3415.01237 1.32987 1.33762 2.665 0 4.00612.01237-1.34112 0-1.34112-1.33763-1.34112.01237-1.33513 0-1.33513-1.32488-1.33513 0 0 0 0 0-1.32987 0-.00638 0 0 0-1.3415"/></g><path d="m559.97125 340.71556s-.0125 0-1.33725 1.33512c0 0 0 0-1.33763 1.34113 2.67488 1.33025 2.66238 1.33025 4.00001 2.67025 1.34999 1.33125 2.67487 1.33125 2.67487 2.666 1.33763 1.33512 1.33763 2.67137 0 4.0065-1.32488 1.33612-1.33763 1.34112-2.67487 1.34112.01237-.005 0 1.33013-1.33763 1.33013 1.35 1.33475 1.33763 1.33475 1.33763 2.67625 1.34999-.005 1.33724 1.32975 2.67487 1.32975 1.33763-1.33475 1.33763-1.32975 2.67525-2.67125 0-1.33475 1.33725-1.33475 1.33725 0 1.3375 1.3365 1.32513 2.67125 1.32513 4.00637.01237 2.67138 0 2.67138 1.33762 5.34763.01238-.005 1.33725 0 1.33725 0 1.33762-1.34013 1.33762-1.34013 2.67513-1.34013 0-1.33612-1.33751-2.66637-1.33751-4.0075 0-1.33512 0-1.33512-1.33762-4.00637 0 0 0-1.33475 1.33762-1.33475 0 0 1.33751 0 1.33751 1.33475 1.33725 1.3365 1.33725 1.3415 2.66249 2.67125.01238 0 1.33763 1.33512 1.33763 1.33512 1.35 0 1.33725 0 1.33725-1.33512 1.3375 0 1.3375-1.32975 2.67512-1.32975-1.33762-1.3415-2.67512-1.3415-4.01237-2.67625-1.32525-1.33513-1.33763-1.33013-2.66287-2.67125-1.33725 0-1.33725 0-1.33725-1.33513h5.33737c.01275 0 1.3375 0 1.3375 1.33513 0-1.33513 0-1.33513 0-2.665 0-.00638 0-1.3415 0-1.3415h-10.68725c-1.32525-1.33475-2.66275-1.33475-4-2.666-1.33762-1.34-2.67525-1.34-4.01288-2.67025-1.32487-1.34113-1.33724-1.34113-2.66237-2.67625" fill="#a77f29"/></g><path d="m559.97125 340.71556s-.0125 0-1.33725 1.33512c0 0 0 0-1.33763 1.34113 2.67488 1.33025 2.66238 1.33025 4.00001 2.67025 1.34999 1.33125 2.67487 1.33125 2.67487 2.666 1.33763 1.33512 1.33763 2.67137 0 4.0065-1.32488 1.33612-1.33763 1.34112-2.67487 1.34112.01237-.005 0 1.33013-1.33763 1.33013 1.35 1.33475 1.33763 1.33475 1.33763 2.67625 1.34999-.005 1.33724 1.32975 2.67487 1.32975 1.33763-1.33475 1.33763-1.32975 2.67525-2.67125 0-1.33475 1.33725-1.33475 1.33725 0 1.3375 1.3365 1.32513 2.67125 1.32513 4.00637.01237 2.67138 0 2.67138 1.33762 5.34763.01238-.005 1.33725 0 1.33725 0 1.33762-1.34013 1.33762-1.34013 2.67513-1.34013 0-1.33612-1.33751-2.66637-1.33751-4.0075 0-1.33512 0-1.33512-1.33762-4.00637 0 0 0-1.33475 1.33762-1.33475 0 0 1.33751 0 1.33751 1.33475 1.33725 1.3365 1.33725 1.3415 2.66249 2.67125.01238 0 1.33763 1.33512 1.33763 1.33512 1.35 0 1.33725 0 1.33725-1.33512 1.3375 0 1.3375-1.32975 2.67512-1.32975-1.33762-1.3415-2.67512-1.3415-4.01237-2.67625-1.32525-1.33513-1.33763-1.33013-2.66287-2.67125-1.33725 0-1.33725 0-1.33725-1.33513h5.33737c.01275 0 1.3375 0 1.3375 1.33513 0-1.33513 0-1.33513 0-2.665 0-.00638 0-1.3415 0-1.3415h-10.68725c-1.32525-1.33475-2.66275-1.33475-4-2.666-1.33762-1.34-2.67525-1.34-4.01288-2.67025-1.32487-1.34113-1.33724-1.34113-2.66237-2.67625z" fill="#f9d100"/><path d="m511.89638 261.92306h5.33762c4.01238-1.33613 6.67487-2.666 10.67487-4.006h.01238c-1.3375 2.66987-4.01238 5.34612-8.02488 5.34612-3.99999-.005-8.01249-1.34012-7.99999-1.34012" fill="#ee1c2a" fill-rule="evenodd"/><path d="m523.90887 265.92956c1.33763-1.33625 1.33763-2.66638 2.67488-4.0065 1.3375-1.33613 2.66275-2.666 4-5.34225h-1.33725c-2.66275-1.33513-4-1.33013-6.67525-1.33013-1.32487-.005-2.67488 0-4.0125 1.33013.0125-1.33513 0-2.67125 1.33762-4.00638.01238-1.33512 0-1.32987 1.33726-2.67137.01275-1.33475 2.67524-1.32975 4.01287-1.32975 1.33725-.005 2.66237-1.34013 5.33725 0 0-.005-1.33725 1.32975-1.33725 1.32975.01237 2.67137 1.33725 4.0065 1.33725 5.34762 1.33763 1.33013 1.33763 2.66638 1.33763 4.00638-1.33763 1.32987-1.33763 1.32987-2.67488 2.666-2.66275 1.33512-4 2.67025-5.33763 4.0065" fill="#a77f29" fill-rule="evenodd"/><path d="m523.90887 265.92956c1.33763-1.33625 1.33763-2.66638 2.67488-4.0065 1.3375-1.33613 2.66275-2.666 4-5.34225h-1.33725c-2.66275-1.33513-4-1.33013-6.67525-1.33013-1.32487-.005-2.67488 0-4.0125 1.33013.0125-1.33513 0-2.67125 1.33762-4.00638.01238-1.33512 0-1.32987 1.33726-2.67137.01275-1.33475 2.67524-1.32975 4.01287-1.32975 1.33725-.005 2.66237-1.34013 5.33725 0 0-.005-1.33725 1.32975-1.33725 1.32975.01237 2.67137 1.33725 4.0065 1.33725 5.34762 1.33763 1.33013 1.33763 2.66638 1.33763 4.00638-1.33763 1.32987-1.33763 1.32987-2.67488 2.666-2.66275 1.33512-4 2.67025-5.33763 4.0065z" fill="#f9d100"/><g fill="#fff" fill-rule="evenodd"><path d="m537.27138 249.90306c-1.33763 0-1.35 1.3415-1.35 1.3415.01237-.00525 0 1.32987 1.33762 1.32987h1.33725c.01275-1.33512 0-1.32987 0-1.32987.01275-.00525 0 0 1.3375 0 0-.00525 1.33763 0 1.33763 1.32987v1.33513c-1.33763 0-1.33763-1.33513-2.67513 0h-1.33725c-1.32525 0-2.66288 0-2.66288-2.665 0-.00525-1.33725 0-1.33725-1.3415z"/><path d="m442.44888 714.64681c0 1.3365 1.32987 4.01275 2.665 4.01275.00487-.00638 0-1.3415 1.33512-1.3415.006 0 0-1.33475 0-1.33475.006-1.3365 1.33613-1.33013 1.33613-2.67125.00499 0 0-1.33513 0-1.33513h-2.67125c-1.33013 0-2.67138 1.33513-2.665 2.66988"/><path d="m447.79012 714.64681c0 1.3365 1.32976 4.01275 2.66638 4.01275.00487-.00638 0-1.3415 0-1.3415 1.33962 0 1.33475-1.33475 1.33475-1.33475.00487-1.3365 0-1.33013 1.33512-2.67125.00638 0 0-1.33513-1.33512-1.33513h-1.33475c-1.33125 0-2.67137 1.33513-2.66638 2.66988"/><path d="m375.675 714.64681c0 1.3365-.00612 4.01275 1.33013 4.01275 1.33999-.00638 1.33512-1.3415 1.33512-1.3415.00487 0 0-1.33475 0-1.33475.00487-1.3365 1.33612-1.33013 1.33612-2.67125.00501 0 0-1.33513 0-1.33513h-2.67124c-1.33013 0-1.33625 1.33513-1.33013 2.66988"/><path d="m379.68138 714.64681c0 1.3365 1.32974 4.01275 2.66487 4.01275.00638-.00638 0-1.3415 1.33625-1.3415.00488 0 0-1.33475 0-1.33475.00488-1.3365 1.33513-1.33013 1.33513-2.67125.00487 0 0-1.33513 0-1.33513h-2.67138c-1.32975 0-2.66988 1.33513-2.66487 2.66988"/><path d="m295.54625 714.64681c0 1.3365-.005 4.01275 2.66637 4.01275.00488-.00638 0-1.3415 0-1.3415 1.34001 0 1.33513-1.33475 1.33513-1.33475.00488-1.3365 0-1.33013 1.33613-2.67125.0035 0 0-1.33513-1.33613-1.33513h-1.33513c-1.33124 0-2.67137 1.33513-2.66637 2.66988"/><path d="m300.88738 714.64681c0 1.3365-.0035 4.01275 1.33124 4.01275 1.34013-.00638 1.33513-1.3415 1.33513-1.3415 1.34112 0 0-1.33475 0-1.33475 1.34112-1.3365 1.33625-1.33013 2.67137-2.67125.00488 0-1.33512-1.33513-1.33512-1.33513h-1.33625c-1.32975 0-2.66987 1.33513-2.66637 2.66988"/><path d="m244.79862 694.61581c0 1.33475 1.33013 4.006 2.66525 4.006.00613 0 0-1.33613 1.33625-1.33613.00501 0 0-1.32975 0-1.32975.00501-1.34012 1.33513-1.34012 1.33513-2.67637.00488 0 0-1.33013-1.33513-1.33013.00501-.00487 0 0-1.33625 0-1.33012-.00487-2.67012 1.33013-2.66525 2.66638"/><path d="m250.14013 694.61581c0 1.33475-.00488 4.006 2.66599 4.006.00538 0 0-1.33613 0-1.33613 1.3415 0 0-1.32975 1.33513-1.32975.00637-1.34012 0-1.34012 1.33625-2.67637.00487 0 0-1.33013-1.33625-1.33013.00637-.00487-1.33513 0-1.33513 0-1.32974-.00487-2.67087 1.33013-2.66599 2.66638"/><path d="m258.15375 611.81681c0 1.33512-.006 2.67025-.006 4.01137.006 2.665 1.33612 4.0065 2.67087 5.33625l.00538-2.67125h4.00113c-1.33025-1.33475-2.67001-1.33475-4.00651-2.665-1.32974-1.34112-1.33475-2.67625-2.66487-4.01137"/></g><g fill="#d8201f"><path d="m148.645 741.35693h30.71513v16.025h-24.03738c-2.67137-2.66987-5.34763-6.67737-6.68375-9.34762z" fill-rule="evenodd"/><path d="m320.92025 757.38331v-16.02638h32.051v16.02638z"/><path d="m286.19763 757.38331v-16.02638h32.05124v16.02638z"/><path d="m251.47638 757.38331v-16.02638h32.05137v16.02638z"/><path d="m216.75375 757.38331v-16.02638h32.05138v16.02638z"/><path d="m182.0315 757.38331v-16.02638h32.05088v16.02638z"/><path d="m143.30275 741.35693h1.33612v2.67138c0-1.33625-1.3415-1.33625-1.33612-2.67138" fill-rule="evenodd"/><path d="m355.6425 757.38331v-16.02638h32.05137v16.02638z"/><path d="m390.36512 757.38331v-16.02638h32.05138v16.02638z"/><path d="m425.08737 757.38331v-16.02638h32.05138v16.02638z"/><path d="m459.80863 757.38331v-16.02638h32.05137v16.02638z"/><path d="m494.53125 757.38331v-16.02638h30.71625v16.02638z"/><g fill-rule="evenodd"><path d="m529.25887 741.35693h30.71238v6.67738c-1.33725 2.67025-4.0125 6.67775-6.68738 9.34762h-24.025z"/><path d="m562.64637 741.35693h2.66251c0 1.33513-1.33763 1.33513-2.67526 2.67138z"/><path d="m303.55875 760.05318h32.05138v2.67138c-5.34126 4.006-10.68875 8.0125-14.69526 14.68987h-17.35612z"/></g><path d="m268.8375 777.41443v-17.36125h32.05137v17.36125z"/><path d="m234.11525 777.41443v-17.36125h32.051v17.36125z"/><path d="m199.39263 777.41443v-17.36125h32.05124v17.36125z"/><g fill-rule="evenodd"><path d="m166.0065 760.05318h30.71475v17.36125h-22.70225c-2.67138-2.67137-5.34762-5.33625-8.01888-9.34237z"/><path d="m157.99262 760.05318h4.006v5.34263c-1.33475-1.33613-2.67587-2.67125-4.006-5.34263"/><path d="m373.00363 760.05318h32.05137v17.36125h-17.36113c-4.00649-6.67737-9.35362-10.68387-14.69512-14.68987z"/></g><path d="m407.72625 777.41443v-17.36125h32.05138v17.36125z"/><path d="m442.44888 777.41443v-17.36125h32.05099v17.36125z"/><path d="m477.17013 777.41443v-17.36125h32.05137v17.36125z"/><g fill-rule="evenodd"><path d="m511.89638 760.05318h30.71225v8.0125c-2.67488 4.0075-5.34963 6.68375-8.01251 9.34875h-22.69974z"/><path d="m546.6215 760.05318h4c-1.33762 2.67138-2.67525 4.0125-4.01275 5.34263z"/><path d="m286.19763 780.08568h32.05124v5.34113c-1.33512 2.67137-1.33999 6.67775-1.33999 9.354l.00487 1.32987h-30.71612z"/></g><path d="m251.47638 796.11068v-16.025h32.05137v16.025z"/><path d="m216.75375 796.11068v-16.025h32.05138v16.025z"/><g fill-rule="evenodd"><path d="m182.0315 780.08568h32.05088v16.025h-17.36113c-5.34112-2.66987-9.35363-6.67737-14.69475-10.68387z"/><path d="m176.68988 780.08568h2.67025v2.67125c0-1.33612-1.34001-1.33612-2.67025-2.67125"/><path d="m390.36512 780.08568h32.05138v16.025h-30.71663v-1.33475c0-2.67137-.00487-6.67775-1.33975-9.34912z"/></g><path d="m425.08737 796.11068v-16.025h32.05138v16.025z"/><path d="m459.80863 796.11068v-16.025h32.05137v16.025z"/><path d="m494.53375 780.08568h30.71275v5.34113c-4.00012 4.0065-8.0125 8.014-13.36262 10.68387h-17.35013z" fill-rule="evenodd"/><path d="m529.25887 780.08568h2.66251c-1.33763 1.33513-2.67488 1.33513-2.67488 2.67625z" fill-rule="evenodd"/><path d="m303.55875 816.14306v-17.36113h13.355v17.36113z"/><path d="m268.8375 816.14306v-17.36113h32.05137v17.36113z"/><path d="m234.11525 816.14306v-17.36113h32.051v17.36113z"/><path d="m199.39263 798.78193h32.05124v17.36113h-6.67762c-8.0125-5.34113-17.36612-10.6785-25.37863-17.36113z" fill-rule="evenodd"/><path d="m391.69987 816.14306v-17.36113h13.35513v17.36113z"/><path d="m407.72625 816.14306v-17.36113h32.05138v17.36113z"/><path d="m442.44888 816.14306v-17.36113h32.05099v17.36113z"/><path d="m477.17125 798.78193h32.05025c-8.01288 6.67775-17.36262 12.02-25.375 17.36113h-6.67525z" fill-rule="evenodd"/><path d="m286.19763 834.83931v-16.02488h30.71612v16.02488z"/><path d="m251.47638 818.81443h32.05137v16.02488h-17.3615c-4.00612-1.33475-9.35362-4.006-14.69487-5.34113z" fill-rule="evenodd"/><path d="m230.10875 818.81443h18.69638v9.3475c-6.67738-2.66987-13.36013-6.67625-18.69638-9.3475" fill-rule="evenodd"/><path d="m391.69987 834.83931v-16.02488h30.71663v16.02488z"/><g fill-rule="evenodd"><path d="m425.08737 818.81443h32.05138v10.68375c-5.34263 1.33513-10.68975 4.00638-14.69625 5.34113h-17.35513z"/><path d="m459.80863 818.81443h18.70012c-6.67487 2.67125-12.02487 6.67763-18.705 9.35388z"/><path d="m303.55875 837.51068h13.355v10.68375c-4.006-1.33475-9.35363-1.32987-13.36-2.67137z"/><path d="m274.17875 837.51068h26.70863v8.01238c-9.34726-2.66988-17.36463-5.33613-26.70863-8.01238"/><path d="m391.69987 837.51068h13.35513v8.01238c-4.00613 1.33662-9.35363 1.3415-13.36 2.67137z"/><path d="m407.72625 837.51068h26.70875c-9.34763 2.67125-17.36613 5.3425-26.71513 8.01238z"/></g><path d="m303.55875 738.68568v-17.36112h32.05138v17.36112z"/><path d="m234.11525 738.68568v-17.36112h32.051v17.36112z"/><path d="m166.0065 738.68568v-17.36112h30.71625v17.36112z"/><path d="m373.00363 738.68568v-17.36112h32.05137v17.36112z"/><path d="m442.44888 738.68568v-17.36112h32.05099v17.36112z"/><path d="m511.89137 738.68568v-17.36112h30.71625v17.36112z"/><path d="m368.99763 760.05318h1.33512v1.33513c-1.33512 0-1.34013-1.33013-1.33512-1.33513zm-30.71626 0h1.33513l-1.34012 1.33513z" fill-rule="evenodd"/></g><path d="m375.675 849.52956c-8.01362 0-14.69625 1.34112-21.37362 1.34112-6.67138-.005-13.35363-1.34112-21.36763-1.34112l.00638-53.41888c0-10.68387 9.34237-20.03112 21.36125-20.03112 12.02487 0 21.3675 9.34725 21.3675 20.03112z" fill="#fff" fill-rule="evenodd"/><g fill="#d8201f"><path d="m389.029 848.19443c-4.0065 0-8.01788 1.33513-10.68875 1.33513l.00487-12.01888h10.68388z" fill-rule="evenodd"/><path d="m330.26887 849.52956c-2.67125 0-6.68262-1.33513-10.68875-1.33513l.00501-10.68375h10.68374z" fill-rule="evenodd"/><path d="m319.58513 816.14306v-17.36113h10.68374v17.36113z"/><path d="m319.58513 834.83931v-16.02488h10.68374v16.02488z"/><path d="m324.92625 777.41443c2.67137-5.34125 8.0075-9.34237 13.35013-13.34875l5.34612 12.01388c-4.006 1.33487-6.68225 4.00612-9.3525 8.0125z" fill-rule="evenodd"/><path d="m332.94013 785.42681-9.349-5.34113c-2.67088 4.00638-4.01101 9.34763-4.01101 14.69513l.00501 1.32987h10.68374c0-4.00612 1.32988-6.67737 2.67126-10.68387" fill-rule="evenodd"/><path d="m378.34512 816.14306v-17.36113h10.68388v17.36113z"/><path d="m378.34512 834.83931v-16.02488h10.68388v16.02488z"/></g><g fill-rule="evenodd"><g fill="#d8201f"><path d="m383.68738 777.41443c-2.67088-5.34125-8.0185-9.34237-13.35963-13.34875l-5.33663 12.01388c4.00651 1.33487 6.67138 4.00612 9.34263 8.0125z"/><path d="m375.675 785.42681 9.3475-5.34113c2.67137 4.00638 4.00113 9.34763 4.00113 14.69513l.00537 1.32987h-10.68388c0-4.00612-1.33999-6.67737-2.67012-10.68387"/><path d="m354.30775 760.05318c-5.34262 0-9.354 1.33513-13.36 2.67138l4.011 12.0185c2.67125-1.33475 6.67275-1.33475 9.34263-1.33475 2.67625 0 6.67737 0 9.34862 1.34112l4.01138-12.02487c-4.00638-1.33625-8.01738-2.66638-13.35363-2.67138"/></g><g fill="#41b444"><path d="m95.225 300.75706v-78.89888h30.71625c0 10.68375 5.33763 18.70263 13.35012 25.375 9.35363 6.67638 20.03138 8.0175 30.71475 4.01138 1.3415 10.6785 5.34263 20.03112 14.69126 26.70875 12.02387 8.00762 25.37399 8.0125 37.39262 0-2.665 13.34975 2.67125 26.70987 13.355 33.38125 10.68875 8.01387 20.0325 9.3535 30.71625 5.3475 1.34012 10.67887 5.34113 20.0275 14.69025 26.70975 13.36 8.00762 25.37362 8.00762 38.72862 0-2.66637 13.34875 1.33475 26.70387 12.01863 33.3865 10.68862 6.67237 21.3675 8.0125 32.05125 5.33625 1.34112 10.68375 4.0065 20.03237 14.69025 25.38 12.02487 9.34225 25.37362 9.34225 37.3935 1.32975-2.66625 13.35512 2.67137 26.71025 13.35512 33.3865 9.35263 6.67737 20.03101 8.0135 30.71488 5.34262 1.34137 10.68338 5.3425 18.69588 14.69262 25.37363 12.02488 8.0125 25.375 8.0125 37.38751 1.33612-2.66238 12.01888 2.67487 25.37363 13.36262 33.38613 9.34962 6.67775 20.025 8.01287 30.71225 4.00637 1.33762 10.68388 5.33763 20.0325 14.68775 26.71025 12.02487 8.01238 25.37462 8.01238 38.73725 0-2.67488 9.34713-1.33725 18.69625 4 25.37363v1.335l-127.04988-.65125z"/><path d="m613.38375 561.06818c-5.33725-8.0125-5.33725-18.69625-1.33725-28.04-12.0125 10.67888-28.05025 12.015-40.06275 4.00113-10.675-6.67738-14.68738-16.02-14.68738-26.70375-12.01249 4.0015-21.37499 2.67125-32.04987-4.006-10.68775-8.01888-16.025-24.04388-10.68775-38.72875-10.67488 10.67875-28.04987 12.0185-38.72475 4.006-10.68775-6.68225-14.69375-16.03088-16.03025-26.70875-10.6785 4.00012-20.03113 2.66537-30.71488-4.01238-12.01499-8.0125-16.02637-24.03887-10.68375-37.38762-10.67887 10.67887-28.045 12.019-40.06487 4.0065-9.34262-6.68275-13.35512-16.03138-14.69025-28.05025-10.67875 4.00637-21.3675 4.00637-30.71625-4.00613-12.0135-8.01387-17.36-22.70362-10.68225-37.39387-12.015 10.68375-28.04537 12.02525-40.06525 4.00637-9.34237-6.67737-14.68987-16.02487-14.68987-28.04487-10.67888 5.34262-21.36763 4.006-30.71626-2.67125-12.01387-8.0125-17.36149-24.0375-12.01887-38.72775-10.67887 10.68387-26.70975 12.019-38.72875 4.0065-10.67875-6.67775-14.68975-16.02638-16.02638-26.71025-10.67737 4.0065-20.031 2.67137-30.71475-4.006-8.00749-5.34113-12.02-14.69025-13.35512-24.0325l4.01138-.00638c1.33625 9.34863 5.33737 16.02638 12.01499 20.0325 9.35263 6.67763 18.69626 8.01238 29.38013 2.67625.00487-.005 1.33475 1.33013 1.33475 1.33013 1.3415 0 1.33613 1.33612 2.67125 1.33612-1.32975 12.019 4.00637 20.03638 12.01887 26.70875 12.02501 8.0125 30.71626 6.67738 42.73475-14.68487 1.3415-.00488 1.33663 1.32987 2.67138 1.32987 1.3415 1.33613 2.67125 1.33613 4.00637 2.67625-16.02 18.69125-10.68375 36.05238 1.33625 44.06488 9.35363 6.67775 18.69626 8.01387 29.38001 2.67137 1.34112 0 1.33512 1.33513 2.67124 1.33513.005 0 1.33476 1.34112 1.33476 1.34112-1.32976 10.67875 4.00649 20.02638 13.35512 25.36863 12.02388 8.01287 29.38 8.01775 41.399-14.68488 1.34112 1.33013 2.67125 2.66638 2.67125 2.66638 1.34112 1.33512 2.671 1.34 4.006 1.34-16.02 20.0275-9.3475 37.38862 2.67137 45.40612 8.01738 5.33613 18.69626 8.0125 28.04488 2.66625 1.34112 0 1.33513 0 2.67137 1.34013.00488-.005 1.33513 0 1.33513 1.32975.00488 10.68387 4.006 20.0325 13.35462 25.38 12.02538 8.00762 30.71663 6.67137 42.73513-14.68975.005 1.32975 1.33513 1.32975 2.67137 2.66487.00488 0 1.33513 1.33513 2.67125 1.33513-14.68525 20.0325-9.34862 37.3985 2.66988 45.4125 8.01888 5.33612 18.69775 6.67725 29.3815 1.32975.00487 1.33512 1.33125 1.33512 1.33125 1.33512 1.35 1.33513 1.33725 1.33513 2.67475 1.33513-1.32475 12.02 4.0125 20.03237 12.0125 26.70975 12.025 8.0125 30.72512 6.68275 42.73762-14.68975 1.35001 1.33512 1.33726 1.33512 2.67488 2.67625 1.33762-.005 2.67525 1.32975 2.67525 1.32975-14.68775 18.69625-9.35012 36.06275 2.66237 44.07625 9.36251 6.67137 18.69988 8.0125 29.3875 2.66525l1.33763 1.34125c1.33725 1.32975 1.32475 1.32975 2.66238 1.32975-1.32513 12.01887 4.0125 20.03275 13.3625 26.71012 10.68737 6.67638 26.69987 6.67638 38.72487-9.34362z"/><path d="m350.29988 348.72806c4.00787-5.34113 2.66637-13.34863-2.67626-16.026-5.33625-4.00638-13.35362-2.67025-17.35975 2.67737-4.00137 5.33613-2.67124 13.34863 4.00613 17.35513 5.3465 4.006 13.35362 2.67125 16.02988-4.0065"/><path d="m383.68738 371.43081c4.00649-5.34125 2.66537-13.34875-2.67626-17.35513-5.33612-2.67625-13.35462-1.34112-17.36112 4.00638-4.00112 5.33625-2.67125 13.34875 2.67137 17.35612 6.68226 4.00613 13.355 2.66988 17.36601-4.00737"/><path d="m397.0425 380.77943c4.00637-6.67737 10.67737-8.0075 17.35513-4.00112 5.3475 4.00112 6.67737 12.02 2.67124 17.35625-4.00137 5.34112-10.68375 6.67725-17.36149 4.006-5.33613-4.006-6.67726-12.0185-2.66488-17.36113"/><path d="m447.79012 414.16693c4.006-5.34262 1.32976-13.35512-4.01137-17.36112-5.33725-2.67125-13.35513-1.33125-17.36113 4.006-4.00112 5.34162-1.33624 13.35512 4.006 17.3665 5.34763 4.00112 13.35513 1.32975 17.3665-4.01138"/><path d="m481.18362 436.86956c2.66288-5.3425 1.32526-13.355-4.02487-17.3615-5.32487-4.006-13.35-2.67125-17.355 4.0065-4.00112 5.34262-2.671 13.355 4.005 17.36112 5.35 2.67125 13.35 1.33513 17.37487-4.00612"/><path d="m493.19613 444.88206c4.01287-5.3415 12.01262-6.67125 17.35025-2.67125 5.35 4.0075 6.68762 12.02 2.67475 17.36112-2.66238 5.34263-10.68725 6.67738-16.02488 2.67125-6.67488-4.00637-8.0125-10.68375-4.00012-17.36112"/><path d="m543.94625 479.60443c4-5.34125 2.6625-13.35512-2.67487-17.36125-6.67526-4.00637-13.36251-2.67125-17.36251 4.00613-4.00012 5.34262-2.67524 13.36 2.67488 17.3665 5.33763 2.66625 13.35 1.33112 17.3625-4.01138"/><path d="m577.33375 502.30706c4-5.34113 2.6625-13.35363-4.01238-17.36013-5.33762-4.00737-13.36262-2.67125-16.025 2.67625-4 6.67138-2.67525 13.34875 2.66238 17.35513 5.35013 4.00612 13.36262 2.671 17.375-2.67125"/><path d="m589.34625 510.32056c4.0125-5.34225 12.0125-6.67738 17.36262-2.67125 5.35 4.00637 8.01251 10.68375 4.00001 17.3665-4.00001 5.33612-12.0125 6.67237-17.3625 2.66625-5.33763-4.00638-6.67488-12.01988-4.00013-17.3615"/><path d="m254.14762 284.62581c4.00613-6.67738 2.66501-13.35013-2.67624-17.35625-6.67276-4.01138-13.35501-2.67625-17.3615 2.666-4.00113 6.67775-2.67088 13.35512 2.67024 17.3615 5.34763 4.006 13.35513 2.67625 17.3675-2.67125"/><path d="m287.53375 305.99331c4.00637-5.34263 2.665-13.35513-4.011-16.02-5.33763-4.01238-13.35513-2.67625-16.02637 2.66487-4.0015 5.34263-2.67125 13.35513 2.67124 17.36125 5.34613 4.00638 13.35513 2.67625 17.36613-4.00612"/><path d="m299.55263 315.34193c4.00612-5.3425 12.01362-8.01387 17.35625-4.00737 6.68225 4.00737 8.0125 12.02487 4.00599 17.36112-4.00112 5.3425-12.0185 8.01388-17.36112 4.00638-5.33625-4.00638-6.67738-12.014-4.00112-17.36013"/><path d="m191.38013 241.89068c4.00599-6.67737 1.32974-13.34975-4.01251-17.36112-5.33612-4.0065-13.35399-2.665-17.3615 2.67125-3.99962 6.67737-1.33474 13.36 4.00751 17.36612 5.3465 4.00138 13.35399 2.66625 17.3665-2.67625"/><path d="m203.39863 249.90306c4.00649-5.34113 12.01399-6.67725 17.3565-2.66988 5.34762 2.66988 6.67737 10.68388 4.00612 16.03-4.00113 6.67238-12.0185 8.0125-17.36112 4.00638-6.67238-4.01138-8.01251-12.01888-4.0015-17.3665"/><path d="m247.47 239.21931c5.3415 4.0065 6.67125 12.02525 4.00138 17.3615-4.00138 5.34225-12.01988 6.68237-17.3615 4.00612-6.67238-4.00612-8.01351-12.01362-4.00751-17.36112 4.01288-6.67638 12.02038-8.0125 17.36763-4.0065"/><path d="m343.6225 304.65818c6.67738 4.00638 8.009 12.02388 4.00112 17.36013-4.00112 5.34262-12.0185 6.67737-17.35975 2.67125-5.33762-4.00638-6.67762-10.68375-2.67124-17.3615 2.67624-5.34113 10.68375-6.671 16.02987-2.66988"/><path d="m441.11275 370.09568c-6.67775-4.00612-13.36-2.67137-17.3665 2.67625-4.00112 5.33613-2.67125 13.35013 2.67137 17.35613 6.68226 4.0065 13.355 2.67025 17.36113-2.67088 4.01137-6.67775 2.67025-13.35512-2.666-17.3615"/><path d="m537.27138 434.19831c-5.35-2.67125-13.36251-1.33513-17.37501 4.0125-3.99999 5.33612-2.66237 13.34862 4.0125 17.35512 5.35 4.006 13.35013 2.67088 17.36251-4.0065 2.67487-5.34112 1.33725-13.34862-4-17.36112"/><path d="m155.32275 221.85818c-4.0075 2.67138-10.69025 4.01138-14.69625.00638l.005-.00638z"/></g><path d="m95.225 327.36093v-26.71025l38.72875 26.71025z" fill="#f9d100"/></g><path d="m95.225 327.36093v-26.71025l38.72875 26.71025z" fill="none"/><path d="m95.225 396.80581v-34.72263h90.8125l50.74863 34.72263z" fill="#f9d100" fill-rule="evenodd"/><path d="m95.225 396.80581v-34.72263h90.8125l50.74863 34.72263z" fill="none"/><path d="m95.225 466.24931v-34.72225h192.30875l52.08275 34.72225z" fill="#f9d100" fill-rule="evenodd"/><path d="m95.225 466.24931v-34.72225h192.30875l52.08275 34.72225z" fill="none"/><path d="m95.225 534.35943v-34.72262h295.14012l52.08376 34.72262z" fill="#a77f29" fill-rule="evenodd"/><path d="m95.225 534.35943v-34.72262h295.14012l52.08376 34.72262z" fill="#f9d100"/><path d="m186.0375 221.85818h268.43v36.05888h-202.99112 1.32974c4.01138-6.67775 1.33513-16.02638-4.006-20.0325-6.67237-4.00638-14.69024-2.67125-20.03249 4.00612-2.66488 5.3425-2.67126 10.68375 0 16.02638h.005-1.33513c0-4.0075-1.34113-9.34375-5.3475-12.02-6.671-5.34113-16.025-2.67125-20.03113 2.67625-1.33112 4.00112-2.67125 6.67737-2.67125 9.34375h-21.36262c-1.33512-2.67138-1.34113-6.6725-1.34113-10.68388 5.34763 2.66988 12.02 0 16.026-5.3425 4.01138-5.34125 2.67138-14.68987-4.006-18.69625-1.33012 0-1.33625-1.32987-2.66637-1.33625" fill="#f9d100" fill-rule="evenodd"/><path d="m186.0375 221.85818h268.43v36.05888h-202.99112 1.32974c4.01138-6.67775 1.33513-16.02638-4.006-20.0325-6.67237-4.00638-14.69024-2.67125-20.03249 4.00612-2.66488 5.3425-2.67126 10.68375 0 16.02638h.005-1.33513c0-4.0075-1.34113-9.34375-5.3475-12.02-6.671-5.34113-16.025-2.67125-20.03113 2.67625-1.33112 4.00112-2.67125 6.67737-2.67125 9.34375h-21.36262c-1.33512-2.67138-1.34113-6.6725-1.34113-10.68388 5.34763 2.66988 12.02 0 16.026-5.3425 4.01138-5.34125 2.67138-14.68987-4.006-18.69625-1.33012 0-1.33625-1.32987-2.66637-1.33625z" fill="none"/><path d="m228.77263 292.63818h36.05887c-2.67137 5.34263-1.3415 12.025 1.32975 16.03138-9.34375 5.33625-18.69738 4.00612-26.70975-2.67625-5.33625-2.67125-8.0125-8.0125-10.67887-13.35513" fill="#f9d100" fill-rule="evenodd"/><path d="m228.77263 292.63818h36.05887c-2.67137 5.34263-1.3415 12.025 1.32975 16.03138-9.34375 5.33625-18.69738 4.00612-26.70975-2.67625-5.33625-2.67125-8.0125-8.0125-10.67887-13.35513z" fill="none"/><path d="m288.86888 292.63818h165.59862v34.72275h-110.845c1.33625-1.33512 4.00112-2.67137 5.33763-5.34262 4.01112-5.34125 2.67137-14.69025-4.00638-18.69625-6.67238-4.0065-14.68988-2.665-18.69725 4.006-4.00012 4.0065-4.005 10.68375 0 16.03137-1.33025 1.33013-1.33512 2.66638-2.67025 4.00638 2.67625-6.68263 0-13.36-5.34225-17.36638-6.67137-4.00612-14.69025-1.32987-18.69625 4.00638-2.66637 4.006-4.0065 9.35362-1.33513 13.36l-22.69887-.00488c-2.66987-4.0065-2.67475-9.34912-2.67475-14.68525 5.34612 2.66625 12.0185 0 16.02488-5.34762 2.67624-4.006 2.67137-10.68375.005-14.68988" fill="#f9d100" fill-rule="evenodd"/><path d="m288.86888 292.63818h165.59862v34.72275h-110.845c1.33625-1.33512 4.00112-2.67137 5.33763-5.34262 4.01112-5.34125 2.67137-14.69025-4.00638-18.69625-6.67238-4.0065-14.68988-2.665-18.69725 4.006-4.00012 4.0065-4.005 10.68375 0 16.03137-1.33025 1.33013-1.33512 2.66638-2.67025 4.00638 2.67625-6.68263 0-13.36-5.34225-17.36638-6.67137-4.00612-14.69025-1.32987-18.69625 4.00638-2.66637 4.006-4.0065 9.35362-1.33513 13.36l-22.69887-.00488c-2.66987-4.0065-2.67475-9.34912-2.67475-14.68525 5.34612 2.66625 12.0185 0 16.02488-5.34762 2.67624-4.006 2.67137-10.68375.005-14.68988z" fill="none"/><path d="m327.59762 362.08318h32.05126c0 4.00638 1.32987 8.0125 4.00112 12.01888-10.67875 4.006-20.03238 2.67625-28.04488-2.67125-2.66499-2.66988-6.67737-5.33625-8.0075-9.34763" fill="#a77f29" fill-rule="evenodd"/><path d="m327.59762 362.08318h32.05126c0 4.00638 1.32987 8.0125 4.00112 12.01888-10.67875 4.006-20.03238 2.67625-28.04488-2.67125-2.66499-2.66988-6.67737-5.33625-8.0075-9.34763z" fill="#f9d100"/><path d="m387.69387 362.08318h66.77363v34.72263h-9.34875v-1.33625c-5.34112-2.67125-12.02375-2.67125-16.02988 1.33625h-1.33124c1.33625-1.33625 2.66599-2.67125 2.66599-4.0075 5.34763 1.33625 12.01888 0 14.69026-5.34113 4.01137-6.67775 2.67125-14.68525-4.00651-18.69625-5.33612-4.0065-14.68975-2.66637-18.69624 4.011-4.001 4.00138-2.67088 10.67875 0 14.68525-1.32976 1.33475-1.33613 2.67088-2.67088 4.006 2.67625-5.34112 0-12.01887-5.34262-16.025-6.67138-4.00737-14.69025-2.66625-18.69626 4.00613-4.0015 5.3415-2.67125 12.01887 1.33513 17.3615h-22.69775c-4.006-5.34263-5.34613-10.68375-5.34613-18.69775 6.68238 1.33625 13.35363 0 16.02501-5.33613 2.67624-4.011 2.67125-6.67737 2.67624-10.68875" fill="#f9d100" fill-rule="evenodd"/><path d="m387.69387 362.08318h66.77363v34.72263h-9.34875v-1.33625c-5.34112-2.67125-12.02375-2.67125-16.02988 1.33625h-1.33124c1.33625-1.33625 2.66599-2.67125 2.66599-4.0075 5.34763 1.33625 12.01888 0 14.69026-5.34113 4.01137-6.67775 2.67125-14.68525-4.00651-18.69625-5.33612-4.0065-14.68975-2.66637-18.69624 4.011-4.001 4.00138-2.67088 10.67875 0 14.68525-1.32976 1.33475-1.33613 2.67088-2.67088 4.006 2.67625-5.34112 0-12.01887-5.34262-16.025-6.67138-4.00737-14.69025-2.66625-18.69626 4.00613-4.0015 5.3415-2.67125 12.01887 1.33513 17.3615h-22.69775c-4.006-5.34263-5.34613-10.68375-5.34613-18.69775 6.68238 1.33625 13.35363 0 16.02501-5.33613 2.67624-4.011 2.67125-6.67737 2.67624-10.68875z" fill="none"/><path d="m426.4225 431.52706h30.71625c0 2.67125 1.33013 5.3425 2.665 6.68375-9.34238 5.33612-18.69638 4-28.045-1.34125-1.32975-1.335-4.006-4.00638-5.33625-5.3425" fill="#a77f29" fill-rule="evenodd"/><path d="m426.4225 431.52706h30.71625c0 2.67125 1.33013 5.3425 2.665 6.68375-9.34238 5.33612-18.69638 4-28.045-1.34125-1.32975-1.335-4.006-4.00638-5.33625-5.3425z" fill="#f9d100"/><path d="m509.2215 466.24931h-1.33763c0-1.33475 1.33763-1.33475 2.66251-1.33475-1.32488 0-1.32488 0-1.32488 1.33475" fill="#f9d100" fill-rule="evenodd"/><path d="m509.2215 466.24931h-1.33763c0-1.33475 1.33763-1.33475 2.66251-1.33475-1.32488 0-1.32488 0-1.32488 1.33475z" fill="none"/><path d="m483.8465 431.52706h129.53725v34.72225h-68.09987c0-2.66988-2.67525-4.00613-4.0125-5.33625-5.33763-4.011-12.02488-2.67625-17.36251 1.33012 1.33763-1.33512 2.67488-2.67125 2.67488-4.00637 6.67512 1.33512 12.0125 0 14.68763-5.33625 5.35012-6.68225 2.66249-14.68975-2.67513-18.69725-6.67487-5.34613-16.025-2.67625-20.0375 2.66625-2.66237 5.34125-2.66237 12.025 0 16.031.0125 1.33025-1.32475 2.66537-1.32475 4.0065 1.33725-5.34763 0-12.019-5.35012-16.03138-6.66238-4.00612-16.02488-2.66487-20.025 4.01238-4 6.67137-2.67513 14.68387 4.00012 18.69137 1.35 1.33513 2.67475 1.33513 4.01237 2.66988h-24.03737c-6.67525-6.67738-10.68775-13.34875-9.35012-22.70238 5.35 1.33513 12.0125 0 16.025-5.33612 1.33762-2.67625 1.33762-5.34763 1.33762-6.68375" fill="#f9d100" fill-rule="evenodd"/><path d="m483.8465 431.52706h129.53725v34.72225h-68.09987c0-2.66988-2.67525-4.00613-4.0125-5.33625-5.33763-4.011-12.02488-2.67625-17.36251 1.33012 1.33763-1.33512 2.67488-2.67125 2.67488-4.00637 6.67512 1.33512 12.0125 0 14.68763-5.33625 5.35012-6.68225 2.66249-14.68975-2.67513-18.69725-6.67487-5.34613-16.025-2.67625-20.0375 2.66625-2.66237 5.34125-2.66237 12.025 0 16.031.0125 1.33025-1.32475 2.66537-1.32475 4.0065 1.33725-5.34763 0-12.019-5.35012-16.03138-6.66238-4.00612-16.02488-2.66487-20.025 4.01238-4 6.67137-2.67513 14.68387 4.00012 18.69137 1.35 1.33513 2.67475 1.33513 4.01237 2.66988h-24.03737c-6.67525-6.67738-10.68775-13.34875-9.35012-22.70238 5.35 1.33513 12.0125 0 16.025-5.33612 1.33762-2.67625 1.33762-5.34763 1.33762-6.68375z" fill="none"/><path d="m526.58375 499.63681h28.03737c0 1.33512 1.33763 2.67625 1.33763 4.00637-9.33725 5.34125-18.69975 4.00613-26.71225-1.33012-1.32525-1.34113-1.33763-1.34113-2.66275-2.67625" fill="#a77f29" fill-rule="evenodd"/><path d="m526.58375 499.63681h28.03737c0 1.33512 1.33763 2.67625 1.33763 4.00637-9.33725 5.34125-18.69975 4.00613-26.71225-1.33012-1.32525-1.34113-1.33763-1.34113-2.66275-2.67625z" fill="#f9d100"/><path d="m613.38375 499.63681v13.354c-1.32488-2.67025-2.67487-5.3415-5.33725-6.67125-6.67525-4.0125-14.70012-2.67638-20.03775 4.006-4.00013 5.33662-1.33725 14.69025 4 18.69625 5.35 2.66637 10.68762 2.66637 14.70012 0-2.67524 2.66637-5.35012 4.00637-8.01249 5.33762h-20.025c-1.33763 0-2.67525-1.33125-4.0125-1.33125-8.01238-5.34612-13.3625-13.36-12.02526-25.37887 5.35013 2.67125 12.02526 0 16.02538-5.33625.01238-.006 1.33725-1.34113 1.33725-2.67625z" fill="#f9d100" fill-rule="evenodd"/><path d="m613.38375 499.63681v13.354c-1.32488-2.67025-2.67487-5.3415-5.33725-6.67125-6.67525-4.0125-14.70012-2.67638-20.03775 4.006-4.00013 5.33662-1.33725 14.69025 4 18.69625 5.35 2.66637 10.68762 2.66637 14.70012 0-2.67524 2.66637-5.35012 4.00637-8.01249 5.33762h-20.025c-1.33763 0-2.67525-1.33125-4.0125-1.33125-8.01238-5.34612-13.3625-13.36-12.02526-25.37887 5.35013 2.67125 12.02526 0 16.02538-5.33625.01238-.006 1.33725-1.34113 1.33725-2.67625z" fill="none"/><path d="m131.28388 221.85818h6.67737c0 1.33625 1.33012 1.33625 1.33012 1.33625 5.3475 4.00638 13.35513 4.00638 17.36113-1.32987l18.70125-.00638c-2.67138 1.33625-5.34763 2.67138-6.68237 5.34263-2.66488 5.34112-2.67126 12.0185 1.33474 16.025-9.34225 5.3425-18.69624 4.00737-26.70875-1.33513-6.67237-4.00612-10.68375-12.01862-12.01349-20.0325" fill="#f9d100" fill-rule="evenodd"/><path d="m131.28388 221.85818h6.67737c0 1.33625 1.33012 1.33625 1.33012 1.33625 5.3475 4.00638 13.35513 4.00638 17.36113-1.32987l18.70125-.00638c-2.67138 1.33625-5.34763 2.67138-6.68237 5.34263-2.66488 5.34112-2.67126 12.0185 1.33474 16.025-9.34225 5.3425-18.69624 4.00737-26.70875-1.33513-6.67237-4.00612-10.68375-12.01862-12.01349-20.0325z" fill="none"/><g fill="#fff" fill-rule="evenodd"><path d="m567.98375 738.68568h-21.36225v-20.0325h-37.4v20.0325h-32.05025v-17.36112h1.32513c1.34999-2.67138 2.67487-2.665 2.67487-5.34125 1.33763-5.3425 1.33763-9.34363 0-14.69013.01237-9.34862 0-14.69125-1.33763-24.03362-3.99962-1.34-6.67487-1.34-9.34975-4.00638-5.33762-2.67625-6.67512-5.3475-10.68012-8.0125l-2.665-14.69612c-1.33612-6.67638-1.34113-9.34763-4.01238-16.02.00638-.005 0-1.34013-1.33512-1.34013-4.00113-1.33625-5.34225-1.33625-9.34875-2.67137-5.33613-2.67125-8.01237-5.34213-12.01888-9.34863-4.00112-5.34112-9.34862-8.0125-14.68987-10.68375-4.001-2.67125-6.67725-4.00612-12.01988-6.67737h-8.0125c-10.67887-1.33513-17.36112-4.00638-25.37362-6.67138-1.33012-.00637-2.67125 0-2.67125 1.33025-1.33025 1.33475-1.33513 2.67625-2.67137 4.006-1.33013 4.00638-2.67025 5.34763-5.34113 8.0125 1.33975-2.67125 2.67088-4.00612 4.006-6.67737 1.34112-1.33513 1.33513-2.66488 1.33513-5.34113-4.00138-2.67137-5.34113-5.33762-9.34763-8.014-4.001-2.66987-6.67737-5.33612-10.68375-8.0075-1.33125-1.34-1.33613 0-2.67125 0-4.00113-.00487-6.67738-1.34-10.68375 0-5.33625-.00487-9.34725 0-14.68987 0-1.33013-.00487-1.33513 1.33125-2.67138 1.33125-5.33612 1.33513-8.01238 2.66988-13.35362 5.34613-8.00888 4.0015-14.69126 5.33762-14.69126 5.33762 1.34113 4.0065 4.00613 10.68875 2.67126 16.025-1.33013 1.33613-1.33513 2.67125-2.67126 4.00638 1.34113-4.00638 2.67126-5.3415 1.33613-9.34263.005-4.01237-2.67125-8.0125-5.3425-10.68875-2.666 0-6.67738 0-10.68387 1.33513-1.32976 1.33475-2.67088 2.67137-2.67088 5.34762-6.67137-.00637-12.01887 1.32975-16.02538 1.32975-2.66599 1.33513-2.67087 5.34763-4.006 9.35363-2.66637 2.66525-4.00637 2.66525-6.67737 5.33662-2.66637 2.67088-5.34263 4.006-6.67775 5.34113.005 0-4.006 1.34112-5.34263 1.34112-1.32974-.00487-1.33474 1.33025-1.33474 2.66638.005 0 0 4.006 0 4.006.005 1.33512 2.67137 2.67137 4.00612 5.34162 1.3415 1.33613 4.00637 4.006 4.00637 4.006 1.34113-1.33512 2.67138-1.33012 4.00613-1.33012 2.67762-.005 4.0075 0 6.67762 0 .00613 1.33012-1.33512 1.33012-2.67012 1.33012h-2.671c-1.33013 0 0 4.0075 0 4.0075 2.67587 1.33513 4.006 1.33513 6.67737 1.33513h8.01251c2.67625 2.67125 5.34249 4.00612 9.34862 4.00612 2.67625 1.33513 5.34113 2.67125 9.34762 4.00638h6.67738c1.3415 0 0 2.67125 0 2.67125-4.00113 2.67137-6.67738 2.67137-10.68387 5.34612-4.00101 2.66638-9.34726 4.0075-10.68376 6.6725-2.66487 4.00638-5.34112 6.67763-8.0125 10.68375-4.00099 5.34263-6.67737 8.0125-10.68337 13.36-2.66637 1.33013 0 9.34375 2.671 9.34375h28.05013c1.33487 0 2.66499-1.33125 4.00112-4.0075 1.34012-1.33512 1.33513-1.32975 1.33513-4.00612 5.34762-2.67125 8.01249-4.00638 12.01862-6.67763 5.3475-4.00612 8.01387-6.67137 12.01987-10.68237.00538-2.67138-1.33474-4.0075-1.33474-6.67238-1.33125-1.3415-1.33613-2.67625-1.33613-5.34762.00488 2.67137 1.33613 4.00612 1.33613 6.67737 1.34012 2.67125 1.33474 2.67625 4.00612 5.34263.00487 6.67625 0 9.34762 0 16.02987.00487 5.33625 0 8.0125 0 14.69025-5.33737 1.32975-9.34875 4.006-10.68387 4.006-1.33113 1.33125-1.33613 4.0075-2.67088 5.33763.00487 1.33475 1.33475 4.00612 2.67088 5.34125h6.68125v17.36112h-32.04988v-20.0325h-37.39363v20.0325h-32.05124v-20.0325h-37.39401v20.0325h-21.36712c-28.04388-41.4-45.411375-92.14225-45.411375-146.90125l.004875-22.70375h518.15875v22.70375c0 54.75363-17.36263 105.50125-45.4 146.90125"/><path d="m439.77763 718.65318v20.0325h-32.05138v-17.36112h2.665c2.67625-2.67138 5.3425-6.67138 6.67762-9.34763 4.0125-5.34262 6.67738-8.0135 9.34875-13.35512.00488-4.006-1.33624-6.67238-1.33624-10.67838.00599-5.34762-1.33513-8.01287-2.67025-13.36012 1.34012 0 1.33512-1.33013 1.33512-1.33013 1.34112-1.34112 1.33513-2.67625 2.67137-5.3475-1.33025 2.67125-1.33624 2.67125-1.33624 4.00638-1.33013 1.33612-1.33513 2.67125-1.33513 4.0075l.005 1.33512v1.33475c2.67125 4.00638 4.0015 5.3475 8.0075 8.0125 5.34762 4.00638 9.34862 6.67763 16.02638 12.01988 1.34012 0 2.67137 1.34012 2.67137 2.67137 1.33962 1.33513 1.33475 5.3465 1.33475 8.0125h-8.0125c-2.666 1.33513-4.00613 2.67125-4.00613 5.3475-1.33112 1.33013-1.33612 2.66488.00501 4"/><path d="m371.66888 718.65318h-1.33613v20.0325h-32.05138v-20.0325h-6.67775c1.33651-4.00637 2.66638-9.3475 5.33663-14.68975 1.34112-6.67775 2.67088-9.34762 4.0075-16.02.00487-1.3415 0-1.3415 0-2.67625-1.33125-5.34262-2.67137-6.67775-4.0075-10.68387-1.33012-4.00638-2.67025-6.67763-2.67025-12.01888 1.34013 4.0065 1.33512 5.34125 1.33512 6.68275 1.34113 1.32975 1.33513 2.66488 2.67126 2.66488.00499 0 1.33475 0 1.33475 1.34112 2.67624-.005 6.67774 2.66638 10.68387 5.33625 5.3475 1.33513 6.67762 1.34113 12.01988 2.67125 5.3465 0 8.01287 1.33513 13.354 1.33513.00612 2.67137 1.33625 2.67137 1.33625 5.34762 2.67625 4.00113 4.00599 6.67238 6.67737 9.34225 1.34 0 1.33513 1.33613 1.33513 2.67625.00487 1.33125 0 2.66638 0 4.0015-1.33025 1.33613-1.33513 2.67625-1.33513 4.006-1.32987 0-4.00613 0-6.67737 1.33625-4.0015 1.33513-6.67738 4.00638-6.67738 8.01238.005 0 1.33475 1.3415 1.34113 1.33512"/></g><path d="m93.17875 283.07056 416.59262 283.9415-.71249 1.05137-416.596255-283.9415z" fill="#292a2b"/><path d="m95.21375 286.04556 408.6325 278.51775h-2.25l-406.3825-276.9775z" fill="#efeeef"/><path d="m127.43613 254.89206 13.27262 30.90475 33.655.765.54137.01275.21126.49112 13.35749 31.10488 33.37476.759.5415.01237.21112.49113 13.43763 31.29275 33.68237.765.54138.01237.21112.49113 13.274 30.909 33.45975.76112.5415.01275 13.56375 31.58363 33.96225.77137.54.01238.21112.49112 13.35651 31.10138 33.57112.7635.54.01137.21112.4915 13.35763 31.101 33.57.76388.54138.011.20974.4915 13.27501 30.90112 33.85024.769.53763.01238.21225.49112 13.35 31.09738 33.77525.7665.5375.01375.21225.49012 8.12513 18.92613h-1.08738l-7.72513-17.98513-.21262-.49637-.5375-.006-33.77487-.764-13.35013-31.09988-.2125-.49012-.53762-.01088-33.84988-.77287-13.27113-30.90225-.21362-.49-.535-.01138-33.5715-.7635-13.3575-31.095-.21375-.495-.536-.01137-33.5725-.764-13.35762-31.10488-.20863-.48512-.5425-.01975-33.75888-.76263-.28487-.19237-13.274-30.9065-.20862-.49113-.54388-.01237-33.36487-.7565-.1315-.0885-13.236-30.8265-.21013-.48963-.53863-.01387-33.28112-.75013-.56025-.37975-13.2785-30.92887-.2115-.48363-.5475-.01775-33.37225-.75762-13.35512-31.10488-.21613-.49362-.5375-.00875-33.6015-.765-.07975-.05388-13.24637-30.85475-.214-.4915-.53713-.00987-33.32125-.76013-1.36775-.92862-.02475-.05888 1.28475.03013 34.1125.77487.54.0125zm396.49749 292.30725.03763.09387-.14988-.09637zm28.98788 4.88275 5.43712 12.65625h-1.08737l-5.0375-11.71375-.19988-.494-.53749-.00738-20.025-.455-.1875-.005-.41238-.96862 1.28725.02862 20.01263.455.53749.01238zm-19.10025 1.705.09987.265-.39962-.27138zm-28.77487-34.07388 7.96249 18.54.51238 1.17138-1.09975-.00638-.10038-.21862-7.94974-18.54525-.21263-.48613-.54988-.01487-20.01262-.45888-.18737-.0035-.41251-.96387 1.28738.02875 20.0125.455.55.01237zm-19.10013 1.709.0375.08713-.1375-.09zm-28.7675-33.8815 7.95512 18.53888.51238 1.17112-.68737-.005-.57513-.3975-7.89125-18.36112-.20625-.4925-.54113-.01275-19.82862-.451-.53263-.3615-.259-.61725 1.28375.02975 20.01763.455.54138.01275zm-47.68013-32.36737 7.96151 18.5385.50387 1.1715-.68775-.005-.56975-.38513-7.89275-18.37987-.20625-.4865-.541-.01738-19.845-.4485-.51275-.34912-.26362-.626 1.28474.02862 20.01763.455.54.01238zm-47.67875-32.36738 7.96151 18.5385.50387 1.17-.69875-.0025-.55525-.37737-7.90125-18.38363-.20225-.4965-.5425-.01137-19.85038-.45-.50099-.33975-.26888-.635 1.28512.02875 20.01751.455.54249.01125zm-48.06737-32.36887 8.46487 19.71-.31737-.00138-1.0935-.74125-7.734-18.02237-.21362-.494-.54001-.00988-19.45737-.44112-1.04638-.71013-.11625-.27737 1.28488.02975 20.0175.45525.5415.0125zm-47.485-32.174 7.96113 18.54.50387 1.1715-.23488-.0015-1.20512-.81738-7.70875-17.94762-.21375-.495-.53613-.00988-19.37512-.43862-1.16112-.78875-.08401-.19875 1.28413.02862 20.01862.455.54001.01238zm-47.8725-32.55975 7.9615 18.53862.5035 1.17138-.33875-.0025-1.06375-.72138-7.7435-18.045-.214-.49112-.54-.01375-19.48113-.44013-1.01374-.68887-.12513-.29613 1.28513.03013 20.01762.45487.541.01238zm-47.48637-32.36775 7.96149 18.539.50388 1.17-.5425-.0025-.77275-.52375-7.83362-18.23775-.21363-.49363-.5375-.00987-19.68625-.4475-.725-.4925-.20762-.49013 1.28475.03013 20.01762.455.54137.01137zm-47.67875-32.175 7.96149 18.54.50388 1.17137-.2665-.00237-1.16363-.79025-7.71874-17.97475-.21263-.49263-.54-.01125-19.40238-.43875-1.11862-.76-.09775-.2285 1.28513.02975 20.01749.45388.54113.01387z" fill="#292a2b"/><path d="m126.75263 255.83218 13.26862 30.90713 33.659.7665.5375.00875.21613.49362 13.35512 31.10488 33.37225.75762.5475.01775.2115.48363 13.43725 31.29875 33.68262.76.53863.01387.21013.48963 13.27362 30.914 33.45875.7575.54388.01237.20862.49113 13.35512 31.094 33.96263.7675.5425.01975.20863.48512 13.35762 31.10488 33.5725.764.536.01137.21375.495 13.3575 31.095 33.5715.7635.535.01138.21362.49 13.27113 30.90225 33.84988.77287.53762.01088.2125.49012 13.35013 31.09988 33.77487.764.5375.006.21262.49637 7.72513 17.98513h-1.82525l-7.22475-16.83-32.2625-.73375-.01275-.045h.01275l-2.68763-1.82763.12513.31638-.88762-.02025-.21263-.136.9.006-12.84975-29.93238-32-.72612-2.48775-1.68125.06275.12612-.61275-.01375-12.83138-29.87862-31.68-.72-.02224-.0525h.08999l-2.834-1.92888.01138.03013-.4985-.01138-12.74525-29.68225-31.79138-.724-.01487-.035.1.00638-.0475-.11025-2.63625-1.78613h-.0485l.07612.16513-.48899-.01138-12.82851-29.87112-31.67649-.719-.02475-.05988h.06875l-3.19001-2.16737.19125.46625-.60762-.01275-12.83-29.87463-31.6775-.7215-.02375-.05625.449.00638-3.17525-2.1625.185.4485-.4975-.01088-12.74738-29.67775-31.78137-.72-.10975-.25362h.43862l-3.16237-2.14513.1785.4415-.60625-.01275-12.83137-29.87125-31.66726-.72-.02625-.05987.42388.00362-3.53625-2.40137.376.88762-.2775-.00637-.21613-.146.10988.00112-.0075-.01887.18387.0015-12.84762-29.90625-31.3735-.715-3.89025-2.64125.44512 1.06475-.02875-.001-12.82749-29.8825-32.260005-.73375-.02125-.0475 1.0825.00737-2.45375-1.665.10875.0025 34.116375.77888.53713.00987zm-36.124005-1.24512-.001-.0015-.02375-.05838zm461.605125 298.4375 5.0375 11.71375h-1.82488l-4.53749-10.564-18.1875-.411.03762.08862-2.3875-1.61862h-.11275l-.075-.19875 1.28763.03362 20.025.455.53749.00738zm-19.45.88862.46238 1.0825-.18738-.12112-.4-.96138zm-28.41237-33.25887 7.94974 18.54525.51276 1.16225h-.05l-.0375-.0925-2.50013-1.69975-7.2125-16.76013-18.0875-.41-1.975-1.34112-.5-.00138-.16262-.38875 1.28762.02625 20.01262.45888.54988.01487zm5.33737 18.36037-.5-.33775 1.05025.005.14987.34863zm-24.7125-17.27512.30013.70975-.02513-.01975-.29975-.69zm-28.50375-33.2525 7.96637 18.5375.27501.65987-1.92513-1.3175.12512.29375-.93762-.02125-.18737-.12862.61262.0025-7.25138-16.87888-17.60737-.39862-2.27762-1.54625-.33638-.005.3615.845-.61412-.41775-.25363-.61725 1.28012.03125 20.0225.456.54113.01275zm-47.67875-32.37375 7.96138 18.5375.28987.6775-2.09125-1.42513.07762.19738-.33275-.0075-7.22725-16.825-17.86-.411-.01887-.045h.17362l-2.46225-1.67138.72501.01488 20.01762.45387.541.01738zm8.46137 19.70612.00251.00638-.68488-.005-.02375-.01625zm-29.80624-19.76387-.44613-.30113-.26012-.62512.31012.00637zm-26.33888-32.30463 8.26012 19.21738-1.93637-1.31138.11875.2715-.945-.02275-.19987-.135.635.00638-7.25138-16.88275-17.6375-.39475-2.27237-1.54375h-.3125l.36887.856-.60875-.411-.26512-.64388 1.28487.03263 20.0165.4535.5425.01137zm-48.0575-32.36887 7.95513 18.5375.136.3185-1.92963-1.30988.2685.62888-.56125-.01275-.20125-.136.25513.0025-7.24888-16.88-17.24487-.38763-2.28626-1.54987-.69512-.005.21113.48725-.596-.406-.11863-.2775 1.28375.03225 20.01862.45387.54001.00988zm-47.48875-32.174 7.9625 18.53762.10525.24513-2.09137-1.41763.25974.61763-.33625-.0075-7.22862-16.83-17.84988-.4-.02362-.05388.62363.00388-2.4425-1.66.25125.006 20.01999.45387.53613.00988zm8.46238 19.7015.00399.0075h-.23499l-.02013-.01275zm-29.98588-20.18613-.44512-.30262-.08888-.20513.32.00888zm-26.34625-32.079 7.95613 18.5375.14237.33238-1.92362-1.30363.25475.61625-.57476-.01237-.20862-.1425h.2735l-7.251-16.875-17.26162-.39263-2.27976-1.54737-.67987-.00488.22.50838-.59775-.405-.12763-.30113 1.28526.03263 20.01862.4525.54.01375zm-47.48887-32.36387 7.96249 18.5375.5025 1.1725h-.045l-.28737-.675-2.5065-1.70463-6.94637-16.18412-17.47588-.39475-1.99388-1.35-1.10262-.00488-.16125-.38912 1.28125.034 20.0215.455.5375.00987zm5.9485 18.36775-.50238-.34263h.45488l.14537.34375zm-25.31863-17.28775.05775.13787-.03263-.02125-.04887-.11662zm-28.30862-33.256 7.96112 18.54.50387 1.171-.15375-.001-.42237-.994-.02375-.05238-2.35525-1.59487-6.83362-15.92013-17.19-.38862-2.28113-1.54775h-.06138l-1.11649-.006-.07863-.19625 1.27875.03362 20.02.4525.54.01125zm5.81349 18.09387-.09249-.06275h.06637zm-25.26874-17.20387.03012.07125-.10738-.07263z" fill="#efeeef"/><path d="m528.58387 564.73831-7.48774-17.43125-33.64963-.76888-.53762-.01-13.57513-31.59737-33.375-.759-.545-.00988-13.65138-31.78387-33.68225-.766-.539-.01388-.20862-.4925-13.27362-30.90762-33.46013-.765-.5425-.00988-.20625-.49362-13.3575-31.0865-33.96225-.77488-.54388-.00987-.20524-.4915-13.35963-31.1035-33.57388-.7615-.53612-.01088-.2115-.4915-13.35862-31.10387-33.57251-.765-.53512-.00988-.2125-.49112-13.26863-30.90125-33.85249-.765-.54238-.01763-.21262-.48612-13.35013-31.0975-33.77375-.77-.53362-.01138-.21363-.4935-13.57025-31.58762-.499875-1.17238 1.15125.00738 2.475 1.67987-1.0825-.00737 12.855125 29.93387 32.28237.73088-.44512-1.06475 4.08262 2.77237-.90387-.005 12.85262 29.93 32.28738.73375-.376-.88762 3.53625 2.40137-.42388-.00362 12.84875 29.93112 32.28238.73275-.1785-.4415 3.16237 2.14513h-.43862l12.84975 29.92987 32.28625.73238-.185-.4485 3.17525 2.1625-.449-.00638 12.85375 29.93238 32.28512.73275-.19125-.46625 3.19001 2.16737h-.06875l12.85124 29.9325 32.1675.72888-.07612-.16513h.0485l2.63625 1.78613.0475.11025-.1-.00638 12.76512 29.71625 32.28488.73638-.01138-.03013 2.834 1.92888h-.08999l12.85612 29.93112 32.29025.73375-.06275-.12612 2.7 1.82875h-.11237v.01875l-.17501-.00638 12.84975 29.91613 32.27538.73275-.12513-.31638 2.68763 1.82763h-.01275l7.55 17.60875zm-419.70012-283.7165-7.965-18.54-.50638-1.17238 1.27775.00738h.06138l2.4785 1.68125-1.27488-.00488 7.25238 16.87388 18.1875.415-.51737-1.23138 2.53387 1.7175.02375.05238.5035 1.18525-1.28725-.02125-20.02263-.45888-.53637-.01625zm47.86625 32.36537-7.95625-18.539-.50375-1.171 1.14512.00488 2.48 1.67987-1.08387-.00137 7.24887 16.874 18.19138.41487-.4465-1.05737 2.53275 1.7235.45 1.06012-1.28412-.03112-20.01713-.4525-.544-.01388zm47.87887 32.175-7.96249-18.539-.50488-1.171.67987.00488 2.47613 1.67987-.61625-.00237 7.25 16.875 18.19238.41737-.25475-.61625 2.53625 1.71888.25375.61625-1.28013-.02775-20.02263-.451-.541-.01138zm47.67875 32.36488-8.46499-19.71138.685.00388 2.4775 1.68375-.62363-.00388 7.2485 16.88 18.18987.41138-.25974-.61763 2.53887 1.72138.25975.6225-1.28875-.03013-20.01513-.4535-.54249-.01387zm47.67976 32.36637-7.96251-18.539-.50487-1.16612.69512.005 2.47863 1.67987-.63-.00887 7.24637 16.88287 18.19238.40988-.2685-.62888 2.53875 1.72138.26713.63387-1.28863-.02662-20.01613-.45988-.5415-.01zm48.05999 32.36988-7.95462-18.5375-.50387-1.17h.3125l2.4785 1.68475-.25475-.00488 7.24999 16.87388 18.19738.41887-.11875-.2715 2.53238 1.715.11912.2775-1.28275-.02625-20.02-.455-.541-.01137zm47.49026 32.176-7.96388-18.5385-.5035-1.1715h.236l2.47987 1.68275h-.17362l7.2525 16.87112 18.18637.41738-.07762-.19738 2.53237 1.72638.08763.19625-1.28737-.02763-20.01901-.4525-.5375-.01987zm47.87012 32.55625-7.95762-18.5375-.50138-1.1735.33638.005 2.47637 1.68125-.27388-.0025 7.25138 16.8835 18.19487.40887-.12512-.29375 2.525 1.72488.1375.29375-1.28738-.03113-20.0225-.455-.54-.01137zm47.4885 32.37275-7.9625-18.5375-.5-1.17388.5375.00138 2.475 1.68125h-.47475l7.24988 16.875 18.18749.416-.20025-.48463 2.53776 1.72338.19987.484-1.27488-.02763-20.025-.45387-.53762-.01588zm44.5875 24.97-4.87487-11.3375-.50001-1.1675h.26263l2.48738 1.67987h-.20013l4.63738 10.82513z" fill="#292a2b"/><path d="m94.106375 224.91568 498.889875 340.03488h-2.76237l-496.13738-338.15225h.009875z" fill="#292a2b"/><path d="m99.319 221.86206 503.37737 343.0885h-2.825l-503.36862-343.0885z" fill="#efeeef"/><g fill="none" stroke="#efeeef" stroke-miterlimit="2.613"><path d="m125.695 223.34218c1.42262 11.47738 6.32875 20.68725 17.44612 25.85475" stroke-width="1.274875"/><path d="m169.852 250.47893c.02587 5.87975 1.969 12.17475 7.32825 19.21" stroke-width="1.77375"/><path d="m223.83438 274.51806c-2.27738 5.8795-2.80038 12.17412-.19775 19.20975" stroke-width="1.51475"/><path d="m266.48012 314.89381c-.18737 6.30387 1.41701 12.39375 6.216 18.10062" stroke-width="1.5055"/><path d="m320.40613 341.17018c-2.18238 6.02938-2.59476 12.32688.1495 19.10025" stroke-width="1.477875"/><path d="m363.65387 380.10581c-.27137 3.92712.43663 8.026 2.88038 12.43662" stroke-width="1.771625"/><path d="m416.75675 405.92456c-2.18162 6.03062-2.59375 12.326.15125 19.10125" stroke-width="1.477875"/><path d="m459.73813 445.77218c-.24238 6.2465 1.34474 11.75213 6.19762 15.93988" stroke-width="1.77125"/><g stroke-width="1.469375"><path d="m512.13012 472.42143c-1.4835 6.22063-1.17062 12.49113 2.34863 18.85075"/><path d="m556.90025 511.27056c-.44263 6.37762.89537 12.51175 5.40987 18.20837"/><path d="m609.61475 536.86243c-1.92825 6.09625-2.07112 12.37288.98188 18.97013"/></g></g></g></svg>