<svg height="229.82137" width="200" xmlns="http://www.w3.org/2000/svg"><path d="m0 .00603h200l-.03426 49.68806c0 111.17606-100.06807 180.12727-100.06807 180.12727s-99.89767-68.95103-99.89767-180.12727z" fill="#f80804"/><path d="m53.69789 0 94.22804 119.78567s-11.34796-9.66858-18.19456-12.28471c-5.25914-2.00956-11.39574-3.0627-15.98563-12.76913-6.0616-12.81873-15.46291-19.85671-30.44052-25.86767-12.93131-5.18972-11.25978-22.28353-24.72445-28.89039-11.85291-5.81601-15.91391-2.55916-25.15073-18.67897-3.57281-6.23516-10.03704-11.19964-10.03704-11.19964-5.40696-3.79028-12.82308-2.18609-19.0665-5.23166-2.28783-1.11602-3.49054-3.6068-4.32096-4.82475 1.09659 6.28615 2.19126 6.83873 10.01766 10.05641 12.32402 5.06681 14.26433 13.4228 19.14401 24.80196 4.41813 10.30285 19.11892 11.39577 24.70507 21.77921 6.51957 12.11849 9.98821 23.86639 26.33269 31.06057 14.74362 6.48954 16.72902 23.65737 25.55764 30.67304 9.10176 7.23273 16.70222 6.46453 22.41864 16.87695 2.56034 4.66366 8.14667 13.63946 8.08001 14.43551l-136.25572-104.01318 143.63818 143.27002c14.84348-17.19643 30.44106-39.44656 41.44638-66.05457z" fill="#ffe000"/></svg>