<svg height="1000.3977" width="743.8537" xmlns="http://www.w3.org/2000/svg"><g transform="matrix(1.2464548 0 0 1.2464548 944.583977 -22.335385)"><g fill="#d5312b" transform="matrix(1 0 0 .99295171 -319.42808 43.532879)"><path d="m-438.38839-18.05928 305.81647-2-7.43522 802.55526c-10.74352-26.62646-36.80491-48.35329-55.19062-48.35329h-169.33529c-73.46833 0-73.85529-68.10322-73.85529-68.10322z"/><path d="m158.38711-18.089926-305.81646-2 7.43522 802.555266c10.74352-26.62646 36.80491-48.35329 55.190616-48.35329h169.335284c73.46833 0 73.85529-68.10322 73.85529-68.10322z"/></g><path d="m-757.816448 17.91913h596.77234v258.39258h-596.77234z" fill="#395c98"/><path d="m-611.70204 265.24938-45.28864-92.62038 49.71535 72.52993-33.37058-92.62038 48.69379 81.04283-33.37057-92.62037 46.6507 85.81005-26.90076-97.3876 41.88347 94.66347-20.09045-97.38759 36.77574 91.59881-21.112-99.43068 28.26283 83.08591-16.34477-98.74966 27.5818 88.19366-13.62064-101.473784 23.83613 91.258304-7.83187-104.538432 21.11199 92.960882-3.40516-103.857397 17.36632 95.685017 2.72413-103.516886 11.91807 102.154816 6.12929-108.284105 11.23703 105.219465 7.15084-107.603077v120.542687c-40.20248.59475-66.37902 19.84738-89.21522 61.63341-56.75447-6.00767-70.48682 33.7111-70.48682 33.7111z" fill="#edbb32"/><g transform="matrix(-1 0 0 1 -112.91252 .67922)"><path d="m167.30519 604.53977 30.09765.48156-3.13016-11.07593 32.74625 14.20609-16.13234-24.19852-37.08031-7.82539c-2.92637 4.96922-5.4994 12.17635-7.46422 23.23539z" fill="#e5b100"/><path d="m205.40129 586.96181c10.14319 84.95974 84.01378 135.20594 117.22267 48.86406l6.72519-228.91195 2.89439 1.70258 5.4633 277.83104 1.95797 7.53391.0468 6.90579c-66.57662 57.39764-147.13417-3.50342-154.74128-110.43514l-2.55388-9.70471z" fill="#ead566"/><g transform="matrix(-1 0 0 1 678.97841 -.010328)"><path d="m167.30519 604.53977 30.09765.48156-3.13016-11.07593 32.74625 14.20609-16.13234-24.19852-37.08031-7.82539c-2.92637 4.96922-5.4994 12.17635-7.46422 23.23539z" fill="#e5b100"/><path d="m205.40129 586.96181c10.14319 84.95974 84.01378 135.20594 117.22267 48.86406l6.72519-228.91195 2.89439 1.70258 5.4633 277.83104 1.95797 7.53391.0468 6.90579c-66.57662 57.39764-147.13417-3.50342-154.74128-110.43514l-2.55388-9.70471z" fill="#ead566"/><path d="m329.17613 384.49111.12039 7.705-38.04343-.24079-17.42932 3.34596s-14.38621.48655-22.72944.5959c-2.52628-5.05876-8.1085-9.37452-13.26803-9.37452s-13.86143 4.5472-13.86143 13.89241 8.04157 13.43215 13.54364 13.43215 10.17169-3.23893 13.16017-8.07507c8.51518.41516 24.00638.68103 24.00638.68103l17.45145 4.85236 36.946-.0851-3.02653 227.05412c-5.047 26.14016-24.18162 48.21739-50.28995 46.98737-26.10833-1.23003-70.02552-34.917-74.79591-91.89307l-5.17679-4.33406-4.09328 3.97289c1.02403 91.55853 78.94746 161.22655 147.77948 100.88734l.4995-339.20026c-17.42806.71864-23.22521-10.87554-23.37404-19.85426-.13903-8.38798 6.17399-20.2377 23.35614-22.10218l-.0602-20.04504c-12.77292.86223-36.00176 4.56383-43.7018 38.34441-3.09305 23.24511 14.12269 36.84617 32.987 53.45341z" fill="#edbb32"/><g stroke="#757575"><path d="m164.68535 609.93019c1.88465-32.89064 15.43508-59.05101 33.95015-82.34718 12.50143 25.51683 21.83164 51.93972 29.85688 78.73546-24.94919-21.72042-35.33334-28.61548-63.80703 3.61172z" fill="#edbb32"/><path d="m198.33322 528.82114c-2.27634 19.77565-3.48459 39.3733-1.92625 58.50984" fill="none"/></g></g><path d="m329.17613 384.49111.12039 7.705-38.04343-.24079-17.42932 3.34596s-14.38621.48655-22.72944.5959c-2.52628-5.05876-8.1085-9.37452-13.26803-9.37452s-13.86143 4.5472-13.86143 13.89241 8.04157 13.43215 13.54364 13.43215 10.17169-3.23893 13.16017-8.07507c8.51518.41516 24.00638.68103 24.00638.68103l17.45145 4.85236 36.946-.0851-3.02653 227.05412c-5.047 26.14016-24.18162 48.21739-50.28995 46.98737-26.10833-1.23003-70.02552-34.917-74.79591-91.89307l-5.17679-4.33406-4.09328 3.97289c1.02403 91.55853 78.94746 161.22655 147.77948 100.88734l.4995-339.20026c-17.42806.71864-23.22521-10.87554-23.37404-19.85426-.13903-8.38798 6.17399-20.2377 23.35614-22.10218l-.0602-20.04504c-12.77292.86223-36.00176 4.56383-43.7018 38.34441-3.09305 23.24511 14.12269 36.84617 32.987 53.45341z" fill="#edbb32"/><g stroke="#757575"><path d="m164.68535 609.93019c1.88465-32.89064 15.43508-59.05101 33.95015-82.34718 12.50143 25.51683 21.83164 51.93972 29.85688 78.73546-24.94919-21.72042-35.33334-28.61548-63.80703 3.61172z" fill="#edbb32"/><path d="m198.50348 528.82114c-2.27634 19.77565-3.48459 39.3733-1.92625 58.50984" fill="none"/></g></g><path d="m-292.43054 265.23375 45.28864-92.62038-49.71535 72.52993 33.37058-92.62038-48.69379 81.04283 33.37057-92.62037-46.6507 85.81005 26.90076-97.3876-41.88347 94.66347 20.09045-97.38759-36.77574 91.59881 21.112-99.43068-28.26283 83.08591 16.34477-98.74966-27.5818 88.19366 13.62064-101.473775-23.83613 91.258295 7.83187-104.538427-21.11199 92.960877 3.40516-103.857392-17.36632 95.685012-2.72413-103.516881-11.91807 102.154811-6.12929-108.2841-11.23703 105.21946-7.15084-107.603072v120.542682c40.20248.59475 66.37902 19.84738 89.21522 61.63341 56.75447-6.00767 70.48682 33.7111 70.48682 33.7111z" fill="#edbb32"/><path d="m362.30913 361.3699c0 12.83522-10.405 23.24023-23.24022 23.24023s-23.24022-10.40501-23.24022-23.24023 10.405-23.24022 23.24022-23.24022 23.24022 10.405 23.24022 23.24022z" fill="#edbb32" fill-rule="evenodd" stroke="#757575" transform="translate(-791.068909 1.084603)"/><path d="m333.87602 354.43188c0 3.31459-2.68701 6.0016-6.0016 6.0016s-6.0016-2.68701-6.0016-6.0016 2.68701-6.00159 6.0016-6.00159 6.0016 2.687 6.0016 6.00159z" fill="#f6f986" fill-rule="evenodd" transform="translate(-787.570179 -.571298)"/><g stroke="#757575" transform="translate(-728.07524 -30.112698)"><path d="m63.86379 601.95862c24.94717-71.38596 60.3557-138.88627 107.77335-201.92605-98.24938 47.80799-117.49626 119.89622-107.77335 201.92605z" fill="#807373"/><path d="m98.28656 493.30064c-2.68609-6.90152 1.21658-21.94828 14.20609-18.78093l359.24561 196.71827-13.24297 18.05859z" fill="#cfc7c5"/><path d="m536.39797 654.08606c0 5.85342-2.80134 10.59856-6.25698 10.59856s-6.25698-4.74514-6.25698-10.59856c0-5.85343 2.80134-10.59856 6.25698-10.59856s6.25698 4.74513 6.25698 10.59856z" fill="#bdc6c7" fill-rule="evenodd" transform="matrix(.95002092 .56356411 -.62349608 .85870257 370.48631 -179.56058)"/><g fill="#cfc7c5"><path d="m80.58913 484.51213-8.42734-4.93602c-1.1343-12.08138 4.39109-18.61303 14.80805-21.06836l7.58461 4.93602-9.51086 25.04125z"/><path d="m63.61406 601.53181c-.50861-68.65303 14.14949-136.6912 107.62921-201.5339-99.76879 49.03102-115.56679 121.91173-107.62921 201.5339z"/></g></g><g transform="translate(-288.49956 -23.839246)"><path d="m-12.019848 470.02394c2.1712801-3.39534 4.5112401-4.98237 9.1788901-4.29275 1.31614-3.38622 2.57867004-6.82407 9.87203-4.45445.68252-4.01271 2.82323-6.56724 9.1496899-4.93602 1.80832-5.79721 5.19096-5.07226 8.54773-4.45445 1.08569-4.06724 4.4028-3.87451 7.94578-3.25055-1.04941-7.20864-2.20255-14.49857 4.93602-15.2896 5.5266-.51381 11.6395 6.48391 16.13234 14.56726s9.36608 17.97002 3.49133 23.35578c-4.2669 2.89872-8.09543-.55897-11.91867-4.09328-1.54421 3.87788-4.02835 5.79047-8.06617 4.45445-.0889 3.97879-1.45214 6.99084-8.06617 6.01953-.90727 2.85066-1.07346 6.14596-8.54774 5.05641-.94232 6.2355-4.72422 6.61438-9.27008 5.41758-1.10017 5.26431-4.0580699 7.39981-9.4695399 5.40297z" fill="#cfc7c5" stroke="#757575"/><path d="m-20.721468 472.22198-338.473002 200.64911-10.47087 21.53765 20.77149 1.61745 344.3072321-195.92348z" fill="#cfc7c5" stroke="#757575"/><path d="m-21.441308 489.32775-345.641472 203.46015 347.146352-198.37364z" stroke="#000"/><path d="m-34.682628 430.33851 59.2498 101.81431-19.0688999 13.96116-9.87497-44.94813-17.8471501-7.38364 1.44469-21.42953-31.90351-30.45883z" fill="#cfc7c5" stroke="#757575"/></g><path d="m-462.875 411.86218-6.4375 224.75 33.78125-.0625-6.4375-224.625-15.15625 5.625z" fill="#ead566"/><path d="m-462.875 411.98718-3.5 262.75 13.98134 19.87317h.11049l13.33005-55.70129-3.03281-226.98675z" fill="#edbb32"/></g><path d="m372.24753 173.30374 8.81497-134.843533 8.875 134.906253c-8.27889 29.00646-13.24719 12.33886-17.68997-.0627z" fill="#eebb32"/><g stroke="#747574"><path d="m581.36313 528.32322 17.51955 27.88826"/><path d="m593.75792 523.07927 16.68528 26.21974"/><path d="m605.19926 516.64351 15.85102 26.57729"/><path d="m615.80633 511.51875 15.3743 23.9553"/><path d="m625.69833 507.10906 15.73184 22.88269"/></g></svg>