<svg height="1500" viewBox="0 0 595.31249 396.87501" width="2250" xmlns="http://www.w3.org/2000/svg" xmlns:xlink="http://www.w3.org/1999/xlink"><radialGradient id="a" cx="297.65631" cy="98.562439" gradientUnits="userSpaceOnUse" r="124.98129"><stop offset="0" stop-color="#fd5"/><stop offset="1" stop-color="#fd5" stop-opacity="0"/></radialGradient><g transform="translate(0 99.875)"><path d="m0-99.875h595.3125v396.875h-595.3125z" fill="#f9df39"/><path d="m0-99.875h595.3125v198.4375h-595.3125z" fill="#402b6e"/><g stroke="#520"><g stroke-width=".7"><circle cx="297.65625" cy="98.562508" fill="#f4cc50" r="132.02614"/><circle cx="297.65625" cy="98.562508" fill="#f4cc50" r="127.01503"/><circle cx="297.65625" cy="98.562508" fill="#aa439b" r="124.63129"/><circle cx="297.65631" cy="98.562439" fill="url(#a)" r="124.63129"/></g><g fill="#37365e" stroke-width="1.657573" transform="matrix(.42415979 0 0 .42045687 146.938 76.713692)"><path d="m217.75841 233.41427h278.3051v15.275h-278.305z"/><path d="m223.05018 248.68927 5.29167 7.33753h128.665 128.66501l5.29167-7.33753h-133.95668z"/><path d="m228.34185 256.0268h257.33001v60.78333h-257.32991z"/></g><g fill="#f4eed7" stroke-width="1.657573" transform="matrix(.42415979 0 0 .42045687 146.938 76.713692)"><path d="m387.81429 123.3825c.20932 10.8364-.13427 26.60575 11.89266 38.76824 8.59025 8.34341 14.00004 15.66252 15.45113 18.72863 7.56628 17.13268-1.79221 27.82998-2.24743 30.52765-.5122 1.59831-.0933 3.26952.60867 4.26075-.18612 1.704-.36379 2.75309-1.17054 3.79256-1.32571-.25332-3.12036-.87828-4.30757.56184-3.31048 4.84289-4.10679 9.49117-7.1169 13.3921h18.2992c1.91459-1.06165 3.27389-8.9095 3.14509-10.58279-.20222-1.20698-2.10062-1.57313-2.34109-2.62202l.93645-2.43471c.55096-1.1314 2.62157-.4983 2.80929-3.18387.47968-8.59296 2.38555-14.64683 3.65209-21.25697 1.08495-6.28533 5.26254-12.60525 6.27407-17.88586.73478-5.02382-2.68026-5.16256-3.60304-14.74867-1.08166-11.23662 4.87287-21.41788 5.85047-32.44744" fill="#604125" stroke-width="1.657573"/><path d="m1585.082 1996.2129c-4.5548 10.2319-8.3527 19.9101-15.0625 28.6055h69.1621c4.9516-2.7457 8.9208-17.5006 10.7774-28.5704-17.3834 7.6158-41.7649 2.65-64.877-.035z" fill="#000" stroke-width="6.264842" transform="matrix(.26458333 0 0 .26458333 -14.476489 -302.31906)"/></g><path d="m232.13341 92.163112c1.90918 11.311538 5.46937 13.706128 9.6616 22.216978" fill="none" stroke-width=".7"/><g stroke-width="1.657573" transform="matrix(.42415979 0 0 .42045687 146.938 76.713692)"><path d="m245.08896 127.72471c1.87651 13.39522-.4805 30.13506 7.15128 45.42396.99284 4.38277.83666 10.20757.52974 14.96472-1.49298 15.88792-4.02454 17.51924-6.88644 21.98362-1.16357 1.7723.53936 2.93034.92702 4.37023-1.56735 1.52227-1.79467 2.97402-1.85403 5.16483-1.73314.68267-4.31368.75589-5.15289 2.08148l-6.63351 11.70072h19.2031c2.60333-2.46403 4.53131-7.1899 4.8994-9.80927l-2.38376-3.04591c.4831-.79583.66273-1.7434.3973-2.91349 1.06652-.38846 2.07459-.84998 2.64863-1.85404 1.23553-2.40844.21529-11.33278 2.78107-20.79172 1.81638-7.54278 9.22533-19.33939 10.59449-23.70521 3.39104-8.91825 4.59097-21.80703 6.88645-32.71055" fill="#604125"/><path d="m237.31374 226.10534-4.14385 7.30879h19.20348c1.98874-1.88232 3.58322-5.08468 4.38938-7.6595-3.28303.98163-13.10607 1.26556-19.44901.35071z"/></g><path d="m213.44487 105.91193c4.34757 4.39981 10.96629 5.24226 14.89487 2.79547l.63552.90558c-4.84329 2.67151-10.3715 2.3363-16.1659-3.26795z" fill="#7b0809" stroke-width=".7"/><path d="m234.49629 78.429652c4.03816.66934 7.98365-.0525 13.78272 1.33868 5.37048-1.06574 7.74448-.43898 9.21495 1.10244 3.0288-4.89874 8.22718-5.3829 11.31977-4.13335 3.93513 1.58997 5.86428 5.77889 5.04472 10.27552l46.75002-.00004c1.86606-1.15115 4.30924-2.56411 5.36215-2.59857 2.40702-.011 5.57717.72159 8.5422 1.24617 3.19814.56583 5.64126.70492 7.66341 1.35244 3.5099.91006 4.5413 2.99232 7.26869 4.56725l.11917 8.543918c.51495 10.3756.30452 18.95148-.55608 27.48227-.1276 1.83043-1.82995 4.4587-2.74066 7.52023l-22.12383 1.41742c-2.56854-1.50344-5.65343-1.97156-7.70562-1.81115-4.7278.46537-6.75495 2.74933-9.69158 6.02405 0 0-.67827.8377-2.27524.68182.66918-.7721.62591-1.70426.20981-1.70552-2.37826-2.18823-5.77639-.93973-8.14252-.51184-5.2714.95025-11.1967 2.48742-16.92057 2.36237-4.12266-.18836-11.25215-1.93453-15.05374-2.08676-2.40999-.24629-4.28149.7663-7.38786.55121-4.23059-.43405-6.34194-4.52783-9.69159-4.60662-1.46244.0272-3.69645-.0914-4.52804-1.65366-2.07039-5.36526-2.98349-11.34699-5.08411-16.30037-.82053-1.60611-8.65494-3.55446-11.35982-12.16623.72801-1.73877 7.98365-26.891678 7.98365-26.891678z" fill="#604125" stroke-width=".7"/><g stroke-width="1.657573" transform="matrix(.42415979 0 0 .42045687 146.938 76.713692)"><path d="m163.64368-13.910636c15.51382-.06584 15.55468 9.0810214 15.75933 14.83230322l9.07155-1.85401477c-.4704-7.12032875-5.08508-11.26802945-7.21868-12.91421245-5.24847-4.049451-13.74238-3.831396-17.6122-.06408z" fill="#997e6b"/><path d="m198.09337 37.418123c3.09752 20.91997-3.10462 28.430985-10.48804 30.621285-8.1884 1.695815-13.23489-2.372285-22.75526-1.404635-7.75892.750485-8.90932 3.940925-12.64182 6.36773-2.10566 1.000755-4.6196-1.03067-5.89952-3.37115-2.3668 1.417565-4.99725.245005-7.11688-.56186-3.12055-8.904125-9.64524-12.39211-9.83252-16.481195 1.49779-3.870515 10.81393-7.09488 15.73203-13.110025 7.39258-8.3429 8.92732-15.26383 15.35748-22.75528 4.70225-6.7246799 9.61403-8.0533049 13.29732-12.0799599 2.33675-1.953275 3.19257-4.78992495 5.99316-6.74231 8.81301-.23751 13.30382.4318 17.04304 1.49829505 5.25059 1.10838 7.02022 2.92787995 9.64524 4.68214995l7.21052.84279" fill="#604125"/><path d="m129.35933 52.588298c.55802-2.174535 2.92619-3.70886 5.01702-4.852125-.11938.816655-.77502 1.63331.0662 2.449965 3.46787.52901 4.29742.99997 5.36347 1.85404.76615.904945.83789 1.809895.72837 2.714845-2.01741-.249395-3.0339-.27087-5.36347 0-1.73643 1.88487.87127 2.31355.52973 4.56888l-.0662 2.71485c-2.20575-3.13386-6.26262-6.003275-6.27513-9.450455z"/><path d="m184.89891-.13777723c7.80233.36062027 7.56413-6.20732417 5.58642-10.31776277-1.47778-3.071384-6.02809-8.29998-15.58499-10.010448 4.84754-2.988364 15.97867-1.902954 22.39284 6.646864 4.36245 5.8149617 5.56602 24.144414-6.89836 24.871811-1.46627.127759-3.82546.385499-4.93335.04122-4.91976-2.9155729-3.4722-8.7833615-.56256-11.23168423z" fill="#997e6b"/><path d="m146.30873 69.631339c4.88318-3.239605 11.83233-6.385888 11.61174-10.019785" fill="none"/><path d="m146.75868 46.411856c1.61083-1.856252 2.11417-1.941078 3.57564-3.31078 1.17686-.549565 1.94769-.624702 2.44999-.331074-2.19474 1.665441-4.50693 3.184056-6.02564 5.694536z"/><path d="m160.96387 33.672391c1.98359-.752793 2.66972.827459 4.40123 1.170555.0158 0-1.68076 1.357808-2.57519 1.357808-1.61612-.294158-1.70438-.610018-1.82604-2.528363z"/><path d="m161.43208 29.505295c.57834-3.418343.27462-7.409284 3.93301-7.866039 7.45171.754157 4.05232 5.550883 5.80588 8.427879l1.03007.702336-2.57519.842768c-2.11418.06418-4.47876-1.141289-6.83594-.795963-.51135-.110123-.8704.388993-1.26418.749168-.37975-.0027-.71994-.07452-.60868-.936449z" fill="none"/><path d="m161.43208 29.505296c.57834-3.41834.97694-4.69363 3.6989-5.197211 3.84645.426409 2.08582 1.992451 3.83938 4.869441l3.23068 1.59195-2.57519.84277c-2.11418.0642-4.47876-1.14129-6.83594-.79597-.51135-.11012-.8704.389-1.26418.74917-.37975-.003-.71994-.0745-.60868-.93645z" fill="none"/><path d="m161.43208 29.505296c.57834-3.41834 1.12593-4.991601 3.6989-5.19721 3.6147.01256 2.08582 1.99245 3.83938 4.86944.34063.351524.79457.363137 1.21735.468233.0695.798133-.24291 1.384137-.56186 1.966487-2.11418.0642-4.47876-1.14129-6.83594-.79597-.46854-.05762-1.00761-.792714-1.35783-1.31098z" fill="#fff"/><ellipse cx="163.98218" cy="27.913342" rx="2.081887" ry="2.809293"/><path d="m164.33503 19.672755c3.56984-2.727027 5.5636-1.471547 8.80245.468226-.47852-.319011-.87474-1.930451-1.20003-2.465506-.49551-.815039-1.18681-1.469152-3.38849-1.701609-3.38264.228999-4.14624 1.996582-4.21393 3.698889z"/><path d="m190.7921 29.19578c-7.01839-3.529794-6.89318-11.054957 4.23781-16.024196 6.69321-2.825097 10.79586-2.689556 15.09717-2.781061 5.61944.254443 11.7849 2.247046 15.75933 1.456742-9.52063 6.694508-11.55322 19.388473-25.02952 19.202543-3.6163.159745-7.31039-.591784-10.06479-1.854028z" fill="#997e6b"/><path d="m190.7921 29.195775c-7.01839-3.52979-6.89318-11.05495 4.23781-16.02419 6.69321-2.8251 10.79586-2.68956 15.09717-2.78106 5.61944.25444 11.7849 2.24704 15.75933 1.45674-6.5208 3.970049-15.74036 2.261364-20.90044 4.362277-6.89819 2.808582-9.55208 7.672307-4.12908 14.840263-3.6163.15975-7.31039-.59178-10.06479-1.85403z" fill="#604125"/></g><g stroke-width="1.657573" transform="matrix(.42415979 0 0 .42045687 146.938 76.713692)"><path d="m214.38727 96.975126c13.92407-4.229019 20.78151-26.370863 22.75581-39.174181 3.91507-39.154451 8.95262-50.5005846 23.50389-47.9138981-13.09821-.2501509-13.82035 16.3938741-19.39852 51.6219801-1.19048 7.234955-9.38141 42.444293-27.81059 41.451023-.91363-1.67126-2.67108-3.120472.94941-5.984924z" fill="#7b0809"/><g fill="#d3bc5f"><path d="m214.38727 96.975126c-2.84275 1.923657-2.42137 3.691374-.94941 5.984924l1.88583.008c-.007.61195.0141 1.79558-1.21736 2.43472-1.83183.31018-3.66908-1.18588-4.26076-2.80931-.43522-1.89828.0864-3.680495.70233-4.541695.86645-1.189235 3.06483-2.723863 3.83937-1.076639z"/><path d="m212.02028 105.38609c-2.59395-.032-6.26551 1.07961-7.01611 7.1457l-1.4795 14.37366h8.99893 8.99894l-1.48001-14.37366c-.80064-6.4705-4.92423-7.30394-7.51893-7.1253-.16216-.0112-.33039-.0183-.50332-.0204z"/></g></g><g stroke-width=".7"><path d="m206.54703 99.735812c2.83564 7.089788 6.64408 14.196588 12.77635 16.373688 7.00598 2.27613 10.60104-1.32424 13.30565-4.52599 4.18662-4.95617 6.02946-9.17019 8.77847-16.735358 1.5646-4.41349 3.32206-11.42285 6.67291-15.04046 2.36704-1.15027 7.38622-.9316 9.41355 1.06308 4.12435 3.51099 3.91506 5.41676 3.89252 7.87458-.031 2.90988 1.94745 3.93619 2.93925 3.46481 1.31976.14706 1.15063-2.27698.87383-3.97666-.74808-3.70042-4.99663-5.43747-7.7056-7.36273 2.4578 1.09912 5.19646 1.82425 7.62617 5.11848.68713.82943 3.57274 6.73432.0794 8.58328-1.04124.32494-4.62578.14395-5.43876-4.14602-.79405-2.48045 1.01754-5.89062-2.69213-8.83351-1.91845-1.81761-5.85524-2.60874-7.87612-.95846-4.19578 4.1162-6.98253 19.807738-12.83612 28.556928-4.13498 7.34635-11.18905 11.54195-17.9466 8.33545-6.52628-3.16279-9.02837-10.72274-11.8628-17.791108z" fill="#7b0809"/><g fill="none"><path d="m256.46125 88.076002c.44591 4.08674-2.05001 4.13901-2.78038 7.1265-.81035 5.583968.73979 8.937418 1.31075 13.347408"/><path d="m248.83507 114.61333c.9052 2.6643-.33182 7.10721 1.23131 13.03243.34513 1.60236 2.38595 1.40762 4.16041 5.40418.42194.95033 1.7299 2.19434 2.79053 2.43102 2.17342.31775 3.84512 1.07482 4.80608 1.69304"/><path d="m272.51438 136.2135c.49951.43316 1.29448.45094 1.78098-.0238 2.3491-2.89372 1.14855-4.66113.57087-5.29193-.63686-.79822-2.89257-2.54052-2.99377-4.35442-.15237-1.58547.3336-2.33316.8534-3.50733"/></g></g><g stroke-width="1.657573"><g transform="matrix(.42415979 0 0 .42045687 146.938 76.713692)"><path d="m263.3626 124.31894c2.49715 4.92053 4.99431 7.54277 7.49146 19.47775 1.86618 14.33755 2.88734 18.11232 4.30758 26.87558 1.62223 6.49172 4.77956 10.06828 6.19705 13.84104 2.71547 7.2274 4.63727 11.05359 4.29098 19.3086-.50472 6.51321-1.3902 9.45563-2.52836 11.51811-.48947 2.14032 1.26894 2.45892 1.77922 4.21394-2.11094 1.07209-3.07809 2.56557-3.51689 4.2537l-4.16013 9.60661h16.47947c1.51613-1.00259 2.87619-2.75448 3.03496-5.20266.12865-2.69523-.79421-4.30412-1.44304-6.12932-.55141-3.04854 1.05538-3.44084 1.59194-5.15035.1774-1.12261.15453-2.35141-.31973-3.7798-.46751-1.31864-1.26843-2.30386-1.17855-4.17987-.59434-6.34663-1.52641-23.3522 1.53982-33.64889 4.13378-11.31113 1.35658-24.5222 3.3296-33.8678 5.53825-6.88232 2.70782-11.08587 1.34589-12.58614-1.50146-1.89846-6.81954-6.04228-7.05812-10.35641-.35922-3.77081.78649-5.54911 2.01197-8.34171" fill="#604125" stroke-width="1.657573"/><path d="m1114.2814 1997.5843-11.7931 27.2341h62.2851c5.7303-3.7894 10.8707-10.4092 11.4707-19.6622.2509-5.2555-.5564-9.4181-1.7334-13.164-9.7668 3.9042-44.9061 7.7433-60.2293 5.5921z" stroke-width="6.264842" transform="matrix(.26458333 0 0 .26458333 -14.476489 -302.31906)"/></g><g fill="#f4cc50" transform="matrix(.42415979 0 0 .42045687 77.437525 72.929822)"><path d="m1705.8203 1377.0176c-24.6536-.1998-44.9587 3.4573-43.5664 39.625 1.9154 5.847 4.1374 14.0344 11.4375 21.0703 5.3435 5.15 6.0342 8.6946 9.0879 13.5508 0 0 3.9318-8.4717 11.6269-14.168 4.7814-6.8429 6.2071-14.8262 6.2071-14.8262s-1.3552 8.1285-6.2071 14.8262c-5.8548 7.8551-8.6052 18.5211-2.2988 28.1289 5.6902 8.6601 11.9758 18.5597 18.6953 29.9961 6.4441-10.2551 12.8063-20.9504 18.6933-30 6.3065-9.6079 3.558-20.2738-2.2968-28.1289-4.8518-6.6976-6.209-14.8262-6.209-14.8262s1.4276 7.9833 6.209 14.8262c7.6951 5.6964 11.625 14.168 11.625 14.168 3.0536-4.8562 3.7464-8.4008 9.0898-13.5508 7.3001-7.0359 9.5221-15.2234 11.4375-21.0703 1.4851-38.5789-21.7173-40.1687-48.5508-39.543-1.6771-.039-3.3388-.069-4.9824-.082z" stroke-width="6.264842" transform="matrix(.26458333 0 0 .26458333 -14.476489 -302.31906)"/><circle cx="438.10065" cy="68.338913" r="4.309573" stroke-width="1.657573"/></g><g transform="matrix(.42415979 0 0 .42045687 146.938 76.713692)"><path d="m385.99591 129.97605c25.56709-2.09323 25.36885 7.7662 31.78419 12.32233 9.36193 6.62565 8.9347 13.0186 35.6896 28.26786 2.08164 1.40355 3.51032 2.8439 5.28089 7.29558 1.7941 5.01935 4.31894 5.64255 5.77713 9.457 1.06787 3.48957 2.03399 9.75534 1.70131 15.02968-.21339 3.38317-1.35883 5.80146-1.70132 7.88094-.8242 2.07587.36301 3.43339 1.98647 4.6351-.85495 1.07531-1.78235 1.56044-1.58919 3.64186-1.05946.27579-2.11891.4255-3.17836 1.72159-1.11335.55225-3.59858 9.26517-6.75397 13.18642h20.66039c2.02255-3.09462 1.9708-8.39757 1.72161-10.20671-.61228-1.47797-.89566-1.90074-1.85515-2.78106 1.56849-1.14515 1.33737-2.06535 1.58917-3.04591-.61277-1.41469-1.06073-2.89531-2.51619-3.97293 1.24894-.73754 2.01754-1.9554 2.38376-3.57566-.13003-4.64151-2.13324-10.55949-1.61896-19.7915.43879-10.0929 3.50833-16.03059 3.473-25.10273-3.51835-6.75566-11.86163-6.71302-8.891-26.01066 1.64435-6.40419 5.84586-12.61283 6.41612-17.09328 3.40647-26.764099 1.8307-59.795084 1.07534-86.475989" fill="#604125"/><path d="m459.56087 224.00198c-1.22666 2.56474-2.79124 7.20371-4.56834 9.41216h20.66075c2.02256-3.09462 1.97054-8.39751 1.72133-10.20662-1.62965 3.36928-12.33366.86971-17.81374.79446z"/><path d="m417.7801 142.29838c-2.86974-3.08714-2.15599-9.27606-4.96684-13.8453" fill="none"/><g fill="#f4cc50"><path d="m1705.8203 1377.0176c-24.6536-.1998-44.9587 3.4573-43.5664 39.625 1.9154 5.847 4.1374 14.0344 11.4375 21.0703 5.3435 5.15 6.0342 8.6946 9.0879 13.5508 0 0 3.9318-8.4717 11.6269-14.168 4.7814-6.8429 6.2071-14.8262 6.2071-14.8262s-1.3552 8.1285-6.2071 14.8262c-5.8548 7.8551-8.6052 18.5211-2.2988 28.1289 5.6902 8.6601 11.9758 18.5597 18.6953 29.9961 6.4441-10.2551 12.8063-20.9504 18.6933-30 6.3065-9.6079 3.558-20.2738-2.2968-28.1289-4.8518-6.6976-6.209-14.8262-6.209-14.8262s1.4276 7.9833 6.209 14.8262c7.6951 5.6964 11.625 14.168 11.625 14.168 3.0536-4.8562 3.7464-8.4008 9.0898-13.5508 7.3001-7.0359 9.5221-15.2234 11.4375-21.0703 1.4851-38.5789-21.7173-40.1687-48.5508-39.543-1.6771-.039-3.3388-.069-4.9824-.082z" stroke-width="6.264842" transform="matrix(.26458333 0 0 .26458333 -14.476489 -302.31906)"/><circle cx="438.10065" cy="68.338913" r="4.309573" stroke-width="1.657573"/></g><path d="m496.62757 164.77275c-1.80924.16925-3.05553.9029-4.12028 2.43472-1.43761 1.57094-4.95146 14.95434.70231 21.30381 3.03281 4.49823 4.7051 2.13348 6.13363 6.41456.12383 5.82126-3.0102 7.89432-2.06015 12.45453 1.04895 5.49835 5.45389 6.06731 5.99317 11.51811.61712-2.76102 1.90622-7.28552.18726-9.97301-1.02209-1.64765-.30814-7.01865.28237-7.44816.16803-.4398-2.33727 6.46175 2.99711 7.12013-2.99711-7.12013 4.94985-10.97649 5.61663-16.4809.38062-4.7358 1.24617-13.2296-1.77923-18.72863-2.92314-4.39327-8.80646-9.21881-13.95282-8.61516z" fill="#a98c74"/><path d="m459.35761 24.308083c7.97197 1.151433 13.47876 7.155722 18.07314 11.049898 21.33839 17.983554 9.83217 63.615001 8.80244 91.302029-1.53634 22.20726.71296 24.1229 10.39438 38.11274l-.18727 2.622-3.93301-.18728c-10.4466-9.86889-13.62979-20.86668-11.70541-46.63425-.4867-21.908359 7.2818-52.861076-7.7577-70.178531-2.96329-3.412122-7.20311-7.243877-8.81711-12.227415" fill="#604125"/><g fill="none"><path d="m503.74587 201.47731c4.83214-10.83939-.79973-8.70422-4.40264-18.16322"/><path d="m507.3029 184.15687c-.61325 8.05372 3.07299 7.91244.6555 15.82568"/></g></g></g><path d="m283.64319 135.70617c5.67615-.58545 9.70632.52966 12.97574.27842 4.52282-.34756 6.49789-2.48638 10.16715-3.28523" fill="none" stroke-width=".7"/><path d="m274.03777 140.77321c8.43866-10.33635 6.80008-30.43528 4.88767-53.760308h3.08875c3.43082 35.319048 1.25549 44.279338-6.0104 54.038718z" fill="#7b0809" stroke-width=".7"/><g fill="#f1ce44" stroke-width="1.657573" transform="matrix(.42415979 0 0 .42045687 146.938 76.713692)"><g stroke-width="1.657573"><path d="m299.22793 24.495354c-1.73683 71.561668 16.44382 83.370926 38.82784 82.570056 14.82694 2.75906 15.72726-.67149 21.98359-1.72159 6.66861-1.41396 7.35083 3.10305 14.83231 2.51619 8.72251-.21399 7.71642-3.78064 15.22961-4.37025 7.97029-.81024 7.17783 2.17195 17.7458-.927 7.78673-.78588 14.19853-2.987602 17.08365-6.224285-14.04308-.744442-12.8631-43.896476-15.48488-71.843202z"/><path d="m299.22793 24.495353c-3.77588 46.286415 18.84743 75.750437 29.9551 71.426777 2.03569 5.95038 3.94496 8.57194 8.87274 11.14328 14.82694 2.75906 15.72726-.67149 21.98359-1.72159 6.66861-1.41396 7.35083 3.10305 14.83231 2.51619 8.72251-.21399 7.71642-3.78064 15.22962-4.37025 7.97028-.81024 7.17782 2.17195 17.7458-.927 7.78673-.78588 14.19853-2.987597 17.08365-6.224277-14.04309-.74445-12.86311-43.89648-15.48489-71.84321z"/><path d="m315.51698 83.956056c24.39141 6.208637 64.99984 3.346444 86.3647.430015-.11604-19.232058-2.24533-59.890799-2.24533-59.890799l-89.39117.000065c1.25537 26.729544.58137 46.81428 5.2718 59.460719z"/><path d="m363.34767 77.881972c2.99589-2.114981 4.34424-1.037023 5.62811-1.827962 2.32215-1.425686 1.98484-3.935161 4.4105-6.375003 3.41401-4.088374 9.0943-.743065 11.989-1.892925 1.16379-.563648 3.14281-1.743431 1.20471-4.015472 1.94319 2.300513-1.22863 3.15617-3.21244 2.065093-1.98034-1.197351-2.33289-4.028694.11565-8.89132 2.42718-4.607255 6.65415-3.919905 9.98122-7.342629 1.48322-1.214949.32687-3.907962 2.35195-7.342511-.51829 3.676536.98532 6.775893.28669 9.063385-1.04648 4.078053-3.31718 4.407908-2.983 8.604629.30775 2.808722 2.66661 4.306515 1.37672 11.243251-1.10856 3.935293-3.13536 6.309653-8.7766 6.482067-3.50438.281099-5.18058-1.542546-7.9162-1.720933-2.31078-.06533-4.01046.696734-5.90847 1.319367-2.28216 1.702844-5.40812-.193721-8.54799.630963z"/><path d="m350.35543 78.959023c-2.99589-2.11498-4.34424-1.03702-5.62811-1.82796-2.32215-1.42569-1.98484-3.93516-4.4105-6.375-3.41401-4.08838-9.0943-.74307-11.989-1.89293-1.16379-.56365-3.14281-1.74343-1.20471-4.01547-1.94319 2.30051 1.22863 3.15617 3.21244 2.06509 1.98034-1.19735 2.33289-4.02869-.11565-8.89132-2.42718-4.60725-6.65415-3.9199-9.98122-7.34263-1.48322-1.21495-.32687-3.90796-2.35195-7.34251.51829 3.67654-.98532 6.7759-.2867 9.06339 1.04648 4.07805 3.31719 4.40791 2.983 8.60463-.30775 2.80872-2.6666 4.30651-1.37672 11.24325 1.10857 3.93529 3.13536 6.30965 8.77661 6.48207 3.50438.28109 5.18058-1.54255 7.9162-1.72094 2.31078-.0653 4.01046.69674 5.90847 1.31937 2.28216 1.70284 5.40812-.19372 8.54799.63096z"/><path d="m348.64303 36.490526c2.5477 2.824025 3.26349 5.828716.33101 8.581395-4.50729 2.321668-9.636.595053-15.1031 1.987713 1.84629-5.331022.55613-10.586222 3.24764-14.882912 3.54243-3.189673 7.00785-1.243126 9.93189 2.766051.58589.507842 1.12076 1.024781 1.59256 1.547753z"/><path d="m344.68472 24.495301-26.22881-.000026c4.91295 4.028475 6.49171 15.879959 17.20143 15.916686 7.52067.809978 11.24617-7.439514 9.02738-15.91666z"/><path d="m362.32769 36.490508c-2.5477 2.82402-3.26349 5.82872-.33101 8.5814 4.50729 2.32166 9.636.59505 15.1031 1.98771-1.84629-5.33102-.55613-10.58622-3.24764-14.88291-3.54243-3.18968-7.00785-1.24313-9.93189 2.76605-.58589.50784-1.12076 1.02478-1.59256 1.54775z"/><path d="m366.28599 24.495298 26.22881-.00003c-4.91295 4.02848-6.49171 15.87996-17.20143 15.91669-7.52067.80998-11.24617-7.43952-9.02738-15.91666z"/></g><path d="m1386.291 1291.3926c-21.0593.198-35.9898 8.5409-36.2207 30.8105 7.4278 27.0737 33.6864 41.5091 48.4981 69.0137 14.8116-27.5046 41.0683-41.94 48.4961-69.0137-.2737-26.3936-21.1954-33.2248-48.4961-30.1191-4.2658-.4853-8.3775-.7281-12.2774-.6914z" stroke-width="6.264842" transform="matrix(.26458333 0 0 .26458333 -14.476489 -302.31906)"/><path d="m366.28599 24.495298-21.60126.000017c-3.42861 10.108362 4.6251 16.490953 11.16597 16.205978 6.57191-.286327 13.24191-6.861528 10.43529-16.205995z" stroke-width="1.657573"/></g><g stroke-width=".7"><path d="m299.76457 196.19914c-10.80704-.69611-19.92509.31582-44.36261-9.86076-10.07182-4.37874-12.86967-1.82432-15.30521 1.07542-2.96459 3.73287-.64968 14.58022-2.00925 20.57653 2.46742.85715 4.55387-.79808 5.52563-4.01196.84166-4.75905-1.56478-5.28338-.25937-11.52484 1.61704-7.05259 10.5663-3.69401 13.743-2.28363 13.85568 6.51426 30.92239 9.39025 42.66792 9.13451z" fill="#ff0"/><path d="m352.93135 182.1313c-2.18238-.0222-5.1037.73098-9.2584 2.77833-21.89079 11.68213-36.18068 10.88731-43.90827 11.28951-10.80704-.69611-19.92512.31589-44.36265-9.86069-10.07183-4.37874-12.86967-1.82445-15.30521 1.0753-2.96459 3.73287-.64975 14.58026-2.00932 20.57657 9.25944 5.16884 31.65322 15.79732 61.67718 15.12075 35.99262-.40022 60.77307-16.95546 62.52818-18.22939-1.64839-5.9247-.13834-16.03866-3.28028-19.62615-1.48761-1.60748-3.09056-3.09386-6.08123-3.12423z" fill="#353672"/></g></g><g fill="#fff" stroke-width="1.657573" transform="matrix(.42415979 0 0 .42045687 146.938 76.713692)"><path d="m265.72629 305.85591c.87609-2.9036 4.87289-6.92963-3.40151-8.64995-4.74991-1.05988-7.997-3.58684-4.91389-7.68828 2.08479 4.20254 4.38601 4.3396 7.86701 5.78177 3.31071 1.58055 8.22502 2.46725 6.7378 6.12377l-6.87698 16.36774c-1.46607 1.6739-2.68469 1.18135-4.86698.84559l1.20347-3.23301c2.6935-5.91663 1.16048-7.77195-.26179-8.48313-1.61463-.9678-2.67673.0862-3.77155.36033 1.75959-6.34788 6.90907-2.87144 8.28442-1.42483z"/><path d="m285.55085 303.04483c3.5173-.81517 5.69968.90511 6.14803 2.61178-1.25771 5.53561-5.16427 17.52766-5.16427 17.52766-.46459 1.60532-1.88581 1.92823-3.58857 2.30794-1.86312-7.04325-4.9437-11.91849-8.65653-15.66787 3.27037-2.02576 6.39275 2.92563 9.52751 7.29348l2.9709-9.3151c.1079-1.53439-2.05517-2.24464-3.88796-3.07473.53393-.67566 1.37654-1.25015 2.65089-1.68316z"/><path d="m297.36165 307.77784c2.58887-1.39798 3.85929-.56042 4.83639.13049 2.36674 2.13526 2.92206 4.27237 3.04316 6.08268-1.69802 2.01807-4.17292 3.04223-4.96669 6.17118-.52491 3.53804.48606 4.52201 1.69598 5.59551 2.44456-4.00369 5.24982-6.87204 9.85111-9.89424-.71732-1.54518-1.50043-3.04039-1.68133-4.99319l3.40804-1.74911c1.99446 1.12199 5.71207 1.33341 7.65545 1.37362 1.52005 2.25444-3.97179 4.41999-3.26829 5.55082l2.25922 3.97468c.20552 4.75495-.47417 8.09551-1.60141 11.40701-.92832.87976-3.03027.99485-4.13674.93975.80431-3.90545 1.80509-7.53454 1.77288-12.61652-.42542-.8475-.85698-1.68069-1.60318-1.78084-5.17696 1.71363-10.48472 7.82189-10.9145 12.81527-4.43946.42626-8.14666-3.5149-8.35902-7.95043-.0879-2.84357 1.09889-6.87709 4.84328-8.81521 1.14062-1.84763-1.25611-3.98492-2.83435-6.24149z"/><path d="m339.81894 302.76191c2.02252 3.20215 17.58094 3.17854 20.48556 2.2854 6.33507-.98929 10.97552-7.61729 11.05841-9.622-7.99433 4.45347-10.51616 7.74284-25.24969 6.06653-2.99749-.29852-2.23053-3.42584-2.75573-4.58993-2.18606.91829-4.92123 3.25313-3.53855 5.86z"/><path d="m334.61913 329.68941c1.345 1.37247 4.3707 2.93027 4.92809.62138.44543-3.11025.22995-9.57381.43099-13.48043-1.18693-2.90736-7.89892-.83222-11.3264-1.01008-2.80045.005-3.19819-1.69108-2.97425-3.6198 3.93947 1.66164 10.32041-.0716 13.38565-.0942 3.08699.41249 4.36118 1.86634 5.39081 3.41718l-.23591 16.26201c-.77013 2.10052-2.44739 3.50234-5.20574 4.03053-4.69977.22045-4.86279-2.73188-4.39324-6.12663z"/><path d="m359.60215 328.50752s2.32372 2.60808-.73747 3.65313c-3.38267.26079-4.33187-5.23287-4.23182-7.44043.54348-7.02218 5.61579-9.24251 10.02003-10.25739 7.0411-.53039 6.40223.7587 7.01859 2.28331l1.59962 18.81314c1.48508-.46418 3.57082-2.00334 3.6778-3.91188 0 0-.94641-15.40005-1.92384-19.10833-2.72305-1.05983-7.39092-1.47735-11.63463-.78789-5.96121.73816-11.51479 5.13472-12.06823 13.07856-.21945 4.85176.49437 10.41885 5.93974 10.77473 3.50214.16056 6.18301-.86234 8.08131-4.12554 1.12755-2.08288-1.11949-5.19771-2.75678-6.01053z"/><path d="m272.08945 289.95261c1.31568 3.55152 16.54185 6.7498 19.56845 6.47742 6.40262.34382 12.31485-5.17974 12.81102-7.12385-8.74319 2.70174-11.89144 5.39768-25.95862.70712-2.87072-.9127-1.47286-3.81344-1.74566-5.06105-2.32883.44576-5.48815 2.16369-4.67519 5.00036z"/><path d="m1643.2812 2285.3047-58.3984 11.6797c-5.0385 2.3664-16.3258 3.1964-17.1113 12.2461l5.3047 25.0293c-24.6637 5.7991-36.2422 32.8871-39.5117 57.2226-7.2317-5.3127-19.8168-29.1261 1.33-69.5332-4.9854-5.3326-10.3713-11.8599-23.7129-10.6191-7.7941 3.0245-11.1913 8.4907-10.5332 15.0293 12.3185-2.5889 17.0174-.095 17.3438 5.3105-33.3066 49.3212 13.7508 74.286 21.5898 76.0938 8.3125-33.0258 8.4357-49.2522 36.0274-58.916l11.5 49.2734c15.626-9.2404 32.2278-34.5036 25.6406-55.7656-2.5241-7.841-11.7195-13.3159-25.3906-11.7891l-3.8906-18.7168 48.8417-10.9726c7.9609 2.645 9.4807 6.3637 12.0333 9.9101l18.4042 69.7246c4.942-8.1141 14.3694-13.6651 13.4493-25.1289l-16.6348-59.4609c-5.4269-7.6869-10.8544-10.4646-16.2813-10.6172zm-52.1679 62.0469c6.3296.8145 9.7087.7218 11.1562 4.5156 3.7807 13.3751-.049 25.5084-4.6445 26.166z" transform="matrix(.26458333 0 0 .26458333 -14.476489 -302.31906)"/><path d="m452.30364 291.7359c-1.24488.78705-4.18081 1.37637-4.08923 3.77802l2.21614 6.39622c-6.28412 2.33403-8.43231 9.82656-8.48985 16.32293-2.07335-1.15677-6.16093-6.99435-1.93893-18.29825-1.48429-1.23591-3.11304-2.77229-6.57476-2.00751-1.94665 1.05049-2.65865 2.59732-2.27071 4.29223 3.14877-1.08502 4.46444-.58488 4.728.82344-7.12096 14.04425 6.05448 19.04975 8.17193 19.26639 1.09551-8.94376.5939-13.20772 7.51952-16.6527l4.64031 12.55722c3.79821-2.94007 7.32552-10.11865 4.89654-15.48378-.92067-1.97543-3.51489-3.11016-7.05371-2.25946l-1.6373-4.78568c-.91679-1.62575-.20581-2.67751-.11795-3.94907zm3.29333 13.01793c1.68851.006 2.57234-.1301 3.0772.81826 1.43267 3.38694.82628 6.69828-.35849 7.02213z"/><path d="m397.64681 296.44162 3.66815-3.08083 1.5598 6.51346-3.80058 2.58988z"/></g><g stroke="#520"><g fill="#f1c927" stroke-width="1.699406" transform="matrix(.40353422 0 0 .42045687 155.38305 76.713692)"><g stroke-width="6.422952" transform="matrix(.26458333 0 0 .26458333 -14.476489 -302.31906)"><path d="m1381.4707 287.47266v95.89648l1.8359.002 1.836-.002v-95.89648l-1.836.002z"/><path d="m1367.4707 335.57617v13.89649l15.8359.002 15.836-.002v-13.89649l-15.836.002z"/><path d="m1369.4707 325.67969v9.89648l13.8359.002 13.836-.002v-9.89648l-13.836.002z"/><path d="m1371.4707 317.7832v7.89649l11.8359.002 11.836-.002v-7.89649l-11.836.002z"/><path d="m1373.4707 309.88672v7.89648l9.8359.002 9.836-.002v-7.89648l-9.836.002z"/><path d="m1375.4707 301.99023v7.89649l7.8359.002 7.836-.002v-7.89649l-7.836.002z"/><path d="m1377.4707 296.09375v5.89648l5.8359.002 5.836-.002v-5.89648l-5.836.002z"/><path d="m1379.4707 289.47266v5.89648l3.8359.002 3.836-.002v-5.89648l-3.836.002z"/><path d="m1383.3066 277.47852c-.01 2.98076-2.5689 6.18693-2.6543 7.9082-.4697 3.82583 1.4168 3.36619 2.6543 4.08789 1.2376-.7217 3.1241-.26206 2.6543-4.08789-.085-1.72127-2.6467-4.92744-2.6543-7.9082z"/></g><g stroke-width="1.699406"><g stroke-width="1.699406"><path d="m351.52338 17.114141h-57.92203v7.380948h57.92203 57.92258v-7.380948z"/><path d="m299.95135 9.7332182v7.3809228h51.57203 51.57258v-7.3809228h-51.57258z"/><path d="m310.53468-2.4102307c-2.39712 5.5177002-6.45644 8.8744689-10.58333 12.1434489h51.57203 51.57258c-4.12692-3.26898-8.18623-6.6257487-10.58333-12.1434489h-40.98925z"/><path d="m320.15528-9.2899264c-4.42905.064796-7.38111 2.3049177-9.30796 4.7170181-1.67024 2.5267972-.73692 3.92207742-3.48764 7.4269599 4.7574.136525 9.44055-.05543 12.98472-5.2916666 1.90987 2.28647619 3.95047 4.3987507 6.90555 5.2916666 3.57862-.9627394 5.74164-3.12168645 7.94575-5.2916666 2.11016 2.39844786 4.74618 4.056618 7.85326 5.2916666 3.28594-1.1694319 7.05316-2.87104666 8.47442-5.2916666 1.42129 2.42061994 5.18903 4.1222347 8.47495 5.2916666 3.1071-1.2350486 5.74309-2.89321874 7.85325-5.2916666 2.20414 2.16998015 4.36714 4.3289272 7.94578 5.2916666 2.95506-.8929159 4.99565-3.00516395 6.90552-5.2916666 3.5442 5.2362364 8.22733 5.4281916 12.98475 5.2916666-2.75074-3.50488248-1.81793-4.9001627-3.48816-7.4269599-1.98901-2.4899144-5.07027-4.7966577-9.74101-4.7164889h-30.93508-30.93453c-.14597-.00265-.2907-.00265-.43357 0z"/><path d="m351.52338-14.554209h-30.93453v5.2642826h30.93453 30.93508v-5.2642826z"/><path d="m351.52338-20.876798h-36.2262l5.29167 6.322616h30.93453 30.93508l5.29167-6.322589z"/><path d="m315.29718-27.199413v6.322615h36.2262 36.22675v-6.322615h-36.22675z"/><path d="m322.70552-34.051195-7.40834 6.851782h36.2262 36.22675l-7.40834-6.851782h-28.81841z"/><path d="m326.93885-37.727978v3.676783h24.58453 24.58508v-3.676783h-24.58508z"/><path d="m351.52338-42.463607v.00053h-28.81786l4.23333 4.735113h24.58453 24.58508l4.23333-4.735113z"/><path d="m351.52338-47.727883-28.81786.000529v5.264277h28.81786v-.00053h28.81841v-5.264276z"/><path d="m351.52338-53.52133v.000529h-22.46786l-6.35 5.793447h28.81786v-.000529h28.81841l-6.35-5.793447z"/><path d="m333.81802-57.198107v3.677293h17.70536v-.000529h17.70591v-3.676777h-17.70591z"/><path d="m327.99718-62.991553 4.23334 5.793446h19.29286 19.29341l4.23334-5.793446h-23.52675z"/><path d="m351.52338-67.727182v.000529h-23.5262v4.735111h23.5262 23.52675v-4.735111z"/><path d="m351.52338-73.520625v.000529h-19.29286l-4.23334 5.793446h23.5262 23.52675l-4.23334-5.793962z"/><path d="m351.52338-78.784902-14.0012.000529v5.264277h14.0012v-.000529h14.00175v-5.264277z"/><path d="m333.81802-82.461682v3.67678h17.70536 17.70591v-3.67678h-17.70591z"/><path d="m345.71651-109.42179c-2.4086.88178-5.85901 2.78694-6.07766 8.46666-.26207 6.807414-.15513 12.884591-5.82083 18.493448h17.70536 17.70538c-5.6657-5.608854-5.55879-11.686037-5.82083-18.493448-.21865-5.67972-3.66908-7.58488-6.07766-8.46666h-5.80689z"/><path d="m357.30132-113.62825-5.77794.00053-5.77792.00052v4.20595l5.77792-.00053 5.77794-.00053z"/><path d="m359.94716-120.48003-8.42378.00053-8.42375.00052v6.85178l8.42375-.00052 8.42378-.00053z"/></g><g stroke-width="6.422952" transform="matrix(.26458333 0 0 .26458333 -14.476489 -302.31906)"><path d="m1379.4688 383.36914c-4.1752 138.51065-14.0009 197.07711-13.6407 208.23828.1753 5.43402 1.6407 7.96875 1.6407 7.96875l15.8378.002 15.8379-.002s1.4654-2.53473 1.6407-7.96875c.3601-11.16117-9.4655-69.72763-13.6407-208.23828l-3.8379.002z"/><path d="m1359.4688 657.36914c-7.066 13.43191-6.5442 18.33461-8 29.89648l31.8378.002 31.8379-.002c-1.4558-11.56187-.934-16.46457-8-29.89648l-23.8379.002z"/><path d="m1363.4688 627.47266c-4.313 7.51838-5.8292 19.78761-4 29.89648l23.8378.002 23.8379-.002c1.8292-10.10887.313-22.3781-4-29.89648l-19.8379.002z"/><path d="m1367.4688 599.57617c-4.6988 7.03605-5.3529 21.01964-4 27.89649l19.8378.002 19.8379-.002c1.3528-6.87685.6988-20.86044-4-27.89649l-15.8379.002z"/></g><ellipse cx="351.52353" cy="-204.09346" rx="3.083694" ry="3.20157" stroke-width="1.699406"/></g></g><g fill="#f4cc50"><g stroke-width="1.657573" transform="matrix(.42415979 0 0 .42045687 146.938 76.713692)"><g stroke-width="1.657573"><path d="m219.44399-76.639176c4.92344 6.752817 16.01261 5.422086 18.51415.84733 1.75217-3.204314 5.28885-8.724175-3.90583-23.883535 18.76084 12.104046 19.40145 33.677787 5.03713 39.128077-4.93657 1.873095-26.94837 4.923491-29.07793-17.270444l.248-5.685548 6.93704 3.492968z"/><path d="m222.31076-60.592674c-10.31242-2.852419-13.46974-16.225428-12.05125-22.910622-1.42151 6.777127 1.46355 8.438508 3.31079 9.270193 6.20304 2.792798 11.62081-5.039495 11.38909-10.197215-.89042-8.12021-4.27414-8.472601-6.67823-12.701667-4.00724-7.049205-3.4942-13.129685.58639-20.671035-11.42743 13.05499-24.74234 22.017037-22.61358 42.771758 1.70211 16.595136 19.05664 29.957642 26.05679 14.438588z"/><path d="m239.12955-60.592674c3.03023 6.975437 1.09885 11.771642-2.72912 15.680513-3.82265 3.903449-10.33123 5.399062-14.08967 10.34225.38601-3.002211 6.54083-8.456428 2.58241-11.852607-1.01446-.87037-3.54864-1.823397-4.63509-6.886431-.44985-3.703743 1.19187-7.416157 4.76752-6.489139 3.97295.595942 6.2048 1.132502 4.23781 7.018864 1.80931-1.968743 1.73459-5.446253-.26486-6.422922 3.80364.299479 7.49154-.625917 10.131-1.390528z"/></g><path d="m1129.1914 515.19141c1.8959 17.19893-12.9336 24.23672-16.5176 39.54101-4.8919 8.61687-23.7668 3.23498-36.039 15.51758-19.9548 19.97167-9.0078 38.53906-9.0078 38.53906 6.0955 22.7562-2.6684 37.16067-17.2364 35.0625 10.9539-10.31932 9.9328-26.73757.2168-40.5664 1.9703 34.63434-64.68878 17.87051-99.10349 79.58203-8.45273 15.15719-20.3247 66.05928 8.50781 97.60351h.002c11.58849 11.96675 29.56083 34.39657 34.39258 61.77344 4.34242 24.60462-2.00555 53.52471-29.92773 68.51953l-5.9668 2.84766c11.42041 72.31385 122.59283 5.74084 130.16593-40.47461-6.0561 4.66387-8.887 7.4476-19.4648 8.49414-6.2469-.33761-13.2606-3.47271-21.3008-6.12109 17.961-2.08024 39.8931-14.51936 36.9825-54.9961-2.3677-20.14397-19.4544-34.28787-21.795-42.97265-6.3306-23.49142 13.2397-31.95425 26.5489-26.09961-8.7582-17.72847-38.1326-12.89363-57.8046 1.70703-1.4446-8.39547-2.6439-23.85215 5.8964-32.14453 14.8239-14.39358 43.2868 4.85413 68.4512-35.35547 8.2262-19.47459 11.369-27.51814 5.2129-83.19727-2.035-12.65405-5.1355-19.75723 8.6094-23.26758 10.419-3.40524 7.1512-20.31282 9.541-30.91406 2.0089-8.91133 7.1392-22.10343-.3633-33.07812z" stroke-width="6.264842" transform="matrix(.26458333 0 0 .26458333 -14.476489 -302.31906)"/><g stroke-width="1.657573"><path d="m260.58315-88.071941c-5.61149 2.61007-8.19266-5.195728-6.42291-9.667488 2.91053-7.354271 16.4722-12.225861 19.66607-5.760761-3.52139-1.54904-8.6997.69041-7.0247 6.905841.61925 2.29785 5.14014 6.03992 5.7666 11.369678 1.00122 13.923394-9.10971 15.314284-13.57422 14.435024"/><path d="m239.12969-60.592821c3.02165 19.13304 32.43636 1.519 34.44008-10.70884-1.60236 1.23398-2.35163 1.97054-5.15035 2.24743-2.49024-.13458-5.43698-1.95164-9.08741-2.47239-1.51292-.21583-3.79415 1.8586-3.46077 2.94061"/></g></g><g stroke-width=".7"><path d="m296.97121-26.110331c-.31112.000333-.62144.0021-.93113.005-19.42812-.485396-45.46042 7.098294-61.06102 16.736386l5.95189 4.210001c16.78578-10.14044 42.69988-15.333986 55.10913-14.816126 12.40926-.51786 38.5478 3.340736 55.33359 13.481176l2.62152-6.15947c-18.15781-8.902019-37.42371-13.475017-57.02398-13.456958z"/><g transform="translate(165.36459 -66.145838)"><g><path d="m37.784043 236.82011c-1.15153-.87709-2.254184-5.66895-2.731644-8.93281 2.795981-4.361 3.339749-5.16985 6.467084-6.85295 2.736352-1.55914 10.628413-1.71062 12.189338-5.56816 1.956437-6.07415-.0078-10.8423-3.39841-11.10849 1.106009-2.1288 6.531895 1.39785 8.337641 7.60747.742793 2.55433 1.528884 5.84668.762228 9.65384-.454157 2.01453-1.470189 3.04707-2.854358 3.3546-1.552926.34503-4.464049-.29541-5.402931-.23643-5.166317.41815-6.819013 1.56977-8.669809 3.01449-1.645791 1.28469-3.899687 4.46665-4.699139 9.06843z"/><path d="m37.784043 236.82011c-1.330441-2.79797-3.864202-4.96023-2.731644-8.93281 2.160466-4.361 3.339749-5.16985 6.467084-6.85295 2.736352-1.55914 6.612112-2.26743 5.224003-6.29202 1.859262.94755 4.344236 9.52806-.374703 10.83122-1.749159.55965-2.782175 1.31679-3.885601 2.17812-1.645791 1.28469-3.899687 4.46665-4.699139 9.06843z"/><path d="m36.548807 84.895799c6.799272-8.786874 22.451438-23.389301 37.653042-30.253741 14.108954-7.798251 28.511861 4.597695 23.249944 8.589046 1.917533-5.804517-7.094013-8.450296-17.953272-3.858541-13.288319 5.42901-24.363611 14.392331-33.841135 25.907358z"/><path d="m14.914385 122.52667c5.759461-16.05117 16.939674-34.368266 26.056082-41.971494 10.718121-10.308786 26.016524-.945763 22.084121 5.118473.0795-3.753675-6.941735-10.425127-19.144867 1.259933-10.40313 10.85573-17.151792 22.855448-21.8458 35.986818z"/><path d="m7.6758223 166.21575c-.3146819-15.46615 2.8461507-33.62241 8.9875287-48.10896 7.048712-14.85084 23.678698-10.43328 22.019444-4.34317-1.509682-6.64594-12.18575-.54029-17.975057 12.02724-5.389296 12.30776-6.519562 28.14225-6.562491 46.19668z"/><path d="m17.819696 214.27299c-5.972442-16.57733-10.9274203-31.35984-10.1109695-52.78622.2014089-8.75692 4.9034565-16.43017 9.6393545-20.07879 3.801563-2.9288 14.404737-10.93283 17.065639-2.25352-6.466901-7.34458-14.485436 5.02027-15.052135 10.45803-.912049.43641-1.55059 1.63774-1.55059 1.63774 1.302187-2.733 6.751576-3.66128 8.068321-2.68672-6.358906 1.36287-4.496168 6.01996-4.363456 8.31978-.274597 4.23958-3.609714 5.3603-5.751263 4.46509-1.019579-.36834-2.305642-2.03863-1.963079-3.37762.424041-1.65744 1.101283-2.17579 3.014428-1.90766-1.90555-.27287-2.6096.27599-3.014428 1.90766-.09942.89185.272619 2.72296 1.963079 3.37762-5.493423 20.47286 3.883376 39.85415 8.313465 51.67259z"/><path d="m47.087293 247.69309c-8.326028-10.79728-20.300275-25.00489-23.121847-35.34505-1.853745-6.79339-5.096731-18.33735 4.453616-20.68258-3.130635-.94847-18.29433 2.43263-11.070971 21.15955 7.272493 18.05212 18.135635 31.42177 25.788576 38.96285z"/><path d="m72.722912 274.13616c-10.157414-4.33344-20.017407-12.50246-30.241478-22.78821-6.147679-6.18477-5.57242-14.82809-2.797397-19.98987 1.737707-3.23228 5.645181-7.58449 14.109061-6.38794 4.890418.8744 6.753183-.69376 7.19607-5.11369 2.081929 7.95563-.08076 16.08969-8.734328 15.97748 4.388896-5.409-3.942082-6.85835-6.915209-1.09453-1.848217 4.71771-.984335 9.52891 1.875007 13.04614 5.146093 6.33014 20.755755 17.37067 25.531544 19.31838z"/><path d="m72.722912 274.13616c-8.996268-4.44022-10.750241-5.99421-17.056178-11.20577-3.346548-2.8518-4.668586-8.38938-3.294186-12.1044.854233-2.309 3.046477-7.93139 8.378301-8.84198-7.578959 5.16813-4.593671 12.84993-1.594429 15.85888 2.788626 3.21734 10.064968 7.60944 13.589762 9.26103z"/></g><g><path d="m227.46601 84.334974c-7.3859-8.359322-16.70237-19.170975-39.85161-31.397508-16.17443-7.719504-28.8555 2.128761-24.7057 10.687366 2.37218-6.985701 11.14546-8.844024 22.00476-4.252269 13.28832 5.42901 24.99913 14.392331 34.47665 25.907358z"/><path d="m249.80231 122.52667c-5.95537-14.87574-13.00866-28.918991-26.05608-41.971494-10.37529-10.847523-26.1485-4.331833-24.99647.787457-.0795-3.753675 12.04983-4.046721 22.42586 5.590949 9.60873 11.328206 17.68013 23.879138 22.29469 35.986818z"/><path d="m256.96061 166.21576c-.56942-20.50562-2.74826-33.13252-8.98753-48.10897-8.87581-22.410433-26.9357-17.28416-27.50075-9.93412 6.99099-8.299603 20.57858 5.91686 23.90527 17.61819 4.91266 12.62275 7.36566 31.13459 7.0114 46.19668z"/><path d="m232.18081 187.96441c-5.68107 4.20188-11.31095 7.7821-15.54136 5.22399-6.91935-4.18409-4.67266-7.47809-6.78107-11.36616 2.09939-.22859 3.29319 2.63905 6.19626 2.20489-3.72028.60396-5.49206-4.74203-5.18808-6.82882.51058-3.50519 1.78676-4.77798 1.97079-7.03045.003-1.07842-.55286-2.04216-1.07243-2.51986 2.28502-.23724 4.90274.97432 5.48131 2.16551 1.64254-2.35712-3.51696-2.69517-5.00467-4.88224-2.35637-3.70399.0324-7.26679-.31776-9.64636-.55232-3.83947-2.83142-2.7991-2.78038-7.79583 2.03895 3.77455 3.83957 2.20541 5.99767 4.76413 3.40867 3.82535-.0391 5.8337 1.54907 7.75645 3.20725 2.52233 3.80812.99625 6.99065 6.45715 1.44562 2.88919.56745 6.30484-1.31075 8.46518-9.32526 11.27056 2.62441 16.13531 9.81075 13.03242z"/><path d="m223.48222 174.89261c-5.13528.30937-7.70539 10.32383-.99299 13.30804 3.30689 1.42366 5.74381-3.61247 14.49661 2.30821 1.39125-2.66257.64536-4.4681.31882-6.40299-3.53108-1.93521-7.96367-1.97717-11.16733-2.35022-3.36922-.39233-7.11002-3.31456-2.65511-6.86304z"/><path d="m229.95652 173.23895c-4.58321 2.00351-6.51508 6.44359-4.88878 10.8824.67932 1.85414 2.60888 4.04816 6.51311 3.64841 1.65764-.89581 1.23451-3.19067-.19443-3.46703 1.44191.25965 1.8574 2.55464.19443 3.46703 1.61749.4574 2.66906.73901 5.40499 2.7391 3.97467 2.90566 6.6429 7.89848 7.62723 15.01586l2.62149-8.54392c-.78249-3.29272-1.83158-8.27795-6.63093-11.31905-.48039-.33917-.88855-.63999-.95213-1.64222-1.56849 2.05795-.72051 1.87305-1.27441 3.82676.30706-1.08262.45548-3.45456-1.04695-5.30854-1.02302-1.44651-4.58209-2.50349-6.02926-2.672-3.36921-.39233-4.25021-3.47206-1.34436-6.6268z"/><path d="m229.50987 124.24364c-6.35641.001-12.1718 2.93047-12.42855 7.53604.43412-4.48336 9.48436-7.61201 19.07156 3.03123l.54338.82349c-2.36727-.45621-4.8207-.32018-7.21642.63335 3.6755-.8795 7.08752 1.98655 7.14957 7.48085.26368 5.57854 3.7154 9.0697 7.03031 8.58332 1.93063-.39615 2.83666-1.74938 2.95294-3.05317 6.93809 7.72903 4.56591 23.74816 2.17087 39.788l4.17054 7.32354c2.9569-11.8604 5.37867-27.63016 3.21727-44.01904-.62732-6.8584-3.8744-14.27766-7.70148-17.16989-.87213-.65909-1.96553-2.28176-2.90361-4.91828.38729 1.91969-.65308 2.35583-.38973 3.98225-2.41987-7.09831-9.31281-10.02299-15.66665-10.02169zm-12.42855 7.53604c-.0238.24593-.0232.49561.006.74765-.0185-.25392-.0198-.503-.006-.74765z"/><path d="m237.34437 218.12404c4.33884-6.75607 11.1641-20.10494 11.22182-30.63319.0524-9.55763-5.6336-20.1845-10.58631-14.17315.86971-7.81244 19.46675-3.63193 15.9673 18.34776-2.47779 12.881-8.05328 25.44096-13.62285 35.09877z"/><path d="m251.72283 149.49704c-2.34923-7.96374-12.74958-17.00782-22.24299-13.22929 3.6755-.8795 7.08748 1.98655 7.14953 7.48085.26369 5.57853 3.71546 9.06968 7.03037 8.58329 4.56969-.93768 3.39899-7.23748-.39719-5.55157"/><path d="m225.19016 238.20422c6.13263-6.75973 13.24402-14.93512 12.9486-28.74221-.29171-13.6333-9.27311-17.92069-12.63084-14.33174-2.7051 2.93494-.37724 7.43535 1.90654 7.95332-11.56008-1.02981-8.04201-13.77048-.71496-15.19792 6.42404-1.19238 13.02776 2.69046 16.28505 10.86691 3.15403 7.9172 2.35404 18.92806-2.66022 28.01165-3.83761 7.52003-9.59172 14.64801-14.54559 20.50235z"/><path d="m210.28842 254.08142c6.4443-5.19759 12.46248-9.69818 15.61583-17.70677 3.45455-11.9241-.77284-16.35642-4.88697-14.36586 3.7457-3.74657 9.22107-1.49975 11.14601 5.55363.77392 2.83579.55837 7.00264-.0201 9.86068-.3269 4.53634-11.30924 15.41085-19.13777 22.49269z"/><path d="m201.30089 261.26436c12.11224-5.4715 16.1907-19.4205 8.53815-21.99426 2.99344-.2003 9.97609 2.73148 8.62662 11.43556-.37272 2.40401-1.23262 3.81714-1.23262 3.81714-2.35753 4.97741-13.33954 12.35387-17.89436 15.26493z"/></g></g></g><g stroke-width="1.657573"><g transform="matrix(.42415979 0 0 .42045687 146.938 76.713692)"><path d="m297.15835 255.95222c-3.81475 9.15205 4.03041 10.4658 6.8806 10.83995 9.76401 1.28174 14.57323-5.71407 19.53617-7.90811 9.84578-4.7268 27.37627-2.77679 29.68488 5.61859l-1.59195 8.42788-2.04408 7.73279c-4.3948-1.84564-2.91079-10.1929-8.20262-12.69862-3.42445-.6747-5.49804-.0383-6.65724 1.3118-.86199 1.99425.10584 2.37562.70369 2.90489-.70369-2.90489 1.96639-4.04766 4.1203-3.17917 2.50827.97558 4.47368 3.66525 2.92093 7.26733-2.4678 3.99387-7.76215 6.66382-20.27429 4.91489-7.57718-1.22454-20.512-2.91649-25.22227-9.58043-2.26854-3.20945-6.78897-11.15911.14588-15.65179z" stroke-width="1.657573"/><path d="m425.4366 256.81301c-10.41999 15.29718-20.23521 4.42813-26.61542 1.60753-9.84578-4.7268-29.16409-2.31328-31.4727 6.0821l1.59195 8.42788 2.04408 7.73279c4.3948-1.84564 2.91079-10.1929 8.20262-12.69862 3.42445-.6747 5.49804-.0383 6.65724 1.3118.86199 1.99425-.10584 2.37562-.70369 2.90489.70369-2.90489-1.96639-4.04766-4.1203-3.17917-2.50827.97558-4.47368 3.66525-2.92093 7.26733 2.4678 3.99387 7.76215 6.66382 20.27429 4.91489 11.22646-1.81429 30.04997-7.43267 27.06286-24.37142z" stroke-width="1.657573"/><path d="m1416.4941 2111.5566c-14.8115 27.5046-49.9164 45.4793-48.4961 69.0137.2737 26.3936 21.1964 34.9777 48.4971 36.1192 27.3007-1.1415 48.2215-9.7256 48.4951-36.1192 1.4204-23.5344-33.6845-41.5091-48.4961-69.0137z" stroke-width="6.264842" transform="matrix(.26458333 0 0 .26458333 -14.476489 -302.31906)"/><path d="m1890.2422 2090.2324c-19.4464-.1991-45.4772 6.5708-82.4981 24.9746-195.0606 105.0118-322.3924 97.8671-391.25 101.4825-96.2974-6.2574-177.5452 2.8396-395.2988-88.6387-89.74623-39.3609-114.67673-16.4001-136.37889 9.666-26.41633 33.5551-5.78974 131.0634-17.9043 184.9648 21.98623 7.705 40.57931-7.1745 49.23828-36.0644 7.49964-42.7795-13.94456-47.4925-2.3125-103.5977 14.40884-63.3964 94.15261-33.2053 122.45901-20.5273 123.4627 58.5573 275.5372 84.4102 380.1972 82.1113 104.6498-2.728 253.7699-30.2066 377.8184-94.2695 27.6651-14.0223 105.8671-48.0047 123.3027 14.6269 14.3121 55.4821-6.8786 61.2178 2.666 103.5879 10.0359 28.4409 31.7879 34.9405 53.3789 26.1889-14.6882-53.2577-1.2337-144.173-29.2304-176.4213-13.2555-14.4498-27.5388-27.8111-54.1875-28.084z" stroke-width="6.264842" transform="matrix(.26458333 0 0 .26458333 -14.476489 -302.31906)"/><g stroke-width="1.657573"><path d="m227.9215 302.68187c-1.84186 6.4094-5.62601 11.51354-13.02724 9.5419-18.41642-5.22093-21.6417-21.42252-19.462-31.93466 1.07861-5.20186 3.48074-8.08353 6.94759-8.61152-5.35383 5.18299-3.60852 17.85237 4.56889 17.54715 4.53483-.27592 5.29505-2.44837 9.07155-2.51619 2.85223.30498 4.94555 3.9487 4.96616 7.01884.0321 4.78429-4.90514 7.79747-7.68102 5.23105"/><path d="m493.59771 297.90137c2.14742 6.31359 6.82531 9.25358 14.12336 6.92891 18.14455-6.09901 19.93526-20.46015 17.25343-30.85554-1.32709-5.14408-3.86479-7.90711-7.35299-8.26806 5.59648 4.92 4.46139 16.06938-3.72125 16.15707-4.54285-.0579-5.40648-.60217-9.18188-.48861-2.8343.44155-4.75029 4.18156-4.62349 7.24915.19761 4.78031 5.27381 7.553 7.92329 4.85628"/></g></g><g transform="matrix(-.42415979 0 0 .42045686 447.53175 76.713692)"><g stroke-width="1.657573"><path d="m219.44399-76.639176c4.92344 6.752817 16.01261 5.422086 18.51415.84733 1.75217-3.204314 5.28885-8.724175-3.90583-23.883535 18.76084 12.104046 19.40145 33.677787 5.03713 39.128077-4.93657 1.873095-26.94837 4.923491-29.07793-17.270444l.248-5.685548 6.93704 3.492968z"/><path d="m222.31076-60.592674c-10.31242-2.852419-13.46974-16.225428-12.05125-22.910622-1.42151 6.777127 1.46355 8.438508 3.31079 9.270193 6.20304 2.792798 11.62081-5.039495 11.38909-10.197215-.89042-8.12021-4.27414-8.472601-6.67823-12.701667-4.00724-7.049205-3.4942-13.129685.58639-20.671035-11.42743 13.05499-24.74234 22.017037-22.61358 42.771758 1.70211 16.595136 19.05664 29.957642 26.05679 14.438588z"/><path d="m239.12955-60.592674c3.03023 6.975437 1.09885 11.771642-2.72912 15.680513-3.82265 3.903449-10.33123 5.399062-14.08967 10.34225.38601-3.002211 6.54083-8.456428 2.58241-11.852607-1.01446-.87037-3.54864-1.823397-4.63509-6.886431-.44985-3.703743 1.19187-7.416157 4.76752-6.489139 3.97295.595942 6.2048 1.132502 4.23781 7.018864 1.80931-1.968743 1.73459-5.446253-.26486-6.422922 3.80364.299479 7.49154-.625917 10.131-1.390528z"/></g><path d="m1129.1914 515.19141c1.8959 17.19893-12.9336 24.23672-16.5176 39.54101-4.8919 8.61687-23.7668 3.23498-36.039 15.51758-19.9548 19.97167-9.0078 38.53906-9.0078 38.53906 6.0955 22.7562-2.6684 37.16067-17.2364 35.0625 10.9539-10.31932 9.9328-26.73757.2168-40.5664 1.9703 34.63434-64.68878 17.87051-99.10349 79.58203-8.45273 15.15719-20.3247 66.05928 8.50781 97.60351h.002c11.58849 11.96675 29.56083 34.39657 34.39258 61.77344 4.34242 24.60462-2.00555 53.52471-29.92773 68.51953l-5.9668 2.84766c11.42041 72.31385 122.59283 5.74084 130.16593-40.47461-6.0561 4.66387-8.887 7.4476-19.4648 8.49414-6.2469-.33761-13.2606-3.47271-21.3008-6.12109 17.961-2.08024 39.8931-14.51936 36.9825-54.9961-2.3677-20.14397-19.4544-34.28787-21.795-42.97265-6.3306-23.49142 13.2397-31.95425 26.5489-26.09961-8.7582-17.72847-38.1326-12.89363-57.8046 1.70703-1.4446-8.39547-2.6439-23.85215 5.8964-32.14453 14.8239-14.39358 43.2868 4.85413 68.4512-35.35547 8.2262-19.47459 11.369-27.51814 5.2129-83.19727-2.035-12.65405-5.1355-19.75723 8.6094-23.26758 10.419-3.40524 7.1512-20.31282 9.541-30.91406 2.0089-8.91133 7.1392-22.10343-.3633-33.07812z" stroke-width="6.264842" transform="matrix(.26458333 0 0 .26458333 -14.476489 -302.31906)"/><g stroke-width="1.657573"><path d="m260.58315-88.071941c-5.61149 2.61007-8.19266-5.195728-6.42291-9.667488 2.91053-7.354271 16.4722-12.225861 19.66607-5.760761-3.52139-1.54904-8.6997.69041-7.0247 6.905841.61925 2.29785 5.14014 6.03992 5.7666 11.369678 1.00122 13.923394-9.10971 15.314284-13.57422 14.435024"/><path d="m239.12969-60.592821c3.02165 19.13304 32.43636 1.519 34.44008-10.70884-1.60236 1.23398-2.35163 1.97054-5.15035 2.24743-2.49024-.13458-5.43698-1.95164-9.08741-2.47239-1.51292-.21583-3.79415 1.8586-3.46077 2.94061"/></g></g></g></g></g></g></svg>